<?xml version="1.0" encoding="UTF-8" standalone="yes"?>
<svg xmlns="http://www.w3.org/2000/svg"
     xmlns:xlink="http://www.w3.org/1999/xlink"
     width="2020.0000mm" height="1600.0000mm"
     viewBox="0 0 202.000000 160.000000">
  <!--
    Build plate : 150.00 x 150.00 mm
    Coordinate  : 1 SVG unit = 1 mm
    Display zoom: 10x  (width/height = viewBox x 10)
    Hatch stroke: 0.04 mm = ~28 mm on screen at this zoom
    Legend panel: right margin (42 mm wide)
  -->
  <defs>
    <marker id="endArrow" markerWidth="2" markerHeight="1.4"
            refX="0" refY="0.7" orient="auto"
            markerUnits="strokeWidth">
      <polyline fill="darkblue" points="0,0 2,0.7 0,1.4 0.2,0.7"/>
    </marker>
  </defs>
  <!-- Background -->
  <rect x="0" y="0" width="202.000000" height="160.000000" fill="#f0f0f0" stroke="none"/>
  <!-- Build plate boundary (150 x 150 mm) -->
  <rect x="5.000000" y="5.000000" width="150.000000" height="150.000000"
        fill="#ffffff" stroke="#aaaaaa" stroke-width="0.2" stroke-dasharray="1,0.5"/>
  <!-- Build plate centre circle (r = 75.00 mm) -->
  <circle cx="80.000000" cy="80.000000" r="75.000000"
          fill="none" stroke="#bbbbbb" stroke-width="0.15" stroke-dasharray="0.8,0.4"/>
  <!-- Centre cross-hair -->
  <line x1="5.000000" y1="80.000000" x2="155.000000" y2="80.000000" stroke="#cccccc" stroke-width="0.1"/>
  <line x1="80.000000" y1="5.000000" x2="80.000000" y2="155.000000" stroke="#cccccc" stroke-width="0.1"/>
  <circle cx="80.000000" cy="80.000000" r="0.3" fill="#cccccc" stroke="none"/>
  <!-- Corner labels -->
  <text x="5.400000" y="4.600000" font-family="sans-serif" font-size="2" fill="#888888">0,0</text>
  <text x="154.600006" y="4.600000" font-family="sans-serif" font-size="2" fill="#888888" text-anchor="end">150,0</text>
  <text x="5.400000" y="157.199997" font-family="sans-serif" font-size="2" fill="#888888">0,150</text>
  <!-- Layer geometry -->
  <g id="geometry">
    <line x1="25.15800" y1="85.00000" x2="25.02621" y2="84.97913" stroke="green" stroke-width="0.04000"/>
    <line x1="25.79723" y1="85.00000" x2="25.02621" y2="84.87788" stroke="green" stroke-width="0.04000"/>
    <line x1="26.43648" y1="85.00000" x2="25.02621" y2="84.77663" stroke="green" stroke-width="0.04000"/>
    <line x1="27.07571" y1="85.00000" x2="25.02621" y2="84.67539" stroke="green" stroke-width="0.04000"/>
    <line x1="27.71496" y1="85.00000" x2="25.02621" y2="84.57414" stroke="green" stroke-width="0.04000"/>
    <line x1="28.35422" y1="85.00000" x2="25.02621" y2="84.47289" stroke="green" stroke-width="0.04000"/>
    <line x1="28.99347" y1="85.00000" x2="25.02621" y2="84.37164" stroke="green" stroke-width="0.04000"/>
    <line x1="29.63270" y1="85.00000" x2="25.02621" y2="84.27040" stroke="green" stroke-width="0.04000"/>
    <line x1="30.27195" y1="85.00000" x2="25.02621" y2="84.16916" stroke="green" stroke-width="0.04000"/>
    <line x1="30.91118" y1="85.00000" x2="25.02621" y2="84.06791" stroke="green" stroke-width="0.04000"/>
    <line x1="31.55044" y1="85.00000" x2="25.02621" y2="83.96666" stroke="green" stroke-width="0.04000"/>
    <line x1="32.18969" y1="85.00000" x2="25.02621" y2="83.86542" stroke="green" stroke-width="0.04000"/>
    <line x1="32.82892" y1="85.00000" x2="25.02621" y2="83.76418" stroke="green" stroke-width="0.04000"/>
    <line x1="33.46818" y1="85.00000" x2="25.02621" y2="83.66293" stroke="green" stroke-width="0.04000"/>
    <line x1="34.10743" y1="85.00000" x2="25.02621" y2="83.56168" stroke="green" stroke-width="0.04000"/>
    <line x1="34.74665" y1="85.00000" x2="25.02621" y2="83.46043" stroke="green" stroke-width="0.04000"/>
    <line x1="35.02621" y1="84.94303" x2="25.02621" y2="83.35918" stroke="green" stroke-width="0.04000"/>
    <line x1="35.02621" y1="84.84178" x2="25.02621" y2="83.25793" stroke="green" stroke-width="0.04000"/>
    <line x1="35.02621" y1="84.74053" x2="25.02621" y2="83.15669" stroke="green" stroke-width="0.04000"/>
    <line x1="35.02621" y1="84.63929" x2="25.02621" y2="83.05544" stroke="green" stroke-width="0.04000"/>
    <line x1="35.02621" y1="84.53804" x2="25.02621" y2="82.95420" stroke="green" stroke-width="0.04000"/>
    <line x1="35.02621" y1="84.43680" x2="25.02621" y2="82.85295" stroke="green" stroke-width="0.04000"/>
    <line x1="35.02621" y1="84.33555" x2="25.02621" y2="82.75170" stroke="green" stroke-width="0.04000"/>
    <line x1="35.02621" y1="84.23430" x2="25.02621" y2="82.65046" stroke="green" stroke-width="0.04000"/>
    <line x1="35.02621" y1="84.13306" x2="25.02621" y2="82.54921" stroke="green" stroke-width="0.04000"/>
    <line x1="35.02621" y1="84.03181" x2="25.02621" y2="82.44797" stroke="green" stroke-width="0.04000"/>
    <line x1="35.02621" y1="83.93056" x2="25.02621" y2="82.34672" stroke="green" stroke-width="0.04000"/>
    <line x1="35.02621" y1="83.82932" x2="25.02621" y2="82.24548" stroke="green" stroke-width="0.04000"/>
    <line x1="35.02621" y1="83.72807" x2="25.02621" y2="82.14423" stroke="green" stroke-width="0.04000"/>
    <line x1="35.02621" y1="83.62682" x2="25.02621" y2="82.04298" stroke="green" stroke-width="0.04000"/>
    <line x1="35.02621" y1="83.52557" x2="25.02621" y2="81.94173" stroke="green" stroke-width="0.04000"/>
    <line x1="35.02621" y1="83.42433" x2="25.02621" y2="81.84048" stroke="green" stroke-width="0.04000"/>
    <line x1="35.02621" y1="83.32308" x2="25.02621" y2="81.73924" stroke="green" stroke-width="0.04000"/>
    <line x1="35.02621" y1="83.22184" x2="25.02621" y2="81.63799" stroke="green" stroke-width="0.04000"/>
    <line x1="35.02621" y1="83.12059" x2="25.02621" y2="81.53674" stroke="green" stroke-width="0.04000"/>
    <line x1="35.02621" y1="83.01934" x2="25.02621" y2="81.43550" stroke="green" stroke-width="0.04000"/>
    <line x1="35.02621" y1="82.91810" x2="25.02621" y2="81.33425" stroke="green" stroke-width="0.04000"/>
    <line x1="35.02621" y1="82.81685" x2="25.02621" y2="81.23301" stroke="green" stroke-width="0.04000"/>
    <line x1="35.02621" y1="82.71561" x2="25.02621" y2="81.13176" stroke="green" stroke-width="0.04000"/>
    <line x1="35.02621" y1="82.61436" x2="25.02621" y2="81.03052" stroke="green" stroke-width="0.04000"/>
    <line x1="35.02621" y1="82.51311" x2="25.02621" y2="80.92927" stroke="green" stroke-width="0.04000"/>
    <line x1="35.02621" y1="82.41187" x2="25.02621" y2="80.82802" stroke="green" stroke-width="0.04000"/>
    <line x1="35.02621" y1="82.31062" x2="25.02621" y2="80.72678" stroke="green" stroke-width="0.04000"/>
    <line x1="35.02621" y1="82.20937" x2="25.02621" y2="80.62553" stroke="green" stroke-width="0.04000"/>
    <line x1="35.02621" y1="82.10813" x2="25.02621" y2="80.52428" stroke="green" stroke-width="0.04000"/>
    <line x1="35.02621" y1="82.00688" x2="25.02621" y2="80.42303" stroke="green" stroke-width="0.04000"/>
    <line x1="35.02621" y1="81.90563" x2="25.02621" y2="80.32178" stroke="green" stroke-width="0.04000"/>
    <line x1="35.02621" y1="81.80439" x2="25.02621" y2="80.22054" stroke="green" stroke-width="0.04000"/>
    <line x1="35.02621" y1="81.70314" x2="25.02621" y2="80.11929" stroke="green" stroke-width="0.04000"/>
    <line x1="35.02621" y1="81.60189" x2="25.02621" y2="80.01805" stroke="green" stroke-width="0.04000"/>
    <line x1="35.02621" y1="81.50065" x2="25.02621" y2="79.91680" stroke="green" stroke-width="0.04000"/>
    <line x1="35.02621" y1="81.39940" x2="25.02621" y2="79.81555" stroke="green" stroke-width="0.04000"/>
    <line x1="35.02621" y1="81.29816" x2="25.02621" y2="79.71431" stroke="green" stroke-width="0.04000"/>
    <line x1="35.02621" y1="81.19691" x2="25.02621" y2="79.61307" stroke="green" stroke-width="0.04000"/>
    <line x1="35.02621" y1="81.09566" x2="25.02621" y2="79.51182" stroke="green" stroke-width="0.04000"/>
    <line x1="35.02621" y1="80.99442" x2="25.02621" y2="79.41057" stroke="green" stroke-width="0.04000"/>
    <line x1="35.02621" y1="80.89317" x2="25.02621" y2="79.30933" stroke="green" stroke-width="0.04000"/>
    <line x1="35.02621" y1="80.79192" x2="25.02621" y2="79.20808" stroke="green" stroke-width="0.04000"/>
    <line x1="35.02621" y1="80.69067" x2="25.02621" y2="79.10683" stroke="green" stroke-width="0.04000"/>
    <line x1="35.02621" y1="80.58943" x2="25.02621" y2="79.00558" stroke="green" stroke-width="0.04000"/>
    <line x1="35.02621" y1="80.48818" x2="25.02621" y2="78.90434" stroke="green" stroke-width="0.04000"/>
    <line x1="35.02621" y1="80.38693" x2="25.02621" y2="78.80309" stroke="green" stroke-width="0.04000"/>
    <line x1="35.02621" y1="80.28569" x2="25.02621" y2="78.70184" stroke="green" stroke-width="0.04000"/>
    <line x1="35.02621" y1="80.18444" x2="25.02621" y2="78.60059" stroke="green" stroke-width="0.04000"/>
    <line x1="35.02621" y1="80.08320" x2="25.02621" y2="78.49935" stroke="green" stroke-width="0.04000"/>
    <line x1="35.02621" y1="79.98195" x2="25.02621" y2="78.39811" stroke="green" stroke-width="0.04000"/>
    <line x1="35.02621" y1="79.88070" x2="25.02621" y2="78.29686" stroke="green" stroke-width="0.04000"/>
    <line x1="35.02621" y1="79.77946" x2="25.02621" y2="78.19561" stroke="green" stroke-width="0.04000"/>
    <line x1="35.02621" y1="79.67821" x2="25.02621" y2="78.09437" stroke="green" stroke-width="0.04000"/>
    <line x1="35.02621" y1="79.57697" x2="25.02621" y2="77.99312" stroke="green" stroke-width="0.04000"/>
    <line x1="35.02621" y1="79.47572" x2="25.02621" y2="77.89187" stroke="green" stroke-width="0.04000"/>
    <line x1="35.02621" y1="79.37447" x2="25.02621" y2="77.79063" stroke="green" stroke-width="0.04000"/>
    <line x1="35.02621" y1="79.27322" x2="25.02621" y2="77.68938" stroke="green" stroke-width="0.04000"/>
    <line x1="35.02621" y1="79.17198" x2="25.02621" y2="77.58813" stroke="green" stroke-width="0.04000"/>
    <line x1="35.02621" y1="79.07073" x2="25.02621" y2="77.48689" stroke="green" stroke-width="0.04000"/>
    <line x1="35.02621" y1="78.96948" x2="25.02621" y2="77.38564" stroke="green" stroke-width="0.04000"/>
    <line x1="35.02621" y1="78.86823" x2="25.02621" y2="77.28439" stroke="green" stroke-width="0.04000"/>
    <line x1="35.02621" y1="78.76699" x2="25.02621" y2="77.18315" stroke="green" stroke-width="0.04000"/>
    <line x1="35.02621" y1="78.66574" x2="25.02621" y2="77.08190" stroke="green" stroke-width="0.04000"/>
    <line x1="35.02621" y1="78.56450" x2="25.02621" y2="76.98065" stroke="green" stroke-width="0.04000"/>
    <line x1="35.02621" y1="78.46325" x2="25.02621" y2="76.87941" stroke="green" stroke-width="0.04000"/>
    <line x1="35.02621" y1="78.36201" x2="25.02621" y2="76.77816" stroke="green" stroke-width="0.04000"/>
    <line x1="35.02621" y1="78.26076" x2="25.02621" y2="76.67692" stroke="green" stroke-width="0.04000"/>
    <line x1="35.02621" y1="78.15952" x2="25.02621" y2="76.57567" stroke="green" stroke-width="0.04000"/>
    <line x1="35.02621" y1="78.05827" x2="25.02621" y2="76.47442" stroke="green" stroke-width="0.04000"/>
    <line x1="35.02621" y1="77.95702" x2="25.02621" y2="76.37318" stroke="green" stroke-width="0.04000"/>
    <line x1="35.02621" y1="77.85577" x2="25.02621" y2="76.27193" stroke="green" stroke-width="0.04000"/>
    <line x1="35.02621" y1="77.75452" x2="25.02621" y2="76.17068" stroke="green" stroke-width="0.04000"/>
    <line x1="35.02621" y1="77.65328" x2="25.02621" y2="76.06944" stroke="green" stroke-width="0.04000"/>
    <line x1="35.02621" y1="77.55203" x2="25.02621" y2="75.96819" stroke="green" stroke-width="0.04000"/>
    <line x1="35.02621" y1="77.45078" x2="25.02621" y2="75.86694" stroke="green" stroke-width="0.04000"/>
    <line x1="35.02621" y1="77.34954" x2="25.02621" y2="75.76569" stroke="green" stroke-width="0.04000"/>
    <line x1="35.02621" y1="77.24829" x2="25.02621" y2="75.66445" stroke="green" stroke-width="0.04000"/>
    <line x1="35.02621" y1="77.14705" x2="25.02621" y2="75.56320" stroke="green" stroke-width="0.04000"/>
    <line x1="35.02621" y1="77.04580" x2="25.02621" y2="75.46196" stroke="green" stroke-width="0.04000"/>
    <line x1="35.02621" y1="76.94455" x2="25.02621" y2="75.36071" stroke="green" stroke-width="0.04000"/>
    <line x1="35.02621" y1="76.84331" x2="25.02621" y2="75.25946" stroke="green" stroke-width="0.04000"/>
    <line x1="35.02621" y1="76.74207" x2="25.02621" y2="75.15822" stroke="green" stroke-width="0.04000"/>
    <line x1="35.02621" y1="76.64082" x2="25.02621" y2="75.05697" stroke="green" stroke-width="0.04000"/>
    <line x1="35.02621" y1="76.53957" x2="25.30577" y2="75.00000" stroke="green" stroke-width="0.04000"/>
    <line x1="35.02621" y1="76.43832" x2="25.94499" y2="75.00000" stroke="green" stroke-width="0.04000"/>
    <line x1="35.02621" y1="76.33707" x2="26.58425" y2="75.00000" stroke="green" stroke-width="0.04000"/>
    <line x1="35.02621" y1="76.23582" x2="27.22350" y2="75.00000" stroke="green" stroke-width="0.04000"/>
    <line x1="35.02621" y1="76.13458" x2="27.86274" y2="75.00000" stroke="green" stroke-width="0.04000"/>
    <line x1="35.02621" y1="76.03333" x2="28.50199" y2="75.00000" stroke="green" stroke-width="0.04000"/>
    <line x1="35.02621" y1="75.93209" x2="29.14124" y2="75.00000" stroke="green" stroke-width="0.04000"/>
    <line x1="35.02621" y1="75.83084" x2="29.78047" y2="75.00000" stroke="green" stroke-width="0.04000"/>
    <line x1="35.02621" y1="75.72959" x2="30.41973" y2="75.00000" stroke="green" stroke-width="0.04000"/>
    <line x1="35.02621" y1="75.62835" x2="31.05895" y2="75.00000" stroke="green" stroke-width="0.04000"/>
    <line x1="35.02621" y1="75.52711" x2="31.69821" y2="75.00000" stroke="green" stroke-width="0.04000"/>
    <line x1="35.02621" y1="75.42586" x2="32.33746" y2="75.00000" stroke="green" stroke-width="0.04000"/>
    <line x1="35.02621" y1="75.32461" x2="32.97672" y2="75.00000" stroke="green" stroke-width="0.04000"/>
    <line x1="35.02621" y1="75.22337" x2="33.61595" y2="75.00000" stroke="green" stroke-width="0.04000"/>
    <line x1="35.02621" y1="75.12212" x2="34.25520" y2="75.00000" stroke="green" stroke-width="0.04000"/>
    <line x1="35.02621" y1="75.02087" x2="34.89442" y2="75.00000" stroke="green" stroke-width="0.04000"/>
    <line x1="123.81487" y1="91.23541" x2="123.62379" y2="91.20515" stroke="green" stroke-width="0.04000"/>
    <line x1="124.45412" y1="91.23541" x2="123.62379" y2="91.10390" stroke="green" stroke-width="0.04000"/>
    <line x1="125.09338" y1="91.23541" x2="123.62379" y2="91.00265" stroke="green" stroke-width="0.04000"/>
    <line x1="125.73260" y1="91.23541" x2="123.62379" y2="90.90141" stroke="green" stroke-width="0.04000"/>
    <line x1="126.37184" y1="91.23541" x2="123.62379" y2="90.80016" stroke="green" stroke-width="0.04000"/>
    <line x1="127.01109" y1="91.23541" x2="123.62379" y2="90.69891" stroke="green" stroke-width="0.04000"/>
    <line x1="127.65034" y1="91.23541" x2="123.62379" y2="90.59767" stroke="green" stroke-width="0.04000"/>
    <line x1="128.28960" y1="91.23541" x2="123.62379" y2="90.49642" stroke="green" stroke-width="0.04000"/>
    <line x1="128.92883" y1="91.23541" x2="123.62379" y2="90.39517" stroke="green" stroke-width="0.04000"/>
    <line x1="129.56808" y1="91.23541" x2="123.62379" y2="90.29393" stroke="green" stroke-width="0.04000"/>
    <line x1="130.20731" y1="91.23541" x2="123.62379" y2="90.19268" stroke="green" stroke-width="0.04000"/>
    <line x1="130.84656" y1="91.23541" x2="123.62379" y2="90.09144" stroke="green" stroke-width="0.04000"/>
    <line x1="131.48581" y1="91.23541" x2="123.62379" y2="89.99019" stroke="green" stroke-width="0.04000"/>
    <line x1="132.12506" y1="91.23541" x2="123.62379" y2="89.88894" stroke="green" stroke-width="0.04000"/>
    <line x1="132.76431" y1="91.23541" x2="123.62379" y2="89.78769" stroke="green" stroke-width="0.04000"/>
    <line x1="133.40356" y1="91.23541" x2="123.62379" y2="89.68645" stroke="green" stroke-width="0.04000"/>
    <line x1="134.04279" y1="91.23541" x2="123.62379" y2="89.58521" stroke="green" stroke-width="0.04000"/>
    <line x1="134.68202" y1="91.23541" x2="123.62379" y2="89.48396" stroke="green" stroke-width="0.04000"/>
    <line x1="135.32127" y1="91.23541" x2="123.62379" y2="89.38271" stroke="green" stroke-width="0.04000"/>
    <line x1="135.96054" y1="91.23541" x2="123.62379" y2="89.28146" stroke="green" stroke-width="0.04000"/>
    <line x1="136.32379" y1="91.19170" x2="123.62379" y2="89.18022" stroke="green" stroke-width="0.04000"/>
    <line x1="136.32379" y1="91.09045" x2="123.62379" y2="89.07897" stroke="green" stroke-width="0.04000"/>
    <line x1="136.32379" y1="90.98921" x2="123.62379" y2="88.97773" stroke="green" stroke-width="0.04000"/>
    <line x1="136.32379" y1="90.88796" x2="123.62379" y2="88.87648" stroke="green" stroke-width="0.04000"/>
    <line x1="136.32379" y1="90.78671" x2="123.62379" y2="88.77523" stroke="green" stroke-width="0.04000"/>
    <line x1="136.32379" y1="90.68546" x2="123.62379" y2="88.67398" stroke="green" stroke-width="0.04000"/>
    <line x1="136.32379" y1="90.58422" x2="123.62379" y2="88.57274" stroke="green" stroke-width="0.04000"/>
    <line x1="136.32379" y1="90.48298" x2="123.62379" y2="88.47150" stroke="green" stroke-width="0.04000"/>
    <line x1="136.32379" y1="90.38173" x2="123.62379" y2="88.37025" stroke="green" stroke-width="0.04000"/>
    <line x1="136.32379" y1="90.28048" x2="123.62379" y2="88.26900" stroke="green" stroke-width="0.04000"/>
    <line x1="136.32379" y1="90.17924" x2="123.62379" y2="88.16775" stroke="green" stroke-width="0.04000"/>
    <line x1="136.32379" y1="90.07799" x2="123.62379" y2="88.06651" stroke="green" stroke-width="0.04000"/>
    <line x1="136.32379" y1="89.97675" x2="123.62379" y2="87.96526" stroke="green" stroke-width="0.04000"/>
    <line x1="136.32379" y1="89.87550" x2="123.62379" y2="87.86401" stroke="green" stroke-width="0.04000"/>
    <line x1="136.32379" y1="89.77425" x2="123.62379" y2="87.76276" stroke="green" stroke-width="0.04000"/>
    <line x1="136.32379" y1="89.67300" x2="123.62379" y2="87.66151" stroke="green" stroke-width="0.04000"/>
    <line x1="136.32379" y1="89.57175" x2="123.62379" y2="87.56027" stroke="green" stroke-width="0.04000"/>
    <line x1="136.32379" y1="89.47050" x2="123.62379" y2="87.45902" stroke="green" stroke-width="0.04000"/>
    <line x1="136.32379" y1="89.36926" x2="123.62379" y2="87.35778" stroke="green" stroke-width="0.04000"/>
    <line x1="136.32379" y1="89.26802" x2="123.62379" y2="87.25654" stroke="green" stroke-width="0.04000"/>
    <line x1="136.32379" y1="89.16677" x2="123.62379" y2="87.15529" stroke="green" stroke-width="0.04000"/>
    <line x1="136.32379" y1="89.06552" x2="123.62379" y2="87.05404" stroke="green" stroke-width="0.04000"/>
    <line x1="136.32379" y1="88.96428" x2="123.62379" y2="86.95279" stroke="green" stroke-width="0.04000"/>
    <line x1="136.32379" y1="88.86303" x2="123.62379" y2="86.85155" stroke="green" stroke-width="0.04000"/>
    <line x1="136.32379" y1="88.76178" x2="123.62379" y2="86.75030" stroke="green" stroke-width="0.04000"/>
    <line x1="136.32379" y1="88.66054" x2="123.62379" y2="86.64906" stroke="green" stroke-width="0.04000"/>
    <line x1="136.32379" y1="88.55930" x2="123.62379" y2="86.54781" stroke="green" stroke-width="0.04000"/>
    <line x1="136.32379" y1="88.45805" x2="123.62379" y2="86.44656" stroke="green" stroke-width="0.04000"/>
    <line x1="136.32379" y1="88.35680" x2="123.62379" y2="86.34531" stroke="green" stroke-width="0.04000"/>
    <line x1="136.32379" y1="88.25555" x2="123.62379" y2="86.24406" stroke="green" stroke-width="0.04000"/>
    <line x1="136.32379" y1="88.15430" x2="123.62379" y2="86.14282" stroke="green" stroke-width="0.04000"/>
    <line x1="136.32379" y1="88.05306" x2="123.62379" y2="86.04158" stroke="green" stroke-width="0.04000"/>
    <line x1="136.32379" y1="87.95181" x2="123.62379" y2="85.94033" stroke="green" stroke-width="0.04000"/>
    <line x1="136.32379" y1="87.85056" x2="123.62379" y2="85.83908" stroke="green" stroke-width="0.04000"/>
    <line x1="136.32379" y1="87.74931" x2="123.62379" y2="85.73783" stroke="green" stroke-width="0.04000"/>
    <line x1="136.32379" y1="87.64807" x2="123.62379" y2="85.63659" stroke="green" stroke-width="0.04000"/>
    <line x1="136.32379" y1="87.54683" x2="123.62379" y2="85.53535" stroke="green" stroke-width="0.04000"/>
    <line x1="136.32379" y1="87.44558" x2="123.62379" y2="85.43410" stroke="green" stroke-width="0.04000"/>
    <line x1="136.32379" y1="87.34433" x2="123.62379" y2="85.33285" stroke="green" stroke-width="0.04000"/>
    <line x1="136.32379" y1="87.24309" x2="123.62379" y2="85.23161" stroke="green" stroke-width="0.04000"/>
    <line x1="136.32379" y1="87.14184" x2="123.62379" y2="85.13036" stroke="green" stroke-width="0.04000"/>
    <line x1="136.32379" y1="87.04060" x2="123.62379" y2="85.02911" stroke="green" stroke-width="0.04000"/>
    <line x1="136.32379" y1="86.93935" x2="123.62379" y2="84.92786" stroke="green" stroke-width="0.04000"/>
    <line x1="136.32379" y1="86.83810" x2="123.62379" y2="84.82662" stroke="green" stroke-width="0.04000"/>
    <line x1="136.32379" y1="86.73685" x2="123.62379" y2="84.72537" stroke="green" stroke-width="0.04000"/>
    <line x1="136.32379" y1="86.63560" x2="123.62379" y2="84.62412" stroke="green" stroke-width="0.04000"/>
    <line x1="136.32379" y1="86.53436" x2="123.62379" y2="84.52287" stroke="green" stroke-width="0.04000"/>
    <line x1="136.32379" y1="86.43311" x2="123.62379" y2="84.42163" stroke="green" stroke-width="0.04000"/>
    <line x1="136.32379" y1="86.33187" x2="123.62379" y2="84.32039" stroke="green" stroke-width="0.04000"/>
    <line x1="136.32379" y1="86.23062" x2="123.62379" y2="84.21914" stroke="green" stroke-width="0.04000"/>
    <line x1="136.32379" y1="86.12938" x2="123.62379" y2="84.11789" stroke="green" stroke-width="0.04000"/>
    <line x1="136.32379" y1="86.02813" x2="123.62379" y2="84.01664" stroke="green" stroke-width="0.04000"/>
    <line x1="136.32379" y1="85.92688" x2="123.62379" y2="83.91540" stroke="green" stroke-width="0.04000"/>
    <line x1="136.32379" y1="85.82563" x2="123.62379" y2="83.81416" stroke="green" stroke-width="0.04000"/>
    <line x1="136.32379" y1="85.72439" x2="123.62379" y2="83.71291" stroke="green" stroke-width="0.04000"/>
    <line x1="136.32379" y1="85.62315" x2="123.62379" y2="83.61166" stroke="green" stroke-width="0.04000"/>
    <line x1="136.32379" y1="85.52190" x2="123.62379" y2="83.51041" stroke="green" stroke-width="0.04000"/>
    <line x1="136.32379" y1="85.42065" x2="123.62379" y2="83.40916" stroke="green" stroke-width="0.04000"/>
    <line x1="136.32379" y1="85.31940" x2="123.62379" y2="83.30791" stroke="green" stroke-width="0.04000"/>
    <line x1="136.32379" y1="85.21815" x2="123.62379" y2="83.20667" stroke="green" stroke-width="0.04000"/>
    <line x1="136.32379" y1="85.11691" x2="123.62379" y2="83.10543" stroke="green" stroke-width="0.04000"/>
    <line x1="136.32379" y1="85.01566" x2="123.62379" y2="83.00418" stroke="green" stroke-width="0.04000"/>
    <line x1="136.32379" y1="84.91441" x2="123.62379" y2="82.90293" stroke="green" stroke-width="0.04000"/>
    <line x1="136.32379" y1="84.81317" x2="123.62379" y2="82.80168" stroke="green" stroke-width="0.04000"/>
    <line x1="136.32379" y1="84.71192" x2="123.62379" y2="82.70044" stroke="green" stroke-width="0.04000"/>
    <line x1="136.32379" y1="84.61068" x2="123.62379" y2="82.59920" stroke="green" stroke-width="0.04000"/>
    <line x1="136.32379" y1="84.50943" x2="123.62379" y2="82.49795" stroke="green" stroke-width="0.04000"/>
    <line x1="136.32379" y1="84.40819" x2="123.62379" y2="82.39670" stroke="green" stroke-width="0.04000"/>
    <line x1="136.32379" y1="84.30694" x2="123.62379" y2="82.29546" stroke="green" stroke-width="0.04000"/>
    <line x1="136.32379" y1="84.20569" x2="123.62379" y2="82.19421" stroke="green" stroke-width="0.04000"/>
    <line x1="136.32379" y1="84.10444" x2="123.62379" y2="82.09296" stroke="green" stroke-width="0.04000"/>
    <line x1="136.32379" y1="84.00320" x2="123.62379" y2="81.99171" stroke="green" stroke-width="0.04000"/>
    <line x1="136.32379" y1="83.90195" x2="123.62379" y2="81.89047" stroke="green" stroke-width="0.04000"/>
    <line x1="136.32379" y1="83.80070" x2="123.62379" y2="81.78922" stroke="green" stroke-width="0.04000"/>
    <line x1="136.32379" y1="83.69946" x2="123.62379" y2="81.68797" stroke="green" stroke-width="0.04000"/>
    <line x1="136.32379" y1="83.59821" x2="123.62379" y2="81.58672" stroke="green" stroke-width="0.04000"/>
    <line x1="136.32379" y1="83.49696" x2="123.62379" y2="81.48548" stroke="green" stroke-width="0.04000"/>
    <line x1="136.32379" y1="83.39572" x2="123.98704" y2="81.44177" stroke="green" stroke-width="0.04000"/>
    <line x1="136.32379" y1="83.29447" x2="124.62629" y2="81.44177" stroke="green" stroke-width="0.04000"/>
    <line x1="136.32379" y1="83.19323" x2="125.26554" y2="81.44177" stroke="green" stroke-width="0.04000"/>
    <line x1="136.32379" y1="83.09198" x2="125.90480" y2="81.44177" stroke="green" stroke-width="0.04000"/>
    <line x1="136.32379" y1="82.99073" x2="126.54405" y2="81.44177" stroke="green" stroke-width="0.04000"/>
    <line x1="136.32379" y1="82.88949" x2="127.18327" y2="81.44177" stroke="green" stroke-width="0.04000"/>
    <line x1="136.32379" y1="82.78825" x2="127.82251" y2="81.44177" stroke="green" stroke-width="0.04000"/>
    <line x1="136.32379" y1="82.68700" x2="128.46176" y2="81.44177" stroke="green" stroke-width="0.04000"/>
    <line x1="136.32379" y1="82.58575" x2="129.10101" y2="81.44177" stroke="green" stroke-width="0.04000"/>
    <line x1="136.32379" y1="82.48450" x2="129.74026" y2="81.44177" stroke="green" stroke-width="0.04000"/>
    <line x1="136.32379" y1="82.38325" x2="130.37952" y2="81.44177" stroke="green" stroke-width="0.04000"/>
    <line x1="136.32379" y1="82.28201" x2="131.01875" y2="81.44177" stroke="green" stroke-width="0.04000"/>
    <line x1="136.32379" y1="82.18076" x2="131.65797" y2="81.44177" stroke="green" stroke-width="0.04000"/>
    <line x1="136.32379" y1="82.07951" x2="132.29724" y2="81.44177" stroke="green" stroke-width="0.04000"/>
    <line x1="136.32379" y1="81.97826" x2="132.93649" y2="81.44177" stroke="green" stroke-width="0.04000"/>
    <line x1="136.32379" y1="81.87702" x2="133.57574" y2="81.44177" stroke="green" stroke-width="0.04000"/>
    <line x1="136.32379" y1="81.77577" x2="134.21500" y2="81.44177" stroke="green" stroke-width="0.04000"/>
    <line x1="136.32379" y1="81.67452" x2="134.85423" y2="81.44177" stroke="green" stroke-width="0.04000"/>
    <line x1="136.32379" y1="81.57328" x2="135.49345" y2="81.44177" stroke="green" stroke-width="0.04000"/>
    <line x1="136.32379" y1="81.47204" x2="136.13271" y2="81.44177" stroke="green" stroke-width="0.04000"/>
    <line x1="123.80727" y1="78.55823" x2="123.62379" y2="78.52917" stroke="green" stroke-width="0.04000"/>
    <line x1="124.44653" y1="78.55823" x2="123.62379" y2="78.42792" stroke="green" stroke-width="0.04000"/>
    <line x1="125.08578" y1="78.55823" x2="123.62379" y2="78.32667" stroke="green" stroke-width="0.04000"/>
    <line x1="125.72502" y1="78.55823" x2="123.62379" y2="78.22543" stroke="green" stroke-width="0.04000"/>
    <line x1="126.36427" y1="78.55823" x2="123.62379" y2="78.12418" stroke="green" stroke-width="0.04000"/>
    <line x1="127.00353" y1="78.55823" x2="123.62379" y2="78.02293" stroke="green" stroke-width="0.04000"/>
    <line x1="127.64275" y1="78.55823" x2="123.62379" y2="77.92168" stroke="green" stroke-width="0.04000"/>
    <line x1="128.28201" y1="78.55823" x2="123.62379" y2="77.82043" stroke="green" stroke-width="0.04000"/>
    <line x1="128.92126" y1="78.55823" x2="123.62379" y2="77.71919" stroke="green" stroke-width="0.04000"/>
    <line x1="129.56049" y1="78.55823" x2="123.62379" y2="77.61794" stroke="green" stroke-width="0.04000"/>
    <line x1="130.19974" y1="78.55823" x2="123.62379" y2="77.51669" stroke="green" stroke-width="0.04000"/>
    <line x1="130.83897" y1="78.55823" x2="123.62379" y2="77.41545" stroke="green" stroke-width="0.04000"/>
    <line x1="131.47823" y1="78.55823" x2="123.62379" y2="77.31421" stroke="green" stroke-width="0.04000"/>
    <line x1="132.11748" y1="78.55823" x2="123.62379" y2="77.21296" stroke="green" stroke-width="0.04000"/>
    <line x1="132.75671" y1="78.55823" x2="123.62379" y2="77.11171" stroke="green" stroke-width="0.04000"/>
    <line x1="133.39597" y1="78.55823" x2="123.62379" y2="77.01047" stroke="green" stroke-width="0.04000"/>
    <line x1="134.03522" y1="78.55823" x2="123.62379" y2="76.90922" stroke="green" stroke-width="0.04000"/>
    <line x1="134.67445" y1="78.55823" x2="123.62379" y2="76.80798" stroke="green" stroke-width="0.04000"/>
    <line x1="135.31371" y1="78.55823" x2="123.62379" y2="76.70673" stroke="green" stroke-width="0.04000"/>
    <line x1="135.95296" y1="78.55823" x2="123.62379" y2="76.60548" stroke="green" stroke-width="0.04000"/>
    <line x1="136.32379" y1="78.51572" x2="123.62379" y2="76.50423" stroke="green" stroke-width="0.04000"/>
    <line x1="136.32379" y1="78.41447" x2="123.62379" y2="76.40298" stroke="green" stroke-width="0.04000"/>
    <line x1="136.32379" y1="78.31322" x2="123.62379" y2="76.30173" stroke="green" stroke-width="0.04000"/>
    <line x1="136.32379" y1="78.21198" x2="123.62379" y2="76.20049" stroke="green" stroke-width="0.04000"/>
    <line x1="136.32379" y1="78.11073" x2="123.62379" y2="76.09925" stroke="green" stroke-width="0.04000"/>
    <line x1="136.32379" y1="78.00948" x2="123.62379" y2="75.99800" stroke="green" stroke-width="0.04000"/>
    <line x1="136.32379" y1="77.90824" x2="123.62379" y2="75.89675" stroke="green" stroke-width="0.04000"/>
    <line x1="136.32379" y1="77.80699" x2="123.62379" y2="75.79551" stroke="green" stroke-width="0.04000"/>
    <line x1="136.32379" y1="77.70574" x2="123.62379" y2="75.69426" stroke="green" stroke-width="0.04000"/>
    <line x1="136.32379" y1="77.60450" x2="123.62379" y2="75.59302" stroke="green" stroke-width="0.04000"/>
    <line x1="136.32379" y1="77.50325" x2="123.62379" y2="75.49177" stroke="green" stroke-width="0.04000"/>
    <line x1="136.32379" y1="77.40200" x2="123.62379" y2="75.39052" stroke="green" stroke-width="0.04000"/>
    <line x1="136.32379" y1="77.30076" x2="123.62379" y2="75.28928" stroke="green" stroke-width="0.04000"/>
    <line x1="136.32379" y1="77.19951" x2="123.62379" y2="75.18803" stroke="green" stroke-width="0.04000"/>
    <line x1="136.32379" y1="77.09827" x2="123.62379" y2="75.08678" stroke="green" stroke-width="0.04000"/>
    <line x1="136.32379" y1="76.99702" x2="123.62379" y2="74.98553" stroke="green" stroke-width="0.04000"/>
    <line x1="136.32379" y1="76.89577" x2="123.62379" y2="74.88429" stroke="green" stroke-width="0.04000"/>
    <line x1="136.32379" y1="76.79452" x2="123.62379" y2="74.78304" stroke="green" stroke-width="0.04000"/>
    <line x1="136.32379" y1="76.69328" x2="123.62379" y2="74.68179" stroke="green" stroke-width="0.04000"/>
    <line x1="136.32379" y1="76.59203" x2="123.62379" y2="74.58054" stroke="green" stroke-width="0.04000"/>
    <line x1="136.32379" y1="76.49078" x2="123.62379" y2="74.47930" stroke="green" stroke-width="0.04000"/>
    <line x1="136.32379" y1="76.38954" x2="123.62379" y2="74.37806" stroke="green" stroke-width="0.04000"/>
    <line x1="136.32379" y1="76.28829" x2="123.62379" y2="74.27681" stroke="green" stroke-width="0.04000"/>
    <line x1="136.32379" y1="76.18704" x2="123.62379" y2="74.17556" stroke="green" stroke-width="0.04000"/>
    <line x1="136.32379" y1="76.08580" x2="123.62379" y2="74.07432" stroke="green" stroke-width="0.04000"/>
    <line x1="136.32379" y1="75.98455" x2="123.62379" y2="73.97307" stroke="green" stroke-width="0.04000"/>
    <line x1="136.32379" y1="75.88331" x2="123.62379" y2="73.87183" stroke="green" stroke-width="0.04000"/>
    <line x1="136.32379" y1="75.78206" x2="123.62379" y2="73.77058" stroke="green" stroke-width="0.04000"/>
    <line x1="136.32379" y1="75.68081" x2="123.62379" y2="73.66933" stroke="green" stroke-width="0.04000"/>
    <line x1="136.32379" y1="75.57957" x2="123.62379" y2="73.56808" stroke="green" stroke-width="0.04000"/>
    <line x1="136.32379" y1="75.47832" x2="123.62379" y2="73.46684" stroke="green" stroke-width="0.04000"/>
    <line x1="136.32379" y1="75.37708" x2="123.62379" y2="73.36559" stroke="green" stroke-width="0.04000"/>
    <line x1="136.32379" y1="75.27583" x2="123.62379" y2="73.26434" stroke="green" stroke-width="0.04000"/>
    <line x1="136.32379" y1="75.17458" x2="123.62379" y2="73.16310" stroke="green" stroke-width="0.04000"/>
    <line x1="136.32379" y1="75.07333" x2="123.62379" y2="73.06185" stroke="green" stroke-width="0.04000"/>
    <line x1="136.32379" y1="74.97209" x2="123.62379" y2="72.96061" stroke="green" stroke-width="0.04000"/>
    <line x1="136.32379" y1="74.87084" x2="123.62379" y2="72.85936" stroke="green" stroke-width="0.04000"/>
    <line x1="136.32379" y1="74.76959" x2="123.62379" y2="72.75811" stroke="green" stroke-width="0.04000"/>
    <line x1="136.32379" y1="74.66835" x2="123.62379" y2="72.65687" stroke="green" stroke-width="0.04000"/>
    <line x1="136.32379" y1="74.56710" x2="123.62379" y2="72.55562" stroke="green" stroke-width="0.04000"/>
    <line x1="136.32379" y1="74.46585" x2="123.62379" y2="72.45437" stroke="green" stroke-width="0.04000"/>
    <line x1="136.32379" y1="74.36461" x2="123.62379" y2="72.35313" stroke="green" stroke-width="0.04000"/>
    <line x1="136.32379" y1="74.26337" x2="123.62379" y2="72.25188" stroke="green" stroke-width="0.04000"/>
    <line x1="136.32379" y1="74.16212" x2="123.62379" y2="72.15063" stroke="green" stroke-width="0.04000"/>
    <line x1="136.32379" y1="74.06087" x2="123.62379" y2="72.04939" stroke="green" stroke-width="0.04000"/>
    <line x1="136.32379" y1="73.95963" x2="123.62379" y2="71.94814" stroke="green" stroke-width="0.04000"/>
    <line x1="136.32379" y1="73.85838" x2="123.62379" y2="71.84689" stroke="green" stroke-width="0.04000"/>
    <line x1="136.32379" y1="73.75713" x2="123.62379" y2="71.74564" stroke="green" stroke-width="0.04000"/>
    <line x1="136.32379" y1="73.65588" x2="123.62379" y2="71.64440" stroke="green" stroke-width="0.04000"/>
    <line x1="136.32379" y1="73.55463" x2="123.62379" y2="71.54315" stroke="green" stroke-width="0.04000"/>
    <line x1="136.32379" y1="73.45339" x2="123.62379" y2="71.44191" stroke="green" stroke-width="0.04000"/>
    <line x1="136.32379" y1="73.35214" x2="123.62379" y2="71.34066" stroke="green" stroke-width="0.04000"/>
    <line x1="136.32379" y1="73.25089" x2="123.62379" y2="71.23941" stroke="green" stroke-width="0.04000"/>
    <line x1="136.32379" y1="73.14965" x2="123.62379" y2="71.13817" stroke="green" stroke-width="0.04000"/>
    <line x1="136.32379" y1="73.04841" x2="123.62379" y2="71.03692" stroke="green" stroke-width="0.04000"/>
    <line x1="136.32379" y1="72.94716" x2="123.62379" y2="70.93567" stroke="green" stroke-width="0.04000"/>
    <line x1="136.32379" y1="72.84591" x2="123.62379" y2="70.83443" stroke="green" stroke-width="0.04000"/>
    <line x1="136.32379" y1="72.74466" x2="123.62379" y2="70.73318" stroke="green" stroke-width="0.04000"/>
    <line x1="136.32379" y1="72.64342" x2="123.62379" y2="70.63194" stroke="green" stroke-width="0.04000"/>
    <line x1="136.32379" y1="72.54218" x2="123.62379" y2="70.53069" stroke="green" stroke-width="0.04000"/>
    <line x1="136.32379" y1="72.44093" x2="123.62379" y2="70.42944" stroke="green" stroke-width="0.04000"/>
    <line x1="136.32379" y1="72.33968" x2="123.99464" y2="70.38693" stroke="green" stroke-width="0.04000"/>
    <line x1="136.32379" y1="72.23843" x2="124.63389" y2="70.38693" stroke="green" stroke-width="0.04000"/>
    <line x1="136.32379" y1="72.13718" x2="125.27312" y2="70.38693" stroke="green" stroke-width="0.04000"/>
    <line x1="136.32379" y1="72.03594" x2="125.91236" y2="70.38693" stroke="green" stroke-width="0.04000"/>
    <line x1="136.32379" y1="71.93469" x2="126.55161" y2="70.38693" stroke="green" stroke-width="0.04000"/>
    <line x1="136.32379" y1="71.83345" x2="127.19085" y2="70.38693" stroke="green" stroke-width="0.04000"/>
    <line x1="136.32379" y1="71.73220" x2="127.83011" y2="70.38693" stroke="green" stroke-width="0.04000"/>
    <line x1="136.32379" y1="71.63095" x2="128.46936" y2="70.38693" stroke="green" stroke-width="0.04000"/>
    <line x1="136.32379" y1="71.52970" x2="129.10860" y2="70.38693" stroke="green" stroke-width="0.04000"/>
    <line x1="136.32379" y1="71.42846" x2="129.74783" y2="70.38693" stroke="green" stroke-width="0.04000"/>
    <line x1="136.32379" y1="71.32722" x2="130.38708" y2="70.38693" stroke="green" stroke-width="0.04000"/>
    <line x1="136.32379" y1="71.22597" x2="131.02632" y2="70.38693" stroke="green" stroke-width="0.04000"/>
    <line x1="136.32379" y1="71.12472" x2="131.66559" y2="70.38693" stroke="green" stroke-width="0.04000"/>
    <line x1="136.32379" y1="71.02348" x2="132.30484" y2="70.38693" stroke="green" stroke-width="0.04000"/>
    <line x1="136.32379" y1="70.92223" x2="132.94408" y2="70.38693" stroke="green" stroke-width="0.04000"/>
    <line x1="136.32379" y1="70.82098" x2="133.58330" y2="70.38693" stroke="green" stroke-width="0.04000"/>
    <line x1="136.32379" y1="70.71973" x2="134.22255" y2="70.38693" stroke="green" stroke-width="0.04000"/>
    <line x1="136.32379" y1="70.61849" x2="134.86180" y2="70.38693" stroke="green" stroke-width="0.04000"/>
    <line x1="136.32379" y1="70.51724" x2="135.50105" y2="70.38693" stroke="green" stroke-width="0.04000"/>
    <line x1="136.32379" y1="70.41599" x2="136.14030" y2="70.38693" stroke="green" stroke-width="0.04000"/>
    <path d="M 35.0262 85 L 25.0262 85 L 25.0262 75 L 35.0262 75 L 35.0262 85" fill="none" stroke="blue" stroke-width="0.04000" fill-rule="evenodd" fill-opacity="1.000"/>
    <path d="M 136.324 91.2354 L 123.624 91.2354 L 123.624 81.4418 L 136.324 81.4418 L 136.324 91.2354" fill="none" stroke="blue" stroke-width="0.04000" fill-rule="evenodd" fill-opacity="1.000"/>
    <path d="M 136.324 78.5582 L 123.624 78.5582 L 123.624 70.3869 L 136.324 70.3869 L 136.324 78.5582" fill="none" stroke="blue" stroke-width="0.04000" fill-rule="evenodd" fill-opacity="1.000"/>
  </g>
</svg>
