<?xml version="1.0" encoding="UTF-8" standalone="yes"?>
<svg xmlns="http://www.w3.org/2000/svg"
     xmlns:xlink="http://www.w3.org/1999/xlink"
     width="2020.0000mm" height="1600.0000mm"
     viewBox="0 0 202.000000 160.000000">
  <!--
    Build plate : 150.00 x 150.00 mm
    Coordinate  : 1 SVG unit = 1 mm
    Display zoom: 10x  (width/height = viewBox x 10)
    Hatch stroke: 0.04 mm = ~28 mm on screen at this zoom
    Legend panel: right margin (42 mm wide)
  -->
  <defs>
    <marker id="endArrow" markerWidth="2" markerHeight="1.4"
            refX="0" refY="0.7" orient="auto"
            markerUnits="strokeWidth">
      <polyline fill="darkblue" points="0,0 2,0.7 0,1.4 0.2,0.7"/>
    </marker>
  </defs>
  <!-- Background -->
  <rect x="0" y="0" width="202.000000" height="160.000000" fill="#f0f0f0" stroke="none"/>
  <!-- Build plate boundary (150 x 150 mm) -->
  <rect x="5.000000" y="5.000000" width="150.000000" height="150.000000"
        fill="#ffffff" stroke="#aaaaaa" stroke-width="0.2" stroke-dasharray="1,0.5"/>
  <!-- Build plate centre circle (r = 75.00 mm) -->
  <circle cx="80.000000" cy="80.000000" r="75.000000"
          fill="none" stroke="#bbbbbb" stroke-width="0.15" stroke-dasharray="0.8,0.4"/>
  <!-- Centre cross-hair -->
  <line x1="5.000000" y1="80.000000" x2="155.000000" y2="80.000000" stroke="#cccccc" stroke-width="0.1"/>
  <line x1="80.000000" y1="5.000000" x2="80.000000" y2="155.000000" stroke="#cccccc" stroke-width="0.1"/>
  <circle cx="80.000000" cy="80.000000" r="0.3" fill="#cccccc" stroke="none"/>
  <!-- Corner labels -->
  <text x="5.400000" y="4.600000" font-family="sans-serif" font-size="2" fill="#888888">0,0</text>
  <text x="154.600006" y="4.600000" font-family="sans-serif" font-size="2" fill="#888888" text-anchor="end">150,0</text>
  <text x="5.400000" y="157.199997" font-family="sans-serif" font-size="2" fill="#888888">0,150</text>
  <!-- Layer geometry -->
  <g id="geometry">
    <line x1="123.84043" y1="89.97424" x2="136.32379" y2="85.43067" stroke="green" stroke-width="0.04000"/>
    <line x1="124.13282" y1="89.97424" x2="136.32379" y2="85.53709" stroke="green" stroke-width="0.04000"/>
    <line x1="124.42518" y1="89.97424" x2="136.32379" y2="85.64350" stroke="green" stroke-width="0.04000"/>
    <line x1="124.71757" y1="89.97424" x2="136.32379" y2="85.74992" stroke="green" stroke-width="0.04000"/>
    <line x1="125.00996" y1="89.97424" x2="136.32379" y2="85.85634" stroke="green" stroke-width="0.04000"/>
    <line x1="125.30231" y1="89.97424" x2="136.32379" y2="85.96275" stroke="green" stroke-width="0.04000"/>
    <line x1="125.59470" y1="89.97424" x2="136.32379" y2="86.06918" stroke="green" stroke-width="0.04000"/>
    <line x1="125.88709" y1="89.97424" x2="136.32379" y2="86.17559" stroke="green" stroke-width="0.04000"/>
    <line x1="126.17947" y1="89.97424" x2="136.32379" y2="86.28201" stroke="green" stroke-width="0.04000"/>
    <line x1="126.47183" y1="89.97424" x2="136.32379" y2="86.38843" stroke="green" stroke-width="0.04000"/>
    <line x1="126.76423" y1="89.97424" x2="136.32379" y2="86.49484" stroke="green" stroke-width="0.04000"/>
    <line x1="127.05661" y1="89.97424" x2="136.32379" y2="86.60126" stroke="green" stroke-width="0.04000"/>
    <line x1="127.34900" y1="89.97424" x2="136.32379" y2="86.70769" stroke="green" stroke-width="0.04000"/>
    <line x1="127.64137" y1="89.97424" x2="136.32379" y2="86.81409" stroke="green" stroke-width="0.04000"/>
    <line x1="127.93375" y1="89.97424" x2="136.32379" y2="86.92052" stroke="green" stroke-width="0.04000"/>
    <line x1="128.22614" y1="89.97424" x2="136.32379" y2="87.02694" stroke="green" stroke-width="0.04000"/>
    <line x1="128.51852" y1="89.97424" x2="136.32379" y2="87.13335" stroke="green" stroke-width="0.04000"/>
    <line x1="128.81088" y1="89.97424" x2="136.32379" y2="87.23977" stroke="green" stroke-width="0.04000"/>
    <line x1="129.10327" y1="89.97424" x2="136.32379" y2="87.34619" stroke="green" stroke-width="0.04000"/>
    <line x1="129.39566" y1="89.97424" x2="136.32379" y2="87.45261" stroke="green" stroke-width="0.04000"/>
    <line x1="129.68805" y1="89.97424" x2="136.32379" y2="87.55903" stroke="green" stroke-width="0.04000"/>
    <line x1="129.98041" y1="89.97424" x2="136.32379" y2="87.66544" stroke="green" stroke-width="0.04000"/>
    <line x1="130.27280" y1="89.97424" x2="136.32379" y2="87.77186" stroke="green" stroke-width="0.04000"/>
    <line x1="130.56519" y1="89.97424" x2="136.32379" y2="87.87828" stroke="green" stroke-width="0.04000"/>
    <line x1="130.85756" y1="89.97424" x2="136.32379" y2="87.98470" stroke="green" stroke-width="0.04000"/>
    <line x1="131.14993" y1="89.97424" x2="136.32379" y2="88.09111" stroke="green" stroke-width="0.04000"/>
    <line x1="131.44232" y1="89.97424" x2="136.32379" y2="88.19753" stroke="green" stroke-width="0.04000"/>
    <line x1="131.73471" y1="89.97424" x2="136.32379" y2="88.30396" stroke="green" stroke-width="0.04000"/>
    <line x1="132.02707" y1="89.97424" x2="136.32379" y2="88.41036" stroke="green" stroke-width="0.04000"/>
    <line x1="132.31946" y1="89.97424" x2="136.32379" y2="88.51678" stroke="green" stroke-width="0.04000"/>
    <line x1="132.61185" y1="89.97424" x2="136.32379" y2="88.62320" stroke="green" stroke-width="0.04000"/>
    <line x1="132.90424" y1="89.97424" x2="136.32379" y2="88.72962" stroke="green" stroke-width="0.04000"/>
    <line x1="133.19659" y1="89.97424" x2="136.32379" y2="88.83604" stroke="green" stroke-width="0.04000"/>
    <line x1="133.48898" y1="89.97424" x2="136.32379" y2="88.94245" stroke="green" stroke-width="0.04000"/>
    <line x1="133.78137" y1="89.97424" x2="136.32379" y2="89.04887" stroke="green" stroke-width="0.04000"/>
    <line x1="134.07375" y1="89.97424" x2="136.32379" y2="89.15529" stroke="green" stroke-width="0.04000"/>
    <line x1="134.36612" y1="89.97424" x2="136.32379" y2="89.26170" stroke="green" stroke-width="0.04000"/>
    <line x1="134.65849" y1="89.97424" x2="136.32379" y2="89.36813" stroke="green" stroke-width="0.04000"/>
    <line x1="134.95088" y1="89.97424" x2="136.32379" y2="89.47455" stroke="green" stroke-width="0.04000"/>
    <line x1="135.24327" y1="89.97424" x2="136.32379" y2="89.58096" stroke="green" stroke-width="0.04000"/>
    <line x1="135.53564" y1="89.97424" x2="136.32379" y2="89.68738" stroke="green" stroke-width="0.04000"/>
    <line x1="135.82802" y1="89.97424" x2="136.32379" y2="89.79380" stroke="green" stroke-width="0.04000"/>
    <line x1="136.12041" y1="89.97424" x2="136.32379" y2="89.90022" stroke="green" stroke-width="0.04000"/>
    <line x1="123.62379" y1="89.94668" x2="136.32379" y2="85.32425" stroke="green" stroke-width="0.04000"/>
    <line x1="123.62379" y1="89.84026" x2="136.32379" y2="85.21783" stroke="green" stroke-width="0.04000"/>
    <line x1="123.62379" y1="89.73384" x2="136.32379" y2="85.11142" stroke="green" stroke-width="0.04000"/>
    <line x1="123.62379" y1="89.62742" x2="136.32379" y2="85.00500" stroke="green" stroke-width="0.04000"/>
    <line x1="123.62379" y1="89.52100" x2="136.32379" y2="84.89858" stroke="green" stroke-width="0.04000"/>
    <line x1="123.62379" y1="89.41458" x2="136.32379" y2="84.79216" stroke="green" stroke-width="0.04000"/>
    <line x1="123.62379" y1="89.30817" x2="136.32379" y2="84.68575" stroke="green" stroke-width="0.04000"/>
    <line x1="123.62379" y1="89.20175" x2="136.32379" y2="84.57933" stroke="green" stroke-width="0.04000"/>
    <line x1="123.62379" y1="89.09533" x2="136.32379" y2="84.47291" stroke="green" stroke-width="0.04000"/>
    <line x1="123.62379" y1="88.98891" x2="136.32379" y2="84.36649" stroke="green" stroke-width="0.04000"/>
    <line x1="123.62379" y1="88.88250" x2="136.32379" y2="84.26008" stroke="green" stroke-width="0.04000"/>
    <line x1="123.62379" y1="88.77608" x2="136.32379" y2="84.15366" stroke="green" stroke-width="0.04000"/>
    <line x1="123.62379" y1="88.66966" x2="136.32379" y2="84.04723" stroke="green" stroke-width="0.04000"/>
    <line x1="123.62379" y1="88.56324" x2="136.32379" y2="83.94082" stroke="green" stroke-width="0.04000"/>
    <line x1="123.62379" y1="88.45683" x2="136.32379" y2="83.83440" stroke="green" stroke-width="0.04000"/>
    <line x1="123.62379" y1="88.35041" x2="136.32379" y2="83.72799" stroke="green" stroke-width="0.04000"/>
    <line x1="123.62379" y1="88.24399" x2="136.32379" y2="83.62157" stroke="green" stroke-width="0.04000"/>
    <line x1="123.62379" y1="88.13757" x2="136.32379" y2="83.51514" stroke="green" stroke-width="0.04000"/>
    <line x1="123.62379" y1="88.03116" x2="136.32379" y2="83.40873" stroke="green" stroke-width="0.04000"/>
    <line x1="123.62379" y1="87.92474" x2="136.32379" y2="83.30231" stroke="green" stroke-width="0.04000"/>
    <line x1="123.62379" y1="87.81832" x2="136.32379" y2="83.19589" stroke="green" stroke-width="0.04000"/>
    <line x1="123.62379" y1="87.71191" x2="136.32379" y2="83.08949" stroke="green" stroke-width="0.04000"/>
    <line x1="123.62379" y1="87.60548" x2="136.32379" y2="82.98306" stroke="green" stroke-width="0.04000"/>
    <line x1="123.62379" y1="87.49907" x2="136.32379" y2="82.87664" stroke="green" stroke-width="0.04000"/>
    <line x1="123.62379" y1="87.39265" x2="136.32379" y2="82.77023" stroke="green" stroke-width="0.04000"/>
    <line x1="123.62379" y1="87.28623" x2="136.32379" y2="82.66381" stroke="green" stroke-width="0.04000"/>
    <line x1="123.62379" y1="87.17982" x2="136.32379" y2="82.55739" stroke="green" stroke-width="0.04000"/>
    <line x1="123.62379" y1="87.07339" x2="136.32379" y2="82.45097" stroke="green" stroke-width="0.04000"/>
    <line x1="123.62379" y1="86.96697" x2="136.32379" y2="82.34455" stroke="green" stroke-width="0.04000"/>
    <line x1="123.62379" y1="86.86057" x2="136.32379" y2="82.23814" stroke="green" stroke-width="0.04000"/>
    <line x1="123.62379" y1="86.75414" x2="136.32379" y2="82.13172" stroke="green" stroke-width="0.04000"/>
    <line x1="123.62379" y1="86.64772" x2="136.32379" y2="82.02530" stroke="green" stroke-width="0.04000"/>
    <line x1="123.62379" y1="86.54131" x2="136.32379" y2="81.91888" stroke="green" stroke-width="0.04000"/>
    <line x1="123.62379" y1="86.43489" x2="136.32379" y2="81.81247" stroke="green" stroke-width="0.04000"/>
    <line x1="123.62379" y1="86.32847" x2="136.32379" y2="81.70605" stroke="green" stroke-width="0.04000"/>
    <line x1="123.62379" y1="86.22205" x2="136.32379" y2="81.59963" stroke="green" stroke-width="0.04000"/>
    <line x1="123.62379" y1="86.11563" x2="136.32379" y2="81.49321" stroke="green" stroke-width="0.04000"/>
    <line x1="123.62379" y1="86.00922" x2="136.32379" y2="81.38680" stroke="green" stroke-width="0.04000"/>
    <line x1="123.62379" y1="85.90280" x2="136.32379" y2="81.28037" stroke="green" stroke-width="0.04000"/>
    <line x1="123.62379" y1="85.79638" x2="136.32379" y2="81.17396" stroke="green" stroke-width="0.04000"/>
    <line x1="123.62379" y1="85.68996" x2="136.32379" y2="81.06754" stroke="green" stroke-width="0.04000"/>
    <line x1="123.62379" y1="85.58355" x2="136.32379" y2="80.96113" stroke="green" stroke-width="0.04000"/>
    <line x1="123.62379" y1="85.47713" x2="136.32379" y2="80.85471" stroke="green" stroke-width="0.04000"/>
    <line x1="123.62379" y1="85.37071" x2="136.32379" y2="80.74828" stroke="green" stroke-width="0.04000"/>
    <line x1="123.62379" y1="85.26430" x2="136.32379" y2="80.64187" stroke="green" stroke-width="0.04000"/>
    <line x1="123.62379" y1="85.15788" x2="136.32379" y2="80.53545" stroke="green" stroke-width="0.04000"/>
    <line x1="123.62379" y1="85.05145" x2="136.32379" y2="80.42903" stroke="green" stroke-width="0.04000"/>
    <line x1="123.62379" y1="84.94504" x2="136.32379" y2="80.32262" stroke="green" stroke-width="0.04000"/>
    <line x1="123.62379" y1="84.83862" x2="136.32379" y2="80.21620" stroke="green" stroke-width="0.04000"/>
    <line x1="123.62379" y1="84.73221" x2="136.32379" y2="80.10978" stroke="green" stroke-width="0.04000"/>
    <line x1="123.62379" y1="84.62579" x2="136.32379" y2="80.00336" stroke="green" stroke-width="0.04000"/>
    <line x1="123.62379" y1="84.51936" x2="136.32379" y2="79.89694" stroke="green" stroke-width="0.04000"/>
    <line x1="123.62379" y1="84.41296" x2="136.32379" y2="79.79053" stroke="green" stroke-width="0.04000"/>
    <line x1="123.62379" y1="84.30653" x2="136.32379" y2="79.68411" stroke="green" stroke-width="0.04000"/>
    <line x1="123.62379" y1="84.20011" x2="136.32379" y2="79.57769" stroke="green" stroke-width="0.04000"/>
    <line x1="123.62379" y1="84.09370" x2="136.32379" y2="79.47127" stroke="green" stroke-width="0.04000"/>
    <line x1="123.62379" y1="83.98728" x2="136.32379" y2="79.36486" stroke="green" stroke-width="0.04000"/>
    <line x1="123.62379" y1="83.88086" x2="136.32379" y2="79.25844" stroke="green" stroke-width="0.04000"/>
    <line x1="123.62379" y1="83.77444" x2="136.32379" y2="79.15202" stroke="green" stroke-width="0.04000"/>
    <line x1="123.62379" y1="83.66802" x2="136.32379" y2="79.04559" stroke="green" stroke-width="0.04000"/>
    <line x1="123.62379" y1="83.56161" x2="136.32379" y2="78.93919" stroke="green" stroke-width="0.04000"/>
    <line x1="123.62379" y1="83.45519" x2="136.32379" y2="78.83276" stroke="green" stroke-width="0.04000"/>
    <line x1="123.62379" y1="83.34877" x2="136.32379" y2="78.72635" stroke="green" stroke-width="0.04000"/>
    <line x1="123.62379" y1="83.24236" x2="136.32379" y2="78.61993" stroke="green" stroke-width="0.04000"/>
    <line x1="123.62379" y1="83.13594" x2="136.32379" y2="78.51351" stroke="green" stroke-width="0.04000"/>
    <line x1="123.62379" y1="83.02952" x2="136.32379" y2="78.40710" stroke="green" stroke-width="0.04000"/>
    <line x1="123.62379" y1="82.92310" x2="136.32379" y2="78.30067" stroke="green" stroke-width="0.04000"/>
    <line x1="123.62379" y1="82.81669" x2="136.32379" y2="78.19427" stroke="green" stroke-width="0.04000"/>
    <line x1="123.62379" y1="82.71027" x2="136.32379" y2="78.08784" stroke="green" stroke-width="0.04000"/>
    <line x1="123.62379" y1="82.60385" x2="136.32379" y2="77.98142" stroke="green" stroke-width="0.04000"/>
    <line x1="123.62379" y1="82.49743" x2="136.32379" y2="77.87500" stroke="green" stroke-width="0.04000"/>
    <line x1="123.62379" y1="82.39101" x2="136.32379" y2="77.76859" stroke="green" stroke-width="0.04000"/>
    <line x1="123.62379" y1="82.28459" x2="136.32379" y2="77.66217" stroke="green" stroke-width="0.04000"/>
    <line x1="123.62379" y1="82.17818" x2="136.32379" y2="77.55576" stroke="green" stroke-width="0.04000"/>
    <line x1="123.62379" y1="82.07175" x2="136.32379" y2="77.44933" stroke="green" stroke-width="0.04000"/>
    <line x1="123.62379" y1="81.96535" x2="136.32379" y2="77.34292" stroke="green" stroke-width="0.04000"/>
    <line x1="123.62379" y1="81.85892" x2="136.32379" y2="77.23650" stroke="green" stroke-width="0.04000"/>
    <line x1="123.62379" y1="81.75250" x2="136.32379" y2="77.13008" stroke="green" stroke-width="0.04000"/>
    <line x1="123.62379" y1="81.64609" x2="136.32379" y2="77.02367" stroke="green" stroke-width="0.04000"/>
    <line x1="123.62379" y1="81.53967" x2="136.32379" y2="76.91725" stroke="green" stroke-width="0.04000"/>
    <line x1="123.62379" y1="81.43325" x2="136.32379" y2="76.81083" stroke="green" stroke-width="0.04000"/>
    <line x1="123.62379" y1="81.32684" x2="136.32379" y2="76.70441" stroke="green" stroke-width="0.04000"/>
    <line x1="123.62379" y1="81.22041" x2="136.32379" y2="76.59799" stroke="green" stroke-width="0.04000"/>
    <line x1="123.62379" y1="81.11400" x2="136.32379" y2="76.49158" stroke="green" stroke-width="0.04000"/>
    <line x1="123.62379" y1="81.00758" x2="136.32379" y2="76.38516" stroke="green" stroke-width="0.04000"/>
    <line x1="123.62379" y1="80.90116" x2="136.32379" y2="76.27874" stroke="green" stroke-width="0.04000"/>
    <line x1="123.62379" y1="80.79474" x2="136.32379" y2="76.17232" stroke="green" stroke-width="0.04000"/>
    <line x1="123.62379" y1="80.68833" x2="136.32379" y2="76.06590" stroke="green" stroke-width="0.04000"/>
    <line x1="123.62379" y1="80.58191" x2="136.32379" y2="75.95949" stroke="green" stroke-width="0.04000"/>
    <line x1="123.62379" y1="80.47549" x2="136.32379" y2="75.85307" stroke="green" stroke-width="0.04000"/>
    <line x1="123.62379" y1="80.36908" x2="136.32379" y2="75.74666" stroke="green" stroke-width="0.04000"/>
    <line x1="123.62379" y1="80.26266" x2="136.32379" y2="75.64024" stroke="green" stroke-width="0.04000"/>
    <line x1="123.62379" y1="80.15624" x2="136.32379" y2="75.53381" stroke="green" stroke-width="0.04000"/>
    <line x1="123.62379" y1="80.04982" x2="136.32379" y2="75.42740" stroke="green" stroke-width="0.04000"/>
    <line x1="123.62379" y1="79.94341" x2="136.32379" y2="75.32098" stroke="green" stroke-width="0.04000"/>
    <line x1="123.62379" y1="79.83699" x2="136.32379" y2="75.21456" stroke="green" stroke-width="0.04000"/>
    <line x1="123.62379" y1="79.73057" x2="136.32379" y2="75.10815" stroke="green" stroke-width="0.04000"/>
    <line x1="123.62379" y1="79.62415" x2="136.32379" y2="75.00172" stroke="green" stroke-width="0.04000"/>
    <line x1="123.62379" y1="79.51774" x2="136.32379" y2="74.89531" stroke="green" stroke-width="0.04000"/>
    <line x1="123.62379" y1="79.41132" x2="136.32379" y2="74.78889" stroke="green" stroke-width="0.04000"/>
    <line x1="123.62379" y1="79.30489" x2="136.32379" y2="74.68247" stroke="green" stroke-width="0.04000"/>
    <line x1="123.62379" y1="79.19848" x2="136.32379" y2="74.57605" stroke="green" stroke-width="0.04000"/>
    <line x1="123.62379" y1="79.09206" x2="136.32379" y2="74.46964" stroke="green" stroke-width="0.04000"/>
    <line x1="123.62379" y1="78.98565" x2="136.32379" y2="74.36322" stroke="green" stroke-width="0.04000"/>
    <line x1="123.62379" y1="78.87923" x2="136.32379" y2="74.25681" stroke="green" stroke-width="0.04000"/>
    <line x1="123.62379" y1="78.77280" x2="136.32379" y2="74.15038" stroke="green" stroke-width="0.04000"/>
    <line x1="123.62379" y1="78.66640" x2="136.32379" y2="74.04397" stroke="green" stroke-width="0.04000"/>
    <line x1="123.62379" y1="78.55997" x2="136.32379" y2="73.93755" stroke="green" stroke-width="0.04000"/>
    <line x1="123.62379" y1="78.45355" x2="136.32379" y2="73.83113" stroke="green" stroke-width="0.04000"/>
    <line x1="123.62379" y1="78.34714" x2="136.32379" y2="73.72471" stroke="green" stroke-width="0.04000"/>
    <line x1="123.62379" y1="78.24072" x2="136.32379" y2="73.61829" stroke="green" stroke-width="0.04000"/>
    <line x1="123.62379" y1="78.13430" x2="136.32379" y2="73.51188" stroke="green" stroke-width="0.04000"/>
    <line x1="123.62379" y1="78.02789" x2="136.32379" y2="73.40546" stroke="green" stroke-width="0.04000"/>
    <line x1="123.62379" y1="77.92147" x2="136.32379" y2="73.29904" stroke="green" stroke-width="0.04000"/>
    <line x1="123.62379" y1="77.81505" x2="136.32379" y2="73.19263" stroke="green" stroke-width="0.04000"/>
    <line x1="123.62379" y1="77.70863" x2="136.32379" y2="73.08620" stroke="green" stroke-width="0.04000"/>
    <line x1="123.62379" y1="77.60221" x2="136.32379" y2="72.97979" stroke="green" stroke-width="0.04000"/>
    <line x1="123.62379" y1="77.49580" x2="136.32379" y2="72.87337" stroke="green" stroke-width="0.04000"/>
    <line x1="123.62379" y1="77.38938" x2="136.32379" y2="72.76695" stroke="green" stroke-width="0.04000"/>
    <line x1="123.62379" y1="77.28296" x2="136.32379" y2="72.66054" stroke="green" stroke-width="0.04000"/>
    <line x1="123.62379" y1="77.17654" x2="136.32379" y2="72.55412" stroke="green" stroke-width="0.04000"/>
    <line x1="123.62379" y1="77.07013" x2="136.32379" y2="72.44770" stroke="green" stroke-width="0.04000"/>
    <line x1="123.62379" y1="76.96371" x2="136.32379" y2="72.34129" stroke="green" stroke-width="0.04000"/>
    <line x1="123.62379" y1="76.85728" x2="136.32379" y2="72.23486" stroke="green" stroke-width="0.04000"/>
    <line x1="123.62379" y1="76.75087" x2="136.32379" y2="72.12845" stroke="green" stroke-width="0.04000"/>
    <line x1="123.62379" y1="76.64445" x2="136.32379" y2="72.02203" stroke="green" stroke-width="0.04000"/>
    <line x1="123.62379" y1="76.53803" x2="136.32379" y2="71.91561" stroke="green" stroke-width="0.04000"/>
    <line x1="123.62379" y1="76.43162" x2="136.10715" y2="71.88805" stroke="green" stroke-width="0.04000"/>
    <line x1="123.62379" y1="76.32520" x2="135.81476" y2="71.88805" stroke="green" stroke-width="0.04000"/>
    <line x1="123.62379" y1="76.21878" x2="135.52238" y2="71.88805" stroke="green" stroke-width="0.04000"/>
    <line x1="123.62379" y1="76.11237" x2="135.23000" y2="71.88805" stroke="green" stroke-width="0.04000"/>
    <line x1="123.62379" y1="76.00594" x2="134.93762" y2="71.88805" stroke="green" stroke-width="0.04000"/>
    <line x1="123.62379" y1="75.89953" x2="134.64525" y2="71.88805" stroke="green" stroke-width="0.04000"/>
    <line x1="123.62379" y1="75.79311" x2="134.35286" y2="71.88805" stroke="green" stroke-width="0.04000"/>
    <line x1="123.62379" y1="75.68669" x2="134.06049" y2="71.88805" stroke="green" stroke-width="0.04000"/>
    <line x1="123.62379" y1="75.58028" x2="133.76810" y2="71.88805" stroke="green" stroke-width="0.04000"/>
    <line x1="123.62379" y1="75.47386" x2="133.47572" y2="71.88805" stroke="green" stroke-width="0.04000"/>
    <line x1="123.62379" y1="75.36744" x2="133.18335" y2="71.88805" stroke="green" stroke-width="0.04000"/>
    <line x1="123.62379" y1="75.26102" x2="132.89096" y2="71.88805" stroke="green" stroke-width="0.04000"/>
    <line x1="123.62379" y1="75.15460" x2="132.59857" y2="71.88805" stroke="green" stroke-width="0.04000"/>
    <line x1="123.62379" y1="75.04819" x2="132.30621" y2="71.88805" stroke="green" stroke-width="0.04000"/>
    <line x1="123.62379" y1="74.94176" x2="132.01382" y2="71.88805" stroke="green" stroke-width="0.04000"/>
    <line x1="123.62379" y1="74.83535" x2="131.72144" y2="71.88805" stroke="green" stroke-width="0.04000"/>
    <line x1="123.62379" y1="74.72894" x2="131.42905" y2="71.88805" stroke="green" stroke-width="0.04000"/>
    <line x1="123.62379" y1="74.62252" x2="131.13669" y2="71.88805" stroke="green" stroke-width="0.04000"/>
    <line x1="123.62379" y1="74.51610" x2="130.84430" y2="71.88805" stroke="green" stroke-width="0.04000"/>
    <line x1="123.62379" y1="74.40968" x2="130.55191" y2="71.88805" stroke="green" stroke-width="0.04000"/>
    <line x1="123.62379" y1="74.30326" x2="130.25954" y2="71.88805" stroke="green" stroke-width="0.04000"/>
    <line x1="123.62379" y1="74.19685" x2="129.96716" y2="71.88805" stroke="green" stroke-width="0.04000"/>
    <line x1="123.62379" y1="74.09043" x2="129.67477" y2="71.88805" stroke="green" stroke-width="0.04000"/>
    <line x1="123.62379" y1="73.98401" x2="129.38239" y2="71.88805" stroke="green" stroke-width="0.04000"/>
    <line x1="123.62379" y1="73.87759" x2="129.09001" y2="71.88805" stroke="green" stroke-width="0.04000"/>
    <line x1="123.62379" y1="73.77117" x2="128.79764" y2="71.88805" stroke="green" stroke-width="0.04000"/>
    <line x1="123.62379" y1="73.66476" x2="128.50525" y2="71.88805" stroke="green" stroke-width="0.04000"/>
    <line x1="123.62379" y1="73.55833" x2="128.21286" y2="71.88805" stroke="green" stroke-width="0.04000"/>
    <line x1="123.62379" y1="73.45192" x2="127.92049" y2="71.88805" stroke="green" stroke-width="0.04000"/>
    <line x1="123.62379" y1="73.34550" x2="127.62811" y2="71.88805" stroke="green" stroke-width="0.04000"/>
    <line x1="123.62379" y1="73.23908" x2="127.33574" y2="71.88805" stroke="green" stroke-width="0.04000"/>
    <line x1="123.62379" y1="73.13267" x2="127.04336" y2="71.88805" stroke="green" stroke-width="0.04000"/>
    <line x1="123.62379" y1="73.02625" x2="126.75098" y2="71.88805" stroke="green" stroke-width="0.04000"/>
    <line x1="123.62379" y1="72.91983" x2="126.45860" y2="71.88805" stroke="green" stroke-width="0.04000"/>
    <line x1="123.62379" y1="72.81342" x2="126.16621" y2="71.88805" stroke="green" stroke-width="0.04000"/>
    <line x1="123.62379" y1="72.70699" x2="125.87383" y2="71.88805" stroke="green" stroke-width="0.04000"/>
    <line x1="123.62379" y1="72.60058" x2="125.58145" y2="71.88805" stroke="green" stroke-width="0.04000"/>
    <line x1="123.62379" y1="72.49416" x2="125.28908" y2="71.88805" stroke="green" stroke-width="0.04000"/>
    <line x1="123.62379" y1="72.38774" x2="124.99668" y2="71.88805" stroke="green" stroke-width="0.04000"/>
    <line x1="123.62379" y1="72.28133" x2="124.70431" y2="71.88805" stroke="green" stroke-width="0.04000"/>
    <line x1="123.62379" y1="72.17490" x2="124.41193" y2="71.88805" stroke="green" stroke-width="0.04000"/>
    <line x1="123.62379" y1="72.06849" x2="124.11955" y2="71.88805" stroke="green" stroke-width="0.04000"/>
    <line x1="123.62379" y1="71.96207" x2="123.82716" y2="71.88805" stroke="green" stroke-width="0.04000"/>
    <path d="M 136.324 89.9742 L 123.624 89.9742 L 123.624 71.888 L 136.324 71.888 L 136.324 89.9742" fill="none" stroke="blue" stroke-width="0.04000" fill-rule="evenodd" fill-opacity="1.000"/>
  </g>
</svg>
