<?xml version="1.0" encoding="UTF-8" standalone="yes"?>
<svg xmlns="http://www.w3.org/2000/svg"
     xmlns:xlink="http://www.w3.org/1999/xlink"
     width="2020.0000mm" height="1600.0000mm"
     viewBox="0 0 202.000000 160.000000">
  <!--
    Build plate : 150.00 x 150.00 mm
    Coordinate  : 1 SVG unit = 1 mm
    Display zoom: 10x  (width/height = viewBox x 10)
    Hatch stroke: 0.04 mm = ~28 mm on screen at this zoom
    Legend panel: right margin (42 mm wide)
  -->
  <defs>
    <marker id="endArrow" markerWidth="2" markerHeight="1.4"
            refX="0" refY="0.7" orient="auto"
            markerUnits="strokeWidth">
      <polyline fill="darkblue" points="0,0 2,0.7 0,1.4 0.2,0.7"/>
    </marker>
  </defs>
  <!-- Background -->
  <rect x="0" y="0" width="202.000000" height="160.000000" fill="#f0f0f0" stroke="none"/>
  <!-- Build plate boundary (150 x 150 mm) -->
  <rect x="5.000000" y="5.000000" width="150.000000" height="150.000000"
        fill="#ffffff" stroke="#aaaaaa" stroke-width="0.2" stroke-dasharray="1,0.5"/>
  <!-- Build plate centre circle (r = 75.00 mm) -->
  <circle cx="80.000000" cy="80.000000" r="75.000000"
          fill="none" stroke="#bbbbbb" stroke-width="0.15" stroke-dasharray="0.8,0.4"/>
  <!-- Centre cross-hair -->
  <line x1="5.000000" y1="80.000000" x2="155.000000" y2="80.000000" stroke="#cccccc" stroke-width="0.1"/>
  <line x1="80.000000" y1="5.000000" x2="80.000000" y2="155.000000" stroke="#cccccc" stroke-width="0.1"/>
  <circle cx="80.000000" cy="80.000000" r="0.3" fill="#cccccc" stroke="none"/>
  <!-- Corner labels -->
  <text x="5.400000" y="4.600000" font-family="sans-serif" font-size="2" fill="#888888">0,0</text>
  <text x="154.600006" y="4.600000" font-family="sans-serif" font-size="2" fill="#888888" text-anchor="end">150,0</text>
  <text x="5.400000" y="157.199997" font-family="sans-serif" font-size="2" fill="#888888">0,150</text>
  <!-- Layer geometry -->
  <g id="geometry">
    <line x1="25.05263" y1="85.00000" x2="35.02621" y2="77.48437" stroke="green" stroke-width="0.04000"/>
    <line x1="25.21879" y1="85.00000" x2="35.02621" y2="77.60958" stroke="green" stroke-width="0.04000"/>
    <line x1="25.38495" y1="85.00000" x2="35.02621" y2="77.73479" stroke="green" stroke-width="0.04000"/>
    <line x1="25.55111" y1="85.00000" x2="35.02621" y2="77.86000" stroke="green" stroke-width="0.04000"/>
    <line x1="25.71728" y1="85.00000" x2="35.02621" y2="77.98521" stroke="green" stroke-width="0.04000"/>
    <line x1="25.88344" y1="85.00000" x2="35.02621" y2="78.11044" stroke="green" stroke-width="0.04000"/>
    <line x1="26.04961" y1="85.00000" x2="35.02621" y2="78.23564" stroke="green" stroke-width="0.04000"/>
    <line x1="26.21577" y1="85.00000" x2="35.02621" y2="78.36086" stroke="green" stroke-width="0.04000"/>
    <line x1="26.38194" y1="85.00000" x2="35.02621" y2="78.48608" stroke="green" stroke-width="0.04000"/>
    <line x1="26.54811" y1="85.00000" x2="35.02621" y2="78.61129" stroke="green" stroke-width="0.04000"/>
    <line x1="26.71427" y1="85.00000" x2="35.02621" y2="78.73650" stroke="green" stroke-width="0.04000"/>
    <line x1="26.88042" y1="85.00000" x2="35.02621" y2="78.86171" stroke="green" stroke-width="0.04000"/>
    <line x1="27.04659" y1="85.00000" x2="35.02621" y2="78.98692" stroke="green" stroke-width="0.04000"/>
    <line x1="27.21276" y1="85.00000" x2="35.02621" y2="79.11214" stroke="green" stroke-width="0.04000"/>
    <line x1="27.37892" y1="85.00000" x2="35.02621" y2="79.23735" stroke="green" stroke-width="0.04000"/>
    <line x1="27.54509" y1="85.00000" x2="35.02621" y2="79.36257" stroke="green" stroke-width="0.04000"/>
    <line x1="27.71125" y1="85.00000" x2="35.02621" y2="79.48779" stroke="green" stroke-width="0.04000"/>
    <line x1="27.87742" y1="85.00000" x2="35.02621" y2="79.61300" stroke="green" stroke-width="0.04000"/>
    <line x1="28.04358" y1="85.00000" x2="35.02621" y2="79.73820" stroke="green" stroke-width="0.04000"/>
    <line x1="28.20974" y1="85.00000" x2="35.02621" y2="79.86342" stroke="green" stroke-width="0.04000"/>
    <line x1="28.37590" y1="85.00000" x2="35.02621" y2="79.98863" stroke="green" stroke-width="0.04000"/>
    <line x1="28.54207" y1="85.00000" x2="35.02621" y2="80.11385" stroke="green" stroke-width="0.04000"/>
    <line x1="28.70823" y1="85.00000" x2="35.02621" y2="80.23906" stroke="green" stroke-width="0.04000"/>
    <line x1="28.87440" y1="85.00000" x2="35.02621" y2="80.36428" stroke="green" stroke-width="0.04000"/>
    <line x1="29.04056" y1="85.00000" x2="35.02621" y2="80.48949" stroke="green" stroke-width="0.04000"/>
    <line x1="29.20673" y1="85.00000" x2="35.02621" y2="80.61471" stroke="green" stroke-width="0.04000"/>
    <line x1="29.37289" y1="85.00000" x2="35.02621" y2="80.73991" stroke="green" stroke-width="0.04000"/>
    <line x1="29.53905" y1="85.00000" x2="35.02621" y2="80.86513" stroke="green" stroke-width="0.04000"/>
    <line x1="29.70521" y1="85.00000" x2="35.02621" y2="80.99034" stroke="green" stroke-width="0.04000"/>
    <line x1="29.87138" y1="85.00000" x2="35.02621" y2="81.11555" stroke="green" stroke-width="0.04000"/>
    <line x1="30.03754" y1="85.00000" x2="35.02621" y2="81.24077" stroke="green" stroke-width="0.04000"/>
    <line x1="30.20371" y1="85.00000" x2="35.02621" y2="81.36599" stroke="green" stroke-width="0.04000"/>
    <line x1="30.36987" y1="85.00000" x2="35.02621" y2="81.49120" stroke="green" stroke-width="0.04000"/>
    <line x1="30.53604" y1="85.00000" x2="35.02621" y2="81.61642" stroke="green" stroke-width="0.04000"/>
    <line x1="30.70220" y1="85.00000" x2="35.02621" y2="81.74162" stroke="green" stroke-width="0.04000"/>
    <line x1="30.86836" y1="85.00000" x2="35.02621" y2="81.86684" stroke="green" stroke-width="0.04000"/>
    <line x1="31.03453" y1="85.00000" x2="35.02621" y2="81.99205" stroke="green" stroke-width="0.04000"/>
    <line x1="31.20069" y1="85.00000" x2="35.02621" y2="82.11726" stroke="green" stroke-width="0.04000"/>
    <line x1="31.36686" y1="85.00000" x2="35.02621" y2="82.24248" stroke="green" stroke-width="0.04000"/>
    <line x1="31.53302" y1="85.00000" x2="35.02621" y2="82.36769" stroke="green" stroke-width="0.04000"/>
    <line x1="31.69919" y1="85.00000" x2="35.02621" y2="82.49291" stroke="green" stroke-width="0.04000"/>
    <line x1="31.86535" y1="85.00000" x2="35.02621" y2="82.61813" stroke="green" stroke-width="0.04000"/>
    <line x1="32.03151" y1="85.00000" x2="35.02621" y2="82.74333" stroke="green" stroke-width="0.04000"/>
    <line x1="32.19767" y1="85.00000" x2="35.02621" y2="82.86855" stroke="green" stroke-width="0.04000"/>
    <line x1="32.36384" y1="85.00000" x2="35.02621" y2="82.99376" stroke="green" stroke-width="0.04000"/>
    <line x1="32.53001" y1="85.00000" x2="35.02621" y2="83.11897" stroke="green" stroke-width="0.04000"/>
    <line x1="32.69617" y1="85.00000" x2="35.02621" y2="83.24419" stroke="green" stroke-width="0.04000"/>
    <line x1="32.86234" y1="85.00000" x2="35.02621" y2="83.36940" stroke="green" stroke-width="0.04000"/>
    <line x1="33.02850" y1="85.00000" x2="35.02621" y2="83.49461" stroke="green" stroke-width="0.04000"/>
    <line x1="33.19466" y1="85.00000" x2="35.02621" y2="83.61983" stroke="green" stroke-width="0.04000"/>
    <line x1="33.36082" y1="85.00000" x2="35.02621" y2="83.74504" stroke="green" stroke-width="0.04000"/>
    <line x1="33.52699" y1="85.00000" x2="35.02621" y2="83.87025" stroke="green" stroke-width="0.04000"/>
    <line x1="33.69315" y1="85.00000" x2="35.02621" y2="83.99547" stroke="green" stroke-width="0.04000"/>
    <line x1="33.85931" y1="85.00000" x2="35.02621" y2="84.12068" stroke="green" stroke-width="0.04000"/>
    <line x1="34.02548" y1="85.00000" x2="35.02621" y2="84.24590" stroke="green" stroke-width="0.04000"/>
    <line x1="34.19165" y1="85.00000" x2="35.02621" y2="84.37111" stroke="green" stroke-width="0.04000"/>
    <line x1="34.35781" y1="85.00000" x2="35.02621" y2="84.49632" stroke="green" stroke-width="0.04000"/>
    <line x1="34.52398" y1="85.00000" x2="35.02621" y2="84.62154" stroke="green" stroke-width="0.04000"/>
    <line x1="34.69014" y1="85.00000" x2="35.02621" y2="84.74675" stroke="green" stroke-width="0.04000"/>
    <line x1="34.85630" y1="85.00000" x2="35.02621" y2="84.87196" stroke="green" stroke-width="0.04000"/>
    <line x1="35.02246" y1="85.00000" x2="35.02621" y2="84.99718" stroke="green" stroke-width="0.04000"/>
    <line x1="25.02621" y1="84.89469" x2="35.02621" y2="77.35915" stroke="green" stroke-width="0.04000"/>
    <line x1="25.02621" y1="84.76948" x2="35.02621" y2="77.23394" stroke="green" stroke-width="0.04000"/>
    <line x1="25.02621" y1="84.64426" x2="35.02621" y2="77.10872" stroke="green" stroke-width="0.04000"/>
    <line x1="25.02621" y1="84.51905" x2="35.02621" y2="76.98351" stroke="green" stroke-width="0.04000"/>
    <line x1="25.02621" y1="84.39384" x2="35.02621" y2="76.85829" stroke="green" stroke-width="0.04000"/>
    <line x1="25.02621" y1="84.26862" x2="35.02621" y2="76.73308" stroke="green" stroke-width="0.04000"/>
    <line x1="25.02621" y1="84.14341" x2="35.02621" y2="76.60787" stroke="green" stroke-width="0.04000"/>
    <line x1="25.02621" y1="84.01820" x2="35.02621" y2="76.48266" stroke="green" stroke-width="0.04000"/>
    <line x1="25.02621" y1="83.89298" x2="35.02621" y2="76.35744" stroke="green" stroke-width="0.04000"/>
    <line x1="25.02621" y1="83.76777" x2="35.02621" y2="76.23223" stroke="green" stroke-width="0.04000"/>
    <line x1="25.02621" y1="83.64256" x2="35.02621" y2="76.10702" stroke="green" stroke-width="0.04000"/>
    <line x1="25.02621" y1="83.51734" x2="35.02621" y2="75.98180" stroke="green" stroke-width="0.04000"/>
    <line x1="25.02621" y1="83.39213" x2="35.02621" y2="75.85658" stroke="green" stroke-width="0.04000"/>
    <line x1="25.02621" y1="83.26691" x2="35.02621" y2="75.73138" stroke="green" stroke-width="0.04000"/>
    <line x1="25.02621" y1="83.14170" x2="35.02621" y2="75.60616" stroke="green" stroke-width="0.04000"/>
    <line x1="25.02621" y1="83.01649" x2="35.02621" y2="75.48095" stroke="green" stroke-width="0.04000"/>
    <line x1="25.02621" y1="82.89127" x2="35.02621" y2="75.35574" stroke="green" stroke-width="0.04000"/>
    <line x1="25.02621" y1="82.76606" x2="35.02621" y2="75.23052" stroke="green" stroke-width="0.04000"/>
    <line x1="25.02621" y1="82.64085" x2="35.02621" y2="75.10531" stroke="green" stroke-width="0.04000"/>
    <line x1="25.02621" y1="82.51563" x2="34.99979" y2="75.00000" stroke="green" stroke-width="0.04000"/>
    <line x1="25.02621" y1="82.39042" x2="34.83363" y2="75.00000" stroke="green" stroke-width="0.04000"/>
    <line x1="25.02621" y1="82.26521" x2="34.66747" y2="75.00000" stroke="green" stroke-width="0.04000"/>
    <line x1="25.02621" y1="82.13999" x2="34.50130" y2="75.00000" stroke="green" stroke-width="0.04000"/>
    <line x1="25.02621" y1="82.01478" x2="34.33514" y2="75.00000" stroke="green" stroke-width="0.04000"/>
    <line x1="25.02621" y1="81.88956" x2="34.16898" y2="75.00000" stroke="green" stroke-width="0.04000"/>
    <line x1="25.02621" y1="81.76435" x2="34.00281" y2="75.00000" stroke="green" stroke-width="0.04000"/>
    <line x1="25.02621" y1="81.63914" x2="33.83664" y2="75.00000" stroke="green" stroke-width="0.04000"/>
    <line x1="25.02621" y1="81.51392" x2="33.67048" y2="75.00000" stroke="green" stroke-width="0.04000"/>
    <line x1="25.02621" y1="81.38871" x2="33.50431" y2="75.00000" stroke="green" stroke-width="0.04000"/>
    <line x1="25.02621" y1="81.26350" x2="33.33815" y2="75.00000" stroke="green" stroke-width="0.04000"/>
    <line x1="25.02621" y1="81.13829" x2="33.17199" y2="75.00000" stroke="green" stroke-width="0.04000"/>
    <line x1="25.02621" y1="81.01307" x2="33.00583" y2="75.00000" stroke="green" stroke-width="0.04000"/>
    <line x1="25.02621" y1="80.88786" x2="32.83966" y2="75.00000" stroke="green" stroke-width="0.04000"/>
    <line x1="25.02621" y1="80.76264" x2="32.67350" y2="75.00000" stroke="green" stroke-width="0.04000"/>
    <line x1="25.02621" y1="80.63743" x2="32.50733" y2="75.00000" stroke="green" stroke-width="0.04000"/>
    <line x1="25.02621" y1="80.51221" x2="32.34116" y2="75.00000" stroke="green" stroke-width="0.04000"/>
    <line x1="25.02621" y1="80.38700" x2="32.17501" y2="75.00000" stroke="green" stroke-width="0.04000"/>
    <line x1="25.02621" y1="80.26179" x2="32.00884" y2="75.00000" stroke="green" stroke-width="0.04000"/>
    <line x1="25.02621" y1="80.13657" x2="31.84268" y2="75.00000" stroke="green" stroke-width="0.04000"/>
    <line x1="25.02621" y1="80.01136" x2="31.67651" y2="75.00000" stroke="green" stroke-width="0.04000"/>
    <line x1="25.02621" y1="79.88615" x2="31.51035" y2="75.00000" stroke="green" stroke-width="0.04000"/>
    <line x1="25.02621" y1="79.76093" x2="31.34419" y2="75.00000" stroke="green" stroke-width="0.04000"/>
    <line x1="25.02621" y1="79.63572" x2="31.17802" y2="75.00000" stroke="green" stroke-width="0.04000"/>
    <line x1="25.02621" y1="79.51051" x2="31.01185" y2="75.00000" stroke="green" stroke-width="0.04000"/>
    <line x1="25.02621" y1="79.38529" x2="30.84569" y2="75.00000" stroke="green" stroke-width="0.04000"/>
    <line x1="25.02621" y1="79.26009" x2="30.67953" y2="75.00000" stroke="green" stroke-width="0.04000"/>
    <line x1="25.02621" y1="79.13486" x2="30.51336" y2="75.00000" stroke="green" stroke-width="0.04000"/>
    <line x1="25.02621" y1="79.00965" x2="30.34720" y2="75.00000" stroke="green" stroke-width="0.04000"/>
    <line x1="25.02621" y1="78.88444" x2="30.18104" y2="75.00000" stroke="green" stroke-width="0.04000"/>
    <line x1="25.02621" y1="78.75922" x2="30.01487" y2="75.00000" stroke="green" stroke-width="0.04000"/>
    <line x1="25.02621" y1="78.63401" x2="29.84871" y2="75.00000" stroke="green" stroke-width="0.04000"/>
    <line x1="25.02621" y1="78.50880" x2="29.68254" y2="75.00000" stroke="green" stroke-width="0.04000"/>
    <line x1="25.02621" y1="78.38358" x2="29.51638" y2="75.00000" stroke="green" stroke-width="0.04000"/>
    <line x1="25.02621" y1="78.25838" x2="29.35022" y2="75.00000" stroke="green" stroke-width="0.04000"/>
    <line x1="25.02621" y1="78.13316" x2="29.18405" y2="75.00000" stroke="green" stroke-width="0.04000"/>
    <line x1="25.02621" y1="78.00794" x2="29.01789" y2="75.00000" stroke="green" stroke-width="0.04000"/>
    <line x1="25.02621" y1="77.88273" x2="28.85173" y2="75.00000" stroke="green" stroke-width="0.04000"/>
    <line x1="25.02621" y1="77.75751" x2="28.68556" y2="75.00000" stroke="green" stroke-width="0.04000"/>
    <line x1="25.02621" y1="77.63230" x2="28.51940" y2="75.00000" stroke="green" stroke-width="0.04000"/>
    <line x1="25.02621" y1="77.50709" x2="28.35323" y2="75.00000" stroke="green" stroke-width="0.04000"/>
    <line x1="25.02621" y1="77.38187" x2="28.18707" y2="75.00000" stroke="green" stroke-width="0.04000"/>
    <line x1="25.02621" y1="77.25667" x2="28.02091" y2="75.00000" stroke="green" stroke-width="0.04000"/>
    <line x1="25.02621" y1="77.13145" x2="27.85474" y2="75.00000" stroke="green" stroke-width="0.04000"/>
    <line x1="25.02621" y1="77.00623" x2="27.68858" y2="75.00000" stroke="green" stroke-width="0.04000"/>
    <line x1="25.02621" y1="76.88102" x2="27.52241" y2="75.00000" stroke="green" stroke-width="0.04000"/>
    <line x1="25.02621" y1="76.75581" x2="27.35625" y2="75.00000" stroke="green" stroke-width="0.04000"/>
    <line x1="25.02621" y1="76.63059" x2="27.19008" y2="75.00000" stroke="green" stroke-width="0.04000"/>
    <line x1="25.02621" y1="76.50538" x2="27.02392" y2="75.00000" stroke="green" stroke-width="0.04000"/>
    <line x1="25.02621" y1="76.38017" x2="26.85776" y2="75.00000" stroke="green" stroke-width="0.04000"/>
    <line x1="25.02621" y1="76.25496" x2="26.69159" y2="75.00000" stroke="green" stroke-width="0.04000"/>
    <line x1="25.02621" y1="76.12975" x2="26.52543" y2="75.00000" stroke="green" stroke-width="0.04000"/>
    <line x1="25.02621" y1="76.00452" x2="26.35926" y2="75.00000" stroke="green" stroke-width="0.04000"/>
    <line x1="25.02621" y1="75.87932" x2="26.19310" y2="75.00000" stroke="green" stroke-width="0.04000"/>
    <line x1="25.02621" y1="75.75410" x2="26.02694" y2="75.00000" stroke="green" stroke-width="0.04000"/>
    <line x1="25.02621" y1="75.62888" x2="25.86077" y2="75.00000" stroke="green" stroke-width="0.04000"/>
    <line x1="25.02621" y1="75.50367" x2="25.69460" y2="75.00000" stroke="green" stroke-width="0.04000"/>
    <line x1="25.02621" y1="75.37846" x2="25.52844" y2="75.00000" stroke="green" stroke-width="0.04000"/>
    <line x1="25.02621" y1="75.25325" x2="25.36228" y2="75.00000" stroke="green" stroke-width="0.04000"/>
    <line x1="25.02621" y1="75.12804" x2="25.19612" y2="75.00000" stroke="green" stroke-width="0.04000"/>
    <line x1="25.02621" y1="75.00282" x2="25.02995" y2="75.00000" stroke="green" stroke-width="0.04000"/>
    <line x1="123.77097" y1="91.23541" x2="136.32379" y2="81.77618" stroke="green" stroke-width="0.04000"/>
    <line x1="123.93713" y1="91.23541" x2="136.32379" y2="81.90140" stroke="green" stroke-width="0.04000"/>
    <line x1="124.10330" y1="91.23541" x2="136.32379" y2="82.02661" stroke="green" stroke-width="0.04000"/>
    <line x1="124.26946" y1="91.23541" x2="136.32379" y2="82.15182" stroke="green" stroke-width="0.04000"/>
    <line x1="124.43563" y1="91.23541" x2="136.32379" y2="82.27704" stroke="green" stroke-width="0.04000"/>
    <line x1="124.60179" y1="91.23541" x2="136.32379" y2="82.40225" stroke="green" stroke-width="0.04000"/>
    <line x1="124.76796" y1="91.23541" x2="136.32379" y2="82.52747" stroke="green" stroke-width="0.04000"/>
    <line x1="124.93411" y1="91.23541" x2="136.32379" y2="82.65267" stroke="green" stroke-width="0.04000"/>
    <line x1="125.10028" y1="91.23541" x2="136.32379" y2="82.77789" stroke="green" stroke-width="0.04000"/>
    <line x1="125.26644" y1="91.23541" x2="136.32379" y2="82.90311" stroke="green" stroke-width="0.04000"/>
    <line x1="125.43261" y1="91.23541" x2="136.32379" y2="83.02832" stroke="green" stroke-width="0.04000"/>
    <line x1="125.59878" y1="91.23541" x2="136.32379" y2="83.15353" stroke="green" stroke-width="0.04000"/>
    <line x1="125.76494" y1="91.23541" x2="136.32379" y2="83.27875" stroke="green" stroke-width="0.04000"/>
    <line x1="125.93111" y1="91.23541" x2="136.32379" y2="83.40396" stroke="green" stroke-width="0.04000"/>
    <line x1="126.09727" y1="91.23541" x2="136.32379" y2="83.52917" stroke="green" stroke-width="0.04000"/>
    <line x1="126.26342" y1="91.23541" x2="136.32379" y2="83.65438" stroke="green" stroke-width="0.04000"/>
    <line x1="126.42959" y1="91.23541" x2="136.32379" y2="83.77959" stroke="green" stroke-width="0.04000"/>
    <line x1="126.59576" y1="91.23541" x2="136.32379" y2="83.90481" stroke="green" stroke-width="0.04000"/>
    <line x1="126.76192" y1="91.23541" x2="136.32379" y2="84.03003" stroke="green" stroke-width="0.04000"/>
    <line x1="126.92809" y1="91.23541" x2="136.32379" y2="84.15524" stroke="green" stroke-width="0.04000"/>
    <line x1="127.09425" y1="91.23541" x2="136.32379" y2="84.28046" stroke="green" stroke-width="0.04000"/>
    <line x1="127.26042" y1="91.23541" x2="136.32379" y2="84.40567" stroke="green" stroke-width="0.04000"/>
    <line x1="127.42658" y1="91.23541" x2="136.32379" y2="84.53088" stroke="green" stroke-width="0.04000"/>
    <line x1="127.59274" y1="91.23541" x2="136.32379" y2="84.65609" stroke="green" stroke-width="0.04000"/>
    <line x1="127.75890" y1="91.23541" x2="136.32379" y2="84.78130" stroke="green" stroke-width="0.04000"/>
    <line x1="127.92506" y1="91.23541" x2="136.32379" y2="84.90652" stroke="green" stroke-width="0.04000"/>
    <line x1="128.09123" y1="91.23541" x2="136.32379" y2="85.03174" stroke="green" stroke-width="0.04000"/>
    <line x1="128.25740" y1="91.23541" x2="136.32379" y2="85.15695" stroke="green" stroke-width="0.04000"/>
    <line x1="128.42355" y1="91.23541" x2="136.32379" y2="85.28217" stroke="green" stroke-width="0.04000"/>
    <line x1="128.58972" y1="91.23541" x2="136.32379" y2="85.40738" stroke="green" stroke-width="0.04000"/>
    <line x1="128.75589" y1="91.23541" x2="136.32379" y2="85.53259" stroke="green" stroke-width="0.04000"/>
    <line x1="128.92206" y1="91.23541" x2="136.32379" y2="85.65780" stroke="green" stroke-width="0.04000"/>
    <line x1="129.08821" y1="91.23541" x2="136.32379" y2="85.78301" stroke="green" stroke-width="0.04000"/>
    <line x1="129.25438" y1="91.23541" x2="136.32379" y2="85.90823" stroke="green" stroke-width="0.04000"/>
    <line x1="129.42053" y1="91.23541" x2="136.32379" y2="86.03344" stroke="green" stroke-width="0.04000"/>
    <line x1="129.58670" y1="91.23541" x2="136.32379" y2="86.15865" stroke="green" stroke-width="0.04000"/>
    <line x1="129.75287" y1="91.23541" x2="136.32379" y2="86.28387" stroke="green" stroke-width="0.04000"/>
    <line x1="129.91904" y1="91.23541" x2="136.32379" y2="86.40909" stroke="green" stroke-width="0.04000"/>
    <line x1="130.08521" y1="91.23541" x2="136.32379" y2="86.53430" stroke="green" stroke-width="0.04000"/>
    <line x1="130.25137" y1="91.23541" x2="136.32379" y2="86.65951" stroke="green" stroke-width="0.04000"/>
    <line x1="130.41753" y1="91.23541" x2="136.32379" y2="86.78472" stroke="green" stroke-width="0.04000"/>
    <line x1="130.58369" y1="91.23541" x2="136.32379" y2="86.90993" stroke="green" stroke-width="0.04000"/>
    <line x1="130.74985" y1="91.23541" x2="136.32379" y2="87.03515" stroke="green" stroke-width="0.04000"/>
    <line x1="130.91602" y1="91.23541" x2="136.32379" y2="87.16036" stroke="green" stroke-width="0.04000"/>
    <line x1="131.08218" y1="91.23541" x2="136.32379" y2="87.28558" stroke="green" stroke-width="0.04000"/>
    <line x1="131.24835" y1="91.23541" x2="136.32379" y2="87.41080" stroke="green" stroke-width="0.04000"/>
    <line x1="131.41452" y1="91.23541" x2="136.32379" y2="87.53601" stroke="green" stroke-width="0.04000"/>
    <line x1="131.58067" y1="91.23541" x2="136.32379" y2="87.66122" stroke="green" stroke-width="0.04000"/>
    <line x1="131.74684" y1="91.23541" x2="136.32379" y2="87.78643" stroke="green" stroke-width="0.04000"/>
    <line x1="131.91299" y1="91.23541" x2="136.32379" y2="87.91164" stroke="green" stroke-width="0.04000"/>
    <line x1="132.07916" y1="91.23541" x2="136.32379" y2="88.03686" stroke="green" stroke-width="0.04000"/>
    <line x1="132.24533" y1="91.23541" x2="136.32379" y2="88.16207" stroke="green" stroke-width="0.04000"/>
    <line x1="132.41150" y1="91.23541" x2="136.32379" y2="88.28728" stroke="green" stroke-width="0.04000"/>
    <line x1="132.57767" y1="91.23541" x2="136.32379" y2="88.41250" stroke="green" stroke-width="0.04000"/>
    <line x1="132.74384" y1="91.23541" x2="136.32379" y2="88.53772" stroke="green" stroke-width="0.04000"/>
    <line x1="132.90999" y1="91.23541" x2="136.32379" y2="88.66293" stroke="green" stroke-width="0.04000"/>
    <line x1="133.07616" y1="91.23541" x2="136.32379" y2="88.78814" stroke="green" stroke-width="0.04000"/>
    <line x1="133.24232" y1="91.23541" x2="136.32379" y2="88.91335" stroke="green" stroke-width="0.04000"/>
    <line x1="133.40848" y1="91.23541" x2="136.32379" y2="89.03857" stroke="green" stroke-width="0.04000"/>
    <line x1="133.57465" y1="91.23541" x2="136.32379" y2="89.16378" stroke="green" stroke-width="0.04000"/>
    <line x1="133.74081" y1="91.23541" x2="136.32379" y2="89.28899" stroke="green" stroke-width="0.04000"/>
    <line x1="133.90698" y1="91.23541" x2="136.32379" y2="89.41421" stroke="green" stroke-width="0.04000"/>
    <line x1="134.07314" y1="91.23541" x2="136.32379" y2="89.53943" stroke="green" stroke-width="0.04000"/>
    <line x1="134.23930" y1="91.23541" x2="136.32379" y2="89.66463" stroke="green" stroke-width="0.04000"/>
    <line x1="134.40546" y1="91.23541" x2="136.32379" y2="89.78985" stroke="green" stroke-width="0.04000"/>
    <line x1="134.57162" y1="91.23541" x2="136.32379" y2="89.91506" stroke="green" stroke-width="0.04000"/>
    <line x1="134.73779" y1="91.23541" x2="136.32379" y2="90.04028" stroke="green" stroke-width="0.04000"/>
    <line x1="134.90396" y1="91.23541" x2="136.32379" y2="90.16549" stroke="green" stroke-width="0.04000"/>
    <line x1="135.07011" y1="91.23541" x2="136.32379" y2="90.29070" stroke="green" stroke-width="0.04000"/>
    <line x1="135.23628" y1="91.23541" x2="136.32379" y2="90.41592" stroke="green" stroke-width="0.04000"/>
    <line x1="135.40245" y1="91.23541" x2="136.32379" y2="90.54113" stroke="green" stroke-width="0.04000"/>
    <line x1="135.56860" y1="91.23541" x2="136.32379" y2="90.66634" stroke="green" stroke-width="0.04000"/>
    <line x1="135.73477" y1="91.23541" x2="136.32379" y2="90.79156" stroke="green" stroke-width="0.04000"/>
    <line x1="135.90094" y1="91.23541" x2="136.32379" y2="90.91677" stroke="green" stroke-width="0.04000"/>
    <line x1="136.06711" y1="91.23541" x2="136.32379" y2="91.04198" stroke="green" stroke-width="0.04000"/>
    <line x1="136.23328" y1="91.23541" x2="136.32379" y2="91.16721" stroke="green" stroke-width="0.04000"/>
    <line x1="123.62379" y1="91.22111" x2="136.32379" y2="81.65096" stroke="green" stroke-width="0.04000"/>
    <line x1="123.62379" y1="91.09589" x2="136.32379" y2="81.52576" stroke="green" stroke-width="0.04000"/>
    <line x1="123.62379" y1="90.97068" x2="136.32379" y2="81.40054" stroke="green" stroke-width="0.04000"/>
    <line x1="123.62379" y1="90.84547" x2="136.32379" y2="81.27533" stroke="green" stroke-width="0.04000"/>
    <line x1="123.62379" y1="90.72025" x2="136.32379" y2="81.15012" stroke="green" stroke-width="0.04000"/>
    <line x1="123.62379" y1="90.59504" x2="136.32379" y2="81.02489" stroke="green" stroke-width="0.04000"/>
    <line x1="123.62379" y1="90.46983" x2="136.32379" y2="80.89969" stroke="green" stroke-width="0.04000"/>
    <line x1="123.62379" y1="90.34461" x2="136.32379" y2="80.77448" stroke="green" stroke-width="0.04000"/>
    <line x1="123.62379" y1="90.21940" x2="136.32379" y2="80.64926" stroke="green" stroke-width="0.04000"/>
    <line x1="123.62379" y1="90.09419" x2="136.32379" y2="80.52405" stroke="green" stroke-width="0.04000"/>
    <line x1="123.62379" y1="89.96897" x2="136.32379" y2="80.39883" stroke="green" stroke-width="0.04000"/>
    <line x1="123.62379" y1="89.84376" x2="136.32379" y2="80.27362" stroke="green" stroke-width="0.04000"/>
    <line x1="123.62379" y1="89.71854" x2="136.32379" y2="80.14841" stroke="green" stroke-width="0.04000"/>
    <line x1="123.62379" y1="89.59333" x2="136.32379" y2="80.02319" stroke="green" stroke-width="0.04000"/>
    <line x1="123.62379" y1="89.46812" x2="136.32379" y2="79.89798" stroke="green" stroke-width="0.04000"/>
    <line x1="123.62379" y1="89.34290" x2="136.32379" y2="79.77277" stroke="green" stroke-width="0.04000"/>
    <line x1="123.62379" y1="89.21769" x2="136.32379" y2="79.64755" stroke="green" stroke-width="0.04000"/>
    <line x1="123.62379" y1="89.09248" x2="136.32379" y2="79.52235" stroke="green" stroke-width="0.04000"/>
    <line x1="123.62379" y1="88.96726" x2="136.32379" y2="79.39712" stroke="green" stroke-width="0.04000"/>
    <line x1="123.62379" y1="88.84205" x2="136.32379" y2="79.27191" stroke="green" stroke-width="0.04000"/>
    <line x1="123.62379" y1="88.71684" x2="136.32379" y2="79.14669" stroke="green" stroke-width="0.04000"/>
    <line x1="123.62379" y1="88.59162" x2="136.32379" y2="79.02148" stroke="green" stroke-width="0.04000"/>
    <line x1="123.62379" y1="88.46641" x2="136.32379" y2="78.89627" stroke="green" stroke-width="0.04000"/>
    <line x1="123.62379" y1="88.34119" x2="136.32379" y2="78.77106" stroke="green" stroke-width="0.04000"/>
    <line x1="123.62379" y1="88.21598" x2="136.32379" y2="78.64584" stroke="green" stroke-width="0.04000"/>
    <line x1="123.62379" y1="88.09077" x2="136.32379" y2="78.52063" stroke="green" stroke-width="0.04000"/>
    <line x1="123.62379" y1="87.96556" x2="136.32379" y2="78.39542" stroke="green" stroke-width="0.04000"/>
    <line x1="123.62379" y1="87.84035" x2="136.32379" y2="78.27020" stroke="green" stroke-width="0.04000"/>
    <line x1="123.62379" y1="87.71513" x2="136.32379" y2="78.14499" stroke="green" stroke-width="0.04000"/>
    <line x1="123.62379" y1="87.58991" x2="136.32379" y2="78.01978" stroke="green" stroke-width="0.04000"/>
    <line x1="123.62379" y1="87.46470" x2="136.32379" y2="77.89456" stroke="green" stroke-width="0.04000"/>
    <line x1="123.62379" y1="87.33949" x2="136.32379" y2="77.76935" stroke="green" stroke-width="0.04000"/>
    <line x1="123.62379" y1="87.21427" x2="136.32379" y2="77.64413" stroke="green" stroke-width="0.04000"/>
    <line x1="123.62379" y1="87.08907" x2="136.32379" y2="77.51892" stroke="green" stroke-width="0.04000"/>
    <line x1="123.62379" y1="86.96385" x2="136.32379" y2="77.39371" stroke="green" stroke-width="0.04000"/>
    <line x1="123.62379" y1="86.83864" x2="136.32379" y2="77.26850" stroke="green" stroke-width="0.04000"/>
    <line x1="123.62379" y1="86.71342" x2="136.32379" y2="77.14328" stroke="green" stroke-width="0.04000"/>
    <line x1="123.62379" y1="86.58820" x2="136.32379" y2="77.01806" stroke="green" stroke-width="0.04000"/>
    <line x1="123.62379" y1="86.46299" x2="136.32379" y2="76.89285" stroke="green" stroke-width="0.04000"/>
    <line x1="123.62379" y1="86.33778" x2="136.32379" y2="76.76764" stroke="green" stroke-width="0.04000"/>
    <line x1="123.62379" y1="86.21256" x2="136.32379" y2="76.64243" stroke="green" stroke-width="0.04000"/>
    <line x1="123.62379" y1="86.08736" x2="136.32379" y2="76.51721" stroke="green" stroke-width="0.04000"/>
    <line x1="123.62379" y1="85.96214" x2="136.32379" y2="76.39200" stroke="green" stroke-width="0.04000"/>
    <line x1="123.62379" y1="85.83693" x2="136.32379" y2="76.26678" stroke="green" stroke-width="0.04000"/>
    <line x1="123.62379" y1="85.71172" x2="136.32379" y2="76.14157" stroke="green" stroke-width="0.04000"/>
    <line x1="123.62379" y1="85.58650" x2="136.32379" y2="76.01636" stroke="green" stroke-width="0.04000"/>
    <line x1="123.62379" y1="85.46128" x2="136.32379" y2="75.89114" stroke="green" stroke-width="0.04000"/>
    <line x1="123.62379" y1="85.33607" x2="136.32379" y2="75.76593" stroke="green" stroke-width="0.04000"/>
    <line x1="123.62379" y1="85.21085" x2="136.32379" y2="75.64072" stroke="green" stroke-width="0.04000"/>
    <line x1="123.62379" y1="85.08565" x2="136.32379" y2="75.51550" stroke="green" stroke-width="0.04000"/>
    <line x1="123.62379" y1="84.96043" x2="136.32379" y2="75.39029" stroke="green" stroke-width="0.04000"/>
    <line x1="123.62379" y1="84.83522" x2="136.32379" y2="75.26508" stroke="green" stroke-width="0.04000"/>
    <line x1="123.62379" y1="84.71001" x2="136.32379" y2="75.13987" stroke="green" stroke-width="0.04000"/>
    <line x1="123.62379" y1="84.58479" x2="136.32379" y2="75.01466" stroke="green" stroke-width="0.04000"/>
    <line x1="123.62379" y1="84.45958" x2="136.32379" y2="74.88944" stroke="green" stroke-width="0.04000"/>
    <line x1="123.62379" y1="84.33436" x2="136.32379" y2="74.76422" stroke="green" stroke-width="0.04000"/>
    <line x1="123.62379" y1="84.20914" x2="136.32379" y2="74.63901" stroke="green" stroke-width="0.04000"/>
    <line x1="123.62379" y1="84.08394" x2="136.32379" y2="74.51379" stroke="green" stroke-width="0.04000"/>
    <line x1="123.62379" y1="83.95872" x2="136.32379" y2="74.38858" stroke="green" stroke-width="0.04000"/>
    <line x1="123.62379" y1="83.83351" x2="136.32379" y2="74.26337" stroke="green" stroke-width="0.04000"/>
    <line x1="123.62379" y1="83.70830" x2="136.32379" y2="74.13815" stroke="green" stroke-width="0.04000"/>
    <line x1="123.62379" y1="83.58308" x2="136.32379" y2="74.01294" stroke="green" stroke-width="0.04000"/>
    <line x1="123.62379" y1="83.45787" x2="136.32379" y2="73.88773" stroke="green" stroke-width="0.04000"/>
    <line x1="123.62379" y1="83.33266" x2="136.32379" y2="73.76251" stroke="green" stroke-width="0.04000"/>
    <line x1="123.62379" y1="83.20744" x2="136.32379" y2="73.63730" stroke="green" stroke-width="0.04000"/>
    <line x1="123.62379" y1="83.08223" x2="136.32379" y2="73.51208" stroke="green" stroke-width="0.04000"/>
    <line x1="123.62379" y1="82.95702" x2="136.32379" y2="73.38687" stroke="green" stroke-width="0.04000"/>
    <line x1="123.62379" y1="82.83180" x2="136.32379" y2="73.26167" stroke="green" stroke-width="0.04000"/>
    <line x1="123.62379" y1="82.70659" x2="136.32379" y2="73.13645" stroke="green" stroke-width="0.04000"/>
    <line x1="123.62379" y1="82.58138" x2="136.32379" y2="73.01123" stroke="green" stroke-width="0.04000"/>
    <line x1="123.62379" y1="82.45616" x2="136.32379" y2="72.88602" stroke="green" stroke-width="0.04000"/>
    <line x1="123.62379" y1="82.33095" x2="136.32379" y2="72.76081" stroke="green" stroke-width="0.04000"/>
    <line x1="123.62379" y1="82.20573" x2="136.32379" y2="72.63560" stroke="green" stroke-width="0.04000"/>
    <line x1="123.62379" y1="82.08052" x2="136.32379" y2="72.51038" stroke="green" stroke-width="0.04000"/>
    <line x1="123.62379" y1="81.95530" x2="136.32379" y2="72.38516" stroke="green" stroke-width="0.04000"/>
    <line x1="123.62379" y1="81.83009" x2="136.32379" y2="72.25995" stroke="green" stroke-width="0.04000"/>
    <line x1="123.62379" y1="81.70488" x2="136.32379" y2="72.13474" stroke="green" stroke-width="0.04000"/>
    <line x1="123.62379" y1="81.57966" x2="136.32379" y2="72.00952" stroke="green" stroke-width="0.04000"/>
    <line x1="123.62379" y1="81.45444" x2="136.32379" y2="71.88431" stroke="green" stroke-width="0.04000"/>
    <line x1="123.62379" y1="81.32924" x2="136.32379" y2="71.75909" stroke="green" stroke-width="0.04000"/>
    <line x1="123.62379" y1="81.20403" x2="136.32379" y2="71.63388" stroke="green" stroke-width="0.04000"/>
    <line x1="123.62379" y1="81.07881" x2="136.32379" y2="71.50867" stroke="green" stroke-width="0.04000"/>
    <line x1="123.62379" y1="80.95360" x2="136.32379" y2="71.38345" stroke="green" stroke-width="0.04000"/>
    <line x1="123.62379" y1="80.82838" x2="136.32379" y2="71.25825" stroke="green" stroke-width="0.04000"/>
    <line x1="123.62379" y1="80.70317" x2="136.32379" y2="71.13303" stroke="green" stroke-width="0.04000"/>
    <line x1="123.62379" y1="80.57796" x2="136.32379" y2="71.00781" stroke="green" stroke-width="0.04000"/>
    <line x1="123.62379" y1="80.45274" x2="136.32379" y2="70.88260" stroke="green" stroke-width="0.04000"/>
    <line x1="123.62379" y1="80.32753" x2="136.32379" y2="70.75739" stroke="green" stroke-width="0.04000"/>
    <line x1="123.62379" y1="80.20232" x2="136.32379" y2="70.63218" stroke="green" stroke-width="0.04000"/>
    <line x1="123.62379" y1="80.07710" x2="136.17661" y2="70.61787" stroke="green" stroke-width="0.04000"/>
    <line x1="123.62379" y1="79.95189" x2="136.01045" y2="70.61787" stroke="green" stroke-width="0.04000"/>
    <line x1="123.62379" y1="79.82668" x2="135.84427" y2="70.61787" stroke="green" stroke-width="0.04000"/>
    <line x1="123.62379" y1="79.70146" x2="135.67810" y2="70.61787" stroke="green" stroke-width="0.04000"/>
    <line x1="123.62379" y1="79.57624" x2="135.51195" y2="70.61787" stroke="green" stroke-width="0.04000"/>
    <line x1="123.62379" y1="79.45103" x2="135.34578" y2="70.61787" stroke="green" stroke-width="0.04000"/>
    <line x1="123.62379" y1="79.32582" x2="135.17963" y2="70.61787" stroke="green" stroke-width="0.04000"/>
    <line x1="123.62379" y1="79.20060" x2="135.01346" y2="70.61787" stroke="green" stroke-width="0.04000"/>
    <line x1="123.62379" y1="79.07539" x2="134.84729" y2="70.61787" stroke="green" stroke-width="0.04000"/>
    <line x1="123.62379" y1="78.95018" x2="134.68112" y2="70.61787" stroke="green" stroke-width="0.04000"/>
    <line x1="123.62379" y1="78.82497" x2="134.51497" y2="70.61787" stroke="green" stroke-width="0.04000"/>
    <line x1="123.62379" y1="78.69975" x2="134.34880" y2="70.61787" stroke="green" stroke-width="0.04000"/>
    <line x1="123.62379" y1="78.57454" x2="134.18263" y2="70.61787" stroke="green" stroke-width="0.04000"/>
    <line x1="123.62379" y1="78.44933" x2="134.01646" y2="70.61787" stroke="green" stroke-width="0.04000"/>
    <line x1="123.62379" y1="78.32411" x2="133.85031" y2="70.61787" stroke="green" stroke-width="0.04000"/>
    <line x1="123.62379" y1="78.19890" x2="133.68414" y2="70.61787" stroke="green" stroke-width="0.04000"/>
    <line x1="123.62379" y1="78.07368" x2="133.51799" y2="70.61787" stroke="green" stroke-width="0.04000"/>
    <line x1="123.62379" y1="77.94847" x2="133.35182" y2="70.61787" stroke="green" stroke-width="0.04000"/>
    <line x1="123.62379" y1="77.82326" x2="133.18565" y2="70.61787" stroke="green" stroke-width="0.04000"/>
    <line x1="123.62379" y1="77.69805" x2="133.01950" y2="70.61787" stroke="green" stroke-width="0.04000"/>
    <line x1="123.62379" y1="77.57283" x2="132.85332" y2="70.61787" stroke="green" stroke-width="0.04000"/>
    <line x1="123.62379" y1="77.44761" x2="132.68716" y2="70.61787" stroke="green" stroke-width="0.04000"/>
    <line x1="123.62379" y1="77.32240" x2="132.52100" y2="70.61787" stroke="green" stroke-width="0.04000"/>
    <line x1="123.62379" y1="77.19718" x2="132.35483" y2="70.61787" stroke="green" stroke-width="0.04000"/>
    <line x1="123.62379" y1="77.07198" x2="132.18866" y2="70.61787" stroke="green" stroke-width="0.04000"/>
    <line x1="123.62379" y1="76.94676" x2="132.02249" y2="70.61787" stroke="green" stroke-width="0.04000"/>
    <line x1="123.62379" y1="76.82155" x2="131.85634" y2="70.61787" stroke="green" stroke-width="0.04000"/>
    <line x1="123.62379" y1="76.69633" x2="131.69019" y2="70.61787" stroke="green" stroke-width="0.04000"/>
    <line x1="123.62379" y1="76.57112" x2="131.52402" y2="70.61787" stroke="green" stroke-width="0.04000"/>
    <line x1="123.62379" y1="76.44591" x2="131.35785" y2="70.61787" stroke="green" stroke-width="0.04000"/>
    <line x1="123.62379" y1="76.32069" x2="131.19168" y2="70.61787" stroke="green" stroke-width="0.04000"/>
    <line x1="123.62379" y1="76.19548" x2="131.02551" y2="70.61787" stroke="green" stroke-width="0.04000"/>
    <line x1="123.62379" y1="76.07027" x2="130.85936" y2="70.61787" stroke="green" stroke-width="0.04000"/>
    <line x1="123.62379" y1="75.94505" x2="130.69319" y2="70.61787" stroke="green" stroke-width="0.04000"/>
    <line x1="123.62379" y1="75.81984" x2="130.52704" y2="70.61787" stroke="green" stroke-width="0.04000"/>
    <line x1="123.62379" y1="75.69463" x2="130.36087" y2="70.61787" stroke="green" stroke-width="0.04000"/>
    <line x1="123.62379" y1="75.56941" x2="130.19470" y2="70.61787" stroke="green" stroke-width="0.04000"/>
    <line x1="123.62379" y1="75.44420" x2="130.02853" y2="70.61787" stroke="green" stroke-width="0.04000"/>
    <line x1="123.62379" y1="75.31898" x2="129.86237" y2="70.61787" stroke="green" stroke-width="0.04000"/>
    <line x1="123.62379" y1="75.19376" x2="129.69620" y2="70.61787" stroke="green" stroke-width="0.04000"/>
    <line x1="123.62379" y1="75.06856" x2="129.53004" y2="70.61787" stroke="green" stroke-width="0.04000"/>
    <line x1="123.62379" y1="74.94334" x2="129.36388" y2="70.61787" stroke="green" stroke-width="0.04000"/>
    <line x1="123.62379" y1="74.81813" x2="129.19772" y2="70.61787" stroke="green" stroke-width="0.04000"/>
    <line x1="123.62379" y1="74.69292" x2="129.03156" y2="70.61787" stroke="green" stroke-width="0.04000"/>
    <line x1="123.62379" y1="74.56770" x2="128.86539" y2="70.61787" stroke="green" stroke-width="0.04000"/>
    <line x1="123.62379" y1="74.44249" x2="128.69922" y2="70.61787" stroke="green" stroke-width="0.04000"/>
    <line x1="123.62379" y1="74.31728" x2="128.53305" y2="70.61787" stroke="green" stroke-width="0.04000"/>
    <line x1="123.62379" y1="74.19206" x2="128.36690" y2="70.61787" stroke="green" stroke-width="0.04000"/>
    <line x1="123.62379" y1="74.06685" x2="128.20074" y2="70.61787" stroke="green" stroke-width="0.04000"/>
    <line x1="123.62379" y1="73.94164" x2="128.03458" y2="70.61787" stroke="green" stroke-width="0.04000"/>
    <line x1="123.62379" y1="73.81642" x2="127.86841" y2="70.61787" stroke="green" stroke-width="0.04000"/>
    <line x1="123.62379" y1="73.69121" x2="127.70224" y2="70.61787" stroke="green" stroke-width="0.04000"/>
    <line x1="123.62379" y1="73.56599" x2="127.53608" y2="70.61787" stroke="green" stroke-width="0.04000"/>
    <line x1="123.62379" y1="73.44078" x2="127.36991" y2="70.61787" stroke="green" stroke-width="0.04000"/>
    <line x1="123.62379" y1="73.31557" x2="127.20375" y2="70.61787" stroke="green" stroke-width="0.04000"/>
    <line x1="123.62379" y1="73.19035" x2="127.03759" y2="70.61787" stroke="green" stroke-width="0.04000"/>
    <line x1="123.62379" y1="73.06515" x2="126.87143" y2="70.61787" stroke="green" stroke-width="0.04000"/>
    <line x1="123.62379" y1="72.93993" x2="126.70525" y2="70.61787" stroke="green" stroke-width="0.04000"/>
    <line x1="123.62379" y1="72.81471" x2="126.53909" y2="70.61787" stroke="green" stroke-width="0.04000"/>
    <line x1="123.62379" y1="72.68950" x2="126.37292" y2="70.61787" stroke="green" stroke-width="0.04000"/>
    <line x1="123.62379" y1="72.56429" x2="126.20676" y2="70.61787" stroke="green" stroke-width="0.04000"/>
    <line x1="123.62379" y1="72.43907" x2="126.04060" y2="70.61787" stroke="green" stroke-width="0.04000"/>
    <line x1="123.62379" y1="72.31386" x2="125.87444" y2="70.61787" stroke="green" stroke-width="0.04000"/>
    <line x1="123.62379" y1="72.18864" x2="125.70827" y2="70.61787" stroke="green" stroke-width="0.04000"/>
    <line x1="123.62379" y1="72.06344" x2="125.54211" y2="70.61787" stroke="green" stroke-width="0.04000"/>
    <line x1="123.62379" y1="71.93822" x2="125.37595" y2="70.61787" stroke="green" stroke-width="0.04000"/>
    <line x1="123.62379" y1="71.81301" x2="125.20979" y2="70.61787" stroke="green" stroke-width="0.04000"/>
    <line x1="123.62379" y1="71.68779" x2="125.04362" y2="70.61787" stroke="green" stroke-width="0.04000"/>
    <line x1="123.62379" y1="71.56258" x2="124.87745" y2="70.61787" stroke="green" stroke-width="0.04000"/>
    <line x1="123.62379" y1="71.43736" x2="124.71129" y2="70.61787" stroke="green" stroke-width="0.04000"/>
    <line x1="123.62379" y1="71.31216" x2="124.54513" y2="70.61787" stroke="green" stroke-width="0.04000"/>
    <line x1="123.62379" y1="71.18694" x2="124.37896" y2="70.61787" stroke="green" stroke-width="0.04000"/>
    <line x1="123.62379" y1="71.06173" x2="124.21281" y2="70.61787" stroke="green" stroke-width="0.04000"/>
    <line x1="123.62379" y1="70.93652" x2="124.04664" y2="70.61787" stroke="green" stroke-width="0.04000"/>
    <line x1="123.62379" y1="70.81130" x2="123.88048" y2="70.61787" stroke="green" stroke-width="0.04000"/>
    <line x1="123.62379" y1="70.68608" x2="123.71430" y2="70.61787" stroke="green" stroke-width="0.04000"/>
    <path d="M 35.0262 85 L 25.0262 85 L 25.0262 75 L 35.0262 75 L 35.0262 85" fill="none" stroke="blue" stroke-width="0.04000" fill-rule="evenodd" fill-opacity="1.000"/>
    <path d="M 136.324 91.2354 L 123.624 91.2354 L 123.624 70.6179 L 136.324 70.6179 L 136.324 91.2354" fill="none" stroke="blue" stroke-width="0.04000" fill-rule="evenodd" fill-opacity="1.000"/>
  </g>
</svg>
