<?xml version="1.0" encoding="UTF-8" standalone="yes"?>
<svg xmlns="http://www.w3.org/2000/svg"
     xmlns:xlink="http://www.w3.org/1999/xlink"
     width="2020.0000mm" height="1600.0000mm"
     viewBox="0 0 202.000000 160.000000">
  <!--
    Build plate : 150.00 x 150.00 mm
    Coordinate  : 1 SVG unit = 1 mm
    Display zoom: 10x  (width/height = viewBox x 10)
    Hatch stroke: 0.04 mm = ~28 mm on screen at this zoom
    Legend panel: right margin (42 mm wide)
  -->
  <defs>
    <marker id="endArrow" markerWidth="2" markerHeight="1.4"
            refX="0" refY="0.7" orient="auto"
            markerUnits="strokeWidth">
      <polyline fill="darkblue" points="0,0 2,0.7 0,1.4 0.2,0.7"/>
    </marker>
  </defs>
  <!-- Background -->
  <rect x="0" y="0" width="202.000000" height="160.000000" fill="#f0f0f0" stroke="none"/>
  <!-- Build plate boundary (150 x 150 mm) -->
  <rect x="5.000000" y="5.000000" width="150.000000" height="150.000000"
        fill="#ffffff" stroke="#aaaaaa" stroke-width="0.2" stroke-dasharray="1,0.5"/>
  <!-- Build plate centre circle (r = 75.00 mm) -->
  <circle cx="80.000000" cy="80.000000" r="75.000000"
          fill="none" stroke="#bbbbbb" stroke-width="0.15" stroke-dasharray="0.8,0.4"/>
  <!-- Centre cross-hair -->
  <line x1="5.000000" y1="80.000000" x2="155.000000" y2="80.000000" stroke="#cccccc" stroke-width="0.1"/>
  <line x1="80.000000" y1="5.000000" x2="80.000000" y2="155.000000" stroke="#cccccc" stroke-width="0.1"/>
  <circle cx="80.000000" cy="80.000000" r="0.3" fill="#cccccc" stroke="none"/>
  <!-- Corner labels -->
  <text x="5.400000" y="4.600000" font-family="sans-serif" font-size="2" fill="#888888">0,0</text>
  <text x="154.600006" y="4.600000" font-family="sans-serif" font-size="2" fill="#888888" text-anchor="end">150,0</text>
  <text x="5.400000" y="157.199997" font-family="sans-serif" font-size="2" fill="#888888">0,150</text>
  <!-- Layer geometry -->
  <g id="geometry">
    <line x1="51.56454" y1="116.02444" x2="51.17762" y2="115.93511" stroke="green" stroke-width="0.04000"/>
    <line x1="51.87049" y1="115.99244" x2="50.98674" y2="115.78841" stroke="green" stroke-width="0.04000"/>
    <line x1="52.08906" y1="115.94027" x2="50.82159" y2="115.64765" stroke="green" stroke-width="0.04000"/>
    <line x1="52.14591" y1="115.85076" x2="50.66036" y2="115.50780" stroke="green" stroke-width="0.04000"/>
    <line x1="52.07969" y1="115.73285" x2="50.49914" y2="115.36795" stroke="green" stroke-width="0.04000"/>
    <line x1="52.01347" y1="115.61492" x2="50.33585" y2="115.22762" stroke="green" stroke-width="0.04000"/>
    <line x1="51.94725" y1="115.49701" x2="50.18492" y2="115.09014" stroke="green" stroke-width="0.04000"/>
    <line x1="51.88104" y1="115.37910" x2="50.08522" y2="114.96450" stroke="green" stroke-width="0.04000"/>
    <line x1="51.81482" y1="115.26117" x2="49.98552" y2="114.83884" stroke="green" stroke-width="0.04000"/>
    <line x1="51.74860" y1="115.14326" x2="49.88582" y2="114.71320" stroke="green" stroke-width="0.04000"/>
    <line x1="51.66206" y1="115.02065" x2="49.76155" y2="114.58188" stroke="green" stroke-width="0.04000"/>
    <line x1="51.61149" y1="114.90634" x2="49.63092" y2="114.44909" stroke="green" stroke-width="0.04000"/>
    <line x1="51.52222" y1="114.78310" x2="49.51263" y2="114.31915" stroke="green" stroke-width="0.04000"/>
    <line x1="51.43296" y1="114.65986" x2="49.46200" y2="114.20483" stroke="green" stroke-width="0.04000"/>
    <line x1="51.34370" y1="114.53663" x2="49.41137" y2="114.09051" stroke="green" stroke-width="0.04000"/>
    <line x1="51.25444" y1="114.41339" x2="49.36074" y2="113.97620" stroke="green" stroke-width="0.04000"/>
    <line x1="51.16517" y1="114.29015" x2="49.31010" y2="113.86187" stroke="green" stroke-width="0.04000"/>
    <line x1="51.07590" y1="114.16691" x2="49.24574" y2="113.74438" stroke="green" stroke-width="0.04000"/>
    <line x1="50.99075" y1="114.04462" x2="49.16632" y2="113.62342" stroke="green" stroke-width="0.04000"/>
    <line x1="50.91335" y1="113.92413" x2="49.08691" y2="113.50246" stroke="green" stroke-width="0.04000"/>
    <line x1="50.81115" y1="113.79789" x2="49.03535" y2="113.38792" stroke="green" stroke-width="0.04000"/>
    <line x1="50.70895" y1="113.67167" x2="49.00613" y2="113.27854" stroke="green" stroke-width="0.04000"/>
    <line x1="50.60675" y1="113.54545" x2="48.97692" y2="113.16917" stroke="green" stroke-width="0.04000"/>
    <line x1="50.50456" y1="113.41922" x2="48.94770" y2="113.05979" stroke="green" stroke-width="0.04000"/>
    <line x1="50.40235" y1="113.29299" x2="48.91848" y2="112.95042" stroke="green" stroke-width="0.04000"/>
    <line x1="50.31257" y1="113.16963" x2="48.88927" y2="112.84104" stroke="green" stroke-width="0.04000"/>
    <line x1="50.23414" y1="113.04890" x2="48.85915" y2="112.73146" stroke="green" stroke-width="0.04000"/>
    <line x1="50.15570" y1="112.92816" x2="48.82307" y2="112.62050" stroke="green" stroke-width="0.04000"/>
    <line x1="50.06236" y1="112.80398" x2="48.78700" y2="112.50954" stroke="green" stroke-width="0.04000"/>
    <line x1="49.96052" y1="112.67783" x2="48.81294" y2="112.41290" stroke="green" stroke-width="0.04000"/>
    <line x1="49.85868" y1="112.55170" x2="49.51328" y2="112.47195" stroke="green" stroke-width="0.04000"/>
    <line x1="49.05927" y1="112.36714" x2="48.88001" y2="112.32575" stroke="green" stroke-width="0.04000"/>
    <line x1="48.99319" y1="112.24925" x2="48.94708" y2="112.23861" stroke="green" stroke-width="0.04000"/>
    <path d="M 49.1004 112.441 L 49.8127 112.495 L 50.1272 112.884 L 50.3536 113.233 L 50.9605 113.982 L 50.9977 114.059 L 51.6242 114.924 L 51.6175 114.964 L 51.7227 115.097 L 52.1608 115.877 L 52.0512 115.974 L 51.3263 116.049 L 50.9614 115.769 L 50.4783 115.35 L 50.4783 115.35 L 50.2051 115.116 L 49.8653 114.687 L 49.5204 114.337 L 49.2836 113.802 L 49.0516 113.449 L 48.8639 112.746 L 48.7726 112.465 L 48.9703 112.208 L 49.1004 112.441" fill="none" stroke="blue" stroke-width="0.04000" fill-rule="evenodd" fill-opacity="1.000"/>
  </g>
</svg>
