<?xml version="1.0" encoding="UTF-8" standalone="yes"?>
<svg xmlns="http://www.w3.org/2000/svg"
     xmlns:xlink="http://www.w3.org/1999/xlink"
     width="2020.0000mm" height="1600.0000mm"
     viewBox="0 0 202.000000 160.000000">
  <!--
    Build plate : 150.00 x 150.00 mm
    Coordinate  : 1 SVG unit = 1 mm
    Display zoom: 10x  (width/height = viewBox x 10)
    Hatch stroke: 0.04 mm = ~28 mm on screen at this zoom
    Legend panel: right margin (42 mm wide)
  -->
  <defs>
    <marker id="endArrow" markerWidth="2" markerHeight="1.4"
            refX="0" refY="0.7" orient="auto"
            markerUnits="strokeWidth">
      <polyline fill="darkblue" points="0,0 2,0.7 0,1.4 0.2,0.7"/>
    </marker>
  </defs>
  <!-- Background -->
  <rect x="0" y="0" width="202.000000" height="160.000000" fill="#f0f0f0" stroke="none"/>
  <!-- Build plate boundary (150 x 150 mm) -->
  <rect x="5.000000" y="5.000000" width="150.000000" height="150.000000"
        fill="#ffffff" stroke="#aaaaaa" stroke-width="0.2" stroke-dasharray="1,0.5"/>
  <!-- Build plate centre circle (r = 75.00 mm) -->
  <circle cx="80.000000" cy="80.000000" r="75.000000"
          fill="none" stroke="#bbbbbb" stroke-width="0.15" stroke-dasharray="0.8,0.4"/>
  <!-- Centre cross-hair -->
  <line x1="5.000000" y1="80.000000" x2="155.000000" y2="80.000000" stroke="#cccccc" stroke-width="0.1"/>
  <line x1="80.000000" y1="5.000000" x2="80.000000" y2="155.000000" stroke="#cccccc" stroke-width="0.1"/>
  <circle cx="80.000000" cy="80.000000" r="0.3" fill="#cccccc" stroke="none"/>
  <!-- Corner labels -->
  <text x="5.400000" y="4.600000" font-family="sans-serif" font-size="2" fill="#888888">0,0</text>
  <text x="154.600006" y="4.600000" font-family="sans-serif" font-size="2" fill="#888888" text-anchor="end">150,0</text>
  <text x="5.400000" y="157.199997" font-family="sans-serif" font-size="2" fill="#888888">0,150</text>
  <!-- Layer geometry -->
  <g id="geometry">
    <line x1="34.41847" y1="124.51979" x2="35.15752" y2="121.55564" stroke="green" stroke-width="0.04000"/>
    <line x1="34.31930" y1="124.50420" x2="35.74059" y2="118.80371" stroke="green" stroke-width="0.04000"/>
    <line x1="34.22012" y1="124.48859" x2="35.83999" y2="117.99167" stroke="green" stroke-width="0.04000"/>
    <line x1="34.12095" y1="124.47300" x2="35.92265" y2="117.24680" stroke="green" stroke-width="0.04000"/>
    <line x1="34.02179" y1="124.45737" x2="35.93738" y2="116.77435" stroke="green" stroke-width="0.04000"/>
    <line x1="33.92285" y1="124.44084" x2="35.95144" y2="116.30462" stroke="green" stroke-width="0.04000"/>
    <line x1="33.82391" y1="124.42432" x2="35.96344" y2="115.84311" stroke="green" stroke-width="0.04000"/>
    <line x1="33.72497" y1="124.40778" x2="35.96399" y2="115.42755" stroke="green" stroke-width="0.04000"/>
    <line x1="33.62602" y1="124.39126" x2="35.94489" y2="115.09082" stroke="green" stroke-width="0.04000"/>
    <line x1="34.56713" y1="124.33688" x2="34.94893" y2="122.80559" stroke="green" stroke-width="0.04000"/>
    <line x1="33.55650" y1="124.25675" x2="35.92432" y2="114.75996" stroke="green" stroke-width="0.04000"/>
    <line x1="33.49662" y1="124.08357" x2="35.90357" y2="114.42982" stroke="green" stroke-width="0.04000"/>
    <line x1="33.43674" y1="123.91039" x2="35.87856" y2="114.11678" stroke="green" stroke-width="0.04000"/>
    <line x1="33.37532" y1="123.74333" x2="35.85355" y2="113.80373" stroke="green" stroke-width="0.04000"/>
    <line x1="33.30795" y1="123.60023" x2="35.82745" y2="113.49503" stroke="green" stroke-width="0.04000"/>
    <line x1="33.24056" y1="123.45713" x2="35.78120" y2="113.26718" stroke="green" stroke-width="0.04000"/>
    <line x1="33.17318" y1="123.31403" x2="35.73791" y2="113.02745" stroke="green" stroke-width="0.04000"/>
    <line x1="33.10580" y1="123.17092" x2="35.69462" y2="112.78772" stroke="green" stroke-width="0.04000"/>
    <line x1="33.03841" y1="123.02782" x2="35.65133" y2="112.54799" stroke="green" stroke-width="0.04000"/>
    <line x1="32.98764" y1="122.81814" x2="35.60099" y2="112.33652" stroke="green" stroke-width="0.04000"/>
    <line x1="32.93648" y1="122.60994" x2="35.54346" y2="112.15394" stroke="green" stroke-width="0.04000"/>
    <line x1="32.88508" y1="122.40274" x2="35.48739" y2="111.96546" stroke="green" stroke-width="0.04000"/>
    <line x1="32.83368" y1="122.19554" x2="35.43453" y2="111.76409" stroke="green" stroke-width="0.04000"/>
    <line x1="32.78692" y1="121.96972" x2="35.38168" y2="111.56272" stroke="green" stroke-width="0.04000"/>
    <line x1="32.74478" y1="121.72539" x2="35.32883" y2="111.36134" stroke="green" stroke-width="0.04000"/>
    <line x1="32.70264" y1="121.48106" x2="35.26875" y2="111.18893" stroke="green" stroke-width="0.04000"/>
    <line x1="32.66032" y1="121.23743" x2="35.20847" y2="111.01736" stroke="green" stroke-width="0.04000"/>
    <line x1="32.61627" y1="121.00076" x2="35.14819" y2="110.84579" stroke="green" stroke-width="0.04000"/>
    <line x1="32.57358" y1="120.75860" x2="35.08790" y2="110.67422" stroke="green" stroke-width="0.04000"/>
    <line x1="32.52985" y1="120.52064" x2="35.02585" y2="110.50976" stroke="green" stroke-width="0.04000"/>
    <line x1="32.48612" y1="120.28267" x2="34.96350" y2="110.34645" stroke="green" stroke-width="0.04000"/>
    <line x1="32.44846" y1="120.02039" x2="34.90124" y2="110.18282" stroke="green" stroke-width="0.04000"/>
    <line x1="32.41240" y1="119.75163" x2="34.83897" y2="110.01917" stroke="green" stroke-width="0.04000"/>
    <line x1="32.37264" y1="119.49775" x2="34.77671" y2="109.85554" stroke="green" stroke-width="0.04000"/>
    <line x1="32.33091" y1="119.25176" x2="34.71445" y2="109.69190" stroke="green" stroke-width="0.04000"/>
    <line x1="32.28907" y1="119.00623" x2="34.65219" y2="109.52826" stroke="green" stroke-width="0.04000"/>
    <line x1="32.24548" y1="118.76772" x2="34.58765" y2="109.37377" stroke="green" stroke-width="0.04000"/>
    <line x1="32.20188" y1="118.52921" x2="34.52184" y2="109.22435" stroke="green" stroke-width="0.04000"/>
    <line x1="32.16132" y1="118.27853" x2="34.46339" y2="109.04543" stroke="green" stroke-width="0.04000"/>
    <line x1="32.12726" y1="118.00176" x2="34.40494" y2="108.86651" stroke="green" stroke-width="0.04000"/>
    <line x1="32.09241" y1="117.72817" x2="34.34649" y2="108.68760" stroke="green" stroke-width="0.04000"/>
    <line x1="32.05289" y1="117.47336" x2="34.28803" y2="108.50868" stroke="green" stroke-width="0.04000"/>
    <line x1="32.02132" y1="117.18661" x2="34.22958" y2="108.32977" stroke="green" stroke-width="0.04000"/>
    <line x1="31.99218" y1="116.89013" x2="34.15816" y2="108.20283" stroke="green" stroke-width="0.04000"/>
    <line x1="31.95654" y1="116.61970" x2="34.08580" y2="108.07971" stroke="green" stroke-width="0.04000"/>
    <line x1="31.90594" y1="116.40932" x2="34.02364" y2="107.91568" stroke="green" stroke-width="0.04000"/>
    <line x1="31.85803" y1="116.18808" x2="33.97412" y2="107.70093" stroke="green" stroke-width="0.04000"/>
    <line x1="31.81014" y1="115.96684" x2="33.92460" y2="107.48618" stroke="green" stroke-width="0.04000"/>
    <line x1="31.76224" y1="115.74561" x2="33.87508" y2="107.27143" stroke="green" stroke-width="0.04000"/>
    <line x1="31.71052" y1="115.53968" x2="33.82355" y2="107.06479" stroke="green" stroke-width="0.04000"/>
    <line x1="31.65185" y1="115.36160" x2="33.74376" y2="106.97142" stroke="green" stroke-width="0.04000"/>
    <line x1="31.59577" y1="115.17320" x2="33.69448" y2="106.75572" stroke="green" stroke-width="0.04000"/>
    <line x1="31.54317" y1="114.97081" x2="33.66303" y2="106.46851" stroke="green" stroke-width="0.04000"/>
    <line x1="31.49057" y1="114.76842" x2="33.65103" y2="106.10328" stroke="green" stroke-width="0.04000"/>
    <line x1="31.43463" y1="114.57943" x2="35.28080" y2="99.15330" stroke="green" stroke-width="0.04000"/>
    <line x1="31.37663" y1="114.39869" x2="35.18486" y2="99.12469" stroke="green" stroke-width="0.04000"/>
    <line x1="31.31863" y1="114.21795" x2="35.08893" y2="99.09610" stroke="green" stroke-width="0.04000"/>
    <line x1="31.26063" y1="114.03721" x2="34.99300" y2="99.06750" stroke="green" stroke-width="0.04000"/>
    <line x1="31.20202" y1="113.85895" x2="34.89594" y2="99.04343" stroke="green" stroke-width="0.04000"/>
    <line x1="31.15202" y1="113.64613" x2="34.79647" y2="99.02901" stroke="green" stroke-width="0.04000"/>
    <line x1="31.09970" y1="113.44260" x2="34.69797" y2="99.01072" stroke="green" stroke-width="0.04000"/>
    <line x1="31.04733" y1="113.23930" x2="34.60394" y2="98.97455" stroke="green" stroke-width="0.04000"/>
    <line x1="30.99496" y1="113.03600" x2="34.50989" y2="98.93838" stroke="green" stroke-width="0.04000"/>
    <line x1="30.97450" y1="112.70470" x2="34.41585" y2="98.90221" stroke="green" stroke-width="0.04000"/>
    <line x1="30.93450" y1="112.45177" x2="34.32180" y2="98.86603" stroke="green" stroke-width="0.04000"/>
    <line x1="30.89450" y1="112.19884" x2="34.22605" y2="98.83673" stroke="green" stroke-width="0.04000"/>
    <line x1="30.93469" y1="111.62429" x2="34.12824" y2="98.81565" stroke="green" stroke-width="0.04000"/>
    <line x1="30.93492" y1="111.21001" x2="34.03044" y2="98.79456" stroke="green" stroke-width="0.04000"/>
    <line x1="30.93515" y1="110.79572" x2="33.93138" y2="98.77852" stroke="green" stroke-width="0.04000"/>
    <line x1="44.74966" y1="110.77856" x2="45.63314" y2="107.23512" stroke="green" stroke-width="0.04000"/>
    <line x1="44.64790" y1="110.77331" x2="45.54699" y2="107.16728" stroke="green" stroke-width="0.04000"/>
    <line x1="44.85427" y1="110.77233" x2="45.71928" y2="107.30295" stroke="green" stroke-width="0.04000"/>
    <line x1="44.95888" y1="110.76611" x2="45.80543" y2="107.37077" stroke="green" stroke-width="0.04000"/>
    <line x1="44.54776" y1="110.76160" x2="45.46083" y2="107.09946" stroke="green" stroke-width="0.04000"/>
    <line x1="45.06350" y1="110.75987" x2="45.89153" y2="107.43884" stroke="green" stroke-width="0.04000"/>
    <line x1="45.16811" y1="110.75365" x2="45.97760" y2="107.50695" stroke="green" stroke-width="0.04000"/>
    <line x1="44.44688" y1="110.75283" x2="45.37468" y2="107.03162" stroke="green" stroke-width="0.04000"/>
    <line x1="45.27320" y1="110.74552" x2="46.06368" y2="107.57506" stroke="green" stroke-width="0.04000"/>
    <line x1="44.34601" y1="110.74406" x2="45.28854" y2="106.96379" stroke="green" stroke-width="0.04000"/>
    <line x1="44.24464" y1="110.73725" x2="45.20238" y2="106.89596" stroke="green" stroke-width="0.04000"/>
    <line x1="45.37931" y1="110.73328" x2="46.14976" y2="107.64317" stroke="green" stroke-width="0.04000"/>
    <line x1="44.14326" y1="110.73053" x2="45.11636" y2="106.82764" stroke="green" stroke-width="0.04000"/>
    <line x1="44.04188" y1="110.72380" x2="45.03061" y2="106.75819" stroke="green" stroke-width="0.04000"/>
    <line x1="45.48543" y1="110.72102" x2="46.23584" y2="107.71129" stroke="green" stroke-width="0.04000"/>
    <line x1="43.94049" y1="110.71708" x2="44.94364" y2="106.69366" stroke="green" stroke-width="0.04000"/>
    <line x1="43.83911" y1="110.71035" x2="44.85448" y2="106.63793" stroke="green" stroke-width="0.04000"/>
    <line x1="45.59155" y1="110.70877" x2="46.32192" y2="107.77940" stroke="green" stroke-width="0.04000"/>
    <line x1="43.73772" y1="110.70363" x2="44.76521" y2="106.58260" stroke="green" stroke-width="0.04000"/>
    <line x1="43.63634" y1="110.69691" x2="44.67594" y2="106.52728" stroke="green" stroke-width="0.04000"/>
    <line x1="45.69766" y1="110.69653" x2="46.40842" y2="107.84584" stroke="green" stroke-width="0.04000"/>
    <line x1="43.53584" y1="110.68663" x2="44.58667" y2="106.47196" stroke="green" stroke-width="0.04000"/>
    <line x1="43.43758" y1="110.66737" x2="44.49741" y2="106.41663" stroke="green" stroke-width="0.04000"/>
    <line x1="45.81217" y1="110.65059" x2="46.49505" y2="107.91172" stroke="green" stroke-width="0.04000"/>
    <line x1="43.33932" y1="110.64811" x2="44.40814" y2="106.36131" stroke="green" stroke-width="0.04000"/>
    <line x1="43.24106" y1="110.62885" x2="44.31887" y2="106.30599" stroke="green" stroke-width="0.04000"/>
    <line x1="43.14280" y1="110.60959" x2="44.22734" y2="106.25975" stroke="green" stroke-width="0.04000"/>
    <line x1="45.92908" y1="110.59506" x2="46.58168" y2="107.97761" stroke="green" stroke-width="0.04000"/>
    <line x1="43.04454" y1="110.59032" x2="44.13424" y2="106.21978" stroke="green" stroke-width="0.04000"/>
    <line x1="42.94628" y1="110.57107" x2="44.04115" y2="106.17981" stroke="green" stroke-width="0.04000"/>
    <line x1="42.84802" y1="110.55180" x2="43.95052" y2="106.12994" stroke="green" stroke-width="0.04000"/>
    <line x1="46.04598" y1="110.53954" x2="46.66910" y2="108.04035" stroke="green" stroke-width="0.04000"/>
    <line x1="42.74977" y1="110.53255" x2="43.86079" y2="106.07645" stroke="green" stroke-width="0.04000"/>
    <line x1="42.65391" y1="110.50364" x2="43.77107" y2="106.02296" stroke="green" stroke-width="0.04000"/>
    <line x1="46.16289" y1="110.48402" x2="46.75668" y2="108.10245" stroke="green" stroke-width="0.04000"/>
    <line x1="42.55828" y1="110.47382" x2="43.68134" y2="105.96947" stroke="green" stroke-width="0.04000"/>
    <line x1="42.46460" y1="110.43623" x2="43.59162" y2="105.91599" stroke="green" stroke-width="0.04000"/>
    <line x1="46.27943" y1="110.42995" x2="46.84426" y2="108.16454" stroke="green" stroke-width="0.04000"/>
    <line x1="42.37087" y1="110.39879" x2="43.50190" y2="105.86250" stroke="green" stroke-width="0.04000"/>
    <line x1="46.39461" y1="110.38136" x2="46.91792" y2="108.28249" stroke="green" stroke-width="0.04000"/>
    <line x1="42.27694" y1="110.36217" x2="43.41217" y2="105.80901" stroke="green" stroke-width="0.04000"/>
    <line x1="46.50978" y1="110.33276" x2="46.99154" y2="108.40054" stroke="green" stroke-width="0.04000"/>
    <line x1="42.18300" y1="110.32556" x2="43.31873" y2="105.77040" stroke="green" stroke-width="0.04000"/>
    <line x1="42.08907" y1="110.28894" x2="43.21863" y2="105.75853" stroke="green" stroke-width="0.04000"/>
    <line x1="46.62496" y1="110.28419" x2="47.06517" y2="108.51858" stroke="green" stroke-width="0.04000"/>
    <line x1="41.99514" y1="110.25233" x2="43.11853" y2="105.74666" stroke="green" stroke-width="0.04000"/>
    <line x1="46.74077" y1="110.23306" x2="47.13881" y2="108.63662" stroke="green" stroke-width="0.04000"/>
    <line x1="41.90121" y1="110.21571" x2="43.01843" y2="105.73479" stroke="green" stroke-width="0.04000"/>
    <line x1="41.80727" y1="110.17910" x2="42.92521" y2="105.69531" stroke="green" stroke-width="0.04000"/>
    <line x1="41.71334" y1="110.14248" x2="42.83534" y2="105.64240" stroke="green" stroke-width="0.04000"/>
    <line x1="46.87009" y1="110.12772" x2="47.21243" y2="108.75466" stroke="green" stroke-width="0.04000"/>
    <line x1="41.61941" y1="110.10587" x2="42.74548" y2="105.58948" stroke="green" stroke-width="0.04000"/>
    <line x1="41.52539" y1="110.06961" x2="42.65561" y2="105.53655" stroke="green" stroke-width="0.04000"/>
    <line x1="41.43121" y1="110.03397" x2="42.56574" y2="105.48363" stroke="green" stroke-width="0.04000"/>
    <line x1="47.00468" y1="110.00127" x2="47.29910" y2="108.82043" stroke="green" stroke-width="0.04000"/>
    <line x1="41.33704" y1="109.99834" x2="42.47588" y2="105.43072" stroke="green" stroke-width="0.04000"/>
    <line x1="41.24286" y1="109.96270" x2="42.38470" y2="105.38301" stroke="green" stroke-width="0.04000"/>
    <line x1="41.14868" y1="109.92707" x2="42.29259" y2="105.33912" stroke="green" stroke-width="0.04000"/>
    <line x1="41.05671" y1="109.88258" x2="42.20047" y2="105.29522" stroke="green" stroke-width="0.04000"/>
    <line x1="47.14091" y1="109.86826" x2="47.38815" y2="108.87663" stroke="green" stroke-width="0.04000"/>
    <line x1="40.96499" y1="109.83710" x2="42.10836" y2="105.25133" stroke="green" stroke-width="0.04000"/>
    <line x1="40.87327" y1="109.79163" x2="42.01624" y2="105.20744" stroke="green" stroke-width="0.04000"/>
    <line x1="40.78154" y1="109.74615" x2="41.92412" y2="105.16354" stroke="green" stroke-width="0.04000"/>
    <line x1="47.27713" y1="109.73524" x2="47.47720" y2="108.93283" stroke="green" stroke-width="0.04000"/>
    <line x1="40.68982" y1="109.70068" x2="41.83148" y2="105.12174" stroke="green" stroke-width="0.04000"/>
    <line x1="40.59757" y1="109.65732" x2="41.73882" y2="105.08004" stroke="green" stroke-width="0.04000"/>
    <line x1="40.50486" y1="109.61581" x2="41.64615" y2="105.03834" stroke="green" stroke-width="0.04000"/>
    <line x1="47.41335" y1="109.60224" x2="47.56625" y2="108.98903" stroke="green" stroke-width="0.04000"/>
    <line x1="40.41214" y1="109.57432" x2="41.55349" y2="104.99664" stroke="green" stroke-width="0.04000"/>
    <line x1="40.31943" y1="109.53281" x2="41.46257" y2="104.94795" stroke="green" stroke-width="0.04000"/>
    <line x1="40.22672" y1="109.49132" x2="41.37325" y2="104.89280" stroke="green" stroke-width="0.04000"/>
    <line x1="40.13400" y1="109.44981" x2="41.28394" y2="104.83765" stroke="green" stroke-width="0.04000"/>
    <line x1="40.04129" y1="109.40832" x2="41.19463" y2="104.78250" stroke="green" stroke-width="0.04000"/>
    <line x1="39.95208" y1="109.35274" x2="41.10532" y2="104.72735" stroke="green" stroke-width="0.04000"/>
    <line x1="31.19798" y1="109.32820" x2="31.24125" y2="109.15469" stroke="green" stroke-width="0.04000"/>
    <line x1="39.86435" y1="109.29125" x2="41.01601" y2="104.67220" stroke="green" stroke-width="0.04000"/>
    <line x1="39.77662" y1="109.22977" x2="40.92670" y2="104.61705" stroke="green" stroke-width="0.04000"/>
    <line x1="47.61285" y1="109.21547" x2="47.65529" y2="109.04523" stroke="green" stroke-width="0.04000"/>
    <line x1="39.68889" y1="109.16828" x2="40.83739" y2="104.56190" stroke="green" stroke-width="0.04000"/>
    <line x1="39.59866" y1="109.11683" x2="40.74808" y2="104.50675" stroke="green" stroke-width="0.04000"/>
    <line x1="39.50838" y1="109.06554" x2="40.65753" y2="104.45657" stroke="green" stroke-width="0.04000"/>
    <line x1="39.41811" y1="109.01424" x2="40.56564" y2="104.41175" stroke="green" stroke-width="0.04000"/>
    <line x1="39.32784" y1="108.96294" x2="40.47297" y2="104.37008" stroke="green" stroke-width="0.04000"/>
    <line x1="39.23757" y1="108.91165" x2="40.38029" y2="104.32841" stroke="green" stroke-width="0.04000"/>
    <line x1="39.14730" y1="108.86035" x2="40.28763" y2="104.28675" stroke="green" stroke-width="0.04000"/>
    <line x1="39.05973" y1="108.79822" x2="40.19495" y2="104.24508" stroke="green" stroke-width="0.04000"/>
    <line x1="38.97275" y1="108.73372" x2="40.10228" y2="104.20341" stroke="green" stroke-width="0.04000"/>
    <line x1="38.88577" y1="108.66922" x2="40.00961" y2="104.16174" stroke="green" stroke-width="0.04000"/>
    <line x1="38.79879" y1="108.60472" x2="39.91693" y2="104.12008" stroke="green" stroke-width="0.04000"/>
    <line x1="38.71181" y1="108.54022" x2="39.82390" y2="104.07987" stroke="green" stroke-width="0.04000"/>
    <line x1="38.62415" y1="108.47843" x2="39.72956" y2="104.04488" stroke="green" stroke-width="0.04000"/>
    <line x1="38.53550" y1="108.42062" x2="39.63576" y2="104.00772" stroke="green" stroke-width="0.04000"/>
    <line x1="38.44685" y1="108.36282" x2="39.54263" y2="103.96791" stroke="green" stroke-width="0.04000"/>
    <line x1="38.35820" y1="108.30502" x2="39.44949" y2="103.92809" stroke="green" stroke-width="0.04000"/>
    <line x1="38.27200" y1="108.23740" x2="39.35636" y2="103.88828" stroke="green" stroke-width="0.04000"/>
    <line x1="38.18804" y1="108.16081" x2="39.26323" y2="103.84846" stroke="green" stroke-width="0.04000"/>
    <line x1="31.50169" y1="108.11009" x2="31.53976" y2="107.95744" stroke="green" stroke-width="0.04000"/>
    <line x1="38.10407" y1="108.08423" x2="39.17009" y2="103.80865" stroke="green" stroke-width="0.04000"/>
    <line x1="38.02010" y1="108.00764" x2="39.07696" y2="103.76883" stroke="green" stroke-width="0.04000"/>
    <line x1="37.93613" y1="107.93106" x2="38.98382" y2="103.72901" stroke="green" stroke-width="0.04000"/>
    <line x1="37.85217" y1="107.85448" x2="38.89069" y2="103.68920" stroke="green" stroke-width="0.04000"/>
    <line x1="37.76651" y1="107.78467" x2="38.79614" y2="103.65506" stroke="green" stroke-width="0.04000"/>
    <line x1="37.67878" y1="107.72320" x2="38.70152" y2="103.62121" stroke="green" stroke-width="0.04000"/>
    <line x1="37.59104" y1="107.66174" x2="38.60690" y2="103.58735" stroke="green" stroke-width="0.04000"/>
    <line x1="37.50330" y1="107.60027" x2="38.51228" y2="103.55350" stroke="green" stroke-width="0.04000"/>
    <line x1="37.42180" y1="107.51382" x2="38.41766" y2="103.51965" stroke="green" stroke-width="0.04000"/>
    <line x1="37.34405" y1="107.41229" x2="38.32304" y2="103.48579" stroke="green" stroke-width="0.04000"/>
    <line x1="37.26630" y1="107.31077" x2="38.22842" y2="103.45193" stroke="green" stroke-width="0.04000"/>
    <line x1="37.18855" y1="107.20924" x2="38.13380" y2="103.41808" stroke="green" stroke-width="0.04000"/>
    <line x1="37.11080" y1="107.10772" x2="38.04951" y2="103.34277" stroke="green" stroke-width="0.04000"/>
    <line x1="37.03194" y1="107.01069" x2="37.97464" y2="103.22971" stroke="green" stroke-width="0.04000"/>
    <line x1="36.95269" y1="106.91518" x2="37.89825" y2="103.12272" stroke="green" stroke-width="0.04000"/>
    <line x1="36.87344" y1="106.81966" x2="37.82187" y2="103.01574" stroke="green" stroke-width="0.04000"/>
    <line x1="36.79419" y1="106.72414" x2="37.74548" y2="102.90875" stroke="green" stroke-width="0.04000"/>
    <line x1="36.71495" y1="106.62863" x2="37.66909" y2="102.80177" stroke="green" stroke-width="0.04000"/>
    <line x1="36.63570" y1="106.53312" x2="37.59270" y2="102.69479" stroke="green" stroke-width="0.04000"/>
    <line x1="31.91759" y1="106.44204" x2="33.83218" y2="98.76301" stroke="green" stroke-width="0.04000"/>
    <line x1="36.55991" y1="106.42372" x2="37.52698" y2="102.54504" stroke="green" stroke-width="0.04000"/>
    <line x1="36.50895" y1="106.21476" x2="37.45422" y2="102.42348" stroke="green" stroke-width="0.04000"/>
    <line x1="36.45656" y1="106.01154" x2="37.37423" y2="102.33096" stroke="green" stroke-width="0.04000"/>
    <line x1="36.40417" y1="105.80830" x2="37.29424" y2="102.23845" stroke="green" stroke-width="0.04000"/>
    <line x1="31.97565" y1="105.79578" x2="33.73122" y2="98.75458" stroke="green" stroke-width="0.04000"/>
    <line x1="31.91144" y1="105.63997" x2="33.62307" y2="98.77499" stroke="green" stroke-width="0.04000"/>
    <line x1="36.35178" y1="105.60507" x2="37.21424" y2="102.14594" stroke="green" stroke-width="0.04000"/>
    <line x1="33.80156" y1="105.49954" x2="35.37672" y2="99.18189" stroke="green" stroke-width="0.04000"/>
    <line x1="31.84723" y1="105.48415" x2="33.51492" y2="98.79542" stroke="green" stroke-width="0.04000"/>
    <line x1="31.78302" y1="105.32834" x2="33.40677" y2="98.81583" stroke="green" stroke-width="0.04000"/>
    <line x1="36.33539" y1="105.25748" x2="37.13425" y2="102.05343" stroke="green" stroke-width="0.04000"/>
    <line x1="31.71880" y1="105.17252" x2="33.29861" y2="98.83625" stroke="green" stroke-width="0.04000"/>
    <line x1="36.27386" y1="105.09089" x2="37.06851" y2="101.90371" stroke="green" stroke-width="0.04000"/>
    <line x1="36.21233" y1="104.92431" x2="37.01141" y2="101.71936" stroke="green" stroke-width="0.04000"/>
    <line x1="31.67892" y1="104.91913" x2="33.18897" y2="98.86266" stroke="green" stroke-width="0.04000"/>
    <line x1="34.05824" y1="104.88342" x2="35.47266" y2="99.21049" stroke="green" stroke-width="0.04000"/>
    <line x1="36.13602" y1="104.81699" x2="36.95432" y2="101.53501" stroke="green" stroke-width="0.04000"/>
    <line x1="31.60375" y1="104.80728" x2="33.07707" y2="98.89811" stroke="green" stroke-width="0.04000"/>
    <line x1="34.19127" y1="104.76323" x2="35.56824" y2="99.24049" stroke="green" stroke-width="0.04000"/>
    <line x1="36.05804" y1="104.71645" x2="36.89916" y2="101.34286" stroke="green" stroke-width="0.04000"/>
    <line x1="31.54037" y1="104.64812" x2="32.96517" y2="98.93356" stroke="green" stroke-width="0.04000"/>
    <line x1="34.32429" y1="104.64306" x2="35.65336" y2="99.31242" stroke="green" stroke-width="0.04000"/>
    <line x1="35.98004" y1="104.61589" x2="36.84681" y2="101.13947" stroke="green" stroke-width="0.04000"/>
    <line x1="34.45496" y1="104.53231" x2="35.73849" y2="99.38437" stroke="green" stroke-width="0.04000"/>
    <line x1="35.90205" y1="104.51534" x2="36.79446" y2="100.93606" stroke="green" stroke-width="0.04000"/>
    <line x1="31.47902" y1="104.48081" x2="32.85327" y2="98.96902" stroke="green" stroke-width="0.04000"/>
    <line x1="35.81052" y1="104.46911" x2="36.72877" y2="100.78622" stroke="green" stroke-width="0.04000"/>
    <line x1="34.57411" y1="104.46779" x2="35.82361" y2="99.45631" stroke="green" stroke-width="0.04000"/>
    <line x1="35.71629" y1="104.43367" x2="36.66091" y2="100.64500" stroke="green" stroke-width="0.04000"/>
    <line x1="34.68859" y1="104.42200" x2="35.90874" y2="99.52825" stroke="green" stroke-width="0.04000"/>
    <line x1="35.62207" y1="104.39822" x2="36.59306" y2="100.50379" stroke="green" stroke-width="0.04000"/>
    <line x1="34.80307" y1="104.37621" x2="35.99152" y2="99.60960" stroke="green" stroke-width="0.04000"/>
    <line x1="35.52784" y1="104.36278" x2="36.52521" y2="100.36258" stroke="green" stroke-width="0.04000"/>
    <line x1="34.91755" y1="104.33041" x2="36.07366" y2="99.69348" stroke="green" stroke-width="0.04000"/>
    <line x1="35.43362" y1="104.32733" x2="36.45641" y2="100.22516" stroke="green" stroke-width="0.04000"/>
    <line x1="31.41768" y1="104.31351" x2="32.74137" y2="99.00447" stroke="green" stroke-width="0.04000"/>
    <line x1="35.33940" y1="104.29189" x2="36.38434" y2="100.10087" stroke="green" stroke-width="0.04000"/>
    <line x1="35.03203" y1="104.28461" x2="36.15581" y2="99.77736" stroke="green" stroke-width="0.04000"/>
    <line x1="35.24517" y1="104.25645" x2="36.31165" y2="99.97904" stroke="green" stroke-width="0.04000"/>
    <line x1="35.14651" y1="104.23882" x2="36.23796" y2="99.86124" stroke="green" stroke-width="0.04000"/>
    <line x1="31.35633" y1="104.14620" x2="32.62946" y2="99.03993" stroke="green" stroke-width="0.04000"/>
    <line x1="31.29498" y1="103.97890" x2="32.51756" y2="99.07539" stroke="green" stroke-width="0.04000"/>
    <line x1="31.23559" y1="103.80373" x2="32.40064" y2="99.13098" stroke="green" stroke-width="0.04000"/>
    <line x1="31.17628" y1="103.62824" x2="32.26386" y2="99.26623" stroke="green" stroke-width="0.04000"/>
    <line x1="31.11698" y1="103.45275" x2="32.10881" y2="99.47474" stroke="green" stroke-width="0.04000"/>
    <line x1="31.05767" y1="103.27727" x2="31.95376" y2="99.68326" stroke="green" stroke-width="0.04000"/>
    <line x1="31.00451" y1="103.07716" x2="31.79859" y2="99.89224" stroke="green" stroke-width="0.04000"/>
    <line x1="30.96151" y1="102.83625" x2="31.64263" y2="100.10442" stroke="green" stroke-width="0.04000"/>
    <line x1="30.94724" y1="102.48013" x2="31.44949" y2="100.46570" stroke="green" stroke-width="0.04000"/>
    <line x1="30.97012" y1="101.97497" x2="31.24615" y2="100.86788" stroke="green" stroke-width="0.04000"/>
    <path d="M 34.021 98.7925 L 34.2706 98.8463 L 34.7147 99.0172 L 34.9276 99.048 L 35.5655 99.2382 L 35.9268 99.5435 L 36.2384 99.8617 L 36.3406 100.025 L 36.4726 100.253 L 36.7872 100.908 L 36.9206 101.426 L 37.1041 102.019 L 37.5082 102.486 L 37.5599 102.649 L 38.0358 103.315 L 38.077 103.398 L 38.8862 103.687 L 39.7147 104.041 L 39.7574 104.051 L 39.9065 104.115 L 40.5789 104.418 L 40.704 104.48 L 41.509 104.977 L 41.9201 105.162 L 42.438 105.408 L 42.9856 105.731 L 43.3545 105.775 L 44.0162 106.169 L 44.2824 106.283 L 44.9398 106.691 L 45.0693 106.787 L 45.1238 106.834 L 45.821 107.383 L 46.3435 107.796 L 46.5964 107.989 L 46.8444 108.165 L 47.2238 108.773 L 47.687 109.065 L 47.4302 109.586 L 46.9007 110.103 L 46.7338 110.239 L 46.6211 110.286 L 46.2553 110.44 L 45.7212 110.694 L 45.2398 110.749 L 44.7034 110.781 L 44.5955 110.766 L 44.3419 110.744 L 43.5637 110.692 L 42.7423 110.531 L 42.5597 110.474 L 42.3859 110.405 L 41.5597 110.083 L 41.1392 109.923 L 40.6468 109.679 L 40.0139 109.396 L 39.6876 109.167 L 39.1311 108.851 L 38.66 108.502 L 38.3159 108.277 L 37.8058 107.812 L 37.4703 107.577 L 37.0911 107.082 L 36.5658 106.449 L 36.5317 106.303 L 36.3031 105.416 L 36.3557 105.313 L 36.206 104.907 L 35.8891 104.499 L 35.1716 104.229 L 34.518 104.49 L 34.424 104.553 L 33.9442 104.986 L 33.8008 105.502 L 33.6475 105.854 L 33.6551 106.397 L 33.7143 106.937 L 33.8289 107.071 L 34.0458 108.012 L 34.2256 108.318 L 34.5365 109.269 L 34.5662 109.324 L 34.6355 109.485 L 34.9813 110.393 L 35.0786 110.648 L 35.3273 111.356 L 35.504 112.029 L 35.6295 112.427 L 35.8012 113.378 L 35.8134 113.425 L 35.8298 113.507 L 35.9046 114.442 L 35.9544 115.245 L 35.9613 115.38 L 35.971 115.551 L 35.9485 116.419 L 35.9203 117.321 L 35.9155 117.419 L 35.9115 117.495 L 35.7813 118.4 L 35.6799 119.406 L 35.6716 119.441 L 35.6625 119.478 L 35.4156 120.41 L 35.2636 121.03 L 35.197 121.367 L 35.044 122.097 L 34.974 122.581 L 34.9048 123.202 L 34.8656 123.534 L 34.6375 124.157 L 34.491 124.531 L 34.0247 124.458 L 33.6016 124.387 L 33.3891 123.773 L 33.0369 123.025 L 33.0141 122.943 L 32.9848 122.805 L 32.8081 122.092 L 32.6619 121.245 L 32.6391 121.137 L 32.6312 121.099 L 32.6077 120.944 L 32.4769 120.233 L 32.3974 119.64 L 32.3381 119.299 L 32.3167 119.157 L 32.1722 118.367 L 32.0981 117.765 L 32.0436 117.414 L 31.9732 116.697 L 31.9446 116.564 L 31.9262 116.503 L 31.7313 115.603 L 31.6181 115.259 L 31.4705 114.691 L 31.2407 113.975 L 31.2045 113.869 L 31.1508 113.641 L 30.985 112.997 L 30.9788 112.732 L 30.8701 112.045 L 30.9346 111.739 L 30.9352 110.773 L 30.9461 110.733 L 30.9639 110.647 L 31.1709 109.762 L 31.2038 109.234 L 31.4066 108.802 L 31.5187 107.986 L 31.5972 107.879 L 31.8681 106.862 L 31.9897 105.83 L 31.6902 105.103 L 31.6803 104.921 L 31.5927 104.791 L 31.2926 103.972 L 31.0464 103.244 L 30.9775 102.97 L 30.9627 102.86 L 30.9455 102.518 L 30.979 101.778 L 31.1705 101.048 L 31.289 100.766 L 31.6439 100.102 L 31.826 99.8551 L 32.3407 99.1629 L 32.4865 99.0852 L 33.2335 98.8485 L 33.7525 98.7506 L 34.021 98.7925" fill="none" stroke="blue" stroke-width="0.04000" fill-rule="evenodd" fill-opacity="1.000"/>
  </g>
</svg>
