<?xml version="1.0" encoding="UTF-8" standalone="yes"?>
<svg xmlns="http://www.w3.org/2000/svg"
     xmlns:xlink="http://www.w3.org/1999/xlink"
     width="2020.0000mm" height="1600.0000mm"
     viewBox="0 0 202.000000 160.000000">
  <!--
    Build plate : 150.00 x 150.00 mm
    Coordinate  : 1 SVG unit = 1 mm
    Display zoom: 10x  (width/height = viewBox x 10)
    Hatch stroke: 0.04 mm = ~28 mm on screen at this zoom
    Legend panel: right margin (42 mm wide)
  -->
  <defs>
    <marker id="endArrow" markerWidth="2" markerHeight="1.4"
            refX="0" refY="0.7" orient="auto"
            markerUnits="strokeWidth">
      <polyline fill="darkblue" points="0,0 2,0.7 0,1.4 0.2,0.7"/>
    </marker>
  </defs>
  <!-- Background -->
  <rect x="0" y="0" width="202.000000" height="160.000000" fill="#f0f0f0" stroke="none"/>
  <!-- Build plate boundary (150 x 150 mm) -->
  <rect x="5.000000" y="5.000000" width="150.000000" height="150.000000"
        fill="#ffffff" stroke="#aaaaaa" stroke-width="0.2" stroke-dasharray="1,0.5"/>
  <!-- Build plate centre circle (r = 75.00 mm) -->
  <circle cx="80.000000" cy="80.000000" r="75.000000"
          fill="none" stroke="#bbbbbb" stroke-width="0.15" stroke-dasharray="0.8,0.4"/>
  <!-- Centre cross-hair -->
  <line x1="5.000000" y1="80.000000" x2="155.000000" y2="80.000000" stroke="#cccccc" stroke-width="0.1"/>
  <line x1="80.000000" y1="5.000000" x2="80.000000" y2="155.000000" stroke="#cccccc" stroke-width="0.1"/>
  <circle cx="80.000000" cy="80.000000" r="0.3" fill="#cccccc" stroke="none"/>
  <!-- Corner labels -->
  <text x="5.400000" y="4.600000" font-family="sans-serif" font-size="2" fill="#888888">0,0</text>
  <text x="154.600006" y="4.600000" font-family="sans-serif" font-size="2" fill="#888888" text-anchor="end">150,0</text>
  <text x="5.400000" y="157.199997" font-family="sans-serif" font-size="2" fill="#888888">0,150</text>
  <!-- Layer geometry -->
  <g id="geometry">
    <line x1="37.78583" y1="87.57100" x2="37.38824" y2="87.68501" stroke="green" stroke-width="0.04000"/>
    <line x1="37.94718" y1="87.42071" x2="37.30438" y2="87.60503" stroke="green" stroke-width="0.04000"/>
    <line x1="38.10323" y1="87.27193" x2="37.22051" y2="87.52504" stroke="green" stroke-width="0.04000"/>
    <line x1="38.27322" y1="87.11916" x2="37.22530" y2="87.41964" stroke="green" stroke-width="0.04000"/>
    <line x1="38.44387" y1="86.96619" x2="37.37116" y2="87.27378" stroke="green" stroke-width="0.04000"/>
    <line x1="38.61427" y1="86.81330" x2="37.51701" y2="87.12793" stroke="green" stroke-width="0.04000"/>
    <line x1="38.78386" y1="86.66064" x2="37.66287" y2="86.98208" stroke="green" stroke-width="0.04000"/>
    <line x1="38.94949" y1="86.50912" x2="37.80872" y2="86.83623" stroke="green" stroke-width="0.04000"/>
    <line x1="37.96580" y1="86.68716" x2="37.95457" y2="86.69038" stroke="green" stroke-width="0.04000"/>
    <line x1="39.11639" y1="86.35723" x2="38.34656" y2="86.57797" stroke="green" stroke-width="0.04000"/>
    <line x1="39.28328" y1="86.20534" x2="38.49241" y2="86.43212" stroke="green" stroke-width="0.04000"/>
    <line x1="39.43829" y1="86.05686" x2="38.63827" y2="86.28626" stroke="green" stroke-width="0.04000"/>
    <line x1="39.60199" y1="85.90589" x2="38.78412" y2="86.14041" stroke="green" stroke-width="0.04000"/>
    <line x1="39.76217" y1="85.75594" x2="38.92997" y2="85.99457" stroke="green" stroke-width="0.04000"/>
    <line x1="39.91358" y1="85.60848" x2="39.07582" y2="85.84871" stroke="green" stroke-width="0.04000"/>
    <line x1="40.06280" y1="85.46167" x2="39.22167" y2="85.70286" stroke="green" stroke-width="0.04000"/>
    <line x1="40.21632" y1="85.31362" x2="39.36752" y2="85.55701" stroke="green" stroke-width="0.04000"/>
    <line x1="40.37141" y1="85.16512" x2="39.51338" y2="85.41116" stroke="green" stroke-width="0.04000"/>
    <line x1="40.52968" y1="85.01570" x2="39.65923" y2="85.26530" stroke="green" stroke-width="0.04000"/>
    <line x1="40.68926" y1="84.86591" x2="39.80508" y2="85.11945" stroke="green" stroke-width="0.04000"/>
    <line x1="40.85425" y1="84.71458" x2="39.95094" y2="84.97359" stroke="green" stroke-width="0.04000"/>
    <line x1="41.03273" y1="84.55936" x2="40.09679" y2="84.82774" stroke="green" stroke-width="0.04000"/>
    <line x1="41.21107" y1="84.40420" x2="40.24264" y2="84.68189" stroke="green" stroke-width="0.04000"/>
    <line x1="41.39143" y1="84.24845" x2="40.38849" y2="84.53603" stroke="green" stroke-width="0.04000"/>
    <line x1="41.55453" y1="84.09766" x2="40.53434" y2="84.39019" stroke="green" stroke-width="0.04000"/>
    <line x1="41.65418" y1="83.96505" x2="40.68021" y2="84.24432" stroke="green" stroke-width="0.04000"/>
    <line x1="41.70580" y1="83.84621" x2="40.82605" y2="84.09848" stroke="green" stroke-width="0.04000"/>
    <line x1="41.73053" y1="83.73510" x2="40.97190" y2="83.95263" stroke="green" stroke-width="0.04000"/>
    <line x1="41.73417" y1="83.63002" x2="41.11775" y2="83.80678" stroke="green" stroke-width="0.04000"/>
    <line x1="41.72111" y1="83.52974" x2="41.17280" y2="83.68697" stroke="green" stroke-width="0.04000"/>
    <line x1="41.69293" y1="83.43378" x2="41.13042" y2="83.59509" stroke="green" stroke-width="0.04000"/>
    <line x1="41.64803" y1="83.34264" x2="41.16333" y2="83.48162" stroke="green" stroke-width="0.04000"/>
    <line x1="41.58866" y1="83.25562" x2="41.30919" y2="83.33576" stroke="green" stroke-width="0.04000"/>
    <line x1="41.53594" y1="83.16672" x2="41.45503" y2="83.18992" stroke="green" stroke-width="0.04000"/>
    <path d="M 41.5404 83.1741 L 41.6109 83.2932 L 41.6423 83.3307 L 41.6472 83.3411 L 41.6516 83.3493 L 41.6563 83.3566 L 41.6885 83.4224 L 41.704 83.4622 L 41.7062 83.4677 L 41.7191 83.5081 L 41.7194 83.509 L 41.7194 83.5091 L 41.7194 83.5091 L 41.7197 83.5243 L 41.724 83.5412 L 41.7256 83.5498 L 41.7296 83.567 L 41.7317 83.5913 L 41.7335 83.6109 L 41.7357 83.6727 L 41.7357 83.691 L 41.7342 83.7086 L 41.725 83.7753 L 41.7223 83.7907 L 41.7186 83.8052 L 41.6964 83.8762 L 41.6925 83.8875 L 41.6829 83.907 L 41.6475 83.9785 L 41.6401 83.9891 L 41.5893 84.0611 L 41.5859 84.0648 L 41.5755 84.0756 L 41.5696 84.0819 L 41.5213 84.1325 L 41.459 84.1879 L 41.3338 84.3001 L 41.2193 84.397 L 41.1409 84.465 L 41.141 84.465 L 41.1301 84.4744 L 41.1303 84.4746 L 41.1213 84.4825 L 41.1213 84.4824 L 41.0504 84.5444 L 41.0196 84.5705 L 40.9951 84.5911 L 40.9272 84.6498 L 40.9028 84.6715 L 40.8522 84.7164 L 40.7908 84.7722 L 40.7548 84.805 L 40.722 84.8354 L 40.6777 84.8767 L 40.6276 84.9233 L 40.521 85.0239 L 40.521 85.0239 L 40.47 85.0721 L 40.458 85.0814 L 40.3365 85.1989 L 40.3365 85.1989 L 40.3326 85.2026 L 40.2869 85.2463 L 40.2577 85.2742 L 40.1103 85.4146 L 39.981 85.5426 L 39.9764 85.5471 L 39.7806 85.7384 L 39.6221 85.889 L 39.5523 85.9475 L 39.2855 86.2033 L 38.8577 86.5926 L 38.7919 86.6534 L 38.6498 86.7814 L 38.2852 87.1086 L 38.138 87.2389 L 38.1277 87.2484 L 38.1166 87.2591 L 38.1077 87.2678 L 38.0941 87.2803 L 38.0869 87.2868 L 37.8448 87.5188 L 37.8141 87.5462 L 37.8076 87.5522 L 37.8023 87.5568 L 37.7728 87.5823 L 37.7703 87.5842 L 37.7389 87.6093 L 37.7379 87.6101 L 37.7379 87.6101 L 37.7081 87.6323 L 37.7058 87.6341 L 37.6783 87.6525 L 37.6738 87.6556 L 37.6485 87.6707 L 37.6419 87.6746 L 37.6189 87.6866 L 37.6106 87.6909 L 37.5899 87.7 L 37.5801 87.7043 L 37.5616 87.7107 L 37.5507 87.7146 L 37.5341 87.7188 L 37.5225 87.7218 L 37.5078 87.7239 L 37.4959 87.7257 L 37.483 87.7259 L 37.4715 87.7262 L 37.4483 87.7234 L 37.4275 87.7172 L 37.4095 87.7079 L 37.3981 87.6953 L 37.3965 87.6929 L 37.1954 87.5011 L 37.1954 87.5011 L 37.1855 87.4917 L 37.1697 87.4752 L 37.5204 87.1246 L 37.6559 86.989 L 37.9587 86.6862 L 37.9967 86.6912 L 38.0782 86.7007 L 38.1696 86.7118 L 38.2086 86.7159 L 38.4516 86.4729 L 38.6836 86.2409 L 39.4071 85.5174 L 39.4071 85.5174 L 39.4423 85.4822 L 39.5713 85.3532 L 39.5713 85.3532 L 39.7036 85.2209 L 39.7347 85.1898 L 39.7347 85.1898 L 39.8954 85.0291 L 39.9691 84.9554 L 40.0503 84.8742 L 40.0503 84.8742 L 40.1031 84.8215 L 40.2375 84.687 L 40.2552 84.6694 L 40.3871 84.5375 L 40.3871 84.5375 L 40.4094 84.5152 L 40.5392 84.3853 L 40.5822 84.3423 L 40.6827 84.2419 L 40.6974 84.2271 L 40.6974 84.2271 L 40.8644 84.0602 L 40.8644 84.0602 L 41.0798 83.8448 L 41.1496 83.7749 L 41.1596 83.7649 L 41.1932 83.7313 L 41.1151 83.5619 L 41.1043 83.5407 L 41.2887 83.3563 L 41.3962 83.2488 L 41.3962 83.2488 L 41.3989 83.2461 L 41.4485 83.1965 L 41.4595 83.1854 L 41.5141 83.1309 L 41.5404 83.1741" fill="none" stroke="blue" stroke-width="0.04000" fill-rule="evenodd" fill-opacity="1.000"/>
    <path d="M 41.5404 83.1741 L 41.6109 83.2932 L 41.6423 83.3307 L 41.6472 83.3411 L 41.6516 83.3493 L 41.6563 83.3566 L 41.6885 83.4224 L 41.704 83.4622 L 41.7062 83.4677 L 41.7191 83.5081 L 41.7194 83.509 L 41.7194 83.5091 L 41.7194 83.5091 L 41.7197 83.5243 L 41.724 83.5412 L 41.7256 83.5498 L 41.7296 83.567 L 41.7317 83.5913 L 41.7335 83.6109 L 41.7357 83.6727 L 41.7357 83.691 L 41.7342 83.7086 L 41.725 83.7753 L 41.7223 83.7907 L 41.7186 83.8052 L 41.6964 83.8762 L 41.6925 83.8875 L 41.6829 83.907 L 41.6475 83.9785 L 41.6401 83.9891 L 41.5893 84.0611 L 41.5859 84.0648 L 41.5755 84.0756 L 41.5696 84.0819 L 41.5213 84.1325 L 41.459 84.1879 L 41.3338 84.3001 L 41.2193 84.397 L 41.1409 84.465 L 41.141 84.465 L 41.1301 84.4744 L 41.1303 84.4746 L 41.1213 84.4825 L 41.1213 84.4824 L 41.0504 84.5444 L 41.0196 84.5705 L 40.9951 84.5911 L 40.9272 84.6498 L 40.9028 84.6715 L 40.8522 84.7164 L 40.7908 84.7722 L 40.7548 84.805 L 40.722 84.8354 L 40.6777 84.8767 L 40.6276 84.9233 L 40.521 85.0239 L 40.521 85.0239 L 40.47 85.0721 L 40.458 85.0814 L 40.3365 85.1989 L 40.3365 85.1989 L 40.3326 85.2026 L 40.2869 85.2463 L 40.2577 85.2742 L 40.1103 85.4146 L 39.981 85.5426 L 39.9764 85.5471 L 39.7806 85.7384 L 39.6221 85.889 L 39.5523 85.9475 L 39.2855 86.2033 L 38.8577 86.5926 L 38.7919 86.6534 L 38.6498 86.7814 L 38.2852 87.1086 L 38.138 87.2389 L 38.1277 87.2484 L 38.1166 87.2591 L 38.1077 87.2678 L 38.0941 87.2803 L 38.0869 87.2868 L 37.8448 87.5188 L 37.8141 87.5462 L 37.8076 87.5522 L 37.8023 87.5568 L 37.7728 87.5823 L 37.7703 87.5842 L 37.7389 87.6093 L 37.7379 87.6101 L 37.7379 87.6101 L 37.7081 87.6323 L 37.7058 87.6341 L 37.6783 87.6525 L 37.6738 87.6556 L 37.6485 87.6707 L 37.6419 87.6746 L 37.6189 87.6866 L 37.6106 87.6909 L 37.5899 87.7 L 37.5801 87.7043 L 37.5616 87.7107 L 37.5507 87.7146 L 37.5341 87.7188 L 37.5225 87.7218 L 37.5078 87.7239 L 37.4959 87.7257 L 37.483 87.7259 L 37.4715 87.7262 L 37.4483 87.7234 L 37.4275 87.7172 L 37.4095 87.7079 L 37.3981 87.6953 L 37.3965 87.6929 L 37.1954 87.5011 L 37.1954 87.5011 L 37.1855 87.4917 L 37.1697 87.4752 L 37.5204 87.1246 L 37.6559 86.989 L 37.9587 86.6862 L 37.9967 86.6912 L 38.0782 86.7007 L 38.1696 86.7118 L 38.2086 86.7159 L 38.4516 86.4729 L 38.6836 86.2409 L 39.4071 85.5174 L 39.4071 85.5174 L 39.4423 85.4822 L 39.5713 85.3532 L 39.5713 85.3532 L 39.7036 85.2209 L 39.7347 85.1898 L 39.7347 85.1898 L 39.8954 85.0291 L 39.9691 84.9554 L 40.0503 84.8742 L 40.0503 84.8742 L 40.1031 84.8215 L 40.2375 84.687 L 40.2552 84.6694 L 40.3871 84.5375 L 40.3871 84.5375 L 40.4094 84.5152 L 40.5392 84.3853 L 40.5822 84.3423 L 40.6827 84.2419 L 40.6974 84.2271 L 40.6974 84.2271 L 40.8644 84.0602 L 40.8644 84.0602 L 41.0798 83.8448 L 41.1496 83.7749 L 41.1596 83.7649 L 41.1932 83.7313 L 41.1151 83.5619 L 41.1043 83.5407 L 41.2887 83.3563 L 41.3962 83.2488 L 41.3962 83.2488 L 41.3989 83.2461 L 41.4485 83.1965 L 41.4595 83.1854 L 41.5141 83.1309 Z" fill="none" stroke="blue" stroke-width="0.05000" fill-rule="evenodd" fill-opacity="1.000"/>
  </g>
</svg>
