<?xml version="1.0" encoding="UTF-8" standalone="yes"?>
<svg xmlns="http://www.w3.org/2000/svg"
     xmlns:xlink="http://www.w3.org/1999/xlink"
     width="2020.0000mm" height="1600.0000mm"
     viewBox="0 0 202.000000 160.000000">
  <!--
    Build plate : 150.00 x 150.00 mm
    Coordinate  : 1 SVG unit = 1 mm
    Display zoom: 10x  (width/height = viewBox x 10)
    Hatch stroke: 0.04 mm = ~28 mm on screen at this zoom
    Legend panel: right margin (42 mm wide)
  -->
  <defs>
    <marker id="endArrow" markerWidth="2" markerHeight="1.4"
            refX="0" refY="0.7" orient="auto"
            markerUnits="strokeWidth">
      <polyline fill="darkblue" points="0,0 2,0.7 0,1.4 0.2,0.7"/>
    </marker>
  </defs>
  <!-- Background -->
  <rect x="0" y="0" width="202.000000" height="160.000000" fill="#f0f0f0" stroke="none"/>
  <!-- Build plate boundary (150 x 150 mm) -->
  <rect x="5.000000" y="5.000000" width="150.000000" height="150.000000"
        fill="#ffffff" stroke="#aaaaaa" stroke-width="0.2" stroke-dasharray="1,0.5"/>
  <!-- Build plate centre circle (r = 75.00 mm) -->
  <circle cx="80.000000" cy="80.000000" r="75.000000"
          fill="none" stroke="#bbbbbb" stroke-width="0.15" stroke-dasharray="0.8,0.4"/>
  <!-- Centre cross-hair -->
  <line x1="5.000000" y1="80.000000" x2="155.000000" y2="80.000000" stroke="#cccccc" stroke-width="0.1"/>
  <line x1="80.000000" y1="5.000000" x2="80.000000" y2="155.000000" stroke="#cccccc" stroke-width="0.1"/>
  <circle cx="80.000000" cy="80.000000" r="0.3" fill="#cccccc" stroke="none"/>
  <!-- Corner labels -->
  <text x="5.400000" y="4.600000" font-family="sans-serif" font-size="2" fill="#888888">0,0</text>
  <text x="154.600006" y="4.600000" font-family="sans-serif" font-size="2" fill="#888888" text-anchor="end">150,0</text>
  <text x="5.400000" y="157.199997" font-family="sans-serif" font-size="2" fill="#888888">0,150</text>
  <!-- Layer geometry -->
  <g id="geometry">
    <line x1="51.61805" y1="116.49720" x2="51.97484" y2="115.16565" stroke="green" stroke-width="0.04000"/>
    <line x1="51.53127" y1="116.43470" x2="51.89746" y2="115.06806" stroke="green" stroke-width="0.04000"/>
    <line x1="51.44449" y1="116.37221" x2="51.82008" y2="114.97048" stroke="green" stroke-width="0.04000"/>
    <line x1="51.76246" y1="116.34461" x2="52.05222" y2="115.26323" stroke="green" stroke-width="0.04000"/>
    <line x1="51.35770" y1="116.30972" x2="51.74270" y2="114.87290" stroke="green" stroke-width="0.04000"/>
    <line x1="51.27086" y1="116.24745" x2="51.66532" y2="114.77532" stroke="green" stroke-width="0.04000"/>
    <line x1="51.18401" y1="116.18520" x2="51.58794" y2="114.67773" stroke="green" stroke-width="0.04000"/>
    <line x1="51.92276" y1="116.13274" x2="52.12960" y2="115.36081" stroke="green" stroke-width="0.04000"/>
    <line x1="51.09717" y1="116.12293" x2="51.51071" y2="114.57959" stroke="green" stroke-width="0.04000"/>
    <line x1="51.01033" y1="116.06067" x2="51.43137" y2="114.48932" stroke="green" stroke-width="0.04000"/>
    <line x1="50.92348" y1="115.99841" x2="51.35203" y2="114.39905" stroke="green" stroke-width="0.04000"/>
    <line x1="50.83664" y1="115.93615" x2="51.27269" y2="114.30877" stroke="green" stroke-width="0.04000"/>
    <line x1="52.08306" y1="115.92086" x2="52.20698" y2="115.45839" stroke="green" stroke-width="0.04000"/>
    <line x1="50.74979" y1="115.87389" x2="51.19335" y2="114.21850" stroke="green" stroke-width="0.04000"/>
    <line x1="50.66293" y1="115.81170" x2="51.11401" y2="114.12823" stroke="green" stroke-width="0.04000"/>
    <line x1="50.57529" y1="115.75238" x2="51.03467" y2="114.03796" stroke="green" stroke-width="0.04000"/>
    <line x1="52.24246" y1="115.71236" x2="52.28436" y2="115.55597" stroke="green" stroke-width="0.04000"/>
    <line x1="50.48914" y1="115.68752" x2="50.95533" y2="113.94769" stroke="green" stroke-width="0.04000"/>
    <line x1="50.40544" y1="115.61356" x2="50.87600" y2="113.85741" stroke="green" stroke-width="0.04000"/>
    <line x1="50.32172" y1="115.53960" x2="50.79737" y2="113.76448" stroke="green" stroke-width="0.04000"/>
    <line x1="50.23801" y1="115.46564" x2="50.72013" y2="113.66637" stroke="green" stroke-width="0.04000"/>
    <line x1="50.15430" y1="115.39168" x2="50.64289" y2="113.56825" stroke="green" stroke-width="0.04000"/>
    <line x1="50.07059" y1="115.31772" x2="50.56565" y2="113.47015" stroke="green" stroke-width="0.04000"/>
    <line x1="49.98689" y1="115.24375" x2="50.48595" y2="113.38121" stroke="green" stroke-width="0.04000"/>
    <line x1="49.90318" y1="115.16979" x2="50.40615" y2="113.29266" stroke="green" stroke-width="0.04000"/>
    <line x1="49.81922" y1="115.09674" x2="50.32635" y2="113.20412" stroke="green" stroke-width="0.04000"/>
    <line x1="49.73256" y1="115.03379" x2="50.24655" y2="113.11557" stroke="green" stroke-width="0.04000"/>
    <line x1="49.64590" y1="114.97085" x2="50.16675" y2="113.02702" stroke="green" stroke-width="0.04000"/>
    <line x1="49.56435" y1="114.88884" x2="50.08841" y2="112.93300" stroke="green" stroke-width="0.04000"/>
    <line x1="49.48410" y1="114.80196" x2="50.01110" y2="112.83516" stroke="green" stroke-width="0.04000"/>
    <line x1="49.40385" y1="114.71509" x2="49.93379" y2="112.73731" stroke="green" stroke-width="0.04000"/>
    <line x1="49.32360" y1="114.62821" x2="49.85648" y2="112.63947" stroke="green" stroke-width="0.04000"/>
    <line x1="49.24335" y1="114.54134" x2="49.77917" y2="112.54163" stroke="green" stroke-width="0.04000"/>
    <line x1="49.16286" y1="114.45535" x2="49.70186" y2="112.44378" stroke="green" stroke-width="0.04000"/>
    <line x1="49.07931" y1="114.38081" x2="49.62366" y2="112.34924" stroke="green" stroke-width="0.04000"/>
    <line x1="48.99576" y1="114.30626" x2="49.54399" y2="112.26024" stroke="green" stroke-width="0.04000"/>
    <line x1="48.91220" y1="114.23170" x2="49.46619" y2="112.16419" stroke="green" stroke-width="0.04000"/>
    <line x1="48.82865" y1="114.15716" x2="49.38908" y2="112.06561" stroke="green" stroke-width="0.04000"/>
    <line x1="48.75394" y1="114.04963" x2="49.31197" y2="111.96703" stroke="green" stroke-width="0.04000"/>
    <line x1="48.68029" y1="113.93810" x2="49.23485" y2="111.86845" stroke="green" stroke-width="0.04000"/>
    <line x1="48.60665" y1="113.82658" x2="49.15774" y2="111.76987" stroke="green" stroke-width="0.04000"/>
    <line x1="48.53300" y1="113.71506" x2="49.08062" y2="111.67130" stroke="green" stroke-width="0.04000"/>
    <line x1="48.45583" y1="113.61671" x2="49.00348" y2="111.57283" stroke="green" stroke-width="0.04000"/>
    <line x1="48.37702" y1="113.52446" x2="48.92566" y2="111.47691" stroke="green" stroke-width="0.04000"/>
    <line x1="48.29821" y1="113.43221" x2="48.84783" y2="111.38099" stroke="green" stroke-width="0.04000"/>
    <line x1="48.21940" y1="113.33996" x2="48.77000" y2="111.28506" stroke="green" stroke-width="0.04000"/>
    <line x1="48.14939" y1="113.21485" x2="48.67195" y2="111.26466" stroke="green" stroke-width="0.04000"/>
    <line x1="48.09108" y1="113.04613" x2="48.56309" y2="111.28456" stroke="green" stroke-width="0.04000"/>
    <line x1="48.03276" y1="112.87741" x2="48.45422" y2="111.30447" stroke="green" stroke-width="0.04000"/>
    <line x1="47.97313" y1="112.71356" x2="48.34536" y2="111.32437" stroke="green" stroke-width="0.04000"/>
    <line x1="47.90597" y1="112.57785" x2="48.23650" y2="111.34428" stroke="green" stroke-width="0.04000"/>
    <line x1="47.83880" y1="112.44214" x2="48.12764" y2="111.36419" stroke="green" stroke-width="0.04000"/>
    <line x1="47.77966" y1="112.27649" x2="48.01878" y2="111.38409" stroke="green" stroke-width="0.04000"/>
    <line x1="47.72915" y1="112.07864" x2="47.90997" y2="111.40382" stroke="green" stroke-width="0.04000"/>
    <line x1="47.67864" y1="111.88078" x2="47.80493" y2="111.40946" stroke="green" stroke-width="0.04000"/>
    <line x1="47.62564" y1="111.69219" x2="47.69988" y2="111.41512" stroke="green" stroke-width="0.04000"/>
    <line x1="47.56981" y1="111.51419" x2="47.59484" y2="111.42077" stroke="green" stroke-width="0.04000"/>
    <path d="M 49.0066 111.577 L 49.5229 112.237 L 49.6535 112.383 L 50.1339 112.991 L 50.5625 113.466 L 50.8236 113.798 L 51.537 114.61 L 51.565 114.649 L 52.3102 115.589 L 52.3343 115.632 L 52.2375 115.717 L 51.6368 116.511 L 51.3796 116.326 L 51.3796 116.325 L 50.6652 115.813 L 50.5208 115.716 L 49.8264 115.102 L 49.6283 114.958 L 49.1689 114.461 L 48.8196 114.149 L 48.5097 113.68 L 48.1745 113.287 L 47.983 112.734 L 47.804 112.372 L 47.6517 111.775 L 47.5414 111.424 L 47.9114 111.404 L 48.7429 111.252 L 49.0066 111.577" fill="none" stroke="blue" stroke-width="0.04000" fill-rule="evenodd" fill-opacity="1.000"/>
  </g>
</svg>
