<?xml version="1.0" encoding="UTF-8" standalone="yes"?>
<svg xmlns="http://www.w3.org/2000/svg"
     xmlns:xlink="http://www.w3.org/1999/xlink"
     width="2020.0000mm" height="1600.0000mm"
     viewBox="0 0 202.000000 160.000000">
  <!--
    Build plate : 150.00 x 150.00 mm
    Coordinate  : 1 SVG unit = 1 mm
    Display zoom: 10x  (width/height = viewBox x 10)
    Hatch stroke: 0.04 mm = ~28 mm on screen at this zoom
    Legend panel: right margin (42 mm wide)
  -->
  <defs>
    <marker id="endArrow" markerWidth="2" markerHeight="1.4"
            refX="0" refY="0.7" orient="auto"
            markerUnits="strokeWidth">
      <polyline fill="darkblue" points="0,0 2,0.7 0,1.4 0.2,0.7"/>
    </marker>
  </defs>
  <!-- Background -->
  <rect x="0" y="0" width="202.000000" height="160.000000" fill="#f0f0f0" stroke="none"/>
  <!-- Build plate boundary (150 x 150 mm) -->
  <rect x="5.000000" y="5.000000" width="150.000000" height="150.000000"
        fill="#ffffff" stroke="#aaaaaa" stroke-width="0.2" stroke-dasharray="1,0.5"/>
  <!-- Build plate centre circle (r = 75.00 mm) -->
  <circle cx="80.000000" cy="80.000000" r="75.000000"
          fill="none" stroke="#bbbbbb" stroke-width="0.15" stroke-dasharray="0.8,0.4"/>
  <!-- Centre cross-hair -->
  <line x1="5.000000" y1="80.000000" x2="155.000000" y2="80.000000" stroke="#cccccc" stroke-width="0.1"/>
  <line x1="80.000000" y1="5.000000" x2="80.000000" y2="155.000000" stroke="#cccccc" stroke-width="0.1"/>
  <circle cx="80.000000" cy="80.000000" r="0.3" fill="#cccccc" stroke="none"/>
  <!-- Corner labels -->
  <text x="5.400000" y="4.600000" font-family="sans-serif" font-size="2" fill="#888888">0,0</text>
  <text x="154.600006" y="4.600000" font-family="sans-serif" font-size="2" fill="#888888" text-anchor="end">150,0</text>
  <text x="5.400000" y="157.199997" font-family="sans-serif" font-size="2" fill="#888888">0,150</text>
  <!-- Layer geometry -->
  <g id="geometry">
    <line x1="36.54121" y1="88.79132" x2="36.37426" y2="88.12172" stroke="green" stroke-width="0.04000"/>
    <line x1="36.64180" y1="88.78140" x2="36.45675" y2="88.03922" stroke="green" stroke-width="0.04000"/>
    <line x1="36.43545" y1="88.78048" x2="36.29177" y2="88.20422" stroke="green" stroke-width="0.04000"/>
    <line x1="36.73880" y1="88.75710" x2="36.53925" y2="87.95673" stroke="green" stroke-width="0.04000"/>
    <line x1="36.32030" y1="88.73202" x2="36.20927" y2="88.28671" stroke="green" stroke-width="0.04000"/>
    <line x1="36.83233" y1="88.71886" x2="36.62174" y2="87.87424" stroke="green" stroke-width="0.04000"/>
    <line x1="36.92268" y1="88.66789" x2="36.71171" y2="87.82171" stroke="green" stroke-width="0.04000"/>
    <line x1="37.00930" y1="88.60192" x2="36.82157" y2="87.84899" stroke="green" stroke-width="0.04000"/>
    <line x1="36.18417" y1="88.59936" x2="36.12678" y2="88.36919" stroke="green" stroke-width="0.04000"/>
    <line x1="37.09150" y1="88.51829" x2="36.92502" y2="87.85054" stroke="green" stroke-width="0.04000"/>
    <line x1="37.17186" y1="88.42722" x2="37.00751" y2="87.76804" stroke="green" stroke-width="0.04000"/>
    <line x1="37.25166" y1="88.33390" x2="37.09000" y2="87.68555" stroke="green" stroke-width="0.04000"/>
    <line x1="37.33213" y1="88.24331" x2="37.17250" y2="87.60306" stroke="green" stroke-width="0.04000"/>
    <line x1="37.41280" y1="88.15350" x2="37.25499" y2="87.52057" stroke="green" stroke-width="0.04000"/>
    <line x1="37.49347" y1="88.06371" x2="37.33748" y2="87.43807" stroke="green" stroke-width="0.04000"/>
    <line x1="37.57407" y1="87.97360" x2="37.41998" y2="87.35558" stroke="green" stroke-width="0.04000"/>
    <line x1="37.65536" y1="87.88631" x2="37.50247" y2="87.27308" stroke="green" stroke-width="0.04000"/>
    <line x1="37.73754" y1="87.80254" x2="37.58496" y2="87.19059" stroke="green" stroke-width="0.04000"/>
    <line x1="37.81972" y1="87.71877" x2="37.66746" y2="87.10810" stroke="green" stroke-width="0.04000"/>
    <line x1="37.90189" y1="87.63501" x2="37.74995" y2="87.02560" stroke="green" stroke-width="0.04000"/>
    <line x1="37.98407" y1="87.55124" x2="37.83244" y2="86.94311" stroke="green" stroke-width="0.04000"/>
    <line x1="38.06583" y1="87.46583" x2="37.91494" y2="86.86062" stroke="green" stroke-width="0.04000"/>
    <line x1="38.14711" y1="87.37845" x2="37.99743" y2="86.77812" stroke="green" stroke-width="0.04000"/>
    <line x1="38.22838" y1="87.29107" x2="38.07993" y2="86.69563" stroke="green" stroke-width="0.04000"/>
    <line x1="38.31045" y1="87.20687" x2="38.16242" y2="86.61314" stroke="green" stroke-width="0.04000"/>
    <line x1="38.39323" y1="87.12553" x2="38.24491" y2="86.53064" stroke="green" stroke-width="0.04000"/>
    <line x1="38.47601" y1="87.04420" x2="38.32740" y2="86.44815" stroke="green" stroke-width="0.04000"/>
    <line x1="38.55886" y1="86.96314" x2="38.40990" y2="86.36565" stroke="green" stroke-width="0.04000"/>
    <line x1="38.64191" y1="86.88285" x2="38.49239" y2="86.28316" stroke="green" stroke-width="0.04000"/>
    <line x1="38.72495" y1="86.80256" x2="38.57489" y2="86.20067" stroke="green" stroke-width="0.04000"/>
    <line x1="38.80799" y1="86.72227" x2="38.65738" y2="86.11817" stroke="green" stroke-width="0.04000"/>
    <line x1="38.89104" y1="86.64198" x2="38.73987" y2="86.03568" stroke="green" stroke-width="0.04000"/>
    <line x1="38.97408" y1="86.56168" x2="38.82236" y2="85.95319" stroke="green" stroke-width="0.04000"/>
    <line x1="39.05697" y1="86.48079" x2="38.90486" y2="85.87069" stroke="green" stroke-width="0.04000"/>
    <line x1="39.13974" y1="86.39939" x2="38.98735" y2="85.78820" stroke="green" stroke-width="0.04000"/>
    <line x1="39.22250" y1="86.31799" x2="39.06984" y2="85.70570" stroke="green" stroke-width="0.04000"/>
    <line x1="39.30542" y1="86.23718" x2="39.15234" y2="85.62321" stroke="green" stroke-width="0.04000"/>
    <line x1="39.38901" y1="86.15910" x2="39.23483" y2="85.54073" stroke="green" stroke-width="0.04000"/>
    <line x1="39.47199" y1="86.07856" x2="39.31733" y2="85.45824" stroke="green" stroke-width="0.04000"/>
    <line x1="39.55487" y1="85.99760" x2="39.39982" y2="85.37573" stroke="green" stroke-width="0.04000"/>
    <line x1="39.63747" y1="85.91553" x2="39.48231" y2="85.29324" stroke="green" stroke-width="0.04000"/>
    <line x1="39.72196" y1="85.84107" x2="39.56480" y2="85.21075" stroke="green" stroke-width="0.04000"/>
    <line x1="39.80566" y1="85.76342" x2="39.64730" y2="85.12826" stroke="green" stroke-width="0.04000"/>
    <line x1="39.88857" y1="85.68256" x2="39.72979" y2="85.04577" stroke="green" stroke-width="0.04000"/>
    <line x1="39.97147" y1="85.60170" x2="39.81229" y2="84.96327" stroke="green" stroke-width="0.04000"/>
    <line x1="40.05417" y1="85.52004" x2="39.89478" y2="84.88078" stroke="green" stroke-width="0.04000"/>
    <line x1="40.13803" y1="85.44304" x2="39.97728" y2="84.79828" stroke="green" stroke-width="0.04000"/>
    <line x1="40.22336" y1="85.37193" x2="40.05977" y2="84.71579" stroke="green" stroke-width="0.04000"/>
    <line x1="40.30797" y1="85.29790" x2="40.14226" y2="84.63329" stroke="green" stroke-width="0.04000"/>
    <line x1="40.39122" y1="85.21847" x2="40.22475" y2="84.55080" stroke="green" stroke-width="0.04000"/>
    <line x1="40.47766" y1="85.15179" x2="40.30725" y2="84.46832" stroke="green" stroke-width="0.04000"/>
    <line x1="40.56409" y1="85.08511" x2="40.38974" y2="84.38582" stroke="green" stroke-width="0.04000"/>
    <line x1="40.64772" y1="85.00714" x2="40.47223" y2="84.30331" stroke="green" stroke-width="0.04000"/>
    <line x1="40.73135" y1="84.92923" x2="40.55473" y2="84.22083" stroke="green" stroke-width="0.04000"/>
    <line x1="40.81557" y1="84.85365" x2="40.63722" y2="84.13834" stroke="green" stroke-width="0.04000"/>
    <line x1="40.90083" y1="84.78227" x2="40.71972" y2="84.05584" stroke="green" stroke-width="0.04000"/>
    <line x1="40.98862" y1="84.72102" x2="40.80221" y2="83.97334" stroke="green" stroke-width="0.04000"/>
    <line x1="41.07642" y1="84.65978" x2="40.88470" y2="83.89085" stroke="green" stroke-width="0.04000"/>
    <line x1="41.16296" y1="84.59351" x2="40.96719" y2="83.80836" stroke="green" stroke-width="0.04000"/>
    <line x1="41.24972" y1="84.52817" x2="41.04969" y2="83.72587" stroke="green" stroke-width="0.04000"/>
    <line x1="41.33650" y1="84.46284" x2="41.13218" y2="83.64337" stroke="green" stroke-width="0.04000"/>
    <line x1="41.42300" y1="84.39645" x2="41.21468" y2="83.56088" stroke="green" stroke-width="0.04000"/>
    <line x1="41.50926" y1="84.32903" x2="41.29717" y2="83.47839" stroke="green" stroke-width="0.04000"/>
    <line x1="41.59587" y1="84.26308" x2="41.37966" y2="83.39589" stroke="green" stroke-width="0.04000"/>
    <line x1="41.68077" y1="84.19022" x2="41.46215" y2="83.31340" stroke="green" stroke-width="0.04000"/>
    <line x1="41.76590" y1="84.11829" x2="41.48885" y2="83.00712" stroke="green" stroke-width="0.04000"/>
    <line x1="41.85064" y1="84.04482" x2="41.57135" y2="82.92463" stroke="green" stroke-width="0.04000"/>
    <line x1="41.93263" y1="83.96030" x2="41.65384" y2="82.84213" stroke="green" stroke-width="0.04000"/>
    <line x1="42.00959" y1="83.85560" x2="41.73633" y2="82.75964" stroke="green" stroke-width="0.04000"/>
    <line x1="42.07664" y1="83.71117" x2="41.85392" y2="82.81789" stroke="green" stroke-width="0.04000"/>
    <line x1="42.11510" y1="83.45207" x2="42.04456" y2="83.16914" stroke="green" stroke-width="0.04000"/>
    <path d="M 41.8027 82.7316 L 41.8242 82.7649 L 41.9224 82.9401 L 41.9274 82.9488 L 41.9274 82.9488 L 41.9655 83.0152 L 41.9843 83.0455 L 42.0139 83.0977 L 42.0255 83.1254 L 42.0368 83.1532 L 42.0752 83.2319 L 42.0883 83.2756 L 42.0933 83.2912 L 42.1027 83.3366 L 42.1062 83.3522 L 42.1118 83.3993 L 42.1138 83.4143 L 42.1155 83.4631 L 42.1161 83.477 L 42.1136 83.5275 L 42.1131 83.5397 L 42.1061 83.5917 L 42.1048 83.6019 L 42.0931 83.6554 L 42.0915 83.6631 L 42.0746 83.7179 L 42.0731 83.7228 L 42.0508 83.7786 L 42.05 83.7805 L 42.0337 83.8133 L 42.022 83.8361 L 42.0206 83.838 L 41.9865 83.8925 L 41.9519 83.9394 L 41.911 83.9838 L 41.8734 84.024 L 41.8532 84.0426 L 41.8172 84.0748 L 41.8134 84.0783 L 41.6938 84.1789 L 41.6025 84.2581 L 41.4891 84.3444 L 41.3866 84.4252 L 41.2834 84.5028 L 41.2834 84.5028 L 41.2559 84.5235 L 41.1358 84.614 L 41.1204 84.6257 L 41.1111 84.6328 L 41.1005 84.6411 L 41.0944 84.646 L 41.0905 84.6492 L 41.0898 84.6498 L 41.087 84.6522 L 41.0854 84.6535 L 40.8908 84.7893 L 40.8686 84.808 L 40.8553 84.8192 L 40.8184 84.8512 L 40.8051 84.8629 L 40.7776 84.8873 L 40.7442 84.9177 L 40.7423 84.9194 L 40.7421 84.9192 L 40.6827 84.9745 L 40.6555 84.9998 L 40.6179 85.0353 L 40.5698 85.0807 L 40.3855 85.2229 L 40.3416 85.2654 L 40.2817 85.3233 L 40.0999 85.4749 L 39.986 85.5875 L 39.9807 85.5927 L 39.7961 85.7727 L 39.7642 85.8039 L 39.6371 85.9159 L 39.5327 86.0196 L 39.3697 86.1779 L 39.2931 86.2485 L 39.0833 86.4549 L 39.0116 86.5254 L 38.5363 86.9849 L 38.4089 87.1101 L 38.3304 87.1872 L 38.3014 87.2157 L 38.2669 87.2497 L 38.0288 87.5057 L 37.6156 87.9269 L 37.5439 88.0076 L 37.2695 88.313 L 37.1297 88.4766 L 37.0874 88.5227 L 37.0451 88.5681 L 37.0315 88.5826 L 37.0173 88.595 L 37.0167 88.5955 L 37.0057 88.6051 L 36.9748 88.6311 L 36.9706 88.6343 L 36.9578 88.645 L 36.9334 88.6607 L 36.9232 88.6676 L 36.8837 88.6931 L 36.8661 88.7029 L 36.8371 88.7166 L 36.7843 88.7413 L 36.7543 88.7523 L 36.7237 88.7618 L 36.7098 88.7661 L 36.6717 88.7765 L 36.6652 88.7773 L 36.6213 88.785 L 36.6041 88.7874 L 36.595 88.7886 L 36.5483 88.7917 L 36.5417 88.7914 L 36.5413 88.7913 L 36.4913 88.7889 L 36.4806 88.7884 L 36.4803 88.7883 L 36.4776 88.7882 L 36.4284 88.7792 L 36.4226 88.7775 L 36.4225 88.7775 L 36.3758 88.7615 L 36.3687 88.7594 L 36.3271 88.7367 L 36.3222 88.7335 L 36.3221 88.7335 L 36.2867 88.7047 L 36.2823 88.7016 L 36.2399 88.6593 L 36.2344 88.6532 L 36.0453 88.4506 L 36.218 88.278 L 36.218 88.278 L 36.2998 88.1962 L 36.4109 88.0851 L 36.6456 87.8504 L 36.6817 87.8143 L 36.9057 87.8699 L 37.1691 87.6065 L 37.3815 87.3941 L 37.5548 87.2207 L 37.6986 87.077 L 37.979 86.7965 L 37.979 86.7965 L 38.184 86.5916 L 38.4429 86.3326 L 38.6433 86.1323 L 39.064 85.7115 L 39.064 85.7115 L 39.268 85.5075 L 39.2984 85.4772 L 39.4098 85.3658 L 39.4098 85.3658 L 39.524 85.2515 L 39.524 85.2515 L 39.5509 85.2247 L 39.6896 85.0859 L 39.7533 85.0223 L 39.8234 84.9521 L 39.869 84.9066 L 39.9578 84.8178 L 39.985 84.7905 L 39.985 84.7905 L 40.0003 84.7753 L 40.1142 84.6614 L 40.1142 84.6614 L 40.1334 84.6421 L 40.1334 84.6421 L 40.2456 84.53 L 40.2827 84.4928 L 40.2827 84.4928 L 40.3695 84.4061 L 40.3822 84.3934 L 40.3822 84.3934 L 40.5263 84.2492 L 40.5263 84.2492 L 40.7123 84.0632 L 40.7813 83.9943 L 40.9844 83.7912 L 40.9844 83.7912 L 41.0323 83.7433 L 41.0509 83.7247 L 41.3082 83.4674 L 41.3156 83.4599 L 41.3156 83.4599 L 41.5299 83.2457 L 41.5008 83.1935 L 41.4294 83.0666 L 41.497 82.999 L 41.5476 82.9484 L 41.5475 82.9484 L 41.5753 82.9207 L 41.6623 82.8337 L 41.6623 82.8337 L 41.789 82.707 L 41.8027 82.7316" fill="none" stroke="blue" stroke-width="0.04000" fill-rule="evenodd" fill-opacity="1.000"/>
    <path d="M 41.8027 82.7316 L 41.8242 82.7649 L 41.9224 82.9401 L 41.9274 82.9488 L 41.9274 82.9488 L 41.9655 83.0152 L 41.9843 83.0455 L 42.0139 83.0977 L 42.0255 83.1254 L 42.0368 83.1532 L 42.0752 83.2319 L 42.0883 83.2756 L 42.0933 83.2912 L 42.1027 83.3366 L 42.1062 83.3522 L 42.1118 83.3993 L 42.1138 83.4143 L 42.1155 83.4631 L 42.1161 83.477 L 42.1136 83.5275 L 42.1131 83.5397 L 42.1061 83.5917 L 42.1048 83.6019 L 42.0931 83.6554 L 42.0915 83.6631 L 42.0746 83.7179 L 42.0731 83.7228 L 42.0508 83.7786 L 42.05 83.7805 L 42.0337 83.8133 L 42.022 83.8361 L 42.0206 83.838 L 41.9865 83.8925 L 41.9519 83.9394 L 41.911 83.9838 L 41.8734 84.024 L 41.8532 84.0426 L 41.8172 84.0748 L 41.8134 84.0783 L 41.6938 84.1789 L 41.6025 84.2581 L 41.4891 84.3444 L 41.3866 84.4252 L 41.2834 84.5028 L 41.2834 84.5028 L 41.2559 84.5235 L 41.1358 84.614 L 41.1204 84.6257 L 41.1111 84.6328 L 41.1005 84.6411 L 41.0944 84.646 L 41.0905 84.6492 L 41.0898 84.6498 L 41.087 84.6522 L 41.0854 84.6535 L 40.8908 84.7893 L 40.8686 84.808 L 40.8553 84.8192 L 40.8184 84.8512 L 40.8051 84.8629 L 40.7776 84.8873 L 40.7442 84.9177 L 40.7423 84.9194 L 40.7421 84.9192 L 40.6827 84.9745 L 40.6555 84.9998 L 40.6179 85.0353 L 40.5698 85.0807 L 40.3855 85.2229 L 40.3416 85.2654 L 40.2817 85.3233 L 40.0999 85.4749 L 39.986 85.5875 L 39.9807 85.5927 L 39.7961 85.7727 L 39.7642 85.8039 L 39.6371 85.9159 L 39.5327 86.0196 L 39.3697 86.1779 L 39.2931 86.2485 L 39.0833 86.4549 L 39.0116 86.5254 L 38.5363 86.9849 L 38.4089 87.1101 L 38.3304 87.1872 L 38.3014 87.2157 L 38.2669 87.2497 L 38.0288 87.5057 L 37.6156 87.9269 L 37.5439 88.0076 L 37.2695 88.313 L 37.1297 88.4766 L 37.0874 88.5227 L 37.0451 88.5681 L 37.0315 88.5826 L 37.0173 88.595 L 37.0167 88.5955 L 37.0057 88.6051 L 36.9748 88.6311 L 36.9706 88.6343 L 36.9578 88.645 L 36.9334 88.6607 L 36.9232 88.6676 L 36.8837 88.6931 L 36.8661 88.7029 L 36.8371 88.7166 L 36.7843 88.7413 L 36.7543 88.7523 L 36.7237 88.7618 L 36.7098 88.7661 L 36.6717 88.7765 L 36.6652 88.7773 L 36.6213 88.785 L 36.6041 88.7874 L 36.595 88.7886 L 36.5483 88.7917 L 36.5417 88.7914 L 36.5413 88.7913 L 36.4913 88.7889 L 36.4806 88.7884 L 36.4803 88.7883 L 36.4776 88.7882 L 36.4284 88.7792 L 36.4226 88.7775 L 36.4225 88.7775 L 36.3758 88.7615 L 36.3687 88.7594 L 36.3271 88.7367 L 36.3222 88.7335 L 36.3221 88.7335 L 36.2867 88.7047 L 36.2823 88.7016 L 36.2399 88.6593 L 36.2344 88.6532 L 36.0453 88.4506 L 36.218 88.278 L 36.218 88.278 L 36.2998 88.1962 L 36.4109 88.0851 L 36.6456 87.8504 L 36.6817 87.8143 L 36.9057 87.8699 L 37.1691 87.6065 L 37.3815 87.3941 L 37.5548 87.2207 L 37.6986 87.077 L 37.979 86.7965 L 37.979 86.7965 L 38.184 86.5916 L 38.4429 86.3326 L 38.6433 86.1323 L 39.064 85.7115 L 39.064 85.7115 L 39.268 85.5075 L 39.2984 85.4772 L 39.4098 85.3658 L 39.4098 85.3658 L 39.524 85.2515 L 39.524 85.2515 L 39.5509 85.2247 L 39.6896 85.0859 L 39.7533 85.0223 L 39.8234 84.9521 L 39.869 84.9066 L 39.9578 84.8178 L 39.985 84.7905 L 39.985 84.7905 L 40.0003 84.7753 L 40.1142 84.6614 L 40.1142 84.6614 L 40.1334 84.6421 L 40.1334 84.6421 L 40.2456 84.53 L 40.2827 84.4928 L 40.2827 84.4928 L 40.3695 84.4061 L 40.3822 84.3934 L 40.3822 84.3934 L 40.5263 84.2492 L 40.5263 84.2492 L 40.7123 84.0632 L 40.7813 83.9943 L 40.9844 83.7912 L 40.9844 83.7912 L 41.0323 83.7433 L 41.0509 83.7247 L 41.3082 83.4674 L 41.3156 83.4599 L 41.3156 83.4599 L 41.5299 83.2457 L 41.5008 83.1935 L 41.4294 83.0666 L 41.497 82.999 L 41.5476 82.9484 L 41.5475 82.9484 L 41.5753 82.9207 L 41.6623 82.8337 L 41.6623 82.8337 L 41.789 82.707 Z" fill="none" stroke="blue" stroke-width="0.05000" fill-rule="evenodd" fill-opacity="1.000"/>
  </g>
</svg>
