<?xml version="1.0" encoding="UTF-8" standalone="yes"?>
<svg xmlns="http://www.w3.org/2000/svg"
     xmlns:xlink="http://www.w3.org/1999/xlink"
     width="2020.0000mm" height="1600.0000mm"
     viewBox="0 0 202.000000 160.000000">
  <!--
    Build plate : 150.00 x 150.00 mm
    Coordinate  : 1 SVG unit = 1 mm
    Display zoom: 10x  (width/height = viewBox x 10)
    Hatch stroke: 0.04 mm = ~28 mm on screen at this zoom
    Legend panel: right margin (42 mm wide)
  -->
  <defs>
    <marker id="endArrow" markerWidth="2" markerHeight="1.4"
            refX="0" refY="0.7" orient="auto"
            markerUnits="strokeWidth">
      <polyline fill="darkblue" points="0,0 2,0.7 0,1.4 0.2,0.7"/>
    </marker>
  </defs>
  <!-- Background -->
  <rect x="0" y="0" width="202.000000" height="160.000000" fill="#f0f0f0" stroke="none"/>
  <!-- Build plate boundary (150 x 150 mm) -->
  <rect x="5.000000" y="5.000000" width="150.000000" height="150.000000"
        fill="#ffffff" stroke="#aaaaaa" stroke-width="0.2" stroke-dasharray="1,0.5"/>
  <!-- Build plate centre circle (r = 75.00 mm) -->
  <circle cx="80.000000" cy="80.000000" r="75.000000"
          fill="none" stroke="#bbbbbb" stroke-width="0.15" stroke-dasharray="0.8,0.4"/>
  <!-- Centre cross-hair -->
  <line x1="5.000000" y1="80.000000" x2="155.000000" y2="80.000000" stroke="#cccccc" stroke-width="0.1"/>
  <line x1="80.000000" y1="5.000000" x2="80.000000" y2="155.000000" stroke="#cccccc" stroke-width="0.1"/>
  <circle cx="80.000000" cy="80.000000" r="0.3" fill="#cccccc" stroke="none"/>
  <!-- Corner labels -->
  <text x="5.400000" y="4.600000" font-family="sans-serif" font-size="2" fill="#888888">0,0</text>
  <text x="154.600006" y="4.600000" font-family="sans-serif" font-size="2" fill="#888888" text-anchor="end">150,0</text>
  <text x="5.400000" y="157.199997" font-family="sans-serif" font-size="2" fill="#888888">0,150</text>
  <!-- Layer geometry -->
  <g id="geometry">
    <line x1="31.34366" y1="113.57077" x2="34.95602" y2="127.05228" stroke="green" stroke-width="0.04000"/>
    <line x1="31.28874" y1="113.75220" x2="34.84340" y2="127.01833" stroke="green" stroke-width="0.04000"/>
    <line x1="31.40877" y1="113.42741" x2="35.04715" y2="127.00603" stroke="green" stroke-width="0.04000"/>
    <line x1="31.48746" y1="113.33469" x2="35.13829" y2="126.95978" stroke="green" stroke-width="0.04000"/>
    <line x1="31.56614" y1="113.24197" x2="35.22942" y2="126.91352" stroke="green" stroke-width="0.04000"/>
    <line x1="31.22924" y1="113.91650" x2="34.70480" y2="126.88747" stroke="green" stroke-width="0.04000"/>
    <line x1="31.64482" y1="113.14925" x2="35.32056" y2="126.86727" stroke="green" stroke-width="0.04000"/>
    <line x1="31.72351" y1="113.05654" x2="35.41169" y2="126.82102" stroke="green" stroke-width="0.04000"/>
    <line x1="31.80095" y1="112.95919" x2="35.50282" y2="126.77477" stroke="green" stroke-width="0.04000"/>
    <line x1="31.16429" y1="114.06046" x2="34.56621" y2="126.75661" stroke="green" stroke-width="0.04000"/>
    <line x1="31.87787" y1="112.85988" x2="35.59396" y2="126.72852" stroke="green" stroke-width="0.04000"/>
    <line x1="31.95479" y1="112.76057" x2="35.67011" y2="126.62634" stroke="green" stroke-width="0.04000"/>
    <line x1="31.09934" y1="114.20443" x2="34.42762" y2="126.62576" stroke="green" stroke-width="0.04000"/>
    <line x1="31.03438" y1="114.34839" x2="34.29360" y2="126.51196" stroke="green" stroke-width="0.04000"/>
    <line x1="30.96943" y1="114.49236" x2="34.14870" y2="126.35753" stroke="green" stroke-width="0.04000"/>
    <line x1="32.03289" y1="112.66570" x2="35.69918" y2="126.34845" stroke="green" stroke-width="0.04000"/>
    <line x1="32.12391" y1="112.61900" x2="35.72150" y2="126.04539" stroke="green" stroke-width="0.04000"/>
    <line x1="32.21492" y1="112.57228" x2="35.74382" y2="125.74233" stroke="green" stroke-width="0.04000"/>
    <line x1="30.90448" y1="114.63631" x2="33.82858" y2="125.54920" stroke="green" stroke-width="0.04000"/>
    <line x1="32.30593" y1="112.52557" x2="35.76896" y2="125.44979" stroke="green" stroke-width="0.04000"/>
    <line x1="32.39694" y1="112.47887" x2="35.77461" y2="125.08451" stroke="green" stroke-width="0.04000"/>
    <line x1="32.48795" y1="112.43216" x2="35.75368" y2="124.62001" stroke="green" stroke-width="0.04000"/>
    <line x1="30.85436" y1="114.83566" x2="33.42014" y2="124.41125" stroke="green" stroke-width="0.04000"/>
    <line x1="32.57896" y1="112.38544" x2="35.76008" y2="124.25752" stroke="green" stroke-width="0.04000"/>
    <line x1="32.67027" y1="112.33981" x2="35.77037" y2="123.90957" stroke="green" stroke-width="0.04000"/>
    <line x1="32.76214" y1="112.29631" x2="35.76436" y2="123.50076" stroke="green" stroke-width="0.04000"/>
    <line x1="30.80896" y1="115.05260" x2="33.00822" y2="123.26036" stroke="green" stroke-width="0.04000"/>
    <line x1="32.86584" y1="112.29699" x2="35.76817" y2="123.12862" stroke="green" stroke-width="0.04000"/>
    <line x1="32.97794" y1="112.32896" x2="35.76651" y2="122.73604" stroke="green" stroke-width="0.04000"/>
    <line x1="33.09075" y1="112.36359" x2="35.78007" y2="122.40026" stroke="green" stroke-width="0.04000"/>
    <line x1="33.20396" y1="112.39972" x2="35.78060" y2="122.01588" stroke="green" stroke-width="0.04000"/>
    <line x1="33.31717" y1="112.43585" x2="35.77797" y2="121.61969" stroke="green" stroke-width="0.04000"/>
    <line x1="33.43037" y1="112.47198" x2="35.80158" y2="121.32145" stroke="green" stroke-width="0.04000"/>
    <line x1="33.54359" y1="112.50812" x2="35.82224" y2="121.01216" stroke="green" stroke-width="0.04000"/>
    <line x1="33.66462" y1="112.57347" x2="35.81107" y2="120.58414" stroke="green" stroke-width="0.04000"/>
    <line x1="30.76392" y1="115.27086" x2="32.17096" y2="120.52201" stroke="green" stroke-width="0.04000"/>
    <line x1="33.83075" y1="112.80710" x2="35.82552" y2="120.25169" stroke="green" stroke-width="0.04000"/>
    <line x1="33.99676" y1="113.04029" x2="35.81529" y2="119.82713" stroke="green" stroke-width="0.04000"/>
    <line x1="30.71988" y1="115.49286" x2="31.81834" y2="119.59237" stroke="green" stroke-width="0.04000"/>
    <line x1="34.16233" y1="113.27182" x2="35.78523" y2="119.32858" stroke="green" stroke-width="0.04000"/>
    <line x1="30.67583" y1="115.71486" x2="31.63823" y2="119.30656" stroke="green" stroke-width="0.04000"/>
    <line x1="30.63090" y1="115.93352" x2="31.44105" y2="118.95706" stroke="green" stroke-width="0.04000"/>
    <line x1="34.32789" y1="113.50334" x2="35.73644" y2="118.76011" stroke="green" stroke-width="0.04000"/>
    <line x1="30.57700" y1="116.11877" x2="31.24493" y2="118.61150" stroke="green" stroke-width="0.04000"/>
    <line x1="30.55759" y1="116.43267" x2="31.05009" y2="118.27070" stroke="green" stroke-width="0.04000"/>
    <line x1="34.56903" y1="114.01692" x2="35.68094" y2="118.16662" stroke="green" stroke-width="0.04000"/>
    <line x1="30.60333" y1="116.98976" x2="30.86407" y2="117.96284" stroke="green" stroke-width="0.04000"/>
    <line x1="30.66635" y1="117.61131" x2="30.68153" y2="117.66796" stroke="green" stroke-width="0.04000"/>
    <line x1="34.89629" y1="114.85188" x2="35.54102" y2="117.25804" stroke="green" stroke-width="0.04000"/>
    <line x1="50.73103" y1="110.57465" x2="51.42787" y2="113.17531" stroke="green" stroke-width="0.04000"/>
    <line x1="50.84846" y1="110.62656" x2="51.52972" y2="113.16904" stroke="green" stroke-width="0.04000"/>
    <line x1="50.61359" y1="110.52274" x2="51.31784" y2="113.15104" stroke="green" stroke-width="0.04000"/>
    <line x1="50.49615" y1="110.47083" x2="51.20781" y2="113.12677" stroke="green" stroke-width="0.04000"/>
    <line x1="50.96590" y1="110.67847" x2="51.61864" y2="113.11453" stroke="green" stroke-width="0.04000"/>
    <line x1="50.37872" y1="110.41891" x2="51.09778" y2="113.10249" stroke="green" stroke-width="0.04000"/>
    <line x1="50.26128" y1="110.36700" x2="50.98775" y2="113.07822" stroke="green" stroke-width="0.04000"/>
    <line x1="51.08566" y1="110.73904" x2="51.70756" y2="113.06002" stroke="green" stroke-width="0.04000"/>
    <line x1="50.14384" y1="110.31510" x2="50.87772" y2="113.05396" stroke="green" stroke-width="0.04000"/>
    <line x1="50.02641" y1="110.26319" x2="50.76769" y2="113.02969" stroke="green" stroke-width="0.04000"/>
    <line x1="49.91067" y1="110.21763" x2="50.65766" y2="113.00542" stroke="green" stroke-width="0.04000"/>
    <line x1="51.20593" y1="110.80153" x2="51.79628" y2="113.00475" stroke="green" stroke-width="0.04000"/>
    <line x1="49.79588" y1="110.17561" x2="50.55175" y2="112.99655" stroke="green" stroke-width="0.04000"/>
    <line x1="49.68110" y1="110.13359" x2="50.44681" y2="112.99127" stroke="green" stroke-width="0.04000"/>
    <line x1="49.56631" y1="110.09158" x2="50.34187" y2="112.98599" stroke="green" stroke-width="0.04000"/>
    <line x1="49.45153" y1="110.04956" x2="50.23574" y2="112.97627" stroke="green" stroke-width="0.04000"/>
    <line x1="49.33674" y1="110.00754" x2="50.12694" y2="112.95660" stroke="green" stroke-width="0.04000"/>
    <line x1="51.32620" y1="110.86401" x2="51.88444" y2="112.94740" stroke="green" stroke-width="0.04000"/>
    <line x1="49.22195" y1="109.96552" x2="50.01814" y2="112.93694" stroke="green" stroke-width="0.04000"/>
    <line x1="49.10717" y1="109.92351" x2="49.90935" y2="112.91727" stroke="green" stroke-width="0.04000"/>
    <line x1="48.99238" y1="109.88148" x2="49.80054" y2="112.89761" stroke="green" stroke-width="0.04000"/>
    <line x1="51.44647" y1="110.92650" x2="51.97260" y2="112.89004" stroke="green" stroke-width="0.04000"/>
    <line x1="48.87759" y1="109.83947" x2="49.69255" y2="112.88094" stroke="green" stroke-width="0.04000"/>
    <line x1="48.76130" y1="109.79182" x2="49.58474" y2="112.86494" stroke="green" stroke-width="0.04000"/>
    <line x1="48.64518" y1="109.74482" x2="49.47692" y2="112.84893" stroke="green" stroke-width="0.04000"/>
    <line x1="48.53074" y1="109.70410" x2="49.36946" y2="112.83423" stroke="green" stroke-width="0.04000"/>
    <line x1="51.68812" y1="111.44196" x2="52.06076" y2="112.83268" stroke="green" stroke-width="0.04000"/>
    <line x1="48.41630" y1="109.66338" x2="49.26399" y2="112.82700" stroke="green" stroke-width="0.04000"/>
    <line x1="48.30186" y1="109.62266" x2="49.15852" y2="112.81976" stroke="green" stroke-width="0.04000"/>
    <line x1="48.18742" y1="109.58194" x2="49.05306" y2="112.81252" stroke="green" stroke-width="0.04000"/>
    <line x1="48.07299" y1="109.54122" x2="48.94759" y2="112.80529" stroke="green" stroke-width="0.04000"/>
    <line x1="47.95855" y1="109.50050" x2="48.84212" y2="112.79805" stroke="green" stroke-width="0.04000"/>
    <line x1="47.84411" y1="109.45979" x2="48.73666" y2="112.79082" stroke="green" stroke-width="0.04000"/>
    <line x1="47.72967" y1="109.41906" x2="48.63067" y2="112.78162" stroke="green" stroke-width="0.04000"/>
    <line x1="51.94324" y1="112.00774" x2="52.14891" y2="112.77532" stroke="green" stroke-width="0.04000"/>
    <line x1="47.61154" y1="109.36456" x2="48.52458" y2="112.77206" stroke="green" stroke-width="0.04000"/>
    <line x1="47.49514" y1="109.31653" x2="48.41849" y2="112.76251" stroke="green" stroke-width="0.04000"/>
    <line x1="47.37957" y1="109.27157" x2="48.31240" y2="112.75296" stroke="green" stroke-width="0.04000"/>
    <line x1="47.26399" y1="109.22661" x2="48.20631" y2="112.74340" stroke="green" stroke-width="0.04000"/>
    <line x1="47.14842" y1="109.18165" x2="48.10099" y2="112.73668" stroke="green" stroke-width="0.04000"/>
    <line x1="47.03284" y1="109.13669" x2="47.99648" y2="112.73301" stroke="green" stroke-width="0.04000"/>
    <line x1="46.91727" y1="109.09173" x2="47.89196" y2="112.72934" stroke="green" stroke-width="0.04000"/>
    <line x1="46.80170" y1="109.04677" x2="47.78674" y2="112.72301" stroke="green" stroke-width="0.04000"/>
    <line x1="52.18241" y1="112.51397" x2="52.23708" y2="112.71796" stroke="green" stroke-width="0.04000"/>
    <line x1="46.68526" y1="108.99861" x2="47.68022" y2="112.71185" stroke="green" stroke-width="0.04000"/>
    <line x1="46.56624" y1="108.94080" x2="47.57371" y2="112.70070" stroke="green" stroke-width="0.04000"/>
    <line x1="46.44796" y1="108.88571" x2="47.46719" y2="112.68955" stroke="green" stroke-width="0.04000"/>
    <line x1="46.33010" y1="108.83226" x2="47.36068" y2="112.67840" stroke="green" stroke-width="0.04000"/>
    <line x1="46.21226" y1="108.77881" x2="47.25416" y2="112.66725" stroke="green" stroke-width="0.04000"/>
    <line x1="46.09441" y1="108.72536" x2="47.14764" y2="112.65610" stroke="green" stroke-width="0.04000"/>
    <line x1="45.97656" y1="108.67191" x2="47.04184" y2="112.64758" stroke="green" stroke-width="0.04000"/>
    <line x1="45.85871" y1="108.61846" x2="46.93615" y2="112.63952" stroke="green" stroke-width="0.04000"/>
    <line x1="45.74086" y1="108.56502" x2="46.83046" y2="112.63146" stroke="green" stroke-width="0.04000"/>
    <line x1="45.61584" y1="108.48479" x2="46.72437" y2="112.62188" stroke="green" stroke-width="0.04000"/>
    <line x1="45.49308" y1="108.41302" x2="46.61585" y2="112.60326" stroke="green" stroke-width="0.04000"/>
    <line x1="45.37194" y1="108.34729" x2="46.50733" y2="112.58463" stroke="green" stroke-width="0.04000"/>
    <line x1="45.25181" y1="108.28534" x2="46.39881" y2="112.56600" stroke="green" stroke-width="0.04000"/>
    <line x1="45.13169" y1="108.22340" x2="46.29029" y2="112.54738" stroke="green" stroke-width="0.04000"/>
    <line x1="45.01156" y1="108.16145" x2="46.18177" y2="112.52876" stroke="green" stroke-width="0.04000"/>
    <line x1="44.89143" y1="108.09951" x2="46.07335" y2="112.51047" stroke="green" stroke-width="0.04000"/>
    <line x1="44.77131" y1="108.03756" x2="45.96507" y2="112.49274" stroke="green" stroke-width="0.04000"/>
    <line x1="44.64755" y1="107.96206" x2="45.85680" y2="112.47502" stroke="green" stroke-width="0.04000"/>
    <line x1="44.51353" y1="107.84828" x2="45.74852" y2="112.45730" stroke="green" stroke-width="0.04000"/>
    <line x1="44.37952" y1="107.73450" x2="45.64024" y2="112.43958" stroke="green" stroke-width="0.04000"/>
    <line x1="44.24551" y1="107.62074" x2="45.53197" y2="112.42186" stroke="green" stroke-width="0.04000"/>
    <line x1="44.12083" y1="107.54182" x2="45.42226" y2="112.39879" stroke="green" stroke-width="0.04000"/>
    <line x1="43.99734" y1="107.46732" x2="45.31177" y2="112.37282" stroke="green" stroke-width="0.04000"/>
    <line x1="43.86602" y1="107.36359" x2="45.20128" y2="112.34686" stroke="green" stroke-width="0.04000"/>
    <line x1="43.71016" y1="107.16826" x2="45.08824" y2="112.31133" stroke="green" stroke-width="0.04000"/>
    <line x1="43.55430" y1="106.97294" x2="44.97467" y2="112.27384" stroke="green" stroke-width="0.04000"/>
    <line x1="43.41283" y1="106.83136" x2="44.86110" y2="112.23636" stroke="green" stroke-width="0.04000"/>
    <line x1="43.27496" y1="106.70319" x2="44.74775" y2="112.19972" stroke="green" stroke-width="0.04000"/>
    <line x1="43.13708" y1="106.57501" x2="44.63441" y2="112.16310" stroke="green" stroke-width="0.04000"/>
    <line x1="42.99852" y1="106.44423" x2="44.52107" y2="112.12649" stroke="green" stroke-width="0.04000"/>
    <line x1="42.85815" y1="106.30676" x2="44.40773" y2="112.08987" stroke="green" stroke-width="0.04000"/>
    <line x1="42.72676" y1="106.20276" x2="44.29328" y2="112.04908" stroke="green" stroke-width="0.04000"/>
    <line x1="42.59657" y1="106.10326" x2="44.17547" y2="111.99577" stroke="green" stroke-width="0.04000"/>
    <line x1="42.48108" y1="106.05861" x2="44.05766" y2="111.94247" stroke="green" stroke-width="0.04000"/>
    <line x1="42.36559" y1="106.01395" x2="43.93984" y2="111.88915" stroke="green" stroke-width="0.04000"/>
    <line x1="42.25009" y1="105.96929" x2="43.82189" y2="111.83532" stroke="green" stroke-width="0.04000"/>
    <line x1="42.13460" y1="105.92464" x2="43.69615" y2="111.75242" stroke="green" stroke-width="0.04000"/>
    <line x1="42.02090" y1="105.88667" x2="43.57041" y2="111.66952" stroke="green" stroke-width="0.04000"/>
    <line x1="41.91023" y1="105.86002" x2="43.44502" y2="111.58793" stroke="green" stroke-width="0.04000"/>
    <line x1="41.79957" y1="105.83338" x2="43.31985" y2="111.50718" stroke="green" stroke-width="0.04000"/>
    <line x1="41.68890" y1="105.80674" x2="43.19472" y2="111.42653" stroke="green" stroke-width="0.04000"/>
    <line x1="41.57823" y1="105.78010" x2="43.07013" y2="111.34793" stroke="green" stroke-width="0.04000"/>
    <line x1="41.46757" y1="105.75346" x2="42.94554" y2="111.26933" stroke="green" stroke-width="0.04000"/>
    <line x1="41.35690" y1="105.72681" x2="42.82095" y2="111.19073" stroke="green" stroke-width="0.04000"/>
    <line x1="41.24623" y1="105.70017" x2="42.69637" y2="111.11213" stroke="green" stroke-width="0.04000"/>
    <line x1="41.13412" y1="105.66814" x2="42.57216" y2="111.03496" stroke="green" stroke-width="0.04000"/>
    <line x1="41.02278" y1="105.63899" x2="42.44803" y2="110.95808" stroke="green" stroke-width="0.04000"/>
    <line x1="40.92077" y1="105.64465" x2="42.32390" y2="110.88120" stroke="green" stroke-width="0.04000"/>
    <line x1="40.82287" y1="105.66564" x2="42.19978" y2="110.80433" stroke="green" stroke-width="0.04000"/>
    <line x1="40.72497" y1="105.68663" x2="42.07252" y2="110.71577" stroke="green" stroke-width="0.04000"/>
    <line x1="40.62707" y1="105.70763" x2="41.94419" y2="110.62321" stroke="green" stroke-width="0.04000"/>
    <line x1="40.52916" y1="105.72861" x2="41.81508" y2="110.52772" stroke="green" stroke-width="0.04000"/>
    <line x1="40.43126" y1="105.74961" x2="41.68358" y2="110.42333" stroke="green" stroke-width="0.04000"/>
    <line x1="40.33336" y1="105.77061" x2="41.55327" y2="110.32338" stroke="green" stroke-width="0.04000"/>
    <line x1="40.23545" y1="105.79160" x2="41.42377" y2="110.22647" stroke="green" stroke-width="0.04000"/>
    <line x1="40.13755" y1="105.81259" x2="41.29428" y2="110.12957" stroke="green" stroke-width="0.04000"/>
    <line x1="40.04630" y1="105.85838" x2="41.16479" y2="110.03266" stroke="green" stroke-width="0.04000"/>
    <line x1="39.96130" y1="105.92755" x2="41.03530" y2="109.93575" stroke="green" stroke-width="0.04000"/>
    <line x1="39.87631" y1="105.99673" x2="40.89112" y2="109.78407" stroke="green" stroke-width="0.04000"/>
    <line x1="39.79131" y1="106.06590" x2="40.74778" y2="109.63546" stroke="green" stroke-width="0.04000"/>
    <line x1="39.70632" y1="106.13507" x2="40.61021" y2="109.50844" stroke="green" stroke-width="0.04000"/>
    <line x1="39.62133" y1="106.20424" x2="40.47265" y2="109.38142" stroke="green" stroke-width="0.04000"/>
    <line x1="39.53633" y1="106.27341" x2="40.33509" y2="109.25440" stroke="green" stroke-width="0.04000"/>
    <line x1="39.45623" y1="106.36082" x2="40.18727" y2="109.08912" stroke="green" stroke-width="0.04000"/>
    <line x1="39.39848" y1="106.53168" x2="40.03419" y2="108.90417" stroke="green" stroke-width="0.04000"/>
    <line x1="39.34074" y1="106.70254" x2="39.88146" y2="108.72056" stroke="green" stroke-width="0.04000"/>
    <line x1="39.28299" y1="106.87338" x2="39.71860" y2="108.49912" stroke="green" stroke-width="0.04000"/>
    <line x1="39.23079" y1="107.06496" x2="39.47982" y2="107.99435" stroke="green" stroke-width="0.04000"/>
    <path d="M 33.0184 112.341 L 33.64 112.539 L 33.9628 112.993 L 34.3811 113.578 L 34.4641 113.776 L 34.5743 114.029 L 34.8009 114.608 L 34.8009 114.608 L 35.0082 115.138 L 35.1358 115.564 L 35.2572 116.019 L 35.2572 116.019 L 35.3895 116.524 L 35.5032 116.983 L 35.555 117.359 L 35.6848 118.191 L 35.6873 118.316 L 35.7827 119.178 L 35.7845 119.316 L 35.832 120.105 L 35.811 120.58 L 35.8232 121.049 L 35.778 121.619 L 35.7828 122.346 L 35.7662 122.674 L 35.7687 123.242 L 35.7623 123.623 L 35.7727 123.832 L 35.7511 124.562 L 35.7839 125.291 L 35.7524 125.626 L 35.6797 126.613 L 35.5972 126.727 L 34.9062 127.078 L 34.3516 126.554 L 34.1758 126.427 L 34.0258 126.045 L 33.8055 125.491 L 33.6944 125.188 L 33.4791 124.566 L 33.2792 124.041 L 33.1189 123.549 L 32.9153 123.018 L 32.7779 122.562 L 32.5471 121.85 L 32.4571 121.526 L 32.2044 120.619 L 32.2032 120.613 L 32.1966 120.592 L 31.8437 119.631 L 31.6747 119.371 L 31.333 118.766 L 30.9681 118.127 L 30.824 117.899 L 30.6702 117.65 L 30.5957 116.914 L 30.5422 116.238 L 30.6358 115.917 L 30.7755 115.213 L 30.8539 114.838 L 30.8886 114.671 L 31.2589 113.851 L 31.375 113.467 L 31.7468 113.029 L 32.0252 112.67 L 32.6394 112.354 L 32.8002 112.278 L 33.0184 112.341" fill="none" stroke="blue" stroke-width="0.04000" fill-rule="evenodd" fill-opacity="1.000"/>
    <path d="M 41.0701 105.65 L 41.2458 105.7 L 42.062 105.897 L 42.6015 106.105 L 42.85 106.299 L 43.0379 106.483 L 43.5232 106.934 L 43.9037 107.411 L 44.2305 107.608 L 44.6826 107.992 L 45.4303 108.377 L 45.5908 108.468 L 45.7349 108.562 L 46.5218 108.919 L 46.7149 109.013 L 47.5851 109.352 L 47.7025 109.409 L 48.6695 109.753 L 48.8595 109.833 L 49.9482 110.231 L 49.9818 110.244 L 50.0129 110.257 L 50.0129 110.257 L 50.9871 110.688 L 51.4822 110.945 L 51.6752 111.414 L 51.9104 111.917 L 52.0755 112.371 L 52.3031 112.675 L 51.7729 113.02 L 51.4953 113.19 L 50.6369 113.001 L 50.2693 112.982 L 49.7812 112.894 L 49.3852 112.835 L 48.7203 112.79 L 48.1512 112.738 L 47.8247 112.727 L 47.1317 112.654 L 46.7401 112.625 L 46.1147 112.517 L 45.4938 112.416 L 45.1824 112.342 L 44.8585 112.236 L 44.3227 112.062 L 43.8241 111.837 L 43.5214 111.637 L 43.2009 111.43 L 42.6749 111.099 L 42.1681 110.785 L 41.8477 110.554 L 41.63 110.381 L 41.0165 109.922 L 40.7978 109.682 L 40.2557 109.181 L 40.1809 109.081 L 39.7397 108.55 L 39.5826 108.17 L 39.3336 107.744 L 39.2175 107.16 L 39.2396 107.002 L 39.4666 106.33 L 40.0877 105.825 L 40.0895 105.823 L 40.1065 105.819 L 40.9862 105.631 L 41.0701 105.65" fill="none" stroke="blue" stroke-width="0.04000" fill-rule="evenodd" fill-opacity="1.000"/>
  </g>
</svg>
