<?xml version="1.0" encoding="UTF-8" standalone="yes"?>
<svg xmlns="http://www.w3.org/2000/svg"
     xmlns:xlink="http://www.w3.org/1999/xlink"
     width="2020.0000mm" height="1600.0000mm"
     viewBox="0 0 202.000000 160.000000">
  <!--
    Build plate : 150.00 x 150.00 mm
    Coordinate  : 1 SVG unit = 1 mm
    Display zoom: 10x  (width/height = viewBox x 10)
    Hatch stroke: 0.04 mm = ~28 mm on screen at this zoom
    Legend panel: right margin (42 mm wide)
  -->
  <defs>
    <marker id="endArrow" markerWidth="2" markerHeight="1.4"
            refX="0" refY="0.7" orient="auto"
            markerUnits="strokeWidth">
      <polyline fill="darkblue" points="0,0 2,0.7 0,1.4 0.2,0.7"/>
    </marker>
  </defs>
  <!-- Background -->
  <rect x="0" y="0" width="202.000000" height="160.000000" fill="#f0f0f0" stroke="none"/>
  <!-- Build plate boundary (150 x 150 mm) -->
  <rect x="5.000000" y="5.000000" width="150.000000" height="150.000000"
        fill="#ffffff" stroke="#aaaaaa" stroke-width="0.2" stroke-dasharray="1,0.5"/>
  <!-- Build plate centre circle (r = 75.00 mm) -->
  <circle cx="80.000000" cy="80.000000" r="75.000000"
          fill="none" stroke="#bbbbbb" stroke-width="0.15" stroke-dasharray="0.8,0.4"/>
  <!-- Centre cross-hair -->
  <line x1="5.000000" y1="80.000000" x2="155.000000" y2="80.000000" stroke="#cccccc" stroke-width="0.1"/>
  <line x1="80.000000" y1="5.000000" x2="80.000000" y2="155.000000" stroke="#cccccc" stroke-width="0.1"/>
  <circle cx="80.000000" cy="80.000000" r="0.3" fill="#cccccc" stroke="none"/>
  <!-- Corner labels -->
  <text x="5.400000" y="4.600000" font-family="sans-serif" font-size="2" fill="#888888">0,0</text>
  <text x="154.600006" y="4.600000" font-family="sans-serif" font-size="2" fill="#888888" text-anchor="end">150,0</text>
  <text x="5.400000" y="157.199997" font-family="sans-serif" font-size="2" fill="#888888">0,150</text>
  <!-- Layer geometry -->
  <g id="geometry">
    <line x1="64.19931" y1="98.12759" x2="64.25165" y2="98.50000" stroke="green" stroke-width="0.04000"/>
    <line x1="64.19931" y1="97.40906" x2="64.35263" y2="98.50000" stroke="green" stroke-width="0.04000"/>
    <line x1="64.19931" y1="96.69052" x2="64.45361" y2="98.50000" stroke="green" stroke-width="0.04000"/>
    <line x1="59.35458" y1="61.50000" x2="64.55460" y2="98.50000" stroke="green" stroke-width="0.04000"/>
    <line x1="59.45556" y1="61.50000" x2="64.65558" y2="98.50000" stroke="green" stroke-width="0.04000"/>
    <line x1="59.55655" y1="61.50000" x2="64.75656" y2="98.50000" stroke="green" stroke-width="0.04000"/>
    <line x1="59.65753" y1="61.50000" x2="64.85754" y2="98.50000" stroke="green" stroke-width="0.04000"/>
    <line x1="59.75851" y1="61.50000" x2="64.95853" y2="98.50000" stroke="green" stroke-width="0.04000"/>
    <line x1="59.85950" y1="61.50000" x2="65.05951" y2="98.50000" stroke="green" stroke-width="0.04000"/>
    <line x1="59.96048" y1="61.50000" x2="65.16049" y2="98.50000" stroke="green" stroke-width="0.04000"/>
    <line x1="60.06146" y1="61.50000" x2="65.26147" y2="98.50000" stroke="green" stroke-width="0.04000"/>
    <line x1="60.16244" y1="61.50000" x2="65.36246" y2="98.50000" stroke="green" stroke-width="0.04000"/>
    <line x1="60.26343" y1="61.50000" x2="65.46344" y2="98.50000" stroke="green" stroke-width="0.04000"/>
    <line x1="60.36441" y1="61.50000" x2="65.56442" y2="98.50000" stroke="green" stroke-width="0.04000"/>
    <line x1="60.46539" y1="61.50000" x2="65.66541" y2="98.50000" stroke="green" stroke-width="0.04000"/>
    <line x1="60.56638" y1="61.50000" x2="65.76639" y2="98.50000" stroke="green" stroke-width="0.04000"/>
    <line x1="60.66736" y1="61.50000" x2="65.86737" y2="98.50000" stroke="green" stroke-width="0.04000"/>
    <line x1="60.76834" y1="61.50000" x2="65.96835" y2="98.50000" stroke="green" stroke-width="0.04000"/>
    <line x1="60.86932" y1="61.50000" x2="66.06934" y2="98.50000" stroke="green" stroke-width="0.04000"/>
    <line x1="60.97031" y1="61.50000" x2="66.17032" y2="98.50000" stroke="green" stroke-width="0.04000"/>
    <line x1="61.07129" y1="61.50000" x2="66.27130" y2="98.50000" stroke="green" stroke-width="0.04000"/>
    <line x1="61.17227" y1="61.50000" x2="66.37228" y2="98.50000" stroke="green" stroke-width="0.04000"/>
    <line x1="61.27325" y1="61.50000" x2="66.47327" y2="98.50000" stroke="green" stroke-width="0.04000"/>
    <line x1="61.37424" y1="61.50000" x2="66.57425" y2="98.50000" stroke="green" stroke-width="0.04000"/>
    <line x1="61.47522" y1="61.50000" x2="66.67523" y2="98.50000" stroke="green" stroke-width="0.04000"/>
    <line x1="61.57620" y1="61.50000" x2="66.77621" y2="98.50000" stroke="green" stroke-width="0.04000"/>
    <line x1="61.67719" y1="61.50000" x2="66.87720" y2="98.50000" stroke="green" stroke-width="0.04000"/>
    <line x1="61.77817" y1="61.50000" x2="66.97818" y2="98.50000" stroke="green" stroke-width="0.04000"/>
    <line x1="61.87915" y1="61.50000" x2="67.07916" y2="98.50000" stroke="green" stroke-width="0.04000"/>
    <line x1="61.98013" y1="61.50000" x2="67.18015" y2="98.50000" stroke="green" stroke-width="0.04000"/>
    <line x1="62.08112" y1="61.50000" x2="67.28113" y2="98.50000" stroke="green" stroke-width="0.04000"/>
    <line x1="62.18210" y1="61.50000" x2="67.38211" y2="98.50000" stroke="green" stroke-width="0.04000"/>
    <line x1="62.28308" y1="61.50000" x2="67.48309" y2="98.50000" stroke="green" stroke-width="0.04000"/>
    <line x1="62.38407" y1="61.50000" x2="67.58408" y2="98.50000" stroke="green" stroke-width="0.04000"/>
    <line x1="62.48505" y1="61.50000" x2="67.68506" y2="98.50000" stroke="green" stroke-width="0.04000"/>
    <line x1="62.58603" y1="61.50000" x2="67.78604" y2="98.50000" stroke="green" stroke-width="0.04000"/>
    <line x1="62.68701" y1="61.50000" x2="67.88702" y2="98.50000" stroke="green" stroke-width="0.04000"/>
    <line x1="62.78799" y1="61.50000" x2="67.98801" y2="98.50000" stroke="green" stroke-width="0.04000"/>
    <line x1="62.88898" y1="61.50000" x2="68.08899" y2="98.50000" stroke="green" stroke-width="0.04000"/>
    <line x1="62.98996" y1="61.50000" x2="68.18997" y2="98.50000" stroke="green" stroke-width="0.04000"/>
    <line x1="63.09095" y1="61.50000" x2="68.29095" y2="98.50000" stroke="green" stroke-width="0.04000"/>
    <line x1="63.19193" y1="61.50000" x2="68.39194" y2="98.50000" stroke="green" stroke-width="0.04000"/>
    <line x1="63.29291" y1="61.50000" x2="68.49292" y2="98.50000" stroke="green" stroke-width="0.04000"/>
    <line x1="63.39389" y1="61.50000" x2="68.59390" y2="98.50000" stroke="green" stroke-width="0.04000"/>
    <line x1="63.49488" y1="61.50000" x2="68.69489" y2="98.50000" stroke="green" stroke-width="0.04000"/>
    <line x1="63.59586" y1="61.50000" x2="68.79587" y2="98.50000" stroke="green" stroke-width="0.04000"/>
    <line x1="63.69684" y1="61.50000" x2="68.89685" y2="98.50000" stroke="green" stroke-width="0.04000"/>
    <line x1="63.79782" y1="61.50000" x2="68.99783" y2="98.50000" stroke="green" stroke-width="0.04000"/>
    <line x1="63.89881" y1="61.50000" x2="69.09882" y2="98.50000" stroke="green" stroke-width="0.04000"/>
    <line x1="63.99979" y1="61.50000" x2="69.19980" y2="98.50000" stroke="green" stroke-width="0.04000"/>
    <line x1="64.10077" y1="61.50000" x2="69.25146" y2="98.14902" stroke="green" stroke-width="0.04000"/>
    <line x1="64.20175" y1="61.50000" x2="69.25146" y2="97.43050" stroke="green" stroke-width="0.04000"/>
    <line x1="64.30273" y1="61.50000" x2="69.25146" y2="96.71197" stroke="green" stroke-width="0.04000"/>
    <line x1="59.25360" y1="61.50000" x2="64.17253" y2="96.50000" stroke="green" stroke-width="0.04000"/>
    <line x1="59.15262" y1="61.50000" x2="64.07155" y2="96.50000" stroke="green" stroke-width="0.04000"/>
    <line x1="59.05163" y1="61.50000" x2="63.97056" y2="96.50000" stroke="green" stroke-width="0.04000"/>
    <line x1="58.95065" y1="61.50000" x2="63.86958" y2="96.50000" stroke="green" stroke-width="0.04000"/>
    <line x1="58.84967" y1="61.50000" x2="63.76860" y2="96.50000" stroke="green" stroke-width="0.04000"/>
    <line x1="58.74868" y1="61.50000" x2="63.66761" y2="96.50000" stroke="green" stroke-width="0.04000"/>
    <line x1="58.64770" y1="61.50000" x2="63.56663" y2="96.50000" stroke="green" stroke-width="0.04000"/>
    <line x1="58.54672" y1="61.50000" x2="63.46565" y2="96.50000" stroke="green" stroke-width="0.04000"/>
    <line x1="58.44574" y1="61.50000" x2="63.36467" y2="96.50000" stroke="green" stroke-width="0.04000"/>
    <line x1="58.34475" y1="61.50000" x2="63.26368" y2="96.50000" stroke="green" stroke-width="0.04000"/>
    <line x1="58.24377" y1="61.50000" x2="63.16270" y2="96.50000" stroke="green" stroke-width="0.04000"/>
    <line x1="58.14279" y1="61.50000" x2="63.06172" y2="96.50000" stroke="green" stroke-width="0.04000"/>
    <line x1="58.04181" y1="61.50000" x2="62.96074" y2="96.50000" stroke="green" stroke-width="0.04000"/>
    <line x1="57.94082" y1="61.50000" x2="62.85975" y2="96.50000" stroke="green" stroke-width="0.04000"/>
    <line x1="57.83984" y1="61.50000" x2="62.75877" y2="96.50000" stroke="green" stroke-width="0.04000"/>
    <line x1="57.73886" y1="61.50000" x2="62.65779" y2="96.50000" stroke="green" stroke-width="0.04000"/>
    <line x1="57.63787" y1="61.50000" x2="62.55680" y2="96.50000" stroke="green" stroke-width="0.04000"/>
    <line x1="57.53689" y1="61.50000" x2="62.45582" y2="96.50000" stroke="green" stroke-width="0.04000"/>
    <line x1="57.43591" y1="61.50000" x2="62.35484" y2="96.50000" stroke="green" stroke-width="0.04000"/>
    <line x1="57.33493" y1="61.50000" x2="62.25386" y2="96.50000" stroke="green" stroke-width="0.04000"/>
    <line x1="57.23394" y1="61.50000" x2="62.15287" y2="96.50000" stroke="green" stroke-width="0.04000"/>
    <line x1="57.13296" y1="61.50000" x2="62.05189" y2="96.50000" stroke="green" stroke-width="0.04000"/>
    <line x1="57.03198" y1="61.50000" x2="61.95091" y2="96.50000" stroke="green" stroke-width="0.04000"/>
    <line x1="56.93100" y1="61.50000" x2="61.84992" y2="96.50000" stroke="green" stroke-width="0.04000"/>
    <line x1="56.83001" y1="61.50000" x2="61.74894" y2="96.50000" stroke="green" stroke-width="0.04000"/>
    <line x1="56.72903" y1="61.50000" x2="61.64796" y2="96.50000" stroke="green" stroke-width="0.04000"/>
    <line x1="56.67738" y1="61.85099" x2="61.54697" y2="96.50000" stroke="green" stroke-width="0.04000"/>
    <line x1="56.67738" y1="62.56951" x2="61.44600" y2="96.50000" stroke="green" stroke-width="0.04000"/>
    <line x1="56.67738" y1="63.28803" x2="61.34501" y2="96.50000" stroke="green" stroke-width="0.04000"/>
    <line x1="56.67738" y1="64.00656" x2="61.24403" y2="96.50000" stroke="green" stroke-width="0.04000"/>
    <line x1="56.67738" y1="64.72511" x2="61.14304" y2="96.50000" stroke="green" stroke-width="0.04000"/>
    <line x1="56.67738" y1="65.44362" x2="61.04206" y2="96.50000" stroke="green" stroke-width="0.04000"/>
    <line x1="56.67738" y1="66.16215" x2="60.94108" y2="96.50000" stroke="green" stroke-width="0.04000"/>
    <line x1="56.67738" y1="66.88069" x2="60.84010" y2="96.50000" stroke="green" stroke-width="0.04000"/>
    <line x1="56.67738" y1="67.59921" x2="60.73912" y2="96.50000" stroke="green" stroke-width="0.04000"/>
    <line x1="56.67738" y1="68.31774" x2="60.63813" y2="96.50000" stroke="green" stroke-width="0.04000"/>
    <line x1="56.67738" y1="69.03628" x2="60.53715" y2="96.50000" stroke="green" stroke-width="0.04000"/>
    <line x1="56.67738" y1="69.75481" x2="60.43617" y2="96.50000" stroke="green" stroke-width="0.04000"/>
    <line x1="56.67738" y1="70.47334" x2="60.33519" y2="96.50000" stroke="green" stroke-width="0.04000"/>
    <line x1="56.67738" y1="71.19186" x2="60.23420" y2="96.50000" stroke="green" stroke-width="0.04000"/>
    <line x1="56.67738" y1="71.91040" x2="60.13322" y2="96.50000" stroke="green" stroke-width="0.04000"/>
    <line x1="56.67738" y1="72.62893" x2="60.03223" y2="96.50000" stroke="green" stroke-width="0.04000"/>
    <line x1="56.67738" y1="73.34745" x2="59.93126" y2="96.50000" stroke="green" stroke-width="0.04000"/>
    <line x1="56.67738" y1="74.06598" x2="59.83027" y2="96.50000" stroke="green" stroke-width="0.04000"/>
    <line x1="56.67738" y1="74.78452" x2="59.72929" y2="96.50000" stroke="green" stroke-width="0.04000"/>
    <line x1="56.67738" y1="75.50304" x2="59.62830" y2="96.50000" stroke="green" stroke-width="0.04000"/>
    <line x1="56.67738" y1="76.22157" x2="59.52732" y2="96.50000" stroke="green" stroke-width="0.04000"/>
    <line x1="56.67738" y1="76.94010" x2="59.42634" y2="96.50000" stroke="green" stroke-width="0.04000"/>
    <line x1="56.67738" y1="77.65864" x2="59.32536" y2="96.50000" stroke="green" stroke-width="0.04000"/>
    <line x1="56.67738" y1="78.37716" x2="59.22438" y2="96.50000" stroke="green" stroke-width="0.04000"/>
    <line x1="56.67738" y1="79.09568" x2="59.12339" y2="96.50000" stroke="green" stroke-width="0.04000"/>
    <line x1="56.67738" y1="79.81423" x2="59.02241" y2="96.50000" stroke="green" stroke-width="0.04000"/>
    <line x1="56.67738" y1="80.53275" x2="58.92142" y2="96.50000" stroke="green" stroke-width="0.04000"/>
    <line x1="56.67738" y1="81.25127" x2="58.82044" y2="96.50000" stroke="green" stroke-width="0.04000"/>
    <line x1="56.67738" y1="81.96981" x2="58.71946" y2="96.50000" stroke="green" stroke-width="0.04000"/>
    <line x1="56.67738" y1="82.68834" x2="58.61848" y2="96.50000" stroke="green" stroke-width="0.04000"/>
    <line x1="56.67738" y1="83.40686" x2="58.51749" y2="96.50000" stroke="green" stroke-width="0.04000"/>
    <line x1="56.67738" y1="84.12539" x2="58.41651" y2="96.50000" stroke="green" stroke-width="0.04000"/>
    <line x1="56.67738" y1="84.84394" x2="58.31553" y2="96.50000" stroke="green" stroke-width="0.04000"/>
    <line x1="56.67738" y1="85.56245" x2="58.21455" y2="96.50000" stroke="green" stroke-width="0.04000"/>
    <line x1="56.67738" y1="86.28098" x2="58.11356" y2="96.50000" stroke="green" stroke-width="0.04000"/>
    <line x1="56.67738" y1="86.99952" x2="58.01258" y2="96.50000" stroke="green" stroke-width="0.04000"/>
    <line x1="56.67738" y1="87.71805" x2="57.91160" y2="96.50000" stroke="green" stroke-width="0.04000"/>
    <line x1="56.67738" y1="88.43658" x2="57.81062" y2="96.50000" stroke="green" stroke-width="0.04000"/>
    <line x1="56.67738" y1="89.15510" x2="57.70963" y2="96.50000" stroke="green" stroke-width="0.04000"/>
    <line x1="56.67738" y1="89.87364" x2="57.60865" y2="96.50000" stroke="green" stroke-width="0.04000"/>
    <line x1="56.67738" y1="90.59216" x2="57.50767" y2="96.50000" stroke="green" stroke-width="0.04000"/>
    <line x1="56.67738" y1="91.31068" x2="57.40668" y2="96.50000" stroke="green" stroke-width="0.04000"/>
    <line x1="56.67738" y1="92.02922" x2="57.30570" y2="96.50000" stroke="green" stroke-width="0.04000"/>
    <line x1="56.67738" y1="92.74776" x2="57.20472" y2="96.50000" stroke="green" stroke-width="0.04000"/>
    <line x1="56.67738" y1="93.46629" x2="57.10374" y2="96.50000" stroke="green" stroke-width="0.04000"/>
    <line x1="56.67738" y1="94.18480" x2="57.00275" y2="96.50000" stroke="green" stroke-width="0.04000"/>
    <line x1="56.67738" y1="94.90335" x2="56.90177" y2="96.50000" stroke="green" stroke-width="0.04000"/>
    <line x1="56.67738" y1="95.62187" x2="56.80079" y2="96.50000" stroke="green" stroke-width="0.04000"/>
    <line x1="56.67738" y1="96.34039" x2="56.69981" y2="96.50000" stroke="green" stroke-width="0.04000"/>
    <line x1="64.40372" y1="61.50000" x2="69.25146" y2="95.99342" stroke="green" stroke-width="0.04000"/>
    <line x1="64.50470" y1="61.50000" x2="69.25146" y2="95.27491" stroke="green" stroke-width="0.04000"/>
    <line x1="64.60568" y1="61.50000" x2="69.25146" y2="94.55637" stroke="green" stroke-width="0.04000"/>
    <line x1="64.70667" y1="61.50000" x2="69.25146" y2="93.83787" stroke="green" stroke-width="0.04000"/>
    <line x1="64.80765" y1="61.50000" x2="69.25146" y2="93.11932" stroke="green" stroke-width="0.04000"/>
    <line x1="64.90863" y1="61.50000" x2="69.25146" y2="92.40078" stroke="green" stroke-width="0.04000"/>
    <line x1="65.00961" y1="61.50000" x2="69.25146" y2="91.68227" stroke="green" stroke-width="0.04000"/>
    <line x1="65.11060" y1="61.50000" x2="69.25146" y2="90.96373" stroke="green" stroke-width="0.04000"/>
    <line x1="65.21158" y1="61.50000" x2="69.25146" y2="90.24519" stroke="green" stroke-width="0.04000"/>
    <line x1="65.31256" y1="61.50000" x2="69.25146" y2="89.52668" stroke="green" stroke-width="0.04000"/>
    <line x1="65.41354" y1="61.50000" x2="69.25146" y2="88.80814" stroke="green" stroke-width="0.04000"/>
    <line x1="65.51453" y1="61.50000" x2="69.25146" y2="88.08960" stroke="green" stroke-width="0.04000"/>
    <line x1="65.61551" y1="61.50000" x2="69.25146" y2="87.37109" stroke="green" stroke-width="0.04000"/>
    <line x1="65.71649" y1="61.50000" x2="69.25146" y2="86.65255" stroke="green" stroke-width="0.04000"/>
    <line x1="65.81747" y1="61.50000" x2="69.25146" y2="85.93401" stroke="green" stroke-width="0.04000"/>
    <line x1="65.91846" y1="61.50000" x2="69.25146" y2="85.21549" stroke="green" stroke-width="0.04000"/>
    <line x1="66.01945" y1="61.50000" x2="69.25146" y2="84.49695" stroke="green" stroke-width="0.04000"/>
    <line x1="66.12042" y1="61.50000" x2="69.25146" y2="83.77844" stroke="green" stroke-width="0.04000"/>
    <line x1="66.22141" y1="61.50000" x2="69.25146" y2="83.05991" stroke="green" stroke-width="0.04000"/>
    <line x1="66.32240" y1="61.50000" x2="69.25146" y2="82.34136" stroke="green" stroke-width="0.04000"/>
    <line x1="66.42337" y1="61.50000" x2="69.25146" y2="81.62286" stroke="green" stroke-width="0.04000"/>
    <line x1="66.52435" y1="61.50000" x2="69.25146" y2="80.90432" stroke="green" stroke-width="0.04000"/>
    <line x1="66.62534" y1="61.50000" x2="69.25146" y2="80.18577" stroke="green" stroke-width="0.04000"/>
    <line x1="66.72632" y1="61.50000" x2="69.25146" y2="79.46725" stroke="green" stroke-width="0.04000"/>
    <line x1="66.82730" y1="61.50000" x2="69.25146" y2="78.74873" stroke="green" stroke-width="0.04000"/>
    <line x1="66.92828" y1="61.50000" x2="69.25146" y2="78.03019" stroke="green" stroke-width="0.04000"/>
    <line x1="67.02927" y1="61.50000" x2="69.25146" y2="77.31167" stroke="green" stroke-width="0.04000"/>
    <line x1="67.13026" y1="61.50000" x2="69.25146" y2="76.59313" stroke="green" stroke-width="0.04000"/>
    <line x1="67.23124" y1="61.50000" x2="69.25146" y2="75.87460" stroke="green" stroke-width="0.04000"/>
    <line x1="67.33221" y1="61.50000" x2="69.25146" y2="75.15609" stroke="green" stroke-width="0.04000"/>
    <line x1="67.43320" y1="61.50000" x2="69.25146" y2="74.43754" stroke="green" stroke-width="0.04000"/>
    <line x1="67.53418" y1="61.50000" x2="69.25146" y2="73.71903" stroke="green" stroke-width="0.04000"/>
    <line x1="67.63516" y1="61.50000" x2="69.25146" y2="73.00050" stroke="green" stroke-width="0.04000"/>
    <line x1="67.73615" y1="61.50000" x2="69.25146" y2="72.28195" stroke="green" stroke-width="0.04000"/>
    <line x1="67.83714" y1="61.50000" x2="69.25146" y2="71.56344" stroke="green" stroke-width="0.04000"/>
    <line x1="67.93811" y1="61.50000" x2="69.25146" y2="70.84490" stroke="green" stroke-width="0.04000"/>
    <line x1="68.03910" y1="61.50000" x2="69.25146" y2="70.12637" stroke="green" stroke-width="0.04000"/>
    <line x1="68.14008" y1="61.50000" x2="69.25146" y2="69.40784" stroke="green" stroke-width="0.04000"/>
    <line x1="68.24107" y1="61.50000" x2="69.25146" y2="68.68932" stroke="green" stroke-width="0.04000"/>
    <line x1="68.34205" y1="61.50000" x2="69.25146" y2="67.97078" stroke="green" stroke-width="0.04000"/>
    <line x1="68.44303" y1="61.50000" x2="69.25146" y2="67.25224" stroke="green" stroke-width="0.04000"/>
    <line x1="68.54401" y1="61.50000" x2="69.25146" y2="66.53372" stroke="green" stroke-width="0.04000"/>
    <line x1="68.64500" y1="61.50000" x2="69.25146" y2="65.81519" stroke="green" stroke-width="0.04000"/>
    <line x1="68.74597" y1="61.50000" x2="69.25146" y2="65.09668" stroke="green" stroke-width="0.04000"/>
    <line x1="68.84696" y1="61.50000" x2="69.25146" y2="64.37813" stroke="green" stroke-width="0.04000"/>
    <line x1="68.94794" y1="61.50000" x2="69.25146" y2="63.65961" stroke="green" stroke-width="0.04000"/>
    <line x1="69.04893" y1="61.50000" x2="69.25146" y2="62.94108" stroke="green" stroke-width="0.04000"/>
    <line x1="69.14991" y1="61.50000" x2="69.25146" y2="62.22253" stroke="green" stroke-width="0.04000"/>
    <line x1="69.25089" y1="61.50000" x2="69.25146" y2="61.50402" stroke="green" stroke-width="0.04000"/>
    <line x1="90.74855" y1="98.49602" x2="90.74911" y2="98.50000" stroke="green" stroke-width="0.04000"/>
    <line x1="90.74855" y1="97.77747" x2="90.85010" y2="98.50000" stroke="green" stroke-width="0.04000"/>
    <line x1="90.74855" y1="97.05898" x2="90.95107" y2="98.50000" stroke="green" stroke-width="0.04000"/>
    <line x1="90.74855" y1="96.34042" x2="91.05206" y2="98.50000" stroke="green" stroke-width="0.04000"/>
    <line x1="90.74855" y1="95.62192" x2="91.15304" y2="98.50000" stroke="green" stroke-width="0.04000"/>
    <line x1="90.74855" y1="94.90338" x2="91.25402" y2="98.50000" stroke="green" stroke-width="0.04000"/>
    <line x1="90.74855" y1="94.18484" x2="91.35500" y2="98.50000" stroke="green" stroke-width="0.04000"/>
    <line x1="90.74855" y1="93.46632" x2="91.45599" y2="98.50000" stroke="green" stroke-width="0.04000"/>
    <line x1="90.74855" y1="92.74779" x2="91.55697" y2="98.50000" stroke="green" stroke-width="0.04000"/>
    <line x1="90.74855" y1="92.02924" x2="91.65796" y2="98.50000" stroke="green" stroke-width="0.04000"/>
    <line x1="90.74855" y1="91.31075" x2="91.75893" y2="98.50000" stroke="green" stroke-width="0.04000"/>
    <line x1="90.74855" y1="90.59219" x2="91.85992" y2="98.50000" stroke="green" stroke-width="0.04000"/>
    <line x1="90.74855" y1="89.87365" x2="91.96091" y2="98.50000" stroke="green" stroke-width="0.04000"/>
    <line x1="90.74855" y1="89.15515" x2="92.06188" y2="98.50000" stroke="green" stroke-width="0.04000"/>
    <line x1="90.74855" y1="88.43660" x2="92.16287" y2="98.50000" stroke="green" stroke-width="0.04000"/>
    <line x1="90.74855" y1="87.71806" x2="92.26385" y2="98.50000" stroke="green" stroke-width="0.04000"/>
    <line x1="90.74855" y1="86.99956" x2="92.36483" y2="98.50000" stroke="green" stroke-width="0.04000"/>
    <line x1="90.74855" y1="86.28101" x2="92.46582" y2="98.50000" stroke="green" stroke-width="0.04000"/>
    <line x1="90.74855" y1="85.56249" x2="92.56680" y2="98.50000" stroke="green" stroke-width="0.04000"/>
    <line x1="90.74855" y1="84.84396" x2="92.66778" y2="98.50000" stroke="green" stroke-width="0.04000"/>
    <line x1="90.74855" y1="84.12541" x2="92.76877" y2="98.50000" stroke="green" stroke-width="0.04000"/>
    <line x1="90.74855" y1="83.40689" x2="92.86974" y2="98.50000" stroke="green" stroke-width="0.04000"/>
    <line x1="90.74855" y1="82.68838" x2="92.97073" y2="98.50000" stroke="green" stroke-width="0.04000"/>
    <line x1="90.74855" y1="81.96983" x2="93.07172" y2="98.50000" stroke="green" stroke-width="0.04000"/>
    <line x1="90.74855" y1="81.25133" x2="93.17269" y2="98.50000" stroke="green" stroke-width="0.04000"/>
    <line x1="90.74855" y1="80.53278" x2="93.27368" y2="98.50000" stroke="green" stroke-width="0.04000"/>
    <line x1="90.74855" y1="79.81423" x2="93.37466" y2="98.50000" stroke="green" stroke-width="0.04000"/>
    <line x1="90.74855" y1="79.09573" x2="93.47564" y2="98.50000" stroke="green" stroke-width="0.04000"/>
    <line x1="90.74855" y1="78.37719" x2="93.57663" y2="98.50000" stroke="green" stroke-width="0.04000"/>
    <line x1="90.74855" y1="77.65864" x2="93.67761" y2="98.50000" stroke="green" stroke-width="0.04000"/>
    <line x1="90.74855" y1="76.94014" x2="93.77859" y2="98.50000" stroke="green" stroke-width="0.04000"/>
    <line x1="90.74855" y1="76.22160" x2="93.87958" y2="98.50000" stroke="green" stroke-width="0.04000"/>
    <line x1="90.74855" y1="75.50307" x2="93.98055" y2="98.50000" stroke="green" stroke-width="0.04000"/>
    <line x1="90.74855" y1="74.78455" x2="94.08154" y2="98.50000" stroke="green" stroke-width="0.04000"/>
    <line x1="90.74855" y1="74.06600" x2="94.18253" y2="98.50000" stroke="green" stroke-width="0.04000"/>
    <line x1="90.74855" y1="73.34748" x2="94.28350" y2="98.50000" stroke="green" stroke-width="0.04000"/>
    <line x1="90.74855" y1="72.62895" x2="94.38449" y2="98.50000" stroke="green" stroke-width="0.04000"/>
    <line x1="90.74855" y1="71.91041" x2="94.48547" y2="98.50000" stroke="green" stroke-width="0.04000"/>
    <line x1="90.74855" y1="71.19192" x2="94.58645" y2="98.50000" stroke="green" stroke-width="0.04000"/>
    <line x1="90.74855" y1="70.47337" x2="94.68744" y2="98.50000" stroke="green" stroke-width="0.04000"/>
    <line x1="90.74855" y1="69.75482" x2="94.78842" y2="98.50000" stroke="green" stroke-width="0.04000"/>
    <line x1="90.74855" y1="69.03632" x2="94.88940" y2="98.50000" stroke="green" stroke-width="0.04000"/>
    <line x1="90.74855" y1="68.31776" x2="94.99039" y2="98.50000" stroke="green" stroke-width="0.04000"/>
    <line x1="90.74855" y1="67.59923" x2="95.09137" y2="98.50000" stroke="green" stroke-width="0.04000"/>
    <line x1="90.74855" y1="66.88073" x2="95.19235" y2="98.50000" stroke="green" stroke-width="0.04000"/>
    <line x1="90.74855" y1="66.16218" x2="95.29333" y2="98.50000" stroke="green" stroke-width="0.04000"/>
    <line x1="90.74855" y1="65.44365" x2="95.39432" y2="98.50000" stroke="green" stroke-width="0.04000"/>
    <line x1="90.74855" y1="64.72514" x2="95.49530" y2="98.50000" stroke="green" stroke-width="0.04000"/>
    <line x1="90.74855" y1="64.00658" x2="95.59628" y2="98.50000" stroke="green" stroke-width="0.04000"/>
    <line x1="90.74855" y1="63.28806" x2="95.69727" y2="98.50000" stroke="green" stroke-width="0.04000"/>
    <line x1="90.74855" y1="62.56955" x2="95.79825" y2="98.50000" stroke="green" stroke-width="0.04000"/>
    <line x1="90.74855" y1="61.85099" x2="95.80070" y2="97.79888" stroke="green" stroke-width="0.04000"/>
    <line x1="90.80020" y1="61.50000" x2="95.80070" y2="97.08039" stroke="green" stroke-width="0.04000"/>
    <line x1="90.90118" y1="61.50000" x2="95.82011" y2="96.50000" stroke="green" stroke-width="0.04000"/>
    <line x1="91.00217" y1="61.50000" x2="95.92110" y2="96.50000" stroke="green" stroke-width="0.04000"/>
    <line x1="91.10315" y1="61.50000" x2="96.02208" y2="96.50000" stroke="green" stroke-width="0.04000"/>
    <line x1="91.20413" y1="61.50000" x2="96.12306" y2="96.50000" stroke="green" stroke-width="0.04000"/>
    <line x1="91.30511" y1="61.50000" x2="96.22404" y2="96.50000" stroke="green" stroke-width="0.04000"/>
    <line x1="91.40610" y1="61.50000" x2="96.32503" y2="96.50000" stroke="green" stroke-width="0.04000"/>
    <line x1="91.50708" y1="61.50000" x2="96.42601" y2="96.50000" stroke="green" stroke-width="0.04000"/>
    <line x1="91.60806" y1="61.50000" x2="96.52699" y2="96.50000" stroke="green" stroke-width="0.04000"/>
    <line x1="91.70905" y1="61.50000" x2="96.62798" y2="96.50000" stroke="green" stroke-width="0.04000"/>
    <line x1="91.81003" y1="61.50000" x2="96.72896" y2="96.50000" stroke="green" stroke-width="0.04000"/>
    <line x1="91.91102" y1="61.50000" x2="96.82994" y2="96.50000" stroke="green" stroke-width="0.04000"/>
    <line x1="92.01199" y1="61.50000" x2="96.93092" y2="96.50000" stroke="green" stroke-width="0.04000"/>
    <line x1="92.11298" y1="61.50000" x2="97.03191" y2="96.50000" stroke="green" stroke-width="0.04000"/>
    <line x1="92.21396" y1="61.50000" x2="97.13289" y2="96.50000" stroke="green" stroke-width="0.04000"/>
    <line x1="92.31494" y1="61.50000" x2="97.23387" y2="96.50000" stroke="green" stroke-width="0.04000"/>
    <line x1="92.41593" y1="61.50000" x2="97.33486" y2="96.50000" stroke="green" stroke-width="0.04000"/>
    <line x1="92.51691" y1="61.50000" x2="97.43584" y2="96.50000" stroke="green" stroke-width="0.04000"/>
    <line x1="92.61789" y1="61.50000" x2="97.53682" y2="96.50000" stroke="green" stroke-width="0.04000"/>
    <line x1="92.71887" y1="61.50000" x2="97.63780" y2="96.50000" stroke="green" stroke-width="0.04000"/>
    <line x1="92.81985" y1="61.50000" x2="97.73878" y2="96.50000" stroke="green" stroke-width="0.04000"/>
    <line x1="92.92084" y1="61.50000" x2="97.83977" y2="96.50000" stroke="green" stroke-width="0.04000"/>
    <line x1="93.02183" y1="61.50000" x2="97.94075" y2="96.50000" stroke="green" stroke-width="0.04000"/>
    <line x1="93.12280" y1="61.50000" x2="98.04173" y2="96.50000" stroke="green" stroke-width="0.04000"/>
    <line x1="93.22379" y1="61.50000" x2="98.14272" y2="96.50000" stroke="green" stroke-width="0.04000"/>
    <line x1="93.32477" y1="61.50000" x2="98.24370" y2="96.50000" stroke="green" stroke-width="0.04000"/>
    <line x1="93.42575" y1="61.50000" x2="98.34468" y2="96.50000" stroke="green" stroke-width="0.04000"/>
    <line x1="93.52674" y1="61.50000" x2="98.44567" y2="96.50000" stroke="green" stroke-width="0.04000"/>
    <line x1="93.62772" y1="61.50000" x2="98.54665" y2="96.50000" stroke="green" stroke-width="0.04000"/>
    <line x1="93.72870" y1="61.50000" x2="98.64763" y2="96.50000" stroke="green" stroke-width="0.04000"/>
    <line x1="93.82969" y1="61.50000" x2="98.74862" y2="96.50000" stroke="green" stroke-width="0.04000"/>
    <line x1="93.93066" y1="61.50000" x2="98.84959" y2="96.50000" stroke="green" stroke-width="0.04000"/>
    <line x1="94.03165" y1="61.50000" x2="98.95058" y2="96.50000" stroke="green" stroke-width="0.04000"/>
    <line x1="94.13264" y1="61.50000" x2="99.05156" y2="96.50000" stroke="green" stroke-width="0.04000"/>
    <line x1="94.23361" y1="61.50000" x2="99.15254" y2="96.50000" stroke="green" stroke-width="0.04000"/>
    <line x1="94.33460" y1="61.50000" x2="99.25353" y2="96.50000" stroke="green" stroke-width="0.04000"/>
    <line x1="94.43559" y1="61.50000" x2="99.35451" y2="96.50000" stroke="green" stroke-width="0.04000"/>
    <line x1="94.53656" y1="61.50000" x2="99.45549" y2="96.50000" stroke="green" stroke-width="0.04000"/>
    <line x1="94.63755" y1="61.50000" x2="99.55648" y2="96.50000" stroke="green" stroke-width="0.04000"/>
    <line x1="94.73853" y1="61.50000" x2="99.65746" y2="96.50000" stroke="green" stroke-width="0.04000"/>
    <line x1="94.83952" y1="61.50000" x2="99.75844" y2="96.50000" stroke="green" stroke-width="0.04000"/>
    <line x1="94.94050" y1="61.50000" x2="99.85943" y2="96.50000" stroke="green" stroke-width="0.04000"/>
    <line x1="95.04147" y1="61.50000" x2="99.96040" y2="96.50000" stroke="green" stroke-width="0.04000"/>
    <line x1="95.14246" y1="61.50000" x2="100.06139" y2="96.50000" stroke="green" stroke-width="0.04000"/>
    <line x1="95.24345" y1="61.50000" x2="100.16238" y2="96.50000" stroke="green" stroke-width="0.04000"/>
    <line x1="95.34442" y1="61.50000" x2="100.26335" y2="96.50000" stroke="green" stroke-width="0.04000"/>
    <line x1="95.44541" y1="61.50000" x2="100.36434" y2="96.50000" stroke="green" stroke-width="0.04000"/>
    <line x1="95.54639" y1="61.50000" x2="100.46532" y2="96.50000" stroke="green" stroke-width="0.04000"/>
    <line x1="95.64737" y1="61.50000" x2="100.56630" y2="96.50000" stroke="green" stroke-width="0.04000"/>
    <line x1="95.74836" y1="61.50000" x2="100.66729" y2="96.50000" stroke="green" stroke-width="0.04000"/>
    <line x1="95.84934" y1="61.50000" x2="100.76826" y2="96.50000" stroke="green" stroke-width="0.04000"/>
    <line x1="95.95032" y1="61.50000" x2="100.86925" y2="96.50000" stroke="green" stroke-width="0.04000"/>
    <line x1="96.05131" y1="61.50000" x2="100.97024" y2="96.50000" stroke="green" stroke-width="0.04000"/>
    <line x1="96.15228" y1="61.50000" x2="101.07121" y2="96.50000" stroke="green" stroke-width="0.04000"/>
    <line x1="96.25327" y1="61.50000" x2="101.17220" y2="96.50000" stroke="green" stroke-width="0.04000"/>
    <line x1="96.35426" y1="61.50000" x2="101.27319" y2="96.50000" stroke="green" stroke-width="0.04000"/>
    <line x1="96.45523" y1="61.50000" x2="101.37416" y2="96.50000" stroke="green" stroke-width="0.04000"/>
    <line x1="96.55622" y1="61.50000" x2="101.47515" y2="96.50000" stroke="green" stroke-width="0.04000"/>
    <line x1="96.65720" y1="61.50000" x2="101.57613" y2="96.50000" stroke="green" stroke-width="0.04000"/>
    <line x1="96.75819" y1="61.50000" x2="101.67711" y2="96.50000" stroke="green" stroke-width="0.04000"/>
    <line x1="96.85917" y1="61.50000" x2="101.77810" y2="96.50000" stroke="green" stroke-width="0.04000"/>
    <line x1="96.96015" y1="61.50000" x2="101.87908" y2="96.50000" stroke="green" stroke-width="0.04000"/>
    <line x1="97.06113" y1="61.50000" x2="101.98006" y2="96.50000" stroke="green" stroke-width="0.04000"/>
    <line x1="97.16212" y1="61.50000" x2="102.08105" y2="96.50000" stroke="green" stroke-width="0.04000"/>
    <line x1="97.26310" y1="61.50000" x2="102.18203" y2="96.50000" stroke="green" stroke-width="0.04000"/>
    <line x1="97.36408" y1="61.50000" x2="102.28301" y2="96.50000" stroke="green" stroke-width="0.04000"/>
    <line x1="97.46507" y1="61.50000" x2="102.38400" y2="96.50000" stroke="green" stroke-width="0.04000"/>
    <line x1="97.56605" y1="61.50000" x2="102.48498" y2="96.50000" stroke="green" stroke-width="0.04000"/>
    <line x1="97.66703" y1="61.50000" x2="102.58596" y2="96.50000" stroke="green" stroke-width="0.04000"/>
    <line x1="97.76801" y1="61.50000" x2="102.68694" y2="96.50000" stroke="green" stroke-width="0.04000"/>
    <line x1="97.86900" y1="61.50000" x2="102.78793" y2="96.50000" stroke="green" stroke-width="0.04000"/>
    <line x1="97.96998" y1="61.50000" x2="102.88891" y2="96.50000" stroke="green" stroke-width="0.04000"/>
    <line x1="98.07096" y1="61.50000" x2="102.98988" y2="96.50000" stroke="green" stroke-width="0.04000"/>
    <line x1="98.17194" y1="61.50000" x2="103.09087" y2="96.50000" stroke="green" stroke-width="0.04000"/>
    <line x1="98.27293" y1="61.50000" x2="103.19186" y2="96.50000" stroke="green" stroke-width="0.04000"/>
    <line x1="98.37391" y1="61.50000" x2="103.29284" y2="96.50000" stroke="green" stroke-width="0.04000"/>
    <line x1="98.47489" y1="61.50000" x2="103.32262" y2="95.99342" stroke="green" stroke-width="0.04000"/>
    <line x1="98.57587" y1="61.50000" x2="103.32262" y2="95.27487" stroke="green" stroke-width="0.04000"/>
    <line x1="98.67685" y1="61.50000" x2="103.32262" y2="94.55637" stroke="green" stroke-width="0.04000"/>
    <line x1="98.77784" y1="61.50000" x2="103.32262" y2="93.83781" stroke="green" stroke-width="0.04000"/>
    <line x1="98.87882" y1="61.50000" x2="103.32262" y2="93.11927" stroke="green" stroke-width="0.04000"/>
    <line x1="98.97980" y1="61.50000" x2="103.32262" y2="92.40078" stroke="green" stroke-width="0.04000"/>
    <line x1="99.08079" y1="61.50000" x2="103.32262" y2="91.68223" stroke="green" stroke-width="0.04000"/>
    <line x1="99.18177" y1="61.50000" x2="103.32262" y2="90.96368" stroke="green" stroke-width="0.04000"/>
    <line x1="99.28275" y1="61.50000" x2="103.32262" y2="90.24519" stroke="green" stroke-width="0.04000"/>
    <line x1="99.38374" y1="61.50000" x2="103.32262" y2="89.52663" stroke="green" stroke-width="0.04000"/>
    <line x1="99.48472" y1="61.50000" x2="103.32262" y2="88.80812" stroke="green" stroke-width="0.04000"/>
    <line x1="99.58570" y1="61.50000" x2="103.32262" y2="88.08959" stroke="green" stroke-width="0.04000"/>
    <line x1="99.68668" y1="61.50000" x2="103.32262" y2="87.37104" stroke="green" stroke-width="0.04000"/>
    <line x1="99.78767" y1="61.50000" x2="103.32262" y2="86.65253" stroke="green" stroke-width="0.04000"/>
    <line x1="99.88865" y1="61.50000" x2="103.32262" y2="85.93400" stroke="green" stroke-width="0.04000"/>
    <line x1="99.98963" y1="61.50000" x2="103.32262" y2="85.21545" stroke="green" stroke-width="0.04000"/>
    <line x1="100.09061" y1="61.50000" x2="103.32262" y2="84.49696" stroke="green" stroke-width="0.04000"/>
    <line x1="100.19160" y1="61.50000" x2="103.32262" y2="83.77840" stroke="green" stroke-width="0.04000"/>
    <line x1="100.29258" y1="61.50000" x2="103.32262" y2="83.05985" stroke="green" stroke-width="0.04000"/>
    <line x1="100.39356" y1="61.50000" x2="103.32262" y2="82.34136" stroke="green" stroke-width="0.04000"/>
    <line x1="100.49454" y1="61.50000" x2="103.32262" y2="81.62281" stroke="green" stroke-width="0.04000"/>
    <line x1="100.59554" y1="61.50000" x2="103.32262" y2="80.90426" stroke="green" stroke-width="0.04000"/>
    <line x1="100.69651" y1="61.50000" x2="103.32262" y2="80.18577" stroke="green" stroke-width="0.04000"/>
    <line x1="100.79749" y1="61.50000" x2="103.32262" y2="79.46722" stroke="green" stroke-width="0.04000"/>
    <line x1="100.89848" y1="61.50000" x2="103.32262" y2="78.74870" stroke="green" stroke-width="0.04000"/>
    <line x1="100.99946" y1="61.50000" x2="103.32262" y2="78.03017" stroke="green" stroke-width="0.04000"/>
    <line x1="101.10044" y1="61.50000" x2="103.32262" y2="77.31163" stroke="green" stroke-width="0.04000"/>
    <line x1="101.20143" y1="61.50000" x2="103.32262" y2="76.59310" stroke="green" stroke-width="0.04000"/>
    <line x1="101.30241" y1="61.50000" x2="103.32262" y2="75.87458" stroke="green" stroke-width="0.04000"/>
    <line x1="101.40340" y1="61.50000" x2="103.32262" y2="75.15604" stroke="green" stroke-width="0.04000"/>
    <line x1="101.50437" y1="61.50000" x2="103.32262" y2="74.43755" stroke="green" stroke-width="0.04000"/>
    <line x1="101.60535" y1="61.50000" x2="103.32262" y2="73.71899" stroke="green" stroke-width="0.04000"/>
    <line x1="101.70634" y1="61.50000" x2="103.32262" y2="73.00044" stroke="green" stroke-width="0.04000"/>
    <line x1="101.80732" y1="61.50000" x2="103.32262" y2="72.28194" stroke="green" stroke-width="0.04000"/>
    <line x1="101.90830" y1="61.50000" x2="103.32262" y2="71.56340" stroke="green" stroke-width="0.04000"/>
    <line x1="102.00928" y1="61.50000" x2="103.32262" y2="70.84487" stroke="green" stroke-width="0.04000"/>
    <line x1="102.11027" y1="61.50000" x2="103.32262" y2="70.12636" stroke="green" stroke-width="0.04000"/>
    <line x1="102.21125" y1="61.50000" x2="103.32262" y2="69.40781" stroke="green" stroke-width="0.04000"/>
    <line x1="102.31224" y1="61.50000" x2="103.32262" y2="68.68928" stroke="green" stroke-width="0.04000"/>
    <line x1="102.41322" y1="61.50000" x2="103.32262" y2="67.97076" stroke="green" stroke-width="0.04000"/>
    <line x1="102.51421" y1="61.50000" x2="103.32262" y2="67.25221" stroke="green" stroke-width="0.04000"/>
    <line x1="102.61519" y1="61.50000" x2="103.32262" y2="66.53368" stroke="green" stroke-width="0.04000"/>
    <line x1="102.71616" y1="61.50000" x2="103.32262" y2="65.81517" stroke="green" stroke-width="0.04000"/>
    <line x1="102.81715" y1="61.50000" x2="103.32262" y2="65.09662" stroke="green" stroke-width="0.04000"/>
    <line x1="102.91813" y1="61.50000" x2="103.32262" y2="64.37813" stroke="green" stroke-width="0.04000"/>
    <line x1="103.01911" y1="61.50000" x2="103.32262" y2="63.65958" stroke="green" stroke-width="0.04000"/>
    <line x1="103.12010" y1="61.50000" x2="103.32262" y2="62.94102" stroke="green" stroke-width="0.04000"/>
    <line x1="103.22108" y1="61.50000" x2="103.32262" y2="62.22253" stroke="green" stroke-width="0.04000"/>
    <line x1="103.32207" y1="61.50000" x2="103.32262" y2="61.50399" stroke="green" stroke-width="0.04000"/>
    <path d="M 69.2515 98.5 L 64.1993 98.5 L 64.1993 96.5 L 56.6774 96.5 L 56.6774 61.5 L 69.2515 61.5 L 69.2515 98.5" fill="none" stroke="blue" stroke-width="0.04000" fill-rule="evenodd" fill-opacity="1.000"/>
    <path d="M 103.323 96.5 L 95.8007 96.5 L 95.8007 98.5 L 90.7486 98.5 L 90.7486 61.5 L 103.323 61.5 L 103.323 96.5" fill="none" stroke="blue" stroke-width="0.04000" fill-rule="evenodd" fill-opacity="1.000"/>
  </g>
</svg>
