<?xml version="1.0" encoding="UTF-8" standalone="yes"?>
<svg xmlns="http://www.w3.org/2000/svg"
     xmlns:xlink="http://www.w3.org/1999/xlink"
     width="2020.0000mm" height="1600.0000mm"
     viewBox="0 0 202.000000 160.000000">
  <!--
    Build plate : 150.00 x 150.00 mm
    Coordinate  : 1 SVG unit = 1 mm
    Display zoom: 10x  (width/height = viewBox x 10)
    Hatch stroke: 0.04 mm = ~28 mm on screen at this zoom
    Legend panel: right margin (42 mm wide)
  -->
  <defs>
    <marker id="endArrow" markerWidth="2" markerHeight="1.4"
            refX="0" refY="0.7" orient="auto"
            markerUnits="strokeWidth">
      <polyline fill="darkblue" points="0,0 2,0.7 0,1.4 0.2,0.7"/>
    </marker>
  </defs>
  <!-- Background -->
  <rect x="0" y="0" width="202.000000" height="160.000000" fill="#f0f0f0" stroke="none"/>
  <!-- Build plate boundary (150 x 150 mm) -->
  <rect x="5.000000" y="5.000000" width="150.000000" height="150.000000"
        fill="#ffffff" stroke="#aaaaaa" stroke-width="0.2" stroke-dasharray="1,0.5"/>
  <!-- Build plate centre circle (r = 75.00 mm) -->
  <circle cx="80.000000" cy="80.000000" r="75.000000"
          fill="none" stroke="#bbbbbb" stroke-width="0.15" stroke-dasharray="0.8,0.4"/>
  <!-- Centre cross-hair -->
  <line x1="5.000000" y1="80.000000" x2="155.000000" y2="80.000000" stroke="#cccccc" stroke-width="0.1"/>
  <line x1="80.000000" y1="5.000000" x2="80.000000" y2="155.000000" stroke="#cccccc" stroke-width="0.1"/>
  <circle cx="80.000000" cy="80.000000" r="0.3" fill="#cccccc" stroke="none"/>
  <!-- Corner labels -->
  <text x="5.400000" y="4.600000" font-family="sans-serif" font-size="2" fill="#888888">0,0</text>
  <text x="154.600006" y="4.600000" font-family="sans-serif" font-size="2" fill="#888888" text-anchor="end">150,0</text>
  <text x="5.400000" y="157.199997" font-family="sans-serif" font-size="2" fill="#888888">0,150</text>
  <!-- Layer geometry -->
  <g id="geometry">
    <line x1="74.39455" y1="96.38747" x2="74.52399" y2="96.50000" stroke="green" stroke-width="0.04000"/>
    <line x1="74.39455" y1="96.25497" x2="74.67642" y2="96.50000" stroke="green" stroke-width="0.04000"/>
    <line x1="74.39455" y1="96.12247" x2="74.82885" y2="96.50000" stroke="green" stroke-width="0.04000"/>
    <line x1="74.39455" y1="95.98997" x2="74.98128" y2="96.50000" stroke="green" stroke-width="0.04000"/>
    <line x1="74.39455" y1="95.85747" x2="75.13370" y2="96.50000" stroke="green" stroke-width="0.04000"/>
    <line x1="74.39455" y1="95.72497" x2="75.28613" y2="96.50000" stroke="green" stroke-width="0.04000"/>
    <line x1="74.39455" y1="95.59247" x2="75.43855" y2="96.50000" stroke="green" stroke-width="0.04000"/>
    <line x1="74.39455" y1="95.45997" x2="75.59097" y2="96.50000" stroke="green" stroke-width="0.04000"/>
    <line x1="74.39455" y1="95.32746" x2="75.74340" y2="96.50000" stroke="green" stroke-width="0.04000"/>
    <line x1="74.39455" y1="95.19496" x2="75.89583" y2="96.50000" stroke="green" stroke-width="0.04000"/>
    <line x1="74.39455" y1="95.06246" x2="76.04825" y2="96.50000" stroke="green" stroke-width="0.04000"/>
    <line x1="74.39455" y1="94.92996" x2="76.20068" y2="96.50000" stroke="green" stroke-width="0.04000"/>
    <line x1="74.39455" y1="94.79746" x2="76.35310" y2="96.50000" stroke="green" stroke-width="0.04000"/>
    <line x1="74.39455" y1="94.66496" x2="76.50553" y2="96.50000" stroke="green" stroke-width="0.04000"/>
    <line x1="74.39455" y1="94.53246" x2="76.65796" y2="96.50000" stroke="green" stroke-width="0.04000"/>
    <line x1="74.39455" y1="94.39996" x2="76.81038" y2="96.50000" stroke="green" stroke-width="0.04000"/>
    <line x1="74.39455" y1="94.26746" x2="76.96281" y2="96.50000" stroke="green" stroke-width="0.04000"/>
    <line x1="74.39455" y1="94.13496" x2="77.11523" y2="96.50000" stroke="green" stroke-width="0.04000"/>
    <line x1="74.39455" y1="94.00246" x2="77.26765" y2="96.50000" stroke="green" stroke-width="0.04000"/>
    <line x1="74.39455" y1="93.86995" x2="77.42007" y2="96.50000" stroke="green" stroke-width="0.04000"/>
    <line x1="74.39455" y1="93.73745" x2="77.57250" y2="96.50000" stroke="green" stroke-width="0.04000"/>
    <line x1="74.39455" y1="93.60495" x2="77.72493" y2="96.50000" stroke="green" stroke-width="0.04000"/>
    <line x1="74.39455" y1="93.47244" x2="77.87736" y2="96.50000" stroke="green" stroke-width="0.04000"/>
    <line x1="74.39455" y1="93.33994" x2="78.02979" y2="96.50000" stroke="green" stroke-width="0.04000"/>
    <line x1="74.39455" y1="93.20744" x2="78.18221" y2="96.50000" stroke="green" stroke-width="0.04000"/>
    <line x1="74.39455" y1="93.07494" x2="78.33463" y2="96.50000" stroke="green" stroke-width="0.04000"/>
    <line x1="74.39455" y1="92.94244" x2="78.48705" y2="96.50000" stroke="green" stroke-width="0.04000"/>
    <line x1="74.39455" y1="92.80994" x2="78.63948" y2="96.50000" stroke="green" stroke-width="0.04000"/>
    <line x1="74.39455" y1="92.67744" x2="78.79191" y2="96.50000" stroke="green" stroke-width="0.04000"/>
    <line x1="74.39455" y1="92.54494" x2="78.94434" y2="96.50000" stroke="green" stroke-width="0.04000"/>
    <line x1="74.39455" y1="92.41244" x2="79.09676" y2="96.50000" stroke="green" stroke-width="0.04000"/>
    <line x1="74.39455" y1="92.27994" x2="79.24918" y2="96.50000" stroke="green" stroke-width="0.04000"/>
    <line x1="74.39455" y1="92.14744" x2="79.40160" y2="96.50000" stroke="green" stroke-width="0.04000"/>
    <line x1="74.39455" y1="92.01493" x2="79.55403" y2="96.50000" stroke="green" stroke-width="0.04000"/>
    <line x1="74.39455" y1="91.88243" x2="79.70646" y2="96.50000" stroke="green" stroke-width="0.04000"/>
    <line x1="74.39455" y1="91.74993" x2="79.85889" y2="96.50000" stroke="green" stroke-width="0.04000"/>
    <line x1="74.39455" y1="91.61742" x2="80.01131" y2="96.50000" stroke="green" stroke-width="0.04000"/>
    <line x1="74.39455" y1="91.48492" x2="80.16373" y2="96.50000" stroke="green" stroke-width="0.04000"/>
    <line x1="74.39455" y1="91.35242" x2="80.31616" y2="96.50000" stroke="green" stroke-width="0.04000"/>
    <line x1="74.39455" y1="91.21992" x2="80.46859" y2="96.50000" stroke="green" stroke-width="0.04000"/>
    <line x1="74.39455" y1="91.08743" x2="80.62101" y2="96.50000" stroke="green" stroke-width="0.04000"/>
    <line x1="74.39455" y1="90.95493" x2="80.77344" y2="96.50000" stroke="green" stroke-width="0.04000"/>
    <line x1="74.39455" y1="90.82243" x2="80.92586" y2="96.50000" stroke="green" stroke-width="0.04000"/>
    <line x1="74.39455" y1="90.68992" x2="81.07829" y2="96.50000" stroke="green" stroke-width="0.04000"/>
    <line x1="74.39455" y1="90.55741" x2="81.23071" y2="96.50000" stroke="green" stroke-width="0.04000"/>
    <line x1="74.39455" y1="90.42491" x2="81.38314" y2="96.50000" stroke="green" stroke-width="0.04000"/>
    <line x1="74.39455" y1="90.29241" x2="81.53556" y2="96.50000" stroke="green" stroke-width="0.04000"/>
    <line x1="74.39455" y1="90.15991" x2="81.68799" y2="96.50000" stroke="green" stroke-width="0.04000"/>
    <line x1="74.39455" y1="90.02741" x2="81.84042" y2="96.50000" stroke="green" stroke-width="0.04000"/>
    <line x1="74.39455" y1="89.89491" x2="81.99284" y2="96.50000" stroke="green" stroke-width="0.04000"/>
    <line x1="74.39455" y1="89.76241" x2="82.14526" y2="96.50000" stroke="green" stroke-width="0.04000"/>
    <line x1="74.39455" y1="89.62991" x2="82.29769" y2="96.50000" stroke="green" stroke-width="0.04000"/>
    <line x1="74.39455" y1="89.49741" x2="82.45011" y2="96.50000" stroke="green" stroke-width="0.04000"/>
    <line x1="74.39455" y1="89.36491" x2="82.60255" y2="96.50000" stroke="green" stroke-width="0.04000"/>
    <line x1="74.39455" y1="89.23241" x2="82.75497" y2="96.50000" stroke="green" stroke-width="0.04000"/>
    <line x1="74.39455" y1="89.09990" x2="82.90739" y2="96.50000" stroke="green" stroke-width="0.04000"/>
    <line x1="74.39455" y1="88.96740" x2="83.05981" y2="96.50000" stroke="green" stroke-width="0.04000"/>
    <line x1="74.39455" y1="88.83490" x2="83.21224" y2="96.50000" stroke="green" stroke-width="0.04000"/>
    <line x1="74.39455" y1="88.70240" x2="83.36466" y2="96.50000" stroke="green" stroke-width="0.04000"/>
    <line x1="74.39455" y1="88.56990" x2="83.51709" y2="96.50000" stroke="green" stroke-width="0.04000"/>
    <line x1="74.39455" y1="88.43739" x2="83.66952" y2="96.50000" stroke="green" stroke-width="0.04000"/>
    <line x1="74.39455" y1="88.30489" x2="83.82195" y2="96.50000" stroke="green" stroke-width="0.04000"/>
    <line x1="74.39455" y1="88.17239" x2="83.97437" y2="96.50000" stroke="green" stroke-width="0.04000"/>
    <line x1="74.39455" y1="88.03989" x2="84.12679" y2="96.50000" stroke="green" stroke-width="0.04000"/>
    <line x1="74.39455" y1="87.90739" x2="84.27922" y2="96.50000" stroke="green" stroke-width="0.04000"/>
    <line x1="74.39455" y1="87.77489" x2="84.43164" y2="96.50000" stroke="green" stroke-width="0.04000"/>
    <line x1="74.39455" y1="87.64239" x2="84.58407" y2="96.50000" stroke="green" stroke-width="0.04000"/>
    <line x1="74.39455" y1="87.50989" x2="84.73650" y2="96.50000" stroke="green" stroke-width="0.04000"/>
    <line x1="74.39455" y1="87.37739" x2="84.88892" y2="96.50000" stroke="green" stroke-width="0.04000"/>
    <line x1="74.39455" y1="87.24489" x2="85.04134" y2="96.50000" stroke="green" stroke-width="0.04000"/>
    <line x1="74.39455" y1="87.11238" x2="85.19377" y2="96.50000" stroke="green" stroke-width="0.04000"/>
    <line x1="74.39455" y1="86.97988" x2="85.34619" y2="96.50000" stroke="green" stroke-width="0.04000"/>
    <line x1="74.39455" y1="86.84738" x2="85.49862" y2="96.50000" stroke="green" stroke-width="0.04000"/>
    <line x1="74.39455" y1="86.71488" x2="85.60545" y2="96.46037" stroke="green" stroke-width="0.04000"/>
    <line x1="74.39455" y1="86.58238" x2="85.60545" y2="96.32787" stroke="green" stroke-width="0.04000"/>
    <line x1="74.39455" y1="86.44987" x2="85.60545" y2="96.19536" stroke="green" stroke-width="0.04000"/>
    <line x1="74.39455" y1="86.31738" x2="85.60545" y2="96.06286" stroke="green" stroke-width="0.04000"/>
    <line x1="74.39455" y1="86.18488" x2="85.60545" y2="95.93036" stroke="green" stroke-width="0.04000"/>
    <line x1="74.39455" y1="86.05238" x2="85.60545" y2="95.79786" stroke="green" stroke-width="0.04000"/>
    <line x1="74.39455" y1="85.91987" x2="85.60545" y2="95.66536" stroke="green" stroke-width="0.04000"/>
    <line x1="74.39455" y1="85.78738" x2="85.60545" y2="95.53286" stroke="green" stroke-width="0.04000"/>
    <line x1="74.39455" y1="85.65487" x2="85.60545" y2="95.40036" stroke="green" stroke-width="0.04000"/>
    <line x1="74.39455" y1="85.52237" x2="85.60545" y2="95.26785" stroke="green" stroke-width="0.04000"/>
    <line x1="74.39455" y1="85.38987" x2="85.60545" y2="95.13535" stroke="green" stroke-width="0.04000"/>
    <line x1="74.39455" y1="85.25736" x2="85.60545" y2="95.00285" stroke="green" stroke-width="0.04000"/>
    <line x1="74.39455" y1="85.12486" x2="85.60545" y2="94.87035" stroke="green" stroke-width="0.04000"/>
    <line x1="74.39455" y1="84.99236" x2="85.60545" y2="94.73785" stroke="green" stroke-width="0.04000"/>
    <line x1="74.39455" y1="84.85986" x2="85.60545" y2="94.60535" stroke="green" stroke-width="0.04000"/>
    <line x1="74.39455" y1="84.72736" x2="85.60545" y2="94.47285" stroke="green" stroke-width="0.04000"/>
    <line x1="74.39455" y1="84.59486" x2="85.60545" y2="94.34035" stroke="green" stroke-width="0.04000"/>
    <line x1="74.39455" y1="84.46236" x2="85.60545" y2="94.20784" stroke="green" stroke-width="0.04000"/>
    <line x1="74.39455" y1="84.32986" x2="85.60545" y2="94.07534" stroke="green" stroke-width="0.04000"/>
    <line x1="74.39455" y1="84.19736" x2="85.60545" y2="93.94284" stroke="green" stroke-width="0.04000"/>
    <line x1="74.39455" y1="84.06486" x2="85.60545" y2="93.81034" stroke="green" stroke-width="0.04000"/>
    <line x1="74.39455" y1="83.93236" x2="85.60545" y2="93.67784" stroke="green" stroke-width="0.04000"/>
    <line x1="74.39455" y1="83.79985" x2="85.60545" y2="93.54533" stroke="green" stroke-width="0.04000"/>
    <line x1="74.39455" y1="83.66735" x2="85.60545" y2="93.41283" stroke="green" stroke-width="0.04000"/>
    <line x1="74.39455" y1="83.53485" x2="85.60545" y2="93.28033" stroke="green" stroke-width="0.04000"/>
    <line x1="74.39455" y1="83.40234" x2="85.60545" y2="93.14783" stroke="green" stroke-width="0.04000"/>
    <line x1="74.39455" y1="83.26984" x2="85.60545" y2="93.01533" stroke="green" stroke-width="0.04000"/>
    <line x1="74.39455" y1="83.13734" x2="85.60545" y2="92.88283" stroke="green" stroke-width="0.04000"/>
    <line x1="74.39455" y1="83.00484" x2="85.60545" y2="92.75033" stroke="green" stroke-width="0.04000"/>
    <line x1="74.39455" y1="82.87234" x2="85.60545" y2="92.61783" stroke="green" stroke-width="0.04000"/>
    <line x1="74.39455" y1="82.73985" x2="85.60545" y2="92.48533" stroke="green" stroke-width="0.04000"/>
    <line x1="74.39455" y1="82.60735" x2="85.60545" y2="92.35283" stroke="green" stroke-width="0.04000"/>
    <line x1="74.39455" y1="82.47484" x2="85.60545" y2="92.22033" stroke="green" stroke-width="0.04000"/>
    <line x1="74.39455" y1="82.34233" x2="85.60545" y2="92.08781" stroke="green" stroke-width="0.04000"/>
    <line x1="74.39455" y1="82.20983" x2="85.60545" y2="91.95531" stroke="green" stroke-width="0.04000"/>
    <line x1="74.39455" y1="82.07733" x2="85.60545" y2="91.82282" stroke="green" stroke-width="0.04000"/>
    <line x1="74.39455" y1="81.94483" x2="85.60545" y2="91.69032" stroke="green" stroke-width="0.04000"/>
    <line x1="74.39455" y1="81.81233" x2="85.60545" y2="91.55782" stroke="green" stroke-width="0.04000"/>
    <line x1="74.39455" y1="81.67983" x2="85.60545" y2="91.42532" stroke="green" stroke-width="0.04000"/>
    <line x1="74.39455" y1="81.54733" x2="85.60545" y2="91.29282" stroke="green" stroke-width="0.04000"/>
    <line x1="74.39455" y1="81.41483" x2="85.60545" y2="91.16032" stroke="green" stroke-width="0.04000"/>
    <line x1="74.39455" y1="81.28233" x2="85.60545" y2="91.02781" stroke="green" stroke-width="0.04000"/>
    <line x1="74.39455" y1="81.14983" x2="85.60545" y2="90.89531" stroke="green" stroke-width="0.04000"/>
    <line x1="74.39455" y1="81.01733" x2="85.60545" y2="90.76281" stroke="green" stroke-width="0.04000"/>
    <line x1="74.39455" y1="80.88482" x2="85.60545" y2="90.63031" stroke="green" stroke-width="0.04000"/>
    <line x1="74.39455" y1="80.75232" x2="85.60545" y2="90.49781" stroke="green" stroke-width="0.04000"/>
    <line x1="74.39455" y1="80.61982" x2="85.60545" y2="90.36531" stroke="green" stroke-width="0.04000"/>
    <line x1="74.39455" y1="80.48732" x2="85.60545" y2="90.23281" stroke="green" stroke-width="0.04000"/>
    <line x1="74.39455" y1="80.35481" x2="85.60545" y2="90.10030" stroke="green" stroke-width="0.04000"/>
    <line x1="74.39455" y1="80.22231" x2="85.60545" y2="89.96780" stroke="green" stroke-width="0.04000"/>
    <line x1="74.39455" y1="80.08981" x2="85.60545" y2="89.83530" stroke="green" stroke-width="0.04000"/>
    <line x1="74.39455" y1="79.95731" x2="85.60545" y2="89.70280" stroke="green" stroke-width="0.04000"/>
    <line x1="74.39455" y1="79.82481" x2="85.60545" y2="89.57030" stroke="green" stroke-width="0.04000"/>
    <line x1="74.39455" y1="79.69231" x2="85.60545" y2="89.43780" stroke="green" stroke-width="0.04000"/>
    <line x1="74.39455" y1="79.55981" x2="85.60545" y2="89.30530" stroke="green" stroke-width="0.04000"/>
    <line x1="74.39455" y1="79.42731" x2="85.60545" y2="89.17280" stroke="green" stroke-width="0.04000"/>
    <line x1="74.39455" y1="79.29481" x2="85.60545" y2="89.04029" stroke="green" stroke-width="0.04000"/>
    <line x1="74.39455" y1="79.16231" x2="85.60545" y2="88.90779" stroke="green" stroke-width="0.04000"/>
    <line x1="74.39455" y1="79.02981" x2="85.60545" y2="88.77529" stroke="green" stroke-width="0.04000"/>
    <line x1="74.39455" y1="78.89730" x2="85.60545" y2="88.64279" stroke="green" stroke-width="0.04000"/>
    <line x1="74.39455" y1="78.76480" x2="85.60545" y2="88.51028" stroke="green" stroke-width="0.04000"/>
    <line x1="74.39455" y1="78.63230" x2="85.60545" y2="88.37779" stroke="green" stroke-width="0.04000"/>
    <line x1="74.39455" y1="78.49980" x2="85.60545" y2="88.24529" stroke="green" stroke-width="0.04000"/>
    <line x1="74.39455" y1="78.36729" x2="85.60545" y2="88.11278" stroke="green" stroke-width="0.04000"/>
    <line x1="74.39455" y1="78.23479" x2="85.60545" y2="87.98028" stroke="green" stroke-width="0.04000"/>
    <line x1="74.39455" y1="78.10229" x2="85.60545" y2="87.84778" stroke="green" stroke-width="0.04000"/>
    <line x1="74.39455" y1="77.96980" x2="85.60545" y2="87.71528" stroke="green" stroke-width="0.04000"/>
    <line x1="74.39455" y1="77.83730" x2="85.60545" y2="87.58278" stroke="green" stroke-width="0.04000"/>
    <line x1="74.39455" y1="77.70479" x2="85.60545" y2="87.45028" stroke="green" stroke-width="0.04000"/>
    <line x1="74.39455" y1="77.57230" x2="85.60545" y2="87.31778" stroke="green" stroke-width="0.04000"/>
    <line x1="74.39455" y1="77.43979" x2="85.60545" y2="87.18528" stroke="green" stroke-width="0.04000"/>
    <line x1="74.39455" y1="77.30729" x2="85.60545" y2="87.05277" stroke="green" stroke-width="0.04000"/>
    <line x1="74.39455" y1="77.17479" x2="85.60545" y2="86.92027" stroke="green" stroke-width="0.04000"/>
    <line x1="74.39455" y1="77.04228" x2="85.60545" y2="86.78777" stroke="green" stroke-width="0.04000"/>
    <line x1="74.39455" y1="76.90978" x2="85.60545" y2="86.65527" stroke="green" stroke-width="0.04000"/>
    <line x1="74.39455" y1="76.77728" x2="85.60545" y2="86.52277" stroke="green" stroke-width="0.04000"/>
    <line x1="74.39455" y1="76.64478" x2="85.60545" y2="86.39027" stroke="green" stroke-width="0.04000"/>
    <line x1="74.39455" y1="76.51228" x2="85.60545" y2="86.25777" stroke="green" stroke-width="0.04000"/>
    <line x1="74.39455" y1="76.37978" x2="85.60545" y2="86.12527" stroke="green" stroke-width="0.04000"/>
    <line x1="74.39455" y1="76.24728" x2="85.60545" y2="85.99276" stroke="green" stroke-width="0.04000"/>
    <line x1="74.39455" y1="76.11478" x2="85.60545" y2="85.86026" stroke="green" stroke-width="0.04000"/>
    <line x1="74.39455" y1="75.98228" x2="85.60545" y2="85.72776" stroke="green" stroke-width="0.04000"/>
    <line x1="74.39455" y1="75.84978" x2="85.60545" y2="85.59526" stroke="green" stroke-width="0.04000"/>
    <line x1="74.39455" y1="75.71727" x2="85.60545" y2="85.46276" stroke="green" stroke-width="0.04000"/>
    <line x1="74.39455" y1="75.58477" x2="85.60545" y2="85.33025" stroke="green" stroke-width="0.04000"/>
    <line x1="74.39455" y1="75.45227" x2="85.60545" y2="85.19775" stroke="green" stroke-width="0.04000"/>
    <line x1="74.39455" y1="75.31977" x2="85.60545" y2="85.06525" stroke="green" stroke-width="0.04000"/>
    <line x1="74.39455" y1="75.18726" x2="85.60545" y2="84.93275" stroke="green" stroke-width="0.04000"/>
    <line x1="74.39455" y1="75.05476" x2="85.60545" y2="84.80025" stroke="green" stroke-width="0.04000"/>
    <line x1="74.39455" y1="74.92226" x2="85.60545" y2="84.66775" stroke="green" stroke-width="0.04000"/>
    <line x1="74.39455" y1="74.78976" x2="85.60545" y2="84.53525" stroke="green" stroke-width="0.04000"/>
    <line x1="74.39455" y1="74.65726" x2="85.60545" y2="84.40275" stroke="green" stroke-width="0.04000"/>
    <line x1="74.39455" y1="74.52477" x2="85.60545" y2="84.27025" stroke="green" stroke-width="0.04000"/>
    <line x1="74.39455" y1="74.39227" x2="85.60545" y2="84.13775" stroke="green" stroke-width="0.04000"/>
    <line x1="74.39455" y1="74.25976" x2="85.60545" y2="84.00524" stroke="green" stroke-width="0.04000"/>
    <line x1="74.39455" y1="74.12725" x2="85.60545" y2="83.87274" stroke="green" stroke-width="0.04000"/>
    <line x1="74.39455" y1="73.99475" x2="85.60545" y2="83.74023" stroke="green" stroke-width="0.04000"/>
    <line x1="74.39455" y1="73.86225" x2="85.60545" y2="83.60774" stroke="green" stroke-width="0.04000"/>
    <line x1="74.39455" y1="73.72975" x2="85.60545" y2="83.47524" stroke="green" stroke-width="0.04000"/>
    <line x1="74.39455" y1="73.59725" x2="85.60545" y2="83.34274" stroke="green" stroke-width="0.04000"/>
    <line x1="74.39455" y1="73.46475" x2="85.60545" y2="83.21024" stroke="green" stroke-width="0.04000"/>
    <line x1="74.39455" y1="73.33225" x2="85.60545" y2="83.07774" stroke="green" stroke-width="0.04000"/>
    <line x1="74.39455" y1="73.19975" x2="85.60545" y2="82.94523" stroke="green" stroke-width="0.04000"/>
    <line x1="74.39455" y1="73.06725" x2="85.60545" y2="82.81273" stroke="green" stroke-width="0.04000"/>
    <line x1="74.39455" y1="72.93475" x2="85.60545" y2="82.68023" stroke="green" stroke-width="0.04000"/>
    <line x1="74.39455" y1="72.80225" x2="85.60545" y2="82.54773" stroke="green" stroke-width="0.04000"/>
    <line x1="74.39455" y1="72.66974" x2="85.60545" y2="82.41523" stroke="green" stroke-width="0.04000"/>
    <line x1="74.39455" y1="72.53724" x2="85.60545" y2="82.28272" stroke="green" stroke-width="0.04000"/>
    <line x1="74.39455" y1="72.40474" x2="85.60545" y2="82.15023" stroke="green" stroke-width="0.04000"/>
    <line x1="74.39455" y1="72.27224" x2="85.60545" y2="82.01773" stroke="green" stroke-width="0.04000"/>
    <line x1="74.39455" y1="72.13973" x2="85.60545" y2="81.88522" stroke="green" stroke-width="0.04000"/>
    <line x1="74.39455" y1="72.00723" x2="85.60545" y2="81.75272" stroke="green" stroke-width="0.04000"/>
    <line x1="74.39455" y1="71.87473" x2="85.60545" y2="81.62022" stroke="green" stroke-width="0.04000"/>
    <line x1="74.39455" y1="71.74223" x2="85.60545" y2="81.48772" stroke="green" stroke-width="0.04000"/>
    <line x1="74.39455" y1="71.60973" x2="85.60545" y2="81.35522" stroke="green" stroke-width="0.04000"/>
    <line x1="74.39455" y1="71.47723" x2="85.60545" y2="81.22272" stroke="green" stroke-width="0.04000"/>
    <line x1="74.39455" y1="71.34473" x2="85.60545" y2="81.09022" stroke="green" stroke-width="0.04000"/>
    <line x1="74.39455" y1="71.21223" x2="85.60545" y2="80.95772" stroke="green" stroke-width="0.04000"/>
    <line x1="74.39455" y1="71.07973" x2="85.60545" y2="80.82521" stroke="green" stroke-width="0.04000"/>
    <line x1="74.39455" y1="70.94723" x2="85.60545" y2="80.69271" stroke="green" stroke-width="0.04000"/>
    <line x1="74.39455" y1="70.81473" x2="85.60545" y2="80.56021" stroke="green" stroke-width="0.04000"/>
    <line x1="74.39455" y1="70.68222" x2="85.60545" y2="80.42771" stroke="green" stroke-width="0.04000"/>
    <line x1="74.39455" y1="70.54972" x2="85.60545" y2="80.29521" stroke="green" stroke-width="0.04000"/>
    <line x1="74.39455" y1="70.41722" x2="85.60545" y2="80.16270" stroke="green" stroke-width="0.04000"/>
    <line x1="74.39455" y1="70.28472" x2="85.60545" y2="80.03021" stroke="green" stroke-width="0.04000"/>
    <line x1="74.39455" y1="70.15221" x2="85.60545" y2="79.89770" stroke="green" stroke-width="0.04000"/>
    <line x1="74.39455" y1="70.01971" x2="85.60545" y2="79.76520" stroke="green" stroke-width="0.04000"/>
    <line x1="74.39455" y1="69.88721" x2="85.60545" y2="79.63270" stroke="green" stroke-width="0.04000"/>
    <line x1="74.39455" y1="69.75471" x2="85.60545" y2="79.50020" stroke="green" stroke-width="0.04000"/>
    <line x1="74.39455" y1="69.62222" x2="85.60545" y2="79.36770" stroke="green" stroke-width="0.04000"/>
    <line x1="74.39455" y1="69.48972" x2="85.60545" y2="79.23520" stroke="green" stroke-width="0.04000"/>
    <line x1="74.39455" y1="69.35721" x2="85.60545" y2="79.10270" stroke="green" stroke-width="0.04000"/>
    <line x1="74.39455" y1="69.22471" x2="85.60545" y2="78.97020" stroke="green" stroke-width="0.04000"/>
    <line x1="74.39455" y1="69.09220" x2="85.60545" y2="78.83769" stroke="green" stroke-width="0.04000"/>
    <line x1="74.39455" y1="68.95970" x2="85.60545" y2="78.70519" stroke="green" stroke-width="0.04000"/>
    <line x1="74.39455" y1="68.82721" x2="85.60545" y2="78.57269" stroke="green" stroke-width="0.04000"/>
    <line x1="74.39455" y1="68.69470" x2="85.60545" y2="78.44019" stroke="green" stroke-width="0.04000"/>
    <line x1="74.39455" y1="68.56219" x2="85.60545" y2="78.30769" stroke="green" stroke-width="0.04000"/>
    <line x1="74.39455" y1="68.42970" x2="85.60545" y2="78.17519" stroke="green" stroke-width="0.04000"/>
    <line x1="74.39455" y1="68.29720" x2="85.60545" y2="78.04269" stroke="green" stroke-width="0.04000"/>
    <line x1="74.39455" y1="68.16470" x2="85.60545" y2="77.91019" stroke="green" stroke-width="0.04000"/>
    <line x1="74.39455" y1="68.03220" x2="85.60545" y2="77.77768" stroke="green" stroke-width="0.04000"/>
    <line x1="74.39455" y1="67.89969" x2="85.60545" y2="77.64518" stroke="green" stroke-width="0.04000"/>
    <line x1="74.39455" y1="67.76720" x2="85.60545" y2="77.51268" stroke="green" stroke-width="0.04000"/>
    <line x1="74.39455" y1="67.63469" x2="85.60545" y2="77.38018" stroke="green" stroke-width="0.04000"/>
    <line x1="74.39455" y1="67.50220" x2="85.60545" y2="77.24768" stroke="green" stroke-width="0.04000"/>
    <line x1="74.39455" y1="67.36969" x2="85.60545" y2="77.11517" stroke="green" stroke-width="0.04000"/>
    <line x1="74.39455" y1="67.23719" x2="85.60545" y2="76.98267" stroke="green" stroke-width="0.04000"/>
    <line x1="74.39455" y1="67.10469" x2="85.60545" y2="76.85017" stroke="green" stroke-width="0.04000"/>
    <line x1="74.39455" y1="66.97218" x2="85.60545" y2="76.71767" stroke="green" stroke-width="0.04000"/>
    <line x1="74.39455" y1="66.83968" x2="85.60545" y2="76.58517" stroke="green" stroke-width="0.04000"/>
    <line x1="74.39455" y1="66.70718" x2="85.60545" y2="76.45267" stroke="green" stroke-width="0.04000"/>
    <line x1="74.39455" y1="66.57468" x2="85.60545" y2="76.32017" stroke="green" stroke-width="0.04000"/>
    <line x1="74.39455" y1="66.44218" x2="85.60545" y2="76.18767" stroke="green" stroke-width="0.04000"/>
    <line x1="74.39455" y1="66.30968" x2="85.60545" y2="76.05517" stroke="green" stroke-width="0.04000"/>
    <line x1="74.39455" y1="66.17719" x2="85.60545" y2="75.92267" stroke="green" stroke-width="0.04000"/>
    <line x1="74.39455" y1="66.04468" x2="85.60545" y2="75.79016" stroke="green" stroke-width="0.04000"/>
    <line x1="74.39455" y1="65.91217" x2="85.60545" y2="75.65766" stroke="green" stroke-width="0.04000"/>
    <line x1="74.39455" y1="65.77968" x2="85.60545" y2="75.52516" stroke="green" stroke-width="0.04000"/>
    <line x1="74.39455" y1="65.64717" x2="85.60545" y2="75.39266" stroke="green" stroke-width="0.04000"/>
    <line x1="74.39455" y1="65.51467" x2="85.60545" y2="75.26015" stroke="green" stroke-width="0.04000"/>
    <line x1="74.39455" y1="65.38217" x2="85.60545" y2="75.12766" stroke="green" stroke-width="0.04000"/>
    <line x1="74.39455" y1="65.24966" x2="85.60545" y2="74.99516" stroke="green" stroke-width="0.04000"/>
    <line x1="74.39455" y1="65.11717" x2="85.60545" y2="74.86266" stroke="green" stroke-width="0.04000"/>
    <line x1="74.39455" y1="64.98466" x2="85.60545" y2="74.73015" stroke="green" stroke-width="0.04000"/>
    <line x1="74.39455" y1="64.85217" x2="85.60545" y2="74.59765" stroke="green" stroke-width="0.04000"/>
    <line x1="74.39455" y1="64.71967" x2="85.60545" y2="74.46515" stroke="green" stroke-width="0.04000"/>
    <line x1="74.39455" y1="64.58717" x2="85.60545" y2="74.33265" stroke="green" stroke-width="0.04000"/>
    <line x1="74.39455" y1="64.45466" x2="85.60545" y2="74.20015" stroke="green" stroke-width="0.04000"/>
    <line x1="74.39455" y1="64.32216" x2="85.60545" y2="74.06764" stroke="green" stroke-width="0.04000"/>
    <line x1="74.39455" y1="64.18966" x2="85.60545" y2="73.93515" stroke="green" stroke-width="0.04000"/>
    <line x1="74.39455" y1="64.05716" x2="85.60545" y2="73.80265" stroke="green" stroke-width="0.04000"/>
    <line x1="74.39455" y1="63.92466" x2="85.60545" y2="73.67014" stroke="green" stroke-width="0.04000"/>
    <line x1="74.39455" y1="63.79215" x2="85.60545" y2="73.53764" stroke="green" stroke-width="0.04000"/>
    <line x1="74.39455" y1="63.65965" x2="85.60545" y2="73.40514" stroke="green" stroke-width="0.04000"/>
    <line x1="74.39455" y1="63.52716" x2="85.60545" y2="73.27264" stroke="green" stroke-width="0.04000"/>
    <line x1="74.39455" y1="63.39465" x2="85.60545" y2="73.14014" stroke="green" stroke-width="0.04000"/>
    <line x1="74.39455" y1="63.26215" x2="85.60545" y2="73.00764" stroke="green" stroke-width="0.04000"/>
    <line x1="74.39455" y1="63.12965" x2="85.60545" y2="72.87514" stroke="green" stroke-width="0.04000"/>
    <line x1="74.39455" y1="62.99715" x2="85.60545" y2="72.74263" stroke="green" stroke-width="0.04000"/>
    <line x1="74.39455" y1="62.86464" x2="85.60545" y2="72.61013" stroke="green" stroke-width="0.04000"/>
    <line x1="74.39455" y1="62.73214" x2="85.60545" y2="72.47763" stroke="green" stroke-width="0.04000"/>
    <line x1="74.39455" y1="62.59964" x2="85.60545" y2="72.34513" stroke="green" stroke-width="0.04000"/>
    <line x1="74.39455" y1="62.46714" x2="85.60545" y2="72.21263" stroke="green" stroke-width="0.04000"/>
    <line x1="74.39455" y1="62.33464" x2="85.60545" y2="72.08013" stroke="green" stroke-width="0.04000"/>
    <line x1="74.39455" y1="62.20214" x2="85.60545" y2="71.94762" stroke="green" stroke-width="0.04000"/>
    <line x1="74.39455" y1="62.06964" x2="85.60545" y2="71.81512" stroke="green" stroke-width="0.04000"/>
    <line x1="74.39455" y1="61.93713" x2="85.60545" y2="71.68262" stroke="green" stroke-width="0.04000"/>
    <line x1="74.39455" y1="61.80463" x2="85.60545" y2="71.55012" stroke="green" stroke-width="0.04000"/>
    <line x1="74.39455" y1="61.67213" x2="85.60545" y2="71.41762" stroke="green" stroke-width="0.04000"/>
    <line x1="74.39455" y1="61.53963" x2="85.60545" y2="71.28512" stroke="green" stroke-width="0.04000"/>
    <line x1="74.50139" y1="61.50000" x2="85.60545" y2="71.15262" stroke="green" stroke-width="0.04000"/>
    <line x1="74.65381" y1="61.50000" x2="85.60545" y2="71.02012" stroke="green" stroke-width="0.04000"/>
    <line x1="74.80624" y1="61.50000" x2="85.60545" y2="70.88762" stroke="green" stroke-width="0.04000"/>
    <line x1="74.95866" y1="61.50000" x2="85.60545" y2="70.75512" stroke="green" stroke-width="0.04000"/>
    <line x1="75.11109" y1="61.50000" x2="85.60545" y2="70.62261" stroke="green" stroke-width="0.04000"/>
    <line x1="75.26351" y1="61.50000" x2="85.60545" y2="70.49011" stroke="green" stroke-width="0.04000"/>
    <line x1="75.41594" y1="61.50000" x2="85.60545" y2="70.35761" stroke="green" stroke-width="0.04000"/>
    <line x1="75.56836" y1="61.50000" x2="85.60545" y2="70.22511" stroke="green" stroke-width="0.04000"/>
    <line x1="75.72079" y1="61.50000" x2="85.60545" y2="70.09261" stroke="green" stroke-width="0.04000"/>
    <line x1="75.87321" y1="61.50000" x2="85.60545" y2="69.96011" stroke="green" stroke-width="0.04000"/>
    <line x1="76.02563" y1="61.50000" x2="85.60545" y2="69.82761" stroke="green" stroke-width="0.04000"/>
    <line x1="76.17806" y1="61.50000" x2="85.60545" y2="69.69511" stroke="green" stroke-width="0.04000"/>
    <line x1="76.33049" y1="61.50000" x2="85.60545" y2="69.56260" stroke="green" stroke-width="0.04000"/>
    <line x1="76.48292" y1="61.50000" x2="85.60545" y2="69.43010" stroke="green" stroke-width="0.04000"/>
    <line x1="76.63534" y1="61.50000" x2="85.60545" y2="69.29760" stroke="green" stroke-width="0.04000"/>
    <line x1="76.78777" y1="61.50000" x2="85.60545" y2="69.16510" stroke="green" stroke-width="0.04000"/>
    <line x1="76.94019" y1="61.50000" x2="85.60545" y2="69.03259" stroke="green" stroke-width="0.04000"/>
    <line x1="77.09261" y1="61.50000" x2="85.60545" y2="68.90010" stroke="green" stroke-width="0.04000"/>
    <line x1="77.24504" y1="61.50000" x2="85.60545" y2="68.76759" stroke="green" stroke-width="0.04000"/>
    <line x1="77.39747" y1="61.50000" x2="85.60545" y2="68.63509" stroke="green" stroke-width="0.04000"/>
    <line x1="77.54990" y1="61.50000" x2="85.60545" y2="68.50259" stroke="green" stroke-width="0.04000"/>
    <line x1="77.70232" y1="61.50000" x2="85.60545" y2="68.37009" stroke="green" stroke-width="0.04000"/>
    <line x1="77.85474" y1="61.50000" x2="85.60545" y2="68.23759" stroke="green" stroke-width="0.04000"/>
    <line x1="78.00716" y1="61.50000" x2="85.60545" y2="68.10509" stroke="green" stroke-width="0.04000"/>
    <line x1="78.15959" y1="61.50000" x2="85.60545" y2="67.97259" stroke="green" stroke-width="0.04000"/>
    <line x1="78.31202" y1="61.50000" x2="85.60545" y2="67.84009" stroke="green" stroke-width="0.04000"/>
    <line x1="78.46444" y1="61.50000" x2="85.60545" y2="67.70759" stroke="green" stroke-width="0.04000"/>
    <line x1="78.61687" y1="61.50000" x2="85.60545" y2="67.57508" stroke="green" stroke-width="0.04000"/>
    <line x1="78.76929" y1="61.50000" x2="85.60545" y2="67.44258" stroke="green" stroke-width="0.04000"/>
    <line x1="78.92172" y1="61.50000" x2="85.60545" y2="67.31007" stroke="green" stroke-width="0.04000"/>
    <line x1="79.07414" y1="61.50000" x2="85.60545" y2="67.17758" stroke="green" stroke-width="0.04000"/>
    <line x1="79.22657" y1="61.50000" x2="85.60545" y2="67.04507" stroke="green" stroke-width="0.04000"/>
    <line x1="79.37900" y1="61.50000" x2="85.60545" y2="66.91258" stroke="green" stroke-width="0.04000"/>
    <line x1="79.53142" y1="61.50000" x2="85.60545" y2="66.78008" stroke="green" stroke-width="0.04000"/>
    <line x1="79.68385" y1="61.50000" x2="85.60545" y2="66.64758" stroke="green" stroke-width="0.04000"/>
    <line x1="79.83627" y1="61.50000" x2="85.60545" y2="66.51508" stroke="green" stroke-width="0.04000"/>
    <line x1="79.98869" y1="61.50000" x2="85.60545" y2="66.38257" stroke="green" stroke-width="0.04000"/>
    <line x1="80.14112" y1="61.50000" x2="85.60545" y2="66.25007" stroke="green" stroke-width="0.04000"/>
    <line x1="80.29355" y1="61.50000" x2="85.60545" y2="66.11757" stroke="green" stroke-width="0.04000"/>
    <line x1="80.44598" y1="61.50000" x2="85.60545" y2="65.98506" stroke="green" stroke-width="0.04000"/>
    <line x1="80.59840" y1="61.50000" x2="85.60545" y2="65.85257" stroke="green" stroke-width="0.04000"/>
    <line x1="80.75082" y1="61.50000" x2="85.60545" y2="65.72006" stroke="green" stroke-width="0.04000"/>
    <line x1="80.90325" y1="61.50000" x2="85.60545" y2="65.58756" stroke="green" stroke-width="0.04000"/>
    <line x1="81.05567" y1="61.50000" x2="85.60545" y2="65.45506" stroke="green" stroke-width="0.04000"/>
    <line x1="81.20810" y1="61.50000" x2="85.60545" y2="65.32256" stroke="green" stroke-width="0.04000"/>
    <line x1="81.36053" y1="61.50000" x2="85.60545" y2="65.19006" stroke="green" stroke-width="0.04000"/>
    <line x1="81.51295" y1="61.50000" x2="85.60545" y2="65.05756" stroke="green" stroke-width="0.04000"/>
    <line x1="81.66537" y1="61.50000" x2="85.60545" y2="64.92506" stroke="green" stroke-width="0.04000"/>
    <line x1="81.81780" y1="61.50000" x2="85.60545" y2="64.79256" stroke="green" stroke-width="0.04000"/>
    <line x1="81.97022" y1="61.50000" x2="85.60545" y2="64.66005" stroke="green" stroke-width="0.04000"/>
    <line x1="82.12265" y1="61.50000" x2="85.60545" y2="64.52755" stroke="green" stroke-width="0.04000"/>
    <line x1="82.27508" y1="61.50000" x2="85.60545" y2="64.39505" stroke="green" stroke-width="0.04000"/>
    <line x1="82.42751" y1="61.50000" x2="85.60545" y2="64.26255" stroke="green" stroke-width="0.04000"/>
    <line x1="82.57993" y1="61.50000" x2="85.60545" y2="64.13005" stroke="green" stroke-width="0.04000"/>
    <line x1="82.73235" y1="61.50000" x2="85.60545" y2="63.99755" stroke="green" stroke-width="0.04000"/>
    <line x1="82.88477" y1="61.50000" x2="85.60545" y2="63.86505" stroke="green" stroke-width="0.04000"/>
    <line x1="83.03720" y1="61.50000" x2="85.60545" y2="63.73255" stroke="green" stroke-width="0.04000"/>
    <line x1="83.18962" y1="61.50000" x2="85.60545" y2="63.60005" stroke="green" stroke-width="0.04000"/>
    <line x1="83.34206" y1="61.50000" x2="85.60545" y2="63.46754" stroke="green" stroke-width="0.04000"/>
    <line x1="83.49448" y1="61.50000" x2="85.60545" y2="63.33504" stroke="green" stroke-width="0.04000"/>
    <line x1="83.64690" y1="61.50000" x2="85.60545" y2="63.20254" stroke="green" stroke-width="0.04000"/>
    <line x1="83.79933" y1="61.50000" x2="85.60545" y2="63.07004" stroke="green" stroke-width="0.04000"/>
    <line x1="83.95176" y1="61.50000" x2="85.60545" y2="62.93753" stroke="green" stroke-width="0.04000"/>
    <line x1="84.10418" y1="61.50000" x2="85.60545" y2="62.80504" stroke="green" stroke-width="0.04000"/>
    <line x1="84.25661" y1="61.50000" x2="85.60545" y2="62.67253" stroke="green" stroke-width="0.04000"/>
    <line x1="84.40903" y1="61.50000" x2="85.60545" y2="62.54004" stroke="green" stroke-width="0.04000"/>
    <line x1="84.56145" y1="61.50000" x2="85.60545" y2="62.40753" stroke="green" stroke-width="0.04000"/>
    <line x1="84.71388" y1="61.50000" x2="85.60545" y2="62.27503" stroke="green" stroke-width="0.04000"/>
    <line x1="84.86631" y1="61.50000" x2="85.60545" y2="62.14253" stroke="green" stroke-width="0.04000"/>
    <line x1="85.01873" y1="61.50000" x2="85.60545" y2="62.01003" stroke="green" stroke-width="0.04000"/>
    <line x1="85.17116" y1="61.50000" x2="85.60545" y2="61.87753" stroke="green" stroke-width="0.04000"/>
    <line x1="85.32359" y1="61.50000" x2="85.60545" y2="61.74503" stroke="green" stroke-width="0.04000"/>
    <line x1="85.47601" y1="61.50000" x2="85.60545" y2="61.61253" stroke="green" stroke-width="0.04000"/>
    <path d="M 85.6055 96.5 L 74.3946 96.5 L 74.3946 61.5 L 85.6055 61.5 L 85.6055 96.5" fill="none" stroke="blue" stroke-width="0.04000" fill-rule="evenodd" fill-opacity="1.000"/>
  </g>
</svg>
