<?xml version="1.0" encoding="UTF-8" standalone="yes"?>
<svg xmlns="http://www.w3.org/2000/svg"
     xmlns:xlink="http://www.w3.org/1999/xlink"
     width="2020.0000mm" height="1600.0000mm"
     viewBox="0 0 202.000000 160.000000">
  <!--
    Build plate : 150.00 x 150.00 mm
    Coordinate  : 1 SVG unit = 1 mm
    Display zoom: 10x  (width/height = viewBox x 10)
    Hatch stroke: 0.04 mm = ~28 mm on screen at this zoom
    Legend panel: right margin (42 mm wide)
  -->
  <defs>
    <marker id="endArrow" markerWidth="2" markerHeight="1.4"
            refX="0" refY="0.7" orient="auto"
            markerUnits="strokeWidth">
      <polyline fill="darkblue" points="0,0 2,0.7 0,1.4 0.2,0.7"/>
    </marker>
  </defs>
  <!-- Background -->
  <rect x="0" y="0" width="202.000000" height="160.000000" fill="#f0f0f0" stroke="none"/>
  <!-- Build plate boundary (150 x 150 mm) -->
  <rect x="5.000000" y="5.000000" width="150.000000" height="150.000000"
        fill="#ffffff" stroke="#aaaaaa" stroke-width="0.2" stroke-dasharray="1,0.5"/>
  <!-- Build plate centre circle (r = 75.00 mm) -->
  <circle cx="80.000000" cy="80.000000" r="75.000000"
          fill="none" stroke="#bbbbbb" stroke-width="0.15" stroke-dasharray="0.8,0.4"/>
  <!-- Centre cross-hair -->
  <line x1="5.000000" y1="80.000000" x2="155.000000" y2="80.000000" stroke="#cccccc" stroke-width="0.1"/>
  <line x1="80.000000" y1="5.000000" x2="80.000000" y2="155.000000" stroke="#cccccc" stroke-width="0.1"/>
  <circle cx="80.000000" cy="80.000000" r="0.3" fill="#cccccc" stroke="none"/>
  <!-- Corner labels -->
  <text x="5.400000" y="4.600000" font-family="sans-serif" font-size="2" fill="#888888">0,0</text>
  <text x="154.600006" y="4.600000" font-family="sans-serif" font-size="2" fill="#888888" text-anchor="end">150,0</text>
  <text x="5.400000" y="157.199997" font-family="sans-serif" font-size="2" fill="#888888">0,150</text>
  <!-- Layer geometry -->
  <g id="geometry">
    <line x1="123.84069" y1="90.37424" x2="123.62379" y2="90.26845" stroke="green" stroke-width="0.04000"/>
    <line x1="124.06880" y1="90.37424" x2="123.62379" y2="90.15719" stroke="green" stroke-width="0.04000"/>
    <line x1="124.29691" y1="90.37424" x2="123.62379" y2="90.04593" stroke="green" stroke-width="0.04000"/>
    <line x1="124.52504" y1="90.37424" x2="123.62379" y2="89.93467" stroke="green" stroke-width="0.04000"/>
    <line x1="124.75315" y1="90.37424" x2="123.62379" y2="89.82341" stroke="green" stroke-width="0.04000"/>
    <line x1="124.98127" y1="90.37424" x2="123.62379" y2="89.71215" stroke="green" stroke-width="0.04000"/>
    <line x1="125.20939" y1="90.37424" x2="123.62379" y2="89.60088" stroke="green" stroke-width="0.04000"/>
    <line x1="125.43751" y1="90.37424" x2="123.62379" y2="89.48962" stroke="green" stroke-width="0.04000"/>
    <line x1="125.66562" y1="90.37424" x2="123.62379" y2="89.37836" stroke="green" stroke-width="0.04000"/>
    <line x1="125.89375" y1="90.37424" x2="123.62379" y2="89.26711" stroke="green" stroke-width="0.04000"/>
    <line x1="126.12186" y1="90.37424" x2="123.62379" y2="89.15585" stroke="green" stroke-width="0.04000"/>
    <line x1="126.34998" y1="90.37424" x2="123.62379" y2="89.04459" stroke="green" stroke-width="0.04000"/>
    <line x1="126.57809" y1="90.37424" x2="123.62379" y2="88.93333" stroke="green" stroke-width="0.04000"/>
    <line x1="126.80621" y1="90.37424" x2="123.62379" y2="88.82207" stroke="green" stroke-width="0.04000"/>
    <line x1="127.03432" y1="90.37424" x2="123.62379" y2="88.71081" stroke="green" stroke-width="0.04000"/>
    <line x1="127.26244" y1="90.37424" x2="123.62379" y2="88.59955" stroke="green" stroke-width="0.04000"/>
    <line x1="127.49055" y1="90.37424" x2="123.62379" y2="88.48829" stroke="green" stroke-width="0.04000"/>
    <line x1="127.71867" y1="90.37424" x2="123.62379" y2="88.37703" stroke="green" stroke-width="0.04000"/>
    <line x1="127.94680" y1="90.37424" x2="123.62379" y2="88.26576" stroke="green" stroke-width="0.04000"/>
    <line x1="128.17491" y1="90.37424" x2="123.62379" y2="88.15450" stroke="green" stroke-width="0.04000"/>
    <line x1="128.40302" y1="90.37424" x2="123.62379" y2="88.04324" stroke="green" stroke-width="0.04000"/>
    <line x1="128.63115" y1="90.37424" x2="123.62379" y2="87.93198" stroke="green" stroke-width="0.04000"/>
    <line x1="128.85927" y1="90.37424" x2="123.62379" y2="87.82072" stroke="green" stroke-width="0.04000"/>
    <line x1="129.08737" y1="90.37424" x2="123.62379" y2="87.70947" stroke="green" stroke-width="0.04000"/>
    <line x1="129.31549" y1="90.37424" x2="123.62379" y2="87.59821" stroke="green" stroke-width="0.04000"/>
    <line x1="129.54361" y1="90.37424" x2="123.62379" y2="87.48695" stroke="green" stroke-width="0.04000"/>
    <line x1="129.77173" y1="90.37424" x2="123.62379" y2="87.37569" stroke="green" stroke-width="0.04000"/>
    <line x1="129.99985" y1="90.37424" x2="123.62379" y2="87.26442" stroke="green" stroke-width="0.04000"/>
    <line x1="130.22797" y1="90.37424" x2="123.62379" y2="87.15317" stroke="green" stroke-width="0.04000"/>
    <line x1="130.45609" y1="90.37424" x2="123.62379" y2="87.04190" stroke="green" stroke-width="0.04000"/>
    <line x1="130.68420" y1="90.37424" x2="123.62379" y2="86.93064" stroke="green" stroke-width="0.04000"/>
    <line x1="130.91232" y1="90.37424" x2="123.62379" y2="86.81938" stroke="green" stroke-width="0.04000"/>
    <line x1="131.14044" y1="90.37424" x2="123.62379" y2="86.70812" stroke="green" stroke-width="0.04000"/>
    <line x1="131.36856" y1="90.37424" x2="123.62379" y2="86.59686" stroke="green" stroke-width="0.04000"/>
    <line x1="131.59666" y1="90.37424" x2="123.62379" y2="86.48560" stroke="green" stroke-width="0.04000"/>
    <line x1="131.82478" y1="90.37424" x2="123.62379" y2="86.37434" stroke="green" stroke-width="0.04000"/>
    <line x1="132.05290" y1="90.37424" x2="123.62379" y2="86.26308" stroke="green" stroke-width="0.04000"/>
    <line x1="132.28102" y1="90.37424" x2="123.62379" y2="86.15182" stroke="green" stroke-width="0.04000"/>
    <line x1="132.50914" y1="90.37424" x2="123.62379" y2="86.04056" stroke="green" stroke-width="0.04000"/>
    <line x1="132.73724" y1="90.37424" x2="123.62379" y2="85.92930" stroke="green" stroke-width="0.04000"/>
    <line x1="132.96538" y1="90.37424" x2="123.62379" y2="85.81804" stroke="green" stroke-width="0.04000"/>
    <line x1="133.19350" y1="90.37424" x2="123.62379" y2="85.70678" stroke="green" stroke-width="0.04000"/>
    <line x1="133.42160" y1="90.37424" x2="123.62379" y2="85.59552" stroke="green" stroke-width="0.04000"/>
    <line x1="133.64973" y1="90.37424" x2="123.62379" y2="85.48426" stroke="green" stroke-width="0.04000"/>
    <line x1="133.87785" y1="90.37424" x2="123.62379" y2="85.37300" stroke="green" stroke-width="0.04000"/>
    <line x1="134.10596" y1="90.37424" x2="123.62379" y2="85.26174" stroke="green" stroke-width="0.04000"/>
    <line x1="134.33408" y1="90.37424" x2="123.62379" y2="85.15047" stroke="green" stroke-width="0.04000"/>
    <line x1="134.56219" y1="90.37424" x2="123.62379" y2="85.03922" stroke="green" stroke-width="0.04000"/>
    <line x1="134.79030" y1="90.37424" x2="123.62379" y2="84.92796" stroke="green" stroke-width="0.04000"/>
    <line x1="135.01843" y1="90.37424" x2="123.62379" y2="84.81670" stroke="green" stroke-width="0.04000"/>
    <line x1="135.24655" y1="90.37424" x2="123.62379" y2="84.70544" stroke="green" stroke-width="0.04000"/>
    <line x1="135.47466" y1="90.37424" x2="123.62379" y2="84.59418" stroke="green" stroke-width="0.04000"/>
    <line x1="135.70279" y1="90.37424" x2="123.62379" y2="84.48292" stroke="green" stroke-width="0.04000"/>
    <line x1="135.93091" y1="90.37424" x2="123.62379" y2="84.37166" stroke="green" stroke-width="0.04000"/>
    <line x1="136.15901" y1="90.37424" x2="123.62379" y2="84.26040" stroke="green" stroke-width="0.04000"/>
    <line x1="136.32379" y1="90.34334" x2="123.62379" y2="84.14913" stroke="green" stroke-width="0.04000"/>
    <line x1="136.32379" y1="90.23209" x2="123.62379" y2="84.03788" stroke="green" stroke-width="0.04000"/>
    <line x1="136.32379" y1="90.12083" x2="123.62379" y2="83.92662" stroke="green" stroke-width="0.04000"/>
    <line x1="136.32379" y1="90.00957" x2="123.62379" y2="83.81535" stroke="green" stroke-width="0.04000"/>
    <line x1="136.32379" y1="89.89831" x2="123.62379" y2="83.70410" stroke="green" stroke-width="0.04000"/>
    <line x1="136.32379" y1="89.78705" x2="123.62379" y2="83.59283" stroke="green" stroke-width="0.04000"/>
    <line x1="136.32379" y1="89.67578" x2="123.62379" y2="83.48158" stroke="green" stroke-width="0.04000"/>
    <line x1="136.32379" y1="89.56452" x2="123.62379" y2="83.37032" stroke="green" stroke-width="0.04000"/>
    <line x1="136.32379" y1="89.45326" x2="123.62379" y2="83.25906" stroke="green" stroke-width="0.04000"/>
    <line x1="136.32379" y1="89.34200" x2="123.62379" y2="83.14780" stroke="green" stroke-width="0.04000"/>
    <line x1="136.32379" y1="89.23074" x2="123.62379" y2="83.03654" stroke="green" stroke-width="0.04000"/>
    <line x1="136.32379" y1="89.11948" x2="123.62379" y2="82.92528" stroke="green" stroke-width="0.04000"/>
    <line x1="136.32379" y1="89.00822" x2="123.62379" y2="82.81402" stroke="green" stroke-width="0.04000"/>
    <line x1="136.32379" y1="88.89697" x2="123.62379" y2="82.70276" stroke="green" stroke-width="0.04000"/>
    <line x1="136.32379" y1="88.78571" x2="123.62379" y2="82.59150" stroke="green" stroke-width="0.04000"/>
    <line x1="136.32379" y1="88.67444" x2="123.62379" y2="82.48023" stroke="green" stroke-width="0.04000"/>
    <line x1="136.32379" y1="88.56318" x2="123.62379" y2="82.36897" stroke="green" stroke-width="0.04000"/>
    <line x1="136.32379" y1="88.45192" x2="123.62379" y2="82.25771" stroke="green" stroke-width="0.04000"/>
    <line x1="136.32379" y1="88.34066" x2="123.62379" y2="82.14645" stroke="green" stroke-width="0.04000"/>
    <line x1="136.32379" y1="88.22940" x2="123.62379" y2="82.03519" stroke="green" stroke-width="0.04000"/>
    <line x1="136.32379" y1="88.11814" x2="123.62379" y2="81.92393" stroke="green" stroke-width="0.04000"/>
    <line x1="136.32379" y1="88.00688" x2="123.62379" y2="81.81268" stroke="green" stroke-width="0.04000"/>
    <line x1="136.32379" y1="87.89561" x2="123.62379" y2="81.70142" stroke="green" stroke-width="0.04000"/>
    <line x1="136.32379" y1="87.78436" x2="123.62379" y2="81.59016" stroke="green" stroke-width="0.04000"/>
    <line x1="136.32379" y1="87.67310" x2="123.62379" y2="81.47889" stroke="green" stroke-width="0.04000"/>
    <line x1="136.32379" y1="87.56184" x2="123.62379" y2="81.36764" stroke="green" stroke-width="0.04000"/>
    <line x1="136.32379" y1="87.45058" x2="123.62379" y2="81.25637" stroke="green" stroke-width="0.04000"/>
    <line x1="136.32379" y1="87.33932" x2="123.62379" y2="81.14511" stroke="green" stroke-width="0.04000"/>
    <line x1="136.32379" y1="87.22806" x2="123.62379" y2="81.03385" stroke="green" stroke-width="0.04000"/>
    <line x1="136.32379" y1="87.11680" x2="123.62379" y2="80.92259" stroke="green" stroke-width="0.04000"/>
    <line x1="136.32379" y1="87.00554" x2="123.62379" y2="80.81133" stroke="green" stroke-width="0.04000"/>
    <line x1="136.32379" y1="86.89427" x2="123.62379" y2="80.70007" stroke="green" stroke-width="0.04000"/>
    <line x1="136.32379" y1="86.78301" x2="123.62379" y2="80.58881" stroke="green" stroke-width="0.04000"/>
    <line x1="136.32379" y1="86.67175" x2="123.62379" y2="80.47755" stroke="green" stroke-width="0.04000"/>
    <line x1="136.32379" y1="86.56050" x2="123.62379" y2="80.36629" stroke="green" stroke-width="0.04000"/>
    <line x1="136.32379" y1="86.44923" x2="123.62379" y2="80.25503" stroke="green" stroke-width="0.04000"/>
    <line x1="136.32379" y1="86.33797" x2="123.62379" y2="80.14377" stroke="green" stroke-width="0.04000"/>
    <line x1="136.32379" y1="86.22672" x2="123.62379" y2="80.03251" stroke="green" stroke-width="0.04000"/>
    <line x1="136.32379" y1="86.11546" x2="123.62379" y2="79.92125" stroke="green" stroke-width="0.04000"/>
    <line x1="136.32379" y1="86.00420" x2="123.62379" y2="79.80999" stroke="green" stroke-width="0.04000"/>
    <line x1="136.32379" y1="85.89294" x2="123.62379" y2="79.69872" stroke="green" stroke-width="0.04000"/>
    <line x1="136.32379" y1="85.78168" x2="123.62379" y2="79.58747" stroke="green" stroke-width="0.04000"/>
    <line x1="136.32379" y1="85.67042" x2="123.62379" y2="79.47621" stroke="green" stroke-width="0.04000"/>
    <line x1="136.32379" y1="85.55915" x2="123.62379" y2="79.36494" stroke="green" stroke-width="0.04000"/>
    <line x1="136.32379" y1="85.44789" x2="123.62379" y2="79.25368" stroke="green" stroke-width="0.04000"/>
    <line x1="136.32379" y1="85.33664" x2="123.62379" y2="79.14243" stroke="green" stroke-width="0.04000"/>
    <line x1="136.32379" y1="85.22537" x2="123.62379" y2="79.03117" stroke="green" stroke-width="0.04000"/>
    <line x1="136.32379" y1="85.11411" x2="123.62379" y2="78.91991" stroke="green" stroke-width="0.04000"/>
    <line x1="136.32379" y1="85.00286" x2="123.62379" y2="78.80865" stroke="green" stroke-width="0.04000"/>
    <line x1="136.32379" y1="84.89159" x2="123.62379" y2="78.69739" stroke="green" stroke-width="0.04000"/>
    <line x1="136.32379" y1="84.78033" x2="123.62379" y2="78.58613" stroke="green" stroke-width="0.04000"/>
    <line x1="136.32379" y1="84.66908" x2="123.62379" y2="78.47487" stroke="green" stroke-width="0.04000"/>
    <line x1="136.32379" y1="84.55782" x2="123.62379" y2="78.36360" stroke="green" stroke-width="0.04000"/>
    <line x1="136.32379" y1="84.44655" x2="123.62379" y2="78.25235" stroke="green" stroke-width="0.04000"/>
    <line x1="136.32379" y1="84.33530" x2="123.62379" y2="78.14109" stroke="green" stroke-width="0.04000"/>
    <line x1="136.32379" y1="84.22403" x2="123.62379" y2="78.02982" stroke="green" stroke-width="0.04000"/>
    <line x1="136.32379" y1="84.11278" x2="123.62379" y2="77.91857" stroke="green" stroke-width="0.04000"/>
    <line x1="136.32379" y1="84.00152" x2="123.62379" y2="77.80730" stroke="green" stroke-width="0.04000"/>
    <line x1="136.32379" y1="83.89025" x2="123.62379" y2="77.69604" stroke="green" stroke-width="0.04000"/>
    <line x1="136.32379" y1="83.77899" x2="123.62379" y2="77.58479" stroke="green" stroke-width="0.04000"/>
    <line x1="136.32379" y1="83.66773" x2="123.62379" y2="77.47353" stroke="green" stroke-width="0.04000"/>
    <line x1="136.32379" y1="83.55647" x2="123.62379" y2="77.36227" stroke="green" stroke-width="0.04000"/>
    <line x1="136.32379" y1="83.44521" x2="123.62379" y2="77.25101" stroke="green" stroke-width="0.04000"/>
    <line x1="136.32379" y1="83.33395" x2="123.62379" y2="77.13975" stroke="green" stroke-width="0.04000"/>
    <line x1="136.32379" y1="83.22269" x2="123.62379" y2="77.02848" stroke="green" stroke-width="0.04000"/>
    <line x1="136.32379" y1="83.11143" x2="123.62379" y2="76.91723" stroke="green" stroke-width="0.04000"/>
    <line x1="136.32379" y1="83.00018" x2="123.62379" y2="76.80596" stroke="green" stroke-width="0.04000"/>
    <line x1="136.32379" y1="82.88892" x2="123.62379" y2="76.69470" stroke="green" stroke-width="0.04000"/>
    <line x1="136.32379" y1="82.77765" x2="123.62379" y2="76.58344" stroke="green" stroke-width="0.04000"/>
    <line x1="136.32379" y1="82.66640" x2="123.62379" y2="76.47218" stroke="green" stroke-width="0.04000"/>
    <line x1="136.32379" y1="82.55513" x2="123.62379" y2="76.36092" stroke="green" stroke-width="0.04000"/>
    <line x1="136.32379" y1="82.44387" x2="123.62379" y2="76.24966" stroke="green" stroke-width="0.04000"/>
    <line x1="136.32379" y1="82.33261" x2="123.62379" y2="76.13840" stroke="green" stroke-width="0.04000"/>
    <line x1="136.32379" y1="82.22135" x2="123.62379" y2="76.02715" stroke="green" stroke-width="0.04000"/>
    <line x1="136.32379" y1="82.11009" x2="123.62379" y2="75.91589" stroke="green" stroke-width="0.04000"/>
    <line x1="136.32379" y1="81.99883" x2="123.62379" y2="75.80463" stroke="green" stroke-width="0.04000"/>
    <line x1="136.32379" y1="81.88757" x2="123.62379" y2="75.69336" stroke="green" stroke-width="0.04000"/>
    <line x1="136.32379" y1="81.77631" x2="123.62379" y2="75.58210" stroke="green" stroke-width="0.04000"/>
    <line x1="136.32379" y1="81.66505" x2="123.62379" y2="75.47084" stroke="green" stroke-width="0.04000"/>
    <line x1="136.32379" y1="81.55379" x2="123.62379" y2="75.35958" stroke="green" stroke-width="0.04000"/>
    <line x1="136.32379" y1="81.44253" x2="123.62379" y2="75.24832" stroke="green" stroke-width="0.04000"/>
    <line x1="136.32379" y1="81.33127" x2="123.62379" y2="75.13706" stroke="green" stroke-width="0.04000"/>
    <line x1="136.32379" y1="81.22001" x2="123.62379" y2="75.02580" stroke="green" stroke-width="0.04000"/>
    <line x1="136.32379" y1="81.10875" x2="123.62379" y2="74.91454" stroke="green" stroke-width="0.04000"/>
    <line x1="136.32379" y1="80.99748" x2="123.62379" y2="74.80328" stroke="green" stroke-width="0.04000"/>
    <line x1="136.32379" y1="80.88623" x2="123.62379" y2="74.69202" stroke="green" stroke-width="0.04000"/>
    <line x1="136.32379" y1="80.77496" x2="123.62379" y2="74.58076" stroke="green" stroke-width="0.04000"/>
    <line x1="136.32379" y1="80.66370" x2="123.62379" y2="74.46950" stroke="green" stroke-width="0.04000"/>
    <line x1="136.32379" y1="80.55244" x2="123.62379" y2="74.35824" stroke="green" stroke-width="0.04000"/>
    <line x1="136.32379" y1="80.44119" x2="123.62379" y2="74.24698" stroke="green" stroke-width="0.04000"/>
    <line x1="136.32379" y1="80.32993" x2="123.62379" y2="74.13572" stroke="green" stroke-width="0.04000"/>
    <line x1="136.32379" y1="80.21867" x2="123.62379" y2="74.02446" stroke="green" stroke-width="0.04000"/>
    <line x1="136.32379" y1="80.10741" x2="123.62379" y2="73.91320" stroke="green" stroke-width="0.04000"/>
    <line x1="136.32379" y1="79.99615" x2="123.62379" y2="73.80194" stroke="green" stroke-width="0.04000"/>
    <line x1="136.32379" y1="79.88489" x2="123.62379" y2="73.69068" stroke="green" stroke-width="0.04000"/>
    <line x1="136.32379" y1="79.77363" x2="123.62379" y2="73.57942" stroke="green" stroke-width="0.04000"/>
    <line x1="136.32379" y1="79.66236" x2="123.62379" y2="73.46815" stroke="green" stroke-width="0.04000"/>
    <line x1="136.32379" y1="79.55111" x2="123.62379" y2="73.35690" stroke="green" stroke-width="0.04000"/>
    <line x1="136.32379" y1="79.43984" x2="123.62379" y2="73.24564" stroke="green" stroke-width="0.04000"/>
    <line x1="136.32379" y1="79.32858" x2="123.62379" y2="73.13438" stroke="green" stroke-width="0.04000"/>
    <line x1="136.32379" y1="79.21733" x2="123.62379" y2="73.02312" stroke="green" stroke-width="0.04000"/>
    <line x1="136.32379" y1="79.10606" x2="123.62379" y2="72.91186" stroke="green" stroke-width="0.04000"/>
    <line x1="136.32379" y1="78.99480" x2="123.62379" y2="72.80060" stroke="green" stroke-width="0.04000"/>
    <line x1="136.32379" y1="78.88354" x2="123.62379" y2="72.68934" stroke="green" stroke-width="0.04000"/>
    <line x1="136.32379" y1="78.77229" x2="123.62379" y2="72.57808" stroke="green" stroke-width="0.04000"/>
    <line x1="136.32379" y1="78.66102" x2="123.62379" y2="72.46681" stroke="green" stroke-width="0.04000"/>
    <line x1="136.32379" y1="78.54977" x2="123.62379" y2="72.35556" stroke="green" stroke-width="0.04000"/>
    <line x1="136.32379" y1="78.43850" x2="123.62379" y2="72.24429" stroke="green" stroke-width="0.04000"/>
    <line x1="136.32379" y1="78.32724" x2="123.62379" y2="72.13303" stroke="green" stroke-width="0.04000"/>
    <line x1="136.32379" y1="78.21598" x2="123.62379" y2="72.02177" stroke="green" stroke-width="0.04000"/>
    <line x1="136.32379" y1="78.10472" x2="123.62379" y2="71.91051" stroke="green" stroke-width="0.04000"/>
    <line x1="136.32379" y1="77.99346" x2="123.62379" y2="71.79926" stroke="green" stroke-width="0.04000"/>
    <line x1="136.32379" y1="77.88220" x2="123.62379" y2="71.68800" stroke="green" stroke-width="0.04000"/>
    <line x1="136.32379" y1="77.77094" x2="123.78857" y2="71.65710" stroke="green" stroke-width="0.04000"/>
    <line x1="136.32379" y1="77.65968" x2="124.01669" y2="71.65710" stroke="green" stroke-width="0.04000"/>
    <line x1="136.32379" y1="77.54842" x2="124.24480" y2="71.65710" stroke="green" stroke-width="0.04000"/>
    <line x1="136.32379" y1="77.43716" x2="124.47292" y2="71.65710" stroke="green" stroke-width="0.04000"/>
    <line x1="136.32379" y1="77.32590" x2="124.70103" y2="71.65710" stroke="green" stroke-width="0.04000"/>
    <line x1="136.32379" y1="77.21465" x2="124.92915" y2="71.65710" stroke="green" stroke-width="0.04000"/>
    <line x1="136.32379" y1="77.10338" x2="125.15727" y2="71.65710" stroke="green" stroke-width="0.04000"/>
    <line x1="136.32379" y1="76.99212" x2="125.38539" y2="71.65710" stroke="green" stroke-width="0.04000"/>
    <line x1="136.32379" y1="76.88086" x2="125.61350" y2="71.65710" stroke="green" stroke-width="0.04000"/>
    <line x1="136.32379" y1="76.76960" x2="125.84162" y2="71.65710" stroke="green" stroke-width="0.04000"/>
    <line x1="136.32379" y1="76.65834" x2="126.06974" y2="71.65710" stroke="green" stroke-width="0.04000"/>
    <line x1="136.32379" y1="76.54708" x2="126.29786" y2="71.65710" stroke="green" stroke-width="0.04000"/>
    <line x1="136.32379" y1="76.43582" x2="126.52597" y2="71.65710" stroke="green" stroke-width="0.04000"/>
    <line x1="136.32379" y1="76.32456" x2="126.75409" y2="71.65710" stroke="green" stroke-width="0.04000"/>
    <line x1="136.32379" y1="76.21329" x2="126.98221" y2="71.65710" stroke="green" stroke-width="0.04000"/>
    <line x1="136.32379" y1="76.10204" x2="127.21033" y2="71.65710" stroke="green" stroke-width="0.04000"/>
    <line x1="136.32379" y1="75.99078" x2="127.43845" y2="71.65710" stroke="green" stroke-width="0.04000"/>
    <line x1="136.32379" y1="75.87952" x2="127.66656" y2="71.65710" stroke="green" stroke-width="0.04000"/>
    <line x1="136.32379" y1="75.76826" x2="127.89468" y2="71.65710" stroke="green" stroke-width="0.04000"/>
    <line x1="136.32379" y1="75.65700" x2="128.12280" y2="71.65710" stroke="green" stroke-width="0.04000"/>
    <line x1="136.32379" y1="75.54574" x2="128.35091" y2="71.65710" stroke="green" stroke-width="0.04000"/>
    <line x1="136.32379" y1="75.43448" x2="128.57903" y2="71.65710" stroke="green" stroke-width="0.04000"/>
    <line x1="136.32379" y1="75.32322" x2="128.80714" y2="71.65710" stroke="green" stroke-width="0.04000"/>
    <line x1="136.32379" y1="75.21196" x2="129.03525" y2="71.65710" stroke="green" stroke-width="0.04000"/>
    <line x1="136.32379" y1="75.10070" x2="129.26337" y2="71.65710" stroke="green" stroke-width="0.04000"/>
    <line x1="136.32379" y1="74.98943" x2="129.49149" y2="71.65710" stroke="green" stroke-width="0.04000"/>
    <line x1="136.32379" y1="74.87817" x2="129.71960" y2="71.65710" stroke="green" stroke-width="0.04000"/>
    <line x1="136.32379" y1="74.76691" x2="129.94772" y2="71.65710" stroke="green" stroke-width="0.04000"/>
    <line x1="136.32379" y1="74.65565" x2="130.17584" y2="71.65710" stroke="green" stroke-width="0.04000"/>
    <line x1="136.32379" y1="74.54440" x2="130.40396" y2="71.65710" stroke="green" stroke-width="0.04000"/>
    <line x1="136.32379" y1="74.43314" x2="130.63208" y2="71.65710" stroke="green" stroke-width="0.04000"/>
    <line x1="136.32379" y1="74.32188" x2="130.86020" y2="71.65710" stroke="green" stroke-width="0.04000"/>
    <line x1="136.32379" y1="74.21062" x2="131.08832" y2="71.65710" stroke="green" stroke-width="0.04000"/>
    <line x1="136.32379" y1="74.09936" x2="131.31644" y2="71.65710" stroke="green" stroke-width="0.04000"/>
    <line x1="136.32379" y1="73.98810" x2="131.54456" y2="71.65710" stroke="green" stroke-width="0.04000"/>
    <line x1="136.32379" y1="73.87683" x2="131.77267" y2="71.65710" stroke="green" stroke-width="0.04000"/>
    <line x1="136.32379" y1="73.76558" x2="132.00078" y2="71.65710" stroke="green" stroke-width="0.04000"/>
    <line x1="136.32379" y1="73.65431" x2="132.22891" y2="71.65710" stroke="green" stroke-width="0.04000"/>
    <line x1="136.32379" y1="73.54305" x2="132.45703" y2="71.65710" stroke="green" stroke-width="0.04000"/>
    <line x1="136.32379" y1="73.43179" x2="132.68513" y2="71.65710" stroke="green" stroke-width="0.04000"/>
    <line x1="136.32379" y1="73.32053" x2="132.91325" y2="71.65710" stroke="green" stroke-width="0.04000"/>
    <line x1="136.32379" y1="73.20927" x2="133.14137" y2="71.65710" stroke="green" stroke-width="0.04000"/>
    <line x1="136.32379" y1="73.09801" x2="133.36948" y2="71.65710" stroke="green" stroke-width="0.04000"/>
    <line x1="136.32379" y1="72.98676" x2="133.59760" y2="71.65710" stroke="green" stroke-width="0.04000"/>
    <line x1="136.32379" y1="72.87549" x2="133.82573" y2="71.65710" stroke="green" stroke-width="0.04000"/>
    <line x1="136.32379" y1="72.76424" x2="134.05383" y2="71.65710" stroke="green" stroke-width="0.04000"/>
    <line x1="136.32379" y1="72.65298" x2="134.28195" y2="71.65710" stroke="green" stroke-width="0.04000"/>
    <line x1="136.32379" y1="72.54171" x2="134.51007" y2="71.65710" stroke="green" stroke-width="0.04000"/>
    <line x1="136.32379" y1="72.43045" x2="134.73819" y2="71.65710" stroke="green" stroke-width="0.04000"/>
    <line x1="136.32379" y1="72.31919" x2="134.96631" y2="71.65710" stroke="green" stroke-width="0.04000"/>
    <line x1="136.32379" y1="72.20793" x2="135.19443" y2="71.65710" stroke="green" stroke-width="0.04000"/>
    <line x1="136.32379" y1="72.09667" x2="135.42255" y2="71.65710" stroke="green" stroke-width="0.04000"/>
    <line x1="136.32379" y1="71.98541" x2="135.65067" y2="71.65710" stroke="green" stroke-width="0.04000"/>
    <line x1="136.32379" y1="71.87415" x2="135.87877" y2="71.65710" stroke="green" stroke-width="0.04000"/>
    <line x1="136.32379" y1="71.76289" x2="136.10689" y2="71.65710" stroke="green" stroke-width="0.04000"/>
    <path d="M 136.324 90.3742 L 123.624 90.3742 L 123.624 71.6571 L 136.324 71.6571 L 136.324 90.3742" fill="none" stroke="blue" stroke-width="0.04000" fill-rule="evenodd" fill-opacity="1.000"/>
  </g>
</svg>
