<?xml version="1.0" encoding="UTF-8" standalone="yes"?>
<svg xmlns="http://www.w3.org/2000/svg"
     xmlns:xlink="http://www.w3.org/1999/xlink"
     width="2020.0000mm" height="1600.0000mm"
     viewBox="0 0 202.000000 160.000000">
  <!--
    Build plate : 150.00 x 150.00 mm
    Coordinate  : 1 SVG unit = 1 mm
    Display zoom: 10x  (width/height = viewBox x 10)
    Hatch stroke: 0.04 mm = ~28 mm on screen at this zoom
    Legend panel: right margin (42 mm wide)
  -->
  <defs>
    <marker id="endArrow" markerWidth="2" markerHeight="1.4"
            refX="0" refY="0.7" orient="auto"
            markerUnits="strokeWidth">
      <polyline fill="darkblue" points="0,0 2,0.7 0,1.4 0.2,0.7"/>
    </marker>
  </defs>
  <!-- Background -->
  <rect x="0" y="0" width="202.000000" height="160.000000" fill="#f0f0f0" stroke="none"/>
  <!-- Build plate boundary (150 x 150 mm) -->
  <rect x="5.000000" y="5.000000" width="150.000000" height="150.000000"
        fill="#ffffff" stroke="#aaaaaa" stroke-width="0.2" stroke-dasharray="1,0.5"/>
  <!-- Build plate centre circle (r = 75.00 mm) -->
  <circle cx="80.000000" cy="80.000000" r="75.000000"
          fill="none" stroke="#bbbbbb" stroke-width="0.15" stroke-dasharray="0.8,0.4"/>
  <!-- Centre cross-hair -->
  <line x1="5.000000" y1="80.000000" x2="155.000000" y2="80.000000" stroke="#cccccc" stroke-width="0.1"/>
  <line x1="80.000000" y1="5.000000" x2="80.000000" y2="155.000000" stroke="#cccccc" stroke-width="0.1"/>
  <circle cx="80.000000" cy="80.000000" r="0.3" fill="#cccccc" stroke="none"/>
  <!-- Corner labels -->
  <text x="5.400000" y="4.600000" font-family="sans-serif" font-size="2" fill="#888888">0,0</text>
  <text x="154.600006" y="4.600000" font-family="sans-serif" font-size="2" fill="#888888" text-anchor="end">150,0</text>
  <text x="5.400000" y="157.199997" font-family="sans-serif" font-size="2" fill="#888888">0,150</text>
  <!-- Layer geometry -->
  <g id="geometry">
    <line x1="35.50006" y1="88.88418" x2="35.88205" y2="89.42970" stroke="green" stroke-width="0.04000"/>
    <line x1="35.57187" y1="88.81238" x2="36.00143" y2="89.42585" stroke="green" stroke-width="0.04000"/>
    <line x1="35.42826" y1="88.95598" x2="35.74901" y2="89.41405" stroke="green" stroke-width="0.04000"/>
    <line x1="35.64367" y1="88.74058" x2="36.11149" y2="89.40870" stroke="green" stroke-width="0.04000"/>
    <line x1="35.71547" y1="88.66878" x2="36.21462" y2="89.38163" stroke="green" stroke-width="0.04000"/>
    <line x1="35.35646" y1="89.02778" x2="35.58398" y2="89.35271" stroke="green" stroke-width="0.04000"/>
    <line x1="35.78727" y1="88.59698" x2="36.31211" y2="89.34652" stroke="green" stroke-width="0.04000"/>
    <line x1="35.85908" y1="88.52518" x2="36.40473" y2="89.30444" stroke="green" stroke-width="0.04000"/>
    <line x1="35.98589" y1="88.53194" x2="36.49269" y2="89.25573" stroke="green" stroke-width="0.04000"/>
    <line x1="36.11781" y1="88.54601" x2="36.57616" y2="89.20059" stroke="green" stroke-width="0.04000"/>
    <line x1="36.18962" y1="88.47421" x2="36.65548" y2="89.13953" stroke="green" stroke-width="0.04000"/>
    <line x1="36.26142" y1="88.40240" x2="36.72964" y2="89.07109" stroke="green" stroke-width="0.04000"/>
    <line x1="36.33322" y1="88.33060" x2="36.79793" y2="88.99428" stroke="green" stroke-width="0.04000"/>
    <line x1="36.40502" y1="88.25880" x2="36.86316" y2="88.91309" stroke="green" stroke-width="0.04000"/>
    <line x1="36.47683" y1="88.18700" x2="36.92702" y2="88.82996" stroke="green" stroke-width="0.04000"/>
    <line x1="36.54863" y1="88.11520" x2="36.99089" y2="88.74681" stroke="green" stroke-width="0.04000"/>
    <line x1="36.62043" y1="88.04340" x2="37.05475" y2="88.66367" stroke="green" stroke-width="0.04000"/>
    <line x1="36.69223" y1="87.97160" x2="37.12011" y2="88.58267" stroke="green" stroke-width="0.04000"/>
    <line x1="36.76403" y1="87.89980" x2="37.18615" y2="88.50264" stroke="green" stroke-width="0.04000"/>
    <line x1="36.83583" y1="87.82799" x2="37.25051" y2="88.42020" stroke="green" stroke-width="0.04000"/>
    <line x1="36.90763" y1="87.75619" x2="37.31466" y2="88.33748" stroke="green" stroke-width="0.04000"/>
    <line x1="36.97943" y1="87.68439" x2="37.37960" y2="88.25589" stroke="green" stroke-width="0.04000"/>
    <line x1="37.05124" y1="87.61259" x2="37.44663" y2="88.17727" stroke="green" stroke-width="0.04000"/>
    <line x1="37.12304" y1="87.54079" x2="37.51402" y2="88.09916" stroke="green" stroke-width="0.04000"/>
    <line x1="37.19484" y1="87.46899" x2="37.58116" y2="88.02070" stroke="green" stroke-width="0.04000"/>
    <line x1="37.26664" y1="87.39719" x2="37.64807" y2="87.94192" stroke="green" stroke-width="0.04000"/>
    <line x1="37.33845" y1="87.32539" x2="37.71498" y2="87.86313" stroke="green" stroke-width="0.04000"/>
    <line x1="37.41025" y1="87.25359" x2="37.78445" y2="87.78799" stroke="green" stroke-width="0.04000"/>
    <line x1="37.48205" y1="87.18178" x2="37.85418" y2="87.71325" stroke="green" stroke-width="0.04000"/>
    <line x1="37.55385" y1="87.10998" x2="37.92393" y2="87.63850" stroke="green" stroke-width="0.04000"/>
    <line x1="37.62565" y1="87.03817" x2="37.99367" y2="87.56376" stroke="green" stroke-width="0.04000"/>
    <line x1="37.69745" y1="86.96637" x2="38.06301" y2="87.48845" stroke="green" stroke-width="0.04000"/>
    <line x1="37.76925" y1="86.89457" x2="38.13146" y2="87.41186" stroke="green" stroke-width="0.04000"/>
    <line x1="37.84106" y1="86.82277" x2="38.20006" y2="87.33548" stroke="green" stroke-width="0.04000"/>
    <line x1="37.91286" y1="86.75097" x2="38.27070" y2="87.26203" stroke="green" stroke-width="0.04000"/>
    <line x1="37.98466" y1="86.67917" x2="38.34135" y2="87.18858" stroke="green" stroke-width="0.04000"/>
    <line x1="38.05646" y1="86.60737" x2="38.41199" y2="87.11512" stroke="green" stroke-width="0.04000"/>
    <line x1="38.12826" y1="86.53557" x2="38.48264" y2="87.04166" stroke="green" stroke-width="0.04000"/>
    <line x1="38.20006" y1="86.46376" x2="38.55328" y2="86.96821" stroke="green" stroke-width="0.04000"/>
    <line x1="38.27187" y1="86.39196" x2="38.62582" y2="86.89746" stroke="green" stroke-width="0.04000"/>
    <line x1="38.34367" y1="86.32016" x2="38.69855" y2="86.82700" stroke="green" stroke-width="0.04000"/>
    <line x1="38.41547" y1="86.24836" x2="38.77129" y2="86.75652" stroke="green" stroke-width="0.04000"/>
    <line x1="38.48727" y1="86.17656" x2="38.84402" y2="86.68605" stroke="green" stroke-width="0.04000"/>
    <line x1="38.55907" y1="86.10475" x2="38.91676" y2="86.61558" stroke="green" stroke-width="0.04000"/>
    <line x1="38.63087" y1="86.03295" x2="38.98949" y2="86.54511" stroke="green" stroke-width="0.04000"/>
    <line x1="38.70267" y1="85.96115" x2="39.06222" y2="86.47464" stroke="green" stroke-width="0.04000"/>
    <line x1="38.77448" y1="85.88935" x2="39.13496" y2="86.40417" stroke="green" stroke-width="0.04000"/>
    <line x1="38.84628" y1="85.81755" x2="39.20762" y2="86.33360" stroke="green" stroke-width="0.04000"/>
    <line x1="38.91808" y1="85.74575" x2="39.28091" y2="86.26393" stroke="green" stroke-width="0.04000"/>
    <line x1="38.98988" y1="85.67395" x2="39.35506" y2="86.19548" stroke="green" stroke-width="0.04000"/>
    <line x1="39.06168" y1="85.60214" x2="39.42921" y2="86.12702" stroke="green" stroke-width="0.04000"/>
    <line x1="39.13348" y1="85.53035" x2="39.50335" y2="86.05857" stroke="green" stroke-width="0.04000"/>
    <line x1="39.20528" y1="85.45854" x2="39.57714" y2="85.98961" stroke="green" stroke-width="0.04000"/>
    <line x1="39.27708" y1="85.38674" x2="39.65188" y2="85.92200" stroke="green" stroke-width="0.04000"/>
    <line x1="39.34888" y1="85.31494" x2="39.72738" y2="85.85548" stroke="green" stroke-width="0.04000"/>
    <line x1="39.42068" y1="85.24314" x2="39.80287" y2="85.78896" stroke="green" stroke-width="0.04000"/>
    <line x1="39.49249" y1="85.17134" x2="39.87837" y2="85.72243" stroke="green" stroke-width="0.04000"/>
    <line x1="39.56429" y1="85.09953" x2="39.95185" y2="85.65303" stroke="green" stroke-width="0.04000"/>
    <line x1="39.63609" y1="85.02773" x2="40.02728" y2="85.58640" stroke="green" stroke-width="0.04000"/>
    <line x1="39.70789" y1="84.95593" x2="40.10437" y2="85.52216" stroke="green" stroke-width="0.04000"/>
    <line x1="39.77969" y1="84.88413" x2="40.18147" y2="85.45792" stroke="green" stroke-width="0.04000"/>
    <line x1="39.85150" y1="84.81233" x2="40.25856" y2="85.39368" stroke="green" stroke-width="0.04000"/>
    <line x1="39.92330" y1="84.74052" x2="40.33389" y2="85.32691" stroke="green" stroke-width="0.04000"/>
    <line x1="39.99510" y1="84.66872" x2="40.41315" y2="85.26576" stroke="green" stroke-width="0.04000"/>
    <line x1="40.06691" y1="84.59693" x2="40.49241" y2="85.20462" stroke="green" stroke-width="0.04000"/>
    <line x1="40.13870" y1="84.52512" x2="40.57167" y2="85.14347" stroke="green" stroke-width="0.04000"/>
    <line x1="40.21050" y1="84.45332" x2="40.65049" y2="85.08168" stroke="green" stroke-width="0.04000"/>
    <line x1="40.28230" y1="84.38152" x2="40.72411" y2="85.01248" stroke="green" stroke-width="0.04000"/>
    <line x1="40.35411" y1="84.30972" x2="40.80342" y2="84.95142" stroke="green" stroke-width="0.04000"/>
    <line x1="40.42591" y1="84.23792" x2="40.88507" y2="84.89367" stroke="green" stroke-width="0.04000"/>
    <line x1="40.49771" y1="84.16611" x2="40.96631" y2="84.83535" stroke="green" stroke-width="0.04000"/>
    <line x1="40.56951" y1="84.09431" x2="41.04756" y2="84.77703" stroke="green" stroke-width="0.04000"/>
    <line x1="40.64131" y1="84.02251" x2="41.12917" y2="84.71924" stroke="green" stroke-width="0.04000"/>
    <line x1="40.71312" y1="83.95071" x2="41.21111" y2="84.66192" stroke="green" stroke-width="0.04000"/>
    <line x1="40.78492" y1="83.87891" x2="41.29305" y2="84.60460" stroke="green" stroke-width="0.04000"/>
    <line x1="40.85672" y1="83.80711" x2="41.37499" y2="84.54728" stroke="green" stroke-width="0.04000"/>
    <line x1="40.92852" y1="83.73531" x2="41.45758" y2="84.49088" stroke="green" stroke-width="0.04000"/>
    <line x1="41.00032" y1="83.66351" x2="41.53840" y2="84.43197" stroke="green" stroke-width="0.04000"/>
    <line x1="41.07212" y1="83.59171" x2="41.61894" y2="84.37263" stroke="green" stroke-width="0.04000"/>
    <line x1="41.14392" y1="83.51991" x2="41.69888" y2="84.31246" stroke="green" stroke-width="0.04000"/>
    <line x1="41.21572" y1="83.44810" x2="41.77620" y2="84.24854" stroke="green" stroke-width="0.04000"/>
    <line x1="41.28753" y1="83.37630" x2="41.85367" y2="84.18483" stroke="green" stroke-width="0.04000"/>
    <line x1="41.35933" y1="83.30450" x2="41.92943" y2="84.11869" stroke="green" stroke-width="0.04000"/>
    <line x1="41.43113" y1="83.23270" x2="42.00364" y2="84.05032" stroke="green" stroke-width="0.04000"/>
    <line x1="41.50293" y1="83.16089" x2="42.07796" y2="83.98212" stroke="green" stroke-width="0.04000"/>
    <line x1="41.57473" y1="83.08910" x2="42.14534" y2="83.90400" stroke="green" stroke-width="0.04000"/>
    <line x1="41.64654" y1="83.01729" x2="42.20523" y2="83.81519" stroke="green" stroke-width="0.04000"/>
    <line x1="41.60319" y1="82.78104" x2="42.25675" y2="83.71442" stroke="green" stroke-width="0.04000"/>
    <line x1="41.67500" y1="82.70924" x2="42.29734" y2="83.59804" stroke="green" stroke-width="0.04000"/>
    <line x1="41.74680" y1="82.63744" x2="42.32420" y2="83.46207" stroke="green" stroke-width="0.04000"/>
    <line x1="41.81860" y1="82.56564" x2="42.32808" y2="83.29326" stroke="green" stroke-width="0.04000"/>
    <line x1="41.89040" y1="82.49384" x2="42.27135" y2="83.03789" stroke="green" stroke-width="0.04000"/>
    <path d="M 41.9629 82.4896 L 42.1764 82.8509 L 42.1994 82.8869 L 42.2171 82.9192 L 42.2518 82.9975 L 42.2753 83.046 L 42.2819 83.067 L 42.2984 83.1167 L 42.3033 83.1385 L 42.3155 83.1894 L 42.3187 83.2125 L 42.3264 83.2635 L 42.3277 83.2878 L 42.3311 83.3384 L 42.3303 83.3643 L 42.3294 83.4134 L 42.3263 83.441 L 42.3216 83.488 L 42.3158 83.5174 L 42.3076 83.5614 L 42.2988 83.5927 L 42.2878 83.6332 L 42.2754 83.6664 L 42.2622 83.7028 L 42.2459 83.7376 L 42.2313 83.7695 L 42.2105 83.8058 L 42.1953 83.833 L 42.1695 83.8704 L 42.1546 83.8926 L 42.1235 83.9307 L 42.1098 83.948 L 42.0882 83.9718 L 42.0658 83.9943 L 42.0216 84.0338 L 41.8812 84.1631 L 41.8449 84.1918 L 41.6665 84.3392 L 41.6355 84.3603 L 41.5771 84.4038 L 41.4415 84.5026 L 41.399 84.5305 L 41.0862 84.7493 L 40.846 84.9217 L 40.7636 84.9792 L 40.7137 85.0212 L 40.7145 85.022 L 40.7093 85.0268 L 40.702 85.0334 L 40.6954 85.0395 L 40.6865 85.0478 L 40.6764 85.0572 L 40.6625 85.0703 L 40.6447 85.0871 L 40.3311 85.3291 L 40.318 85.3418 L 40.3001 85.3591 L 39.9761 85.6291 L 39.9497 85.6551 L 39.9097 85.6942 L 39.9027 85.701 L 39.5932 85.9737 L 39.58 85.9868 L 39.5593 86.0069 L 39.242 86.2998 L 39.202 86.3391 L 39.202 86.3392 L 39.1829 86.3577 L 38.5773 86.9445 L 38.5552 86.9662 L 38.1953 87.3405 L 38.0421 87.5119 L 37.851 87.7166 L 37.7391 87.8366 L 37.7214 87.8556 L 37.547 88.061 L 37.4379 88.1873 L 37.4379 88.1873 L 37.3932 88.2392 L 37.3454 88.2979 L 37.1933 88.494 L 37.0744 88.6381 L 36.8815 88.8892 L 36.873 88.9005 L 36.8167 88.9728 L 36.8018 88.9894 L 36.7766 89.0213 L 36.7503 89.048 L 36.7236 89.0778 L 36.7001 89.0984 L 36.6624 89.1343 L 36.643 89.1488 L 36.5926 89.19 L 36.5788 89.1987 L 36.514 89.2437 L 36.5072 89.2473 L 36.4399 89.2864 L 36.4288 89.2928 L 36.427 89.2939 L 36.3477 89.3314 L 36.3337 89.3385 L 36.2613 89.3655 L 36.2345 89.3762 L 36.17 89.3938 L 36.131 89.4054 L 36.075 89.4149 L 36.025 89.4244 L 35.9776 89.4273 L 35.919 89.4318 L 35.8796 89.4296 L 35.8153 89.4266 L 35.7829 89.4204 L 35.7168 89.4081 L 35.6904 89.3987 L 35.6261 89.3761 L 35.6041 89.364 L 35.5457 89.3313 L 35.475 89.2819 L 35.4675 89.275 L 35.3518 89.1607 L 35.2951 89.1033 L 35.288 89.0963 L 35.5153 88.8689 L 35.582 88.8023 L 35.8813 88.5029 L 35.9083 88.5105 L 36.1003 88.5635 L 36.207 88.4569 L 36.207 88.4569 L 36.5308 88.133 L 36.7689 87.8949 L 37.0621 87.6017 L 37.3136 87.3503 L 37.3136 87.3503 L 37.5008 87.163 L 37.6536 87.0103 L 37.7803 86.8835 L 37.7803 86.8835 L 38.0275 86.6363 L 38.2081 86.4557 L 38.2081 86.4557 L 38.4364 86.2274 L 38.4364 86.2274 L 38.613 86.0509 L 38.9839 85.68 L 38.9839 85.68 L 39.1637 85.5002 L 39.1904 85.4734 L 39.1904 85.4734 L 39.2887 85.3752 L 39.3893 85.2745 L 39.413 85.2508 L 39.5353 85.1285 L 39.5914 85.0724 L 39.6532 85.0106 L 39.6934 84.9705 L 39.7717 84.8922 L 39.7717 84.8922 L 39.7957 84.8681 L 39.8092 84.8547 L 39.9095 84.7543 L 39.9265 84.7373 L 40.0253 84.6385 L 40.0581 84.6058 L 40.1345 84.5293 L 40.1457 84.5181 L 40.1457 84.5181 L 40.2728 84.391 L 40.2728 84.391 L 40.4368 84.2271 L 40.4899 84.1739 L 40.4975 84.1663 L 40.6766 83.9873 L 40.7188 83.945 L 40.7352 83.9286 L 40.962 83.7019 L 40.9685 83.6953 L 41.2523 83.4115 L 41.5646 83.0992 L 41.5646 83.0992 L 41.6949 82.9689 L 41.6553 82.902 L 41.5903 82.7939 L 41.7369 82.6474 L 41.9373 82.447 L 41.9629 82.4896" fill="none" stroke="blue" stroke-width="0.04000" fill-rule="evenodd" fill-opacity="1.000"/>
    <path d="M 41.9629 82.4896 L 42.1764 82.8509 L 42.1994 82.8869 L 42.2171 82.9192 L 42.2518 82.9975 L 42.2753 83.046 L 42.2819 83.067 L 42.2984 83.1167 L 42.3033 83.1385 L 42.3155 83.1894 L 42.3187 83.2125 L 42.3264 83.2635 L 42.3277 83.2878 L 42.3311 83.3384 L 42.3303 83.3643 L 42.3294 83.4134 L 42.3263 83.441 L 42.3216 83.488 L 42.3158 83.5174 L 42.3076 83.5614 L 42.2988 83.5927 L 42.2878 83.6332 L 42.2754 83.6664 L 42.2622 83.7028 L 42.2459 83.7376 L 42.2313 83.7695 L 42.2105 83.8058 L 42.1953 83.833 L 42.1695 83.8704 L 42.1546 83.8926 L 42.1235 83.9307 L 42.1098 83.948 L 42.0882 83.9718 L 42.0658 83.9943 L 42.0216 84.0338 L 41.8812 84.1631 L 41.8449 84.1918 L 41.6665 84.3392 L 41.6355 84.3603 L 41.5771 84.4038 L 41.4415 84.5026 L 41.399 84.5305 L 41.0862 84.7493 L 40.846 84.9217 L 40.7636 84.9792 L 40.7137 85.0212 L 40.7145 85.022 L 40.7093 85.0268 L 40.702 85.0334 L 40.6954 85.0395 L 40.6865 85.0478 L 40.6764 85.0572 L 40.6625 85.0703 L 40.6447 85.0871 L 40.3311 85.3291 L 40.318 85.3418 L 40.3001 85.3591 L 39.9761 85.6291 L 39.9497 85.6551 L 39.9097 85.6942 L 39.9027 85.701 L 39.5932 85.9737 L 39.58 85.9868 L 39.5593 86.0069 L 39.242 86.2998 L 39.202 86.3391 L 39.202 86.3392 L 39.1829 86.3577 L 38.5773 86.9445 L 38.5552 86.9662 L 38.1953 87.3405 L 38.0421 87.5119 L 37.851 87.7166 L 37.7391 87.8366 L 37.7214 87.8556 L 37.547 88.061 L 37.4379 88.1873 L 37.4379 88.1873 L 37.3932 88.2392 L 37.3454 88.2979 L 37.1933 88.494 L 37.0744 88.6381 L 36.8815 88.8892 L 36.873 88.9005 L 36.8167 88.9728 L 36.8018 88.9894 L 36.7766 89.0213 L 36.7503 89.048 L 36.7236 89.0778 L 36.7001 89.0984 L 36.6624 89.1343 L 36.643 89.1488 L 36.5926 89.19 L 36.5788 89.1987 L 36.514 89.2437 L 36.5072 89.2473 L 36.4399 89.2864 L 36.4288 89.2928 L 36.427 89.2939 L 36.3477 89.3314 L 36.3337 89.3385 L 36.2613 89.3655 L 36.2345 89.3762 L 36.17 89.3938 L 36.131 89.4054 L 36.075 89.4149 L 36.025 89.4244 L 35.9776 89.4273 L 35.919 89.4318 L 35.8796 89.4296 L 35.8153 89.4266 L 35.7829 89.4204 L 35.7168 89.4081 L 35.6904 89.3987 L 35.6261 89.3761 L 35.6041 89.364 L 35.5457 89.3313 L 35.475 89.2819 L 35.4675 89.275 L 35.3518 89.1607 L 35.2951 89.1033 L 35.288 89.0963 L 35.5153 88.8689 L 35.582 88.8023 L 35.8813 88.5029 L 35.9083 88.5105 L 36.1003 88.5635 L 36.207 88.4569 L 36.207 88.4569 L 36.5308 88.133 L 36.7689 87.8949 L 37.0621 87.6017 L 37.3136 87.3503 L 37.3136 87.3503 L 37.5008 87.163 L 37.6536 87.0103 L 37.7803 86.8835 L 37.7803 86.8835 L 38.0275 86.6363 L 38.2081 86.4557 L 38.2081 86.4557 L 38.4364 86.2274 L 38.4364 86.2274 L 38.613 86.0509 L 38.9839 85.68 L 38.9839 85.68 L 39.1637 85.5002 L 39.1904 85.4734 L 39.1904 85.4734 L 39.2887 85.3752 L 39.3893 85.2745 L 39.413 85.2508 L 39.5353 85.1285 L 39.5914 85.0724 L 39.6532 85.0106 L 39.6934 84.9705 L 39.7717 84.8922 L 39.7717 84.8922 L 39.7957 84.8681 L 39.8092 84.8547 L 39.9095 84.7543 L 39.9265 84.7373 L 40.0253 84.6385 L 40.0581 84.6058 L 40.1345 84.5293 L 40.1457 84.5181 L 40.1457 84.5181 L 40.2728 84.391 L 40.2728 84.391 L 40.4368 84.2271 L 40.4899 84.1739 L 40.4975 84.1663 L 40.6766 83.9873 L 40.7188 83.945 L 40.7352 83.9286 L 40.962 83.7019 L 40.9685 83.6953 L 41.2523 83.4115 L 41.5646 83.0992 L 41.5646 83.0992 L 41.6949 82.9689 L 41.6553 82.902 L 41.5903 82.7939 L 41.7369 82.6474 L 41.9373 82.447 Z" fill="none" stroke="blue" stroke-width="0.05000" fill-rule="evenodd" fill-opacity="1.000"/>
  </g>
</svg>
