<?xml version="1.0" encoding="UTF-8" standalone="yes"?>
<svg xmlns="http://www.w3.org/2000/svg"
     xmlns:xlink="http://www.w3.org/1999/xlink"
     width="2020.0000mm" height="1600.0000mm"
     viewBox="0 0 202.000000 160.000000">
  <!--
    Build plate : 150.00 x 150.00 mm
    Coordinate  : 1 SVG unit = 1 mm
    Display zoom: 10x  (width/height = viewBox x 10)
    Hatch stroke: 0.04 mm = ~28 mm on screen at this zoom
    Legend panel: right margin (42 mm wide)
  -->
  <defs>
    <marker id="endArrow" markerWidth="2" markerHeight="1.4"
            refX="0" refY="0.7" orient="auto"
            markerUnits="strokeWidth">
      <polyline fill="darkblue" points="0,0 2,0.7 0,1.4 0.2,0.7"/>
    </marker>
  </defs>
  <!-- Background -->
  <rect x="0" y="0" width="202.000000" height="160.000000" fill="#f0f0f0" stroke="none"/>
  <!-- Build plate boundary (150 x 150 mm) -->
  <rect x="5.000000" y="5.000000" width="150.000000" height="150.000000"
        fill="#ffffff" stroke="#aaaaaa" stroke-width="0.2" stroke-dasharray="1,0.5"/>
  <!-- Build plate centre circle (r = 75.00 mm) -->
  <circle cx="80.000000" cy="80.000000" r="75.000000"
          fill="none" stroke="#bbbbbb" stroke-width="0.15" stroke-dasharray="0.8,0.4"/>
  <!-- Centre cross-hair -->
  <line x1="5.000000" y1="80.000000" x2="155.000000" y2="80.000000" stroke="#cccccc" stroke-width="0.1"/>
  <line x1="80.000000" y1="5.000000" x2="80.000000" y2="155.000000" stroke="#cccccc" stroke-width="0.1"/>
  <circle cx="80.000000" cy="80.000000" r="0.3" fill="#cccccc" stroke="none"/>
  <!-- Corner labels -->
  <text x="5.400000" y="4.600000" font-family="sans-serif" font-size="2" fill="#888888">0,0</text>
  <text x="154.600006" y="4.600000" font-family="sans-serif" font-size="2" fill="#888888" text-anchor="end">150,0</text>
  <text x="5.400000" y="157.199997" font-family="sans-serif" font-size="2" fill="#888888">0,150</text>
  <!-- Layer geometry -->
  <g id="geometry">
    <line x1="131.45137" y1="72.11898" x2="123.67979" y2="89.57423" stroke="green" stroke-width="0.04000"/>
    <line x1="131.56084" y1="72.11898" x2="123.78926" y2="89.57423" stroke="green" stroke-width="0.04000"/>
    <line x1="131.67030" y1="72.11898" x2="123.89872" y2="89.57423" stroke="green" stroke-width="0.04000"/>
    <line x1="131.77975" y1="72.11898" x2="124.00819" y2="89.57423" stroke="green" stroke-width="0.04000"/>
    <line x1="131.88922" y1="72.11898" x2="124.11765" y2="89.57423" stroke="green" stroke-width="0.04000"/>
    <line x1="131.99869" y1="72.11898" x2="124.22711" y2="89.57423" stroke="green" stroke-width="0.04000"/>
    <line x1="132.10815" y1="72.11898" x2="124.33658" y2="89.57423" stroke="green" stroke-width="0.04000"/>
    <line x1="132.21762" y1="72.11898" x2="124.44604" y2="89.57423" stroke="green" stroke-width="0.04000"/>
    <line x1="132.32709" y1="72.11898" x2="124.55550" y2="89.57423" stroke="green" stroke-width="0.04000"/>
    <line x1="132.43655" y1="72.11898" x2="124.66497" y2="89.57423" stroke="green" stroke-width="0.04000"/>
    <line x1="132.54602" y1="72.11898" x2="124.77444" y2="89.57423" stroke="green" stroke-width="0.04000"/>
    <line x1="132.65547" y1="72.11898" x2="124.88390" y2="89.57423" stroke="green" stroke-width="0.04000"/>
    <line x1="132.76494" y1="72.11898" x2="124.99336" y2="89.57423" stroke="green" stroke-width="0.04000"/>
    <line x1="132.87439" y1="72.11898" x2="125.10282" y2="89.57423" stroke="green" stroke-width="0.04000"/>
    <line x1="132.98386" y1="72.11898" x2="125.21229" y2="89.57423" stroke="green" stroke-width="0.04000"/>
    <line x1="133.09332" y1="72.11898" x2="125.32175" y2="89.57423" stroke="green" stroke-width="0.04000"/>
    <line x1="133.20279" y1="72.11898" x2="125.43121" y2="89.57423" stroke="green" stroke-width="0.04000"/>
    <line x1="133.31226" y1="72.11898" x2="125.54068" y2="89.57423" stroke="green" stroke-width="0.04000"/>
    <line x1="133.42172" y1="72.11898" x2="125.65015" y2="89.57423" stroke="green" stroke-width="0.04000"/>
    <line x1="133.53119" y1="72.11898" x2="125.75961" y2="89.57423" stroke="green" stroke-width="0.04000"/>
    <line x1="133.64064" y1="72.11898" x2="125.86907" y2="89.57423" stroke="green" stroke-width="0.04000"/>
    <line x1="133.75011" y1="72.11898" x2="125.97853" y2="89.57423" stroke="green" stroke-width="0.04000"/>
    <line x1="133.85959" y1="72.11898" x2="126.08800" y2="89.57423" stroke="green" stroke-width="0.04000"/>
    <line x1="133.96904" y1="72.11898" x2="126.19746" y2="89.57423" stroke="green" stroke-width="0.04000"/>
    <line x1="134.07851" y1="72.11898" x2="126.30693" y2="89.57423" stroke="green" stroke-width="0.04000"/>
    <line x1="134.18797" y1="72.11898" x2="126.41639" y2="89.57423" stroke="green" stroke-width="0.04000"/>
    <line x1="134.29744" y1="72.11898" x2="126.52586" y2="89.57423" stroke="green" stroke-width="0.04000"/>
    <line x1="134.40691" y1="72.11898" x2="126.63532" y2="89.57423" stroke="green" stroke-width="0.04000"/>
    <line x1="134.51636" y1="72.11898" x2="126.74478" y2="89.57423" stroke="green" stroke-width="0.04000"/>
    <line x1="134.62582" y1="72.11898" x2="126.85425" y2="89.57423" stroke="green" stroke-width="0.04000"/>
    <line x1="134.73529" y1="72.11898" x2="126.96371" y2="89.57423" stroke="green" stroke-width="0.04000"/>
    <line x1="134.84476" y1="72.11898" x2="127.07317" y2="89.57423" stroke="green" stroke-width="0.04000"/>
    <line x1="134.95422" y1="72.11898" x2="127.18264" y2="89.57423" stroke="green" stroke-width="0.04000"/>
    <line x1="135.06367" y1="72.11898" x2="127.29210" y2="89.57423" stroke="green" stroke-width="0.04000"/>
    <line x1="135.17314" y1="72.11898" x2="127.40157" y2="89.57423" stroke="green" stroke-width="0.04000"/>
    <line x1="135.28261" y1="72.11898" x2="127.51102" y2="89.57423" stroke="green" stroke-width="0.04000"/>
    <line x1="135.39207" y1="72.11898" x2="127.62049" y2="89.57423" stroke="green" stroke-width="0.04000"/>
    <line x1="135.50154" y1="72.11898" x2="127.72995" y2="89.57423" stroke="green" stroke-width="0.04000"/>
    <line x1="135.61099" y1="72.11898" x2="127.83942" y2="89.57423" stroke="green" stroke-width="0.04000"/>
    <line x1="135.72046" y1="72.11898" x2="127.94888" y2="89.57423" stroke="green" stroke-width="0.04000"/>
    <line x1="135.82993" y1="72.11898" x2="128.05835" y2="89.57423" stroke="green" stroke-width="0.04000"/>
    <line x1="135.93939" y1="72.11898" x2="128.16782" y2="89.57423" stroke="green" stroke-width="0.04000"/>
    <line x1="136.04886" y1="72.11898" x2="128.27727" y2="89.57423" stroke="green" stroke-width="0.04000"/>
    <line x1="136.15831" y1="72.11898" x2="128.38673" y2="89.57423" stroke="green" stroke-width="0.04000"/>
    <line x1="136.26778" y1="72.11898" x2="128.49620" y2="89.57423" stroke="green" stroke-width="0.04000"/>
    <line x1="136.32379" y1="72.23904" x2="128.60565" y2="89.57423" stroke="green" stroke-width="0.04000"/>
    <line x1="136.32379" y1="72.48489" x2="128.71512" y2="89.57423" stroke="green" stroke-width="0.04000"/>
    <line x1="136.32379" y1="72.73075" x2="128.82458" y2="89.57423" stroke="green" stroke-width="0.04000"/>
    <line x1="136.32379" y1="72.97661" x2="128.93405" y2="89.57423" stroke="green" stroke-width="0.04000"/>
    <line x1="136.32379" y1="73.22247" x2="129.04352" y2="89.57423" stroke="green" stroke-width="0.04000"/>
    <line x1="136.32379" y1="73.46833" x2="129.15298" y2="89.57423" stroke="green" stroke-width="0.04000"/>
    <line x1="136.32379" y1="73.71419" x2="129.26245" y2="89.57423" stroke="green" stroke-width="0.04000"/>
    <line x1="136.32379" y1="73.96004" x2="129.37190" y2="89.57423" stroke="green" stroke-width="0.04000"/>
    <line x1="136.32379" y1="74.20591" x2="129.48137" y2="89.57423" stroke="green" stroke-width="0.04000"/>
    <line x1="136.32379" y1="74.45177" x2="129.59084" y2="89.57423" stroke="green" stroke-width="0.04000"/>
    <line x1="136.32379" y1="74.69763" x2="129.70030" y2="89.57423" stroke="green" stroke-width="0.04000"/>
    <line x1="136.32379" y1="74.94349" x2="129.80975" y2="89.57423" stroke="green" stroke-width="0.04000"/>
    <line x1="136.32379" y1="75.18935" x2="129.91922" y2="89.57423" stroke="green" stroke-width="0.04000"/>
    <line x1="136.32379" y1="75.43520" x2="130.02869" y2="89.57423" stroke="green" stroke-width="0.04000"/>
    <line x1="136.32379" y1="75.68107" x2="130.13815" y2="89.57423" stroke="green" stroke-width="0.04000"/>
    <line x1="136.32379" y1="75.92693" x2="130.24762" y2="89.57423" stroke="green" stroke-width="0.04000"/>
    <line x1="136.32379" y1="76.17278" x2="130.35709" y2="89.57423" stroke="green" stroke-width="0.04000"/>
    <line x1="136.32379" y1="76.41864" x2="130.46655" y2="89.57423" stroke="green" stroke-width="0.04000"/>
    <line x1="136.32379" y1="76.66450" x2="130.57602" y2="89.57423" stroke="green" stroke-width="0.04000"/>
    <line x1="136.32379" y1="76.91035" x2="130.68547" y2="89.57423" stroke="green" stroke-width="0.04000"/>
    <line x1="136.32379" y1="77.15622" x2="130.79494" y2="89.57423" stroke="green" stroke-width="0.04000"/>
    <line x1="136.32379" y1="77.40208" x2="130.90439" y2="89.57423" stroke="green" stroke-width="0.04000"/>
    <line x1="136.32379" y1="77.64793" x2="131.01385" y2="89.57423" stroke="green" stroke-width="0.04000"/>
    <line x1="136.32379" y1="77.89380" x2="131.12332" y2="89.57423" stroke="green" stroke-width="0.04000"/>
    <line x1="136.32379" y1="78.13966" x2="131.23279" y2="89.57423" stroke="green" stroke-width="0.04000"/>
    <line x1="136.32379" y1="78.38551" x2="131.34225" y2="89.57423" stroke="green" stroke-width="0.04000"/>
    <line x1="136.32379" y1="78.63137" x2="131.45172" y2="89.57423" stroke="green" stroke-width="0.04000"/>
    <line x1="136.32379" y1="78.87723" x2="131.56119" y2="89.57423" stroke="green" stroke-width="0.04000"/>
    <line x1="136.32379" y1="79.12309" x2="131.67065" y2="89.57423" stroke="green" stroke-width="0.04000"/>
    <line x1="136.32379" y1="79.36895" x2="131.78011" y2="89.57423" stroke="green" stroke-width="0.04000"/>
    <line x1="136.32379" y1="79.61481" x2="131.88957" y2="89.57423" stroke="green" stroke-width="0.04000"/>
    <line x1="136.32379" y1="79.86066" x2="131.99902" y2="89.57423" stroke="green" stroke-width="0.04000"/>
    <line x1="136.32379" y1="80.10653" x2="132.10849" y2="89.57423" stroke="green" stroke-width="0.04000"/>
    <line x1="136.32379" y1="80.35239" x2="132.21796" y2="89.57423" stroke="green" stroke-width="0.04000"/>
    <line x1="136.32379" y1="80.59824" x2="132.32742" y2="89.57423" stroke="green" stroke-width="0.04000"/>
    <line x1="136.32379" y1="80.84410" x2="132.43689" y2="89.57423" stroke="green" stroke-width="0.04000"/>
    <line x1="136.32379" y1="81.08996" x2="132.54636" y2="89.57423" stroke="green" stroke-width="0.04000"/>
    <line x1="136.32379" y1="81.33582" x2="132.65582" y2="89.57423" stroke="green" stroke-width="0.04000"/>
    <line x1="136.32379" y1="81.58168" x2="132.76527" y2="89.57423" stroke="green" stroke-width="0.04000"/>
    <line x1="136.32379" y1="81.82754" x2="132.87474" y2="89.57423" stroke="green" stroke-width="0.04000"/>
    <line x1="136.32379" y1="82.07339" x2="132.98421" y2="89.57423" stroke="green" stroke-width="0.04000"/>
    <line x1="136.32379" y1="82.31925" x2="133.09367" y2="89.57423" stroke="green" stroke-width="0.04000"/>
    <line x1="136.32379" y1="82.56512" x2="133.20312" y2="89.57423" stroke="green" stroke-width="0.04000"/>
    <line x1="136.32379" y1="82.81097" x2="133.31259" y2="89.57423" stroke="green" stroke-width="0.04000"/>
    <line x1="136.32379" y1="83.05683" x2="133.42206" y2="89.57423" stroke="green" stroke-width="0.04000"/>
    <line x1="136.32379" y1="83.30270" x2="133.53152" y2="89.57423" stroke="green" stroke-width="0.04000"/>
    <line x1="136.32379" y1="83.54855" x2="133.64099" y2="89.57423" stroke="green" stroke-width="0.04000"/>
    <line x1="136.32379" y1="83.79441" x2="133.75044" y2="89.57423" stroke="green" stroke-width="0.04000"/>
    <line x1="136.32379" y1="84.04027" x2="133.85991" y2="89.57423" stroke="green" stroke-width="0.04000"/>
    <line x1="136.32379" y1="84.28613" x2="133.96938" y2="89.57423" stroke="green" stroke-width="0.04000"/>
    <line x1="136.32379" y1="84.53199" x2="134.07884" y2="89.57423" stroke="green" stroke-width="0.04000"/>
    <line x1="136.32379" y1="84.77785" x2="134.18831" y2="89.57423" stroke="green" stroke-width="0.04000"/>
    <line x1="136.32379" y1="85.02371" x2="134.29778" y2="89.57423" stroke="green" stroke-width="0.04000"/>
    <line x1="136.32379" y1="85.26957" x2="134.40723" y2="89.57423" stroke="green" stroke-width="0.04000"/>
    <line x1="136.32379" y1="85.51543" x2="134.51669" y2="89.57423" stroke="green" stroke-width="0.04000"/>
    <line x1="136.32379" y1="85.76129" x2="134.62616" y2="89.57423" stroke="green" stroke-width="0.04000"/>
    <line x1="136.32379" y1="86.00715" x2="134.73563" y2="89.57423" stroke="green" stroke-width="0.04000"/>
    <line x1="136.32379" y1="86.25301" x2="134.84509" y2="89.57423" stroke="green" stroke-width="0.04000"/>
    <line x1="136.32379" y1="86.49886" x2="134.95454" y2="89.57423" stroke="green" stroke-width="0.04000"/>
    <line x1="136.32379" y1="86.74473" x2="135.06401" y2="89.57423" stroke="green" stroke-width="0.04000"/>
    <line x1="136.32379" y1="86.99059" x2="135.17348" y2="89.57423" stroke="green" stroke-width="0.04000"/>
    <line x1="136.32379" y1="87.23644" x2="135.28294" y2="89.57423" stroke="green" stroke-width="0.04000"/>
    <line x1="136.32379" y1="87.48231" x2="135.39241" y2="89.57423" stroke="green" stroke-width="0.04000"/>
    <line x1="136.32379" y1="87.72816" x2="135.50186" y2="89.57423" stroke="green" stroke-width="0.04000"/>
    <line x1="136.32379" y1="87.97404" x2="135.61134" y2="89.57423" stroke="green" stroke-width="0.04000"/>
    <line x1="136.32379" y1="88.21989" x2="135.72079" y2="89.57423" stroke="green" stroke-width="0.04000"/>
    <line x1="136.32379" y1="88.46575" x2="135.83026" y2="89.57423" stroke="green" stroke-width="0.04000"/>
    <line x1="136.32379" y1="88.71162" x2="135.93973" y2="89.57423" stroke="green" stroke-width="0.04000"/>
    <line x1="136.32379" y1="88.95747" x2="136.04919" y2="89.57423" stroke="green" stroke-width="0.04000"/>
    <line x1="136.32379" y1="89.20333" x2="136.15866" y2="89.57423" stroke="green" stroke-width="0.04000"/>
    <line x1="136.32379" y1="89.44919" x2="136.26811" y2="89.57423" stroke="green" stroke-width="0.04000"/>
    <line x1="131.34192" y1="72.11898" x2="123.62379" y2="89.45418" stroke="green" stroke-width="0.04000"/>
    <line x1="131.23245" y1="72.11898" x2="123.62379" y2="89.20831" stroke="green" stroke-width="0.04000"/>
    <line x1="131.12299" y1="72.11898" x2="123.62379" y2="88.96246" stroke="green" stroke-width="0.04000"/>
    <line x1="131.01352" y1="72.11898" x2="123.62379" y2="88.71660" stroke="green" stroke-width="0.04000"/>
    <line x1="130.90405" y1="72.11898" x2="123.62379" y2="88.47074" stroke="green" stroke-width="0.04000"/>
    <line x1="130.79459" y1="72.11898" x2="123.62379" y2="88.22488" stroke="green" stroke-width="0.04000"/>
    <line x1="130.68512" y1="72.11898" x2="123.62379" y2="87.97902" stroke="green" stroke-width="0.04000"/>
    <line x1="130.57567" y1="72.11898" x2="123.62379" y2="87.73316" stroke="green" stroke-width="0.04000"/>
    <line x1="130.46620" y1="72.11898" x2="123.62379" y2="87.48730" stroke="green" stroke-width="0.04000"/>
    <line x1="130.35675" y1="72.11898" x2="123.62379" y2="87.24144" stroke="green" stroke-width="0.04000"/>
    <line x1="130.24728" y1="72.11898" x2="123.62379" y2="86.99558" stroke="green" stroke-width="0.04000"/>
    <line x1="130.13782" y1="72.11898" x2="123.62379" y2="86.74973" stroke="green" stroke-width="0.04000"/>
    <line x1="130.02835" y1="72.11898" x2="123.62379" y2="86.50387" stroke="green" stroke-width="0.04000"/>
    <line x1="129.91888" y1="72.11898" x2="123.62379" y2="86.25800" stroke="green" stroke-width="0.04000"/>
    <line x1="129.80942" y1="72.11898" x2="123.62379" y2="86.01215" stroke="green" stroke-width="0.04000"/>
    <line x1="129.69995" y1="72.11898" x2="123.62379" y2="85.76629" stroke="green" stroke-width="0.04000"/>
    <line x1="129.59048" y1="72.11898" x2="123.62379" y2="85.52043" stroke="green" stroke-width="0.04000"/>
    <line x1="129.48103" y1="72.11898" x2="123.62379" y2="85.27457" stroke="green" stroke-width="0.04000"/>
    <line x1="129.37157" y1="72.11898" x2="123.62379" y2="85.02871" stroke="green" stroke-width="0.04000"/>
    <line x1="129.26212" y1="72.11898" x2="123.62379" y2="84.78285" stroke="green" stroke-width="0.04000"/>
    <line x1="129.15265" y1="72.11898" x2="123.62379" y2="84.53699" stroke="green" stroke-width="0.04000"/>
    <line x1="129.04318" y1="72.11898" x2="123.62379" y2="84.29114" stroke="green" stroke-width="0.04000"/>
    <line x1="128.93372" y1="72.11898" x2="123.62379" y2="84.04528" stroke="green" stroke-width="0.04000"/>
    <line x1="128.82425" y1="72.11898" x2="123.62379" y2="83.79942" stroke="green" stroke-width="0.04000"/>
    <line x1="128.71478" y1="72.11898" x2="123.62379" y2="83.55356" stroke="green" stroke-width="0.04000"/>
    <line x1="128.60532" y1="72.11898" x2="123.62379" y2="83.30770" stroke="green" stroke-width="0.04000"/>
    <line x1="128.49586" y1="72.11898" x2="123.62379" y2="83.06184" stroke="green" stroke-width="0.04000"/>
    <line x1="128.38640" y1="72.11898" x2="123.62379" y2="82.81598" stroke="green" stroke-width="0.04000"/>
    <line x1="128.27693" y1="72.11898" x2="123.62379" y2="82.57012" stroke="green" stroke-width="0.04000"/>
    <line x1="128.16748" y1="72.11898" x2="123.62379" y2="82.32426" stroke="green" stroke-width="0.04000"/>
    <line x1="128.05801" y1="72.11898" x2="123.62379" y2="82.07840" stroke="green" stroke-width="0.04000"/>
    <line x1="127.94855" y1="72.11898" x2="123.62379" y2="81.83254" stroke="green" stroke-width="0.04000"/>
    <line x1="127.83908" y1="72.11898" x2="123.62379" y2="81.58669" stroke="green" stroke-width="0.04000"/>
    <line x1="127.72961" y1="72.11898" x2="123.62379" y2="81.34083" stroke="green" stroke-width="0.04000"/>
    <line x1="127.62016" y1="72.11898" x2="123.62379" y2="81.09496" stroke="green" stroke-width="0.04000"/>
    <line x1="127.51069" y1="72.11898" x2="123.62379" y2="80.84910" stroke="green" stroke-width="0.04000"/>
    <line x1="127.40122" y1="72.11898" x2="123.62379" y2="80.60324" stroke="green" stroke-width="0.04000"/>
    <line x1="127.29176" y1="72.11898" x2="123.62379" y2="80.35738" stroke="green" stroke-width="0.04000"/>
    <line x1="127.18230" y1="72.11898" x2="123.62379" y2="80.11153" stroke="green" stroke-width="0.04000"/>
    <line x1="127.07283" y1="72.11898" x2="123.62379" y2="79.86567" stroke="green" stroke-width="0.04000"/>
    <line x1="126.96337" y1="72.11898" x2="123.62379" y2="79.61980" stroke="green" stroke-width="0.04000"/>
    <line x1="126.85390" y1="72.11898" x2="123.62379" y2="79.37395" stroke="green" stroke-width="0.04000"/>
    <line x1="126.74445" y1="72.11898" x2="123.62379" y2="79.12809" stroke="green" stroke-width="0.04000"/>
    <line x1="126.63497" y1="72.11898" x2="123.62379" y2="78.88223" stroke="green" stroke-width="0.04000"/>
    <line x1="126.52551" y1="72.11898" x2="123.62379" y2="78.63636" stroke="green" stroke-width="0.04000"/>
    <line x1="126.41605" y1="72.11898" x2="123.62379" y2="78.39050" stroke="green" stroke-width="0.04000"/>
    <line x1="126.30659" y1="72.11898" x2="123.62379" y2="78.14465" stroke="green" stroke-width="0.04000"/>
    <line x1="126.19712" y1="72.11898" x2="123.62379" y2="77.89878" stroke="green" stroke-width="0.04000"/>
    <line x1="126.08766" y1="72.11898" x2="123.62379" y2="77.65292" stroke="green" stroke-width="0.04000"/>
    <line x1="125.97820" y1="72.11898" x2="123.62379" y2="77.40707" stroke="green" stroke-width="0.04000"/>
    <line x1="125.86873" y1="72.11898" x2="123.62379" y2="77.16121" stroke="green" stroke-width="0.04000"/>
    <line x1="125.75927" y1="72.11898" x2="123.62379" y2="76.91535" stroke="green" stroke-width="0.04000"/>
    <line x1="125.64980" y1="72.11898" x2="123.62379" y2="76.66949" stroke="green" stroke-width="0.04000"/>
    <line x1="125.54034" y1="72.11898" x2="123.62379" y2="76.42363" stroke="green" stroke-width="0.04000"/>
    <line x1="125.43088" y1="72.11898" x2="123.62379" y2="76.17777" stroke="green" stroke-width="0.04000"/>
    <line x1="125.32141" y1="72.11898" x2="123.62379" y2="75.93192" stroke="green" stroke-width="0.04000"/>
    <line x1="125.21195" y1="72.11898" x2="123.62379" y2="75.68606" stroke="green" stroke-width="0.04000"/>
    <line x1="125.10249" y1="72.11898" x2="123.62379" y2="75.44020" stroke="green" stroke-width="0.04000"/>
    <line x1="124.99302" y1="72.11898" x2="123.62379" y2="75.19434" stroke="green" stroke-width="0.04000"/>
    <line x1="124.88356" y1="72.11898" x2="123.62379" y2="74.94848" stroke="green" stroke-width="0.04000"/>
    <line x1="124.77409" y1="72.11898" x2="123.62379" y2="74.70262" stroke="green" stroke-width="0.04000"/>
    <line x1="124.66463" y1="72.11898" x2="123.62379" y2="74.45676" stroke="green" stroke-width="0.04000"/>
    <line x1="124.55517" y1="72.11898" x2="123.62379" y2="74.21090" stroke="green" stroke-width="0.04000"/>
    <line x1="124.44571" y1="72.11898" x2="123.62379" y2="73.96504" stroke="green" stroke-width="0.04000"/>
    <line x1="124.33624" y1="72.11898" x2="123.62379" y2="73.71918" stroke="green" stroke-width="0.04000"/>
    <line x1="124.22678" y1="72.11898" x2="123.62379" y2="73.47333" stroke="green" stroke-width="0.04000"/>
    <line x1="124.11732" y1="72.11898" x2="123.62379" y2="73.22747" stroke="green" stroke-width="0.04000"/>
    <line x1="124.00785" y1="72.11898" x2="123.62379" y2="72.98161" stroke="green" stroke-width="0.04000"/>
    <line x1="123.89839" y1="72.11898" x2="123.62379" y2="72.73575" stroke="green" stroke-width="0.04000"/>
    <line x1="123.78893" y1="72.11898" x2="123.62379" y2="72.48988" stroke="green" stroke-width="0.04000"/>
    <line x1="123.67946" y1="72.11898" x2="123.62379" y2="72.24403" stroke="green" stroke-width="0.04000"/>
    <path d="M 136.324 89.5742 L 123.624 89.5742 L 123.624 72.119 L 136.324 72.119 L 136.324 89.5742" fill="none" stroke="blue" stroke-width="0.04000" fill-rule="evenodd" fill-opacity="1.000"/>
  </g>
</svg>
