<?xml version="1.0" encoding="UTF-8" standalone="yes"?>
<svg xmlns="http://www.w3.org/2000/svg"
     xmlns:xlink="http://www.w3.org/1999/xlink"
     width="2020.0000mm" height="1600.0000mm"
     viewBox="0 0 202.000000 160.000000">
  <!--
    Build plate : 150.00 x 150.00 mm
    Coordinate  : 1 SVG unit = 1 mm
    Display zoom: 10x  (width/height = viewBox x 10)
    Hatch stroke: 0.04 mm = ~28 mm on screen at this zoom
    Legend panel: right margin (42 mm wide)
  -->
  <defs>
    <marker id="endArrow" markerWidth="2" markerHeight="1.4"
            refX="0" refY="0.7" orient="auto"
            markerUnits="strokeWidth">
      <polyline fill="darkblue" points="0,0 2,0.7 0,1.4 0.2,0.7"/>
    </marker>
  </defs>
  <!-- Background -->
  <rect x="0" y="0" width="202.000000" height="160.000000" fill="#f0f0f0" stroke="none"/>
  <!-- Build plate boundary (150 x 150 mm) -->
  <rect x="5.000000" y="5.000000" width="150.000000" height="150.000000"
        fill="#ffffff" stroke="#aaaaaa" stroke-width="0.2" stroke-dasharray="1,0.5"/>
  <!-- Build plate centre circle (r = 75.00 mm) -->
  <circle cx="80.000000" cy="80.000000" r="75.000000"
          fill="none" stroke="#bbbbbb" stroke-width="0.15" stroke-dasharray="0.8,0.4"/>
  <!-- Centre cross-hair -->
  <line x1="5.000000" y1="80.000000" x2="155.000000" y2="80.000000" stroke="#cccccc" stroke-width="0.1"/>
  <line x1="80.000000" y1="5.000000" x2="80.000000" y2="155.000000" stroke="#cccccc" stroke-width="0.1"/>
  <circle cx="80.000000" cy="80.000000" r="0.3" fill="#cccccc" stroke="none"/>
  <!-- Corner labels -->
  <text x="5.400000" y="4.600000" font-family="sans-serif" font-size="2" fill="#888888">0,0</text>
  <text x="154.600006" y="4.600000" font-family="sans-serif" font-size="2" fill="#888888" text-anchor="end">150,0</text>
  <text x="5.400000" y="157.199997" font-family="sans-serif" font-size="2" fill="#888888">0,150</text>
  <!-- Layer geometry -->
  <g id="geometry">
    <line x1="63.35531" y1="96.50000" x2="96.73375" y2="85.65469" stroke="green" stroke-width="0.04000"/>
    <line x1="63.67892" y1="96.50000" x2="96.73375" y2="85.75983" stroke="green" stroke-width="0.04000"/>
    <line x1="64.00253" y1="96.50000" x2="96.73375" y2="85.86498" stroke="green" stroke-width="0.04000"/>
    <line x1="64.32613" y1="96.50000" x2="96.73375" y2="85.97012" stroke="green" stroke-width="0.04000"/>
    <line x1="64.64974" y1="96.50000" x2="96.73375" y2="86.07527" stroke="green" stroke-width="0.04000"/>
    <line x1="64.97335" y1="96.50000" x2="96.73375" y2="86.18042" stroke="green" stroke-width="0.04000"/>
    <line x1="65.29697" y1="96.50000" x2="96.73375" y2="86.28557" stroke="green" stroke-width="0.04000"/>
    <line x1="65.62056" y1="96.50000" x2="96.73375" y2="86.39072" stroke="green" stroke-width="0.04000"/>
    <line x1="65.94417" y1="96.50000" x2="96.73375" y2="86.49586" stroke="green" stroke-width="0.04000"/>
    <line x1="66.26778" y1="96.50000" x2="96.73375" y2="86.60101" stroke="green" stroke-width="0.04000"/>
    <line x1="66.59138" y1="96.50000" x2="96.73375" y2="86.70615" stroke="green" stroke-width="0.04000"/>
    <line x1="66.91499" y1="96.50000" x2="96.73375" y2="86.81129" stroke="green" stroke-width="0.04000"/>
    <line x1="67.23860" y1="96.50000" x2="96.73375" y2="86.91644" stroke="green" stroke-width="0.04000"/>
    <line x1="67.56220" y1="96.50000" x2="96.73375" y2="87.02159" stroke="green" stroke-width="0.04000"/>
    <line x1="67.88580" y1="96.50000" x2="96.73375" y2="87.12673" stroke="green" stroke-width="0.04000"/>
    <line x1="68.20942" y1="96.50000" x2="96.73375" y2="87.23188" stroke="green" stroke-width="0.04000"/>
    <line x1="68.53302" y1="96.50000" x2="96.73375" y2="87.33703" stroke="green" stroke-width="0.04000"/>
    <line x1="68.85663" y1="96.50000" x2="96.73375" y2="87.44218" stroke="green" stroke-width="0.04000"/>
    <line x1="69.18024" y1="96.50000" x2="96.73375" y2="87.54732" stroke="green" stroke-width="0.04000"/>
    <line x1="69.50384" y1="96.50000" x2="96.73375" y2="87.65247" stroke="green" stroke-width="0.04000"/>
    <line x1="69.82745" y1="96.50000" x2="96.73375" y2="87.75761" stroke="green" stroke-width="0.04000"/>
    <line x1="70.15105" y1="96.50000" x2="96.73375" y2="87.86275" stroke="green" stroke-width="0.04000"/>
    <line x1="70.47467" y1="96.50000" x2="96.73375" y2="87.96791" stroke="green" stroke-width="0.04000"/>
    <line x1="70.79827" y1="96.50000" x2="96.73375" y2="88.07305" stroke="green" stroke-width="0.04000"/>
    <line x1="71.12187" y1="96.50000" x2="96.73375" y2="88.17820" stroke="green" stroke-width="0.04000"/>
    <line x1="71.44549" y1="96.50000" x2="96.73375" y2="88.28335" stroke="green" stroke-width="0.04000"/>
    <line x1="71.76909" y1="96.50000" x2="96.73375" y2="88.38849" stroke="green" stroke-width="0.04000"/>
    <line x1="72.09269" y1="96.50000" x2="96.73375" y2="88.49364" stroke="green" stroke-width="0.04000"/>
    <line x1="72.41631" y1="96.50000" x2="96.73375" y2="88.59879" stroke="green" stroke-width="0.04000"/>
    <line x1="72.73991" y1="96.50000" x2="96.73375" y2="88.70393" stroke="green" stroke-width="0.04000"/>
    <line x1="73.06351" y1="96.50000" x2="96.73375" y2="88.80907" stroke="green" stroke-width="0.04000"/>
    <line x1="73.38713" y1="96.50000" x2="96.73375" y2="88.91422" stroke="green" stroke-width="0.04000"/>
    <line x1="73.71073" y1="96.50000" x2="96.73375" y2="89.01936" stroke="green" stroke-width="0.04000"/>
    <line x1="74.03434" y1="96.50000" x2="96.73375" y2="89.12452" stroke="green" stroke-width="0.04000"/>
    <line x1="74.35795" y1="96.50000" x2="96.73375" y2="89.22966" stroke="green" stroke-width="0.04000"/>
    <line x1="74.68155" y1="96.50000" x2="96.73375" y2="89.33481" stroke="green" stroke-width="0.04000"/>
    <line x1="75.00517" y1="96.50000" x2="96.73375" y2="89.43996" stroke="green" stroke-width="0.04000"/>
    <line x1="75.32877" y1="96.50000" x2="96.73375" y2="89.54510" stroke="green" stroke-width="0.04000"/>
    <line x1="75.65238" y1="96.50000" x2="96.73375" y2="89.65025" stroke="green" stroke-width="0.04000"/>
    <line x1="75.97598" y1="96.50000" x2="96.73375" y2="89.75539" stroke="green" stroke-width="0.04000"/>
    <line x1="76.29958" y1="96.50000" x2="96.73375" y2="89.86053" stroke="green" stroke-width="0.04000"/>
    <line x1="76.62320" y1="96.50000" x2="96.73375" y2="89.96568" stroke="green" stroke-width="0.04000"/>
    <line x1="76.94680" y1="96.50000" x2="96.73375" y2="90.07083" stroke="green" stroke-width="0.04000"/>
    <line x1="77.27040" y1="96.50000" x2="96.73375" y2="90.17597" stroke="green" stroke-width="0.04000"/>
    <line x1="77.59402" y1="96.50000" x2="96.73375" y2="90.28112" stroke="green" stroke-width="0.04000"/>
    <line x1="77.91762" y1="96.50000" x2="96.73375" y2="90.38627" stroke="green" stroke-width="0.04000"/>
    <line x1="78.24122" y1="96.50000" x2="96.73375" y2="90.49141" stroke="green" stroke-width="0.04000"/>
    <line x1="78.56483" y1="96.50000" x2="96.73375" y2="90.59656" stroke="green" stroke-width="0.04000"/>
    <line x1="78.88844" y1="96.50000" x2="96.73375" y2="90.70171" stroke="green" stroke-width="0.04000"/>
    <line x1="79.21205" y1="96.50000" x2="96.73375" y2="90.80685" stroke="green" stroke-width="0.04000"/>
    <line x1="79.53565" y1="96.50000" x2="96.73375" y2="90.91200" stroke="green" stroke-width="0.04000"/>
    <line x1="79.85927" y1="96.50000" x2="96.73375" y2="91.01715" stroke="green" stroke-width="0.04000"/>
    <line x1="80.18287" y1="96.50000" x2="96.73375" y2="91.12229" stroke="green" stroke-width="0.04000"/>
    <line x1="80.50647" y1="96.50000" x2="96.73375" y2="91.22744" stroke="green" stroke-width="0.04000"/>
    <line x1="80.83009" y1="96.50000" x2="96.73375" y2="91.33259" stroke="green" stroke-width="0.04000"/>
    <line x1="81.15369" y1="96.50000" x2="96.73375" y2="91.43773" stroke="green" stroke-width="0.04000"/>
    <line x1="81.47729" y1="96.50000" x2="96.73375" y2="91.54288" stroke="green" stroke-width="0.04000"/>
    <line x1="81.80091" y1="96.50000" x2="96.73375" y2="91.64803" stroke="green" stroke-width="0.04000"/>
    <line x1="82.12451" y1="96.50000" x2="96.73375" y2="91.75317" stroke="green" stroke-width="0.04000"/>
    <line x1="82.44811" y1="96.50000" x2="96.73375" y2="91.85831" stroke="green" stroke-width="0.04000"/>
    <line x1="82.77173" y1="96.50000" x2="96.73375" y2="91.96346" stroke="green" stroke-width="0.04000"/>
    <line x1="83.09533" y1="96.50000" x2="96.73375" y2="92.06861" stroke="green" stroke-width="0.04000"/>
    <line x1="83.41893" y1="96.50000" x2="96.73375" y2="92.17375" stroke="green" stroke-width="0.04000"/>
    <line x1="83.74255" y1="96.50000" x2="96.73375" y2="92.27890" stroke="green" stroke-width="0.04000"/>
    <line x1="84.06615" y1="96.50000" x2="96.73375" y2="92.38405" stroke="green" stroke-width="0.04000"/>
    <line x1="84.38976" y1="96.50000" x2="96.73375" y2="92.48920" stroke="green" stroke-width="0.04000"/>
    <line x1="84.71336" y1="96.50000" x2="96.73375" y2="92.59434" stroke="green" stroke-width="0.04000"/>
    <line x1="85.03698" y1="96.50000" x2="96.73375" y2="92.69949" stroke="green" stroke-width="0.04000"/>
    <line x1="85.36058" y1="96.50000" x2="96.73375" y2="92.80463" stroke="green" stroke-width="0.04000"/>
    <line x1="85.68418" y1="96.50000" x2="96.73375" y2="92.90977" stroke="green" stroke-width="0.04000"/>
    <line x1="86.00780" y1="96.50000" x2="96.73375" y2="93.01492" stroke="green" stroke-width="0.04000"/>
    <line x1="86.33140" y1="96.50000" x2="96.73375" y2="93.12007" stroke="green" stroke-width="0.04000"/>
    <line x1="86.65500" y1="96.50000" x2="96.73375" y2="93.22521" stroke="green" stroke-width="0.04000"/>
    <line x1="86.97861" y1="96.50000" x2="96.73375" y2="93.33036" stroke="green" stroke-width="0.04000"/>
    <line x1="87.30222" y1="96.50000" x2="96.73375" y2="93.43551" stroke="green" stroke-width="0.04000"/>
    <line x1="87.62582" y1="96.50000" x2="96.73375" y2="93.54066" stroke="green" stroke-width="0.04000"/>
    <line x1="87.94943" y1="96.50000" x2="96.73375" y2="93.64580" stroke="green" stroke-width="0.04000"/>
    <line x1="88.27304" y1="96.50000" x2="96.73375" y2="93.75095" stroke="green" stroke-width="0.04000"/>
    <line x1="88.59664" y1="96.50000" x2="96.73375" y2="93.85609" stroke="green" stroke-width="0.04000"/>
    <line x1="88.92025" y1="96.50000" x2="96.73375" y2="93.96124" stroke="green" stroke-width="0.04000"/>
    <line x1="89.24386" y1="96.50000" x2="96.73375" y2="94.06638" stroke="green" stroke-width="0.04000"/>
    <line x1="89.56747" y1="96.50000" x2="96.73375" y2="94.17153" stroke="green" stroke-width="0.04000"/>
    <line x1="89.89108" y1="96.50000" x2="96.73375" y2="94.27668" stroke="green" stroke-width="0.04000"/>
    <line x1="90.21468" y1="96.50000" x2="96.73375" y2="94.38183" stroke="green" stroke-width="0.04000"/>
    <line x1="90.53829" y1="96.50000" x2="96.73375" y2="94.48698" stroke="green" stroke-width="0.04000"/>
    <line x1="90.86189" y1="96.50000" x2="96.73375" y2="94.59212" stroke="green" stroke-width="0.04000"/>
    <line x1="91.18550" y1="96.50000" x2="96.73375" y2="94.69727" stroke="green" stroke-width="0.04000"/>
    <line x1="91.50911" y1="96.50000" x2="96.73375" y2="94.80241" stroke="green" stroke-width="0.04000"/>
    <line x1="91.83271" y1="96.50000" x2="96.73375" y2="94.90755" stroke="green" stroke-width="0.04000"/>
    <line x1="92.15633" y1="96.50000" x2="96.73375" y2="95.01270" stroke="green" stroke-width="0.04000"/>
    <line x1="92.47993" y1="96.50000" x2="96.73375" y2="95.11785" stroke="green" stroke-width="0.04000"/>
    <line x1="92.80353" y1="96.50000" x2="96.73375" y2="95.22299" stroke="green" stroke-width="0.04000"/>
    <line x1="93.12714" y1="96.50000" x2="96.73375" y2="95.32814" stroke="green" stroke-width="0.04000"/>
    <line x1="93.45074" y1="96.50000" x2="96.73375" y2="95.43329" stroke="green" stroke-width="0.04000"/>
    <line x1="93.77435" y1="96.50000" x2="96.73375" y2="95.53843" stroke="green" stroke-width="0.04000"/>
    <line x1="94.09797" y1="96.50000" x2="96.73375" y2="95.64359" stroke="green" stroke-width="0.04000"/>
    <line x1="94.42157" y1="96.50000" x2="96.73375" y2="95.74873" stroke="green" stroke-width="0.04000"/>
    <line x1="94.74518" y1="96.50000" x2="96.73375" y2="95.85387" stroke="green" stroke-width="0.04000"/>
    <line x1="95.06878" y1="96.50000" x2="96.73375" y2="95.95901" stroke="green" stroke-width="0.04000"/>
    <line x1="95.39239" y1="96.50000" x2="96.73375" y2="96.06416" stroke="green" stroke-width="0.04000"/>
    <line x1="95.71600" y1="96.50000" x2="96.73375" y2="96.16931" stroke="green" stroke-width="0.04000"/>
    <line x1="96.03960" y1="96.50000" x2="96.73375" y2="96.27446" stroke="green" stroke-width="0.04000"/>
    <line x1="96.36321" y1="96.50000" x2="96.73375" y2="96.37961" stroke="green" stroke-width="0.04000"/>
    <line x1="96.68682" y1="96.50000" x2="96.73375" y2="96.48475" stroke="green" stroke-width="0.04000"/>
    <line x1="63.26625" y1="96.42380" x2="96.73375" y2="85.54955" stroke="green" stroke-width="0.04000"/>
    <line x1="63.26625" y1="96.31865" x2="96.73375" y2="85.44440" stroke="green" stroke-width="0.04000"/>
    <line x1="63.26625" y1="96.21350" x2="96.73375" y2="85.33925" stroke="green" stroke-width="0.04000"/>
    <line x1="63.26625" y1="96.10836" x2="96.73375" y2="85.23411" stroke="green" stroke-width="0.04000"/>
    <line x1="63.26625" y1="96.00320" x2="96.73375" y2="85.12896" stroke="green" stroke-width="0.04000"/>
    <line x1="63.26625" y1="95.89806" x2="96.73375" y2="85.02381" stroke="green" stroke-width="0.04000"/>
    <line x1="63.26625" y1="95.79292" x2="96.73375" y2="84.91867" stroke="green" stroke-width="0.04000"/>
    <line x1="63.26625" y1="95.68777" x2="96.73375" y2="84.81351" stroke="green" stroke-width="0.04000"/>
    <line x1="63.26625" y1="95.58263" x2="96.73375" y2="84.70837" stroke="green" stroke-width="0.04000"/>
    <line x1="63.26625" y1="95.47748" x2="96.73375" y2="84.60323" stroke="green" stroke-width="0.04000"/>
    <line x1="63.26625" y1="95.37233" x2="96.73375" y2="84.49808" stroke="green" stroke-width="0.04000"/>
    <line x1="63.26625" y1="95.26718" x2="96.73375" y2="84.39294" stroke="green" stroke-width="0.04000"/>
    <line x1="63.26625" y1="95.16204" x2="96.73375" y2="84.28779" stroke="green" stroke-width="0.04000"/>
    <line x1="63.26625" y1="95.05689" x2="96.73375" y2="84.18264" stroke="green" stroke-width="0.04000"/>
    <line x1="63.26625" y1="94.95174" x2="96.73375" y2="84.07749" stroke="green" stroke-width="0.04000"/>
    <line x1="63.26625" y1="94.84660" x2="96.73375" y2="83.97235" stroke="green" stroke-width="0.04000"/>
    <line x1="63.26625" y1="94.74146" x2="96.73375" y2="83.86720" stroke="green" stroke-width="0.04000"/>
    <line x1="63.26625" y1="94.63631" x2="96.73375" y2="83.76205" stroke="green" stroke-width="0.04000"/>
    <line x1="63.26625" y1="94.53116" x2="96.73375" y2="83.65691" stroke="green" stroke-width="0.04000"/>
    <line x1="63.26625" y1="94.42602" x2="96.73375" y2="83.55177" stroke="green" stroke-width="0.04000"/>
    <line x1="63.26625" y1="94.32087" x2="96.73375" y2="83.44662" stroke="green" stroke-width="0.04000"/>
    <line x1="63.26625" y1="94.21572" x2="96.73375" y2="83.34147" stroke="green" stroke-width="0.04000"/>
    <line x1="63.26625" y1="94.11058" x2="96.73375" y2="83.23633" stroke="green" stroke-width="0.04000"/>
    <line x1="63.26625" y1="94.00543" x2="96.73375" y2="83.13118" stroke="green" stroke-width="0.04000"/>
    <line x1="63.26625" y1="93.90028" x2="96.73375" y2="83.02603" stroke="green" stroke-width="0.04000"/>
    <line x1="63.26625" y1="93.79514" x2="96.73375" y2="82.92089" stroke="green" stroke-width="0.04000"/>
    <line x1="63.26625" y1="93.68999" x2="96.73375" y2="82.81574" stroke="green" stroke-width="0.04000"/>
    <line x1="63.26625" y1="93.58485" x2="96.73375" y2="82.71059" stroke="green" stroke-width="0.04000"/>
    <line x1="63.26625" y1="93.47970" x2="96.73375" y2="82.60545" stroke="green" stroke-width="0.04000"/>
    <line x1="63.26625" y1="93.37456" x2="96.73375" y2="82.50031" stroke="green" stroke-width="0.04000"/>
    <line x1="63.26625" y1="93.26940" x2="96.73375" y2="82.39515" stroke="green" stroke-width="0.04000"/>
    <line x1="63.26625" y1="93.16426" x2="96.73375" y2="82.29001" stroke="green" stroke-width="0.04000"/>
    <line x1="63.26625" y1="93.05911" x2="96.73375" y2="82.18487" stroke="green" stroke-width="0.04000"/>
    <line x1="63.26625" y1="92.95396" x2="96.73375" y2="82.07971" stroke="green" stroke-width="0.04000"/>
    <line x1="63.26625" y1="92.84882" x2="96.73375" y2="81.97457" stroke="green" stroke-width="0.04000"/>
    <line x1="63.26625" y1="92.74368" x2="96.73375" y2="81.86942" stroke="green" stroke-width="0.04000"/>
    <line x1="63.26625" y1="92.63853" x2="96.73375" y2="81.76427" stroke="green" stroke-width="0.04000"/>
    <line x1="63.26625" y1="92.53339" x2="96.73375" y2="81.65913" stroke="green" stroke-width="0.04000"/>
    <line x1="63.26625" y1="92.42824" x2="96.73375" y2="81.55399" stroke="green" stroke-width="0.04000"/>
    <line x1="63.26625" y1="92.32309" x2="96.73375" y2="81.44884" stroke="green" stroke-width="0.04000"/>
    <line x1="63.26625" y1="92.21794" x2="96.73375" y2="81.34370" stroke="green" stroke-width="0.04000"/>
    <line x1="63.26625" y1="92.11280" x2="96.73375" y2="81.23855" stroke="green" stroke-width="0.04000"/>
    <line x1="63.26625" y1="92.00765" x2="96.73375" y2="81.13340" stroke="green" stroke-width="0.04000"/>
    <line x1="63.26625" y1="91.90250" x2="96.73375" y2="81.02826" stroke="green" stroke-width="0.04000"/>
    <line x1="63.26625" y1="91.79736" x2="96.73375" y2="80.92311" stroke="green" stroke-width="0.04000"/>
    <line x1="63.26625" y1="91.69221" x2="96.73375" y2="80.81796" stroke="green" stroke-width="0.04000"/>
    <line x1="63.26625" y1="91.58707" x2="96.73375" y2="80.71281" stroke="green" stroke-width="0.04000"/>
    <line x1="63.26625" y1="91.48192" x2="96.73375" y2="80.60767" stroke="green" stroke-width="0.04000"/>
    <line x1="63.26625" y1="91.37678" x2="96.73375" y2="80.50253" stroke="green" stroke-width="0.04000"/>
    <line x1="63.26625" y1="91.27163" x2="96.73375" y2="80.39738" stroke="green" stroke-width="0.04000"/>
    <line x1="63.26625" y1="91.16648" x2="96.73375" y2="80.29223" stroke="green" stroke-width="0.04000"/>
    <line x1="63.26625" y1="91.06134" x2="96.73375" y2="80.18709" stroke="green" stroke-width="0.04000"/>
    <line x1="63.26625" y1="90.95619" x2="96.73375" y2="80.08194" stroke="green" stroke-width="0.04000"/>
    <line x1="63.26625" y1="90.85104" x2="96.73375" y2="79.97679" stroke="green" stroke-width="0.04000"/>
    <line x1="63.26625" y1="90.74590" x2="96.73375" y2="79.87165" stroke="green" stroke-width="0.04000"/>
    <line x1="63.26625" y1="90.64075" x2="96.73375" y2="79.76650" stroke="green" stroke-width="0.04000"/>
    <line x1="63.26625" y1="90.53561" x2="96.73375" y2="79.66135" stroke="green" stroke-width="0.04000"/>
    <line x1="63.26625" y1="90.43047" x2="96.73375" y2="79.55621" stroke="green" stroke-width="0.04000"/>
    <line x1="63.26625" y1="90.32532" x2="96.73375" y2="79.45107" stroke="green" stroke-width="0.04000"/>
    <line x1="63.26625" y1="90.22017" x2="96.73375" y2="79.34592" stroke="green" stroke-width="0.04000"/>
    <line x1="63.26625" y1="90.11502" x2="96.73375" y2="79.24077" stroke="green" stroke-width="0.04000"/>
    <line x1="63.26625" y1="90.00987" x2="96.73375" y2="79.13562" stroke="green" stroke-width="0.04000"/>
    <line x1="63.26625" y1="89.90472" x2="96.73375" y2="79.03048" stroke="green" stroke-width="0.04000"/>
    <line x1="63.26625" y1="89.79958" x2="96.73375" y2="78.92533" stroke="green" stroke-width="0.04000"/>
    <line x1="63.26625" y1="89.69444" x2="96.73375" y2="78.82018" stroke="green" stroke-width="0.04000"/>
    <line x1="63.26625" y1="89.58929" x2="96.73375" y2="78.71504" stroke="green" stroke-width="0.04000"/>
    <line x1="63.26625" y1="89.48414" x2="96.73375" y2="78.60989" stroke="green" stroke-width="0.04000"/>
    <line x1="63.26625" y1="89.37900" x2="96.73375" y2="78.50475" stroke="green" stroke-width="0.04000"/>
    <line x1="63.26625" y1="89.27385" x2="96.73375" y2="78.39960" stroke="green" stroke-width="0.04000"/>
    <line x1="63.26625" y1="89.16870" x2="96.73375" y2="78.29445" stroke="green" stroke-width="0.04000"/>
    <line x1="63.26625" y1="89.06356" x2="96.73375" y2="78.18931" stroke="green" stroke-width="0.04000"/>
    <line x1="63.26625" y1="88.95841" x2="96.73375" y2="78.08416" stroke="green" stroke-width="0.04000"/>
    <line x1="63.26625" y1="88.85326" x2="96.73375" y2="77.97901" stroke="green" stroke-width="0.04000"/>
    <line x1="63.26625" y1="88.74812" x2="96.73375" y2="77.87387" stroke="green" stroke-width="0.04000"/>
    <line x1="63.26625" y1="88.64297" x2="96.73375" y2="77.76872" stroke="green" stroke-width="0.04000"/>
    <line x1="63.26625" y1="88.53783" x2="96.73375" y2="77.66357" stroke="green" stroke-width="0.04000"/>
    <line x1="63.26625" y1="88.43268" x2="96.73375" y2="77.55843" stroke="green" stroke-width="0.04000"/>
    <line x1="63.26625" y1="88.32754" x2="96.73375" y2="77.45329" stroke="green" stroke-width="0.04000"/>
    <line x1="63.26625" y1="88.22239" x2="96.73375" y2="77.34814" stroke="green" stroke-width="0.04000"/>
    <line x1="63.26625" y1="88.11724" x2="96.73375" y2="77.24299" stroke="green" stroke-width="0.04000"/>
    <line x1="63.26625" y1="88.01210" x2="96.73375" y2="77.13785" stroke="green" stroke-width="0.04000"/>
    <line x1="63.26625" y1="87.90695" x2="96.73375" y2="77.03270" stroke="green" stroke-width="0.04000"/>
    <line x1="63.26625" y1="87.80180" x2="96.73375" y2="76.92755" stroke="green" stroke-width="0.04000"/>
    <line x1="63.26625" y1="87.69666" x2="96.73375" y2="76.82241" stroke="green" stroke-width="0.04000"/>
    <line x1="63.26625" y1="87.59151" x2="96.73375" y2="76.71726" stroke="green" stroke-width="0.04000"/>
    <line x1="63.26625" y1="87.48637" x2="96.73375" y2="76.61211" stroke="green" stroke-width="0.04000"/>
    <line x1="63.26625" y1="87.38122" x2="96.73375" y2="76.50697" stroke="green" stroke-width="0.04000"/>
    <line x1="63.26625" y1="87.27607" x2="96.73375" y2="76.40182" stroke="green" stroke-width="0.04000"/>
    <line x1="63.26625" y1="87.17092" x2="96.73375" y2="76.29668" stroke="green" stroke-width="0.04000"/>
    <line x1="63.26625" y1="87.06578" x2="96.73375" y2="76.19153" stroke="green" stroke-width="0.04000"/>
    <line x1="63.26625" y1="86.96063" x2="96.73375" y2="76.08638" stroke="green" stroke-width="0.04000"/>
    <line x1="63.26625" y1="86.85548" x2="96.73375" y2="75.98124" stroke="green" stroke-width="0.04000"/>
    <line x1="63.26625" y1="86.75034" x2="96.73375" y2="75.87609" stroke="green" stroke-width="0.04000"/>
    <line x1="63.26625" y1="86.64520" x2="96.73375" y2="75.77094" stroke="green" stroke-width="0.04000"/>
    <line x1="63.26625" y1="86.54005" x2="96.73375" y2="75.66579" stroke="green" stroke-width="0.04000"/>
    <line x1="63.26625" y1="86.43490" x2="96.73375" y2="75.56065" stroke="green" stroke-width="0.04000"/>
    <line x1="63.26625" y1="86.32976" x2="96.73375" y2="75.45551" stroke="green" stroke-width="0.04000"/>
    <line x1="63.26625" y1="86.22461" x2="96.73375" y2="75.35036" stroke="green" stroke-width="0.04000"/>
    <line x1="63.26625" y1="86.11946" x2="96.73375" y2="75.24521" stroke="green" stroke-width="0.04000"/>
    <line x1="63.26625" y1="86.01432" x2="96.73375" y2="75.14007" stroke="green" stroke-width="0.04000"/>
    <line x1="63.26625" y1="85.90917" x2="96.73375" y2="75.03492" stroke="green" stroke-width="0.04000"/>
    <line x1="63.26625" y1="85.80402" x2="96.73375" y2="74.92977" stroke="green" stroke-width="0.04000"/>
    <line x1="63.26625" y1="85.69888" x2="96.73375" y2="74.82463" stroke="green" stroke-width="0.04000"/>
    <line x1="63.26625" y1="85.59373" x2="96.73375" y2="74.71948" stroke="green" stroke-width="0.04000"/>
    <line x1="63.26625" y1="85.48859" x2="96.73375" y2="74.61433" stroke="green" stroke-width="0.04000"/>
    <line x1="63.26625" y1="85.38344" x2="96.73375" y2="74.50919" stroke="green" stroke-width="0.04000"/>
    <line x1="63.26625" y1="85.27830" x2="96.73375" y2="74.40405" stroke="green" stroke-width="0.04000"/>
    <line x1="63.26625" y1="85.17315" x2="96.73375" y2="74.29890" stroke="green" stroke-width="0.04000"/>
    <line x1="63.26625" y1="85.06800" x2="96.73375" y2="74.19375" stroke="green" stroke-width="0.04000"/>
    <line x1="63.26625" y1="84.96285" x2="96.73375" y2="74.08861" stroke="green" stroke-width="0.04000"/>
    <line x1="63.26625" y1="84.85771" x2="96.73375" y2="73.98346" stroke="green" stroke-width="0.04000"/>
    <line x1="63.26625" y1="84.75256" x2="96.73375" y2="73.87831" stroke="green" stroke-width="0.04000"/>
    <line x1="63.26625" y1="84.64742" x2="96.73375" y2="73.77316" stroke="green" stroke-width="0.04000"/>
    <line x1="63.26625" y1="84.54227" x2="96.73375" y2="73.66802" stroke="green" stroke-width="0.04000"/>
    <line x1="63.26625" y1="84.43712" x2="96.73375" y2="73.56287" stroke="green" stroke-width="0.04000"/>
    <line x1="63.26625" y1="84.33198" x2="96.73375" y2="73.45773" stroke="green" stroke-width="0.04000"/>
    <line x1="63.26625" y1="84.22683" x2="96.73375" y2="73.35258" stroke="green" stroke-width="0.04000"/>
    <line x1="63.26625" y1="84.12168" x2="96.73375" y2="73.24744" stroke="green" stroke-width="0.04000"/>
    <line x1="63.26625" y1="84.01654" x2="96.73375" y2="73.14229" stroke="green" stroke-width="0.04000"/>
    <line x1="63.26625" y1="83.91139" x2="96.73375" y2="73.03715" stroke="green" stroke-width="0.04000"/>
    <line x1="63.26625" y1="83.80624" x2="96.73375" y2="72.93199" stroke="green" stroke-width="0.04000"/>
    <line x1="63.26625" y1="83.70110" x2="96.73375" y2="72.82685" stroke="green" stroke-width="0.04000"/>
    <line x1="63.26625" y1="83.59595" x2="96.73375" y2="72.72170" stroke="green" stroke-width="0.04000"/>
    <line x1="63.26625" y1="83.49081" x2="96.73375" y2="72.61655" stroke="green" stroke-width="0.04000"/>
    <line x1="63.26625" y1="83.38566" x2="96.73375" y2="72.51141" stroke="green" stroke-width="0.04000"/>
    <line x1="63.26625" y1="83.28052" x2="96.73375" y2="72.40627" stroke="green" stroke-width="0.04000"/>
    <line x1="63.26625" y1="83.17537" x2="96.73375" y2="72.30112" stroke="green" stroke-width="0.04000"/>
    <line x1="63.26625" y1="83.07022" x2="96.73375" y2="72.19598" stroke="green" stroke-width="0.04000"/>
    <line x1="63.26625" y1="82.96508" x2="96.73375" y2="72.09083" stroke="green" stroke-width="0.04000"/>
    <line x1="63.26625" y1="82.85993" x2="96.73375" y2="71.98568" stroke="green" stroke-width="0.04000"/>
    <line x1="63.26625" y1="82.75478" x2="96.73375" y2="71.88053" stroke="green" stroke-width="0.04000"/>
    <line x1="63.26625" y1="82.64964" x2="96.73375" y2="71.77539" stroke="green" stroke-width="0.04000"/>
    <line x1="63.26625" y1="82.54449" x2="96.73375" y2="71.67024" stroke="green" stroke-width="0.04000"/>
    <line x1="63.26625" y1="82.43935" x2="96.73375" y2="71.56509" stroke="green" stroke-width="0.04000"/>
    <line x1="63.26625" y1="82.33421" x2="96.73375" y2="71.45995" stroke="green" stroke-width="0.04000"/>
    <line x1="63.26625" y1="82.22906" x2="96.73375" y2="71.35480" stroke="green" stroke-width="0.04000"/>
    <line x1="63.26625" y1="82.12391" x2="96.73375" y2="71.24966" stroke="green" stroke-width="0.04000"/>
    <line x1="63.26625" y1="82.01876" x2="96.73375" y2="71.14451" stroke="green" stroke-width="0.04000"/>
    <line x1="63.26625" y1="81.91361" x2="96.73375" y2="71.03937" stroke="green" stroke-width="0.04000"/>
    <line x1="63.26625" y1="81.80847" x2="96.73375" y2="70.93422" stroke="green" stroke-width="0.04000"/>
    <line x1="63.26625" y1="81.70332" x2="96.73375" y2="70.82907" stroke="green" stroke-width="0.04000"/>
    <line x1="63.26625" y1="81.59818" x2="96.73375" y2="70.72392" stroke="green" stroke-width="0.04000"/>
    <line x1="63.26625" y1="81.49303" x2="96.73375" y2="70.61878" stroke="green" stroke-width="0.04000"/>
    <line x1="63.26625" y1="81.38788" x2="96.73375" y2="70.51363" stroke="green" stroke-width="0.04000"/>
    <line x1="63.26625" y1="81.28274" x2="96.73375" y2="70.40849" stroke="green" stroke-width="0.04000"/>
    <line x1="63.26625" y1="81.17759" x2="96.73375" y2="70.30334" stroke="green" stroke-width="0.04000"/>
    <line x1="63.26625" y1="81.07244" x2="96.73375" y2="70.19820" stroke="green" stroke-width="0.04000"/>
    <line x1="63.26625" y1="80.96730" x2="96.73375" y2="70.09305" stroke="green" stroke-width="0.04000"/>
    <line x1="63.26625" y1="80.86215" x2="96.73375" y2="69.98790" stroke="green" stroke-width="0.04000"/>
    <line x1="63.26625" y1="80.75700" x2="96.73375" y2="69.88275" stroke="green" stroke-width="0.04000"/>
    <line x1="63.26625" y1="80.65186" x2="96.73375" y2="69.77761" stroke="green" stroke-width="0.04000"/>
    <line x1="63.26625" y1="80.54671" x2="96.73375" y2="69.67246" stroke="green" stroke-width="0.04000"/>
    <line x1="63.26625" y1="80.44157" x2="96.73375" y2="69.56731" stroke="green" stroke-width="0.04000"/>
    <line x1="63.26625" y1="80.33642" x2="96.73375" y2="69.46217" stroke="green" stroke-width="0.04000"/>
    <line x1="63.26625" y1="80.23128" x2="96.73375" y2="69.35703" stroke="green" stroke-width="0.04000"/>
    <line x1="63.26625" y1="80.12613" x2="96.73375" y2="69.25188" stroke="green" stroke-width="0.04000"/>
    <line x1="63.26625" y1="80.02098" x2="96.73375" y2="69.14673" stroke="green" stroke-width="0.04000"/>
    <line x1="63.26625" y1="79.91584" x2="96.73375" y2="69.04159" stroke="green" stroke-width="0.04000"/>
    <line x1="63.26625" y1="79.81069" x2="96.73375" y2="68.93644" stroke="green" stroke-width="0.04000"/>
    <line x1="63.26625" y1="79.70554" x2="96.73375" y2="68.83129" stroke="green" stroke-width="0.04000"/>
    <line x1="63.26625" y1="79.60040" x2="96.73375" y2="68.72615" stroke="green" stroke-width="0.04000"/>
    <line x1="63.26625" y1="79.49525" x2="96.73375" y2="68.62100" stroke="green" stroke-width="0.04000"/>
    <line x1="63.26625" y1="79.39011" x2="96.73375" y2="68.51585" stroke="green" stroke-width="0.04000"/>
    <line x1="63.26625" y1="79.28496" x2="96.73375" y2="68.41071" stroke="green" stroke-width="0.04000"/>
    <line x1="63.26625" y1="79.17982" x2="96.73375" y2="68.30556" stroke="green" stroke-width="0.04000"/>
    <line x1="63.26625" y1="79.07466" x2="96.73375" y2="68.20041" stroke="green" stroke-width="0.04000"/>
    <line x1="63.26625" y1="78.96952" x2="96.73375" y2="68.09528" stroke="green" stroke-width="0.04000"/>
    <line x1="63.26625" y1="78.86437" x2="96.73375" y2="67.99013" stroke="green" stroke-width="0.04000"/>
    <line x1="63.26625" y1="78.75922" x2="96.73375" y2="67.88498" stroke="green" stroke-width="0.04000"/>
    <line x1="63.26625" y1="78.65408" x2="96.73375" y2="67.77983" stroke="green" stroke-width="0.04000"/>
    <line x1="63.26625" y1="78.54893" x2="96.73375" y2="67.67468" stroke="green" stroke-width="0.04000"/>
    <line x1="63.26625" y1="78.44379" x2="96.73375" y2="67.56953" stroke="green" stroke-width="0.04000"/>
    <line x1="63.26625" y1="78.33864" x2="96.73375" y2="67.46439" stroke="green" stroke-width="0.04000"/>
    <line x1="63.26625" y1="78.23350" x2="96.73375" y2="67.35925" stroke="green" stroke-width="0.04000"/>
    <line x1="63.26625" y1="78.12835" x2="96.73375" y2="67.25410" stroke="green" stroke-width="0.04000"/>
    <line x1="63.26625" y1="78.02320" x2="96.73375" y2="67.14896" stroke="green" stroke-width="0.04000"/>
    <line x1="63.26625" y1="77.91806" x2="96.73375" y2="67.04381" stroke="green" stroke-width="0.04000"/>
    <line x1="63.26625" y1="77.81291" x2="96.73375" y2="66.93866" stroke="green" stroke-width="0.04000"/>
    <line x1="63.26625" y1="77.70776" x2="96.73375" y2="66.83351" stroke="green" stroke-width="0.04000"/>
    <line x1="63.26625" y1="77.60262" x2="96.73375" y2="66.72837" stroke="green" stroke-width="0.04000"/>
    <line x1="63.26625" y1="77.49747" x2="96.73375" y2="66.62322" stroke="green" stroke-width="0.04000"/>
    <line x1="63.26625" y1="77.39233" x2="96.73375" y2="66.51808" stroke="green" stroke-width="0.04000"/>
    <line x1="63.26625" y1="77.28719" x2="96.73375" y2="66.41293" stroke="green" stroke-width="0.04000"/>
    <line x1="63.26625" y1="77.18204" x2="96.73375" y2="66.30779" stroke="green" stroke-width="0.04000"/>
    <line x1="63.26625" y1="77.07689" x2="96.73375" y2="66.20264" stroke="green" stroke-width="0.04000"/>
    <line x1="63.26625" y1="76.97174" x2="96.73375" y2="66.09749" stroke="green" stroke-width="0.04000"/>
    <line x1="63.26625" y1="76.86660" x2="96.73375" y2="65.99234" stroke="green" stroke-width="0.04000"/>
    <line x1="63.26625" y1="76.76145" x2="96.73375" y2="65.88720" stroke="green" stroke-width="0.04000"/>
    <line x1="63.26625" y1="76.65630" x2="96.73375" y2="65.78206" stroke="green" stroke-width="0.04000"/>
    <line x1="63.26625" y1="76.55116" x2="96.73375" y2="65.67691" stroke="green" stroke-width="0.04000"/>
    <line x1="63.26625" y1="76.44601" x2="96.73375" y2="65.57176" stroke="green" stroke-width="0.04000"/>
    <line x1="63.26625" y1="76.34086" x2="96.73375" y2="65.46661" stroke="green" stroke-width="0.04000"/>
    <line x1="63.26625" y1="76.23572" x2="96.73375" y2="65.36147" stroke="green" stroke-width="0.04000"/>
    <line x1="63.26625" y1="76.13058" x2="96.73375" y2="65.25632" stroke="green" stroke-width="0.04000"/>
    <line x1="63.26625" y1="76.02543" x2="96.73375" y2="65.15117" stroke="green" stroke-width="0.04000"/>
    <line x1="63.26625" y1="75.92028" x2="96.73375" y2="65.04604" stroke="green" stroke-width="0.04000"/>
    <line x1="63.26625" y1="75.81513" x2="96.73375" y2="64.94089" stroke="green" stroke-width="0.04000"/>
    <line x1="63.26625" y1="75.70998" x2="96.73375" y2="64.83574" stroke="green" stroke-width="0.04000"/>
    <line x1="63.26625" y1="75.60484" x2="96.73375" y2="64.73059" stroke="green" stroke-width="0.04000"/>
    <line x1="63.26625" y1="75.49969" x2="96.73375" y2="64.62544" stroke="green" stroke-width="0.04000"/>
    <line x1="63.26625" y1="75.39455" x2="96.73375" y2="64.52029" stroke="green" stroke-width="0.04000"/>
    <line x1="63.26625" y1="75.28940" x2="96.73375" y2="64.41515" stroke="green" stroke-width="0.04000"/>
    <line x1="63.26625" y1="75.18426" x2="96.73375" y2="64.31001" stroke="green" stroke-width="0.04000"/>
    <line x1="63.26625" y1="75.07911" x2="96.73375" y2="64.20486" stroke="green" stroke-width="0.04000"/>
    <line x1="63.26625" y1="74.97396" x2="96.73375" y2="64.09972" stroke="green" stroke-width="0.04000"/>
    <line x1="63.26625" y1="74.86882" x2="96.73375" y2="63.99457" stroke="green" stroke-width="0.04000"/>
    <line x1="63.26625" y1="74.76367" x2="96.73375" y2="63.88942" stroke="green" stroke-width="0.04000"/>
    <line x1="63.26625" y1="74.65852" x2="96.73375" y2="63.78427" stroke="green" stroke-width="0.04000"/>
    <line x1="63.26625" y1="74.55338" x2="96.73375" y2="63.67913" stroke="green" stroke-width="0.04000"/>
    <line x1="63.26625" y1="74.44823" x2="96.73375" y2="63.57398" stroke="green" stroke-width="0.04000"/>
    <line x1="63.26625" y1="74.34309" x2="96.73375" y2="63.46884" stroke="green" stroke-width="0.04000"/>
    <line x1="63.26625" y1="74.23795" x2="96.73375" y2="63.36369" stroke="green" stroke-width="0.04000"/>
    <line x1="63.26625" y1="74.13280" x2="96.73375" y2="63.25854" stroke="green" stroke-width="0.04000"/>
    <line x1="63.26625" y1="74.02765" x2="96.73375" y2="63.15340" stroke="green" stroke-width="0.04000"/>
    <line x1="63.26625" y1="73.92250" x2="96.73375" y2="63.04825" stroke="green" stroke-width="0.04000"/>
    <line x1="63.26625" y1="73.81735" x2="96.73375" y2="62.94310" stroke="green" stroke-width="0.04000"/>
    <line x1="63.26625" y1="73.71221" x2="96.73375" y2="62.83796" stroke="green" stroke-width="0.04000"/>
    <line x1="63.26625" y1="73.60706" x2="96.73375" y2="62.73281" stroke="green" stroke-width="0.04000"/>
    <line x1="63.26625" y1="73.50191" x2="96.73375" y2="62.62767" stroke="green" stroke-width="0.04000"/>
    <line x1="63.26625" y1="73.39677" x2="96.73375" y2="62.52252" stroke="green" stroke-width="0.04000"/>
    <line x1="63.26625" y1="73.29163" x2="96.73375" y2="62.41737" stroke="green" stroke-width="0.04000"/>
    <line x1="63.26625" y1="73.18648" x2="96.73375" y2="62.31223" stroke="green" stroke-width="0.04000"/>
    <line x1="63.26625" y1="73.08133" x2="96.73375" y2="62.20708" stroke="green" stroke-width="0.04000"/>
    <line x1="63.26625" y1="72.97618" x2="96.73375" y2="62.10193" stroke="green" stroke-width="0.04000"/>
    <line x1="63.26625" y1="72.87104" x2="96.73375" y2="61.99679" stroke="green" stroke-width="0.04000"/>
    <line x1="63.26625" y1="72.76589" x2="96.73375" y2="61.89164" stroke="green" stroke-width="0.04000"/>
    <line x1="63.26625" y1="72.66074" x2="96.73375" y2="61.78650" stroke="green" stroke-width="0.04000"/>
    <line x1="63.26625" y1="72.55560" x2="96.73375" y2="61.68135" stroke="green" stroke-width="0.04000"/>
    <line x1="63.26625" y1="72.45045" x2="96.73375" y2="61.57621" stroke="green" stroke-width="0.04000"/>
    <line x1="63.26625" y1="72.34531" x2="96.64468" y2="61.50000" stroke="green" stroke-width="0.04000"/>
    <line x1="63.26625" y1="72.24016" x2="96.32107" y2="61.50000" stroke="green" stroke-width="0.04000"/>
    <line x1="63.26625" y1="72.13502" x2="95.99746" y2="61.50000" stroke="green" stroke-width="0.04000"/>
    <line x1="63.26625" y1="72.02987" x2="95.67385" y2="61.50000" stroke="green" stroke-width="0.04000"/>
    <line x1="63.26625" y1="71.92472" x2="95.35025" y2="61.50000" stroke="green" stroke-width="0.04000"/>
    <line x1="63.26625" y1="71.81958" x2="95.02664" y2="61.50000" stroke="green" stroke-width="0.04000"/>
    <line x1="63.26625" y1="71.71443" x2="94.70303" y2="61.50000" stroke="green" stroke-width="0.04000"/>
    <line x1="63.26625" y1="71.60928" x2="94.37943" y2="61.50000" stroke="green" stroke-width="0.04000"/>
    <line x1="63.26625" y1="71.50414" x2="94.05582" y2="61.50000" stroke="green" stroke-width="0.04000"/>
    <line x1="63.26625" y1="71.39899" x2="93.73222" y2="61.50000" stroke="green" stroke-width="0.04000"/>
    <line x1="63.26625" y1="71.29385" x2="93.40860" y2="61.50000" stroke="green" stroke-width="0.04000"/>
    <line x1="63.26625" y1="71.18871" x2="93.08501" y2="61.50000" stroke="green" stroke-width="0.04000"/>
    <line x1="63.26625" y1="71.08356" x2="92.76140" y2="61.50000" stroke="green" stroke-width="0.04000"/>
    <line x1="63.26625" y1="70.97841" x2="92.43778" y2="61.50000" stroke="green" stroke-width="0.04000"/>
    <line x1="63.26625" y1="70.87326" x2="92.11418" y2="61.50000" stroke="green" stroke-width="0.04000"/>
    <line x1="63.26625" y1="70.76812" x2="91.79058" y2="61.50000" stroke="green" stroke-width="0.04000"/>
    <line x1="63.26625" y1="70.66297" x2="91.46696" y2="61.50000" stroke="green" stroke-width="0.04000"/>
    <line x1="63.26625" y1="70.55782" x2="91.14336" y2="61.50000" stroke="green" stroke-width="0.04000"/>
    <line x1="63.26625" y1="70.45267" x2="90.81976" y2="61.50000" stroke="green" stroke-width="0.04000"/>
    <line x1="63.26625" y1="70.34753" x2="90.49615" y2="61.50000" stroke="green" stroke-width="0.04000"/>
    <line x1="63.26625" y1="70.24239" x2="90.17254" y2="61.50000" stroke="green" stroke-width="0.04000"/>
    <line x1="63.26625" y1="70.13724" x2="89.84893" y2="61.50000" stroke="green" stroke-width="0.04000"/>
    <line x1="63.26625" y1="70.03209" x2="89.52532" y2="61.50000" stroke="green" stroke-width="0.04000"/>
    <line x1="63.26625" y1="69.92694" x2="89.20172" y2="61.50000" stroke="green" stroke-width="0.04000"/>
    <line x1="63.26625" y1="69.82180" x2="88.87811" y2="61.50000" stroke="green" stroke-width="0.04000"/>
    <line x1="63.26625" y1="69.71665" x2="88.55450" y2="61.50000" stroke="green" stroke-width="0.04000"/>
    <line x1="63.26625" y1="69.61150" x2="88.23090" y2="61.50000" stroke="green" stroke-width="0.04000"/>
    <line x1="63.26625" y1="69.50636" x2="87.90730" y2="61.50000" stroke="green" stroke-width="0.04000"/>
    <line x1="63.26625" y1="69.40121" x2="87.58369" y2="61.50000" stroke="green" stroke-width="0.04000"/>
    <line x1="63.26625" y1="69.29607" x2="87.26007" y2="61.50000" stroke="green" stroke-width="0.04000"/>
    <line x1="63.26625" y1="69.19093" x2="86.93648" y2="61.50000" stroke="green" stroke-width="0.04000"/>
    <line x1="63.26625" y1="69.08578" x2="86.61287" y2="61.50000" stroke="green" stroke-width="0.04000"/>
    <line x1="63.26625" y1="68.98063" x2="86.28925" y2="61.50000" stroke="green" stroke-width="0.04000"/>
    <line x1="63.26625" y1="68.87548" x2="85.96565" y2="61.50000" stroke="green" stroke-width="0.04000"/>
    <line x1="63.26625" y1="68.77034" x2="85.64204" y2="61.50000" stroke="green" stroke-width="0.04000"/>
    <line x1="63.26625" y1="68.66519" x2="85.31844" y2="61.50000" stroke="green" stroke-width="0.04000"/>
    <line x1="63.26625" y1="68.56004" x2="84.99483" y2="61.50000" stroke="green" stroke-width="0.04000"/>
    <line x1="63.26625" y1="68.45490" x2="84.67123" y2="61.50000" stroke="green" stroke-width="0.04000"/>
    <line x1="63.26625" y1="68.34975" x2="84.34762" y2="61.50000" stroke="green" stroke-width="0.04000"/>
    <line x1="63.26625" y1="68.24460" x2="84.02401" y2="61.50000" stroke="green" stroke-width="0.04000"/>
    <line x1="63.26625" y1="68.13947" x2="83.70040" y2="61.50000" stroke="green" stroke-width="0.04000"/>
    <line x1="63.26625" y1="68.03432" x2="83.37680" y2="61.50000" stroke="green" stroke-width="0.04000"/>
    <line x1="63.26625" y1="67.92917" x2="83.05318" y2="61.50000" stroke="green" stroke-width="0.04000"/>
    <line x1="63.26625" y1="67.82402" x2="82.72958" y2="61.50000" stroke="green" stroke-width="0.04000"/>
    <line x1="63.26625" y1="67.71887" x2="82.40598" y2="61.50000" stroke="green" stroke-width="0.04000"/>
    <line x1="63.26625" y1="67.61372" x2="82.08237" y2="61.50000" stroke="green" stroke-width="0.04000"/>
    <line x1="63.26625" y1="67.50859" x2="81.75877" y2="61.50000" stroke="green" stroke-width="0.04000"/>
    <line x1="63.26625" y1="67.40343" x2="81.43516" y2="61.50000" stroke="green" stroke-width="0.04000"/>
    <line x1="63.26625" y1="67.29829" x2="81.11155" y2="61.50000" stroke="green" stroke-width="0.04000"/>
    <line x1="63.26625" y1="67.19315" x2="80.78794" y2="61.50000" stroke="green" stroke-width="0.04000"/>
    <line x1="63.26625" y1="67.08800" x2="80.46434" y2="61.50000" stroke="green" stroke-width="0.04000"/>
    <line x1="63.26625" y1="66.98285" x2="80.14072" y2="61.50000" stroke="green" stroke-width="0.04000"/>
    <line x1="63.26625" y1="66.87770" x2="79.81712" y2="61.50000" stroke="green" stroke-width="0.04000"/>
    <line x1="63.26625" y1="66.77256" x2="79.49352" y2="61.50000" stroke="green" stroke-width="0.04000"/>
    <line x1="63.26625" y1="66.66741" x2="79.16991" y2="61.50000" stroke="green" stroke-width="0.04000"/>
    <line x1="63.26625" y1="66.56226" x2="78.84630" y2="61.50000" stroke="green" stroke-width="0.04000"/>
    <line x1="63.26625" y1="66.45712" x2="78.52270" y2="61.50000" stroke="green" stroke-width="0.04000"/>
    <line x1="63.26625" y1="66.35197" x2="78.19909" y2="61.50000" stroke="green" stroke-width="0.04000"/>
    <line x1="63.26625" y1="66.24683" x2="77.87547" y2="61.50000" stroke="green" stroke-width="0.04000"/>
    <line x1="63.26625" y1="66.14169" x2="77.55188" y2="61.50000" stroke="green" stroke-width="0.04000"/>
    <line x1="63.26625" y1="66.03654" x2="77.22827" y2="61.50000" stroke="green" stroke-width="0.04000"/>
    <line x1="63.26625" y1="65.93139" x2="76.90466" y2="61.50000" stroke="green" stroke-width="0.04000"/>
    <line x1="63.26625" y1="65.82625" x2="76.58106" y2="61.50000" stroke="green" stroke-width="0.04000"/>
    <line x1="63.26625" y1="65.72110" x2="76.25745" y2="61.50000" stroke="green" stroke-width="0.04000"/>
    <line x1="63.26625" y1="65.61595" x2="75.93384" y2="61.50000" stroke="green" stroke-width="0.04000"/>
    <line x1="63.26625" y1="65.51080" x2="75.61023" y2="61.50000" stroke="green" stroke-width="0.04000"/>
    <line x1="63.26625" y1="65.40565" x2="75.28663" y2="61.50000" stroke="green" stroke-width="0.04000"/>
    <line x1="63.26625" y1="65.30051" x2="74.96302" y2="61.50000" stroke="green" stroke-width="0.04000"/>
    <line x1="63.26625" y1="65.19537" x2="74.63941" y2="61.50000" stroke="green" stroke-width="0.04000"/>
    <line x1="63.26625" y1="65.09023" x2="74.31581" y2="61.50000" stroke="green" stroke-width="0.04000"/>
    <line x1="63.26625" y1="64.98508" x2="73.99220" y2="61.50000" stroke="green" stroke-width="0.04000"/>
    <line x1="63.26625" y1="64.87993" x2="73.66859" y2="61.50000" stroke="green" stroke-width="0.04000"/>
    <line x1="63.26625" y1="64.77478" x2="73.34499" y2="61.50000" stroke="green" stroke-width="0.04000"/>
    <line x1="63.26625" y1="64.66963" x2="73.02139" y2="61.50000" stroke="green" stroke-width="0.04000"/>
    <line x1="63.26625" y1="64.56448" x2="72.69776" y2="61.50000" stroke="green" stroke-width="0.04000"/>
    <line x1="63.26625" y1="64.45934" x2="72.37417" y2="61.50000" stroke="green" stroke-width="0.04000"/>
    <line x1="63.26625" y1="64.35420" x2="72.05056" y2="61.50000" stroke="green" stroke-width="0.04000"/>
    <line x1="63.26625" y1="64.24905" x2="71.72694" y2="61.50000" stroke="green" stroke-width="0.04000"/>
    <line x1="63.26625" y1="64.14391" x2="71.40335" y2="61.50000" stroke="green" stroke-width="0.04000"/>
    <line x1="63.26625" y1="64.03876" x2="71.07974" y2="61.50000" stroke="green" stroke-width="0.04000"/>
    <line x1="63.26625" y1="63.93361" x2="70.75613" y2="61.50000" stroke="green" stroke-width="0.04000"/>
    <line x1="63.26625" y1="63.82846" x2="70.43253" y2="61.50000" stroke="green" stroke-width="0.04000"/>
    <line x1="63.26625" y1="63.72332" x2="70.10892" y2="61.50000" stroke="green" stroke-width="0.04000"/>
    <line x1="63.26625" y1="63.61817" x2="69.78531" y2="61.50000" stroke="green" stroke-width="0.04000"/>
    <line x1="63.26625" y1="63.51302" x2="69.46170" y2="61.50000" stroke="green" stroke-width="0.04000"/>
    <line x1="63.26625" y1="63.40788" x2="69.13810" y2="61.50000" stroke="green" stroke-width="0.04000"/>
    <line x1="63.26625" y1="63.30273" x2="68.81449" y2="61.50000" stroke="green" stroke-width="0.04000"/>
    <line x1="63.26625" y1="63.19759" x2="68.49088" y2="61.50000" stroke="green" stroke-width="0.04000"/>
    <line x1="63.26625" y1="63.09244" x2="68.16728" y2="61.50000" stroke="green" stroke-width="0.04000"/>
    <line x1="63.26625" y1="62.98729" x2="67.84367" y2="61.50000" stroke="green" stroke-width="0.04000"/>
    <line x1="63.26625" y1="62.88215" x2="67.52006" y2="61.50000" stroke="green" stroke-width="0.04000"/>
    <line x1="63.26625" y1="62.77700" x2="67.19646" y2="61.50000" stroke="green" stroke-width="0.04000"/>
    <line x1="63.26625" y1="62.67186" x2="66.87285" y2="61.50000" stroke="green" stroke-width="0.04000"/>
    <line x1="63.26625" y1="62.56671" x2="66.54924" y2="61.50000" stroke="green" stroke-width="0.04000"/>
    <line x1="63.26625" y1="62.46157" x2="66.22565" y2="61.50000" stroke="green" stroke-width="0.04000"/>
    <line x1="63.26625" y1="62.35642" x2="65.90202" y2="61.50000" stroke="green" stroke-width="0.04000"/>
    <line x1="63.26625" y1="62.25127" x2="65.57842" y2="61.50000" stroke="green" stroke-width="0.04000"/>
    <line x1="63.26625" y1="62.14612" x2="65.25481" y2="61.50000" stroke="green" stroke-width="0.04000"/>
    <line x1="63.26625" y1="62.04098" x2="64.93121" y2="61.50000" stroke="green" stroke-width="0.04000"/>
    <line x1="63.26625" y1="61.93583" x2="64.60760" y2="61.50000" stroke="green" stroke-width="0.04000"/>
    <line x1="63.26625" y1="61.83068" x2="64.28400" y2="61.50000" stroke="green" stroke-width="0.04000"/>
    <line x1="63.26625" y1="61.72554" x2="63.96039" y2="61.50000" stroke="green" stroke-width="0.04000"/>
    <line x1="63.26625" y1="61.62040" x2="63.63678" y2="61.50000" stroke="green" stroke-width="0.04000"/>
    <line x1="63.26625" y1="61.51524" x2="63.31317" y2="61.50000" stroke="green" stroke-width="0.04000"/>
    <path d="M 96.7337 96.5 L 63.2662 96.5 L 63.2662 61.5 L 96.7337 61.5 L 96.7337 96.5" fill="none" stroke="blue" stroke-width="0.04000" fill-rule="evenodd" fill-opacity="1.000"/>
  </g>
</svg>
