<?xml version="1.0" encoding="UTF-8" standalone="yes"?>
<svg xmlns="http://www.w3.org/2000/svg"
     xmlns:xlink="http://www.w3.org/1999/xlink"
     width="2020.0000mm" height="1600.0000mm"
     viewBox="0 0 202.000000 160.000000">
  <!--
    Build plate : 150.00 x 150.00 mm
    Coordinate  : 1 SVG unit = 1 mm
    Display zoom: 10x  (width/height = viewBox x 10)
    Hatch stroke: 0.04 mm = ~28 mm on screen at this zoom
    Legend panel: right margin (42 mm wide)
  -->
  <defs>
    <marker id="endArrow" markerWidth="2" markerHeight="1.4"
            refX="0" refY="0.7" orient="auto"
            markerUnits="strokeWidth">
      <polyline fill="darkblue" points="0,0 2,0.7 0,1.4 0.2,0.7"/>
    </marker>
  </defs>
  <!-- Background -->
  <rect x="0" y="0" width="202.000000" height="160.000000" fill="#f0f0f0" stroke="none"/>
  <!-- Build plate boundary (150 x 150 mm) -->
  <rect x="5.000000" y="5.000000" width="150.000000" height="150.000000"
        fill="#ffffff" stroke="#aaaaaa" stroke-width="0.2" stroke-dasharray="1,0.5"/>
  <!-- Build plate centre circle (r = 75.00 mm) -->
  <circle cx="80.000000" cy="80.000000" r="75.000000"
          fill="none" stroke="#bbbbbb" stroke-width="0.15" stroke-dasharray="0.8,0.4"/>
  <!-- Centre cross-hair -->
  <line x1="5.000000" y1="80.000000" x2="155.000000" y2="80.000000" stroke="#cccccc" stroke-width="0.1"/>
  <line x1="80.000000" y1="5.000000" x2="80.000000" y2="155.000000" stroke="#cccccc" stroke-width="0.1"/>
  <circle cx="80.000000" cy="80.000000" r="0.3" fill="#cccccc" stroke="none"/>
  <!-- Corner labels -->
  <text x="5.400000" y="4.600000" font-family="sans-serif" font-size="2" fill="#888888">0,0</text>
  <text x="154.600006" y="4.600000" font-family="sans-serif" font-size="2" fill="#888888" text-anchor="end">150,0</text>
  <text x="5.400000" y="157.199997" font-family="sans-serif" font-size="2" fill="#888888">0,150</text>
  <!-- Layer geometry -->
  <g id="geometry">
    <line x1="34.77164" y1="125.78160" x2="31.71673" y2="110.06547" stroke="green" stroke-width="0.04000"/>
    <line x1="34.66480" y1="125.75607" x2="31.64075" y2="110.19868" stroke="green" stroke-width="0.04000"/>
    <line x1="34.55797" y1="125.73053" x2="31.56478" y2="110.33189" stroke="green" stroke-width="0.04000"/>
    <line x1="34.45113" y1="125.70499" x2="31.48880" y2="110.46511" stroke="green" stroke-width="0.04000"/>
    <line x1="34.34430" y1="125.67946" x2="31.41344" y2="110.60149" stroke="green" stroke-width="0.04000"/>
    <line x1="34.85239" y1="125.67291" x2="31.79271" y2="109.93225" stroke="green" stroke-width="0.04000"/>
    <line x1="34.23746" y1="125.65392" x2="31.33817" y2="110.73837" stroke="green" stroke-width="0.04000"/>
    <line x1="34.13063" y1="125.62839" x2="31.26481" y2="110.88503" stroke="green" stroke-width="0.04000"/>
    <line x1="34.02379" y1="125.60285" x2="31.20757" y2="111.11464" stroke="green" stroke-width="0.04000"/>
    <line x1="33.91696" y1="125.57732" x2="31.15033" y2="111.34425" stroke="green" stroke-width="0.04000"/>
    <line x1="34.92262" y1="125.51012" x2="31.86713" y2="109.79104" stroke="green" stroke-width="0.04000"/>
    <line x1="34.99284" y1="125.34732" x2="31.93800" y2="109.63152" stroke="green" stroke-width="0.04000"/>
    <line x1="35.06307" y1="125.18452" x2="32.02665" y2="109.56351" stroke="green" stroke-width="0.04000"/>
    <line x1="33.72804" y1="125.12952" x2="31.09309" y2="111.57387" stroke="green" stroke-width="0.04000"/>
    <line x1="35.13329" y1="125.02173" x2="32.11703" y2="109.50440" stroke="green" stroke-width="0.04000"/>
    <line x1="35.20242" y1="124.85326" x2="32.20741" y2="109.44529" stroke="green" stroke-width="0.04000"/>
    <line x1="35.26288" y1="124.64021" x2="32.29779" y2="109.38618" stroke="green" stroke-width="0.04000"/>
    <line x1="33.50974" y1="124.53051" x2="31.03240" y2="111.78574" stroke="green" stroke-width="0.04000"/>
    <line x1="35.29765" y1="124.29498" x2="32.38818" y2="109.32707" stroke="green" stroke-width="0.04000"/>
    <line x1="35.33241" y1="123.94975" x2="32.47856" y2="109.26797" stroke="green" stroke-width="0.04000"/>
    <line x1="33.25974" y1="123.76845" x2="30.96910" y2="111.98413" stroke="green" stroke-width="0.04000"/>
    <line x1="35.36991" y1="123.61861" x2="32.56894" y2="109.20885" stroke="green" stroke-width="0.04000"/>
    <line x1="35.40689" y1="123.28474" x2="32.65695" y2="109.13756" stroke="green" stroke-width="0.04000"/>
    <line x1="35.44257" y1="122.94419" x2="32.74454" y2="109.06408" stroke="green" stroke-width="0.04000"/>
    <line x1="35.48073" y1="122.61646" x2="32.83213" y2="108.99060" stroke="green" stroke-width="0.04000"/>
    <line x1="35.51685" y1="122.27821" x2="32.94801" y2="109.06264" stroke="green" stroke-width="0.04000"/>
    <line x1="35.55275" y1="121.93881" x2="33.07649" y2="109.19955" stroke="green" stroke-width="0.04000"/>
    <line x1="32.79377" y1="121.89533" x2="30.91101" y2="112.20941" stroke="green" stroke-width="0.04000"/>
    <line x1="35.59156" y1="121.61436" x2="33.19627" y2="109.29169" stroke="green" stroke-width="0.04000"/>
    <line x1="35.64446" y1="121.36244" x2="33.31342" y2="109.37026" stroke="green" stroke-width="0.04000"/>
    <line x1="35.68181" y1="121.03053" x2="33.43056" y2="109.44883" stroke="green" stroke-width="0.04000"/>
    <line x1="35.71696" y1="120.68723" x2="33.54771" y2="109.52740" stroke="green" stroke-width="0.04000"/>
    <line x1="35.75873" y1="120.37804" x2="33.66485" y2="109.60597" stroke="green" stroke-width="0.04000"/>
    <line x1="35.80215" y1="120.07732" x2="33.78461" y2="109.69798" stroke="green" stroke-width="0.04000"/>
    <line x1="35.84557" y1="119.77662" x2="33.94095" y2="109.97821" stroke="green" stroke-width="0.04000"/>
    <line x1="35.88417" y1="119.45113" x2="34.09151" y2="110.22871" stroke="green" stroke-width="0.04000"/>
    <line x1="35.91447" y1="119.08293" x2="34.24125" y2="110.47496" stroke="green" stroke-width="0.04000"/>
    <line x1="35.94477" y1="118.71472" x2="34.39099" y2="110.72121" stroke="green" stroke-width="0.04000"/>
    <line x1="35.97346" y1="118.33825" x2="34.55393" y2="111.03541" stroke="green" stroke-width="0.04000"/>
    <line x1="36.00015" y1="117.95148" x2="34.73844" y2="111.46051" stroke="green" stroke-width="0.04000"/>
    <line x1="36.01746" y1="117.51640" x2="34.92294" y2="111.88562" stroke="green" stroke-width="0.04000"/>
    <line x1="35.99783" y1="116.89133" x2="35.12983" y2="112.42587" stroke="green" stroke-width="0.04000"/>
    <line x1="31.69532" y1="116.76840" x2="30.86427" y2="112.49303" stroke="green" stroke-width="0.04000"/>
    <line x1="31.52810" y1="116.43221" x2="30.82097" y2="112.79435" stroke="green" stroke-width="0.04000"/>
    <line x1="35.97351" y1="116.24216" x2="35.34592" y2="113.01347" stroke="green" stroke-width="0.04000"/>
    <line x1="31.36088" y1="116.09605" x2="30.77969" y2="113.10606" stroke="green" stroke-width="0.04000"/>
    <line x1="31.20452" y1="115.81570" x2="30.73602" y2="113.40548" stroke="green" stroke-width="0.04000"/>
    <line x1="35.94700" y1="115.58170" x2="35.79887" y2="114.81964" stroke="green" stroke-width="0.04000"/>
    <line x1="31.04527" y1="115.52052" x2="30.70582" y2="113.77420" stroke="green" stroke-width="0.04000"/>
    <line x1="30.85487" y1="115.06506" x2="30.68108" y2="114.17098" stroke="green" stroke-width="0.04000"/>
    <line x1="35.68590" y1="114.23843" x2="35.57498" y2="113.66782" stroke="green" stroke-width="0.04000"/>
    <line x1="46.10732" y1="111.62080" x2="45.12849" y2="106.58514" stroke="green" stroke-width="0.04000"/>
    <line x1="46.00483" y1="111.61758" x2="45.02403" y2="106.57185" stroke="green" stroke-width="0.04000"/>
    <line x1="46.20765" y1="111.61288" x2="45.23821" y2="106.62555" stroke="green" stroke-width="0.04000"/>
    <line x1="45.90148" y1="111.61000" x2="44.91958" y2="106.55856" stroke="green" stroke-width="0.04000"/>
    <line x1="46.30798" y1="111.60495" x2="45.35498" y2="106.70217" stroke="green" stroke-width="0.04000"/>
    <line x1="45.79805" y1="111.60200" x2="44.81512" y2="106.54528" stroke="green" stroke-width="0.04000"/>
    <line x1="46.40831" y1="111.59702" x2="45.47067" y2="106.77326" stroke="green" stroke-width="0.04000"/>
    <line x1="45.69463" y1="111.59399" x2="44.71067" y2="106.53200" stroke="green" stroke-width="0.04000"/>
    <line x1="46.50864" y1="111.58909" x2="45.58655" y2="106.84531" stroke="green" stroke-width="0.04000"/>
    <line x1="45.59120" y1="111.58599" x2="44.60622" y2="106.51871" stroke="green" stroke-width="0.04000"/>
    <line x1="46.60898" y1="111.58116" x2="45.70264" y2="106.91846" stroke="green" stroke-width="0.04000"/>
    <line x1="45.48777" y1="111.57799" x2="44.50177" y2="106.50543" stroke="green" stroke-width="0.04000"/>
    <line x1="46.70930" y1="111.57323" x2="45.81873" y2="106.99162" stroke="green" stroke-width="0.04000"/>
    <line x1="45.38434" y1="111.56998" x2="44.39601" y2="106.48546" stroke="green" stroke-width="0.04000"/>
    <line x1="46.80964" y1="111.56530" x2="45.93482" y2="107.06477" stroke="green" stroke-width="0.04000"/>
    <line x1="45.28091" y1="111.56198" x2="44.29020" y2="106.46521" stroke="green" stroke-width="0.04000"/>
    <line x1="46.90984" y1="111.55671" x2="46.05091" y2="107.13792" stroke="green" stroke-width="0.04000"/>
    <line x1="45.17749" y1="111.55398" x2="44.18440" y2="106.44497" stroke="green" stroke-width="0.04000"/>
    <line x1="47.01000" y1="111.54792" x2="46.16700" y2="107.21107" stroke="green" stroke-width="0.04000"/>
    <line x1="45.07335" y1="111.54229" x2="44.07859" y2="106.42473" stroke="green" stroke-width="0.04000"/>
    <line x1="47.11016" y1="111.53914" x2="46.27746" y2="107.25523" stroke="green" stroke-width="0.04000"/>
    <line x1="44.96915" y1="111.53035" x2="43.97279" y2="106.40449" stroke="green" stroke-width="0.04000"/>
    <line x1="47.21033" y1="111.53035" x2="46.38737" y2="107.29660" stroke="green" stroke-width="0.04000"/>
    <line x1="47.31049" y1="111.52156" x2="46.49728" y2="107.33797" stroke="green" stroke-width="0.04000"/>
    <line x1="44.86496" y1="111.51842" x2="43.86806" y2="106.38982" stroke="green" stroke-width="0.04000"/>
    <line x1="47.41066" y1="111.51277" x2="46.60720" y2="107.37934" stroke="green" stroke-width="0.04000"/>
    <line x1="44.76077" y1="111.50648" x2="43.76365" y2="106.37675" stroke="green" stroke-width="0.04000"/>
    <line x1="47.51108" y1="111.50534" x2="46.71711" y2="107.42071" stroke="green" stroke-width="0.04000"/>
    <line x1="47.61158" y1="111.49825" x2="46.82702" y2="107.46207" stroke="green" stroke-width="0.04000"/>
    <line x1="44.65657" y1="111.49454" x2="43.65924" y2="106.36368" stroke="green" stroke-width="0.04000"/>
    <line x1="44.55183" y1="111.47974" x2="43.55483" y2="106.35061" stroke="green" stroke-width="0.04000"/>
    <line x1="47.70925" y1="111.47664" x2="46.94837" y2="107.56225" stroke="green" stroke-width="0.04000"/>
    <line x1="44.44516" y1="111.45507" x2="43.44934" y2="106.33205" stroke="green" stroke-width="0.04000"/>
    <line x1="47.80642" y1="111.45244" x2="47.06276" y2="107.62667" stroke="green" stroke-width="0.04000"/>
    <line x1="44.33849" y1="111.43037" x2="43.34356" y2="106.31188" stroke="green" stroke-width="0.04000"/>
    <line x1="47.90358" y1="111.42823" x2="47.17057" y2="107.65723" stroke="green" stroke-width="0.04000"/>
    <line x1="48.00075" y1="111.40403" x2="47.27833" y2="107.68752" stroke="green" stroke-width="0.04000"/>
    <line x1="44.23101" y1="111.40156" x2="43.23750" y2="106.29036" stroke="green" stroke-width="0.04000"/>
    <line x1="48.09792" y1="111.37983" x2="47.38915" y2="107.73356" stroke="green" stroke-width="0.04000"/>
    <line x1="44.12355" y1="111.37276" x2="43.12456" y2="106.23340" stroke="green" stroke-width="0.04000"/>
    <line x1="48.19508" y1="111.35562" x2="47.50756" y2="107.81864" stroke="green" stroke-width="0.04000"/>
    <line x1="44.01608" y1="111.34395" x2="43.01161" y2="106.17643" stroke="green" stroke-width="0.04000"/>
    <line x1="48.29119" y1="111.32594" x2="47.62597" y2="107.90372" stroke="green" stroke-width="0.04000"/>
    <line x1="43.90886" y1="111.31647" x2="42.89867" y2="106.11947" stroke="green" stroke-width="0.04000"/>
    <line x1="48.38720" y1="111.29582" x2="47.74438" y2="107.98880" stroke="green" stroke-width="0.04000"/>
    <line x1="43.80168" y1="111.28914" x2="42.78572" y2="106.06251" stroke="green" stroke-width="0.04000"/>
    <line x1="43.69449" y1="111.26180" x2="42.67278" y2="106.00554" stroke="green" stroke-width="0.04000"/>
    <line x1="48.48199" y1="111.25939" x2="47.86279" y2="108.07388" stroke="green" stroke-width="0.04000"/>
    <line x1="43.58731" y1="111.23446" x2="42.55536" y2="105.92553" stroke="green" stroke-width="0.04000"/>
    <line x1="48.57452" y1="111.21132" x2="47.98215" y2="108.16383" stroke="green" stroke-width="0.04000"/>
    <line x1="43.48012" y1="111.20712" x2="42.43710" y2="105.84126" stroke="green" stroke-width="0.04000"/>
    <line x1="43.37160" y1="111.17294" x2="42.31885" y2="105.75698" stroke="green" stroke-width="0.04000"/>
    <line x1="48.66833" y1="111.16988" x2="48.10219" y2="108.25732" stroke="green" stroke-width="0.04000"/>
    <line x1="43.26258" y1="111.13614" x2="42.20069" y2="105.67319" stroke="green" stroke-width="0.04000"/>
    <line x1="48.76215" y1="111.12846" x2="48.22224" y2="108.35082" stroke="green" stroke-width="0.04000"/>
    <line x1="43.15355" y1="111.09934" x2="42.08703" y2="105.61256" stroke="green" stroke-width="0.04000"/>
    <line x1="48.85597" y1="111.08702" x2="48.34314" y2="108.44869" stroke="green" stroke-width="0.04000"/>
    <line x1="43.04453" y1="111.06254" x2="41.97338" y2="105.55193" stroke="green" stroke-width="0.04000"/>
    <line x1="48.94979" y1="111.04559" x2="48.46450" y2="108.54902" stroke="green" stroke-width="0.04000"/>
    <line x1="42.93550" y1="111.02573" x2="41.85969" y2="105.49117" stroke="green" stroke-width="0.04000"/>
    <line x1="49.04361" y1="111.00416" x2="48.58588" y2="108.64935" stroke="green" stroke-width="0.04000"/>
    <line x1="42.82648" y1="110.98893" x2="41.74241" y2="105.41189" stroke="green" stroke-width="0.04000"/>
    <line x1="49.13743" y1="110.96273" x2="48.70808" y2="108.75394" stroke="green" stroke-width="0.04000"/>
    <line x1="42.71489" y1="110.93896" x2="41.62513" y2="105.33261" stroke="green" stroke-width="0.04000"/>
    <line x1="49.23125" y1="110.92130" x2="48.83107" y2="108.86260" stroke="green" stroke-width="0.04000"/>
    <line x1="42.60286" y1="110.88672" x2="41.50785" y2="105.25333" stroke="green" stroke-width="0.04000"/>
    <line x1="49.31844" y1="110.84576" x2="48.95407" y2="108.97125" stroke="green" stroke-width="0.04000"/>
    <line x1="42.49079" y1="110.83421" x2="41.39056" y2="105.17405" stroke="green" stroke-width="0.04000"/>
    <line x1="42.37829" y1="110.77953" x2="41.27328" y2="105.09477" stroke="green" stroke-width="0.04000"/>
    <line x1="49.40554" y1="110.76983" x2="49.07706" y2="109.07991" stroke="green" stroke-width="0.04000"/>
    <line x1="42.26577" y1="110.72477" x2="41.15600" y2="105.01550" stroke="green" stroke-width="0.04000"/>
    <line x1="49.49266" y1="110.69389" x2="49.20360" y2="109.20683" stroke="green" stroke-width="0.04000"/>
    <line x1="42.15308" y1="110.66910" x2="41.03878" y2="104.93653" stroke="green" stroke-width="0.04000"/>
    <line x1="49.57977" y1="110.61796" x2="49.33674" y2="109.36768" stroke="green" stroke-width="0.04000"/>
    <line x1="42.04039" y1="110.61344" x2="40.92424" y2="104.87137" stroke="green" stroke-width="0.04000"/>
    <line x1="41.92770" y1="110.55777" x2="40.81535" y2="104.83522" stroke="green" stroke-width="0.04000"/>
    <line x1="49.66681" y1="110.54164" x2="49.49354" y2="109.65025" stroke="green" stroke-width="0.04000"/>
    <line x1="41.81500" y1="110.50211" x2="40.70644" y2="104.79907" stroke="green" stroke-width="0.04000"/>
    <line x1="49.75335" y1="110.46275" x2="49.65540" y2="109.95887" stroke="green" stroke-width="0.04000"/>
    <line x1="41.70231" y1="110.44644" x2="40.59755" y2="104.76292" stroke="green" stroke-width="0.04000"/>
    <line x1="49.83988" y1="110.38386" x2="49.81886" y2="110.27571" stroke="green" stroke-width="0.04000"/>
    <line x1="41.58787" y1="110.38179" x2="40.48865" y2="104.72678" stroke="green" stroke-width="0.04000"/>
    <line x1="41.47285" y1="110.31416" x2="40.37975" y2="104.69063" stroke="green" stroke-width="0.04000"/>
    <line x1="41.35784" y1="110.24654" x2="40.27085" y2="104.65448" stroke="green" stroke-width="0.04000"/>
    <line x1="41.24282" y1="110.17892" x2="40.16196" y2="104.61833" stroke="green" stroke-width="0.04000"/>
    <line x1="41.12843" y1="110.11452" x2="40.05306" y2="104.58218" stroke="green" stroke-width="0.04000"/>
    <line x1="41.01642" y1="110.06236" x2="39.94416" y2="104.54604" stroke="green" stroke-width="0.04000"/>
    <line x1="40.90441" y1="110.01019" x2="39.83503" y2="104.50870" stroke="green" stroke-width="0.04000"/>
    <line x1="40.79240" y1="109.95802" x2="39.73373" y2="104.51166" stroke="green" stroke-width="0.04000"/>
    <line x1="40.67978" y1="109.90275" x2="39.63406" y2="104.52299" stroke="green" stroke-width="0.04000"/>
    <line x1="40.55983" y1="109.80972" x2="39.53439" y2="104.53431" stroke="green" stroke-width="0.04000"/>
    <line x1="40.43988" y1="109.71670" x2="39.43472" y2="104.54563" stroke="green" stroke-width="0.04000"/>
    <line x1="40.31992" y1="109.62367" x2="39.33505" y2="104.55696" stroke="green" stroke-width="0.04000"/>
    <line x1="40.20042" y1="109.53295" x2="39.23538" y2="104.56828" stroke="green" stroke-width="0.04000"/>
    <line x1="40.08231" y1="109.44942" x2="39.13571" y2="104.57961" stroke="green" stroke-width="0.04000"/>
    <line x1="39.96420" y1="109.36589" x2="39.03604" y2="104.59093" stroke="green" stroke-width="0.04000"/>
    <line x1="39.84609" y1="109.28236" x2="38.93637" y2="104.60226" stroke="green" stroke-width="0.04000"/>
    <line x1="39.72670" y1="109.19224" x2="38.83670" y2="104.61358" stroke="green" stroke-width="0.04000"/>
    <line x1="39.60186" y1="109.07405" x2="38.73858" y2="104.63290" stroke="green" stroke-width="0.04000"/>
    <line x1="39.47701" y1="108.95587" x2="38.64125" y2="104.65622" stroke="green" stroke-width="0.04000"/>
    <line x1="39.35217" y1="108.83768" x2="38.54872" y2="104.70428" stroke="green" stroke-width="0.04000"/>
    <line x1="39.22933" y1="108.72984" x2="38.46025" y2="104.77328" stroke="green" stroke-width="0.04000"/>
    <line x1="39.10843" y1="108.63191" x2="38.37180" y2="104.84228" stroke="green" stroke-width="0.04000"/>
    <line x1="38.98752" y1="108.53399" x2="38.28334" y2="104.91128" stroke="green" stroke-width="0.04000"/>
    <line x1="38.86292" y1="108.41708" x2="38.19488" y2="104.98028" stroke="green" stroke-width="0.04000"/>
    <line x1="38.73599" y1="108.28815" x2="38.10642" y2="105.04928" stroke="green" stroke-width="0.04000"/>
    <line x1="38.60905" y1="108.15922" x2="38.01784" y2="105.11766" stroke="green" stroke-width="0.04000"/>
    <line x1="38.48212" y1="108.03029" x2="37.92846" y2="105.18192" stroke="green" stroke-width="0.04000"/>
    <line x1="38.35810" y1="107.91631" x2="37.83908" y2="105.24618" stroke="green" stroke-width="0.04000"/>
    <line x1="38.21774" y1="107.71828" x2="37.76105" y2="105.36887" stroke="green" stroke-width="0.04000"/>
    <line x1="38.07660" y1="107.51631" x2="37.69529" y2="105.55463" stroke="green" stroke-width="0.04000"/>
    <line x1="37.93547" y1="107.31435" x2="37.63004" y2="105.74304" stroke="green" stroke-width="0.04000"/>
    <line x1="37.79868" y1="107.13467" x2="37.56479" y2="105.93145" stroke="green" stroke-width="0.04000"/>
    <path d="M 33.1064 109.231 L 33.7742 109.679 L 33.9605 110.013 L 34.4813 110.87 L 34.5085 110.927 L 34.5284 110.977 L 34.9741 112.003 L 35.162 112.513 L 35.1621 112.513 L 35.3239 112.951 L 35.5588 113.622 L 35.5981 113.733 L 35.7334 114.512 L 35.9141 115.361 L 35.928 115.439 L 35.9447 115.525 L 35.9827 116.472 L 36.0172 117.431 L 36.0175 117.541 L 36.0235 117.613 L 35.9616 118.51 L 35.8742 119.572 L 35.8736 119.579 L 35.8722 119.592 L 35.724 120.619 L 35.651 121.331 L 35.5825 121.657 L 35.4823 122.605 L 35.4641 122.738 L 35.3927 123.42 L 35.3362 123.912 L 35.2548 124.72 L 35.1646 124.949 L 34.8023 125.789 L 33.9109 125.576 L 33.886 125.571 L 33.5751 124.702 L 33.4133 124.278 L 33.2521 123.743 L 33.0233 122.879 L 33.0082 122.825 L 33.0027 122.799 L 32.7653 121.772 L 32.7514 121.706 L 32.5999 120.976 L 32.552 120.757 L 32.5466 120.732 L 32.3511 119.666 L 32.316 119.478 L 32.316 119.478 L 32.1784 118.751 L 32.0627 118.185 L 31.9893 117.794 L 31.7671 116.95 L 31.7623 116.927 L 31.7442 116.867 L 31.361 116.096 L 31.1361 115.693 L 30.9326 115.306 L 30.6767 114.511 L 30.6605 114.381 L 30.6709 114.334 L 30.7236 113.49 L 30.7741 113.148 L 30.847 112.598 L 30.9258 112.12 L 31.0684 111.673 L 31.2795 110.826 L 31.3264 110.76 L 31.4785 110.483 L 31.8456 109.84 L 31.9443 109.617 L 32.5827 109.2 L 32.8591 108.968 L 33.1064 109.231" fill="none" stroke="blue" stroke-width="0.04000" fill-rule="evenodd" fill-opacity="1.000"/>
    <path d="M 39.8439 104.511 L 39.8646 104.52 L 40.9557 104.882 L 41.0546 104.947 L 41.8606 105.492 L 42.203 105.674 L 42.6552 105.997 L 43.2417 106.292 L 43.5313 106.348 L 43.9491 106.4 L 44.4977 106.505 L 45.1882 106.593 L 45.3903 106.725 L 45.4994 106.79 L 46.1772 107.217 L 46.8705 107.478 L 46.9849 107.602 L 47.0687 107.629 L 47.3551 107.709 L 47.9126 108.11 L 48.2653 108.384 L 48.645 108.698 L 49.157 109.151 L 49.3571 109.392 L 49.6039 109.859 L 49.7911 110.222 L 49.8637 110.362 L 49.6557 110.552 L 49.2323 110.921 L 48.5384 111.227 L 48.4558 111.274 L 48.2024 111.354 L 47.6268 111.497 L 47.4314 111.511 L 46.8323 111.564 L 46.0873 111.622 L 45.9896 111.617 L 45.922 111.612 L 45.1709 111.553 L 44.5758 111.485 L 44.3394 111.431 L 44.0058 111.341 L 43.4504 111.2 L 42.8104 110.983 L 42.5025 110.84 L 42.2765 110.73 L 41.6743 110.433 L 41.1519 110.125 L 40.6889 109.91 L 40.229 109.553 L 39.7505 109.215 L 39.291 108.78 L 38.9407 108.496 L 38.4716 108.02 L 38.3526 107.911 L 37.9345 107.313 L 37.7728 107.101 L 37.5719 106.404 L 37.504 106.107 L 37.7309 105.452 L 37.7938 105.279 L 38.0294 105.109 L 38.5966 104.667 L 38.8036 104.617 L 39.8101 104.503 L 39.8439 104.511" fill="none" stroke="blue" stroke-width="0.04000" fill-rule="evenodd" fill-opacity="1.000"/>
  </g>
</svg>
