<?xml version="1.0" encoding="UTF-8" standalone="yes"?>
<svg xmlns="http://www.w3.org/2000/svg"
     xmlns:xlink="http://www.w3.org/1999/xlink"
     width="2020.0000mm" height="1600.0000mm"
     viewBox="0 0 202.000000 160.000000">
  <!--
    Build plate : 150.00 x 150.00 mm
    Coordinate  : 1 SVG unit = 1 mm
    Display zoom: 10x  (width/height = viewBox x 10)
    Hatch stroke: 0.04 mm = ~28 mm on screen at this zoom
    Legend panel: right margin (42 mm wide)
  -->
  <defs>
    <marker id="endArrow" markerWidth="2" markerHeight="1.4"
            refX="0" refY="0.7" orient="auto"
            markerUnits="strokeWidth">
      <polyline fill="darkblue" points="0,0 2,0.7 0,1.4 0.2,0.7"/>
    </marker>
  </defs>
  <!-- Background -->
  <rect x="0" y="0" width="202.000000" height="160.000000" fill="#f0f0f0" stroke="none"/>
  <!-- Build plate boundary (150 x 150 mm) -->
  <rect x="5.000000" y="5.000000" width="150.000000" height="150.000000"
        fill="#ffffff" stroke="#aaaaaa" stroke-width="0.2" stroke-dasharray="1,0.5"/>
  <!-- Build plate centre circle (r = 75.00 mm) -->
  <circle cx="80.000000" cy="80.000000" r="75.000000"
          fill="none" stroke="#bbbbbb" stroke-width="0.15" stroke-dasharray="0.8,0.4"/>
  <!-- Centre cross-hair -->
  <line x1="5.000000" y1="80.000000" x2="155.000000" y2="80.000000" stroke="#cccccc" stroke-width="0.1"/>
  <line x1="80.000000" y1="5.000000" x2="80.000000" y2="155.000000" stroke="#cccccc" stroke-width="0.1"/>
  <circle cx="80.000000" cy="80.000000" r="0.3" fill="#cccccc" stroke="none"/>
  <!-- Corner labels -->
  <text x="5.400000" y="4.600000" font-family="sans-serif" font-size="2" fill="#888888">0,0</text>
  <text x="154.600006" y="4.600000" font-family="sans-serif" font-size="2" fill="#888888" text-anchor="end">150,0</text>
  <text x="5.400000" y="157.199997" font-family="sans-serif" font-size="2" fill="#888888">0,150</text>
  <!-- Layer geometry -->
  <g id="geometry">
    <line x1="58.32110" y1="98.50000" x2="58.31467" y2="98.48325" stroke="green" stroke-width="0.04000"/>
    <line x1="58.42822" y1="98.50000" x2="58.31467" y2="98.20420" stroke="green" stroke-width="0.04000"/>
    <line x1="58.53533" y1="98.50000" x2="58.31467" y2="97.92516" stroke="green" stroke-width="0.04000"/>
    <line x1="58.64244" y1="98.50000" x2="58.31467" y2="97.64612" stroke="green" stroke-width="0.04000"/>
    <line x1="58.74955" y1="98.50000" x2="58.31467" y2="97.36707" stroke="green" stroke-width="0.04000"/>
    <line x1="58.85667" y1="98.50000" x2="58.31467" y2="97.08803" stroke="green" stroke-width="0.04000"/>
    <line x1="58.96378" y1="98.50000" x2="58.31467" y2="96.80898" stroke="green" stroke-width="0.04000"/>
    <line x1="59.07090" y1="98.50000" x2="58.31467" y2="96.52995" stroke="green" stroke-width="0.04000"/>
    <line x1="59.17801" y1="98.50000" x2="52.34923" y2="80.71040" stroke="green" stroke-width="0.04000"/>
    <line x1="59.28513" y1="98.50000" x2="52.34923" y2="80.43135" stroke="green" stroke-width="0.04000"/>
    <line x1="59.39224" y1="98.50000" x2="52.34923" y2="80.15231" stroke="green" stroke-width="0.04000"/>
    <line x1="59.49936" y1="98.50000" x2="52.34923" y2="79.87328" stroke="green" stroke-width="0.04000"/>
    <line x1="59.60647" y1="98.50000" x2="52.34923" y2="79.59423" stroke="green" stroke-width="0.04000"/>
    <line x1="59.71359" y1="98.50000" x2="52.34923" y2="79.31519" stroke="green" stroke-width="0.04000"/>
    <line x1="59.82070" y1="98.50000" x2="52.34923" y2="79.03614" stroke="green" stroke-width="0.04000"/>
    <line x1="59.92781" y1="98.50000" x2="52.34923" y2="78.75710" stroke="green" stroke-width="0.04000"/>
    <line x1="60.03493" y1="98.50000" x2="52.34923" y2="78.47807" stroke="green" stroke-width="0.04000"/>
    <line x1="60.14205" y1="98.50000" x2="52.34923" y2="78.19901" stroke="green" stroke-width="0.04000"/>
    <line x1="60.24916" y1="98.50000" x2="52.34923" y2="77.91997" stroke="green" stroke-width="0.04000"/>
    <line x1="60.35627" y1="98.50000" x2="52.34923" y2="77.64093" stroke="green" stroke-width="0.04000"/>
    <line x1="60.46339" y1="98.50000" x2="52.34923" y2="77.36189" stroke="green" stroke-width="0.04000"/>
    <line x1="60.57050" y1="98.50000" x2="52.34923" y2="77.08284" stroke="green" stroke-width="0.04000"/>
    <line x1="60.67762" y1="98.50000" x2="52.34923" y2="76.80380" stroke="green" stroke-width="0.04000"/>
    <line x1="60.78473" y1="98.50000" x2="52.34923" y2="76.52476" stroke="green" stroke-width="0.04000"/>
    <line x1="60.89185" y1="98.50000" x2="52.34923" y2="76.24572" stroke="green" stroke-width="0.04000"/>
    <line x1="60.99896" y1="98.50000" x2="52.34923" y2="75.96667" stroke="green" stroke-width="0.04000"/>
    <line x1="61.10608" y1="98.50000" x2="52.34923" y2="75.68762" stroke="green" stroke-width="0.04000"/>
    <line x1="61.21319" y1="98.50000" x2="52.34923" y2="75.40858" stroke="green" stroke-width="0.04000"/>
    <line x1="61.32030" y1="98.50000" x2="52.34923" y2="75.12955" stroke="green" stroke-width="0.04000"/>
    <line x1="61.42742" y1="98.50000" x2="52.34923" y2="74.85049" stroke="green" stroke-width="0.04000"/>
    <line x1="61.53453" y1="98.50000" x2="52.34923" y2="74.57146" stroke="green" stroke-width="0.04000"/>
    <line x1="61.64165" y1="98.50000" x2="52.34923" y2="74.29241" stroke="green" stroke-width="0.04000"/>
    <line x1="61.65837" y1="98.26451" x2="52.34923" y2="74.01337" stroke="green" stroke-width="0.04000"/>
    <line x1="61.65837" y1="97.98547" x2="52.34923" y2="73.73433" stroke="green" stroke-width="0.04000"/>
    <line x1="61.65837" y1="97.70642" x2="52.34923" y2="73.45528" stroke="green" stroke-width="0.04000"/>
    <line x1="61.65837" y1="97.42738" x2="52.34923" y2="73.17624" stroke="green" stroke-width="0.04000"/>
    <line x1="61.65837" y1="97.14834" x2="52.34923" y2="72.89720" stroke="green" stroke-width="0.04000"/>
    <line x1="61.65837" y1="96.86929" x2="52.34923" y2="72.61816" stroke="green" stroke-width="0.04000"/>
    <line x1="61.65837" y1="96.59026" x2="52.34923" y2="72.33912" stroke="green" stroke-width="0.04000"/>
    <line x1="58.30317" y1="96.50000" x2="52.34923" y2="80.98944" stroke="green" stroke-width="0.04000"/>
    <line x1="58.19606" y1="96.50000" x2="52.34923" y2="81.26849" stroke="green" stroke-width="0.04000"/>
    <line x1="58.08894" y1="96.50000" x2="52.34923" y2="81.54752" stroke="green" stroke-width="0.04000"/>
    <line x1="57.98183" y1="96.50000" x2="52.34923" y2="81.82658" stroke="green" stroke-width="0.04000"/>
    <line x1="57.87471" y1="96.50000" x2="52.34923" y2="82.10561" stroke="green" stroke-width="0.04000"/>
    <line x1="57.76760" y1="96.50000" x2="52.34923" y2="82.38465" stroke="green" stroke-width="0.04000"/>
    <line x1="57.66048" y1="96.50000" x2="52.34923" y2="82.66370" stroke="green" stroke-width="0.04000"/>
    <line x1="57.55337" y1="96.50000" x2="52.34923" y2="82.94275" stroke="green" stroke-width="0.04000"/>
    <line x1="57.44625" y1="96.50000" x2="52.34923" y2="83.22179" stroke="green" stroke-width="0.04000"/>
    <line x1="57.33914" y1="96.50000" x2="52.34923" y2="83.50082" stroke="green" stroke-width="0.04000"/>
    <line x1="57.23203" y1="96.50000" x2="52.34923" y2="83.77987" stroke="green" stroke-width="0.04000"/>
    <line x1="57.12491" y1="96.50000" x2="52.34923" y2="84.05892" stroke="green" stroke-width="0.04000"/>
    <line x1="57.01780" y1="96.50000" x2="52.34923" y2="84.33796" stroke="green" stroke-width="0.04000"/>
    <line x1="56.91068" y1="96.50000" x2="52.34923" y2="84.61700" stroke="green" stroke-width="0.04000"/>
    <line x1="56.80357" y1="96.50000" x2="52.34923" y2="84.89604" stroke="green" stroke-width="0.04000"/>
    <line x1="56.69645" y1="96.50000" x2="52.34923" y2="85.17509" stroke="green" stroke-width="0.04000"/>
    <line x1="56.58934" y1="96.50000" x2="52.34923" y2="85.45413" stroke="green" stroke-width="0.04000"/>
    <line x1="56.48222" y1="96.50000" x2="52.34923" y2="85.73317" stroke="green" stroke-width="0.04000"/>
    <line x1="56.37511" y1="96.50000" x2="52.34923" y2="86.01221" stroke="green" stroke-width="0.04000"/>
    <line x1="56.26800" y1="96.50000" x2="52.34923" y2="86.29126" stroke="green" stroke-width="0.04000"/>
    <line x1="56.16088" y1="96.50000" x2="52.34923" y2="86.57030" stroke="green" stroke-width="0.04000"/>
    <line x1="56.05377" y1="96.50000" x2="52.34923" y2="86.84934" stroke="green" stroke-width="0.04000"/>
    <line x1="55.94666" y1="96.50000" x2="52.34923" y2="87.12838" stroke="green" stroke-width="0.04000"/>
    <line x1="55.83954" y1="96.50000" x2="52.34923" y2="87.40742" stroke="green" stroke-width="0.04000"/>
    <line x1="55.73243" y1="96.50000" x2="52.34923" y2="87.68647" stroke="green" stroke-width="0.04000"/>
    <line x1="55.62531" y1="96.50000" x2="52.34923" y2="87.96551" stroke="green" stroke-width="0.04000"/>
    <line x1="55.51820" y1="96.50000" x2="52.34923" y2="88.24455" stroke="green" stroke-width="0.04000"/>
    <line x1="55.41108" y1="96.50000" x2="52.34923" y2="88.52360" stroke="green" stroke-width="0.04000"/>
    <line x1="55.30397" y1="96.50000" x2="52.34923" y2="88.80264" stroke="green" stroke-width="0.04000"/>
    <line x1="55.19685" y1="96.50000" x2="52.34923" y2="89.08168" stroke="green" stroke-width="0.04000"/>
    <line x1="55.08974" y1="96.50000" x2="52.34923" y2="89.36073" stroke="green" stroke-width="0.04000"/>
    <line x1="54.98262" y1="96.50000" x2="52.34923" y2="89.63977" stroke="green" stroke-width="0.04000"/>
    <line x1="54.87551" y1="96.50000" x2="52.34923" y2="89.91882" stroke="green" stroke-width="0.04000"/>
    <line x1="54.76839" y1="96.50000" x2="52.34923" y2="90.19785" stroke="green" stroke-width="0.04000"/>
    <line x1="54.66128" y1="96.50000" x2="52.34923" y2="90.47690" stroke="green" stroke-width="0.04000"/>
    <line x1="54.55416" y1="96.50000" x2="52.34923" y2="90.75594" stroke="green" stroke-width="0.04000"/>
    <line x1="54.44705" y1="96.50000" x2="52.34923" y2="91.03499" stroke="green" stroke-width="0.04000"/>
    <line x1="54.33994" y1="96.50000" x2="52.34923" y2="91.31403" stroke="green" stroke-width="0.04000"/>
    <line x1="54.23282" y1="96.50000" x2="52.34923" y2="91.59306" stroke="green" stroke-width="0.04000"/>
    <line x1="54.12571" y1="96.50000" x2="52.34923" y2="91.87212" stroke="green" stroke-width="0.04000"/>
    <line x1="54.01859" y1="96.50000" x2="52.34923" y2="92.15115" stroke="green" stroke-width="0.04000"/>
    <line x1="53.91148" y1="96.50000" x2="52.34923" y2="92.43020" stroke="green" stroke-width="0.04000"/>
    <line x1="53.80436" y1="96.50000" x2="52.34923" y2="92.70924" stroke="green" stroke-width="0.04000"/>
    <line x1="53.69725" y1="96.50000" x2="52.34923" y2="92.98828" stroke="green" stroke-width="0.04000"/>
    <line x1="53.59013" y1="96.50000" x2="52.34923" y2="93.26733" stroke="green" stroke-width="0.04000"/>
    <line x1="53.48302" y1="96.50000" x2="52.34923" y2="93.54636" stroke="green" stroke-width="0.04000"/>
    <line x1="53.37590" y1="96.50000" x2="52.34923" y2="93.82541" stroke="green" stroke-width="0.04000"/>
    <line x1="53.26879" y1="96.50000" x2="52.34923" y2="94.10446" stroke="green" stroke-width="0.04000"/>
    <line x1="53.16167" y1="96.50000" x2="52.34923" y2="94.38350" stroke="green" stroke-width="0.04000"/>
    <line x1="53.05456" y1="96.50000" x2="52.34923" y2="94.66254" stroke="green" stroke-width="0.04000"/>
    <line x1="52.94745" y1="96.50000" x2="52.34923" y2="94.94158" stroke="green" stroke-width="0.04000"/>
    <line x1="52.84033" y1="96.50000" x2="52.34923" y2="95.22063" stroke="green" stroke-width="0.04000"/>
    <line x1="52.73322" y1="96.50000" x2="52.34923" y2="95.49967" stroke="green" stroke-width="0.04000"/>
    <line x1="52.62610" y1="96.50000" x2="52.34923" y2="95.77871" stroke="green" stroke-width="0.04000"/>
    <line x1="52.51899" y1="96.50000" x2="52.34923" y2="96.05775" stroke="green" stroke-width="0.04000"/>
    <line x1="52.41188" y1="96.50000" x2="52.34923" y2="96.33680" stroke="green" stroke-width="0.04000"/>
    <line x1="61.65837" y1="96.31121" x2="52.34923" y2="72.06007" stroke="green" stroke-width="0.04000"/>
    <line x1="61.65837" y1="96.03217" x2="52.34923" y2="71.78103" stroke="green" stroke-width="0.04000"/>
    <line x1="61.65837" y1="95.75313" x2="52.34923" y2="71.50198" stroke="green" stroke-width="0.04000"/>
    <line x1="61.65837" y1="95.47408" x2="52.34923" y2="71.22294" stroke="green" stroke-width="0.04000"/>
    <line x1="61.65837" y1="95.19504" x2="52.34923" y2="70.94390" stroke="green" stroke-width="0.04000"/>
    <line x1="61.65837" y1="94.91600" x2="52.34923" y2="70.66486" stroke="green" stroke-width="0.04000"/>
    <line x1="61.65837" y1="94.63696" x2="52.34923" y2="70.38581" stroke="green" stroke-width="0.04000"/>
    <line x1="61.65837" y1="94.35792" x2="52.34923" y2="70.10677" stroke="green" stroke-width="0.04000"/>
    <line x1="61.65837" y1="94.07887" x2="52.34923" y2="69.82773" stroke="green" stroke-width="0.04000"/>
    <line x1="61.65837" y1="93.79983" x2="52.34923" y2="69.54869" stroke="green" stroke-width="0.04000"/>
    <line x1="61.65837" y1="93.52078" x2="52.34923" y2="69.26965" stroke="green" stroke-width="0.04000"/>
    <line x1="61.65837" y1="93.24174" x2="52.34923" y2="68.99060" stroke="green" stroke-width="0.04000"/>
    <line x1="61.65837" y1="92.96269" x2="52.34923" y2="68.71156" stroke="green" stroke-width="0.04000"/>
    <line x1="61.65837" y1="92.68365" x2="52.34923" y2="68.43253" stroke="green" stroke-width="0.04000"/>
    <line x1="61.65837" y1="92.40461" x2="52.34923" y2="68.15347" stroke="green" stroke-width="0.04000"/>
    <line x1="61.65837" y1="92.12557" x2="52.34923" y2="67.87444" stroke="green" stroke-width="0.04000"/>
    <line x1="61.65837" y1="91.84653" x2="52.34923" y2="67.59539" stroke="green" stroke-width="0.04000"/>
    <line x1="61.65837" y1="91.56747" x2="52.34923" y2="67.31635" stroke="green" stroke-width="0.04000"/>
    <line x1="61.65837" y1="91.28844" x2="52.34923" y2="67.03730" stroke="green" stroke-width="0.04000"/>
    <line x1="61.65837" y1="91.00940" x2="52.34923" y2="66.75826" stroke="green" stroke-width="0.04000"/>
    <line x1="61.65837" y1="90.73035" x2="52.34923" y2="66.47922" stroke="green" stroke-width="0.04000"/>
    <line x1="61.65837" y1="90.45132" x2="52.34923" y2="66.20018" stroke="green" stroke-width="0.04000"/>
    <line x1="61.65837" y1="90.17226" x2="52.34923" y2="65.92113" stroke="green" stroke-width="0.04000"/>
    <line x1="61.65837" y1="89.89323" x2="52.34923" y2="65.64209" stroke="green" stroke-width="0.04000"/>
    <line x1="61.65837" y1="89.61418" x2="52.34923" y2="65.36305" stroke="green" stroke-width="0.04000"/>
    <line x1="61.65837" y1="89.33514" x2="52.34923" y2="65.08400" stroke="green" stroke-width="0.04000"/>
    <line x1="61.65837" y1="89.05611" x2="52.34923" y2="64.80496" stroke="green" stroke-width="0.04000"/>
    <line x1="61.65837" y1="88.77705" x2="52.34923" y2="64.52591" stroke="green" stroke-width="0.04000"/>
    <line x1="61.65837" y1="88.49801" x2="52.34923" y2="64.24687" stroke="green" stroke-width="0.04000"/>
    <line x1="61.65837" y1="88.21897" x2="52.34923" y2="63.96783" stroke="green" stroke-width="0.04000"/>
    <line x1="61.65837" y1="87.93993" x2="52.34923" y2="63.68879" stroke="green" stroke-width="0.04000"/>
    <line x1="61.65837" y1="87.66089" x2="52.34923" y2="63.40975" stroke="green" stroke-width="0.04000"/>
    <line x1="61.65837" y1="87.38184" x2="52.34923" y2="63.13070" stroke="green" stroke-width="0.04000"/>
    <line x1="61.65837" y1="87.10280" x2="52.34923" y2="62.85166" stroke="green" stroke-width="0.04000"/>
    <line x1="61.65837" y1="86.82376" x2="52.34923" y2="62.57262" stroke="green" stroke-width="0.04000"/>
    <line x1="61.65837" y1="86.54471" x2="52.34923" y2="62.29357" stroke="green" stroke-width="0.04000"/>
    <line x1="61.65837" y1="86.26567" x2="52.34923" y2="62.01453" stroke="green" stroke-width="0.04000"/>
    <line x1="61.65837" y1="85.98663" x2="52.34923" y2="61.73549" stroke="green" stroke-width="0.04000"/>
    <line x1="61.65837" y1="85.70758" x2="52.36595" y2="61.50000" stroke="green" stroke-width="0.04000"/>
    <line x1="61.65837" y1="85.42855" x2="52.47306" y2="61.50000" stroke="green" stroke-width="0.04000"/>
    <line x1="61.65837" y1="85.14950" x2="52.58017" y2="61.50000" stroke="green" stroke-width="0.04000"/>
    <line x1="61.65837" y1="84.87045" x2="52.68729" y2="61.50000" stroke="green" stroke-width="0.04000"/>
    <line x1="61.65837" y1="84.59142" x2="52.79440" y2="61.50000" stroke="green" stroke-width="0.04000"/>
    <line x1="61.65837" y1="84.31237" x2="52.90152" y2="61.50000" stroke="green" stroke-width="0.04000"/>
    <line x1="61.65837" y1="84.03333" x2="53.00863" y2="61.50000" stroke="green" stroke-width="0.04000"/>
    <line x1="61.65837" y1="83.75429" x2="53.11575" y2="61.50000" stroke="green" stroke-width="0.04000"/>
    <line x1="61.65837" y1="83.47524" x2="53.22286" y2="61.50000" stroke="green" stroke-width="0.04000"/>
    <line x1="61.65837" y1="83.19620" x2="53.32998" y2="61.50000" stroke="green" stroke-width="0.04000"/>
    <line x1="61.65837" y1="82.91716" x2="53.43709" y2="61.50000" stroke="green" stroke-width="0.04000"/>
    <line x1="61.65837" y1="82.63811" x2="53.54420" y2="61.50000" stroke="green" stroke-width="0.04000"/>
    <line x1="61.65837" y1="82.35907" x2="53.65132" y2="61.50000" stroke="green" stroke-width="0.04000"/>
    <line x1="61.65837" y1="82.08003" x2="53.75843" y2="61.50000" stroke="green" stroke-width="0.04000"/>
    <line x1="61.65837" y1="81.80098" x2="53.86555" y2="61.50000" stroke="green" stroke-width="0.04000"/>
    <line x1="61.65837" y1="81.52195" x2="53.97266" y2="61.50000" stroke="green" stroke-width="0.04000"/>
    <line x1="61.65837" y1="81.24290" x2="54.07978" y2="61.50000" stroke="green" stroke-width="0.04000"/>
    <line x1="61.65837" y1="80.96386" x2="54.18689" y2="61.50000" stroke="green" stroke-width="0.04000"/>
    <line x1="61.65837" y1="80.68481" x2="54.29401" y2="61.50000" stroke="green" stroke-width="0.04000"/>
    <line x1="61.65837" y1="80.40577" x2="54.40112" y2="61.50000" stroke="green" stroke-width="0.04000"/>
    <line x1="61.65837" y1="80.12673" x2="54.50824" y2="61.50000" stroke="green" stroke-width="0.04000"/>
    <line x1="61.65837" y1="79.84769" x2="54.61535" y2="61.50000" stroke="green" stroke-width="0.04000"/>
    <line x1="61.65837" y1="79.56864" x2="54.72247" y2="61.50000" stroke="green" stroke-width="0.04000"/>
    <line x1="61.65837" y1="79.28960" x2="54.82958" y2="61.50000" stroke="green" stroke-width="0.04000"/>
    <line x1="61.65837" y1="79.01055" x2="54.93670" y2="61.50000" stroke="green" stroke-width="0.04000"/>
    <line x1="61.65837" y1="78.73152" x2="55.04381" y2="61.50000" stroke="green" stroke-width="0.04000"/>
    <line x1="61.65837" y1="78.45248" x2="55.15092" y2="61.50000" stroke="green" stroke-width="0.04000"/>
    <line x1="61.65837" y1="78.17343" x2="55.25804" y2="61.50000" stroke="green" stroke-width="0.04000"/>
    <line x1="61.65837" y1="77.89439" x2="55.36515" y2="61.50000" stroke="green" stroke-width="0.04000"/>
    <line x1="61.65837" y1="77.61534" x2="55.47227" y2="61.50000" stroke="green" stroke-width="0.04000"/>
    <line x1="61.65837" y1="77.33630" x2="55.57938" y2="61.50000" stroke="green" stroke-width="0.04000"/>
    <line x1="61.65837" y1="77.05726" x2="55.68649" y2="61.50000" stroke="green" stroke-width="0.04000"/>
    <line x1="61.65837" y1="76.77821" x2="55.79361" y2="61.50000" stroke="green" stroke-width="0.04000"/>
    <line x1="61.65837" y1="76.49918" x2="55.90072" y2="61.50000" stroke="green" stroke-width="0.04000"/>
    <line x1="61.65837" y1="76.22013" x2="56.00784" y2="61.50000" stroke="green" stroke-width="0.04000"/>
    <line x1="61.65837" y1="75.94109" x2="56.11495" y2="61.50000" stroke="green" stroke-width="0.04000"/>
    <line x1="61.65837" y1="75.66205" x2="56.22207" y2="61.50000" stroke="green" stroke-width="0.04000"/>
    <line x1="61.65837" y1="75.38300" x2="56.32918" y2="61.50000" stroke="green" stroke-width="0.04000"/>
    <line x1="61.65837" y1="75.10396" x2="56.43630" y2="61.50000" stroke="green" stroke-width="0.04000"/>
    <line x1="61.65837" y1="74.82492" x2="56.54341" y2="61.50000" stroke="green" stroke-width="0.04000"/>
    <line x1="61.65837" y1="74.54587" x2="56.65053" y2="61.50000" stroke="green" stroke-width="0.04000"/>
    <line x1="61.65837" y1="74.26684" x2="56.75764" y2="61.50000" stroke="green" stroke-width="0.04000"/>
    <line x1="61.65837" y1="73.98779" x2="56.86475" y2="61.50000" stroke="green" stroke-width="0.04000"/>
    <line x1="61.65837" y1="73.70875" x2="56.97187" y2="61.50000" stroke="green" stroke-width="0.04000"/>
    <line x1="61.65837" y1="73.42970" x2="57.07898" y2="61.50000" stroke="green" stroke-width="0.04000"/>
    <line x1="61.65837" y1="73.15066" x2="57.18610" y2="61.50000" stroke="green" stroke-width="0.04000"/>
    <line x1="61.65837" y1="72.87161" x2="57.29321" y2="61.50000" stroke="green" stroke-width="0.04000"/>
    <line x1="61.65837" y1="72.59258" x2="57.40033" y2="61.50000" stroke="green" stroke-width="0.04000"/>
    <line x1="61.65837" y1="72.31353" x2="57.50744" y2="61.50000" stroke="green" stroke-width="0.04000"/>
    <line x1="61.65837" y1="72.03448" x2="57.61456" y2="61.50000" stroke="green" stroke-width="0.04000"/>
    <line x1="61.65837" y1="71.75545" x2="57.72167" y2="61.50000" stroke="green" stroke-width="0.04000"/>
    <line x1="61.65837" y1="71.47640" x2="57.82878" y2="61.50000" stroke="green" stroke-width="0.04000"/>
    <line x1="61.65837" y1="71.19736" x2="57.93590" y2="61.50000" stroke="green" stroke-width="0.04000"/>
    <line x1="61.65837" y1="70.91832" x2="58.04301" y2="61.50000" stroke="green" stroke-width="0.04000"/>
    <line x1="61.65837" y1="70.63927" x2="58.15013" y2="61.50000" stroke="green" stroke-width="0.04000"/>
    <line x1="61.65837" y1="70.36023" x2="58.25724" y2="61.50000" stroke="green" stroke-width="0.04000"/>
    <line x1="61.65837" y1="70.08118" x2="58.36436" y2="61.50000" stroke="green" stroke-width="0.04000"/>
    <line x1="61.65837" y1="69.80215" x2="58.47147" y2="61.50000" stroke="green" stroke-width="0.04000"/>
    <line x1="61.65837" y1="69.52310" x2="58.57859" y2="61.50000" stroke="green" stroke-width="0.04000"/>
    <line x1="61.65837" y1="69.24406" x2="58.68570" y2="61.50000" stroke="green" stroke-width="0.04000"/>
    <line x1="61.65837" y1="68.96501" x2="58.79282" y2="61.50000" stroke="green" stroke-width="0.04000"/>
    <line x1="61.65837" y1="68.68597" x2="58.89993" y2="61.50000" stroke="green" stroke-width="0.04000"/>
    <line x1="61.65837" y1="68.40693" x2="59.00705" y2="61.50000" stroke="green" stroke-width="0.04000"/>
    <line x1="61.65837" y1="68.12790" x2="59.11416" y2="61.50000" stroke="green" stroke-width="0.04000"/>
    <line x1="61.65837" y1="67.84884" x2="59.22128" y2="61.50000" stroke="green" stroke-width="0.04000"/>
    <line x1="61.65837" y1="67.56981" x2="59.32839" y2="61.50000" stroke="green" stroke-width="0.04000"/>
    <line x1="61.65837" y1="67.29076" x2="59.43550" y2="61.50000" stroke="green" stroke-width="0.04000"/>
    <line x1="61.65837" y1="67.01172" x2="59.54262" y2="61.50000" stroke="green" stroke-width="0.04000"/>
    <line x1="61.65837" y1="66.73267" x2="59.64973" y2="61.50000" stroke="green" stroke-width="0.04000"/>
    <line x1="61.65837" y1="66.45363" x2="59.75685" y2="61.50000" stroke="green" stroke-width="0.04000"/>
    <line x1="61.65837" y1="66.17459" x2="59.86396" y2="61.50000" stroke="green" stroke-width="0.04000"/>
    <line x1="61.65837" y1="65.89555" x2="59.97107" y2="61.50000" stroke="green" stroke-width="0.04000"/>
    <line x1="61.65837" y1="65.61650" x2="60.07819" y2="61.50000" stroke="green" stroke-width="0.04000"/>
    <line x1="61.65837" y1="65.33746" x2="60.18530" y2="61.50000" stroke="green" stroke-width="0.04000"/>
    <line x1="61.65837" y1="65.05842" x2="60.29242" y2="61.50000" stroke="green" stroke-width="0.04000"/>
    <line x1="61.65837" y1="64.77937" x2="60.39953" y2="61.50000" stroke="green" stroke-width="0.04000"/>
    <line x1="61.65837" y1="64.50034" x2="60.50665" y2="61.50000" stroke="green" stroke-width="0.04000"/>
    <line x1="61.65837" y1="64.22128" x2="60.61376" y2="61.50000" stroke="green" stroke-width="0.04000"/>
    <line x1="61.65837" y1="63.94225" x2="60.72087" y2="61.50000" stroke="green" stroke-width="0.04000"/>
    <line x1="61.65837" y1="63.66320" x2="60.82799" y2="61.50000" stroke="green" stroke-width="0.04000"/>
    <line x1="61.65837" y1="63.38416" x2="60.93511" y2="61.50000" stroke="green" stroke-width="0.04000"/>
    <line x1="61.65837" y1="63.10512" x2="61.04222" y2="61.50000" stroke="green" stroke-width="0.04000"/>
    <line x1="61.65837" y1="62.82608" x2="61.14933" y2="61.50000" stroke="green" stroke-width="0.04000"/>
    <line x1="61.65837" y1="62.54704" x2="61.25645" y2="61.50000" stroke="green" stroke-width="0.04000"/>
    <line x1="61.65837" y1="62.26799" x2="61.36356" y2="61.50000" stroke="green" stroke-width="0.04000"/>
    <line x1="61.65837" y1="61.98895" x2="61.47068" y2="61.50000" stroke="green" stroke-width="0.04000"/>
    <line x1="61.65837" y1="61.70990" x2="61.57779" y2="61.50000" stroke="green" stroke-width="0.04000"/>
    <line x1="98.42220" y1="98.50000" x2="98.34164" y2="98.29012" stroke="green" stroke-width="0.04000"/>
    <line x1="98.52932" y1="98.50000" x2="98.34164" y2="98.01107" stroke="green" stroke-width="0.04000"/>
    <line x1="98.63644" y1="98.50000" x2="98.34164" y2="97.73203" stroke="green" stroke-width="0.04000"/>
    <line x1="98.74355" y1="98.50000" x2="98.34164" y2="97.45299" stroke="green" stroke-width="0.04000"/>
    <line x1="98.85066" y1="98.50000" x2="98.34164" y2="97.17394" stroke="green" stroke-width="0.04000"/>
    <line x1="98.95777" y1="98.50000" x2="98.34164" y2="96.89491" stroke="green" stroke-width="0.04000"/>
    <line x1="99.06489" y1="98.50000" x2="98.34164" y2="96.61585" stroke="green" stroke-width="0.04000"/>
    <line x1="99.17200" y1="98.50000" x2="98.34164" y2="96.33681" stroke="green" stroke-width="0.04000"/>
    <line x1="99.27911" y1="98.50000" x2="98.34164" y2="96.05778" stroke="green" stroke-width="0.04000"/>
    <line x1="99.38623" y1="98.50000" x2="98.34164" y2="95.77872" stroke="green" stroke-width="0.04000"/>
    <line x1="99.49335" y1="98.50000" x2="98.34164" y2="95.49968" stroke="green" stroke-width="0.04000"/>
    <line x1="99.60046" y1="98.50000" x2="98.34164" y2="95.22064" stroke="green" stroke-width="0.04000"/>
    <line x1="99.70758" y1="98.50000" x2="98.34164" y2="94.94160" stroke="green" stroke-width="0.04000"/>
    <line x1="99.81469" y1="98.50000" x2="98.34164" y2="94.66257" stroke="green" stroke-width="0.04000"/>
    <line x1="99.92181" y1="98.50000" x2="98.34164" y2="94.38351" stroke="green" stroke-width="0.04000"/>
    <line x1="100.02892" y1="98.50000" x2="98.34164" y2="94.10446" stroke="green" stroke-width="0.04000"/>
    <line x1="100.13603" y1="98.50000" x2="98.34164" y2="93.82543" stroke="green" stroke-width="0.04000"/>
    <line x1="100.24315" y1="98.50000" x2="98.34164" y2="93.54639" stroke="green" stroke-width="0.04000"/>
    <line x1="100.35027" y1="98.50000" x2="98.34164" y2="93.26734" stroke="green" stroke-width="0.04000"/>
    <line x1="100.45737" y1="98.50000" x2="98.34164" y2="92.98830" stroke="green" stroke-width="0.04000"/>
    <line x1="100.56450" y1="98.50000" x2="98.34164" y2="92.70925" stroke="green" stroke-width="0.04000"/>
    <line x1="100.67161" y1="98.50000" x2="98.34164" y2="92.43022" stroke="green" stroke-width="0.04000"/>
    <line x1="100.77872" y1="98.50000" x2="98.34164" y2="92.15118" stroke="green" stroke-width="0.04000"/>
    <line x1="100.88584" y1="98.50000" x2="98.34164" y2="91.87212" stroke="green" stroke-width="0.04000"/>
    <line x1="100.99295" y1="98.50000" x2="98.34164" y2="91.59309" stroke="green" stroke-width="0.04000"/>
    <line x1="101.10007" y1="98.50000" x2="98.34164" y2="91.31404" stroke="green" stroke-width="0.04000"/>
    <line x1="101.20718" y1="98.50000" x2="98.34164" y2="91.03500" stroke="green" stroke-width="0.04000"/>
    <line x1="101.31429" y1="98.50000" x2="98.34164" y2="90.75596" stroke="green" stroke-width="0.04000"/>
    <line x1="101.42141" y1="98.50000" x2="98.34164" y2="90.47691" stroke="green" stroke-width="0.04000"/>
    <line x1="101.52852" y1="98.50000" x2="98.34164" y2="90.19788" stroke="green" stroke-width="0.04000"/>
    <line x1="101.63564" y1="98.50000" x2="98.34164" y2="89.91883" stroke="green" stroke-width="0.04000"/>
    <line x1="101.68533" y1="98.35040" x2="98.34164" y2="89.63978" stroke="green" stroke-width="0.04000"/>
    <line x1="101.68533" y1="98.07138" x2="98.34164" y2="89.36075" stroke="green" stroke-width="0.04000"/>
    <line x1="101.68533" y1="97.79233" x2="98.34164" y2="89.08170" stroke="green" stroke-width="0.04000"/>
    <line x1="101.68533" y1="97.51328" x2="98.34164" y2="88.80266" stroke="green" stroke-width="0.04000"/>
    <line x1="101.68533" y1="97.23425" x2="98.34164" y2="88.52362" stroke="green" stroke-width="0.04000"/>
    <line x1="101.68533" y1="96.95519" x2="98.34164" y2="88.24457" stroke="green" stroke-width="0.04000"/>
    <line x1="101.68533" y1="96.67617" x2="98.34164" y2="87.96554" stroke="green" stroke-width="0.04000"/>
    <line x1="101.72482" y1="96.50000" x2="98.34164" y2="87.68649" stroke="green" stroke-width="0.04000"/>
    <line x1="101.83194" y1="96.50000" x2="98.34164" y2="87.40744" stroke="green" stroke-width="0.04000"/>
    <line x1="101.93906" y1="96.50000" x2="98.34164" y2="87.12840" stroke="green" stroke-width="0.04000"/>
    <line x1="102.04617" y1="96.50000" x2="98.34164" y2="86.84936" stroke="green" stroke-width="0.04000"/>
    <line x1="102.15329" y1="96.50000" x2="98.34164" y2="86.57031" stroke="green" stroke-width="0.04000"/>
    <line x1="102.26040" y1="96.50000" x2="98.34164" y2="86.29128" stroke="green" stroke-width="0.04000"/>
    <line x1="102.36752" y1="96.50000" x2="98.34164" y2="86.01222" stroke="green" stroke-width="0.04000"/>
    <line x1="102.47462" y1="96.50000" x2="98.34164" y2="85.73319" stroke="green" stroke-width="0.04000"/>
    <line x1="102.58174" y1="96.50000" x2="98.34164" y2="85.45415" stroke="green" stroke-width="0.04000"/>
    <line x1="102.68886" y1="96.50000" x2="98.34164" y2="85.17509" stroke="green" stroke-width="0.04000"/>
    <line x1="102.79597" y1="96.50000" x2="98.34164" y2="84.89606" stroke="green" stroke-width="0.04000"/>
    <line x1="102.90308" y1="96.50000" x2="98.34164" y2="84.61701" stroke="green" stroke-width="0.04000"/>
    <line x1="103.01020" y1="96.50000" x2="98.34164" y2="84.33797" stroke="green" stroke-width="0.04000"/>
    <line x1="103.11732" y1="96.50000" x2="98.34164" y2="84.05893" stroke="green" stroke-width="0.04000"/>
    <line x1="103.22443" y1="96.50000" x2="98.34164" y2="83.77988" stroke="green" stroke-width="0.04000"/>
    <line x1="103.33154" y1="96.50000" x2="98.34164" y2="83.50084" stroke="green" stroke-width="0.04000"/>
    <line x1="103.43866" y1="96.50000" x2="98.34164" y2="83.22180" stroke="green" stroke-width="0.04000"/>
    <line x1="103.54578" y1="96.50000" x2="98.34164" y2="82.94275" stroke="green" stroke-width="0.04000"/>
    <line x1="103.65289" y1="96.50000" x2="98.34164" y2="82.66372" stroke="green" stroke-width="0.04000"/>
    <line x1="103.76000" y1="96.50000" x2="98.34164" y2="82.38467" stroke="green" stroke-width="0.04000"/>
    <line x1="103.86712" y1="96.50000" x2="98.34164" y2="82.10563" stroke="green" stroke-width="0.04000"/>
    <line x1="103.97423" y1="96.50000" x2="98.34164" y2="81.82659" stroke="green" stroke-width="0.04000"/>
    <line x1="104.08134" y1="96.50000" x2="98.34164" y2="81.54754" stroke="green" stroke-width="0.04000"/>
    <line x1="104.18846" y1="96.50000" x2="98.34164" y2="81.26850" stroke="green" stroke-width="0.04000"/>
    <line x1="104.29557" y1="96.50000" x2="98.34164" y2="80.98946" stroke="green" stroke-width="0.04000"/>
    <line x1="104.40269" y1="96.50000" x2="98.34164" y2="80.71041" stroke="green" stroke-width="0.04000"/>
    <line x1="104.50980" y1="96.50000" x2="98.34164" y2="80.43138" stroke="green" stroke-width="0.04000"/>
    <line x1="104.61692" y1="96.50000" x2="98.34164" y2="80.15233" stroke="green" stroke-width="0.04000"/>
    <line x1="104.72404" y1="96.50000" x2="98.34164" y2="79.87328" stroke="green" stroke-width="0.04000"/>
    <line x1="104.83115" y1="96.50000" x2="98.34164" y2="79.59425" stroke="green" stroke-width="0.04000"/>
    <line x1="104.93826" y1="96.50000" x2="98.34164" y2="79.31520" stroke="green" stroke-width="0.04000"/>
    <line x1="105.04538" y1="96.50000" x2="98.34164" y2="79.03616" stroke="green" stroke-width="0.04000"/>
    <line x1="105.15249" y1="96.50000" x2="98.34164" y2="78.75712" stroke="green" stroke-width="0.04000"/>
    <line x1="105.25961" y1="96.50000" x2="98.34164" y2="78.47807" stroke="green" stroke-width="0.04000"/>
    <line x1="105.36671" y1="96.50000" x2="98.34164" y2="78.19904" stroke="green" stroke-width="0.04000"/>
    <line x1="105.47383" y1="96.50000" x2="98.34164" y2="77.91998" stroke="green" stroke-width="0.04000"/>
    <line x1="105.58095" y1="96.50000" x2="98.34164" y2="77.64095" stroke="green" stroke-width="0.04000"/>
    <line x1="105.68806" y1="96.50000" x2="98.34164" y2="77.36190" stroke="green" stroke-width="0.04000"/>
    <line x1="105.79518" y1="96.50000" x2="98.34164" y2="77.08286" stroke="green" stroke-width="0.04000"/>
    <line x1="105.90229" y1="96.50000" x2="98.34164" y2="76.80382" stroke="green" stroke-width="0.04000"/>
    <line x1="106.00941" y1="96.50000" x2="98.34164" y2="76.52477" stroke="green" stroke-width="0.04000"/>
    <line x1="106.11652" y1="96.50000" x2="98.34164" y2="76.24573" stroke="green" stroke-width="0.04000"/>
    <line x1="106.22363" y1="96.50000" x2="98.34164" y2="75.96669" stroke="green" stroke-width="0.04000"/>
    <line x1="106.33075" y1="96.50000" x2="98.34164" y2="75.68764" stroke="green" stroke-width="0.04000"/>
    <line x1="106.43787" y1="96.50000" x2="98.34164" y2="75.40861" stroke="green" stroke-width="0.04000"/>
    <line x1="106.54498" y1="96.50000" x2="98.34164" y2="75.12956" stroke="green" stroke-width="0.04000"/>
    <line x1="106.65209" y1="96.50000" x2="98.34164" y2="74.85052" stroke="green" stroke-width="0.04000"/>
    <line x1="106.75921" y1="96.50000" x2="98.34164" y2="74.57147" stroke="green" stroke-width="0.04000"/>
    <line x1="106.86633" y1="96.50000" x2="98.34164" y2="74.29243" stroke="green" stroke-width="0.04000"/>
    <line x1="106.97344" y1="96.50000" x2="98.34164" y2="74.01338" stroke="green" stroke-width="0.04000"/>
    <line x1="107.08055" y1="96.50000" x2="98.34164" y2="73.73435" stroke="green" stroke-width="0.04000"/>
    <line x1="107.18767" y1="96.50000" x2="98.34164" y2="73.45530" stroke="green" stroke-width="0.04000"/>
    <line x1="107.29478" y1="96.50000" x2="98.34164" y2="73.17626" stroke="green" stroke-width="0.04000"/>
    <line x1="107.40189" y1="96.50000" x2="98.34164" y2="72.89722" stroke="green" stroke-width="0.04000"/>
    <line x1="107.50901" y1="96.50000" x2="98.34164" y2="72.61817" stroke="green" stroke-width="0.04000"/>
    <line x1="107.61613" y1="96.50000" x2="98.34164" y2="72.33913" stroke="green" stroke-width="0.04000"/>
    <line x1="107.65076" y1="96.31120" x2="98.34164" y2="72.06009" stroke="green" stroke-width="0.04000"/>
    <line x1="107.65076" y1="96.03215" x2="98.34164" y2="71.78104" stroke="green" stroke-width="0.04000"/>
    <line x1="107.65076" y1="95.75311" x2="98.34164" y2="71.50201" stroke="green" stroke-width="0.04000"/>
    <line x1="107.65076" y1="95.47407" x2="98.34164" y2="71.22296" stroke="green" stroke-width="0.04000"/>
    <line x1="107.65076" y1="95.19502" x2="98.34164" y2="70.94392" stroke="green" stroke-width="0.04000"/>
    <line x1="107.65076" y1="94.91599" x2="98.34164" y2="70.66488" stroke="green" stroke-width="0.04000"/>
    <line x1="107.65076" y1="94.63693" x2="98.34164" y2="70.38583" stroke="green" stroke-width="0.04000"/>
    <line x1="107.65076" y1="94.35789" x2="98.34164" y2="70.10679" stroke="green" stroke-width="0.04000"/>
    <line x1="107.65076" y1="94.07886" x2="98.34164" y2="69.82774" stroke="green" stroke-width="0.04000"/>
    <line x1="107.65076" y1="93.79980" x2="98.34164" y2="69.54870" stroke="green" stroke-width="0.04000"/>
    <line x1="107.65076" y1="93.52077" x2="98.34164" y2="69.26967" stroke="green" stroke-width="0.04000"/>
    <line x1="107.65076" y1="93.24172" x2="98.34164" y2="68.99062" stroke="green" stroke-width="0.04000"/>
    <line x1="107.65076" y1="92.96268" x2="98.34164" y2="68.71158" stroke="green" stroke-width="0.04000"/>
    <line x1="107.65076" y1="92.68365" x2="98.34164" y2="68.43254" stroke="green" stroke-width="0.04000"/>
    <line x1="107.65076" y1="92.40459" x2="98.34164" y2="68.15349" stroke="green" stroke-width="0.04000"/>
    <line x1="107.65076" y1="92.12555" x2="98.34164" y2="67.87445" stroke="green" stroke-width="0.04000"/>
    <line x1="107.65076" y1="91.84651" x2="98.34164" y2="67.59541" stroke="green" stroke-width="0.04000"/>
    <line x1="107.65076" y1="91.56746" x2="98.34164" y2="67.31635" stroke="green" stroke-width="0.04000"/>
    <line x1="107.65076" y1="91.28843" x2="98.34164" y2="67.03732" stroke="green" stroke-width="0.04000"/>
    <line x1="107.65076" y1="91.00938" x2="98.34164" y2="66.75827" stroke="green" stroke-width="0.04000"/>
    <line x1="107.65076" y1="90.73034" x2="98.34164" y2="66.47923" stroke="green" stroke-width="0.04000"/>
    <line x1="107.65076" y1="90.45130" x2="98.34164" y2="66.20020" stroke="green" stroke-width="0.04000"/>
    <line x1="107.65076" y1="90.17225" x2="98.34164" y2="65.92114" stroke="green" stroke-width="0.04000"/>
    <line x1="107.65076" y1="89.89321" x2="98.34164" y2="65.64211" stroke="green" stroke-width="0.04000"/>
    <line x1="107.65076" y1="89.61417" x2="98.34164" y2="65.36306" stroke="green" stroke-width="0.04000"/>
    <line x1="107.65076" y1="89.33512" x2="98.34164" y2="65.08401" stroke="green" stroke-width="0.04000"/>
    <line x1="107.65076" y1="89.05609" x2="98.34164" y2="64.80498" stroke="green" stroke-width="0.04000"/>
    <line x1="107.65076" y1="88.77704" x2="98.34164" y2="64.52592" stroke="green" stroke-width="0.04000"/>
    <line x1="107.65076" y1="88.49799" x2="98.34164" y2="64.24689" stroke="green" stroke-width="0.04000"/>
    <line x1="107.65076" y1="88.21896" x2="98.34164" y2="63.96785" stroke="green" stroke-width="0.04000"/>
    <line x1="107.65076" y1="87.93991" x2="98.34164" y2="63.68880" stroke="green" stroke-width="0.04000"/>
    <line x1="107.65076" y1="87.66087" x2="98.34164" y2="63.40976" stroke="green" stroke-width="0.04000"/>
    <line x1="107.65076" y1="87.38183" x2="98.34164" y2="63.13072" stroke="green" stroke-width="0.04000"/>
    <line x1="107.65076" y1="87.10278" x2="98.34164" y2="62.85167" stroke="green" stroke-width="0.04000"/>
    <line x1="107.65076" y1="86.82375" x2="98.34164" y2="62.57264" stroke="green" stroke-width="0.04000"/>
    <line x1="107.65076" y1="86.54470" x2="98.34164" y2="62.29359" stroke="green" stroke-width="0.04000"/>
    <line x1="107.65076" y1="86.26566" x2="98.34164" y2="62.01455" stroke="green" stroke-width="0.04000"/>
    <line x1="107.65076" y1="85.98662" x2="98.34164" y2="61.73551" stroke="green" stroke-width="0.04000"/>
    <line x1="107.65076" y1="85.70757" x2="98.35835" y2="61.50000" stroke="green" stroke-width="0.04000"/>
    <line x1="107.65076" y1="85.42852" x2="98.46546" y2="61.50000" stroke="green" stroke-width="0.04000"/>
    <line x1="107.65076" y1="85.14949" x2="98.57258" y2="61.50000" stroke="green" stroke-width="0.04000"/>
    <line x1="107.65076" y1="84.87044" x2="98.67970" y2="61.50000" stroke="green" stroke-width="0.04000"/>
    <line x1="107.65076" y1="84.59141" x2="98.78680" y2="61.50000" stroke="green" stroke-width="0.04000"/>
    <line x1="107.65076" y1="84.31236" x2="98.89392" y2="61.50000" stroke="green" stroke-width="0.04000"/>
    <line x1="107.65076" y1="84.03331" x2="99.00104" y2="61.50000" stroke="green" stroke-width="0.04000"/>
    <line x1="107.65076" y1="83.75427" x2="99.10815" y2="61.50000" stroke="green" stroke-width="0.04000"/>
    <line x1="107.65076" y1="83.47522" x2="99.21526" y2="61.50000" stroke="green" stroke-width="0.04000"/>
    <line x1="107.65076" y1="83.19618" x2="99.32238" y2="61.50000" stroke="green" stroke-width="0.04000"/>
    <line x1="107.65076" y1="82.91714" x2="99.42950" y2="61.50000" stroke="green" stroke-width="0.04000"/>
    <line x1="107.65076" y1="82.63809" x2="99.53661" y2="61.50000" stroke="green" stroke-width="0.04000"/>
    <line x1="107.65076" y1="82.35906" x2="99.64372" y2="61.50000" stroke="green" stroke-width="0.04000"/>
    <line x1="107.65076" y1="82.08001" x2="99.75084" y2="61.50000" stroke="green" stroke-width="0.04000"/>
    <line x1="107.65076" y1="81.80097" x2="99.85795" y2="61.50000" stroke="green" stroke-width="0.04000"/>
    <line x1="107.65076" y1="81.52193" x2="99.96507" y2="61.50000" stroke="green" stroke-width="0.04000"/>
    <line x1="107.65076" y1="81.24288" x2="100.07218" y2="61.50000" stroke="green" stroke-width="0.04000"/>
    <line x1="107.65076" y1="80.96384" x2="100.17929" y2="61.50000" stroke="green" stroke-width="0.04000"/>
    <line x1="107.65076" y1="80.68480" x2="100.28641" y2="61.50000" stroke="green" stroke-width="0.04000"/>
    <line x1="107.65076" y1="80.40575" x2="100.39352" y2="61.50000" stroke="green" stroke-width="0.04000"/>
    <line x1="107.65076" y1="80.12672" x2="100.50063" y2="61.50000" stroke="green" stroke-width="0.04000"/>
    <line x1="107.65076" y1="79.84767" x2="100.60776" y2="61.50000" stroke="green" stroke-width="0.04000"/>
    <line x1="107.65076" y1="79.56863" x2="100.71487" y2="61.50000" stroke="green" stroke-width="0.04000"/>
    <line x1="107.65076" y1="79.28959" x2="100.82198" y2="61.50000" stroke="green" stroke-width="0.04000"/>
    <line x1="107.65076" y1="79.01054" x2="100.92910" y2="61.50000" stroke="green" stroke-width="0.04000"/>
    <line x1="107.65076" y1="78.73150" x2="101.03621" y2="61.50000" stroke="green" stroke-width="0.04000"/>
    <line x1="107.65076" y1="78.45246" x2="101.14333" y2="61.50000" stroke="green" stroke-width="0.04000"/>
    <line x1="107.65076" y1="78.17341" x2="101.25044" y2="61.50000" stroke="green" stroke-width="0.04000"/>
    <line x1="107.65076" y1="77.89438" x2="101.35755" y2="61.50000" stroke="green" stroke-width="0.04000"/>
    <line x1="107.65076" y1="77.61533" x2="101.46467" y2="61.50000" stroke="green" stroke-width="0.04000"/>
    <line x1="107.65076" y1="77.33629" x2="101.57178" y2="61.50000" stroke="green" stroke-width="0.04000"/>
    <line x1="107.65076" y1="77.05725" x2="101.67889" y2="61.50000" stroke="green" stroke-width="0.04000"/>
    <line x1="107.65076" y1="76.77820" x2="101.78601" y2="61.50000" stroke="green" stroke-width="0.04000"/>
    <line x1="107.65076" y1="76.49915" x2="101.89313" y2="61.50000" stroke="green" stroke-width="0.04000"/>
    <line x1="107.65076" y1="76.22012" x2="102.00024" y2="61.50000" stroke="green" stroke-width="0.04000"/>
    <line x1="107.65076" y1="75.94107" x2="102.10736" y2="61.50000" stroke="green" stroke-width="0.04000"/>
    <line x1="107.65076" y1="75.66203" x2="102.21447" y2="61.50000" stroke="green" stroke-width="0.04000"/>
    <line x1="107.65076" y1="75.38298" x2="102.32159" y2="61.50000" stroke="green" stroke-width="0.04000"/>
    <line x1="107.65076" y1="75.10394" x2="102.42870" y2="61.50000" stroke="green" stroke-width="0.04000"/>
    <line x1="107.65076" y1="74.82491" x2="102.53581" y2="61.50000" stroke="green" stroke-width="0.04000"/>
    <line x1="107.65076" y1="74.54585" x2="102.64293" y2="61.50000" stroke="green" stroke-width="0.04000"/>
    <line x1="107.65076" y1="74.26682" x2="102.75005" y2="61.50000" stroke="green" stroke-width="0.04000"/>
    <line x1="107.65076" y1="73.98777" x2="102.85715" y2="61.50000" stroke="green" stroke-width="0.04000"/>
    <line x1="107.65076" y1="73.70872" x2="102.96427" y2="61.50000" stroke="green" stroke-width="0.04000"/>
    <line x1="107.65076" y1="73.42969" x2="103.07139" y2="61.50000" stroke="green" stroke-width="0.04000"/>
    <line x1="107.65076" y1="73.15064" x2="103.17850" y2="61.50000" stroke="green" stroke-width="0.04000"/>
    <line x1="107.65076" y1="72.87160" x2="103.28561" y2="61.50000" stroke="green" stroke-width="0.04000"/>
    <line x1="107.65076" y1="72.59256" x2="103.39273" y2="61.50000" stroke="green" stroke-width="0.04000"/>
    <line x1="107.65076" y1="72.31351" x2="103.49985" y2="61.50000" stroke="green" stroke-width="0.04000"/>
    <line x1="107.65076" y1="72.03447" x2="103.60696" y2="61.50000" stroke="green" stroke-width="0.04000"/>
    <line x1="107.65076" y1="71.75543" x2="103.71407" y2="61.50000" stroke="green" stroke-width="0.04000"/>
    <line x1="107.65076" y1="71.47638" x2="103.82119" y2="61.50000" stroke="green" stroke-width="0.04000"/>
    <line x1="107.65076" y1="71.19735" x2="103.92830" y2="61.50000" stroke="green" stroke-width="0.04000"/>
    <line x1="107.65076" y1="70.91830" x2="104.03542" y2="61.50000" stroke="green" stroke-width="0.04000"/>
    <line x1="107.65076" y1="70.63926" x2="104.14253" y2="61.50000" stroke="green" stroke-width="0.04000"/>
    <line x1="107.65076" y1="70.36022" x2="104.24964" y2="61.50000" stroke="green" stroke-width="0.04000"/>
    <line x1="107.65076" y1="70.08117" x2="104.35677" y2="61.50000" stroke="green" stroke-width="0.04000"/>
    <line x1="107.65076" y1="69.80213" x2="104.46387" y2="61.50000" stroke="green" stroke-width="0.04000"/>
    <line x1="107.65076" y1="69.52309" x2="104.57099" y2="61.50000" stroke="green" stroke-width="0.04000"/>
    <line x1="107.65076" y1="69.24403" x2="104.67811" y2="61.50000" stroke="green" stroke-width="0.04000"/>
    <line x1="107.65076" y1="68.96501" x2="104.78522" y2="61.50000" stroke="green" stroke-width="0.04000"/>
    <line x1="107.65076" y1="68.68596" x2="104.89233" y2="61.50000" stroke="green" stroke-width="0.04000"/>
    <line x1="107.65076" y1="68.40692" x2="104.99944" y2="61.50000" stroke="green" stroke-width="0.04000"/>
    <line x1="107.65076" y1="68.12787" x2="105.10656" y2="61.50000" stroke="green" stroke-width="0.04000"/>
    <line x1="107.65076" y1="67.84882" x2="105.21368" y2="61.50000" stroke="green" stroke-width="0.04000"/>
    <line x1="107.65076" y1="67.56979" x2="105.32079" y2="61.50000" stroke="green" stroke-width="0.04000"/>
    <line x1="107.65076" y1="67.29074" x2="105.42790" y2="61.50000" stroke="green" stroke-width="0.04000"/>
    <line x1="107.65076" y1="67.01170" x2="105.53503" y2="61.50000" stroke="green" stroke-width="0.04000"/>
    <line x1="107.65076" y1="66.73267" x2="105.64214" y2="61.50000" stroke="green" stroke-width="0.04000"/>
    <line x1="107.65076" y1="66.45361" x2="105.74925" y2="61.50000" stroke="green" stroke-width="0.04000"/>
    <line x1="107.65076" y1="66.17458" x2="105.85636" y2="61.50000" stroke="green" stroke-width="0.04000"/>
    <line x1="107.65076" y1="65.89554" x2="105.96348" y2="61.50000" stroke="green" stroke-width="0.04000"/>
    <line x1="107.65076" y1="65.61649" x2="106.07059" y2="61.50000" stroke="green" stroke-width="0.04000"/>
    <line x1="107.65076" y1="65.33745" x2="106.17770" y2="61.50000" stroke="green" stroke-width="0.04000"/>
    <line x1="107.65076" y1="65.05840" x2="106.28482" y2="61.50000" stroke="green" stroke-width="0.04000"/>
    <line x1="107.65076" y1="64.77936" x2="106.39194" y2="61.50000" stroke="green" stroke-width="0.04000"/>
    <line x1="107.65076" y1="64.50032" x2="106.49905" y2="61.50000" stroke="green" stroke-width="0.04000"/>
    <line x1="107.65076" y1="64.22127" x2="106.60616" y2="61.50000" stroke="green" stroke-width="0.04000"/>
    <line x1="107.65076" y1="63.94223" x2="106.71328" y2="61.50000" stroke="green" stroke-width="0.04000"/>
    <line x1="107.65076" y1="63.66319" x2="106.82040" y2="61.50000" stroke="green" stroke-width="0.04000"/>
    <line x1="107.65076" y1="63.38414" x2="106.92751" y2="61.50000" stroke="green" stroke-width="0.04000"/>
    <line x1="107.65076" y1="63.10510" x2="107.03462" y2="61.50000" stroke="green" stroke-width="0.04000"/>
    <line x1="107.65076" y1="62.82606" x2="107.14174" y2="61.50000" stroke="green" stroke-width="0.04000"/>
    <line x1="107.65076" y1="62.54701" x2="107.24886" y2="61.50000" stroke="green" stroke-width="0.04000"/>
    <line x1="107.65076" y1="62.26798" x2="107.35596" y2="61.50000" stroke="green" stroke-width="0.04000"/>
    <line x1="107.65076" y1="61.98893" x2="107.46308" y2="61.50000" stroke="green" stroke-width="0.04000"/>
    <line x1="107.65076" y1="61.70989" x2="107.57019" y2="61.50000" stroke="green" stroke-width="0.04000"/>
    <path d="M 61.6584 98.5 L 58.3147 98.5 L 58.3147 96.5 L 52.3492 96.5 L 52.3492 61.5 L 61.6584 61.5 L 61.6584 98.5" fill="none" stroke="blue" stroke-width="0.04000" fill-rule="evenodd" fill-opacity="1.000"/>
    <path d="M 107.651 96.5 L 101.685 96.5 L 101.685 98.5 L 98.3416 98.5 L 98.3416 61.5 L 107.651 61.5 L 107.651 96.5" fill="none" stroke="blue" stroke-width="0.04000" fill-rule="evenodd" fill-opacity="1.000"/>
  </g>
</svg>
