<?xml version="1.0" encoding="UTF-8" standalone="yes"?>
<svg xmlns="http://www.w3.org/2000/svg"
     xmlns:xlink="http://www.w3.org/1999/xlink"
     width="2020.0000mm" height="1600.0000mm"
     viewBox="0 0 202.000000 160.000000">
  <!--
    Build plate : 150.00 x 150.00 mm
    Coordinate  : 1 SVG unit = 1 mm
    Display zoom: 10x  (width/height = viewBox x 10)
    Hatch stroke: 0.04 mm = ~28 mm on screen at this zoom
    Legend panel: right margin (42 mm wide)
  -->
  <defs>
    <marker id="endArrow" markerWidth="2" markerHeight="1.4"
            refX="0" refY="0.7" orient="auto"
            markerUnits="strokeWidth">
      <polyline fill="darkblue" points="0,0 2,0.7 0,1.4 0.2,0.7"/>
    </marker>
  </defs>
  <!-- Background -->
  <rect x="0" y="0" width="202.000000" height="160.000000" fill="#f0f0f0" stroke="none"/>
  <!-- Build plate boundary (150 x 150 mm) -->
  <rect x="5.000000" y="5.000000" width="150.000000" height="150.000000"
        fill="#ffffff" stroke="#aaaaaa" stroke-width="0.2" stroke-dasharray="1,0.5"/>
  <!-- Build plate centre circle (r = 75.00 mm) -->
  <circle cx="80.000000" cy="80.000000" r="75.000000"
          fill="none" stroke="#bbbbbb" stroke-width="0.15" stroke-dasharray="0.8,0.4"/>
  <!-- Centre cross-hair -->
  <line x1="5.000000" y1="80.000000" x2="155.000000" y2="80.000000" stroke="#cccccc" stroke-width="0.1"/>
  <line x1="80.000000" y1="5.000000" x2="80.000000" y2="155.000000" stroke="#cccccc" stroke-width="0.1"/>
  <circle cx="80.000000" cy="80.000000" r="0.3" fill="#cccccc" stroke="none"/>
  <!-- Corner labels -->
  <text x="5.400000" y="4.600000" font-family="sans-serif" font-size="2" fill="#888888">0,0</text>
  <text x="154.600006" y="4.600000" font-family="sans-serif" font-size="2" fill="#888888" text-anchor="end">150,0</text>
  <text x="5.400000" y="157.199997" font-family="sans-serif" font-size="2" fill="#888888">0,150</text>
  <!-- Layer geometry -->
  <g id="geometry">
    <line x1="36.11308" y1="127.44712" x2="36.10418" y2="127.70196" stroke="green" stroke-width="0.04000"/>
    <line x1="36.05570" y1="126.22460" x2="36.00422" y2="127.69894" stroke="green" stroke-width="0.04000"/>
    <line x1="35.98107" y1="125.49639" x2="35.90426" y2="127.69592" stroke="green" stroke-width="0.04000"/>
    <line x1="35.89300" y1="125.15321" x2="35.80431" y2="127.69289" stroke="green" stroke-width="0.04000"/>
    <line x1="35.80471" y1="124.81608" x2="35.70435" y2="127.68987" stroke="green" stroke-width="0.04000"/>
    <line x1="35.71642" y1="124.47894" x2="35.60440" y2="127.68685" stroke="green" stroke-width="0.04000"/>
    <line x1="35.63517" y1="123.94017" x2="35.50444" y2="127.68384" stroke="green" stroke-width="0.04000"/>
    <line x1="35.54592" y1="123.63056" x2="35.40449" y2="127.68082" stroke="green" stroke-width="0.04000"/>
    <line x1="35.45673" y1="123.31944" x2="35.30453" y2="127.67780" stroke="green" stroke-width="0.04000"/>
    <line x1="35.36932" y1="122.95712" x2="35.20457" y2="127.67477" stroke="green" stroke-width="0.04000"/>
    <line x1="35.28191" y1="122.59480" x2="35.10462" y2="127.67175" stroke="green" stroke-width="0.04000"/>
    <line x1="35.19199" y1="122.30462" x2="35.00577" y2="127.63706" stroke="green" stroke-width="0.04000"/>
    <line x1="35.10049" y1="122.05919" x2="34.90909" y2="127.54038" stroke="green" stroke-width="0.04000"/>
    <line x1="35.00900" y1="121.81377" x2="34.81240" y2="127.44370" stroke="green" stroke-width="0.04000"/>
    <line x1="34.91751" y1="121.56834" x2="34.71571" y2="127.34703" stroke="green" stroke-width="0.04000"/>
    <line x1="34.82861" y1="121.24895" x2="34.61903" y2="127.25035" stroke="green" stroke-width="0.04000"/>
    <line x1="34.73871" y1="120.95773" x2="34.52235" y2="127.15355" stroke="green" stroke-width="0.04000"/>
    <line x1="34.64730" y1="120.71004" x2="34.42588" y2="127.05060" stroke="green" stroke-width="0.04000"/>
    <line x1="34.55589" y1="120.46234" x2="34.33027" y2="126.92321" stroke="green" stroke-width="0.04000"/>
    <line x1="34.46738" y1="120.13168" x2="34.23697" y2="126.72965" stroke="green" stroke-width="0.04000"/>
    <line x1="34.37826" y1="119.81840" x2="34.14367" y2="126.53609" stroke="green" stroke-width="0.04000"/>
    <line x1="34.28881" y1="119.51429" x2="34.04989" y2="126.35622" stroke="green" stroke-width="0.04000"/>
    <line x1="34.19937" y1="119.21018" x2="33.95602" y2="126.17895" stroke="green" stroke-width="0.04000"/>
    <line x1="34.10731" y1="118.98125" x2="33.86203" y2="126.00498" stroke="green" stroke-width="0.04000"/>
    <line x1="34.01477" y1="118.76573" x2="33.76767" y2="125.84190" stroke="green" stroke-width="0.04000"/>
    <line x1="33.92203" y1="118.55611" x2="33.67357" y2="125.67125" stroke="green" stroke-width="0.04000"/>
    <line x1="33.82929" y1="118.34648" x2="33.57980" y2="125.49116" stroke="green" stroke-width="0.04000"/>
    <line x1="33.73665" y1="118.13406" x2="33.48602" y2="125.31107" stroke="green" stroke-width="0.04000"/>
    <line x1="33.64481" y1="117.89868" x2="33.39222" y2="125.13182" stroke="green" stroke-width="0.04000"/>
    <line x1="33.54827" y1="117.79768" x2="33.29805" y2="124.96316" stroke="green" stroke-width="0.04000"/>
    <line x1="33.45174" y1="117.69669" x2="33.20388" y2="124.79449" stroke="green" stroke-width="0.04000"/>
    <line x1="33.35520" y1="117.59570" x2="33.10970" y2="124.62583" stroke="green" stroke-width="0.04000"/>
    <line x1="33.25867" y1="117.49471" x2="33.01553" y2="124.45717" stroke="green" stroke-width="0.04000"/>
    <line x1="33.16214" y1="117.39371" x2="32.92020" y2="124.32191" stroke="green" stroke-width="0.04000"/>
    <line x1="33.06560" y1="117.29272" x2="32.82487" y2="124.18642" stroke="green" stroke-width="0.04000"/>
    <line x1="32.96909" y1="117.19105" x2="32.72964" y2="124.04789" stroke="green" stroke-width="0.04000"/>
    <line x1="32.87119" y1="117.12907" x2="32.63442" y2="123.90936" stroke="green" stroke-width="0.04000"/>
    <line x1="32.77001" y1="117.16121" x2="32.53957" y2="123.76028" stroke="green" stroke-width="0.04000"/>
    <line x1="32.66917" y1="117.18353" x2="32.44476" y2="123.60976" stroke="green" stroke-width="0.04000"/>
    <line x1="32.56850" y1="117.20116" x2="32.34996" y2="123.45924" stroke="green" stroke-width="0.04000"/>
    <line x1="32.46782" y1="117.21880" x2="32.25491" y2="123.31558" stroke="green" stroke-width="0.04000"/>
    <line x1="32.36714" y1="117.23643" x2="32.15953" y2="123.18151" stroke="green" stroke-width="0.04000"/>
    <line x1="32.26646" y1="117.25407" x2="32.06416" y2="123.04744" stroke="green" stroke-width="0.04000"/>
    <line x1="32.16579" y1="117.27170" x2="31.96877" y2="122.91338" stroke="green" stroke-width="0.04000"/>
    <line x1="32.06511" y1="117.28933" x2="31.87310" y2="122.78770" stroke="green" stroke-width="0.04000"/>
    <line x1="31.96441" y1="117.30776" x2="31.77681" y2="122.67966" stroke="green" stroke-width="0.04000"/>
    <line x1="31.85944" y1="117.44813" x2="31.68050" y2="122.57236" stroke="green" stroke-width="0.04000"/>
    <line x1="31.75448" y1="117.58849" x2="31.58372" y2="122.47856" stroke="green" stroke-width="0.04000"/>
    <line x1="31.64952" y1="117.72886" x2="31.48693" y2="122.38477" stroke="green" stroke-width="0.04000"/>
    <line x1="31.54455" y1="117.86922" x2="31.39037" y2="122.28459" stroke="green" stroke-width="0.04000"/>
    <line x1="31.44009" y1="117.99538" x2="31.29382" y2="122.18391" stroke="green" stroke-width="0.04000"/>
    <line x1="31.33574" y1="118.11828" x2="31.19728" y2="122.08321" stroke="green" stroke-width="0.04000"/>
    <line x1="31.23124" y1="118.24513" x2="31.10073" y2="121.98253" stroke="green" stroke-width="0.04000"/>
    <line x1="31.12296" y1="118.48072" x2="31.00421" y2="121.88126" stroke="green" stroke-width="0.04000"/>
    <line x1="31.01467" y1="118.71631" x2="30.90800" y2="121.77081" stroke="green" stroke-width="0.04000"/>
    <line x1="30.90663" y1="118.94482" x2="30.81180" y2="121.66035" stroke="green" stroke-width="0.04000"/>
    <line x1="30.80056" y1="119.11680" x2="30.71560" y2="121.54990" stroke="green" stroke-width="0.04000"/>
    <line x1="30.69449" y1="119.28878" x2="30.61939" y2="121.43944" stroke="green" stroke-width="0.04000"/>
    <line x1="30.58192" y1="119.64722" x2="30.52480" y2="121.28297" stroke="green" stroke-width="0.04000"/>
    <line x1="52.50536" y1="113.66985" x2="52.43938" y2="115.55949" stroke="green" stroke-width="0.04000"/>
    <line x1="52.60194" y1="113.76952" x2="52.53998" y2="115.54393" stroke="green" stroke-width="0.04000"/>
    <line x1="52.40878" y1="113.57017" x2="52.34042" y2="115.52791" stroke="green" stroke-width="0.04000"/>
    <line x1="52.31140" y1="113.49348" x2="52.24146" y2="115.49633" stroke="green" stroke-width="0.04000"/>
    <line x1="52.69852" y1="113.86921" x2="52.64181" y2="115.49316" stroke="green" stroke-width="0.04000"/>
    <line x1="52.21361" y1="113.42836" x2="52.14250" y2="115.46475" stroke="green" stroke-width="0.04000"/>
    <line x1="52.79535" y1="113.96175" x2="52.74364" y2="115.44238" stroke="green" stroke-width="0.04000"/>
    <line x1="52.11580" y1="113.36393" x2="52.04354" y2="115.43318" stroke="green" stroke-width="0.04000"/>
    <line x1="52.89229" y1="114.05116" x2="52.84548" y2="115.39160" stroke="green" stroke-width="0.04000"/>
    <line x1="52.01798" y1="113.29971" x2="51.94514" y2="115.38579" stroke="green" stroke-width="0.04000"/>
    <line x1="52.98923" y1="114.14056" x2="52.94732" y2="115.34083" stroke="green" stroke-width="0.04000"/>
    <line x1="51.92016" y1="113.23549" x2="51.84687" y2="115.33432" stroke="green" stroke-width="0.04000"/>
    <line x1="53.08617" y1="114.22998" x2="53.04915" y2="115.29005" stroke="green" stroke-width="0.04000"/>
    <line x1="51.82235" y1="113.17127" x2="51.74861" y2="115.28285" stroke="green" stroke-width="0.04000"/>
    <line x1="53.18079" y1="114.38580" x2="53.15098" y2="115.23928" stroke="green" stroke-width="0.04000"/>
    <line x1="51.72453" y1="113.10705" x2="51.65034" y2="115.23138" stroke="green" stroke-width="0.04000"/>
    <line x1="51.62671" y1="113.04282" x2="51.55208" y2="115.17992" stroke="green" stroke-width="0.04000"/>
    <line x1="51.52883" y1="112.98042" x2="51.45369" y2="115.13223" stroke="green" stroke-width="0.04000"/>
    <line x1="51.43043" y1="112.93276" x2="51.35516" y2="115.08816" stroke="green" stroke-width="0.04000"/>
    <line x1="51.33204" y1="112.88510" x2="51.25664" y2="115.04409" stroke="green" stroke-width="0.04000"/>
    <line x1="51.23363" y1="112.83745" x2="51.15812" y2="115.00002" stroke="green" stroke-width="0.04000"/>
    <line x1="51.13524" y1="112.78979" x2="51.05960" y2="114.95595" stroke="green" stroke-width="0.04000"/>
    <line x1="51.03696" y1="112.73890" x2="50.96114" y2="114.91015" stroke="green" stroke-width="0.04000"/>
    <line x1="50.93896" y1="112.67977" x2="50.86270" y2="114.86352" stroke="green" stroke-width="0.04000"/>
    <line x1="50.84097" y1="112.62064" x2="50.76427" y2="114.81689" stroke="green" stroke-width="0.04000"/>
    <line x1="50.74286" y1="112.56471" x2="50.66584" y2="114.77026" stroke="green" stroke-width="0.04000"/>
    <line x1="50.64443" y1="112.51804" x2="50.56741" y2="114.72362" stroke="green" stroke-width="0.04000"/>
    <line x1="50.54599" y1="112.47136" x2="50.46897" y2="114.67699" stroke="green" stroke-width="0.04000"/>
    <line x1="50.44756" y1="112.42468" x2="50.37054" y2="114.63036" stroke="green" stroke-width="0.04000"/>
    <line x1="50.34913" y1="112.37801" x2="50.27203" y2="114.58599" stroke="green" stroke-width="0.04000"/>
    <line x1="50.25070" y1="112.33134" x2="50.17332" y2="114.54729" stroke="green" stroke-width="0.04000"/>
    <line x1="50.15227" y1="112.28466" x2="50.07461" y2="114.50861" stroke="green" stroke-width="0.04000"/>
    <line x1="50.05384" y1="112.23798" x2="49.97578" y2="114.47334" stroke="green" stroke-width="0.04000"/>
    <line x1="49.95556" y1="112.18710" x2="49.87687" y2="114.44046" stroke="green" stroke-width="0.04000"/>
    <line x1="49.85717" y1="112.13895" x2="49.77795" y2="114.40758" stroke="green" stroke-width="0.04000"/>
    <line x1="49.75925" y1="112.07771" x2="49.67904" y2="114.37470" stroke="green" stroke-width="0.04000"/>
    <line x1="49.66138" y1="112.01505" x2="49.58013" y2="114.34183" stroke="green" stroke-width="0.04000"/>
    <line x1="49.56351" y1="111.95238" x2="49.48122" y2="114.30894" stroke="green" stroke-width="0.04000"/>
    <line x1="49.46564" y1="111.88972" x2="49.38231" y2="114.27607" stroke="green" stroke-width="0.04000"/>
    <line x1="49.36776" y1="111.82705" x2="49.28339" y2="114.24319" stroke="green" stroke-width="0.04000"/>
    <line x1="49.26989" y1="111.76439" x2="49.18446" y2="114.21070" stroke="green" stroke-width="0.04000"/>
    <line x1="49.17202" y1="111.70172" x2="49.08531" y2="114.18461" stroke="green" stroke-width="0.04000"/>
    <line x1="49.07366" y1="111.65298" x2="48.98642" y2="114.15125" stroke="green" stroke-width="0.04000"/>
    <line x1="48.97524" y1="111.60597" x2="48.88765" y2="114.11434" stroke="green" stroke-width="0.04000"/>
    <line x1="48.87682" y1="111.55897" x2="48.78887" y2="114.07744" stroke="green" stroke-width="0.04000"/>
    <line x1="48.77840" y1="111.51196" x2="48.69010" y2="114.04053" stroke="green" stroke-width="0.04000"/>
    <line x1="48.67998" y1="111.46494" x2="48.59133" y2="114.00362" stroke="green" stroke-width="0.04000"/>
    <line x1="48.58157" y1="111.41794" x2="48.49256" y2="113.96672" stroke="green" stroke-width="0.04000"/>
    <line x1="48.48370" y1="111.35503" x2="48.39378" y2="113.92982" stroke="green" stroke-width="0.04000"/>
    <line x1="48.38605" y1="111.28606" x2="48.29499" y2="113.89358" stroke="green" stroke-width="0.04000"/>
    <line x1="48.28825" y1="111.22122" x2="48.19596" y2="113.86388" stroke="green" stroke-width="0.04000"/>
    <line x1="48.19039" y1="111.15829" x2="48.09694" y2="113.83419" stroke="green" stroke-width="0.04000"/>
    <line x1="48.09252" y1="111.09534" x2="47.99792" y2="113.80450" stroke="green" stroke-width="0.04000"/>
    <line x1="47.99485" y1="111.02700" x2="47.89889" y2="113.77481" stroke="green" stroke-width="0.04000"/>
    <line x1="47.89729" y1="110.95545" x2="47.79987" y2="113.74512" stroke="green" stroke-width="0.04000"/>
    <line x1="47.79972" y1="110.88390" x2="47.70084" y2="113.71542" stroke="green" stroke-width="0.04000"/>
    <line x1="47.70216" y1="110.81236" x2="47.60229" y2="113.67238" stroke="green" stroke-width="0.04000"/>
    <line x1="47.60430" y1="110.74943" x2="47.50392" y2="113.62383" stroke="green" stroke-width="0.04000"/>
    <line x1="47.50611" y1="110.69570" x2="47.40556" y2="113.57529" stroke="green" stroke-width="0.04000"/>
    <line x1="47.40793" y1="110.64197" x2="47.30702" y2="113.53158" stroke="green" stroke-width="0.04000"/>
    <line x1="47.31088" y1="110.55565" x2="47.20839" y2="113.49056" stroke="green" stroke-width="0.04000"/>
    <line x1="47.21396" y1="110.46567" x2="47.10976" y2="113.44955" stroke="green" stroke-width="0.04000"/>
    <line x1="47.11704" y1="110.37569" x2="47.01114" y2="113.40853" stroke="green" stroke-width="0.04000"/>
    <line x1="47.02013" y1="110.28571" x2="46.91251" y2="113.36752" stroke="green" stroke-width="0.04000"/>
    <line x1="46.92308" y1="110.19944" x2="46.81388" y2="113.32649" stroke="green" stroke-width="0.04000"/>
    <line x1="46.82600" y1="110.11415" x2="46.71525" y2="113.28548" stroke="green" stroke-width="0.04000"/>
    <line x1="46.72891" y1="110.02885" x2="46.61662" y2="113.24446" stroke="green" stroke-width="0.04000"/>
    <line x1="46.63183" y1="109.94357" x2="46.51799" y2="113.20345" stroke="green" stroke-width="0.04000"/>
    <line x1="46.53475" y1="109.85827" x2="46.41961" y2="113.15555" stroke="green" stroke-width="0.04000"/>
    <line x1="46.43766" y1="109.77298" x2="46.32140" y2="113.10244" stroke="green" stroke-width="0.04000"/>
    <line x1="46.34084" y1="109.68027" x2="46.22319" y2="113.04934" stroke="green" stroke-width="0.04000"/>
    <line x1="46.24498" y1="109.56001" x2="46.12498" y2="112.99624" stroke="green" stroke-width="0.04000"/>
    <line x1="46.14912" y1="109.43976" x2="46.02678" y2="112.94313" stroke="green" stroke-width="0.04000"/>
    <line x1="46.05326" y1="109.31950" x2="45.92857" y2="112.89003" stroke="green" stroke-width="0.04000"/>
    <line x1="45.95739" y1="109.19925" x2="45.83036" y2="112.83692" stroke="green" stroke-width="0.04000"/>
    <line x1="45.86153" y1="109.07900" x2="45.73216" y2="112.78382" stroke="green" stroke-width="0.04000"/>
    <line x1="45.76567" y1="108.95874" x2="45.63395" y2="112.73071" stroke="green" stroke-width="0.04000"/>
    <line x1="45.66967" y1="108.84258" x2="45.53587" y2="112.67400" stroke="green" stroke-width="0.04000"/>
    <line x1="45.57380" y1="108.72260" x2="45.43800" y2="112.61121" stroke="green" stroke-width="0.04000"/>
    <line x1="45.47792" y1="108.60263" x2="45.34013" y2="112.54843" stroke="green" stroke-width="0.04000"/>
    <line x1="45.38205" y1="108.48265" x2="45.24218" y2="112.48811" stroke="green" stroke-width="0.04000"/>
    <line x1="45.28618" y1="108.36267" x2="45.14420" y2="112.42860" stroke="green" stroke-width="0.04000"/>
    <line x1="45.19031" y1="108.24270" x2="45.04622" y2="112.36908" stroke="green" stroke-width="0.04000"/>
    <line x1="45.09427" y1="108.12763" x2="44.94823" y2="112.30956" stroke="green" stroke-width="0.04000"/>
    <line x1="44.99756" y1="108.03156" x2="44.85025" y2="112.25005" stroke="green" stroke-width="0.04000"/>
    <line x1="44.90086" y1="107.93549" x2="44.75242" y2="112.18620" stroke="green" stroke-width="0.04000"/>
    <line x1="44.80415" y1="107.83942" x2="44.65474" y2="112.11783" stroke="green" stroke-width="0.04000"/>
    <line x1="44.70744" y1="107.74334" x2="44.55707" y2="112.04945" stroke="green" stroke-width="0.04000"/>
    <line x1="44.61008" y1="107.66615" x2="44.45940" y2="111.98109" stroke="green" stroke-width="0.04000"/>
    <line x1="44.51140" y1="107.62662" x2="44.36172" y2="111.91272" stroke="green" stroke-width="0.04000"/>
    <line x1="44.41265" y1="107.58895" x2="44.26445" y2="111.83282" stroke="green" stroke-width="0.04000"/>
    <line x1="44.31375" y1="107.55592" x2="44.16721" y2="111.75205" stroke="green" stroke-width="0.04000"/>
    <line x1="44.21484" y1="107.52288" x2="44.06997" y2="111.67129" stroke="green" stroke-width="0.04000"/>
    <line x1="44.11593" y1="107.48985" x2="43.97267" y2="111.59229" stroke="green" stroke-width="0.04000"/>
    <line x1="44.01702" y1="107.45681" x2="43.87537" y2="111.51331" stroke="green" stroke-width="0.04000"/>
    <line x1="43.91812" y1="107.42377" x2="43.77806" y2="111.43436" stroke="green" stroke-width="0.04000"/>
    <line x1="43.81921" y1="107.39074" x2="43.68076" y2="111.35539" stroke="green" stroke-width="0.04000"/>
    <line x1="43.72030" y1="107.35770" x2="43.58351" y2="111.27488" stroke="green" stroke-width="0.04000"/>
    <line x1="43.62140" y1="107.32467" x2="43.48629" y2="111.19357" stroke="green" stroke-width="0.04000"/>
    <line x1="43.52249" y1="107.29163" x2="43.38907" y2="111.11224" stroke="green" stroke-width="0.04000"/>
    <line x1="43.42300" y1="107.27521" x2="43.29193" y2="111.02850" stroke="green" stroke-width="0.04000"/>
    <line x1="43.32218" y1="107.29697" x2="43.19487" y2="110.94262" stroke="green" stroke-width="0.04000"/>
    <line x1="43.22140" y1="107.31757" x2="43.09802" y2="110.85055" stroke="green" stroke-width="0.04000"/>
    <line x1="43.12062" y1="107.33816" x2="43.00164" y2="110.74522" stroke="green" stroke-width="0.04000"/>
    <line x1="43.01984" y1="107.35876" x2="42.90526" y2="110.63991" stroke="green" stroke-width="0.04000"/>
    <line x1="42.91906" y1="107.37936" x2="42.80888" y2="110.53460" stroke="green" stroke-width="0.04000"/>
    <line x1="42.81828" y1="107.39995" x2="42.71249" y2="110.42928" stroke="green" stroke-width="0.04000"/>
    <line x1="42.71750" y1="107.42055" x2="42.61608" y2="110.32485" stroke="green" stroke-width="0.04000"/>
    <line x1="42.61671" y1="107.44114" x2="42.51962" y2="110.22155" stroke="green" stroke-width="0.04000"/>
    <line x1="42.51594" y1="107.46174" x2="42.42317" y2="110.11825" stroke="green" stroke-width="0.04000"/>
    <line x1="42.41245" y1="107.55980" x2="42.32672" y2="110.01495" stroke="green" stroke-width="0.04000"/>
    <line x1="42.30880" y1="107.66268" x2="42.23026" y2="109.91164" stroke="green" stroke-width="0.04000"/>
    <line x1="42.20521" y1="107.76379" x2="42.13464" y2="109.78464" stroke="green" stroke-width="0.04000"/>
    <line x1="42.10161" y1="107.86491" x2="42.04160" y2="109.58363" stroke="green" stroke-width="0.04000"/>
    <line x1="41.99802" y1="107.96603" x2="41.94856" y2="109.38252" stroke="green" stroke-width="0.04000"/>
    <line x1="41.89443" y1="108.06714" x2="41.85552" y2="109.18140" stroke="green" stroke-width="0.04000"/>
    <line x1="41.76885" y1="108.79783" x2="41.76248" y2="108.98029" stroke="green" stroke-width="0.04000"/>
    <path d="M 32.9395 117.159 L 32.9929 117.217 L 33.6491 117.903 L 33.7446 118.155 L 34.0646 118.878 L 34.143 119.067 L 34.183 119.155 L 34.4371 120.018 L 34.5556 120.462 L 34.7813 121.073 L 34.9068 121.54 L 35.2521 122.466 L 35.2614 122.51 L 35.2773 122.576 L 35.477 123.403 L 35.6306 123.91 L 35.7142 124.471 L 35.9514 125.376 L 35.9762 125.475 L 35.9916 125.542 L 36.0847 126.534 L 36.1209 127.7 L 36.121 127.702 L 36.1193 127.702 L 35.0385 127.67 L 34.5243 127.156 L 34.3554 126.975 L 34.1288 126.505 L 33.884 126.043 L 33.7153 125.751 L 33.3991 125.144 L 33.0153 124.457 L 32.8337 124.199 L 32.623 123.893 L 32.2948 123.372 L 31.9041 122.823 L 31.6854 122.577 L 31.4798 122.378 L 31.01 121.888 L 30.5514 121.361 L 30.453 121.071 L 30.5098 120.78 L 30.512 119.946 L 30.6482 119.364 L 30.9184 118.926 L 31.2351 118.237 L 31.525 117.895 L 31.9651 117.307 L 32.7373 117.172 L 32.8783 117.127 L 32.9395 117.159" fill="none" stroke="blue" stroke-width="0.04000" fill-rule="evenodd" fill-opacity="1.000"/>
    <path d="M 44.4411 107.598 L 44.643 107.679 L 45.1142 108.147 L 45.706 108.888 L 45.7239 108.91 L 45.7369 108.923 L 46.3625 109.707 L 46.3955 109.736 L 46.9999 110.267 L 47.398 110.637 L 47.6518 110.775 L 48.0561 111.072 L 48.3553 111.264 L 48.5544 111.405 L 49.1612 111.695 L 49.8497 112.136 L 49.9092 112.162 L 50.0229 112.223 L 50.7682 112.577 L 51.0646 112.756 L 51.5396 112.986 L 52.1917 113.414 L 52.3765 113.537 L 52.7279 113.9 L 53.0905 114.234 L 53.2143 114.442 L 53.2017 115.214 L 52.4817 115.573 L 52.0233 115.427 L 51.504 115.155 L 51.0274 114.942 L 50.3002 114.597 L 50.034 114.493 L 49.1945 114.214 L 49.1383 114.197 L 49.059 114.178 L 48.3041 113.896 L 47.672 113.707 L 47.3703 113.558 L 46.4665 113.182 L 46.4387 113.166 L 45.5724 112.697 L 45.3162 112.533 L 44.8002 112.22 L 44.3549 111.908 L 44.0677 111.669 L 43.6474 111.328 L 43.3434 111.074 L 43.1287 110.884 L 42.6587 110.371 L 42.161 109.837 L 42.1582 109.834 L 42.1321 109.779 L 41.7473 108.947 L 41.7564 108.886 L 41.8685 108.092 L 42.3582 107.614 L 42.5082 107.463 L 43.4045 107.28 L 43.451 107.268 L 44.4411 107.598" fill="none" stroke="blue" stroke-width="0.04000" fill-rule="evenodd" fill-opacity="1.000"/>
  </g>
</svg>
