<?xml version="1.0" encoding="UTF-8" standalone="yes"?>
<svg xmlns="http://www.w3.org/2000/svg"
     xmlns:xlink="http://www.w3.org/1999/xlink"
     width="2020.0000mm" height="1600.0000mm"
     viewBox="0 0 202.000000 160.000000">
  <!--
    Build plate : 150.00 x 150.00 mm
    Coordinate  : 1 SVG unit = 1 mm
    Display zoom: 10x  (width/height = viewBox x 10)
    Hatch stroke: 0.04 mm = ~28 mm on screen at this zoom
    Legend panel: right margin (42 mm wide)
  -->
  <defs>
    <marker id="endArrow" markerWidth="2" markerHeight="1.4"
            refX="0" refY="0.7" orient="auto"
            markerUnits="strokeWidth">
      <polyline fill="darkblue" points="0,0 2,0.7 0,1.4 0.2,0.7"/>
    </marker>
  </defs>
  <!-- Background -->
  <rect x="0" y="0" width="202.000000" height="160.000000" fill="#f0f0f0" stroke="none"/>
  <!-- Build plate boundary (150 x 150 mm) -->
  <rect x="5.000000" y="5.000000" width="150.000000" height="150.000000"
        fill="#ffffff" stroke="#aaaaaa" stroke-width="0.2" stroke-dasharray="1,0.5"/>
  <!-- Build plate centre circle (r = 75.00 mm) -->
  <circle cx="80.000000" cy="80.000000" r="75.000000"
          fill="none" stroke="#bbbbbb" stroke-width="0.15" stroke-dasharray="0.8,0.4"/>
  <!-- Centre cross-hair -->
  <line x1="5.000000" y1="80.000000" x2="155.000000" y2="80.000000" stroke="#cccccc" stroke-width="0.1"/>
  <line x1="80.000000" y1="5.000000" x2="80.000000" y2="155.000000" stroke="#cccccc" stroke-width="0.1"/>
  <circle cx="80.000000" cy="80.000000" r="0.3" fill="#cccccc" stroke="none"/>
  <!-- Corner labels -->
  <text x="5.400000" y="4.600000" font-family="sans-serif" font-size="2" fill="#888888">0,0</text>
  <text x="154.600006" y="4.600000" font-family="sans-serif" font-size="2" fill="#888888" text-anchor="end">150,0</text>
  <text x="5.400000" y="157.199997" font-family="sans-serif" font-size="2" fill="#888888">0,150</text>
  <!-- Layer geometry -->
  <g id="geometry">
    <line x1="36.84918" y1="88.25705" x2="36.92810" y2="88.30261" stroke="green" stroke-width="0.04000"/>
    <line x1="36.58273" y1="87.98774" x2="37.10915" y2="88.29167" stroke="green" stroke-width="0.04000"/>
    <line x1="36.65593" y1="87.91453" x2="37.21634" y2="88.23808" stroke="green" stroke-width="0.04000"/>
    <line x1="36.72914" y1="87.84132" x2="37.30285" y2="88.17255" stroke="green" stroke-width="0.04000"/>
    <line x1="36.80234" y1="87.76812" x2="37.37667" y2="88.09972" stroke="green" stroke-width="0.04000"/>
    <line x1="36.87554" y1="87.69492" x2="37.44717" y2="88.02494" stroke="green" stroke-width="0.04000"/>
    <line x1="36.94875" y1="87.62171" x2="37.51767" y2="87.95018" stroke="green" stroke-width="0.04000"/>
    <line x1="37.02195" y1="87.54851" x2="37.59059" y2="87.87682" stroke="green" stroke-width="0.04000"/>
    <line x1="37.09516" y1="87.47530" x2="37.66578" y2="87.80475" stroke="green" stroke-width="0.04000"/>
    <line x1="37.16837" y1="87.40210" x2="37.73796" y2="87.73095" stroke="green" stroke-width="0.04000"/>
    <line x1="37.24157" y1="87.32890" x2="37.81148" y2="87.65793" stroke="green" stroke-width="0.04000"/>
    <line x1="37.45452" y1="87.33636" x2="37.88499" y2="87.58491" stroke="green" stroke-width="0.04000"/>
    <line x1="37.56522" y1="87.28481" x2="37.95852" y2="87.51188" stroke="green" stroke-width="0.04000"/>
    <line x1="37.63843" y1="87.21161" x2="38.03203" y2="87.43886" stroke="green" stroke-width="0.04000"/>
    <line x1="37.71164" y1="87.13840" x2="38.10556" y2="87.36583" stroke="green" stroke-width="0.04000"/>
    <line x1="37.78484" y1="87.06520" x2="38.17888" y2="87.29270" stroke="green" stroke-width="0.04000"/>
    <line x1="37.85805" y1="86.99200" x2="38.25280" y2="87.21990" stroke="green" stroke-width="0.04000"/>
    <line x1="37.93125" y1="86.91879" x2="38.32942" y2="87.14867" stroke="green" stroke-width="0.04000"/>
    <line x1="38.00446" y1="86.84559" x2="38.40604" y2="87.07744" stroke="green" stroke-width="0.04000"/>
    <line x1="38.07766" y1="86.77238" x2="38.48267" y2="87.00621" stroke="green" stroke-width="0.04000"/>
    <line x1="38.15087" y1="86.69917" x2="38.55929" y2="86.93497" stroke="green" stroke-width="0.04000"/>
    <line x1="38.22407" y1="86.62597" x2="38.63592" y2="86.86375" stroke="green" stroke-width="0.04000"/>
    <line x1="38.29728" y1="86.55276" x2="38.71113" y2="86.79170" stroke="green" stroke-width="0.04000"/>
    <line x1="38.37048" y1="86.47956" x2="38.78556" y2="86.71920" stroke="green" stroke-width="0.04000"/>
    <line x1="38.44369" y1="86.40636" x2="38.85999" y2="86.64671" stroke="green" stroke-width="0.04000"/>
    <line x1="38.51689" y1="86.33315" x2="38.93442" y2="86.57421" stroke="green" stroke-width="0.04000"/>
    <line x1="38.59010" y1="86.25994" x2="39.00947" y2="86.50207" stroke="green" stroke-width="0.04000"/>
    <line x1="38.66330" y1="86.18674" x2="39.08538" y2="86.43042" stroke="green" stroke-width="0.04000"/>
    <line x1="38.73651" y1="86.11353" x2="39.16128" y2="86.35877" stroke="green" stroke-width="0.04000"/>
    <line x1="38.80971" y1="86.04033" x2="39.23718" y2="86.28712" stroke="green" stroke-width="0.04000"/>
    <line x1="38.88292" y1="85.96712" x2="39.31308" y2="86.21548" stroke="green" stroke-width="0.04000"/>
    <line x1="38.95612" y1="85.89392" x2="39.38832" y2="86.14346" stroke="green" stroke-width="0.04000"/>
    <line x1="39.02933" y1="85.82071" x2="39.46350" y2="86.07138" stroke="green" stroke-width="0.04000"/>
    <line x1="39.10254" y1="85.74751" x2="39.54027" y2="86.00023" stroke="green" stroke-width="0.04000"/>
    <line x1="39.17574" y1="85.67430" x2="39.61490" y2="85.92786" stroke="green" stroke-width="0.04000"/>
    <line x1="39.24894" y1="85.60110" x2="39.68936" y2="85.85537" stroke="green" stroke-width="0.04000"/>
    <line x1="39.32215" y1="85.52789" x2="39.76373" y2="85.78284" stroke="green" stroke-width="0.04000"/>
    <line x1="39.39536" y1="85.45469" x2="39.83810" y2="85.71030" stroke="green" stroke-width="0.04000"/>
    <line x1="39.46856" y1="85.38148" x2="39.91247" y2="85.63777" stroke="green" stroke-width="0.04000"/>
    <line x1="39.54176" y1="85.30827" x2="39.98684" y2="85.56524" stroke="green" stroke-width="0.04000"/>
    <line x1="39.61497" y1="85.23507" x2="40.06068" y2="85.49240" stroke="green" stroke-width="0.04000"/>
    <line x1="39.68818" y1="85.16187" x2="40.13439" y2="85.41949" stroke="green" stroke-width="0.04000"/>
    <line x1="39.76138" y1="85.08867" x2="40.21094" y2="85.34822" stroke="green" stroke-width="0.04000"/>
    <line x1="39.83458" y1="85.01546" x2="40.29078" y2="85.27885" stroke="green" stroke-width="0.04000"/>
    <line x1="39.90779" y1="84.94225" x2="40.36552" y2="85.20652" stroke="green" stroke-width="0.04000"/>
    <line x1="39.98100" y1="84.86905" x2="40.44295" y2="85.13576" stroke="green" stroke-width="0.04000"/>
    <line x1="40.05420" y1="84.79585" x2="40.52758" y2="85.06915" stroke="green" stroke-width="0.04000"/>
    <line x1="40.12741" y1="84.72264" x2="40.60345" y2="84.99748" stroke="green" stroke-width="0.04000"/>
    <line x1="40.20061" y1="84.64944" x2="40.67971" y2="84.92604" stroke="green" stroke-width="0.04000"/>
    <line x1="40.27382" y1="84.57623" x2="40.75654" y2="84.85493" stroke="green" stroke-width="0.04000"/>
    <line x1="40.34702" y1="84.50302" x2="40.83451" y2="84.78447" stroke="green" stroke-width="0.04000"/>
    <line x1="40.42022" y1="84.42982" x2="40.91378" y2="84.71477" stroke="green" stroke-width="0.04000"/>
    <line x1="40.49343" y1="84.35661" x2="40.99730" y2="84.64752" stroke="green" stroke-width="0.04000"/>
    <line x1="40.56664" y1="84.28341" x2="41.08620" y2="84.58338" stroke="green" stroke-width="0.04000"/>
    <line x1="40.63984" y1="84.21021" x2="41.16848" y2="84.51541" stroke="green" stroke-width="0.04000"/>
    <line x1="40.71304" y1="84.13699" x2="41.25312" y2="84.44881" stroke="green" stroke-width="0.04000"/>
    <line x1="40.78625" y1="84.06379" x2="41.33713" y2="84.38184" stroke="green" stroke-width="0.04000"/>
    <line x1="40.85946" y1="83.99059" x2="41.41987" y2="84.31414" stroke="green" stroke-width="0.04000"/>
    <line x1="40.93266" y1="83.91738" x2="41.50343" y2="84.24691" stroke="green" stroke-width="0.04000"/>
    <line x1="41.00587" y1="83.84418" x2="41.58351" y2="84.17767" stroke="green" stroke-width="0.04000"/>
    <line x1="41.07907" y1="83.77097" x2="41.66319" y2="84.10822" stroke="green" stroke-width="0.04000"/>
    <line x1="41.15227" y1="83.69777" x2="41.73941" y2="84.03675" stroke="green" stroke-width="0.04000"/>
    <line x1="41.22549" y1="83.62456" x2="41.80537" y2="83.95936" stroke="green" stroke-width="0.04000"/>
    <line x1="41.29869" y1="83.55135" x2="41.85917" y2="83.87495" stroke="green" stroke-width="0.04000"/>
    <line x1="41.37189" y1="83.47815" x2="41.90059" y2="83.78339" stroke="green" stroke-width="0.04000"/>
    <line x1="41.31624" y1="83.33055" x2="41.92778" y2="83.68362" stroke="green" stroke-width="0.04000"/>
    <line x1="41.34106" y1="83.22941" x2="41.93927" y2="83.57479" stroke="green" stroke-width="0.04000"/>
    <line x1="41.41426" y1="83.15620" x2="41.92996" y2="83.45394" stroke="green" stroke-width="0.04000"/>
    <line x1="41.48746" y1="83.08299" x2="41.88629" y2="83.31326" stroke="green" stroke-width="0.04000"/>
    <line x1="41.56067" y1="83.00979" x2="41.80792" y2="83.15254" stroke="green" stroke-width="0.04000"/>
    <line x1="41.63387" y1="82.93658" x2="41.70781" y2="82.97927" stroke="green" stroke-width="0.04000"/>
    <path d="M 41.7247 83.0097 L 41.7664 83.09 L 41.768 83.0928 L 41.7761 83.1074 L 41.7958 83.1305 L 41.8022 83.1421 L 41.8022 83.1421 L 41.8397 83.2104 L 41.8479 83.2245 L 41.85 83.228 L 41.8779 83.2916 L 41.8817 83.3013 L 41.8873 83.3158 L 41.907 83.3604 L 41.9173 83.3967 L 41.9222 83.4133 L 41.9294 83.4511 L 41.9327 83.4676 L 41.9367 83.5069 L 41.9385 83.5229 L 41.939 83.5637 L 41.9394 83.5786 L 41.9363 83.6209 L 41.9355 83.6344 L 41.9286 83.678 L 41.9269 83.6897 L 41.9159 83.7346 L 41.9137 83.7441 L 41.8983 83.7903 L 41.8961 83.7972 L 41.8498 83.8948 L 41.8491 83.8964 L 41.8484 83.8977 L 41.8339 83.9188 L 41.7876 83.9847 L 41.7837 83.9901 L 41.7119 84.0657 L 41.6874 84.0872 L 41.511 84.2409 L 41.4538 84.2864 L 41.3663 84.358 L 41.3663 84.358 L 41.2911 84.4195 L 41.2737 84.4327 L 41.1906 84.4976 L 41.1474 84.5323 L 41.1473 84.5322 L 41.1066 84.5661 L 41.0845 84.5848 L 41.0723 84.5952 L 40.9756 84.6627 L 40.9024 84.7243 L 40.9027 84.7246 L 40.8727 84.7505 L 40.8539 84.7672 L 40.8149 84.8018 L 40.7675 84.845 L 40.7397 84.8702 L 40.7145 84.8937 L 40.6802 84.9256 L 40.6415 84.9615 L 40.5882 85.0119 L 40.5199 85.0764 L 40.4217 85.1521 L 40.3573 85.2144 L 40.2936 85.2761 L 40.2696 85.2994 L 40.1824 85.372 L 40.0092 85.5434 L 40.001 85.5515 L 39.7204 85.8251 L 39.6718 85.8725 L 39.6663 85.8773 L 39.6388 85.9046 L 39.5361 86.0043 L 39.5154 86.0217 L 39.3203 86.2087 L 39.1015 86.4152 L 38.9777 86.532 L 38.6632 86.8384 L 38.2284 87.2426 L 38.1631 87.3086 L 37.7305 87.7384 L 37.6679 87.8027 L 37.5707 87.8959 L 37.5169 87.951 L 37.3639 88.1133 L 37.3625 88.1147 L 37.3434 88.1354 L 37.3329 88.1451 L 37.3125 88.1645 L 37.3036 88.1719 L 37.2799 88.1922 L 37.2727 88.1976 L 37.2457 88.2182 L 37.2405 88.2217 L 37.2104 88.2421 L 37.207 88.244 L 37.1742 88.2635 L 37.1729 88.2642 L 37.1465 88.2775 L 37.1388 88.281 L 37.1382 88.2813 L 37.1375 88.2815 L 37.1035 88.2937 L 37.1033 88.2938 L 37.0735 88.3017 L 37.0697 88.303 L 37.0681 88.3033 L 37.0678 88.3033 L 37.0621 88.3043 L 37.0326 88.3093 L 37.0323 88.3094 L 37.0066 88.311 L 37.0022 88.3118 L 36.9978 88.3117 L 36.9859 88.3113 L 36.9639 88.3102 L 36.9636 88.3101 L 36.9425 88.3062 L 36.9396 88.3061 L 36.9323 88.3041 L 36.9321 88.304 L 36.9133 88.2974 L 36.9022 88.2943 L 36.8938 88.2889 L 36.8773 88.2798 L 36.8772 88.2798 L 36.8662 88.2734 L 36.8551 88.2631 L 36.782 88.1879 L 36.5825 87.988 L 36.6874 87.8831 L 36.6874 87.8831 L 36.7102 87.8603 L 36.7102 87.8603 L 36.7519 87.8186 L 36.8187 87.7517 L 36.8187 87.7517 L 37.038 87.5325 L 37.2694 87.3011 L 37.2721 87.3017 L 37.275 87.3024 L 37.3297 87.313 L 37.5043 87.3457 L 37.6441 87.2059 L 37.9467 86.9033 L 38.1679 86.6822 L 38.1679 86.6822 L 38.4473 86.4028 L 38.6634 86.1866 L 39.1175 85.7326 L 39.3376 85.5125 L 39.3376 85.5125 L 39.3704 85.4797 L 39.4906 85.3595 L 39.6138 85.2362 L 39.6428 85.2072 L 39.6428 85.2072 L 39.7925 85.0575 L 39.8612 84.9888 L 39.8612 84.9888 L 39.9369 84.9132 L 39.9369 84.9132 L 39.986 84.864 L 40.0818 84.7682 L 40.1113 84.7388 L 40.1277 84.7223 L 40.2506 84.5994 L 40.2714 84.5787 L 40.3924 84.4576 L 40.4325 84.4176 L 40.5261 84.324 L 40.5398 84.3103 L 40.6953 84.1547 L 40.896 83.954 L 40.896 83.954 L 40.9612 83.8889 L 40.9704 83.8796 L 40.9704 83.8796 L 41.1896 83.6604 L 41.2413 83.6087 L 41.2614 83.5887 L 41.2614 83.5887 L 41.3864 83.4637 L 41.3371 83.3691 L 41.2894 83.281 L 41.4171 83.1534 L 41.4745 83.0959 L 41.4745 83.0959 L 41.4813 83.0891 L 41.6662 82.9042 L 41.7247 83.0097" fill="none" stroke="blue" stroke-width="0.04000" fill-rule="evenodd" fill-opacity="1.000"/>
    <path d="M 41.7247 83.0097 L 41.7664 83.09 L 41.768 83.0928 L 41.7761 83.1074 L 41.7958 83.1305 L 41.8022 83.1421 L 41.8022 83.1421 L 41.8397 83.2104 L 41.8479 83.2245 L 41.85 83.228 L 41.8779 83.2916 L 41.8817 83.3013 L 41.8873 83.3158 L 41.907 83.3604 L 41.9173 83.3967 L 41.9222 83.4133 L 41.9294 83.4511 L 41.9327 83.4676 L 41.9367 83.5069 L 41.9385 83.5229 L 41.939 83.5637 L 41.9394 83.5786 L 41.9363 83.6209 L 41.9355 83.6344 L 41.9286 83.678 L 41.9269 83.6897 L 41.9159 83.7346 L 41.9137 83.7441 L 41.8983 83.7903 L 41.8961 83.7972 L 41.8498 83.8948 L 41.8491 83.8964 L 41.8484 83.8977 L 41.8339 83.9188 L 41.7876 83.9847 L 41.7837 83.9901 L 41.7119 84.0657 L 41.6874 84.0872 L 41.511 84.2409 L 41.4538 84.2864 L 41.3663 84.358 L 41.3663 84.358 L 41.2911 84.4195 L 41.2737 84.4327 L 41.1906 84.4976 L 41.1474 84.5323 L 41.1473 84.5322 L 41.1066 84.5661 L 41.0845 84.5848 L 41.0723 84.5952 L 40.9756 84.6627 L 40.9024 84.7243 L 40.9027 84.7246 L 40.8727 84.7505 L 40.8539 84.7672 L 40.8149 84.8018 L 40.7675 84.845 L 40.7397 84.8702 L 40.7145 84.8937 L 40.6802 84.9256 L 40.6415 84.9615 L 40.5882 85.0119 L 40.5199 85.0764 L 40.4217 85.1521 L 40.3573 85.2144 L 40.2936 85.2761 L 40.2696 85.2994 L 40.1824 85.372 L 40.0092 85.5434 L 40.001 85.5515 L 39.7204 85.8251 L 39.6718 85.8725 L 39.6663 85.8773 L 39.6388 85.9046 L 39.5361 86.0043 L 39.5154 86.0217 L 39.3203 86.2087 L 39.1015 86.4152 L 38.9777 86.532 L 38.6632 86.8384 L 38.2284 87.2426 L 38.1631 87.3086 L 37.7305 87.7384 L 37.6679 87.8027 L 37.5707 87.8959 L 37.5169 87.951 L 37.3639 88.1133 L 37.3625 88.1147 L 37.3434 88.1354 L 37.3329 88.1451 L 37.3125 88.1645 L 37.3036 88.1719 L 37.2799 88.1922 L 37.2727 88.1976 L 37.2457 88.2182 L 37.2405 88.2217 L 37.2104 88.2421 L 37.207 88.244 L 37.1742 88.2635 L 37.1729 88.2642 L 37.1465 88.2775 L 37.1388 88.281 L 37.1382 88.2813 L 37.1375 88.2815 L 37.1035 88.2937 L 37.1033 88.2938 L 37.0735 88.3017 L 37.0697 88.303 L 37.0681 88.3033 L 37.0678 88.3033 L 37.0621 88.3043 L 37.0326 88.3093 L 37.0323 88.3094 L 37.0066 88.311 L 37.0022 88.3118 L 36.9978 88.3117 L 36.9859 88.3113 L 36.9639 88.3102 L 36.9636 88.3101 L 36.9425 88.3062 L 36.9396 88.3061 L 36.9323 88.3041 L 36.9321 88.304 L 36.9133 88.2974 L 36.9022 88.2943 L 36.8938 88.2889 L 36.8773 88.2798 L 36.8772 88.2798 L 36.8662 88.2734 L 36.8551 88.2631 L 36.782 88.1879 L 36.5825 87.988 L 36.6874 87.8831 L 36.6874 87.8831 L 36.7102 87.8603 L 36.7102 87.8603 L 36.7519 87.8186 L 36.8187 87.7517 L 36.8187 87.7517 L 37.038 87.5325 L 37.2694 87.3011 L 37.2721 87.3017 L 37.275 87.3024 L 37.3297 87.313 L 37.5043 87.3457 L 37.6441 87.2059 L 37.9467 86.9033 L 38.1679 86.6822 L 38.1679 86.6822 L 38.4473 86.4028 L 38.6634 86.1866 L 39.1175 85.7326 L 39.3376 85.5125 L 39.3376 85.5125 L 39.3704 85.4797 L 39.4906 85.3595 L 39.6138 85.2362 L 39.6428 85.2072 L 39.6428 85.2072 L 39.7925 85.0575 L 39.8612 84.9888 L 39.8612 84.9888 L 39.9369 84.9132 L 39.9369 84.9132 L 39.986 84.864 L 40.0818 84.7682 L 40.1113 84.7388 L 40.1277 84.7223 L 40.2506 84.5994 L 40.2714 84.5787 L 40.3924 84.4576 L 40.4325 84.4176 L 40.5261 84.324 L 40.5398 84.3103 L 40.6953 84.1547 L 40.896 83.954 L 40.896 83.954 L 40.9612 83.8889 L 40.9704 83.8796 L 40.9704 83.8796 L 41.1896 83.6604 L 41.2413 83.6087 L 41.2614 83.5887 L 41.2614 83.5887 L 41.3864 83.4637 L 41.3371 83.3691 L 41.2894 83.281 L 41.4171 83.1534 L 41.4745 83.0959 L 41.4745 83.0959 L 41.4813 83.0891 L 41.6662 82.9042 Z" fill="none" stroke="blue" stroke-width="0.05000" fill-rule="evenodd" fill-opacity="1.000"/>
  </g>
</svg>
