<?xml version="1.0" encoding="UTF-8" standalone="yes"?>
<!DOCTYPE svg PUBLIC "-//W3C//DTD SVG 1.0//EN" "http://www.w3.org/TR/2001/REC-SVG-20010904/DTD/svg10.dtd">
<svg height="2000" width="2000" xmlns="http://www.w3.org/2000/svg" xmlns:svg="http://www.w3.org/2000/svg" xmlns:xlink="http://www.w3.org/1999/xlink">
  <marker id="endArrow" markerHeight="8" markerUnits="strokeWidth" markerWidth="10" orient="auto" refX="1" refY="5" viewBox="0 0 1000 1000">
    <polyline fill="darkblue" points="0,0 10,5 0,10 1,5" />
  </marker>
  <circle cx="1000.000000" cy="1000.000000" r="1.000000" style="stroke:black; fill: red" />
  <circle cx="1000.000000" cy="1000.000000" r="800.000000" style="stroke:black; fill: none" />
  <line x1="1423.945435" y1="1409.510498" x2="1426.463623" y2="1410.000000" style="stroke: green; stroke-width: 0.200000"/>
  <line x1="1423.945435" y1="1408.491821" x2="1431.704346" y2="1410.000000" style="stroke: green; stroke-width: 0.200000"/>
  <line x1="1423.945435" y1="1407.473145" x2="1436.945190" y2="1410.000000" style="stroke: green; stroke-width: 0.200000"/>
  <line x1="1423.945435" y1="1406.454468" x2="1442.186035" y2="1410.000000" style="stroke: green; stroke-width: 0.200000"/>
  <line x1="1423.945435" y1="1405.435669" x2="1447.426880" y2="1410.000000" style="stroke: green; stroke-width: 0.200000"/>
  <line x1="1423.945435" y1="1404.416992" x2="1452.667847" y2="1410.000000" style="stroke: green; stroke-width: 0.200000"/>
  <line x1="1423.945435" y1="1403.398315" x2="1457.908447" y2="1410.000000" style="stroke: green; stroke-width: 0.200000"/>
  <line x1="1423.945435" y1="1402.379395" x2="1463.149414" y2="1410.000000" style="stroke: green; stroke-width: 0.200000"/>
  <line x1="1423.945435" y1="1401.360840" x2="1468.390137" y2="1410.000000" style="stroke: green; stroke-width: 0.200000"/>
  <line x1="1423.945435" y1="1400.342041" x2="1473.631348" y2="1410.000000" style="stroke: green; stroke-width: 0.200000"/>
  <line x1="1423.945435" y1="1399.323486" x2="1478.871948" y2="1410.000000" style="stroke: green; stroke-width: 0.200000"/>
  <line x1="1423.945435" y1="1398.304688" x2="1484.112793" y2="1410.000000" style="stroke: green; stroke-width: 0.200000"/>
  <line x1="1423.945435" y1="1397.285889" x2="1489.353638" y2="1410.000000" style="stroke: green; stroke-width: 0.200000"/>
  <line x1="1423.945435" y1="1396.267212" x2="1494.594604" y2="1410.000000" style="stroke: green; stroke-width: 0.200000"/>
  <line x1="1423.945435" y1="1395.248413" x2="1499.835449" y2="1410.000000" style="stroke: green; stroke-width: 0.200000"/>
  <line x1="1423.945435" y1="1394.229736" x2="1505.076172" y2="1410.000000" style="stroke: green; stroke-width: 0.200000"/>
  <line x1="1423.945435" y1="1393.211060" x2="1510.317139" y2="1410.000000" style="stroke: green; stroke-width: 0.200000"/>
  <line x1="1423.945435" y1="1392.192383" x2="1515.557861" y2="1410.000000" style="stroke: green; stroke-width: 0.200000"/>
  <line x1="1423.945435" y1="1391.173706" x2="1520.798828" y2="1410.000000" style="stroke: green; stroke-width: 0.200000"/>
  <line x1="1423.945435" y1="1390.154907" x2="1526.039429" y2="1410.000000" style="stroke: green; stroke-width: 0.200000"/>
  <line x1="1423.945435" y1="1389.136230" x2="1531.280396" y2="1410.000000" style="stroke: green; stroke-width: 0.200000"/>
  <line x1="1423.945435" y1="1388.117554" x2="1536.054565" y2="1409.909180" style="stroke: green; stroke-width: 0.200000"/>
  <line x1="1423.945435" y1="1387.098633" x2="1536.054565" y2="1408.890503" style="stroke: green; stroke-width: 0.200000"/>
  <line x1="1423.945435" y1="1386.080078" x2="1536.054565" y2="1407.871826" style="stroke: green; stroke-width: 0.200000"/>
  <line x1="1423.945435" y1="1385.061279" x2="1536.054565" y2="1406.853027" style="stroke: green; stroke-width: 0.200000"/>
  <line x1="1423.945435" y1="1384.042725" x2="1536.054565" y2="1405.834351" style="stroke: green; stroke-width: 0.200000"/>
  <line x1="1423.945435" y1="1383.023804" x2="1536.054565" y2="1404.815674" style="stroke: green; stroke-width: 0.200000"/>
  <line x1="1423.945435" y1="1382.005127" x2="1536.054565" y2="1403.796997" style="stroke: green; stroke-width: 0.200000"/>
  <line x1="1423.945435" y1="1380.986450" x2="1536.054565" y2="1402.778320" style="stroke: green; stroke-width: 0.200000"/>
  <line x1="1423.945435" y1="1379.967773" x2="1536.054565" y2="1401.759521" style="stroke: green; stroke-width: 0.200000"/>
  <line x1="1423.945435" y1="1378.948975" x2="1536.054565" y2="1400.740845" style="stroke: green; stroke-width: 0.200000"/>
  <line x1="1423.945435" y1="1377.930298" x2="1536.054565" y2="1399.722168" style="stroke: green; stroke-width: 0.200000"/>
  <line x1="1423.945435" y1="1376.911621" x2="1536.054565" y2="1398.703369" style="stroke: green; stroke-width: 0.200000"/>
  <line x1="1423.945435" y1="1375.892944" x2="1536.054565" y2="1397.684570" style="stroke: green; stroke-width: 0.200000"/>
  <line x1="1423.945435" y1="1374.874146" x2="1536.054565" y2="1396.666016" style="stroke: green; stroke-width: 0.200000"/>
  <line x1="1423.945435" y1="1373.855469" x2="1536.054565" y2="1395.647217" style="stroke: green; stroke-width: 0.200000"/>
  <line x1="1423.945435" y1="1372.836792" x2="1536.054565" y2="1394.628662" style="stroke: green; stroke-width: 0.200000"/>
  <line x1="1423.945435" y1="1371.818115" x2="1536.054565" y2="1393.609741" style="stroke: green; stroke-width: 0.200000"/>
  <line x1="1423.945435" y1="1370.799316" x2="1536.054565" y2="1392.591064" style="stroke: green; stroke-width: 0.200000"/>
  <line x1="1423.945435" y1="1369.780518" x2="1536.054565" y2="1391.572388" style="stroke: green; stroke-width: 0.200000"/>
  <line x1="1423.945435" y1="1368.761963" x2="1536.054565" y2="1390.553589" style="stroke: green; stroke-width: 0.200000"/>
  <line x1="1423.945435" y1="1367.743164" x2="1536.054565" y2="1389.534912" style="stroke: green; stroke-width: 0.200000"/>
  <line x1="1423.945435" y1="1366.724365" x2="1536.054565" y2="1388.516235" style="stroke: green; stroke-width: 0.200000"/>
  <line x1="1423.945435" y1="1365.705688" x2="1536.054565" y2="1387.497559" style="stroke: green; stroke-width: 0.200000"/>
  <line x1="1423.945435" y1="1364.687012" x2="1536.054565" y2="1386.478760" style="stroke: green; stroke-width: 0.200000"/>
  <line x1="1423.945435" y1="1363.668213" x2="1536.054565" y2="1385.460083" style="stroke: green; stroke-width: 0.200000"/>
  <line x1="1423.945435" y1="1362.649536" x2="1536.054565" y2="1384.441406" style="stroke: green; stroke-width: 0.200000"/>
  <line x1="1423.945435" y1="1361.630859" x2="1536.054565" y2="1383.422607" style="stroke: green; stroke-width: 0.200000"/>
  <line x1="1423.945435" y1="1360.612183" x2="1536.054565" y2="1382.403809" style="stroke: green; stroke-width: 0.200000"/>
  <line x1="1423.945435" y1="1359.593506" x2="1536.054565" y2="1381.385254" style="stroke: green; stroke-width: 0.200000"/>
  <line x1="1423.945435" y1="1358.574707" x2="1536.054565" y2="1380.366455" style="stroke: green; stroke-width: 0.200000"/>
  <line x1="1423.945435" y1="1357.556030" x2="1536.054565" y2="1379.347900" style="stroke: green; stroke-width: 0.200000"/>
  <line x1="1423.945435" y1="1356.537109" x2="1536.054565" y2="1378.328979" style="stroke: green; stroke-width: 0.200000"/>
  <line x1="1423.945435" y1="1355.518555" x2="1536.054565" y2="1377.310303" style="stroke: green; stroke-width: 0.200000"/>
  <line x1="1423.945435" y1="1354.499756" x2="1536.054565" y2="1376.291626" style="stroke: green; stroke-width: 0.200000"/>
  <line x1="1423.945435" y1="1353.481201" x2="1536.054565" y2="1375.272827" style="stroke: green; stroke-width: 0.200000"/>
  <line x1="1423.945435" y1="1352.462402" x2="1536.054565" y2="1374.254150" style="stroke: green; stroke-width: 0.200000"/>
  <line x1="1423.945435" y1="1351.443604" x2="1536.054565" y2="1373.235474" style="stroke: green; stroke-width: 0.200000"/>
  <line x1="1423.945435" y1="1350.424927" x2="1536.054565" y2="1372.216797" style="stroke: green; stroke-width: 0.200000"/>
  <line x1="1423.945435" y1="1349.406250" x2="1536.054565" y2="1371.198120" style="stroke: green; stroke-width: 0.200000"/>
  <line x1="1423.945435" y1="1348.387451" x2="1536.054565" y2="1370.179321" style="stroke: green; stroke-width: 0.200000"/>
  <line x1="1423.945435" y1="1347.368774" x2="1536.054565" y2="1369.160645" style="stroke: green; stroke-width: 0.200000"/>
  <line x1="1423.945435" y1="1346.350098" x2="1536.054565" y2="1368.141968" style="stroke: green; stroke-width: 0.200000"/>
  <line x1="1423.945435" y1="1345.331421" x2="1536.054565" y2="1367.123047" style="stroke: green; stroke-width: 0.200000"/>
  <line x1="1423.945435" y1="1344.312744" x2="1536.054565" y2="1366.104492" style="stroke: green; stroke-width: 0.200000"/>
  <line x1="1423.945435" y1="1343.293945" x2="1536.054565" y2="1365.085693" style="stroke: green; stroke-width: 0.200000"/>
  <line x1="1423.945435" y1="1342.275269" x2="1536.054565" y2="1364.067139" style="stroke: green; stroke-width: 0.200000"/>
  <line x1="1423.945435" y1="1341.256592" x2="1536.054565" y2="1363.048340" style="stroke: green; stroke-width: 0.200000"/>
  <line x1="1423.945435" y1="1340.237793" x2="1536.054565" y2="1362.029541" style="stroke: green; stroke-width: 0.200000"/>
  <line x1="1423.945435" y1="1339.218994" x2="1536.054565" y2="1361.010864" style="stroke: green; stroke-width: 0.200000"/>
  <line x1="1423.945435" y1="1338.200439" x2="1536.054565" y2="1359.992188" style="stroke: green; stroke-width: 0.200000"/>
  <line x1="1423.945435" y1="1337.181641" x2="1536.054565" y2="1358.973389" style="stroke: green; stroke-width: 0.200000"/>
  <line x1="1423.945435" y1="1336.163086" x2="1536.054565" y2="1357.954712" style="stroke: green; stroke-width: 0.200000"/>
  <line x1="1423.945435" y1="1335.144165" x2="1536.054565" y2="1356.936035" style="stroke: green; stroke-width: 0.200000"/>
  <line x1="1423.945435" y1="1334.125488" x2="1536.054565" y2="1355.917358" style="stroke: green; stroke-width: 0.200000"/>
  <line x1="1423.945435" y1="1333.106812" x2="1536.054565" y2="1354.898560" style="stroke: green; stroke-width: 0.200000"/>
  <line x1="1423.945435" y1="1332.088013" x2="1536.054565" y2="1353.879883" style="stroke: green; stroke-width: 0.200000"/>
  <line x1="1423.945435" y1="1331.069336" x2="1536.054565" y2="1352.861206" style="stroke: green; stroke-width: 0.200000"/>
  <line x1="1423.945435" y1="1330.050659" x2="1536.054565" y2="1351.842285" style="stroke: green; stroke-width: 0.200000"/>
  <line x1="1423.945435" y1="1329.031982" x2="1536.054565" y2="1350.823730" style="stroke: green; stroke-width: 0.200000"/>
  <line x1="1423.945435" y1="1328.013184" x2="1536.054565" y2="1349.804932" style="stroke: green; stroke-width: 0.200000"/>
  <line x1="1423.945435" y1="1326.994507" x2="1536.054565" y2="1348.786377" style="stroke: green; stroke-width: 0.200000"/>
  <line x1="1423.945435" y1="1325.975830" x2="1536.054565" y2="1347.767578" style="stroke: green; stroke-width: 0.200000"/>
  <line x1="1423.945435" y1="1324.957031" x2="1536.054565" y2="1346.748779" style="stroke: green; stroke-width: 0.200000"/>
  <line x1="1423.945435" y1="1323.938232" x2="1536.054565" y2="1345.730103" style="stroke: green; stroke-width: 0.200000"/>
  <line x1="1423.945435" y1="1322.919678" x2="1536.054565" y2="1344.711426" style="stroke: green; stroke-width: 0.200000"/>
  <line x1="1423.945435" y1="1321.900879" x2="1536.054565" y2="1343.692627" style="stroke: green; stroke-width: 0.200000"/>
  <line x1="1423.945435" y1="1320.882324" x2="1536.054565" y2="1342.673950" style="stroke: green; stroke-width: 0.200000"/>
  <line x1="1423.945435" y1="1319.863403" x2="1536.054565" y2="1341.655273" style="stroke: green; stroke-width: 0.200000"/>
  <line x1="1423.945435" y1="1318.844727" x2="1536.054565" y2="1340.636597" style="stroke: green; stroke-width: 0.200000"/>
  <line x1="1423.945435" y1="1317.826050" x2="1536.054565" y2="1339.617798" style="stroke: green; stroke-width: 0.200000"/>
  <line x1="1423.945435" y1="1316.807251" x2="1536.054565" y2="1338.599121" style="stroke: green; stroke-width: 0.200000"/>
  <line x1="1423.945435" y1="1315.788574" x2="1536.054565" y2="1337.580444" style="stroke: green; stroke-width: 0.200000"/>
  <line x1="1423.945435" y1="1314.769897" x2="1536.054565" y2="1336.561768" style="stroke: green; stroke-width: 0.200000"/>
  <line x1="1423.945435" y1="1313.751221" x2="1536.054565" y2="1335.542969" style="stroke: green; stroke-width: 0.200000"/>
  <line x1="1423.945435" y1="1312.732422" x2="1536.054565" y2="1334.524170" style="stroke: green; stroke-width: 0.200000"/>
  <line x1="1423.945435" y1="1311.713745" x2="1536.054565" y2="1333.505615" style="stroke: green; stroke-width: 0.200000"/>
  <line x1="1423.945435" y1="1310.695068" x2="1536.054565" y2="1332.486816" style="stroke: green; stroke-width: 0.200000"/>
  <line x1="1423.945435" y1="1309.676270" x2="1536.054565" y2="1331.468018" style="stroke: green; stroke-width: 0.200000"/>
  <line x1="1423.945435" y1="1308.657471" x2="1536.054565" y2="1330.449341" style="stroke: green; stroke-width: 0.200000"/>
  <line x1="1423.945435" y1="1307.638916" x2="1536.054565" y2="1329.430664" style="stroke: green; stroke-width: 0.200000"/>
  <line x1="1423.945435" y1="1306.620117" x2="1536.054565" y2="1328.411865" style="stroke: green; stroke-width: 0.200000"/>
  <line x1="1423.945435" y1="1305.601562" x2="1536.054565" y2="1327.393188" style="stroke: green; stroke-width: 0.200000"/>
  <line x1="1423.945435" y1="1304.582642" x2="1536.054565" y2="1326.374512" style="stroke: green; stroke-width: 0.200000"/>
  <line x1="1423.945435" y1="1303.563965" x2="1536.054565" y2="1325.355835" style="stroke: green; stroke-width: 0.200000"/>
  <line x1="1423.945435" y1="1302.545288" x2="1536.054565" y2="1324.337158" style="stroke: green; stroke-width: 0.200000"/>
  <line x1="1423.945435" y1="1301.526489" x2="1536.054565" y2="1323.318359" style="stroke: green; stroke-width: 0.200000"/>
  <line x1="1423.945435" y1="1300.507812" x2="1536.054565" y2="1322.299683" style="stroke: green; stroke-width: 0.200000"/>
  <line x1="1423.945435" y1="1299.489136" x2="1536.054565" y2="1321.281006" style="stroke: green; stroke-width: 0.200000"/>
  <line x1="1423.945435" y1="1298.470459" x2="1536.054565" y2="1320.262207" style="stroke: green; stroke-width: 0.200000"/>
  <line x1="1423.945435" y1="1297.451782" x2="1536.054565" y2="1319.243408" style="stroke: green; stroke-width: 0.200000"/>
  <line x1="1423.945435" y1="1296.432983" x2="1536.054565" y2="1318.224854" style="stroke: green; stroke-width: 0.200000"/>
  <line x1="1423.945435" y1="1295.414307" x2="1536.054565" y2="1317.206055" style="stroke: green; stroke-width: 0.200000"/>
  <line x1="1423.945435" y1="1294.395630" x2="1536.054565" y2="1316.187256" style="stroke: green; stroke-width: 0.200000"/>
  <line x1="1423.945435" y1="1293.376709" x2="1536.054565" y2="1315.168579" style="stroke: green; stroke-width: 0.200000"/>
  <line x1="1423.945435" y1="1292.358154" x2="1536.054565" y2="1314.149902" style="stroke: green; stroke-width: 0.200000"/>
  <line x1="1423.945435" y1="1291.339355" x2="1536.054565" y2="1313.131104" style="stroke: green; stroke-width: 0.200000"/>
  <line x1="1423.945435" y1="1290.320801" x2="1536.054565" y2="1312.112427" style="stroke: green; stroke-width: 0.200000"/>
  <line x1="1423.945435" y1="1289.301880" x2="1536.054565" y2="1311.093750" style="stroke: green; stroke-width: 0.200000"/>
  <line x1="1423.945435" y1="1288.283203" x2="1536.054565" y2="1310.075073" style="stroke: green; stroke-width: 0.200000"/>
  <line x1="1423.945435" y1="1287.264526" x2="1536.054565" y2="1309.056274" style="stroke: green; stroke-width: 0.200000"/>
  <line x1="1423.945435" y1="1286.245850" x2="1536.054565" y2="1308.037598" style="stroke: green; stroke-width: 0.200000"/>
  <line x1="1423.945435" y1="1285.227051" x2="1536.054565" y2="1307.018921" style="stroke: green; stroke-width: 0.200000"/>
  <line x1="1423.945435" y1="1284.208374" x2="1536.054565" y2="1306.000244" style="stroke: green; stroke-width: 0.200000"/>
  <line x1="1423.945435" y1="1283.189697" x2="1536.054565" y2="1304.981445" style="stroke: green; stroke-width: 0.200000"/>
  <line x1="1423.945435" y1="1282.171021" x2="1536.054565" y2="1303.962646" style="stroke: green; stroke-width: 0.200000"/>
  <line x1="1423.945435" y1="1281.152222" x2="1536.054565" y2="1302.944092" style="stroke: green; stroke-width: 0.200000"/>
  <line x1="1423.945435" y1="1280.133545" x2="1536.054565" y2="1301.925293" style="stroke: green; stroke-width: 0.200000"/>
  <line x1="1423.945435" y1="1279.114868" x2="1536.054565" y2="1300.906494" style="stroke: green; stroke-width: 0.200000"/>
  <line x1="1423.945435" y1="1278.096069" x2="1536.054565" y2="1299.887817" style="stroke: green; stroke-width: 0.200000"/>
  <line x1="1423.945435" y1="1277.077393" x2="1536.054565" y2="1298.869141" style="stroke: green; stroke-width: 0.200000"/>
  <line x1="1423.945435" y1="1276.058594" x2="1536.054565" y2="1297.850464" style="stroke: green; stroke-width: 0.200000"/>
  <line x1="1423.945435" y1="1275.039917" x2="1536.054565" y2="1296.831665" style="stroke: green; stroke-width: 0.200000"/>
  <line x1="1423.945435" y1="1274.021240" x2="1536.054565" y2="1295.812988" style="stroke: green; stroke-width: 0.200000"/>
  <line x1="1423.945435" y1="1273.002441" x2="1536.054565" y2="1294.794312" style="stroke: green; stroke-width: 0.200000"/>
  <line x1="1423.945435" y1="1271.983765" x2="1536.054565" y2="1293.775635" style="stroke: green; stroke-width: 0.200000"/>
  <line x1="1423.945435" y1="1270.965088" x2="1536.054565" y2="1292.756836" style="stroke: green; stroke-width: 0.200000"/>
  <line x1="1423.945435" y1="1269.946411" x2="1536.054565" y2="1291.738159" style="stroke: green; stroke-width: 0.200000"/>
  <line x1="1423.945435" y1="1268.927612" x2="1536.054565" y2="1290.719482" style="stroke: green; stroke-width: 0.200000"/>
  <line x1="1423.945435" y1="1267.908936" x2="1536.054565" y2="1289.700806" style="stroke: green; stroke-width: 0.200000"/>
  <line x1="1423.945435" y1="1266.890137" x2="1536.054565" y2="1288.681885" style="stroke: green; stroke-width: 0.200000"/>
  <line x1="1423.945435" y1="1265.871460" x2="1536.054565" y2="1287.663330" style="stroke: green; stroke-width: 0.200000"/>
  <line x1="1423.945435" y1="1264.852783" x2="1536.054565" y2="1286.644531" style="stroke: green; stroke-width: 0.200000"/>
  <line x1="1423.945435" y1="1263.834106" x2="1536.054565" y2="1285.625977" style="stroke: green; stroke-width: 0.200000"/>
  <line x1="1423.945435" y1="1262.815308" x2="1536.054565" y2="1284.607056" style="stroke: green; stroke-width: 0.200000"/>
  <line x1="1423.945435" y1="1261.796631" x2="1536.054565" y2="1283.588379" style="stroke: green; stroke-width: 0.200000"/>
  <line x1="1423.945435" y1="1260.777832" x2="1536.054565" y2="1282.569702" style="stroke: green; stroke-width: 0.200000"/>
  <line x1="1423.945435" y1="1259.759277" x2="1536.054565" y2="1281.550903" style="stroke: green; stroke-width: 0.200000"/>
  <line x1="1423.945435" y1="1258.740479" x2="1536.054565" y2="1280.532227" style="stroke: green; stroke-width: 0.200000"/>
  <line x1="1423.945435" y1="1257.721680" x2="1536.054565" y2="1279.513550" style="stroke: green; stroke-width: 0.200000"/>
  <line x1="1423.945435" y1="1256.703003" x2="1536.054565" y2="1278.494751" style="stroke: green; stroke-width: 0.200000"/>
  <line x1="1423.945435" y1="1255.684326" x2="1536.054565" y2="1277.476074" style="stroke: green; stroke-width: 0.200000"/>
  <line x1="1423.945435" y1="1254.665649" x2="1536.054565" y2="1276.457397" style="stroke: green; stroke-width: 0.200000"/>
  <line x1="1423.945435" y1="1253.646851" x2="1536.054565" y2="1275.438721" style="stroke: green; stroke-width: 0.200000"/>
  <line x1="1423.945435" y1="1252.628174" x2="1536.054565" y2="1274.419922" style="stroke: green; stroke-width: 0.200000"/>
  <line x1="1423.945435" y1="1251.609375" x2="1536.054565" y2="1273.401123" style="stroke: green; stroke-width: 0.200000"/>
  <line x1="1423.945435" y1="1250.590698" x2="1536.054565" y2="1272.382568" style="stroke: green; stroke-width: 0.200000"/>
  <line x1="1423.945435" y1="1249.572021" x2="1536.054565" y2="1271.363770" style="stroke: green; stroke-width: 0.200000"/>
  <line x1="1423.945435" y1="1248.553345" x2="1536.054565" y2="1270.345093" style="stroke: green; stroke-width: 0.200000"/>
  <line x1="1423.945435" y1="1247.534546" x2="1536.054565" y2="1269.326294" style="stroke: green; stroke-width: 0.200000"/>
  <line x1="1423.945435" y1="1246.515869" x2="1536.054565" y2="1268.307617" style="stroke: green; stroke-width: 0.200000"/>
  <line x1="1423.945435" y1="1245.497070" x2="1536.054565" y2="1267.288940" style="stroke: green; stroke-width: 0.200000"/>
  <line x1="1423.945435" y1="1244.478516" x2="1536.054565" y2="1266.270264" style="stroke: green; stroke-width: 0.200000"/>
  <line x1="1423.945435" y1="1243.459717" x2="1536.054565" y2="1265.251465" style="stroke: green; stroke-width: 0.200000"/>
  <line x1="1423.945435" y1="1242.441040" x2="1536.054565" y2="1264.232788" style="stroke: green; stroke-width: 0.200000"/>
  <line x1="1423.945435" y1="1241.422241" x2="1536.054565" y2="1263.214111" style="stroke: green; stroke-width: 0.200000"/>
  <line x1="1423.945435" y1="1240.403564" x2="1536.054565" y2="1262.195312" style="stroke: green; stroke-width: 0.200000"/>
  <line x1="1423.945435" y1="1239.384888" x2="1536.054565" y2="1261.176636" style="stroke: green; stroke-width: 0.200000"/>
  <line x1="1423.945435" y1="1238.366089" x2="1536.054565" y2="1260.157959" style="stroke: green; stroke-width: 0.200000"/>
  <line x1="1423.945435" y1="1237.347412" x2="1536.054565" y2="1259.139160" style="stroke: green; stroke-width: 0.200000"/>
  <line x1="1423.945435" y1="1236.328735" x2="1536.054565" y2="1258.120361" style="stroke: green; stroke-width: 0.200000"/>
  <line x1="1423.945435" y1="1235.309937" x2="1536.054565" y2="1257.101807" style="stroke: green; stroke-width: 0.200000"/>
  <line x1="1423.945435" y1="1234.291260" x2="1536.054565" y2="1256.083008" style="stroke: green; stroke-width: 0.200000"/>
  <line x1="1423.945435" y1="1233.272583" x2="1536.054565" y2="1255.064331" style="stroke: green; stroke-width: 0.200000"/>
  <line x1="1423.945435" y1="1232.253906" x2="1536.054565" y2="1254.045532" style="stroke: green; stroke-width: 0.200000"/>
  <line x1="1423.945435" y1="1231.235107" x2="1536.054565" y2="1253.026855" style="stroke: green; stroke-width: 0.200000"/>
  <line x1="1423.945435" y1="1230.216309" x2="1536.054565" y2="1252.008179" style="stroke: green; stroke-width: 0.200000"/>
  <line x1="1423.945435" y1="1229.197754" x2="1536.054565" y2="1250.989502" style="stroke: green; stroke-width: 0.200000"/>
  <line x1="1423.945435" y1="1228.178955" x2="1536.054565" y2="1249.970825" style="stroke: green; stroke-width: 0.200000"/>
  <line x1="1423.945435" y1="1227.160278" x2="1536.054565" y2="1248.952026" style="stroke: green; stroke-width: 0.200000"/>
  <line x1="1423.945435" y1="1226.141479" x2="1536.054565" y2="1247.933350" style="stroke: green; stroke-width: 0.200000"/>
  <line x1="1423.945435" y1="1225.122803" x2="1536.054565" y2="1246.914551" style="stroke: green; stroke-width: 0.200000"/>
  <line x1="1423.945435" y1="1224.104126" x2="1536.054565" y2="1245.895874" style="stroke: green; stroke-width: 0.200000"/>
  <line x1="1423.945435" y1="1223.085449" x2="1536.054565" y2="1244.877197" style="stroke: green; stroke-width: 0.200000"/>
  <line x1="1423.945435" y1="1222.066650" x2="1536.054565" y2="1243.858521" style="stroke: green; stroke-width: 0.200000"/>
  <line x1="1423.945435" y1="1221.047974" x2="1536.054565" y2="1242.839722" style="stroke: green; stroke-width: 0.200000"/>
  <line x1="1423.945435" y1="1220.029175" x2="1536.054565" y2="1241.821045" style="stroke: green; stroke-width: 0.200000"/>
  <line x1="1423.945435" y1="1219.010498" x2="1536.054565" y2="1240.802246" style="stroke: green; stroke-width: 0.200000"/>
  <line x1="1423.945435" y1="1217.991821" x2="1536.054565" y2="1239.783569" style="stroke: green; stroke-width: 0.200000"/>
  <line x1="1423.945435" y1="1216.973145" x2="1536.054565" y2="1238.764893" style="stroke: green; stroke-width: 0.200000"/>
  <line x1="1423.945435" y1="1215.954346" x2="1536.054565" y2="1237.746094" style="stroke: green; stroke-width: 0.200000"/>
  <line x1="1423.945435" y1="1214.935547" x2="1536.054565" y2="1236.727417" style="stroke: green; stroke-width: 0.200000"/>
  <line x1="1423.945435" y1="1213.916992" x2="1536.054565" y2="1235.708740" style="stroke: green; stroke-width: 0.200000"/>
  <line x1="1423.945435" y1="1212.898193" x2="1536.054565" y2="1234.690063" style="stroke: green; stroke-width: 0.200000"/>
  <line x1="1423.945435" y1="1211.879517" x2="1536.054565" y2="1233.671265" style="stroke: green; stroke-width: 0.200000"/>
  <line x1="1423.945435" y1="1210.860718" x2="1536.054565" y2="1232.652588" style="stroke: green; stroke-width: 0.200000"/>
  <line x1="1423.945435" y1="1209.842041" x2="1536.054565" y2="1231.633789" style="stroke: green; stroke-width: 0.200000"/>
  <line x1="1423.945435" y1="1208.823364" x2="1536.054565" y2="1230.615112" style="stroke: green; stroke-width: 0.200000"/>
  <line x1="1423.945435" y1="1207.804688" x2="1536.054565" y2="1229.596436" style="stroke: green; stroke-width: 0.200000"/>
  <line x1="1423.945435" y1="1206.785889" x2="1536.054565" y2="1228.577759" style="stroke: green; stroke-width: 0.200000"/>
  <line x1="1423.945435" y1="1205.767212" x2="1536.054565" y2="1227.558960" style="stroke: green; stroke-width: 0.200000"/>
  <line x1="1423.945435" y1="1204.748413" x2="1536.054565" y2="1226.540283" style="stroke: green; stroke-width: 0.200000"/>
  <line x1="1423.945435" y1="1203.729736" x2="1536.054565" y2="1225.521484" style="stroke: green; stroke-width: 0.200000"/>
  <line x1="1423.945435" y1="1202.711060" x2="1536.054565" y2="1224.502930" style="stroke: green; stroke-width: 0.200000"/>
  <line x1="1423.945435" y1="1201.692383" x2="1536.054565" y2="1223.484131" style="stroke: green; stroke-width: 0.200000"/>
  <line x1="1423.945435" y1="1200.673584" x2="1536.054565" y2="1222.465332" style="stroke: green; stroke-width: 0.200000"/>
  <line x1="1423.945435" y1="1199.654785" x2="1536.054565" y2="1221.446655" style="stroke: green; stroke-width: 0.200000"/>
  <line x1="1423.945435" y1="1198.636230" x2="1536.054565" y2="1220.427979" style="stroke: green; stroke-width: 0.200000"/>
  <line x1="1423.945435" y1="1197.617432" x2="1536.054565" y2="1219.409302" style="stroke: green; stroke-width: 0.200000"/>
  <line x1="1423.945435" y1="1196.598755" x2="1536.054565" y2="1218.390503" style="stroke: green; stroke-width: 0.200000"/>
  <line x1="1423.945435" y1="1195.579956" x2="1536.054565" y2="1217.371826" style="stroke: green; stroke-width: 0.200000"/>
  <line x1="1423.945435" y1="1194.561279" x2="1536.054565" y2="1216.353149" style="stroke: green; stroke-width: 0.200000"/>
  <line x1="1423.945435" y1="1193.542603" x2="1536.054565" y2="1215.334351" style="stroke: green; stroke-width: 0.200000"/>
  <line x1="1423.945435" y1="1192.523926" x2="1536.054565" y2="1214.315674" style="stroke: green; stroke-width: 0.200000"/>
  <line x1="1423.945435" y1="1191.505127" x2="1536.054565" y2="1213.296997" style="stroke: green; stroke-width: 0.200000"/>
  <line x1="1423.945435" y1="1190.486450" x2="1536.054565" y2="1212.278198" style="stroke: green; stroke-width: 0.200000"/>
  <line x1="1423.945435" y1="1189.467773" x2="1536.054565" y2="1211.259521" style="stroke: green; stroke-width: 0.200000"/>
  <line x1="1423.945435" y1="1188.448975" x2="1536.054565" y2="1210.240723" style="stroke: green; stroke-width: 0.200000"/>
  <line x1="1423.945435" y1="1187.430298" x2="1536.054565" y2="1209.222168" style="stroke: green; stroke-width: 0.200000"/>
  <line x1="1423.945435" y1="1186.411621" x2="1536.054565" y2="1208.203369" style="stroke: green; stroke-width: 0.200000"/>
  <line x1="1423.945435" y1="1185.392822" x2="1536.054565" y2="1207.184692" style="stroke: green; stroke-width: 0.200000"/>
  <line x1="1423.945435" y1="1184.374146" x2="1536.054565" y2="1206.165894" style="stroke: green; stroke-width: 0.200000"/>
  <line x1="1423.945435" y1="1183.355469" x2="1536.054565" y2="1205.147217" style="stroke: green; stroke-width: 0.200000"/>
  <line x1="1423.945435" y1="1182.336670" x2="1536.054565" y2="1204.128540" style="stroke: green; stroke-width: 0.200000"/>
  <line x1="1423.945435" y1="1181.317993" x2="1536.054565" y2="1203.109863" style="stroke: green; stroke-width: 0.200000"/>
  <line x1="1423.945435" y1="1180.299316" x2="1536.054565" y2="1202.091064" style="stroke: green; stroke-width: 0.200000"/>
  <line x1="1423.945435" y1="1179.280518" x2="1536.054565" y2="1201.072266" style="stroke: green; stroke-width: 0.200000"/>
  <line x1="1423.945435" y1="1178.261841" x2="1536.054565" y2="1200.053589" style="stroke: green; stroke-width: 0.200000"/>
  <line x1="1423.945435" y1="1177.243164" x2="1536.054565" y2="1199.034912" style="stroke: green; stroke-width: 0.200000"/>
  <line x1="1423.945435" y1="1176.224487" x2="1536.054565" y2="1198.016235" style="stroke: green; stroke-width: 0.200000"/>
  <line x1="1423.945435" y1="1175.205688" x2="1536.054565" y2="1196.997437" style="stroke: green; stroke-width: 0.200000"/>
  <line x1="1423.945435" y1="1174.187012" x2="1536.054565" y2="1195.978760" style="stroke: green; stroke-width: 0.200000"/>
  <line x1="1423.945435" y1="1173.168213" x2="1536.054565" y2="1194.959961" style="stroke: green; stroke-width: 0.200000"/>
  <line x1="1423.945435" y1="1172.149536" x2="1536.054565" y2="1193.941406" style="stroke: green; stroke-width: 0.200000"/>
  <line x1="1423.945435" y1="1171.130859" x2="1536.054565" y2="1192.922607" style="stroke: green; stroke-width: 0.200000"/>
  <line x1="1423.945435" y1="1170.112183" x2="1536.054565" y2="1191.903931" style="stroke: green; stroke-width: 0.200000"/>
  <line x1="1423.945435" y1="1169.093384" x2="1536.054565" y2="1190.885132" style="stroke: green; stroke-width: 0.200000"/>
  <line x1="1423.945435" y1="1168.074707" x2="1536.054565" y2="1189.866455" style="stroke: green; stroke-width: 0.200000"/>
  <line x1="1423.945435" y1="1167.055908" x2="1536.054565" y2="1188.847778" style="stroke: green; stroke-width: 0.200000"/>
  <line x1="1423.945435" y1="1166.037354" x2="1536.054565" y2="1187.829102" style="stroke: green; stroke-width: 0.200000"/>
  <line x1="1423.945435" y1="1165.018555" x2="1536.054565" y2="1186.810303" style="stroke: green; stroke-width: 0.200000"/>
  <line x1="1423.945435" y1="1163.999756" x2="1536.054565" y2="1185.791626" style="stroke: green; stroke-width: 0.200000"/>
  <line x1="1423.945435" y1="1162.981079" x2="1536.054565" y2="1184.772827" style="stroke: green; stroke-width: 0.200000"/>
  <line x1="1423.945435" y1="1161.962402" x2="1536.054565" y2="1183.754150" style="stroke: green; stroke-width: 0.200000"/>
  <line x1="1423.945435" y1="1160.943726" x2="1536.054565" y2="1182.735474" style="stroke: green; stroke-width: 0.200000"/>
  <line x1="1423.945435" y1="1159.924927" x2="1536.054565" y2="1181.716797" style="stroke: green; stroke-width: 0.200000"/>
  <line x1="1423.945435" y1="1158.906250" x2="1536.054565" y2="1180.697998" style="stroke: green; stroke-width: 0.200000"/>
  <line x1="1423.945435" y1="1157.887451" x2="1536.054565" y2="1179.679199" style="stroke: green; stroke-width: 0.200000"/>
  <line x1="1423.945435" y1="1156.868774" x2="1536.054565" y2="1178.660645" style="stroke: green; stroke-width: 0.200000"/>
  <line x1="1423.945435" y1="1155.850098" x2="1536.054565" y2="1177.641846" style="stroke: green; stroke-width: 0.200000"/>
  <line x1="1423.945435" y1="1154.831421" x2="1536.054565" y2="1176.623169" style="stroke: green; stroke-width: 0.200000"/>
  <line x1="1423.945435" y1="1153.812622" x2="1536.054565" y2="1175.604370" style="stroke: green; stroke-width: 0.200000"/>
  <line x1="1423.945435" y1="1152.793945" x2="1536.054565" y2="1174.585693" style="stroke: green; stroke-width: 0.200000"/>
  <line x1="1423.945435" y1="1151.775146" x2="1536.054565" y2="1173.567017" style="stroke: green; stroke-width: 0.200000"/>
  <line x1="1423.945435" y1="1150.756592" x2="1536.054565" y2="1172.548340" style="stroke: green; stroke-width: 0.200000"/>
  <line x1="1423.945435" y1="1149.737793" x2="1536.054565" y2="1171.529541" style="stroke: green; stroke-width: 0.200000"/>
  <line x1="1423.945435" y1="1148.718994" x2="1536.054565" y2="1170.510864" style="stroke: green; stroke-width: 0.200000"/>
  <line x1="1423.945435" y1="1147.700317" x2="1536.054565" y2="1169.492065" style="stroke: green; stroke-width: 0.200000"/>
  <line x1="1423.945435" y1="1146.681641" x2="1536.054565" y2="1168.473389" style="stroke: green; stroke-width: 0.200000"/>
  <line x1="1423.945435" y1="1145.662964" x2="1536.054565" y2="1167.454712" style="stroke: green; stroke-width: 0.200000"/>
  <line x1="1423.945435" y1="1144.644165" x2="1536.054565" y2="1166.436035" style="stroke: green; stroke-width: 0.200000"/>
  <line x1="1423.945435" y1="1143.625488" x2="1536.054565" y2="1165.417236" style="stroke: green; stroke-width: 0.200000"/>
  <line x1="1423.945435" y1="1142.606689" x2="1536.054565" y2="1164.398438" style="stroke: green; stroke-width: 0.200000"/>
  <line x1="1423.945435" y1="1141.588013" x2="1536.054565" y2="1163.379883" style="stroke: green; stroke-width: 0.200000"/>
  <line x1="1423.945435" y1="1140.569336" x2="1536.054565" y2="1162.361084" style="stroke: green; stroke-width: 0.200000"/>
  <line x1="1423.945435" y1="1139.550659" x2="1536.054565" y2="1161.342407" style="stroke: green; stroke-width: 0.200000"/>
  <line x1="1423.945435" y1="1138.531860" x2="1536.054565" y2="1160.323608" style="stroke: green; stroke-width: 0.200000"/>
  <line x1="1423.945435" y1="1137.513184" x2="1536.054565" y2="1159.304932" style="stroke: green; stroke-width: 0.200000"/>
  <line x1="1423.945435" y1="1136.494385" x2="1536.054565" y2="1158.286255" style="stroke: green; stroke-width: 0.200000"/>
  <line x1="1423.945435" y1="1135.475830" x2="1536.054565" y2="1157.267578" style="stroke: green; stroke-width: 0.200000"/>
  <line x1="1423.945435" y1="1134.457031" x2="1536.054565" y2="1156.248779" style="stroke: green; stroke-width: 0.200000"/>
  <line x1="1423.945435" y1="1133.438232" x2="1536.054565" y2="1155.230103" style="stroke: green; stroke-width: 0.200000"/>
  <line x1="1423.945435" y1="1132.419556" x2="1536.054565" y2="1154.211304" style="stroke: green; stroke-width: 0.200000"/>
  <line x1="1423.945435" y1="1131.400879" x2="1536.054565" y2="1153.192627" style="stroke: green; stroke-width: 0.200000"/>
  <line x1="1423.945435" y1="1130.382202" x2="1536.054565" y2="1152.173950" style="stroke: green; stroke-width: 0.200000"/>
  <line x1="1423.945435" y1="1129.363403" x2="1536.054565" y2="1151.155273" style="stroke: green; stroke-width: 0.200000"/>
  <line x1="1423.945435" y1="1128.344727" x2="1536.054565" y2="1150.136475" style="stroke: green; stroke-width: 0.200000"/>
  <line x1="1423.945435" y1="1127.326050" x2="1536.054565" y2="1149.117798" style="stroke: green; stroke-width: 0.200000"/>
  <line x1="1423.945435" y1="1126.307251" x2="1536.054565" y2="1148.099121" style="stroke: green; stroke-width: 0.200000"/>
  <line x1="1423.945435" y1="1125.288574" x2="1536.054565" y2="1147.080322" style="stroke: green; stroke-width: 0.200000"/>
  <line x1="1423.945435" y1="1124.269897" x2="1536.054565" y2="1146.061646" style="stroke: green; stroke-width: 0.200000"/>
  <line x1="1423.945435" y1="1123.251221" x2="1536.054565" y2="1145.042969" style="stroke: green; stroke-width: 0.200000"/>
  <line x1="1423.945435" y1="1122.232422" x2="1536.054565" y2="1144.024170" style="stroke: green; stroke-width: 0.200000"/>
  <line x1="1423.945435" y1="1121.213623" x2="1536.054565" y2="1143.005493" style="stroke: green; stroke-width: 0.200000"/>
  <line x1="1423.945435" y1="1120.195068" x2="1536.054565" y2="1141.986816" style="stroke: green; stroke-width: 0.200000"/>
  <line x1="1423.945435" y1="1119.176270" x2="1536.054565" y2="1140.968140" style="stroke: green; stroke-width: 0.200000"/>
  <line x1="1423.945435" y1="1118.157593" x2="1536.054565" y2="1139.949341" style="stroke: green; stroke-width: 0.200000"/>
  <line x1="1423.945435" y1="1117.138794" x2="1536.054565" y2="1138.930664" style="stroke: green; stroke-width: 0.200000"/>
  <line x1="1423.945435" y1="1116.120117" x2="1536.054565" y2="1137.911865" style="stroke: green; stroke-width: 0.200000"/>
  <line x1="1423.945435" y1="1115.101440" x2="1536.054565" y2="1136.893188" style="stroke: green; stroke-width: 0.200000"/>
  <line x1="1423.945435" y1="1114.082764" x2="1536.054565" y2="1135.874512" style="stroke: green; stroke-width: 0.200000"/>
  <line x1="1423.945435" y1="1113.063965" x2="1536.054565" y2="1134.855713" style="stroke: green; stroke-width: 0.200000"/>
  <line x1="1423.945435" y1="1112.045288" x2="1536.054565" y2="1133.837036" style="stroke: green; stroke-width: 0.200000"/>
  <line x1="1423.945435" y1="1111.026489" x2="1536.054565" y2="1132.818359" style="stroke: green; stroke-width: 0.200000"/>
  <line x1="1423.945435" y1="1110.007812" x2="1536.054565" y2="1131.799561" style="stroke: green; stroke-width: 0.200000"/>
  <line x1="1423.945435" y1="1108.989136" x2="1536.054565" y2="1130.780884" style="stroke: green; stroke-width: 0.200000"/>
  <line x1="1423.945435" y1="1107.970459" x2="1536.054565" y2="1129.762207" style="stroke: green; stroke-width: 0.200000"/>
  <line x1="1423.945435" y1="1106.951660" x2="1536.054565" y2="1128.743408" style="stroke: green; stroke-width: 0.200000"/>
  <line x1="1423.945435" y1="1105.932861" x2="1536.054565" y2="1127.724731" style="stroke: green; stroke-width: 0.200000"/>
  <line x1="1423.945435" y1="1104.914307" x2="1536.054565" y2="1126.706055" style="stroke: green; stroke-width: 0.200000"/>
  <line x1="1423.945435" y1="1103.895508" x2="1536.054565" y2="1125.687378" style="stroke: green; stroke-width: 0.200000"/>
  <line x1="1423.945435" y1="1102.876831" x2="1536.054565" y2="1124.668579" style="stroke: green; stroke-width: 0.200000"/>
  <line x1="1423.945435" y1="1101.858032" x2="1536.054565" y2="1123.649902" style="stroke: green; stroke-width: 0.200000"/>
  <line x1="1423.945435" y1="1100.839355" x2="1536.054565" y2="1122.631104" style="stroke: green; stroke-width: 0.200000"/>
  <line x1="1423.945435" y1="1099.820679" x2="1536.054565" y2="1121.612427" style="stroke: green; stroke-width: 0.200000"/>
  <line x1="1423.945435" y1="1098.802002" x2="1536.054565" y2="1120.593750" style="stroke: green; stroke-width: 0.200000"/>
  <line x1="1423.945435" y1="1097.783203" x2="1536.054565" y2="1119.575073" style="stroke: green; stroke-width: 0.200000"/>
  <line x1="1423.945435" y1="1096.764526" x2="1536.054565" y2="1118.556274" style="stroke: green; stroke-width: 0.200000"/>
  <line x1="1423.945435" y1="1095.745728" x2="1536.054565" y2="1117.537598" style="stroke: green; stroke-width: 0.200000"/>
  <line x1="1423.945435" y1="1094.727051" x2="1536.054565" y2="1116.518799" style="stroke: green; stroke-width: 0.200000"/>
  <line x1="1423.945435" y1="1093.708374" x2="1536.054565" y2="1115.500244" style="stroke: green; stroke-width: 0.200000"/>
  <line x1="1423.945435" y1="1092.689697" x2="1536.054565" y2="1114.481445" style="stroke: green; stroke-width: 0.200000"/>
  <line x1="1423.945435" y1="1091.670898" x2="1536.054565" y2="1113.462769" style="stroke: green; stroke-width: 0.200000"/>
  <line x1="1423.945435" y1="1090.652222" x2="1536.054565" y2="1112.443970" style="stroke: green; stroke-width: 0.200000"/>
  <line x1="1423.945435" y1="1089.633545" x2="1536.054565" y2="1111.425293" style="stroke: green; stroke-width: 0.200000"/>
  <line x1="1423.945435" y1="1088.614746" x2="1536.054565" y2="1110.406616" style="stroke: green; stroke-width: 0.200000"/>
  <line x1="1423.945435" y1="1087.596069" x2="1536.054565" y2="1109.387817" style="stroke: green; stroke-width: 0.200000"/>
  <line x1="1423.945435" y1="1086.577393" x2="1536.054565" y2="1108.369141" style="stroke: green; stroke-width: 0.200000"/>
  <line x1="1423.945435" y1="1085.558594" x2="1536.054565" y2="1107.350342" style="stroke: green; stroke-width: 0.200000"/>
  <line x1="1423.945435" y1="1084.539917" x2="1536.054565" y2="1106.331665" style="stroke: green; stroke-width: 0.200000"/>
  <line x1="1423.945435" y1="1083.521240" x2="1536.054565" y2="1105.312988" style="stroke: green; stroke-width: 0.200000"/>
  <line x1="1423.945435" y1="1082.502441" x2="1536.054565" y2="1104.294312" style="stroke: green; stroke-width: 0.200000"/>
  <line x1="1423.945435" y1="1081.483765" x2="1536.054565" y2="1103.275513" style="stroke: green; stroke-width: 0.200000"/>
  <line x1="1423.945435" y1="1080.465088" x2="1536.054565" y2="1102.256836" style="stroke: green; stroke-width: 0.200000"/>
  <line x1="1423.945435" y1="1079.446289" x2="1536.054565" y2="1101.238037" style="stroke: green; stroke-width: 0.200000"/>
  <line x1="1423.945435" y1="1078.427612" x2="1536.054565" y2="1100.219482" style="stroke: green; stroke-width: 0.200000"/>
  <line x1="1423.945435" y1="1077.408936" x2="1536.054565" y2="1099.200684" style="stroke: green; stroke-width: 0.200000"/>
  <line x1="1423.945435" y1="1076.390137" x2="1536.054565" y2="1098.182007" style="stroke: green; stroke-width: 0.200000"/>
  <line x1="1423.945435" y1="1075.371460" x2="1536.054565" y2="1097.163208" style="stroke: green; stroke-width: 0.200000"/>
  <line x1="1423.945435" y1="1074.352783" x2="1536.054565" y2="1096.144531" style="stroke: green; stroke-width: 0.200000"/>
  <line x1="1423.945435" y1="1073.333984" x2="1536.054565" y2="1095.125854" style="stroke: green; stroke-width: 0.200000"/>
  <line x1="1423.945435" y1="1072.315308" x2="1536.054565" y2="1094.107178" style="stroke: green; stroke-width: 0.200000"/>
  <line x1="1423.945435" y1="1071.296631" x2="1536.054565" y2="1093.088379" style="stroke: green; stroke-width: 0.200000"/>
  <line x1="1423.945435" y1="1070.277832" x2="1536.054565" y2="1092.069702" style="stroke: green; stroke-width: 0.200000"/>
  <line x1="1423.945435" y1="1069.259155" x2="1536.054565" y2="1091.050903" style="stroke: green; stroke-width: 0.200000"/>
  <line x1="1423.945435" y1="1068.240479" x2="1536.054565" y2="1090.032227" style="stroke: green; stroke-width: 0.200000"/>
  <line x1="1423.945435" y1="1067.221680" x2="1536.054565" y2="1089.013550" style="stroke: green; stroke-width: 0.200000"/>
  <line x1="1423.945435" y1="1066.203003" x2="1536.054565" y2="1087.994873" style="stroke: green; stroke-width: 0.200000"/>
  <line x1="1423.945435" y1="1065.184326" x2="1536.054565" y2="1086.976074" style="stroke: green; stroke-width: 0.200000"/>
  <line x1="1423.945435" y1="1064.165527" x2="1536.054565" y2="1085.957275" style="stroke: green; stroke-width: 0.200000"/>
  <line x1="1423.945435" y1="1063.146851" x2="1536.054565" y2="1084.938721" style="stroke: green; stroke-width: 0.200000"/>
  <line x1="1423.945435" y1="1062.128174" x2="1536.054565" y2="1083.919922" style="stroke: green; stroke-width: 0.200000"/>
  <line x1="1423.945435" y1="1061.109375" x2="1536.054565" y2="1082.901245" style="stroke: green; stroke-width: 0.200000"/>
  <line x1="1423.945435" y1="1060.090698" x2="1536.054565" y2="1081.882446" style="stroke: green; stroke-width: 0.200000"/>
  <line x1="1428.719604" y1="1060.000000" x2="1536.054565" y2="1080.863770" style="stroke: green; stroke-width: 0.200000"/>
  <line x1="1433.960571" y1="1060.000000" x2="1536.054565" y2="1079.845093" style="stroke: green; stroke-width: 0.200000"/>
  <line x1="1439.201416" y1="1060.000000" x2="1536.054565" y2="1078.826416" style="stroke: green; stroke-width: 0.200000"/>
  <line x1="1444.442139" y1="1060.000000" x2="1536.054565" y2="1077.807617" style="stroke: green; stroke-width: 0.200000"/>
  <line x1="1449.683105" y1="1060.000000" x2="1536.054565" y2="1076.788940" style="stroke: green; stroke-width: 0.200000"/>
  <line x1="1454.923828" y1="1060.000000" x2="1536.054565" y2="1075.770142" style="stroke: green; stroke-width: 0.200000"/>
  <line x1="1460.164795" y1="1060.000000" x2="1536.054565" y2="1074.751465" style="stroke: green; stroke-width: 0.200000"/>
  <line x1="1465.405518" y1="1060.000000" x2="1536.054565" y2="1073.732788" style="stroke: green; stroke-width: 0.200000"/>
  <line x1="1470.646362" y1="1060.000000" x2="1536.054565" y2="1072.714111" style="stroke: green; stroke-width: 0.200000"/>
  <line x1="1475.887207" y1="1060.000000" x2="1536.054565" y2="1071.695312" style="stroke: green; stroke-width: 0.200000"/>
  <line x1="1481.128052" y1="1060.000000" x2="1536.054565" y2="1070.676636" style="stroke: green; stroke-width: 0.200000"/>
  <line x1="1486.368896" y1="1060.000000" x2="1536.054565" y2="1069.657959" style="stroke: green; stroke-width: 0.200000"/>
  <line x1="1491.609863" y1="1060.000000" x2="1536.054565" y2="1068.639160" style="stroke: green; stroke-width: 0.200000"/>
  <line x1="1496.850586" y1="1060.000000" x2="1536.054565" y2="1067.620483" style="stroke: green; stroke-width: 0.200000"/>
  <line x1="1502.091309" y1="1060.000000" x2="1536.054565" y2="1066.601807" style="stroke: green; stroke-width: 0.200000"/>
  <line x1="1507.332275" y1="1060.000000" x2="1536.054565" y2="1065.583008" style="stroke: green; stroke-width: 0.200000"/>
  <line x1="1512.573120" y1="1060.000000" x2="1536.054565" y2="1064.564331" style="stroke: green; stroke-width: 0.200000"/>
  <line x1="1517.813965" y1="1060.000000" x2="1536.054565" y2="1063.545654" style="stroke: green; stroke-width: 0.200000"/>
  <line x1="1523.054810" y1="1060.000000" x2="1536.054565" y2="1062.526855" style="stroke: green; stroke-width: 0.200000"/>
  <line x1="1528.295654" y1="1060.000000" x2="1536.054565" y2="1061.508179" style="stroke: green; stroke-width: 0.200000"/>
  <line x1="1533.536499" y1="1060.000000" x2="1536.054565" y2="1060.489380" style="stroke: green; stroke-width: 0.200000"/>
  <path d="M 1536.05  1410  1423.95  1410  1423.95  1060  1536.05  1060  1536.05  1410  " style="fill: none; stroke: black; stroke-width: 0.200000; fill-type: evenodd"  fill-opacity="1.000000" />
</svg>
