<?xml version="1.0" encoding="UTF-8" standalone="yes"?>
<svg xmlns="http://www.w3.org/2000/svg"
     xmlns:xlink="http://www.w3.org/1999/xlink"
     width="2020.0000mm" height="1600.0000mm"
     viewBox="0 0 202.000000 160.000000">
  <!--
    Build plate : 150.00 x 150.00 mm
    Coordinate  : 1 SVG unit = 1 mm
    Display zoom: 10x  (width/height = viewBox x 10)
    Hatch stroke: 0.04 mm = ~28 mm on screen at this zoom
    Legend panel: right margin (42 mm wide)
  -->
  <defs>
    <marker id="endArrow" markerWidth="2" markerHeight="1.4"
            refX="0" refY="0.7" orient="auto"
            markerUnits="strokeWidth">
      <polyline fill="darkblue" points="0,0 2,0.7 0,1.4 0.2,0.7"/>
    </marker>
  </defs>
  <!-- Background -->
  <rect x="0" y="0" width="202.000000" height="160.000000" fill="#f0f0f0" stroke="none"/>
  <!-- Build plate boundary (150 x 150 mm) -->
  <rect x="5.000000" y="5.000000" width="150.000000" height="150.000000"
        fill="#ffffff" stroke="#aaaaaa" stroke-width="0.2" stroke-dasharray="1,0.5"/>
  <!-- Build plate centre circle (r = 75.00 mm) -->
  <circle cx="80.000000" cy="80.000000" r="75.000000"
          fill="none" stroke="#bbbbbb" stroke-width="0.15" stroke-dasharray="0.8,0.4"/>
  <!-- Centre cross-hair -->
  <line x1="5.000000" y1="80.000000" x2="155.000000" y2="80.000000" stroke="#cccccc" stroke-width="0.1"/>
  <line x1="80.000000" y1="5.000000" x2="80.000000" y2="155.000000" stroke="#cccccc" stroke-width="0.1"/>
  <circle cx="80.000000" cy="80.000000" r="0.3" fill="#cccccc" stroke="none"/>
  <!-- Corner labels -->
  <text x="5.400000" y="4.600000" font-family="sans-serif" font-size="2" fill="#888888">0,0</text>
  <text x="154.600006" y="4.600000" font-family="sans-serif" font-size="2" fill="#888888" text-anchor="end">150,0</text>
  <text x="5.400000" y="157.199997" font-family="sans-serif" font-size="2" fill="#888888">0,150</text>
  <!-- Layer geometry -->
  <g id="geometry">
    <line x1="123.69927" y1="88.97424" x2="136.32379" y2="76.34972" stroke="green" stroke-width="0.04000"/>
    <line x1="123.84069" y1="88.97424" x2="136.32379" y2="76.49113" stroke="green" stroke-width="0.04000"/>
    <line x1="123.98211" y1="88.97424" x2="136.32379" y2="76.63255" stroke="green" stroke-width="0.04000"/>
    <line x1="124.12354" y1="88.97424" x2="136.32379" y2="76.77397" stroke="green" stroke-width="0.04000"/>
    <line x1="124.26495" y1="88.97424" x2="136.32379" y2="76.91539" stroke="green" stroke-width="0.04000"/>
    <line x1="124.40638" y1="88.97424" x2="136.32379" y2="77.05682" stroke="green" stroke-width="0.04000"/>
    <line x1="124.54780" y1="88.97424" x2="136.32379" y2="77.19824" stroke="green" stroke-width="0.04000"/>
    <line x1="124.68922" y1="88.97424" x2="136.32379" y2="77.33967" stroke="green" stroke-width="0.04000"/>
    <line x1="124.83064" y1="88.97424" x2="136.32379" y2="77.48109" stroke="green" stroke-width="0.04000"/>
    <line x1="124.97206" y1="88.97424" x2="136.32379" y2="77.62251" stroke="green" stroke-width="0.04000"/>
    <line x1="125.11349" y1="88.97424" x2="136.32379" y2="77.76393" stroke="green" stroke-width="0.04000"/>
    <line x1="125.25491" y1="88.97424" x2="136.32379" y2="77.90535" stroke="green" stroke-width="0.04000"/>
    <line x1="125.39632" y1="88.97424" x2="136.32379" y2="78.04677" stroke="green" stroke-width="0.04000"/>
    <line x1="125.53774" y1="88.97424" x2="136.32379" y2="78.18819" stroke="green" stroke-width="0.04000"/>
    <line x1="125.67917" y1="88.97424" x2="136.32379" y2="78.32961" stroke="green" stroke-width="0.04000"/>
    <line x1="125.82059" y1="88.97424" x2="136.32379" y2="78.47104" stroke="green" stroke-width="0.04000"/>
    <line x1="125.96201" y1="88.97424" x2="136.32379" y2="78.61246" stroke="green" stroke-width="0.04000"/>
    <line x1="126.10343" y1="88.97424" x2="136.32379" y2="78.75388" stroke="green" stroke-width="0.04000"/>
    <line x1="126.24485" y1="88.97424" x2="136.32379" y2="78.89530" stroke="green" stroke-width="0.04000"/>
    <line x1="126.38628" y1="88.97424" x2="136.32379" y2="79.03672" stroke="green" stroke-width="0.04000"/>
    <line x1="126.52769" y1="88.97424" x2="136.32379" y2="79.17814" stroke="green" stroke-width="0.04000"/>
    <line x1="126.66912" y1="88.97424" x2="136.32379" y2="79.31956" stroke="green" stroke-width="0.04000"/>
    <line x1="126.81054" y1="88.97424" x2="136.32379" y2="79.46098" stroke="green" stroke-width="0.04000"/>
    <line x1="126.95196" y1="88.97424" x2="136.32379" y2="79.60240" stroke="green" stroke-width="0.04000"/>
    <line x1="127.09338" y1="88.97424" x2="136.32379" y2="79.74382" stroke="green" stroke-width="0.04000"/>
    <line x1="127.23480" y1="88.97424" x2="136.32379" y2="79.88524" stroke="green" stroke-width="0.04000"/>
    <line x1="127.37623" y1="88.97424" x2="136.32379" y2="80.02667" stroke="green" stroke-width="0.04000"/>
    <line x1="127.51765" y1="88.97424" x2="136.32379" y2="80.16809" stroke="green" stroke-width="0.04000"/>
    <line x1="127.65907" y1="88.97424" x2="136.32379" y2="80.30951" stroke="green" stroke-width="0.04000"/>
    <line x1="127.80048" y1="88.97424" x2="136.32379" y2="80.45093" stroke="green" stroke-width="0.04000"/>
    <line x1="127.94191" y1="88.97424" x2="136.32379" y2="80.59235" stroke="green" stroke-width="0.04000"/>
    <line x1="128.08334" y1="88.97424" x2="136.32379" y2="80.73378" stroke="green" stroke-width="0.04000"/>
    <line x1="128.22476" y1="88.97424" x2="136.32379" y2="80.87520" stroke="green" stroke-width="0.04000"/>
    <line x1="128.36618" y1="88.97424" x2="136.32379" y2="81.01662" stroke="green" stroke-width="0.04000"/>
    <line x1="128.50760" y1="88.97424" x2="136.32379" y2="81.15804" stroke="green" stroke-width="0.04000"/>
    <line x1="128.64902" y1="88.97424" x2="136.32379" y2="81.29945" stroke="green" stroke-width="0.04000"/>
    <line x1="128.79044" y1="88.97424" x2="136.32379" y2="81.44089" stroke="green" stroke-width="0.04000"/>
    <line x1="128.93185" y1="88.97424" x2="136.32379" y2="81.58231" stroke="green" stroke-width="0.04000"/>
    <line x1="129.07327" y1="88.97424" x2="136.32379" y2="81.72372" stroke="green" stroke-width="0.04000"/>
    <line x1="129.21469" y1="88.97424" x2="136.32379" y2="81.86514" stroke="green" stroke-width="0.04000"/>
    <line x1="129.35612" y1="88.97424" x2="136.32379" y2="82.00657" stroke="green" stroke-width="0.04000"/>
    <line x1="129.49754" y1="88.97424" x2="136.32379" y2="82.14799" stroke="green" stroke-width="0.04000"/>
    <line x1="129.63898" y1="88.97424" x2="136.32379" y2="82.28941" stroke="green" stroke-width="0.04000"/>
    <line x1="129.78040" y1="88.97424" x2="136.32379" y2="82.43083" stroke="green" stroke-width="0.04000"/>
    <line x1="129.92181" y1="88.97424" x2="136.32379" y2="82.57225" stroke="green" stroke-width="0.04000"/>
    <line x1="130.06323" y1="88.97424" x2="136.32379" y2="82.71367" stroke="green" stroke-width="0.04000"/>
    <line x1="130.20465" y1="88.97424" x2="136.32379" y2="82.85509" stroke="green" stroke-width="0.04000"/>
    <line x1="130.34607" y1="88.97424" x2="136.32379" y2="82.99652" stroke="green" stroke-width="0.04000"/>
    <line x1="130.48749" y1="88.97424" x2="136.32379" y2="83.13794" stroke="green" stroke-width="0.04000"/>
    <line x1="130.62891" y1="88.97424" x2="136.32379" y2="83.27936" stroke="green" stroke-width="0.04000"/>
    <line x1="130.77032" y1="88.97424" x2="136.32379" y2="83.42078" stroke="green" stroke-width="0.04000"/>
    <line x1="130.91176" y1="88.97424" x2="136.32379" y2="83.56220" stroke="green" stroke-width="0.04000"/>
    <line x1="131.05319" y1="88.97424" x2="136.32379" y2="83.70362" stroke="green" stroke-width="0.04000"/>
    <line x1="131.19461" y1="88.97424" x2="136.32379" y2="83.84505" stroke="green" stroke-width="0.04000"/>
    <line x1="131.33603" y1="88.97424" x2="136.32379" y2="83.98647" stroke="green" stroke-width="0.04000"/>
    <line x1="131.47745" y1="88.97424" x2="136.32379" y2="84.12788" stroke="green" stroke-width="0.04000"/>
    <line x1="131.61887" y1="88.97424" x2="136.32379" y2="84.26930" stroke="green" stroke-width="0.04000"/>
    <line x1="131.76028" y1="88.97424" x2="136.32379" y2="84.41073" stroke="green" stroke-width="0.04000"/>
    <line x1="131.90170" y1="88.97424" x2="136.32379" y2="84.55215" stroke="green" stroke-width="0.04000"/>
    <line x1="132.04312" y1="88.97424" x2="136.32379" y2="84.69357" stroke="green" stroke-width="0.04000"/>
    <line x1="132.18454" y1="88.97424" x2="136.32379" y2="84.83499" stroke="green" stroke-width="0.04000"/>
    <line x1="132.32597" y1="88.97424" x2="136.32379" y2="84.97642" stroke="green" stroke-width="0.04000"/>
    <line x1="132.46739" y1="88.97424" x2="136.32379" y2="85.11784" stroke="green" stroke-width="0.04000"/>
    <line x1="132.60883" y1="88.97424" x2="136.32379" y2="85.25925" stroke="green" stroke-width="0.04000"/>
    <line x1="132.75024" y1="88.97424" x2="136.32379" y2="85.40068" stroke="green" stroke-width="0.04000"/>
    <line x1="132.89166" y1="88.97424" x2="136.32379" y2="85.54210" stroke="green" stroke-width="0.04000"/>
    <line x1="133.03308" y1="88.97424" x2="136.32379" y2="85.68352" stroke="green" stroke-width="0.04000"/>
    <line x1="133.17450" y1="88.97424" x2="136.32379" y2="85.82494" stroke="green" stroke-width="0.04000"/>
    <line x1="133.31592" y1="88.97424" x2="136.32379" y2="85.96637" stroke="green" stroke-width="0.04000"/>
    <line x1="133.45735" y1="88.97424" x2="136.32379" y2="86.10780" stroke="green" stroke-width="0.04000"/>
    <line x1="133.59877" y1="88.97424" x2="136.32379" y2="86.24921" stroke="green" stroke-width="0.04000"/>
    <line x1="133.74019" y1="88.97424" x2="136.32379" y2="86.39062" stroke="green" stroke-width="0.04000"/>
    <line x1="133.88161" y1="88.97424" x2="136.32379" y2="86.53205" stroke="green" stroke-width="0.04000"/>
    <line x1="134.02303" y1="88.97424" x2="136.32379" y2="86.67347" stroke="green" stroke-width="0.04000"/>
    <line x1="134.16444" y1="88.97424" x2="136.32379" y2="86.81490" stroke="green" stroke-width="0.04000"/>
    <line x1="134.30586" y1="88.97424" x2="136.32379" y2="86.95631" stroke="green" stroke-width="0.04000"/>
    <line x1="134.44728" y1="88.97424" x2="136.32379" y2="87.09773" stroke="green" stroke-width="0.04000"/>
    <line x1="134.58871" y1="88.97424" x2="136.32379" y2="87.23915" stroke="green" stroke-width="0.04000"/>
    <line x1="134.73013" y1="88.97424" x2="136.32379" y2="87.38057" stroke="green" stroke-width="0.04000"/>
    <line x1="134.87155" y1="88.97424" x2="136.32379" y2="87.52200" stroke="green" stroke-width="0.04000"/>
    <line x1="135.01299" y1="88.97424" x2="136.32379" y2="87.66342" stroke="green" stroke-width="0.04000"/>
    <line x1="135.15440" y1="88.97424" x2="136.32379" y2="87.80484" stroke="green" stroke-width="0.04000"/>
    <line x1="135.29582" y1="88.97424" x2="136.32379" y2="87.94627" stroke="green" stroke-width="0.04000"/>
    <line x1="135.43724" y1="88.97424" x2="136.32379" y2="88.08768" stroke="green" stroke-width="0.04000"/>
    <line x1="135.57866" y1="88.97424" x2="136.32379" y2="88.22910" stroke="green" stroke-width="0.04000"/>
    <line x1="135.72008" y1="88.97424" x2="136.32379" y2="88.37053" stroke="green" stroke-width="0.04000"/>
    <line x1="135.86150" y1="88.97424" x2="136.32379" y2="88.51195" stroke="green" stroke-width="0.04000"/>
    <line x1="136.00291" y1="88.97424" x2="136.32379" y2="88.65337" stroke="green" stroke-width="0.04000"/>
    <line x1="136.14435" y1="88.97424" x2="136.32379" y2="88.79478" stroke="green" stroke-width="0.04000"/>
    <line x1="136.28577" y1="88.97424" x2="136.32379" y2="88.93622" stroke="green" stroke-width="0.04000"/>
    <line x1="123.62379" y1="88.90829" x2="136.32379" y2="76.20829" stroke="green" stroke-width="0.04000"/>
    <line x1="123.62379" y1="88.76688" x2="136.32379" y2="76.06687" stroke="green" stroke-width="0.04000"/>
    <line x1="123.62379" y1="88.62545" x2="136.32379" y2="75.92545" stroke="green" stroke-width="0.04000"/>
    <line x1="123.62379" y1="88.48403" x2="136.32379" y2="75.78403" stroke="green" stroke-width="0.04000"/>
    <line x1="123.62379" y1="88.34261" x2="136.32379" y2="75.64261" stroke="green" stroke-width="0.04000"/>
    <line x1="123.62379" y1="88.20119" x2="136.32379" y2="75.50119" stroke="green" stroke-width="0.04000"/>
    <line x1="123.62379" y1="88.05977" x2="136.32379" y2="75.35976" stroke="green" stroke-width="0.04000"/>
    <line x1="123.62379" y1="87.91834" x2="136.32379" y2="75.21834" stroke="green" stroke-width="0.04000"/>
    <line x1="123.62379" y1="87.77692" x2="136.32379" y2="75.07692" stroke="green" stroke-width="0.04000"/>
    <line x1="123.62379" y1="87.63551" x2="136.32379" y2="74.93549" stroke="green" stroke-width="0.04000"/>
    <line x1="123.62379" y1="87.49409" x2="136.32379" y2="74.79408" stroke="green" stroke-width="0.04000"/>
    <line x1="123.62379" y1="87.35266" x2="136.32379" y2="74.65266" stroke="green" stroke-width="0.04000"/>
    <line x1="123.62379" y1="87.21124" x2="136.32379" y2="74.51124" stroke="green" stroke-width="0.04000"/>
    <line x1="123.62379" y1="87.06982" x2="136.32379" y2="74.36982" stroke="green" stroke-width="0.04000"/>
    <line x1="123.62379" y1="86.92840" x2="136.32379" y2="74.22839" stroke="green" stroke-width="0.04000"/>
    <line x1="123.62379" y1="86.78698" x2="136.32379" y2="74.08698" stroke="green" stroke-width="0.04000"/>
    <line x1="123.62379" y1="86.64555" x2="136.32379" y2="73.94554" stroke="green" stroke-width="0.04000"/>
    <line x1="123.62379" y1="86.50414" x2="136.32379" y2="73.80412" stroke="green" stroke-width="0.04000"/>
    <line x1="123.62379" y1="86.36271" x2="136.32379" y2="73.66270" stroke="green" stroke-width="0.04000"/>
    <line x1="123.62379" y1="86.22129" x2="136.32379" y2="73.52129" stroke="green" stroke-width="0.04000"/>
    <line x1="123.62379" y1="86.07987" x2="136.32379" y2="73.37987" stroke="green" stroke-width="0.04000"/>
    <line x1="123.62379" y1="85.93845" x2="136.32379" y2="73.23844" stroke="green" stroke-width="0.04000"/>
    <line x1="123.62379" y1="85.79703" x2="136.32379" y2="73.09702" stroke="green" stroke-width="0.04000"/>
    <line x1="123.62379" y1="85.65560" x2="136.32379" y2="72.95560" stroke="green" stroke-width="0.04000"/>
    <line x1="123.62379" y1="85.51418" x2="136.32379" y2="72.81418" stroke="green" stroke-width="0.04000"/>
    <line x1="123.62379" y1="85.37276" x2="136.32379" y2="72.67276" stroke="green" stroke-width="0.04000"/>
    <line x1="123.62379" y1="85.23135" x2="136.32379" y2="72.53134" stroke="green" stroke-width="0.04000"/>
    <line x1="123.62379" y1="85.08992" x2="136.24831" y2="72.46540" stroke="green" stroke-width="0.04000"/>
    <line x1="123.62379" y1="84.94849" x2="136.10687" y2="72.46540" stroke="green" stroke-width="0.04000"/>
    <line x1="123.62379" y1="84.80708" x2="135.96545" y2="72.46540" stroke="green" stroke-width="0.04000"/>
    <line x1="123.62379" y1="84.66566" x2="135.82404" y2="72.46540" stroke="green" stroke-width="0.04000"/>
    <line x1="123.62379" y1="84.52424" x2="135.68262" y2="72.46540" stroke="green" stroke-width="0.04000"/>
    <line x1="123.62379" y1="84.38281" x2="135.54120" y2="72.46540" stroke="green" stroke-width="0.04000"/>
    <line x1="123.62379" y1="84.24139" x2="135.39978" y2="72.46540" stroke="green" stroke-width="0.04000"/>
    <line x1="123.62379" y1="84.09997" x2="135.25836" y2="72.46540" stroke="green" stroke-width="0.04000"/>
    <line x1="123.62379" y1="83.95855" x2="135.11694" y2="72.46540" stroke="green" stroke-width="0.04000"/>
    <line x1="123.62379" y1="83.81713" x2="134.97552" y2="72.46540" stroke="green" stroke-width="0.04000"/>
    <line x1="123.62379" y1="83.67570" x2="134.83409" y2="72.46540" stroke="green" stroke-width="0.04000"/>
    <line x1="123.62379" y1="83.53429" x2="134.69267" y2="72.46540" stroke="green" stroke-width="0.04000"/>
    <line x1="123.62379" y1="83.39286" x2="134.55125" y2="72.46540" stroke="green" stroke-width="0.04000"/>
    <line x1="123.62379" y1="83.25144" x2="134.40982" y2="72.46540" stroke="green" stroke-width="0.04000"/>
    <line x1="123.62379" y1="83.11002" x2="134.26840" y2="72.46540" stroke="green" stroke-width="0.04000"/>
    <line x1="123.62379" y1="82.96861" x2="134.12698" y2="72.46540" stroke="green" stroke-width="0.04000"/>
    <line x1="123.62379" y1="82.82718" x2="133.98557" y2="72.46540" stroke="green" stroke-width="0.04000"/>
    <line x1="123.62379" y1="82.68575" x2="133.84415" y2="72.46540" stroke="green" stroke-width="0.04000"/>
    <line x1="123.62379" y1="82.54433" x2="133.70273" y2="72.46540" stroke="green" stroke-width="0.04000"/>
    <line x1="123.62379" y1="82.40292" x2="133.56131" y2="72.46540" stroke="green" stroke-width="0.04000"/>
    <line x1="123.62379" y1="82.26150" x2="133.41989" y2="72.46540" stroke="green" stroke-width="0.04000"/>
    <line x1="123.62379" y1="82.12007" x2="133.27846" y2="72.46540" stroke="green" stroke-width="0.04000"/>
    <line x1="123.62379" y1="81.97865" x2="133.13702" y2="72.46540" stroke="green" stroke-width="0.04000"/>
    <line x1="123.62379" y1="81.83723" x2="132.99561" y2="72.46540" stroke="green" stroke-width="0.04000"/>
    <line x1="123.62379" y1="81.69581" x2="132.85419" y2="72.46540" stroke="green" stroke-width="0.04000"/>
    <line x1="123.62379" y1="81.55439" x2="132.71277" y2="72.46540" stroke="green" stroke-width="0.04000"/>
    <line x1="123.62379" y1="81.41296" x2="132.57135" y2="72.46540" stroke="green" stroke-width="0.04000"/>
    <line x1="123.62379" y1="81.27155" x2="132.42993" y2="72.46540" stroke="green" stroke-width="0.04000"/>
    <line x1="123.62379" y1="81.13012" x2="132.28851" y2="72.46540" stroke="green" stroke-width="0.04000"/>
    <line x1="123.62379" y1="80.98870" x2="132.14709" y2="72.46540" stroke="green" stroke-width="0.04000"/>
    <line x1="123.62379" y1="80.84728" x2="132.00568" y2="72.46540" stroke="green" stroke-width="0.04000"/>
    <line x1="123.62379" y1="80.70586" x2="131.86424" y2="72.46540" stroke="green" stroke-width="0.04000"/>
    <line x1="123.62379" y1="80.56443" x2="131.72281" y2="72.46540" stroke="green" stroke-width="0.04000"/>
    <line x1="123.62379" y1="80.42301" x2="131.58139" y2="72.46540" stroke="green" stroke-width="0.04000"/>
    <line x1="123.62379" y1="80.28159" x2="131.43997" y2="72.46540" stroke="green" stroke-width="0.04000"/>
    <line x1="123.62379" y1="80.14017" x2="131.29855" y2="72.46540" stroke="green" stroke-width="0.04000"/>
    <line x1="123.62379" y1="79.99876" x2="131.15714" y2="72.46540" stroke="green" stroke-width="0.04000"/>
    <line x1="123.62379" y1="79.85733" x2="131.01572" y2="72.46540" stroke="green" stroke-width="0.04000"/>
    <line x1="123.62379" y1="79.71590" x2="130.87430" y2="72.46540" stroke="green" stroke-width="0.04000"/>
    <line x1="123.62379" y1="79.57449" x2="130.73288" y2="72.46540" stroke="green" stroke-width="0.04000"/>
    <line x1="123.62379" y1="79.43307" x2="130.59146" y2="72.46540" stroke="green" stroke-width="0.04000"/>
    <line x1="123.62379" y1="79.29165" x2="130.45004" y2="72.46540" stroke="green" stroke-width="0.04000"/>
    <line x1="123.62379" y1="79.15022" x2="130.30859" y2="72.46540" stroke="green" stroke-width="0.04000"/>
    <line x1="123.62379" y1="79.00880" x2="130.16718" y2="72.46540" stroke="green" stroke-width="0.04000"/>
    <line x1="123.62379" y1="78.86738" x2="130.02576" y2="72.46540" stroke="green" stroke-width="0.04000"/>
    <line x1="123.62379" y1="78.72596" x2="129.88434" y2="72.46540" stroke="green" stroke-width="0.04000"/>
    <line x1="123.62379" y1="78.58454" x2="129.74292" y2="72.46540" stroke="green" stroke-width="0.04000"/>
    <line x1="123.62379" y1="78.44312" x2="129.60150" y2="72.46540" stroke="green" stroke-width="0.04000"/>
    <line x1="123.62379" y1="78.30170" x2="129.46008" y2="72.46540" stroke="green" stroke-width="0.04000"/>
    <line x1="123.62379" y1="78.16027" x2="129.31866" y2="72.46540" stroke="green" stroke-width="0.04000"/>
    <line x1="123.62379" y1="78.01885" x2="129.17725" y2="72.46540" stroke="green" stroke-width="0.04000"/>
    <line x1="123.62379" y1="77.87743" x2="129.03583" y2="72.46540" stroke="green" stroke-width="0.04000"/>
    <line x1="123.62379" y1="77.73601" x2="128.89439" y2="72.46540" stroke="green" stroke-width="0.04000"/>
    <line x1="123.62379" y1="77.59458" x2="128.75296" y2="72.46540" stroke="green" stroke-width="0.04000"/>
    <line x1="123.62379" y1="77.45316" x2="128.61154" y2="72.46540" stroke="green" stroke-width="0.04000"/>
    <line x1="123.62379" y1="77.31174" x2="128.47012" y2="72.46540" stroke="green" stroke-width="0.04000"/>
    <line x1="123.62379" y1="77.17033" x2="128.32870" y2="72.46540" stroke="green" stroke-width="0.04000"/>
    <line x1="123.62379" y1="77.02891" x2="128.18729" y2="72.46540" stroke="green" stroke-width="0.04000"/>
    <line x1="123.62379" y1="76.88748" x2="128.04587" y2="72.46540" stroke="green" stroke-width="0.04000"/>
    <line x1="123.62379" y1="76.74606" x2="127.90445" y2="72.46540" stroke="green" stroke-width="0.04000"/>
    <line x1="123.62379" y1="76.60464" x2="127.76303" y2="72.46540" stroke="green" stroke-width="0.04000"/>
    <line x1="123.62379" y1="76.46322" x2="127.62160" y2="72.46540" stroke="green" stroke-width="0.04000"/>
    <line x1="123.62379" y1="76.32180" x2="127.48019" y2="72.46540" stroke="green" stroke-width="0.04000"/>
    <line x1="123.62379" y1="76.18037" x2="127.33875" y2="72.46540" stroke="green" stroke-width="0.04000"/>
    <line x1="123.62379" y1="76.03895" x2="127.19733" y2="72.46540" stroke="green" stroke-width="0.04000"/>
    <line x1="123.62379" y1="75.89753" x2="127.05592" y2="72.46540" stroke="green" stroke-width="0.04000"/>
    <line x1="123.62379" y1="75.75611" x2="126.91450" y2="72.46540" stroke="green" stroke-width="0.04000"/>
    <line x1="123.62379" y1="75.61469" x2="126.77308" y2="72.46540" stroke="green" stroke-width="0.04000"/>
    <line x1="123.62379" y1="75.47327" x2="126.63165" y2="72.46540" stroke="green" stroke-width="0.04000"/>
    <line x1="123.62379" y1="75.33185" x2="126.49023" y2="72.46540" stroke="green" stroke-width="0.04000"/>
    <line x1="123.62379" y1="75.19042" x2="126.34881" y2="72.46540" stroke="green" stroke-width="0.04000"/>
    <line x1="123.62379" y1="75.04900" x2="126.20739" y2="72.46540" stroke="green" stroke-width="0.04000"/>
    <line x1="123.62379" y1="74.90759" x2="126.06597" y2="72.46540" stroke="green" stroke-width="0.04000"/>
    <line x1="123.62379" y1="74.76616" x2="125.92455" y2="72.46540" stroke="green" stroke-width="0.04000"/>
    <line x1="123.62379" y1="74.62474" x2="125.78312" y2="72.46540" stroke="green" stroke-width="0.04000"/>
    <line x1="123.62379" y1="74.48331" x2="125.64170" y2="72.46540" stroke="green" stroke-width="0.04000"/>
    <line x1="123.62379" y1="74.34190" x2="125.50028" y2="72.46540" stroke="green" stroke-width="0.04000"/>
    <line x1="123.62379" y1="74.20048" x2="125.35886" y2="72.46540" stroke="green" stroke-width="0.04000"/>
    <line x1="123.62379" y1="74.05906" x2="125.21745" y2="72.46540" stroke="green" stroke-width="0.04000"/>
    <line x1="123.62379" y1="73.91763" x2="125.07602" y2="72.46540" stroke="green" stroke-width="0.04000"/>
    <line x1="123.62379" y1="73.77621" x2="124.93459" y2="72.46540" stroke="green" stroke-width="0.04000"/>
    <line x1="123.62379" y1="73.63479" x2="124.79318" y2="72.46540" stroke="green" stroke-width="0.04000"/>
    <line x1="123.62379" y1="73.49337" x2="124.65176" y2="72.46540" stroke="green" stroke-width="0.04000"/>
    <line x1="123.62379" y1="73.35195" x2="124.51034" y2="72.46540" stroke="green" stroke-width="0.04000"/>
    <line x1="123.62379" y1="73.21052" x2="124.36890" y2="72.46540" stroke="green" stroke-width="0.04000"/>
    <line x1="123.62379" y1="73.06910" x2="124.22749" y2="72.46540" stroke="green" stroke-width="0.04000"/>
    <line x1="123.62379" y1="72.92768" x2="124.08607" y2="72.46540" stroke="green" stroke-width="0.04000"/>
    <line x1="123.62379" y1="72.78626" x2="123.94465" y2="72.46540" stroke="green" stroke-width="0.04000"/>
    <line x1="123.62379" y1="72.64484" x2="123.80323" y2="72.46540" stroke="green" stroke-width="0.04000"/>
    <line x1="123.62379" y1="72.50342" x2="123.66180" y2="72.46540" stroke="green" stroke-width="0.04000"/>
    <path d="M 136.324 88.9742 L 123.624 88.9742 L 123.624 72.4654 L 136.324 72.4654 L 136.324 88.9742" fill="none" stroke="blue" stroke-width="0.04000" fill-rule="evenodd" fill-opacity="1.000"/>
  </g>
</svg>
