<?xml version="1.0" encoding="UTF-8" standalone="yes"?>
<svg xmlns="http://www.w3.org/2000/svg"
     xmlns:xlink="http://www.w3.org/1999/xlink"
     width="2020.0000mm" height="1600.0000mm"
     viewBox="0 0 202.000000 160.000000">
  <!--
    Build plate : 150.00 x 150.00 mm
    Coordinate  : 1 SVG unit = 1 mm
    Display zoom: 10x  (width/height = viewBox x 10)
    Hatch stroke: 0.04 mm = ~28 mm on screen at this zoom
    Legend panel: right margin (42 mm wide)
  -->
  <defs>
    <marker id="endArrow" markerWidth="2" markerHeight="1.4"
            refX="0" refY="0.7" orient="auto"
            markerUnits="strokeWidth">
      <polyline fill="darkblue" points="0,0 2,0.7 0,1.4 0.2,0.7"/>
    </marker>
  </defs>
  <!-- Background -->
  <rect x="0" y="0" width="202.000000" height="160.000000" fill="#f0f0f0" stroke="none"/>
  <!-- Build plate boundary (150 x 150 mm) -->
  <rect x="5.000000" y="5.000000" width="150.000000" height="150.000000"
        fill="#ffffff" stroke="#aaaaaa" stroke-width="0.2" stroke-dasharray="1,0.5"/>
  <!-- Build plate centre circle (r = 75.00 mm) -->
  <circle cx="80.000000" cy="80.000000" r="75.000000"
          fill="none" stroke="#bbbbbb" stroke-width="0.15" stroke-dasharray="0.8,0.4"/>
  <!-- Centre cross-hair -->
  <line x1="5.000000" y1="80.000000" x2="155.000000" y2="80.000000" stroke="#cccccc" stroke-width="0.1"/>
  <line x1="80.000000" y1="5.000000" x2="80.000000" y2="155.000000" stroke="#cccccc" stroke-width="0.1"/>
  <circle cx="80.000000" cy="80.000000" r="0.3" fill="#cccccc" stroke="none"/>
  <!-- Corner labels -->
  <text x="5.400000" y="4.600000" font-family="sans-serif" font-size="2" fill="#888888">0,0</text>
  <text x="154.600006" y="4.600000" font-family="sans-serif" font-size="2" fill="#888888" text-anchor="end">150,0</text>
  <text x="5.400000" y="157.199997" font-family="sans-serif" font-size="2" fill="#888888">0,150</text>
  <!-- Layer geometry -->
  <g id="geometry">
    <line x1="68.39969" y1="96.50000" x2="82.54061" y2="61.50000" stroke="green" stroke-width="0.04000"/>
    <line x1="68.50755" y1="96.50000" x2="82.64846" y2="61.50000" stroke="green" stroke-width="0.04000"/>
    <line x1="68.61540" y1="96.50000" x2="82.75632" y2="61.50000" stroke="green" stroke-width="0.04000"/>
    <line x1="68.72325" y1="96.50000" x2="82.86417" y2="61.50000" stroke="green" stroke-width="0.04000"/>
    <line x1="68.83110" y1="96.50000" x2="82.97202" y2="61.50000" stroke="green" stroke-width="0.04000"/>
    <line x1="68.93896" y1="96.50000" x2="83.07987" y2="61.50000" stroke="green" stroke-width="0.04000"/>
    <line x1="69.04681" y1="96.50000" x2="83.18773" y2="61.50000" stroke="green" stroke-width="0.04000"/>
    <line x1="69.15467" y1="96.50000" x2="83.29559" y2="61.50000" stroke="green" stroke-width="0.04000"/>
    <line x1="69.26252" y1="96.50000" x2="83.40344" y2="61.50000" stroke="green" stroke-width="0.04000"/>
    <line x1="69.37038" y1="96.50000" x2="83.51129" y2="61.50000" stroke="green" stroke-width="0.04000"/>
    <line x1="69.47823" y1="96.50000" x2="83.61914" y2="61.50000" stroke="green" stroke-width="0.04000"/>
    <line x1="69.58608" y1="96.50000" x2="83.72700" y2="61.50000" stroke="green" stroke-width="0.04000"/>
    <line x1="69.69393" y1="96.50000" x2="83.83485" y2="61.50000" stroke="green" stroke-width="0.04000"/>
    <line x1="69.80179" y1="96.50000" x2="83.94270" y2="61.50000" stroke="green" stroke-width="0.04000"/>
    <line x1="69.90964" y1="96.50000" x2="84.05056" y2="61.50000" stroke="green" stroke-width="0.04000"/>
    <line x1="70.01749" y1="96.50000" x2="84.15841" y2="61.50000" stroke="green" stroke-width="0.04000"/>
    <line x1="70.12535" y1="96.50000" x2="84.26627" y2="61.50000" stroke="green" stroke-width="0.04000"/>
    <line x1="70.23320" y1="96.50000" x2="84.37412" y2="61.50000" stroke="green" stroke-width="0.04000"/>
    <line x1="70.34106" y1="96.50000" x2="84.48197" y2="61.50000" stroke="green" stroke-width="0.04000"/>
    <line x1="70.44891" y1="96.50000" x2="84.58982" y2="61.50000" stroke="green" stroke-width="0.04000"/>
    <line x1="70.55676" y1="96.50000" x2="84.69768" y2="61.50000" stroke="green" stroke-width="0.04000"/>
    <line x1="70.66462" y1="96.50000" x2="84.80553" y2="61.50000" stroke="green" stroke-width="0.04000"/>
    <line x1="70.77247" y1="96.50000" x2="84.91338" y2="61.50000" stroke="green" stroke-width="0.04000"/>
    <line x1="70.88033" y1="96.50000" x2="85.02124" y2="61.50000" stroke="green" stroke-width="0.04000"/>
    <line x1="70.98817" y1="96.50000" x2="85.12909" y2="61.50000" stroke="green" stroke-width="0.04000"/>
    <line x1="71.09603" y1="96.50000" x2="85.23695" y2="61.50000" stroke="green" stroke-width="0.04000"/>
    <line x1="71.20388" y1="96.50000" x2="85.34480" y2="61.50000" stroke="green" stroke-width="0.04000"/>
    <line x1="71.31174" y1="96.50000" x2="85.45265" y2="61.50000" stroke="green" stroke-width="0.04000"/>
    <line x1="71.41959" y1="96.50000" x2="85.56051" y2="61.50000" stroke="green" stroke-width="0.04000"/>
    <line x1="71.52744" y1="96.50000" x2="85.66836" y2="61.50000" stroke="green" stroke-width="0.04000"/>
    <line x1="71.63530" y1="96.50000" x2="85.77621" y2="61.50000" stroke="green" stroke-width="0.04000"/>
    <line x1="71.74315" y1="96.50000" x2="85.88407" y2="61.50000" stroke="green" stroke-width="0.04000"/>
    <line x1="71.85101" y1="96.50000" x2="85.99192" y2="61.50000" stroke="green" stroke-width="0.04000"/>
    <line x1="71.95885" y1="96.50000" x2="86.09977" y2="61.50000" stroke="green" stroke-width="0.04000"/>
    <line x1="72.06671" y1="96.50000" x2="86.20763" y2="61.50000" stroke="green" stroke-width="0.04000"/>
    <line x1="72.17456" y1="96.50000" x2="86.31548" y2="61.50000" stroke="green" stroke-width="0.04000"/>
    <line x1="72.28242" y1="96.50000" x2="86.42333" y2="61.50000" stroke="green" stroke-width="0.04000"/>
    <line x1="72.39027" y1="96.50000" x2="86.53119" y2="61.50000" stroke="green" stroke-width="0.04000"/>
    <line x1="72.49812" y1="96.50000" x2="86.63904" y2="61.50000" stroke="green" stroke-width="0.04000"/>
    <line x1="72.60598" y1="96.50000" x2="86.74689" y2="61.50000" stroke="green" stroke-width="0.04000"/>
    <line x1="72.71384" y1="96.50000" x2="86.85475" y2="61.50000" stroke="green" stroke-width="0.04000"/>
    <line x1="72.82169" y1="96.50000" x2="86.96260" y2="61.50000" stroke="green" stroke-width="0.04000"/>
    <line x1="72.92954" y1="96.50000" x2="87.07046" y2="61.50000" stroke="green" stroke-width="0.04000"/>
    <line x1="73.03739" y1="96.50000" x2="87.17831" y2="61.50000" stroke="green" stroke-width="0.04000"/>
    <line x1="73.14525" y1="96.50000" x2="87.28616" y2="61.50000" stroke="green" stroke-width="0.04000"/>
    <line x1="73.25310" y1="96.50000" x2="87.39402" y2="61.50000" stroke="green" stroke-width="0.04000"/>
    <line x1="73.36095" y1="96.50000" x2="87.50187" y2="61.50000" stroke="green" stroke-width="0.04000"/>
    <line x1="73.46880" y1="96.50000" x2="87.60972" y2="61.50000" stroke="green" stroke-width="0.04000"/>
    <line x1="73.57666" y1="96.50000" x2="87.71758" y2="61.50000" stroke="green" stroke-width="0.04000"/>
    <line x1="73.68451" y1="96.50000" x2="87.82543" y2="61.50000" stroke="green" stroke-width="0.04000"/>
    <line x1="73.79237" y1="96.50000" x2="87.93328" y2="61.50000" stroke="green" stroke-width="0.04000"/>
    <line x1="73.90022" y1="96.50000" x2="88.04114" y2="61.50000" stroke="green" stroke-width="0.04000"/>
    <line x1="74.00807" y1="96.50000" x2="88.14899" y2="61.50000" stroke="green" stroke-width="0.04000"/>
    <line x1="74.11593" y1="96.50000" x2="88.25684" y2="61.50000" stroke="green" stroke-width="0.04000"/>
    <line x1="74.22378" y1="96.50000" x2="88.36470" y2="61.50000" stroke="green" stroke-width="0.04000"/>
    <line x1="74.33163" y1="96.50000" x2="88.47255" y2="61.50000" stroke="green" stroke-width="0.04000"/>
    <line x1="74.43948" y1="96.50000" x2="88.58040" y2="61.50000" stroke="green" stroke-width="0.04000"/>
    <line x1="74.54734" y1="96.50000" x2="88.68826" y2="61.50000" stroke="green" stroke-width="0.04000"/>
    <line x1="74.65519" y1="96.50000" x2="88.79611" y2="61.50000" stroke="green" stroke-width="0.04000"/>
    <line x1="74.76305" y1="96.50000" x2="88.90397" y2="61.50000" stroke="green" stroke-width="0.04000"/>
    <line x1="74.87090" y1="96.50000" x2="89.01182" y2="61.50000" stroke="green" stroke-width="0.04000"/>
    <line x1="74.97875" y1="96.50000" x2="89.11967" y2="61.50000" stroke="green" stroke-width="0.04000"/>
    <line x1="75.08661" y1="96.50000" x2="89.22752" y2="61.50000" stroke="green" stroke-width="0.04000"/>
    <line x1="75.19447" y1="96.50000" x2="89.33538" y2="61.50000" stroke="green" stroke-width="0.04000"/>
    <line x1="75.30231" y1="96.50000" x2="89.44323" y2="61.50000" stroke="green" stroke-width="0.04000"/>
    <line x1="75.41017" y1="96.50000" x2="89.55109" y2="61.50000" stroke="green" stroke-width="0.04000"/>
    <line x1="75.51802" y1="96.50000" x2="89.65894" y2="61.50000" stroke="green" stroke-width="0.04000"/>
    <line x1="75.62588" y1="96.50000" x2="89.76679" y2="61.50000" stroke="green" stroke-width="0.04000"/>
    <line x1="75.73373" y1="96.50000" x2="89.87465" y2="61.50000" stroke="green" stroke-width="0.04000"/>
    <line x1="75.84158" y1="96.50000" x2="89.98250" y2="61.50000" stroke="green" stroke-width="0.04000"/>
    <line x1="75.94943" y1="96.50000" x2="90.09035" y2="61.50000" stroke="green" stroke-width="0.04000"/>
    <line x1="76.05729" y1="96.50000" x2="90.19820" y2="61.50000" stroke="green" stroke-width="0.04000"/>
    <line x1="76.16515" y1="96.50000" x2="90.30606" y2="61.50000" stroke="green" stroke-width="0.04000"/>
    <line x1="76.27299" y1="96.50000" x2="90.41392" y2="61.50000" stroke="green" stroke-width="0.04000"/>
    <line x1="76.38085" y1="96.50000" x2="90.52177" y2="61.50000" stroke="green" stroke-width="0.04000"/>
    <line x1="76.48870" y1="96.50000" x2="90.62962" y2="61.50000" stroke="green" stroke-width="0.04000"/>
    <line x1="76.59656" y1="96.50000" x2="90.73747" y2="61.50000" stroke="green" stroke-width="0.04000"/>
    <line x1="76.70441" y1="96.50000" x2="90.84533" y2="61.50000" stroke="green" stroke-width="0.04000"/>
    <line x1="76.81226" y1="96.50000" x2="90.95319" y2="61.50000" stroke="green" stroke-width="0.04000"/>
    <line x1="76.92012" y1="96.50000" x2="91.06104" y2="61.50000" stroke="green" stroke-width="0.04000"/>
    <line x1="77.02797" y1="96.50000" x2="91.16888" y2="61.50000" stroke="green" stroke-width="0.04000"/>
    <line x1="77.13583" y1="96.50000" x2="91.27674" y2="61.50000" stroke="green" stroke-width="0.04000"/>
    <line x1="77.24368" y1="96.50000" x2="91.38460" y2="61.50000" stroke="green" stroke-width="0.04000"/>
    <line x1="77.35153" y1="96.50000" x2="91.49245" y2="61.50000" stroke="green" stroke-width="0.04000"/>
    <line x1="77.45938" y1="96.50000" x2="91.60030" y2="61.50000" stroke="green" stroke-width="0.04000"/>
    <line x1="77.56724" y1="96.50000" x2="91.67331" y2="61.58624" stroke="green" stroke-width="0.04000"/>
    <line x1="77.67509" y1="96.50000" x2="91.67331" y2="61.85320" stroke="green" stroke-width="0.04000"/>
    <line x1="77.78294" y1="96.50000" x2="91.67331" y2="62.12014" stroke="green" stroke-width="0.04000"/>
    <line x1="77.89080" y1="96.50000" x2="91.67331" y2="62.38710" stroke="green" stroke-width="0.04000"/>
    <line x1="77.99865" y1="96.50000" x2="91.67331" y2="62.65403" stroke="green" stroke-width="0.04000"/>
    <line x1="78.10651" y1="96.50000" x2="91.67331" y2="62.92098" stroke="green" stroke-width="0.04000"/>
    <line x1="78.21436" y1="96.50000" x2="91.67331" y2="63.18793" stroke="green" stroke-width="0.04000"/>
    <line x1="78.32221" y1="96.50000" x2="91.67331" y2="63.45488" stroke="green" stroke-width="0.04000"/>
    <line x1="78.43006" y1="96.50000" x2="91.67331" y2="63.72181" stroke="green" stroke-width="0.04000"/>
    <line x1="78.53792" y1="96.50000" x2="91.67331" y2="63.98876" stroke="green" stroke-width="0.04000"/>
    <line x1="78.64577" y1="96.50000" x2="91.67331" y2="64.25571" stroke="green" stroke-width="0.04000"/>
    <line x1="78.75362" y1="96.50000" x2="91.67331" y2="64.52266" stroke="green" stroke-width="0.04000"/>
    <line x1="78.86148" y1="96.50000" x2="91.67331" y2="64.78961" stroke="green" stroke-width="0.04000"/>
    <line x1="78.96933" y1="96.50000" x2="91.67331" y2="65.05655" stroke="green" stroke-width="0.04000"/>
    <line x1="79.07719" y1="96.50000" x2="91.67331" y2="65.32350" stroke="green" stroke-width="0.04000"/>
    <line x1="79.18504" y1="96.50000" x2="91.67331" y2="65.59045" stroke="green" stroke-width="0.04000"/>
    <line x1="79.29289" y1="96.50000" x2="91.67331" y2="65.85739" stroke="green" stroke-width="0.04000"/>
    <line x1="79.40075" y1="96.50000" x2="91.67331" y2="66.12434" stroke="green" stroke-width="0.04000"/>
    <line x1="79.50860" y1="96.50000" x2="91.67331" y2="66.39128" stroke="green" stroke-width="0.04000"/>
    <line x1="79.61645" y1="96.50000" x2="91.67331" y2="66.65823" stroke="green" stroke-width="0.04000"/>
    <line x1="79.72430" y1="96.50000" x2="91.67331" y2="66.92518" stroke="green" stroke-width="0.04000"/>
    <line x1="79.83216" y1="96.50000" x2="91.67331" y2="67.19214" stroke="green" stroke-width="0.04000"/>
    <line x1="79.94002" y1="96.50000" x2="91.67331" y2="67.45908" stroke="green" stroke-width="0.04000"/>
    <line x1="80.04787" y1="96.50000" x2="91.67331" y2="67.72602" stroke="green" stroke-width="0.04000"/>
    <line x1="80.15572" y1="96.50000" x2="91.67331" y2="67.99297" stroke="green" stroke-width="0.04000"/>
    <line x1="80.26357" y1="96.50000" x2="91.67331" y2="68.25992" stroke="green" stroke-width="0.04000"/>
    <line x1="80.37143" y1="96.50000" x2="91.67331" y2="68.52687" stroke="green" stroke-width="0.04000"/>
    <line x1="80.47928" y1="96.50000" x2="91.67331" y2="68.79381" stroke="green" stroke-width="0.04000"/>
    <line x1="80.58714" y1="96.50000" x2="91.67331" y2="69.06076" stroke="green" stroke-width="0.04000"/>
    <line x1="80.69498" y1="96.50000" x2="91.67331" y2="69.32771" stroke="green" stroke-width="0.04000"/>
    <line x1="80.80284" y1="96.50000" x2="91.67331" y2="69.59465" stroke="green" stroke-width="0.04000"/>
    <line x1="80.91070" y1="96.50000" x2="91.67331" y2="69.86160" stroke="green" stroke-width="0.04000"/>
    <line x1="81.01855" y1="96.50000" x2="91.67331" y2="70.12854" stroke="green" stroke-width="0.04000"/>
    <line x1="81.12640" y1="96.50000" x2="91.67331" y2="70.39548" stroke="green" stroke-width="0.04000"/>
    <line x1="81.23425" y1="96.50000" x2="91.67331" y2="70.66243" stroke="green" stroke-width="0.04000"/>
    <line x1="81.34211" y1="96.50000" x2="91.67331" y2="70.92938" stroke="green" stroke-width="0.04000"/>
    <line x1="81.44996" y1="96.50000" x2="91.67331" y2="71.19632" stroke="green" stroke-width="0.04000"/>
    <line x1="81.55782" y1="96.50000" x2="91.67331" y2="71.46328" stroke="green" stroke-width="0.04000"/>
    <line x1="81.66566" y1="96.50000" x2="91.67331" y2="71.73022" stroke="green" stroke-width="0.04000"/>
    <line x1="81.77352" y1="96.50000" x2="91.67331" y2="71.99717" stroke="green" stroke-width="0.04000"/>
    <line x1="81.88138" y1="96.50000" x2="91.67331" y2="72.26412" stroke="green" stroke-width="0.04000"/>
    <line x1="81.98923" y1="96.50000" x2="91.67331" y2="72.53106" stroke="green" stroke-width="0.04000"/>
    <line x1="82.09708" y1="96.50000" x2="91.67331" y2="72.79801" stroke="green" stroke-width="0.04000"/>
    <line x1="82.20493" y1="96.50000" x2="91.67331" y2="73.06495" stroke="green" stroke-width="0.04000"/>
    <line x1="82.31279" y1="96.50000" x2="91.67331" y2="73.33190" stroke="green" stroke-width="0.04000"/>
    <line x1="82.42065" y1="96.50000" x2="91.67331" y2="73.59885" stroke="green" stroke-width="0.04000"/>
    <line x1="82.52850" y1="96.50000" x2="91.67331" y2="73.86579" stroke="green" stroke-width="0.04000"/>
    <line x1="82.63635" y1="96.50000" x2="91.67331" y2="74.13274" stroke="green" stroke-width="0.04000"/>
    <line x1="82.74420" y1="96.50000" x2="91.67331" y2="74.39969" stroke="green" stroke-width="0.04000"/>
    <line x1="82.85206" y1="96.50000" x2="91.67331" y2="74.66664" stroke="green" stroke-width="0.04000"/>
    <line x1="82.95992" y1="96.50000" x2="91.67331" y2="74.93358" stroke="green" stroke-width="0.04000"/>
    <line x1="83.06776" y1="96.50000" x2="91.67331" y2="75.20053" stroke="green" stroke-width="0.04000"/>
    <line x1="83.17561" y1="96.50000" x2="91.67331" y2="75.46748" stroke="green" stroke-width="0.04000"/>
    <line x1="83.28347" y1="96.50000" x2="91.67331" y2="75.73442" stroke="green" stroke-width="0.04000"/>
    <line x1="83.39133" y1="96.50000" x2="91.67331" y2="76.00137" stroke="green" stroke-width="0.04000"/>
    <line x1="83.49918" y1="96.50000" x2="91.67331" y2="76.26831" stroke="green" stroke-width="0.04000"/>
    <line x1="83.60703" y1="96.50000" x2="91.67331" y2="76.53526" stroke="green" stroke-width="0.04000"/>
    <line x1="83.71488" y1="96.50000" x2="91.67331" y2="76.80221" stroke="green" stroke-width="0.04000"/>
    <line x1="83.82274" y1="96.50000" x2="91.67331" y2="77.06916" stroke="green" stroke-width="0.04000"/>
    <line x1="83.93059" y1="96.50000" x2="91.67331" y2="77.33610" stroke="green" stroke-width="0.04000"/>
    <line x1="84.03844" y1="96.50000" x2="91.67331" y2="77.60305" stroke="green" stroke-width="0.04000"/>
    <line x1="84.14629" y1="96.50000" x2="91.67331" y2="77.87000" stroke="green" stroke-width="0.04000"/>
    <line x1="84.25415" y1="96.50000" x2="91.67331" y2="78.13694" stroke="green" stroke-width="0.04000"/>
    <line x1="84.36201" y1="96.50000" x2="91.67331" y2="78.40389" stroke="green" stroke-width="0.04000"/>
    <line x1="84.46986" y1="96.50000" x2="91.67331" y2="78.67084" stroke="green" stroke-width="0.04000"/>
    <line x1="84.57771" y1="96.50000" x2="91.67331" y2="78.93778" stroke="green" stroke-width="0.04000"/>
    <line x1="84.68556" y1="96.50000" x2="91.67331" y2="79.20473" stroke="green" stroke-width="0.04000"/>
    <line x1="84.79342" y1="96.50000" x2="91.67331" y2="79.47168" stroke="green" stroke-width="0.04000"/>
    <line x1="84.90128" y1="96.50000" x2="91.67331" y2="79.73863" stroke="green" stroke-width="0.04000"/>
    <line x1="85.00912" y1="96.50000" x2="91.67331" y2="80.00557" stroke="green" stroke-width="0.04000"/>
    <line x1="85.11698" y1="96.50000" x2="91.67331" y2="80.27251" stroke="green" stroke-width="0.04000"/>
    <line x1="85.22483" y1="96.50000" x2="91.67331" y2="80.53946" stroke="green" stroke-width="0.04000"/>
    <line x1="85.33269" y1="96.50000" x2="91.67331" y2="80.80641" stroke="green" stroke-width="0.04000"/>
    <line x1="85.44054" y1="96.50000" x2="91.67331" y2="81.07336" stroke="green" stroke-width="0.04000"/>
    <line x1="85.54839" y1="96.50000" x2="91.67331" y2="81.34031" stroke="green" stroke-width="0.04000"/>
    <line x1="85.65624" y1="96.50000" x2="91.67331" y2="81.60725" stroke="green" stroke-width="0.04000"/>
    <line x1="85.76410" y1="96.50000" x2="91.67331" y2="81.87420" stroke="green" stroke-width="0.04000"/>
    <line x1="85.87196" y1="96.50000" x2="91.67331" y2="82.14115" stroke="green" stroke-width="0.04000"/>
    <line x1="85.97980" y1="96.50000" x2="91.67331" y2="82.40809" stroke="green" stroke-width="0.04000"/>
    <line x1="86.08766" y1="96.50000" x2="91.67331" y2="82.67504" stroke="green" stroke-width="0.04000"/>
    <line x1="86.19551" y1="96.50000" x2="91.67331" y2="82.94198" stroke="green" stroke-width="0.04000"/>
    <line x1="86.30337" y1="96.50000" x2="91.67331" y2="83.20893" stroke="green" stroke-width="0.04000"/>
    <line x1="86.41122" y1="96.50000" x2="91.67331" y2="83.47588" stroke="green" stroke-width="0.04000"/>
    <line x1="86.51907" y1="96.50000" x2="91.67331" y2="83.74283" stroke="green" stroke-width="0.04000"/>
    <line x1="86.62692" y1="96.50000" x2="91.67331" y2="84.00977" stroke="green" stroke-width="0.04000"/>
    <line x1="86.73478" y1="96.50000" x2="91.67331" y2="84.27672" stroke="green" stroke-width="0.04000"/>
    <line x1="86.84264" y1="96.50000" x2="91.67331" y2="84.54367" stroke="green" stroke-width="0.04000"/>
    <line x1="86.95049" y1="96.50000" x2="91.67331" y2="84.81061" stroke="green" stroke-width="0.04000"/>
    <line x1="87.05834" y1="96.50000" x2="91.67331" y2="85.07756" stroke="green" stroke-width="0.04000"/>
    <line x1="87.16619" y1="96.50000" x2="91.67331" y2="85.34450" stroke="green" stroke-width="0.04000"/>
    <line x1="87.27405" y1="96.50000" x2="91.67331" y2="85.61145" stroke="green" stroke-width="0.04000"/>
    <line x1="87.38190" y1="96.50000" x2="91.67331" y2="85.87840" stroke="green" stroke-width="0.04000"/>
    <line x1="87.48976" y1="96.50000" x2="91.67331" y2="86.14535" stroke="green" stroke-width="0.04000"/>
    <line x1="87.59761" y1="96.50000" x2="91.67331" y2="86.41230" stroke="green" stroke-width="0.04000"/>
    <line x1="87.70546" y1="96.50000" x2="91.67331" y2="86.67924" stroke="green" stroke-width="0.04000"/>
    <line x1="87.81332" y1="96.50000" x2="91.67331" y2="86.94619" stroke="green" stroke-width="0.04000"/>
    <line x1="87.92117" y1="96.50000" x2="91.67331" y2="87.21314" stroke="green" stroke-width="0.04000"/>
    <line x1="88.02902" y1="96.50000" x2="91.67331" y2="87.48008" stroke="green" stroke-width="0.04000"/>
    <line x1="88.13688" y1="96.50000" x2="91.67331" y2="87.74702" stroke="green" stroke-width="0.04000"/>
    <line x1="88.24473" y1="96.50000" x2="91.67331" y2="88.01397" stroke="green" stroke-width="0.04000"/>
    <line x1="88.35258" y1="96.50000" x2="91.67331" y2="88.28092" stroke="green" stroke-width="0.04000"/>
    <line x1="88.46044" y1="96.50000" x2="91.67331" y2="88.54787" stroke="green" stroke-width="0.04000"/>
    <line x1="88.56829" y1="96.50000" x2="91.67331" y2="88.81481" stroke="green" stroke-width="0.04000"/>
    <line x1="88.67614" y1="96.50000" x2="91.67331" y2="89.08176" stroke="green" stroke-width="0.04000"/>
    <line x1="88.78400" y1="96.50000" x2="91.67331" y2="89.34870" stroke="green" stroke-width="0.04000"/>
    <line x1="88.89185" y1="96.50000" x2="91.67331" y2="89.61565" stroke="green" stroke-width="0.04000"/>
    <line x1="88.99970" y1="96.50000" x2="91.67331" y2="89.88260" stroke="green" stroke-width="0.04000"/>
    <line x1="89.10756" y1="96.50000" x2="91.67331" y2="90.14954" stroke="green" stroke-width="0.04000"/>
    <line x1="89.21541" y1="96.50000" x2="91.67331" y2="90.41649" stroke="green" stroke-width="0.04000"/>
    <line x1="89.32327" y1="96.50000" x2="91.67331" y2="90.68344" stroke="green" stroke-width="0.04000"/>
    <line x1="89.43111" y1="96.50000" x2="91.67331" y2="90.95038" stroke="green" stroke-width="0.04000"/>
    <line x1="89.53897" y1="96.50000" x2="91.67331" y2="91.21733" stroke="green" stroke-width="0.04000"/>
    <line x1="89.64682" y1="96.50000" x2="91.67331" y2="91.48427" stroke="green" stroke-width="0.04000"/>
    <line x1="89.75468" y1="96.50000" x2="91.67331" y2="91.75123" stroke="green" stroke-width="0.04000"/>
    <line x1="89.86253" y1="96.50000" x2="91.67331" y2="92.01817" stroke="green" stroke-width="0.04000"/>
    <line x1="89.97039" y1="96.50000" x2="91.67331" y2="92.28512" stroke="green" stroke-width="0.04000"/>
    <line x1="90.07824" y1="96.50000" x2="91.67331" y2="92.55207" stroke="green" stroke-width="0.04000"/>
    <line x1="90.18610" y1="96.50000" x2="91.67331" y2="92.81901" stroke="green" stroke-width="0.04000"/>
    <line x1="90.29395" y1="96.50000" x2="91.67331" y2="93.08596" stroke="green" stroke-width="0.04000"/>
    <line x1="90.40180" y1="96.50000" x2="91.67331" y2="93.35291" stroke="green" stroke-width="0.04000"/>
    <line x1="90.50966" y1="96.50000" x2="91.67331" y2="93.61986" stroke="green" stroke-width="0.04000"/>
    <line x1="90.61751" y1="96.50000" x2="91.67331" y2="93.88680" stroke="green" stroke-width="0.04000"/>
    <line x1="90.72536" y1="96.50000" x2="91.67331" y2="94.15375" stroke="green" stroke-width="0.04000"/>
    <line x1="90.83321" y1="96.50000" x2="91.67331" y2="94.42069" stroke="green" stroke-width="0.04000"/>
    <line x1="90.94107" y1="96.50000" x2="91.67331" y2="94.68764" stroke="green" stroke-width="0.04000"/>
    <line x1="91.04892" y1="96.50000" x2="91.67331" y2="94.95459" stroke="green" stroke-width="0.04000"/>
    <line x1="91.15678" y1="96.50000" x2="91.67331" y2="95.22153" stroke="green" stroke-width="0.04000"/>
    <line x1="91.26463" y1="96.50000" x2="91.67331" y2="95.48848" stroke="green" stroke-width="0.04000"/>
    <line x1="91.37248" y1="96.50000" x2="91.67331" y2="95.75543" stroke="green" stroke-width="0.04000"/>
    <line x1="91.48034" y1="96.50000" x2="91.67331" y2="96.02238" stroke="green" stroke-width="0.04000"/>
    <line x1="91.58819" y1="96.50000" x2="91.67331" y2="96.28932" stroke="green" stroke-width="0.04000"/>
    <line x1="68.32669" y1="96.41375" x2="82.43275" y2="61.50000" stroke="green" stroke-width="0.04000"/>
    <line x1="68.32669" y1="96.14680" x2="82.32491" y2="61.50000" stroke="green" stroke-width="0.04000"/>
    <line x1="68.32669" y1="95.87985" x2="82.21705" y2="61.50000" stroke="green" stroke-width="0.04000"/>
    <line x1="68.32669" y1="95.61291" x2="82.10919" y2="61.50000" stroke="green" stroke-width="0.04000"/>
    <line x1="68.32669" y1="95.34596" x2="82.00134" y2="61.50000" stroke="green" stroke-width="0.04000"/>
    <line x1="68.32669" y1="95.07902" x2="81.89349" y2="61.50000" stroke="green" stroke-width="0.04000"/>
    <line x1="68.32669" y1="94.81207" x2="81.78564" y2="61.50000" stroke="green" stroke-width="0.04000"/>
    <line x1="68.32669" y1="94.54512" x2="81.67778" y2="61.50000" stroke="green" stroke-width="0.04000"/>
    <line x1="68.32669" y1="94.27818" x2="81.56992" y2="61.50000" stroke="green" stroke-width="0.04000"/>
    <line x1="68.32669" y1="94.01123" x2="81.46207" y2="61.50000" stroke="green" stroke-width="0.04000"/>
    <line x1="68.32669" y1="93.74429" x2="81.35423" y2="61.50000" stroke="green" stroke-width="0.04000"/>
    <line x1="68.32669" y1="93.47733" x2="81.24637" y2="61.50000" stroke="green" stroke-width="0.04000"/>
    <line x1="68.32669" y1="93.21038" x2="81.13851" y2="61.50000" stroke="green" stroke-width="0.04000"/>
    <line x1="68.32669" y1="92.94344" x2="81.03066" y2="61.50000" stroke="green" stroke-width="0.04000"/>
    <line x1="68.32669" y1="92.67649" x2="80.92281" y2="61.50000" stroke="green" stroke-width="0.04000"/>
    <line x1="68.32669" y1="92.40955" x2="80.81496" y2="61.50000" stroke="green" stroke-width="0.04000"/>
    <line x1="68.32669" y1="92.14259" x2="80.70710" y2="61.50000" stroke="green" stroke-width="0.04000"/>
    <line x1="68.32669" y1="91.87566" x2="80.59924" y2="61.50000" stroke="green" stroke-width="0.04000"/>
    <line x1="68.32669" y1="91.60871" x2="80.49139" y2="61.50000" stroke="green" stroke-width="0.04000"/>
    <line x1="68.32669" y1="91.34176" x2="80.38354" y2="61.50000" stroke="green" stroke-width="0.04000"/>
    <line x1="68.32669" y1="91.07481" x2="80.27569" y2="61.50000" stroke="green" stroke-width="0.04000"/>
    <line x1="68.32669" y1="90.80787" x2="80.16783" y2="61.50000" stroke="green" stroke-width="0.04000"/>
    <line x1="68.32669" y1="90.54092" x2="80.05998" y2="61.50000" stroke="green" stroke-width="0.04000"/>
    <line x1="68.32669" y1="90.27397" x2="79.95213" y2="61.50000" stroke="green" stroke-width="0.04000"/>
    <line x1="68.32669" y1="90.00703" x2="79.84428" y2="61.50000" stroke="green" stroke-width="0.04000"/>
    <line x1="68.32669" y1="89.74008" x2="79.73642" y2="61.50000" stroke="green" stroke-width="0.04000"/>
    <line x1="68.32669" y1="89.47313" x2="79.62856" y2="61.50000" stroke="green" stroke-width="0.04000"/>
    <line x1="68.32669" y1="89.20619" x2="79.52071" y2="61.50000" stroke="green" stroke-width="0.04000"/>
    <line x1="68.32669" y1="88.93924" x2="79.41286" y2="61.50000" stroke="green" stroke-width="0.04000"/>
    <line x1="68.32669" y1="88.67230" x2="79.30501" y2="61.50000" stroke="green" stroke-width="0.04000"/>
    <line x1="68.32669" y1="88.40535" x2="79.19715" y2="61.50000" stroke="green" stroke-width="0.04000"/>
    <line x1="68.32669" y1="88.13840" x2="79.08929" y2="61.50000" stroke="green" stroke-width="0.04000"/>
    <line x1="68.32669" y1="87.87145" x2="78.98145" y2="61.50000" stroke="green" stroke-width="0.04000"/>
    <line x1="68.32669" y1="87.60450" x2="78.87359" y2="61.50000" stroke="green" stroke-width="0.04000"/>
    <line x1="68.32669" y1="87.33756" x2="78.76574" y2="61.50000" stroke="green" stroke-width="0.04000"/>
    <line x1="68.32669" y1="87.07061" x2="78.65788" y2="61.50000" stroke="green" stroke-width="0.04000"/>
    <line x1="68.32669" y1="86.80367" x2="78.55003" y2="61.50000" stroke="green" stroke-width="0.04000"/>
    <line x1="68.32669" y1="86.53672" x2="78.44218" y2="61.50000" stroke="green" stroke-width="0.04000"/>
    <line x1="68.32669" y1="86.26978" x2="78.33433" y2="61.50000" stroke="green" stroke-width="0.04000"/>
    <line x1="68.32669" y1="86.00282" x2="78.22647" y2="61.50000" stroke="green" stroke-width="0.04000"/>
    <line x1="68.32669" y1="85.73588" x2="78.11861" y2="61.50000" stroke="green" stroke-width="0.04000"/>
    <line x1="68.32669" y1="85.46893" x2="78.01077" y2="61.50000" stroke="green" stroke-width="0.04000"/>
    <line x1="68.32669" y1="85.20199" x2="77.90291" y2="61.50000" stroke="green" stroke-width="0.04000"/>
    <line x1="68.32669" y1="84.93504" x2="77.79506" y2="61.50000" stroke="green" stroke-width="0.04000"/>
    <line x1="68.32669" y1="84.66809" x2="77.68720" y2="61.50000" stroke="green" stroke-width="0.04000"/>
    <line x1="68.32669" y1="84.40115" x2="77.57935" y2="61.50000" stroke="green" stroke-width="0.04000"/>
    <line x1="68.32669" y1="84.13420" x2="77.47150" y2="61.50000" stroke="green" stroke-width="0.04000"/>
    <line x1="68.32669" y1="83.86726" x2="77.36365" y2="61.50000" stroke="green" stroke-width="0.04000"/>
    <line x1="68.32669" y1="83.60030" x2="77.25579" y2="61.50000" stroke="green" stroke-width="0.04000"/>
    <line x1="68.32669" y1="83.33336" x2="77.14793" y2="61.50000" stroke="green" stroke-width="0.04000"/>
    <line x1="68.32669" y1="83.06642" x2="77.04008" y2="61.50000" stroke="green" stroke-width="0.04000"/>
    <line x1="68.32669" y1="82.79947" x2="76.93223" y2="61.50000" stroke="green" stroke-width="0.04000"/>
    <line x1="68.32669" y1="82.53252" x2="76.82438" y2="61.50000" stroke="green" stroke-width="0.04000"/>
    <line x1="68.32669" y1="82.26557" x2="76.71652" y2="61.50000" stroke="green" stroke-width="0.04000"/>
    <line x1="68.32669" y1="81.99863" x2="76.60867" y2="61.50000" stroke="green" stroke-width="0.04000"/>
    <line x1="68.32669" y1="81.73168" x2="76.50082" y2="61.50000" stroke="green" stroke-width="0.04000"/>
    <line x1="68.32669" y1="81.46473" x2="76.39296" y2="61.50000" stroke="green" stroke-width="0.04000"/>
    <line x1="68.32669" y1="81.19778" x2="76.28511" y2="61.50000" stroke="green" stroke-width="0.04000"/>
    <line x1="68.32669" y1="80.93083" x2="76.17725" y2="61.50000" stroke="green" stroke-width="0.04000"/>
    <line x1="68.32669" y1="80.66389" x2="76.06940" y2="61.50000" stroke="green" stroke-width="0.04000"/>
    <line x1="68.32669" y1="80.39695" x2="75.96155" y2="61.50000" stroke="green" stroke-width="0.04000"/>
    <line x1="68.32669" y1="80.13000" x2="75.85370" y2="61.50000" stroke="green" stroke-width="0.04000"/>
    <line x1="68.32669" y1="79.86305" x2="75.74584" y2="61.50000" stroke="green" stroke-width="0.04000"/>
    <line x1="68.32669" y1="79.59610" x2="75.63799" y2="61.50000" stroke="green" stroke-width="0.04000"/>
    <line x1="68.32669" y1="79.32916" x2="75.53014" y2="61.50000" stroke="green" stroke-width="0.04000"/>
    <line x1="68.32669" y1="79.06221" x2="75.42228" y2="61.50000" stroke="green" stroke-width="0.04000"/>
    <line x1="68.32669" y1="78.79527" x2="75.31443" y2="61.50000" stroke="green" stroke-width="0.04000"/>
    <line x1="68.32669" y1="78.52831" x2="75.20657" y2="61.50000" stroke="green" stroke-width="0.04000"/>
    <line x1="68.32669" y1="78.26137" x2="75.09872" y2="61.50000" stroke="green" stroke-width="0.04000"/>
    <line x1="68.32669" y1="77.99443" x2="74.99087" y2="61.50000" stroke="green" stroke-width="0.04000"/>
    <line x1="68.32669" y1="77.72748" x2="74.88301" y2="61.50000" stroke="green" stroke-width="0.04000"/>
    <line x1="68.32669" y1="77.46053" x2="74.77516" y2="61.50000" stroke="green" stroke-width="0.04000"/>
    <line x1="68.32669" y1="77.19358" x2="74.66730" y2="61.50000" stroke="green" stroke-width="0.04000"/>
    <line x1="68.32669" y1="76.92664" x2="74.55946" y2="61.50000" stroke="green" stroke-width="0.04000"/>
    <line x1="68.32669" y1="76.65970" x2="74.45160" y2="61.50000" stroke="green" stroke-width="0.04000"/>
    <line x1="68.32669" y1="76.39275" x2="74.34375" y2="61.50000" stroke="green" stroke-width="0.04000"/>
    <line x1="68.32669" y1="76.12579" x2="74.23589" y2="61.50000" stroke="green" stroke-width="0.04000"/>
    <line x1="68.32669" y1="75.85884" x2="74.12804" y2="61.50000" stroke="green" stroke-width="0.04000"/>
    <line x1="68.32669" y1="75.59190" x2="74.02019" y2="61.50000" stroke="green" stroke-width="0.04000"/>
    <line x1="68.32669" y1="75.32496" x2="73.91233" y2="61.50000" stroke="green" stroke-width="0.04000"/>
    <line x1="68.32669" y1="75.05801" x2="73.80448" y2="61.50000" stroke="green" stroke-width="0.04000"/>
    <line x1="68.32669" y1="74.79106" x2="73.69662" y2="61.50000" stroke="green" stroke-width="0.04000"/>
    <line x1="68.32669" y1="74.52412" x2="73.58877" y2="61.50000" stroke="green" stroke-width="0.04000"/>
    <line x1="68.32669" y1="74.25717" x2="73.48092" y2="61.50000" stroke="green" stroke-width="0.04000"/>
    <line x1="68.32669" y1="73.99023" x2="73.37306" y2="61.50000" stroke="green" stroke-width="0.04000"/>
    <line x1="68.32669" y1="73.72327" x2="73.26521" y2="61.50000" stroke="green" stroke-width="0.04000"/>
    <line x1="68.32669" y1="73.45632" x2="73.15736" y2="61.50000" stroke="green" stroke-width="0.04000"/>
    <line x1="68.32669" y1="73.18939" x2="73.04951" y2="61.50000" stroke="green" stroke-width="0.04000"/>
    <line x1="68.32669" y1="72.92244" x2="72.94165" y2="61.50000" stroke="green" stroke-width="0.04000"/>
    <line x1="68.32669" y1="72.65549" x2="72.83380" y2="61.50000" stroke="green" stroke-width="0.04000"/>
    <line x1="68.32669" y1="72.38854" x2="72.72594" y2="61.50000" stroke="green" stroke-width="0.04000"/>
    <line x1="68.32669" y1="72.12160" x2="72.61809" y2="61.50000" stroke="green" stroke-width="0.04000"/>
    <line x1="68.32669" y1="71.85465" x2="72.51024" y2="61.50000" stroke="green" stroke-width="0.04000"/>
    <line x1="68.32669" y1="71.58771" x2="72.40238" y2="61.50000" stroke="green" stroke-width="0.04000"/>
    <line x1="68.32669" y1="71.32076" x2="72.29453" y2="61.50000" stroke="green" stroke-width="0.04000"/>
    <line x1="68.32669" y1="71.05381" x2="72.18668" y2="61.50000" stroke="green" stroke-width="0.04000"/>
    <line x1="68.32669" y1="70.78686" x2="72.07882" y2="61.50000" stroke="green" stroke-width="0.04000"/>
    <line x1="68.32669" y1="70.51992" x2="71.97097" y2="61.50000" stroke="green" stroke-width="0.04000"/>
    <line x1="68.32669" y1="70.25298" x2="71.86312" y2="61.50000" stroke="green" stroke-width="0.04000"/>
    <line x1="68.32669" y1="69.98602" x2="71.75526" y2="61.50000" stroke="green" stroke-width="0.04000"/>
    <line x1="68.32669" y1="69.71907" x2="71.64741" y2="61.50000" stroke="green" stroke-width="0.04000"/>
    <line x1="68.32669" y1="69.45213" x2="71.53956" y2="61.50000" stroke="green" stroke-width="0.04000"/>
    <line x1="68.32669" y1="69.18518" x2="71.43170" y2="61.50000" stroke="green" stroke-width="0.04000"/>
    <line x1="68.32669" y1="68.91824" x2="71.32384" y2="61.50000" stroke="green" stroke-width="0.04000"/>
    <line x1="68.32669" y1="68.65129" x2="71.21600" y2="61.50000" stroke="green" stroke-width="0.04000"/>
    <line x1="68.32669" y1="68.38434" x2="71.10814" y2="61.50000" stroke="green" stroke-width="0.04000"/>
    <line x1="68.32669" y1="68.11740" x2="71.00029" y2="61.50000" stroke="green" stroke-width="0.04000"/>
    <line x1="68.32669" y1="67.85045" x2="70.89243" y2="61.50000" stroke="green" stroke-width="0.04000"/>
    <line x1="68.32669" y1="67.58350" x2="70.78458" y2="61.50000" stroke="green" stroke-width="0.04000"/>
    <line x1="68.32669" y1="67.31655" x2="70.67673" y2="61.50000" stroke="green" stroke-width="0.04000"/>
    <line x1="68.32669" y1="67.04962" x2="70.56888" y2="61.50000" stroke="green" stroke-width="0.04000"/>
    <line x1="68.32669" y1="66.78267" x2="70.46102" y2="61.50000" stroke="green" stroke-width="0.04000"/>
    <line x1="68.32669" y1="66.51572" x2="70.35316" y2="61.50000" stroke="green" stroke-width="0.04000"/>
    <line x1="68.32669" y1="66.24876" x2="70.24532" y2="61.50000" stroke="green" stroke-width="0.04000"/>
    <line x1="68.32669" y1="65.98182" x2="70.13746" y2="61.50000" stroke="green" stroke-width="0.04000"/>
    <line x1="68.32669" y1="65.71488" x2="70.02961" y2="61.50000" stroke="green" stroke-width="0.04000"/>
    <line x1="68.32669" y1="65.44793" x2="69.92175" y2="61.50000" stroke="green" stroke-width="0.04000"/>
    <line x1="68.32669" y1="65.18098" x2="69.81390" y2="61.50000" stroke="green" stroke-width="0.04000"/>
    <line x1="68.32669" y1="64.91403" x2="69.70605" y2="61.50000" stroke="green" stroke-width="0.04000"/>
    <line x1="68.32669" y1="64.64709" x2="69.59819" y2="61.50000" stroke="green" stroke-width="0.04000"/>
    <line x1="68.32669" y1="64.38014" x2="69.49034" y2="61.50000" stroke="green" stroke-width="0.04000"/>
    <line x1="68.32669" y1="64.11320" x2="69.38248" y2="61.50000" stroke="green" stroke-width="0.04000"/>
    <line x1="68.32669" y1="63.84625" x2="69.27464" y2="61.50000" stroke="green" stroke-width="0.04000"/>
    <line x1="68.32669" y1="63.57930" x2="69.16678" y2="61.50000" stroke="green" stroke-width="0.04000"/>
    <line x1="68.32669" y1="63.31236" x2="69.05893" y2="61.50000" stroke="green" stroke-width="0.04000"/>
    <line x1="68.32669" y1="63.04541" x2="68.95107" y2="61.50000" stroke="green" stroke-width="0.04000"/>
    <line x1="68.32669" y1="62.77847" x2="68.84322" y2="61.50000" stroke="green" stroke-width="0.04000"/>
    <line x1="68.32669" y1="62.51151" x2="68.73537" y2="61.50000" stroke="green" stroke-width="0.04000"/>
    <line x1="68.32669" y1="62.24456" x2="68.62751" y2="61.50000" stroke="green" stroke-width="0.04000"/>
    <line x1="68.32669" y1="61.97763" x2="68.51966" y2="61.50000" stroke="green" stroke-width="0.04000"/>
    <line x1="68.32669" y1="61.71067" x2="68.41180" y2="61.50000" stroke="green" stroke-width="0.04000"/>
    <path d="M 91.6733 96.5 L 68.3267 96.5 L 68.3267 61.5 L 91.6733 61.5 L 91.6733 96.5" fill="none" stroke="blue" stroke-width="0.04000" fill-rule="evenodd" fill-opacity="1.000"/>
  </g>
</svg>
