<?xml version="1.0" encoding="UTF-8" standalone="yes"?>
<svg xmlns="http://www.w3.org/2000/svg"
     xmlns:xlink="http://www.w3.org/1999/xlink"
     width="2020.0000mm" height="1600.0000mm"
     viewBox="0 0 202.000000 160.000000">
  <!--
    Build plate : 150.00 x 150.00 mm
    Coordinate  : 1 SVG unit = 1 mm
    Display zoom: 10x  (width/height = viewBox x 10)
    Hatch stroke: 0.04 mm = ~28 mm on screen at this zoom
    Legend panel: right margin (42 mm wide)
  -->
  <defs>
    <marker id="endArrow" markerWidth="2" markerHeight="1.4"
            refX="0" refY="0.7" orient="auto"
            markerUnits="strokeWidth">
      <polyline fill="darkblue" points="0,0 2,0.7 0,1.4 0.2,0.7"/>
    </marker>
  </defs>
  <!-- Background -->
  <rect x="0" y="0" width="202.000000" height="160.000000" fill="#f0f0f0" stroke="none"/>
  <!-- Build plate boundary (150 x 150 mm) -->
  <rect x="5.000000" y="5.000000" width="150.000000" height="150.000000"
        fill="#ffffff" stroke="#aaaaaa" stroke-width="0.2" stroke-dasharray="1,0.5"/>
  <!-- Build plate centre circle (r = 75.00 mm) -->
  <circle cx="80.000000" cy="80.000000" r="75.000000"
          fill="none" stroke="#bbbbbb" stroke-width="0.15" stroke-dasharray="0.8,0.4"/>
  <!-- Centre cross-hair -->
  <line x1="5.000000" y1="80.000000" x2="155.000000" y2="80.000000" stroke="#cccccc" stroke-width="0.1"/>
  <line x1="80.000000" y1="5.000000" x2="80.000000" y2="155.000000" stroke="#cccccc" stroke-width="0.1"/>
  <circle cx="80.000000" cy="80.000000" r="0.3" fill="#cccccc" stroke="none"/>
  <!-- Corner labels -->
  <text x="5.400000" y="4.600000" font-family="sans-serif" font-size="2" fill="#888888">0,0</text>
  <text x="154.600006" y="4.600000" font-family="sans-serif" font-size="2" fill="#888888" text-anchor="end">150,0</text>
  <text x="5.400000" y="157.199997" font-family="sans-serif" font-size="2" fill="#888888">0,150</text>
  <!-- Layer geometry -->
  <g id="geometry">
    <line x1="38.76328" y1="86.03065" x2="38.84389" y2="86.27877" stroke="green" stroke-width="0.04000"/>
    <line x1="38.68391" y1="86.11002" x2="38.73141" y2="86.25621" stroke="green" stroke-width="0.04000"/>
    <line x1="38.84263" y1="85.95129" x2="38.93982" y2="86.25041" stroke="green" stroke-width="0.04000"/>
    <line x1="38.92199" y1="85.87193" x2="39.03003" y2="86.20443" stroke="green" stroke-width="0.04000"/>
    <line x1="39.00136" y1="85.79258" x2="39.11700" y2="86.14849" stroke="green" stroke-width="0.04000"/>
    <line x1="39.08072" y1="85.71322" x2="39.20140" y2="86.08464" stroke="green" stroke-width="0.04000"/>
    <line x1="39.16007" y1="85.63385" x2="39.28400" y2="86.01527" stroke="green" stroke-width="0.04000"/>
    <line x1="39.23944" y1="85.55449" x2="39.36573" y2="85.94316" stroke="green" stroke-width="0.04000"/>
    <line x1="39.31879" y1="85.47513" x2="39.44733" y2="85.87073" stroke="green" stroke-width="0.04000"/>
    <line x1="39.39816" y1="85.39576" x2="39.52894" y2="85.79829" stroke="green" stroke-width="0.04000"/>
    <line x1="39.47752" y1="85.31641" x2="39.61055" y2="85.72585" stroke="green" stroke-width="0.04000"/>
    <line x1="39.55687" y1="85.23705" x2="39.69202" y2="85.65296" stroke="green" stroke-width="0.04000"/>
    <line x1="39.63624" y1="85.15768" x2="39.77295" y2="85.57845" stroke="green" stroke-width="0.04000"/>
    <line x1="39.71560" y1="85.07832" x2="39.85374" y2="85.50346" stroke="green" stroke-width="0.04000"/>
    <line x1="39.80366" y1="85.02574" x2="39.93457" y2="85.42866" stroke="green" stroke-width="0.04000"/>
    <line x1="39.89367" y1="84.97917" x2="40.01549" y2="85.35408" stroke="green" stroke-width="0.04000"/>
    <line x1="39.97606" y1="84.90914" x2="40.09640" y2="85.27950" stroke="green" stroke-width="0.04000"/>
    <line x1="40.05529" y1="84.82935" x2="40.17694" y2="85.20377" stroke="green" stroke-width="0.04000"/>
    <line x1="40.12732" y1="84.72743" x2="40.25703" y2="85.12666" stroke="green" stroke-width="0.04000"/>
    <line x1="40.19176" y1="84.60217" x2="40.33712" y2="85.04953" stroke="green" stroke-width="0.04000"/>
    <line x1="40.27112" y1="84.52280" x2="40.41715" y2="84.97224" stroke="green" stroke-width="0.04000"/>
    <line x1="40.35048" y1="84.44344" x2="40.49708" y2="84.89462" stroke="green" stroke-width="0.04000"/>
    <line x1="40.42984" y1="84.36408" x2="40.57711" y2="84.81733" stroke="green" stroke-width="0.04000"/>
    <line x1="40.50920" y1="84.28472" x2="40.65698" y2="84.73953" stroke="green" stroke-width="0.04000"/>
    <line x1="40.58856" y1="84.20536" x2="40.73679" y2="84.66154" stroke="green" stroke-width="0.04000"/>
    <line x1="40.66793" y1="84.12600" x2="40.81680" y2="84.58418" stroke="green" stroke-width="0.04000"/>
    <line x1="40.74728" y1="84.04664" x2="40.89680" y2="84.50680" stroke="green" stroke-width="0.04000"/>
    <line x1="40.82664" y1="83.96728" x2="40.97650" y2="84.42847" stroke="green" stroke-width="0.04000"/>
    <line x1="40.90601" y1="83.88792" x2="41.05374" y2="84.34259" stroke="green" stroke-width="0.04000"/>
    <line x1="40.98536" y1="83.80856" x2="41.12451" y2="84.23681" stroke="green" stroke-width="0.04000"/>
    <line x1="41.11835" y1="83.89425" x2="41.17949" y2="84.08239" stroke="green" stroke-width="0.04000"/>
    <path d="M 41.1143 83.8906 L 41.1197 83.8955 L 41.1397 83.9128 L 41.1407 83.914 L 41.1407 83.914 L 41.1538 83.9343 L 41.1546 83.9358 L 41.1547 83.9358 L 41.1646 83.9573 L 41.1658 83.9595 L 41.1668 83.9639 L 41.174 83.9872 L 41.174 83.9874 L 41.1778 84.0086 L 41.179 84.0142 L 41.179 84.0174 L 41.1803 84.0369 L 41.1818 84.0498 L 41.181 84.065 L 41.1794 84.0837 L 41.1786 84.0871 L 41.1744 84.1088 L 41.1697 84.1282 L 41.1693 84.1297 L 41.1669 84.1383 L 41.164 84.1509 L 41.1624 84.1548 L 41.1555 84.1705 L 41.1546 84.1726 L 41.1415 84.2026 L 41.1383 84.2097 L 41.1375 84.2116 L 41.1335 84.2208 L 41.1274 84.232 L 41.1172 84.2491 L 41.1009 84.2762 L 41.0905 84.2929 L 41.0828 84.3029 L 41.0654 84.3275 L 41.0649 84.3283 L 41.0592 84.3357 L 41.0352 84.3659 L 41.0351 84.3659 L 41.0347 84.3664 L 41.0332 84.368 L 41.0317 84.3697 L 41.0289 84.3727 L 40.9786 84.4263 L 40.9624 84.4434 L 40.8878 84.5155 L 40.8803 84.5227 L 40.8298 84.5716 L 40.7641 84.6352 L 40.733 84.6652 L 40.6976 84.6999 L 40.5926 84.8024 L 40.5197 84.8727 L 40.3928 84.9959 L 40.1801 85.2008 L 40.156 85.2238 L 40.1284 85.25 L 39.8998 85.4607 L 39.8006 85.5528 L 39.8006 85.5528 L 39.7118 85.6352 L 39.6284 85.71 L 39.4957 85.8278 L 39.4957 85.8278 L 39.3261 85.9784 L 39.2887 86.0111 L 39.2736 86.0245 L 39.2412 86.0528 L 39.2114 86.077 L 39.2016 86.0844 L 39.1688 86.111 L 39.1676 86.112 L 39.1598 86.1181 L 39.1303 86.1388 L 39.1208 86.1459 L 39.0913 86.1666 L 39.0799 86.1743 L 39.0545 86.1894 L 39.0417 86.1975 L 39.0169 86.2122 L 39.0029 86.2202 L 38.9817 86.2302 L 38.9667 86.2379 L 38.9465 86.2475 L 38.9309 86.2544 L 38.9137 86.26 L 38.8979 86.2659 L 38.8824 86.271 L 38.8666 86.2756 L 38.866 86.2757 L 38.8406 86.2792 L 38.8253 86.2822 L 38.8247 86.2822 L 38.8101 86.2834 L 38.7912 86.281 L 38.7777 86.2803 L 38.7772 86.28 L 38.7649 86.2772 L 38.7543 86.2724 L 38.7406 86.2643 L 38.7321 86.2571 L 38.6912 86.2009 L 38.6421 86.1518 L 38.8951 85.8988 L 38.9564 85.8376 L 39.0613 85.7327 L 39.1588 85.6351 L 39.1588 85.6351 L 39.237 85.5569 L 39.3781 85.4158 L 39.3781 85.4158 L 39.425 85.3689 L 39.4768 85.3172 L 39.5006 85.2933 L 39.6659 85.1281 L 39.7328 85.0612 L 39.7372 85.0567 L 39.8755 84.9922 L 39.9387 84.9468 L 40.057 84.8277 L 40.0795 84.7967 L 40.0905 84.7856 L 40.1113 84.7572 L 40.1726 84.6433 L 40.1811 84.6128 L 40.1886 84.6053 L 40.1895 84.6045 L 40.341 84.4529 L 40.3619 84.432 L 40.4709 84.323 L 40.4709 84.323 L 40.5415 84.2524 L 40.5624 84.2316 L 40.6517 84.1422 L 40.8366 83.9573 L 40.8563 83.9376 L 40.8874 83.9065 L 40.8909 83.903 L 40.8909 83.903 L 41.0066 83.7874 L 41.1143 83.8906" fill="none" stroke="blue" stroke-width="0.04000" fill-rule="evenodd" fill-opacity="1.000"/>
    <path d="M 41.1143 83.8906 L 41.1197 83.8955 L 41.1397 83.9128 L 41.1407 83.914 L 41.1407 83.914 L 41.1538 83.9343 L 41.1546 83.9358 L 41.1547 83.9358 L 41.1646 83.9573 L 41.1658 83.9595 L 41.1668 83.9639 L 41.174 83.9872 L 41.174 83.9874 L 41.1778 84.0086 L 41.179 84.0142 L 41.179 84.0174 L 41.1803 84.0369 L 41.1818 84.0498 L 41.181 84.065 L 41.1794 84.0837 L 41.1786 84.0871 L 41.1744 84.1088 L 41.1697 84.1282 L 41.1693 84.1297 L 41.1669 84.1383 L 41.164 84.1509 L 41.1624 84.1548 L 41.1555 84.1705 L 41.1546 84.1726 L 41.1415 84.2026 L 41.1383 84.2097 L 41.1375 84.2116 L 41.1335 84.2208 L 41.1274 84.232 L 41.1172 84.2491 L 41.1009 84.2762 L 41.0905 84.2929 L 41.0828 84.3029 L 41.0654 84.3275 L 41.0649 84.3283 L 41.0592 84.3357 L 41.0352 84.3659 L 41.0351 84.3659 L 41.0347 84.3664 L 41.0332 84.368 L 41.0317 84.3697 L 41.0289 84.3727 L 40.9786 84.4263 L 40.9624 84.4434 L 40.8878 84.5155 L 40.8803 84.5227 L 40.8298 84.5716 L 40.7641 84.6352 L 40.733 84.6652 L 40.6976 84.6999 L 40.5926 84.8024 L 40.5197 84.8727 L 40.3928 84.9959 L 40.1801 85.2008 L 40.156 85.2238 L 40.1284 85.25 L 39.8998 85.4607 L 39.8006 85.5528 L 39.8006 85.5528 L 39.7118 85.6352 L 39.6284 85.71 L 39.4957 85.8278 L 39.4957 85.8278 L 39.3261 85.9784 L 39.2887 86.0111 L 39.2736 86.0245 L 39.2412 86.0528 L 39.2114 86.077 L 39.2016 86.0844 L 39.1688 86.111 L 39.1676 86.112 L 39.1598 86.1181 L 39.1303 86.1388 L 39.1208 86.1459 L 39.0913 86.1666 L 39.0799 86.1743 L 39.0545 86.1894 L 39.0417 86.1975 L 39.0169 86.2122 L 39.0029 86.2202 L 38.9817 86.2302 L 38.9667 86.2379 L 38.9465 86.2475 L 38.9309 86.2544 L 38.9137 86.26 L 38.8979 86.2659 L 38.8824 86.271 L 38.8666 86.2756 L 38.866 86.2757 L 38.8406 86.2792 L 38.8253 86.2822 L 38.8247 86.2822 L 38.8101 86.2834 L 38.7912 86.281 L 38.7777 86.2803 L 38.7772 86.28 L 38.7649 86.2772 L 38.7543 86.2724 L 38.7406 86.2643 L 38.7321 86.2571 L 38.6912 86.2009 L 38.6421 86.1518 L 38.8951 85.8988 L 38.9564 85.8376 L 39.0613 85.7327 L 39.1588 85.6351 L 39.1588 85.6351 L 39.237 85.5569 L 39.3781 85.4158 L 39.3781 85.4158 L 39.425 85.3689 L 39.4768 85.3172 L 39.5006 85.2933 L 39.6659 85.1281 L 39.7328 85.0612 L 39.7372 85.0567 L 39.8755 84.9922 L 39.9387 84.9468 L 40.057 84.8277 L 40.0795 84.7967 L 40.0905 84.7856 L 40.1113 84.7572 L 40.1726 84.6433 L 40.1811 84.6128 L 40.1886 84.6053 L 40.1895 84.6045 L 40.341 84.4529 L 40.3619 84.432 L 40.4709 84.323 L 40.4709 84.323 L 40.5415 84.2524 L 40.5624 84.2316 L 40.6517 84.1422 L 40.8366 83.9573 L 40.8563 83.9376 L 40.8874 83.9065 L 40.8909 83.903 L 40.8909 83.903 L 41.0066 83.7874 Z" fill="none" stroke="blue" stroke-width="0.05000" fill-rule="evenodd" fill-opacity="1.000"/>
  </g>
</svg>
