<?xml version="1.0" encoding="UTF-8" standalone="yes"?>
<svg xmlns="http://www.w3.org/2000/svg"
     xmlns:xlink="http://www.w3.org/1999/xlink"
     width="2020.0000mm" height="1600.0000mm"
     viewBox="0 0 202.000000 160.000000">
  <!--
    Build plate : 150.00 x 150.00 mm
    Coordinate  : 1 SVG unit = 1 mm
    Display zoom: 10x  (width/height = viewBox x 10)
    Hatch stroke: 0.04 mm = ~28 mm on screen at this zoom
    Legend panel: right margin (42 mm wide)
  -->
  <defs>
    <marker id="endArrow" markerWidth="2" markerHeight="1.4"
            refX="0" refY="0.7" orient="auto"
            markerUnits="strokeWidth">
      <polyline fill="darkblue" points="0,0 2,0.7 0,1.4 0.2,0.7"/>
    </marker>
  </defs>
  <!-- Background -->
  <rect x="0" y="0" width="202.000000" height="160.000000" fill="#f0f0f0" stroke="none"/>
  <!-- Build plate boundary (150 x 150 mm) -->
  <rect x="5.000000" y="5.000000" width="150.000000" height="150.000000"
        fill="#ffffff" stroke="#aaaaaa" stroke-width="0.2" stroke-dasharray="1,0.5"/>
  <!-- Build plate centre circle (r = 75.00 mm) -->
  <circle cx="80.000000" cy="80.000000" r="75.000000"
          fill="none" stroke="#bbbbbb" stroke-width="0.15" stroke-dasharray="0.8,0.4"/>
  <!-- Centre cross-hair -->
  <line x1="5.000000" y1="80.000000" x2="155.000000" y2="80.000000" stroke="#cccccc" stroke-width="0.1"/>
  <line x1="80.000000" y1="5.000000" x2="80.000000" y2="155.000000" stroke="#cccccc" stroke-width="0.1"/>
  <circle cx="80.000000" cy="80.000000" r="0.3" fill="#cccccc" stroke="none"/>
  <!-- Corner labels -->
  <text x="5.400000" y="4.600000" font-family="sans-serif" font-size="2" fill="#888888">0,0</text>
  <text x="154.600006" y="4.600000" font-family="sans-serif" font-size="2" fill="#888888" text-anchor="end">150,0</text>
  <text x="5.400000" y="157.199997" font-family="sans-serif" font-size="2" fill="#888888">0,150</text>
  <!-- Layer geometry -->
  <g id="geometry">
    <line x1="35.95908" y1="125.55756" x2="34.99845" y2="127.44291" stroke="green" stroke-width="0.04000"/>
    <line x1="35.97109" y1="125.75426" x2="35.11274" y2="127.43887" stroke="green" stroke-width="0.04000"/>
    <line x1="35.98309" y1="125.95097" x2="35.22703" y2="127.43484" stroke="green" stroke-width="0.04000"/>
    <line x1="35.99510" y1="126.14767" x2="35.34132" y2="127.43080" stroke="green" stroke-width="0.04000"/>
    <line x1="36.00711" y1="126.34438" x2="35.45560" y2="127.42676" stroke="green" stroke-width="0.04000"/>
    <line x1="36.00422" y1="126.57032" x2="35.56990" y2="127.42272" stroke="green" stroke-width="0.04000"/>
    <line x1="35.99152" y1="126.81552" x2="35.68419" y2="127.41869" stroke="green" stroke-width="0.04000"/>
    <line x1="35.97882" y1="127.06071" x2="35.79848" y2="127.41465" stroke="green" stroke-width="0.04000"/>
    <line x1="35.96640" y1="127.30534" x2="35.91109" y2="127.41389" stroke="green" stroke-width="0.04000"/>
    <line x1="35.94521" y1="125.36452" x2="34.90682" y2="127.40247" stroke="green" stroke-width="0.04000"/>
    <line x1="35.92363" y1="125.18659" x2="34.83366" y2="127.32579" stroke="green" stroke-width="0.04000"/>
    <line x1="35.90206" y1="125.00867" x2="34.76049" y2="127.24912" stroke="green" stroke-width="0.04000"/>
    <line x1="35.88048" y1="124.83075" x2="34.68732" y2="127.17246" stroke="green" stroke-width="0.04000"/>
    <line x1="35.85891" y1="124.65283" x2="34.61415" y2="127.09579" stroke="green" stroke-width="0.04000"/>
    <line x1="35.83789" y1="124.47380" x2="34.54098" y2="127.01912" stroke="green" stroke-width="0.04000"/>
    <line x1="35.83020" y1="124.26862" x2="34.46781" y2="126.94245" stroke="green" stroke-width="0.04000"/>
    <line x1="35.82251" y1="124.06344" x2="34.39465" y2="126.86578" stroke="green" stroke-width="0.04000"/>
    <line x1="35.81163" y1="123.86452" x2="34.32140" y2="126.78927" stroke="green" stroke-width="0.04000"/>
    <line x1="35.78448" y1="123.69755" x2="34.26746" y2="126.67486" stroke="green" stroke-width="0.04000"/>
    <line x1="35.75732" y1="123.53057" x2="34.21534" y2="126.55688" stroke="green" stroke-width="0.04000"/>
    <line x1="35.73704" y1="123.35013" x2="34.16232" y2="126.44068" stroke="green" stroke-width="0.04000"/>
    <line x1="35.72438" y1="123.15468" x2="34.10929" y2="126.32448" stroke="green" stroke-width="0.04000"/>
    <line x1="35.71173" y1="122.95924" x2="34.05627" y2="126.20828" stroke="green" stroke-width="0.04000"/>
    <line x1="35.69908" y1="122.76381" x2="34.00324" y2="126.09209" stroke="green" stroke-width="0.04000"/>
    <line x1="35.68613" y1="122.56895" x2="33.95022" y2="125.97588" stroke="green" stroke-width="0.04000"/>
    <line x1="35.66954" y1="122.38123" x2="33.89719" y2="125.85968" stroke="green" stroke-width="0.04000"/>
    <line x1="35.65774" y1="122.18414" x2="33.84489" y2="125.74204" stroke="green" stroke-width="0.04000"/>
    <line x1="35.63390" y1="122.01066" x2="33.79274" y2="125.62413" stroke="green" stroke-width="0.04000"/>
    <line x1="35.61006" y1="121.83717" x2="33.74059" y2="125.50623" stroke="green" stroke-width="0.04000"/>
    <line x1="35.58623" y1="121.66368" x2="33.68916" y2="125.38687" stroke="green" stroke-width="0.04000"/>
    <line x1="35.56052" y1="121.49386" x2="33.64023" y2="125.26265" stroke="green" stroke-width="0.04000"/>
    <line x1="35.53367" y1="121.32630" x2="33.59129" y2="125.13843" stroke="green" stroke-width="0.04000"/>
    <line x1="35.50524" y1="121.16181" x2="33.54235" y2="125.01420" stroke="green" stroke-width="0.04000"/>
    <line x1="35.47093" y1="121.00890" x2="33.49268" y2="124.89142" stroke="green" stroke-width="0.04000"/>
    <line x1="35.43967" y1="120.84996" x2="33.44005" y2="124.77444" stroke="green" stroke-width="0.04000"/>
    <line x1="35.40842" y1="120.69103" x2="33.38742" y2="124.65748" stroke="green" stroke-width="0.04000"/>
    <line x1="35.37717" y1="120.53210" x2="33.33479" y2="124.54050" stroke="green" stroke-width="0.04000"/>
    <line x1="35.34592" y1="120.37317" x2="33.28215" y2="124.42353" stroke="green" stroke-width="0.04000"/>
    <line x1="35.31467" y1="120.21423" x2="33.22952" y2="124.30656" stroke="green" stroke-width="0.04000"/>
    <line x1="35.28179" y1="120.05849" x2="33.17689" y2="124.18958" stroke="green" stroke-width="0.04000"/>
    <line x1="35.24734" y1="119.90583" x2="33.12188" y2="124.07729" stroke="green" stroke-width="0.04000"/>
    <line x1="35.21786" y1="119.74341" x2="33.06459" y2="123.96945" stroke="green" stroke-width="0.04000"/>
    <line x1="35.18839" y1="119.58099" x2="33.01022" y2="123.85589" stroke="green" stroke-width="0.04000"/>
    <line x1="35.15891" y1="119.41857" x2="32.95668" y2="123.74069" stroke="green" stroke-width="0.04000"/>
    <line x1="35.12944" y1="119.25615" x2="32.90372" y2="123.62437" stroke="green" stroke-width="0.04000"/>
    <line x1="35.09750" y1="119.09856" x2="32.85076" y2="123.50804" stroke="green" stroke-width="0.04000"/>
    <line x1="35.06372" y1="118.94460" x2="32.79780" y2="123.39172" stroke="green" stroke-width="0.04000"/>
    <line x1="35.03017" y1="118.79015" x2="32.74483" y2="123.27539" stroke="green" stroke-width="0.04000"/>
    <line x1="34.99850" y1="118.63206" x2="32.69187" y2="123.15907" stroke="green" stroke-width="0.04000"/>
    <line x1="34.96682" y1="118.47396" x2="32.63891" y2="123.04274" stroke="green" stroke-width="0.04000"/>
    <line x1="34.93514" y1="118.31586" x2="32.58550" y2="122.92730" stroke="green" stroke-width="0.04000"/>
    <line x1="34.90228" y1="118.16010" x2="32.53207" y2="122.81187" stroke="green" stroke-width="0.04000"/>
    <line x1="34.85974" y1="118.02332" x2="32.47865" y2="122.69646" stroke="green" stroke-width="0.04000"/>
    <line x1="34.81720" y1="117.88653" x2="32.42522" y2="122.58105" stroke="green" stroke-width="0.04000"/>
    <line x1="34.77702" y1="117.74512" x2="32.37180" y2="122.46564" stroke="green" stroke-width="0.04000"/>
    <line x1="34.73779" y1="117.60185" x2="32.31837" y2="122.35022" stroke="green" stroke-width="0.04000"/>
    <line x1="34.69855" y1="117.45858" x2="32.26495" y2="122.23480" stroke="green" stroke-width="0.04000"/>
    <line x1="34.65932" y1="117.31531" x2="32.21544" y2="122.11170" stroke="green" stroke-width="0.04000"/>
    <line x1="34.61949" y1="117.17320" x2="32.16257" y2="121.99519" stroke="green" stroke-width="0.04000"/>
    <line x1="34.57857" y1="117.03325" x2="32.10723" y2="121.88353" stroke="green" stroke-width="0.04000"/>
    <line x1="34.53765" y1="116.89330" x2="32.04306" y2="121.78921" stroke="green" stroke-width="0.04000"/>
    <line x1="34.49384" y1="116.75903" x2="31.97889" y2="121.69488" stroke="green" stroke-width="0.04000"/>
    <line x1="34.44947" y1="116.62582" x2="31.91472" y2="121.60054" stroke="green" stroke-width="0.04000"/>
    <line x1="34.40511" y1="116.49261" x2="31.85055" y2="121.50621" stroke="green" stroke-width="0.04000"/>
    <line x1="34.35394" y1="116.37276" x2="31.78638" y2="121.41188" stroke="green" stroke-width="0.04000"/>
    <line x1="34.30080" y1="116.25681" x2="31.72222" y2="121.31756" stroke="green" stroke-width="0.04000"/>
    <line x1="34.24765" y1="116.14084" x2="31.65340" y2="121.23235" stroke="green" stroke-width="0.04000"/>
    <line x1="34.19450" y1="116.02488" x2="31.58272" y2="121.15079" stroke="green" stroke-width="0.04000"/>
    <line x1="34.13440" y1="115.92257" x2="31.51204" y2="121.06924" stroke="green" stroke-width="0.04000"/>
    <line x1="34.07089" y1="115.82693" x2="31.44135" y2="120.98769" stroke="green" stroke-width="0.04000"/>
    <line x1="34.00739" y1="115.73129" x2="31.37067" y2="120.90614" stroke="green" stroke-width="0.04000"/>
    <line x1="33.94389" y1="115.63564" x2="31.30000" y2="120.82459" stroke="green" stroke-width="0.04000"/>
    <line x1="33.88040" y1="115.54000" x2="31.23348" y2="120.73488" stroke="green" stroke-width="0.04000"/>
    <line x1="33.81813" y1="115.44193" x2="31.16716" y2="120.64474" stroke="green" stroke-width="0.04000"/>
    <line x1="33.75587" y1="115.34385" x2="31.10045" y2="120.55541" stroke="green" stroke-width="0.04000"/>
    <line x1="33.69361" y1="115.24577" x2="31.03191" y2="120.46966" stroke="green" stroke-width="0.04000"/>
    <line x1="33.62925" y1="115.15182" x2="30.96338" y2="120.38390" stroke="green" stroke-width="0.04000"/>
    <line x1="33.56244" y1="115.06268" x2="30.90402" y2="120.28011" stroke="green" stroke-width="0.04000"/>
    <line x1="33.49562" y1="114.97354" x2="30.84547" y2="120.17476" stroke="green" stroke-width="0.04000"/>
    <line x1="33.39888" y1="114.94315" x2="30.78692" y2="120.06940" stroke="green" stroke-width="0.04000"/>
    <line x1="33.30104" y1="114.91491" x2="30.72837" y2="119.96404" stroke="green" stroke-width="0.04000"/>
    <line x1="33.20319" y1="114.88667" x2="30.66982" y2="119.85869" stroke="green" stroke-width="0.04000"/>
    <line x1="33.10535" y1="114.85842" x2="30.61232" y2="119.75127" stroke="green" stroke-width="0.04000"/>
    <line x1="33.00751" y1="114.83018" x2="30.56094" y2="119.63183" stroke="green" stroke-width="0.04000"/>
    <line x1="32.90966" y1="114.80194" x2="30.50957" y2="119.51240" stroke="green" stroke-width="0.04000"/>
    <line x1="32.81182" y1="114.77370" x2="30.45819" y2="119.39296" stroke="green" stroke-width="0.04000"/>
    <line x1="32.69709" y1="114.77859" x2="30.40681" y2="119.27352" stroke="green" stroke-width="0.04000"/>
    <line x1="32.58215" y1="114.78392" x2="30.35544" y2="119.15408" stroke="green" stroke-width="0.04000"/>
    <line x1="32.45169" y1="114.81969" x2="30.42389" y2="118.79946" stroke="green" stroke-width="0.04000"/>
    <line x1="32.24989" y1="114.99548" x2="30.46886" y2="118.49094" stroke="green" stroke-width="0.04000"/>
    <line x1="32.05983" y1="115.14822" x2="30.51383" y2="118.18242" stroke="green" stroke-width="0.04000"/>
    <line x1="31.86977" y1="115.30097" x2="30.55880" y2="117.87390" stroke="green" stroke-width="0.04000"/>
    <line x1="31.67970" y1="115.45372" x2="30.91484" y2="116.95486" stroke="green" stroke-width="0.04000"/>
    <line x1="52.96730" y1="113.54649" x2="52.39602" y2="114.66769" stroke="green" stroke-width="0.04000"/>
    <line x1="53.02917" y1="113.64536" x2="52.50975" y2="114.66477" stroke="green" stroke-width="0.04000"/>
    <line x1="52.90544" y1="113.44765" x2="52.29959" y2="114.63668" stroke="green" stroke-width="0.04000"/>
    <line x1="52.84357" y1="113.34879" x2="52.20299" y2="114.60602" stroke="green" stroke-width="0.04000"/>
    <line x1="53.09024" y1="113.74575" x2="52.65242" y2="114.60503" stroke="green" stroke-width="0.04000"/>
    <line x1="52.78171" y1="113.24994" x2="52.10638" y2="114.57536" stroke="green" stroke-width="0.04000"/>
    <line x1="53.14854" y1="113.85161" x2="52.79509" y2="114.54529" stroke="green" stroke-width="0.04000"/>
    <line x1="52.72162" y1="113.14761" x2="52.00977" y2="114.54469" stroke="green" stroke-width="0.04000"/>
    <line x1="52.66380" y1="113.04082" x2="51.91315" y2="114.51403" stroke="green" stroke-width="0.04000"/>
    <line x1="53.20683" y1="113.95747" x2="52.93777" y2="114.48554" stroke="green" stroke-width="0.04000"/>
    <line x1="52.60597" y1="112.93404" x2="51.81655" y2="114.48337" stroke="green" stroke-width="0.04000"/>
    <line x1="52.54548" y1="112.83250" x2="51.71994" y2="114.45271" stroke="green" stroke-width="0.04000"/>
    <line x1="53.26513" y1="114.06332" x2="53.08044" y2="114.42580" stroke="green" stroke-width="0.04000"/>
    <line x1="52.46362" y1="112.77289" x2="51.62397" y2="114.42079" stroke="green" stroke-width="0.04000"/>
    <line x1="52.38175" y1="112.71329" x2="51.53167" y2="114.38168" stroke="green" stroke-width="0.04000"/>
    <line x1="52.29989" y1="112.65368" x2="51.43937" y2="114.34255" stroke="green" stroke-width="0.04000"/>
    <line x1="52.21803" y1="112.59408" x2="51.34613" y2="114.30527" stroke="green" stroke-width="0.04000"/>
    <line x1="52.13617" y1="112.53448" x2="51.25100" y2="114.27171" stroke="green" stroke-width="0.04000"/>
    <line x1="52.05350" y1="112.47644" x2="51.15588" y2="114.23813" stroke="green" stroke-width="0.04000"/>
    <line x1="51.96558" y1="112.42874" x2="51.06075" y2="114.20455" stroke="green" stroke-width="0.04000"/>
    <line x1="51.87764" y1="112.38103" x2="50.96562" y2="114.17097" stroke="green" stroke-width="0.04000"/>
    <line x1="51.78972" y1="112.33334" x2="50.87050" y2="114.13741" stroke="green" stroke-width="0.04000"/>
    <line x1="51.70179" y1="112.28563" x2="50.77537" y2="114.10384" stroke="green" stroke-width="0.04000"/>
    <line x1="51.61386" y1="112.23793" x2="50.67989" y2="114.07096" stroke="green" stroke-width="0.04000"/>
    <line x1="51.52594" y1="112.19023" x2="50.58441" y2="114.03809" stroke="green" stroke-width="0.04000"/>
    <line x1="51.43801" y1="112.14253" x2="50.48892" y2="114.00521" stroke="green" stroke-width="0.04000"/>
    <line x1="51.35004" y1="112.09492" x2="50.39344" y2="113.97234" stroke="green" stroke-width="0.04000"/>
    <line x1="51.26203" y1="112.04736" x2="50.29699" y2="113.94136" stroke="green" stroke-width="0.04000"/>
    <line x1="51.17166" y1="112.00446" x2="50.19851" y2="113.91438" stroke="green" stroke-width="0.04000"/>
    <line x1="51.08001" y1="111.96406" x2="50.10002" y2="113.88741" stroke="green" stroke-width="0.04000"/>
    <line x1="50.98837" y1="111.92366" x2="50.00153" y2="113.86042" stroke="green" stroke-width="0.04000"/>
    <line x1="50.89672" y1="111.88326" x2="49.90305" y2="113.83344" stroke="green" stroke-width="0.04000"/>
    <line x1="50.80507" y1="111.84285" x2="49.80265" y2="113.81023" stroke="green" stroke-width="0.04000"/>
    <line x1="50.71492" y1="111.79951" x2="49.70224" y2="113.78703" stroke="green" stroke-width="0.04000"/>
    <line x1="50.62489" y1="111.75594" x2="49.60182" y2="113.76383" stroke="green" stroke-width="0.04000"/>
    <line x1="50.53486" y1="111.71236" x2="49.50141" y2="113.74063" stroke="green" stroke-width="0.04000"/>
    <line x1="50.44484" y1="111.66878" x2="49.40099" y2="113.71744" stroke="green" stroke-width="0.04000"/>
    <line x1="50.35310" y1="111.62855" x2="49.30058" y2="113.69424" stroke="green" stroke-width="0.04000"/>
    <line x1="50.25996" y1="111.59109" x2="49.20017" y2="113.67104" stroke="green" stroke-width="0.04000"/>
    <line x1="50.16814" y1="111.55103" x2="49.09975" y2="113.64784" stroke="green" stroke-width="0.04000"/>
    <line x1="50.07847" y1="111.50674" x2="48.99795" y2="113.62738" stroke="green" stroke-width="0.04000"/>
    <line x1="49.98880" y1="111.46246" x2="48.89525" y2="113.60867" stroke="green" stroke-width="0.04000"/>
    <line x1="49.89913" y1="111.41817" x2="48.79356" y2="113.58797" stroke="green" stroke-width="0.04000"/>
    <line x1="49.80946" y1="111.37389" x2="48.69228" y2="113.56648" stroke="green" stroke-width="0.04000"/>
    <line x1="49.71980" y1="111.32960" x2="48.59100" y2="113.54499" stroke="green" stroke-width="0.04000"/>
    <line x1="49.63013" y1="111.28532" x2="48.48972" y2="113.52349" stroke="green" stroke-width="0.04000"/>
    <line x1="49.54018" y1="111.24158" x2="48.38844" y2="113.50199" stroke="green" stroke-width="0.04000"/>
    <line x1="49.44835" y1="111.20154" x2="48.28716" y2="113.48050" stroke="green" stroke-width="0.04000"/>
    <line x1="49.35652" y1="111.16150" x2="48.18588" y2="113.45901" stroke="green" stroke-width="0.04000"/>
    <line x1="49.26469" y1="111.12145" x2="48.08460" y2="113.43751" stroke="green" stroke-width="0.04000"/>
    <line x1="49.17286" y1="111.08141" x2="47.98332" y2="113.41602" stroke="green" stroke-width="0.04000"/>
    <line x1="49.08103" y1="111.04137" x2="47.88657" y2="113.38563" stroke="green" stroke-width="0.04000"/>
    <line x1="48.98920" y1="111.00133" x2="47.79041" y2="113.35408" stroke="green" stroke-width="0.04000"/>
    <line x1="48.89737" y1="110.96128" x2="47.69029" y2="113.33031" stroke="green" stroke-width="0.04000"/>
    <line x1="48.80554" y1="110.92124" x2="47.58876" y2="113.30930" stroke="green" stroke-width="0.04000"/>
    <line x1="48.71371" y1="110.88120" x2="47.48723" y2="113.28830" stroke="green" stroke-width="0.04000"/>
    <line x1="48.62457" y1="110.83587" x2="47.38570" y2="113.26730" stroke="green" stroke-width="0.04000"/>
    <line x1="48.53360" y1="110.79415" x2="47.28417" y2="113.24629" stroke="green" stroke-width="0.04000"/>
    <line x1="48.44334" y1="110.75102" x2="47.18264" y2="113.22529" stroke="green" stroke-width="0.04000"/>
    <line x1="48.35350" y1="110.70707" x2="47.08111" y2="113.20428" stroke="green" stroke-width="0.04000"/>
    <line x1="48.26366" y1="110.66312" x2="46.97958" y2="113.18328" stroke="green" stroke-width="0.04000"/>
    <line x1="48.17383" y1="110.61916" x2="46.87805" y2="113.16228" stroke="green" stroke-width="0.04000"/>
    <line x1="48.08399" y1="110.57521" x2="46.77995" y2="113.13454" stroke="green" stroke-width="0.04000"/>
    <line x1="47.99416" y1="110.53126" x2="46.68229" y2="113.10595" stroke="green" stroke-width="0.04000"/>
    <line x1="47.90432" y1="110.48730" x2="46.58462" y2="113.07735" stroke="green" stroke-width="0.04000"/>
    <line x1="47.81446" y1="110.44338" x2="46.48696" y2="113.04876" stroke="green" stroke-width="0.04000"/>
    <line x1="47.72408" y1="110.40050" x2="46.38929" y2="113.02016" stroke="green" stroke-width="0.04000"/>
    <line x1="47.63370" y1="110.35762" x2="46.29163" y2="112.99157" stroke="green" stroke-width="0.04000"/>
    <line x1="47.54621" y1="110.30905" x2="46.19397" y2="112.96297" stroke="green" stroke-width="0.04000"/>
    <line x1="47.46212" y1="110.25381" x2="46.09630" y2="112.93438" stroke="green" stroke-width="0.04000"/>
    <line x1="47.37804" y1="110.19857" x2="45.99864" y2="112.90578" stroke="green" stroke-width="0.04000"/>
    <line x1="47.29395" y1="110.14333" x2="45.89882" y2="112.88144" stroke="green" stroke-width="0.04000"/>
    <line x1="47.20986" y1="110.08810" x2="45.80040" y2="112.85432" stroke="green" stroke-width="0.04000"/>
    <line x1="47.12578" y1="110.03285" x2="45.70990" y2="112.81166" stroke="green" stroke-width="0.04000"/>
    <line x1="47.04169" y1="109.97762" x2="45.61941" y2="112.76900" stroke="green" stroke-width="0.04000"/>
    <line x1="46.95481" y1="109.92785" x2="45.52891" y2="112.72634" stroke="green" stroke-width="0.04000"/>
    <line x1="46.86702" y1="109.87988" x2="45.43842" y2="112.68368" stroke="green" stroke-width="0.04000"/>
    <line x1="46.77923" y1="109.83191" x2="45.34792" y2="112.64101" stroke="green" stroke-width="0.04000"/>
    <line x1="46.69144" y1="109.78394" x2="45.25871" y2="112.59584" stroke="green" stroke-width="0.04000"/>
    <line x1="46.60365" y1="109.73597" x2="45.17002" y2="112.54961" stroke="green" stroke-width="0.04000"/>
    <line x1="46.51586" y1="109.68800" x2="45.08135" y2="112.50338" stroke="green" stroke-width="0.04000"/>
    <line x1="46.42807" y1="109.64004" x2="44.99267" y2="112.45715" stroke="green" stroke-width="0.04000"/>
    <line x1="46.34027" y1="109.59206" x2="44.90400" y2="112.41093" stroke="green" stroke-width="0.04000"/>
    <line x1="46.25201" y1="109.54502" x2="44.81532" y2="112.36470" stroke="green" stroke-width="0.04000"/>
    <line x1="46.16363" y1="109.49821" x2="44.72656" y2="112.31863" stroke="green" stroke-width="0.04000"/>
    <line x1="46.07772" y1="109.44654" x2="44.63774" y2="112.27267" stroke="green" stroke-width="0.04000"/>
    <line x1="45.99248" y1="109.39358" x2="44.54893" y2="112.22671" stroke="green" stroke-width="0.04000"/>
    <line x1="45.90723" y1="109.34061" x2="44.46135" y2="112.17831" stroke="green" stroke-width="0.04000"/>
    <line x1="45.83101" y1="109.26995" x2="44.37584" y2="112.12586" stroke="green" stroke-width="0.04000"/>
    <line x1="45.75672" y1="109.19548" x2="44.29034" y2="112.07341" stroke="green" stroke-width="0.04000"/>
    <line x1="45.68243" y1="109.12100" x2="44.20483" y2="112.02096" stroke="green" stroke-width="0.04000"/>
    <line x1="45.60814" y1="109.04653" x2="44.12075" y2="111.96571" stroke="green" stroke-width="0.04000"/>
    <line x1="45.53386" y1="108.97206" x2="44.03802" y2="111.90781" stroke="green" stroke-width="0.04000"/>
    <line x1="45.46141" y1="108.89397" x2="43.95529" y2="111.84991" stroke="green" stroke-width="0.04000"/>
    <line x1="45.39189" y1="108.81014" x2="43.87256" y2="111.79200" stroke="green" stroke-width="0.04000"/>
    <line x1="45.32237" y1="108.72632" x2="43.78983" y2="111.73410" stroke="green" stroke-width="0.04000"/>
    <line x1="45.25245" y1="108.64329" x2="43.70766" y2="111.67510" stroke="green" stroke-width="0.04000"/>
    <line x1="45.18229" y1="108.56070" x2="43.62643" y2="111.61427" stroke="green" stroke-width="0.04000"/>
    <line x1="45.11214" y1="108.47812" x2="43.54519" y2="111.55343" stroke="green" stroke-width="0.04000"/>
    <line x1="45.04198" y1="108.39553" x2="43.46395" y2="111.49259" stroke="green" stroke-width="0.04000"/>
    <line x1="44.97183" y1="108.31294" x2="43.38272" y2="111.43176" stroke="green" stroke-width="0.04000"/>
    <line x1="44.90183" y1="108.23006" x2="43.30148" y2="111.37092" stroke="green" stroke-width="0.04000"/>
    <line x1="44.83206" y1="108.14673" x2="43.22032" y2="111.30994" stroke="green" stroke-width="0.04000"/>
    <line x1="44.76228" y1="108.06340" x2="43.13949" y2="111.24831" stroke="green" stroke-width="0.04000"/>
    <line x1="44.69251" y1="107.98007" x2="43.05866" y2="111.18668" stroke="green" stroke-width="0.04000"/>
    <line x1="44.62273" y1="107.89674" x2="42.97783" y2="111.12505" stroke="green" stroke-width="0.04000"/>
    <line x1="44.55296" y1="107.81342" x2="42.89544" y2="111.06647" stroke="green" stroke-width="0.04000"/>
    <line x1="44.48318" y1="107.73009" x2="42.81303" y2="111.00795" stroke="green" stroke-width="0.04000"/>
    <line x1="44.41208" y1="107.64938" x2="42.73062" y2="110.94943" stroke="green" stroke-width="0.04000"/>
    <line x1="44.33951" y1="107.57153" x2="42.65150" y2="110.88443" stroke="green" stroke-width="0.04000"/>
    <line x1="44.26044" y1="107.50644" x2="42.57294" y2="110.81834" stroke="green" stroke-width="0.04000"/>
    <line x1="44.18137" y1="107.44135" x2="42.49438" y2="110.75226" stroke="green" stroke-width="0.04000"/>
    <line x1="44.10434" y1="107.37228" x2="42.41582" y2="110.68617" stroke="green" stroke-width="0.04000"/>
    <line x1="44.02792" y1="107.30199" x2="42.33726" y2="110.62009" stroke="green" stroke-width="0.04000"/>
    <line x1="43.95150" y1="107.23170" x2="42.25870" y2="110.55400" stroke="green" stroke-width="0.04000"/>
    <line x1="43.87508" y1="107.16141" x2="42.18402" y2="110.48030" stroke="green" stroke-width="0.04000"/>
    <line x1="43.79866" y1="107.09113" x2="42.10986" y2="110.40559" stroke="green" stroke-width="0.04000"/>
    <line x1="43.72224" y1="107.02084" x2="42.03569" y2="110.33089" stroke="green" stroke-width="0.04000"/>
    <line x1="43.64582" y1="106.95055" x2="41.96152" y2="110.25618" stroke="green" stroke-width="0.04000"/>
    <line x1="43.55619" y1="106.90618" x2="41.88735" y2="110.18147" stroke="green" stroke-width="0.04000"/>
    <line x1="43.46045" y1="106.87382" x2="41.81318" y2="110.10676" stroke="green" stroke-width="0.04000"/>
    <line x1="43.36471" y1="106.84145" x2="41.73902" y2="110.03205" stroke="green" stroke-width="0.04000"/>
    <line x1="43.26897" y1="106.80909" x2="41.66406" y2="109.95890" stroke="green" stroke-width="0.04000"/>
    <line x1="43.17323" y1="106.77673" x2="41.58894" y2="109.88606" stroke="green" stroke-width="0.04000"/>
    <line x1="43.07748" y1="106.74436" x2="41.51382" y2="109.81323" stroke="green" stroke-width="0.04000"/>
    <line x1="42.98174" y1="106.71200" x2="41.44058" y2="109.73669" stroke="green" stroke-width="0.04000"/>
    <line x1="42.88600" y1="106.67963" x2="41.36770" y2="109.65945" stroke="green" stroke-width="0.04000"/>
    <line x1="42.79657" y1="106.63487" x2="41.30223" y2="109.56767" stroke="green" stroke-width="0.04000"/>
    <line x1="42.70663" y1="106.59113" x2="41.23844" y2="109.47262" stroke="green" stroke-width="0.04000"/>
    <line x1="42.61001" y1="106.56048" x2="41.17464" y2="109.37756" stroke="green" stroke-width="0.04000"/>
    <line x1="42.50095" y1="106.55426" x2="41.11084" y2="109.28249" stroke="green" stroke-width="0.04000"/>
    <line x1="42.37995" y1="106.57146" x2="41.04704" y2="109.18744" stroke="green" stroke-width="0.04000"/>
    <line x1="42.25896" y1="106.58865" x2="40.98325" y2="109.09238" stroke="green" stroke-width="0.04000"/>
    <line x1="42.13796" y1="106.60585" x2="40.91945" y2="108.99731" stroke="green" stroke-width="0.04000"/>
    <line x1="42.01697" y1="106.62305" x2="40.85565" y2="108.90226" stroke="green" stroke-width="0.04000"/>
    <line x1="41.89597" y1="106.64024" x2="40.78944" y2="108.81194" stroke="green" stroke-width="0.04000"/>
    <line x1="41.77498" y1="106.65744" x2="40.72296" y2="108.72215" stroke="green" stroke-width="0.04000"/>
    <line x1="41.65313" y1="106.67631" x2="40.65648" y2="108.63235" stroke="green" stroke-width="0.04000"/>
    <line x1="41.52890" y1="106.69986" x2="40.62933" y2="108.46537" stroke="green" stroke-width="0.04000"/>
    <line x1="41.40467" y1="106.72341" x2="40.62215" y2="108.25918" stroke="green" stroke-width="0.04000"/>
    <line x1="41.25005" y1="106.80660" x2="40.61498" y2="108.05299" stroke="green" stroke-width="0.04000"/>
    <line x1="40.97156" y1="107.13290" x2="40.60781" y2="107.84679" stroke="green" stroke-width="0.04000"/>
    <line x1="40.69636" y1="107.45274" x2="40.60743" y2="107.62728" stroke="green" stroke-width="0.04000"/>
    <path d="M 33.4933 114.97 L 33.6601 115.193 L 33.8801 115.54 L 34.1771 115.987 L 34.3951 116.463 L 34.5311 116.871 L 34.6339 117.222 L 34.8049 117.847 L 34.9069 118.175 L 35.0338 118.808 L 35.1168 119.187 L 35.2543 119.944 L 35.2941 120.11 L 35.4906 121.109 L 35.5101 121.179 L 35.5771 121.597 L 35.6716 122.285 L 35.6694 122.386 L 35.6873 122.581 L 35.743 123.443 L 35.8161 123.892 L 35.8382 124.482 L 35.95 125.404 L 35.9505 125.418 L 35.9518 125.438 L 35.9518 125.438 L 36.0119 126.422 L 35.9673 127.283 L 35.962 127.414 L 35.8116 127.414 L 34.9472 127.445 L 34.3812 126.852 L 34.3119 126.779 L 34.2441 126.62 L 33.8888 125.841 L 33.7003 125.415 L 33.5031 124.915 L 33.1512 124.132 L 33.0541 123.95 L 32.9694 123.769 L 32.6373 123.039 L 32.2436 122.189 L 32.2057 122.085 L 32.1132 121.892 L 31.7038 121.291 L 31.2966 120.821 L 31.1129 120.571 L 30.9579 120.377 L 30.6198 119.769 L 30.3386 119.115 L 30.4191 118.832 L 30.5595 117.869 L 30.5621 117.858 L 30.5619 117.854 L 30.9666 116.823 L 31.0554 116.484 L 31.4648 115.869 L 31.6755 115.457 L 32.2639 114.984 L 32.4875 114.788 L 32.8106 114.773 L 33.4933 114.97" fill="none" stroke="blue" stroke-width="0.04000" fill-rule="evenodd" fill-opacity="1.000"/>
    <path d="M 42.7442 106.603 L 42.8505 106.668 L 43.6216 106.928 L 44.1629 107.426 L 44.3442 107.575 L 44.4523 107.693 L 44.9307 108.265 L 45.297 108.696 L 45.4883 108.926 L 45.8921 109.331 L 46.145 109.488 L 46.3227 109.582 L 47.0209 109.964 L 47.5849 110.334 L 47.8176 110.445 L 48.4998 110.779 L 48.6252 110.836 L 48.681 110.867 L 49.5521 111.247 L 50.2025 111.568 L 50.404 111.649 L 50.7982 111.84 L 51.2313 112.031 L 51.4024 112.123 L 52.0651 112.483 L 52.5546 112.839 L 52.747 113.194 L 53.0774 113.722 L 53.2781 114.087 L 53.1952 114.378 L 52.4556 114.687 L 52.3661 114.658 L 51.6376 114.427 L 51.3778 114.316 L 50.776 114.104 L 50.3287 113.95 L 49.9024 113.833 L 49.0569 113.638 L 49.0101 113.63 L 48.8653 113.603 L 47.9716 113.414 L 47.7652 113.346 L 46.8657 113.16 L 46.8559 113.155 L 46.79 113.137 L 45.9759 112.899 L 45.8191 112.863 L 45.3212 112.628 L 44.7785 112.346 L 44.4934 112.198 L 44.1632 111.995 L 43.738 111.698 L 43.2345 111.321 L 42.9764 111.124 L 42.7187 110.941 L 42.2495 110.546 L 41.7264 110.019 L 41.5017 109.801 L 41.3543 109.645 L 40.8493 108.893 L 40.6341 108.602 L 40.6032 107.715 L 40.6113 107.547 L 40.7362 107.409 L 41.3049 106.742 L 41.6858 106.67 L 42.5627 106.545 L 42.7442 106.603" fill="none" stroke="blue" stroke-width="0.04000" fill-rule="evenodd" fill-opacity="1.000"/>
  </g>
</svg>
