<?xml version="1.0" encoding="UTF-8" standalone="yes"?>
<svg xmlns="http://www.w3.org/2000/svg"
     xmlns:xlink="http://www.w3.org/1999/xlink"
     width="2020.0000mm" height="1600.0000mm"
     viewBox="0 0 202.000000 160.000000">
  <!--
    Build plate : 150.00 x 150.00 mm
    Coordinate  : 1 SVG unit = 1 mm
    Display zoom: 10x  (width/height = viewBox x 10)
    Hatch stroke: 0.04 mm = ~28 mm on screen at this zoom
    Legend panel: right margin (42 mm wide)
  -->
  <defs>
    <marker id="endArrow" markerWidth="2" markerHeight="1.4"
            refX="0" refY="0.7" orient="auto"
            markerUnits="strokeWidth">
      <polyline fill="darkblue" points="0,0 2,0.7 0,1.4 0.2,0.7"/>
    </marker>
  </defs>
  <!-- Background -->
  <rect x="0" y="0" width="202.000000" height="160.000000" fill="#f0f0f0" stroke="none"/>
  <!-- Build plate boundary (150 x 150 mm) -->
  <rect x="5.000000" y="5.000000" width="150.000000" height="150.000000"
        fill="#ffffff" stroke="#aaaaaa" stroke-width="0.2" stroke-dasharray="1,0.5"/>
  <!-- Build plate centre circle (r = 75.00 mm) -->
  <circle cx="80.000000" cy="80.000000" r="75.000000"
          fill="none" stroke="#bbbbbb" stroke-width="0.15" stroke-dasharray="0.8,0.4"/>
  <!-- Centre cross-hair -->
  <line x1="5.000000" y1="80.000000" x2="155.000000" y2="80.000000" stroke="#cccccc" stroke-width="0.1"/>
  <line x1="80.000000" y1="5.000000" x2="80.000000" y2="155.000000" stroke="#cccccc" stroke-width="0.1"/>
  <circle cx="80.000000" cy="80.000000" r="0.3" fill="#cccccc" stroke="none"/>
  <!-- Corner labels -->
  <text x="5.400000" y="4.600000" font-family="sans-serif" font-size="2" fill="#888888">0,0</text>
  <text x="154.600006" y="4.600000" font-family="sans-serif" font-size="2" fill="#888888" text-anchor="end">150,0</text>
  <text x="5.400000" y="157.199997" font-family="sans-serif" font-size="2" fill="#888888">0,150</text>
  <!-- Layer geometry -->
  <g id="geometry">
    <line x1="51.17794" y1="115.77524" x2="51.22837" y2="115.74249" stroke="green" stroke-width="0.04000"/>
    <line x1="51.09920" y1="115.70714" x2="51.23236" y2="115.62067" stroke="green" stroke-width="0.04000"/>
    <line x1="51.02630" y1="115.63525" x2="51.25453" y2="115.48703" stroke="green" stroke-width="0.04000"/>
    <line x1="50.95841" y1="115.56010" x2="51.27670" y2="115.35340" stroke="green" stroke-width="0.04000"/>
    <line x1="50.89052" y1="115.48495" x2="51.29887" y2="115.21976" stroke="green" stroke-width="0.04000"/>
    <line x1="50.82264" y1="115.40980" x2="51.32104" y2="115.08613" stroke="green" stroke-width="0.04000"/>
    <line x1="50.75475" y1="115.33465" x2="51.34320" y2="114.95250" stroke="green" stroke-width="0.04000"/>
    <line x1="50.68686" y1="115.25950" x2="51.36538" y2="114.81886" stroke="green" stroke-width="0.04000"/>
    <line x1="50.61897" y1="115.18435" x2="51.32123" y2="114.72829" stroke="green" stroke-width="0.04000"/>
    <line x1="50.55109" y1="115.10920" x2="51.26249" y2="114.64720" stroke="green" stroke-width="0.04000"/>
    <line x1="50.48058" y1="115.03574" x2="51.20376" y2="114.56611" stroke="green" stroke-width="0.04000"/>
    <line x1="50.40590" y1="114.96501" x2="51.14502" y2="114.48502" stroke="green" stroke-width="0.04000"/>
    <line x1="50.33122" y1="114.89426" x2="51.08628" y2="114.40392" stroke="green" stroke-width="0.04000"/>
    <line x1="50.25655" y1="114.82352" x2="51.02755" y2="114.32283" stroke="green" stroke-width="0.04000"/>
    <line x1="50.18187" y1="114.75279" x2="50.97499" y2="114.23773" stroke="green" stroke-width="0.04000"/>
    <line x1="50.10719" y1="114.68204" x2="50.93097" y2="114.14708" stroke="green" stroke-width="0.04000"/>
    <line x1="50.04055" y1="114.60609" x2="50.88695" y2="114.05643" stroke="green" stroke-width="0.04000"/>
    <line x1="49.97810" y1="114.52740" x2="50.84293" y2="113.96578" stroke="green" stroke-width="0.04000"/>
    <line x1="49.91364" y1="114.45003" x2="50.79890" y2="113.87514" stroke="green" stroke-width="0.04000"/>
    <line x1="49.86073" y1="114.36516" x2="50.75488" y2="113.78449" stroke="green" stroke-width="0.04000"/>
    <line x1="49.81971" y1="114.27255" x2="50.70341" y2="113.69867" stroke="green" stroke-width="0.04000"/>
    <line x1="49.77870" y1="114.17995" x2="50.64014" y2="113.62052" stroke="green" stroke-width="0.04000"/>
    <line x1="49.73769" y1="114.08736" x2="50.57687" y2="113.54238" stroke="green" stroke-width="0.04000"/>
    <line x1="49.71209" y1="113.98474" x2="50.51360" y2="113.46423" stroke="green" stroke-width="0.04000"/>
    <line x1="49.69104" y1="113.87917" x2="50.45033" y2="113.38609" stroke="green" stroke-width="0.04000"/>
    <line x1="49.66999" y1="113.77361" x2="50.39340" y2="113.30382" stroke="green" stroke-width="0.04000"/>
    <line x1="49.64894" y1="113.66804" x2="50.33892" y2="113.21996" stroke="green" stroke-width="0.04000"/>
    <line x1="49.62790" y1="113.56247" x2="50.28444" y2="113.13611" stroke="green" stroke-width="0.04000"/>
    <line x1="49.61573" y1="113.45113" x2="50.22997" y2="113.05225" stroke="green" stroke-width="0.04000"/>
    <line x1="49.65477" y1="113.30654" x2="50.17549" y2="112.96838" stroke="green" stroke-width="0.04000"/>
    <line x1="49.69381" y1="113.16196" x2="50.12101" y2="112.88453" stroke="green" stroke-width="0.04000"/>
    <line x1="49.73285" y1="113.01736" x2="50.06653" y2="112.80067" stroke="green" stroke-width="0.04000"/>
    <line x1="49.76468" y1="112.87746" x2="50.01205" y2="112.71681" stroke="green" stroke-width="0.04000"/>
    <line x1="49.77412" y1="112.75210" x2="49.95550" y2="112.63430" stroke="green" stroke-width="0.04000"/>
    <line x1="49.78355" y1="112.62673" x2="49.82052" y2="112.60272" stroke="green" stroke-width="0.04000"/>
    <path d="M 49.9372 112.612 L 49.9706 112.653 L 50.4327 113.364 L 50.7279 113.729 L 50.9935 114.276 L 51.3694 114.795 L 51.215 115.726 L 51.261 115.784 L 51.261 115.784 L 51.1976 115.79 L 51.1758 115.774 L 51.0624 115.675 L 50.5094 115.063 L 50.0815 114.658 L 49.9295 114.466 L 49.8858 114.422 L 49.7283 114.066 L 49.61 113.473 L 49.7624 112.908 L 49.7856 112.6 L 49.9372 112.612" fill="none" stroke="blue" stroke-width="0.04000" fill-rule="evenodd" fill-opacity="1.000"/>
  </g>
</svg>
