<?xml version="1.0" encoding="UTF-8" standalone="yes"?>
<svg xmlns="http://www.w3.org/2000/svg"
     xmlns:xlink="http://www.w3.org/1999/xlink"
     width="2020.0000mm" height="1600.0000mm"
     viewBox="0 0 202.000000 160.000000">
  <!--
    Build plate : 150.00 x 150.00 mm
    Coordinate  : 1 SVG unit = 1 mm
    Display zoom: 10x  (width/height = viewBox x 10)
    Hatch stroke: 0.04 mm = ~28 mm on screen at this zoom
    Legend panel: right margin (42 mm wide)
  -->
  <defs>
    <marker id="endArrow" markerWidth="2" markerHeight="1.4"
            refX="0" refY="0.7" orient="auto"
            markerUnits="strokeWidth">
      <polyline fill="darkblue" points="0,0 2,0.7 0,1.4 0.2,0.7"/>
    </marker>
  </defs>
  <!-- Background -->
  <rect x="0" y="0" width="202.000000" height="160.000000" fill="#f0f0f0" stroke="none"/>
  <!-- Build plate boundary (150 x 150 mm) -->
  <rect x="5.000000" y="5.000000" width="150.000000" height="150.000000"
        fill="#ffffff" stroke="#aaaaaa" stroke-width="0.2" stroke-dasharray="1,0.5"/>
  <!-- Build plate centre circle (r = 75.00 mm) -->
  <circle cx="80.000000" cy="80.000000" r="75.000000"
          fill="none" stroke="#bbbbbb" stroke-width="0.15" stroke-dasharray="0.8,0.4"/>
  <!-- Centre cross-hair -->
  <line x1="5.000000" y1="80.000000" x2="155.000000" y2="80.000000" stroke="#cccccc" stroke-width="0.1"/>
  <line x1="80.000000" y1="5.000000" x2="80.000000" y2="155.000000" stroke="#cccccc" stroke-width="0.1"/>
  <circle cx="80.000000" cy="80.000000" r="0.3" fill="#cccccc" stroke="none"/>
  <!-- Corner labels -->
  <text x="5.400000" y="4.600000" font-family="sans-serif" font-size="2" fill="#888888">0,0</text>
  <text x="154.600006" y="4.600000" font-family="sans-serif" font-size="2" fill="#888888" text-anchor="end">150,0</text>
  <text x="5.400000" y="157.199997" font-family="sans-serif" font-size="2" fill="#888888">0,150</text>
  <!-- Layer geometry -->
  <g id="geometry">
    <line x1="130.22379" y1="85.52589" x2="130.41768" y2="85.57423" stroke="green" stroke-width="0.04000"/>
    <line x1="130.22379" y1="85.42283" x2="130.83102" y2="85.57423" stroke="green" stroke-width="0.04000"/>
    <line x1="130.22379" y1="85.31977" x2="131.24438" y2="85.57423" stroke="green" stroke-width="0.04000"/>
    <line x1="130.22379" y1="85.21671" x2="131.65775" y2="85.57423" stroke="green" stroke-width="0.04000"/>
    <line x1="130.22379" y1="85.11365" x2="132.07111" y2="85.57423" stroke="green" stroke-width="0.04000"/>
    <line x1="130.22379" y1="85.01058" x2="132.48447" y2="85.57423" stroke="green" stroke-width="0.04000"/>
    <line x1="130.22379" y1="84.90752" x2="132.89783" y2="85.57423" stroke="green" stroke-width="0.04000"/>
    <line x1="130.22379" y1="84.80446" x2="133.31117" y2="85.57423" stroke="green" stroke-width="0.04000"/>
    <line x1="130.22379" y1="84.70140" x2="133.72452" y2="85.57423" stroke="green" stroke-width="0.04000"/>
    <line x1="130.22379" y1="84.59834" x2="134.13788" y2="85.57423" stroke="green" stroke-width="0.04000"/>
    <line x1="130.22379" y1="84.49528" x2="134.55124" y2="85.57423" stroke="green" stroke-width="0.04000"/>
    <line x1="130.22379" y1="84.39221" x2="134.96460" y2="85.57423" stroke="green" stroke-width="0.04000"/>
    <line x1="130.22379" y1="84.28915" x2="135.37796" y2="85.57423" stroke="green" stroke-width="0.04000"/>
    <line x1="130.22379" y1="84.18609" x2="135.79132" y2="85.57423" stroke="green" stroke-width="0.04000"/>
    <line x1="130.22379" y1="84.08303" x2="136.20467" y2="85.57423" stroke="green" stroke-width="0.04000"/>
    <line x1="123.62379" y1="85.52930" x2="123.80398" y2="85.57423" stroke="green" stroke-width="0.04000"/>
    <line x1="123.62379" y1="85.42625" x2="124.21733" y2="85.57423" stroke="green" stroke-width="0.04000"/>
    <line x1="123.62379" y1="85.32318" x2="124.63069" y2="85.57423" stroke="green" stroke-width="0.04000"/>
    <line x1="123.62379" y1="85.22012" x2="125.04404" y2="85.57423" stroke="green" stroke-width="0.04000"/>
    <line x1="123.62379" y1="85.11707" x2="125.45739" y2="85.57423" stroke="green" stroke-width="0.04000"/>
    <line x1="123.62379" y1="85.01400" x2="125.87076" y2="85.57423" stroke="green" stroke-width="0.04000"/>
    <line x1="123.62379" y1="84.91094" x2="126.28412" y2="85.57423" stroke="green" stroke-width="0.04000"/>
    <line x1="123.62379" y1="84.80788" x2="126.69748" y2="85.57423" stroke="green" stroke-width="0.04000"/>
    <line x1="123.62379" y1="84.70482" x2="127.11082" y2="85.57423" stroke="green" stroke-width="0.04000"/>
    <line x1="123.62379" y1="84.60175" x2="127.52419" y2="85.57423" stroke="green" stroke-width="0.04000"/>
    <line x1="123.62379" y1="84.49870" x2="127.93753" y2="85.57423" stroke="green" stroke-width="0.04000"/>
    <line x1="123.62379" y1="84.39564" x2="128.35089" y2="85.57423" stroke="green" stroke-width="0.04000"/>
    <line x1="123.62379" y1="84.29257" x2="128.76425" y2="85.57423" stroke="green" stroke-width="0.04000"/>
    <line x1="123.62379" y1="84.18951" x2="129.17761" y2="85.57423" stroke="green" stroke-width="0.04000"/>
    <line x1="123.62379" y1="84.08645" x2="129.59097" y2="85.57423" stroke="green" stroke-width="0.04000"/>
    <line x1="123.62379" y1="83.98339" x2="129.72379" y2="85.50429" stroke="green" stroke-width="0.04000"/>
    <line x1="130.22379" y1="83.97997" x2="136.32379" y2="85.50087" stroke="green" stroke-width="0.04000"/>
    <line x1="123.62379" y1="83.88033" x2="129.72379" y2="85.40122" stroke="green" stroke-width="0.04000"/>
    <line x1="130.22379" y1="83.87691" x2="136.32379" y2="85.39781" stroke="green" stroke-width="0.04000"/>
    <line x1="123.62379" y1="83.77727" x2="129.72379" y2="85.29816" stroke="green" stroke-width="0.04000"/>
    <line x1="123.62379" y1="82.12828" x2="136.32379" y2="85.29475" stroke="green" stroke-width="0.04000"/>
    <line x1="123.62379" y1="83.67420" x2="129.72379" y2="85.19511" stroke="green" stroke-width="0.04000"/>
    <line x1="123.62379" y1="82.02522" x2="136.32379" y2="85.19169" stroke="green" stroke-width="0.04000"/>
    <line x1="123.62379" y1="83.57114" x2="129.72379" y2="85.09204" stroke="green" stroke-width="0.04000"/>
    <line x1="123.62379" y1="81.92216" x2="136.32379" y2="85.08862" stroke="green" stroke-width="0.04000"/>
    <line x1="123.62379" y1="83.46808" x2="129.72379" y2="84.98898" stroke="green" stroke-width="0.04000"/>
    <line x1="123.62379" y1="81.81910" x2="136.32379" y2="84.98557" stroke="green" stroke-width="0.04000"/>
    <line x1="123.62379" y1="83.36502" x2="129.72379" y2="84.88592" stroke="green" stroke-width="0.04000"/>
    <line x1="123.62379" y1="81.71603" x2="136.32379" y2="84.88251" stroke="green" stroke-width="0.04000"/>
    <line x1="123.62379" y1="83.26196" x2="129.72379" y2="84.78285" stroke="green" stroke-width="0.04000"/>
    <line x1="123.62379" y1="81.61298" x2="136.32379" y2="84.77944" stroke="green" stroke-width="0.04000"/>
    <line x1="123.62379" y1="83.15890" x2="129.72379" y2="84.67979" stroke="green" stroke-width="0.04000"/>
    <line x1="123.62379" y1="81.50992" x2="136.32379" y2="84.67638" stroke="green" stroke-width="0.04000"/>
    <line x1="123.62379" y1="83.05584" x2="129.72379" y2="84.57674" stroke="green" stroke-width="0.04000"/>
    <line x1="123.62379" y1="81.40685" x2="136.32379" y2="84.57332" stroke="green" stroke-width="0.04000"/>
    <line x1="123.62379" y1="82.95277" x2="129.72379" y2="84.47368" stroke="green" stroke-width="0.04000"/>
    <line x1="123.62379" y1="81.30379" x2="136.32379" y2="84.47026" stroke="green" stroke-width="0.04000"/>
    <line x1="123.62379" y1="82.84972" x2="129.72379" y2="84.37061" stroke="green" stroke-width="0.04000"/>
    <line x1="123.62379" y1="81.20073" x2="136.32379" y2="84.36720" stroke="green" stroke-width="0.04000"/>
    <line x1="123.62379" y1="82.74665" x2="129.72379" y2="84.26755" stroke="green" stroke-width="0.04000"/>
    <line x1="123.62379" y1="81.09766" x2="136.32379" y2="84.26414" stroke="green" stroke-width="0.04000"/>
    <line x1="123.62379" y1="82.64359" x2="129.72379" y2="84.16449" stroke="green" stroke-width="0.04000"/>
    <line x1="123.62379" y1="80.99461" x2="136.32379" y2="84.16107" stroke="green" stroke-width="0.04000"/>
    <line x1="123.62379" y1="82.54053" x2="129.72379" y2="84.06142" stroke="green" stroke-width="0.04000"/>
    <line x1="123.62379" y1="80.89155" x2="136.32379" y2="84.05801" stroke="green" stroke-width="0.04000"/>
    <line x1="123.62379" y1="82.43747" x2="129.72379" y2="83.95837" stroke="green" stroke-width="0.04000"/>
    <line x1="123.62379" y1="80.78849" x2="136.32379" y2="83.95496" stroke="green" stroke-width="0.04000"/>
    <line x1="123.62379" y1="82.33440" x2="129.72379" y2="83.85530" stroke="green" stroke-width="0.04000"/>
    <line x1="123.62379" y1="80.68542" x2="136.32379" y2="83.85189" stroke="green" stroke-width="0.04000"/>
    <line x1="123.62379" y1="82.23135" x2="130.09576" y2="83.84499" stroke="green" stroke-width="0.04000"/>
    <line x1="123.62379" y1="80.58236" x2="136.32379" y2="83.74883" stroke="green" stroke-width="0.04000"/>
    <line x1="123.62379" y1="80.47930" x2="136.32379" y2="83.64577" stroke="green" stroke-width="0.04000"/>
    <line x1="123.62379" y1="80.37624" x2="136.32379" y2="83.54270" stroke="green" stroke-width="0.04000"/>
    <line x1="123.62379" y1="80.27318" x2="136.32379" y2="83.43964" stroke="green" stroke-width="0.04000"/>
    <line x1="123.62379" y1="80.17011" x2="136.32379" y2="83.33659" stroke="green" stroke-width="0.04000"/>
    <line x1="123.62379" y1="80.06705" x2="136.32379" y2="83.23352" stroke="green" stroke-width="0.04000"/>
    <line x1="123.62379" y1="79.96400" x2="136.32379" y2="83.13046" stroke="green" stroke-width="0.04000"/>
    <line x1="123.62379" y1="79.86093" x2="136.32379" y2="83.02740" stroke="green" stroke-width="0.04000"/>
    <line x1="123.62379" y1="79.75787" x2="136.32379" y2="82.92434" stroke="green" stroke-width="0.04000"/>
    <line x1="123.62379" y1="79.65481" x2="136.32379" y2="82.82127" stroke="green" stroke-width="0.04000"/>
    <line x1="123.62379" y1="79.55175" x2="136.32379" y2="82.71822" stroke="green" stroke-width="0.04000"/>
    <line x1="123.62379" y1="79.44868" x2="136.32379" y2="82.61515" stroke="green" stroke-width="0.04000"/>
    <line x1="123.62379" y1="79.34563" x2="136.32379" y2="82.51209" stroke="green" stroke-width="0.04000"/>
    <line x1="123.62379" y1="79.24257" x2="136.32379" y2="82.40903" stroke="green" stroke-width="0.04000"/>
    <line x1="123.62379" y1="79.13950" x2="136.32379" y2="82.30597" stroke="green" stroke-width="0.04000"/>
    <line x1="123.62379" y1="79.03645" x2="136.32379" y2="82.20291" stroke="green" stroke-width="0.04000"/>
    <line x1="123.62379" y1="78.93338" x2="136.32379" y2="82.09985" stroke="green" stroke-width="0.04000"/>
    <line x1="123.62379" y1="78.83032" x2="136.32379" y2="81.99679" stroke="green" stroke-width="0.04000"/>
    <line x1="123.62379" y1="78.72726" x2="136.32379" y2="81.89372" stroke="green" stroke-width="0.04000"/>
    <line x1="123.62379" y1="78.62420" x2="136.32379" y2="81.79066" stroke="green" stroke-width="0.04000"/>
    <line x1="123.62379" y1="78.52113" x2="136.32379" y2="81.68760" stroke="green" stroke-width="0.04000"/>
    <line x1="123.62379" y1="78.41808" x2="136.32379" y2="81.58454" stroke="green" stroke-width="0.04000"/>
    <line x1="123.62379" y1="78.31501" x2="136.32379" y2="81.48148" stroke="green" stroke-width="0.04000"/>
    <line x1="123.62379" y1="78.21195" x2="136.32379" y2="81.37842" stroke="green" stroke-width="0.04000"/>
    <line x1="123.62379" y1="78.10889" x2="136.32379" y2="81.27535" stroke="green" stroke-width="0.04000"/>
    <line x1="123.62379" y1="78.00583" x2="136.32379" y2="81.17229" stroke="green" stroke-width="0.04000"/>
    <line x1="123.62379" y1="77.90277" x2="136.32379" y2="81.06924" stroke="green" stroke-width="0.04000"/>
    <line x1="123.62379" y1="77.79971" x2="136.32379" y2="80.96617" stroke="green" stroke-width="0.04000"/>
    <line x1="123.62379" y1="77.69665" x2="136.32379" y2="80.86311" stroke="green" stroke-width="0.04000"/>
    <line x1="123.62379" y1="77.59358" x2="136.32379" y2="80.76005" stroke="green" stroke-width="0.04000"/>
    <line x1="123.62379" y1="77.49052" x2="136.32379" y2="80.65699" stroke="green" stroke-width="0.04000"/>
    <line x1="123.62379" y1="77.38746" x2="136.32379" y2="80.55392" stroke="green" stroke-width="0.04000"/>
    <line x1="123.62379" y1="77.28439" x2="136.32379" y2="80.45087" stroke="green" stroke-width="0.04000"/>
    <line x1="123.62379" y1="77.18134" x2="136.32379" y2="80.34780" stroke="green" stroke-width="0.04000"/>
    <line x1="123.62379" y1="77.07828" x2="136.32379" y2="80.24474" stroke="green" stroke-width="0.04000"/>
    <line x1="123.62379" y1="76.97522" x2="136.32379" y2="80.14168" stroke="green" stroke-width="0.04000"/>
    <line x1="123.62379" y1="76.87215" x2="136.32379" y2="80.03862" stroke="green" stroke-width="0.04000"/>
    <line x1="123.62379" y1="76.76909" x2="136.32379" y2="79.93555" stroke="green" stroke-width="0.04000"/>
    <line x1="123.62379" y1="76.66603" x2="136.32379" y2="79.83250" stroke="green" stroke-width="0.04000"/>
    <line x1="123.62379" y1="76.56297" x2="136.32379" y2="79.72944" stroke="green" stroke-width="0.04000"/>
    <line x1="123.62379" y1="76.45991" x2="136.32379" y2="79.62637" stroke="green" stroke-width="0.04000"/>
    <line x1="123.62379" y1="76.35685" x2="136.32379" y2="79.52332" stroke="green" stroke-width="0.04000"/>
    <line x1="123.62379" y1="76.25378" x2="136.32379" y2="79.42025" stroke="green" stroke-width="0.04000"/>
    <line x1="123.62379" y1="76.15073" x2="136.32379" y2="79.31719" stroke="green" stroke-width="0.04000"/>
    <line x1="123.62379" y1="76.04766" x2="136.32379" y2="79.21413" stroke="green" stroke-width="0.04000"/>
    <line x1="123.62379" y1="75.94460" x2="136.32379" y2="79.11107" stroke="green" stroke-width="0.04000"/>
    <line x1="123.62379" y1="75.84154" x2="136.32379" y2="79.00801" stroke="green" stroke-width="0.04000"/>
    <line x1="123.62379" y1="75.73848" x2="136.32379" y2="78.90495" stroke="green" stroke-width="0.04000"/>
    <line x1="123.62379" y1="75.63542" x2="136.32379" y2="78.80189" stroke="green" stroke-width="0.04000"/>
    <line x1="123.62379" y1="75.53236" x2="136.32379" y2="78.69882" stroke="green" stroke-width="0.04000"/>
    <line x1="123.62379" y1="75.42930" x2="136.32379" y2="78.59576" stroke="green" stroke-width="0.04000"/>
    <line x1="123.62379" y1="75.32623" x2="136.32379" y2="78.49270" stroke="green" stroke-width="0.04000"/>
    <line x1="123.62379" y1="75.22317" x2="136.32379" y2="78.38964" stroke="green" stroke-width="0.04000"/>
    <line x1="123.62379" y1="75.12011" x2="136.32379" y2="78.28658" stroke="green" stroke-width="0.04000"/>
    <line x1="123.62379" y1="75.01704" x2="136.32379" y2="78.18352" stroke="green" stroke-width="0.04000"/>
    <line x1="123.62379" y1="74.91399" x2="136.32379" y2="78.08046" stroke="green" stroke-width="0.04000"/>
    <line x1="123.62379" y1="74.81093" x2="136.32379" y2="77.97739" stroke="green" stroke-width="0.04000"/>
    <line x1="123.62379" y1="74.70786" x2="136.32379" y2="77.87433" stroke="green" stroke-width="0.04000"/>
    <line x1="123.62379" y1="74.60480" x2="136.32379" y2="77.77127" stroke="green" stroke-width="0.04000"/>
    <line x1="123.62379" y1="74.50174" x2="136.32379" y2="77.66821" stroke="green" stroke-width="0.04000"/>
    <line x1="123.74291" y1="74.42838" x2="136.32379" y2="77.56515" stroke="green" stroke-width="0.04000"/>
    <line x1="124.15628" y1="74.42838" x2="136.32379" y2="77.46208" stroke="green" stroke-width="0.04000"/>
    <line x1="124.56963" y1="74.42838" x2="136.32379" y2="77.35902" stroke="green" stroke-width="0.04000"/>
    <line x1="130.11005" y1="75.70670" x2="136.32379" y2="77.25597" stroke="green" stroke-width="0.04000"/>
    <line x1="130.22379" y1="75.63200" x2="136.32379" y2="77.15290" stroke="green" stroke-width="0.04000"/>
    <line x1="130.22379" y1="75.52894" x2="136.32379" y2="77.04984" stroke="green" stroke-width="0.04000"/>
    <line x1="130.22379" y1="75.42587" x2="136.32379" y2="76.94678" stroke="green" stroke-width="0.04000"/>
    <line x1="130.22379" y1="75.32281" x2="136.32379" y2="76.84372" stroke="green" stroke-width="0.04000"/>
    <line x1="130.22379" y1="75.21975" x2="136.32379" y2="76.74065" stroke="green" stroke-width="0.04000"/>
    <line x1="130.22379" y1="75.11669" x2="136.32379" y2="76.63760" stroke="green" stroke-width="0.04000"/>
    <line x1="130.22379" y1="75.01363" x2="136.32379" y2="76.53453" stroke="green" stroke-width="0.04000"/>
    <line x1="130.22379" y1="74.91057" x2="136.32379" y2="76.43147" stroke="green" stroke-width="0.04000"/>
    <line x1="130.22379" y1="74.80751" x2="136.32379" y2="76.32841" stroke="green" stroke-width="0.04000"/>
    <line x1="130.22379" y1="74.70444" x2="136.32379" y2="76.22535" stroke="green" stroke-width="0.04000"/>
    <line x1="130.22379" y1="74.60138" x2="136.32379" y2="76.12228" stroke="green" stroke-width="0.04000"/>
    <line x1="130.22379" y1="74.49832" x2="136.32379" y2="76.01923" stroke="green" stroke-width="0.04000"/>
    <line x1="130.35663" y1="74.42839" x2="136.32379" y2="75.91617" stroke="green" stroke-width="0.04000"/>
    <line x1="130.76999" y1="74.42839" x2="136.32379" y2="75.81310" stroke="green" stroke-width="0.04000"/>
    <line x1="131.18335" y1="74.42839" x2="136.32379" y2="75.71004" stroke="green" stroke-width="0.04000"/>
    <line x1="124.98299" y1="74.42838" x2="129.72379" y2="75.61040" stroke="green" stroke-width="0.04000"/>
    <line x1="131.59671" y1="74.42839" x2="136.32379" y2="75.60698" stroke="green" stroke-width="0.04000"/>
    <line x1="125.39636" y1="74.42839" x2="129.72379" y2="75.50734" stroke="green" stroke-width="0.04000"/>
    <line x1="132.01007" y1="74.42839" x2="136.32379" y2="75.50392" stroke="green" stroke-width="0.04000"/>
    <line x1="125.80972" y1="74.42839" x2="129.72379" y2="75.40427" stroke="green" stroke-width="0.04000"/>
    <line x1="132.42345" y1="74.42839" x2="136.32379" y2="75.40086" stroke="green" stroke-width="0.04000"/>
    <line x1="126.22309" y1="74.42839" x2="129.72379" y2="75.30121" stroke="green" stroke-width="0.04000"/>
    <line x1="132.83679" y1="74.42839" x2="136.32379" y2="75.29780" stroke="green" stroke-width="0.04000"/>
    <line x1="126.63644" y1="74.42839" x2="129.72379" y2="75.19815" stroke="green" stroke-width="0.04000"/>
    <line x1="133.25015" y1="74.42839" x2="136.32379" y2="75.19473" stroke="green" stroke-width="0.04000"/>
    <line x1="127.04980" y1="74.42839" x2="129.72379" y2="75.09509" stroke="green" stroke-width="0.04000"/>
    <line x1="133.66348" y1="74.42839" x2="136.32379" y2="75.09167" stroke="green" stroke-width="0.04000"/>
    <line x1="127.46314" y1="74.42839" x2="129.72379" y2="74.99203" stroke="green" stroke-width="0.04000"/>
    <line x1="134.07686" y1="74.42839" x2="136.32379" y2="74.98861" stroke="green" stroke-width="0.04000"/>
    <line x1="127.87650" y1="74.42839" x2="129.72379" y2="74.88897" stroke="green" stroke-width="0.04000"/>
    <line x1="134.49020" y1="74.42839" x2="136.32379" y2="74.88555" stroke="green" stroke-width="0.04000"/>
    <line x1="128.28986" y1="74.42839" x2="129.72379" y2="74.78590" stroke="green" stroke-width="0.04000"/>
    <line x1="134.90356" y1="74.42839" x2="136.32379" y2="74.78249" stroke="green" stroke-width="0.04000"/>
    <line x1="128.70322" y1="74.42839" x2="129.72379" y2="74.68285" stroke="green" stroke-width="0.04000"/>
    <line x1="135.31693" y1="74.42838" x2="136.32379" y2="74.67943" stroke="green" stroke-width="0.04000"/>
    <line x1="129.11658" y1="74.42839" x2="129.72379" y2="74.57978" stroke="green" stroke-width="0.04000"/>
    <line x1="135.73026" y1="74.42838" x2="136.32379" y2="74.57637" stroke="green" stroke-width="0.04000"/>
    <line x1="129.52994" y1="74.42839" x2="129.72379" y2="74.47672" stroke="green" stroke-width="0.04000"/>
    <line x1="136.14362" y1="74.42838" x2="136.32379" y2="74.47330" stroke="green" stroke-width="0.04000"/>
    <path d="M 136.324 85.5742 L 130.224 85.5742 L 130.224 83.845 L 129.724 83.845 L 129.724 85.5742 L 123.624 85.5742 L 123.624 74.4284 L 125.825 74.4284 L 129.724 74.4284 L 129.724 75.7067 L 130.224 75.7067 L 130.224 74.4284 L 134.123 74.4284 L 136.324 74.4284 L 136.324 85.5742" fill="none" stroke="blue" stroke-width="0.04000" fill-rule="evenodd" fill-opacity="1.000"/>
  </g>
</svg>
