<?xml version="1.0" encoding="UTF-8" standalone="yes"?>
<svg xmlns="http://www.w3.org/2000/svg"
     xmlns:xlink="http://www.w3.org/1999/xlink"
     width="2020.0000mm" height="1600.0000mm"
     viewBox="0 0 202.000000 160.000000">
  <!--
    Build plate : 150.00 x 150.00 mm
    Coordinate  : 1 SVG unit = 1 mm
    Display zoom: 10x  (width/height = viewBox x 10)
    Hatch stroke: 0.04 mm = ~28 mm on screen at this zoom
    Legend panel: right margin (42 mm wide)
  -->
  <defs>
    <marker id="endArrow" markerWidth="2" markerHeight="1.4"
            refX="0" refY="0.7" orient="auto"
            markerUnits="strokeWidth">
      <polyline fill="darkblue" points="0,0 2,0.7 0,1.4 0.2,0.7"/>
    </marker>
  </defs>
  <!-- Background -->
  <rect x="0" y="0" width="202.000000" height="160.000000" fill="#f0f0f0" stroke="none"/>
  <!-- Build plate boundary (150 x 150 mm) -->
  <rect x="5.000000" y="5.000000" width="150.000000" height="150.000000"
        fill="#ffffff" stroke="#aaaaaa" stroke-width="0.2" stroke-dasharray="1,0.5"/>
  <!-- Build plate centre circle (r = 75.00 mm) -->
  <circle cx="80.000000" cy="80.000000" r="75.000000"
          fill="none" stroke="#bbbbbb" stroke-width="0.15" stroke-dasharray="0.8,0.4"/>
  <!-- Centre cross-hair -->
  <line x1="5.000000" y1="80.000000" x2="155.000000" y2="80.000000" stroke="#cccccc" stroke-width="0.1"/>
  <line x1="80.000000" y1="5.000000" x2="80.000000" y2="155.000000" stroke="#cccccc" stroke-width="0.1"/>
  <circle cx="80.000000" cy="80.000000" r="0.3" fill="#cccccc" stroke="none"/>
  <!-- Corner labels -->
  <text x="5.400000" y="4.600000" font-family="sans-serif" font-size="2" fill="#888888">0,0</text>
  <text x="154.600006" y="4.600000" font-family="sans-serif" font-size="2" fill="#888888" text-anchor="end">150,0</text>
  <text x="5.400000" y="157.199997" font-family="sans-serif" font-size="2" fill="#888888">0,150</text>
  <!-- Layer geometry -->
  <g id="geometry">
    <line x1="36.68665" y1="88.55357" x2="37.77333" y2="87.73470" stroke="green" stroke-width="0.04000"/>
    <line x1="36.85555" y1="88.55151" x2="37.35447" y2="88.17554" stroke="green" stroke-width="0.04000"/>
    <line x1="36.58573" y1="88.50440" x2="38.26301" y2="87.24048" stroke="green" stroke-width="0.04000"/>
    <line x1="36.51230" y1="88.43452" x2="38.83988" y2="86.68056" stroke="green" stroke-width="0.04000"/>
    <line x1="36.44080" y1="88.36319" x2="39.44974" y2="86.09579" stroke="green" stroke-width="0.04000"/>
    <line x1="36.36930" y1="88.29185" x2="40.03011" y2="85.53323" stroke="green" stroke-width="0.04000"/>
    <line x1="36.35828" y1="88.17495" x2="37.12642" y2="87.59611" stroke="green" stroke-width="0.04000"/>
    <line x1="36.86635" y1="87.66688" x2="36.99796" y2="87.56770" stroke="green" stroke-width="0.04000"/>
    <line x1="37.49269" y1="87.32011" x2="40.91608" y2="84.74039" stroke="green" stroke-width="0.04000"/>
    <line x1="38.00079" y1="86.81201" x2="41.95137" y2="83.83504" stroke="green" stroke-width="0.04000"/>
    <line x1="38.50885" y1="86.30395" x2="42.01346" y2="83.66304" stroke="green" stroke-width="0.04000"/>
    <line x1="39.01694" y1="85.79586" x2="42.03049" y2="83.52499" stroke="green" stroke-width="0.04000"/>
    <line x1="39.52498" y1="85.28781" x2="42.02219" y2="83.40603" stroke="green" stroke-width="0.04000"/>
    <line x1="40.03308" y1="84.77972" x2="41.99617" y2="83.30042" stroke="green" stroke-width="0.04000"/>
    <line x1="40.96057" y1="84.70687" x2="41.26365" y2="84.47849" stroke="green" stroke-width="0.04000"/>
    <line x1="40.54114" y1="84.27165" x2="41.95605" y2="83.20544" stroke="green" stroke-width="0.04000"/>
    <line x1="41.04923" y1="83.76357" x2="41.90744" y2="83.11686" stroke="green" stroke-width="0.04000"/>
    <line x1="41.45513" y1="83.33248" x2="41.85818" y2="83.02876" stroke="green" stroke-width="0.04000"/>
    <line x1="41.40599" y1="83.24429" x2="41.80837" y2="82.94109" stroke="green" stroke-width="0.04000"/>
    <line x1="41.43903" y1="83.09420" x2="41.76085" y2="82.85168" stroke="green" stroke-width="0.04000"/>
    <path d="M 41.775 82.877 L 41.8174 82.9585 L 41.818 82.9594 L 41.8484 83.0146 L 41.8524 83.022 L 41.8597 83.0305 L 41.8882 83.0823 L 41.8882 83.0823 L 41.9037 83.1104 L 41.9421 83.1768 L 41.9469 83.1854 L 41.9485 83.1891 L 41.9508 83.1948 L 41.9596 83.2126 L 41.9596 83.2126 L 41.9705 83.2349 L 41.9865 83.2762 L 41.9883 83.2809 L 41.9948 83.2956 L 41.9982 83.3075 L 42.0113 83.3516 L 42.0137 83.3642 L 42.0228 83.4092 L 42.0242 83.4226 L 42.0292 83.4678 L 42.0294 83.4823 L 42.0305 83.527 L 42.0294 83.5426 L 42.0267 83.5862 L 42.024 83.6032 L 42.0179 83.645 L 42.0133 83.6637 L 42.0041 83.7029 L 41.9974 83.7231 L 41.9856 83.7595 L 41.9642 83.8045 L 41.9503 83.8375 L 41.9352 83.8669 L 41.9003 83.9177 L 41.8847 83.9425 L 41.869 83.9639 L 41.8299 84.0062 L 41.7942 84.0437 L 41.7862 84.0508 L 41.7768 84.0598 L 41.7622 84.072 L 41.7037 84.1227 L 41.6293 84.1867 L 41.5868 84.2235 L 41.5868 84.2236 L 41.5668 84.2409 L 41.5669 84.241 L 41.5643 84.2432 L 41.448 84.3358 L 41.3468 84.4155 L 41.3016 84.4495 L 41.1881 84.536 L 41.1882 84.5361 L 41.1455 84.5694 L 41.1187 84.5909 L 41.1014 84.6053 L 41.0982 84.6079 L 41.0857 84.6185 L 41.0789 84.6243 L 40.9332 84.726 L 40.9063 84.7486 L 40.8902 84.7622 L 40.8456 84.8008 L 40.7898 84.8503 L 40.7899 84.8504 L 40.7559 84.8813 L 40.7322 84.9028 L 40.7107 84.9229 L 40.6815 84.95 L 40.6485 84.9807 L 40.5656 85.0589 L 40.5656 85.0589 L 40.5449 85.0785 L 40.4036 85.1875 L 40.3495 85.2399 L 40.2959 85.2917 L 40.2757 85.3113 L 40.1411 85.4234 L 39.9976 85.5654 L 39.9908 85.5721 L 39.7583 85.7989 L 39.718 85.8382 L 39.6517 85.8966 L 39.5171 86.0305 L 39.3238 86.2181 L 39.3002 86.2403 L 39.0307 86.4947 L 38.3459 87.1617 L 38.2839 87.2193 L 37.849 87.6595 L 37.6598 87.8474 L 37.5631 87.9469 L 37.511 88.0004 L 37.3797 88.1479 L 37.3787 88.149 L 37.3786 88.1492 L 37.3772 88.1506 L 37.2062 88.3378 L 37.1977 88.3469 L 37.182 88.3637 L 37.1757 88.3704 L 37.1713 88.3743 L 37.1521 88.3924 L 37.1508 88.3935 L 37.136 88.4063 L 37.1179 88.4213 L 37.1165 88.4226 L 37.1099 88.4283 L 37.0973 88.4368 L 37.0808 88.4489 L 37.0791 88.45 L 37.0644 88.4593 L 37.0355 88.479 L 37.0104 88.4918 L 36.9983 88.4983 L 36.9963 88.4994 L 36.9857 88.5041 L 36.955 88.5199 L 36.9145 88.5341 L 36.9075 88.5366 L 36.9054 88.5373 L 36.8994 88.5389 L 36.8714 88.5487 L 36.86 88.5507 L 36.8583 88.551 L 36.815 88.5586 L 36.8128 88.559 L 36.8111 88.5593 L 36.8092 88.5594 L 36.7883 88.5631 L 36.7648 88.5626 L 36.7552 88.5624 L 36.7208 88.5605 L 36.7084 88.5598 L 36.7063 88.5594 L 36.6789 88.5513 L 36.6783 88.5511 L 36.6748 88.5499 L 36.6367 88.5385 L 36.6325 88.5363 L 36.6047 88.5184 L 36.6046 88.5183 L 36.6009 88.5153 L 36.5736 88.4957 L 36.3131 88.2358 L 36.3129 88.2355 L 36.3055 88.2277 L 36.3122 88.221 L 36.3154 88.2178 L 36.3197 88.2135 L 36.6112 87.922 L 36.6112 87.922 L 36.6779 87.8553 L 36.7997 87.7336 L 36.9713 87.5619 L 36.9817 87.564 L 37.0122 87.5709 L 37.1581 87.6031 L 37.1992 87.6136 L 37.3417 87.4711 L 37.5219 87.2909 L 37.6714 87.1414 L 37.9629 86.8499 L 37.9629 86.8499 L 38.1759 86.6369 L 38.4451 86.3677 L 38.6533 86.1595 L 39.0907 85.7221 L 39.3028 85.51 L 39.3344 85.4784 L 39.4502 85.3626 L 39.4502 85.3626 L 39.5689 85.2439 L 39.5968 85.216 L 39.7411 85.0717 L 39.8073 85.0055 L 39.8802 84.9326 L 39.9275 84.8853 L 40.0198 84.793 L 40.0481 84.7646 L 40.0481 84.7646 L 40.064 84.7488 L 40.1824 84.6304 L 40.1824 84.6304 L 40.2024 84.6104 L 40.319 84.4938 L 40.3576 84.4552 L 40.4477 84.3651 L 40.461 84.3518 L 40.461 84.3518 L 40.6108 84.202 L 40.8042 84.0086 L 40.8669 83.9459 L 40.8759 83.9369 L 41.087 83.7258 L 41.1368 83.676 L 41.1561 83.6567 L 41.4236 83.3892 L 41.4313 83.3815 L 41.4313 83.3815 L 41.4641 83.3487 L 41.3827 83.2025 L 41.364 83.1692 L 41.628 82.9052 L 41.7324 82.8009 L 41.775 82.877" fill="none" stroke="blue" stroke-width="0.04000" fill-rule="evenodd" fill-opacity="1.000"/>
    <path d="M 41.775 82.877 L 41.8174 82.9585 L 41.818 82.9594 L 41.8484 83.0146 L 41.8524 83.022 L 41.8597 83.0305 L 41.8882 83.0823 L 41.8882 83.0823 L 41.9037 83.1104 L 41.9421 83.1768 L 41.9469 83.1854 L 41.9485 83.1891 L 41.9508 83.1948 L 41.9596 83.2126 L 41.9596 83.2126 L 41.9705 83.2349 L 41.9865 83.2762 L 41.9883 83.2809 L 41.9948 83.2956 L 41.9982 83.3075 L 42.0113 83.3516 L 42.0137 83.3642 L 42.0228 83.4092 L 42.0242 83.4226 L 42.0292 83.4678 L 42.0294 83.4823 L 42.0305 83.527 L 42.0294 83.5426 L 42.0267 83.5862 L 42.024 83.6032 L 42.0179 83.645 L 42.0133 83.6637 L 42.0041 83.7029 L 41.9974 83.7231 L 41.9856 83.7595 L 41.9642 83.8045 L 41.9503 83.8375 L 41.9352 83.8669 L 41.9003 83.9177 L 41.8847 83.9425 L 41.869 83.9639 L 41.8299 84.0062 L 41.7942 84.0437 L 41.7862 84.0508 L 41.7768 84.0598 L 41.7622 84.072 L 41.7037 84.1227 L 41.6293 84.1867 L 41.5868 84.2235 L 41.5868 84.2236 L 41.5668 84.2409 L 41.5669 84.241 L 41.5643 84.2432 L 41.448 84.3358 L 41.3468 84.4155 L 41.3016 84.4495 L 41.1881 84.536 L 41.1882 84.5361 L 41.1455 84.5694 L 41.1187 84.5909 L 41.1014 84.6053 L 41.0982 84.6079 L 41.0857 84.6185 L 41.0789 84.6243 L 40.9332 84.726 L 40.9063 84.7486 L 40.8902 84.7622 L 40.8456 84.8008 L 40.7898 84.8503 L 40.7899 84.8504 L 40.7559 84.8813 L 40.7322 84.9028 L 40.7107 84.9229 L 40.6815 84.95 L 40.6485 84.9807 L 40.5656 85.0589 L 40.5656 85.0589 L 40.5449 85.0785 L 40.4036 85.1875 L 40.3495 85.2399 L 40.2959 85.2917 L 40.2757 85.3113 L 40.1411 85.4234 L 39.9976 85.5654 L 39.9908 85.5721 L 39.7583 85.7989 L 39.718 85.8382 L 39.6517 85.8966 L 39.5171 86.0305 L 39.3238 86.2181 L 39.3002 86.2403 L 39.0307 86.4947 L 38.3459 87.1617 L 38.2839 87.2193 L 37.849 87.6595 L 37.6598 87.8474 L 37.5631 87.9469 L 37.511 88.0004 L 37.3797 88.1479 L 37.3787 88.149 L 37.3786 88.1492 L 37.3772 88.1506 L 37.2062 88.3378 L 37.1977 88.3469 L 37.182 88.3637 L 37.1757 88.3704 L 37.1713 88.3743 L 37.1521 88.3924 L 37.1508 88.3935 L 37.136 88.4063 L 37.1179 88.4213 L 37.1165 88.4226 L 37.1099 88.4283 L 37.0973 88.4368 L 37.0808 88.4489 L 37.0791 88.45 L 37.0644 88.4593 L 37.0355 88.479 L 37.0104 88.4918 L 36.9983 88.4983 L 36.9963 88.4994 L 36.9857 88.5041 L 36.955 88.5199 L 36.9145 88.5341 L 36.9075 88.5366 L 36.9054 88.5373 L 36.8994 88.5389 L 36.8714 88.5487 L 36.86 88.5507 L 36.8583 88.551 L 36.815 88.5586 L 36.8128 88.559 L 36.8111 88.5593 L 36.8092 88.5594 L 36.7883 88.5631 L 36.7648 88.5626 L 36.7552 88.5624 L 36.7208 88.5605 L 36.7084 88.5598 L 36.7063 88.5594 L 36.6789 88.5513 L 36.6783 88.5511 L 36.6748 88.5499 L 36.6367 88.5385 L 36.6325 88.5363 L 36.6047 88.5184 L 36.6046 88.5183 L 36.6009 88.5153 L 36.5736 88.4957 L 36.3131 88.2358 L 36.3129 88.2355 L 36.3055 88.2277 L 36.3122 88.221 L 36.3154 88.2178 L 36.3197 88.2135 L 36.6112 87.922 L 36.6112 87.922 L 36.6779 87.8553 L 36.7997 87.7336 L 36.9713 87.5619 L 36.9817 87.564 L 37.0122 87.5709 L 37.1581 87.6031 L 37.1992 87.6136 L 37.3417 87.4711 L 37.5219 87.2909 L 37.6714 87.1414 L 37.9629 86.8499 L 37.9629 86.8499 L 38.1759 86.6369 L 38.4451 86.3677 L 38.6533 86.1595 L 39.0907 85.7221 L 39.3028 85.51 L 39.3344 85.4784 L 39.4502 85.3626 L 39.4502 85.3626 L 39.5689 85.2439 L 39.5968 85.216 L 39.7411 85.0717 L 39.8073 85.0055 L 39.8802 84.9326 L 39.9275 84.8853 L 40.0198 84.793 L 40.0481 84.7646 L 40.0481 84.7646 L 40.064 84.7488 L 40.1824 84.6304 L 40.1824 84.6304 L 40.2024 84.6104 L 40.319 84.4938 L 40.3576 84.4552 L 40.4477 84.3651 L 40.461 84.3518 L 40.461 84.3518 L 40.6108 84.202 L 40.8042 84.0086 L 40.8669 83.9459 L 40.8759 83.9369 L 41.087 83.7258 L 41.1368 83.676 L 41.1561 83.6567 L 41.4236 83.3892 L 41.4313 83.3815 L 41.4313 83.3815 L 41.4641 83.3487 L 41.3827 83.2025 L 41.364 83.1692 L 41.628 82.9052 L 41.7324 82.8009 Z" fill="none" stroke="blue" stroke-width="0.05000" fill-rule="evenodd" fill-opacity="1.000"/>
  </g>
</svg>
