<?xml version="1.0" encoding="UTF-8" standalone="yes"?>
<!DOCTYPE svg PUBLIC "-//W3C//DTD SVG 1.0//EN" "http://www.w3.org/TR/2001/REC-SVG-20010904/DTD/svg10.dtd">
<svg height="2000" width="2000" xmlns="http://www.w3.org/2000/svg" xmlns:svg="http://www.w3.org/2000/svg" xmlns:xlink="http://www.w3.org/1999/xlink">
  <marker id="endArrow" markerHeight="8" markerUnits="strokeWidth" markerWidth="10" orient="auto" refX="1" refY="5" viewBox="0 0 1000 1000">
    <polyline fill="darkblue" points="0,0 10,5 0,10 1,5" />
  </marker>
  <circle cx="1000.000000" cy="1000.000000" r="1.000000" style="stroke:black; fill: red" />
  <circle cx="1000.000000" cy="1000.000000" r="800.000000" style="stroke:black; fill: none" />
  <line x1="1335.521973" y1="1410.000000" x2="1442.527832" y2="1060.000000" style="stroke: green; stroke-width: 0.200000"/>
  <line x1="1336.567627" y1="1410.000000" x2="1443.573486" y2="1060.000000" style="stroke: green; stroke-width: 0.200000"/>
  <line x1="1337.613403" y1="1410.000000" x2="1444.619141" y2="1060.000000" style="stroke: green; stroke-width: 0.200000"/>
  <line x1="1338.659058" y1="1410.000000" x2="1445.664795" y2="1060.000000" style="stroke: green; stroke-width: 0.200000"/>
  <line x1="1339.704712" y1="1410.000000" x2="1446.710449" y2="1060.000000" style="stroke: green; stroke-width: 0.200000"/>
  <line x1="1340.750488" y1="1410.000000" x2="1447.756226" y2="1060.000000" style="stroke: green; stroke-width: 0.200000"/>
  <line x1="1341.796143" y1="1410.000000" x2="1448.801880" y2="1060.000000" style="stroke: green; stroke-width: 0.200000"/>
  <line x1="1342.841797" y1="1410.000000" x2="1449.847534" y2="1060.000000" style="stroke: green; stroke-width: 0.200000"/>
  <line x1="1343.887451" y1="1410.000000" x2="1450.893311" y2="1060.000000" style="stroke: green; stroke-width: 0.200000"/>
  <line x1="1344.933105" y1="1410.000000" x2="1451.938965" y2="1060.000000" style="stroke: green; stroke-width: 0.200000"/>
  <line x1="1345.978882" y1="1410.000000" x2="1452.984619" y2="1060.000000" style="stroke: green; stroke-width: 0.200000"/>
  <line x1="1347.024536" y1="1410.000000" x2="1454.030273" y2="1060.000000" style="stroke: green; stroke-width: 0.200000"/>
  <line x1="1348.070312" y1="1410.000000" x2="1455.075928" y2="1060.000000" style="stroke: green; stroke-width: 0.200000"/>
  <line x1="1349.115967" y1="1410.000000" x2="1456.121704" y2="1060.000000" style="stroke: green; stroke-width: 0.200000"/>
  <line x1="1350.161743" y1="1410.000000" x2="1457.167358" y2="1060.000000" style="stroke: green; stroke-width: 0.200000"/>
  <line x1="1351.207275" y1="1410.000000" x2="1458.213013" y2="1060.000000" style="stroke: green; stroke-width: 0.200000"/>
  <line x1="1352.253174" y1="1410.000000" x2="1459.258789" y2="1060.000000" style="stroke: green; stroke-width: 0.200000"/>
  <line x1="1353.298584" y1="1410.000000" x2="1460.304443" y2="1060.000000" style="stroke: green; stroke-width: 0.200000"/>
  <line x1="1354.344482" y1="1410.000000" x2="1461.350098" y2="1060.000000" style="stroke: green; stroke-width: 0.200000"/>
  <line x1="1355.390015" y1="1410.000000" x2="1462.395996" y2="1060.000000" style="stroke: green; stroke-width: 0.200000"/>
  <line x1="1356.435791" y1="1410.000000" x2="1463.441406" y2="1060.000000" style="stroke: green; stroke-width: 0.200000"/>
  <line x1="1357.481567" y1="1410.000000" x2="1464.487305" y2="1060.000000" style="stroke: green; stroke-width: 0.200000"/>
  <line x1="1358.527222" y1="1410.000000" x2="1465.532837" y2="1060.000000" style="stroke: green; stroke-width: 0.200000"/>
  <line x1="1359.572876" y1="1410.000000" x2="1466.578613" y2="1060.000000" style="stroke: green; stroke-width: 0.200000"/>
  <line x1="1360.618652" y1="1410.000000" x2="1467.624390" y2="1060.000000" style="stroke: green; stroke-width: 0.200000"/>
  <line x1="1361.664307" y1="1410.000000" x2="1468.670044" y2="1060.000000" style="stroke: green; stroke-width: 0.200000"/>
  <line x1="1362.709961" y1="1410.000000" x2="1469.715698" y2="1060.000000" style="stroke: green; stroke-width: 0.200000"/>
  <line x1="1363.755615" y1="1410.000000" x2="1470.761475" y2="1060.000000" style="stroke: green; stroke-width: 0.200000"/>
  <line x1="1364.801270" y1="1410.000000" x2="1471.807129" y2="1060.000000" style="stroke: green; stroke-width: 0.200000"/>
  <line x1="1365.847046" y1="1410.000000" x2="1472.852783" y2="1060.000000" style="stroke: green; stroke-width: 0.200000"/>
  <line x1="1366.892700" y1="1410.000000" x2="1473.898438" y2="1060.000000" style="stroke: green; stroke-width: 0.200000"/>
  <line x1="1367.938354" y1="1410.000000" x2="1474.944092" y2="1060.000000" style="stroke: green; stroke-width: 0.200000"/>
  <line x1="1368.984131" y1="1410.000000" x2="1475.989868" y2="1060.000000" style="stroke: green; stroke-width: 0.200000"/>
  <line x1="1370.029785" y1="1410.000000" x2="1477.035522" y2="1060.000000" style="stroke: green; stroke-width: 0.200000"/>
  <line x1="1371.075439" y1="1410.000000" x2="1478.081177" y2="1060.000000" style="stroke: green; stroke-width: 0.200000"/>
  <line x1="1372.121338" y1="1410.000000" x2="1479.126953" y2="1060.000000" style="stroke: green; stroke-width: 0.200000"/>
  <line x1="1373.166748" y1="1410.000000" x2="1480.172607" y2="1060.000000" style="stroke: green; stroke-width: 0.200000"/>
  <line x1="1374.212646" y1="1410.000000" x2="1481.218262" y2="1060.000000" style="stroke: green; stroke-width: 0.200000"/>
  <line x1="1375.258179" y1="1410.000000" x2="1482.263916" y2="1060.000000" style="stroke: green; stroke-width: 0.200000"/>
  <line x1="1376.303955" y1="1410.000000" x2="1483.309570" y2="1060.000000" style="stroke: green; stroke-width: 0.200000"/>
  <line x1="1377.349609" y1="1410.000000" x2="1484.355469" y2="1060.000000" style="stroke: green; stroke-width: 0.200000"/>
  <line x1="1378.395386" y1="1410.000000" x2="1485.401001" y2="1060.000000" style="stroke: green; stroke-width: 0.200000"/>
  <line x1="1379.441040" y1="1410.000000" x2="1486.446777" y2="1060.000000" style="stroke: green; stroke-width: 0.200000"/>
  <line x1="1380.486816" y1="1410.000000" x2="1487.492432" y2="1060.000000" style="stroke: green; stroke-width: 0.200000"/>
  <line x1="1381.532471" y1="1410.000000" x2="1488.538208" y2="1060.000000" style="stroke: green; stroke-width: 0.200000"/>
  <line x1="1382.578125" y1="1410.000000" x2="1489.583862" y2="1060.000000" style="stroke: green; stroke-width: 0.200000"/>
  <line x1="1383.623779" y1="1410.000000" x2="1490.629639" y2="1060.000000" style="stroke: green; stroke-width: 0.200000"/>
  <line x1="1384.669434" y1="1410.000000" x2="1491.675293" y2="1060.000000" style="stroke: green; stroke-width: 0.200000"/>
  <line x1="1385.715210" y1="1410.000000" x2="1492.720947" y2="1060.000000" style="stroke: green; stroke-width: 0.200000"/>
  <line x1="1386.760864" y1="1410.000000" x2="1493.766602" y2="1060.000000" style="stroke: green; stroke-width: 0.200000"/>
  <line x1="1387.806519" y1="1410.000000" x2="1494.812256" y2="1060.000000" style="stroke: green; stroke-width: 0.200000"/>
  <line x1="1388.852295" y1="1410.000000" x2="1495.858032" y2="1060.000000" style="stroke: green; stroke-width: 0.200000"/>
  <line x1="1389.897949" y1="1410.000000" x2="1496.903687" y2="1060.000000" style="stroke: green; stroke-width: 0.200000"/>
  <line x1="1390.943604" y1="1410.000000" x2="1497.949341" y2="1060.000000" style="stroke: green; stroke-width: 0.200000"/>
  <line x1="1391.989258" y1="1410.000000" x2="1498.995117" y2="1060.000000" style="stroke: green; stroke-width: 0.200000"/>
  <line x1="1393.034912" y1="1410.000000" x2="1500.040771" y2="1060.000000" style="stroke: green; stroke-width: 0.200000"/>
  <line x1="1394.080688" y1="1410.000000" x2="1501.086426" y2="1060.000000" style="stroke: green; stroke-width: 0.200000"/>
  <line x1="1395.126343" y1="1410.000000" x2="1502.132080" y2="1060.000000" style="stroke: green; stroke-width: 0.200000"/>
  <line x1="1396.172119" y1="1410.000000" x2="1503.177734" y2="1060.000000" style="stroke: green; stroke-width: 0.200000"/>
  <line x1="1397.217773" y1="1410.000000" x2="1504.223511" y2="1060.000000" style="stroke: green; stroke-width: 0.200000"/>
  <line x1="1398.263550" y1="1410.000000" x2="1505.269165" y2="1060.000000" style="stroke: green; stroke-width: 0.200000"/>
  <line x1="1399.309082" y1="1410.000000" x2="1506.314941" y2="1060.000000" style="stroke: green; stroke-width: 0.200000"/>
  <line x1="1400.354980" y1="1410.000000" x2="1507.360596" y2="1060.000000" style="stroke: green; stroke-width: 0.200000"/>
  <line x1="1401.400635" y1="1410.000000" x2="1508.406372" y2="1060.000000" style="stroke: green; stroke-width: 0.200000"/>
  <line x1="1402.446289" y1="1410.000000" x2="1509.451904" y2="1060.000000" style="stroke: green; stroke-width: 0.200000"/>
  <line x1="1403.491943" y1="1410.000000" x2="1510.497803" y2="1060.000000" style="stroke: green; stroke-width: 0.200000"/>
  <line x1="1404.537598" y1="1410.000000" x2="1511.543213" y2="1060.000000" style="stroke: green; stroke-width: 0.200000"/>
  <line x1="1405.583374" y1="1410.000000" x2="1512.589111" y2="1060.000000" style="stroke: green; stroke-width: 0.200000"/>
  <line x1="1406.629028" y1="1410.000000" x2="1513.634766" y2="1060.000000" style="stroke: green; stroke-width: 0.200000"/>
  <line x1="1407.674683" y1="1410.000000" x2="1514.680420" y2="1060.000000" style="stroke: green; stroke-width: 0.200000"/>
  <line x1="1408.720459" y1="1410.000000" x2="1515.726196" y2="1060.000000" style="stroke: green; stroke-width: 0.200000"/>
  <line x1="1409.766113" y1="1410.000000" x2="1516.771851" y2="1060.000000" style="stroke: green; stroke-width: 0.200000"/>
  <line x1="1410.811768" y1="1410.000000" x2="1517.817505" y2="1060.000000" style="stroke: green; stroke-width: 0.200000"/>
  <line x1="1411.857422" y1="1410.000000" x2="1518.863281" y2="1060.000000" style="stroke: green; stroke-width: 0.200000"/>
  <line x1="1412.903076" y1="1410.000000" x2="1519.908936" y2="1060.000000" style="stroke: green; stroke-width: 0.200000"/>
  <line x1="1413.948853" y1="1410.000000" x2="1520.954590" y2="1060.000000" style="stroke: green; stroke-width: 0.200000"/>
  <line x1="1414.994507" y1="1410.000000" x2="1522.000244" y2="1060.000000" style="stroke: green; stroke-width: 0.200000"/>
  <line x1="1416.040161" y1="1410.000000" x2="1523.045898" y2="1060.000000" style="stroke: green; stroke-width: 0.200000"/>
  <line x1="1417.085938" y1="1410.000000" x2="1524.091675" y2="1060.000000" style="stroke: green; stroke-width: 0.200000"/>
  <line x1="1418.131714" y1="1410.000000" x2="1525.137329" y2="1060.000000" style="stroke: green; stroke-width: 0.200000"/>
  <line x1="1419.177246" y1="1410.000000" x2="1526.182983" y2="1060.000000" style="stroke: green; stroke-width: 0.200000"/>
  <line x1="1420.223145" y1="1410.000000" x2="1527.228760" y2="1060.000000" style="stroke: green; stroke-width: 0.200000"/>
  <line x1="1421.268555" y1="1410.000000" x2="1528.274414" y2="1060.000000" style="stroke: green; stroke-width: 0.200000"/>
  <line x1="1422.314453" y1="1410.000000" x2="1529.320068" y2="1060.000000" style="stroke: green; stroke-width: 0.200000"/>
  <line x1="1423.359985" y1="1410.000000" x2="1530.365967" y2="1060.000000" style="stroke: green; stroke-width: 0.200000"/>
  <line x1="1424.405762" y1="1410.000000" x2="1531.411377" y2="1060.000000" style="stroke: green; stroke-width: 0.200000"/>
  <line x1="1425.451538" y1="1410.000000" x2="1532.457275" y2="1060.000000" style="stroke: green; stroke-width: 0.200000"/>
  <line x1="1426.497192" y1="1410.000000" x2="1533.502808" y2="1060.000000" style="stroke: green; stroke-width: 0.200000"/>
  <line x1="1427.542847" y1="1410.000000" x2="1534.548584" y2="1060.000000" style="stroke: green; stroke-width: 0.200000"/>
  <line x1="1428.588623" y1="1410.000000" x2="1535.594238" y2="1060.000000" style="stroke: green; stroke-width: 0.200000"/>
  <line x1="1429.634277" y1="1410.000000" x2="1536.640015" y2="1060.000000" style="stroke: green; stroke-width: 0.200000"/>
  <line x1="1430.679932" y1="1410.000000" x2="1537.685669" y2="1060.000000" style="stroke: green; stroke-width: 0.200000"/>
  <line x1="1431.725586" y1="1410.000000" x2="1538.731445" y2="1060.000000" style="stroke: green; stroke-width: 0.200000"/>
  <line x1="1432.771240" y1="1410.000000" x2="1539.777100" y2="1060.000000" style="stroke: green; stroke-width: 0.200000"/>
  <line x1="1433.817017" y1="1410.000000" x2="1540.822754" y2="1060.000000" style="stroke: green; stroke-width: 0.200000"/>
  <line x1="1434.862671" y1="1410.000000" x2="1541.868408" y2="1060.000000" style="stroke: green; stroke-width: 0.200000"/>
  <line x1="1435.908325" y1="1410.000000" x2="1542.914062" y2="1060.000000" style="stroke: green; stroke-width: 0.200000"/>
  <line x1="1436.954102" y1="1410.000000" x2="1543.959839" y2="1060.000000" style="stroke: green; stroke-width: 0.200000"/>
  <line x1="1437.999756" y1="1410.000000" x2="1545.005493" y2="1060.000000" style="stroke: green; stroke-width: 0.200000"/>
  <line x1="1439.045410" y1="1410.000000" x2="1546.051147" y2="1060.000000" style="stroke: green; stroke-width: 0.200000"/>
  <line x1="1440.091064" y1="1410.000000" x2="1547.096924" y2="1060.000000" style="stroke: green; stroke-width: 0.200000"/>
  <line x1="1441.136719" y1="1410.000000" x2="1548.142578" y2="1060.000000" style="stroke: green; stroke-width: 0.200000"/>
  <line x1="1442.182617" y1="1410.000000" x2="1549.188232" y2="1060.000000" style="stroke: green; stroke-width: 0.200000"/>
  <line x1="1443.228149" y1="1410.000000" x2="1550.233887" y2="1060.000000" style="stroke: green; stroke-width: 0.200000"/>
  <line x1="1444.273926" y1="1410.000000" x2="1551.279541" y2="1060.000000" style="stroke: green; stroke-width: 0.200000"/>
  <line x1="1445.319702" y1="1410.000000" x2="1552.325439" y2="1060.000000" style="stroke: green; stroke-width: 0.200000"/>
  <line x1="1446.365356" y1="1410.000000" x2="1553.370972" y2="1060.000000" style="stroke: green; stroke-width: 0.200000"/>
  <line x1="1447.411011" y1="1410.000000" x2="1554.416748" y2="1060.000000" style="stroke: green; stroke-width: 0.200000"/>
  <line x1="1448.456787" y1="1410.000000" x2="1555.462402" y2="1060.000000" style="stroke: green; stroke-width: 0.200000"/>
  <line x1="1449.502441" y1="1410.000000" x2="1556.508179" y2="1060.000000" style="stroke: green; stroke-width: 0.200000"/>
  <line x1="1450.548096" y1="1410.000000" x2="1557.553833" y2="1060.000000" style="stroke: green; stroke-width: 0.200000"/>
  <line x1="1451.593750" y1="1410.000000" x2="1558.599609" y2="1060.000000" style="stroke: green; stroke-width: 0.200000"/>
  <line x1="1452.639404" y1="1410.000000" x2="1559.645264" y2="1060.000000" style="stroke: green; stroke-width: 0.200000"/>
  <line x1="1453.685181" y1="1410.000000" x2="1560.690918" y2="1060.000000" style="stroke: green; stroke-width: 0.200000"/>
  <line x1="1454.730835" y1="1410.000000" x2="1561.736572" y2="1060.000000" style="stroke: green; stroke-width: 0.200000"/>
  <line x1="1455.776489" y1="1410.000000" x2="1562.782227" y2="1060.000000" style="stroke: green; stroke-width: 0.200000"/>
  <line x1="1456.822266" y1="1410.000000" x2="1563.828003" y2="1060.000000" style="stroke: green; stroke-width: 0.200000"/>
  <line x1="1457.867920" y1="1410.000000" x2="1564.873657" y2="1060.000000" style="stroke: green; stroke-width: 0.200000"/>
  <line x1="1458.913574" y1="1410.000000" x2="1565.919312" y2="1060.000000" style="stroke: green; stroke-width: 0.200000"/>
  <line x1="1459.959229" y1="1410.000000" x2="1566.965088" y2="1060.000000" style="stroke: green; stroke-width: 0.200000"/>
  <line x1="1461.004883" y1="1410.000000" x2="1568.010742" y2="1060.000000" style="stroke: green; stroke-width: 0.200000"/>
  <line x1="1462.050659" y1="1410.000000" x2="1569.056396" y2="1060.000000" style="stroke: green; stroke-width: 0.200000"/>
  <line x1="1463.096313" y1="1410.000000" x2="1570.102051" y2="1060.000000" style="stroke: green; stroke-width: 0.200000"/>
  <line x1="1464.141968" y1="1410.000000" x2="1571.147705" y2="1060.000000" style="stroke: green; stroke-width: 0.200000"/>
  <line x1="1465.187744" y1="1410.000000" x2="1572.193604" y2="1060.000000" style="stroke: green; stroke-width: 0.200000"/>
  <line x1="1466.233521" y1="1410.000000" x2="1573.239136" y2="1060.000000" style="stroke: green; stroke-width: 0.200000"/>
  <line x1="1467.279175" y1="1410.000000" x2="1574.284912" y2="1060.000000" style="stroke: green; stroke-width: 0.200000"/>
  <line x1="1468.324951" y1="1410.000000" x2="1575.330566" y2="1060.000000" style="stroke: green; stroke-width: 0.200000"/>
  <line x1="1469.370605" y1="1410.000000" x2="1576.376343" y2="1060.000000" style="stroke: green; stroke-width: 0.200000"/>
  <line x1="1470.416260" y1="1410.000000" x2="1577.421875" y2="1060.000000" style="stroke: green; stroke-width: 0.200000"/>
  <line x1="1471.461914" y1="1410.000000" x2="1578.467773" y2="1060.000000" style="stroke: green; stroke-width: 0.200000"/>
  <line x1="1472.507568" y1="1410.000000" x2="1579.513428" y2="1060.000000" style="stroke: green; stroke-width: 0.200000"/>
  <line x1="1473.553345" y1="1410.000000" x2="1580.559082" y2="1060.000000" style="stroke: green; stroke-width: 0.200000"/>
  <line x1="1474.598999" y1="1410.000000" x2="1581.604736" y2="1060.000000" style="stroke: green; stroke-width: 0.200000"/>
  <line x1="1475.644653" y1="1410.000000" x2="1582.650391" y2="1060.000000" style="stroke: green; stroke-width: 0.200000"/>
  <line x1="1476.690430" y1="1410.000000" x2="1583.696167" y2="1060.000000" style="stroke: green; stroke-width: 0.200000"/>
  <line x1="1477.736084" y1="1410.000000" x2="1584.741821" y2="1060.000000" style="stroke: green; stroke-width: 0.200000"/>
  <line x1="1478.781738" y1="1410.000000" x2="1585.787476" y2="1060.000000" style="stroke: green; stroke-width: 0.200000"/>
  <line x1="1479.827393" y1="1410.000000" x2="1586.833252" y2="1060.000000" style="stroke: green; stroke-width: 0.200000"/>
  <line x1="1480.873047" y1="1410.000000" x2="1587.878906" y2="1060.000000" style="stroke: green; stroke-width: 0.200000"/>
  <line x1="1481.918823" y1="1410.000000" x2="1588.924561" y2="1060.000000" style="stroke: green; stroke-width: 0.200000"/>
  <line x1="1482.964478" y1="1410.000000" x2="1589.970215" y2="1060.000000" style="stroke: green; stroke-width: 0.200000"/>
  <line x1="1484.010132" y1="1410.000000" x2="1591.015869" y2="1060.000000" style="stroke: green; stroke-width: 0.200000"/>
  <line x1="1485.055908" y1="1410.000000" x2="1592.061646" y2="1060.000000" style="stroke: green; stroke-width: 0.200000"/>
  <line x1="1486.101562" y1="1410.000000" x2="1593.107300" y2="1060.000000" style="stroke: green; stroke-width: 0.200000"/>
  <line x1="1487.147217" y1="1410.000000" x2="1594.152954" y2="1060.000000" style="stroke: green; stroke-width: 0.200000"/>
  <line x1="1488.193115" y1="1410.000000" x2="1595.198730" y2="1060.000000" style="stroke: green; stroke-width: 0.200000"/>
  <line x1="1489.238525" y1="1410.000000" x2="1596.244507" y2="1060.000000" style="stroke: green; stroke-width: 0.200000"/>
  <line x1="1490.284424" y1="1410.000000" x2="1597.290039" y2="1060.000000" style="stroke: green; stroke-width: 0.200000"/>
  <line x1="1491.330078" y1="1410.000000" x2="1598.335938" y2="1060.000000" style="stroke: green; stroke-width: 0.200000"/>
  <line x1="1492.375732" y1="1410.000000" x2="1599.381348" y2="1060.000000" style="stroke: green; stroke-width: 0.200000"/>
  <line x1="1493.421509" y1="1410.000000" x2="1600.427246" y2="1060.000000" style="stroke: green; stroke-width: 0.200000"/>
  <line x1="1494.467163" y1="1410.000000" x2="1601.472778" y2="1060.000000" style="stroke: green; stroke-width: 0.200000"/>
  <line x1="1495.512817" y1="1410.000000" x2="1602.518555" y2="1060.000000" style="stroke: green; stroke-width: 0.200000"/>
  <line x1="1496.558594" y1="1410.000000" x2="1603.564331" y2="1060.000000" style="stroke: green; stroke-width: 0.200000"/>
  <line x1="1497.604248" y1="1410.000000" x2="1604.609985" y2="1060.000000" style="stroke: green; stroke-width: 0.200000"/>
  <line x1="1498.649902" y1="1410.000000" x2="1605.655640" y2="1060.000000" style="stroke: green; stroke-width: 0.200000"/>
  <line x1="1499.695557" y1="1410.000000" x2="1606.701416" y2="1060.000000" style="stroke: green; stroke-width: 0.200000"/>
  <line x1="1500.741211" y1="1410.000000" x2="1607.747070" y2="1060.000000" style="stroke: green; stroke-width: 0.200000"/>
  <line x1="1501.786987" y1="1410.000000" x2="1608.792725" y2="1060.000000" style="stroke: green; stroke-width: 0.200000"/>
  <line x1="1502.832642" y1="1410.000000" x2="1609.838379" y2="1060.000000" style="stroke: green; stroke-width: 0.200000"/>
  <line x1="1503.878296" y1="1410.000000" x2="1610.884033" y2="1060.000000" style="stroke: green; stroke-width: 0.200000"/>
  <line x1="1504.924072" y1="1410.000000" x2="1611.929810" y2="1060.000000" style="stroke: green; stroke-width: 0.200000"/>
  <line x1="1505.969727" y1="1410.000000" x2="1612.975464" y2="1060.000000" style="stroke: green; stroke-width: 0.200000"/>
  <line x1="1507.015381" y1="1410.000000" x2="1614.021118" y2="1060.000000" style="stroke: green; stroke-width: 0.200000"/>
  <line x1="1508.061035" y1="1410.000000" x2="1615.066895" y2="1060.000000" style="stroke: green; stroke-width: 0.200000"/>
  <line x1="1509.106689" y1="1410.000000" x2="1616.112549" y2="1060.000000" style="stroke: green; stroke-width: 0.200000"/>
  <line x1="1510.152466" y1="1410.000000" x2="1617.158203" y2="1060.000000" style="stroke: green; stroke-width: 0.200000"/>
  <line x1="1511.198120" y1="1410.000000" x2="1618.203857" y2="1060.000000" style="stroke: green; stroke-width: 0.200000"/>
  <line x1="1512.243896" y1="1410.000000" x2="1619.249512" y2="1060.000000" style="stroke: green; stroke-width: 0.200000"/>
  <line x1="1513.289551" y1="1410.000000" x2="1620.295410" y2="1060.000000" style="stroke: green; stroke-width: 0.200000"/>
  <line x1="1514.335327" y1="1410.000000" x2="1621.340942" y2="1060.000000" style="stroke: green; stroke-width: 0.200000"/>
  <line x1="1515.380981" y1="1410.000000" x2="1622.386719" y2="1060.000000" style="stroke: green; stroke-width: 0.200000"/>
  <line x1="1516.426758" y1="1410.000000" x2="1623.432373" y2="1060.000000" style="stroke: green; stroke-width: 0.200000"/>
  <line x1="1517.472412" y1="1410.000000" x2="1624.478149" y2="1060.000000" style="stroke: green; stroke-width: 0.200000"/>
  <line x1="1518.518066" y1="1410.000000" x2="1624.610840" y2="1062.985596" style="stroke: green; stroke-width: 0.200000"/>
  <line x1="1519.563721" y1="1410.000000" x2="1624.610840" y2="1066.406006" style="stroke: green; stroke-width: 0.200000"/>
  <line x1="1520.609375" y1="1410.000000" x2="1624.610840" y2="1069.826294" style="stroke: green; stroke-width: 0.200000"/>
  <line x1="1521.655151" y1="1410.000000" x2="1624.610840" y2="1073.246460" style="stroke: green; stroke-width: 0.200000"/>
  <line x1="1522.700806" y1="1410.000000" x2="1624.610840" y2="1076.666870" style="stroke: green; stroke-width: 0.200000"/>
  <line x1="1523.746460" y1="1410.000000" x2="1624.610840" y2="1080.087036" style="stroke: green; stroke-width: 0.200000"/>
  <line x1="1524.792236" y1="1410.000000" x2="1624.610840" y2="1083.507446" style="stroke: green; stroke-width: 0.200000"/>
  <line x1="1525.837891" y1="1410.000000" x2="1624.610840" y2="1086.927612" style="stroke: green; stroke-width: 0.200000"/>
  <line x1="1526.883545" y1="1410.000000" x2="1624.610840" y2="1090.348145" style="stroke: green; stroke-width: 0.200000"/>
  <line x1="1527.929199" y1="1410.000000" x2="1624.610840" y2="1093.768311" style="stroke: green; stroke-width: 0.200000"/>
  <line x1="1528.974854" y1="1410.000000" x2="1624.610840" y2="1097.188721" style="stroke: green; stroke-width: 0.200000"/>
  <line x1="1530.020630" y1="1410.000000" x2="1624.610840" y2="1100.608887" style="stroke: green; stroke-width: 0.200000"/>
  <line x1="1531.066284" y1="1410.000000" x2="1624.610840" y2="1104.029297" style="stroke: green; stroke-width: 0.200000"/>
  <line x1="1532.111938" y1="1410.000000" x2="1624.610840" y2="1107.449463" style="stroke: green; stroke-width: 0.200000"/>
  <line x1="1533.157715" y1="1410.000000" x2="1624.610840" y2="1110.869873" style="stroke: green; stroke-width: 0.200000"/>
  <line x1="1534.203491" y1="1410.000000" x2="1624.610840" y2="1114.290161" style="stroke: green; stroke-width: 0.200000"/>
  <line x1="1535.249023" y1="1410.000000" x2="1624.610840" y2="1117.710571" style="stroke: green; stroke-width: 0.200000"/>
  <line x1="1536.294922" y1="1410.000000" x2="1624.610840" y2="1121.130737" style="stroke: green; stroke-width: 0.200000"/>
  <line x1="1537.340576" y1="1410.000000" x2="1624.610840" y2="1124.551147" style="stroke: green; stroke-width: 0.200000"/>
  <line x1="1538.386230" y1="1410.000000" x2="1624.610840" y2="1127.971313" style="stroke: green; stroke-width: 0.200000"/>
  <line x1="1539.431885" y1="1410.000000" x2="1624.610840" y2="1131.391724" style="stroke: green; stroke-width: 0.200000"/>
  <line x1="1540.477539" y1="1410.000000" x2="1624.610840" y2="1134.812012" style="stroke: green; stroke-width: 0.200000"/>
  <line x1="1541.523315" y1="1410.000000" x2="1624.610840" y2="1138.232422" style="stroke: green; stroke-width: 0.200000"/>
  <line x1="1542.568970" y1="1410.000000" x2="1624.610840" y2="1141.652588" style="stroke: green; stroke-width: 0.200000"/>
  <line x1="1543.614624" y1="1410.000000" x2="1624.610840" y2="1145.072998" style="stroke: green; stroke-width: 0.200000"/>
  <line x1="1544.660400" y1="1410.000000" x2="1624.610840" y2="1148.493286" style="stroke: green; stroke-width: 0.200000"/>
  <line x1="1545.706055" y1="1410.000000" x2="1624.610840" y2="1151.913452" style="stroke: green; stroke-width: 0.200000"/>
  <line x1="1546.751709" y1="1410.000000" x2="1624.610840" y2="1155.333862" style="stroke: green; stroke-width: 0.200000"/>
  <line x1="1547.797363" y1="1410.000000" x2="1624.610840" y2="1158.754028" style="stroke: green; stroke-width: 0.200000"/>
  <line x1="1548.843018" y1="1410.000000" x2="1624.610840" y2="1162.174316" style="stroke: green; stroke-width: 0.200000"/>
  <line x1="1549.888794" y1="1410.000000" x2="1624.610840" y2="1165.594604" style="stroke: green; stroke-width: 0.200000"/>
  <line x1="1550.934448" y1="1410.000000" x2="1624.610840" y2="1169.015015" style="stroke: green; stroke-width: 0.200000"/>
  <line x1="1551.980103" y1="1410.000000" x2="1624.610840" y2="1172.435303" style="stroke: green; stroke-width: 0.200000"/>
  <line x1="1553.025879" y1="1410.000000" x2="1624.610840" y2="1175.855713" style="stroke: green; stroke-width: 0.200000"/>
  <line x1="1554.071533" y1="1410.000000" x2="1624.610840" y2="1179.275879" style="stroke: green; stroke-width: 0.200000"/>
  <line x1="1555.117188" y1="1410.000000" x2="1624.610840" y2="1182.696289" style="stroke: green; stroke-width: 0.200000"/>
  <line x1="1556.162842" y1="1410.000000" x2="1624.610840" y2="1186.116455" style="stroke: green; stroke-width: 0.200000"/>
  <line x1="1557.208496" y1="1410.000000" x2="1624.610840" y2="1189.536865" style="stroke: green; stroke-width: 0.200000"/>
  <line x1="1558.254395" y1="1410.000000" x2="1624.610840" y2="1192.957153" style="stroke: green; stroke-width: 0.200000"/>
  <line x1="1559.299927" y1="1410.000000" x2="1624.610840" y2="1196.377563" style="stroke: green; stroke-width: 0.200000"/>
  <line x1="1560.345703" y1="1410.000000" x2="1624.610840" y2="1199.797729" style="stroke: green; stroke-width: 0.200000"/>
  <line x1="1561.391479" y1="1410.000000" x2="1624.610840" y2="1203.218140" style="stroke: green; stroke-width: 0.200000"/>
  <line x1="1562.437134" y1="1410.000000" x2="1624.610840" y2="1206.638306" style="stroke: green; stroke-width: 0.200000"/>
  <line x1="1563.482788" y1="1410.000000" x2="1624.610840" y2="1210.058716" style="stroke: green; stroke-width: 0.200000"/>
  <line x1="1564.528564" y1="1410.000000" x2="1624.610840" y2="1213.479004" style="stroke: green; stroke-width: 0.200000"/>
  <line x1="1565.574219" y1="1410.000000" x2="1624.610840" y2="1216.899414" style="stroke: green; stroke-width: 0.200000"/>
  <line x1="1566.619873" y1="1410.000000" x2="1624.610840" y2="1220.319580" style="stroke: green; stroke-width: 0.200000"/>
  <line x1="1567.665527" y1="1410.000000" x2="1624.610840" y2="1223.739868" style="stroke: green; stroke-width: 0.200000"/>
  <line x1="1568.711182" y1="1410.000000" x2="1624.610840" y2="1227.160156" style="stroke: green; stroke-width: 0.200000"/>
  <line x1="1569.756958" y1="1410.000000" x2="1624.610840" y2="1230.580444" style="stroke: green; stroke-width: 0.200000"/>
  <line x1="1570.802612" y1="1410.000000" x2="1624.610840" y2="1234.000732" style="stroke: green; stroke-width: 0.200000"/>
  <line x1="1571.848267" y1="1410.000000" x2="1624.610840" y2="1237.421021" style="stroke: green; stroke-width: 0.200000"/>
  <line x1="1572.894043" y1="1410.000000" x2="1624.610840" y2="1240.841309" style="stroke: green; stroke-width: 0.200000"/>
  <line x1="1573.939697" y1="1410.000000" x2="1624.610840" y2="1244.261597" style="stroke: green; stroke-width: 0.200000"/>
  <line x1="1574.985352" y1="1410.000000" x2="1624.610840" y2="1247.682007" style="stroke: green; stroke-width: 0.200000"/>
  <line x1="1576.031006" y1="1410.000000" x2="1624.610840" y2="1251.102295" style="stroke: green; stroke-width: 0.200000"/>
  <line x1="1577.076660" y1="1410.000000" x2="1624.610840" y2="1254.522583" style="stroke: green; stroke-width: 0.200000"/>
  <line x1="1578.122437" y1="1410.000000" x2="1624.610840" y2="1257.942871" style="stroke: green; stroke-width: 0.200000"/>
  <line x1="1579.168091" y1="1410.000000" x2="1624.610840" y2="1261.363281" style="stroke: green; stroke-width: 0.200000"/>
  <line x1="1580.213745" y1="1410.000000" x2="1624.610840" y2="1264.783447" style="stroke: green; stroke-width: 0.200000"/>
  <line x1="1581.259521" y1="1410.000000" x2="1624.610840" y2="1268.203857" style="stroke: green; stroke-width: 0.200000"/>
  <line x1="1582.305298" y1="1410.000000" x2="1624.610840" y2="1271.624146" style="stroke: green; stroke-width: 0.200000"/>
  <line x1="1583.350952" y1="1410.000000" x2="1624.610840" y2="1275.044556" style="stroke: green; stroke-width: 0.200000"/>
  <line x1="1584.396729" y1="1410.000000" x2="1624.610840" y2="1278.464722" style="stroke: green; stroke-width: 0.200000"/>
  <line x1="1585.442383" y1="1410.000000" x2="1624.610840" y2="1281.885010" style="stroke: green; stroke-width: 0.200000"/>
  <line x1="1586.488037" y1="1410.000000" x2="1624.610840" y2="1285.305298" style="stroke: green; stroke-width: 0.200000"/>
  <line x1="1587.533691" y1="1410.000000" x2="1624.610840" y2="1288.725708" style="stroke: green; stroke-width: 0.200000"/>
  <line x1="1588.579346" y1="1410.000000" x2="1624.610840" y2="1292.145996" style="stroke: green; stroke-width: 0.200000"/>
  <line x1="1589.625122" y1="1410.000000" x2="1624.610840" y2="1295.566406" style="stroke: green; stroke-width: 0.200000"/>
  <line x1="1590.670776" y1="1410.000000" x2="1624.610840" y2="1298.986572" style="stroke: green; stroke-width: 0.200000"/>
  <line x1="1591.716431" y1="1410.000000" x2="1624.610840" y2="1302.406738" style="stroke: green; stroke-width: 0.200000"/>
  <line x1="1592.762207" y1="1410.000000" x2="1624.610840" y2="1305.827148" style="stroke: green; stroke-width: 0.200000"/>
  <line x1="1593.807861" y1="1410.000000" x2="1624.610840" y2="1309.247437" style="stroke: green; stroke-width: 0.200000"/>
  <line x1="1594.853516" y1="1410.000000" x2="1624.610840" y2="1312.667847" style="stroke: green; stroke-width: 0.200000"/>
  <line x1="1595.899170" y1="1410.000000" x2="1624.610840" y2="1316.087891" style="stroke: green; stroke-width: 0.200000"/>
  <line x1="1596.944824" y1="1410.000000" x2="1624.610840" y2="1319.508301" style="stroke: green; stroke-width: 0.200000"/>
  <line x1="1597.990601" y1="1410.000000" x2="1624.610840" y2="1322.928589" style="stroke: green; stroke-width: 0.200000"/>
  <line x1="1599.036255" y1="1410.000000" x2="1624.610840" y2="1326.348999" style="stroke: green; stroke-width: 0.200000"/>
  <line x1="1600.081909" y1="1410.000000" x2="1624.610840" y2="1329.769287" style="stroke: green; stroke-width: 0.200000"/>
  <line x1="1601.127686" y1="1410.000000" x2="1624.610840" y2="1333.189697" style="stroke: green; stroke-width: 0.200000"/>
  <line x1="1602.173340" y1="1410.000000" x2="1624.610840" y2="1336.609863" style="stroke: green; stroke-width: 0.200000"/>
  <line x1="1603.218994" y1="1410.000000" x2="1624.610840" y2="1340.030273" style="stroke: green; stroke-width: 0.200000"/>
  <line x1="1604.264893" y1="1410.000000" x2="1624.610840" y2="1343.450439" style="stroke: green; stroke-width: 0.200000"/>
  <line x1="1605.310547" y1="1410.000000" x2="1624.610840" y2="1346.870850" style="stroke: green; stroke-width: 0.200000"/>
  <line x1="1606.356201" y1="1410.000000" x2="1624.610840" y2="1350.291138" style="stroke: green; stroke-width: 0.200000"/>
  <line x1="1607.401855" y1="1410.000000" x2="1624.610840" y2="1353.711548" style="stroke: green; stroke-width: 0.200000"/>
  <line x1="1608.447510" y1="1410.000000" x2="1624.610840" y2="1357.131836" style="stroke: green; stroke-width: 0.200000"/>
  <line x1="1609.493286" y1="1410.000000" x2="1624.610840" y2="1360.552002" style="stroke: green; stroke-width: 0.200000"/>
  <line x1="1610.538940" y1="1410.000000" x2="1624.610840" y2="1363.972290" style="stroke: green; stroke-width: 0.200000"/>
  <line x1="1611.584595" y1="1410.000000" x2="1624.610840" y2="1367.392700" style="stroke: green; stroke-width: 0.200000"/>
  <line x1="1612.630371" y1="1410.000000" x2="1624.610840" y2="1370.812988" style="stroke: green; stroke-width: 0.200000"/>
  <line x1="1613.676025" y1="1410.000000" x2="1624.610840" y2="1374.233398" style="stroke: green; stroke-width: 0.200000"/>
  <line x1="1614.721680" y1="1410.000000" x2="1624.610840" y2="1377.653564" style="stroke: green; stroke-width: 0.200000"/>
  <line x1="1615.767334" y1="1410.000000" x2="1624.610840" y2="1381.073730" style="stroke: green; stroke-width: 0.200000"/>
  <line x1="1616.812988" y1="1410.000000" x2="1624.610840" y2="1384.494141" style="stroke: green; stroke-width: 0.200000"/>
  <line x1="1617.858765" y1="1410.000000" x2="1624.610840" y2="1387.914429" style="stroke: green; stroke-width: 0.200000"/>
  <line x1="1618.904419" y1="1410.000000" x2="1624.610840" y2="1391.334839" style="stroke: green; stroke-width: 0.200000"/>
  <line x1="1619.950073" y1="1410.000000" x2="1624.610840" y2="1394.754883" style="stroke: green; stroke-width: 0.200000"/>
  <line x1="1620.995850" y1="1410.000000" x2="1624.610840" y2="1398.175293" style="stroke: green; stroke-width: 0.200000"/>
  <line x1="1622.041504" y1="1410.000000" x2="1624.610840" y2="1401.595581" style="stroke: green; stroke-width: 0.200000"/>
  <line x1="1623.087158" y1="1410.000000" x2="1624.610840" y2="1405.015991" style="stroke: green; stroke-width: 0.200000"/>
  <line x1="1624.132812" y1="1410.000000" x2="1624.610840" y2="1408.436279" style="stroke: green; stroke-width: 0.200000"/>
  <line x1="1335.389160" y1="1407.014282" x2="1441.481934" y2="1060.000000" style="stroke: green; stroke-width: 0.200000"/>
  <line x1="1335.389160" y1="1403.593994" x2="1440.436401" y2="1060.000000" style="stroke: green; stroke-width: 0.200000"/>
  <line x1="1335.389160" y1="1400.173584" x2="1439.390625" y2="1060.000000" style="stroke: green; stroke-width: 0.200000"/>
  <line x1="1335.389160" y1="1396.753418" x2="1438.344971" y2="1060.000000" style="stroke: green; stroke-width: 0.200000"/>
  <line x1="1335.389160" y1="1393.333130" x2="1437.299194" y2="1060.000000" style="stroke: green; stroke-width: 0.200000"/>
  <line x1="1335.389160" y1="1389.912720" x2="1436.253540" y2="1060.000000" style="stroke: green; stroke-width: 0.200000"/>
  <line x1="1335.389160" y1="1386.492432" x2="1435.207764" y2="1060.000000" style="stroke: green; stroke-width: 0.200000"/>
  <line x1="1335.389160" y1="1383.072266" x2="1434.162109" y2="1060.000000" style="stroke: green; stroke-width: 0.200000"/>
  <line x1="1335.389160" y1="1379.651978" x2="1433.116455" y2="1060.000000" style="stroke: green; stroke-width: 0.200000"/>
  <line x1="1335.389160" y1="1376.231567" x2="1432.070801" y2="1060.000000" style="stroke: green; stroke-width: 0.200000"/>
  <line x1="1335.389160" y1="1372.811279" x2="1431.025146" y2="1060.000000" style="stroke: green; stroke-width: 0.200000"/>
  <line x1="1335.389160" y1="1369.390869" x2="1429.979370" y2="1060.000000" style="stroke: green; stroke-width: 0.200000"/>
  <line x1="1335.389160" y1="1365.970581" x2="1428.933716" y2="1060.000000" style="stroke: green; stroke-width: 0.200000"/>
  <line x1="1335.389160" y1="1362.550293" x2="1427.888062" y2="1060.000000" style="stroke: green; stroke-width: 0.200000"/>
  <line x1="1335.389160" y1="1359.130127" x2="1426.842285" y2="1060.000000" style="stroke: green; stroke-width: 0.200000"/>
  <line x1="1335.389160" y1="1355.709839" x2="1425.796631" y2="1060.000000" style="stroke: green; stroke-width: 0.200000"/>
  <line x1="1335.389160" y1="1352.289429" x2="1424.750977" y2="1060.000000" style="stroke: green; stroke-width: 0.200000"/>
  <line x1="1335.389160" y1="1348.869141" x2="1423.705322" y2="1060.000000" style="stroke: green; stroke-width: 0.200000"/>
  <line x1="1335.389160" y1="1345.448975" x2="1422.659668" y2="1060.000000" style="stroke: green; stroke-width: 0.200000"/>
  <line x1="1335.389160" y1="1342.028564" x2="1421.613892" y2="1060.000000" style="stroke: green; stroke-width: 0.200000"/>
  <line x1="1335.389160" y1="1338.608276" x2="1420.568237" y2="1060.000000" style="stroke: green; stroke-width: 0.200000"/>
  <line x1="1335.389160" y1="1335.187988" x2="1419.522583" y2="1060.000000" style="stroke: green; stroke-width: 0.200000"/>
  <line x1="1335.389160" y1="1331.767700" x2="1418.476807" y2="1060.000000" style="stroke: green; stroke-width: 0.200000"/>
  <line x1="1335.389160" y1="1328.347290" x2="1417.431030" y2="1060.000000" style="stroke: green; stroke-width: 0.200000"/>
  <line x1="1335.389160" y1="1324.927002" x2="1416.385498" y2="1060.000000" style="stroke: green; stroke-width: 0.200000"/>
  <line x1="1335.389160" y1="1321.506592" x2="1415.339600" y2="1060.000000" style="stroke: green; stroke-width: 0.200000"/>
  <line x1="1335.389160" y1="1318.086426" x2="1414.293945" y2="1060.000000" style="stroke: green; stroke-width: 0.200000"/>
  <line x1="1335.389160" y1="1314.666138" x2="1413.248291" y2="1060.000000" style="stroke: green; stroke-width: 0.200000"/>
  <line x1="1335.389160" y1="1311.245850" x2="1412.202637" y2="1060.000000" style="stroke: green; stroke-width: 0.200000"/>
  <line x1="1335.389160" y1="1307.825439" x2="1411.156982" y2="1060.000000" style="stroke: green; stroke-width: 0.200000"/>
  <line x1="1335.389160" y1="1304.405273" x2="1410.111206" y2="1060.000000" style="stroke: green; stroke-width: 0.200000"/>
  <line x1="1335.389160" y1="1300.984985" x2="1409.065552" y2="1060.000000" style="stroke: green; stroke-width: 0.200000"/>
  <line x1="1335.389160" y1="1297.564575" x2="1408.019897" y2="1060.000000" style="stroke: green; stroke-width: 0.200000"/>
  <line x1="1335.389160" y1="1294.144287" x2="1406.974121" y2="1060.000000" style="stroke: green; stroke-width: 0.200000"/>
  <line x1="1335.389160" y1="1290.723999" x2="1405.928467" y2="1060.000000" style="stroke: green; stroke-width: 0.200000"/>
  <line x1="1335.389160" y1="1287.303711" x2="1404.882812" y2="1060.000000" style="stroke: green; stroke-width: 0.200000"/>
  <line x1="1335.389160" y1="1283.883301" x2="1403.837158" y2="1060.000000" style="stroke: green; stroke-width: 0.200000"/>
  <line x1="1335.389160" y1="1280.463135" x2="1402.791504" y2="1060.000000" style="stroke: green; stroke-width: 0.200000"/>
  <line x1="1335.389160" y1="1277.042847" x2="1401.745728" y2="1060.000000" style="stroke: green; stroke-width: 0.200000"/>
  <line x1="1335.389160" y1="1273.622559" x2="1400.700073" y2="1060.000000" style="stroke: green; stroke-width: 0.200000"/>
  <line x1="1335.389160" y1="1270.202148" x2="1399.654419" y2="1060.000000" style="stroke: green; stroke-width: 0.200000"/>
  <line x1="1335.389160" y1="1266.781982" x2="1398.608643" y2="1060.000000" style="stroke: green; stroke-width: 0.200000"/>
  <line x1="1335.389160" y1="1263.361572" x2="1397.562988" y2="1060.000000" style="stroke: green; stroke-width: 0.200000"/>
  <line x1="1335.389160" y1="1259.941284" x2="1396.517334" y2="1060.000000" style="stroke: green; stroke-width: 0.200000"/>
  <line x1="1335.389160" y1="1256.520996" x2="1395.471436" y2="1060.000000" style="stroke: green; stroke-width: 0.200000"/>
  <line x1="1335.389160" y1="1253.100708" x2="1394.426025" y2="1060.000000" style="stroke: green; stroke-width: 0.200000"/>
  <line x1="1335.389160" y1="1249.680298" x2="1393.380127" y2="1060.000000" style="stroke: green; stroke-width: 0.200000"/>
  <line x1="1335.389160" y1="1246.260010" x2="1392.334595" y2="1060.000000" style="stroke: green; stroke-width: 0.200000"/>
  <line x1="1335.389160" y1="1242.839722" x2="1391.288818" y2="1060.000000" style="stroke: green; stroke-width: 0.200000"/>
  <line x1="1335.389160" y1="1239.419434" x2="1390.243042" y2="1060.000000" style="stroke: green; stroke-width: 0.200000"/>
  <line x1="1335.389160" y1="1235.999146" x2="1389.197388" y2="1060.000000" style="stroke: green; stroke-width: 0.200000"/>
  <line x1="1335.389160" y1="1232.578857" x2="1388.151733" y2="1060.000000" style="stroke: green; stroke-width: 0.200000"/>
  <line x1="1335.389160" y1="1229.158569" x2="1387.105957" y2="1060.000000" style="stroke: green; stroke-width: 0.200000"/>
  <line x1="1335.389160" y1="1225.738281" x2="1386.060303" y2="1060.000000" style="stroke: green; stroke-width: 0.200000"/>
  <line x1="1335.389160" y1="1222.317993" x2="1385.014648" y2="1060.000000" style="stroke: green; stroke-width: 0.200000"/>
  <line x1="1335.389160" y1="1218.897583" x2="1383.968994" y2="1060.000000" style="stroke: green; stroke-width: 0.200000"/>
  <line x1="1335.389160" y1="1215.477295" x2="1382.923340" y2="1060.000000" style="stroke: green; stroke-width: 0.200000"/>
  <line x1="1335.389160" y1="1212.057007" x2="1381.877563" y2="1060.000000" style="stroke: green; stroke-width: 0.200000"/>
  <line x1="1335.389160" y1="1208.636719" x2="1380.831909" y2="1060.000000" style="stroke: green; stroke-width: 0.200000"/>
  <line x1="1335.389160" y1="1205.216431" x2="1379.786255" y2="1060.000000" style="stroke: green; stroke-width: 0.200000"/>
  <line x1="1335.389160" y1="1201.796143" x2="1378.740479" y2="1060.000000" style="stroke: green; stroke-width: 0.200000"/>
  <line x1="1335.389160" y1="1198.375854" x2="1377.694824" y2="1060.000000" style="stroke: green; stroke-width: 0.200000"/>
  <line x1="1335.389160" y1="1194.955566" x2="1376.649170" y2="1060.000000" style="stroke: green; stroke-width: 0.200000"/>
  <line x1="1335.389160" y1="1191.535156" x2="1375.603516" y2="1060.000000" style="stroke: green; stroke-width: 0.200000"/>
  <line x1="1335.389160" y1="1188.114990" x2="1374.557861" y2="1060.000000" style="stroke: green; stroke-width: 0.200000"/>
  <line x1="1335.389160" y1="1184.694580" x2="1373.512085" y2="1060.000000" style="stroke: green; stroke-width: 0.200000"/>
  <line x1="1335.389160" y1="1181.274292" x2="1372.466431" y2="1060.000000" style="stroke: green; stroke-width: 0.200000"/>
  <line x1="1335.389160" y1="1177.854004" x2="1371.420654" y2="1060.000000" style="stroke: green; stroke-width: 0.200000"/>
  <line x1="1335.389160" y1="1174.433716" x2="1370.375000" y2="1060.000000" style="stroke: green; stroke-width: 0.200000"/>
  <line x1="1335.389160" y1="1171.013306" x2="1369.329224" y2="1060.000000" style="stroke: green; stroke-width: 0.200000"/>
  <line x1="1335.389160" y1="1167.593018" x2="1368.283691" y2="1060.000000" style="stroke: green; stroke-width: 0.200000"/>
  <line x1="1335.389160" y1="1164.172729" x2="1367.237793" y2="1060.000000" style="stroke: green; stroke-width: 0.200000"/>
  <line x1="1335.389160" y1="1160.752441" x2="1366.192139" y2="1060.000000" style="stroke: green; stroke-width: 0.200000"/>
  <line x1="1335.389160" y1="1157.332153" x2="1365.146484" y2="1060.000000" style="stroke: green; stroke-width: 0.200000"/>
  <line x1="1335.389160" y1="1153.911865" x2="1364.100830" y2="1060.000000" style="stroke: green; stroke-width: 0.200000"/>
  <line x1="1335.389160" y1="1150.491577" x2="1363.055176" y2="1060.000000" style="stroke: green; stroke-width: 0.200000"/>
  <line x1="1335.389160" y1="1147.071289" x2="1362.009399" y2="1060.000000" style="stroke: green; stroke-width: 0.200000"/>
  <line x1="1335.389160" y1="1143.651001" x2="1360.963745" y2="1060.000000" style="stroke: green; stroke-width: 0.200000"/>
  <line x1="1335.389160" y1="1140.230591" x2="1359.918091" y2="1060.000000" style="stroke: green; stroke-width: 0.200000"/>
  <line x1="1335.389160" y1="1136.810303" x2="1358.872314" y2="1060.000000" style="stroke: green; stroke-width: 0.200000"/>
  <line x1="1335.389160" y1="1133.390015" x2="1357.826660" y2="1060.000000" style="stroke: green; stroke-width: 0.200000"/>
  <line x1="1335.389160" y1="1129.969727" x2="1356.781006" y2="1060.000000" style="stroke: green; stroke-width: 0.200000"/>
  <line x1="1335.389160" y1="1126.549438" x2="1355.735352" y2="1060.000000" style="stroke: green; stroke-width: 0.200000"/>
  <line x1="1335.389160" y1="1123.129150" x2="1354.689697" y2="1060.000000" style="stroke: green; stroke-width: 0.200000"/>
  <line x1="1335.389160" y1="1119.708862" x2="1353.643921" y2="1060.000000" style="stroke: green; stroke-width: 0.200000"/>
  <line x1="1335.389160" y1="1116.288574" x2="1352.598267" y2="1060.000000" style="stroke: green; stroke-width: 0.200000"/>
  <line x1="1335.389160" y1="1112.868286" x2="1351.552612" y2="1060.000000" style="stroke: green; stroke-width: 0.200000"/>
  <line x1="1335.389160" y1="1109.447998" x2="1350.506836" y2="1060.000000" style="stroke: green; stroke-width: 0.200000"/>
  <line x1="1335.389160" y1="1106.027588" x2="1349.461060" y2="1060.000000" style="stroke: green; stroke-width: 0.200000"/>
  <line x1="1335.389160" y1="1102.607300" x2="1348.415527" y2="1060.000000" style="stroke: green; stroke-width: 0.200000"/>
  <line x1="1335.389160" y1="1099.187012" x2="1347.369629" y2="1060.000000" style="stroke: green; stroke-width: 0.200000"/>
  <line x1="1335.389160" y1="1095.766724" x2="1346.324219" y2="1060.000000" style="stroke: green; stroke-width: 0.200000"/>
  <line x1="1335.389160" y1="1092.346436" x2="1345.278320" y2="1060.000000" style="stroke: green; stroke-width: 0.200000"/>
  <line x1="1335.389160" y1="1088.926025" x2="1344.232666" y2="1060.000000" style="stroke: green; stroke-width: 0.200000"/>
  <line x1="1335.389160" y1="1085.505737" x2="1343.187012" y2="1060.000000" style="stroke: green; stroke-width: 0.200000"/>
  <line x1="1335.389160" y1="1082.085449" x2="1342.141235" y2="1060.000000" style="stroke: green; stroke-width: 0.200000"/>
  <line x1="1335.389160" y1="1078.665161" x2="1341.095581" y2="1060.000000" style="stroke: green; stroke-width: 0.200000"/>
  <line x1="1335.389160" y1="1075.244873" x2="1340.049927" y2="1060.000000" style="stroke: green; stroke-width: 0.200000"/>
  <line x1="1335.389160" y1="1071.824585" x2="1339.004150" y2="1060.000000" style="stroke: green; stroke-width: 0.200000"/>
  <line x1="1335.389160" y1="1068.404297" x2="1337.958496" y2="1060.000000" style="stroke: green; stroke-width: 0.200000"/>
  <line x1="1335.389160" y1="1064.984009" x2="1336.912842" y2="1060.000000" style="stroke: green; stroke-width: 0.200000"/>
  <line x1="1335.389160" y1="1061.563599" x2="1335.867188" y2="1060.000000" style="stroke: green; stroke-width: 0.200000"/>
  <path d="M 1624.61  1410  1335.39  1410  1335.39  1060  1624.61  1060  1624.61  1410  " style="fill: none; stroke: black; stroke-width: 0.200000; fill-type: evenodd"  fill-opacity="1.000000" />
</svg>
