<?xml version="1.0" encoding="UTF-8" standalone="yes"?>
<svg xmlns="http://www.w3.org/2000/svg"
     xmlns:xlink="http://www.w3.org/1999/xlink"
     width="2020.0000mm" height="1600.0000mm"
     viewBox="0 0 202.000000 160.000000">
  <!--
    Build plate : 150.00 x 150.00 mm
    Coordinate  : 1 SVG unit = 1 mm
    Display zoom: 10x  (width/height = viewBox x 10)
    Hatch stroke: 0.04 mm = ~28 mm on screen at this zoom
    Legend panel: right margin (42 mm wide)
  -->
  <defs>
    <marker id="endArrow" markerWidth="2" markerHeight="1.4"
            refX="0" refY="0.7" orient="auto"
            markerUnits="strokeWidth">
      <polyline fill="darkblue" points="0,0 2,0.7 0,1.4 0.2,0.7"/>
    </marker>
  </defs>
  <!-- Background -->
  <rect x="0" y="0" width="202.000000" height="160.000000" fill="#f0f0f0" stroke="none"/>
  <!-- Build plate boundary (150 x 150 mm) -->
  <rect x="5.000000" y="5.000000" width="150.000000" height="150.000000"
        fill="#ffffff" stroke="#aaaaaa" stroke-width="0.2" stroke-dasharray="1,0.5"/>
  <!-- Build plate centre circle (r = 75.00 mm) -->
  <circle cx="80.000000" cy="80.000000" r="75.000000"
          fill="none" stroke="#bbbbbb" stroke-width="0.15" stroke-dasharray="0.8,0.4"/>
  <!-- Centre cross-hair -->
  <line x1="5.000000" y1="80.000000" x2="155.000000" y2="80.000000" stroke="#cccccc" stroke-width="0.1"/>
  <line x1="80.000000" y1="5.000000" x2="80.000000" y2="155.000000" stroke="#cccccc" stroke-width="0.1"/>
  <circle cx="80.000000" cy="80.000000" r="0.3" fill="#cccccc" stroke="none"/>
  <!-- Corner labels -->
  <text x="5.400000" y="4.600000" font-family="sans-serif" font-size="2" fill="#888888">0,0</text>
  <text x="154.600006" y="4.600000" font-family="sans-serif" font-size="2" fill="#888888" text-anchor="end">150,0</text>
  <text x="5.400000" y="157.199997" font-family="sans-serif" font-size="2" fill="#888888">0,150</text>
  <!-- Layer geometry -->
  <g id="geometry">
    <line x1="37.32591" y1="87.28179" x2="37.23364" y2="88.03324" stroke="green" stroke-width="0.04000"/>
    <line x1="37.44076" y1="87.16695" x2="37.33724" y2="88.01002" stroke="green" stroke-width="0.04000"/>
    <line x1="37.21106" y1="87.39664" x2="37.13619" y2="88.00634" stroke="green" stroke-width="0.04000"/>
    <line x1="37.55561" y1="87.05209" x2="37.44516" y2="87.95168" stroke="green" stroke-width="0.04000"/>
    <line x1="37.09620" y1="87.51151" x2="37.04618" y2="87.91888" stroke="green" stroke-width="0.04000"/>
    <line x1="37.66066" y1="87.01714" x2="37.55761" y2="87.85642" stroke="green" stroke-width="0.04000"/>
    <line x1="36.98135" y1="87.62636" x2="36.95660" y2="87.82793" stroke="green" stroke-width="0.04000"/>
    <line x1="37.75952" y1="87.03249" x2="37.67263" y2="87.74019" stroke="green" stroke-width="0.04000"/>
    <line x1="37.86104" y1="87.02625" x2="37.78677" y2="87.63113" stroke="green" stroke-width="0.04000"/>
    <line x1="37.97589" y1="86.91139" x2="37.90099" y2="87.52147" stroke="green" stroke-width="0.04000"/>
    <line x1="38.09075" y1="86.79654" x2="38.01539" y2="87.41030" stroke="green" stroke-width="0.04000"/>
    <line x1="38.20560" y1="86.68169" x2="38.13015" y2="87.29615" stroke="green" stroke-width="0.04000"/>
    <line x1="38.32045" y1="86.56683" x2="38.24405" y2="87.18909" stroke="green" stroke-width="0.04000"/>
    <line x1="38.43531" y1="86.45198" x2="38.35733" y2="87.08703" stroke="green" stroke-width="0.04000"/>
    <line x1="38.55016" y1="86.33713" x2="38.47062" y2="86.98496" stroke="green" stroke-width="0.04000"/>
    <line x1="38.66501" y1="86.22227" x2="38.58423" y2="86.88023" stroke="green" stroke-width="0.04000"/>
    <line x1="38.77987" y1="86.10741" x2="38.69786" y2="86.77531" stroke="green" stroke-width="0.04000"/>
    <line x1="38.89472" y1="85.99256" x2="38.81149" y2="86.67039" stroke="green" stroke-width="0.04000"/>
    <line x1="39.00957" y1="85.87771" x2="38.92512" y2="86.56551" stroke="green" stroke-width="0.04000"/>
    <line x1="39.12443" y1="85.76286" x2="39.03895" y2="86.45901" stroke="green" stroke-width="0.04000"/>
    <line x1="39.23928" y1="85.64800" x2="39.15314" y2="86.34955" stroke="green" stroke-width="0.04000"/>
    <line x1="39.35413" y1="85.53315" x2="39.26733" y2="86.24008" stroke="green" stroke-width="0.04000"/>
    <line x1="39.46899" y1="85.41830" x2="39.38152" y2="86.13062" stroke="green" stroke-width="0.04000"/>
    <line x1="39.58384" y1="85.30345" x2="39.49572" y2="86.02116" stroke="green" stroke-width="0.04000"/>
    <line x1="39.69869" y1="85.18859" x2="39.60872" y2="85.92133" stroke="green" stroke-width="0.04000"/>
    <line x1="39.81355" y1="85.07375" x2="39.72309" y2="85.81042" stroke="green" stroke-width="0.04000"/>
    <line x1="39.92840" y1="84.95889" x2="39.83746" y2="85.69952" stroke="green" stroke-width="0.04000"/>
    <line x1="40.04325" y1="84.84404" x2="39.95183" y2="85.58861" stroke="green" stroke-width="0.04000"/>
    <line x1="40.15810" y1="84.72918" x2="40.06639" y2="85.47616" stroke="green" stroke-width="0.04000"/>
    <line x1="40.27296" y1="84.61433" x2="40.18106" y2="85.36272" stroke="green" stroke-width="0.04000"/>
    <line x1="40.38781" y1="84.49947" x2="40.29478" y2="85.25713" stroke="green" stroke-width="0.04000"/>
    <line x1="40.50266" y1="84.38464" x2="40.40912" y2="85.14648" stroke="green" stroke-width="0.04000"/>
    <line x1="40.61752" y1="84.26976" x2="40.52186" y2="85.04883" stroke="green" stroke-width="0.04000"/>
    <line x1="40.73237" y1="84.15491" x2="40.63582" y2="84.94123" stroke="green" stroke-width="0.04000"/>
    <line x1="40.84722" y1="84.04006" x2="40.74955" y2="84.83552" stroke="green" stroke-width="0.04000"/>
    <line x1="40.96208" y1="83.92520" x2="40.86288" y2="84.73312" stroke="green" stroke-width="0.04000"/>
    <line x1="41.07693" y1="83.81035" x2="40.97567" y2="84.63503" stroke="green" stroke-width="0.04000"/>
    <line x1="41.19178" y1="83.69550" x2="41.08713" y2="84.54787" stroke="green" stroke-width="0.04000"/>
    <line x1="41.34577" y1="83.26193" x2="41.19926" y2="84.45518" stroke="green" stroke-width="0.04000"/>
    <line x1="41.46062" y1="83.14709" x2="41.31166" y2="84.36031" stroke="green" stroke-width="0.04000"/>
    <line x1="41.57547" y1="83.03223" x2="41.42375" y2="84.26794" stroke="green" stroke-width="0.04000"/>
    <line x1="41.66395" y1="83.13223" x2="41.53669" y2="84.16869" stroke="green" stroke-width="0.04000"/>
    <line x1="41.74670" y1="83.27878" x2="41.65033" y2="84.06370" stroke="green" stroke-width="0.04000"/>
    <line x1="41.82460" y1="83.46497" x2="41.77256" y2="83.88878" stroke="green" stroke-width="0.04000"/>
    <line x1="41.23092" y1="83.37680" x2="41.22378" y2="83.43488" stroke="green" stroke-width="0.04000"/>
    <path d="M 41.6238 83.0639 L 41.7019 83.1968 L 41.7098 83.2061 L 41.7233 83.2349 L 41.7492 83.2834 L 41.7687 83.314 L 41.7763 83.3313 L 41.8051 83.3979 L 41.8058 83.4011 L 41.8087 83.4073 L 41.8106 83.4112 L 41.8139 83.4258 L 41.8216 83.4531 L 41.8261 83.4709 L 41.8275 83.4763 L 41.8347 83.5159 L 41.8359 83.5209 L 41.8365 83.5281 L 41.8404 83.5711 L 41.8411 83.5903 L 41.8411 83.6333 L 41.8376 83.6747 L 41.8343 83.6983 L 41.8273 83.7388 L 41.8175 83.7766 L 41.8085 83.8055 L 41.7959 83.8413 L 41.7656 83.903 L 41.7483 83.9379 L 41.7138 83.9869 L 41.6865 84.0256 L 41.6296 84.0855 L 41.618 84.0976 L 41.5209 84.1825 L 41.4359 84.2581 L 41.3441 84.3329 L 41.2655 84.3992 L 41.2054 84.4502 L 41.1673 84.4809 L 41.1583 84.4883 L 41.1582 84.4883 L 41.1149 84.5242 L 41.0833 84.5511 L 41.0658 84.566 L 41.018 84.5993 L 40.9818 84.6299 L 40.9601 84.6481 L 40.9 84.7002 L 40.8784 84.7194 L 40.8336 84.7591 L 40.7792 84.8086 L 40.7473 84.8376 L 40.7183 84.8646 L 40.641 84.9364 L 40.641 84.9364 L 40.6345 84.9425 L 40.5359 85.0356 L 40.5359 85.0356 L 40.4949 85.0742 L 40.4398 85.1168 L 40.3652 85.189 L 40.2914 85.2604 L 40.2635 85.2874 L 40.2236 85.3206 L 40.0208 85.5213 L 40.0111 85.5309 L 39.9581 85.5826 L 39.6742 85.8578 L 39.6542 85.8772 L 39.605 85.9249 L 39.5338 85.9846 L 38.9789 86.5166 L 38.9228 86.5676 L 38.4775 86.9788 L 38.1775 87.249 L 38.1666 87.2599 L 38.1565 87.27 L 37.977 87.4485 L 37.7616 87.6553 L 37.6833 87.7296 L 37.6835 87.7298 L 37.6572 87.755 L 37.5761 87.838 L 37.5545 87.8595 L 37.5461 87.8681 L 37.5397 87.8738 L 37.5137 87.8975 L 37.5096 87.9009 L 37.4808 87.925 L 37.479 87.9263 L 37.4538 87.9455 L 37.4487 87.9493 L 37.4483 87.9496 L 37.4213 87.9674 L 37.4188 87.9691 L 37.3932 87.9838 L 37.3886 87.9866 L 37.3645 87.9984 L 37.3579 88.0017 L 37.3355 88.0107 L 37.3272 88.0142 L 37.3066 88.0206 L 37.2968 88.0238 L 37.278 88.0278 L 37.2671 88.0302 L 37.2501 88.032 L 37.2385 88.0333 L 37.2234 88.0331 L 37.2115 88.033 L 37.1979 88.0308 L 37.1863 88.0291 L 37.1743 88.0252 L 37.1633 88.0216 L 37.153 88.0161 L 37.153 88.0161 L 37.143 88.0107 L 37.1333 88.0045 L 37.126 87.9989 L 36.9934 87.866 L 36.8697 87.738 L 37.0926 87.5151 L 37.2059 87.4018 L 37.2059 87.4018 L 37.3962 87.2115 L 37.3962 87.2115 L 37.4971 87.1106 L 37.601 87.0067 L 37.687 87.0218 L 37.8425 87.0448 L 37.9306 86.9567 L 37.9306 86.9567 L 38.1598 86.7275 L 38.4494 86.4378 L 38.6735 86.2138 L 39.1442 85.7431 L 39.1442 85.7431 L 39.3724 85.5149 L 39.4063 85.481 L 39.531 85.3563 L 39.6587 85.2286 L 39.6888 85.1985 L 39.844 85.0433 L 39.9152 84.9721 L 39.9152 84.9721 L 39.9936 84.8937 L 40.0445 84.8428 L 40.1439 84.7434 L 40.1744 84.7129 L 40.1915 84.6958 L 40.3188 84.5684 L 40.3404 84.5469 L 40.4658 84.4215 L 40.5074 84.3799 L 40.6044 84.2829 L 40.6186 84.2687 L 40.6186 84.2687 L 40.7799 84.1074 L 40.9879 83.8994 L 40.9879 83.8994 L 41.0554 83.8319 L 41.065 83.8223 L 41.065 83.8223 L 41.3009 83.5864 L 41.2094 83.4066 L 41.2066 83.4011 L 41.2138 83.3939 L 41.2138 83.3939 L 41.215 83.3927 L 41.2795 83.3282 L 41.2795 83.3282 L 41.423 83.1847 L 41.5505 83.0572 L 41.5953 83.0124 L 41.6238 83.0639" fill="none" stroke="blue" stroke-width="0.04000" fill-rule="evenodd" fill-opacity="1.000"/>
    <path d="M 41.6238 83.0639 L 41.7019 83.1968 L 41.7098 83.2061 L 41.7233 83.2349 L 41.7492 83.2834 L 41.7687 83.314 L 41.7763 83.3313 L 41.8051 83.3979 L 41.8058 83.4011 L 41.8087 83.4073 L 41.8106 83.4112 L 41.8139 83.4258 L 41.8216 83.4531 L 41.8261 83.4709 L 41.8275 83.4763 L 41.8347 83.5159 L 41.8359 83.5209 L 41.8365 83.5281 L 41.8404 83.5711 L 41.8411 83.5903 L 41.8411 83.6333 L 41.8376 83.6747 L 41.8343 83.6983 L 41.8273 83.7388 L 41.8175 83.7766 L 41.8085 83.8055 L 41.7959 83.8413 L 41.7656 83.903 L 41.7483 83.9379 L 41.7138 83.9869 L 41.6865 84.0256 L 41.6296 84.0855 L 41.618 84.0976 L 41.5209 84.1825 L 41.4359 84.2581 L 41.3441 84.3329 L 41.2655 84.3992 L 41.2054 84.4502 L 41.1673 84.4809 L 41.1583 84.4883 L 41.1582 84.4883 L 41.1149 84.5242 L 41.0833 84.5511 L 41.0658 84.566 L 41.018 84.5993 L 40.9818 84.6299 L 40.9601 84.6481 L 40.9 84.7002 L 40.8784 84.7194 L 40.8336 84.7591 L 40.7792 84.8086 L 40.7473 84.8376 L 40.7183 84.8646 L 40.641 84.9364 L 40.641 84.9364 L 40.6345 84.9425 L 40.5359 85.0356 L 40.5359 85.0356 L 40.4949 85.0742 L 40.4398 85.1168 L 40.3652 85.189 L 40.2914 85.2604 L 40.2635 85.2874 L 40.2236 85.3206 L 40.0208 85.5213 L 40.0111 85.5309 L 39.9581 85.5826 L 39.6742 85.8578 L 39.6542 85.8772 L 39.605 85.9249 L 39.5338 85.9846 L 38.9789 86.5166 L 38.9228 86.5676 L 38.4775 86.9788 L 38.1775 87.249 L 38.1666 87.2599 L 38.1565 87.27 L 37.977 87.4485 L 37.7616 87.6553 L 37.6833 87.7296 L 37.6835 87.7298 L 37.6572 87.755 L 37.5761 87.838 L 37.5545 87.8595 L 37.5461 87.8681 L 37.5397 87.8738 L 37.5137 87.8975 L 37.5096 87.9009 L 37.4808 87.925 L 37.479 87.9263 L 37.4538 87.9455 L 37.4487 87.9493 L 37.4483 87.9496 L 37.4213 87.9674 L 37.4188 87.9691 L 37.3932 87.9838 L 37.3886 87.9866 L 37.3645 87.9984 L 37.3579 88.0017 L 37.3355 88.0107 L 37.3272 88.0142 L 37.3066 88.0206 L 37.2968 88.0238 L 37.278 88.0278 L 37.2671 88.0302 L 37.2501 88.032 L 37.2385 88.0333 L 37.2234 88.0331 L 37.2115 88.033 L 37.1979 88.0308 L 37.1863 88.0291 L 37.1743 88.0252 L 37.1633 88.0216 L 37.153 88.0161 L 37.153 88.0161 L 37.143 88.0107 L 37.1333 88.0045 L 37.126 87.9989 L 36.9934 87.866 L 36.8697 87.738 L 37.0926 87.5151 L 37.2059 87.4018 L 37.2059 87.4018 L 37.3962 87.2115 L 37.3962 87.2115 L 37.4971 87.1106 L 37.601 87.0067 L 37.687 87.0218 L 37.8425 87.0448 L 37.9306 86.9567 L 37.9306 86.9567 L 38.1598 86.7275 L 38.4494 86.4378 L 38.6735 86.2138 L 39.1442 85.7431 L 39.1442 85.7431 L 39.3724 85.5149 L 39.4063 85.481 L 39.531 85.3563 L 39.6587 85.2286 L 39.6888 85.1985 L 39.844 85.0433 L 39.9152 84.9721 L 39.9152 84.9721 L 39.9936 84.8937 L 40.0445 84.8428 L 40.1439 84.7434 L 40.1744 84.7129 L 40.1915 84.6958 L 40.3188 84.5684 L 40.3404 84.5469 L 40.4658 84.4215 L 40.5074 84.3799 L 40.6044 84.2829 L 40.6186 84.2687 L 40.6186 84.2687 L 40.7799 84.1074 L 40.9879 83.8994 L 40.9879 83.8994 L 41.0554 83.8319 L 41.065 83.8223 L 41.065 83.8223 L 41.3009 83.5864 L 41.2094 83.4066 L 41.2066 83.4011 L 41.2138 83.3939 L 41.2138 83.3939 L 41.215 83.3927 L 41.2795 83.3282 L 41.2795 83.3282 L 41.423 83.1847 L 41.5505 83.0572 L 41.5953 83.0124 Z" fill="none" stroke="blue" stroke-width="0.05000" fill-rule="evenodd" fill-opacity="1.000"/>
  </g>
</svg>
