<?xml version="1.0" encoding="UTF-8" standalone="yes"?>
<!DOCTYPE svg PUBLIC "-//W3C//DTD SVG 1.0//EN" "http://www.w3.org/TR/2001/REC-SVG-20010904/DTD/svg10.dtd">
<svg height="2000" width="2000" xmlns="http://www.w3.org/2000/svg" xmlns:svg="http://www.w3.org/2000/svg" xmlns:xlink="http://www.w3.org/1999/xlink">
  <marker id="endArrow" markerHeight="8" markerUnits="strokeWidth" markerWidth="10" orient="auto" refX="1" refY="5" viewBox="0 0 1000 1000">
    <polyline fill="darkblue" points="0,0 10,5 0,10 1,5" />
  </marker>
  <circle cx="1000.000000" cy="1000.000000" r="1.000000" style="stroke:black; fill: red" />
  <circle cx="1000.000000" cy="1000.000000" r="800.000000" style="stroke:black; fill: none" />
  <line x1="1397.000122" y1="1430.000000" x2="1397.000122" y2="1060.000000" style="stroke: green; stroke-width: 0.200000"/>
  <line x1="1398.000000" y1="1430.000000" x2="1398.000000" y2="1060.000000" style="stroke: green; stroke-width: 0.200000"/>
  <line x1="1399.000122" y1="1430.000000" x2="1399.000122" y2="1060.000000" style="stroke: green; stroke-width: 0.200000"/>
  <line x1="1400.000000" y1="1430.000000" x2="1400.000000" y2="1060.000000" style="stroke: green; stroke-width: 0.200000"/>
  <line x1="1401.000000" y1="1430.000000" x2="1401.000000" y2="1060.000000" style="stroke: green; stroke-width: 0.200000"/>
  <line x1="1402.000122" y1="1430.000000" x2="1402.000122" y2="1060.000000" style="stroke: green; stroke-width: 0.200000"/>
  <line x1="1403.000000" y1="1430.000000" x2="1403.000000" y2="1060.000000" style="stroke: green; stroke-width: 0.200000"/>
  <line x1="1404.000122" y1="1430.000000" x2="1404.000122" y2="1060.000000" style="stroke: green; stroke-width: 0.200000"/>
  <line x1="1405.000000" y1="1430.000000" x2="1405.000000" y2="1060.000000" style="stroke: green; stroke-width: 0.200000"/>
  <line x1="1406.000000" y1="1430.000000" x2="1406.000000" y2="1060.000000" style="stroke: green; stroke-width: 0.200000"/>
  <line x1="1407.000122" y1="1430.000000" x2="1407.000122" y2="1060.000000" style="stroke: green; stroke-width: 0.200000"/>
  <line x1="1408.000000" y1="1430.000000" x2="1408.000000" y2="1060.000000" style="stroke: green; stroke-width: 0.200000"/>
  <line x1="1409.000122" y1="1430.000000" x2="1409.000122" y2="1060.000000" style="stroke: green; stroke-width: 0.200000"/>
  <line x1="1410.000000" y1="1430.000000" x2="1410.000000" y2="1060.000000" style="stroke: green; stroke-width: 0.200000"/>
  <line x1="1411.000000" y1="1430.000000" x2="1411.000000" y2="1060.000000" style="stroke: green; stroke-width: 0.200000"/>
  <line x1="1412.000122" y1="1430.000000" x2="1412.000122" y2="1060.000000" style="stroke: green; stroke-width: 0.200000"/>
  <line x1="1413.000000" y1="1430.000000" x2="1413.000000" y2="1060.000000" style="stroke: green; stroke-width: 0.200000"/>
  <line x1="1414.000122" y1="1430.000000" x2="1414.000122" y2="1060.000000" style="stroke: green; stroke-width: 0.200000"/>
  <line x1="1415.000000" y1="1430.000000" x2="1415.000000" y2="1060.000000" style="stroke: green; stroke-width: 0.200000"/>
  <line x1="1416.000000" y1="1430.000000" x2="1416.000000" y2="1060.000000" style="stroke: green; stroke-width: 0.200000"/>
  <line x1="1417.000122" y1="1430.000000" x2="1417.000122" y2="1060.000000" style="stroke: green; stroke-width: 0.200000"/>
  <line x1="1418.000000" y1="1430.000000" x2="1418.000000" y2="1060.000000" style="stroke: green; stroke-width: 0.200000"/>
  <line x1="1419.000122" y1="1430.000000" x2="1419.000122" y2="1060.000000" style="stroke: green; stroke-width: 0.200000"/>
  <line x1="1420.000000" y1="1430.000000" x2="1420.000000" y2="1060.000000" style="stroke: green; stroke-width: 0.200000"/>
  <line x1="1421.000000" y1="1430.000000" x2="1421.000000" y2="1060.000000" style="stroke: green; stroke-width: 0.200000"/>
  <line x1="1422.000122" y1="1430.000000" x2="1422.000122" y2="1060.000000" style="stroke: green; stroke-width: 0.200000"/>
  <line x1="1423.000000" y1="1430.000000" x2="1423.000000" y2="1060.000000" style="stroke: green; stroke-width: 0.200000"/>
  <line x1="1424.000122" y1="1430.000000" x2="1424.000122" y2="1060.000000" style="stroke: green; stroke-width: 0.200000"/>
  <line x1="1425.000000" y1="1430.000000" x2="1425.000000" y2="1060.000000" style="stroke: green; stroke-width: 0.200000"/>
  <line x1="1426.000000" y1="1430.000000" x2="1426.000000" y2="1060.000000" style="stroke: green; stroke-width: 0.200000"/>
  <line x1="1427.000122" y1="1430.000000" x2="1427.000122" y2="1060.000000" style="stroke: green; stroke-width: 0.200000"/>
  <line x1="1428.000000" y1="1430.000000" x2="1428.000000" y2="1060.000000" style="stroke: green; stroke-width: 0.200000"/>
  <line x1="1429.000122" y1="1430.000000" x2="1429.000122" y2="1060.000000" style="stroke: green; stroke-width: 0.200000"/>
  <line x1="1430.000000" y1="1430.000000" x2="1430.000000" y2="1060.000000" style="stroke: green; stroke-width: 0.200000"/>
  <line x1="1431.000000" y1="1430.000000" x2="1431.000000" y2="1060.000000" style="stroke: green; stroke-width: 0.200000"/>
  <line x1="1432.000122" y1="1430.000000" x2="1432.000122" y2="1060.000000" style="stroke: green; stroke-width: 0.200000"/>
  <line x1="1433.000000" y1="1430.000000" x2="1433.000000" y2="1060.000000" style="stroke: green; stroke-width: 0.200000"/>
  <line x1="1434.000122" y1="1430.000000" x2="1434.000122" y2="1060.000000" style="stroke: green; stroke-width: 0.200000"/>
  <line x1="1435.000000" y1="1430.000000" x2="1435.000000" y2="1060.000000" style="stroke: green; stroke-width: 0.200000"/>
  <line x1="1436.000000" y1="1430.000000" x2="1436.000000" y2="1060.000000" style="stroke: green; stroke-width: 0.200000"/>
  <line x1="1437.000122" y1="1430.000000" x2="1437.000122" y2="1060.000000" style="stroke: green; stroke-width: 0.200000"/>
  <line x1="1438.000000" y1="1430.000000" x2="1438.000000" y2="1060.000000" style="stroke: green; stroke-width: 0.200000"/>
  <line x1="1439.000122" y1="1430.000000" x2="1439.000122" y2="1060.000000" style="stroke: green; stroke-width: 0.200000"/>
  <line x1="1440.000000" y1="1430.000000" x2="1440.000000" y2="1060.000000" style="stroke: green; stroke-width: 0.200000"/>
  <line x1="1441.000000" y1="1430.000000" x2="1441.000000" y2="1060.000000" style="stroke: green; stroke-width: 0.200000"/>
  <line x1="1442.000122" y1="1430.000000" x2="1442.000122" y2="1060.000000" style="stroke: green; stroke-width: 0.200000"/>
  <line x1="1443.000000" y1="1430.000000" x2="1443.000000" y2="1060.000000" style="stroke: green; stroke-width: 0.200000"/>
  <line x1="1444.000122" y1="1430.000000" x2="1444.000122" y2="1060.000000" style="stroke: green; stroke-width: 0.200000"/>
  <line x1="1445.000000" y1="1430.000000" x2="1445.000000" y2="1060.000000" style="stroke: green; stroke-width: 0.200000"/>
  <line x1="1446.000000" y1="1430.000000" x2="1446.000000" y2="1060.000000" style="stroke: green; stroke-width: 0.200000"/>
  <line x1="1447.000122" y1="1430.000000" x2="1447.000122" y2="1060.000000" style="stroke: green; stroke-width: 0.200000"/>
  <line x1="1448.000000" y1="1430.000000" x2="1448.000000" y2="1060.000000" style="stroke: green; stroke-width: 0.200000"/>
  <line x1="1449.000122" y1="1430.000000" x2="1449.000122" y2="1060.000000" style="stroke: green; stroke-width: 0.200000"/>
  <line x1="1450.000000" y1="1430.000000" x2="1450.000000" y2="1060.000000" style="stroke: green; stroke-width: 0.200000"/>
  <line x1="1451.000000" y1="1430.000000" x2="1451.000000" y2="1060.000000" style="stroke: green; stroke-width: 0.200000"/>
  <line x1="1452.000122" y1="1430.000000" x2="1452.000122" y2="1060.000000" style="stroke: green; stroke-width: 0.200000"/>
  <line x1="1453.000000" y1="1430.000000" x2="1453.000000" y2="1060.000000" style="stroke: green; stroke-width: 0.200000"/>
  <line x1="1454.000122" y1="1430.000000" x2="1454.000122" y2="1060.000000" style="stroke: green; stroke-width: 0.200000"/>
  <line x1="1455.000000" y1="1430.000000" x2="1455.000000" y2="1060.000000" style="stroke: green; stroke-width: 0.200000"/>
  <line x1="1456.000000" y1="1430.000000" x2="1456.000000" y2="1060.000000" style="stroke: green; stroke-width: 0.200000"/>
  <line x1="1457.000122" y1="1430.000000" x2="1457.000122" y2="1060.000000" style="stroke: green; stroke-width: 0.200000"/>
  <line x1="1458.000000" y1="1430.000000" x2="1458.000000" y2="1060.000000" style="stroke: green; stroke-width: 0.200000"/>
  <line x1="1459.000122" y1="1430.000000" x2="1459.000122" y2="1060.000000" style="stroke: green; stroke-width: 0.200000"/>
  <line x1="1460.000000" y1="1430.000000" x2="1460.000000" y2="1060.000000" style="stroke: green; stroke-width: 0.200000"/>
  <line x1="1461.000000" y1="1430.000000" x2="1461.000000" y2="1060.000000" style="stroke: green; stroke-width: 0.200000"/>
  <line x1="1462.000122" y1="1430.000000" x2="1462.000122" y2="1060.000000" style="stroke: green; stroke-width: 0.200000"/>
  <line x1="1463.000000" y1="1430.000000" x2="1463.000000" y2="1060.000000" style="stroke: green; stroke-width: 0.200000"/>
  <line x1="1464.000122" y1="1430.000000" x2="1464.000122" y2="1060.000000" style="stroke: green; stroke-width: 0.200000"/>
  <line x1="1465.000000" y1="1430.000000" x2="1465.000000" y2="1060.000000" style="stroke: green; stroke-width: 0.200000"/>
  <line x1="1466.000000" y1="1430.000000" x2="1466.000000" y2="1060.000000" style="stroke: green; stroke-width: 0.200000"/>
  <line x1="1467.000122" y1="1430.000000" x2="1467.000122" y2="1060.000000" style="stroke: green; stroke-width: 0.200000"/>
  <line x1="1468.000000" y1="1430.000000" x2="1468.000000" y2="1060.000000" style="stroke: green; stroke-width: 0.200000"/>
  <line x1="1469.000122" y1="1430.000000" x2="1469.000122" y2="1060.000000" style="stroke: green; stroke-width: 0.200000"/>
  <line x1="1470.000000" y1="1430.000000" x2="1470.000000" y2="1060.000000" style="stroke: green; stroke-width: 0.200000"/>
  <line x1="1471.000000" y1="1430.000000" x2="1471.000000" y2="1060.000000" style="stroke: green; stroke-width: 0.200000"/>
  <line x1="1472.000122" y1="1430.000000" x2="1472.000122" y2="1060.000000" style="stroke: green; stroke-width: 0.200000"/>
  <line x1="1473.000000" y1="1430.000000" x2="1473.000000" y2="1060.000000" style="stroke: green; stroke-width: 0.200000"/>
  <line x1="1474.000122" y1="1430.000000" x2="1474.000122" y2="1060.000000" style="stroke: green; stroke-width: 0.200000"/>
  <line x1="1475.000000" y1="1430.000000" x2="1475.000000" y2="1060.000000" style="stroke: green; stroke-width: 0.200000"/>
  <line x1="1476.000000" y1="1430.000000" x2="1476.000000" y2="1060.000000" style="stroke: green; stroke-width: 0.200000"/>
  <line x1="1477.000122" y1="1430.000000" x2="1477.000122" y2="1060.000000" style="stroke: green; stroke-width: 0.200000"/>
  <line x1="1478.000000" y1="1430.000000" x2="1478.000000" y2="1060.000000" style="stroke: green; stroke-width: 0.200000"/>
  <line x1="1479.000122" y1="1430.000000" x2="1479.000122" y2="1060.000000" style="stroke: green; stroke-width: 0.200000"/>
  <line x1="1480.000000" y1="1430.000000" x2="1480.000000" y2="1060.000000" style="stroke: green; stroke-width: 0.200000"/>
  <line x1="1481.000000" y1="1430.000000" x2="1481.000000" y2="1060.000000" style="stroke: green; stroke-width: 0.200000"/>
  <line x1="1482.000122" y1="1430.000000" x2="1482.000122" y2="1060.000000" style="stroke: green; stroke-width: 0.200000"/>
  <line x1="1483.000000" y1="1430.000000" x2="1483.000000" y2="1060.000000" style="stroke: green; stroke-width: 0.200000"/>
  <line x1="1484.000122" y1="1430.000000" x2="1484.000122" y2="1060.000000" style="stroke: green; stroke-width: 0.200000"/>
  <line x1="1485.000000" y1="1430.000000" x2="1485.000000" y2="1060.000000" style="stroke: green; stroke-width: 0.200000"/>
  <line x1="1486.000000" y1="1430.000000" x2="1486.000000" y2="1060.000000" style="stroke: green; stroke-width: 0.200000"/>
  <line x1="1487.000122" y1="1430.000000" x2="1487.000122" y2="1060.000000" style="stroke: green; stroke-width: 0.200000"/>
  <line x1="1488.000000" y1="1430.000000" x2="1488.000000" y2="1060.000000" style="stroke: green; stroke-width: 0.200000"/>
  <line x1="1489.000122" y1="1430.000000" x2="1489.000122" y2="1060.000000" style="stroke: green; stroke-width: 0.200000"/>
  <line x1="1490.000000" y1="1430.000000" x2="1490.000000" y2="1060.000000" style="stroke: green; stroke-width: 0.200000"/>
  <line x1="1491.000000" y1="1430.000000" x2="1491.000000" y2="1060.000000" style="stroke: green; stroke-width: 0.200000"/>
  <line x1="1492.000122" y1="1430.000000" x2="1492.000122" y2="1060.000000" style="stroke: green; stroke-width: 0.200000"/>
  <line x1="1493.000000" y1="1430.000000" x2="1493.000000" y2="1060.000000" style="stroke: green; stroke-width: 0.200000"/>
  <line x1="1494.000122" y1="1430.000000" x2="1494.000122" y2="1060.000000" style="stroke: green; stroke-width: 0.200000"/>
  <line x1="1495.000000" y1="1430.000000" x2="1495.000000" y2="1060.000000" style="stroke: green; stroke-width: 0.200000"/>
  <line x1="1496.000000" y1="1430.000000" x2="1496.000000" y2="1060.000000" style="stroke: green; stroke-width: 0.200000"/>
  <line x1="1497.000122" y1="1430.000000" x2="1497.000122" y2="1060.000000" style="stroke: green; stroke-width: 0.200000"/>
  <line x1="1498.000000" y1="1430.000000" x2="1498.000000" y2="1060.000000" style="stroke: green; stroke-width: 0.200000"/>
  <line x1="1499.000122" y1="1430.000000" x2="1499.000122" y2="1060.000000" style="stroke: green; stroke-width: 0.200000"/>
  <line x1="1500.000000" y1="1430.000000" x2="1500.000000" y2="1060.000000" style="stroke: green; stroke-width: 0.200000"/>
  <line x1="1501.000000" y1="1430.000000" x2="1501.000000" y2="1060.000000" style="stroke: green; stroke-width: 0.200000"/>
  <line x1="1502.000122" y1="1430.000000" x2="1502.000122" y2="1060.000000" style="stroke: green; stroke-width: 0.200000"/>
  <line x1="1503.000000" y1="1430.000000" x2="1503.000000" y2="1060.000000" style="stroke: green; stroke-width: 0.200000"/>
  <line x1="1504.000122" y1="1430.000000" x2="1504.000122" y2="1060.000000" style="stroke: green; stroke-width: 0.200000"/>
  <line x1="1505.000000" y1="1430.000000" x2="1505.000000" y2="1060.000000" style="stroke: green; stroke-width: 0.200000"/>
  <line x1="1506.000000" y1="1430.000000" x2="1506.000000" y2="1060.000000" style="stroke: green; stroke-width: 0.200000"/>
  <line x1="1507.000122" y1="1430.000000" x2="1507.000122" y2="1060.000000" style="stroke: green; stroke-width: 0.200000"/>
  <line x1="1508.000000" y1="1430.000000" x2="1508.000000" y2="1060.000000" style="stroke: green; stroke-width: 0.200000"/>
  <line x1="1509.000122" y1="1430.000000" x2="1509.000122" y2="1060.000000" style="stroke: green; stroke-width: 0.200000"/>
  <line x1="1510.000000" y1="1430.000000" x2="1510.000000" y2="1060.000000" style="stroke: green; stroke-width: 0.200000"/>
  <line x1="1511.000000" y1="1430.000000" x2="1511.000000" y2="1060.000000" style="stroke: green; stroke-width: 0.200000"/>
  <line x1="1512.000122" y1="1430.000000" x2="1512.000122" y2="1060.000000" style="stroke: green; stroke-width: 0.200000"/>
  <line x1="1513.000000" y1="1430.000000" x2="1513.000000" y2="1060.000000" style="stroke: green; stroke-width: 0.200000"/>
  <line x1="1514.000122" y1="1430.000000" x2="1514.000122" y2="1060.000000" style="stroke: green; stroke-width: 0.200000"/>
  <line x1="1515.000000" y1="1430.000000" x2="1515.000000" y2="1060.000000" style="stroke: green; stroke-width: 0.200000"/>
  <line x1="1516.000000" y1="1430.000000" x2="1516.000000" y2="1060.000000" style="stroke: green; stroke-width: 0.200000"/>
  <line x1="1517.000122" y1="1430.000000" x2="1517.000122" y2="1060.000000" style="stroke: green; stroke-width: 0.200000"/>
  <line x1="1518.000000" y1="1430.000000" x2="1518.000000" y2="1060.000000" style="stroke: green; stroke-width: 0.200000"/>
  <line x1="1519.000122" y1="1430.000000" x2="1519.000122" y2="1060.000000" style="stroke: green; stroke-width: 0.200000"/>
  <line x1="1520.000000" y1="1430.000000" x2="1520.000000" y2="1060.000000" style="stroke: green; stroke-width: 0.200000"/>
  <line x1="1521.000000" y1="1430.000000" x2="1521.000000" y2="1060.000000" style="stroke: green; stroke-width: 0.200000"/>
  <line x1="1522.000122" y1="1430.000000" x2="1522.000122" y2="1060.000000" style="stroke: green; stroke-width: 0.200000"/>
  <line x1="1523.000000" y1="1430.000000" x2="1523.000000" y2="1060.000000" style="stroke: green; stroke-width: 0.200000"/>
  <line x1="1524.000122" y1="1430.000000" x2="1524.000122" y2="1060.000000" style="stroke: green; stroke-width: 0.200000"/>
  <line x1="1525.000000" y1="1430.000000" x2="1525.000000" y2="1060.000000" style="stroke: green; stroke-width: 0.200000"/>
  <line x1="1526.000000" y1="1430.000000" x2="1526.000000" y2="1060.000000" style="stroke: green; stroke-width: 0.200000"/>
  <line x1="1527.000122" y1="1430.000000" x2="1527.000122" y2="1060.000000" style="stroke: green; stroke-width: 0.200000"/>
  <line x1="1528.000000" y1="1430.000000" x2="1528.000000" y2="1060.000000" style="stroke: green; stroke-width: 0.200000"/>
  <line x1="1529.000122" y1="1430.000000" x2="1529.000122" y2="1060.000000" style="stroke: green; stroke-width: 0.200000"/>
  <line x1="1530.000000" y1="1430.000000" x2="1530.000000" y2="1060.000000" style="stroke: green; stroke-width: 0.200000"/>
  <line x1="1531.000000" y1="1430.000000" x2="1531.000000" y2="1060.000000" style="stroke: green; stroke-width: 0.200000"/>
  <line x1="1532.000122" y1="1430.000000" x2="1532.000122" y2="1060.000000" style="stroke: green; stroke-width: 0.200000"/>
  <line x1="1533.000000" y1="1430.000000" x2="1533.000000" y2="1060.000000" style="stroke: green; stroke-width: 0.200000"/>
  <line x1="1534.000122" y1="1430.000000" x2="1534.000122" y2="1060.000000" style="stroke: green; stroke-width: 0.200000"/>
  <line x1="1535.000000" y1="1430.000000" x2="1535.000000" y2="1060.000000" style="stroke: green; stroke-width: 0.200000"/>
  <line x1="1536.000000" y1="1430.000000" x2="1536.000000" y2="1060.000000" style="stroke: green; stroke-width: 0.200000"/>
  <line x1="1537.000122" y1="1430.000000" x2="1537.000122" y2="1060.000000" style="stroke: green; stroke-width: 0.200000"/>
  <line x1="1538.000000" y1="1430.000000" x2="1538.000000" y2="1060.000000" style="stroke: green; stroke-width: 0.200000"/>
  <line x1="1539.000122" y1="1430.000000" x2="1539.000122" y2="1060.000000" style="stroke: green; stroke-width: 0.200000"/>
  <line x1="1540.000000" y1="1430.000000" x2="1540.000000" y2="1060.000000" style="stroke: green; stroke-width: 0.200000"/>
  <line x1="1541.000000" y1="1430.000000" x2="1541.000000" y2="1060.000000" style="stroke: green; stroke-width: 0.200000"/>
  <line x1="1542.000122" y1="1430.000000" x2="1542.000122" y2="1060.000000" style="stroke: green; stroke-width: 0.200000"/>
  <line x1="1543.000000" y1="1430.000000" x2="1543.000000" y2="1060.000000" style="stroke: green; stroke-width: 0.200000"/>
  <line x1="1544.000122" y1="1430.000000" x2="1544.000122" y2="1060.000000" style="stroke: green; stroke-width: 0.200000"/>
  <line x1="1545.000000" y1="1430.000000" x2="1545.000000" y2="1060.000000" style="stroke: green; stroke-width: 0.200000"/>
  <line x1="1546.000000" y1="1430.000000" x2="1546.000000" y2="1060.000000" style="stroke: green; stroke-width: 0.200000"/>
  <line x1="1547.000122" y1="1430.000000" x2="1547.000122" y2="1060.000000" style="stroke: green; stroke-width: 0.200000"/>
  <line x1="1548.000000" y1="1430.000000" x2="1548.000000" y2="1060.000000" style="stroke: green; stroke-width: 0.200000"/>
  <line x1="1549.000122" y1="1430.000000" x2="1549.000122" y2="1060.000000" style="stroke: green; stroke-width: 0.200000"/>
  <line x1="1550.000000" y1="1430.000000" x2="1550.000000" y2="1060.000000" style="stroke: green; stroke-width: 0.200000"/>
  <line x1="1551.000000" y1="1430.000000" x2="1551.000000" y2="1060.000000" style="stroke: green; stroke-width: 0.200000"/>
  <line x1="1552.000122" y1="1430.000000" x2="1552.000122" y2="1060.000000" style="stroke: green; stroke-width: 0.200000"/>
  <line x1="1553.000000" y1="1430.000000" x2="1553.000000" y2="1060.000000" style="stroke: green; stroke-width: 0.200000"/>
  <line x1="1554.000122" y1="1430.000000" x2="1554.000122" y2="1060.000000" style="stroke: green; stroke-width: 0.200000"/>
  <line x1="1555.000000" y1="1430.000000" x2="1555.000000" y2="1060.000000" style="stroke: green; stroke-width: 0.200000"/>
  <line x1="1556.000000" y1="1430.000000" x2="1556.000000" y2="1060.000000" style="stroke: green; stroke-width: 0.200000"/>
  <line x1="1557.000122" y1="1430.000000" x2="1557.000122" y2="1060.000000" style="stroke: green; stroke-width: 0.200000"/>
  <line x1="1558.000000" y1="1430.000000" x2="1558.000000" y2="1060.000000" style="stroke: green; stroke-width: 0.200000"/>
  <line x1="1559.000122" y1="1430.000000" x2="1559.000122" y2="1060.000000" style="stroke: green; stroke-width: 0.200000"/>
  <line x1="1560.000000" y1="1430.000000" x2="1560.000000" y2="1060.000000" style="stroke: green; stroke-width: 0.200000"/>
  <line x1="1561.000000" y1="1430.000000" x2="1561.000000" y2="1060.000000" style="stroke: green; stroke-width: 0.200000"/>
  <line x1="1562.000122" y1="1430.000000" x2="1562.000122" y2="1060.000000" style="stroke: green; stroke-width: 0.200000"/>
  <line x1="1563.000000" y1="1430.000000" x2="1563.000000" y2="1060.000000" style="stroke: green; stroke-width: 0.200000"/>
  <line x1="1564.000122" y1="1410.000000" x2="1564.000122" y2="1060.000000" style="stroke: green; stroke-width: 0.200000"/>
  <line x1="1565.000000" y1="1410.000000" x2="1565.000000" y2="1060.000000" style="stroke: green; stroke-width: 0.200000"/>
  <line x1="1566.000000" y1="1410.000000" x2="1566.000000" y2="1060.000000" style="stroke: green; stroke-width: 0.200000"/>
  <line x1="1567.000122" y1="1410.000000" x2="1567.000122" y2="1060.000000" style="stroke: green; stroke-width: 0.200000"/>
  <line x1="1568.000000" y1="1410.000000" x2="1568.000000" y2="1060.000000" style="stroke: green; stroke-width: 0.200000"/>
  <line x1="1569.000122" y1="1410.000000" x2="1569.000122" y2="1060.000000" style="stroke: green; stroke-width: 0.200000"/>
  <line x1="1570.000000" y1="1410.000000" x2="1570.000000" y2="1060.000000" style="stroke: green; stroke-width: 0.200000"/>
  <line x1="1571.000000" y1="1410.000000" x2="1571.000000" y2="1060.000000" style="stroke: green; stroke-width: 0.200000"/>
  <line x1="1572.000122" y1="1410.000000" x2="1572.000122" y2="1060.000000" style="stroke: green; stroke-width: 0.200000"/>
  <line x1="1573.000000" y1="1410.000000" x2="1573.000000" y2="1060.000000" style="stroke: green; stroke-width: 0.200000"/>
  <line x1="1574.000122" y1="1410.000000" x2="1574.000122" y2="1060.000000" style="stroke: green; stroke-width: 0.200000"/>
  <line x1="1575.000000" y1="1410.000000" x2="1575.000000" y2="1060.000000" style="stroke: green; stroke-width: 0.200000"/>
  <line x1="1576.000000" y1="1410.000000" x2="1576.000000" y2="1060.000000" style="stroke: green; stroke-width: 0.200000"/>
  <line x1="1577.000122" y1="1410.000000" x2="1577.000122" y2="1060.000000" style="stroke: green; stroke-width: 0.200000"/>
  <line x1="1578.000000" y1="1410.000000" x2="1578.000000" y2="1060.000000" style="stroke: green; stroke-width: 0.200000"/>
  <line x1="1579.000122" y1="1410.000000" x2="1579.000122" y2="1060.000000" style="stroke: green; stroke-width: 0.200000"/>
  <line x1="1580.000000" y1="1410.000000" x2="1580.000000" y2="1060.000000" style="stroke: green; stroke-width: 0.200000"/>
  <line x1="1581.000000" y1="1410.000000" x2="1581.000000" y2="1060.000000" style="stroke: green; stroke-width: 0.200000"/>
  <line x1="1582.000122" y1="1410.000000" x2="1582.000122" y2="1060.000000" style="stroke: green; stroke-width: 0.200000"/>
  <line x1="1583.000000" y1="1410.000000" x2="1583.000000" y2="1060.000000" style="stroke: green; stroke-width: 0.200000"/>
  <line x1="1584.000122" y1="1410.000000" x2="1584.000122" y2="1060.000000" style="stroke: green; stroke-width: 0.200000"/>
  <line x1="1585.000000" y1="1410.000000" x2="1585.000000" y2="1060.000000" style="stroke: green; stroke-width: 0.200000"/>
  <line x1="1586.000000" y1="1410.000000" x2="1586.000000" y2="1060.000000" style="stroke: green; stroke-width: 0.200000"/>
  <line x1="1587.000122" y1="1410.000000" x2="1587.000122" y2="1060.000000" style="stroke: green; stroke-width: 0.200000"/>
  <line x1="1588.000000" y1="1410.000000" x2="1588.000000" y2="1060.000000" style="stroke: green; stroke-width: 0.200000"/>
  <line x1="1589.000122" y1="1410.000000" x2="1589.000122" y2="1060.000000" style="stroke: green; stroke-width: 0.200000"/>
  <line x1="1590.000000" y1="1410.000000" x2="1590.000000" y2="1060.000000" style="stroke: green; stroke-width: 0.200000"/>
  <line x1="1591.000000" y1="1410.000000" x2="1591.000000" y2="1060.000000" style="stroke: green; stroke-width: 0.200000"/>
  <line x1="1592.000122" y1="1410.000000" x2="1592.000122" y2="1060.000000" style="stroke: green; stroke-width: 0.200000"/>
  <line x1="1593.000000" y1="1410.000000" x2="1593.000000" y2="1060.000000" style="stroke: green; stroke-width: 0.200000"/>
  <line x1="1594.000122" y1="1410.000000" x2="1594.000122" y2="1060.000000" style="stroke: green; stroke-width: 0.200000"/>
  <line x1="1595.000000" y1="1410.000000" x2="1595.000000" y2="1060.000000" style="stroke: green; stroke-width: 0.200000"/>
  <line x1="1596.000000" y1="1410.000000" x2="1596.000000" y2="1060.000000" style="stroke: green; stroke-width: 0.200000"/>
  <line x1="1597.000122" y1="1410.000000" x2="1597.000122" y2="1060.000000" style="stroke: green; stroke-width: 0.200000"/>
  <line x1="1598.000000" y1="1410.000000" x2="1598.000000" y2="1060.000000" style="stroke: green; stroke-width: 0.200000"/>
  <line x1="1599.000122" y1="1410.000000" x2="1599.000122" y2="1060.000000" style="stroke: green; stroke-width: 0.200000"/>
  <line x1="1600.000000" y1="1410.000000" x2="1600.000000" y2="1060.000000" style="stroke: green; stroke-width: 0.200000"/>
  <line x1="1601.000000" y1="1410.000000" x2="1601.000000" y2="1060.000000" style="stroke: green; stroke-width: 0.200000"/>
  <line x1="1602.000122" y1="1410.000000" x2="1602.000122" y2="1060.000000" style="stroke: green; stroke-width: 0.200000"/>
  <line x1="1603.000000" y1="1410.000000" x2="1603.000000" y2="1060.000000" style="stroke: green; stroke-width: 0.200000"/>
  <line x1="1604.000122" y1="1410.000000" x2="1604.000122" y2="1060.000000" style="stroke: green; stroke-width: 0.200000"/>
  <line x1="1605.000000" y1="1410.000000" x2="1605.000000" y2="1060.000000" style="stroke: green; stroke-width: 0.200000"/>
  <line x1="1606.000000" y1="1410.000000" x2="1606.000000" y2="1060.000000" style="stroke: green; stroke-width: 0.200000"/>
  <line x1="1607.000122" y1="1410.000000" x2="1607.000122" y2="1060.000000" style="stroke: green; stroke-width: 0.200000"/>
  <line x1="1608.000000" y1="1410.000000" x2="1608.000000" y2="1060.000000" style="stroke: green; stroke-width: 0.200000"/>
  <line x1="1609.000122" y1="1410.000000" x2="1609.000122" y2="1060.000000" style="stroke: green; stroke-width: 0.200000"/>
  <line x1="1610.000000" y1="1410.000000" x2="1610.000000" y2="1060.000000" style="stroke: green; stroke-width: 0.200000"/>
  <line x1="1611.000000" y1="1410.000000" x2="1611.000000" y2="1060.000000" style="stroke: green; stroke-width: 0.200000"/>
  <line x1="1612.000122" y1="1410.000000" x2="1612.000122" y2="1060.000000" style="stroke: green; stroke-width: 0.200000"/>
  <line x1="1613.000000" y1="1410.000000" x2="1613.000000" y2="1060.000000" style="stroke: green; stroke-width: 0.200000"/>
  <line x1="1614.000122" y1="1410.000000" x2="1614.000122" y2="1060.000000" style="stroke: green; stroke-width: 0.200000"/>
  <line x1="1615.000000" y1="1410.000000" x2="1615.000000" y2="1060.000000" style="stroke: green; stroke-width: 0.200000"/>
  <line x1="1616.000000" y1="1410.000000" x2="1616.000000" y2="1060.000000" style="stroke: green; stroke-width: 0.200000"/>
  <line x1="1617.000122" y1="1410.000000" x2="1617.000122" y2="1060.000000" style="stroke: green; stroke-width: 0.200000"/>
  <line x1="1618.000000" y1="1410.000000" x2="1618.000000" y2="1060.000000" style="stroke: green; stroke-width: 0.200000"/>
  <line x1="1619.000122" y1="1410.000000" x2="1619.000122" y2="1060.000000" style="stroke: green; stroke-width: 0.200000"/>
  <line x1="1620.000000" y1="1410.000000" x2="1620.000000" y2="1060.000000" style="stroke: green; stroke-width: 0.200000"/>
  <line x1="1621.000000" y1="1410.000000" x2="1621.000000" y2="1060.000000" style="stroke: green; stroke-width: 0.200000"/>
  <line x1="1622.000122" y1="1410.000000" x2="1622.000122" y2="1060.000000" style="stroke: green; stroke-width: 0.200000"/>
  <line x1="1623.000000" y1="1410.000000" x2="1623.000000" y2="1060.000000" style="stroke: green; stroke-width: 0.200000"/>
  <line x1="1624.000122" y1="1410.000000" x2="1624.000122" y2="1060.000000" style="stroke: green; stroke-width: 0.200000"/>
  <line x1="1625.000000" y1="1410.000000" x2="1625.000000" y2="1060.000000" style="stroke: green; stroke-width: 0.200000"/>
  <line x1="1626.000000" y1="1410.000000" x2="1626.000000" y2="1060.000000" style="stroke: green; stroke-width: 0.200000"/>
  <line x1="1627.000122" y1="1410.000000" x2="1627.000122" y2="1060.000000" style="stroke: green; stroke-width: 0.200000"/>
  <line x1="1628.000000" y1="1410.000000" x2="1628.000000" y2="1060.000000" style="stroke: green; stroke-width: 0.200000"/>
  <line x1="1629.000122" y1="1410.000000" x2="1629.000122" y2="1060.000000" style="stroke: green; stroke-width: 0.200000"/>
  <line x1="1630.000000" y1="1410.000000" x2="1630.000000" y2="1060.000000" style="stroke: green; stroke-width: 0.200000"/>
  <line x1="1631.000000" y1="1410.000000" x2="1631.000000" y2="1060.000000" style="stroke: green; stroke-width: 0.200000"/>
  <line x1="1632.000122" y1="1410.000000" x2="1632.000122" y2="1060.000000" style="stroke: green; stroke-width: 0.200000"/>
  <line x1="1633.000000" y1="1410.000000" x2="1633.000000" y2="1060.000000" style="stroke: green; stroke-width: 0.200000"/>
  <line x1="1634.000122" y1="1410.000000" x2="1634.000122" y2="1060.000000" style="stroke: green; stroke-width: 0.200000"/>
  <line x1="1635.000000" y1="1410.000000" x2="1635.000000" y2="1060.000000" style="stroke: green; stroke-width: 0.200000"/>
  <line x1="1636.000000" y1="1410.000000" x2="1636.000000" y2="1060.000000" style="stroke: green; stroke-width: 0.200000"/>
  <line x1="1637.000122" y1="1410.000000" x2="1637.000122" y2="1060.000000" style="stroke: green; stroke-width: 0.200000"/>
  <line x1="1638.000000" y1="1410.000000" x2="1638.000000" y2="1060.000000" style="stroke: green; stroke-width: 0.200000"/>
  <line x1="1639.000122" y1="1410.000000" x2="1639.000122" y2="1060.000000" style="stroke: green; stroke-width: 0.200000"/>
  <line x1="1640.000000" y1="1410.000000" x2="1640.000000" y2="1060.000000" style="stroke: green; stroke-width: 0.200000"/>
  <line x1="1641.000000" y1="1410.000000" x2="1641.000000" y2="1060.000000" style="stroke: green; stroke-width: 0.200000"/>
  <line x1="1642.000122" y1="1410.000000" x2="1642.000122" y2="1060.000000" style="stroke: green; stroke-width: 0.200000"/>
  <line x1="1643.000000" y1="1410.000000" x2="1643.000000" y2="1060.000000" style="stroke: green; stroke-width: 0.200000"/>
  <line x1="1644.000000" y1="1410.000000" x2="1644.000000" y2="1060.000000" style="stroke: green; stroke-width: 0.200000"/>
  <line x1="1645.000000" y1="1410.000000" x2="1645.000000" y2="1060.000000" style="stroke: green; stroke-width: 0.200000"/>
  <line x1="1646.000000" y1="1410.000000" x2="1646.000000" y2="1060.000000" style="stroke: green; stroke-width: 0.200000"/>
  <line x1="1647.000122" y1="1410.000000" x2="1647.000122" y2="1060.000000" style="stroke: green; stroke-width: 0.200000"/>
  <line x1="1648.000000" y1="1410.000000" x2="1648.000000" y2="1060.000000" style="stroke: green; stroke-width: 0.200000"/>
  <line x1="1649.000000" y1="1410.000000" x2="1649.000000" y2="1060.000000" style="stroke: green; stroke-width: 0.200000"/>
  <line x1="1650.000000" y1="1410.000000" x2="1650.000000" y2="1060.000000" style="stroke: green; stroke-width: 0.200000"/>
  <line x1="1651.000000" y1="1410.000000" x2="1651.000000" y2="1060.000000" style="stroke: green; stroke-width: 0.200000"/>
  <line x1="1652.000122" y1="1410.000000" x2="1652.000122" y2="1060.000000" style="stroke: green; stroke-width: 0.200000"/>
  <line x1="1653.000000" y1="1410.000000" x2="1653.000000" y2="1060.000000" style="stroke: green; stroke-width: 0.200000"/>
  <line x1="1654.000000" y1="1410.000000" x2="1654.000000" y2="1060.000000" style="stroke: green; stroke-width: 0.200000"/>
  <line x1="1655.000000" y1="1410.000000" x2="1655.000000" y2="1060.000000" style="stroke: green; stroke-width: 0.200000"/>
  <line x1="1656.000000" y1="1410.000000" x2="1656.000000" y2="1060.000000" style="stroke: green; stroke-width: 0.200000"/>
  <line x1="1657.000122" y1="1410.000000" x2="1657.000122" y2="1060.000000" style="stroke: green; stroke-width: 0.200000"/>
  <line x1="1658.000000" y1="1410.000000" x2="1658.000000" y2="1060.000000" style="stroke: green; stroke-width: 0.200000"/>
  <line x1="1659.000000" y1="1410.000000" x2="1659.000000" y2="1060.000000" style="stroke: green; stroke-width: 0.200000"/>
  <line x1="1660.000000" y1="1410.000000" x2="1660.000000" y2="1060.000000" style="stroke: green; stroke-width: 0.200000"/>
  <line x1="1661.000000" y1="1410.000000" x2="1661.000000" y2="1060.000000" style="stroke: green; stroke-width: 0.200000"/>
  <line x1="1662.000122" y1="1410.000000" x2="1662.000122" y2="1060.000000" style="stroke: green; stroke-width: 0.200000"/>
  <line x1="1663.000000" y1="1410.000000" x2="1663.000000" y2="1060.000000" style="stroke: green; stroke-width: 0.200000"/>
  <line x1="1664.000000" y1="1410.000000" x2="1664.000000" y2="1060.000000" style="stroke: green; stroke-width: 0.200000"/>
  <line x1="1665.000000" y1="1410.000000" x2="1665.000000" y2="1060.000000" style="stroke: green; stroke-width: 0.200000"/>
  <line x1="1666.000000" y1="1410.000000" x2="1666.000000" y2="1060.000000" style="stroke: green; stroke-width: 0.200000"/>
  <line x1="1667.000122" y1="1410.000000" x2="1667.000122" y2="1060.000000" style="stroke: green; stroke-width: 0.200000"/>
  <line x1="1668.000000" y1="1410.000000" x2="1668.000000" y2="1060.000000" style="stroke: green; stroke-width: 0.200000"/>
  <line x1="1669.000000" y1="1410.000000" x2="1669.000000" y2="1060.000000" style="stroke: green; stroke-width: 0.200000"/>
  <line x1="1670.000000" y1="1410.000000" x2="1670.000000" y2="1060.000000" style="stroke: green; stroke-width: 0.200000"/>
  <line x1="1396.000000" y1="1410.000000" x2="1396.000000" y2="1060.000000" style="stroke: green; stroke-width: 0.200000"/>
  <line x1="1395.000000" y1="1410.000000" x2="1395.000000" y2="1060.000000" style="stroke: green; stroke-width: 0.200000"/>
  <line x1="1394.000122" y1="1410.000000" x2="1394.000122" y2="1060.000000" style="stroke: green; stroke-width: 0.200000"/>
  <line x1="1393.000000" y1="1410.000000" x2="1393.000000" y2="1060.000000" style="stroke: green; stroke-width: 0.200000"/>
  <line x1="1392.000122" y1="1410.000000" x2="1392.000122" y2="1060.000000" style="stroke: green; stroke-width: 0.200000"/>
  <line x1="1391.000000" y1="1410.000000" x2="1391.000000" y2="1060.000000" style="stroke: green; stroke-width: 0.200000"/>
  <line x1="1390.000000" y1="1410.000000" x2="1390.000000" y2="1060.000000" style="stroke: green; stroke-width: 0.200000"/>
  <line x1="1389.000122" y1="1410.000000" x2="1389.000122" y2="1060.000000" style="stroke: green; stroke-width: 0.200000"/>
  <line x1="1388.000000" y1="1410.000000" x2="1388.000000" y2="1060.000000" style="stroke: green; stroke-width: 0.200000"/>
  <line x1="1387.000122" y1="1410.000000" x2="1387.000122" y2="1060.000000" style="stroke: green; stroke-width: 0.200000"/>
  <line x1="1386.000000" y1="1410.000000" x2="1386.000000" y2="1060.000000" style="stroke: green; stroke-width: 0.200000"/>
  <line x1="1385.000000" y1="1410.000000" x2="1385.000000" y2="1060.000000" style="stroke: green; stroke-width: 0.200000"/>
  <line x1="1384.000122" y1="1410.000000" x2="1384.000122" y2="1060.000000" style="stroke: green; stroke-width: 0.200000"/>
  <line x1="1383.000000" y1="1410.000000" x2="1383.000000" y2="1060.000000" style="stroke: green; stroke-width: 0.200000"/>
  <line x1="1382.000122" y1="1410.000000" x2="1382.000122" y2="1060.000000" style="stroke: green; stroke-width: 0.200000"/>
  <line x1="1381.000000" y1="1410.000000" x2="1381.000000" y2="1060.000000" style="stroke: green; stroke-width: 0.200000"/>
  <line x1="1380.000000" y1="1410.000000" x2="1380.000000" y2="1060.000000" style="stroke: green; stroke-width: 0.200000"/>
  <line x1="1379.000122" y1="1410.000000" x2="1379.000122" y2="1060.000000" style="stroke: green; stroke-width: 0.200000"/>
  <line x1="1378.000000" y1="1410.000000" x2="1378.000000" y2="1060.000000" style="stroke: green; stroke-width: 0.200000"/>
  <line x1="1377.000122" y1="1410.000000" x2="1377.000122" y2="1060.000000" style="stroke: green; stroke-width: 0.200000"/>
  <line x1="1376.000000" y1="1410.000000" x2="1376.000000" y2="1060.000000" style="stroke: green; stroke-width: 0.200000"/>
  <line x1="1375.000000" y1="1410.000000" x2="1375.000000" y2="1060.000000" style="stroke: green; stroke-width: 0.200000"/>
  <line x1="1374.000122" y1="1410.000000" x2="1374.000122" y2="1060.000000" style="stroke: green; stroke-width: 0.200000"/>
  <line x1="1373.000000" y1="1410.000000" x2="1373.000000" y2="1060.000000" style="stroke: green; stroke-width: 0.200000"/>
  <line x1="1372.000122" y1="1410.000000" x2="1372.000122" y2="1060.000000" style="stroke: green; stroke-width: 0.200000"/>
  <line x1="1371.000000" y1="1410.000000" x2="1371.000000" y2="1060.000000" style="stroke: green; stroke-width: 0.200000"/>
  <line x1="1370.000000" y1="1410.000000" x2="1370.000000" y2="1060.000000" style="stroke: green; stroke-width: 0.200000"/>
  <line x1="1369.000122" y1="1410.000000" x2="1369.000122" y2="1060.000000" style="stroke: green; stroke-width: 0.200000"/>
  <line x1="1368.000000" y1="1410.000000" x2="1368.000000" y2="1060.000000" style="stroke: green; stroke-width: 0.200000"/>
  <line x1="1367.000122" y1="1410.000000" x2="1367.000122" y2="1060.000000" style="stroke: green; stroke-width: 0.200000"/>
  <line x1="1366.000000" y1="1410.000000" x2="1366.000000" y2="1060.000000" style="stroke: green; stroke-width: 0.200000"/>
  <line x1="1365.000000" y1="1410.000000" x2="1365.000000" y2="1060.000000" style="stroke: green; stroke-width: 0.200000"/>
  <line x1="1364.000122" y1="1410.000000" x2="1364.000122" y2="1060.000000" style="stroke: green; stroke-width: 0.200000"/>
  <line x1="1363.000000" y1="1410.000000" x2="1363.000000" y2="1060.000000" style="stroke: green; stroke-width: 0.200000"/>
  <line x1="1362.000122" y1="1410.000000" x2="1362.000122" y2="1060.000000" style="stroke: green; stroke-width: 0.200000"/>
  <line x1="1361.000000" y1="1410.000000" x2="1361.000000" y2="1060.000000" style="stroke: green; stroke-width: 0.200000"/>
  <line x1="1360.000000" y1="1410.000000" x2="1360.000000" y2="1060.000000" style="stroke: green; stroke-width: 0.200000"/>
  <line x1="1359.000122" y1="1410.000000" x2="1359.000122" y2="1060.000000" style="stroke: green; stroke-width: 0.200000"/>
  <line x1="1358.000000" y1="1410.000000" x2="1358.000000" y2="1060.000000" style="stroke: green; stroke-width: 0.200000"/>
  <line x1="1357.000122" y1="1410.000000" x2="1357.000122" y2="1060.000000" style="stroke: green; stroke-width: 0.200000"/>
  <line x1="1356.000000" y1="1410.000000" x2="1356.000000" y2="1060.000000" style="stroke: green; stroke-width: 0.200000"/>
  <line x1="1355.000000" y1="1410.000000" x2="1355.000000" y2="1060.000000" style="stroke: green; stroke-width: 0.200000"/>
  <line x1="1354.000122" y1="1410.000000" x2="1354.000122" y2="1060.000000" style="stroke: green; stroke-width: 0.200000"/>
  <line x1="1353.000000" y1="1410.000000" x2="1353.000000" y2="1060.000000" style="stroke: green; stroke-width: 0.200000"/>
  <line x1="1352.000122" y1="1410.000000" x2="1352.000122" y2="1060.000000" style="stroke: green; stroke-width: 0.200000"/>
  <line x1="1351.000000" y1="1410.000000" x2="1351.000000" y2="1060.000000" style="stroke: green; stroke-width: 0.200000"/>
  <line x1="1350.000000" y1="1410.000000" x2="1350.000000" y2="1060.000000" style="stroke: green; stroke-width: 0.200000"/>
  <line x1="1349.000122" y1="1410.000000" x2="1349.000122" y2="1060.000000" style="stroke: green; stroke-width: 0.200000"/>
  <line x1="1348.000000" y1="1410.000000" x2="1348.000000" y2="1060.000000" style="stroke: green; stroke-width: 0.200000"/>
  <line x1="1347.000122" y1="1410.000000" x2="1347.000122" y2="1060.000000" style="stroke: green; stroke-width: 0.200000"/>
  <line x1="1346.000000" y1="1410.000000" x2="1346.000000" y2="1060.000000" style="stroke: green; stroke-width: 0.200000"/>
  <line x1="1345.000000" y1="1410.000000" x2="1345.000000" y2="1060.000000" style="stroke: green; stroke-width: 0.200000"/>
  <line x1="1344.000122" y1="1410.000000" x2="1344.000122" y2="1060.000000" style="stroke: green; stroke-width: 0.200000"/>
  <line x1="1343.000000" y1="1410.000000" x2="1343.000000" y2="1060.000000" style="stroke: green; stroke-width: 0.200000"/>
  <line x1="1342.000122" y1="1410.000000" x2="1342.000122" y2="1060.000000" style="stroke: green; stroke-width: 0.200000"/>
  <line x1="1341.000000" y1="1410.000000" x2="1341.000000" y2="1060.000000" style="stroke: green; stroke-width: 0.200000"/>
  <line x1="1340.000000" y1="1410.000000" x2="1340.000000" y2="1060.000000" style="stroke: green; stroke-width: 0.200000"/>
  <line x1="1339.000122" y1="1410.000000" x2="1339.000122" y2="1060.000000" style="stroke: green; stroke-width: 0.200000"/>
  <line x1="1338.000000" y1="1410.000000" x2="1338.000000" y2="1060.000000" style="stroke: green; stroke-width: 0.200000"/>
  <line x1="1337.000122" y1="1410.000000" x2="1337.000122" y2="1060.000000" style="stroke: green; stroke-width: 0.200000"/>
  <line x1="1336.000000" y1="1410.000000" x2="1336.000000" y2="1060.000000" style="stroke: green; stroke-width: 0.200000"/>
  <line x1="1335.000000" y1="1410.000000" x2="1335.000000" y2="1060.000000" style="stroke: green; stroke-width: 0.200000"/>
  <line x1="1334.000122" y1="1410.000000" x2="1334.000122" y2="1060.000000" style="stroke: green; stroke-width: 0.200000"/>
  <line x1="1333.000000" y1="1410.000000" x2="1333.000000" y2="1060.000000" style="stroke: green; stroke-width: 0.200000"/>
  <line x1="1332.000122" y1="1410.000000" x2="1332.000122" y2="1060.000000" style="stroke: green; stroke-width: 0.200000"/>
  <line x1="1331.000000" y1="1410.000000" x2="1331.000000" y2="1060.000000" style="stroke: green; stroke-width: 0.200000"/>
  <line x1="1330.000000" y1="1410.000000" x2="1330.000000" y2="1060.000000" style="stroke: green; stroke-width: 0.200000"/>
  <line x1="1329.000122" y1="1410.000000" x2="1329.000122" y2="1060.000000" style="stroke: green; stroke-width: 0.200000"/>
  <line x1="1328.000000" y1="1410.000000" x2="1328.000000" y2="1060.000000" style="stroke: green; stroke-width: 0.200000"/>
  <line x1="1327.000122" y1="1410.000000" x2="1327.000122" y2="1060.000000" style="stroke: green; stroke-width: 0.200000"/>
  <line x1="1326.000000" y1="1410.000000" x2="1326.000000" y2="1060.000000" style="stroke: green; stroke-width: 0.200000"/>
  <line x1="1325.000000" y1="1410.000000" x2="1325.000000" y2="1060.000000" style="stroke: green; stroke-width: 0.200000"/>
  <line x1="1324.000122" y1="1410.000000" x2="1324.000122" y2="1060.000000" style="stroke: green; stroke-width: 0.200000"/>
  <line x1="1323.000000" y1="1410.000000" x2="1323.000000" y2="1060.000000" style="stroke: green; stroke-width: 0.200000"/>
  <line x1="1322.000122" y1="1410.000000" x2="1322.000122" y2="1060.000000" style="stroke: green; stroke-width: 0.200000"/>
  <line x1="1321.000000" y1="1410.000000" x2="1321.000000" y2="1060.000000" style="stroke: green; stroke-width: 0.200000"/>
  <line x1="1320.000000" y1="1410.000000" x2="1320.000000" y2="1060.000000" style="stroke: green; stroke-width: 0.200000"/>
  <line x1="1319.000122" y1="1410.000000" x2="1319.000122" y2="1060.000000" style="stroke: green; stroke-width: 0.200000"/>
  <line x1="1318.000000" y1="1410.000000" x2="1318.000000" y2="1060.000000" style="stroke: green; stroke-width: 0.200000"/>
  <line x1="1317.000000" y1="1410.000000" x2="1317.000000" y2="1060.000000" style="stroke: green; stroke-width: 0.200000"/>
  <line x1="1316.000000" y1="1410.000000" x2="1316.000000" y2="1060.000000" style="stroke: green; stroke-width: 0.200000"/>
  <line x1="1315.000000" y1="1410.000000" x2="1315.000000" y2="1060.000000" style="stroke: green; stroke-width: 0.200000"/>
  <line x1="1314.000122" y1="1410.000000" x2="1314.000122" y2="1060.000000" style="stroke: green; stroke-width: 0.200000"/>
  <line x1="1313.000000" y1="1410.000000" x2="1313.000000" y2="1060.000000" style="stroke: green; stroke-width: 0.200000"/>
  <line x1="1312.000000" y1="1410.000000" x2="1312.000000" y2="1060.000000" style="stroke: green; stroke-width: 0.200000"/>
  <line x1="1311.000000" y1="1410.000000" x2="1311.000000" y2="1060.000000" style="stroke: green; stroke-width: 0.200000"/>
  <line x1="1310.000000" y1="1410.000000" x2="1310.000000" y2="1060.000000" style="stroke: green; stroke-width: 0.200000"/>
  <line x1="1309.000122" y1="1410.000000" x2="1309.000122" y2="1060.000000" style="stroke: green; stroke-width: 0.200000"/>
  <line x1="1308.000000" y1="1410.000000" x2="1308.000000" y2="1060.000000" style="stroke: green; stroke-width: 0.200000"/>
  <line x1="1307.000000" y1="1410.000000" x2="1307.000000" y2="1060.000000" style="stroke: green; stroke-width: 0.200000"/>
  <line x1="1306.000000" y1="1410.000000" x2="1306.000000" y2="1060.000000" style="stroke: green; stroke-width: 0.200000"/>
  <line x1="1305.000000" y1="1410.000000" x2="1305.000000" y2="1060.000000" style="stroke: green; stroke-width: 0.200000"/>
  <line x1="1304.000122" y1="1410.000000" x2="1304.000122" y2="1060.000000" style="stroke: green; stroke-width: 0.200000"/>
  <line x1="1303.000000" y1="1410.000000" x2="1303.000000" y2="1060.000000" style="stroke: green; stroke-width: 0.200000"/>
  <line x1="1302.000000" y1="1410.000000" x2="1302.000000" y2="1060.000000" style="stroke: green; stroke-width: 0.200000"/>
  <line x1="1301.000000" y1="1410.000000" x2="1301.000000" y2="1060.000000" style="stroke: green; stroke-width: 0.200000"/>
  <line x1="1300.000000" y1="1410.000000" x2="1300.000000" y2="1060.000000" style="stroke: green; stroke-width: 0.200000"/>
  <line x1="1299.000122" y1="1410.000000" x2="1299.000122" y2="1060.000000" style="stroke: green; stroke-width: 0.200000"/>
  <line x1="1298.000000" y1="1410.000000" x2="1298.000000" y2="1060.000000" style="stroke: green; stroke-width: 0.200000"/>
  <line x1="1297.000000" y1="1410.000000" x2="1297.000000" y2="1060.000000" style="stroke: green; stroke-width: 0.200000"/>
  <line x1="1296.000000" y1="1410.000000" x2="1296.000000" y2="1060.000000" style="stroke: green; stroke-width: 0.200000"/>
  <line x1="1295.000000" y1="1410.000000" x2="1295.000000" y2="1060.000000" style="stroke: green; stroke-width: 0.200000"/>
  <line x1="1294.000122" y1="1410.000000" x2="1294.000122" y2="1060.000000" style="stroke: green; stroke-width: 0.200000"/>
  <line x1="1293.000000" y1="1410.000000" x2="1293.000000" y2="1060.000000" style="stroke: green; stroke-width: 0.200000"/>
  <line x1="1292.000000" y1="1410.000000" x2="1292.000000" y2="1060.000000" style="stroke: green; stroke-width: 0.200000"/>
  <line x1="1291.000000" y1="1410.000000" x2="1291.000000" y2="1060.000000" style="stroke: green; stroke-width: 0.200000"/>
  <line x1="1290.000000" y1="1410.000000" x2="1290.000000" y2="1060.000000" style="stroke: green; stroke-width: 0.200000"/>
  <path d="M 1670.41  1410  1563.02  1410  1563.02  1430  1396.98  1430  1396.98  1410  1289.59  1410  1289.59  1060  1670.41  1060  1670.41  1410  " style="fill: none; stroke: black; stroke-width: 0.200000; fill-type: evenodd"  fill-opacity="1.000000" />
</svg>
