<?xml version="1.0" encoding="UTF-8" standalone="yes"?>
<svg xmlns="http://www.w3.org/2000/svg"
     xmlns:xlink="http://www.w3.org/1999/xlink"
     width="2020.0000mm" height="1600.0000mm"
     viewBox="0 0 202.000000 160.000000">
  <!--
    Build plate : 150.00 x 150.00 mm
    Coordinate  : 1 SVG unit = 1 mm
    Display zoom: 10x  (width/height = viewBox x 10)
    Hatch stroke: 0.04 mm = ~28 mm on screen at this zoom
    Legend panel: right margin (42 mm wide)
  -->
  <defs>
    <marker id="endArrow" markerWidth="2" markerHeight="1.4"
            refX="0" refY="0.7" orient="auto"
            markerUnits="strokeWidth">
      <polyline fill="darkblue" points="0,0 2,0.7 0,1.4 0.2,0.7"/>
    </marker>
  </defs>
  <!-- Background -->
  <rect x="0" y="0" width="202.000000" height="160.000000" fill="#f0f0f0" stroke="none"/>
  <!-- Build plate boundary (150 x 150 mm) -->
  <rect x="5.000000" y="5.000000" width="150.000000" height="150.000000"
        fill="#ffffff" stroke="#aaaaaa" stroke-width="0.2" stroke-dasharray="1,0.5"/>
  <!-- Build plate centre circle (r = 75.00 mm) -->
  <circle cx="80.000000" cy="80.000000" r="75.000000"
          fill="none" stroke="#bbbbbb" stroke-width="0.15" stroke-dasharray="0.8,0.4"/>
  <!-- Centre cross-hair -->
  <line x1="5.000000" y1="80.000000" x2="155.000000" y2="80.000000" stroke="#cccccc" stroke-width="0.1"/>
  <line x1="80.000000" y1="5.000000" x2="80.000000" y2="155.000000" stroke="#cccccc" stroke-width="0.1"/>
  <circle cx="80.000000" cy="80.000000" r="0.3" fill="#cccccc" stroke="none"/>
  <!-- Corner labels -->
  <text x="5.400000" y="4.600000" font-family="sans-serif" font-size="2" fill="#888888">0,0</text>
  <text x="154.600006" y="4.600000" font-family="sans-serif" font-size="2" fill="#888888" text-anchor="end">150,0</text>
  <text x="5.400000" y="157.199997" font-family="sans-serif" font-size="2" fill="#888888">0,150</text>
  <!-- Layer geometry -->
  <g id="geometry">
    <line x1="51.25670" y1="115.91583" x2="50.92150" y2="114.01481" stroke="green" stroke-width="0.04000"/>
    <line x1="51.35720" y1="115.90988" x2="51.06743" y2="114.26656" stroke="green" stroke-width="0.04000"/>
    <line x1="51.45690" y1="115.89945" x2="51.20165" y2="114.45186" stroke="green" stroke-width="0.04000"/>
    <line x1="51.55660" y1="115.88902" x2="51.47339" y2="115.41711" stroke="green" stroke-width="0.04000"/>
    <line x1="51.65631" y1="115.87859" x2="51.60397" y2="115.58176" stroke="green" stroke-width="0.04000"/>
    <line x1="51.75601" y1="115.86816" x2="51.73454" y2="115.74641" stroke="green" stroke-width="0.04000"/>
    <line x1="51.13924" y1="115.82556" x2="50.77733" y2="113.77304" stroke="green" stroke-width="0.04000"/>
    <line x1="51.02082" y1="115.72982" x2="50.64751" y2="113.61271" stroke="green" stroke-width="0.04000"/>
    <line x1="50.90094" y1="115.62583" x2="50.51770" y2="113.45238" stroke="green" stroke-width="0.04000"/>
    <line x1="50.78106" y1="115.52184" x2="50.38750" y2="113.28986" stroke="green" stroke-width="0.04000"/>
    <line x1="50.66118" y1="115.41785" x2="50.24813" y2="113.07532" stroke="green" stroke-width="0.04000"/>
    <line x1="50.54130" y1="115.31386" x2="50.10876" y2="112.86079" stroke="green" stroke-width="0.04000"/>
    <line x1="51.43777" y1="115.21509" x2="51.33587" y2="114.63715" stroke="green" stroke-width="0.04000"/>
    <line x1="50.42142" y1="115.20987" x2="49.97478" y2="112.67684" stroke="green" stroke-width="0.04000"/>
    <line x1="50.29705" y1="115.08041" x2="49.85112" y2="112.55136" stroke="green" stroke-width="0.04000"/>
    <line x1="51.48700" y1="114.91837" x2="51.47008" y2="114.82246" stroke="green" stroke-width="0.04000"/>
    <line x1="50.16650" y1="114.91589" x2="49.74819" y2="112.54353" stroke="green" stroke-width="0.04000"/>
    <line x1="50.03595" y1="114.75135" x2="49.64527" y2="112.53569" stroke="green" stroke-width="0.04000"/>
    <line x1="49.90539" y1="114.58682" x2="49.54234" y2="112.52785" stroke="green" stroke-width="0.04000"/>
    <line x1="49.78125" y1="114.45868" x2="49.43941" y2="112.52001" stroke="green" stroke-width="0.04000"/>
    <line x1="49.64096" y1="114.23894" x2="49.33649" y2="112.51218" stroke="green" stroke-width="0.04000"/>
    <line x1="49.47226" y1="113.85801" x2="49.23357" y2="112.50434" stroke="green" stroke-width="0.04000"/>
    <line x1="49.31191" y1="113.52453" x2="49.13065" y2="112.49651" stroke="green" stroke-width="0.04000"/>
    <path d="M 49.8749 112.553 L 50.0489 112.769 L 50.3931 113.299 L 50.8442 113.856 L 50.9956 114.167 L 51.4968 114.859 L 51.4162 115.345 L 51.8254 115.861 L 51.8254 115.861 L 51.2619 115.92 L 51.0686 115.771 L 50.4191 115.208 L 50.3537 115.152 L 49.8974 114.577 L 49.7031 114.379 L 49.3508 113.584 L 49.2706 113.462 L 49.0698 112.71 L 49.0861 112.493 L 49.8749 112.553" fill="none" stroke="blue" stroke-width="0.04000" fill-rule="evenodd" fill-opacity="1.000"/>
  </g>
</svg>
