<?xml version="1.0" encoding="UTF-8" standalone="yes"?>
<svg xmlns="http://www.w3.org/2000/svg"
     xmlns:xlink="http://www.w3.org/1999/xlink"
     width="2020.0000mm" height="1600.0000mm"
     viewBox="0 0 202.000000 160.000000">
  <!--
    Build plate : 150.00 x 150.00 mm
    Coordinate  : 1 SVG unit = 1 mm
    Display zoom: 10x  (width/height = viewBox x 10)
    Hatch stroke: 0.04 mm = ~28 mm on screen at this zoom
    Legend panel: right margin (42 mm wide)
  -->
  <defs>
    <marker id="endArrow" markerWidth="2" markerHeight="1.4"
            refX="0" refY="0.7" orient="auto"
            markerUnits="strokeWidth">
      <polyline fill="darkblue" points="0,0 2,0.7 0,1.4 0.2,0.7"/>
    </marker>
  </defs>
  <!-- Background -->
  <rect x="0" y="0" width="202.000000" height="160.000000" fill="#f0f0f0" stroke="none"/>
  <!-- Build plate boundary (150 x 150 mm) -->
  <rect x="5.000000" y="5.000000" width="150.000000" height="150.000000"
        fill="#ffffff" stroke="#aaaaaa" stroke-width="0.2" stroke-dasharray="1,0.5"/>
  <!-- Build plate centre circle (r = 75.00 mm) -->
  <circle cx="80.000000" cy="80.000000" r="75.000000"
          fill="none" stroke="#bbbbbb" stroke-width="0.15" stroke-dasharray="0.8,0.4"/>
  <!-- Centre cross-hair -->
  <line x1="5.000000" y1="80.000000" x2="155.000000" y2="80.000000" stroke="#cccccc" stroke-width="0.1"/>
  <line x1="80.000000" y1="5.000000" x2="80.000000" y2="155.000000" stroke="#cccccc" stroke-width="0.1"/>
  <circle cx="80.000000" cy="80.000000" r="0.3" fill="#cccccc" stroke="none"/>
  <!-- Corner labels -->
  <text x="5.400000" y="4.600000" font-family="sans-serif" font-size="2" fill="#888888">0,0</text>
  <text x="154.600006" y="4.600000" font-family="sans-serif" font-size="2" fill="#888888" text-anchor="end">150,0</text>
  <text x="5.400000" y="157.199997" font-family="sans-serif" font-size="2" fill="#888888">0,150</text>
  <!-- Layer geometry -->
  <g id="geometry">
    <line x1="35.01401" y1="127.31035" x2="35.15068" y2="127.35213" stroke="green" stroke-width="0.04000"/>
    <line x1="34.67994" y1="127.10364" x2="35.09869" y2="127.23167" stroke="green" stroke-width="0.04000"/>
    <line x1="34.34590" y1="126.89695" x2="35.04671" y2="127.11121" stroke="green" stroke-width="0.04000"/>
    <line x1="33.04376" y1="126.39427" x2="34.99472" y2="126.99074" stroke="green" stroke-width="0.04000"/>
    <line x1="32.82291" y1="126.22218" x2="34.94273" y2="126.87028" stroke="green" stroke-width="0.04000"/>
    <line x1="33.25687" y1="126.56400" x2="34.23558" y2="126.86322" stroke="green" stroke-width="0.04000"/>
    <line x1="33.41114" y1="126.71573" x2="33.87276" y2="126.85686" stroke="green" stroke-width="0.04000"/>
    <line x1="32.66887" y1="126.07052" x2="34.89074" y2="126.74981" stroke="green" stroke-width="0.04000"/>
    <line x1="32.56313" y1="125.93362" x2="34.83876" y2="126.62935" stroke="green" stroke-width="0.04000"/>
    <line x1="32.44618" y1="125.79330" x2="34.78677" y2="126.50888" stroke="green" stroke-width="0.04000"/>
    <line x1="32.30571" y1="125.64578" x2="34.73274" y2="126.38780" stroke="green" stroke-width="0.04000"/>
    <line x1="32.16523" y1="125.49826" x2="34.67290" y2="126.26493" stroke="green" stroke-width="0.04000"/>
    <line x1="32.02477" y1="125.35075" x2="34.61305" y2="126.14207" stroke="green" stroke-width="0.04000"/>
    <line x1="31.88429" y1="125.20323" x2="34.55321" y2="126.01920" stroke="green" stroke-width="0.04000"/>
    <line x1="31.85283" y1="125.08904" x2="34.48212" y2="125.89290" stroke="green" stroke-width="0.04000"/>
    <line x1="31.86476" y1="124.98812" x2="34.38552" y2="125.75880" stroke="green" stroke-width="0.04000"/>
    <line x1="31.87668" y1="124.88720" x2="34.28892" y2="125.62469" stroke="green" stroke-width="0.04000"/>
    <line x1="31.88861" y1="124.78628" x2="34.18960" y2="125.48976" stroke="green" stroke-width="0.04000"/>
    <line x1="31.90054" y1="124.68536" x2="34.08730" y2="125.35391" stroke="green" stroke-width="0.04000"/>
    <line x1="31.88352" y1="124.57558" x2="33.98500" y2="125.21807" stroke="green" stroke-width="0.04000"/>
    <line x1="31.86596" y1="124.46564" x2="33.88269" y2="125.08222" stroke="green" stroke-width="0.04000"/>
    <line x1="31.84841" y1="124.35571" x2="33.73833" y2="124.93352" stroke="green" stroke-width="0.04000"/>
    <line x1="31.83085" y1="124.24577" x2="33.55650" y2="124.77335" stroke="green" stroke-width="0.04000"/>
    <line x1="31.88384" y1="124.15741" x2="33.38618" y2="124.61672" stroke="green" stroke-width="0.04000"/>
    <line x1="31.99229" y1="124.08599" x2="33.22872" y2="124.46400" stroke="green" stroke-width="0.04000"/>
    <line x1="32.10073" y1="124.01458" x2="32.32669" y2="124.08366" stroke="green" stroke-width="0.04000"/>
    <line x1="51.84531" y1="116.62875" x2="52.14861" y2="116.72147" stroke="green" stroke-width="0.04000"/>
    <line x1="51.55348" y1="116.43495" x2="52.27410" y2="116.65527" stroke="green" stroke-width="0.04000"/>
    <line x1="51.25888" y1="116.24032" x2="52.39959" y2="116.58907" stroke="green" stroke-width="0.04000"/>
    <line x1="50.96322" y1="116.04536" x2="52.52509" y2="116.52287" stroke="green" stroke-width="0.04000"/>
    <line x1="50.65944" y1="115.84791" x2="52.65058" y2="116.45667" stroke="green" stroke-width="0.04000"/>
    <line x1="50.35527" y1="115.65034" x2="52.77607" y2="116.39046" stroke="green" stroke-width="0.04000"/>
    <line x1="50.05111" y1="115.45278" x2="52.89385" y2="116.32190" stroke="green" stroke-width="0.04000"/>
    <line x1="49.82394" y1="115.27876" x2="52.94187" y2="116.23201" stroke="green" stroke-width="0.04000"/>
    <line x1="49.60592" y1="115.10754" x2="52.88532" y2="116.11015" stroke="green" stroke-width="0.04000"/>
    <line x1="49.38791" y1="114.93632" x2="52.82460" y2="115.98701" stroke="green" stroke-width="0.04000"/>
    <line x1="49.11479" y1="114.74825" x2="52.76331" y2="115.86371" stroke="green" stroke-width="0.04000"/>
    <line x1="48.92023" y1="114.58419" x2="52.70201" y2="115.74040" stroke="green" stroke-width="0.04000"/>
    <line x1="48.75237" y1="114.42831" x2="52.64071" y2="115.61709" stroke="green" stroke-width="0.04000"/>
    <line x1="48.58451" y1="114.27242" x2="52.56342" y2="115.48889" stroke="green" stroke-width="0.04000"/>
    <line x1="48.40848" y1="114.11403" x2="52.43123" y2="115.34391" stroke="green" stroke-width="0.04000"/>
    <line x1="48.20066" y1="113.94592" x2="52.29903" y2="115.19893" stroke="green" stroke-width="0.04000"/>
    <line x1="48.04089" y1="113.79251" x2="52.16683" y2="115.05393" stroke="green" stroke-width="0.04000"/>
    <line x1="47.92561" y1="113.65269" x2="52.04623" y2="114.91250" stroke="green" stroke-width="0.04000"/>
    <line x1="47.81032" y1="113.51288" x2="51.90421" y2="114.76450" stroke="green" stroke-width="0.04000"/>
    <line x1="47.69478" y1="113.37299" x2="51.73846" y2="114.60926" stroke="green" stroke-width="0.04000"/>
    <line x1="47.54905" y1="113.22386" x2="51.57270" y2="114.45402" stroke="green" stroke-width="0.04000"/>
    <line x1="47.40333" y1="113.07474" x2="51.40695" y2="114.29877" stroke="green" stroke-width="0.04000"/>
    <line x1="47.27916" y1="112.93221" x2="51.25838" y2="114.14878" stroke="green" stroke-width="0.04000"/>
    <line x1="47.21811" y1="112.80898" x2="51.10209" y2="113.99643" stroke="green" stroke-width="0.04000"/>
    <line x1="47.15706" y1="112.68575" x2="50.94579" y2="113.84407" stroke="green" stroke-width="0.04000"/>
    <line x1="47.09274" y1="112.56151" x2="50.78949" y2="113.69172" stroke="green" stroke-width="0.04000"/>
    <line x1="46.99493" y1="112.42703" x2="50.63691" y2="113.54050" stroke="green" stroke-width="0.04000"/>
    <line x1="46.89711" y1="112.29256" x2="50.48872" y2="113.39062" stroke="green" stroke-width="0.04000"/>
    <line x1="46.79929" y1="112.15808" x2="50.34052" y2="113.24075" stroke="green" stroke-width="0.04000"/>
    <line x1="46.71850" y1="112.02882" x2="50.19233" y2="113.09087" stroke="green" stroke-width="0.04000"/>
    <line x1="46.68224" y1="111.91316" x2="50.04413" y2="112.94099" stroke="green" stroke-width="0.04000"/>
    <line x1="46.64599" y1="111.79751" x2="49.88982" y2="112.78925" stroke="green" stroke-width="0.04000"/>
    <line x1="46.59821" y1="111.67833" x2="49.73418" y2="112.63709" stroke="green" stroke-width="0.04000"/>
    <line x1="46.54694" y1="111.55808" x2="49.60534" y2="112.49313" stroke="green" stroke-width="0.04000"/>
    <line x1="46.49566" y1="111.43784" x2="49.47650" y2="112.34917" stroke="green" stroke-width="0.04000"/>
    <line x1="46.44439" y1="111.31760" x2="49.34765" y2="112.20521" stroke="green" stroke-width="0.04000"/>
    <line x1="46.39312" y1="111.19735" x2="49.21881" y2="112.06125" stroke="green" stroke-width="0.04000"/>
    <line x1="46.34184" y1="111.07710" x2="49.08665" y2="111.91628" stroke="green" stroke-width="0.04000"/>
    <line x1="46.31073" y1="110.96303" x2="48.95913" y2="111.77272" stroke="green" stroke-width="0.04000"/>
    <line x1="46.31978" y1="110.86122" x2="48.84575" y2="111.63348" stroke="green" stroke-width="0.04000"/>
    <line x1="46.31995" y1="110.75671" x2="48.73238" y2="111.49426" stroke="green" stroke-width="0.04000"/>
    <line x1="46.31750" y1="110.65139" x2="48.61900" y2="111.35503" stroke="green" stroke-width="0.04000"/>
    <line x1="46.31506" y1="110.54607" x2="48.50563" y2="111.21580" stroke="green" stroke-width="0.04000"/>
    <line x1="46.31261" y1="110.44075" x2="48.39225" y2="111.07656" stroke="green" stroke-width="0.04000"/>
    <line x1="46.31016" y1="110.33543" x2="48.28041" y2="110.93781" stroke="green" stroke-width="0.04000"/>
    <line x1="46.30771" y1="110.23012" x2="48.13839" y2="110.78981" stroke="green" stroke-width="0.04000"/>
    <line x1="46.30526" y1="110.12479" x2="47.64622" y2="110.53477" stroke="green" stroke-width="0.04000"/>
    <line x1="46.30281" y1="110.01948" x2="47.29446" y2="110.32265" stroke="green" stroke-width="0.04000"/>
    <line x1="46.44599" y1="109.95869" x2="47.19473" y2="110.18760" stroke="green" stroke-width="0.04000"/>
    <line x1="46.70401" y1="109.93300" x2="47.09501" y2="110.05254" stroke="green" stroke-width="0.04000"/>
    <line x1="46.96203" y1="109.90732" x2="46.99529" y2="109.91748" stroke="green" stroke-width="0.04000"/>
    <path d="M 32.4577 124.135 L 33.0734 124.313 L 33.4605 124.689 L 33.8345 125.018 L 34.2385 125.555 L 34.5117 125.934 L 34.7483 126.42 L 35.1526 127.357 L 35.1595 127.379 L 35.1511 127.387 L 35.127 127.38 L 34.293 126.864 L 33.5441 126.851 L 33.3555 126.659 L 33.237 126.545 L 32.7303 126.15 L 32.4915 125.841 L 31.8443 125.161 L 31.9008 124.684 L 31.8231 124.197 L 32.1195 124.002 L 32.4577 124.135" fill="none" stroke="blue" stroke-width="0.04000" fill-rule="evenodd" fill-opacity="1.000"/>
    <path d="M 47.3301 110.371 L 48.1809 110.812 L 48.3181 110.985 L 49.018 111.845 L 49.1205 111.951 L 49.8158 112.728 L 49.9042 112.801 L 50.0139 112.91 L 50.7051 113.609 L 51.2598 114.15 L 51.3324 114.229 L 52.0002 114.854 L 52.1018 114.983 L 52.5932 115.522 L 52.8785 116.095 L 52.9616 116.274 L 52.8566 116.348 L 52.0556 116.771 L 51.773 116.58 L 51.0608 116.109 L 50.9457 116.034 L 50.031 115.44 L 50.0209 115.433 L 49.2555 114.832 L 49.0646 114.718 L 48.451 114.148 L 48.1008 113.865 L 47.696 113.374 L 47.2947 112.964 L 47.1014 112.573 L 46.7285 112.061 L 46.6376 111.771 L 46.3077 110.997 L 46.3218 110.838 L 46.3017 109.973 L 46.986 109.905 L 47.3301 110.371" fill="none" stroke="blue" stroke-width="0.04000" fill-rule="evenodd" fill-opacity="1.000"/>
  </g>
</svg>
