<?xml version="1.0" encoding="UTF-8" standalone="yes"?>
<svg xmlns="http://www.w3.org/2000/svg"
     xmlns:xlink="http://www.w3.org/1999/xlink"
     width="2020.0000mm" height="1600.0000mm"
     viewBox="0 0 202.000000 160.000000">
  <!--
    Build plate : 150.00 x 150.00 mm
    Coordinate  : 1 SVG unit = 1 mm
    Display zoom: 10x  (width/height = viewBox x 10)
    Hatch stroke: 0.04 mm = ~28 mm on screen at this zoom
    Legend panel: right margin (42 mm wide)
  -->
  <defs>
    <marker id="endArrow" markerWidth="2" markerHeight="1.4"
            refX="0" refY="0.7" orient="auto"
            markerUnits="strokeWidth">
      <polyline fill="darkblue" points="0,0 2,0.7 0,1.4 0.2,0.7"/>
    </marker>
  </defs>
  <!-- Background -->
  <rect x="0" y="0" width="202.000000" height="160.000000" fill="#f0f0f0" stroke="none"/>
  <!-- Build plate boundary (150 x 150 mm) -->
  <rect x="5.000000" y="5.000000" width="150.000000" height="150.000000"
        fill="#ffffff" stroke="#aaaaaa" stroke-width="0.2" stroke-dasharray="1,0.5"/>
  <!-- Build plate centre circle (r = 75.00 mm) -->
  <circle cx="80.000000" cy="80.000000" r="75.000000"
          fill="none" stroke="#bbbbbb" stroke-width="0.15" stroke-dasharray="0.8,0.4"/>
  <!-- Centre cross-hair -->
  <line x1="5.000000" y1="80.000000" x2="155.000000" y2="80.000000" stroke="#cccccc" stroke-width="0.1"/>
  <line x1="80.000000" y1="5.000000" x2="80.000000" y2="155.000000" stroke="#cccccc" stroke-width="0.1"/>
  <circle cx="80.000000" cy="80.000000" r="0.3" fill="#cccccc" stroke="none"/>
  <!-- Corner labels -->
  <text x="5.400000" y="4.600000" font-family="sans-serif" font-size="2" fill="#888888">0,0</text>
  <text x="154.600006" y="4.600000" font-family="sans-serif" font-size="2" fill="#888888" text-anchor="end">150,0</text>
  <text x="5.400000" y="157.199997" font-family="sans-serif" font-size="2" fill="#888888">0,150</text>
  <!-- Layer geometry -->
  <g id="geometry">
    <line x1="51.03698" y1="115.31678" x2="51.13381" y2="115.38210" stroke="green" stroke-width="0.04000"/>
    <line x1="50.75807" y1="115.00803" x2="51.15181" y2="115.27361" stroke="green" stroke-width="0.04000"/>
    <line x1="50.36822" y1="114.62446" x2="51.16981" y2="115.16514" stroke="green" stroke-width="0.04000"/>
    <line x1="50.20934" y1="114.39667" x2="51.18781" y2="115.05665" stroke="green" stroke-width="0.04000"/>
    <line x1="50.20317" y1="114.27189" x2="51.20580" y2="114.94817" stroke="green" stroke-width="0.04000"/>
    <line x1="50.19700" y1="114.14710" x2="51.22380" y2="114.83968" stroke="green" stroke-width="0.04000"/>
    <line x1="50.19083" y1="114.02232" x2="51.24179" y2="114.73120" stroke="green" stroke-width="0.04000"/>
    <line x1="50.16418" y1="113.88372" x2="51.07272" y2="114.49654" stroke="green" stroke-width="0.04000"/>
    <line x1="50.13640" y1="113.74435" x2="50.94574" y2="114.29027" stroke="green" stroke-width="0.04000"/>
    <line x1="50.10861" y1="113.60500" x2="50.85863" y2="114.11089" stroke="green" stroke-width="0.04000"/>
    <line x1="50.08698" y1="113.46978" x2="50.77151" y2="113.93150" stroke="green" stroke-width="0.04000"/>
    <line x1="50.11453" y1="113.36774" x2="50.68440" y2="113.75213" stroke="green" stroke-width="0.04000"/>
    <line x1="50.14208" y1="113.26571" x2="50.57630" y2="113.55859" stroke="green" stroke-width="0.04000"/>
    <line x1="50.16963" y1="113.16367" x2="50.40022" y2="113.31921" stroke="green" stroke-width="0.04000"/>
    <line x1="50.19718" y1="113.06163" x2="50.26075" y2="113.10451" stroke="green" stroke-width="0.04000"/>
    <path d="M 50.4722 113.43 L 50.6116 113.602 L 50.9914 114.384 L 51.242 114.73 L 51.1279 115.417 L 50.6686 114.909 L 50.2134 114.478 L 50.1905 114.016 L 50.0839 113.481 L 50.2077 113.023 L 50.2077 113.023 L 50.4722 113.43" fill="none" stroke="blue" stroke-width="0.04000" fill-rule="evenodd" fill-opacity="1.000"/>
  </g>
</svg>
