<?xml version="1.0" encoding="UTF-8" standalone="yes"?>
<svg xmlns="http://www.w3.org/2000/svg"
     xmlns:xlink="http://www.w3.org/1999/xlink"
     width="2020.0000mm" height="1600.0000mm"
     viewBox="0 0 202.000000 160.000000">
  <!--
    Build plate : 150.00 x 150.00 mm
    Coordinate  : 1 SVG unit = 1 mm
    Display zoom: 10x  (width/height = viewBox x 10)
    Hatch stroke: 0.04 mm = ~28 mm on screen at this zoom
    Legend panel: right margin (42 mm wide)
  -->
  <defs>
    <marker id="endArrow" markerWidth="2" markerHeight="1.4"
            refX="0" refY="0.7" orient="auto"
            markerUnits="strokeWidth">
      <polyline fill="darkblue" points="0,0 2,0.7 0,1.4 0.2,0.7"/>
    </marker>
  </defs>
  <!-- Background -->
  <rect x="0" y="0" width="202.000000" height="160.000000" fill="#f0f0f0" stroke="none"/>
  <!-- Build plate boundary (150 x 150 mm) -->
  <rect x="5.000000" y="5.000000" width="150.000000" height="150.000000"
        fill="#ffffff" stroke="#aaaaaa" stroke-width="0.2" stroke-dasharray="1,0.5"/>
  <!-- Build plate centre circle (r = 75.00 mm) -->
  <circle cx="80.000000" cy="80.000000" r="75.000000"
          fill="none" stroke="#bbbbbb" stroke-width="0.15" stroke-dasharray="0.8,0.4"/>
  <!-- Centre cross-hair -->
  <line x1="5.000000" y1="80.000000" x2="155.000000" y2="80.000000" stroke="#cccccc" stroke-width="0.1"/>
  <line x1="80.000000" y1="5.000000" x2="80.000000" y2="155.000000" stroke="#cccccc" stroke-width="0.1"/>
  <circle cx="80.000000" cy="80.000000" r="0.3" fill="#cccccc" stroke="none"/>
  <!-- Corner labels -->
  <text x="5.400000" y="4.600000" font-family="sans-serif" font-size="2" fill="#888888">0,0</text>
  <text x="154.600006" y="4.600000" font-family="sans-serif" font-size="2" fill="#888888" text-anchor="end">150,0</text>
  <text x="5.400000" y="157.199997" font-family="sans-serif" font-size="2" fill="#888888">0,150</text>
  <!-- Layer geometry -->
  <g id="geometry">
    <line x1="92.90844" y1="86.07995" x2="67.11790" y2="96.50000" stroke="green" stroke-width="0.04000"/>
    <line x1="92.90844" y1="86.18780" x2="67.38485" y2="96.50000" stroke="green" stroke-width="0.04000"/>
    <line x1="92.90844" y1="86.29565" x2="67.65179" y2="96.50000" stroke="green" stroke-width="0.04000"/>
    <line x1="92.90844" y1="86.40351" x2="67.91875" y2="96.50000" stroke="green" stroke-width="0.04000"/>
    <line x1="92.90844" y1="86.51136" x2="68.18568" y2="96.50000" stroke="green" stroke-width="0.04000"/>
    <line x1="92.90844" y1="86.61921" x2="68.45264" y2="96.50000" stroke="green" stroke-width="0.04000"/>
    <line x1="92.90844" y1="86.72707" x2="68.71959" y2="96.50000" stroke="green" stroke-width="0.04000"/>
    <line x1="92.90844" y1="86.83492" x2="68.98653" y2="96.50000" stroke="green" stroke-width="0.04000"/>
    <line x1="92.90844" y1="86.94278" x2="69.25349" y2="96.50000" stroke="green" stroke-width="0.04000"/>
    <line x1="92.90844" y1="87.05063" x2="69.52042" y2="96.50000" stroke="green" stroke-width="0.04000"/>
    <line x1="92.90844" y1="87.15848" x2="69.78737" y2="96.50000" stroke="green" stroke-width="0.04000"/>
    <line x1="92.90844" y1="87.26633" x2="70.05432" y2="96.50000" stroke="green" stroke-width="0.04000"/>
    <line x1="92.90844" y1="87.37419" x2="70.32127" y2="96.50000" stroke="green" stroke-width="0.04000"/>
    <line x1="92.90844" y1="87.48204" x2="70.58821" y2="96.50000" stroke="green" stroke-width="0.04000"/>
    <line x1="92.90844" y1="87.58989" x2="70.85515" y2="96.50000" stroke="green" stroke-width="0.04000"/>
    <line x1="92.90844" y1="87.69775" x2="71.12210" y2="96.50000" stroke="green" stroke-width="0.04000"/>
    <line x1="92.90844" y1="87.80560" x2="71.38905" y2="96.50000" stroke="green" stroke-width="0.04000"/>
    <line x1="92.90844" y1="87.91346" x2="71.65601" y2="96.50000" stroke="green" stroke-width="0.04000"/>
    <line x1="92.90844" y1="88.02131" x2="71.92294" y2="96.50000" stroke="green" stroke-width="0.04000"/>
    <line x1="92.90844" y1="88.12917" x2="72.18989" y2="96.50000" stroke="green" stroke-width="0.04000"/>
    <line x1="92.90844" y1="88.23701" x2="72.45684" y2="96.50000" stroke="green" stroke-width="0.04000"/>
    <line x1="92.90844" y1="88.34487" x2="72.72379" y2="96.50000" stroke="green" stroke-width="0.04000"/>
    <line x1="92.90844" y1="88.45273" x2="72.99075" y2="96.50000" stroke="green" stroke-width="0.04000"/>
    <line x1="92.90844" y1="88.56058" x2="73.25768" y2="96.50000" stroke="green" stroke-width="0.04000"/>
    <line x1="92.90844" y1="88.66843" x2="73.52462" y2="96.50000" stroke="green" stroke-width="0.04000"/>
    <line x1="92.90844" y1="88.77628" x2="73.79157" y2="96.50000" stroke="green" stroke-width="0.04000"/>
    <line x1="92.90844" y1="88.88414" x2="74.05853" y2="96.50000" stroke="green" stroke-width="0.04000"/>
    <line x1="92.90844" y1="88.99199" x2="74.32546" y2="96.50000" stroke="green" stroke-width="0.04000"/>
    <line x1="92.90844" y1="89.09984" x2="74.59241" y2="96.50000" stroke="green" stroke-width="0.04000"/>
    <line x1="92.90844" y1="89.20770" x2="74.85936" y2="96.50000" stroke="green" stroke-width="0.04000"/>
    <line x1="92.90844" y1="89.31555" x2="75.12631" y2="96.50000" stroke="green" stroke-width="0.04000"/>
    <line x1="92.90844" y1="89.42341" x2="75.39326" y2="96.50000" stroke="green" stroke-width="0.04000"/>
    <line x1="92.90844" y1="89.53126" x2="75.66020" y2="96.50000" stroke="green" stroke-width="0.04000"/>
    <line x1="92.90844" y1="89.63911" x2="75.92714" y2="96.50000" stroke="green" stroke-width="0.04000"/>
    <line x1="92.90844" y1="89.74696" x2="76.19409" y2="96.50000" stroke="green" stroke-width="0.04000"/>
    <line x1="92.90844" y1="89.85482" x2="76.46104" y2="96.50000" stroke="green" stroke-width="0.04000"/>
    <line x1="92.90844" y1="89.96268" x2="76.72799" y2="96.50000" stroke="green" stroke-width="0.04000"/>
    <line x1="92.90844" y1="90.07053" x2="76.99493" y2="96.50000" stroke="green" stroke-width="0.04000"/>
    <line x1="92.90844" y1="90.17838" x2="77.26188" y2="96.50000" stroke="green" stroke-width="0.04000"/>
    <line x1="92.90844" y1="90.28623" x2="77.52883" y2="96.50000" stroke="green" stroke-width="0.04000"/>
    <line x1="92.90844" y1="90.39409" x2="77.79578" y2="96.50000" stroke="green" stroke-width="0.04000"/>
    <line x1="92.90844" y1="90.50194" x2="78.06272" y2="96.50000" stroke="green" stroke-width="0.04000"/>
    <line x1="92.90844" y1="90.60979" x2="78.32967" y2="96.50000" stroke="green" stroke-width="0.04000"/>
    <line x1="92.90844" y1="90.71764" x2="78.59661" y2="96.50000" stroke="green" stroke-width="0.04000"/>
    <line x1="92.90844" y1="90.82550" x2="78.86356" y2="96.50000" stroke="green" stroke-width="0.04000"/>
    <line x1="92.90844" y1="90.93336" x2="79.13052" y2="96.50000" stroke="green" stroke-width="0.04000"/>
    <line x1="92.90844" y1="91.04121" x2="79.39745" y2="96.50000" stroke="green" stroke-width="0.04000"/>
    <line x1="92.90844" y1="91.14906" x2="79.66440" y2="96.50000" stroke="green" stroke-width="0.04000"/>
    <line x1="92.90844" y1="91.25691" x2="79.93135" y2="96.50000" stroke="green" stroke-width="0.04000"/>
    <line x1="92.90844" y1="91.36477" x2="80.19830" y2="96.50000" stroke="green" stroke-width="0.04000"/>
    <line x1="92.90844" y1="91.47263" x2="80.46525" y2="96.50000" stroke="green" stroke-width="0.04000"/>
    <line x1="92.90844" y1="91.58047" x2="80.73218" y2="96.50000" stroke="green" stroke-width="0.04000"/>
    <line x1="92.90844" y1="91.68832" x2="80.99913" y2="96.50000" stroke="green" stroke-width="0.04000"/>
    <line x1="92.90844" y1="91.79618" x2="81.26608" y2="96.50000" stroke="green" stroke-width="0.04000"/>
    <line x1="92.90844" y1="91.90404" x2="81.53304" y2="96.50000" stroke="green" stroke-width="0.04000"/>
    <line x1="92.90844" y1="92.01189" x2="81.79997" y2="96.50000" stroke="green" stroke-width="0.04000"/>
    <line x1="92.90844" y1="92.11974" x2="82.06692" y2="96.50000" stroke="green" stroke-width="0.04000"/>
    <line x1="92.90844" y1="92.22759" x2="82.33386" y2="96.50000" stroke="green" stroke-width="0.04000"/>
    <line x1="92.90844" y1="92.33545" x2="82.60081" y2="96.50000" stroke="green" stroke-width="0.04000"/>
    <line x1="92.90844" y1="92.44331" x2="82.86777" y2="96.50000" stroke="green" stroke-width="0.04000"/>
    <line x1="92.90844" y1="92.55116" x2="83.13470" y2="96.50000" stroke="green" stroke-width="0.04000"/>
    <line x1="92.90844" y1="92.65900" x2="83.40165" y2="96.50000" stroke="green" stroke-width="0.04000"/>
    <line x1="92.90844" y1="92.76686" x2="83.66860" y2="96.50000" stroke="green" stroke-width="0.04000"/>
    <line x1="92.90844" y1="92.87472" x2="83.93555" y2="96.50000" stroke="green" stroke-width="0.04000"/>
    <line x1="92.90844" y1="92.98257" x2="84.20249" y2="96.50000" stroke="green" stroke-width="0.04000"/>
    <line x1="92.90844" y1="93.09042" x2="84.46944" y2="96.50000" stroke="green" stroke-width="0.04000"/>
    <line x1="92.90844" y1="93.19828" x2="84.73639" y2="96.50000" stroke="green" stroke-width="0.04000"/>
    <line x1="92.90844" y1="93.30613" x2="85.00334" y2="96.50000" stroke="green" stroke-width="0.04000"/>
    <line x1="92.90844" y1="93.41399" x2="85.27029" y2="96.50000" stroke="green" stroke-width="0.04000"/>
    <line x1="92.90844" y1="93.52184" x2="85.53723" y2="96.50000" stroke="green" stroke-width="0.04000"/>
    <line x1="92.90844" y1="93.62968" x2="85.80417" y2="96.50000" stroke="green" stroke-width="0.04000"/>
    <line x1="92.90844" y1="93.73754" x2="86.07112" y2="96.50000" stroke="green" stroke-width="0.04000"/>
    <line x1="92.90844" y1="93.84540" x2="86.33807" y2="96.50000" stroke="green" stroke-width="0.04000"/>
    <line x1="92.90844" y1="93.95325" x2="86.60502" y2="96.50000" stroke="green" stroke-width="0.04000"/>
    <line x1="92.90844" y1="94.06110" x2="86.87196" y2="96.50000" stroke="green" stroke-width="0.04000"/>
    <line x1="92.90844" y1="94.16896" x2="87.13891" y2="96.50000" stroke="green" stroke-width="0.04000"/>
    <line x1="92.90844" y1="94.27681" x2="87.40585" y2="96.50000" stroke="green" stroke-width="0.04000"/>
    <line x1="92.90844" y1="94.38467" x2="87.67281" y2="96.50000" stroke="green" stroke-width="0.04000"/>
    <line x1="92.90844" y1="94.49252" x2="87.93975" y2="96.50000" stroke="green" stroke-width="0.04000"/>
    <line x1="92.90844" y1="94.60037" x2="88.20669" y2="96.50000" stroke="green" stroke-width="0.04000"/>
    <line x1="92.90844" y1="94.70822" x2="88.47364" y2="96.50000" stroke="green" stroke-width="0.04000"/>
    <line x1="92.90844" y1="94.81608" x2="88.74059" y2="96.50000" stroke="green" stroke-width="0.04000"/>
    <line x1="92.90844" y1="94.92393" x2="89.00754" y2="96.50000" stroke="green" stroke-width="0.04000"/>
    <line x1="92.90844" y1="95.03178" x2="89.27448" y2="96.50000" stroke="green" stroke-width="0.04000"/>
    <line x1="92.90844" y1="95.13963" x2="89.54142" y2="96.50000" stroke="green" stroke-width="0.04000"/>
    <line x1="92.90844" y1="95.24749" x2="89.80837" y2="96.50000" stroke="green" stroke-width="0.04000"/>
    <line x1="92.90844" y1="95.35535" x2="90.07533" y2="96.50000" stroke="green" stroke-width="0.04000"/>
    <line x1="92.90844" y1="95.46320" x2="90.34228" y2="96.50000" stroke="green" stroke-width="0.04000"/>
    <line x1="92.90844" y1="95.57105" x2="90.60922" y2="96.50000" stroke="green" stroke-width="0.04000"/>
    <line x1="92.90844" y1="95.67891" x2="90.87616" y2="96.50000" stroke="green" stroke-width="0.04000"/>
    <line x1="92.90844" y1="95.78676" x2="91.14311" y2="96.50000" stroke="green" stroke-width="0.04000"/>
    <line x1="92.90844" y1="95.89462" x2="91.41006" y2="96.50000" stroke="green" stroke-width="0.04000"/>
    <line x1="92.90844" y1="96.00246" x2="91.67700" y2="96.50000" stroke="green" stroke-width="0.04000"/>
    <line x1="92.90844" y1="96.11032" x2="91.94395" y2="96.50000" stroke="green" stroke-width="0.04000"/>
    <line x1="92.90844" y1="96.21817" x2="92.21089" y2="96.50000" stroke="green" stroke-width="0.04000"/>
    <line x1="92.90844" y1="96.32603" x2="92.47784" y2="96.50000" stroke="green" stroke-width="0.04000"/>
    <line x1="92.90844" y1="96.43388" x2="92.74480" y2="96.50000" stroke="green" stroke-width="0.04000"/>
    <line x1="92.90844" y1="85.97210" x2="67.09157" y2="96.40279" stroke="green" stroke-width="0.04000"/>
    <line x1="92.90844" y1="85.86424" x2="67.09157" y2="96.29494" stroke="green" stroke-width="0.04000"/>
    <line x1="92.90844" y1="85.75639" x2="67.09157" y2="96.18708" stroke="green" stroke-width="0.04000"/>
    <line x1="92.90844" y1="85.64854" x2="67.09157" y2="96.07922" stroke="green" stroke-width="0.04000"/>
    <line x1="92.90844" y1="85.54068" x2="67.09157" y2="95.97137" stroke="green" stroke-width="0.04000"/>
    <line x1="92.90844" y1="85.43283" x2="67.09157" y2="95.86353" stroke="green" stroke-width="0.04000"/>
    <line x1="92.90844" y1="85.32497" x2="67.09157" y2="95.75567" stroke="green" stroke-width="0.04000"/>
    <line x1="92.90844" y1="85.21712" x2="67.09157" y2="95.64781" stroke="green" stroke-width="0.04000"/>
    <line x1="92.90844" y1="85.10926" x2="67.09157" y2="95.53996" stroke="green" stroke-width="0.04000"/>
    <line x1="92.90844" y1="85.00141" x2="67.09157" y2="95.43211" stroke="green" stroke-width="0.04000"/>
    <line x1="92.90844" y1="84.89356" x2="67.09157" y2="95.32426" stroke="green" stroke-width="0.04000"/>
    <line x1="92.90844" y1="84.78571" x2="67.09157" y2="95.21640" stroke="green" stroke-width="0.04000"/>
    <line x1="92.90844" y1="84.67785" x2="67.09157" y2="95.10854" stroke="green" stroke-width="0.04000"/>
    <line x1="92.90844" y1="84.57000" x2="67.09157" y2="95.00069" stroke="green" stroke-width="0.04000"/>
    <line x1="92.90844" y1="84.46215" x2="67.09157" y2="94.89285" stroke="green" stroke-width="0.04000"/>
    <line x1="92.90844" y1="84.35429" x2="67.09157" y2="94.78499" stroke="green" stroke-width="0.04000"/>
    <line x1="92.90844" y1="84.24644" x2="67.09157" y2="94.67713" stroke="green" stroke-width="0.04000"/>
    <line x1="92.90844" y1="84.13858" x2="67.09157" y2="94.56927" stroke="green" stroke-width="0.04000"/>
    <line x1="92.90844" y1="84.03073" x2="67.09157" y2="94.46143" stroke="green" stroke-width="0.04000"/>
    <line x1="92.90844" y1="83.92288" x2="67.09157" y2="94.35358" stroke="green" stroke-width="0.04000"/>
    <line x1="92.90844" y1="83.81503" x2="67.09157" y2="94.24572" stroke="green" stroke-width="0.04000"/>
    <line x1="92.90844" y1="83.70717" x2="67.09157" y2="94.13786" stroke="green" stroke-width="0.04000"/>
    <line x1="92.90844" y1="83.59931" x2="67.09157" y2="94.03001" stroke="green" stroke-width="0.04000"/>
    <line x1="92.90844" y1="83.49146" x2="67.09157" y2="93.92216" stroke="green" stroke-width="0.04000"/>
    <line x1="92.90844" y1="83.38361" x2="67.09157" y2="93.81431" stroke="green" stroke-width="0.04000"/>
    <line x1="92.90844" y1="83.27576" x2="67.09157" y2="93.70645" stroke="green" stroke-width="0.04000"/>
    <line x1="92.90844" y1="83.16790" x2="67.09157" y2="93.59859" stroke="green" stroke-width="0.04000"/>
    <line x1="92.90844" y1="83.06005" x2="67.09157" y2="93.49075" stroke="green" stroke-width="0.04000"/>
    <line x1="92.90844" y1="82.95220" x2="67.09157" y2="93.38290" stroke="green" stroke-width="0.04000"/>
    <line x1="92.90844" y1="82.84435" x2="67.09157" y2="93.27504" stroke="green" stroke-width="0.04000"/>
    <line x1="92.90844" y1="82.73649" x2="67.09157" y2="93.16718" stroke="green" stroke-width="0.04000"/>
    <line x1="92.90844" y1="82.62863" x2="67.09157" y2="93.05933" stroke="green" stroke-width="0.04000"/>
    <line x1="92.90844" y1="82.52078" x2="67.09157" y2="92.95148" stroke="green" stroke-width="0.04000"/>
    <line x1="92.90844" y1="82.41293" x2="67.09157" y2="92.84363" stroke="green" stroke-width="0.04000"/>
    <line x1="92.90844" y1="82.30508" x2="67.09157" y2="92.73577" stroke="green" stroke-width="0.04000"/>
    <line x1="92.90844" y1="82.19722" x2="67.09157" y2="92.62791" stroke="green" stroke-width="0.04000"/>
    <line x1="92.90844" y1="82.08936" x2="67.09157" y2="92.52006" stroke="green" stroke-width="0.04000"/>
    <line x1="92.90844" y1="81.98152" x2="67.09157" y2="92.41222" stroke="green" stroke-width="0.04000"/>
    <line x1="92.90844" y1="81.87366" x2="67.09157" y2="92.30436" stroke="green" stroke-width="0.04000"/>
    <line x1="92.90844" y1="81.76581" x2="67.09157" y2="92.19650" stroke="green" stroke-width="0.04000"/>
    <line x1="92.90844" y1="81.65795" x2="67.09157" y2="92.08865" stroke="green" stroke-width="0.04000"/>
    <line x1="92.90844" y1="81.55010" x2="67.09157" y2="91.98080" stroke="green" stroke-width="0.04000"/>
    <line x1="92.90844" y1="81.44225" x2="67.09157" y2="91.87295" stroke="green" stroke-width="0.04000"/>
    <line x1="92.90844" y1="81.33440" x2="67.09157" y2="91.76509" stroke="green" stroke-width="0.04000"/>
    <line x1="92.90844" y1="81.22654" x2="67.09157" y2="91.65723" stroke="green" stroke-width="0.04000"/>
    <line x1="92.90844" y1="81.11869" x2="67.09157" y2="91.54938" stroke="green" stroke-width="0.04000"/>
    <line x1="92.90844" y1="81.01083" x2="67.09157" y2="91.44153" stroke="green" stroke-width="0.04000"/>
    <line x1="92.90844" y1="80.90298" x2="67.09157" y2="91.33368" stroke="green" stroke-width="0.04000"/>
    <line x1="92.90844" y1="80.79513" x2="67.09157" y2="91.22582" stroke="green" stroke-width="0.04000"/>
    <line x1="92.90844" y1="80.68728" x2="67.09157" y2="91.11797" stroke="green" stroke-width="0.04000"/>
    <line x1="92.90844" y1="80.57942" x2="67.09157" y2="91.01012" stroke="green" stroke-width="0.04000"/>
    <line x1="92.90844" y1="80.47157" x2="67.09157" y2="90.90227" stroke="green" stroke-width="0.04000"/>
    <line x1="92.90844" y1="80.36372" x2="67.09157" y2="90.79441" stroke="green" stroke-width="0.04000"/>
    <line x1="92.90844" y1="80.25586" x2="67.09157" y2="90.68655" stroke="green" stroke-width="0.04000"/>
    <line x1="92.90844" y1="80.14800" x2="67.09157" y2="90.57870" stroke="green" stroke-width="0.04000"/>
    <line x1="92.90844" y1="80.04015" x2="67.09157" y2="90.47085" stroke="green" stroke-width="0.04000"/>
    <line x1="92.90844" y1="79.93230" x2="67.09157" y2="90.36300" stroke="green" stroke-width="0.04000"/>
    <line x1="92.90844" y1="79.82445" x2="67.09157" y2="90.25514" stroke="green" stroke-width="0.04000"/>
    <line x1="92.90844" y1="79.71659" x2="67.09157" y2="90.14729" stroke="green" stroke-width="0.04000"/>
    <line x1="92.90844" y1="79.60874" x2="67.09157" y2="90.03944" stroke="green" stroke-width="0.04000"/>
    <line x1="92.90844" y1="79.50089" x2="67.09157" y2="89.93158" stroke="green" stroke-width="0.04000"/>
    <line x1="92.90844" y1="79.39304" x2="67.09157" y2="89.82373" stroke="green" stroke-width="0.04000"/>
    <line x1="92.90844" y1="79.28518" x2="67.09157" y2="89.71587" stroke="green" stroke-width="0.04000"/>
    <line x1="92.90844" y1="79.17732" x2="67.09157" y2="89.60802" stroke="green" stroke-width="0.04000"/>
    <line x1="92.90844" y1="79.06947" x2="67.09157" y2="89.50016" stroke="green" stroke-width="0.04000"/>
    <line x1="92.90844" y1="78.96162" x2="67.09157" y2="89.39232" stroke="green" stroke-width="0.04000"/>
    <line x1="92.90844" y1="78.85377" x2="67.09157" y2="89.28446" stroke="green" stroke-width="0.04000"/>
    <line x1="92.90844" y1="78.74591" x2="67.09157" y2="89.17661" stroke="green" stroke-width="0.04000"/>
    <line x1="92.90844" y1="78.63806" x2="67.09157" y2="89.06875" stroke="green" stroke-width="0.04000"/>
    <line x1="92.90844" y1="78.53020" x2="67.09157" y2="88.96090" stroke="green" stroke-width="0.04000"/>
    <line x1="92.90844" y1="78.42236" x2="67.09157" y2="88.85305" stroke="green" stroke-width="0.04000"/>
    <line x1="92.90844" y1="78.31450" x2="67.09157" y2="88.74519" stroke="green" stroke-width="0.04000"/>
    <line x1="92.90844" y1="78.20665" x2="67.09157" y2="88.63734" stroke="green" stroke-width="0.04000"/>
    <line x1="92.90844" y1="78.09879" x2="67.09157" y2="88.52949" stroke="green" stroke-width="0.04000"/>
    <line x1="92.90844" y1="77.99094" x2="67.09157" y2="88.42163" stroke="green" stroke-width="0.04000"/>
    <line x1="92.90844" y1="77.88309" x2="67.09157" y2="88.31378" stroke="green" stroke-width="0.04000"/>
    <line x1="92.90844" y1="77.77523" x2="67.09157" y2="88.20592" stroke="green" stroke-width="0.04000"/>
    <line x1="92.90844" y1="77.66737" x2="67.09157" y2="88.09807" stroke="green" stroke-width="0.04000"/>
    <line x1="92.90844" y1="77.55952" x2="67.09157" y2="87.99021" stroke="green" stroke-width="0.04000"/>
    <line x1="92.90844" y1="77.45167" x2="67.09157" y2="87.88236" stroke="green" stroke-width="0.04000"/>
    <line x1="92.90844" y1="77.34382" x2="67.09157" y2="87.77451" stroke="green" stroke-width="0.04000"/>
    <line x1="92.90844" y1="77.23596" x2="67.09157" y2="87.66666" stroke="green" stroke-width="0.04000"/>
    <line x1="92.90844" y1="77.12811" x2="67.09157" y2="87.55880" stroke="green" stroke-width="0.04000"/>
    <line x1="92.90844" y1="77.02026" x2="67.09157" y2="87.45095" stroke="green" stroke-width="0.04000"/>
    <line x1="92.90844" y1="76.91241" x2="67.09157" y2="87.34310" stroke="green" stroke-width="0.04000"/>
    <line x1="92.90844" y1="76.80455" x2="67.09157" y2="87.23524" stroke="green" stroke-width="0.04000"/>
    <line x1="92.90844" y1="76.69669" x2="67.09157" y2="87.12739" stroke="green" stroke-width="0.04000"/>
    <line x1="92.90844" y1="76.58884" x2="67.09157" y2="87.01953" stroke="green" stroke-width="0.04000"/>
    <line x1="92.90844" y1="76.48099" x2="67.09157" y2="86.91168" stroke="green" stroke-width="0.04000"/>
    <line x1="92.90844" y1="76.37314" x2="67.09157" y2="86.80383" stroke="green" stroke-width="0.04000"/>
    <line x1="92.90844" y1="76.26528" x2="67.09157" y2="86.69598" stroke="green" stroke-width="0.04000"/>
    <line x1="92.90844" y1="76.15743" x2="67.09157" y2="86.58812" stroke="green" stroke-width="0.04000"/>
    <line x1="92.90844" y1="76.04958" x2="67.09157" y2="86.48027" stroke="green" stroke-width="0.04000"/>
    <line x1="92.90844" y1="75.94173" x2="67.09157" y2="86.37242" stroke="green" stroke-width="0.04000"/>
    <line x1="92.90844" y1="75.83387" x2="67.09157" y2="86.26456" stroke="green" stroke-width="0.04000"/>
    <line x1="92.90844" y1="75.72601" x2="67.09157" y2="86.15671" stroke="green" stroke-width="0.04000"/>
    <line x1="92.90844" y1="75.61816" x2="67.09157" y2="86.04886" stroke="green" stroke-width="0.04000"/>
    <line x1="92.90844" y1="75.51031" x2="67.09157" y2="85.94100" stroke="green" stroke-width="0.04000"/>
    <line x1="92.90844" y1="75.40245" x2="67.09157" y2="85.83315" stroke="green" stroke-width="0.04000"/>
    <line x1="92.90844" y1="75.29460" x2="67.09157" y2="85.72530" stroke="green" stroke-width="0.04000"/>
    <line x1="92.90844" y1="75.18674" x2="67.09157" y2="85.61744" stroke="green" stroke-width="0.04000"/>
    <line x1="92.90844" y1="75.07890" x2="67.09157" y2="85.50958" stroke="green" stroke-width="0.04000"/>
    <line x1="92.90844" y1="74.97104" x2="67.09157" y2="85.40173" stroke="green" stroke-width="0.04000"/>
    <line x1="92.90844" y1="74.86319" x2="67.09157" y2="85.29388" stroke="green" stroke-width="0.04000"/>
    <line x1="92.90844" y1="74.75533" x2="67.09157" y2="85.18603" stroke="green" stroke-width="0.04000"/>
    <line x1="92.90844" y1="74.64748" x2="67.09157" y2="85.07817" stroke="green" stroke-width="0.04000"/>
    <line x1="92.90844" y1="74.53963" x2="67.09157" y2="84.97032" stroke="green" stroke-width="0.04000"/>
    <line x1="92.90844" y1="74.43177" x2="67.09157" y2="84.86247" stroke="green" stroke-width="0.04000"/>
    <line x1="92.90844" y1="74.32392" x2="67.09157" y2="84.75462" stroke="green" stroke-width="0.04000"/>
    <line x1="92.90844" y1="74.21606" x2="67.09157" y2="84.64676" stroke="green" stroke-width="0.04000"/>
    <line x1="92.90844" y1="74.10822" x2="67.09157" y2="84.53890" stroke="green" stroke-width="0.04000"/>
    <line x1="92.90844" y1="74.00036" x2="67.09157" y2="84.43105" stroke="green" stroke-width="0.04000"/>
    <line x1="92.90844" y1="73.89251" x2="67.09157" y2="84.32320" stroke="green" stroke-width="0.04000"/>
    <line x1="92.90844" y1="73.78465" x2="67.09157" y2="84.21535" stroke="green" stroke-width="0.04000"/>
    <line x1="92.90844" y1="73.67680" x2="67.09157" y2="84.10749" stroke="green" stroke-width="0.04000"/>
    <line x1="92.90844" y1="73.56895" x2="67.09157" y2="83.99963" stroke="green" stroke-width="0.04000"/>
    <line x1="92.90844" y1="73.46109" x2="67.09157" y2="83.89178" stroke="green" stroke-width="0.04000"/>
    <line x1="92.90844" y1="73.35324" x2="67.09157" y2="83.78394" stroke="green" stroke-width="0.04000"/>
    <line x1="92.90844" y1="73.24538" x2="67.09157" y2="83.67608" stroke="green" stroke-width="0.04000"/>
    <line x1="92.90844" y1="73.13754" x2="67.09157" y2="83.56822" stroke="green" stroke-width="0.04000"/>
    <line x1="92.90844" y1="73.02968" x2="67.09157" y2="83.46037" stroke="green" stroke-width="0.04000"/>
    <line x1="92.90844" y1="72.92182" x2="67.09157" y2="83.35252" stroke="green" stroke-width="0.04000"/>
    <line x1="92.90844" y1="72.81397" x2="67.09157" y2="83.24467" stroke="green" stroke-width="0.04000"/>
    <line x1="92.90844" y1="72.70612" x2="67.09157" y2="83.13681" stroke="green" stroke-width="0.04000"/>
    <line x1="92.90844" y1="72.59826" x2="67.09157" y2="83.02895" stroke="green" stroke-width="0.04000"/>
    <line x1="92.90844" y1="72.49041" x2="67.09157" y2="82.92110" stroke="green" stroke-width="0.04000"/>
    <line x1="92.90844" y1="72.38256" x2="67.09157" y2="82.81326" stroke="green" stroke-width="0.04000"/>
    <line x1="92.90844" y1="72.27470" x2="67.09157" y2="82.70540" stroke="green" stroke-width="0.04000"/>
    <line x1="92.90844" y1="72.16685" x2="67.09157" y2="82.59754" stroke="green" stroke-width="0.04000"/>
    <line x1="92.90844" y1="72.05900" x2="67.09157" y2="82.48969" stroke="green" stroke-width="0.04000"/>
    <line x1="92.90844" y1="71.95114" x2="67.09157" y2="82.38184" stroke="green" stroke-width="0.04000"/>
    <line x1="92.90844" y1="71.84329" x2="67.09157" y2="82.27399" stroke="green" stroke-width="0.04000"/>
    <line x1="92.90844" y1="71.73544" x2="67.09157" y2="82.16613" stroke="green" stroke-width="0.04000"/>
    <line x1="92.90844" y1="71.62758" x2="67.09157" y2="82.05827" stroke="green" stroke-width="0.04000"/>
    <line x1="92.90844" y1="71.51973" x2="67.09157" y2="81.95042" stroke="green" stroke-width="0.04000"/>
    <line x1="92.90844" y1="71.41188" x2="67.09157" y2="81.84258" stroke="green" stroke-width="0.04000"/>
    <line x1="92.90844" y1="71.30402" x2="67.09157" y2="81.73472" stroke="green" stroke-width="0.04000"/>
    <line x1="92.90844" y1="71.19617" x2="67.09157" y2="81.62686" stroke="green" stroke-width="0.04000"/>
    <line x1="92.90844" y1="71.08832" x2="67.09157" y2="81.51900" stroke="green" stroke-width="0.04000"/>
    <line x1="92.90844" y1="70.98046" x2="67.09157" y2="81.41116" stroke="green" stroke-width="0.04000"/>
    <line x1="92.90844" y1="70.87261" x2="67.09157" y2="81.30331" stroke="green" stroke-width="0.04000"/>
    <line x1="92.90844" y1="70.76476" x2="67.09157" y2="81.19545" stroke="green" stroke-width="0.04000"/>
    <line x1="92.90844" y1="70.65690" x2="67.09157" y2="81.08759" stroke="green" stroke-width="0.04000"/>
    <line x1="92.90844" y1="70.54904" x2="67.09157" y2="80.97974" stroke="green" stroke-width="0.04000"/>
    <line x1="92.90844" y1="70.44119" x2="67.09157" y2="80.87189" stroke="green" stroke-width="0.04000"/>
    <line x1="92.90844" y1="70.33334" x2="67.09157" y2="80.76404" stroke="green" stroke-width="0.04000"/>
    <line x1="92.90844" y1="70.22549" x2="67.09157" y2="80.65618" stroke="green" stroke-width="0.04000"/>
    <line x1="92.90844" y1="70.11763" x2="67.09157" y2="80.54832" stroke="green" stroke-width="0.04000"/>
    <line x1="92.90844" y1="70.00978" x2="67.09157" y2="80.44048" stroke="green" stroke-width="0.04000"/>
    <line x1="92.90844" y1="69.90192" x2="67.09157" y2="80.33262" stroke="green" stroke-width="0.04000"/>
    <line x1="92.90844" y1="69.79408" x2="67.09157" y2="80.22477" stroke="green" stroke-width="0.04000"/>
    <line x1="92.90844" y1="69.68622" x2="67.09157" y2="80.11691" stroke="green" stroke-width="0.04000"/>
    <line x1="92.90844" y1="69.57836" x2="67.09157" y2="80.00906" stroke="green" stroke-width="0.04000"/>
    <line x1="92.90844" y1="69.47051" x2="67.09157" y2="79.90121" stroke="green" stroke-width="0.04000"/>
    <line x1="92.90844" y1="69.36266" x2="67.09157" y2="79.79336" stroke="green" stroke-width="0.04000"/>
    <line x1="92.90844" y1="69.25481" x2="67.09157" y2="79.68550" stroke="green" stroke-width="0.04000"/>
    <line x1="92.90844" y1="69.14695" x2="67.09157" y2="79.57764" stroke="green" stroke-width="0.04000"/>
    <line x1="92.90844" y1="69.03910" x2="67.09157" y2="79.46979" stroke="green" stroke-width="0.04000"/>
    <line x1="92.90844" y1="68.93124" x2="67.09157" y2="79.36194" stroke="green" stroke-width="0.04000"/>
    <line x1="92.90844" y1="68.82339" x2="67.09157" y2="79.25409" stroke="green" stroke-width="0.04000"/>
    <line x1="92.90844" y1="68.71554" x2="67.09157" y2="79.14623" stroke="green" stroke-width="0.04000"/>
    <line x1="92.90844" y1="68.60768" x2="67.09157" y2="79.03838" stroke="green" stroke-width="0.04000"/>
    <line x1="92.90844" y1="68.49983" x2="67.09157" y2="78.93053" stroke="green" stroke-width="0.04000"/>
    <line x1="92.90844" y1="68.39198" x2="67.09157" y2="78.82268" stroke="green" stroke-width="0.04000"/>
    <line x1="92.90844" y1="68.28413" x2="67.09157" y2="78.71482" stroke="green" stroke-width="0.04000"/>
    <line x1="92.90844" y1="68.17627" x2="67.09157" y2="78.60696" stroke="green" stroke-width="0.04000"/>
    <line x1="92.90844" y1="68.06842" x2="67.09157" y2="78.49911" stroke="green" stroke-width="0.04000"/>
    <line x1="92.90844" y1="67.96056" x2="67.09157" y2="78.39126" stroke="green" stroke-width="0.04000"/>
    <line x1="92.90844" y1="67.85271" x2="67.09157" y2="78.28340" stroke="green" stroke-width="0.04000"/>
    <line x1="92.90844" y1="67.74486" x2="67.09157" y2="78.17555" stroke="green" stroke-width="0.04000"/>
    <line x1="92.90844" y1="67.63701" x2="67.09157" y2="78.06770" stroke="green" stroke-width="0.04000"/>
    <line x1="92.90844" y1="67.52914" x2="67.09157" y2="77.95984" stroke="green" stroke-width="0.04000"/>
    <line x1="92.90844" y1="67.42130" x2="67.09157" y2="77.85199" stroke="green" stroke-width="0.04000"/>
    <line x1="92.90844" y1="67.31345" x2="67.09157" y2="77.74414" stroke="green" stroke-width="0.04000"/>
    <line x1="92.90844" y1="67.20559" x2="67.09157" y2="77.63628" stroke="green" stroke-width="0.04000"/>
    <line x1="92.90844" y1="67.09773" x2="67.09157" y2="77.52843" stroke="green" stroke-width="0.04000"/>
    <line x1="92.90844" y1="66.98988" x2="67.09157" y2="77.42057" stroke="green" stroke-width="0.04000"/>
    <line x1="92.90844" y1="66.88203" x2="67.09157" y2="77.31272" stroke="green" stroke-width="0.04000"/>
    <line x1="92.90844" y1="66.77417" x2="67.09157" y2="77.20487" stroke="green" stroke-width="0.04000"/>
    <line x1="92.90844" y1="66.66632" x2="67.09157" y2="77.09702" stroke="green" stroke-width="0.04000"/>
    <line x1="92.90844" y1="66.55847" x2="67.09157" y2="76.98916" stroke="green" stroke-width="0.04000"/>
    <line x1="92.90844" y1="66.45062" x2="67.09157" y2="76.88131" stroke="green" stroke-width="0.04000"/>
    <line x1="92.90844" y1="66.34276" x2="67.09157" y2="76.77346" stroke="green" stroke-width="0.04000"/>
    <line x1="92.90844" y1="66.23491" x2="67.09157" y2="76.66560" stroke="green" stroke-width="0.04000"/>
    <line x1="92.90844" y1="66.12706" x2="67.09157" y2="76.55775" stroke="green" stroke-width="0.04000"/>
    <line x1="92.90844" y1="66.01920" x2="67.09157" y2="76.44990" stroke="green" stroke-width="0.04000"/>
    <line x1="92.90844" y1="65.91135" x2="67.09157" y2="76.34205" stroke="green" stroke-width="0.04000"/>
    <line x1="92.90844" y1="65.80350" x2="67.09157" y2="76.23419" stroke="green" stroke-width="0.04000"/>
    <line x1="92.90844" y1="65.69565" x2="67.09157" y2="76.12634" stroke="green" stroke-width="0.04000"/>
    <line x1="92.90844" y1="65.58778" x2="67.09157" y2="76.01848" stroke="green" stroke-width="0.04000"/>
    <line x1="92.90844" y1="65.47993" x2="67.09157" y2="75.91063" stroke="green" stroke-width="0.04000"/>
    <line x1="92.90844" y1="65.37209" x2="67.09157" y2="75.80278" stroke="green" stroke-width="0.04000"/>
    <line x1="92.90844" y1="65.26422" x2="67.09157" y2="75.69492" stroke="green" stroke-width="0.04000"/>
    <line x1="92.90844" y1="65.15637" x2="67.09157" y2="75.58707" stroke="green" stroke-width="0.04000"/>
    <line x1="92.90844" y1="65.04852" x2="67.09157" y2="75.47921" stroke="green" stroke-width="0.04000"/>
    <line x1="92.90844" y1="64.94067" x2="67.09157" y2="75.37136" stroke="green" stroke-width="0.04000"/>
    <line x1="92.90844" y1="64.83281" x2="67.09157" y2="75.26351" stroke="green" stroke-width="0.04000"/>
    <line x1="92.90844" y1="64.72496" x2="67.09157" y2="75.15565" stroke="green" stroke-width="0.04000"/>
    <line x1="92.90844" y1="64.61711" x2="67.09157" y2="75.04780" stroke="green" stroke-width="0.04000"/>
    <line x1="92.90844" y1="64.50925" x2="67.09157" y2="74.93994" stroke="green" stroke-width="0.04000"/>
    <line x1="92.90844" y1="64.40140" x2="67.09157" y2="74.83209" stroke="green" stroke-width="0.04000"/>
    <line x1="92.90844" y1="64.29355" x2="67.09157" y2="74.72424" stroke="green" stroke-width="0.04000"/>
    <line x1="92.90844" y1="64.18569" x2="67.09157" y2="74.61639" stroke="green" stroke-width="0.04000"/>
    <line x1="92.90844" y1="64.07784" x2="67.09157" y2="74.50853" stroke="green" stroke-width="0.04000"/>
    <line x1="92.90844" y1="63.96999" x2="67.09157" y2="74.40068" stroke="green" stroke-width="0.04000"/>
    <line x1="92.90844" y1="63.86213" x2="67.09157" y2="74.29283" stroke="green" stroke-width="0.04000"/>
    <line x1="92.90844" y1="63.75428" x2="67.09157" y2="74.18497" stroke="green" stroke-width="0.04000"/>
    <line x1="92.90844" y1="63.64643" x2="67.09157" y2="74.07712" stroke="green" stroke-width="0.04000"/>
    <line x1="92.90844" y1="63.53857" x2="67.09157" y2="73.96926" stroke="green" stroke-width="0.04000"/>
    <line x1="92.90844" y1="63.43072" x2="67.09157" y2="73.86142" stroke="green" stroke-width="0.04000"/>
    <line x1="92.90844" y1="63.32286" x2="67.09157" y2="73.75356" stroke="green" stroke-width="0.04000"/>
    <line x1="92.90844" y1="63.21501" x2="67.09157" y2="73.64571" stroke="green" stroke-width="0.04000"/>
    <line x1="92.90844" y1="63.10715" x2="67.09157" y2="73.53785" stroke="green" stroke-width="0.04000"/>
    <line x1="92.90844" y1="62.99930" x2="67.09157" y2="73.42999" stroke="green" stroke-width="0.04000"/>
    <line x1="92.90844" y1="62.89145" x2="67.09157" y2="73.32214" stroke="green" stroke-width="0.04000"/>
    <line x1="92.90844" y1="62.78360" x2="67.09157" y2="73.21429" stroke="green" stroke-width="0.04000"/>
    <line x1="92.90844" y1="62.67574" x2="67.09157" y2="73.10644" stroke="green" stroke-width="0.04000"/>
    <line x1="92.90844" y1="62.56789" x2="67.09157" y2="72.99858" stroke="green" stroke-width="0.04000"/>
    <line x1="92.90844" y1="62.46004" x2="67.09157" y2="72.89073" stroke="green" stroke-width="0.04000"/>
    <line x1="92.90844" y1="62.35218" x2="67.09157" y2="72.78288" stroke="green" stroke-width="0.04000"/>
    <line x1="92.90844" y1="62.24433" x2="67.09157" y2="72.67503" stroke="green" stroke-width="0.04000"/>
    <line x1="92.90844" y1="62.13647" x2="67.09157" y2="72.56717" stroke="green" stroke-width="0.04000"/>
    <line x1="92.90844" y1="62.02862" x2="67.09157" y2="72.45931" stroke="green" stroke-width="0.04000"/>
    <line x1="92.90844" y1="61.92077" x2="67.09157" y2="72.35146" stroke="green" stroke-width="0.04000"/>
    <line x1="92.90844" y1="61.81292" x2="67.09157" y2="72.24361" stroke="green" stroke-width="0.04000"/>
    <line x1="92.90844" y1="61.70506" x2="67.09157" y2="72.13576" stroke="green" stroke-width="0.04000"/>
    <line x1="92.90844" y1="61.59721" x2="67.09157" y2="72.02790" stroke="green" stroke-width="0.04000"/>
    <line x1="92.88209" y1="61.50000" x2="67.09157" y2="71.92004" stroke="green" stroke-width="0.04000"/>
    <line x1="92.61515" y1="61.50000" x2="67.09157" y2="71.81220" stroke="green" stroke-width="0.04000"/>
    <line x1="92.34821" y1="61.50000" x2="67.09157" y2="71.70435" stroke="green" stroke-width="0.04000"/>
    <line x1="92.08125" y1="61.50000" x2="67.09157" y2="71.59649" stroke="green" stroke-width="0.04000"/>
    <line x1="91.81431" y1="61.50000" x2="67.09157" y2="71.48863" stroke="green" stroke-width="0.04000"/>
    <line x1="91.54737" y1="61.50000" x2="67.09157" y2="71.38078" stroke="green" stroke-width="0.04000"/>
    <line x1="91.28042" y1="61.50000" x2="67.09157" y2="71.27293" stroke="green" stroke-width="0.04000"/>
    <line x1="91.01347" y1="61.50000" x2="67.09157" y2="71.16508" stroke="green" stroke-width="0.04000"/>
    <line x1="90.74652" y1="61.50000" x2="67.09157" y2="71.05722" stroke="green" stroke-width="0.04000"/>
    <line x1="90.47957" y1="61.50000" x2="67.09157" y2="70.94936" stroke="green" stroke-width="0.04000"/>
    <line x1="90.21263" y1="61.50000" x2="67.09157" y2="70.84151" stroke="green" stroke-width="0.04000"/>
    <line x1="89.94568" y1="61.50000" x2="67.09157" y2="70.73367" stroke="green" stroke-width="0.04000"/>
    <line x1="89.67873" y1="61.50000" x2="67.09157" y2="70.62581" stroke="green" stroke-width="0.04000"/>
    <line x1="89.41178" y1="61.50000" x2="67.09157" y2="70.51795" stroke="green" stroke-width="0.04000"/>
    <line x1="89.14484" y1="61.50000" x2="67.09157" y2="70.41010" stroke="green" stroke-width="0.04000"/>
    <line x1="88.87789" y1="61.50000" x2="67.09157" y2="70.30225" stroke="green" stroke-width="0.04000"/>
    <line x1="88.61095" y1="61.50000" x2="67.09157" y2="70.19440" stroke="green" stroke-width="0.04000"/>
    <line x1="88.34400" y1="61.50000" x2="67.09157" y2="70.08654" stroke="green" stroke-width="0.04000"/>
    <line x1="88.07705" y1="61.50000" x2="67.09157" y2="69.97868" stroke="green" stroke-width="0.04000"/>
    <line x1="87.81011" y1="61.50000" x2="67.09157" y2="69.87083" stroke="green" stroke-width="0.04000"/>
    <line x1="87.54316" y1="61.50000" x2="67.09157" y2="69.76298" stroke="green" stroke-width="0.04000"/>
    <line x1="87.27621" y1="61.50000" x2="67.09157" y2="69.65513" stroke="green" stroke-width="0.04000"/>
    <line x1="87.00926" y1="61.50000" x2="67.09157" y2="69.54727" stroke="green" stroke-width="0.04000"/>
    <line x1="86.74232" y1="61.50000" x2="67.09157" y2="69.43941" stroke="green" stroke-width="0.04000"/>
    <line x1="86.47538" y1="61.50000" x2="67.09157" y2="69.33157" stroke="green" stroke-width="0.04000"/>
    <line x1="86.20843" y1="61.50000" x2="67.09157" y2="69.22372" stroke="green" stroke-width="0.04000"/>
    <line x1="85.94148" y1="61.50000" x2="67.09157" y2="69.11586" stroke="green" stroke-width="0.04000"/>
    <line x1="85.67453" y1="61.50000" x2="67.09157" y2="69.00800" stroke="green" stroke-width="0.04000"/>
    <line x1="85.40759" y1="61.50000" x2="67.09157" y2="68.90015" stroke="green" stroke-width="0.04000"/>
    <line x1="85.14064" y1="61.50000" x2="67.09157" y2="68.79230" stroke="green" stroke-width="0.04000"/>
    <line x1="84.87370" y1="61.50000" x2="67.09157" y2="68.68445" stroke="green" stroke-width="0.04000"/>
    <line x1="84.60674" y1="61.50000" x2="67.09157" y2="68.57659" stroke="green" stroke-width="0.04000"/>
    <line x1="84.33979" y1="61.50000" x2="67.09157" y2="68.46873" stroke="green" stroke-width="0.04000"/>
    <line x1="84.07285" y1="61.50000" x2="67.09157" y2="68.36089" stroke="green" stroke-width="0.04000"/>
    <line x1="83.80591" y1="61.50000" x2="67.09157" y2="68.25304" stroke="green" stroke-width="0.04000"/>
    <line x1="83.53896" y1="61.50000" x2="67.09157" y2="68.14518" stroke="green" stroke-width="0.04000"/>
    <line x1="83.27201" y1="61.50000" x2="67.09157" y2="68.03732" stroke="green" stroke-width="0.04000"/>
    <line x1="83.00506" y1="61.50000" x2="67.09157" y2="67.92947" stroke="green" stroke-width="0.04000"/>
    <line x1="82.73812" y1="61.50000" x2="67.09157" y2="67.82162" stroke="green" stroke-width="0.04000"/>
    <line x1="82.47117" y1="61.50000" x2="67.09157" y2="67.71376" stroke="green" stroke-width="0.04000"/>
    <line x1="82.20422" y1="61.50000" x2="67.09157" y2="67.60591" stroke="green" stroke-width="0.04000"/>
    <line x1="81.93728" y1="61.50000" x2="67.09157" y2="67.49805" stroke="green" stroke-width="0.04000"/>
    <line x1="81.67034" y1="61.50000" x2="67.09157" y2="67.39021" stroke="green" stroke-width="0.04000"/>
    <line x1="81.40339" y1="61.50000" x2="67.09157" y2="67.28235" stroke="green" stroke-width="0.04000"/>
    <line x1="81.13644" y1="61.50000" x2="67.09157" y2="67.17450" stroke="green" stroke-width="0.04000"/>
    <line x1="80.86949" y1="61.50000" x2="67.09157" y2="67.06664" stroke="green" stroke-width="0.04000"/>
    <line x1="80.60254" y1="61.50000" x2="67.09157" y2="66.95879" stroke="green" stroke-width="0.04000"/>
    <line x1="80.33560" y1="61.50000" x2="67.09157" y2="66.85094" stroke="green" stroke-width="0.04000"/>
    <line x1="80.06865" y1="61.50000" x2="67.09157" y2="66.74309" stroke="green" stroke-width="0.04000"/>
    <line x1="79.80170" y1="61.50000" x2="67.09157" y2="66.63523" stroke="green" stroke-width="0.04000"/>
    <line x1="79.53476" y1="61.50000" x2="67.09157" y2="66.52737" stroke="green" stroke-width="0.04000"/>
    <line x1="79.26781" y1="61.50000" x2="67.09157" y2="66.41953" stroke="green" stroke-width="0.04000"/>
    <line x1="79.00087" y1="61.50000" x2="67.09157" y2="66.31168" stroke="green" stroke-width="0.04000"/>
    <line x1="78.73392" y1="61.50000" x2="67.09157" y2="66.20381" stroke="green" stroke-width="0.04000"/>
    <line x1="78.46697" y1="61.50000" x2="67.09157" y2="66.09596" stroke="green" stroke-width="0.04000"/>
    <line x1="78.20002" y1="61.50000" x2="67.09157" y2="65.98811" stroke="green" stroke-width="0.04000"/>
    <line x1="77.93308" y1="61.50000" x2="67.09157" y2="65.88026" stroke="green" stroke-width="0.04000"/>
    <line x1="77.66613" y1="61.50000" x2="67.09157" y2="65.77240" stroke="green" stroke-width="0.04000"/>
    <line x1="77.39918" y1="61.50000" x2="67.09157" y2="65.66455" stroke="green" stroke-width="0.04000"/>
    <line x1="77.13223" y1="61.50000" x2="67.09157" y2="65.55669" stroke="green" stroke-width="0.04000"/>
    <line x1="76.86529" y1="61.50000" x2="67.09157" y2="65.44884" stroke="green" stroke-width="0.04000"/>
    <line x1="76.59835" y1="61.50000" x2="67.09157" y2="65.34099" stroke="green" stroke-width="0.04000"/>
    <line x1="76.33140" y1="61.50000" x2="67.09157" y2="65.23314" stroke="green" stroke-width="0.04000"/>
    <line x1="76.06445" y1="61.50000" x2="67.09157" y2="65.12528" stroke="green" stroke-width="0.04000"/>
    <line x1="75.79750" y1="61.50000" x2="67.09157" y2="65.01743" stroke="green" stroke-width="0.04000"/>
    <line x1="75.53056" y1="61.50000" x2="67.09157" y2="64.90958" stroke="green" stroke-width="0.04000"/>
    <line x1="75.26361" y1="61.50000" x2="67.09157" y2="64.80173" stroke="green" stroke-width="0.04000"/>
    <line x1="74.99666" y1="61.50000" x2="67.09157" y2="64.69386" stroke="green" stroke-width="0.04000"/>
    <line x1="74.72972" y1="61.50000" x2="67.09157" y2="64.58601" stroke="green" stroke-width="0.04000"/>
    <line x1="74.46277" y1="61.50000" x2="67.09157" y2="64.47816" stroke="green" stroke-width="0.04000"/>
    <line x1="74.19583" y1="61.50000" x2="67.09157" y2="64.37031" stroke="green" stroke-width="0.04000"/>
    <line x1="73.92888" y1="61.50000" x2="67.09157" y2="64.26245" stroke="green" stroke-width="0.04000"/>
    <line x1="73.66193" y1="61.50000" x2="67.09157" y2="64.15460" stroke="green" stroke-width="0.04000"/>
    <line x1="73.39498" y1="61.50000" x2="67.09157" y2="64.04675" stroke="green" stroke-width="0.04000"/>
    <line x1="73.12804" y1="61.50000" x2="67.09157" y2="63.93889" stroke="green" stroke-width="0.04000"/>
    <line x1="72.86109" y1="61.50000" x2="67.09157" y2="63.83104" stroke="green" stroke-width="0.04000"/>
    <line x1="72.59415" y1="61.50000" x2="67.09157" y2="63.72319" stroke="green" stroke-width="0.04000"/>
    <line x1="72.32719" y1="61.50000" x2="67.09157" y2="63.61533" stroke="green" stroke-width="0.04000"/>
    <line x1="72.06024" y1="61.50000" x2="67.09157" y2="63.50748" stroke="green" stroke-width="0.04000"/>
    <line x1="71.79330" y1="61.50000" x2="67.09157" y2="63.39963" stroke="green" stroke-width="0.04000"/>
    <line x1="71.52636" y1="61.50000" x2="67.09157" y2="63.29177" stroke="green" stroke-width="0.04000"/>
    <line x1="71.25941" y1="61.50000" x2="67.09157" y2="63.18392" stroke="green" stroke-width="0.04000"/>
    <line x1="70.99246" y1="61.50000" x2="67.09157" y2="63.07607" stroke="green" stroke-width="0.04000"/>
    <line x1="70.72551" y1="61.50000" x2="67.09157" y2="62.96821" stroke="green" stroke-width="0.04000"/>
    <line x1="70.45857" y1="61.50000" x2="67.09157" y2="62.86036" stroke="green" stroke-width="0.04000"/>
    <line x1="70.19163" y1="61.50000" x2="67.09157" y2="62.75251" stroke="green" stroke-width="0.04000"/>
    <line x1="69.92467" y1="61.50000" x2="67.09157" y2="62.64465" stroke="green" stroke-width="0.04000"/>
    <line x1="69.65773" y1="61.50000" x2="67.09157" y2="62.53680" stroke="green" stroke-width="0.04000"/>
    <line x1="69.39078" y1="61.50000" x2="67.09157" y2="62.42894" stroke="green" stroke-width="0.04000"/>
    <line x1="69.12384" y1="61.50000" x2="67.09157" y2="62.32109" stroke="green" stroke-width="0.04000"/>
    <line x1="68.85689" y1="61.50000" x2="67.09157" y2="62.21324" stroke="green" stroke-width="0.04000"/>
    <line x1="68.58994" y1="61.50000" x2="67.09157" y2="62.10538" stroke="green" stroke-width="0.04000"/>
    <line x1="68.32299" y1="61.50000" x2="67.09157" y2="61.99753" stroke="green" stroke-width="0.04000"/>
    <line x1="68.05606" y1="61.50000" x2="67.09157" y2="61.88968" stroke="green" stroke-width="0.04000"/>
    <line x1="67.78911" y1="61.50000" x2="67.09157" y2="61.78182" stroke="green" stroke-width="0.04000"/>
    <line x1="67.52216" y1="61.50000" x2="67.09157" y2="61.67397" stroke="green" stroke-width="0.04000"/>
    <line x1="67.25521" y1="61.50000" x2="67.09157" y2="61.56612" stroke="green" stroke-width="0.04000"/>
    <path d="M 92.9084 96.5 L 67.0916 96.5 L 67.0916 61.5 L 92.9084 61.5 L 92.9084 96.5" fill="none" stroke="blue" stroke-width="0.04000" fill-rule="evenodd" fill-opacity="1.000"/>
  </g>
</svg>
