<?xml version="1.0" encoding="UTF-8" standalone="yes"?>
<svg xmlns="http://www.w3.org/2000/svg"
     xmlns:xlink="http://www.w3.org/1999/xlink"
     width="2020.0000mm" height="1600.0000mm"
     viewBox="0 0 202.000000 160.000000">
  <!--
    Build plate : 150.00 x 150.00 mm
    Coordinate  : 1 SVG unit = 1 mm
    Display zoom: 10x  (width/height = viewBox x 10)
    Hatch stroke: 0.04 mm = ~28 mm on screen at this zoom
    Legend panel: right margin (42 mm wide)
  -->
  <defs>
    <marker id="endArrow" markerWidth="2" markerHeight="1.4"
            refX="0" refY="0.7" orient="auto"
            markerUnits="strokeWidth">
      <polyline fill="darkblue" points="0,0 2,0.7 0,1.4 0.2,0.7"/>
    </marker>
  </defs>
  <!-- Background -->
  <rect x="0" y="0" width="202.000000" height="160.000000" fill="#f0f0f0" stroke="none"/>
  <!-- Build plate boundary (150 x 150 mm) -->
  <rect x="5.000000" y="5.000000" width="150.000000" height="150.000000"
        fill="#ffffff" stroke="#aaaaaa" stroke-width="0.2" stroke-dasharray="1,0.5"/>
  <!-- Build plate centre circle (r = 75.00 mm) -->
  <circle cx="80.000000" cy="80.000000" r="75.000000"
          fill="none" stroke="#bbbbbb" stroke-width="0.15" stroke-dasharray="0.8,0.4"/>
  <!-- Centre cross-hair -->
  <line x1="5.000000" y1="80.000000" x2="155.000000" y2="80.000000" stroke="#cccccc" stroke-width="0.1"/>
  <line x1="80.000000" y1="5.000000" x2="80.000000" y2="155.000000" stroke="#cccccc" stroke-width="0.1"/>
  <circle cx="80.000000" cy="80.000000" r="0.3" fill="#cccccc" stroke="none"/>
  <!-- Corner labels -->
  <text x="5.400000" y="4.600000" font-family="sans-serif" font-size="2" fill="#888888">0,0</text>
  <text x="154.600006" y="4.600000" font-family="sans-serif" font-size="2" fill="#888888" text-anchor="end">150,0</text>
  <text x="5.400000" y="157.199997" font-family="sans-serif" font-size="2" fill="#888888">0,150</text>
  <!-- Layer geometry -->
  <g id="geometry">
    <line x1="124.27996" y1="87.77423" x2="136.32379" y2="87.14304" stroke="green" stroke-width="0.04000"/>
    <line x1="126.19066" y1="87.77423" x2="136.32379" y2="87.24317" stroke="green" stroke-width="0.04000"/>
    <line x1="128.10144" y1="87.77423" x2="136.32379" y2="87.34332" stroke="green" stroke-width="0.04000"/>
    <line x1="130.01215" y1="87.77423" x2="136.32379" y2="87.44345" stroke="green" stroke-width="0.04000"/>
    <line x1="131.92291" y1="87.77423" x2="136.32379" y2="87.54359" stroke="green" stroke-width="0.04000"/>
    <line x1="133.83362" y1="87.77423" x2="136.32379" y2="87.64372" stroke="green" stroke-width="0.04000"/>
    <line x1="135.74437" y1="87.77423" x2="136.32379" y2="87.74387" stroke="green" stroke-width="0.04000"/>
    <line x1="123.62379" y1="87.70848" x2="136.32379" y2="87.04291" stroke="green" stroke-width="0.04000"/>
    <line x1="123.62379" y1="87.60835" x2="136.32379" y2="86.94276" stroke="green" stroke-width="0.04000"/>
    <line x1="123.62379" y1="87.50821" x2="136.32379" y2="86.84263" stroke="green" stroke-width="0.04000"/>
    <line x1="123.62379" y1="87.40807" x2="136.32379" y2="86.74249" stroke="green" stroke-width="0.04000"/>
    <line x1="123.62379" y1="87.30794" x2="136.32379" y2="86.64236" stroke="green" stroke-width="0.04000"/>
    <line x1="123.62379" y1="87.20779" x2="136.32379" y2="86.54221" stroke="green" stroke-width="0.04000"/>
    <line x1="123.62379" y1="87.10766" x2="136.32379" y2="86.44208" stroke="green" stroke-width="0.04000"/>
    <line x1="123.62379" y1="87.00752" x2="136.32379" y2="86.34194" stroke="green" stroke-width="0.04000"/>
    <line x1="123.62379" y1="86.90739" x2="136.32379" y2="86.24181" stroke="green" stroke-width="0.04000"/>
    <line x1="123.62379" y1="86.80724" x2="136.32379" y2="86.14166" stroke="green" stroke-width="0.04000"/>
    <line x1="123.62379" y1="86.70711" x2="136.32379" y2="86.04153" stroke="green" stroke-width="0.04000"/>
    <line x1="123.62379" y1="86.60697" x2="136.32379" y2="85.94139" stroke="green" stroke-width="0.04000"/>
    <line x1="123.62379" y1="86.50684" x2="136.32379" y2="85.84126" stroke="green" stroke-width="0.04000"/>
    <line x1="123.62379" y1="86.40670" x2="136.32379" y2="85.74112" stroke="green" stroke-width="0.04000"/>
    <line x1="123.62379" y1="86.30656" x2="136.32379" y2="85.64098" stroke="green" stroke-width="0.04000"/>
    <line x1="123.62379" y1="86.20642" x2="136.32379" y2="85.54084" stroke="green" stroke-width="0.04000"/>
    <line x1="123.62379" y1="86.10629" x2="136.32379" y2="85.44070" stroke="green" stroke-width="0.04000"/>
    <line x1="123.62379" y1="86.00615" x2="136.32379" y2="85.34057" stroke="green" stroke-width="0.04000"/>
    <line x1="123.62379" y1="85.90601" x2="136.32379" y2="85.24043" stroke="green" stroke-width="0.04000"/>
    <line x1="123.62379" y1="85.80588" x2="136.32379" y2="85.14030" stroke="green" stroke-width="0.04000"/>
    <line x1="123.62379" y1="85.70573" x2="136.32379" y2="85.04016" stroke="green" stroke-width="0.04000"/>
    <line x1="123.62379" y1="85.60560" x2="136.32379" y2="84.94003" stroke="green" stroke-width="0.04000"/>
    <line x1="123.62379" y1="85.50546" x2="136.32379" y2="84.83988" stroke="green" stroke-width="0.04000"/>
    <line x1="123.62379" y1="85.40533" x2="136.32379" y2="84.73975" stroke="green" stroke-width="0.04000"/>
    <line x1="123.62379" y1="85.30518" x2="136.32379" y2="84.63961" stroke="green" stroke-width="0.04000"/>
    <line x1="123.62379" y1="85.20506" x2="136.32379" y2="84.53947" stroke="green" stroke-width="0.04000"/>
    <line x1="123.62379" y1="85.10491" x2="136.32379" y2="84.43933" stroke="green" stroke-width="0.04000"/>
    <line x1="123.62379" y1="85.00478" x2="136.32379" y2="84.33920" stroke="green" stroke-width="0.04000"/>
    <line x1="123.62379" y1="84.90464" x2="136.32379" y2="84.23906" stroke="green" stroke-width="0.04000"/>
    <line x1="123.62379" y1="84.80450" x2="136.32379" y2="84.13892" stroke="green" stroke-width="0.04000"/>
    <line x1="123.62379" y1="84.70436" x2="136.32379" y2="84.03878" stroke="green" stroke-width="0.04000"/>
    <line x1="123.62379" y1="84.60423" x2="136.32379" y2="83.93865" stroke="green" stroke-width="0.04000"/>
    <line x1="123.62379" y1="84.50409" x2="136.32379" y2="83.83851" stroke="green" stroke-width="0.04000"/>
    <line x1="123.62379" y1="84.40395" x2="136.32379" y2="83.73837" stroke="green" stroke-width="0.04000"/>
    <line x1="123.62379" y1="84.30382" x2="136.32379" y2="83.63824" stroke="green" stroke-width="0.04000"/>
    <line x1="123.62379" y1="84.20368" x2="136.32379" y2="83.53810" stroke="green" stroke-width="0.04000"/>
    <line x1="123.62379" y1="84.10354" x2="136.32379" y2="83.43796" stroke="green" stroke-width="0.04000"/>
    <line x1="123.62379" y1="84.00340" x2="136.32379" y2="83.33783" stroke="green" stroke-width="0.04000"/>
    <line x1="123.62379" y1="83.90327" x2="136.32379" y2="83.23769" stroke="green" stroke-width="0.04000"/>
    <line x1="123.62379" y1="83.80313" x2="136.32379" y2="83.13755" stroke="green" stroke-width="0.04000"/>
    <line x1="123.62379" y1="83.70300" x2="136.32379" y2="83.03741" stroke="green" stroke-width="0.04000"/>
    <line x1="123.62379" y1="83.60285" x2="136.32379" y2="82.93728" stroke="green" stroke-width="0.04000"/>
    <line x1="123.62379" y1="83.50272" x2="136.32379" y2="82.83714" stroke="green" stroke-width="0.04000"/>
    <line x1="123.62379" y1="83.40258" x2="136.32379" y2="82.73700" stroke="green" stroke-width="0.04000"/>
    <line x1="123.62379" y1="83.30244" x2="136.32379" y2="82.63686" stroke="green" stroke-width="0.04000"/>
    <line x1="123.62379" y1="83.20231" x2="136.32379" y2="82.53673" stroke="green" stroke-width="0.04000"/>
    <line x1="123.62379" y1="83.10217" x2="136.32379" y2="82.43659" stroke="green" stroke-width="0.04000"/>
    <line x1="123.62379" y1="83.00203" x2="136.32379" y2="82.33645" stroke="green" stroke-width="0.04000"/>
    <line x1="123.62379" y1="82.90189" x2="136.32379" y2="82.23631" stroke="green" stroke-width="0.04000"/>
    <line x1="123.62379" y1="82.80176" x2="136.32379" y2="82.13618" stroke="green" stroke-width="0.04000"/>
    <line x1="123.62379" y1="82.70162" x2="136.32379" y2="82.03604" stroke="green" stroke-width="0.04000"/>
    <line x1="123.62379" y1="82.60148" x2="136.32379" y2="81.93591" stroke="green" stroke-width="0.04000"/>
    <line x1="123.62379" y1="82.50135" x2="136.32379" y2="81.83577" stroke="green" stroke-width="0.04000"/>
    <line x1="123.62379" y1="82.40121" x2="136.32379" y2="81.73563" stroke="green" stroke-width="0.04000"/>
    <line x1="123.62379" y1="82.30107" x2="136.32379" y2="81.63549" stroke="green" stroke-width="0.04000"/>
    <line x1="123.62379" y1="82.20094" x2="136.32379" y2="81.53535" stroke="green" stroke-width="0.04000"/>
    <line x1="123.62379" y1="82.10080" x2="136.32379" y2="81.43522" stroke="green" stroke-width="0.04000"/>
    <line x1="123.62379" y1="82.00066" x2="136.32379" y2="81.33508" stroke="green" stroke-width="0.04000"/>
    <line x1="123.62379" y1="81.90052" x2="136.32379" y2="81.23494" stroke="green" stroke-width="0.04000"/>
    <line x1="123.62379" y1="81.80038" x2="136.32379" y2="81.13481" stroke="green" stroke-width="0.04000"/>
    <line x1="123.62379" y1="81.70025" x2="136.32379" y2="81.03467" stroke="green" stroke-width="0.04000"/>
    <line x1="123.62379" y1="81.60011" x2="136.32379" y2="80.93453" stroke="green" stroke-width="0.04000"/>
    <line x1="123.62379" y1="81.49997" x2="136.32379" y2="80.83440" stroke="green" stroke-width="0.04000"/>
    <line x1="123.62379" y1="81.39983" x2="136.32379" y2="80.73426" stroke="green" stroke-width="0.04000"/>
    <line x1="123.62379" y1="81.29970" x2="136.32379" y2="80.63412" stroke="green" stroke-width="0.04000"/>
    <line x1="123.62379" y1="81.19956" x2="136.32379" y2="80.53398" stroke="green" stroke-width="0.04000"/>
    <line x1="123.62379" y1="81.09943" x2="136.32379" y2="80.43385" stroke="green" stroke-width="0.04000"/>
    <line x1="123.62379" y1="80.99929" x2="136.32379" y2="80.33371" stroke="green" stroke-width="0.04000"/>
    <line x1="123.62379" y1="80.89915" x2="136.32379" y2="80.23357" stroke="green" stroke-width="0.04000"/>
    <line x1="123.62379" y1="80.79901" x2="136.32379" y2="80.13343" stroke="green" stroke-width="0.04000"/>
    <line x1="123.62379" y1="80.69888" x2="136.32379" y2="80.03329" stroke="green" stroke-width="0.04000"/>
    <line x1="123.62379" y1="80.59874" x2="136.32379" y2="79.93316" stroke="green" stroke-width="0.04000"/>
    <line x1="123.62379" y1="80.49860" x2="136.32379" y2="79.83302" stroke="green" stroke-width="0.04000"/>
    <line x1="123.62379" y1="80.39846" x2="136.32379" y2="79.73289" stroke="green" stroke-width="0.04000"/>
    <line x1="123.62379" y1="80.29832" x2="136.32379" y2="79.63274" stroke="green" stroke-width="0.04000"/>
    <line x1="123.62379" y1="80.19819" x2="136.32379" y2="79.53261" stroke="green" stroke-width="0.04000"/>
    <line x1="123.62379" y1="80.09805" x2="136.32379" y2="79.43247" stroke="green" stroke-width="0.04000"/>
    <line x1="123.62379" y1="79.99792" x2="136.32379" y2="79.33234" stroke="green" stroke-width="0.04000"/>
    <line x1="123.62379" y1="79.89778" x2="136.32379" y2="79.23220" stroke="green" stroke-width="0.04000"/>
    <line x1="123.62379" y1="79.79764" x2="136.32379" y2="79.13206" stroke="green" stroke-width="0.04000"/>
    <line x1="123.62379" y1="79.69750" x2="136.32379" y2="79.03193" stroke="green" stroke-width="0.04000"/>
    <line x1="123.62379" y1="79.59737" x2="136.32379" y2="78.93179" stroke="green" stroke-width="0.04000"/>
    <line x1="123.62379" y1="79.49723" x2="136.32379" y2="78.83165" stroke="green" stroke-width="0.04000"/>
    <line x1="123.62379" y1="79.39709" x2="136.32379" y2="78.73151" stroke="green" stroke-width="0.04000"/>
    <line x1="123.62379" y1="79.29695" x2="136.32379" y2="78.63138" stroke="green" stroke-width="0.04000"/>
    <line x1="123.62379" y1="79.19682" x2="136.32379" y2="78.53123" stroke="green" stroke-width="0.04000"/>
    <line x1="123.62379" y1="79.09668" x2="136.32379" y2="78.43110" stroke="green" stroke-width="0.04000"/>
    <line x1="123.62379" y1="78.99654" x2="136.32379" y2="78.33096" stroke="green" stroke-width="0.04000"/>
    <line x1="123.62379" y1="78.89641" x2="136.32379" y2="78.23083" stroke="green" stroke-width="0.04000"/>
    <line x1="123.62379" y1="78.79626" x2="136.32379" y2="78.13068" stroke="green" stroke-width="0.04000"/>
    <line x1="123.62379" y1="78.69613" x2="136.32379" y2="78.03055" stroke="green" stroke-width="0.04000"/>
    <line x1="123.62379" y1="78.59599" x2="136.32379" y2="77.93041" stroke="green" stroke-width="0.04000"/>
    <line x1="123.62379" y1="78.49586" x2="136.32379" y2="77.83028" stroke="green" stroke-width="0.04000"/>
    <line x1="123.62379" y1="78.39572" x2="136.32379" y2="77.73014" stroke="green" stroke-width="0.04000"/>
    <line x1="123.62379" y1="78.29559" x2="136.32379" y2="77.63000" stroke="green" stroke-width="0.04000"/>
    <line x1="123.62379" y1="78.19544" x2="136.32379" y2="77.52986" stroke="green" stroke-width="0.04000"/>
    <line x1="123.62379" y1="78.09531" x2="136.32379" y2="77.42973" stroke="green" stroke-width="0.04000"/>
    <line x1="123.62379" y1="77.99517" x2="136.32379" y2="77.32960" stroke="green" stroke-width="0.04000"/>
    <line x1="123.62379" y1="77.89503" x2="136.32379" y2="77.22945" stroke="green" stroke-width="0.04000"/>
    <line x1="123.62379" y1="77.79490" x2="136.32379" y2="77.12932" stroke="green" stroke-width="0.04000"/>
    <line x1="123.62379" y1="77.69476" x2="136.32379" y2="77.02918" stroke="green" stroke-width="0.04000"/>
    <line x1="123.62379" y1="77.59462" x2="136.32379" y2="76.92905" stroke="green" stroke-width="0.04000"/>
    <line x1="123.62379" y1="77.49448" x2="136.32379" y2="76.82890" stroke="green" stroke-width="0.04000"/>
    <line x1="123.62379" y1="77.39435" x2="136.32379" y2="76.72877" stroke="green" stroke-width="0.04000"/>
    <line x1="123.62379" y1="77.29420" x2="136.32379" y2="76.62863" stroke="green" stroke-width="0.04000"/>
    <line x1="123.62379" y1="77.19407" x2="136.32379" y2="76.52850" stroke="green" stroke-width="0.04000"/>
    <line x1="123.62379" y1="77.09393" x2="136.32379" y2="76.42835" stroke="green" stroke-width="0.04000"/>
    <line x1="123.62379" y1="76.99380" x2="136.32379" y2="76.32822" stroke="green" stroke-width="0.04000"/>
    <line x1="123.62379" y1="76.89366" x2="136.32379" y2="76.22808" stroke="green" stroke-width="0.04000"/>
    <line x1="123.62379" y1="76.79353" x2="136.32379" y2="76.12794" stroke="green" stroke-width="0.04000"/>
    <line x1="123.62379" y1="76.69338" x2="136.32379" y2="76.02780" stroke="green" stroke-width="0.04000"/>
    <line x1="123.62379" y1="76.59325" x2="136.32379" y2="75.92767" stroke="green" stroke-width="0.04000"/>
    <line x1="123.62379" y1="76.49311" x2="136.32379" y2="75.82753" stroke="green" stroke-width="0.04000"/>
    <line x1="123.62379" y1="76.39297" x2="136.32379" y2="75.72739" stroke="green" stroke-width="0.04000"/>
    <line x1="123.62379" y1="76.29284" x2="136.32379" y2="75.62726" stroke="green" stroke-width="0.04000"/>
    <line x1="123.62379" y1="76.19270" x2="136.32379" y2="75.52712" stroke="green" stroke-width="0.04000"/>
    <line x1="123.62379" y1="76.09257" x2="136.32379" y2="75.42699" stroke="green" stroke-width="0.04000"/>
    <line x1="123.62379" y1="75.99242" x2="136.32379" y2="75.32684" stroke="green" stroke-width="0.04000"/>
    <line x1="123.62379" y1="75.89229" x2="136.32379" y2="75.22671" stroke="green" stroke-width="0.04000"/>
    <line x1="123.62379" y1="75.79215" x2="136.32379" y2="75.12657" stroke="green" stroke-width="0.04000"/>
    <line x1="123.62379" y1="75.69202" x2="136.32379" y2="75.02644" stroke="green" stroke-width="0.04000"/>
    <line x1="123.62379" y1="75.59187" x2="136.32379" y2="74.92630" stroke="green" stroke-width="0.04000"/>
    <line x1="123.62379" y1="75.49174" x2="136.32379" y2="74.82616" stroke="green" stroke-width="0.04000"/>
    <line x1="123.62379" y1="75.39160" x2="136.32379" y2="74.72602" stroke="green" stroke-width="0.04000"/>
    <line x1="123.62379" y1="75.29147" x2="136.32379" y2="74.62589" stroke="green" stroke-width="0.04000"/>
    <line x1="123.62379" y1="75.19132" x2="136.32379" y2="74.52575" stroke="green" stroke-width="0.04000"/>
    <line x1="123.62379" y1="75.09119" x2="136.32379" y2="74.42561" stroke="green" stroke-width="0.04000"/>
    <line x1="123.62379" y1="74.99105" x2="136.32379" y2="74.32547" stroke="green" stroke-width="0.04000"/>
    <line x1="123.62379" y1="74.89091" x2="136.32379" y2="74.22533" stroke="green" stroke-width="0.04000"/>
    <line x1="123.62379" y1="74.79078" x2="136.32379" y2="74.12520" stroke="green" stroke-width="0.04000"/>
    <line x1="123.62379" y1="74.69064" x2="136.32379" y2="74.02506" stroke="green" stroke-width="0.04000"/>
    <line x1="123.62379" y1="74.59050" x2="136.32379" y2="73.92493" stroke="green" stroke-width="0.04000"/>
    <line x1="123.62379" y1="74.49036" x2="136.32379" y2="73.82478" stroke="green" stroke-width="0.04000"/>
    <line x1="123.62379" y1="74.39023" x2="136.32379" y2="73.72465" stroke="green" stroke-width="0.04000"/>
    <line x1="123.62379" y1="74.29009" x2="136.32379" y2="73.62451" stroke="green" stroke-width="0.04000"/>
    <line x1="123.62379" y1="74.18996" x2="136.32379" y2="73.52438" stroke="green" stroke-width="0.04000"/>
    <line x1="123.62379" y1="74.08982" x2="136.32379" y2="73.42424" stroke="green" stroke-width="0.04000"/>
    <line x1="123.62379" y1="73.98969" x2="136.32379" y2="73.32410" stroke="green" stroke-width="0.04000"/>
    <line x1="123.62379" y1="73.88954" x2="136.32379" y2="73.22396" stroke="green" stroke-width="0.04000"/>
    <line x1="123.62379" y1="73.78941" x2="135.66762" y2="73.15822" stroke="green" stroke-width="0.04000"/>
    <line x1="123.62379" y1="73.68927" x2="133.75682" y2="73.15822" stroke="green" stroke-width="0.04000"/>
    <line x1="123.62379" y1="73.58913" x2="131.84613" y2="73.15822" stroke="green" stroke-width="0.04000"/>
    <line x1="123.62379" y1="73.48899" x2="129.93536" y2="73.15822" stroke="green" stroke-width="0.04000"/>
    <line x1="123.62379" y1="73.38885" x2="128.02467" y2="73.15822" stroke="green" stroke-width="0.04000"/>
    <line x1="123.62379" y1="73.28872" x2="126.11391" y2="73.15822" stroke="green" stroke-width="0.04000"/>
    <line x1="123.62379" y1="73.18858" x2="124.20322" y2="73.15822" stroke="green" stroke-width="0.04000"/>
    <path d="M 136.324 87.7742 L 123.624 87.7742 L 123.624 73.1582 L 136.324 73.1582 L 136.324 87.7742" fill="none" stroke="blue" stroke-width="0.04000" fill-rule="evenodd" fill-opacity="1.000"/>
  </g>
</svg>
