<?xml version="1.0" encoding="UTF-8" standalone="yes"?>
<svg xmlns="http://www.w3.org/2000/svg"
     xmlns:xlink="http://www.w3.org/1999/xlink"
     width="2020.0000mm" height="1600.0000mm"
     viewBox="0 0 202.000000 160.000000">
  <!--
    Build plate : 150.00 x 150.00 mm
    Coordinate  : 1 SVG unit = 1 mm
    Display zoom: 10x  (width/height = viewBox x 10)
    Hatch stroke: 0.04 mm = ~28 mm on screen at this zoom
    Legend panel: right margin (42 mm wide)
  -->
  <defs>
    <marker id="endArrow" markerWidth="2" markerHeight="1.4"
            refX="0" refY="0.7" orient="auto"
            markerUnits="strokeWidth">
      <polyline fill="darkblue" points="0,0 2,0.7 0,1.4 0.2,0.7"/>
    </marker>
  </defs>
  <!-- Background -->
  <rect x="0" y="0" width="202.000000" height="160.000000" fill="#f0f0f0" stroke="none"/>
  <!-- Build plate boundary (150 x 150 mm) -->
  <rect x="5.000000" y="5.000000" width="150.000000" height="150.000000"
        fill="#ffffff" stroke="#aaaaaa" stroke-width="0.2" stroke-dasharray="1,0.5"/>
  <!-- Build plate centre circle (r = 75.00 mm) -->
  <circle cx="80.000000" cy="80.000000" r="75.000000"
          fill="none" stroke="#bbbbbb" stroke-width="0.15" stroke-dasharray="0.8,0.4"/>
  <!-- Centre cross-hair -->
  <line x1="5.000000" y1="80.000000" x2="155.000000" y2="80.000000" stroke="#cccccc" stroke-width="0.1"/>
  <line x1="80.000000" y1="5.000000" x2="80.000000" y2="155.000000" stroke="#cccccc" stroke-width="0.1"/>
  <circle cx="80.000000" cy="80.000000" r="0.3" fill="#cccccc" stroke="none"/>
  <!-- Corner labels -->
  <text x="5.400000" y="4.600000" font-family="sans-serif" font-size="2" fill="#888888">0,0</text>
  <text x="154.600006" y="4.600000" font-family="sans-serif" font-size="2" fill="#888888" text-anchor="end">150,0</text>
  <text x="5.400000" y="157.199997" font-family="sans-serif" font-size="2" fill="#888888">0,150</text>
  <!-- Layer geometry -->
  <g id="geometry">
    <line x1="34.35799" y1="123.92046" x2="34.32190" y2="123.94129" stroke="green" stroke-width="0.04000"/>
    <line x1="34.40915" y1="123.77546" x2="34.14191" y2="123.92975" stroke="green" stroke-width="0.04000"/>
    <line x1="34.46031" y1="123.63045" x2="33.96192" y2="123.91820" stroke="green" stroke-width="0.04000"/>
    <line x1="34.51147" y1="123.48544" x2="33.78328" y2="123.90585" stroke="green" stroke-width="0.04000"/>
    <line x1="34.56263" y1="123.34043" x2="33.62817" y2="123.87994" stroke="green" stroke-width="0.04000"/>
    <line x1="34.60417" y1="123.20098" x2="33.49635" y2="123.84058" stroke="green" stroke-width="0.04000"/>
    <line x1="34.62780" y1="123.07187" x2="33.45985" y2="123.74619" stroke="green" stroke-width="0.04000"/>
    <line x1="34.65144" y1="122.94275" x2="33.41710" y2="123.65540" stroke="green" stroke-width="0.04000"/>
    <line x1="34.67508" y1="122.81363" x2="33.37925" y2="123.56178" stroke="green" stroke-width="0.04000"/>
    <line x1="34.69871" y1="122.68452" x2="33.34166" y2="123.46801" stroke="green" stroke-width="0.04000"/>
    <line x1="34.72235" y1="122.55540" x2="33.30407" y2="123.37424" stroke="green" stroke-width="0.04000"/>
    <line x1="34.74598" y1="122.42628" x2="33.26648" y2="123.28047" stroke="green" stroke-width="0.04000"/>
    <line x1="34.76962" y1="122.29716" x2="33.22889" y2="123.18671" stroke="green" stroke-width="0.04000"/>
    <line x1="34.79628" y1="122.16631" x2="33.19131" y2="123.09294" stroke="green" stroke-width="0.04000"/>
    <line x1="34.81966" y1="122.03733" x2="33.15372" y2="122.99917" stroke="green" stroke-width="0.04000"/>
    <line x1="34.84305" y1="121.90836" x2="33.11613" y2="122.90540" stroke="green" stroke-width="0.04000"/>
    <line x1="34.86643" y1="121.77939" x2="33.06734" y2="122.81810" stroke="green" stroke-width="0.04000"/>
    <line x1="34.88981" y1="121.65042" x2="33.01613" y2="122.73219" stroke="green" stroke-width="0.04000"/>
    <line x1="34.91319" y1="121.52145" x2="32.96493" y2="122.64629" stroke="green" stroke-width="0.04000"/>
    <line x1="34.93658" y1="121.39249" x2="32.91372" y2="122.56038" stroke="green" stroke-width="0.04000"/>
    <line x1="34.95996" y1="121.26351" x2="32.86251" y2="122.47447" stroke="green" stroke-width="0.04000"/>
    <line x1="34.98809" y1="121.13181" x2="32.83554" y2="122.37458" stroke="green" stroke-width="0.04000"/>
    <line x1="35.03019" y1="120.99202" x2="32.81049" y2="122.27357" stroke="green" stroke-width="0.04000"/>
    <line x1="35.07228" y1="120.85226" x2="32.78543" y2="122.17257" stroke="green" stroke-width="0.04000"/>
    <line x1="35.11439" y1="120.71247" x2="32.76037" y2="122.07156" stroke="green" stroke-width="0.04000"/>
    <line x1="35.15648" y1="120.57270" x2="32.73964" y2="121.96807" stroke="green" stroke-width="0.04000"/>
    <line x1="35.19859" y1="120.43292" x2="32.72152" y2="121.86305" stroke="green" stroke-width="0.04000"/>
    <line x1="35.23796" y1="120.29472" x2="32.70341" y2="121.75804" stroke="green" stroke-width="0.04000"/>
    <line x1="35.27187" y1="120.15968" x2="32.68530" y2="121.65303" stroke="green" stroke-width="0.04000"/>
    <line x1="35.30462" y1="120.02529" x2="32.66708" y2="121.54807" stroke="green" stroke-width="0.04000"/>
    <line x1="35.33738" y1="119.89091" x2="32.64804" y2="121.44360" stroke="green" stroke-width="0.04000"/>
    <line x1="35.37014" y1="119.75652" x2="32.62900" y2="121.33913" stroke="green" stroke-width="0.04000"/>
    <line x1="35.40290" y1="119.62214" x2="32.60995" y2="121.23465" stroke="green" stroke-width="0.04000"/>
    <line x1="35.43566" y1="119.48775" x2="32.59091" y2="121.13017" stroke="green" stroke-width="0.04000"/>
    <line x1="35.46827" y1="119.35346" x2="32.57274" y2="121.02520" stroke="green" stroke-width="0.04000"/>
    <line x1="35.49998" y1="119.21968" x2="32.55515" y2="120.91988" stroke="green" stroke-width="0.04000"/>
    <line x1="35.53170" y1="119.08590" x2="32.53757" y2="120.81456" stroke="green" stroke-width="0.04000"/>
    <line x1="35.56342" y1="118.95212" x2="32.51999" y2="120.70924" stroke="green" stroke-width="0.04000"/>
    <line x1="35.59513" y1="118.81834" x2="32.50241" y2="120.60392" stroke="green" stroke-width="0.04000"/>
    <line x1="35.62685" y1="118.68456" x2="32.48325" y2="120.49951" stroke="green" stroke-width="0.04000"/>
    <line x1="35.65623" y1="118.55212" x2="32.46407" y2="120.39512" stroke="green" stroke-width="0.04000"/>
    <line x1="35.66858" y1="118.42952" x2="32.44488" y2="120.29072" stroke="green" stroke-width="0.04000"/>
    <line x1="35.68248" y1="118.30602" x2="32.42673" y2="120.18573" stroke="green" stroke-width="0.04000"/>
    <line x1="35.70060" y1="118.18009" x2="32.41235" y2="120.07857" stroke="green" stroke-width="0.04000"/>
    <line x1="35.71753" y1="118.05485" x2="32.39797" y2="119.97140" stroke="green" stroke-width="0.04000"/>
    <line x1="35.73218" y1="117.93092" x2="32.38359" y2="119.86423" stroke="green" stroke-width="0.04000"/>
    <line x1="35.74682" y1="117.80700" x2="32.36922" y2="119.75706" stroke="green" stroke-width="0.04000"/>
    <line x1="35.76146" y1="117.68307" x2="32.35293" y2="119.65099" stroke="green" stroke-width="0.04000"/>
    <line x1="35.77610" y1="117.55915" x2="32.33604" y2="119.54527" stroke="green" stroke-width="0.04000"/>
    <line x1="35.79074" y1="117.43523" x2="32.31915" y2="119.43955" stroke="green" stroke-width="0.04000"/>
    <line x1="35.80618" y1="117.31084" x2="32.30227" y2="119.33383" stroke="green" stroke-width="0.04000"/>
    <line x1="35.82217" y1="117.18615" x2="32.28538" y2="119.22811" stroke="green" stroke-width="0.04000"/>
    <line x1="35.83816" y1="117.06145" x2="32.27090" y2="119.12100" stroke="green" stroke-width="0.04000"/>
    <line x1="35.85415" y1="116.93674" x2="32.25666" y2="119.01375" stroke="green" stroke-width="0.04000"/>
    <line x1="35.87014" y1="116.81203" x2="32.24243" y2="118.90649" stroke="green" stroke-width="0.04000"/>
    <line x1="35.87741" y1="116.69238" x2="32.22820" y2="118.79925" stroke="green" stroke-width="0.04000"/>
    <line x1="35.88107" y1="116.57478" x2="32.21396" y2="118.69199" stroke="green" stroke-width="0.04000"/>
    <line x1="35.88474" y1="116.45720" x2="32.19972" y2="118.58475" stroke="green" stroke-width="0.04000"/>
    <line x1="35.88826" y1="116.33970" x2="32.18549" y2="118.47749" stroke="green" stroke-width="0.04000"/>
    <line x1="35.89130" y1="116.22247" x2="32.16996" y2="118.37099" stroke="green" stroke-width="0.04000"/>
    <line x1="35.89436" y1="116.10524" x2="32.15087" y2="118.26654" stroke="green" stroke-width="0.04000"/>
    <line x1="35.89740" y1="115.98801" x2="32.13573" y2="118.15981" stroke="green" stroke-width="0.04000"/>
    <line x1="35.89999" y1="115.87104" x2="32.11957" y2="118.05367" stroke="green" stroke-width="0.04000"/>
    <line x1="35.90197" y1="115.75443" x2="32.10313" y2="117.94769" stroke="green" stroke-width="0.04000"/>
    <line x1="35.90394" y1="115.63783" x2="32.08669" y2="117.84171" stroke="green" stroke-width="0.04000"/>
    <line x1="35.90591" y1="115.52121" x2="32.07025" y2="117.73573" stroke="green" stroke-width="0.04000"/>
    <line x1="35.90789" y1="115.40460" x2="32.05381" y2="117.62975" stroke="green" stroke-width="0.04000"/>
    <line x1="35.91032" y1="115.28773" x2="32.03738" y2="117.52377" stroke="green" stroke-width="0.04000"/>
    <line x1="35.91326" y1="115.17056" x2="32.02094" y2="117.41780" stroke="green" stroke-width="0.04000"/>
    <line x1="35.91621" y1="115.05339" x2="32.00449" y2="117.31182" stroke="green" stroke-width="0.04000"/>
    <line x1="35.91916" y1="114.93622" x2="31.99296" y2="117.20301" stroke="green" stroke-width="0.04000"/>
    <line x1="35.92210" y1="114.81905" x2="31.98222" y2="117.09374" stroke="green" stroke-width="0.04000"/>
    <line x1="35.92201" y1="114.70363" x2="31.97148" y2="116.98447" stroke="green" stroke-width="0.04000"/>
    <line x1="35.91508" y1="114.59216" x2="31.96074" y2="116.87520" stroke="green" stroke-width="0.04000"/>
    <line x1="35.90815" y1="114.48069" x2="31.94581" y2="116.76835" stroke="green" stroke-width="0.04000"/>
    <line x1="35.90113" y1="114.36928" x2="31.93087" y2="116.66151" stroke="green" stroke-width="0.04000"/>
    <line x1="35.89230" y1="114.25890" x2="31.91593" y2="116.55466" stroke="green" stroke-width="0.04000"/>
    <line x1="35.88349" y1="114.14852" x2="31.90099" y2="116.44781" stroke="green" stroke-width="0.04000"/>
    <line x1="35.87466" y1="114.03814" x2="31.88734" y2="116.34023" stroke="green" stroke-width="0.04000"/>
    <line x1="35.86668" y1="113.92728" x2="31.87467" y2="116.23207" stroke="green" stroke-width="0.04000"/>
    <line x1="35.85896" y1="113.81628" x2="31.86201" y2="116.12392" stroke="green" stroke-width="0.04000"/>
    <line x1="35.85123" y1="113.70527" x2="31.84935" y2="116.01575" stroke="green" stroke-width="0.04000"/>
    <line x1="35.84349" y1="113.59426" x2="31.83668" y2="115.90759" stroke="green" stroke-width="0.04000"/>
    <line x1="35.83576" y1="113.48325" x2="31.82402" y2="115.79943" stroke="green" stroke-width="0.04000"/>
    <line x1="35.82803" y1="113.37225" x2="31.81135" y2="115.69128" stroke="green" stroke-width="0.04000"/>
    <line x1="35.81707" y1="113.26311" x2="31.79869" y2="115.58312" stroke="green" stroke-width="0.04000"/>
    <line x1="35.80604" y1="113.15401" x2="31.78856" y2="115.47350" stroke="green" stroke-width="0.04000"/>
    <line x1="35.79501" y1="113.04490" x2="31.77689" y2="115.36477" stroke="green" stroke-width="0.04000"/>
    <line x1="35.78399" y1="112.93579" x2="31.76256" y2="115.25757" stroke="green" stroke-width="0.04000"/>
    <line x1="35.77296" y1="112.82669" x2="31.74823" y2="115.15037" stroke="green" stroke-width="0.04000"/>
    <line x1="35.76194" y1="112.71759" x2="31.73390" y2="115.04317" stroke="green" stroke-width="0.04000"/>
    <line x1="35.75091" y1="112.60848" x2="31.71957" y2="114.93598" stroke="green" stroke-width="0.04000"/>
    <line x1="35.73988" y1="112.49938" x2="31.69355" y2="114.83553" stroke="green" stroke-width="0.04000"/>
    <line x1="35.73020" y1="112.38950" x2="31.66745" y2="114.73513" stroke="green" stroke-width="0.04000"/>
    <line x1="35.72461" y1="112.27725" x2="31.64136" y2="114.63472" stroke="green" stroke-width="0.04000"/>
    <line x1="35.71359" y1="112.16814" x2="31.61526" y2="114.53432" stroke="green" stroke-width="0.04000"/>
    <line x1="35.68864" y1="112.06709" x2="31.58789" y2="114.43465" stroke="green" stroke-width="0.04000"/>
    <line x1="35.66369" y1="111.96602" x2="31.55663" y2="114.33723" stroke="green" stroke-width="0.04000"/>
    <line x1="35.63874" y1="111.86496" x2="31.52454" y2="114.24029" stroke="green" stroke-width="0.04000"/>
    <line x1="35.61379" y1="111.76389" x2="31.49150" y2="114.14389" stroke="green" stroke-width="0.04000"/>
    <line x1="35.58884" y1="111.66282" x2="31.45847" y2="114.04749" stroke="green" stroke-width="0.04000"/>
    <line x1="35.56389" y1="111.56176" x2="31.42543" y2="113.95110" stroke="green" stroke-width="0.04000"/>
    <line x1="35.53894" y1="111.46069" x2="31.39240" y2="113.85471" stroke="green" stroke-width="0.04000"/>
    <line x1="35.51299" y1="111.36021" x2="31.35936" y2="113.75831" stroke="green" stroke-width="0.04000"/>
    <line x1="35.48667" y1="111.25993" x2="31.32633" y2="113.66191" stroke="green" stroke-width="0.04000"/>
    <line x1="35.46035" y1="111.15966" x2="31.30223" y2="113.56035" stroke="green" stroke-width="0.04000"/>
    <line x1="35.43215" y1="111.06046" x2="31.27834" y2="113.45867" stroke="green" stroke-width="0.04000"/>
    <line x1="35.39696" y1="110.96532" x2="31.25445" y2="113.35699" stroke="green" stroke-width="0.04000"/>
    <line x1="35.36080" y1="110.87073" x2="31.23056" y2="113.25532" stroke="green" stroke-width="0.04000"/>
    <line x1="35.32463" y1="110.77613" x2="31.20667" y2="113.15364" stroke="green" stroke-width="0.04000"/>
    <line x1="35.28848" y1="110.68154" x2="31.18278" y2="113.05196" stroke="green" stroke-width="0.04000"/>
    <line x1="35.25231" y1="110.58695" x2="31.16468" y2="112.94695" stroke="green" stroke-width="0.04000"/>
    <line x1="35.21615" y1="110.49236" x2="31.15532" y2="112.83688" stroke="green" stroke-width="0.04000"/>
    <line x1="35.17999" y1="110.39777" x2="31.14385" y2="112.72803" stroke="green" stroke-width="0.04000"/>
    <line x1="35.14382" y1="110.30318" x2="31.12456" y2="112.62370" stroke="green" stroke-width="0.04000"/>
    <line x1="35.10766" y1="110.20859" x2="31.10527" y2="112.51936" stroke="green" stroke-width="0.04000"/>
    <line x1="35.07156" y1="110.11396" x2="31.08599" y2="112.41503" stroke="green" stroke-width="0.04000"/>
    <line x1="35.03553" y1="110.01929" x2="31.06670" y2="112.31069" stroke="green" stroke-width="0.04000"/>
    <line x1="34.99951" y1="109.92461" x2="31.04741" y2="112.20636" stroke="green" stroke-width="0.04000"/>
    <line x1="34.96349" y1="109.82994" x2="31.02812" y2="112.10202" stroke="green" stroke-width="0.04000"/>
    <line x1="34.92747" y1="109.73527" x2="31.00883" y2="111.99769" stroke="green" stroke-width="0.04000"/>
    <line x1="34.89144" y1="109.64059" x2="30.98954" y2="111.89336" stroke="green" stroke-width="0.04000"/>
    <line x1="34.86986" y1="109.53759" x2="30.96999" y2="111.78918" stroke="green" stroke-width="0.04000"/>
    <line x1="34.85393" y1="109.43131" x2="30.95669" y2="111.68139" stroke="green" stroke-width="0.04000"/>
    <line x1="34.83799" y1="109.32504" x2="30.96733" y2="111.55977" stroke="green" stroke-width="0.04000"/>
    <line x1="34.82206" y1="109.21877" x2="30.97796" y2="111.43816" stroke="green" stroke-width="0.04000"/>
    <line x1="34.80613" y1="109.11250" x2="30.98860" y2="111.31655" stroke="green" stroke-width="0.04000"/>
    <line x1="34.78210" y1="109.01090" x2="30.99924" y2="111.19495" stroke="green" stroke-width="0.04000"/>
    <line x1="34.75350" y1="108.91195" x2="31.00987" y2="111.07333" stroke="green" stroke-width="0.04000"/>
    <line x1="34.72489" y1="108.81300" x2="31.02051" y2="110.95172" stroke="green" stroke-width="0.04000"/>
    <line x1="34.69629" y1="108.71404" x2="31.03056" y2="110.83044" stroke="green" stroke-width="0.04000"/>
    <line x1="34.66768" y1="108.61508" x2="31.01712" y2="110.72273" stroke="green" stroke-width="0.04000"/>
    <line x1="34.63908" y1="108.51613" x2="31.00367" y2="110.61503" stroke="green" stroke-width="0.04000"/>
    <line x1="34.61047" y1="108.41718" x2="30.99023" y2="110.50732" stroke="green" stroke-width="0.04000"/>
    <line x1="46.51714" y1="108.93295" x2="43.89958" y2="110.44419" stroke="green" stroke-width="0.04000"/>
    <line x1="46.45856" y1="108.85129" x2="43.72019" y2="110.43229" stroke="green" stroke-width="0.04000"/>
    <line x1="46.57572" y1="109.01459" x2="44.12234" y2="110.43105" stroke="green" stroke-width="0.04000"/>
    <line x1="46.63430" y1="109.09624" x2="44.35105" y2="110.41447" stroke="green" stroke-width="0.04000"/>
    <line x1="46.39998" y1="108.76965" x2="43.55641" y2="110.41138" stroke="green" stroke-width="0.04000"/>
    <line x1="34.60399" y1="108.30545" x2="30.97678" y2="110.39962" stroke="green" stroke-width="0.04000"/>
    <line x1="46.59109" y1="109.23666" x2="44.59082" y2="110.39151" stroke="green" stroke-width="0.04000"/>
    <line x1="46.34140" y1="108.68800" x2="43.40711" y2="110.38210" stroke="green" stroke-width="0.04000"/>
    <line x1="46.31128" y1="108.58991" x2="43.24819" y2="110.35839" stroke="green" stroke-width="0.04000"/>
    <line x1="46.29749" y1="108.48241" x2="43.08701" y2="110.33598" stroke="green" stroke-width="0.04000"/>
    <line x1="46.35638" y1="109.48763" x2="44.90363" y2="110.32638" stroke="green" stroke-width="0.04000"/>
    <line x1="46.28369" y1="108.37490" x2="42.92582" y2="110.31357" stroke="green" stroke-width="0.04000"/>
    <line x1="34.62753" y1="108.17639" x2="30.96334" y2="110.29191" stroke="green" stroke-width="0.04000"/>
    <line x1="46.26990" y1="108.26740" x2="42.76463" y2="110.29116" stroke="green" stroke-width="0.04000"/>
    <line x1="46.15571" y1="109.71896" x2="45.20544" y2="110.26760" stroke="green" stroke-width="0.04000"/>
    <line x1="46.25610" y1="108.15989" x2="42.60782" y2="110.26623" stroke="green" stroke-width="0.04000"/>
    <line x1="45.96131" y1="109.94667" x2="45.45545" y2="110.23873" stroke="green" stroke-width="0.04000"/>
    <line x1="46.19411" y1="108.08021" x2="42.46962" y2="110.23055" stroke="green" stroke-width="0.04000"/>
    <line x1="46.12483" y1="108.00474" x2="42.33142" y2="110.19486" stroke="green" stroke-width="0.04000"/>
    <line x1="34.65106" y1="108.04733" x2="30.95933" y2="110.17875" stroke="green" stroke-width="0.04000"/>
    <line x1="46.05555" y1="107.92927" x2="42.19323" y2="110.15918" stroke="green" stroke-width="0.04000"/>
    <line x1="45.98627" y1="107.85380" x2="42.06022" y2="110.12051" stroke="green" stroke-width="0.04000"/>
    <line x1="45.91015" y1="107.78227" x2="41.94082" y2="110.07396" stroke="green" stroke-width="0.04000"/>
    <line x1="34.67072" y1="107.92051" x2="30.99058" y2="110.04524" stroke="green" stroke-width="0.04000"/>
    <line x1="45.82578" y1="107.71552" x2="41.82143" y2="110.02742" stroke="green" stroke-width="0.04000"/>
    <line x1="45.74142" y1="107.64875" x2="41.70205" y2="109.98088" stroke="green" stroke-width="0.04000"/>
    <line x1="45.65705" y1="107.58199" x2="41.58141" y2="109.93506" stroke="green" stroke-width="0.04000"/>
    <line x1="34.68941" y1="107.79425" x2="31.02182" y2="109.91173" stroke="green" stroke-width="0.04000"/>
    <line x1="45.57269" y1="107.51523" x2="41.46059" y2="109.88935" stroke="green" stroke-width="0.04000"/>
    <line x1="45.48810" y1="107.44859" x2="41.33977" y2="109.84364" stroke="green" stroke-width="0.04000"/>
    <line x1="45.40349" y1="107.38197" x2="41.21894" y2="109.79792" stroke="green" stroke-width="0.04000"/>
    <line x1="34.70810" y1="107.66798" x2="31.04948" y2="109.78029" stroke="green" stroke-width="0.04000"/>
    <line x1="45.31989" y1="107.31477" x2="41.09813" y2="109.75220" stroke="green" stroke-width="0.04000"/>
    <line x1="45.23987" y1="107.24550" x2="40.97731" y2="109.70649" stroke="green" stroke-width="0.04000"/>
    <line x1="34.72680" y1="107.54173" x2="31.05697" y2="109.66050" stroke="green" stroke-width="0.04000"/>
    <line x1="45.15985" y1="107.17623" x2="40.85801" y2="109.65990" stroke="green" stroke-width="0.04000"/>
    <line x1="45.07984" y1="107.10696" x2="40.74224" y2="109.61127" stroke="green" stroke-width="0.04000"/>
    <line x1="44.99982" y1="107.03768" x2="40.62996" y2="109.56062" stroke="green" stroke-width="0.04000"/>
    <line x1="34.74549" y1="107.41546" x2="31.06445" y2="109.54071" stroke="green" stroke-width="0.04000"/>
    <line x1="44.91980" y1="106.96841" x2="40.51767" y2="109.50998" stroke="green" stroke-width="0.04000"/>
    <line x1="44.83979" y1="106.89914" x2="40.40539" y2="109.45934" stroke="green" stroke-width="0.04000"/>
    <line x1="34.76418" y1="107.28919" x2="31.07194" y2="109.42091" stroke="green" stroke-width="0.04000"/>
    <line x1="44.75451" y1="106.83291" x2="40.29311" y2="109.40869" stroke="green" stroke-width="0.04000"/>
    <line x1="44.66698" y1="106.76797" x2="40.18082" y2="109.35805" stroke="green" stroke-width="0.04000"/>
    <line x1="44.57947" y1="106.70303" x2="40.06854" y2="109.30741" stroke="green" stroke-width="0.04000"/>
    <line x1="34.78288" y1="107.16293" x2="31.07942" y2="109.30112" stroke="green" stroke-width="0.04000"/>
    <line x1="44.49194" y1="106.63808" x2="39.95626" y2="109.25677" stroke="green" stroke-width="0.04000"/>
    <line x1="44.40442" y1="106.57314" x2="39.84397" y2="109.20612" stroke="green" stroke-width="0.04000"/>
    <line x1="34.80157" y1="107.03667" x2="31.08691" y2="109.18134" stroke="green" stroke-width="0.04000"/>
    <line x1="44.31690" y1="106.50820" x2="39.73254" y2="109.15499" stroke="green" stroke-width="0.04000"/>
    <line x1="44.23565" y1="106.43964" x2="39.62970" y2="109.09889" stroke="green" stroke-width="0.04000"/>
    <line x1="35.59072" y1="106.46559" x2="31.09439" y2="109.06155" stroke="green" stroke-width="0.04000"/>
    <line x1="44.15627" y1="106.37001" x2="39.52687" y2="109.04279" stroke="green" stroke-width="0.04000"/>
    <line x1="44.07689" y1="106.30037" x2="39.42404" y2="108.98669" stroke="green" stroke-width="0.04000"/>
    <line x1="39.79674" y1="103.92178" x2="31.10164" y2="108.94189" stroke="green" stroke-width="0.04000"/>
    <line x1="43.98447" y1="106.23825" x2="39.32121" y2="108.93060" stroke="green" stroke-width="0.04000"/>
    <line x1="43.88964" y1="106.17753" x2="39.21881" y2="108.87424" stroke="green" stroke-width="0.04000"/>
    <line x1="39.69749" y1="103.86360" x2="31.10880" y2="108.82229" stroke="green" stroke-width="0.04000"/>
    <line x1="43.79482" y1="106.11681" x2="39.11802" y2="108.81696" stroke="green" stroke-width="0.04000"/>
    <line x1="43.69999" y1="106.05609" x2="39.01722" y2="108.75969" stroke="green" stroke-width="0.04000"/>
    <line x1="39.59912" y1="103.80492" x2="31.09553" y2="108.71448" stroke="green" stroke-width="0.04000"/>
    <line x1="43.60516" y1="105.99537" x2="38.91642" y2="108.70242" stroke="green" stroke-width="0.04000"/>
    <line x1="43.51033" y1="105.93465" x2="38.82164" y2="108.64166" stroke="green" stroke-width="0.04000"/>
    <line x1="39.50381" y1="103.74448" x2="31.10028" y2="108.59626" stroke="green" stroke-width="0.04000"/>
    <line x1="43.41550" y1="105.87393" x2="38.72834" y2="108.58006" stroke="green" stroke-width="0.04000"/>
    <line x1="43.32067" y1="105.81321" x2="38.63441" y2="108.51882" stroke="green" stroke-width="0.04000"/>
    <line x1="39.40850" y1="103.68404" x2="31.11903" y2="108.46997" stroke="green" stroke-width="0.04000"/>
    <line x1="43.22584" y1="105.75249" x2="38.54048" y2="108.45758" stroke="green" stroke-width="0.04000"/>
    <line x1="43.13910" y1="105.68710" x2="38.44655" y2="108.39634" stroke="green" stroke-width="0.04000"/>
    <line x1="39.31319" y1="103.62360" x2="31.13777" y2="108.34368" stroke="green" stroke-width="0.04000"/>
    <line x1="43.04498" y1="105.62597" x2="38.35262" y2="108.33511" stroke="green" stroke-width="0.04000"/>
    <line x1="42.95086" y1="105.56484" x2="38.25870" y2="108.27386" stroke="green" stroke-width="0.04000"/>
    <line x1="39.21788" y1="103.56316" x2="31.15651" y2="108.21739" stroke="green" stroke-width="0.04000"/>
    <line x1="42.85674" y1="105.50371" x2="38.16476" y2="108.21262" stroke="green" stroke-width="0.04000"/>
    <line x1="42.76262" y1="105.44258" x2="38.07084" y2="108.15138" stroke="green" stroke-width="0.04000"/>
    <line x1="39.12256" y1="103.50272" x2="31.17526" y2="108.09109" stroke="green" stroke-width="0.04000"/>
    <line x1="42.66849" y1="105.38145" x2="37.98370" y2="108.08622" stroke="green" stroke-width="0.04000"/>
    <line x1="42.57437" y1="105.32033" x2="37.90617" y2="108.01551" stroke="green" stroke-width="0.04000"/>
    <line x1="39.02725" y1="103.44228" x2="31.19400" y2="107.96480" stroke="green" stroke-width="0.04000"/>
    <line x1="42.48025" y1="105.25919" x2="37.82595" y2="107.94636" stroke="green" stroke-width="0.04000"/>
    <line x1="42.38613" y1="105.19807" x2="37.73560" y2="107.88306" stroke="green" stroke-width="0.04000"/>
    <line x1="38.93194" y1="103.38183" x2="31.18884" y2="107.85231" stroke="green" stroke-width="0.04000"/>
    <line x1="42.28783" y1="105.13935" x2="37.64524" y2="107.81975" stroke="green" stroke-width="0.04000"/>
    <line x1="42.17543" y1="105.08877" x2="37.55488" y2="107.75645" stroke="green" stroke-width="0.04000"/>
    <line x1="38.81475" y1="103.33402" x2="31.16518" y2="107.75050" stroke="green" stroke-width="0.04000"/>
    <line x1="42.06304" y1="105.03819" x2="37.46452" y2="107.69315" stroke="green" stroke-width="0.04000"/>
    <line x1="38.76274" y1="103.24858" x2="31.14153" y2="107.64869" stroke="green" stroke-width="0.04000"/>
    <line x1="41.95065" y1="104.98761" x2="37.37416" y2="107.62984" stroke="green" stroke-width="0.04000"/>
    <line x1="41.83826" y1="104.93703" x2="37.28381" y2="107.56654" stroke="green" stroke-width="0.04000"/>
    <line x1="38.71793" y1="103.15898" x2="31.11787" y2="107.54688" stroke="green" stroke-width="0.04000"/>
    <line x1="41.72586" y1="104.88645" x2="37.19345" y2="107.50324" stroke="green" stroke-width="0.04000"/>
    <line x1="38.67311" y1="103.06938" x2="31.09421" y2="107.44507" stroke="green" stroke-width="0.04000"/>
    <line x1="41.61347" y1="104.83587" x2="37.10309" y2="107.43994" stroke="green" stroke-width="0.04000"/>
    <line x1="41.50108" y1="104.78529" x2="37.03451" y2="107.36406" stroke="green" stroke-width="0.04000"/>
    <line x1="38.62830" y1="102.97978" x2="31.07055" y2="107.34325" stroke="green" stroke-width="0.04000"/>
    <line x1="41.38868" y1="104.73471" x2="36.97248" y2="107.28441" stroke="green" stroke-width="0.04000"/>
    <line x1="38.58349" y1="102.89019" x2="31.04689" y2="107.24145" stroke="green" stroke-width="0.04000"/>
    <line x1="41.28841" y1="104.67713" x2="36.90771" y2="107.20634" stroke="green" stroke-width="0.04000"/>
    <line x1="38.53868" y1="102.80059" x2="31.02323" y2="107.13963" stroke="green" stroke-width="0.04000"/>
    <line x1="41.19177" y1="104.61746" x2="36.84293" y2="107.12827" stroke="green" stroke-width="0.04000"/>
    <line x1="41.09077" y1="104.56030" x2="36.75716" y2="107.06232" stroke="green" stroke-width="0.04000"/>
    <line x1="38.49308" y1="102.71145" x2="30.99957" y2="107.03783" stroke="green" stroke-width="0.04000"/>
    <line x1="40.98300" y1="104.50705" x2="36.64753" y2="107.01013" stroke="green" stroke-width="0.04000"/>
    <line x1="40.87523" y1="104.45380" x2="36.53791" y2="106.95795" stroke="green" stroke-width="0.04000"/>
    <line x1="38.44510" y1="102.62368" x2="30.96777" y2="106.94072" stroke="green" stroke-width="0.04000"/>
    <line x1="40.76747" y1="104.40055" x2="36.42830" y2="106.90577" stroke="green" stroke-width="0.04000"/>
    <line x1="40.65970" y1="104.34730" x2="36.31868" y2="106.85359" stroke="green" stroke-width="0.04000"/>
    <line x1="38.39711" y1="102.53592" x2="30.92116" y2="106.85216" stroke="green" stroke-width="0.04000"/>
    <line x1="40.55194" y1="104.29404" x2="36.20906" y2="106.80141" stroke="green" stroke-width="0.04000"/>
    <line x1="38.34912" y1="102.44815" x2="30.87885" y2="106.76112" stroke="green" stroke-width="0.04000"/>
    <line x1="40.44175" y1="104.24220" x2="36.10324" y2="106.74704" stroke="green" stroke-width="0.04000"/>
    <line x1="40.32930" y1="104.19164" x2="36.01477" y2="106.68264" stroke="green" stroke-width="0.04000"/>
    <line x1="38.31705" y1="102.35120" x2="30.85283" y2="106.66067" stroke="green" stroke-width="0.04000"/>
    <line x1="40.21687" y1="104.14109" x2="35.92630" y2="106.61825" stroke="green" stroke-width="0.04000"/>
    <line x1="38.28020" y1="102.25700" x2="30.82681" y2="106.56022" stroke="green" stroke-width="0.04000"/>
    <line x1="40.10443" y1="104.09053" x2="35.83784" y2="106.55385" stroke="green" stroke-width="0.04000"/>
    <line x1="39.99523" y1="104.03811" x2="35.74937" y2="106.48946" stroke="green" stroke-width="0.04000"/>
    <line x1="38.24234" y1="102.16339" x2="30.80079" y2="106.45977" stroke="green" stroke-width="0.04000"/>
    <line x1="39.89598" y1="103.97994" x2="35.66091" y2="106.42506" stroke="green" stroke-width="0.04000"/>
    <line x1="38.20448" y1="102.06979" x2="30.77477" y2="106.35933" stroke="green" stroke-width="0.04000"/>
    <line x1="38.16662" y1="101.97617" x2="30.74875" y2="106.25888" stroke="green" stroke-width="0.04000"/>
    <line x1="38.12875" y1="101.88256" x2="30.72273" y2="106.15843" stroke="green" stroke-width="0.04000"/>
    <line x1="38.09089" y1="101.78895" x2="30.69671" y2="106.05798" stroke="green" stroke-width="0.04000"/>
    <line x1="38.05303" y1="101.69534" x2="30.66694" y2="105.95970" stroke="green" stroke-width="0.04000"/>
    <line x1="38.01517" y1="101.60173" x2="30.62205" y2="105.87015" stroke="green" stroke-width="0.04000"/>
    <line x1="37.98386" y1="101.50434" x2="30.57717" y2="105.78059" stroke="green" stroke-width="0.04000"/>
    <line x1="37.97057" y1="101.39654" x2="30.53228" y2="105.69103" stroke="green" stroke-width="0.04000"/>
    <line x1="37.95729" y1="101.28873" x2="30.48740" y2="105.60148" stroke="green" stroke-width="0.04000"/>
    <line x1="37.94401" y1="101.18093" x2="30.44251" y2="105.51192" stroke="green" stroke-width="0.04000"/>
    <line x1="37.93073" y1="101.07314" x2="30.39696" y2="105.42275" stroke="green" stroke-width="0.04000"/>
    <line x1="37.91744" y1="100.96533" x2="30.34967" y2="105.33459" stroke="green" stroke-width="0.04000"/>
    <line x1="37.90416" y1="100.85753" x2="30.30238" y2="105.24642" stroke="green" stroke-width="0.04000"/>
    <line x1="37.89088" y1="100.74973" x2="30.25509" y2="105.15825" stroke="green" stroke-width="0.04000"/>
    <line x1="37.87278" y1="100.64471" x2="30.20646" y2="105.07085" stroke="green" stroke-width="0.04000"/>
    <line x1="37.83965" y1="100.54836" x2="30.15030" y2="104.98782" stroke="green" stroke-width="0.04000"/>
    <line x1="37.80973" y1="100.45017" x2="30.09413" y2="104.90477" stroke="green" stroke-width="0.04000"/>
    <line x1="37.78401" y1="100.34955" x2="30.03797" y2="104.82173" stroke="green" stroke-width="0.04000"/>
    <line x1="37.75778" y1="100.24922" x2="29.98180" y2="104.73869" stroke="green" stroke-width="0.04000"/>
    <line x1="37.71676" y1="100.15743" x2="29.92564" y2="104.65564" stroke="green" stroke-width="0.04000"/>
    <line x1="37.67575" y1="100.06564" x2="29.86947" y2="104.57259" stroke="green" stroke-width="0.04000"/>
    <line x1="37.63473" y1="99.97385" x2="29.81331" y2="104.48956" stroke="green" stroke-width="0.04000"/>
    <line x1="37.59371" y1="99.88206" x2="29.75714" y2="104.40651" stroke="green" stroke-width="0.04000"/>
    <line x1="37.55269" y1="99.79028" x2="29.70835" y2="104.31921" stroke="green" stroke-width="0.04000"/>
    <line x1="37.51168" y1="99.69849" x2="29.66282" y2="104.23003" stroke="green" stroke-width="0.04000"/>
    <line x1="37.47245" y1="99.60567" x2="29.62229" y2="104.13795" stroke="green" stroke-width="0.04000"/>
    <line x1="37.45182" y1="99.50211" x2="29.58176" y2="104.04589" stroke="green" stroke-width="0.04000"/>
    <line x1="37.43121" y1="99.39854" x2="29.54123" y2="103.95382" stroke="green" stroke-width="0.04000"/>
    <line x1="37.41058" y1="99.29498" x2="29.50070" y2="103.86175" stroke="green" stroke-width="0.04000"/>
    <line x1="37.38997" y1="99.19141" x2="29.46017" y2="103.76968" stroke="green" stroke-width="0.04000"/>
    <line x1="37.36934" y1="99.08784" x2="29.41964" y2="103.67760" stroke="green" stroke-width="0.04000"/>
    <line x1="37.34872" y1="98.98428" x2="29.38704" y2="103.58096" stroke="green" stroke-width="0.04000"/>
    <line x1="37.31160" y1="98.89024" x2="29.35610" y2="103.48335" stroke="green" stroke-width="0.04000"/>
    <line x1="37.25461" y1="98.80768" x2="29.32516" y2="103.38575" stroke="green" stroke-width="0.04000"/>
    <line x1="37.18906" y1="98.73005" x2="29.29421" y2="103.28814" stroke="green" stroke-width="0.04000"/>
    <line x1="37.12352" y1="98.65242" x2="29.27552" y2="103.18346" stroke="green" stroke-width="0.04000"/>
    <line x1="37.05797" y1="98.57479" x2="29.26549" y2="103.07378" stroke="green" stroke-width="0.04000"/>
    <line x1="36.99242" y1="98.49717" x2="29.25689" y2="102.96328" stroke="green" stroke-width="0.04000"/>
    <line x1="36.92688" y1="98.41954" x2="29.24829" y2="102.85278" stroke="green" stroke-width="0.04000"/>
    <line x1="36.86134" y1="98.34191" x2="29.23969" y2="102.74227" stroke="green" stroke-width="0.04000"/>
    <line x1="36.79579" y1="98.26428" x2="29.23109" y2="102.63177" stroke="green" stroke-width="0.04000"/>
    <line x1="36.73025" y1="98.18666" x2="29.22249" y2="102.52127" stroke="green" stroke-width="0.04000"/>
    <line x1="36.66470" y1="98.10903" x2="29.21410" y2="102.41064" stroke="green" stroke-width="0.04000"/>
    <line x1="36.58322" y1="98.04060" x2="29.21339" y2="102.29557" stroke="green" stroke-width="0.04000"/>
    <line x1="36.47700" y1="97.98646" x2="29.21268" y2="102.18051" stroke="green" stroke-width="0.04000"/>
    <line x1="36.37077" y1="97.93232" x2="29.21587" y2="102.06320" stroke="green" stroke-width="0.04000"/>
    <line x1="36.26455" y1="97.87818" x2="29.23505" y2="101.93666" stroke="green" stroke-width="0.04000"/>
    <line x1="36.14885" y1="97.82951" x2="29.25424" y2="101.81012" stroke="green" stroke-width="0.04000"/>
    <line x1="36.03101" y1="97.78207" x2="29.27342" y2="101.68356" stroke="green" stroke-width="0.04000"/>
    <line x1="35.91317" y1="97.73463" x2="29.29261" y2="101.55701" stroke="green" stroke-width="0.04000"/>
    <line x1="35.79534" y1="97.68719" x2="29.31225" y2="101.43021" stroke="green" stroke-width="0.04000"/>
    <line x1="35.67464" y1="97.64141" x2="29.34773" y2="101.29425" stroke="green" stroke-width="0.04000"/>
    <line x1="35.52540" y1="97.61211" x2="29.38321" y2="101.15830" stroke="green" stroke-width="0.04000"/>
    <line x1="35.39267" y1="97.57327" x2="29.42106" y2="101.02098" stroke="green" stroke-width="0.04000"/>
    <line x1="35.25273" y1="97.53859" x2="29.47030" y2="100.87708" stroke="green" stroke-width="0.04000"/>
    <line x1="35.09931" y1="97.51170" x2="29.51954" y2="100.73318" stroke="green" stroke-width="0.04000"/>
    <line x1="34.94590" y1="97.48479" x2="29.56878" y2="100.58928" stroke="green" stroke-width="0.04000"/>
    <line x1="34.79249" y1="97.45790" x2="29.61802" y2="100.44538" stroke="green" stroke-width="0.04000"/>
    <line x1="34.63908" y1="97.43101" x2="29.68104" y2="100.29353" stroke="green" stroke-width="0.04000"/>
    <line x1="34.47422" y1="97.41071" x2="29.74778" y2="100.13953" stroke="green" stroke-width="0.04000"/>
    <line x1="34.30093" y1="97.39529" x2="29.81452" y2="99.98552" stroke="green" stroke-width="0.04000"/>
    <line x1="34.12764" y1="97.37987" x2="29.89148" y2="99.82561" stroke="green" stroke-width="0.04000"/>
    <line x1="33.95436" y1="97.36444" x2="29.98581" y2="99.65569" stroke="green" stroke-width="0.04000"/>
    <line x1="33.76329" y1="97.35929" x2="30.08013" y2="99.48576" stroke="green" stroke-width="0.04000"/>
    <line x1="33.56564" y1="97.35793" x2="30.18632" y2="99.30898" stroke="green" stroke-width="0.04000"/>
    <line x1="33.35032" y1="97.36678" x2="30.29703" y2="99.12959" stroke="green" stroke-width="0.04000"/>
    <line x1="33.06589" y1="97.41553" x2="30.41284" y2="98.94727" stroke="green" stroke-width="0.04000"/>
    <line x1="32.75529" y1="97.47938" x2="30.53775" y2="98.75967" stroke="green" stroke-width="0.04000"/>
    <line x1="32.42192" y1="97.55637" x2="30.67765" y2="98.56343" stroke="green" stroke-width="0.04000"/>
    <line x1="31.95267" y1="97.71183" x2="30.98878" y2="98.26833" stroke="green" stroke-width="0.04000"/>
    <path d="M 33.9076 97.3603 L 34.574 97.4196 L 35.3062 97.548 L 35.5656 97.6239 L 35.6863 97.6433 L 36.2451 97.8682 L 36.6248 98.0618 L 37.2673 98.8226 L 37.338 98.9305 L 37.4743 99.6148 L 37.7591 100.252 L 37.8208 100.494 L 37.8808 100.668 L 37.9874 101.533 L 38.3163 102.346 L 38.3255 102.405 L 38.5049 102.733 L 38.8035 103.33 L 38.8615 103.351 L 38.9272 103.379 L 39.6207 103.819 L 40.0196 104.052 L 40.5003 104.269 L 41.133 104.581 L 41.3627 104.723 L 42.2974 105.144 L 42.3017 105.146 L 42.3425 105.17 L 43.1478 105.693 L 43.2252 105.752 L 44.0644 106.289 L 44.2968 106.493 L 44.816 106.879 L 45.3374 107.33 L 45.5615 107.506 L 45.9484 107.813 L 46.2543 108.146 L 46.32 108.658 L 46.6726 109.15 L 46.3199 109.527 L 45.8441 110.084 L 45.5383 110.229 L 45.1616 110.273 L 44.5497 110.4 L 43.9212 110.446 L 43.6339 110.427 L 43.3787 110.377 L 42.6341 110.273 L 42.0932 110.133 L 41.6865 109.975 L 40.9346 109.69 L 40.8477 109.656 L 40.8197 109.646 L 39.8421 109.205 L 39.7716 109.176 L 39.2408 108.887 L 38.8614 108.671 L 38.8131 108.635 L 38.0158 108.116 L 37.8449 107.96 L 37.0805 107.424 L 36.9858 107.3 L 36.8085 107.087 L 36.1191 106.759 L 35.6565 106.422 L 34.8461 106.96 L 34.7994 106.98 L 34.8039 107.021 L 34.6557 108.022 L 34.594 108.36 L 34.8004 109.074 L 34.8813 109.614 L 35.0861 110.152 L 35.4187 111.022 L 35.4407 111.085 L 35.5322 111.433 L 35.7228 112.206 L 35.7251 112.298 L 35.7319 112.421 L 35.8279 113.37 L 35.8726 114.013 L 35.9016 114.375 L 35.9241 114.738 L 35.9089 115.342 L 35.8992 115.921 L 35.8875 116.368 L 35.8748 116.776 L 35.7968 117.384 L 35.7125 118.097 L 35.6776 118.34 L 35.6547 118.567 L 35.4635 119.373 L 35.2549 120.229 L 35.2431 120.274 L 35.2281 120.335 L 34.9774 121.167 L 34.7846 122.231 L 34.7786 122.251 L 34.7738 122.274 L 34.5959 123.246 L 34.35 123.943 L 33.7918 123.907 L 33.5027 123.859 L 33.4744 123.777 L 33.415 123.651 L 33.1095 122.889 L 32.8588 122.468 L 32.7509 122.033 L 32.6691 121.559 L 32.5832 121.088 L 32.5022 120.603 L 32.4298 120.209 L 32.3658 119.731 L 32.2838 119.218 L 32.175 118.399 L 32.1448 118.233 L 32.1346 118.151 L 32.0022 117.297 L 31.9607 116.875 L 31.8945 116.401 L 31.7961 115.561 L 31.7834 115.413 L 31.7195 114.935 L 31.5956 114.459 L 31.5399 114.285 L 31.3256 113.66 L 31.1684 112.991 L 31.1479 112.75 L 30.981 111.847 L 30.9544 111.707 L 31.0309 110.833 L 30.9527 110.207 L 31.0484 109.798 L 31.0963 109.031 L 31.1102 108.799 L 31.0886 108.675 L 31.2022 107.91 L 30.9841 106.971 L 30.9511 106.91 L 30.8839 106.781 L 30.6759 105.978 L 30.4102 105.447 L 30.2149 105.083 L 29.7483 104.393 L 29.6739 104.255 L 29.4126 103.662 L 29.2898 103.274 L 29.2726 103.165 L 29.2141 102.414 L 29.2121 102.088 L 29.3112 101.434 L 29.4126 101.046 L 29.6285 100.415 L 29.8565 99.8886 L 30.1062 99.4389 L 30.3681 99.0145 L 30.6526 98.5872 L 31.2303 98.0392 L 31.4501 97.9097 L 32.217 97.6077 L 32.6096 97.5093 L 33.2894 97.3696 L 33.5457 97.3578 L 33.9076 97.3603" fill="none" stroke="blue" stroke-width="0.04000" fill-rule="evenodd" fill-opacity="1.000"/>
  </g>
</svg>
