<?xml version="1.0" encoding="UTF-8" standalone="yes"?>
<svg xmlns="http://www.w3.org/2000/svg"
     xmlns:xlink="http://www.w3.org/1999/xlink"
     width="2020.0000mm" height="1600.0000mm"
     viewBox="0 0 202.000000 160.000000">
  <!--
    Build plate : 150.00 x 150.00 mm
    Coordinate  : 1 SVG unit = 1 mm
    Display zoom: 10x  (width/height = viewBox x 10)
    Hatch stroke: 0.04 mm = ~28 mm on screen at this zoom
    Legend panel: right margin (42 mm wide)
  -->
  <defs>
    <marker id="endArrow" markerWidth="2" markerHeight="1.4"
            refX="0" refY="0.7" orient="auto"
            markerUnits="strokeWidth">
      <polyline fill="darkblue" points="0,0 2,0.7 0,1.4 0.2,0.7"/>
    </marker>
  </defs>
  <!-- Background -->
  <rect x="0" y="0" width="202.000000" height="160.000000" fill="#f0f0f0" stroke="none"/>
  <!-- Build plate boundary (150 x 150 mm) -->
  <rect x="5.000000" y="5.000000" width="150.000000" height="150.000000"
        fill="#ffffff" stroke="#aaaaaa" stroke-width="0.2" stroke-dasharray="1,0.5"/>
  <!-- Build plate centre circle (r = 75.00 mm) -->
  <circle cx="80.000000" cy="80.000000" r="75.000000"
          fill="none" stroke="#bbbbbb" stroke-width="0.15" stroke-dasharray="0.8,0.4"/>
  <!-- Centre cross-hair -->
  <line x1="5.000000" y1="80.000000" x2="155.000000" y2="80.000000" stroke="#cccccc" stroke-width="0.1"/>
  <line x1="80.000000" y1="5.000000" x2="80.000000" y2="155.000000" stroke="#cccccc" stroke-width="0.1"/>
  <circle cx="80.000000" cy="80.000000" r="0.3" fill="#cccccc" stroke="none"/>
  <!-- Corner labels -->
  <text x="5.400000" y="4.600000" font-family="sans-serif" font-size="2" fill="#888888">0,0</text>
  <text x="154.600006" y="4.600000" font-family="sans-serif" font-size="2" fill="#888888" text-anchor="end">150,0</text>
  <text x="5.400000" y="157.199997" font-family="sans-serif" font-size="2" fill="#888888">0,150</text>
  <!-- Layer geometry -->
  <g id="geometry">
    <line x1="74.42283" y1="96.50000" x2="91.05574" y2="96.20967" stroke="green" stroke-width="0.04000"/>
    <line x1="80.15285" y1="96.50000" x2="91.05574" y2="96.30969" stroke="green" stroke-width="0.04000"/>
    <line x1="85.88261" y1="96.50000" x2="91.05574" y2="96.40970" stroke="green" stroke-width="0.04000"/>
    <line x1="68.94425" y1="96.49561" x2="91.05574" y2="96.10966" stroke="green" stroke-width="0.04000"/>
    <line x1="68.94425" y1="96.39560" x2="91.05574" y2="96.00964" stroke="green" stroke-width="0.04000"/>
    <line x1="68.94425" y1="96.29559" x2="91.05574" y2="95.90962" stroke="green" stroke-width="0.04000"/>
    <line x1="68.94425" y1="96.19557" x2="91.05574" y2="95.80961" stroke="green" stroke-width="0.04000"/>
    <line x1="68.94425" y1="96.09555" x2="91.05574" y2="95.70959" stroke="green" stroke-width="0.04000"/>
    <line x1="68.94425" y1="95.99554" x2="91.05574" y2="95.60957" stroke="green" stroke-width="0.04000"/>
    <line x1="68.94425" y1="95.89552" x2="91.05574" y2="95.50957" stroke="green" stroke-width="0.04000"/>
    <line x1="68.94425" y1="95.79551" x2="91.05574" y2="95.40955" stroke="green" stroke-width="0.04000"/>
    <line x1="68.94425" y1="95.69550" x2="91.05574" y2="95.30954" stroke="green" stroke-width="0.04000"/>
    <line x1="68.94425" y1="95.59547" x2="91.05574" y2="95.20952" stroke="green" stroke-width="0.04000"/>
    <line x1="68.94425" y1="95.49546" x2="91.05574" y2="95.10950" stroke="green" stroke-width="0.04000"/>
    <line x1="68.94425" y1="95.39545" x2="91.05574" y2="95.00949" stroke="green" stroke-width="0.04000"/>
    <line x1="68.94425" y1="95.29543" x2="91.05574" y2="94.90948" stroke="green" stroke-width="0.04000"/>
    <line x1="68.94425" y1="95.19542" x2="91.05574" y2="94.80946" stroke="green" stroke-width="0.04000"/>
    <line x1="68.94425" y1="95.09540" x2="91.05574" y2="94.70944" stroke="green" stroke-width="0.04000"/>
    <line x1="68.94425" y1="94.99538" x2="91.05574" y2="94.60943" stroke="green" stroke-width="0.04000"/>
    <line x1="68.94425" y1="94.89537" x2="91.05574" y2="94.50941" stroke="green" stroke-width="0.04000"/>
    <line x1="68.94425" y1="94.79536" x2="91.05574" y2="94.40940" stroke="green" stroke-width="0.04000"/>
    <line x1="68.94425" y1="94.69534" x2="91.05574" y2="94.30939" stroke="green" stroke-width="0.04000"/>
    <line x1="68.94425" y1="94.59532" x2="91.05574" y2="94.20937" stroke="green" stroke-width="0.04000"/>
    <line x1="68.94425" y1="94.49531" x2="91.05574" y2="94.10935" stroke="green" stroke-width="0.04000"/>
    <line x1="68.94425" y1="94.39529" x2="91.05574" y2="94.00934" stroke="green" stroke-width="0.04000"/>
    <line x1="68.94425" y1="94.29528" x2="91.05574" y2="93.90932" stroke="green" stroke-width="0.04000"/>
    <line x1="68.94425" y1="94.19526" x2="91.05574" y2="93.80930" stroke="green" stroke-width="0.04000"/>
    <line x1="68.94425" y1="94.09525" x2="91.05574" y2="93.70929" stroke="green" stroke-width="0.04000"/>
    <line x1="68.94425" y1="93.99523" x2="91.05574" y2="93.60928" stroke="green" stroke-width="0.04000"/>
    <line x1="68.94425" y1="93.89522" x2="91.05574" y2="93.50926" stroke="green" stroke-width="0.04000"/>
    <line x1="68.94425" y1="93.79520" x2="91.05574" y2="93.40925" stroke="green" stroke-width="0.04000"/>
    <line x1="68.94425" y1="93.69518" x2="91.05574" y2="93.30923" stroke="green" stroke-width="0.04000"/>
    <line x1="68.94425" y1="93.59517" x2="91.05574" y2="93.20921" stroke="green" stroke-width="0.04000"/>
    <line x1="68.94425" y1="93.49516" x2="91.05574" y2="93.10920" stroke="green" stroke-width="0.04000"/>
    <line x1="68.94425" y1="93.39514" x2="91.05574" y2="93.00919" stroke="green" stroke-width="0.04000"/>
    <line x1="68.94425" y1="93.29513" x2="91.05574" y2="92.90917" stroke="green" stroke-width="0.04000"/>
    <line x1="68.94425" y1="93.19511" x2="91.05574" y2="92.80915" stroke="green" stroke-width="0.04000"/>
    <line x1="68.94425" y1="93.09509" x2="91.05574" y2="92.70914" stroke="green" stroke-width="0.04000"/>
    <line x1="68.94425" y1="92.99508" x2="91.05574" y2="92.60912" stroke="green" stroke-width="0.04000"/>
    <line x1="68.94425" y1="92.89507" x2="91.05574" y2="92.50911" stroke="green" stroke-width="0.04000"/>
    <line x1="68.94425" y1="92.79505" x2="91.05574" y2="92.40910" stroke="green" stroke-width="0.04000"/>
    <line x1="68.94425" y1="92.69503" x2="91.05574" y2="92.30907" stroke="green" stroke-width="0.04000"/>
    <line x1="68.94425" y1="92.59502" x2="91.05574" y2="92.20906" stroke="green" stroke-width="0.04000"/>
    <line x1="68.94425" y1="92.49500" x2="91.05574" y2="92.10905" stroke="green" stroke-width="0.04000"/>
    <line x1="68.94425" y1="92.39499" x2="91.05574" y2="92.00903" stroke="green" stroke-width="0.04000"/>
    <line x1="68.94425" y1="92.29498" x2="91.05574" y2="91.90902" stroke="green" stroke-width="0.04000"/>
    <line x1="68.94425" y1="92.19496" x2="91.05574" y2="91.80901" stroke="green" stroke-width="0.04000"/>
    <line x1="68.94425" y1="92.09494" x2="91.05574" y2="91.70898" stroke="green" stroke-width="0.04000"/>
    <line x1="68.94425" y1="91.99493" x2="91.05574" y2="91.60897" stroke="green" stroke-width="0.04000"/>
    <line x1="68.94425" y1="91.89491" x2="91.05574" y2="91.50896" stroke="green" stroke-width="0.04000"/>
    <line x1="68.94425" y1="91.79490" x2="91.05574" y2="91.40894" stroke="green" stroke-width="0.04000"/>
    <line x1="68.94425" y1="91.69488" x2="91.05574" y2="91.30893" stroke="green" stroke-width="0.04000"/>
    <line x1="68.94425" y1="91.59486" x2="91.05574" y2="91.20891" stroke="green" stroke-width="0.04000"/>
    <line x1="68.94425" y1="91.49485" x2="91.05574" y2="91.10889" stroke="green" stroke-width="0.04000"/>
    <line x1="68.94425" y1="91.39484" x2="91.05574" y2="91.00888" stroke="green" stroke-width="0.04000"/>
    <line x1="68.94425" y1="91.29482" x2="91.05574" y2="90.90887" stroke="green" stroke-width="0.04000"/>
    <line x1="68.94425" y1="91.19480" x2="91.05574" y2="90.80885" stroke="green" stroke-width="0.04000"/>
    <line x1="68.94425" y1="91.09479" x2="91.05574" y2="90.70883" stroke="green" stroke-width="0.04000"/>
    <line x1="68.94425" y1="90.99477" x2="91.05574" y2="90.60882" stroke="green" stroke-width="0.04000"/>
    <line x1="68.94425" y1="90.89476" x2="91.05574" y2="90.50880" stroke="green" stroke-width="0.04000"/>
    <line x1="68.94425" y1="90.79475" x2="91.05574" y2="90.40879" stroke="green" stroke-width="0.04000"/>
    <line x1="68.94425" y1="90.69473" x2="91.05574" y2="90.30877" stroke="green" stroke-width="0.04000"/>
    <line x1="68.94425" y1="90.59471" x2="91.05574" y2="90.20876" stroke="green" stroke-width="0.04000"/>
    <line x1="68.94425" y1="90.49470" x2="91.05574" y2="90.10874" stroke="green" stroke-width="0.04000"/>
    <line x1="68.94425" y1="90.39468" x2="91.05574" y2="90.00873" stroke="green" stroke-width="0.04000"/>
    <line x1="68.94425" y1="90.29467" x2="91.05574" y2="89.90871" stroke="green" stroke-width="0.04000"/>
    <line x1="68.94425" y1="90.19465" x2="91.05574" y2="89.80869" stroke="green" stroke-width="0.04000"/>
    <line x1="68.94425" y1="90.09464" x2="91.05574" y2="89.70868" stroke="green" stroke-width="0.04000"/>
    <line x1="68.94425" y1="89.99462" x2="91.05574" y2="89.60867" stroke="green" stroke-width="0.04000"/>
    <line x1="68.94425" y1="89.89461" x2="91.05574" y2="89.50865" stroke="green" stroke-width="0.04000"/>
    <line x1="68.94425" y1="89.79459" x2="91.05574" y2="89.40864" stroke="green" stroke-width="0.04000"/>
    <line x1="68.94425" y1="89.69457" x2="91.05574" y2="89.30862" stroke="green" stroke-width="0.04000"/>
    <line x1="68.94425" y1="89.59456" x2="91.05574" y2="89.20860" stroke="green" stroke-width="0.04000"/>
    <line x1="68.94425" y1="89.49454" x2="91.05574" y2="89.10859" stroke="green" stroke-width="0.04000"/>
    <line x1="68.94425" y1="89.39453" x2="91.05574" y2="89.00858" stroke="green" stroke-width="0.04000"/>
    <line x1="68.94425" y1="89.29452" x2="91.05574" y2="88.90856" stroke="green" stroke-width="0.04000"/>
    <line x1="68.94425" y1="89.19450" x2="91.05574" y2="88.80854" stroke="green" stroke-width="0.04000"/>
    <line x1="68.94425" y1="89.09448" x2="91.05574" y2="88.70853" stroke="green" stroke-width="0.04000"/>
    <line x1="68.94425" y1="88.99447" x2="91.05574" y2="88.60851" stroke="green" stroke-width="0.04000"/>
    <line x1="68.94425" y1="88.89445" x2="91.05574" y2="88.50850" stroke="green" stroke-width="0.04000"/>
    <line x1="68.94425" y1="88.79444" x2="91.05574" y2="88.40849" stroke="green" stroke-width="0.04000"/>
    <line x1="68.94425" y1="88.69442" x2="91.05574" y2="88.30846" stroke="green" stroke-width="0.04000"/>
    <line x1="68.94425" y1="88.59441" x2="91.05574" y2="88.20845" stroke="green" stroke-width="0.04000"/>
    <line x1="68.94425" y1="88.49439" x2="91.05574" y2="88.10844" stroke="green" stroke-width="0.04000"/>
    <line x1="68.94425" y1="88.39438" x2="91.05574" y2="88.00842" stroke="green" stroke-width="0.04000"/>
    <line x1="68.94425" y1="88.29436" x2="91.05574" y2="87.90841" stroke="green" stroke-width="0.04000"/>
    <line x1="68.94425" y1="88.19434" x2="91.05574" y2="87.80839" stroke="green" stroke-width="0.04000"/>
    <line x1="68.94425" y1="88.09433" x2="91.05574" y2="87.70837" stroke="green" stroke-width="0.04000"/>
    <line x1="68.94425" y1="87.99432" x2="91.05574" y2="87.60836" stroke="green" stroke-width="0.04000"/>
    <line x1="68.94425" y1="87.89430" x2="91.05574" y2="87.50835" stroke="green" stroke-width="0.04000"/>
    <line x1="68.94425" y1="87.79429" x2="91.05574" y2="87.40833" stroke="green" stroke-width="0.04000"/>
    <line x1="68.94425" y1="87.69427" x2="91.05574" y2="87.30831" stroke="green" stroke-width="0.04000"/>
    <line x1="68.94425" y1="87.59425" x2="91.05574" y2="87.20830" stroke="green" stroke-width="0.04000"/>
    <line x1="68.94425" y1="87.49424" x2="91.05574" y2="87.10828" stroke="green" stroke-width="0.04000"/>
    <line x1="68.94425" y1="87.39423" x2="91.05574" y2="87.00827" stroke="green" stroke-width="0.04000"/>
    <line x1="68.94425" y1="87.29421" x2="91.05574" y2="86.90826" stroke="green" stroke-width="0.04000"/>
    <line x1="68.94425" y1="87.19419" x2="91.05574" y2="86.80824" stroke="green" stroke-width="0.04000"/>
    <line x1="68.94425" y1="87.09418" x2="91.05574" y2="86.70822" stroke="green" stroke-width="0.04000"/>
    <line x1="68.94425" y1="86.99416" x2="91.05574" y2="86.60821" stroke="green" stroke-width="0.04000"/>
    <line x1="68.94425" y1="86.89415" x2="91.05574" y2="86.50819" stroke="green" stroke-width="0.04000"/>
    <line x1="68.94425" y1="86.79414" x2="91.05574" y2="86.40818" stroke="green" stroke-width="0.04000"/>
    <line x1="68.94425" y1="86.69411" x2="91.05574" y2="86.30816" stroke="green" stroke-width="0.04000"/>
    <line x1="68.94425" y1="86.59411" x2="91.05574" y2="86.20815" stroke="green" stroke-width="0.04000"/>
    <line x1="68.94425" y1="86.49409" x2="91.05574" y2="86.10813" stroke="green" stroke-width="0.04000"/>
    <line x1="68.94425" y1="86.39407" x2="91.05574" y2="86.00812" stroke="green" stroke-width="0.04000"/>
    <line x1="68.94425" y1="86.29406" x2="91.05574" y2="85.90810" stroke="green" stroke-width="0.04000"/>
    <line x1="68.94425" y1="86.19404" x2="91.05574" y2="85.80808" stroke="green" stroke-width="0.04000"/>
    <line x1="68.94425" y1="86.09402" x2="91.05574" y2="85.70807" stroke="green" stroke-width="0.04000"/>
    <line x1="68.94425" y1="85.99402" x2="91.05574" y2="85.60806" stroke="green" stroke-width="0.04000"/>
    <line x1="68.94425" y1="85.89400" x2="91.05574" y2="85.50804" stroke="green" stroke-width="0.04000"/>
    <line x1="68.94425" y1="85.79398" x2="91.05574" y2="85.40803" stroke="green" stroke-width="0.04000"/>
    <line x1="68.94425" y1="85.69397" x2="91.05574" y2="85.30801" stroke="green" stroke-width="0.04000"/>
    <line x1="68.94425" y1="85.59395" x2="91.05574" y2="85.20799" stroke="green" stroke-width="0.04000"/>
    <line x1="68.94425" y1="85.49394" x2="91.05574" y2="85.10798" stroke="green" stroke-width="0.04000"/>
    <line x1="68.94425" y1="85.39393" x2="91.05574" y2="85.00797" stroke="green" stroke-width="0.04000"/>
    <line x1="68.94425" y1="85.29391" x2="91.05574" y2="84.90794" stroke="green" stroke-width="0.04000"/>
    <line x1="68.94425" y1="85.19389" x2="91.05574" y2="84.80793" stroke="green" stroke-width="0.04000"/>
    <line x1="68.94425" y1="85.09388" x2="91.05574" y2="84.70792" stroke="green" stroke-width="0.04000"/>
    <line x1="68.94425" y1="84.99387" x2="91.05574" y2="84.60790" stroke="green" stroke-width="0.04000"/>
    <line x1="68.94425" y1="84.89385" x2="91.05574" y2="84.50789" stroke="green" stroke-width="0.04000"/>
    <line x1="68.94425" y1="84.79383" x2="91.05574" y2="84.40787" stroke="green" stroke-width="0.04000"/>
    <line x1="68.94425" y1="84.69382" x2="91.05574" y2="84.30785" stroke="green" stroke-width="0.04000"/>
    <line x1="68.94425" y1="84.59380" x2="91.05574" y2="84.20784" stroke="green" stroke-width="0.04000"/>
    <line x1="68.94425" y1="84.49379" x2="91.05574" y2="84.10783" stroke="green" stroke-width="0.04000"/>
    <line x1="68.94425" y1="84.39378" x2="91.05574" y2="84.00781" stroke="green" stroke-width="0.04000"/>
    <line x1="68.94425" y1="84.29375" x2="91.05574" y2="83.90779" stroke="green" stroke-width="0.04000"/>
    <line x1="68.94425" y1="84.19374" x2="91.05574" y2="83.80778" stroke="green" stroke-width="0.04000"/>
    <line x1="68.94425" y1="84.09373" x2="91.05574" y2="83.70776" stroke="green" stroke-width="0.04000"/>
    <line x1="68.94425" y1="83.99371" x2="91.05574" y2="83.60775" stroke="green" stroke-width="0.04000"/>
    <line x1="68.94425" y1="83.89370" x2="91.05574" y2="83.50774" stroke="green" stroke-width="0.04000"/>
    <line x1="68.94425" y1="83.79368" x2="91.05574" y2="83.40771" stroke="green" stroke-width="0.04000"/>
    <line x1="68.94425" y1="83.69366" x2="91.05574" y2="83.30770" stroke="green" stroke-width="0.04000"/>
    <line x1="68.94425" y1="83.59365" x2="91.05574" y2="83.20769" stroke="green" stroke-width="0.04000"/>
    <line x1="68.94425" y1="83.49364" x2="91.05574" y2="83.10767" stroke="green" stroke-width="0.04000"/>
    <line x1="68.94425" y1="83.39362" x2="91.05574" y2="83.00766" stroke="green" stroke-width="0.04000"/>
    <line x1="68.94425" y1="83.29360" x2="91.05574" y2="82.90764" stroke="green" stroke-width="0.04000"/>
    <line x1="68.94425" y1="83.19359" x2="91.05574" y2="82.80762" stroke="green" stroke-width="0.04000"/>
    <line x1="68.94425" y1="83.09357" x2="91.05574" y2="82.70762" stroke="green" stroke-width="0.04000"/>
    <line x1="68.94425" y1="82.99356" x2="91.05574" y2="82.60760" stroke="green" stroke-width="0.04000"/>
    <line x1="68.94425" y1="82.89354" x2="91.05574" y2="82.50758" stroke="green" stroke-width="0.04000"/>
    <line x1="68.94425" y1="82.79353" x2="91.05574" y2="82.40756" stroke="green" stroke-width="0.04000"/>
    <line x1="68.94425" y1="82.69351" x2="91.05574" y2="82.30755" stroke="green" stroke-width="0.04000"/>
    <line x1="68.94425" y1="82.59350" x2="91.05574" y2="82.20753" stroke="green" stroke-width="0.04000"/>
    <line x1="68.94425" y1="82.49348" x2="91.05574" y2="82.10753" stroke="green" stroke-width="0.04000"/>
    <line x1="68.94425" y1="82.39346" x2="91.05574" y2="82.00751" stroke="green" stroke-width="0.04000"/>
    <line x1="68.94425" y1="82.29345" x2="91.05574" y2="81.90749" stroke="green" stroke-width="0.04000"/>
    <line x1="68.94425" y1="82.19344" x2="91.05574" y2="81.80748" stroke="green" stroke-width="0.04000"/>
    <line x1="68.94425" y1="82.09342" x2="91.05574" y2="81.70747" stroke="green" stroke-width="0.04000"/>
    <line x1="68.94425" y1="81.99341" x2="91.05574" y2="81.60745" stroke="green" stroke-width="0.04000"/>
    <line x1="68.94425" y1="81.89339" x2="91.05574" y2="81.50743" stroke="green" stroke-width="0.04000"/>
    <line x1="68.94425" y1="81.79337" x2="91.05574" y2="81.40742" stroke="green" stroke-width="0.04000"/>
    <line x1="68.94425" y1="81.69336" x2="91.05574" y2="81.30740" stroke="green" stroke-width="0.04000"/>
    <line x1="68.94425" y1="81.59335" x2="91.05574" y2="81.20739" stroke="green" stroke-width="0.04000"/>
    <line x1="68.94425" y1="81.49333" x2="91.05574" y2="81.10738" stroke="green" stroke-width="0.04000"/>
    <line x1="68.94425" y1="81.39331" x2="91.05574" y2="81.00735" stroke="green" stroke-width="0.04000"/>
    <line x1="68.94425" y1="81.29330" x2="91.05574" y2="80.90734" stroke="green" stroke-width="0.04000"/>
    <line x1="68.94425" y1="81.19328" x2="91.05574" y2="80.80733" stroke="green" stroke-width="0.04000"/>
    <line x1="68.94425" y1="81.09327" x2="91.05574" y2="80.70731" stroke="green" stroke-width="0.04000"/>
    <line x1="68.94425" y1="80.99326" x2="91.05574" y2="80.60730" stroke="green" stroke-width="0.04000"/>
    <line x1="68.94425" y1="80.89323" x2="91.05574" y2="80.50728" stroke="green" stroke-width="0.04000"/>
    <line x1="68.94425" y1="80.79322" x2="91.05574" y2="80.40726" stroke="green" stroke-width="0.04000"/>
    <line x1="68.94425" y1="80.69321" x2="91.05574" y2="80.30725" stroke="green" stroke-width="0.04000"/>
    <line x1="68.94425" y1="80.59319" x2="91.05574" y2="80.20724" stroke="green" stroke-width="0.04000"/>
    <line x1="68.94425" y1="80.49318" x2="91.05574" y2="80.10722" stroke="green" stroke-width="0.04000"/>
    <line x1="68.94425" y1="80.39316" x2="91.05574" y2="80.00720" stroke="green" stroke-width="0.04000"/>
    <line x1="68.94425" y1="80.29314" x2="91.05574" y2="79.90719" stroke="green" stroke-width="0.04000"/>
    <line x1="68.94425" y1="80.19313" x2="91.05574" y2="79.80717" stroke="green" stroke-width="0.04000"/>
    <line x1="68.94425" y1="80.09312" x2="91.05574" y2="79.70716" stroke="green" stroke-width="0.04000"/>
    <line x1="68.94425" y1="79.99310" x2="91.05574" y2="79.60715" stroke="green" stroke-width="0.04000"/>
    <line x1="68.94425" y1="79.89308" x2="91.05574" y2="79.50713" stroke="green" stroke-width="0.04000"/>
    <line x1="68.94425" y1="79.79307" x2="91.05574" y2="79.40711" stroke="green" stroke-width="0.04000"/>
    <line x1="68.94425" y1="79.69305" x2="91.05574" y2="79.30710" stroke="green" stroke-width="0.04000"/>
    <line x1="68.94425" y1="79.59304" x2="91.05574" y2="79.20708" stroke="green" stroke-width="0.04000"/>
    <line x1="68.94425" y1="79.49303" x2="91.05574" y2="79.10707" stroke="green" stroke-width="0.04000"/>
    <line x1="68.94425" y1="79.39301" x2="91.05574" y2="79.00705" stroke="green" stroke-width="0.04000"/>
    <line x1="68.94425" y1="79.29299" x2="91.05574" y2="78.90704" stroke="green" stroke-width="0.04000"/>
    <line x1="68.94425" y1="79.19298" x2="91.05574" y2="78.80702" stroke="green" stroke-width="0.04000"/>
    <line x1="68.94425" y1="79.09296" x2="91.05574" y2="78.70701" stroke="green" stroke-width="0.04000"/>
    <line x1="68.94425" y1="78.99295" x2="91.05574" y2="78.60699" stroke="green" stroke-width="0.04000"/>
    <line x1="68.94425" y1="78.89293" x2="91.05574" y2="78.50697" stroke="green" stroke-width="0.04000"/>
    <line x1="68.94425" y1="78.79292" x2="91.05574" y2="78.40696" stroke="green" stroke-width="0.04000"/>
    <line x1="68.94425" y1="78.69290" x2="91.05574" y2="78.30695" stroke="green" stroke-width="0.04000"/>
    <line x1="68.94425" y1="78.59289" x2="91.05574" y2="78.20693" stroke="green" stroke-width="0.04000"/>
    <line x1="68.94425" y1="78.49287" x2="91.05574" y2="78.10692" stroke="green" stroke-width="0.04000"/>
    <line x1="68.94425" y1="78.39285" x2="91.05574" y2="78.00690" stroke="green" stroke-width="0.04000"/>
    <line x1="68.94425" y1="78.29284" x2="91.05574" y2="77.90688" stroke="green" stroke-width="0.04000"/>
    <line x1="68.94425" y1="78.19283" x2="91.05574" y2="77.80687" stroke="green" stroke-width="0.04000"/>
    <line x1="68.94425" y1="78.09281" x2="91.05574" y2="77.70686" stroke="green" stroke-width="0.04000"/>
    <line x1="68.94425" y1="77.99279" x2="91.05574" y2="77.60683" stroke="green" stroke-width="0.04000"/>
    <line x1="68.94425" y1="77.89278" x2="91.05574" y2="77.50682" stroke="green" stroke-width="0.04000"/>
    <line x1="68.94425" y1="77.79276" x2="91.05574" y2="77.40681" stroke="green" stroke-width="0.04000"/>
    <line x1="68.94425" y1="77.69275" x2="91.05574" y2="77.30679" stroke="green" stroke-width="0.04000"/>
    <line x1="68.94425" y1="77.59274" x2="91.05574" y2="77.20678" stroke="green" stroke-width="0.04000"/>
    <line x1="68.94425" y1="77.49271" x2="91.05574" y2="77.10677" stroke="green" stroke-width="0.04000"/>
    <line x1="68.94425" y1="77.39270" x2="91.05574" y2="77.00674" stroke="green" stroke-width="0.04000"/>
    <line x1="68.94425" y1="77.29269" x2="91.05574" y2="76.90673" stroke="green" stroke-width="0.04000"/>
    <line x1="68.94425" y1="77.19267" x2="91.05574" y2="76.80672" stroke="green" stroke-width="0.04000"/>
    <line x1="68.94425" y1="77.09266" x2="91.05574" y2="76.70670" stroke="green" stroke-width="0.04000"/>
    <line x1="68.94425" y1="76.99264" x2="91.05574" y2="76.60668" stroke="green" stroke-width="0.04000"/>
    <line x1="68.94425" y1="76.89262" x2="91.05574" y2="76.50667" stroke="green" stroke-width="0.04000"/>
    <line x1="68.94425" y1="76.79261" x2="91.05574" y2="76.40665" stroke="green" stroke-width="0.04000"/>
    <line x1="68.94425" y1="76.69260" x2="91.05574" y2="76.30664" stroke="green" stroke-width="0.04000"/>
    <line x1="68.94425" y1="76.59258" x2="91.05574" y2="76.20663" stroke="green" stroke-width="0.04000"/>
    <line x1="68.94425" y1="76.49257" x2="91.05574" y2="76.10661" stroke="green" stroke-width="0.04000"/>
    <line x1="68.94425" y1="76.39255" x2="91.05574" y2="76.00659" stroke="green" stroke-width="0.04000"/>
    <line x1="68.94425" y1="76.29253" x2="91.05574" y2="75.90658" stroke="green" stroke-width="0.04000"/>
    <line x1="68.94425" y1="76.19252" x2="91.05574" y2="75.80656" stroke="green" stroke-width="0.04000"/>
    <line x1="68.94425" y1="76.09251" x2="91.05574" y2="75.70655" stroke="green" stroke-width="0.04000"/>
    <line x1="68.94425" y1="75.99249" x2="91.05574" y2="75.60654" stroke="green" stroke-width="0.04000"/>
    <line x1="68.94425" y1="75.89247" x2="91.05574" y2="75.50652" stroke="green" stroke-width="0.04000"/>
    <line x1="68.94425" y1="75.79246" x2="91.05574" y2="75.40650" stroke="green" stroke-width="0.04000"/>
    <line x1="68.94425" y1="75.69244" x2="91.05574" y2="75.30649" stroke="green" stroke-width="0.04000"/>
    <line x1="68.94425" y1="75.59243" x2="91.05574" y2="75.20647" stroke="green" stroke-width="0.04000"/>
    <line x1="68.94425" y1="75.49242" x2="91.05574" y2="75.10646" stroke="green" stroke-width="0.04000"/>
    <line x1="68.94425" y1="75.39240" x2="91.05574" y2="75.00644" stroke="green" stroke-width="0.04000"/>
    <line x1="68.94425" y1="75.29238" x2="91.05574" y2="74.90643" stroke="green" stroke-width="0.04000"/>
    <line x1="68.94425" y1="75.19237" x2="91.05574" y2="74.80641" stroke="green" stroke-width="0.04000"/>
    <line x1="68.94425" y1="75.09235" x2="91.05574" y2="74.70640" stroke="green" stroke-width="0.04000"/>
    <line x1="68.94425" y1="74.99234" x2="91.05574" y2="74.60638" stroke="green" stroke-width="0.04000"/>
    <line x1="68.94425" y1="74.89232" x2="91.05574" y2="74.50636" stroke="green" stroke-width="0.04000"/>
    <line x1="68.94425" y1="74.79230" x2="91.05574" y2="74.40635" stroke="green" stroke-width="0.04000"/>
    <line x1="68.94425" y1="74.69229" x2="91.05574" y2="74.30634" stroke="green" stroke-width="0.04000"/>
    <line x1="68.94425" y1="74.59228" x2="91.05574" y2="74.20632" stroke="green" stroke-width="0.04000"/>
    <line x1="68.94425" y1="74.49226" x2="91.05574" y2="74.10630" stroke="green" stroke-width="0.04000"/>
    <line x1="68.94425" y1="74.39224" x2="91.05574" y2="74.00629" stroke="green" stroke-width="0.04000"/>
    <line x1="68.94425" y1="74.29223" x2="91.05574" y2="73.90627" stroke="green" stroke-width="0.04000"/>
    <line x1="68.94425" y1="74.19221" x2="91.05574" y2="73.80626" stroke="green" stroke-width="0.04000"/>
    <line x1="68.94425" y1="74.09220" x2="91.05574" y2="73.70625" stroke="green" stroke-width="0.04000"/>
    <line x1="68.94425" y1="73.99218" x2="91.05574" y2="73.60622" stroke="green" stroke-width="0.04000"/>
    <line x1="68.94425" y1="73.89217" x2="91.05574" y2="73.50621" stroke="green" stroke-width="0.04000"/>
    <line x1="68.94425" y1="73.79215" x2="91.05574" y2="73.40620" stroke="green" stroke-width="0.04000"/>
    <line x1="68.94425" y1="73.69214" x2="91.05574" y2="73.30618" stroke="green" stroke-width="0.04000"/>
    <line x1="68.94425" y1="73.59212" x2="91.05574" y2="73.20617" stroke="green" stroke-width="0.04000"/>
    <line x1="68.94425" y1="73.49210" x2="91.05574" y2="73.10615" stroke="green" stroke-width="0.04000"/>
    <line x1="68.94425" y1="73.39209" x2="91.05574" y2="73.00613" stroke="green" stroke-width="0.04000"/>
    <line x1="68.94425" y1="73.29208" x2="91.05574" y2="72.90612" stroke="green" stroke-width="0.04000"/>
    <line x1="68.94425" y1="73.19206" x2="91.05574" y2="72.80611" stroke="green" stroke-width="0.04000"/>
    <line x1="68.94425" y1="73.09205" x2="91.05574" y2="72.70609" stroke="green" stroke-width="0.04000"/>
    <line x1="68.94425" y1="72.99203" x2="91.05574" y2="72.60607" stroke="green" stroke-width="0.04000"/>
    <line x1="68.94425" y1="72.89201" x2="91.05574" y2="72.50606" stroke="green" stroke-width="0.04000"/>
    <line x1="68.94425" y1="72.79200" x2="91.05574" y2="72.40604" stroke="green" stroke-width="0.04000"/>
    <line x1="68.94425" y1="72.69199" x2="91.05574" y2="72.30603" stroke="green" stroke-width="0.04000"/>
    <line x1="68.94425" y1="72.59197" x2="91.05574" y2="72.20602" stroke="green" stroke-width="0.04000"/>
    <line x1="68.94425" y1="72.49195" x2="91.05574" y2="72.10600" stroke="green" stroke-width="0.04000"/>
    <line x1="68.94425" y1="72.39194" x2="91.05574" y2="72.00598" stroke="green" stroke-width="0.04000"/>
    <line x1="68.94425" y1="72.29192" x2="91.05574" y2="71.90597" stroke="green" stroke-width="0.04000"/>
    <line x1="68.94425" y1="72.19191" x2="91.05574" y2="71.80595" stroke="green" stroke-width="0.04000"/>
    <line x1="68.94425" y1="72.09190" x2="91.05574" y2="71.70594" stroke="green" stroke-width="0.04000"/>
    <line x1="68.94425" y1="71.99187" x2="91.05574" y2="71.60592" stroke="green" stroke-width="0.04000"/>
    <line x1="68.94425" y1="71.89187" x2="91.05574" y2="71.50591" stroke="green" stroke-width="0.04000"/>
    <line x1="68.94425" y1="71.79185" x2="91.05574" y2="71.40589" stroke="green" stroke-width="0.04000"/>
    <line x1="68.94425" y1="71.69184" x2="91.05574" y2="71.30588" stroke="green" stroke-width="0.04000"/>
    <line x1="68.94425" y1="71.59182" x2="91.05574" y2="71.20586" stroke="green" stroke-width="0.04000"/>
    <line x1="68.94425" y1="71.49181" x2="91.05574" y2="71.10584" stroke="green" stroke-width="0.04000"/>
    <line x1="68.94425" y1="71.39179" x2="91.05574" y2="71.00583" stroke="green" stroke-width="0.04000"/>
    <line x1="68.94425" y1="71.29178" x2="91.05574" y2="70.90582" stroke="green" stroke-width="0.04000"/>
    <line x1="68.94425" y1="71.19176" x2="91.05574" y2="70.80580" stroke="green" stroke-width="0.04000"/>
    <line x1="68.94425" y1="71.09174" x2="91.05574" y2="70.70579" stroke="green" stroke-width="0.04000"/>
    <line x1="68.94425" y1="70.99173" x2="91.05574" y2="70.60577" stroke="green" stroke-width="0.04000"/>
    <line x1="68.94425" y1="70.89172" x2="91.05574" y2="70.50575" stroke="green" stroke-width="0.04000"/>
    <line x1="68.94425" y1="70.79170" x2="91.05574" y2="70.40574" stroke="green" stroke-width="0.04000"/>
    <line x1="68.94425" y1="70.69169" x2="91.05574" y2="70.30573" stroke="green" stroke-width="0.04000"/>
    <line x1="68.94425" y1="70.59167" x2="91.05574" y2="70.20571" stroke="green" stroke-width="0.04000"/>
    <line x1="68.94425" y1="70.49165" x2="91.05574" y2="70.10569" stroke="green" stroke-width="0.04000"/>
    <line x1="68.94425" y1="70.39164" x2="91.05574" y2="70.00568" stroke="green" stroke-width="0.04000"/>
    <line x1="68.94425" y1="70.29163" x2="91.05574" y2="69.90566" stroke="green" stroke-width="0.04000"/>
    <line x1="68.94425" y1="70.19161" x2="91.05574" y2="69.80565" stroke="green" stroke-width="0.04000"/>
    <line x1="68.94425" y1="70.09159" x2="91.05574" y2="69.70564" stroke="green" stroke-width="0.04000"/>
    <line x1="68.94425" y1="69.99158" x2="91.05574" y2="69.60561" stroke="green" stroke-width="0.04000"/>
    <line x1="68.94425" y1="69.89156" x2="91.05574" y2="69.50560" stroke="green" stroke-width="0.04000"/>
    <line x1="68.94425" y1="69.79155" x2="91.05574" y2="69.40559" stroke="green" stroke-width="0.04000"/>
    <line x1="68.94425" y1="69.69153" x2="91.05574" y2="69.30557" stroke="green" stroke-width="0.04000"/>
    <line x1="68.94425" y1="69.59151" x2="91.05574" y2="69.20556" stroke="green" stroke-width="0.04000"/>
    <line x1="68.94425" y1="69.49150" x2="91.05574" y2="69.10555" stroke="green" stroke-width="0.04000"/>
    <line x1="68.94425" y1="69.39149" x2="91.05574" y2="69.00552" stroke="green" stroke-width="0.04000"/>
    <line x1="68.94425" y1="69.29147" x2="91.05574" y2="68.90552" stroke="green" stroke-width="0.04000"/>
    <line x1="68.94425" y1="69.19146" x2="91.05574" y2="68.80550" stroke="green" stroke-width="0.04000"/>
    <line x1="68.94425" y1="69.09144" x2="91.05574" y2="68.70548" stroke="green" stroke-width="0.04000"/>
    <line x1="68.94425" y1="68.99142" x2="91.05574" y2="68.60547" stroke="green" stroke-width="0.04000"/>
    <line x1="68.94425" y1="68.89141" x2="91.05574" y2="68.50545" stroke="green" stroke-width="0.04000"/>
    <line x1="68.94425" y1="68.79140" x2="91.05574" y2="68.40544" stroke="green" stroke-width="0.04000"/>
    <line x1="68.94425" y1="68.69138" x2="91.05574" y2="68.30542" stroke="green" stroke-width="0.04000"/>
    <line x1="68.94425" y1="68.59136" x2="91.05574" y2="68.20541" stroke="green" stroke-width="0.04000"/>
    <line x1="68.94425" y1="68.49135" x2="91.05574" y2="68.10539" stroke="green" stroke-width="0.04000"/>
    <line x1="68.94425" y1="68.39133" x2="91.05574" y2="68.00537" stroke="green" stroke-width="0.04000"/>
    <line x1="68.94425" y1="68.29132" x2="91.05574" y2="67.90536" stroke="green" stroke-width="0.04000"/>
    <line x1="68.94425" y1="68.19130" x2="91.05574" y2="67.80534" stroke="green" stroke-width="0.04000"/>
    <line x1="68.94425" y1="68.09129" x2="91.05574" y2="67.70533" stroke="green" stroke-width="0.04000"/>
    <line x1="68.94425" y1="67.99127" x2="91.05574" y2="67.60532" stroke="green" stroke-width="0.04000"/>
    <line x1="68.94425" y1="67.89126" x2="91.05574" y2="67.50529" stroke="green" stroke-width="0.04000"/>
    <line x1="68.94425" y1="67.79124" x2="91.05574" y2="67.40529" stroke="green" stroke-width="0.04000"/>
    <line x1="68.94425" y1="67.69122" x2="91.05574" y2="67.30527" stroke="green" stroke-width="0.04000"/>
    <line x1="68.94425" y1="67.59122" x2="91.05574" y2="67.20525" stroke="green" stroke-width="0.04000"/>
    <line x1="68.94425" y1="67.49120" x2="91.05574" y2="67.10524" stroke="green" stroke-width="0.04000"/>
    <line x1="68.94425" y1="67.39118" x2="91.05574" y2="67.00522" stroke="green" stroke-width="0.04000"/>
    <line x1="68.94425" y1="67.29117" x2="91.05574" y2="66.90521" stroke="green" stroke-width="0.04000"/>
    <line x1="68.94425" y1="67.19115" x2="91.05574" y2="66.80519" stroke="green" stroke-width="0.04000"/>
    <line x1="68.94425" y1="67.09114" x2="91.05574" y2="66.70518" stroke="green" stroke-width="0.04000"/>
    <line x1="68.94425" y1="66.99112" x2="91.05574" y2="66.60516" stroke="green" stroke-width="0.04000"/>
    <line x1="68.94425" y1="66.89111" x2="91.05574" y2="66.50514" stroke="green" stroke-width="0.04000"/>
    <line x1="68.94425" y1="66.79109" x2="91.05574" y2="66.40514" stroke="green" stroke-width="0.04000"/>
    <line x1="68.94425" y1="66.69107" x2="91.05574" y2="66.30511" stroke="green" stroke-width="0.04000"/>
    <line x1="68.94425" y1="66.59106" x2="91.05574" y2="66.20510" stroke="green" stroke-width="0.04000"/>
    <line x1="68.94425" y1="66.49104" x2="91.05574" y2="66.10509" stroke="green" stroke-width="0.04000"/>
    <line x1="68.94425" y1="66.39103" x2="91.05574" y2="66.00507" stroke="green" stroke-width="0.04000"/>
    <line x1="68.94425" y1="66.29102" x2="91.05574" y2="65.90506" stroke="green" stroke-width="0.04000"/>
    <line x1="68.94425" y1="66.19099" x2="91.05574" y2="65.80504" stroke="green" stroke-width="0.04000"/>
    <line x1="68.94425" y1="66.09099" x2="91.05574" y2="65.70502" stroke="green" stroke-width="0.04000"/>
    <line x1="68.94425" y1="65.99097" x2="91.05574" y2="65.60501" stroke="green" stroke-width="0.04000"/>
    <line x1="68.94425" y1="65.89095" x2="91.05574" y2="65.50499" stroke="green" stroke-width="0.04000"/>
    <line x1="68.94425" y1="65.79094" x2="91.05574" y2="65.40498" stroke="green" stroke-width="0.04000"/>
    <line x1="68.94425" y1="65.69092" x2="91.05574" y2="65.30496" stroke="green" stroke-width="0.04000"/>
    <line x1="68.94425" y1="65.59090" x2="91.05574" y2="65.20495" stroke="green" stroke-width="0.04000"/>
    <line x1="68.94425" y1="65.49089" x2="91.05574" y2="65.10493" stroke="green" stroke-width="0.04000"/>
    <line x1="68.94425" y1="65.39088" x2="91.05574" y2="65.00491" stroke="green" stroke-width="0.04000"/>
    <line x1="68.94425" y1="65.29086" x2="91.05574" y2="64.90490" stroke="green" stroke-width="0.04000"/>
    <line x1="68.94425" y1="65.19084" x2="91.05574" y2="64.80489" stroke="green" stroke-width="0.04000"/>
    <line x1="68.94425" y1="65.09084" x2="91.05574" y2="64.70487" stroke="green" stroke-width="0.04000"/>
    <line x1="68.94425" y1="64.99081" x2="91.05574" y2="64.60486" stroke="green" stroke-width="0.04000"/>
    <line x1="68.94425" y1="64.89080" x2="91.05574" y2="64.50484" stroke="green" stroke-width="0.04000"/>
    <line x1="68.94425" y1="64.79079" x2="91.05574" y2="64.40483" stroke="green" stroke-width="0.04000"/>
    <line x1="68.94425" y1="64.69077" x2="91.05574" y2="64.30481" stroke="green" stroke-width="0.04000"/>
    <line x1="68.94425" y1="64.59075" x2="91.05574" y2="64.20480" stroke="green" stroke-width="0.04000"/>
    <line x1="68.94425" y1="64.49074" x2="91.05574" y2="64.10478" stroke="green" stroke-width="0.04000"/>
    <line x1="68.94425" y1="64.39072" x2="91.05574" y2="64.00477" stroke="green" stroke-width="0.04000"/>
    <line x1="68.94425" y1="64.29071" x2="91.05574" y2="63.90475" stroke="green" stroke-width="0.04000"/>
    <line x1="68.94425" y1="64.19069" x2="91.05574" y2="63.80474" stroke="green" stroke-width="0.04000"/>
    <line x1="68.94425" y1="64.09068" x2="91.05574" y2="63.70472" stroke="green" stroke-width="0.04000"/>
    <line x1="68.94425" y1="63.99066" x2="91.05574" y2="63.60471" stroke="green" stroke-width="0.04000"/>
    <line x1="68.94425" y1="63.89065" x2="91.05574" y2="63.50469" stroke="green" stroke-width="0.04000"/>
    <line x1="68.94425" y1="63.79063" x2="91.05574" y2="63.40467" stroke="green" stroke-width="0.04000"/>
    <line x1="68.94425" y1="63.69062" x2="91.05574" y2="63.30466" stroke="green" stroke-width="0.04000"/>
    <line x1="68.94425" y1="63.59060" x2="91.05574" y2="63.20464" stroke="green" stroke-width="0.04000"/>
    <line x1="68.94425" y1="63.49059" x2="91.05574" y2="63.10463" stroke="green" stroke-width="0.04000"/>
    <line x1="68.94425" y1="63.39057" x2="91.05574" y2="63.00462" stroke="green" stroke-width="0.04000"/>
    <line x1="68.94425" y1="63.29055" x2="91.05574" y2="62.90460" stroke="green" stroke-width="0.04000"/>
    <line x1="68.94425" y1="63.19054" x2="91.05574" y2="62.80458" stroke="green" stroke-width="0.04000"/>
    <line x1="68.94425" y1="63.09053" x2="91.05574" y2="62.70457" stroke="green" stroke-width="0.04000"/>
    <line x1="68.94425" y1="62.99051" x2="91.05574" y2="62.60455" stroke="green" stroke-width="0.04000"/>
    <line x1="68.94425" y1="62.89050" x2="91.05574" y2="62.50454" stroke="green" stroke-width="0.04000"/>
    <line x1="68.94425" y1="62.79048" x2="91.05574" y2="62.40452" stroke="green" stroke-width="0.04000"/>
    <line x1="68.94425" y1="62.69046" x2="91.05574" y2="62.30451" stroke="green" stroke-width="0.04000"/>
    <line x1="68.94425" y1="62.59045" x2="91.05574" y2="62.20449" stroke="green" stroke-width="0.04000"/>
    <line x1="68.94425" y1="62.49043" x2="91.05574" y2="62.10448" stroke="green" stroke-width="0.04000"/>
    <line x1="68.94425" y1="62.39042" x2="91.05574" y2="62.00446" stroke="green" stroke-width="0.04000"/>
    <line x1="68.94425" y1="62.29040" x2="91.05574" y2="61.90445" stroke="green" stroke-width="0.04000"/>
    <line x1="68.94425" y1="62.19039" x2="91.05574" y2="61.80443" stroke="green" stroke-width="0.04000"/>
    <line x1="68.94425" y1="62.09037" x2="91.05574" y2="61.70441" stroke="green" stroke-width="0.04000"/>
    <line x1="68.94425" y1="61.99036" x2="91.05574" y2="61.60440" stroke="green" stroke-width="0.04000"/>
    <line x1="68.94425" y1="61.89034" x2="91.05574" y2="61.50439" stroke="green" stroke-width="0.04000"/>
    <line x1="68.94425" y1="61.79033" x2="85.57707" y2="61.50000" stroke="green" stroke-width="0.04000"/>
    <line x1="68.94425" y1="61.69031" x2="79.84731" y2="61.50000" stroke="green" stroke-width="0.04000"/>
    <line x1="68.94425" y1="61.59030" x2="74.11732" y2="61.50000" stroke="green" stroke-width="0.04000"/>
    <path d="M 91.0557 96.5 L 68.9443 96.5 L 68.9443 61.5 L 91.0557 61.5 L 91.0557 96.5" fill="none" stroke="blue" stroke-width="0.04000" fill-rule="evenodd" fill-opacity="1.000"/>
  </g>
</svg>
