<?xml version="1.0" encoding="UTF-8" standalone="yes"?>
<svg xmlns="http://www.w3.org/2000/svg"
     xmlns:xlink="http://www.w3.org/1999/xlink"
     width="2020.0000mm" height="1600.0000mm"
     viewBox="0 0 202.000000 160.000000">
  <!--
    Build plate : 150.00 x 150.00 mm
    Coordinate  : 1 SVG unit = 1 mm
    Display zoom: 10x  (width/height = viewBox x 10)
    Hatch stroke: 0.04 mm = ~28 mm on screen at this zoom
    Legend panel: right margin (42 mm wide)
  -->
  <defs>
    <marker id="endArrow" markerWidth="2" markerHeight="1.4"
            refX="0" refY="0.7" orient="auto"
            markerUnits="strokeWidth">
      <polyline fill="darkblue" points="0,0 2,0.7 0,1.4 0.2,0.7"/>
    </marker>
  </defs>
  <!-- Background -->
  <rect x="0" y="0" width="202.000000" height="160.000000" fill="#f0f0f0" stroke="none"/>
  <!-- Build plate boundary (150 x 150 mm) -->
  <rect x="5.000000" y="5.000000" width="150.000000" height="150.000000"
        fill="#ffffff" stroke="#aaaaaa" stroke-width="0.2" stroke-dasharray="1,0.5"/>
  <!-- Build plate centre circle (r = 75.00 mm) -->
  <circle cx="80.000000" cy="80.000000" r="75.000000"
          fill="none" stroke="#bbbbbb" stroke-width="0.15" stroke-dasharray="0.8,0.4"/>
  <!-- Centre cross-hair -->
  <line x1="5.000000" y1="80.000000" x2="155.000000" y2="80.000000" stroke="#cccccc" stroke-width="0.1"/>
  <line x1="80.000000" y1="5.000000" x2="80.000000" y2="155.000000" stroke="#cccccc" stroke-width="0.1"/>
  <circle cx="80.000000" cy="80.000000" r="0.3" fill="#cccccc" stroke="none"/>
  <!-- Corner labels -->
  <text x="5.400000" y="4.600000" font-family="sans-serif" font-size="2" fill="#888888">0,0</text>
  <text x="154.600006" y="4.600000" font-family="sans-serif" font-size="2" fill="#888888" text-anchor="end">150,0</text>
  <text x="5.400000" y="157.199997" font-family="sans-serif" font-size="2" fill="#888888">0,150</text>
  <!-- Layer geometry -->
  <g id="geometry">
    <line x1="136.32379" y1="87.60141" x2="123.65053" y2="91.23541" stroke="green" stroke-width="0.04000"/>
    <line x1="136.32379" y1="87.70544" x2="124.01331" y2="91.23541" stroke="green" stroke-width="0.04000"/>
    <line x1="136.32379" y1="87.80947" x2="124.37612" y2="91.23541" stroke="green" stroke-width="0.04000"/>
    <line x1="136.32379" y1="87.91350" x2="124.73890" y2="91.23541" stroke="green" stroke-width="0.04000"/>
    <line x1="136.32379" y1="88.01753" x2="125.10171" y2="91.23541" stroke="green" stroke-width="0.04000"/>
    <line x1="136.32379" y1="88.12156" x2="125.46449" y2="91.23541" stroke="green" stroke-width="0.04000"/>
    <line x1="136.32379" y1="88.22559" x2="125.82730" y2="91.23541" stroke="green" stroke-width="0.04000"/>
    <line x1="136.32379" y1="88.32962" x2="126.19009" y2="91.23541" stroke="green" stroke-width="0.04000"/>
    <line x1="136.32379" y1="88.43365" x2="126.55287" y2="91.23541" stroke="green" stroke-width="0.04000"/>
    <line x1="136.32379" y1="88.53768" x2="126.91568" y2="91.23541" stroke="green" stroke-width="0.04000"/>
    <line x1="136.32379" y1="88.64171" x2="127.27847" y2="91.23541" stroke="green" stroke-width="0.04000"/>
    <line x1="136.32379" y1="88.74574" x2="127.64127" y2="91.23541" stroke="green" stroke-width="0.04000"/>
    <line x1="136.32379" y1="88.84977" x2="128.00406" y2="91.23541" stroke="green" stroke-width="0.04000"/>
    <line x1="136.32379" y1="88.95380" x2="128.36687" y2="91.23541" stroke="green" stroke-width="0.04000"/>
    <line x1="136.32379" y1="89.05783" x2="128.72966" y2="91.23541" stroke="green" stroke-width="0.04000"/>
    <line x1="136.32379" y1="89.16186" x2="129.09247" y2="91.23541" stroke="green" stroke-width="0.04000"/>
    <line x1="136.32379" y1="89.26588" x2="129.45525" y2="91.23541" stroke="green" stroke-width="0.04000"/>
    <line x1="136.32379" y1="89.36991" x2="129.81802" y2="91.23541" stroke="green" stroke-width="0.04000"/>
    <line x1="136.32379" y1="89.47395" x2="130.18085" y2="91.23541" stroke="green" stroke-width="0.04000"/>
    <line x1="136.32379" y1="89.57798" x2="130.54364" y2="91.23541" stroke="green" stroke-width="0.04000"/>
    <line x1="136.32379" y1="89.68201" x2="130.90643" y2="91.23541" stroke="green" stroke-width="0.04000"/>
    <line x1="136.32379" y1="89.78603" x2="131.26921" y2="91.23541" stroke="green" stroke-width="0.04000"/>
    <line x1="136.32379" y1="89.89007" x2="131.63202" y2="91.23541" stroke="green" stroke-width="0.04000"/>
    <line x1="136.32379" y1="89.99409" x2="131.99481" y2="91.23541" stroke="green" stroke-width="0.04000"/>
    <line x1="136.32379" y1="90.09813" x2="132.35764" y2="91.23541" stroke="green" stroke-width="0.04000"/>
    <line x1="136.32379" y1="90.20216" x2="132.72040" y2="91.23541" stroke="green" stroke-width="0.04000"/>
    <line x1="136.32379" y1="90.30619" x2="133.08322" y2="91.23541" stroke="green" stroke-width="0.04000"/>
    <line x1="136.32379" y1="90.41022" x2="133.44600" y2="91.23541" stroke="green" stroke-width="0.04000"/>
    <line x1="136.32379" y1="90.51424" x2="133.80878" y2="91.23541" stroke="green" stroke-width="0.04000"/>
    <line x1="136.32379" y1="90.61828" x2="134.17160" y2="91.23541" stroke="green" stroke-width="0.04000"/>
    <line x1="136.32379" y1="90.72231" x2="134.53438" y2="91.23541" stroke="green" stroke-width="0.04000"/>
    <line x1="136.32379" y1="90.82634" x2="134.89719" y2="91.23541" stroke="green" stroke-width="0.04000"/>
    <line x1="136.32379" y1="90.93037" x2="135.25996" y2="91.23541" stroke="green" stroke-width="0.04000"/>
    <line x1="136.32379" y1="91.03440" x2="135.62277" y2="91.23541" stroke="green" stroke-width="0.04000"/>
    <line x1="136.32379" y1="91.13843" x2="135.98557" y2="91.23541" stroke="green" stroke-width="0.04000"/>
    <line x1="136.32379" y1="87.49738" x2="123.62379" y2="91.13905" stroke="green" stroke-width="0.04000"/>
    <line x1="136.32379" y1="87.39335" x2="123.62379" y2="91.03502" stroke="green" stroke-width="0.04000"/>
    <line x1="136.32379" y1="87.28931" x2="123.62379" y2="90.93098" stroke="green" stroke-width="0.04000"/>
    <line x1="136.32379" y1="87.18529" x2="123.62379" y2="90.82696" stroke="green" stroke-width="0.04000"/>
    <line x1="136.32379" y1="87.08126" x2="123.62379" y2="90.72293" stroke="green" stroke-width="0.04000"/>
    <line x1="136.32379" y1="86.97723" x2="123.62379" y2="90.61890" stroke="green" stroke-width="0.04000"/>
    <line x1="136.32379" y1="86.87320" x2="123.62379" y2="90.51487" stroke="green" stroke-width="0.04000"/>
    <line x1="136.32379" y1="86.76917" x2="123.62379" y2="90.41084" stroke="green" stroke-width="0.04000"/>
    <line x1="136.32379" y1="86.66514" x2="123.62379" y2="90.30681" stroke="green" stroke-width="0.04000"/>
    <line x1="136.32379" y1="86.56110" x2="123.62379" y2="90.20277" stroke="green" stroke-width="0.04000"/>
    <line x1="136.32379" y1="86.45708" x2="123.62379" y2="90.09875" stroke="green" stroke-width="0.04000"/>
    <line x1="136.32379" y1="86.35305" x2="123.62379" y2="89.99471" stroke="green" stroke-width="0.04000"/>
    <line x1="136.32379" y1="86.24902" x2="123.62379" y2="89.89069" stroke="green" stroke-width="0.04000"/>
    <line x1="136.32379" y1="86.14500" x2="123.62379" y2="89.78666" stroke="green" stroke-width="0.04000"/>
    <line x1="136.32379" y1="86.04095" x2="123.62379" y2="89.68262" stroke="green" stroke-width="0.04000"/>
    <line x1="136.32379" y1="85.93694" x2="123.62379" y2="89.57860" stroke="green" stroke-width="0.04000"/>
    <line x1="136.32379" y1="85.83290" x2="123.62379" y2="89.47457" stroke="green" stroke-width="0.04000"/>
    <line x1="136.32379" y1="85.72887" x2="123.62379" y2="89.37054" stroke="green" stroke-width="0.04000"/>
    <line x1="136.32379" y1="85.62484" x2="123.62379" y2="89.26650" stroke="green" stroke-width="0.04000"/>
    <line x1="136.32379" y1="85.52081" x2="123.62379" y2="89.16248" stroke="green" stroke-width="0.04000"/>
    <line x1="136.32379" y1="85.41678" x2="123.62379" y2="89.05845" stroke="green" stroke-width="0.04000"/>
    <line x1="136.32379" y1="85.31275" x2="123.62379" y2="88.95442" stroke="green" stroke-width="0.04000"/>
    <line x1="136.32379" y1="85.20872" x2="123.62379" y2="88.85040" stroke="green" stroke-width="0.04000"/>
    <line x1="136.32379" y1="85.10469" x2="123.62379" y2="88.74636" stroke="green" stroke-width="0.04000"/>
    <line x1="136.32379" y1="85.00066" x2="123.62379" y2="88.64233" stroke="green" stroke-width="0.04000"/>
    <line x1="136.32379" y1="84.89663" x2="123.62379" y2="88.53830" stroke="green" stroke-width="0.04000"/>
    <line x1="136.32379" y1="84.79260" x2="123.62379" y2="88.43427" stroke="green" stroke-width="0.04000"/>
    <line x1="136.32379" y1="84.68857" x2="123.62379" y2="88.33024" stroke="green" stroke-width="0.04000"/>
    <line x1="136.32379" y1="84.58454" x2="123.62379" y2="88.22621" stroke="green" stroke-width="0.04000"/>
    <line x1="136.32379" y1="84.48051" x2="123.62379" y2="88.12218" stroke="green" stroke-width="0.04000"/>
    <line x1="136.32379" y1="84.37648" x2="123.62379" y2="88.01815" stroke="green" stroke-width="0.04000"/>
    <line x1="136.32379" y1="84.27245" x2="123.62379" y2="87.91412" stroke="green" stroke-width="0.04000"/>
    <line x1="136.32379" y1="84.16842" x2="123.62379" y2="87.81009" stroke="green" stroke-width="0.04000"/>
    <line x1="136.32379" y1="84.06439" x2="123.62379" y2="87.70606" stroke="green" stroke-width="0.04000"/>
    <line x1="136.32379" y1="83.96036" x2="123.62379" y2="87.60203" stroke="green" stroke-width="0.04000"/>
    <line x1="136.32379" y1="83.85634" x2="123.62379" y2="87.49800" stroke="green" stroke-width="0.04000"/>
    <line x1="136.32379" y1="83.75230" x2="123.62379" y2="87.39397" stroke="green" stroke-width="0.04000"/>
    <line x1="136.32379" y1="83.64828" x2="123.62379" y2="87.28994" stroke="green" stroke-width="0.04000"/>
    <line x1="136.32379" y1="83.54424" x2="123.62379" y2="87.18591" stroke="green" stroke-width="0.04000"/>
    <line x1="136.32379" y1="83.44022" x2="123.62379" y2="87.08188" stroke="green" stroke-width="0.04000"/>
    <line x1="136.32379" y1="83.33618" x2="123.62379" y2="86.97784" stroke="green" stroke-width="0.04000"/>
    <line x1="136.32379" y1="83.23215" x2="123.62379" y2="86.87382" stroke="green" stroke-width="0.04000"/>
    <line x1="136.32379" y1="83.12813" x2="123.62379" y2="86.76979" stroke="green" stroke-width="0.04000"/>
    <line x1="136.32379" y1="83.02409" x2="123.62379" y2="86.66576" stroke="green" stroke-width="0.04000"/>
    <line x1="136.32379" y1="82.92007" x2="123.62379" y2="86.56173" stroke="green" stroke-width="0.04000"/>
    <line x1="136.32379" y1="82.81603" x2="123.62379" y2="86.45770" stroke="green" stroke-width="0.04000"/>
    <line x1="136.32379" y1="82.71201" x2="123.62379" y2="86.35367" stroke="green" stroke-width="0.04000"/>
    <line x1="136.32379" y1="82.60797" x2="123.62379" y2="86.24964" stroke="green" stroke-width="0.04000"/>
    <line x1="136.32379" y1="82.50394" x2="123.62379" y2="86.14561" stroke="green" stroke-width="0.04000"/>
    <line x1="136.32379" y1="82.39991" x2="123.62379" y2="86.04158" stroke="green" stroke-width="0.04000"/>
    <line x1="136.32379" y1="82.29588" x2="123.62379" y2="85.93755" stroke="green" stroke-width="0.04000"/>
    <line x1="136.32379" y1="82.19185" x2="123.62379" y2="85.83352" stroke="green" stroke-width="0.04000"/>
    <line x1="136.32379" y1="82.08782" x2="123.62379" y2="85.72949" stroke="green" stroke-width="0.04000"/>
    <line x1="136.32379" y1="81.98380" x2="123.62379" y2="85.62547" stroke="green" stroke-width="0.04000"/>
    <line x1="136.32379" y1="81.87976" x2="123.62379" y2="85.52143" stroke="green" stroke-width="0.04000"/>
    <line x1="136.32379" y1="81.77573" x2="123.62379" y2="85.41740" stroke="green" stroke-width="0.04000"/>
    <line x1="136.32379" y1="81.67170" x2="123.62379" y2="85.31337" stroke="green" stroke-width="0.04000"/>
    <line x1="136.32379" y1="81.56767" x2="123.62379" y2="85.20934" stroke="green" stroke-width="0.04000"/>
    <line x1="136.32379" y1="81.46364" x2="123.62379" y2="85.10531" stroke="green" stroke-width="0.04000"/>
    <line x1="136.32379" y1="81.35961" x2="123.62379" y2="85.00128" stroke="green" stroke-width="0.04000"/>
    <line x1="136.32379" y1="81.25558" x2="123.62379" y2="84.89725" stroke="green" stroke-width="0.04000"/>
    <line x1="136.32379" y1="81.15155" x2="123.62379" y2="84.79322" stroke="green" stroke-width="0.04000"/>
    <line x1="136.32379" y1="81.04752" x2="123.62379" y2="84.68919" stroke="green" stroke-width="0.04000"/>
    <line x1="136.32379" y1="80.94350" x2="123.62379" y2="84.58516" stroke="green" stroke-width="0.04000"/>
    <line x1="136.32379" y1="80.83947" x2="123.62379" y2="84.48113" stroke="green" stroke-width="0.04000"/>
    <line x1="136.32379" y1="80.73544" x2="123.62379" y2="84.37710" stroke="green" stroke-width="0.04000"/>
    <line x1="136.32379" y1="80.63141" x2="123.62379" y2="84.27307" stroke="green" stroke-width="0.04000"/>
    <line x1="136.32379" y1="80.52737" x2="123.62379" y2="84.16904" stroke="green" stroke-width="0.04000"/>
    <line x1="136.32379" y1="80.42335" x2="123.62379" y2="84.06501" stroke="green" stroke-width="0.04000"/>
    <line x1="136.32379" y1="80.31931" x2="123.62379" y2="83.96098" stroke="green" stroke-width="0.04000"/>
    <line x1="136.32379" y1="80.21529" x2="123.62379" y2="83.85695" stroke="green" stroke-width="0.04000"/>
    <line x1="136.32379" y1="80.11125" x2="123.62379" y2="83.75292" stroke="green" stroke-width="0.04000"/>
    <line x1="136.32379" y1="80.00723" x2="123.62379" y2="83.64889" stroke="green" stroke-width="0.04000"/>
    <line x1="136.32379" y1="79.90320" x2="123.62379" y2="83.54486" stroke="green" stroke-width="0.04000"/>
    <line x1="136.32379" y1="79.79916" x2="123.62379" y2="83.44083" stroke="green" stroke-width="0.04000"/>
    <line x1="136.32379" y1="79.69514" x2="123.62379" y2="83.33681" stroke="green" stroke-width="0.04000"/>
    <line x1="136.32379" y1="79.59110" x2="123.62379" y2="83.23277" stroke="green" stroke-width="0.04000"/>
    <line x1="136.32379" y1="79.48708" x2="123.62379" y2="83.12875" stroke="green" stroke-width="0.04000"/>
    <line x1="136.32379" y1="79.38304" x2="123.62379" y2="83.02471" stroke="green" stroke-width="0.04000"/>
    <line x1="136.32379" y1="79.27901" x2="123.62379" y2="82.92068" stroke="green" stroke-width="0.04000"/>
    <line x1="136.32379" y1="79.17498" x2="123.62379" y2="82.81665" stroke="green" stroke-width="0.04000"/>
    <line x1="136.32379" y1="79.07095" x2="123.62379" y2="82.71262" stroke="green" stroke-width="0.04000"/>
    <line x1="136.32379" y1="78.96693" x2="123.62379" y2="82.60860" stroke="green" stroke-width="0.04000"/>
    <line x1="136.32379" y1="78.86289" x2="123.62379" y2="82.50456" stroke="green" stroke-width="0.04000"/>
    <line x1="136.32379" y1="78.75887" x2="123.62379" y2="82.40054" stroke="green" stroke-width="0.04000"/>
    <line x1="136.32379" y1="78.65483" x2="123.62379" y2="82.29650" stroke="green" stroke-width="0.04000"/>
    <line x1="136.32379" y1="78.55080" x2="123.62379" y2="82.19247" stroke="green" stroke-width="0.04000"/>
    <line x1="136.32379" y1="78.44677" x2="123.62379" y2="82.08844" stroke="green" stroke-width="0.04000"/>
    <line x1="136.32379" y1="78.34275" x2="123.62379" y2="81.98441" stroke="green" stroke-width="0.04000"/>
    <line x1="136.32379" y1="78.23871" x2="123.62379" y2="81.88038" stroke="green" stroke-width="0.04000"/>
    <line x1="136.32379" y1="78.13469" x2="123.62379" y2="81.77635" stroke="green" stroke-width="0.04000"/>
    <line x1="136.32379" y1="78.03065" x2="123.62379" y2="81.67233" stroke="green" stroke-width="0.04000"/>
    <line x1="136.32379" y1="77.92663" x2="123.62379" y2="81.56829" stroke="green" stroke-width="0.04000"/>
    <line x1="136.32379" y1="77.82259" x2="123.62379" y2="81.46426" stroke="green" stroke-width="0.04000"/>
    <line x1="136.32379" y1="77.71856" x2="123.62379" y2="81.36023" stroke="green" stroke-width="0.04000"/>
    <line x1="136.32379" y1="77.61454" x2="123.62379" y2="81.25620" stroke="green" stroke-width="0.04000"/>
    <line x1="136.32379" y1="77.51051" x2="123.62379" y2="81.15217" stroke="green" stroke-width="0.04000"/>
    <line x1="136.32379" y1="77.40648" x2="123.62379" y2="81.04814" stroke="green" stroke-width="0.04000"/>
    <line x1="136.32379" y1="77.30244" x2="123.62379" y2="80.94411" stroke="green" stroke-width="0.04000"/>
    <line x1="136.32379" y1="77.19842" x2="123.62379" y2="80.84008" stroke="green" stroke-width="0.04000"/>
    <line x1="136.32379" y1="77.09438" x2="123.62379" y2="80.73605" stroke="green" stroke-width="0.04000"/>
    <line x1="136.32379" y1="76.99036" x2="123.62379" y2="80.63203" stroke="green" stroke-width="0.04000"/>
    <line x1="136.32379" y1="76.88633" x2="123.62379" y2="80.52800" stroke="green" stroke-width="0.04000"/>
    <line x1="136.32379" y1="76.78230" x2="123.62379" y2="80.42396" stroke="green" stroke-width="0.04000"/>
    <line x1="136.32379" y1="76.67827" x2="123.62379" y2="80.31994" stroke="green" stroke-width="0.04000"/>
    <line x1="136.32379" y1="76.57423" x2="123.62379" y2="80.21590" stroke="green" stroke-width="0.04000"/>
    <line x1="136.32379" y1="76.47021" x2="123.62379" y2="80.11188" stroke="green" stroke-width="0.04000"/>
    <line x1="136.32379" y1="76.36617" x2="123.62379" y2="80.00784" stroke="green" stroke-width="0.04000"/>
    <line x1="136.32379" y1="76.26215" x2="123.62379" y2="79.90382" stroke="green" stroke-width="0.04000"/>
    <line x1="136.32379" y1="76.15811" x2="123.62379" y2="79.79978" stroke="green" stroke-width="0.04000"/>
    <line x1="136.32379" y1="76.05408" x2="123.62379" y2="79.69576" stroke="green" stroke-width="0.04000"/>
    <line x1="136.32379" y1="75.95006" x2="123.62379" y2="79.59173" stroke="green" stroke-width="0.04000"/>
    <line x1="136.32379" y1="75.84602" x2="123.62379" y2="79.48769" stroke="green" stroke-width="0.04000"/>
    <line x1="136.32379" y1="75.74200" x2="123.62379" y2="79.38367" stroke="green" stroke-width="0.04000"/>
    <line x1="136.32379" y1="75.63796" x2="123.62379" y2="79.27963" stroke="green" stroke-width="0.04000"/>
    <line x1="136.32379" y1="75.53394" x2="123.62379" y2="79.17561" stroke="green" stroke-width="0.04000"/>
    <line x1="136.32379" y1="75.42990" x2="123.62379" y2="79.07157" stroke="green" stroke-width="0.04000"/>
    <line x1="136.32379" y1="75.32587" x2="123.62379" y2="78.96754" stroke="green" stroke-width="0.04000"/>
    <line x1="136.32379" y1="75.22184" x2="123.62379" y2="78.86351" stroke="green" stroke-width="0.04000"/>
    <line x1="136.32379" y1="75.11782" x2="123.62379" y2="78.75948" stroke="green" stroke-width="0.04000"/>
    <line x1="136.32379" y1="75.01378" x2="123.62379" y2="78.65545" stroke="green" stroke-width="0.04000"/>
    <line x1="136.32379" y1="74.90976" x2="123.62379" y2="78.55142" stroke="green" stroke-width="0.04000"/>
    <line x1="136.32379" y1="74.80573" x2="123.62379" y2="78.44740" stroke="green" stroke-width="0.04000"/>
    <line x1="136.32379" y1="74.70170" x2="123.62379" y2="78.34336" stroke="green" stroke-width="0.04000"/>
    <line x1="136.32379" y1="74.59767" x2="123.62379" y2="78.23934" stroke="green" stroke-width="0.04000"/>
    <line x1="136.32379" y1="74.49364" x2="123.62379" y2="78.13530" stroke="green" stroke-width="0.04000"/>
    <line x1="136.32379" y1="74.38961" x2="123.62379" y2="78.03127" stroke="green" stroke-width="0.04000"/>
    <line x1="136.32379" y1="74.28558" x2="123.62379" y2="77.92724" stroke="green" stroke-width="0.04000"/>
    <line x1="136.32379" y1="74.18155" x2="123.62379" y2="77.82321" stroke="green" stroke-width="0.04000"/>
    <line x1="136.32379" y1="74.07751" x2="123.62379" y2="77.71918" stroke="green" stroke-width="0.04000"/>
    <line x1="136.32379" y1="73.97349" x2="123.62379" y2="77.61516" stroke="green" stroke-width="0.04000"/>
    <line x1="136.32379" y1="73.86946" x2="123.62379" y2="77.51113" stroke="green" stroke-width="0.04000"/>
    <line x1="136.32379" y1="73.76543" x2="123.62379" y2="77.40710" stroke="green" stroke-width="0.04000"/>
    <line x1="136.32379" y1="73.66140" x2="123.62379" y2="77.30307" stroke="green" stroke-width="0.04000"/>
    <line x1="136.32379" y1="73.55737" x2="123.62379" y2="77.19904" stroke="green" stroke-width="0.04000"/>
    <line x1="136.32379" y1="73.45334" x2="123.62379" y2="77.09500" stroke="green" stroke-width="0.04000"/>
    <line x1="136.32379" y1="73.34931" x2="123.62379" y2="76.99097" stroke="green" stroke-width="0.04000"/>
    <line x1="136.32379" y1="73.24528" x2="123.62379" y2="76.88695" stroke="green" stroke-width="0.04000"/>
    <line x1="136.32379" y1="73.14125" x2="123.62379" y2="76.78291" stroke="green" stroke-width="0.04000"/>
    <line x1="136.32379" y1="73.03722" x2="123.62379" y2="76.67889" stroke="green" stroke-width="0.04000"/>
    <line x1="136.32379" y1="72.93319" x2="123.62379" y2="76.57486" stroke="green" stroke-width="0.04000"/>
    <line x1="136.32379" y1="72.82915" x2="123.62379" y2="76.47083" stroke="green" stroke-width="0.04000"/>
    <line x1="136.32379" y1="72.72513" x2="123.62379" y2="76.36680" stroke="green" stroke-width="0.04000"/>
    <line x1="136.32379" y1="72.62110" x2="123.62379" y2="76.26276" stroke="green" stroke-width="0.04000"/>
    <line x1="136.32379" y1="72.51707" x2="123.62379" y2="76.15874" stroke="green" stroke-width="0.04000"/>
    <line x1="136.32379" y1="72.41303" x2="123.62379" y2="76.05470" stroke="green" stroke-width="0.04000"/>
    <line x1="136.32379" y1="72.30901" x2="123.62379" y2="75.95068" stroke="green" stroke-width="0.04000"/>
    <line x1="136.32379" y1="72.20498" x2="123.62379" y2="75.84664" stroke="green" stroke-width="0.04000"/>
    <line x1="136.32379" y1="72.10095" x2="123.62379" y2="75.74261" stroke="green" stroke-width="0.04000"/>
    <line x1="136.32379" y1="71.99692" x2="123.62379" y2="75.63858" stroke="green" stroke-width="0.04000"/>
    <line x1="136.32379" y1="71.89289" x2="123.62379" y2="75.53455" stroke="green" stroke-width="0.04000"/>
    <line x1="136.32379" y1="71.78886" x2="123.62379" y2="75.43053" stroke="green" stroke-width="0.04000"/>
    <line x1="136.32379" y1="71.68483" x2="123.62379" y2="75.32649" stroke="green" stroke-width="0.04000"/>
    <line x1="136.32379" y1="71.58080" x2="123.62379" y2="75.22247" stroke="green" stroke-width="0.04000"/>
    <line x1="136.32379" y1="71.47677" x2="123.62379" y2="75.11844" stroke="green" stroke-width="0.04000"/>
    <line x1="136.32379" y1="71.37274" x2="123.62379" y2="75.01441" stroke="green" stroke-width="0.04000"/>
    <line x1="136.32379" y1="71.26871" x2="123.62379" y2="74.91038" stroke="green" stroke-width="0.04000"/>
    <line x1="136.32379" y1="71.16468" x2="123.62379" y2="74.80635" stroke="green" stroke-width="0.04000"/>
    <line x1="136.32379" y1="71.06065" x2="123.62379" y2="74.70232" stroke="green" stroke-width="0.04000"/>
    <line x1="136.29706" y1="70.96429" x2="123.62379" y2="74.59829" stroke="green" stroke-width="0.04000"/>
    <line x1="135.93427" y1="70.96429" x2="123.62379" y2="74.49426" stroke="green" stroke-width="0.04000"/>
    <line x1="135.57146" y1="70.96429" x2="123.62379" y2="74.39023" stroke="green" stroke-width="0.04000"/>
    <line x1="135.20866" y1="70.96429" x2="123.62379" y2="74.28620" stroke="green" stroke-width="0.04000"/>
    <line x1="134.84586" y1="70.96429" x2="123.62379" y2="74.18217" stroke="green" stroke-width="0.04000"/>
    <line x1="134.48308" y1="70.96429" x2="123.62379" y2="74.07814" stroke="green" stroke-width="0.04000"/>
    <line x1="134.12027" y1="70.96429" x2="123.62379" y2="73.97411" stroke="green" stroke-width="0.04000"/>
    <line x1="133.75749" y1="70.96429" x2="123.62379" y2="73.87008" stroke="green" stroke-width="0.04000"/>
    <line x1="133.39468" y1="70.96429" x2="123.62379" y2="73.76604" stroke="green" stroke-width="0.04000"/>
    <line x1="133.03189" y1="70.96429" x2="123.62379" y2="73.66202" stroke="green" stroke-width="0.04000"/>
    <line x1="132.66910" y1="70.96429" x2="123.62379" y2="73.55798" stroke="green" stroke-width="0.04000"/>
    <line x1="132.30630" y1="70.96429" x2="123.62379" y2="73.45396" stroke="green" stroke-width="0.04000"/>
    <line x1="131.94351" y1="70.96429" x2="123.62379" y2="73.34993" stroke="green" stroke-width="0.04000"/>
    <line x1="131.58072" y1="70.96429" x2="123.62379" y2="73.24590" stroke="green" stroke-width="0.04000"/>
    <line x1="131.21793" y1="70.96429" x2="123.62379" y2="73.14187" stroke="green" stroke-width="0.04000"/>
    <line x1="130.85512" y1="70.96429" x2="123.62379" y2="73.03783" stroke="green" stroke-width="0.04000"/>
    <line x1="130.49232" y1="70.96429" x2="123.62379" y2="72.93381" stroke="green" stroke-width="0.04000"/>
    <line x1="130.12952" y1="70.96429" x2="123.62379" y2="72.82977" stroke="green" stroke-width="0.04000"/>
    <line x1="129.76672" y1="70.96429" x2="123.62379" y2="72.72575" stroke="green" stroke-width="0.04000"/>
    <line x1="129.40393" y1="70.96429" x2="123.62379" y2="72.62172" stroke="green" stroke-width="0.04000"/>
    <line x1="129.04114" y1="70.96429" x2="123.62379" y2="72.51768" stroke="green" stroke-width="0.04000"/>
    <line x1="128.67834" y1="70.96429" x2="123.62379" y2="72.41366" stroke="green" stroke-width="0.04000"/>
    <line x1="128.31555" y1="70.96429" x2="123.62379" y2="72.30962" stroke="green" stroke-width="0.04000"/>
    <line x1="127.95276" y1="70.96429" x2="123.62379" y2="72.20560" stroke="green" stroke-width="0.04000"/>
    <line x1="127.58995" y1="70.96429" x2="123.62379" y2="72.10156" stroke="green" stroke-width="0.04000"/>
    <line x1="127.22717" y1="70.96429" x2="123.62379" y2="71.99754" stroke="green" stroke-width="0.04000"/>
    <line x1="126.86437" y1="70.96429" x2="123.62379" y2="71.89351" stroke="green" stroke-width="0.04000"/>
    <line x1="126.50158" y1="70.96429" x2="123.62379" y2="71.78948" stroke="green" stroke-width="0.04000"/>
    <line x1="126.13877" y1="70.96429" x2="123.62379" y2="71.68545" stroke="green" stroke-width="0.04000"/>
    <line x1="125.77599" y1="70.96429" x2="123.62379" y2="71.58142" stroke="green" stroke-width="0.04000"/>
    <line x1="125.41318" y1="70.96429" x2="123.62379" y2="71.47739" stroke="green" stroke-width="0.04000"/>
    <line x1="125.05039" y1="70.96429" x2="123.62379" y2="71.37336" stroke="green" stroke-width="0.04000"/>
    <line x1="124.68761" y1="70.96429" x2="123.62379" y2="71.26933" stroke="green" stroke-width="0.04000"/>
    <line x1="124.32480" y1="70.96429" x2="123.62379" y2="71.16530" stroke="green" stroke-width="0.04000"/>
    <line x1="123.96201" y1="70.96429" x2="123.62379" y2="71.06127" stroke="green" stroke-width="0.04000"/>
    <path d="M 136.324 91.2354 L 123.624 91.2354 L 123.624 70.9643 L 136.324 70.9643 L 136.324 91.2354" fill="none" stroke="blue" stroke-width="0.04000" fill-rule="evenodd" fill-opacity="1.000"/>
  </g>
</svg>
