<?xml version="1.0" encoding="UTF-8" standalone="yes"?>
<svg xmlns="http://www.w3.org/2000/svg"
     xmlns:xlink="http://www.w3.org/1999/xlink"
     width="2020.0000mm" height="1600.0000mm"
     viewBox="0 0 202.000000 160.000000">
  <!--
    Build plate : 150.00 x 150.00 mm
    Coordinate  : 1 SVG unit = 1 mm
    Display zoom: 10x  (width/height = viewBox x 10)
    Hatch stroke: 0.04 mm = ~28 mm on screen at this zoom
    Legend panel: right margin (42 mm wide)
  -->
  <defs>
    <marker id="endArrow" markerWidth="2" markerHeight="1.4"
            refX="0" refY="0.7" orient="auto"
            markerUnits="strokeWidth">
      <polyline fill="darkblue" points="0,0 2,0.7 0,1.4 0.2,0.7"/>
    </marker>
  </defs>
  <!-- Background -->
  <rect x="0" y="0" width="202.000000" height="160.000000" fill="#f0f0f0" stroke="none"/>
  <!-- Build plate boundary (150 x 150 mm) -->
  <rect x="5.000000" y="5.000000" width="150.000000" height="150.000000"
        fill="#ffffff" stroke="#aaaaaa" stroke-width="0.2" stroke-dasharray="1,0.5"/>
  <!-- Build plate centre circle (r = 75.00 mm) -->
  <circle cx="80.000000" cy="80.000000" r="75.000000"
          fill="none" stroke="#bbbbbb" stroke-width="0.15" stroke-dasharray="0.8,0.4"/>
  <!-- Centre cross-hair -->
  <line x1="5.000000" y1="80.000000" x2="155.000000" y2="80.000000" stroke="#cccccc" stroke-width="0.1"/>
  <line x1="80.000000" y1="5.000000" x2="80.000000" y2="155.000000" stroke="#cccccc" stroke-width="0.1"/>
  <circle cx="80.000000" cy="80.000000" r="0.3" fill="#cccccc" stroke="none"/>
  <!-- Corner labels -->
  <text x="5.400000" y="4.600000" font-family="sans-serif" font-size="2" fill="#888888">0,0</text>
  <text x="154.600006" y="4.600000" font-family="sans-serif" font-size="2" fill="#888888" text-anchor="end">150,0</text>
  <text x="5.400000" y="157.199997" font-family="sans-serif" font-size="2" fill="#888888">0,150</text>
  <!-- Layer geometry -->
  <g id="geometry">
    <line x1="35.19708" y1="127.78498" x2="34.85915" y2="127.65526" stroke="green" stroke-width="0.04000"/>
    <line x1="35.36257" y1="127.74139" x2="34.62233" y2="127.45724" stroke="green" stroke-width="0.04000"/>
    <line x1="35.52806" y1="127.69781" x2="34.36987" y2="127.25322" stroke="green" stroke-width="0.04000"/>
    <line x1="35.69356" y1="127.65422" x2="34.22226" y2="127.08944" stroke="green" stroke-width="0.04000"/>
    <line x1="35.82137" y1="127.59616" x2="34.11821" y2="126.94238" stroke="green" stroke-width="0.04000"/>
    <line x1="35.92310" y1="127.52811" x2="34.01416" y2="126.79533" stroke="green" stroke-width="0.04000"/>
    <line x1="36.02484" y1="127.46004" x2="33.91011" y2="126.64827" stroke="green" stroke-width="0.04000"/>
    <line x1="36.01664" y1="127.34978" x2="33.80606" y2="126.50122" stroke="green" stroke-width="0.04000"/>
    <line x1="35.99231" y1="127.23332" x2="33.69571" y2="126.35175" stroke="green" stroke-width="0.04000"/>
    <line x1="35.96798" y1="127.11687" x2="33.58151" y2="126.20079" stroke="green" stroke-width="0.04000"/>
    <line x1="35.94365" y1="127.00042" x2="33.46732" y2="126.04984" stroke="green" stroke-width="0.04000"/>
    <line x1="35.91932" y1="126.88396" x2="33.35312" y2="125.89890" stroke="green" stroke-width="0.04000"/>
    <line x1="35.89162" y1="126.76621" x2="33.23892" y2="125.74794" stroke="green" stroke-width="0.04000"/>
    <line x1="35.86296" y1="126.64810" x2="33.09600" y2="125.58596" stroke="green" stroke-width="0.04000"/>
    <line x1="35.83431" y1="126.52999" x2="32.95782" y2="125.42580" stroke="green" stroke-width="0.04000"/>
    <line x1="35.80566" y1="126.41188" x2="32.81963" y2="125.26565" stroke="green" stroke-width="0.04000"/>
    <line x1="35.78011" y1="126.29495" x2="32.68144" y2="125.10548" stroke="green" stroke-width="0.04000"/>
    <line x1="35.75486" y1="126.17815" x2="32.54326" y2="124.94533" stroke="green" stroke-width="0.04000"/>
    <line x1="35.70947" y1="126.05361" x2="32.35369" y2="124.76544" stroke="green" stroke-width="0.04000"/>
    <line x1="35.66072" y1="125.92778" x2="32.17748" y2="124.59069" stroke="green" stroke-width="0.04000"/>
    <line x1="35.61197" y1="125.80195" x2="32.00252" y2="124.41641" stroke="green" stroke-width="0.04000"/>
    <line x1="35.56322" y1="125.67612" x2="31.82755" y2="124.24213" stroke="green" stroke-width="0.04000"/>
    <line x1="35.51447" y1="125.55030" x2="31.63057" y2="124.05941" stroke="green" stroke-width="0.04000"/>
    <line x1="35.46573" y1="125.42448" x2="31.38388" y2="123.85760" stroke="green" stroke-width="0.04000"/>
    <line x1="35.41656" y1="125.29848" x2="31.15465" y2="123.66248" stroke="green" stroke-width="0.04000"/>
    <line x1="35.36738" y1="125.17249" x2="30.96807" y2="123.48375" stroke="green" stroke-width="0.04000"/>
    <line x1="35.31820" y1="125.04650" x2="30.87335" y2="123.34028" stroke="green" stroke-width="0.04000"/>
    <line x1="35.26901" y1="124.92050" x2="30.77863" y2="123.19680" stroke="green" stroke-width="0.04000"/>
    <line x1="35.21983" y1="124.79450" x2="30.68391" y2="123.05333" stroke="green" stroke-width="0.04000"/>
    <line x1="35.16770" y1="124.66738" x2="30.62553" y2="122.92381" stroke="green" stroke-width="0.04000"/>
    <line x1="35.09618" y1="124.53281" x2="30.59247" y2="122.80400" stroke="green" stroke-width="0.04000"/>
    <line x1="35.02639" y1="124.39891" x2="30.55941" y2="122.68420" stroke="green" stroke-width="0.04000"/>
    <line x1="34.96196" y1="124.26706" x2="30.52635" y2="122.56439" stroke="green" stroke-width="0.04000"/>
    <line x1="34.89753" y1="124.13522" x2="30.55562" y2="122.46851" stroke="green" stroke-width="0.04000"/>
    <line x1="34.83311" y1="124.00337" x2="30.59473" y2="122.37641" stroke="green" stroke-width="0.04000"/>
    <line x1="34.76868" y1="123.87152" x2="30.63275" y2="122.28389" stroke="green" stroke-width="0.04000"/>
    <line x1="34.70425" y1="123.73968" x2="30.66571" y2="122.18943" stroke="green" stroke-width="0.04000"/>
    <line x1="34.64043" y1="123.60807" x2="30.69867" y2="122.09496" stroke="green" stroke-width="0.04000"/>
    <line x1="34.57690" y1="123.47656" x2="30.73163" y2="122.00050" stroke="green" stroke-width="0.04000"/>
    <line x1="34.50683" y1="123.34256" x2="30.76459" y2="121.90604" stroke="green" stroke-width="0.04000"/>
    <line x1="34.41495" y1="123.20016" x2="30.79755" y2="121.81158" stroke="green" stroke-width="0.04000"/>
    <line x1="34.32306" y1="123.05779" x2="30.83051" y2="121.71712" stroke="green" stroke-width="0.04000"/>
    <line x1="34.23118" y1="122.91540" x2="30.86346" y2="121.62266" stroke="green" stroke-width="0.04000"/>
    <line x1="34.13929" y1="122.77301" x2="30.91979" y2="121.53716" stroke="green" stroke-width="0.04000"/>
    <line x1="34.04741" y1="122.63062" x2="30.97689" y2="121.45197" stroke="green" stroke-width="0.04000"/>
    <line x1="33.96873" y1="122.49331" x2="31.03400" y2="121.36677" stroke="green" stroke-width="0.04000"/>
    <line x1="33.89340" y1="122.35728" x2="31.09110" y2="121.28158" stroke="green" stroke-width="0.04000"/>
    <line x1="33.79215" y1="122.21130" x2="31.15353" y2="121.19843" stroke="green" stroke-width="0.04000"/>
    <line x1="33.68884" y1="122.06452" x2="31.27959" y2="121.13970" stroke="green" stroke-width="0.04000"/>
    <line x1="33.58552" y1="121.91775" x2="31.40564" y2="121.08098" stroke="green" stroke-width="0.04000"/>
    <line x1="33.47368" y1="121.76771" x2="31.53170" y2="121.02225" stroke="green" stroke-width="0.04000"/>
    <line x1="33.34610" y1="121.61162" x2="31.64628" y2="120.95911" stroke="green" stroke-width="0.04000"/>
    <line x1="33.21678" y1="121.45486" x2="31.75752" y2="120.89471" stroke="green" stroke-width="0.04000"/>
    <line x1="33.08746" y1="121.29810" x2="31.86878" y2="120.83030" stroke="green" stroke-width="0.04000"/>
    <line x1="32.95912" y1="121.14173" x2="31.98003" y2="120.76589" stroke="green" stroke-width="0.04000"/>
    <line x1="32.83173" y1="120.98571" x2="32.25736" y2="120.76524" stroke="green" stroke-width="0.04000"/>
    <line x1="52.30411" y1="116.42216" x2="52.06639" y2="116.33091" stroke="green" stroke-width="0.04000"/>
    <line x1="52.55073" y1="116.40972" x2="51.59504" y2="116.04286" stroke="green" stroke-width="0.04000"/>
    <line x1="52.81201" y1="116.40290" x2="51.15810" y2="115.76802" stroke="green" stroke-width="0.04000"/>
    <line x1="53.07328" y1="116.39608" x2="50.64560" y2="115.46418" stroke="green" stroke-width="0.04000"/>
    <line x1="53.23894" y1="116.35255" x2="50.15115" y2="115.16727" stroke="green" stroke-width="0.04000"/>
    <line x1="53.22645" y1="116.24065" x2="49.49748" y2="114.80923" stroke="green" stroke-width="0.04000"/>
    <line x1="53.21396" y1="116.12873" x2="48.85463" y2="114.45535" stroke="green" stroke-width="0.04000"/>
    <line x1="53.20147" y1="116.01683" x2="48.21962" y2="114.10447" stroke="green" stroke-width="0.04000"/>
    <line x1="53.18898" y1="115.90491" x2="47.62140" y2="113.76772" stroke="green" stroke-width="0.04000"/>
    <line x1="53.17649" y1="115.79301" x2="47.25603" y2="113.52036" stroke="green" stroke-width="0.04000"/>
    <line x1="53.16400" y1="115.68110" x2="46.86770" y2="113.26418" stroke="green" stroke-width="0.04000"/>
    <line x1="53.15151" y1="115.56919" x2="46.44690" y2="112.99554" stroke="green" stroke-width="0.04000"/>
    <line x1="53.13902" y1="115.45728" x2="46.18332" y2="112.78724" stroke="green" stroke-width="0.04000"/>
    <line x1="53.14371" y1="115.35197" x2="45.91805" y2="112.57830" stroke="green" stroke-width="0.04000"/>
    <line x1="53.12416" y1="115.23735" x2="45.64906" y2="112.36793" stroke="green" stroke-width="0.04000"/>
    <line x1="53.00040" y1="115.08273" x2="45.38008" y2="112.15755" stroke="green" stroke-width="0.04000"/>
    <line x1="52.86700" y1="114.92441" x2="45.19537" y2="111.97955" stroke="green" stroke-width="0.04000"/>
    <line x1="52.73361" y1="114.76609" x2="45.04051" y2="111.81298" stroke="green" stroke-width="0.04000"/>
    <line x1="52.60021" y1="114.60777" x2="44.88958" y2="111.64793" stroke="green" stroke-width="0.04000"/>
    <line x1="52.37216" y1="114.41311" x2="44.73866" y2="111.48288" stroke="green" stroke-width="0.04000"/>
    <line x1="52.11303" y1="114.20653" x2="44.58773" y2="111.31783" stroke="green" stroke-width="0.04000"/>
    <line x1="51.84089" y1="113.99495" x2="44.41961" y2="111.14619" stroke="green" stroke-width="0.04000"/>
    <line x1="51.44865" y1="113.73726" x2="44.24952" y2="110.97378" stroke="green" stroke-width="0.04000"/>
    <line x1="51.03083" y1="113.46976" x2="44.17692" y2="110.83879" stroke="green" stroke-width="0.04000"/>
    <line x1="50.72197" y1="113.24409" x2="44.10840" y2="110.70538" stroke="green" stroke-width="0.04000"/>
    <line x1="50.45432" y1="113.03423" x2="44.03988" y2="110.57196" stroke="green" stroke-width="0.04000"/>
    <line x1="50.16394" y1="112.81565" x2="43.96572" y2="110.43638" stroke="green" stroke-width="0.04000"/>
    <line x1="49.76028" y1="112.55359" x2="43.89079" y2="110.30050" stroke="green" stroke-width="0.04000"/>
    <line x1="49.52807" y1="112.35734" x2="43.81585" y2="110.16462" stroke="green" stroke-width="0.04000"/>
    <line x1="49.19202" y1="112.12122" x2="43.74091" y2="110.02874" stroke="green" stroke-width="0.04000"/>
    <line x1="48.87837" y1="111.89371" x2="43.66597" y2="109.89286" stroke="green" stroke-width="0.04000"/>
    <line x1="48.61621" y1="111.68597" x2="43.64701" y2="109.77847" stroke="green" stroke-width="0.04000"/>
    <line x1="48.43081" y1="111.50768" x2="43.65376" y2="109.67394" stroke="green" stroke-width="0.04000"/>
    <line x1="48.24570" y1="111.32951" x2="43.66426" y2="109.57086" stroke="green" stroke-width="0.04000"/>
    <line x1="48.06112" y1="111.15154" x2="43.67986" y2="109.46973" stroke="green" stroke-width="0.04000"/>
    <line x1="47.87653" y1="110.97357" x2="43.69546" y2="109.36861" stroke="green" stroke-width="0.04000"/>
    <line x1="47.69262" y1="110.79586" x2="43.71106" y2="109.26748" stroke="green" stroke-width="0.04000"/>
    <line x1="47.55275" y1="110.63506" x2="43.72666" y2="109.16635" stroke="green" stroke-width="0.04000"/>
    <line x1="47.43150" y1="110.48139" x2="43.74226" y2="109.06522" stroke="green" stroke-width="0.04000"/>
    <line x1="47.31025" y1="110.32773" x2="43.78276" y2="108.97366" stroke="green" stroke-width="0.04000"/>
    <line x1="47.18900" y1="110.17407" x2="43.86145" y2="108.89675" stroke="green" stroke-width="0.04000"/>
    <line x1="47.06472" y1="110.01926" x2="43.94014" y2="108.81984" stroke="green" stroke-width="0.04000"/>
    <line x1="46.93727" y1="109.86322" x2="44.01883" y2="108.74294" stroke="green" stroke-width="0.04000"/>
    <line x1="46.80735" y1="109.70623" x2="44.11702" y2="108.67352" stroke="green" stroke-width="0.04000"/>
    <line x1="46.67688" y1="109.54903" x2="44.21935" y2="108.60567" stroke="green" stroke-width="0.04000"/>
    <line x1="46.54641" y1="109.39185" x2="44.32167" y2="108.53784" stroke="green" stroke-width="0.04000"/>
    <line x1="46.42274" y1="109.23725" x2="44.42400" y2="108.47000" stroke="green" stroke-width="0.04000"/>
    <line x1="46.30539" y1="109.08509" x2="44.53848" y2="108.40684" stroke="green" stroke-width="0.04000"/>
    <line x1="46.16133" y1="108.92268" x2="44.67839" y2="108.35343" stroke="green" stroke-width="0.04000"/>
    <line x1="44.98917" y1="108.36562" x2="44.81830" y2="108.30002" stroke="green" stroke-width="0.04000"/>
    <path d="M 32.7411 120.928 L 32.8155 120.959 L 32.8331 120.988 L 33.0599 121.265 L 33.4354 121.72 L 33.5255 121.832 L 33.8878 122.347 L 34.0288 122.602 L 34.5417 123.397 L 34.5761 123.475 L 34.6843 123.699 L 35.0422 124.431 L 35.1771 124.685 L 35.4633 125.418 L 35.7512 126.161 L 35.8032 126.402 L 35.914 126.858 L 36.0379 127.451 L 35.7612 127.636 L 35.0581 127.822 L 34.4683 127.328 L 34.331 127.224 L 34.2601 127.143 L 33.7666 126.445 L 33.2219 125.725 L 33.1911 125.691 L 33.1595 125.66 L 32.5029 124.899 L 32.3464 124.759 L 31.7063 124.121 L 31.2415 123.741 L 30.9842 123.508 L 30.645 122.994 L 30.5218 122.548 L 30.6269 122.301 L 30.8645 121.62 L 31.1438 121.203 L 31.56 121.009 L 32.0826 120.707 L 32.7411 120.928" fill="none" stroke="blue" stroke-width="0.04000" fill-rule="evenodd" fill-opacity="1.000"/>
    <path d="M 45.0238 108.381 L 45.2969 108.509 L 45.8547 108.707 L 46.2024 108.952 L 46.4836 109.316 L 46.9144 109.835 L 47.127 110.095 L 47.6412 110.747 L 47.6626 110.766 L 47.7046 110.808 L 48.3274 111.408 L 48.3275 111.408 L 48.7115 111.778 L 48.834 111.861 L 49.0401 112.015 L 49.527 112.356 L 49.7455 112.544 L 50.2313 112.859 L 50.9295 113.407 L 50.9657 113.427 L 51.0451 113.479 L 51.7914 113.956 L 52.1015 114.197 L 52.5672 114.569 L 53.093 115.193 L 53.1588 115.287 L 53.1326 115.4 L 53.2433 116.392 L 52.3228 116.416 L 52.2464 116.442 L 52.1978 116.411 L 51.3626 115.901 L 51.1598 115.769 L 50.3765 115.305 L 50.0872 115.128 L 49.4462 114.781 L 48.819 114.436 L 48.647 114.352 L 47.8527 113.892 L 47.6761 113.805 L 46.9361 113.304 L 46.5658 113.089 L 46.0023 112.644 L 45.2952 112.091 L 45.2365 112.022 L 45.1461 111.928 L 44.5724 111.301 L 44.2427 110.967 L 44.0315 110.556 L 43.6424 109.85 L 43.6577 109.614 L 43.7517 109.004 L 44.0326 108.729 L 44.4932 108.424 L 44.8283 108.296 L 45.0238 108.381" fill="none" stroke="blue" stroke-width="0.04000" fill-rule="evenodd" fill-opacity="1.000"/>
  </g>
</svg>
