<?xml version="1.0" encoding="UTF-8" standalone="yes"?>
<svg xmlns="http://www.w3.org/2000/svg"
     xmlns:xlink="http://www.w3.org/1999/xlink"
     width="2020.0000mm" height="1600.0000mm"
     viewBox="0 0 202.000000 160.000000">
  <!--
    Build plate : 150.00 x 150.00 mm
    Coordinate  : 1 SVG unit = 1 mm
    Display zoom: 10x  (width/height = viewBox x 10)
    Hatch stroke: 0.04 mm = ~28 mm on screen at this zoom
    Legend panel: right margin (42 mm wide)
  -->
  <defs>
    <marker id="endArrow" markerWidth="2" markerHeight="1.4"
            refX="0" refY="0.7" orient="auto"
            markerUnits="strokeWidth">
      <polyline fill="darkblue" points="0,0 2,0.7 0,1.4 0.2,0.7"/>
    </marker>
  </defs>
  <!-- Background -->
  <rect x="0" y="0" width="202.000000" height="160.000000" fill="#f0f0f0" stroke="none"/>
  <!-- Build plate boundary (150 x 150 mm) -->
  <rect x="5.000000" y="5.000000" width="150.000000" height="150.000000"
        fill="#ffffff" stroke="#aaaaaa" stroke-width="0.2" stroke-dasharray="1,0.5"/>
  <!-- Build plate centre circle (r = 75.00 mm) -->
  <circle cx="80.000000" cy="80.000000" r="75.000000"
          fill="none" stroke="#bbbbbb" stroke-width="0.15" stroke-dasharray="0.8,0.4"/>
  <!-- Centre cross-hair -->
  <line x1="5.000000" y1="80.000000" x2="155.000000" y2="80.000000" stroke="#cccccc" stroke-width="0.1"/>
  <line x1="80.000000" y1="5.000000" x2="80.000000" y2="155.000000" stroke="#cccccc" stroke-width="0.1"/>
  <circle cx="80.000000" cy="80.000000" r="0.3" fill="#cccccc" stroke="none"/>
  <!-- Corner labels -->
  <text x="5.400000" y="4.600000" font-family="sans-serif" font-size="2" fill="#888888">0,0</text>
  <text x="154.600006" y="4.600000" font-family="sans-serif" font-size="2" fill="#888888" text-anchor="end">150,0</text>
  <text x="5.400000" y="157.199997" font-family="sans-serif" font-size="2" fill="#888888">0,150</text>
  <!-- Layer geometry -->
  <g id="geometry">
    <line x1="34.89569" y1="126.90988" x2="35.61182" y2="125.71804" stroke="green" stroke-width="0.04000"/>
    <line x1="34.82125" y1="126.83959" x2="35.63345" y2="125.48786" stroke="green" stroke-width="0.04000"/>
    <line x1="35.05783" y1="126.83418" x2="35.59496" y2="125.94025" stroke="green" stroke-width="0.04000"/>
    <line x1="34.74682" y1="126.76932" x2="35.65509" y2="125.25770" stroke="green" stroke-width="0.04000"/>
    <line x1="34.66833" y1="126.70577" x2="35.67673" y2="125.02752" stroke="green" stroke-width="0.04000"/>
    <line x1="34.58705" y1="126.64689" x2="35.69836" y2="124.79736" stroke="green" stroke-width="0.04000"/>
    <line x1="34.50578" y1="126.58800" x2="35.69547" y2="124.60800" stroke="green" stroke-width="0.04000"/>
    <line x1="34.42449" y1="126.52911" x2="35.70152" y2="124.40379" stroke="green" stroke-width="0.04000"/>
    <line x1="34.34321" y1="126.47022" x2="35.70374" y2="124.20592" stroke="green" stroke-width="0.04000"/>
    <line x1="34.26193" y1="126.41134" x2="35.70432" y2="124.01080" stroke="green" stroke-width="0.04000"/>
    <line x1="34.18065" y1="126.35245" x2="35.70490" y2="123.81566" stroke="green" stroke-width="0.04000"/>
    <line x1="35.51951" y1="126.25997" x2="35.57866" y2="126.16154" stroke="green" stroke-width="0.04000"/>
    <line x1="34.11956" y1="126.25996" x2="35.70918" y2="123.61439" stroke="green" stroke-width="0.04000"/>
    <line x1="34.07346" y1="126.14252" x2="35.72432" y2="123.39503" stroke="green" stroke-width="0.04000"/>
    <line x1="34.02737" y1="126.02508" x2="35.73268" y2="123.18696" stroke="green" stroke-width="0.04000"/>
    <line x1="33.98127" y1="125.90764" x2="35.73186" y2="122.99416" stroke="green" stroke-width="0.04000"/>
    <line x1="33.93517" y1="125.79021" x2="35.73105" y2="122.80135" stroke="green" stroke-width="0.04000"/>
    <line x1="33.88907" y1="125.67276" x2="35.73504" y2="122.60055" stroke="green" stroke-width="0.04000"/>
    <line x1="33.84309" y1="125.55512" x2="35.74575" y2="122.38857" stroke="green" stroke-width="0.04000"/>
    <line x1="33.79728" y1="125.43721" x2="35.75646" y2="122.17658" stroke="green" stroke-width="0.04000"/>
    <line x1="33.75175" y1="125.31881" x2="35.76717" y2="121.96460" stroke="green" stroke-width="0.04000"/>
    <line x1="33.70948" y1="125.19501" x2="35.77544" y2="121.75668" stroke="green" stroke-width="0.04000"/>
    <line x1="33.66750" y1="125.07070" x2="35.78814" y2="121.54137" stroke="green" stroke-width="0.04000"/>
    <line x1="33.62553" y1="124.94639" x2="35.80474" y2="121.31958" stroke="green" stroke-width="0.04000"/>
    <line x1="33.58356" y1="124.82208" x2="35.81893" y2="121.10181" stroke="green" stroke-width="0.04000"/>
    <line x1="33.54145" y1="124.69801" x2="35.83312" y2="120.88403" stroke="green" stroke-width="0.04000"/>
    <line x1="33.49879" y1="124.57484" x2="35.85130" y2="120.65961" stroke="green" stroke-width="0.04000"/>
    <line x1="33.45615" y1="124.45166" x2="35.87694" y2="120.42279" stroke="green" stroke-width="0.04000"/>
    <line x1="33.41256" y1="124.33005" x2="35.89086" y2="120.20545" stroke="green" stroke-width="0.04000"/>
    <line x1="33.37152" y1="124.20419" x2="35.90014" y2="119.99586" stroke="green" stroke-width="0.04000"/>
    <line x1="33.33048" y1="124.07832" x2="35.90440" y2="119.79461" stroke="green" stroke-width="0.04000"/>
    <line x1="33.28944" y1="123.95246" x2="35.89376" y2="119.61816" stroke="green" stroke-width="0.04000"/>
    <line x1="33.24841" y1="123.82660" x2="35.89057" y2="119.42930" stroke="green" stroke-width="0.04000"/>
    <line x1="33.20737" y1="123.70074" x2="35.88811" y2="119.23923" stroke="green" stroke-width="0.04000"/>
    <line x1="33.16633" y1="123.57487" x2="35.88565" y2="119.04917" stroke="green" stroke-width="0.04000"/>
    <line x1="33.12529" y1="123.44901" x2="35.87935" y2="118.86549" stroke="green" stroke-width="0.04000"/>
    <line x1="33.08426" y1="123.32315" x2="35.86121" y2="118.70152" stroke="green" stroke-width="0.04000"/>
    <line x1="33.04166" y1="123.19988" x2="35.84308" y2="118.53753" stroke="green" stroke-width="0.04000"/>
    <line x1="33.00183" y1="123.07201" x2="35.82883" y2="118.36709" stroke="green" stroke-width="0.04000"/>
    <line x1="32.96288" y1="122.94267" x2="35.82504" y2="118.17924" stroke="green" stroke-width="0.04000"/>
    <line x1="32.92393" y1="122.81334" x2="35.82124" y2="117.99139" stroke="green" stroke-width="0.04000"/>
    <line x1="32.88498" y1="122.68401" x2="35.81745" y2="117.80356" stroke="green" stroke-width="0.04000"/>
    <line x1="32.84602" y1="122.55466" x2="35.79639" y2="117.64443" stroke="green" stroke-width="0.04000"/>
    <line x1="32.80708" y1="122.42533" x2="35.77234" y2="117.49030" stroke="green" stroke-width="0.04000"/>
    <line x1="32.76722" y1="122.29751" x2="35.75024" y2="117.33292" stroke="green" stroke-width="0.04000"/>
    <line x1="32.72632" y1="122.17140" x2="35.72850" y2="117.17493" stroke="green" stroke-width="0.04000"/>
    <line x1="32.68800" y1="122.04103" x2="35.70676" y2="117.01696" stroke="green" stroke-width="0.04000"/>
    <line x1="32.65111" y1="121.90827" x2="35.68431" y2="116.86017" stroke="green" stroke-width="0.04000"/>
    <line x1="32.61422" y1="121.77551" x2="35.66006" y2="116.70637" stroke="green" stroke-width="0.04000"/>
    <line x1="32.57732" y1="121.64274" x2="35.63581" y2="116.55256" stroke="green" stroke-width="0.04000"/>
    <line x1="32.54044" y1="121.50998" x2="35.61117" y2="116.39942" stroke="green" stroke-width="0.04000"/>
    <line x1="32.50354" y1="121.37721" x2="35.58628" y2="116.24667" stroke="green" stroke-width="0.04000"/>
    <line x1="32.46661" y1="121.24452" x2="35.55953" y2="116.09704" stroke="green" stroke-width="0.04000"/>
    <line x1="32.42966" y1="121.11185" x2="35.52365" y2="115.96259" stroke="green" stroke-width="0.04000"/>
    <line x1="32.39309" y1="120.97855" x2="35.48777" y2="115.82815" stroke="green" stroke-width="0.04000"/>
    <line x1="32.36039" y1="120.83881" x2="35.45189" y2="115.69370" stroke="green" stroke-width="0.04000"/>
    <line x1="32.32769" y1="120.69907" x2="35.41600" y2="115.55926" stroke="green" stroke-width="0.04000"/>
    <line x1="32.29499" y1="120.55934" x2="35.37846" y2="115.42757" stroke="green" stroke-width="0.04000"/>
    <line x1="32.26229" y1="120.41961" x2="35.33961" y2="115.29808" stroke="green" stroke-width="0.04000"/>
    <line x1="32.22638" y1="120.28519" x2="35.30076" y2="115.16858" stroke="green" stroke-width="0.04000"/>
    <line x1="32.18724" y1="120.15619" x2="35.26190" y2="115.03909" stroke="green" stroke-width="0.04000"/>
    <line x1="32.14809" y1="120.02718" x2="35.22305" y2="114.90959" stroke="green" stroke-width="0.04000"/>
    <line x1="32.10894" y1="119.89817" x2="35.18415" y2="114.78017" stroke="green" stroke-width="0.04000"/>
    <line x1="32.06979" y1="119.76917" x2="35.14370" y2="114.65333" stroke="green" stroke-width="0.04000"/>
    <line x1="32.03491" y1="119.63306" x2="35.10325" y2="114.52649" stroke="green" stroke-width="0.04000"/>
    <line x1="32.00256" y1="119.49274" x2="35.06101" y2="114.40262" stroke="green" stroke-width="0.04000"/>
    <line x1="31.96714" y1="119.35754" x2="35.01617" y2="114.28310" stroke="green" stroke-width="0.04000"/>
    <line x1="31.91774" y1="119.24558" x2="34.96710" y2="114.17059" stroke="green" stroke-width="0.04000"/>
    <line x1="31.86835" y1="119.13362" x2="34.91804" y2="114.05809" stroke="green" stroke-width="0.04000"/>
    <line x1="31.81896" y1="119.02167" x2="34.86897" y2="113.94559" stroke="green" stroke-width="0.04000"/>
    <line x1="31.76957" y1="118.90971" x2="34.81990" y2="113.83309" stroke="green" stroke-width="0.04000"/>
    <line x1="31.72017" y1="118.79775" x2="34.77084" y2="113.72059" stroke="green" stroke-width="0.04000"/>
    <line x1="31.67078" y1="118.68580" x2="34.72216" y2="113.60744" stroke="green" stroke-width="0.04000"/>
    <line x1="31.62139" y1="118.57384" x2="34.67430" y2="113.49293" stroke="green" stroke-width="0.04000"/>
    <line x1="31.57199" y1="118.46188" x2="34.62645" y2="113.37842" stroke="green" stroke-width="0.04000"/>
    <line x1="31.51951" y1="118.35506" x2="34.57859" y2="113.26391" stroke="green" stroke-width="0.04000"/>
    <line x1="31.45968" y1="118.26048" x2="34.53073" y2="113.14940" stroke="green" stroke-width="0.04000"/>
    <line x1="31.39985" y1="118.16590" x2="34.48287" y2="113.03488" stroke="green" stroke-width="0.04000"/>
    <line x1="31.34002" y1="118.07131" x2="34.43501" y2="112.92037" stroke="green" stroke-width="0.04000"/>
    <line x1="31.28019" y1="117.97673" x2="34.38491" y2="112.80961" stroke="green" stroke-width="0.04000"/>
    <line x1="31.22035" y1="117.88215" x2="34.32163" y2="112.72075" stroke="green" stroke-width="0.04000"/>
    <line x1="31.16052" y1="117.78756" x2="34.25834" y2="112.63192" stroke="green" stroke-width="0.04000"/>
    <line x1="31.10069" y1="117.69298" x2="34.19503" y2="112.54314" stroke="green" stroke-width="0.04000"/>
    <line x1="31.04132" y1="117.59762" x2="34.13171" y2="112.45435" stroke="green" stroke-width="0.04000"/>
    <line x1="30.98230" y1="117.50169" x2="34.06840" y2="112.36556" stroke="green" stroke-width="0.04000"/>
    <line x1="30.92327" y1="117.40577" x2="34.00508" y2="112.27678" stroke="green" stroke-width="0.04000"/>
    <line x1="30.86425" y1="117.30984" x2="33.94177" y2="112.18799" stroke="green" stroke-width="0.04000"/>
    <line x1="30.80522" y1="117.21392" x2="33.87846" y2="112.09921" stroke="green" stroke-width="0.04000"/>
    <line x1="30.74619" y1="117.11800" x2="33.81509" y2="112.01050" stroke="green" stroke-width="0.04000"/>
    <line x1="30.68735" y1="117.02177" x2="33.75140" y2="111.92234" stroke="green" stroke-width="0.04000"/>
    <line x1="30.62917" y1="116.92444" x2="33.68771" y2="111.83418" stroke="green" stroke-width="0.04000"/>
    <line x1="30.62250" y1="116.74137" x2="33.62171" y2="111.74985" stroke="green" stroke-width="0.04000"/>
    <line x1="30.61583" y1="116.55831" x2="33.52270" y2="111.72048" stroke="green" stroke-width="0.04000"/>
    <line x1="30.60917" y1="116.37525" x2="33.42368" y2="111.69111" stroke="green" stroke-width="0.04000"/>
    <line x1="30.60250" y1="116.19218" x2="33.32466" y2="111.66174" stroke="green" stroke-width="0.04000"/>
    <line x1="30.58834" y1="116.02159" x2="33.22565" y2="111.63237" stroke="green" stroke-width="0.04000"/>
    <line x1="30.54492" y1="115.89969" x2="33.12663" y2="111.60300" stroke="green" stroke-width="0.04000"/>
    <line x1="30.53569" y1="115.72089" x2="33.02761" y2="111.57363" stroke="green" stroke-width="0.04000"/>
    <line x1="30.57437" y1="115.46236" x2="32.92804" y2="111.54518" stroke="green" stroke-width="0.04000"/>
    <line x1="30.63671" y1="115.16444" x2="32.82845" y2="111.51678" stroke="green" stroke-width="0.04000"/>
    <line x1="30.69906" y1="114.86651" x2="32.67078" y2="111.58501" stroke="green" stroke-width="0.04000"/>
    <line x1="30.76113" y1="114.56905" x2="32.50773" y2="111.66222" stroke="green" stroke-width="0.04000"/>
    <line x1="30.82317" y1="114.27164" x2="32.34489" y2="111.73906" stroke="green" stroke-width="0.04000"/>
    <line x1="31.03073" y1="113.73204" x2="32.18215" y2="111.81576" stroke="green" stroke-width="0.04000"/>
    <line x1="31.14915" y1="113.34081" x2="32.01941" y2="111.89245" stroke="green" stroke-width="0.04000"/>
    <line x1="31.27746" y1="112.93309" x2="31.51148" y2="112.54361" stroke="green" stroke-width="0.04000"/>
    <line x1="51.02510" y1="112.62919" x2="51.59800" y2="111.67572" stroke="green" stroke-width="0.04000"/>
    <line x1="50.91739" y1="112.61429" x2="51.54696" y2="111.56652" stroke="green" stroke-width="0.04000"/>
    <line x1="50.80991" y1="112.59901" x2="51.49619" y2="111.45684" stroke="green" stroke-width="0.04000"/>
    <line x1="50.69667" y1="112.59331" x2="51.44878" y2="111.34158" stroke="green" stroke-width="0.04000"/>
    <line x1="50.58343" y1="112.58762" x2="51.40137" y2="111.22633" stroke="green" stroke-width="0.04000"/>
    <line x1="50.47019" y1="112.58192" x2="51.35396" y2="111.11107" stroke="green" stroke-width="0.04000"/>
    <line x1="50.35932" y1="112.57228" x2="51.30655" y2="110.99581" stroke="green" stroke-width="0.04000"/>
    <line x1="50.24983" y1="112.56033" x2="51.25914" y2="110.88055" stroke="green" stroke-width="0.04000"/>
    <line x1="49.67091" y1="112.55302" x2="51.00855" y2="110.32681" stroke="green" stroke-width="0.04000"/>
    <line x1="50.14034" y1="112.54839" x2="51.21173" y2="110.76530" stroke="green" stroke-width="0.04000"/>
    <line x1="49.55761" y1="112.54742" x2="50.91162" y2="110.29397" stroke="green" stroke-width="0.04000"/>
    <line x1="49.44431" y1="112.54182" x2="50.81470" y2="110.26112" stroke="green" stroke-width="0.04000"/>
    <line x1="50.03086" y1="112.53645" x2="51.16016" y2="110.65697" stroke="green" stroke-width="0.04000"/>
    <line x1="49.33101" y1="112.53622" x2="50.71777" y2="110.22827" stroke="green" stroke-width="0.04000"/>
    <line x1="49.80050" y1="112.53151" x2="51.05414" y2="110.44510" stroke="green" stroke-width="0.04000"/>
    <line x1="49.21772" y1="112.53062" x2="50.62085" y2="110.19542" stroke="green" stroke-width="0.04000"/>
    <line x1="49.10442" y1="112.52502" x2="50.52392" y2="110.16257" stroke="green" stroke-width="0.04000"/>
    <line x1="49.92137" y1="112.52451" x2="51.10513" y2="110.55441" stroke="green" stroke-width="0.04000"/>
    <line x1="48.99112" y1="112.51942" x2="50.42699" y2="110.12972" stroke="green" stroke-width="0.04000"/>
    <line x1="51.20980" y1="112.51596" x2="51.64906" y2="111.78492" stroke="green" stroke-width="0.04000"/>
    <line x1="48.87782" y1="112.51382" x2="50.33007" y2="110.09688" stroke="green" stroke-width="0.04000"/>
    <line x1="48.76453" y1="112.50821" x2="50.23314" y2="110.06403" stroke="green" stroke-width="0.04000"/>
    <line x1="48.53238" y1="112.50626" x2="50.07352" y2="109.94136" stroke="green" stroke-width="0.04000"/>
    <line x1="48.65026" y1="112.50422" x2="50.14770" y2="110.01205" stroke="green" stroke-width="0.04000"/>
    <line x1="48.41749" y1="112.50330" x2="49.99933" y2="109.87067" stroke="green" stroke-width="0.04000"/>
    <line x1="48.30259" y1="112.50035" x2="49.92514" y2="109.79997" stroke="green" stroke-width="0.04000"/>
    <line x1="48.18799" y1="112.49693" x2="49.85096" y2="109.72928" stroke="green" stroke-width="0.04000"/>
    <line x1="48.07373" y1="112.49292" x2="49.77678" y2="109.65858" stroke="green" stroke-width="0.04000"/>
    <line x1="47.95948" y1="112.48891" x2="49.70259" y2="109.58789" stroke="green" stroke-width="0.04000"/>
    <line x1="47.84523" y1="112.48490" x2="49.61628" y2="109.53738" stroke="green" stroke-width="0.04000"/>
    <line x1="47.73097" y1="112.48089" x2="49.51903" y2="109.50507" stroke="green" stroke-width="0.04000"/>
    <line x1="47.61672" y1="112.47688" x2="49.42178" y2="109.47276" stroke="green" stroke-width="0.04000"/>
    <line x1="47.50246" y1="112.47287" x2="49.32453" y2="109.44045" stroke="green" stroke-width="0.04000"/>
    <line x1="47.39037" y1="112.46528" x2="49.22709" y2="109.40844" stroke="green" stroke-width="0.04000"/>
    <line x1="47.27970" y1="112.45529" x2="49.12942" y2="109.37685" stroke="green" stroke-width="0.04000"/>
    <line x1="47.16814" y1="112.44679" x2="49.03174" y2="109.34525" stroke="green" stroke-width="0.04000"/>
    <line x1="47.05659" y1="112.43829" x2="48.93407" y2="109.31364" stroke="green" stroke-width="0.04000"/>
    <line x1="46.94504" y1="112.42978" x2="48.83639" y2="109.28204" stroke="green" stroke-width="0.04000"/>
    <line x1="46.83348" y1="112.42128" x2="48.73871" y2="109.25045" stroke="green" stroke-width="0.04000"/>
    <line x1="46.72193" y1="112.41277" x2="48.64104" y2="109.21885" stroke="green" stroke-width="0.04000"/>
    <line x1="46.61038" y1="112.40427" x2="48.54336" y2="109.18725" stroke="green" stroke-width="0.04000"/>
    <line x1="46.49882" y1="112.39577" x2="48.44730" y2="109.15295" stroke="green" stroke-width="0.04000"/>
    <line x1="46.38727" y1="112.38727" x2="48.35176" y2="109.11780" stroke="green" stroke-width="0.04000"/>
    <line x1="51.41350" y1="112.37112" x2="51.70010" y2="111.89412" stroke="green" stroke-width="0.04000"/>
    <line x1="46.28091" y1="112.37012" x2="48.25621" y2="109.08266" stroke="green" stroke-width="0.04000"/>
    <line x1="46.17515" y1="112.35197" x2="48.16067" y2="109.04751" stroke="green" stroke-width="0.04000"/>
    <line x1="46.06907" y1="112.33436" x2="48.06512" y2="109.01236" stroke="green" stroke-width="0.04000"/>
    <line x1="45.96285" y1="112.31697" x2="47.96693" y2="108.98163" stroke="green" stroke-width="0.04000"/>
    <line x1="45.85664" y1="112.29958" x2="47.86869" y2="108.95097" stroke="green" stroke-width="0.04000"/>
    <line x1="45.75042" y1="112.28220" x2="47.77044" y2="108.92032" stroke="green" stroke-width="0.04000"/>
    <line x1="45.64420" y1="112.26481" x2="47.67219" y2="108.88966" stroke="green" stroke-width="0.04000"/>
    <line x1="45.53837" y1="112.24679" x2="47.57395" y2="108.85902" stroke="green" stroke-width="0.04000"/>
    <line x1="45.43254" y1="112.22875" x2="47.47570" y2="108.82836" stroke="green" stroke-width="0.04000"/>
    <line x1="45.32672" y1="112.21072" x2="47.37963" y2="108.79409" stroke="green" stroke-width="0.04000"/>
    <line x1="51.62841" y1="112.20760" x2="51.75115" y2="112.00332" stroke="green" stroke-width="0.04000"/>
    <line x1="45.22089" y1="112.19267" x2="47.28366" y2="108.75966" stroke="green" stroke-width="0.04000"/>
    <line x1="45.11678" y1="112.17180" x2="47.18768" y2="108.72523" stroke="green" stroke-width="0.04000"/>
    <line x1="45.01370" y1="112.14918" x2="47.09171" y2="108.69080" stroke="green" stroke-width="0.04000"/>
    <line x1="44.91063" y1="112.12656" x2="46.99573" y2="108.65637" stroke="green" stroke-width="0.04000"/>
    <line x1="44.80965" y1="112.10046" x2="46.89880" y2="108.62353" stroke="green" stroke-width="0.04000"/>
    <line x1="44.71196" y1="112.06889" x2="46.79955" y2="108.59455" stroke="green" stroke-width="0.04000"/>
    <line x1="44.61426" y1="112.03732" x2="46.70029" y2="108.56557" stroke="green" stroke-width="0.04000"/>
    <line x1="44.51656" y1="112.00576" x2="46.60104" y2="108.53660" stroke="green" stroke-width="0.04000"/>
    <line x1="44.41887" y1="111.97419" x2="46.50475" y2="108.50270" stroke="green" stroke-width="0.04000"/>
    <line x1="44.32140" y1="111.94224" x2="46.41293" y2="108.46134" stroke="green" stroke-width="0.04000"/>
    <line x1="44.22968" y1="111.90073" x2="46.32113" y2="108.41998" stroke="green" stroke-width="0.04000"/>
    <line x1="44.13795" y1="111.85923" x2="46.22932" y2="108.37862" stroke="green" stroke-width="0.04000"/>
    <line x1="44.04622" y1="111.81773" x2="46.13750" y2="108.33726" stroke="green" stroke-width="0.04000"/>
    <line x1="43.95450" y1="111.77622" x2="46.04569" y2="108.29589" stroke="green" stroke-width="0.04000"/>
    <line x1="43.86277" y1="111.73472" x2="45.95388" y2="108.25453" stroke="green" stroke-width="0.04000"/>
    <line x1="43.77077" y1="111.69366" x2="45.85836" y2="108.21934" stroke="green" stroke-width="0.04000"/>
    <line x1="43.67746" y1="111.65481" x2="45.76130" y2="108.18671" stroke="green" stroke-width="0.04000"/>
    <line x1="43.58414" y1="111.61595" x2="45.66424" y2="108.15409" stroke="green" stroke-width="0.04000"/>
    <line x1="43.49083" y1="111.57710" x2="45.56718" y2="108.12147" stroke="green" stroke-width="0.04000"/>
    <line x1="43.40039" y1="111.53346" x2="45.47102" y2="108.08736" stroke="green" stroke-width="0.04000"/>
    <line x1="43.31023" y1="111.48934" x2="45.37498" y2="108.05301" stroke="green" stroke-width="0.04000"/>
    <line x1="43.22008" y1="111.44521" x2="45.27896" y2="108.01867" stroke="green" stroke-width="0.04000"/>
    <line x1="43.13017" y1="111.40070" x2="45.18293" y2="107.98432" stroke="green" stroke-width="0.04000"/>
    <line x1="43.04557" y1="111.34732" x2="45.08691" y2="107.94998" stroke="green" stroke-width="0.04000"/>
    <line x1="42.96098" y1="111.29395" x2="44.99088" y2="107.91563" stroke="green" stroke-width="0.04000"/>
    <line x1="42.87638" y1="111.24059" x2="44.89485" y2="107.88129" stroke="green" stroke-width="0.04000"/>
    <line x1="42.79179" y1="111.18721" x2="44.79882" y2="107.84695" stroke="green" stroke-width="0.04000"/>
    <line x1="42.70720" y1="111.13384" x2="44.70715" y2="107.80537" stroke="green" stroke-width="0.04000"/>
    <line x1="42.62256" y1="111.08054" x2="44.61808" y2="107.75943" stroke="green" stroke-width="0.04000"/>
    <line x1="42.53754" y1="111.02788" x2="44.53729" y2="107.69974" stroke="green" stroke-width="0.04000"/>
    <line x1="42.45251" y1="110.97522" x2="44.45166" y2="107.64808" stroke="green" stroke-width="0.04000"/>
    <line x1="42.36749" y1="110.92256" x2="44.36604" y2="107.59642" stroke="green" stroke-width="0.04000"/>
    <line x1="42.28247" y1="110.86991" x2="44.28041" y2="107.54476" stroke="green" stroke-width="0.04000"/>
    <line x1="42.19744" y1="110.81725" x2="44.19479" y2="107.49311" stroke="green" stroke-width="0.04000"/>
    <line x1="42.11242" y1="110.76460" x2="44.10917" y2="107.44145" stroke="green" stroke-width="0.04000"/>
    <line x1="42.02745" y1="110.71183" x2="44.02354" y2="107.38979" stroke="green" stroke-width="0.04000"/>
    <line x1="41.94300" y1="110.65823" x2="43.93792" y2="107.33813" stroke="green" stroke-width="0.04000"/>
    <line x1="41.85855" y1="110.60461" x2="43.85229" y2="107.28648" stroke="green" stroke-width="0.04000"/>
    <line x1="41.77410" y1="110.55100" x2="43.76667" y2="107.23482" stroke="green" stroke-width="0.04000"/>
    <line x1="41.68787" y1="110.50035" x2="43.68104" y2="107.18317" stroke="green" stroke-width="0.04000"/>
    <line x1="41.60472" y1="110.44459" x2="43.60110" y2="107.12204" stroke="green" stroke-width="0.04000"/>
    <line x1="41.52408" y1="110.38463" x2="43.53455" y2="107.03864" stroke="green" stroke-width="0.04000"/>
    <line x1="41.44344" y1="110.32468" x2="43.46176" y2="106.96563" stroke="green" stroke-width="0.04000"/>
    <line x1="41.36280" y1="110.26472" x2="43.38691" y2="106.89603" stroke="green" stroke-width="0.04000"/>
    <line x1="41.28216" y1="110.20477" x2="43.31347" y2="106.82410" stroke="green" stroke-width="0.04000"/>
    <line x1="41.20153" y1="110.14481" x2="43.24002" y2="106.75217" stroke="green" stroke-width="0.04000"/>
    <line x1="41.12089" y1="110.08485" x2="43.16658" y2="106.68024" stroke="green" stroke-width="0.04000"/>
    <line x1="41.04025" y1="110.02489" x2="43.09314" y2="106.60831" stroke="green" stroke-width="0.04000"/>
    <line x1="40.95961" y1="109.96494" x2="43.01970" y2="106.53638" stroke="green" stroke-width="0.04000"/>
    <line x1="40.87897" y1="109.90498" x2="42.94626" y2="106.46444" stroke="green" stroke-width="0.04000"/>
    <line x1="40.79851" y1="109.84473" x2="42.87282" y2="106.39251" stroke="green" stroke-width="0.04000"/>
    <line x1="40.71878" y1="109.78326" x2="42.79937" y2="106.32057" stroke="green" stroke-width="0.04000"/>
    <line x1="40.64431" y1="109.71304" x2="42.72135" y2="106.25628" stroke="green" stroke-width="0.04000"/>
    <line x1="40.57072" y1="109.64137" x2="42.64188" y2="106.19437" stroke="green" stroke-width="0.04000"/>
    <line x1="40.49712" y1="109.56969" x2="42.56241" y2="106.13247" stroke="green" stroke-width="0.04000"/>
    <line x1="40.42352" y1="109.49802" x2="42.48294" y2="106.07057" stroke="green" stroke-width="0.04000"/>
    <line x1="40.34993" y1="109.42635" x2="42.40348" y2="106.00867" stroke="green" stroke-width="0.04000"/>
    <line x1="40.27633" y1="109.35467" x2="42.32401" y2="105.94676" stroke="green" stroke-width="0.04000"/>
    <line x1="40.20273" y1="109.28300" x2="42.24454" y2="105.88486" stroke="green" stroke-width="0.04000"/>
    <line x1="40.12938" y1="109.21091" x2="42.16716" y2="105.81947" stroke="green" stroke-width="0.04000"/>
    <line x1="40.05706" y1="109.13712" x2="42.09082" y2="105.75237" stroke="green" stroke-width="0.04000"/>
    <line x1="39.98473" y1="109.06333" x2="42.00407" y2="105.70258" stroke="green" stroke-width="0.04000"/>
    <line x1="39.91240" y1="108.98955" x2="41.91011" y2="105.66479" stroke="green" stroke-width="0.04000"/>
    <line x1="39.84007" y1="108.91576" x2="41.81056" y2="105.63632" stroke="green" stroke-width="0.04000"/>
    <line x1="39.76774" y1="108.84197" x2="41.71100" y2="105.60785" stroke="green" stroke-width="0.04000"/>
    <line x1="39.69542" y1="108.76819" x2="41.61145" y2="105.57938" stroke="green" stroke-width="0.04000"/>
    <line x1="39.62309" y1="108.69440" x2="41.51189" y2="105.55091" stroke="green" stroke-width="0.04000"/>
    <line x1="39.55076" y1="108.62061" x2="41.41233" y2="105.52244" stroke="green" stroke-width="0.04000"/>
    <line x1="39.48129" y1="108.54207" x2="41.31277" y2="105.49397" stroke="green" stroke-width="0.04000"/>
    <line x1="39.41865" y1="108.45216" x2="41.21294" y2="105.46597" stroke="green" stroke-width="0.04000"/>
    <line x1="39.36111" y1="108.35377" x2="41.11039" y2="105.44248" stroke="green" stroke-width="0.04000"/>
    <line x1="39.30357" y1="108.25537" x2="41.00783" y2="105.41900" stroke="green" stroke-width="0.04000"/>
    <line x1="39.24603" y1="108.15697" x2="40.90528" y2="105.39552" stroke="green" stroke-width="0.04000"/>
    <line x1="39.18848" y1="108.05858" x2="40.80272" y2="105.37203" stroke="green" stroke-width="0.04000"/>
    <line x1="39.13094" y1="107.96018" x2="40.70017" y2="105.34855" stroke="green" stroke-width="0.04000"/>
    <line x1="39.07340" y1="107.86179" x2="40.57402" y2="105.36434" stroke="green" stroke-width="0.04000"/>
    <line x1="39.01586" y1="107.76340" x2="40.44011" y2="105.39305" stroke="green" stroke-width="0.04000"/>
    <line x1="38.98017" y1="107.62862" x2="40.30619" y2="105.42176" stroke="green" stroke-width="0.04000"/>
    <line x1="38.95120" y1="107.48269" x2="40.17456" y2="105.44668" stroke="green" stroke-width="0.04000"/>
    <line x1="38.91469" y1="107.34928" x2="40.04374" y2="105.47025" stroke="green" stroke-width="0.04000"/>
    <line x1="38.87688" y1="107.21806" x2="39.91291" y2="105.49381" stroke="green" stroke-width="0.04000"/>
    <line x1="38.83907" y1="107.08682" x2="39.78209" y2="105.51738" stroke="green" stroke-width="0.04000"/>
    <line x1="38.80126" y1="106.95560" x2="39.58682" y2="105.64819" stroke="green" stroke-width="0.04000"/>
    <line x1="38.79244" y1="106.77610" x2="39.38093" y2="105.79669" stroke="green" stroke-width="0.04000"/>
    <line x1="38.95825" y1="106.30598" x2="39.18275" y2="105.93235" stroke="green" stroke-width="0.04000"/>
    <path d="M 33.0234 111.572 L 33.6282 111.752 L 33.824 112.023 L 34.3021 112.693 L 34.3694 112.788 L 34.3941 112.822 L 34.7375 113.644 L 35.034 114.324 L 35.0991 114.514 L 35.1853 114.784 L 35.4002 115.5 L 35.5656 116.12 L 35.6268 116.495 L 35.6912 116.904 L 35.7687 117.467 L 35.8169 117.776 L 35.8299 118.418 L 35.8838 118.906 L 35.8928 119.602 L 35.9071 119.839 L 35.8842 120.355 L 35.8424 120.742 L 35.8003 121.388 L 35.7751 121.706 L 35.7757 121.796 L 35.7306 122.689 L 35.733 123.269 L 35.7053 123.67 L 35.7033 124.342 L 35.6952 124.618 L 35.7017 124.762 L 35.6095 125.742 L 35.5773 126.18 L 35.1293 126.798 L 34.9002 126.914 L 34.7164 126.741 L 34.146 126.327 L 33.8622 125.604 L 33.7904 125.419 L 33.7478 125.308 L 33.5507 124.725 L 33.4516 124.439 L 33.4259 124.371 L 33.0578 123.242 L 33.0355 123.184 L 32.7863 122.356 L 32.7116 122.126 L 32.4935 121.341 L 32.396 120.991 L 32.2458 120.349 L 32.0552 119.721 L 31.9761 119.378 L 31.5372 118.383 L 31.0753 117.653 L 30.7065 117.053 L 30.6292 116.925 L 30.5971 116.045 L 30.5454 115.909 L 30.5326 115.662 L 30.7042 114.842 L 30.8427 114.178 L 31.0038 113.821 L 31.2392 113.043 L 31.2961 112.879 L 31.3234 112.785 L 31.9227 112.015 L 32 111.902 L 32.4627 111.684 L 32.82 111.514 L 33.0234 111.572" fill="none" stroke="blue" stroke-width="0.04000" fill-rule="evenodd" fill-opacity="1.000"/>
    <path d="M 41.2226 105.468 L 41.9661 105.681 L 42.1053 105.761 L 42.1971 105.848 L 42.7818 106.303 L 43.3868 106.896 L 43.518 107.018 L 43.621 107.147 L 44.5553 107.711 L 44.6047 107.753 L 44.7628 107.834 L 45.5542 108.117 L 45.9269 108.242 L 46.5412 108.519 L 46.9276 108.632 L 47.4716 108.827 L 48.0634 109.012 L 48.5201 109.18 L 49.2683 109.422 L 49.6674 109.554 L 50.1852 110.048 L 51.0122 110.328 L 51.0696 110.488 L 51.1902 110.713 L 51.4999 111.466 L 51.7894 112.085 L 51.2783 112.474 L 51.0145 112.636 L 50.8594 112.601 L 50.4285 112.58 L 49.8705 112.519 L 49.6785 112.553 L 48.6625 112.503 L 48.6051 112.508 L 48.2389 112.499 L 47.443 112.471 L 47.3361 112.46 L 46.3757 112.386 L 46.1442 112.347 L 45.6412 112.264 L 45.1808 112.186 L 44.8478 112.113 L 44.325 111.944 L 43.7867 111.7 L 43.4821 111.573 L 43.1338 111.403 L 42.6304 111.085 L 42.0366 110.718 L 41.7674 110.547 L 41.65 110.478 L 40.814 109.857 L 40.7074 109.775 L 40.1435 109.225 L 39.5487 108.618 L 39.5059 108.577 L 39.4237 108.461 L 39.0023 107.74 L 38.9469 107.461 L 38.7688 106.843 L 38.9586 106.305 L 39.0693 106.007 L 39.2961 105.858 L 39.7636 105.521 L 40.2711 105.429 L 40.6748 105.343 L 41.2226 105.468" fill="none" stroke="blue" stroke-width="0.04000" fill-rule="evenodd" fill-opacity="1.000"/>
  </g>
</svg>
