<?xml version="1.0" encoding="UTF-8" standalone="yes"?>
<svg xmlns="http://www.w3.org/2000/svg"
     xmlns:xlink="http://www.w3.org/1999/xlink"
     width="2020.0000mm" height="1600.0000mm"
     viewBox="0 0 202.000000 160.000000">
  <!--
    Build plate : 150.00 x 150.00 mm
    Coordinate  : 1 SVG unit = 1 mm
    Display zoom: 10x  (width/height = viewBox x 10)
    Hatch stroke: 0.04 mm = ~28 mm on screen at this zoom
    Legend panel: right margin (42 mm wide)
  -->
  <defs>
    <marker id="endArrow" markerWidth="2" markerHeight="1.4"
            refX="0" refY="0.7" orient="auto"
            markerUnits="strokeWidth">
      <polyline fill="darkblue" points="0,0 2,0.7 0,1.4 0.2,0.7"/>
    </marker>
  </defs>
  <!-- Background -->
  <rect x="0" y="0" width="202.000000" height="160.000000" fill="#f0f0f0" stroke="none"/>
  <!-- Build plate boundary (150 x 150 mm) -->
  <rect x="5.000000" y="5.000000" width="150.000000" height="150.000000"
        fill="#ffffff" stroke="#aaaaaa" stroke-width="0.2" stroke-dasharray="1,0.5"/>
  <!-- Build plate centre circle (r = 75.00 mm) -->
  <circle cx="80.000000" cy="80.000000" r="75.000000"
          fill="none" stroke="#bbbbbb" stroke-width="0.15" stroke-dasharray="0.8,0.4"/>
  <!-- Centre cross-hair -->
  <line x1="5.000000" y1="80.000000" x2="155.000000" y2="80.000000" stroke="#cccccc" stroke-width="0.1"/>
  <line x1="80.000000" y1="5.000000" x2="80.000000" y2="155.000000" stroke="#cccccc" stroke-width="0.1"/>
  <circle cx="80.000000" cy="80.000000" r="0.3" fill="#cccccc" stroke="none"/>
  <!-- Corner labels -->
  <text x="5.400000" y="4.600000" font-family="sans-serif" font-size="2" fill="#888888">0,0</text>
  <text x="154.600006" y="4.600000" font-family="sans-serif" font-size="2" fill="#888888" text-anchor="end">150,0</text>
  <text x="5.400000" y="157.199997" font-family="sans-serif" font-size="2" fill="#888888">0,150</text>
  <!-- Layer geometry -->
  <g id="geometry">
    <line x1="34.82133" y1="126.00264" x2="34.86047" y2="125.97624" stroke="green" stroke-width="0.04000"/>
    <line x1="34.72033" y1="125.95015" x2="34.96571" y2="125.78464" stroke="green" stroke-width="0.04000"/>
    <line x1="34.59311" y1="125.91534" x2="35.03903" y2="125.61457" stroke="green" stroke-width="0.04000"/>
    <line x1="34.46561" y1="125.88071" x2="35.11235" y2="125.44448" stroke="green" stroke-width="0.04000"/>
    <line x1="34.33813" y1="125.84608" x2="35.18566" y2="125.27441" stroke="green" stroke-width="0.04000"/>
    <line x1="34.21064" y1="125.81145" x2="35.25898" y2="125.10434" stroke="green" stroke-width="0.04000"/>
    <line x1="34.08315" y1="125.77682" x2="35.32169" y2="124.94142" stroke="green" stroke-width="0.04000"/>
    <line x1="33.95566" y1="125.74220" x2="35.33549" y2="124.81149" stroke="green" stroke-width="0.04000"/>
    <line x1="33.91004" y1="125.65235" x2="35.35144" y2="124.68011" stroke="green" stroke-width="0.04000"/>
    <line x1="33.87292" y1="125.55676" x2="35.36544" y2="124.55003" stroke="green" stroke-width="0.04000"/>
    <line x1="33.83615" y1="125.46094" x2="35.37848" y2="124.42063" stroke="green" stroke-width="0.04000"/>
    <line x1="33.79938" y1="125.36512" x2="35.39151" y2="124.29121" stroke="green" stroke-width="0.04000"/>
    <line x1="33.76260" y1="125.26930" x2="35.40454" y2="124.16180" stroke="green" stroke-width="0.04000"/>
    <line x1="33.72583" y1="125.17349" x2="35.41757" y2="124.03239" stroke="green" stroke-width="0.04000"/>
    <line x1="33.68906" y1="125.07767" x2="35.43060" y2="123.90298" stroke="green" stroke-width="0.04000"/>
    <line x1="33.65340" y1="124.98110" x2="35.44430" y2="123.77312" stroke="green" stroke-width="0.04000"/>
    <line x1="33.61863" y1="124.88393" x2="35.45931" y2="123.64237" stroke="green" stroke-width="0.04000"/>
    <line x1="33.58387" y1="124.78676" x2="35.47350" y2="123.51218" stroke="green" stroke-width="0.04000"/>
    <line x1="33.54907" y1="124.68961" x2="35.48709" y2="123.38239" stroke="green" stroke-width="0.04000"/>
    <line x1="33.51250" y1="124.59365" x2="35.50069" y2="123.25260" stroke="green" stroke-width="0.04000"/>
    <line x1="33.47839" y1="124.49604" x2="35.51429" y2="123.12280" stroke="green" stroke-width="0.04000"/>
    <line x1="33.44815" y1="124.39581" x2="35.52037" y2="122.99808" stroke="green" stroke-width="0.04000"/>
    <line x1="33.41791" y1="124.29559" x2="35.52641" y2="122.87338" stroke="green" stroke-width="0.04000"/>
    <line x1="33.38767" y1="124.19536" x2="35.53244" y2="122.74870" stroke="green" stroke-width="0.04000"/>
    <line x1="33.35743" y1="124.09513" x2="35.54416" y2="122.62017" stroke="green" stroke-width="0.04000"/>
    <line x1="33.32719" y1="123.99490" x2="35.55945" y2="122.48923" stroke="green" stroke-width="0.04000"/>
    <line x1="33.29696" y1="123.89468" x2="35.57474" y2="122.35831" stroke="green" stroke-width="0.04000"/>
    <line x1="33.26672" y1="123.79446" x2="35.59003" y2="122.22737" stroke="green" stroke-width="0.04000"/>
    <line x1="33.23766" y1="123.69344" x2="35.60531" y2="122.09644" stroke="green" stroke-width="0.04000"/>
    <line x1="33.21056" y1="123.59109" x2="35.62060" y2="121.96550" stroke="green" stroke-width="0.04000"/>
    <line x1="33.18345" y1="123.48875" x2="35.63589" y2="121.83456" stroke="green" stroke-width="0.04000"/>
    <line x1="33.15635" y1="123.38641" x2="35.65118" y2="121.70363" stroke="green" stroke-width="0.04000"/>
    <line x1="33.12924" y1="123.28407" x2="35.66184" y2="121.57582" stroke="green" stroke-width="0.04000"/>
    <line x1="33.10131" y1="123.18230" x2="35.67654" y2="121.44528" stroke="green" stroke-width="0.04000"/>
    <line x1="33.07220" y1="123.08131" x2="35.69033" y2="121.31535" stroke="green" stroke-width="0.04000"/>
    <line x1="33.04308" y1="122.98032" x2="35.70360" y2="121.18578" stroke="green" stroke-width="0.04000"/>
    <line x1="33.01398" y1="122.87933" x2="35.71686" y2="121.05621" stroke="green" stroke-width="0.04000"/>
    <line x1="32.98526" y1="122.77808" x2="35.73013" y2="120.92665" stroke="green" stroke-width="0.04000"/>
    <line x1="32.95873" y1="122.67536" x2="35.74339" y2="120.79708" stroke="green" stroke-width="0.04000"/>
    <line x1="32.93489" y1="122.57082" x2="35.75665" y2="120.66751" stroke="green" stroke-width="0.04000"/>
    <line x1="32.91104" y1="122.46628" x2="35.77438" y2="120.53494" stroke="green" stroke-width="0.04000"/>
    <line x1="32.88720" y1="122.36174" x2="35.79367" y2="120.40130" stroke="green" stroke-width="0.04000"/>
    <line x1="32.86336" y1="122.25720" x2="35.81297" y2="120.26766" stroke="green" stroke-width="0.04000"/>
    <line x1="32.83952" y1="122.15266" x2="35.82982" y2="120.13567" stroke="green" stroke-width="0.04000"/>
    <line x1="32.81567" y1="122.04812" x2="35.84373" y2="120.00567" stroke="green" stroke-width="0.04000"/>
    <line x1="32.79183" y1="121.94358" x2="35.85765" y2="119.87566" stroke="green" stroke-width="0.04000"/>
    <line x1="32.76799" y1="121.83904" x2="35.87157" y2="119.74564" stroke="green" stroke-width="0.04000"/>
    <line x1="32.74110" y1="121.73656" x2="35.88549" y2="119.61564" stroke="green" stroke-width="0.04000"/>
    <line x1="32.71461" y1="121.63380" x2="35.89688" y2="119.48734" stroke="green" stroke-width="0.04000"/>
    <line x1="32.69164" y1="121.52867" x2="35.90810" y2="119.35914" stroke="green" stroke-width="0.04000"/>
    <line x1="32.66867" y1="121.42355" x2="35.91910" y2="119.23110" stroke="green" stroke-width="0.04000"/>
    <line x1="32.64569" y1="121.31842" x2="35.92961" y2="119.10339" stroke="green" stroke-width="0.04000"/>
    <line x1="32.62272" y1="121.21329" x2="35.94012" y2="118.97568" stroke="green" stroke-width="0.04000"/>
    <line x1="32.59975" y1="121.10817" x2="35.95063" y2="118.84797" stroke="green" stroke-width="0.04000"/>
    <line x1="32.57678" y1="121.00304" x2="35.96114" y2="118.72026" stroke="green" stroke-width="0.04000"/>
    <line x1="32.55381" y1="120.89791" x2="35.97165" y2="118.59255" stroke="green" stroke-width="0.04000"/>
    <line x1="32.53096" y1="120.79270" x2="35.98136" y2="118.46538" stroke="green" stroke-width="0.04000"/>
    <line x1="32.50819" y1="120.68743" x2="35.99009" y2="118.33887" stroke="green" stroke-width="0.04000"/>
    <line x1="32.48543" y1="120.58216" x2="35.99882" y2="118.21236" stroke="green" stroke-width="0.04000"/>
    <line x1="32.46509" y1="120.47527" x2="36.00755" y2="118.08585" stroke="green" stroke-width="0.04000"/>
    <line x1="32.44540" y1="120.36793" x2="36.01627" y2="117.95934" stroke="green" stroke-width="0.04000"/>
    <line x1="32.42570" y1="120.26058" x2="36.01687" y2="117.83831" stroke="green" stroke-width="0.04000"/>
    <line x1="32.40602" y1="120.15324" x2="36.00740" y2="117.72408" stroke="green" stroke-width="0.04000"/>
    <line x1="32.38633" y1="120.04591" x2="35.99793" y2="117.60985" stroke="green" stroke-width="0.04000"/>
    <line x1="32.36664" y1="119.93856" x2="35.99195" y2="117.49326" stroke="green" stroke-width="0.04000"/>
    <line x1="32.34695" y1="119.83122" x2="35.99165" y2="117.37284" stroke="green" stroke-width="0.04000"/>
    <line x1="32.32712" y1="119.72398" x2="35.99134" y2="117.25243" stroke="green" stroke-width="0.04000"/>
    <line x1="32.30711" y1="119.61684" x2="35.99103" y2="117.13201" stroke="green" stroke-width="0.04000"/>
    <line x1="32.28711" y1="119.50972" x2="35.99072" y2="117.01160" stroke="green" stroke-width="0.04000"/>
    <line x1="32.26710" y1="119.40260" x2="35.98686" y2="116.89359" stroke="green" stroke-width="0.04000"/>
    <line x1="32.24711" y1="119.29546" x2="35.98262" y2="116.77583" stroke="green" stroke-width="0.04000"/>
    <line x1="32.22684" y1="119.18850" x2="35.97838" y2="116.65806" stroke="green" stroke-width="0.04000"/>
    <line x1="32.20659" y1="119.08154" x2="35.97414" y2="116.54029" stroke="green" stroke-width="0.04000"/>
    <line x1="32.18633" y1="118.97459" x2="35.96971" y2="116.42267" stroke="green" stroke-width="0.04000"/>
    <line x1="32.16607" y1="118.86763" x2="35.96499" y2="116.30522" stroke="green" stroke-width="0.04000"/>
    <line x1="32.14474" y1="118.76139" x2="35.96028" y2="116.18778" stroke="green" stroke-width="0.04000"/>
    <line x1="32.12310" y1="118.65537" x2="35.95557" y2="116.07034" stroke="green" stroke-width="0.04000"/>
    <line x1="32.10145" y1="118.54935" x2="35.95085" y2="115.95290" stroke="green" stroke-width="0.04000"/>
    <line x1="32.07980" y1="118.44333" x2="35.93062" y2="115.84592" stroke="green" stroke-width="0.04000"/>
    <line x1="32.05816" y1="118.33730" x2="35.90997" y2="115.73922" stroke="green" stroke-width="0.04000"/>
    <line x1="32.03651" y1="118.23129" x2="35.88933" y2="115.63253" stroke="green" stroke-width="0.04000"/>
    <line x1="32.01487" y1="118.12527" x2="35.86869" y2="115.52583" stroke="green" stroke-width="0.04000"/>
    <line x1="31.99322" y1="118.01924" x2="35.84834" y2="115.41894" stroke="green" stroke-width="0.04000"/>
    <line x1="31.97277" y1="117.91241" x2="35.82902" y2="115.31134" stroke="green" stroke-width="0.04000"/>
    <line x1="31.94807" y1="117.80846" x2="35.80970" y2="115.20375" stroke="green" stroke-width="0.04000"/>
    <line x1="31.92113" y1="117.70600" x2="35.79038" y2="115.09616" stroke="green" stroke-width="0.04000"/>
    <line x1="31.89419" y1="117.60355" x2="35.77103" y2="114.98859" stroke="green" stroke-width="0.04000"/>
    <line x1="31.85586" y1="117.50879" x2="35.74858" y2="114.88311" stroke="green" stroke-width="0.04000"/>
    <line x1="31.81590" y1="117.41512" x2="35.72614" y2="114.77763" stroke="green" stroke-width="0.04000"/>
    <line x1="31.77595" y1="117.32144" x2="35.70370" y2="114.67214" stroke="green" stroke-width="0.04000"/>
    <line x1="31.73600" y1="117.22777" x2="35.68126" y2="114.56666" stroke="green" stroke-width="0.04000"/>
    <line x1="31.69604" y1="117.13409" x2="35.66050" y2="114.46004" stroke="green" stroke-width="0.04000"/>
    <line x1="31.65578" y1="117.04063" x2="35.64174" y2="114.35207" stroke="green" stroke-width="0.04000"/>
    <line x1="31.60665" y1="116.95315" x2="35.62299" y2="114.24409" stroke="green" stroke-width="0.04000"/>
    <line x1="31.55751" y1="116.86567" x2="35.60423" y2="114.13612" stroke="green" stroke-width="0.04000"/>
    <line x1="31.50838" y1="116.77819" x2="35.57961" y2="114.03211" stroke="green" stroke-width="0.04000"/>
    <line x1="31.46246" y1="116.68854" x2="35.54512" y2="113.93475" stroke="green" stroke-width="0.04000"/>
    <line x1="31.41753" y1="116.59822" x2="35.51064" y2="113.83739" stroke="green" stroke-width="0.04000"/>
    <line x1="31.37261" y1="116.50790" x2="35.47616" y2="113.74002" stroke="green" stroke-width="0.04000"/>
    <line x1="31.32768" y1="116.41758" x2="35.44167" y2="113.64266" stroke="green" stroke-width="0.04000"/>
    <line x1="31.28276" y1="116.32726" x2="35.40734" y2="113.54520" stroke="green" stroke-width="0.04000"/>
    <line x1="31.23784" y1="116.23695" x2="35.37321" y2="113.44760" stroke="green" stroke-width="0.04000"/>
    <line x1="31.18974" y1="116.14877" x2="35.33907" y2="113.35001" stroke="green" stroke-width="0.04000"/>
    <line x1="31.14085" y1="116.06112" x2="35.30494" y2="113.25240" stroke="green" stroke-width="0.04000"/>
    <line x1="31.09196" y1="115.97347" x2="35.27080" y2="113.15481" stroke="green" stroke-width="0.04000"/>
    <line x1="31.04308" y1="115.88582" x2="35.23602" y2="113.05765" stroke="green" stroke-width="0.04000"/>
    <line x1="30.99419" y1="115.79817" x2="35.20029" y2="112.96112" stroke="green" stroke-width="0.04000"/>
    <line x1="30.94530" y1="115.71053" x2="35.16457" y2="112.86459" stroke="green" stroke-width="0.04000"/>
    <line x1="30.89642" y1="115.62288" x2="35.12885" y2="112.76807" stroke="green" stroke-width="0.04000"/>
    <line x1="30.84753" y1="115.53523" x2="35.09313" y2="112.67154" stroke="green" stroke-width="0.04000"/>
    <line x1="30.80039" y1="115.44641" x2="35.05741" y2="112.57501" stroke="green" stroke-width="0.04000"/>
    <line x1="30.76643" y1="115.34869" x2="35.02169" y2="112.47849" stroke="green" stroke-width="0.04000"/>
    <line x1="30.73488" y1="115.24935" x2="34.98597" y2="112.38196" stroke="green" stroke-width="0.04000"/>
    <line x1="30.72104" y1="115.13807" x2="34.95028" y2="112.28541" stroke="green" stroke-width="0.04000"/>
    <line x1="30.70720" y1="115.02678" x2="34.91467" y2="112.18880" stroke="green" stroke-width="0.04000"/>
    <line x1="30.69336" y1="114.91549" x2="34.87722" y2="112.09344" stroke="green" stroke-width="0.04000"/>
    <line x1="30.67952" y1="114.80421" x2="34.83673" y2="112.00014" stroke="green" stroke-width="0.04000"/>
    <line x1="30.66568" y1="114.69292" x2="34.79623" y2="111.90683" stroke="green" stroke-width="0.04000"/>
    <line x1="30.65184" y1="114.58163" x2="34.75573" y2="111.81352" stroke="green" stroke-width="0.04000"/>
    <line x1="30.64597" y1="114.46497" x2="34.71523" y2="111.72021" stroke="green" stroke-width="0.04000"/>
    <line x1="30.67733" y1="114.32320" x2="34.67346" y2="111.62777" stroke="green" stroke-width="0.04000"/>
    <line x1="30.70329" y1="114.18507" x2="34.63027" y2="111.53628" stroke="green" stroke-width="0.04000"/>
    <line x1="30.71114" y1="114.05914" x2="34.58708" y2="111.44479" stroke="green" stroke-width="0.04000"/>
    <line x1="30.71899" y1="113.93323" x2="34.54389" y2="111.35330" stroke="green" stroke-width="0.04000"/>
    <line x1="30.72684" y1="113.80731" x2="34.50069" y2="111.26182" stroke="green" stroke-width="0.04000"/>
    <line x1="30.73470" y1="113.68139" x2="34.45750" y2="111.17033" stroke="green" stroke-width="0.04000"/>
    <line x1="30.74286" y1="113.55526" x2="34.40081" y2="111.08794" stroke="green" stroke-width="0.04000"/>
    <line x1="30.76270" y1="113.42126" x2="34.34139" y2="111.00740" stroke="green" stroke-width="0.04000"/>
    <line x1="30.78254" y1="113.28725" x2="34.28543" y2="110.92452" stroke="green" stroke-width="0.04000"/>
    <line x1="30.80237" y1="113.15325" x2="34.23418" y2="110.83847" stroke="green" stroke-width="0.04000"/>
    <line x1="30.82221" y1="113.01925" x2="34.18294" y2="110.75241" stroke="green" stroke-width="0.04000"/>
    <line x1="30.84159" y1="112.88556" x2="34.13169" y2="110.66636" stroke="green" stroke-width="0.04000"/>
    <line x1="30.85914" y1="112.75311" x2="34.08044" y2="110.58031" stroke="green" stroke-width="0.04000"/>
    <line x1="30.87830" y1="112.61956" x2="34.02919" y2="110.49426" stroke="green" stroke-width="0.04000"/>
    <line x1="30.90066" y1="112.48386" x2="33.97794" y2="110.40820" stroke="green" stroke-width="0.04000"/>
    <line x1="30.94316" y1="112.33456" x2="33.92669" y2="110.32214" stroke="green" stroke-width="0.04000"/>
    <line x1="30.99220" y1="112.18086" x2="33.87544" y2="110.23609" stroke="green" stroke-width="0.04000"/>
    <line x1="31.04124" y1="112.02716" x2="33.82420" y2="110.15004" stroke="green" stroke-width="0.04000"/>
    <line x1="31.09029" y1="111.87346" x2="33.77295" y2="110.06398" stroke="green" stroke-width="0.04000"/>
    <line x1="31.13933" y1="111.71976" x2="33.70276" y2="109.99071" stroke="green" stroke-width="0.04000"/>
    <line x1="31.17665" y1="111.57396" x2="33.61203" y2="109.93128" stroke="green" stroke-width="0.04000"/>
    <line x1="31.21280" y1="111.42896" x2="33.52130" y2="109.87185" stroke="green" stroke-width="0.04000"/>
    <line x1="31.24894" y1="111.28396" x2="33.43057" y2="109.81243" stroke="green" stroke-width="0.04000"/>
    <line x1="31.28509" y1="111.13895" x2="33.33985" y2="109.75301" stroke="green" stroke-width="0.04000"/>
    <line x1="31.44799" y1="110.90845" x2="33.24912" y2="109.69357" stroke="green" stroke-width="0.04000"/>
    <line x1="31.57468" y1="110.70238" x2="33.15839" y2="109.63416" stroke="green" stroke-width="0.04000"/>
    <line x1="31.68011" y1="110.51065" x2="33.06767" y2="109.57472" stroke="green" stroke-width="0.04000"/>
    <line x1="31.78554" y1="110.31891" x2="32.97694" y2="109.51530" stroke="green" stroke-width="0.04000"/>
    <line x1="31.89096" y1="110.12718" x2="32.88622" y2="109.45587" stroke="green" stroke-width="0.04000"/>
    <line x1="46.55290" y1="111.77800" x2="49.74126" y2="109.62743" stroke="green" stroke-width="0.04000"/>
    <line x1="46.74450" y1="111.76939" x2="49.78737" y2="109.71695" stroke="green" stroke-width="0.04000"/>
    <line x1="46.38831" y1="111.76839" x2="49.69514" y2="109.53791" stroke="green" stroke-width="0.04000"/>
    <line x1="46.22372" y1="111.75880" x2="49.64902" y2="109.44839" stroke="green" stroke-width="0.04000"/>
    <line x1="46.94790" y1="111.75282" x2="49.83349" y2="109.80646" stroke="green" stroke-width="0.04000"/>
    <line x1="46.05912" y1="111.74919" x2="49.56834" y2="109.38219" stroke="green" stroke-width="0.04000"/>
    <line x1="45.89753" y1="111.73757" x2="49.46983" y2="109.32802" stroke="green" stroke-width="0.04000"/>
    <line x1="47.15262" y1="111.73534" x2="49.87960" y2="109.89597" stroke="green" stroke-width="0.04000"/>
    <line x1="45.73671" y1="111.72542" x2="49.41294" y2="109.24577" stroke="green" stroke-width="0.04000"/>
    <line x1="47.35233" y1="111.72127" x2="49.92572" y2="109.98550" stroke="green" stroke-width="0.04000"/>
    <line x1="45.57601" y1="111.71319" x2="49.35604" y2="109.16353" stroke="green" stroke-width="0.04000"/>
    <line x1="47.55203" y1="111.70719" x2="49.97183" y2="110.07501" stroke="green" stroke-width="0.04000"/>
    <line x1="45.41558" y1="111.70078" x2="49.28247" y2="109.09253" stroke="green" stroke-width="0.04000"/>
    <line x1="47.75173" y1="111.69311" x2="50.01816" y2="110.16438" stroke="green" stroke-width="0.04000"/>
    <line x1="45.25515" y1="111.68837" x2="49.20505" y2="109.02413" stroke="green" stroke-width="0.04000"/>
    <line x1="45.09917" y1="111.67296" x2="49.12762" y2="108.95573" stroke="green" stroke-width="0.04000"/>
    <line x1="44.94631" y1="111.65544" x2="49.05020" y2="108.88734" stroke="green" stroke-width="0.04000"/>
    <line x1="44.79964" y1="111.63374" x2="48.97277" y2="108.81893" stroke="green" stroke-width="0.04000"/>
    <line x1="48.02168" y1="111.63165" x2="50.06457" y2="110.25371" stroke="green" stroke-width="0.04000"/>
    <line x1="44.66647" y1="111.60295" x2="48.89535" y2="108.75053" stroke="green" stroke-width="0.04000"/>
    <line x1="44.53330" y1="111.57216" x2="48.81793" y2="108.68214" stroke="green" stroke-width="0.04000"/>
    <line x1="48.30523" y1="111.56101" x2="50.11097" y2="110.34303" stroke="green" stroke-width="0.04000"/>
    <line x1="44.40012" y1="111.54137" x2="48.73898" y2="108.61476" stroke="green" stroke-width="0.04000"/>
    <line x1="48.53497" y1="111.52667" x2="50.15738" y2="110.43234" stroke="green" stroke-width="0.04000"/>
    <line x1="44.26966" y1="111.50874" x2="48.65863" y2="108.54835" stroke="green" stroke-width="0.04000"/>
    <line x1="48.77140" y1="111.48782" x2="50.20379" y2="110.52166" stroke="green" stroke-width="0.04000"/>
    <line x1="44.14169" y1="111.47443" x2="48.57827" y2="108.48192" stroke="green" stroke-width="0.04000"/>
    <line x1="44.01371" y1="111.44013" x2="48.49791" y2="108.41550" stroke="green" stroke-width="0.04000"/>
    <line x1="43.88574" y1="111.40583" x2="48.41756" y2="108.34908" stroke="green" stroke-width="0.04000"/>
    <line x1="43.75776" y1="111.37153" x2="48.33720" y2="108.28265" stroke="green" stroke-width="0.04000"/>
    <line x1="43.62978" y1="111.33723" x2="48.25685" y2="108.21624" stroke="green" stroke-width="0.04000"/>
    <line x1="49.18855" y1="111.32707" x2="50.14275" y2="110.68345" stroke="green" stroke-width="0.04000"/>
    <line x1="43.50011" y1="111.30408" x2="48.17649" y2="108.14982" stroke="green" stroke-width="0.04000"/>
    <line x1="43.37547" y1="111.26752" x2="48.09613" y2="108.08339" stroke="green" stroke-width="0.04000"/>
    <line x1="43.25629" y1="111.22729" x2="47.98978" y2="108.03451" stroke="green" stroke-width="0.04000"/>
    <line x1="49.57332" y1="111.18816" x2="49.61270" y2="111.16160" stroke="green" stroke-width="0.04000"/>
    <line x1="43.14576" y1="111.18123" x2="47.86357" y2="107.99902" stroke="green" stroke-width="0.04000"/>
    <line x1="43.04003" y1="111.13191" x2="47.73734" y2="107.96354" stroke="green" stroke-width="0.04000"/>
    <line x1="42.93431" y1="111.08260" x2="47.61113" y2="107.92805" stroke="green" stroke-width="0.04000"/>
    <line x1="42.82858" y1="111.03329" x2="47.48490" y2="107.89257" stroke="green" stroke-width="0.04000"/>
    <line x1="42.72286" y1="110.98399" x2="47.35868" y2="107.85709" stroke="green" stroke-width="0.04000"/>
    <line x1="42.61713" y1="110.93468" x2="47.23246" y2="107.82160" stroke="green" stroke-width="0.04000"/>
    <line x1="42.51161" y1="110.88522" x2="47.10676" y2="107.78576" stroke="green" stroke-width="0.04000"/>
    <line x1="42.40768" y1="110.83471" x2="46.98582" y2="107.74671" stroke="green" stroke-width="0.04000"/>
    <line x1="42.30375" y1="110.78419" x2="46.86489" y2="107.70766" stroke="green" stroke-width="0.04000"/>
    <line x1="42.19980" y1="110.73368" x2="46.78625" y2="107.64008" stroke="green" stroke-width="0.04000"/>
    <line x1="42.09587" y1="110.68317" x2="46.71735" y2="107.56593" stroke="green" stroke-width="0.04000"/>
    <line x1="41.99210" y1="110.63254" x2="46.64845" y2="107.49179" stroke="green" stroke-width="0.04000"/>
    <line x1="41.88887" y1="110.58154" x2="46.57955" y2="107.41764" stroke="green" stroke-width="0.04000"/>
    <line x1="41.78564" y1="110.53056" x2="46.51065" y2="107.34349" stroke="green" stroke-width="0.04000"/>
    <line x1="41.68733" y1="110.47624" x2="46.42630" y2="107.27977" stroke="green" stroke-width="0.04000"/>
    <line x1="41.59178" y1="110.42007" x2="46.31152" y2="107.23656" stroke="green" stroke-width="0.04000"/>
    <line x1="41.49624" y1="110.36389" x2="46.20039" y2="107.19090" stroke="green" stroke-width="0.04000"/>
    <line x1="41.40070" y1="110.30772" x2="46.10794" y2="107.13264" stroke="green" stroke-width="0.04000"/>
    <line x1="41.30515" y1="110.25153" x2="46.01548" y2="107.07438" stroke="green" stroke-width="0.04000"/>
    <line x1="41.20961" y1="110.19536" x2="45.92302" y2="107.01612" stroke="green" stroke-width="0.04000"/>
    <line x1="41.11406" y1="110.13918" x2="45.83057" y2="106.95786" stroke="green" stroke-width="0.04000"/>
    <line x1="41.01412" y1="110.08598" x2="45.70038" y2="106.92505" stroke="green" stroke-width="0.04000"/>
    <line x1="40.90834" y1="110.03671" x2="45.56409" y2="106.89636" stroke="green" stroke-width="0.04000"/>
    <line x1="40.81047" y1="109.98209" x2="45.42780" y2="106.86767" stroke="green" stroke-width="0.04000"/>
    <line x1="40.72729" y1="109.91758" x2="45.29606" y2="106.83591" stroke="green" stroke-width="0.04000"/>
    <line x1="40.64410" y1="109.85307" x2="45.16453" y2="106.80401" stroke="green" stroke-width="0.04000"/>
    <line x1="40.56091" y1="109.78855" x2="45.01786" y2="106.78230" stroke="green" stroke-width="0.04000"/>
    <line x1="40.47773" y1="109.72404" x2="44.86741" y2="106.76317" stroke="green" stroke-width="0.04000"/>
    <line x1="40.39455" y1="109.65953" x2="44.71695" y2="106.74403" stroke="green" stroke-width="0.04000"/>
    <line x1="40.31136" y1="109.59502" x2="44.56649" y2="106.72490" stroke="green" stroke-width="0.04000"/>
    <line x1="40.22818" y1="109.53050" x2="44.41858" y2="106.70405" stroke="green" stroke-width="0.04000"/>
    <line x1="40.14379" y1="109.46680" x2="44.27925" y2="106.67739" stroke="green" stroke-width="0.04000"/>
    <line x1="40.05650" y1="109.40506" x2="44.13994" y2="106.65074" stroke="green" stroke-width="0.04000"/>
    <line x1="39.96920" y1="109.34332" x2="44.00063" y2="106.62408" stroke="green" stroke-width="0.04000"/>
    <line x1="39.88190" y1="109.28159" x2="43.86131" y2="106.59743" stroke="green" stroke-width="0.04000"/>
    <line x1="39.80447" y1="109.21319" x2="43.72200" y2="106.57078" stroke="green" stroke-width="0.04000"/>
    <line x1="39.73006" y1="109.14276" x2="43.58269" y2="106.54413" stroke="green" stroke-width="0.04000"/>
    <line x1="39.65565" y1="109.07232" x2="43.46817" y2="106.50075" stroke="green" stroke-width="0.04000"/>
    <line x1="39.58125" y1="109.00188" x2="43.36585" y2="106.44914" stroke="green" stroke-width="0.04000"/>
    <line x1="39.50685" y1="108.93145" x2="43.26353" y2="106.39754" stroke="green" stroke-width="0.04000"/>
    <line x1="39.43244" y1="108.86102" x2="43.16120" y2="106.34593" stroke="green" stroke-width="0.04000"/>
    <line x1="39.35804" y1="108.79058" x2="43.05888" y2="106.29433" stroke="green" stroke-width="0.04000"/>
    <line x1="39.28363" y1="108.72015" x2="42.95656" y2="106.24272" stroke="green" stroke-width="0.04000"/>
    <line x1="39.20923" y1="108.64971" x2="42.85424" y2="106.19112" stroke="green" stroke-width="0.04000"/>
    <line x1="39.12866" y1="108.58344" x2="42.75192" y2="106.13951" stroke="green" stroke-width="0.04000"/>
    <line x1="39.04829" y1="108.51702" x2="42.65186" y2="106.08638" stroke="green" stroke-width="0.04000"/>
    <line x1="38.97692" y1="108.44453" x2="42.56491" y2="106.02441" stroke="green" stroke-width="0.04000"/>
    <line x1="38.90556" y1="108.37206" x2="42.47796" y2="105.96244" stroke="green" stroke-width="0.04000"/>
    <line x1="38.83419" y1="108.29956" x2="42.39100" y2="105.90047" stroke="green" stroke-width="0.04000"/>
    <line x1="38.76283" y1="108.22708" x2="42.30405" y2="105.83849" stroke="green" stroke-width="0.04000"/>
    <line x1="38.69146" y1="108.15459" x2="42.21709" y2="105.77653" stroke="green" stroke-width="0.04000"/>
    <line x1="38.62350" y1="108.07981" x2="42.13014" y2="105.71455" stroke="green" stroke-width="0.04000"/>
    <line x1="38.55572" y1="108.00491" x2="42.04319" y2="105.65259" stroke="green" stroke-width="0.04000"/>
    <line x1="38.48827" y1="107.92979" x2="41.95002" y2="105.59480" stroke="green" stroke-width="0.04000"/>
    <line x1="38.43112" y1="107.84771" x2="41.85855" y2="105.53588" stroke="green" stroke-width="0.04000"/>
    <line x1="38.37397" y1="107.76564" x2="41.76923" y2="105.47550" stroke="green" stroke-width="0.04000"/>
    <line x1="38.31681" y1="107.68356" x2="41.67991" y2="105.41512" stroke="green" stroke-width="0.04000"/>
    <line x1="38.25966" y1="107.60149" x2="41.59109" y2="105.35442" stroke="green" stroke-width="0.04000"/>
    <line x1="38.20251" y1="107.51942" x2="41.50237" y2="105.29364" stroke="green" stroke-width="0.04000"/>
    <line x1="38.14536" y1="107.43735" x2="41.41365" y2="105.23286" stroke="green" stroke-width="0.04000"/>
    <line x1="38.08821" y1="107.35528" x2="41.32493" y2="105.17208" stroke="green" stroke-width="0.04000"/>
    <line x1="38.03106" y1="107.27321" x2="41.23621" y2="105.11131" stroke="green" stroke-width="0.04000"/>
    <line x1="37.97646" y1="107.18941" x2="41.14749" y2="105.05052" stroke="green" stroke-width="0.04000"/>
    <line x1="37.94735" y1="107.08842" x2="41.05877" y2="104.98975" stroke="green" stroke-width="0.04000"/>
    <line x1="37.91824" y1="106.98744" x2="40.93161" y2="104.95490" stroke="green" stroke-width="0.04000"/>
    <line x1="37.88912" y1="106.88645" x2="40.80805" y2="104.91761" stroke="green" stroke-width="0.04000"/>
    <line x1="37.86001" y1="106.78547" x2="40.68744" y2="104.87835" stroke="green" stroke-width="0.04000"/>
    <line x1="37.83090" y1="106.68448" x2="40.56681" y2="104.83908" stroke="green" stroke-width="0.04000"/>
    <line x1="37.80178" y1="106.58350" x2="40.44619" y2="104.79982" stroke="green" stroke-width="0.04000"/>
    <line x1="37.77267" y1="106.48251" x2="40.32558" y2="104.76056" stroke="green" stroke-width="0.04000"/>
    <line x1="37.74356" y1="106.38152" x2="40.20496" y2="104.72129" stroke="green" stroke-width="0.04000"/>
    <line x1="37.71445" y1="106.28054" x2="40.08434" y2="104.68203" stroke="green" stroke-width="0.04000"/>
    <line x1="37.73024" y1="106.14927" x2="39.96195" y2="104.64396" stroke="green" stroke-width="0.04000"/>
    <line x1="37.78835" y1="105.98945" x2="39.72401" y2="104.68383" stroke="green" stroke-width="0.04000"/>
    <line x1="37.84644" y1="105.82964" x2="39.50277" y2="104.71244" stroke="green" stroke-width="0.04000"/>
    <line x1="37.90454" y1="105.66984" x2="39.28151" y2="104.74106" stroke="green" stroke-width="0.04000"/>
    <line x1="37.96265" y1="105.51002" x2="39.06025" y2="104.76968" stroke="green" stroke-width="0.04000"/>
    <line x1="38.69635" y1="104.89451" x2="38.83900" y2="104.79829" stroke="green" stroke-width="0.04000"/>
    <path d="M 33.7233 110.004 L 33.7466 110.02 L 33.7475 110.021 L 33.7507 110.027 L 34.3071 110.961 L 34.4502 111.155 L 34.6939 111.671 L 34.8924 112.128 L 34.9603 112.313 L 35.2507 113.097 L 35.4217 113.586 L 35.5925 114.068 L 35.6691 114.509 L 35.7713 114.99 L 35.8526 115.443 L 35.9507 115.95 L 35.9717 116.472 L 35.9907 117 L 35.9921 117.539 L 36.0211 117.889 L 35.9774 118.522 L 35.9158 119.272 L 35.8863 119.608 L 35.8235 120.195 L 35.7601 120.634 L 35.6819 121.397 L 35.6607 121.586 L 35.6586 121.64 L 35.5348 122.701 L 35.5144 123.122 L 35.4655 123.588 L 35.4393 123.817 L 35.3567 124.637 L 35.3266 124.885 L 35.3198 124.963 L 34.9201 125.89 L 34.8366 126.011 L 34.7193 125.95 L 33.9437 125.739 L 33.8749 125.562 L 33.6727 125.035 L 33.5498 124.691 L 33.4901 124.535 L 33.2478 123.732 L 33.1133 123.224 L 33.0146 122.882 L 32.9694 122.722 L 32.763 121.817 L 32.7205 121.661 L 32.5445 120.855 L 32.4806 120.56 L 32.3357 119.77 L 32.2472 119.296 L 32.2472 119.296 L 32.1614 118.843 L 31.9887 117.997 L 31.9662 117.877 L 31.8908 117.591 L 31.6574 117.044 L 31.4968 116.758 L 31.2289 116.219 L 30.8407 115.523 L 30.794 115.434 L 30.7351 115.251 L 30.6404 114.49 L 30.7015 114.214 L 30.7423 113.559 L 30.8381 112.912 L 30.8708 112.665 L 30.9062 112.451 L 31.1438 111.706 L 31.2853 111.138 L 31.5078 110.824 L 31.9603 110.001 L 32.0888 109.929 L 32.8463 109.43 L 33.7233 110.004" fill="none" stroke="blue" stroke-width="0.04000" fill-rule="evenodd" fill-opacity="1.000"/>
    <path d="M 40.9024 104.948 L 41.0452 104.98 L 41.6636 105.404 L 41.9296 105.584 L 41.9981 105.62 L 42.6647 106.096 L 43.4793 106.506 L 43.5075 106.523 L 43.5515 106.538 L 44.4504 106.71 L 45.1381 106.798 L 45.422 106.866 L 45.8177 106.95 L 46.2155 107.2 L 46.465 107.294 L 46.8423 107.7 L 47.1187 107.79 L 48.0486 108.051 L 48.0533 108.053 L 48.0621 108.055 L 48.7807 108.649 L 49.3454 109.148 L 49.471 109.33 L 49.6329 109.417 L 49.9849 110.1 L 50.2412 110.594 L 49.7021 111.085 L 49.585 111.185 L 49.5063 111.205 L 48.7226 111.507 L 48.374 111.544 L 47.7841 111.691 L 47.1242 111.737 L 46.8908 111.758 L 46.6005 111.781 L 46.0252 111.747 L 45.6273 111.717 L 45.1889 111.683 L 44.8416 111.643 L 44.3365 111.527 L 43.6239 111.336 L 43.4333 111.287 L 43.2137 111.213 L 42.5235 110.891 L 42.0166 110.645 L 41.7485 110.512 L 41.0595 110.107 L 40.8396 110.005 L 40.1692 109.485 L 39.8614 109.267 L 39.2018 108.643 L 39.0547 108.524 L 38.6881 108.151 L 38.4901 107.932 L 38.0034 107.234 L 38.0034 107.233 L 37.9809 107.201 L 37.9792 107.199 L 37.7044 106.246 L 37.7011 106.231 L 37.7124 106.198 L 38.006 105.391 L 38.7457 104.859 L 38.8381 104.798 L 39.7517 104.68 L 39.9655 104.643 L 40.9024 104.948" fill="none" stroke="blue" stroke-width="0.04000" fill-rule="evenodd" fill-opacity="1.000"/>
  </g>
</svg>
