<?xml version="1.0" encoding="UTF-8" standalone="yes"?>
<svg xmlns="http://www.w3.org/2000/svg"
     xmlns:xlink="http://www.w3.org/1999/xlink"
     width="2020.0000mm" height="1600.0000mm"
     viewBox="0 0 202.000000 160.000000">
  <!--
    Build plate : 150.00 x 150.00 mm
    Coordinate  : 1 SVG unit = 1 mm
    Display zoom: 10x  (width/height = viewBox x 10)
    Hatch stroke: 0.04 mm = ~28 mm on screen at this zoom
    Legend panel: right margin (42 mm wide)
  -->
  <defs>
    <marker id="endArrow" markerWidth="2" markerHeight="1.4"
            refX="0" refY="0.7" orient="auto"
            markerUnits="strokeWidth">
      <polyline fill="darkblue" points="0,0 2,0.7 0,1.4 0.2,0.7"/>
    </marker>
  </defs>
  <!-- Background -->
  <rect x="0" y="0" width="202.000000" height="160.000000" fill="#f0f0f0" stroke="none"/>
  <!-- Build plate boundary (150 x 150 mm) -->
  <rect x="5.000000" y="5.000000" width="150.000000" height="150.000000"
        fill="#ffffff" stroke="#aaaaaa" stroke-width="0.2" stroke-dasharray="1,0.5"/>
  <!-- Build plate centre circle (r = 75.00 mm) -->
  <circle cx="80.000000" cy="80.000000" r="75.000000"
          fill="none" stroke="#bbbbbb" stroke-width="0.15" stroke-dasharray="0.8,0.4"/>
  <!-- Centre cross-hair -->
  <line x1="5.000000" y1="80.000000" x2="155.000000" y2="80.000000" stroke="#cccccc" stroke-width="0.1"/>
  <line x1="80.000000" y1="5.000000" x2="80.000000" y2="155.000000" stroke="#cccccc" stroke-width="0.1"/>
  <circle cx="80.000000" cy="80.000000" r="0.3" fill="#cccccc" stroke="none"/>
  <!-- Corner labels -->
  <text x="5.400000" y="4.600000" font-family="sans-serif" font-size="2" fill="#888888">0,0</text>
  <text x="154.600006" y="4.600000" font-family="sans-serif" font-size="2" fill="#888888" text-anchor="end">150,0</text>
  <text x="5.400000" y="157.199997" font-family="sans-serif" font-size="2" fill="#888888">0,150</text>
  <!-- Layer geometry -->
  <g id="geometry">
    <line x1="37.75985" y1="87.39354" x2="37.54902" y2="87.13318" stroke="green" stroke-width="0.04000"/>
    <line x1="37.86882" y1="87.36919" x2="37.62012" y2="87.06208" stroke="green" stroke-width="0.04000"/>
    <line x1="37.95983" y1="87.32269" x2="37.69122" y2="86.99098" stroke="green" stroke-width="0.04000"/>
    <line x1="38.04265" y1="87.26606" x2="37.76232" y2="86.91988" stroke="green" stroke-width="0.04000"/>
    <line x1="38.12046" y1="87.20323" x2="37.83342" y2="86.84878" stroke="green" stroke-width="0.04000"/>
    <line x1="38.19516" y1="87.13658" x2="37.90452" y2="86.77768" stroke="green" stroke-width="0.04000"/>
    <line x1="38.26953" y1="87.06953" x2="37.97562" y2="86.70657" stroke="green" stroke-width="0.04000"/>
    <line x1="38.34390" y1="87.00246" x2="38.04672" y2="86.63548" stroke="green" stroke-width="0.04000"/>
    <line x1="38.41828" y1="86.93541" x2="38.11782" y2="86.56438" stroke="green" stroke-width="0.04000"/>
    <line x1="38.49269" y1="86.86840" x2="38.18892" y2="86.49328" stroke="green" stroke-width="0.04000"/>
    <line x1="38.57043" y1="86.80550" x2="38.26002" y2="86.42218" stroke="green" stroke-width="0.04000"/>
    <line x1="38.64533" y1="86.73909" x2="38.33112" y2="86.35107" stroke="green" stroke-width="0.04000"/>
    <line x1="38.71986" y1="86.67223" x2="38.46517" y2="86.35771" stroke="green" stroke-width="0.04000"/>
    <line x1="38.79442" y1="86.60541" x2="38.59842" y2="86.36336" stroke="green" stroke-width="0.04000"/>
    <line x1="38.86934" y1="86.53902" x2="38.66952" y2="86.29225" stroke="green" stroke-width="0.04000"/>
    <line x1="38.94426" y1="86.47263" x2="38.74062" y2="86.22115" stroke="green" stroke-width="0.04000"/>
    <line x1="39.01917" y1="86.40624" x2="38.81171" y2="86.15005" stroke="green" stroke-width="0.04000"/>
    <line x1="39.09409" y1="86.33985" x2="38.88282" y2="86.07896" stroke="green" stroke-width="0.04000"/>
    <line x1="39.16843" y1="86.27275" x2="38.95392" y2="86.00785" stroke="green" stroke-width="0.04000"/>
    <line x1="39.24272" y1="86.20560" x2="39.02502" y2="85.93675" stroke="green" stroke-width="0.04000"/>
    <line x1="39.31702" y1="86.13844" x2="39.09612" y2="85.86565" stroke="green" stroke-width="0.04000"/>
    <line x1="39.39131" y1="86.07128" x2="39.16722" y2="85.79456" stroke="green" stroke-width="0.04000"/>
    <line x1="39.46560" y1="86.00413" x2="39.23832" y2="85.72346" stroke="green" stroke-width="0.04000"/>
    <line x1="39.53989" y1="85.93697" x2="39.30942" y2="85.65236" stroke="green" stroke-width="0.04000"/>
    <line x1="39.61342" y1="85.86887" x2="39.38052" y2="85.58126" stroke="green" stroke-width="0.04000"/>
    <line x1="39.68599" y1="85.79958" x2="39.45162" y2="85.51016" stroke="green" stroke-width="0.04000"/>
    <line x1="39.75857" y1="85.73030" x2="39.52272" y2="85.43906" stroke="green" stroke-width="0.04000"/>
    <line x1="39.83114" y1="85.66102" x2="39.59382" y2="85.36795" stroke="green" stroke-width="0.04000"/>
    <line x1="39.90371" y1="85.59174" x2="39.66492" y2="85.29685" stroke="green" stroke-width="0.04000"/>
    <line x1="39.97622" y1="85.52238" x2="39.73602" y2="85.22575" stroke="green" stroke-width="0.04000"/>
    <line x1="40.04870" y1="85.45298" x2="39.80712" y2="85.15466" stroke="green" stroke-width="0.04000"/>
    <line x1="40.12118" y1="85.38358" x2="39.87822" y2="85.08355" stroke="green" stroke-width="0.04000"/>
    <line x1="40.19280" y1="85.31313" x2="39.94932" y2="85.01246" stroke="green" stroke-width="0.04000"/>
    <line x1="40.26497" y1="85.24335" x2="40.02042" y2="84.94135" stroke="green" stroke-width="0.04000"/>
    <line x1="40.33760" y1="85.17414" x2="40.09152" y2="84.87025" stroke="green" stroke-width="0.04000"/>
    <line x1="40.40984" y1="85.10444" x2="40.16262" y2="84.79916" stroke="green" stroke-width="0.04000"/>
    <line x1="40.48191" y1="85.03455" x2="40.23372" y2="84.72805" stroke="green" stroke-width="0.04000"/>
    <line x1="40.55405" y1="84.96472" x2="40.30482" y2="84.65696" stroke="green" stroke-width="0.04000"/>
    <line x1="40.62730" y1="84.89629" x2="40.37592" y2="84.58585" stroke="green" stroke-width="0.04000"/>
    <line x1="40.70003" y1="84.82719" x2="40.44702" y2="84.51475" stroke="green" stroke-width="0.04000"/>
    <line x1="40.77359" y1="84.75913" x2="40.51812" y2="84.44365" stroke="green" stroke-width="0.04000"/>
    <line x1="40.84701" y1="84.69089" x2="40.58922" y2="84.37255" stroke="green" stroke-width="0.04000"/>
    <line x1="40.92092" y1="84.62326" x2="40.66033" y2="84.30146" stroke="green" stroke-width="0.04000"/>
    <line x1="40.99513" y1="84.55600" x2="40.73143" y2="84.23035" stroke="green" stroke-width="0.04000"/>
    <line x1="41.06951" y1="84.48895" x2="40.80252" y2="84.15925" stroke="green" stroke-width="0.04000"/>
    <line x1="41.14447" y1="84.42262" x2="40.87362" y2="84.08815" stroke="green" stroke-width="0.04000"/>
    <line x1="41.21878" y1="84.35548" x2="40.94472" y2="84.01705" stroke="green" stroke-width="0.04000"/>
    <line x1="41.29252" y1="84.28764" x2="41.01582" y2="83.94595" stroke="green" stroke-width="0.04000"/>
    <line x1="41.36688" y1="84.22057" x2="41.01734" y2="83.78892" stroke="green" stroke-width="0.04000"/>
    <line x1="41.43934" y1="84.15115" x2="41.03292" y2="83.64927" stroke="green" stroke-width="0.04000"/>
    <line x1="41.50470" y1="84.07295" x2="41.10403" y2="83.57817" stroke="green" stroke-width="0.04000"/>
    <line x1="41.55999" y1="83.98234" x2="41.17513" y2="83.50707" stroke="green" stroke-width="0.04000"/>
    <line x1="41.60201" y1="83.87533" x2="41.24623" y2="83.43597" stroke="green" stroke-width="0.04000"/>
    <line x1="41.62737" y1="83.74774" x2="41.31733" y2="83.36487" stroke="green" stroke-width="0.04000"/>
    <line x1="41.60483" y1="83.56100" x2="41.38843" y2="83.29377" stroke="green" stroke-width="0.04000"/>
    <path d="M 41.4917 83.3635 L 41.5097 83.3925 L 41.5306 83.4139 L 41.5369 83.4213 L 41.5578 83.4543 L 41.5773 83.4914 L 41.5804 83.4977 L 41.5969 83.5367 L 41.5973 83.5376 L 41.6022 83.5525 L 41.6107 83.5798 L 41.6109 83.5807 L 41.6199 83.6215 L 41.6209 83.6269 L 41.6221 83.6565 L 41.6222 83.6591 L 41.6274 83.7402 L 41.6277 83.7443 L 41.6277 83.7448 L 41.6271 83.7505 L 41.6163 83.8219 L 41.6146 83.8352 L 41.6129 83.8413 L 41.6116 83.8462 L 41.6114 83.8468 L 41.5879 83.9182 L 41.5872 83.9208 L 41.5819 83.9394 L 41.5506 84.0008 L 41.537 84.0279 L 41.5018 84.077 L 41.4793 84.1092 L 41.44 84.1505 L 41.4156 84.1767 L 41.3059 84.2755 L 41.3048 84.2765 L 41.2803 84.2987 L 41.1742 84.3966 L 41.1125 84.4506 L 41.1071 84.4553 L 41.0974 84.4639 L 41.0902 84.4703 L 40.9893 84.5613 L 40.9572 84.59 L 40.9433 84.6025 L 40.8819 84.6594 L 40.8521 84.6862 L 40.8103 84.7245 L 40.7614 84.7706 L 40.737 84.7929 L 40.7132 84.815 L 40.6819 84.844 L 40.6286 84.8951 L 40.5944 84.9268 L 40.5498 84.9687 L 40.3539 85.1587 L 40.3151 85.1955 L 40.296 85.2138 L 40.2959 85.2138 L 40.2538 85.254 L 40.2194 85.2868 L 40.1352 85.3701 L 39.9306 85.5661 L 39.5939 85.8875 L 39.5647 85.9146 L 39.0993 86.3352 L 38.7867 86.6122 L 38.5926 86.7864 L 38.5307 86.8398 L 38.5019 86.8603 L 38.4894 86.8713 L 38.1481 87.179 L 38.1176 87.2057 L 38.1126 87.2108 L 38.1088 87.2139 L 38.0742 87.2422 L 38.0721 87.2437 L 38.0357 87.2714 L 38.0353 87.2716 L 38.0253 87.2786 L 38.002 87.2954 L 38.0001 87.2968 L 37.9703 87.3162 L 37.9659 87.3191 L 37.9387 87.335 L 37.9322 87.3389 L 37.9078 87.3514 L 37.8994 87.3558 L 37.8776 87.3653 L 37.8675 87.3698 L 37.8483 87.3766 L 37.837 87.3806 L 37.8202 87.385 L 37.8081 87.3883 L 37.7935 87.3906 L 37.7809 87.3927 L 37.7683 87.3932 L 37.7558 87.3937 L 37.7449 87.3926 L 37.7328 87.3914 L 37.7121 87.3856 L 37.7043 87.3817 L 37.6944 87.3767 L 37.6791 87.3685 L 37.6773 87.3656 L 37.5942 87.2857 L 37.4973 87.1849 L 37.5437 87.1385 L 37.5616 87.1206 L 37.6166 87.0656 L 37.988 86.6942 L 38.2221 86.4601 L 38.3357 86.3465 L 38.4922 86.3601 L 38.5949 86.3669 L 38.6937 86.2681 L 38.6937 86.2681 L 39.1976 85.7642 L 39.1976 85.7642 L 39.4419 85.5199 L 39.4783 85.4835 L 39.6117 85.35 L 39.7485 85.2132 L 39.7807 85.1811 L 39.9468 85.0149 L 40.0231 84.9387 L 40.0231 84.9387 L 40.1071 84.8547 L 40.1616 84.8002 L 40.268 84.6938 L 40.3006 84.6612 L 40.3189 84.6429 L 40.4553 84.5065 L 40.4553 84.5065 L 40.4783 84.4835 L 40.6126 84.3491 L 40.6571 84.3047 L 40.761 84.2008 L 40.7762 84.1856 L 40.7762 84.1856 L 40.9489 84.0129 L 40.9489 84.0129 L 41.0611 83.9007 L 41.0205 83.796 L 40.9785 83.7037 L 41.1047 83.5775 L 41.1371 83.5451 L 41.1371 83.5451 L 41.1414 83.5408 L 41.2246 83.4576 L 41.271 83.4112 L 41.3264 83.3558 L 41.3264 83.3558 L 41.372 83.3102 L 41.4173 83.2649 L 41.4917 83.3635" fill="none" stroke="blue" stroke-width="0.04000" fill-rule="evenodd" fill-opacity="1.000"/>
    <path d="M 41.4917 83.3635 L 41.5097 83.3925 L 41.5306 83.4139 L 41.5369 83.4213 L 41.5578 83.4543 L 41.5773 83.4914 L 41.5804 83.4977 L 41.5969 83.5367 L 41.5973 83.5376 L 41.6022 83.5525 L 41.6107 83.5798 L 41.6109 83.5807 L 41.6199 83.6215 L 41.6209 83.6269 L 41.6221 83.6565 L 41.6222 83.6591 L 41.6274 83.7402 L 41.6277 83.7443 L 41.6277 83.7448 L 41.6271 83.7505 L 41.6163 83.8219 L 41.6146 83.8352 L 41.6129 83.8413 L 41.6116 83.8462 L 41.6114 83.8468 L 41.5879 83.9182 L 41.5872 83.9208 L 41.5819 83.9394 L 41.5506 84.0008 L 41.537 84.0279 L 41.5018 84.077 L 41.4793 84.1092 L 41.44 84.1505 L 41.4156 84.1767 L 41.3059 84.2755 L 41.3048 84.2765 L 41.2803 84.2987 L 41.1742 84.3966 L 41.1125 84.4506 L 41.1071 84.4553 L 41.0974 84.4639 L 41.0902 84.4703 L 40.9893 84.5613 L 40.9572 84.59 L 40.9433 84.6025 L 40.8819 84.6594 L 40.8521 84.6862 L 40.8103 84.7245 L 40.7614 84.7706 L 40.737 84.7929 L 40.7132 84.815 L 40.6819 84.844 L 40.6286 84.8951 L 40.5944 84.9268 L 40.5498 84.9687 L 40.3539 85.1587 L 40.3151 85.1955 L 40.296 85.2138 L 40.2959 85.2138 L 40.2538 85.254 L 40.2194 85.2868 L 40.1352 85.3701 L 39.9306 85.5661 L 39.5939 85.8875 L 39.5647 85.9146 L 39.0993 86.3352 L 38.7867 86.6122 L 38.5926 86.7864 L 38.5307 86.8398 L 38.5019 86.8603 L 38.4894 86.8713 L 38.1481 87.179 L 38.1176 87.2057 L 38.1126 87.2108 L 38.1088 87.2139 L 38.0742 87.2422 L 38.0721 87.2437 L 38.0357 87.2714 L 38.0353 87.2716 L 38.0253 87.2786 L 38.002 87.2954 L 38.0001 87.2968 L 37.9703 87.3162 L 37.9659 87.3191 L 37.9387 87.335 L 37.9322 87.3389 L 37.9078 87.3514 L 37.8994 87.3558 L 37.8776 87.3653 L 37.8675 87.3698 L 37.8483 87.3766 L 37.837 87.3806 L 37.8202 87.385 L 37.8081 87.3883 L 37.7935 87.3906 L 37.7809 87.3927 L 37.7683 87.3932 L 37.7558 87.3937 L 37.7449 87.3926 L 37.7328 87.3914 L 37.7121 87.3856 L 37.7043 87.3817 L 37.6944 87.3767 L 37.6791 87.3685 L 37.6773 87.3656 L 37.5942 87.2857 L 37.4973 87.1849 L 37.5437 87.1385 L 37.5616 87.1206 L 37.6166 87.0656 L 37.988 86.6942 L 38.2221 86.4601 L 38.3357 86.3465 L 38.4922 86.3601 L 38.5949 86.3669 L 38.6937 86.2681 L 38.6937 86.2681 L 39.1976 85.7642 L 39.1976 85.7642 L 39.4419 85.5199 L 39.4783 85.4835 L 39.6117 85.35 L 39.7485 85.2132 L 39.7807 85.1811 L 39.9468 85.0149 L 40.0231 84.9387 L 40.0231 84.9387 L 40.1071 84.8547 L 40.1616 84.8002 L 40.268 84.6938 L 40.3006 84.6612 L 40.3189 84.6429 L 40.4553 84.5065 L 40.4553 84.5065 L 40.4783 84.4835 L 40.6126 84.3491 L 40.6571 84.3047 L 40.761 84.2008 L 40.7762 84.1856 L 40.7762 84.1856 L 40.9489 84.0129 L 40.9489 84.0129 L 41.0611 83.9007 L 41.0205 83.796 L 40.9785 83.7037 L 41.1047 83.5775 L 41.1371 83.5451 L 41.1371 83.5451 L 41.1414 83.5408 L 41.2246 83.4576 L 41.271 83.4112 L 41.3264 83.3558 L 41.3264 83.3558 L 41.372 83.3102 L 41.4173 83.2649 Z" fill="none" stroke="blue" stroke-width="0.05000" fill-rule="evenodd" fill-opacity="1.000"/>
  </g>
</svg>
