<?xml version="1.0" encoding="UTF-8" standalone="yes"?>
<svg xmlns="http://www.w3.org/2000/svg"
     xmlns:xlink="http://www.w3.org/1999/xlink"
     width="2020.0000mm" height="1600.0000mm"
     viewBox="0 0 202.000000 160.000000">
  <!--
    Build plate : 150.00 x 150.00 mm
    Coordinate  : 1 SVG unit = 1 mm
    Display zoom: 10x  (width/height = viewBox x 10)
    Hatch stroke: 0.04 mm = ~28 mm on screen at this zoom
    Legend panel: right margin (42 mm wide)
  -->
  <defs>
    <marker id="endArrow" markerWidth="2" markerHeight="1.4"
            refX="0" refY="0.7" orient="auto"
            markerUnits="strokeWidth">
      <polyline fill="darkblue" points="0,0 2,0.7 0,1.4 0.2,0.7"/>
    </marker>
  </defs>
  <!-- Background -->
  <rect x="0" y="0" width="202.000000" height="160.000000" fill="#f0f0f0" stroke="none"/>
  <!-- Build plate boundary (150 x 150 mm) -->
  <rect x="5.000000" y="5.000000" width="150.000000" height="150.000000"
        fill="#ffffff" stroke="#aaaaaa" stroke-width="0.2" stroke-dasharray="1,0.5"/>
  <!-- Build plate centre circle (r = 75.00 mm) -->
  <circle cx="80.000000" cy="80.000000" r="75.000000"
          fill="none" stroke="#bbbbbb" stroke-width="0.15" stroke-dasharray="0.8,0.4"/>
  <!-- Centre cross-hair -->
  <line x1="5.000000" y1="80.000000" x2="155.000000" y2="80.000000" stroke="#cccccc" stroke-width="0.1"/>
  <line x1="80.000000" y1="5.000000" x2="80.000000" y2="155.000000" stroke="#cccccc" stroke-width="0.1"/>
  <circle cx="80.000000" cy="80.000000" r="0.3" fill="#cccccc" stroke="none"/>
  <!-- Corner labels -->
  <text x="5.400000" y="4.600000" font-family="sans-serif" font-size="2" fill="#888888">0,0</text>
  <text x="154.600006" y="4.600000" font-family="sans-serif" font-size="2" fill="#888888" text-anchor="end">150,0</text>
  <text x="5.400000" y="157.199997" font-family="sans-serif" font-size="2" fill="#888888">0,150</text>
  <!-- Layer geometry -->
  <g id="geometry">
    <line x1="123.63280" y1="88.17423" x2="123.62379" y2="88.16582" stroke="green" stroke-width="0.04000"/>
    <line x1="123.77943" y1="88.17423" x2="123.62379" y2="88.02909" stroke="green" stroke-width="0.04000"/>
    <line x1="123.92606" y1="88.17423" x2="123.62379" y2="87.89236" stroke="green" stroke-width="0.04000"/>
    <line x1="124.07269" y1="88.17423" x2="123.62379" y2="87.75562" stroke="green" stroke-width="0.04000"/>
    <line x1="124.21931" y1="88.17423" x2="123.62379" y2="87.61889" stroke="green" stroke-width="0.04000"/>
    <line x1="124.36594" y1="88.17423" x2="123.62379" y2="87.48215" stroke="green" stroke-width="0.04000"/>
    <line x1="124.51257" y1="88.17423" x2="123.62379" y2="87.34543" stroke="green" stroke-width="0.04000"/>
    <line x1="124.65920" y1="88.17423" x2="123.62379" y2="87.20869" stroke="green" stroke-width="0.04000"/>
    <line x1="124.80582" y1="88.17423" x2="123.62379" y2="87.07196" stroke="green" stroke-width="0.04000"/>
    <line x1="124.95245" y1="88.17423" x2="123.62379" y2="86.93523" stroke="green" stroke-width="0.04000"/>
    <line x1="125.09908" y1="88.17423" x2="123.62379" y2="86.79850" stroke="green" stroke-width="0.04000"/>
    <line x1="125.24571" y1="88.17423" x2="123.62379" y2="86.66177" stroke="green" stroke-width="0.04000"/>
    <line x1="125.39234" y1="88.17423" x2="123.62379" y2="86.52502" stroke="green" stroke-width="0.04000"/>
    <line x1="125.53896" y1="88.17423" x2="123.62379" y2="86.38830" stroke="green" stroke-width="0.04000"/>
    <line x1="125.68559" y1="88.17423" x2="123.62379" y2="86.25156" stroke="green" stroke-width="0.04000"/>
    <line x1="125.83222" y1="88.17423" x2="123.62379" y2="86.11483" stroke="green" stroke-width="0.04000"/>
    <line x1="125.97885" y1="88.17423" x2="123.62379" y2="85.97810" stroke="green" stroke-width="0.04000"/>
    <line x1="126.12547" y1="88.17423" x2="123.62379" y2="85.84137" stroke="green" stroke-width="0.04000"/>
    <line x1="126.27211" y1="88.17423" x2="123.62379" y2="85.70464" stroke="green" stroke-width="0.04000"/>
    <line x1="126.41873" y1="88.17423" x2="123.62379" y2="85.56790" stroke="green" stroke-width="0.04000"/>
    <line x1="126.56536" y1="88.17423" x2="123.62379" y2="85.43117" stroke="green" stroke-width="0.04000"/>
    <line x1="126.71198" y1="88.17423" x2="123.62379" y2="85.29444" stroke="green" stroke-width="0.04000"/>
    <line x1="126.85862" y1="88.17423" x2="123.62379" y2="85.15771" stroke="green" stroke-width="0.04000"/>
    <line x1="127.00525" y1="88.17423" x2="123.62379" y2="85.02097" stroke="green" stroke-width="0.04000"/>
    <line x1="127.15187" y1="88.17423" x2="123.62379" y2="84.88424" stroke="green" stroke-width="0.04000"/>
    <line x1="127.29850" y1="88.17423" x2="123.62379" y2="84.74751" stroke="green" stroke-width="0.04000"/>
    <line x1="127.44513" y1="88.17423" x2="123.62379" y2="84.61077" stroke="green" stroke-width="0.04000"/>
    <line x1="127.59176" y1="88.17423" x2="123.62379" y2="84.47404" stroke="green" stroke-width="0.04000"/>
    <line x1="127.73838" y1="88.17423" x2="123.62379" y2="84.33731" stroke="green" stroke-width="0.04000"/>
    <line x1="127.88502" y1="88.17423" x2="123.62379" y2="84.20057" stroke="green" stroke-width="0.04000"/>
    <line x1="128.03165" y1="88.17423" x2="123.62379" y2="84.06384" stroke="green" stroke-width="0.04000"/>
    <line x1="128.17827" y1="88.17423" x2="123.62379" y2="83.92711" stroke="green" stroke-width="0.04000"/>
    <line x1="128.32489" y1="88.17423" x2="123.62379" y2="83.79038" stroke="green" stroke-width="0.04000"/>
    <line x1="128.47153" y1="88.17423" x2="123.62379" y2="83.65364" stroke="green" stroke-width="0.04000"/>
    <line x1="128.61816" y1="88.17423" x2="123.62379" y2="83.51691" stroke="green" stroke-width="0.04000"/>
    <line x1="128.76477" y1="88.17423" x2="123.62379" y2="83.38018" stroke="green" stroke-width="0.04000"/>
    <line x1="128.91141" y1="88.17423" x2="123.62379" y2="83.24345" stroke="green" stroke-width="0.04000"/>
    <line x1="129.05804" y1="88.17423" x2="123.62379" y2="83.10671" stroke="green" stroke-width="0.04000"/>
    <line x1="129.20467" y1="88.17423" x2="123.62379" y2="82.96998" stroke="green" stroke-width="0.04000"/>
    <line x1="129.35129" y1="88.17423" x2="123.62379" y2="82.83324" stroke="green" stroke-width="0.04000"/>
    <line x1="129.49792" y1="88.17423" x2="123.62379" y2="82.69651" stroke="green" stroke-width="0.04000"/>
    <line x1="129.64455" y1="88.17423" x2="123.62379" y2="82.55978" stroke="green" stroke-width="0.04000"/>
    <line x1="129.79117" y1="88.17423" x2="123.62379" y2="82.42305" stroke="green" stroke-width="0.04000"/>
    <line x1="129.93781" y1="88.17423" x2="123.62379" y2="82.28632" stroke="green" stroke-width="0.04000"/>
    <line x1="130.08444" y1="88.17423" x2="123.62379" y2="82.14958" stroke="green" stroke-width="0.04000"/>
    <line x1="130.23106" y1="88.17423" x2="123.62379" y2="82.01285" stroke="green" stroke-width="0.04000"/>
    <line x1="130.37769" y1="88.17423" x2="123.62379" y2="81.87612" stroke="green" stroke-width="0.04000"/>
    <line x1="130.52432" y1="88.17423" x2="123.62379" y2="81.73939" stroke="green" stroke-width="0.04000"/>
    <line x1="130.67094" y1="88.17423" x2="123.62379" y2="81.60265" stroke="green" stroke-width="0.04000"/>
    <line x1="130.81757" y1="88.17423" x2="123.62379" y2="81.46591" stroke="green" stroke-width="0.04000"/>
    <line x1="130.96420" y1="88.17423" x2="123.62379" y2="81.32919" stroke="green" stroke-width="0.04000"/>
    <line x1="131.11084" y1="88.17423" x2="123.62379" y2="81.19245" stroke="green" stroke-width="0.04000"/>
    <line x1="131.25745" y1="88.17423" x2="123.62379" y2="81.05572" stroke="green" stroke-width="0.04000"/>
    <line x1="131.40408" y1="88.17423" x2="123.62379" y2="80.91898" stroke="green" stroke-width="0.04000"/>
    <line x1="131.55070" y1="88.17423" x2="123.62379" y2="80.78226" stroke="green" stroke-width="0.04000"/>
    <line x1="131.69734" y1="88.17423" x2="123.62379" y2="80.64552" stroke="green" stroke-width="0.04000"/>
    <line x1="131.84396" y1="88.17423" x2="123.62379" y2="80.50880" stroke="green" stroke-width="0.04000"/>
    <line x1="131.99060" y1="88.17423" x2="123.62379" y2="80.37206" stroke="green" stroke-width="0.04000"/>
    <line x1="132.13722" y1="88.17423" x2="123.62379" y2="80.23532" stroke="green" stroke-width="0.04000"/>
    <line x1="132.28384" y1="88.17423" x2="123.62379" y2="80.09859" stroke="green" stroke-width="0.04000"/>
    <line x1="132.43048" y1="88.17423" x2="123.62379" y2="79.96185" stroke="green" stroke-width="0.04000"/>
    <line x1="132.57710" y1="88.17423" x2="123.62379" y2="79.82513" stroke="green" stroke-width="0.04000"/>
    <line x1="132.72374" y1="88.17423" x2="123.62379" y2="79.68839" stroke="green" stroke-width="0.04000"/>
    <line x1="132.87036" y1="88.17423" x2="123.62379" y2="79.55166" stroke="green" stroke-width="0.04000"/>
    <line x1="133.01700" y1="88.17423" x2="123.62379" y2="79.41492" stroke="green" stroke-width="0.04000"/>
    <line x1="133.16362" y1="88.17423" x2="123.62379" y2="79.27820" stroke="green" stroke-width="0.04000"/>
    <line x1="133.31024" y1="88.17423" x2="123.62379" y2="79.14146" stroke="green" stroke-width="0.04000"/>
    <line x1="133.45686" y1="88.17423" x2="123.62379" y2="79.00473" stroke="green" stroke-width="0.04000"/>
    <line x1="133.60350" y1="88.17423" x2="123.62379" y2="78.86800" stroke="green" stroke-width="0.04000"/>
    <line x1="133.75014" y1="88.17423" x2="123.62379" y2="78.73126" stroke="green" stroke-width="0.04000"/>
    <line x1="133.89676" y1="88.17423" x2="123.62379" y2="78.59453" stroke="green" stroke-width="0.04000"/>
    <line x1="134.04340" y1="88.17423" x2="123.62379" y2="78.45779" stroke="green" stroke-width="0.04000"/>
    <line x1="134.19002" y1="88.17423" x2="123.62379" y2="78.32106" stroke="green" stroke-width="0.04000"/>
    <line x1="134.33664" y1="88.17423" x2="123.62379" y2="78.18433" stroke="green" stroke-width="0.04000"/>
    <line x1="134.48326" y1="88.17423" x2="123.62379" y2="78.04760" stroke="green" stroke-width="0.04000"/>
    <line x1="134.62990" y1="88.17423" x2="123.62379" y2="77.91087" stroke="green" stroke-width="0.04000"/>
    <line x1="134.77652" y1="88.17423" x2="123.62379" y2="77.77413" stroke="green" stroke-width="0.04000"/>
    <line x1="134.92316" y1="88.17423" x2="123.62379" y2="77.63740" stroke="green" stroke-width="0.04000"/>
    <line x1="135.06978" y1="88.17423" x2="123.62379" y2="77.50067" stroke="green" stroke-width="0.04000"/>
    <line x1="135.21642" y1="88.17423" x2="123.62379" y2="77.36394" stroke="green" stroke-width="0.04000"/>
    <line x1="135.36304" y1="88.17423" x2="123.62379" y2="77.22720" stroke="green" stroke-width="0.04000"/>
    <line x1="135.50966" y1="88.17423" x2="123.62379" y2="77.09047" stroke="green" stroke-width="0.04000"/>
    <line x1="135.65630" y1="88.17423" x2="123.62379" y2="76.95374" stroke="green" stroke-width="0.04000"/>
    <line x1="135.80292" y1="88.17423" x2="123.62379" y2="76.81700" stroke="green" stroke-width="0.04000"/>
    <line x1="135.94955" y1="88.17423" x2="123.62379" y2="76.68027" stroke="green" stroke-width="0.04000"/>
    <line x1="136.09618" y1="88.17423" x2="123.62379" y2="76.54353" stroke="green" stroke-width="0.04000"/>
    <line x1="136.24281" y1="88.17423" x2="123.62379" y2="76.40680" stroke="green" stroke-width="0.04000"/>
    <line x1="136.32379" y1="88.11302" x2="123.62379" y2="76.27007" stroke="green" stroke-width="0.04000"/>
    <line x1="136.32379" y1="87.97629" x2="123.62379" y2="76.13334" stroke="green" stroke-width="0.04000"/>
    <line x1="136.32379" y1="87.83956" x2="123.62379" y2="75.99661" stroke="green" stroke-width="0.04000"/>
    <line x1="136.32379" y1="87.70282" x2="123.62379" y2="75.85988" stroke="green" stroke-width="0.04000"/>
    <line x1="136.32379" y1="87.56609" x2="123.62379" y2="75.72314" stroke="green" stroke-width="0.04000"/>
    <line x1="136.32379" y1="87.42936" x2="123.62379" y2="75.58641" stroke="green" stroke-width="0.04000"/>
    <line x1="136.32379" y1="87.29262" x2="123.62379" y2="75.44968" stroke="green" stroke-width="0.04000"/>
    <line x1="136.32379" y1="87.15589" x2="123.62379" y2="75.31294" stroke="green" stroke-width="0.04000"/>
    <line x1="136.32379" y1="87.01915" x2="123.62379" y2="75.17621" stroke="green" stroke-width="0.04000"/>
    <line x1="136.32379" y1="86.88242" x2="123.62379" y2="75.03947" stroke="green" stroke-width="0.04000"/>
    <line x1="136.32379" y1="86.74569" x2="123.62379" y2="74.90274" stroke="green" stroke-width="0.04000"/>
    <line x1="136.32379" y1="86.60896" x2="123.62379" y2="74.76601" stroke="green" stroke-width="0.04000"/>
    <line x1="136.32379" y1="86.47222" x2="123.62379" y2="74.62928" stroke="green" stroke-width="0.04000"/>
    <line x1="136.32379" y1="86.33549" x2="123.62379" y2="74.49255" stroke="green" stroke-width="0.04000"/>
    <line x1="136.32379" y1="86.19876" x2="123.62379" y2="74.35581" stroke="green" stroke-width="0.04000"/>
    <line x1="136.32379" y1="86.06202" x2="123.62379" y2="74.21908" stroke="green" stroke-width="0.04000"/>
    <line x1="136.32379" y1="85.92529" x2="123.62379" y2="74.08235" stroke="green" stroke-width="0.04000"/>
    <line x1="136.32379" y1="85.78856" x2="123.62379" y2="73.94562" stroke="green" stroke-width="0.04000"/>
    <line x1="136.32379" y1="85.65183" x2="123.62379" y2="73.80888" stroke="green" stroke-width="0.04000"/>
    <line x1="136.32379" y1="85.51509" x2="123.62379" y2="73.67215" stroke="green" stroke-width="0.04000"/>
    <line x1="136.32379" y1="85.37836" x2="123.62379" y2="73.53542" stroke="green" stroke-width="0.04000"/>
    <line x1="136.32379" y1="85.24163" x2="123.62379" y2="73.39868" stroke="green" stroke-width="0.04000"/>
    <line x1="136.32379" y1="85.10490" x2="123.62379" y2="73.26196" stroke="green" stroke-width="0.04000"/>
    <line x1="136.32379" y1="84.96816" x2="123.62379" y2="73.12522" stroke="green" stroke-width="0.04000"/>
    <line x1="136.32379" y1="84.83144" x2="123.62379" y2="72.98849" stroke="green" stroke-width="0.04000"/>
    <line x1="136.32379" y1="84.69470" x2="123.70477" y2="72.92728" stroke="green" stroke-width="0.04000"/>
    <line x1="136.32379" y1="84.55796" x2="123.85140" y2="72.92728" stroke="green" stroke-width="0.04000"/>
    <line x1="136.32379" y1="84.42123" x2="123.99802" y2="72.92728" stroke="green" stroke-width="0.04000"/>
    <line x1="136.32379" y1="84.28450" x2="124.14465" y2="72.92728" stroke="green" stroke-width="0.04000"/>
    <line x1="136.32379" y1="84.14777" x2="124.29129" y2="72.92728" stroke="green" stroke-width="0.04000"/>
    <line x1="136.32379" y1="84.01103" x2="124.43792" y2="72.92728" stroke="green" stroke-width="0.04000"/>
    <line x1="136.32379" y1="83.87431" x2="124.58454" y2="72.92728" stroke="green" stroke-width="0.04000"/>
    <line x1="136.32379" y1="83.73757" x2="124.73117" y2="72.92728" stroke="green" stroke-width="0.04000"/>
    <line x1="136.32379" y1="83.60084" x2="124.87779" y2="72.92728" stroke="green" stroke-width="0.04000"/>
    <line x1="136.32379" y1="83.46410" x2="125.02443" y2="72.92728" stroke="green" stroke-width="0.04000"/>
    <line x1="136.32379" y1="83.32738" x2="125.17105" y2="72.92728" stroke="green" stroke-width="0.04000"/>
    <line x1="136.32379" y1="83.19064" x2="125.31768" y2="72.92728" stroke="green" stroke-width="0.04000"/>
    <line x1="136.32379" y1="83.05390" x2="125.46431" y2="72.92728" stroke="green" stroke-width="0.04000"/>
    <line x1="136.32379" y1="82.91718" x2="125.61093" y2="72.92728" stroke="green" stroke-width="0.04000"/>
    <line x1="136.32379" y1="82.78044" x2="125.75756" y2="72.92728" stroke="green" stroke-width="0.04000"/>
    <line x1="136.32379" y1="82.64371" x2="125.90419" y2="72.92728" stroke="green" stroke-width="0.04000"/>
    <line x1="136.32379" y1="82.50697" x2="126.05083" y2="72.92728" stroke="green" stroke-width="0.04000"/>
    <line x1="136.32379" y1="82.37025" x2="126.19745" y2="72.92728" stroke="green" stroke-width="0.04000"/>
    <line x1="136.32379" y1="82.23351" x2="126.34408" y2="72.92728" stroke="green" stroke-width="0.04000"/>
    <line x1="136.32379" y1="82.09678" x2="126.49070" y2="72.92728" stroke="green" stroke-width="0.04000"/>
    <line x1="136.32379" y1="81.96004" x2="126.63734" y2="72.92728" stroke="green" stroke-width="0.04000"/>
    <line x1="136.32379" y1="81.82332" x2="126.78396" y2="72.92728" stroke="green" stroke-width="0.04000"/>
    <line x1="136.32379" y1="81.68658" x2="126.93059" y2="72.92728" stroke="green" stroke-width="0.04000"/>
    <line x1="136.32379" y1="81.54984" x2="127.07722" y2="72.92728" stroke="green" stroke-width="0.04000"/>
    <line x1="136.32379" y1="81.41312" x2="127.22384" y2="72.92728" stroke="green" stroke-width="0.04000"/>
    <line x1="136.32379" y1="81.27638" x2="127.37047" y2="72.92728" stroke="green" stroke-width="0.04000"/>
    <line x1="136.32379" y1="81.13965" x2="127.51710" y2="72.92728" stroke="green" stroke-width="0.04000"/>
    <line x1="136.32379" y1="81.00291" x2="127.66373" y2="72.92728" stroke="green" stroke-width="0.04000"/>
    <line x1="136.32379" y1="80.86618" x2="127.81036" y2="72.92728" stroke="green" stroke-width="0.04000"/>
    <line x1="136.32379" y1="80.72945" x2="127.95699" y2="72.92728" stroke="green" stroke-width="0.04000"/>
    <line x1="136.32379" y1="80.59272" x2="128.10361" y2="72.92728" stroke="green" stroke-width="0.04000"/>
    <line x1="136.32379" y1="80.45599" x2="128.25024" y2="72.92728" stroke="green" stroke-width="0.04000"/>
    <line x1="136.32379" y1="80.31925" x2="128.39687" y2="72.92728" stroke="green" stroke-width="0.04000"/>
    <line x1="136.32379" y1="80.18252" x2="128.54349" y2="72.92728" stroke="green" stroke-width="0.04000"/>
    <line x1="136.32379" y1="80.04579" x2="128.69012" y2="72.92728" stroke="green" stroke-width="0.04000"/>
    <line x1="136.32379" y1="79.90906" x2="128.83675" y2="72.92728" stroke="green" stroke-width="0.04000"/>
    <line x1="136.32379" y1="79.77232" x2="128.98338" y2="72.92728" stroke="green" stroke-width="0.04000"/>
    <line x1="136.32379" y1="79.63559" x2="129.13000" y2="72.92728" stroke="green" stroke-width="0.04000"/>
    <line x1="136.32379" y1="79.49885" x2="129.27664" y2="72.92728" stroke="green" stroke-width="0.04000"/>
    <line x1="136.32379" y1="79.36212" x2="129.42326" y2="72.92728" stroke="green" stroke-width="0.04000"/>
    <line x1="136.32379" y1="79.22539" x2="129.56989" y2="72.92728" stroke="green" stroke-width="0.04000"/>
    <line x1="136.32379" y1="79.08866" x2="129.71652" y2="72.92728" stroke="green" stroke-width="0.04000"/>
    <line x1="136.32379" y1="78.95192" x2="129.86316" y2="72.92728" stroke="green" stroke-width="0.04000"/>
    <line x1="136.32379" y1="78.81519" x2="130.00977" y2="72.92728" stroke="green" stroke-width="0.04000"/>
    <line x1="136.32379" y1="78.67846" x2="130.15640" y2="72.92728" stroke="green" stroke-width="0.04000"/>
    <line x1="136.32379" y1="78.54173" x2="130.30302" y2="72.92728" stroke="green" stroke-width="0.04000"/>
    <line x1="136.32379" y1="78.40499" x2="130.44965" y2="72.92728" stroke="green" stroke-width="0.04000"/>
    <line x1="136.32379" y1="78.26826" x2="130.59628" y2="72.92728" stroke="green" stroke-width="0.04000"/>
    <line x1="136.32379" y1="78.13153" x2="130.74292" y2="72.92728" stroke="green" stroke-width="0.04000"/>
    <line x1="136.32379" y1="77.99479" x2="130.88954" y2="72.92728" stroke="green" stroke-width="0.04000"/>
    <line x1="136.32379" y1="77.85806" x2="131.03616" y2="72.92728" stroke="green" stroke-width="0.04000"/>
    <line x1="136.32379" y1="77.72133" x2="131.18280" y2="72.92728" stroke="green" stroke-width="0.04000"/>
    <line x1="136.32379" y1="77.58460" x2="131.32942" y2="72.92728" stroke="green" stroke-width="0.04000"/>
    <line x1="136.32379" y1="77.44786" x2="131.47604" y2="72.92728" stroke="green" stroke-width="0.04000"/>
    <line x1="136.32379" y1="77.31113" x2="131.62268" y2="72.92728" stroke="green" stroke-width="0.04000"/>
    <line x1="136.32379" y1="77.17440" x2="131.76932" y2="72.92728" stroke="green" stroke-width="0.04000"/>
    <line x1="136.32379" y1="77.03767" x2="131.91592" y2="72.92728" stroke="green" stroke-width="0.04000"/>
    <line x1="136.32379" y1="76.90093" x2="132.06256" y2="72.92728" stroke="green" stroke-width="0.04000"/>
    <line x1="136.32379" y1="76.76420" x2="132.20920" y2="72.92728" stroke="green" stroke-width="0.04000"/>
    <line x1="136.32379" y1="76.62747" x2="132.35582" y2="72.92728" stroke="green" stroke-width="0.04000"/>
    <line x1="136.32379" y1="76.49074" x2="132.50244" y2="72.92728" stroke="green" stroke-width="0.04000"/>
    <line x1="136.32379" y1="76.35400" x2="132.64908" y2="72.92728" stroke="green" stroke-width="0.04000"/>
    <line x1="136.32379" y1="76.21727" x2="132.79572" y2="72.92728" stroke="green" stroke-width="0.04000"/>
    <line x1="136.32379" y1="76.08054" x2="132.94232" y2="72.92728" stroke="green" stroke-width="0.04000"/>
    <line x1="136.32379" y1="75.94380" x2="133.08896" y2="72.92728" stroke="green" stroke-width="0.04000"/>
    <line x1="136.32379" y1="75.80708" x2="133.23558" y2="72.92728" stroke="green" stroke-width="0.04000"/>
    <line x1="136.32379" y1="75.67034" x2="133.38222" y2="72.92728" stroke="green" stroke-width="0.04000"/>
    <line x1="136.32379" y1="75.53361" x2="133.52884" y2="72.92728" stroke="green" stroke-width="0.04000"/>
    <line x1="136.32379" y1="75.39687" x2="133.67548" y2="72.92728" stroke="green" stroke-width="0.04000"/>
    <line x1="136.32379" y1="75.26014" x2="133.82210" y2="72.92728" stroke="green" stroke-width="0.04000"/>
    <line x1="136.32379" y1="75.12341" x2="133.96872" y2="72.92728" stroke="green" stroke-width="0.04000"/>
    <line x1="136.32379" y1="74.98667" x2="134.11536" y2="72.92728" stroke="green" stroke-width="0.04000"/>
    <line x1="136.32379" y1="74.84995" x2="134.26198" y2="72.92728" stroke="green" stroke-width="0.04000"/>
    <line x1="136.32379" y1="74.71320" x2="134.40862" y2="72.92728" stroke="green" stroke-width="0.04000"/>
    <line x1="136.32379" y1="74.57648" x2="134.55524" y2="72.92728" stroke="green" stroke-width="0.04000"/>
    <line x1="136.32379" y1="74.43974" x2="134.70187" y2="72.92728" stroke="green" stroke-width="0.04000"/>
    <line x1="136.32379" y1="74.30302" x2="134.84850" y2="72.92728" stroke="green" stroke-width="0.04000"/>
    <line x1="136.32379" y1="74.16628" x2="134.99512" y2="72.92728" stroke="green" stroke-width="0.04000"/>
    <line x1="136.32379" y1="74.02955" x2="135.14175" y2="72.92728" stroke="green" stroke-width="0.04000"/>
    <line x1="136.32379" y1="73.89281" x2="135.28838" y2="72.92728" stroke="green" stroke-width="0.04000"/>
    <line x1="136.32379" y1="73.75608" x2="135.43501" y2="72.92728" stroke="green" stroke-width="0.04000"/>
    <line x1="136.32379" y1="73.61935" x2="135.58163" y2="72.92728" stroke="green" stroke-width="0.04000"/>
    <line x1="136.32379" y1="73.48261" x2="135.72826" y2="72.92728" stroke="green" stroke-width="0.04000"/>
    <line x1="136.32379" y1="73.34589" x2="135.87489" y2="72.92728" stroke="green" stroke-width="0.04000"/>
    <line x1="136.32379" y1="73.20914" x2="136.02151" y2="72.92728" stroke="green" stroke-width="0.04000"/>
    <line x1="136.32379" y1="73.07242" x2="136.16814" y2="72.92728" stroke="green" stroke-width="0.04000"/>
    <line x1="136.32379" y1="72.93568" x2="136.31477" y2="72.92728" stroke="green" stroke-width="0.04000"/>
    <path d="M 136.324 88.1742 L 123.624 88.1742 L 123.624 72.9273 L 136.324 72.9273 L 136.324 88.1742" fill="none" stroke="blue" stroke-width="0.04000" fill-rule="evenodd" fill-opacity="1.000"/>
  </g>
</svg>
