<?xml version="1.0" encoding="UTF-8" standalone="yes"?>
<svg xmlns="http://www.w3.org/2000/svg"
     xmlns:xlink="http://www.w3.org/1999/xlink"
     width="2020.0000mm" height="1600.0000mm"
     viewBox="0 0 202.000000 160.000000">
  <!--
    Build plate : 150.00 x 150.00 mm
    Coordinate  : 1 SVG unit = 1 mm
    Display zoom: 10x  (width/height = viewBox x 10)
    Hatch stroke: 0.04 mm = ~28 mm on screen at this zoom
    Legend panel: right margin (42 mm wide)
  -->
  <defs>
    <marker id="endArrow" markerWidth="2" markerHeight="1.4"
            refX="0" refY="0.7" orient="auto"
            markerUnits="strokeWidth">
      <polyline fill="darkblue" points="0,0 2,0.7 0,1.4 0.2,0.7"/>
    </marker>
  </defs>
  <!-- Background -->
  <rect x="0" y="0" width="202.000000" height="160.000000" fill="#f0f0f0" stroke="none"/>
  <!-- Build plate boundary (150 x 150 mm) -->
  <rect x="5.000000" y="5.000000" width="150.000000" height="150.000000"
        fill="#ffffff" stroke="#aaaaaa" stroke-width="0.2" stroke-dasharray="1,0.5"/>
  <!-- Build plate centre circle (r = 75.00 mm) -->
  <circle cx="80.000000" cy="80.000000" r="75.000000"
          fill="none" stroke="#bbbbbb" stroke-width="0.15" stroke-dasharray="0.8,0.4"/>
  <!-- Centre cross-hair -->
  <line x1="5.000000" y1="80.000000" x2="155.000000" y2="80.000000" stroke="#cccccc" stroke-width="0.1"/>
  <line x1="80.000000" y1="5.000000" x2="80.000000" y2="155.000000" stroke="#cccccc" stroke-width="0.1"/>
  <circle cx="80.000000" cy="80.000000" r="0.3" fill="#cccccc" stroke="none"/>
  <!-- Corner labels -->
  <text x="5.400000" y="4.600000" font-family="sans-serif" font-size="2" fill="#888888">0,0</text>
  <text x="154.600006" y="4.600000" font-family="sans-serif" font-size="2" fill="#888888" text-anchor="end">150,0</text>
  <text x="5.400000" y="157.199997" font-family="sans-serif" font-size="2" fill="#888888">0,150</text>
  <!-- Layer geometry -->
  <g id="geometry">
    <line x1="33.09107" y1="125.98715" x2="35.05103" y2="127.75190" stroke="green" stroke-width="0.04000"/>
    <line x1="33.74956" y1="126.71461" x2="34.83586" y2="127.69273" stroke="green" stroke-width="0.04000"/>
    <line x1="31.54439" y1="124.45995" x2="35.12505" y2="127.68399" stroke="green" stroke-width="0.04000"/>
    <line x1="31.20364" y1="124.01858" x2="35.19831" y2="127.61539" stroke="green" stroke-width="0.04000"/>
    <line x1="31.00628" y1="123.70631" x2="35.27158" y2="127.54680" stroke="green" stroke-width="0.04000"/>
    <line x1="31.00912" y1="123.57431" x2="35.34483" y2="127.47820" stroke="green" stroke-width="0.04000"/>
    <line x1="31.01197" y1="123.44230" x2="35.41810" y2="127.40960" stroke="green" stroke-width="0.04000"/>
    <line x1="31.01481" y1="123.31030" x2="35.50151" y2="127.35014" stroke="green" stroke-width="0.04000"/>
    <line x1="31.01765" y1="123.17829" x2="35.58725" y2="127.29278" stroke="green" stroke-width="0.04000"/>
    <line x1="31.00154" y1="123.02922" x2="35.67300" y2="127.23542" stroke="green" stroke-width="0.04000"/>
    <line x1="30.95213" y1="122.85017" x2="35.73165" y2="127.15367" stroke="green" stroke-width="0.04000"/>
    <line x1="30.93558" y1="122.70071" x2="35.69702" y2="126.98793" stroke="green" stroke-width="0.04000"/>
    <line x1="30.97692" y1="122.60337" x2="35.63231" y2="126.79510" stroke="green" stroke-width="0.04000"/>
    <line x1="31.01826" y1="122.50602" x2="35.56339" y2="126.59847" stroke="green" stroke-width="0.04000"/>
    <line x1="31.05960" y1="122.40868" x2="35.49447" y2="126.40186" stroke="green" stroke-width="0.04000"/>
    <line x1="31.13745" y1="122.34422" x2="35.41879" y2="126.19915" stroke="green" stroke-width="0.04000"/>
    <line x1="31.23727" y1="122.29954" x2="35.34051" y2="125.99411" stroke="green" stroke-width="0.04000"/>
    <line x1="31.33710" y1="122.25486" x2="35.26223" y2="125.78906" stroke="green" stroke-width="0.04000"/>
    <line x1="31.43693" y1="122.21018" x2="35.18085" y2="125.58122" stroke="green" stroke-width="0.04000"/>
    <line x1="31.53675" y1="122.16550" x2="35.04547" y2="125.32476" stroke="green" stroke-width="0.04000"/>
    <line x1="31.63630" y1="122.12057" x2="34.90852" y2="125.06689" stroke="green" stroke-width="0.04000"/>
    <line x1="31.73485" y1="122.07475" x2="34.77157" y2="124.80901" stroke="green" stroke-width="0.04000"/>
    <line x1="31.83341" y1="122.02892" x2="34.63455" y2="124.55108" stroke="green" stroke-width="0.04000"/>
    <line x1="31.93196" y1="121.98309" x2="34.45451" y2="124.25441" stroke="green" stroke-width="0.04000"/>
    <line x1="32.11125" y1="122.00996" x2="34.22779" y2="123.91570" stroke="green" stroke-width="0.04000"/>
    <line x1="32.36481" y1="122.10371" x2="34.00109" y2="123.57702" stroke="green" stroke-width="0.04000"/>
    <line x1="32.62301" y1="122.20162" x2="33.62691" y2="123.10554" stroke="green" stroke-width="0.04000"/>
    <line x1="32.88474" y1="122.30273" x2="33.00838" y2="122.41406" stroke="green" stroke-width="0.04000"/>
    <line x1="44.61125" y1="109.76765" x2="52.36810" y2="116.75195" stroke="green" stroke-width="0.04000"/>
    <line x1="44.61928" y1="109.64032" x2="52.47593" y2="116.71448" stroke="green" stroke-width="0.04000"/>
    <line x1="44.62732" y1="109.51299" x2="52.58376" y2="116.67701" stroke="green" stroke-width="0.04000"/>
    <line x1="44.63535" y1="109.38566" x2="52.69159" y2="116.63953" stroke="green" stroke-width="0.04000"/>
    <line x1="44.70033" y1="109.30961" x2="52.79942" y2="116.60206" stroke="green" stroke-width="0.04000"/>
    <line x1="44.78489" y1="109.25118" x2="52.90725" y2="116.56459" stroke="green" stroke-width="0.04000"/>
    <line x1="44.86944" y1="109.19275" x2="53.01508" y2="116.52711" stroke="green" stroke-width="0.04000"/>
    <line x1="44.95400" y1="109.13432" x2="53.12291" y2="116.48964" stroke="green" stroke-width="0.04000"/>
    <line x1="45.03898" y1="109.07627" x2="53.22557" y2="116.44751" stroke="green" stroke-width="0.04000"/>
    <line x1="44.60321" y1="109.89497" x2="51.85594" y2="116.42536" stroke="green" stroke-width="0.04000"/>
    <line x1="45.12674" y1="109.02073" x2="53.30965" y2="116.38866" stroke="green" stroke-width="0.04000"/>
    <line x1="45.21450" y1="108.96518" x2="53.28645" y2="116.23321" stroke="green" stroke-width="0.04000"/>
    <line x1="44.60012" y1="110.02676" x2="51.35300" y2="116.10708" stroke="green" stroke-width="0.04000"/>
    <line x1="45.30225" y1="108.90964" x2="53.20279" y2="116.02332" stroke="green" stroke-width="0.04000"/>
    <line x1="45.39001" y1="108.85410" x2="53.11912" y2="115.81342" stroke="green" stroke-width="0.04000"/>
    <line x1="44.59866" y1="110.16000" x2="50.81599" y2="115.75812" stroke="green" stroke-width="0.04000"/>
    <line x1="49.31013" y1="112.24922" x2="53.03546" y2="115.60352" stroke="green" stroke-width="0.04000"/>
    <line x1="44.61089" y1="110.30558" x2="50.33835" y2="115.46261" stroke="green" stroke-width="0.04000"/>
    <line x1="51.08568" y1="113.71336" x2="52.95179" y2="115.39362" stroke="green" stroke-width="0.04000"/>
    <line x1="44.75315" y1="110.56823" x2="49.87565" y2="115.18055" stroke="green" stroke-width="0.04000"/>
    <line x1="44.89541" y1="110.83089" x2="49.42234" y2="114.90696" stroke="green" stroke-width="0.04000"/>
    <line x1="52.17946" y1="114.56364" x2="52.44028" y2="114.79848" stroke="green" stroke-width="0.04000"/>
    <line x1="45.01403" y1="111.07226" x2="48.91842" y2="114.58779" stroke="green" stroke-width="0.04000"/>
    <line x1="45.12026" y1="111.30247" x2="48.44813" y2="114.29890" stroke="green" stroke-width="0.04000"/>
    <line x1="45.64780" y1="111.91204" x2="47.62360" y2="113.69106" stroke="green" stroke-width="0.04000"/>
    <line x1="46.14907" y1="112.49794" x2="46.32105" y2="112.65279" stroke="green" stroke-width="0.04000"/>
    <line x1="45.47777" y1="108.79855" x2="48.76443" y2="111.75787" stroke="green" stroke-width="0.04000"/>
    <line x1="45.58435" y1="108.75996" x2="47.95123" y2="110.89110" stroke="green" stroke-width="0.04000"/>
    <line x1="45.83093" y1="108.84741" x2="47.57482" y2="110.41761" stroke="green" stroke-width="0.04000"/>
    <line x1="46.32787" y1="109.16029" x2="47.02055" y2="109.78398" stroke="green" stroke-width="0.04000"/>
    <path d="M 32.4752 122.145 L 32.928 122.319 L 33.3294 122.792 L 33.8419 123.332 L 33.9897 123.56 L 34.5722 124.43 L 34.5936 124.474 L 34.6742 124.626 L 34.6742 124.626 L 35.0952 125.418 L 35.0952 125.418 L 35.1883 125.595 L 35.4754 126.347 L 35.6928 126.968 L 35.7394 127.191 L 35.4318 127.397 L 35.0522 127.752 L 34.7715 127.675 L 34.2312 127.262 L 33.7149 126.675 L 33.6763 126.636 L 33.614 126.576 L 33.0845 125.98 L 32.4377 125.341 L 32.3685 125.261 L 31.9889 124.922 L 31.5833 124.541 L 31.5359 124.442 L 31.005 123.765 L 31.0195 123.094 L 30.9206 122.736 L 31.0751 122.372 L 31.6144 122.131 L 31.9792 121.961 L 32.4752 122.145" fill="none" stroke="blue" stroke-width="0.04000" fill-rule="evenodd" fill-opacity="1.000"/>
    <path d="M 45.8692 108.861 L 46.1606 109.066 L 46.66 109.348 L 47.0806 109.857 L 47.4402 110.247 L 47.7223 110.604 L 48.1832 111.182 L 48.3633 111.355 L 48.5125 111.499 L 49.0956 112.099 L 49.3528 112.279 L 49.8805 112.732 L 50.0598 112.88 L 50.1659 112.986 L 50.7985 113.477 L 51.4657 114.026 L 51.5492 114.08 L 51.7784 114.258 L 52.3436 114.689 L 52.4587 114.819 L 52.9448 115.376 L 53.3092 116.29 L 53.3438 116.365 L 53.2072 116.46 L 52.3676 116.752 L 51.6598 116.3 L 51.4962 116.2 L 50.6576 115.655 L 50.5363 115.583 L 49.5747 114.997 L 49.5441 114.981 L 49.501 114.957 L 48.6157 114.396 L 48.1977 114.154 L 47.7192 113.755 L 47.171 113.387 L 46.8873 113.086 L 46.1827 112.547 L 46.1258 112.464 L 45.9584 112.277 L 45.4622 111.694 L 45.1529 111.373 L 44.9443 110.921 L 44.5974 110.281 L 44.6012 109.927 L 44.6374 109.353 L 45.0273 109.084 L 45.5551 108.75 L 45.8692 108.861" fill="none" stroke="blue" stroke-width="0.04000" fill-rule="evenodd" fill-opacity="1.000"/>
  </g>
</svg>
