<?xml version="1.0" encoding="UTF-8" standalone="yes"?>
<svg xmlns="http://www.w3.org/2000/svg"
     xmlns:xlink="http://www.w3.org/1999/xlink"
     width="2020.0000mm" height="1600.0000mm"
     viewBox="0 0 202.000000 160.000000">
  <!--
    Build plate : 150.00 x 150.00 mm
    Coordinate  : 1 SVG unit = 1 mm
    Display zoom: 10x  (width/height = viewBox x 10)
    Hatch stroke: 0.04 mm = ~28 mm on screen at this zoom
    Legend panel: right margin (42 mm wide)
  -->
  <defs>
    <marker id="endArrow" markerWidth="2" markerHeight="1.4"
            refX="0" refY="0.7" orient="auto"
            markerUnits="strokeWidth">
      <polyline fill="darkblue" points="0,0 2,0.7 0,1.4 0.2,0.7"/>
    </marker>
  </defs>
  <!-- Background -->
  <rect x="0" y="0" width="202.000000" height="160.000000" fill="#f0f0f0" stroke="none"/>
  <!-- Build plate boundary (150 x 150 mm) -->
  <rect x="5.000000" y="5.000000" width="150.000000" height="150.000000"
        fill="#ffffff" stroke="#aaaaaa" stroke-width="0.2" stroke-dasharray="1,0.5"/>
  <!-- Build plate centre circle (r = 75.00 mm) -->
  <circle cx="80.000000" cy="80.000000" r="75.000000"
          fill="none" stroke="#bbbbbb" stroke-width="0.15" stroke-dasharray="0.8,0.4"/>
  <!-- Centre cross-hair -->
  <line x1="5.000000" y1="80.000000" x2="155.000000" y2="80.000000" stroke="#cccccc" stroke-width="0.1"/>
  <line x1="80.000000" y1="5.000000" x2="80.000000" y2="155.000000" stroke="#cccccc" stroke-width="0.1"/>
  <circle cx="80.000000" cy="80.000000" r="0.3" fill="#cccccc" stroke="none"/>
  <!-- Corner labels -->
  <text x="5.400000" y="4.600000" font-family="sans-serif" font-size="2" fill="#888888">0,0</text>
  <text x="154.600006" y="4.600000" font-family="sans-serif" font-size="2" fill="#888888" text-anchor="end">150,0</text>
  <text x="5.400000" y="157.199997" font-family="sans-serif" font-size="2" fill="#888888">0,150</text>
  <!-- Layer geometry -->
  <g id="geometry">
    <line x1="38.31131" y1="86.60273" x2="38.58759" y2="86.62690" stroke="green" stroke-width="0.04000"/>
    <line x1="38.25892" y1="86.49776" x2="38.73311" y2="86.53925" stroke="green" stroke-width="0.04000"/>
    <line x1="38.35123" y1="86.40546" x2="38.85025" y2="86.44911" stroke="green" stroke-width="0.04000"/>
    <line x1="38.44353" y1="86.31315" x2="38.95645" y2="86.35802" stroke="green" stroke-width="0.04000"/>
    <line x1="38.53585" y1="86.22084" x2="39.06227" y2="86.26690" stroke="green" stroke-width="0.04000"/>
    <line x1="38.62815" y1="86.12854" x2="39.16693" y2="86.17567" stroke="green" stroke-width="0.04000"/>
    <line x1="38.72046" y1="86.03623" x2="39.27053" y2="86.08436" stroke="green" stroke-width="0.04000"/>
    <line x1="38.81277" y1="85.94392" x2="39.37349" y2="85.99298" stroke="green" stroke-width="0.04000"/>
    <line x1="38.90507" y1="85.85162" x2="39.47645" y2="85.90160" stroke="green" stroke-width="0.04000"/>
    <line x1="38.99738" y1="85.75932" x2="39.57908" y2="85.81020" stroke="green" stroke-width="0.04000"/>
    <line x1="39.08969" y1="85.66700" x2="39.68106" y2="85.71874" stroke="green" stroke-width="0.04000"/>
    <line x1="39.43907" y1="85.59719" x2="39.78143" y2="85.62714" stroke="green" stroke-width="0.04000"/>
    <line x1="39.53138" y1="85.50489" x2="39.87941" y2="85.53533" stroke="green" stroke-width="0.04000"/>
    <line x1="39.62368" y1="85.41257" x2="39.97677" y2="85.44347" stroke="green" stroke-width="0.04000"/>
    <line x1="39.71598" y1="85.32027" x2="40.07366" y2="85.35156" stroke="green" stroke-width="0.04000"/>
    <line x1="39.80829" y1="85.22797" x2="40.17052" y2="85.25966" stroke="green" stroke-width="0.04000"/>
    <line x1="39.90060" y1="85.13566" x2="40.26682" y2="85.16769" stroke="green" stroke-width="0.04000"/>
    <line x1="39.99291" y1="85.04335" x2="40.36292" y2="85.07572" stroke="green" stroke-width="0.04000"/>
    <line x1="40.08522" y1="84.95105" x2="40.45842" y2="84.98370" stroke="green" stroke-width="0.04000"/>
    <line x1="40.17752" y1="84.85873" x2="40.55369" y2="84.89165" stroke="green" stroke-width="0.04000"/>
    <line x1="40.26983" y1="84.76643" x2="40.64877" y2="84.79958" stroke="green" stroke-width="0.04000"/>
    <line x1="40.36213" y1="84.67413" x2="40.74451" y2="84.70758" stroke="green" stroke-width="0.04000"/>
    <line x1="40.45444" y1="84.58183" x2="40.84010" y2="84.61556" stroke="green" stroke-width="0.04000"/>
    <line x1="40.54675" y1="84.48952" x2="40.93665" y2="84.52363" stroke="green" stroke-width="0.04000"/>
    <line x1="40.63905" y1="84.39721" x2="41.03256" y2="84.43164" stroke="green" stroke-width="0.04000"/>
    <line x1="40.64514" y1="84.29736" x2="41.12803" y2="84.33961" stroke="green" stroke-width="0.04000"/>
    <line x1="40.62585" y1="84.19529" x2="41.21830" y2="84.24712" stroke="green" stroke-width="0.04000"/>
    <line x1="40.65888" y1="84.09780" x2="41.29121" y2="84.15312" stroke="green" stroke-width="0.04000"/>
    <line x1="40.75118" y1="84.00549" x2="41.34195" y2="84.05718" stroke="green" stroke-width="0.04000"/>
    <line x1="40.84350" y1="83.91319" x2="41.36764" y2="83.95904" stroke="green" stroke-width="0.04000"/>
    <line x1="40.93580" y1="83.82088" x2="41.36750" y2="83.85865" stroke="green" stroke-width="0.04000"/>
    <line x1="41.02811" y1="83.72858" x2="41.33279" y2="83.75523" stroke="green" stroke-width="0.04000"/>
    <line x1="41.12041" y1="83.63627" x2="41.23825" y2="83.64658" stroke="green" stroke-width="0.04000"/>
    <path d="M 41.2391 83.6474 L 41.2499 83.6581 L 41.2675 83.6788 L 41.2869 83.7026 L 41.3059 83.7183 L 41.315 83.732 L 41.3331 83.7556 L 41.3392 83.7681 L 41.3542 83.796 L 41.3546 83.8058 L 41.3591 83.8191 L 41.3608 83.8266 L 41.3636 83.838 L 41.3645 83.842 L 41.3662 83.8527 L 41.3698 83.8688 L 41.3699 83.8734 L 41.3706 83.8831 L 41.3708 83.8899 L 41.3707 83.8986 L 41.3711 83.9154 L 41.3713 83.924 L 41.3714 83.9284 L 41.3705 83.9355 L 41.3699 83.9417 L 41.3687 83.9504 L 41.3681 83.9558 L 41.3662 83.9691 L 41.3647 83.9793 L 41.3625 83.9941 L 41.3608 84.0003 L 41.3541 84.0252 L 41.3476 84.0439 L 41.3361 84.071 L 41.3276 84.0917 L 41.3198 84.1053 L 41.3055 84.128 L 41.299 84.1392 L 41.2938 84.1481 L 41.2857 84.1637 L 41.2832 84.1673 L 41.279 84.1748 L 41.2648 84.1945 L 41.2535 84.2076 L 41.2465 84.2155 L 41.2392 84.2234 L 41.2269 84.2373 L 41.2065 84.2606 L 41.1862 84.2837 L 41.1709 84.2983 L 41.0966 84.3699 L 41.0965 84.3699 L 41.0396 84.4248 L 41.0354 84.4289 L 41.0336 84.4306 L 40.9901 84.4727 L 40.8808 84.5768 L 40.8616 84.5949 L 40.7249 84.7264 L 40.6968 84.753 L 40.5562 84.8893 L 40.5345 84.9099 L 40.4095 85.0312 L 40.1953 85.2361 L 39.984 85.4366 L 39.8264 85.5854 L 39.7332 85.672 L 39.5454 85.8404 L 39.389 85.9792 L 39.389 85.9792 L 39.3422 86.0207 L 39.2113 86.1369 L 39.0778 86.2535 L 38.8586 86.4423 L 38.8372 86.4598 L 38.8181 86.4745 L 38.8085 86.4823 L 38.8083 86.4825 L 38.777 86.5072 L 38.7698 86.5123 L 38.7366 86.5368 L 38.7308 86.5408 L 38.6963 86.5645 L 38.6926 86.5667 L 38.6569 86.5893 L 38.6547 86.5905 L 38.6184 86.6114 L 38.6178 86.6116 L 38.603 86.6192 L 38.5833 86.629 L 38.5826 86.6294 L 38.5509 86.6431 L 38.549 86.6439 L 38.5198 86.6542 L 38.5171 86.6552 L 38.4903 86.6624 L 38.487 86.6633 L 38.4627 86.6674 L 38.4589 86.6681 L 38.437 86.6693 L 38.4331 86.6696 L 38.4136 86.668 L 38.4098 86.6677 L 38.3927 86.6634 L 38.3891 86.6625 L 38.3745 86.6554 L 38.3712 86.6539 L 38.3642 86.6515 L 38.3534 86.6436 L 38.3132 86.6054 L 38.2887 86.5716 L 38.2887 86.5716 L 38.2623 86.5353 L 38.2418 86.5149 L 38.756 86.0007 L 38.8803 85.8764 L 39.0935 85.6632 L 39.1042 85.6525 L 39.1042 85.6525 L 39.1499 85.6068 L 39.2377 85.6113 L 39.3155 85.6034 L 39.4245 85.6118 L 39.5115 85.5248 L 39.5115 85.5248 L 39.5503 85.486 L 39.6925 85.3438 L 39.6925 85.3438 L 39.8383 85.1979 L 39.8726 85.1637 L 39.8726 85.1637 L 40.0497 84.9865 L 40.131 84.9053 L 40.2205 84.8157 L 40.2787 84.7576 L 40.392 84.6442 L 40.4268 84.6094 L 40.4463 84.5899 L 40.5917 84.4445 L 40.5917 84.4445 L 40.6163 84.42 L 40.66 84.3762 L 40.6165 84.146 L 40.6165 84.146 L 40.6156 84.1411 L 40.682 84.0747 L 40.682 84.0747 L 40.7868 83.9699 L 40.7987 83.958 L 41.1714 83.5853 L 41.2391 83.6474" fill="none" stroke="blue" stroke-width="0.04000" fill-rule="evenodd" fill-opacity="1.000"/>
    <path d="M 41.2391 83.6474 L 41.2499 83.6581 L 41.2675 83.6788 L 41.2869 83.7026 L 41.3059 83.7183 L 41.315 83.732 L 41.3331 83.7556 L 41.3392 83.7681 L 41.3542 83.796 L 41.3546 83.8058 L 41.3591 83.8191 L 41.3608 83.8266 L 41.3636 83.838 L 41.3645 83.842 L 41.3662 83.8527 L 41.3698 83.8688 L 41.3699 83.8734 L 41.3706 83.8831 L 41.3708 83.8899 L 41.3707 83.8986 L 41.3711 83.9154 L 41.3713 83.924 L 41.3714 83.9284 L 41.3705 83.9355 L 41.3699 83.9417 L 41.3687 83.9504 L 41.3681 83.9558 L 41.3662 83.9691 L 41.3647 83.9793 L 41.3625 83.9941 L 41.3608 84.0003 L 41.3541 84.0252 L 41.3476 84.0439 L 41.3361 84.071 L 41.3276 84.0917 L 41.3198 84.1053 L 41.3055 84.128 L 41.299 84.1392 L 41.2938 84.1481 L 41.2857 84.1637 L 41.2832 84.1673 L 41.279 84.1748 L 41.2648 84.1945 L 41.2535 84.2076 L 41.2465 84.2155 L 41.2392 84.2234 L 41.2269 84.2373 L 41.2065 84.2606 L 41.1862 84.2837 L 41.1709 84.2983 L 41.0966 84.3699 L 41.0965 84.3699 L 41.0396 84.4248 L 41.0354 84.4289 L 41.0336 84.4306 L 40.9901 84.4727 L 40.8808 84.5768 L 40.8616 84.5949 L 40.7249 84.7264 L 40.6968 84.753 L 40.5562 84.8893 L 40.5345 84.9099 L 40.4095 85.0312 L 40.1953 85.2361 L 39.984 85.4366 L 39.8264 85.5854 L 39.7332 85.672 L 39.5454 85.8404 L 39.389 85.9792 L 39.389 85.9792 L 39.3422 86.0207 L 39.2113 86.1369 L 39.0778 86.2535 L 38.8586 86.4423 L 38.8372 86.4598 L 38.8181 86.4745 L 38.8085 86.4823 L 38.8083 86.4825 L 38.777 86.5072 L 38.7698 86.5123 L 38.7366 86.5368 L 38.7308 86.5408 L 38.6963 86.5645 L 38.6926 86.5667 L 38.6569 86.5893 L 38.6547 86.5905 L 38.6184 86.6114 L 38.6178 86.6116 L 38.603 86.6192 L 38.5833 86.629 L 38.5826 86.6294 L 38.5509 86.6431 L 38.549 86.6439 L 38.5198 86.6542 L 38.5171 86.6552 L 38.4903 86.6624 L 38.487 86.6633 L 38.4627 86.6674 L 38.4589 86.6681 L 38.437 86.6693 L 38.4331 86.6696 L 38.4136 86.668 L 38.4098 86.6677 L 38.3927 86.6634 L 38.3891 86.6625 L 38.3745 86.6554 L 38.3712 86.6539 L 38.3642 86.6515 L 38.3534 86.6436 L 38.3132 86.6054 L 38.2887 86.5716 L 38.2887 86.5716 L 38.2623 86.5353 L 38.2418 86.5149 L 38.756 86.0007 L 38.8803 85.8764 L 39.0935 85.6632 L 39.1042 85.6525 L 39.1042 85.6525 L 39.1499 85.6068 L 39.2377 85.6113 L 39.3155 85.6034 L 39.4245 85.6118 L 39.5115 85.5248 L 39.5115 85.5248 L 39.5503 85.486 L 39.6925 85.3438 L 39.6925 85.3438 L 39.8383 85.1979 L 39.8726 85.1637 L 39.8726 85.1637 L 40.0497 84.9865 L 40.131 84.9053 L 40.2205 84.8157 L 40.2787 84.7576 L 40.392 84.6442 L 40.4268 84.6094 L 40.4463 84.5899 L 40.5917 84.4445 L 40.5917 84.4445 L 40.6163 84.42 L 40.66 84.3762 L 40.6165 84.146 L 40.6165 84.146 L 40.6156 84.1411 L 40.682 84.0747 L 40.682 84.0747 L 40.7868 83.9699 L 40.7987 83.958 L 41.1714 83.5853 Z" fill="none" stroke="blue" stroke-width="0.05000" fill-rule="evenodd" fill-opacity="1.000"/>
  </g>
</svg>
