<?xml version="1.0" encoding="UTF-8" standalone="yes"?>
<!DOCTYPE svg PUBLIC "-//W3C//DTD SVG 1.0//EN" "http://www.w3.org/TR/2001/REC-SVG-20010904/DTD/svg10.dtd">
<svg height="2000" width="2000" xmlns="http://www.w3.org/2000/svg" xmlns:svg="http://www.w3.org/2000/svg" xmlns:xlink="http://www.w3.org/1999/xlink">
  <marker id="endArrow" markerHeight="8" markerUnits="strokeWidth" markerWidth="10" orient="auto" refX="1" refY="5" viewBox="0 0 1000 1000">
    <polyline fill="darkblue" points="0,0 10,5 0,10 1,5" />
  </marker>
  <circle cx="1000.000000" cy="1000.000000" r="1.000000" style="stroke:black; fill: red" />
  <circle cx="1000.000000" cy="1000.000000" r="800.000000" style="stroke:black; fill: none" />
  <line x1="1439.826538" y1="1406.728516" x2="1440.521851" y2="1410.000000" style="stroke: green; stroke-width: 0.200000"/>
  <line x1="1439.826538" y1="1401.918945" x2="1441.544189" y2="1410.000000" style="stroke: green; stroke-width: 0.200000"/>
  <line x1="1439.826538" y1="1397.109131" x2="1442.566528" y2="1410.000000" style="stroke: green; stroke-width: 0.200000"/>
  <line x1="1439.826538" y1="1392.299316" x2="1443.588867" y2="1410.000000" style="stroke: green; stroke-width: 0.200000"/>
  <line x1="1439.826538" y1="1387.489624" x2="1444.611206" y2="1410.000000" style="stroke: green; stroke-width: 0.200000"/>
  <line x1="1439.826538" y1="1382.679932" x2="1445.633545" y2="1410.000000" style="stroke: green; stroke-width: 0.200000"/>
  <line x1="1439.826538" y1="1377.870117" x2="1446.655884" y2="1410.000000" style="stroke: green; stroke-width: 0.200000"/>
  <line x1="1439.826538" y1="1373.060425" x2="1447.678223" y2="1410.000000" style="stroke: green; stroke-width: 0.200000"/>
  <line x1="1439.826538" y1="1368.250732" x2="1448.700562" y2="1410.000000" style="stroke: green; stroke-width: 0.200000"/>
  <line x1="1439.826538" y1="1363.440918" x2="1449.722900" y2="1410.000000" style="stroke: green; stroke-width: 0.200000"/>
  <line x1="1439.826538" y1="1358.631348" x2="1450.745239" y2="1410.000000" style="stroke: green; stroke-width: 0.200000"/>
  <line x1="1439.826538" y1="1353.821411" x2="1451.767578" y2="1410.000000" style="stroke: green; stroke-width: 0.200000"/>
  <line x1="1439.826538" y1="1349.011719" x2="1452.789917" y2="1410.000000" style="stroke: green; stroke-width: 0.200000"/>
  <line x1="1439.826538" y1="1344.201904" x2="1453.812256" y2="1410.000000" style="stroke: green; stroke-width: 0.200000"/>
  <line x1="1439.826538" y1="1339.392212" x2="1454.834595" y2="1410.000000" style="stroke: green; stroke-width: 0.200000"/>
  <line x1="1439.826538" y1="1334.582520" x2="1455.856934" y2="1410.000000" style="stroke: green; stroke-width: 0.200000"/>
  <line x1="1439.826538" y1="1329.772827" x2="1456.879272" y2="1410.000000" style="stroke: green; stroke-width: 0.200000"/>
  <line x1="1439.826538" y1="1324.963135" x2="1457.901611" y2="1410.000000" style="stroke: green; stroke-width: 0.200000"/>
  <line x1="1439.826538" y1="1320.153320" x2="1458.923950" y2="1410.000000" style="stroke: green; stroke-width: 0.200000"/>
  <line x1="1439.826538" y1="1315.343628" x2="1459.946289" y2="1410.000000" style="stroke: green; stroke-width: 0.200000"/>
  <line x1="1439.826538" y1="1310.533936" x2="1460.968628" y2="1410.000000" style="stroke: green; stroke-width: 0.200000"/>
  <line x1="1439.826538" y1="1305.723999" x2="1461.990967" y2="1410.000000" style="stroke: green; stroke-width: 0.200000"/>
  <line x1="1439.826538" y1="1300.914429" x2="1463.013306" y2="1410.000000" style="stroke: green; stroke-width: 0.200000"/>
  <line x1="1439.826538" y1="1296.104614" x2="1464.035645" y2="1410.000000" style="stroke: green; stroke-width: 0.200000"/>
  <line x1="1439.826538" y1="1291.295044" x2="1465.057983" y2="1410.000000" style="stroke: green; stroke-width: 0.200000"/>
  <line x1="1439.826538" y1="1286.485107" x2="1466.080322" y2="1410.000000" style="stroke: green; stroke-width: 0.200000"/>
  <line x1="1439.826538" y1="1281.675537" x2="1467.102661" y2="1410.000000" style="stroke: green; stroke-width: 0.200000"/>
  <line x1="1439.826538" y1="1276.865723" x2="1468.125000" y2="1410.000000" style="stroke: green; stroke-width: 0.200000"/>
  <line x1="1439.826538" y1="1272.056152" x2="1469.147339" y2="1410.000000" style="stroke: green; stroke-width: 0.200000"/>
  <line x1="1439.826538" y1="1267.246216" x2="1470.169678" y2="1410.000000" style="stroke: green; stroke-width: 0.200000"/>
  <line x1="1439.826538" y1="1262.436401" x2="1471.192017" y2="1410.000000" style="stroke: green; stroke-width: 0.200000"/>
  <line x1="1439.826538" y1="1257.626831" x2="1472.214355" y2="1410.000000" style="stroke: green; stroke-width: 0.200000"/>
  <line x1="1439.826538" y1="1252.817017" x2="1473.236694" y2="1410.000000" style="stroke: green; stroke-width: 0.200000"/>
  <line x1="1439.826538" y1="1248.007324" x2="1474.259033" y2="1410.000000" style="stroke: green; stroke-width: 0.200000"/>
  <line x1="1439.826538" y1="1243.197510" x2="1475.281372" y2="1410.000000" style="stroke: green; stroke-width: 0.200000"/>
  <line x1="1439.826538" y1="1238.387939" x2="1476.303711" y2="1410.000000" style="stroke: green; stroke-width: 0.200000"/>
  <line x1="1439.826538" y1="1233.578125" x2="1477.326050" y2="1410.000000" style="stroke: green; stroke-width: 0.200000"/>
  <line x1="1439.826538" y1="1228.768433" x2="1478.348389" y2="1410.000000" style="stroke: green; stroke-width: 0.200000"/>
  <line x1="1439.826538" y1="1223.958618" x2="1479.370728" y2="1410.000000" style="stroke: green; stroke-width: 0.200000"/>
  <line x1="1439.826538" y1="1219.148926" x2="1480.393066" y2="1410.000000" style="stroke: green; stroke-width: 0.200000"/>
  <line x1="1439.826538" y1="1214.339233" x2="1481.415405" y2="1410.000000" style="stroke: green; stroke-width: 0.200000"/>
  <line x1="1439.826538" y1="1209.529419" x2="1482.437866" y2="1410.000000" style="stroke: green; stroke-width: 0.200000"/>
  <line x1="1439.826538" y1="1204.719727" x2="1483.460083" y2="1410.000000" style="stroke: green; stroke-width: 0.200000"/>
  <line x1="1439.826538" y1="1199.909912" x2="1484.482544" y2="1410.000000" style="stroke: green; stroke-width: 0.200000"/>
  <line x1="1439.826538" y1="1195.100342" x2="1485.504761" y2="1410.000000" style="stroke: green; stroke-width: 0.200000"/>
  <line x1="1439.826538" y1="1190.290527" x2="1486.527222" y2="1410.000000" style="stroke: green; stroke-width: 0.200000"/>
  <line x1="1439.826538" y1="1185.480835" x2="1487.549438" y2="1410.000000" style="stroke: green; stroke-width: 0.200000"/>
  <line x1="1439.826538" y1="1180.671143" x2="1488.571899" y2="1410.000000" style="stroke: green; stroke-width: 0.200000"/>
  <line x1="1439.826538" y1="1175.861450" x2="1489.594116" y2="1410.000000" style="stroke: green; stroke-width: 0.200000"/>
  <line x1="1439.826538" y1="1171.051514" x2="1490.616577" y2="1410.000000" style="stroke: green; stroke-width: 0.200000"/>
  <line x1="1439.826538" y1="1166.241699" x2="1491.638916" y2="1410.000000" style="stroke: green; stroke-width: 0.200000"/>
  <line x1="1439.826538" y1="1161.432129" x2="1492.661255" y2="1410.000000" style="stroke: green; stroke-width: 0.200000"/>
  <line x1="1439.826538" y1="1156.622314" x2="1493.683594" y2="1410.000000" style="stroke: green; stroke-width: 0.200000"/>
  <line x1="1439.826538" y1="1151.812622" x2="1494.705933" y2="1410.000000" style="stroke: green; stroke-width: 0.200000"/>
  <line x1="1439.826538" y1="1147.002930" x2="1495.728271" y2="1410.000000" style="stroke: green; stroke-width: 0.200000"/>
  <line x1="1439.826538" y1="1142.193237" x2="1496.750488" y2="1410.000000" style="stroke: green; stroke-width: 0.200000"/>
  <line x1="1439.826538" y1="1137.383423" x2="1497.772949" y2="1410.000000" style="stroke: green; stroke-width: 0.200000"/>
  <line x1="1439.826538" y1="1132.573730" x2="1498.795166" y2="1410.000000" style="stroke: green; stroke-width: 0.200000"/>
  <line x1="1439.826538" y1="1127.763916" x2="1499.817627" y2="1410.000000" style="stroke: green; stroke-width: 0.200000"/>
  <line x1="1439.826538" y1="1122.954224" x2="1500.839966" y2="1410.000000" style="stroke: green; stroke-width: 0.200000"/>
  <line x1="1439.826538" y1="1118.144531" x2="1501.862305" y2="1410.000000" style="stroke: green; stroke-width: 0.200000"/>
  <line x1="1439.826538" y1="1113.334717" x2="1502.884644" y2="1410.000000" style="stroke: green; stroke-width: 0.200000"/>
  <line x1="1439.826538" y1="1108.525146" x2="1503.906982" y2="1410.000000" style="stroke: green; stroke-width: 0.200000"/>
  <line x1="1439.826538" y1="1103.715332" x2="1504.929321" y2="1410.000000" style="stroke: green; stroke-width: 0.200000"/>
  <line x1="1439.826538" y1="1098.905640" x2="1505.951660" y2="1410.000000" style="stroke: green; stroke-width: 0.200000"/>
  <line x1="1439.826538" y1="1094.095825" x2="1506.973999" y2="1410.000000" style="stroke: green; stroke-width: 0.200000"/>
  <line x1="1439.826538" y1="1089.286133" x2="1507.996338" y2="1410.000000" style="stroke: green; stroke-width: 0.200000"/>
  <line x1="1439.826538" y1="1084.476318" x2="1509.018677" y2="1410.000000" style="stroke: green; stroke-width: 0.200000"/>
  <line x1="1439.826538" y1="1079.666504" x2="1510.041016" y2="1410.000000" style="stroke: green; stroke-width: 0.200000"/>
  <line x1="1439.826538" y1="1074.856934" x2="1511.063354" y2="1410.000000" style="stroke: green; stroke-width: 0.200000"/>
  <line x1="1439.826538" y1="1070.047119" x2="1512.085693" y2="1410.000000" style="stroke: green; stroke-width: 0.200000"/>
  <line x1="1439.826538" y1="1065.237427" x2="1513.108032" y2="1410.000000" style="stroke: green; stroke-width: 0.200000"/>
  <line x1="1439.826538" y1="1060.427612" x2="1514.130371" y2="1410.000000" style="stroke: green; stroke-width: 0.200000"/>
  <line x1="1440.757935" y1="1060.000000" x2="1515.152710" y2="1410.000000" style="stroke: green; stroke-width: 0.200000"/>
  <line x1="1441.780273" y1="1060.000000" x2="1516.175049" y2="1410.000000" style="stroke: green; stroke-width: 0.200000"/>
  <line x1="1442.802612" y1="1060.000000" x2="1517.197388" y2="1410.000000" style="stroke: green; stroke-width: 0.200000"/>
  <line x1="1443.824951" y1="1060.000000" x2="1518.219727" y2="1410.000000" style="stroke: green; stroke-width: 0.200000"/>
  <line x1="1444.847290" y1="1060.000000" x2="1519.242065" y2="1410.000000" style="stroke: green; stroke-width: 0.200000"/>
  <line x1="1445.869629" y1="1060.000000" x2="1520.173462" y2="1409.572266" style="stroke: green; stroke-width: 0.200000"/>
  <line x1="1446.891968" y1="1060.000000" x2="1520.173462" y2="1404.762573" style="stroke: green; stroke-width: 0.200000"/>
  <line x1="1447.914307" y1="1060.000000" x2="1520.173462" y2="1399.952881" style="stroke: green; stroke-width: 0.200000"/>
  <line x1="1448.936646" y1="1060.000000" x2="1520.173462" y2="1395.143066" style="stroke: green; stroke-width: 0.200000"/>
  <line x1="1449.958984" y1="1060.000000" x2="1520.173462" y2="1390.333374" style="stroke: green; stroke-width: 0.200000"/>
  <line x1="1450.981323" y1="1060.000000" x2="1520.173462" y2="1385.523682" style="stroke: green; stroke-width: 0.200000"/>
  <line x1="1452.003662" y1="1060.000000" x2="1520.173462" y2="1380.713989" style="stroke: green; stroke-width: 0.200000"/>
  <line x1="1453.026001" y1="1060.000000" x2="1520.173462" y2="1375.904297" style="stroke: green; stroke-width: 0.200000"/>
  <line x1="1454.048340" y1="1060.000000" x2="1520.173462" y2="1371.094482" style="stroke: green; stroke-width: 0.200000"/>
  <line x1="1455.070679" y1="1060.000000" x2="1520.173462" y2="1366.284790" style="stroke: green; stroke-width: 0.200000"/>
  <line x1="1456.093140" y1="1060.000000" x2="1520.173462" y2="1361.474854" style="stroke: green; stroke-width: 0.200000"/>
  <line x1="1457.115356" y1="1060.000000" x2="1520.173462" y2="1356.665283" style="stroke: green; stroke-width: 0.200000"/>
  <line x1="1458.137817" y1="1060.000000" x2="1520.173462" y2="1351.855469" style="stroke: green; stroke-width: 0.200000"/>
  <line x1="1459.160034" y1="1060.000000" x2="1520.173462" y2="1347.045898" style="stroke: green; stroke-width: 0.200000"/>
  <line x1="1460.182495" y1="1060.000000" x2="1520.173462" y2="1342.236084" style="stroke: green; stroke-width: 0.200000"/>
  <line x1="1461.204712" y1="1060.000000" x2="1520.173462" y2="1337.426514" style="stroke: green; stroke-width: 0.200000"/>
  <line x1="1462.227173" y1="1060.000000" x2="1520.173462" y2="1332.616577" style="stroke: green; stroke-width: 0.200000"/>
  <line x1="1463.249390" y1="1060.000000" x2="1520.173462" y2="1327.807007" style="stroke: green; stroke-width: 0.200000"/>
  <line x1="1464.271851" y1="1060.000000" x2="1520.173462" y2="1322.997070" style="stroke: green; stroke-width: 0.200000"/>
  <line x1="1465.294189" y1="1060.000000" x2="1520.173462" y2="1318.187256" style="stroke: green; stroke-width: 0.200000"/>
  <line x1="1466.316528" y1="1060.000000" x2="1520.173462" y2="1313.377686" style="stroke: green; stroke-width: 0.200000"/>
  <line x1="1467.338867" y1="1060.000000" x2="1520.173462" y2="1308.567871" style="stroke: green; stroke-width: 0.200000"/>
  <line x1="1468.361206" y1="1060.000000" x2="1520.173462" y2="1303.758301" style="stroke: green; stroke-width: 0.200000"/>
  <line x1="1469.383545" y1="1060.000000" x2="1520.173462" y2="1298.948364" style="stroke: green; stroke-width: 0.200000"/>
  <line x1="1470.405884" y1="1060.000000" x2="1520.173462" y2="1294.138794" style="stroke: green; stroke-width: 0.200000"/>
  <line x1="1471.428223" y1="1060.000000" x2="1520.173462" y2="1289.328857" style="stroke: green; stroke-width: 0.200000"/>
  <line x1="1472.450562" y1="1060.000000" x2="1520.173462" y2="1284.519287" style="stroke: green; stroke-width: 0.200000"/>
  <line x1="1473.472900" y1="1060.000000" x2="1520.173462" y2="1279.709595" style="stroke: green; stroke-width: 0.200000"/>
  <line x1="1474.495239" y1="1060.000000" x2="1520.173462" y2="1274.899780" style="stroke: green; stroke-width: 0.200000"/>
  <line x1="1475.517578" y1="1060.000000" x2="1520.173462" y2="1270.090088" style="stroke: green; stroke-width: 0.200000"/>
  <line x1="1476.539917" y1="1060.000000" x2="1520.173462" y2="1265.280273" style="stroke: green; stroke-width: 0.200000"/>
  <line x1="1477.562256" y1="1060.000000" x2="1520.173462" y2="1260.470581" style="stroke: green; stroke-width: 0.200000"/>
  <line x1="1478.584595" y1="1060.000000" x2="1520.173462" y2="1255.660767" style="stroke: green; stroke-width: 0.200000"/>
  <line x1="1479.606934" y1="1060.000000" x2="1520.173462" y2="1250.851074" style="stroke: green; stroke-width: 0.200000"/>
  <line x1="1480.629272" y1="1060.000000" x2="1520.173462" y2="1246.041382" style="stroke: green; stroke-width: 0.200000"/>
  <line x1="1481.651611" y1="1060.000000" x2="1520.173462" y2="1241.231689" style="stroke: green; stroke-width: 0.200000"/>
  <line x1="1482.673950" y1="1060.000000" x2="1520.173462" y2="1236.421875" style="stroke: green; stroke-width: 0.200000"/>
  <line x1="1483.696289" y1="1060.000000" x2="1520.173462" y2="1231.612183" style="stroke: green; stroke-width: 0.200000"/>
  <line x1="1484.718628" y1="1060.000000" x2="1520.173462" y2="1226.802490" style="stroke: green; stroke-width: 0.200000"/>
  <line x1="1485.740967" y1="1060.000000" x2="1520.173462" y2="1221.992676" style="stroke: green; stroke-width: 0.200000"/>
  <line x1="1486.763306" y1="1060.000000" x2="1520.173462" y2="1217.182983" style="stroke: green; stroke-width: 0.200000"/>
  <line x1="1487.785645" y1="1060.000000" x2="1520.173462" y2="1212.373169" style="stroke: green; stroke-width: 0.200000"/>
  <line x1="1488.807983" y1="1060.000000" x2="1520.173462" y2="1207.563599" style="stroke: green; stroke-width: 0.200000"/>
  <line x1="1489.830322" y1="1060.000000" x2="1520.173462" y2="1202.753784" style="stroke: green; stroke-width: 0.200000"/>
  <line x1="1490.852661" y1="1060.000000" x2="1520.173462" y2="1197.944092" style="stroke: green; stroke-width: 0.200000"/>
  <line x1="1491.875000" y1="1060.000000" x2="1520.173462" y2="1193.134277" style="stroke: green; stroke-width: 0.200000"/>
  <line x1="1492.897339" y1="1060.000000" x2="1520.173462" y2="1188.324707" style="stroke: green; stroke-width: 0.200000"/>
  <line x1="1493.919678" y1="1060.000000" x2="1520.173462" y2="1183.514893" style="stroke: green; stroke-width: 0.200000"/>
  <line x1="1494.942017" y1="1060.000000" x2="1520.173462" y2="1178.704956" style="stroke: green; stroke-width: 0.200000"/>
  <line x1="1495.964355" y1="1060.000000" x2="1520.173462" y2="1173.895386" style="stroke: green; stroke-width: 0.200000"/>
  <line x1="1496.986694" y1="1060.000000" x2="1520.173462" y2="1169.085571" style="stroke: green; stroke-width: 0.200000"/>
  <line x1="1498.009033" y1="1060.000000" x2="1520.173462" y2="1164.275879" style="stroke: green; stroke-width: 0.200000"/>
  <line x1="1499.031372" y1="1060.000000" x2="1520.173462" y2="1159.466064" style="stroke: green; stroke-width: 0.200000"/>
  <line x1="1500.053711" y1="1060.000000" x2="1520.173462" y2="1154.656494" style="stroke: green; stroke-width: 0.200000"/>
  <line x1="1501.076050" y1="1060.000000" x2="1520.173462" y2="1149.846680" style="stroke: green; stroke-width: 0.200000"/>
  <line x1="1502.098389" y1="1060.000000" x2="1520.173462" y2="1145.036987" style="stroke: green; stroke-width: 0.200000"/>
  <line x1="1503.120728" y1="1060.000000" x2="1520.173462" y2="1140.227173" style="stroke: green; stroke-width: 0.200000"/>
  <line x1="1504.143066" y1="1060.000000" x2="1520.173462" y2="1135.417358" style="stroke: green; stroke-width: 0.200000"/>
  <line x1="1505.165405" y1="1060.000000" x2="1520.173462" y2="1130.607788" style="stroke: green; stroke-width: 0.200000"/>
  <line x1="1506.187744" y1="1060.000000" x2="1520.173462" y2="1125.797974" style="stroke: green; stroke-width: 0.200000"/>
  <line x1="1507.210083" y1="1060.000000" x2="1520.173462" y2="1120.988281" style="stroke: green; stroke-width: 0.200000"/>
  <line x1="1508.232422" y1="1060.000000" x2="1520.173462" y2="1116.178467" style="stroke: green; stroke-width: 0.200000"/>
  <line x1="1509.254761" y1="1060.000000" x2="1520.173462" y2="1111.368896" style="stroke: green; stroke-width: 0.200000"/>
  <line x1="1510.277100" y1="1060.000000" x2="1520.173462" y2="1106.559082" style="stroke: green; stroke-width: 0.200000"/>
  <line x1="1511.299438" y1="1060.000000" x2="1520.173462" y2="1101.749390" style="stroke: green; stroke-width: 0.200000"/>
  <line x1="1512.321777" y1="1060.000000" x2="1520.173462" y2="1096.939575" style="stroke: green; stroke-width: 0.200000"/>
  <line x1="1513.344116" y1="1060.000000" x2="1520.173462" y2="1092.129883" style="stroke: green; stroke-width: 0.200000"/>
  <line x1="1514.366455" y1="1060.000000" x2="1520.173462" y2="1087.320190" style="stroke: green; stroke-width: 0.200000"/>
  <line x1="1515.388794" y1="1060.000000" x2="1520.173462" y2="1082.510376" style="stroke: green; stroke-width: 0.200000"/>
  <line x1="1516.411133" y1="1060.000000" x2="1520.173462" y2="1077.700684" style="stroke: green; stroke-width: 0.200000"/>
  <line x1="1517.433472" y1="1060.000000" x2="1520.173462" y2="1072.890869" style="stroke: green; stroke-width: 0.200000"/>
  <line x1="1518.455811" y1="1060.000000" x2="1520.173462" y2="1068.081177" style="stroke: green; stroke-width: 0.200000"/>
  <line x1="1519.478149" y1="1060.000000" x2="1520.173462" y2="1063.271484" style="stroke: green; stroke-width: 0.200000"/>
  <path d="M 1520.17  1410  1439.83  1410  1439.83  1060  1520.17  1060  1520.17  1410  " style="fill: none; stroke: black; stroke-width: 0.200000; fill-type: evenodd"  fill-opacity="1.000000" />
</svg>
