<?xml version="1.0" encoding="UTF-8" standalone="yes"?>
<svg xmlns="http://www.w3.org/2000/svg"
     xmlns:xlink="http://www.w3.org/1999/xlink"
     width="2020.0000mm" height="1600.0000mm"
     viewBox="0 0 202.000000 160.000000">
  <!--
    Build plate : 150.00 x 150.00 mm
    Coordinate  : 1 SVG unit = 1 mm
    Display zoom: 10x  (width/height = viewBox x 10)
    Hatch stroke: 0.04 mm = ~28 mm on screen at this zoom
    Legend panel: right margin (42 mm wide)
  -->
  <defs>
    <marker id="endArrow" markerWidth="2" markerHeight="1.4"
            refX="0" refY="0.7" orient="auto"
            markerUnits="strokeWidth">
      <polyline fill="darkblue" points="0,0 2,0.7 0,1.4 0.2,0.7"/>
    </marker>
  </defs>
  <!-- Background -->
  <rect x="0" y="0" width="202.000000" height="160.000000" fill="#f0f0f0" stroke="none"/>
  <!-- Build plate boundary (150 x 150 mm) -->
  <rect x="5.000000" y="5.000000" width="150.000000" height="150.000000"
        fill="#ffffff" stroke="#aaaaaa" stroke-width="0.2" stroke-dasharray="1,0.5"/>
  <!-- Build plate centre circle (r = 75.00 mm) -->
  <circle cx="80.000000" cy="80.000000" r="75.000000"
          fill="none" stroke="#bbbbbb" stroke-width="0.15" stroke-dasharray="0.8,0.4"/>
  <!-- Centre cross-hair -->
  <line x1="5.000000" y1="80.000000" x2="155.000000" y2="80.000000" stroke="#cccccc" stroke-width="0.1"/>
  <line x1="80.000000" y1="5.000000" x2="80.000000" y2="155.000000" stroke="#cccccc" stroke-width="0.1"/>
  <circle cx="80.000000" cy="80.000000" r="0.3" fill="#cccccc" stroke="none"/>
  <!-- Corner labels -->
  <text x="5.400000" y="4.600000" font-family="sans-serif" font-size="2" fill="#888888">0,0</text>
  <text x="154.600006" y="4.600000" font-family="sans-serif" font-size="2" fill="#888888" text-anchor="end">150,0</text>
  <text x="5.400000" y="157.199997" font-family="sans-serif" font-size="2" fill="#888888">0,150</text>
  <!-- Layer geometry -->
  <g id="geometry">
    <line x1="35.01073" y1="127.30339" x2="35.70107" y2="120.73527" stroke="green" stroke-width="0.04000"/>
    <line x1="34.91065" y1="127.29890" x2="35.64511" y2="120.31100" stroke="green" stroke-width="0.04000"/>
    <line x1="35.11315" y1="127.28564" x2="35.73051" y2="121.41182" stroke="green" stroke-width="0.04000"/>
    <line x1="35.21738" y1="127.25068" x2="35.75021" y2="122.18108" stroke="green" stroke-width="0.04000"/>
    <line x1="35.32160" y1="127.21572" x2="35.77423" y2="122.90917" stroke="green" stroke-width="0.04000"/>
    <line x1="34.82007" y1="127.20407" x2="35.58775" y2="119.90014" stroke="green" stroke-width="0.04000"/>
    <line x1="35.42583" y1="127.18076" x2="35.79424" y2="123.67548" stroke="green" stroke-width="0.04000"/>
    <line x1="35.53005" y1="127.14580" x2="35.82655" y2="124.32484" stroke="green" stroke-width="0.04000"/>
    <line x1="35.63428" y1="127.11084" x2="35.85566" y2="125.00452" stroke="green" stroke-width="0.04000"/>
    <line x1="34.72946" y1="127.10947" x2="35.53103" y2="119.48308" stroke="green" stroke-width="0.04000"/>
    <line x1="35.73850" y1="127.07588" x2="35.88596" y2="125.67290" stroke="green" stroke-width="0.04000"/>
    <line x1="34.63885" y1="127.01486" x2="35.47291" y2="119.07935" stroke="green" stroke-width="0.04000"/>
    <line x1="34.54825" y1="126.92026" x2="35.41818" y2="118.64336" stroke="green" stroke-width="0.04000"/>
    <line x1="34.45764" y1="126.82565" x2="35.35145" y2="118.32161" stroke="green" stroke-width="0.04000"/>
    <line x1="34.36703" y1="126.73105" x2="35.28471" y2="117.99986" stroke="green" stroke-width="0.04000"/>
    <line x1="34.27642" y1="126.63644" x2="35.22619" y2="117.60003" stroke="green" stroke-width="0.04000"/>
    <line x1="34.19176" y1="126.48525" x2="35.15631" y2="117.30819" stroke="green" stroke-width="0.04000"/>
    <line x1="34.11115" y1="126.29562" x2="35.08570" y2="117.02332" stroke="green" stroke-width="0.04000"/>
    <line x1="34.03053" y1="126.10599" x2="35.01509" y2="116.73846" stroke="green" stroke-width="0.04000"/>
    <line x1="33.95052" y1="125.91047" x2="34.94376" y2="116.46045" stroke="green" stroke-width="0.04000"/>
    <line x1="33.87097" y1="125.71070" x2="34.86677" y2="116.23630" stroke="green" stroke-width="0.04000"/>
    <line x1="33.79270" y1="125.49868" x2="34.78978" y2="116.01214" stroke="green" stroke-width="0.04000"/>
    <line x1="33.71457" y1="125.28543" x2="34.71279" y2="115.78799" stroke="green" stroke-width="0.04000"/>
    <line x1="33.63643" y1="125.07218" x2="34.63439" y2="115.57720" stroke="green" stroke-width="0.04000"/>
    <line x1="33.55811" y1="124.86060" x2="34.55545" y2="115.37161" stroke="green" stroke-width="0.04000"/>
    <line x1="33.47784" y1="124.66772" x2="34.47651" y2="115.16602" stroke="green" stroke-width="0.04000"/>
    <line x1="33.39753" y1="124.47513" x2="34.39756" y2="114.96042" stroke="green" stroke-width="0.04000"/>
    <line x1="33.31722" y1="124.28254" x2="34.31845" y2="114.75645" stroke="green" stroke-width="0.04000"/>
    <line x1="33.23691" y1="124.08994" x2="34.23068" y2="114.63483" stroke="green" stroke-width="0.04000"/>
    <line x1="33.15660" y1="123.89735" x2="34.14235" y2="114.51860" stroke="green" stroke-width="0.04000"/>
    <line x1="33.07751" y1="123.69323" x2="34.05402" y2="114.40237" stroke="green" stroke-width="0.04000"/>
    <line x1="32.99896" y1="123.48386" x2="33.96568" y2="114.28614" stroke="green" stroke-width="0.04000"/>
    <line x1="32.92042" y1="123.27451" x2="33.87735" y2="114.16991" stroke="green" stroke-width="0.04000"/>
    <line x1="32.84187" y1="123.06514" x2="33.78901" y2="114.05369" stroke="green" stroke-width="0.04000"/>
    <line x1="32.76100" y1="122.87790" x2="33.70191" y2="113.92569" stroke="green" stroke-width="0.04000"/>
    <line x1="32.67947" y1="122.69691" x2="33.61507" y2="113.79522" stroke="green" stroke-width="0.04000"/>
    <line x1="32.60136" y1="122.48340" x2="33.52641" y2="113.68214" stroke="green" stroke-width="0.04000"/>
    <line x1="32.52325" y1="122.26988" x2="33.42921" y2="113.65025" stroke="green" stroke-width="0.04000"/>
    <line x1="32.44514" y1="122.05637" x2="33.33201" y2="113.61835" stroke="green" stroke-width="0.04000"/>
    <line x1="32.36703" y1="121.84286" x2="33.23481" y2="113.58646" stroke="green" stroke-width="0.04000"/>
    <line x1="32.28532" y1="121.66358" x2="33.13761" y2="113.55457" stroke="green" stroke-width="0.04000"/>
    <line x1="32.20284" y1="121.49171" x2="33.04041" y2="113.52268" stroke="green" stroke-width="0.04000"/>
    <line x1="32.12253" y1="121.29913" x2="32.93943" y2="113.52681" stroke="green" stroke-width="0.04000"/>
    <line x1="32.04430" y1="121.08678" x2="32.83798" y2="113.53537" stroke="green" stroke-width="0.04000"/>
    <line x1="31.96435" y1="120.89070" x2="32.73444" y2="113.56379" stroke="green" stroke-width="0.04000"/>
    <line x1="31.88107" y1="120.72644" x2="32.62984" y2="113.60226" stroke="green" stroke-width="0.04000"/>
    <line x1="31.79778" y1="120.56219" x2="32.52525" y2="113.64073" stroke="green" stroke-width="0.04000"/>
    <line x1="31.71449" y1="120.39794" x2="32.42066" y2="113.67921" stroke="green" stroke-width="0.04000"/>
    <line x1="31.63120" y1="120.23368" x2="32.31606" y2="113.71767" stroke="green" stroke-width="0.04000"/>
    <line x1="31.54795" y1="120.06911" x2="32.21128" y2="113.75798" stroke="green" stroke-width="0.04000"/>
    <line x1="31.45944" y1="119.95457" x2="32.09650" y2="113.89326" stroke="green" stroke-width="0.04000"/>
    <line x1="31.37085" y1="119.84076" x2="31.98183" y2="114.02766" stroke="green" stroke-width="0.04000"/>
    <line x1="31.28226" y1="119.72696" x2="31.87081" y2="114.12725" stroke="green" stroke-width="0.04000"/>
    <line x1="31.19367" y1="119.61315" x2="31.75979" y2="114.22685" stroke="green" stroke-width="0.04000"/>
    <line x1="31.10508" y1="119.49935" x2="31.64878" y2="114.32645" stroke="green" stroke-width="0.04000"/>
    <line x1="31.01649" y1="119.38555" x2="31.53776" y2="114.42604" stroke="green" stroke-width="0.04000"/>
    <line x1="30.93517" y1="119.20259" x2="31.40973" y2="114.68749" stroke="green" stroke-width="0.04000"/>
    <line x1="30.85501" y1="119.00854" x2="31.28002" y2="114.96494" stroke="green" stroke-width="0.04000"/>
    <line x1="30.77153" y1="118.84616" x2="31.15544" y2="115.19349" stroke="green" stroke-width="0.04000"/>
    <line x1="30.68685" y1="118.69520" x2="31.03087" y2="115.42204" stroke="green" stroke-width="0.04000"/>
    <line x1="30.60216" y1="118.54424" x2="30.88502" y2="115.85303" stroke="green" stroke-width="0.04000"/>
    <line x1="30.62253" y1="117.39378" x2="30.72759" y2="116.39419" stroke="green" stroke-width="0.04000"/>
    <line x1="52.24910" y1="113.98732" x2="52.40005" y2="112.55112" stroke="green" stroke-width="0.04000"/>
    <line x1="52.35041" y1="113.98015" x2="52.48824" y2="112.66878" stroke="green" stroke-width="0.04000"/>
    <line x1="52.15138" y1="113.96041" x2="52.31187" y2="112.43345" stroke="green" stroke-width="0.04000"/>
    <line x1="52.05326" y1="113.93724" x2="52.22369" y2="112.31578" stroke="green" stroke-width="0.04000"/>
    <line x1="52.45693" y1="113.92337" x2="52.57431" y2="112.80660" stroke="green" stroke-width="0.04000"/>
    <line x1="51.95515" y1="113.91406" x2="52.14505" y2="112.10731" stroke="green" stroke-width="0.04000"/>
    <line x1="51.85704" y1="113.89088" x2="52.06529" y2="111.90945" stroke="green" stroke-width="0.04000"/>
    <line x1="51.75892" y1="113.86771" x2="51.97051" y2="111.85455" stroke="green" stroke-width="0.04000"/>
    <line x1="51.66080" y1="113.84453" x2="51.87573" y2="111.79965" stroke="green" stroke-width="0.04000"/>
    <line x1="52.56845" y1="113.81895" x2="52.65851" y2="112.96210" stroke="green" stroke-width="0.04000"/>
    <line x1="51.56304" y1="113.81805" x2="51.78095" y2="111.74475" stroke="green" stroke-width="0.04000"/>
    <line x1="51.46571" y1="113.78739" x2="51.68617" y2="111.68985" stroke="green" stroke-width="0.04000"/>
    <line x1="51.36838" y1="113.75674" x2="51.59139" y2="111.63496" stroke="green" stroke-width="0.04000"/>
    <line x1="51.27105" y1="113.72610" x2="51.49589" y2="111.58690" stroke="green" stroke-width="0.04000"/>
    <line x1="52.67998" y1="113.71454" x2="52.74272" y2="113.11761" stroke="green" stroke-width="0.04000"/>
    <line x1="51.17372" y1="113.69545" x2="51.40023" y2="111.54040" stroke="green" stroke-width="0.04000"/>
    <line x1="51.07639" y1="113.66480" x2="51.30457" y2="111.49390" stroke="green" stroke-width="0.04000"/>
    <line x1="50.97844" y1="113.64005" x2="51.20890" y2="111.44740" stroke="green" stroke-width="0.04000"/>
    <line x1="50.88009" y1="113.61916" x2="51.11324" y2="111.40090" stroke="green" stroke-width="0.04000"/>
    <line x1="52.79150" y1="113.61012" x2="52.82834" y2="113.25964" stroke="green" stroke-width="0.04000"/>
    <line x1="50.78173" y1="113.59827" x2="51.01757" y2="111.35440" stroke="green" stroke-width="0.04000"/>
    <line x1="50.68338" y1="113.57738" x2="50.92191" y2="111.30790" stroke="green" stroke-width="0.04000"/>
    <line x1="50.58519" y1="113.55495" x2="50.82625" y2="111.26140" stroke="green" stroke-width="0.04000"/>
    <line x1="50.48704" y1="113.53204" x2="50.73056" y2="111.21509" stroke="green" stroke-width="0.04000"/>
    <line x1="50.38890" y1="113.50912" x2="50.63447" y2="111.17267" stroke="green" stroke-width="0.04000"/>
    <line x1="52.90303" y1="113.50570" x2="52.91443" y2="113.39721" stroke="green" stroke-width="0.04000"/>
    <line x1="50.29075" y1="113.48621" x2="50.53799" y2="111.13388" stroke="green" stroke-width="0.04000"/>
    <line x1="50.19261" y1="113.46329" x2="50.44152" y2="111.09509" stroke="green" stroke-width="0.04000"/>
    <line x1="50.09447" y1="113.44038" x2="50.34531" y2="111.05382" stroke="green" stroke-width="0.04000"/>
    <line x1="49.99633" y1="113.41747" x2="50.24922" y2="111.01139" stroke="green" stroke-width="0.04000"/>
    <line x1="49.89819" y1="113.39455" x2="50.15313" y2="110.96896" stroke="green" stroke-width="0.04000"/>
    <line x1="49.79982" y1="113.37372" x2="50.05703" y2="110.92653" stroke="green" stroke-width="0.04000"/>
    <line x1="49.70082" y1="113.35902" x2="49.96094" y2="110.88410" stroke="green" stroke-width="0.04000"/>
    <line x1="49.60212" y1="113.34144" x2="49.86485" y2="110.84167" stroke="green" stroke-width="0.04000"/>
    <line x1="49.50341" y1="113.32384" x2="49.76848" y2="110.80192" stroke="green" stroke-width="0.04000"/>
    <line x1="49.40471" y1="113.30624" x2="49.67160" y2="110.76694" stroke="green" stroke-width="0.04000"/>
    <line x1="49.30601" y1="113.28865" x2="49.57473" y2="110.73196" stroke="green" stroke-width="0.04000"/>
    <line x1="49.20731" y1="113.27106" x2="49.47786" y2="110.69698" stroke="green" stroke-width="0.04000"/>
    <line x1="49.10861" y1="113.25346" x2="49.38108" y2="110.66104" stroke="green" stroke-width="0.04000"/>
    <line x1="49.00991" y1="113.23587" x2="49.28515" y2="110.61709" stroke="green" stroke-width="0.04000"/>
    <line x1="48.91121" y1="113.21827" x2="49.18922" y2="110.57314" stroke="green" stroke-width="0.04000"/>
    <line x1="48.81252" y1="113.20048" x2="49.09329" y2="110.52918" stroke="green" stroke-width="0.04000"/>
    <line x1="48.71386" y1="113.18249" x2="48.99736" y2="110.48523" stroke="green" stroke-width="0.04000"/>
    <line x1="48.61520" y1="113.16451" x2="48.90108" y2="110.44460" stroke="green" stroke-width="0.04000"/>
    <line x1="48.51654" y1="113.14652" x2="48.80452" y2="110.40666" stroke="green" stroke-width="0.04000"/>
    <line x1="48.41739" y1="113.13328" x2="48.70795" y2="110.36873" stroke="green" stroke-width="0.04000"/>
    <line x1="48.31815" y1="113.12074" x2="48.61139" y2="110.33080" stroke="green" stroke-width="0.04000"/>
    <line x1="48.21892" y1="113.10821" x2="48.51482" y2="110.29286" stroke="green" stroke-width="0.04000"/>
    <line x1="48.11969" y1="113.09567" x2="48.41826" y2="110.25493" stroke="green" stroke-width="0.04000"/>
    <line x1="48.02045" y1="113.08314" x2="48.32170" y2="110.21699" stroke="green" stroke-width="0.04000"/>
    <line x1="47.92122" y1="113.07059" x2="48.22513" y2="110.17905" stroke="green" stroke-width="0.04000"/>
    <line x1="47.82183" y1="113.05956" x2="48.12857" y2="110.14112" stroke="green" stroke-width="0.04000"/>
    <line x1="47.72240" y1="113.04888" x2="48.03253" y2="110.09821" stroke="green" stroke-width="0.04000"/>
    <line x1="47.62297" y1="113.03821" x2="47.93678" y2="110.05251" stroke="green" stroke-width="0.04000"/>
    <line x1="47.52354" y1="113.02753" x2="47.84101" y2="110.00706" stroke="green" stroke-width="0.04000"/>
    <line x1="47.42411" y1="113.01687" x2="47.74523" y2="109.96162" stroke="green" stroke-width="0.04000"/>
    <line x1="47.32527" y1="113.00060" x2="47.64946" y2="109.91618" stroke="green" stroke-width="0.04000"/>
    <line x1="47.22695" y1="112.97940" x2="47.55378" y2="109.86984" stroke="green" stroke-width="0.04000"/>
    <line x1="47.12863" y1="112.95819" x2="47.45818" y2="109.82273" stroke="green" stroke-width="0.04000"/>
    <line x1="47.03030" y1="112.93699" x2="47.36258" y2="109.77561" stroke="green" stroke-width="0.04000"/>
    <line x1="46.93192" y1="112.91633" x2="47.26698" y2="109.72850" stroke="green" stroke-width="0.04000"/>
    <line x1="46.83314" y1="112.89949" x2="47.17138" y2="109.68138" stroke="green" stroke-width="0.04000"/>
    <line x1="46.73436" y1="112.88265" x2="47.07536" y2="109.63833" stroke="green" stroke-width="0.04000"/>
    <line x1="46.63558" y1="112.86581" x2="46.97920" y2="109.59650" stroke="green" stroke-width="0.04000"/>
    <line x1="46.53680" y1="112.84897" x2="46.88353" y2="109.55003" stroke="green" stroke-width="0.04000"/>
    <line x1="46.43802" y1="112.83212" x2="46.78787" y2="109.50355" stroke="green" stroke-width="0.04000"/>
    <line x1="46.33924" y1="112.81528" x2="46.69225" y2="109.45663" stroke="green" stroke-width="0.04000"/>
    <line x1="46.24146" y1="112.78893" x2="46.59700" y2="109.40618" stroke="green" stroke-width="0.04000"/>
    <line x1="46.14391" y1="112.76037" x2="46.50175" y2="109.35574" stroke="green" stroke-width="0.04000"/>
    <line x1="46.04630" y1="112.73236" x2="46.40650" y2="109.30528" stroke="green" stroke-width="0.04000"/>
    <line x1="45.94812" y1="112.70983" x2="46.31125" y2="109.25484" stroke="green" stroke-width="0.04000"/>
    <line x1="45.84994" y1="112.68729" x2="46.21601" y2="109.20438" stroke="green" stroke-width="0.04000"/>
    <line x1="45.75176" y1="112.66476" x2="46.12080" y2="109.15350" stroke="green" stroke-width="0.04000"/>
    <line x1="45.65357" y1="112.64223" x2="46.02642" y2="109.09486" stroke="green" stroke-width="0.04000"/>
    <line x1="45.55541" y1="112.61948" x2="45.93212" y2="109.03535" stroke="green" stroke-width="0.04000"/>
    <line x1="45.45729" y1="112.59641" x2="45.83801" y2="108.97408" stroke="green" stroke-width="0.04000"/>
    <line x1="45.35916" y1="112.57334" x2="45.74390" y2="108.91280" stroke="green" stroke-width="0.04000"/>
    <line x1="45.26104" y1="112.55028" x2="45.64979" y2="108.85154" stroke="green" stroke-width="0.04000"/>
    <line x1="45.16345" y1="112.52204" x2="45.55568" y2="108.79026" stroke="green" stroke-width="0.04000"/>
    <line x1="45.06627" y1="112.48997" x2="45.46128" y2="108.73170" stroke="green" stroke-width="0.04000"/>
    <line x1="44.96909" y1="112.45789" x2="45.36639" y2="108.67784" stroke="green" stroke-width="0.04000"/>
    <line x1="44.87191" y1="112.42582" x2="45.27150" y2="108.62399" stroke="green" stroke-width="0.04000"/>
    <line x1="44.77637" y1="112.37814" x2="45.17661" y2="108.57012" stroke="green" stroke-width="0.04000"/>
    <line x1="44.68101" y1="112.32879" x2="45.08172" y2="108.51626" stroke="green" stroke-width="0.04000"/>
    <line x1="44.58564" y1="112.27944" x2="44.98683" y2="108.46239" stroke="green" stroke-width="0.04000"/>
    <line x1="44.49028" y1="112.23009" x2="44.89194" y2="108.40853" stroke="green" stroke-width="0.04000"/>
    <line x1="44.39492" y1="112.18075" x2="44.80231" y2="108.30464" stroke="green" stroke-width="0.04000"/>
    <line x1="44.30027" y1="112.12456" x2="44.71295" y2="108.19820" stroke="green" stroke-width="0.04000"/>
    <line x1="44.20581" y1="112.06661" x2="44.62348" y2="108.09277" stroke="green" stroke-width="0.04000"/>
    <line x1="44.11135" y1="112.00866" x2="44.53401" y2="107.98735" stroke="green" stroke-width="0.04000"/>
    <line x1="44.01689" y1="111.95071" x2="44.44453" y2="107.88192" stroke="green" stroke-width="0.04000"/>
    <line x1="43.92271" y1="111.89009" x2="44.35507" y2="107.77650" stroke="green" stroke-width="0.04000"/>
    <line x1="43.82868" y1="111.82809" x2="44.26560" y2="107.67107" stroke="green" stroke-width="0.04000"/>
    <line x1="43.73464" y1="111.76609" x2="44.17613" y2="107.56565" stroke="green" stroke-width="0.04000"/>
    <line x1="43.64061" y1="111.70409" x2="44.08673" y2="107.45953" stroke="green" stroke-width="0.04000"/>
    <line x1="43.54650" y1="111.64278" x2="43.99733" y2="107.35341" stroke="green" stroke-width="0.04000"/>
    <line x1="43.45234" y1="111.58203" x2="43.90794" y2="107.24729" stroke="green" stroke-width="0.04000"/>
    <line x1="43.35817" y1="111.52128" x2="43.81854" y2="107.14116" stroke="green" stroke-width="0.04000"/>
    <line x1="43.26400" y1="111.46053" x2="43.72914" y2="107.03503" stroke="green" stroke-width="0.04000"/>
    <line x1="43.16984" y1="111.39977" x2="43.63974" y2="106.92891" stroke="green" stroke-width="0.04000"/>
    <line x1="43.07637" y1="111.33243" x2="43.54828" y2="106.84250" stroke="green" stroke-width="0.04000"/>
    <line x1="42.98328" y1="111.26145" x2="43.45178" y2="106.80396" stroke="green" stroke-width="0.04000"/>
    <line x1="42.89019" y1="111.19048" x2="43.35727" y2="106.74652" stroke="green" stroke-width="0.04000"/>
    <line x1="42.79709" y1="111.11949" x2="43.26275" y2="106.68908" stroke="green" stroke-width="0.04000"/>
    <line x1="42.70356" y1="111.05271" x2="43.16824" y2="106.63165" stroke="green" stroke-width="0.04000"/>
    <line x1="42.61000" y1="110.98627" x2="43.07372" y2="106.57420" stroke="green" stroke-width="0.04000"/>
    <line x1="42.51643" y1="110.91982" x2="42.97921" y2="106.51677" stroke="green" stroke-width="0.04000"/>
    <line x1="42.42290" y1="110.85303" x2="42.88469" y2="106.45933" stroke="green" stroke-width="0.04000"/>
    <line x1="42.32943" y1="110.78562" x2="42.78917" y2="106.41154" stroke="green" stroke-width="0.04000"/>
    <line x1="42.23597" y1="110.71821" x2="42.69186" y2="106.38067" stroke="green" stroke-width="0.04000"/>
    <line x1="42.14250" y1="110.65080" x2="42.59455" y2="106.34978" stroke="green" stroke-width="0.04000"/>
    <line x1="42.04903" y1="110.58339" x2="42.49725" y2="106.31891" stroke="green" stroke-width="0.04000"/>
    <line x1="41.95619" y1="110.51004" x2="42.39994" y2="106.28803" stroke="green" stroke-width="0.04000"/>
    <line x1="41.86338" y1="110.43636" x2="42.30264" y2="106.25716" stroke="green" stroke-width="0.04000"/>
    <line x1="41.77058" y1="110.36269" x2="42.20533" y2="106.22628" stroke="green" stroke-width="0.04000"/>
    <line x1="41.67777" y1="110.28902" x2="42.10835" y2="106.19238" stroke="green" stroke-width="0.04000"/>
    <line x1="41.58496" y1="110.21535" x2="42.01172" y2="106.15502" stroke="green" stroke-width="0.04000"/>
    <line x1="41.49318" y1="110.13197" x2="41.91458" y2="106.12260" stroke="green" stroke-width="0.04000"/>
    <line x1="41.40192" y1="110.04350" x2="41.81651" y2="106.09898" stroke="green" stroke-width="0.04000"/>
    <line x1="41.31138" y1="109.94829" x2="41.71705" y2="106.08859" stroke="green" stroke-width="0.04000"/>
    <line x1="41.22091" y1="109.85239" x2="41.61450" y2="106.10759" stroke="green" stroke-width="0.04000"/>
    <line x1="41.13051" y1="109.75579" x2="41.51196" y2="106.12659" stroke="green" stroke-width="0.04000"/>
    <line x1="41.04036" y1="109.65685" x2="41.40941" y2="106.14558" stroke="green" stroke-width="0.04000"/>
    <line x1="40.95021" y1="109.55790" x2="41.30686" y2="106.16458" stroke="green" stroke-width="0.04000"/>
    <line x1="40.86005" y1="109.45896" x2="41.20431" y2="106.18357" stroke="green" stroke-width="0.04000"/>
    <line x1="40.76940" y1="109.36485" x2="41.10176" y2="106.20257" stroke="green" stroke-width="0.04000"/>
    <line x1="40.67858" y1="109.27225" x2="40.99922" y2="106.22157" stroke="green" stroke-width="0.04000"/>
    <line x1="40.59047" y1="109.15384" x2="40.89666" y2="106.24067" stroke="green" stroke-width="0.04000"/>
    <line x1="40.50237" y1="109.03542" x2="40.79370" y2="106.26362" stroke="green" stroke-width="0.04000"/>
    <line x1="40.41426" y1="108.91701" x2="40.69073" y2="106.28657" stroke="green" stroke-width="0.04000"/>
    <line x1="40.32616" y1="108.79860" x2="40.58284" y2="106.35645" stroke="green" stroke-width="0.04000"/>
    <line x1="40.23805" y1="108.68018" x2="40.47165" y2="106.45771" stroke="green" stroke-width="0.04000"/>
    <line x1="40.14963" y1="108.56477" x2="40.36045" y2="106.55898" stroke="green" stroke-width="0.04000"/>
    <line x1="40.06430" y1="108.41995" x2="40.24888" y2="106.66379" stroke="green" stroke-width="0.04000"/>
    <line x1="39.98451" y1="108.22242" x2="40.13519" y2="106.78877" stroke="green" stroke-width="0.04000"/>
    <line x1="39.92615" y1="107.82108" x2="40.00466" y2="107.07406" stroke="green" stroke-width="0.04000"/>
    <path d="M 33.5436 113.688 L 33.7737 114.033 L 34.3135 114.744 L 34.3345 114.797 L 34.3627 114.87 L 34.6912 115.725 L 34.9468 116.469 L 34.9769 116.584 L 34.9825 116.607 L 34.9825 116.607 L 35.2228 117.576 L 35.282 117.987 L 35.4295 118.698 L 35.4683 119.047 L 35.5534 119.638 L 35.6329 120.244 L 35.6943 120.581 L 35.732 121.445 L 35.7613 121.659 L 35.7422 122.559 L 35.7932 123.116 L 35.7865 123.52 L 35.833 124.455 L 35.8339 124.48 L 35.8353 124.49 L 35.8756 125.508 L 35.9095 126.049 L 35.8779 126.46 L 35.8247 127.047 L 35.066 127.301 L 34.9181 127.307 L 34.8443 127.229 L 34.2398 126.598 L 33.9967 126.026 L 33.8637 125.693 L 33.5693 124.889 L 33.5166 124.755 L 33.4855 124.686 L 33.1315 123.837 L 32.8214 123.011 L 32.7477 122.849 L 32.6871 122.718 L 32.3531 121.805 L 32.1626 121.408 L 31.9925 120.946 L 31.5523 120.078 L 31.5504 120.073 L 31.5447 120.064 L 31.0042 119.37 L 30.8338 118.957 L 30.5329 118.421 L 30.6494 117.948 L 30.5961 116.849 L 30.6085 116.817 L 30.6456 116.676 L 30.9007 115.799 L 30.9438 115.582 L 31.336 114.862 L 31.5093 114.452 L 31.9846 114.025 L 32.2134 113.755 L 32.8039 113.538 L 33.0298 113.519 L 33.5436 113.688" fill="none" stroke="blue" stroke-width="0.04000" fill-rule="evenodd" fill-opacity="1.000"/>
    <path d="M 41.9498 106.131 L 42.1533 106.21 L 42.8245 106.423 L 43.4558 106.806 L 43.54 106.835 L 43.6312 106.919 L 44.1741 107.563 L 44.7289 108.217 L 44.801 108.303 L 44.8893 108.407 L 45.4961 108.751 L 45.9631 109.056 L 46.1258 109.157 L 46.7027 109.462 L 47.0248 109.619 L 47.1165 109.654 L 47.6045 109.895 L 48.0144 110.089 L 48.0864 110.125 L 48.9544 110.466 L 49.3915 110.666 L 49.8032 110.814 L 50.4108 111.083 L 50.6844 111.193 L 50.8232 111.26 L 51.5738 111.625 L 52.0752 111.915 L 52.2182 112.309 L 52.5295 112.724 L 52.7637 113.156 L 52.953 113.459 L 52.4433 113.936 L 52.3029 114.003 L 52.171 113.965 L 51.6062 113.832 L 51.0378 113.653 L 50.6594 113.572 L 49.8387 113.381 L 49.8025 113.374 L 49.7006 113.359 L 48.864 113.21 L 48.864 113.21 L 48.5037 113.144 L 47.9014 113.068 L 47.3775 113.012 L 46.9443 112.918 L 46.3207 112.812 L 46.0554 112.734 L 45.5962 112.629 L 45.2192 112.54 L 44.8626 112.423 L 44.3754 112.171 L 43.9848 111.931 L 43.5981 111.676 L 43.1363 111.378 L 42.7903 111.114 L 42.4557 110.877 L 42.0441 110.58 L 41.553 110.19 L 41.3934 110.035 L 41.1516 109.779 L 40.8003 109.393 L 40.6993 109.3 L 40.1738 108.594 L 40.099 108.504 L 39.9855 108.229 L 39.9061 107.683 L 40.0326 106.902 L 40.2658 106.645 L 40.6495 106.296 L 40.8996 106.24 L 41.7489 106.083 L 41.9498 106.131" fill="none" stroke="blue" stroke-width="0.04000" fill-rule="evenodd" fill-opacity="1.000"/>
  </g>
</svg>
