<?xml version="1.0" encoding="UTF-8" standalone="yes"?>
<svg xmlns="http://www.w3.org/2000/svg"
     xmlns:xlink="http://www.w3.org/1999/xlink"
     width="2020.0000mm" height="1600.0000mm"
     viewBox="0 0 202.000000 160.000000">
  <!--
    Build plate : 150.00 x 150.00 mm
    Coordinate  : 1 SVG unit = 1 mm
    Display zoom: 10x  (width/height = viewBox x 10)
    Hatch stroke: 0.04 mm = ~28 mm on screen at this zoom
    Legend panel: right margin (42 mm wide)
  -->
  <defs>
    <marker id="endArrow" markerWidth="2" markerHeight="1.4"
            refX="0" refY="0.7" orient="auto"
            markerUnits="strokeWidth">
      <polyline fill="darkblue" points="0,0 2,0.7 0,1.4 0.2,0.7"/>
    </marker>
  </defs>
  <!-- Background -->
  <rect x="0" y="0" width="202.000000" height="160.000000" fill="#f0f0f0" stroke="none"/>
  <!-- Build plate boundary (150 x 150 mm) -->
  <rect x="5.000000" y="5.000000" width="150.000000" height="150.000000"
        fill="#ffffff" stroke="#aaaaaa" stroke-width="0.2" stroke-dasharray="1,0.5"/>
  <!-- Build plate centre circle (r = 75.00 mm) -->
  <circle cx="80.000000" cy="80.000000" r="75.000000"
          fill="none" stroke="#bbbbbb" stroke-width="0.15" stroke-dasharray="0.8,0.4"/>
  <!-- Centre cross-hair -->
  <line x1="5.000000" y1="80.000000" x2="155.000000" y2="80.000000" stroke="#cccccc" stroke-width="0.1"/>
  <line x1="80.000000" y1="5.000000" x2="80.000000" y2="155.000000" stroke="#cccccc" stroke-width="0.1"/>
  <circle cx="80.000000" cy="80.000000" r="0.3" fill="#cccccc" stroke="none"/>
  <!-- Corner labels -->
  <text x="5.400000" y="4.600000" font-family="sans-serif" font-size="2" fill="#888888">0,0</text>
  <text x="154.600006" y="4.600000" font-family="sans-serif" font-size="2" fill="#888888" text-anchor="end">150,0</text>
  <text x="5.400000" y="157.199997" font-family="sans-serif" font-size="2" fill="#888888">0,150</text>
  <!-- Layer geometry -->
  <g id="geometry">
    <line x1="66.74546" y1="84.39233" x2="62.43232" y2="98.50000" stroke="green" stroke-width="0.04000"/>
    <line x1="66.74546" y1="84.73436" x2="62.53688" y2="98.50000" stroke="green" stroke-width="0.04000"/>
    <line x1="66.74546" y1="85.07639" x2="62.64145" y2="98.50000" stroke="green" stroke-width="0.04000"/>
    <line x1="66.74546" y1="85.41842" x2="62.74602" y2="98.50000" stroke="green" stroke-width="0.04000"/>
    <line x1="66.74546" y1="85.76045" x2="62.85059" y2="98.50000" stroke="green" stroke-width="0.04000"/>
    <line x1="66.74546" y1="86.10249" x2="62.95516" y2="98.50000" stroke="green" stroke-width="0.04000"/>
    <line x1="66.74546" y1="86.44452" x2="63.05973" y2="98.50000" stroke="green" stroke-width="0.04000"/>
    <line x1="66.74546" y1="86.78654" x2="63.16430" y2="98.50000" stroke="green" stroke-width="0.04000"/>
    <line x1="66.74546" y1="87.12858" x2="63.26887" y2="98.50000" stroke="green" stroke-width="0.04000"/>
    <line x1="66.74546" y1="87.47060" x2="63.37344" y2="98.50000" stroke="green" stroke-width="0.04000"/>
    <line x1="66.74546" y1="87.81264" x2="63.47800" y2="98.50000" stroke="green" stroke-width="0.04000"/>
    <line x1="66.74546" y1="88.15466" x2="63.58257" y2="98.50000" stroke="green" stroke-width="0.04000"/>
    <line x1="66.74546" y1="88.49670" x2="63.68715" y2="98.50000" stroke="green" stroke-width="0.04000"/>
    <line x1="66.74546" y1="88.83872" x2="63.79171" y2="98.50000" stroke="green" stroke-width="0.04000"/>
    <line x1="66.74546" y1="89.18076" x2="63.89628" y2="98.50000" stroke="green" stroke-width="0.04000"/>
    <line x1="66.74546" y1="89.52278" x2="64.00085" y2="98.50000" stroke="green" stroke-width="0.04000"/>
    <line x1="66.74546" y1="89.86481" x2="64.10542" y2="98.50000" stroke="green" stroke-width="0.04000"/>
    <line x1="66.74546" y1="90.20685" x2="64.20999" y2="98.50000" stroke="green" stroke-width="0.04000"/>
    <line x1="66.74546" y1="90.54887" x2="64.31456" y2="98.50000" stroke="green" stroke-width="0.04000"/>
    <line x1="66.74546" y1="90.89091" x2="64.41913" y2="98.50000" stroke="green" stroke-width="0.04000"/>
    <line x1="66.74546" y1="91.23293" x2="64.52370" y2="98.50000" stroke="green" stroke-width="0.04000"/>
    <line x1="66.74546" y1="91.57497" x2="64.62827" y2="98.50000" stroke="green" stroke-width="0.04000"/>
    <line x1="66.74546" y1="91.91699" x2="64.73283" y2="98.50000" stroke="green" stroke-width="0.04000"/>
    <line x1="66.74546" y1="92.25903" x2="64.83740" y2="98.50000" stroke="green" stroke-width="0.04000"/>
    <line x1="66.74546" y1="92.60106" x2="64.94197" y2="98.50000" stroke="green" stroke-width="0.04000"/>
    <line x1="66.74546" y1="92.94309" x2="65.04654" y2="98.50000" stroke="green" stroke-width="0.04000"/>
    <line x1="66.74546" y1="93.28512" x2="65.15111" y2="98.50000" stroke="green" stroke-width="0.04000"/>
    <line x1="66.74546" y1="93.62715" x2="65.25568" y2="98.50000" stroke="green" stroke-width="0.04000"/>
    <line x1="66.74546" y1="93.96918" x2="65.36025" y2="98.50000" stroke="green" stroke-width="0.04000"/>
    <line x1="66.74546" y1="94.31122" x2="65.46482" y2="98.50000" stroke="green" stroke-width="0.04000"/>
    <line x1="66.74546" y1="94.65324" x2="65.56939" y2="98.50000" stroke="green" stroke-width="0.04000"/>
    <line x1="66.74546" y1="94.99528" x2="65.67396" y2="98.50000" stroke="green" stroke-width="0.04000"/>
    <line x1="66.74546" y1="95.33730" x2="65.77853" y2="98.50000" stroke="green" stroke-width="0.04000"/>
    <line x1="66.74546" y1="95.67933" x2="65.88309" y2="98.50000" stroke="green" stroke-width="0.04000"/>
    <line x1="66.74546" y1="96.02136" x2="65.98766" y2="98.50000" stroke="green" stroke-width="0.04000"/>
    <line x1="66.74546" y1="96.36340" x2="66.09224" y2="98.50000" stroke="green" stroke-width="0.04000"/>
    <line x1="66.74546" y1="96.70542" x2="66.19680" y2="98.50000" stroke="green" stroke-width="0.04000"/>
    <line x1="66.74546" y1="97.04745" x2="66.30138" y2="98.50000" stroke="green" stroke-width="0.04000"/>
    <line x1="66.74546" y1="97.38948" x2="66.40594" y2="98.50000" stroke="green" stroke-width="0.04000"/>
    <line x1="66.74546" y1="97.73151" x2="66.51051" y2="98.50000" stroke="green" stroke-width="0.04000"/>
    <line x1="66.74546" y1="98.07355" x2="66.61508" y2="98.50000" stroke="green" stroke-width="0.04000"/>
    <line x1="66.74546" y1="98.41557" x2="66.71965" y2="98.50000" stroke="green" stroke-width="0.04000"/>
    <line x1="66.74546" y1="84.05029" x2="62.37586" y2="98.34262" stroke="green" stroke-width="0.04000"/>
    <line x1="66.74546" y1="83.70827" x2="62.37586" y2="98.00060" stroke="green" stroke-width="0.04000"/>
    <line x1="66.74546" y1="83.36623" x2="62.37586" y2="97.65856" stroke="green" stroke-width="0.04000"/>
    <line x1="66.74546" y1="83.02421" x2="62.37586" y2="97.31654" stroke="green" stroke-width="0.04000"/>
    <line x1="66.74546" y1="82.68217" x2="62.37586" y2="96.97450" stroke="green" stroke-width="0.04000"/>
    <line x1="66.74546" y1="82.34015" x2="62.37586" y2="96.63248" stroke="green" stroke-width="0.04000"/>
    <line x1="66.74546" y1="81.99812" x2="62.31179" y2="96.50000" stroke="green" stroke-width="0.04000"/>
    <line x1="66.74546" y1="81.65609" x2="62.20722" y2="96.50000" stroke="green" stroke-width="0.04000"/>
    <line x1="66.74546" y1="81.31406" x2="62.10265" y2="96.50000" stroke="green" stroke-width="0.04000"/>
    <line x1="66.74546" y1="80.97202" x2="61.99808" y2="96.50000" stroke="green" stroke-width="0.04000"/>
    <line x1="66.74546" y1="80.63000" x2="61.89351" y2="96.50000" stroke="green" stroke-width="0.04000"/>
    <line x1="66.74546" y1="80.28796" x2="61.78894" y2="96.50000" stroke="green" stroke-width="0.04000"/>
    <line x1="66.74546" y1="79.94595" x2="61.68438" y2="96.50000" stroke="green" stroke-width="0.04000"/>
    <line x1="66.74546" y1="79.60390" x2="61.57981" y2="96.50000" stroke="green" stroke-width="0.04000"/>
    <line x1="66.74546" y1="79.26188" x2="61.47524" y2="96.50000" stroke="green" stroke-width="0.04000"/>
    <line x1="66.74546" y1="78.91985" x2="61.37067" y2="96.50000" stroke="green" stroke-width="0.04000"/>
    <line x1="66.74546" y1="78.57782" x2="61.26610" y2="96.50000" stroke="green" stroke-width="0.04000"/>
    <line x1="66.74546" y1="78.23579" x2="61.16153" y2="96.50000" stroke="green" stroke-width="0.04000"/>
    <line x1="66.74546" y1="77.89376" x2="61.05696" y2="96.50000" stroke="green" stroke-width="0.04000"/>
    <line x1="66.74546" y1="77.55172" x2="60.95239" y2="96.50000" stroke="green" stroke-width="0.04000"/>
    <line x1="66.74546" y1="77.20969" x2="60.84782" y2="96.50000" stroke="green" stroke-width="0.04000"/>
    <line x1="66.74546" y1="76.86766" x2="60.74325" y2="96.50000" stroke="green" stroke-width="0.04000"/>
    <line x1="66.74546" y1="76.52563" x2="60.63868" y2="96.50000" stroke="green" stroke-width="0.04000"/>
    <line x1="66.74546" y1="76.18359" x2="60.53411" y2="96.50000" stroke="green" stroke-width="0.04000"/>
    <line x1="66.74546" y1="75.84158" x2="60.42955" y2="96.50000" stroke="green" stroke-width="0.04000"/>
    <line x1="66.74546" y1="75.49953" x2="60.32497" y2="96.50000" stroke="green" stroke-width="0.04000"/>
    <line x1="66.74546" y1="75.15751" x2="60.22041" y2="96.50000" stroke="green" stroke-width="0.04000"/>
    <line x1="66.74546" y1="74.81548" x2="60.11584" y2="96.50000" stroke="green" stroke-width="0.04000"/>
    <line x1="66.74546" y1="74.47345" x2="60.01127" y2="96.50000" stroke="green" stroke-width="0.04000"/>
    <line x1="66.74546" y1="74.13142" x2="59.90670" y2="96.50000" stroke="green" stroke-width="0.04000"/>
    <line x1="66.74546" y1="73.78939" x2="59.80213" y2="96.50000" stroke="green" stroke-width="0.04000"/>
    <line x1="66.74546" y1="73.44736" x2="59.69756" y2="96.50000" stroke="green" stroke-width="0.04000"/>
    <line x1="66.74546" y1="73.10532" x2="59.59299" y2="96.50000" stroke="green" stroke-width="0.04000"/>
    <line x1="66.74546" y1="72.76331" x2="59.48842" y2="96.50000" stroke="green" stroke-width="0.04000"/>
    <line x1="66.74546" y1="72.42126" x2="59.38385" y2="96.50000" stroke="green" stroke-width="0.04000"/>
    <line x1="66.74546" y1="72.07925" x2="59.27929" y2="96.50000" stroke="green" stroke-width="0.04000"/>
    <line x1="66.74546" y1="71.73721" x2="59.17472" y2="96.50000" stroke="green" stroke-width="0.04000"/>
    <line x1="66.74546" y1="71.39518" x2="59.07015" y2="96.50000" stroke="green" stroke-width="0.04000"/>
    <line x1="66.74546" y1="71.05315" x2="58.96558" y2="96.50000" stroke="green" stroke-width="0.04000"/>
    <line x1="66.74546" y1="70.71112" x2="58.86101" y2="96.50000" stroke="green" stroke-width="0.04000"/>
    <line x1="66.74546" y1="70.36908" x2="58.75644" y2="96.50000" stroke="green" stroke-width="0.04000"/>
    <line x1="66.74546" y1="70.02706" x2="58.65187" y2="96.50000" stroke="green" stroke-width="0.04000"/>
    <line x1="66.74546" y1="69.68502" x2="58.54730" y2="96.50000" stroke="green" stroke-width="0.04000"/>
    <line x1="66.74546" y1="69.34299" x2="58.44273" y2="96.50000" stroke="green" stroke-width="0.04000"/>
    <line x1="66.74546" y1="69.00096" x2="58.33816" y2="96.50000" stroke="green" stroke-width="0.04000"/>
    <line x1="66.74546" y1="68.65894" x2="58.23359" y2="96.50000" stroke="green" stroke-width="0.04000"/>
    <line x1="66.74546" y1="68.31689" x2="58.12902" y2="96.50000" stroke="green" stroke-width="0.04000"/>
    <line x1="66.74546" y1="67.97488" x2="58.02445" y2="96.50000" stroke="green" stroke-width="0.04000"/>
    <line x1="66.74546" y1="67.63284" x2="57.91988" y2="96.50000" stroke="green" stroke-width="0.04000"/>
    <line x1="66.74546" y1="67.29082" x2="57.81532" y2="96.50000" stroke="green" stroke-width="0.04000"/>
    <line x1="66.74546" y1="66.94879" x2="57.71075" y2="96.50000" stroke="green" stroke-width="0.04000"/>
    <line x1="66.74546" y1="66.60675" x2="57.60618" y2="96.50000" stroke="green" stroke-width="0.04000"/>
    <line x1="66.74546" y1="66.26472" x2="57.50161" y2="96.50000" stroke="green" stroke-width="0.04000"/>
    <line x1="66.74546" y1="65.92269" x2="57.39704" y2="96.50000" stroke="green" stroke-width="0.04000"/>
    <line x1="66.74546" y1="65.58067" x2="57.29247" y2="96.50000" stroke="green" stroke-width="0.04000"/>
    <line x1="66.74546" y1="65.23863" x2="57.18790" y2="96.50000" stroke="green" stroke-width="0.04000"/>
    <line x1="66.74546" y1="64.89661" x2="57.08333" y2="96.50000" stroke="green" stroke-width="0.04000"/>
    <line x1="66.74546" y1="64.55457" x2="56.97876" y2="96.50000" stroke="green" stroke-width="0.04000"/>
    <line x1="66.74546" y1="64.21255" x2="56.87420" y2="96.50000" stroke="green" stroke-width="0.04000"/>
    <line x1="66.74546" y1="63.87051" x2="56.76963" y2="96.50000" stroke="green" stroke-width="0.04000"/>
    <line x1="66.74546" y1="63.52848" x2="56.66505" y2="96.50000" stroke="green" stroke-width="0.04000"/>
    <line x1="66.74546" y1="63.18645" x2="56.56049" y2="96.50000" stroke="green" stroke-width="0.04000"/>
    <line x1="66.74546" y1="62.84443" x2="56.45592" y2="96.50000" stroke="green" stroke-width="0.04000"/>
    <line x1="66.74546" y1="62.50238" x2="56.35135" y2="96.50000" stroke="green" stroke-width="0.04000"/>
    <line x1="66.74546" y1="62.16036" x2="56.24678" y2="96.50000" stroke="green" stroke-width="0.04000"/>
    <line x1="66.74546" y1="61.81832" x2="56.14221" y2="96.50000" stroke="green" stroke-width="0.04000"/>
    <line x1="66.73821" y1="61.50000" x2="56.03764" y2="96.50000" stroke="green" stroke-width="0.04000"/>
    <line x1="66.63364" y1="61.50000" x2="55.93307" y2="96.50000" stroke="green" stroke-width="0.04000"/>
    <line x1="66.52908" y1="61.50000" x2="55.82850" y2="96.50000" stroke="green" stroke-width="0.04000"/>
    <line x1="66.42450" y1="61.50000" x2="55.72393" y2="96.50000" stroke="green" stroke-width="0.04000"/>
    <line x1="66.31994" y1="61.50000" x2="55.61936" y2="96.50000" stroke="green" stroke-width="0.04000"/>
    <line x1="66.21536" y1="61.50000" x2="55.51479" y2="96.50000" stroke="green" stroke-width="0.04000"/>
    <line x1="66.11079" y1="61.50000" x2="55.41893" y2="96.47151" stroke="green" stroke-width="0.04000"/>
    <line x1="66.00623" y1="61.50000" x2="55.41893" y2="96.12949" stroke="green" stroke-width="0.04000"/>
    <line x1="65.90166" y1="61.50000" x2="55.41893" y2="95.78745" stroke="green" stroke-width="0.04000"/>
    <line x1="65.79709" y1="61.50000" x2="55.41893" y2="95.44542" stroke="green" stroke-width="0.04000"/>
    <line x1="65.69252" y1="61.50000" x2="55.41893" y2="95.10339" stroke="green" stroke-width="0.04000"/>
    <line x1="65.58795" y1="61.50000" x2="55.41893" y2="94.76136" stroke="green" stroke-width="0.04000"/>
    <line x1="65.48338" y1="61.50000" x2="55.41893" y2="94.41933" stroke="green" stroke-width="0.04000"/>
    <line x1="65.37881" y1="61.50000" x2="55.41893" y2="94.07731" stroke="green" stroke-width="0.04000"/>
    <line x1="65.27425" y1="61.50000" x2="55.41893" y2="93.73528" stroke="green" stroke-width="0.04000"/>
    <line x1="65.16968" y1="61.50000" x2="55.41893" y2="93.39325" stroke="green" stroke-width="0.04000"/>
    <line x1="65.06511" y1="61.50000" x2="55.41893" y2="93.05122" stroke="green" stroke-width="0.04000"/>
    <line x1="64.96054" y1="61.50000" x2="55.41893" y2="92.70918" stroke="green" stroke-width="0.04000"/>
    <line x1="64.85597" y1="61.50000" x2="55.41893" y2="92.36715" stroke="green" stroke-width="0.04000"/>
    <line x1="64.75140" y1="61.50000" x2="55.41893" y2="92.02512" stroke="green" stroke-width="0.04000"/>
    <line x1="64.64683" y1="61.50000" x2="55.41893" y2="91.68308" stroke="green" stroke-width="0.04000"/>
    <line x1="64.54227" y1="61.50000" x2="55.41893" y2="91.34106" stroke="green" stroke-width="0.04000"/>
    <line x1="64.43769" y1="61.50000" x2="55.41893" y2="90.99902" stroke="green" stroke-width="0.04000"/>
    <line x1="64.33312" y1="61.50000" x2="55.41893" y2="90.65700" stroke="green" stroke-width="0.04000"/>
    <line x1="64.22855" y1="61.50000" x2="55.41893" y2="90.31496" stroke="green" stroke-width="0.04000"/>
    <line x1="64.12399" y1="61.50000" x2="55.41893" y2="89.97294" stroke="green" stroke-width="0.04000"/>
    <line x1="64.01941" y1="61.50000" x2="55.41893" y2="89.63091" stroke="green" stroke-width="0.04000"/>
    <line x1="63.91484" y1="61.50000" x2="55.41893" y2="89.28888" stroke="green" stroke-width="0.04000"/>
    <line x1="63.81027" y1="61.50000" x2="55.41893" y2="88.94684" stroke="green" stroke-width="0.04000"/>
    <line x1="63.70571" y1="61.50000" x2="55.41893" y2="88.60481" stroke="green" stroke-width="0.04000"/>
    <line x1="63.60114" y1="61.50000" x2="55.41893" y2="88.26279" stroke="green" stroke-width="0.04000"/>
    <line x1="63.49657" y1="61.50000" x2="55.41893" y2="87.92075" stroke="green" stroke-width="0.04000"/>
    <line x1="63.39200" y1="61.50000" x2="55.41893" y2="87.57873" stroke="green" stroke-width="0.04000"/>
    <line x1="63.28743" y1="61.50000" x2="55.41893" y2="87.23669" stroke="green" stroke-width="0.04000"/>
    <line x1="63.18286" y1="61.50000" x2="55.41893" y2="86.89467" stroke="green" stroke-width="0.04000"/>
    <line x1="63.07829" y1="61.50000" x2="55.41893" y2="86.55263" stroke="green" stroke-width="0.04000"/>
    <line x1="62.97372" y1="61.50000" x2="55.41893" y2="86.21061" stroke="green" stroke-width="0.04000"/>
    <line x1="62.86915" y1="61.50000" x2="55.41893" y2="85.86858" stroke="green" stroke-width="0.04000"/>
    <line x1="62.76458" y1="61.50000" x2="55.41893" y2="85.52654" stroke="green" stroke-width="0.04000"/>
    <line x1="62.66002" y1="61.50000" x2="55.41893" y2="85.18451" stroke="green" stroke-width="0.04000"/>
    <line x1="62.55545" y1="61.50000" x2="55.41893" y2="84.84249" stroke="green" stroke-width="0.04000"/>
    <line x1="62.45088" y1="61.50000" x2="55.41893" y2="84.50046" stroke="green" stroke-width="0.04000"/>
    <line x1="62.34631" y1="61.50000" x2="55.41893" y2="84.15842" stroke="green" stroke-width="0.04000"/>
    <line x1="62.24174" y1="61.50000" x2="55.41893" y2="83.81639" stroke="green" stroke-width="0.04000"/>
    <line x1="62.13717" y1="61.50000" x2="55.41893" y2="83.47437" stroke="green" stroke-width="0.04000"/>
    <line x1="62.03260" y1="61.50000" x2="55.41893" y2="83.13233" stroke="green" stroke-width="0.04000"/>
    <line x1="61.92803" y1="61.50000" x2="55.41893" y2="82.79031" stroke="green" stroke-width="0.04000"/>
    <line x1="61.82346" y1="61.50000" x2="55.41893" y2="82.44827" stroke="green" stroke-width="0.04000"/>
    <line x1="61.71889" y1="61.50000" x2="55.41893" y2="82.10624" stroke="green" stroke-width="0.04000"/>
    <line x1="61.61432" y1="61.50000" x2="55.41893" y2="81.76421" stroke="green" stroke-width="0.04000"/>
    <line x1="61.50975" y1="61.50000" x2="55.41893" y2="81.42218" stroke="green" stroke-width="0.04000"/>
    <line x1="61.40519" y1="61.50000" x2="55.41893" y2="81.08015" stroke="green" stroke-width="0.04000"/>
    <line x1="61.30062" y1="61.50000" x2="55.41893" y2="80.73811" stroke="green" stroke-width="0.04000"/>
    <line x1="61.19605" y1="61.50000" x2="55.41893" y2="80.39609" stroke="green" stroke-width="0.04000"/>
    <line x1="61.09148" y1="61.50000" x2="55.41893" y2="80.05405" stroke="green" stroke-width="0.04000"/>
    <line x1="60.98691" y1="61.50000" x2="55.41893" y2="79.71202" stroke="green" stroke-width="0.04000"/>
    <line x1="60.88234" y1="61.50000" x2="55.41893" y2="79.37000" stroke="green" stroke-width="0.04000"/>
    <line x1="60.77777" y1="61.50000" x2="55.41893" y2="79.02796" stroke="green" stroke-width="0.04000"/>
    <line x1="60.67320" y1="61.50000" x2="55.41893" y2="78.68593" stroke="green" stroke-width="0.04000"/>
    <line x1="60.56863" y1="61.50000" x2="55.41893" y2="78.34391" stroke="green" stroke-width="0.04000"/>
    <line x1="60.46406" y1="61.50000" x2="55.41893" y2="78.00188" stroke="green" stroke-width="0.04000"/>
    <line x1="60.35949" y1="61.50000" x2="55.41893" y2="77.65984" stroke="green" stroke-width="0.04000"/>
    <line x1="60.25492" y1="61.50000" x2="55.41893" y2="77.31781" stroke="green" stroke-width="0.04000"/>
    <line x1="60.15036" y1="61.50000" x2="55.41893" y2="76.97579" stroke="green" stroke-width="0.04000"/>
    <line x1="60.04579" y1="61.50000" x2="55.41893" y2="76.63376" stroke="green" stroke-width="0.04000"/>
    <line x1="59.94122" y1="61.50000" x2="55.41893" y2="76.29173" stroke="green" stroke-width="0.04000"/>
    <line x1="59.83665" y1="61.50000" x2="55.41893" y2="75.94969" stroke="green" stroke-width="0.04000"/>
    <line x1="59.73208" y1="61.50000" x2="55.41893" y2="75.60767" stroke="green" stroke-width="0.04000"/>
    <line x1="59.62751" y1="61.50000" x2="55.41893" y2="75.26563" stroke="green" stroke-width="0.04000"/>
    <line x1="59.52294" y1="61.50000" x2="55.41893" y2="74.92361" stroke="green" stroke-width="0.04000"/>
    <line x1="59.41837" y1="61.50000" x2="55.41893" y2="74.58157" stroke="green" stroke-width="0.04000"/>
    <line x1="59.31380" y1="61.50000" x2="55.41893" y2="74.23955" stroke="green" stroke-width="0.04000"/>
    <line x1="59.20923" y1="61.50000" x2="55.41893" y2="73.89751" stroke="green" stroke-width="0.04000"/>
    <line x1="59.10466" y1="61.50000" x2="55.41893" y2="73.55548" stroke="green" stroke-width="0.04000"/>
    <line x1="59.00010" y1="61.50000" x2="55.41893" y2="73.21345" stroke="green" stroke-width="0.04000"/>
    <line x1="58.89553" y1="61.50000" x2="55.41893" y2="72.87142" stroke="green" stroke-width="0.04000"/>
    <line x1="58.79095" y1="61.50000" x2="55.41893" y2="72.52939" stroke="green" stroke-width="0.04000"/>
    <line x1="58.68639" y1="61.50000" x2="55.41893" y2="72.18736" stroke="green" stroke-width="0.04000"/>
    <line x1="58.58182" y1="61.50000" x2="55.41893" y2="71.84532" stroke="green" stroke-width="0.04000"/>
    <line x1="58.47725" y1="61.50000" x2="55.41893" y2="71.50330" stroke="green" stroke-width="0.04000"/>
    <line x1="58.37268" y1="61.50000" x2="55.41893" y2="71.16126" stroke="green" stroke-width="0.04000"/>
    <line x1="58.26811" y1="61.50000" x2="55.41893" y2="70.81924" stroke="green" stroke-width="0.04000"/>
    <line x1="58.16354" y1="61.50000" x2="55.41893" y2="70.47720" stroke="green" stroke-width="0.04000"/>
    <line x1="58.05897" y1="61.50000" x2="55.41893" y2="70.13518" stroke="green" stroke-width="0.04000"/>
    <line x1="57.95440" y1="61.50000" x2="55.41893" y2="69.79314" stroke="green" stroke-width="0.04000"/>
    <line x1="57.84983" y1="61.50000" x2="55.41893" y2="69.45112" stroke="green" stroke-width="0.04000"/>
    <line x1="57.74527" y1="61.50000" x2="55.41893" y2="69.10909" stroke="green" stroke-width="0.04000"/>
    <line x1="57.64070" y1="61.50000" x2="55.41893" y2="68.76706" stroke="green" stroke-width="0.04000"/>
    <line x1="57.53613" y1="61.50000" x2="55.41893" y2="68.42503" stroke="green" stroke-width="0.04000"/>
    <line x1="57.43156" y1="61.50000" x2="55.41893" y2="68.08299" stroke="green" stroke-width="0.04000"/>
    <line x1="57.32699" y1="61.50000" x2="55.41893" y2="67.74097" stroke="green" stroke-width="0.04000"/>
    <line x1="57.22242" y1="61.50000" x2="55.41893" y2="67.39894" stroke="green" stroke-width="0.04000"/>
    <line x1="57.11785" y1="61.50000" x2="55.41893" y2="67.05690" stroke="green" stroke-width="0.04000"/>
    <line x1="57.01328" y1="61.50000" x2="55.41893" y2="66.71487" stroke="green" stroke-width="0.04000"/>
    <line x1="56.90871" y1="61.50000" x2="55.41893" y2="66.37285" stroke="green" stroke-width="0.04000"/>
    <line x1="56.80414" y1="61.50000" x2="55.41893" y2="66.03081" stroke="green" stroke-width="0.04000"/>
    <line x1="56.69957" y1="61.50000" x2="55.41893" y2="65.68878" stroke="green" stroke-width="0.04000"/>
    <line x1="56.59500" y1="61.50000" x2="55.41893" y2="65.34676" stroke="green" stroke-width="0.04000"/>
    <line x1="56.49043" y1="61.50000" x2="55.41893" y2="65.00471" stroke="green" stroke-width="0.04000"/>
    <line x1="56.38586" y1="61.50000" x2="55.41893" y2="64.66269" stroke="green" stroke-width="0.04000"/>
    <line x1="56.28130" y1="61.50000" x2="55.41893" y2="64.32066" stroke="green" stroke-width="0.04000"/>
    <line x1="56.17672" y1="61.50000" x2="55.41893" y2="63.97863" stroke="green" stroke-width="0.04000"/>
    <line x1="56.07215" y1="61.50000" x2="55.41893" y2="63.63660" stroke="green" stroke-width="0.04000"/>
    <line x1="55.96759" y1="61.50000" x2="55.41893" y2="63.29457" stroke="green" stroke-width="0.04000"/>
    <line x1="55.86302" y1="61.50000" x2="55.41893" y2="62.95254" stroke="green" stroke-width="0.04000"/>
    <line x1="55.75845" y1="61.50000" x2="55.41893" y2="62.61051" stroke="green" stroke-width="0.04000"/>
    <line x1="55.65388" y1="61.50000" x2="55.41893" y2="62.26847" stroke="green" stroke-width="0.04000"/>
    <line x1="55.54931" y1="61.50000" x2="55.41893" y2="61.92645" stroke="green" stroke-width="0.04000"/>
    <line x1="55.44474" y1="61.50000" x2="55.41893" y2="61.58442" stroke="green" stroke-width="0.04000"/>
    <line x1="104.57383" y1="61.50000" x2="93.26179" y2="98.50000" stroke="green" stroke-width="0.04000"/>
    <line x1="104.58107" y1="61.81835" x2="93.36636" y2="98.50000" stroke="green" stroke-width="0.04000"/>
    <line x1="104.58107" y1="62.16037" x2="93.47093" y2="98.50000" stroke="green" stroke-width="0.04000"/>
    <line x1="104.58107" y1="62.50241" x2="93.57550" y2="98.50000" stroke="green" stroke-width="0.04000"/>
    <line x1="104.58107" y1="62.84443" x2="93.68007" y2="98.50000" stroke="green" stroke-width="0.04000"/>
    <line x1="104.58107" y1="63.18647" x2="93.78464" y2="98.50000" stroke="green" stroke-width="0.04000"/>
    <line x1="104.58107" y1="63.52849" x2="93.88921" y2="98.50000" stroke="green" stroke-width="0.04000"/>
    <line x1="104.58107" y1="63.87054" x2="93.99378" y2="98.50000" stroke="green" stroke-width="0.04000"/>
    <line x1="104.58107" y1="64.21255" x2="94.09834" y2="98.50000" stroke="green" stroke-width="0.04000"/>
    <line x1="104.58107" y1="64.55460" x2="94.20292" y2="98.50000" stroke="green" stroke-width="0.04000"/>
    <line x1="104.58107" y1="64.89661" x2="94.30748" y2="98.50000" stroke="green" stroke-width="0.04000"/>
    <line x1="104.58107" y1="65.23866" x2="94.41206" y2="98.50000" stroke="green" stroke-width="0.04000"/>
    <line x1="104.58107" y1="65.58068" x2="94.51662" y2="98.50000" stroke="green" stroke-width="0.04000"/>
    <line x1="104.58107" y1="65.92272" x2="94.62120" y2="98.50000" stroke="green" stroke-width="0.04000"/>
    <line x1="104.58107" y1="66.26474" x2="94.72576" y2="98.50000" stroke="green" stroke-width="0.04000"/>
    <line x1="104.58107" y1="66.60677" x2="94.83033" y2="98.50000" stroke="green" stroke-width="0.04000"/>
    <line x1="104.58107" y1="66.94881" x2="94.93490" y2="98.50000" stroke="green" stroke-width="0.04000"/>
    <line x1="104.58107" y1="67.29083" x2="95.03947" y2="98.50000" stroke="green" stroke-width="0.04000"/>
    <line x1="104.58107" y1="67.63286" x2="95.14404" y2="98.50000" stroke="green" stroke-width="0.04000"/>
    <line x1="104.58107" y1="67.97490" x2="95.24860" y2="98.50000" stroke="green" stroke-width="0.04000"/>
    <line x1="104.58107" y1="68.31693" x2="95.35318" y2="98.50000" stroke="green" stroke-width="0.04000"/>
    <line x1="104.58107" y1="68.65894" x2="95.45774" y2="98.50000" stroke="green" stroke-width="0.04000"/>
    <line x1="104.58107" y1="69.00098" x2="95.56232" y2="98.50000" stroke="green" stroke-width="0.04000"/>
    <line x1="104.58107" y1="69.34300" x2="95.66689" y2="98.50000" stroke="green" stroke-width="0.04000"/>
    <line x1="104.58107" y1="69.68505" x2="95.77145" y2="98.50000" stroke="green" stroke-width="0.04000"/>
    <line x1="104.58107" y1="70.02707" x2="95.87602" y2="98.50000" stroke="green" stroke-width="0.04000"/>
    <line x1="104.58107" y1="70.36911" x2="95.98059" y2="98.50000" stroke="green" stroke-width="0.04000"/>
    <line x1="104.58107" y1="70.71113" x2="96.08516" y2="98.50000" stroke="green" stroke-width="0.04000"/>
    <line x1="104.58107" y1="71.05317" x2="96.18973" y2="98.50000" stroke="green" stroke-width="0.04000"/>
    <line x1="104.58107" y1="71.39520" x2="96.29430" y2="98.50000" stroke="green" stroke-width="0.04000"/>
    <line x1="104.58107" y1="71.73724" x2="96.39887" y2="98.50000" stroke="green" stroke-width="0.04000"/>
    <line x1="104.58107" y1="72.07925" x2="96.50343" y2="98.50000" stroke="green" stroke-width="0.04000"/>
    <line x1="104.58107" y1="72.42130" x2="96.60801" y2="98.50000" stroke="green" stroke-width="0.04000"/>
    <line x1="104.58107" y1="72.76331" x2="96.71258" y2="98.50000" stroke="green" stroke-width="0.04000"/>
    <line x1="104.58107" y1="73.10535" x2="96.81715" y2="98.50000" stroke="green" stroke-width="0.04000"/>
    <line x1="104.58107" y1="73.44738" x2="96.92171" y2="98.50000" stroke="green" stroke-width="0.04000"/>
    <line x1="97.62415" y1="96.54449" x2="97.02629" y2="98.50000" stroke="green" stroke-width="0.04000"/>
    <line x1="97.62415" y1="96.88651" x2="97.13085" y2="98.50000" stroke="green" stroke-width="0.04000"/>
    <line x1="97.62415" y1="97.22854" x2="97.23542" y2="98.50000" stroke="green" stroke-width="0.04000"/>
    <line x1="97.62415" y1="97.57057" x2="97.33999" y2="98.50000" stroke="green" stroke-width="0.04000"/>
    <line x1="97.62415" y1="97.91260" x2="97.44456" y2="98.50000" stroke="green" stroke-width="0.04000"/>
    <line x1="97.62415" y1="98.25464" x2="97.54913" y2="98.50000" stroke="green" stroke-width="0.04000"/>
    <line x1="104.46926" y1="61.50000" x2="93.25455" y2="98.18165" stroke="green" stroke-width="0.04000"/>
    <line x1="104.36469" y1="61.50000" x2="93.25455" y2="97.83961" stroke="green" stroke-width="0.04000"/>
    <line x1="104.26012" y1="61.50000" x2="93.25455" y2="97.49759" stroke="green" stroke-width="0.04000"/>
    <line x1="104.15556" y1="61.50000" x2="93.25455" y2="97.15556" stroke="green" stroke-width="0.04000"/>
    <line x1="104.05098" y1="61.50000" x2="93.25455" y2="96.81353" stroke="green" stroke-width="0.04000"/>
    <line x1="104.58107" y1="73.78942" x2="97.63775" y2="96.50000" stroke="green" stroke-width="0.04000"/>
    <line x1="104.58107" y1="74.13144" x2="97.74232" y2="96.50000" stroke="green" stroke-width="0.04000"/>
    <line x1="104.58107" y1="74.47347" x2="97.84688" y2="96.50000" stroke="green" stroke-width="0.04000"/>
    <line x1="104.58107" y1="74.81550" x2="97.95145" y2="96.50000" stroke="green" stroke-width="0.04000"/>
    <line x1="104.58107" y1="75.15753" x2="98.05602" y2="96.50000" stroke="green" stroke-width="0.04000"/>
    <line x1="104.58107" y1="75.49956" x2="98.16059" y2="96.50000" stroke="green" stroke-width="0.04000"/>
    <line x1="104.58107" y1="75.84160" x2="98.26516" y2="96.50000" stroke="green" stroke-width="0.04000"/>
    <line x1="104.58107" y1="76.18362" x2="98.36973" y2="96.50000" stroke="green" stroke-width="0.04000"/>
    <line x1="104.58107" y1="76.52564" x2="98.47430" y2="96.50000" stroke="green" stroke-width="0.04000"/>
    <line x1="104.58107" y1="76.86768" x2="98.57887" y2="96.50000" stroke="green" stroke-width="0.04000"/>
    <line x1="104.58107" y1="77.20970" x2="98.68343" y2="96.50000" stroke="green" stroke-width="0.04000"/>
    <line x1="104.58107" y1="77.55175" x2="98.78801" y2="96.50000" stroke="green" stroke-width="0.04000"/>
    <line x1="104.58107" y1="77.89377" x2="98.89257" y2="96.50000" stroke="green" stroke-width="0.04000"/>
    <line x1="104.58107" y1="78.23581" x2="98.99715" y2="96.50000" stroke="green" stroke-width="0.04000"/>
    <line x1="104.58107" y1="78.57783" x2="99.10171" y2="96.50000" stroke="green" stroke-width="0.04000"/>
    <line x1="104.58107" y1="78.91987" x2="99.20628" y2="96.50000" stroke="green" stroke-width="0.04000"/>
    <line x1="104.58107" y1="79.26189" x2="99.31085" y2="96.50000" stroke="green" stroke-width="0.04000"/>
    <line x1="104.58107" y1="79.60394" x2="99.41542" y2="96.50000" stroke="green" stroke-width="0.04000"/>
    <line x1="104.58107" y1="79.94595" x2="99.51999" y2="96.50000" stroke="green" stroke-width="0.04000"/>
    <line x1="104.58107" y1="80.28799" x2="99.62457" y2="96.50000" stroke="green" stroke-width="0.04000"/>
    <line x1="104.58107" y1="80.63001" x2="99.72913" y2="96.50000" stroke="green" stroke-width="0.04000"/>
    <line x1="104.58107" y1="80.97205" x2="99.83370" y2="96.50000" stroke="green" stroke-width="0.04000"/>
    <line x1="104.58107" y1="81.31408" x2="99.93827" y2="96.50000" stroke="green" stroke-width="0.04000"/>
    <line x1="104.58107" y1="81.65612" x2="100.04284" y2="96.50000" stroke="green" stroke-width="0.04000"/>
    <line x1="104.58107" y1="81.99814" x2="100.14741" y2="96.50000" stroke="green" stroke-width="0.04000"/>
    <line x1="104.58107" y1="82.34016" x2="100.25197" y2="96.50000" stroke="green" stroke-width="0.04000"/>
    <line x1="104.58107" y1="82.68220" x2="100.35654" y2="96.50000" stroke="green" stroke-width="0.04000"/>
    <line x1="104.58107" y1="83.02423" x2="100.46111" y2="96.50000" stroke="green" stroke-width="0.04000"/>
    <line x1="104.58107" y1="83.36626" x2="100.56568" y2="96.50000" stroke="green" stroke-width="0.04000"/>
    <line x1="104.58107" y1="83.70829" x2="100.67025" y2="96.50000" stroke="green" stroke-width="0.04000"/>
    <line x1="104.58107" y1="84.05032" x2="100.77482" y2="96.50000" stroke="green" stroke-width="0.04000"/>
    <line x1="104.58107" y1="84.39234" x2="100.87939" y2="96.50000" stroke="green" stroke-width="0.04000"/>
    <line x1="104.58107" y1="84.73438" x2="100.98396" y2="96.50000" stroke="green" stroke-width="0.04000"/>
    <line x1="104.58107" y1="85.07640" x2="101.08852" y2="96.50000" stroke="green" stroke-width="0.04000"/>
    <line x1="104.58107" y1="85.41845" x2="101.19310" y2="96.50000" stroke="green" stroke-width="0.04000"/>
    <line x1="104.58107" y1="85.76047" x2="101.29766" y2="96.50000" stroke="green" stroke-width="0.04000"/>
    <line x1="104.58107" y1="86.10251" x2="101.40224" y2="96.50000" stroke="green" stroke-width="0.04000"/>
    <line x1="104.58107" y1="86.44453" x2="101.50681" y2="96.50000" stroke="green" stroke-width="0.04000"/>
    <line x1="104.58107" y1="86.78657" x2="101.61137" y2="96.50000" stroke="green" stroke-width="0.04000"/>
    <line x1="104.58107" y1="87.12859" x2="101.71594" y2="96.50000" stroke="green" stroke-width="0.04000"/>
    <line x1="104.58107" y1="87.47063" x2="101.82052" y2="96.50000" stroke="green" stroke-width="0.04000"/>
    <line x1="104.58107" y1="87.81265" x2="101.92508" y2="96.50000" stroke="green" stroke-width="0.04000"/>
    <line x1="104.58107" y1="88.15469" x2="102.02966" y2="96.50000" stroke="green" stroke-width="0.04000"/>
    <line x1="104.58107" y1="88.49671" x2="102.13422" y2="96.50000" stroke="green" stroke-width="0.04000"/>
    <line x1="104.58107" y1="88.83875" x2="102.23879" y2="96.50000" stroke="green" stroke-width="0.04000"/>
    <line x1="104.58107" y1="89.18078" x2="102.34336" y2="96.50000" stroke="green" stroke-width="0.04000"/>
    <line x1="104.58107" y1="89.52280" x2="102.44793" y2="96.50000" stroke="green" stroke-width="0.04000"/>
    <line x1="104.58107" y1="89.86484" x2="102.55250" y2="96.50000" stroke="green" stroke-width="0.04000"/>
    <line x1="104.58107" y1="90.20686" x2="102.65707" y2="96.50000" stroke="green" stroke-width="0.04000"/>
    <line x1="104.58107" y1="90.54890" x2="102.76163" y2="96.50000" stroke="green" stroke-width="0.04000"/>
    <line x1="104.58107" y1="90.89093" x2="102.86620" y2="96.50000" stroke="green" stroke-width="0.04000"/>
    <line x1="104.58107" y1="91.23296" x2="102.97077" y2="96.50000" stroke="green" stroke-width="0.04000"/>
    <line x1="104.58107" y1="91.57498" x2="103.07534" y2="96.50000" stroke="green" stroke-width="0.04000"/>
    <line x1="104.58107" y1="91.91702" x2="103.17991" y2="96.50000" stroke="green" stroke-width="0.04000"/>
    <line x1="104.58107" y1="92.25904" x2="103.28448" y2="96.50000" stroke="green" stroke-width="0.04000"/>
    <line x1="104.58107" y1="92.60108" x2="103.38905" y2="96.50000" stroke="green" stroke-width="0.04000"/>
    <line x1="104.58107" y1="92.94311" x2="103.49361" y2="96.50000" stroke="green" stroke-width="0.04000"/>
    <line x1="104.58107" y1="93.28515" x2="103.59819" y2="96.50000" stroke="green" stroke-width="0.04000"/>
    <line x1="104.58107" y1="93.62717" x2="103.70276" y2="96.50000" stroke="green" stroke-width="0.04000"/>
    <line x1="104.58107" y1="93.96921" x2="103.80733" y2="96.50000" stroke="green" stroke-width="0.04000"/>
    <line x1="104.58107" y1="94.31123" x2="103.91190" y2="96.50000" stroke="green" stroke-width="0.04000"/>
    <line x1="104.58107" y1="94.65327" x2="104.01646" y2="96.50000" stroke="green" stroke-width="0.04000"/>
    <line x1="104.58107" y1="94.99529" x2="104.12103" y2="96.50000" stroke="green" stroke-width="0.04000"/>
    <line x1="104.58107" y1="95.33733" x2="104.22561" y2="96.50000" stroke="green" stroke-width="0.04000"/>
    <line x1="104.58107" y1="95.67935" x2="104.33017" y2="96.50000" stroke="green" stroke-width="0.04000"/>
    <line x1="104.58107" y1="96.02139" x2="104.43475" y2="96.50000" stroke="green" stroke-width="0.04000"/>
    <line x1="104.58107" y1="96.36341" x2="104.53931" y2="96.50000" stroke="green" stroke-width="0.04000"/>
    <line x1="103.94642" y1="61.50000" x2="93.25455" y2="96.47149" stroke="green" stroke-width="0.04000"/>
    <line x1="103.84184" y1="61.50000" x2="93.25455" y2="96.12946" stroke="green" stroke-width="0.04000"/>
    <line x1="103.73728" y1="61.50000" x2="93.25455" y2="95.78745" stroke="green" stroke-width="0.04000"/>
    <line x1="103.63271" y1="61.50000" x2="93.25455" y2="95.44540" stroke="green" stroke-width="0.04000"/>
    <line x1="103.52814" y1="61.50000" x2="93.25455" y2="95.10339" stroke="green" stroke-width="0.04000"/>
    <line x1="103.42357" y1="61.50000" x2="93.25455" y2="94.76134" stroke="green" stroke-width="0.04000"/>
    <line x1="103.31900" y1="61.50000" x2="93.25455" y2="94.41932" stroke="green" stroke-width="0.04000"/>
    <line x1="103.21442" y1="61.50000" x2="93.25455" y2="94.07728" stroke="green" stroke-width="0.04000"/>
    <line x1="103.10986" y1="61.50000" x2="93.25455" y2="93.73526" stroke="green" stroke-width="0.04000"/>
    <line x1="103.00529" y1="61.50000" x2="93.25455" y2="93.39322" stroke="green" stroke-width="0.04000"/>
    <line x1="102.90073" y1="61.50000" x2="93.25455" y2="93.05120" stroke="green" stroke-width="0.04000"/>
    <line x1="102.79615" y1="61.50000" x2="93.25455" y2="92.70916" stroke="green" stroke-width="0.04000"/>
    <line x1="102.69158" y1="61.50000" x2="93.25455" y2="92.36713" stroke="green" stroke-width="0.04000"/>
    <line x1="102.58701" y1="61.50000" x2="93.25455" y2="92.02509" stroke="green" stroke-width="0.04000"/>
    <line x1="102.48244" y1="61.50000" x2="93.25455" y2="91.68307" stroke="green" stroke-width="0.04000"/>
    <line x1="102.37788" y1="61.50000" x2="93.25455" y2="91.34103" stroke="green" stroke-width="0.04000"/>
    <line x1="102.27331" y1="61.50000" x2="93.25455" y2="90.99902" stroke="green" stroke-width="0.04000"/>
    <line x1="102.16873" y1="61.50000" x2="93.25455" y2="90.65697" stroke="green" stroke-width="0.04000"/>
    <line x1="102.06417" y1="61.50000" x2="93.25455" y2="90.31495" stroke="green" stroke-width="0.04000"/>
    <line x1="101.95960" y1="61.50000" x2="93.25455" y2="89.97292" stroke="green" stroke-width="0.04000"/>
    <line x1="101.85503" y1="61.50000" x2="93.25455" y2="89.63089" stroke="green" stroke-width="0.04000"/>
    <line x1="101.75047" y1="61.50000" x2="93.25455" y2="89.28886" stroke="green" stroke-width="0.04000"/>
    <line x1="101.64589" y1="61.50000" x2="93.25455" y2="88.94683" stroke="green" stroke-width="0.04000"/>
    <line x1="101.54132" y1="61.50000" x2="93.25455" y2="88.60479" stroke="green" stroke-width="0.04000"/>
    <line x1="101.43675" y1="61.50000" x2="93.25455" y2="88.26276" stroke="green" stroke-width="0.04000"/>
    <line x1="101.33218" y1="61.50000" x2="93.25455" y2="87.92075" stroke="green" stroke-width="0.04000"/>
    <line x1="101.22762" y1="61.50000" x2="93.25455" y2="87.57870" stroke="green" stroke-width="0.04000"/>
    <line x1="101.12305" y1="61.50000" x2="93.25455" y2="87.23669" stroke="green" stroke-width="0.04000"/>
    <line x1="101.01848" y1="61.50000" x2="93.25455" y2="86.89465" stroke="green" stroke-width="0.04000"/>
    <line x1="100.91391" y1="61.50000" x2="93.25455" y2="86.55262" stroke="green" stroke-width="0.04000"/>
    <line x1="100.80933" y1="61.50000" x2="93.25455" y2="86.21058" stroke="green" stroke-width="0.04000"/>
    <line x1="100.70477" y1="61.50000" x2="93.25455" y2="85.86856" stroke="green" stroke-width="0.04000"/>
    <line x1="100.60020" y1="61.50000" x2="93.25455" y2="85.52652" stroke="green" stroke-width="0.04000"/>
    <line x1="100.49563" y1="61.50000" x2="93.25455" y2="85.18450" stroke="green" stroke-width="0.04000"/>
    <line x1="100.39106" y1="61.50000" x2="93.25455" y2="84.84246" stroke="green" stroke-width="0.04000"/>
    <line x1="100.28649" y1="61.50000" x2="93.25455" y2="84.50043" stroke="green" stroke-width="0.04000"/>
    <line x1="100.18192" y1="61.50000" x2="93.25455" y2="84.15839" stroke="green" stroke-width="0.04000"/>
    <line x1="100.07735" y1="61.50000" x2="93.25455" y2="83.81638" stroke="green" stroke-width="0.04000"/>
    <line x1="99.97278" y1="61.50000" x2="93.25455" y2="83.47433" stroke="green" stroke-width="0.04000"/>
    <line x1="99.86822" y1="61.50000" x2="93.25455" y2="83.13232" stroke="green" stroke-width="0.04000"/>
    <line x1="99.76364" y1="61.50000" x2="93.25455" y2="82.79027" stroke="green" stroke-width="0.04000"/>
    <line x1="99.65908" y1="61.50000" x2="93.25455" y2="82.44825" stroke="green" stroke-width="0.04000"/>
    <line x1="99.55451" y1="61.50000" x2="93.25455" y2="82.10622" stroke="green" stroke-width="0.04000"/>
    <line x1="99.44994" y1="61.50000" x2="93.25455" y2="81.76419" stroke="green" stroke-width="0.04000"/>
    <line x1="99.34538" y1="61.50000" x2="93.25455" y2="81.42216" stroke="green" stroke-width="0.04000"/>
    <line x1="99.24080" y1="61.50000" x2="93.25455" y2="81.08013" stroke="green" stroke-width="0.04000"/>
    <line x1="99.13623" y1="61.50000" x2="93.25455" y2="80.73809" stroke="green" stroke-width="0.04000"/>
    <line x1="99.03166" y1="61.50000" x2="93.25455" y2="80.39606" stroke="green" stroke-width="0.04000"/>
    <line x1="98.92709" y1="61.50000" x2="93.25455" y2="80.05405" stroke="green" stroke-width="0.04000"/>
    <line x1="98.82253" y1="61.50000" x2="93.25455" y2="79.71201" stroke="green" stroke-width="0.04000"/>
    <line x1="98.71796" y1="61.50000" x2="93.25455" y2="79.36999" stroke="green" stroke-width="0.04000"/>
    <line x1="98.61338" y1="61.50000" x2="93.25455" y2="79.02795" stroke="green" stroke-width="0.04000"/>
    <line x1="98.50882" y1="61.50000" x2="93.25455" y2="78.68593" stroke="green" stroke-width="0.04000"/>
    <line x1="98.40424" y1="61.50000" x2="93.25455" y2="78.34388" stroke="green" stroke-width="0.04000"/>
    <line x1="98.29968" y1="61.50000" x2="93.25455" y2="78.00186" stroke="green" stroke-width="0.04000"/>
    <line x1="98.19511" y1="61.50000" x2="93.25455" y2="77.65982" stroke="green" stroke-width="0.04000"/>
    <line x1="98.09054" y1="61.50000" x2="93.25455" y2="77.31780" stroke="green" stroke-width="0.04000"/>
    <line x1="97.98597" y1="61.50000" x2="93.25455" y2="76.97576" stroke="green" stroke-width="0.04000"/>
    <line x1="97.88140" y1="61.50000" x2="93.25455" y2="76.63374" stroke="green" stroke-width="0.04000"/>
    <line x1="97.77683" y1="61.50000" x2="93.25455" y2="76.29169" stroke="green" stroke-width="0.04000"/>
    <line x1="97.67226" y1="61.50000" x2="93.25455" y2="75.94968" stroke="green" stroke-width="0.04000"/>
    <line x1="97.56769" y1="61.50000" x2="93.25455" y2="75.60764" stroke="green" stroke-width="0.04000"/>
    <line x1="97.46313" y1="61.50000" x2="93.25455" y2="75.26562" stroke="green" stroke-width="0.04000"/>
    <line x1="97.35855" y1="61.50000" x2="93.25455" y2="74.92357" stroke="green" stroke-width="0.04000"/>
    <line x1="97.25398" y1="61.50000" x2="93.25455" y2="74.58155" stroke="green" stroke-width="0.04000"/>
    <line x1="97.14942" y1="61.50000" x2="93.25455" y2="74.23952" stroke="green" stroke-width="0.04000"/>
    <line x1="97.04485" y1="61.50000" x2="93.25455" y2="73.89749" stroke="green" stroke-width="0.04000"/>
    <line x1="96.94028" y1="61.50000" x2="93.25455" y2="73.55547" stroke="green" stroke-width="0.04000"/>
    <line x1="96.83571" y1="61.50000" x2="93.25455" y2="73.21343" stroke="green" stroke-width="0.04000"/>
    <line x1="96.73114" y1="61.50000" x2="93.25455" y2="72.87140" stroke="green" stroke-width="0.04000"/>
    <line x1="96.62657" y1="61.50000" x2="93.25455" y2="72.52937" stroke="green" stroke-width="0.04000"/>
    <line x1="96.52200" y1="61.50000" x2="93.25455" y2="72.18735" stroke="green" stroke-width="0.04000"/>
    <line x1="96.41743" y1="61.50000" x2="93.25455" y2="71.84531" stroke="green" stroke-width="0.04000"/>
    <line x1="96.31287" y1="61.50000" x2="93.25455" y2="71.50329" stroke="green" stroke-width="0.04000"/>
    <line x1="96.20829" y1="61.50000" x2="93.25455" y2="71.16125" stroke="green" stroke-width="0.04000"/>
    <line x1="96.10373" y1="61.50000" x2="93.25455" y2="70.81923" stroke="green" stroke-width="0.04000"/>
    <line x1="95.99915" y1="61.50000" x2="93.25455" y2="70.47718" stroke="green" stroke-width="0.04000"/>
    <line x1="95.89458" y1="61.50000" x2="93.25455" y2="70.13516" stroke="green" stroke-width="0.04000"/>
    <line x1="95.79002" y1="61.50000" x2="93.25455" y2="69.79312" stroke="green" stroke-width="0.04000"/>
    <line x1="95.68545" y1="61.50000" x2="93.25455" y2="69.45110" stroke="green" stroke-width="0.04000"/>
    <line x1="95.58088" y1="61.50000" x2="93.25455" y2="69.10906" stroke="green" stroke-width="0.04000"/>
    <line x1="95.47631" y1="61.50000" x2="93.25455" y2="68.76704" stroke="green" stroke-width="0.04000"/>
    <line x1="95.37173" y1="61.50000" x2="93.25455" y2="68.42500" stroke="green" stroke-width="0.04000"/>
    <line x1="95.26717" y1="61.50000" x2="93.25455" y2="68.08298" stroke="green" stroke-width="0.04000"/>
    <line x1="95.16260" y1="61.50000" x2="93.25455" y2="67.74094" stroke="green" stroke-width="0.04000"/>
    <line x1="95.05804" y1="61.50000" x2="93.25455" y2="67.39892" stroke="green" stroke-width="0.04000"/>
    <line x1="94.95347" y1="61.50000" x2="93.25455" y2="67.05688" stroke="green" stroke-width="0.04000"/>
    <line x1="94.84889" y1="61.50000" x2="93.25455" y2="66.71486" stroke="green" stroke-width="0.04000"/>
    <line x1="94.74432" y1="61.50000" x2="93.25455" y2="66.37283" stroke="green" stroke-width="0.04000"/>
    <line x1="94.63976" y1="61.50000" x2="93.25455" y2="66.03079" stroke="green" stroke-width="0.04000"/>
    <line x1="94.53519" y1="61.50000" x2="93.25455" y2="65.68877" stroke="green" stroke-width="0.04000"/>
    <line x1="94.43062" y1="61.50000" x2="93.25455" y2="65.34673" stroke="green" stroke-width="0.04000"/>
    <line x1="94.32605" y1="61.50000" x2="93.25455" y2="65.00471" stroke="green" stroke-width="0.04000"/>
    <line x1="94.22148" y1="61.50000" x2="93.25455" y2="64.66267" stroke="green" stroke-width="0.04000"/>
    <line x1="94.11691" y1="61.50000" x2="93.25455" y2="64.32065" stroke="green" stroke-width="0.04000"/>
    <line x1="94.01234" y1="61.50000" x2="93.25455" y2="63.97861" stroke="green" stroke-width="0.04000"/>
    <line x1="93.90778" y1="61.50000" x2="93.25455" y2="63.63659" stroke="green" stroke-width="0.04000"/>
    <line x1="93.80320" y1="61.50000" x2="93.25455" y2="63.29454" stroke="green" stroke-width="0.04000"/>
    <line x1="93.69864" y1="61.50000" x2="93.25455" y2="62.95253" stroke="green" stroke-width="0.04000"/>
    <line x1="93.59406" y1="61.50000" x2="93.25455" y2="62.61048" stroke="green" stroke-width="0.04000"/>
    <line x1="93.48949" y1="61.50000" x2="93.25455" y2="62.26846" stroke="green" stroke-width="0.04000"/>
    <line x1="93.38493" y1="61.50000" x2="93.25455" y2="61.92642" stroke="green" stroke-width="0.04000"/>
    <line x1="93.28036" y1="61.50000" x2="93.25455" y2="61.58440" stroke="green" stroke-width="0.04000"/>
    <path d="M 66.7455 98.5 L 62.3759 98.5 L 62.3759 96.5 L 55.4189 96.5 L 55.4189 61.5 L 66.7455 61.5 L 66.7455 98.5" fill="none" stroke="blue" stroke-width="0.04000" fill-rule="evenodd" fill-opacity="1.000"/>
    <path d="M 104.581 96.5 L 97.6241 96.5 L 97.6241 98.5 L 93.2546 98.5 L 93.2546 61.5 L 104.581 61.5 L 104.581 96.5" fill="none" stroke="blue" stroke-width="0.04000" fill-rule="evenodd" fill-opacity="1.000"/>
  </g>
</svg>
