<?xml version="1.0" encoding="UTF-8" standalone="yes"?>
<svg xmlns="http://www.w3.org/2000/svg"
     xmlns:xlink="http://www.w3.org/1999/xlink"
     width="2020.0000mm" height="1600.0000mm"
     viewBox="0 0 202.000000 160.000000">
  <!--
    Build plate : 150.00 x 150.00 mm
    Coordinate  : 1 SVG unit = 1 mm
    Display zoom: 10x  (width/height = viewBox x 10)
    Hatch stroke: 0.04 mm = ~28 mm on screen at this zoom
    Legend panel: right margin (42 mm wide)
  -->
  <defs>
    <marker id="endArrow" markerWidth="2" markerHeight="1.4"
            refX="0" refY="0.7" orient="auto"
            markerUnits="strokeWidth">
      <polyline fill="darkblue" points="0,0 2,0.7 0,1.4 0.2,0.7"/>
    </marker>
  </defs>
  <!-- Background -->
  <rect x="0" y="0" width="202.000000" height="160.000000" fill="#f0f0f0" stroke="none"/>
  <!-- Build plate boundary (150 x 150 mm) -->
  <rect x="5.000000" y="5.000000" width="150.000000" height="150.000000"
        fill="#ffffff" stroke="#aaaaaa" stroke-width="0.2" stroke-dasharray="1,0.5"/>
  <!-- Build plate centre circle (r = 75.00 mm) -->
  <circle cx="80.000000" cy="80.000000" r="75.000000"
          fill="none" stroke="#bbbbbb" stroke-width="0.15" stroke-dasharray="0.8,0.4"/>
  <!-- Centre cross-hair -->
  <line x1="5.000000" y1="80.000000" x2="155.000000" y2="80.000000" stroke="#cccccc" stroke-width="0.1"/>
  <line x1="80.000000" y1="5.000000" x2="80.000000" y2="155.000000" stroke="#cccccc" stroke-width="0.1"/>
  <circle cx="80.000000" cy="80.000000" r="0.3" fill="#cccccc" stroke="none"/>
  <!-- Corner labels -->
  <text x="5.400000" y="4.600000" font-family="sans-serif" font-size="2" fill="#888888">0,0</text>
  <text x="154.600006" y="4.600000" font-family="sans-serif" font-size="2" fill="#888888" text-anchor="end">150,0</text>
  <text x="5.400000" y="157.199997" font-family="sans-serif" font-size="2" fill="#888888">0,150</text>
  <!-- Layer geometry -->
  <g id="geometry">
    <line x1="73.31870" y1="96.50000" x2="86.80511" y2="89.92223" stroke="green" stroke-width="0.04000"/>
    <line x1="73.54681" y1="96.50000" x2="86.80511" y2="90.03349" stroke="green" stroke-width="0.04000"/>
    <line x1="73.77492" y1="96.50000" x2="86.80511" y2="90.14475" stroke="green" stroke-width="0.04000"/>
    <line x1="74.00304" y1="96.50000" x2="86.80511" y2="90.25601" stroke="green" stroke-width="0.04000"/>
    <line x1="74.23116" y1="96.50000" x2="86.80511" y2="90.36727" stroke="green" stroke-width="0.04000"/>
    <line x1="74.45927" y1="96.50000" x2="86.80511" y2="90.47853" stroke="green" stroke-width="0.04000"/>
    <line x1="74.68739" y1="96.50000" x2="86.80511" y2="90.58980" stroke="green" stroke-width="0.04000"/>
    <line x1="74.91550" y1="96.50000" x2="86.80511" y2="90.70106" stroke="green" stroke-width="0.04000"/>
    <line x1="75.14362" y1="96.50000" x2="86.80511" y2="90.81231" stroke="green" stroke-width="0.04000"/>
    <line x1="75.37174" y1="96.50000" x2="86.80511" y2="90.92358" stroke="green" stroke-width="0.04000"/>
    <line x1="75.59986" y1="96.50000" x2="86.80511" y2="91.03484" stroke="green" stroke-width="0.04000"/>
    <line x1="75.82797" y1="96.50000" x2="86.80511" y2="91.14610" stroke="green" stroke-width="0.04000"/>
    <line x1="76.05610" y1="96.50000" x2="86.80511" y2="91.25735" stroke="green" stroke-width="0.04000"/>
    <line x1="76.28421" y1="96.50000" x2="86.80511" y2="91.36861" stroke="green" stroke-width="0.04000"/>
    <line x1="76.51233" y1="96.50000" x2="86.80511" y2="91.47987" stroke="green" stroke-width="0.04000"/>
    <line x1="76.74045" y1="96.50000" x2="86.80511" y2="91.59114" stroke="green" stroke-width="0.04000"/>
    <line x1="76.96856" y1="96.50000" x2="86.80511" y2="91.70239" stroke="green" stroke-width="0.04000"/>
    <line x1="77.19668" y1="96.50000" x2="86.80511" y2="91.81366" stroke="green" stroke-width="0.04000"/>
    <line x1="77.42480" y1="96.50000" x2="86.80511" y2="91.92492" stroke="green" stroke-width="0.04000"/>
    <line x1="77.65291" y1="96.50000" x2="86.80511" y2="92.03618" stroke="green" stroke-width="0.04000"/>
    <line x1="77.88103" y1="96.50000" x2="86.80511" y2="92.14744" stroke="green" stroke-width="0.04000"/>
    <line x1="78.10915" y1="96.50000" x2="86.80511" y2="92.25870" stroke="green" stroke-width="0.04000"/>
    <line x1="78.33727" y1="96.50000" x2="86.80511" y2="92.36996" stroke="green" stroke-width="0.04000"/>
    <line x1="78.56538" y1="96.50000" x2="86.80511" y2="92.48122" stroke="green" stroke-width="0.04000"/>
    <line x1="78.79350" y1="96.50000" x2="86.80511" y2="92.59248" stroke="green" stroke-width="0.04000"/>
    <line x1="79.02161" y1="96.50000" x2="86.80511" y2="92.70374" stroke="green" stroke-width="0.04000"/>
    <line x1="79.24973" y1="96.50000" x2="86.80511" y2="92.81499" stroke="green" stroke-width="0.04000"/>
    <line x1="79.47785" y1="96.50000" x2="86.80511" y2="92.92626" stroke="green" stroke-width="0.04000"/>
    <line x1="79.70597" y1="96.50000" x2="86.80511" y2="93.03752" stroke="green" stroke-width="0.04000"/>
    <line x1="79.93408" y1="96.50000" x2="86.80511" y2="93.14877" stroke="green" stroke-width="0.04000"/>
    <line x1="80.16220" y1="96.50000" x2="86.80511" y2="93.26004" stroke="green" stroke-width="0.04000"/>
    <line x1="80.39032" y1="96.50000" x2="86.80511" y2="93.37130" stroke="green" stroke-width="0.04000"/>
    <line x1="80.61844" y1="96.50000" x2="86.80511" y2="93.48256" stroke="green" stroke-width="0.04000"/>
    <line x1="80.84656" y1="96.50000" x2="86.80511" y2="93.59382" stroke="green" stroke-width="0.04000"/>
    <line x1="81.07467" y1="96.50000" x2="86.80511" y2="93.70508" stroke="green" stroke-width="0.04000"/>
    <line x1="81.30279" y1="96.50000" x2="86.80511" y2="93.81634" stroke="green" stroke-width="0.04000"/>
    <line x1="81.53091" y1="96.50000" x2="86.80511" y2="93.92760" stroke="green" stroke-width="0.04000"/>
    <line x1="81.75902" y1="96.50000" x2="86.80511" y2="94.03886" stroke="green" stroke-width="0.04000"/>
    <line x1="81.98714" y1="96.50000" x2="86.80511" y2="94.15012" stroke="green" stroke-width="0.04000"/>
    <line x1="82.21526" y1="96.50000" x2="86.80511" y2="94.26138" stroke="green" stroke-width="0.04000"/>
    <line x1="82.44337" y1="96.50000" x2="86.80511" y2="94.37264" stroke="green" stroke-width="0.04000"/>
    <line x1="82.67149" y1="96.50000" x2="86.80511" y2="94.48389" stroke="green" stroke-width="0.04000"/>
    <line x1="82.89961" y1="96.50000" x2="86.80511" y2="94.59516" stroke="green" stroke-width="0.04000"/>
    <line x1="83.12772" y1="96.50000" x2="86.80511" y2="94.70642" stroke="green" stroke-width="0.04000"/>
    <line x1="83.35584" y1="96.50000" x2="86.80511" y2="94.81768" stroke="green" stroke-width="0.04000"/>
    <line x1="83.58396" y1="96.50000" x2="86.80511" y2="94.92894" stroke="green" stroke-width="0.04000"/>
    <line x1="83.81207" y1="96.50000" x2="86.80511" y2="95.04020" stroke="green" stroke-width="0.04000"/>
    <line x1="84.04019" y1="96.50000" x2="86.80511" y2="95.15146" stroke="green" stroke-width="0.04000"/>
    <line x1="84.26831" y1="96.50000" x2="86.80511" y2="95.26272" stroke="green" stroke-width="0.04000"/>
    <line x1="84.49644" y1="96.50000" x2="86.80511" y2="95.37399" stroke="green" stroke-width="0.04000"/>
    <line x1="84.72455" y1="96.50000" x2="86.80511" y2="95.48524" stroke="green" stroke-width="0.04000"/>
    <line x1="84.95266" y1="96.50000" x2="86.80511" y2="95.59650" stroke="green" stroke-width="0.04000"/>
    <line x1="85.18079" y1="96.50000" x2="86.80511" y2="95.70776" stroke="green" stroke-width="0.04000"/>
    <line x1="85.40890" y1="96.50000" x2="86.80511" y2="95.81902" stroke="green" stroke-width="0.04000"/>
    <line x1="85.63702" y1="96.50000" x2="86.80511" y2="95.93028" stroke="green" stroke-width="0.04000"/>
    <line x1="85.86514" y1="96.50000" x2="86.80511" y2="96.04155" stroke="green" stroke-width="0.04000"/>
    <line x1="86.09325" y1="96.50000" x2="86.80511" y2="96.15280" stroke="green" stroke-width="0.04000"/>
    <line x1="86.32137" y1="96.50000" x2="86.80511" y2="96.26406" stroke="green" stroke-width="0.04000"/>
    <line x1="86.54948" y1="96.50000" x2="86.80511" y2="96.37533" stroke="green" stroke-width="0.04000"/>
    <line x1="86.77760" y1="96.50000" x2="86.80511" y2="96.48659" stroke="green" stroke-width="0.04000"/>
    <line x1="73.19490" y1="96.44911" x2="86.80511" y2="89.81097" stroke="green" stroke-width="0.04000"/>
    <line x1="73.19490" y1="96.33785" x2="86.80511" y2="89.69971" stroke="green" stroke-width="0.04000"/>
    <line x1="73.19490" y1="96.22659" x2="86.80511" y2="89.58845" stroke="green" stroke-width="0.04000"/>
    <line x1="73.19490" y1="96.11533" x2="86.80511" y2="89.47719" stroke="green" stroke-width="0.04000"/>
    <line x1="73.19490" y1="96.00407" x2="86.80511" y2="89.36593" stroke="green" stroke-width="0.04000"/>
    <line x1="73.19490" y1="95.89281" x2="86.80511" y2="89.25467" stroke="green" stroke-width="0.04000"/>
    <line x1="73.19490" y1="95.78156" x2="86.80511" y2="89.14341" stroke="green" stroke-width="0.04000"/>
    <line x1="73.19490" y1="95.67029" x2="86.80511" y2="89.03215" stroke="green" stroke-width="0.04000"/>
    <line x1="73.19490" y1="95.55903" x2="86.80511" y2="88.92089" stroke="green" stroke-width="0.04000"/>
    <line x1="73.19490" y1="95.44778" x2="86.80511" y2="88.80963" stroke="green" stroke-width="0.04000"/>
    <line x1="73.19490" y1="95.33651" x2="86.80511" y2="88.69837" stroke="green" stroke-width="0.04000"/>
    <line x1="73.19490" y1="95.22525" x2="86.80511" y2="88.58711" stroke="green" stroke-width="0.04000"/>
    <line x1="73.19490" y1="95.11399" x2="86.80511" y2="88.47585" stroke="green" stroke-width="0.04000"/>
    <line x1="73.19490" y1="95.00273" x2="86.80511" y2="88.36459" stroke="green" stroke-width="0.04000"/>
    <line x1="73.19490" y1="94.89147" x2="86.80511" y2="88.25333" stroke="green" stroke-width="0.04000"/>
    <line x1="73.19490" y1="94.78021" x2="86.80511" y2="88.14207" stroke="green" stroke-width="0.04000"/>
    <line x1="73.19490" y1="94.66895" x2="86.80511" y2="88.03081" stroke="green" stroke-width="0.04000"/>
    <line x1="73.19490" y1="94.55769" x2="86.80511" y2="87.91955" stroke="green" stroke-width="0.04000"/>
    <line x1="73.19490" y1="94.44643" x2="86.80511" y2="87.80829" stroke="green" stroke-width="0.04000"/>
    <line x1="73.19490" y1="94.33517" x2="86.80511" y2="87.69703" stroke="green" stroke-width="0.04000"/>
    <line x1="73.19490" y1="94.22391" x2="86.80511" y2="87.58577" stroke="green" stroke-width="0.04000"/>
    <line x1="73.19490" y1="94.11265" x2="86.80511" y2="87.47451" stroke="green" stroke-width="0.04000"/>
    <line x1="73.19490" y1="94.00139" x2="86.80511" y2="87.36325" stroke="green" stroke-width="0.04000"/>
    <line x1="73.19490" y1="93.89013" x2="86.80511" y2="87.25199" stroke="green" stroke-width="0.04000"/>
    <line x1="73.19490" y1="93.77887" x2="86.80511" y2="87.14073" stroke="green" stroke-width="0.04000"/>
    <line x1="73.19490" y1="93.66761" x2="86.80511" y2="87.02946" stroke="green" stroke-width="0.04000"/>
    <line x1="73.19490" y1="93.55635" x2="86.80511" y2="86.91821" stroke="green" stroke-width="0.04000"/>
    <line x1="73.19490" y1="93.44509" x2="86.80511" y2="86.80695" stroke="green" stroke-width="0.04000"/>
    <line x1="73.19490" y1="93.33383" x2="86.80511" y2="86.69569" stroke="green" stroke-width="0.04000"/>
    <line x1="73.19490" y1="93.22256" x2="86.80511" y2="86.58443" stroke="green" stroke-width="0.04000"/>
    <line x1="73.19490" y1="93.11131" x2="86.80511" y2="86.47317" stroke="green" stroke-width="0.04000"/>
    <line x1="73.19490" y1="93.00005" x2="86.80511" y2="86.36191" stroke="green" stroke-width="0.04000"/>
    <line x1="73.19490" y1="92.88879" x2="86.80511" y2="86.25065" stroke="green" stroke-width="0.04000"/>
    <line x1="73.19490" y1="92.77753" x2="86.80511" y2="86.13939" stroke="green" stroke-width="0.04000"/>
    <line x1="73.19490" y1="92.66627" x2="86.80511" y2="86.02812" stroke="green" stroke-width="0.04000"/>
    <line x1="73.19490" y1="92.55501" x2="86.80511" y2="85.91686" stroke="green" stroke-width="0.04000"/>
    <line x1="73.19490" y1="92.44375" x2="86.80511" y2="85.80561" stroke="green" stroke-width="0.04000"/>
    <line x1="73.19490" y1="92.33249" x2="86.80511" y2="85.69434" stroke="green" stroke-width="0.04000"/>
    <line x1="73.19490" y1="92.22123" x2="86.80511" y2="85.58308" stroke="green" stroke-width="0.04000"/>
    <line x1="73.19490" y1="92.10997" x2="86.80511" y2="85.47182" stroke="green" stroke-width="0.04000"/>
    <line x1="73.19490" y1="91.99870" x2="86.80511" y2="85.36057" stroke="green" stroke-width="0.04000"/>
    <line x1="73.19490" y1="91.88744" x2="86.80511" y2="85.24931" stroke="green" stroke-width="0.04000"/>
    <line x1="73.19490" y1="91.77619" x2="86.80511" y2="85.13805" stroke="green" stroke-width="0.04000"/>
    <line x1="73.19490" y1="91.66492" x2="86.80511" y2="85.02679" stroke="green" stroke-width="0.04000"/>
    <line x1="73.19490" y1="91.55367" x2="86.80511" y2="84.91553" stroke="green" stroke-width="0.04000"/>
    <line x1="73.19490" y1="91.44241" x2="86.80511" y2="84.80427" stroke="green" stroke-width="0.04000"/>
    <line x1="73.19490" y1="91.33115" x2="86.80511" y2="84.69300" stroke="green" stroke-width="0.04000"/>
    <line x1="73.19490" y1="91.21989" x2="86.80511" y2="84.58174" stroke="green" stroke-width="0.04000"/>
    <line x1="73.19490" y1="91.10863" x2="86.80511" y2="84.47049" stroke="green" stroke-width="0.04000"/>
    <line x1="73.19490" y1="90.99736" x2="86.80511" y2="84.35922" stroke="green" stroke-width="0.04000"/>
    <line x1="73.19490" y1="90.88611" x2="86.80511" y2="84.24796" stroke="green" stroke-width="0.04000"/>
    <line x1="73.19490" y1="90.77485" x2="86.80511" y2="84.13670" stroke="green" stroke-width="0.04000"/>
    <line x1="73.19490" y1="90.66358" x2="86.80511" y2="84.02544" stroke="green" stroke-width="0.04000"/>
    <line x1="73.19490" y1="90.55232" x2="86.80511" y2="83.91418" stroke="green" stroke-width="0.04000"/>
    <line x1="73.19490" y1="90.44106" x2="86.80511" y2="83.80293" stroke="green" stroke-width="0.04000"/>
    <line x1="73.19490" y1="90.32980" x2="86.80511" y2="83.69167" stroke="green" stroke-width="0.04000"/>
    <line x1="73.19490" y1="90.21854" x2="86.80511" y2="83.58040" stroke="green" stroke-width="0.04000"/>
    <line x1="73.19490" y1="90.10728" x2="86.80511" y2="83.46914" stroke="green" stroke-width="0.04000"/>
    <line x1="73.19490" y1="89.99603" x2="86.80511" y2="83.35788" stroke="green" stroke-width="0.04000"/>
    <line x1="73.19490" y1="89.88477" x2="86.80511" y2="83.24662" stroke="green" stroke-width="0.04000"/>
    <line x1="73.19490" y1="89.77350" x2="86.80511" y2="83.13536" stroke="green" stroke-width="0.04000"/>
    <line x1="73.19490" y1="89.66225" x2="86.80511" y2="83.02410" stroke="green" stroke-width="0.04000"/>
    <line x1="73.19490" y1="89.55098" x2="86.80511" y2="82.91284" stroke="green" stroke-width="0.04000"/>
    <line x1="73.19490" y1="89.43972" x2="86.80511" y2="82.80158" stroke="green" stroke-width="0.04000"/>
    <line x1="73.19490" y1="89.32846" x2="86.80511" y2="82.69032" stroke="green" stroke-width="0.04000"/>
    <line x1="73.19490" y1="89.21720" x2="86.80511" y2="82.57906" stroke="green" stroke-width="0.04000"/>
    <line x1="73.19490" y1="89.10594" x2="86.80511" y2="82.46780" stroke="green" stroke-width="0.04000"/>
    <line x1="73.19490" y1="88.99468" x2="86.80511" y2="82.35654" stroke="green" stroke-width="0.04000"/>
    <line x1="73.19490" y1="88.88342" x2="86.80511" y2="82.24528" stroke="green" stroke-width="0.04000"/>
    <line x1="73.19490" y1="88.77216" x2="86.80511" y2="82.13402" stroke="green" stroke-width="0.04000"/>
    <line x1="73.19490" y1="88.66090" x2="86.80511" y2="82.02276" stroke="green" stroke-width="0.04000"/>
    <line x1="73.19490" y1="88.54964" x2="86.80511" y2="81.91150" stroke="green" stroke-width="0.04000"/>
    <line x1="73.19490" y1="88.43838" x2="86.80511" y2="81.80024" stroke="green" stroke-width="0.04000"/>
    <line x1="73.19490" y1="88.32712" x2="86.80511" y2="81.68898" stroke="green" stroke-width="0.04000"/>
    <line x1="73.19490" y1="88.21586" x2="86.80511" y2="81.57772" stroke="green" stroke-width="0.04000"/>
    <line x1="73.19490" y1="88.10460" x2="86.80511" y2="81.46645" stroke="green" stroke-width="0.04000"/>
    <line x1="73.19490" y1="87.99334" x2="86.80511" y2="81.35520" stroke="green" stroke-width="0.04000"/>
    <line x1="73.19490" y1="87.88208" x2="86.80511" y2="81.24394" stroke="green" stroke-width="0.04000"/>
    <line x1="73.19490" y1="87.77082" x2="86.80511" y2="81.13268" stroke="green" stroke-width="0.04000"/>
    <line x1="73.19490" y1="87.65956" x2="86.80511" y2="81.02142" stroke="green" stroke-width="0.04000"/>
    <line x1="73.19490" y1="87.54830" x2="86.80511" y2="80.91016" stroke="green" stroke-width="0.04000"/>
    <line x1="73.19490" y1="87.43703" x2="86.80511" y2="80.79890" stroke="green" stroke-width="0.04000"/>
    <line x1="73.19490" y1="87.32578" x2="86.80511" y2="80.68764" stroke="green" stroke-width="0.04000"/>
    <line x1="73.19490" y1="87.21452" x2="86.80511" y2="80.57638" stroke="green" stroke-width="0.04000"/>
    <line x1="73.19490" y1="87.10326" x2="86.80511" y2="80.46512" stroke="green" stroke-width="0.04000"/>
    <line x1="73.19490" y1="86.99200" x2="86.80511" y2="80.35386" stroke="green" stroke-width="0.04000"/>
    <line x1="73.19490" y1="86.88074" x2="86.80511" y2="80.24260" stroke="green" stroke-width="0.04000"/>
    <line x1="73.19490" y1="86.76948" x2="86.80511" y2="80.13133" stroke="green" stroke-width="0.04000"/>
    <line x1="73.19490" y1="86.65822" x2="86.80511" y2="80.02008" stroke="green" stroke-width="0.04000"/>
    <line x1="73.19490" y1="86.54696" x2="86.80511" y2="79.90881" stroke="green" stroke-width="0.04000"/>
    <line x1="73.19490" y1="86.43569" x2="86.80511" y2="79.79755" stroke="green" stroke-width="0.04000"/>
    <line x1="73.19490" y1="86.32444" x2="86.80511" y2="79.68629" stroke="green" stroke-width="0.04000"/>
    <line x1="73.19490" y1="86.21318" x2="86.80511" y2="79.57504" stroke="green" stroke-width="0.04000"/>
    <line x1="73.19490" y1="86.10191" x2="86.80511" y2="79.46378" stroke="green" stroke-width="0.04000"/>
    <line x1="73.19490" y1="85.99066" x2="86.80511" y2="79.35252" stroke="green" stroke-width="0.04000"/>
    <line x1="73.19490" y1="85.87939" x2="86.80511" y2="79.24126" stroke="green" stroke-width="0.04000"/>
    <line x1="73.19490" y1="85.76814" x2="86.80511" y2="79.12999" stroke="green" stroke-width="0.04000"/>
    <line x1="73.19490" y1="85.65688" x2="86.80511" y2="79.01874" stroke="green" stroke-width="0.04000"/>
    <line x1="73.19490" y1="85.54562" x2="86.80511" y2="78.90747" stroke="green" stroke-width="0.04000"/>
    <line x1="73.19490" y1="85.43436" x2="86.80511" y2="78.79621" stroke="green" stroke-width="0.04000"/>
    <line x1="73.19490" y1="85.32310" x2="86.80511" y2="78.68495" stroke="green" stroke-width="0.04000"/>
    <line x1="73.19490" y1="85.21184" x2="86.80511" y2="78.57369" stroke="green" stroke-width="0.04000"/>
    <line x1="73.19490" y1="85.10057" x2="86.80511" y2="78.46243" stroke="green" stroke-width="0.04000"/>
    <line x1="73.19490" y1="84.98931" x2="86.80511" y2="78.35117" stroke="green" stroke-width="0.04000"/>
    <line x1="73.19490" y1="84.87805" x2="86.80511" y2="78.23991" stroke="green" stroke-width="0.04000"/>
    <line x1="73.19490" y1="84.76679" x2="86.80511" y2="78.12865" stroke="green" stroke-width="0.04000"/>
    <line x1="73.19490" y1="84.65553" x2="86.80511" y2="78.01739" stroke="green" stroke-width="0.04000"/>
    <line x1="73.19490" y1="84.54427" x2="86.80511" y2="77.90613" stroke="green" stroke-width="0.04000"/>
    <line x1="73.19490" y1="84.43301" x2="86.80511" y2="77.79487" stroke="green" stroke-width="0.04000"/>
    <line x1="73.19490" y1="84.32175" x2="86.80511" y2="77.68361" stroke="green" stroke-width="0.04000"/>
    <line x1="73.19490" y1="84.21049" x2="86.80511" y2="77.57235" stroke="green" stroke-width="0.04000"/>
    <line x1="73.19490" y1="84.09924" x2="86.80511" y2="77.46109" stroke="green" stroke-width="0.04000"/>
    <line x1="73.19490" y1="83.98797" x2="86.80511" y2="77.34983" stroke="green" stroke-width="0.04000"/>
    <line x1="73.19490" y1="83.87672" x2="86.80511" y2="77.23857" stroke="green" stroke-width="0.04000"/>
    <line x1="73.19490" y1="83.76545" x2="86.80511" y2="77.12731" stroke="green" stroke-width="0.04000"/>
    <line x1="73.19490" y1="83.65419" x2="86.80511" y2="77.01604" stroke="green" stroke-width="0.04000"/>
    <line x1="73.19490" y1="83.54293" x2="86.80511" y2="76.90479" stroke="green" stroke-width="0.04000"/>
    <line x1="73.19490" y1="83.43167" x2="86.80511" y2="76.79353" stroke="green" stroke-width="0.04000"/>
    <line x1="73.19490" y1="83.32041" x2="86.80511" y2="76.68227" stroke="green" stroke-width="0.04000"/>
    <line x1="73.19490" y1="83.20915" x2="86.80511" y2="76.57101" stroke="green" stroke-width="0.04000"/>
    <line x1="73.19490" y1="83.09789" x2="86.80511" y2="76.45975" stroke="green" stroke-width="0.04000"/>
    <line x1="73.19490" y1="82.98663" x2="86.80511" y2="76.34849" stroke="green" stroke-width="0.04000"/>
    <line x1="73.19490" y1="82.87537" x2="86.80511" y2="76.23723" stroke="green" stroke-width="0.04000"/>
    <line x1="73.19490" y1="82.76411" x2="86.80511" y2="76.12597" stroke="green" stroke-width="0.04000"/>
    <line x1="73.19490" y1="82.65285" x2="86.80511" y2="76.01471" stroke="green" stroke-width="0.04000"/>
    <line x1="73.19490" y1="82.54160" x2="86.80511" y2="75.90345" stroke="green" stroke-width="0.04000"/>
    <line x1="73.19490" y1="82.43033" x2="86.80511" y2="75.79219" stroke="green" stroke-width="0.04000"/>
    <line x1="73.19490" y1="82.31907" x2="86.80511" y2="75.68092" stroke="green" stroke-width="0.04000"/>
    <line x1="73.19490" y1="82.20781" x2="86.80511" y2="75.56967" stroke="green" stroke-width="0.04000"/>
    <line x1="73.19490" y1="82.09655" x2="86.80511" y2="75.45840" stroke="green" stroke-width="0.04000"/>
    <line x1="73.19490" y1="81.98529" x2="86.80511" y2="75.34715" stroke="green" stroke-width="0.04000"/>
    <line x1="73.19490" y1="81.87403" x2="86.80511" y2="75.23589" stroke="green" stroke-width="0.04000"/>
    <line x1="73.19490" y1="81.76277" x2="86.80511" y2="75.12463" stroke="green" stroke-width="0.04000"/>
    <line x1="73.19490" y1="81.65150" x2="86.80511" y2="75.01337" stroke="green" stroke-width="0.04000"/>
    <line x1="73.19490" y1="81.54025" x2="86.80511" y2="74.90211" stroke="green" stroke-width="0.04000"/>
    <line x1="73.19490" y1="81.42899" x2="86.80511" y2="74.79085" stroke="green" stroke-width="0.04000"/>
    <line x1="73.19490" y1="81.31773" x2="86.80511" y2="74.67959" stroke="green" stroke-width="0.04000"/>
    <line x1="73.19490" y1="81.20647" x2="86.80511" y2="74.56833" stroke="green" stroke-width="0.04000"/>
    <line x1="73.19490" y1="81.09521" x2="86.80511" y2="74.45707" stroke="green" stroke-width="0.04000"/>
    <line x1="73.19490" y1="80.98395" x2="86.80511" y2="74.34580" stroke="green" stroke-width="0.04000"/>
    <line x1="73.19490" y1="80.87269" x2="86.80511" y2="74.23455" stroke="green" stroke-width="0.04000"/>
    <line x1="73.19490" y1="80.76143" x2="86.80511" y2="74.12328" stroke="green" stroke-width="0.04000"/>
    <line x1="73.19490" y1="80.65017" x2="86.80511" y2="74.01202" stroke="green" stroke-width="0.04000"/>
    <line x1="73.19490" y1="80.53891" x2="86.80511" y2="73.90076" stroke="green" stroke-width="0.04000"/>
    <line x1="73.19490" y1="80.42764" x2="86.80511" y2="73.78951" stroke="green" stroke-width="0.04000"/>
    <line x1="73.19490" y1="80.31638" x2="86.80511" y2="73.67825" stroke="green" stroke-width="0.04000"/>
    <line x1="73.19490" y1="80.20513" x2="86.80511" y2="73.56699" stroke="green" stroke-width="0.04000"/>
    <line x1="73.19490" y1="80.09386" x2="86.80511" y2="73.45573" stroke="green" stroke-width="0.04000"/>
    <line x1="73.19490" y1="79.98260" x2="86.80511" y2="73.34447" stroke="green" stroke-width="0.04000"/>
    <line x1="73.19490" y1="79.87135" x2="86.80511" y2="73.23321" stroke="green" stroke-width="0.04000"/>
    <line x1="73.19490" y1="79.76009" x2="86.80511" y2="73.12194" stroke="green" stroke-width="0.04000"/>
    <line x1="73.19490" y1="79.64883" x2="86.80511" y2="73.01068" stroke="green" stroke-width="0.04000"/>
    <line x1="73.19490" y1="79.53757" x2="86.80511" y2="72.89943" stroke="green" stroke-width="0.04000"/>
    <line x1="73.19490" y1="79.42631" x2="86.80511" y2="72.78816" stroke="green" stroke-width="0.04000"/>
    <line x1="73.19490" y1="79.31504" x2="86.80511" y2="72.67690" stroke="green" stroke-width="0.04000"/>
    <line x1="73.19490" y1="79.20378" x2="86.80511" y2="72.56564" stroke="green" stroke-width="0.04000"/>
    <line x1="73.19490" y1="79.09252" x2="86.80511" y2="72.45438" stroke="green" stroke-width="0.04000"/>
    <line x1="73.19490" y1="78.98126" x2="86.80511" y2="72.34312" stroke="green" stroke-width="0.04000"/>
    <line x1="73.19490" y1="78.87000" x2="86.80511" y2="72.23186" stroke="green" stroke-width="0.04000"/>
    <line x1="73.19490" y1="78.75874" x2="86.80511" y2="72.12060" stroke="green" stroke-width="0.04000"/>
    <line x1="73.19490" y1="78.64748" x2="86.80511" y2="72.00934" stroke="green" stroke-width="0.04000"/>
    <line x1="73.19490" y1="78.53622" x2="86.80511" y2="71.89808" stroke="green" stroke-width="0.04000"/>
    <line x1="73.19490" y1="78.42496" x2="86.80511" y2="71.78682" stroke="green" stroke-width="0.04000"/>
    <line x1="73.19490" y1="78.31371" x2="86.80511" y2="71.67556" stroke="green" stroke-width="0.04000"/>
    <line x1="73.19490" y1="78.20244" x2="86.80511" y2="71.56430" stroke="green" stroke-width="0.04000"/>
    <line x1="73.19490" y1="78.09119" x2="86.80511" y2="71.45304" stroke="green" stroke-width="0.04000"/>
    <line x1="73.19490" y1="77.97992" x2="86.80511" y2="71.34178" stroke="green" stroke-width="0.04000"/>
    <line x1="73.19490" y1="77.86866" x2="86.80511" y2="71.23051" stroke="green" stroke-width="0.04000"/>
    <line x1="73.19490" y1="77.75740" x2="86.80511" y2="71.11926" stroke="green" stroke-width="0.04000"/>
    <line x1="73.19490" y1="77.64614" x2="86.80511" y2="71.00800" stroke="green" stroke-width="0.04000"/>
    <line x1="73.19490" y1="77.53488" x2="86.80511" y2="70.89674" stroke="green" stroke-width="0.04000"/>
    <line x1="73.19490" y1="77.42362" x2="86.80511" y2="70.78548" stroke="green" stroke-width="0.04000"/>
    <line x1="73.19490" y1="77.31236" x2="86.80511" y2="70.67422" stroke="green" stroke-width="0.04000"/>
    <line x1="73.19490" y1="77.20110" x2="86.80511" y2="70.56296" stroke="green" stroke-width="0.04000"/>
    <line x1="73.19490" y1="77.08984" x2="86.80511" y2="70.45170" stroke="green" stroke-width="0.04000"/>
    <line x1="73.19490" y1="76.97858" x2="86.80511" y2="70.34044" stroke="green" stroke-width="0.04000"/>
    <line x1="73.19490" y1="76.86732" x2="86.80511" y2="70.22918" stroke="green" stroke-width="0.04000"/>
    <line x1="73.19490" y1="76.75606" x2="86.80511" y2="70.11792" stroke="green" stroke-width="0.04000"/>
    <line x1="73.19490" y1="76.64480" x2="86.80511" y2="70.00666" stroke="green" stroke-width="0.04000"/>
    <line x1="73.19490" y1="76.53354" x2="86.80511" y2="69.89539" stroke="green" stroke-width="0.04000"/>
    <line x1="73.19490" y1="76.42228" x2="86.80511" y2="69.78414" stroke="green" stroke-width="0.04000"/>
    <line x1="73.19490" y1="76.31102" x2="86.80511" y2="69.67288" stroke="green" stroke-width="0.04000"/>
    <line x1="73.19490" y1="76.19976" x2="86.80511" y2="69.56161" stroke="green" stroke-width="0.04000"/>
    <line x1="73.19490" y1="76.08850" x2="86.80511" y2="69.45036" stroke="green" stroke-width="0.04000"/>
    <line x1="73.19490" y1="75.97724" x2="86.80511" y2="69.33910" stroke="green" stroke-width="0.04000"/>
    <line x1="73.19490" y1="75.86597" x2="86.80511" y2="69.22784" stroke="green" stroke-width="0.04000"/>
    <line x1="73.19490" y1="75.75472" x2="86.80511" y2="69.11658" stroke="green" stroke-width="0.04000"/>
    <line x1="73.19490" y1="75.64346" x2="86.80511" y2="69.00532" stroke="green" stroke-width="0.04000"/>
    <line x1="73.19490" y1="75.53220" x2="86.80511" y2="68.89406" stroke="green" stroke-width="0.04000"/>
    <line x1="73.19490" y1="75.42094" x2="86.80511" y2="68.78280" stroke="green" stroke-width="0.04000"/>
    <line x1="73.19490" y1="75.30968" x2="86.80511" y2="68.67154" stroke="green" stroke-width="0.04000"/>
    <line x1="73.19490" y1="75.19842" x2="86.80511" y2="68.56027" stroke="green" stroke-width="0.04000"/>
    <line x1="73.19490" y1="75.08716" x2="86.80511" y2="68.44902" stroke="green" stroke-width="0.04000"/>
    <line x1="73.19490" y1="74.97590" x2="86.80511" y2="68.33775" stroke="green" stroke-width="0.04000"/>
    <line x1="73.19490" y1="74.86463" x2="86.80511" y2="68.22649" stroke="green" stroke-width="0.04000"/>
    <line x1="73.19490" y1="74.75338" x2="86.80511" y2="68.11523" stroke="green" stroke-width="0.04000"/>
    <line x1="73.19490" y1="74.64212" x2="86.80511" y2="68.00397" stroke="green" stroke-width="0.04000"/>
    <line x1="73.19490" y1="74.53085" x2="86.80511" y2="67.89272" stroke="green" stroke-width="0.04000"/>
    <line x1="73.19490" y1="74.41960" x2="86.80511" y2="67.78146" stroke="green" stroke-width="0.04000"/>
    <line x1="73.19490" y1="74.30833" x2="86.80511" y2="67.67020" stroke="green" stroke-width="0.04000"/>
    <line x1="73.19490" y1="74.19707" x2="86.80511" y2="67.55893" stroke="green" stroke-width="0.04000"/>
    <line x1="73.19490" y1="74.08582" x2="86.80511" y2="67.44768" stroke="green" stroke-width="0.04000"/>
    <line x1="73.19490" y1="73.97456" x2="86.80511" y2="67.33641" stroke="green" stroke-width="0.04000"/>
    <line x1="73.19490" y1="73.86330" x2="86.80511" y2="67.22516" stroke="green" stroke-width="0.04000"/>
    <line x1="73.19490" y1="73.75204" x2="86.80511" y2="67.11389" stroke="green" stroke-width="0.04000"/>
    <line x1="73.19490" y1="73.64078" x2="86.80511" y2="67.00263" stroke="green" stroke-width="0.04000"/>
    <line x1="73.19490" y1="73.52951" x2="86.80511" y2="66.89137" stroke="green" stroke-width="0.04000"/>
    <line x1="73.19490" y1="73.41825" x2="86.80511" y2="66.78011" stroke="green" stroke-width="0.04000"/>
    <line x1="73.19490" y1="73.30699" x2="86.80511" y2="66.66885" stroke="green" stroke-width="0.04000"/>
    <line x1="73.19490" y1="73.19573" x2="86.80511" y2="66.55759" stroke="green" stroke-width="0.04000"/>
    <line x1="73.19490" y1="73.08447" x2="86.80511" y2="66.44633" stroke="green" stroke-width="0.04000"/>
    <line x1="73.19490" y1="72.97321" x2="86.80511" y2="66.33507" stroke="green" stroke-width="0.04000"/>
    <line x1="73.19490" y1="72.86195" x2="86.80511" y2="66.22381" stroke="green" stroke-width="0.04000"/>
    <line x1="73.19490" y1="72.75069" x2="86.80511" y2="66.11255" stroke="green" stroke-width="0.04000"/>
    <line x1="73.19490" y1="72.63943" x2="86.80511" y2="66.00129" stroke="green" stroke-width="0.04000"/>
    <line x1="73.19490" y1="72.52818" x2="86.80511" y2="65.89003" stroke="green" stroke-width="0.04000"/>
    <line x1="73.19490" y1="72.41691" x2="86.80511" y2="65.77876" stroke="green" stroke-width="0.04000"/>
    <line x1="73.19490" y1="72.30566" x2="86.80511" y2="65.66751" stroke="green" stroke-width="0.04000"/>
    <line x1="73.19490" y1="72.19439" x2="86.80511" y2="65.55625" stroke="green" stroke-width="0.04000"/>
    <line x1="73.19490" y1="72.08313" x2="86.80511" y2="65.44499" stroke="green" stroke-width="0.04000"/>
    <line x1="73.19490" y1="71.97187" x2="86.80511" y2="65.33373" stroke="green" stroke-width="0.04000"/>
    <line x1="73.19490" y1="71.86061" x2="86.80511" y2="65.22247" stroke="green" stroke-width="0.04000"/>
    <line x1="73.19490" y1="71.74935" x2="86.80511" y2="65.11121" stroke="green" stroke-width="0.04000"/>
    <line x1="73.19490" y1="71.63809" x2="86.80511" y2="64.99995" stroke="green" stroke-width="0.04000"/>
    <line x1="73.19490" y1="71.52683" x2="86.80511" y2="64.88869" stroke="green" stroke-width="0.04000"/>
    <line x1="73.19490" y1="71.41557" x2="86.80511" y2="64.77743" stroke="green" stroke-width="0.04000"/>
    <line x1="73.19490" y1="71.30431" x2="86.80511" y2="64.66617" stroke="green" stroke-width="0.04000"/>
    <line x1="73.19490" y1="71.19305" x2="86.80511" y2="64.55491" stroke="green" stroke-width="0.04000"/>
    <line x1="73.19490" y1="71.08179" x2="86.80511" y2="64.44365" stroke="green" stroke-width="0.04000"/>
    <line x1="73.19490" y1="70.97054" x2="86.80511" y2="64.33239" stroke="green" stroke-width="0.04000"/>
    <line x1="73.19490" y1="70.85927" x2="86.80511" y2="64.22113" stroke="green" stroke-width="0.04000"/>
    <line x1="73.19490" y1="70.74801" x2="86.80511" y2="64.10986" stroke="green" stroke-width="0.04000"/>
    <line x1="73.19490" y1="70.63675" x2="86.80511" y2="63.99861" stroke="green" stroke-width="0.04000"/>
    <line x1="73.19490" y1="70.52549" x2="86.80511" y2="63.88735" stroke="green" stroke-width="0.04000"/>
    <line x1="73.19490" y1="70.41422" x2="86.80511" y2="63.77608" stroke="green" stroke-width="0.04000"/>
    <line x1="73.19490" y1="70.30297" x2="86.80511" y2="63.66483" stroke="green" stroke-width="0.04000"/>
    <line x1="73.19490" y1="70.19171" x2="86.80511" y2="63.55357" stroke="green" stroke-width="0.04000"/>
    <line x1="73.19490" y1="70.08044" x2="86.80511" y2="63.44231" stroke="green" stroke-width="0.04000"/>
    <line x1="73.19490" y1="69.96919" x2="86.80511" y2="63.33105" stroke="green" stroke-width="0.04000"/>
    <line x1="73.19490" y1="69.85793" x2="86.80511" y2="63.21979" stroke="green" stroke-width="0.04000"/>
    <line x1="73.19490" y1="69.74667" x2="86.80511" y2="63.10852" stroke="green" stroke-width="0.04000"/>
    <line x1="73.19490" y1="69.63541" x2="86.80511" y2="62.99727" stroke="green" stroke-width="0.04000"/>
    <line x1="73.19490" y1="69.52415" x2="86.80511" y2="62.88601" stroke="green" stroke-width="0.04000"/>
    <line x1="73.19490" y1="69.41289" x2="86.80511" y2="62.77475" stroke="green" stroke-width="0.04000"/>
    <line x1="73.19490" y1="69.30163" x2="86.80511" y2="62.66349" stroke="green" stroke-width="0.04000"/>
    <line x1="73.19490" y1="69.19037" x2="86.80511" y2="62.55222" stroke="green" stroke-width="0.04000"/>
    <line x1="73.19490" y1="69.07911" x2="86.80511" y2="62.44096" stroke="green" stroke-width="0.04000"/>
    <line x1="73.19490" y1="68.96785" x2="86.80511" y2="62.32971" stroke="green" stroke-width="0.04000"/>
    <line x1="73.19490" y1="68.85658" x2="86.80511" y2="62.21844" stroke="green" stroke-width="0.04000"/>
    <line x1="73.19490" y1="68.74532" x2="86.80511" y2="62.10718" stroke="green" stroke-width="0.04000"/>
    <line x1="73.19490" y1="68.63406" x2="86.80511" y2="61.99593" stroke="green" stroke-width="0.04000"/>
    <line x1="73.19490" y1="68.52281" x2="86.80511" y2="61.88467" stroke="green" stroke-width="0.04000"/>
    <line x1="73.19490" y1="68.41154" x2="86.80511" y2="61.77340" stroke="green" stroke-width="0.04000"/>
    <line x1="73.19490" y1="68.30029" x2="86.80511" y2="61.66214" stroke="green" stroke-width="0.04000"/>
    <line x1="73.19490" y1="68.18903" x2="86.80511" y2="61.55088" stroke="green" stroke-width="0.04000"/>
    <line x1="73.19490" y1="68.07776" x2="86.68131" y2="61.50000" stroke="green" stroke-width="0.04000"/>
    <line x1="73.19490" y1="67.96651" x2="86.45320" y2="61.50000" stroke="green" stroke-width="0.04000"/>
    <line x1="73.19490" y1="67.85525" x2="86.22508" y2="61.50000" stroke="green" stroke-width="0.04000"/>
    <line x1="73.19490" y1="67.74399" x2="85.99696" y2="61.50000" stroke="green" stroke-width="0.04000"/>
    <line x1="73.19490" y1="67.63272" x2="85.76885" y2="61.50000" stroke="green" stroke-width="0.04000"/>
    <line x1="73.19490" y1="67.52147" x2="85.54073" y2="61.50000" stroke="green" stroke-width="0.04000"/>
    <line x1="73.19490" y1="67.41020" x2="85.31261" y2="61.50000" stroke="green" stroke-width="0.04000"/>
    <line x1="73.19490" y1="67.29894" x2="85.08450" y2="61.50000" stroke="green" stroke-width="0.04000"/>
    <line x1="73.19490" y1="67.18768" x2="84.85638" y2="61.50000" stroke="green" stroke-width="0.04000"/>
    <line x1="73.19490" y1="67.07642" x2="84.62827" y2="61.50000" stroke="green" stroke-width="0.04000"/>
    <line x1="73.19490" y1="66.96516" x2="84.40014" y2="61.50000" stroke="green" stroke-width="0.04000"/>
    <line x1="73.19490" y1="66.85390" x2="84.17203" y2="61.50000" stroke="green" stroke-width="0.04000"/>
    <line x1="73.19490" y1="66.74265" x2="83.94391" y2="61.50000" stroke="green" stroke-width="0.04000"/>
    <line x1="73.19490" y1="66.63138" x2="83.71579" y2="61.50000" stroke="green" stroke-width="0.04000"/>
    <line x1="73.19490" y1="66.52013" x2="83.48768" y2="61.50000" stroke="green" stroke-width="0.04000"/>
    <line x1="73.19490" y1="66.40886" x2="83.25956" y2="61.50000" stroke="green" stroke-width="0.04000"/>
    <line x1="73.19490" y1="66.29760" x2="83.03143" y2="61.50000" stroke="green" stroke-width="0.04000"/>
    <line x1="73.19490" y1="66.18634" x2="82.80332" y2="61.50000" stroke="green" stroke-width="0.04000"/>
    <line x1="73.19490" y1="66.07508" x2="82.57521" y2="61.50000" stroke="green" stroke-width="0.04000"/>
    <line x1="73.19490" y1="65.96382" x2="82.34708" y2="61.50000" stroke="green" stroke-width="0.04000"/>
    <line x1="73.19490" y1="65.85256" x2="82.11897" y2="61.50000" stroke="green" stroke-width="0.04000"/>
    <line x1="73.19490" y1="65.74130" x2="81.89085" y2="61.50000" stroke="green" stroke-width="0.04000"/>
    <line x1="73.19490" y1="65.63004" x2="81.66273" y2="61.50000" stroke="green" stroke-width="0.04000"/>
    <line x1="73.19490" y1="65.51878" x2="81.43462" y2="61.50000" stroke="green" stroke-width="0.04000"/>
    <line x1="73.19490" y1="65.40752" x2="81.20650" y2="61.50000" stroke="green" stroke-width="0.04000"/>
    <line x1="73.19490" y1="65.29626" x2="80.97839" y2="61.50000" stroke="green" stroke-width="0.04000"/>
    <line x1="73.19490" y1="65.18500" x2="80.75027" y2="61.50000" stroke="green" stroke-width="0.04000"/>
    <line x1="73.19490" y1="65.07374" x2="80.52216" y2="61.50000" stroke="green" stroke-width="0.04000"/>
    <line x1="73.19490" y1="64.96248" x2="80.29403" y2="61.50000" stroke="green" stroke-width="0.04000"/>
    <line x1="73.19490" y1="64.85123" x2="80.06593" y2="61.50000" stroke="green" stroke-width="0.04000"/>
    <line x1="73.19490" y1="64.73996" x2="79.83781" y2="61.50000" stroke="green" stroke-width="0.04000"/>
    <line x1="73.19490" y1="64.62869" x2="79.60968" y2="61.50000" stroke="green" stroke-width="0.04000"/>
    <line x1="73.19490" y1="64.51744" x2="79.38157" y2="61.50000" stroke="green" stroke-width="0.04000"/>
    <line x1="73.19490" y1="64.40617" x2="79.15345" y2="61.50000" stroke="green" stroke-width="0.04000"/>
    <line x1="73.19490" y1="64.29491" x2="78.92533" y2="61.50000" stroke="green" stroke-width="0.04000"/>
    <line x1="73.19490" y1="64.18365" x2="78.69722" y2="61.50000" stroke="green" stroke-width="0.04000"/>
    <line x1="73.19490" y1="64.07240" x2="78.46909" y2="61.50000" stroke="green" stroke-width="0.04000"/>
    <line x1="73.19490" y1="63.96114" x2="78.24098" y2="61.50000" stroke="green" stroke-width="0.04000"/>
    <line x1="73.19490" y1="63.84988" x2="78.01286" y2="61.50000" stroke="green" stroke-width="0.04000"/>
    <line x1="73.19490" y1="63.73862" x2="77.78474" y2="61.50000" stroke="green" stroke-width="0.04000"/>
    <line x1="73.19490" y1="63.62736" x2="77.55663" y2="61.50000" stroke="green" stroke-width="0.04000"/>
    <line x1="73.19490" y1="63.51610" x2="77.32851" y2="61.50000" stroke="green" stroke-width="0.04000"/>
    <line x1="73.19490" y1="63.40484" x2="77.10040" y2="61.50000" stroke="green" stroke-width="0.04000"/>
    <line x1="73.19490" y1="63.29358" x2="76.87228" y2="61.50000" stroke="green" stroke-width="0.04000"/>
    <line x1="73.19490" y1="63.18232" x2="76.64417" y2="61.50000" stroke="green" stroke-width="0.04000"/>
    <line x1="73.19490" y1="63.07106" x2="76.41604" y2="61.50000" stroke="green" stroke-width="0.04000"/>
    <line x1="73.19490" y1="62.95980" x2="76.18793" y2="61.50000" stroke="green" stroke-width="0.04000"/>
    <line x1="73.19490" y1="62.84854" x2="75.95982" y2="61.50000" stroke="green" stroke-width="0.04000"/>
    <line x1="73.19490" y1="62.73727" x2="75.73169" y2="61.50000" stroke="green" stroke-width="0.04000"/>
    <line x1="73.19490" y1="62.62601" x2="75.50357" y2="61.50000" stroke="green" stroke-width="0.04000"/>
    <line x1="73.19490" y1="62.51476" x2="75.27545" y2="61.50000" stroke="green" stroke-width="0.04000"/>
    <line x1="73.19490" y1="62.40350" x2="75.04734" y2="61.50000" stroke="green" stroke-width="0.04000"/>
    <line x1="73.19490" y1="62.29224" x2="74.81922" y2="61.50000" stroke="green" stroke-width="0.04000"/>
    <line x1="73.19490" y1="62.18097" x2="74.59110" y2="61.50000" stroke="green" stroke-width="0.04000"/>
    <line x1="73.19490" y1="62.06971" x2="74.36299" y2="61.50000" stroke="green" stroke-width="0.04000"/>
    <line x1="73.19490" y1="61.95845" x2="74.13487" y2="61.50000" stroke="green" stroke-width="0.04000"/>
    <line x1="73.19490" y1="61.84719" x2="73.90675" y2="61.50000" stroke="green" stroke-width="0.04000"/>
    <line x1="73.19490" y1="61.73594" x2="73.67864" y2="61.50000" stroke="green" stroke-width="0.04000"/>
    <line x1="73.19490" y1="61.62468" x2="73.45052" y2="61.50000" stroke="green" stroke-width="0.04000"/>
    <line x1="73.19490" y1="61.51341" x2="73.22240" y2="61.50000" stroke="green" stroke-width="0.04000"/>
    <path d="M 86.8051 96.5 L 73.1949 96.5 L 73.1949 61.5 L 86.8051 61.5 L 86.8051 96.5" fill="none" stroke="blue" stroke-width="0.04000" fill-rule="evenodd" fill-opacity="1.000"/>
  </g>
</svg>
