<?xml version="1.0" encoding="UTF-8" standalone="yes"?>
<svg xmlns="http://www.w3.org/2000/svg"
     xmlns:xlink="http://www.w3.org/1999/xlink"
     width="2020.0000mm" height="1600.0000mm"
     viewBox="0 0 202.000000 160.000000">
  <!--
    Build plate : 150.00 x 150.00 mm
    Coordinate  : 1 SVG unit = 1 mm
    Display zoom: 10x  (width/height = viewBox x 10)
    Hatch stroke: 0.04 mm = ~28 mm on screen at this zoom
    Legend panel: right margin (42 mm wide)
  -->
  <defs>
    <marker id="endArrow" markerWidth="2" markerHeight="1.4"
            refX="0" refY="0.7" orient="auto"
            markerUnits="strokeWidth">
      <polyline fill="darkblue" points="0,0 2,0.7 0,1.4 0.2,0.7"/>
    </marker>
  </defs>
  <!-- Background -->
  <rect x="0" y="0" width="202.000000" height="160.000000" fill="#f0f0f0" stroke="none"/>
  <!-- Build plate boundary (150 x 150 mm) -->
  <rect x="5.000000" y="5.000000" width="150.000000" height="150.000000"
        fill="#ffffff" stroke="#aaaaaa" stroke-width="0.2" stroke-dasharray="1,0.5"/>
  <!-- Build plate centre circle (r = 75.00 mm) -->
  <circle cx="80.000000" cy="80.000000" r="75.000000"
          fill="none" stroke="#bbbbbb" stroke-width="0.15" stroke-dasharray="0.8,0.4"/>
  <!-- Centre cross-hair -->
  <line x1="5.000000" y1="80.000000" x2="155.000000" y2="80.000000" stroke="#cccccc" stroke-width="0.1"/>
  <line x1="80.000000" y1="5.000000" x2="80.000000" y2="155.000000" stroke="#cccccc" stroke-width="0.1"/>
  <circle cx="80.000000" cy="80.000000" r="0.3" fill="#cccccc" stroke="none"/>
  <!-- Corner labels -->
  <text x="5.400000" y="4.600000" font-family="sans-serif" font-size="2" fill="#888888">0,0</text>
  <text x="154.600006" y="4.600000" font-family="sans-serif" font-size="2" fill="#888888" text-anchor="end">150,0</text>
  <text x="5.400000" y="157.199997" font-family="sans-serif" font-size="2" fill="#888888">0,150</text>
  <!-- Layer geometry -->
  <g id="geometry">
    <line x1="35.04931" y1="127.51591" x2="33.01618" y2="123.52568" stroke="green" stroke-width="0.04000"/>
    <line x1="35.15129" y1="127.49580" x2="33.26029" y2="123.78450" stroke="green" stroke-width="0.04000"/>
    <line x1="34.91879" y1="127.48002" x2="32.87400" y2="123.46690" stroke="green" stroke-width="0.04000"/>
    <line x1="34.78827" y1="127.44412" x2="32.73182" y2="123.40813" stroke="green" stroke-width="0.04000"/>
    <line x1="35.22727" y1="127.42465" x2="33.48228" y2="123.99991" stroke="green" stroke-width="0.04000"/>
    <line x1="34.65774" y1="127.40823" x2="32.58964" y2="123.34935" stroke="green" stroke-width="0.04000"/>
    <line x1="34.52722" y1="127.37233" x2="32.44746" y2="123.29057" stroke="green" stroke-width="0.04000"/>
    <line x1="35.30326" y1="127.35351" x2="33.70427" y2="124.21531" stroke="green" stroke-width="0.04000"/>
    <line x1="34.39669" y1="127.33643" x2="32.30528" y2="123.23180" stroke="green" stroke-width="0.04000"/>
    <line x1="34.25818" y1="127.28485" x2="32.16396" y2="123.17471" stroke="green" stroke-width="0.04000"/>
    <line x1="35.37924" y1="127.28236" x2="34.00792" y2="124.59100" stroke="green" stroke-width="0.04000"/>
    <line x1="34.11676" y1="127.22757" x2="32.02752" y2="123.12720" stroke="green" stroke-width="0.04000"/>
    <line x1="33.95428" y1="127.12896" x2="31.93595" y2="123.16776" stroke="green" stroke-width="0.04000"/>
    <line x1="33.72098" y1="126.89134" x2="31.84535" y2="123.21021" stroke="green" stroke-width="0.04000"/>
    <line x1="35.26368" y1="126.83529" x2="34.34639" y2="125.03502" stroke="green" stroke-width="0.04000"/>
    <line x1="33.48767" y1="126.65372" x2="31.76126" y2="123.26543" stroke="green" stroke-width="0.04000"/>
    <line x1="33.26691" y1="126.44073" x2="31.67717" y2="123.32067" stroke="green" stroke-width="0.04000"/>
    <line x1="33.05907" y1="126.25307" x2="31.59308" y2="123.37590" stroke="green" stroke-width="0.04000"/>
    <line x1="32.87294" y1="126.10804" x2="31.50899" y2="123.43114" stroke="green" stroke-width="0.04000"/>
    <line x1="32.67490" y1="125.93964" x2="31.42490" y2="123.48637" stroke="green" stroke-width="0.04000"/>
    <line x1="32.44436" y1="125.70745" x2="31.34081" y2="123.54160" stroke="green" stroke-width="0.04000"/>
    <line x1="32.22014" y1="125.48766" x2="31.25672" y2="123.59684" stroke="green" stroke-width="0.04000"/>
    <line x1="31.99660" y1="125.26921" x2="31.17263" y2="123.65207" stroke="green" stroke-width="0.04000"/>
    <line x1="31.77708" y1="125.05865" x2="31.12959" y2="123.78786" stroke="green" stroke-width="0.04000"/>
    <line x1="52.23423" y1="116.82435" x2="50.44166" y2="113.30623" stroke="green" stroke-width="0.04000"/>
    <line x1="52.33750" y1="116.80676" x2="50.67135" y2="113.53676" stroke="green" stroke-width="0.04000"/>
    <line x1="52.42596" y1="116.76009" x2="50.88061" y2="113.72717" stroke="green" stroke-width="0.04000"/>
    <line x1="52.51442" y1="116.71343" x2="51.07576" y2="113.88991" stroke="green" stroke-width="0.04000"/>
    <line x1="52.06326" y1="116.70907" x2="50.21362" y2="113.07894" stroke="green" stroke-width="0.04000"/>
    <line x1="52.60287" y1="116.66676" x2="51.27092" y2="114.05266" stroke="green" stroke-width="0.04000"/>
    <line x1="52.68631" y1="116.61026" x2="51.47356" y2="114.23010" stroke="green" stroke-width="0.04000"/>
    <line x1="51.89229" y1="116.59379" x2="49.98558" y2="112.85166" stroke="green" stroke-width="0.04000"/>
    <line x1="52.76904" y1="116.55235" x2="51.68974" y2="114.43410" stroke="green" stroke-width="0.04000"/>
    <line x1="52.85177" y1="116.49445" x2="51.90156" y2="114.62956" stroke="green" stroke-width="0.04000"/>
    <line x1="51.72132" y1="116.47850" x2="49.78933" y2="112.68677" stroke="green" stroke-width="0.04000"/>
    <line x1="52.93451" y1="116.43655" x2="52.08511" y2="114.76953" stroke="green" stroke-width="0.04000"/>
    <line x1="53.01723" y1="116.37865" x2="52.31961" y2="115.00949" stroke="green" stroke-width="0.04000"/>
    <line x1="51.55148" y1="116.36543" x2="49.59599" y2="112.52759" stroke="green" stroke-width="0.04000"/>
    <line x1="53.09996" y1="116.32076" x2="52.58566" y2="115.31138" stroke="green" stroke-width="0.04000"/>
    <line x1="51.38229" y1="116.25365" x2="49.36931" y2="112.30297" stroke="green" stroke-width="0.04000"/>
    <line x1="51.21329" y1="116.14226" x2="49.11683" y2="112.02772" stroke="green" stroke-width="0.04000"/>
    <line x1="51.04461" y1="116.03146" x2="48.87860" y2="111.78043" stroke="green" stroke-width="0.04000"/>
    <line x1="50.87592" y1="115.92066" x2="48.62693" y2="111.50677" stroke="green" stroke-width="0.04000"/>
    <line x1="50.70761" y1="115.81060" x2="48.32580" y2="111.13604" stroke="green" stroke-width="0.04000"/>
    <line x1="50.53986" y1="115.70164" x2="48.00977" y2="110.73607" stroke="green" stroke-width="0.04000"/>
    <line x1="50.37211" y1="115.59269" x2="47.80799" y2="110.56031" stroke="green" stroke-width="0.04000"/>
    <line x1="50.20578" y1="115.48651" x2="47.65549" y2="110.48128" stroke="green" stroke-width="0.04000"/>
    <line x1="50.04157" y1="115.38451" x2="47.36671" y2="110.13480" stroke="green" stroke-width="0.04000"/>
    <line x1="49.87738" y1="115.28252" x2="47.00459" y2="109.64436" stroke="green" stroke-width="0.04000"/>
    <line x1="49.69739" y1="115.14954" x2="46.83776" y2="109.53721" stroke="green" stroke-width="0.04000"/>
    <line x1="49.51028" y1="115.00259" x2="46.72252" y2="109.53130" stroke="green" stroke-width="0.04000"/>
    <line x1="49.33052" y1="114.87006" x2="46.60728" y2="109.52540" stroke="green" stroke-width="0.04000"/>
    <line x1="49.16917" y1="114.77366" x2="46.49203" y2="109.51949" stroke="green" stroke-width="0.04000"/>
    <line x1="49.00782" y1="114.67726" x2="46.37679" y2="109.51359" stroke="green" stroke-width="0.04000"/>
    <line x1="48.84647" y1="114.58086" x2="46.26155" y2="109.50768" stroke="green" stroke-width="0.04000"/>
    <line x1="48.67568" y1="114.46594" x2="46.14631" y2="109.50178" stroke="green" stroke-width="0.04000"/>
    <line x1="48.46861" y1="114.27982" x2="46.03107" y2="109.49587" stroke="green" stroke-width="0.04000"/>
    <line x1="48.27769" y1="114.12538" x2="45.92393" y2="109.50587" stroke="green" stroke-width="0.04000"/>
    <line x1="48.08677" y1="113.97094" x2="45.83896" y2="109.55939" stroke="green" stroke-width="0.04000"/>
    <line x1="47.89584" y1="113.81651" x2="45.75400" y2="109.61290" stroke="green" stroke-width="0.04000"/>
    <line x1="47.70492" y1="113.66206" x2="45.66903" y2="109.66641" stroke="green" stroke-width="0.04000"/>
    <line x1="47.46019" y1="113.40202" x2="45.61268" y2="109.77608" stroke="green" stroke-width="0.04000"/>
    <line x1="47.22408" y1="113.15891" x2="45.61054" y2="109.99216" stroke="green" stroke-width="0.04000"/>
    <line x1="46.98045" y1="112.90102" x2="45.60841" y2="110.20824" stroke="green" stroke-width="0.04000"/>
    <line x1="46.68379" y1="112.53905" x2="45.61308" y2="110.43768" stroke="green" stroke-width="0.04000"/>
    <line x1="46.30501" y1="112.01593" x2="45.61889" y2="110.66933" stroke="green" stroke-width="0.04000"/>
    <path d="M 32.2603 123.213 L 33.0188 123.527 L 33.2455 123.77 L 33.8551 124.362 L 34.0159 124.603 L 34.5831 125.344 L 34.6567 125.483 L 34.8833 125.914 L 35.0864 126.331 L 35.1627 126.507 L 35.3965 127.266 L 35.1115 127.533 L 34.2974 127.309 L 34.167 127.228 L 34.05 127.226 L 33.4839 126.65 L 33.1278 126.307 L 32.7367 126.002 L 32.4219 125.685 L 31.8825 125.158 L 31.6263 124.917 L 31.2231 124.077 L 31.126 123.953 L 31.1319 123.679 L 31.8562 123.203 L 32.0358 123.124 L 32.2603 123.213" fill="none" stroke="blue" stroke-width="0.04000" fill-rule="evenodd" fill-opacity="1.000"/>
    <path d="M 46.9245 109.542 L 46.9285 109.541 L 47.6021 110.454 L 47.9145 110.616 L 48.3506 111.167 L 48.6922 111.587 L 49.2032 112.117 L 49.4985 112.447 L 49.9664 112.833 L 50.5479 113.412 L 50.6655 113.531 L 50.7843 113.647 L 51.3965 114.157 L 51.8772 114.611 L 52.1553 114.823 L 52.7178 115.461 L 52.7178 115.461 L 52.7251 115.47 L 52.7306 115.483 L 53.1145 116.311 L 52.6138 116.661 L 52.2649 116.845 L 51.6586 116.436 L 51.2801 116.186 L 50.775 115.854 L 50.2712 115.527 L 49.8263 115.251 L 49.3765 114.898 L 48.7146 114.502 L 48.5202 114.322 L 47.6998 113.658 L 47.6433 113.589 L 47.2668 113.204 L 46.9181 112.835 L 46.8531 112.785 L 46.387 112.107 L 46.1138 111.802 L 45.8779 111.24 L 45.6197 110.7 L 45.6081 110.239 L 45.6134 109.701 L 45.9467 109.492 L 46.9245 109.542" fill="none" stroke="blue" stroke-width="0.04000" fill-rule="evenodd" fill-opacity="1.000"/>
  </g>
</svg>
