<?xml version="1.0" encoding="UTF-8" standalone="yes"?>
<svg xmlns="http://www.w3.org/2000/svg"
     xmlns:xlink="http://www.w3.org/1999/xlink"
     width="2020.0000mm" height="1600.0000mm"
     viewBox="0 0 202.000000 160.000000">
  <!--
    Build plate : 150.00 x 150.00 mm
    Coordinate  : 1 SVG unit = 1 mm
    Display zoom: 10x  (width/height = viewBox x 10)
    Hatch stroke: 0.04 mm = ~28 mm on screen at this zoom
    Legend panel: right margin (42 mm wide)
  -->
  <defs>
    <marker id="endArrow" markerWidth="2" markerHeight="1.4"
            refX="0" refY="0.7" orient="auto"
            markerUnits="strokeWidth">
      <polyline fill="darkblue" points="0,0 2,0.7 0,1.4 0.2,0.7"/>
    </marker>
  </defs>
  <!-- Background -->
  <rect x="0" y="0" width="202.000000" height="160.000000" fill="#f0f0f0" stroke="none"/>
  <!-- Build plate boundary (150 x 150 mm) -->
  <rect x="5.000000" y="5.000000" width="150.000000" height="150.000000"
        fill="#ffffff" stroke="#aaaaaa" stroke-width="0.2" stroke-dasharray="1,0.5"/>
  <!-- Build plate centre circle (r = 75.00 mm) -->
  <circle cx="80.000000" cy="80.000000" r="75.000000"
          fill="none" stroke="#bbbbbb" stroke-width="0.15" stroke-dasharray="0.8,0.4"/>
  <!-- Centre cross-hair -->
  <line x1="5.000000" y1="80.000000" x2="155.000000" y2="80.000000" stroke="#cccccc" stroke-width="0.1"/>
  <line x1="80.000000" y1="5.000000" x2="80.000000" y2="155.000000" stroke="#cccccc" stroke-width="0.1"/>
  <circle cx="80.000000" cy="80.000000" r="0.3" fill="#cccccc" stroke="none"/>
  <!-- Corner labels -->
  <text x="5.400000" y="4.600000" font-family="sans-serif" font-size="2" fill="#888888">0,0</text>
  <text x="154.600006" y="4.600000" font-family="sans-serif" font-size="2" fill="#888888" text-anchor="end">150,0</text>
  <text x="5.400000" y="157.199997" font-family="sans-serif" font-size="2" fill="#888888">0,150</text>
  <!-- Layer geometry -->
  <g id="geometry">
    <line x1="34.98156" y1="127.35078" x2="35.88192" y2="127.07552" stroke="green" stroke-width="0.04000"/>
    <line x1="35.36828" y1="127.33712" x2="35.73466" y2="127.22511" stroke="green" stroke-width="0.04000"/>
    <line x1="34.86125" y1="127.28300" x2="35.89167" y2="126.96796" stroke="green" stroke-width="0.04000"/>
    <line x1="34.78400" y1="127.20204" x2="35.90141" y2="126.86041" stroke="green" stroke-width="0.04000"/>
    <line x1="34.70674" y1="127.12109" x2="35.91116" y2="126.75287" stroke="green" stroke-width="0.04000"/>
    <line x1="34.62932" y1="127.04019" x2="35.92091" y2="126.64532" stroke="green" stroke-width="0.04000"/>
    <line x1="34.55186" y1="126.95931" x2="35.93065" y2="126.53777" stroke="green" stroke-width="0.04000"/>
    <line x1="34.47439" y1="126.87843" x2="35.94040" y2="126.43022" stroke="green" stroke-width="0.04000"/>
    <line x1="34.39692" y1="126.79754" x2="35.94958" y2="126.32285" stroke="green" stroke-width="0.04000"/>
    <line x1="34.31946" y1="126.71665" x2="35.94695" y2="126.21908" stroke="green" stroke-width="0.04000"/>
    <line x1="34.25273" y1="126.63248" x2="35.94053" y2="126.11647" stroke="green" stroke-width="0.04000"/>
    <line x1="34.21339" y1="126.53994" x2="35.93412" y2="126.01386" stroke="green" stroke-width="0.04000"/>
    <line x1="34.17404" y1="126.44740" x2="35.92770" y2="125.91125" stroke="green" stroke-width="0.04000"/>
    <line x1="34.13470" y1="126.35486" x2="35.92129" y2="125.80865" stroke="green" stroke-width="0.04000"/>
    <line x1="34.09535" y1="126.26232" x2="35.91487" y2="125.70604" stroke="green" stroke-width="0.04000"/>
    <line x1="34.05601" y1="126.16978" x2="35.90845" y2="125.60343" stroke="green" stroke-width="0.04000"/>
    <line x1="34.01667" y1="126.07724" x2="35.90204" y2="125.50082" stroke="green" stroke-width="0.04000"/>
    <line x1="33.97733" y1="125.98470" x2="35.89742" y2="125.39767" stroke="green" stroke-width="0.04000"/>
    <line x1="33.93798" y1="125.89216" x2="35.89332" y2="125.29436" stroke="green" stroke-width="0.04000"/>
    <line x1="33.89903" y1="125.79950" x2="35.88921" y2="125.19104" stroke="green" stroke-width="0.04000"/>
    <line x1="33.86343" y1="125.70581" x2="35.88512" y2="125.08772" stroke="green" stroke-width="0.04000"/>
    <line x1="33.82866" y1="125.61188" x2="35.88102" y2="124.98441" stroke="green" stroke-width="0.04000"/>
    <line x1="33.79189" y1="125.51855" x2="35.87691" y2="124.88109" stroke="green" stroke-width="0.04000"/>
    <line x1="33.75512" y1="125.42522" x2="35.87147" y2="124.77819" stroke="green" stroke-width="0.04000"/>
    <line x1="33.71835" y1="125.33189" x2="35.85924" y2="124.67736" stroke="green" stroke-width="0.04000"/>
    <line x1="33.68159" y1="125.23856" x2="35.84701" y2="124.57652" stroke="green" stroke-width="0.04000"/>
    <line x1="33.64482" y1="125.14523" x2="35.83518" y2="124.47557" stroke="green" stroke-width="0.04000"/>
    <line x1="33.60806" y1="125.05190" x2="35.83131" y2="124.37218" stroke="green" stroke-width="0.04000"/>
    <line x1="33.57129" y1="124.95857" x2="35.82743" y2="124.26881" stroke="green" stroke-width="0.04000"/>
    <line x1="33.53452" y1="124.86525" x2="35.82356" y2="124.16542" stroke="green" stroke-width="0.04000"/>
    <line x1="33.49596" y1="124.77247" x2="35.81969" y2="124.06203" stroke="green" stroke-width="0.04000"/>
    <line x1="33.45460" y1="124.68054" x2="35.81581" y2="123.95865" stroke="green" stroke-width="0.04000"/>
    <line x1="33.41323" y1="124.58862" x2="35.81194" y2="123.85526" stroke="green" stroke-width="0.04000"/>
    <line x1="33.37187" y1="124.49670" x2="35.80783" y2="123.75195" stroke="green" stroke-width="0.04000"/>
    <line x1="33.33051" y1="124.40477" x2="35.80270" y2="123.64895" stroke="green" stroke-width="0.04000"/>
    <line x1="33.29131" y1="124.31219" x2="35.79758" y2="123.54594" stroke="green" stroke-width="0.04000"/>
    <line x1="33.25263" y1="124.21944" x2="35.79525" y2="123.44209" stroke="green" stroke-width="0.04000"/>
    <line x1="33.21396" y1="124.12670" x2="35.79443" y2="123.33777" stroke="green" stroke-width="0.04000"/>
    <line x1="33.17529" y1="124.03396" x2="35.78513" y2="123.23605" stroke="green" stroke-width="0.04000"/>
    <line x1="33.13662" y1="123.94121" x2="35.77583" y2="123.13432" stroke="green" stroke-width="0.04000"/>
    <line x1="33.09882" y1="123.84819" x2="35.76653" y2="123.03260" stroke="green" stroke-width="0.04000"/>
    <line x1="33.06363" y1="123.75439" x2="35.75723" y2="122.93087" stroke="green" stroke-width="0.04000"/>
    <line x1="33.02843" y1="123.66058" x2="35.74792" y2="122.82915" stroke="green" stroke-width="0.04000"/>
    <line x1="32.99324" y1="123.56676" x2="35.73862" y2="122.72742" stroke="green" stroke-width="0.04000"/>
    <line x1="32.95805" y1="123.47295" x2="35.72932" y2="122.62569" stroke="green" stroke-width="0.04000"/>
    <line x1="32.92285" y1="123.37915" x2="35.72001" y2="122.52397" stroke="green" stroke-width="0.04000"/>
    <line x1="32.88162" y1="123.28719" x2="35.71969" y2="122.41950" stroke="green" stroke-width="0.04000"/>
    <line x1="32.83983" y1="123.19539" x2="35.72192" y2="122.31425" stroke="green" stroke-width="0.04000"/>
    <line x1="32.79804" y1="123.10360" x2="35.72414" y2="122.20900" stroke="green" stroke-width="0.04000"/>
    <line x1="32.75625" y1="123.01180" x2="35.72637" y2="122.10375" stroke="green" stroke-width="0.04000"/>
    <line x1="32.71446" y1="122.92001" x2="35.72860" y2="121.99850" stroke="green" stroke-width="0.04000"/>
    <line x1="32.67211" y1="122.82839" x2="35.73083" y2="121.89325" stroke="green" stroke-width="0.04000"/>
    <line x1="32.62971" y1="122.73679" x2="35.72097" y2="121.79169" stroke="green" stroke-width="0.04000"/>
    <line x1="32.58730" y1="122.64518" x2="35.70718" y2="121.69134" stroke="green" stroke-width="0.04000"/>
    <line x1="32.54490" y1="122.55357" x2="35.69339" y2="121.59099" stroke="green" stroke-width="0.04000"/>
    <line x1="32.50943" y1="122.45985" x2="35.67960" y2="121.49063" stroke="green" stroke-width="0.04000"/>
    <line x1="32.47503" y1="122.36580" x2="35.66582" y2="121.39027" stroke="green" stroke-width="0.04000"/>
    <line x1="32.44062" y1="122.27175" x2="35.65630" y2="121.28861" stroke="green" stroke-width="0.04000"/>
    <line x1="32.40621" y1="122.17770" x2="35.65181" y2="121.18542" stroke="green" stroke-width="0.04000"/>
    <line x1="32.37181" y1="122.08365" x2="35.64732" y2="121.08223" stroke="green" stroke-width="0.04000"/>
    <line x1="32.33740" y1="121.98960" x2="35.64283" y2="120.97903" stroke="green" stroke-width="0.04000"/>
    <line x1="32.30273" y1="121.89563" x2="35.63834" y2="120.87583" stroke="green" stroke-width="0.04000"/>
    <line x1="32.25896" y1="121.80444" x2="35.63247" y2="120.77306" stroke="green" stroke-width="0.04000"/>
    <line x1="32.21520" y1="121.71326" x2="35.61440" y2="120.67402" stroke="green" stroke-width="0.04000"/>
    <line x1="32.17143" y1="121.62207" x2="35.59632" y2="120.57497" stroke="green" stroke-width="0.04000"/>
    <line x1="32.12767" y1="121.53088" x2="35.57824" y2="120.47593" stroke="green" stroke-width="0.04000"/>
    <line x1="32.08390" y1="121.43969" x2="35.56017" y2="120.37688" stroke="green" stroke-width="0.04000"/>
    <line x1="32.04013" y1="121.34850" x2="35.54209" y2="120.27785" stroke="green" stroke-width="0.04000"/>
    <line x1="31.99637" y1="121.25731" x2="35.52401" y2="120.17880" stroke="green" stroke-width="0.04000"/>
    <line x1="31.96123" y1="121.16348" x2="35.50911" y2="120.07879" stroke="green" stroke-width="0.04000"/>
    <line x1="31.92660" y1="121.06950" x2="35.49591" y2="119.97826" stroke="green" stroke-width="0.04000"/>
    <line x1="31.88219" y1="120.97851" x2="35.48272" y2="119.87772" stroke="green" stroke-width="0.04000"/>
    <line x1="31.83628" y1="120.88798" x2="35.46930" y2="119.77725" stroke="green" stroke-width="0.04000"/>
    <line x1="31.79038" y1="120.79744" x2="35.45488" y2="119.67709" stroke="green" stroke-width="0.04000"/>
    <line x1="31.74447" y1="120.70691" x2="35.44046" y2="119.57693" stroke="green" stroke-width="0.04000"/>
    <line x1="31.68582" y1="120.62027" x2="35.42605" y2="119.47677" stroke="green" stroke-width="0.04000"/>
    <line x1="31.62301" y1="120.53490" x2="35.41163" y2="119.37661" stroke="green" stroke-width="0.04000"/>
    <line x1="31.56020" y1="120.44954" x2="35.39721" y2="119.27644" stroke="green" stroke-width="0.04000"/>
    <line x1="31.49739" y1="120.36417" x2="35.38279" y2="119.17628" stroke="green" stroke-width="0.04000"/>
    <line x1="31.43458" y1="120.27881" x2="35.36837" y2="119.07613" stroke="green" stroke-width="0.04000"/>
    <line x1="31.36946" y1="120.19415" x2="35.35395" y2="118.97596" stroke="green" stroke-width="0.04000"/>
    <line x1="31.30230" y1="120.11011" x2="35.34248" y2="118.87490" stroke="green" stroke-width="0.04000"/>
    <line x1="31.23514" y1="120.02608" x2="35.32350" y2="118.77614" stroke="green" stroke-width="0.04000"/>
    <line x1="31.16798" y1="119.94204" x2="35.30310" y2="118.67780" stroke="green" stroke-width="0.04000"/>
    <line x1="31.10097" y1="119.85796" x2="35.28271" y2="118.57947" stroke="green" stroke-width="0.04000"/>
    <line x1="31.03522" y1="119.77349" x2="35.26231" y2="118.48114" stroke="green" stroke-width="0.04000"/>
    <line x1="30.96946" y1="119.68903" x2="35.24192" y2="118.38280" stroke="green" stroke-width="0.04000"/>
    <line x1="30.90371" y1="119.60455" x2="35.22152" y2="118.28447" stroke="green" stroke-width="0.04000"/>
    <line x1="30.85832" y1="119.51386" x2="35.20113" y2="118.18613" stroke="green" stroke-width="0.04000"/>
    <line x1="30.81997" y1="119.42102" x2="35.18073" y2="118.08780" stroke="green" stroke-width="0.04000"/>
    <line x1="30.78162" y1="119.32818" x2="35.16034" y2="117.98946" stroke="green" stroke-width="0.04000"/>
    <line x1="30.74327" y1="119.23533" x2="35.13995" y2="117.89113" stroke="green" stroke-width="0.04000"/>
    <line x1="30.70492" y1="119.14249" x2="35.12396" y2="117.79145" stroke="green" stroke-width="0.04000"/>
    <line x1="30.66657" y1="119.04964" x2="35.10885" y2="117.69150" stroke="green" stroke-width="0.04000"/>
    <line x1="30.62822" y1="118.95679" x2="35.08475" y2="117.59430" stroke="green" stroke-width="0.04000"/>
    <line x1="30.58755" y1="118.86466" x2="35.06066" y2="117.49709" stroke="green" stroke-width="0.04000"/>
    <line x1="30.53748" y1="118.77540" x2="35.03657" y2="117.39989" stroke="green" stroke-width="0.04000"/>
    <line x1="30.48741" y1="118.68614" x2="35.01247" y2="117.30269" stroke="green" stroke-width="0.04000"/>
    <line x1="30.45428" y1="118.59170" x2="34.98838" y2="117.20548" stroke="green" stroke-width="0.04000"/>
    <line x1="30.48216" y1="118.47861" x2="34.96034" y2="117.10949" stroke="green" stroke-width="0.04000"/>
    <line x1="30.51005" y1="118.36551" x2="34.93227" y2="117.01350" stroke="green" stroke-width="0.04000"/>
    <line x1="30.53793" y1="118.25242" x2="34.90420" y2="116.91751" stroke="green" stroke-width="0.04000"/>
    <line x1="30.56581" y1="118.13932" x2="34.87614" y2="116.82153" stroke="green" stroke-width="0.04000"/>
    <line x1="30.59370" y1="118.02623" x2="34.84806" y2="116.72553" stroke="green" stroke-width="0.04000"/>
    <line x1="30.62011" y1="117.91358" x2="34.81868" y2="116.62995" stroke="green" stroke-width="0.04000"/>
    <line x1="30.61511" y1="117.81055" x2="34.78708" y2="116.53505" stroke="green" stroke-width="0.04000"/>
    <line x1="30.61011" y1="117.70750" x2="34.75547" y2="116.44014" stroke="green" stroke-width="0.04000"/>
    <line x1="30.60511" y1="117.60446" x2="34.72386" y2="116.34524" stroke="green" stroke-width="0.04000"/>
    <line x1="30.60011" y1="117.50143" x2="34.69167" y2="116.25051" stroke="green" stroke-width="0.04000"/>
    <line x1="30.59511" y1="117.39838" x2="34.65916" y2="116.15588" stroke="green" stroke-width="0.04000"/>
    <line x1="30.59012" y1="117.29534" x2="34.62666" y2="116.06125" stroke="green" stroke-width="0.04000"/>
    <line x1="30.58512" y1="117.19230" x2="34.59415" y2="115.96661" stroke="green" stroke-width="0.04000"/>
    <line x1="30.62764" y1="117.07473" x2="34.56165" y2="115.87198" stroke="green" stroke-width="0.04000"/>
    <line x1="30.67428" y1="116.95590" x2="34.52863" y2="115.77751" stroke="green" stroke-width="0.04000"/>
    <line x1="30.72092" y1="116.83707" x2="34.49270" y2="115.68392" stroke="green" stroke-width="0.04000"/>
    <line x1="30.75323" y1="116.72263" x2="34.45676" y2="115.59034" stroke="green" stroke-width="0.04000"/>
    <line x1="30.78302" y1="116.60895" x2="34.42083" y2="115.49676" stroke="green" stroke-width="0.04000"/>
    <line x1="30.81281" y1="116.49527" x2="34.38490" y2="115.40318" stroke="green" stroke-width="0.04000"/>
    <line x1="30.84260" y1="116.38159" x2="34.34896" y2="115.30959" stroke="green" stroke-width="0.04000"/>
    <line x1="30.87239" y1="116.26792" x2="34.30606" y2="115.21814" stroke="green" stroke-width="0.04000"/>
    <line x1="30.90218" y1="116.15424" x2="34.25047" y2="115.13056" stroke="green" stroke-width="0.04000"/>
    <line x1="30.93196" y1="116.04057" x2="34.19489" y2="115.04299" stroke="green" stroke-width="0.04000"/>
    <line x1="30.96175" y1="115.92689" x2="34.13929" y2="114.95541" stroke="green" stroke-width="0.04000"/>
    <line x1="31.03153" y1="115.80099" x2="34.07870" y2="114.86937" stroke="green" stroke-width="0.04000"/>
    <line x1="31.09676" y1="115.67648" x2="34.01494" y2="114.78429" stroke="green" stroke-width="0.04000"/>
    <line x1="31.16013" y1="115.55253" x2="33.95117" y2="114.69923" stroke="green" stroke-width="0.04000"/>
    <line x1="31.22350" y1="115.42859" x2="33.88740" y2="114.61415" stroke="green" stroke-width="0.04000"/>
    <line x1="31.28686" y1="115.30465" x2="33.82363" y2="114.52908" stroke="green" stroke-width="0.04000"/>
    <line x1="31.35448" y1="115.17941" x2="33.75987" y2="114.44401" stroke="green" stroke-width="0.04000"/>
    <line x1="31.42287" y1="115.05392" x2="33.69610" y2="114.35893" stroke="green" stroke-width="0.04000"/>
    <line x1="31.49126" y1="114.92845" x2="33.63193" y2="114.27399" stroke="green" stroke-width="0.04000"/>
    <line x1="31.54972" y1="114.80601" x2="33.56744" y2="114.18913" stroke="green" stroke-width="0.04000"/>
    <line x1="31.69030" y1="114.65845" x2="33.50454" y2="114.10379" stroke="green" stroke-width="0.04000"/>
    <line x1="31.86712" y1="114.49983" x2="33.41081" y2="114.02788" stroke="green" stroke-width="0.04000"/>
    <line x1="32.04395" y1="114.34120" x2="33.05291" y2="114.03273" stroke="green" stroke-width="0.04000"/>
    <line x1="32.22076" y1="114.18257" x2="32.58047" y2="114.07259" stroke="green" stroke-width="0.04000"/>
    <line x1="52.17621" y1="114.18220" x2="52.85706" y2="113.97404" stroke="green" stroke-width="0.04000"/>
    <line x1="51.99926" y1="114.13173" x2="53.02289" y2="113.81878" stroke="green" stroke-width="0.04000"/>
    <line x1="51.81733" y1="114.08278" x2="53.08702" y2="113.69460" stroke="green" stroke-width="0.04000"/>
    <line x1="51.62438" y1="114.03721" x2="53.03209" y2="113.60683" stroke="green" stroke-width="0.04000"/>
    <line x1="51.45186" y1="113.98537" x2="52.97716" y2="113.51905" stroke="green" stroke-width="0.04000"/>
    <line x1="51.28338" y1="113.93232" x2="52.92223" y2="113.43127" stroke="green" stroke-width="0.04000"/>
    <line x1="51.11489" y1="113.87926" x2="52.86730" y2="113.34350" stroke="green" stroke-width="0.04000"/>
    <line x1="50.94641" y1="113.82620" x2="52.81237" y2="113.25572" stroke="green" stroke-width="0.04000"/>
    <line x1="50.77599" y1="113.77374" x2="52.75752" y2="113.16792" stroke="green" stroke-width="0.04000"/>
    <line x1="50.57945" y1="113.72926" x2="52.70894" y2="113.07821" stroke="green" stroke-width="0.04000"/>
    <line x1="50.39439" y1="113.68127" x2="52.66035" y2="112.98849" stroke="green" stroke-width="0.04000"/>
    <line x1="50.21399" y1="113.63185" x2="52.61177" y2="112.89877" stroke="green" stroke-width="0.04000"/>
    <line x1="50.03359" y1="113.58244" x2="52.56319" y2="112.80906" stroke="green" stroke-width="0.04000"/>
    <line x1="49.85319" y1="113.53302" x2="52.51461" y2="112.71935" stroke="green" stroke-width="0.04000"/>
    <line x1="49.65993" y1="113.48753" x2="52.46602" y2="112.62962" stroke="green" stroke-width="0.04000"/>
    <line x1="49.45330" y1="113.44614" x2="52.41744" y2="112.53991" stroke="green" stroke-width="0.04000"/>
    <line x1="49.23725" y1="113.40762" x2="52.36886" y2="112.45020" stroke="green" stroke-width="0.04000"/>
    <line x1="49.02119" y1="113.36911" x2="52.32028" y2="112.36048" stroke="green" stroke-width="0.04000"/>
    <line x1="48.80602" y1="113.33033" x2="52.26090" y2="112.27406" stroke="green" stroke-width="0.04000"/>
    <line x1="48.59172" y1="113.29128" x2="52.19154" y2="112.19070" stroke="green" stroke-width="0.04000"/>
    <line x1="48.37745" y1="113.25222" x2="52.07339" y2="112.12225" stroke="green" stroke-width="0.04000"/>
    <line x1="48.16193" y1="113.21353" x2="51.95522" y2="112.05381" stroke="green" stroke-width="0.04000"/>
    <line x1="47.91992" y1="113.18296" x2="51.83706" y2="111.98537" stroke="green" stroke-width="0.04000"/>
    <line x1="47.66884" y1="113.15515" x2="51.71889" y2="111.91692" stroke="green" stroke-width="0.04000"/>
    <line x1="47.45724" y1="113.11527" x2="51.60073" y2="111.84848" stroke="green" stroke-width="0.04000"/>
    <line x1="47.25667" y1="113.07202" x2="51.48257" y2="111.78004" stroke="green" stroke-width="0.04000"/>
    <line x1="47.05612" y1="113.02877" x2="51.35392" y2="111.71481" stroke="green" stroke-width="0.04000"/>
    <line x1="46.84985" y1="112.98726" x2="51.22184" y2="111.65061" stroke="green" stroke-width="0.04000"/>
    <line x1="46.63028" y1="112.94982" x2="51.08978" y2="111.58642" stroke="green" stroke-width="0.04000"/>
    <line x1="46.42951" y1="112.90663" x2="50.95753" y2="111.52228" stroke="green" stroke-width="0.04000"/>
    <line x1="46.25480" y1="112.85548" x2="50.82513" y2="111.45819" stroke="green" stroke-width="0.04000"/>
    <line x1="46.08007" y1="112.80434" x2="50.69273" y2="111.39410" stroke="green" stroke-width="0.04000"/>
    <line x1="45.89075" y1="112.75764" x2="50.55678" y2="111.33110" stroke="green" stroke-width="0.04000"/>
    <line x1="45.69539" y1="112.71281" x2="50.40904" y2="111.27170" stroke="green" stroke-width="0.04000"/>
    <line x1="45.50002" y1="112.66796" x2="50.26131" y2="111.21230" stroke="green" stroke-width="0.04000"/>
    <line x1="45.30466" y1="112.62312" x2="50.11357" y2="111.15289" stroke="green" stroke-width="0.04000"/>
    <line x1="45.15682" y1="112.56375" x2="49.96583" y2="111.09349" stroke="green" stroke-width="0.04000"/>
    <line x1="45.02980" y1="112.49802" x2="49.81810" y2="111.03409" stroke="green" stroke-width="0.04000"/>
    <line x1="44.90276" y1="112.43229" x2="49.67626" y2="110.97289" stroke="green" stroke-width="0.04000"/>
    <line x1="44.77573" y1="112.36655" x2="49.53938" y2="110.91016" stroke="green" stroke-width="0.04000"/>
    <line x1="44.64870" y1="112.30083" x2="49.40248" y2="110.84744" stroke="green" stroke-width="0.04000"/>
    <line x1="44.52167" y1="112.23509" x2="49.26560" y2="110.78473" stroke="green" stroke-width="0.04000"/>
    <line x1="44.39674" y1="112.16872" x2="49.12871" y2="110.72201" stroke="green" stroke-width="0.04000"/>
    <line x1="44.28298" y1="112.09893" x2="48.99182" y2="110.65929" stroke="green" stroke-width="0.04000"/>
    <line x1="44.16921" y1="112.02914" x2="48.85493" y2="110.59657" stroke="green" stroke-width="0.04000"/>
    <line x1="44.05546" y1="111.95935" x2="48.70646" y2="110.53740" stroke="green" stroke-width="0.04000"/>
    <line x1="43.94169" y1="111.88956" x2="48.55677" y2="110.47859" stroke="green" stroke-width="0.04000"/>
    <line x1="43.82793" y1="111.81978" x2="48.40708" y2="110.41979" stroke="green" stroke-width="0.04000"/>
    <line x1="43.71551" y1="111.74957" x2="48.26010" y2="110.36015" stroke="green" stroke-width="0.04000"/>
    <line x1="43.60691" y1="111.67821" x2="48.12857" y2="110.29580" stroke="green" stroke-width="0.04000"/>
    <line x1="43.49693" y1="111.60726" x2="47.99703" y2="110.23145" stroke="green" stroke-width="0.04000"/>
    <line x1="43.39739" y1="111.53313" x2="47.86392" y2="110.16757" stroke="green" stroke-width="0.04000"/>
    <line x1="43.29950" y1="111.45848" x2="47.72989" y2="110.10398" stroke="green" stroke-width="0.04000"/>
    <line x1="43.20161" y1="111.38384" x2="47.59586" y2="110.04039" stroke="green" stroke-width="0.04000"/>
    <line x1="43.10372" y1="111.30920" x2="47.46183" y2="109.97680" stroke="green" stroke-width="0.04000"/>
    <line x1="43.00582" y1="111.23457" x2="47.32780" y2="109.91320" stroke="green" stroke-width="0.04000"/>
    <line x1="42.90793" y1="111.15993" x2="47.19378" y2="109.84961" stroke="green" stroke-width="0.04000"/>
    <line x1="42.80786" y1="111.08595" x2="47.08430" y2="109.77851" stroke="green" stroke-width="0.04000"/>
    <line x1="42.70493" y1="111.01285" x2="46.96584" y2="109.71016" stroke="green" stroke-width="0.04000"/>
    <line x1="42.60199" y1="110.93975" x2="46.84237" y2="109.64333" stroke="green" stroke-width="0.04000"/>
    <line x1="42.49906" y1="110.86665" x2="46.71721" y2="109.57704" stroke="green" stroke-width="0.04000"/>
    <line x1="42.39613" y1="110.79356" x2="46.59203" y2="109.51073" stroke="green" stroke-width="0.04000"/>
    <line x1="42.29319" y1="110.72046" x2="46.46686" y2="109.44444" stroke="green" stroke-width="0.04000"/>
    <line x1="42.19083" y1="110.64718" x2="46.34168" y2="109.37814" stroke="green" stroke-width="0.04000"/>
    <line x1="42.09037" y1="110.57333" x2="46.21651" y2="109.31184" stroke="green" stroke-width="0.04000"/>
    <line x1="41.99527" y1="110.49783" x2="46.09537" y2="109.24430" stroke="green" stroke-width="0.04000"/>
    <line x1="41.90697" y1="110.42026" x2="45.98257" y2="109.17422" stroke="green" stroke-width="0.04000"/>
    <line x1="41.82497" y1="110.34075" x2="45.86977" y2="109.10413" stroke="green" stroke-width="0.04000"/>
    <line x1="41.74298" y1="110.26125" x2="45.75698" y2="109.03406" stroke="green" stroke-width="0.04000"/>
    <line x1="41.66098" y1="110.18176" x2="45.64545" y2="108.96358" stroke="green" stroke-width="0.04000"/>
    <line x1="41.57899" y1="110.10226" x2="45.53616" y2="108.89243" stroke="green" stroke-width="0.04000"/>
    <line x1="41.49699" y1="110.02275" x2="45.42326" y2="108.82237" stroke="green" stroke-width="0.04000"/>
    <line x1="41.41596" y1="109.94296" x2="45.30354" y2="108.75441" stroke="green" stroke-width="0.04000"/>
    <line x1="41.33939" y1="109.86179" x2="45.18380" y2="108.68644" stroke="green" stroke-width="0.04000"/>
    <line x1="41.26282" y1="109.78064" x2="45.11090" y2="108.60416" stroke="green" stroke-width="0.04000"/>
    <line x1="41.18625" y1="109.69948" x2="45.04038" y2="108.52115" stroke="green" stroke-width="0.04000"/>
    <line x1="41.10968" y1="109.61832" x2="44.96987" y2="108.43814" stroke="green" stroke-width="0.04000"/>
    <line x1="41.03312" y1="109.53716" x2="44.89935" y2="108.35513" stroke="green" stroke-width="0.04000"/>
    <line x1="40.95654" y1="109.45600" x2="44.82901" y2="108.27207" stroke="green" stroke-width="0.04000"/>
    <line x1="40.87997" y1="109.37484" x2="44.75930" y2="108.18881" stroke="green" stroke-width="0.04000"/>
    <line x1="40.82074" y1="109.28838" x2="44.68958" y2="108.10556" stroke="green" stroke-width="0.04000"/>
    <line x1="40.75874" y1="109.20277" x2="44.61987" y2="108.02230" stroke="green" stroke-width="0.04000"/>
    <line x1="40.69561" y1="109.11750" x2="44.54992" y2="107.93912" stroke="green" stroke-width="0.04000"/>
    <line x1="40.63249" y1="109.03223" x2="44.47947" y2="107.85609" stroke="green" stroke-width="0.04000"/>
    <line x1="40.56936" y1="108.94696" x2="44.40900" y2="107.77306" stroke="green" stroke-width="0.04000"/>
    <line x1="40.50624" y1="108.86169" x2="44.33854" y2="107.69004" stroke="green" stroke-width="0.04000"/>
    <line x1="40.44311" y1="108.77642" x2="44.26808" y2="107.60701" stroke="green" stroke-width="0.04000"/>
    <line x1="40.37999" y1="108.69115" x2="44.19784" y2="107.52392" stroke="green" stroke-width="0.04000"/>
    <line x1="40.31686" y1="108.60588" x2="44.12779" y2="107.44076" stroke="green" stroke-width="0.04000"/>
    <line x1="40.25374" y1="108.52061" x2="44.05775" y2="107.35761" stroke="green" stroke-width="0.04000"/>
    <line x1="40.24411" y1="108.41898" x2="43.98769" y2="107.27445" stroke="green" stroke-width="0.04000"/>
    <line x1="40.24028" y1="108.31559" x2="43.91765" y2="107.19130" stroke="green" stroke-width="0.04000"/>
    <line x1="40.22572" y1="108.21547" x2="43.83473" y2="107.11208" stroke="green" stroke-width="0.04000"/>
    <line x1="40.21116" y1="108.11535" x2="43.74941" y2="107.03360" stroke="green" stroke-width="0.04000"/>
    <line x1="40.19660" y1="108.01523" x2="43.66408" y2="106.95512" stroke="green" stroke-width="0.04000"/>
    <line x1="40.18204" y1="107.91512" x2="43.57875" y2="106.87664" stroke="green" stroke-width="0.04000"/>
    <line x1="40.16748" y1="107.81499" x2="43.42676" y2="106.81853" stroke="green" stroke-width="0.04000"/>
    <line x1="40.15292" y1="107.71488" x2="43.26434" y2="106.76363" stroke="green" stroke-width="0.04000"/>
    <line x1="40.14153" y1="107.61379" x2="43.14681" y2="106.69498" stroke="green" stroke-width="0.04000"/>
    <line x1="40.15934" y1="107.50378" x2="43.03233" y2="106.62542" stroke="green" stroke-width="0.04000"/>
    <line x1="40.17715" y1="107.39377" x2="42.91785" y2="106.55585" stroke="green" stroke-width="0.04000"/>
    <line x1="40.19496" y1="107.28375" x2="42.80338" y2="106.48627" stroke="green" stroke-width="0.04000"/>
    <line x1="40.21277" y1="107.17374" x2="42.63816" y2="106.43222" stroke="green" stroke-width="0.04000"/>
    <line x1="40.29695" y1="107.04343" x2="42.47032" y2="106.37897" stroke="green" stroke-width="0.04000"/>
    <line x1="40.42870" y1="106.89858" x2="42.30249" y2="106.32571" stroke="green" stroke-width="0.04000"/>
    <line x1="40.56045" y1="106.75373" x2="42.13465" y2="106.27245" stroke="green" stroke-width="0.04000"/>
    <line x1="40.69220" y1="106.60889" x2="41.79517" y2="106.27168" stroke="green" stroke-width="0.04000"/>
    <line x1="40.82460" y1="106.46384" x2="40.89684" y2="106.44175" stroke="green" stroke-width="0.04000"/>
    <path d="M 33.4661 114.046 L 33.5183 114.125 L 33.6684 114.322 L 34.1177 114.921 L 34.3258 115.249 L 34.534 115.792 L 34.713 116.312 L 34.8304 116.665 L 34.9882 117.205 L 35.1105 117.698 L 35.1347 117.866 L 35.3407 118.859 L 35.3528 118.968 L 35.4719 119.795 L 35.5177 120.144 L 35.6343 120.783 L 35.6584 121.336 L 35.7314 121.867 L 35.718 122.501 L 35.7966 123.361 L 35.7945 123.485 L 35.8088 123.771 L 35.8354 124.48 L 35.8735 124.795 L 35.9006 125.478 L 35.9517 126.295 L 35.9466 126.362 L 35.8726 127.179 L 35.4045 127.336 L 34.9278 127.353 L 34.6899 127.103 L 34.2638 126.659 L 33.9055 125.816 L 33.8832 125.76 L 33.8337 125.625 L 33.5121 124.808 L 33.3223 124.387 L 33.1077 123.872 L 32.9199 123.371 L 32.7108 122.912 L 32.5393 122.541 L 32.304 121.898 L 31.9939 121.252 L 31.922 121.057 L 31.7332 120.685 L 31.405 120.239 L 31.1081 119.867 L 30.8868 119.583 L 30.5974 118.882 L 30.4482 118.616 L 30.6203 117.918 L 30.5847 117.184 L 30.7279 116.819 L 30.9709 115.892 L 31.0383 115.791 L 31.2966 115.286 L 31.5213 114.873 L 31.5643 114.772 L 32.3002 114.111 L 32.3084 114.102 L 32.3297 114.094 L 33.3494 114.008 L 33.4661 114.046" fill="none" stroke="blue" stroke-width="0.04000" fill-rule="evenodd" fill-opacity="1.000"/>
    <path d="M 42.7978 106.483 L 43.254 106.76 L 43.5672 106.866 L 43.9066 107.178 L 44.2355 107.569 L 44.5719 107.965 L 44.8442 108.29 L 45.178 108.683 L 45.4645 108.846 L 45.685 108.989 L 46.1322 109.267 L 46.8807 109.664 L 47.0514 109.757 L 47.1893 109.847 L 47.9488 110.208 L 48.2797 110.37 L 48.842 110.591 L 49.7305 110.998 L 49.7428 111.003 L 49.7507 111.007 L 50.5909 111.345 L 51.0284 111.557 L 51.0284 111.557 L 51.4535 111.763 L 52.241 112.219 L 52.2658 112.288 L 52.3198 112.36 L 52.7581 113.169 L 53.1123 113.735 L 52.8343 113.995 L 52.3409 114.229 L 51.8772 114.097 L 51.5926 114.03 L 50.7877 113.776 L 50.709 113.76 L 50.5127 113.714 L 49.8338 113.528 L 49.5735 113.468 L 48.9126 113.35 L 48.9126 113.35 L 48.1726 113.215 L 47.8748 113.177 L 47.6157 113.149 L 46.9156 112.998 L 46.5028 112.928 L 46.0289 112.789 L 45.2472 112.61 L 45.2345 112.604 L 44.4147 112.18 L 43.7423 111.767 L 43.6236 111.689 L 43.4819 111.598 L 42.8523 111.118 L 42.2437 110.685 L 42.1096 110.589 L 41.9495 110.462 L 41.4295 109.957 L 40.8758 109.37 L 40.8075 109.269 L 40.2473 108.512 L 40.2406 108.318 L 40.1398 107.625 L 40.2202 107.128 L 40.8219 106.466 L 40.8361 106.453 L 40.8454 106.451 L 40.9526 106.431 L 41.8902 106.254 L 42.0181 106.235 L 42.7978 106.483" fill="none" stroke="blue" stroke-width="0.04000" fill-rule="evenodd" fill-opacity="1.000"/>
  </g>
</svg>
