<?xml version="1.0" encoding="UTF-8" standalone="yes"?>
<svg xmlns="http://www.w3.org/2000/svg"
     xmlns:xlink="http://www.w3.org/1999/xlink"
     width="2020.0000mm" height="1600.0000mm"
     viewBox="0 0 202.000000 160.000000">
  <!--
    Build plate : 150.00 x 150.00 mm
    Coordinate  : 1 SVG unit = 1 mm
    Display zoom: 10x  (width/height = viewBox x 10)
    Hatch stroke: 0.04 mm = ~28 mm on screen at this zoom
    Legend panel: right margin (42 mm wide)
  -->
  <defs>
    <marker id="endArrow" markerWidth="2" markerHeight="1.4"
            refX="0" refY="0.7" orient="auto"
            markerUnits="strokeWidth">
      <polyline fill="darkblue" points="0,0 2,0.7 0,1.4 0.2,0.7"/>
    </marker>
  </defs>
  <!-- Background -->
  <rect x="0" y="0" width="202.000000" height="160.000000" fill="#f0f0f0" stroke="none"/>
  <!-- Build plate boundary (150 x 150 mm) -->
  <rect x="5.000000" y="5.000000" width="150.000000" height="150.000000"
        fill="#ffffff" stroke="#aaaaaa" stroke-width="0.2" stroke-dasharray="1,0.5"/>
  <!-- Build plate centre circle (r = 75.00 mm) -->
  <circle cx="80.000000" cy="80.000000" r="75.000000"
          fill="none" stroke="#bbbbbb" stroke-width="0.15" stroke-dasharray="0.8,0.4"/>
  <!-- Centre cross-hair -->
  <line x1="5.000000" y1="80.000000" x2="155.000000" y2="80.000000" stroke="#cccccc" stroke-width="0.1"/>
  <line x1="80.000000" y1="5.000000" x2="80.000000" y2="155.000000" stroke="#cccccc" stroke-width="0.1"/>
  <circle cx="80.000000" cy="80.000000" r="0.3" fill="#cccccc" stroke="none"/>
  <!-- Corner labels -->
  <text x="5.400000" y="4.600000" font-family="sans-serif" font-size="2" fill="#888888">0,0</text>
  <text x="154.600006" y="4.600000" font-family="sans-serif" font-size="2" fill="#888888" text-anchor="end">150,0</text>
  <text x="5.400000" y="157.199997" font-family="sans-serif" font-size="2" fill="#888888">0,150</text>
  <!-- Layer geometry -->
  <g id="geometry">
    <line x1="130.28003" y1="86.77423" x2="136.32379" y2="83.56071" stroke="green" stroke-width="0.04000"/>
    <line x1="130.49303" y1="86.77423" x2="136.32379" y2="83.67396" stroke="green" stroke-width="0.04000"/>
    <line x1="130.70604" y1="86.77423" x2="136.32379" y2="83.78722" stroke="green" stroke-width="0.04000"/>
    <line x1="130.91904" y1="86.77423" x2="136.32379" y2="83.90047" stroke="green" stroke-width="0.04000"/>
    <line x1="131.13205" y1="86.77423" x2="136.32379" y2="84.01373" stroke="green" stroke-width="0.04000"/>
    <line x1="131.34506" y1="86.77423" x2="136.32379" y2="84.12698" stroke="green" stroke-width="0.04000"/>
    <line x1="131.55806" y1="86.77423" x2="136.32379" y2="84.24024" stroke="green" stroke-width="0.04000"/>
    <line x1="131.77106" y1="86.77423" x2="136.32379" y2="84.35350" stroke="green" stroke-width="0.04000"/>
    <line x1="131.98407" y1="86.77423" x2="136.32379" y2="84.46676" stroke="green" stroke-width="0.04000"/>
    <line x1="132.19708" y1="86.77423" x2="136.32379" y2="84.58002" stroke="green" stroke-width="0.04000"/>
    <line x1="132.41008" y1="86.77423" x2="136.32379" y2="84.69328" stroke="green" stroke-width="0.04000"/>
    <line x1="132.62309" y1="86.77423" x2="136.32379" y2="84.80653" stroke="green" stroke-width="0.04000"/>
    <line x1="132.83609" y1="86.77423" x2="136.32379" y2="84.91978" stroke="green" stroke-width="0.04000"/>
    <line x1="133.04910" y1="86.77423" x2="136.32379" y2="85.03304" stroke="green" stroke-width="0.04000"/>
    <line x1="133.26212" y1="86.77423" x2="136.32379" y2="85.14630" stroke="green" stroke-width="0.04000"/>
    <line x1="133.47511" y1="86.77423" x2="136.32379" y2="85.25956" stroke="green" stroke-width="0.04000"/>
    <line x1="133.68811" y1="86.77423" x2="136.32379" y2="85.37282" stroke="green" stroke-width="0.04000"/>
    <line x1="133.90111" y1="86.77423" x2="136.32379" y2="85.48607" stroke="green" stroke-width="0.04000"/>
    <line x1="134.11412" y1="86.77423" x2="136.32379" y2="85.59933" stroke="green" stroke-width="0.04000"/>
    <line x1="134.32712" y1="86.77423" x2="136.32379" y2="85.71259" stroke="green" stroke-width="0.04000"/>
    <line x1="134.54013" y1="86.77423" x2="136.32379" y2="85.82584" stroke="green" stroke-width="0.04000"/>
    <line x1="134.75314" y1="86.77423" x2="136.32379" y2="85.93910" stroke="green" stroke-width="0.04000"/>
    <line x1="134.96616" y1="86.77423" x2="136.32379" y2="86.05236" stroke="green" stroke-width="0.04000"/>
    <line x1="135.17915" y1="86.77423" x2="136.32379" y2="86.16561" stroke="green" stroke-width="0.04000"/>
    <line x1="135.39217" y1="86.77423" x2="136.32379" y2="86.27887" stroke="green" stroke-width="0.04000"/>
    <line x1="135.60516" y1="86.77423" x2="136.32379" y2="86.39213" stroke="green" stroke-width="0.04000"/>
    <line x1="135.81818" y1="86.77423" x2="136.32379" y2="86.50539" stroke="green" stroke-width="0.04000"/>
    <line x1="136.03117" y1="86.77423" x2="136.32379" y2="86.61864" stroke="green" stroke-width="0.04000"/>
    <line x1="136.24419" y1="86.77423" x2="136.32379" y2="86.73190" stroke="green" stroke-width="0.04000"/>
    <line x1="123.67686" y1="86.77423" x2="136.32379" y2="80.04974" stroke="green" stroke-width="0.04000"/>
    <line x1="123.88987" y1="86.77423" x2="136.32379" y2="80.16299" stroke="green" stroke-width="0.04000"/>
    <line x1="124.10287" y1="86.77423" x2="136.32379" y2="80.27625" stroke="green" stroke-width="0.04000"/>
    <line x1="124.31587" y1="86.77423" x2="136.32379" y2="80.38950" stroke="green" stroke-width="0.04000"/>
    <line x1="124.52888" y1="86.77423" x2="136.32379" y2="80.50276" stroke="green" stroke-width="0.04000"/>
    <line x1="124.74189" y1="86.77423" x2="136.32379" y2="80.61602" stroke="green" stroke-width="0.04000"/>
    <line x1="124.95489" y1="86.77423" x2="136.32379" y2="80.72928" stroke="green" stroke-width="0.04000"/>
    <line x1="125.16790" y1="86.77423" x2="136.32379" y2="80.84254" stroke="green" stroke-width="0.04000"/>
    <line x1="125.38091" y1="86.77423" x2="136.32379" y2="80.95580" stroke="green" stroke-width="0.04000"/>
    <line x1="125.59391" y1="86.77423" x2="136.32379" y2="81.06905" stroke="green" stroke-width="0.04000"/>
    <line x1="125.80692" y1="86.77423" x2="136.32379" y2="81.18230" stroke="green" stroke-width="0.04000"/>
    <line x1="126.01992" y1="86.77423" x2="136.32379" y2="81.29556" stroke="green" stroke-width="0.04000"/>
    <line x1="126.23293" y1="86.77423" x2="136.32379" y2="81.40882" stroke="green" stroke-width="0.04000"/>
    <line x1="126.44593" y1="86.77423" x2="136.32379" y2="81.52208" stroke="green" stroke-width="0.04000"/>
    <line x1="126.65893" y1="86.77423" x2="136.32379" y2="81.63533" stroke="green" stroke-width="0.04000"/>
    <line x1="126.87193" y1="86.77423" x2="136.32379" y2="81.74859" stroke="green" stroke-width="0.04000"/>
    <line x1="127.08495" y1="86.77423" x2="136.32379" y2="81.86185" stroke="green" stroke-width="0.04000"/>
    <line x1="127.29794" y1="86.77423" x2="136.32379" y2="81.97511" stroke="green" stroke-width="0.04000"/>
    <line x1="127.51096" y1="86.77423" x2="136.32379" y2="82.08836" stroke="green" stroke-width="0.04000"/>
    <line x1="127.72396" y1="86.77423" x2="136.32379" y2="82.20162" stroke="green" stroke-width="0.04000"/>
    <line x1="127.93697" y1="86.77423" x2="136.32379" y2="82.31488" stroke="green" stroke-width="0.04000"/>
    <line x1="128.14996" y1="86.77423" x2="136.32379" y2="82.42813" stroke="green" stroke-width="0.04000"/>
    <line x1="128.36298" y1="86.77423" x2="136.32379" y2="82.54139" stroke="green" stroke-width="0.04000"/>
    <line x1="128.57599" y1="86.77423" x2="136.32379" y2="82.65465" stroke="green" stroke-width="0.04000"/>
    <line x1="128.78899" y1="86.77423" x2="136.32379" y2="82.76790" stroke="green" stroke-width="0.04000"/>
    <line x1="129.00198" y1="86.77423" x2="136.32379" y2="82.88116" stroke="green" stroke-width="0.04000"/>
    <line x1="129.21500" y1="86.77423" x2="136.32379" y2="82.99442" stroke="green" stroke-width="0.04000"/>
    <line x1="129.42801" y1="86.77423" x2="136.32379" y2="83.10768" stroke="green" stroke-width="0.04000"/>
    <line x1="129.64101" y1="86.77423" x2="136.32379" y2="83.22092" stroke="green" stroke-width="0.04000"/>
    <line x1="130.12753" y1="86.74205" x2="136.32379" y2="83.44744" stroke="green" stroke-width="0.04000"/>
    <line x1="129.91454" y1="86.74205" x2="136.32379" y2="83.33419" stroke="green" stroke-width="0.04000"/>
    <line x1="123.62379" y1="86.68919" x2="136.32379" y2="79.93648" stroke="green" stroke-width="0.04000"/>
    <line x1="123.62379" y1="86.57594" x2="136.32379" y2="79.82323" stroke="green" stroke-width="0.04000"/>
    <line x1="123.62379" y1="86.46268" x2="136.32379" y2="79.70997" stroke="green" stroke-width="0.04000"/>
    <line x1="123.62379" y1="86.34942" x2="136.32379" y2="79.59670" stroke="green" stroke-width="0.04000"/>
    <line x1="123.62379" y1="86.23616" x2="136.32379" y2="79.48344" stroke="green" stroke-width="0.04000"/>
    <line x1="123.62379" y1="86.12291" x2="136.32379" y2="79.37019" stroke="green" stroke-width="0.04000"/>
    <line x1="123.62379" y1="86.00965" x2="136.32379" y2="79.25694" stroke="green" stroke-width="0.04000"/>
    <line x1="123.62379" y1="85.89639" x2="136.32379" y2="79.14368" stroke="green" stroke-width="0.04000"/>
    <line x1="123.62379" y1="85.78313" x2="136.32379" y2="79.03042" stroke="green" stroke-width="0.04000"/>
    <line x1="123.62379" y1="85.66988" x2="136.32379" y2="78.91717" stroke="green" stroke-width="0.04000"/>
    <line x1="123.62379" y1="85.55662" x2="136.32379" y2="78.80391" stroke="green" stroke-width="0.04000"/>
    <line x1="123.62379" y1="85.44336" x2="136.32379" y2="78.69065" stroke="green" stroke-width="0.04000"/>
    <line x1="123.62379" y1="85.33011" x2="136.32379" y2="78.57739" stroke="green" stroke-width="0.04000"/>
    <line x1="123.62379" y1="85.21685" x2="136.32379" y2="78.46414" stroke="green" stroke-width="0.04000"/>
    <line x1="123.62379" y1="85.10359" x2="136.32379" y2="78.35088" stroke="green" stroke-width="0.04000"/>
    <line x1="123.62379" y1="84.99033" x2="136.32379" y2="78.23763" stroke="green" stroke-width="0.04000"/>
    <line x1="123.62379" y1="84.87708" x2="136.32379" y2="78.12437" stroke="green" stroke-width="0.04000"/>
    <line x1="123.62379" y1="84.76382" x2="136.32379" y2="78.01111" stroke="green" stroke-width="0.04000"/>
    <line x1="123.62379" y1="84.65057" x2="136.32379" y2="77.89785" stroke="green" stroke-width="0.04000"/>
    <line x1="123.62379" y1="84.53731" x2="136.32379" y2="77.78459" stroke="green" stroke-width="0.04000"/>
    <line x1="123.62379" y1="84.42406" x2="136.32379" y2="77.67134" stroke="green" stroke-width="0.04000"/>
    <line x1="123.62379" y1="84.31080" x2="136.32379" y2="77.55808" stroke="green" stroke-width="0.04000"/>
    <line x1="123.62379" y1="84.19754" x2="136.32379" y2="77.44482" stroke="green" stroke-width="0.04000"/>
    <line x1="123.62379" y1="84.08428" x2="136.32379" y2="77.33157" stroke="green" stroke-width="0.04000"/>
    <line x1="123.62379" y1="83.97102" x2="136.32379" y2="77.21832" stroke="green" stroke-width="0.04000"/>
    <line x1="123.62379" y1="83.85777" x2="136.32379" y2="77.10506" stroke="green" stroke-width="0.04000"/>
    <line x1="123.62379" y1="83.74451" x2="136.32379" y2="76.99180" stroke="green" stroke-width="0.04000"/>
    <line x1="123.62379" y1="83.63126" x2="136.32379" y2="76.87854" stroke="green" stroke-width="0.04000"/>
    <line x1="123.62379" y1="83.51800" x2="136.32379" y2="76.76528" stroke="green" stroke-width="0.04000"/>
    <line x1="123.62379" y1="83.40474" x2="136.32379" y2="76.65202" stroke="green" stroke-width="0.04000"/>
    <line x1="123.62379" y1="83.29148" x2="136.32379" y2="76.53876" stroke="green" stroke-width="0.04000"/>
    <line x1="123.62379" y1="83.17822" x2="136.32379" y2="76.42551" stroke="green" stroke-width="0.04000"/>
    <line x1="123.62379" y1="83.06496" x2="136.32379" y2="76.31226" stroke="green" stroke-width="0.04000"/>
    <line x1="123.62379" y1="82.95171" x2="136.32379" y2="76.19900" stroke="green" stroke-width="0.04000"/>
    <line x1="123.62379" y1="82.83845" x2="136.32379" y2="76.08574" stroke="green" stroke-width="0.04000"/>
    <line x1="123.62379" y1="82.72520" x2="136.32379" y2="75.97248" stroke="green" stroke-width="0.04000"/>
    <line x1="123.62379" y1="82.61194" x2="136.32379" y2="75.85922" stroke="green" stroke-width="0.04000"/>
    <line x1="123.62379" y1="82.49868" x2="136.32379" y2="75.74596" stroke="green" stroke-width="0.04000"/>
    <line x1="123.62379" y1="82.38543" x2="136.32379" y2="75.63271" stroke="green" stroke-width="0.04000"/>
    <line x1="123.62379" y1="82.27216" x2="136.32379" y2="75.51945" stroke="green" stroke-width="0.04000"/>
    <line x1="123.62379" y1="82.15891" x2="136.32379" y2="75.40620" stroke="green" stroke-width="0.04000"/>
    <line x1="123.62379" y1="82.04565" x2="136.32379" y2="75.29294" stroke="green" stroke-width="0.04000"/>
    <line x1="123.62379" y1="81.93240" x2="136.32379" y2="75.17969" stroke="green" stroke-width="0.04000"/>
    <line x1="123.62379" y1="81.81914" x2="136.32379" y2="75.06643" stroke="green" stroke-width="0.04000"/>
    <line x1="123.62379" y1="81.70588" x2="136.32379" y2="74.95317" stroke="green" stroke-width="0.04000"/>
    <line x1="123.62379" y1="81.59262" x2="136.32379" y2="74.83991" stroke="green" stroke-width="0.04000"/>
    <line x1="123.62379" y1="81.47937" x2="136.32379" y2="74.72666" stroke="green" stroke-width="0.04000"/>
    <line x1="123.62379" y1="81.36611" x2="136.32379" y2="74.61340" stroke="green" stroke-width="0.04000"/>
    <line x1="123.62379" y1="81.25285" x2="136.32379" y2="74.50014" stroke="green" stroke-width="0.04000"/>
    <line x1="123.62379" y1="81.13960" x2="136.32379" y2="74.38689" stroke="green" stroke-width="0.04000"/>
    <line x1="123.62379" y1="81.02634" x2="136.32379" y2="74.27363" stroke="green" stroke-width="0.04000"/>
    <line x1="123.62379" y1="80.91309" x2="136.32379" y2="74.16037" stroke="green" stroke-width="0.04000"/>
    <line x1="123.62379" y1="80.79983" x2="136.32379" y2="74.04711" stroke="green" stroke-width="0.04000"/>
    <line x1="123.62379" y1="80.68657" x2="136.32379" y2="73.93386" stroke="green" stroke-width="0.04000"/>
    <line x1="123.62379" y1="80.57332" x2="136.32379" y2="73.82060" stroke="green" stroke-width="0.04000"/>
    <line x1="123.62379" y1="80.46006" x2="136.27072" y2="73.73557" stroke="green" stroke-width="0.04000"/>
    <line x1="123.62379" y1="80.34680" x2="136.05771" y2="73.73557" stroke="green" stroke-width="0.04000"/>
    <line x1="123.62379" y1="80.23354" x2="135.84471" y2="73.73557" stroke="green" stroke-width="0.04000"/>
    <line x1="123.62379" y1="80.12029" x2="135.63170" y2="73.73557" stroke="green" stroke-width="0.04000"/>
    <line x1="123.62379" y1="80.00703" x2="135.41869" y2="73.73557" stroke="green" stroke-width="0.04000"/>
    <line x1="123.62379" y1="79.89378" x2="135.20569" y2="73.73557" stroke="green" stroke-width="0.04000"/>
    <line x1="123.62379" y1="79.78052" x2="134.99269" y2="73.73557" stroke="green" stroke-width="0.04000"/>
    <line x1="123.62379" y1="79.66726" x2="134.77968" y2="73.73557" stroke="green" stroke-width="0.04000"/>
    <line x1="123.62379" y1="79.55400" x2="134.56667" y2="73.73557" stroke="green" stroke-width="0.04000"/>
    <line x1="123.62379" y1="79.44074" x2="134.35367" y2="73.73557" stroke="green" stroke-width="0.04000"/>
    <line x1="123.62379" y1="79.32748" x2="134.14066" y2="73.73557" stroke="green" stroke-width="0.04000"/>
    <line x1="123.62379" y1="79.21423" x2="133.92766" y2="73.73557" stroke="green" stroke-width="0.04000"/>
    <line x1="123.62379" y1="79.10098" x2="133.71465" y2="73.73557" stroke="green" stroke-width="0.04000"/>
    <line x1="123.62379" y1="78.98772" x2="133.50165" y2="73.73557" stroke="green" stroke-width="0.04000"/>
    <line x1="123.62379" y1="78.87446" x2="133.28864" y2="73.73557" stroke="green" stroke-width="0.04000"/>
    <line x1="123.62379" y1="78.76120" x2="133.07564" y2="73.73557" stroke="green" stroke-width="0.04000"/>
    <line x1="123.62379" y1="78.64794" x2="132.86263" y2="73.73557" stroke="green" stroke-width="0.04000"/>
    <line x1="123.62379" y1="78.53469" x2="132.64963" y2="73.73557" stroke="green" stroke-width="0.04000"/>
    <line x1="123.62379" y1="78.42143" x2="132.43661" y2="73.73557" stroke="green" stroke-width="0.04000"/>
    <line x1="123.62379" y1="78.30817" x2="132.22360" y2="73.73557" stroke="green" stroke-width="0.04000"/>
    <line x1="123.62379" y1="78.19492" x2="132.01062" y2="73.73557" stroke="green" stroke-width="0.04000"/>
    <line x1="123.62379" y1="78.08166" x2="131.79761" y2="73.73557" stroke="green" stroke-width="0.04000"/>
    <line x1="123.62379" y1="77.96840" x2="131.58459" y2="73.73557" stroke="green" stroke-width="0.04000"/>
    <line x1="123.62379" y1="77.85514" x2="131.37158" y2="73.73557" stroke="green" stroke-width="0.04000"/>
    <line x1="123.62379" y1="77.74189" x2="131.15858" y2="73.73557" stroke="green" stroke-width="0.04000"/>
    <line x1="123.62379" y1="77.62863" x2="130.94559" y2="73.73557" stroke="green" stroke-width="0.04000"/>
    <line x1="123.62379" y1="77.51537" x2="130.73257" y2="73.73557" stroke="green" stroke-width="0.04000"/>
    <line x1="123.62379" y1="77.40211" x2="130.51956" y2="73.73557" stroke="green" stroke-width="0.04000"/>
    <line x1="123.62379" y1="77.28886" x2="130.30656" y2="73.73557" stroke="green" stroke-width="0.04000"/>
    <line x1="123.62379" y1="77.17561" x2="130.09357" y2="73.73557" stroke="green" stroke-width="0.04000"/>
    <line x1="123.62379" y1="77.06235" x2="129.88055" y2="73.73557" stroke="green" stroke-width="0.04000"/>
    <line x1="123.62379" y1="76.94909" x2="129.66754" y2="73.73557" stroke="green" stroke-width="0.04000"/>
    <line x1="123.62379" y1="76.83583" x2="129.45453" y2="73.73557" stroke="green" stroke-width="0.04000"/>
    <line x1="123.62379" y1="76.72258" x2="129.24155" y2="73.73557" stroke="green" stroke-width="0.04000"/>
    <line x1="123.62379" y1="76.60932" x2="129.02853" y2="73.73557" stroke="green" stroke-width="0.04000"/>
    <line x1="123.62379" y1="76.49606" x2="128.81552" y2="73.73557" stroke="green" stroke-width="0.04000"/>
    <line x1="123.62379" y1="76.38280" x2="128.60252" y2="73.73557" stroke="green" stroke-width="0.04000"/>
    <line x1="123.62379" y1="76.26955" x2="128.38953" y2="73.73557" stroke="green" stroke-width="0.04000"/>
    <line x1="123.62379" y1="76.15629" x2="128.17651" y2="73.73557" stroke="green" stroke-width="0.04000"/>
    <line x1="123.62379" y1="76.04304" x2="127.96351" y2="73.73557" stroke="green" stroke-width="0.04000"/>
    <line x1="123.62379" y1="75.92978" x2="127.75050" y2="73.73557" stroke="green" stroke-width="0.04000"/>
    <line x1="123.62379" y1="75.81652" x2="127.53749" y2="73.73557" stroke="green" stroke-width="0.04000"/>
    <line x1="123.62379" y1="75.70326" x2="127.32449" y2="73.73557" stroke="green" stroke-width="0.04000"/>
    <line x1="123.62379" y1="75.59000" x2="127.11148" y2="73.73557" stroke="green" stroke-width="0.04000"/>
    <line x1="123.62379" y1="75.47675" x2="126.89848" y2="73.73557" stroke="green" stroke-width="0.04000"/>
    <line x1="123.62379" y1="75.36349" x2="126.68547" y2="73.73557" stroke="green" stroke-width="0.04000"/>
    <line x1="123.62379" y1="75.25024" x2="126.47247" y2="73.73557" stroke="green" stroke-width="0.04000"/>
    <line x1="123.62379" y1="75.13698" x2="126.25946" y2="73.73557" stroke="green" stroke-width="0.04000"/>
    <line x1="123.62379" y1="75.02372" x2="126.04646" y2="73.73557" stroke="green" stroke-width="0.04000"/>
    <line x1="123.62379" y1="74.91046" x2="125.83344" y2="73.73557" stroke="green" stroke-width="0.04000"/>
    <line x1="123.62379" y1="74.79721" x2="125.62045" y2="73.73557" stroke="green" stroke-width="0.04000"/>
    <line x1="123.62379" y1="74.68395" x2="125.40744" y2="73.73557" stroke="green" stroke-width="0.04000"/>
    <line x1="123.62379" y1="74.57069" x2="125.19443" y2="73.73557" stroke="green" stroke-width="0.04000"/>
    <line x1="123.62379" y1="74.45744" x2="124.98143" y2="73.73557" stroke="green" stroke-width="0.04000"/>
    <line x1="123.62379" y1="74.34418" x2="124.76842" y2="73.73557" stroke="green" stroke-width="0.04000"/>
    <line x1="123.62379" y1="74.23092" x2="124.55541" y2="73.73557" stroke="green" stroke-width="0.04000"/>
    <line x1="123.62379" y1="74.11766" x2="124.34241" y2="73.73557" stroke="green" stroke-width="0.04000"/>
    <line x1="123.62379" y1="74.00441" x2="124.12941" y2="73.73557" stroke="green" stroke-width="0.04000"/>
    <line x1="123.62379" y1="73.89115" x2="123.91640" y2="73.73557" stroke="green" stroke-width="0.04000"/>
    <line x1="123.62379" y1="73.77789" x2="123.70339" y2="73.73557" stroke="green" stroke-width="0.04000"/>
    <path d="M 136.324 86.7742 L 130.224 86.7742 L 130.224 86.7421 L 129.724 86.7421 L 129.724 86.7742 L 123.624 86.7742 L 123.624 73.7356 L 136.324 73.7356 L 136.324 86.7742" fill="none" stroke="blue" stroke-width="0.04000" fill-rule="evenodd" fill-opacity="1.000"/>
  </g>
</svg>
