<?xml version="1.0" encoding="UTF-8" standalone="yes"?>
<svg xmlns="http://www.w3.org/2000/svg"
     xmlns:xlink="http://www.w3.org/1999/xlink"
     width="2020.0000mm" height="1600.0000mm"
     viewBox="0 0 202.000000 160.000000">
  <!--
    Build plate : 150.00 x 150.00 mm
    Coordinate  : 1 SVG unit = 1 mm
    Display zoom: 10x  (width/height = viewBox x 10)
    Hatch stroke: 0.04 mm = ~28 mm on screen at this zoom
    Legend panel: right margin (42 mm wide)
  -->
  <defs>
    <marker id="endArrow" markerWidth="2" markerHeight="1.4"
            refX="0" refY="0.7" orient="auto"
            markerUnits="strokeWidth">
      <polyline fill="darkblue" points="0,0 2,0.7 0,1.4 0.2,0.7"/>
    </marker>
  </defs>
  <!-- Background -->
  <rect x="0" y="0" width="202.000000" height="160.000000" fill="#f0f0f0" stroke="none"/>
  <!-- Build plate boundary (150 x 150 mm) -->
  <rect x="5.000000" y="5.000000" width="150.000000" height="150.000000"
        fill="#ffffff" stroke="#aaaaaa" stroke-width="0.2" stroke-dasharray="1,0.5"/>
  <!-- Build plate centre circle (r = 75.00 mm) -->
  <circle cx="80.000000" cy="80.000000" r="75.000000"
          fill="none" stroke="#bbbbbb" stroke-width="0.15" stroke-dasharray="0.8,0.4"/>
  <!-- Centre cross-hair -->
  <line x1="5.000000" y1="80.000000" x2="155.000000" y2="80.000000" stroke="#cccccc" stroke-width="0.1"/>
  <line x1="80.000000" y1="5.000000" x2="80.000000" y2="155.000000" stroke="#cccccc" stroke-width="0.1"/>
  <circle cx="80.000000" cy="80.000000" r="0.3" fill="#cccccc" stroke="none"/>
  <!-- Corner labels -->
  <text x="5.400000" y="4.600000" font-family="sans-serif" font-size="2" fill="#888888">0,0</text>
  <text x="154.600006" y="4.600000" font-family="sans-serif" font-size="2" fill="#888888" text-anchor="end">150,0</text>
  <text x="5.400000" y="157.199997" font-family="sans-serif" font-size="2" fill="#888888">0,150</text>
  <!-- Layer geometry -->
  <g id="geometry">
    <line x1="33.86177" y1="125.54312" x2="34.86600" y2="126.19528" stroke="green" stroke-width="0.04000"/>
    <line x1="33.80076" y1="125.38426" x2="34.92310" y2="126.11311" stroke="green" stroke-width="0.04000"/>
    <line x1="33.73980" y1="125.22544" x2="34.98018" y2="126.03095" stroke="green" stroke-width="0.04000"/>
    <line x1="33.92373" y1="125.70258" x2="34.39595" y2="126.00925" stroke="green" stroke-width="0.04000"/>
    <line x1="33.67884" y1="125.06662" x2="35.03727" y2="125.94879" stroke="green" stroke-width="0.04000"/>
    <line x1="33.98568" y1="125.86206" x2="34.08031" y2="125.92352" stroke="green" stroke-width="0.04000"/>
    <line x1="33.61789" y1="124.90779" x2="35.09283" y2="125.86563" stroke="green" stroke-width="0.04000"/>
    <line x1="33.55693" y1="124.74898" x2="35.13299" y2="125.77248" stroke="green" stroke-width="0.04000"/>
    <line x1="33.50791" y1="124.59790" x2="35.17315" y2="125.67932" stroke="green" stroke-width="0.04000"/>
    <line x1="33.46326" y1="124.44967" x2="35.21331" y2="125.58616" stroke="green" stroke-width="0.04000"/>
    <line x1="33.41861" y1="124.30144" x2="35.25346" y2="125.49300" stroke="green" stroke-width="0.04000"/>
    <line x1="33.37396" y1="124.15321" x2="35.29362" y2="125.39985" stroke="green" stroke-width="0.04000"/>
    <line x1="33.32932" y1="124.00498" x2="35.33378" y2="125.30669" stroke="green" stroke-width="0.04000"/>
    <line x1="33.28466" y1="123.85674" x2="35.37204" y2="125.21230" stroke="green" stroke-width="0.04000"/>
    <line x1="33.24045" y1="123.70879" x2="35.38183" y2="125.09942" stroke="green" stroke-width="0.04000"/>
    <line x1="33.19888" y1="123.56257" x2="35.39162" y2="124.98655" stroke="green" stroke-width="0.04000"/>
    <line x1="33.15659" y1="123.41586" x2="35.40142" y2="124.87367" stroke="green" stroke-width="0.04000"/>
    <line x1="33.11429" y1="123.26915" x2="35.41338" y2="124.76220" stroke="green" stroke-width="0.04000"/>
    <line x1="33.07200" y1="123.12246" x2="35.42680" y2="124.65169" stroke="green" stroke-width="0.04000"/>
    <line x1="33.02970" y1="122.97575" x2="35.44022" y2="124.54116" stroke="green" stroke-width="0.04000"/>
    <line x1="32.98810" y1="122.82950" x2="35.45364" y2="124.43064" stroke="green" stroke-width="0.04000"/>
    <line x1="32.94664" y1="122.68333" x2="35.46706" y2="124.32011" stroke="green" stroke-width="0.04000"/>
    <line x1="32.90977" y1="122.54015" x2="35.48047" y2="124.20959" stroke="green" stroke-width="0.04000"/>
    <line x1="32.87785" y1="122.40019" x2="35.49389" y2="124.09907" stroke="green" stroke-width="0.04000"/>
    <line x1="32.84592" y1="122.26022" x2="35.50731" y2="123.98854" stroke="green" stroke-width="0.04000"/>
    <line x1="32.81400" y1="122.12025" x2="35.52072" y2="123.87802" stroke="green" stroke-width="0.04000"/>
    <line x1="32.78208" y1="121.98029" x2="35.53414" y2="123.76749" stroke="green" stroke-width="0.04000"/>
    <line x1="32.74560" y1="121.83736" x2="35.53935" y2="123.65164" stroke="green" stroke-width="0.04000"/>
    <line x1="32.70625" y1="121.69258" x2="35.54494" y2="123.53604" stroke="green" stroke-width="0.04000"/>
    <line x1="32.66690" y1="121.54778" x2="35.55053" y2="123.42043" stroke="green" stroke-width="0.04000"/>
    <line x1="32.63634" y1="121.40869" x2="35.55613" y2="123.30482" stroke="green" stroke-width="0.04000"/>
    <line x1="32.60597" y1="121.26974" x2="35.56171" y2="123.18922" stroke="green" stroke-width="0.04000"/>
    <line x1="32.57561" y1="121.13078" x2="35.56731" y2="123.07362" stroke="green" stroke-width="0.04000"/>
    <line x1="32.54525" y1="120.99184" x2="35.57290" y2="122.95802" stroke="green" stroke-width="0.04000"/>
    <line x1="32.51515" y1="120.85305" x2="35.57849" y2="122.84241" stroke="green" stroke-width="0.04000"/>
    <line x1="32.48515" y1="120.71433" x2="35.58408" y2="122.72681" stroke="green" stroke-width="0.04000"/>
    <line x1="32.45515" y1="120.57562" x2="35.59539" y2="122.61491" stroke="green" stroke-width="0.04000"/>
    <line x1="32.42516" y1="120.43690" x2="35.60834" y2="122.50408" stroke="green" stroke-width="0.04000"/>
    <line x1="32.39849" y1="120.30035" x2="35.62128" y2="122.39325" stroke="green" stroke-width="0.04000"/>
    <line x1="32.37366" y1="120.16499" x2="35.63422" y2="122.28242" stroke="green" stroke-width="0.04000"/>
    <line x1="32.34883" y1="120.02962" x2="35.64716" y2="122.17159" stroke="green" stroke-width="0.04000"/>
    <line x1="32.32401" y1="119.89427" x2="35.66010" y2="122.06076" stroke="green" stroke-width="0.04000"/>
    <line x1="32.29874" y1="119.75862" x2="35.67181" y2="121.94912" stroke="green" stroke-width="0.04000"/>
    <line x1="32.27340" y1="119.62293" x2="35.67634" y2="121.83282" stroke="green" stroke-width="0.04000"/>
    <line x1="32.24806" y1="119.48724" x2="35.68086" y2="121.71653" stroke="green" stroke-width="0.04000"/>
    <line x1="32.22272" y1="119.35154" x2="35.68633" y2="121.60085" stroke="green" stroke-width="0.04000"/>
    <line x1="32.19737" y1="119.21585" x2="35.69885" y2="121.48973" stroke="green" stroke-width="0.04000"/>
    <line x1="32.17194" y1="119.08010" x2="35.71136" y2="121.37863" stroke="green" stroke-width="0.04000"/>
    <line x1="32.14619" y1="118.94414" x2="35.72388" y2="121.26752" stroke="green" stroke-width="0.04000"/>
    <line x1="32.11829" y1="118.80679" x2="35.73640" y2="121.15641" stroke="green" stroke-width="0.04000"/>
    <line x1="32.09023" y1="118.66932" x2="35.74892" y2="121.04530" stroke="green" stroke-width="0.04000"/>
    <line x1="32.06216" y1="118.53186" x2="35.76143" y2="120.93419" stroke="green" stroke-width="0.04000"/>
    <line x1="32.03150" y1="118.39272" x2="35.77395" y2="120.82309" stroke="green" stroke-width="0.04000"/>
    <line x1="31.98695" y1="118.24454" x2="35.78640" y2="120.71194" stroke="green" stroke-width="0.04000"/>
    <line x1="31.94240" y1="118.09637" x2="35.79599" y2="120.59892" stroke="green" stroke-width="0.04000"/>
    <line x1="31.88930" y1="117.94266" x2="35.80795" y2="120.48746" stroke="green" stroke-width="0.04000"/>
    <line x1="31.80164" y1="117.76649" x2="35.81989" y2="120.37597" stroke="green" stroke-width="0.04000"/>
    <line x1="31.73130" y1="117.60159" x2="35.83182" y2="120.26449" stroke="green" stroke-width="0.04000"/>
    <line x1="31.66097" y1="117.43667" x2="35.84376" y2="120.15300" stroke="green" stroke-width="0.04000"/>
    <line x1="31.59063" y1="117.27175" x2="35.85569" y2="120.04151" stroke="green" stroke-width="0.04000"/>
    <line x1="31.50797" y1="117.09884" x2="35.86762" y2="119.93003" stroke="green" stroke-width="0.04000"/>
    <line x1="31.40253" y1="116.91113" x2="35.87956" y2="119.81854" stroke="green" stroke-width="0.04000"/>
    <line x1="31.29709" y1="116.72342" x2="35.89149" y2="119.70705" stroke="green" stroke-width="0.04000"/>
    <line x1="31.19409" y1="116.53729" x2="35.90268" y2="119.59509" stroke="green" stroke-width="0.04000"/>
    <line x1="31.10648" y1="116.36116" x2="35.91256" y2="119.48227" stroke="green" stroke-width="0.04000"/>
    <line x1="31.00404" y1="116.17540" x2="35.92244" y2="119.36945" stroke="green" stroke-width="0.04000"/>
    <line x1="30.89977" y1="115.98845" x2="35.93232" y2="119.25662" stroke="green" stroke-width="0.04000"/>
    <line x1="30.83126" y1="115.82472" x2="35.94220" y2="119.14380" stroke="green" stroke-width="0.04000"/>
    <line x1="30.77079" y1="115.66622" x2="35.95208" y2="119.03098" stroke="green" stroke-width="0.04000"/>
    <line x1="30.72048" y1="115.51431" x2="35.96169" y2="118.91799" stroke="green" stroke-width="0.04000"/>
    <line x1="30.71411" y1="115.39093" x2="35.97101" y2="118.80480" stroke="green" stroke-width="0.04000"/>
    <line x1="30.70324" y1="115.26464" x2="35.98032" y2="118.69162" stroke="green" stroke-width="0.04000"/>
    <line x1="30.68711" y1="115.13493" x2="35.98964" y2="118.57843" stroke="green" stroke-width="0.04000"/>
    <line x1="30.67098" y1="115.00522" x2="35.99807" y2="118.46468" stroke="green" stroke-width="0.04000"/>
    <line x1="30.65485" y1="114.87550" x2="36.00594" y2="118.35055" stroke="green" stroke-width="0.04000"/>
    <line x1="30.63872" y1="114.74579" x2="36.01382" y2="118.23643" stroke="green" stroke-width="0.04000"/>
    <line x1="30.62259" y1="114.61608" x2="36.01478" y2="118.11781" stroke="green" stroke-width="0.04000"/>
    <line x1="30.64037" y1="114.50839" x2="36.00433" y2="117.99179" stroke="green" stroke-width="0.04000"/>
    <line x1="30.66343" y1="114.40413" x2="35.99389" y2="117.86577" stroke="green" stroke-width="0.04000"/>
    <line x1="30.68649" y1="114.29987" x2="35.98344" y2="117.73975" stroke="green" stroke-width="0.04000"/>
    <line x1="30.70955" y1="114.19560" x2="35.97300" y2="117.61373" stroke="green" stroke-width="0.04000"/>
    <line x1="30.73224" y1="114.09111" x2="35.96651" y2="117.49029" stroke="green" stroke-width="0.04000"/>
    <line x1="30.73938" y1="113.97652" x2="35.96620" y2="117.37085" stroke="green" stroke-width="0.04000"/>
    <line x1="30.74653" y1="113.86192" x2="35.96590" y2="117.25141" stroke="green" stroke-width="0.04000"/>
    <line x1="30.75368" y1="113.74732" x2="35.96559" y2="117.13198" stroke="green" stroke-width="0.04000"/>
    <line x1="30.76082" y1="113.63273" x2="35.96528" y2="117.01254" stroke="green" stroke-width="0.04000"/>
    <line x1="30.77655" y1="113.52370" x2="35.96497" y2="116.89310" stroke="green" stroke-width="0.04000"/>
    <line x1="30.79265" y1="113.41492" x2="35.96467" y2="116.77367" stroke="green" stroke-width="0.04000"/>
    <line x1="30.80876" y1="113.30614" x2="35.96436" y2="116.65424" stroke="green" stroke-width="0.04000"/>
    <line x1="30.82486" y1="113.19737" x2="35.96287" y2="116.53403" stroke="green" stroke-width="0.04000"/>
    <line x1="30.84096" y1="113.08859" x2="35.95822" y2="116.41177" stroke="green" stroke-width="0.04000"/>
    <line x1="30.85707" y1="112.97980" x2="35.93837" y2="116.27964" stroke="green" stroke-width="0.04000"/>
    <line x1="30.87317" y1="112.87103" x2="35.91198" y2="116.14327" stroke="green" stroke-width="0.04000"/>
    <line x1="30.89468" y1="112.76576" x2="35.88559" y2="116.00690" stroke="green" stroke-width="0.04000"/>
    <line x1="30.92569" y1="112.66667" x2="35.85920" y2="115.87053" stroke="green" stroke-width="0.04000"/>
    <line x1="30.95503" y1="112.56648" x2="35.83282" y2="115.73415" stroke="green" stroke-width="0.04000"/>
    <line x1="30.98655" y1="112.46771" x2="35.80643" y2="115.59778" stroke="green" stroke-width="0.04000"/>
    <line x1="31.01806" y1="112.36894" x2="35.78004" y2="115.46141" stroke="green" stroke-width="0.04000"/>
    <line x1="31.04958" y1="112.27017" x2="35.75558" y2="115.32629" stroke="green" stroke-width="0.04000"/>
    <line x1="31.08110" y1="112.17140" x2="35.73135" y2="115.19131" stroke="green" stroke-width="0.04000"/>
    <line x1="31.11261" y1="112.07264" x2="35.70712" y2="115.05634" stroke="green" stroke-width="0.04000"/>
    <line x1="31.14413" y1="111.97386" x2="35.68288" y2="114.92136" stroke="green" stroke-width="0.04000"/>
    <line x1="31.17564" y1="111.87510" x2="35.65865" y2="114.78640" stroke="green" stroke-width="0.04000"/>
    <line x1="31.20716" y1="111.77633" x2="35.63442" y2="114.65143" stroke="green" stroke-width="0.04000"/>
    <line x1="31.23500" y1="111.67517" x2="35.60624" y2="114.51389" stroke="green" stroke-width="0.04000"/>
    <line x1="31.26059" y1="111.57255" x2="35.57685" y2="114.37556" stroke="green" stroke-width="0.04000"/>
    <line x1="31.28617" y1="111.46992" x2="35.52201" y2="114.22071" stroke="green" stroke-width="0.04000"/>
    <line x1="31.33786" y1="111.38425" x2="35.46716" y2="114.06586" stroke="green" stroke-width="0.04000"/>
    <line x1="31.39570" y1="111.30259" x2="35.41233" y2="113.91101" stroke="green" stroke-width="0.04000"/>
    <line x1="31.45355" y1="111.22092" x2="35.35748" y2="113.75616" stroke="green" stroke-width="0.04000"/>
    <line x1="31.51140" y1="111.13925" x2="35.30264" y2="113.60132" stroke="green" stroke-width="0.04000"/>
    <line x1="31.56925" y1="111.05758" x2="35.24840" y2="113.44685" stroke="green" stroke-width="0.04000"/>
    <line x1="31.62710" y1="110.97591" x2="35.19444" y2="113.29256" stroke="green" stroke-width="0.04000"/>
    <line x1="31.68494" y1="110.89424" x2="35.13765" y2="113.13646" stroke="green" stroke-width="0.04000"/>
    <line x1="31.73396" y1="110.80684" x2="35.07957" y2="112.97950" stroke="green" stroke-width="0.04000"/>
    <line x1="31.78228" y1="110.71897" x2="35.02148" y2="112.82254" stroke="green" stroke-width="0.04000"/>
    <line x1="31.83059" y1="110.63112" x2="34.96341" y2="112.66559" stroke="green" stroke-width="0.04000"/>
    <line x1="31.87890" y1="110.54325" x2="34.90532" y2="112.50863" stroke="green" stroke-width="0.04000"/>
    <line x1="31.92721" y1="110.45539" x2="34.84061" y2="112.34737" stroke="green" stroke-width="0.04000"/>
    <line x1="31.98630" y1="110.37452" x2="34.76553" y2="112.17938" stroke="green" stroke-width="0.04000"/>
    <line x1="32.08480" y1="110.31925" x2="34.68433" y2="112.00741" stroke="green" stroke-width="0.04000"/>
    <line x1="32.18330" y1="110.26399" x2="34.60316" y2="111.83546" stroke="green" stroke-width="0.04000"/>
    <line x1="32.28181" y1="110.20872" x2="34.52198" y2="111.66351" stroke="green" stroke-width="0.04000"/>
    <line x1="32.38031" y1="110.15345" x2="34.44080" y2="111.49155" stroke="green" stroke-width="0.04000"/>
    <line x1="32.47655" y1="110.09672" x2="34.31657" y2="111.29164" stroke="green" stroke-width="0.04000"/>
    <line x1="32.56768" y1="110.03666" x2="34.14769" y2="111.06273" stroke="green" stroke-width="0.04000"/>
    <line x1="32.65880" y1="109.97660" x2="34.01352" y2="110.85636" stroke="green" stroke-width="0.04000"/>
    <line x1="32.74993" y1="109.91654" x2="33.89772" y2="110.66193" stroke="green" stroke-width="0.04000"/>
    <line x1="33.33154" y1="110.17501" x2="33.78193" y2="110.46749" stroke="green" stroke-width="0.04000"/>
    <line x1="38.00778" y1="106.08215" x2="47.01368" y2="111.93065" stroke="green" stroke-width="0.04000"/>
    <line x1="38.04267" y1="105.98557" x2="47.19551" y2="111.92950" stroke="green" stroke-width="0.04000"/>
    <line x1="38.07774" y1="105.88911" x2="47.37165" y2="111.92464" stroke="green" stroke-width="0.04000"/>
    <line x1="37.97291" y1="106.17875" x2="46.81647" y2="111.92181" stroke="green" stroke-width="0.04000"/>
    <line x1="38.11280" y1="105.79265" x2="47.53727" y2="111.91297" stroke="green" stroke-width="0.04000"/>
    <line x1="37.93805" y1="106.27534" x2="46.61473" y2="111.91005" stroke="green" stroke-width="0.04000"/>
    <line x1="38.14787" y1="105.69618" x2="47.70290" y2="111.90129" stroke="green" stroke-width="0.04000"/>
    <line x1="37.91785" y1="106.38145" x2="46.41300" y2="111.89828" stroke="green" stroke-width="0.04000"/>
    <line x1="38.18295" y1="105.59972" x2="47.86853" y2="111.88962" stroke="green" stroke-width="0.04000"/>
    <line x1="37.96011" y1="106.52814" x2="46.21127" y2="111.88651" stroke="green" stroke-width="0.04000"/>
    <line x1="38.00237" y1="106.67481" x2="46.00801" y2="111.87374" stroke="green" stroke-width="0.04000"/>
    <line x1="38.21801" y1="105.50326" x2="48.01574" y2="111.86597" stroke="green" stroke-width="0.04000"/>
    <line x1="38.04462" y1="106.82150" x2="45.80024" y2="111.85805" stroke="green" stroke-width="0.04000"/>
    <line x1="38.08689" y1="106.96818" x2="45.59246" y2="111.84236" stroke="green" stroke-width="0.04000"/>
    <line x1="38.30498" y1="105.44051" x2="48.14844" y2="111.83292" stroke="green" stroke-width="0.04000"/>
    <line x1="38.12960" y1="107.11515" x2="45.38470" y2="111.82667" stroke="green" stroke-width="0.04000"/>
    <line x1="38.39212" y1="105.37785" x2="48.29967" y2="111.81189" stroke="green" stroke-width="0.04000"/>
    <line x1="38.17284" y1="107.26247" x2="45.17430" y2="111.80927" stroke="green" stroke-width="0.04000"/>
    <line x1="38.47926" y1="105.31521" x2="48.45732" y2="111.79504" stroke="green" stroke-width="0.04000"/>
    <line x1="38.56641" y1="105.25256" x2="48.61497" y2="111.77818" stroke="green" stroke-width="0.04000"/>
    <line x1="38.65411" y1="105.19028" x2="48.77263" y2="111.76133" stroke="green" stroke-width="0.04000"/>
    <line x1="38.27047" y1="107.44511" x2="44.90785" y2="111.75547" stroke="green" stroke-width="0.04000"/>
    <line x1="38.74546" y1="105.13038" x2="48.93028" y2="111.74447" stroke="green" stroke-width="0.04000"/>
    <line x1="38.83682" y1="105.07046" x2="49.05709" y2="111.70758" stroke="green" stroke-width="0.04000"/>
    <line x1="38.42205" y1="107.66278" x2="44.62274" y2="111.68955" stroke="green" stroke-width="0.04000"/>
    <line x1="38.92817" y1="105.01055" x2="49.17231" y2="111.66318" stroke="green" stroke-width="0.04000"/>
    <line x1="38.57364" y1="107.88046" x2="44.33761" y2="111.62363" stroke="green" stroke-width="0.04000"/>
    <line x1="39.01952" y1="104.95064" x2="49.28754" y2="111.61877" stroke="green" stroke-width="0.04000"/>
    <line x1="39.15996" y1="104.92260" x2="49.41075" y2="111.57954" stroke="green" stroke-width="0.04000"/>
    <line x1="39.31307" y1="104.90280" x2="49.54396" y2="111.54682" stroke="green" stroke-width="0.04000"/>
    <line x1="38.83411" y1="108.16885" x2="44.02536" y2="111.54008" stroke="green" stroke-width="0.04000"/>
    <line x1="39.46619" y1="104.88300" x2="49.67719" y2="111.51410" stroke="green" stroke-width="0.04000"/>
    <line x1="39.61930" y1="104.86320" x2="49.81041" y2="111.48138" stroke="green" stroke-width="0.04000"/>
    <line x1="39.09590" y1="108.45809" x2="43.71271" y2="111.45628" stroke="green" stroke-width="0.04000"/>
    <line x1="39.76574" y1="104.83906" x2="49.91233" y2="111.42834" stroke="green" stroke-width="0.04000"/>
    <line x1="39.91080" y1="104.81403" x2="49.99160" y2="111.36057" stroke="green" stroke-width="0.04000"/>
    <line x1="40.05587" y1="104.78899" x2="50.07087" y2="111.29281" stroke="green" stroke-width="0.04000"/>
    <line x1="39.39052" y1="108.76866" x2="43.22874" y2="111.26123" stroke="green" stroke-width="0.04000"/>
    <line x1="40.35512" y1="104.86410" x2="50.15013" y2="111.22505" stroke="green" stroke-width="0.04000"/>
    <line x1="40.72327" y1="104.98393" x2="50.22940" y2="111.15729" stroke="green" stroke-width="0.04000"/>
    <line x1="43.10642" y1="106.41234" x2="50.30866" y2="111.08953" stroke="green" stroke-width="0.04000"/>
    <line x1="43.81476" y1="106.75311" x2="50.38793" y2="111.02177" stroke="green" stroke-width="0.04000"/>
    <line x1="39.79165" y1="109.14839" x2="42.57730" y2="110.95741" stroke="green" stroke-width="0.04000"/>
    <line x1="44.18351" y1="106.87334" x2="50.46719" y2="110.95401" stroke="green" stroke-width="0.04000"/>
    <line x1="44.43879" y1="106.91988" x2="50.54646" y2="110.88625" stroke="green" stroke-width="0.04000"/>
    <line x1="44.68244" y1="106.95887" x2="50.60854" y2="110.80733" stroke="green" stroke-width="0.04000"/>
    <line x1="44.97548" y1="107.02994" x2="50.51627" y2="110.62817" stroke="green" stroke-width="0.04000"/>
    <line x1="40.56611" y1="109.77057" x2="41.78918" y2="110.56483" stroke="green" stroke-width="0.04000"/>
    <line x1="45.26853" y1="107.10101" x2="50.42276" y2="110.44821" stroke="green" stroke-width="0.04000"/>
    <line x1="45.55185" y1="107.16576" x2="50.32926" y2="110.26825" stroke="green" stroke-width="0.04000"/>
    <line x1="46.72192" y1="107.80638" x2="50.23577" y2="110.08830" stroke="green" stroke-width="0.04000"/>
    <line x1="47.08712" y1="107.92431" x2="50.14273" y2="109.90865" stroke="green" stroke-width="0.04000"/>
    <line x1="47.42015" y1="108.02134" x2="50.05042" y2="109.72946" stroke="green" stroke-width="0.04000"/>
    <line x1="47.74390" y1="108.11236" x2="49.39507" y2="109.18463" stroke="green" stroke-width="0.04000"/>
    <line x1="48.14141" y1="108.25126" x2="49.24527" y2="108.96812" stroke="green" stroke-width="0.04000"/>
    <line x1="48.46247" y1="108.34052" x2="49.06611" y2="108.73254" stroke="green" stroke-width="0.04000"/>
    <line x1="45.82351" y1="107.22295" x2="46.68262" y2="107.78087" stroke="green" stroke-width="0.04000"/>
    <line x1="46.10126" y1="107.28408" x2="46.40323" y2="107.48019" stroke="green" stroke-width="0.04000"/>
    <line x1="41.01273" y1="105.05268" x2="42.11928" y2="105.77129" stroke="green" stroke-width="0.04000"/>
    <path d="M 33.3039 110.162 L 33.7106 110.348 L 34.0892 110.983 L 34.3995 111.404 L 34.7626 112.173 L 34.7626 112.173 L 34.802 112.257 L 34.8795 112.439 L 35.1775 113.244 L 35.2847 113.551 L 35.5868 114.404 L 35.6047 114.507 L 35.6286 114.619 L 35.7772 115.447 L 35.9567 116.375 L 35.9606 116.471 L 35.9641 116.569 L 35.9666 117.537 L 36.0187 118.165 L 35.9933 118.534 L 35.9573 118.971 L 35.8991 119.636 L 35.7985 120.576 L 35.7904 120.651 L 35.7863 120.713 L 35.6849 121.614 L 35.6711 121.966 L 35.5853 122.701 L 35.5382 123.676 L 35.5343 123.732 L 35.5342 123.767 L 35.4053 124.829 L 35.3714 125.219 L 35.0892 125.874 L 34.8518 126.216 L 34.5182 126.042 L 34.0012 125.902 L 33.858 125.533 L 33.555 124.744 L 33.5262 124.659 L 33.2914 123.879 L 33.2914 123.879 L 33.2435 123.72 L 33.2338 123.684 L 33.0221 122.949 L 32.9251 122.607 L 32.7697 121.926 L 32.666 121.545 L 32.537 120.954 L 32.4145 120.388 L 32.3202 119.874 L 32.1784 119.114 L 32.1784 119.114 L 32.1444 118.935 L 32.0385 118.416 L 31.9048 117.971 L 31.8296 117.832 L 31.545 117.165 L 31.206 116.561 L 31.0969 116.342 L 30.8806 115.954 L 30.7217 115.537 L 30.7107 115.324 L 30.6204 114.599 L 30.7321 114.094 L 30.7611 113.628 L 30.8844 112.796 L 30.9083 112.727 L 30.9525 112.574 L 31.2192 111.739 L 31.2911 111.45 L 31.6892 110.888 L 31.9652 110.386 L 32.4486 110.115 L 32.8389 109.858 L 33.3039 110.162" fill="none" stroke="blue" stroke-width="0.04000" fill-rule="evenodd" fill-opacity="1.000"/>
    <path d="M 40.7594 104.996 L 41.1415 105.082 L 41.7988 105.532 L 41.9719 105.631 L 42.2355 105.882 L 42.6742 106.194 L 43.1134 106.416 L 43.5095 106.646 L 44.1284 106.863 L 44.403 106.915 L 44.6131 106.942 L 45.4281 107.14 L 46.0657 107.274 L 46.2642 107.331 L 46.6997 107.799 L 47.1688 107.951 L 47.8246 108.135 L 48.1204 108.245 L 48.6729 108.399 L 48.9164 108.6 L 49.1077 108.769 L 49.4855 109.315 L 49.9725 109.578 L 50.1788 109.979 L 50.6067 110.802 L 50.6122 110.818 L 50.6171 110.827 L 50.6041 110.837 L 49.8664 111.468 L 49.3517 111.594 L 48.9733 111.74 L 48.1826 111.824 L 47.9415 111.884 L 47.3134 111.929 L 46.9684 111.931 L 46.8411 111.923 L 46.0609 111.878 L 45.3326 111.823 L 45.2069 111.813 L 45.1073 111.802 L 44.3336 111.623 L 43.5803 111.421 L 43.4306 111.358 L 43.2974 111.293 L 42.5445 110.942 L 41.8633 110.611 L 41.8061 110.575 L 40.9917 110.1 L 40.9722 110.085 L 40.8785 110.013 L 40.1093 109.416 L 39.9723 109.319 L 39.3738 108.753 L 39.161 108.546 L 39.1104 108.474 L 38.5754 107.883 L 38.1944 107.336 L 38.1096 107.047 L 37.9098 106.354 L 38.039 105.996 L 38.2181 105.503 L 38.6418 105.198 L 39.0383 104.938 L 39.6453 104.86 L 40.1007 104.781 L 40.7594 104.996" fill="none" stroke="blue" stroke-width="0.04000" fill-rule="evenodd" fill-opacity="1.000"/>
  </g>
</svg>
