<?xml version="1.0" encoding="UTF-8" standalone="yes"?>
<svg xmlns="http://www.w3.org/2000/svg"
     xmlns:xlink="http://www.w3.org/1999/xlink"
     width="2020.0000mm" height="1600.0000mm"
     viewBox="0 0 202.000000 160.000000">
  <!--
    Build plate : 150.00 x 150.00 mm
    Coordinate  : 1 SVG unit = 1 mm
    Display zoom: 10x  (width/height = viewBox x 10)
    Hatch stroke: 0.04 mm = ~28 mm on screen at this zoom
    Legend panel: right margin (42 mm wide)
  -->
  <defs>
    <marker id="endArrow" markerWidth="2" markerHeight="1.4"
            refX="0" refY="0.7" orient="auto"
            markerUnits="strokeWidth">
      <polyline fill="darkblue" points="0,0 2,0.7 0,1.4 0.2,0.7"/>
    </marker>
  </defs>
  <!-- Background -->
  <rect x="0" y="0" width="202.000000" height="160.000000" fill="#f0f0f0" stroke="none"/>
  <!-- Build plate boundary (150 x 150 mm) -->
  <rect x="5.000000" y="5.000000" width="150.000000" height="150.000000"
        fill="#ffffff" stroke="#aaaaaa" stroke-width="0.2" stroke-dasharray="1,0.5"/>
  <!-- Build plate centre circle (r = 75.00 mm) -->
  <circle cx="80.000000" cy="80.000000" r="75.000000"
          fill="none" stroke="#bbbbbb" stroke-width="0.15" stroke-dasharray="0.8,0.4"/>
  <!-- Centre cross-hair -->
  <line x1="5.000000" y1="80.000000" x2="155.000000" y2="80.000000" stroke="#cccccc" stroke-width="0.1"/>
  <line x1="80.000000" y1="5.000000" x2="80.000000" y2="155.000000" stroke="#cccccc" stroke-width="0.1"/>
  <circle cx="80.000000" cy="80.000000" r="0.3" fill="#cccccc" stroke="none"/>
  <!-- Corner labels -->
  <text x="5.400000" y="4.600000" font-family="sans-serif" font-size="2" fill="#888888">0,0</text>
  <text x="154.600006" y="4.600000" font-family="sans-serif" font-size="2" fill="#888888" text-anchor="end">150,0</text>
  <text x="5.400000" y="157.199997" font-family="sans-serif" font-size="2" fill="#888888">0,150</text>
  <!-- Layer geometry -->
  <g id="geometry">
    <line x1="35.44218" y1="126.58726" x2="35.06670" y2="127.67772" stroke="green" stroke-width="0.04000"/>
    <line x1="35.38882" y1="126.43504" x2="34.97009" y2="127.65115" stroke="green" stroke-width="0.04000"/>
    <line x1="35.33474" y1="126.28497" x2="34.87348" y2="127.62457" stroke="green" stroke-width="0.04000"/>
    <line x1="35.27913" y1="126.13931" x2="34.77686" y2="127.59800" stroke="green" stroke-width="0.04000"/>
    <line x1="35.22352" y1="125.99366" x2="34.68025" y2="127.57143" stroke="green" stroke-width="0.04000"/>
    <line x1="35.16624" y1="125.85285" x2="34.58364" y2="127.54486" stroke="green" stroke-width="0.04000"/>
    <line x1="35.49553" y1="126.73946" x2="35.21955" y2="127.54096" stroke="green" stroke-width="0.04000"/>
    <line x1="35.10232" y1="125.73134" x2="34.49312" y2="127.50058" stroke="green" stroke-width="0.04000"/>
    <line x1="35.03840" y1="125.60983" x2="34.40939" y2="127.43659" stroke="green" stroke-width="0.04000"/>
    <line x1="35.54889" y1="126.89167" x2="35.37564" y2="127.39482" stroke="green" stroke-width="0.04000"/>
    <line x1="34.97448" y1="125.48831" x2="34.32566" y2="127.37260" stroke="green" stroke-width="0.04000"/>
    <line x1="34.91041" y1="125.36722" x2="34.24194" y2="127.30862" stroke="green" stroke-width="0.04000"/>
    <line x1="35.60088" y1="127.04782" x2="35.53172" y2="127.24867" stroke="green" stroke-width="0.04000"/>
    <line x1="34.84625" y1="125.24641" x2="34.16187" y2="127.23399" stroke="green" stroke-width="0.04000"/>
    <line x1="34.78209" y1="125.12559" x2="34.08585" y2="127.14759" stroke="green" stroke-width="0.04000"/>
    <line x1="34.71793" y1="125.00478" x2="34.00984" y2="127.06120" stroke="green" stroke-width="0.04000"/>
    <line x1="34.65376" y1="124.88396" x2="33.93383" y2="126.97479" stroke="green" stroke-width="0.04000"/>
    <line x1="34.58960" y1="124.76315" x2="33.85722" y2="126.89014" stroke="green" stroke-width="0.04000"/>
    <line x1="34.51842" y1="124.66270" x2="33.77892" y2="126.81039" stroke="green" stroke-width="0.04000"/>
    <line x1="34.44549" y1="124.56737" x2="33.70061" y2="126.73065" stroke="green" stroke-width="0.04000"/>
    <line x1="34.37398" y1="124.46789" x2="33.62231" y2="126.65090" stroke="green" stroke-width="0.04000"/>
    <line x1="34.30425" y1="124.36325" x2="33.54305" y2="126.57394" stroke="green" stroke-width="0.04000"/>
    <line x1="34.23452" y1="124.25861" x2="33.46364" y2="126.49740" stroke="green" stroke-width="0.04000"/>
    <line x1="34.16479" y1="124.15397" x2="33.38423" y2="126.42086" stroke="green" stroke-width="0.04000"/>
    <line x1="34.09505" y1="124.04932" x2="33.30482" y2="126.34432" stroke="green" stroke-width="0.04000"/>
    <line x1="34.02532" y1="123.94469" x2="33.22542" y2="126.26778" stroke="green" stroke-width="0.04000"/>
    <line x1="33.95559" y1="123.84004" x2="33.14747" y2="126.18699" stroke="green" stroke-width="0.04000"/>
    <line x1="33.88586" y1="123.73540" x2="33.07126" y2="126.10118" stroke="green" stroke-width="0.04000"/>
    <line x1="33.81171" y1="123.64361" x2="32.99312" y2="126.02094" stroke="green" stroke-width="0.04000"/>
    <line x1="33.73346" y1="123.56368" x2="32.91420" y2="125.94300" stroke="green" stroke-width="0.04000"/>
    <line x1="33.65625" y1="123.48077" x2="32.83527" y2="125.86507" stroke="green" stroke-width="0.04000"/>
    <line x1="33.57904" y1="123.39787" x2="32.75658" y2="125.78645" stroke="green" stroke-width="0.04000"/>
    <line x1="33.50182" y1="123.31495" x2="32.67805" y2="125.70736" stroke="green" stroke-width="0.04000"/>
    <line x1="33.42431" y1="123.23290" x2="32.59953" y2="125.62827" stroke="green" stroke-width="0.04000"/>
    <line x1="33.34673" y1="123.15108" x2="32.52100" y2="125.54917" stroke="green" stroke-width="0.04000"/>
    <line x1="33.26914" y1="123.06924" x2="32.44247" y2="125.47008" stroke="green" stroke-width="0.04000"/>
    <line x1="33.19155" y1="122.98742" x2="32.36390" y2="125.39111" stroke="green" stroke-width="0.04000"/>
    <line x1="33.11397" y1="122.90559" x2="32.28476" y2="125.31378" stroke="green" stroke-width="0.04000"/>
    <line x1="33.03778" y1="122.81969" x2="32.20531" y2="125.23737" stroke="green" stroke-width="0.04000"/>
    <line x1="32.96083" y1="122.73602" x2="32.12540" y2="125.16228" stroke="green" stroke-width="0.04000"/>
    <line x1="32.86749" y1="122.69996" x2="32.04549" y2="125.08720" stroke="green" stroke-width="0.04000"/>
    <line x1="32.77414" y1="122.66389" x2="31.96559" y2="125.01211" stroke="green" stroke-width="0.04000"/>
    <line x1="32.68079" y1="122.62783" x2="31.88568" y2="124.93703" stroke="green" stroke-width="0.04000"/>
    <line x1="32.58745" y1="122.59177" x2="31.80577" y2="124.86194" stroke="green" stroke-width="0.04000"/>
    <line x1="32.49410" y1="122.55571" x2="31.72586" y2="124.78686" stroke="green" stroke-width="0.04000"/>
    <line x1="32.40076" y1="122.51965" x2="31.64595" y2="124.71178" stroke="green" stroke-width="0.04000"/>
    <line x1="32.30742" y1="122.48359" x2="31.57329" y2="124.61564" stroke="green" stroke-width="0.04000"/>
    <line x1="32.21407" y1="122.44753" x2="31.51172" y2="124.48730" stroke="green" stroke-width="0.04000"/>
    <line x1="32.12073" y1="122.41147" x2="31.45014" y2="124.35897" stroke="green" stroke-width="0.04000"/>
    <line x1="32.02743" y1="122.37526" x2="31.38024" y2="124.25485" stroke="green" stroke-width="0.04000"/>
    <line x1="31.92303" y1="122.37130" x2="31.30674" y2="124.16113" stroke="green" stroke-width="0.04000"/>
    <line x1="31.79821" y1="122.42667" x2="31.23325" y2="124.06741" stroke="green" stroke-width="0.04000"/>
    <line x1="31.67318" y1="122.48262" x2="31.15976" y2="123.97369" stroke="green" stroke-width="0.04000"/>
    <line x1="31.54815" y1="122.53858" x2="31.08627" y2="123.87997" stroke="green" stroke-width="0.04000"/>
    <line x1="31.42311" y1="122.59454" x2="31.04848" y2="123.68256" stroke="green" stroke-width="0.04000"/>
    <line x1="31.29809" y1="122.65050" x2="31.05553" y2="123.35492" stroke="green" stroke-width="0.04000"/>
    <line x1="31.17306" y1="122.70645" x2="31.06259" y2="123.02728" stroke="green" stroke-width="0.04000"/>
    <line x1="52.87726" y1="115.42154" x2="52.38795" y2="116.84259" stroke="green" stroke-width="0.04000"/>
    <line x1="52.93401" y1="115.56390" x2="52.50035" y2="116.82333" stroke="green" stroke-width="0.04000"/>
    <line x1="52.80333" y1="115.32911" x2="52.30125" y2="116.78723" stroke="green" stroke-width="0.04000"/>
    <line x1="52.99075" y1="115.70626" x2="52.62048" y2="116.78159" stroke="green" stroke-width="0.04000"/>
    <line x1="52.72747" y1="115.24225" x2="52.21456" y2="116.73186" stroke="green" stroke-width="0.04000"/>
    <line x1="53.04749" y1="115.84862" x2="52.75173" y2="116.70759" stroke="green" stroke-width="0.04000"/>
    <line x1="52.65162" y1="115.15539" x2="52.12786" y2="116.67650" stroke="green" stroke-width="0.04000"/>
    <line x1="52.57576" y1="115.06853" x2="52.04116" y2="116.62113" stroke="green" stroke-width="0.04000"/>
    <line x1="53.10424" y1="115.99097" x2="52.89107" y2="116.61006" stroke="green" stroke-width="0.04000"/>
    <line x1="52.49980" y1="114.98200" x2="51.95446" y2="116.56577" stroke="green" stroke-width="0.04000"/>
    <line x1="53.16410" y1="116.12426" x2="53.03041" y2="116.51254" stroke="green" stroke-width="0.04000"/>
    <line x1="52.42374" y1="114.89571" x2="51.86776" y2="116.51040" stroke="green" stroke-width="0.04000"/>
    <line x1="52.34770" y1="114.80942" x2="51.78187" y2="116.45270" stroke="green" stroke-width="0.04000"/>
    <line x1="53.22482" y1="116.25509" x2="53.16975" y2="116.41502" stroke="green" stroke-width="0.04000"/>
    <line x1="52.27071" y1="114.72584" x2="51.69603" y2="116.39482" stroke="green" stroke-width="0.04000"/>
    <line x1="52.18695" y1="114.66196" x2="51.61020" y2="116.33694" stroke="green" stroke-width="0.04000"/>
    <line x1="52.10318" y1="114.59808" x2="51.52430" y2="116.27929" stroke="green" stroke-width="0.04000"/>
    <line x1="52.01941" y1="114.53421" x2="51.43806" y2="116.22256" stroke="green" stroke-width="0.04000"/>
    <line x1="51.93564" y1="114.47033" x2="51.35181" y2="116.16590" stroke="green" stroke-width="0.04000"/>
    <line x1="51.85188" y1="114.40646" x2="51.26556" y2="116.10925" stroke="green" stroke-width="0.04000"/>
    <line x1="51.76811" y1="114.34258" x2="51.17930" y2="116.05259" stroke="green" stroke-width="0.04000"/>
    <line x1="51.68434" y1="114.27870" x2="51.09305" y2="115.99593" stroke="green" stroke-width="0.04000"/>
    <line x1="51.60116" y1="114.21311" x2="51.00679" y2="115.93928" stroke="green" stroke-width="0.04000"/>
    <line x1="51.52134" y1="114.13779" x2="50.92054" y2="115.88262" stroke="green" stroke-width="0.04000"/>
    <line x1="51.44005" y1="114.06670" x2="50.83429" y2="115.82597" stroke="green" stroke-width="0.04000"/>
    <line x1="51.35788" y1="113.99818" x2="50.74803" y2="115.76932" stroke="green" stroke-width="0.04000"/>
    <line x1="51.27572" y1="113.92965" x2="50.66178" y2="115.71266" stroke="green" stroke-width="0.04000"/>
    <line x1="51.19336" y1="113.86169" x2="50.57547" y2="115.65617" stroke="green" stroke-width="0.04000"/>
    <line x1="51.11097" y1="113.79382" x2="50.48885" y2="115.60056" stroke="green" stroke-width="0.04000"/>
    <line x1="51.02857" y1="113.72594" x2="50.40173" y2="115.54644" stroke="green" stroke-width="0.04000"/>
    <line x1="50.94618" y1="113.65808" x2="50.31460" y2="115.49232" stroke="green" stroke-width="0.04000"/>
    <line x1="50.86379" y1="113.59021" x2="50.22747" y2="115.43820" stroke="green" stroke-width="0.04000"/>
    <line x1="50.78139" y1="113.52234" x2="50.14034" y2="115.38408" stroke="green" stroke-width="0.04000"/>
    <line x1="50.69843" y1="113.45615" x2="50.05322" y2="115.32996" stroke="green" stroke-width="0.04000"/>
    <line x1="50.61497" y1="113.39134" x2="49.96609" y2="115.27584" stroke="green" stroke-width="0.04000"/>
    <line x1="50.53152" y1="113.32654" x2="49.87896" y2="115.22172" stroke="green" stroke-width="0.04000"/>
    <line x1="50.44808" y1="113.26173" x2="49.79184" y2="115.16759" stroke="green" stroke-width="0.04000"/>
    <line x1="50.36463" y1="113.19694" x2="49.70471" y2="115.11348" stroke="green" stroke-width="0.04000"/>
    <line x1="50.28538" y1="113.11993" x2="49.61821" y2="115.05753" stroke="green" stroke-width="0.04000"/>
    <line x1="50.20664" y1="113.04146" x2="49.53496" y2="114.99215" stroke="green" stroke-width="0.04000"/>
    <line x1="50.12790" y1="112.96298" x2="49.44925" y2="114.93392" stroke="green" stroke-width="0.04000"/>
    <line x1="50.04916" y1="112.88450" x2="49.36153" y2="114.88152" stroke="green" stroke-width="0.04000"/>
    <line x1="49.96771" y1="112.81389" x2="49.27382" y2="114.82911" stroke="green" stroke-width="0.04000"/>
    <line x1="49.88531" y1="112.74605" x2="49.18610" y2="114.77670" stroke="green" stroke-width="0.04000"/>
    <line x1="49.80291" y1="112.67821" x2="49.09848" y2="114.72400" stroke="green" stroke-width="0.04000"/>
    <line x1="49.72050" y1="112.61037" x2="49.01166" y2="114.66901" stroke="green" stroke-width="0.04000"/>
    <line x1="49.63810" y1="112.54252" x2="48.92483" y2="114.61401" stroke="green" stroke-width="0.04000"/>
    <line x1="49.55570" y1="112.47468" x2="48.83801" y2="114.55903" stroke="green" stroke-width="0.04000"/>
    <line x1="49.47332" y1="112.40677" x2="48.75118" y2="114.50403" stroke="green" stroke-width="0.04000"/>
    <line x1="49.39169" y1="112.33668" x2="48.66435" y2="114.44904" stroke="green" stroke-width="0.04000"/>
    <line x1="49.31006" y1="112.26660" x2="48.57741" y2="114.39439" stroke="green" stroke-width="0.04000"/>
    <line x1="49.22556" y1="112.20486" x2="48.48925" y2="114.34327" stroke="green" stroke-width="0.04000"/>
    <line x1="49.14587" y1="112.12915" x2="48.40108" y2="114.29214" stroke="green" stroke-width="0.04000"/>
    <line x1="49.06777" y1="112.04881" x2="48.31670" y2="114.23006" stroke="green" stroke-width="0.04000"/>
    <line x1="48.98967" y1="111.96846" x2="48.23450" y2="114.16163" stroke="green" stroke-width="0.04000"/>
    <line x1="48.91158" y1="111.88811" x2="48.15231" y2="114.09320" stroke="green" stroke-width="0.04000"/>
    <line x1="48.83348" y1="111.80776" x2="48.07010" y2="114.02477" stroke="green" stroke-width="0.04000"/>
    <line x1="48.75538" y1="111.72742" x2="47.98790" y2="113.95634" stroke="green" stroke-width="0.04000"/>
    <line x1="48.67728" y1="111.64707" x2="47.90570" y2="113.88791" stroke="green" stroke-width="0.04000"/>
    <line x1="48.59919" y1="111.56673" x2="47.82351" y2="113.81947" stroke="green" stroke-width="0.04000"/>
    <line x1="48.52109" y1="111.48638" x2="47.74131" y2="113.75105" stroke="green" stroke-width="0.04000"/>
    <line x1="48.44300" y1="111.40604" x2="47.65783" y2="113.68633" stroke="green" stroke-width="0.04000"/>
    <line x1="48.36441" y1="111.32710" x2="47.57195" y2="113.62857" stroke="green" stroke-width="0.04000"/>
    <line x1="48.29055" y1="111.23447" x2="47.48608" y2="113.57082" stroke="green" stroke-width="0.04000"/>
    <line x1="48.21665" y1="111.14193" x2="47.40020" y2="113.51307" stroke="green" stroke-width="0.04000"/>
    <line x1="48.14275" y1="111.04939" x2="47.31725" y2="113.44684" stroke="green" stroke-width="0.04000"/>
    <line x1="48.06885" y1="110.95685" x2="47.23973" y2="113.36479" stroke="green" stroke-width="0.04000"/>
    <line x1="47.99495" y1="110.86431" x2="47.16222" y2="113.28275" stroke="green" stroke-width="0.04000"/>
    <line x1="47.92105" y1="110.77177" x2="47.08471" y2="113.20070" stroke="green" stroke-width="0.04000"/>
    <line x1="47.84716" y1="110.67924" x2="47.00720" y2="113.11865" stroke="green" stroke-width="0.04000"/>
    <line x1="47.77326" y1="110.58670" x2="46.92969" y2="113.03661" stroke="green" stroke-width="0.04000"/>
    <line x1="47.69951" y1="110.49372" x2="46.84856" y2="112.96507" stroke="green" stroke-width="0.04000"/>
    <line x1="47.62587" y1="110.40044" x2="46.76486" y2="112.90099" stroke="green" stroke-width="0.04000"/>
    <line x1="47.54942" y1="110.31529" x2="46.68116" y2="112.83690" stroke="green" stroke-width="0.04000"/>
    <line x1="47.47244" y1="110.23171" x2="46.59747" y2="112.77281" stroke="green" stroke-width="0.04000"/>
    <line x1="47.39546" y1="110.14813" x2="46.51378" y2="112.70872" stroke="green" stroke-width="0.04000"/>
    <line x1="47.31847" y1="110.06455" x2="46.43008" y2="112.64463" stroke="green" stroke-width="0.04000"/>
    <line x1="47.24149" y1="109.98097" x2="46.35583" y2="112.55312" stroke="green" stroke-width="0.04000"/>
    <line x1="47.16451" y1="109.89739" x2="46.28535" y2="112.45065" stroke="green" stroke-width="0.04000"/>
    <line x1="47.08752" y1="109.81380" x2="46.21487" y2="112.34818" stroke="green" stroke-width="0.04000"/>
    <line x1="47.01113" y1="109.72854" x2="46.13866" y2="112.26236" stroke="green" stroke-width="0.04000"/>
    <line x1="46.93647" y1="109.63818" x2="46.06228" y2="112.17702" stroke="green" stroke-width="0.04000"/>
    <line x1="46.86183" y1="109.54783" x2="45.98590" y2="112.09170" stroke="green" stroke-width="0.04000"/>
    <line x1="46.78717" y1="109.45747" x2="45.90952" y2="112.00636" stroke="green" stroke-width="0.04000"/>
    <line x1="46.70561" y1="109.38719" x2="45.83314" y2="111.92104" stroke="green" stroke-width="0.04000"/>
    <line x1="46.61705" y1="109.33724" x2="45.75676" y2="111.83570" stroke="green" stroke-width="0.04000"/>
    <line x1="46.52849" y1="109.28728" x2="45.68038" y2="111.75037" stroke="green" stroke-width="0.04000"/>
    <line x1="46.43993" y1="109.23734" x2="45.60457" y2="111.66338" stroke="green" stroke-width="0.04000"/>
    <line x1="46.35136" y1="109.18739" x2="45.52899" y2="111.57573" stroke="green" stroke-width="0.04000"/>
    <line x1="46.26280" y1="109.13744" x2="45.45552" y2="111.48196" stroke="green" stroke-width="0.04000"/>
    <line x1="46.17424" y1="109.08748" x2="45.39495" y2="111.35071" stroke="green" stroke-width="0.04000"/>
    <line x1="46.08567" y1="109.03753" x2="45.33438" y2="111.21945" stroke="green" stroke-width="0.04000"/>
    <line x1="45.99711" y1="108.98758" x2="45.27381" y2="111.08820" stroke="green" stroke-width="0.04000"/>
    <line x1="45.90884" y1="108.93678" x2="45.21325" y2="110.95694" stroke="green" stroke-width="0.04000"/>
    <line x1="45.81376" y1="108.90577" x2="45.15268" y2="110.82569" stroke="green" stroke-width="0.04000"/>
    <line x1="45.67852" y1="108.99136" x2="45.09051" y2="110.69908" stroke="green" stroke-width="0.04000"/>
    <line x1="45.54329" y1="109.07696" x2="45.02585" y2="110.57971" stroke="green" stroke-width="0.04000"/>
    <line x1="45.40805" y1="109.16255" x2="44.96119" y2="110.46033" stroke="green" stroke-width="0.04000"/>
    <line x1="45.27282" y1="109.24815" x2="44.93520" y2="110.22868" stroke="green" stroke-width="0.04000"/>
    <line x1="45.13759" y1="109.33373" x2="44.93865" y2="109.91148" stroke="green" stroke-width="0.04000"/>
    <line x1="45.00121" y1="109.42267" x2="44.94232" y2="109.59367" stroke="green" stroke-width="0.04000"/>
    <path d="M 32.0399 122.38 L 32.9695 122.739 L 33.0834 122.873 L 33.4861 123.298 L 33.7722 123.605 L 33.8484 123.679 L 34.4049 124.514 L 34.5768 124.739 L 34.949 125.44 L 35.1791 125.877 L 35.3529 126.333 L 35.581 126.983 L 35.6334 127.153 L 35.072 127.679 L 34.5327 127.531 L 34.1979 127.275 L 33.8779 126.911 L 33.6122 126.641 L 33.1824 126.226 L 33.049 126.076 L 32.8026 125.833 L 32.3696 125.397 L 32.2378 125.268 L 31.5976 124.666 L 31.4316 124.32 L 31.0454 123.828 L 31.0665 122.846 L 31.0535 122.799 L 31.0738 122.751 L 31.8164 122.419 L 31.8164 122.419 L 31.9678 122.351 L 32.0399 122.38" fill="none" stroke="blue" stroke-width="0.04000" fill-rule="evenodd" fill-opacity="1.000"/>
    <path d="M 45.8741 108.912 L 45.9161 108.942 L 46.7496 109.412 L 47.0298 109.751 L 47.614 110.385 L 47.7427 110.548 L 48.3565 111.317 L 48.3558 111.319 L 48.3927 111.354 L 49.2063 112.191 L 49.2947 112.253 L 49.476 112.409 L 50.0287 112.864 L 50.3556 113.19 L 50.744 113.492 L 51.264 113.92 L 51.4912 114.109 L 51.6131 114.224 L 52.2809 114.734 L 52.5451 115.033 L 52.8716 115.407 L 53.1163 116.021 L 53.2673 116.347 L 52.6712 116.764 L 52.408 116.855 L 51.8617 116.507 L 51.544 116.292 L 51.4744 116.246 L 51.4744 116.246 L 50.6041 115.675 L 50.5115 115.615 L 49.6317 115.068 L 49.4976 114.963 L 49.1085 114.73 L 48.5851 114.399 L 48.3688 114.273 L 47.6876 113.706 L 47.3443 113.475 L 46.8976 113.003 L 46.4062 112.626 L 46.2129 112.345 L 45.644 111.71 L 45.5375 111.585 L 45.4711 111.516 L 45.1158 110.746 L 44.9332 110.409 L 44.9421 109.598 L 44.9509 109.457 L 45.0462 109.392 L 45.8288 108.896 L 45.8741 108.912" fill="none" stroke="blue" stroke-width="0.04000" fill-rule="evenodd" fill-opacity="1.000"/>
  </g>
</svg>
