<?xml version="1.0" encoding="UTF-8" standalone="yes"?>
<svg xmlns="http://www.w3.org/2000/svg"
     xmlns:xlink="http://www.w3.org/1999/xlink"
     width="2020.0000mm" height="1600.0000mm"
     viewBox="0 0 202.000000 160.000000">
  <!--
    Build plate : 150.00 x 150.00 mm
    Coordinate  : 1 SVG unit = 1 mm
    Display zoom: 10x  (width/height = viewBox x 10)
    Hatch stroke: 0.04 mm = ~28 mm on screen at this zoom
    Legend panel: right margin (42 mm wide)
  -->
  <defs>
    <marker id="endArrow" markerWidth="2" markerHeight="1.4"
            refX="0" refY="0.7" orient="auto"
            markerUnits="strokeWidth">
      <polyline fill="darkblue" points="0,0 2,0.7 0,1.4 0.2,0.7"/>
    </marker>
  </defs>
  <!-- Background -->
  <rect x="0" y="0" width="202.000000" height="160.000000" fill="#f0f0f0" stroke="none"/>
  <!-- Build plate boundary (150 x 150 mm) -->
  <rect x="5.000000" y="5.000000" width="150.000000" height="150.000000"
        fill="#ffffff" stroke="#aaaaaa" stroke-width="0.2" stroke-dasharray="1,0.5"/>
  <!-- Build plate centre circle (r = 75.00 mm) -->
  <circle cx="80.000000" cy="80.000000" r="75.000000"
          fill="none" stroke="#bbbbbb" stroke-width="0.15" stroke-dasharray="0.8,0.4"/>
  <!-- Centre cross-hair -->
  <line x1="5.000000" y1="80.000000" x2="155.000000" y2="80.000000" stroke="#cccccc" stroke-width="0.1"/>
  <line x1="80.000000" y1="5.000000" x2="80.000000" y2="155.000000" stroke="#cccccc" stroke-width="0.1"/>
  <circle cx="80.000000" cy="80.000000" r="0.3" fill="#cccccc" stroke="none"/>
  <!-- Corner labels -->
  <text x="5.400000" y="4.600000" font-family="sans-serif" font-size="2" fill="#888888">0,0</text>
  <text x="154.600006" y="4.600000" font-family="sans-serif" font-size="2" fill="#888888" text-anchor="end">150,0</text>
  <text x="5.400000" y="157.199997" font-family="sans-serif" font-size="2" fill="#888888">0,150</text>
  <!-- Layer geometry -->
  <g id="geometry">
    <g class="thermal-hatch" data-segment="8" data-name="CoreNormalHatch">
      <line x1="38.31131" y1="86.60273" x2="38.58759" y2="86.62690" stroke="#228B22" stroke-width="0.04000"/>
      <line x1="38.25892" y1="86.49776" x2="38.73311" y2="86.53925" stroke="#228B22" stroke-width="0.04000"/>
      <line x1="38.35123" y1="86.40546" x2="38.85025" y2="86.44911" stroke="#228B22" stroke-width="0.04000"/>
      <line x1="38.44353" y1="86.31315" x2="38.95645" y2="86.35802" stroke="#228B22" stroke-width="0.04000"/>
      <line x1="38.53585" y1="86.22084" x2="39.06227" y2="86.26690" stroke="#228B22" stroke-width="0.04000"/>
      <line x1="38.62815" y1="86.12854" x2="39.16693" y2="86.17567" stroke="#228B22" stroke-width="0.04000"/>
      <line x1="38.72046" y1="86.03623" x2="39.27053" y2="86.08436" stroke="#228B22" stroke-width="0.04000"/>
      <line x1="38.81277" y1="85.94392" x2="39.37349" y2="85.99298" stroke="#228B22" stroke-width="0.04000"/>
      <line x1="38.90507" y1="85.85162" x2="39.47645" y2="85.90160" stroke="#228B22" stroke-width="0.04000"/>
      <line x1="38.99738" y1="85.75932" x2="39.57908" y2="85.81020" stroke="#228B22" stroke-width="0.04000"/>
      <line x1="39.08969" y1="85.66700" x2="39.68106" y2="85.71874" stroke="#228B22" stroke-width="0.04000"/>
      <line x1="39.43907" y1="85.59719" x2="39.78143" y2="85.62714" stroke="#228B22" stroke-width="0.04000"/>
      <line x1="39.53138" y1="85.50489" x2="39.87941" y2="85.53533" stroke="#228B22" stroke-width="0.04000"/>
      <line x1="39.62368" y1="85.41257" x2="39.97677" y2="85.44347" stroke="#228B22" stroke-width="0.04000"/>
      <line x1="39.71598" y1="85.32027" x2="40.07366" y2="85.35156" stroke="#228B22" stroke-width="0.04000"/>
      <line x1="39.80829" y1="85.22797" x2="40.17052" y2="85.25966" stroke="#228B22" stroke-width="0.04000"/>
      <line x1="39.90060" y1="85.13566" x2="40.26682" y2="85.16769" stroke="#228B22" stroke-width="0.04000"/>
      <line x1="39.99291" y1="85.04335" x2="40.36292" y2="85.07572" stroke="#228B22" stroke-width="0.04000"/>
      <line x1="40.08522" y1="84.95105" x2="40.45842" y2="84.98370" stroke="#228B22" stroke-width="0.04000"/>
      <line x1="40.17752" y1="84.85873" x2="40.55369" y2="84.89165" stroke="#228B22" stroke-width="0.04000"/>
      <line x1="40.26983" y1="84.76643" x2="40.64877" y2="84.79958" stroke="#228B22" stroke-width="0.04000"/>
      <line x1="40.36213" y1="84.67413" x2="40.74451" y2="84.70758" stroke="#228B22" stroke-width="0.04000"/>
      <line x1="40.45444" y1="84.58183" x2="40.84010" y2="84.61556" stroke="#228B22" stroke-width="0.04000"/>
      <line x1="40.54675" y1="84.48952" x2="40.93665" y2="84.52363" stroke="#228B22" stroke-width="0.04000"/>
      <line x1="40.63905" y1="84.39721" x2="41.03256" y2="84.43164" stroke="#228B22" stroke-width="0.04000"/>
      <line x1="40.64514" y1="84.29736" x2="41.12803" y2="84.33961" stroke="#228B22" stroke-width="0.04000"/>
      <line x1="40.62585" y1="84.19529" x2="41.21830" y2="84.24712" stroke="#228B22" stroke-width="0.04000"/>
      <line x1="40.65888" y1="84.09780" x2="41.29121" y2="84.15312" stroke="#228B22" stroke-width="0.04000"/>
      <line x1="40.75118" y1="84.00549" x2="41.34195" y2="84.05718" stroke="#228B22" stroke-width="0.04000"/>
      <line x1="40.84350" y1="83.91319" x2="41.36764" y2="83.95904" stroke="#228B22" stroke-width="0.04000"/>
      <line x1="40.93580" y1="83.82088" x2="41.36750" y2="83.85865" stroke="#228B22" stroke-width="0.04000"/>
      <line x1="41.02811" y1="83.72858" x2="41.33279" y2="83.75523" stroke="#228B22" stroke-width="0.04000"/>
      <line x1="41.12041" y1="83.63627" x2="41.23825" y2="83.64658" stroke="#228B22" stroke-width="0.04000"/>
    </g>
    <g class="thermal-hatch" data-segment="14" data-name="HollowShell2NormalHatch">
      <line x1="38.75300" y1="86.27220" x2="38.76360" y2="86.27310" stroke="#808080" stroke-width="0.04000"/>
    </g>
    <g class="thermal-hatch" data-segment="15" data-name="HollowShell2ContourHatch">
      <line x1="38.79260" y1="86.19430" x2="38.82500" y2="86.19710" stroke="#32CD32" stroke-width="0.04000"/>
      <line x1="38.75390" y1="86.27120" x2="38.71880" y2="86.26820" stroke="#32CD32" stroke-width="0.04000"/>
      <line x1="38.76470" y1="86.27220" x2="38.80220" y2="86.27550" stroke="#32CD32" stroke-width="0.04000"/>
      <line x1="38.71510" y1="86.34820" x2="38.67730" y2="86.34490" stroke="#32CD32" stroke-width="0.04000"/>
    </g>
    <g class="thermal-contour" data-segment="1" data-name="CoreContour_Volume">
    <path d="M 41.2391 83.6474 L 41.2499 83.6581 L 41.2675 83.6788 L 41.2869 83.7026 L 41.3059 83.7183 L 41.315 83.732 L 41.3331 83.7556 L 41.3392 83.7681 L 41.3542 83.796 L 41.3546 83.8058 L 41.3591 83.8191 L 41.3608 83.8266 L 41.3636 83.838 L 41.3645 83.842 L 41.3662 83.8527 L 41.3698 83.8688 L 41.3699 83.8734 L 41.3706 83.8831 L 41.3708 83.8899 L 41.3707 83.8986 L 41.3711 83.9154 L 41.3713 83.924 L 41.3714 83.9284 L 41.3705 83.9355 L 41.3699 83.9417 L 41.3687 83.9504 L 41.3681 83.9558 L 41.3662 83.9691 L 41.3647 83.9793 L 41.3625 83.9941 L 41.3608 84.0003 L 41.3541 84.0252 L 41.3476 84.0439 L 41.3361 84.071 L 41.3276 84.0917 L 41.3198 84.1053 L 41.3055 84.128 L 41.299 84.1392 L 41.2938 84.1481 L 41.2857 84.1637 L 41.2832 84.1673 L 41.279 84.1748 L 41.2648 84.1945 L 41.2535 84.2076 L 41.2465 84.2155 L 41.2392 84.2234 L 41.2269 84.2373 L 41.2065 84.2606 L 41.1862 84.2837 L 41.1709 84.2983 L 41.0966 84.3699 L 41.0965 84.3699 L 41.0396 84.4248 L 41.0354 84.4289 L 41.0336 84.4306 L 40.9901 84.4727 L 40.8808 84.5768 L 40.8616 84.5949 L 40.7249 84.7264 L 40.6968 84.753 L 40.5562 84.8893 L 40.5345 84.9099 L 40.4095 85.0312 L 40.1953 85.2361 L 39.984 85.4366 L 39.8264 85.5854 L 39.7332 85.672 L 39.5454 85.8404 L 39.389 85.9792 L 39.389 85.9792 L 39.3422 86.0207 L 39.2113 86.1369 L 39.0778 86.2535 L 38.8586 86.4423 L 38.8372 86.4598 L 38.8181 86.4745 L 38.8085 86.4823 L 38.8083 86.4825 L 38.777 86.5072 L 38.7698 86.5123 L 38.7366 86.5368 L 38.7308 86.5408 L 38.6963 86.5645 L 38.6926 86.5667 L 38.6569 86.5893 L 38.6547 86.5905 L 38.6184 86.6114 L 38.6178 86.6116 L 38.603 86.6192 L 38.5833 86.629 L 38.5826 86.6294 L 38.5509 86.6431 L 38.549 86.6439 L 38.5198 86.6542 L 38.5171 86.6552 L 38.4903 86.6624 L 38.487 86.6633 L 38.4627 86.6674 L 38.4589 86.6681 L 38.437 86.6693 L 38.4331 86.6696 L 38.4136 86.668 L 38.4098 86.6677 L 38.3927 86.6634 L 38.3891 86.6625 L 38.3745 86.6554 L 38.3712 86.6539 L 38.3642 86.6515 L 38.3534 86.6436 L 38.3132 86.6054 L 38.2887 86.5716 L 38.2887 86.5716 L 38.2623 86.5353 L 38.2418 86.5149 L 38.756 86.0007 L 38.8803 85.8764 L 39.0935 85.6632 L 39.1042 85.6525 L 39.1042 85.6525 L 39.1499 85.6068 L 39.2377 85.6113 L 39.3155 85.6034 L 39.4245 85.6118 L 39.5115 85.5248 L 39.5115 85.5248 L 39.5503 85.486 L 39.6925 85.3438 L 39.6925 85.3438 L 39.8383 85.1979 L 39.8726 85.1637 L 39.8726 85.1637 L 40.0497 84.9865 L 40.131 84.9053 L 40.2205 84.8157 L 40.2787 84.7576 L 40.392 84.6442 L 40.4268 84.6094 L 40.4463 84.5899 L 40.5917 84.4445 L 40.5917 84.4445 L 40.6163 84.42 L 40.66 84.3762 L 40.6165 84.146 L 40.6165 84.146 L 40.6156 84.1411 L 40.682 84.0747 L 40.682 84.0747 L 40.7868 83.9699 L 40.7987 83.958 L 41.1714 83.5853 L 41.2391 83.6474" fill="none" stroke="#000000" stroke-width="0.05000" fill-rule="evenodd" fill-opacity="1.000"/>
    </g>
    <g class="thermal-contour" data-segment="1" data-name="CoreContour_Volume">
    <path d="M 39.2562 85.8296 L 39.2094 85.8711 L 39.0797 85.9863 L 38.9472 86.1019 L 38.8779 86.1615 L 38.8974 86.1421 L 39.2283 85.8111 L 39.2427 85.8119 L 39.2805 85.808 L 39.2562 85.8296" fill="none" stroke="#000000" stroke-width="0.05000" fill-rule="evenodd" fill-opacity="1.000"/>
    <path d="M 41.1663 83.8732 L 41.168 83.8804 L 41.1681 83.8806 L 41.1696 83.8901 L 41.1707 83.8953 L 41.1707 83.8995 L 41.171 83.9191 L 41.1702 83.9262 L 41.1697 83.93 L 41.1684 83.9398 L 41.167 83.9489 L 41.1663 83.9531 L 41.1625 83.967 L 41.1609 83.9715 L 41.1515 83.9939 L 41.1475 84.0034 L 41.1343 84.0245 L 41.1261 84.0386 L 41.1186 84.0515 L 41.114 84.0601 L 41.1135 84.061 L 41.1101 84.0669 L 41.107 84.0713 L 41.1027 84.0763 L 41.0999 84.0795 L 41.091 84.0891 L 41.0767 84.1052 L 41.0563 84.1285 L 41.0414 84.1454 L 41.0325 84.1539 L 41.0159 84.1699 L 41.0157 84.1699 L 40.9005 84.2811 L 40.8971 84.2844 L 40.8952 84.2862 L 40.854 84.3259 L 40.8317 84.2077 L 40.9401 84.0994 L 41.1663 83.8731 L 41.1663 83.8732" fill="none" stroke="#000000" stroke-width="0.05000" fill-rule="evenodd" fill-opacity="1.000"/>
    </g>
    <g class="thermal-contour" data-segment="3" data-name="HollowShell1Contour_Volume">
    <path d="M 41.2391 83.6474 L 41.2499 83.6581 L 41.2675 83.6788 L 41.2869 83.7026 L 41.3059 83.7183 L 41.315 83.732 L 41.3331 83.7556 L 41.3392 83.7681 L 41.3542 83.796 L 41.3546 83.8058 L 41.3591 83.8191 L 41.3608 83.8266 L 41.3636 83.838 L 41.3645 83.842 L 41.3662 83.8527 L 41.3698 83.8688 L 41.3699 83.8734 L 41.3706 83.8831 L 41.3708 83.8899 L 41.3707 83.8986 L 41.3711 83.9154 L 41.3713 83.924 L 41.3714 83.9284 L 41.3705 83.9355 L 41.3699 83.9417 L 41.3687 83.9504 L 41.3681 83.9558 L 41.3662 83.9691 L 41.3647 83.9793 L 41.3625 83.9941 L 41.3608 84.0003 L 41.3541 84.0252 L 41.3476 84.0439 L 41.3361 84.071 L 41.3276 84.0917 L 41.3198 84.1053 L 41.3055 84.128 L 41.299 84.1392 L 41.2938 84.1481 L 41.2857 84.1637 L 41.2832 84.1673 L 41.279 84.1748 L 41.2648 84.1945 L 41.2535 84.2076 L 41.2465 84.2155 L 41.2392 84.2234 L 41.2269 84.2373 L 41.2065 84.2606 L 41.1862 84.2837 L 41.1709 84.2983 L 41.0966 84.3699 L 41.0965 84.3699 L 41.0396 84.4248 L 41.0354 84.4289 L 41.0336 84.4306 L 40.9901 84.4727 L 40.8808 84.5768 L 40.8616 84.5949 L 40.7249 84.7264 L 40.6968 84.753 L 40.5562 84.8893 L 40.5345 84.9099 L 40.4095 85.0312 L 40.1953 85.2361 L 39.984 85.4366 L 39.8264 85.5854 L 39.7332 85.672 L 39.5454 85.8404 L 39.389 85.9792 L 39.3422 86.0207 L 39.2113 86.1369 L 39.0778 86.2535 L 38.8586 86.4423 L 38.8372 86.4598 L 38.8181 86.4745 L 38.8085 86.4823 L 38.8083 86.4825 L 38.777 86.5072 L 38.7698 86.5123 L 38.7366 86.5368 L 38.7308 86.5408 L 38.6963 86.5645 L 38.6926 86.5667 L 38.6569 86.5893 L 38.6547 86.5905 L 38.6184 86.6114 L 38.6178 86.6116 L 38.603 86.6192 L 38.5833 86.629 L 38.5826 86.6294 L 38.5509 86.6431 L 38.549 86.6439 L 38.5198 86.6542 L 38.5171 86.6552 L 38.4903 86.6624 L 38.487 86.6633 L 38.4627 86.6674 L 38.4589 86.6681 L 38.437 86.6693 L 38.4331 86.6696 L 38.4136 86.668 L 38.4098 86.6677 L 38.3927 86.6634 L 38.3891 86.6625 L 38.3745 86.6554 L 38.3712 86.6539 L 38.3642 86.6515 L 38.3534 86.6436 L 38.3132 86.6054 L 38.2887 86.5716 L 38.2623 86.5353 L 38.2418 86.5149 L 38.756 86.0007 L 38.7712 85.9854 L 38.7932 85.987 L 38.8812 85.9889 L 38.9072 85.9908 L 38.8267 86.0714 L 38.3762 86.5218 L 38.3888 86.5392 L 38.4145 86.5637 L 38.4171 86.5649 L 38.4234 86.568 L 38.426 86.5686 L 38.4339 86.5693 L 38.4474 86.5685 L 38.4657 86.5654 L 38.4874 86.5596 L 38.5125 86.5507 L 38.5395 86.539 L 38.5573 86.5302 L 38.5727 86.5222 L 38.6058 86.5033 L 38.6403 86.4815 L 38.6428 86.4799 L 38.674 86.4585 L 38.6773 86.4561 L 38.7112 86.4313 L 38.7174 86.4268 L 38.7412 86.408 L 38.7414 86.4079 L 38.7561 86.3961 L 38.7744 86.3819 L 38.7933 86.3665 L 39.0125 86.1777 L 39.1455 86.0616 L 39.2758 85.9459 L 39.3226 85.9044 L 39.4786 85.7659 L 39.6664 85.5975 L 39.7583 85.5121 L 39.9153 85.3639 L 40.1262 85.1638 L 40.3404 84.9589 L 40.4653 84.8378 L 40.4866 84.8175 L 40.6276 84.6808 L 40.6556 84.6543 L 40.7926 84.5225 L 40.8122 84.504 L 40.9211 84.4003 L 40.9645 84.3583 L 40.9667 84.3562 L 40.97 84.353 L 41.0561 84.2699 L 41.0563 84.2699 L 41.1017 84.2261 L 41.1138 84.2146 L 41.1314 84.1946 L 41.1518 84.1712 L 41.165 84.1563 L 41.1731 84.1476 L 41.1787 84.1413 L 41.186 84.1327 L 41.1942 84.1213 L 41.1983 84.1142 L 41.2 84.1117 L 41.2062 84.0998 L 41.2125 84.089 L 41.2199 84.0762 L 41.2342 84.0535 L 41.2375 84.0477 L 41.2438 84.0325 L 41.2543 84.0076 L 41.2584 83.9957 L 41.2643 83.9741 L 41.2644 83.9734 L 41.2658 83.9646 L 41.2673 83.9546 L 41.2691 83.9417 L 41.2695 83.938 L 41.2708 83.928 L 41.2711 83.9244 L 41.2712 83.9233 L 41.2711 83.9178 L 41.2707 83.8992 L 41.2708 83.8928 L 41.2706 83.886 L 41.2702 83.8821 L 41.2679 83.8715 L 41.2662 83.861 L 41.266 83.86 L 41.266 83.8599 L 41.2635 83.8496 L 41.2627 83.846 L 41.2553 83.8242 L 41.2552 83.8231 L 41.2502 83.8137 L 41.2476 83.8084 L 41.2336 83.7902 L 41.2307 83.7859 L 41.2156 83.7734 L 41.1913 83.7436 L 41.1761 83.7257 L 41.1742 83.7238 L 40.8712 84.0268 L 40.8688 84.02 L 40.8346 83.922 L 41.1714 83.5853 L 41.2391 83.6474" fill="none" stroke="#0000CC" stroke-width="0.05000" fill-rule="evenodd" fill-opacity="1.000"/>
    <path d="M 40.7681 84.4095 L 40.687 84.4907 L 40.6623 84.5154 L 40.6622 84.5153 L 40.517 84.6606 L 40.4627 84.7149 L 40.3494 84.8283 L 40.2912 84.8863 L 40.2913 84.8864 L 40.1204 85.0573 L 40.1203 85.0572 L 39.9433 85.2345 L 39.9089 85.2687 L 39.7632 85.4145 L 39.4627 85.715 L 39.3168 85.7037 L 39.2927 85.7061 L 39.3897 85.6091 L 39.4245 85.6118 L 39.5115 85.5248 L 39.5503 85.486 L 39.6925 85.3438 L 39.8383 85.1979 L 39.8726 85.1637 L 40.0497 84.9865 L 40.131 84.9053 L 40.2205 84.8157 L 40.2787 84.7576 L 40.392 84.6442 L 40.4268 84.6094 L 40.4463 84.5899 L 40.5917 84.4445 L 40.6163 84.42 L 40.66 84.3762 L 40.6556 84.353 L 40.654 84.3448 L 40.6861 84.313 L 40.732 84.267 L 40.7396 84.2593 L 40.7681 84.4095" fill="none" stroke="#0000CC" stroke-width="0.05000" fill-rule="evenodd" fill-opacity="1.000"/>
    </g>
    <g class="thermal-contour" data-segment="4" data-name="HollowShell1Contour_Overhang">
    <path d="M 39.3897 85.6091 L 39.2927 85.7061 L 39.2402 85.7116 L 39.1891 85.7089 L 39.1749 85.7232 L 38.9072 85.9908 L 38.8812 85.9889 L 38.7932 85.987 L 38.7712 85.9854 L 38.8803 85.8764 L 39.0935 85.6632 L 39.1042 85.6525 L 39.1499 85.6068 L 39.2377 85.6113 L 39.3155 85.6034 L 39.3897 85.6091" fill="none" stroke="#000080" stroke-width="0.05000" fill-rule="evenodd" fill-opacity="1.000"/>
    <path d="M 40.8688 84.02 L 40.8712 84.0268 L 40.8694 84.0287 L 40.7527 84.1454 L 40.7236 84.1744 L 40.7396 84.2593 L 40.732 84.267 L 40.6861 84.313 L 40.654 84.3448 L 40.6165 84.146 L 40.6156 84.1411 L 40.682 84.0747 L 40.7868 83.9699 L 40.7987 83.958 L 40.8346 83.922 L 40.8688 84.02" fill="none" stroke="#000080" stroke-width="0.05000" fill-rule="evenodd" fill-opacity="1.000"/>
    </g>
    <g class="thermal-contour" data-segment="5" data-name="HollowShell2Contour_Volume">
    <path d="M 41.1761 83.7257 L 41.1913 83.7436 L 41.2156 83.7734 L 41.2307 83.7859 L 41.2336 83.7902 L 41.2476 83.8084 L 41.2502 83.8137 L 41.2552 83.8231 L 41.2553 83.8242 L 41.2627 83.846 L 41.2635 83.8496 L 41.266 83.8599 L 41.266 83.86 L 41.2662 83.861 L 41.2679 83.8715 L 41.2702 83.8821 L 41.2706 83.886 L 41.2708 83.8928 L 41.2707 83.8992 L 41.2711 83.9178 L 41.2712 83.9233 L 41.2711 83.9244 L 41.2708 83.928 L 41.2695 83.938 L 41.2691 83.9417 L 41.2673 83.9546 L 41.2658 83.9646 L 41.2644 83.9734 L 41.2643 83.9741 L 41.2584 83.9957 L 41.2543 84.0076 L 41.2438 84.0325 L 41.2375 84.0477 L 41.2342 84.0535 L 41.2199 84.0762 L 41.2125 84.089 L 41.2062 84.0998 L 41.2 84.1117 L 41.1983 84.1142 L 41.1942 84.1213 L 41.186 84.1327 L 41.1787 84.1413 L 41.1731 84.1476 L 41.165 84.1563 L 41.1518 84.1712 L 41.1314 84.1946 L 41.1138 84.2146 L 41.1017 84.2261 L 41.0563 84.2699 L 41.0561 84.2699 L 40.97 84.353 L 40.9667 84.3562 L 40.9645 84.3583 L 40.9211 84.4003 L 40.8122 84.504 L 40.7926 84.5225 L 40.6556 84.6543 L 40.6276 84.6808 L 40.4866 84.8175 L 40.4653 84.8378 L 40.3404 84.9589 L 40.1262 85.1638 L 39.9153 85.3639 L 39.7583 85.5121 L 39.6664 85.5975 L 39.4786 85.7659 L 39.3226 85.9044 L 39.2758 85.9459 L 39.1455 86.0616 L 39.0125 86.1777 L 38.7933 86.3665 L 38.7744 86.3819 L 38.7561 86.3961 L 38.7414 86.4079 L 38.7412 86.408 L 38.7174 86.4268 L 38.7112 86.4313 L 38.6773 86.4561 L 38.674 86.4585 L 38.6428 86.4799 L 38.6403 86.4815 L 38.6058 86.5033 L 38.5727 86.5222 L 38.5573 86.5302 L 38.5395 86.539 L 38.5125 86.5507 L 38.4874 86.5596 L 38.4657 86.5654 L 38.4474 86.5685 L 38.4339 86.5693 L 38.426 86.5686 L 38.4234 86.568 L 38.4171 86.5649 L 38.4145 86.5637 L 38.3888 86.5392 L 38.3762 86.5218 L 38.8267 86.0714 L 38.9072 85.9908 L 39.0012 85.9978 L 39.2243 85.7747 L 39.2927 85.7061 L 39.3168 85.7037 L 39.4627 85.715 L 39.7632 85.4145 L 39.9089 85.2687 L 39.9433 85.2345 L 40.1203 85.0572 L 40.1204 85.0573 L 40.2913 84.8864 L 40.2912 84.8863 L 40.3494 84.8283 L 40.4627 84.7149 L 40.517 84.6606 L 40.6622 84.5153 L 40.6623 84.5154 L 40.687 84.4907 L 40.7681 84.4095 L 40.7396 84.2593 L 40.8393 84.1597 L 40.855 84.144 L 40.8973 84.1017 L 40.8712 84.0268 L 41.1742 83.7238 L 41.1761 83.7257" fill="none" stroke="#B8860B" stroke-width="0.05000" fill-rule="evenodd" fill-opacity="1.000"/>
    <path d="M 38.6979 86.3274 L 38.7003 86.3255 L 38.7175 86.3121 L 38.7364 86.2967 L 38.8165 86.2276 L 38.8074 86.2178 L 38.6979 86.3274" fill="none" stroke="#B8860B" stroke-width="0.05000" fill-rule="evenodd" fill-opacity="1.000"/>
    <path d="M 39.2427 85.8119 L 39.2283 85.8111 L 38.8974 86.1421 L 38.8779 86.1615 L 38.9472 86.1019 L 39.0797 85.9863 L 39.2094 85.8711 L 39.2562 85.8296 L 39.2805 85.808 L 39.2427 85.8119" fill="none" stroke="#B8860B" stroke-width="0.05000" fill-rule="evenodd" fill-opacity="1.000"/>
    <path d="M 40.9401 84.0994 L 40.8317 84.2077 L 40.854 84.3259 L 40.8952 84.2862 L 40.8971 84.2844 L 40.9005 84.2811 L 41.0157 84.1699 L 41.0159 84.1699 L 41.0325 84.1539 L 41.0414 84.1454 L 41.0563 84.1285 L 41.0767 84.1052 L 41.091 84.0891 L 41.0999 84.0795 L 41.1027 84.0763 L 41.107 84.0713 L 41.1101 84.0669 L 41.1135 84.061 L 41.114 84.0601 L 41.1186 84.0515 L 41.1261 84.0386 L 41.1343 84.0245 L 41.1475 84.0034 L 41.1515 83.9939 L 41.1609 83.9715 L 41.1625 83.967 L 41.1663 83.9531 L 41.167 83.9489 L 41.1684 83.9398 L 41.1697 83.93 L 41.1702 83.9262 L 41.171 83.9191 L 41.1707 83.8995 L 41.1707 83.8953 L 41.1696 83.8901 L 41.1681 83.8806 L 41.168 83.8804 L 41.1663 83.8732 L 41.1663 83.8731 L 40.9401 84.0994" fill="none" stroke="#B8860B" stroke-width="0.05000" fill-rule="evenodd" fill-opacity="1.000"/>
    </g>
    <g class="thermal-contour" data-segment="6" data-name="HollowShell2Contour_Overhang">
    <path d="M 39.2243 85.7747 L 39.0012 85.9978 L 38.9072 85.9908 L 39.1749 85.7232 L 39.1891 85.7089 L 39.2402 85.7116 L 39.2927 85.7061 L 39.2243 85.7747" fill="none" stroke="#006400" stroke-width="0.05000" fill-rule="evenodd" fill-opacity="1.000"/>
    <path d="M 40.8973 84.1017 L 40.855 84.144 L 40.8393 84.1597 L 40.7396 84.2593 L 40.7236 84.1744 L 40.7527 84.1454 L 40.8694 84.0287 L 40.8712 84.0268 L 40.8973 84.1017" fill="none" stroke="#006400" stroke-width="0.05000" fill-rule="evenodd" fill-opacity="1.000"/>
    </g>
    <!-- ===== Thermal Segment Colour Legend ===== -->
    <g id="thermal-legend">
    <rect x="161.0000" y="5.0000" width="40.0000" height="72.0000"
          rx="1" ry="1"
          fill="#fafafa" stroke="#cccccc" stroke-width="0.15"/>
    <text x="181.0000" y="7.6000" font-family="sans-serif" font-size="2.2000" font-weight="bold" fill="#222222" text-anchor="middle">Thermal Segments</text>
    <line x1="161.5000" y1="8.7000" x2="200.5000" y2="8.7000" stroke="#bbbbbb" stroke-width="0.1"/>
    <rect x="161.8000" y="9.0000" width="3.5000" height="2.0000" fill="#000000" stroke="#333333" stroke-width="0.08" rx="0.3" ry="0.3"/>
    <text x="168.6000" y="10.9000" font-family="monospace" font-size="1.6000" fill="#444444" text-anchor="end"> 1</text>
    <text x="169.6000" y="10.9000" font-family="sans-serif" font-size="1.6000" fill="#111111">CoreContour_Volume</text>
    <rect x="161.8000" y="12.0000" width="3.5000" height="2.0000" fill="#8B0000" stroke="#333333" stroke-width="0.08" rx="0.3" ry="0.3"/>
    <text x="168.6000" y="13.9000" font-family="monospace" font-size="1.6000" fill="#444444" text-anchor="end"> 2</text>
    <text x="169.6000" y="13.9000" font-family="sans-serif" font-size="1.6000" fill="#111111">CoreContour_Overhang</text>
    <rect x="161.8000" y="15.0000" width="3.5000" height="2.0000" fill="#0000CC" stroke="#333333" stroke-width="0.08" rx="0.3" ry="0.3"/>
    <text x="168.6000" y="16.9000" font-family="monospace" font-size="1.6000" fill="#444444" text-anchor="end"> 3</text>
    <text x="169.6000" y="16.9000" font-family="sans-serif" font-size="1.6000" fill="#111111">Shell1Contour_Volume</text>
    <rect x="161.8000" y="18.0000" width="3.5000" height="2.0000" fill="#000080" stroke="#333333" stroke-width="0.08" rx="0.3" ry="0.3"/>
    <text x="168.6000" y="19.9000" font-family="monospace" font-size="1.6000" fill="#444444" text-anchor="end"> 4</text>
    <text x="169.6000" y="19.9000" font-family="sans-serif" font-size="1.6000" fill="#111111">Shell1Contour_Overhang</text>
    <rect x="161.8000" y="21.0000" width="3.5000" height="2.0000" fill="#B8860B" stroke="#333333" stroke-width="0.08" rx="0.3" ry="0.3"/>
    <text x="168.6000" y="22.9000" font-family="monospace" font-size="1.6000" fill="#444444" text-anchor="end"> 5</text>
    <text x="169.6000" y="22.9000" font-family="sans-serif" font-size="1.6000" fill="#111111">Shell2Contour_Volume</text>
    <rect x="161.8000" y="24.0000" width="3.5000" height="2.0000" fill="#006400" stroke="#333333" stroke-width="0.08" rx="0.3" ry="0.3"/>
    <text x="168.6000" y="25.9000" font-family="monospace" font-size="1.6000" fill="#444444" text-anchor="end"> 6</text>
    <text x="169.6000" y="25.9000" font-family="sans-serif" font-size="1.6000" fill="#111111">Shell2Contour_Overhang</text>
    <rect x="161.8000" y="27.0000" width="3.5000" height="2.0000" fill="#FF8C00" stroke="#333333" stroke-width="0.08" rx="0.3" ry="0.3"/>
    <text x="168.6000" y="28.9000" font-family="monospace" font-size="1.6000" fill="#444444" text-anchor="end"> 7</text>
    <text x="169.6000" y="28.9000" font-family="sans-serif" font-size="1.6000" fill="#111111">CoreOverhangHatch</text>
    <rect x="161.8000" y="30.0000" width="3.5000" height="2.0000" fill="#228B22" stroke="#333333" stroke-width="0.08" rx="0.3" ry="0.3"/>
    <text x="168.6000" y="31.9000" font-family="monospace" font-size="1.6000" fill="#444444" text-anchor="end"> 8</text>
    <text x="169.6000" y="31.9000" font-family="sans-serif" font-size="1.6000" fill="#111111">CoreNormalHatch</text>
    <rect x="161.8000" y="33.0000" width="3.5000" height="2.0000" fill="#800080" stroke="#333333" stroke-width="0.08" rx="0.3" ry="0.3"/>
    <text x="168.6000" y="34.9000" font-family="monospace" font-size="1.6000" fill="#444444" text-anchor="end"> 9</text>
    <text x="169.6000" y="34.9000" font-family="sans-serif" font-size="1.6000" fill="#111111">CoreContourHatch</text>
    <rect x="161.8000" y="36.0000" width="3.5000" height="2.0000" fill="#FF69B4" stroke="#333333" stroke-width="0.08" rx="0.3" ry="0.3"/>
    <text x="168.6000" y="37.9000" font-family="monospace" font-size="1.6000" fill="#444444" text-anchor="end">10</text>
    <text x="169.6000" y="37.9000" font-family="sans-serif" font-size="1.6000" fill="#111111">Shell1OverhangHatch</text>
    <rect x="161.8000" y="39.0000" width="3.5000" height="2.0000" fill="#00CED1" stroke="#333333" stroke-width="0.08" rx="0.3" ry="0.3"/>
    <text x="168.6000" y="40.9000" font-family="monospace" font-size="1.6000" fill="#444444" text-anchor="end">11</text>
    <text x="169.6000" y="40.9000" font-family="sans-serif" font-size="1.6000" fill="#111111">Shell1NormalHatch</text>
    <rect x="161.8000" y="42.0000" width="3.5000" height="2.0000" fill="#FF00FF" stroke="#333333" stroke-width="0.08" rx="0.3" ry="0.3"/>
    <text x="168.6000" y="43.9000" font-family="monospace" font-size="1.6000" fill="#444444" text-anchor="end">12</text>
    <text x="169.6000" y="43.9000" font-family="sans-serif" font-size="1.6000" fill="#111111">Shell1ContourHatch</text>
    <rect x="161.8000" y="45.0000" width="3.5000" height="2.0000" fill="#A52A2A" stroke="#333333" stroke-width="0.08" rx="0.3" ry="0.3"/>
    <text x="168.6000" y="46.9000" font-family="monospace" font-size="1.6000" fill="#444444" text-anchor="end">13</text>
    <text x="169.6000" y="46.9000" font-family="sans-serif" font-size="1.6000" fill="#111111">Shell2OverhangHatch</text>
    <rect x="161.8000" y="48.0000" width="3.5000" height="2.0000" fill="#808080" stroke="#333333" stroke-width="0.08" rx="0.3" ry="0.3"/>
    <text x="168.6000" y="49.9000" font-family="monospace" font-size="1.6000" fill="#444444" text-anchor="end">14</text>
    <text x="169.6000" y="49.9000" font-family="sans-serif" font-size="1.6000" fill="#111111">Shell2NormalHatch</text>
    <rect x="161.8000" y="51.0000" width="3.5000" height="2.0000" fill="#32CD32" stroke="#333333" stroke-width="0.08" rx="0.3" ry="0.3"/>
    <text x="168.6000" y="52.9000" font-family="monospace" font-size="1.6000" fill="#444444" text-anchor="end">15</text>
    <text x="169.6000" y="52.9000" font-family="sans-serif" font-size="1.6000" fill="#111111">Shell2ContourHatch</text>
    <rect x="161.8000" y="54.0000" width="3.5000" height="2.0000" fill="#1A237E" stroke="#333333" stroke-width="0.08" rx="0.3" ry="0.3"/>
    <text x="168.6000" y="55.9000" font-family="monospace" font-size="1.6000" fill="#444444" text-anchor="end">16</text>
    <text x="169.6000" y="55.9000" font-family="sans-serif" font-size="1.6000" fill="#111111">SupportContourVolume</text>
    <rect x="161.8000" y="57.0000" width="3.5000" height="2.0000" fill="#827717" stroke="#333333" stroke-width="0.08" rx="0.3" ry="0.3"/>
    <text x="168.6000" y="58.9000" font-family="monospace" font-size="1.6000" fill="#444444" text-anchor="end">17</text>
    <text x="169.6000" y="58.9000" font-family="sans-serif" font-size="1.6000" fill="#111111">SupportHatch</text>
    <rect x="161.8000" y="60.0000" width="3.5000" height="2.0000" fill="#006064" stroke="#333333" stroke-width="0.08" rx="0.3" ry="0.3"/>
    <text x="168.6000" y="61.9000" font-family="monospace" font-size="1.6000" fill="#444444" text-anchor="end">18</text>
    <text x="169.6000" y="61.9000" font-family="sans-serif" font-size="1.6000" fill="#111111">PointSequence</text>
    <rect x="161.8000" y="63.0000" width="3.5000" height="2.0000" fill="#B71C1C" stroke="#333333" stroke-width="0.08" rx="0.3" ry="0.3"/>
    <text x="168.6000" y="64.9000" font-family="monospace" font-size="1.6000" fill="#444444" text-anchor="end">19</text>
    <text x="169.6000" y="64.9000" font-family="sans-serif" font-size="1.6000" fill="#111111">ExternalSupports</text>
    <rect x="161.8000" y="66.0000" width="3.5000" height="2.0000" fill="#E64A19" stroke="#333333" stroke-width="0.08" rx="0.3" ry="0.3"/>
    <text x="168.6000" y="67.9000" font-family="monospace" font-size="1.6000" fill="#444444" text-anchor="end">20</text>
    <text x="169.6000" y="67.9000" font-family="sans-serif" font-size="1.6000" fill="#111111">CoreContourHatchOverhang</text>
    <rect x="161.8000" y="69.0000" width="3.5000" height="2.0000" fill="#311B92" stroke="#333333" stroke-width="0.08" rx="0.3" ry="0.3"/>
    <text x="168.6000" y="70.9000" font-family="monospace" font-size="1.6000" fill="#444444" text-anchor="end">21</text>
    <text x="169.6000" y="70.9000" font-family="sans-serif" font-size="1.6000" fill="#111111">Shell1ContourHatchOverhang</text>
    <rect x="161.8000" y="72.0000" width="3.5000" height="2.0000" fill="#880E4F" stroke="#333333" stroke-width="0.08" rx="0.3" ry="0.3"/>
    <text x="168.6000" y="73.9000" font-family="monospace" font-size="1.6000" fill="#444444" text-anchor="end">22</text>
    <text x="169.6000" y="73.9000" font-family="sans-serif" font-size="1.6000" fill="#111111">Shell2ContourHatchOverhang</text>
    </g>
  </g>
</svg>
