<?xml version="1.0" encoding="UTF-8" standalone="yes"?>
<svg xmlns="http://www.w3.org/2000/svg"
     xmlns:xlink="http://www.w3.org/1999/xlink"
     width="2020.0000mm" height="1600.0000mm"
     viewBox="0 0 202.000000 160.000000">
  <!--
    Build plate : 150.00 x 150.00 mm
    Coordinate  : 1 SVG unit = 1 mm
    Display zoom: 10x  (width/height = viewBox x 10)
    Hatch stroke: 0.04 mm = ~28 mm on screen at this zoom
    Legend panel: right margin (42 mm wide)
  -->
  <defs>
    <marker id="endArrow" markerWidth="2" markerHeight="1.4"
            refX="0" refY="0.7" orient="auto"
            markerUnits="strokeWidth">
      <polyline fill="darkblue" points="0,0 2,0.7 0,1.4 0.2,0.7"/>
    </marker>
  </defs>
  <!-- Background -->
  <rect x="0" y="0" width="202.000000" height="160.000000" fill="#f0f0f0" stroke="none"/>
  <!-- Build plate boundary (150 x 150 mm) -->
  <rect x="5.000000" y="5.000000" width="150.000000" height="150.000000"
        fill="#ffffff" stroke="#aaaaaa" stroke-width="0.2" stroke-dasharray="1,0.5"/>
  <!-- Build plate centre circle (r = 75.00 mm) -->
  <circle cx="80.000000" cy="80.000000" r="75.000000"
          fill="none" stroke="#bbbbbb" stroke-width="0.15" stroke-dasharray="0.8,0.4"/>
  <!-- Centre cross-hair -->
  <line x1="5.000000" y1="80.000000" x2="155.000000" y2="80.000000" stroke="#cccccc" stroke-width="0.1"/>
  <line x1="80.000000" y1="5.000000" x2="80.000000" y2="155.000000" stroke="#cccccc" stroke-width="0.1"/>
  <circle cx="80.000000" cy="80.000000" r="0.3" fill="#cccccc" stroke="none"/>
  <!-- Corner labels -->
  <text x="5.400000" y="4.600000" font-family="sans-serif" font-size="2" fill="#888888">0,0</text>
  <text x="154.600006" y="4.600000" font-family="sans-serif" font-size="2" fill="#888888" text-anchor="end">150,0</text>
  <text x="5.400000" y="157.199997" font-family="sans-serif" font-size="2" fill="#888888">0,150</text>
  <!-- Layer geometry -->
  <g id="geometry">
    <g class="thermal-hatch" data-segment="8" data-name="CoreNormalHatch">
      <line x1="34.42799" y1="124.25298" x2="33.23281" y2="123.35235" stroke="#228B22" stroke-width="0.04000"/>
      <line x1="34.24250" y1="124.23841" x2="33.32420" y2="123.54642" stroke="#228B22" stroke-width="0.04000"/>
      <line x1="34.02900" y1="124.20274" x2="33.41558" y2="123.74050" stroke="#228B22" stroke-width="0.04000"/>
      <line x1="33.81551" y1="124.16708" x2="33.47993" y2="123.91420" stroke="#228B22" stroke-width="0.04000"/>
      <line x1="34.46574" y1="124.15620" x2="33.14945" y2="123.16431" stroke="#228B22" stroke-width="0.04000"/>
      <line x1="33.60200" y1="124.13141" x2="33.53848" y2="124.08353" stroke="#228B22" stroke-width="0.04000"/>
      <line x1="34.50165" y1="124.05805" x2="33.07753" y2="122.98490" stroke="#228B22" stroke-width="0.04000"/>
      <line x1="34.53756" y1="123.95991" x2="32.96326" y2="122.77359" stroke="#228B22" stroke-width="0.04000"/>
      <line x1="34.57347" y1="123.86176" x2="32.91588" y2="122.61267" stroke="#228B22" stroke-width="0.04000"/>
      <line x1="34.60938" y1="123.76360" x2="32.87768" y2="122.45867" stroke="#228B22" stroke-width="0.04000"/>
      <line x1="34.64529" y1="123.66545" x2="32.83948" y2="122.30467" stroke="#228B22" stroke-width="0.04000"/>
      <line x1="34.68121" y1="123.56730" x2="32.80127" y2="122.15067" stroke="#228B22" stroke-width="0.04000"/>
      <line x1="34.71712" y1="123.46915" x2="32.76881" y2="122.00099" stroke="#228B22" stroke-width="0.04000"/>
      <line x1="34.75303" y1="123.37099" x2="32.74399" y2="121.85707" stroke="#228B22" stroke-width="0.04000"/>
      <line x1="34.78315" y1="123.26848" x2="32.71917" y2="121.71316" stroke="#228B22" stroke-width="0.04000"/>
      <line x1="34.79601" y1="123.15295" x2="32.69434" y2="121.56923" stroke="#228B22" stroke-width="0.04000"/>
      <line x1="34.80887" y1="123.03743" x2="32.66952" y2="121.42531" stroke="#228B22" stroke-width="0.04000"/>
      <line x1="34.82173" y1="122.92191" x2="32.64436" y2="121.28114" stroke="#228B22" stroke-width="0.04000"/>
      <line x1="34.83459" y1="122.80639" x2="32.61790" y2="121.13599" stroke="#228B22" stroke-width="0.04000"/>
      <line x1="34.84745" y1="122.69086" x2="32.59340" y2="120.99231" stroke="#228B22" stroke-width="0.04000"/>
      <line x1="34.86031" y1="122.57534" x2="32.56874" y2="120.84852" stroke="#228B22" stroke-width="0.04000"/>
      <line x1="34.87318" y1="122.45982" x2="32.54203" y2="120.70318" stroke="#228B22" stroke-width="0.04000"/>
      <line x1="34.88809" y1="122.34584" x2="32.51533" y2="120.55784" stroke="#228B22" stroke-width="0.04000"/>
      <line x1="34.90443" y1="122.23295" x2="32.48862" y2="120.41251" stroke="#228B22" stroke-width="0.04000"/>
      <line x1="34.92400" y1="122.12247" x2="32.46191" y2="120.26716" stroke="#228B22" stroke-width="0.04000"/>
      <line x1="34.94667" y1="122.01435" x2="32.44066" y2="120.12593" stroke="#228B22" stroke-width="0.04000"/>
      <line x1="34.96935" y1="121.90623" x2="32.42197" y2="119.98664" stroke="#228B22" stroke-width="0.04000"/>
      <line x1="34.99203" y1="121.79810" x2="32.40328" y2="119.84734" stroke="#228B22" stroke-width="0.04000"/>
      <line x1="35.01470" y1="121.68998" x2="32.38460" y2="119.70805" stroke="#228B22" stroke-width="0.04000"/>
      <line x1="35.03738" y1="121.58185" x2="32.36591" y2="119.56875" stroke="#228B22" stroke-width="0.04000"/>
      <line x1="35.06006" y1="121.47372" x2="32.34722" y2="119.42945" stroke="#228B22" stroke-width="0.04000"/>
      <line x1="35.08243" y1="121.36536" x2="32.32497" y2="119.28747" stroke="#228B22" stroke-width="0.04000"/>
      <line x1="35.10240" y1="121.25520" x2="32.30534" y2="119.14746" stroke="#228B22" stroke-width="0.04000"/>
      <line x1="35.12434" y1="121.14651" x2="32.28687" y2="119.00833" stroke="#228B22" stroke-width="0.04000"/>
      <line x1="35.15508" y1="121.04447" x2="32.26159" y2="118.86407" stroke="#228B22" stroke-width="0.04000"/>
      <line x1="35.18265" y1="120.94003" x2="32.23505" y2="118.71886" stroke="#228B22" stroke-width="0.04000"/>
      <line x1="35.20856" y1="120.83434" x2="32.20850" y2="118.57364" stroke="#228B22" stroke-width="0.04000"/>
      <line x1="35.23447" y1="120.72865" x2="32.18196" y2="118.42842" stroke="#228B22" stroke-width="0.04000"/>
      <line x1="35.26037" y1="120.62296" x2="32.15651" y2="118.28403" stroke="#228B22" stroke-width="0.04000"/>
      <line x1="35.28628" y1="120.51727" x2="32.13953" y2="118.14603" stroke="#228B22" stroke-width="0.04000"/>
      <line x1="35.31218" y1="120.41158" x2="32.12254" y2="118.00801" stroke="#228B22" stroke-width="0.04000"/>
      <line x1="35.33869" y1="120.30634" x2="32.10238" y2="117.86760" stroke="#228B22" stroke-width="0.04000"/>
      <line x1="35.36636" y1="120.20198" x2="32.08038" y2="117.72582" stroke="#228B22" stroke-width="0.04000"/>
      <line x1="35.39404" y1="120.09763" x2="32.05839" y2="117.58403" stroke="#228B22" stroke-width="0.04000"/>
      <line x1="35.42171" y1="119.99326" x2="32.03640" y2="117.44225" stroke="#228B22" stroke-width="0.04000"/>
      <line x1="35.44939" y1="119.88890" x2="32.01777" y2="117.30299" stroke="#228B22" stroke-width="0.04000"/>
      <line x1="35.47581" y1="119.78360" x2="32.00448" y2="117.16776" stroke="#228B22" stroke-width="0.04000"/>
      <line x1="35.50159" y1="119.67782" x2="31.99119" y2="117.03253" stroke="#228B22" stroke-width="0.04000"/>
      <line x1="35.52738" y1="119.57204" x2="31.97790" y2="116.89731" stroke="#228B22" stroke-width="0.04000"/>
      <line x1="35.55317" y1="119.46625" x2="31.96461" y2="116.76208" stroke="#228B22" stroke-width="0.04000"/>
      <line x1="35.57869" y1="119.36027" x2="31.94863" y2="116.62482" stroke="#228B22" stroke-width="0.04000"/>
      <line x1="35.60388" y1="119.25404" x2="31.92906" y2="116.48486" stroke="#228B22" stroke-width="0.04000"/>
      <line x1="35.62907" y1="119.14780" x2="31.91296" y2="116.34752" stroke="#228B22" stroke-width="0.04000"/>
      <line x1="35.65425" y1="119.04156" x2="31.89688" y2="116.21019" stroke="#228B22" stroke-width="0.04000"/>
      <line x1="35.67297" y1="118.93046" x2="31.88081" y2="116.07285" stroke="#228B22" stroke-width="0.04000"/>
      <line x1="35.68469" y1="118.81409" x2="31.86473" y2="115.93553" stroke="#228B22" stroke-width="0.04000"/>
      <line x1="35.69641" y1="118.69770" x2="31.84431" y2="115.79493" stroke="#228B22" stroke-width="0.04000"/>
      <line x1="35.70814" y1="118.58132" x2="31.81191" y2="115.64531" stroke="#228B22" stroke-width="0.04000"/>
      <line x1="35.71986" y1="118.46494" x2="31.77686" y2="115.49368" stroke="#228B22" stroke-width="0.04000"/>
      <line x1="35.73241" y1="118.34919" x2="31.73013" y2="115.33326" stroke="#228B22" stroke-width="0.04000"/>
      <line x1="35.74866" y1="118.23622" x2="31.68967" y2="115.17754" stroke="#228B22" stroke-width="0.04000"/>
      <line x1="35.76492" y1="118.12325" x2="31.64920" y2="115.02184" stroke="#228B22" stroke-width="0.04000"/>
      <line x1="35.78117" y1="118.01028" x2="31.60873" y2="114.86613" stroke="#228B22" stroke-width="0.04000"/>
      <line x1="35.79742" y1="117.89732" x2="31.56826" y2="114.71042" stroke="#228B22" stroke-width="0.04000"/>
      <line x1="35.81367" y1="117.78436" x2="31.52616" y2="114.55347" stroke="#228B22" stroke-width="0.04000"/>
      <line x1="35.82902" y1="117.67069" x2="31.47316" y2="114.38832" stroke="#228B22" stroke-width="0.04000"/>
      <line x1="35.84260" y1="117.55573" x2="31.42017" y2="114.22318" stroke="#228B22" stroke-width="0.04000"/>
      <line x1="35.85619" y1="117.44074" x2="31.36505" y2="114.05643" stroke="#228B22" stroke-width="0.04000"/>
      <line x1="35.87046" y1="117.32629" x2="31.30720" y2="113.88763" stroke="#228B22" stroke-width="0.04000"/>
      <line x1="35.88510" y1="117.21210" x2="31.25534" y2="113.72333" stroke="#228B22" stroke-width="0.04000"/>
      <line x1="35.89611" y1="117.09518" x2="31.21959" y2="113.57117" stroke="#228B22" stroke-width="0.04000"/>
      <line x1="35.89993" y1="116.97285" x2="31.18384" y2="113.41903" stroke="#228B22" stroke-width="0.04000"/>
      <line x1="35.90374" y1="116.85052" x2="31.14809" y2="113.26688" stroke="#228B22" stroke-width="0.04000"/>
      <line x1="35.90755" y1="116.72818" x2="31.11234" y2="113.11472" stroke="#228B22" stroke-width="0.04000"/>
      <line x1="35.91137" y1="116.60584" x2="31.07622" y2="112.96230" stroke="#228B22" stroke-width="0.04000"/>
      <line x1="35.91518" y1="116.48350" x2="31.05100" y2="112.81808" stroke="#228B22" stroke-width="0.04000"/>
      <line x1="35.91883" y1="116.36104" x2="31.02852" y2="112.67592" stroke="#228B22" stroke-width="0.04000"/>
      <line x1="35.92203" y1="116.23823" x2="31.00604" y2="112.53377" stroke="#228B22" stroke-width="0.04000"/>
      <line x1="35.92522" y1="116.11542" x2="30.98356" y2="112.39161" stroke="#228B22" stroke-width="0.04000"/>
      <line x1="35.92841" y1="115.99261" x2="30.96108" y2="112.24946" stroke="#228B22" stroke-width="0.04000"/>
      <line x1="35.93161" y1="115.86980" x2="30.93860" y2="112.10730" stroke="#228B22" stroke-width="0.04000"/>
      <line x1="35.93480" y1="115.74699" x2="30.91612" y2="111.96515" stroke="#228B22" stroke-width="0.04000"/>
      <line x1="35.93800" y1="115.62419" x2="30.91460" y2="111.83879" stroke="#228B22" stroke-width="0.04000"/>
      <line x1="35.94051" y1="115.50087" x2="30.92877" y2="111.72425" stroke="#228B22" stroke-width="0.04000"/>
      <line x1="35.94260" y1="115.37724" x2="30.92884" y2="111.59909" stroke="#228B22" stroke-width="0.04000"/>
      <line x1="35.94558" y1="115.25426" x2="30.92891" y2="111.47393" stroke="#228B22" stroke-width="0.04000"/>
      <line x1="35.94798" y1="115.13085" x2="30.92898" y2="111.34877" stroke="#228B22" stroke-width="0.04000"/>
      <line x1="35.93981" y1="114.99950" x2="30.93847" y2="111.23071" stroke="#228B22" stroke-width="0.04000"/>
      <line x1="35.93164" y1="114.86813" x2="30.94874" y2="111.11324" stroke="#228B22" stroke-width="0.04000"/>
      <line x1="35.92347" y1="114.73676" x2="30.95901" y2="110.99577" stroke="#228B22" stroke-width="0.04000"/>
      <line x1="35.91531" y1="114.60539" x2="30.96929" y2="110.87830" stroke="#228B22" stroke-width="0.04000"/>
      <line x1="35.90714" y1="114.47402" x2="30.97554" y2="110.75780" stroke="#228B22" stroke-width="0.04000"/>
      <line x1="35.89773" y1="114.34171" x2="30.95829" y2="110.61958" stroke="#228B22" stroke-width="0.04000"/>
      <line x1="35.88708" y1="114.20847" x2="30.94487" y2="110.48425" stroke="#228B22" stroke-width="0.04000"/>
      <line x1="35.87643" y1="114.07524" x2="30.96978" y2="110.37781" stroke="#228B22" stroke-width="0.04000"/>
      <line x1="35.86579" y1="113.94200" x2="30.99469" y2="110.27137" stroke="#228B22" stroke-width="0.04000"/>
      <line x1="35.85514" y1="113.80877" x2="31.01960" y2="110.16492" stroke="#228B22" stroke-width="0.04000"/>
      <line x1="35.84455" y1="113.67557" x2="31.04451" y2="110.05848" stroke="#228B22" stroke-width="0.04000"/>
      <line x1="35.83534" y1="113.54342" x2="31.06942" y2="109.95204" stroke="#228B22" stroke-width="0.04000"/>
      <line x1="35.82614" y1="113.41127" x2="31.09433" y2="109.84560" stroke="#228B22" stroke-width="0.04000"/>
      <line x1="35.81298" y1="113.27614" x2="31.11250" y2="109.73408" stroke="#228B22" stroke-width="0.04000"/>
      <line x1="35.79928" y1="113.14060" x2="31.11997" y2="109.61449" stroke="#228B22" stroke-width="0.04000"/>
      <line x1="35.78558" y1="113.00507" x2="31.12744" y2="109.49491" stroke="#228B22" stroke-width="0.04000"/>
      <line x1="35.77188" y1="112.86953" x2="31.13491" y2="109.37532" stroke="#228B22" stroke-width="0.04000"/>
      <line x1="35.75630" y1="112.73257" x2="31.14239" y2="109.25574" stroke="#228B22" stroke-width="0.04000"/>
      <line x1="35.73013" y1="112.58764" x2="31.14986" y2="109.13615" stroke="#228B22" stroke-width="0.04000"/>
      <line x1="35.70396" y1="112.44270" x2="31.15733" y2="109.01657" stroke="#228B22" stroke-width="0.04000"/>
      <line x1="35.67034" y1="112.29216" x2="31.18434" y2="108.91171" stroke="#228B22" stroke-width="0.04000"/>
      <line x1="35.62317" y1="112.13141" x2="31.22775" y2="108.81922" stroke="#228B22" stroke-width="0.04000"/>
      <line x1="35.58221" y1="111.97532" x2="31.24932" y2="108.71026" stroke="#228B22" stroke-width="0.04000"/>
      <line x1="35.54124" y1="111.81924" x2="31.26491" y2="108.59679" stroke="#228B22" stroke-width="0.04000"/>
      <line x1="35.50027" y1="111.66315" x2="31.28049" y2="108.48331" stroke="#228B22" stroke-width="0.04000"/>
      <line x1="35.45930" y1="111.50706" x2="31.29621" y2="108.36994" stroke="#228B22" stroke-width="0.04000"/>
      <line x1="35.41833" y1="111.35098" x2="31.31292" y2="108.25732" stroke="#228B22" stroke-width="0.04000"/>
      <line x1="35.37431" y1="111.19259" x2="31.32964" y2="108.14471" stroke="#228B22" stroke-width="0.04000"/>
      <line x1="35.31447" y1="111.02229" x2="31.34635" y2="108.03209" stroke="#228B22" stroke-width="0.04000"/>
      <line x1="35.25463" y1="110.85198" x2="31.36306" y2="107.91947" stroke="#228B22" stroke-width="0.04000"/>
      <line x1="35.18813" y1="110.67666" x2="31.33470" y2="107.77289" stroke="#228B22" stroke-width="0.04000"/>
      <line x1="44.40786" y1="110.61227" x2="30.51747" y2="100.14510" stroke="#228B22" stroke-width="0.04000"/>
      <line x1="44.55945" y1="110.60127" x2="30.56102" y2="100.05270" stroke="#228B22" stroke-width="0.04000"/>
      <line x1="44.22671" y1="110.60097" x2="30.47392" y2="100.23750" stroke="#228B22" stroke-width="0.04000"/>
      <line x1="44.04452" y1="110.58888" x2="30.43038" y2="100.32990" stroke="#228B22" stroke-width="0.04000"/>
      <line x1="44.69581" y1="110.57882" x2="30.60568" y2="99.96114" stroke="#228B22" stroke-width="0.04000"/>
      <line x1="43.86232" y1="110.57681" x2="30.38683" y2="100.42229" stroke="#228B22" stroke-width="0.04000"/>
      <line x1="43.68012" y1="110.56472" x2="30.34328" y2="100.51469" stroke="#228B22" stroke-width="0.04000"/>
      <line x1="44.82896" y1="110.55393" x2="30.65295" y2="99.87155" stroke="#228B22" stroke-width="0.04000"/>
      <line x1="44.97305" y1="110.53730" x2="30.70023" y2="99.78196" stroke="#228B22" stroke-width="0.04000"/>
      <line x1="43.47446" y1="110.53495" x2="30.29974" y2="100.60709" stroke="#228B22" stroke-width="0.04000"/>
      <line x1="45.11713" y1="110.52067" x2="30.74749" y2="99.69237" stroke="#228B22" stroke-width="0.04000"/>
      <line x1="45.26122" y1="110.50403" x2="30.79466" y2="99.60270" stroke="#228B22" stroke-width="0.04000"/>
      <line x1="35.12089" y1="110.50077" x2="31.29943" y2="107.62109" stroke="#228B22" stroke-width="0.04000"/>
      <line x1="43.24987" y1="110.49093" x2="30.25619" y2="100.69949" stroke="#228B22" stroke-width="0.04000"/>
      <line x1="45.40531" y1="110.48740" x2="30.84183" y2="99.51303" stroke="#228B22" stroke-width="0.04000"/>
      <line x1="45.54940" y1="110.47076" x2="30.88901" y2="99.42336" stroke="#228B22" stroke-width="0.04000"/>
      <line x1="43.02528" y1="110.44690" x2="30.21705" y2="100.79521" stroke="#228B22" stroke-width="0.04000"/>
      <line x1="45.67484" y1="110.44007" x2="30.93618" y2="99.33369" stroke="#228B22" stroke-width="0.04000"/>
      <line x1="42.80848" y1="110.40874" x2="30.18770" y2="100.89831" stroke="#228B22" stroke-width="0.04000"/>
      <line x1="45.77676" y1="110.39166" x2="30.98335" y2="99.24403" stroke="#228B22" stroke-width="0.04000"/>
      <line x1="42.60472" y1="110.38042" x2="30.15978" y2="101.00248" stroke="#228B22" stroke-width="0.04000"/>
      <line x1="45.87869" y1="110.34325" x2="31.03052" y2="99.15436" stroke="#228B22" stroke-width="0.04000"/>
      <line x1="35.05364" y1="110.32488" x2="31.26415" y2="107.46930" stroke="#228B22" stroke-width="0.04000"/>
      <line x1="42.34554" y1="110.31033" x2="30.13532" y2="101.10926" stroke="#228B22" stroke-width="0.04000"/>
      <line x1="45.98061" y1="110.29485" x2="31.07769" y2="99.06469" stroke="#228B22" stroke-width="0.04000"/>
      <line x1="46.08254" y1="110.24644" x2="31.12486" y2="98.97503" stroke="#228B22" stroke-width="0.04000"/>
      <line x1="46.18446" y1="110.19804" x2="31.17624" y2="98.88853" stroke="#228B22" stroke-width="0.04000"/>
      <line x1="42.00130" y1="110.17613" x2="30.11086" y2="101.21605" stroke="#228B22" stroke-width="0.04000"/>
      <line x1="46.28638" y1="110.14963" x2="31.23630" y2="98.80857" stroke="#228B22" stroke-width="0.04000"/>
      <line x1="34.98672" y1="110.14923" x2="31.28126" y2="107.35697" stroke="#228B22" stroke-width="0.04000"/>
      <line x1="46.35802" y1="110.07839" x2="31.32749" y2="98.75208" stroke="#228B22" stroke-width="0.04000"/>
      <line x1="41.65706" y1="110.04195" x2="30.08640" y2="101.32282" stroke="#228B22" stroke-width="0.04000"/>
      <line x1="46.42307" y1="110.00220" x2="31.42073" y2="98.69712" stroke="#228B22" stroke-width="0.04000"/>
      <line x1="34.91993" y1="109.97369" x2="31.30663" y2="107.25088" stroke="#228B22" stroke-width="0.04000"/>
      <line x1="46.48812" y1="109.92600" x2="31.51488" y2="98.64285" stroke="#228B22" stroke-width="0.04000"/>
      <line x1="41.32228" y1="109.91489" x2="30.06194" y2="101.42961" stroke="#228B22" stroke-width="0.04000"/>
      <line x1="46.55640" y1="109.85224" x2="31.60975" y2="98.58913" stroke="#228B22" stroke-width="0.04000"/>
      <line x1="34.85313" y1="109.79815" x2="31.33201" y2="107.14479" stroke="#228B22" stroke-width="0.04000"/>
      <line x1="40.98854" y1="109.78860" x2="35.81327" y2="105.88876" stroke="#228B22" stroke-width="0.04000"/>
      <line x1="46.62510" y1="109.77879" x2="31.70462" y2="98.53541" stroke="#228B22" stroke-width="0.04000"/>
      <line x1="46.69378" y1="109.70534" x2="31.79949" y2="98.48169" stroke="#228B22" stroke-width="0.04000"/>
      <line x1="46.76247" y1="109.63189" x2="38.44843" y2="103.36681" stroke="#228B22" stroke-width="0.04000"/>
      <line x1="34.78634" y1="109.62260" x2="31.35739" y2="107.03870" stroke="#228B22" stroke-width="0.04000"/>
      <line x1="40.54603" y1="109.58037" x2="35.87627" y2="106.06145" stroke="#228B22" stroke-width="0.04000"/>
      <line x1="46.83117" y1="109.55844" x2="38.76479" y2="103.48000" stroke="#228B22" stroke-width="0.04000"/>
      <line x1="46.89986" y1="109.48499" x2="39.12551" y2="103.62659" stroke="#228B22" stroke-width="0.04000"/>
      <line x1="34.71955" y1="109.44706" x2="31.38276" y2="106.93261" stroke="#228B22" stroke-width="0.04000"/>
      <line x1="46.97180" y1="109.41399" x2="39.74036" y2="103.96471" stroke="#228B22" stroke-width="0.04000"/>
      <line x1="40.13676" y1="109.39716" x2="36.75331" y2="106.84756" stroke="#228B22" stroke-width="0.04000"/>
      <line x1="47.04418" y1="109.34332" x2="40.21505" y2="104.19720" stroke="#228B22" stroke-width="0.04000"/>
      <line x1="34.69622" y1="109.30426" x2="31.37133" y2="106.79878" stroke="#228B22" stroke-width="0.04000"/>
      <line x1="47.11656" y1="109.27264" x2="40.64203" y2="104.39374" stroke="#228B22" stroke-width="0.04000"/>
      <line x1="47.17230" y1="109.18943" x2="41.31171" y2="104.77316" stroke="#228B22" stroke-width="0.04000"/>
      <line x1="34.66991" y1="109.15922" x2="31.33284" y2="106.64456" stroke="#228B22" stroke-width="0.04000"/>
      <line x1="39.52611" y1="109.06223" x2="37.03052" y2="107.18166" stroke="#228B22" stroke-width="0.04000"/>
      <line x1="34.62363" y1="108.99914" x2="31.29435" y2="106.49034" stroke="#228B22" stroke-width="0.04000"/>
      <line x1="47.04756" y1="108.97021" x2="41.79273" y2="105.01042" stroke="#228B22" stroke-width="0.04000"/>
      <line x1="34.57735" y1="108.83905" x2="31.25586" y2="106.33612" stroke="#228B22" stroke-width="0.04000"/>
      <line x1="46.90017" y1="108.73394" x2="42.21449" y2="105.20303" stroke="#228B22" stroke-width="0.04000"/>
      <line x1="34.53107" y1="108.67896" x2="31.21737" y2="106.18190" stroke="#228B22" stroke-width="0.04000"/>
      <line x1="34.48480" y1="108.51888" x2="31.17837" y2="106.02731" stroke="#228B22" stroke-width="0.04000"/>
      <line x1="46.75280" y1="108.49768" x2="42.86884" y2="105.57091" stroke="#228B22" stroke-width="0.04000"/>
      <line x1="38.50123" y1="108.41514" x2="37.95100" y2="108.00050" stroke="#228B22" stroke-width="0.04000"/>
      <line x1="34.43852" y1="108.35880" x2="31.11462" y2="105.85405" stroke="#228B22" stroke-width="0.04000"/>
      <line x1="46.60542" y1="108.26141" x2="43.24236" y2="105.72716" stroke="#228B22" stroke-width="0.04000"/>
      <line x1="34.39225" y1="108.19872" x2="31.01377" y2="105.65285" stroke="#228B22" stroke-width="0.04000"/>
      <line x1="34.38787" y1="108.07020" x2="30.95947" y2="105.48671" stroke="#228B22" stroke-width="0.04000"/>
      <line x1="34.38418" y1="107.94220" x2="30.90565" y2="105.32095" stroke="#228B22" stroke-width="0.04000"/>
      <line x1="34.36926" y1="107.80574" x2="30.85184" y2="105.15517" stroke="#228B22" stroke-width="0.04000"/>
      <line x1="34.35433" y1="107.66928" x2="30.79055" y2="104.98378" stroke="#228B22" stroke-width="0.04000"/>
      <line x1="37.44962" y1="107.62270" x2="37.25868" y2="107.47881" stroke="#228B22" stroke-width="0.04000"/>
      <line x1="34.33941" y1="107.53282" x2="30.69292" y2="104.78500" stroke="#228B22" stroke-width="0.04000"/>
      <line x1="45.76044" y1="107.49946" x2="44.00135" y2="106.17388" stroke="#228B22" stroke-width="0.04000"/>
      <line x1="34.32449" y1="107.39636" x2="30.59379" y2="104.58508" stroke="#228B22" stroke-width="0.04000"/>
      <line x1="34.30956" y1="107.25990" x2="30.49401" y2="104.38468" stroke="#228B22" stroke-width="0.04000"/>
      <line x1="34.29464" y1="107.12345" x2="30.39424" y2="104.18429" stroke="#228B22" stroke-width="0.04000"/>
      <line x1="34.27972" y1="106.98699" x2="30.31901" y2="104.00238" stroke="#228B22" stroke-width="0.04000"/>
      <line x1="34.30573" y1="106.88138" x2="30.24720" y2="103.82306" stroke="#228B22" stroke-width="0.04000"/>
      <line x1="34.33315" y1="106.77682" x2="30.17540" y2="103.64373" stroke="#228B22" stroke-width="0.04000"/>
      <line x1="34.36058" y1="106.67228" x2="30.10849" y2="103.46810" stroke="#228B22" stroke-width="0.04000"/>
      <line x1="34.38801" y1="106.56773" x2="30.06608" y2="103.31093" stroke="#228B22" stroke-width="0.04000"/>
      <line x1="36.33645" y1="106.53343" x2="35.93927" y2="106.23414" stroke="#228B22" stroke-width="0.04000"/>
      <line x1="34.41544" y1="106.46320" x2="30.04377" y2="103.16891" stroke="#228B22" stroke-width="0.04000"/>
      <line x1="34.44286" y1="106.35864" x2="30.02146" y2="103.02688" stroke="#228B22" stroke-width="0.04000"/>
      <line x1="34.47029" y1="106.25410" x2="29.99915" y2="102.88486" stroke="#228B22" stroke-width="0.04000"/>
      <line x1="34.50183" y1="106.15266" x2="29.97684" y2="102.74283" stroke="#228B22" stroke-width="0.04000"/>
      <line x1="34.60870" y1="106.10797" x2="29.95453" y2="102.60080" stroke="#228B22" stroke-width="0.04000"/>
      <line x1="34.71227" y1="106.06080" x2="29.94774" y2="102.47047" stroke="#228B22" stroke-width="0.04000"/>
      <line x1="34.80281" y1="106.00382" x2="29.95251" y2="102.34885" stroke="#228B22" stroke-width="0.04000"/>
      <line x1="34.89336" y1="105.94684" x2="29.96028" y2="102.22950" stroke="#228B22" stroke-width="0.04000"/>
      <line x1="34.98391" y1="105.88986" x2="29.96806" y2="102.11015" stroke="#228B22" stroke-width="0.04000"/>
      <line x1="35.75127" y1="105.84204" x2="30.03749" y2="101.53639" stroke="#228B22" stroke-width="0.04000"/>
      <line x1="35.07446" y1="105.83289" x2="29.97583" y2="101.99079" stroke="#228B22" stroke-width="0.04000"/>
      <line x1="35.16501" y1="105.77590" x2="29.98360" y2="101.87143" stroke="#228B22" stroke-width="0.04000"/>
      <line x1="35.25556" y1="105.71893" x2="29.99138" y2="101.75208" stroke="#228B22" stroke-width="0.04000"/>
      <line x1="35.34612" y1="105.66195" x2="30.01303" y2="101.64318" stroke="#228B22" stroke-width="0.04000"/>
      <line x1="38.43764" y1="103.35868" x2="31.89436" y2="98.42796" stroke="#228B22" stroke-width="0.04000"/>
      <line x1="38.33713" y1="103.15773" x2="31.98923" y2="98.37424" stroke="#228B22" stroke-width="0.04000"/>
      <line x1="38.23662" y1="102.95677" x2="32.08411" y2="98.32052" stroke="#228B22" stroke-width="0.04000"/>
      <line x1="38.09798" y1="102.72708" x2="32.17898" y2="98.26679" stroke="#228B22" stroke-width="0.04000"/>
      <line x1="37.93780" y1="102.48116" x2="32.27385" y2="98.21307" stroke="#228B22" stroke-width="0.04000"/>
      <line x1="37.88557" y1="102.31659" x2="32.37115" y2="98.16117" stroke="#228B22" stroke-width="0.04000"/>
      <line x1="37.83334" y1="102.15202" x2="32.47490" y2="98.11414" stroke="#228B22" stroke-width="0.04000"/>
      <line x1="37.78112" y1="101.98746" x2="32.59489" y2="98.07935" stroke="#228B22" stroke-width="0.04000"/>
      <line x1="37.72889" y1="101.82288" x2="32.72988" y2="98.05586" stroke="#228B22" stroke-width="0.04000"/>
      <line x1="37.65783" y1="101.64413" x2="32.86486" y2="98.03237" stroke="#228B22" stroke-width="0.04000"/>
      <line x1="37.62031" y1="101.49064" x2="32.99986" y2="98.00887" stroke="#228B22" stroke-width="0.04000"/>
      <line x1="37.60038" y1="101.35041" x2="33.13484" y2="97.98538" stroke="#228B22" stroke-width="0.04000"/>
      <line x1="37.54228" y1="101.18141" x2="33.26983" y2="97.96188" stroke="#228B22" stroke-width="0.04000"/>
      <line x1="37.48418" y1="101.01241" x2="33.40971" y2="97.94209" stroke="#228B22" stroke-width="0.04000"/>
      <line x1="37.42608" y1="100.84341" x2="33.57475" y2="97.94124" stroke="#228B22" stroke-width="0.04000"/>
      <line x1="37.36798" y1="100.67442" x2="33.73979" y2="97.94039" stroke="#228B22" stroke-width="0.04000"/>
      <line x1="37.31850" y1="100.51192" x2="33.90483" y2="97.93954" stroke="#228B22" stroke-width="0.04000"/>
      <line x1="37.27886" y1="100.35684" x2="34.06987" y2="97.93870" stroke="#228B22" stroke-width="0.04000"/>
      <line x1="37.23922" y1="100.20176" x2="34.23491" y2="97.93784" stroke="#228B22" stroke-width="0.04000"/>
      <line x1="37.19958" y1="100.04668" x2="34.41224" y2="97.94626" stroke="#228B22" stroke-width="0.04000"/>
      <line x1="37.12367" y1="99.86426" x2="34.65337" y2="98.00275" stroke="#228B22" stroke-width="0.04000"/>
      <line x1="36.98573" y1="99.63509" x2="35.00404" y2="98.14178" stroke="#228B22" stroke-width="0.04000"/>
      <line x1="36.83824" y1="99.39874" x2="35.33421" y2="98.26537" stroke="#228B22" stroke-width="0.04000"/>
      <line x1="36.69075" y1="99.16238" x2="35.61883" y2="98.35464" stroke="#228B22" stroke-width="0.04000"/>
      <line x1="36.53945" y1="98.92316" x2="36.06628" y2="98.56660" stroke="#228B22" stroke-width="0.04000"/>
    </g>
    <g class="thermal-hatch" data-segment="8" data-name="CoreNormalHatch">
      <line x1="34.40980" y1="98.23700" x2="34.49490" y2="98.25190" stroke="#228B22" stroke-width="0.04000"/>
      <line x1="34.49490" y1="98.25190" x2="35.14890" y2="98.51120" stroke="#228B22" stroke-width="0.04000"/>
      <line x1="35.14890" y1="98.51120" x2="35.51480" y2="98.62590" stroke="#228B22" stroke-width="0.04000"/>
      <line x1="35.51480" y1="98.62590" x2="36.18170" y2="98.94230" stroke="#228B22" stroke-width="0.04000"/>
      <line x1="36.18170" y1="98.94230" x2="36.21680" y2="98.96010" stroke="#228B22" stroke-width="0.04000"/>
      <line x1="36.21680" y1="98.96010" x2="36.33800" y2="99.14490" stroke="#228B22" stroke-width="0.04000"/>
      <line x1="36.33800" y1="99.14490" x2="36.33800" y2="99.14480" stroke="#228B22" stroke-width="0.04000"/>
      <line x1="36.33800" y1="99.14480" x2="36.80810" y2="99.89790" stroke="#228B22" stroke-width="0.04000"/>
      <line x1="36.80810" y1="99.89790" x2="36.90460" y2="100.06470" stroke="#228B22" stroke-width="0.04000"/>
      <line x1="36.90460" y1="100.06470" x2="37.05890" y2="100.66750" stroke="#228B22" stroke-width="0.04000"/>
      <line x1="37.05890" y1="100.66750" x2="37.32050" y2="101.42860" stroke="#228B22" stroke-width="0.04000"/>
      <line x1="37.32050" y1="101.42860" x2="37.34800" y2="101.65130" stroke="#228B22" stroke-width="0.04000"/>
      <line x1="37.34800" y1="101.65130" x2="37.45120" y2="101.90710" stroke="#228B22" stroke-width="0.04000"/>
      <line x1="37.45120" y1="101.90710" x2="37.68760" y2="102.65130" stroke="#228B22" stroke-width="0.04000"/>
      <line x1="37.68760" y1="102.65130" x2="37.92830" y2="102.98880" stroke="#228B22" stroke-width="0.04000"/>
      <line x1="37.92830" y1="102.98880" x2="38.23290" y2="103.59770" stroke="#228B22" stroke-width="0.04000"/>
      <line x1="38.23290" y1="103.59770" x2="38.76650" y2="103.78860" stroke="#228B22" stroke-width="0.04000"/>
      <line x1="38.76650" y1="103.78860" x2="39.23010" y2="103.98670" stroke="#228B22" stroke-width="0.04000"/>
      <line x1="39.23010" y1="103.98670" x2="39.54080" y2="104.18390" stroke="#228B22" stroke-width="0.04000"/>
      <line x1="39.54080" y1="104.18390" x2="39.74690" y2="104.30470" stroke="#228B22" stroke-width="0.04000"/>
      <line x1="39.74690" y1="104.30470" x2="40.41730" y2="104.60590" stroke="#228B22" stroke-width="0.04000"/>
      <line x1="40.41730" y1="104.60590" x2="40.77690" y2="104.78380" stroke="#228B22" stroke-width="0.04000"/>
      <line x1="40.77690" y1="104.78380" x2="41.29950" y2="105.10650" stroke="#228B22" stroke-width="0.04000"/>
      <line x1="41.29950" y1="105.10650" x2="41.98200" y2="105.41340" stroke="#228B22" stroke-width="0.04000"/>
      <line x1="41.98200" y1="105.41340" x2="42.23380" y2="105.53360" stroke="#228B22" stroke-width="0.04000"/>
      <line x1="42.23380" y1="105.53360" x2="43.01240" y2="105.99190" stroke="#228B22" stroke-width="0.04000"/>
      <line x1="43.01240" y1="105.99190" x2="43.15880" y2="106.00910" stroke="#228B22" stroke-width="0.04000"/>
      <line x1="43.15880" y1="106.00910" x2="44.05670" y2="106.54450" stroke="#228B22" stroke-width="0.04000"/>
      <line x1="44.05670" y1="106.54450" x2="44.07430" y2="106.55190" stroke="#228B22" stroke-width="0.04000"/>
      <line x1="44.07430" y1="106.55190" x2="44.09450" y2="106.56450" stroke="#228B22" stroke-width="0.04000"/>
      <line x1="44.09450" y1="106.56450" x2="44.76150" y2="107.05930" stroke="#228B22" stroke-width="0.04000"/>
      <line x1="44.76150" y1="107.05930" x2="45.04590" y2="107.30560" stroke="#228B22" stroke-width="0.04000"/>
      <line x1="45.04590" y1="107.30560" x2="45.52510" y2="107.68290" stroke="#228B22" stroke-width="0.04000"/>
      <line x1="45.52510" y1="107.68290" x2="45.52510" y2="107.68300" stroke="#228B22" stroke-width="0.04000"/>
      <line x1="45.52510" y1="107.68300" x2="46.26180" y2="108.26610" stroke="#228B22" stroke-width="0.04000"/>
      <line x1="46.26180" y1="108.26610" x2="46.27140" y2="108.27950" stroke="#228B22" stroke-width="0.04000"/>
      <line x1="46.27140" y1="108.27950" x2="46.32000" y2="108.65820" stroke="#228B22" stroke-width="0.04000"/>
      <line x1="46.32000" y1="108.65820" x2="46.67260" y2="109.14960" stroke="#228B22" stroke-width="0.04000"/>
      <line x1="46.67260" y1="109.14960" x2="46.31990" y2="109.52670" stroke="#228B22" stroke-width="0.04000"/>
      <line x1="46.31990" y1="109.52670" x2="45.90920" y2="110.00750" stroke="#228B22" stroke-width="0.04000"/>
      <line x1="45.90920" y1="110.00750" x2="45.54860" y2="110.17890" stroke="#228B22" stroke-width="0.04000"/>
      <line x1="45.54860" y1="110.17890" x2="44.75230" y2="110.27100" stroke="#228B22" stroke-width="0.04000"/>
      <line x1="44.75230" y1="110.27100" x2="44.56290" y2="110.31010" stroke="#228B22" stroke-width="0.04000"/>
      <line x1="44.56290" y1="110.31010" x2="44.40230" y2="110.32170" stroke="#228B22" stroke-width="0.04000"/>
      <line x1="44.40230" y1="110.32170" x2="43.63530" y2="110.27080" stroke="#228B22" stroke-width="0.04000"/>
      <line x1="43.63530" y1="110.27080" x2="42.93250" y2="110.13310" stroke="#228B22" stroke-width="0.04000"/>
      <line x1="42.93250" y1="110.13310" x2="42.64850" y2="110.09370" stroke="#228B22" stroke-width="0.04000"/>
      <line x1="42.64850" y1="110.09370" x2="42.47120" y2="110.04780" stroke="#228B22" stroke-width="0.04000"/>
      <line x1="42.47120" y1="110.04780" x2="41.72710" y2="109.75790" stroke="#228B22" stroke-width="0.04000"/>
      <line x1="41.72710" y1="109.75790" x2="41.09320" y2="109.51820" stroke="#228B22" stroke-width="0.04000"/>
      <line x1="41.09320" y1="109.51820" x2="40.87260" y2="109.40870" stroke="#228B22" stroke-width="0.04000"/>
      <line x1="40.87260" y1="109.40870" x2="40.03440" y2="109.03350" stroke="#228B22" stroke-width="0.04000"/>
      <line x1="40.03440" y1="109.03350" x2="39.91360" y2="108.94890" stroke="#228B22" stroke-width="0.04000"/>
      <line x1="39.91360" y1="108.94890" x2="39.15490" y2="108.51770" stroke="#228B22" stroke-width="0.04000"/>
      <line x1="39.15490" y1="108.51770" x2="38.90220" y2="108.33050" stroke="#228B22" stroke-width="0.04000"/>
      <line x1="38.90220" y1="108.33050" x2="38.34360" y2="107.96600" stroke="#228B22" stroke-width="0.04000"/>
      <line x1="38.34360" y1="107.96600" x2="38.00690" y2="107.65910" stroke="#228B22" stroke-width="0.04000"/>
      <line x1="38.00690" y1="107.65910" x2="37.47840" y2="107.28860" stroke="#228B22" stroke-width="0.04000"/>
      <line x1="37.47840" y1="107.28860" x2="37.26530" y2="107.01040" stroke="#228B22" stroke-width="0.04000"/>
      <line x1="37.26530" y1="107.01040" x2="36.77710" y2="106.42200" stroke="#228B22" stroke-width="0.04000"/>
      <line x1="36.77710" y1="106.42200" x2="36.47740" y2="106.27930" stroke="#228B22" stroke-width="0.04000"/>
      <line x1="36.47740" y1="106.27930" x2="36.18710" y2="106.06780" stroke="#228B22" stroke-width="0.04000"/>
      <line x1="36.18710" y1="106.06780" x2="36.05010" y2="105.69210" stroke="#228B22" stroke-width="0.04000"/>
      <line x1="36.05010" y1="105.69210" x2="35.41820" y2="105.27400" stroke="#228B22" stroke-width="0.04000"/>
      <line x1="35.41820" y1="105.27400" x2="34.55950" y2="105.81400" stroke="#228B22" stroke-width="0.04000"/>
      <line x1="34.55950" y1="105.81400" x2="34.25210" y2="105.94280" stroke="#228B22" stroke-width="0.04000"/>
      <line x1="34.25210" y1="105.94280" x2="33.98510" y2="106.96070" stroke="#228B22" stroke-width="0.04000"/>
      <line x1="33.98510" y1="106.96070" x2="34.10140" y2="108.02490" stroke="#228B22" stroke-width="0.04000"/>
      <line x1="34.10140" y1="108.02490" x2="34.09560" y2="108.06410" stroke="#228B22" stroke-width="0.04000"/>
      <line x1="34.09560" y1="108.06410" x2="34.07860" y2="108.15800" stroke="#228B22" stroke-width="0.04000"/>
      <line x1="34.07860" y1="108.15800" x2="34.39550" y2="109.25470" stroke="#228B22" stroke-width="0.04000"/>
      <line x1="34.39550" y1="109.25470" x2="34.43420" y2="109.51270" stroke="#228B22" stroke-width="0.04000"/>
      <line x1="34.43420" y1="109.51270" x2="34.76280" y2="110.37590" stroke="#228B22" stroke-width="0.04000"/>
      <line x1="34.76280" y1="110.37590" x2="34.97770" y2="110.93840" stroke="#228B22" stroke-width="0.04000"/>
      <line x1="34.97770" y1="110.93840" x2="35.10620" y2="111.30430" stroke="#228B22" stroke-width="0.04000"/>
      <line x1="35.10620" y1="111.30430" x2="35.36190" y2="112.27810" stroke="#228B22" stroke-width="0.04000"/>
      <line x1="35.36190" y1="112.27810" x2="35.40320" y2="112.40960" stroke="#228B22" stroke-width="0.04000"/>
      <line x1="35.40320" y1="112.40960" x2="35.47280" y2="112.79540" stroke="#228B22" stroke-width="0.04000"/>
      <line x1="35.47280" y1="112.79540" x2="35.53560" y2="113.41580" stroke="#228B22" stroke-width="0.04000"/>
      <line x1="35.53560" y1="113.41580" x2="35.53560" y2="113.41590" stroke="#228B22" stroke-width="0.04000"/>
      <line x1="35.53560" y1="113.41590" x2="35.55580" y2="113.70170" stroke="#228B22" stroke-width="0.04000"/>
      <line x1="35.55580" y1="113.70170" x2="35.61400" y2="114.43180" stroke="#228B22" stroke-width="0.04000"/>
      <line x1="35.61400" y1="114.43180" x2="35.65820" y2="115.14180" stroke="#228B22" stroke-width="0.04000"/>
      <line x1="35.65820" y1="115.14180" x2="35.65290" y2="115.35680" stroke="#228B22" stroke-width="0.04000"/>
      <line x1="35.65290" y1="115.35680" x2="35.64920" y2="115.56960" stroke="#228B22" stroke-width="0.04000"/>
      <line x1="35.64920" y1="115.56960" x2="35.62800" y2="116.38450" stroke="#228B22" stroke-width="0.04000"/>
      <line x1="35.62800" y1="116.38450" x2="35.60510" y2="117.11400" stroke="#228B22" stroke-width="0.04000"/>
      <line x1="35.60510" y1="117.11400" x2="35.57300" y2="117.36500" stroke="#228B22" stroke-width="0.04000"/>
      <line x1="35.57300" y1="117.36500" x2="35.53730" y2="117.66880" stroke="#228B22" stroke-width="0.04000"/>
      <line x1="35.53730" y1="117.66880" x2="35.44140" y2="118.33480" stroke="#228B22" stroke-width="0.04000"/>
      <line x1="35.44140" y1="118.33480" x2="35.38060" y2="118.93790" stroke="#228B22" stroke-width="0.04000"/>
      <line x1="35.38060" y1="118.93790" x2="35.28560" y2="119.33920" stroke="#228B22" stroke-width="0.04000"/>
      <line x1="35.28560" y1="119.33920" x2="35.17830" y2="119.77960" stroke="#228B22" stroke-width="0.04000"/>
      <line x1="35.17830" y1="119.77960" x2="35.04830" y2="120.27010" stroke="#228B22" stroke-width="0.04000"/>
      <line x1="35.04830" y1="120.27010" x2="34.88610" y2="120.93180" stroke="#228B22" stroke-width="0.04000"/>
      <line x1="34.88610" y1="120.93180" x2="34.83630" y2="121.09720" stroke="#228B22" stroke-width="0.04000"/>
      <line x1="34.83630" y1="121.09720" x2="34.79630" y2="121.31830" stroke="#228B22" stroke-width="0.04000"/>
      <line x1="34.79630" y1="121.31830" x2="34.62680" y2="122.12680" stroke="#228B22" stroke-width="0.04000"/>
      <line x1="34.62680" y1="122.12680" x2="34.59070" y2="122.37580" stroke="#228B22" stroke-width="0.04000"/>
      <line x1="34.59070" y1="122.37580" x2="34.49550" y2="123.23090" stroke="#228B22" stroke-width="0.04000"/>
      <line x1="34.49550" y1="123.23090" x2="34.23750" y2="123.93580" stroke="#228B22" stroke-width="0.04000"/>
      <line x1="34.23750" y1="123.93580" x2="34.16410" y2="123.93110" stroke="#228B22" stroke-width="0.04000"/>
      <line x1="34.16410" y1="123.93110" x2="33.76990" y2="123.86530" stroke="#228B22" stroke-width="0.04000"/>
      <line x1="33.76990" y1="123.86530" x2="33.70080" y2="123.66530" stroke="#228B22" stroke-width="0.04000"/>
      <line x1="33.70080" y1="123.66530" x2="33.44440" y2="123.12110" stroke="#228B22" stroke-width="0.04000"/>
      <line x1="33.44440" y1="123.12110" x2="33.31420" y2="122.79600" stroke="#228B22" stroke-width="0.04000"/>
      <line x1="33.31420" y1="122.79600" x2="33.22170" y2="122.64090" stroke="#228B22" stroke-width="0.04000"/>
      <line x1="33.22170" y1="122.64090" x2="33.06270" y2="122.00010" stroke="#228B22" stroke-width="0.04000"/>
      <line x1="33.06270" y1="122.00010" x2="32.93540" y2="121.26060" stroke="#228B22" stroke-width="0.04000"/>
      <line x1="32.93540" y1="121.26060" x2="32.89730" y2="121.05170" stroke="#228B22" stroke-width="0.04000"/>
      <line x1="32.89730" y1="121.05170" x2="32.89740" y2="121.05170" stroke="#228B22" stroke-width="0.04000"/>
      <line x1="32.89740" y1="121.05170" x2="32.86160" y2="120.83740" stroke="#228B22" stroke-width="0.04000"/>
      <line x1="32.86160" y1="120.83740" x2="32.73950" y2="120.17280" stroke="#228B22" stroke-width="0.04000"/>
      <line x1="32.73950" y1="120.17280" x2="32.63180" y2="119.37060" stroke="#228B22" stroke-width="0.04000"/>
      <line x1="32.63180" y1="119.37060" x2="32.60570" y2="119.20690" stroke="#228B22" stroke-width="0.04000"/>
      <line x1="32.60570" y1="119.20690" x2="32.57050" y2="118.94150" stroke="#228B22" stroke-width="0.04000"/>
      <line x1="32.57050" y1="118.94150" x2="32.44490" y2="118.25490" stroke="#228B22" stroke-width="0.04000"/>
      <line x1="32.44490" y1="118.25490" x2="32.40370" y2="117.91770" stroke="#228B22" stroke-width="0.04000"/>
      <line x1="32.40370" y1="117.91770" x2="32.31070" y2="117.32000" stroke="#228B22" stroke-width="0.04000"/>
      <line x1="32.31070" y1="117.32000" x2="32.24500" y2="116.65060" stroke="#228B22" stroke-width="0.04000"/>
      <line x1="32.24500" y1="116.65060" x2="32.21640" y2="116.44620" stroke="#228B22" stroke-width="0.04000"/>
      <line x1="32.21640" y1="116.44620" x2="32.13940" y2="115.78710" stroke="#228B22" stroke-width="0.04000"/>
      <line x1="32.13940" y1="115.78710" x2="32.06350" y2="115.43710" stroke="#228B22" stroke-width="0.04000"/>
      <line x1="32.06350" y1="115.43710" x2="32.03130" y2="115.33970" stroke="#228B22" stroke-width="0.04000"/>
      <line x1="32.03130" y1="115.33970" x2="31.81180" y2="114.49410" stroke="#228B22" stroke-width="0.04000"/>
      <line x1="31.81180" y1="114.49410" x2="31.66550" y2="114.03870" stroke="#228B22" stroke-width="0.04000"/>
      <line x1="31.66550" y1="114.03870" x2="31.54400" y2="113.68450" stroke="#228B22" stroke-width="0.04000"/>
      <line x1="31.54400" y1="113.68450" x2="31.36130" y2="112.90610" stroke="#228B22" stroke-width="0.04000"/>
      <line x1="31.36130" y1="112.90610" x2="31.34680" y2="112.85040" stroke="#228B22" stroke-width="0.04000"/>
      <line x1="31.34680" y1="112.85040" x2="31.34630" y2="112.82910" stroke="#228B22" stroke-width="0.04000"/>
      <line x1="31.34630" y1="112.82910" x2="31.19870" y2="111.89600" stroke="#228B22" stroke-width="0.04000"/>
      <line x1="31.19870" y1="111.89600" x2="31.21870" y2="111.80230" stroke="#228B22" stroke-width="0.04000"/>
      <line x1="31.21870" y1="111.80230" x2="31.21870" y2="111.35170" stroke="#228B22" stroke-width="0.04000"/>
      <line x1="31.21870" y1="111.35170" x2="31.26960" y2="110.77250" stroke="#228B22" stroke-width="0.04000"/>
      <line x1="31.26960" y1="110.77250" x2="31.23660" y2="110.50960" stroke="#228B22" stroke-width="0.04000"/>
      <line x1="31.23660" y1="110.50960" x2="31.39760" y2="109.82270" stroke="#228B22" stroke-width="0.04000"/>
      <line x1="31.39760" y1="109.82270" x2="31.44660" y2="109.03510" stroke="#228B22" stroke-width="0.04000"/>
      <line x1="31.44660" y1="109.03510" x2="31.51840" y2="108.88260" stroke="#228B22" stroke-width="0.04000"/>
      <line x1="31.51840" y1="108.88260" x2="31.58280" y2="108.41340" stroke="#228B22" stroke-width="0.04000"/>
      <line x1="31.58280" y1="108.41340" x2="31.58270" y2="108.41330" stroke="#228B22" stroke-width="0.04000"/>
      <line x1="31.58270" y1="108.41330" x2="31.66020" y2="107.89260" stroke="#228B22" stroke-width="0.04000"/>
      <line x1="31.66020" y1="107.89260" x2="31.55710" y2="107.44950" stroke="#228B22" stroke-width="0.04000"/>
      <line x1="31.55710" y1="107.44950" x2="31.69190" y2="106.88630" stroke="#228B22" stroke-width="0.04000"/>
      <line x1="31.69190" y1="106.88630" x2="31.47070" y2="105.99950" stroke="#228B22" stroke-width="0.04000"/>
      <line x1="31.47070" y1="105.99950" x2="31.42660" y2="105.82960" stroke="#228B22" stroke-width="0.04000"/>
      <line x1="31.42660" y1="105.82960" x2="31.28150" y2="105.54020" stroke="#228B22" stroke-width="0.04000"/>
      <line x1="31.28150" y1="105.54020" x2="31.07660" y2="104.90840" stroke="#228B22" stroke-width="0.04000"/>
      <line x1="31.07660" y1="104.90840" x2="30.92370" y2="104.59720" stroke="#228B22" stroke-width="0.04000"/>
      <line x1="30.92370" y1="104.59720" x2="30.64630" y2="104.03980" stroke="#228B22" stroke-width="0.04000"/>
      <line x1="30.64630" y1="104.03980" x2="30.39460" y2="103.41140" stroke="#228B22" stroke-width="0.04000"/>
      <line x1="30.39460" y1="103.41140" x2="30.35640" y2="103.29090" stroke="#228B22" stroke-width="0.04000"/>
      <line x1="30.35640" y1="103.29090" x2="30.23930" y2="102.54620" stroke="#228B22" stroke-width="0.04000"/>
      <line x1="30.23930" y1="102.54620" x2="30.23790" y2="102.52800" stroke="#228B22" stroke-width="0.04000"/>
      <line x1="30.23790" y1="102.52800" x2="30.23750" y2="102.43470" stroke="#228B22" stroke-width="0.04000"/>
      <line x1="30.23750" y1="102.43470" x2="30.28040" y2="101.77390" stroke="#228B22" stroke-width="0.04000"/>
      <line x1="30.28040" y1="101.77390" x2="30.44720" y2="101.04580" stroke="#228B22" stroke-width="0.04000"/>
      <line x1="30.44720" y1="101.04580" x2="30.49860" y2="100.86500" stroke="#228B22" stroke-width="0.04000"/>
      <line x1="30.49860" y1="100.86500" x2="30.85130" y2="100.11670" stroke="#228B22" stroke-width="0.04000"/>
      <line x1="30.85130" y1="100.11670" x2="31.00240" y2="99.83090" stroke="#228B22" stroke-width="0.04000"/>
      <line x1="31.00240" y1="99.83090" x2="31.39840" y2="99.07750" stroke="#228B22" stroke-width="0.04000"/>
      <line x1="31.39840" y1="99.07750" x2="31.43210" y2="99.02700" stroke="#228B22" stroke-width="0.04000"/>
      <line x1="31.43210" y1="99.02700" x2="31.61510" y2="98.91930" stroke="#228B22" stroke-width="0.04000"/>
      <line x1="31.61510" y1="98.91930" x2="31.61500" y2="98.91920" stroke="#228B22" stroke-width="0.04000"/>
      <line x1="31.61500" y1="98.91920" x2="32.47390" y2="98.43280" stroke="#228B22" stroke-width="0.04000"/>
      <line x1="32.47390" y1="98.43280" x2="32.61080" y2="98.37090" stroke="#228B22" stroke-width="0.04000"/>
      <line x1="32.61080" y1="98.37090" x2="33.40850" y2="98.23190" stroke="#228B22" stroke-width="0.04000"/>
      <line x1="33.40850" y1="98.23190" x2="34.30150" y2="98.22740" stroke="#228B22" stroke-width="0.04000"/>
      <line x1="34.30150" y1="98.22740" x2="34.40980" y2="98.23700" stroke="#228B22" stroke-width="0.04000"/>
    </g>
    <g class="thermal-hatch" data-segment="7" data-name="CoreOverhangHatch">
      <line x1="34.23750" y1="123.93580" x2="34.23490" y2="123.94300" stroke="#FF8C00" stroke-width="0.04000"/>
      <line x1="34.23490" y1="123.94300" x2="34.16410" y2="123.93110" stroke="#FF8C00" stroke-width="0.04000"/>
      <line x1="34.16410" y1="123.93110" x2="34.23750" y2="123.93580" stroke="#FF8C00" stroke-width="0.04000"/>
      <line x1="46.29830" y1="108.31690" x2="46.82120" y2="109.15540" stroke="#FF8C00" stroke-width="0.04000"/>
      <line x1="46.82120" y1="109.15540" x2="46.70060" y2="109.27330" stroke="#FF8C00" stroke-width="0.04000"/>
      <line x1="46.70060" y1="109.27330" x2="46.27910" y2="109.72420" stroke="#FF8C00" stroke-width="0.04000"/>
      <line x1="46.27910" y1="109.72420" x2="46.12400" y2="109.90560" stroke="#FF8C00" stroke-width="0.04000"/>
      <line x1="46.12400" y1="109.90560" x2="45.90920" y2="110.00750" stroke="#FF8C00" stroke-width="0.04000"/>
      <line x1="45.90920" y1="110.00750" x2="46.31990" y2="109.52670" stroke="#FF8C00" stroke-width="0.04000"/>
      <line x1="46.31990" y1="109.52670" x2="46.67260" y2="109.14960" stroke="#FF8C00" stroke-width="0.04000"/>
      <line x1="46.67260" y1="109.14960" x2="46.32000" y2="108.65820" stroke="#FF8C00" stroke-width="0.04000"/>
      <line x1="46.32000" y1="108.65820" x2="46.27140" y2="108.27950" stroke="#FF8C00" stroke-width="0.04000"/>
      <line x1="46.27140" y1="108.27950" x2="46.29830" y2="108.31690" stroke="#FF8C00" stroke-width="0.04000"/>
    </g>
    <g class="thermal-contour" data-segment="1" data-name="CoreContour_Volume">
    <path d="M 34.4487 97.9495 L 34.5749 97.9716 L 35.2458 98.2377 L 35.6209 98.3553 L 36.3134 98.6839 L 36.4028 98.7294 L 36.4454 98.7798 L 36.5805 98.9858 L 37.0573 99.7497 L 37.176 99.9546 L 37.337 100.584 L 37.6045 101.362 L 37.6311 101.578 L 37.7243 101.809 L 37.9501 102.52 L 38.1773 102.838 L 38.4402 103.364 L 38.8739 103.519 L 39.3649 103.729 L 39.6919 103.936 L 39.88 104.047 L 40.5396 104.343 L 40.9185 104.53 L 41.4358 104.85 L 42.1088 105.153 L 42.3698 105.277 L 43.1069 105.711 L 43.2544 105.729 L 44.1884 106.285 L 44.2085 106.294 L 44.258 106.325 L 44.9426 106.833 L 45.2306 107.082 L 45.6913 107.445 L 46.4867 108.074 L 46.4942 108.082 L 46.4958 108.095 L 46.5393 108.155 L 47.0941 109.045 L 47.2081 109.117 L 47.1449 109.245 L 46.908 109.476 L 46.4954 109.917 L 46.3046 110.141 L 45.6298 110.461 L 44.7984 110.557 L 44.6032 110.598 L 44.4027 110.613 L 43.5988 110.559 L 42.8846 110.419 L 42.5927 110.379 L 42.3806 110.324 L 41.6231 110.029 L 40.9768 109.784 L 40.7488 109.671 L 39.8911 109.287 L 39.7585 109.194 L 38.9963 108.761 L 38.7366 108.569 L 38.1659 108.196 L 37.8253 107.886 L 37.2754 107.501 L 37.0385 107.191 L 36.5947 106.656 L 36.3288 106.53 L 35.9453 106.251 L 35.8105 105.881 L 35.4142 105.619 L 34.6939 106.072 L 34.4963 106.155 L 34.2792 106.982 L 34.3938 108.03 L 34.3813 108.114 L 34.3761 108.143 L 34.6794 109.192 L 34.7164 109.439 L 35.0337 110.273 L 35.2486 110.835 L 35.384 111.22 L 35.6406 112.198 L 35.6854 112.34 L 35.7603 112.755 L 35.8251 113.396 L 35.8449 113.68 L 35.9031 114.409 L 35.9485 115.139 L 35.9428 115.363 L 35.9392 115.577 L 35.918 116.393 L 35.8948 117.136 L 35.8609 117.4 L 35.8244 117.71 L 35.7294 118.37 L 35.6673 118.986 L 35.5676 119.407 L 35.4587 119.854 L 35.3293 120.342 L 35.1657 121.009 L 35.1187 121.165 L 35.0802 121.378 L 34.9125 122.177 L 34.8784 122.413 L 34.7805 123.292 L 34.7799 123.298 L 34.4635 124.162 L 34.4224 124.267 L 34.2917 124.247 L 33.5522 124.123 L 33.4317 123.775 L 33.1791 123.238 L 33.0535 122.925 L 32.9505 122.752 L 32.7795 122.063 L 32.6498 121.311 L 32.6118 121.102 L 32.5759 120.887 L 32.4534 120.221 L 32.345 119.413 L 32.3188 119.249 L 32.284 118.987 L 32.1585 118.3 L 32.1163 117.958 L 32.0229 117.355 L 31.957 116.685 L 31.929 116.484 L 31.8529 115.835 L 31.7834 115.513 L 31.753 115.421 L 31.5331 114.575 L 31.3903 114.13 L 31.265 113.765 L 31.0797 112.976 L 31.0577 112.89 L 31.0569 112.855 L 30.904 111.889 L 30.9287 111.772 L 30.929 111.339 L 30.9781 110.778 L 30.9426 110.494 L 31.1096 109.78 L 31.1607 108.962 L 31.2371 108.799 L 31.2943 108.383 L 31.3653 107.905 L 31.2593 107.449 L 31.3935 106.888 L 31.1897 106.071 L 31.1537 105.932 L 31.0127 105.651 L 30.8072 105.018 L 30.6638 104.726 L 30.382 104.16 L 30.1215 103.509 L 30.0734 103.357 L 29.9514 102.581 L 29.9482 102.54 L 29.9475 102.426 L 29.9927 101.732 L 30.167 100.971 L 30.2262 100.763 L 30.5914 99.9882 L 30.7458 99.6957 L 31.1483 98.9305 L 31.2178 98.8261 L 31.244 98.8013 L 31.4619 98.6729 L 32.3429 98.174 L 32.5247 98.0916 L 33.3828 97.9422 L 34.3132 97.9374 L 34.4487 97.9495" fill="none" stroke="#000000" stroke-width="0.05000" fill-rule="evenodd" fill-opacity="1.000"/>
    </g>
    <g class="thermal-contour" data-segment="1" data-name="CoreContour_Volume">
    <path d="M 36.0501 105.692 L 36.1871 106.068 L 36.4774 106.279 L 36.7771 106.422 L 37.2653 107.01 L 37.4784 107.289 L 38.0069 107.659 L 38.3436 107.966 L 38.9022 108.33 L 39.1549 108.518 L 39.9136 108.949 L 40.0344 109.034 L 40.8726 109.409 L 41.0932 109.518 L 41.7271 109.758 L 42.4712 110.048 L 42.6485 110.094 L 42.9325 110.133 L 43.6353 110.271 L 44.4023 110.322 L 44.5629 110.31 L 44.7523 110.271 L 45.5486 110.179 L 45.9092 110.007 L 45.8441 110.084 L 45.5383 110.229 L 45.1616 110.273 L 44.5497 110.4 L 44.3937 110.411 L 43.6238 110.36 L 42.9176 110.222 L 42.631 110.182 L 42.4428 110.133 L 41.6948 109.842 L 41.0575 109.601 L 40.8342 109.49 L 39.9899 109.112 L 39.8655 109.025 L 39.1061 108.594 L 38.8508 108.404 L 38.2887 108.038 L 37.9505 107.729 L 37.4154 107.354 L 37.1949 107.066 L 36.7205 106.495 L 36.4312 106.357 L 36.1121 106.125 L 35.9757 105.751 L 35.417 105.381 L 34.6012 105.894 L 34.3279 106.009 L 34.0764 106.967 L 34.1922 108.026 L 34.1845 108.079 L 34.1709 108.153 L 34.4836 109.235 L 34.5218 109.49 L 34.8469 110.344 L 35.0618 110.906 L 35.1926 111.279 L 35.4484 112.253 L 35.4908 112.388 L 35.5619 112.782 L 35.6254 113.41 L 35.6455 113.695 L 35.7037 114.425 L 35.7483 115.142 L 35.7429 115.359 L 35.7392 115.572 L 35.718 116.387 L 35.695 117.121 L 35.6623 117.376 L 35.6264 117.682 L 35.5308 118.346 L 35.4695 118.953 L 35.3732 119.36 L 35.2653 119.803 L 35.1355 120.292 L 34.9727 120.957 L 34.9239 121.118 L 34.8844 121.337 L 34.7155 122.143 L 34.68 122.387 L 34.5837 123.252 L 34.3312 123.942 L 34.2375 123.936 L 34.4955 123.231 L 34.5907 122.376 L 34.6268 122.127 L 34.7963 121.318 L 34.8363 121.097 L 34.8861 120.932 L 35.0483 120.27 L 35.1783 119.78 L 35.2856 119.339 L 35.3806 118.938 L 35.4414 118.335 L 35.5373 117.669 L 35.573 117.365 L 35.6051 117.114 L 35.628 116.384 L 35.6492 115.57 L 35.6529 115.357 L 35.6582 115.142 L 35.614 114.432 L 35.5558 113.702 L 35.5356 113.416 L 35.5356 113.416 L 35.4728 112.795 L 35.4032 112.41 L 35.3619 112.278 L 35.1062 111.304 L 34.9777 110.938 L 34.7628 110.376 L 34.4342 109.513 L 34.3955 109.255 L 34.0786 108.158 L 34.0956 108.064 L 34.1014 108.025 L 33.9851 106.961 L 34.2521 105.943 L 34.5595 105.814 L 35.4182 105.274 L 36.0501 105.692" fill="none" stroke="#000000" stroke-width="0.05000" fill-rule="evenodd" fill-opacity="1.000"/>
    <path d="M 34.4226 98.1479 L 34.5195 98.1648 L 35.179 98.4263 L 35.5477 98.5419 L 36.2226 98.8621 L 36.2758 98.8892 L 36.2853 98.9004 L 36.4133 99.0955 L 36.886 99.8528 L 36.9888 100.03 L 37.1452 100.642 L 37.4087 101.408 L 37.4359 101.629 L 37.5359 101.876 L 37.7691 102.611 L 38.0057 102.942 L 38.2972 103.525 L 38.8009 103.705 L 39.2719 103.907 L 39.5877 104.107 L 39.7882 104.225 L 40.4561 104.525 L 40.8207 104.705 L 41.3418 105.027 L 42.0189 105.331 L 42.2768 105.454 L 43.0417 105.905 L 43.1884 105.922 L 44.0975 106.464 L 44.1159 106.472 L 44.1451 106.49 L 44.8175 106.989 L 45.1032 107.236 L 45.581 107.612 L 46.2525 108.144 L 46.2543 108.146 L 46.2714 108.28 L 46.2618 108.266 L 45.5251 107.683 L 45.5251 107.683 L 45.0459 107.306 L 44.7615 107.059 L 44.0945 106.564 L 44.0743 106.552 L 44.0567 106.545 L 43.1588 106.009 L 43.0124 105.992 L 42.2338 105.534 L 41.982 105.413 L 41.2995 105.106 L 40.7769 104.784 L 40.4173 104.606 L 39.7469 104.305 L 39.5408 104.184 L 39.2301 103.987 L 38.7665 103.789 L 38.2329 103.598 L 37.9283 102.989 L 37.6876 102.651 L 37.4512 101.907 L 37.348 101.651 L 37.3205 101.429 L 37.0589 100.668 L 36.9046 100.065 L 36.8081 99.8979 L 36.338 99.1448 L 36.338 99.1449 L 36.2168 98.9601 L 36.1817 98.9423 L 35.5148 98.6259 L 35.1489 98.5112 L 34.4949 98.2519 L 34.4098 98.237 L 34.3015 98.2274 L 33.4085 98.2319 L 32.6108 98.3709 L 32.4739 98.4328 L 31.615 98.9192 L 31.6151 98.9193 L 31.4321 99.027 L 31.3984 99.0775 L 31.0024 99.8309 L 30.8513 100.117 L 30.4986 100.865 L 30.4472 101.046 L 30.2804 101.774 L 30.2375 102.435 L 30.2379 102.528 L 30.2393 102.546 L 30.3564 103.291 L 30.3946 103.411 L 30.6463 104.04 L 30.9237 104.597 L 31.0766 104.908 L 31.2815 105.54 L 31.4266 105.83 L 31.4707 105.999 L 31.6919 106.886 L 31.5571 107.45 L 31.6602 107.893 L 31.5827 108.413 L 31.5828 108.413 L 31.5184 108.883 L 31.4466 109.035 L 31.3976 109.823 L 31.2366 110.51 L 31.2696 110.772 L 31.2187 111.352 L 31.2187 111.802 L 31.1987 111.896 L 31.3463 112.829 L 31.3468 112.85 L 31.3613 112.906 L 31.544 113.685 L 31.6655 114.039 L 31.8118 114.494 L 32.0313 115.34 L 32.0635 115.437 L 32.1394 115.787 L 32.2164 116.446 L 32.245 116.651 L 32.3107 117.32 L 32.4037 117.918 L 32.4449 118.255 L 32.5705 118.941 L 32.6057 119.207 L 32.6318 119.371 L 32.7395 120.173 L 32.8616 120.837 L 32.8974 121.052 L 32.8973 121.052 L 32.9354 121.261 L 33.0627 122 L 33.2217 122.641 L 33.3142 122.796 L 33.4444 123.121 L 33.7008 123.665 L 33.7699 123.865 L 34.1641 123.931 L 33.7918 123.907 L 33.6828 123.889 L 33.6173 123.699 L 33.3619 123.157 L 33.2333 122.836 L 33.1375 122.675 L 32.9747 122.019 L 32.8468 121.276 L 32.8086 121.066 L 32.7729 120.853 L 32.6506 120.187 L 32.5428 119.384 L 32.5168 119.221 L 32.4816 118.955 L 32.356 118.268 L 32.3145 117.93 L 32.2213 117.33 L 32.1556 116.661 L 32.127 116.457 L 32.0505 115.802 L 31.9766 115.461 L 31.9449 115.365 L 31.7253 114.519 L 31.5801 114.067 L 31.4574 113.709 L 31.2739 112.928 L 31.2571 112.863 L 31.2565 112.837 L 31.1072 111.894 L 31.1287 111.793 L 31.1288 111.347 L 31.1791 110.774 L 31.1454 110.505 L 31.3082 109.81 L 31.3579 109.012 L 31.4311 108.857 L 31.4936 108.401 L 31.5687 107.896 L 31.4647 107.449 L 31.5993 106.887 L 31.3835 106.022 L 31.3419 105.861 L 31.1981 105.575 L 30.993 104.942 L 30.843 104.637 L 30.5644 104.077 L 30.3097 103.441 L 30.2686 103.312 L 30.15 102.557 L 30.148 102.531 L 30.1475 102.432 L 30.1911 101.761 L 30.3606 101.021 L 30.414 100.834 L 30.7712 100.076 L 30.9228 99.7889 L 31.3207 99.0319 L 31.3688 98.9598 L 31.5694 98.8417 L 32.433 98.3526 L 32.5843 98.2842 L 33.4004 98.142 L 34.3048 98.1374 L 34.4226 98.1479" fill="none" stroke="#000000" stroke-width="0.05000" fill-rule="evenodd" fill-opacity="1.000"/>
    </g>
    <g class="thermal-contour" data-segment="2" data-name="CoreContour_Overhang">
    <path d="M 33.7918 123.907 L 34.1641 123.931 L 34.2349 123.943 L 34.2375 123.936 L 34.3312 123.942 L 34.2938 124.044 L 33.7023 123.945 L 33.6828 123.889 L 33.7918 123.907" fill="none" stroke="#8B0000" stroke-width="0.05000" fill-rule="evenodd" fill-opacity="1.000"/>
    <path d="M 46.3276 108.203 L 46.3731 108.267 L 46.9359 109.169 L 46.765 109.336 L 46.3462 109.784 L 46.18 109.979 L 45.5738 110.267 L 44.7666 110.36 L 44.575 110.4 L 44.4029 110.412 L 44.3937 110.411 L 44.5497 110.4 L 45.1616 110.273 L 45.5383 110.229 L 45.8441 110.084 L 45.9092 110.007 L 46.124 109.906 L 46.2791 109.724 L 46.7006 109.273 L 46.8212 109.155 L 46.2983 108.317 L 46.2714 108.28 L 46.2543 108.146 L 46.2525 108.144 L 46.3276 108.203" fill="none" stroke="#8B0000" stroke-width="0.05000" fill-rule="evenodd" fill-opacity="1.000"/>
    </g>
    <g class="thermal-contour" data-segment="3" data-name="HollowShell1Contour_Volume">
    <path d="M 31.1768 112.952 L 31.3614 113.737 L 31.4852 114.099 L 31.6292 114.547 L 31.8488 115.393 L 31.88 115.487 L 31.9517 115.818 L 32.028 116.47 L 32.0563 116.673 L 32.1221 117.343 L 32.2154 117.944 L 32.2571 118.283 L 32.3828 118.971 L 32.4178 119.235 L 32.4439 119.398 L 32.552 120.204 L 32.6744 120.87 L 32.7102 121.084 L 32.7483 121.294 L 32.8771 122.041 L 33.044 122.714 L 33.1434 122.881 L 33.2705 123.198 L 33.5245 123.737 L 33.5705 123.87 L 33.5027 123.859 L 33.4744 123.777 L 33.415 123.651 L 33.1095 122.889 L 32.8952 122.529 L 32.7795 122.063 L 32.6498 121.311 L 32.6118 121.102 L 32.5759 120.887 L 32.4534 120.221 L 32.345 119.413 L 32.3188 119.249 L 32.284 118.987 L 32.1585 118.3 L 32.1163 117.958 L 32.0229 117.355 L 31.957 116.685 L 31.929 116.484 L 31.8529 115.835 L 31.7989 115.585 L 31.7961 115.561 L 31.7834 115.413 L 31.7195 114.935 L 31.5956 114.459 L 31.5399 114.285 L 31.3256 113.66 L 31.1684 112.991 L 31.1593 112.884 L 31.1768 112.952" fill="none" stroke="#0000CC" stroke-width="0.05000" fill-rule="evenodd" fill-opacity="1.000"/>
    <path d="M 35.2281 120.335 L 35.2276 120.336 L 35.2324 120.317 L 35.2337 120.312 L 35.2281 120.335" fill="none" stroke="#0000CC" stroke-width="0.05000" fill-rule="evenodd" fill-opacity="1.000"/>
    <path d="M 35.8931 105.816 L 36.0287 106.188 L 36.38 106.443 L 36.6576 106.576 L 37.1167 107.129 L 37.3454 107.427 L 37.8879 107.808 L 38.2273 108.117 L 38.7937 108.487 L 39.0512 108.677 L 39.812 109.11 L 39.9405 109.2 L 40.7915 109.581 L 41.0169 109.692 L 41.659 109.935 L 42.3117 110.19 L 42.0932 110.133 L 41.6865 109.975 L 40.9346 109.69 L 40.8477 109.656 L 40.8197 109.646 L 39.8421 109.205 L 39.7716 109.176 L 39.2408 108.887 L 38.9192 108.704 L 38.7366 108.569 L 38.1659 108.197 L 37.8253 107.886 L 37.2754 107.501 L 37.0385 107.191 L 36.5947 106.656 L 36.3288 106.53 L 35.9453 106.251 L 35.8105 105.881 L 35.4142 105.619 L 34.6939 106.072 L 34.4963 106.155 L 34.2792 106.982 L 34.3938 108.03 L 34.3813 108.114 L 34.3761 108.143 L 34.6794 109.192 L 34.7164 109.439 L 35.0337 110.273 L 35.2486 110.835 L 35.384 111.22 L 35.6406 112.198 L 35.6854 112.34 L 35.7603 112.755 L 35.825 113.396 L 35.8449 113.68 L 35.9031 114.409 L 35.9239 114.744 L 35.9089 115.342 L 35.8992 115.921 L 35.8875 116.368 L 35.8748 116.776 L 35.7968 117.384 L 35.7125 118.097 L 35.6776 118.34 L 35.6547 118.567 L 35.5752 118.902 L 35.6301 118.358 L 35.7254 117.696 L 35.7616 117.388 L 35.7949 117.129 L 35.818 116.39 L 35.8392 115.575 L 35.8429 115.361 L 35.8484 115.14 L 35.8034 114.417 L 35.7452 113.688 L 35.7252 113.403 L 35.6611 112.768 L 35.5881 112.364 L 35.5445 112.226 L 35.2883 111.249 L 35.1552 110.871 L 34.9403 110.308 L 34.6191 109.464 L 34.5815 109.214 L 34.2735 108.148 L 34.2829 108.096 L 34.293 108.028 L 34.1778 106.975 L 34.4121 106.082 L 34.6474 105.983 L 35.4156 105.5 L 35.8931 105.816" fill="none" stroke="#0000CC" stroke-width="0.05000" fill-rule="evenodd" fill-opacity="1.000"/>
    <path d="M 31.1567 112.846 L 31.1569 112.856 L 31.1553 112.838 L 31.1567 112.846" fill="none" stroke="#0000CC" stroke-width="0.05000" fill-rule="evenodd" fill-opacity="1.000"/>
    <path d="M 34.4487 97.9495 L 34.5749 97.9716 L 35.2458 98.2377 L 35.6209 98.3553 L 36.3134 98.6839 L 36.4028 98.7294 L 36.4454 98.7798 L 36.5805 98.9858 L 37.0573 99.7497 L 37.176 99.9546 L 37.337 100.584 L 37.6045 101.362 L 37.6311 101.578 L 37.7243 101.809 L 37.9501 102.52 L 38.1773 102.838 L 38.4402 103.364 L 38.8739 103.519 L 39.3649 103.729 L 39.6919 103.936 L 39.88 104.047 L 40.5396 104.343 L 40.9185 104.53 L 41.4358 104.85 L 42.1088 105.153 L 42.3698 105.277 L 43.1069 105.711 L 43.1836 105.72 L 43.2252 105.752 L 44.0644 106.289 L 44.1921 106.401 L 44.1619 106.383 L 44.1429 106.375 L 43.2214 105.825 L 43.0743 105.808 L 42.3233 105.366 L 42.0657 105.243 L 42.0657 105.243 L 41.3888 104.938 L 40.8696 104.618 L 40.4979 104.434 L 39.8341 104.136 L 39.6398 104.022 L 39.3184 103.818 L 38.8374 103.612 L 38.3687 103.445 L 38.0915 102.89 L 37.8596 102.565 L 37.6301 101.842 L 37.5335 101.603 L 37.5066 101.385 L 37.2411 100.613 L 37.0824 99.9925 L 36.9708 99.7998 L 36.4969 99.0406 L 36.3655 98.8403 L 36.3393 98.8093 L 36.268 98.773 L 35.5843 98.4486 L 35.2124 98.332 L 34.5472 98.0682 L 34.4356 98.0487 L 34.309 98.0374 L 33.3916 98.0421 L 32.5545 98.1879 L 32.388 98.2633 L 31.5126 98.759 L 31.5127 98.7591 L 31.3041 98.8819 L 31.2947 98.8908 L 31.2346 98.981 L 30.8343 99.7423 L 30.6813 100.032 L 30.3201 100.798 L 30.2638 100.996 L 30.0919 101.746 L 30.0475 102.429 L 30.0481 102.535 L 30.0507 102.569 L 30.171 103.335 L 30.2156 103.475 L 30.4732 104.118 L 30.7534 104.681 L 30.9001 104.98 L 31.1054 105.613 L 31.2478 105.897 L 31.2866 106.046 L 31.4964 106.887 L 31.362 107.449 L 31.467 107.9 L 31.3933 108.396 L 31.3934 108.396 L 31.3341 108.828 L 31.2593 108.987 L 31.2089 109.795 L 31.044 110.499 L 31.0786 110.776 L 31.0289 111.343 L 31.0287 111.782 L 31.0056 111.891 L 31.1035 112.51 L 30.981 111.847 L 30.9544 111.707 L 31.0309 110.833 L 30.9725 110.366 L 31.1096 109.78 L 31.1607 108.962 L 31.2371 108.799 L 31.2943 108.383 L 31.3653 107.905 L 31.2593 107.449 L 31.3935 106.888 L 31.1897 106.071 L 31.1537 105.932 L 31.0127 105.651 L 30.8072 105.018 L 30.6638 104.726 L 30.382 104.16 L 30.1215 103.509 L 30.0734 103.357 L 29.9514 102.581 L 29.9482 102.54 L 29.9475 102.426 L 29.9927 101.732 L 30.167 100.971 L 30.2262 100.763 L 30.5914 99.9882 L 30.7458 99.6957 L 31.1483 98.9305 L 31.2178 98.8261 L 31.244 98.8013 L 31.4619 98.6729 L 32.3429 98.174 L 32.5247 98.0916 L 33.3828 97.9422 L 34.3132 97.9374 L 34.4487 97.9495" fill="none" stroke="#0000CC" stroke-width="0.05000" fill-rule="evenodd" fill-opacity="1.000"/>
    </g>
    <g class="thermal-contour" data-segment="4" data-name="HollowShell1Contour_Overhang">
    <path d="M 35.9485 115.139 L 35.9429 115.363 L 35.9392 115.577 L 35.918 116.394 L 35.8948 117.136 L 35.8609 117.4 L 35.8244 117.71 L 35.7294 118.37 L 35.6673 118.986 L 35.5676 119.407 L 35.4587 119.854 L 35.3293 120.342 L 35.1657 121.009 L 35.1187 121.165 L 35.0802 121.378 L 34.9125 122.177 L 34.8784 122.413 L 34.7805 123.292 L 34.7799 123.298 L 34.4635 124.162 L 34.4224 124.267 L 34.2917 124.247 L 33.5522 124.123 L 33.4317 123.775 L 33.1791 123.238 L 33.0535 122.925 L 32.9505 122.752 L 32.8952 122.529 L 33.1095 122.889 L 33.415 123.651 L 33.4744 123.777 L 33.5027 123.859 L 33.5705 123.87 L 33.6272 124.034 L 34.3072 124.148 L 34.3073 124.148 L 34.3586 124.156 L 34.3704 124.126 L 34.6818 123.275 L 34.7792 122.4 L 34.814 122.16 L 34.9823 121.357 L 35.0213 121.142 L 35.0692 120.983 L 35.2276 120.336 L 35.2281 120.335 L 35.2337 120.312 L 35.362 119.828 L 35.4704 119.384 L 35.5684 118.97 L 35.5752 118.902 L 35.6547 118.567 L 35.6776 118.34 L 35.7125 118.097 L 35.7968 117.384 L 35.8748 116.776 L 35.8875 116.368 L 35.8992 115.921 L 35.9089 115.342 L 35.9239 114.744 L 35.9485 115.139" fill="none" stroke="#000080" stroke-width="0.05000" fill-rule="evenodd" fill-opacity="1.000"/>
    <path d="M 31.0309 110.833 L 30.9544 111.707 L 30.981 111.847 L 31.1035 112.51 L 31.1553 112.838 L 31.1569 112.856 L 31.1574 112.877 L 31.1593 112.884 L 31.1684 112.991 L 31.3256 113.66 L 31.5399 114.285 L 31.5956 114.459 L 31.7195 114.935 L 31.7834 115.413 L 31.7961 115.561 L 31.7989 115.585 L 31.7834 115.513 L 31.753 115.421 L 31.5331 114.575 L 31.3903 114.13 L 31.265 113.765 L 31.0797 112.976 L 31.0577 112.89 L 31.0569 112.855 L 30.904 111.889 L 30.9287 111.772 L 30.929 111.339 L 30.9781 110.778 L 30.9426 110.494 L 30.9583 110.427 L 30.9725 110.366 L 31.0309 110.833" fill="none" stroke="#000080" stroke-width="0.05000" fill-rule="evenodd" fill-opacity="1.000"/>
    <path d="M 43.2544 105.729 L 44.1884 106.285 L 44.2085 106.294 L 44.258 106.325 L 44.9426 106.833 L 45.2306 107.082 L 45.6913 107.445 L 46.4867 108.074 L 46.4942 108.082 L 46.4958 108.095 L 46.5393 108.155 L 47.0941 109.045 L 47.2081 109.117 L 47.1449 109.245 L 46.908 109.476 L 46.4954 109.917 L 46.3046 110.141 L 45.6298 110.462 L 44.7984 110.558 L 44.6032 110.598 L 44.4027 110.613 L 43.5988 110.559 L 42.8846 110.419 L 42.5927 110.379 L 42.3806 110.324 L 41.6231 110.029 L 40.9768 109.784 L 40.7488 109.671 L 39.8911 109.287 L 39.7585 109.194 L 38.9963 108.761 L 38.9192 108.704 L 39.2408 108.887 L 39.7716 109.176 L 39.8421 109.205 L 40.8197 109.646 L 40.8477 109.656 L 40.9346 109.69 L 41.6865 109.975 L 42.0932 110.133 L 42.3117 110.19 L 42.4117 110.229 L 42.6122 110.281 L 42.9011 110.321 L 43.6113 110.46 L 44.4028 110.512 L 44.589 110.499 L 44.7825 110.459 L 45.6018 110.364 L 46.2423 110.06 L 46.4208 109.851 L 46.8365 109.406 L 47.0627 109.185 L 47.0785 109.153 L 47.0214 109.117 L 46.4555 108.21 L 46.4008 108.134 L 45.6294 107.523 L 45.6294 107.523 L 45.1669 107.159 L 44.8804 106.911 L 44.2018 106.408 L 44.1921 106.401 L 44.0644 106.289 L 43.2252 105.752 L 43.1836 105.72 L 43.2544 105.729" fill="none" stroke="#000080" stroke-width="0.05000" fill-rule="evenodd" fill-opacity="1.000"/>
    </g>
    <g class="thermal-contour" data-segment="5" data-name="HollowShell2Contour_Volume">
    <path d="M 35.9757 105.751 L 36.1121 106.125 L 36.4312 106.357 L 36.7205 106.495 L 37.1949 107.066 L 37.4154 107.354 L 37.9505 107.729 L 38.2887 108.038 L 38.8508 108.404 L 39.1061 108.594 L 39.8655 109.025 L 39.9899 109.112 L 40.8342 109.49 L 41.0575 109.601 L 41.6948 109.842 L 42.4428 110.133 L 42.631 110.182 L 42.9176 110.222 L 43.6238 110.36 L 44.3937 110.411 L 43.9212 110.446 L 43.6339 110.427 L 43.3787 110.377 L 42.6341 110.273 L 42.3117 110.19 L 41.659 109.935 L 41.0169 109.692 L 40.7915 109.581 L 39.9405 109.2 L 39.812 109.11 L 39.0512 108.677 L 38.7937 108.487 L 38.2273 108.117 L 37.8879 107.808 L 37.3454 107.427 L 37.1167 107.129 L 36.6576 106.576 L 36.38 106.443 L 36.0287 106.188 L 35.8931 105.816 L 35.4156 105.5 L 34.6474 105.983 L 34.4121 106.082 L 34.1778 106.975 L 34.293 108.028 L 34.2829 108.096 L 34.2735 108.148 L 34.5815 109.214 L 34.6191 109.464 L 34.9403 110.308 L 35.1552 110.871 L 35.2883 111.249 L 35.5445 112.226 L 35.5881 112.364 L 35.6611 112.768 L 35.7252 113.403 L 35.7452 113.688 L 35.8034 114.417 L 35.8484 115.14 L 35.8429 115.361 L 35.8392 115.575 L 35.818 116.39 L 35.7949 117.129 L 35.7616 117.388 L 35.7254 117.696 L 35.6301 118.358 L 35.5752 118.902 L 35.4635 119.373 L 35.2549 120.229 L 35.2431 120.274 L 35.2337 120.312 L 35.2324 120.317 L 35.2276 120.336 L 34.9774 121.167 L 34.7846 122.231 L 34.7786 122.251 L 34.7738 122.274 L 34.5959 123.246 L 34.35 123.943 L 34.3312 123.942 L 34.5837 123.252 L 34.68 122.387 L 34.7155 122.143 L 34.8844 121.337 L 34.9239 121.118 L 34.9727 120.957 L 35.1355 120.292 L 35.2653 119.803 L 35.3732 119.36 L 35.4695 118.953 L 35.5308 118.346 L 35.6264 117.682 L 35.6623 117.376 L 35.695 117.121 L 35.718 116.387 L 35.7392 115.572 L 35.7429 115.359 L 35.7483 115.142 L 35.7037 114.425 L 35.6455 113.695 L 35.6254 113.41 L 35.5619 112.782 L 35.4908 112.388 L 35.4484 112.253 L 35.1926 111.279 L 35.0618 110.906 L 34.8469 110.344 L 34.5218 109.49 L 34.4836 109.235 L 34.1709 108.153 L 34.1845 108.079 L 34.1922 108.026 L 34.0764 106.967 L 34.3279 106.009 L 34.6012 105.894 L 35.417 105.381 L 35.9757 105.751" fill="none" stroke="#B8860B" stroke-width="0.05000" fill-rule="evenodd" fill-opacity="1.000"/>
    <path d="M 34.4356 98.0487 L 34.5472 98.0682 L 35.2124 98.332 L 35.5843 98.4486 L 36.268 98.773 L 36.3393 98.8093 L 36.3655 98.8403 L 36.4969 99.0406 L 36.9708 99.7998 L 37.0824 99.9925 L 37.2411 100.613 L 37.5066 101.385 L 37.5335 101.603 L 37.6301 101.842 L 37.8596 102.565 L 38.0915 102.89 L 38.3687 103.445 L 38.8374 103.612 L 39.3184 103.818 L 39.6398 104.022 L 39.8341 104.136 L 40.4979 104.434 L 40.8696 104.618 L 41.3888 104.938 L 42.0657 105.243 L 42.0657 105.243 L 42.3233 105.366 L 43.0743 105.808 L 43.2214 105.825 L 44.1429 106.375 L 44.1619 106.383 L 44.1921 106.401 L 44.2968 106.493 L 44.816 106.879 L 45.3374 107.33 L 45.5615 107.506 L 45.9484 107.812 L 46.2525 108.144 L 45.581 107.612 L 45.1032 107.236 L 44.8175 106.989 L 44.1451 106.49 L 44.1159 106.472 L 44.0975 106.464 L 43.1884 105.922 L 43.0417 105.905 L 42.2768 105.454 L 42.0189 105.331 L 41.3418 105.027 L 40.8207 104.705 L 40.4561 104.525 L 39.7882 104.225 L 39.5877 104.107 L 39.2719 103.907 L 38.8009 103.705 L 38.2972 103.525 L 38.0057 102.942 L 37.7691 102.611 L 37.5359 101.876 L 37.4359 101.629 L 37.4087 101.408 L 37.1452 100.642 L 36.9888 100.03 L 36.886 99.8528 L 36.4133 99.0955 L 36.2853 98.9004 L 36.2758 98.8892 L 36.2226 98.8621 L 35.5477 98.5419 L 35.179 98.4263 L 34.5195 98.1648 L 34.4226 98.1479 L 34.3048 98.1374 L 33.4004 98.142 L 32.5843 98.2842 L 32.433 98.3526 L 31.5694 98.8417 L 31.3688 98.9598 L 31.3207 99.0319 L 30.9228 99.7889 L 30.7712 100.076 L 30.414 100.834 L 30.3606 101.021 L 30.1911 101.761 L 30.1475 102.432 L 30.148 102.531 L 30.15 102.557 L 30.2686 103.312 L 30.3097 103.441 L 30.5644 104.077 L 30.843 104.637 L 30.993 104.942 L 31.1981 105.575 L 31.3419 105.861 L 31.3835 106.022 L 31.5993 106.887 L 31.4647 107.449 L 31.5687 107.896 L 31.4936 108.401 L 31.4311 108.857 L 31.3579 109.012 L 31.3082 109.81 L 31.1454 110.505 L 31.1791 110.774 L 31.1288 111.347 L 31.1287 111.793 L 31.1072 111.894 L 31.2565 112.837 L 31.2571 112.863 L 31.2739 112.928 L 31.4574 113.709 L 31.5801 114.067 L 31.7253 114.519 L 31.9449 115.365 L 31.9766 115.461 L 32.0505 115.802 L 32.127 116.457 L 32.1556 116.661 L 32.2213 117.33 L 32.3145 117.93 L 32.356 118.268 L 32.4816 118.955 L 32.5168 119.221 L 32.5428 119.384 L 32.6506 120.187 L 32.7729 120.853 L 32.8086 121.066 L 32.8468 121.276 L 32.9747 122.019 L 33.1375 122.675 L 33.2333 122.836 L 33.3619 123.157 L 33.6173 123.699 L 33.6828 123.889 L 33.5705 123.87 L 33.5245 123.737 L 33.2705 123.198 L 33.1434 122.881 L 33.044 122.714 L 32.8771 122.041 L 32.7483 121.294 L 32.7102 121.084 L 32.6744 120.87 L 32.552 120.204 L 32.4439 119.398 L 32.4178 119.235 L 32.3828 118.971 L 32.2571 118.283 L 32.2154 117.944 L 32.1221 117.343 L 32.0563 116.673 L 32.028 116.47 L 31.9517 115.818 L 31.88 115.487 L 31.8488 115.393 L 31.6292 114.547 L 31.4852 114.099 L 31.3614 113.737 L 31.1768 112.952 L 31.1593 112.884 L 31.1569 112.856 L 31.1567 112.846 L 31.1553 112.837 L 31.1479 112.75 L 31.1035 112.51 L 31.0056 111.891 L 31.0287 111.782 L 31.0289 111.343 L 31.0786 110.776 L 31.044 110.499 L 31.2089 109.795 L 31.2593 108.987 L 31.3341 108.828 L 31.3934 108.396 L 31.3933 108.396 L 31.467 107.9 L 31.362 107.449 L 31.4964 106.887 L 31.2866 106.046 L 31.2478 105.897 L 31.1054 105.613 L 30.9001 104.98 L 30.7534 104.681 L 30.4732 104.118 L 30.2156 103.475 L 30.171 103.335 L 30.0507 102.569 L 30.0481 102.535 L 30.0475 102.429 L 30.0919 101.746 L 30.2638 100.996 L 30.3201 100.798 L 30.6813 100.032 L 30.8343 99.7423 L 31.2346 98.981 L 31.2947 98.8908 L 31.3041 98.8819 L 31.5127 98.7591 L 31.5126 98.759 L 32.388 98.2633 L 32.5545 98.1879 L 33.3916 98.0421 L 34.309 98.0374 L 34.4356 98.0487" fill="none" stroke="#B8860B" stroke-width="0.05000" fill-rule="evenodd" fill-opacity="1.000"/>
    </g>
    <g class="thermal-contour" data-segment="6" data-name="HollowShell2Contour_Overhang">
    <path d="M 35.0692 120.983 L 35.0213 121.142 L 34.9823 121.357 L 34.814 122.16 L 34.7792 122.4 L 34.6818 123.275 L 34.3704 124.126 L 34.3586 124.156 L 34.3073 124.148 L 34.3072 124.148 L 33.6272 124.034 L 33.5705 123.87 L 33.6828 123.889 L 33.7023 123.945 L 34.2938 124.044 L 34.3312 123.942 L 34.35 123.943 L 34.5959 123.246 L 34.7738 122.274 L 34.7786 122.251 L 34.7846 122.231 L 34.9774 121.167 L 35.2276 120.336 L 35.0692 120.983" fill="none" stroke="#006400" stroke-width="0.05000" fill-rule="evenodd" fill-opacity="1.000"/>
    <path d="M 35.5684 118.97 L 35.4704 119.384 L 35.362 119.828 L 35.2337 120.312 L 35.2431 120.274 L 35.2549 120.229 L 35.4635 119.373 L 35.5752 118.902 L 35.5684 118.97" fill="none" stroke="#006400" stroke-width="0.05000" fill-rule="evenodd" fill-opacity="1.000"/>
    <path d="M 31.1593 112.884 L 31.1574 112.877 L 31.1569 112.856 L 31.1593 112.884" fill="none" stroke="#006400" stroke-width="0.05000" fill-rule="evenodd" fill-opacity="1.000"/>
    <path d="M 31.1479 112.75 L 31.1553 112.837 L 31.1035 112.51 L 31.1479 112.75" fill="none" stroke="#006400" stroke-width="0.05000" fill-rule="evenodd" fill-opacity="1.000"/>
    <path d="M 44.2018 106.408 L 44.8804 106.911 L 45.1669 107.159 L 45.6294 107.523 L 45.6294 107.523 L 46.4008 108.134 L 46.4555 108.21 L 47.0214 109.117 L 47.0785 109.153 L 47.0627 109.185 L 46.8365 109.406 L 46.4208 109.851 L 46.2423 110.06 L 45.6018 110.364 L 44.7825 110.459 L 44.589 110.499 L 44.4028 110.512 L 43.6113 110.46 L 42.9011 110.321 L 42.6122 110.281 L 42.4117 110.229 L 42.3117 110.19 L 42.6341 110.273 L 43.3787 110.377 L 43.6339 110.427 L 43.9212 110.446 L 44.3937 110.411 L 44.4029 110.412 L 44.575 110.4 L 44.7666 110.36 L 45.5738 110.267 L 46.18 109.979 L 46.3462 109.784 L 46.765 109.336 L 46.9359 109.169 L 46.3731 108.267 L 46.3276 108.203 L 46.2525 108.144 L 45.9484 107.812 L 45.5615 107.506 L 45.3374 107.33 L 44.816 106.879 L 44.2968 106.493 L 44.1921 106.401 L 44.2018 106.408" fill="none" stroke="#006400" stroke-width="0.05000" fill-rule="evenodd" fill-opacity="1.000"/>
    </g>
    <g class="thermal-contour" data-segment="9" data-name="CoreContourHatch">
    <path d="M 36.0501 105.692 L 36.1871 106.068 L 36.4774 106.279 L 36.7771 106.422 L 37.2653 107.01 L 37.4784 107.289 L 38.0069 107.659 L 38.3436 107.966 L 38.9022 108.33 L 39.1549 108.518 L 39.9136 108.949 L 40.0344 109.034 L 40.8726 109.409 L 41.0932 109.518 L 41.7271 109.758 L 42.4712 110.048 L 42.6485 110.094 L 42.9325 110.133 L 43.6353 110.271 L 44.4023 110.322 L 44.5629 110.31 L 44.7523 110.271 L 45.5486 110.179 L 45.9092 110.007 L 45.8663 110.058 L 45.5561 110.205 L 44.7564 110.298 L 44.5666 110.337 L 44.4024 110.349 L 43.6318 110.298 L 42.9273 110.16 L 42.9273 110.16 L 42.6432 110.12 L 42.4629 110.074 L 41.7173 109.783 L 41.7173 109.783 L 41.0824 109.543 L 40.8606 109.433 L 40.8606 109.433 L 40.021 109.057 L 39.8992 108.972 L 39.1401 108.54 L 38.8866 108.353 L 38.327 107.987 L 37.9896 107.68 L 37.4595 107.308 L 37.2445 107.028 L 36.7601 106.444 L 36.4635 106.303 L 36.1646 106.085 L 36.0277 105.71 L 35.4178 105.306 L 34.572 105.838 L 34.2748 105.963 L 34.0124 106.963 L 34.1286 108.025 L 34.1222 108.068 L 34.1062 108.157 L 34.4219 109.249 L 34.4604 109.506 L 34.788 110.366 L 35.0031 110.929 L 35.132 111.296 L 35.3877 112.27 L 35.4295 112.403 L 35.4996 112.792 L 35.5626 113.414 L 35.5626 113.416 L 35.5827 113.7 L 35.6409 114.43 L 35.6852 115.141 L 35.6799 115.357 L 35.6762 115.57 L 35.655 116.385 L 35.632 117.116 L 35.5998 117.368 L 35.5641 117.672 L 35.4682 118.337 L 35.4683 118.338 L 35.4073 118.942 L 35.3119 119.345 L 35.2045 119.786 L 35.0744 120.277 L 34.9122 120.939 L 34.8625 121.104 L 34.8228 121.324 L 34.6535 122.131 L 34.6174 122.38 L 34.522 123.237 L 34.2656 123.938 L 34.2375 123.936 L 34.4955 123.231 L 34.5907 122.376 L 34.6268 122.127 L 34.7963 121.318 L 34.8363 121.097 L 34.8861 120.932 L 35.0483 120.27 L 35.1783 119.78 L 35.2856 119.339 L 35.3806 118.938 L 35.4414 118.335 L 35.5373 117.669 L 35.573 117.365 L 35.6051 117.114 L 35.628 116.384 L 35.6492 115.57 L 35.6529 115.357 L 35.6582 115.142 L 35.614 114.432 L 35.5558 113.702 L 35.5356 113.416 L 35.5356 113.416 L 35.4728 112.795 L 35.4032 112.41 L 35.3619 112.278 L 35.1062 111.304 L 34.9777 110.938 L 34.7628 110.376 L 34.4342 109.513 L 34.3955 109.255 L 34.0786 108.158 L 34.0956 108.064 L 34.1014 108.025 L 33.9851 106.961 L 34.2521 105.943 L 34.5595 105.814 L 35.4182 105.274 L 36.0501 105.692" fill="none" stroke="#800080" stroke-width="0.05000" fill-rule="evenodd" fill-opacity="1.000"/>
    <path d="M 34.4133 98.2102 L 34.5023 98.2258 L 35.1576 98.4856 L 35.5247 98.6007 L 36.1936 98.9181 L 36.2354 98.9393 L 36.3496 99.1133 L 36.3501 99.1132 L 36.8312 99.884 L 36.9298 100.054 L 37.085 100.66 L 37.347 101.423 L 37.3743 101.645 L 37.4766 101.898 L 37.7119 102.639 L 37.9515 102.975 L 38.2521 103.576 L 38.7764 103.763 L 39.2427 103.963 L 39.5545 104.161 L 39.7596 104.281 L 40.4288 104.581 L 40.79 104.76 L 41.3124 105.083 L 41.9934 105.389 L 42.2465 105.51 L 43.0212 105.966 L 43.1677 105.983 L 44.0687 106.52 L 44.0868 106.528 L 44.1097 106.542 L 44.7784 107.038 L 45.0634 107.285 L 45.5521 107.67 L 46.2657 108.235 L 46.2714 108.28 L 46.2618 108.266 L 45.5251 107.683 L 45.5251 107.683 L 45.0459 107.306 L 44.7615 107.059 L 44.0945 106.564 L 44.0743 106.552 L 44.0567 106.545 L 43.1588 106.009 L 43.0124 105.992 L 42.2338 105.534 L 41.982 105.413 L 41.2995 105.106 L 40.7769 104.784 L 40.4173 104.606 L 39.7469 104.305 L 39.5408 104.184 L 39.2301 103.987 L 38.7665 103.789 L 38.2329 103.598 L 37.9283 102.989 L 37.6876 102.651 L 37.4512 101.907 L 37.348 101.651 L 37.3205 101.429 L 37.0589 100.668 L 36.9046 100.065 L 36.8081 99.8979 L 36.338 99.1448 L 36.338 99.1449 L 36.2168 98.9601 L 36.1817 98.9423 L 35.5148 98.6259 L 35.1489 98.5112 L 34.4949 98.2519 L 34.4098 98.237 L 34.3015 98.2274 L 33.4085 98.2319 L 32.6108 98.3709 L 32.4739 98.4328 L 31.615 98.9192 L 31.6151 98.9193 L 31.4321 99.027 L 31.3984 99.0775 L 31.0024 99.8309 L 30.8513 100.117 L 30.4986 100.865 L 30.4472 101.046 L 30.2804 101.774 L 30.2375 102.435 L 30.2379 102.528 L 30.2393 102.546 L 30.3564 103.291 L 30.3946 103.411 L 30.6463 104.04 L 30.9237 104.597 L 31.0766 104.908 L 31.2815 105.54 L 31.4266 105.83 L 31.4707 105.999 L 31.6919 106.886 L 31.5571 107.45 L 31.6602 107.893 L 31.5827 108.413 L 31.5828 108.413 L 31.5184 108.883 L 31.4466 109.035 L 31.3976 109.823 L 31.2366 110.51 L 31.2696 110.772 L 31.2187 111.352 L 31.2187 111.802 L 31.1987 111.896 L 31.3463 112.829 L 31.3468 112.85 L 31.3613 112.906 L 31.544 113.685 L 31.6655 114.039 L 31.8118 114.494 L 32.0313 115.34 L 32.0635 115.437 L 32.1394 115.787 L 32.2164 116.446 L 32.245 116.651 L 32.3107 117.32 L 32.4037 117.918 L 32.4449 118.255 L 32.5705 118.941 L 32.6057 119.207 L 32.6318 119.371 L 32.7395 120.173 L 32.8616 120.837 L 32.8974 121.052 L 32.8973 121.052 L 32.9354 121.261 L 33.0627 122 L 33.2217 122.641 L 33.3142 122.796 L 33.4444 123.121 L 33.7008 123.665 L 33.7699 123.865 L 34.1641 123.931 L 33.8982 123.914 L 33.7496 123.889 L 33.6757 123.675 L 33.4196 123.132 L 33.2898 122.808 L 33.1965 122.651 L 33.0363 122.006 L 32.9088 121.265 L 32.8649 121.025 L 32.8656 121.025 L 32.835 120.842 L 32.835 120.842 L 32.7128 120.177 L 32.6051 119.375 L 32.579 119.211 L 32.5439 118.946 L 32.4182 118.259 L 32.377 117.922 L 32.2839 117.323 L 32.2181 116.653 L 32.2181 116.653 L 32.1896 116.45 L 32.1127 115.792 L 32.0373 115.444 L 32.0054 115.347 L 31.7861 114.502 L 31.6398 114.047 L 31.6398 114.047 L 31.518 113.692 L 31.335 112.912 L 31.335 112.912 L 31.3199 112.854 L 31.3193 112.832 L 31.1712 111.895 L 31.1917 111.799 L 31.1917 111.351 L 31.2424 110.773 L 31.2092 110.508 L 31.3708 109.818 L 31.42 109.028 L 31.4922 108.875 L 31.5542 108.423 L 31.554 108.423 L 31.6327 107.894 L 31.5294 107.449 L 31.664 106.886 L 31.4445 106.006 L 31.4445 106.006 L 31.4012 105.839 L 31.2564 105.55 L 31.0514 104.918 L 30.8995 104.609 L 30.6216 104.051 L 30.3692 103.421 L 30.33 103.297 L 30.2125 102.549 L 30.2109 102.529 L 30.2105 102.434 L 30.2536 101.77 L 30.421 101.039 L 30.4732 100.855 L 30.8271 100.105 L 30.9785 99.8183 L 31.3752 99.0637 L 31.4131 99.0069 L 31.5713 98.9137 L 31.5708 98.9132 L 32.4617 98.4087 L 32.6028 98.3449 L 33.4061 98.2049 L 34.3026 98.2004 L 34.4133 98.2102" fill="none" stroke="#800080" stroke-width="0.05000" fill-rule="evenodd" fill-opacity="1.000"/>
    </g>
    <g class="thermal-contour" data-segment="20" data-name="CoreContourHatchOverhang">
    <path d="M 34.1641 123.931 L 34.2349 123.943 L 34.2375 123.936 L 34.2656 123.938 L 34.2526 123.973 L 33.8982 123.914 L 34.1641 123.931" fill="none" stroke="#E64A19" stroke-width="0.05000" fill-rule="evenodd" fill-opacity="1.000"/>
    <path d="M 46.2815 108.247 L 46.3207 108.302 L 46.8556 109.16 L 46.7195 109.293 L 46.2988 109.743 L 46.1408 109.927 L 45.8663 110.058 L 45.9092 110.007 L 46.124 109.906 L 46.2791 109.724 L 46.7006 109.273 L 46.8212 109.155 L 46.2983 108.317 L 46.2714 108.28 L 46.2657 108.235 L 46.2815 108.247" fill="none" stroke="#E64A19" stroke-width="0.05000" fill-rule="evenodd" fill-opacity="1.000"/>
    </g>
    <!-- ===== Thermal Segment Colour Legend ===== -->
    <g id="thermal-legend">
    <rect x="161.0000" y="5.0000" width="40.0000" height="72.0000"
          rx="1" ry="1"
          fill="#fafafa" stroke="#cccccc" stroke-width="0.15"/>
    <text x="181.0000" y="7.6000" font-family="sans-serif" font-size="2.2000" font-weight="bold" fill="#222222" text-anchor="middle">Thermal Segments</text>
    <line x1="161.5000" y1="8.7000" x2="200.5000" y2="8.7000" stroke="#bbbbbb" stroke-width="0.1"/>
    <rect x="161.8000" y="9.0000" width="3.5000" height="2.0000" fill="#000000" stroke="#333333" stroke-width="0.08" rx="0.3" ry="0.3"/>
    <text x="168.6000" y="10.9000" font-family="monospace" font-size="1.6000" fill="#444444" text-anchor="end"> 1</text>
    <text x="169.6000" y="10.9000" font-family="sans-serif" font-size="1.6000" fill="#111111">CoreContour_Volume</text>
    <rect x="161.8000" y="12.0000" width="3.5000" height="2.0000" fill="#8B0000" stroke="#333333" stroke-width="0.08" rx="0.3" ry="0.3"/>
    <text x="168.6000" y="13.9000" font-family="monospace" font-size="1.6000" fill="#444444" text-anchor="end"> 2</text>
    <text x="169.6000" y="13.9000" font-family="sans-serif" font-size="1.6000" fill="#111111">CoreContour_Overhang</text>
    <rect x="161.8000" y="15.0000" width="3.5000" height="2.0000" fill="#0000CC" stroke="#333333" stroke-width="0.08" rx="0.3" ry="0.3"/>
    <text x="168.6000" y="16.9000" font-family="monospace" font-size="1.6000" fill="#444444" text-anchor="end"> 3</text>
    <text x="169.6000" y="16.9000" font-family="sans-serif" font-size="1.6000" fill="#111111">Shell1Contour_Volume</text>
    <rect x="161.8000" y="18.0000" width="3.5000" height="2.0000" fill="#000080" stroke="#333333" stroke-width="0.08" rx="0.3" ry="0.3"/>
    <text x="168.6000" y="19.9000" font-family="monospace" font-size="1.6000" fill="#444444" text-anchor="end"> 4</text>
    <text x="169.6000" y="19.9000" font-family="sans-serif" font-size="1.6000" fill="#111111">Shell1Contour_Overhang</text>
    <rect x="161.8000" y="21.0000" width="3.5000" height="2.0000" fill="#B8860B" stroke="#333333" stroke-width="0.08" rx="0.3" ry="0.3"/>
    <text x="168.6000" y="22.9000" font-family="monospace" font-size="1.6000" fill="#444444" text-anchor="end"> 5</text>
    <text x="169.6000" y="22.9000" font-family="sans-serif" font-size="1.6000" fill="#111111">Shell2Contour_Volume</text>
    <rect x="161.8000" y="24.0000" width="3.5000" height="2.0000" fill="#006400" stroke="#333333" stroke-width="0.08" rx="0.3" ry="0.3"/>
    <text x="168.6000" y="25.9000" font-family="monospace" font-size="1.6000" fill="#444444" text-anchor="end"> 6</text>
    <text x="169.6000" y="25.9000" font-family="sans-serif" font-size="1.6000" fill="#111111">Shell2Contour_Overhang</text>
    <rect x="161.8000" y="27.0000" width="3.5000" height="2.0000" fill="#FF8C00" stroke="#333333" stroke-width="0.08" rx="0.3" ry="0.3"/>
    <text x="168.6000" y="28.9000" font-family="monospace" font-size="1.6000" fill="#444444" text-anchor="end"> 7</text>
    <text x="169.6000" y="28.9000" font-family="sans-serif" font-size="1.6000" fill="#111111">CoreOverhangHatch</text>
    <rect x="161.8000" y="30.0000" width="3.5000" height="2.0000" fill="#228B22" stroke="#333333" stroke-width="0.08" rx="0.3" ry="0.3"/>
    <text x="168.6000" y="31.9000" font-family="monospace" font-size="1.6000" fill="#444444" text-anchor="end"> 8</text>
    <text x="169.6000" y="31.9000" font-family="sans-serif" font-size="1.6000" fill="#111111">CoreNormalHatch</text>
    <rect x="161.8000" y="33.0000" width="3.5000" height="2.0000" fill="#800080" stroke="#333333" stroke-width="0.08" rx="0.3" ry="0.3"/>
    <text x="168.6000" y="34.9000" font-family="monospace" font-size="1.6000" fill="#444444" text-anchor="end"> 9</text>
    <text x="169.6000" y="34.9000" font-family="sans-serif" font-size="1.6000" fill="#111111">CoreContourHatch</text>
    <rect x="161.8000" y="36.0000" width="3.5000" height="2.0000" fill="#FF69B4" stroke="#333333" stroke-width="0.08" rx="0.3" ry="0.3"/>
    <text x="168.6000" y="37.9000" font-family="monospace" font-size="1.6000" fill="#444444" text-anchor="end">10</text>
    <text x="169.6000" y="37.9000" font-family="sans-serif" font-size="1.6000" fill="#111111">Shell1OverhangHatch</text>
    <rect x="161.8000" y="39.0000" width="3.5000" height="2.0000" fill="#00CED1" stroke="#333333" stroke-width="0.08" rx="0.3" ry="0.3"/>
    <text x="168.6000" y="40.9000" font-family="monospace" font-size="1.6000" fill="#444444" text-anchor="end">11</text>
    <text x="169.6000" y="40.9000" font-family="sans-serif" font-size="1.6000" fill="#111111">Shell1NormalHatch</text>
    <rect x="161.8000" y="42.0000" width="3.5000" height="2.0000" fill="#FF00FF" stroke="#333333" stroke-width="0.08" rx="0.3" ry="0.3"/>
    <text x="168.6000" y="43.9000" font-family="monospace" font-size="1.6000" fill="#444444" text-anchor="end">12</text>
    <text x="169.6000" y="43.9000" font-family="sans-serif" font-size="1.6000" fill="#111111">Shell1ContourHatch</text>
    <rect x="161.8000" y="45.0000" width="3.5000" height="2.0000" fill="#A52A2A" stroke="#333333" stroke-width="0.08" rx="0.3" ry="0.3"/>
    <text x="168.6000" y="46.9000" font-family="monospace" font-size="1.6000" fill="#444444" text-anchor="end">13</text>
    <text x="169.6000" y="46.9000" font-family="sans-serif" font-size="1.6000" fill="#111111">Shell2OverhangHatch</text>
    <rect x="161.8000" y="48.0000" width="3.5000" height="2.0000" fill="#808080" stroke="#333333" stroke-width="0.08" rx="0.3" ry="0.3"/>
    <text x="168.6000" y="49.9000" font-family="monospace" font-size="1.6000" fill="#444444" text-anchor="end">14</text>
    <text x="169.6000" y="49.9000" font-family="sans-serif" font-size="1.6000" fill="#111111">Shell2NormalHatch</text>
    <rect x="161.8000" y="51.0000" width="3.5000" height="2.0000" fill="#32CD32" stroke="#333333" stroke-width="0.08" rx="0.3" ry="0.3"/>
    <text x="168.6000" y="52.9000" font-family="monospace" font-size="1.6000" fill="#444444" text-anchor="end">15</text>
    <text x="169.6000" y="52.9000" font-family="sans-serif" font-size="1.6000" fill="#111111">Shell2ContourHatch</text>
    <rect x="161.8000" y="54.0000" width="3.5000" height="2.0000" fill="#1A237E" stroke="#333333" stroke-width="0.08" rx="0.3" ry="0.3"/>
    <text x="168.6000" y="55.9000" font-family="monospace" font-size="1.6000" fill="#444444" text-anchor="end">16</text>
    <text x="169.6000" y="55.9000" font-family="sans-serif" font-size="1.6000" fill="#111111">SupportContourVolume</text>
    <rect x="161.8000" y="57.0000" width="3.5000" height="2.0000" fill="#827717" stroke="#333333" stroke-width="0.08" rx="0.3" ry="0.3"/>
    <text x="168.6000" y="58.9000" font-family="monospace" font-size="1.6000" fill="#444444" text-anchor="end">17</text>
    <text x="169.6000" y="58.9000" font-family="sans-serif" font-size="1.6000" fill="#111111">SupportHatch</text>
    <rect x="161.8000" y="60.0000" width="3.5000" height="2.0000" fill="#006064" stroke="#333333" stroke-width="0.08" rx="0.3" ry="0.3"/>
    <text x="168.6000" y="61.9000" font-family="monospace" font-size="1.6000" fill="#444444" text-anchor="end">18</text>
    <text x="169.6000" y="61.9000" font-family="sans-serif" font-size="1.6000" fill="#111111">PointSequence</text>
    <rect x="161.8000" y="63.0000" width="3.5000" height="2.0000" fill="#B71C1C" stroke="#333333" stroke-width="0.08" rx="0.3" ry="0.3"/>
    <text x="168.6000" y="64.9000" font-family="monospace" font-size="1.6000" fill="#444444" text-anchor="end">19</text>
    <text x="169.6000" y="64.9000" font-family="sans-serif" font-size="1.6000" fill="#111111">ExternalSupports</text>
    <rect x="161.8000" y="66.0000" width="3.5000" height="2.0000" fill="#E64A19" stroke="#333333" stroke-width="0.08" rx="0.3" ry="0.3"/>
    <text x="168.6000" y="67.9000" font-family="monospace" font-size="1.6000" fill="#444444" text-anchor="end">20</text>
    <text x="169.6000" y="67.9000" font-family="sans-serif" font-size="1.6000" fill="#111111">CoreContourHatchOverhang</text>
    <rect x="161.8000" y="69.0000" width="3.5000" height="2.0000" fill="#311B92" stroke="#333333" stroke-width="0.08" rx="0.3" ry="0.3"/>
    <text x="168.6000" y="70.9000" font-family="monospace" font-size="1.6000" fill="#444444" text-anchor="end">21</text>
    <text x="169.6000" y="70.9000" font-family="sans-serif" font-size="1.6000" fill="#111111">Shell1ContourHatchOverhang</text>
    <rect x="161.8000" y="72.0000" width="3.5000" height="2.0000" fill="#880E4F" stroke="#333333" stroke-width="0.08" rx="0.3" ry="0.3"/>
    <text x="168.6000" y="73.9000" font-family="monospace" font-size="1.6000" fill="#444444" text-anchor="end">22</text>
    <text x="169.6000" y="73.9000" font-family="sans-serif" font-size="1.6000" fill="#111111">Shell2ContourHatchOverhang</text>
    </g>
  </g>
</svg>
