<?xml version="1.0" encoding="UTF-8" standalone="yes"?>
<svg xmlns="http://www.w3.org/2000/svg"
     xmlns:xlink="http://www.w3.org/1999/xlink"
     width="2020.0000mm" height="1600.0000mm"
     viewBox="0 0 202.000000 160.000000">
  <!--
    Build plate : 150.00 x 150.00 mm
    Coordinate  : 1 SVG unit = 1 mm
    Display zoom: 10x  (width/height = viewBox x 10)
    Hatch stroke: 0.04 mm = ~28 mm on screen at this zoom
    Legend panel: right margin (42 mm wide)
  -->
  <defs>
    <marker id="endArrow" markerWidth="2" markerHeight="1.4"
            refX="0" refY="0.7" orient="auto"
            markerUnits="strokeWidth">
      <polyline fill="darkblue" points="0,0 2,0.7 0,1.4 0.2,0.7"/>
    </marker>
  </defs>
  <!-- Background -->
  <rect x="0" y="0" width="202.000000" height="160.000000" fill="#f0f0f0" stroke="none"/>
  <!-- Build plate boundary (150 x 150 mm) -->
  <rect x="5.000000" y="5.000000" width="150.000000" height="150.000000"
        fill="#ffffff" stroke="#aaaaaa" stroke-width="0.2" stroke-dasharray="1,0.5"/>
  <!-- Build plate centre circle (r = 75.00 mm) -->
  <circle cx="80.000000" cy="80.000000" r="75.000000"
          fill="none" stroke="#bbbbbb" stroke-width="0.15" stroke-dasharray="0.8,0.4"/>
  <!-- Centre cross-hair -->
  <line x1="5.000000" y1="80.000000" x2="155.000000" y2="80.000000" stroke="#cccccc" stroke-width="0.1"/>
  <line x1="80.000000" y1="5.000000" x2="80.000000" y2="155.000000" stroke="#cccccc" stroke-width="0.1"/>
  <circle cx="80.000000" cy="80.000000" r="0.3" fill="#cccccc" stroke="none"/>
  <!-- Corner labels -->
  <text x="5.400000" y="4.600000" font-family="sans-serif" font-size="2" fill="#888888">0,0</text>
  <text x="154.600006" y="4.600000" font-family="sans-serif" font-size="2" fill="#888888" text-anchor="end">150,0</text>
  <text x="5.400000" y="157.199997" font-family="sans-serif" font-size="2" fill="#888888">0,150</text>
  <!-- Layer geometry -->
  <g id="geometry">
    <g class="thermal-hatch" data-segment="8" data-name="CoreNormalHatch">
      <line x1="34.86906" y1="126.81236" x2="33.72837" y2="125.24232" stroke="#228B22" stroke-width="0.04000"/>
      <line x1="34.95161" y1="126.75585" x2="33.61459" y2="124.91560" stroke="#228B22" stroke-width="0.04000"/>
      <line x1="35.01337" y1="126.67072" x2="33.50729" y2="124.59779" stroke="#228B22" stroke-width="0.04000"/>
      <line x1="34.60806" y1="126.62327" x2="33.86836" y2="125.60516" stroke="#228B22" stroke-width="0.04000"/>
      <line x1="35.07512" y1="126.58559" x2="33.41151" y2="124.29583" stroke="#228B22" stroke-width="0.04000"/>
      <line x1="35.13688" y1="126.50046" x2="33.31115" y2="123.98756" stroke="#228B22" stroke-width="0.04000"/>
      <line x1="34.34709" y1="126.43420" x2="34.01090" y2="125.97147" stroke="#228B22" stroke-width="0.04000"/>
      <line x1="35.19863" y1="126.41533" x2="33.21023" y2="123.67853" stroke="#228B22" stroke-width="0.04000"/>
      <line x1="35.26039" y1="126.33020" x2="33.10931" y2="123.36950" stroke="#228B22" stroke-width="0.04000"/>
      <line x1="35.32214" y1="126.24507" x2="33.02476" y2="123.08299" stroke="#228B22" stroke-width="0.04000"/>
      <line x1="35.38390" y1="126.15993" x2="32.94561" y2="122.80392" stroke="#228B22" stroke-width="0.04000"/>
      <line x1="35.44566" y1="126.07480" x2="32.86645" y2="122.52483" stroke="#228B22" stroke-width="0.04000"/>
      <line x1="35.50741" y1="125.98967" x2="32.78831" y2="122.24715" stroke="#228B22" stroke-width="0.04000"/>
      <line x1="35.53401" y1="125.85615" x2="32.71315" y2="121.97356" stroke="#228B22" stroke-width="0.04000"/>
      <line x1="35.54716" y1="125.70412" x2="32.63660" y2="121.69808" stroke="#228B22" stroke-width="0.04000"/>
      <line x1="35.56132" y1="125.55349" x2="32.56005" y2="121.42259" stroke="#228B22" stroke-width="0.04000"/>
      <line x1="35.57548" y1="125.40285" x2="32.48539" y2="121.14970" stroke="#228B22" stroke-width="0.04000"/>
      <line x1="35.58964" y1="125.25220" x2="32.42666" y2="120.89873" stroke="#228B22" stroke-width="0.04000"/>
      <line x1="35.60327" y1="125.10084" x2="32.36792" y2="120.64777" stroke="#228B22" stroke-width="0.04000"/>
      <line x1="35.61646" y1="124.94886" x2="32.30919" y2="120.39680" stroke="#228B22" stroke-width="0.04000"/>
      <line x1="35.62964" y1="124.79687" x2="32.24195" y2="120.13411" stroke="#228B22" stroke-width="0.04000"/>
      <line x1="35.64328" y1="124.64550" x2="32.15767" y2="119.84798" stroke="#228B22" stroke-width="0.04000"/>
      <line x1="35.66016" y1="124.49862" x2="32.10024" y2="119.59880" stroke="#228B22" stroke-width="0.04000"/>
      <line x1="35.66067" y1="124.32919" x2="32.04281" y2="119.34962" stroke="#228B22" stroke-width="0.04000"/>
      <line x1="35.66117" y1="124.15975" x2="31.89800" y2="118.98019" stroke="#228B22" stroke-width="0.04000"/>
      <line x1="35.66168" y1="123.99032" x2="31.71144" y2="118.55328" stroke="#228B22" stroke-width="0.04000"/>
      <line x1="35.66219" y1="123.82088" x2="31.60744" y2="118.24001" stroke="#228B22" stroke-width="0.04000"/>
      <line x1="35.66474" y1="123.65427" x2="31.12413" y2="117.40466" stroke="#228B22" stroke-width="0.04000"/>
      <line x1="35.67546" y1="123.49890" x2="30.74050" y2="116.70650" stroke="#228B22" stroke-width="0.04000"/>
      <line x1="35.68619" y1="123.34352" x2="30.73397" y2="116.52739" stroke="#228B22" stroke-width="0.04000"/>
      <line x1="35.69691" y1="123.18815" x2="30.72745" y2="116.34827" stroke="#228B22" stroke-width="0.04000"/>
      <line x1="35.70763" y1="123.03278" x2="30.72092" y2="116.16917" stroke="#228B22" stroke-width="0.04000"/>
      <line x1="35.71347" y1="122.87069" x2="30.59104" y2="115.82026" stroke="#228B22" stroke-width="0.04000"/>
      <line x1="35.71275" y1="122.69956" x2="30.58013" y2="115.63512" stroke="#228B22" stroke-width="0.04000"/>
      <line x1="35.72063" y1="122.54028" x2="30.57067" y2="115.45197" stroke="#228B22" stroke-width="0.04000"/>
      <line x1="35.72867" y1="122.38122" x2="30.56121" y2="115.26882" stroke="#228B22" stroke-width="0.04000"/>
      <line x1="35.73670" y1="122.22215" x2="30.57273" y2="115.11455" stroke="#228B22" stroke-width="0.04000"/>
      <line x1="35.74321" y1="122.06097" x2="30.60037" y2="114.98247" stroke="#228B22" stroke-width="0.04000"/>
      <line x1="35.74950" y1="121.89950" x2="30.62802" y2="114.85038" stroke="#228B22" stroke-width="0.04000"/>
      <line x1="35.75579" y1="121.73802" x2="30.65559" y2="114.71821" stroke="#228B22" stroke-width="0.04000"/>
      <line x1="35.76982" y1="121.58721" x2="30.68317" y2="114.58602" stroke="#228B22" stroke-width="0.04000"/>
      <line x1="35.78275" y1="121.43487" x2="30.71074" y2="114.45385" stroke="#228B22" stroke-width="0.04000"/>
      <line x1="35.79292" y1="121.27874" x2="30.73831" y2="114.32167" stroke="#228B22" stroke-width="0.04000"/>
      <line x1="35.80309" y1="121.12261" x2="30.76588" y2="114.18949" stroke="#228B22" stroke-width="0.04000"/>
      <line x1="35.81326" y1="120.96648" x2="30.79346" y2="114.05731" stroke="#228B22" stroke-width="0.04000"/>
      <line x1="35.82344" y1="120.81035" x2="30.82198" y2="113.92643" stroke="#228B22" stroke-width="0.04000"/>
      <line x1="35.83605" y1="120.65759" x2="30.86933" y2="113.82148" stroke="#228B22" stroke-width="0.04000"/>
      <line x1="35.85208" y1="120.50951" x2="30.90729" y2="113.70359" stroke="#228B22" stroke-width="0.04000"/>
      <line x1="35.86811" y1="120.36144" x2="30.94364" y2="113.58349" stroke="#228B22" stroke-width="0.04000"/>
      <line x1="35.88413" y1="120.21337" x2="30.98209" y2="113.46629" stroke="#228B22" stroke-width="0.04000"/>
      <line x1="35.90016" y1="120.06530" x2="31.02206" y2="113.35118" stroke="#228B22" stroke-width="0.04000"/>
      <line x1="35.91619" y1="119.91723" x2="31.06204" y2="113.23607" stroke="#228B22" stroke-width="0.04000"/>
      <line x1="35.93221" y1="119.76917" x2="31.10201" y2="113.12096" stroke="#228B22" stroke-width="0.04000"/>
      <line x1="35.94533" y1="119.61708" x2="31.14198" y2="113.00584" stroke="#228B22" stroke-width="0.04000"/>
      <line x1="35.94308" y1="119.44386" x2="31.18195" y2="112.89072" stroke="#228B22" stroke-width="0.04000"/>
      <line x1="35.94084" y1="119.27064" x2="31.21926" y2="112.77195" stroke="#228B22" stroke-width="0.04000"/>
      <line x1="35.93860" y1="119.09743" x2="31.25457" y2="112.65042" stroke="#228B22" stroke-width="0.04000"/>
      <line x1="35.93636" y1="118.92421" x2="31.28988" y2="112.52888" stroke="#228B22" stroke-width="0.04000"/>
      <line x1="35.93199" y1="118.74808" x2="31.33384" y2="112.41926" stroke="#228B22" stroke-width="0.04000"/>
      <line x1="35.90980" y1="118.54739" x2="31.39775" y2="112.33710" stroke="#228B22" stroke-width="0.04000"/>
      <line x1="35.89899" y1="118.36238" x2="31.46167" y2="112.25494" stroke="#228B22" stroke-width="0.04000"/>
      <line x1="35.89545" y1="118.18739" x2="31.52558" y2="112.17278" stroke="#228B22" stroke-width="0.04000"/>
      <line x1="35.89191" y1="118.01239" x2="31.58949" y2="112.09061" stroke="#228B22" stroke-width="0.04000"/>
      <line x1="35.88838" y1="117.83739" x2="31.65341" y2="112.00845" stroke="#228B22" stroke-width="0.04000"/>
      <line x1="35.88484" y1="117.66240" x2="31.71697" y2="111.92582" stroke="#228B22" stroke-width="0.04000"/>
      <line x1="35.86856" y1="117.46986" x2="31.77680" y2="111.83804" stroke="#228B22" stroke-width="0.04000"/>
      <line x1="35.83521" y1="117.25382" x2="31.83663" y2="111.75025" stroke="#228B22" stroke-width="0.04000"/>
      <line x1="35.80095" y1="117.03654" x2="31.89646" y2="111.66247" stroke="#228B22" stroke-width="0.04000"/>
      <line x1="35.76670" y1="116.81926" x2="31.95629" y2="111.57468" stroke="#228B22" stroke-width="0.04000"/>
      <line x1="35.73244" y1="116.60198" x2="32.03082" y2="111.50714" stroke="#228B22" stroke-width="0.04000"/>
      <line x1="35.69748" y1="116.38373" x2="32.12290" y2="111.46375" stroke="#228B22" stroke-width="0.04000"/>
      <line x1="35.66175" y1="116.16443" x2="32.21498" y2="111.42035" stroke="#228B22" stroke-width="0.04000"/>
      <line x1="35.62602" y1="115.94512" x2="32.30706" y2="111.37696" stroke="#228B22" stroke-width="0.04000"/>
      <line x1="35.59029" y1="115.72581" x2="32.39914" y2="111.33356" stroke="#228B22" stroke-width="0.04000"/>
      <line x1="35.53569" y1="115.48053" x2="32.49122" y2="111.29017" stroke="#228B22" stroke-width="0.04000"/>
      <line x1="35.44611" y1="115.18710" x2="32.58179" y2="111.24471" stroke="#228B22" stroke-width="0.04000"/>
      <line x1="35.34940" y1="114.88385" x2="32.67020" y2="111.19627" stroke="#228B22" stroke-width="0.04000"/>
      <line x1="35.25268" y1="114.58060" x2="32.75861" y2="111.14782" stroke="#228B22" stroke-width="0.04000"/>
      <line x1="35.14505" y1="114.26233" x2="32.86692" y2="111.12675" stroke="#228B22" stroke-width="0.04000"/>
      <line x1="35.02843" y1="113.93169" x2="33.03567" y2="111.18889" stroke="#228B22" stroke-width="0.04000"/>
      <line x1="34.84589" y1="113.51031" x2="33.20236" y2="111.24819" stroke="#228B22" stroke-width="0.04000"/>
      <line x1="34.67850" y1="113.10979" x2="33.35992" y2="111.29492" stroke="#228B22" stroke-width="0.04000"/>
      <line x1="34.50500" y1="112.70086" x2="33.51748" y2="111.34166" stroke="#228B22" stroke-width="0.04000"/>
    </g>
    <g class="thermal-hatch" data-segment="8" data-name="CoreNormalHatch">
      <line x1="48.37793" y1="112.35857" x2="45.00197" y2="107.71196" stroke="#228B22" stroke-width="0.04000"/>
      <line x1="49.48952" y1="112.35738" x2="46.51362" y2="108.26140" stroke="#228B22" stroke-width="0.04000"/>
      <line x1="48.25197" y1="112.35532" x2="44.83662" y2="107.65451" stroke="#228B22" stroke-width="0.04000"/>
      <line x1="48.49879" y1="112.35479" x2="45.16898" y2="107.77169" stroke="#228B22" stroke-width="0.04000"/>
      <line x1="48.12601" y1="112.35209" x2="44.67456" y2="107.60158" stroke="#228B22" stroke-width="0.04000"/>
      <line x1="49.36131" y1="112.35104" x2="46.33844" y2="108.19041" stroke="#228B22" stroke-width="0.04000"/>
      <line x1="48.00005" y1="112.34885" x2="44.50372" y2="107.53656" stroke="#228B22" stroke-width="0.04000"/>
      <line x1="47.87410" y1="112.34562" x2="44.30002" y2="107.42632" stroke="#228B22" stroke-width="0.04000"/>
      <line x1="49.60407" y1="112.34490" x2="46.67051" y2="108.30721" stroke="#228B22" stroke-width="0.04000"/>
      <line x1="48.61509" y1="112.34473" x2="45.33598" y2="107.83141" stroke="#228B22" stroke-width="0.04000"/>
      <line x1="49.23310" y1="112.34470" x2="46.15722" y2="108.11111" stroke="#228B22" stroke-width="0.04000"/>
      <line x1="47.74813" y1="112.34238" x2="44.09632" y2="107.31609" stroke="#228B22" stroke-width="0.04000"/>
      <line x1="50.71424" y1="112.34176" x2="48.10904" y2="108.75600" stroke="#228B22" stroke-width="0.04000"/>
      <line x1="47.62218" y1="112.33915" x2="43.89263" y2="107.20586" stroke="#228B22" stroke-width="0.04000"/>
      <line x1="49.10489" y1="112.33836" x2="45.99367" y2="108.05614" stroke="#228B22" stroke-width="0.04000"/>
      <line x1="47.37373" y1="112.33744" x2="43.50295" y2="107.00977" stroke="#228B22" stroke-width="0.04000"/>
      <line x1="47.49676" y1="112.33665" x2="43.68894" y2="107.09563" stroke="#228B22" stroke-width="0.04000"/>
      <line x1="48.73139" y1="112.33468" x2="45.50298" y2="107.89114" stroke="#228B22" stroke-width="0.04000"/>
      <line x1="47.24805" y1="112.33459" x2="43.16408" y2="106.71349" stroke="#228B22" stroke-width="0.04000"/>
      <line x1="48.97667" y1="112.33202" x2="45.83012" y2="108.00116" stroke="#228B22" stroke-width="0.04000"/>
      <line x1="50.57999" y1="112.32711" x2="47.94920" y2="108.70613" stroke="#228B22" stroke-width="0.04000"/>
      <line x1="47.11877" y1="112.32680" x2="42.73959" y2="106.29935" stroke="#228B22" stroke-width="0.04000"/>
      <line x1="48.84846" y1="112.32568" x2="45.66657" y2="107.94619" stroke="#228B22" stroke-width="0.04000"/>
      <line x1="49.71342" y1="112.32528" x2="46.82740" y2="108.35301" stroke="#228B22" stroke-width="0.04000"/>
      <line x1="46.98950" y1="112.31899" x2="42.45482" y2="106.07754" stroke="#228B22" stroke-width="0.04000"/>
      <line x1="50.44575" y1="112.31247" x2="47.78936" y2="108.65626" stroke="#228B22" stroke-width="0.04000"/>
      <line x1="46.86023" y1="112.31119" x2="42.08986" y2="105.74535" stroke="#228B22" stroke-width="0.04000"/>
      <line x1="49.82276" y1="112.30565" x2="46.98428" y2="108.39882" stroke="#228B22" stroke-width="0.04000"/>
      <line x1="46.73095" y1="112.30338" x2="41.86947" y2="105.61214" stroke="#228B22" stroke-width="0.04000"/>
      <line x1="50.31151" y1="112.29783" x2="47.62952" y2="108.60638" stroke="#228B22" stroke-width="0.04000"/>
      <line x1="46.60167" y1="112.29558" x2="41.65750" y2="105.49052" stroke="#228B22" stroke-width="0.04000"/>
      <line x1="50.80365" y1="112.29468" x2="48.26889" y2="108.80588" stroke="#228B22" stroke-width="0.04000"/>
      <line x1="46.47239" y1="112.28777" x2="41.49176" y2="105.43252" stroke="#228B22" stroke-width="0.04000"/>
      <line x1="49.93211" y1="112.28602" x2="47.14117" y2="108.44463" stroke="#228B22" stroke-width="0.04000"/>
      <line x1="50.17726" y1="112.28318" x2="47.46967" y2="108.55650" stroke="#228B22" stroke-width="0.04000"/>
      <line x1="46.34213" y1="112.27862" x2="41.33574" y2="105.38790" stroke="#228B22" stroke-width="0.04000"/>
      <line x1="46.21128" y1="112.26864" x2="41.18563" y2="105.35143" stroke="#228B22" stroke-width="0.04000"/>
      <line x1="50.04301" y1="112.26854" x2="47.30762" y2="108.50360" stroke="#228B22" stroke-width="0.04000"/>
      <line x1="46.07198" y1="112.24704" x2="41.03735" y2="105.31747" stroke="#228B22" stroke-width="0.04000"/>
      <line x1="50.88229" y1="112.23279" x2="48.43225" y2="108.86060" stroke="#228B22" stroke-width="0.04000"/>
      <line x1="45.93090" y1="112.22299" x2="40.88908" y2="105.28352" stroke="#228B22" stroke-width="0.04000"/>
      <line x1="45.78982" y1="112.19895" x2="40.74080" y2="105.24957" stroke="#228B22" stroke-width="0.04000"/>
      <line x1="45.64875" y1="112.17490" x2="40.59253" y2="105.21561" stroke="#228B22" stroke-width="0.04000"/>
      <line x1="50.96093" y1="112.17090" x2="48.59625" y2="108.91620" stroke="#228B22" stroke-width="0.04000"/>
      <line x1="45.50767" y1="112.15086" x2="40.46510" y2="105.21036" stroke="#228B22" stroke-width="0.04000"/>
      <line x1="45.36659" y1="112.12681" x2="40.35805" y2="105.23315" stroke="#228B22" stroke-width="0.04000"/>
      <line x1="51.03957" y1="112.10902" x2="48.76025" y2="108.97180" stroke="#228B22" stroke-width="0.04000"/>
      <line x1="45.22551" y1="112.10276" x2="40.24875" y2="105.25284" stroke="#228B22" stroke-width="0.04000"/>
      <line x1="45.07997" y1="112.07256" x2="40.13945" y2="105.27253" stroke="#228B22" stroke-width="0.04000"/>
      <line x1="51.11827" y1="112.04720" x2="48.92426" y2="109.02740" stroke="#228B22" stroke-width="0.04000"/>
      <line x1="44.93292" y1="112.04030" x2="40.03015" y2="105.29221" stroke="#228B22" stroke-width="0.04000"/>
      <line x1="44.78587" y1="112.00803" x2="39.92085" y2="105.31190" stroke="#228B22" stroke-width="0.04000"/>
      <line x1="51.19787" y1="111.98663" x2="49.08826" y2="109.08300" stroke="#228B22" stroke-width="0.04000"/>
      <line x1="44.63882" y1="111.97577" x2="39.81155" y2="105.33160" stroke="#228B22" stroke-width="0.04000"/>
      <line x1="44.48665" y1="111.93646" x2="39.70224" y2="105.35129" stroke="#228B22" stroke-width="0.04000"/>
      <line x1="51.27747" y1="111.92606" x2="49.25226" y2="109.13860" stroke="#228B22" stroke-width="0.04000"/>
      <line x1="44.32500" y1="111.88409" x2="39.59494" y2="105.37372" stroke="#228B22" stroke-width="0.04000"/>
      <line x1="51.35707" y1="111.86550" x2="49.41626" y2="109.19419" stroke="#228B22" stroke-width="0.04000"/>
      <line x1="51.43668" y1="111.80493" x2="49.64938" y2="109.34492" stroke="#228B22" stroke-width="0.04000"/>
      <line x1="44.14085" y1="111.80077" x2="39.51383" y2="105.43222" stroke="#228B22" stroke-width="0.04000"/>
      <line x1="51.51629" y1="111.74437" x2="50.05118" y2="109.72782" stroke="#228B22" stroke-width="0.04000"/>
      <line x1="43.96217" y1="111.72497" x2="39.43272" y2="105.49072" stroke="#228B22" stroke-width="0.04000"/>
      <line x1="43.78495" y1="111.65118" x2="39.35121" y2="105.54865" stroke="#228B22" stroke-width="0.04000"/>
      <line x1="43.60774" y1="111.57738" x2="39.26754" y2="105.60362" stroke="#228B22" stroke-width="0.04000"/>
      <line x1="43.42734" y1="111.49921" x2="39.18388" y2="105.65859" stroke="#228B22" stroke-width="0.04000"/>
      <line x1="43.23551" y1="111.40532" x2="39.10021" y2="105.71357" stroke="#228B22" stroke-width="0.04000"/>
      <line x1="51.35481" y1="111.35198" x2="50.35584" y2="109.97702" stroke="#228B22" stroke-width="0.04000"/>
      <line x1="43.04368" y1="111.31142" x2="39.01655" y2="105.76855" stroke="#228B22" stroke-width="0.04000"/>
      <line x1="42.85186" y1="111.21753" x2="38.93288" y2="105.82352" stroke="#228B22" stroke-width="0.04000"/>
      <line x1="42.64380" y1="111.10129" x2="38.85269" y2="105.88327" stroke="#228B22" stroke-width="0.04000"/>
      <line x1="42.41795" y1="110.96057" x2="38.81089" y2="105.99586" stroke="#228B22" stroke-width="0.04000"/>
      <line x1="42.18853" y1="110.81493" x2="38.76909" y2="106.10847" stroke="#228B22" stroke-width="0.04000"/>
      <line x1="51.08125" y1="110.80534" x2="50.51982" y2="110.03259" stroke="#228B22" stroke-width="0.04000"/>
      <line x1="41.95911" y1="110.66929" x2="38.72729" y2="106.22106" stroke="#228B22" stroke-width="0.04000"/>
      <line x1="41.73277" y1="110.52789" x2="38.68549" y2="106.33366" stroke="#228B22" stroke-width="0.04000"/>
      <line x1="41.51823" y1="110.40273" x2="38.64368" y2="106.44626" stroke="#228B22" stroke-width="0.04000"/>
      <line x1="50.87823" y1="110.35578" x2="50.68380" y2="110.08816" stroke="#228B22" stroke-width="0.04000"/>
      <line x1="41.25770" y1="110.21427" x2="38.60209" y2="106.55914" stroke="#228B22" stroke-width="0.04000"/>
      <line x1="40.98888" y1="110.01440" x2="38.56170" y2="106.67368" stroke="#228B22" stroke-width="0.04000"/>
      <line x1="40.71399" y1="109.80618" x2="38.59297" y2="106.88684" stroke="#228B22" stroke-width="0.04000"/>
      <line x1="40.39643" y1="109.53922" x2="38.67420" y2="107.16878" stroke="#228B22" stroke-width="0.04000"/>
      <line x1="39.95503" y1="109.10182" x2="38.75543" y2="107.45071" stroke="#228B22" stroke-width="0.04000"/>
      <line x1="39.50396" y1="108.65110" x2="38.83521" y2="107.73066" stroke="#228B22" stroke-width="0.04000"/>
    </g>
    <g class="thermal-hatch" data-segment="8" data-name="CoreNormalHatch">
      <line x1="33.08190" y1="111.51510" x2="33.45450" y2="111.62530" stroke="#228B22" stroke-width="0.04000"/>
      <line x1="33.45450" y1="111.62530" x2="33.81060" y2="112.11830" stroke="#228B22" stroke-width="0.04000"/>
      <line x1="33.81060" y1="112.11830" x2="33.81060" y2="112.11820" stroke="#228B22" stroke-width="0.04000"/>
      <line x1="33.81060" y1="112.11820" x2="34.10780" y2="112.53520" stroke="#228B22" stroke-width="0.04000"/>
      <line x1="34.10780" y1="112.53520" x2="34.22320" y2="112.77900" stroke="#228B22" stroke-width="0.04000"/>
      <line x1="34.22320" y1="112.77900" x2="34.38290" y2="113.15460" stroke="#228B22" stroke-width="0.04000"/>
      <line x1="34.38290" y1="113.15460" x2="34.60740" y2="113.69190" stroke="#228B22" stroke-width="0.04000"/>
      <line x1="34.60740" y1="113.69190" x2="34.77210" y2="114.07000" stroke="#228B22" stroke-width="0.04000"/>
      <line x1="34.77210" y1="114.07000" x2="34.95630" y2="114.60580" stroke="#228B22" stroke-width="0.04000"/>
      <line x1="34.95630" y1="114.60580" x2="35.20240" y2="115.37760" stroke="#228B22" stroke-width="0.04000"/>
      <line x1="35.20240" y1="115.37760" x2="35.20240" y2="115.37770" stroke="#228B22" stroke-width="0.04000"/>
      <line x1="35.20240" y1="115.37770" x2="35.25380" y2="115.54890" stroke="#228B22" stroke-width="0.04000"/>
      <line x1="35.25380" y1="115.54890" x2="35.28930" y2="115.68230" stroke="#228B22" stroke-width="0.04000"/>
      <line x1="35.28930" y1="115.68230" x2="35.42820" y2="116.53430" stroke="#228B22" stroke-width="0.04000"/>
      <line x1="35.42820" y1="116.53430" x2="35.42820" y2="116.53440" stroke="#228B22" stroke-width="0.04000"/>
      <line x1="35.42820" y1="116.53440" x2="35.57690" y2="117.47760" stroke="#228B22" stroke-width="0.04000"/>
      <line x1="35.57690" y1="117.47760" x2="35.57690" y2="117.47770" stroke="#228B22" stroke-width="0.04000"/>
      <line x1="35.57690" y1="117.47770" x2="35.58850" y2="117.56260" stroke="#228B22" stroke-width="0.04000"/>
      <line x1="35.58850" y1="117.56260" x2="35.59320" y2="117.59240" stroke="#228B22" stroke-width="0.04000"/>
      <line x1="35.59320" y1="117.59240" x2="35.61140" y2="118.48800" stroke="#228B22" stroke-width="0.04000"/>
      <line x1="35.61140" y1="118.48800" x2="35.64430" y2="118.78750" stroke="#228B22" stroke-width="0.04000"/>
      <line x1="35.64430" y1="118.78750" x2="35.65520" y2="119.61820" stroke="#228B22" stroke-width="0.04000"/>
      <line x1="35.65520" y1="119.61820" x2="35.64910" y2="119.69030" stroke="#228B22" stroke-width="0.04000"/>
      <line x1="35.64910" y1="119.69030" x2="35.64450" y2="119.73290" stroke="#228B22" stroke-width="0.04000"/>
      <line x1="35.64450" y1="119.73290" x2="35.54050" y2="120.69440" stroke="#228B22" stroke-width="0.04000"/>
      <line x1="35.54050" y1="120.69440" x2="35.48770" y2="121.49880" stroke="#228B22" stroke-width="0.04000"/>
      <line x1="35.48770" y1="121.49880" x2="35.46800" y2="121.67620" stroke="#228B22" stroke-width="0.04000"/>
      <line x1="35.46800" y1="121.67620" x2="35.44800" y2="122.18750" stroke="#228B22" stroke-width="0.04000"/>
      <line x1="35.44800" y1="122.18750" x2="35.42270" y2="122.68990" stroke="#228B22" stroke-width="0.04000"/>
      <line x1="35.42270" y1="122.68990" x2="35.42350" y2="122.93280" stroke="#228B22" stroke-width="0.04000"/>
      <line x1="35.42350" y1="122.93280" x2="35.37260" y2="123.67510" stroke="#228B22" stroke-width="0.04000"/>
      <line x1="35.37260" y1="123.67510" x2="35.37010" y2="124.48860" stroke="#228B22" stroke-width="0.04000"/>
      <line x1="35.37010" y1="124.48860" x2="35.35300" y2="124.63000" stroke="#228B22" stroke-width="0.04000"/>
      <line x1="35.35300" y1="124.63000" x2="35.30730" y2="125.15650" stroke="#228B22" stroke-width="0.04000"/>
      <line x1="35.30730" y1="125.15650" x2="35.24900" y2="125.77610" stroke="#228B22" stroke-width="0.04000"/>
      <line x1="35.24900" y1="125.77610" x2="35.24270" y2="125.86050" stroke="#228B22" stroke-width="0.04000"/>
      <line x1="35.24270" y1="125.86050" x2="34.83170" y2="126.42700" stroke="#228B22" stroke-width="0.04000"/>
      <line x1="34.83170" y1="126.42700" x2="34.36980" y2="126.09240" stroke="#228B22" stroke-width="0.04000"/>
      <line x1="34.36980" y1="126.09240" x2="34.25910" y2="125.81010" stroke="#228B22" stroke-width="0.04000"/>
      <line x1="34.25910" y1="125.81010" x2="34.07760" y2="125.34300" stroke="#228B22" stroke-width="0.04000"/>
      <line x1="34.07760" y1="125.34300" x2="34.07750" y2="125.34300" stroke="#228B22" stroke-width="0.04000"/>
      <line x1="34.07750" y1="125.34300" x2="33.97160" y2="125.06680" stroke="#228B22" stroke-width="0.04000"/>
      <line x1="33.97160" y1="125.06680" x2="33.73950" y2="124.37900" stroke="#228B22" stroke-width="0.04000"/>
      <line x1="33.73950" y1="124.37900" x2="33.68460" y2="124.19680" stroke="#228B22" stroke-width="0.04000"/>
      <line x1="33.68460" y1="124.19680" x2="33.36570" y2="123.22000" stroke="#228B22" stroke-width="0.04000"/>
      <line x1="33.36570" y1="123.22000" x2="33.32330" y2="123.07270" stroke="#228B22" stroke-width="0.04000"/>
      <line x1="33.32330" y1="123.07270" x2="33.07340" y2="122.19200" stroke="#228B22" stroke-width="0.04000"/>
      <line x1="33.07340" y1="122.19200" x2="33.07180" y2="122.18440" stroke="#228B22" stroke-width="0.04000"/>
      <line x1="33.07180" y1="122.18440" x2="33.02980" y2="122.03000" stroke="#228B22" stroke-width="0.04000"/>
      <line x1="33.02980" y1="122.03000" x2="32.77940" y2="121.12900" stroke="#228B22" stroke-width="0.04000"/>
      <line x1="32.77940" y1="121.12900" x2="32.77270" y2="121.10490" stroke="#228B22" stroke-width="0.04000"/>
      <line x1="32.77270" y1="121.10490" x2="32.54740" y2="120.14210" stroke="#228B22" stroke-width="0.04000"/>
      <line x1="32.54740" y1="120.14210" x2="32.44560" y2="119.80700" stroke="#228B22" stroke-width="0.04000"/>
      <line x1="32.44560" y1="119.80700" x2="32.29930" y2="119.17140" stroke="#228B22" stroke-width="0.04000"/>
      <line x1="32.29930" y1="119.17140" x2="31.98790" y2="118.46560" stroke="#228B22" stroke-width="0.04000"/>
      <line x1="31.98790" y1="118.46560" x2="31.89870" y2="118.16930" stroke="#228B22" stroke-width="0.04000"/>
      <line x1="31.89870" y1="118.16930" x2="31.60790" y2="117.63040" stroke="#228B22" stroke-width="0.04000"/>
      <line x1="31.60790" y1="117.63040" x2="31.45160" y2="117.38350" stroke="#228B22" stroke-width="0.04000"/>
      <line x1="31.45160" y1="117.38350" x2="31.45170" y2="117.38350" stroke="#228B22" stroke-width="0.04000"/>
      <line x1="31.45170" y1="117.38350" x2="31.32300" y2="117.17430" stroke="#228B22" stroke-width="0.04000"/>
      <line x1="31.32300" y1="117.17430" x2="31.32290" y2="117.17430" stroke="#228B22" stroke-width="0.04000"/>
      <line x1="31.32290" y1="117.17430" x2="31.02980" y2="116.68890" stroke="#228B22" stroke-width="0.04000"/>
      <line x1="31.02980" y1="116.68890" x2="31.00860" y2="116.10120" stroke="#228B22" stroke-width="0.04000"/>
      <line x1="31.00860" y1="116.10120" x2="30.87670" y2="115.75580" stroke="#228B22" stroke-width="0.04000"/>
      <line x1="30.87670" y1="115.75580" x2="30.84860" y2="115.21160" stroke="#228B22" stroke-width="0.04000"/>
      <line x1="30.84860" y1="115.21160" x2="30.91330" y2="114.90340" stroke="#228B22" stroke-width="0.04000"/>
      <line x1="30.91330" y1="114.90340" x2="31.09690" y2="114.02160" stroke="#228B22" stroke-width="0.04000"/>
      <line x1="31.09690" y1="114.02160" x2="31.14830" y2="113.90820" stroke="#228B22" stroke-width="0.04000"/>
      <line x1="31.14830" y1="113.90820" x2="31.23400" y2="113.62490" stroke="#228B22" stroke-width="0.04000"/>
      <line x1="31.23400" y1="113.62490" x2="31.47550" y2="112.92930" stroke="#228B22" stroke-width="0.04000"/>
      <line x1="31.47550" y1="112.92930" x2="31.57720" y2="112.57820" stroke="#228B22" stroke-width="0.04000"/>
      <line x1="31.57720" y1="112.57820" x2="31.94650" y2="112.10410" stroke="#228B22" stroke-width="0.04000"/>
      <line x1="31.94650" y1="112.10410" x2="32.18380" y2="111.75560" stroke="#228B22" stroke-width="0.04000"/>
      <line x1="32.18380" y1="111.75560" x2="32.67730" y2="111.52310" stroke="#228B22" stroke-width="0.04000"/>
      <line x1="32.67730" y1="111.52310" x2="32.84870" y2="111.42900" stroke="#228B22" stroke-width="0.04000"/>
      <line x1="32.84870" y1="111.42900" x2="33.08190" y2="111.51510" stroke="#228B22" stroke-width="0.04000"/>
      <line x1="41.22890" y1="105.65880" x2="41.50650" y2="105.73810" stroke="#228B22" stroke-width="0.04000"/>
      <line x1="41.50650" y1="105.73810" x2="41.89730" y2="105.96230" stroke="#228B22" stroke-width="0.04000"/>
      <line x1="41.89730" y1="105.96230" x2="42.18020" y2="106.23120" stroke="#228B22" stroke-width="0.04000"/>
      <line x1="42.18020" y1="106.23120" x2="42.55680" y2="106.52460" stroke="#228B22" stroke-width="0.04000"/>
      <line x1="42.55680" y1="106.52460" x2="43.23620" y2="107.19020" stroke="#228B22" stroke-width="0.04000"/>
      <line x1="43.23620" y1="107.19020" x2="43.39350" y2="107.28160" stroke="#228B22" stroke-width="0.04000"/>
      <line x1="43.39350" y1="107.28160" x2="43.47760" y2="107.31110" stroke="#228B22" stroke-width="0.04000"/>
      <line x1="43.47760" y1="107.31110" x2="44.43170" y2="107.82720" stroke="#228B22" stroke-width="0.04000"/>
      <line x1="44.43170" y1="107.82720" x2="44.79800" y2="107.94690" stroke="#228B22" stroke-width="0.04000"/>
      <line x1="44.79800" y1="107.94690" x2="45.41060" y2="108.16610" stroke="#228B22" stroke-width="0.04000"/>
      <line x1="45.41060" y1="108.16610" x2="46.07160" y2="108.38830" stroke="#228B22" stroke-width="0.04000"/>
      <line x1="46.07160" y1="108.38830" x2="46.36300" y2="108.51940" stroke="#228B22" stroke-width="0.04000"/>
      <line x1="46.36300" y1="108.51940" x2="47.06290" y2="108.72380" stroke="#228B22" stroke-width="0.04000"/>
      <line x1="47.06290" y1="108.72380" x2="47.26550" y2="108.79660" stroke="#228B22" stroke-width="0.04000"/>
      <line x1="47.26550" y1="108.79660" x2="48.21140" y2="109.09170" stroke="#228B22" stroke-width="0.04000"/>
      <line x1="48.21140" y1="109.09170" x2="48.23220" y2="109.09950" stroke="#228B22" stroke-width="0.04000"/>
      <line x1="48.23220" y1="109.09950" x2="48.24030" y2="109.10160" stroke="#228B22" stroke-width="0.04000"/>
      <line x1="48.24030" y1="109.10160" x2="49.30890" y2="109.46380" stroke="#228B22" stroke-width="0.04000"/>
      <line x1="49.30890" y1="109.46380" x2="49.33030" y2="109.49470" stroke="#228B22" stroke-width="0.04000"/>
      <line x1="49.33030" y1="109.49470" x2="49.45890" y2="109.56420" stroke="#228B22" stroke-width="0.04000"/>
      <line x1="49.45890" y1="109.56420" x2="50.13520" y2="110.20840" stroke="#228B22" stroke-width="0.04000"/>
      <line x1="50.13520" y1="110.20840" x2="50.57020" y2="110.35570" stroke="#228B22" stroke-width="0.04000"/>
      <line x1="50.57020" y1="110.35570" x2="50.68950" y2="110.68860" stroke="#228B22" stroke-width="0.04000"/>
      <line x1="50.68950" y1="110.68860" x2="51.02730" y2="111.31810" stroke="#228B22" stroke-width="0.04000"/>
      <line x1="51.02730" y1="111.31810" x2="51.10860" y2="111.51590" stroke="#228B22" stroke-width="0.04000"/>
      <line x1="51.10860" y1="111.51590" x2="50.88100" y2="111.69490" stroke="#228B22" stroke-width="0.04000"/>
      <line x1="50.88100" y1="111.69490" x2="50.46440" y2="112.02260" stroke="#228B22" stroke-width="0.04000"/>
      <line x1="50.46440" y1="112.02260" x2="50.02450" y2="111.97470" stroke="#228B22" stroke-width="0.04000"/>
      <line x1="50.02450" y1="111.97470" x2="49.50640" y2="112.06760" stroke="#228B22" stroke-width="0.04000"/>
      <line x1="49.50640" y1="112.06760" x2="48.83490" y2="112.03470" stroke="#228B22" stroke-width="0.04000"/>
      <line x1="48.83490" y1="112.03470" x2="48.42960" y2="112.06950" stroke="#228B22" stroke-width="0.04000"/>
      <line x1="48.42960" y1="112.06950" x2="47.52240" y2="112.04650" stroke="#228B22" stroke-width="0.04000"/>
      <line x1="47.52240" y1="112.04650" x2="47.30900" y2="112.04760" stroke="#228B22" stroke-width="0.04000"/>
      <line x1="47.30900" y1="112.04760" x2="46.44430" y2="111.99550" stroke="#228B22" stroke-width="0.04000"/>
      <line x1="46.44430" y1="111.99550" x2="46.22870" y2="111.97910" stroke="#228B22" stroke-width="0.04000"/>
      <line x1="46.22870" y1="111.97910" x2="46.20650" y2="111.97530" stroke="#228B22" stroke-width="0.04000"/>
      <line x1="46.20650" y1="111.97530" x2="46.13080" y2="111.96290" stroke="#228B22" stroke-width="0.04000"/>
      <line x1="46.13080" y1="111.96290" x2="46.13070" y2="111.96290" stroke="#228B22" stroke-width="0.04000"/>
      <line x1="46.13070" y1="111.96290" x2="45.24550" y2="111.81180" stroke="#228B22" stroke-width="0.04000"/>
      <line x1="45.24550" y1="111.81180" x2="44.62010" y2="111.67460" stroke="#228B22" stroke-width="0.04000"/>
      <line x1="44.62010" y1="111.67460" x2="44.42970" y2="111.61310" stroke="#228B22" stroke-width="0.04000"/>
      <line x1="44.42970" y1="111.61310" x2="44.21760" y2="111.51720" stroke="#228B22" stroke-width="0.04000"/>
      <line x1="44.21760" y1="111.51720" x2="43.58910" y2="111.25540" stroke="#228B22" stroke-width="0.04000"/>
      <line x1="43.58910" y1="111.25540" x2="42.88720" y2="110.91190" stroke="#228B22" stroke-width="0.04000"/>
      <line x1="42.88720" y1="110.91190" x2="42.76170" y2="110.83280" stroke="#228B22" stroke-width="0.04000"/>
      <line x1="42.76170" y1="110.83280" x2="42.60030" y2="110.73290" stroke="#228B22" stroke-width="0.04000"/>
      <line x1="42.60030" y1="110.73290" x2="41.92790" y2="110.30610" stroke="#228B22" stroke-width="0.04000"/>
      <line x1="41.92790" y1="110.30610" x2="41.64590" y2="110.14130" stroke="#228B22" stroke-width="0.04000"/>
      <line x1="41.64590" y1="110.14130" x2="41.02780" y2="109.68190" stroke="#228B22" stroke-width="0.04000"/>
      <line x1="41.02780" y1="109.68190" x2="41.02790" y2="109.68190" stroke="#228B22" stroke-width="0.04000"/>
      <line x1="41.02790" y1="109.68190" x2="40.69510" y2="109.42520" stroke="#228B22" stroke-width="0.04000"/>
      <line x1="40.69510" y1="109.42520" x2="40.32020" y2="109.06020" stroke="#228B22" stroke-width="0.04000"/>
      <line x1="40.32020" y1="109.06020" x2="39.91380" y2="108.64550" stroke="#228B22" stroke-width="0.04000"/>
      <line x1="39.91380" y1="108.64550" x2="39.64070" y2="108.37930" stroke="#228B22" stroke-width="0.04000"/>
      <line x1="39.64070" y1="108.37930" x2="39.10830" y2="107.62790" stroke="#228B22" stroke-width="0.04000"/>
      <line x1="39.10830" y1="107.62790" x2="38.84930" y2="106.72940" stroke="#228B22" stroke-width="0.04000"/>
      <line x1="38.84930" y1="106.72940" x2="38.88470" y2="106.62930" stroke="#228B22" stroke-width="0.04000"/>
      <line x1="38.88470" y1="106.62930" x2="38.88480" y2="106.62940" stroke="#228B22" stroke-width="0.04000"/>
      <line x1="38.88480" y1="106.62940" x2="39.09470" y2="106.06400" stroke="#228B22" stroke-width="0.04000"/>
      <line x1="39.09470" y1="106.06400" x2="39.52920" y2="105.77870" stroke="#228B22" stroke-width="0.04000"/>
      <line x1="39.52920" y1="105.77870" x2="39.71700" y2="105.64310" stroke="#228B22" stroke-width="0.04000"/>
      <line x1="39.71700" y1="105.64310" x2="40.41910" y2="105.51680" stroke="#228B22" stroke-width="0.04000"/>
      <line x1="40.41910" y1="105.51680" x2="40.51710" y2="105.49570" stroke="#228B22" stroke-width="0.04000"/>
      <line x1="40.51710" y1="105.49570" x2="41.22890" y2="105.65880" stroke="#228B22" stroke-width="0.04000"/>
    </g>
    <g class="thermal-hatch" data-segment="7" data-name="CoreOverhangHatch">
      <line x1="51.14670" y1="111.60830" x2="51.16480" y2="111.64720" stroke="#FF8C00" stroke-width="0.04000"/>
      <line x1="51.16480" y1="111.64720" x2="50.93680" y2="111.82080" stroke="#FF8C00" stroke-width="0.04000"/>
      <line x1="50.93680" y1="111.82080" x2="50.65390" y2="112.04330" stroke="#FF8C00" stroke-width="0.04000"/>
      <line x1="50.65390" y1="112.04330" x2="50.46440" y2="112.02260" stroke="#FF8C00" stroke-width="0.04000"/>
      <line x1="50.46440" y1="112.02260" x2="50.88100" y2="111.69490" stroke="#FF8C00" stroke-width="0.04000"/>
      <line x1="50.88100" y1="111.69490" x2="51.10860" y2="111.51590" stroke="#FF8C00" stroke-width="0.04000"/>
      <line x1="51.10860" y1="111.51590" x2="51.14670" y2="111.60830" stroke="#FF8C00" stroke-width="0.04000"/>
    </g>
    <g class="thermal-contour" data-segment="1" data-name="CoreContour_Volume">
    <path d="M 33.1733 111.24 L 33.632 111.376 L 34.0422 111.943 L 34.3592 112.388 L 34.4868 112.658 L 34.658 113.061 L 34.8742 113.578 L 35.0427 113.964 L 35.2306 114.511 L 35.4792 115.291 L 35.5324 115.468 L 35.5733 115.621 L 35.7146 116.489 L 35.8637 117.434 L 35.8755 117.521 L 35.8829 117.568 L 35.9011 118.469 L 35.9343 118.769 L 35.9455 119.629 L 35.9374 119.721 L 35.9328 119.764 L 35.8294 120.719 L 35.7769 121.524 L 35.7574 121.698 L 35.7377 122.202 L 35.7127 122.697 L 35.7138 122.944 L 35.6626 123.685 L 35.6601 124.507 L 35.6415 124.66 L 35.5961 125.184 L 35.5381 125.8 L 35.5261 125.964 L 34.9056 126.819 L 34.8972 126.831 L 34.8908 126.828 L 34.1311 126.278 L 33.9891 125.916 L 33.8073 125.448 L 33.6996 125.167 L 33.4626 124.465 L 33.4079 124.284 L 33.0899 123.31 L 33.0446 123.153 L 32.7922 122.263 L 32.79 122.253 L 32.7502 122.107 L 32.5001 121.207 L 32.5001 121.207 L 32.4919 121.177 L 32.2672 120.217 L 32.1657 119.883 L 32.0229 119.263 L 31.7152 118.566 L 31.6296 118.281 L 31.3574 117.777 L 31.2009 117.529 L 31.0759 117.326 L 30.743 116.775 L 30.7206 116.16 L 30.5895 115.816 L 30.5571 115.189 L 30.6294 114.844 L 30.8197 113.931 L 30.8763 113.806 L 30.9588 113.533 L 31.1991 112.841 L 31.3145 112.444 L 31.7119 111.933 L 31.9888 111.527 L 32.5456 111.265 L 32.8251 111.111 L 33.1733 111.24" fill="none" stroke="#000000" stroke-width="0.05000" fill-rule="evenodd" fill-opacity="1.000"/>
    </g>
    <g class="thermal-contour" data-segment="1" data-name="CoreContour_Volume">
    <path d="M 41.2989 105.377 L 41.6207 105.469 L 42.0719 105.728 L 42.3696 106.011 L 42.7478 106.306 L 43.4133 106.958 L 43.5156 107.017 L 43.5955 107.045 L 44.5467 107.56 L 44.891 107.672 L 45.5057 107.892 L 46.1777 108.118 L 46.4636 108.247 L 47.1522 108.448 L 47.3577 108.522 L 48.3056 108.817 L 48.3215 108.823 L 48.3248 108.824 L 49.4929 109.22 L 49.5292 109.273 L 49.6312 109.328 L 50.2889 109.954 L 50.7959 110.126 L 50.9552 110.571 L 51.2899 111.194 L 51.4123 111.492 L 51.5267 111.736 L 51.1143 112.05 L 50.7402 112.345 L 50.0346 112.268 L 49.5249 112.359 L 48.8402 112.325 L 48.4374 112.36 L 47.5195 112.337 L 47.3026 112.338 L 46.4239 112.285 L 46.1935 112.267 L 46.1589 112.261 L 46.0838 112.249 L 45.19 112.097 L 44.5438 111.955 L 44.3261 111.885 L 44.1021 111.783 L 43.4692 111.52 L 42.7456 111.166 L 42.608 111.079 L 42.4457 110.978 L 41.7771 110.554 L 41.4854 110.384 L 40.8535 109.914 L 40.5054 109.645 L 40.1178 109.268 L 39.709 108.851 L 39.4197 108.569 L 38.863 107.783 L 38.8367 107.738 L 38.8333 107.721 L 38.5451 106.721 L 38.6081 106.542 L 38.8562 105.874 L 39.3647 105.54 L 39.6007 105.37 L 40.3629 105.232 L 40.5191 105.199 L 41.2989 105.377" fill="none" stroke="#000000" stroke-width="0.05000" fill-rule="evenodd" fill-opacity="1.000"/>
    </g>
    <g class="thermal-contour" data-segment="1" data-name="CoreContour_Volume">
    <path d="M 33.1103 111.43 L 33.5096 111.548 L 33.8836 112.066 L 34.186 112.49 L 34.3046 112.741 L 34.4657 113.119 L 34.6902 113.657 L 34.8561 114.037 L 35.0414 114.576 L 35.2886 115.352 L 35.3408 115.526 L 35.3773 115.663 L 35.5171 116.52 L 35.6661 117.465 L 35.6776 117.55 L 35.6831 117.585 L 35.7013 118.482 L 35.7343 118.782 L 35.7453 119.622 L 35.7386 119.7 L 35.734 119.743 L 35.6302 120.702 L 35.5775 121.506 L 35.5578 121.683 L 35.5379 122.192 L 35.5127 122.692 L 35.5136 122.936 L 35.4626 123.678 L 35.4601 124.494 L 35.4425 124.639 L 35.3969 125.165 L 35.3387 125.784 L 35.3307 125.893 L 34.8518 126.553 L 34.2957 126.15 L 34.1753 125.843 L 33.9937 125.376 L 33.8864 125.096 L 33.6537 124.406 L 33.5987 124.224 L 33.2801 123.248 L 33.2368 123.098 L 32.9862 122.215 L 32.9843 122.206 L 32.943 122.054 L 32.6927 121.153 L 32.686 121.129 L 32.4604 120.165 L 32.3586 119.83 L 32.2135 119.2 L 31.9032 118.496 L 31.8152 118.204 L 31.5302 117.676 L 31.375 117.431 L 31.2463 117.221 L 30.9408 116.715 L 30.9192 116.119 L 30.7876 115.775 L 30.7581 115.205 L 30.8252 114.885 L 31.0109 113.993 L 31.0639 113.877 L 31.1478 113.599 L 31.3897 112.902 L 31.4957 112.536 L 31.8737 112.051 L 32.1232 111.685 L 32.6364 111.443 L 32.8414 111.33 L 33.1103 111.43" fill="none" stroke="#000000" stroke-width="0.05000" fill-rule="evenodd" fill-opacity="1.000"/>
    <path d="M 32.6773 111.523 L 32.1838 111.756 L 31.9465 112.104 L 31.5772 112.578 L 31.4755 112.929 L 31.234 113.625 L 31.1483 113.908 L 31.0969 114.022 L 30.9133 114.903 L 30.8486 115.212 L 30.8767 115.756 L 31.0086 116.101 L 31.0298 116.689 L 31.3229 117.174 L 31.323 117.174 L 31.4517 117.383 L 31.4516 117.383 L 31.6079 117.63 L 31.8987 118.169 L 31.9879 118.466 L 32.2993 119.171 L 32.4456 119.807 L 32.5474 120.142 L 32.7727 121.105 L 32.7794 121.129 L 33.0298 122.03 L 33.0718 122.184 L 33.0734 122.192 L 33.3233 123.073 L 33.3657 123.22 L 33.6846 124.197 L 33.7395 124.379 L 33.9716 125.067 L 34.0775 125.343 L 34.0776 125.343 L 34.2591 125.81 L 34.3698 126.092 L 34.8317 126.427 L 35.2427 125.86 L 35.249 125.776 L 35.3073 125.157 L 35.353 124.63 L 35.3701 124.489 L 35.3726 123.675 L 35.4235 122.933 L 35.4227 122.69 L 35.448 122.188 L 35.468 121.676 L 35.4877 121.499 L 35.5405 120.694 L 35.6445 119.733 L 35.6491 119.69 L 35.6552 119.618 L 35.6443 118.787 L 35.6114 118.488 L 35.5932 117.592 L 35.5885 117.563 L 35.5769 117.478 L 35.5769 117.478 L 35.4282 116.534 L 35.4282 116.534 L 35.2893 115.682 L 35.2538 115.549 L 35.2024 115.378 L 35.2024 115.378 L 34.9563 114.606 L 34.7721 114.07 L 34.6074 113.692 L 34.3829 113.155 L 34.2232 112.779 L 34.1078 112.535 L 33.8106 112.118 L 33.8106 112.118 L 33.4545 111.625 L 33.0819 111.515 L 32.8487 111.429 L 32.6773 111.523" fill="none" stroke="#000000" stroke-width="0.05000" fill-rule="evenodd" fill-opacity="1.000"/>
    <path d="M 41.2511 105.572 L 41.5421 105.655 L 41.9513 105.89 L 42.239 106.163 L 42.6164 106.457 L 43.2911 107.118 L 43.4314 107.2 L 43.5145 107.229 L 44.4674 107.744 L 44.8268 107.862 L 45.4401 108.081 L 46.1047 108.304 L 46.3942 108.435 L 47.0906 108.638 L 47.2941 108.711 L 48.2412 109.007 L 48.2598 109.014 L 48.266 109.015 L 49.366 109.388 L 49.392 109.426 L 49.5124 109.491 L 50.1829 110.13 L 50.6403 110.285 L 50.772 110.652 L 51.1087 111.28 L 51.1822 111.458 L 51.1086 111.516 L 51.0273 111.318 L 50.6895 110.689 L 50.5702 110.356 L 50.1352 110.208 L 49.4589 109.564 L 49.3303 109.495 L 49.3089 109.464 L 48.2403 109.102 L 48.2322 109.1 L 48.2114 109.092 L 47.2655 108.797 L 47.0629 108.724 L 46.363 108.519 L 46.0716 108.388 L 45.4106 108.166 L 44.798 107.947 L 44.4317 107.827 L 43.4776 107.311 L 43.3935 107.282 L 43.2362 107.19 L 42.5568 106.525 L 42.1802 106.231 L 41.8973 105.962 L 41.5065 105.738 L 41.2289 105.659 L 40.5171 105.496 L 40.4191 105.517 L 39.717 105.643 L 39.5292 105.779 L 39.0947 106.064 L 38.8848 106.629 L 38.8847 106.629 L 38.8493 106.729 L 39.1083 107.628 L 39.6407 108.379 L 39.9138 108.646 L 40.3202 109.06 L 40.6951 109.425 L 41.0279 109.682 L 41.0278 109.682 L 41.6459 110.141 L 41.9279 110.306 L 42.6003 110.733 L 42.7617 110.833 L 42.8872 110.912 L 43.5891 111.255 L 44.2176 111.517 L 44.4297 111.613 L 44.6201 111.675 L 45.2455 111.812 L 46.1307 111.963 L 46.1308 111.963 L 46.2065 111.975 L 46.2287 111.979 L 46.4443 111.995 L 47.309 112.048 L 47.5224 112.047 L 48.4296 112.07 L 48.8349 112.035 L 49.5064 112.068 L 50.0245 111.975 L 50.4644 112.023 L 50.4392 112.043 L 50.1987 112.016 L 49.4308 112.154 L 48.8366 112.125 L 48.4324 112.16 L 47.5215 112.136 L 47.3072 112.138 L 46.4385 112.085 L 46.2177 112.068 L 46.1917 112.064 L 46.1162 112.052 L 45.228 111.9 L 44.5962 111.761 L 44.3975 111.697 L 44.1817 111.6 L 43.5525 111.338 L 42.8434 110.991 L 42.714 110.909 L 42.5529 110.809 L 41.8811 110.383 L 41.5963 110.217 L 40.9729 109.753 L 40.6362 109.493 L 40.2574 109.125 L 39.8502 108.709 L 39.5723 108.438 L 39.0307 107.674 L 39.0252 107.665 L 38.7549 106.727 L 38.8004 106.598 L 39.0206 106.005 L 39.4781 105.705 L 39.6809 105.558 L 40.4017 105.428 L 40.5177 105.404 L 41.2511 105.572" fill="none" stroke="#000000" stroke-width="0.05000" fill-rule="evenodd" fill-opacity="1.000"/>
    </g>
    <g class="thermal-contour" data-segment="2" data-name="CoreContour_Overhang">
    <path d="M 51.2291 111.572 L 51.2771 111.675 L 50.9919 111.892 L 50.6806 112.137 L 50.0276 112.066 L 49.5123 112.158 L 49.4308 112.154 L 50.1987 112.016 L 50.4392 112.043 L 50.4644 112.023 L 50.6539 112.043 L 50.9368 111.821 L 51.1648 111.647 L 51.1467 111.608 L 51.1086 111.516 L 51.1822 111.458 L 51.2291 111.572" fill="none" stroke="#8B0000" stroke-width="0.05000" fill-rule="evenodd" fill-opacity="1.000"/>
    </g>
    <g class="thermal-contour" data-segment="3" data-name="HollowShell1Contour_Volume">
    <path d="M 32.1182 119.232 L 32.2621 119.856 L 32.3638 120.191 L 32.589 121.154 L 32.5964 121.18 L 32.8466 122.08 L 32.8871 122.229 L 32.8892 122.239 L 33.1407 123.125 L 33.185 123.279 L 33.5033 124.254 L 33.5584 124.437 L 33.793 125.132 L 33.9005 125.412 L 34.0822 125.88 L 34.2134 126.214 L 34.5306 126.444 L 34.117 126.229 L 34.1162 126.228 L 34.116 126.228 L 33.8242 125.476 L 33.656 125.038 L 33.4785 124.512 L 33.3515 124.091 L 33.1423 123.45 L 33.0371 123.085 L 32.8365 122.378 L 32.7832 122.144 L 32.557 121.312 L 32.522 121.151 L 32.3263 120.247 L 32.2885 120.085 L 32.2763 120.045 L 32.0698 119.149 L 31.8925 118.747 L 31.8669 118.662 L 32.1182 119.232" fill="none" stroke="#0000CC" stroke-width="0.05000" fill-rule="evenodd" fill-opacity="1.000"/>
    <path d="M 33.1733 111.24 L 33.632 111.376 L 34.0422 111.943 L 34.3592 112.388 L 34.4868 112.658 L 34.658 113.061 L 34.8742 113.578 L 35.0427 113.965 L 35.2306 114.511 L 35.4792 115.291 L 35.5324 115.468 L 35.5733 115.621 L 35.7146 116.489 L 35.8637 117.434 L 35.8756 117.521 L 35.8829 117.568 L 35.9011 118.469 L 35.9343 118.769 L 35.9435 119.477 L 35.9246 119.693 L 35.888 120.035 L 35.8164 120.697 L 35.7801 121.254 L 35.7332 121.67 L 35.6963 122.618 L 35.6865 122.702 L 35.6811 122.813 L 35.6198 123.701 L 35.6182 124.26 L 35.5628 124.716 L 35.4747 125.732 L 35.4362 125.821 L 35.4384 125.792 L 35.4965 125.174 L 35.542 124.65 L 35.5601 124.5 L 35.5626 123.682 L 35.6137 122.94 L 35.6127 122.694 L 35.6378 122.197 L 35.6576 121.69 L 35.6772 121.515 L 35.7298 120.711 L 35.8334 119.753 L 35.838 119.711 L 35.8454 119.625 L 35.8343 118.775 L 35.8012 118.476 L 35.783 117.576 L 35.7766 117.535 L 35.7649 117.45 L 35.6158 116.504 L 35.6158 116.504 L 35.4753 115.642 L 35.4366 115.497 L 35.3839 115.321 L 35.136 114.544 L 34.9494 114.001 L 34.7822 113.617 L 34.5657 113.099 L 34.5657 113.099 L 34.3957 112.699 L 34.2726 112.439 L 33.9611 112.002 L 33.9611 112.002 L 33.5708 111.462 L 33.1418 111.335 L 32.8332 111.221 L 32.591 111.354 L 32.056 111.606 L 31.7928 111.992 L 31.4051 112.49 L 31.2944 112.872 L 31.0533 113.566 L 30.9701 113.841 L 30.9153 113.962 L 30.7273 114.865 L 30.6576 115.197 L 30.6886 115.796 L 30.8199 116.14 L 30.8228 116.219 L 30.6335 115.723 L 30.5963 115.002 L 30.6294 114.844 L 30.8197 113.931 L 30.8763 113.806 L 30.9588 113.533 L 31.1991 112.841 L 31.3145 112.444 L 31.7119 111.933 L 31.9888 111.527 L 32.5456 111.265 L 32.8251 111.111 L 33.1733 111.24" fill="none" stroke="#0000CC" stroke-width="0.05000" fill-rule="evenodd" fill-opacity="1.000"/>
    <path d="M 41.2989 105.377 L 41.6207 105.469 L 42.0719 105.728 L 42.3696 106.011 L 42.3737 106.014 L 42.5421 106.174 L 42.7137 106.308 L 43.0157 106.604 L 43.1053 106.656 L 43.4133 106.958 L 43.5156 107.017 L 43.5955 107.045 L 44.5467 107.56 L 44.891 107.672 L 45.5057 107.892 L 46.1777 108.118 L 46.4636 108.247 L 47.1522 108.448 L 47.3577 108.522 L 48.3056 108.817 L 48.3215 108.823 L 48.3248 108.824 L 49.461 109.209 L 49.5146 109.287 L 49.6847 109.379 L 49.9646 109.645 L 50.2889 109.954 L 50.632 110.071 L 50.6751 110.191 L 50.2359 110.042 L 49.5718 109.409 L 49.4606 109.349 L 49.4295 109.304 L 48.2957 108.92 L 48.2906 108.919 L 48.2732 108.912 L 47.3259 108.616 L 47.1214 108.543 L 46.4289 108.341 L 46.141 108.211 L 45.4729 107.987 L 44.8589 107.767 L 44.5071 107.652 L 43.5553 107.137 L 43.4735 107.108 L 43.3522 107.038 L 42.6821 106.381 L 42.3043 106.087 L 42.0116 105.809 L 41.5814 105.562 L 41.275 105.475 L 40.5184 105.301 L 40.3823 105.33 L 39.6408 105.464 L 39.4214 105.622 L 38.9384 105.939 L 38.7023 106.575 L 38.7024 106.575 L 38.65 106.724 L 38.9306 107.697 L 38.9315 107.702 L 38.947 107.729 L 39.496 108.504 L 39.7796 108.78 L 40.1876 109.196 L 40.5708 109.569 L 40.9132 109.834 L 41.5408 110.3 L 41.8291 110.468 L 42.4993 110.894 L 42.661 110.994 L 42.7947 111.078 L 43.5108 111.429 L 44.1419 111.691 L 44.3618 111.791 L 44.57 111.858 L 45.209 111.998 L 45.952 112.125 L 45.8391 112.117 L 45.1993 112.008 L 44.4619 111.846 L 44.3278 111.815 L 44.2333 111.789 L 43.4563 111.466 L 42.7656 111.128 L 42.5866 111.044 L 42.4299 110.968 L 41.7771 110.554 L 41.4854 110.384 L 40.8535 109.914 L 40.5054 109.645 L 40.1178 109.268 L 39.709 108.851 L 39.4197 108.569 L 38.863 107.783 L 38.8367 107.738 L 38.8333 107.721 L 38.5451 106.721 L 38.6081 106.542 L 38.8562 105.874 L 39.3647 105.54 L 39.6007 105.37 L 40.3629 105.232 L 40.5191 105.199 L 41.2989 105.377" fill="none" stroke="#0000CC" stroke-width="0.05000" fill-rule="evenodd" fill-opacity="1.000"/>
    </g>
    <g class="thermal-contour" data-segment="4" data-name="HollowShell1Contour_Overhang">
    <path d="M 35.9455 119.629 L 35.9374 119.721 L 35.9328 119.764 L 35.8294 120.719 L 35.7769 121.524 L 35.7574 121.698 L 35.7377 122.202 L 35.7127 122.697 L 35.7138 122.944 L 35.6626 123.686 L 35.6601 124.507 L 35.6415 124.66 L 35.5961 125.184 L 35.5381 125.8 L 35.5261 125.964 L 34.9056 126.819 L 34.8972 126.831 L 34.8908 126.828 L 34.1311 126.278 L 33.9891 125.916 L 33.8073 125.448 L 33.6996 125.167 L 33.656 125.038 L 33.8242 125.476 L 34.116 126.228 L 34.1162 126.228 L 34.117 126.229 L 34.5306 126.444 L 34.874 126.692 L 35.4284 125.928 L 35.4362 125.821 L 35.4747 125.732 L 35.5628 124.716 L 35.6182 124.26 L 35.6198 123.701 L 35.6811 122.813 L 35.6865 122.702 L 35.6963 122.618 L 35.7332 121.67 L 35.7801 121.254 L 35.8164 120.697 L 35.888 120.035 L 35.9246 119.693 L 35.9435 119.477 L 35.9455 119.629" fill="none" stroke="#000080" stroke-width="0.05000" fill-rule="evenodd" fill-opacity="1.000"/>
    <path d="M 30.6335 115.723 L 30.8228 116.219 L 30.8419 116.745 L 31.1611 117.274 L 31.2861 117.477 L 31.286 117.477 L 31.4438 117.726 L 31.7224 118.243 L 31.8092 118.531 L 31.8669 118.662 L 31.8925 118.747 L 32.0698 119.149 L 32.2763 120.045 L 32.2885 120.085 L 32.3263 120.247 L 32.522 121.151 L 32.557 121.312 L 32.7832 122.144 L 32.8365 122.378 L 33.0371 123.085 L 33.1423 123.45 L 33.3515 124.091 L 33.4785 124.512 L 33.4626 124.465 L 33.4079 124.284 L 33.0899 123.31 L 33.0446 123.153 L 32.7922 122.263 L 32.79 122.253 L 32.7502 122.107 L 32.5001 121.207 L 32.4919 121.177 L 32.2672 120.217 L 32.1657 119.883 L 32.0229 119.263 L 31.7152 118.566 L 31.6296 118.281 L 31.3574 117.777 L 31.2009 117.529 L 31.0759 117.326 L 30.743 116.775 L 30.7206 116.16 L 30.5895 115.816 L 30.5571 115.189 L 30.5963 115.002 L 30.6335 115.723" fill="none" stroke="#000080" stroke-width="0.05000" fill-rule="evenodd" fill-opacity="1.000"/>
    <path d="M 50.7959 110.126 L 50.9552 110.571 L 51.2899 111.194 L 51.4123 111.492 L 51.5267 111.737 L 51.1143 112.05 L 50.7402 112.345 L 50.0346 112.268 L 49.5249 112.359 L 48.8402 112.325 L 48.4374 112.36 L 47.5195 112.337 L 47.3026 112.338 L 46.4239 112.285 L 46.1935 112.267 L 46.1589 112.261 L 46.0838 112.249 L 45.19 112.097 L 44.5438 111.955 L 44.3261 111.885 L 44.1021 111.783 L 43.4692 111.52 L 42.7456 111.165 L 42.608 111.079 L 42.4457 110.978 L 42.4299 110.968 L 42.5866 111.044 L 42.7656 111.128 L 43.4563 111.466 L 44.2333 111.789 L 44.3278 111.815 L 44.4619 111.846 L 45.1993 112.008 L 45.8391 112.117 L 45.952 112.125 L 46.1 112.15 L 46.1754 112.163 L 46.206 112.168 L 46.4312 112.185 L 47.3049 112.238 L 47.5205 112.237 L 48.4349 112.26 L 48.8384 112.225 L 49.5186 112.259 L 50.0311 112.167 L 50.7104 112.241 L 51.0531 111.971 L 51.4019 111.706 L 51.3207 111.532 L 51.1993 111.237 L 50.8636 110.611 L 50.7181 110.205 L 50.6751 110.191 L 50.632 110.071 L 50.7959 110.126" fill="none" stroke="#000080" stroke-width="0.05000" fill-rule="evenodd" fill-opacity="1.000"/>
    <path d="M 49.4929 109.22 L 49.5292 109.273 L 49.6312 109.328 L 49.6847 109.379 L 49.5146 109.287 L 49.461 109.209 L 49.4929 109.22" fill="none" stroke="#000080" stroke-width="0.05000" fill-rule="evenodd" fill-opacity="1.000"/>
    <path d="M 42.7478 106.306 L 43.1053 106.656 L 43.0157 106.604 L 42.7137 106.308 L 42.5421 106.174 L 42.3737 106.014 L 42.7478 106.306" fill="none" stroke="#000080" stroke-width="0.05000" fill-rule="evenodd" fill-opacity="1.000"/>
    </g>
    <g class="thermal-contour" data-segment="5" data-name="HollowShell2Contour_Volume">
    <path d="M 33.1418 111.335 L 33.5708 111.462 L 33.9611 112.002 L 33.9611 112.002 L 34.2726 112.439 L 34.3957 112.699 L 34.5657 113.099 L 34.5657 113.099 L 34.7822 113.617 L 34.9494 114.001 L 35.136 114.544 L 35.3839 115.321 L 35.4366 115.497 L 35.4753 115.642 L 35.6158 116.504 L 35.6158 116.504 L 35.7649 117.45 L 35.7766 117.535 L 35.783 117.576 L 35.8012 118.476 L 35.8343 118.775 L 35.8454 119.625 L 35.838 119.711 L 35.8334 119.753 L 35.7298 120.711 L 35.6772 121.515 L 35.6576 121.69 L 35.6378 122.197 L 35.6127 122.694 L 35.6137 122.94 L 35.5626 123.682 L 35.5601 124.5 L 35.542 124.65 L 35.4965 125.174 L 35.4384 125.792 L 35.4362 125.821 L 35.4274 125.841 L 34.882 126.626 L 34.5306 126.444 L 34.2134 126.214 L 34.0822 125.88 L 33.9005 125.412 L 33.793 125.132 L 33.5584 124.437 L 33.5033 124.254 L 33.185 123.279 L 33.1407 123.125 L 32.8892 122.239 L 32.8871 122.229 L 32.8466 122.08 L 32.5964 121.18 L 32.589 121.154 L 32.3638 120.191 L 32.2621 119.856 L 32.1182 119.232 L 31.8669 118.662 L 31.7213 118.178 L 31.3759 117.538 L 31.3201 117.407 L 31.1951 117.185 L 30.8568 116.624 L 30.844 116.275 L 30.8228 116.219 L 30.8199 116.14 L 30.6886 115.796 L 30.6576 115.197 L 30.7273 114.865 L 30.9153 113.962 L 30.9701 113.841 L 31.0533 113.566 L 31.2944 112.872 L 31.4051 112.49 L 31.7928 111.992 L 32.056 111.606 L 32.591 111.354 L 32.8332 111.221 L 33.1418 111.335" fill="none" stroke="#B8860B" stroke-width="0.05000" fill-rule="evenodd" fill-opacity="1.000"/>
    <path d="M 32.6364 111.443 L 32.1232 111.685 L 31.8737 112.051 L 31.4957 112.536 L 31.3897 112.902 L 31.1478 113.599 L 31.0639 113.877 L 31.0109 113.993 L 30.8252 114.885 L 30.7581 115.205 L 30.7876 115.775 L 30.9192 116.119 L 30.9408 116.715 L 31.2463 117.221 L 31.375 117.431 L 31.5302 117.676 L 31.8152 118.204 L 31.9032 118.496 L 32.2135 119.2 L 32.3586 119.83 L 32.4604 120.165 L 32.686 121.129 L 32.6927 121.153 L 32.943 122.054 L 32.9843 122.206 L 32.9862 122.215 L 33.2368 123.098 L 33.2801 123.248 L 33.5987 124.224 L 33.6537 124.406 L 33.8864 125.096 L 33.9937 125.376 L 34.1753 125.843 L 34.2957 126.15 L 34.8518 126.553 L 35.3307 125.893 L 35.3387 125.784 L 35.3969 125.165 L 35.4425 124.639 L 35.4601 124.494 L 35.4626 123.678 L 35.5136 122.936 L 35.5127 122.692 L 35.5379 122.192 L 35.5578 121.683 L 35.5775 121.506 L 35.6302 120.702 L 35.734 119.743 L 35.7386 119.7 L 35.7453 119.622 L 35.7343 118.782 L 35.7013 118.482 L 35.6831 117.585 L 35.6776 117.55 L 35.6661 117.465 L 35.5171 116.52 L 35.3773 115.663 L 35.3408 115.526 L 35.2886 115.352 L 35.0414 114.576 L 34.8561 114.037 L 34.6902 113.657 L 34.4657 113.119 L 34.3046 112.741 L 34.186 112.49 L 33.8836 112.066 L 33.5096 111.548 L 33.1103 111.43 L 32.8414 111.33 L 32.6364 111.443" fill="none" stroke="#B8860B" stroke-width="0.05000" fill-rule="evenodd" fill-opacity="1.000"/>
    <path d="M 41.275 105.475 L 41.5814 105.562 L 42.0116 105.809 L 42.3043 106.087 L 42.6821 106.381 L 43.3522 107.038 L 43.4735 107.108 L 43.5553 107.137 L 44.5071 107.652 L 44.8589 107.767 L 45.4729 107.987 L 46.141 108.211 L 46.4289 108.341 L 47.1214 108.543 L 47.3259 108.616 L 48.2732 108.912 L 48.2906 108.919 L 48.2957 108.92 L 49.4295 109.304 L 49.4606 109.349 L 49.5718 109.409 L 50.2359 110.042 L 50.6751 110.191 L 50.8409 110.653 L 51.2461 111.408 L 51.1822 111.458 L 51.1087 111.28 L 50.772 110.652 L 50.6403 110.285 L 50.1829 110.13 L 49.5124 109.491 L 49.392 109.426 L 49.366 109.388 L 48.266 109.015 L 48.2598 109.014 L 48.2412 109.007 L 47.2941 108.711 L 47.0906 108.638 L 46.3942 108.435 L 46.1047 108.304 L 45.4401 108.081 L 44.8268 107.862 L 44.4674 107.744 L 43.5145 107.229 L 43.4314 107.2 L 43.2911 107.118 L 42.6164 106.457 L 42.239 106.163 L 41.9513 105.89 L 41.5421 105.655 L 41.2511 105.572 L 40.5177 105.404 L 40.4017 105.428 L 39.6809 105.558 L 39.4781 105.705 L 39.0206 106.005 L 38.8004 106.598 L 38.7549 106.727 L 39.0252 107.665 L 39.0307 107.674 L 39.5723 108.438 L 39.8502 108.709 L 40.2574 109.125 L 40.6362 109.493 L 40.9729 109.753 L 41.5963 110.217 L 41.8811 110.383 L 42.5529 110.809 L 42.714 110.909 L 42.8434 110.991 L 43.5525 111.338 L 44.1817 111.6 L 44.3975 111.697 L 44.5962 111.761 L 45.228 111.9 L 46.1162 112.052 L 46.1917 112.064 L 46.2177 112.068 L 46.4385 112.085 L 47.3072 112.138 L 47.5215 112.136 L 48.4324 112.16 L 48.8366 112.125 L 49.4308 112.154 L 49.3712 112.165 L 49.0179 112.147 L 48.2697 112.212 L 47.7494 112.199 L 47.1912 112.202 L 46.3599 112.152 L 46.1321 112.139 L 45.952 112.125 L 45.209 111.998 L 44.57 111.858 L 44.3618 111.791 L 44.1419 111.691 L 43.5108 111.429 L 42.7947 111.078 L 42.661 110.994 L 42.4993 110.894 L 41.8291 110.468 L 41.5408 110.3 L 40.9132 109.834 L 40.5708 109.569 L 40.1876 109.196 L 39.7796 108.78 L 39.496 108.504 L 38.947 107.729 L 38.9315 107.702 L 38.9306 107.697 L 38.65 106.724 L 38.7024 106.575 L 38.7023 106.575 L 38.9384 105.939 L 39.4214 105.622 L 39.6408 105.464 L 40.3823 105.33 L 40.5184 105.301 L 41.275 105.475" fill="none" stroke="#B8860B" stroke-width="0.05000" fill-rule="evenodd" fill-opacity="1.000"/>
    </g>
    <g class="thermal-contour" data-segment="6" data-name="HollowShell2Contour_Overhang">
    <path d="M 35.4284 125.928 L 34.874 126.692 L 34.5306 126.444 L 34.882 126.626 L 35.4274 125.841 L 35.4362 125.821 L 35.4284 125.928" fill="none" stroke="#006400" stroke-width="0.05000" fill-rule="evenodd" fill-opacity="1.000"/>
    <path d="M 30.844 116.275 L 30.8568 116.624 L 31.1951 117.185 L 31.3201 117.407 L 31.3759 117.538 L 31.7213 118.178 L 31.8669 118.662 L 31.8092 118.531 L 31.7224 118.243 L 31.4438 117.726 L 31.286 117.477 L 31.2861 117.477 L 31.1611 117.274 L 30.8419 116.745 L 30.8228 116.219 L 30.844 116.275" fill="none" stroke="#006400" stroke-width="0.05000" fill-rule="evenodd" fill-opacity="1.000"/>
    <path d="M 50.7181 110.205 L 50.8636 110.611 L 51.1993 111.237 L 51.3207 111.532 L 51.4019 111.706 L 51.0531 111.971 L 50.7104 112.241 L 50.0311 112.167 L 49.5186 112.259 L 48.8384 112.225 L 48.4349 112.26 L 47.5205 112.237 L 47.3049 112.238 L 46.4312 112.185 L 46.206 112.168 L 46.1754 112.163 L 46.1 112.15 L 45.952 112.125 L 46.1321 112.139 L 46.3599 112.152 L 47.1912 112.202 L 47.7494 112.199 L 48.2697 112.212 L 49.0179 112.147 L 49.3712 112.165 L 49.4308 112.154 L 49.5123 112.158 L 50.0276 112.066 L 50.6806 112.137 L 50.9919 111.892 L 51.2771 111.675 L 51.2291 111.572 L 51.1822 111.458 L 51.2461 111.408 L 50.8409 110.653 L 50.6751 110.191 L 50.7181 110.205" fill="none" stroke="#006400" stroke-width="0.05000" fill-rule="evenodd" fill-opacity="1.000"/>
    </g>
    <g class="thermal-contour" data-segment="9" data-name="CoreContourHatch">
    <path d="M 33.0899 111.489 L 33.471 111.602 L 33.8209 112.087 L 33.8211 112.087 L 34.1312 112.521 L 34.2478 112.768 L 34.4078 113.144 L 34.6321 113.681 L 34.6322 113.681 L 34.7973 114.06 L 34.9819 114.597 L 35.2283 115.37 L 35.2798 115.541 L 35.3157 115.677 L 35.4549 116.53 L 35.6037 117.474 L 35.6152 117.558 L 35.6202 117.59 L 35.6383 118.487 L 35.6713 118.786 L 35.6822 119.619 L 35.676 119.693 L 35.6713 119.736 L 35.5673 120.697 L 35.5146 121.501 L 35.495 121.677 L 35.475 122.189 L 35.4497 122.691 L 35.4505 122.934 L 35.3996 123.675 L 35.3971 124.49 L 35.3798 124.633 L 35.3342 125.159 L 35.2759 125.779 L 35.2691 125.87 L 34.8377 126.465 L 34.3476 126.11 L 34.2339 125.82 L 34.0591 125.37 L 34.0589 125.37 L 33.9462 125.076 L 33.7138 124.387 L 33.6587 124.205 L 33.6587 124.204 L 33.3399 123.228 L 33.2973 123.08 L 33.0472 122.199 L 33.0457 122.191 L 33.0037 122.037 L 33.0037 122.037 L 32.7534 121.136 L 32.7465 121.112 L 32.5211 120.148 L 32.5211 120.148 L 32.4195 119.814 L 32.2735 119.18 L 31.9625 118.475 L 31.8735 118.18 L 31.5841 117.643 L 31.4026 117.356 L 31.4034 117.356 L 31.3079 117.201 L 31.3077 117.201 L 31.0031 116.697 L 30.9817 116.106 L 30.85 115.761 L 30.8215 115.21 L 30.8869 114.898 L 31.0711 114.013 L 31.123 113.898 L 31.2083 113.617 L 31.45 112.92 L 31.5527 112.566 L 31.9252 112.088 L 32.1656 111.734 L 32.6642 111.499 L 32.8465 111.399 L 33.0899 111.489" fill="none" stroke="#800080" stroke-width="0.05000" fill-rule="evenodd" fill-opacity="1.000"/>
    <path d="M 32.6773 111.523 L 32.1838 111.756 L 31.9465 112.104 L 31.5772 112.578 L 31.4755 112.929 L 31.234 113.625 L 31.1483 113.908 L 31.0969 114.022 L 30.9133 114.903 L 30.8486 115.212 L 30.8767 115.756 L 31.0086 116.101 L 31.0298 116.689 L 31.3229 117.174 L 31.323 117.174 L 31.4517 117.383 L 31.4516 117.383 L 31.6079 117.63 L 31.8987 118.169 L 31.9879 118.466 L 32.2993 119.171 L 32.4456 119.807 L 32.5474 120.142 L 32.7727 121.105 L 32.7794 121.129 L 33.0298 122.03 L 33.0718 122.184 L 33.0734 122.192 L 33.3233 123.073 L 33.3657 123.22 L 33.6846 124.197 L 33.7395 124.379 L 33.9716 125.067 L 34.0775 125.343 L 34.0776 125.343 L 34.2591 125.81 L 34.3698 126.092 L 34.8317 126.427 L 35.2427 125.86 L 35.249 125.776 L 35.3073 125.157 L 35.353 124.63 L 35.3701 124.489 L 35.3726 123.675 L 35.4235 122.933 L 35.4227 122.69 L 35.448 122.188 L 35.468 121.676 L 35.4877 121.499 L 35.5405 120.694 L 35.6445 119.733 L 35.6491 119.69 L 35.6552 119.618 L 35.6443 118.787 L 35.6114 118.488 L 35.5932 117.592 L 35.5885 117.563 L 35.5769 117.478 L 35.5769 117.478 L 35.4282 116.534 L 35.4282 116.534 L 35.2893 115.682 L 35.2538 115.549 L 35.2024 115.378 L 35.2024 115.378 L 34.9563 114.606 L 34.7721 114.07 L 34.6074 113.692 L 34.3829 113.155 L 34.2232 112.779 L 34.1078 112.535 L 33.8106 112.118 L 33.8106 112.118 L 33.4545 111.625 L 33.0819 111.515 L 32.8487 111.429 L 32.6773 111.523" fill="none" stroke="#800080" stroke-width="0.05000" fill-rule="evenodd" fill-opacity="1.000"/>
    <path d="M 41.2356 105.633 L 41.5171 105.713 L 41.9135 105.94 L 42.1979 106.211 L 42.5746 106.504 L 43.2527 107.169 L 43.4047 107.257 L 43.4886 107.286 L 44.4418 107.802 L 44.8067 107.921 L 45.4191 108.141 L 45.4192 108.141 L 46.0815 108.363 L 46.3723 108.494 L 47.0713 108.698 L 47.2735 108.771 L 48.2202 109.066 L 48.2407 109.074 L 48.248 109.076 L 49.326 109.441 L 49.3488 109.474 L 49.4749 109.542 L 50.1494 110.185 L 50.5912 110.334 L 50.7141 110.677 L 51.0517 111.307 L 51.1307 111.498 L 51.1086 111.516 L 51.0273 111.318 L 50.6895 110.689 L 50.5702 110.356 L 50.1352 110.208 L 49.4589 109.564 L 49.3303 109.495 L 49.3089 109.464 L 48.2403 109.102 L 48.2322 109.1 L 48.2114 109.092 L 47.2655 108.797 L 47.0629 108.724 L 46.363 108.519 L 46.0716 108.388 L 45.4106 108.166 L 44.798 107.947 L 44.4317 107.827 L 43.4776 107.311 L 43.3935 107.282 L 43.2362 107.19 L 42.5568 106.525 L 42.1802 106.231 L 41.8973 105.962 L 41.5065 105.738 L 41.2289 105.659 L 40.5171 105.496 L 40.4191 105.517 L 39.717 105.643 L 39.5292 105.779 L 39.0947 106.064 L 38.8848 106.629 L 38.8847 106.629 L 38.8493 106.729 L 39.1083 107.628 L 39.6407 108.379 L 39.9138 108.646 L 40.3202 109.06 L 40.6951 109.425 L 41.0279 109.682 L 41.0278 109.682 L 41.6459 110.141 L 41.9279 110.306 L 42.6003 110.733 L 42.7617 110.833 L 42.8872 110.912 L 43.5891 111.255 L 44.2176 111.517 L 44.4297 111.613 L 44.6201 111.675 L 45.2455 111.812 L 46.1307 111.963 L 46.1308 111.963 L 46.2065 111.975 L 46.2287 111.979 L 46.4443 111.995 L 47.309 112.048 L 47.5224 112.047 L 48.4296 112.07 L 48.8349 112.035 L 49.5064 112.068 L 50.0245 111.975 L 50.4644 112.023 L 50.4392 112.043 L 50.1987 112.016 L 50.1831 112.019 L 50.0256 112.002 L 49.5081 112.095 L 48.8351 112.062 L 48.4304 112.096 L 47.5218 112.074 L 47.3083 112.075 L 46.4425 112.022 L 46.2254 112.006 L 46.2019 112.002 L 46.2019 112.002 L 46.1288 111.99 L 46.1284 111.99 L 45.2403 111.838 L 44.613 111.701 L 44.42 111.638 L 44.2072 111.542 L 43.578 111.28 L 42.874 110.936 L 42.7475 110.856 L 42.7475 110.856 L 42.586 110.756 L 41.9134 110.329 L 41.9134 110.329 L 41.631 110.164 L 40.996 109.692 L 40.9961 109.691 L 40.6774 109.446 L 40.3011 109.079 L 39.8945 108.664 L 39.8945 108.664 L 39.6201 108.397 L 39.0836 107.64 L 38.821 106.729 L 38.8735 106.58 L 38.8741 106.58 L 39.0725 106.046 L 39.5144 105.756 L 39.7062 105.618 L 40.4143 105.49 L 40.5173 105.468 L 41.2356 105.633" fill="none" stroke="#800080" stroke-width="0.05000" fill-rule="evenodd" fill-opacity="1.000"/>
    </g>
    <g class="thermal-contour" data-segment="20" data-name="CoreContourHatchOverhang">
    <path d="M 51.1712 111.597 L 51.1984 111.656 L 50.9532 111.842 L 50.9531 111.842 L 50.6619 112.071 L 50.1831 112.019 L 50.1987 112.016 L 50.4392 112.043 L 50.4644 112.023 L 50.6539 112.043 L 50.9368 111.821 L 51.1648 111.647 L 51.1467 111.608 L 51.1086 111.516 L 51.1307 111.498 L 51.1712 111.597" fill="none" stroke="#E64A19" stroke-width="0.05000" fill-rule="evenodd" fill-opacity="1.000"/>
    </g>
    <!-- ===== Thermal Segment Colour Legend ===== -->
    <g id="thermal-legend">
    <rect x="161.0000" y="5.0000" width="40.0000" height="72.0000"
          rx="1" ry="1"
          fill="#fafafa" stroke="#cccccc" stroke-width="0.15"/>
    <text x="181.0000" y="7.6000" font-family="sans-serif" font-size="2.2000" font-weight="bold" fill="#222222" text-anchor="middle">Thermal Segments</text>
    <line x1="161.5000" y1="8.7000" x2="200.5000" y2="8.7000" stroke="#bbbbbb" stroke-width="0.1"/>
    <rect x="161.8000" y="9.0000" width="3.5000" height="2.0000" fill="#000000" stroke="#333333" stroke-width="0.08" rx="0.3" ry="0.3"/>
    <text x="168.6000" y="10.9000" font-family="monospace" font-size="1.6000" fill="#444444" text-anchor="end"> 1</text>
    <text x="169.6000" y="10.9000" font-family="sans-serif" font-size="1.6000" fill="#111111">CoreContour_Volume</text>
    <rect x="161.8000" y="12.0000" width="3.5000" height="2.0000" fill="#8B0000" stroke="#333333" stroke-width="0.08" rx="0.3" ry="0.3"/>
    <text x="168.6000" y="13.9000" font-family="monospace" font-size="1.6000" fill="#444444" text-anchor="end"> 2</text>
    <text x="169.6000" y="13.9000" font-family="sans-serif" font-size="1.6000" fill="#111111">CoreContour_Overhang</text>
    <rect x="161.8000" y="15.0000" width="3.5000" height="2.0000" fill="#0000CC" stroke="#333333" stroke-width="0.08" rx="0.3" ry="0.3"/>
    <text x="168.6000" y="16.9000" font-family="monospace" font-size="1.6000" fill="#444444" text-anchor="end"> 3</text>
    <text x="169.6000" y="16.9000" font-family="sans-serif" font-size="1.6000" fill="#111111">Shell1Contour_Volume</text>
    <rect x="161.8000" y="18.0000" width="3.5000" height="2.0000" fill="#000080" stroke="#333333" stroke-width="0.08" rx="0.3" ry="0.3"/>
    <text x="168.6000" y="19.9000" font-family="monospace" font-size="1.6000" fill="#444444" text-anchor="end"> 4</text>
    <text x="169.6000" y="19.9000" font-family="sans-serif" font-size="1.6000" fill="#111111">Shell1Contour_Overhang</text>
    <rect x="161.8000" y="21.0000" width="3.5000" height="2.0000" fill="#B8860B" stroke="#333333" stroke-width="0.08" rx="0.3" ry="0.3"/>
    <text x="168.6000" y="22.9000" font-family="monospace" font-size="1.6000" fill="#444444" text-anchor="end"> 5</text>
    <text x="169.6000" y="22.9000" font-family="sans-serif" font-size="1.6000" fill="#111111">Shell2Contour_Volume</text>
    <rect x="161.8000" y="24.0000" width="3.5000" height="2.0000" fill="#006400" stroke="#333333" stroke-width="0.08" rx="0.3" ry="0.3"/>
    <text x="168.6000" y="25.9000" font-family="monospace" font-size="1.6000" fill="#444444" text-anchor="end"> 6</text>
    <text x="169.6000" y="25.9000" font-family="sans-serif" font-size="1.6000" fill="#111111">Shell2Contour_Overhang</text>
    <rect x="161.8000" y="27.0000" width="3.5000" height="2.0000" fill="#FF8C00" stroke="#333333" stroke-width="0.08" rx="0.3" ry="0.3"/>
    <text x="168.6000" y="28.9000" font-family="monospace" font-size="1.6000" fill="#444444" text-anchor="end"> 7</text>
    <text x="169.6000" y="28.9000" font-family="sans-serif" font-size="1.6000" fill="#111111">CoreOverhangHatch</text>
    <rect x="161.8000" y="30.0000" width="3.5000" height="2.0000" fill="#228B22" stroke="#333333" stroke-width="0.08" rx="0.3" ry="0.3"/>
    <text x="168.6000" y="31.9000" font-family="monospace" font-size="1.6000" fill="#444444" text-anchor="end"> 8</text>
    <text x="169.6000" y="31.9000" font-family="sans-serif" font-size="1.6000" fill="#111111">CoreNormalHatch</text>
    <rect x="161.8000" y="33.0000" width="3.5000" height="2.0000" fill="#800080" stroke="#333333" stroke-width="0.08" rx="0.3" ry="0.3"/>
    <text x="168.6000" y="34.9000" font-family="monospace" font-size="1.6000" fill="#444444" text-anchor="end"> 9</text>
    <text x="169.6000" y="34.9000" font-family="sans-serif" font-size="1.6000" fill="#111111">CoreContourHatch</text>
    <rect x="161.8000" y="36.0000" width="3.5000" height="2.0000" fill="#FF69B4" stroke="#333333" stroke-width="0.08" rx="0.3" ry="0.3"/>
    <text x="168.6000" y="37.9000" font-family="monospace" font-size="1.6000" fill="#444444" text-anchor="end">10</text>
    <text x="169.6000" y="37.9000" font-family="sans-serif" font-size="1.6000" fill="#111111">Shell1OverhangHatch</text>
    <rect x="161.8000" y="39.0000" width="3.5000" height="2.0000" fill="#00CED1" stroke="#333333" stroke-width="0.08" rx="0.3" ry="0.3"/>
    <text x="168.6000" y="40.9000" font-family="monospace" font-size="1.6000" fill="#444444" text-anchor="end">11</text>
    <text x="169.6000" y="40.9000" font-family="sans-serif" font-size="1.6000" fill="#111111">Shell1NormalHatch</text>
    <rect x="161.8000" y="42.0000" width="3.5000" height="2.0000" fill="#FF00FF" stroke="#333333" stroke-width="0.08" rx="0.3" ry="0.3"/>
    <text x="168.6000" y="43.9000" font-family="monospace" font-size="1.6000" fill="#444444" text-anchor="end">12</text>
    <text x="169.6000" y="43.9000" font-family="sans-serif" font-size="1.6000" fill="#111111">Shell1ContourHatch</text>
    <rect x="161.8000" y="45.0000" width="3.5000" height="2.0000" fill="#A52A2A" stroke="#333333" stroke-width="0.08" rx="0.3" ry="0.3"/>
    <text x="168.6000" y="46.9000" font-family="monospace" font-size="1.6000" fill="#444444" text-anchor="end">13</text>
    <text x="169.6000" y="46.9000" font-family="sans-serif" font-size="1.6000" fill="#111111">Shell2OverhangHatch</text>
    <rect x="161.8000" y="48.0000" width="3.5000" height="2.0000" fill="#808080" stroke="#333333" stroke-width="0.08" rx="0.3" ry="0.3"/>
    <text x="168.6000" y="49.9000" font-family="monospace" font-size="1.6000" fill="#444444" text-anchor="end">14</text>
    <text x="169.6000" y="49.9000" font-family="sans-serif" font-size="1.6000" fill="#111111">Shell2NormalHatch</text>
    <rect x="161.8000" y="51.0000" width="3.5000" height="2.0000" fill="#32CD32" stroke="#333333" stroke-width="0.08" rx="0.3" ry="0.3"/>
    <text x="168.6000" y="52.9000" font-family="monospace" font-size="1.6000" fill="#444444" text-anchor="end">15</text>
    <text x="169.6000" y="52.9000" font-family="sans-serif" font-size="1.6000" fill="#111111">Shell2ContourHatch</text>
    <rect x="161.8000" y="54.0000" width="3.5000" height="2.0000" fill="#1A237E" stroke="#333333" stroke-width="0.08" rx="0.3" ry="0.3"/>
    <text x="168.6000" y="55.9000" font-family="monospace" font-size="1.6000" fill="#444444" text-anchor="end">16</text>
    <text x="169.6000" y="55.9000" font-family="sans-serif" font-size="1.6000" fill="#111111">SupportContourVolume</text>
    <rect x="161.8000" y="57.0000" width="3.5000" height="2.0000" fill="#827717" stroke="#333333" stroke-width="0.08" rx="0.3" ry="0.3"/>
    <text x="168.6000" y="58.9000" font-family="monospace" font-size="1.6000" fill="#444444" text-anchor="end">17</text>
    <text x="169.6000" y="58.9000" font-family="sans-serif" font-size="1.6000" fill="#111111">SupportHatch</text>
    <rect x="161.8000" y="60.0000" width="3.5000" height="2.0000" fill="#006064" stroke="#333333" stroke-width="0.08" rx="0.3" ry="0.3"/>
    <text x="168.6000" y="61.9000" font-family="monospace" font-size="1.6000" fill="#444444" text-anchor="end">18</text>
    <text x="169.6000" y="61.9000" font-family="sans-serif" font-size="1.6000" fill="#111111">PointSequence</text>
    <rect x="161.8000" y="63.0000" width="3.5000" height="2.0000" fill="#B71C1C" stroke="#333333" stroke-width="0.08" rx="0.3" ry="0.3"/>
    <text x="168.6000" y="64.9000" font-family="monospace" font-size="1.6000" fill="#444444" text-anchor="end">19</text>
    <text x="169.6000" y="64.9000" font-family="sans-serif" font-size="1.6000" fill="#111111">ExternalSupports</text>
    <rect x="161.8000" y="66.0000" width="3.5000" height="2.0000" fill="#E64A19" stroke="#333333" stroke-width="0.08" rx="0.3" ry="0.3"/>
    <text x="168.6000" y="67.9000" font-family="monospace" font-size="1.6000" fill="#444444" text-anchor="end">20</text>
    <text x="169.6000" y="67.9000" font-family="sans-serif" font-size="1.6000" fill="#111111">CoreContourHatchOverhang</text>
    <rect x="161.8000" y="69.0000" width="3.5000" height="2.0000" fill="#311B92" stroke="#333333" stroke-width="0.08" rx="0.3" ry="0.3"/>
    <text x="168.6000" y="70.9000" font-family="monospace" font-size="1.6000" fill="#444444" text-anchor="end">21</text>
    <text x="169.6000" y="70.9000" font-family="sans-serif" font-size="1.6000" fill="#111111">Shell1ContourHatchOverhang</text>
    <rect x="161.8000" y="72.0000" width="3.5000" height="2.0000" fill="#880E4F" stroke="#333333" stroke-width="0.08" rx="0.3" ry="0.3"/>
    <text x="168.6000" y="73.9000" font-family="monospace" font-size="1.6000" fill="#444444" text-anchor="end">22</text>
    <text x="169.6000" y="73.9000" font-family="sans-serif" font-size="1.6000" fill="#111111">Shell2ContourHatchOverhang</text>
    </g>
  </g>
</svg>
