<?xml version="1.0" encoding="UTF-8" standalone="yes"?>
<svg xmlns="http://www.w3.org/2000/svg"
     xmlns:xlink="http://www.w3.org/1999/xlink"
     width="2020.0000mm" height="1600.0000mm"
     viewBox="0 0 202.000000 160.000000">
  <!--
    Build plate : 150.00 x 150.00 mm
    Coordinate  : 1 SVG unit = 1 mm
    Display zoom: 10x  (width/height = viewBox x 10)
    Hatch stroke: 0.04 mm = ~28 mm on screen at this zoom
    Legend panel: right margin (42 mm wide)
  -->
  <defs>
    <marker id="endArrow" markerWidth="2" markerHeight="1.4"
            refX="0" refY="0.7" orient="auto"
            markerUnits="strokeWidth">
      <polyline fill="darkblue" points="0,0 2,0.7 0,1.4 0.2,0.7"/>
    </marker>
  </defs>
  <!-- Background -->
  <rect x="0" y="0" width="202.000000" height="160.000000" fill="#f0f0f0" stroke="none"/>
  <!-- Build plate boundary (150 x 150 mm) -->
  <rect x="5.000000" y="5.000000" width="150.000000" height="150.000000"
        fill="#ffffff" stroke="#aaaaaa" stroke-width="0.2" stroke-dasharray="1,0.5"/>
  <!-- Build plate centre circle (r = 75.00 mm) -->
  <circle cx="80.000000" cy="80.000000" r="75.000000"
          fill="none" stroke="#bbbbbb" stroke-width="0.15" stroke-dasharray="0.8,0.4"/>
  <!-- Centre cross-hair -->
  <line x1="5.000000" y1="80.000000" x2="155.000000" y2="80.000000" stroke="#cccccc" stroke-width="0.1"/>
  <line x1="80.000000" y1="5.000000" x2="80.000000" y2="155.000000" stroke="#cccccc" stroke-width="0.1"/>
  <circle cx="80.000000" cy="80.000000" r="0.3" fill="#cccccc" stroke="none"/>
  <!-- Corner labels -->
  <text x="5.400000" y="4.600000" font-family="sans-serif" font-size="2" fill="#888888">0,0</text>
  <text x="154.600006" y="4.600000" font-family="sans-serif" font-size="2" fill="#888888" text-anchor="end">150,0</text>
  <text x="5.400000" y="157.199997" font-family="sans-serif" font-size="2" fill="#888888">0,150</text>
  <!-- Layer geometry -->
  <g id="geometry">
    <g class="thermal-hatch" data-segment="8" data-name="CoreNormalHatch">
      <line x1="72.20519" y1="96.50000" x2="72.14317" y2="95.31644" stroke="#228B22" stroke-width="0.04000"/>
      <line x1="72.30534" y1="96.50000" x2="72.14317" y2="93.40564" stroke="#228B22" stroke-width="0.04000"/>
      <line x1="72.40547" y1="96.50000" x2="72.14317" y2="91.49490" stroke="#228B22" stroke-width="0.04000"/>
      <line x1="72.50561" y1="96.50000" x2="72.14317" y2="89.58420" stroke="#228B22" stroke-width="0.04000"/>
      <line x1="72.60574" y1="96.50000" x2="72.14317" y2="87.67349" stroke="#228B22" stroke-width="0.04000"/>
      <line x1="72.70588" y1="96.50000" x2="72.14317" y2="85.76272" stroke="#228B22" stroke-width="0.04000"/>
      <line x1="72.80602" y1="96.50000" x2="72.14317" y2="83.85195" stroke="#228B22" stroke-width="0.04000"/>
      <line x1="72.90616" y1="96.50000" x2="72.14317" y2="81.94125" stroke="#228B22" stroke-width="0.04000"/>
      <line x1="73.00629" y1="96.50000" x2="72.14317" y2="80.03056" stroke="#228B22" stroke-width="0.04000"/>
      <line x1="73.10643" y1="96.50000" x2="72.14317" y2="78.11979" stroke="#228B22" stroke-width="0.04000"/>
      <line x1="73.20657" y1="96.50000" x2="72.14317" y2="76.20901" stroke="#228B22" stroke-width="0.04000"/>
      <line x1="73.30670" y1="96.50000" x2="72.14317" y2="74.29832" stroke="#228B22" stroke-width="0.04000"/>
      <line x1="73.40684" y1="96.50000" x2="72.14317" y2="72.38761" stroke="#228B22" stroke-width="0.04000"/>
      <line x1="73.50698" y1="96.50000" x2="72.14317" y2="70.47685" stroke="#228B22" stroke-width="0.04000"/>
      <line x1="73.60712" y1="96.50000" x2="72.14317" y2="68.56616" stroke="#228B22" stroke-width="0.04000"/>
      <line x1="73.70725" y1="96.50000" x2="72.14317" y2="66.65536" stroke="#228B22" stroke-width="0.04000"/>
      <line x1="73.80739" y1="96.50000" x2="72.14317" y2="64.74467" stroke="#228B22" stroke-width="0.04000"/>
      <line x1="73.90752" y1="96.50000" x2="72.14317" y2="62.83397" stroke="#228B22" stroke-width="0.04000"/>
      <line x1="74.00767" y1="96.50000" x2="72.17339" y2="61.50000" stroke="#228B22" stroke-width="0.04000"/>
      <line x1="74.10780" y1="96.50000" x2="72.27354" y2="61.50000" stroke="#228B22" stroke-width="0.04000"/>
      <line x1="74.20794" y1="96.50000" x2="72.37366" y2="61.50000" stroke="#228B22" stroke-width="0.04000"/>
      <line x1="74.30807" y1="96.50000" x2="72.47380" y2="61.50000" stroke="#228B22" stroke-width="0.04000"/>
      <line x1="74.40822" y1="96.50000" x2="72.57394" y2="61.50000" stroke="#228B22" stroke-width="0.04000"/>
      <line x1="74.50835" y1="96.50000" x2="72.67408" y2="61.50000" stroke="#228B22" stroke-width="0.04000"/>
      <line x1="74.60849" y1="96.50000" x2="72.77422" y2="61.50000" stroke="#228B22" stroke-width="0.04000"/>
      <line x1="74.70863" y1="96.50000" x2="72.87435" y2="61.50000" stroke="#228B22" stroke-width="0.04000"/>
      <line x1="74.80877" y1="96.50000" x2="72.97449" y2="61.50000" stroke="#228B22" stroke-width="0.04000"/>
      <line x1="74.90891" y1="96.50000" x2="73.07463" y2="61.50000" stroke="#228B22" stroke-width="0.04000"/>
      <line x1="75.00904" y1="96.50000" x2="73.17477" y2="61.50000" stroke="#228B22" stroke-width="0.04000"/>
      <line x1="75.10918" y1="96.50000" x2="73.27490" y2="61.50000" stroke="#228B22" stroke-width="0.04000"/>
      <line x1="75.20931" y1="96.50000" x2="73.37504" y2="61.50000" stroke="#228B22" stroke-width="0.04000"/>
      <line x1="75.30945" y1="96.50000" x2="73.47518" y2="61.50000" stroke="#228B22" stroke-width="0.04000"/>
      <line x1="75.40958" y1="96.50000" x2="73.57532" y2="61.50000" stroke="#228B22" stroke-width="0.04000"/>
      <line x1="75.50972" y1="96.50000" x2="73.67545" y2="61.50000" stroke="#228B22" stroke-width="0.04000"/>
      <line x1="75.60986" y1="96.50000" x2="73.77559" y2="61.50000" stroke="#228B22" stroke-width="0.04000"/>
      <line x1="75.71000" y1="96.50000" x2="73.87572" y2="61.50000" stroke="#228B22" stroke-width="0.04000"/>
      <line x1="75.81013" y1="96.50000" x2="73.97587" y2="61.50000" stroke="#228B22" stroke-width="0.04000"/>
      <line x1="75.91027" y1="96.50000" x2="74.07600" y2="61.50000" stroke="#228B22" stroke-width="0.04000"/>
      <line x1="76.01041" y1="96.50000" x2="74.17613" y2="61.50000" stroke="#228B22" stroke-width="0.04000"/>
      <line x1="76.11055" y1="96.50000" x2="74.27628" y2="61.50000" stroke="#228B22" stroke-width="0.04000"/>
      <line x1="76.21069" y1="96.50000" x2="74.37641" y2="61.50000" stroke="#228B22" stroke-width="0.04000"/>
      <line x1="76.31082" y1="96.50000" x2="74.47655" y2="61.50000" stroke="#228B22" stroke-width="0.04000"/>
      <line x1="76.41096" y1="96.50000" x2="74.57668" y2="61.50000" stroke="#228B22" stroke-width="0.04000"/>
      <line x1="76.51110" y1="96.50000" x2="74.67683" y2="61.50000" stroke="#228B22" stroke-width="0.04000"/>
      <line x1="76.61124" y1="96.50000" x2="74.77696" y2="61.50000" stroke="#228B22" stroke-width="0.04000"/>
      <line x1="76.71137" y1="96.50000" x2="74.87710" y2="61.50000" stroke="#228B22" stroke-width="0.04000"/>
      <line x1="76.81151" y1="96.50000" x2="74.97723" y2="61.50000" stroke="#228B22" stroke-width="0.04000"/>
      <line x1="76.91165" y1="96.50000" x2="75.07737" y2="61.50000" stroke="#228B22" stroke-width="0.04000"/>
      <line x1="77.01179" y1="96.50000" x2="75.17751" y2="61.50000" stroke="#228B22" stroke-width="0.04000"/>
      <line x1="77.11192" y1="96.50000" x2="75.27765" y2="61.50000" stroke="#228B22" stroke-width="0.04000"/>
      <line x1="77.21206" y1="96.50000" x2="75.37778" y2="61.50000" stroke="#228B22" stroke-width="0.04000"/>
      <line x1="77.31219" y1="96.50000" x2="75.47792" y2="61.50000" stroke="#228B22" stroke-width="0.04000"/>
      <line x1="77.41233" y1="96.50000" x2="75.57806" y2="61.50000" stroke="#228B22" stroke-width="0.04000"/>
      <line x1="77.51247" y1="96.50000" x2="75.67820" y2="61.50000" stroke="#228B22" stroke-width="0.04000"/>
      <line x1="77.61260" y1="96.50000" x2="75.77834" y2="61.50000" stroke="#228B22" stroke-width="0.04000"/>
      <line x1="77.71274" y1="96.50000" x2="75.87847" y2="61.50000" stroke="#228B22" stroke-width="0.04000"/>
      <line x1="77.81288" y1="96.50000" x2="75.97861" y2="61.50000" stroke="#228B22" stroke-width="0.04000"/>
      <line x1="77.91302" y1="96.50000" x2="76.07875" y2="61.50000" stroke="#228B22" stroke-width="0.04000"/>
      <line x1="78.01315" y1="96.50000" x2="76.17889" y2="61.50000" stroke="#228B22" stroke-width="0.04000"/>
      <line x1="78.11329" y1="96.50000" x2="76.27901" y2="61.50000" stroke="#228B22" stroke-width="0.04000"/>
      <line x1="78.21343" y1="96.50000" x2="76.37916" y2="61.50000" stroke="#228B22" stroke-width="0.04000"/>
      <line x1="78.31357" y1="96.50000" x2="76.47929" y2="61.50000" stroke="#228B22" stroke-width="0.04000"/>
      <line x1="78.41370" y1="96.50000" x2="76.57943" y2="61.50000" stroke="#228B22" stroke-width="0.04000"/>
      <line x1="78.51384" y1="96.50000" x2="76.67957" y2="61.50000" stroke="#228B22" stroke-width="0.04000"/>
      <line x1="78.61398" y1="96.50000" x2="76.77971" y2="61.50000" stroke="#228B22" stroke-width="0.04000"/>
      <line x1="78.71412" y1="96.50000" x2="76.87984" y2="61.50000" stroke="#228B22" stroke-width="0.04000"/>
      <line x1="78.81425" y1="96.50000" x2="76.97998" y2="61.50000" stroke="#228B22" stroke-width="0.04000"/>
      <line x1="78.91439" y1="96.50000" x2="77.08012" y2="61.50000" stroke="#228B22" stroke-width="0.04000"/>
      <line x1="79.01453" y1="96.50000" x2="77.18025" y2="61.50000" stroke="#228B22" stroke-width="0.04000"/>
      <line x1="79.11467" y1="96.50000" x2="77.28040" y2="61.50000" stroke="#228B22" stroke-width="0.04000"/>
      <line x1="79.21481" y1="96.50000" x2="77.38053" y2="61.50000" stroke="#228B22" stroke-width="0.04000"/>
      <line x1="79.31494" y1="96.50000" x2="77.48067" y2="61.50000" stroke="#228B22" stroke-width="0.04000"/>
      <line x1="79.41508" y1="96.50000" x2="77.58080" y2="61.50000" stroke="#228B22" stroke-width="0.04000"/>
      <line x1="79.51521" y1="96.50000" x2="77.68094" y2="61.50000" stroke="#228B22" stroke-width="0.04000"/>
      <line x1="79.61535" y1="96.50000" x2="77.78108" y2="61.50000" stroke="#228B22" stroke-width="0.04000"/>
      <line x1="79.71548" y1="96.50000" x2="77.88122" y2="61.50000" stroke="#228B22" stroke-width="0.04000"/>
      <line x1="79.81562" y1="96.50000" x2="77.98135" y2="61.50000" stroke="#228B22" stroke-width="0.04000"/>
      <line x1="79.91576" y1="96.50000" x2="78.08149" y2="61.50000" stroke="#228B22" stroke-width="0.04000"/>
      <line x1="80.01590" y1="96.50000" x2="78.18163" y2="61.50000" stroke="#228B22" stroke-width="0.04000"/>
      <line x1="80.11604" y1="96.50000" x2="78.28177" y2="61.50000" stroke="#228B22" stroke-width="0.04000"/>
      <line x1="80.21617" y1="96.50000" x2="78.38190" y2="61.50000" stroke="#228B22" stroke-width="0.04000"/>
      <line x1="80.31631" y1="96.50000" x2="78.48204" y2="61.50000" stroke="#228B22" stroke-width="0.04000"/>
      <line x1="80.41645" y1="96.50000" x2="78.58218" y2="61.50000" stroke="#228B22" stroke-width="0.04000"/>
      <line x1="80.51659" y1="96.50000" x2="78.68231" y2="61.50000" stroke="#228B22" stroke-width="0.04000"/>
      <line x1="80.61672" y1="96.50000" x2="78.78245" y2="61.50000" stroke="#228B22" stroke-width="0.04000"/>
      <line x1="80.71687" y1="96.50000" x2="78.88259" y2="61.50000" stroke="#228B22" stroke-width="0.04000"/>
      <line x1="80.81700" y1="96.50000" x2="78.98273" y2="61.50000" stroke="#228B22" stroke-width="0.04000"/>
      <line x1="80.91714" y1="96.50000" x2="79.08286" y2="61.50000" stroke="#228B22" stroke-width="0.04000"/>
      <line x1="81.01727" y1="96.50000" x2="79.18300" y2="61.50000" stroke="#228B22" stroke-width="0.04000"/>
      <line x1="81.11741" y1="96.50000" x2="79.28313" y2="61.50000" stroke="#228B22" stroke-width="0.04000"/>
      <line x1="81.21755" y1="96.50000" x2="79.38328" y2="61.50000" stroke="#228B22" stroke-width="0.04000"/>
      <line x1="81.31768" y1="96.50000" x2="79.48341" y2="61.50000" stroke="#228B22" stroke-width="0.04000"/>
      <line x1="81.41782" y1="96.50000" x2="79.58355" y2="61.50000" stroke="#228B22" stroke-width="0.04000"/>
      <line x1="81.51795" y1="96.50000" x2="79.68369" y2="61.50000" stroke="#228B22" stroke-width="0.04000"/>
      <line x1="81.61810" y1="96.50000" x2="79.78382" y2="61.50000" stroke="#228B22" stroke-width="0.04000"/>
      <line x1="81.71823" y1="96.50000" x2="79.88396" y2="61.50000" stroke="#228B22" stroke-width="0.04000"/>
      <line x1="81.81837" y1="96.50000" x2="79.98410" y2="61.50000" stroke="#228B22" stroke-width="0.04000"/>
      <line x1="81.91850" y1="96.50000" x2="80.08424" y2="61.50000" stroke="#228B22" stroke-width="0.04000"/>
      <line x1="82.01865" y1="96.50000" x2="80.18437" y2="61.50000" stroke="#228B22" stroke-width="0.04000"/>
      <line x1="82.11878" y1="96.50000" x2="80.28452" y2="61.50000" stroke="#228B22" stroke-width="0.04000"/>
      <line x1="82.21892" y1="96.50000" x2="80.38465" y2="61.50000" stroke="#228B22" stroke-width="0.04000"/>
      <line x1="82.31905" y1="96.50000" x2="80.48478" y2="61.50000" stroke="#228B22" stroke-width="0.04000"/>
      <line x1="82.41920" y1="96.50000" x2="80.58492" y2="61.50000" stroke="#228B22" stroke-width="0.04000"/>
      <line x1="82.51933" y1="96.50000" x2="80.68506" y2="61.50000" stroke="#228B22" stroke-width="0.04000"/>
      <line x1="82.61947" y1="96.50000" x2="80.78519" y2="61.50000" stroke="#228B22" stroke-width="0.04000"/>
      <line x1="82.71960" y1="96.50000" x2="80.88533" y2="61.50000" stroke="#228B22" stroke-width="0.04000"/>
      <line x1="82.81974" y1="96.50000" x2="80.98547" y2="61.50000" stroke="#228B22" stroke-width="0.04000"/>
      <line x1="82.91988" y1="96.50000" x2="81.08561" y2="61.50000" stroke="#228B22" stroke-width="0.04000"/>
      <line x1="83.02002" y1="96.50000" x2="81.18575" y2="61.50000" stroke="#228B22" stroke-width="0.04000"/>
      <line x1="83.12016" y1="96.50000" x2="81.28588" y2="61.50000" stroke="#228B22" stroke-width="0.04000"/>
      <line x1="83.22029" y1="96.50000" x2="81.38602" y2="61.50000" stroke="#228B22" stroke-width="0.04000"/>
      <line x1="83.32043" y1="96.50000" x2="81.48615" y2="61.50000" stroke="#228B22" stroke-width="0.04000"/>
      <line x1="83.42057" y1="96.50000" x2="81.58630" y2="61.50000" stroke="#228B22" stroke-width="0.04000"/>
      <line x1="83.52070" y1="96.50000" x2="81.68643" y2="61.50000" stroke="#228B22" stroke-width="0.04000"/>
      <line x1="83.62083" y1="96.50000" x2="81.78657" y2="61.50000" stroke="#228B22" stroke-width="0.04000"/>
      <line x1="83.72098" y1="96.50000" x2="81.88670" y2="61.50000" stroke="#228B22" stroke-width="0.04000"/>
      <line x1="83.82111" y1="96.50000" x2="81.98685" y2="61.50000" stroke="#228B22" stroke-width="0.04000"/>
      <line x1="83.92125" y1="96.50000" x2="82.08698" y2="61.50000" stroke="#228B22" stroke-width="0.04000"/>
      <line x1="84.02139" y1="96.50000" x2="82.18712" y2="61.50000" stroke="#228B22" stroke-width="0.04000"/>
      <line x1="84.12153" y1="96.50000" x2="82.28725" y2="61.50000" stroke="#228B22" stroke-width="0.04000"/>
      <line x1="84.22166" y1="96.50000" x2="82.38740" y2="61.50000" stroke="#228B22" stroke-width="0.04000"/>
      <line x1="84.32180" y1="96.50000" x2="82.48753" y2="61.50000" stroke="#228B22" stroke-width="0.04000"/>
      <line x1="84.42194" y1="96.50000" x2="82.58766" y2="61.50000" stroke="#228B22" stroke-width="0.04000"/>
      <line x1="84.52208" y1="96.50000" x2="82.68781" y2="61.50000" stroke="#228B22" stroke-width="0.04000"/>
      <line x1="84.62222" y1="96.50000" x2="82.78794" y2="61.50000" stroke="#228B22" stroke-width="0.04000"/>
      <line x1="84.72235" y1="96.50000" x2="82.88808" y2="61.50000" stroke="#228B22" stroke-width="0.04000"/>
      <line x1="84.82249" y1="96.50000" x2="82.98821" y2="61.50000" stroke="#228B22" stroke-width="0.04000"/>
      <line x1="84.92262" y1="96.50000" x2="83.08835" y2="61.50000" stroke="#228B22" stroke-width="0.04000"/>
      <line x1="85.02277" y1="96.50000" x2="83.18849" y2="61.50000" stroke="#228B22" stroke-width="0.04000"/>
      <line x1="85.12290" y1="96.50000" x2="83.28863" y2="61.50000" stroke="#228B22" stroke-width="0.04000"/>
      <line x1="85.22304" y1="96.50000" x2="83.38876" y2="61.50000" stroke="#228B22" stroke-width="0.04000"/>
      <line x1="85.32317" y1="96.50000" x2="83.48890" y2="61.50000" stroke="#228B22" stroke-width="0.04000"/>
      <line x1="85.42331" y1="96.50000" x2="83.58904" y2="61.50000" stroke="#228B22" stroke-width="0.04000"/>
      <line x1="85.52345" y1="96.50000" x2="83.68918" y2="61.50000" stroke="#228B22" stroke-width="0.04000"/>
      <line x1="85.62358" y1="96.50000" x2="83.78931" y2="61.50000" stroke="#228B22" stroke-width="0.04000"/>
      <line x1="85.72372" y1="96.50000" x2="83.88945" y2="61.50000" stroke="#228B22" stroke-width="0.04000"/>
      <line x1="85.82386" y1="96.50000" x2="83.98959" y2="61.50000" stroke="#228B22" stroke-width="0.04000"/>
      <line x1="85.92400" y1="96.50000" x2="84.08973" y2="61.50000" stroke="#228B22" stroke-width="0.04000"/>
      <line x1="86.02413" y1="96.50000" x2="84.18987" y2="61.50000" stroke="#228B22" stroke-width="0.04000"/>
      <line x1="86.12427" y1="96.50000" x2="84.29000" y2="61.50000" stroke="#228B22" stroke-width="0.04000"/>
      <line x1="86.22441" y1="96.50000" x2="84.39014" y2="61.50000" stroke="#228B22" stroke-width="0.04000"/>
      <line x1="86.32455" y1="96.50000" x2="84.49027" y2="61.50000" stroke="#228B22" stroke-width="0.04000"/>
      <line x1="86.42468" y1="96.50000" x2="84.59041" y2="61.50000" stroke="#228B22" stroke-width="0.04000"/>
      <line x1="86.52482" y1="96.50000" x2="84.69054" y2="61.50000" stroke="#228B22" stroke-width="0.04000"/>
      <line x1="86.62496" y1="96.50000" x2="84.79069" y2="61.50000" stroke="#228B22" stroke-width="0.04000"/>
      <line x1="86.72510" y1="96.50000" x2="84.89082" y2="61.50000" stroke="#228B22" stroke-width="0.04000"/>
      <line x1="86.82523" y1="96.50000" x2="84.99096" y2="61.50000" stroke="#228B22" stroke-width="0.04000"/>
      <line x1="86.92537" y1="96.50000" x2="85.09109" y2="61.50000" stroke="#228B22" stroke-width="0.04000"/>
      <line x1="87.02551" y1="96.50000" x2="85.19123" y2="61.50000" stroke="#228B22" stroke-width="0.04000"/>
      <line x1="87.12564" y1="96.50000" x2="85.29137" y2="61.50000" stroke="#228B22" stroke-width="0.04000"/>
      <line x1="87.22578" y1="96.50000" x2="85.39151" y2="61.50000" stroke="#228B22" stroke-width="0.04000"/>
      <line x1="87.32592" y1="96.50000" x2="85.49165" y2="61.50000" stroke="#228B22" stroke-width="0.04000"/>
      <line x1="87.42605" y1="96.50000" x2="85.59178" y2="61.50000" stroke="#228B22" stroke-width="0.04000"/>
      <line x1="87.52619" y1="96.50000" x2="85.69192" y2="61.50000" stroke="#228B22" stroke-width="0.04000"/>
      <line x1="87.62633" y1="96.50000" x2="85.79206" y2="61.50000" stroke="#228B22" stroke-width="0.04000"/>
      <line x1="87.72646" y1="96.50000" x2="85.89220" y2="61.50000" stroke="#228B22" stroke-width="0.04000"/>
      <line x1="87.82660" y1="96.50000" x2="85.99233" y2="61.50000" stroke="#228B22" stroke-width="0.04000"/>
      <line x1="87.85683" y1="95.16606" x2="86.09247" y2="61.50000" stroke="#228B22" stroke-width="0.04000"/>
      <line x1="87.85683" y1="93.25533" x2="86.19261" y2="61.50000" stroke="#228B22" stroke-width="0.04000"/>
      <line x1="87.85683" y1="91.34463" x2="86.29275" y2="61.50000" stroke="#228B22" stroke-width="0.04000"/>
      <line x1="87.85683" y1="89.43392" x2="86.39288" y2="61.50000" stroke="#228B22" stroke-width="0.04000"/>
      <line x1="87.85683" y1="87.52314" x2="86.49302" y2="61.50000" stroke="#228B22" stroke-width="0.04000"/>
      <line x1="87.85683" y1="85.61239" x2="86.59315" y2="61.50000" stroke="#228B22" stroke-width="0.04000"/>
      <line x1="87.85683" y1="83.70168" x2="86.69329" y2="61.50000" stroke="#228B22" stroke-width="0.04000"/>
      <line x1="87.85683" y1="81.79099" x2="86.79343" y2="61.50000" stroke="#228B22" stroke-width="0.04000"/>
      <line x1="87.85683" y1="79.88021" x2="86.89356" y2="61.50000" stroke="#228B22" stroke-width="0.04000"/>
      <line x1="87.85683" y1="77.96944" x2="86.99371" y2="61.50000" stroke="#228B22" stroke-width="0.04000"/>
      <line x1="87.85683" y1="76.05875" x2="87.09384" y2="61.50000" stroke="#228B22" stroke-width="0.04000"/>
      <line x1="87.85683" y1="74.14805" x2="87.19398" y2="61.50000" stroke="#228B22" stroke-width="0.04000"/>
      <line x1="87.85683" y1="72.23728" x2="87.29411" y2="61.50000" stroke="#228B22" stroke-width="0.04000"/>
      <line x1="87.85683" y1="70.32659" x2="87.39425" y2="61.50000" stroke="#228B22" stroke-width="0.04000"/>
      <line x1="87.85683" y1="68.41580" x2="87.49439" y2="61.50000" stroke="#228B22" stroke-width="0.04000"/>
      <line x1="87.85683" y1="66.50510" x2="87.59453" y2="61.50000" stroke="#228B22" stroke-width="0.04000"/>
      <line x1="87.85683" y1="64.59441" x2="87.69466" y2="61.50000" stroke="#228B22" stroke-width="0.04000"/>
      <line x1="87.85683" y1="62.68366" x2="87.79480" y2="61.50000" stroke="#228B22" stroke-width="0.04000"/>
    </g>
    <g class="thermal-hatch" data-segment="8" data-name="CoreNormalHatch">
      <line x1="87.56680" y1="96.21000" x2="72.43320" y2="96.21000" stroke="#228B22" stroke-width="0.04000"/>
      <line x1="72.43320" y1="96.21000" x2="72.43320" y2="61.79000" stroke="#228B22" stroke-width="0.04000"/>
      <line x1="72.43320" y1="61.79000" x2="87.56680" y2="61.79000" stroke="#228B22" stroke-width="0.04000"/>
      <line x1="87.56680" y1="61.79000" x2="87.56680" y2="96.21000" stroke="#228B22" stroke-width="0.04000"/>
    </g>
    <g class="thermal-contour" data-segment="1" data-name="CoreContour_Volume">
    <path d="M 87.8568 96.5 L 72.1432 96.5 L 72.1432 61.5 L 87.8568 61.5 L 87.8568 96.5" fill="none" stroke="#000000" stroke-width="0.05000" fill-rule="evenodd" fill-opacity="1.000"/>
    </g>
    <g class="thermal-contour" data-segment="1" data-name="CoreContour_Volume">
    <path d="M 87.6568 96.3 L 72.3432 96.3 L 72.3432 61.7 L 87.6568 61.7 L 87.6568 96.3" fill="none" stroke="#000000" stroke-width="0.05000" fill-rule="evenodd" fill-opacity="1.000"/>
    <path d="M 72.4332 96.21 L 87.5668 96.21 L 87.5668 61.79 L 72.4332 61.79 L 72.4332 96.21" fill="none" stroke="#000000" stroke-width="0.05000" fill-rule="evenodd" fill-opacity="1.000"/>
    </g>
    <g class="thermal-contour" data-segment="9" data-name="CoreContourHatch">
    <path d="M 87.5938 96.237 L 72.4062 96.237 L 72.4062 61.763 L 87.5938 61.763 L 87.5938 96.237" fill="none" stroke="#800080" stroke-width="0.05000" fill-rule="evenodd" fill-opacity="1.000"/>
    <path d="M 72.4332 96.21 L 87.5668 96.21 L 87.5668 61.79 L 72.4332 61.79 L 72.4332 96.21" fill="none" stroke="#800080" stroke-width="0.05000" fill-rule="evenodd" fill-opacity="1.000"/>
    </g>
    <g class="thermal-contour" data-segment="3" data-name="HollowShell1Contour_Volume">
    <path d="M 87.8568 96.5 L 72.1432 96.5 L 72.1432 61.5 L 87.8568 61.5 L 87.8568 96.5" fill="none" stroke="#0000CC" stroke-width="0.05000" fill-rule="evenodd" fill-opacity="1.000"/>
    <path d="M 72.2432 96.4 L 87.7568 96.4 L 87.7568 61.6 L 72.2432 61.6 L 72.2432 96.4" fill="none" stroke="#0000CC" stroke-width="0.05000" fill-rule="evenodd" fill-opacity="1.000"/>
    </g>
    <g class="thermal-contour" data-segment="5" data-name="HollowShell2Contour_Volume">
    <path d="M 87.7568 96.4 L 72.2432 96.4 L 72.2432 61.6 L 87.7568 61.6 L 87.7568 96.4" fill="none" stroke="#B8860B" stroke-width="0.05000" fill-rule="evenodd" fill-opacity="1.000"/>
    <path d="M 72.3432 96.3 L 87.6568 96.3 L 87.6568 61.7 L 72.3432 61.7 L 72.3432 96.3" fill="none" stroke="#B8860B" stroke-width="0.05000" fill-rule="evenodd" fill-opacity="1.000"/>
    </g>
    <!-- ===== Thermal Segment Colour Legend ===== -->
    <g id="thermal-legend">
    <rect x="161.0000" y="5.0000" width="40.0000" height="72.0000"
          rx="1" ry="1"
          fill="#fafafa" stroke="#cccccc" stroke-width="0.15"/>
    <text x="181.0000" y="7.6000" font-family="sans-serif" font-size="2.2000" font-weight="bold" fill="#222222" text-anchor="middle">Thermal Segments</text>
    <line x1="161.5000" y1="8.7000" x2="200.5000" y2="8.7000" stroke="#bbbbbb" stroke-width="0.1"/>
    <rect x="161.8000" y="9.0000" width="3.5000" height="2.0000" fill="#000000" stroke="#333333" stroke-width="0.08" rx="0.3" ry="0.3"/>
    <text x="168.6000" y="10.9000" font-family="monospace" font-size="1.6000" fill="#444444" text-anchor="end"> 1</text>
    <text x="169.6000" y="10.9000" font-family="sans-serif" font-size="1.6000" fill="#111111">CoreContour_Volume</text>
    <rect x="161.8000" y="12.0000" width="3.5000" height="2.0000" fill="#8B0000" stroke="#333333" stroke-width="0.08" rx="0.3" ry="0.3"/>
    <text x="168.6000" y="13.9000" font-family="monospace" font-size="1.6000" fill="#444444" text-anchor="end"> 2</text>
    <text x="169.6000" y="13.9000" font-family="sans-serif" font-size="1.6000" fill="#111111">CoreContour_Overhang</text>
    <rect x="161.8000" y="15.0000" width="3.5000" height="2.0000" fill="#0000CC" stroke="#333333" stroke-width="0.08" rx="0.3" ry="0.3"/>
    <text x="168.6000" y="16.9000" font-family="monospace" font-size="1.6000" fill="#444444" text-anchor="end"> 3</text>
    <text x="169.6000" y="16.9000" font-family="sans-serif" font-size="1.6000" fill="#111111">Shell1Contour_Volume</text>
    <rect x="161.8000" y="18.0000" width="3.5000" height="2.0000" fill="#000080" stroke="#333333" stroke-width="0.08" rx="0.3" ry="0.3"/>
    <text x="168.6000" y="19.9000" font-family="monospace" font-size="1.6000" fill="#444444" text-anchor="end"> 4</text>
    <text x="169.6000" y="19.9000" font-family="sans-serif" font-size="1.6000" fill="#111111">Shell1Contour_Overhang</text>
    <rect x="161.8000" y="21.0000" width="3.5000" height="2.0000" fill="#B8860B" stroke="#333333" stroke-width="0.08" rx="0.3" ry="0.3"/>
    <text x="168.6000" y="22.9000" font-family="monospace" font-size="1.6000" fill="#444444" text-anchor="end"> 5</text>
    <text x="169.6000" y="22.9000" font-family="sans-serif" font-size="1.6000" fill="#111111">Shell2Contour_Volume</text>
    <rect x="161.8000" y="24.0000" width="3.5000" height="2.0000" fill="#006400" stroke="#333333" stroke-width="0.08" rx="0.3" ry="0.3"/>
    <text x="168.6000" y="25.9000" font-family="monospace" font-size="1.6000" fill="#444444" text-anchor="end"> 6</text>
    <text x="169.6000" y="25.9000" font-family="sans-serif" font-size="1.6000" fill="#111111">Shell2Contour_Overhang</text>
    <rect x="161.8000" y="27.0000" width="3.5000" height="2.0000" fill="#FF8C00" stroke="#333333" stroke-width="0.08" rx="0.3" ry="0.3"/>
    <text x="168.6000" y="28.9000" font-family="monospace" font-size="1.6000" fill="#444444" text-anchor="end"> 7</text>
    <text x="169.6000" y="28.9000" font-family="sans-serif" font-size="1.6000" fill="#111111">CoreOverhangHatch</text>
    <rect x="161.8000" y="30.0000" width="3.5000" height="2.0000" fill="#228B22" stroke="#333333" stroke-width="0.08" rx="0.3" ry="0.3"/>
    <text x="168.6000" y="31.9000" font-family="monospace" font-size="1.6000" fill="#444444" text-anchor="end"> 8</text>
    <text x="169.6000" y="31.9000" font-family="sans-serif" font-size="1.6000" fill="#111111">CoreNormalHatch</text>
    <rect x="161.8000" y="33.0000" width="3.5000" height="2.0000" fill="#800080" stroke="#333333" stroke-width="0.08" rx="0.3" ry="0.3"/>
    <text x="168.6000" y="34.9000" font-family="monospace" font-size="1.6000" fill="#444444" text-anchor="end"> 9</text>
    <text x="169.6000" y="34.9000" font-family="sans-serif" font-size="1.6000" fill="#111111">CoreContourHatch</text>
    <rect x="161.8000" y="36.0000" width="3.5000" height="2.0000" fill="#FF69B4" stroke="#333333" stroke-width="0.08" rx="0.3" ry="0.3"/>
    <text x="168.6000" y="37.9000" font-family="monospace" font-size="1.6000" fill="#444444" text-anchor="end">10</text>
    <text x="169.6000" y="37.9000" font-family="sans-serif" font-size="1.6000" fill="#111111">Shell1OverhangHatch</text>
    <rect x="161.8000" y="39.0000" width="3.5000" height="2.0000" fill="#00CED1" stroke="#333333" stroke-width="0.08" rx="0.3" ry="0.3"/>
    <text x="168.6000" y="40.9000" font-family="monospace" font-size="1.6000" fill="#444444" text-anchor="end">11</text>
    <text x="169.6000" y="40.9000" font-family="sans-serif" font-size="1.6000" fill="#111111">Shell1NormalHatch</text>
    <rect x="161.8000" y="42.0000" width="3.5000" height="2.0000" fill="#FF00FF" stroke="#333333" stroke-width="0.08" rx="0.3" ry="0.3"/>
    <text x="168.6000" y="43.9000" font-family="monospace" font-size="1.6000" fill="#444444" text-anchor="end">12</text>
    <text x="169.6000" y="43.9000" font-family="sans-serif" font-size="1.6000" fill="#111111">Shell1ContourHatch</text>
    <rect x="161.8000" y="45.0000" width="3.5000" height="2.0000" fill="#A52A2A" stroke="#333333" stroke-width="0.08" rx="0.3" ry="0.3"/>
    <text x="168.6000" y="46.9000" font-family="monospace" font-size="1.6000" fill="#444444" text-anchor="end">13</text>
    <text x="169.6000" y="46.9000" font-family="sans-serif" font-size="1.6000" fill="#111111">Shell2OverhangHatch</text>
    <rect x="161.8000" y="48.0000" width="3.5000" height="2.0000" fill="#808080" stroke="#333333" stroke-width="0.08" rx="0.3" ry="0.3"/>
    <text x="168.6000" y="49.9000" font-family="monospace" font-size="1.6000" fill="#444444" text-anchor="end">14</text>
    <text x="169.6000" y="49.9000" font-family="sans-serif" font-size="1.6000" fill="#111111">Shell2NormalHatch</text>
    <rect x="161.8000" y="51.0000" width="3.5000" height="2.0000" fill="#32CD32" stroke="#333333" stroke-width="0.08" rx="0.3" ry="0.3"/>
    <text x="168.6000" y="52.9000" font-family="monospace" font-size="1.6000" fill="#444444" text-anchor="end">15</text>
    <text x="169.6000" y="52.9000" font-family="sans-serif" font-size="1.6000" fill="#111111">Shell2ContourHatch</text>
    <rect x="161.8000" y="54.0000" width="3.5000" height="2.0000" fill="#1A237E" stroke="#333333" stroke-width="0.08" rx="0.3" ry="0.3"/>
    <text x="168.6000" y="55.9000" font-family="monospace" font-size="1.6000" fill="#444444" text-anchor="end">16</text>
    <text x="169.6000" y="55.9000" font-family="sans-serif" font-size="1.6000" fill="#111111">SupportContourVolume</text>
    <rect x="161.8000" y="57.0000" width="3.5000" height="2.0000" fill="#827717" stroke="#333333" stroke-width="0.08" rx="0.3" ry="0.3"/>
    <text x="168.6000" y="58.9000" font-family="monospace" font-size="1.6000" fill="#444444" text-anchor="end">17</text>
    <text x="169.6000" y="58.9000" font-family="sans-serif" font-size="1.6000" fill="#111111">SupportHatch</text>
    <rect x="161.8000" y="60.0000" width="3.5000" height="2.0000" fill="#006064" stroke="#333333" stroke-width="0.08" rx="0.3" ry="0.3"/>
    <text x="168.6000" y="61.9000" font-family="monospace" font-size="1.6000" fill="#444444" text-anchor="end">18</text>
    <text x="169.6000" y="61.9000" font-family="sans-serif" font-size="1.6000" fill="#111111">PointSequence</text>
    <rect x="161.8000" y="63.0000" width="3.5000" height="2.0000" fill="#B71C1C" stroke="#333333" stroke-width="0.08" rx="0.3" ry="0.3"/>
    <text x="168.6000" y="64.9000" font-family="monospace" font-size="1.6000" fill="#444444" text-anchor="end">19</text>
    <text x="169.6000" y="64.9000" font-family="sans-serif" font-size="1.6000" fill="#111111">ExternalSupports</text>
    <rect x="161.8000" y="66.0000" width="3.5000" height="2.0000" fill="#E64A19" stroke="#333333" stroke-width="0.08" rx="0.3" ry="0.3"/>
    <text x="168.6000" y="67.9000" font-family="monospace" font-size="1.6000" fill="#444444" text-anchor="end">20</text>
    <text x="169.6000" y="67.9000" font-family="sans-serif" font-size="1.6000" fill="#111111">CoreContourHatchOverhang</text>
    <rect x="161.8000" y="69.0000" width="3.5000" height="2.0000" fill="#311B92" stroke="#333333" stroke-width="0.08" rx="0.3" ry="0.3"/>
    <text x="168.6000" y="70.9000" font-family="monospace" font-size="1.6000" fill="#444444" text-anchor="end">21</text>
    <text x="169.6000" y="70.9000" font-family="sans-serif" font-size="1.6000" fill="#111111">Shell1ContourHatchOverhang</text>
    <rect x="161.8000" y="72.0000" width="3.5000" height="2.0000" fill="#880E4F" stroke="#333333" stroke-width="0.08" rx="0.3" ry="0.3"/>
    <text x="168.6000" y="73.9000" font-family="monospace" font-size="1.6000" fill="#444444" text-anchor="end">22</text>
    <text x="169.6000" y="73.9000" font-family="sans-serif" font-size="1.6000" fill="#111111">Shell2ContourHatchOverhang</text>
    </g>
  </g>
</svg>
