<?xml version="1.0" encoding="UTF-8" standalone="yes"?>
<svg xmlns="http://www.w3.org/2000/svg"
     xmlns:xlink="http://www.w3.org/1999/xlink"
     width="2020.0000mm" height="1600.0000mm"
     viewBox="0 0 202.000000 160.000000">
  <!--
    Build plate : 150.00 x 150.00 mm
    Coordinate  : 1 SVG unit = 1 mm
    Display zoom: 10x  (width/height = viewBox x 10)
    Hatch stroke: 0.04 mm = ~28 mm on screen at this zoom
    Legend panel: right margin (42 mm wide)
  -->
  <defs>
    <marker id="endArrow" markerWidth="2" markerHeight="1.4"
            refX="0" refY="0.7" orient="auto"
            markerUnits="strokeWidth">
      <polyline fill="darkblue" points="0,0 2,0.7 0,1.4 0.2,0.7"/>
    </marker>
  </defs>
  <!-- Background -->
  <rect x="0" y="0" width="202.000000" height="160.000000" fill="#f0f0f0" stroke="none"/>
  <!-- Build plate boundary (150 x 150 mm) -->
  <rect x="5.000000" y="5.000000" width="150.000000" height="150.000000"
        fill="#ffffff" stroke="#aaaaaa" stroke-width="0.2" stroke-dasharray="1,0.5"/>
  <!-- Build plate centre circle (r = 75.00 mm) -->
  <circle cx="80.000000" cy="80.000000" r="75.000000"
          fill="none" stroke="#bbbbbb" stroke-width="0.15" stroke-dasharray="0.8,0.4"/>
  <!-- Centre cross-hair -->
  <line x1="5.000000" y1="80.000000" x2="155.000000" y2="80.000000" stroke="#cccccc" stroke-width="0.1"/>
  <line x1="80.000000" y1="5.000000" x2="80.000000" y2="155.000000" stroke="#cccccc" stroke-width="0.1"/>
  <circle cx="80.000000" cy="80.000000" r="0.3" fill="#cccccc" stroke="none"/>
  <!-- Corner labels -->
  <text x="5.400000" y="4.600000" font-family="sans-serif" font-size="2" fill="#888888">0,0</text>
  <text x="154.600006" y="4.600000" font-family="sans-serif" font-size="2" fill="#888888" text-anchor="end">150,0</text>
  <text x="5.400000" y="157.199997" font-family="sans-serif" font-size="2" fill="#888888">0,150</text>
  <!-- Layer geometry -->
  <g id="geometry">
    <g class="thermal-hatch" data-segment="8" data-name="CoreNormalHatch">
      <line x1="35.19708" y1="127.78498" x2="34.85915" y2="127.65526" stroke="#228B22" stroke-width="0.04000"/>
      <line x1="35.36257" y1="127.74139" x2="34.62233" y2="127.45724" stroke="#228B22" stroke-width="0.04000"/>
      <line x1="35.52806" y1="127.69781" x2="34.36987" y2="127.25322" stroke="#228B22" stroke-width="0.04000"/>
      <line x1="35.69356" y1="127.65422" x2="34.22226" y2="127.08944" stroke="#228B22" stroke-width="0.04000"/>
      <line x1="35.82137" y1="127.59616" x2="34.11821" y2="126.94238" stroke="#228B22" stroke-width="0.04000"/>
      <line x1="35.92310" y1="127.52811" x2="34.01416" y2="126.79533" stroke="#228B22" stroke-width="0.04000"/>
      <line x1="36.02484" y1="127.46004" x2="33.91011" y2="126.64827" stroke="#228B22" stroke-width="0.04000"/>
      <line x1="36.01664" y1="127.34978" x2="33.80606" y2="126.50122" stroke="#228B22" stroke-width="0.04000"/>
      <line x1="35.99231" y1="127.23332" x2="33.69571" y2="126.35175" stroke="#228B22" stroke-width="0.04000"/>
      <line x1="35.96798" y1="127.11687" x2="33.58151" y2="126.20079" stroke="#228B22" stroke-width="0.04000"/>
      <line x1="35.94365" y1="127.00042" x2="33.46732" y2="126.04984" stroke="#228B22" stroke-width="0.04000"/>
      <line x1="35.91932" y1="126.88396" x2="33.35312" y2="125.89890" stroke="#228B22" stroke-width="0.04000"/>
      <line x1="35.89162" y1="126.76621" x2="33.23892" y2="125.74794" stroke="#228B22" stroke-width="0.04000"/>
      <line x1="35.86296" y1="126.64810" x2="33.09600" y2="125.58596" stroke="#228B22" stroke-width="0.04000"/>
      <line x1="35.83431" y1="126.52999" x2="32.95782" y2="125.42580" stroke="#228B22" stroke-width="0.04000"/>
      <line x1="35.80566" y1="126.41188" x2="32.81963" y2="125.26565" stroke="#228B22" stroke-width="0.04000"/>
      <line x1="35.78011" y1="126.29495" x2="32.68144" y2="125.10548" stroke="#228B22" stroke-width="0.04000"/>
      <line x1="35.75486" y1="126.17815" x2="32.54326" y2="124.94533" stroke="#228B22" stroke-width="0.04000"/>
      <line x1="35.70947" y1="126.05361" x2="32.35369" y2="124.76544" stroke="#228B22" stroke-width="0.04000"/>
      <line x1="35.66072" y1="125.92778" x2="32.17748" y2="124.59069" stroke="#228B22" stroke-width="0.04000"/>
      <line x1="35.61197" y1="125.80195" x2="32.00252" y2="124.41641" stroke="#228B22" stroke-width="0.04000"/>
      <line x1="35.56322" y1="125.67612" x2="31.82755" y2="124.24213" stroke="#228B22" stroke-width="0.04000"/>
      <line x1="35.51447" y1="125.55030" x2="31.63057" y2="124.05941" stroke="#228B22" stroke-width="0.04000"/>
      <line x1="35.46573" y1="125.42448" x2="31.38388" y2="123.85760" stroke="#228B22" stroke-width="0.04000"/>
      <line x1="35.41656" y1="125.29848" x2="31.15465" y2="123.66248" stroke="#228B22" stroke-width="0.04000"/>
      <line x1="35.36738" y1="125.17249" x2="30.96807" y2="123.48375" stroke="#228B22" stroke-width="0.04000"/>
      <line x1="35.31820" y1="125.04650" x2="30.87335" y2="123.34028" stroke="#228B22" stroke-width="0.04000"/>
      <line x1="35.26901" y1="124.92050" x2="30.77863" y2="123.19680" stroke="#228B22" stroke-width="0.04000"/>
      <line x1="35.21983" y1="124.79450" x2="30.68391" y2="123.05333" stroke="#228B22" stroke-width="0.04000"/>
      <line x1="35.16770" y1="124.66738" x2="30.62553" y2="122.92381" stroke="#228B22" stroke-width="0.04000"/>
      <line x1="35.09618" y1="124.53281" x2="30.59247" y2="122.80400" stroke="#228B22" stroke-width="0.04000"/>
      <line x1="35.02639" y1="124.39891" x2="30.55941" y2="122.68420" stroke="#228B22" stroke-width="0.04000"/>
      <line x1="34.96196" y1="124.26706" x2="30.52635" y2="122.56439" stroke="#228B22" stroke-width="0.04000"/>
      <line x1="34.89753" y1="124.13522" x2="30.55562" y2="122.46851" stroke="#228B22" stroke-width="0.04000"/>
      <line x1="34.83311" y1="124.00337" x2="30.59473" y2="122.37641" stroke="#228B22" stroke-width="0.04000"/>
      <line x1="34.76868" y1="123.87152" x2="30.63275" y2="122.28389" stroke="#228B22" stroke-width="0.04000"/>
      <line x1="34.70425" y1="123.73968" x2="30.66571" y2="122.18943" stroke="#228B22" stroke-width="0.04000"/>
      <line x1="34.64043" y1="123.60807" x2="30.69867" y2="122.09496" stroke="#228B22" stroke-width="0.04000"/>
      <line x1="34.57690" y1="123.47656" x2="30.73163" y2="122.00050" stroke="#228B22" stroke-width="0.04000"/>
      <line x1="34.50683" y1="123.34256" x2="30.76459" y2="121.90604" stroke="#228B22" stroke-width="0.04000"/>
      <line x1="34.41495" y1="123.20016" x2="30.79755" y2="121.81158" stroke="#228B22" stroke-width="0.04000"/>
      <line x1="34.32306" y1="123.05779" x2="30.83051" y2="121.71712" stroke="#228B22" stroke-width="0.04000"/>
      <line x1="34.23118" y1="122.91540" x2="30.86346" y2="121.62266" stroke="#228B22" stroke-width="0.04000"/>
      <line x1="34.13929" y1="122.77301" x2="30.91979" y2="121.53716" stroke="#228B22" stroke-width="0.04000"/>
      <line x1="34.04741" y1="122.63062" x2="30.97689" y2="121.45197" stroke="#228B22" stroke-width="0.04000"/>
      <line x1="33.96873" y1="122.49331" x2="31.03400" y2="121.36677" stroke="#228B22" stroke-width="0.04000"/>
      <line x1="33.89340" y1="122.35728" x2="31.09110" y2="121.28158" stroke="#228B22" stroke-width="0.04000"/>
      <line x1="33.79215" y1="122.21130" x2="31.15353" y2="121.19843" stroke="#228B22" stroke-width="0.04000"/>
      <line x1="33.68884" y1="122.06452" x2="31.27959" y2="121.13970" stroke="#228B22" stroke-width="0.04000"/>
      <line x1="33.58552" y1="121.91775" x2="31.40564" y2="121.08098" stroke="#228B22" stroke-width="0.04000"/>
      <line x1="33.47368" y1="121.76771" x2="31.53170" y2="121.02225" stroke="#228B22" stroke-width="0.04000"/>
      <line x1="33.34610" y1="121.61162" x2="31.64628" y2="120.95911" stroke="#228B22" stroke-width="0.04000"/>
      <line x1="33.21678" y1="121.45486" x2="31.75752" y2="120.89471" stroke="#228B22" stroke-width="0.04000"/>
      <line x1="33.08746" y1="121.29810" x2="31.86878" y2="120.83030" stroke="#228B22" stroke-width="0.04000"/>
      <line x1="32.95912" y1="121.14173" x2="31.98003" y2="120.76589" stroke="#228B22" stroke-width="0.04000"/>
      <line x1="32.83173" y1="120.98571" x2="32.25736" y2="120.76524" stroke="#228B22" stroke-width="0.04000"/>
    </g>
    <g class="thermal-hatch" data-segment="8" data-name="CoreNormalHatch">
      <line x1="52.30411" y1="116.42216" x2="52.06639" y2="116.33091" stroke="#228B22" stroke-width="0.04000"/>
      <line x1="52.55073" y1="116.40972" x2="51.59504" y2="116.04286" stroke="#228B22" stroke-width="0.04000"/>
      <line x1="52.81201" y1="116.40290" x2="51.15810" y2="115.76802" stroke="#228B22" stroke-width="0.04000"/>
      <line x1="53.07328" y1="116.39608" x2="50.64560" y2="115.46418" stroke="#228B22" stroke-width="0.04000"/>
      <line x1="53.23894" y1="116.35255" x2="50.15115" y2="115.16727" stroke="#228B22" stroke-width="0.04000"/>
      <line x1="53.22645" y1="116.24065" x2="49.49748" y2="114.80923" stroke="#228B22" stroke-width="0.04000"/>
      <line x1="53.21396" y1="116.12873" x2="48.85463" y2="114.45535" stroke="#228B22" stroke-width="0.04000"/>
      <line x1="53.20147" y1="116.01683" x2="48.21962" y2="114.10447" stroke="#228B22" stroke-width="0.04000"/>
      <line x1="53.18898" y1="115.90491" x2="47.62140" y2="113.76772" stroke="#228B22" stroke-width="0.04000"/>
      <line x1="53.17649" y1="115.79301" x2="47.25603" y2="113.52036" stroke="#228B22" stroke-width="0.04000"/>
      <line x1="53.16400" y1="115.68110" x2="46.86770" y2="113.26418" stroke="#228B22" stroke-width="0.04000"/>
      <line x1="53.15151" y1="115.56919" x2="46.44690" y2="112.99554" stroke="#228B22" stroke-width="0.04000"/>
      <line x1="53.13902" y1="115.45728" x2="46.18332" y2="112.78724" stroke="#228B22" stroke-width="0.04000"/>
      <line x1="53.14371" y1="115.35197" x2="45.91805" y2="112.57830" stroke="#228B22" stroke-width="0.04000"/>
      <line x1="53.12416" y1="115.23735" x2="45.64906" y2="112.36793" stroke="#228B22" stroke-width="0.04000"/>
      <line x1="53.00040" y1="115.08273" x2="45.38008" y2="112.15755" stroke="#228B22" stroke-width="0.04000"/>
      <line x1="52.86700" y1="114.92441" x2="45.19537" y2="111.97955" stroke="#228B22" stroke-width="0.04000"/>
      <line x1="52.73361" y1="114.76609" x2="45.04051" y2="111.81298" stroke="#228B22" stroke-width="0.04000"/>
      <line x1="52.60021" y1="114.60777" x2="44.88958" y2="111.64793" stroke="#228B22" stroke-width="0.04000"/>
      <line x1="52.37216" y1="114.41311" x2="44.73866" y2="111.48288" stroke="#228B22" stroke-width="0.04000"/>
      <line x1="52.11303" y1="114.20653" x2="44.58773" y2="111.31783" stroke="#228B22" stroke-width="0.04000"/>
      <line x1="51.84089" y1="113.99495" x2="44.41961" y2="111.14619" stroke="#228B22" stroke-width="0.04000"/>
      <line x1="51.44865" y1="113.73726" x2="44.24952" y2="110.97378" stroke="#228B22" stroke-width="0.04000"/>
      <line x1="51.03083" y1="113.46976" x2="44.17692" y2="110.83879" stroke="#228B22" stroke-width="0.04000"/>
      <line x1="50.72197" y1="113.24409" x2="44.10840" y2="110.70538" stroke="#228B22" stroke-width="0.04000"/>
      <line x1="50.45432" y1="113.03423" x2="44.03988" y2="110.57196" stroke="#228B22" stroke-width="0.04000"/>
      <line x1="50.16394" y1="112.81565" x2="43.96572" y2="110.43638" stroke="#228B22" stroke-width="0.04000"/>
      <line x1="49.76028" y1="112.55359" x2="43.89079" y2="110.30050" stroke="#228B22" stroke-width="0.04000"/>
      <line x1="49.52807" y1="112.35734" x2="43.81585" y2="110.16462" stroke="#228B22" stroke-width="0.04000"/>
      <line x1="49.19202" y1="112.12122" x2="43.74091" y2="110.02874" stroke="#228B22" stroke-width="0.04000"/>
      <line x1="48.87837" y1="111.89371" x2="43.66597" y2="109.89286" stroke="#228B22" stroke-width="0.04000"/>
      <line x1="48.61621" y1="111.68597" x2="43.64701" y2="109.77847" stroke="#228B22" stroke-width="0.04000"/>
      <line x1="48.43081" y1="111.50768" x2="43.65376" y2="109.67394" stroke="#228B22" stroke-width="0.04000"/>
      <line x1="48.24570" y1="111.32951" x2="43.66426" y2="109.57086" stroke="#228B22" stroke-width="0.04000"/>
      <line x1="48.06112" y1="111.15154" x2="43.67986" y2="109.46973" stroke="#228B22" stroke-width="0.04000"/>
      <line x1="47.87653" y1="110.97357" x2="43.69546" y2="109.36861" stroke="#228B22" stroke-width="0.04000"/>
      <line x1="47.69262" y1="110.79586" x2="43.71106" y2="109.26748" stroke="#228B22" stroke-width="0.04000"/>
      <line x1="47.55275" y1="110.63506" x2="43.72666" y2="109.16635" stroke="#228B22" stroke-width="0.04000"/>
      <line x1="47.43150" y1="110.48139" x2="43.74226" y2="109.06522" stroke="#228B22" stroke-width="0.04000"/>
      <line x1="47.31025" y1="110.32773" x2="43.78276" y2="108.97366" stroke="#228B22" stroke-width="0.04000"/>
      <line x1="47.18900" y1="110.17407" x2="43.86145" y2="108.89675" stroke="#228B22" stroke-width="0.04000"/>
      <line x1="47.06472" y1="110.01926" x2="43.94014" y2="108.81984" stroke="#228B22" stroke-width="0.04000"/>
      <line x1="46.93727" y1="109.86322" x2="44.01883" y2="108.74294" stroke="#228B22" stroke-width="0.04000"/>
      <line x1="46.80735" y1="109.70623" x2="44.11702" y2="108.67352" stroke="#228B22" stroke-width="0.04000"/>
      <line x1="46.67688" y1="109.54903" x2="44.21935" y2="108.60567" stroke="#228B22" stroke-width="0.04000"/>
      <line x1="46.54641" y1="109.39185" x2="44.32167" y2="108.53784" stroke="#228B22" stroke-width="0.04000"/>
      <line x1="46.42274" y1="109.23725" x2="44.42400" y2="108.47000" stroke="#228B22" stroke-width="0.04000"/>
      <line x1="46.30539" y1="109.08509" x2="44.53848" y2="108.40684" stroke="#228B22" stroke-width="0.04000"/>
      <line x1="46.16133" y1="108.92268" x2="44.67839" y2="108.35343" stroke="#228B22" stroke-width="0.04000"/>
      <line x1="44.98917" y1="108.36562" x2="44.81830" y2="108.30002" stroke="#228B22" stroke-width="0.04000"/>
    </g>
    <g class="thermal-hatch" data-segment="8" data-name="CoreNormalHatch">
      <line x1="32.62840" y1="121.19570" x2="32.83600" y2="121.44880" stroke="#228B22" stroke-width="0.04000"/>
      <line x1="32.83600" y1="121.44880" x2="33.20510" y2="121.89630" stroke="#228B22" stroke-width="0.04000"/>
      <line x1="33.20510" y1="121.89630" x2="33.29290" y2="122.00600" stroke="#228B22" stroke-width="0.04000"/>
      <line x1="33.29290" y1="122.00600" x2="33.64190" y2="122.50190" stroke="#228B22" stroke-width="0.04000"/>
      <line x1="33.64190" y1="122.50190" x2="33.77990" y2="122.75090" stroke="#228B22" stroke-width="0.04000"/>
      <line x1="33.77990" y1="122.75090" x2="34.28520" y2="123.53390" stroke="#228B22" stroke-width="0.04000"/>
      <line x1="34.28520" y1="123.53390" x2="34.31280" y2="123.59630" stroke="#228B22" stroke-width="0.04000"/>
      <line x1="34.31280" y1="123.59630" x2="34.42350" y2="123.82560" stroke="#228B22" stroke-width="0.04000"/>
      <line x1="34.42350" y1="123.82560" x2="34.78380" y2="124.56290" stroke="#228B22" stroke-width="0.04000"/>
      <line x1="34.78380" y1="124.56290" x2="34.91290" y2="124.80610" stroke="#228B22" stroke-width="0.04000"/>
      <line x1="34.91290" y1="124.80610" x2="35.21730" y2="125.58560" stroke="#228B22" stroke-width="0.04000"/>
      <line x1="35.21730" y1="125.58560" x2="35.21730" y2="125.58570" stroke="#228B22" stroke-width="0.04000"/>
      <line x1="35.21730" y1="125.58570" x2="35.47240" y2="126.24430" stroke="#228B22" stroke-width="0.04000"/>
      <line x1="35.47240" y1="126.24430" x2="35.52050" y2="126.46660" stroke="#228B22" stroke-width="0.04000"/>
      <line x1="35.52050" y1="126.46660" x2="35.63170" y2="126.92520" stroke="#228B22" stroke-width="0.04000"/>
      <line x1="35.63170" y1="126.92520" x2="35.71380" y2="127.31900" stroke="#228B22" stroke-width="0.04000"/>
      <line x1="35.71380" y1="127.31900" x2="35.64020" y2="127.36820" stroke="#228B22" stroke-width="0.04000"/>
      <line x1="35.64020" y1="127.36820" x2="35.12900" y2="127.50290" stroke="#228B22" stroke-width="0.04000"/>
      <line x1="35.12900" y1="127.50290" x2="34.64950" y2="127.10190" stroke="#228B22" stroke-width="0.04000"/>
      <line x1="34.64950" y1="127.10190" x2="34.52930" y2="127.00990" stroke="#228B22" stroke-width="0.04000"/>
      <line x1="34.52930" y1="127.00990" x2="34.48830" y2="126.96330" stroke="#228B22" stroke-width="0.04000"/>
      <line x1="34.48830" y1="126.96330" x2="34.00060" y2="126.27400" stroke="#228B22" stroke-width="0.04000"/>
      <line x1="34.00060" y1="126.27400" x2="33.44620" y2="125.54130" stroke="#228B22" stroke-width="0.04000"/>
      <line x1="33.44620" y1="125.54130" x2="33.40170" y2="125.49130" stroke="#228B22" stroke-width="0.04000"/>
      <line x1="33.40170" y1="125.49130" x2="33.37150" y2="125.46150" stroke="#228B22" stroke-width="0.04000"/>
      <line x1="33.37150" y1="125.46150" x2="32.71020" y2="124.69480" stroke="#228B22" stroke-width="0.04000"/>
      <line x1="32.71020" y1="124.69480" x2="32.54660" y2="124.54880" stroke="#228B22" stroke-width="0.04000"/>
      <line x1="32.54660" y1="124.54880" x2="31.90090" y2="123.90590" stroke="#228B22" stroke-width="0.04000"/>
      <line x1="31.90090" y1="123.90590" x2="31.42920" y2="123.51990" stroke="#228B22" stroke-width="0.04000"/>
      <line x1="31.42920" y1="123.51990" x2="31.20600" y2="123.31780" stroke="#228B22" stroke-width="0.04000"/>
      <line x1="31.20600" y1="123.31780" x2="30.91230" y2="122.87290" stroke="#228B22" stroke-width="0.04000"/>
      <line x1="30.91230" y1="122.87290" x2="30.82810" y2="122.56800" stroke="#228B22" stroke-width="0.04000"/>
      <line x1="30.82810" y1="122.56800" x2="30.89750" y2="122.40530" stroke="#228B22" stroke-width="0.04000"/>
      <line x1="30.89750" y1="122.40530" x2="31.12570" y2="121.75030" stroke="#228B22" stroke-width="0.04000"/>
      <line x1="31.12570" y1="121.75030" x2="31.33950" y2="121.43160" stroke="#228B22" stroke-width="0.04000"/>
      <line x1="31.33950" y1="121.43160" x2="31.69420" y2="121.26660" stroke="#228B22" stroke-width="0.04000"/>
      <line x1="31.69420" y1="121.26660" x2="32.11430" y2="121.02290" stroke="#228B22" stroke-width="0.04000"/>
      <line x1="32.11430" y1="121.02290" x2="32.62840" y2="121.19570" stroke="#228B22" stroke-width="0.04000"/>
      <line x1="44.90220" y1="108.64390" x2="45.18640" y2="108.77770" stroke="#228B22" stroke-width="0.04000"/>
      <line x1="45.18640" y1="108.77770" x2="45.72020" y2="108.96680" stroke="#228B22" stroke-width="0.04000"/>
      <line x1="45.72020" y1="108.96680" x2="45.99910" y2="109.16300" stroke="#228B22" stroke-width="0.04000"/>
      <line x1="45.99910" y1="109.16300" x2="46.25710" y2="109.49740" stroke="#228B22" stroke-width="0.04000"/>
      <line x1="46.25710" y1="109.49740" x2="46.68600" y2="110.01390" stroke="#228B22" stroke-width="0.04000"/>
      <line x1="46.68600" y1="110.01390" x2="46.68600" y2="110.01400" stroke="#228B22" stroke-width="0.04000"/>
      <line x1="46.68600" y1="110.01400" x2="46.90350" y2="110.28020" stroke="#228B22" stroke-width="0.04000"/>
      <line x1="46.90350" y1="110.28020" x2="46.90350" y2="110.28030" stroke="#228B22" stroke-width="0.04000"/>
      <line x1="46.90350" y1="110.28030" x2="47.43010" y2="110.94790" stroke="#228B22" stroke-width="0.04000"/>
      <line x1="47.43010" y1="110.94790" x2="47.46460" y2="110.97800" stroke="#228B22" stroke-width="0.04000"/>
      <line x1="47.46460" y1="110.97800" x2="47.50160" y2="111.01490" stroke="#228B22" stroke-width="0.04000"/>
      <line x1="47.50160" y1="111.01490" x2="48.21030" y2="111.69830" stroke="#228B22" stroke-width="0.04000"/>
      <line x1="48.21030" y1="111.69830" x2="48.21060" y2="111.69830" stroke="#228B22" stroke-width="0.04000"/>
      <line x1="48.21060" y1="111.69830" x2="48.52850" y2="112.00380" stroke="#228B22" stroke-width="0.04000"/>
      <line x1="48.52850" y1="112.00380" x2="48.66190" y2="112.09400" stroke="#228B22" stroke-width="0.04000"/>
      <line x1="48.66190" y1="112.09400" x2="48.86990" y2="112.24940" stroke="#228B22" stroke-width="0.04000"/>
      <line x1="48.86990" y1="112.24940" x2="49.34890" y2="112.58560" stroke="#228B22" stroke-width="0.04000"/>
      <line x1="49.34890" y1="112.58560" x2="49.57120" y2="112.77660" stroke="#228B22" stroke-width="0.04000"/>
      <line x1="49.57120" y1="112.77660" x2="50.06350" y2="113.09630" stroke="#228B22" stroke-width="0.04000"/>
      <line x1="50.06350" y1="113.09630" x2="50.76850" y2="113.64920" stroke="#228B22" stroke-width="0.04000"/>
      <line x1="50.76850" y1="113.64920" x2="50.81480" y2="113.67470" stroke="#228B22" stroke-width="0.04000"/>
      <line x1="50.81480" y1="113.67470" x2="50.88730" y2="113.72240" stroke="#228B22" stroke-width="0.04000"/>
      <line x1="50.88730" y1="113.72240" x2="51.62340" y2="114.19310" stroke="#228B22" stroke-width="0.04000"/>
      <line x1="51.62340" y1="114.19310" x2="51.92370" y2="114.42640" stroke="#228B22" stroke-width="0.04000"/>
      <line x1="51.92370" y1="114.42640" x2="52.36380" y2="114.77730" stroke="#228B22" stroke-width="0.04000"/>
      <line x1="52.36380" y1="114.77730" x2="52.84640" y2="115.34990" stroke="#228B22" stroke-width="0.04000"/>
      <line x1="52.84640" y1="115.34990" x2="52.83890" y2="115.38270" stroke="#228B22" stroke-width="0.04000"/>
      <line x1="52.83890" y1="115.38270" x2="52.92000" y2="116.10970" stroke="#228B22" stroke-width="0.04000"/>
      <line x1="52.92000" y1="116.10970" x2="52.28800" y2="116.12640" stroke="#228B22" stroke-width="0.04000"/>
      <line x1="52.28800" y1="116.12640" x2="51.51670" y2="115.65520" stroke="#228B22" stroke-width="0.04000"/>
      <line x1="51.51670" y1="115.65520" x2="51.31290" y2="115.52250" stroke="#228B22" stroke-width="0.04000"/>
      <line x1="51.31290" y1="115.52250" x2="50.52520" y2="115.05570" stroke="#228B22" stroke-width="0.04000"/>
      <line x1="50.52520" y1="115.05570" x2="50.52530" y2="115.05570" stroke="#228B22" stroke-width="0.04000"/>
      <line x1="50.52530" y1="115.05570" x2="50.23170" y2="114.87680" stroke="#228B22" stroke-width="0.04000"/>
      <line x1="50.23170" y1="114.87680" x2="49.59070" y2="114.53000" stroke="#228B22" stroke-width="0.04000"/>
      <line x1="49.59070" y1="114.53000" x2="48.95240" y2="114.17820" stroke="#228B22" stroke-width="0.04000"/>
      <line x1="48.95240" y1="114.17820" x2="48.78310" y2="114.09580" stroke="#228B22" stroke-width="0.04000"/>
      <line x1="48.78310" y1="114.09580" x2="47.98960" y2="113.63590" stroke="#228B22" stroke-width="0.04000"/>
      <line x1="47.98960" y1="113.63590" x2="47.82190" y2="113.55330" stroke="#228B22" stroke-width="0.04000"/>
      <line x1="47.82190" y1="113.55330" x2="47.09010" y2="113.05790" stroke="#228B22" stroke-width="0.04000"/>
      <line x1="47.09010" y1="113.05790" x2="46.72920" y2="112.84890" stroke="#228B22" stroke-width="0.04000"/>
      <line x1="46.72920" y1="112.84890" x2="46.18150" y2="112.41620" stroke="#228B22" stroke-width="0.04000"/>
      <line x1="46.18150" y1="112.41620" x2="45.49680" y2="111.88060" stroke="#228B22" stroke-width="0.04000"/>
      <line x1="45.49680" y1="111.88060" x2="45.45140" y2="111.82730" stroke="#228B22" stroke-width="0.04000"/>
      <line x1="45.45140" y1="111.82730" x2="45.35730" y2="111.72970" stroke="#228B22" stroke-width="0.04000"/>
      <line x1="45.35730" y1="111.72970" x2="44.78270" y2="111.10120" stroke="#228B22" stroke-width="0.04000"/>
      <line x1="44.78270" y1="111.10120" x2="44.48060" y2="110.79530" stroke="#228B22" stroke-width="0.04000"/>
      <line x1="44.48060" y1="110.79530" x2="44.28760" y2="110.41930" stroke="#228B22" stroke-width="0.04000"/>
      <line x1="44.28760" y1="110.41930" x2="43.93710" y2="109.78400" stroke="#228B22" stroke-width="0.04000"/>
      <line x1="43.93710" y1="109.78400" x2="43.94620" y2="109.64360" stroke="#228B22" stroke-width="0.04000"/>
      <line x1="43.94620" y1="109.64360" x2="44.02340" y2="109.14370" stroke="#228B22" stroke-width="0.04000"/>
      <line x1="44.02340" y1="109.14370" x2="44.21550" y2="108.95580" stroke="#228B22" stroke-width="0.04000"/>
      <line x1="44.21550" y1="108.95580" x2="44.62640" y2="108.68340" stroke="#228B22" stroke-width="0.04000"/>
      <line x1="44.62640" y1="108.68340" x2="44.82150" y2="108.60900" stroke="#228B22" stroke-width="0.04000"/>
      <line x1="44.82150" y1="108.60900" x2="44.90220" y2="108.64390" stroke="#228B22" stroke-width="0.04000"/>
    </g>
    <g class="thermal-contour" data-segment="1" data-name="CoreContour_Volume">
    <path d="M 32.7411 120.928 L 32.8155 120.959 L 32.8331 120.988 L 33.0599 121.265 L 33.4354 121.72 L 33.5255 121.832 L 33.8878 122.347 L 34.0288 122.602 L 34.5417 123.397 L 34.5761 123.475 L 34.6843 123.699 L 35.0422 124.431 L 35.1771 124.685 L 35.4633 125.418 L 35.7512 126.161 L 35.8032 126.402 L 35.914 126.858 L 36.0379 127.451 L 35.7612 127.636 L 35.0581 127.822 L 34.4683 127.328 L 34.331 127.224 L 34.2601 127.143 L 33.7666 126.445 L 33.2219 125.725 L 33.1911 125.691 L 33.1595 125.66 L 32.5029 124.899 L 32.3464 124.759 L 31.7063 124.121 L 31.2415 123.741 L 30.9842 123.508 L 30.645 122.994 L 30.5218 122.548 L 30.6269 122.301 L 30.8645 121.62 L 31.1438 121.203 L 31.56 121.009 L 32.0826 120.707 L 32.7411 120.928" fill="none" stroke="#000000" stroke-width="0.05000" fill-rule="evenodd" fill-opacity="1.000"/>
    </g>
    <g class="thermal-contour" data-segment="1" data-name="CoreContour_Volume">
    <path d="M 45.0238 108.381 L 45.2969 108.509 L 45.8547 108.707 L 46.2024 108.952 L 46.4836 109.316 L 46.9144 109.835 L 47.127 110.095 L 47.6412 110.747 L 47.6626 110.766 L 47.7046 110.808 L 48.3274 111.408 L 48.3275 111.408 L 48.7115 111.778 L 48.834 111.861 L 49.0401 112.015 L 49.527 112.356 L 49.7455 112.544 L 50.2313 112.859 L 50.9295 113.407 L 50.9657 113.427 L 51.0451 113.479 L 51.7914 113.956 L 52.1015 114.197 L 52.5672 114.569 L 53.093 115.193 L 53.1588 115.287 L 53.1326 115.4 L 53.2433 116.392 L 52.3228 116.416 L 52.2464 116.442 L 52.1978 116.411 L 51.3626 115.901 L 51.1598 115.769 L 50.3765 115.305 L 50.0872 115.128 L 49.4462 114.781 L 48.819 114.436 L 48.647 114.352 L 47.8527 113.892 L 47.6761 113.805 L 46.9361 113.304 L 46.5658 113.089 L 46.0023 112.644 L 45.2952 112.091 L 45.2365 112.022 L 45.1461 111.928 L 44.5724 111.301 L 44.2427 110.967 L 44.0315 110.556 L 43.6424 109.85 L 43.6577 109.614 L 43.7517 109.004 L 44.0326 108.729 L 44.4932 108.424 L 44.8283 108.296 L 45.0238 108.381" fill="none" stroke="#000000" stroke-width="0.05000" fill-rule="evenodd" fill-opacity="1.000"/>
    </g>
    <g class="thermal-contour" data-segment="1" data-name="CoreContour_Volume">
    <path d="M 32.67 121.115 L 32.6829 121.12 L 32.9055 121.392 L 33.2745 121.839 L 33.3651 121.952 L 33.7182 122.454 L 33.8572 122.705 L 34.3649 123.491 L 34.3945 123.559 L 34.5045 123.786 L 34.864 124.522 L 34.9947 124.768 L 35.3012 125.553 L 35.559 126.219 L 35.6082 126.447 L 35.7192 126.904 L 35.8144 127.36 L 35.6778 127.451 L 35.107 127.602 L 34.5933 127.172 L 34.4678 127.076 L 34.4173 127.019 L 33.928 126.327 L 33.3766 125.599 L 33.3363 125.553 L 33.3049 125.522 L 32.6459 124.758 L 32.485 124.615 L 31.8405 123.973 L 31.3713 123.589 L 31.1372 123.377 L 30.8293 122.91 L 30.733 122.562 L 30.8135 122.373 L 31.0445 121.71 L 31.2789 121.361 L 31.6526 121.187 L 32.1044 120.925 L 32.67 121.115" fill="none" stroke="#000000" stroke-width="0.05000" fill-rule="evenodd" fill-opacity="1.000"/>
    <path d="M 31.6942 121.267 L 31.3395 121.432 L 31.1257 121.75 L 30.8975 122.405 L 30.8281 122.568 L 30.9123 122.873 L 31.206 123.318 L 31.4292 123.52 L 31.9009 123.906 L 32.5466 124.549 L 32.7102 124.695 L 33.3715 125.462 L 33.4017 125.491 L 33.4462 125.541 L 34.0006 126.274 L 34.4883 126.963 L 34.5293 127.01 L 34.6495 127.102 L 35.129 127.503 L 35.6402 127.368 L 35.7138 127.319 L 35.6317 126.925 L 35.5205 126.467 L 35.4724 126.244 L 35.2173 125.586 L 35.2173 125.586 L 34.9129 124.806 L 34.7838 124.563 L 34.4235 123.826 L 34.3128 123.596 L 34.2852 123.534 L 33.7799 122.751 L 33.6419 122.502 L 33.2929 122.006 L 33.2051 121.896 L 32.836 121.449 L 32.6284 121.196 L 32.1143 121.023 L 31.6942 121.267" fill="none" stroke="#000000" stroke-width="0.05000" fill-rule="evenodd" fill-opacity="1.000"/>
    <path d="M 44.9386 108.562 L 45.2207 108.694 L 45.762 108.886 L 46.0622 109.097 L 46.3274 109.441 L 46.7557 109.957 L 46.9742 110.225 L 47.4956 110.886 L 47.5262 110.912 L 47.5646 110.951 L 48.2466 111.608 L 48.2469 111.608 L 48.5853 111.934 L 48.7158 112.022 L 48.9227 112.176 L 49.404 112.514 L 49.6253 112.704 L 50.1155 113.023 L 50.8184 113.574 L 50.8614 113.598 L 50.9363 113.647 L 51.6756 114.12 L 51.9789 114.355 L 52.4268 114.712 L 52.9342 115.314 L 52.9438 115.328 L 52.93 115.388 L 53.0203 116.197 L 52.2866 116.216 L 52.2714 116.222 L 51.4698 115.732 L 51.2654 115.599 L 50.4785 115.133 L 50.1868 114.955 L 49.542 114.606 L 49.5421 114.606 L 48.911 114.258 L 48.7405 114.175 L 47.9471 113.715 L 47.7769 113.631 L 47.0423 113.134 L 46.6787 112.924 L 46.1259 112.487 L 45.4343 111.946 L 45.3847 111.888 L 45.2925 111.792 L 44.7174 111.163 L 44.4067 110.849 L 44.2081 110.462 L 43.8456 109.804 L 43.8567 109.634 L 43.9391 109.1 L 44.1588 108.885 L 44.5852 108.603 L 44.8236 108.512 L 44.9386 108.562" fill="none" stroke="#000000" stroke-width="0.05000" fill-rule="evenodd" fill-opacity="1.000"/>
    <path d="M 44.6264 108.683 L 44.2155 108.956 L 44.0234 109.144 L 43.9462 109.644 L 43.9371 109.784 L 44.2876 110.419 L 44.4806 110.795 L 44.7827 111.101 L 45.3573 111.73 L 45.4514 111.827 L 45.4968 111.881 L 46.1815 112.416 L 46.7292 112.849 L 47.0901 113.058 L 47.8219 113.553 L 47.9896 113.636 L 48.7831 114.096 L 48.9524 114.178 L 49.5907 114.53 L 50.2317 114.877 L 50.5253 115.056 L 50.5252 115.056 L 51.3129 115.522 L 51.5167 115.655 L 52.288 116.126 L 52.92 116.11 L 52.8389 115.383 L 52.8464 115.35 L 52.3638 114.777 L 51.9237 114.426 L 51.6234 114.193 L 50.8873 113.722 L 50.8148 113.675 L 50.7685 113.649 L 50.0635 113.096 L 49.5712 112.777 L 49.3489 112.586 L 48.8699 112.249 L 48.6619 112.094 L 48.5285 112.004 L 48.2106 111.698 L 48.2103 111.698 L 47.5016 111.015 L 47.4646 110.978 L 47.4301 110.948 L 46.9035 110.28 L 46.9035 110.28 L 46.686 110.014 L 46.686 110.014 L 46.2571 109.497 L 45.9991 109.163 L 45.7202 108.967 L 45.1864 108.778 L 44.9022 108.644 L 44.8215 108.609 L 44.6264 108.683" fill="none" stroke="#000000" stroke-width="0.05000" fill-rule="evenodd" fill-opacity="1.000"/>
    </g>
    <g class="thermal-contour" data-segment="3" data-name="HollowShell1Contour_Volume">
    <path d="M 32.7411 120.928 L 32.8155 120.959 L 32.8331 120.988 L 33.0599 121.265 L 33.4354 121.72 L 33.5255 121.832 L 33.8878 122.347 L 34.0288 122.602 L 34.5417 123.397 L 34.5761 123.475 L 34.6843 123.699 L 35.0422 124.431 L 35.1771 124.685 L 35.4633 125.418 L 35.7512 126.161 L 35.8032 126.402 L 35.914 126.858 L 36.0379 127.451 L 35.7647 127.634 L 35.0724 127.816 L 34.4689 127.312 L 34.3468 127.197 L 34.2273 126.99 L 33.7947 126.378 L 33.399 125.855 L 33.2209 125.597 L 32.6147 124.875 L 33.2319 125.59 L 33.2637 125.622 L 33.2993 125.662 L 33.8473 126.386 L 34.3387 127.081 L 34.3994 127.15 L 34.5308 127.25 L 35.0825 127.712 L 35.7195 127.544 L 35.9261 127.406 L 35.8164 126.88 L 35.7057 126.424 L 35.6551 126.19 L 35.3702 125.454 L 35.3701 125.455 L 35.0857 124.726 L 34.9531 124.477 L 34.5944 123.743 L 34.4853 123.517 L 34.4533 123.444 L 33.943 122.653 L 33.8031 122.401 L 33.4453 121.892 L 33.3573 121.782 L 33.3573 121.782 L 32.9827 121.328 L 32.7513 121.046 L 32.7469 121.039 L 32.7056 121.021 L 32.0935 120.816 L 31.6063 121.098 L 31.2114 121.282 L 30.9545 121.665 L 30.7202 122.337 L 30.6274 122.555 L 30.6979 122.811 L 30.5448 122.578 L 30.5226 122.551 L 30.5218 122.548 L 30.6269 122.301 L 30.8645 121.62 L 31.1438 121.203 L 31.56 121.009 L 32.0826 120.706 L 32.7411 120.928" fill="none" stroke="#0000CC" stroke-width="0.05000" fill-rule="evenodd" fill-opacity="1.000"/>
    <path d="M 45.0238 108.381 L 45.2969 108.509 L 45.8547 108.707 L 46.0681 108.857 L 46.4553 109.359 L 46.7374 109.699 L 47.1019 110.145 L 47.4799 110.624 L 47.6556 110.779 L 48.0008 111.123 L 48.3106 111.421 L 48.3107 111.421 L 48.4897 111.593 L 48.5923 111.663 L 48.7115 111.778 L 48.834 111.86 L 49.0401 112.015 L 49.527 112.356 L 49.7455 112.544 L 50.2313 112.859 L 50.9295 113.407 L 50.9657 113.427 L 51.0451 113.479 L 51.7914 113.956 L 52.1015 114.197 L 52.5672 114.569 L 53.093 115.193 L 53.1588 115.287 L 53.1326 115.4 L 53.1499 115.555 L 53.1186 115.69 L 53.1969 116.393 L 52.4246 116.413 L 52.2338 116.321 L 51.3291 115.805 L 51.3184 115.8 L 51.1899 115.726 L 50.3232 115.212 L 50.258 115.172 L 49.4136 114.715 L 49.0873 114.535 L 48.5486 114.274 L 47.945 113.924 L 47.6051 113.757 L 46.9361 113.304 L 46.5658 113.09 L 46.0023 112.644 L 45.2952 112.091 L 45.2365 112.022 L 45.1461 111.928 L 44.5724 111.301 L 44.2427 110.967 L 44.0315 110.556 L 43.6424 109.85 L 43.6577 109.614 L 43.7517 109.004 L 44.0326 108.729 L 44.4932 108.424 L 44.8283 108.296 L 45.0238 108.381" fill="none" stroke="#0000CC" stroke-width="0.05000" fill-rule="evenodd" fill-opacity="1.000"/>
    <path d="M 44.5391 108.513 L 44.0957 108.808 L 43.8454 109.052 L 43.7572 109.624 L 43.744 109.827 L 44.1198 110.509 L 44.3247 110.908 L 44.6449 111.232 L 45.2193 111.86 L 45.3106 111.955 L 45.3648 112.019 L 46.0641 112.566 L 46.622 113.006 L 46.9892 113.219 L 47.7265 113.718 L 47.8999 113.803 L 48.694 114.264 L 48.865 114.347 L 49.4938 114.693 L 50.137 115.042 L 50.4275 115.219 L 51.2126 115.684 L 51.4162 115.816 L 52.2508 116.326 L 52.2593 116.332 L 52.3047 116.316 L 53.1318 116.294 L 53.0313 115.394 L 53.0513 115.308 L 53.0137 115.254 L 52.497 114.641 L 52.0402 114.276 L 51.7335 114.038 L 50.9907 113.563 L 50.9133 113.512 L 50.8739 113.49 L 50.1734 112.941 L 49.6854 112.624 L 49.4655 112.435 L 48.9814 112.095 L 48.7749 111.941 L 48.6484 111.856 L 48.2872 111.508 L 48.287 111.508 L 47.6346 110.879 L 47.5944 110.839 L 47.5684 110.816 L 47.0495 110.159 L 47.0495 110.159 L 46.8369 109.898 L 46.8369 109.898 L 46.4055 109.379 L 46.1323 109.024 L 45.8082 108.797 L 45.2588 108.602 L 44.9812 108.471 L 44.826 108.404 L 44.5391 108.513" fill="none" stroke="#0000CC" stroke-width="0.05000" fill-rule="evenodd" fill-opacity="1.000"/>
    </g>
    <g class="thermal-contour" data-segment="4" data-name="HollowShell1Contour_Overhang">
    <path d="M 30.5448 122.578 L 30.6979 122.811 L 30.7372 122.953 L 31.0606 123.442 L 31.3064 123.665 L 31.7734 124.047 L 32.4157 124.687 L 32.5744 124.828 L 32.6147 124.875 L 33.2209 125.597 L 33.399 125.855 L 33.7947 126.378 L 34.2273 126.99 L 34.3468 127.197 L 34.4689 127.312 L 35.0724 127.816 L 35.7647 127.634 L 35.7612 127.636 L 35.0581 127.822 L 34.4683 127.328 L 34.331 127.224 L 34.2601 127.143 L 33.7666 126.445 L 33.2219 125.726 L 33.1911 125.691 L 33.1595 125.66 L 32.5029 124.899 L 32.3464 124.759 L 31.7063 124.121 L 31.2415 123.741 L 30.9842 123.508 L 30.645 122.994 L 30.5226 122.551 L 30.5448 122.578" fill="none" stroke="#000080" stroke-width="0.05000" fill-rule="evenodd" fill-opacity="1.000"/>
    <path d="M 47.945 113.924 L 48.5486 114.274 L 49.0873 114.535 L 49.4136 114.715 L 50.258 115.172 L 50.3232 115.212 L 51.1899 115.726 L 51.3184 115.8 L 51.3291 115.805 L 52.2338 116.321 L 52.4246 116.413 L 52.3228 116.416 L 52.2464 116.442 L 52.1978 116.411 L 51.3626 115.901 L 51.1598 115.769 L 50.3765 115.305 L 50.0872 115.128 L 49.4462 114.782 L 48.819 114.436 L 48.647 114.352 L 47.8527 113.892 L 47.6761 113.805 L 47.6051 113.757 L 47.945 113.924" fill="none" stroke="#000080" stroke-width="0.05000" fill-rule="evenodd" fill-opacity="1.000"/>
    <path d="M 53.2433 116.392 L 53.1969 116.393 L 53.1186 115.69 L 53.1499 115.555 L 53.2433 116.392" fill="none" stroke="#000080" stroke-width="0.05000" fill-rule="evenodd" fill-opacity="1.000"/>
    <path d="M 46.2024 108.952 L 46.4836 109.316 L 46.9144 109.835 L 47.127 110.095 L 47.6412 110.747 L 47.6626 110.766 L 47.7046 110.808 L 48.3274 111.408 L 48.3275 111.408 L 48.5923 111.663 L 48.4897 111.593 L 48.3107 111.421 L 48.3106 111.421 L 48.0008 111.123 L 47.6556 110.779 L 47.4799 110.624 L 47.1019 110.145 L 46.7374 109.699 L 46.4553 109.359 L 46.0681 108.857 L 46.2024 108.952" fill="none" stroke="#000080" stroke-width="0.05000" fill-rule="evenodd" fill-opacity="1.000"/>
    </g>
    <g class="thermal-contour" data-segment="5" data-name="HollowShell2Contour_Volume">
    <path d="M 32.7056 121.021 L 32.7469 121.039 L 32.7513 121.046 L 32.9827 121.328 L 33.3573 121.782 L 33.3573 121.782 L 33.4453 121.892 L 33.8031 122.401 L 33.943 122.653 L 34.4533 123.444 L 34.4853 123.517 L 34.5944 123.743 L 34.9531 124.477 L 35.0857 124.726 L 35.3701 125.455 L 35.3702 125.454 L 35.6551 126.19 L 35.7057 126.424 L 35.8164 126.88 L 35.9261 127.406 L 35.7195 127.544 L 35.0825 127.712 L 34.5308 127.25 L 34.3994 127.15 L 34.3387 127.081 L 33.8473 126.386 L 33.2993 125.662 L 33.2637 125.622 L 33.2319 125.59 L 32.6147 124.875 L 32.601 124.859 L 32.5382 124.768 L 32.16 124.382 L 31.7558 123.979 L 31.6254 123.872 L 31.0626 123.363 L 30.6979 122.811 L 30.6274 122.555 L 30.7202 122.337 L 30.9545 121.665 L 31.2114 121.282 L 31.6063 121.098 L 32.0935 120.816 L 32.7056 121.021" fill="none" stroke="#B8860B" stroke-width="0.05000" fill-rule="evenodd" fill-opacity="1.000"/>
    <path d="M 31.6526 121.187 L 31.2789 121.361 L 31.0445 121.71 L 30.8135 122.373 L 30.733 122.562 L 30.8293 122.91 L 31.1372 123.377 L 31.3713 123.589 L 31.8405 123.973 L 32.485 124.615 L 32.6459 124.758 L 33.3049 125.522 L 33.3363 125.553 L 33.3766 125.599 L 33.928 126.327 L 34.4173 127.019 L 34.4678 127.076 L 34.5933 127.172 L 35.107 127.602 L 35.6778 127.451 L 35.8144 127.36 L 35.7192 126.904 L 35.6082 126.447 L 35.559 126.219 L 35.3012 125.553 L 34.9947 124.768 L 34.864 124.522 L 34.5045 123.786 L 34.3945 123.559 L 34.3649 123.491 L 33.8572 122.705 L 33.7182 122.454 L 33.3651 121.952 L 33.2745 121.839 L 32.9055 121.392 L 32.6829 121.12 L 32.67 121.115 L 32.1044 120.925 L 31.6526 121.187" fill="none" stroke="#B8860B" stroke-width="0.05000" fill-rule="evenodd" fill-opacity="1.000"/>
    <path d="M 44.9812 108.471 L 45.2588 108.602 L 45.8082 108.797 L 46.1323 109.024 L 46.4055 109.379 L 46.8369 109.898 L 46.8369 109.898 L 47.0495 110.159 L 47.0495 110.159 L 47.5684 110.816 L 47.5944 110.839 L 47.6346 110.879 L 48.287 111.508 L 48.2872 111.508 L 48.6484 111.856 L 48.7749 111.941 L 48.9814 112.095 L 49.4655 112.435 L 49.6854 112.624 L 50.1734 112.941 L 50.8739 113.49 L 50.9133 113.512 L 50.9907 113.563 L 51.7335 114.038 L 52.0402 114.276 L 52.497 114.641 L 53.0137 115.254 L 53.0513 115.308 L 53.0313 115.394 L 53.1318 116.294 L 52.3047 116.316 L 52.2593 116.332 L 52.2508 116.326 L 51.4162 115.816 L 51.2126 115.684 L 50.4275 115.219 L 50.137 115.042 L 49.4938 114.693 L 48.865 114.347 L 48.694 114.264 L 47.8999 113.803 L 47.7265 113.718 L 46.9892 113.219 L 46.622 113.006 L 46.0641 112.566 L 45.3648 112.019 L 45.3106 111.955 L 45.2193 111.86 L 44.6449 111.232 L 44.3247 110.908 L 44.1198 110.509 L 43.744 109.827 L 43.7572 109.624 L 43.8454 109.052 L 44.0957 108.808 L 44.5391 108.513 L 44.826 108.404 L 44.9812 108.471" fill="none" stroke="#B8860B" stroke-width="0.05000" fill-rule="evenodd" fill-opacity="1.000"/>
    <path d="M 44.5852 108.603 L 44.1588 108.885 L 43.9391 109.1 L 43.8567 109.634 L 43.8456 109.804 L 44.2081 110.462 L 44.4067 110.849 L 44.7174 111.163 L 45.2925 111.792 L 45.3847 111.888 L 45.4343 111.946 L 46.1259 112.487 L 46.6787 112.924 L 47.0423 113.134 L 47.7769 113.631 L 47.9471 113.715 L 48.7405 114.175 L 48.911 114.258 L 49.5421 114.606 L 49.542 114.606 L 50.1868 114.955 L 50.4785 115.133 L 51.2654 115.599 L 51.4698 115.732 L 52.2714 116.222 L 52.2866 116.216 L 53.0203 116.197 L 52.93 115.388 L 52.9438 115.328 L 52.9342 115.314 L 52.4268 114.712 L 51.9789 114.355 L 51.6756 114.12 L 50.9363 113.647 L 50.8614 113.598 L 50.8184 113.574 L 50.1155 113.023 L 49.6253 112.704 L 49.404 112.514 L 48.9227 112.176 L 48.7158 112.022 L 48.5853 111.934 L 48.2469 111.608 L 48.2466 111.608 L 47.5646 110.951 L 47.5262 110.912 L 47.4956 110.886 L 46.9742 110.225 L 46.7557 109.957 L 46.3274 109.441 L 46.0622 109.097 L 45.762 108.886 L 45.2207 108.694 L 44.9386 108.562 L 44.8236 108.512 L 44.5852 108.603" fill="none" stroke="#B8860B" stroke-width="0.05000" fill-rule="evenodd" fill-opacity="1.000"/>
    </g>
    <g class="thermal-contour" data-segment="6" data-name="HollowShell2Contour_Overhang">
    <path d="M 31.0626 123.363 L 31.6254 123.872 L 31.7558 123.979 L 32.16 124.382 L 32.5382 124.768 L 32.601 124.859 L 32.6147 124.875 L 32.5744 124.828 L 32.4157 124.687 L 31.7734 124.047 L 31.3064 123.665 L 31.0606 123.442 L 30.7372 122.953 L 30.6979 122.811 L 31.0626 123.363" fill="none" stroke="#006400" stroke-width="0.05000" fill-rule="evenodd" fill-opacity="1.000"/>
    </g>
    <g class="thermal-contour" data-segment="9" data-name="CoreContourHatch">
    <path d="M 32.6444 121.173 L 32.8568 121.432 L 33.2261 121.879 L 33.3145 121.99 L 33.6648 122.488 L 33.803 122.737 L 34.309 123.521 L 34.3371 123.585 L 34.4477 123.814 L 34.4478 123.814 L 34.8081 124.551 L 34.808 124.551 L 34.9375 124.795 L 35.2425 125.576 L 35.4983 126.237 L 35.5467 126.46 L 35.658 126.919 L 35.7439 127.331 L 35.6514 127.393 L 35.1224 127.533 L 34.6322 127.123 L 34.5108 127.03 L 34.4671 126.98 L 33.9791 126.29 L 33.426 125.559 L 33.3815 125.509 L 33.3518 125.48 L 32.6911 124.714 L 32.5281 124.568 L 31.8827 123.926 L 31.4116 123.54 L 31.1853 123.336 L 30.8874 122.884 L 30.7996 122.566 L 30.8721 122.396 L 31.1013 121.738 L 31.3213 121.41 L 31.6817 121.243 L 32.1113 120.993 L 32.6444 121.173" fill="none" stroke="#800080" stroke-width="0.05000" fill-rule="evenodd" fill-opacity="1.000"/>
    <path d="M 31.6942 121.267 L 31.3395 121.432 L 31.1257 121.75 L 30.8975 122.405 L 30.8281 122.568 L 30.9123 122.873 L 31.206 123.318 L 31.4292 123.52 L 31.9009 123.906 L 32.5466 124.549 L 32.7102 124.695 L 33.3715 125.462 L 33.4017 125.491 L 33.4462 125.541 L 34.0006 126.274 L 34.4883 126.963 L 34.5293 127.01 L 34.6495 127.102 L 35.129 127.503 L 35.6402 127.368 L 35.7138 127.319 L 35.6317 126.925 L 35.5205 126.467 L 35.4724 126.244 L 35.2173 125.586 L 35.2173 125.586 L 34.9129 124.806 L 34.7838 124.563 L 34.4235 123.826 L 34.3128 123.596 L 34.2852 123.534 L 33.7799 122.751 L 33.6419 122.502 L 33.2929 122.006 L 33.2051 121.896 L 32.836 121.449 L 32.6284 121.196 L 32.1143 121.023 L 31.6942 121.267" fill="none" stroke="#800080" stroke-width="0.05000" fill-rule="evenodd" fill-opacity="1.000"/>
    <path d="M 44.9133 108.619 L 45.196 108.752 L 45.7327 108.943 L 46.018 109.143 L 46.2785 109.481 L 46.713 110.004 L 46.713 110.004 L 46.9305 110.271 L 46.9305 110.271 L 47.4496 110.929 L 47.483 110.958 L 47.5207 110.996 L 47.5206 110.996 L 48.2211 111.671 L 48.2215 111.671 L 48.5455 111.983 L 48.6776 112.072 L 48.8854 112.227 L 49.3655 112.564 L 49.5877 112.755 L 50.0792 113.074 L 50.7832 113.626 L 50.8288 113.652 L 50.9021 113.7 L 50.902 113.7 L 51.639 114.171 L 51.9404 114.405 L 52.3827 114.758 L 52.8757 115.343 L 52.8662 115.384 L 52.9501 116.136 L 52.2807 116.154 L 51.5023 115.678 L 51.2991 115.546 L 50.4937 115.068 L 50.4937 115.068 L 50.2177 114.9 L 50.2177 114.9 L 49.5778 114.554 L 48.9406 114.202 L 48.9406 114.202 L 48.7704 114.12 L 47.9761 113.659 L 47.8083 113.577 L 47.0757 113.081 L 46.714 112.871 L 46.1649 112.438 L 45.478 111.9 L 45.4308 111.845 L 45.4308 111.845 L 45.3376 111.748 L 44.7635 111.12 L 44.4585 110.811 L 44.2636 110.432 L 44.2636 110.432 L 43.9096 109.79 L 43.9193 109.641 L 43.9981 109.131 L 44.1984 108.935 L 44.614 108.659 L 44.8221 108.58 L 44.9133 108.619" fill="none" stroke="#800080" stroke-width="0.05000" fill-rule="evenodd" fill-opacity="1.000"/>
    <path d="M 44.6264 108.683 L 44.2155 108.956 L 44.0234 109.144 L 43.9462 109.644 L 43.9371 109.784 L 44.2876 110.419 L 44.4806 110.795 L 44.7827 111.101 L 45.3573 111.73 L 45.4514 111.827 L 45.4968 111.881 L 46.1815 112.416 L 46.7292 112.849 L 47.0901 113.058 L 47.8219 113.553 L 47.9896 113.636 L 48.7831 114.096 L 48.9524 114.178 L 49.5907 114.53 L 50.2317 114.877 L 50.5253 115.056 L 50.5252 115.056 L 51.3129 115.522 L 51.5167 115.655 L 52.288 116.126 L 52.92 116.11 L 52.8389 115.383 L 52.8464 115.35 L 52.3638 114.777 L 51.9237 114.426 L 51.6234 114.193 L 50.8873 113.722 L 50.8148 113.675 L 50.7685 113.649 L 50.0635 113.096 L 49.5712 112.777 L 49.3489 112.586 L 48.8699 112.249 L 48.6619 112.094 L 48.5285 112.004 L 48.2106 111.698 L 48.2103 111.698 L 47.5016 111.015 L 47.4646 110.978 L 47.4301 110.948 L 46.9035 110.28 L 46.9035 110.28 L 46.686 110.014 L 46.686 110.014 L 46.2571 109.497 L 45.9991 109.163 L 45.7202 108.967 L 45.1864 108.778 L 44.9022 108.644 L 44.8215 108.609 L 44.6264 108.683" fill="none" stroke="#800080" stroke-width="0.05000" fill-rule="evenodd" fill-opacity="1.000"/>
    </g>
    <!-- ===== Thermal Segment Colour Legend ===== -->
    <g id="thermal-legend">
    <rect x="161.0000" y="5.0000" width="40.0000" height="72.0000"
          rx="1" ry="1"
          fill="#fafafa" stroke="#cccccc" stroke-width="0.15"/>
    <text x="181.0000" y="7.6000" font-family="sans-serif" font-size="2.2000" font-weight="bold" fill="#222222" text-anchor="middle">Thermal Segments</text>
    <line x1="161.5000" y1="8.7000" x2="200.5000" y2="8.7000" stroke="#bbbbbb" stroke-width="0.1"/>
    <rect x="161.8000" y="9.0000" width="3.5000" height="2.0000" fill="#000000" stroke="#333333" stroke-width="0.08" rx="0.3" ry="0.3"/>
    <text x="168.6000" y="10.9000" font-family="monospace" font-size="1.6000" fill="#444444" text-anchor="end"> 1</text>
    <text x="169.6000" y="10.9000" font-family="sans-serif" font-size="1.6000" fill="#111111">CoreContour_Volume</text>
    <rect x="161.8000" y="12.0000" width="3.5000" height="2.0000" fill="#8B0000" stroke="#333333" stroke-width="0.08" rx="0.3" ry="0.3"/>
    <text x="168.6000" y="13.9000" font-family="monospace" font-size="1.6000" fill="#444444" text-anchor="end"> 2</text>
    <text x="169.6000" y="13.9000" font-family="sans-serif" font-size="1.6000" fill="#111111">CoreContour_Overhang</text>
    <rect x="161.8000" y="15.0000" width="3.5000" height="2.0000" fill="#0000CC" stroke="#333333" stroke-width="0.08" rx="0.3" ry="0.3"/>
    <text x="168.6000" y="16.9000" font-family="monospace" font-size="1.6000" fill="#444444" text-anchor="end"> 3</text>
    <text x="169.6000" y="16.9000" font-family="sans-serif" font-size="1.6000" fill="#111111">Shell1Contour_Volume</text>
    <rect x="161.8000" y="18.0000" width="3.5000" height="2.0000" fill="#000080" stroke="#333333" stroke-width="0.08" rx="0.3" ry="0.3"/>
    <text x="168.6000" y="19.9000" font-family="monospace" font-size="1.6000" fill="#444444" text-anchor="end"> 4</text>
    <text x="169.6000" y="19.9000" font-family="sans-serif" font-size="1.6000" fill="#111111">Shell1Contour_Overhang</text>
    <rect x="161.8000" y="21.0000" width="3.5000" height="2.0000" fill="#B8860B" stroke="#333333" stroke-width="0.08" rx="0.3" ry="0.3"/>
    <text x="168.6000" y="22.9000" font-family="monospace" font-size="1.6000" fill="#444444" text-anchor="end"> 5</text>
    <text x="169.6000" y="22.9000" font-family="sans-serif" font-size="1.6000" fill="#111111">Shell2Contour_Volume</text>
    <rect x="161.8000" y="24.0000" width="3.5000" height="2.0000" fill="#006400" stroke="#333333" stroke-width="0.08" rx="0.3" ry="0.3"/>
    <text x="168.6000" y="25.9000" font-family="monospace" font-size="1.6000" fill="#444444" text-anchor="end"> 6</text>
    <text x="169.6000" y="25.9000" font-family="sans-serif" font-size="1.6000" fill="#111111">Shell2Contour_Overhang</text>
    <rect x="161.8000" y="27.0000" width="3.5000" height="2.0000" fill="#FF8C00" stroke="#333333" stroke-width="0.08" rx="0.3" ry="0.3"/>
    <text x="168.6000" y="28.9000" font-family="monospace" font-size="1.6000" fill="#444444" text-anchor="end"> 7</text>
    <text x="169.6000" y="28.9000" font-family="sans-serif" font-size="1.6000" fill="#111111">CoreOverhangHatch</text>
    <rect x="161.8000" y="30.0000" width="3.5000" height="2.0000" fill="#228B22" stroke="#333333" stroke-width="0.08" rx="0.3" ry="0.3"/>
    <text x="168.6000" y="31.9000" font-family="monospace" font-size="1.6000" fill="#444444" text-anchor="end"> 8</text>
    <text x="169.6000" y="31.9000" font-family="sans-serif" font-size="1.6000" fill="#111111">CoreNormalHatch</text>
    <rect x="161.8000" y="33.0000" width="3.5000" height="2.0000" fill="#800080" stroke="#333333" stroke-width="0.08" rx="0.3" ry="0.3"/>
    <text x="168.6000" y="34.9000" font-family="monospace" font-size="1.6000" fill="#444444" text-anchor="end"> 9</text>
    <text x="169.6000" y="34.9000" font-family="sans-serif" font-size="1.6000" fill="#111111">CoreContourHatch</text>
    <rect x="161.8000" y="36.0000" width="3.5000" height="2.0000" fill="#FF69B4" stroke="#333333" stroke-width="0.08" rx="0.3" ry="0.3"/>
    <text x="168.6000" y="37.9000" font-family="monospace" font-size="1.6000" fill="#444444" text-anchor="end">10</text>
    <text x="169.6000" y="37.9000" font-family="sans-serif" font-size="1.6000" fill="#111111">Shell1OverhangHatch</text>
    <rect x="161.8000" y="39.0000" width="3.5000" height="2.0000" fill="#00CED1" stroke="#333333" stroke-width="0.08" rx="0.3" ry="0.3"/>
    <text x="168.6000" y="40.9000" font-family="monospace" font-size="1.6000" fill="#444444" text-anchor="end">11</text>
    <text x="169.6000" y="40.9000" font-family="sans-serif" font-size="1.6000" fill="#111111">Shell1NormalHatch</text>
    <rect x="161.8000" y="42.0000" width="3.5000" height="2.0000" fill="#FF00FF" stroke="#333333" stroke-width="0.08" rx="0.3" ry="0.3"/>
    <text x="168.6000" y="43.9000" font-family="monospace" font-size="1.6000" fill="#444444" text-anchor="end">12</text>
    <text x="169.6000" y="43.9000" font-family="sans-serif" font-size="1.6000" fill="#111111">Shell1ContourHatch</text>
    <rect x="161.8000" y="45.0000" width="3.5000" height="2.0000" fill="#A52A2A" stroke="#333333" stroke-width="0.08" rx="0.3" ry="0.3"/>
    <text x="168.6000" y="46.9000" font-family="monospace" font-size="1.6000" fill="#444444" text-anchor="end">13</text>
    <text x="169.6000" y="46.9000" font-family="sans-serif" font-size="1.6000" fill="#111111">Shell2OverhangHatch</text>
    <rect x="161.8000" y="48.0000" width="3.5000" height="2.0000" fill="#808080" stroke="#333333" stroke-width="0.08" rx="0.3" ry="0.3"/>
    <text x="168.6000" y="49.9000" font-family="monospace" font-size="1.6000" fill="#444444" text-anchor="end">14</text>
    <text x="169.6000" y="49.9000" font-family="sans-serif" font-size="1.6000" fill="#111111">Shell2NormalHatch</text>
    <rect x="161.8000" y="51.0000" width="3.5000" height="2.0000" fill="#32CD32" stroke="#333333" stroke-width="0.08" rx="0.3" ry="0.3"/>
    <text x="168.6000" y="52.9000" font-family="monospace" font-size="1.6000" fill="#444444" text-anchor="end">15</text>
    <text x="169.6000" y="52.9000" font-family="sans-serif" font-size="1.6000" fill="#111111">Shell2ContourHatch</text>
    <rect x="161.8000" y="54.0000" width="3.5000" height="2.0000" fill="#1A237E" stroke="#333333" stroke-width="0.08" rx="0.3" ry="0.3"/>
    <text x="168.6000" y="55.9000" font-family="monospace" font-size="1.6000" fill="#444444" text-anchor="end">16</text>
    <text x="169.6000" y="55.9000" font-family="sans-serif" font-size="1.6000" fill="#111111">SupportContourVolume</text>
    <rect x="161.8000" y="57.0000" width="3.5000" height="2.0000" fill="#827717" stroke="#333333" stroke-width="0.08" rx="0.3" ry="0.3"/>
    <text x="168.6000" y="58.9000" font-family="monospace" font-size="1.6000" fill="#444444" text-anchor="end">17</text>
    <text x="169.6000" y="58.9000" font-family="sans-serif" font-size="1.6000" fill="#111111">SupportHatch</text>
    <rect x="161.8000" y="60.0000" width="3.5000" height="2.0000" fill="#006064" stroke="#333333" stroke-width="0.08" rx="0.3" ry="0.3"/>
    <text x="168.6000" y="61.9000" font-family="monospace" font-size="1.6000" fill="#444444" text-anchor="end">18</text>
    <text x="169.6000" y="61.9000" font-family="sans-serif" font-size="1.6000" fill="#111111">PointSequence</text>
    <rect x="161.8000" y="63.0000" width="3.5000" height="2.0000" fill="#B71C1C" stroke="#333333" stroke-width="0.08" rx="0.3" ry="0.3"/>
    <text x="168.6000" y="64.9000" font-family="monospace" font-size="1.6000" fill="#444444" text-anchor="end">19</text>
    <text x="169.6000" y="64.9000" font-family="sans-serif" font-size="1.6000" fill="#111111">ExternalSupports</text>
    <rect x="161.8000" y="66.0000" width="3.5000" height="2.0000" fill="#E64A19" stroke="#333333" stroke-width="0.08" rx="0.3" ry="0.3"/>
    <text x="168.6000" y="67.9000" font-family="monospace" font-size="1.6000" fill="#444444" text-anchor="end">20</text>
    <text x="169.6000" y="67.9000" font-family="sans-serif" font-size="1.6000" fill="#111111">CoreContourHatchOverhang</text>
    <rect x="161.8000" y="69.0000" width="3.5000" height="2.0000" fill="#311B92" stroke="#333333" stroke-width="0.08" rx="0.3" ry="0.3"/>
    <text x="168.6000" y="70.9000" font-family="monospace" font-size="1.6000" fill="#444444" text-anchor="end">21</text>
    <text x="169.6000" y="70.9000" font-family="sans-serif" font-size="1.6000" fill="#111111">Shell1ContourHatchOverhang</text>
    <rect x="161.8000" y="72.0000" width="3.5000" height="2.0000" fill="#880E4F" stroke="#333333" stroke-width="0.08" rx="0.3" ry="0.3"/>
    <text x="168.6000" y="73.9000" font-family="monospace" font-size="1.6000" fill="#444444" text-anchor="end">22</text>
    <text x="169.6000" y="73.9000" font-family="sans-serif" font-size="1.6000" fill="#111111">Shell2ContourHatchOverhang</text>
    </g>
  </g>
</svg>
