<?xml version="1.0" encoding="UTF-8" standalone="yes"?>
<svg xmlns="http://www.w3.org/2000/svg"
     xmlns:xlink="http://www.w3.org/1999/xlink"
     width="2020.0000mm" height="1600.0000mm"
     viewBox="0 0 202.000000 160.000000">
  <!--
    Build plate : 150.00 x 150.00 mm
    Coordinate  : 1 SVG unit = 1 mm
    Display zoom: 10x  (width/height = viewBox x 10)
    Hatch stroke: 0.04 mm = ~28 mm on screen at this zoom
    Legend panel: right margin (42 mm wide)
  -->
  <defs>
    <marker id="endArrow" markerWidth="2" markerHeight="1.4"
            refX="0" refY="0.7" orient="auto"
            markerUnits="strokeWidth">
      <polyline fill="darkblue" points="0,0 2,0.7 0,1.4 0.2,0.7"/>
    </marker>
  </defs>
  <!-- Background -->
  <rect x="0" y="0" width="202.000000" height="160.000000" fill="#f0f0f0" stroke="none"/>
  <!-- Build plate boundary (150 x 150 mm) -->
  <rect x="5.000000" y="5.000000" width="150.000000" height="150.000000"
        fill="#ffffff" stroke="#aaaaaa" stroke-width="0.2" stroke-dasharray="1,0.5"/>
  <!-- Build plate centre circle (r = 75.00 mm) -->
  <circle cx="80.000000" cy="80.000000" r="75.000000"
          fill="none" stroke="#bbbbbb" stroke-width="0.15" stroke-dasharray="0.8,0.4"/>
  <!-- Centre cross-hair -->
  <line x1="5.000000" y1="80.000000" x2="155.000000" y2="80.000000" stroke="#cccccc" stroke-width="0.1"/>
  <line x1="80.000000" y1="5.000000" x2="80.000000" y2="155.000000" stroke="#cccccc" stroke-width="0.1"/>
  <circle cx="80.000000" cy="80.000000" r="0.3" fill="#cccccc" stroke="none"/>
  <!-- Corner labels -->
  <text x="5.400000" y="4.600000" font-family="sans-serif" font-size="2" fill="#888888">0,0</text>
  <text x="154.600006" y="4.600000" font-family="sans-serif" font-size="2" fill="#888888" text-anchor="end">150,0</text>
  <text x="5.400000" y="157.199997" font-family="sans-serif" font-size="2" fill="#888888">0,150</text>
  <!-- Layer geometry -->
  <g id="geometry">
    <g class="thermal-hatch" data-segment="8" data-name="CoreNormalHatch">
      <line x1="35.97479" y1="126.86975" x2="35.06587" y2="127.81097" stroke="#228B22" stroke-width="0.04000"/>
      <line x1="36.00270" y1="126.98480" x2="35.24306" y2="127.77143" stroke="#228B22" stroke-width="0.04000"/>
      <line x1="35.94688" y1="126.75469" x2="34.98896" y2="127.74665" stroke="#228B22" stroke-width="0.04000"/>
      <line x1="36.03061" y1="127.09986" x2="35.42950" y2="127.72233" stroke="#228B22" stroke-width="0.04000"/>
      <line x1="35.91897" y1="126.63964" x2="34.91205" y2="127.68234" stroke="#228B22" stroke-width="0.04000"/>
      <line x1="36.05852" y1="127.21491" x2="35.61592" y2="127.67323" stroke="#228B22" stroke-width="0.04000"/>
      <line x1="36.08643" y1="127.32996" x2="35.80236" y2="127.62413" stroke="#228B22" stroke-width="0.04000"/>
      <line x1="35.89106" y1="126.52459" x2="34.83514" y2="127.61803" stroke="#228B22" stroke-width="0.04000"/>
      <line x1="36.11434" y1="127.44501" x2="35.98878" y2="127.57504" stroke="#228B22" stroke-width="0.04000"/>
      <line x1="35.86362" y1="126.40906" x2="34.75823" y2="127.55372" stroke="#228B22" stroke-width="0.04000"/>
      <line x1="35.83819" y1="126.29143" x2="34.68131" y2="127.48940" stroke="#228B22" stroke-width="0.04000"/>
      <line x1="35.81276" y1="126.17381" x2="34.60441" y2="127.42509" stroke="#228B22" stroke-width="0.04000"/>
      <line x1="35.78733" y1="126.05618" x2="34.52749" y2="127.36078" stroke="#228B22" stroke-width="0.04000"/>
      <line x1="35.76190" y1="125.93857" x2="34.45156" y2="127.29546" stroke="#228B22" stroke-width="0.04000"/>
      <line x1="35.73381" y1="125.82369" x2="34.37876" y2="127.22689" stroke="#228B22" stroke-width="0.04000"/>
      <line x1="35.69401" y1="125.72095" x2="34.31761" y2="127.14626" stroke="#228B22" stroke-width="0.04000"/>
      <line x1="35.65421" y1="125.61822" x2="34.26558" y2="127.05618" stroke="#228B22" stroke-width="0.04000"/>
      <line x1="35.61440" y1="125.51548" x2="34.21178" y2="126.96794" stroke="#228B22" stroke-width="0.04000"/>
      <line x1="35.57458" y1="125.41277" x2="34.15298" y2="126.88486" stroke="#228B22" stroke-width="0.04000"/>
      <line x1="35.53456" y1="125.31025" x2="34.09420" y2="126.80178" stroke="#228B22" stroke-width="0.04000"/>
      <line x1="35.49454" y1="125.20773" x2="34.03542" y2="126.71870" stroke="#228B22" stroke-width="0.04000"/>
      <line x1="35.45452" y1="125.10522" x2="33.97663" y2="126.63561" stroke="#228B22" stroke-width="0.04000"/>
      <line x1="35.41450" y1="125.00270" x2="33.91785" y2="126.55254" stroke="#228B22" stroke-width="0.04000"/>
      <line x1="35.37448" y1="124.90018" x2="33.85906" y2="126.46945" stroke="#228B22" stroke-width="0.04000"/>
      <line x1="35.33447" y1="124.79767" x2="33.80027" y2="126.38637" stroke="#228B22" stroke-width="0.04000"/>
      <line x1="35.29445" y1="124.69515" x2="33.73943" y2="126.30543" stroke="#228B22" stroke-width="0.04000"/>
      <line x1="35.25443" y1="124.59264" x2="33.67836" y2="126.22471" stroke="#228B22" stroke-width="0.04000"/>
      <line x1="35.21404" y1="124.49051" x2="33.61729" y2="126.14399" stroke="#228B22" stroke-width="0.04000"/>
      <line x1="35.17536" y1="124.38661" x2="33.55623" y2="126.06327" stroke="#228B22" stroke-width="0.04000"/>
      <line x1="35.13056" y1="124.28904" x2="33.49516" y2="125.98255" stroke="#228B22" stroke-width="0.04000"/>
      <line x1="35.08421" y1="124.19309" x2="33.43409" y2="125.90183" stroke="#228B22" stroke-width="0.04000"/>
      <line x1="35.03784" y1="124.09714" x2="33.37438" y2="125.81970" stroke="#228B22" stroke-width="0.04000"/>
      <line x1="34.99149" y1="124.00119" x2="33.31651" y2="125.73567" stroke="#228B22" stroke-width="0.04000"/>
      <line x1="34.94513" y1="123.90524" x2="33.25864" y2="125.65164" stroke="#228B22" stroke-width="0.04000"/>
      <line x1="34.89877" y1="123.80930" x2="33.19841" y2="125.57006" stroke="#228B22" stroke-width="0.04000"/>
      <line x1="34.85241" y1="123.71334" x2="33.13375" y2="125.49306" stroke="#228B22" stroke-width="0.04000"/>
      <line x1="34.80605" y1="123.61739" x2="33.06908" y2="125.41607" stroke="#228B22" stroke-width="0.04000"/>
      <line x1="34.75969" y1="123.52145" x2="33.00443" y2="125.33907" stroke="#228B22" stroke-width="0.04000"/>
      <line x1="34.71458" y1="123.42419" x2="32.93976" y2="125.26208" stroke="#228B22" stroke-width="0.04000"/>
      <line x1="34.67113" y1="123.32524" x2="32.87510" y2="125.18508" stroke="#228B22" stroke-width="0.04000"/>
      <line x1="34.62767" y1="123.22629" x2="32.81044" y2="125.10809" stroke="#228B22" stroke-width="0.04000"/>
      <line x1="34.58421" y1="123.12733" x2="32.74577" y2="125.03109" stroke="#228B22" stroke-width="0.04000"/>
      <line x1="34.53274" y1="123.03668" x2="32.68111" y2="124.95409" stroke="#228B22" stroke-width="0.04000"/>
      <line x1="34.47705" y1="122.95039" x2="32.61645" y2="124.87710" stroke="#228B22" stroke-width="0.04000"/>
      <line x1="34.42137" y1="122.86410" x2="32.55671" y2="124.79501" stroke="#228B22" stroke-width="0.04000"/>
      <line x1="34.36568" y1="122.77780" x2="32.49050" y2="124.71961" stroke="#228B22" stroke-width="0.04000"/>
      <line x1="34.31000" y1="122.69151" x2="32.42054" y2="124.64811" stroke="#228B22" stroke-width="0.04000"/>
      <line x1="34.25431" y1="122.60522" x2="32.35058" y2="124.57660" stroke="#228B22" stroke-width="0.04000"/>
      <line x1="34.20196" y1="122.51549" x2="32.28061" y2="124.50510" stroke="#228B22" stroke-width="0.04000"/>
      <line x1="34.15129" y1="122.42400" x2="32.21065" y2="124.43359" stroke="#228B22" stroke-width="0.04000"/>
      <line x1="34.10063" y1="122.33250" x2="32.14044" y2="124.36234" stroke="#228B22" stroke-width="0.04000"/>
      <line x1="34.04996" y1="122.24101" x2="32.06958" y2="124.29176" stroke="#228B22" stroke-width="0.04000"/>
      <line x1="33.99930" y1="122.14951" x2="31.99872" y2="124.22118" stroke="#228B22" stroke-width="0.04000"/>
      <line x1="33.94828" y1="122.05840" x2="31.92786" y2="124.15060" stroke="#228B22" stroke-width="0.04000"/>
      <line x1="33.88967" y1="121.97513" x2="31.85701" y2="124.08002" stroke="#228B22" stroke-width="0.04000"/>
      <line x1="33.83106" y1="121.89186" x2="31.78615" y2="124.00943" stroke="#228B22" stroke-width="0.04000"/>
      <line x1="33.77245" y1="121.80860" x2="31.71140" y2="123.94289" stroke="#228B22" stroke-width="0.04000"/>
      <line x1="33.71384" y1="121.72533" x2="31.63373" y2="123.87935" stroke="#228B22" stroke-width="0.04000"/>
      <line x1="33.65565" y1="121.64164" x2="31.55919" y2="123.81259" stroke="#228B22" stroke-width="0.04000"/>
      <line x1="33.60558" y1="121.54953" x2="31.48502" y2="123.74544" stroke="#228B22" stroke-width="0.04000"/>
      <line x1="33.55551" y1="121.45743" x2="31.41085" y2="123.67828" stroke="#228B22" stroke-width="0.04000"/>
      <line x1="33.50330" y1="121.36755" x2="31.33669" y2="123.61113" stroke="#228B22" stroke-width="0.04000"/>
      <line x1="33.43948" y1="121.28967" x2="31.26252" y2="123.54398" stroke="#228B22" stroke-width="0.04000"/>
      <line x1="33.37566" y1="121.21181" x2="31.18835" y2="123.47683" stroke="#228B22" stroke-width="0.04000"/>
      <line x1="33.31184" y1="121.13393" x2="31.11418" y2="123.40968" stroke="#228B22" stroke-width="0.04000"/>
      <line x1="33.24802" y1="121.05607" x2="31.04542" y2="123.33692" stroke="#228B22" stroke-width="0.04000"/>
      <line x1="33.18420" y1="120.97820" x2="30.98898" y2="123.25142" stroke="#228B22" stroke-width="0.04000"/>
      <line x1="33.12077" y1="120.89993" x2="30.93253" y2="123.16592" stroke="#228B22" stroke-width="0.04000"/>
      <line x1="33.06683" y1="120.81183" x2="30.87608" y2="123.08041" stroke="#228B22" stroke-width="0.04000"/>
      <line x1="33.01289" y1="120.72372" x2="30.81963" y2="122.99491" stroke="#228B22" stroke-width="0.04000"/>
      <line x1="32.95895" y1="120.63563" x2="30.76319" y2="122.90941" stroke="#228B22" stroke-width="0.04000"/>
      <line x1="32.88462" y1="120.56863" x2="30.70674" y2="122.82391" stroke="#228B22" stroke-width="0.04000"/>
      <line x1="32.78582" y1="120.52699" x2="30.65029" y2="122.73840" stroke="#228B22" stroke-width="0.04000"/>
      <line x1="32.68702" y1="120.48535" x2="30.59385" y2="122.65290" stroke="#228B22" stroke-width="0.04000"/>
      <line x1="32.58822" y1="120.44370" x2="30.53652" y2="122.56830" stroke="#228B22" stroke-width="0.04000"/>
      <line x1="32.48942" y1="120.40206" x2="30.47334" y2="122.48977" stroke="#228B22" stroke-width="0.04000"/>
      <line x1="32.39062" y1="120.36042" x2="30.45488" y2="122.36493" stroke="#228B22" stroke-width="0.04000"/>
      <line x1="32.29182" y1="120.31878" x2="30.47991" y2="122.19506" stroke="#228B22" stroke-width="0.04000"/>
      <line x1="32.19302" y1="120.27713" x2="30.55855" y2="121.96967" stroke="#228B22" stroke-width="0.04000"/>
      <line x1="31.99428" y1="120.33897" x2="30.63720" y2="121.74428" stroke="#228B22" stroke-width="0.04000"/>
      <line x1="31.67552" y1="120.52510" x2="30.71584" y2="121.51888" stroke="#228B22" stroke-width="0.04000"/>
      <line x1="31.36023" y1="120.70764" x2="31.00411" y2="121.07642" stroke="#228B22" stroke-width="0.04000"/>
    </g>
    <g class="thermal-hatch" data-segment="8" data-name="CoreNormalHatch">
      <line x1="53.12571" y1="115.75428" x2="52.48455" y2="116.41821" stroke="#228B22" stroke-width="0.04000"/>
      <line x1="53.14011" y1="115.88332" x2="52.62717" y2="116.41449" stroke="#228B22" stroke-width="0.04000"/>
      <line x1="53.15451" y1="116.01236" x2="52.76978" y2="116.41077" stroke="#228B22" stroke-width="0.04000"/>
      <line x1="53.16891" y1="116.14140" x2="52.91239" y2="116.40704" stroke="#228B22" stroke-width="0.04000"/>
      <line x1="53.18332" y1="116.27045" x2="53.05500" y2="116.40331" stroke="#228B22" stroke-width="0.04000"/>
      <line x1="53.19772" y1="116.39949" x2="53.19762" y2="116.39959" stroke="#228B22" stroke-width="0.04000"/>
      <line x1="53.14078" y1="115.59471" x2="52.37406" y2="116.38867" stroke="#228B22" stroke-width="0.04000"/>
      <line x1="53.18475" y1="115.40522" x2="52.27924" y2="116.34290" stroke="#228B22" stroke-width="0.04000"/>
      <line x1="53.20026" y1="115.24521" x2="52.18711" y2="116.29435" stroke="#228B22" stroke-width="0.04000"/>
      <line x1="53.14199" y1="115.16160" x2="52.09745" y2="116.24324" stroke="#228B22" stroke-width="0.04000"/>
      <line x1="53.08371" y1="115.07798" x2="52.00779" y2="116.19213" stroke="#228B22" stroke-width="0.04000"/>
      <line x1="53.02544" y1="114.99437" x2="51.91814" y2="116.14101" stroke="#228B22" stroke-width="0.04000"/>
      <line x1="52.96681" y1="114.91113" x2="51.82848" y2="116.08990" stroke="#228B22" stroke-width="0.04000"/>
      <line x1="52.90204" y1="114.83424" x2="51.73882" y2="116.03880" stroke="#228B22" stroke-width="0.04000"/>
      <line x1="52.83726" y1="114.75737" x2="51.64916" y2="115.98768" stroke="#228B22" stroke-width="0.04000"/>
      <line x1="52.77249" y1="114.68049" x2="51.55951" y2="115.93657" stroke="#228B22" stroke-width="0.04000"/>
      <line x1="52.70771" y1="114.60361" x2="51.46985" y2="115.88545" stroke="#228B22" stroke-width="0.04000"/>
      <line x1="52.64232" y1="114.52737" x2="51.38019" y2="115.83434" stroke="#228B22" stroke-width="0.04000"/>
      <line x1="52.56377" y1="114.46475" x2="51.29030" y2="115.78347" stroke="#228B22" stroke-width="0.04000"/>
      <line x1="52.48523" y1="114.40213" x2="51.20101" y2="115.73198" stroke="#228B22" stroke-width="0.04000"/>
      <line x1="52.40668" y1="114.33952" x2="51.11250" y2="115.67969" stroke="#228B22" stroke-width="0.04000"/>
      <line x1="52.32814" y1="114.27689" x2="51.02409" y2="115.62727" stroke="#228B22" stroke-width="0.04000"/>
      <line x1="52.24959" y1="114.21428" x2="50.93569" y2="115.57486" stroke="#228B22" stroke-width="0.04000"/>
      <line x1="52.17104" y1="114.15166" x2="50.84728" y2="115.52245" stroke="#228B22" stroke-width="0.04000"/>
      <line x1="52.09249" y1="114.08904" x2="50.75888" y2="115.47004" stroke="#228B22" stroke-width="0.04000"/>
      <line x1="52.01395" y1="114.02642" x2="50.67048" y2="115.41763" stroke="#228B22" stroke-width="0.04000"/>
      <line x1="51.93500" y1="113.96423" x2="50.58207" y2="115.36522" stroke="#228B22" stroke-width="0.04000"/>
      <line x1="51.85421" y1="113.90393" x2="50.49367" y2="115.31281" stroke="#228B22" stroke-width="0.04000"/>
      <line x1="51.76827" y1="113.84896" x2="50.40527" y2="115.26040" stroke="#228B22" stroke-width="0.04000"/>
      <line x1="51.68234" y1="113.79399" x2="50.31693" y2="115.20792" stroke="#228B22" stroke-width="0.04000"/>
      <line x1="51.59677" y1="113.73865" x2="50.22818" y2="115.15586" stroke="#228B22" stroke-width="0.04000"/>
      <line x1="51.51167" y1="113.68282" x2="50.13687" y2="115.10646" stroke="#228B22" stroke-width="0.04000"/>
      <line x1="51.42657" y1="113.62698" x2="50.04556" y2="115.05706" stroke="#228B22" stroke-width="0.04000"/>
      <line x1="51.34148" y1="113.57114" x2="49.95425" y2="115.00766" stroke="#228B22" stroke-width="0.04000"/>
      <line x1="51.25638" y1="113.51530" x2="49.86294" y2="114.95826" stroke="#228B22" stroke-width="0.04000"/>
      <line x1="51.17129" y1="113.45947" x2="49.77163" y2="114.90886" stroke="#228B22" stroke-width="0.04000"/>
      <line x1="51.08619" y1="113.40363" x2="49.68032" y2="114.85946" stroke="#228B22" stroke-width="0.04000"/>
      <line x1="50.99852" y1="113.35046" x2="49.58901" y2="114.81006" stroke="#228B22" stroke-width="0.04000"/>
      <line x1="50.90821" y1="113.30003" x2="49.49770" y2="114.76065" stroke="#228B22" stroke-width="0.04000"/>
      <line x1="50.81789" y1="113.24960" x2="49.40644" y2="114.71120" stroke="#228B22" stroke-width="0.04000"/>
      <line x1="50.73336" y1="113.19318" x2="49.31572" y2="114.66119" stroke="#228B22" stroke-width="0.04000"/>
      <line x1="50.65424" y1="113.13115" x2="49.22500" y2="114.61118" stroke="#228B22" stroke-width="0.04000"/>
      <line x1="50.57513" y1="113.06912" x2="49.13428" y2="114.56116" stroke="#228B22" stroke-width="0.04000"/>
      <line x1="50.49601" y1="113.00709" x2="49.04165" y2="114.51313" stroke="#228B22" stroke-width="0.04000"/>
      <line x1="50.41690" y1="112.94506" x2="48.94696" y2="114.46723" stroke="#228B22" stroke-width="0.04000"/>
      <line x1="50.33778" y1="112.88303" x2="48.85226" y2="114.42133" stroke="#228B22" stroke-width="0.04000"/>
      <line x1="50.25588" y1="112.82388" x2="48.75758" y2="114.37543" stroke="#228B22" stroke-width="0.04000"/>
      <line x1="50.17044" y1="112.76841" x2="48.66288" y2="114.32953" stroke="#228B22" stroke-width="0.04000"/>
      <line x1="50.08499" y1="112.71294" x2="48.56820" y2="114.28362" stroke="#228B22" stroke-width="0.04000"/>
      <line x1="49.99954" y1="112.65746" x2="48.47793" y2="114.23314" stroke="#228B22" stroke-width="0.04000"/>
      <line x1="49.91410" y1="112.60199" x2="48.38882" y2="114.18147" stroke="#228B22" stroke-width="0.04000"/>
      <line x1="49.82865" y1="112.54652" x2="48.29971" y2="114.12978" stroke="#228B22" stroke-width="0.04000"/>
      <line x1="49.74320" y1="112.49104" x2="48.21059" y2="114.07811" stroke="#228B22" stroke-width="0.04000"/>
      <line x1="49.65776" y1="112.43557" x2="48.12148" y2="114.02643" stroke="#228B22" stroke-width="0.04000"/>
      <line x1="49.57627" y1="112.37600" x2="48.03237" y2="113.97475" stroke="#228B22" stroke-width="0.04000"/>
      <line x1="49.49407" y1="112.31716" x2="47.94316" y2="113.92318" stroke="#228B22" stroke-width="0.04000"/>
      <line x1="49.41332" y1="112.25682" x2="47.84893" y2="113.87679" stroke="#228B22" stroke-width="0.04000"/>
      <line x1="49.33258" y1="112.19649" x2="47.75471" y2="113.83041" stroke="#228B22" stroke-width="0.04000"/>
      <line x1="49.25183" y1="112.13615" x2="47.66048" y2="113.78403" stroke="#228B22" stroke-width="0.04000"/>
      <line x1="49.17108" y1="112.07581" x2="47.56626" y2="113.73765" stroke="#228B22" stroke-width="0.04000"/>
      <line x1="49.09033" y1="112.01547" x2="47.47417" y2="113.68905" stroke="#228B22" stroke-width="0.04000"/>
      <line x1="49.00958" y1="111.95513" x2="47.39012" y2="113.63214" stroke="#228B22" stroke-width="0.04000"/>
      <line x1="48.92884" y1="111.89479" x2="47.30606" y2="113.57523" stroke="#228B22" stroke-width="0.04000"/>
      <line x1="48.84705" y1="111.83553" x2="47.22200" y2="113.51832" stroke="#228B22" stroke-width="0.04000"/>
      <line x1="48.76300" y1="111.77860" x2="47.13794" y2="113.46140" stroke="#228B22" stroke-width="0.04000"/>
      <line x1="48.67896" y1="111.72168" x2="47.05389" y2="113.40450" stroke="#228B22" stroke-width="0.04000"/>
      <line x1="48.59491" y1="111.66476" x2="46.96865" y2="113.34880" stroke="#228B22" stroke-width="0.04000"/>
      <line x1="48.51087" y1="111.60783" x2="46.87947" y2="113.29720" stroke="#228B22" stroke-width="0.04000"/>
      <line x1="48.43578" y1="111.54163" x2="46.79029" y2="113.24559" stroke="#228B22" stroke-width="0.04000"/>
      <line x1="48.36369" y1="111.47233" x2="46.70111" y2="113.19398" stroke="#228B22" stroke-width="0.04000"/>
      <line x1="48.29162" y1="111.40301" x2="46.61192" y2="113.14238" stroke="#228B22" stroke-width="0.04000"/>
      <line x1="48.21963" y1="111.33360" x2="46.52274" y2="113.09077" stroke="#228B22" stroke-width="0.04000"/>
      <line x1="48.14764" y1="111.26419" x2="46.43356" y2="113.03917" stroke="#228B22" stroke-width="0.04000"/>
      <line x1="48.07566" y1="111.19478" x2="46.34438" y2="112.98756" stroke="#228B22" stroke-width="0.04000"/>
      <line x1="48.00367" y1="111.12537" x2="46.26326" y2="112.92761" stroke="#228B22" stroke-width="0.04000"/>
      <line x1="47.93279" y1="111.05481" x2="46.18442" y2="112.86530" stroke="#228B22" stroke-width="0.04000"/>
      <line x1="47.86195" y1="110.98421" x2="46.10557" y2="112.80299" stroke="#228B22" stroke-width="0.04000"/>
      <line x1="47.79112" y1="110.91360" x2="46.02672" y2="112.74068" stroke="#228B22" stroke-width="0.04000"/>
      <line x1="47.72029" y1="110.84299" x2="45.94778" y2="112.67847" stroke="#228B22" stroke-width="0.04000"/>
      <line x1="47.64907" y1="110.77278" x2="45.86858" y2="112.61653" stroke="#228B22" stroke-width="0.04000"/>
      <line x1="47.57382" y1="110.70675" x2="45.78938" y2="112.55459" stroke="#228B22" stroke-width="0.04000"/>
      <line x1="47.49857" y1="110.64072" x2="45.71018" y2="112.49265" stroke="#228B22" stroke-width="0.04000"/>
      <line x1="47.43290" y1="110.56477" x2="45.63098" y2="112.43071" stroke="#228B22" stroke-width="0.04000"/>
      <line x1="47.37038" y1="110.48554" x2="45.55178" y2="112.36877" stroke="#228B22" stroke-width="0.04000"/>
      <line x1="47.30787" y1="110.40633" x2="45.47258" y2="112.30682" stroke="#228B22" stroke-width="0.04000"/>
      <line x1="47.24536" y1="110.32710" x2="45.39306" y2="112.24521" stroke="#228B22" stroke-width="0.04000"/>
      <line x1="47.18284" y1="110.24789" x2="45.31312" y2="112.18404" stroke="#228B22" stroke-width="0.04000"/>
      <line x1="47.12033" y1="110.16866" x2="45.23317" y2="112.12286" stroke="#228B22" stroke-width="0.04000"/>
      <line x1="47.05698" y1="110.09031" x2="45.15388" y2="112.06103" stroke="#228B22" stroke-width="0.04000"/>
      <line x1="46.99328" y1="110.01231" x2="45.07656" y2="111.99714" stroke="#228B22" stroke-width="0.04000"/>
      <line x1="46.92958" y1="109.93433" x2="44.99923" y2="111.93326" stroke="#228B22" stroke-width="0.04000"/>
      <line x1="46.86588" y1="109.85633" x2="44.92881" y2="111.86222" stroke="#228B22" stroke-width="0.04000"/>
      <line x1="46.80218" y1="109.77834" x2="44.86120" y2="111.78828" stroke="#228B22" stroke-width="0.04000"/>
      <line x1="46.73848" y1="109.70035" x2="44.79359" y2="111.71434" stroke="#228B22" stroke-width="0.04000"/>
      <line x1="46.67423" y1="109.62292" x2="44.72598" y2="111.64040" stroke="#228B22" stroke-width="0.04000"/>
      <line x1="46.60998" y1="109.54550" x2="44.65836" y2="111.56646" stroke="#228B22" stroke-width="0.04000"/>
      <line x1="46.54572" y1="109.46809" x2="44.59075" y2="111.49252" stroke="#228B22" stroke-width="0.04000"/>
      <line x1="46.48147" y1="109.39067" x2="44.52314" y2="111.41858" stroke="#228B22" stroke-width="0.04000"/>
      <line x1="46.41871" y1="109.31170" x2="44.45413" y2="111.34608" stroke="#228B22" stroke-width="0.04000"/>
      <line x1="46.35699" y1="109.23166" x2="44.38388" y2="111.27487" stroke="#228B22" stroke-width="0.04000"/>
      <line x1="46.29526" y1="109.15163" x2="44.31363" y2="111.20367" stroke="#228B22" stroke-width="0.04000"/>
      <line x1="46.23353" y1="109.07159" x2="44.24338" y2="111.13245" stroke="#228B22" stroke-width="0.04000"/>
      <line x1="46.17181" y1="108.99155" x2="44.17313" y2="111.06124" stroke="#228B22" stroke-width="0.04000"/>
      <line x1="46.11008" y1="108.91152" x2="44.10288" y2="110.99004" stroke="#228B22" stroke-width="0.04000"/>
      <line x1="46.04835" y1="108.83148" x2="44.03263" y2="110.91882" stroke="#228B22" stroke-width="0.04000"/>
      <line x1="45.98639" y1="108.75169" x2="43.96238" y2="110.84761" stroke="#228B22" stroke-width="0.04000"/>
      <line x1="45.90361" y1="108.69346" x2="43.91105" y2="110.75682" stroke="#228B22" stroke-width="0.04000"/>
      <line x1="45.81354" y1="108.64278" x2="43.86131" y2="110.66437" stroke="#228B22" stroke-width="0.04000"/>
      <line x1="45.70998" y1="108.60605" x2="43.81078" y2="110.57273" stroke="#228B22" stroke-width="0.04000"/>
      <line x1="45.60821" y1="108.56749" x2="43.76025" y2="110.48110" stroke="#228B22" stroke-width="0.04000"/>
      <line x1="45.51265" y1="108.52248" x2="43.70972" y2="110.38947" stroke="#228B22" stroke-width="0.04000"/>
      <line x1="45.41709" y1="108.47749" x2="43.65934" y2="110.29768" stroke="#228B22" stroke-width="0.04000"/>
      <line x1="45.32153" y1="108.43249" x2="43.60912" y2="110.20574" stroke="#228B22" stroke-width="0.04000"/>
      <line x1="45.22597" y1="108.38749" x2="43.55890" y2="110.11379" stroke="#228B22" stroke-width="0.04000"/>
      <line x1="45.13041" y1="108.34248" x2="43.50867" y2="110.02185" stroke="#228B22" stroke-width="0.04000"/>
      <line x1="45.03412" y1="108.29824" x2="43.45845" y2="109.92990" stroke="#228B22" stroke-width="0.04000"/>
      <line x1="44.93599" y1="108.25591" x2="43.40830" y2="109.83787" stroke="#228B22" stroke-width="0.04000"/>
      <line x1="44.83785" y1="108.21357" x2="43.36236" y2="109.74149" stroke="#228B22" stroke-width="0.04000"/>
      <line x1="44.73972" y1="108.17123" x2="43.36523" y2="109.59456" stroke="#228B22" stroke-width="0.04000"/>
      <line x1="44.62366" y1="108.14746" x2="43.39394" y2="109.42088" stroke="#228B22" stroke-width="0.04000"/>
      <line x1="44.40347" y1="108.23151" x2="43.42036" y2="109.24955" stroke="#228B22" stroke-width="0.04000"/>
      <line x1="44.18327" y1="108.31557" x2="43.44679" y2="109.07823" stroke="#228B22" stroke-width="0.04000"/>
      <line x1="43.96358" y1="108.39912" x2="43.47322" y2="108.90691" stroke="#228B22" stroke-width="0.04000"/>
    </g>
    <g class="thermal-hatch" data-segment="8" data-name="CoreNormalHatch">
      <line x1="32.73050" y1="120.81810" x2="32.88590" y2="121.07180" stroke="#228B22" stroke-width="0.04000"/>
      <line x1="32.88590" y1="121.07180" x2="33.27110" y2="121.54170" stroke="#228B22" stroke-width="0.04000"/>
      <line x1="33.27110" y1="121.54170" x2="33.41130" y2="121.79940" stroke="#228B22" stroke-width="0.04000"/>
      <line x1="33.41130" y1="121.79940" x2="33.70520" y2="122.21710" stroke="#228B22" stroke-width="0.04000"/>
      <line x1="33.70520" y1="122.21710" x2="33.98640" y2="122.72520" stroke="#228B22" stroke-width="0.04000"/>
      <line x1="33.98640" y1="122.72520" x2="34.31240" y2="123.23000" stroke="#228B22" stroke-width="0.04000"/>
      <line x1="34.31240" y1="123.23000" x2="34.47000" y2="123.58840" stroke="#228B22" stroke-width="0.04000"/>
      <line x1="34.47000" y1="123.58840" x2="34.90020" y2="124.47880" stroke="#228B22" stroke-width="0.04000"/>
      <line x1="34.90020" y1="124.47880" x2="34.91160" y2="124.51690" stroke="#228B22" stroke-width="0.04000"/>
      <line x1="34.91160" y1="124.51690" x2="34.95650" y2="124.62680" stroke="#228B22" stroke-width="0.04000"/>
      <line x1="34.95650" y1="124.62680" x2="35.31930" y2="125.55620" stroke="#228B22" stroke-width="0.04000"/>
      <line x1="35.31930" y1="125.55620" x2="35.31930" y2="125.55630" stroke="#228B22" stroke-width="0.04000"/>
      <line x1="35.31930" y1="125.55630" x2="35.46250" y2="125.92620" stroke="#228B22" stroke-width="0.04000"/>
      <line x1="35.46250" y1="125.92620" x2="35.58570" y2="126.49600" stroke="#228B22" stroke-width="0.04000"/>
      <line x1="35.58570" y1="126.49600" x2="35.78740" y2="127.32800" stroke="#228B22" stroke-width="0.04000"/>
      <line x1="35.78740" y1="127.32800" x2="35.14320" y2="127.49770" stroke="#228B22" stroke-width="0.04000"/>
      <line x1="35.14320" y1="127.49770" x2="34.66360" y2="127.09670" stroke="#228B22" stroke-width="0.04000"/>
      <line x1="34.66360" y1="127.09670" x2="34.57640" y2="127.01460" stroke="#228B22" stroke-width="0.04000"/>
      <line x1="34.57640" y1="127.01460" x2="34.47180" y2="126.83320" stroke="#228B22" stroke-width="0.04000"/>
      <line x1="34.47180" y1="126.83320" x2="34.02870" y2="126.20700" stroke="#228B22" stroke-width="0.04000"/>
      <line x1="34.02870" y1="126.20700" x2="33.63490" y2="125.68680" stroke="#228B22" stroke-width="0.04000"/>
      <line x1="33.63490" y1="125.68680" x2="33.45180" y2="125.42090" stroke="#228B22" stroke-width="0.04000"/>
      <line x1="33.45180" y1="125.42090" x2="32.83140" y2="124.68230" stroke="#228B22" stroke-width="0.04000"/>
      <line x1="32.83140" y1="124.68230" x2="32.76240" y2="124.58290" stroke="#228B22" stroke-width="0.04000"/>
      <line x1="32.76240" y1="124.58290" x2="32.36590" y2="124.17760" stroke="#228B22" stroke-width="0.04000"/>
      <line x1="32.36590" y1="124.17760" x2="31.95040" y2="123.76370" stroke="#228B22" stroke-width="0.04000"/>
      <line x1="31.95040" y1="123.76370" x2="31.81300" y2="123.65130" stroke="#228B22" stroke-width="0.04000"/>
      <line x1="31.81300" y1="123.65130" x2="31.28460" y2="123.17290" stroke="#228B22" stroke-width="0.04000"/>
      <line x1="31.28460" y1="123.17290" x2="30.77940" y2="122.40740" stroke="#228B22" stroke-width="0.04000"/>
      <line x1="30.77940" y1="122.40740" x2="30.74530" y2="122.36520" stroke="#228B22" stroke-width="0.04000"/>
      <line x1="30.74530" y1="122.36520" x2="30.74260" y2="122.32190" stroke="#228B22" stroke-width="0.04000"/>
      <line x1="30.74260" y1="122.32190" x2="30.98600" y2="121.62400" stroke="#228B22" stroke-width="0.04000"/>
      <line x1="30.98600" y1="121.62400" x2="31.38550" y2="121.02810" stroke="#228B22" stroke-width="0.04000"/>
      <line x1="31.38550" y1="121.02810" x2="32.03440" y2="120.65250" stroke="#228B22" stroke-width="0.04000"/>
      <line x1="32.03440" y1="120.65250" x2="32.15990" y2="120.57770" stroke="#228B22" stroke-width="0.04000"/>
      <line x1="32.15990" y1="120.57770" x2="32.73050" y2="120.81810" stroke="#228B22" stroke-width="0.04000"/>
      <line x1="44.94050" y1="108.57360" x2="45.51890" y2="108.84600" stroke="#228B22" stroke-width="0.04000"/>
      <line x1="45.51890" y1="108.84600" x2="45.71530" y2="108.91550" stroke="#228B22" stroke-width="0.04000"/>
      <line x1="45.71530" y1="108.91550" x2="45.78400" y2="108.96370" stroke="#228B22" stroke-width="0.04000"/>
      <line x1="45.78400" y1="108.96370" x2="46.22880" y2="109.54040" stroke="#228B22" stroke-width="0.04000"/>
      <line x1="46.22880" y1="109.54040" x2="46.50900" y2="109.87780" stroke="#228B22" stroke-width="0.04000"/>
      <line x1="46.50900" y1="109.87780" x2="46.50900" y2="109.87790" stroke="#228B22" stroke-width="0.04000"/>
      <line x1="46.50900" y1="109.87790" x2="46.87840" y2="110.33010" stroke="#228B22" stroke-width="0.04000"/>
      <line x1="46.87840" y1="110.33010" x2="46.87840" y2="110.33020" stroke="#228B22" stroke-width="0.04000"/>
      <line x1="46.87840" y1="110.33020" x2="47.26870" y2="110.82480" stroke="#228B22" stroke-width="0.04000"/>
      <line x1="47.26870" y1="110.82480" x2="47.45870" y2="110.99160" stroke="#228B22" stroke-width="0.04000"/>
      <line x1="47.45870" y1="110.99160" x2="47.79780" y2="111.32970" stroke="#228B22" stroke-width="0.04000"/>
      <line x1="47.79780" y1="111.32970" x2="48.19350" y2="111.71130" stroke="#228B22" stroke-width="0.04000"/>
      <line x1="48.19350" y1="111.71130" x2="48.19390" y2="111.71130" stroke="#228B22" stroke-width="0.04000"/>
      <line x1="48.19390" y1="111.71130" x2="48.30650" y2="111.81970" stroke="#228B22" stroke-width="0.04000"/>
      <line x1="48.30650" y1="111.81970" x2="48.70340" y2="112.08830" stroke="#228B22" stroke-width="0.04000"/>
      <line x1="48.70340" y1="112.08830" x2="49.34880" y2="112.57070" stroke="#228B22" stroke-width="0.04000"/>
      <line x1="49.34880" y1="112.57070" x2="49.40680" y2="112.61130" stroke="#228B22" stroke-width="0.04000"/>
      <line x1="49.40680" y1="112.61130" x2="49.44050" y2="112.64030" stroke="#228B22" stroke-width="0.04000"/>
      <line x1="49.44050" y1="112.64030" x2="50.12570" y2="113.08520" stroke="#228B22" stroke-width="0.04000"/>
      <line x1="50.12570" y1="113.08520" x2="50.61300" y2="113.46740" stroke="#228B22" stroke-width="0.04000"/>
      <line x1="50.61300" y1="113.46740" x2="50.89250" y2="113.62340" stroke="#228B22" stroke-width="0.04000"/>
      <line x1="50.89250" y1="113.62340" x2="51.47610" y2="114.00630" stroke="#228B22" stroke-width="0.04000"/>
      <line x1="51.47610" y1="114.00630" x2="51.70420" y2="114.15220" stroke="#228B22" stroke-width="0.04000"/>
      <line x1="51.70420" y1="114.15220" x2="51.79630" y2="114.22380" stroke="#228B22" stroke-width="0.04000"/>
      <line x1="51.79630" y1="114.22380" x2="52.44240" y2="114.73890" stroke="#228B22" stroke-width="0.04000"/>
      <line x1="52.44240" y1="114.73890" x2="52.74060" y2="115.09260" stroke="#228B22" stroke-width="0.04000"/>
      <line x1="52.74060" y1="115.09260" x2="52.90470" y2="115.32820" stroke="#228B22" stroke-width="0.04000"/>
      <line x1="52.90470" y1="115.32820" x2="52.82480" y2="115.67330" stroke="#228B22" stroke-width="0.04000"/>
      <line x1="52.82480" y1="115.67330" x2="52.87440" y2="116.11770" stroke="#228B22" stroke-width="0.04000"/>
      <line x1="52.87440" y1="116.11770" x2="52.50020" y2="116.12740" stroke="#228B22" stroke-width="0.04000"/>
      <line x1="52.50020" y1="116.12740" x2="52.36850" y2="116.06390" stroke="#228B22" stroke-width="0.04000"/>
      <line x1="52.36850" y1="116.06390" x2="51.46750" y2="115.55040" stroke="#228B22" stroke-width="0.04000"/>
      <line x1="51.46750" y1="115.55040" x2="51.45820" y2="115.54550" stroke="#228B22" stroke-width="0.04000"/>
      <line x1="51.45820" y1="115.54550" x2="51.33480" y2="115.47440" stroke="#228B22" stroke-width="0.04000"/>
      <line x1="51.33480" y1="115.47440" x2="50.47720" y2="114.96600" stroke="#228B22" stroke-width="0.04000"/>
      <line x1="50.47720" y1="114.96600" x2="50.47710" y2="114.96600" stroke="#228B22" stroke-width="0.04000"/>
      <line x1="50.47710" y1="114.96600" x2="50.40270" y2="114.92050" stroke="#228B22" stroke-width="0.04000"/>
      <line x1="50.40270" y1="114.92050" x2="49.55220" y2="114.46030" stroke="#228B22" stroke-width="0.04000"/>
      <line x1="49.55220" y1="114.46030" x2="49.55210" y2="114.46030" stroke="#228B22" stroke-width="0.04000"/>
      <line x1="49.55210" y1="114.46030" x2="49.22070" y2="114.27770" stroke="#228B22" stroke-width="0.04000"/>
      <line x1="49.22070" y1="114.27770" x2="48.68460" y2="114.01760" stroke="#228B22" stroke-width="0.04000"/>
      <line x1="48.68460" y1="114.01760" x2="48.08190" y2="113.66830" stroke="#228B22" stroke-width="0.04000"/>
      <line x1="48.08190" y1="113.66830" x2="47.63770" y2="113.44950" stroke="#228B22" stroke-width="0.04000"/>
      <line x1="47.63770" y1="113.44950" x2="47.14310" y2="113.11470" stroke="#228B22" stroke-width="0.04000"/>
      <line x1="47.14310" y1="113.11470" x2="46.48820" y2="112.73560" stroke="#228B22" stroke-width="0.04000"/>
      <line x1="46.48820" y1="112.73560" x2="46.14780" y2="112.46670" stroke="#228B22" stroke-width="0.04000"/>
      <line x1="46.14780" y1="112.46670" x2="45.60510" y2="112.04230" stroke="#228B22" stroke-width="0.04000"/>
      <line x1="45.60510" y1="112.04230" x2="45.35230" y2="111.84890" stroke="#228B22" stroke-width="0.04000"/>
      <line x1="45.35230" y1="111.84890" x2="45.17710" y2="111.70390" stroke="#228B22" stroke-width="0.04000"/>
      <line x1="45.17710" y1="111.70390" x2="44.70160" y2="111.18400" stroke="#228B22" stroke-width="0.04000"/>
      <line x1="44.70160" y1="111.18400" x2="44.19020" y2="110.66560" stroke="#228B22" stroke-width="0.04000"/>
      <line x1="44.19020" y1="110.66560" x2="44.15010" y2="110.58740" stroke="#228B22" stroke-width="0.04000"/>
      <line x1="44.15010" y1="110.58740" x2="43.93870" y2="110.20410" stroke="#228B22" stroke-width="0.04000"/>
      <line x1="43.93870" y1="110.20410" x2="43.93880" y2="110.20410" stroke="#228B22" stroke-width="0.04000"/>
      <line x1="43.93880" y1="110.20410" x2="43.66710" y2="109.70680" stroke="#228B22" stroke-width="0.04000"/>
      <line x1="43.66710" y1="109.70680" x2="43.64740" y2="109.66540" stroke="#228B22" stroke-width="0.04000"/>
      <line x1="43.64740" y1="109.66540" x2="43.67880" y2="109.47600" stroke="#228B22" stroke-width="0.04000"/>
      <line x1="43.67880" y1="109.47600" x2="43.75010" y2="109.01300" stroke="#228B22" stroke-width="0.04000"/>
      <line x1="43.75010" y1="109.01300" x2="44.12230" y2="108.64910" stroke="#228B22" stroke-width="0.04000"/>
      <line x1="44.12230" y1="108.64910" x2="44.64930" y2="108.44790" stroke="#228B22" stroke-width="0.04000"/>
      <line x1="44.64930" y1="108.44790" x2="44.94050" y2="108.57360" stroke="#228B22" stroke-width="0.04000"/>
    </g>
    <g class="thermal-contour" data-segment="1" data-name="CoreContour_Volume">
    <path d="M 32.1681 120.267 L 32.9295 120.588 L 33.1228 120.903 L 33.5133 121.38 L 33.6581 121.646 L 33.9509 122.062 L 34.2355 122.576 L 34.5692 123.093 L 34.7333 123.467 L 35.1716 124.374 L 35.1854 124.42 L 35.2256 124.519 L 35.5792 125.425 L 35.7412 125.843 L 35.8684 126.431 L 36.1351 127.53 L 36.1354 127.537 L 36.1289 127.538 L 35.0724 127.816 L 34.4689 127.312 L 34.3468 127.197 L 34.2273 126.99 L 33.7947 126.378 L 33.399 125.855 L 33.2209 125.597 L 32.601 124.859 L 32.5382 124.768 L 32.16 124.382 L 31.7558 123.979 L 31.6254 123.873 L 31.0626 123.363 L 30.5448 122.579 L 30.4618 122.475 L 30.4497 122.282 L 30.7249 121.493 L 31.1876 120.803 L 31.2314 120.782 L 31.8876 120.402 L 32.126 120.261 L 32.1451 120.25 L 32.1681 120.267" fill="none" stroke="#000000" stroke-width="0.05000" fill-rule="evenodd" fill-opacity="1.000"/>
    </g>
    <g class="thermal-contour" data-segment="1" data-name="CoreContour_Volume">
    <path d="M 45.0621 108.31 L 45.6294 108.577 L 45.8499 108.656 L 45.9873 108.752 L 46.4553 109.359 L 46.7374 109.699 L 47.1019 110.145 L 47.4799 110.624 L 47.6556 110.778 L 48.0008 111.123 L 48.3106 111.421 L 48.3107 111.421 L 48.4897 111.594 L 48.8735 111.853 L 49.519 112.336 L 49.5851 112.382 L 49.6148 112.408 L 50.2935 112.848 L 50.7742 113.225 L 51.043 113.375 L 51.6338 113.763 L 51.8721 113.915 L 51.9711 113.992 L 52.6458 114.53 L 52.9704 114.915 L 53.2165 115.268 L 53.1186 115.69 L 53.1977 116.4 L 52.4378 116.419 L 52.2338 116.321 L 51.3291 115.805 L 51.3184 115.8 L 51.1899 115.726 L 50.3232 115.212 L 50.258 115.172 L 49.4136 114.715 L 49.0873 114.535 L 48.5486 114.274 L 47.945 113.924 L 47.4919 113.701 L 46.9891 113.361 L 46.3248 112.976 L 45.9686 112.695 L 45.4276 112.272 L 45.173 112.077 L 44.9769 111.915 L 44.4913 111.384 L 43.9526 110.838 L 43.894 110.724 L 43.6846 110.344 L 43.4092 109.84 L 43.3464 109.708 L 43.3925 109.43 L 43.4784 108.873 L 43.9575 108.405 L 43.9633 108.399 L 43.9679 108.398 L 44.656 108.135 L 45.0621 108.31" fill="none" stroke="#000000" stroke-width="0.05000" fill-rule="evenodd" fill-opacity="1.000"/>
    </g>
    <g class="thermal-contour" data-segment="1" data-name="CoreContour_Volume">
    <path d="M 32.7923 120.747 L 32.9594 121.02 L 33.3462 121.491 L 33.4879 121.752 L 33.7815 122.169 L 34.0637 122.679 L 34.392 123.187 L 34.5517 123.551 L 34.9844 124.446 L 34.9966 124.487 L 35.0398 124.593 L 35.4032 125.524 L 35.5491 125.901 L 35.6734 126.476 L 35.8957 127.393 L 35.1212 127.597 L 34.6034 127.164 L 34.5052 127.071 L 34.3959 126.882 L 33.9561 126.26 L 33.5621 125.74 L 33.3801 125.476 L 32.7598 124.737 L 32.6928 124.641 L 32.302 124.241 L 31.89 123.831 L 31.7552 123.72 L 31.2158 123.232 L 30.7066 122.461 L 30.6574 122.399 L 30.6517 122.309 L 30.9049 121.583 L 31.3225 120.96 L 31.3238 120.96 L 31.9888 120.575 L 32.153 120.477 L 32.7923 120.747" fill="none" stroke="#000000" stroke-width="0.05000" fill-rule="evenodd" fill-opacity="1.000"/>
    <path d="M 32.0344 120.652 L 31.3855 121.028 L 30.986 121.624 L 30.7426 122.322 L 30.7453 122.365 L 30.7794 122.407 L 31.2846 123.173 L 31.813 123.651 L 31.9504 123.764 L 32.3659 124.178 L 32.7624 124.583 L 32.8314 124.682 L 33.4518 125.421 L 33.6349 125.687 L 34.0287 126.207 L 34.4718 126.833 L 34.5764 127.015 L 34.6636 127.097 L 35.1432 127.498 L 35.7874 127.328 L 35.5857 126.496 L 35.4625 125.926 L 35.3193 125.556 L 35.3193 125.556 L 34.9565 124.627 L 34.9116 124.517 L 34.9002 124.479 L 34.47 123.588 L 34.3124 123.23 L 33.9864 122.725 L 33.7052 122.217 L 33.4113 121.799 L 33.2711 121.542 L 32.8859 121.072 L 32.7305 120.818 L 32.1599 120.578 L 32.0344 120.652" fill="none" stroke="#000000" stroke-width="0.05000" fill-rule="evenodd" fill-opacity="1.000"/>
    <path d="M 44.9769 108.491 L 45.5532 108.763 L 45.7572 108.835 L 45.8471 108.898 L 46.2991 109.484 L 46.5787 109.821 L 46.949 110.274 L 47.3343 110.763 L 47.5197 110.925 L 47.8608 111.265 L 48.2298 111.621 L 48.2301 111.621 L 48.3633 111.749 L 48.7573 112.016 L 49.4016 112.498 L 49.4623 112.54 L 49.4946 112.568 L 50.1777 113.012 L 50.663 113.392 L 50.9386 113.546 L 51.525 113.931 L 51.7564 114.079 L 51.8484 114.15 L 51.8484 114.15 L 52.5054 114.674 L 52.8118 115.037 L 53.0015 115.31 L 52.916 115.679 L 52.9747 116.205 L 52.4808 116.218 L 52.3268 116.144 L 51.4244 115.629 L 51.4148 115.624 L 51.2899 115.552 L 50.4313 115.043 L 50.3578 114.999 L 49.5094 114.539 L 49.1793 114.358 L 48.6426 114.097 L 48.0394 113.748 L 47.5927 113.528 L 47.0953 113.191 L 46.4377 112.81 L 46.0922 112.537 L 45.55 112.114 L 45.2976 111.92 L 45.1151 111.769 L 44.6363 111.246 L 44.1164 110.719 L 44.0706 110.63 L 43.8598 110.247 L 43.5869 109.748 L 43.554 109.679 L 43.5899 109.462 L 43.6658 108.97 L 44.0728 108.572 L 44.6514 108.351 L 44.9769 108.491" fill="none" stroke="#000000" stroke-width="0.05000" fill-rule="evenodd" fill-opacity="1.000"/>
    <path d="M 44.1223 108.649 L 43.7501 109.013 L 43.6788 109.476 L 43.6474 109.665 L 43.6671 109.707 L 43.9388 110.204 L 43.9387 110.204 L 44.1501 110.587 L 44.1902 110.666 L 44.7016 111.184 L 45.1771 111.704 L 45.3523 111.849 L 45.6051 112.042 L 46.1478 112.467 L 46.4882 112.736 L 47.1431 113.115 L 47.6377 113.45 L 48.0819 113.668 L 48.6846 114.018 L 49.2207 114.278 L 49.5521 114.46 L 49.5522 114.46 L 50.4027 114.921 L 50.4771 114.966 L 50.4772 114.966 L 51.3348 115.474 L 51.4582 115.546 L 51.4675 115.55 L 52.3685 116.064 L 52.5002 116.127 L 52.8744 116.118 L 52.8248 115.673 L 52.9047 115.328 L 52.7406 115.093 L 52.4424 114.739 L 51.7963 114.224 L 51.7042 114.152 L 51.4761 114.006 L 50.8925 113.623 L 50.613 113.467 L 50.1257 113.085 L 49.4405 112.64 L 49.4068 112.611 L 49.3488 112.571 L 48.7034 112.088 L 48.3065 111.82 L 48.1939 111.711 L 48.1935 111.711 L 47.7978 111.33 L 47.4587 110.992 L 47.2687 110.825 L 46.8784 110.33 L 46.8784 110.33 L 46.509 109.878 L 46.509 109.878 L 46.2288 109.54 L 45.784 108.964 L 45.7153 108.915 L 45.5189 108.846 L 44.9405 108.574 L 44.6493 108.448 L 44.1223 108.649" fill="none" stroke="#000000" stroke-width="0.05000" fill-rule="evenodd" fill-opacity="1.000"/>
    </g>
    <g class="thermal-contour" data-segment="3" data-name="HollowShell1Contour_Volume">
    <path d="M 32.1681 120.267 L 32.9295 120.588 L 33.1228 120.903 L 33.5133 121.38 L 33.6581 121.646 L 33.9509 122.062 L 34.2355 122.576 L 34.5692 123.093 L 34.7333 123.467 L 35.1716 124.374 L 35.1854 124.42 L 35.2256 124.519 L 35.5792 125.424 L 35.7412 125.843 L 35.8684 126.431 L 36.1307 127.512 L 36.1318 127.538 L 36.1289 127.538 L 35.8116 127.622 L 35.7946 127.625 L 35.0867 127.811 L 34.6823 127.473 L 34.3499 127.16 L 34.0244 126.596 L 33.8227 126.311 L 33.6382 126.067 L 33.2497 125.503 L 32.7875 124.953 L 32.6123 124.701 L 32.6155 124.704 L 32.6804 124.798 L 33.3005 125.536 L 33.48 125.797 L 33.8754 126.319 L 34.3116 126.936 L 34.426 127.134 L 34.5361 127.238 L 35.0968 127.706 L 36.0161 127.464 L 35.7709 126.453 L 35.6451 125.871 L 35.4861 125.461 L 35.486 125.461 L 35.1324 124.555 L 35.1324 124.555 L 35.091 124.454 L 35.078 124.41 L 34.6425 123.509 L 34.4806 123.14 L 34.1496 122.628 L 33.8662 122.116 L 33.573 121.699 L 33.4298 121.436 L 33.0411 120.961 L 32.8609 120.667 L 32.1453 120.366 L 31.9382 120.489 L 31.2777 120.871 L 31.2551 120.881 L 30.8149 121.538 L 30.5507 122.296 L 30.5581 122.414 L 30.5343 122.385 L 30.5159 122.092 L 30.7249 121.493 L 31.1876 120.803 L 31.2314 120.782 L 31.8876 120.402 L 32.126 120.261 L 32.1451 120.25 L 32.1681 120.267" fill="none" stroke="#0000CC" stroke-width="0.05000" fill-rule="evenodd" fill-opacity="1.000"/>
    <path d="M 45.0621 108.31 L 45.6294 108.577 L 45.8499 108.656 L 45.8506 108.656 L 46.0013 108.85 L 46.4271 109.402 L 46.5605 109.563 L 47.0769 110.195 L 47.3186 110.502 L 47.6485 110.791 L 48.2709 111.411 L 48.2812 111.418 L 48.2945 111.427 L 48.3705 111.479 L 48.4897 111.593 L 48.8735 111.853 L 49.519 112.336 L 49.5851 112.382 L 49.6148 112.408 L 50.2935 112.848 L 50.7742 113.225 L 51.043 113.375 L 51.6338 113.763 L 51.8721 113.915 L 51.9711 113.992 L 52.6458 114.53 L 52.9704 114.915 L 53.2165 115.269 L 53.1186 115.69 L 53.1359 115.846 L 53.1045 115.981 L 53.1514 116.401 L 52.6816 116.413 L 52.4848 116.318 L 53.0862 116.302 L 53.0173 115.685 L 53.109 115.289 L 52.8911 114.976 L 52.5756 114.602 L 51.9098 114.071 L 51.8142 113.997 L 51.5794 113.847 L 50.9911 113.461 L 50.7186 113.309 L 50.2356 112.93 L 49.5547 112.488 L 49.5236 112.461 L 49.4603 112.417 L 48.8154 111.935 L 48.4265 111.672 L 48.2704 111.521 L 48.2702 111.521 L 47.9308 111.194 L 47.5873 110.852 L 47.4071 110.693 L 47.0244 110.209 L 47.0244 110.209 L 46.6599 109.762 L 46.6599 109.762 L 46.3772 109.422 L 45.9172 108.825 L 45.8034 108.745 L 45.5913 108.67 L 45.0195 108.401 L 44.6537 108.243 L 44.0178 108.486 L 43.5721 108.921 L 43.4912 109.446 L 43.4502 109.693 L 43.4982 109.794 L 43.7722 110.296 L 43.9823 110.677 L 44.0344 110.778 L 44.5638 111.315 L 45.046 111.842 L 45.2353 111.999 L 45.4888 112.193 L 46.0304 112.616 L 46.381 112.893 L 47.0422 113.276 L 47.5423 113.614 L 47.9922 113.836 L 48.5956 114.186 L 49.1333 114.447 L 49.4612 114.627 L 50.3079 115.085 L 50.3753 115.126 L 50.3752 115.126 L 51.2399 115.639 L 51.3641 115.711 L 51.2807 115.667 L 50.4708 115.2 L 50.2696 115.099 L 49.4768 114.701 L 49.3809 114.649 L 49.3557 114.635 L 48.4502 114.196 L 48.0372 113.956 L 47.4213 113.653 L 46.9891 113.361 L 46.3248 112.976 L 45.9686 112.695 L 45.4276 112.272 L 45.173 112.077 L 44.9769 111.915 L 44.4913 111.384 L 43.9526 110.838 L 43.894 110.724 L 43.6846 110.344 L 43.4092 109.84 L 43.3464 109.708 L 43.3925 109.43 L 43.4784 108.873 L 43.9575 108.405 L 43.9633 108.399 L 43.9679 108.398 L 44.656 108.135 L 45.0621 108.31" fill="none" stroke="#0000CC" stroke-width="0.05000" fill-rule="evenodd" fill-opacity="1.000"/>
    </g>
    <g class="thermal-contour" data-segment="4" data-name="HollowShell1Contour_Overhang">
    <path d="M 30.5343 122.385 L 30.5581 122.414 L 30.5596 122.437 L 30.6257 122.52 L 31.1392 123.298 L 31.6903 123.796 L 31.8229 123.905 L 32.231 124.311 L 32.6123 124.701 L 32.7875 124.953 L 33.2497 125.503 L 33.6382 126.067 L 33.8227 126.311 L 34.0244 126.596 L 34.3499 127.16 L 34.6823 127.473 L 35.0867 127.811 L 35.7946 127.625 L 35.8116 127.622 L 35.0724 127.816 L 34.4689 127.312 L 34.3468 127.197 L 34.2273 126.99 L 33.7947 126.378 L 33.399 125.855 L 33.2209 125.597 L 32.601 124.859 L 32.5382 124.768 L 32.16 124.382 L 31.7558 123.979 L 31.6254 123.872 L 31.0626 123.363 L 30.5448 122.578 L 30.4618 122.475 L 30.4497 122.282 L 30.5159 122.092 L 30.5343 122.385" fill="none" stroke="#000080" stroke-width="0.05000" fill-rule="evenodd" fill-opacity="1.000"/>
    <path d="M 36.1351 127.53 L 36.1354 127.537 L 36.1318 127.538 L 36.1307 127.512 L 36.1351 127.53" fill="none" stroke="#000080" stroke-width="0.05000" fill-rule="evenodd" fill-opacity="1.000"/>
    <path d="M 48.0372 113.956 L 48.4502 114.196 L 49.3557 114.635 L 49.3809 114.649 L 49.4768 114.701 L 50.2696 115.099 L 50.4708 115.2 L 51.2807 115.667 L 51.3641 115.711 L 51.367 115.712 L 51.3767 115.717 L 52.2803 116.232 L 52.4593 116.319 L 52.4848 116.318 L 52.6816 116.413 L 52.4378 116.419 L 52.2338 116.321 L 51.3291 115.805 L 51.3184 115.8 L 51.1899 115.726 L 50.3232 115.212 L 50.258 115.172 L 49.4136 114.715 L 49.0873 114.535 L 48.5486 114.274 L 47.945 113.924 L 47.4919 113.701 L 47.4213 113.653 L 48.0372 113.956" fill="none" stroke="#000080" stroke-width="0.05000" fill-rule="evenodd" fill-opacity="1.000"/>
    <path d="M 53.1977 116.4 L 53.1514 116.401 L 53.1045 115.981 L 53.1359 115.846 L 53.1977 116.4" fill="none" stroke="#000080" stroke-width="0.05000" fill-rule="evenodd" fill-opacity="1.000"/>
    <path d="M 45.9873 108.752 L 46.4553 109.359 L 46.7374 109.699 L 47.1019 110.145 L 47.4799 110.624 L 47.6556 110.779 L 48.0008 111.123 L 48.3106 111.421 L 48.3107 111.421 L 48.3706 111.479 L 48.2945 111.427 L 48.2812 111.418 L 48.2709 111.411 L 47.6485 110.791 L 47.3186 110.502 L 47.0769 110.195 L 46.5605 109.563 L 46.4271 109.402 L 46.0013 108.85 L 45.8506 108.656 L 45.9873 108.752" fill="none" stroke="#000080" stroke-width="0.05000" fill-rule="evenodd" fill-opacity="1.000"/>
    </g>
    <g class="thermal-contour" data-segment="5" data-name="HollowShell2Contour_Volume">
    <path d="M 32.8609 120.667 L 33.0411 120.961 L 33.4298 121.436 L 33.573 121.699 L 33.8662 122.116 L 34.1496 122.628 L 34.4806 123.14 L 34.6425 123.509 L 35.078 124.41 L 35.091 124.454 L 35.1324 124.555 L 35.1324 124.555 L 35.486 125.461 L 35.4861 125.461 L 35.6451 125.871 L 35.7709 126.453 L 36.0161 127.464 L 35.0968 127.706 L 34.5361 127.238 L 34.426 127.134 L 34.3116 126.936 L 33.8754 126.319 L 33.48 125.797 L 33.3005 125.536 L 32.6804 124.798 L 32.6155 124.704 L 32.6123 124.701 L 32.5575 124.622 L 31.9578 124.009 L 31.8327 123.859 L 31.6023 123.635 L 31.1411 123.218 L 30.8509 122.778 L 30.5581 122.414 L 30.5507 122.296 L 30.8149 121.538 L 31.2551 120.881 L 31.2777 120.871 L 31.9382 120.489 L 32.1453 120.366 L 32.8609 120.667" fill="none" stroke="#B8860B" stroke-width="0.05000" fill-rule="evenodd" fill-opacity="1.000"/>
    <path d="M 31.9888 120.575 L 31.3238 120.96 L 31.3225 120.96 L 30.9049 121.583 L 30.6517 122.309 L 30.6574 122.399 L 30.7066 122.461 L 31.2158 123.232 L 31.7552 123.72 L 31.89 123.831 L 32.302 124.241 L 32.6928 124.641 L 32.7598 124.737 L 33.3801 125.476 L 33.5621 125.74 L 33.9561 126.26 L 34.3959 126.882 L 34.5052 127.071 L 34.6034 127.164 L 35.1212 127.597 L 35.8957 127.393 L 35.6734 126.476 L 35.5491 125.901 L 35.4032 125.524 L 35.0398 124.593 L 34.9966 124.487 L 34.9844 124.446 L 34.5517 123.551 L 34.392 123.187 L 34.0637 122.679 L 33.7815 122.169 L 33.4879 121.752 L 33.3462 121.491 L 32.9594 121.02 L 32.7923 120.747 L 32.153 120.477 L 31.9888 120.575" fill="none" stroke="#B8860B" stroke-width="0.05000" fill-rule="evenodd" fill-opacity="1.000"/>
    <path d="M 45.0195 108.401 L 45.5913 108.67 L 45.8034 108.745 L 45.9172 108.825 L 46.3772 109.422 L 46.6599 109.762 L 46.6599 109.762 L 47.0244 110.209 L 47.0244 110.209 L 47.4071 110.693 L 47.5873 110.852 L 47.9308 111.194 L 48.2702 111.521 L 48.2704 111.521 L 48.4265 111.672 L 48.8154 111.935 L 49.4603 112.417 L 49.5236 112.461 L 49.5547 112.488 L 50.2356 112.93 L 50.7186 113.309 L 50.9911 113.461 L 51.5794 113.847 L 51.8142 113.997 L 51.9098 114.071 L 52.5756 114.602 L 52.8911 114.976 L 53.109 115.289 L 53.0173 115.685 L 53.0862 116.302 L 52.4848 116.318 L 52.2292 116.195 L 51.5398 115.802 L 51.3641 115.711 L 51.2399 115.639 L 50.3752 115.126 L 50.3753 115.126 L 50.3079 115.085 L 49.4612 114.627 L 49.1333 114.447 L 48.5956 114.186 L 47.9922 113.836 L 47.5423 113.614 L 47.0422 113.276 L 46.381 112.893 L 46.0304 112.616 L 45.4888 112.193 L 45.2353 111.999 L 45.046 111.842 L 44.5638 111.315 L 44.0344 110.778 L 43.9823 110.677 L 43.7722 110.296 L 43.4982 109.794 L 43.4502 109.693 L 43.4912 109.446 L 43.5721 108.921 L 44.0178 108.486 L 44.6537 108.243 L 45.0195 108.401" fill="none" stroke="#B8860B" stroke-width="0.05000" fill-rule="evenodd" fill-opacity="1.000"/>
    <path d="M 44.0728 108.572 L 43.6658 108.97 L 43.5899 109.462 L 43.554 109.679 L 43.5869 109.748 L 43.8598 110.247 L 44.0706 110.63 L 44.1164 110.719 L 44.6363 111.246 L 45.1151 111.769 L 45.2976 111.92 L 45.55 112.114 L 46.0922 112.537 L 46.4377 112.81 L 47.0953 113.191 L 47.5927 113.528 L 48.0394 113.748 L 48.6426 114.097 L 49.1793 114.358 L 49.5094 114.539 L 50.3578 114.999 L 50.4313 115.043 L 51.2899 115.552 L 51.4148 115.624 L 51.4244 115.629 L 52.3268 116.144 L 52.4808 116.218 L 52.9747 116.205 L 52.916 115.679 L 53.0015 115.31 L 52.8118 115.037 L 52.5054 114.674 L 51.8484 114.15 L 51.8484 114.15 L 51.7564 114.079 L 51.525 113.931 L 50.9386 113.546 L 50.663 113.392 L 50.1777 113.012 L 49.4946 112.568 L 49.4623 112.54 L 49.4016 112.498 L 48.7573 112.016 L 48.3633 111.749 L 48.2301 111.621 L 48.2298 111.621 L 47.8608 111.265 L 47.5197 110.925 L 47.3343 110.763 L 46.949 110.274 L 46.5787 109.821 L 46.2991 109.484 L 45.8471 108.898 L 45.7572 108.835 L 45.5532 108.763 L 44.9769 108.491 L 44.6514 108.351 L 44.0728 108.572" fill="none" stroke="#B8860B" stroke-width="0.05000" fill-rule="evenodd" fill-opacity="1.000"/>
    </g>
    <g class="thermal-contour" data-segment="6" data-name="HollowShell2Contour_Overhang">
    <path d="M 30.8509 122.778 L 31.1411 123.218 L 31.6023 123.635 L 31.8327 123.859 L 31.9578 124.009 L 32.5575 124.622 L 32.6123 124.701 L 32.231 124.311 L 31.8229 123.905 L 31.6903 123.796 L 31.1392 123.298 L 30.6257 122.52 L 30.5596 122.437 L 30.5581 122.414 L 30.8509 122.778" fill="none" stroke="#006400" stroke-width="0.05000" fill-rule="evenodd" fill-opacity="1.000"/>
    <path d="M 51.5398 115.802 L 52.2292 116.195 L 52.4848 116.318 L 52.4593 116.319 L 52.2803 116.232 L 51.3767 115.717 L 51.367 115.712 L 51.3641 115.711 L 51.5398 115.802" fill="none" stroke="#006400" stroke-width="0.05000" fill-rule="evenodd" fill-opacity="1.000"/>
    </g>
    <g class="thermal-contour" data-segment="9" data-name="CoreContourHatch">
    <path d="M 32.749 120.797 L 32.9078 121.056 L 33.2936 121.527 L 33.4342 121.785 L 33.7281 122.203 L 34.0095 122.711 L 34.3362 123.217 L 34.4943 123.577 L 34.9254 124.469 L 34.9371 124.508 L 34.9816 124.617 L 35.3463 125.551 L 35.3463 125.551 L 35.4884 125.918 L 35.6119 126.49 L 35.8199 127.347 L 35.1366 127.527 L 34.6457 127.117 L 34.555 127.032 L 34.4487 126.847 L 34.0072 126.223 L 33.613 125.703 L 33.4307 125.438 L 32.8099 124.699 L 32.7414 124.6 L 32.3468 124.197 L 31.9322 123.784 L 31.7954 123.672 L 31.2639 123.191 L 30.7577 122.424 L 30.7189 122.376 L 30.7153 122.318 L 30.9616 121.612 L 31.3666 121.008 L 32.0209 120.629 L 32.1578 120.548 L 32.749 120.797" fill="none" stroke="#800080" stroke-width="0.05000" fill-rule="evenodd" fill-opacity="1.000"/>
    <path d="M 32.0344 120.652 L 31.3855 121.028 L 30.986 121.624 L 30.7426 122.322 L 30.7453 122.365 L 30.7794 122.407 L 31.2846 123.173 L 31.813 123.651 L 31.9504 123.764 L 32.3659 124.178 L 32.7624 124.583 L 32.8314 124.682 L 33.4518 125.421 L 33.6349 125.687 L 34.0287 126.207 L 34.4718 126.833 L 34.5764 127.015 L 34.6636 127.097 L 35.1432 127.498 L 35.7874 127.328 L 35.5857 126.496 L 35.4625 125.926 L 35.3193 125.556 L 35.3193 125.556 L 34.9565 124.627 L 34.9116 124.517 L 34.9002 124.479 L 34.47 123.588 L 34.3124 123.23 L 33.9864 122.725 L 33.7052 122.217 L 33.4113 121.799 L 33.2711 121.542 L 32.8859 121.072 L 32.7305 120.818 L 32.1599 120.578 L 32.0344 120.652" fill="none" stroke="#800080" stroke-width="0.05000" fill-rule="evenodd" fill-opacity="1.000"/>
    <path d="M 44.9516 108.549 L 45.5285 108.821 L 45.7278 108.891 L 45.8029 108.944 L 46.2502 109.524 L 46.536 109.868 L 46.536 109.868 L 46.9054 110.321 L 46.9054 110.321 L 47.2883 110.806 L 47.4772 110.972 L 47.8169 111.311 L 47.8168 111.311 L 48.2043 111.684 L 48.2048 111.684 L 48.3235 111.799 L 48.7191 112.066 L 49.3643 112.549 L 49.4234 112.59 L 49.457 112.619 L 50.1414 113.063 L 50.6277 113.445 L 50.9065 113.6 L 51.4909 113.984 L 51.4908 113.984 L 51.7198 114.13 L 51.813 114.203 L 52.4613 114.719 L 52.762 115.076 L 52.9337 115.323 L 52.8521 115.675 L 52.9045 116.144 L 52.4944 116.155 L 52.3559 116.088 L 51.4541 115.574 L 51.4541 115.574 L 51.4452 115.569 L 51.3212 115.498 L 50.4698 114.993 L 50.4695 114.993 L 50.3886 114.943 L 50.3886 114.943 L 49.5455 114.487 L 49.5452 114.487 L 49.2089 114.302 L 49.2089 114.302 L 48.6719 114.041 L 48.0684 113.692 L 47.6241 113.473 L 47.1287 113.138 L 46.473 112.758 L 46.1312 112.488 L 45.5885 112.064 L 45.5885 112.063 L 45.3355 111.87 L 45.1584 111.724 L 44.6824 111.203 L 44.1681 110.682 L 44.1261 110.6 L 44.1261 110.6 L 43.893 110.177 L 43.8933 110.177 L 43.643 109.719 L 43.6194 109.669 L 43.6521 109.472 L 43.7248 109 L 44.1074 108.626 L 44.6499 108.419 L 44.9516 108.549" fill="none" stroke="#800080" stroke-width="0.05000" fill-rule="evenodd" fill-opacity="1.000"/>
    <path d="M 44.1223 108.649 L 43.7501 109.013 L 43.6788 109.476 L 43.6474 109.665 L 43.6671 109.707 L 43.9388 110.204 L 43.9387 110.204 L 44.1501 110.587 L 44.1902 110.666 L 44.7016 111.184 L 45.1771 111.704 L 45.3523 111.849 L 45.6051 112.042 L 46.1478 112.467 L 46.4882 112.736 L 47.1431 113.115 L 47.6377 113.45 L 48.0819 113.668 L 48.6846 114.018 L 49.2207 114.278 L 49.5521 114.46 L 49.5522 114.46 L 50.4027 114.921 L 50.4771 114.966 L 50.4772 114.966 L 51.3348 115.474 L 51.4582 115.546 L 51.4675 115.55 L 52.3685 116.064 L 52.5002 116.127 L 52.8744 116.118 L 52.8248 115.673 L 52.9047 115.328 L 52.7406 115.093 L 52.4424 114.739 L 51.7963 114.224 L 51.7042 114.152 L 51.4761 114.006 L 50.8925 113.623 L 50.613 113.467 L 50.1257 113.085 L 49.4405 112.64 L 49.4068 112.611 L 49.3488 112.571 L 48.7034 112.088 L 48.3065 111.82 L 48.1939 111.711 L 48.1935 111.711 L 47.7978 111.33 L 47.4587 110.992 L 47.2687 110.825 L 46.8784 110.33 L 46.8784 110.33 L 46.509 109.878 L 46.509 109.878 L 46.2288 109.54 L 45.784 108.964 L 45.7153 108.915 L 45.5189 108.846 L 44.9405 108.574 L 44.6493 108.448 L 44.1223 108.649" fill="none" stroke="#800080" stroke-width="0.05000" fill-rule="evenodd" fill-opacity="1.000"/>
    </g>
    <!-- ===== Thermal Segment Colour Legend ===== -->
    <g id="thermal-legend">
    <rect x="161.0000" y="5.0000" width="40.0000" height="72.0000"
          rx="1" ry="1"
          fill="#fafafa" stroke="#cccccc" stroke-width="0.15"/>
    <text x="181.0000" y="7.6000" font-family="sans-serif" font-size="2.2000" font-weight="bold" fill="#222222" text-anchor="middle">Thermal Segments</text>
    <line x1="161.5000" y1="8.7000" x2="200.5000" y2="8.7000" stroke="#bbbbbb" stroke-width="0.1"/>
    <rect x="161.8000" y="9.0000" width="3.5000" height="2.0000" fill="#000000" stroke="#333333" stroke-width="0.08" rx="0.3" ry="0.3"/>
    <text x="168.6000" y="10.9000" font-family="monospace" font-size="1.6000" fill="#444444" text-anchor="end"> 1</text>
    <text x="169.6000" y="10.9000" font-family="sans-serif" font-size="1.6000" fill="#111111">CoreContour_Volume</text>
    <rect x="161.8000" y="12.0000" width="3.5000" height="2.0000" fill="#8B0000" stroke="#333333" stroke-width="0.08" rx="0.3" ry="0.3"/>
    <text x="168.6000" y="13.9000" font-family="monospace" font-size="1.6000" fill="#444444" text-anchor="end"> 2</text>
    <text x="169.6000" y="13.9000" font-family="sans-serif" font-size="1.6000" fill="#111111">CoreContour_Overhang</text>
    <rect x="161.8000" y="15.0000" width="3.5000" height="2.0000" fill="#0000CC" stroke="#333333" stroke-width="0.08" rx="0.3" ry="0.3"/>
    <text x="168.6000" y="16.9000" font-family="monospace" font-size="1.6000" fill="#444444" text-anchor="end"> 3</text>
    <text x="169.6000" y="16.9000" font-family="sans-serif" font-size="1.6000" fill="#111111">Shell1Contour_Volume</text>
    <rect x="161.8000" y="18.0000" width="3.5000" height="2.0000" fill="#000080" stroke="#333333" stroke-width="0.08" rx="0.3" ry="0.3"/>
    <text x="168.6000" y="19.9000" font-family="monospace" font-size="1.6000" fill="#444444" text-anchor="end"> 4</text>
    <text x="169.6000" y="19.9000" font-family="sans-serif" font-size="1.6000" fill="#111111">Shell1Contour_Overhang</text>
    <rect x="161.8000" y="21.0000" width="3.5000" height="2.0000" fill="#B8860B" stroke="#333333" stroke-width="0.08" rx="0.3" ry="0.3"/>
    <text x="168.6000" y="22.9000" font-family="monospace" font-size="1.6000" fill="#444444" text-anchor="end"> 5</text>
    <text x="169.6000" y="22.9000" font-family="sans-serif" font-size="1.6000" fill="#111111">Shell2Contour_Volume</text>
    <rect x="161.8000" y="24.0000" width="3.5000" height="2.0000" fill="#006400" stroke="#333333" stroke-width="0.08" rx="0.3" ry="0.3"/>
    <text x="168.6000" y="25.9000" font-family="monospace" font-size="1.6000" fill="#444444" text-anchor="end"> 6</text>
    <text x="169.6000" y="25.9000" font-family="sans-serif" font-size="1.6000" fill="#111111">Shell2Contour_Overhang</text>
    <rect x="161.8000" y="27.0000" width="3.5000" height="2.0000" fill="#FF8C00" stroke="#333333" stroke-width="0.08" rx="0.3" ry="0.3"/>
    <text x="168.6000" y="28.9000" font-family="monospace" font-size="1.6000" fill="#444444" text-anchor="end"> 7</text>
    <text x="169.6000" y="28.9000" font-family="sans-serif" font-size="1.6000" fill="#111111">CoreOverhangHatch</text>
    <rect x="161.8000" y="30.0000" width="3.5000" height="2.0000" fill="#228B22" stroke="#333333" stroke-width="0.08" rx="0.3" ry="0.3"/>
    <text x="168.6000" y="31.9000" font-family="monospace" font-size="1.6000" fill="#444444" text-anchor="end"> 8</text>
    <text x="169.6000" y="31.9000" font-family="sans-serif" font-size="1.6000" fill="#111111">CoreNormalHatch</text>
    <rect x="161.8000" y="33.0000" width="3.5000" height="2.0000" fill="#800080" stroke="#333333" stroke-width="0.08" rx="0.3" ry="0.3"/>
    <text x="168.6000" y="34.9000" font-family="monospace" font-size="1.6000" fill="#444444" text-anchor="end"> 9</text>
    <text x="169.6000" y="34.9000" font-family="sans-serif" font-size="1.6000" fill="#111111">CoreContourHatch</text>
    <rect x="161.8000" y="36.0000" width="3.5000" height="2.0000" fill="#FF69B4" stroke="#333333" stroke-width="0.08" rx="0.3" ry="0.3"/>
    <text x="168.6000" y="37.9000" font-family="monospace" font-size="1.6000" fill="#444444" text-anchor="end">10</text>
    <text x="169.6000" y="37.9000" font-family="sans-serif" font-size="1.6000" fill="#111111">Shell1OverhangHatch</text>
    <rect x="161.8000" y="39.0000" width="3.5000" height="2.0000" fill="#00CED1" stroke="#333333" stroke-width="0.08" rx="0.3" ry="0.3"/>
    <text x="168.6000" y="40.9000" font-family="monospace" font-size="1.6000" fill="#444444" text-anchor="end">11</text>
    <text x="169.6000" y="40.9000" font-family="sans-serif" font-size="1.6000" fill="#111111">Shell1NormalHatch</text>
    <rect x="161.8000" y="42.0000" width="3.5000" height="2.0000" fill="#FF00FF" stroke="#333333" stroke-width="0.08" rx="0.3" ry="0.3"/>
    <text x="168.6000" y="43.9000" font-family="monospace" font-size="1.6000" fill="#444444" text-anchor="end">12</text>
    <text x="169.6000" y="43.9000" font-family="sans-serif" font-size="1.6000" fill="#111111">Shell1ContourHatch</text>
    <rect x="161.8000" y="45.0000" width="3.5000" height="2.0000" fill="#A52A2A" stroke="#333333" stroke-width="0.08" rx="0.3" ry="0.3"/>
    <text x="168.6000" y="46.9000" font-family="monospace" font-size="1.6000" fill="#444444" text-anchor="end">13</text>
    <text x="169.6000" y="46.9000" font-family="sans-serif" font-size="1.6000" fill="#111111">Shell2OverhangHatch</text>
    <rect x="161.8000" y="48.0000" width="3.5000" height="2.0000" fill="#808080" stroke="#333333" stroke-width="0.08" rx="0.3" ry="0.3"/>
    <text x="168.6000" y="49.9000" font-family="monospace" font-size="1.6000" fill="#444444" text-anchor="end">14</text>
    <text x="169.6000" y="49.9000" font-family="sans-serif" font-size="1.6000" fill="#111111">Shell2NormalHatch</text>
    <rect x="161.8000" y="51.0000" width="3.5000" height="2.0000" fill="#32CD32" stroke="#333333" stroke-width="0.08" rx="0.3" ry="0.3"/>
    <text x="168.6000" y="52.9000" font-family="monospace" font-size="1.6000" fill="#444444" text-anchor="end">15</text>
    <text x="169.6000" y="52.9000" font-family="sans-serif" font-size="1.6000" fill="#111111">Shell2ContourHatch</text>
    <rect x="161.8000" y="54.0000" width="3.5000" height="2.0000" fill="#1A237E" stroke="#333333" stroke-width="0.08" rx="0.3" ry="0.3"/>
    <text x="168.6000" y="55.9000" font-family="monospace" font-size="1.6000" fill="#444444" text-anchor="end">16</text>
    <text x="169.6000" y="55.9000" font-family="sans-serif" font-size="1.6000" fill="#111111">SupportContourVolume</text>
    <rect x="161.8000" y="57.0000" width="3.5000" height="2.0000" fill="#827717" stroke="#333333" stroke-width="0.08" rx="0.3" ry="0.3"/>
    <text x="168.6000" y="58.9000" font-family="monospace" font-size="1.6000" fill="#444444" text-anchor="end">17</text>
    <text x="169.6000" y="58.9000" font-family="sans-serif" font-size="1.6000" fill="#111111">SupportHatch</text>
    <rect x="161.8000" y="60.0000" width="3.5000" height="2.0000" fill="#006064" stroke="#333333" stroke-width="0.08" rx="0.3" ry="0.3"/>
    <text x="168.6000" y="61.9000" font-family="monospace" font-size="1.6000" fill="#444444" text-anchor="end">18</text>
    <text x="169.6000" y="61.9000" font-family="sans-serif" font-size="1.6000" fill="#111111">PointSequence</text>
    <rect x="161.8000" y="63.0000" width="3.5000" height="2.0000" fill="#B71C1C" stroke="#333333" stroke-width="0.08" rx="0.3" ry="0.3"/>
    <text x="168.6000" y="64.9000" font-family="monospace" font-size="1.6000" fill="#444444" text-anchor="end">19</text>
    <text x="169.6000" y="64.9000" font-family="sans-serif" font-size="1.6000" fill="#111111">ExternalSupports</text>
    <rect x="161.8000" y="66.0000" width="3.5000" height="2.0000" fill="#E64A19" stroke="#333333" stroke-width="0.08" rx="0.3" ry="0.3"/>
    <text x="168.6000" y="67.9000" font-family="monospace" font-size="1.6000" fill="#444444" text-anchor="end">20</text>
    <text x="169.6000" y="67.9000" font-family="sans-serif" font-size="1.6000" fill="#111111">CoreContourHatchOverhang</text>
    <rect x="161.8000" y="69.0000" width="3.5000" height="2.0000" fill="#311B92" stroke="#333333" stroke-width="0.08" rx="0.3" ry="0.3"/>
    <text x="168.6000" y="70.9000" font-family="monospace" font-size="1.6000" fill="#444444" text-anchor="end">21</text>
    <text x="169.6000" y="70.9000" font-family="sans-serif" font-size="1.6000" fill="#111111">Shell1ContourHatchOverhang</text>
    <rect x="161.8000" y="72.0000" width="3.5000" height="2.0000" fill="#880E4F" stroke="#333333" stroke-width="0.08" rx="0.3" ry="0.3"/>
    <text x="168.6000" y="73.9000" font-family="monospace" font-size="1.6000" fill="#444444" text-anchor="end">22</text>
    <text x="169.6000" y="73.9000" font-family="sans-serif" font-size="1.6000" fill="#111111">Shell2ContourHatchOverhang</text>
    </g>
  </g>
</svg>
