<?xml version="1.0" encoding="UTF-8" standalone="yes"?>
<svg xmlns="http://www.w3.org/2000/svg"
     xmlns:xlink="http://www.w3.org/1999/xlink"
     width="2020.0000mm" height="1600.0000mm"
     viewBox="0 0 202.000000 160.000000">
  <!--
    Build plate : 150.00 x 150.00 mm
    Coordinate  : 1 SVG unit = 1 mm
    Display zoom: 10x  (width/height = viewBox x 10)
    Hatch stroke: 0.04 mm = ~28 mm on screen at this zoom
    Legend panel: right margin (42 mm wide)
  -->
  <defs>
    <marker id="endArrow" markerWidth="2" markerHeight="1.4"
            refX="0" refY="0.7" orient="auto"
            markerUnits="strokeWidth">
      <polyline fill="darkblue" points="0,0 2,0.7 0,1.4 0.2,0.7"/>
    </marker>
  </defs>
  <!-- Background -->
  <rect x="0" y="0" width="202.000000" height="160.000000" fill="#f0f0f0" stroke="none"/>
  <!-- Build plate boundary (150 x 150 mm) -->
  <rect x="5.000000" y="5.000000" width="150.000000" height="150.000000"
        fill="#ffffff" stroke="#aaaaaa" stroke-width="0.2" stroke-dasharray="1,0.5"/>
  <!-- Build plate centre circle (r = 75.00 mm) -->
  <circle cx="80.000000" cy="80.000000" r="75.000000"
          fill="none" stroke="#bbbbbb" stroke-width="0.15" stroke-dasharray="0.8,0.4"/>
  <!-- Centre cross-hair -->
  <line x1="5.000000" y1="80.000000" x2="155.000000" y2="80.000000" stroke="#cccccc" stroke-width="0.1"/>
  <line x1="80.000000" y1="5.000000" x2="80.000000" y2="155.000000" stroke="#cccccc" stroke-width="0.1"/>
  <circle cx="80.000000" cy="80.000000" r="0.3" fill="#cccccc" stroke="none"/>
  <!-- Corner labels -->
  <text x="5.400000" y="4.600000" font-family="sans-serif" font-size="2" fill="#888888">0,0</text>
  <text x="154.600006" y="4.600000" font-family="sans-serif" font-size="2" fill="#888888" text-anchor="end">150,0</text>
  <text x="5.400000" y="157.199997" font-family="sans-serif" font-size="2" fill="#888888">0,150</text>
  <!-- Layer geometry -->
  <g id="geometry">
    <g class="thermal-hatch" data-segment="8" data-name="CoreNormalHatch">
      <line x1="38.04189" y1="87.03180" x2="38.44410" y2="86.27534" stroke="#228B22" stroke-width="0.04000"/>
      <line x1="38.15871" y1="87.02509" x2="38.68595" y2="86.03349" stroke="#228B22" stroke-width="0.04000"/>
      <line x1="37.95796" y1="86.97662" x2="38.20225" y2="86.51719" stroke="#228B22" stroke-width="0.04000"/>
      <line x1="38.30899" y1="86.95544" x2="38.82359" y2="85.98765" stroke="#228B22" stroke-width="0.04000"/>
      <line x1="37.88522" y1="86.90044" x2="37.96040" y2="86.75903" stroke="#228B22" stroke-width="0.04000"/>
      <line x1="38.49987" y1="86.80947" x2="38.93409" y2="85.99283" stroke="#228B22" stroke-width="0.04000"/>
      <line x1="38.70930" y1="86.62859" x2="39.09407" y2="85.90495" stroke="#228B22" stroke-width="0.04000"/>
      <line x1="38.91868" y1="86.44781" x2="39.33592" y2="85.66310" stroke="#228B22" stroke-width="0.04000"/>
      <line x1="39.13153" y1="86.26051" x2="39.57777" y2="85.42125" stroke="#228B22" stroke-width="0.04000"/>
      <line x1="39.34507" y1="86.07190" x2="39.81963" y2="85.17939" stroke="#228B22" stroke-width="0.04000"/>
      <line x1="39.56350" y1="85.87411" x2="40.06148" y2="84.93754" stroke="#228B22" stroke-width="0.04000"/>
      <line x1="39.78676" y1="85.66721" x2="40.30333" y2="84.69569" stroke="#228B22" stroke-width="0.04000"/>
      <line x1="40.01451" y1="85.45188" x2="40.54518" y2="84.45384" stroke="#228B22" stroke-width="0.04000"/>
      <line x1="40.24704" y1="85.22757" x2="40.78703" y2="84.21199" stroke="#228B22" stroke-width="0.04000"/>
      <line x1="40.47780" y1="85.00657" x2="41.31747" y2="83.42738" stroke="#228B22" stroke-width="0.04000"/>
      <line x1="40.70850" y1="84.78571" x2="41.38549" y2="83.51247" stroke="#228B22" stroke-width="0.04000"/>
      <line x1="40.93602" y1="84.57079" x2="41.45627" y2="83.59235" stroke="#228B22" stroke-width="0.04000"/>
      <line x1="41.16207" y1="84.35866" x2="41.50309" y2="83.71729" stroke="#228B22" stroke-width="0.04000"/>
      <line x1="40.87686" y1="84.04305" x2="41.10448" y2="83.61495" stroke="#228B22" stroke-width="0.04000"/>
      <line x1="40.83201" y1="83.91440" x2="40.86262" y2="83.85682" stroke="#228B22" stroke-width="0.04000"/>
    </g>
    <g class="thermal-contour" data-segment="1" data-name="CoreContour_Volume">
    <path d="M 41.3119 83.4204 L 41.3476 83.465 L 41.3476 83.465 L 41.3543 83.4735 L 41.3879 83.5154 L 41.4217 83.5396 L 41.4221 83.54 L 41.4469 83.5765 L 41.4483 83.5778 L 41.4669 83.6119 L 41.4705 83.6176 L 41.4838 83.6497 L 41.4884 83.6597 L 41.4933 83.6748 L 41.4949 83.682 L 41.4961 83.6859 L 41.5008 83.7046 L 41.5018 83.7095 L 41.5076 83.7452 L 41.5085 83.7519 L 41.5089 83.7597 L 41.5108 83.8001 L 41.51 83.8085 L 41.5093 83.8151 L 41.5086 83.8194 L 41.5023 83.8675 L 41.4964 83.8895 L 41.4915 83.9074 L 41.4909 83.9094 L 41.4823 83.9356 L 41.4801 83.9434 L 41.4652 83.9962 L 41.4551 84.016 L 41.4228 84.0805 L 41.4149 84.0916 L 41.3683 84.1581 L 41.3654 84.1612 L 41.3602 84.1668 L 41.3265 84.2019 L 41.3268 84.2023 L 41.3104 84.2197 L 41.3039 84.2271 L 41.2916 84.2389 L 41.2883 84.242 L 41.1761 84.3455 L 41.0829 84.433 L 40.9935 84.5163 L 40.9548 84.5532 L 40.8383 84.6627 L 40.8234 84.6769 L 40.6917 84.8016 L 40.6801 84.8128 L 40.5443 84.942 L 40.4724 85.0118 L 40.23 85.2439 L 39.9328 85.5308 L 39.8817 85.579 L 39.7645 85.6879 L 39.5 85.9329 L 39.4053 86.0185 L 39.2317 86.1723 L 38.9 86.4642 L 38.6699 86.6626 L 38.6699 86.6626 L 38.6325 86.6948 L 38.489 86.8188 L 38.4757 86.8297 L 38.4575 86.8483 L 38.4334 86.8675 L 38.4195 86.8789 L 38.3972 86.8954 L 38.3814 86.9074 L 38.3609 86.9214 L 38.3437 86.9335 L 38.3249 86.9453 L 38.3064 86.9571 L 38.2895 86.9667 L 38.2699 86.978 L 38.2547 86.9856 L 38.2345 86.9959 L 38.2211 87.0017 L 38.2005 87.0109 L 38.1886 87.0151 L 38.168 87.0226 L 38.1577 87.0254 L 38.1374 87.0311 L 38.1284 87.0326 L 38.1088 87.0361 L 38.1011 87.0366 L 38.0826 87.0378 L 38.0761 87.0373 L 38.0588 87.036 L 38.0532 87.0346 L 38.0378 87.0308 L 38.0332 87.0286 L 38.0197 87.0222 L 38.0056 87.0173 L 37.9951 87.0153 L 37.993 87.0133 L 37.8529 86.8666 L 37.963 86.7564 L 37.963 86.7564 L 38.0151 86.7044 L 38.1855 86.5339 L 38.1855 86.5339 L 38.6168 86.1026 L 38.7366 85.9829 L 38.7932 85.987 L 38.8812 85.9889 L 39.0012 85.9978 L 39.2243 85.7747 L 39.4767 85.5223 L 39.5143 85.4847 L 39.6521 85.3469 L 39.6521 85.3469 L 39.7934 85.2056 L 39.8266 85.1724 L 39.9983 85.0007 L 40.077 84.922 L 40.0771 84.922 L 40.1638 84.8352 L 40.2201 84.7789 L 40.33 84.669 L 40.3637 84.6353 L 40.3826 84.6164 L 40.5235 84.4755 L 40.5235 84.4755 L 40.5473 84.4517 L 40.6861 84.313 L 40.732 84.267 L 40.8393 84.1597 L 40.855 84.144 L 40.8973 84.1017 L 40.8688 84.02 L 40.8688 84.02 L 40.825 83.8944 L 40.903 83.8165 L 40.9493 83.7701 L 41.0375 83.682 L 41.0375 83.682 L 41.1 83.6195 L 41.2026 83.5168 L 41.295 83.4245 L 41.2952 83.4243 L 41.3062 83.4132 L 41.3119 83.4204" fill="none" stroke="#000000" stroke-width="0.05000" fill-rule="evenodd" fill-opacity="1.000"/>
    </g>
    <g class="thermal-contour" data-segment="1" data-name="CoreContour_Volume">
    <path d="M 38.8733 86.1887 L 38.9072 86.1912 L 38.7678 86.314 L 38.5394 86.511 L 38.5019 86.5434 L 38.3602 86.6657 L 38.3406 86.6819 L 38.3235 86.6991 L 38.3077 86.7119 L 38.2951 86.722 L 38.2772 86.7354 L 38.2637 86.7455 L 38.2468 86.7571 L 38.2412 86.7609 L 38.3269 86.6753 L 38.8147 86.1874 L 38.8733 86.1887" fill="none" stroke="#000000" stroke-width="0.05000" fill-rule="evenodd" fill-opacity="1.000"/>
    <path d="M 41.3004 83.7296 L 41.3006 83.7302 L 41.3013 83.733 L 41.303 83.7387 L 41.3053 83.7478 L 41.3091 83.7709 L 41.3102 83.7935 L 41.3056 83.8282 L 41.3035 83.8365 L 41.2992 83.8517 L 41.2908 83.8775 L 41.2877 83.8889 L 41.2778 83.9234 L 41.2766 83.926 L 41.251 83.9769 L 41.2123 84.0319 L 41.145 84.1019 L 41.1179 84.1269 L 41.0576 83.9541 L 41.0551 83.9471 L 41.2414 83.7609 L 41.2922 83.71 L 41.3004 83.7296" fill="none" stroke="#000000" stroke-width="0.05000" fill-rule="evenodd" fill-opacity="1.000"/>
    </g>
    <g class="thermal-contour" data-segment="3" data-name="HollowShell1Contour_Volume">
    <path d="M 41.3119 83.4204 L 41.3476 83.465 L 41.3543 83.4735 L 41.3879 83.5154 L 41.4217 83.5396 L 41.4221 83.54 L 41.4469 83.5765 L 41.4483 83.5778 L 41.4669 83.6119 L 41.4705 83.6176 L 41.4838 83.6497 L 41.4884 83.6597 L 41.4933 83.6748 L 41.4949 83.682 L 41.4961 83.6859 L 41.5008 83.7046 L 41.5018 83.7095 L 41.5076 83.7452 L 41.5085 83.7519 L 41.5089 83.7597 L 41.5108 83.8001 L 41.51 83.8085 L 41.5093 83.8151 L 41.5086 83.8194 L 41.5023 83.8675 L 41.4964 83.8895 L 41.4915 83.9074 L 41.4909 83.9094 L 41.4823 83.9356 L 41.4801 83.9434 L 41.4652 83.9962 L 41.4551 84.016 L 41.4228 84.0805 L 41.4149 84.0916 L 41.3683 84.1581 L 41.3654 84.1612 L 41.3602 84.1668 L 41.3265 84.2019 L 41.3268 84.2023 L 41.3104 84.2197 L 41.3039 84.2271 L 41.2916 84.2389 L 41.2883 84.242 L 41.1761 84.3455 L 41.0829 84.433 L 40.9935 84.5163 L 40.9548 84.5532 L 40.8383 84.6627 L 40.8234 84.6769 L 40.6917 84.8016 L 40.6801 84.8128 L 40.5443 84.942 L 40.4724 85.0118 L 40.23 85.2439 L 39.9328 85.5308 L 39.8817 85.579 L 39.7645 85.6879 L 39.5 85.9329 L 39.4053 86.0185 L 39.2317 86.1723 L 38.9 86.4642 L 38.6699 86.6626 L 38.6325 86.6948 L 38.489 86.8188 L 38.4757 86.8297 L 38.4575 86.8483 L 38.4334 86.8675 L 38.4195 86.8789 L 38.3972 86.8954 L 38.3814 86.9074 L 38.3609 86.9214 L 38.3437 86.9335 L 38.3249 86.9453 L 38.3064 86.9571 L 38.2895 86.9667 L 38.2699 86.978 L 38.2547 86.9856 L 38.2345 86.9959 L 38.2211 87.0017 L 38.2005 87.0109 L 38.1886 87.0151 L 38.168 87.0226 L 38.1577 87.0254 L 38.1374 87.0311 L 38.1284 87.0326 L 38.1088 87.0361 L 38.1011 87.0366 L 38.0826 87.0378 L 38.0761 87.0373 L 38.0588 87.036 L 38.0532 87.0346 L 38.0378 87.0308 L 38.0332 87.0286 L 38.0197 87.0222 L 38.0056 87.0173 L 37.9951 87.0153 L 37.993 87.0133 L 37.8529 86.8666 L 37.963 86.7564 L 38.0151 86.7044 L 38.1855 86.5339 L 38.3699 86.3494 L 38.4922 86.3601 L 38.5001 86.3606 L 38.2562 86.6046 L 38.0858 86.7751 L 38.0336 86.8272 L 37.9926 86.8681 L 38.048 86.9261 L 38.0576 86.9295 L 38.0715 86.936 L 38.075 86.9369 L 38.083 86.9375 L 38.0946 86.9368 L 38.0971 86.9366 L 38.1114 86.9341 L 38.115 86.9334 L 38.1311 86.929 L 38.1375 86.9272 L 38.1549 86.921 L 38.1633 86.9179 L 38.1808 86.9102 L 38.1919 86.9053 L 38.2096 86.8963 L 38.2226 86.8898 L 38.2398 86.8799 L 38.2554 86.871 L 38.2714 86.8608 L 38.2887 86.8499 L 38.3039 86.8392 L 38.3234 86.8258 L 38.3372 86.8154 L 38.3585 86.7995 L 38.3705 86.7897 L 38.3903 86.7739 L 38.4081 86.7558 L 38.4236 86.7431 L 38.5672 86.6191 L 38.6047 86.5868 L 38.8339 86.3891 L 39.1656 86.0972 L 39.339 85.9436 L 39.4329 85.8587 L 39.6965 85.6145 L 39.8136 85.5057 L 39.8633 85.4589 L 40.1607 85.1718 L 40.4027 84.94 L 40.475 84.8699 L 40.6106 84.7409 L 40.6226 84.7293 L 40.7546 84.6043 L 40.7696 84.5901 L 40.8863 84.4803 L 40.9249 84.4435 L 41.0147 84.3598 L 41.108 84.2723 L 41.2152 84.1733 L 41.2881 84.0975 L 41.2904 84.0949 L 41.3332 84.0339 L 41.3369 84.0286 L 41.3659 83.9709 L 41.3716 83.9595 L 41.3839 83.9162 L 41.3866 83.9064 L 41.3951 83.8805 L 41.3999 83.8631 L 41.4039 83.8482 L 41.4096 83.8049 L 41.4104 83.8001 L 41.4106 83.798 L 41.409 83.7648 L 41.4087 83.7597 L 41.4035 83.7282 L 41.4032 83.7268 L 41.3997 83.7129 L 41.3981 83.7076 L 41.3966 83.7009 L 41.395 83.6961 L 41.3921 83.6897 L 41.3813 83.6638 L 41.3806 83.6626 L 41.3647 83.6334 L 41.3492 83.6107 L 41.3185 83.5887 L 41.2978 83.5629 L 41.2733 83.5875 L 41.1707 83.6902 L 41.0329 83.8279 L 41.0205 83.796 L 40.9901 83.7293 L 41.0375 83.682 L 41.1 83.6195 L 41.2026 83.5168 L 41.295 83.4245 L 41.2952 83.4243 L 41.3062 83.4132 L 41.3119 83.4204" fill="none" stroke="#0000CC" stroke-width="0.05000" fill-rule="evenodd" fill-opacity="1.000"/>
    <path d="M 41.0124 84.128 L 40.8027 84.3377 L 40.7568 84.3837 L 40.618 84.5224 L 40.2908 84.8496 L 40.2345 84.9058 L 40.2346 84.9059 L 40.1186 85.022 L 40.1184 85.022 L 39.0395 86.1009 L 38.8773 86.0888 L 38.873 86.0887 L 38.9664 85.9952 L 39.0012 85.9978 L 39.2243 85.7747 L 39.4767 85.5223 L 39.5143 85.4847 L 39.6521 85.3469 L 39.7934 85.2056 L 39.8266 85.1724 L 39.9983 85.0007 L 40.077 84.922 L 40.0771 84.922 L 40.1638 84.8352 L 40.2201 84.7789 L 40.33 84.669 L 40.3637 84.6353 L 40.3826 84.6164 L 40.5235 84.4755 L 40.5473 84.4517 L 40.6861 84.313 L 40.732 84.267 L 40.8393 84.1597 L 40.855 84.144 L 40.8973 84.1017 L 40.8938 84.0916 L 40.8876 84.074 L 40.9489 84.0129 L 40.9661 83.9956 L 41.0124 84.128" fill="none" stroke="#0000CC" stroke-width="0.05000" fill-rule="evenodd" fill-opacity="1.000"/>
    </g>
    <g class="thermal-contour" data-segment="4" data-name="HollowShell1Contour_Overhang">
    <path d="M 38.7932 85.987 L 38.8812 85.9889 L 38.9664 85.9952 L 38.873 86.0887 L 38.7885 86.0869 L 38.7749 86.0859 L 38.5001 86.3606 L 38.4922 86.3601 L 38.3699 86.3494 L 38.6168 86.1026 L 38.7366 85.9829 L 38.7932 85.987" fill="none" stroke="#000080" stroke-width="0.05000" fill-rule="evenodd" fill-opacity="1.000"/>
    <path d="M 41.0205 83.796 L 41.0329 83.8279 L 41.02 83.8409 L 41.0199 83.8408 L 40.9737 83.8872 L 40.94 83.9208 L 40.9632 83.9871 L 40.9661 83.9956 L 40.9489 84.0129 L 40.8876 84.074 L 40.8688 84.02 L 40.825 83.8944 L 40.903 83.8165 L 40.9493 83.7701 L 40.9901 83.7293 L 41.0205 83.796" fill="none" stroke="#000080" stroke-width="0.05000" fill-rule="evenodd" fill-opacity="1.000"/>
    </g>
    <g class="thermal-contour" data-segment="5" data-name="HollowShell2Contour_Volume">
    <path d="M 41.3185 83.5887 L 41.3492 83.6107 L 41.3647 83.6334 L 41.3806 83.6626 L 41.3813 83.6638 L 41.3921 83.6897 L 41.395 83.6961 L 41.3966 83.7009 L 41.3981 83.7076 L 41.3997 83.7129 L 41.4032 83.7268 L 41.4035 83.7282 L 41.4087 83.7597 L 41.409 83.7648 L 41.4106 83.798 L 41.4104 83.8001 L 41.4096 83.8049 L 41.4039 83.8482 L 41.3999 83.8631 L 41.3951 83.8805 L 41.3866 83.9064 L 41.3839 83.9162 L 41.3716 83.9595 L 41.3659 83.9709 L 41.3369 84.0286 L 41.3332 84.0339 L 41.2904 84.0949 L 41.2881 84.0975 L 41.2152 84.1733 L 41.108 84.2723 L 41.0147 84.3598 L 40.9249 84.4435 L 40.8863 84.4803 L 40.7696 84.5901 L 40.7546 84.6043 L 40.6226 84.7293 L 40.6106 84.7409 L 40.475 84.8699 L 40.4027 84.94 L 40.1607 85.1718 L 39.8633 85.4589 L 39.8136 85.5057 L 39.6965 85.6145 L 39.4329 85.8587 L 39.339 85.9436 L 39.1656 86.0972 L 38.8339 86.3891 L 38.6047 86.5868 L 38.5672 86.6191 L 38.4236 86.7431 L 38.4081 86.7558 L 38.3903 86.7739 L 38.3705 86.7897 L 38.3585 86.7995 L 38.3372 86.8154 L 38.3234 86.8258 L 38.3039 86.8392 L 38.2887 86.8499 L 38.2714 86.8608 L 38.2554 86.871 L 38.2398 86.8799 L 38.2226 86.8898 L 38.2096 86.8963 L 38.1919 86.9053 L 38.1808 86.9102 L 38.1633 86.9179 L 38.1549 86.921 L 38.1375 86.9272 L 38.1311 86.929 L 38.115 86.9334 L 38.1114 86.9341 L 38.0971 86.9366 L 38.0946 86.9368 L 38.083 86.9375 L 38.075 86.9369 L 38.0715 86.936 L 38.0576 86.9295 L 38.048 86.9261 L 37.9926 86.8681 L 38.0336 86.8272 L 38.0858 86.7751 L 38.2562 86.6046 L 38.5001 86.3606 L 38.5949 86.3669 L 38.6937 86.2681 L 38.873 86.0887 L 38.8773 86.0888 L 39.0395 86.1009 L 40.1184 85.022 L 40.1186 85.022 L 40.2346 84.9059 L 40.2345 84.9058 L 40.2908 84.8496 L 40.618 84.5224 L 40.7568 84.3837 L 40.8027 84.3377 L 41.0124 84.128 L 40.9661 83.9956 L 41.0611 83.9007 L 41.0329 83.8279 L 41.1707 83.6902 L 41.2733 83.5875 L 41.2978 83.5629 L 41.3185 83.5887" fill="none" stroke="#B8860B" stroke-width="0.05000" fill-rule="evenodd" fill-opacity="1.000"/>
    <path d="M 38.3269 86.6753 L 38.2412 86.7609 L 38.2468 86.7571 L 38.2637 86.7455 L 38.2772 86.7354 L 38.2951 86.722 L 38.3077 86.7119 L 38.3235 86.6991 L 38.3406 86.6819 L 38.3602 86.6657 L 38.5019 86.5434 L 38.5394 86.511 L 38.7678 86.314 L 38.9072 86.1912 L 38.8733 86.1887 L 38.8147 86.1874 L 38.3269 86.6753" fill="none" stroke="#B8860B" stroke-width="0.05000" fill-rule="evenodd" fill-opacity="1.000"/>
    <path d="M 41.2414 83.7609 L 41.0551 83.9471 L 41.0576 83.9541 L 41.1179 84.1269 L 41.145 84.1019 L 41.2123 84.0319 L 41.251 83.9769 L 41.2766 83.926 L 41.2778 83.9234 L 41.2877 83.8889 L 41.2908 83.8775 L 41.2992 83.8517 L 41.3035 83.8365 L 41.3056 83.8282 L 41.3102 83.7935 L 41.3091 83.7709 L 41.3053 83.7478 L 41.303 83.7387 L 41.3013 83.733 L 41.3006 83.7302 L 41.3004 83.7296 L 41.2922 83.71 L 41.2414 83.7609" fill="none" stroke="#B8860B" stroke-width="0.05000" fill-rule="evenodd" fill-opacity="1.000"/>
    </g>
    <g class="thermal-contour" data-segment="6" data-name="HollowShell2Contour_Overhang">
    <path d="M 38.7885 86.0869 L 38.873 86.0887 L 38.6937 86.2681 L 38.5949 86.3669 L 38.5001 86.3606 L 38.7749 86.0859 L 38.7885 86.0869" fill="none" stroke="#006400" stroke-width="0.05000" fill-rule="evenodd" fill-opacity="1.000"/>
    <path d="M 41.0611 83.9007 L 40.9661 83.9956 L 40.9632 83.9871 L 40.94 83.9208 L 40.9737 83.8872 L 41.0199 83.8408 L 41.02 83.8409 L 41.0329 83.8279 L 41.0611 83.9007" fill="none" stroke="#006400" stroke-width="0.05000" fill-rule="evenodd" fill-opacity="1.000"/>
    </g>
    <!-- ===== Thermal Segment Colour Legend ===== -->
    <g id="thermal-legend">
    <rect x="161.0000" y="5.0000" width="40.0000" height="72.0000"
          rx="1" ry="1"
          fill="#fafafa" stroke="#cccccc" stroke-width="0.15"/>
    <text x="181.0000" y="7.6000" font-family="sans-serif" font-size="2.2000" font-weight="bold" fill="#222222" text-anchor="middle">Thermal Segments</text>
    <line x1="161.5000" y1="8.7000" x2="200.5000" y2="8.7000" stroke="#bbbbbb" stroke-width="0.1"/>
    <rect x="161.8000" y="9.0000" width="3.5000" height="2.0000" fill="#000000" stroke="#333333" stroke-width="0.08" rx="0.3" ry="0.3"/>
    <text x="168.6000" y="10.9000" font-family="monospace" font-size="1.6000" fill="#444444" text-anchor="end"> 1</text>
    <text x="169.6000" y="10.9000" font-family="sans-serif" font-size="1.6000" fill="#111111">CoreContour_Volume</text>
    <rect x="161.8000" y="12.0000" width="3.5000" height="2.0000" fill="#8B0000" stroke="#333333" stroke-width="0.08" rx="0.3" ry="0.3"/>
    <text x="168.6000" y="13.9000" font-family="monospace" font-size="1.6000" fill="#444444" text-anchor="end"> 2</text>
    <text x="169.6000" y="13.9000" font-family="sans-serif" font-size="1.6000" fill="#111111">CoreContour_Overhang</text>
    <rect x="161.8000" y="15.0000" width="3.5000" height="2.0000" fill="#0000CC" stroke="#333333" stroke-width="0.08" rx="0.3" ry="0.3"/>
    <text x="168.6000" y="16.9000" font-family="monospace" font-size="1.6000" fill="#444444" text-anchor="end"> 3</text>
    <text x="169.6000" y="16.9000" font-family="sans-serif" font-size="1.6000" fill="#111111">Shell1Contour_Volume</text>
    <rect x="161.8000" y="18.0000" width="3.5000" height="2.0000" fill="#000080" stroke="#333333" stroke-width="0.08" rx="0.3" ry="0.3"/>
    <text x="168.6000" y="19.9000" font-family="monospace" font-size="1.6000" fill="#444444" text-anchor="end"> 4</text>
    <text x="169.6000" y="19.9000" font-family="sans-serif" font-size="1.6000" fill="#111111">Shell1Contour_Overhang</text>
    <rect x="161.8000" y="21.0000" width="3.5000" height="2.0000" fill="#B8860B" stroke="#333333" stroke-width="0.08" rx="0.3" ry="0.3"/>
    <text x="168.6000" y="22.9000" font-family="monospace" font-size="1.6000" fill="#444444" text-anchor="end"> 5</text>
    <text x="169.6000" y="22.9000" font-family="sans-serif" font-size="1.6000" fill="#111111">Shell2Contour_Volume</text>
    <rect x="161.8000" y="24.0000" width="3.5000" height="2.0000" fill="#006400" stroke="#333333" stroke-width="0.08" rx="0.3" ry="0.3"/>
    <text x="168.6000" y="25.9000" font-family="monospace" font-size="1.6000" fill="#444444" text-anchor="end"> 6</text>
    <text x="169.6000" y="25.9000" font-family="sans-serif" font-size="1.6000" fill="#111111">Shell2Contour_Overhang</text>
    <rect x="161.8000" y="27.0000" width="3.5000" height="2.0000" fill="#FF8C00" stroke="#333333" stroke-width="0.08" rx="0.3" ry="0.3"/>
    <text x="168.6000" y="28.9000" font-family="monospace" font-size="1.6000" fill="#444444" text-anchor="end"> 7</text>
    <text x="169.6000" y="28.9000" font-family="sans-serif" font-size="1.6000" fill="#111111">CoreOverhangHatch</text>
    <rect x="161.8000" y="30.0000" width="3.5000" height="2.0000" fill="#228B22" stroke="#333333" stroke-width="0.08" rx="0.3" ry="0.3"/>
    <text x="168.6000" y="31.9000" font-family="monospace" font-size="1.6000" fill="#444444" text-anchor="end"> 8</text>
    <text x="169.6000" y="31.9000" font-family="sans-serif" font-size="1.6000" fill="#111111">CoreNormalHatch</text>
    <rect x="161.8000" y="33.0000" width="3.5000" height="2.0000" fill="#800080" stroke="#333333" stroke-width="0.08" rx="0.3" ry="0.3"/>
    <text x="168.6000" y="34.9000" font-family="monospace" font-size="1.6000" fill="#444444" text-anchor="end"> 9</text>
    <text x="169.6000" y="34.9000" font-family="sans-serif" font-size="1.6000" fill="#111111">CoreContourHatch</text>
    <rect x="161.8000" y="36.0000" width="3.5000" height="2.0000" fill="#FF69B4" stroke="#333333" stroke-width="0.08" rx="0.3" ry="0.3"/>
    <text x="168.6000" y="37.9000" font-family="monospace" font-size="1.6000" fill="#444444" text-anchor="end">10</text>
    <text x="169.6000" y="37.9000" font-family="sans-serif" font-size="1.6000" fill="#111111">Shell1OverhangHatch</text>
    <rect x="161.8000" y="39.0000" width="3.5000" height="2.0000" fill="#00CED1" stroke="#333333" stroke-width="0.08" rx="0.3" ry="0.3"/>
    <text x="168.6000" y="40.9000" font-family="monospace" font-size="1.6000" fill="#444444" text-anchor="end">11</text>
    <text x="169.6000" y="40.9000" font-family="sans-serif" font-size="1.6000" fill="#111111">Shell1NormalHatch</text>
    <rect x="161.8000" y="42.0000" width="3.5000" height="2.0000" fill="#FF00FF" stroke="#333333" stroke-width="0.08" rx="0.3" ry="0.3"/>
    <text x="168.6000" y="43.9000" font-family="monospace" font-size="1.6000" fill="#444444" text-anchor="end">12</text>
    <text x="169.6000" y="43.9000" font-family="sans-serif" font-size="1.6000" fill="#111111">Shell1ContourHatch</text>
    <rect x="161.8000" y="45.0000" width="3.5000" height="2.0000" fill="#A52A2A" stroke="#333333" stroke-width="0.08" rx="0.3" ry="0.3"/>
    <text x="168.6000" y="46.9000" font-family="monospace" font-size="1.6000" fill="#444444" text-anchor="end">13</text>
    <text x="169.6000" y="46.9000" font-family="sans-serif" font-size="1.6000" fill="#111111">Shell2OverhangHatch</text>
    <rect x="161.8000" y="48.0000" width="3.5000" height="2.0000" fill="#808080" stroke="#333333" stroke-width="0.08" rx="0.3" ry="0.3"/>
    <text x="168.6000" y="49.9000" font-family="monospace" font-size="1.6000" fill="#444444" text-anchor="end">14</text>
    <text x="169.6000" y="49.9000" font-family="sans-serif" font-size="1.6000" fill="#111111">Shell2NormalHatch</text>
    <rect x="161.8000" y="51.0000" width="3.5000" height="2.0000" fill="#32CD32" stroke="#333333" stroke-width="0.08" rx="0.3" ry="0.3"/>
    <text x="168.6000" y="52.9000" font-family="monospace" font-size="1.6000" fill="#444444" text-anchor="end">15</text>
    <text x="169.6000" y="52.9000" font-family="sans-serif" font-size="1.6000" fill="#111111">Shell2ContourHatch</text>
    <rect x="161.8000" y="54.0000" width="3.5000" height="2.0000" fill="#1A237E" stroke="#333333" stroke-width="0.08" rx="0.3" ry="0.3"/>
    <text x="168.6000" y="55.9000" font-family="monospace" font-size="1.6000" fill="#444444" text-anchor="end">16</text>
    <text x="169.6000" y="55.9000" font-family="sans-serif" font-size="1.6000" fill="#111111">SupportContourVolume</text>
    <rect x="161.8000" y="57.0000" width="3.5000" height="2.0000" fill="#827717" stroke="#333333" stroke-width="0.08" rx="0.3" ry="0.3"/>
    <text x="168.6000" y="58.9000" font-family="monospace" font-size="1.6000" fill="#444444" text-anchor="end">17</text>
    <text x="169.6000" y="58.9000" font-family="sans-serif" font-size="1.6000" fill="#111111">SupportHatch</text>
    <rect x="161.8000" y="60.0000" width="3.5000" height="2.0000" fill="#006064" stroke="#333333" stroke-width="0.08" rx="0.3" ry="0.3"/>
    <text x="168.6000" y="61.9000" font-family="monospace" font-size="1.6000" fill="#444444" text-anchor="end">18</text>
    <text x="169.6000" y="61.9000" font-family="sans-serif" font-size="1.6000" fill="#111111">PointSequence</text>
    <rect x="161.8000" y="63.0000" width="3.5000" height="2.0000" fill="#B71C1C" stroke="#333333" stroke-width="0.08" rx="0.3" ry="0.3"/>
    <text x="168.6000" y="64.9000" font-family="monospace" font-size="1.6000" fill="#444444" text-anchor="end">19</text>
    <text x="169.6000" y="64.9000" font-family="sans-serif" font-size="1.6000" fill="#111111">ExternalSupports</text>
    <rect x="161.8000" y="66.0000" width="3.5000" height="2.0000" fill="#E64A19" stroke="#333333" stroke-width="0.08" rx="0.3" ry="0.3"/>
    <text x="168.6000" y="67.9000" font-family="monospace" font-size="1.6000" fill="#444444" text-anchor="end">20</text>
    <text x="169.6000" y="67.9000" font-family="sans-serif" font-size="1.6000" fill="#111111">CoreContourHatchOverhang</text>
    <rect x="161.8000" y="69.0000" width="3.5000" height="2.0000" fill="#311B92" stroke="#333333" stroke-width="0.08" rx="0.3" ry="0.3"/>
    <text x="168.6000" y="70.9000" font-family="monospace" font-size="1.6000" fill="#444444" text-anchor="end">21</text>
    <text x="169.6000" y="70.9000" font-family="sans-serif" font-size="1.6000" fill="#111111">Shell1ContourHatchOverhang</text>
    <rect x="161.8000" y="72.0000" width="3.5000" height="2.0000" fill="#880E4F" stroke="#333333" stroke-width="0.08" rx="0.3" ry="0.3"/>
    <text x="168.6000" y="73.9000" font-family="monospace" font-size="1.6000" fill="#444444" text-anchor="end">22</text>
    <text x="169.6000" y="73.9000" font-family="sans-serif" font-size="1.6000" fill="#111111">Shell2ContourHatchOverhang</text>
    </g>
  </g>
</svg>
