<?xml version="1.0" encoding="UTF-8" standalone="yes"?>
<svg xmlns="http://www.w3.org/2000/svg"
     xmlns:xlink="http://www.w3.org/1999/xlink"
     width="2020.0000mm" height="1600.0000mm"
     viewBox="0 0 202.000000 160.000000">
  <!--
    Build plate : 150.00 x 150.00 mm
    Coordinate  : 1 SVG unit = 1 mm
    Display zoom: 10x  (width/height = viewBox x 10)
    Hatch stroke: 0.04 mm = ~28 mm on screen at this zoom
    Legend panel: right margin (42 mm wide)
  -->
  <defs>
    <marker id="endArrow" markerWidth="2" markerHeight="1.4"
            refX="0" refY="0.7" orient="auto"
            markerUnits="strokeWidth">
      <polyline fill="darkblue" points="0,0 2,0.7 0,1.4 0.2,0.7"/>
    </marker>
  </defs>
  <!-- Background -->
  <rect x="0" y="0" width="202.000000" height="160.000000" fill="#f0f0f0" stroke="none"/>
  <!-- Build plate boundary (150 x 150 mm) -->
  <rect x="5.000000" y="5.000000" width="150.000000" height="150.000000"
        fill="#ffffff" stroke="#aaaaaa" stroke-width="0.2" stroke-dasharray="1,0.5"/>
  <!-- Build plate centre circle (r = 75.00 mm) -->
  <circle cx="80.000000" cy="80.000000" r="75.000000"
          fill="none" stroke="#bbbbbb" stroke-width="0.15" stroke-dasharray="0.8,0.4"/>
  <!-- Centre cross-hair -->
  <line x1="5.000000" y1="80.000000" x2="155.000000" y2="80.000000" stroke="#cccccc" stroke-width="0.1"/>
  <line x1="80.000000" y1="5.000000" x2="80.000000" y2="155.000000" stroke="#cccccc" stroke-width="0.1"/>
  <circle cx="80.000000" cy="80.000000" r="0.3" fill="#cccccc" stroke="none"/>
  <!-- Corner labels -->
  <text x="5.400000" y="4.600000" font-family="sans-serif" font-size="2" fill="#888888">0,0</text>
  <text x="154.600006" y="4.600000" font-family="sans-serif" font-size="2" fill="#888888" text-anchor="end">150,0</text>
  <text x="5.400000" y="157.199997" font-family="sans-serif" font-size="2" fill="#888888">0,150</text>
  <!-- Layer geometry -->
  <g id="geometry">
    <g class="thermal-hatch" data-segment="8" data-name="CoreNormalHatch">
      <line x1="31.34366" y1="113.57077" x2="34.95602" y2="127.05228" stroke="#228B22" stroke-width="0.04000"/>
      <line x1="31.28874" y1="113.75220" x2="34.84340" y2="127.01833" stroke="#228B22" stroke-width="0.04000"/>
      <line x1="31.40877" y1="113.42741" x2="35.04715" y2="127.00603" stroke="#228B22" stroke-width="0.04000"/>
      <line x1="31.48746" y1="113.33469" x2="35.13829" y2="126.95978" stroke="#228B22" stroke-width="0.04000"/>
      <line x1="31.56614" y1="113.24197" x2="35.22942" y2="126.91352" stroke="#228B22" stroke-width="0.04000"/>
      <line x1="31.22924" y1="113.91650" x2="34.70480" y2="126.88747" stroke="#228B22" stroke-width="0.04000"/>
      <line x1="31.64482" y1="113.14925" x2="35.32056" y2="126.86727" stroke="#228B22" stroke-width="0.04000"/>
      <line x1="31.72351" y1="113.05654" x2="35.41169" y2="126.82102" stroke="#228B22" stroke-width="0.04000"/>
      <line x1="31.80095" y1="112.95919" x2="35.50282" y2="126.77477" stroke="#228B22" stroke-width="0.04000"/>
      <line x1="31.16429" y1="114.06046" x2="34.56621" y2="126.75661" stroke="#228B22" stroke-width="0.04000"/>
      <line x1="31.87787" y1="112.85988" x2="35.59396" y2="126.72852" stroke="#228B22" stroke-width="0.04000"/>
      <line x1="31.95479" y1="112.76057" x2="35.67011" y2="126.62634" stroke="#228B22" stroke-width="0.04000"/>
      <line x1="31.09934" y1="114.20443" x2="34.42762" y2="126.62576" stroke="#228B22" stroke-width="0.04000"/>
      <line x1="31.03438" y1="114.34839" x2="34.29360" y2="126.51196" stroke="#228B22" stroke-width="0.04000"/>
      <line x1="30.96943" y1="114.49236" x2="34.14870" y2="126.35753" stroke="#228B22" stroke-width="0.04000"/>
      <line x1="32.03289" y1="112.66570" x2="35.69918" y2="126.34845" stroke="#228B22" stroke-width="0.04000"/>
      <line x1="32.12391" y1="112.61900" x2="35.72150" y2="126.04539" stroke="#228B22" stroke-width="0.04000"/>
      <line x1="32.21492" y1="112.57228" x2="35.74382" y2="125.74233" stroke="#228B22" stroke-width="0.04000"/>
      <line x1="30.90448" y1="114.63631" x2="33.82858" y2="125.54920" stroke="#228B22" stroke-width="0.04000"/>
      <line x1="32.30593" y1="112.52557" x2="35.76896" y2="125.44979" stroke="#228B22" stroke-width="0.04000"/>
      <line x1="32.39694" y1="112.47887" x2="35.77461" y2="125.08451" stroke="#228B22" stroke-width="0.04000"/>
      <line x1="32.48795" y1="112.43216" x2="35.75368" y2="124.62001" stroke="#228B22" stroke-width="0.04000"/>
      <line x1="30.85436" y1="114.83566" x2="33.42014" y2="124.41125" stroke="#228B22" stroke-width="0.04000"/>
      <line x1="32.57896" y1="112.38544" x2="35.76008" y2="124.25752" stroke="#228B22" stroke-width="0.04000"/>
      <line x1="32.67027" y1="112.33981" x2="35.77037" y2="123.90957" stroke="#228B22" stroke-width="0.04000"/>
      <line x1="32.76214" y1="112.29631" x2="35.76436" y2="123.50076" stroke="#228B22" stroke-width="0.04000"/>
      <line x1="30.80896" y1="115.05260" x2="33.00822" y2="123.26036" stroke="#228B22" stroke-width="0.04000"/>
      <line x1="32.86584" y1="112.29699" x2="35.76817" y2="123.12862" stroke="#228B22" stroke-width="0.04000"/>
      <line x1="32.97794" y1="112.32896" x2="35.76651" y2="122.73604" stroke="#228B22" stroke-width="0.04000"/>
      <line x1="33.09075" y1="112.36359" x2="35.78007" y2="122.40026" stroke="#228B22" stroke-width="0.04000"/>
      <line x1="33.20396" y1="112.39972" x2="35.78060" y2="122.01588" stroke="#228B22" stroke-width="0.04000"/>
      <line x1="33.31717" y1="112.43585" x2="35.77797" y2="121.61969" stroke="#228B22" stroke-width="0.04000"/>
      <line x1="33.43037" y1="112.47198" x2="35.80158" y2="121.32145" stroke="#228B22" stroke-width="0.04000"/>
      <line x1="33.54359" y1="112.50812" x2="35.82224" y2="121.01216" stroke="#228B22" stroke-width="0.04000"/>
      <line x1="33.66462" y1="112.57347" x2="35.81107" y2="120.58414" stroke="#228B22" stroke-width="0.04000"/>
      <line x1="30.76392" y1="115.27086" x2="32.17096" y2="120.52201" stroke="#228B22" stroke-width="0.04000"/>
      <line x1="33.83075" y1="112.80710" x2="35.82552" y2="120.25169" stroke="#228B22" stroke-width="0.04000"/>
      <line x1="33.99676" y1="113.04029" x2="35.81529" y2="119.82713" stroke="#228B22" stroke-width="0.04000"/>
      <line x1="30.71988" y1="115.49286" x2="31.81834" y2="119.59237" stroke="#228B22" stroke-width="0.04000"/>
      <line x1="34.16233" y1="113.27182" x2="35.78523" y2="119.32858" stroke="#228B22" stroke-width="0.04000"/>
      <line x1="30.67583" y1="115.71486" x2="31.63823" y2="119.30656" stroke="#228B22" stroke-width="0.04000"/>
      <line x1="30.63090" y1="115.93352" x2="31.44105" y2="118.95706" stroke="#228B22" stroke-width="0.04000"/>
      <line x1="34.32789" y1="113.50334" x2="35.73644" y2="118.76011" stroke="#228B22" stroke-width="0.04000"/>
      <line x1="30.57700" y1="116.11877" x2="31.24493" y2="118.61150" stroke="#228B22" stroke-width="0.04000"/>
      <line x1="30.55759" y1="116.43267" x2="31.05009" y2="118.27070" stroke="#228B22" stroke-width="0.04000"/>
      <line x1="34.56903" y1="114.01692" x2="35.68094" y2="118.16662" stroke="#228B22" stroke-width="0.04000"/>
      <line x1="30.60333" y1="116.98976" x2="30.86407" y2="117.96284" stroke="#228B22" stroke-width="0.04000"/>
      <line x1="30.66635" y1="117.61131" x2="30.68153" y2="117.66796" stroke="#228B22" stroke-width="0.04000"/>
      <line x1="34.89629" y1="114.85188" x2="35.54102" y2="117.25804" stroke="#228B22" stroke-width="0.04000"/>
    </g>
    <g class="thermal-hatch" data-segment="8" data-name="CoreNormalHatch">
      <line x1="50.73103" y1="110.57465" x2="51.42787" y2="113.17531" stroke="#228B22" stroke-width="0.04000"/>
      <line x1="50.84846" y1="110.62656" x2="51.52972" y2="113.16904" stroke="#228B22" stroke-width="0.04000"/>
      <line x1="50.61359" y1="110.52274" x2="51.31784" y2="113.15104" stroke="#228B22" stroke-width="0.04000"/>
      <line x1="50.49615" y1="110.47083" x2="51.20781" y2="113.12677" stroke="#228B22" stroke-width="0.04000"/>
      <line x1="50.96590" y1="110.67847" x2="51.61864" y2="113.11453" stroke="#228B22" stroke-width="0.04000"/>
      <line x1="50.37872" y1="110.41891" x2="51.09778" y2="113.10249" stroke="#228B22" stroke-width="0.04000"/>
      <line x1="50.26128" y1="110.36700" x2="50.98775" y2="113.07822" stroke="#228B22" stroke-width="0.04000"/>
      <line x1="51.08566" y1="110.73904" x2="51.70756" y2="113.06002" stroke="#228B22" stroke-width="0.04000"/>
      <line x1="50.14384" y1="110.31510" x2="50.87772" y2="113.05396" stroke="#228B22" stroke-width="0.04000"/>
      <line x1="50.02641" y1="110.26319" x2="50.76769" y2="113.02969" stroke="#228B22" stroke-width="0.04000"/>
      <line x1="49.91067" y1="110.21763" x2="50.65766" y2="113.00542" stroke="#228B22" stroke-width="0.04000"/>
      <line x1="51.20593" y1="110.80153" x2="51.79628" y2="113.00475" stroke="#228B22" stroke-width="0.04000"/>
      <line x1="49.79588" y1="110.17561" x2="50.55175" y2="112.99655" stroke="#228B22" stroke-width="0.04000"/>
      <line x1="49.68110" y1="110.13359" x2="50.44681" y2="112.99127" stroke="#228B22" stroke-width="0.04000"/>
      <line x1="49.56631" y1="110.09158" x2="50.34187" y2="112.98599" stroke="#228B22" stroke-width="0.04000"/>
      <line x1="49.45153" y1="110.04956" x2="50.23574" y2="112.97627" stroke="#228B22" stroke-width="0.04000"/>
      <line x1="49.33674" y1="110.00754" x2="50.12694" y2="112.95660" stroke="#228B22" stroke-width="0.04000"/>
      <line x1="51.32620" y1="110.86401" x2="51.88444" y2="112.94740" stroke="#228B22" stroke-width="0.04000"/>
      <line x1="49.22195" y1="109.96552" x2="50.01814" y2="112.93694" stroke="#228B22" stroke-width="0.04000"/>
      <line x1="49.10717" y1="109.92351" x2="49.90935" y2="112.91727" stroke="#228B22" stroke-width="0.04000"/>
      <line x1="48.99238" y1="109.88148" x2="49.80054" y2="112.89761" stroke="#228B22" stroke-width="0.04000"/>
      <line x1="51.44647" y1="110.92650" x2="51.97260" y2="112.89004" stroke="#228B22" stroke-width="0.04000"/>
      <line x1="48.87759" y1="109.83947" x2="49.69255" y2="112.88094" stroke="#228B22" stroke-width="0.04000"/>
      <line x1="48.76130" y1="109.79182" x2="49.58474" y2="112.86494" stroke="#228B22" stroke-width="0.04000"/>
      <line x1="48.64518" y1="109.74482" x2="49.47692" y2="112.84893" stroke="#228B22" stroke-width="0.04000"/>
      <line x1="48.53074" y1="109.70410" x2="49.36946" y2="112.83423" stroke="#228B22" stroke-width="0.04000"/>
      <line x1="51.68812" y1="111.44196" x2="52.06076" y2="112.83268" stroke="#228B22" stroke-width="0.04000"/>
      <line x1="48.41630" y1="109.66338" x2="49.26399" y2="112.82700" stroke="#228B22" stroke-width="0.04000"/>
      <line x1="48.30186" y1="109.62266" x2="49.15852" y2="112.81976" stroke="#228B22" stroke-width="0.04000"/>
      <line x1="48.18742" y1="109.58194" x2="49.05306" y2="112.81252" stroke="#228B22" stroke-width="0.04000"/>
      <line x1="48.07299" y1="109.54122" x2="48.94759" y2="112.80529" stroke="#228B22" stroke-width="0.04000"/>
      <line x1="47.95855" y1="109.50050" x2="48.84212" y2="112.79805" stroke="#228B22" stroke-width="0.04000"/>
      <line x1="47.84411" y1="109.45979" x2="48.73666" y2="112.79082" stroke="#228B22" stroke-width="0.04000"/>
      <line x1="47.72967" y1="109.41906" x2="48.63067" y2="112.78162" stroke="#228B22" stroke-width="0.04000"/>
      <line x1="51.94324" y1="112.00774" x2="52.14891" y2="112.77532" stroke="#228B22" stroke-width="0.04000"/>
      <line x1="47.61154" y1="109.36456" x2="48.52458" y2="112.77206" stroke="#228B22" stroke-width="0.04000"/>
      <line x1="47.49514" y1="109.31653" x2="48.41849" y2="112.76251" stroke="#228B22" stroke-width="0.04000"/>
      <line x1="47.37957" y1="109.27157" x2="48.31240" y2="112.75296" stroke="#228B22" stroke-width="0.04000"/>
      <line x1="47.26399" y1="109.22661" x2="48.20631" y2="112.74340" stroke="#228B22" stroke-width="0.04000"/>
      <line x1="47.14842" y1="109.18165" x2="48.10099" y2="112.73668" stroke="#228B22" stroke-width="0.04000"/>
      <line x1="47.03284" y1="109.13669" x2="47.99648" y2="112.73301" stroke="#228B22" stroke-width="0.04000"/>
      <line x1="46.91727" y1="109.09173" x2="47.89196" y2="112.72934" stroke="#228B22" stroke-width="0.04000"/>
      <line x1="46.80170" y1="109.04677" x2="47.78674" y2="112.72301" stroke="#228B22" stroke-width="0.04000"/>
      <line x1="52.18241" y1="112.51397" x2="52.23708" y2="112.71796" stroke="#228B22" stroke-width="0.04000"/>
      <line x1="46.68526" y1="108.99861" x2="47.68022" y2="112.71185" stroke="#228B22" stroke-width="0.04000"/>
      <line x1="46.56624" y1="108.94080" x2="47.57371" y2="112.70070" stroke="#228B22" stroke-width="0.04000"/>
      <line x1="46.44796" y1="108.88571" x2="47.46719" y2="112.68955" stroke="#228B22" stroke-width="0.04000"/>
      <line x1="46.33010" y1="108.83226" x2="47.36068" y2="112.67840" stroke="#228B22" stroke-width="0.04000"/>
      <line x1="46.21226" y1="108.77881" x2="47.25416" y2="112.66725" stroke="#228B22" stroke-width="0.04000"/>
      <line x1="46.09441" y1="108.72536" x2="47.14764" y2="112.65610" stroke="#228B22" stroke-width="0.04000"/>
      <line x1="45.97656" y1="108.67191" x2="47.04184" y2="112.64758" stroke="#228B22" stroke-width="0.04000"/>
      <line x1="45.85871" y1="108.61846" x2="46.93615" y2="112.63952" stroke="#228B22" stroke-width="0.04000"/>
      <line x1="45.74086" y1="108.56502" x2="46.83046" y2="112.63146" stroke="#228B22" stroke-width="0.04000"/>
      <line x1="45.61584" y1="108.48479" x2="46.72437" y2="112.62188" stroke="#228B22" stroke-width="0.04000"/>
      <line x1="45.49308" y1="108.41302" x2="46.61585" y2="112.60326" stroke="#228B22" stroke-width="0.04000"/>
      <line x1="45.37194" y1="108.34729" x2="46.50733" y2="112.58463" stroke="#228B22" stroke-width="0.04000"/>
      <line x1="45.25181" y1="108.28534" x2="46.39881" y2="112.56600" stroke="#228B22" stroke-width="0.04000"/>
      <line x1="45.13169" y1="108.22340" x2="46.29029" y2="112.54738" stroke="#228B22" stroke-width="0.04000"/>
      <line x1="45.01156" y1="108.16145" x2="46.18177" y2="112.52876" stroke="#228B22" stroke-width="0.04000"/>
      <line x1="44.89143" y1="108.09951" x2="46.07335" y2="112.51047" stroke="#228B22" stroke-width="0.04000"/>
      <line x1="44.77131" y1="108.03756" x2="45.96507" y2="112.49274" stroke="#228B22" stroke-width="0.04000"/>
      <line x1="44.64755" y1="107.96206" x2="45.85680" y2="112.47502" stroke="#228B22" stroke-width="0.04000"/>
      <line x1="44.51353" y1="107.84828" x2="45.74852" y2="112.45730" stroke="#228B22" stroke-width="0.04000"/>
      <line x1="44.37952" y1="107.73450" x2="45.64024" y2="112.43958" stroke="#228B22" stroke-width="0.04000"/>
      <line x1="44.24551" y1="107.62074" x2="45.53197" y2="112.42186" stroke="#228B22" stroke-width="0.04000"/>
      <line x1="44.12083" y1="107.54182" x2="45.42226" y2="112.39879" stroke="#228B22" stroke-width="0.04000"/>
      <line x1="43.99734" y1="107.46732" x2="45.31177" y2="112.37282" stroke="#228B22" stroke-width="0.04000"/>
      <line x1="43.86602" y1="107.36359" x2="45.20128" y2="112.34686" stroke="#228B22" stroke-width="0.04000"/>
      <line x1="43.71016" y1="107.16826" x2="45.08824" y2="112.31133" stroke="#228B22" stroke-width="0.04000"/>
      <line x1="43.55430" y1="106.97294" x2="44.97467" y2="112.27384" stroke="#228B22" stroke-width="0.04000"/>
      <line x1="43.41283" y1="106.83136" x2="44.86110" y2="112.23636" stroke="#228B22" stroke-width="0.04000"/>
      <line x1="43.27496" y1="106.70319" x2="44.74775" y2="112.19972" stroke="#228B22" stroke-width="0.04000"/>
      <line x1="43.13708" y1="106.57501" x2="44.63441" y2="112.16310" stroke="#228B22" stroke-width="0.04000"/>
      <line x1="42.99852" y1="106.44423" x2="44.52107" y2="112.12649" stroke="#228B22" stroke-width="0.04000"/>
      <line x1="42.85815" y1="106.30676" x2="44.40773" y2="112.08987" stroke="#228B22" stroke-width="0.04000"/>
      <line x1="42.72676" y1="106.20276" x2="44.29328" y2="112.04908" stroke="#228B22" stroke-width="0.04000"/>
      <line x1="42.59657" y1="106.10326" x2="44.17547" y2="111.99577" stroke="#228B22" stroke-width="0.04000"/>
      <line x1="42.48108" y1="106.05861" x2="44.05766" y2="111.94247" stroke="#228B22" stroke-width="0.04000"/>
      <line x1="42.36559" y1="106.01395" x2="43.93984" y2="111.88915" stroke="#228B22" stroke-width="0.04000"/>
      <line x1="42.25009" y1="105.96929" x2="43.82189" y2="111.83532" stroke="#228B22" stroke-width="0.04000"/>
      <line x1="42.13460" y1="105.92464" x2="43.69615" y2="111.75242" stroke="#228B22" stroke-width="0.04000"/>
      <line x1="42.02090" y1="105.88667" x2="43.57041" y2="111.66952" stroke="#228B22" stroke-width="0.04000"/>
      <line x1="41.91023" y1="105.86002" x2="43.44502" y2="111.58793" stroke="#228B22" stroke-width="0.04000"/>
      <line x1="41.79957" y1="105.83338" x2="43.31985" y2="111.50718" stroke="#228B22" stroke-width="0.04000"/>
      <line x1="41.68890" y1="105.80674" x2="43.19472" y2="111.42653" stroke="#228B22" stroke-width="0.04000"/>
      <line x1="41.57823" y1="105.78010" x2="43.07013" y2="111.34793" stroke="#228B22" stroke-width="0.04000"/>
      <line x1="41.46757" y1="105.75346" x2="42.94554" y2="111.26933" stroke="#228B22" stroke-width="0.04000"/>
      <line x1="41.35690" y1="105.72681" x2="42.82095" y2="111.19073" stroke="#228B22" stroke-width="0.04000"/>
      <line x1="41.24623" y1="105.70017" x2="42.69637" y2="111.11213" stroke="#228B22" stroke-width="0.04000"/>
      <line x1="41.13412" y1="105.66814" x2="42.57216" y2="111.03496" stroke="#228B22" stroke-width="0.04000"/>
      <line x1="41.02278" y1="105.63899" x2="42.44803" y2="110.95808" stroke="#228B22" stroke-width="0.04000"/>
      <line x1="40.92077" y1="105.64465" x2="42.32390" y2="110.88120" stroke="#228B22" stroke-width="0.04000"/>
      <line x1="40.82287" y1="105.66564" x2="42.19978" y2="110.80433" stroke="#228B22" stroke-width="0.04000"/>
      <line x1="40.72497" y1="105.68663" x2="42.07252" y2="110.71577" stroke="#228B22" stroke-width="0.04000"/>
      <line x1="40.62707" y1="105.70763" x2="41.94419" y2="110.62321" stroke="#228B22" stroke-width="0.04000"/>
      <line x1="40.52916" y1="105.72861" x2="41.81508" y2="110.52772" stroke="#228B22" stroke-width="0.04000"/>
      <line x1="40.43126" y1="105.74961" x2="41.68358" y2="110.42333" stroke="#228B22" stroke-width="0.04000"/>
      <line x1="40.33336" y1="105.77061" x2="41.55327" y2="110.32338" stroke="#228B22" stroke-width="0.04000"/>
      <line x1="40.23545" y1="105.79160" x2="41.42377" y2="110.22647" stroke="#228B22" stroke-width="0.04000"/>
      <line x1="40.13755" y1="105.81259" x2="41.29428" y2="110.12957" stroke="#228B22" stroke-width="0.04000"/>
      <line x1="40.04630" y1="105.85838" x2="41.16479" y2="110.03266" stroke="#228B22" stroke-width="0.04000"/>
      <line x1="39.96130" y1="105.92755" x2="41.03530" y2="109.93575" stroke="#228B22" stroke-width="0.04000"/>
      <line x1="39.87631" y1="105.99673" x2="40.89112" y2="109.78407" stroke="#228B22" stroke-width="0.04000"/>
      <line x1="39.79131" y1="106.06590" x2="40.74778" y2="109.63546" stroke="#228B22" stroke-width="0.04000"/>
      <line x1="39.70632" y1="106.13507" x2="40.61021" y2="109.50844" stroke="#228B22" stroke-width="0.04000"/>
      <line x1="39.62133" y1="106.20424" x2="40.47265" y2="109.38142" stroke="#228B22" stroke-width="0.04000"/>
      <line x1="39.53633" y1="106.27341" x2="40.33509" y2="109.25440" stroke="#228B22" stroke-width="0.04000"/>
      <line x1="39.45623" y1="106.36082" x2="40.18727" y2="109.08912" stroke="#228B22" stroke-width="0.04000"/>
      <line x1="39.39848" y1="106.53168" x2="40.03419" y2="108.90417" stroke="#228B22" stroke-width="0.04000"/>
      <line x1="39.34074" y1="106.70254" x2="39.88146" y2="108.72056" stroke="#228B22" stroke-width="0.04000"/>
      <line x1="39.28299" y1="106.87338" x2="39.71860" y2="108.49912" stroke="#228B22" stroke-width="0.04000"/>
      <line x1="39.23079" y1="107.06496" x2="39.47982" y2="107.99435" stroke="#228B22" stroke-width="0.04000"/>
    </g>
    <g class="thermal-hatch" data-segment="8" data-name="CoreNormalHatch">
      <line x1="32.93560" y1="112.61850" x2="33.45960" y2="112.78560" stroke="#228B22" stroke-width="0.04000"/>
      <line x1="33.45960" y1="112.78560" x2="33.72670" y2="113.16130" stroke="#228B22" stroke-width="0.04000"/>
      <line x1="33.72670" y1="113.16130" x2="34.12590" y2="113.71950" stroke="#228B22" stroke-width="0.04000"/>
      <line x1="34.12590" y1="113.71950" x2="34.19730" y2="113.89030" stroke="#228B22" stroke-width="0.04000"/>
      <line x1="34.19730" y1="113.89030" x2="34.30840" y2="114.14490" stroke="#228B22" stroke-width="0.04000"/>
      <line x1="34.30840" y1="114.14490" x2="34.53090" y2="114.71350" stroke="#228B22" stroke-width="0.04000"/>
      <line x1="34.53090" y1="114.71350" x2="34.73330" y2="115.23170" stroke="#228B22" stroke-width="0.04000"/>
      <line x1="34.73330" y1="115.23170" x2="34.85720" y2="115.64420" stroke="#228B22" stroke-width="0.04000"/>
      <line x1="34.85720" y1="115.64420" x2="34.97700" y2="116.09340" stroke="#228B22" stroke-width="0.04000"/>
      <line x1="34.97700" y1="116.09340" x2="35.10670" y2="116.58950" stroke="#228B22" stroke-width="0.04000"/>
      <line x1="35.10670" y1="116.58950" x2="35.10670" y2="116.58960" stroke="#228B22" stroke-width="0.04000"/>
      <line x1="35.10670" y1="116.58960" x2="35.21780" y2="117.03800" stroke="#228B22" stroke-width="0.04000"/>
      <line x1="35.21780" y1="117.03800" x2="35.26820" y2="117.40150" stroke="#228B22" stroke-width="0.04000"/>
      <line x1="35.26820" y1="117.40150" x2="35.39510" y2="118.21590" stroke="#228B22" stroke-width="0.04000"/>
      <line x1="35.39510" y1="118.21590" x2="35.39760" y2="118.33480" stroke="#228B22" stroke-width="0.04000"/>
      <line x1="35.39760" y1="118.33480" x2="35.49270" y2="119.19620" stroke="#228B22" stroke-width="0.04000"/>
      <line x1="35.49270" y1="119.19620" x2="35.49450" y2="119.32640" stroke="#228B22" stroke-width="0.04000"/>
      <line x1="35.49450" y1="119.32640" x2="35.54150" y2="120.10590" stroke="#228B22" stroke-width="0.04000"/>
      <line x1="35.54150" y1="120.10590" x2="35.52070" y2="120.57790" stroke="#228B22" stroke-width="0.04000"/>
      <line x1="35.52070" y1="120.57790" x2="35.53260" y2="121.04180" stroke="#228B22" stroke-width="0.04000"/>
      <line x1="35.53260" y1="121.04180" x2="35.48800" y2="121.60890" stroke="#228B22" stroke-width="0.04000"/>
      <line x1="35.48800" y1="121.60890" x2="35.49250" y2="122.33880" stroke="#228B22" stroke-width="0.04000"/>
      <line x1="35.49250" y1="122.33880" x2="35.47620" y2="122.66710" stroke="#228B22" stroke-width="0.04000"/>
      <line x1="35.47620" y1="122.66710" x2="35.47870" y2="123.24340" stroke="#228B22" stroke-width="0.04000"/>
      <line x1="35.47870" y1="123.24340" x2="35.47230" y2="123.62840" stroke="#228B22" stroke-width="0.04000"/>
      <line x1="35.47230" y1="123.62840" x2="35.48240" y2="123.83160" stroke="#228B22" stroke-width="0.04000"/>
      <line x1="35.48240" y1="123.83160" x2="35.46080" y2="124.56440" stroke="#228B22" stroke-width="0.04000"/>
      <line x1="35.46080" y1="124.56440" x2="35.49310" y2="125.28310" stroke="#228B22" stroke-width="0.04000"/>
      <line x1="35.49310" y1="125.28310" x2="35.46330" y2="125.60230" stroke="#228B22" stroke-width="0.04000"/>
      <line x1="35.46330" y1="125.60230" x2="35.39680" y2="126.50310" stroke="#228B22" stroke-width="0.04000"/>
      <line x1="35.39680" y1="126.50310" x2="34.95670" y2="126.72640" stroke="#228B22" stroke-width="0.04000"/>
      <line x1="34.95670" y1="126.72640" x2="34.53700" y2="126.33020" stroke="#228B22" stroke-width="0.04000"/>
      <line x1="34.53700" y1="126.33020" x2="34.41450" y2="126.24140" stroke="#228B22" stroke-width="0.04000"/>
      <line x1="34.41450" y1="126.24140" x2="34.29550" y2="125.93780" stroke="#228B22" stroke-width="0.04000"/>
      <line x1="34.29550" y1="125.93780" x2="34.07560" y2="125.38560" stroke="#228B22" stroke-width="0.04000"/>
      <line x1="34.07560" y1="125.38560" x2="33.96670" y2="125.08820" stroke="#228B22" stroke-width="0.04000"/>
      <line x1="33.96670" y1="125.08820" x2="33.96660" y2="125.08820" stroke="#228B22" stroke-width="0.04000"/>
      <line x1="33.96660" y1="125.08820" x2="33.75170" y2="124.46720" stroke="#228B22" stroke-width="0.04000"/>
      <line x1="33.75170" y1="124.46720" x2="33.55270" y2="123.94420" stroke="#228B22" stroke-width="0.04000"/>
      <line x1="33.55270" y1="123.94420" x2="33.39240" y2="123.45230" stroke="#228B22" stroke-width="0.04000"/>
      <line x1="33.39240" y1="123.45230" x2="33.18930" y2="122.92260" stroke="#228B22" stroke-width="0.04000"/>
      <line x1="33.18930" y1="122.92260" x2="33.05460" y2="122.47520" stroke="#228B22" stroke-width="0.04000"/>
      <line x1="33.05460" y1="122.47520" x2="32.82520" y2="121.76790" stroke="#228B22" stroke-width="0.04000"/>
      <line x1="32.82520" y1="121.76790" x2="32.73640" y2="121.44830" stroke="#228B22" stroke-width="0.04000"/>
      <line x1="32.73640" y1="121.44830" x2="32.48630" y2="120.55040" stroke="#228B22" stroke-width="0.04000"/>
      <line x1="32.48630" y1="120.55040" x2="32.48410" y2="120.54010" stroke="#228B22" stroke-width="0.04000"/>
      <line x1="32.48410" y1="120.54010" x2="32.47150" y2="120.49920" stroke="#228B22" stroke-width="0.04000"/>
      <line x1="32.47150" y1="120.49920" x2="32.10470" y2="119.50060" stroke="#228B22" stroke-width="0.04000"/>
      <line x1="32.10470" y1="119.50060" x2="31.92190" y2="119.21940" stroke="#228B22" stroke-width="0.04000"/>
      <line x1="31.92190" y1="119.21940" x2="31.58530" y2="118.62240" stroke="#228B22" stroke-width="0.04000"/>
      <line x1="31.58530" y1="118.62240" x2="31.21660" y2="117.97770" stroke="#228B22" stroke-width="0.04000"/>
      <line x1="31.21660" y1="117.97770" x2="31.06910" y2="117.74440" stroke="#228B22" stroke-width="0.04000"/>
      <line x1="31.06910" y1="117.74440" x2="31.06900" y2="117.74440" stroke="#228B22" stroke-width="0.04000"/>
      <line x1="31.06900" y1="117.74440" x2="30.95180" y2="117.55390" stroke="#228B22" stroke-width="0.04000"/>
      <line x1="30.95180" y1="117.55390" x2="30.88420" y2="116.88500" stroke="#228B22" stroke-width="0.04000"/>
      <line x1="30.88420" y1="116.88500" x2="30.83540" y2="116.26810" stroke="#228B22" stroke-width="0.04000"/>
      <line x1="30.83540" y1="116.26810" x2="30.91770" y2="115.98560" stroke="#228B22" stroke-width="0.04000"/>
      <line x1="30.91770" y1="115.98560" x2="31.05960" y2="115.27120" stroke="#228B22" stroke-width="0.04000"/>
      <line x1="31.05960" y1="115.27120" x2="31.05950" y2="115.27110" stroke="#228B22" stroke-width="0.04000"/>
      <line x1="31.05950" y1="115.27110" x2="31.13780" y2="114.89720" stroke="#228B22" stroke-width="0.04000"/>
      <line x1="31.13780" y1="114.89720" x2="31.16590" y2="114.76170" stroke="#228B22" stroke-width="0.04000"/>
      <line x1="31.16590" y1="114.76170" x2="31.53090" y2="113.95280" stroke="#228B22" stroke-width="0.04000"/>
      <line x1="31.53090" y1="113.95280" x2="31.63490" y2="113.60870" stroke="#228B22" stroke-width="0.04000"/>
      <line x1="31.63490" y1="113.60870" x2="31.97210" y2="113.21170" stroke="#228B22" stroke-width="0.04000"/>
      <line x1="31.97210" y1="113.21170" x2="32.21480" y2="112.89810" stroke="#228B22" stroke-width="0.04000"/>
      <line x1="32.21480" y1="112.89810" x2="32.76740" y2="112.61460" stroke="#228B22" stroke-width="0.04000"/>
      <line x1="32.76740" y1="112.61460" x2="32.82550" y2="112.58710" stroke="#228B22" stroke-width="0.04000"/>
      <line x1="32.82550" y1="112.58710" x2="32.93560" y2="112.61850" stroke="#228B22" stroke-width="0.04000"/>
      <line x1="40.99950" y1="105.93110" x2="41.17190" y2="105.98050" stroke="#228B22" stroke-width="0.04000"/>
      <line x1="41.17190" y1="105.98050" x2="41.97480" y2="106.17380" stroke="#228B22" stroke-width="0.04000"/>
      <line x1="41.97480" y1="106.17380" x2="42.45710" y2="106.36020" stroke="#228B22" stroke-width="0.04000"/>
      <line x1="42.45710" y1="106.36020" x2="42.65850" y2="106.51700" stroke="#228B22" stroke-width="0.04000"/>
      <line x1="42.65850" y1="106.51700" x2="42.83780" y2="106.69260" stroke="#228B22" stroke-width="0.04000"/>
      <line x1="42.83780" y1="106.69260" x2="43.30950" y2="107.13110" stroke="#228B22" stroke-width="0.04000"/>
      <line x1="43.30950" y1="107.13110" x2="43.70940" y2="107.63240" stroke="#228B22" stroke-width="0.04000"/>
      <line x1="43.70940" y1="107.63240" x2="44.06080" y2="107.84410" stroke="#228B22" stroke-width="0.04000"/>
      <line x1="44.06080" y1="107.84410" x2="44.52020" y2="108.23430" stroke="#228B22" stroke-width="0.04000"/>
      <line x1="44.52020" y1="108.23430" x2="45.28860" y2="108.63040" stroke="#228B22" stroke-width="0.04000"/>
      <line x1="45.28860" y1="108.63040" x2="45.28860" y2="108.63050" stroke="#228B22" stroke-width="0.04000"/>
      <line x1="45.28860" y1="108.63050" x2="45.44250" y2="108.71790" stroke="#228B22" stroke-width="0.04000"/>
      <line x1="45.44250" y1="108.71790" x2="45.59510" y2="108.81720" stroke="#228B22" stroke-width="0.04000"/>
      <line x1="45.59510" y1="108.81720" x2="46.40570" y2="109.18500" stroke="#228B22" stroke-width="0.04000"/>
      <line x1="46.40570" y1="109.18500" x2="46.40570" y2="109.18490" stroke="#228B22" stroke-width="0.04000"/>
      <line x1="46.40570" y1="109.18490" x2="46.59870" y2="109.27890" stroke="#228B22" stroke-width="0.04000"/>
      <line x1="46.59870" y1="109.27890" x2="47.46870" y2="109.61740" stroke="#228B22" stroke-width="0.04000"/>
      <line x1="47.46870" y1="109.61740" x2="47.58940" y2="109.67700" stroke="#228B22" stroke-width="0.04000"/>
      <line x1="47.58940" y1="109.67700" x2="48.56250" y2="110.02310" stroke="#228B22" stroke-width="0.04000"/>
      <line x1="48.56250" y1="110.02310" x2="48.75370" y2="110.10290" stroke="#228B22" stroke-width="0.04000"/>
      <line x1="48.75370" y1="110.10290" x2="49.84920" y2="110.50400" stroke="#228B22" stroke-width="0.04000"/>
      <line x1="49.84920" y1="110.50400" x2="49.87510" y2="110.51330" stroke="#228B22" stroke-width="0.04000"/>
      <line x1="49.87510" y1="110.51330" x2="50.86240" y2="110.94960" stroke="#228B22" stroke-width="0.04000"/>
      <line x1="50.86240" y1="110.94960" x2="51.25430" y2="111.15330" stroke="#228B22" stroke-width="0.04000"/>
      <line x1="51.25430" y1="111.15330" x2="51.40960" y2="111.53100" stroke="#228B22" stroke-width="0.04000"/>
      <line x1="51.40960" y1="111.53100" x2="51.64190" y2="112.02780" stroke="#228B22" stroke-width="0.04000"/>
      <line x1="51.64190" y1="112.02780" x2="51.81770" y2="112.51080" stroke="#228B22" stroke-width="0.04000"/>
      <line x1="51.81770" y1="112.51080" x2="51.84700" y2="112.54980" stroke="#228B22" stroke-width="0.04000"/>
      <line x1="51.84700" y1="112.54980" x2="51.34230" y2="112.85920" stroke="#228B22" stroke-width="0.04000"/>
      <line x1="51.34230" y1="112.85920" x2="50.67570" y2="112.71230" stroke="#228B22" stroke-width="0.04000"/>
      <line x1="50.67570" y1="112.71230" x2="50.30210" y2="112.69350" stroke="#228B22" stroke-width="0.04000"/>
      <line x1="50.30210" y1="112.69350" x2="49.82820" y2="112.60790" stroke="#228B22" stroke-width="0.04000"/>
      <line x1="49.82820" y1="112.60790" x2="49.41650" y2="112.54680" stroke="#228B22" stroke-width="0.04000"/>
      <line x1="49.41650" y1="112.54680" x2="48.74010" y2="112.50030" stroke="#228B22" stroke-width="0.04000"/>
      <line x1="48.74010" y1="112.50030" x2="48.74000" y2="112.50030" stroke="#228B22" stroke-width="0.04000"/>
      <line x1="48.74000" y1="112.50030" x2="48.16920" y2="112.44890" stroke="#228B22" stroke-width="0.04000"/>
      <line x1="48.16920" y1="112.44890" x2="47.84760" y2="112.43760" stroke="#228B22" stroke-width="0.04000"/>
      <line x1="47.84760" y1="112.43760" x2="47.15780" y2="112.36560" stroke="#228B22" stroke-width="0.04000"/>
      <line x1="47.15780" y1="112.36560" x2="46.77680" y2="112.33640" stroke="#228B22" stroke-width="0.04000"/>
      <line x1="46.77680" y1="112.33640" x2="46.16260" y2="112.23120" stroke="#228B22" stroke-width="0.04000"/>
      <line x1="46.16260" y1="112.23120" x2="45.54870" y2="112.13060" stroke="#228B22" stroke-width="0.04000"/>
      <line x1="45.54870" y1="112.13060" x2="45.26290" y2="112.06340" stroke="#228B22" stroke-width="0.04000"/>
      <line x1="45.26290" y1="112.06340" x2="44.94840" y2="111.95970" stroke="#228B22" stroke-width="0.04000"/>
      <line x1="44.94840" y1="111.95970" x2="44.42680" y2="111.79120" stroke="#228B22" stroke-width="0.04000"/>
      <line x1="44.42680" y1="111.79120" x2="43.96410" y2="111.58170" stroke="#228B22" stroke-width="0.04000"/>
      <line x1="43.96410" y1="111.58170" x2="43.67980" y2="111.39420" stroke="#228B22" stroke-width="0.04000"/>
      <line x1="43.67980" y1="111.39420" x2="43.35690" y2="111.18600" stroke="#228B22" stroke-width="0.04000"/>
      <line x1="43.35690" y1="111.18600" x2="42.82860" y2="110.85270" stroke="#228B22" stroke-width="0.04000"/>
      <line x1="42.82860" y1="110.85270" x2="42.32940" y2="110.54350" stroke="#228B22" stroke-width="0.04000"/>
      <line x1="42.32940" y1="110.54350" x2="42.02260" y2="110.32210" stroke="#228B22" stroke-width="0.04000"/>
      <line x1="42.02260" y1="110.32210" x2="41.80720" y2="110.15110" stroke="#228B22" stroke-width="0.04000"/>
      <line x1="41.80720" y1="110.15110" x2="41.21200" y2="109.70570" stroke="#228B22" stroke-width="0.04000"/>
      <line x1="41.21200" y1="109.70570" x2="41.00370" y2="109.47720" stroke="#228B22" stroke-width="0.04000"/>
      <line x1="41.00370" y1="109.47720" x2="40.47180" y2="108.98570" stroke="#228B22" stroke-width="0.04000"/>
      <line x1="40.47180" y1="108.98570" x2="40.40890" y2="108.90110" stroke="#228B22" stroke-width="0.04000"/>
      <line x1="40.40890" y1="108.90110" x2="39.99070" y2="108.39840" stroke="#228B22" stroke-width="0.04000"/>
      <line x1="39.99070" y1="108.39840" x2="39.84300" y2="108.04090" stroke="#228B22" stroke-width="0.04000"/>
      <line x1="39.84300" y1="108.04090" x2="39.60850" y2="107.64010" stroke="#228B22" stroke-width="0.04000"/>
      <line x1="39.60850" y1="107.64010" x2="39.51130" y2="107.15070" stroke="#228B22" stroke-width="0.04000"/>
      <line x1="39.51130" y1="107.15070" x2="39.52260" y2="107.06900" stroke="#228B22" stroke-width="0.04000"/>
      <line x1="39.52260" y1="107.06900" x2="39.71430" y2="106.50230" stroke="#228B22" stroke-width="0.04000"/>
      <line x1="39.71430" y1="106.50230" x2="40.21870" y2="106.09170" stroke="#228B22" stroke-width="0.04000"/>
      <line x1="40.21870" y1="106.09170" x2="40.98410" y2="105.92750" stroke="#228B22" stroke-width="0.04000"/>
      <line x1="40.98410" y1="105.92750" x2="40.99950" y2="105.93110" stroke="#228B22" stroke-width="0.04000"/>
    </g>
    <g class="thermal-hatch" data-segment="7" data-name="CoreOverhangHatch">
      <line x1="51.88520" y1="112.60080" x2="51.61950" y2="112.77370" stroke="#FF8C00" stroke-width="0.04000"/>
      <line x1="51.61950" y1="112.77370" x2="51.44350" y2="112.88160" stroke="#FF8C00" stroke-width="0.04000"/>
      <line x1="51.44350" y1="112.88160" x2="51.34230" y2="112.85920" stroke="#FF8C00" stroke-width="0.04000"/>
      <line x1="51.34230" y1="112.85920" x2="51.84700" y2="112.54980" stroke="#FF8C00" stroke-width="0.04000"/>
      <line x1="51.84700" y1="112.54980" x2="51.88520" y2="112.60080" stroke="#FF8C00" stroke-width="0.04000"/>
    </g>
    <g class="thermal-contour" data-segment="1" data-name="CoreContour_Volume">
    <path d="M 33.0184 112.341 L 33.64 112.539 L 33.9628 112.993 L 34.3811 113.578 L 34.4641 113.776 L 34.5743 114.029 L 34.8009 114.608 L 34.8009 114.608 L 35.0082 115.138 L 35.1358 115.564 L 35.2572 116.019 L 35.2572 116.019 L 35.3895 116.524 L 35.5032 116.983 L 35.555 117.359 L 35.6848 118.191 L 35.6873 118.316 L 35.7827 119.178 L 35.7845 119.316 L 35.832 120.105 L 35.811 120.58 L 35.8232 121.049 L 35.778 121.619 L 35.7828 122.346 L 35.7662 122.674 L 35.7687 123.242 L 35.7623 123.623 L 35.7727 123.832 L 35.7511 124.562 L 35.7839 125.291 L 35.7524 125.626 L 35.6797 126.613 L 35.5972 126.727 L 34.9062 127.078 L 34.3516 126.554 L 34.1758 126.427 L 34.0258 126.045 L 33.8055 125.491 L 33.6944 125.188 L 33.4791 124.566 L 33.2792 124.041 L 33.1189 123.549 L 32.9153 123.018 L 32.7779 122.562 L 32.5471 121.85 L 32.4571 121.526 L 32.2044 120.619 L 32.2032 120.613 L 32.1966 120.592 L 31.8437 119.631 L 31.6747 119.371 L 31.333 118.766 L 30.9681 118.127 L 30.824 117.899 L 30.6702 117.65 L 30.5957 116.914 L 30.5422 116.238 L 30.6358 115.917 L 30.7755 115.213 L 30.8539 114.838 L 30.8886 114.671 L 31.2589 113.851 L 31.375 113.467 L 31.7468 113.029 L 32.0252 112.67 L 32.6394 112.354 L 32.8002 112.278 L 33.0184 112.341" fill="none" stroke="#000000" stroke-width="0.05000" fill-rule="evenodd" fill-opacity="1.000"/>
    </g>
    <g class="thermal-contour" data-segment="1" data-name="CoreContour_Volume">
    <path d="M 41.0701 105.65 L 41.2458 105.7 L 42.062 105.897 L 42.6015 106.105 L 42.85 106.299 L 43.0379 106.483 L 43.5232 106.934 L 43.9037 107.411 L 44.2305 107.608 L 44.6826 107.992 L 45.4303 108.377 L 45.5908 108.468 L 45.7349 108.562 L 46.5218 108.919 L 46.7149 109.013 L 47.5851 109.352 L 47.7025 109.409 L 48.6695 109.753 L 48.8595 109.833 L 49.9482 110.231 L 49.9818 110.244 L 50.0129 110.257 L 50.0129 110.257 L 50.9871 110.688 L 51.4822 110.945 L 51.6752 111.414 L 51.9104 111.917 L 52.0755 112.371 L 52.3031 112.675 L 51.7729 113.02 L 51.4953 113.19 L 50.6369 113.001 L 50.2693 112.982 L 49.7812 112.894 L 49.3852 112.835 L 48.7203 112.79 L 48.1512 112.738 L 47.8247 112.727 L 47.1317 112.654 L 46.7401 112.625 L 46.1147 112.517 L 45.4938 112.416 L 45.1824 112.342 L 44.8585 112.236 L 44.3227 112.062 L 43.8241 111.837 L 43.5214 111.637 L 43.2009 111.43 L 42.6749 111.099 L 42.1681 110.785 L 41.8477 110.554 L 41.63 110.381 L 41.0165 109.922 L 40.7978 109.682 L 40.2557 109.181 L 40.1809 109.081 L 39.7397 108.55 L 39.5826 108.17 L 39.3336 107.744 L 39.2175 107.16 L 39.2396 107.002 L 39.4666 106.33 L 40.0877 105.825 L 40.0895 105.823 L 40.1065 105.819 L 40.9862 105.631 L 41.0701 105.65" fill="none" stroke="#000000" stroke-width="0.05000" fill-rule="evenodd" fill-opacity="1.000"/>
    </g>
    <g class="thermal-contour" data-segment="1" data-name="CoreContour_Volume">
    <path d="M 32.9602 112.532 L 33.5156 112.709 L 33.8 113.109 L 34.2049 113.675 L 34.2801 113.855 L 34.3909 114.109 L 34.6147 114.681 L 34.8186 115.203 L 34.9442 115.621 L 35.064 116.07 L 35.1941 116.568 L 35.3064 117.021 L 35.3572 117.388 L 35.485 118.208 L 35.4875 118.329 L 35.5827 119.19 L 35.5845 119.323 L 35.6316 120.106 L 35.6108 120.579 L 35.6228 121.044 L 35.578 121.612 L 35.5826 122.341 L 35.5662 122.669 L 35.5687 123.243 L 35.5623 123.627 L 35.5725 123.832 L 35.5509 124.564 L 35.5833 125.285 L 35.553 125.61 L 35.4843 126.542 L 35.4638 126.57 L 34.941 126.835 L 34.4794 126.4 L 34.3404 126.299 L 34.2118 125.971 L 33.9913 125.417 L 33.8822 125.119 L 33.6671 124.498 L 33.4675 123.973 L 33.3075 123.482 L 33.1039 122.951 L 32.9687 122.502 L 32.7392 121.794 L 32.6497 121.472 L 32.3989 120.572 L 32.3969 120.563 L 32.3862 120.528 L 32.0237 119.541 L 31.8454 119.267 L 31.507 118.667 L 31.1395 118.024 L 30.993 117.793 L 30.8644 117.584 L 30.7947 116.894 L 30.7444 116.259 L 30.8302 115.964 L 30.9713 115.254 L 31.0497 114.879 L 31.0798 114.734 L 31.4465 113.921 L 31.5543 113.565 L 31.9022 113.155 L 32.1559 112.827 L 32.7281 112.534 L 32.8176 112.491 L 32.9602 112.532" fill="none" stroke="#000000" stroke-width="0.05000" fill-rule="evenodd" fill-opacity="1.000"/>
    <path d="M 32.7674 112.615 L 32.2148 112.898 L 31.9721 113.212 L 31.6349 113.609 L 31.5309 113.953 L 31.1659 114.762 L 31.1378 114.897 L 31.0595 115.271 L 31.0596 115.271 L 30.9177 115.986 L 30.8354 116.268 L 30.8842 116.885 L 30.9518 117.554 L 31.069 117.744 L 31.0691 117.744 L 31.2166 117.978 L 31.5853 118.622 L 31.9219 119.219 L 32.1047 119.501 L 32.4715 120.499 L 32.4841 120.54 L 32.4863 120.55 L 32.7364 121.448 L 32.8252 121.768 L 33.0546 122.475 L 33.1893 122.923 L 33.3924 123.452 L 33.5527 123.944 L 33.7517 124.467 L 33.9666 125.088 L 33.9667 125.088 L 34.0756 125.386 L 34.2955 125.938 L 34.4145 126.241 L 34.537 126.33 L 34.9567 126.726 L 35.3968 126.503 L 35.4633 125.602 L 35.4931 125.283 L 35.4608 124.564 L 35.4824 123.832 L 35.4723 123.628 L 35.4787 123.243 L 35.4762 122.667 L 35.4925 122.339 L 35.488 121.609 L 35.5326 121.042 L 35.5207 120.578 L 35.5415 120.106 L 35.4945 119.326 L 35.4927 119.196 L 35.3976 118.335 L 35.3951 118.216 L 35.2682 117.401 L 35.2178 117.038 L 35.1067 116.59 L 35.1067 116.59 L 34.977 116.093 L 34.8572 115.644 L 34.7333 115.232 L 34.5309 114.714 L 34.3084 114.145 L 34.1973 113.89 L 34.1259 113.719 L 33.7267 113.161 L 33.4596 112.786 L 32.9356 112.618 L 32.8255 112.587 L 32.7674 112.615" fill="none" stroke="#000000" stroke-width="0.05000" fill-rule="evenodd" fill-opacity="1.000"/>
    <path d="M 41.0218 105.844 L 41.1948 105.894 L 42.0012 106.088 L 42.5021 106.281 L 42.718 106.449 L 42.8999 106.628 L 43.3754 107.07 L 43.7697 107.564 L 44.1135 107.771 L 44.5706 108.159 L 45.3331 108.552 L 45.4882 108.64 L 45.6385 108.738 L 46.4429 109.103 L 46.6348 109.196 L 47.5047 109.535 L 47.6245 109.594 L 48.5956 109.939 L 48.7865 110.019 L 49.8799 110.419 L 49.9088 110.43 L 49.9107 110.431 L 50.9021 110.869 L 51.325 111.089 L 51.492 111.495 L 51.7254 111.994 L 51.8977 112.467 L 51.924 112.503 L 51.847 112.55 L 51.8177 112.511 L 51.6419 112.028 L 51.4096 111.531 L 51.2543 111.153 L 50.8624 110.95 L 49.8751 110.513 L 49.8492 110.504 L 48.7537 110.103 L 48.5625 110.023 L 47.5894 109.677 L 47.4687 109.617 L 46.5987 109.279 L 46.4057 109.185 L 46.4057 109.185 L 45.5951 108.817 L 45.4425 108.718 L 45.2886 108.631 L 45.2886 108.63 L 44.5202 108.234 L 44.0608 107.844 L 43.7094 107.632 L 43.3095 107.131 L 42.8378 106.693 L 42.6585 106.517 L 42.4571 106.36 L 41.9748 106.174 L 41.1719 105.98 L 40.9995 105.931 L 40.9841 105.927 L 40.2187 106.092 L 39.7143 106.502 L 39.5226 107.069 L 39.5113 107.151 L 39.6085 107.64 L 39.843 108.041 L 39.9907 108.398 L 40.4089 108.901 L 40.4718 108.986 L 41.0037 109.477 L 41.212 109.706 L 41.8072 110.151 L 42.0226 110.322 L 42.3294 110.544 L 42.8286 110.853 L 43.3569 111.186 L 43.6798 111.394 L 43.9641 111.582 L 44.4268 111.791 L 44.9484 111.96 L 45.2629 112.063 L 45.5487 112.131 L 46.1626 112.231 L 46.7768 112.336 L 47.1578 112.366 L 47.8476 112.438 L 48.1692 112.449 L 48.74 112.5 L 48.7401 112.5 L 49.4165 112.547 L 49.8282 112.608 L 50.3021 112.693 L 50.6757 112.712 L 51.3423 112.859 L 51.2549 112.913 L 50.7481 112.801 L 50.2541 112.776 L 49.8136 112.697 L 49.4068 112.636 L 48.7339 112.59 L 48.1636 112.539 L 47.8409 112.527 L 47.1497 112.455 L 46.7655 112.426 L 46.1477 112.32 L 45.5312 112.219 L 45.238 112.15 L 44.9205 112.045 L 44.3941 111.875 L 43.9209 111.661 L 43.6306 111.47 L 43.3085 111.262 L 42.7809 110.929 L 42.2789 110.618 L 41.9683 110.394 L 41.7522 110.222 L 41.1515 109.773 L 40.9398 109.541 L 40.4047 109.046 L 40.3381 108.957 L 39.9127 108.445 L 39.7622 108.081 L 39.5232 107.673 L 39.4201 107.154 L 39.4348 107.048 L 39.6374 106.449 L 40.1787 106.008 L 40.9848 105.835 L 41.0218 105.844" fill="none" stroke="#000000" stroke-width="0.05000" fill-rule="evenodd" fill-opacity="1.000"/>
    </g>
    <g class="thermal-contour" data-segment="2" data-name="CoreContour_Overhang">
    <path d="M 52.0149 112.624 L 51.6683 112.849 L 51.4595 112.977 L 50.6637 112.802 L 50.2917 112.783 L 50.2541 112.776 L 50.7481 112.801 L 51.2549 112.913 L 51.3423 112.859 L 51.4435 112.882 L 51.6195 112.774 L 51.8852 112.601 L 51.847 112.55 L 51.924 112.503 L 52.0149 112.624" fill="none" stroke="#8B0000" stroke-width="0.05000" fill-rule="evenodd" fill-opacity="1.000"/>
    </g>
    <g class="thermal-contour" data-segment="3" data-name="HollowShell1Contour_Volume">
    <path d="M 32.2914 120.56 L 32.3 120.588 L 32.3015 120.595 L 32.5534 121.499 L 32.6435 121.823 L 32.8733 122.532 L 33.0097 122.985 L 33.2132 123.516 L 33.3733 124.007 L 33.5731 124.532 L 33.7883 125.154 L 33.8984 125.454 L 34.1188 126.008 L 34.2581 126.363 L 34.4155 126.477 L 34.9236 126.956 L 35.3965 126.716 L 35.3632 126.762 L 34.9032 126.996 L 34.534 126.647 L 34.1609 126.377 L 33.8461 125.575 L 33.8461 125.575 L 33.786 125.424 L 33.7575 125.346 L 33.4653 124.502 L 33.3526 124.206 L 33.0884 123.396 L 32.9754 123.101 L 32.7821 122.459 L 32.6294 121.988 L 32.4753 121.434 L 32.3002 120.805 L 32.2245 120.481 L 32.0439 119.886 L 32.2914 120.56" fill="none" stroke="#0000CC" stroke-width="0.05000" fill-rule="evenodd" fill-opacity="1.000"/>
    <path d="M 33.0184 112.34 L 33.64 112.539 L 33.9628 112.993 L 34.3811 113.578 L 34.4641 113.776 L 34.5743 114.029 L 34.8009 114.608 L 35.0082 115.138 L 35.1358 115.564 L 35.2572 116.019 L 35.3895 116.524 L 35.5032 116.983 L 35.555 117.359 L 35.6848 118.191 L 35.6873 118.316 L 35.7827 119.178 L 35.7845 119.316 L 35.832 120.105 L 35.811 120.58 L 35.8232 121.049 L 35.778 121.619 L 35.7781 121.642 L 35.7765 121.663 L 35.7792 122.071 L 35.7484 122.681 L 35.7523 123.594 L 35.7481 123.655 L 35.7478 123.756 L 35.7231 124.59 L 35.7428 125.026 L 35.681 125.684 L 35.6285 126.397 L 35.5915 126.448 L 35.6527 125.618 L 35.6836 125.288 L 35.651 124.563 L 35.6726 123.832 L 35.6623 123.625 L 35.6687 123.243 L 35.6662 122.672 L 35.6827 122.344 L 35.678 121.616 L 35.723 121.046 L 35.7109 120.58 L 35.7318 120.105 L 35.6845 119.319 L 35.6827 119.184 L 35.5874 118.322 L 35.5849 118.2 L 35.4561 117.374 L 35.4048 117.002 L 35.2924 116.549 L 35.2924 116.548 L 35.1606 116.044 L 35.04 115.592 L 34.9134 115.171 L 34.7078 114.644 L 34.4826 114.069 L 34.3721 113.816 L 34.293 113.627 L 33.8814 113.051 L 33.5778 112.624 L 32.9893 112.436 L 32.8089 112.385 L 32.6844 112.444 L 32.0905 112.748 L 31.8245 113.092 L 31.4646 113.516 L 31.3527 113.886 L 30.9842 114.703 L 30.9518 114.858 L 30.8734 115.233 L 30.733 115.94 L 30.6433 116.248 L 30.6952 116.904 L 30.7507 117.453 L 30.6304 117.257 L 30.5957 116.914 L 30.5422 116.238 L 30.6358 115.917 L 30.7755 115.213 L 30.8539 114.838 L 30.8886 114.672 L 31.2589 113.851 L 31.375 113.467 L 31.7468 113.029 L 32.0252 112.67 L 32.6394 112.354 L 32.8002 112.278 L 33.0184 112.34" fill="none" stroke="#0000CC" stroke-width="0.05000" fill-rule="evenodd" fill-opacity="1.000"/>
    <path d="M 41.0701 105.65 L 41.2458 105.7 L 42.062 105.897 L 42.5278 106.077 L 42.8159 106.301 L 43.2123 106.689 L 43.5206 106.976 L 43.7623 107.279 L 43.832 107.321 L 43.9037 107.411 L 44.2305 107.608 L 44.6826 107.992 L 45.4303 108.377 L 45.5908 108.468 L 45.7349 108.562 L 46.5218 108.919 L 46.7149 109.013 L 47.5851 109.352 L 47.7025 109.409 L 48.6695 109.754 L 48.8595 109.833 L 49.9482 110.231 L 49.9818 110.243 L 50.0129 110.257 L 50.9871 110.688 L 51.3571 110.88 L 51.5876 111.44 L 52.0112 112.346 L 52.0279 112.392 L 52.0509 112.423 L 52.0094 112.45 L 51.9866 112.419 L 51.8179 111.956 L 51.5836 111.455 L 51.4036 111.017 L 50.9446 110.778 L 49.9725 110.349 L 49.9725 110.349 L 49.9451 110.337 L 49.9141 110.325 L 48.823 109.926 L 48.6322 109.846 L 47.6635 109.502 L 47.5449 109.443 L 46.6749 109.105 L 46.4805 109.01 L 46.4805 109.01 L 45.6867 108.65 L 45.5391 108.554 L 45.3817 108.465 L 44.6266 108.075 L 44.1721 107.689 L 43.8367 107.487 L 43.4493 107.002 L 42.9689 106.555 L 42.784 106.374 L 42.5518 106.193 L 42.0316 105.992 L 41.2203 105.797 L 41.0462 105.747 L 40.9855 105.733 L 40.1343 105.916 L 39.552 106.39 L 39.3372 107.025 L 39.3188 107.157 L 39.4284 107.708 L 39.6724 108.126 L 39.8262 108.498 L 40.2595 109.019 L 40.3303 109.114 L 40.8688 109.611 L 41.084 109.847 L 41.6911 110.302 L 41.908 110.474 L 42.2235 110.701 L 42.7279 111.014 L 43.2547 111.346 L 43.576 111.553 L 43.8725 111.749 L 44.3584 111.969 L 44.8895 112.14 L 45.2102 112.246 L 45.5126 112.317 L 46.1312 112.419 L 46.7018 112.516 L 46.5579 112.506 L 46.1294 112.432 L 45.1985 112.28 L 45.1715 112.275 L 45.1519 112.271 L 44.3239 112.003 L 43.5351 111.646 L 43.5214 111.637 L 43.2009 111.43 L 42.6749 111.099 L 42.1681 110.785 L 41.8477 110.554 L 41.63 110.381 L 41.0165 109.922 L 40.7978 109.682 L 40.2557 109.181 L 40.1809 109.081 L 39.7397 108.55 L 39.5826 108.17 L 39.3336 107.744 L 39.2175 107.16 L 39.2396 107.002 L 39.4666 106.33 L 40.0877 105.825 L 40.0895 105.823 L 40.1065 105.819 L 40.9862 105.631 L 41.0701 105.65" fill="none" stroke="#0000CC" stroke-width="0.05000" fill-rule="evenodd" fill-opacity="1.000"/>
    </g>
    <g class="thermal-contour" data-segment="4" data-name="HollowShell1Contour_Overhang">
    <path d="M 30.7507 117.453 L 30.7673 117.617 L 30.9085 117.846 L 31.0538 118.076 L 31.42 118.716 L 31.7597 119.319 L 31.9337 119.586 L 32.0439 119.886 L 32.2245 120.481 L 32.3002 120.805 L 32.4753 121.434 L 32.6294 121.988 L 32.7821 122.459 L 32.9754 123.101 L 33.0884 123.396 L 33.3526 124.206 L 33.4653 124.502 L 33.7575 125.346 L 33.786 125.424 L 33.8461 125.575 L 33.8461 125.575 L 34.1609 126.377 L 34.534 126.647 L 34.9032 126.996 L 35.3632 126.762 L 35.3965 126.716 L 35.5305 126.648 L 35.582 126.577 L 35.5915 126.448 L 35.6285 126.397 L 35.681 125.684 L 35.7428 125.026 L 35.7231 124.59 L 35.7478 123.756 L 35.7481 123.655 L 35.7523 123.594 L 35.7484 122.681 L 35.7792 122.071 L 35.7765 121.663 L 35.7781 121.642 L 35.7793 121.823 L 35.7828 122.346 L 35.7662 122.674 L 35.7687 123.242 L 35.7623 123.623 L 35.7727 123.832 L 35.7511 124.562 L 35.7839 125.291 L 35.7524 125.626 L 35.6797 126.613 L 35.5972 126.727 L 34.9062 127.078 L 34.3516 126.554 L 34.1758 126.427 L 34.0258 126.045 L 33.8055 125.491 L 33.6944 125.188 L 33.4791 124.566 L 33.2792 124.041 L 33.1189 123.549 L 32.9153 123.018 L 32.7779 122.562 L 32.5471 121.85 L 32.4571 121.526 L 32.2044 120.619 L 32.2032 120.613 L 32.1966 120.592 L 31.8437 119.631 L 31.6747 119.371 L 31.333 118.766 L 30.9681 118.127 L 30.824 117.899 L 30.6702 117.65 L 30.6304 117.257 L 30.7507 117.453" fill="none" stroke="#000080" stroke-width="0.05000" fill-rule="evenodd" fill-opacity="1.000"/>
    <path d="M 51.4822 110.945 L 51.6752 111.414 L 51.9104 111.917 L 52.0755 112.371 L 52.3031 112.675 L 51.7729 113.02 L 51.4953 113.19 L 50.6369 113.001 L 50.2693 112.982 L 49.7812 112.894 L 49.3852 112.835 L 48.7203 112.79 L 48.1512 112.738 L 47.8247 112.727 L 47.1317 112.654 L 46.7401 112.625 L 46.1147 112.517 L 45.4938 112.416 L 45.1824 112.342 L 44.8585 112.235 L 44.3227 112.062 L 43.8241 111.837 L 43.6908 111.749 L 43.5351 111.646 L 44.3239 112.003 L 45.1519 112.271 L 45.1715 112.275 L 45.1985 112.28 L 46.1294 112.432 L 46.5579 112.506 L 46.7018 112.516 L 46.7528 112.525 L 47.1407 112.555 L 47.8328 112.627 L 48.1574 112.639 L 48.7271 112.69 L 49.396 112.736 L 49.7974 112.795 L 50.2805 112.883 L 50.6503 112.901 L 51.4774 113.084 L 51.7206 112.935 L 52.159 112.649 L 52.0094 112.45 L 52.0509 112.423 L 52.0279 112.392 L 52.0112 112.346 L 51.5876 111.44 L 51.3571 110.88 L 51.4822 110.945" fill="none" stroke="#000080" stroke-width="0.05000" fill-rule="evenodd" fill-opacity="1.000"/>
    <path d="M 42.6015 106.105 L 42.85 106.299 L 43.0379 106.483 L 43.5232 106.934 L 43.701 107.157 L 43.832 107.321 L 43.7623 107.279 L 43.5206 106.976 L 43.2123 106.689 L 42.8159 106.301 L 42.5278 106.077 L 42.6015 106.105" fill="none" stroke="#000080" stroke-width="0.05000" fill-rule="evenodd" fill-opacity="1.000"/>
    </g>
    <g class="thermal-contour" data-segment="5" data-name="HollowShell2Contour_Volume">
    <path d="M 32.9893 112.436 L 33.5778 112.624 L 33.8814 113.051 L 34.293 113.627 L 34.3721 113.816 L 34.4826 114.069 L 34.7078 114.644 L 34.9134 115.171 L 35.04 115.592 L 35.1606 116.044 L 35.2924 116.548 L 35.2924 116.549 L 35.4048 117.002 L 35.4561 117.374 L 35.5849 118.2 L 35.5874 118.322 L 35.6827 119.184 L 35.6845 119.319 L 35.7318 120.105 L 35.7109 120.58 L 35.723 121.046 L 35.678 121.616 L 35.6827 122.344 L 35.6662 122.672 L 35.6687 123.243 L 35.6623 123.625 L 35.6726 123.832 L 35.651 124.563 L 35.6836 125.288 L 35.6527 125.618 L 35.5915 126.448 L 35.3965 126.716 L 34.9236 126.956 L 34.4155 126.477 L 34.2581 126.363 L 34.1188 126.008 L 33.8984 125.454 L 33.7883 125.154 L 33.5731 124.532 L 33.3733 124.007 L 33.2132 123.516 L 33.0097 122.985 L 32.8733 122.532 L 32.6435 121.823 L 32.5534 121.499 L 32.3015 120.595 L 32.3 120.588 L 32.2914 120.56 L 32.0439 119.886 L 31.9446 119.559 L 31.9292 119.492 L 31.8438 119.299 L 31.4354 118.575 L 31.2532 118.256 L 30.9496 117.776 L 30.7507 117.453 L 30.6952 116.904 L 30.6433 116.248 L 30.733 115.94 L 30.8734 115.233 L 30.9518 114.858 L 30.9842 114.703 L 31.3527 113.886 L 31.4646 113.516 L 31.8245 113.092 L 32.0905 112.748 L 32.6844 112.444 L 32.8089 112.385 L 32.9893 112.436" fill="none" stroke="#B8860B" stroke-width="0.05000" fill-rule="evenodd" fill-opacity="1.000"/>
    <path d="M 32.7281 112.534 L 32.1559 112.827 L 31.9022 113.155 L 31.5543 113.565 L 31.4465 113.921 L 31.0798 114.734 L 31.0497 114.879 L 30.9713 115.254 L 30.8302 115.964 L 30.7444 116.259 L 30.7947 116.894 L 30.8644 117.584 L 30.993 117.793 L 31.1395 118.024 L 31.507 118.667 L 31.8454 119.267 L 32.0237 119.541 L 32.3862 120.528 L 32.3969 120.563 L 32.3989 120.572 L 32.6497 121.472 L 32.7392 121.794 L 32.9687 122.502 L 33.1039 122.951 L 33.3075 123.482 L 33.4675 123.973 L 33.6671 124.498 L 33.8822 125.119 L 33.9913 125.417 L 34.2118 125.971 L 34.3404 126.299 L 34.4794 126.4 L 34.941 126.835 L 35.4638 126.57 L 35.4843 126.542 L 35.553 125.61 L 35.5833 125.285 L 35.5509 124.564 L 35.5725 123.832 L 35.5623 123.627 L 35.5687 123.243 L 35.5662 122.669 L 35.5826 122.341 L 35.578 121.612 L 35.6228 121.044 L 35.6108 120.579 L 35.6316 120.106 L 35.5845 119.323 L 35.5827 119.19 L 35.4875 118.329 L 35.485 118.208 L 35.3572 117.388 L 35.3064 117.021 L 35.1941 116.568 L 35.064 116.07 L 34.9442 115.621 L 34.8186 115.203 L 34.6147 114.681 L 34.3909 114.109 L 34.2801 113.855 L 34.2049 113.675 L 33.8 113.109 L 33.5156 112.709 L 32.9602 112.532 L 32.8176 112.491 L 32.7281 112.534" fill="none" stroke="#B8860B" stroke-width="0.05000" fill-rule="evenodd" fill-opacity="1.000"/>
    <path d="M 41.0462 105.747 L 41.2203 105.797 L 42.0316 105.992 L 42.5518 106.193 L 42.784 106.374 L 42.9689 106.555 L 43.4493 107.002 L 43.8367 107.487 L 44.1721 107.689 L 44.6266 108.075 L 45.3817 108.465 L 45.5391 108.554 L 45.6867 108.65 L 46.4805 109.01 L 46.4805 109.01 L 46.6749 109.105 L 47.5449 109.443 L 47.6635 109.502 L 48.6322 109.846 L 48.823 109.926 L 49.9141 110.325 L 49.9451 110.337 L 49.9725 110.349 L 49.9725 110.349 L 50.9446 110.778 L 51.4036 111.017 L 51.5836 111.455 L 51.8179 111.956 L 51.9866 112.419 L 52.0094 112.45 L 51.9972 112.458 L 51.924 112.503 L 51.8977 112.467 L 51.7254 111.994 L 51.492 111.495 L 51.325 111.089 L 50.9021 110.869 L 49.9107 110.431 L 49.9088 110.43 L 49.8799 110.419 L 48.7865 110.019 L 48.5956 109.939 L 47.6245 109.594 L 47.5047 109.535 L 46.6348 109.196 L 46.4429 109.103 L 45.6385 108.738 L 45.4882 108.64 L 45.3331 108.552 L 44.5706 108.159 L 44.1135 107.771 L 43.7697 107.564 L 43.3754 107.07 L 42.8999 106.628 L 42.718 106.449 L 42.5021 106.281 L 42.0012 106.088 L 41.1948 105.894 L 41.0218 105.844 L 40.9848 105.835 L 40.1787 106.008 L 39.6374 106.449 L 39.4348 107.048 L 39.4201 107.154 L 39.5232 107.673 L 39.7622 108.081 L 39.9127 108.445 L 40.3381 108.957 L 40.4047 109.046 L 40.9398 109.541 L 41.1515 109.773 L 41.7522 110.222 L 41.9683 110.394 L 42.2789 110.618 L 42.7809 110.929 L 43.3085 111.262 L 43.6306 111.47 L 43.9209 111.661 L 44.3941 111.875 L 44.9205 112.045 L 45.238 112.15 L 45.5312 112.219 L 46.1477 112.32 L 46.7655 112.426 L 47.1497 112.455 L 47.8409 112.527 L 48.1636 112.539 L 48.7339 112.59 L 49.4068 112.636 L 49.8136 112.697 L 50.2541 112.776 L 49.9126 112.759 L 49.7741 112.734 L 49.6618 112.717 L 48.6727 112.65 L 48.4139 112.626 L 47.6339 112.599 L 47.2339 112.557 L 46.7018 112.516 L 46.1312 112.419 L 45.5126 112.317 L 45.2102 112.246 L 44.8895 112.14 L 44.3584 111.969 L 43.8725 111.749 L 43.576 111.553 L 43.2547 111.346 L 42.7279 111.014 L 42.2235 110.701 L 41.908 110.474 L 41.6911 110.302 L 41.084 109.847 L 40.8688 109.611 L 40.3303 109.114 L 40.2595 109.019 L 39.8262 108.498 L 39.6724 108.126 L 39.4284 107.708 L 39.3188 107.157 L 39.3372 107.025 L 39.552 106.39 L 40.1343 105.916 L 40.9855 105.733 L 41.0462 105.747" fill="none" stroke="#B8860B" stroke-width="0.05000" fill-rule="evenodd" fill-opacity="1.000"/>
    </g>
    <g class="thermal-contour" data-segment="6" data-name="HollowShell2Contour_Overhang">
    <path d="M 35.582 126.577 L 35.5305 126.648 L 35.3965 126.716 L 35.5915 126.448 L 35.582 126.577" fill="none" stroke="#006400" stroke-width="0.05000" fill-rule="evenodd" fill-opacity="1.000"/>
    <path d="M 30.9496 117.776 L 31.2532 118.256 L 31.4354 118.575 L 31.8438 119.299 L 31.9292 119.492 L 31.9446 119.559 L 32.0439 119.886 L 31.9337 119.586 L 31.7597 119.319 L 31.42 118.716 L 31.0538 118.076 L 30.9085 117.846 L 30.7673 117.617 L 30.7507 117.453 L 30.9496 117.776" fill="none" stroke="#006400" stroke-width="0.05000" fill-rule="evenodd" fill-opacity="1.000"/>
    <path d="M 52.159 112.649 L 51.7206 112.935 L 51.4774 113.084 L 50.6503 112.901 L 50.2805 112.883 L 49.7974 112.795 L 49.396 112.736 L 48.7271 112.69 L 48.1574 112.639 L 47.8328 112.627 L 47.1407 112.555 L 46.7528 112.525 L 46.7018 112.516 L 47.2339 112.557 L 47.6339 112.599 L 48.4139 112.626 L 48.6727 112.65 L 49.6618 112.717 L 49.7741 112.734 L 49.9126 112.759 L 50.2541 112.776 L 50.2917 112.783 L 50.6637 112.802 L 51.4595 112.977 L 51.6683 112.849 L 52.0149 112.624 L 51.924 112.503 L 51.9972 112.458 L 52.0094 112.45 L 52.159 112.649" fill="none" stroke="#006400" stroke-width="0.05000" fill-rule="evenodd" fill-opacity="1.000"/>
    </g>
    <g class="thermal-contour" data-segment="9" data-name="CoreContourHatch">
    <path d="M 32.9434 112.593 L 33.4764 112.763 L 33.7486 113.146 L 33.7487 113.146 L 34.1496 113.706 L 34.222 113.88 L 34.3334 114.135 L 34.556 114.704 L 34.7588 115.223 L 34.8832 115.637 L 35.0031 116.087 L 35.1337 116.586 L 35.1337 116.586 L 35.2443 117.033 L 35.2948 117.397 L 35.2949 117.397 L 35.4221 118.214 L 35.4245 118.333 L 35.5197 119.195 L 35.5215 119.325 L 35.5685 120.106 L 35.5477 120.579 L 35.5596 121.043 L 35.515 121.61 L 35.5195 122.339 L 35.5032 122.668 L 35.5057 123.244 L 35.4993 123.627 L 35.5094 123.831 L 35.4878 124.564 L 35.5202 125.284 L 35.4902 125.605 L 35.4226 126.52 L 34.952 126.759 L 34.52 126.351 L 34.3922 126.259 L 34.2704 125.948 L 34.0504 125.395 L 33.9478 125.115 L 33.9474 125.115 L 33.7265 124.477 L 33.5272 123.953 L 33.3667 123.461 L 33.3667 123.461 L 33.1637 122.931 L 33.0287 122.483 L 33.0287 122.483 L 32.7993 121.776 L 32.7104 121.455 L 32.4601 120.557 L 32.4579 120.547 L 32.4457 120.507 L 32.0804 119.513 L 31.8988 119.233 L 31.5618 118.636 L 31.5618 118.636 L 31.1938 117.992 L 31.0543 117.771 L 31.0539 117.771 L 30.9256 117.563 L 30.8573 116.887 L 30.8081 116.265 L 30.8913 115.979 L 31.0302 115.28 L 31.0301 115.28 L 31.1114 114.892 L 31.1401 114.753 L 31.5056 113.943 L 31.6107 113.595 L 31.9515 113.194 L 32.1971 112.877 L 32.7555 112.59 L 32.8231 112.558 L 32.9434 112.593" fill="none" stroke="#800080" stroke-width="0.05000" fill-rule="evenodd" fill-opacity="1.000"/>
    <path d="M 32.7674 112.615 L 32.2148 112.898 L 31.9721 113.212 L 31.6349 113.609 L 31.5309 113.953 L 31.1659 114.762 L 31.1378 114.897 L 31.0595 115.271 L 31.0596 115.271 L 30.9177 115.986 L 30.8354 116.268 L 30.8842 116.885 L 30.9518 117.554 L 31.069 117.744 L 31.0691 117.744 L 31.2166 117.978 L 31.5853 118.622 L 31.9219 119.219 L 32.1047 119.501 L 32.4715 120.499 L 32.4841 120.54 L 32.4863 120.55 L 32.7364 121.448 L 32.8252 121.768 L 33.0546 122.475 L 33.1893 122.923 L 33.3924 123.452 L 33.5527 123.944 L 33.7517 124.467 L 33.9666 125.088 L 33.9667 125.088 L 34.0756 125.386 L 34.2955 125.938 L 34.4145 126.241 L 34.537 126.33 L 34.9567 126.726 L 35.3968 126.503 L 35.4633 125.602 L 35.4931 125.283 L 35.4608 124.564 L 35.4824 123.832 L 35.4723 123.628 L 35.4787 123.243 L 35.4762 122.667 L 35.4925 122.339 L 35.488 121.609 L 35.5326 121.042 L 35.5207 120.578 L 35.5415 120.106 L 35.4945 119.326 L 35.4927 119.196 L 35.3976 118.335 L 35.3951 118.216 L 35.2682 117.401 L 35.2178 117.038 L 35.1067 116.59 L 35.1067 116.59 L 34.977 116.093 L 34.8572 115.644 L 34.7333 115.232 L 34.5309 114.714 L 34.3084 114.145 L 34.1973 113.89 L 34.1259 113.719 L 33.7267 113.161 L 33.4596 112.786 L 32.9356 112.618 L 32.8255 112.587 L 32.7674 112.615" fill="none" stroke="#800080" stroke-width="0.05000" fill-rule="evenodd" fill-opacity="1.000"/>
    <path d="M 41.0063 105.905 L 41.1793 105.954 L 41.1792 105.954 L 41.9829 106.148 L 42.4705 106.337 L 42.6763 106.497 L 42.8562 106.673 L 43.3294 107.113 L 43.7274 107.612 L 44.0766 107.822 L 44.5353 108.212 L 45.3156 108.614 L 45.3156 108.615 L 45.4565 108.695 L 45.6077 108.793 L 46.3787 109.143 L 46.3787 109.142 L 46.6092 109.254 L 47.4796 109.593 L 47.6004 109.652 L 48.5722 109.998 L 48.7629 110.077 L 48.763 110.077 L 49.8585 110.479 L 49.8584 110.479 L 49.8851 110.488 L 50.8741 110.925 L 51.2755 111.134 L 51.4341 111.52 L 51.6669 112.017 L 51.8417 112.498 L 51.8701 112.536 L 51.847 112.55 L 51.8177 112.511 L 51.6419 112.028 L 51.4096 111.531 L 51.2543 111.153 L 50.8624 110.95 L 49.8751 110.513 L 49.8492 110.504 L 48.7537 110.103 L 48.5625 110.023 L 47.5894 109.677 L 47.4687 109.617 L 46.5987 109.279 L 46.4057 109.185 L 46.4057 109.185 L 45.5951 108.817 L 45.4425 108.718 L 45.2886 108.631 L 45.2886 108.63 L 44.5202 108.234 L 44.0608 107.844 L 43.7094 107.632 L 43.3095 107.131 L 42.8378 106.693 L 42.6585 106.517 L 42.4571 106.36 L 41.9748 106.174 L 41.1719 105.98 L 40.9995 105.931 L 40.9841 105.927 L 40.2187 106.092 L 39.7143 106.502 L 39.5226 107.069 L 39.5113 107.151 L 39.6085 107.64 L 39.843 108.041 L 39.9907 108.398 L 40.4089 108.901 L 40.4718 108.986 L 41.0037 109.477 L 41.212 109.706 L 41.8072 110.151 L 42.0226 110.322 L 42.3294 110.544 L 42.8286 110.853 L 43.3569 111.186 L 43.6798 111.394 L 43.9641 111.582 L 44.4268 111.791 L 44.9484 111.96 L 45.2629 112.063 L 45.5487 112.131 L 46.1626 112.231 L 46.7768 112.336 L 47.1578 112.366 L 47.8476 112.438 L 48.1692 112.449 L 48.74 112.5 L 48.7401 112.5 L 49.4165 112.547 L 49.8282 112.608 L 50.3021 112.693 L 50.6757 112.712 L 51.3423 112.859 L 51.3091 112.88 L 50.6721 112.739 L 50.299 112.72 L 49.8234 112.634 L 49.8234 112.634 L 49.4131 112.574 L 48.7397 112.527 L 48.7388 112.527 L 48.1676 112.476 L 47.8457 112.465 L 47.155 112.393 L 47.155 112.392 L 46.7735 112.363 L 46.158 112.258 L 46.158 112.258 L 45.5434 112.157 L 45.2556 112.089 L 44.9401 111.985 L 44.9401 111.985 L 44.4171 111.816 L 43.951 111.605 L 43.6652 111.417 L 43.3423 111.209 L 43.3423 111.209 L 42.8144 110.876 L 42.8144 110.876 L 42.3144 110.566 L 42.0063 110.344 L 41.791 110.173 L 41.1938 109.726 L 40.9837 109.495 L 40.4516 109.004 L 40.3881 108.918 L 39.9673 108.412 L 39.8185 108.052 L 39.5829 107.65 L 39.4839 107.151 L 39.4962 107.063 L 39.6912 106.486 L 40.2067 106.067 L 40.9844 105.9 L 41.0063 105.905" fill="none" stroke="#800080" stroke-width="0.05000" fill-rule="evenodd" fill-opacity="1.000"/>
    </g>
    <g class="thermal-contour" data-segment="20" data-name="CoreContourHatchOverhang">
    <path d="M 51.9241 112.608 L 51.6339 112.797 L 51.4483 112.91 L 51.3091 112.88 L 51.3423 112.859 L 51.4435 112.882 L 51.6195 112.774 L 51.8852 112.601 L 51.847 112.55 L 51.8701 112.536 L 51.9241 112.608" fill="none" stroke="#E64A19" stroke-width="0.05000" fill-rule="evenodd" fill-opacity="1.000"/>
    </g>
    <!-- ===== Thermal Segment Colour Legend ===== -->
    <g id="thermal-legend">
    <rect x="161.0000" y="5.0000" width="40.0000" height="72.0000"
          rx="1" ry="1"
          fill="#fafafa" stroke="#cccccc" stroke-width="0.15"/>
    <text x="181.0000" y="7.6000" font-family="sans-serif" font-size="2.2000" font-weight="bold" fill="#222222" text-anchor="middle">Thermal Segments</text>
    <line x1="161.5000" y1="8.7000" x2="200.5000" y2="8.7000" stroke="#bbbbbb" stroke-width="0.1"/>
    <rect x="161.8000" y="9.0000" width="3.5000" height="2.0000" fill="#000000" stroke="#333333" stroke-width="0.08" rx="0.3" ry="0.3"/>
    <text x="168.6000" y="10.9000" font-family="monospace" font-size="1.6000" fill="#444444" text-anchor="end"> 1</text>
    <text x="169.6000" y="10.9000" font-family="sans-serif" font-size="1.6000" fill="#111111">CoreContour_Volume</text>
    <rect x="161.8000" y="12.0000" width="3.5000" height="2.0000" fill="#8B0000" stroke="#333333" stroke-width="0.08" rx="0.3" ry="0.3"/>
    <text x="168.6000" y="13.9000" font-family="monospace" font-size="1.6000" fill="#444444" text-anchor="end"> 2</text>
    <text x="169.6000" y="13.9000" font-family="sans-serif" font-size="1.6000" fill="#111111">CoreContour_Overhang</text>
    <rect x="161.8000" y="15.0000" width="3.5000" height="2.0000" fill="#0000CC" stroke="#333333" stroke-width="0.08" rx="0.3" ry="0.3"/>
    <text x="168.6000" y="16.9000" font-family="monospace" font-size="1.6000" fill="#444444" text-anchor="end"> 3</text>
    <text x="169.6000" y="16.9000" font-family="sans-serif" font-size="1.6000" fill="#111111">Shell1Contour_Volume</text>
    <rect x="161.8000" y="18.0000" width="3.5000" height="2.0000" fill="#000080" stroke="#333333" stroke-width="0.08" rx="0.3" ry="0.3"/>
    <text x="168.6000" y="19.9000" font-family="monospace" font-size="1.6000" fill="#444444" text-anchor="end"> 4</text>
    <text x="169.6000" y="19.9000" font-family="sans-serif" font-size="1.6000" fill="#111111">Shell1Contour_Overhang</text>
    <rect x="161.8000" y="21.0000" width="3.5000" height="2.0000" fill="#B8860B" stroke="#333333" stroke-width="0.08" rx="0.3" ry="0.3"/>
    <text x="168.6000" y="22.9000" font-family="monospace" font-size="1.6000" fill="#444444" text-anchor="end"> 5</text>
    <text x="169.6000" y="22.9000" font-family="sans-serif" font-size="1.6000" fill="#111111">Shell2Contour_Volume</text>
    <rect x="161.8000" y="24.0000" width="3.5000" height="2.0000" fill="#006400" stroke="#333333" stroke-width="0.08" rx="0.3" ry="0.3"/>
    <text x="168.6000" y="25.9000" font-family="monospace" font-size="1.6000" fill="#444444" text-anchor="end"> 6</text>
    <text x="169.6000" y="25.9000" font-family="sans-serif" font-size="1.6000" fill="#111111">Shell2Contour_Overhang</text>
    <rect x="161.8000" y="27.0000" width="3.5000" height="2.0000" fill="#FF8C00" stroke="#333333" stroke-width="0.08" rx="0.3" ry="0.3"/>
    <text x="168.6000" y="28.9000" font-family="monospace" font-size="1.6000" fill="#444444" text-anchor="end"> 7</text>
    <text x="169.6000" y="28.9000" font-family="sans-serif" font-size="1.6000" fill="#111111">CoreOverhangHatch</text>
    <rect x="161.8000" y="30.0000" width="3.5000" height="2.0000" fill="#228B22" stroke="#333333" stroke-width="0.08" rx="0.3" ry="0.3"/>
    <text x="168.6000" y="31.9000" font-family="monospace" font-size="1.6000" fill="#444444" text-anchor="end"> 8</text>
    <text x="169.6000" y="31.9000" font-family="sans-serif" font-size="1.6000" fill="#111111">CoreNormalHatch</text>
    <rect x="161.8000" y="33.0000" width="3.5000" height="2.0000" fill="#800080" stroke="#333333" stroke-width="0.08" rx="0.3" ry="0.3"/>
    <text x="168.6000" y="34.9000" font-family="monospace" font-size="1.6000" fill="#444444" text-anchor="end"> 9</text>
    <text x="169.6000" y="34.9000" font-family="sans-serif" font-size="1.6000" fill="#111111">CoreContourHatch</text>
    <rect x="161.8000" y="36.0000" width="3.5000" height="2.0000" fill="#FF69B4" stroke="#333333" stroke-width="0.08" rx="0.3" ry="0.3"/>
    <text x="168.6000" y="37.9000" font-family="monospace" font-size="1.6000" fill="#444444" text-anchor="end">10</text>
    <text x="169.6000" y="37.9000" font-family="sans-serif" font-size="1.6000" fill="#111111">Shell1OverhangHatch</text>
    <rect x="161.8000" y="39.0000" width="3.5000" height="2.0000" fill="#00CED1" stroke="#333333" stroke-width="0.08" rx="0.3" ry="0.3"/>
    <text x="168.6000" y="40.9000" font-family="monospace" font-size="1.6000" fill="#444444" text-anchor="end">11</text>
    <text x="169.6000" y="40.9000" font-family="sans-serif" font-size="1.6000" fill="#111111">Shell1NormalHatch</text>
    <rect x="161.8000" y="42.0000" width="3.5000" height="2.0000" fill="#FF00FF" stroke="#333333" stroke-width="0.08" rx="0.3" ry="0.3"/>
    <text x="168.6000" y="43.9000" font-family="monospace" font-size="1.6000" fill="#444444" text-anchor="end">12</text>
    <text x="169.6000" y="43.9000" font-family="sans-serif" font-size="1.6000" fill="#111111">Shell1ContourHatch</text>
    <rect x="161.8000" y="45.0000" width="3.5000" height="2.0000" fill="#A52A2A" stroke="#333333" stroke-width="0.08" rx="0.3" ry="0.3"/>
    <text x="168.6000" y="46.9000" font-family="monospace" font-size="1.6000" fill="#444444" text-anchor="end">13</text>
    <text x="169.6000" y="46.9000" font-family="sans-serif" font-size="1.6000" fill="#111111">Shell2OverhangHatch</text>
    <rect x="161.8000" y="48.0000" width="3.5000" height="2.0000" fill="#808080" stroke="#333333" stroke-width="0.08" rx="0.3" ry="0.3"/>
    <text x="168.6000" y="49.9000" font-family="monospace" font-size="1.6000" fill="#444444" text-anchor="end">14</text>
    <text x="169.6000" y="49.9000" font-family="sans-serif" font-size="1.6000" fill="#111111">Shell2NormalHatch</text>
    <rect x="161.8000" y="51.0000" width="3.5000" height="2.0000" fill="#32CD32" stroke="#333333" stroke-width="0.08" rx="0.3" ry="0.3"/>
    <text x="168.6000" y="52.9000" font-family="monospace" font-size="1.6000" fill="#444444" text-anchor="end">15</text>
    <text x="169.6000" y="52.9000" font-family="sans-serif" font-size="1.6000" fill="#111111">Shell2ContourHatch</text>
    <rect x="161.8000" y="54.0000" width="3.5000" height="2.0000" fill="#1A237E" stroke="#333333" stroke-width="0.08" rx="0.3" ry="0.3"/>
    <text x="168.6000" y="55.9000" font-family="monospace" font-size="1.6000" fill="#444444" text-anchor="end">16</text>
    <text x="169.6000" y="55.9000" font-family="sans-serif" font-size="1.6000" fill="#111111">SupportContourVolume</text>
    <rect x="161.8000" y="57.0000" width="3.5000" height="2.0000" fill="#827717" stroke="#333333" stroke-width="0.08" rx="0.3" ry="0.3"/>
    <text x="168.6000" y="58.9000" font-family="monospace" font-size="1.6000" fill="#444444" text-anchor="end">17</text>
    <text x="169.6000" y="58.9000" font-family="sans-serif" font-size="1.6000" fill="#111111">SupportHatch</text>
    <rect x="161.8000" y="60.0000" width="3.5000" height="2.0000" fill="#006064" stroke="#333333" stroke-width="0.08" rx="0.3" ry="0.3"/>
    <text x="168.6000" y="61.9000" font-family="monospace" font-size="1.6000" fill="#444444" text-anchor="end">18</text>
    <text x="169.6000" y="61.9000" font-family="sans-serif" font-size="1.6000" fill="#111111">PointSequence</text>
    <rect x="161.8000" y="63.0000" width="3.5000" height="2.0000" fill="#B71C1C" stroke="#333333" stroke-width="0.08" rx="0.3" ry="0.3"/>
    <text x="168.6000" y="64.9000" font-family="monospace" font-size="1.6000" fill="#444444" text-anchor="end">19</text>
    <text x="169.6000" y="64.9000" font-family="sans-serif" font-size="1.6000" fill="#111111">ExternalSupports</text>
    <rect x="161.8000" y="66.0000" width="3.5000" height="2.0000" fill="#E64A19" stroke="#333333" stroke-width="0.08" rx="0.3" ry="0.3"/>
    <text x="168.6000" y="67.9000" font-family="monospace" font-size="1.6000" fill="#444444" text-anchor="end">20</text>
    <text x="169.6000" y="67.9000" font-family="sans-serif" font-size="1.6000" fill="#111111">CoreContourHatchOverhang</text>
    <rect x="161.8000" y="69.0000" width="3.5000" height="2.0000" fill="#311B92" stroke="#333333" stroke-width="0.08" rx="0.3" ry="0.3"/>
    <text x="168.6000" y="70.9000" font-family="monospace" font-size="1.6000" fill="#444444" text-anchor="end">21</text>
    <text x="169.6000" y="70.9000" font-family="sans-serif" font-size="1.6000" fill="#111111">Shell1ContourHatchOverhang</text>
    <rect x="161.8000" y="72.0000" width="3.5000" height="2.0000" fill="#880E4F" stroke="#333333" stroke-width="0.08" rx="0.3" ry="0.3"/>
    <text x="168.6000" y="73.9000" font-family="monospace" font-size="1.6000" fill="#444444" text-anchor="end">22</text>
    <text x="169.6000" y="73.9000" font-family="sans-serif" font-size="1.6000" fill="#111111">Shell2ContourHatchOverhang</text>
    </g>
  </g>
</svg>
