<?xml version="1.0" encoding="UTF-8" standalone="yes"?>
<svg xmlns="http://www.w3.org/2000/svg"
     xmlns:xlink="http://www.w3.org/1999/xlink"
     width="2020.0000mm" height="1600.0000mm"
     viewBox="0 0 202.000000 160.000000">
  <!--
    Build plate : 150.00 x 150.00 mm
    Coordinate  : 1 SVG unit = 1 mm
    Display zoom: 10x  (width/height = viewBox x 10)
    Hatch stroke: 0.04 mm = ~28 mm on screen at this zoom
    Legend panel: right margin (42 mm wide)
  -->
  <defs>
    <marker id="endArrow" markerWidth="2" markerHeight="1.4"
            refX="0" refY="0.7" orient="auto"
            markerUnits="strokeWidth">
      <polyline fill="darkblue" points="0,0 2,0.7 0,1.4 0.2,0.7"/>
    </marker>
  </defs>
  <!-- Background -->
  <rect x="0" y="0" width="202.000000" height="160.000000" fill="#f0f0f0" stroke="none"/>
  <!-- Build plate boundary (150 x 150 mm) -->
  <rect x="5.000000" y="5.000000" width="150.000000" height="150.000000"
        fill="#ffffff" stroke="#aaaaaa" stroke-width="0.2" stroke-dasharray="1,0.5"/>
  <!-- Build plate centre circle (r = 75.00 mm) -->
  <circle cx="80.000000" cy="80.000000" r="75.000000"
          fill="none" stroke="#bbbbbb" stroke-width="0.15" stroke-dasharray="0.8,0.4"/>
  <!-- Centre cross-hair -->
  <line x1="5.000000" y1="80.000000" x2="155.000000" y2="80.000000" stroke="#cccccc" stroke-width="0.1"/>
  <line x1="80.000000" y1="5.000000" x2="80.000000" y2="155.000000" stroke="#cccccc" stroke-width="0.1"/>
  <circle cx="80.000000" cy="80.000000" r="0.3" fill="#cccccc" stroke="none"/>
  <!-- Corner labels -->
  <text x="5.400000" y="4.600000" font-family="sans-serif" font-size="2" fill="#888888">0,0</text>
  <text x="154.600006" y="4.600000" font-family="sans-serif" font-size="2" fill="#888888" text-anchor="end">150,0</text>
  <text x="5.400000" y="157.199997" font-family="sans-serif" font-size="2" fill="#888888">0,150</text>
  <!-- Layer geometry -->
  <g id="geometry">
    <g class="thermal-hatch" data-segment="8" data-name="CoreNormalHatch">
      <line x1="35.50006" y1="88.88418" x2="35.88205" y2="89.42970" stroke="#228B22" stroke-width="0.04000"/>
      <line x1="35.57187" y1="88.81238" x2="36.00143" y2="89.42585" stroke="#228B22" stroke-width="0.04000"/>
      <line x1="35.42826" y1="88.95598" x2="35.74901" y2="89.41405" stroke="#228B22" stroke-width="0.04000"/>
      <line x1="35.64367" y1="88.74058" x2="36.11149" y2="89.40870" stroke="#228B22" stroke-width="0.04000"/>
      <line x1="35.71547" y1="88.66878" x2="36.21462" y2="89.38163" stroke="#228B22" stroke-width="0.04000"/>
      <line x1="35.35646" y1="89.02778" x2="35.58398" y2="89.35271" stroke="#228B22" stroke-width="0.04000"/>
      <line x1="35.78727" y1="88.59698" x2="36.31211" y2="89.34652" stroke="#228B22" stroke-width="0.04000"/>
      <line x1="35.85908" y1="88.52518" x2="36.40473" y2="89.30444" stroke="#228B22" stroke-width="0.04000"/>
      <line x1="35.98589" y1="88.53194" x2="36.49269" y2="89.25573" stroke="#228B22" stroke-width="0.04000"/>
      <line x1="36.11781" y1="88.54601" x2="36.57616" y2="89.20059" stroke="#228B22" stroke-width="0.04000"/>
      <line x1="36.18962" y1="88.47421" x2="36.65548" y2="89.13953" stroke="#228B22" stroke-width="0.04000"/>
      <line x1="36.26142" y1="88.40240" x2="36.72964" y2="89.07109" stroke="#228B22" stroke-width="0.04000"/>
      <line x1="36.33322" y1="88.33060" x2="36.79793" y2="88.99428" stroke="#228B22" stroke-width="0.04000"/>
      <line x1="36.40502" y1="88.25880" x2="36.86316" y2="88.91309" stroke="#228B22" stroke-width="0.04000"/>
      <line x1="36.47683" y1="88.18700" x2="36.92702" y2="88.82996" stroke="#228B22" stroke-width="0.04000"/>
      <line x1="36.54863" y1="88.11520" x2="36.99089" y2="88.74681" stroke="#228B22" stroke-width="0.04000"/>
      <line x1="36.62043" y1="88.04340" x2="37.05475" y2="88.66367" stroke="#228B22" stroke-width="0.04000"/>
      <line x1="36.69223" y1="87.97160" x2="37.12011" y2="88.58267" stroke="#228B22" stroke-width="0.04000"/>
      <line x1="36.76403" y1="87.89980" x2="37.18615" y2="88.50264" stroke="#228B22" stroke-width="0.04000"/>
      <line x1="36.83583" y1="87.82799" x2="37.25051" y2="88.42020" stroke="#228B22" stroke-width="0.04000"/>
      <line x1="36.90763" y1="87.75619" x2="37.31466" y2="88.33748" stroke="#228B22" stroke-width="0.04000"/>
      <line x1="36.97943" y1="87.68439" x2="37.37960" y2="88.25589" stroke="#228B22" stroke-width="0.04000"/>
      <line x1="37.05124" y1="87.61259" x2="37.44663" y2="88.17727" stroke="#228B22" stroke-width="0.04000"/>
      <line x1="37.12304" y1="87.54079" x2="37.51402" y2="88.09916" stroke="#228B22" stroke-width="0.04000"/>
      <line x1="37.19484" y1="87.46899" x2="37.58116" y2="88.02070" stroke="#228B22" stroke-width="0.04000"/>
      <line x1="37.26664" y1="87.39719" x2="37.64807" y2="87.94192" stroke="#228B22" stroke-width="0.04000"/>
      <line x1="37.33845" y1="87.32539" x2="37.71498" y2="87.86313" stroke="#228B22" stroke-width="0.04000"/>
      <line x1="37.41025" y1="87.25359" x2="37.78445" y2="87.78799" stroke="#228B22" stroke-width="0.04000"/>
      <line x1="37.48205" y1="87.18178" x2="37.85418" y2="87.71325" stroke="#228B22" stroke-width="0.04000"/>
      <line x1="37.55385" y1="87.10998" x2="37.92393" y2="87.63850" stroke="#228B22" stroke-width="0.04000"/>
      <line x1="37.62565" y1="87.03817" x2="37.99367" y2="87.56376" stroke="#228B22" stroke-width="0.04000"/>
      <line x1="37.69745" y1="86.96637" x2="38.06301" y2="87.48845" stroke="#228B22" stroke-width="0.04000"/>
      <line x1="37.76925" y1="86.89457" x2="38.13146" y2="87.41186" stroke="#228B22" stroke-width="0.04000"/>
      <line x1="37.84106" y1="86.82277" x2="38.20006" y2="87.33548" stroke="#228B22" stroke-width="0.04000"/>
      <line x1="37.91286" y1="86.75097" x2="38.27070" y2="87.26203" stroke="#228B22" stroke-width="0.04000"/>
      <line x1="37.98466" y1="86.67917" x2="38.34135" y2="87.18858" stroke="#228B22" stroke-width="0.04000"/>
      <line x1="38.05646" y1="86.60737" x2="38.41199" y2="87.11512" stroke="#228B22" stroke-width="0.04000"/>
      <line x1="38.12826" y1="86.53557" x2="38.48264" y2="87.04166" stroke="#228B22" stroke-width="0.04000"/>
      <line x1="38.20006" y1="86.46376" x2="38.55328" y2="86.96821" stroke="#228B22" stroke-width="0.04000"/>
      <line x1="38.27187" y1="86.39196" x2="38.62582" y2="86.89746" stroke="#228B22" stroke-width="0.04000"/>
      <line x1="38.34367" y1="86.32016" x2="38.69855" y2="86.82700" stroke="#228B22" stroke-width="0.04000"/>
      <line x1="38.41547" y1="86.24836" x2="38.77129" y2="86.75652" stroke="#228B22" stroke-width="0.04000"/>
      <line x1="38.48727" y1="86.17656" x2="38.84402" y2="86.68605" stroke="#228B22" stroke-width="0.04000"/>
      <line x1="38.55907" y1="86.10475" x2="38.91676" y2="86.61558" stroke="#228B22" stroke-width="0.04000"/>
      <line x1="38.63087" y1="86.03295" x2="38.98949" y2="86.54511" stroke="#228B22" stroke-width="0.04000"/>
      <line x1="38.70267" y1="85.96115" x2="39.06222" y2="86.47464" stroke="#228B22" stroke-width="0.04000"/>
      <line x1="38.77448" y1="85.88935" x2="39.13496" y2="86.40417" stroke="#228B22" stroke-width="0.04000"/>
      <line x1="38.84628" y1="85.81755" x2="39.20762" y2="86.33360" stroke="#228B22" stroke-width="0.04000"/>
      <line x1="38.91808" y1="85.74575" x2="39.28091" y2="86.26393" stroke="#228B22" stroke-width="0.04000"/>
      <line x1="38.98988" y1="85.67395" x2="39.35506" y2="86.19548" stroke="#228B22" stroke-width="0.04000"/>
      <line x1="39.06168" y1="85.60214" x2="39.42921" y2="86.12702" stroke="#228B22" stroke-width="0.04000"/>
      <line x1="39.13348" y1="85.53035" x2="39.50335" y2="86.05857" stroke="#228B22" stroke-width="0.04000"/>
      <line x1="39.20528" y1="85.45854" x2="39.57714" y2="85.98961" stroke="#228B22" stroke-width="0.04000"/>
      <line x1="39.27708" y1="85.38674" x2="39.65188" y2="85.92200" stroke="#228B22" stroke-width="0.04000"/>
      <line x1="39.34888" y1="85.31494" x2="39.72738" y2="85.85548" stroke="#228B22" stroke-width="0.04000"/>
      <line x1="39.42068" y1="85.24314" x2="39.80287" y2="85.78896" stroke="#228B22" stroke-width="0.04000"/>
      <line x1="39.49249" y1="85.17134" x2="39.87837" y2="85.72243" stroke="#228B22" stroke-width="0.04000"/>
      <line x1="39.56429" y1="85.09953" x2="39.95185" y2="85.65303" stroke="#228B22" stroke-width="0.04000"/>
      <line x1="39.63609" y1="85.02773" x2="40.02728" y2="85.58640" stroke="#228B22" stroke-width="0.04000"/>
      <line x1="39.70789" y1="84.95593" x2="40.10437" y2="85.52216" stroke="#228B22" stroke-width="0.04000"/>
      <line x1="39.77969" y1="84.88413" x2="40.18147" y2="85.45792" stroke="#228B22" stroke-width="0.04000"/>
      <line x1="39.85150" y1="84.81233" x2="40.25856" y2="85.39368" stroke="#228B22" stroke-width="0.04000"/>
      <line x1="39.92330" y1="84.74052" x2="40.33389" y2="85.32691" stroke="#228B22" stroke-width="0.04000"/>
      <line x1="39.99510" y1="84.66872" x2="40.41315" y2="85.26576" stroke="#228B22" stroke-width="0.04000"/>
      <line x1="40.06691" y1="84.59693" x2="40.49241" y2="85.20462" stroke="#228B22" stroke-width="0.04000"/>
      <line x1="40.13870" y1="84.52512" x2="40.57167" y2="85.14347" stroke="#228B22" stroke-width="0.04000"/>
      <line x1="40.21050" y1="84.45332" x2="40.65049" y2="85.08168" stroke="#228B22" stroke-width="0.04000"/>
      <line x1="40.28230" y1="84.38152" x2="40.72411" y2="85.01248" stroke="#228B22" stroke-width="0.04000"/>
      <line x1="40.35411" y1="84.30972" x2="40.80342" y2="84.95142" stroke="#228B22" stroke-width="0.04000"/>
      <line x1="40.42591" y1="84.23792" x2="40.88507" y2="84.89367" stroke="#228B22" stroke-width="0.04000"/>
      <line x1="40.49771" y1="84.16611" x2="40.96631" y2="84.83535" stroke="#228B22" stroke-width="0.04000"/>
      <line x1="40.56951" y1="84.09431" x2="41.04756" y2="84.77703" stroke="#228B22" stroke-width="0.04000"/>
      <line x1="40.64131" y1="84.02251" x2="41.12917" y2="84.71924" stroke="#228B22" stroke-width="0.04000"/>
      <line x1="40.71312" y1="83.95071" x2="41.21111" y2="84.66192" stroke="#228B22" stroke-width="0.04000"/>
      <line x1="40.78492" y1="83.87891" x2="41.29305" y2="84.60460" stroke="#228B22" stroke-width="0.04000"/>
      <line x1="40.85672" y1="83.80711" x2="41.37499" y2="84.54728" stroke="#228B22" stroke-width="0.04000"/>
      <line x1="40.92852" y1="83.73531" x2="41.45758" y2="84.49088" stroke="#228B22" stroke-width="0.04000"/>
      <line x1="41.00032" y1="83.66351" x2="41.53840" y2="84.43197" stroke="#228B22" stroke-width="0.04000"/>
      <line x1="41.07212" y1="83.59171" x2="41.61894" y2="84.37263" stroke="#228B22" stroke-width="0.04000"/>
      <line x1="41.14392" y1="83.51991" x2="41.69888" y2="84.31246" stroke="#228B22" stroke-width="0.04000"/>
      <line x1="41.21572" y1="83.44810" x2="41.77620" y2="84.24854" stroke="#228B22" stroke-width="0.04000"/>
      <line x1="41.28753" y1="83.37630" x2="41.85367" y2="84.18483" stroke="#228B22" stroke-width="0.04000"/>
      <line x1="41.35933" y1="83.30450" x2="41.92943" y2="84.11869" stroke="#228B22" stroke-width="0.04000"/>
      <line x1="41.43113" y1="83.23270" x2="42.00364" y2="84.05032" stroke="#228B22" stroke-width="0.04000"/>
      <line x1="41.50293" y1="83.16089" x2="42.07796" y2="83.98212" stroke="#228B22" stroke-width="0.04000"/>
      <line x1="41.57473" y1="83.08910" x2="42.14534" y2="83.90400" stroke="#228B22" stroke-width="0.04000"/>
      <line x1="41.64654" y1="83.01729" x2="42.20523" y2="83.81519" stroke="#228B22" stroke-width="0.04000"/>
      <line x1="41.60319" y1="82.78104" x2="42.25675" y2="83.71442" stroke="#228B22" stroke-width="0.04000"/>
      <line x1="41.67500" y1="82.70924" x2="42.29734" y2="83.59804" stroke="#228B22" stroke-width="0.04000"/>
      <line x1="41.74680" y1="82.63744" x2="42.32420" y2="83.46207" stroke="#228B22" stroke-width="0.04000"/>
      <line x1="41.81860" y1="82.56564" x2="42.32808" y2="83.29326" stroke="#228B22" stroke-width="0.04000"/>
      <line x1="41.89040" y1="82.49384" x2="42.27135" y2="83.03789" stroke="#228B22" stroke-width="0.04000"/>
    </g>
    <g class="thermal-hatch" data-segment="8" data-name="CoreNormalHatch">
      <line x1="41.97840" y1="83.09650" x2="41.97440" y2="83.09930" stroke="#228B22" stroke-width="0.04000"/>
      <line x1="41.56660" y1="83.50710" x2="42.01750" y2="83.19130" stroke="#228B22" stroke-width="0.04000"/>
      <line x1="42.03780" y1="83.29910" x2="41.16040" y2="83.91350" stroke="#228B22" stroke-width="0.04000"/>
      <line x1="40.75290" y1="84.32090" x2="42.03660" y2="83.42200" stroke="#228B22" stroke-width="0.04000"/>
      <line x1="42.00250" y1="83.56800" x2="40.70590" y2="84.47590" stroke="#228B22" stroke-width="0.04000"/>
      <line x1="40.70590" y1="84.59800" x2="41.85580" y2="83.79280" stroke="#228B22" stroke-width="0.04000"/>
      <line x1="40.66850" y1="84.40540" x2="40.70590" y2="84.45870" stroke="#228B22" stroke-width="0.04000"/>
      <line x1="40.70590" y1="84.63300" x2="40.59670" y2="84.47720" stroke="#228B22" stroke-width="0.04000"/>
      <line x1="40.52490" y1="84.54900" x2="40.63930" y2="84.71230" stroke="#228B22" stroke-width="0.04000"/>
      <line x1="40.55910" y1="84.77220" x2="40.45310" y2="84.62080" stroke="#228B22" stroke-width="0.04000"/>
      <line x1="40.38130" y1="84.69260" x2="40.48230" y2="84.83680" stroke="#228B22" stroke-width="0.04000"/>
      <line x1="40.40540" y1="84.90140" x2="40.30950" y2="84.76440" stroke="#228B22" stroke-width="0.04000"/>
      <line x1="40.23770" y1="84.83610" x2="40.32780" y2="84.96490" stroke="#228B22" stroke-width="0.04000"/>
      <line x1="40.24860" y1="85.02610" x2="40.16580" y2="84.90790" stroke="#228B22" stroke-width="0.04000"/>
      <line x1="40.09410" y1="84.97970" x2="40.16940" y2="85.08740" stroke="#228B22" stroke-width="0.04000"/>
      <line x1="40.09360" y1="85.15340" x2="40.02230" y2="85.05170" stroke="#228B22" stroke-width="0.04000"/>
      <line x1="39.95050" y1="85.12350" x2="40.01650" y2="85.21770" stroke="#228B22" stroke-width="0.04000"/>
      <line x1="39.93950" y1="85.28200" x2="39.87870" y2="85.19520" stroke="#228B22" stroke-width="0.04000"/>
      <line x1="39.80680" y1="85.26680" x2="39.86240" y2="85.34630" stroke="#228B22" stroke-width="0.04000"/>
      <line x1="39.78540" y1="85.41050" x2="39.73500" y2="85.33860" stroke="#228B22" stroke-width="0.04000"/>
      <line x1="39.66320" y1="85.41040" x2="39.71270" y2="85.48110" stroke="#228B22" stroke-width="0.04000"/>
      <line x1="39.63740" y1="85.54810" x2="39.59140" y2="85.48240" stroke="#228B22" stroke-width="0.04000"/>
      <line x1="39.51960" y1="85.55420" x2="39.56200" y2="85.61460" stroke="#228B22" stroke-width="0.04000"/>
      <line x1="39.48650" y1="85.68110" x2="39.44780" y2="85.62600" stroke="#228B22" stroke-width="0.04000"/>
      <line x1="39.37610" y1="85.69780" x2="39.41100" y2="85.74770" stroke="#228B22" stroke-width="0.04000"/>
      <line x1="39.33740" y1="85.81690" x2="39.30430" y2="85.76960" stroke="#228B22" stroke-width="0.04000"/>
      <line x1="39.23250" y1="85.84140" x2="39.26330" y2="85.88540" stroke="#228B22" stroke-width="0.04000"/>
      <line x1="39.18910" y1="85.95380" x2="39.16070" y2="85.91320" stroke="#228B22" stroke-width="0.04000"/>
      <line x1="39.08880" y1="85.98500" x2="39.11490" y2="86.02230" stroke="#228B22" stroke-width="0.04000"/>
      <line x1="39.04080" y1="86.09070" x2="39.01710" y2="86.05680" stroke="#228B22" stroke-width="0.04000"/>
      <line x1="38.94520" y1="86.12860" x2="38.96840" y2="86.16160" stroke="#228B22" stroke-width="0.04000"/>
      <line x1="38.89570" y1="86.23210" x2="38.87350" y2="86.20030" stroke="#228B22" stroke-width="0.04000"/>
      <line x1="38.80160" y1="86.27220" x2="38.82290" y2="86.30260" stroke="#228B22" stroke-width="0.04000"/>
      <line x1="38.75020" y1="86.37310" x2="38.72980" y2="86.34400" stroke="#228B22" stroke-width="0.04000"/>
      <line x1="38.65800" y1="86.41580" x2="38.67740" y2="86.44350" stroke="#228B22" stroke-width="0.04000"/>
      <line x1="38.60470" y1="86.51400" x2="38.58610" y2="86.48750" stroke="#228B22" stroke-width="0.04000"/>
      <line x1="38.51430" y1="86.55930" x2="38.53200" y2="86.58450" stroke="#228B22" stroke-width="0.04000"/>
      <line x1="38.45930" y1="86.65500" x2="38.44250" y2="86.63110" stroke="#228B22" stroke-width="0.04000"/>
      <line x1="38.37070" y1="86.70290" x2="38.38650" y2="86.72540" stroke="#228B22" stroke-width="0.04000"/>
      <line x1="38.31500" y1="86.79760" x2="38.29890" y2="86.77470" stroke="#228B22" stroke-width="0.04000"/>
      <line x1="38.22710" y1="86.84650" x2="38.24440" y2="86.87100" stroke="#228B22" stroke-width="0.04000"/>
      <line x1="38.17370" y1="86.94450" x2="38.15530" y2="86.91830" stroke="#228B22" stroke-width="0.04000"/>
      <line x1="38.08350" y1="86.99010" x2="38.10310" y2="87.01800" stroke="#228B22" stroke-width="0.04000"/>
      <line x1="38.03250" y1="87.09140" x2="38.01170" y2="87.06190" stroke="#228B22" stroke-width="0.04000"/>
      <line x1="37.94000" y1="87.13380" x2="37.96250" y2="87.16580" stroke="#228B22" stroke-width="0.04000"/>
      <line x1="37.89400" y1="87.24230" x2="37.86820" y2="87.20560" stroke="#228B22" stroke-width="0.04000"/>
      <line x1="37.79640" y1="87.27740" x2="37.82550" y2="87.31890" stroke="#228B22" stroke-width="0.04000"/>
      <line x1="37.75570" y1="87.39360" x2="37.72460" y2="87.34920" stroke="#228B22" stroke-width="0.04000"/>
      <line x1="37.65280" y1="87.42100" x2="37.68600" y2="87.46840" stroke="#228B22" stroke-width="0.04000"/>
      <line x1="37.61620" y1="87.54310" x2="37.58100" y2="87.49280" stroke="#228B22" stroke-width="0.04000"/>
      <line x1="37.50920" y1="87.56460" x2="37.54650" y2="87.61780" stroke="#228B22" stroke-width="0.04000"/>
      <line x1="37.47790" y1="87.69420" x2="37.43740" y2="87.63640" stroke="#228B22" stroke-width="0.04000"/>
      <line x1="37.36560" y1="87.70820" x2="37.41100" y2="87.77300" stroke="#228B22" stroke-width="0.04000"/>
      <line x1="37.34410" y1="87.85180" x2="37.29380" y2="87.78000" stroke="#228B22" stroke-width="0.04000"/>
      <line x1="37.22190" y1="87.85170" x2="37.27680" y2="87.93010" stroke="#228B22" stroke-width="0.04000"/>
      <line x1="37.20940" y1="88.00820" x2="37.15010" y2="87.92350" stroke="#228B22" stroke-width="0.04000"/>
      <line x1="37.07830" y1="87.99530" x2="37.14270" y2="88.08730" stroke="#228B22" stroke-width="0.04000"/>
      <line x1="37.02660" y1="88.09570" x2="37.00660" y2="88.06710" stroke="#228B22" stroke-width="0.04000"/>
      <line x1="37.03450" y1="88.09570" x2="36.84640" y2="88.22730" stroke="#228B22" stroke-width="0.04000"/>
      <line x1="36.43940" y1="88.63440" x2="37.04760" y2="88.20850" stroke="#228B22" stroke-width="0.04000"/>
      <line x1="36.82530" y1="88.48620" x2="35.89200" y2="89.13970" stroke="#228B22" stroke-width="0.04000"/>
      <line x1="35.91370" y1="88.88040" x2="35.98300" y2="88.83190" stroke="#228B22" stroke-width="0.04000"/>
      <line x1="36.62180" y1="88.75090" x2="36.10970" y2="89.10950" stroke="#228B22" stroke-width="0.04000"/>
      <line x1="35.75470" y1="89.11380" x2="36.10800" y2="88.86640" stroke="#228B22" stroke-width="0.04000"/>
    </g>
    <g class="thermal-hatch" data-segment="9" data-name="CoreContourHatch">
      <line x1="41.93470" y1="83.10080" x2="41.95040" y2="83.12330" stroke="#800080" stroke-width="0.04000"/>
      <line x1="41.89290" y1="83.18080" x2="41.87720" y2="83.15830" stroke="#800080" stroke-width="0.04000"/>
      <line x1="41.81980" y1="83.21570" x2="41.83550" y2="83.23820" stroke="#800080" stroke-width="0.04000"/>
      <line x1="42.06340" y1="83.28470" x2="42.02790" y2="83.23400" stroke="#800080" stroke-width="0.04000"/>
      <line x1="41.76240" y1="83.27310" x2="41.77810" y2="83.29560" stroke="#800080" stroke-width="0.04000"/>
      <line x1="41.72060" y1="83.35310" x2="41.70490" y2="83.33060" stroke="#800080" stroke-width="0.04000"/>
      <line x1="41.64750" y1="83.38800" x2="41.66320" y2="83.41050" stroke="#800080" stroke-width="0.04000"/>
      <line x1="42.06360" y1="83.42440" x2="42.03950" y2="83.39000" stroke="#800080" stroke-width="0.04000"/>
      <line x1="41.59010" y1="83.44540" x2="41.60580" y2="83.46790" stroke="#800080" stroke-width="0.04000"/>
      <line x1="41.54830" y1="83.52530" x2="41.53260" y2="83.50290" stroke="#800080" stroke-width="0.04000"/>
      <line x1="42.02220" y1="83.50470" x2="42.04220" y2="83.53330" stroke="#800080" stroke-width="0.04000"/>
      <line x1="41.49080" y1="83.58280" x2="41.47510" y2="83.56030" stroke="#800080" stroke-width="0.04000"/>
      <line x1="41.99040" y1="83.59880" x2="42.00840" y2="83.62440" stroke="#800080" stroke-width="0.04000"/>
      <line x1="41.43340" y1="83.64020" x2="41.41770" y2="83.61770" stroke="#800080" stroke-width="0.04000"/>
      <line x1="41.36020" y1="83.67520" x2="41.37590" y2="83.69770" stroke="#800080" stroke-width="0.04000"/>
      <line x1="41.96540" y1="83.70260" x2="41.94880" y2="83.67900" stroke="#800080" stroke-width="0.04000"/>
      <line x1="41.30280" y1="83.73260" x2="41.31850" y2="83.75510" stroke="#800080" stroke-width="0.04000"/>
      <line x1="41.91500" y1="83.77000" x2="41.89890" y2="83.74710" stroke="#800080" stroke-width="0.04000"/>
      <line x1="41.24540" y1="83.79000" x2="41.26110" y2="83.81250" stroke="#800080" stroke-width="0.04000"/>
      <line x1="41.85760" y1="83.82750" x2="41.84200" y2="83.80520" stroke="#800080" stroke-width="0.04000"/>
      <line x1="41.18790" y1="83.84750" x2="41.20360" y2="83.87000" stroke="#800080" stroke-width="0.04000"/>
      <line x1="41.79810" y1="83.88210" x2="41.78240" y2="83.85970" stroke="#800080" stroke-width="0.04000"/>
      <line x1="41.13060" y1="83.90500" x2="41.14640" y2="83.92750" stroke="#800080" stroke-width="0.04000"/>
      <line x1="41.73860" y1="83.93660" x2="41.72300" y2="83.91430" stroke="#800080" stroke-width="0.04000"/>
      <line x1="41.07310" y1="83.96250" x2="41.08890" y2="83.98500" stroke="#800080" stroke-width="0.04000"/>
      <line x1="41.67750" y1="83.98880" x2="41.66200" y2="83.96660" stroke="#800080" stroke-width="0.04000"/>
      <line x1="41.60000" y1="84.01770" x2="41.61560" y2="84.03990" stroke="#800080" stroke-width="0.04000"/>
      <line x1="41.03140" y1="84.04240" x2="41.01570" y2="84.01990" stroke="#800080" stroke-width="0.04000"/>
      <line x1="41.53820" y1="84.06870" x2="41.55370" y2="84.09090" stroke="#800080" stroke-width="0.04000"/>
      <line x1="40.97390" y1="84.09990" x2="40.95820" y2="84.07740" stroke="#800080" stroke-width="0.04000"/>
      <line x1="41.47530" y1="84.11850" x2="41.49080" y2="84.14060" stroke="#800080" stroke-width="0.04000"/>
      <line x1="40.91650" y1="84.15730" x2="40.90070" y2="84.13470" stroke="#800080" stroke-width="0.04000"/>
      <line x1="41.41080" y1="84.16590" x2="41.42630" y2="84.18800" stroke="#800080" stroke-width="0.04000"/>
      <line x1="40.85910" y1="84.21480" x2="40.84340" y2="84.19230" stroke="#800080" stroke-width="0.04000"/>
      <line x1="41.34620" y1="84.21290" x2="41.36170" y2="84.23510" stroke="#800080" stroke-width="0.04000"/>
      <line x1="40.80160" y1="84.27220" x2="40.78590" y2="84.24970" stroke="#800080" stroke-width="0.04000"/>
      <line x1="41.28140" y1="84.26000" x2="41.29690" y2="84.28210" stroke="#800080" stroke-width="0.04000"/>
      <line x1="41.23070" y1="84.32700" x2="41.21520" y2="84.30490" stroke="#800080" stroke-width="0.04000"/>
      <line x1="40.72850" y1="84.30710" x2="40.74420" y2="84.32960" stroke="#800080" stroke-width="0.04000"/>
      <line x1="41.16520" y1="84.37290" x2="41.14970" y2="84.35080" stroke="#800080" stroke-width="0.04000"/>
      <line x1="40.67090" y1="84.36450" x2="40.68670" y2="84.38710" stroke="#800080" stroke-width="0.04000"/>
      <line x1="41.09970" y1="84.41880" x2="41.08420" y2="84.39670" stroke="#800080" stroke-width="0.04000"/>
      <line x1="40.61360" y1="84.42210" x2="40.62930" y2="84.44460" stroke="#800080" stroke-width="0.04000"/>
      <line x1="41.03410" y1="84.46470" x2="41.01860" y2="84.44260" stroke="#800080" stroke-width="0.04000"/>
      <line x1="40.55620" y1="84.47950" x2="40.57190" y2="84.50200" stroke="#800080" stroke-width="0.04000"/>
      <line x1="40.96860" y1="84.51060" x2="40.95310" y2="84.48850" stroke="#800080" stroke-width="0.04000"/>
      <line x1="40.88780" y1="84.53470" x2="40.90320" y2="84.55670" stroke="#800080" stroke-width="0.04000"/>
      <line x1="40.51440" y1="84.55940" x2="40.49870" y2="84.53690" stroke="#800080" stroke-width="0.04000"/>
      <line x1="40.82280" y1="84.58140" x2="40.83830" y2="84.60340" stroke="#800080" stroke-width="0.04000"/>
      <line x1="40.45700" y1="84.61690" x2="40.44110" y2="84.59410" stroke="#800080" stroke-width="0.04000"/>
      <line x1="40.75780" y1="84.62800" x2="40.77330" y2="84.65010" stroke="#800080" stroke-width="0.04000"/>
      <line x1="40.39960" y1="84.67430" x2="40.38390" y2="84.65180" stroke="#800080" stroke-width="0.04000"/>
      <line x1="40.69290" y1="84.67470" x2="40.70830" y2="84.69670" stroke="#800080" stroke-width="0.04000"/>
      <line x1="40.34220" y1="84.73180" x2="40.32650" y2="84.70930" stroke="#800080" stroke-width="0.04000"/>
      <line x1="40.62730" y1="84.72060" x2="40.64280" y2="84.74270" stroke="#800080" stroke-width="0.04000"/>
      <line x1="40.28470" y1="84.78930" x2="40.26900" y2="84.76680" stroke="#800080" stroke-width="0.04000"/>
      <line x1="40.56330" y1="84.76870" x2="40.57890" y2="84.79090" stroke="#800080" stroke-width="0.04000"/>
      <line x1="40.51740" y1="84.84250" x2="40.50190" y2="84.82040" stroke="#800080" stroke-width="0.04000"/>
      <line x1="40.21150" y1="84.82410" x2="40.22720" y2="84.84650" stroke="#800080" stroke-width="0.04000"/>
      <line x1="40.45600" y1="84.89420" x2="40.44040" y2="84.87200" stroke="#800080" stroke-width="0.04000"/>
      <line x1="40.15410" y1="84.88150" x2="40.16980" y2="84.90390" stroke="#800080" stroke-width="0.04000"/>
      <line x1="40.39440" y1="84.94590" x2="40.37890" y2="84.92370" stroke="#800080" stroke-width="0.04000"/>
      <line x1="40.09650" y1="84.93890" x2="40.11230" y2="84.96150" stroke="#800080" stroke-width="0.04000"/>
      <line x1="40.33180" y1="84.99590" x2="40.31630" y2="84.97380" stroke="#800080" stroke-width="0.04000"/>
      <line x1="40.03920" y1="84.99640" x2="40.05490" y2="85.01890" stroke="#800080" stroke-width="0.04000"/>
      <line x1="40.26850" y1="85.04490" x2="40.25300" y2="85.02280" stroke="#800080" stroke-width="0.04000"/>
      <line x1="39.98180" y1="85.05400" x2="39.99750" y2="85.07650" stroke="#800080" stroke-width="0.04000"/>
      <line x1="40.20500" y1="85.09390" x2="40.18950" y2="85.07180" stroke="#800080" stroke-width="0.04000"/>
      <line x1="39.92440" y1="85.11140" x2="39.94010" y2="85.13390" stroke="#800080" stroke-width="0.04000"/>
      <line x1="40.14310" y1="85.14480" x2="40.12740" y2="85.12250" stroke="#800080" stroke-width="0.04000"/>
      <line x1="39.86690" y1="85.16880" x2="39.88260" y2="85.19130" stroke="#800080" stroke-width="0.04000"/>
      <line x1="40.08250" y1="85.19780" x2="40.06700" y2="85.17560" stroke="#800080" stroke-width="0.04000"/>
      <line x1="39.80930" y1="85.22610" x2="39.82500" y2="85.24860" stroke="#800080" stroke-width="0.04000"/>
      <line x1="40.02080" y1="85.24920" x2="40.00530" y2="85.22710" stroke="#800080" stroke-width="0.04000"/>
      <line x1="39.94370" y1="85.27850" x2="39.95920" y2="85.30060" stroke="#800080" stroke-width="0.04000"/>
      <line x1="39.76760" y1="85.30600" x2="39.75190" y2="85.28350" stroke="#800080" stroke-width="0.04000"/>
      <line x1="39.88200" y1="85.32990" x2="39.89750" y2="85.35200" stroke="#800080" stroke-width="0.04000"/>
      <line x1="39.71010" y1="85.36350" x2="39.69440" y2="85.34100" stroke="#800080" stroke-width="0.04000"/>
      <line x1="39.82040" y1="85.38130" x2="39.83590" y2="85.40350" stroke="#800080" stroke-width="0.04000"/>
      <line x1="39.65270" y1="85.42090" x2="39.63700" y2="85.39840" stroke="#800080" stroke-width="0.04000"/>
      <line x1="39.76010" y1="85.43470" x2="39.77580" y2="85.45710" stroke="#800080" stroke-width="0.04000"/>
      <line x1="39.59520" y1="85.47840" x2="39.57950" y2="85.45590" stroke="#800080" stroke-width="0.04000"/>
      <line x1="39.70200" y1="85.49120" x2="39.71760" y2="85.51340" stroke="#800080" stroke-width="0.04000"/>
      <line x1="39.53790" y1="85.53590" x2="39.52220" y2="85.51340" stroke="#800080" stroke-width="0.04000"/>
      <line x1="39.64150" y1="85.54450" x2="39.65710" y2="85.56670" stroke="#800080" stroke-width="0.04000"/>
      <line x1="39.48050" y1="85.59330" x2="39.46480" y2="85.57080" stroke="#800080" stroke-width="0.04000"/>
      <line x1="39.58120" y1="85.59760" x2="39.59680" y2="85.61990" stroke="#800080" stroke-width="0.04000"/>
      <line x1="39.42300" y1="85.65080" x2="39.40730" y2="85.62830" stroke="#800080" stroke-width="0.04000"/>
      <line x1="39.52080" y1="85.65090" x2="39.53640" y2="85.67310" stroke="#800080" stroke-width="0.04000"/>
      <line x1="39.36560" y1="85.70830" x2="39.34990" y2="85.68580" stroke="#800080" stroke-width="0.04000"/>
      <line x1="39.46040" y1="85.70410" x2="39.47600" y2="85.72640" stroke="#800080" stroke-width="0.04000"/>
      <line x1="39.30820" y1="85.76570" x2="39.29250" y2="85.74320" stroke="#800080" stroke-width="0.04000"/>
      <line x1="39.40000" y1="85.75740" x2="39.41570" y2="85.77970" stroke="#800080" stroke-width="0.04000"/>
      <line x1="39.25070" y1="85.82320" x2="39.23500" y2="85.80070" stroke="#800080" stroke-width="0.04000"/>
      <line x1="39.34150" y1="85.81320" x2="39.35710" y2="85.83550" stroke="#800080" stroke-width="0.04000"/>
      <line x1="39.19330" y1="85.88060" x2="39.17760" y2="85.85810" stroke="#800080" stroke-width="0.04000"/>
      <line x1="39.28210" y1="85.86800" x2="39.29780" y2="85.89030" stroke="#800080" stroke-width="0.04000"/>
      <line x1="39.13590" y1="85.93800" x2="39.12020" y2="85.91550" stroke="#800080" stroke-width="0.04000"/>
      <line x1="39.22280" y1="85.92270" x2="39.23840" y2="85.94500" stroke="#800080" stroke-width="0.04000"/>
      <line x1="39.07840" y1="85.99540" x2="39.06270" y2="85.97300" stroke="#800080" stroke-width="0.04000"/>
      <line x1="39.16350" y1="85.97740" x2="39.17910" y2="85.99970" stroke="#800080" stroke-width="0.04000"/>
      <line x1="39.02090" y1="86.05290" x2="39.00520" y2="86.03040" stroke="#800080" stroke-width="0.04000"/>
      <line x1="39.10420" y1="86.03220" x2="39.11970" y2="86.05440" stroke="#800080" stroke-width="0.04000"/>
      <line x1="39.06050" y1="86.10930" x2="39.04480" y2="86.08700" stroke="#800080" stroke-width="0.04000"/>
      <line x1="38.94780" y1="86.08780" x2="38.96350" y2="86.11030" stroke="#800080" stroke-width="0.04000"/>
      <line x1="39.00260" y1="86.16610" x2="38.98690" y2="86.14370" stroke="#800080" stroke-width="0.04000"/>
      <line x1="38.89040" y1="86.14530" x2="38.90610" y2="86.16770" stroke="#800080" stroke-width="0.04000"/>
      <line x1="38.94440" y1="86.22250" x2="38.92870" y2="86.20010" stroke="#800080" stroke-width="0.04000"/>
      <line x1="38.83290" y1="86.20270" x2="38.84860" y2="86.22520" stroke="#800080" stroke-width="0.04000"/>
      <line x1="38.88620" y1="86.27890" x2="38.87050" y2="86.25650" stroke="#800080" stroke-width="0.04000"/>
      <line x1="38.77550" y1="86.26010" x2="38.79120" y2="86.28260" stroke="#800080" stroke-width="0.04000"/>
      <line x1="38.82810" y1="86.33520" x2="38.81240" y2="86.31280" stroke="#800080" stroke-width="0.04000"/>
      <line x1="38.71810" y1="86.31750" x2="38.73380" y2="86.34000" stroke="#800080" stroke-width="0.04000"/>
      <line x1="38.76990" y1="86.39160" x2="38.75420" y2="86.36920" stroke="#800080" stroke-width="0.04000"/>
      <line x1="38.66060" y1="86.37500" x2="38.67630" y2="86.39750" stroke="#800080" stroke-width="0.04000"/>
      <line x1="38.71170" y1="86.44800" x2="38.69600" y2="86.42560" stroke="#800080" stroke-width="0.04000"/>
      <line x1="38.60310" y1="86.43230" x2="38.61880" y2="86.45480" stroke="#800080" stroke-width="0.04000"/>
      <line x1="38.65350" y1="86.50440" x2="38.63780" y2="86.48200" stroke="#800080" stroke-width="0.04000"/>
      <line x1="38.54570" y1="86.48970" x2="38.56140" y2="86.51220" stroke="#800080" stroke-width="0.04000"/>
      <line x1="38.59530" y1="86.56070" x2="38.57960" y2="86.53830" stroke="#800080" stroke-width="0.04000"/>
      <line x1="38.48820" y1="86.54720" x2="38.50390" y2="86.56970" stroke="#800080" stroke-width="0.04000"/>
      <line x1="38.53710" y1="86.61710" x2="38.52140" y2="86.59470" stroke="#800080" stroke-width="0.04000"/>
      <line x1="38.43070" y1="86.60470" x2="38.44640" y2="86.62720" stroke="#800080" stroke-width="0.04000"/>
      <line x1="38.47890" y1="86.67350" x2="38.46320" y2="86.65110" stroke="#800080" stroke-width="0.04000"/>
      <line x1="38.37330" y1="86.66210" x2="38.38900" y2="86.68460" stroke="#800080" stroke-width="0.04000"/>
      <line x1="38.42080" y1="86.72990" x2="38.40510" y2="86.70750" stroke="#800080" stroke-width="0.04000"/>
      <line x1="38.31580" y1="86.71960" x2="38.33150" y2="86.74210" stroke="#800080" stroke-width="0.04000"/>
      <line x1="38.36290" y1="86.78670" x2="38.34710" y2="86.76420" stroke="#800080" stroke-width="0.04000"/>
      <line x1="38.25840" y1="86.77700" x2="38.27410" y2="86.79950" stroke="#800080" stroke-width="0.04000"/>
      <line x1="38.30640" y1="86.84550" x2="38.29060" y2="86.82300" stroke="#800080" stroke-width="0.04000"/>
      <line x1="38.20100" y1="86.83440" x2="38.21670" y2="86.85690" stroke="#800080" stroke-width="0.04000"/>
      <line x1="38.24990" y1="86.90430" x2="38.23410" y2="86.88170" stroke="#800080" stroke-width="0.04000"/>
      <line x1="38.14350" y1="86.89190" x2="38.15920" y2="86.91440" stroke="#800080" stroke-width="0.04000"/>
      <line x1="38.19330" y1="86.96310" x2="38.17750" y2="86.94060" stroke="#800080" stroke-width="0.04000"/>
      <line x1="38.08610" y1="86.94930" x2="38.10180" y2="86.97180" stroke="#800080" stroke-width="0.04000"/>
      <line x1="38.13690" y1="87.02180" x2="38.12110" y2="86.99930" stroke="#800080" stroke-width="0.04000"/>
      <line x1="38.02870" y1="87.00670" x2="38.04440" y2="87.02920" stroke="#800080" stroke-width="0.04000"/>
      <line x1="38.08040" y1="87.08060" x2="38.06460" y2="87.05800" stroke="#800080" stroke-width="0.04000"/>
      <line x1="37.97120" y1="87.06420" x2="37.98690" y2="87.08670" stroke="#800080" stroke-width="0.04000"/>
      <line x1="38.02380" y1="87.13940" x2="38.00800" y2="87.11690" stroke="#800080" stroke-width="0.04000"/>
      <line x1="37.91390" y1="87.12170" x2="37.92960" y2="87.14420" stroke="#800080" stroke-width="0.04000"/>
      <line x1="37.96840" y1="87.19970" x2="37.95250" y2="87.17700" stroke="#800080" stroke-width="0.04000"/>
      <line x1="37.85640" y1="87.17920" x2="37.87210" y2="87.20170" stroke="#800080" stroke-width="0.04000"/>
      <line x1="37.81460" y1="87.25920" x2="37.79890" y2="87.23670" stroke="#800080" stroke-width="0.04000"/>
      <line x1="37.89770" y1="87.23820" x2="37.91360" y2="87.26090" stroke="#800080" stroke-width="0.04000"/>
      <line x1="37.75720" y1="87.31660" x2="37.74150" y2="87.29410" stroke="#800080" stroke-width="0.04000"/>
      <line x1="37.84290" y1="87.29940" x2="37.85880" y2="87.32210" stroke="#800080" stroke-width="0.04000"/>
      <line x1="37.69980" y1="87.37400" x2="37.68410" y2="87.35150" stroke="#800080" stroke-width="0.04000"/>
      <line x1="37.78740" y1="87.35970" x2="37.80320" y2="87.38220" stroke="#800080" stroke-width="0.04000"/>
      <line x1="37.64230" y1="87.43150" x2="37.62660" y2="87.40900" stroke="#800080" stroke-width="0.04000"/>
      <line x1="37.73170" y1="87.41940" x2="37.74750" y2="87.44200" stroke="#800080" stroke-width="0.04000"/>
      <line x1="37.58490" y1="87.48890" x2="37.56920" y2="87.46640" stroke="#800080" stroke-width="0.04000"/>
      <line x1="37.67580" y1="87.47930" x2="37.69160" y2="87.50180" stroke="#800080" stroke-width="0.04000"/>
      <line x1="37.52750" y1="87.54630" x2="37.51180" y2="87.52380" stroke="#800080" stroke-width="0.04000"/>
      <line x1="37.62000" y1="87.53900" x2="37.63580" y2="87.56160" stroke="#800080" stroke-width="0.04000"/>
      <line x1="37.47000" y1="87.60380" x2="37.45430" y2="87.58130" stroke="#800080" stroke-width="0.04000"/>
      <line x1="37.56420" y1="87.59880" x2="37.58000" y2="87.62130" stroke="#800080" stroke-width="0.04000"/>
      <line x1="37.41260" y1="87.66120" x2="37.39690" y2="87.63870" stroke="#800080" stroke-width="0.04000"/>
      <line x1="37.50850" y1="87.65860" x2="37.52440" y2="87.68130" stroke="#800080" stroke-width="0.04000"/>
      <line x1="37.35510" y1="87.71870" x2="37.33940" y2="87.69620" stroke="#800080" stroke-width="0.04000"/>
      <line x1="37.45480" y1="87.72140" x2="37.47080" y2="87.74430" stroke="#800080" stroke-width="0.04000"/>
      <line x1="37.29770" y1="87.77610" x2="37.28200" y2="87.75360" stroke="#800080" stroke-width="0.04000"/>
      <line x1="37.40130" y1="87.78450" x2="37.41730" y2="87.80730" stroke="#800080" stroke-width="0.04000"/>
      <line x1="37.24020" y1="87.83340" x2="37.22450" y2="87.81090" stroke="#800080" stroke-width="0.04000"/>
      <line x1="37.34770" y1="87.84750" x2="37.36380" y2="87.87040" stroke="#800080" stroke-width="0.04000"/>
      <line x1="37.18280" y1="87.89080" x2="37.16710" y2="87.86840" stroke="#800080" stroke-width="0.04000"/>
      <line x1="37.29390" y1="87.91020" x2="37.30990" y2="87.93300" stroke="#800080" stroke-width="0.04000"/>
      <line x1="37.12530" y1="87.94830" x2="37.10960" y2="87.92580" stroke="#800080" stroke-width="0.04000"/>
      <line x1="37.24010" y1="87.97270" x2="37.25600" y2="87.99540" stroke="#800080" stroke-width="0.04000"/>
      <line x1="37.06790" y1="88.00570" x2="37.05220" y2="87.98330" stroke="#800080" stroke-width="0.04000"/>
      <line x1="37.18610" y1="88.03510" x2="37.20210" y2="88.05790" stroke="#800080" stroke-width="0.04000"/>
      <line x1="37.01040" y1="88.06320" x2="36.99470" y2="88.04070" stroke="#800080" stroke-width="0.04000"/>
      <line x1="36.93730" y1="88.09810" x2="36.95310" y2="88.12060" stroke="#800080" stroke-width="0.04000"/>
      <line x1="37.14930" y1="88.12200" x2="37.13320" y2="88.09910" stroke="#800080" stroke-width="0.04000"/>
      <line x1="36.87980" y1="88.15560" x2="36.89560" y2="88.17810" stroke="#800080" stroke-width="0.04000"/>
      <line x1="37.09780" y1="88.18790" x2="37.08160" y2="88.16470" stroke="#800080" stroke-width="0.04000"/>
      <line x1="36.82240" y1="88.21310" x2="36.83810" y2="88.23560" stroke="#800080" stroke-width="0.04000"/>
      <line x1="37.04650" y1="88.25400" x2="37.03030" y2="88.23090" stroke="#800080" stroke-width="0.04000"/>
      <line x1="36.76500" y1="88.27050" x2="36.78070" y2="88.29300" stroke="#800080" stroke-width="0.04000"/>
      <line x1="36.99510" y1="88.32030" x2="36.97890" y2="88.29710" stroke="#800080" stroke-width="0.04000"/>
      <line x1="36.70750" y1="88.32800" x2="36.72320" y2="88.35050" stroke="#800080" stroke-width="0.04000"/>
      <line x1="36.94250" y1="88.38450" x2="36.92640" y2="88.36160" stroke="#800080" stroke-width="0.04000"/>
      <line x1="36.65010" y1="88.38540" x2="36.66580" y2="88.40790" stroke="#800080" stroke-width="0.04000"/>
      <line x1="36.88970" y1="88.44850" x2="36.87370" y2="88.42560" stroke="#800080" stroke-width="0.04000"/>
      <line x1="36.59270" y1="88.44280" x2="36.60840" y2="88.46530" stroke="#800080" stroke-width="0.04000"/>
      <line x1="36.83790" y1="88.51420" x2="36.82170" y2="88.49100" stroke="#800080" stroke-width="0.04000"/>
      <line x1="36.53520" y1="88.50030" x2="36.55090" y2="88.52280" stroke="#800080" stroke-width="0.04000"/>
      <line x1="36.49350" y1="88.58030" x2="36.47780" y2="88.55780" stroke="#800080" stroke-width="0.04000"/>
      <line x1="36.77050" y1="88.55750" x2="36.78680" y2="88.58070" stroke="#800080" stroke-width="0.04000"/>
      <line x1="36.43610" y1="88.63770" x2="36.42040" y2="88.61520" stroke="#800080" stroke-width="0.04000"/>
      <line x1="36.71950" y1="88.62390" x2="36.73570" y2="88.64710" stroke="#800080" stroke-width="0.04000"/>
      <line x1="36.37860" y1="88.69520" x2="36.36290" y2="88.67270" stroke="#800080" stroke-width="0.04000"/>
      <line x1="36.66830" y1="88.69050" x2="36.68460" y2="88.71370" stroke="#800080" stroke-width="0.04000"/>
      <line x1="36.32120" y1="88.75250" x2="36.30550" y2="88.73000" stroke="#800080" stroke-width="0.04000"/>
      <line x1="36.61720" y1="88.75680" x2="36.63340" y2="88.77990" stroke="#800080" stroke-width="0.04000"/>
      <line x1="36.26380" y1="88.81000" x2="36.24800" y2="88.78740" stroke="#800080" stroke-width="0.04000"/>
      <line x1="35.96260" y1="88.79820" x2="35.98690" y2="88.83300" stroke="#800080" stroke-width="0.04000"/>
      <line x1="36.58090" y1="88.84440" x2="36.56470" y2="88.82130" stroke="#800080" stroke-width="0.04000"/>
      <line x1="36.08360" y1="88.83170" x2="36.10790" y2="88.86640" stroke="#800080" stroke-width="0.04000"/>
      <line x1="36.20630" y1="88.86740" x2="36.19050" y2="88.84490" stroke="#800080" stroke-width="0.04000"/>
      <line x1="35.90310" y1="88.85280" x2="35.91880" y2="88.87530" stroke="#800080" stroke-width="0.04000"/>
      <line x1="36.52410" y1="88.90280" x2="36.50850" y2="88.88050" stroke="#800080" stroke-width="0.04000"/>
      <line x1="35.84570" y1="88.91030" x2="35.86140" y2="88.93280" stroke="#800080" stroke-width="0.04000"/>
      <line x1="36.46350" y1="88.95570" x2="36.44800" y2="88.93350" stroke="#800080" stroke-width="0.04000"/>
      <line x1="35.78830" y1="88.96780" x2="35.80400" y2="88.99030" stroke="#800080" stroke-width="0.04000"/>
      <line x1="36.39910" y1="89.00320" x2="36.38360" y2="88.98110" stroke="#800080" stroke-width="0.04000"/>
      <line x1="36.31540" y1="89.02330" x2="36.33090" y2="89.04540" stroke="#800080" stroke-width="0.04000"/>
      <line x1="35.74660" y1="89.04770" x2="35.73090" y2="89.02520" stroke="#800080" stroke-width="0.04000"/>
      <line x1="36.24340" y1="89.05980" x2="36.25910" y2="89.08220" stroke="#800080" stroke-width="0.04000"/>
      <line x1="35.69470" y1="89.11310" x2="35.67340" y2="89.08260" stroke="#800080" stroke-width="0.04000"/>
      <line x1="36.16750" y1="89.09090" x2="36.18350" y2="89.11370" stroke="#800080" stroke-width="0.04000"/>
      <line x1="36.10360" y1="89.13920" x2="36.08720" y2="89.11580" stroke="#800080" stroke-width="0.04000"/>
      <line x1="35.80370" y1="89.12920" x2="35.82570" y2="89.16070" stroke="#800080" stroke-width="0.04000"/>
      <line x1="36.01900" y1="89.15780" x2="36.00190" y2="89.13340" stroke="#800080" stroke-width="0.04000"/>
      <line x1="35.90930" y1="89.14060" x2="35.92790" y2="89.16720" stroke="#800080" stroke-width="0.04000"/>
    </g>
    <g class="thermal-contour" data-segment="1" data-name="CoreContour_Volume">
    <path d="M 41.9629 82.4896 L 42.1764 82.8509 L 42.1994 82.8869 L 42.2171 82.9192 L 42.2518 82.9975 L 42.2753 83.046 L 42.2819 83.067 L 42.2984 83.1167 L 42.3033 83.1385 L 42.3155 83.1894 L 42.3187 83.2125 L 42.3264 83.2635 L 42.3277 83.2878 L 42.3311 83.3384 L 42.3303 83.3643 L 42.3294 83.4134 L 42.3263 83.441 L 42.3216 83.488 L 42.3158 83.5174 L 42.3076 83.5614 L 42.2988 83.5927 L 42.2878 83.6332 L 42.2754 83.6664 L 42.2622 83.7028 L 42.2459 83.7376 L 42.2313 83.7695 L 42.2105 83.8058 L 42.1953 83.833 L 42.1695 83.8704 L 42.1546 83.8926 L 42.1235 83.9307 L 42.1098 83.948 L 42.0882 83.9718 L 42.0658 83.9943 L 42.0216 84.0338 L 41.8812 84.1631 L 41.8449 84.1918 L 41.6665 84.3392 L 41.6355 84.3603 L 41.5771 84.4038 L 41.4415 84.5026 L 41.399 84.5305 L 41.0862 84.7493 L 40.846 84.9217 L 40.7636 84.9792 L 40.7137 85.0212 L 40.7145 85.022 L 40.7093 85.0268 L 40.702 85.0334 L 40.6954 85.0395 L 40.6865 85.0478 L 40.6764 85.0572 L 40.6625 85.0703 L 40.6447 85.0871 L 40.3311 85.3291 L 40.318 85.3418 L 40.3001 85.3591 L 39.9761 85.6291 L 39.9497 85.6551 L 39.9097 85.6942 L 39.9027 85.701 L 39.5932 85.9737 L 39.58 85.9868 L 39.5593 86.0069 L 39.242 86.2998 L 39.202 86.3391 L 39.202 86.3392 L 39.1829 86.3577 L 38.5773 86.9445 L 38.5552 86.9662 L 38.1953 87.3405 L 38.0421 87.5119 L 37.851 87.7166 L 37.7391 87.8366 L 37.7214 87.8556 L 37.547 88.061 L 37.4379 88.1873 L 37.4379 88.1873 L 37.3932 88.2392 L 37.3454 88.2979 L 37.1933 88.494 L 37.0744 88.6381 L 36.8815 88.8892 L 36.873 88.9005 L 36.8167 88.9728 L 36.8018 88.9894 L 36.7766 89.0213 L 36.7503 89.048 L 36.7236 89.0778 L 36.7001 89.0984 L 36.6624 89.1343 L 36.643 89.1488 L 36.5926 89.19 L 36.5788 89.1987 L 36.514 89.2437 L 36.5072 89.2473 L 36.4399 89.2864 L 36.4288 89.2928 L 36.427 89.2939 L 36.3477 89.3314 L 36.3337 89.3385 L 36.2613 89.3655 L 36.2345 89.3762 L 36.17 89.3938 L 36.131 89.4054 L 36.075 89.4149 L 36.025 89.4244 L 35.9776 89.4273 L 35.919 89.4318 L 35.8796 89.4296 L 35.8153 89.4266 L 35.7829 89.4204 L 35.7168 89.4081 L 35.6904 89.3987 L 35.6261 89.3761 L 35.6041 89.364 L 35.5457 89.3313 L 35.475 89.2819 L 35.4675 89.275 L 35.3518 89.1607 L 35.2951 89.1033 L 35.288 89.0963 L 35.5153 88.8689 L 35.582 88.8023 L 35.8813 88.5029 L 35.9083 88.5105 L 36.1003 88.5635 L 36.207 88.4569 L 36.207 88.4569 L 36.5308 88.133 L 36.7689 87.8949 L 37.0621 87.6017 L 37.3136 87.3503 L 37.3136 87.3503 L 37.5008 87.163 L 37.6536 87.0103 L 37.7803 86.8835 L 37.7803 86.8835 L 38.0275 86.6363 L 38.2081 86.4557 L 38.2081 86.4557 L 38.4364 86.2274 L 38.4364 86.2274 L 38.613 86.0509 L 38.9839 85.68 L 38.9839 85.68 L 39.1637 85.5002 L 39.1904 85.4734 L 39.1904 85.4734 L 39.2887 85.3752 L 39.3893 85.2745 L 39.413 85.2508 L 39.5353 85.1285 L 39.5914 85.0724 L 39.6532 85.0106 L 39.6934 84.9705 L 39.7717 84.8922 L 39.7717 84.8922 L 39.7957 84.8681 L 39.8092 84.8547 L 39.9095 84.7543 L 39.9265 84.7373 L 40.0253 84.6385 L 40.0581 84.6058 L 40.1345 84.5293 L 40.1457 84.5181 L 40.1457 84.5181 L 40.2728 84.391 L 40.2728 84.391 L 40.4368 84.2271 L 40.4899 84.1739 L 40.4975 84.1663 L 40.6766 83.9873 L 40.7188 83.945 L 40.7352 83.9286 L 40.962 83.7019 L 40.9685 83.6953 L 41.2523 83.4115 L 41.5646 83.0992 L 41.5646 83.0992 L 41.6949 82.9689 L 41.6553 82.902 L 41.5903 82.7939 L 41.7369 82.6474 L 41.9373 82.447 L 41.9629 82.4896" fill="none" stroke="#000000" stroke-width="0.05000" fill-rule="evenodd" fill-opacity="1.000"/>
    </g>
    <g class="thermal-contour" data-segment="1" data-name="CoreContour_Volume">
    <path d="M 42.006 82.9557 L 42.0272 82.9889 L 42.0376 83.008 L 42.0703 83.0816 L 42.0889 83.1203 L 42.0916 83.1286 L 42.1052 83.1698 L 42.1085 83.1839 L 42.1186 83.2262 L 42.1207 83.2412 L 42.1271 83.2841 L 42.1281 83.3 L 42.1307 83.3415 L 42.1303 83.3594 L 42.1294 83.4011 L 42.1274 83.42 L 42.1234 83.4587 L 42.1194 83.4799 L 42.1126 83.5158 L 42.106 83.5395 L 42.0969 83.5723 L 42.0877 83.5974 L 42.0772 83.6259 L 42.0644 83.6537 L 42.0539 83.6765 L 42.0365 83.7072 L 42.0254 83.7267 L 42.0041 83.7579 L 41.9938 83.773 L 41.9678 83.8052 L 41.9575 83.8179 L 41.9427 83.8342 L 41.9275 83.8495 L 41.8872 83.8857 L 41.7511 84.0109 L 41.7192 84.0362 L 41.5458 84.1793 L 41.5194 84.1974 L 41.4584 84.2428 L 41.328 84.3377 L 41.2867 84.3649 L 40.9706 84.5861 L 40.7316 84.7577 L 40.6418 84.8204 L 40.4181 85.0085 L 40.4184 85.0088 L 40.1999 85.1777 L 40.1794 85.1976 L 40.1658 85.2105 L 39.8417 85.4808 L 39.8099 85.5121 L 39.7706 85.5505 L 39.7661 85.5548 L 39.4566 85.8275 L 39.4405 85.8434 L 39.4217 85.8617 L 39.1041 86.1549 L 39.0565 86.2016 L 39.0437 86.2141 L 38.4377 86.8013 L 38.413 86.8256 L 38.0487 87.2045 L 37.893 87.3785 L 37.7048 87.5802 L 37.5927 87.7003 L 37.5719 87.7227 L 37.3956 87.9303 L 37.2865 88.0567 L 37.2398 88.1108 L 37.1888 88.1735 L 37.037 88.3691 L 36.918 88.5135 L 36.7222 88.7682 L 36.7152 88.7776 L 36.6629 88.8447 L 36.6489 88.8603 L 36.6261 88.8889 L 36.6044 88.9111 L 36.5821 88.9357 L 36.5652 88.9507 L 36.5326 88.9815 L 36.5197 88.9913 L 36.4757 89.0271 L 36.468 89.0322 L 36.4101 89.0724 L 36.4098 89.0726 L 36.3395 89.1134 L 36.334 89.1165 L 36.2601 89.1516 L 36.2532 89.1549 L 36.1893 89.1789 L 36.1708 89.1861 L 36.1153 89.2014 L 36.0858 89.21 L 36.0396 89.2181 L 36.0001 89.2254 L 35.9638 89.2277 L 35.9165 89.2313 L 35.8899 89.2298 L 35.8387 89.2274 L 35.82 89.2238 L 35.7692 89.2144 L 35.7572 89.2101 L 35.7079 89.1928 L 35.6515 89.1611 L 35.6014 89.1262 L 35.5709 89.096 L 35.5859 89.081 L 35.586 89.0811 L 35.7234 88.9437 L 35.9401 88.7267 L 36.1593 88.7873 L 36.3484 88.5983 L 36.6722 88.2744 L 37.2035 87.7431 L 37.455 87.4917 L 37.6422 87.3044 L 37.795 87.1517 L 37.9217 87.0249 L 38.5778 86.3688 L 38.7544 86.1923 L 39.3053 85.6414 L 39.3318 85.6148 L 39.4301 85.5166 L 39.5307 85.4159 L 39.7943 85.1523 L 39.8347 85.1121 L 39.9133 85.0335 L 39.9132 85.0334 L 39.9457 85.0009 L 39.9503 84.9965 L 40.0509 84.8957 L 40.1665 84.7801 L 40.1995 84.7473 L 40.3467 84.6 L 40.3466 84.5999 L 40.4142 84.5324 L 40.5782 84.3685 L 40.6313 84.3153 L 40.6389 84.3077 L 40.818 84.1287 L 40.8602 84.0864 L 40.8766 84.07 L 41.104 83.8427 L 41.1099 83.8367 L 41.9461 83.0005 L 41.8421 82.8248 L 41.8783 82.7888 L 41.8965 82.7705 L 42.006 82.9557" fill="none" stroke="#000000" stroke-width="0.05000" fill-rule="evenodd" fill-opacity="1.000"/>
    <path d="M 41.174 83.8997 L 41.1741 83.8998 L 41.1679 83.9061 L 40.9402 84.1337 L 40.9401 84.1336 L 40.9238 84.1499 L 40.9239 84.15 L 40.8817 84.1923 L 40.7025 84.3714 L 40.7024 84.3713 L 40.6949 84.3788 L 40.695 84.3789 L 40.6419 84.4321 L 40.4778 84.5961 L 40.4739 84.5999 L 40.474 84.6 L 40.2631 84.811 L 40.2299 84.8439 L 40.1145 84.9592 L 40.1146 84.9593 L 40.0405 85.0334 L 40.0406 85.0335 L 39.8983 85.1758 L 39.8578 85.2161 L 39.8577 85.216 L 39.5943 85.4794 L 39.5944 85.4795 L 39.3954 85.6785 L 39.369 85.705 L 38.818 86.2559 L 38.6414 86.4325 L 38.6413 86.4324 L 37.9853 87.0884 L 37.9854 87.0885 L 37.2671 87.8068 L 37.267 87.8067 L 36.7358 88.338 L 36.412 88.6619 L 36.1858 88.888 L 35.9667 88.8274 L 35.7871 89.0073 L 35.7059 89.0884 L 35.7454 89.1106 L 35.7873 89.1253 L 35.7926 89.1272 L 35.8367 89.1354 L 35.8493 89.1378 L 35.8945 89.1399 L 35.9161 89.141 L 35.9575 89.1379 L 35.9888 89.1359 L 36.0237 89.1295 L 36.0649 89.1223 L 36.0907 89.1148 L 36.1426 89.1004 L 36.1572 89.0948 L 36.2185 89.0717 L 36.2214 89.0704 L 36.2924 89.0365 L 36.2953 89.035 L 36.3617 88.9964 L 36.4175 88.9577 L 36.4222 88.9545 L 36.4641 88.9205 L 36.4744 88.9126 L 36.5044 88.8843 L 36.5186 88.8716 L 36.5389 88.8494 L 36.5585 88.8292 L 36.5802 88.8021 L 36.5939 88.7867 L 36.643 88.7238 L 36.6504 88.7139 L 36.8476 88.4574 L 36.9675 88.3119 L 37.1183 88.1175 L 37.1708 88.053 L 37.2184 87.9979 L 37.327 87.872 L 37.5046 87.6629 L 37.5268 87.639 L 37.639 87.5188 L 37.8272 87.3171 L 37.9827 87.1433 L 38.349 86.7623 L 38.3748 86.7369 L 38.9808 86.1497 L 38.9936 86.1372 L 39.042 86.0897 L 39.3589 85.7972 L 39.3777 85.7789 L 39.3952 85.7617 L 39.7041 85.4894 L 39.7084 85.4854 L 39.747 85.4477 L 39.7812 85.4141 L 40.1057 85.1434 L 40.1167 85.133 L 40.1408 85.1096 L 40.3538 84.9449 L 40.587 84.7489 L 40.6801 84.6839 L 40.9186 84.5127 L 41.2361 84.2904 L 41.2763 84.2638 L 41.4054 84.17 L 41.4671 84.1242 L 41.4914 84.1074 L 41.6626 83.9662 L 41.6928 83.9422 L 41.8267 83.8191 L 41.8662 83.7835 L 41.8769 83.7727 L 41.8888 83.7596 L 41.8979 83.7485 L 41.921 83.7199 L 41.9298 83.7072 L 41.9488 83.6792 L 41.9583 83.6627 L 41.9741 83.6346 L 41.9826 83.6161 L 41.9938 83.5916 L 42.0032 83.5663 L 42.0112 83.5445 L 42.0193 83.5154 L 42.0249 83.495 L 42.031 83.4632 L 42.0342 83.4459 L 42.0379 83.4106 L 42.0394 83.3956 L 42.0403 83.3574 L 42.0406 83.3427 L 42.0383 83.3056 L 42.0375 83.2937 L 42.0316 83.2541 L 42.03 83.2427 L 42.0209 83.2046 L 42.0186 83.1946 L 42.0061 83.1566 L 42.0052 83.1539 L 41.9886 83.1194 L 41.9781 83.0957 L 41.174 83.8997" fill="none" stroke="#000000" stroke-width="0.05000" fill-rule="evenodd" fill-opacity="1.000"/>
    </g>
    <g class="thermal-contour" data-segment="3" data-name="HollowShell1Contour_Volume">
    <path d="M 41.9629 82.4896 L 42.1764 82.8509 L 42.1994 82.8869 L 42.2171 82.9192 L 42.2518 82.9975 L 42.2753 83.046 L 42.2819 83.067 L 42.2984 83.1167 L 42.3033 83.1385 L 42.3155 83.1894 L 42.3187 83.2125 L 42.3264 83.2635 L 42.3277 83.2878 L 42.3311 83.3384 L 42.3303 83.3643 L 42.3294 83.4134 L 42.3263 83.441 L 42.3216 83.488 L 42.3158 83.5174 L 42.3076 83.5614 L 42.2988 83.5927 L 42.2878 83.6332 L 42.2754 83.6664 L 42.2622 83.7028 L 42.2459 83.7376 L 42.2313 83.7695 L 42.2105 83.8058 L 42.1953 83.833 L 42.1695 83.8704 L 42.1546 83.8926 L 42.1235 83.9307 L 42.1098 83.948 L 42.0882 83.9718 L 42.0658 83.9943 L 42.0216 84.0338 L 41.8812 84.1631 L 41.8449 84.1918 L 41.6665 84.3392 L 41.6355 84.3603 L 41.5771 84.4038 L 41.4415 84.5026 L 41.399 84.5305 L 41.0862 84.7493 L 40.846 84.9217 L 40.7636 84.9792 L 40.7137 85.0212 L 40.7145 85.022 L 40.7093 85.0268 L 40.702 85.0334 L 40.6954 85.0395 L 40.6865 85.0478 L 40.6764 85.0572 L 40.6625 85.0703 L 40.6447 85.0871 L 40.3311 85.3291 L 40.318 85.3418 L 40.3001 85.3591 L 39.9761 85.6291 L 39.9497 85.6551 L 39.9097 85.6942 L 39.9027 85.701 L 39.5932 85.9737 L 39.58 85.9868 L 39.5685 85.9979 L 39.5528 86.0099 L 39.2211 86.3135 L 39.1841 86.3471 L 38.5903 86.9224 L 38.5331 86.9787 L 38.2142 87.3102 L 37.926 87.6328 L 37.8839 87.6786 L 37.8333 87.7354 L 37.7391 87.8366 L 37.7214 87.8556 L 37.547 88.061 L 37.4379 88.1873 L 37.3932 88.2392 L 37.3454 88.2979 L 37.1933 88.494 L 37.0744 88.6381 L 36.8815 88.8892 L 36.873 88.9005 L 36.8167 88.9728 L 36.8018 88.9894 L 36.7766 89.0213 L 36.7503 89.048 L 36.7236 89.0778 L 36.7001 89.0984 L 36.6624 89.1343 L 36.643 89.1488 L 36.5926 89.19 L 36.5788 89.1987 L 36.514 89.2437 L 36.5072 89.2473 L 36.4399 89.2864 L 36.4288 89.2928 L 36.427 89.2939 L 36.3477 89.3314 L 36.3337 89.3385 L 36.2613 89.3655 L 36.2345 89.3762 L 36.17 89.3938 L 36.131 89.4054 L 36.075 89.4149 L 36.025 89.4244 L 35.9776 89.4273 L 35.919 89.4318 L 35.8796 89.4296 L 35.8153 89.4266 L 35.7829 89.4204 L 35.7168 89.4081 L 35.6904 89.3987 L 35.6261 89.3761 L 35.6041 89.364 L 35.5457 89.3313 L 35.475 89.2819 L 35.4675 89.275 L 35.3518 89.1607 L 35.2951 89.1033 L 35.288 89.0963 L 35.5153 88.8689 L 35.582 88.8023 L 35.6596 88.7246 L 35.7699 88.7556 L 35.6527 88.873 L 35.586 88.9397 L 35.5859 88.9396 L 35.4291 89.0965 L 35.5362 89.2023 L 35.5375 89.2035 L 35.5987 89.2462 L 35.653 89.2767 L 35.6529 89.2767 L 35.667 89.2845 L 35.7238 89.3044 L 35.7428 89.3112 L 35.8014 89.3221 L 35.8269 89.327 L 35.8847 89.3297 L 35.9177 89.3316 L 35.9707 89.3275 L 36.0127 89.3249 L 36.0573 89.3165 L 36.1079 89.3078 L 36.1426 89.2976 L 36.2026 89.2812 L 36.2253 89.2722 L 36.2934 89.2467 L 36.3037 89.2416 L 36.3795 89.2057 L 36.3897 89.1999 L 36.4587 89.1598 L 36.4624 89.1578 L 36.5236 89.1153 L 36.534 89.1086 L 36.5814 89.07 L 36.5977 89.0577 L 36.6326 89.0246 L 36.6531 89.0066 L 36.6774 88.9795 L 36.7012 88.9552 L 36.7253 88.9249 L 36.7401 88.9084 L 36.7941 88.8391 L 36.8019 88.8287 L 36.9962 88.5758 L 37.1142 88.4327 L 37.2671 88.2357 L 37.3165 88.175 L 37.3622 88.122 L 37.4713 87.9956 L 37.6467 87.7891 L 37.6659 87.7684 L 37.7779 87.6484 L 37.9675 87.4453 L 38.122 87.2725 L 38.4841 86.8959 L 38.5075 86.8729 L 39.1133 86.2859 L 39.1264 86.2731 L 39.173 86.2274 L 39.4915 85.9334 L 39.5103 85.9151 L 39.5249 85.9006 L 39.8344 85.6279 L 39.84 85.6225 L 39.8798 85.5836 L 39.9089 85.5549 L 40.2329 85.2848 L 40.2485 85.2699 L 40.2655 85.2534 L 40.5696 85.0186 L 40.5659 85.0149 L 40.7027 84.8998 L 40.7888 84.8397 L 41.0284 84.6677 L 41.3429 84.4477 L 41.385 84.42 L 41.5182 84.323 L 41.5775 84.2788 L 41.6066 84.2589 L 41.782 84.114 L 41.8158 84.0873 L 41.9544 83.9597 L 41.9963 83.9222 L 42.016 83.9024 L 42.0336 83.883 L 42.0456 83.868 L 42.0743 83.8327 L 42.0868 83.8141 L 42.1102 83.7801 L 42.1235 83.7565 L 42.1425 83.7232 L 42.1552 83.6956 L 42.1698 83.6641 L 42.1816 83.6319 L 42.1925 83.6023 L 42.2024 83.5661 L 42.2102 83.5381 L 42.2176 83.4986 L 42.2225 83.4733 L 42.2269 83.4304 L 42.2294 83.4068 L 42.2303 83.3618 L 42.2309 83.3399 L 42.2279 83.2938 L 42.2267 83.2735 L 42.2197 83.2268 L 42.2169 83.2071 L 42.2059 83.1611 L 42.2018 83.1432 L 42.1867 83.0977 L 42.182 83.0829 L 42.1611 83.0396 L 42.1276 82.9641 L 42.1131 82.9376 L 42.0912 82.9033 L 41.917 82.6086 L 41.8076 82.7181 L 41.7162 82.8093 L 41.7412 82.8508 L 41.8205 82.9847 L 41.0392 83.766 L 41.033 83.7723 L 40.8059 83.9993 L 40.7895 84.0157 L 40.7473 84.058 L 40.5682 84.237 L 40.5606 84.2446 L 40.5075 84.2978 L 40.3435 84.4617 L 40.2164 84.5888 L 40.2052 84.5999 L 40.2053 84.6 L 40.1288 84.6765 L 40.0959 84.7093 L 39.9802 84.825 L 39.8798 84.9255 L 39.8665 84.9386 L 39.8666 84.9387 L 39.8425 84.9628 L 39.7641 85.0413 L 39.7238 85.0814 L 39.46 85.3452 L 39.3594 85.4459 L 39.2611 85.5441 L 39.2345 85.5708 L 38.6837 86.1216 L 38.5071 86.2981 L 37.851 86.9542 L 37.7243 87.081 L 37.5715 87.2337 L 37.3843 87.421 L 37.1328 87.6724 L 36.6015 88.2037 L 36.2777 88.5276 L 36.1298 88.6754 L 35.9898 88.6366 L 36.071 88.5554 L 36.1003 88.5635 L 36.207 88.4569 L 36.5308 88.133 L 36.7689 87.8949 L 37.0621 87.6017 L 37.3136 87.3503 L 37.5008 87.163 L 37.6536 87.0103 L 37.7803 86.8835 L 38.0275 86.6363 L 38.2081 86.4557 L 38.4364 86.2274 L 38.613 86.0509 L 38.9839 85.68 L 39.1637 85.5002 L 39.1904 85.4734 L 39.2887 85.3752 L 39.3893 85.2745 L 39.413 85.2508 L 39.5353 85.1285 L 39.5914 85.0724 L 39.6532 85.0106 L 39.6934 84.9705 L 39.7717 84.8922 L 39.7957 84.8681 L 39.8092 84.8547 L 39.9095 84.7543 L 39.9265 84.7373 L 40.0253 84.6385 L 40.0581 84.6058 L 40.1345 84.5293 L 40.1457 84.5181 L 40.2728 84.391 L 40.4368 84.2271 L 40.4899 84.1739 L 40.4975 84.1663 L 40.6766 83.9873 L 40.7188 83.945 L 40.7352 83.9286 L 40.962 83.7019 L 40.9685 83.6953 L 41.2523 83.4115 L 41.5646 83.0992 L 41.6949 82.9689 L 41.681 82.9454 L 41.7406 82.886 L 41.6504 82.7338 L 41.6662 82.7181 L 41.7369 82.6474 L 41.9373 82.447 L 41.9629 82.4896" fill="none" stroke="#0000CC" stroke-width="0.05000" fill-rule="evenodd" fill-opacity="1.000"/>
    </g>
    <g class="thermal-contour" data-segment="4" data-name="HollowShell1Contour_Overhang">
    <path d="M 35.9083 88.5105 L 36.071 88.5554 L 35.9898 88.6366 L 35.9107 88.6148 L 35.7699 88.7556 L 35.6596 88.7246 L 35.8813 88.5029 L 35.9083 88.5105" fill="none" stroke="#000080" stroke-width="0.05000" fill-rule="evenodd" fill-opacity="1.000"/>
    <path d="M 39.5593 86.0069 L 39.242 86.2998 L 39.202 86.3391 L 39.202 86.3392 L 39.1829 86.3577 L 38.5773 86.9445 L 38.5552 86.9662 L 38.1953 87.3405 L 38.0421 87.5119 L 37.851 87.7166 L 37.8333 87.7354 L 37.8839 87.6786 L 37.926 87.6328 L 38.2142 87.3102 L 38.5331 86.9787 L 38.5903 86.9224 L 39.1841 86.3471 L 39.2211 86.3135 L 39.5528 86.0099 L 39.5685 85.9979 L 39.5593 86.0069" fill="none" stroke="#000080" stroke-width="0.05000" fill-rule="evenodd" fill-opacity="1.000"/>
    <path d="M 41.7406 82.886 L 41.681 82.9455 L 41.6763 82.9376 L 41.6553 82.902 L 41.5903 82.7939 L 41.6504 82.7338 L 41.7406 82.886" fill="none" stroke="#000080" stroke-width="0.05000" fill-rule="evenodd" fill-opacity="1.000"/>
    </g>
    <g class="thermal-contour" data-segment="5" data-name="HollowShell2Contour_Volume">
    <path d="M 42.0912 82.9033 L 42.1131 82.9376 L 42.1276 82.9641 L 42.1611 83.0396 L 42.182 83.0829 L 42.1867 83.0977 L 42.2018 83.1432 L 42.2059 83.1611 L 42.2169 83.2071 L 42.2197 83.2268 L 42.2267 83.2735 L 42.2279 83.2938 L 42.2309 83.3399 L 42.2303 83.3618 L 42.2294 83.4068 L 42.2269 83.4304 L 42.2225 83.4733 L 42.2176 83.4986 L 42.2102 83.5381 L 42.2024 83.5661 L 42.1925 83.6023 L 42.1816 83.6319 L 42.1698 83.6641 L 42.1552 83.6956 L 42.1425 83.7232 L 42.1235 83.7565 L 42.1102 83.7801 L 42.0868 83.8141 L 42.0743 83.8327 L 42.0456 83.868 L 42.0336 83.883 L 42.016 83.9024 L 41.9963 83.9222 L 41.9544 83.9597 L 41.8158 84.0873 L 41.782 84.114 L 41.6066 84.2589 L 41.5775 84.2788 L 41.5182 84.323 L 41.385 84.42 L 41.3429 84.4477 L 41.0284 84.6677 L 40.7888 84.8397 L 40.7027 84.8998 L 40.5659 85.0149 L 40.5696 85.0186 L 40.2655 85.2534 L 40.2485 85.2699 L 40.2329 85.2848 L 39.9089 85.5549 L 39.8798 85.5836 L 39.84 85.6225 L 39.8344 85.6279 L 39.5249 85.9006 L 39.5103 85.9151 L 39.4915 85.9334 L 39.173 86.2274 L 39.1264 86.2731 L 39.1133 86.2859 L 38.5075 86.8729 L 38.4841 86.8959 L 38.122 87.2725 L 37.9675 87.4453 L 37.7779 87.6484 L 37.6659 87.7684 L 37.6467 87.7891 L 37.4713 87.9956 L 37.3622 88.122 L 37.3165 88.175 L 37.2671 88.2357 L 37.1142 88.4327 L 36.9962 88.5758 L 36.8019 88.8287 L 36.7941 88.8391 L 36.7401 88.9084 L 36.7253 88.9249 L 36.7012 88.9552 L 36.6774 88.9795 L 36.6531 89.0066 L 36.6326 89.0246 L 36.5977 89.0577 L 36.5814 89.07 L 36.534 89.1086 L 36.5236 89.1153 L 36.4624 89.1578 L 36.4587 89.1598 L 36.3897 89.1999 L 36.3795 89.2057 L 36.3037 89.2416 L 36.2934 89.2467 L 36.2253 89.2722 L 36.2026 89.2812 L 36.1426 89.2976 L 36.1079 89.3078 L 36.0573 89.3165 L 36.0127 89.3249 L 35.9707 89.3275 L 35.9177 89.3316 L 35.8847 89.3297 L 35.8269 89.327 L 35.8014 89.3221 L 35.7428 89.3112 L 35.7238 89.3044 L 35.667 89.2845 L 35.6529 89.2767 L 35.653 89.2767 L 35.5987 89.2462 L 35.5375 89.2035 L 35.5362 89.2023 L 35.4291 89.0965 L 35.5859 88.9396 L 35.586 88.9397 L 35.6527 88.873 L 35.7699 88.7556 L 35.7827 88.7593 L 35.849 88.7776 L 35.9898 88.6366 L 36.1298 88.6754 L 36.2777 88.5276 L 36.6015 88.2037 L 37.1328 87.6724 L 37.3843 87.421 L 37.5715 87.2337 L 37.7243 87.081 L 37.851 86.9542 L 38.5071 86.2981 L 38.6837 86.1216 L 39.2345 85.5708 L 39.2611 85.5441 L 39.3594 85.4459 L 39.46 85.3452 L 39.7238 85.0814 L 39.7641 85.0413 L 39.8425 84.9628 L 39.8666 84.9387 L 39.8665 84.9386 L 39.8798 84.9255 L 39.9802 84.825 L 40.0959 84.7093 L 40.1288 84.6765 L 40.2053 84.6 L 40.2052 84.5999 L 40.2164 84.5888 L 40.3435 84.4617 L 40.5075 84.2978 L 40.5606 84.2446 L 40.5682 84.237 L 40.7473 84.058 L 40.7895 84.0157 L 40.8059 83.9993 L 41.033 83.7723 L 41.0392 83.766 L 41.8205 82.9847 L 41.7412 82.8508 L 41.7162 82.8093 L 41.8076 82.7181 L 41.917 82.6086 L 42.0912 82.9033" fill="none" stroke="#B8860B" stroke-width="0.05000" fill-rule="evenodd" fill-opacity="1.000"/>
    <path d="M 41.8783 82.7888 L 41.8421 82.8248 L 41.9461 83.0005 L 41.1099 83.8367 L 41.104 83.8427 L 40.8766 84.07 L 40.8602 84.0864 L 40.818 84.1287 L 40.6389 84.3077 L 40.6313 84.3153 L 40.5782 84.3685 L 40.4142 84.5324 L 40.3466 84.5999 L 40.3467 84.6 L 40.1995 84.7473 L 40.1665 84.7801 L 40.0509 84.8957 L 39.9503 84.9965 L 39.9457 85.0009 L 39.9132 85.0334 L 39.9133 85.0335 L 39.8347 85.1121 L 39.7943 85.1523 L 39.5307 85.4159 L 39.4301 85.5166 L 39.3318 85.6148 L 39.3053 85.6414 L 38.7544 86.1923 L 38.5778 86.3688 L 37.9217 87.0249 L 37.795 87.1517 L 37.6422 87.3044 L 37.455 87.4917 L 37.2035 87.7431 L 36.6722 88.2744 L 36.3484 88.5983 L 36.1593 88.7873 L 35.9401 88.7267 L 35.7234 88.9437 L 35.586 89.0811 L 35.5859 89.081 L 35.5709 89.096 L 35.6014 89.1262 L 35.6515 89.1611 L 35.7079 89.1928 L 35.7572 89.2101 L 35.7692 89.2144 L 35.82 89.2238 L 35.8387 89.2274 L 35.8899 89.2298 L 35.9165 89.2313 L 35.9638 89.2277 L 36.0001 89.2254 L 36.0396 89.2181 L 36.0858 89.21 L 36.1153 89.2014 L 36.1708 89.1861 L 36.1893 89.1789 L 36.2532 89.1549 L 36.2601 89.1516 L 36.334 89.1165 L 36.3395 89.1134 L 36.4098 89.0726 L 36.4101 89.0724 L 36.468 89.0322 L 36.4757 89.0271 L 36.5197 88.9913 L 36.5326 88.9815 L 36.5652 88.9507 L 36.5821 88.9357 L 36.6044 88.9111 L 36.6261 88.8889 L 36.6489 88.8603 L 36.6629 88.8447 L 36.7152 88.7776 L 36.7222 88.7682 L 36.918 88.5135 L 37.037 88.3691 L 37.1888 88.1735 L 37.2398 88.1108 L 37.2865 88.0567 L 37.3956 87.9303 L 37.5719 87.7227 L 37.5927 87.7003 L 37.7048 87.5802 L 37.893 87.3785 L 38.0487 87.2045 L 38.413 86.8256 L 38.4377 86.8013 L 39.0437 86.2141 L 39.0565 86.2016 L 39.1041 86.1549 L 39.4217 85.8617 L 39.4405 85.8434 L 39.4566 85.8275 L 39.7661 85.5548 L 39.7706 85.5505 L 39.8099 85.5121 L 39.8417 85.4808 L 40.1658 85.2105 L 40.1794 85.1976 L 40.1999 85.1777 L 40.4184 85.0088 L 40.4181 85.0085 L 40.6418 84.8204 L 40.7316 84.7577 L 40.9706 84.5861 L 41.2867 84.3649 L 41.328 84.3377 L 41.4584 84.2428 L 41.5194 84.1974 L 41.5458 84.1793 L 41.7192 84.0362 L 41.7511 84.0109 L 41.8872 83.8857 L 41.9275 83.8495 L 41.9427 83.8342 L 41.9575 83.8179 L 41.9678 83.8052 L 41.9938 83.773 L 42.0041 83.7579 L 42.0254 83.7267 L 42.0365 83.7072 L 42.0539 83.6765 L 42.0644 83.6537 L 42.0772 83.6259 L 42.0877 83.5974 L 42.0969 83.5723 L 42.106 83.5395 L 42.1126 83.5158 L 42.1194 83.4799 L 42.1234 83.4587 L 42.1274 83.42 L 42.1294 83.4011 L 42.1303 83.3594 L 42.1307 83.3415 L 42.1281 83.3 L 42.1271 83.2841 L 42.1207 83.2412 L 42.1186 83.2262 L 42.1085 83.1839 L 42.1052 83.1698 L 42.0916 83.1286 L 42.0889 83.1203 L 42.0703 83.0816 L 42.0376 83.008 L 42.0272 82.9889 L 42.006 82.9557 L 41.8965 82.7705 L 41.8783 82.7888" fill="none" stroke="#B8860B" stroke-width="0.05000" fill-rule="evenodd" fill-opacity="1.000"/>
    </g>
    <g class="thermal-contour" data-segment="6" data-name="HollowShell2Contour_Overhang">
    <path d="M 35.9898 88.6366 L 35.849 88.7776 L 35.7827 88.7593 L 35.7699 88.7556 L 35.9107 88.6148 L 35.9898 88.6366" fill="none" stroke="#006400" stroke-width="0.05000" fill-rule="evenodd" fill-opacity="1.000"/>
    </g>
    <!-- ===== Thermal Segment Colour Legend ===== -->
    <g id="thermal-legend">
    <rect x="161.0000" y="5.0000" width="40.0000" height="72.0000"
          rx="1" ry="1"
          fill="#fafafa" stroke="#cccccc" stroke-width="0.15"/>
    <text x="181.0000" y="7.6000" font-family="sans-serif" font-size="2.2000" font-weight="bold" fill="#222222" text-anchor="middle">Thermal Segments</text>
    <line x1="161.5000" y1="8.7000" x2="200.5000" y2="8.7000" stroke="#bbbbbb" stroke-width="0.1"/>
    <rect x="161.8000" y="9.0000" width="3.5000" height="2.0000" fill="#000000" stroke="#333333" stroke-width="0.08" rx="0.3" ry="0.3"/>
    <text x="168.6000" y="10.9000" font-family="monospace" font-size="1.6000" fill="#444444" text-anchor="end"> 1</text>
    <text x="169.6000" y="10.9000" font-family="sans-serif" font-size="1.6000" fill="#111111">CoreContour_Volume</text>
    <rect x="161.8000" y="12.0000" width="3.5000" height="2.0000" fill="#8B0000" stroke="#333333" stroke-width="0.08" rx="0.3" ry="0.3"/>
    <text x="168.6000" y="13.9000" font-family="monospace" font-size="1.6000" fill="#444444" text-anchor="end"> 2</text>
    <text x="169.6000" y="13.9000" font-family="sans-serif" font-size="1.6000" fill="#111111">CoreContour_Overhang</text>
    <rect x="161.8000" y="15.0000" width="3.5000" height="2.0000" fill="#0000CC" stroke="#333333" stroke-width="0.08" rx="0.3" ry="0.3"/>
    <text x="168.6000" y="16.9000" font-family="monospace" font-size="1.6000" fill="#444444" text-anchor="end"> 3</text>
    <text x="169.6000" y="16.9000" font-family="sans-serif" font-size="1.6000" fill="#111111">Shell1Contour_Volume</text>
    <rect x="161.8000" y="18.0000" width="3.5000" height="2.0000" fill="#000080" stroke="#333333" stroke-width="0.08" rx="0.3" ry="0.3"/>
    <text x="168.6000" y="19.9000" font-family="monospace" font-size="1.6000" fill="#444444" text-anchor="end"> 4</text>
    <text x="169.6000" y="19.9000" font-family="sans-serif" font-size="1.6000" fill="#111111">Shell1Contour_Overhang</text>
    <rect x="161.8000" y="21.0000" width="3.5000" height="2.0000" fill="#B8860B" stroke="#333333" stroke-width="0.08" rx="0.3" ry="0.3"/>
    <text x="168.6000" y="22.9000" font-family="monospace" font-size="1.6000" fill="#444444" text-anchor="end"> 5</text>
    <text x="169.6000" y="22.9000" font-family="sans-serif" font-size="1.6000" fill="#111111">Shell2Contour_Volume</text>
    <rect x="161.8000" y="24.0000" width="3.5000" height="2.0000" fill="#006400" stroke="#333333" stroke-width="0.08" rx="0.3" ry="0.3"/>
    <text x="168.6000" y="25.9000" font-family="monospace" font-size="1.6000" fill="#444444" text-anchor="end"> 6</text>
    <text x="169.6000" y="25.9000" font-family="sans-serif" font-size="1.6000" fill="#111111">Shell2Contour_Overhang</text>
    <rect x="161.8000" y="27.0000" width="3.5000" height="2.0000" fill="#FF8C00" stroke="#333333" stroke-width="0.08" rx="0.3" ry="0.3"/>
    <text x="168.6000" y="28.9000" font-family="monospace" font-size="1.6000" fill="#444444" text-anchor="end"> 7</text>
    <text x="169.6000" y="28.9000" font-family="sans-serif" font-size="1.6000" fill="#111111">CoreOverhangHatch</text>
    <rect x="161.8000" y="30.0000" width="3.5000" height="2.0000" fill="#228B22" stroke="#333333" stroke-width="0.08" rx="0.3" ry="0.3"/>
    <text x="168.6000" y="31.9000" font-family="monospace" font-size="1.6000" fill="#444444" text-anchor="end"> 8</text>
    <text x="169.6000" y="31.9000" font-family="sans-serif" font-size="1.6000" fill="#111111">CoreNormalHatch</text>
    <rect x="161.8000" y="33.0000" width="3.5000" height="2.0000" fill="#800080" stroke="#333333" stroke-width="0.08" rx="0.3" ry="0.3"/>
    <text x="168.6000" y="34.9000" font-family="monospace" font-size="1.6000" fill="#444444" text-anchor="end"> 9</text>
    <text x="169.6000" y="34.9000" font-family="sans-serif" font-size="1.6000" fill="#111111">CoreContourHatch</text>
    <rect x="161.8000" y="36.0000" width="3.5000" height="2.0000" fill="#FF69B4" stroke="#333333" stroke-width="0.08" rx="0.3" ry="0.3"/>
    <text x="168.6000" y="37.9000" font-family="monospace" font-size="1.6000" fill="#444444" text-anchor="end">10</text>
    <text x="169.6000" y="37.9000" font-family="sans-serif" font-size="1.6000" fill="#111111">Shell1OverhangHatch</text>
    <rect x="161.8000" y="39.0000" width="3.5000" height="2.0000" fill="#00CED1" stroke="#333333" stroke-width="0.08" rx="0.3" ry="0.3"/>
    <text x="168.6000" y="40.9000" font-family="monospace" font-size="1.6000" fill="#444444" text-anchor="end">11</text>
    <text x="169.6000" y="40.9000" font-family="sans-serif" font-size="1.6000" fill="#111111">Shell1NormalHatch</text>
    <rect x="161.8000" y="42.0000" width="3.5000" height="2.0000" fill="#FF00FF" stroke="#333333" stroke-width="0.08" rx="0.3" ry="0.3"/>
    <text x="168.6000" y="43.9000" font-family="monospace" font-size="1.6000" fill="#444444" text-anchor="end">12</text>
    <text x="169.6000" y="43.9000" font-family="sans-serif" font-size="1.6000" fill="#111111">Shell1ContourHatch</text>
    <rect x="161.8000" y="45.0000" width="3.5000" height="2.0000" fill="#A52A2A" stroke="#333333" stroke-width="0.08" rx="0.3" ry="0.3"/>
    <text x="168.6000" y="46.9000" font-family="monospace" font-size="1.6000" fill="#444444" text-anchor="end">13</text>
    <text x="169.6000" y="46.9000" font-family="sans-serif" font-size="1.6000" fill="#111111">Shell2OverhangHatch</text>
    <rect x="161.8000" y="48.0000" width="3.5000" height="2.0000" fill="#808080" stroke="#333333" stroke-width="0.08" rx="0.3" ry="0.3"/>
    <text x="168.6000" y="49.9000" font-family="monospace" font-size="1.6000" fill="#444444" text-anchor="end">14</text>
    <text x="169.6000" y="49.9000" font-family="sans-serif" font-size="1.6000" fill="#111111">Shell2NormalHatch</text>
    <rect x="161.8000" y="51.0000" width="3.5000" height="2.0000" fill="#32CD32" stroke="#333333" stroke-width="0.08" rx="0.3" ry="0.3"/>
    <text x="168.6000" y="52.9000" font-family="monospace" font-size="1.6000" fill="#444444" text-anchor="end">15</text>
    <text x="169.6000" y="52.9000" font-family="sans-serif" font-size="1.6000" fill="#111111">Shell2ContourHatch</text>
    <rect x="161.8000" y="54.0000" width="3.5000" height="2.0000" fill="#1A237E" stroke="#333333" stroke-width="0.08" rx="0.3" ry="0.3"/>
    <text x="168.6000" y="55.9000" font-family="monospace" font-size="1.6000" fill="#444444" text-anchor="end">16</text>
    <text x="169.6000" y="55.9000" font-family="sans-serif" font-size="1.6000" fill="#111111">SupportContourVolume</text>
    <rect x="161.8000" y="57.0000" width="3.5000" height="2.0000" fill="#827717" stroke="#333333" stroke-width="0.08" rx="0.3" ry="0.3"/>
    <text x="168.6000" y="58.9000" font-family="monospace" font-size="1.6000" fill="#444444" text-anchor="end">17</text>
    <text x="169.6000" y="58.9000" font-family="sans-serif" font-size="1.6000" fill="#111111">SupportHatch</text>
    <rect x="161.8000" y="60.0000" width="3.5000" height="2.0000" fill="#006064" stroke="#333333" stroke-width="0.08" rx="0.3" ry="0.3"/>
    <text x="168.6000" y="61.9000" font-family="monospace" font-size="1.6000" fill="#444444" text-anchor="end">18</text>
    <text x="169.6000" y="61.9000" font-family="sans-serif" font-size="1.6000" fill="#111111">PointSequence</text>
    <rect x="161.8000" y="63.0000" width="3.5000" height="2.0000" fill="#B71C1C" stroke="#333333" stroke-width="0.08" rx="0.3" ry="0.3"/>
    <text x="168.6000" y="64.9000" font-family="monospace" font-size="1.6000" fill="#444444" text-anchor="end">19</text>
    <text x="169.6000" y="64.9000" font-family="sans-serif" font-size="1.6000" fill="#111111">ExternalSupports</text>
    <rect x="161.8000" y="66.0000" width="3.5000" height="2.0000" fill="#E64A19" stroke="#333333" stroke-width="0.08" rx="0.3" ry="0.3"/>
    <text x="168.6000" y="67.9000" font-family="monospace" font-size="1.6000" fill="#444444" text-anchor="end">20</text>
    <text x="169.6000" y="67.9000" font-family="sans-serif" font-size="1.6000" fill="#111111">CoreContourHatchOverhang</text>
    <rect x="161.8000" y="69.0000" width="3.5000" height="2.0000" fill="#311B92" stroke="#333333" stroke-width="0.08" rx="0.3" ry="0.3"/>
    <text x="168.6000" y="70.9000" font-family="monospace" font-size="1.6000" fill="#444444" text-anchor="end">21</text>
    <text x="169.6000" y="70.9000" font-family="sans-serif" font-size="1.6000" fill="#111111">Shell1ContourHatchOverhang</text>
    <rect x="161.8000" y="72.0000" width="3.5000" height="2.0000" fill="#880E4F" stroke="#333333" stroke-width="0.08" rx="0.3" ry="0.3"/>
    <text x="168.6000" y="73.9000" font-family="monospace" font-size="1.6000" fill="#444444" text-anchor="end">22</text>
    <text x="169.6000" y="73.9000" font-family="sans-serif" font-size="1.6000" fill="#111111">Shell2ContourHatchOverhang</text>
    </g>
  </g>
</svg>
