<?xml version="1.0" encoding="UTF-8" standalone="yes"?>
<svg xmlns="http://www.w3.org/2000/svg"
     xmlns:xlink="http://www.w3.org/1999/xlink"
     width="2020.0000mm" height="1600.0000mm"
     viewBox="0 0 202.000000 160.000000">
  <!--
    Build plate : 150.00 x 150.00 mm
    Coordinate  : 1 SVG unit = 1 mm
    Display zoom: 10x  (width/height = viewBox x 10)
    Hatch stroke: 0.04 mm = ~28 mm on screen at this zoom
    Legend panel: right margin (42 mm wide)
  -->
  <defs>
    <marker id="endArrow" markerWidth="2" markerHeight="1.4"
            refX="0" refY="0.7" orient="auto"
            markerUnits="strokeWidth">
      <polyline fill="darkblue" points="0,0 2,0.7 0,1.4 0.2,0.7"/>
    </marker>
  </defs>
  <!-- Background -->
  <rect x="0" y="0" width="202.000000" height="160.000000" fill="#f0f0f0" stroke="none"/>
  <!-- Build plate boundary (150 x 150 mm) -->
  <rect x="5.000000" y="5.000000" width="150.000000" height="150.000000"
        fill="#ffffff" stroke="#aaaaaa" stroke-width="0.2" stroke-dasharray="1,0.5"/>
  <!-- Build plate centre circle (r = 75.00 mm) -->
  <circle cx="80.000000" cy="80.000000" r="75.000000"
          fill="none" stroke="#bbbbbb" stroke-width="0.15" stroke-dasharray="0.8,0.4"/>
  <!-- Centre cross-hair -->
  <line x1="5.000000" y1="80.000000" x2="155.000000" y2="80.000000" stroke="#cccccc" stroke-width="0.1"/>
  <line x1="80.000000" y1="5.000000" x2="80.000000" y2="155.000000" stroke="#cccccc" stroke-width="0.1"/>
  <circle cx="80.000000" cy="80.000000" r="0.3" fill="#cccccc" stroke="none"/>
  <!-- Corner labels -->
  <text x="5.400000" y="4.600000" font-family="sans-serif" font-size="2" fill="#888888">0,0</text>
  <text x="154.600006" y="4.600000" font-family="sans-serif" font-size="2" fill="#888888" text-anchor="end">150,0</text>
  <text x="5.400000" y="157.199997" font-family="sans-serif" font-size="2" fill="#888888">0,150</text>
  <!-- Layer geometry -->
  <g id="geometry">
    <g class="thermal-hatch" data-segment="8" data-name="CoreNormalHatch">
      <line x1="36.12028" y1="127.60204" x2="35.77326" y2="127.73525" stroke="#228B22" stroke-width="0.04000"/>
      <line x1="36.11575" y1="127.49667" x2="35.51457" y2="127.72744" stroke="#228B22" stroke-width="0.04000"/>
      <line x1="36.11122" y1="127.39130" x2="35.25591" y2="127.71962" stroke="#228B22" stroke-width="0.04000"/>
      <line x1="36.10668" y1="127.28592" x2="35.04435" y2="127.69371" stroke="#228B22" stroke-width="0.04000"/>
      <line x1="36.10325" y1="127.18012" x2="34.96695" y2="127.61631" stroke="#228B22" stroke-width="0.04000"/>
      <line x1="36.09997" y1="127.07427" x2="34.88954" y2="127.53891" stroke="#228B22" stroke-width="0.04000"/>
      <line x1="36.09668" y1="126.96841" x2="34.81213" y2="127.46151" stroke="#228B22" stroke-width="0.04000"/>
      <line x1="36.09340" y1="126.86256" x2="34.73472" y2="127.38411" stroke="#228B22" stroke-width="0.04000"/>
      <line x1="36.09011" y1="126.75671" x2="34.65732" y2="127.30671" stroke="#228B22" stroke-width="0.04000"/>
      <line x1="36.08683" y1="126.65086" x2="34.57991" y2="127.22931" stroke="#228B22" stroke-width="0.04000"/>
      <line x1="36.08354" y1="126.54501" x2="34.50250" y2="127.15191" stroke="#228B22" stroke-width="0.04000"/>
      <line x1="36.07467" y1="126.44129" x2="34.42509" y2="127.07451" stroke="#228B22" stroke-width="0.04000"/>
      <line x1="36.06496" y1="126.33791" x2="34.35243" y2="126.99529" stroke="#228B22" stroke-width="0.04000"/>
      <line x1="36.05526" y1="126.23452" x2="34.30529" y2="126.90627" stroke="#228B22" stroke-width="0.04000"/>
      <line x1="36.04556" y1="126.13113" x2="34.25815" y2="126.81725" stroke="#228B22" stroke-width="0.04000"/>
      <line x1="36.03585" y1="126.02774" x2="34.21101" y2="126.72823" stroke="#228B22" stroke-width="0.04000"/>
      <line x1="36.02615" y1="125.92435" x2="34.16388" y2="126.63921" stroke="#228B22" stroke-width="0.04000"/>
      <line x1="36.00645" y1="125.82479" x2="34.11674" y2="126.55019" stroke="#228B22" stroke-width="0.04000"/>
      <line x1="35.98371" y1="125.72641" x2="34.06960" y2="126.46117" stroke="#228B22" stroke-width="0.04000"/>
      <line x1="35.96098" y1="125.62802" x2="34.02246" y2="126.37215" stroke="#228B22" stroke-width="0.04000"/>
      <line x1="35.93824" y1="125.52963" x2="33.97533" y2="126.28313" stroke="#228B22" stroke-width="0.04000"/>
      <line x1="35.91488" y1="125.43149" x2="33.92819" y2="126.19411" stroke="#228B22" stroke-width="0.04000"/>
      <line x1="35.89042" y1="125.33376" x2="33.88105" y2="126.10509" stroke="#228B22" stroke-width="0.04000"/>
      <line x1="35.86596" y1="125.23603" x2="33.83079" y2="126.01727" stroke="#228B22" stroke-width="0.04000"/>
      <line x1="35.84150" y1="125.13831" x2="33.78007" y2="125.92962" stroke="#228B22" stroke-width="0.04000"/>
      <line x1="35.81704" y1="125.04058" x2="33.72935" y2="125.84197" stroke="#228B22" stroke-width="0.04000"/>
      <line x1="35.79258" y1="124.94286" x2="33.67864" y2="125.75433" stroke="#228B22" stroke-width="0.04000"/>
      <line x1="35.76812" y1="124.84513" x2="33.62793" y2="125.66668" stroke="#228B22" stroke-width="0.04000"/>
      <line x1="35.74290" y1="124.74770" x2="33.57721" y2="125.57903" stroke="#228B22" stroke-width="0.04000"/>
      <line x1="35.71741" y1="124.65037" x2="33.52687" y2="125.49124" stroke="#228B22" stroke-width="0.04000"/>
      <line x1="35.69193" y1="124.55304" x2="33.48039" y2="125.40197" stroke="#228B22" stroke-width="0.04000"/>
      <line x1="35.66753" y1="124.45529" x2="33.43391" y2="125.31270" stroke="#228B22" stroke-width="0.04000"/>
      <line x1="35.65243" y1="124.35397" x2="33.38743" y2="125.22343" stroke="#228B22" stroke-width="0.04000"/>
      <line x1="35.63733" y1="124.25266" x2="33.33936" y2="125.13476" stroke="#228B22" stroke-width="0.04000"/>
      <line x1="35.60902" y1="124.15641" x2="33.29011" y2="125.04655" stroke="#228B22" stroke-width="0.04000"/>
      <line x1="35.57990" y1="124.06047" x2="33.24085" y2="124.95834" stroke="#228B22" stroke-width="0.04000"/>
      <line x1="35.55078" y1="123.96453" x2="33.19160" y2="124.87014" stroke="#228B22" stroke-width="0.04000"/>
      <line x1="35.52166" y1="123.86860" x2="33.13678" y2="124.78407" stroke="#228B22" stroke-width="0.04000"/>
      <line x1="35.49254" y1="123.77266" x2="33.07733" y2="124.69977" stroke="#228B22" stroke-width="0.04000"/>
      <line x1="35.46342" y1="123.67672" x2="33.01788" y2="124.61548" stroke="#228B22" stroke-width="0.04000"/>
      <line x1="35.43430" y1="123.58079" x2="32.95844" y2="124.53118" stroke="#228B22" stroke-width="0.04000"/>
      <line x1="35.40518" y1="123.48485" x2="32.89899" y2="124.44688" stroke="#228B22" stroke-width="0.04000"/>
      <line x1="35.37764" y1="123.38831" x2="32.83955" y2="124.36259" stroke="#228B22" stroke-width="0.04000"/>
      <line x1="35.35399" y1="123.29028" x2="32.78010" y2="124.27830" stroke="#228B22" stroke-width="0.04000"/>
      <line x1="35.33034" y1="123.19224" x2="32.72127" y2="124.19376" stroke="#228B22" stroke-width="0.04000"/>
      <line x1="35.30669" y1="123.09421" x2="32.66301" y2="124.10902" stroke="#228B22" stroke-width="0.04000"/>
      <line x1="35.28304" y1="122.99616" x2="32.60474" y2="124.02426" stroke="#228B22" stroke-width="0.04000"/>
      <line x1="35.25938" y1="122.89813" x2="32.54649" y2="123.93951" stroke="#228B22" stroke-width="0.04000"/>
      <line x1="35.23573" y1="122.80009" x2="32.48823" y2="123.85477" stroke="#228B22" stroke-width="0.04000"/>
      <line x1="35.19702" y1="122.70784" x2="32.42997" y2="123.77001" stroke="#228B22" stroke-width="0.04000"/>
      <line x1="35.15656" y1="122.61626" x2="32.37171" y2="123.68526" stroke="#228B22" stroke-width="0.04000"/>
      <line x1="35.11610" y1="122.52467" x2="32.31345" y2="123.60051" stroke="#228B22" stroke-width="0.04000"/>
      <line x1="35.08056" y1="122.43120" x2="32.25599" y2="123.51546" stroke="#228B22" stroke-width="0.04000"/>
      <line x1="35.04546" y1="122.33756" x2="32.20098" y2="123.42946" stroke="#228B22" stroke-width="0.04000"/>
      <line x1="35.01035" y1="122.24392" x2="32.14112" y2="123.34531" stroke="#228B22" stroke-width="0.04000"/>
      <line x1="34.97525" y1="122.15028" x2="32.07050" y2="123.26531" stroke="#228B22" stroke-width="0.04000"/>
      <line x1="34.94015" y1="122.05664" x2="31.99936" y2="123.18551" stroke="#228B22" stroke-width="0.04000"/>
      <line x1="34.90504" y1="121.96301" x2="31.92823" y2="123.10570" stroke="#228B22" stroke-width="0.04000"/>
      <line x1="34.86994" y1="121.86937" x2="31.85710" y2="123.02589" stroke="#228B22" stroke-width="0.04000"/>
      <line x1="34.83483" y1="121.77573" x2="31.78596" y2="122.94608" stroke="#228B22" stroke-width="0.04000"/>
      <line x1="34.79987" y1="121.68204" x2="31.71483" y2="122.86627" stroke="#228B22" stroke-width="0.04000"/>
      <line x1="34.76494" y1="121.58833" x2="31.64370" y2="122.78646" stroke="#228B22" stroke-width="0.04000"/>
      <line x1="34.73001" y1="121.49462" x2="31.57257" y2="122.70665" stroke="#228B22" stroke-width="0.04000"/>
      <line x1="34.70066" y1="121.39877" x2="31.49412" y2="122.62965" stroke="#228B22" stroke-width="0.04000"/>
      <line x1="34.67193" y1="121.30269" x2="31.41494" y2="122.55293" stroke="#228B22" stroke-width="0.04000"/>
      <line x1="34.63730" y1="121.20886" x2="31.33577" y2="122.47620" stroke="#228B22" stroke-width="0.04000"/>
      <line x1="34.60268" y1="121.11504" x2="31.25660" y2="122.39948" stroke="#228B22" stroke-width="0.04000"/>
      <line x1="34.56805" y1="121.02122" x2="31.17742" y2="122.32276" stroke="#228B22" stroke-width="0.04000"/>
      <line x1="34.53342" y1="120.92740" x2="31.09825" y2="122.24603" stroke="#228B22" stroke-width="0.04000"/>
      <line x1="34.49880" y1="120.83357" x2="31.01955" y2="122.16914" stroke="#228B22" stroke-width="0.04000"/>
      <line x1="34.46417" y1="120.73975" x2="30.94447" y2="122.09084" stroke="#228B22" stroke-width="0.04000"/>
      <line x1="34.42955" y1="120.64593" x2="30.86939" y2="122.01254" stroke="#228B22" stroke-width="0.04000"/>
      <line x1="34.39492" y1="120.55210" x2="30.79909" y2="121.93241" stroke="#228B22" stroke-width="0.04000"/>
      <line x1="34.36030" y1="120.45827" x2="30.72917" y2="121.85213" stroke="#228B22" stroke-width="0.04000"/>
      <line x1="34.32568" y1="120.36446" x2="30.68306" y2="121.76273" stroke="#228B22" stroke-width="0.04000"/>
      <line x1="34.29955" y1="120.26737" x2="30.65088" y2="121.66796" stroke="#228B22" stroke-width="0.04000"/>
      <line x1="34.27316" y1="120.17039" x2="30.61870" y2="121.57320" stroke="#228B22" stroke-width="0.04000"/>
      <line x1="34.24485" y1="120.07414" x2="30.58651" y2="121.47845" stroke="#228B22" stroke-width="0.04000"/>
      <line x1="34.21655" y1="119.97789" x2="30.55433" y2="121.38368" stroke="#228B22" stroke-width="0.04000"/>
      <line x1="34.18824" y1="119.88164" x2="30.52214" y2="121.28893" stroke="#228B22" stroke-width="0.04000"/>
      <line x1="34.15162" y1="119.78858" x2="30.48996" y2="121.19416" stroke="#228B22" stroke-width="0.04000"/>
      <line x1="34.10987" y1="119.69749" x2="30.47092" y2="121.09435" stroke="#228B22" stroke-width="0.04000"/>
      <line x1="34.06812" y1="119.60641" x2="30.49352" y2="120.97857" stroke="#228B22" stroke-width="0.04000"/>
      <line x1="34.02637" y1="119.51531" x2="30.51612" y2="120.86278" stroke="#228B22" stroke-width="0.04000"/>
      <line x1="33.98463" y1="119.42422" x2="30.53872" y2="120.74699" stroke="#228B22" stroke-width="0.04000"/>
      <line x1="33.94288" y1="119.33314" x2="30.56132" y2="120.63120" stroke="#228B22" stroke-width="0.04000"/>
      <line x1="33.90113" y1="119.24205" x2="30.58392" y2="120.51540" stroke="#228B22" stroke-width="0.04000"/>
      <line x1="33.85938" y1="119.15096" x2="30.60286" y2="120.40102" stroke="#228B22" stroke-width="0.04000"/>
      <line x1="33.82090" y1="119.05862" x2="30.60314" y2="120.29380" stroke="#228B22" stroke-width="0.04000"/>
      <line x1="33.78255" y1="118.96622" x2="30.60343" y2="120.18657" stroke="#228B22" stroke-width="0.04000"/>
      <line x1="33.74420" y1="118.87383" x2="30.60372" y2="120.07935" stroke="#228B22" stroke-width="0.04000"/>
      <line x1="33.70585" y1="118.78144" x2="30.60705" y2="119.97095" stroke="#228B22" stroke-width="0.04000"/>
      <line x1="33.66750" y1="118.68905" x2="30.63458" y2="119.85327" stroke="#228B22" stroke-width="0.04000"/>
      <line x1="33.62915" y1="118.59666" x2="30.66211" y2="119.73560" stroke="#228B22" stroke-width="0.04000"/>
      <line x1="33.59080" y1="118.50426" x2="30.72127" y2="119.60577" stroke="#228B22" stroke-width="0.04000"/>
      <line x1="33.54387" y1="118.41516" x2="30.80782" y2="119.46543" stroke="#228B22" stroke-width="0.04000"/>
      <line x1="33.47758" y1="118.33349" x2="30.89437" y2="119.32509" stroke="#228B22" stroke-width="0.04000"/>
      <line x1="33.41130" y1="118.25182" x2="30.98093" y2="119.18475" stroke="#228B22" stroke-width="0.04000"/>
      <line x1="33.33935" y1="118.17233" x2="31.06748" y2="119.04442" stroke="#228B22" stroke-width="0.04000"/>
      <line x1="33.26542" y1="118.09359" x2="31.14854" y2="118.90618" stroke="#228B22" stroke-width="0.04000"/>
      <line x1="33.19149" y1="118.01485" x2="31.20832" y2="118.77612" stroke="#228B22" stroke-width="0.04000"/>
      <line x1="33.11757" y1="117.93612" x2="31.26810" y2="118.64606" stroke="#228B22" stroke-width="0.04000"/>
      <line x1="33.04364" y1="117.85738" x2="31.36701" y2="118.50098" stroke="#228B22" stroke-width="0.04000"/>
      <line x1="32.96972" y1="117.77864" x2="31.50194" y2="118.34206" stroke="#228B22" stroke-width="0.04000"/>
      <line x1="32.89579" y1="117.69991" x2="31.63687" y2="118.18316" stroke="#228B22" stroke-width="0.04000"/>
      <line x1="32.73707" y1="117.65372" x2="31.77180" y2="118.02425" stroke="#228B22" stroke-width="0.04000"/>
      <line x1="32.48414" y1="117.64369" x2="31.89473" y2="117.86995" stroke="#228B22" stroke-width="0.04000"/>
      <line x1="32.03462" y1="117.70913" x2="32.00708" y2="117.71970" stroke="#228B22" stroke-width="0.04000"/>
    </g>
    <g class="thermal-hatch" data-segment="8" data-name="CoreNormalHatch">
      <line x1="52.75051" y1="115.48566" x2="52.26504" y2="115.67201" stroke="#228B22" stroke-width="0.04000"/>
      <line x1="53.31137" y1="115.16325" x2="52.11644" y2="115.62193" stroke="#228B22" stroke-width="0.04000"/>
      <line x1="53.31313" y1="115.05545" x2="51.99842" y2="115.56012" stroke="#228B22" stroke-width="0.04000"/>
      <line x1="53.31490" y1="114.94766" x2="51.88041" y2="115.49831" stroke="#228B22" stroke-width="0.04000"/>
      <line x1="53.31667" y1="114.83987" x2="51.76239" y2="115.43650" stroke="#228B22" stroke-width="0.04000"/>
      <line x1="53.28916" y1="114.74331" x2="51.64437" y2="115.37469" stroke="#228B22" stroke-width="0.04000"/>
      <line x1="53.23730" y1="114.65611" x2="51.52636" y2="115.31287" stroke="#228B22" stroke-width="0.04000"/>
      <line x1="53.18545" y1="114.56889" x2="51.40834" y2="115.25106" stroke="#228B22" stroke-width="0.04000"/>
      <line x1="53.13359" y1="114.48169" x2="51.28638" y2="115.19077" stroke="#228B22" stroke-width="0.04000"/>
      <line x1="53.08174" y1="114.39447" x2="51.15751" y2="115.13312" stroke="#228B22" stroke-width="0.04000"/>
      <line x1="53.02988" y1="114.30727" x2="51.03077" y2="115.07465" stroke="#228B22" stroke-width="0.04000"/>
      <line x1="52.95476" y1="114.22899" x2="50.90587" y2="115.01549" stroke="#228B22" stroke-width="0.04000"/>
      <line x1="52.87275" y1="114.15335" x2="50.78097" y2="114.95631" stroke="#228B22" stroke-width="0.04000"/>
      <line x1="52.79075" y1="114.07771" x2="50.65607" y2="114.89714" stroke="#228B22" stroke-width="0.04000"/>
      <line x1="52.70875" y1="114.00208" x2="50.53117" y2="114.83797" stroke="#228B22" stroke-width="0.04000"/>
      <line x1="52.62675" y1="113.92645" x2="50.40628" y2="114.77880" stroke="#228B22" stroke-width="0.04000"/>
      <line x1="52.54474" y1="113.85081" x2="50.28138" y2="114.71964" stroke="#228B22" stroke-width="0.04000"/>
      <line x1="52.46274" y1="113.77517" x2="50.15648" y2="114.66046" stroke="#228B22" stroke-width="0.04000"/>
      <line x1="52.38074" y1="113.69953" x2="50.02481" y2="114.60389" stroke="#228B22" stroke-width="0.04000"/>
      <line x1="52.29556" y1="113.62511" x2="49.88113" y2="114.55193" stroke="#228B22" stroke-width="0.04000"/>
      <line x1="52.18938" y1="113.55876" x2="49.73945" y2="114.49921" stroke="#228B22" stroke-width="0.04000"/>
      <line x1="52.08196" y1="113.49288" x2="49.59776" y2="114.44647" stroke="#228B22" stroke-width="0.04000"/>
      <line x1="51.97901" y1="113.42529" x2="49.45608" y2="114.39375" stroke="#228B22" stroke-width="0.04000"/>
      <line x1="51.87605" y1="113.35770" x2="49.31440" y2="114.34102" stroke="#228B22" stroke-width="0.04000"/>
      <line x1="51.77309" y1="113.29010" x2="49.17325" y2="114.28809" stroke="#228B22" stroke-width="0.04000"/>
      <line x1="51.67014" y1="113.22250" x2="49.03908" y2="114.23248" stroke="#228B22" stroke-width="0.04000"/>
      <line x1="51.56718" y1="113.15491" x2="48.90492" y2="114.17686" stroke="#228B22" stroke-width="0.04000"/>
      <line x1="51.46423" y1="113.08732" x2="48.76519" y2="114.12338" stroke="#228B22" stroke-width="0.04000"/>
      <line x1="51.34435" y1="113.02622" x2="48.62379" y2="114.07055" stroke="#228B22" stroke-width="0.04000"/>
      <line x1="51.22097" y1="112.96647" x2="48.48238" y2="114.01771" stroke="#228B22" stroke-width="0.04000"/>
      <line x1="51.11006" y1="112.90193" x2="48.34098" y2="113.96487" stroke="#228B22" stroke-width="0.04000"/>
      <line x1="51.00157" y1="112.83646" x2="48.19085" y2="113.91539" stroke="#228B22" stroke-width="0.04000"/>
      <line x1="50.89309" y1="112.77099" x2="48.03418" y2="113.86842" stroke="#228B22" stroke-width="0.04000"/>
      <line x1="50.78459" y1="112.70552" x2="47.87750" y2="113.82144" stroke="#228B22" stroke-width="0.04000"/>
      <line x1="50.67564" y1="112.64023" x2="47.75407" y2="113.76171" stroke="#228B22" stroke-width="0.04000"/>
      <line x1="50.55080" y1="112.58103" x2="47.63199" y2="113.70146" stroke="#228B22" stroke-width="0.04000"/>
      <line x1="50.42597" y1="112.52184" x2="47.50991" y2="113.64121" stroke="#228B22" stroke-width="0.04000"/>
      <line x1="50.30113" y1="112.46265" x2="47.38782" y2="113.58096" stroke="#228B22" stroke-width="0.04000"/>
      <line x1="50.17630" y1="112.40345" x2="47.26231" y2="113.52203" stroke="#228B22" stroke-width="0.04000"/>
      <line x1="50.05146" y1="112.34425" x2="47.12837" y2="113.46632" stroke="#228B22" stroke-width="0.04000"/>
      <line x1="49.94393" y1="112.27842" x2="46.99443" y2="113.41062" stroke="#228B22" stroke-width="0.04000"/>
      <line x1="49.84498" y1="112.20929" x2="46.86049" y2="113.35492" stroke="#228B22" stroke-width="0.04000"/>
      <line x1="49.73119" y1="112.14585" x2="46.72655" y2="113.29922" stroke="#228B22" stroke-width="0.04000"/>
      <line x1="49.61740" y1="112.08242" x2="46.59905" y2="113.24106" stroke="#228B22" stroke-width="0.04000"/>
      <line x1="49.50561" y1="112.01822" x2="46.48808" y2="113.17654" stroke="#228B22" stroke-width="0.04000"/>
      <line x1="49.40101" y1="111.95125" x2="46.37711" y2="113.11202" stroke="#228B22" stroke-width="0.04000"/>
      <line x1="49.29642" y1="111.88428" x2="46.26397" y2="113.04833" stroke="#228B22" stroke-width="0.04000"/>
      <line x1="49.19183" y1="111.81732" x2="46.14812" y2="112.98569" stroke="#228B22" stroke-width="0.04000"/>
      <line x1="49.08529" y1="111.75111" x2="46.03227" y2="112.92305" stroke="#228B22" stroke-width="0.04000"/>
      <line x1="48.96095" y1="111.69172" x2="45.91642" y2="112.86040" stroke="#228B22" stroke-width="0.04000"/>
      <line x1="48.83662" y1="111.63233" x2="45.80057" y2="112.79776" stroke="#228B22" stroke-width="0.04000"/>
      <line x1="48.72628" y1="111.56757" x2="45.68472" y2="112.73512" stroke="#228B22" stroke-width="0.04000"/>
      <line x1="48.62803" y1="111.49818" x2="45.57698" y2="112.66936" stroke="#228B22" stroke-width="0.04000"/>
      <line x1="48.52977" y1="111.42877" x2="45.47252" y2="112.60234" stroke="#228B22" stroke-width="0.04000"/>
      <line x1="48.43151" y1="111.35938" x2="45.36806" y2="112.53532" stroke="#228B22" stroke-width="0.04000"/>
      <line x1="48.33282" y1="111.29015" x2="45.26360" y2="112.46832" stroke="#228B22" stroke-width="0.04000"/>
      <line x1="48.22852" y1="111.22308" x2="45.15914" y2="112.40130" stroke="#228B22" stroke-width="0.04000"/>
      <line x1="48.12421" y1="111.15599" x2="45.05279" y2="112.33500" stroke="#228B22" stroke-width="0.04000"/>
      <line x1="48.01991" y1="111.08892" x2="44.94474" y2="112.26936" stroke="#228B22" stroke-width="0.04000"/>
      <line x1="47.91561" y1="111.02184" x2="44.83934" y2="112.20271" stroke="#228B22" stroke-width="0.04000"/>
      <line x1="47.81131" y1="110.95477" x2="44.74051" y2="112.13354" stroke="#228B22" stroke-width="0.04000"/>
      <line x1="47.70701" y1="110.88769" x2="44.64358" y2="112.06363" stroke="#228B22" stroke-width="0.04000"/>
      <line x1="47.60577" y1="110.81944" x2="44.55537" y2="111.99037" stroke="#228B22" stroke-width="0.04000"/>
      <line x1="47.51972" y1="110.74535" x2="44.46717" y2="111.91711" stroke="#228B22" stroke-width="0.04000"/>
      <line x1="47.43810" y1="110.66957" x2="44.37897" y2="111.84386" stroke="#228B22" stroke-width="0.04000"/>
      <line x1="47.35647" y1="110.59379" x2="44.29077" y2="111.77060" stroke="#228B22" stroke-width="0.04000"/>
      <line x1="47.27484" y1="110.51801" x2="44.20257" y2="111.69734" stroke="#228B22" stroke-width="0.04000"/>
      <line x1="47.19322" y1="110.44223" x2="44.11407" y2="111.62420" stroke="#228B22" stroke-width="0.04000"/>
      <line x1="47.11159" y1="110.36645" x2="44.02447" y2="111.55148" stroke="#228B22" stroke-width="0.04000"/>
      <line x1="47.02996" y1="110.29066" x2="43.93486" y2="111.47876" stroke="#228B22" stroke-width="0.04000"/>
      <line x1="46.94591" y1="110.21581" x2="43.84525" y2="111.40604" stroke="#228B22" stroke-width="0.04000"/>
      <line x1="46.86106" y1="110.14127" x2="43.75565" y2="111.33333" stroke="#228B22" stroke-width="0.04000"/>
      <line x1="46.77621" y1="110.06673" x2="43.66604" y2="111.26061" stroke="#228B22" stroke-width="0.04000"/>
      <line x1="46.69136" y1="109.99218" x2="43.57643" y2="111.18789" stroke="#228B22" stroke-width="0.04000"/>
      <line x1="46.60652" y1="109.91764" x2="43.48683" y2="111.11517" stroke="#228B22" stroke-width="0.04000"/>
      <line x1="46.52962" y1="109.84004" x2="43.40667" y2="111.03883" stroke="#228B22" stroke-width="0.04000"/>
      <line x1="46.46316" y1="109.75844" x2="43.33346" y2="110.95982" stroke="#228B22" stroke-width="0.04000"/>
      <line x1="46.39669" y1="109.67683" x2="43.26091" y2="110.88055" stroke="#228B22" stroke-width="0.04000"/>
      <line x1="46.33099" y1="109.59495" x2="43.18837" y2="110.80128" stroke="#228B22" stroke-width="0.04000"/>
      <line x1="46.26565" y1="109.51292" x2="43.11583" y2="110.72202" stroke="#228B22" stroke-width="0.04000"/>
      <line x1="46.20031" y1="109.43089" x2="43.04329" y2="110.64275" stroke="#228B22" stroke-width="0.04000"/>
      <line x1="46.13496" y1="109.34885" x2="42.97074" y2="110.56348" stroke="#228B22" stroke-width="0.04000"/>
      <line x1="46.06962" y1="109.26682" x2="42.89820" y2="110.48421" stroke="#228B22" stroke-width="0.04000"/>
      <line x1="46.00428" y1="109.18478" x2="42.82566" y2="110.40495" stroke="#228B22" stroke-width="0.04000"/>
      <line x1="45.93894" y1="109.10275" x2="42.75307" y2="110.32569" stroke="#228B22" stroke-width="0.04000"/>
      <line x1="45.87373" y1="109.02067" x2="42.67945" y2="110.24684" stroke="#228B22" stroke-width="0.04000"/>
      <line x1="45.80964" y1="108.93816" x2="42.60582" y2="110.16798" stroke="#228B22" stroke-width="0.04000"/>
      <line x1="45.74539" y1="108.85571" x2="42.53220" y2="110.08913" stroke="#228B22" stroke-width="0.04000"/>
      <line x1="45.67788" y1="108.77451" x2="42.45858" y2="110.01028" stroke="#228B22" stroke-width="0.04000"/>
      <line x1="45.61036" y1="108.69331" x2="42.40205" y2="109.92487" stroke="#228B22" stroke-width="0.04000"/>
      <line x1="45.54285" y1="108.61211" x2="42.35913" y2="109.83422" stroke="#228B22" stroke-width="0.04000"/>
      <line x1="45.47698" y1="108.53028" x2="42.31621" y2="109.74358" stroke="#228B22" stroke-width="0.04000"/>
      <line x1="45.41148" y1="108.44831" x2="42.27348" y2="109.65288" stroke="#228B22" stroke-width="0.04000"/>
      <line x1="45.34597" y1="108.36634" x2="42.23139" y2="109.56191" stroke="#228B22" stroke-width="0.04000"/>
      <line x1="45.28047" y1="108.28437" x2="42.18931" y2="109.47095" stroke="#228B22" stroke-width="0.04000"/>
      <line x1="45.21497" y1="108.20240" x2="42.14723" y2="109.37999" stroke="#228B22" stroke-width="0.04000"/>
      <line x1="45.14947" y1="108.12042" x2="42.10515" y2="109.28903" stroke="#228B22" stroke-width="0.04000"/>
      <line x1="45.07238" y1="108.04290" x2="42.06307" y2="109.19807" stroke="#228B22" stroke-width="0.04000"/>
      <line x1="44.99461" y1="107.96564" x2="42.02099" y2="109.10711" stroke="#228B22" stroke-width="0.04000"/>
      <line x1="44.91684" y1="107.88838" x2="42.01165" y2="109.00358" stroke="#228B22" stroke-width="0.04000"/>
      <line x1="44.82313" y1="107.81724" x2="42.02851" y2="108.88999" stroke="#228B22" stroke-width="0.04000"/>
      <line x1="44.68658" y1="107.76254" x2="42.04538" y2="108.77640" stroke="#228B22" stroke-width="0.04000"/>
      <line x1="44.55005" y1="107.70783" x2="42.06225" y2="108.66281" stroke="#228B22" stroke-width="0.04000"/>
      <line x1="44.41351" y1="107.65314" x2="42.07888" y2="108.54932" stroke="#228B22" stroke-width="0.04000"/>
      <line x1="44.26540" y1="107.60287" x2="42.09488" y2="108.43606" stroke="#228B22" stroke-width="0.04000"/>
      <line x1="44.11619" y1="107.55303" x2="42.11088" y2="108.32280" stroke="#228B22" stroke-width="0.04000"/>
      <line x1="43.96698" y1="107.50320" x2="42.15706" y2="108.19796" stroke="#228B22" stroke-width="0.04000"/>
      <line x1="43.81777" y1="107.45336" x2="42.33793" y2="108.02142" stroke="#228B22" stroke-width="0.04000"/>
      <line x1="43.66856" y1="107.40353" x2="42.50979" y2="107.84834" stroke="#228B22" stroke-width="0.04000"/>
      <line x1="42.95787" y1="107.56921" x2="42.68156" y2="107.67528" stroke="#228B22" stroke-width="0.04000"/>
    </g>
    <g class="thermal-hatch" data-segment="8" data-name="CoreNormalHatch">
      <line x1="32.72650" y1="117.94330" x2="33.17540" y2="118.42130" stroke="#228B22" stroke-width="0.04000"/>
      <line x1="33.17540" y1="118.42130" x2="33.31230" y2="118.59020" stroke="#228B22" stroke-width="0.04000"/>
      <line x1="33.31230" y1="118.59020" x2="33.59180" y2="119.26340" stroke="#228B22" stroke-width="0.04000"/>
      <line x1="33.59180" y1="119.26340" x2="33.90530" y2="119.94740" stroke="#228B22" stroke-width="0.04000"/>
      <line x1="33.90530" y1="119.94740" x2="33.99800" y2="120.26250" stroke="#228B22" stroke-width="0.04000"/>
      <line x1="33.99800" y1="120.26250" x2="34.04840" y2="120.45080" stroke="#228B22" stroke-width="0.04000"/>
      <line x1="34.04840" y1="120.45080" x2="34.40550" y2="121.41830" stroke="#228B22" stroke-width="0.04000"/>
      <line x1="34.40550" y1="121.41830" x2="34.44070" y2="121.54880" stroke="#228B22" stroke-width="0.04000"/>
      <line x1="34.44070" y1="121.54880" x2="34.55630" y2="121.85910" stroke="#228B22" stroke-width="0.04000"/>
      <line x1="34.55630" y1="121.85910" x2="34.84430" y2="122.62690" stroke="#228B22" stroke-width="0.04000"/>
      <line x1="34.84430" y1="122.62690" x2="34.95740" y2="122.88310" stroke="#228B22" stroke-width="0.04000"/>
      <line x1="34.95740" y1="122.88310" x2="35.10450" y2="123.49270" stroke="#228B22" stroke-width="0.04000"/>
      <line x1="35.10450" y1="123.49270" x2="35.35270" y2="124.31060" stroke="#228B22" stroke-width="0.04000"/>
      <line x1="35.35270" y1="124.31060" x2="35.38460" y2="124.52430" stroke="#228B22" stroke-width="0.04000"/>
      <line x1="35.38460" y1="124.52430" x2="35.47930" y2="124.88580" stroke="#228B22" stroke-width="0.04000"/>
      <line x1="35.47930" y1="124.88580" x2="35.64230" y2="125.53690" stroke="#228B22" stroke-width="0.04000"/>
      <line x1="35.64230" y1="125.53690" x2="35.73660" y2="125.94550" stroke="#228B22" stroke-width="0.04000"/>
      <line x1="35.73660" y1="125.94550" x2="35.79310" y2="126.54820" stroke="#228B22" stroke-width="0.04000"/>
      <line x1="35.79310" y1="126.54820" x2="35.81650" y2="127.28430" stroke="#228B22" stroke-width="0.04000"/>
      <line x1="35.81650" y1="127.28430" x2="35.82270" y2="127.43330" stroke="#228B22" stroke-width="0.04000"/>
      <line x1="35.82270" y1="127.43330" x2="35.76020" y2="127.44440" stroke="#228B22" stroke-width="0.04000"/>
      <line x1="35.76020" y1="127.44440" x2="35.18770" y2="127.42700" stroke="#228B22" stroke-width="0.04000"/>
      <line x1="35.18770" y1="127.42700" x2="34.59550" y2="126.83490" stroke="#228B22" stroke-width="0.04000"/>
      <line x1="34.59550" y1="126.83490" x2="34.12880" y2="125.95320" stroke="#228B22" stroke-width="0.04000"/>
      <line x1="34.12880" y1="125.95320" x2="33.78410" y2="125.35750" stroke="#228B22" stroke-width="0.04000"/>
      <line x1="33.78410" y1="125.35750" x2="33.62280" y2="125.04770" stroke="#228B22" stroke-width="0.04000"/>
      <line x1="33.62280" y1="125.04770" x2="33.41510" y2="124.67550" stroke="#228B22" stroke-width="0.04000"/>
      <line x1="33.41510" y1="124.67550" x2="32.98910" y2="124.07170" stroke="#228B22" stroke-width="0.04000"/>
      <line x1="32.98910" y1="124.07170" x2="32.98920" y2="124.07170" stroke="#228B22" stroke-width="0.04000"/>
      <line x1="32.98920" y1="124.07170" x2="32.51130" y2="123.37640" stroke="#228B22" stroke-width="0.04000"/>
      <line x1="32.51130" y1="123.37640" x2="32.44930" y2="123.27820" stroke="#228B22" stroke-width="0.04000"/>
      <line x1="32.44930" y1="123.27820" x2="32.36550" y2="123.16050" stroke="#228B22" stroke-width="0.04000"/>
      <line x1="32.36550" y1="123.16050" x2="31.77560" y2="122.49860" stroke="#228B22" stroke-width="0.04000"/>
      <line x1="31.77560" y1="122.49860" x2="31.23420" y2="121.97380" stroke="#228B22" stroke-width="0.04000"/>
      <line x1="31.23420" y1="121.97380" x2="31.07850" y2="121.81170" stroke="#228B22" stroke-width="0.04000"/>
      <line x1="31.07850" y1="121.81170" x2="30.95940" y2="121.67500" stroke="#228B22" stroke-width="0.04000"/>
      <line x1="30.95940" y1="121.67500" x2="30.76470" y2="121.10160" stroke="#228B22" stroke-width="0.04000"/>
      <line x1="30.76470" y1="121.10160" x2="30.89280" y2="120.44700" stroke="#228B22" stroke-width="0.04000"/>
      <line x1="30.89280" y1="120.44700" x2="30.89370" y2="120.01800" stroke="#228B22" stroke-width="0.04000"/>
      <line x1="30.89370" y1="120.01800" x2="30.94650" y2="119.79280" stroke="#228B22" stroke-width="0.04000"/>
      <line x1="30.94650" y1="119.79280" x2="31.39240" y2="119.07010" stroke="#228B22" stroke-width="0.04000"/>
      <line x1="31.39240" y1="119.07010" x2="31.54370" y2="118.74050" stroke="#228B22" stroke-width="0.04000"/>
      <line x1="31.54370" y1="118.74050" x2="32.06190" y2="118.13060" stroke="#228B22" stroke-width="0.04000"/>
      <line x1="32.06190" y1="118.13060" x2="32.17530" y2="117.97880" stroke="#228B22" stroke-width="0.04000"/>
      <line x1="32.17530" y1="117.97880" x2="32.44210" y2="117.93200" stroke="#228B22" stroke-width="0.04000"/>
      <line x1="32.44210" y1="117.93200" x2="32.72650" y2="117.94330" stroke="#228B22" stroke-width="0.04000"/>
      <line x1="44.30190" y1="107.92060" x2="44.69760" y2="108.07920" stroke="#228B22" stroke-width="0.04000"/>
      <line x1="44.69760" y1="108.07920" x2="44.92930" y2="108.30960" stroke="#228B22" stroke-width="0.04000"/>
      <line x1="44.92930" y1="108.30960" x2="45.30560" y2="108.78040" stroke="#228B22" stroke-width="0.04000"/>
      <line x1="45.30560" y1="108.78040" x2="45.52120" y2="109.03970" stroke="#228B22" stroke-width="0.04000"/>
      <line x1="45.52120" y1="109.03970" x2="45.65270" y2="109.20890" stroke="#228B22" stroke-width="0.04000"/>
      <line x1="45.65270" y1="109.20890" x2="46.14930" y2="109.83240" stroke="#228B22" stroke-width="0.04000"/>
      <line x1="46.14930" y1="109.83240" x2="46.34880" y2="110.07720" stroke="#228B22" stroke-width="0.04000"/>
      <line x1="46.34880" y1="110.07720" x2="46.81460" y2="110.48630" stroke="#228B22" stroke-width="0.04000"/>
      <line x1="46.81460" y1="110.48630" x2="47.41970" y2="111.04830" stroke="#228B22" stroke-width="0.04000"/>
      <line x1="47.41970" y1="111.04830" x2="47.46920" y2="111.07530" stroke="#228B22" stroke-width="0.04000"/>
      <line x1="47.46920" y1="111.07530" x2="47.51710" y2="111.11040" stroke="#228B22" stroke-width="0.04000"/>
      <line x1="47.51710" y1="111.11040" x2="48.17790" y2="111.53520" stroke="#228B22" stroke-width="0.04000"/>
      <line x1="48.17790" y1="111.53520" x2="48.63170" y2="111.85590" stroke="#228B22" stroke-width="0.04000"/>
      <line x1="48.63170" y1="111.85590" x2="48.95620" y2="112.01080" stroke="#228B22" stroke-width="0.04000"/>
      <line x1="48.95620" y1="112.01080" x2="49.37940" y2="112.28180" stroke="#228B22" stroke-width="0.04000"/>
      <line x1="49.37940" y1="112.28180" x2="49.69340" y2="112.45660" stroke="#228B22" stroke-width="0.04000"/>
      <line x1="49.69340" y1="112.45660" x2="49.86260" y2="112.57560" stroke="#228B22" stroke-width="0.04000"/>
      <line x1="49.86260" y1="112.57560" x2="50.54160" y2="112.89770" stroke="#228B22" stroke-width="0.04000"/>
      <line x1="50.54160" y1="112.89770" x2="51.06260" y2="113.21200" stroke="#228B22" stroke-width="0.04000"/>
      <line x1="51.06260" y1="113.21200" x2="51.30300" y2="113.32830" stroke="#228B22" stroke-width="0.04000"/>
      <line x1="51.30300" y1="113.32830" x2="51.95210" y2="113.75450" stroke="#228B22" stroke-width="0.04000"/>
      <line x1="51.95210" y1="113.75450" x2="52.11520" y2="113.85230" stroke="#228B22" stroke-width="0.04000"/>
      <line x1="52.11520" y1="113.85230" x2="52.15240" y2="113.88350" stroke="#228B22" stroke-width="0.04000"/>
      <line x1="52.15240" y1="113.88350" x2="52.79020" y2="114.47180" stroke="#228B22" stroke-width="0.04000"/>
      <line x1="52.79020" y1="114.47180" x2="53.02600" y2="114.86830" stroke="#228B22" stroke-width="0.04000"/>
      <line x1="53.02600" y1="114.86830" x2="53.02340" y2="115.02540" stroke="#228B22" stroke-width="0.04000"/>
      <line x1="53.02340" y1="115.02540" x2="52.30910" y2="115.38140" stroke="#228B22" stroke-width="0.04000"/>
      <line x1="52.30910" y1="115.38140" x2="52.24100" y2="115.35980" stroke="#228B22" stroke-width="0.04000"/>
      <line x1="52.24100" y1="115.35980" x2="51.46000" y2="114.95070" stroke="#228B22" stroke-width="0.04000"/>
      <line x1="51.46000" y1="114.95070" x2="51.21970" y2="114.84310" stroke="#228B22" stroke-width="0.04000"/>
      <line x1="51.21970" y1="114.84310" x2="51.21960" y2="114.84310" stroke="#228B22" stroke-width="0.04000"/>
      <line x1="51.21960" y1="114.84310" x2="50.18780" y2="114.35430" stroke="#228B22" stroke-width="0.04000"/>
      <line x1="50.18780" y1="114.35430" x2="50.15500" y2="114.34150" stroke="#228B22" stroke-width="0.04000"/>
      <line x1="50.15500" y1="114.34150" x2="50.08150" y2="114.31710" stroke="#228B22" stroke-width="0.04000"/>
      <line x1="50.08150" y1="114.31710" x2="49.29090" y2="114.02280" stroke="#228B22" stroke-width="0.04000"/>
      <line x1="49.29090" y1="114.02280" x2="48.98030" y2="113.89400" stroke="#228B22" stroke-width="0.04000"/>
      <line x1="48.98030" y1="113.89400" x2="48.37290" y2="113.66720" stroke="#228B22" stroke-width="0.04000"/>
      <line x1="48.37290" y1="113.66720" x2="47.97790" y2="113.54870" stroke="#228B22" stroke-width="0.04000"/>
      <line x1="47.97790" y1="113.54870" x2="47.42100" y2="113.27390" stroke="#228B22" stroke-width="0.04000"/>
      <line x1="47.42100" y1="113.27390" x2="46.75940" y2="112.99880" stroke="#228B22" stroke-width="0.04000"/>
      <line x1="46.75940" y1="112.99880" x2="46.45720" y2="112.82320" stroke="#228B22" stroke-width="0.04000"/>
      <line x1="46.45720" y1="112.82320" x2="45.79850" y2="112.46680" stroke="#228B22" stroke-width="0.04000"/>
      <line x1="45.79850" y1="112.46680" x2="45.26310" y2="112.12350" stroke="#228B22" stroke-width="0.04000"/>
      <line x1="45.26310" y1="112.12350" x2="45.02560" y2="111.97920" stroke="#228B22" stroke-width="0.04000"/>
      <line x1="45.02560" y1="111.97920" x2="44.83570" y2="111.84630" stroke="#228B22" stroke-width="0.04000"/>
      <line x1="44.83570" y1="111.84630" x2="44.31710" y2="111.41530" stroke="#228B22" stroke-width="0.04000"/>
      <line x1="44.31710" y1="111.41530" x2="43.64950" y2="110.87360" stroke="#228B22" stroke-width="0.04000"/>
      <line x1="43.64950" y1="110.87360" x2="43.62520" y2="110.84810" stroke="#228B22" stroke-width="0.04000"/>
      <line x1="43.62520" y1="110.84810" x2="43.59210" y2="110.81300" stroke="#228B22" stroke-width="0.04000"/>
      <line x1="43.59210" y1="110.81300" x2="43.59220" y2="110.81300" stroke="#228B22" stroke-width="0.04000"/>
      <line x1="43.59220" y1="110.81300" x2="42.96880" y2="110.13180" stroke="#228B22" stroke-width="0.04000"/>
      <line x1="42.96880" y1="110.13180" x2="42.66880" y2="109.81060" stroke="#228B22" stroke-width="0.04000"/>
      <line x1="42.66880" y1="109.81060" x2="42.54490" y2="109.54870" stroke="#228B22" stroke-width="0.04000"/>
      <line x1="42.54490" y1="109.54870" x2="42.30180" y2="109.02320" stroke="#228B22" stroke-width="0.04000"/>
      <line x1="42.30180" y1="109.02320" x2="42.36160" y2="108.62180" stroke="#228B22" stroke-width="0.04000"/>
      <line x1="42.36160" y1="108.62180" x2="42.39720" y2="108.36870" stroke="#228B22" stroke-width="0.04000"/>
      <line x1="42.39720" y1="108.36870" x2="42.54420" y2="108.22530" stroke="#228B22" stroke-width="0.04000"/>
      <line x1="42.54420" y1="108.22530" x2="42.88720" y2="107.87960" stroke="#228B22" stroke-width="0.04000"/>
      <line x1="42.88720" y1="107.87960" x2="43.39680" y2="107.77550" stroke="#228B22" stroke-width="0.04000"/>
      <line x1="43.39680" y1="107.77550" x2="43.65830" y2="107.70570" stroke="#228B22" stroke-width="0.04000"/>
      <line x1="43.65830" y1="107.70570" x2="44.30190" y2="107.92060" stroke="#228B22" stroke-width="0.04000"/>
    </g>
    <g class="thermal-contour" data-segment="1" data-name="CoreContour_Volume">
    <path d="M 32.8569 117.658 L 33.3942 118.231 L 33.5642 118.44 L 33.8577 119.147 L 34.1774 119.845 L 34.2781 120.187 L 34.3251 120.363 L 34.6826 121.332 L 34.7172 121.46 L 34.828 121.758 L 35.1129 122.517 L 35.2333 122.79 L 35.3844 123.417 L 35.6365 124.247 L 35.6691 124.466 L 35.7617 124.82 L 35.9236 125.466 L 36.0239 125.9 L 36.0831 126.531 L 36.1062 127.274 L 36.1234 127.675 L 35.7813 127.735 L 35.0645 127.714 L 34.3805 127.03 L 34.3624 127.013 L 34.3547 127 L 33.8751 126.094 L 33.5311 125.499 L 33.3676 125.185 L 33.1692 124.83 L 32.7516 124.238 L 32.2671 123.533 L 32.2083 123.44 L 32.1384 123.342 L 31.5662 122.699 L 31.0281 122.178 L 30.8638 122.007 L 30.7034 121.823 L 30.4655 121.122 L 30.6028 120.419 L 30.604 119.984 L 30.6749 119.681 L 31.1363 118.933 L 31.2968 118.584 L 31.8351 117.95 L 32.012 117.713 L 32.4222 117.641 L 32.8569 117.658" fill="none" stroke="#000000" stroke-width="0.05000" fill-rule="evenodd" fill-opacity="1.000"/>
    </g>
    <g class="thermal-contour" data-segment="1" data-name="CoreContour_Volume">
    <path d="M 44.4016 107.648 L 44.8602 107.832 L 45.1458 108.116 L 45.5304 108.597 L 45.7487 108.86 L 45.8806 109.03 L 46.3752 109.65 L 46.5584 109.875 L 47.01 110.272 L 47.5905 110.811 L 47.6256 110.83 L 47.6815 110.871 L 48.3404 111.295 L 48.779 111.605 L 49.0976 111.757 L 49.5283 112.033 L 49.8472 112.211 L 50.0091 112.324 L 50.6792 112.642 L 51.2009 112.957 L 51.4466 113.076 L 52.1064 113.509 L 52.2846 113.616 L 52.3441 113.666 L 53.0181 114.287 L 53.3175 114.791 L 53.3107 115.206 L 52.3332 115.694 L 52.1294 115.629 L 51.3333 115.212 L 51.0978 115.106 L 50.0728 114.621 L 50.0564 114.614 L 49.9869 114.591 L 49.1827 114.292 L 48.8739 114.164 L 48.2804 113.942 L 47.8714 113.82 L 47.301 113.538 L 46.6301 113.259 L 46.3154 113.076 L 45.6514 112.717 L 45.1094 112.369 L 44.8678 112.223 L 44.6593 112.077 L 44.133 111.64 L 43.4529 111.088 L 43.4214 111.054 L 43.3725 111.002 L 42.7559 110.329 L 42.426 109.975 L 42.2827 109.673 L 42.0023 109.067 L 42.0745 108.58 L 42.124 108.23 L 42.34 108.019 L 42.7433 107.613 L 43.3304 107.493 L 43.6676 107.403 L 44.4016 107.648" fill="none" stroke="#000000" stroke-width="0.05000" fill-rule="evenodd" fill-opacity="1.000"/>
    </g>
    <g class="thermal-contour" data-segment="1" data-name="CoreContour_Volume">
    <path d="M 32.7669 117.855 L 33.2434 118.362 L 33.3904 118.544 L 33.6743 119.227 L 33.9898 119.916 L 34.0843 120.237 L 34.1343 120.424 L 34.4914 121.391 L 34.5265 121.521 L 34.6406 121.828 L 34.9277 122.593 L 35.0431 122.854 L 35.1914 123.469 L 35.4408 124.291 L 35.4729 124.506 L 35.5664 124.863 L 35.7296 125.515 L 35.8257 125.931 L 35.8831 126.543 L 35.9064 127.281 L 35.916 127.508 L 35.7665 127.535 L 35.1495 127.516 L 34.5224 126.889 L 34.0501 125.997 L 33.7055 125.401 L 33.5436 125.09 L 33.3388 124.724 L 32.915 124.123 L 32.4363 123.426 L 32.3745 123.328 L 32.295 123.217 L 31.7106 122.561 L 31.1703 122.037 L 31.0114 121.872 L 30.88 121.721 L 30.6719 121.108 L 30.8028 120.438 L 30.8038 120.008 L 30.8623 119.758 L 31.3129 119.027 L 31.4671 118.692 L 31.9915 118.075 L 32.1246 117.896 L 32.4358 117.842 L 32.7669 117.855" fill="none" stroke="#000000" stroke-width="0.05000" fill-rule="evenodd" fill-opacity="1.000"/>
    <path d="M 32.1753 117.979 L 32.0619 118.131 L 31.5437 118.741 L 31.3924 119.07 L 30.9465 119.793 L 30.8937 120.018 L 30.8928 120.447 L 30.7647 121.102 L 30.9594 121.675 L 31.0785 121.812 L 31.2342 121.974 L 31.7756 122.499 L 32.3655 123.16 L 32.4493 123.278 L 32.5113 123.376 L 32.9892 124.072 L 32.9891 124.072 L 33.4151 124.675 L 33.6228 125.048 L 33.7841 125.357 L 34.1288 125.953 L 34.5955 126.835 L 35.1877 127.427 L 35.7602 127.444 L 35.8227 127.433 L 35.8165 127.284 L 35.7931 126.548 L 35.7366 125.946 L 35.6423 125.537 L 35.4793 124.886 L 35.3846 124.524 L 35.3527 124.311 L 35.1045 123.493 L 34.9574 122.883 L 34.8443 122.627 L 34.5563 121.859 L 34.4407 121.549 L 34.4055 121.418 L 34.0484 120.451 L 33.998 120.262 L 33.9053 119.947 L 33.5918 119.263 L 33.3123 118.59 L 33.1754 118.421 L 32.7265 117.943 L 32.4421 117.932 L 32.1753 117.979" fill="none" stroke="#000000" stroke-width="0.05000" fill-rule="evenodd" fill-opacity="1.000"/>
    <path d="M 44.332 107.836 L 44.748 108.003 L 44.9968 108.25 L 45.3754 108.724 L 45.5923 108.984 L 45.7234 109.153 L 46.2194 109.776 L 46.4138 110.015 L 46.874 110.419 L 47.4727 110.975 L 47.5181 110.999 L 47.5681 111.036 L 48.2276 111.46 L 48.6774 111.778 L 49 111.932 L 49.4256 112.204 L 49.741 112.38 L 49.9081 112.498 L 50.5846 112.818 L 51.1055 113.133 L 51.3474 113.25 L 52 113.678 L 52.1675 113.779 L 52.2123 113.816 L 52.861 114.415 L 53.1165 114.844 L 53.1126 115.082 L 52.3166 115.478 L 52.2065 115.443 L 51.4207 115.032 L 51.1829 114.925 L 50.1521 114.437 L 50.1244 114.426 L 50.0531 114.402 L 49.2575 114.106 L 48.9473 113.978 L 48.3442 113.753 L 47.945 113.633 L 47.3838 113.356 L 46.7197 113.08 L 46.4132 112.902 L 45.7526 112.544 L 45.2154 112.2 L 44.9765 112.055 L 44.7811 111.918 L 44.26 111.485 L 43.5886 110.94 L 43.5662 110.917 L 43.5661 110.917 L 43.5258 110.874 L 42.9027 110.193 L 42.5934 109.862 L 42.4635 109.587 L 42.2089 109.037 L 42.2725 108.609 L 42.3124 108.326 L 42.4808 108.161 L 42.8425 107.797 L 43.3762 107.688 L 43.6612 107.612 L 44.332 107.836" fill="none" stroke="#000000" stroke-width="0.05000" fill-rule="evenodd" fill-opacity="1.000"/>
    <path d="M 43.3968 107.775 L 42.8872 107.88 L 42.5442 108.225 L 42.3972 108.369 L 42.3616 108.622 L 42.3018 109.023 L 42.5449 109.549 L 42.6688 109.811 L 42.9688 110.132 L 43.5922 110.813 L 43.5921 110.813 L 43.6252 110.848 L 43.6495 110.874 L 44.3171 111.415 L 44.8357 111.846 L 45.0256 111.979 L 45.2631 112.123 L 45.7985 112.467 L 46.4572 112.823 L 46.7594 112.999 L 47.421 113.274 L 47.9779 113.549 L 48.3729 113.667 L 48.9803 113.894 L 49.2909 114.023 L 50.0815 114.317 L 50.155 114.341 L 50.1878 114.354 L 51.2196 114.843 L 51.2197 114.843 L 51.46 114.951 L 52.241 115.36 L 52.3091 115.381 L 53.0234 115.025 L 53.026 114.868 L 52.7902 114.472 L 52.1524 113.883 L 52.1152 113.852 L 51.9521 113.755 L 51.303 113.328 L 51.0626 113.212 L 50.5416 112.898 L 49.8626 112.576 L 49.6934 112.457 L 49.3794 112.282 L 48.9562 112.011 L 48.6317 111.856 L 48.1779 111.535 L 47.5171 111.11 L 47.4692 111.075 L 47.4197 111.048 L 46.8146 110.486 L 46.3488 110.077 L 46.1493 109.832 L 45.6527 109.209 L 45.5212 109.04 L 45.3056 108.78 L 44.9293 108.31 L 44.6976 108.079 L 44.3019 107.921 L 43.6583 107.706 L 43.3968 107.775" fill="none" stroke="#000000" stroke-width="0.05000" fill-rule="evenodd" fill-opacity="1.000"/>
    </g>
    <g class="thermal-contour" data-segment="3" data-name="HollowShell1Contour_Volume">
    <path d="M 32.8569 117.659 L 33.3942 118.231 L 33.5642 118.44 L 33.8577 119.147 L 34.1774 119.845 L 34.2781 120.187 L 34.3251 120.363 L 34.6826 121.331 L 34.7172 121.46 L 34.828 121.758 L 35.1129 122.517 L 35.2333 122.79 L 35.3844 123.416 L 35.6365 124.247 L 35.6691 124.466 L 35.7617 124.82 L 35.9236 125.466 L 36.0239 125.9 L 36.0831 126.531 L 36.1062 127.274 L 36.1114 127.397 L 36.1201 127.675 L 35.9892 127.698 L 35.0385 127.67 L 34.5243 127.156 L 34.3554 126.975 L 34.1288 126.505 L 33.884 126.043 L 33.7153 125.751 L 33.3991 125.144 L 33.0153 124.457 L 32.8337 124.199 L 32.623 123.893 L 32.4846 123.673 L 32.8333 124.18 L 33.254 124.777 L 33.4556 125.138 L 33.6183 125.45 L 33.9626 126.045 L 34.4416 126.95 L 34.4502 126.958 L 35.107 127.615 L 35.7739 127.635 L 36.0197 127.591 L 36.0063 127.277 L 35.9831 126.537 L 35.9248 125.916 L 35.8266 125.491 L 35.6647 124.844 L 35.6647 124.844 L 35.571 124.486 L 35.5387 124.269 L 35.2879 123.443 L 35.1382 122.822 L 35.0203 122.555 L 34.7343 121.793 L 34.6218 121.491 L 34.587 121.361 L 34.2297 120.393 L 34.1815 120.213 L 34.1815 120.213 L 34.0836 119.88 L 33.766 119.187 L 33.4773 118.492 L 33.3188 118.297 L 32.8119 117.757 L 32.429 117.742 L 32.0683 117.805 L 31.9133 118.012 L 31.382 118.638 L 31.2246 118.98 L 30.7686 119.719 L 30.7039 119.996 L 30.7028 120.428 L 30.5687 121.115 L 30.7168 121.551 L 30.5514 121.361 L 30.4672 121.113 L 30.6028 120.419 L 30.604 119.984 L 30.6749 119.681 L 31.1363 118.933 L 31.2968 118.584 L 31.8351 117.95 L 32.012 117.713 L 32.4222 117.641 L 32.8569 117.659" fill="none" stroke="#0000CC" stroke-width="0.05000" fill-rule="evenodd" fill-opacity="1.000"/>
    <path d="M 53.2017 115.214 L 52.4817 115.573 L 52.402 115.548 L 53.2027 115.148 L 53.2017 115.214" fill="none" stroke="#0000CC" stroke-width="0.05000" fill-rule="evenodd" fill-opacity="1.000"/>
    <path d="M 44.4016 107.648 L 44.7538 107.789 L 45.1142 108.147 L 45.706 108.888 L 45.7239 108.91 L 45.7369 108.923 L 46.3625 109.707 L 46.3955 109.736 L 46.9999 110.267 L 47.398 110.637 L 47.4089 110.643 L 47.5905 110.811 L 47.6256 110.83 L 47.6815 110.871 L 48.3404 111.295 L 48.779 111.605 L 49.0976 111.757 L 49.5283 112.033 L 49.8472 112.211 L 50.0091 112.324 L 50.6792 112.642 L 51.2009 112.957 L 51.4466 113.076 L 52.1064 113.509 L 52.2846 113.616 L 52.3441 113.666 L 53.0181 114.287 L 53.2115 114.613 L 53.2083 114.803 L 52.9394 114.351 L 52.2782 113.741 L 52.2262 113.697 L 52.0532 113.594 L 51.397 113.163 L 51.1532 113.045 L 50.6319 112.73 L 49.9586 112.411 L 49.7938 112.295 L 49.4769 112.119 L 49.0488 111.844 L 48.7282 111.691 L 48.284 111.378 L 47.6248 110.954 L 47.5719 110.915 L 47.5316 110.893 L 46.942 110.345 L 46.4861 109.945 L 46.2973 109.713 L 45.802 109.091 L 45.6705 108.922 L 45.4529 108.66 L 45.0713 108.183 L 44.8041 107.917 L 44.3668 107.742 L 43.6644 107.507 L 43.3533 107.59 L 42.7929 107.705 L 42.4104 108.09 L 42.2182 108.278 L 42.1735 108.595 L 42.1056 109.052 L 42.3731 109.63 L 42.5097 109.919 L 42.8293 110.261 L 43.4463 110.935 L 43.4462 110.935 L 43.4938 110.986 L 43.5208 111.014 L 44.1965 111.562 L 44.7202 111.997 L 44.9216 112.138 L 45.1624 112.285 L 45.702 112.631 L 46.3643 112.989 L 46.6746 113.169 L 47.3424 113.447 L 47.9083 113.726 L 48.3123 113.847 L 48.9106 114.071 L 49.2201 114.199 L 49.797 114.414 L 49.1945 114.214 L 49.1383 114.197 L 49.059 114.178 L 48.3041 113.896 L 47.672 113.707 L 47.3703 113.558 L 46.5754 113.227 L 46.3154 113.076 L 45.6514 112.717 L 45.1094 112.369 L 44.8678 112.223 L 44.6593 112.077 L 44.133 111.64 L 43.4529 111.088 L 43.4214 111.054 L 43.3725 111.003 L 42.7559 110.329 L 42.426 109.975 L 42.2827 109.673 L 42.0023 109.067 L 42.0745 108.58 L 42.124 108.23 L 42.34 108.019 L 42.7433 107.613 L 43.3304 107.493 L 43.6676 107.403 L 44.4016 107.648" fill="none" stroke="#0000CC" stroke-width="0.05000" fill-rule="evenodd" fill-opacity="1.000"/>
    </g>
    <g class="thermal-contour" data-segment="4" data-name="HollowShell1Contour_Overhang">
    <path d="M 30.5514 121.361 L 30.7168 121.551 L 30.7917 121.772 L 30.9376 121.939 L 31.0992 122.108 L 31.6384 122.63 L 32.2167 123.279 L 32.2914 123.384 L 32.3517 123.48 L 32.4846 123.673 L 32.623 123.893 L 32.8337 124.199 L 33.0153 124.457 L 33.3991 125.144 L 33.7153 125.751 L 33.884 126.043 L 34.1288 126.505 L 34.3554 126.975 L 34.5243 127.156 L 35.0385 127.67 L 35.9892 127.698 L 35.7813 127.735 L 35.0645 127.714 L 34.3805 127.03 L 34.3624 127.013 L 34.3547 127 L 33.8751 126.094 L 33.5311 125.499 L 33.3676 125.185 L 33.1692 124.83 L 32.7516 124.238 L 32.2671 123.533 L 32.2083 123.44 L 32.1384 123.341 L 31.5662 122.7 L 31.0281 122.178 L 30.8638 122.007 L 30.7034 121.823 L 30.4655 121.122 L 30.4672 121.113 L 30.5514 121.361" fill="none" stroke="#000080" stroke-width="0.05000" fill-rule="evenodd" fill-opacity="1.000"/>
    <path d="M 36.1234 127.675 L 36.1201 127.675 L 36.1114 127.397 L 36.1234 127.675" fill="none" stroke="#000080" stroke-width="0.05000" fill-rule="evenodd" fill-opacity="1.000"/>
    <path d="M 47.3703 113.558 L 47.672 113.707 L 48.3041 113.896 L 49.059 114.178 L 49.1383 114.197 L 49.1945 114.214 L 49.797 114.414 L 50.02 114.497 L 50.0904 114.52 L 50.1124 114.529 L 51.1403 115.016 L 51.377 115.122 L 52.168 115.536 L 52.3249 115.586 L 52.402 115.548 L 52.4817 115.573 L 53.2017 115.214 L 53.2027 115.148 L 53.2116 115.144 L 53.217 114.818 L 53.2083 114.803 L 53.2115 114.613 L 53.3175 114.791 L 53.3107 115.206 L 52.3332 115.694 L 52.1294 115.629 L 51.3333 115.212 L 51.0978 115.106 L 50.0728 114.621 L 50.0564 114.614 L 49.9869 114.591 L 49.1827 114.292 L 48.8739 114.164 L 48.2804 113.942 L 47.8714 113.82 L 47.301 113.538 L 46.6301 113.259 L 46.5754 113.227 L 47.3703 113.558" fill="none" stroke="#000080" stroke-width="0.05000" fill-rule="evenodd" fill-opacity="1.000"/>
    <path d="M 44.8602 107.832 L 45.1458 108.116 L 45.5304 108.597 L 45.7487 108.86 L 45.8806 109.03 L 46.3752 109.65 L 46.5584 109.875 L 47.01 110.272 L 47.4089 110.643 L 47.398 110.637 L 46.9999 110.267 L 46.3955 109.736 L 46.3625 109.707 L 45.7369 108.923 L 45.7239 108.91 L 45.706 108.888 L 45.1142 108.147 L 44.7538 107.789 L 44.8602 107.832" fill="none" stroke="#000080" stroke-width="0.05000" fill-rule="evenodd" fill-opacity="1.000"/>
    </g>
    <g class="thermal-contour" data-segment="5" data-name="HollowShell2Contour_Volume">
    <path d="M 32.8119 117.757 L 33.3188 118.297 L 33.4773 118.492 L 33.766 119.187 L 34.0836 119.88 L 34.1815 120.213 L 34.1815 120.213 L 34.2297 120.393 L 34.587 121.361 L 34.6218 121.491 L 34.7343 121.793 L 35.0203 122.555 L 35.1382 122.822 L 35.2879 123.443 L 35.5387 124.269 L 35.571 124.486 L 35.6647 124.844 L 35.6647 124.844 L 35.8266 125.491 L 35.9248 125.916 L 35.9831 126.537 L 36.0063 127.277 L 36.0197 127.591 L 35.7739 127.635 L 35.107 127.615 L 34.4502 126.958 L 34.4416 126.95 L 33.9626 126.045 L 33.6183 125.45 L 33.4556 125.138 L 33.254 124.777 L 32.8333 124.18 L 32.4846 123.673 L 32.2948 123.372 L 31.9041 122.823 L 31.6854 122.577 L 31.4798 122.378 L 31.01 121.888 L 30.7168 121.551 L 30.5687 121.115 L 30.7028 120.428 L 30.7039 119.996 L 30.7686 119.719 L 31.2246 118.98 L 31.382 118.638 L 31.9133 118.012 L 32.0683 117.805 L 32.429 117.742 L 32.8119 117.757" fill="none" stroke="#B8860B" stroke-width="0.05000" fill-rule="evenodd" fill-opacity="1.000"/>
    <path d="M 32.1246 117.896 L 31.9915 118.075 L 31.4671 118.692 L 31.3129 119.027 L 30.8623 119.758 L 30.8038 120.008 L 30.8028 120.438 L 30.6719 121.108 L 30.88 121.721 L 31.0114 121.872 L 31.1703 122.037 L 31.7106 122.561 L 32.295 123.217 L 32.3745 123.328 L 32.4363 123.426 L 32.915 124.123 L 33.3388 124.724 L 33.5436 125.09 L 33.7055 125.401 L 34.0501 125.997 L 34.5224 126.889 L 35.1495 127.516 L 35.7665 127.535 L 35.916 127.508 L 35.9064 127.281 L 35.8831 126.543 L 35.8257 125.931 L 35.7296 125.515 L 35.5664 124.863 L 35.4729 124.506 L 35.4408 124.291 L 35.1914 123.469 L 35.0431 122.854 L 34.9277 122.593 L 34.6406 121.828 L 34.5265 121.521 L 34.4914 121.391 L 34.1343 120.424 L 34.0843 120.237 L 33.9898 119.916 L 33.6743 119.227 L 33.3904 118.544 L 33.2434 118.362 L 32.7669 117.855 L 32.4358 117.842 L 32.1246 117.896" fill="none" stroke="#B8860B" stroke-width="0.05000" fill-rule="evenodd" fill-opacity="1.000"/>
    <path d="M 44.3668 107.742 L 44.8041 107.917 L 45.0713 108.183 L 45.4529 108.66 L 45.6705 108.922 L 45.802 109.091 L 46.2973 109.713 L 46.4861 109.945 L 46.942 110.345 L 47.5316 110.893 L 47.5719 110.915 L 47.6248 110.954 L 48.284 111.378 L 48.7282 111.691 L 49.0488 111.844 L 49.4769 112.119 L 49.7938 112.295 L 49.9586 112.411 L 50.6319 112.73 L 51.1532 113.045 L 51.397 113.163 L 52.0532 113.594 L 52.2262 113.697 L 52.2782 113.741 L 52.9394 114.351 L 53.2083 114.803 L 53.2027 115.148 L 52.402 115.548 L 52.0233 115.427 L 51.504 115.155 L 51.0274 114.941 L 50.3002 114.597 L 50.034 114.493 L 49.797 114.414 L 49.2201 114.199 L 48.9106 114.071 L 48.3123 113.847 L 47.9083 113.726 L 47.3424 113.447 L 46.6746 113.169 L 46.3643 112.989 L 45.702 112.631 L 45.1624 112.285 L 44.9216 112.138 L 44.7202 111.997 L 44.1965 111.562 L 43.5208 111.014 L 43.4938 110.986 L 43.4462 110.935 L 43.4463 110.935 L 42.8293 110.261 L 42.5097 109.919 L 42.3731 109.63 L 42.1056 109.052 L 42.1735 108.595 L 42.2182 108.278 L 42.4104 108.09 L 42.7929 107.705 L 43.3533 107.59 L 43.6644 107.507 L 44.3668 107.742" fill="none" stroke="#B8860B" stroke-width="0.05000" fill-rule="evenodd" fill-opacity="1.000"/>
    <path d="M 43.3762 107.688 L 42.8425 107.797 L 42.4808 108.161 L 42.3124 108.326 L 42.2725 108.609 L 42.2089 109.037 L 42.4635 109.587 L 42.5934 109.862 L 42.9027 110.193 L 43.5258 110.874 L 43.5661 110.917 L 43.5662 110.917 L 43.5886 110.94 L 44.26 111.485 L 44.7811 111.918 L 44.9765 112.055 L 45.2154 112.2 L 45.7526 112.544 L 46.4132 112.902 L 46.7197 113.08 L 47.3838 113.356 L 47.945 113.633 L 48.3442 113.753 L 48.9473 113.978 L 49.2575 114.106 L 50.0531 114.402 L 50.1244 114.426 L 50.1521 114.437 L 51.1829 114.925 L 51.4207 115.032 L 52.2065 115.443 L 52.3166 115.478 L 53.1126 115.082 L 53.1165 114.844 L 52.861 114.415 L 52.2123 113.816 L 52.1675 113.779 L 52 113.678 L 51.3474 113.25 L 51.1055 113.133 L 50.5846 112.818 L 49.9081 112.498 L 49.741 112.38 L 49.4256 112.204 L 49 111.932 L 48.6774 111.778 L 48.2276 111.46 L 47.5681 111.036 L 47.5181 110.999 L 47.4727 110.975 L 46.874 110.419 L 46.4138 110.015 L 46.2194 109.776 L 45.7234 109.153 L 45.5923 108.984 L 45.3754 108.724 L 44.9968 108.25 L 44.748 108.003 L 44.332 107.836 L 43.6612 107.612 L 43.3762 107.688" fill="none" stroke="#B8860B" stroke-width="0.05000" fill-rule="evenodd" fill-opacity="1.000"/>
    </g>
    <g class="thermal-contour" data-segment="6" data-name="HollowShell2Contour_Overhang">
    <path d="M 31.01 121.888 L 31.4798 122.378 L 31.6854 122.577 L 31.9041 122.823 L 32.2948 123.372 L 32.4846 123.673 L 32.3517 123.48 L 32.2914 123.384 L 32.2167 123.279 L 31.6384 122.63 L 31.0992 122.108 L 30.9376 121.939 L 30.7917 121.772 L 30.7168 121.551 L 31.01 121.888" fill="none" stroke="#006400" stroke-width="0.05000" fill-rule="evenodd" fill-opacity="1.000"/>
    <path d="M 50.034 114.493 L 50.3002 114.597 L 51.0274 114.941 L 51.504 115.155 L 52.0233 115.427 L 52.402 115.548 L 52.3249 115.586 L 52.168 115.536 L 51.377 115.122 L 51.1403 115.016 L 50.1124 114.529 L 50.0904 114.52 L 50.02 114.497 L 49.797 114.414 L 50.034 114.493" fill="none" stroke="#006400" stroke-width="0.05000" fill-rule="evenodd" fill-opacity="1.000"/>
    <path d="M 53.217 114.818 L 53.2116 115.144 L 53.2027 115.148 L 53.2083 114.803 L 53.217 114.818" fill="none" stroke="#006400" stroke-width="0.05000" fill-rule="evenodd" fill-opacity="1.000"/>
    </g>
    <g class="thermal-contour" data-segment="9" data-name="CoreContourHatch">
    <path d="M 32.7386 117.917 L 33.1958 118.404 L 33.3357 118.576 L 33.6167 119.253 L 33.9307 119.938 L 34.024 120.255 L 34.0743 120.443 L 34.4313 121.41 L 34.4665 121.541 L 34.5816 121.85 L 34.8694 122.617 L 34.9831 122.874 L 35.1303 123.485 L 35.3791 124.305 L 35.4111 124.519 L 35.5055 124.879 L 35.6686 125.531 L 35.7633 125.941 L 35.8201 126.547 L 35.8435 127.283 L 35.8507 127.456 L 35.7622 127.471 L 35.1762 127.454 L 34.5735 126.851 L 34.1054 125.967 L 33.7604 125.37 L 33.5992 125.061 L 33.5992 125.061 L 33.3922 124.69 L 32.937 124.045 L 32.9378 124.045 L 32.4888 123.391 L 32.4273 123.294 L 32.3444 123.177 L 31.7554 122.517 L 31.2151 121.993 L 31.0586 121.83 L 30.9355 121.689 L 30.7368 121.104 L 30.8658 120.444 L 30.8667 120.015 L 30.9212 119.782 L 31.3687 119.057 L 31.5207 118.726 L 32.0413 118.113 L 32.1601 117.954 L 32.4403 117.905 L 32.7386 117.917" fill="none" stroke="#800080" stroke-width="0.05000" fill-rule="evenodd" fill-opacity="1.000"/>
    <path d="M 32.1753 117.979 L 32.0619 118.131 L 31.5437 118.741 L 31.3924 119.07 L 30.9465 119.793 L 30.8937 120.018 L 30.8928 120.447 L 30.7647 121.102 L 30.9594 121.675 L 31.0785 121.812 L 31.2342 121.974 L 31.7756 122.499 L 32.3655 123.16 L 32.4493 123.278 L 32.5113 123.376 L 32.9892 124.072 L 32.9891 124.072 L 33.4151 124.675 L 33.6228 125.048 L 33.7841 125.357 L 34.1288 125.953 L 34.5955 126.835 L 35.1877 127.427 L 35.7602 127.444 L 35.8227 127.433 L 35.8165 127.284 L 35.7931 126.548 L 35.7366 125.946 L 35.6423 125.537 L 35.4793 124.886 L 35.3846 124.524 L 35.3527 124.311 L 35.1045 123.493 L 34.9574 122.883 L 34.8443 122.627 L 34.5563 121.859 L 34.4407 121.549 L 34.4055 121.418 L 34.0484 120.451 L 33.998 120.262 L 33.9053 119.947 L 33.5918 119.263 L 33.3123 118.59 L 33.1754 118.421 L 32.7265 117.943 L 32.4421 117.932 L 32.1753 117.979" fill="none" stroke="#800080" stroke-width="0.05000" fill-rule="evenodd" fill-opacity="1.000"/>
    <path d="M 44.3112 107.895 L 44.7127 108.056 L 44.9494 108.291 L 45.3264 108.763 L 45.5422 109.023 L 45.6738 109.192 L 46.1702 109.815 L 46.3683 110.058 L 46.8327 110.466 L 47.4357 111.026 L 47.4837 111.052 L 47.533 111.089 L 48.193 111.513 L 48.6451 111.832 L 48.9693 111.987 L 49.3932 112.259 L 49.7078 112.434 L 49.8761 112.552 L 50.5544 112.874 L 51.0749 113.188 L 51.3163 113.305 L 51.966 113.731 L 52.1309 113.83 L 52.1702 113.863 L 52.8114 114.455 L 53.0531 114.861 L 53.0501 115.042 L 52.3114 115.41 L 52.2306 115.385 L 51.4478 114.975 L 51.2141 114.87 L 51.2135 114.87 L 50.1773 114.379 L 50.1452 114.367 L 50.1452 114.367 L 50.0725 114.343 L 49.281 114.048 L 48.9709 113.919 L 48.9709 113.919 L 48.3651 113.693 L 47.968 113.574 L 47.41 113.299 L 46.7474 113.023 L 46.4436 112.846 L 46.4436 112.846 L 45.7848 112.49 L 45.2491 112.147 L 45.0108 112.002 L 44.8193 111.868 L 44.2998 111.436 L 44.2998 111.436 L 43.6311 110.894 L 43.6056 110.867 L 43.5295 110.786 L 43.5309 110.786 L 42.9489 110.15 L 42.9489 110.15 L 42.6462 109.826 L 42.5204 109.56 L 42.2739 109.027 L 42.3349 108.618 L 42.3717 108.356 L 42.5253 108.206 L 42.8738 107.855 L 43.3909 107.749 L 43.6592 107.677 L 44.3112 107.895" fill="none" stroke="#800080" stroke-width="0.05000" fill-rule="evenodd" fill-opacity="1.000"/>
    <path d="M 43.3968 107.775 L 42.8872 107.88 L 42.5442 108.225 L 42.3972 108.369 L 42.3616 108.622 L 42.3018 109.023 L 42.5449 109.549 L 42.6688 109.811 L 42.9688 110.132 L 43.5922 110.813 L 43.5921 110.813 L 43.6252 110.848 L 43.6495 110.874 L 44.3171 111.415 L 44.8357 111.846 L 45.0256 111.979 L 45.2631 112.123 L 45.7985 112.467 L 46.4572 112.823 L 46.7594 112.999 L 47.421 113.274 L 47.9779 113.549 L 48.3729 113.667 L 48.9803 113.894 L 49.2909 114.023 L 50.0815 114.317 L 50.155 114.341 L 50.1878 114.354 L 51.2196 114.843 L 51.2197 114.843 L 51.46 114.951 L 52.241 115.36 L 52.3091 115.381 L 53.0234 115.025 L 53.026 114.868 L 52.7902 114.472 L 52.1524 113.883 L 52.1152 113.852 L 51.9521 113.755 L 51.303 113.328 L 51.0626 113.212 L 50.5416 112.898 L 49.8626 112.576 L 49.6934 112.457 L 49.3794 112.282 L 48.9562 112.011 L 48.6317 111.856 L 48.1779 111.535 L 47.5171 111.11 L 47.4692 111.075 L 47.4197 111.048 L 46.8146 110.486 L 46.3488 110.077 L 46.1493 109.832 L 45.6527 109.209 L 45.5212 109.04 L 45.3056 108.78 L 44.9293 108.31 L 44.6976 108.079 L 44.3019 107.921 L 43.6583 107.706 L 43.3968 107.775" fill="none" stroke="#800080" stroke-width="0.05000" fill-rule="evenodd" fill-opacity="1.000"/>
    </g>
    <!-- ===== Thermal Segment Colour Legend ===== -->
    <g id="thermal-legend">
    <rect x="161.0000" y="5.0000" width="40.0000" height="72.0000"
          rx="1" ry="1"
          fill="#fafafa" stroke="#cccccc" stroke-width="0.15"/>
    <text x="181.0000" y="7.6000" font-family="sans-serif" font-size="2.2000" font-weight="bold" fill="#222222" text-anchor="middle">Thermal Segments</text>
    <line x1="161.5000" y1="8.7000" x2="200.5000" y2="8.7000" stroke="#bbbbbb" stroke-width="0.1"/>
    <rect x="161.8000" y="9.0000" width="3.5000" height="2.0000" fill="#000000" stroke="#333333" stroke-width="0.08" rx="0.3" ry="0.3"/>
    <text x="168.6000" y="10.9000" font-family="monospace" font-size="1.6000" fill="#444444" text-anchor="end"> 1</text>
    <text x="169.6000" y="10.9000" font-family="sans-serif" font-size="1.6000" fill="#111111">CoreContour_Volume</text>
    <rect x="161.8000" y="12.0000" width="3.5000" height="2.0000" fill="#8B0000" stroke="#333333" stroke-width="0.08" rx="0.3" ry="0.3"/>
    <text x="168.6000" y="13.9000" font-family="monospace" font-size="1.6000" fill="#444444" text-anchor="end"> 2</text>
    <text x="169.6000" y="13.9000" font-family="sans-serif" font-size="1.6000" fill="#111111">CoreContour_Overhang</text>
    <rect x="161.8000" y="15.0000" width="3.5000" height="2.0000" fill="#0000CC" stroke="#333333" stroke-width="0.08" rx="0.3" ry="0.3"/>
    <text x="168.6000" y="16.9000" font-family="monospace" font-size="1.6000" fill="#444444" text-anchor="end"> 3</text>
    <text x="169.6000" y="16.9000" font-family="sans-serif" font-size="1.6000" fill="#111111">Shell1Contour_Volume</text>
    <rect x="161.8000" y="18.0000" width="3.5000" height="2.0000" fill="#000080" stroke="#333333" stroke-width="0.08" rx="0.3" ry="0.3"/>
    <text x="168.6000" y="19.9000" font-family="monospace" font-size="1.6000" fill="#444444" text-anchor="end"> 4</text>
    <text x="169.6000" y="19.9000" font-family="sans-serif" font-size="1.6000" fill="#111111">Shell1Contour_Overhang</text>
    <rect x="161.8000" y="21.0000" width="3.5000" height="2.0000" fill="#B8860B" stroke="#333333" stroke-width="0.08" rx="0.3" ry="0.3"/>
    <text x="168.6000" y="22.9000" font-family="monospace" font-size="1.6000" fill="#444444" text-anchor="end"> 5</text>
    <text x="169.6000" y="22.9000" font-family="sans-serif" font-size="1.6000" fill="#111111">Shell2Contour_Volume</text>
    <rect x="161.8000" y="24.0000" width="3.5000" height="2.0000" fill="#006400" stroke="#333333" stroke-width="0.08" rx="0.3" ry="0.3"/>
    <text x="168.6000" y="25.9000" font-family="monospace" font-size="1.6000" fill="#444444" text-anchor="end"> 6</text>
    <text x="169.6000" y="25.9000" font-family="sans-serif" font-size="1.6000" fill="#111111">Shell2Contour_Overhang</text>
    <rect x="161.8000" y="27.0000" width="3.5000" height="2.0000" fill="#FF8C00" stroke="#333333" stroke-width="0.08" rx="0.3" ry="0.3"/>
    <text x="168.6000" y="28.9000" font-family="monospace" font-size="1.6000" fill="#444444" text-anchor="end"> 7</text>
    <text x="169.6000" y="28.9000" font-family="sans-serif" font-size="1.6000" fill="#111111">CoreOverhangHatch</text>
    <rect x="161.8000" y="30.0000" width="3.5000" height="2.0000" fill="#228B22" stroke="#333333" stroke-width="0.08" rx="0.3" ry="0.3"/>
    <text x="168.6000" y="31.9000" font-family="monospace" font-size="1.6000" fill="#444444" text-anchor="end"> 8</text>
    <text x="169.6000" y="31.9000" font-family="sans-serif" font-size="1.6000" fill="#111111">CoreNormalHatch</text>
    <rect x="161.8000" y="33.0000" width="3.5000" height="2.0000" fill="#800080" stroke="#333333" stroke-width="0.08" rx="0.3" ry="0.3"/>
    <text x="168.6000" y="34.9000" font-family="monospace" font-size="1.6000" fill="#444444" text-anchor="end"> 9</text>
    <text x="169.6000" y="34.9000" font-family="sans-serif" font-size="1.6000" fill="#111111">CoreContourHatch</text>
    <rect x="161.8000" y="36.0000" width="3.5000" height="2.0000" fill="#FF69B4" stroke="#333333" stroke-width="0.08" rx="0.3" ry="0.3"/>
    <text x="168.6000" y="37.9000" font-family="monospace" font-size="1.6000" fill="#444444" text-anchor="end">10</text>
    <text x="169.6000" y="37.9000" font-family="sans-serif" font-size="1.6000" fill="#111111">Shell1OverhangHatch</text>
    <rect x="161.8000" y="39.0000" width="3.5000" height="2.0000" fill="#00CED1" stroke="#333333" stroke-width="0.08" rx="0.3" ry="0.3"/>
    <text x="168.6000" y="40.9000" font-family="monospace" font-size="1.6000" fill="#444444" text-anchor="end">11</text>
    <text x="169.6000" y="40.9000" font-family="sans-serif" font-size="1.6000" fill="#111111">Shell1NormalHatch</text>
    <rect x="161.8000" y="42.0000" width="3.5000" height="2.0000" fill="#FF00FF" stroke="#333333" stroke-width="0.08" rx="0.3" ry="0.3"/>
    <text x="168.6000" y="43.9000" font-family="monospace" font-size="1.6000" fill="#444444" text-anchor="end">12</text>
    <text x="169.6000" y="43.9000" font-family="sans-serif" font-size="1.6000" fill="#111111">Shell1ContourHatch</text>
    <rect x="161.8000" y="45.0000" width="3.5000" height="2.0000" fill="#A52A2A" stroke="#333333" stroke-width="0.08" rx="0.3" ry="0.3"/>
    <text x="168.6000" y="46.9000" font-family="monospace" font-size="1.6000" fill="#444444" text-anchor="end">13</text>
    <text x="169.6000" y="46.9000" font-family="sans-serif" font-size="1.6000" fill="#111111">Shell2OverhangHatch</text>
    <rect x="161.8000" y="48.0000" width="3.5000" height="2.0000" fill="#808080" stroke="#333333" stroke-width="0.08" rx="0.3" ry="0.3"/>
    <text x="168.6000" y="49.9000" font-family="monospace" font-size="1.6000" fill="#444444" text-anchor="end">14</text>
    <text x="169.6000" y="49.9000" font-family="sans-serif" font-size="1.6000" fill="#111111">Shell2NormalHatch</text>
    <rect x="161.8000" y="51.0000" width="3.5000" height="2.0000" fill="#32CD32" stroke="#333333" stroke-width="0.08" rx="0.3" ry="0.3"/>
    <text x="168.6000" y="52.9000" font-family="monospace" font-size="1.6000" fill="#444444" text-anchor="end">15</text>
    <text x="169.6000" y="52.9000" font-family="sans-serif" font-size="1.6000" fill="#111111">Shell2ContourHatch</text>
    <rect x="161.8000" y="54.0000" width="3.5000" height="2.0000" fill="#1A237E" stroke="#333333" stroke-width="0.08" rx="0.3" ry="0.3"/>
    <text x="168.6000" y="55.9000" font-family="monospace" font-size="1.6000" fill="#444444" text-anchor="end">16</text>
    <text x="169.6000" y="55.9000" font-family="sans-serif" font-size="1.6000" fill="#111111">SupportContourVolume</text>
    <rect x="161.8000" y="57.0000" width="3.5000" height="2.0000" fill="#827717" stroke="#333333" stroke-width="0.08" rx="0.3" ry="0.3"/>
    <text x="168.6000" y="58.9000" font-family="monospace" font-size="1.6000" fill="#444444" text-anchor="end">17</text>
    <text x="169.6000" y="58.9000" font-family="sans-serif" font-size="1.6000" fill="#111111">SupportHatch</text>
    <rect x="161.8000" y="60.0000" width="3.5000" height="2.0000" fill="#006064" stroke="#333333" stroke-width="0.08" rx="0.3" ry="0.3"/>
    <text x="168.6000" y="61.9000" font-family="monospace" font-size="1.6000" fill="#444444" text-anchor="end">18</text>
    <text x="169.6000" y="61.9000" font-family="sans-serif" font-size="1.6000" fill="#111111">PointSequence</text>
    <rect x="161.8000" y="63.0000" width="3.5000" height="2.0000" fill="#B71C1C" stroke="#333333" stroke-width="0.08" rx="0.3" ry="0.3"/>
    <text x="168.6000" y="64.9000" font-family="monospace" font-size="1.6000" fill="#444444" text-anchor="end">19</text>
    <text x="169.6000" y="64.9000" font-family="sans-serif" font-size="1.6000" fill="#111111">ExternalSupports</text>
    <rect x="161.8000" y="66.0000" width="3.5000" height="2.0000" fill="#E64A19" stroke="#333333" stroke-width="0.08" rx="0.3" ry="0.3"/>
    <text x="168.6000" y="67.9000" font-family="monospace" font-size="1.6000" fill="#444444" text-anchor="end">20</text>
    <text x="169.6000" y="67.9000" font-family="sans-serif" font-size="1.6000" fill="#111111">CoreContourHatchOverhang</text>
    <rect x="161.8000" y="69.0000" width="3.5000" height="2.0000" fill="#311B92" stroke="#333333" stroke-width="0.08" rx="0.3" ry="0.3"/>
    <text x="168.6000" y="70.9000" font-family="monospace" font-size="1.6000" fill="#444444" text-anchor="end">21</text>
    <text x="169.6000" y="70.9000" font-family="sans-serif" font-size="1.6000" fill="#111111">Shell1ContourHatchOverhang</text>
    <rect x="161.8000" y="72.0000" width="3.5000" height="2.0000" fill="#880E4F" stroke="#333333" stroke-width="0.08" rx="0.3" ry="0.3"/>
    <text x="168.6000" y="73.9000" font-family="monospace" font-size="1.6000" fill="#444444" text-anchor="end">22</text>
    <text x="169.6000" y="73.9000" font-family="sans-serif" font-size="1.6000" fill="#111111">Shell2ContourHatchOverhang</text>
    </g>
  </g>
</svg>
