<?xml version="1.0" encoding="UTF-8" standalone="yes"?>
<svg xmlns="http://www.w3.org/2000/svg"
     xmlns:xlink="http://www.w3.org/1999/xlink"
     width="2020.0000mm" height="1600.0000mm"
     viewBox="0 0 202.000000 160.000000">
  <!--
    Build plate : 150.00 x 150.00 mm
    Coordinate  : 1 SVG unit = 1 mm
    Display zoom: 10x  (width/height = viewBox x 10)
    Hatch stroke: 0.04 mm = ~28 mm on screen at this zoom
    Legend panel: right margin (42 mm wide)
  -->
  <defs>
    <marker id="endArrow" markerWidth="2" markerHeight="1.4"
            refX="0" refY="0.7" orient="auto"
            markerUnits="strokeWidth">
      <polyline fill="darkblue" points="0,0 2,0.7 0,1.4 0.2,0.7"/>
    </marker>
  </defs>
  <!-- Background -->
  <rect x="0" y="0" width="202.000000" height="160.000000" fill="#f0f0f0" stroke="none"/>
  <!-- Build plate boundary (150 x 150 mm) -->
  <rect x="5.000000" y="5.000000" width="150.000000" height="150.000000"
        fill="#ffffff" stroke="#aaaaaa" stroke-width="0.2" stroke-dasharray="1,0.5"/>
  <!-- Build plate centre circle (r = 75.00 mm) -->
  <circle cx="80.000000" cy="80.000000" r="75.000000"
          fill="none" stroke="#bbbbbb" stroke-width="0.15" stroke-dasharray="0.8,0.4"/>
  <!-- Centre cross-hair -->
  <line x1="5.000000" y1="80.000000" x2="155.000000" y2="80.000000" stroke="#cccccc" stroke-width="0.1"/>
  <line x1="80.000000" y1="5.000000" x2="80.000000" y2="155.000000" stroke="#cccccc" stroke-width="0.1"/>
  <circle cx="80.000000" cy="80.000000" r="0.3" fill="#cccccc" stroke="none"/>
  <!-- Corner labels -->
  <text x="5.400000" y="4.600000" font-family="sans-serif" font-size="2" fill="#888888">0,0</text>
  <text x="154.600006" y="4.600000" font-family="sans-serif" font-size="2" fill="#888888" text-anchor="end">150,0</text>
  <text x="5.400000" y="157.199997" font-family="sans-serif" font-size="2" fill="#888888">0,150</text>
  <!-- Layer geometry -->
  <g id="geometry">
    <g class="thermal-hatch" data-segment="8" data-name="CoreNormalHatch">
      <line x1="37.75985" y1="87.39354" x2="37.54902" y2="87.13318" stroke="#228B22" stroke-width="0.04000"/>
      <line x1="37.86882" y1="87.36919" x2="37.62012" y2="87.06208" stroke="#228B22" stroke-width="0.04000"/>
      <line x1="37.95983" y1="87.32269" x2="37.69122" y2="86.99098" stroke="#228B22" stroke-width="0.04000"/>
      <line x1="38.04265" y1="87.26606" x2="37.76232" y2="86.91988" stroke="#228B22" stroke-width="0.04000"/>
      <line x1="38.12046" y1="87.20323" x2="37.83342" y2="86.84878" stroke="#228B22" stroke-width="0.04000"/>
      <line x1="38.19516" y1="87.13658" x2="37.90452" y2="86.77768" stroke="#228B22" stroke-width="0.04000"/>
      <line x1="38.26953" y1="87.06953" x2="37.97562" y2="86.70657" stroke="#228B22" stroke-width="0.04000"/>
      <line x1="38.34390" y1="87.00246" x2="38.04672" y2="86.63548" stroke="#228B22" stroke-width="0.04000"/>
      <line x1="38.41828" y1="86.93541" x2="38.11782" y2="86.56438" stroke="#228B22" stroke-width="0.04000"/>
      <line x1="38.49269" y1="86.86840" x2="38.18892" y2="86.49328" stroke="#228B22" stroke-width="0.04000"/>
      <line x1="38.57043" y1="86.80550" x2="38.26002" y2="86.42218" stroke="#228B22" stroke-width="0.04000"/>
      <line x1="38.64533" y1="86.73909" x2="38.33112" y2="86.35107" stroke="#228B22" stroke-width="0.04000"/>
      <line x1="38.71986" y1="86.67223" x2="38.46517" y2="86.35771" stroke="#228B22" stroke-width="0.04000"/>
      <line x1="38.79442" y1="86.60541" x2="38.59842" y2="86.36336" stroke="#228B22" stroke-width="0.04000"/>
      <line x1="38.86934" y1="86.53902" x2="38.66952" y2="86.29225" stroke="#228B22" stroke-width="0.04000"/>
      <line x1="38.94426" y1="86.47263" x2="38.74062" y2="86.22115" stroke="#228B22" stroke-width="0.04000"/>
      <line x1="39.01917" y1="86.40624" x2="38.81171" y2="86.15005" stroke="#228B22" stroke-width="0.04000"/>
      <line x1="39.09409" y1="86.33985" x2="38.88282" y2="86.07896" stroke="#228B22" stroke-width="0.04000"/>
      <line x1="39.16843" y1="86.27275" x2="38.95392" y2="86.00785" stroke="#228B22" stroke-width="0.04000"/>
      <line x1="39.24272" y1="86.20560" x2="39.02502" y2="85.93675" stroke="#228B22" stroke-width="0.04000"/>
      <line x1="39.31702" y1="86.13844" x2="39.09612" y2="85.86565" stroke="#228B22" stroke-width="0.04000"/>
      <line x1="39.39131" y1="86.07128" x2="39.16722" y2="85.79456" stroke="#228B22" stroke-width="0.04000"/>
      <line x1="39.46560" y1="86.00413" x2="39.23832" y2="85.72346" stroke="#228B22" stroke-width="0.04000"/>
      <line x1="39.53989" y1="85.93697" x2="39.30942" y2="85.65236" stroke="#228B22" stroke-width="0.04000"/>
      <line x1="39.61342" y1="85.86887" x2="39.38052" y2="85.58126" stroke="#228B22" stroke-width="0.04000"/>
      <line x1="39.68599" y1="85.79958" x2="39.45162" y2="85.51016" stroke="#228B22" stroke-width="0.04000"/>
      <line x1="39.75857" y1="85.73030" x2="39.52272" y2="85.43906" stroke="#228B22" stroke-width="0.04000"/>
      <line x1="39.83114" y1="85.66102" x2="39.59382" y2="85.36795" stroke="#228B22" stroke-width="0.04000"/>
      <line x1="39.90371" y1="85.59174" x2="39.66492" y2="85.29685" stroke="#228B22" stroke-width="0.04000"/>
      <line x1="39.97622" y1="85.52238" x2="39.73602" y2="85.22575" stroke="#228B22" stroke-width="0.04000"/>
      <line x1="40.04870" y1="85.45298" x2="39.80712" y2="85.15466" stroke="#228B22" stroke-width="0.04000"/>
      <line x1="40.12118" y1="85.38358" x2="39.87822" y2="85.08355" stroke="#228B22" stroke-width="0.04000"/>
      <line x1="40.19280" y1="85.31313" x2="39.94932" y2="85.01246" stroke="#228B22" stroke-width="0.04000"/>
      <line x1="40.26497" y1="85.24335" x2="40.02042" y2="84.94135" stroke="#228B22" stroke-width="0.04000"/>
      <line x1="40.33760" y1="85.17414" x2="40.09152" y2="84.87025" stroke="#228B22" stroke-width="0.04000"/>
      <line x1="40.40984" y1="85.10444" x2="40.16262" y2="84.79916" stroke="#228B22" stroke-width="0.04000"/>
      <line x1="40.48191" y1="85.03455" x2="40.23372" y2="84.72805" stroke="#228B22" stroke-width="0.04000"/>
      <line x1="40.55405" y1="84.96472" x2="40.30482" y2="84.65696" stroke="#228B22" stroke-width="0.04000"/>
      <line x1="40.62730" y1="84.89629" x2="40.37592" y2="84.58585" stroke="#228B22" stroke-width="0.04000"/>
      <line x1="40.70003" y1="84.82719" x2="40.44702" y2="84.51475" stroke="#228B22" stroke-width="0.04000"/>
      <line x1="40.77359" y1="84.75913" x2="40.51812" y2="84.44365" stroke="#228B22" stroke-width="0.04000"/>
      <line x1="40.84701" y1="84.69089" x2="40.58922" y2="84.37255" stroke="#228B22" stroke-width="0.04000"/>
      <line x1="40.92092" y1="84.62326" x2="40.66033" y2="84.30146" stroke="#228B22" stroke-width="0.04000"/>
      <line x1="40.99513" y1="84.55600" x2="40.73143" y2="84.23035" stroke="#228B22" stroke-width="0.04000"/>
      <line x1="41.06951" y1="84.48895" x2="40.80252" y2="84.15925" stroke="#228B22" stroke-width="0.04000"/>
      <line x1="41.14447" y1="84.42262" x2="40.87362" y2="84.08815" stroke="#228B22" stroke-width="0.04000"/>
      <line x1="41.21878" y1="84.35548" x2="40.94472" y2="84.01705" stroke="#228B22" stroke-width="0.04000"/>
      <line x1="41.29252" y1="84.28764" x2="41.01582" y2="83.94595" stroke="#228B22" stroke-width="0.04000"/>
      <line x1="41.36688" y1="84.22057" x2="41.01734" y2="83.78892" stroke="#228B22" stroke-width="0.04000"/>
      <line x1="41.43934" y1="84.15115" x2="41.03292" y2="83.64927" stroke="#228B22" stroke-width="0.04000"/>
      <line x1="41.50470" y1="84.07295" x2="41.10403" y2="83.57817" stroke="#228B22" stroke-width="0.04000"/>
      <line x1="41.55999" y1="83.98234" x2="41.17513" y2="83.50707" stroke="#228B22" stroke-width="0.04000"/>
      <line x1="41.60201" y1="83.87533" x2="41.24623" y2="83.43597" stroke="#228B22" stroke-width="0.04000"/>
      <line x1="41.62737" y1="83.74774" x2="41.31733" y2="83.36487" stroke="#228B22" stroke-width="0.04000"/>
      <line x1="41.60483" y1="83.56100" x2="41.38843" y2="83.29377" stroke="#228B22" stroke-width="0.04000"/>
    </g>
    <g class="thermal-hatch" data-segment="9" data-name="CoreContourHatch">
      <line x1="41.34390" y1="83.81760" x2="41.29580" y2="83.75810" stroke="#800080" stroke-width="0.04000"/>
    </g>
    <g class="thermal-hatch" data-segment="14" data-name="HollowShell2NormalHatch">
      <line x1="40.47230" y1="84.78090" x2="40.46210" y2="84.76830" stroke="#808080" stroke-width="0.04000"/>
      <line x1="40.39090" y1="84.83940" x2="40.39940" y2="84.84990" stroke="#808080" stroke-width="0.04000"/>
      <line x1="40.32730" y1="84.91970" x2="40.31980" y2="84.91050" stroke="#808080" stroke-width="0.04000"/>
      <line x1="40.24870" y1="84.98160" x2="40.25520" y2="84.98960" stroke="#808080" stroke-width="0.04000"/>
      <line x1="40.18270" y1="85.05900" x2="40.17760" y2="85.05270" stroke="#808080" stroke-width="0.04000"/>
      <line x1="40.10660" y1="85.12380" x2="40.11020" y2="85.12830" stroke="#808080" stroke-width="0.04000"/>
      <line x1="40.03840" y1="85.19850" x2="40.03550" y2="85.19490" stroke="#808080" stroke-width="0.04000"/>
      <line x1="39.96440" y1="85.26600" x2="39.96640" y2="85.26850" stroke="#808080" stroke-width="0.04000"/>
      <line x1="39.89390" y1="85.33800" x2="39.89320" y2="85.33710" stroke="#808080" stroke-width="0.04000"/>
    </g>
    <g class="thermal-hatch" data-segment="15" data-name="HollowShell2ContourHatch">
      <line x1="40.46220" y1="84.76810" x2="40.44510" y2="84.74700" stroke="#32CD32" stroke-width="0.04000"/>
      <line x1="40.47240" y1="84.78070" x2="40.48950" y2="84.80180" stroke="#32CD32" stroke-width="0.04000"/>
      <line x1="40.40530" y1="84.82500" x2="40.38820" y2="84.80390" stroke="#32CD32" stroke-width="0.04000"/>
      <line x1="40.41390" y1="84.83570" x2="40.43100" y2="84.85680" stroke="#32CD32" stroke-width="0.04000"/>
      <line x1="40.34840" y1="84.88190" x2="40.33130" y2="84.86080" stroke="#32CD32" stroke-width="0.04000"/>
      <line x1="40.35630" y1="84.89160" x2="40.37330" y2="84.91270" stroke="#32CD32" stroke-width="0.04000"/>
      <line x1="40.29150" y1="84.93880" x2="40.27440" y2="84.91770" stroke="#32CD32" stroke-width="0.04000"/>
      <line x1="40.29860" y1="84.94760" x2="40.31560" y2="84.96860" stroke="#32CD32" stroke-width="0.04000"/>
      <line x1="40.23470" y1="84.99560" x2="40.21760" y2="84.97450" stroke="#32CD32" stroke-width="0.04000"/>
      <line x1="40.24100" y1="85.00340" x2="40.25800" y2="85.02440" stroke="#32CD32" stroke-width="0.04000"/>
      <line x1="40.17780" y1="85.05250" x2="40.16070" y2="85.03140" stroke="#32CD32" stroke-width="0.04000"/>
      <line x1="40.18290" y1="85.05880" x2="40.19990" y2="85.07980" stroke="#32CD32" stroke-width="0.04000"/>
      <line x1="40.12090" y1="85.10950" x2="40.10380" y2="85.08830" stroke="#32CD32" stroke-width="0.04000"/>
      <line x1="40.12480" y1="85.11430" x2="40.14180" y2="85.13520" stroke="#32CD32" stroke-width="0.04000"/>
      <line x1="40.06410" y1="85.16630" x2="40.04690" y2="85.14510" stroke="#32CD32" stroke-width="0.04000"/>
      <line x1="40.06720" y1="85.17010" x2="40.08430" y2="85.19120" stroke="#32CD32" stroke-width="0.04000"/>
      <line x1="40.00710" y1="85.22310" x2="39.99000" y2="85.20200" stroke="#32CD32" stroke-width="0.04000"/>
      <line x1="40.00990" y1="85.22660" x2="40.02700" y2="85.24770" stroke="#32CD32" stroke-width="0.04000"/>
      <line x1="39.95030" y1="85.28010" x2="39.93320" y2="85.25900" stroke="#32CD32" stroke-width="0.04000"/>
      <line x1="39.95200" y1="85.28230" x2="39.96910" y2="85.30330" stroke="#32CD32" stroke-width="0.04000"/>
      <line x1="39.89330" y1="85.33700" x2="39.87630" y2="85.31590" stroke="#32CD32" stroke-width="0.04000"/>
      <line x1="39.89400" y1="85.33780" x2="39.91110" y2="85.35890" stroke="#32CD32" stroke-width="0.04000"/>
      <line x1="39.85320" y1="85.41440" x2="39.81930" y2="85.37250" stroke="#32CD32" stroke-width="0.04000"/>
    </g>
    <g class="thermal-contour" data-segment="1" data-name="CoreContour_Volume">
    <path d="M 41.4917 83.3635 L 41.5097 83.3925 L 41.5306 83.4139 L 41.5369 83.4213 L 41.5578 83.4543 L 41.5773 83.4914 L 41.5804 83.4977 L 41.5969 83.5367 L 41.5973 83.5376 L 41.6022 83.5525 L 41.6107 83.5798 L 41.6109 83.5807 L 41.6199 83.6215 L 41.6209 83.6269 L 41.6221 83.6565 L 41.6222 83.6591 L 41.6274 83.7402 L 41.6277 83.7443 L 41.6277 83.7448 L 41.6271 83.7505 L 41.6163 83.8219 L 41.6146 83.8352 L 41.6129 83.8413 L 41.6116 83.8462 L 41.6114 83.8468 L 41.5879 83.9182 L 41.5872 83.9208 L 41.5819 83.9394 L 41.5506 84.0008 L 41.537 84.0279 L 41.5018 84.077 L 41.4793 84.1092 L 41.44 84.1505 L 41.4156 84.1767 L 41.3059 84.2755 L 41.3048 84.2765 L 41.2803 84.2987 L 41.1742 84.3966 L 41.1125 84.4506 L 41.1071 84.4553 L 41.0974 84.4639 L 41.0902 84.4703 L 40.9893 84.5613 L 40.9572 84.59 L 40.9433 84.6025 L 40.8819 84.6594 L 40.8521 84.6862 L 40.8103 84.7245 L 40.7614 84.7706 L 40.737 84.7929 L 40.7132 84.815 L 40.6819 84.844 L 40.6286 84.8951 L 40.5944 84.9268 L 40.5498 84.9687 L 40.3539 85.1587 L 40.3151 85.1955 L 40.296 85.2138 L 40.2959 85.2138 L 40.2538 85.254 L 40.2194 85.2868 L 40.1352 85.3701 L 39.9306 85.5661 L 39.5939 85.8875 L 39.5647 85.9146 L 39.0993 86.3352 L 38.7867 86.6122 L 38.5926 86.7864 L 38.5307 86.8398 L 38.5019 86.8603 L 38.4894 86.8713 L 38.1481 87.179 L 38.1176 87.2057 L 38.1126 87.2108 L 38.1088 87.2139 L 38.0742 87.2422 L 38.0721 87.2437 L 38.0357 87.2714 L 38.0353 87.2716 L 38.0253 87.2786 L 38.002 87.2954 L 38.0001 87.2968 L 37.9703 87.3162 L 37.9659 87.3191 L 37.9387 87.335 L 37.9322 87.3389 L 37.9078 87.3514 L 37.8994 87.3558 L 37.8776 87.3653 L 37.8675 87.3698 L 37.8483 87.3766 L 37.837 87.3806 L 37.8202 87.385 L 37.8081 87.3883 L 37.7935 87.3906 L 37.7809 87.3927 L 37.7683 87.3932 L 37.7558 87.3937 L 37.7449 87.3926 L 37.7328 87.3914 L 37.7121 87.3856 L 37.7043 87.3817 L 37.6944 87.3767 L 37.6791 87.3685 L 37.6773 87.3656 L 37.5942 87.2857 L 37.4973 87.1849 L 37.5437 87.1385 L 37.5616 87.1206 L 37.6166 87.0656 L 37.988 86.6942 L 38.2221 86.4601 L 38.3357 86.3465 L 38.4922 86.3601 L 38.5949 86.3669 L 38.6937 86.2681 L 38.6937 86.2681 L 39.1976 85.7642 L 39.1976 85.7642 L 39.4419 85.5199 L 39.4783 85.4835 L 39.6117 85.35 L 39.7485 85.2132 L 39.7807 85.1811 L 39.9468 85.0149 L 40.0231 84.9387 L 40.0231 84.9387 L 40.1071 84.8547 L 40.1616 84.8002 L 40.268 84.6938 L 40.3006 84.6612 L 40.3189 84.6429 L 40.4553 84.5065 L 40.4553 84.5065 L 40.4783 84.4835 L 40.6126 84.3491 L 40.6571 84.3047 L 40.761 84.2008 L 40.7762 84.1856 L 40.7762 84.1856 L 40.9489 84.0129 L 40.9489 84.0129 L 41.0611 83.9007 L 41.0205 83.796 L 40.9785 83.7037 L 41.1047 83.5775 L 41.1371 83.5451 L 41.1371 83.5451 L 41.1414 83.5408 L 41.2246 83.4576 L 41.271 83.4112 L 41.3264 83.3558 L 41.3264 83.3558 L 41.372 83.3102 L 41.4173 83.2649 L 41.4917 83.3635" fill="none" stroke="#000000" stroke-width="0.05000" fill-rule="evenodd" fill-opacity="1.000"/>
    </g>
    <g class="thermal-contour" data-segment="1" data-name="CoreContour_Volume">
    <path d="M 38.4769 86.5595 L 38.5412 86.5637 L 38.4592 86.6372 L 38.4075 86.6818 L 38.3774 86.7034 L 38.3564 86.7219 L 38.0141 87.0304 L 37.9805 87.06 L 37.9782 87.0622 L 37.9505 87.0848 L 37.9498 87.0853 L 37.9171 87.1102 L 37.9097 87.1154 L 37.8878 87.131 L 37.8607 87.1488 L 37.8366 87.163 L 37.8359 87.1634 L 37.816 87.1737 L 37.8134 87.175 L 37.797 87.1823 L 37.7941 87.1835 L 37.7814 87.1881 L 37.7813 87.1881 L 37.779 87.1859 L 38.3635 86.6015 L 38.4112 86.5537 L 38.4769 86.5595" fill="none" stroke="#000000" stroke-width="0.05000" fill-rule="evenodd" fill-opacity="1.000"/>
    <path d="M 41.3979 83.58 L 41.3981 83.5804 L 41.4098 83.6079 L 41.4111 83.6117 L 41.4172 83.6315 L 41.4217 83.6519 L 41.4222 83.6633 L 41.4222 83.6634 L 41.4224 83.6687 L 41.4267 83.7374 L 41.4182 83.7939 L 41.3964 83.8603 L 41.3949 83.8658 L 41.3947 83.8661 L 41.3723 83.9103 L 41.3654 83.9238 L 41.3386 83.9614 L 41.3238 83.9824 L 41.2945 84.0133 L 41.275 84.034 L 41.1714 84.1274 L 41.1703 84.1284 L 41.1453 84.1511 L 41.0424 84.246 L 40.9804 84.3003 L 40.9746 84.3055 L 40.9646 84.3143 L 40.9567 84.3214 L 40.8557 84.4124 L 40.8236 84.4411 L 40.8084 84.4548 L 40.748 84.5108 L 40.7177 84.5382 L 40.6742 84.5779 L 40.6264 84.623 L 40.6015 84.6458 L 40.5772 84.6682 L 40.5653 84.6792 L 40.6197 84.6249 L 40.7537 84.4907 L 40.7538 84.4908 L 40.7984 84.4463 L 40.9024 84.3422 L 41.2947 83.9499 L 41.2165 83.7484 L 41.2461 83.7189 L 41.3934 83.5715 L 41.3979 83.58" fill="none" stroke="#000000" stroke-width="0.05000" fill-rule="evenodd" fill-opacity="1.000"/>
    <path d="M 41.3216 83.7706 L 41.3267 83.7838 L 41.3303 83.773 L 41.3322 83.76 L 41.3216 83.7706" fill="none" stroke="#000000" stroke-width="0.05000" fill-rule="evenodd" fill-opacity="1.000"/>
    </g>
    <g class="thermal-contour" data-segment="3" data-name="HollowShell1Contour_Volume">
    <path d="M 41.4917 83.3635 L 41.5097 83.3925 L 41.5306 83.4139 L 41.5369 83.4213 L 41.5578 83.4543 L 41.5773 83.4914 L 41.5804 83.4977 L 41.5969 83.5367 L 41.5973 83.5376 L 41.6022 83.5525 L 41.6107 83.5798 L 41.6109 83.5807 L 41.6199 83.6215 L 41.6209 83.6269 L 41.6221 83.6565 L 41.6222 83.6591 L 41.6274 83.7402 L 41.6277 83.7443 L 41.6277 83.7448 L 41.6271 83.7505 L 41.6163 83.8219 L 41.6146 83.8352 L 41.6129 83.8413 L 41.6116 83.8462 L 41.6114 83.8468 L 41.5879 83.9182 L 41.5872 83.9208 L 41.5819 83.9394 L 41.5506 84.0008 L 41.537 84.0279 L 41.5018 84.077 L 41.4793 84.1092 L 41.44 84.1505 L 41.4156 84.1767 L 41.3059 84.2755 L 41.3048 84.2765 L 41.2803 84.2987 L 41.1742 84.3966 L 41.1125 84.4506 L 41.1071 84.4553 L 41.0974 84.4639 L 41.0902 84.4703 L 40.9893 84.5613 L 40.9572 84.59 L 40.9433 84.6025 L 40.8819 84.6594 L 40.8521 84.6862 L 40.8103 84.7245 L 40.7614 84.7706 L 40.737 84.7929 L 40.7132 84.815 L 40.6819 84.844 L 40.6286 84.8951 L 40.5944 84.9268 L 40.5498 84.9687 L 40.3539 85.1587 L 40.3151 85.1955 L 40.296 85.2138 L 40.2959 85.2138 L 40.2538 85.254 L 40.2194 85.2868 L 40.1352 85.3701 L 39.9306 85.5661 L 39.5939 85.8875 L 39.5647 85.9146 L 39.0993 86.3352 L 38.7867 86.6122 L 38.5926 86.7864 L 38.5307 86.8398 L 38.5019 86.8603 L 38.4894 86.8713 L 38.1481 87.179 L 38.1176 87.2057 L 38.1126 87.2108 L 38.1088 87.2139 L 38.0742 87.2422 L 38.0721 87.2437 L 38.0357 87.2714 L 38.0353 87.2716 L 38.0253 87.2786 L 38.002 87.2954 L 38.0001 87.2968 L 37.9703 87.3162 L 37.9659 87.3191 L 37.9387 87.335 L 37.9322 87.3389 L 37.9078 87.3514 L 37.8994 87.3558 L 37.8776 87.3653 L 37.8675 87.3698 L 37.8483 87.3766 L 37.837 87.3806 L 37.8202 87.385 L 37.8081 87.3883 L 37.7935 87.3906 L 37.7809 87.3927 L 37.7683 87.3932 L 37.7558 87.3937 L 37.7449 87.3926 L 37.7328 87.3914 L 37.7121 87.3856 L 37.7043 87.3817 L 37.6944 87.3767 L 37.6791 87.3685 L 37.6773 87.3656 L 37.5942 87.2857 L 37.4973 87.1849 L 37.5437 87.1385 L 37.5616 87.1206 L 37.6166 87.0656 L 37.988 86.6942 L 37.9916 86.6905 L 37.9967 86.6912 L 38.0782 86.7007 L 38.118 86.7055 L 37.6873 87.1363 L 37.6373 87.1862 L 37.6649 87.2149 L 37.741 87.2881 L 37.7484 87.2919 L 37.7514 87.2927 L 37.7549 87.2931 L 37.7589 87.2935 L 37.7643 87.2933 L 37.7707 87.293 L 37.7775 87.2919 L 37.7871 87.2903 L 37.7944 87.2884 L 37.8067 87.2851 L 37.8149 87.2823 L 37.8312 87.2765 L 37.8373 87.2738 L 37.856 87.2656 L 37.8618 87.2626 L 37.8842 87.2511 L 37.8877 87.249 L 37.9127 87.2343 L 37.9155 87.2325 L 37.9436 87.2141 L 37.9674 87.1971 L 37.9764 87.1908 L 38.0127 87.1632 L 38.0138 87.1623 L 38.0452 87.1367 L 38.0489 87.133 L 38.0811 87.1047 L 38.4229 86.7966 L 38.4397 86.7818 L 38.4693 86.7606 L 38.5259 86.7118 L 38.7201 86.5376 L 39.033 86.2604 L 39.4977 85.8404 L 39.5259 85.8142 L 39.8614 85.4939 L 40.066 85.2979 L 40.1497 85.2151 L 40.1848 85.1816 L 40.2558 85.1138 L 40.2559 85.1138 L 40.2851 85.0861 L 40.4807 84.8964 L 40.5262 84.8537 L 40.5594 84.8229 L 40.6133 84.7712 L 40.6452 84.7416 L 40.6692 84.7194 L 40.6939 84.6968 L 40.7422 84.6512 L 40.7849 84.6122 L 40.815 84.585 L 40.8759 84.5286 L 40.8904 84.5155 L 40.9223 84.487 L 41.0235 84.3958 L 41.031 84.3891 L 41.0411 84.3802 L 41.0466 84.3753 L 41.1083 84.3213 L 41.2128 84.2249 L 41.2375 84.2025 L 41.2388 84.2013 L 41.3449 84.1057 L 41.3672 84.082 L 41.4013 84.0461 L 41.4202 84.0192 L 41.4511 83.9759 L 41.4614 83.9557 L 41.4883 83.9028 L 41.491 83.8934 L 41.4921 83.8895 L 41.5154 83.8186 L 41.5164 83.8151 L 41.5173 83.8081 L 41.5272 83.7417 L 41.5223 83.6642 L 41.5222 83.6606 L 41.5213 83.639 L 41.5138 83.6052 L 41.5067 83.5822 L 41.5067 83.5821 L 41.5035 83.5726 L 41.4892 83.539 L 41.4876 83.5356 L 41.4714 83.5048 L 41.4562 83.4808 L 41.4305 83.4545 L 41.4088 83.4196 L 41.4067 83.4168 L 41.3971 83.4265 L 41.1754 83.6482 L 41.1613 83.6622 L 41.1167 83.5654 L 41.1371 83.5451 L 41.1414 83.5408 L 41.2246 83.4576 L 41.271 83.4112 L 41.3264 83.3558 L 41.372 83.3102 L 41.4173 83.2649 L 41.4917 83.3635" fill="none" stroke="#0000CC" stroke-width="0.05000" fill-rule="evenodd" fill-opacity="1.000"/>
    <path d="M 41.1779 83.9253 L 40.8317 84.2715 L 40.7278 84.3755 L 40.6832 84.4199 L 40.549 84.5542 L 40.0175 85.0857 L 40.0174 85.0856 L 39.8514 85.2519 L 39.8191 85.284 L 39.6824 85.4207 L 39.549 85.5542 L 38.6335 86.4697 L 38.4846 86.4598 L 38.4662 86.4582 L 38.5598 86.3645 L 38.5949 86.3669 L 38.6937 86.2681 L 39.1976 85.7642 L 39.4419 85.5199 L 39.4783 85.4835 L 39.6117 85.35 L 39.7485 85.2132 L 39.7807 85.1811 L 39.9468 85.0149 L 40.0231 84.9387 L 40.1071 84.8547 L 40.1616 84.8002 L 40.268 84.6938 L 40.3006 84.6612 L 40.3189 84.6429 L 40.4553 84.5065 L 40.4783 84.4835 L 40.6126 84.3491 L 40.6571 84.3047 L 40.761 84.2008 L 40.7762 84.1856 L 40.9489 84.0129 L 41.0611 83.9007 L 41.0507 83.8738 L 41.0798 83.8448 L 41.1279 83.7965 L 41.1779 83.9253" fill="none" stroke="#0000CC" stroke-width="0.05000" fill-rule="evenodd" fill-opacity="1.000"/>
    </g>
    <g class="thermal-contour" data-segment="4" data-name="HollowShell1Contour_Overhang">
    <path d="M 38.4922 86.3601 L 38.5598 86.3645 L 38.4662 86.4582 L 38.3734 86.4501 L 38.2928 86.5308 L 38.118 86.7055 L 38.0782 86.7007 L 37.9967 86.6912 L 37.9916 86.6905 L 38.2221 86.4601 L 38.3357 86.3465 L 38.4922 86.3601" fill="none" stroke="#000080" stroke-width="0.05000" fill-rule="evenodd" fill-opacity="1.000"/>
    <path d="M 41.1613 83.6622 L 41.0982 83.7253 L 41.1127 83.7572 L 41.1279 83.7965 L 41.0798 83.8448 L 41.0507 83.8738 L 41.0205 83.796 L 40.9785 83.7037 L 41.1047 83.5775 L 41.1096 83.5726 L 41.1167 83.5654 L 41.1613 83.6622" fill="none" stroke="#000080" stroke-width="0.05000" fill-rule="evenodd" fill-opacity="1.000"/>
    </g>
    <g class="thermal-contour" data-segment="5" data-name="HollowShell2Contour_Volume">
    <path d="M 41.4088 83.4196 L 41.4305 83.4545 L 41.4562 83.4808 L 41.4714 83.5048 L 41.4876 83.5356 L 41.4892 83.539 L 41.5035 83.5726 L 41.5067 83.5821 L 41.5067 83.5822 L 41.5138 83.6052 L 41.5213 83.639 L 41.5222 83.6606 L 41.5223 83.6642 L 41.5272 83.7417 L 41.5173 83.8081 L 41.5164 83.8151 L 41.5154 83.8186 L 41.4921 83.8895 L 41.491 83.8934 L 41.4883 83.9028 L 41.4614 83.9557 L 41.4511 83.9759 L 41.4202 84.0192 L 41.4013 84.0461 L 41.3672 84.082 L 41.3449 84.1057 L 41.2388 84.2013 L 41.2375 84.2025 L 41.2128 84.2249 L 41.1083 84.3213 L 41.0466 84.3753 L 41.0411 84.3802 L 41.031 84.3891 L 41.0235 84.3958 L 40.9223 84.487 L 40.8904 84.5155 L 40.8759 84.5286 L 40.815 84.585 L 40.7849 84.6122 L 40.7422 84.6512 L 40.6939 84.6968 L 40.6692 84.7194 L 40.6452 84.7416 L 40.6133 84.7712 L 40.5594 84.8229 L 40.5262 84.8537 L 40.4807 84.8964 L 40.2851 85.0861 L 40.2559 85.1138 L 40.2558 85.1138 L 40.1848 85.1816 L 40.1497 85.2151 L 40.066 85.2979 L 39.8614 85.4939 L 39.5259 85.8142 L 39.4977 85.8404 L 39.033 86.2604 L 38.7201 86.5376 L 38.5259 86.7118 L 38.4693 86.7606 L 38.4397 86.7818 L 38.4229 86.7966 L 38.0811 87.1047 L 38.0489 87.133 L 38.0452 87.1367 L 38.0138 87.1623 L 38.0127 87.1632 L 37.9764 87.1908 L 37.9674 87.1971 L 37.9436 87.2141 L 37.9155 87.2325 L 37.9127 87.2343 L 37.8877 87.249 L 37.8842 87.2511 L 37.8618 87.2626 L 37.856 87.2656 L 37.8373 87.2738 L 37.8312 87.2765 L 37.8149 87.2823 L 37.8067 87.2851 L 37.7944 87.2884 L 37.7871 87.2903 L 37.7775 87.2919 L 37.7707 87.293 L 37.7643 87.2933 L 37.7589 87.2935 L 37.7549 87.2931 L 37.7514 87.2927 L 37.7484 87.2919 L 37.741 87.2881 L 37.6649 87.2149 L 37.6373 87.1862 L 37.6873 87.1363 L 38.118 86.7055 L 38.1696 86.7118 L 38.2086 86.7159 L 38.4516 86.4729 L 38.4662 86.4582 L 38.4846 86.4598 L 38.6335 86.4697 L 39.549 85.5542 L 39.6824 85.4207 L 39.8191 85.284 L 39.8514 85.2519 L 40.0174 85.0856 L 40.0175 85.0857 L 40.549 84.5542 L 40.6832 84.4199 L 40.7278 84.3755 L 40.8317 84.2715 L 41.1779 83.9253 L 41.1279 83.7965 L 41.1496 83.7749 L 41.1596 83.7649 L 41.1932 83.7313 L 41.1613 83.6622 L 41.1754 83.6482 L 41.3971 83.4265 L 41.4067 83.4168 L 41.4088 83.4196" fill="none" stroke="#B8860B" stroke-width="0.05000" fill-rule="evenodd" fill-opacity="1.000"/>
    <path d="M 38.3635 86.6015 L 37.779 87.1859 L 37.7813 87.1881 L 37.7814 87.1881 L 37.7941 87.1835 L 37.797 87.1823 L 37.8134 87.175 L 37.816 87.1737 L 37.8359 87.1634 L 37.8366 87.163 L 37.8607 87.1488 L 37.8878 87.131 L 37.9097 87.1154 L 37.9171 87.1102 L 37.9498 87.0853 L 37.9505 87.0848 L 37.9782 87.0622 L 37.9805 87.06 L 38.0141 87.0304 L 38.3564 86.7219 L 38.3774 86.7034 L 38.4075 86.6818 L 38.4592 86.6372 L 38.5412 86.5637 L 38.4769 86.5595 L 38.4112 86.5537 L 38.3635 86.6015" fill="none" stroke="#B8860B" stroke-width="0.05000" fill-rule="evenodd" fill-opacity="1.000"/>
    <path d="M 40.0175 85.213 L 40.0174 85.2129 L 39.915 85.3156 L 39.8825 85.3478 L 39.8538 85.3764 L 40.0037 85.2329 L 40.087 85.1506 L 40.1226 85.1165 L 40.2197 85.0238 L 40.22 85.0238 L 40.2224 85.0215 L 40.4186 84.8313 L 40.4648 84.7879 L 40.4971 84.7579 L 40.5069 84.7484 L 40.4947 84.7357 L 40.0175 85.213" fill="none" stroke="#B8860B" stroke-width="0.05000" fill-rule="evenodd" fill-opacity="1.000"/>
    <path d="M 41.2461 83.7189 L 41.2165 83.7484 L 41.2947 83.9499 L 40.9024 84.3422 L 40.7984 84.4463 L 40.7538 84.4908 L 40.7537 84.4907 L 40.6197 84.6249 L 40.5653 84.6792 L 40.5772 84.6682 L 40.6015 84.6458 L 40.6264 84.623 L 40.6742 84.5779 L 40.7177 84.5382 L 40.748 84.5108 L 40.8084 84.4548 L 40.8236 84.4411 L 40.8557 84.4124 L 40.9567 84.3214 L 40.9646 84.3143 L 40.9746 84.3055 L 40.9804 84.3003 L 41.0424 84.246 L 41.1453 84.1511 L 41.1703 84.1284 L 41.1714 84.1274 L 41.275 84.034 L 41.2945 84.0133 L 41.3238 83.9824 L 41.3386 83.9614 L 41.3654 83.9238 L 41.3723 83.9103 L 41.3947 83.8661 L 41.3949 83.8658 L 41.3964 83.8603 L 41.4182 83.7939 L 41.4267 83.7374 L 41.4224 83.6687 L 41.4222 83.6634 L 41.4222 83.6633 L 41.4217 83.6519 L 41.4172 83.6315 L 41.4111 83.6117 L 41.4098 83.6079 L 41.3981 83.5804 L 41.3979 83.58 L 41.3934 83.5715 L 41.2461 83.7189" fill="none" stroke="#B8860B" stroke-width="0.05000" fill-rule="evenodd" fill-opacity="1.000"/>
    </g>
    <g class="thermal-contour" data-segment="6" data-name="HollowShell2Contour_Overhang">
    <path d="M 38.4662 86.4582 L 38.4516 86.4729 L 38.2086 86.7159 L 38.1696 86.7118 L 38.118 86.7055 L 38.2928 86.5308 L 38.3734 86.4501 L 38.4662 86.4582" fill="none" stroke="#006400" stroke-width="0.05000" fill-rule="evenodd" fill-opacity="1.000"/>
    <path d="M 41.1932 83.7313 L 41.1596 83.7649 L 41.1496 83.7749 L 41.1279 83.7965 L 41.1127 83.7572 L 41.0982 83.7253 L 41.1613 83.6622 L 41.1932 83.7313" fill="none" stroke="#006400" stroke-width="0.05000" fill-rule="evenodd" fill-opacity="1.000"/>
    </g>
    <!-- ===== Thermal Segment Colour Legend ===== -->
    <g id="thermal-legend">
    <rect x="161.0000" y="5.0000" width="40.0000" height="72.0000"
          rx="1" ry="1"
          fill="#fafafa" stroke="#cccccc" stroke-width="0.15"/>
    <text x="181.0000" y="7.6000" font-family="sans-serif" font-size="2.2000" font-weight="bold" fill="#222222" text-anchor="middle">Thermal Segments</text>
    <line x1="161.5000" y1="8.7000" x2="200.5000" y2="8.7000" stroke="#bbbbbb" stroke-width="0.1"/>
    <rect x="161.8000" y="9.0000" width="3.5000" height="2.0000" fill="#000000" stroke="#333333" stroke-width="0.08" rx="0.3" ry="0.3"/>
    <text x="168.6000" y="10.9000" font-family="monospace" font-size="1.6000" fill="#444444" text-anchor="end"> 1</text>
    <text x="169.6000" y="10.9000" font-family="sans-serif" font-size="1.6000" fill="#111111">CoreContour_Volume</text>
    <rect x="161.8000" y="12.0000" width="3.5000" height="2.0000" fill="#8B0000" stroke="#333333" stroke-width="0.08" rx="0.3" ry="0.3"/>
    <text x="168.6000" y="13.9000" font-family="monospace" font-size="1.6000" fill="#444444" text-anchor="end"> 2</text>
    <text x="169.6000" y="13.9000" font-family="sans-serif" font-size="1.6000" fill="#111111">CoreContour_Overhang</text>
    <rect x="161.8000" y="15.0000" width="3.5000" height="2.0000" fill="#0000CC" stroke="#333333" stroke-width="0.08" rx="0.3" ry="0.3"/>
    <text x="168.6000" y="16.9000" font-family="monospace" font-size="1.6000" fill="#444444" text-anchor="end"> 3</text>
    <text x="169.6000" y="16.9000" font-family="sans-serif" font-size="1.6000" fill="#111111">Shell1Contour_Volume</text>
    <rect x="161.8000" y="18.0000" width="3.5000" height="2.0000" fill="#000080" stroke="#333333" stroke-width="0.08" rx="0.3" ry="0.3"/>
    <text x="168.6000" y="19.9000" font-family="monospace" font-size="1.6000" fill="#444444" text-anchor="end"> 4</text>
    <text x="169.6000" y="19.9000" font-family="sans-serif" font-size="1.6000" fill="#111111">Shell1Contour_Overhang</text>
    <rect x="161.8000" y="21.0000" width="3.5000" height="2.0000" fill="#B8860B" stroke="#333333" stroke-width="0.08" rx="0.3" ry="0.3"/>
    <text x="168.6000" y="22.9000" font-family="monospace" font-size="1.6000" fill="#444444" text-anchor="end"> 5</text>
    <text x="169.6000" y="22.9000" font-family="sans-serif" font-size="1.6000" fill="#111111">Shell2Contour_Volume</text>
    <rect x="161.8000" y="24.0000" width="3.5000" height="2.0000" fill="#006400" stroke="#333333" stroke-width="0.08" rx="0.3" ry="0.3"/>
    <text x="168.6000" y="25.9000" font-family="monospace" font-size="1.6000" fill="#444444" text-anchor="end"> 6</text>
    <text x="169.6000" y="25.9000" font-family="sans-serif" font-size="1.6000" fill="#111111">Shell2Contour_Overhang</text>
    <rect x="161.8000" y="27.0000" width="3.5000" height="2.0000" fill="#FF8C00" stroke="#333333" stroke-width="0.08" rx="0.3" ry="0.3"/>
    <text x="168.6000" y="28.9000" font-family="monospace" font-size="1.6000" fill="#444444" text-anchor="end"> 7</text>
    <text x="169.6000" y="28.9000" font-family="sans-serif" font-size="1.6000" fill="#111111">CoreOverhangHatch</text>
    <rect x="161.8000" y="30.0000" width="3.5000" height="2.0000" fill="#228B22" stroke="#333333" stroke-width="0.08" rx="0.3" ry="0.3"/>
    <text x="168.6000" y="31.9000" font-family="monospace" font-size="1.6000" fill="#444444" text-anchor="end"> 8</text>
    <text x="169.6000" y="31.9000" font-family="sans-serif" font-size="1.6000" fill="#111111">CoreNormalHatch</text>
    <rect x="161.8000" y="33.0000" width="3.5000" height="2.0000" fill="#800080" stroke="#333333" stroke-width="0.08" rx="0.3" ry="0.3"/>
    <text x="168.6000" y="34.9000" font-family="monospace" font-size="1.6000" fill="#444444" text-anchor="end"> 9</text>
    <text x="169.6000" y="34.9000" font-family="sans-serif" font-size="1.6000" fill="#111111">CoreContourHatch</text>
    <rect x="161.8000" y="36.0000" width="3.5000" height="2.0000" fill="#FF69B4" stroke="#333333" stroke-width="0.08" rx="0.3" ry="0.3"/>
    <text x="168.6000" y="37.9000" font-family="monospace" font-size="1.6000" fill="#444444" text-anchor="end">10</text>
    <text x="169.6000" y="37.9000" font-family="sans-serif" font-size="1.6000" fill="#111111">Shell1OverhangHatch</text>
    <rect x="161.8000" y="39.0000" width="3.5000" height="2.0000" fill="#00CED1" stroke="#333333" stroke-width="0.08" rx="0.3" ry="0.3"/>
    <text x="168.6000" y="40.9000" font-family="monospace" font-size="1.6000" fill="#444444" text-anchor="end">11</text>
    <text x="169.6000" y="40.9000" font-family="sans-serif" font-size="1.6000" fill="#111111">Shell1NormalHatch</text>
    <rect x="161.8000" y="42.0000" width="3.5000" height="2.0000" fill="#FF00FF" stroke="#333333" stroke-width="0.08" rx="0.3" ry="0.3"/>
    <text x="168.6000" y="43.9000" font-family="monospace" font-size="1.6000" fill="#444444" text-anchor="end">12</text>
    <text x="169.6000" y="43.9000" font-family="sans-serif" font-size="1.6000" fill="#111111">Shell1ContourHatch</text>
    <rect x="161.8000" y="45.0000" width="3.5000" height="2.0000" fill="#A52A2A" stroke="#333333" stroke-width="0.08" rx="0.3" ry="0.3"/>
    <text x="168.6000" y="46.9000" font-family="monospace" font-size="1.6000" fill="#444444" text-anchor="end">13</text>
    <text x="169.6000" y="46.9000" font-family="sans-serif" font-size="1.6000" fill="#111111">Shell2OverhangHatch</text>
    <rect x="161.8000" y="48.0000" width="3.5000" height="2.0000" fill="#808080" stroke="#333333" stroke-width="0.08" rx="0.3" ry="0.3"/>
    <text x="168.6000" y="49.9000" font-family="monospace" font-size="1.6000" fill="#444444" text-anchor="end">14</text>
    <text x="169.6000" y="49.9000" font-family="sans-serif" font-size="1.6000" fill="#111111">Shell2NormalHatch</text>
    <rect x="161.8000" y="51.0000" width="3.5000" height="2.0000" fill="#32CD32" stroke="#333333" stroke-width="0.08" rx="0.3" ry="0.3"/>
    <text x="168.6000" y="52.9000" font-family="monospace" font-size="1.6000" fill="#444444" text-anchor="end">15</text>
    <text x="169.6000" y="52.9000" font-family="sans-serif" font-size="1.6000" fill="#111111">Shell2ContourHatch</text>
    <rect x="161.8000" y="54.0000" width="3.5000" height="2.0000" fill="#1A237E" stroke="#333333" stroke-width="0.08" rx="0.3" ry="0.3"/>
    <text x="168.6000" y="55.9000" font-family="monospace" font-size="1.6000" fill="#444444" text-anchor="end">16</text>
    <text x="169.6000" y="55.9000" font-family="sans-serif" font-size="1.6000" fill="#111111">SupportContourVolume</text>
    <rect x="161.8000" y="57.0000" width="3.5000" height="2.0000" fill="#827717" stroke="#333333" stroke-width="0.08" rx="0.3" ry="0.3"/>
    <text x="168.6000" y="58.9000" font-family="monospace" font-size="1.6000" fill="#444444" text-anchor="end">17</text>
    <text x="169.6000" y="58.9000" font-family="sans-serif" font-size="1.6000" fill="#111111">SupportHatch</text>
    <rect x="161.8000" y="60.0000" width="3.5000" height="2.0000" fill="#006064" stroke="#333333" stroke-width="0.08" rx="0.3" ry="0.3"/>
    <text x="168.6000" y="61.9000" font-family="monospace" font-size="1.6000" fill="#444444" text-anchor="end">18</text>
    <text x="169.6000" y="61.9000" font-family="sans-serif" font-size="1.6000" fill="#111111">PointSequence</text>
    <rect x="161.8000" y="63.0000" width="3.5000" height="2.0000" fill="#B71C1C" stroke="#333333" stroke-width="0.08" rx="0.3" ry="0.3"/>
    <text x="168.6000" y="64.9000" font-family="monospace" font-size="1.6000" fill="#444444" text-anchor="end">19</text>
    <text x="169.6000" y="64.9000" font-family="sans-serif" font-size="1.6000" fill="#111111">ExternalSupports</text>
    <rect x="161.8000" y="66.0000" width="3.5000" height="2.0000" fill="#E64A19" stroke="#333333" stroke-width="0.08" rx="0.3" ry="0.3"/>
    <text x="168.6000" y="67.9000" font-family="monospace" font-size="1.6000" fill="#444444" text-anchor="end">20</text>
    <text x="169.6000" y="67.9000" font-family="sans-serif" font-size="1.6000" fill="#111111">CoreContourHatchOverhang</text>
    <rect x="161.8000" y="69.0000" width="3.5000" height="2.0000" fill="#311B92" stroke="#333333" stroke-width="0.08" rx="0.3" ry="0.3"/>
    <text x="168.6000" y="70.9000" font-family="monospace" font-size="1.6000" fill="#444444" text-anchor="end">21</text>
    <text x="169.6000" y="70.9000" font-family="sans-serif" font-size="1.6000" fill="#111111">Shell1ContourHatchOverhang</text>
    <rect x="161.8000" y="72.0000" width="3.5000" height="2.0000" fill="#880E4F" stroke="#333333" stroke-width="0.08" rx="0.3" ry="0.3"/>
    <text x="168.6000" y="73.9000" font-family="monospace" font-size="1.6000" fill="#444444" text-anchor="end">22</text>
    <text x="169.6000" y="73.9000" font-family="sans-serif" font-size="1.6000" fill="#111111">Shell2ContourHatchOverhang</text>
    </g>
  </g>
</svg>
