<?xml version="1.0" encoding="UTF-8" standalone="yes"?>
<svg xmlns="http://www.w3.org/2000/svg"
     xmlns:xlink="http://www.w3.org/1999/xlink"
     width="2020.0000mm" height="1600.0000mm"
     viewBox="0 0 202.000000 160.000000">
  <!--
    Build plate : 150.00 x 150.00 mm
    Coordinate  : 1 SVG unit = 1 mm
    Display zoom: 10x  (width/height = viewBox x 10)
    Hatch stroke: 0.04 mm = ~28 mm on screen at this zoom
    Legend panel: right margin (42 mm wide)
  -->
  <defs>
    <marker id="endArrow" markerWidth="2" markerHeight="1.4"
            refX="0" refY="0.7" orient="auto"
            markerUnits="strokeWidth">
      <polyline fill="darkblue" points="0,0 2,0.7 0,1.4 0.2,0.7"/>
    </marker>
  </defs>
  <!-- Background -->
  <rect x="0" y="0" width="202.000000" height="160.000000" fill="#f0f0f0" stroke="none"/>
  <!-- Build plate boundary (150 x 150 mm) -->
  <rect x="5.000000" y="5.000000" width="150.000000" height="150.000000"
        fill="#ffffff" stroke="#aaaaaa" stroke-width="0.2" stroke-dasharray="1,0.5"/>
  <!-- Build plate centre circle (r = 75.00 mm) -->
  <circle cx="80.000000" cy="80.000000" r="75.000000"
          fill="none" stroke="#bbbbbb" stroke-width="0.15" stroke-dasharray="0.8,0.4"/>
  <!-- Centre cross-hair -->
  <line x1="5.000000" y1="80.000000" x2="155.000000" y2="80.000000" stroke="#cccccc" stroke-width="0.1"/>
  <line x1="80.000000" y1="5.000000" x2="80.000000" y2="155.000000" stroke="#cccccc" stroke-width="0.1"/>
  <circle cx="80.000000" cy="80.000000" r="0.3" fill="#cccccc" stroke="none"/>
  <!-- Corner labels -->
  <text x="5.400000" y="4.600000" font-family="sans-serif" font-size="2" fill="#888888">0,0</text>
  <text x="154.600006" y="4.600000" font-family="sans-serif" font-size="2" fill="#888888" text-anchor="end">150,0</text>
  <text x="5.400000" y="157.199997" font-family="sans-serif" font-size="2" fill="#888888">0,150</text>
  <!-- Layer geometry -->
  <g id="geometry">
    <g class="thermal-hatch" data-segment="8" data-name="CoreNormalHatch">
      <line x1="33.86177" y1="125.54312" x2="34.86600" y2="126.19528" stroke="#228B22" stroke-width="0.04000"/>
      <line x1="33.80076" y1="125.38426" x2="34.92310" y2="126.11311" stroke="#228B22" stroke-width="0.04000"/>
      <line x1="33.73980" y1="125.22544" x2="34.98018" y2="126.03095" stroke="#228B22" stroke-width="0.04000"/>
      <line x1="33.92373" y1="125.70258" x2="34.39595" y2="126.00925" stroke="#228B22" stroke-width="0.04000"/>
      <line x1="33.67884" y1="125.06662" x2="35.03727" y2="125.94879" stroke="#228B22" stroke-width="0.04000"/>
      <line x1="33.98568" y1="125.86206" x2="34.08031" y2="125.92352" stroke="#228B22" stroke-width="0.04000"/>
      <line x1="33.61789" y1="124.90779" x2="35.09283" y2="125.86563" stroke="#228B22" stroke-width="0.04000"/>
      <line x1="33.55693" y1="124.74898" x2="35.13299" y2="125.77248" stroke="#228B22" stroke-width="0.04000"/>
      <line x1="33.50791" y1="124.59790" x2="35.17315" y2="125.67932" stroke="#228B22" stroke-width="0.04000"/>
      <line x1="33.46326" y1="124.44967" x2="35.21331" y2="125.58616" stroke="#228B22" stroke-width="0.04000"/>
      <line x1="33.41861" y1="124.30144" x2="35.25346" y2="125.49300" stroke="#228B22" stroke-width="0.04000"/>
      <line x1="33.37396" y1="124.15321" x2="35.29362" y2="125.39985" stroke="#228B22" stroke-width="0.04000"/>
      <line x1="33.32932" y1="124.00498" x2="35.33378" y2="125.30669" stroke="#228B22" stroke-width="0.04000"/>
      <line x1="33.28466" y1="123.85674" x2="35.37204" y2="125.21230" stroke="#228B22" stroke-width="0.04000"/>
      <line x1="33.24045" y1="123.70879" x2="35.38183" y2="125.09942" stroke="#228B22" stroke-width="0.04000"/>
      <line x1="33.19888" y1="123.56257" x2="35.39162" y2="124.98655" stroke="#228B22" stroke-width="0.04000"/>
      <line x1="33.15659" y1="123.41586" x2="35.40142" y2="124.87367" stroke="#228B22" stroke-width="0.04000"/>
      <line x1="33.11429" y1="123.26915" x2="35.41338" y2="124.76220" stroke="#228B22" stroke-width="0.04000"/>
      <line x1="33.07200" y1="123.12246" x2="35.42680" y2="124.65169" stroke="#228B22" stroke-width="0.04000"/>
      <line x1="33.02970" y1="122.97575" x2="35.44022" y2="124.54116" stroke="#228B22" stroke-width="0.04000"/>
      <line x1="32.98810" y1="122.82950" x2="35.45364" y2="124.43064" stroke="#228B22" stroke-width="0.04000"/>
      <line x1="32.94664" y1="122.68333" x2="35.46706" y2="124.32011" stroke="#228B22" stroke-width="0.04000"/>
      <line x1="32.90977" y1="122.54015" x2="35.48047" y2="124.20959" stroke="#228B22" stroke-width="0.04000"/>
      <line x1="32.87785" y1="122.40019" x2="35.49389" y2="124.09907" stroke="#228B22" stroke-width="0.04000"/>
      <line x1="32.84592" y1="122.26022" x2="35.50731" y2="123.98854" stroke="#228B22" stroke-width="0.04000"/>
      <line x1="32.81400" y1="122.12025" x2="35.52072" y2="123.87802" stroke="#228B22" stroke-width="0.04000"/>
      <line x1="32.78208" y1="121.98029" x2="35.53414" y2="123.76749" stroke="#228B22" stroke-width="0.04000"/>
      <line x1="32.74560" y1="121.83736" x2="35.53935" y2="123.65164" stroke="#228B22" stroke-width="0.04000"/>
      <line x1="32.70625" y1="121.69258" x2="35.54494" y2="123.53604" stroke="#228B22" stroke-width="0.04000"/>
      <line x1="32.66690" y1="121.54778" x2="35.55053" y2="123.42043" stroke="#228B22" stroke-width="0.04000"/>
      <line x1="32.63634" y1="121.40869" x2="35.55613" y2="123.30482" stroke="#228B22" stroke-width="0.04000"/>
      <line x1="32.60597" y1="121.26974" x2="35.56171" y2="123.18922" stroke="#228B22" stroke-width="0.04000"/>
      <line x1="32.57561" y1="121.13078" x2="35.56731" y2="123.07362" stroke="#228B22" stroke-width="0.04000"/>
      <line x1="32.54525" y1="120.99184" x2="35.57290" y2="122.95802" stroke="#228B22" stroke-width="0.04000"/>
      <line x1="32.51515" y1="120.85305" x2="35.57849" y2="122.84241" stroke="#228B22" stroke-width="0.04000"/>
      <line x1="32.48515" y1="120.71433" x2="35.58408" y2="122.72681" stroke="#228B22" stroke-width="0.04000"/>
      <line x1="32.45515" y1="120.57562" x2="35.59539" y2="122.61491" stroke="#228B22" stroke-width="0.04000"/>
      <line x1="32.42516" y1="120.43690" x2="35.60834" y2="122.50408" stroke="#228B22" stroke-width="0.04000"/>
      <line x1="32.39849" y1="120.30035" x2="35.62128" y2="122.39325" stroke="#228B22" stroke-width="0.04000"/>
      <line x1="32.37366" y1="120.16499" x2="35.63422" y2="122.28242" stroke="#228B22" stroke-width="0.04000"/>
      <line x1="32.34883" y1="120.02962" x2="35.64716" y2="122.17159" stroke="#228B22" stroke-width="0.04000"/>
      <line x1="32.32401" y1="119.89427" x2="35.66010" y2="122.06076" stroke="#228B22" stroke-width="0.04000"/>
      <line x1="32.29874" y1="119.75862" x2="35.67181" y2="121.94912" stroke="#228B22" stroke-width="0.04000"/>
      <line x1="32.27340" y1="119.62293" x2="35.67634" y2="121.83282" stroke="#228B22" stroke-width="0.04000"/>
      <line x1="32.24806" y1="119.48724" x2="35.68086" y2="121.71653" stroke="#228B22" stroke-width="0.04000"/>
      <line x1="32.22272" y1="119.35154" x2="35.68633" y2="121.60085" stroke="#228B22" stroke-width="0.04000"/>
      <line x1="32.19737" y1="119.21585" x2="35.69885" y2="121.48973" stroke="#228B22" stroke-width="0.04000"/>
      <line x1="32.17194" y1="119.08010" x2="35.71136" y2="121.37863" stroke="#228B22" stroke-width="0.04000"/>
      <line x1="32.14619" y1="118.94414" x2="35.72388" y2="121.26752" stroke="#228B22" stroke-width="0.04000"/>
      <line x1="32.11829" y1="118.80679" x2="35.73640" y2="121.15641" stroke="#228B22" stroke-width="0.04000"/>
      <line x1="32.09023" y1="118.66932" x2="35.74892" y2="121.04530" stroke="#228B22" stroke-width="0.04000"/>
      <line x1="32.06216" y1="118.53186" x2="35.76143" y2="120.93419" stroke="#228B22" stroke-width="0.04000"/>
      <line x1="32.03150" y1="118.39272" x2="35.77395" y2="120.82309" stroke="#228B22" stroke-width="0.04000"/>
      <line x1="31.98695" y1="118.24454" x2="35.78640" y2="120.71194" stroke="#228B22" stroke-width="0.04000"/>
      <line x1="31.94240" y1="118.09637" x2="35.79599" y2="120.59892" stroke="#228B22" stroke-width="0.04000"/>
      <line x1="31.88930" y1="117.94266" x2="35.80795" y2="120.48746" stroke="#228B22" stroke-width="0.04000"/>
      <line x1="31.80164" y1="117.76649" x2="35.81989" y2="120.37597" stroke="#228B22" stroke-width="0.04000"/>
      <line x1="31.73130" y1="117.60159" x2="35.83182" y2="120.26449" stroke="#228B22" stroke-width="0.04000"/>
      <line x1="31.66097" y1="117.43667" x2="35.84376" y2="120.15300" stroke="#228B22" stroke-width="0.04000"/>
      <line x1="31.59063" y1="117.27175" x2="35.85569" y2="120.04151" stroke="#228B22" stroke-width="0.04000"/>
      <line x1="31.50797" y1="117.09884" x2="35.86762" y2="119.93003" stroke="#228B22" stroke-width="0.04000"/>
      <line x1="31.40253" y1="116.91113" x2="35.87956" y2="119.81854" stroke="#228B22" stroke-width="0.04000"/>
      <line x1="31.29709" y1="116.72342" x2="35.89149" y2="119.70705" stroke="#228B22" stroke-width="0.04000"/>
      <line x1="31.19409" y1="116.53729" x2="35.90268" y2="119.59509" stroke="#228B22" stroke-width="0.04000"/>
      <line x1="31.10648" y1="116.36116" x2="35.91256" y2="119.48227" stroke="#228B22" stroke-width="0.04000"/>
      <line x1="31.00404" y1="116.17540" x2="35.92244" y2="119.36945" stroke="#228B22" stroke-width="0.04000"/>
      <line x1="30.89977" y1="115.98845" x2="35.93232" y2="119.25662" stroke="#228B22" stroke-width="0.04000"/>
      <line x1="30.83126" y1="115.82472" x2="35.94220" y2="119.14380" stroke="#228B22" stroke-width="0.04000"/>
      <line x1="30.77079" y1="115.66622" x2="35.95208" y2="119.03098" stroke="#228B22" stroke-width="0.04000"/>
      <line x1="30.72048" y1="115.51431" x2="35.96169" y2="118.91799" stroke="#228B22" stroke-width="0.04000"/>
      <line x1="30.71411" y1="115.39093" x2="35.97101" y2="118.80480" stroke="#228B22" stroke-width="0.04000"/>
      <line x1="30.70324" y1="115.26464" x2="35.98032" y2="118.69162" stroke="#228B22" stroke-width="0.04000"/>
      <line x1="30.68711" y1="115.13493" x2="35.98964" y2="118.57843" stroke="#228B22" stroke-width="0.04000"/>
      <line x1="30.67098" y1="115.00522" x2="35.99807" y2="118.46468" stroke="#228B22" stroke-width="0.04000"/>
      <line x1="30.65485" y1="114.87550" x2="36.00594" y2="118.35055" stroke="#228B22" stroke-width="0.04000"/>
      <line x1="30.63872" y1="114.74579" x2="36.01382" y2="118.23643" stroke="#228B22" stroke-width="0.04000"/>
      <line x1="30.62259" y1="114.61608" x2="36.01478" y2="118.11781" stroke="#228B22" stroke-width="0.04000"/>
      <line x1="30.64037" y1="114.50839" x2="36.00433" y2="117.99179" stroke="#228B22" stroke-width="0.04000"/>
      <line x1="30.66343" y1="114.40413" x2="35.99389" y2="117.86577" stroke="#228B22" stroke-width="0.04000"/>
      <line x1="30.68649" y1="114.29987" x2="35.98344" y2="117.73975" stroke="#228B22" stroke-width="0.04000"/>
      <line x1="30.70955" y1="114.19560" x2="35.97300" y2="117.61373" stroke="#228B22" stroke-width="0.04000"/>
      <line x1="30.73224" y1="114.09111" x2="35.96651" y2="117.49029" stroke="#228B22" stroke-width="0.04000"/>
      <line x1="30.73938" y1="113.97652" x2="35.96620" y2="117.37085" stroke="#228B22" stroke-width="0.04000"/>
      <line x1="30.74653" y1="113.86192" x2="35.96590" y2="117.25141" stroke="#228B22" stroke-width="0.04000"/>
      <line x1="30.75368" y1="113.74732" x2="35.96559" y2="117.13198" stroke="#228B22" stroke-width="0.04000"/>
      <line x1="30.76082" y1="113.63273" x2="35.96528" y2="117.01254" stroke="#228B22" stroke-width="0.04000"/>
      <line x1="30.77655" y1="113.52370" x2="35.96497" y2="116.89310" stroke="#228B22" stroke-width="0.04000"/>
      <line x1="30.79265" y1="113.41492" x2="35.96467" y2="116.77367" stroke="#228B22" stroke-width="0.04000"/>
      <line x1="30.80876" y1="113.30614" x2="35.96436" y2="116.65424" stroke="#228B22" stroke-width="0.04000"/>
      <line x1="30.82486" y1="113.19737" x2="35.96287" y2="116.53403" stroke="#228B22" stroke-width="0.04000"/>
      <line x1="30.84096" y1="113.08859" x2="35.95822" y2="116.41177" stroke="#228B22" stroke-width="0.04000"/>
      <line x1="30.85707" y1="112.97980" x2="35.93837" y2="116.27964" stroke="#228B22" stroke-width="0.04000"/>
      <line x1="30.87317" y1="112.87103" x2="35.91198" y2="116.14327" stroke="#228B22" stroke-width="0.04000"/>
      <line x1="30.89468" y1="112.76576" x2="35.88559" y2="116.00690" stroke="#228B22" stroke-width="0.04000"/>
      <line x1="30.92569" y1="112.66667" x2="35.85920" y2="115.87053" stroke="#228B22" stroke-width="0.04000"/>
      <line x1="30.95503" y1="112.56648" x2="35.83282" y2="115.73415" stroke="#228B22" stroke-width="0.04000"/>
      <line x1="30.98655" y1="112.46771" x2="35.80643" y2="115.59778" stroke="#228B22" stroke-width="0.04000"/>
      <line x1="31.01806" y1="112.36894" x2="35.78004" y2="115.46141" stroke="#228B22" stroke-width="0.04000"/>
      <line x1="31.04958" y1="112.27017" x2="35.75558" y2="115.32629" stroke="#228B22" stroke-width="0.04000"/>
      <line x1="31.08110" y1="112.17140" x2="35.73135" y2="115.19131" stroke="#228B22" stroke-width="0.04000"/>
      <line x1="31.11261" y1="112.07264" x2="35.70712" y2="115.05634" stroke="#228B22" stroke-width="0.04000"/>
      <line x1="31.14413" y1="111.97386" x2="35.68288" y2="114.92136" stroke="#228B22" stroke-width="0.04000"/>
      <line x1="31.17564" y1="111.87510" x2="35.65865" y2="114.78640" stroke="#228B22" stroke-width="0.04000"/>
      <line x1="31.20716" y1="111.77633" x2="35.63442" y2="114.65143" stroke="#228B22" stroke-width="0.04000"/>
      <line x1="31.23500" y1="111.67517" x2="35.60624" y2="114.51389" stroke="#228B22" stroke-width="0.04000"/>
      <line x1="31.26059" y1="111.57255" x2="35.57685" y2="114.37556" stroke="#228B22" stroke-width="0.04000"/>
      <line x1="31.28617" y1="111.46992" x2="35.52201" y2="114.22071" stroke="#228B22" stroke-width="0.04000"/>
      <line x1="31.33786" y1="111.38425" x2="35.46716" y2="114.06586" stroke="#228B22" stroke-width="0.04000"/>
      <line x1="31.39570" y1="111.30259" x2="35.41233" y2="113.91101" stroke="#228B22" stroke-width="0.04000"/>
      <line x1="31.45355" y1="111.22092" x2="35.35748" y2="113.75616" stroke="#228B22" stroke-width="0.04000"/>
      <line x1="31.51140" y1="111.13925" x2="35.30264" y2="113.60132" stroke="#228B22" stroke-width="0.04000"/>
      <line x1="31.56925" y1="111.05758" x2="35.24840" y2="113.44685" stroke="#228B22" stroke-width="0.04000"/>
      <line x1="31.62710" y1="110.97591" x2="35.19444" y2="113.29256" stroke="#228B22" stroke-width="0.04000"/>
      <line x1="31.68494" y1="110.89424" x2="35.13765" y2="113.13646" stroke="#228B22" stroke-width="0.04000"/>
      <line x1="31.73396" y1="110.80684" x2="35.07957" y2="112.97950" stroke="#228B22" stroke-width="0.04000"/>
      <line x1="31.78228" y1="110.71897" x2="35.02148" y2="112.82254" stroke="#228B22" stroke-width="0.04000"/>
      <line x1="31.83059" y1="110.63112" x2="34.96341" y2="112.66559" stroke="#228B22" stroke-width="0.04000"/>
      <line x1="31.87890" y1="110.54325" x2="34.90532" y2="112.50863" stroke="#228B22" stroke-width="0.04000"/>
      <line x1="31.92721" y1="110.45539" x2="34.84061" y2="112.34737" stroke="#228B22" stroke-width="0.04000"/>
      <line x1="31.98630" y1="110.37452" x2="34.76553" y2="112.17938" stroke="#228B22" stroke-width="0.04000"/>
      <line x1="32.08480" y1="110.31925" x2="34.68433" y2="112.00741" stroke="#228B22" stroke-width="0.04000"/>
      <line x1="32.18330" y1="110.26399" x2="34.60316" y2="111.83546" stroke="#228B22" stroke-width="0.04000"/>
      <line x1="32.28181" y1="110.20872" x2="34.52198" y2="111.66351" stroke="#228B22" stroke-width="0.04000"/>
      <line x1="32.38031" y1="110.15345" x2="34.44080" y2="111.49155" stroke="#228B22" stroke-width="0.04000"/>
      <line x1="32.47655" y1="110.09672" x2="34.31657" y2="111.29164" stroke="#228B22" stroke-width="0.04000"/>
      <line x1="32.56768" y1="110.03666" x2="34.14769" y2="111.06273" stroke="#228B22" stroke-width="0.04000"/>
      <line x1="32.65880" y1="109.97660" x2="34.01352" y2="110.85636" stroke="#228B22" stroke-width="0.04000"/>
      <line x1="32.74993" y1="109.91654" x2="33.89772" y2="110.66193" stroke="#228B22" stroke-width="0.04000"/>
      <line x1="33.33154" y1="110.17501" x2="33.78193" y2="110.46749" stroke="#228B22" stroke-width="0.04000"/>
    </g>
    <g class="thermal-hatch" data-segment="8" data-name="CoreNormalHatch">
      <line x1="38.00778" y1="106.08215" x2="47.01368" y2="111.93065" stroke="#228B22" stroke-width="0.04000"/>
      <line x1="38.04267" y1="105.98557" x2="47.19551" y2="111.92950" stroke="#228B22" stroke-width="0.04000"/>
      <line x1="38.07774" y1="105.88911" x2="47.37165" y2="111.92464" stroke="#228B22" stroke-width="0.04000"/>
      <line x1="37.97291" y1="106.17875" x2="46.81647" y2="111.92181" stroke="#228B22" stroke-width="0.04000"/>
      <line x1="38.11280" y1="105.79265" x2="47.53727" y2="111.91297" stroke="#228B22" stroke-width="0.04000"/>
      <line x1="37.93805" y1="106.27534" x2="46.61473" y2="111.91005" stroke="#228B22" stroke-width="0.04000"/>
      <line x1="38.14787" y1="105.69618" x2="47.70290" y2="111.90129" stroke="#228B22" stroke-width="0.04000"/>
      <line x1="37.91785" y1="106.38145" x2="46.41300" y2="111.89828" stroke="#228B22" stroke-width="0.04000"/>
      <line x1="38.18295" y1="105.59972" x2="47.86853" y2="111.88962" stroke="#228B22" stroke-width="0.04000"/>
      <line x1="37.96011" y1="106.52814" x2="46.21127" y2="111.88651" stroke="#228B22" stroke-width="0.04000"/>
      <line x1="38.00237" y1="106.67481" x2="46.00801" y2="111.87374" stroke="#228B22" stroke-width="0.04000"/>
      <line x1="38.21801" y1="105.50326" x2="48.01574" y2="111.86597" stroke="#228B22" stroke-width="0.04000"/>
      <line x1="38.04462" y1="106.82150" x2="45.80024" y2="111.85805" stroke="#228B22" stroke-width="0.04000"/>
      <line x1="38.08689" y1="106.96818" x2="45.59246" y2="111.84236" stroke="#228B22" stroke-width="0.04000"/>
      <line x1="38.30498" y1="105.44051" x2="48.14844" y2="111.83292" stroke="#228B22" stroke-width="0.04000"/>
      <line x1="38.12960" y1="107.11515" x2="45.38470" y2="111.82667" stroke="#228B22" stroke-width="0.04000"/>
      <line x1="38.39212" y1="105.37785" x2="48.29967" y2="111.81189" stroke="#228B22" stroke-width="0.04000"/>
      <line x1="38.17284" y1="107.26247" x2="45.17430" y2="111.80927" stroke="#228B22" stroke-width="0.04000"/>
      <line x1="38.47926" y1="105.31521" x2="48.45732" y2="111.79504" stroke="#228B22" stroke-width="0.04000"/>
      <line x1="38.56641" y1="105.25256" x2="48.61497" y2="111.77818" stroke="#228B22" stroke-width="0.04000"/>
      <line x1="38.65411" y1="105.19028" x2="48.77263" y2="111.76133" stroke="#228B22" stroke-width="0.04000"/>
      <line x1="38.27047" y1="107.44511" x2="44.90785" y2="111.75547" stroke="#228B22" stroke-width="0.04000"/>
      <line x1="38.74546" y1="105.13038" x2="48.93028" y2="111.74447" stroke="#228B22" stroke-width="0.04000"/>
      <line x1="38.83682" y1="105.07046" x2="49.05709" y2="111.70758" stroke="#228B22" stroke-width="0.04000"/>
      <line x1="38.42205" y1="107.66278" x2="44.62274" y2="111.68955" stroke="#228B22" stroke-width="0.04000"/>
      <line x1="38.92817" y1="105.01055" x2="49.17231" y2="111.66318" stroke="#228B22" stroke-width="0.04000"/>
      <line x1="38.57364" y1="107.88046" x2="44.33761" y2="111.62363" stroke="#228B22" stroke-width="0.04000"/>
      <line x1="39.01952" y1="104.95064" x2="49.28754" y2="111.61877" stroke="#228B22" stroke-width="0.04000"/>
      <line x1="39.15996" y1="104.92260" x2="49.41075" y2="111.57954" stroke="#228B22" stroke-width="0.04000"/>
      <line x1="39.31307" y1="104.90280" x2="49.54396" y2="111.54682" stroke="#228B22" stroke-width="0.04000"/>
      <line x1="38.83411" y1="108.16885" x2="44.02536" y2="111.54008" stroke="#228B22" stroke-width="0.04000"/>
      <line x1="39.46619" y1="104.88300" x2="49.67719" y2="111.51410" stroke="#228B22" stroke-width="0.04000"/>
      <line x1="39.61930" y1="104.86320" x2="49.81041" y2="111.48138" stroke="#228B22" stroke-width="0.04000"/>
      <line x1="39.09590" y1="108.45809" x2="43.71271" y2="111.45628" stroke="#228B22" stroke-width="0.04000"/>
      <line x1="39.76574" y1="104.83906" x2="49.91233" y2="111.42834" stroke="#228B22" stroke-width="0.04000"/>
      <line x1="39.91080" y1="104.81403" x2="49.99160" y2="111.36057" stroke="#228B22" stroke-width="0.04000"/>
      <line x1="40.05587" y1="104.78899" x2="50.07087" y2="111.29281" stroke="#228B22" stroke-width="0.04000"/>
      <line x1="39.39052" y1="108.76866" x2="43.22874" y2="111.26123" stroke="#228B22" stroke-width="0.04000"/>
      <line x1="40.35512" y1="104.86410" x2="50.15013" y2="111.22505" stroke="#228B22" stroke-width="0.04000"/>
      <line x1="40.72327" y1="104.98393" x2="50.22940" y2="111.15729" stroke="#228B22" stroke-width="0.04000"/>
      <line x1="43.10642" y1="106.41234" x2="50.30866" y2="111.08953" stroke="#228B22" stroke-width="0.04000"/>
      <line x1="43.81476" y1="106.75311" x2="50.38793" y2="111.02177" stroke="#228B22" stroke-width="0.04000"/>
      <line x1="39.79165" y1="109.14839" x2="42.57730" y2="110.95741" stroke="#228B22" stroke-width="0.04000"/>
      <line x1="44.18351" y1="106.87334" x2="50.46719" y2="110.95401" stroke="#228B22" stroke-width="0.04000"/>
      <line x1="44.43879" y1="106.91988" x2="50.54646" y2="110.88625" stroke="#228B22" stroke-width="0.04000"/>
      <line x1="44.68244" y1="106.95887" x2="50.60854" y2="110.80733" stroke="#228B22" stroke-width="0.04000"/>
      <line x1="44.97548" y1="107.02994" x2="50.51627" y2="110.62817" stroke="#228B22" stroke-width="0.04000"/>
      <line x1="40.56611" y1="109.77057" x2="41.78918" y2="110.56483" stroke="#228B22" stroke-width="0.04000"/>
      <line x1="45.26853" y1="107.10101" x2="50.42276" y2="110.44821" stroke="#228B22" stroke-width="0.04000"/>
      <line x1="45.55185" y1="107.16576" x2="50.32926" y2="110.26825" stroke="#228B22" stroke-width="0.04000"/>
      <line x1="46.72192" y1="107.80638" x2="50.23577" y2="110.08830" stroke="#228B22" stroke-width="0.04000"/>
      <line x1="47.08712" y1="107.92431" x2="50.14273" y2="109.90865" stroke="#228B22" stroke-width="0.04000"/>
      <line x1="47.42015" y1="108.02134" x2="50.05042" y2="109.72946" stroke="#228B22" stroke-width="0.04000"/>
      <line x1="47.74390" y1="108.11236" x2="49.39507" y2="109.18463" stroke="#228B22" stroke-width="0.04000"/>
      <line x1="48.14141" y1="108.25126" x2="49.24527" y2="108.96812" stroke="#228B22" stroke-width="0.04000"/>
      <line x1="48.46247" y1="108.34052" x2="49.06611" y2="108.73254" stroke="#228B22" stroke-width="0.04000"/>
      <line x1="45.82351" y1="107.22295" x2="46.68262" y2="107.78087" stroke="#228B22" stroke-width="0.04000"/>
      <line x1="46.10126" y1="107.28408" x2="46.40323" y2="107.48019" stroke="#228B22" stroke-width="0.04000"/>
      <line x1="41.01273" y1="105.05268" x2="42.11928" y2="105.77129" stroke="#228B22" stroke-width="0.04000"/>
    </g>
    <g class="thermal-hatch" data-segment="8" data-name="CoreNormalHatch">
      <line x1="33.16350" y1="110.41710" x2="33.50760" y2="110.57390" stroke="#228B22" stroke-width="0.04000"/>
      <line x1="33.50760" y1="110.57390" x2="33.84730" y2="111.14420" stroke="#228B22" stroke-width="0.04000"/>
      <line x1="33.84730" y1="111.14420" x2="34.14940" y2="111.55370" stroke="#228B22" stroke-width="0.04000"/>
      <line x1="34.14940" y1="111.55370" x2="34.50040" y2="112.29700" stroke="#228B22" stroke-width="0.04000"/>
      <line x1="34.50040" y1="112.29700" x2="34.53840" y2="112.37750" stroke="#228B22" stroke-width="0.04000"/>
      <line x1="34.53840" y1="112.37750" x2="34.60890" y2="112.54370" stroke="#228B22" stroke-width="0.04000"/>
      <line x1="34.60890" y1="112.54370" x2="34.90490" y2="113.34300" stroke="#228B22" stroke-width="0.04000"/>
      <line x1="34.90490" y1="113.34300" x2="34.90490" y2="113.34310" stroke="#228B22" stroke-width="0.04000"/>
      <line x1="34.90490" y1="113.34310" x2="35.01120" y2="113.64700" stroke="#228B22" stroke-width="0.04000"/>
      <line x1="35.01120" y1="113.64700" x2="35.30530" y2="114.47760" stroke="#228B22" stroke-width="0.04000"/>
      <line x1="35.30530" y1="114.47760" x2="35.31990" y2="114.56170" stroke="#228B22" stroke-width="0.04000"/>
      <line x1="35.31990" y1="114.56170" x2="35.34440" y2="114.67630" stroke="#228B22" stroke-width="0.04000"/>
      <line x1="35.34440" y1="114.67630" x2="35.49210" y2="115.49980" stroke="#228B22" stroke-width="0.04000"/>
      <line x1="35.49210" y1="115.49980" x2="35.66780" y2="116.40890" stroke="#228B22" stroke-width="0.04000"/>
      <line x1="35.66780" y1="116.40890" x2="35.67090" y2="116.48300" stroke="#228B22" stroke-width="0.04000"/>
      <line x1="35.67090" y1="116.48300" x2="35.67410" y2="116.57030" stroke="#228B22" stroke-width="0.04000"/>
      <line x1="35.67410" y1="116.57030" x2="35.67660" y2="117.54920" stroke="#228B22" stroke-width="0.04000"/>
      <line x1="35.67660" y1="117.54920" x2="35.72760" y2="118.16740" stroke="#228B22" stroke-width="0.04000"/>
      <line x1="35.72760" y1="118.16740" x2="35.70420" y2="118.51050" stroke="#228B22" stroke-width="0.04000"/>
      <line x1="35.70420" y1="118.51050" x2="35.66820" y2="118.94680" stroke="#228B22" stroke-width="0.04000"/>
      <line x1="35.66820" y1="118.94680" x2="35.61080" y2="119.60540" stroke="#228B22" stroke-width="0.04000"/>
      <line x1="35.61080" y1="119.60540" x2="35.51020" y2="120.54490" stroke="#228B22" stroke-width="0.04000"/>
      <line x1="35.51020" y1="120.54490" x2="35.50150" y2="120.62520" stroke="#228B22" stroke-width="0.04000"/>
      <line x1="35.50150" y1="120.62520" x2="35.49710" y2="120.68790" stroke="#228B22" stroke-width="0.04000"/>
      <line x1="35.49710" y1="120.68790" x2="35.39550" y2="121.59190" stroke="#228B22" stroke-width="0.04000"/>
      <line x1="35.39550" y1="121.59190" x2="35.38170" y2="121.94310" stroke="#228B22" stroke-width="0.04000"/>
      <line x1="35.38170" y1="121.94310" x2="35.29620" y2="122.67730" stroke="#228B22" stroke-width="0.04000"/>
      <line x1="35.29620" y1="122.67730" x2="35.24880" y2="123.65580" stroke="#228B22" stroke-width="0.04000"/>
      <line x1="35.24880" y1="123.65580" x2="35.24430" y2="123.72130" stroke="#228B22" stroke-width="0.04000"/>
      <line x1="35.24430" y1="123.72130" x2="35.24420" y2="123.74870" stroke="#228B22" stroke-width="0.04000"/>
      <line x1="35.24420" y1="123.74870" x2="35.11680" y2="124.79850" stroke="#228B22" stroke-width="0.04000"/>
      <line x1="35.11680" y1="124.79850" x2="35.08630" y2="125.14750" stroke="#228B22" stroke-width="0.04000"/>
      <line x1="35.08630" y1="125.14750" x2="34.83430" y2="125.73240" stroke="#228B22" stroke-width="0.04000"/>
      <line x1="34.83430" y1="125.73240" x2="34.75900" y2="125.84080" stroke="#228B22" stroke-width="0.04000"/>
      <line x1="34.75900" y1="125.84080" x2="34.62430" y2="125.77080" stroke="#228B22" stroke-width="0.04000"/>
      <line x1="34.62430" y1="125.77080" x2="34.21840" y2="125.66050" stroke="#228B22" stroke-width="0.04000"/>
      <line x1="34.21840" y1="125.66050" x2="34.12830" y2="125.42840" stroke="#228B22" stroke-width="0.04000"/>
      <line x1="34.12830" y1="125.42840" x2="34.12820" y2="125.42840" stroke="#228B22" stroke-width="0.04000"/>
      <line x1="34.12820" y1="125.42840" x2="33.82830" y2="124.64700" stroke="#228B22" stroke-width="0.04000"/>
      <line x1="33.82830" y1="124.64700" x2="33.80190" y2="124.56840" stroke="#228B22" stroke-width="0.04000"/>
      <line x1="33.80190" y1="124.56840" x2="33.56900" y2="123.79530" stroke="#228B22" stroke-width="0.04000"/>
      <line x1="33.56900" y1="123.79530" x2="33.52300" y2="123.64290" stroke="#228B22" stroke-width="0.04000"/>
      <line x1="33.52300" y1="123.64290" x2="33.51330" y2="123.60640" stroke="#228B22" stroke-width="0.04000"/>
      <line x1="33.51330" y1="123.60640" x2="33.30080" y2="122.86910" stroke="#228B22" stroke-width="0.04000"/>
      <line x1="33.30080" y1="122.86910" x2="33.20550" y2="122.53400" stroke="#228B22" stroke-width="0.04000"/>
      <line x1="33.20550" y1="122.53400" x2="33.05100" y2="121.85590" stroke="#228B22" stroke-width="0.04000"/>
      <line x1="33.05100" y1="121.85590" x2="32.94770" y2="121.47590" stroke="#228B22" stroke-width="0.04000"/>
      <line x1="32.94770" y1="121.47590" x2="32.82030" y2="120.89240" stroke="#228B22" stroke-width="0.04000"/>
      <line x1="32.82030" y1="120.89240" x2="32.82040" y2="120.89240" stroke="#228B22" stroke-width="0.04000"/>
      <line x1="32.82040" y1="120.89240" x2="32.69970" y2="120.33490" stroke="#228B22" stroke-width="0.04000"/>
      <line x1="32.69970" y1="120.33490" x2="32.60530" y2="119.82080" stroke="#228B22" stroke-width="0.04000"/>
      <line x1="32.60530" y1="119.82080" x2="32.46340" y2="119.06070" stroke="#228B22" stroke-width="0.04000"/>
      <line x1="32.46340" y1="119.06070" x2="32.42890" y2="118.87860" stroke="#228B22" stroke-width="0.04000"/>
      <line x1="32.42890" y1="118.87860" x2="32.32010" y2="118.34500" stroke="#228B22" stroke-width="0.04000"/>
      <line x1="32.32010" y1="118.34500" x2="32.17390" y2="117.85960" stroke="#228B22" stroke-width="0.04000"/>
      <line x1="32.17390" y1="117.85960" x2="32.09090" y2="117.70580" stroke="#228B22" stroke-width="0.04000"/>
      <line x1="32.09090" y1="117.70580" x2="31.80570" y2="117.03650" stroke="#228B22" stroke-width="0.04000"/>
      <line x1="31.80570" y1="117.03650" x2="31.46040" y2="116.42190" stroke="#228B22" stroke-width="0.04000"/>
      <line x1="31.46040" y1="116.42190" x2="31.35350" y2="116.20650" stroke="#228B22" stroke-width="0.04000"/>
      <line x1="31.35350" y1="116.20650" x2="31.14360" y2="115.83070" stroke="#228B22" stroke-width="0.04000"/>
      <line x1="31.14360" y1="115.83070" x2="31.00900" y2="115.47740" stroke="#228B22" stroke-width="0.04000"/>
      <line x1="31.00900" y1="115.47740" x2="30.99980" y2="115.29890" stroke="#228B22" stroke-width="0.04000"/>
      <line x1="30.99980" y1="115.29890" x2="30.91420" y2="114.61240" stroke="#228B22" stroke-width="0.04000"/>
      <line x1="30.91420" y1="114.61240" x2="31.02010" y2="114.13440" stroke="#228B22" stroke-width="0.04000"/>
      <line x1="31.02010" y1="114.13440" x2="31.04960" y2="113.65780" stroke="#228B22" stroke-width="0.04000"/>
      <line x1="31.04960" y1="113.65780" x2="31.16710" y2="112.86510" stroke="#228B22" stroke-width="0.04000"/>
      <line x1="31.16710" y1="112.86510" x2="31.18470" y2="112.81460" stroke="#228B22" stroke-width="0.04000"/>
      <line x1="31.18470" y1="112.81460" x2="31.22880" y2="112.66270" stroke="#228B22" stroke-width="0.04000"/>
      <line x1="31.22880" y1="112.66270" x2="31.49830" y2="111.81790" stroke="#228B22" stroke-width="0.04000"/>
      <line x1="31.49830" y1="111.81790" x2="31.55910" y2="111.57330" stroke="#228B22" stroke-width="0.04000"/>
      <line x1="31.55910" y1="111.57330" x2="31.93540" y2="111.04240" stroke="#228B22" stroke-width="0.04000"/>
      <line x1="31.93540" y1="111.04240" x2="32.17920" y2="110.59850" stroke="#228B22" stroke-width="0.04000"/>
      <line x1="32.17920" y1="110.59850" x2="32.59940" y2="110.36300" stroke="#228B22" stroke-width="0.04000"/>
      <line x1="32.59940" y1="110.36300" x2="32.83920" y2="110.20470" stroke="#228B22" stroke-width="0.04000"/>
      <line x1="32.83920" y1="110.20470" x2="33.16350" y2="110.41710" stroke="#228B22" stroke-width="0.04000"/>
      <line x1="40.68250" y1="105.27560" x2="41.02370" y2="105.35250" stroke="#228B22" stroke-width="0.04000"/>
      <line x1="41.02370" y1="105.35250" x2="41.64450" y2="105.77780" stroke="#228B22" stroke-width="0.04000"/>
      <line x1="41.64450" y1="105.77780" x2="41.79730" y2="105.86530" stroke="#228B22" stroke-width="0.04000"/>
      <line x1="41.79730" y1="105.86530" x2="42.05050" y2="106.10590" stroke="#228B22" stroke-width="0.04000"/>
      <line x1="42.05050" y1="106.10590" x2="42.52400" y2="106.44350" stroke="#228B22" stroke-width="0.04000"/>
      <line x1="42.52400" y1="106.44350" x2="42.97560" y2="106.67110" stroke="#228B22" stroke-width="0.04000"/>
      <line x1="42.97560" y1="106.67110" x2="43.38770" y2="106.91090" stroke="#228B22" stroke-width="0.04000"/>
      <line x1="43.38770" y1="106.91090" x2="44.05300" y2="107.14350" stroke="#228B22" stroke-width="0.04000"/>
      <line x1="44.05300" y1="107.14350" x2="44.35750" y2="107.20180" stroke="#228B22" stroke-width="0.04000"/>
      <line x1="44.35750" y1="107.20180" x2="44.55980" y2="107.22750" stroke="#228B22" stroke-width="0.04000"/>
      <line x1="44.55980" y1="107.22750" x2="45.36400" y2="107.42250" stroke="#228B22" stroke-width="0.04000"/>
      <line x1="45.36400" y1="107.42250" x2="45.99560" y2="107.55560" stroke="#228B22" stroke-width="0.04000"/>
      <line x1="45.99560" y1="107.55560" x2="46.10690" y2="107.58730" stroke="#228B22" stroke-width="0.04000"/>
      <line x1="46.10690" y1="107.58730" x2="46.53870" y2="108.05200" stroke="#228B22" stroke-width="0.04000"/>
      <line x1="46.53870" y1="108.05200" x2="47.08500" y2="108.22850" stroke="#228B22" stroke-width="0.04000"/>
      <line x1="47.08500" y1="108.22850" x2="47.73400" y2="108.41070" stroke="#228B22" stroke-width="0.04000"/>
      <line x1="47.73400" y1="108.41070" x2="48.03080" y2="108.52150" stroke="#228B22" stroke-width="0.04000"/>
      <line x1="48.03080" y1="108.52150" x2="48.53520" y2="108.66150" stroke="#228B22" stroke-width="0.04000"/>
      <line x1="48.53520" y1="108.66150" x2="48.73160" y2="108.82390" stroke="#228B22" stroke-width="0.04000"/>
      <line x1="48.73160" y1="108.82390" x2="48.73160" y2="108.82380" stroke="#228B22" stroke-width="0.04000"/>
      <line x1="48.73160" y1="108.82380" x2="48.88900" y2="108.96300" stroke="#228B22" stroke-width="0.04000"/>
      <line x1="48.88900" y1="108.96300" x2="49.28660" y2="109.53750" stroke="#228B22" stroke-width="0.04000"/>
      <line x1="49.28660" y1="109.53750" x2="49.75560" y2="109.79080" stroke="#228B22" stroke-width="0.04000"/>
      <line x1="49.75560" y1="109.79080" x2="49.92130" y2="110.11200" stroke="#228B22" stroke-width="0.04000"/>
      <line x1="49.92130" y1="110.11200" x2="50.19390" y2="110.63680" stroke="#228B22" stroke-width="0.04000"/>
      <line x1="50.19390" y1="110.63680" x2="49.70210" y2="111.08520" stroke="#228B22" stroke-width="0.04000"/>
      <line x1="49.70210" y1="111.08520" x2="49.58500" y2="111.18530" stroke="#228B22" stroke-width="0.04000"/>
      <line x1="49.58500" y1="111.18530" x2="49.50630" y2="111.20460" stroke="#228B22" stroke-width="0.04000"/>
      <line x1="49.50630" y1="111.20460" x2="48.83600" y2="111.46280" stroke="#228B22" stroke-width="0.04000"/>
      <line x1="48.83600" y1="111.46280" x2="48.13190" y2="111.53820" stroke="#228B22" stroke-width="0.04000"/>
      <line x1="48.13190" y1="111.53820" x2="47.89690" y2="111.59660" stroke="#228B22" stroke-width="0.04000"/>
      <line x1="47.89690" y1="111.59660" x2="47.30040" y2="111.63870" stroke="#228B22" stroke-width="0.04000"/>
      <line x1="47.30040" y1="111.63870" x2="46.97440" y2="111.64060" stroke="#228B22" stroke-width="0.04000"/>
      <line x1="46.97440" y1="111.64060" x2="46.85810" y2="111.63390" stroke="#228B22" stroke-width="0.04000"/>
      <line x1="46.85810" y1="111.63390" x2="46.85820" y2="111.63390" stroke="#228B22" stroke-width="0.04000"/>
      <line x1="46.85820" y1="111.63390" x2="46.08170" y2="111.58830" stroke="#228B22" stroke-width="0.04000"/>
      <line x1="46.08170" y1="111.58830" x2="45.37800" y2="111.53530" stroke="#228B22" stroke-width="0.04000"/>
      <line x1="45.37800" y1="111.53530" x2="45.37810" y2="111.53530" stroke="#228B22" stroke-width="0.04000"/>
      <line x1="45.37810" y1="111.53530" x2="45.23780" y2="111.52440" stroke="#228B22" stroke-width="0.04000"/>
      <line x1="45.23780" y1="111.52440" x2="45.15530" y2="111.51500" stroke="#228B22" stroke-width="0.04000"/>
      <line x1="45.15530" y1="111.51500" x2="44.40490" y2="111.34150" stroke="#228B22" stroke-width="0.04000"/>
      <line x1="44.40490" y1="111.34150" x2="43.67410" y2="111.14570" stroke="#228B22" stroke-width="0.04000"/>
      <line x1="43.67410" y1="111.14570" x2="43.54730" y2="111.09280" stroke="#228B22" stroke-width="0.04000"/>
      <line x1="43.54730" y1="111.09280" x2="43.42240" y2="111.03170" stroke="#228B22" stroke-width="0.04000"/>
      <line x1="43.42240" y1="111.03170" x2="42.66720" y2="110.67930" stroke="#228B22" stroke-width="0.04000"/>
      <line x1="42.66720" y1="110.67930" x2="42.66710" y2="110.67930" stroke="#228B22" stroke-width="0.04000"/>
      <line x1="42.66710" y1="110.67930" x2="42.00580" y2="110.35790" stroke="#228B22" stroke-width="0.04000"/>
      <line x1="42.00580" y1="110.35790" x2="41.95690" y2="110.32700" stroke="#228B22" stroke-width="0.04000"/>
      <line x1="41.95690" y1="110.32700" x2="41.15110" y2="109.85670" stroke="#228B22" stroke-width="0.04000"/>
      <line x1="41.15110" y1="109.85670" x2="41.14520" y2="109.85240" stroke="#228B22" stroke-width="0.04000"/>
      <line x1="41.14520" y1="109.85240" x2="41.05540" y2="109.78320" stroke="#228B22" stroke-width="0.04000"/>
      <line x1="41.05540" y1="109.78320" x2="40.28190" y2="109.18320" stroke="#228B22" stroke-width="0.04000"/>
      <line x1="40.28190" y1="109.18320" x2="40.15620" y2="109.09420" stroke="#228B22" stroke-width="0.04000"/>
      <line x1="40.15620" y1="109.09420" x2="39.57530" y2="108.54430" stroke="#228B22" stroke-width="0.04000"/>
      <line x1="39.57530" y1="108.54430" x2="39.57520" y2="108.54430" stroke="#228B22" stroke-width="0.04000"/>
      <line x1="39.57520" y1="108.54430" x2="39.38260" y2="108.35660" stroke="#228B22" stroke-width="0.04000"/>
      <line x1="39.38260" y1="108.35660" x2="39.33690" y2="108.29220" stroke="#228B22" stroke-width="0.04000"/>
      <line x1="39.33690" y1="108.29220" x2="38.80310" y2="107.70260" stroke="#228B22" stroke-width="0.04000"/>
      <line x1="38.80310" y1="107.70260" x2="38.45900" y2="107.20840" stroke="#228B22" stroke-width="0.04000"/>
      <line x1="38.45900" y1="107.20840" x2="38.39610" y2="106.99390" stroke="#228B22" stroke-width="0.04000"/>
      <line x1="38.39610" y1="106.99390" x2="38.21440" y2="106.36350" stroke="#228B22" stroke-width="0.04000"/>
      <line x1="38.21440" y1="106.36350" x2="38.33120" y2="106.04060" stroke="#228B22" stroke-width="0.04000"/>
      <line x1="38.33120" y1="106.04060" x2="38.33110" y2="106.04050" stroke="#228B22" stroke-width="0.04000"/>
      <line x1="38.33110" y1="106.04050" x2="38.45990" y2="105.68600" stroke="#228B22" stroke-width="0.04000"/>
      <line x1="38.45990" y1="105.68600" x2="38.80560" y2="105.43760" stroke="#228B22" stroke-width="0.04000"/>
      <line x1="38.80560" y1="105.43760" x2="39.14140" y2="105.21730" stroke="#228B22" stroke-width="0.04000"/>
      <line x1="39.14140" y1="105.21730" x2="39.68850" y2="105.14660" stroke="#228B22" stroke-width="0.04000"/>
      <line x1="39.68850" y1="105.14660" x2="40.07890" y2="105.07910" stroke="#228B22" stroke-width="0.04000"/>
      <line x1="40.07890" y1="105.07910" x2="40.68250" y2="105.27560" stroke="#228B22" stroke-width="0.04000"/>
    </g>
    <g class="thermal-hatch" data-segment="7" data-name="CoreOverhangHatch">
      <line x1="50.25470" y1="110.75380" x2="49.73010" y2="111.20230" stroke="#FF8C00" stroke-width="0.04000"/>
      <line x1="49.73010" y1="111.20230" x2="49.26470" y2="111.31680" stroke="#FF8C00" stroke-width="0.04000"/>
      <line x1="49.26470" y1="111.31680" x2="48.90410" y2="111.45560" stroke="#FF8C00" stroke-width="0.04000"/>
      <line x1="48.90410" y1="111.45560" x2="48.83600" y2="111.46280" stroke="#FF8C00" stroke-width="0.04000"/>
      <line x1="48.83600" y1="111.46280" x2="49.50630" y2="111.20460" stroke="#FF8C00" stroke-width="0.04000"/>
      <line x1="49.50630" y1="111.20460" x2="49.58500" y2="111.18530" stroke="#FF8C00" stroke-width="0.04000"/>
      <line x1="49.58500" y1="111.18530" x2="49.70210" y2="111.08520" stroke="#FF8C00" stroke-width="0.04000"/>
      <line x1="49.70210" y1="111.08520" x2="50.19390" y2="110.63680" stroke="#FF8C00" stroke-width="0.04000"/>
      <line x1="50.19390" y1="110.63680" x2="50.25470" y2="110.75380" stroke="#FF8C00" stroke-width="0.04000"/>
    </g>
    <g class="thermal-contour" data-segment="1" data-name="CoreContour_Volume">
    <path d="M 33.3039 110.162 L 33.7106 110.348 L 34.0892 110.983 L 34.3995 111.404 L 34.7626 112.173 L 34.7626 112.173 L 34.802 112.257 L 34.8795 112.439 L 35.1775 113.244 L 35.2847 113.551 L 35.5868 114.404 L 35.6047 114.507 L 35.6286 114.619 L 35.7772 115.447 L 35.9567 116.375 L 35.9606 116.471 L 35.9641 116.569 L 35.9666 117.537 L 36.0187 118.165 L 35.9933 118.534 L 35.9573 118.971 L 35.8991 119.636 L 35.7985 120.576 L 35.7904 120.651 L 35.7863 120.713 L 35.6849 121.614 L 35.6711 121.966 L 35.5853 122.701 L 35.5382 123.676 L 35.5343 123.732 L 35.5342 123.767 L 35.4053 124.829 L 35.3714 125.219 L 35.0892 125.874 L 34.8518 126.216 L 34.5182 126.042 L 34.0012 125.902 L 33.858 125.533 L 33.555 124.744 L 33.5262 124.659 L 33.2914 123.879 L 33.2914 123.879 L 33.2435 123.72 L 33.2338 123.684 L 33.0221 122.949 L 32.9251 122.607 L 32.7697 121.926 L 32.666 121.545 L 32.537 120.954 L 32.4145 120.388 L 32.3202 119.874 L 32.1784 119.114 L 32.1784 119.114 L 32.1444 118.935 L 32.0385 118.416 L 31.9048 117.971 L 31.8296 117.832 L 31.545 117.165 L 31.206 116.561 L 31.0969 116.342 L 30.8806 115.954 L 30.7217 115.537 L 30.7107 115.324 L 30.6204 114.599 L 30.7321 114.094 L 30.7611 113.628 L 30.8844 112.796 L 30.9083 112.727 L 30.9525 112.574 L 31.2192 111.739 L 31.2911 111.45 L 31.6892 110.888 L 31.9652 110.386 L 32.4486 110.115 L 32.8389 109.858 L 33.3039 110.162" fill="none" stroke="#000000" stroke-width="0.05000" fill-rule="evenodd" fill-opacity="1.000"/>
    </g>
    <g class="thermal-contour" data-segment="1" data-name="CoreContour_Volume">
    <path d="M 40.7594 104.996 L 41.1415 105.082 L 41.7988 105.532 L 41.9719 105.631 L 42.2355 105.882 L 42.6742 106.194 L 43.1134 106.416 L 43.5095 106.646 L 44.1284 106.863 L 44.403 106.915 L 44.6131 106.942 L 45.4281 107.14 L 46.0657 107.274 L 46.2642 107.331 L 46.6997 107.799 L 47.1688 107.951 L 47.8246 108.135 L 48.1204 108.245 L 48.6729 108.399 L 48.9164 108.6 L 49.1077 108.769 L 49.4855 109.315 L 49.9725 109.578 L 50.1788 109.979 L 50.6067 110.802 L 50.6122 110.818 L 50.6171 110.827 L 50.6041 110.837 L 49.8664 111.468 L 49.3517 111.594 L 48.9733 111.74 L 48.1826 111.824 L 47.9415 111.884 L 47.3134 111.929 L 46.9684 111.931 L 46.8411 111.923 L 46.0609 111.878 L 45.3326 111.823 L 45.2069 111.813 L 45.1073 111.802 L 44.3336 111.623 L 43.5803 111.421 L 43.4306 111.358 L 43.2974 111.293 L 42.5445 110.942 L 41.8633 110.611 L 41.8061 110.575 L 40.9917 110.1 L 40.9722 110.085 L 40.8785 110.013 L 40.1093 109.416 L 39.9723 109.319 L 39.3738 108.753 L 39.161 108.546 L 39.1104 108.474 L 38.5754 107.883 L 38.1944 107.336 L 38.1096 107.047 L 37.9098 106.354 L 38.039 105.996 L 38.2181 105.503 L 38.6418 105.198 L 39.0383 104.938 L 39.6453 104.86 L 40.1007 104.781 L 40.7594 104.996" fill="none" stroke="#000000" stroke-width="0.05000" fill-rule="evenodd" fill-opacity="1.000"/>
    </g>
    <g class="thermal-contour" data-segment="1" data-name="CoreContour_Volume">
    <path d="M 33.2071 110.338 L 33.5706 110.504 L 33.9224 111.094 L 34.2272 111.508 L 34.5818 112.259 L 34.6198 112.339 L 34.6927 112.511 L 34.9899 113.313 L 35.0961 113.617 L 35.3928 114.455 L 35.4083 114.545 L 35.433 114.66 L 35.5806 115.483 L 35.7575 116.398 L 35.7608 116.479 L 35.7641 116.57 L 35.7666 117.545 L 35.8179 118.167 L 35.7939 118.518 L 35.7579 118.955 L 35.7003 119.615 L 35.5997 120.555 L 35.5912 120.633 L 35.5869 120.695 L 35.4853 121.599 L 35.4715 121.951 L 35.3859 122.685 L 35.3386 123.662 L 35.3343 123.725 L 35.3342 123.754 L 35.2063 124.808 L 35.1748 125.17 L 34.9135 125.776 L 34.7878 125.957 L 34.5914 125.855 L 34.151 125.735 L 34.0444 125.461 L 33.7434 124.677 L 33.7158 124.595 L 33.4828 123.821 L 33.4368 123.669 L 33.4266 123.63 L 33.2143 122.894 L 33.1187 122.558 L 32.9637 121.878 L 32.8602 121.497 L 32.7324 120.911 L 32.6112 120.352 L 32.6113 120.352 L 32.5168 119.837 L 32.375 119.077 L 32.3406 118.896 L 32.2327 118.367 L 32.0904 117.894 L 32.0098 117.745 L 31.7248 117.076 L 31.3814 116.465 L 31.2739 116.248 L 31.062 115.869 L 30.9199 115.496 L 30.9101 115.307 L 30.823 114.608 L 30.9307 114.122 L 30.9601 113.648 L 31.0794 112.844 L 31.0989 112.787 L 31.1431 112.635 L 31.4117 111.793 L 31.4759 111.535 L 31.859 110.995 L 32.1128 110.533 L 32.5526 110.286 L 32.8391 110.097 L 33.2071 110.338" fill="none" stroke="#000000" stroke-width="0.05000" fill-rule="evenodd" fill-opacity="1.000"/>
    <path d="M 32.5994 110.363 L 32.1792 110.599 L 31.9354 111.042 L 31.5591 111.573 L 31.4983 111.818 L 31.2288 112.663 L 31.1847 112.815 L 31.1671 112.865 L 31.0496 113.658 L 31.0201 114.134 L 30.9142 114.612 L 30.9998 115.299 L 31.009 115.477 L 31.1436 115.831 L 31.3535 116.206 L 31.4604 116.422 L 31.8057 117.036 L 32.0909 117.706 L 32.1739 117.86 L 32.3201 118.345 L 32.4289 118.879 L 32.4634 119.061 L 32.6053 119.821 L 32.6997 120.335 L 32.8204 120.892 L 32.8203 120.892 L 32.9477 121.476 L 33.051 121.856 L 33.2055 122.534 L 33.3008 122.869 L 33.5133 123.606 L 33.523 123.643 L 33.569 123.795 L 33.8019 124.568 L 33.8283 124.647 L 34.1282 125.428 L 34.1283 125.428 L 34.2184 125.66 L 34.6243 125.771 L 34.759 125.841 L 34.8343 125.732 L 35.0863 125.147 L 35.1168 124.799 L 35.2442 123.749 L 35.2443 123.721 L 35.2488 123.656 L 35.2962 122.677 L 35.3817 121.943 L 35.3955 121.592 L 35.4971 120.688 L 35.5015 120.625 L 35.5102 120.545 L 35.6108 119.605 L 35.6682 118.947 L 35.7042 118.51 L 35.7276 118.167 L 35.6766 117.549 L 35.6741 116.57 L 35.6709 116.483 L 35.6678 116.409 L 35.4921 115.5 L 35.3444 114.676 L 35.3199 114.562 L 35.3053 114.478 L 35.0112 113.647 L 34.9049 113.343 L 34.9049 113.343 L 34.6089 112.544 L 34.5384 112.378 L 34.5004 112.297 L 34.1494 111.554 L 33.8473 111.144 L 33.5076 110.574 L 33.1635 110.417 L 32.8392 110.205 L 32.5994 110.363" fill="none" stroke="#000000" stroke-width="0.05000" fill-rule="evenodd" fill-opacity="1.000"/>
    <path d="M 40.7064 105.189 L 41.0603 105.269 L 41.6924 105.701 L 41.8514 105.793 L 42.1079 106.036 L 42.5706 106.366 L 43.0186 106.592 L 43.4255 106.829 L 44.0764 107.056 L 44.3716 107.113 L 44.5764 107.139 L 45.3839 107.335 L 46.0175 107.468 L 46.1557 107.508 L 46.5887 107.974 L 47.111 108.142 L 47.7625 108.325 L 48.0586 108.436 L 48.578 108.58 L 48.789 108.755 L 48.9569 108.903 L 49.3483 109.469 L 49.7793 109.701 L 49.9849 110.1 L 50.2412 110.594 L 50.1939 110.637 L 49.9213 110.112 L 49.7556 109.791 L 49.2866 109.537 L 48.889 108.963 L 48.7316 108.824 L 48.7316 108.824 L 48.5352 108.661 L 48.0308 108.521 L 47.734 108.411 L 47.085 108.229 L 46.5387 108.052 L 46.1069 107.587 L 45.9956 107.556 L 45.364 107.423 L 44.5598 107.228 L 44.3575 107.202 L 44.053 107.144 L 43.3877 106.911 L 42.9756 106.671 L 42.524 106.443 L 42.0505 106.106 L 41.7973 105.865 L 41.6445 105.778 L 41.0237 105.353 L 40.6825 105.276 L 40.0789 105.079 L 39.6885 105.147 L 39.1414 105.217 L 38.8056 105.438 L 38.4599 105.686 L 38.3311 106.04 L 38.3312 106.041 L 38.2144 106.364 L 38.3961 106.994 L 38.459 107.208 L 38.8031 107.703 L 39.3369 108.292 L 39.3826 108.357 L 39.5752 108.544 L 39.5753 108.544 L 40.1562 109.094 L 40.2819 109.183 L 41.0554 109.783 L 41.1452 109.852 L 41.1511 109.857 L 41.9569 110.327 L 42.0058 110.358 L 42.6671 110.679 L 42.6672 110.679 L 43.4224 111.032 L 43.5473 111.093 L 43.6741 111.146 L 44.4049 111.341 L 45.1553 111.515 L 45.2378 111.524 L 45.3781 111.535 L 45.378 111.535 L 46.0817 111.588 L 46.8582 111.634 L 46.8581 111.634 L 46.9744 111.641 L 47.3004 111.639 L 47.8969 111.597 L 48.1319 111.538 L 48.836 111.463 L 48.7226 111.507 L 48.374 111.544 L 47.7841 111.691 L 47.242 111.729 L 46.9729 111.731 L 46.8529 111.724 L 46.0757 111.678 L 45.3712 111.625 L 45.2289 111.614 L 45.1397 111.604 L 44.3846 111.429 L 43.6447 111.231 L 43.5114 111.175 L 43.3836 111.113 L 42.6291 110.761 L 41.9613 110.436 L 41.9101 110.404 L 41.1013 109.932 L 41.0917 109.925 L 41.0005 109.854 L 40.2283 109.256 L 40.0989 109.164 L 39.5134 108.61 L 39.3138 108.415 L 39.2666 108.349 L 38.7324 107.759 L 38.3768 107.248 L 38.3097 107.019 L 38.1199 106.36 L 38.2271 106.064 L 38.227 106.064 L 38.3849 105.629 L 38.7562 105.362 L 39.1093 105.131 L 39.6751 105.058 L 40.0856 104.987 L 40.7064 105.189" fill="none" stroke="#000000" stroke-width="0.05000" fill-rule="evenodd" fill-opacity="1.000"/>
    </g>
    <g class="thermal-contour" data-segment="2" data-name="CoreContour_Overhang">
    <path d="M 49.8229 109.725 L 50.0012 110.071 L 50.3676 110.776 L 49.7724 111.285 L 49.2917 111.403 L 48.9255 111.544 L 48.1476 111.627 L 47.9107 111.686 L 47.3042 111.729 L 47.242 111.729 L 47.7841 111.691 L 48.374 111.544 L 48.7226 111.507 L 48.836 111.463 L 48.9041 111.456 L 49.2647 111.317 L 49.7301 111.202 L 50.2547 110.754 L 50.1939 110.637 L 50.2412 110.594 L 49.9849 110.1 L 49.7793 109.701 L 49.8229 109.725" fill="none" stroke="#8B0000" stroke-width="0.05000" fill-rule="evenodd" fill-opacity="1.000"/>
    </g>
    <g class="thermal-contour" data-segment="3" data-name="HollowShell1Contour_Volume">
    <path d="M 31.9976 117.933 L 32.1356 118.392 L 32.2425 118.915 L 32.2767 119.096 L 32.4185 119.855 L 32.5129 120.37 L 32.6347 120.933 L 32.7631 121.521 L 32.8667 121.902 L 33.0219 122.583 L 33.1182 122.922 L 33.3302 123.657 L 33.3402 123.695 L 33.3871 123.85 L 33.621 124.627 L 33.6493 124.711 L 33.9512 125.497 L 34.057 125.77 L 33.9437 125.739 L 33.8749 125.562 L 33.6727 125.035 L 33.5498 124.691 L 33.4901 124.535 L 33.2478 123.732 L 33.1133 123.224 L 33.0146 122.882 L 32.9694 122.722 L 32.763 121.817 L 32.7205 121.661 L 32.5445 120.855 L 32.4806 120.56 L 32.3357 119.77 L 32.2472 119.296 L 32.2472 119.296 L 32.1614 118.843 L 31.9887 117.997 L 31.9662 117.877 L 31.9649 117.872 L 31.9976 117.933" fill="none" stroke="#0000CC" stroke-width="0.05000" fill-rule="evenodd" fill-opacity="1.000"/>
    <path d="M 33.3039 110.162 L 33.7106 110.348 L 34.0892 110.983 L 34.3995 111.404 L 34.7626 112.173 L 34.802 112.257 L 34.8795 112.439 L 35.1775 113.244 L 35.2847 113.551 L 35.5868 114.404 L 35.6047 114.507 L 35.6286 114.619 L 35.7772 115.447 L 35.9567 116.374 L 35.9606 116.471 L 35.9641 116.57 L 35.9666 117.537 L 36.0096 118.056 L 35.9774 118.522 L 35.9158 119.272 L 35.8863 119.608 L 35.8235 120.195 L 35.7601 120.634 L 35.6819 121.397 L 35.6607 121.586 L 35.6586 121.64 L 35.5348 122.701 L 35.5144 123.122 L 35.4655 123.588 L 35.4393 123.817 L 35.3567 124.637 L 35.3266 124.885 L 35.3198 124.963 L 35.2864 125.04 L 35.3058 124.818 L 35.4342 123.76 L 35.4343 123.728 L 35.4384 123.669 L 35.4856 122.693 L 35.5713 121.958 L 35.5851 121.606 L 35.6866 120.704 L 35.6908 120.642 L 35.6991 120.565 L 35.7997 119.626 L 35.8576 118.963 L 35.8936 118.526 L 35.9183 118.166 L 35.8666 117.541 L 35.8641 116.57 L 35.8607 116.475 L 35.8571 116.386 L 35.6789 115.465 L 35.5308 114.64 L 35.5065 114.526 L 35.4898 114.429 L 35.1904 113.584 L 35.0837 113.279 L 34.7861 112.475 L 34.7109 112.298 L 34.6722 112.216 L 34.3134 111.456 L 34.0058 111.039 L 33.6406 110.426 L 33.2555 110.25 L 32.839 109.978 L 32.5006 110.201 L 32.039 110.46 L 31.7741 110.941 L 31.3835 111.493 L 31.3154 111.766 L 31.0478 112.605 L 31.0036 112.757 L 30.9819 112.82 L 30.8606 113.638 L 30.8314 114.108 L 30.7217 114.603 L 30.8104 115.316 L 30.8189 115.482 L 30.794 115.434 L 30.7351 115.252 L 30.6418 114.502 L 30.7321 114.094 L 30.7611 113.628 L 30.8844 112.796 L 30.9083 112.727 L 30.9525 112.575 L 31.2192 111.739 L 31.2911 111.45 L 31.6892 110.888 L 31.9652 110.386 L 32.4486 110.115 L 32.8389 109.858 L 33.3039 110.162" fill="none" stroke="#0000CC" stroke-width="0.05000" fill-rule="evenodd" fill-opacity="1.000"/>
    <path d="M 40.7594 104.996 L 41.1415 105.082 L 41.7988 105.532 L 41.9719 105.631 L 42.2355 105.882 L 42.6742 106.194 L 43.1134 106.416 L 43.5095 106.646 L 44.1284 106.863 L 44.403 106.915 L 44.6131 106.942 L 45.4281 107.14 L 46.0657 107.274 L 46.2642 107.331 L 46.6997 107.799 L 47.1688 107.951 L 47.8246 108.135 L 48.1204 108.245 L 48.3792 108.317 L 48.5683 108.474 L 48.0895 108.341 L 47.7937 108.23 L 47.1399 108.047 L 46.6442 107.886 L 46.2099 107.419 L 46.0414 107.371 L 45.406 107.237 L 44.5948 107.04 L 44.3873 107.014 L 44.1024 106.96 L 43.4675 106.738 L 43.066 106.504 L 42.6224 106.28 L 42.1717 105.959 L 41.9116 105.712 L 41.7456 105.617 L 41.1009 105.175 L 40.7329 105.092 L 40.0931 104.884 L 39.6602 104.959 L 39.0739 105.035 L 38.6985 105.281 L 38.3015 105.566 L 38.133 106.03 L 38.0148 106.357 L 38.2057 107.019 L 38.2056 107.019 L 38.2856 107.292 L 38.6539 107.821 L 39.1885 108.411 L 39.2373 108.48 L 39.4436 108.681 L 40.0358 109.242 L 40.1688 109.336 L 40.9395 109.934 L 41.0319 110.005 L 41.0465 110.016 L 41.8581 110.489 L 41.9122 110.524 L 42.5868 110.852 L 43.3405 111.203 L 43.471 111.267 L 43.6125 111.326 L 44.3591 111.526 L 44.8921 111.649 L 44.8416 111.643 L 44.3365 111.527 L 43.6239 111.336 L 43.4333 111.287 L 43.2137 111.213 L 42.5235 110.891 L 42.0166 110.645 L 41.7485 110.512 L 41.0595 110.107 L 40.911 110.038 L 40.8785 110.013 L 40.1093 109.416 L 39.9723 109.319 L 39.3738 108.753 L 39.161 108.546 L 39.1104 108.474 L 38.5754 107.883 L 38.1944 107.336 L 38.1096 107.047 L 37.9098 106.354 L 38.039 105.996 L 38.2181 105.503 L 38.6418 105.198 L 39.0383 104.938 L 39.6453 104.86 L 40.1007 104.781 L 40.7594 104.996" fill="none" stroke="#0000CC" stroke-width="0.05000" fill-rule="evenodd" fill-opacity="1.000"/>
    <path d="M 49.3454 109.148 L 49.471 109.33 L 49.6329 109.417 L 49.6982 109.544 L 49.4169 109.392 L 49.0952 108.927 L 49.3454 109.148" fill="none" stroke="#0000CC" stroke-width="0.05000" fill-rule="evenodd" fill-opacity="1.000"/>
    </g>
    <g class="thermal-contour" data-segment="4" data-name="HollowShell1Contour_Overhang">
    <path d="M 30.7351 115.252 L 30.794 115.434 L 30.8189 115.482 L 30.8208 115.517 L 30.9713 115.912 L 31.1854 116.295 L 31.2937 116.513 L 31.6349 117.12 L 31.9197 117.789 L 31.9649 117.872 L 31.9662 117.877 L 31.9887 117.997 L 32.1614 118.843 L 32.2472 119.296 L 32.2472 119.296 L 32.3357 119.77 L 32.4806 120.56 L 32.5445 120.855 L 32.7205 121.661 L 32.763 121.817 L 32.9694 122.722 L 33.0146 122.882 L 33.1133 123.224 L 33.2478 123.732 L 33.4901 124.535 L 33.5498 124.691 L 33.6727 125.035 L 33.8749 125.562 L 33.9437 125.739 L 34.057 125.77 L 34.0761 125.819 L 34.5548 125.949 L 34.8198 126.087 L 35.0013 125.825 L 35.2731 125.195 L 35.2864 125.04 L 35.3198 124.963 L 35.3266 124.885 L 35.3567 124.637 L 35.4393 123.817 L 35.4655 123.588 L 35.5144 123.122 L 35.5348 122.701 L 35.6586 121.64 L 35.6607 121.586 L 35.6819 121.397 L 35.7601 120.634 L 35.8235 120.195 L 35.8863 119.608 L 35.9158 119.272 L 35.9774 118.522 L 36.0096 118.056 L 36.0187 118.165 L 35.9933 118.534 L 35.9573 118.971 L 35.8991 119.636 L 35.7985 120.576 L 35.7904 120.651 L 35.7863 120.713 L 35.6849 121.614 L 35.6711 121.966 L 35.5853 122.701 L 35.5382 123.676 L 35.5343 123.732 L 35.5342 123.767 L 35.4053 124.828 L 35.3714 125.219 L 35.0892 125.874 L 34.8518 126.216 L 34.5182 126.043 L 34.0012 125.902 L 33.858 125.533 L 33.555 124.744 L 33.5262 124.659 L 33.2914 123.879 L 33.2435 123.72 L 33.2338 123.684 L 33.0221 122.949 L 32.9251 122.607 L 32.7697 121.926 L 32.666 121.545 L 32.537 120.954 L 32.4145 120.388 L 32.3202 119.874 L 32.1784 119.114 L 32.1784 119.114 L 32.1444 118.935 L 32.0385 118.416 L 31.9048 117.971 L 31.8296 117.832 L 31.545 117.165 L 31.206 116.561 L 31.0969 116.342 L 30.8806 115.954 L 30.7217 115.537 L 30.7107 115.324 L 30.6204 114.599 L 30.6418 114.502 L 30.7351 115.252" fill="none" stroke="#000080" stroke-width="0.05000" fill-rule="evenodd" fill-opacity="1.000"/>
    <path d="M 48.6729 108.399 L 48.9164 108.6 L 49.1077 108.769 L 49.4855 109.315 L 49.9725 109.578 L 50.1788 109.979 L 50.6067 110.802 L 50.6122 110.818 L 50.6171 110.827 L 50.6041 110.837 L 49.8664 111.468 L 49.3517 111.594 L 48.9733 111.74 L 48.1826 111.824 L 47.9415 111.884 L 47.3134 111.929 L 46.9684 111.931 L 46.8411 111.923 L 46.0609 111.878 L 45.3326 111.823 L 45.2069 111.813 L 45.1073 111.802 L 44.3336 111.623 L 43.5803 111.421 L 43.4306 111.358 L 43.2974 111.293 L 42.5445 110.942 L 41.8633 110.611 L 41.8061 110.575 L 40.9917 110.1 L 40.9722 110.085 L 40.911 110.038 L 41.0595 110.107 L 41.7485 110.512 L 42.0166 110.645 L 42.5235 110.891 L 43.2137 111.213 L 43.4333 111.287 L 43.6239 111.336 L 44.3365 111.527 L 44.8416 111.643 L 44.8921 111.649 L 45.1235 111.703 L 45.2179 111.714 L 45.3403 111.723 L 45.3402 111.723 L 46.0683 111.778 L 46.847 111.824 L 46.9707 111.831 L 47.3088 111.829 L 47.9261 111.785 L 48.1651 111.726 L 48.9494 111.642 L 49.3217 111.498 L 49.8194 111.376 L 50.493 110.8 L 50.09 110.025 L 49.8977 109.651 L 49.6982 109.544 L 49.6329 109.417 L 49.471 109.33 L 49.3454 109.148 L 49.0952 108.927 L 49.0323 108.836 L 48.8527 108.677 L 48.6254 108.49 L 48.5683 108.474 L 48.3792 108.317 L 48.6729 108.399" fill="none" stroke="#000080" stroke-width="0.05000" fill-rule="evenodd" fill-opacity="1.000"/>
    </g>
    <g class="thermal-contour" data-segment="5" data-name="HollowShell2Contour_Volume">
    <path d="M 33.2555 110.25 L 33.6406 110.426 L 34.0058 111.039 L 34.3134 111.456 L 34.6722 112.216 L 34.7109 112.298 L 34.7861 112.475 L 35.0837 113.279 L 35.1904 113.584 L 35.4898 114.429 L 35.5065 114.526 L 35.5308 114.64 L 35.6789 115.465 L 35.8571 116.386 L 35.8607 116.475 L 35.8641 116.57 L 35.8666 117.541 L 35.9183 118.166 L 35.8936 118.526 L 35.8576 118.963 L 35.7997 119.626 L 35.6991 120.565 L 35.6908 120.642 L 35.6866 120.704 L 35.5851 121.606 L 35.5713 121.958 L 35.4856 122.693 L 35.4384 123.669 L 35.4343 123.728 L 35.4342 123.76 L 35.3058 124.818 L 35.2864 125.04 L 34.9201 125.89 L 34.8366 126.011 L 34.7193 125.95 L 34.057 125.77 L 33.9512 125.497 L 33.6493 124.711 L 33.621 124.627 L 33.3871 123.85 L 33.3402 123.695 L 33.3302 123.657 L 33.1182 122.922 L 33.0219 122.583 L 32.8667 121.902 L 32.7631 121.521 L 32.6347 120.933 L 32.5129 120.37 L 32.4185 119.855 L 32.2767 119.096 L 32.2425 118.915 L 32.1356 118.392 L 31.9976 117.933 L 31.9649 117.872 L 31.8908 117.591 L 31.6574 117.044 L 31.4968 116.758 L 31.2289 116.219 L 30.8407 115.523 L 30.8189 115.482 L 30.8104 115.316 L 30.7217 114.603 L 30.8314 114.108 L 30.8606 113.638 L 30.9819 112.82 L 31.0036 112.757 L 31.0478 112.605 L 31.3154 111.766 L 31.3835 111.493 L 31.7741 110.941 L 32.039 110.46 L 32.5006 110.201 L 32.839 109.978 L 33.2555 110.25" fill="none" stroke="#B8860B" stroke-width="0.05000" fill-rule="evenodd" fill-opacity="1.000"/>
    <path d="M 32.5526 110.286 L 32.1128 110.533 L 31.859 110.995 L 31.4759 111.535 L 31.4117 111.793 L 31.1431 112.635 L 31.0989 112.787 L 31.0794 112.844 L 30.9601 113.648 L 30.9307 114.122 L 30.823 114.608 L 30.9101 115.307 L 30.9199 115.496 L 31.062 115.869 L 31.2739 116.248 L 31.3814 116.465 L 31.7248 117.076 L 32.0098 117.745 L 32.0904 117.894 L 32.2327 118.367 L 32.3406 118.896 L 32.375 119.077 L 32.5168 119.837 L 32.6113 120.352 L 32.6112 120.352 L 32.7324 120.911 L 32.8602 121.497 L 32.9637 121.878 L 33.1187 122.558 L 33.2143 122.894 L 33.4266 123.63 L 33.4368 123.669 L 33.4828 123.821 L 33.7158 124.595 L 33.7434 124.677 L 34.0444 125.461 L 34.151 125.735 L 34.5914 125.855 L 34.7878 125.957 L 34.9135 125.776 L 35.1748 125.17 L 35.2063 124.808 L 35.3342 123.754 L 35.3343 123.725 L 35.3386 123.662 L 35.3859 122.685 L 35.4715 121.951 L 35.4853 121.599 L 35.5869 120.695 L 35.5912 120.633 L 35.5997 120.555 L 35.7003 119.615 L 35.7579 118.955 L 35.7939 118.518 L 35.8179 118.167 L 35.7666 117.545 L 35.7641 116.57 L 35.7608 116.479 L 35.7575 116.398 L 35.5806 115.483 L 35.433 114.66 L 35.4083 114.545 L 35.3928 114.455 L 35.0961 113.617 L 34.9899 113.313 L 34.6927 112.511 L 34.6198 112.339 L 34.5818 112.259 L 34.2272 111.508 L 33.9224 111.094 L 33.5706 110.504 L 33.2071 110.338 L 32.8391 110.097 L 32.5526 110.286" fill="none" stroke="#B8860B" stroke-width="0.05000" fill-rule="evenodd" fill-opacity="1.000"/>
    <path d="M 40.7329 105.092 L 41.1009 105.175 L 41.7456 105.617 L 41.9116 105.712 L 42.1717 105.959 L 42.6224 106.28 L 43.066 106.504 L 43.4675 106.738 L 44.1024 106.96 L 44.3873 107.014 L 44.5948 107.04 L 45.406 107.237 L 46.0414 107.371 L 46.2099 107.419 L 46.6442 107.886 L 47.1399 108.047 L 47.7937 108.23 L 48.0895 108.341 L 48.5683 108.474 L 48.7807 108.649 L 49.0952 108.927 L 49.4169 109.392 L 49.6982 109.544 L 49.7793 109.701 L 49.3483 109.469 L 48.9569 108.903 L 48.789 108.755 L 48.578 108.58 L 48.0586 108.436 L 47.7625 108.325 L 47.111 108.142 L 46.5887 107.974 L 46.1557 107.508 L 46.0175 107.468 L 45.3839 107.335 L 44.5764 107.139 L 44.3716 107.113 L 44.0764 107.056 L 43.4255 106.829 L 43.0186 106.592 L 42.5706 106.366 L 42.1079 106.036 L 41.8514 105.793 L 41.6924 105.701 L 41.0603 105.269 L 40.7064 105.189 L 40.0856 104.987 L 39.6751 105.058 L 39.1093 105.131 L 38.7562 105.362 L 38.3849 105.629 L 38.227 106.064 L 38.2271 106.064 L 38.1199 106.36 L 38.3097 107.019 L 38.3768 107.248 L 38.7324 107.759 L 39.2666 108.349 L 39.3138 108.415 L 39.5134 108.61 L 40.0989 109.164 L 40.2283 109.256 L 41.0005 109.854 L 41.0917 109.925 L 41.1013 109.932 L 41.9101 110.404 L 41.9613 110.436 L 42.6291 110.761 L 43.3836 111.113 L 43.5114 111.175 L 43.6447 111.231 L 44.3846 111.429 L 45.1397 111.604 L 45.2289 111.614 L 45.3712 111.625 L 46.0757 111.678 L 46.8529 111.724 L 46.9729 111.731 L 47.242 111.729 L 47.1242 111.737 L 46.8908 111.758 L 46.6005 111.781 L 46.0252 111.747 L 45.6273 111.717 L 45.1889 111.683 L 44.8921 111.649 L 44.3591 111.526 L 43.6125 111.326 L 43.471 111.267 L 43.3405 111.203 L 42.5868 110.852 L 41.9122 110.524 L 41.8581 110.489 L 41.0465 110.016 L 41.0319 110.005 L 40.9395 109.934 L 40.1688 109.336 L 40.0358 109.242 L 39.4436 108.681 L 39.2373 108.48 L 39.1885 108.411 L 38.6539 107.821 L 38.2856 107.292 L 38.2056 107.019 L 38.2057 107.019 L 38.0148 106.357 L 38.133 106.03 L 38.3015 105.566 L 38.6985 105.281 L 39.0739 105.035 L 39.6602 104.959 L 40.0931 104.884 L 40.7329 105.092" fill="none" stroke="#B8860B" stroke-width="0.05000" fill-rule="evenodd" fill-opacity="1.000"/>
    </g>
    <g class="thermal-contour" data-segment="6" data-name="HollowShell2Contour_Overhang">
    <path d="M 35.2731 125.195 L 35.0013 125.825 L 34.8198 126.087 L 34.5548 125.949 L 34.0761 125.819 L 34.057 125.77 L 34.7193 125.95 L 34.8366 126.011 L 34.9201 125.89 L 35.2864 125.04 L 35.2731 125.195" fill="none" stroke="#006400" stroke-width="0.05000" fill-rule="evenodd" fill-opacity="1.000"/>
    <path d="M 30.8407 115.523 L 31.2289 116.219 L 31.4968 116.758 L 31.6574 117.044 L 31.8908 117.591 L 31.9649 117.872 L 31.9197 117.789 L 31.6349 117.12 L 31.2937 116.513 L 31.1854 116.295 L 30.9713 115.912 L 30.8208 115.517 L 30.8189 115.482 L 30.8407 115.523" fill="none" stroke="#006400" stroke-width="0.05000" fill-rule="evenodd" fill-opacity="1.000"/>
    <path d="M 49.8977 109.651 L 50.09 110.025 L 50.493 110.8 L 49.8194 111.376 L 49.3217 111.498 L 48.9494 111.642 L 48.1651 111.726 L 47.9261 111.785 L 47.3088 111.829 L 46.9707 111.831 L 46.847 111.824 L 46.0683 111.778 L 45.3402 111.723 L 45.3403 111.723 L 45.2179 111.714 L 45.1235 111.703 L 44.8921 111.649 L 45.1889 111.683 L 45.6273 111.717 L 46.0252 111.747 L 46.6005 111.781 L 46.8908 111.758 L 47.1242 111.737 L 47.242 111.729 L 47.3042 111.729 L 47.9107 111.686 L 48.1476 111.627 L 48.9255 111.544 L 49.2917 111.403 L 49.7724 111.285 L 50.3676 110.776 L 50.0012 110.071 L 49.8229 109.725 L 49.7793 109.701 L 49.6982 109.544 L 49.8977 109.651" fill="none" stroke="#006400" stroke-width="0.05000" fill-rule="evenodd" fill-opacity="1.000"/>
    <path d="M 48.6254 108.49 L 48.8527 108.677 L 49.0323 108.836 L 49.0952 108.927 L 48.7807 108.649 L 48.5683 108.474 L 48.6254 108.49" fill="none" stroke="#006400" stroke-width="0.05000" fill-rule="evenodd" fill-opacity="1.000"/>
    </g>
    <g class="thermal-contour" data-segment="9" data-name="CoreContourHatch">
    <path d="M 33.1764 110.393 L 33.5265 110.553 L 33.8699 111.13 L 34.1727 111.54 L 34.5248 112.285 L 34.563 112.367 L 34.634 112.534 L 34.9319 113.338 L 34.9319 113.338 L 35.0367 113.638 L 35.3315 114.471 L 35.3463 114.556 L 35.3709 114.671 L 35.5186 115.495 L 35.6947 116.406 L 35.6979 116.482 L 35.7011 116.57 L 35.7035 117.548 L 35.7547 118.167 L 35.7311 118.512 L 35.6951 118.949 L 35.6377 119.608 L 35.537 120.548 L 35.5283 120.628 L 35.524 120.69 L 35.4225 121.593 L 35.4086 121.945 L 35.3232 122.679 L 35.2758 123.657 L 35.2713 123.721 L 35.2712 123.75 L 35.1436 124.802 L 35.1128 125.154 L 34.858 125.746 L 34.7676 125.876 L 34.6143 125.796 L 34.1982 125.683 L 34.1098 125.455 L 34.1096 125.455 L 33.8029 124.656 L 33.7762 124.577 L 33.5431 123.803 L 33.5431 123.803 L 33.497 123.65 L 33.4872 123.613 L 33.4872 123.613 L 33.2748 122.877 L 33.1793 122.541 L 33.0249 121.863 L 33.0249 121.863 L 32.9215 121.482 L 32.7868 120.865 L 32.7869 120.865 L 32.6732 120.34 L 32.5787 119.826 L 32.5787 119.826 L 32.4369 119.066 L 32.4024 118.884 L 32.4024 118.884 L 32.2938 118.352 L 32.1487 117.87 L 32.0665 117.717 L 31.7814 117.048 L 31.4365 116.435 L 31.3299 116.22 L 31.1191 115.842 L 30.9823 115.483 L 30.9728 115.3 L 30.8868 114.611 L 30.9933 114.13 L 31.0227 113.655 L 31.1408 112.859 L 31.1592 112.806 L 31.203 112.655 L 31.4722 111.811 L 31.5341 111.562 L 31.9121 111.029 L 32.1593 110.579 L 32.5862 110.339 L 32.8391 110.172 L 33.1764 110.393" fill="none" stroke="#800080" stroke-width="0.05000" fill-rule="evenodd" fill-opacity="1.000"/>
    <path d="M 32.5994 110.363 L 32.1792 110.599 L 31.9354 111.042 L 31.5591 111.573 L 31.4983 111.818 L 31.2288 112.663 L 31.1847 112.815 L 31.1671 112.865 L 31.0496 113.658 L 31.0201 114.134 L 30.9142 114.612 L 30.9998 115.299 L 31.009 115.477 L 31.1436 115.831 L 31.3535 116.206 L 31.4604 116.422 L 31.8057 117.036 L 32.0909 117.706 L 32.1739 117.86 L 32.3201 118.345 L 32.4289 118.879 L 32.4634 119.061 L 32.6053 119.821 L 32.6997 120.335 L 32.8204 120.892 L 32.8203 120.892 L 32.9477 121.476 L 33.051 121.856 L 33.2055 122.534 L 33.3008 122.869 L 33.5133 123.606 L 33.523 123.643 L 33.569 123.795 L 33.8019 124.568 L 33.8283 124.647 L 34.1282 125.428 L 34.1283 125.428 L 34.2184 125.66 L 34.6243 125.771 L 34.759 125.841 L 34.8343 125.732 L 35.0863 125.147 L 35.1168 124.799 L 35.2442 123.749 L 35.2443 123.721 L 35.2488 123.656 L 35.2962 122.677 L 35.3817 121.943 L 35.3955 121.592 L 35.4971 120.688 L 35.5015 120.625 L 35.5102 120.545 L 35.6108 119.605 L 35.6682 118.947 L 35.7042 118.51 L 35.7276 118.167 L 35.6766 117.549 L 35.6741 116.57 L 35.6709 116.483 L 35.6678 116.409 L 35.4921 115.5 L 35.3444 114.676 L 35.3199 114.562 L 35.3053 114.478 L 35.0112 113.647 L 34.9049 113.343 L 34.9049 113.343 L 34.6089 112.544 L 34.5384 112.378 L 34.5004 112.297 L 34.1494 111.554 L 33.8473 111.144 L 33.5076 110.574 L 33.1635 110.417 L 32.8392 110.205 L 32.5994 110.363" fill="none" stroke="#800080" stroke-width="0.05000" fill-rule="evenodd" fill-opacity="1.000"/>
    <path d="M 40.6905 105.25 L 41.0347 105.327 L 41.6596 105.755 L 41.8135 105.843 L 42.0676 106.085 L 42.538 106.42 L 42.9885 106.647 L 43.3989 106.886 L 44.0601 107.117 L 44.3612 107.175 L 44.5647 107.201 L 45.3696 107.396 L 46.0021 107.529 L 46.1215 107.563 L 46.5537 108.028 L 47.0928 108.203 L 47.7424 108.385 L 48.0392 108.496 L 48.548 108.637 L 48.7046 108.767 L 48.7046 108.764 L 48.9093 108.945 L 49.3051 109.517 L 49.7758 109.771 L 49.9453 110.1 L 50.2145 110.618 L 50.1939 110.637 L 49.9213 110.112 L 49.7556 109.791 L 49.2866 109.537 L 48.889 108.963 L 48.7316 108.824 L 48.7316 108.824 L 48.5352 108.661 L 48.0308 108.521 L 47.734 108.411 L 47.085 108.229 L 46.5387 108.052 L 46.1069 107.587 L 45.9956 107.556 L 45.364 107.423 L 44.5598 107.228 L 44.3575 107.202 L 44.053 107.144 L 43.3877 106.911 L 42.9756 106.671 L 42.524 106.443 L 42.0505 106.106 L 41.7973 105.865 L 41.6445 105.778 L 41.0237 105.353 L 40.6825 105.276 L 40.0789 105.079 L 39.6885 105.147 L 39.1414 105.217 L 38.8056 105.438 L 38.4599 105.686 L 38.3311 106.04 L 38.3312 106.041 L 38.2144 106.364 L 38.3961 106.994 L 38.459 107.208 L 38.8031 107.703 L 39.3369 108.292 L 39.3826 108.357 L 39.5752 108.544 L 39.5753 108.544 L 40.1562 109.094 L 40.2819 109.183 L 41.0554 109.783 L 41.1452 109.852 L 41.1511 109.857 L 41.9569 110.327 L 42.0058 110.358 L 42.6671 110.679 L 42.6672 110.679 L 43.4224 111.032 L 43.5473 111.093 L 43.6741 111.146 L 44.4049 111.341 L 45.1553 111.515 L 45.2378 111.524 L 45.3781 111.535 L 45.378 111.535 L 46.0817 111.588 L 46.8582 111.634 L 46.8581 111.634 L 46.9744 111.641 L 47.3004 111.639 L 47.8969 111.597 L 48.1319 111.538 L 48.836 111.463 L 48.7385 111.5 L 48.1368 111.565 L 47.9011 111.623 L 47.3014 111.666 L 46.9737 111.668 L 46.8566 111.661 L 46.8566 111.661 L 46.0799 111.615 L 45.35 111.56 L 45.35 111.56 L 45.2352 111.551 L 45.1507 111.542 L 44.3984 111.368 L 43.6654 111.171 L 43.5362 111.117 L 43.4105 111.056 L 43.4105 111.056 L 42.6612 110.706 L 42.6609 110.706 L 41.9926 110.382 L 41.9433 110.35 L 41.1363 109.879 L 41.129 109.874 L 41.0389 109.805 L 40.2663 109.205 L 40.139 109.115 L 39.5645 108.571 L 39.5642 108.571 L 39.362 108.374 L 39.3158 108.309 L 38.7819 107.719 L 38.4343 107.22 L 38.3702 107.001 L 38.186 106.363 L 38.2999 106.047 L 38.4374 105.669 L 38.7903 105.415 L 39.1318 105.191 L 39.685 105.12 L 40.0809 105.051 L 40.6905 105.25" fill="none" stroke="#800080" stroke-width="0.05000" fill-rule="evenodd" fill-opacity="1.000"/>
    </g>
    <g class="thermal-contour" data-segment="20" data-name="CoreContourHatchOverhang">
    <path d="M 50.2885 110.76 L 49.7428 111.227 L 49.2728 111.342 L 48.9105 111.482 L 48.7385 111.5 L 48.836 111.463 L 48.9041 111.456 L 49.2647 111.317 L 49.7301 111.202 L 50.2547 110.754 L 50.1939 110.637 L 50.2145 110.618 L 50.2885 110.76" fill="none" stroke="#E64A19" stroke-width="0.05000" fill-rule="evenodd" fill-opacity="1.000"/>
    </g>
    <!-- ===== Thermal Segment Colour Legend ===== -->
    <g id="thermal-legend">
    <rect x="161.0000" y="5.0000" width="40.0000" height="72.0000"
          rx="1" ry="1"
          fill="#fafafa" stroke="#cccccc" stroke-width="0.15"/>
    <text x="181.0000" y="7.6000" font-family="sans-serif" font-size="2.2000" font-weight="bold" fill="#222222" text-anchor="middle">Thermal Segments</text>
    <line x1="161.5000" y1="8.7000" x2="200.5000" y2="8.7000" stroke="#bbbbbb" stroke-width="0.1"/>
    <rect x="161.8000" y="9.0000" width="3.5000" height="2.0000" fill="#000000" stroke="#333333" stroke-width="0.08" rx="0.3" ry="0.3"/>
    <text x="168.6000" y="10.9000" font-family="monospace" font-size="1.6000" fill="#444444" text-anchor="end"> 1</text>
    <text x="169.6000" y="10.9000" font-family="sans-serif" font-size="1.6000" fill="#111111">CoreContour_Volume</text>
    <rect x="161.8000" y="12.0000" width="3.5000" height="2.0000" fill="#8B0000" stroke="#333333" stroke-width="0.08" rx="0.3" ry="0.3"/>
    <text x="168.6000" y="13.9000" font-family="monospace" font-size="1.6000" fill="#444444" text-anchor="end"> 2</text>
    <text x="169.6000" y="13.9000" font-family="sans-serif" font-size="1.6000" fill="#111111">CoreContour_Overhang</text>
    <rect x="161.8000" y="15.0000" width="3.5000" height="2.0000" fill="#0000CC" stroke="#333333" stroke-width="0.08" rx="0.3" ry="0.3"/>
    <text x="168.6000" y="16.9000" font-family="monospace" font-size="1.6000" fill="#444444" text-anchor="end"> 3</text>
    <text x="169.6000" y="16.9000" font-family="sans-serif" font-size="1.6000" fill="#111111">Shell1Contour_Volume</text>
    <rect x="161.8000" y="18.0000" width="3.5000" height="2.0000" fill="#000080" stroke="#333333" stroke-width="0.08" rx="0.3" ry="0.3"/>
    <text x="168.6000" y="19.9000" font-family="monospace" font-size="1.6000" fill="#444444" text-anchor="end"> 4</text>
    <text x="169.6000" y="19.9000" font-family="sans-serif" font-size="1.6000" fill="#111111">Shell1Contour_Overhang</text>
    <rect x="161.8000" y="21.0000" width="3.5000" height="2.0000" fill="#B8860B" stroke="#333333" stroke-width="0.08" rx="0.3" ry="0.3"/>
    <text x="168.6000" y="22.9000" font-family="monospace" font-size="1.6000" fill="#444444" text-anchor="end"> 5</text>
    <text x="169.6000" y="22.9000" font-family="sans-serif" font-size="1.6000" fill="#111111">Shell2Contour_Volume</text>
    <rect x="161.8000" y="24.0000" width="3.5000" height="2.0000" fill="#006400" stroke="#333333" stroke-width="0.08" rx="0.3" ry="0.3"/>
    <text x="168.6000" y="25.9000" font-family="monospace" font-size="1.6000" fill="#444444" text-anchor="end"> 6</text>
    <text x="169.6000" y="25.9000" font-family="sans-serif" font-size="1.6000" fill="#111111">Shell2Contour_Overhang</text>
    <rect x="161.8000" y="27.0000" width="3.5000" height="2.0000" fill="#FF8C00" stroke="#333333" stroke-width="0.08" rx="0.3" ry="0.3"/>
    <text x="168.6000" y="28.9000" font-family="monospace" font-size="1.6000" fill="#444444" text-anchor="end"> 7</text>
    <text x="169.6000" y="28.9000" font-family="sans-serif" font-size="1.6000" fill="#111111">CoreOverhangHatch</text>
    <rect x="161.8000" y="30.0000" width="3.5000" height="2.0000" fill="#228B22" stroke="#333333" stroke-width="0.08" rx="0.3" ry="0.3"/>
    <text x="168.6000" y="31.9000" font-family="monospace" font-size="1.6000" fill="#444444" text-anchor="end"> 8</text>
    <text x="169.6000" y="31.9000" font-family="sans-serif" font-size="1.6000" fill="#111111">CoreNormalHatch</text>
    <rect x="161.8000" y="33.0000" width="3.5000" height="2.0000" fill="#800080" stroke="#333333" stroke-width="0.08" rx="0.3" ry="0.3"/>
    <text x="168.6000" y="34.9000" font-family="monospace" font-size="1.6000" fill="#444444" text-anchor="end"> 9</text>
    <text x="169.6000" y="34.9000" font-family="sans-serif" font-size="1.6000" fill="#111111">CoreContourHatch</text>
    <rect x="161.8000" y="36.0000" width="3.5000" height="2.0000" fill="#FF69B4" stroke="#333333" stroke-width="0.08" rx="0.3" ry="0.3"/>
    <text x="168.6000" y="37.9000" font-family="monospace" font-size="1.6000" fill="#444444" text-anchor="end">10</text>
    <text x="169.6000" y="37.9000" font-family="sans-serif" font-size="1.6000" fill="#111111">Shell1OverhangHatch</text>
    <rect x="161.8000" y="39.0000" width="3.5000" height="2.0000" fill="#00CED1" stroke="#333333" stroke-width="0.08" rx="0.3" ry="0.3"/>
    <text x="168.6000" y="40.9000" font-family="monospace" font-size="1.6000" fill="#444444" text-anchor="end">11</text>
    <text x="169.6000" y="40.9000" font-family="sans-serif" font-size="1.6000" fill="#111111">Shell1NormalHatch</text>
    <rect x="161.8000" y="42.0000" width="3.5000" height="2.0000" fill="#FF00FF" stroke="#333333" stroke-width="0.08" rx="0.3" ry="0.3"/>
    <text x="168.6000" y="43.9000" font-family="monospace" font-size="1.6000" fill="#444444" text-anchor="end">12</text>
    <text x="169.6000" y="43.9000" font-family="sans-serif" font-size="1.6000" fill="#111111">Shell1ContourHatch</text>
    <rect x="161.8000" y="45.0000" width="3.5000" height="2.0000" fill="#A52A2A" stroke="#333333" stroke-width="0.08" rx="0.3" ry="0.3"/>
    <text x="168.6000" y="46.9000" font-family="monospace" font-size="1.6000" fill="#444444" text-anchor="end">13</text>
    <text x="169.6000" y="46.9000" font-family="sans-serif" font-size="1.6000" fill="#111111">Shell2OverhangHatch</text>
    <rect x="161.8000" y="48.0000" width="3.5000" height="2.0000" fill="#808080" stroke="#333333" stroke-width="0.08" rx="0.3" ry="0.3"/>
    <text x="168.6000" y="49.9000" font-family="monospace" font-size="1.6000" fill="#444444" text-anchor="end">14</text>
    <text x="169.6000" y="49.9000" font-family="sans-serif" font-size="1.6000" fill="#111111">Shell2NormalHatch</text>
    <rect x="161.8000" y="51.0000" width="3.5000" height="2.0000" fill="#32CD32" stroke="#333333" stroke-width="0.08" rx="0.3" ry="0.3"/>
    <text x="168.6000" y="52.9000" font-family="monospace" font-size="1.6000" fill="#444444" text-anchor="end">15</text>
    <text x="169.6000" y="52.9000" font-family="sans-serif" font-size="1.6000" fill="#111111">Shell2ContourHatch</text>
    <rect x="161.8000" y="54.0000" width="3.5000" height="2.0000" fill="#1A237E" stroke="#333333" stroke-width="0.08" rx="0.3" ry="0.3"/>
    <text x="168.6000" y="55.9000" font-family="monospace" font-size="1.6000" fill="#444444" text-anchor="end">16</text>
    <text x="169.6000" y="55.9000" font-family="sans-serif" font-size="1.6000" fill="#111111">SupportContourVolume</text>
    <rect x="161.8000" y="57.0000" width="3.5000" height="2.0000" fill="#827717" stroke="#333333" stroke-width="0.08" rx="0.3" ry="0.3"/>
    <text x="168.6000" y="58.9000" font-family="monospace" font-size="1.6000" fill="#444444" text-anchor="end">17</text>
    <text x="169.6000" y="58.9000" font-family="sans-serif" font-size="1.6000" fill="#111111">SupportHatch</text>
    <rect x="161.8000" y="60.0000" width="3.5000" height="2.0000" fill="#006064" stroke="#333333" stroke-width="0.08" rx="0.3" ry="0.3"/>
    <text x="168.6000" y="61.9000" font-family="monospace" font-size="1.6000" fill="#444444" text-anchor="end">18</text>
    <text x="169.6000" y="61.9000" font-family="sans-serif" font-size="1.6000" fill="#111111">PointSequence</text>
    <rect x="161.8000" y="63.0000" width="3.5000" height="2.0000" fill="#B71C1C" stroke="#333333" stroke-width="0.08" rx="0.3" ry="0.3"/>
    <text x="168.6000" y="64.9000" font-family="monospace" font-size="1.6000" fill="#444444" text-anchor="end">19</text>
    <text x="169.6000" y="64.9000" font-family="sans-serif" font-size="1.6000" fill="#111111">ExternalSupports</text>
    <rect x="161.8000" y="66.0000" width="3.5000" height="2.0000" fill="#E64A19" stroke="#333333" stroke-width="0.08" rx="0.3" ry="0.3"/>
    <text x="168.6000" y="67.9000" font-family="monospace" font-size="1.6000" fill="#444444" text-anchor="end">20</text>
    <text x="169.6000" y="67.9000" font-family="sans-serif" font-size="1.6000" fill="#111111">CoreContourHatchOverhang</text>
    <rect x="161.8000" y="69.0000" width="3.5000" height="2.0000" fill="#311B92" stroke="#333333" stroke-width="0.08" rx="0.3" ry="0.3"/>
    <text x="168.6000" y="70.9000" font-family="monospace" font-size="1.6000" fill="#444444" text-anchor="end">21</text>
    <text x="169.6000" y="70.9000" font-family="sans-serif" font-size="1.6000" fill="#111111">Shell1ContourHatchOverhang</text>
    <rect x="161.8000" y="72.0000" width="3.5000" height="2.0000" fill="#880E4F" stroke="#333333" stroke-width="0.08" rx="0.3" ry="0.3"/>
    <text x="168.6000" y="73.9000" font-family="monospace" font-size="1.6000" fill="#444444" text-anchor="end">22</text>
    <text x="169.6000" y="73.9000" font-family="sans-serif" font-size="1.6000" fill="#111111">Shell2ContourHatchOverhang</text>
    </g>
  </g>
</svg>
