<?xml version="1.0" encoding="UTF-8" standalone="yes"?>
<!DOCTYPE svg PUBLIC "-//W3C//DTD SVG 1.0//EN" "http://www.w3.org/TR/2001/REC-SVG-20010904/DTD/svg10.dtd">
<svg height="2000" width="2000" xmlns="http://www.w3.org/2000/svg" xmlns:svg="http://www.w3.org/2000/svg" xmlns:xlink="http://www.w3.org/1999/xlink">
  <marker id="endArrow" markerHeight="8" markerUnits="strokeWidth" markerWidth="10" orient="auto" refX="1" refY="5" viewBox="0 0 1000 1000">
    <polyline fill="darkblue" points="0,0 10,5 0,10 1,5" />
  </marker>
  <circle cx="1000.000000" cy="1000.000000" r="1.000000" style="stroke:black; fill: red" />
  <circle cx="1000.000000" cy="1000.000000" r="800.000000" style="stroke:black; fill: none" />
  <line x1="1517.593018" y1="1427.799316" x2="1454.575439" y2="1430.000000" style="stroke: green; stroke-width: 0.200000"/>
  <line x1="1517.593018" y1="1428.800049" x2="1483.228760" y2="1430.000000" style="stroke: green; stroke-width: 0.200000"/>
  <line x1="1517.593018" y1="1429.800537" x2="1511.883057" y2="1430.000000" style="stroke: green; stroke-width: 0.200000"/>
  <line x1="1517.593018" y1="1426.798706" x2="1442.406982" y2="1429.424316" style="stroke: green; stroke-width: 0.200000"/>
  <line x1="1517.593018" y1="1425.798218" x2="1442.406982" y2="1428.423828" style="stroke: green; stroke-width: 0.200000"/>
  <line x1="1517.593018" y1="1424.797485" x2="1442.406982" y2="1427.423096" style="stroke: green; stroke-width: 0.200000"/>
  <line x1="1517.593018" y1="1423.796997" x2="1442.406982" y2="1426.422363" style="stroke: green; stroke-width: 0.200000"/>
  <line x1="1517.593018" y1="1422.796387" x2="1442.406982" y2="1425.421875" style="stroke: green; stroke-width: 0.200000"/>
  <line x1="1517.593018" y1="1421.795654" x2="1442.406982" y2="1424.421265" style="stroke: green; stroke-width: 0.200000"/>
  <line x1="1517.593018" y1="1420.795166" x2="1442.406982" y2="1423.420654" style="stroke: green; stroke-width: 0.200000"/>
  <line x1="1517.593018" y1="1419.794434" x2="1442.406982" y2="1422.420044" style="stroke: green; stroke-width: 0.200000"/>
  <line x1="1517.593018" y1="1418.793945" x2="1442.406982" y2="1421.419434" style="stroke: green; stroke-width: 0.200000"/>
  <line x1="1517.593018" y1="1417.793213" x2="1442.406982" y2="1420.418823" style="stroke: green; stroke-width: 0.200000"/>
  <line x1="1517.593018" y1="1416.792603" x2="1442.406982" y2="1419.418213" style="stroke: green; stroke-width: 0.200000"/>
  <line x1="1517.593018" y1="1415.792114" x2="1442.406982" y2="1418.417725" style="stroke: green; stroke-width: 0.200000"/>
  <line x1="1517.593018" y1="1414.791382" x2="1442.406982" y2="1417.416992" style="stroke: green; stroke-width: 0.200000"/>
  <line x1="1517.593018" y1="1413.790894" x2="1442.406982" y2="1416.416260" style="stroke: green; stroke-width: 0.200000"/>
  <line x1="1517.593018" y1="1412.790283" x2="1442.406982" y2="1415.415771" style="stroke: green; stroke-width: 0.200000"/>
  <line x1="1517.593018" y1="1411.789551" x2="1442.406982" y2="1414.415161" style="stroke: green; stroke-width: 0.200000"/>
  <line x1="1517.593018" y1="1410.789062" x2="1442.406982" y2="1413.414551" style="stroke: green; stroke-width: 0.200000"/>
  <line x1="1655.803467" y1="1404.962036" x2="1442.406982" y2="1412.413940" style="stroke: green; stroke-width: 0.200000"/>
  <line x1="1655.803467" y1="1403.961304" x2="1442.406982" y2="1411.413330" style="stroke: green; stroke-width: 0.200000"/>
  <line x1="1655.803467" y1="1402.960815" x2="1442.406982" y2="1410.412720" style="stroke: green; stroke-width: 0.200000"/>
  <line x1="1655.803467" y1="1405.962524" x2="1540.187378" y2="1410.000000" style="stroke: green; stroke-width: 0.200000"/>
  <line x1="1655.803467" y1="1406.963135" x2="1568.841309" y2="1410.000000" style="stroke: green; stroke-width: 0.200000"/>
  <line x1="1655.803467" y1="1407.963867" x2="1597.494385" y2="1410.000000" style="stroke: green; stroke-width: 0.200000"/>
  <line x1="1655.803467" y1="1408.964355" x2="1626.148682" y2="1410.000000" style="stroke: green; stroke-width: 0.200000"/>
  <line x1="1655.803467" y1="1409.965088" x2="1654.802002" y2="1410.000000" style="stroke: green; stroke-width: 0.200000"/>
  <line x1="1655.803467" y1="1401.960205" x2="1425.572754" y2="1410.000000" style="stroke: green; stroke-width: 0.200000"/>
  <line x1="1655.803467" y1="1400.959473" x2="1396.918701" y2="1410.000000" style="stroke: green; stroke-width: 0.200000"/>
  <line x1="1655.803467" y1="1399.958984" x2="1368.265259" y2="1410.000000" style="stroke: green; stroke-width: 0.200000"/>
  <line x1="1655.803467" y1="1398.958252" x2="1339.611328" y2="1410.000000" style="stroke: green; stroke-width: 0.200000"/>
  <line x1="1655.803467" y1="1397.957764" x2="1310.957764" y2="1410.000000" style="stroke: green; stroke-width: 0.200000"/>
  <line x1="1655.803467" y1="1396.957031" x2="1304.196533" y2="1409.235596" style="stroke: green; stroke-width: 0.200000"/>
  <line x1="1655.803467" y1="1395.956421" x2="1304.196533" y2="1408.234863" style="stroke: green; stroke-width: 0.200000"/>
  <line x1="1655.803467" y1="1394.955933" x2="1304.196533" y2="1407.234375" style="stroke: green; stroke-width: 0.200000"/>
  <line x1="1655.803467" y1="1393.955200" x2="1304.196533" y2="1406.233643" style="stroke: green; stroke-width: 0.200000"/>
  <line x1="1655.803467" y1="1392.954712" x2="1304.196533" y2="1405.233154" style="stroke: green; stroke-width: 0.200000"/>
  <line x1="1655.803467" y1="1391.954102" x2="1304.196533" y2="1404.232422" style="stroke: green; stroke-width: 0.200000"/>
  <line x1="1655.803467" y1="1390.953369" x2="1304.196533" y2="1403.231812" style="stroke: green; stroke-width: 0.200000"/>
  <line x1="1655.803467" y1="1389.952881" x2="1304.196533" y2="1402.231201" style="stroke: green; stroke-width: 0.200000"/>
  <line x1="1655.803467" y1="1388.952148" x2="1304.196533" y2="1401.230591" style="stroke: green; stroke-width: 0.200000"/>
  <line x1="1655.803467" y1="1387.951660" x2="1304.196289" y2="1400.230103" style="stroke: green; stroke-width: 0.200000"/>
  <line x1="1655.803467" y1="1386.950928" x2="1304.196533" y2="1399.229492" style="stroke: green; stroke-width: 0.200000"/>
  <line x1="1655.803467" y1="1385.950317" x2="1304.196533" y2="1398.228760" style="stroke: green; stroke-width: 0.200000"/>
  <line x1="1655.803467" y1="1384.949829" x2="1304.196533" y2="1397.228027" style="stroke: green; stroke-width: 0.200000"/>
  <line x1="1655.803467" y1="1383.949097" x2="1304.196533" y2="1396.227539" style="stroke: green; stroke-width: 0.200000"/>
  <line x1="1655.803467" y1="1382.948608" x2="1304.196533" y2="1395.226929" style="stroke: green; stroke-width: 0.200000"/>
  <line x1="1655.803467" y1="1381.947998" x2="1304.196533" y2="1394.226318" style="stroke: green; stroke-width: 0.200000"/>
  <line x1="1655.803467" y1="1380.947266" x2="1304.196289" y2="1393.225708" style="stroke: green; stroke-width: 0.200000"/>
  <line x1="1655.803467" y1="1379.946777" x2="1304.196533" y2="1392.225098" style="stroke: green; stroke-width: 0.200000"/>
  <line x1="1655.803467" y1="1378.946289" x2="1304.196533" y2="1391.224487" style="stroke: green; stroke-width: 0.200000"/>
  <line x1="1655.803467" y1="1377.945557" x2="1304.196533" y2="1390.223877" style="stroke: green; stroke-width: 0.200000"/>
  <line x1="1655.803467" y1="1376.944824" x2="1304.196533" y2="1389.223389" style="stroke: green; stroke-width: 0.200000"/>
  <line x1="1655.803467" y1="1375.944336" x2="1304.196533" y2="1388.222656" style="stroke: green; stroke-width: 0.200000"/>
  <line x1="1655.803467" y1="1374.943726" x2="1304.196533" y2="1387.221924" style="stroke: green; stroke-width: 0.200000"/>
  <line x1="1655.803467" y1="1373.943115" x2="1304.196533" y2="1386.221436" style="stroke: green; stroke-width: 0.200000"/>
  <line x1="1655.803467" y1="1372.942505" x2="1304.196533" y2="1385.220947" style="stroke: green; stroke-width: 0.200000"/>
  <line x1="1655.803467" y1="1371.941895" x2="1304.196533" y2="1384.220215" style="stroke: green; stroke-width: 0.200000"/>
  <line x1="1655.803467" y1="1370.941162" x2="1304.196289" y2="1383.219604" style="stroke: green; stroke-width: 0.200000"/>
  <line x1="1655.803467" y1="1369.940674" x2="1304.196289" y2="1382.219116" style="stroke: green; stroke-width: 0.200000"/>
  <line x1="1655.803467" y1="1368.940186" x2="1304.196533" y2="1381.218384" style="stroke: green; stroke-width: 0.200000"/>
  <line x1="1655.803467" y1="1367.939453" x2="1304.196533" y2="1380.217896" style="stroke: green; stroke-width: 0.200000"/>
  <line x1="1655.803467" y1="1366.938721" x2="1304.196533" y2="1379.217285" style="stroke: green; stroke-width: 0.200000"/>
  <line x1="1655.803467" y1="1365.938110" x2="1304.196533" y2="1378.216553" style="stroke: green; stroke-width: 0.200000"/>
  <line x1="1655.803467" y1="1364.937622" x2="1304.196533" y2="1377.216064" style="stroke: green; stroke-width: 0.200000"/>
  <line x1="1655.803467" y1="1363.936890" x2="1304.196533" y2="1376.215332" style="stroke: green; stroke-width: 0.200000"/>
  <line x1="1655.803467" y1="1362.936401" x2="1304.196533" y2="1375.214844" style="stroke: green; stroke-width: 0.200000"/>
  <line x1="1655.803467" y1="1361.935791" x2="1304.196533" y2="1374.214111" style="stroke: green; stroke-width: 0.200000"/>
  <line x1="1655.803467" y1="1360.935059" x2="1304.196533" y2="1373.213501" style="stroke: green; stroke-width: 0.200000"/>
  <line x1="1655.803467" y1="1359.934570" x2="1304.196533" y2="1372.213013" style="stroke: green; stroke-width: 0.200000"/>
  <line x1="1655.803467" y1="1358.934082" x2="1304.196533" y2="1371.212280" style="stroke: green; stroke-width: 0.200000"/>
  <line x1="1655.803467" y1="1357.933350" x2="1304.196533" y2="1370.211792" style="stroke: green; stroke-width: 0.200000"/>
  <line x1="1655.803467" y1="1356.932617" x2="1304.196533" y2="1369.211182" style="stroke: green; stroke-width: 0.200000"/>
  <line x1="1655.803467" y1="1355.932129" x2="1304.196533" y2="1368.210449" style="stroke: green; stroke-width: 0.200000"/>
  <line x1="1655.803467" y1="1354.931519" x2="1304.196533" y2="1367.209961" style="stroke: green; stroke-width: 0.200000"/>
  <line x1="1655.803467" y1="1353.930908" x2="1304.196533" y2="1366.209229" style="stroke: green; stroke-width: 0.200000"/>
  <line x1="1655.803467" y1="1352.930298" x2="1304.196533" y2="1365.208740" style="stroke: green; stroke-width: 0.200000"/>
  <line x1="1655.803467" y1="1351.929688" x2="1304.196533" y2="1364.208008" style="stroke: green; stroke-width: 0.200000"/>
  <line x1="1655.803467" y1="1350.929077" x2="1304.196533" y2="1363.207397" style="stroke: green; stroke-width: 0.200000"/>
  <line x1="1655.803467" y1="1349.928467" x2="1304.196533" y2="1362.206909" style="stroke: green; stroke-width: 0.200000"/>
  <line x1="1655.803467" y1="1348.927979" x2="1304.196533" y2="1361.206177" style="stroke: green; stroke-width: 0.200000"/>
  <line x1="1655.803467" y1="1347.927246" x2="1304.196533" y2="1360.205688" style="stroke: green; stroke-width: 0.200000"/>
  <line x1="1655.803467" y1="1346.926514" x2="1304.196533" y2="1359.205078" style="stroke: green; stroke-width: 0.200000"/>
  <line x1="1655.803467" y1="1345.926025" x2="1304.196533" y2="1358.204346" style="stroke: green; stroke-width: 0.200000"/>
  <line x1="1655.803467" y1="1344.925415" x2="1304.196533" y2="1357.203857" style="stroke: green; stroke-width: 0.200000"/>
  <line x1="1655.803467" y1="1343.924805" x2="1304.196533" y2="1356.203125" style="stroke: green; stroke-width: 0.200000"/>
  <line x1="1655.803467" y1="1342.924194" x2="1304.196533" y2="1355.202637" style="stroke: green; stroke-width: 0.200000"/>
  <line x1="1655.803467" y1="1341.923584" x2="1304.196533" y2="1354.201904" style="stroke: green; stroke-width: 0.200000"/>
  <line x1="1655.803467" y1="1340.922974" x2="1304.196533" y2="1353.201294" style="stroke: green; stroke-width: 0.200000"/>
  <line x1="1655.803467" y1="1339.922363" x2="1304.196533" y2="1352.200806" style="stroke: green; stroke-width: 0.200000"/>
  <line x1="1655.803467" y1="1338.921875" x2="1304.196533" y2="1351.200073" style="stroke: green; stroke-width: 0.200000"/>
  <line x1="1655.803467" y1="1337.921143" x2="1304.196533" y2="1350.199585" style="stroke: green; stroke-width: 0.200000"/>
  <line x1="1655.803467" y1="1336.920410" x2="1304.196533" y2="1349.198975" style="stroke: green; stroke-width: 0.200000"/>
  <line x1="1655.803467" y1="1335.919922" x2="1304.196533" y2="1348.198242" style="stroke: green; stroke-width: 0.200000"/>
  <line x1="1655.803467" y1="1334.919312" x2="1304.196533" y2="1347.197754" style="stroke: green; stroke-width: 0.200000"/>
  <line x1="1655.803467" y1="1333.918701" x2="1304.196533" y2="1346.197021" style="stroke: green; stroke-width: 0.200000"/>
  <line x1="1655.803467" y1="1332.918091" x2="1304.196533" y2="1345.196533" style="stroke: green; stroke-width: 0.200000"/>
  <line x1="1655.803467" y1="1331.917480" x2="1304.196533" y2="1344.195801" style="stroke: green; stroke-width: 0.200000"/>
  <line x1="1655.803467" y1="1330.916870" x2="1304.196533" y2="1343.195190" style="stroke: green; stroke-width: 0.200000"/>
  <line x1="1655.803467" y1="1329.916260" x2="1304.196533" y2="1342.194702" style="stroke: green; stroke-width: 0.200000"/>
  <line x1="1655.803467" y1="1328.915771" x2="1304.196533" y2="1341.193970" style="stroke: green; stroke-width: 0.200000"/>
  <line x1="1655.803467" y1="1327.915039" x2="1304.196533" y2="1340.193481" style="stroke: green; stroke-width: 0.200000"/>
  <line x1="1655.803467" y1="1326.914307" x2="1304.196533" y2="1339.192871" style="stroke: green; stroke-width: 0.200000"/>
  <line x1="1655.803467" y1="1325.913818" x2="1304.196533" y2="1338.192139" style="stroke: green; stroke-width: 0.200000"/>
  <line x1="1655.803467" y1="1324.913208" x2="1304.196533" y2="1337.191650" style="stroke: green; stroke-width: 0.200000"/>
  <line x1="1655.803467" y1="1323.912598" x2="1304.196533" y2="1336.190918" style="stroke: green; stroke-width: 0.200000"/>
  <line x1="1655.803467" y1="1322.911987" x2="1304.196533" y2="1335.190430" style="stroke: green; stroke-width: 0.200000"/>
  <line x1="1655.803467" y1="1321.911377" x2="1304.196533" y2="1334.189697" style="stroke: green; stroke-width: 0.200000"/>
  <line x1="1655.803467" y1="1320.910767" x2="1304.196533" y2="1333.189087" style="stroke: green; stroke-width: 0.200000"/>
  <line x1="1655.803467" y1="1319.910156" x2="1304.196533" y2="1332.188599" style="stroke: green; stroke-width: 0.200000"/>
  <line x1="1655.803467" y1="1318.909668" x2="1304.196533" y2="1331.187866" style="stroke: green; stroke-width: 0.200000"/>
  <line x1="1655.803467" y1="1317.908936" x2="1304.196533" y2="1330.187378" style="stroke: green; stroke-width: 0.200000"/>
  <line x1="1655.803467" y1="1316.908203" x2="1304.196533" y2="1329.186768" style="stroke: green; stroke-width: 0.200000"/>
  <line x1="1655.803467" y1="1315.907715" x2="1304.196533" y2="1328.186035" style="stroke: green; stroke-width: 0.200000"/>
  <line x1="1655.803467" y1="1314.907104" x2="1304.196533" y2="1327.185547" style="stroke: green; stroke-width: 0.200000"/>
  <line x1="1655.803467" y1="1313.906494" x2="1304.196533" y2="1326.185059" style="stroke: green; stroke-width: 0.200000"/>
  <line x1="1655.803467" y1="1312.905884" x2="1304.196533" y2="1325.184326" style="stroke: green; stroke-width: 0.200000"/>
  <line x1="1655.803467" y1="1311.905273" x2="1304.196533" y2="1324.183594" style="stroke: green; stroke-width: 0.200000"/>
  <line x1="1655.803467" y1="1310.904663" x2="1304.196533" y2="1323.182983" style="stroke: green; stroke-width: 0.200000"/>
  <line x1="1655.803467" y1="1309.904053" x2="1304.196533" y2="1322.182495" style="stroke: green; stroke-width: 0.200000"/>
  <line x1="1655.803467" y1="1308.903564" x2="1304.196533" y2="1321.181885" style="stroke: green; stroke-width: 0.200000"/>
  <line x1="1655.803467" y1="1307.902832" x2="1304.196533" y2="1320.181274" style="stroke: green; stroke-width: 0.200000"/>
  <line x1="1655.803467" y1="1306.902344" x2="1304.196533" y2="1319.180664" style="stroke: green; stroke-width: 0.200000"/>
  <line x1="1655.803467" y1="1305.901611" x2="1304.196533" y2="1318.180054" style="stroke: green; stroke-width: 0.200000"/>
  <line x1="1655.803467" y1="1304.901001" x2="1304.196533" y2="1317.179443" style="stroke: green; stroke-width: 0.200000"/>
  <line x1="1655.803467" y1="1303.900391" x2="1304.196533" y2="1316.178711" style="stroke: green; stroke-width: 0.200000"/>
  <line x1="1655.803467" y1="1302.899780" x2="1304.196533" y2="1315.178223" style="stroke: green; stroke-width: 0.200000"/>
  <line x1="1655.803467" y1="1301.899292" x2="1304.196533" y2="1314.177490" style="stroke: green; stroke-width: 0.200000"/>
  <line x1="1655.803467" y1="1300.898560" x2="1304.196533" y2="1313.177002" style="stroke: green; stroke-width: 0.200000"/>
  <line x1="1655.803467" y1="1299.897949" x2="1304.196533" y2="1312.176392" style="stroke: green; stroke-width: 0.200000"/>
  <line x1="1655.803467" y1="1298.897461" x2="1304.196533" y2="1311.175659" style="stroke: green; stroke-width: 0.200000"/>
  <line x1="1655.803467" y1="1297.896729" x2="1304.196533" y2="1310.175171" style="stroke: green; stroke-width: 0.200000"/>
  <line x1="1655.803467" y1="1296.895996" x2="1304.196533" y2="1309.174561" style="stroke: green; stroke-width: 0.200000"/>
  <line x1="1655.803467" y1="1295.895508" x2="1304.196533" y2="1308.173950" style="stroke: green; stroke-width: 0.200000"/>
  <line x1="1655.803467" y1="1294.894897" x2="1304.196533" y2="1307.173340" style="stroke: green; stroke-width: 0.200000"/>
  <line x1="1655.803467" y1="1293.894287" x2="1304.196533" y2="1306.172852" style="stroke: green; stroke-width: 0.200000"/>
  <line x1="1655.803467" y1="1292.893677" x2="1304.196533" y2="1305.172119" style="stroke: green; stroke-width: 0.200000"/>
  <line x1="1655.803467" y1="1291.893188" x2="1304.196533" y2="1304.171387" style="stroke: green; stroke-width: 0.200000"/>
  <line x1="1655.803467" y1="1290.892456" x2="1304.196533" y2="1303.170898" style="stroke: green; stroke-width: 0.200000"/>
  <line x1="1655.803467" y1="1289.891846" x2="1304.196533" y2="1302.170288" style="stroke: green; stroke-width: 0.200000"/>
  <line x1="1655.803467" y1="1288.891357" x2="1304.196533" y2="1301.169678" style="stroke: green; stroke-width: 0.200000"/>
  <line x1="1655.803467" y1="1287.890625" x2="1304.196533" y2="1300.169067" style="stroke: green; stroke-width: 0.200000"/>
  <line x1="1655.803467" y1="1286.890137" x2="1304.196533" y2="1299.168457" style="stroke: green; stroke-width: 0.200000"/>
  <line x1="1655.803467" y1="1285.889404" x2="1304.196533" y2="1298.167847" style="stroke: green; stroke-width: 0.200000"/>
  <line x1="1655.803467" y1="1284.888794" x2="1304.196533" y2="1297.167236" style="stroke: green; stroke-width: 0.200000"/>
  <line x1="1655.803467" y1="1283.888184" x2="1304.196533" y2="1296.166748" style="stroke: green; stroke-width: 0.200000"/>
  <line x1="1655.803467" y1="1282.887573" x2="1304.196533" y2="1295.166016" style="stroke: green; stroke-width: 0.200000"/>
  <line x1="1655.803467" y1="1281.887085" x2="1304.196533" y2="1294.165283" style="stroke: green; stroke-width: 0.200000"/>
  <line x1="1655.803467" y1="1280.886353" x2="1304.196533" y2="1293.164795" style="stroke: green; stroke-width: 0.200000"/>
  <line x1="1655.803467" y1="1279.885742" x2="1304.196533" y2="1292.164185" style="stroke: green; stroke-width: 0.200000"/>
  <line x1="1655.803467" y1="1278.885254" x2="1304.196533" y2="1291.163574" style="stroke: green; stroke-width: 0.200000"/>
  <line x1="1655.803467" y1="1277.884521" x2="1304.196533" y2="1290.162964" style="stroke: green; stroke-width: 0.200000"/>
  <line x1="1655.803467" y1="1276.884033" x2="1304.196533" y2="1289.162354" style="stroke: green; stroke-width: 0.200000"/>
  <line x1="1655.803467" y1="1275.883301" x2="1304.196533" y2="1288.161743" style="stroke: green; stroke-width: 0.200000"/>
  <line x1="1655.803467" y1="1274.882690" x2="1304.196533" y2="1287.161133" style="stroke: green; stroke-width: 0.200000"/>
  <line x1="1655.803467" y1="1273.882080" x2="1304.196533" y2="1286.160645" style="stroke: green; stroke-width: 0.200000"/>
  <line x1="1655.803467" y1="1272.881592" x2="1304.196533" y2="1285.159912" style="stroke: green; stroke-width: 0.200000"/>
  <line x1="1655.803467" y1="1271.880981" x2="1304.196533" y2="1284.159180" style="stroke: green; stroke-width: 0.200000"/>
  <line x1="1655.803467" y1="1270.880249" x2="1304.196533" y2="1283.158691" style="stroke: green; stroke-width: 0.200000"/>
  <line x1="1655.803467" y1="1269.879639" x2="1304.196533" y2="1282.158081" style="stroke: green; stroke-width: 0.200000"/>
  <line x1="1655.803467" y1="1268.879150" x2="1304.196533" y2="1281.157471" style="stroke: green; stroke-width: 0.200000"/>
  <line x1="1655.803467" y1="1267.878540" x2="1304.196533" y2="1280.156860" style="stroke: green; stroke-width: 0.200000"/>
  <line x1="1655.803467" y1="1266.877808" x2="1304.196533" y2="1279.156250" style="stroke: green; stroke-width: 0.200000"/>
  <line x1="1655.803467" y1="1265.877197" x2="1304.196533" y2="1278.155640" style="stroke: green; stroke-width: 0.200000"/>
  <line x1="1655.803467" y1="1264.876587" x2="1304.196533" y2="1277.155029" style="stroke: green; stroke-width: 0.200000"/>
  <line x1="1655.803467" y1="1263.875977" x2="1304.196533" y2="1276.154419" style="stroke: green; stroke-width: 0.200000"/>
  <line x1="1655.803467" y1="1262.875488" x2="1304.196533" y2="1275.153809" style="stroke: green; stroke-width: 0.200000"/>
  <line x1="1655.803467" y1="1261.874878" x2="1304.196533" y2="1274.153198" style="stroke: green; stroke-width: 0.200000"/>
  <line x1="1655.803467" y1="1260.874146" x2="1304.196533" y2="1273.152588" style="stroke: green; stroke-width: 0.200000"/>
  <line x1="1655.803467" y1="1259.873535" x2="1304.196533" y2="1272.151978" style="stroke: green; stroke-width: 0.200000"/>
  <line x1="1655.803467" y1="1258.873047" x2="1304.196533" y2="1271.151367" style="stroke: green; stroke-width: 0.200000"/>
  <line x1="1655.803467" y1="1257.872437" x2="1304.196533" y2="1270.150757" style="stroke: green; stroke-width: 0.200000"/>
  <line x1="1655.803467" y1="1256.871826" x2="1304.196533" y2="1269.150146" style="stroke: green; stroke-width: 0.200000"/>
  <line x1="1655.803467" y1="1255.871094" x2="1304.196533" y2="1268.149536" style="stroke: green; stroke-width: 0.200000"/>
  <line x1="1655.803467" y1="1254.870483" x2="1304.196533" y2="1267.148926" style="stroke: green; stroke-width: 0.200000"/>
  <line x1="1655.803467" y1="1253.869873" x2="1304.196533" y2="1266.148438" style="stroke: green; stroke-width: 0.200000"/>
  <line x1="1655.803467" y1="1252.869385" x2="1304.196533" y2="1265.147705" style="stroke: green; stroke-width: 0.200000"/>
  <line x1="1655.803467" y1="1251.868774" x2="1304.196533" y2="1264.147095" style="stroke: green; stroke-width: 0.200000"/>
  <line x1="1655.803467" y1="1250.868042" x2="1304.196533" y2="1263.146484" style="stroke: green; stroke-width: 0.200000"/>
  <line x1="1655.803467" y1="1249.867432" x2="1304.196533" y2="1262.145874" style="stroke: green; stroke-width: 0.200000"/>
  <line x1="1655.803467" y1="1248.866943" x2="1304.196533" y2="1261.145264" style="stroke: green; stroke-width: 0.200000"/>
  <line x1="1655.803467" y1="1247.866333" x2="1304.196533" y2="1260.144653" style="stroke: green; stroke-width: 0.200000"/>
  <line x1="1655.803467" y1="1246.865723" x2="1304.196533" y2="1259.144043" style="stroke: green; stroke-width: 0.200000"/>
  <line x1="1655.803467" y1="1245.864990" x2="1304.196533" y2="1258.143433" style="stroke: green; stroke-width: 0.200000"/>
  <line x1="1655.803467" y1="1244.864380" x2="1304.196533" y2="1257.142822" style="stroke: green; stroke-width: 0.200000"/>
  <line x1="1655.803467" y1="1243.863770" x2="1304.196533" y2="1256.142334" style="stroke: green; stroke-width: 0.200000"/>
  <line x1="1655.803467" y1="1242.863281" x2="1304.196533" y2="1255.141602" style="stroke: green; stroke-width: 0.200000"/>
  <line x1="1655.803467" y1="1241.862671" x2="1304.196533" y2="1254.140991" style="stroke: green; stroke-width: 0.200000"/>
  <line x1="1655.803467" y1="1240.861938" x2="1304.196533" y2="1253.140381" style="stroke: green; stroke-width: 0.200000"/>
  <line x1="1655.803467" y1="1239.861328" x2="1304.196533" y2="1252.139771" style="stroke: green; stroke-width: 0.200000"/>
  <line x1="1655.803467" y1="1238.860840" x2="1304.196533" y2="1251.139160" style="stroke: green; stroke-width: 0.200000"/>
  <line x1="1655.803467" y1="1237.860229" x2="1304.196533" y2="1250.138550" style="stroke: green; stroke-width: 0.200000"/>
  <line x1="1655.803467" y1="1236.859619" x2="1304.196533" y2="1249.137939" style="stroke: green; stroke-width: 0.200000"/>
  <line x1="1655.803467" y1="1235.859009" x2="1304.196533" y2="1248.137329" style="stroke: green; stroke-width: 0.200000"/>
  <line x1="1655.803467" y1="1234.858276" x2="1304.196533" y2="1247.136719" style="stroke: green; stroke-width: 0.200000"/>
  <line x1="1655.803467" y1="1233.857666" x2="1304.196533" y2="1246.136230" style="stroke: green; stroke-width: 0.200000"/>
  <line x1="1655.803467" y1="1232.857178" x2="1304.196533" y2="1245.135498" style="stroke: green; stroke-width: 0.200000"/>
  <line x1="1655.803467" y1="1231.856567" x2="1304.196533" y2="1244.134888" style="stroke: green; stroke-width: 0.200000"/>
  <line x1="1655.803467" y1="1230.855957" x2="1304.196533" y2="1243.134277" style="stroke: green; stroke-width: 0.200000"/>
  <line x1="1655.803467" y1="1229.855347" x2="1304.196533" y2="1242.133667" style="stroke: green; stroke-width: 0.200000"/>
  <line x1="1655.803467" y1="1228.854736" x2="1304.196533" y2="1241.133057" style="stroke: green; stroke-width: 0.200000"/>
  <line x1="1655.803467" y1="1227.854126" x2="1304.196533" y2="1240.132446" style="stroke: green; stroke-width: 0.200000"/>
  <line x1="1655.803467" y1="1226.853516" x2="1304.196533" y2="1239.131836" style="stroke: green; stroke-width: 0.200000"/>
  <line x1="1655.803467" y1="1225.852905" x2="1304.196533" y2="1238.131226" style="stroke: green; stroke-width: 0.200000"/>
  <line x1="1655.803467" y1="1224.852295" x2="1304.196533" y2="1237.130615" style="stroke: green; stroke-width: 0.200000"/>
  <line x1="1655.803467" y1="1223.851562" x2="1304.196533" y2="1236.130127" style="stroke: green; stroke-width: 0.200000"/>
  <line x1="1655.803467" y1="1222.851074" x2="1304.196533" y2="1235.129395" style="stroke: green; stroke-width: 0.200000"/>
  <line x1="1655.803467" y1="1221.850464" x2="1304.196533" y2="1234.128906" style="stroke: green; stroke-width: 0.200000"/>
  <line x1="1655.803467" y1="1220.849854" x2="1304.196533" y2="1233.128174" style="stroke: green; stroke-width: 0.200000"/>
  <line x1="1655.803467" y1="1219.849243" x2="1304.196533" y2="1232.127563" style="stroke: green; stroke-width: 0.200000"/>
  <line x1="1655.803467" y1="1218.848633" x2="1304.196533" y2="1231.126953" style="stroke: green; stroke-width: 0.200000"/>
  <line x1="1655.803467" y1="1217.848022" x2="1304.196533" y2="1230.126343" style="stroke: green; stroke-width: 0.200000"/>
  <line x1="1655.803467" y1="1216.847412" x2="1304.196533" y2="1229.125854" style="stroke: green; stroke-width: 0.200000"/>
  <line x1="1655.803467" y1="1215.846802" x2="1304.196533" y2="1228.125122" style="stroke: green; stroke-width: 0.200000"/>
  <line x1="1655.803467" y1="1214.846191" x2="1304.196533" y2="1227.124512" style="stroke: green; stroke-width: 0.200000"/>
  <line x1="1655.803467" y1="1213.845459" x2="1304.196533" y2="1226.124023" style="stroke: green; stroke-width: 0.200000"/>
  <line x1="1655.803467" y1="1212.844971" x2="1304.196533" y2="1225.123291" style="stroke: green; stroke-width: 0.200000"/>
  <line x1="1655.803467" y1="1211.844360" x2="1304.196533" y2="1224.122803" style="stroke: green; stroke-width: 0.200000"/>
  <line x1="1655.803467" y1="1210.843750" x2="1304.196533" y2="1223.122070" style="stroke: green; stroke-width: 0.200000"/>
  <line x1="1655.803467" y1="1209.843140" x2="1304.196533" y2="1222.121460" style="stroke: green; stroke-width: 0.200000"/>
  <line x1="1655.803467" y1="1208.842529" x2="1304.196533" y2="1221.120850" style="stroke: green; stroke-width: 0.200000"/>
  <line x1="1655.803467" y1="1207.841919" x2="1304.196533" y2="1220.120239" style="stroke: green; stroke-width: 0.200000"/>
  <line x1="1655.803467" y1="1206.841309" x2="1304.196533" y2="1219.119751" style="stroke: green; stroke-width: 0.200000"/>
  <line x1="1655.803467" y1="1205.840698" x2="1304.196533" y2="1218.119019" style="stroke: green; stroke-width: 0.200000"/>
  <line x1="1655.803467" y1="1204.840088" x2="1304.196533" y2="1217.118408" style="stroke: green; stroke-width: 0.200000"/>
  <line x1="1655.803467" y1="1203.839355" x2="1304.196533" y2="1216.117920" style="stroke: green; stroke-width: 0.200000"/>
  <line x1="1655.803467" y1="1202.838867" x2="1304.196533" y2="1215.117310" style="stroke: green; stroke-width: 0.200000"/>
  <line x1="1655.803467" y1="1201.838257" x2="1304.196533" y2="1214.116699" style="stroke: green; stroke-width: 0.200000"/>
  <line x1="1655.803467" y1="1200.837646" x2="1304.196533" y2="1213.115967" style="stroke: green; stroke-width: 0.200000"/>
  <line x1="1655.803467" y1="1199.837036" x2="1304.196533" y2="1212.115356" style="stroke: green; stroke-width: 0.200000"/>
  <line x1="1655.803467" y1="1198.836426" x2="1304.196533" y2="1211.114746" style="stroke: green; stroke-width: 0.200000"/>
  <line x1="1655.803467" y1="1197.835815" x2="1304.196533" y2="1210.114258" style="stroke: green; stroke-width: 0.200000"/>
  <line x1="1655.803467" y1="1196.835205" x2="1304.196533" y2="1209.113647" style="stroke: green; stroke-width: 0.200000"/>
  <line x1="1655.803467" y1="1195.834595" x2="1304.196533" y2="1208.112915" style="stroke: green; stroke-width: 0.200000"/>
  <line x1="1655.803467" y1="1194.833984" x2="1304.196533" y2="1207.112305" style="stroke: green; stroke-width: 0.200000"/>
  <line x1="1655.803467" y1="1193.833252" x2="1304.196533" y2="1206.111816" style="stroke: green; stroke-width: 0.200000"/>
  <line x1="1655.803467" y1="1192.832764" x2="1304.196533" y2="1205.111206" style="stroke: green; stroke-width: 0.200000"/>
  <line x1="1655.803467" y1="1191.832153" x2="1304.196533" y2="1204.110596" style="stroke: green; stroke-width: 0.200000"/>
  <line x1="1655.803467" y1="1190.831543" x2="1304.196533" y2="1203.109863" style="stroke: green; stroke-width: 0.200000"/>
  <line x1="1655.803467" y1="1189.830933" x2="1304.196533" y2="1202.109375" style="stroke: green; stroke-width: 0.200000"/>
  <line x1="1655.803467" y1="1188.830322" x2="1304.196533" y2="1201.108643" style="stroke: green; stroke-width: 0.200000"/>
  <line x1="1655.803467" y1="1187.829712" x2="1304.196533" y2="1200.108154" style="stroke: green; stroke-width: 0.200000"/>
  <line x1="1655.803467" y1="1186.829102" x2="1304.196533" y2="1199.107544" style="stroke: green; stroke-width: 0.200000"/>
  <line x1="1655.803467" y1="1185.828491" x2="1304.196533" y2="1198.106812" style="stroke: green; stroke-width: 0.200000"/>
  <line x1="1655.803467" y1="1184.827881" x2="1304.196533" y2="1197.106201" style="stroke: green; stroke-width: 0.200000"/>
  <line x1="1655.803467" y1="1183.827271" x2="1304.196533" y2="1196.105713" style="stroke: green; stroke-width: 0.200000"/>
  <line x1="1655.803467" y1="1182.826660" x2="1304.196533" y2="1195.105103" style="stroke: green; stroke-width: 0.200000"/>
  <line x1="1655.803467" y1="1181.826050" x2="1304.196533" y2="1194.104492" style="stroke: green; stroke-width: 0.200000"/>
  <line x1="1655.803467" y1="1180.825439" x2="1304.196533" y2="1193.103882" style="stroke: green; stroke-width: 0.200000"/>
  <line x1="1655.803467" y1="1179.824829" x2="1304.196533" y2="1192.103149" style="stroke: green; stroke-width: 0.200000"/>
  <line x1="1655.803467" y1="1178.824219" x2="1304.196533" y2="1191.102539" style="stroke: green; stroke-width: 0.200000"/>
  <line x1="1655.803467" y1="1177.823608" x2="1304.196533" y2="1190.102051" style="stroke: green; stroke-width: 0.200000"/>
  <line x1="1655.803467" y1="1176.822998" x2="1304.196533" y2="1189.101440" style="stroke: green; stroke-width: 0.200000"/>
  <line x1="1655.803467" y1="1175.822388" x2="1304.196533" y2="1188.100708" style="stroke: green; stroke-width: 0.200000"/>
  <line x1="1655.803467" y1="1174.821777" x2="1304.196533" y2="1187.100220" style="stroke: green; stroke-width: 0.200000"/>
  <line x1="1655.803467" y1="1173.821167" x2="1304.196533" y2="1186.099609" style="stroke: green; stroke-width: 0.200000"/>
  <line x1="1655.803467" y1="1172.820557" x2="1304.196533" y2="1185.098999" style="stroke: green; stroke-width: 0.200000"/>
  <line x1="1655.803467" y1="1171.819946" x2="1304.196533" y2="1184.098389" style="stroke: green; stroke-width: 0.200000"/>
  <line x1="1655.803467" y1="1170.819336" x2="1304.196533" y2="1183.097656" style="stroke: green; stroke-width: 0.200000"/>
  <line x1="1655.803467" y1="1169.818726" x2="1304.196533" y2="1182.097168" style="stroke: green; stroke-width: 0.200000"/>
  <line x1="1655.803467" y1="1168.818115" x2="1304.196533" y2="1181.096436" style="stroke: green; stroke-width: 0.200000"/>
  <line x1="1655.803467" y1="1167.817505" x2="1304.196533" y2="1180.095947" style="stroke: green; stroke-width: 0.200000"/>
  <line x1="1655.803467" y1="1166.816895" x2="1304.196533" y2="1179.095337" style="stroke: green; stroke-width: 0.200000"/>
  <line x1="1655.803467" y1="1165.816406" x2="1304.196533" y2="1178.094727" style="stroke: green; stroke-width: 0.200000"/>
  <line x1="1655.803467" y1="1164.815674" x2="1304.196533" y2="1177.094116" style="stroke: green; stroke-width: 0.200000"/>
  <line x1="1655.803467" y1="1163.815063" x2="1304.196533" y2="1176.093506" style="stroke: green; stroke-width: 0.200000"/>
  <line x1="1655.803467" y1="1162.814453" x2="1304.196533" y2="1175.092896" style="stroke: green; stroke-width: 0.200000"/>
  <line x1="1655.803467" y1="1161.813843" x2="1304.196533" y2="1174.092285" style="stroke: green; stroke-width: 0.200000"/>
  <line x1="1655.803467" y1="1160.813232" x2="1304.196533" y2="1173.091675" style="stroke: green; stroke-width: 0.200000"/>
  <line x1="1655.803467" y1="1159.812622" x2="1304.196533" y2="1172.091064" style="stroke: green; stroke-width: 0.200000"/>
  <line x1="1655.803467" y1="1158.812012" x2="1304.196533" y2="1171.090332" style="stroke: green; stroke-width: 0.200000"/>
  <line x1="1655.803467" y1="1157.811401" x2="1304.196533" y2="1170.089844" style="stroke: green; stroke-width: 0.200000"/>
  <line x1="1655.803467" y1="1156.810791" x2="1304.196533" y2="1169.089233" style="stroke: green; stroke-width: 0.200000"/>
  <line x1="1655.803467" y1="1155.810303" x2="1304.196533" y2="1168.088623" style="stroke: green; stroke-width: 0.200000"/>
  <line x1="1655.803467" y1="1154.809570" x2="1304.196533" y2="1167.088013" style="stroke: green; stroke-width: 0.200000"/>
  <line x1="1655.803467" y1="1153.808960" x2="1304.196533" y2="1166.087402" style="stroke: green; stroke-width: 0.200000"/>
  <line x1="1655.803467" y1="1152.808350" x2="1304.196533" y2="1165.086792" style="stroke: green; stroke-width: 0.200000"/>
  <line x1="1655.803467" y1="1151.807739" x2="1304.196533" y2="1164.086182" style="stroke: green; stroke-width: 0.200000"/>
  <line x1="1655.803467" y1="1150.807129" x2="1304.196533" y2="1163.085571" style="stroke: green; stroke-width: 0.200000"/>
  <line x1="1655.803467" y1="1149.806519" x2="1304.196533" y2="1162.084961" style="stroke: green; stroke-width: 0.200000"/>
  <line x1="1655.803467" y1="1148.805908" x2="1304.196533" y2="1161.084229" style="stroke: green; stroke-width: 0.200000"/>
  <line x1="1655.803467" y1="1147.805298" x2="1304.196533" y2="1160.083740" style="stroke: green; stroke-width: 0.200000"/>
  <line x1="1655.803467" y1="1146.804688" x2="1304.196533" y2="1159.083130" style="stroke: green; stroke-width: 0.200000"/>
  <line x1="1655.803467" y1="1145.804199" x2="1304.196533" y2="1158.082520" style="stroke: green; stroke-width: 0.200000"/>
  <line x1="1655.803467" y1="1144.803467" x2="1304.196533" y2="1157.081909" style="stroke: green; stroke-width: 0.200000"/>
  <line x1="1655.803467" y1="1143.802856" x2="1304.196533" y2="1156.081299" style="stroke: green; stroke-width: 0.200000"/>
  <line x1="1655.803467" y1="1142.802246" x2="1304.196533" y2="1155.080688" style="stroke: green; stroke-width: 0.200000"/>
  <line x1="1655.803467" y1="1141.801636" x2="1304.196533" y2="1154.080078" style="stroke: green; stroke-width: 0.200000"/>
  <line x1="1655.803467" y1="1140.801025" x2="1304.196533" y2="1153.079468" style="stroke: green; stroke-width: 0.200000"/>
  <line x1="1655.803467" y1="1139.800415" x2="1304.196533" y2="1152.078857" style="stroke: green; stroke-width: 0.200000"/>
  <line x1="1655.803467" y1="1138.799805" x2="1304.196533" y2="1151.078247" style="stroke: green; stroke-width: 0.200000"/>
  <line x1="1655.803467" y1="1137.799194" x2="1304.196533" y2="1150.077637" style="stroke: green; stroke-width: 0.200000"/>
  <line x1="1655.803467" y1="1136.798584" x2="1304.196533" y2="1149.077026" style="stroke: green; stroke-width: 0.200000"/>
  <line x1="1655.803467" y1="1135.798096" x2="1304.196533" y2="1148.076416" style="stroke: green; stroke-width: 0.200000"/>
  <line x1="1655.803467" y1="1134.797363" x2="1304.196533" y2="1147.075806" style="stroke: green; stroke-width: 0.200000"/>
  <line x1="1655.803467" y1="1133.796753" x2="1304.196533" y2="1146.075195" style="stroke: green; stroke-width: 0.200000"/>
  <line x1="1655.803467" y1="1132.796143" x2="1304.196533" y2="1145.074585" style="stroke: green; stroke-width: 0.200000"/>
  <line x1="1655.803467" y1="1131.795532" x2="1304.196533" y2="1144.073975" style="stroke: green; stroke-width: 0.200000"/>
  <line x1="1655.803467" y1="1130.794922" x2="1304.196533" y2="1143.073364" style="stroke: green; stroke-width: 0.200000"/>
  <line x1="1655.803467" y1="1129.794312" x2="1304.196533" y2="1142.072754" style="stroke: green; stroke-width: 0.200000"/>
  <line x1="1655.803467" y1="1128.793701" x2="1304.196533" y2="1141.072144" style="stroke: green; stroke-width: 0.200000"/>
  <line x1="1655.803467" y1="1127.793091" x2="1304.196533" y2="1140.071533" style="stroke: green; stroke-width: 0.200000"/>
  <line x1="1655.803467" y1="1126.792480" x2="1304.196533" y2="1139.070923" style="stroke: green; stroke-width: 0.200000"/>
  <line x1="1655.803467" y1="1125.791992" x2="1304.196533" y2="1138.070312" style="stroke: green; stroke-width: 0.200000"/>
  <line x1="1655.803467" y1="1124.791260" x2="1304.196533" y2="1137.069702" style="stroke: green; stroke-width: 0.200000"/>
  <line x1="1655.803467" y1="1123.790649" x2="1304.196533" y2="1136.069092" style="stroke: green; stroke-width: 0.200000"/>
  <line x1="1655.803467" y1="1122.790039" x2="1304.196533" y2="1135.068481" style="stroke: green; stroke-width: 0.200000"/>
  <line x1="1655.803467" y1="1121.789429" x2="1304.196533" y2="1134.067871" style="stroke: green; stroke-width: 0.200000"/>
  <line x1="1655.803467" y1="1120.788818" x2="1304.196533" y2="1133.067261" style="stroke: green; stroke-width: 0.200000"/>
  <line x1="1655.803467" y1="1119.788330" x2="1304.196533" y2="1132.066650" style="stroke: green; stroke-width: 0.200000"/>
  <line x1="1655.803467" y1="1118.787720" x2="1304.196533" y2="1131.066040" style="stroke: green; stroke-width: 0.200000"/>
  <line x1="1655.803467" y1="1117.786987" x2="1304.196533" y2="1130.065430" style="stroke: green; stroke-width: 0.200000"/>
  <line x1="1655.803467" y1="1116.786377" x2="1304.196533" y2="1129.064819" style="stroke: green; stroke-width: 0.200000"/>
  <line x1="1655.803467" y1="1115.785889" x2="1304.196533" y2="1128.064209" style="stroke: green; stroke-width: 0.200000"/>
  <line x1="1655.803467" y1="1114.785278" x2="1304.196533" y2="1127.063599" style="stroke: green; stroke-width: 0.200000"/>
  <line x1="1655.803467" y1="1113.784668" x2="1304.196533" y2="1126.062988" style="stroke: green; stroke-width: 0.200000"/>
  <line x1="1655.803467" y1="1112.783936" x2="1304.196533" y2="1125.062378" style="stroke: green; stroke-width: 0.200000"/>
  <line x1="1655.803467" y1="1111.783325" x2="1304.196533" y2="1124.061768" style="stroke: green; stroke-width: 0.200000"/>
  <line x1="1655.803467" y1="1110.782715" x2="1304.196533" y2="1123.061157" style="stroke: green; stroke-width: 0.200000"/>
  <line x1="1655.803467" y1="1109.782227" x2="1304.196533" y2="1122.060547" style="stroke: green; stroke-width: 0.200000"/>
  <line x1="1655.803467" y1="1108.781616" x2="1304.196533" y2="1121.059937" style="stroke: green; stroke-width: 0.200000"/>
  <line x1="1655.803467" y1="1107.780884" x2="1304.196533" y2="1120.059326" style="stroke: green; stroke-width: 0.200000"/>
  <line x1="1655.803467" y1="1106.780273" x2="1304.196533" y2="1119.058716" style="stroke: green; stroke-width: 0.200000"/>
  <line x1="1655.803467" y1="1105.779785" x2="1304.196533" y2="1118.058105" style="stroke: green; stroke-width: 0.200000"/>
  <line x1="1655.803467" y1="1104.779175" x2="1304.196533" y2="1117.057495" style="stroke: green; stroke-width: 0.200000"/>
  <line x1="1655.803467" y1="1103.778564" x2="1304.196533" y2="1116.056885" style="stroke: green; stroke-width: 0.200000"/>
  <line x1="1655.803467" y1="1102.777832" x2="1304.196533" y2="1115.056274" style="stroke: green; stroke-width: 0.200000"/>
  <line x1="1655.803467" y1="1101.777222" x2="1304.196533" y2="1114.055664" style="stroke: green; stroke-width: 0.200000"/>
  <line x1="1655.803467" y1="1100.776611" x2="1304.196533" y2="1113.055054" style="stroke: green; stroke-width: 0.200000"/>
  <line x1="1655.803467" y1="1099.776123" x2="1304.196533" y2="1112.054443" style="stroke: green; stroke-width: 0.200000"/>
  <line x1="1655.803467" y1="1098.775513" x2="1304.196533" y2="1111.053833" style="stroke: green; stroke-width: 0.200000"/>
  <line x1="1655.803467" y1="1097.774780" x2="1304.196533" y2="1110.053223" style="stroke: green; stroke-width: 0.200000"/>
  <line x1="1655.803467" y1="1096.774170" x2="1304.196533" y2="1109.052612" style="stroke: green; stroke-width: 0.200000"/>
  <line x1="1655.803467" y1="1095.773682" x2="1304.196533" y2="1108.052002" style="stroke: green; stroke-width: 0.200000"/>
  <line x1="1655.803467" y1="1094.773071" x2="1304.196533" y2="1107.051392" style="stroke: green; stroke-width: 0.200000"/>
  <line x1="1655.803467" y1="1093.772461" x2="1304.196533" y2="1106.050781" style="stroke: green; stroke-width: 0.200000"/>
  <line x1="1655.803467" y1="1092.771729" x2="1304.196533" y2="1105.050171" style="stroke: green; stroke-width: 0.200000"/>
  <line x1="1655.803467" y1="1091.771118" x2="1304.196533" y2="1104.049561" style="stroke: green; stroke-width: 0.200000"/>
  <line x1="1655.803467" y1="1090.770508" x2="1304.196533" y2="1103.049072" style="stroke: green; stroke-width: 0.200000"/>
  <line x1="1655.803467" y1="1089.770020" x2="1304.196533" y2="1102.048340" style="stroke: green; stroke-width: 0.200000"/>
  <line x1="1655.803467" y1="1088.769409" x2="1304.196533" y2="1101.047729" style="stroke: green; stroke-width: 0.200000"/>
  <line x1="1655.803467" y1="1087.768677" x2="1304.196533" y2="1100.047119" style="stroke: green; stroke-width: 0.200000"/>
  <line x1="1655.803467" y1="1086.768066" x2="1304.196533" y2="1099.046509" style="stroke: green; stroke-width: 0.200000"/>
  <line x1="1655.803467" y1="1085.767578" x2="1304.196533" y2="1098.045898" style="stroke: green; stroke-width: 0.200000"/>
  <line x1="1655.803467" y1="1084.766968" x2="1304.196533" y2="1097.045288" style="stroke: green; stroke-width: 0.200000"/>
  <line x1="1655.803467" y1="1083.766357" x2="1304.196533" y2="1096.044678" style="stroke: green; stroke-width: 0.200000"/>
  <line x1="1655.803467" y1="1082.765747" x2="1304.196533" y2="1095.044067" style="stroke: green; stroke-width: 0.200000"/>
  <line x1="1655.803467" y1="1081.765137" x2="1304.196533" y2="1094.043457" style="stroke: green; stroke-width: 0.200000"/>
  <line x1="1655.803467" y1="1080.764404" x2="1304.196533" y2="1093.042969" style="stroke: green; stroke-width: 0.200000"/>
  <line x1="1655.803467" y1="1079.763916" x2="1304.196533" y2="1092.042236" style="stroke: green; stroke-width: 0.200000"/>
  <line x1="1655.803467" y1="1078.763306" x2="1304.196533" y2="1091.041626" style="stroke: green; stroke-width: 0.200000"/>
  <line x1="1655.803467" y1="1077.762695" x2="1304.196533" y2="1090.041016" style="stroke: green; stroke-width: 0.200000"/>
  <line x1="1655.803467" y1="1076.761963" x2="1304.196533" y2="1089.040405" style="stroke: green; stroke-width: 0.200000"/>
  <line x1="1655.803467" y1="1075.761475" x2="1304.196533" y2="1088.039795" style="stroke: green; stroke-width: 0.200000"/>
  <line x1="1655.803467" y1="1074.760864" x2="1304.196533" y2="1087.039185" style="stroke: green; stroke-width: 0.200000"/>
  <line x1="1655.803467" y1="1073.760254" x2="1304.196533" y2="1086.038574" style="stroke: green; stroke-width: 0.200000"/>
  <line x1="1655.803467" y1="1072.759644" x2="1304.196533" y2="1085.037964" style="stroke: green; stroke-width: 0.200000"/>
  <line x1="1655.803467" y1="1071.759033" x2="1304.196533" y2="1084.037354" style="stroke: green; stroke-width: 0.200000"/>
  <line x1="1655.803467" y1="1070.758301" x2="1304.196533" y2="1083.036865" style="stroke: green; stroke-width: 0.200000"/>
  <line x1="1655.803467" y1="1069.757812" x2="1304.196533" y2="1082.036133" style="stroke: green; stroke-width: 0.200000"/>
  <line x1="1655.803467" y1="1068.757202" x2="1304.196533" y2="1081.035522" style="stroke: green; stroke-width: 0.200000"/>
  <line x1="1655.803467" y1="1067.756592" x2="1304.196533" y2="1080.034912" style="stroke: green; stroke-width: 0.200000"/>
  <line x1="1655.803467" y1="1066.755981" x2="1304.196533" y2="1079.034302" style="stroke: green; stroke-width: 0.200000"/>
  <line x1="1655.803467" y1="1065.755371" x2="1304.196533" y2="1078.033691" style="stroke: green; stroke-width: 0.200000"/>
  <line x1="1655.803467" y1="1064.754761" x2="1304.196533" y2="1077.033203" style="stroke: green; stroke-width: 0.200000"/>
  <line x1="1655.803467" y1="1063.754150" x2="1304.196533" y2="1076.032471" style="stroke: green; stroke-width: 0.200000"/>
  <line x1="1655.803467" y1="1062.753540" x2="1304.196533" y2="1075.031860" style="stroke: green; stroke-width: 0.200000"/>
  <line x1="1655.803467" y1="1061.752930" x2="1304.196533" y2="1074.031250" style="stroke: green; stroke-width: 0.200000"/>
  <line x1="1655.803467" y1="1060.752319" x2="1304.196533" y2="1073.030762" style="stroke: green; stroke-width: 0.200000"/>
  <line x1="1648.692871" y1="1060.000000" x2="1304.196533" y2="1072.030151" style="stroke: green; stroke-width: 0.200000"/>
  <line x1="1620.039185" y1="1060.000000" x2="1304.196533" y2="1071.029541" style="stroke: green; stroke-width: 0.200000"/>
  <line x1="1591.385620" y1="1060.000000" x2="1304.196533" y2="1070.028809" style="stroke: green; stroke-width: 0.200000"/>
  <line x1="1562.731812" y1="1060.000000" x2="1304.196533" y2="1069.028198" style="stroke: green; stroke-width: 0.200000"/>
  <line x1="1534.078125" y1="1060.000000" x2="1304.196533" y2="1068.027588" style="stroke: green; stroke-width: 0.200000"/>
  <line x1="1505.424561" y1="1060.000000" x2="1304.196533" y2="1067.027100" style="stroke: green; stroke-width: 0.200000"/>
  <line x1="1476.770630" y1="1060.000000" x2="1304.196533" y2="1066.026489" style="stroke: green; stroke-width: 0.200000"/>
  <line x1="1448.117065" y1="1060.000000" x2="1304.196533" y2="1065.025757" style="stroke: green; stroke-width: 0.200000"/>
  <line x1="1419.463135" y1="1060.000000" x2="1304.196533" y2="1064.025146" style="stroke: green; stroke-width: 0.200000"/>
  <line x1="1390.809570" y1="1060.000000" x2="1304.196533" y2="1063.024658" style="stroke: green; stroke-width: 0.200000"/>
  <line x1="1362.155884" y1="1060.000000" x2="1304.196533" y2="1062.024048" style="stroke: green; stroke-width: 0.200000"/>
  <line x1="1333.502075" y1="1060.000000" x2="1304.196533" y2="1061.023438" style="stroke: green; stroke-width: 0.200000"/>
  <line x1="1304.848389" y1="1060.000000" x2="1304.196533" y2="1060.022705" style="stroke: green; stroke-width: 0.200000"/>
  <path d="M 1655.8  1410  1517.59  1410  1517.59  1430  1442.41  1430  1442.41  1410  1304.2  1410  1304.2  1060  1655.8  1060  1655.8  1410  " style="fill: none; stroke: black; stroke-width: 0.200000; fill-type: evenodd"  fill-opacity="1.000000" />
</svg>
