<?xml version="1.0" encoding="UTF-8" standalone="yes"?>
<!DOCTYPE svg PUBLIC "-//W3C//DTD SVG 1.0//EN" "http://www.w3.org/TR/2001/REC-SVG-20010904/DTD/svg10.dtd">
<svg height="2000" width="2000" xmlns="http://www.w3.org/2000/svg" xmlns:svg="http://www.w3.org/2000/svg" xmlns:xlink="http://www.w3.org/1999/xlink">
  <marker id="endArrow" markerHeight="8" markerUnits="strokeWidth" markerWidth="10" orient="auto" refX="1" refY="5" viewBox="0 0 1000 1000">
    <polyline fill="darkblue" points="0,0 10,5 0,10 1,5" />
  </marker>
  <circle cx="1000.000000" cy="1000.000000" r="1.000000" style="stroke:black; fill: red" />
  <circle cx="1000.000000" cy="1000.000000" r="800.000000" style="stroke:black; fill: none" />
  <line x1="1500.106201" y1="1382.063721" x2="1460.208984" y2="1410.000000" style="stroke: green; stroke-width: 0.200000"/>
  <line x1="1500.106201" y1="1383.284424" x2="1461.952515" y2="1410.000000" style="stroke: green; stroke-width: 0.200000"/>
  <line x1="1500.106201" y1="1384.505371" x2="1463.696045" y2="1410.000000" style="stroke: green; stroke-width: 0.200000"/>
  <line x1="1500.106201" y1="1385.726074" x2="1465.439453" y2="1410.000000" style="stroke: green; stroke-width: 0.200000"/>
  <line x1="1500.106201" y1="1386.946899" x2="1467.182861" y2="1410.000000" style="stroke: green; stroke-width: 0.200000"/>
  <line x1="1500.106201" y1="1388.167603" x2="1468.926392" y2="1410.000000" style="stroke: green; stroke-width: 0.200000"/>
  <line x1="1500.106201" y1="1389.388428" x2="1470.669678" y2="1410.000000" style="stroke: green; stroke-width: 0.200000"/>
  <line x1="1500.106201" y1="1390.609131" x2="1472.413208" y2="1410.000000" style="stroke: green; stroke-width: 0.200000"/>
  <line x1="1500.106201" y1="1391.829834" x2="1474.156616" y2="1410.000000" style="stroke: green; stroke-width: 0.200000"/>
  <line x1="1500.106201" y1="1393.050659" x2="1475.900146" y2="1410.000000" style="stroke: green; stroke-width: 0.200000"/>
  <line x1="1500.106201" y1="1394.271484" x2="1477.643555" y2="1410.000000" style="stroke: green; stroke-width: 0.200000"/>
  <line x1="1500.106201" y1="1395.492188" x2="1479.387085" y2="1410.000000" style="stroke: green; stroke-width: 0.200000"/>
  <line x1="1500.106201" y1="1396.712891" x2="1481.130493" y2="1410.000000" style="stroke: green; stroke-width: 0.200000"/>
  <line x1="1500.106201" y1="1397.933838" x2="1482.873779" y2="1410.000000" style="stroke: green; stroke-width: 0.200000"/>
  <line x1="1500.106201" y1="1399.154663" x2="1484.617310" y2="1410.000000" style="stroke: green; stroke-width: 0.200000"/>
  <line x1="1500.106201" y1="1400.375366" x2="1486.360840" y2="1410.000000" style="stroke: green; stroke-width: 0.200000"/>
  <line x1="1500.106201" y1="1401.596069" x2="1488.104248" y2="1410.000000" style="stroke: green; stroke-width: 0.200000"/>
  <line x1="1500.106201" y1="1402.816895" x2="1489.847656" y2="1410.000000" style="stroke: green; stroke-width: 0.200000"/>
  <line x1="1500.106201" y1="1404.037598" x2="1491.591187" y2="1410.000000" style="stroke: green; stroke-width: 0.200000"/>
  <line x1="1500.106201" y1="1405.258545" x2="1493.334717" y2="1410.000000" style="stroke: green; stroke-width: 0.200000"/>
  <line x1="1500.106201" y1="1406.479248" x2="1495.078003" y2="1410.000000" style="stroke: green; stroke-width: 0.200000"/>
  <line x1="1500.106201" y1="1407.700073" x2="1496.821411" y2="1410.000000" style="stroke: green; stroke-width: 0.200000"/>
  <line x1="1500.106201" y1="1408.920776" x2="1498.564941" y2="1410.000000" style="stroke: green; stroke-width: 0.200000"/>
  <line x1="1500.106201" y1="1380.842896" x2="1459.893799" y2="1409.000000" style="stroke: green; stroke-width: 0.200000"/>
  <line x1="1500.106201" y1="1379.622192" x2="1459.893799" y2="1407.779297" style="stroke: green; stroke-width: 0.200000"/>
  <line x1="1500.106201" y1="1378.401489" x2="1459.893799" y2="1406.558350" style="stroke: green; stroke-width: 0.200000"/>
  <line x1="1500.106201" y1="1377.180664" x2="1459.893799" y2="1405.337646" style="stroke: green; stroke-width: 0.200000"/>
  <line x1="1500.106201" y1="1375.959717" x2="1459.893799" y2="1404.116821" style="stroke: green; stroke-width: 0.200000"/>
  <line x1="1500.106201" y1="1374.739014" x2="1459.893799" y2="1402.896118" style="stroke: green; stroke-width: 0.200000"/>
  <line x1="1500.106201" y1="1373.518311" x2="1459.893799" y2="1401.675415" style="stroke: green; stroke-width: 0.200000"/>
  <line x1="1500.106201" y1="1372.297485" x2="1459.893799" y2="1400.454590" style="stroke: green; stroke-width: 0.200000"/>
  <line x1="1500.106201" y1="1371.076660" x2="1459.893799" y2="1399.233643" style="stroke: green; stroke-width: 0.200000"/>
  <line x1="1500.106201" y1="1369.855957" x2="1459.893799" y2="1398.012939" style="stroke: green; stroke-width: 0.200000"/>
  <line x1="1500.106201" y1="1368.635254" x2="1459.893799" y2="1396.792114" style="stroke: green; stroke-width: 0.200000"/>
  <line x1="1500.106201" y1="1367.414429" x2="1459.893799" y2="1395.571411" style="stroke: green; stroke-width: 0.200000"/>
  <line x1="1500.106201" y1="1366.193726" x2="1459.893799" y2="1394.350586" style="stroke: green; stroke-width: 0.200000"/>
  <line x1="1500.106201" y1="1364.972900" x2="1459.893799" y2="1393.129883" style="stroke: green; stroke-width: 0.200000"/>
  <line x1="1500.106201" y1="1363.752197" x2="1459.893799" y2="1391.909180" style="stroke: green; stroke-width: 0.200000"/>
  <line x1="1500.106201" y1="1362.531250" x2="1459.893799" y2="1390.688354" style="stroke: green; stroke-width: 0.200000"/>
  <line x1="1500.106201" y1="1361.310547" x2="1459.893799" y2="1389.467529" style="stroke: green; stroke-width: 0.200000"/>
  <line x1="1500.106201" y1="1360.089722" x2="1459.893799" y2="1388.246826" style="stroke: green; stroke-width: 0.200000"/>
  <line x1="1500.106201" y1="1358.869019" x2="1459.893799" y2="1387.026123" style="stroke: green; stroke-width: 0.200000"/>
  <line x1="1500.106201" y1="1357.648315" x2="1459.893799" y2="1385.805176" style="stroke: green; stroke-width: 0.200000"/>
  <line x1="1500.106201" y1="1356.427490" x2="1459.893799" y2="1384.584473" style="stroke: green; stroke-width: 0.200000"/>
  <line x1="1500.106201" y1="1355.206543" x2="1459.893799" y2="1383.363647" style="stroke: green; stroke-width: 0.200000"/>
  <line x1="1500.106201" y1="1353.985840" x2="1459.893799" y2="1382.142944" style="stroke: green; stroke-width: 0.200000"/>
  <line x1="1500.106201" y1="1352.765137" x2="1459.893799" y2="1380.922119" style="stroke: green; stroke-width: 0.200000"/>
  <line x1="1500.106201" y1="1351.544312" x2="1459.893799" y2="1379.701416" style="stroke: green; stroke-width: 0.200000"/>
  <line x1="1500.106201" y1="1350.323608" x2="1459.893799" y2="1378.480469" style="stroke: green; stroke-width: 0.200000"/>
  <line x1="1500.106201" y1="1349.102783" x2="1459.893799" y2="1377.259766" style="stroke: green; stroke-width: 0.200000"/>
  <line x1="1500.106201" y1="1347.882080" x2="1459.893799" y2="1376.039062" style="stroke: green; stroke-width: 0.200000"/>
  <line x1="1500.106201" y1="1346.661377" x2="1459.893799" y2="1374.818237" style="stroke: green; stroke-width: 0.200000"/>
  <line x1="1500.106201" y1="1345.440552" x2="1459.893799" y2="1373.597412" style="stroke: green; stroke-width: 0.200000"/>
  <line x1="1500.106201" y1="1344.219727" x2="1459.893799" y2="1372.376709" style="stroke: green; stroke-width: 0.200000"/>
  <line x1="1500.106201" y1="1342.999023" x2="1459.893799" y2="1371.156006" style="stroke: green; stroke-width: 0.200000"/>
  <line x1="1500.106201" y1="1341.778320" x2="1459.893799" y2="1369.935181" style="stroke: green; stroke-width: 0.200000"/>
  <line x1="1500.106201" y1="1340.557373" x2="1459.893799" y2="1368.714478" style="stroke: green; stroke-width: 0.200000"/>
  <line x1="1500.106201" y1="1339.336548" x2="1459.893799" y2="1367.493652" style="stroke: green; stroke-width: 0.200000"/>
  <line x1="1500.106201" y1="1338.115845" x2="1459.893799" y2="1366.272949" style="stroke: green; stroke-width: 0.200000"/>
  <line x1="1500.106201" y1="1336.895142" x2="1459.893799" y2="1365.052002" style="stroke: green; stroke-width: 0.200000"/>
  <line x1="1500.106201" y1="1335.674316" x2="1459.893799" y2="1363.831299" style="stroke: green; stroke-width: 0.200000"/>
  <line x1="1500.106201" y1="1334.453613" x2="1459.893799" y2="1362.610474" style="stroke: green; stroke-width: 0.200000"/>
  <line x1="1500.106201" y1="1333.232666" x2="1459.893799" y2="1361.389771" style="stroke: green; stroke-width: 0.200000"/>
  <line x1="1500.106201" y1="1332.011963" x2="1459.893799" y2="1360.169067" style="stroke: green; stroke-width: 0.200000"/>
  <line x1="1500.106201" y1="1330.791138" x2="1459.893799" y2="1358.948242" style="stroke: green; stroke-width: 0.200000"/>
  <line x1="1500.106201" y1="1329.570435" x2="1459.893799" y2="1357.727295" style="stroke: green; stroke-width: 0.200000"/>
  <line x1="1500.106201" y1="1328.349609" x2="1459.893799" y2="1356.506592" style="stroke: green; stroke-width: 0.200000"/>
  <line x1="1500.106201" y1="1327.128906" x2="1459.893799" y2="1355.285889" style="stroke: green; stroke-width: 0.200000"/>
  <line x1="1500.106201" y1="1325.908081" x2="1459.893799" y2="1354.065063" style="stroke: green; stroke-width: 0.200000"/>
  <line x1="1500.106201" y1="1324.687378" x2="1459.893799" y2="1352.844238" style="stroke: green; stroke-width: 0.200000"/>
  <line x1="1500.106201" y1="1323.466553" x2="1459.893799" y2="1351.623535" style="stroke: green; stroke-width: 0.200000"/>
  <line x1="1500.106201" y1="1322.245850" x2="1459.893799" y2="1350.402832" style="stroke: green; stroke-width: 0.200000"/>
  <line x1="1500.106201" y1="1321.025146" x2="1459.893799" y2="1349.182007" style="stroke: green; stroke-width: 0.200000"/>
  <line x1="1500.106201" y1="1319.804199" x2="1459.893799" y2="1347.961304" style="stroke: green; stroke-width: 0.200000"/>
  <line x1="1500.106201" y1="1318.583374" x2="1459.893799" y2="1346.740479" style="stroke: green; stroke-width: 0.200000"/>
  <line x1="1500.106201" y1="1317.362671" x2="1459.893799" y2="1345.519775" style="stroke: green; stroke-width: 0.200000"/>
  <line x1="1500.106201" y1="1316.141968" x2="1459.893799" y2="1344.298828" style="stroke: green; stroke-width: 0.200000"/>
  <line x1="1500.106201" y1="1314.921143" x2="1459.893799" y2="1343.078125" style="stroke: green; stroke-width: 0.200000"/>
  <line x1="1500.106201" y1="1313.700439" x2="1459.893799" y2="1341.857300" style="stroke: green; stroke-width: 0.200000"/>
  <line x1="1500.106201" y1="1312.479492" x2="1459.893799" y2="1340.636597" style="stroke: green; stroke-width: 0.200000"/>
  <line x1="1500.106201" y1="1311.258789" x2="1459.893799" y2="1339.415894" style="stroke: green; stroke-width: 0.200000"/>
  <line x1="1500.106201" y1="1310.037964" x2="1459.893799" y2="1338.195068" style="stroke: green; stroke-width: 0.200000"/>
  <line x1="1500.106201" y1="1308.817261" x2="1459.893799" y2="1336.974121" style="stroke: green; stroke-width: 0.200000"/>
  <line x1="1500.106201" y1="1307.596436" x2="1459.893799" y2="1335.753418" style="stroke: green; stroke-width: 0.200000"/>
  <line x1="1500.106201" y1="1306.375732" x2="1459.893799" y2="1334.532715" style="stroke: green; stroke-width: 0.200000"/>
  <line x1="1500.106201" y1="1305.154907" x2="1459.893799" y2="1333.311890" style="stroke: green; stroke-width: 0.200000"/>
  <line x1="1500.106201" y1="1303.934204" x2="1459.893799" y2="1332.091064" style="stroke: green; stroke-width: 0.200000"/>
  <line x1="1500.106201" y1="1302.713379" x2="1459.893799" y2="1330.870361" style="stroke: green; stroke-width: 0.200000"/>
  <line x1="1500.106201" y1="1301.492676" x2="1459.893799" y2="1329.649658" style="stroke: green; stroke-width: 0.200000"/>
  <line x1="1500.106201" y1="1300.271973" x2="1459.893799" y2="1328.428833" style="stroke: green; stroke-width: 0.200000"/>
  <line x1="1500.106201" y1="1299.051025" x2="1459.893799" y2="1327.208130" style="stroke: green; stroke-width: 0.200000"/>
  <line x1="1500.106201" y1="1297.830322" x2="1459.893799" y2="1325.987305" style="stroke: green; stroke-width: 0.200000"/>
  <line x1="1500.106201" y1="1296.609497" x2="1459.893799" y2="1324.766602" style="stroke: green; stroke-width: 0.200000"/>
  <line x1="1500.106201" y1="1295.388794" x2="1459.893799" y2="1323.545654" style="stroke: green; stroke-width: 0.200000"/>
  <line x1="1500.106201" y1="1294.167969" x2="1459.893799" y2="1322.324951" style="stroke: green; stroke-width: 0.200000"/>
  <line x1="1500.106201" y1="1292.947266" x2="1459.893799" y2="1321.104126" style="stroke: green; stroke-width: 0.200000"/>
  <line x1="1500.106201" y1="1291.726318" x2="1459.893799" y2="1319.883423" style="stroke: green; stroke-width: 0.200000"/>
  <line x1="1500.106201" y1="1290.505615" x2="1459.893799" y2="1318.662598" style="stroke: green; stroke-width: 0.200000"/>
  <line x1="1500.106201" y1="1289.284790" x2="1459.893799" y2="1317.441895" style="stroke: green; stroke-width: 0.200000"/>
  <line x1="1500.106201" y1="1288.064087" x2="1459.893799" y2="1316.220947" style="stroke: green; stroke-width: 0.200000"/>
  <line x1="1500.106201" y1="1286.843262" x2="1459.893799" y2="1315.000244" style="stroke: green; stroke-width: 0.200000"/>
  <line x1="1500.106201" y1="1285.622559" x2="1459.893799" y2="1313.779541" style="stroke: green; stroke-width: 0.200000"/>
  <line x1="1500.106201" y1="1284.401855" x2="1459.893799" y2="1312.558716" style="stroke: green; stroke-width: 0.200000"/>
  <line x1="1500.106201" y1="1283.181030" x2="1459.893799" y2="1311.338013" style="stroke: green; stroke-width: 0.200000"/>
  <line x1="1500.106201" y1="1281.960327" x2="1459.893799" y2="1310.117188" style="stroke: green; stroke-width: 0.200000"/>
  <line x1="1500.106201" y1="1280.739502" x2="1459.893799" y2="1308.896484" style="stroke: green; stroke-width: 0.200000"/>
  <line x1="1500.106201" y1="1279.518677" x2="1459.893799" y2="1307.675659" style="stroke: green; stroke-width: 0.200000"/>
  <line x1="1500.106201" y1="1278.297852" x2="1459.893799" y2="1306.454956" style="stroke: green; stroke-width: 0.200000"/>
  <line x1="1500.106201" y1="1277.077148" x2="1459.893799" y2="1305.234131" style="stroke: green; stroke-width: 0.200000"/>
  <line x1="1500.106201" y1="1275.856323" x2="1459.893799" y2="1304.013428" style="stroke: green; stroke-width: 0.200000"/>
  <line x1="1500.106201" y1="1274.635620" x2="1459.893799" y2="1302.792725" style="stroke: green; stroke-width: 0.200000"/>
  <line x1="1500.106201" y1="1273.414795" x2="1459.893799" y2="1301.571777" style="stroke: green; stroke-width: 0.200000"/>
  <line x1="1500.106201" y1="1272.193970" x2="1459.893799" y2="1300.350952" style="stroke: green; stroke-width: 0.200000"/>
  <line x1="1500.106201" y1="1270.973267" x2="1459.893799" y2="1299.130249" style="stroke: green; stroke-width: 0.200000"/>
  <line x1="1500.106201" y1="1269.752441" x2="1459.893799" y2="1297.909546" style="stroke: green; stroke-width: 0.200000"/>
  <line x1="1500.106201" y1="1268.531738" x2="1459.893799" y2="1296.688721" style="stroke: green; stroke-width: 0.200000"/>
  <line x1="1500.106201" y1="1267.310913" x2="1459.893799" y2="1295.468018" style="stroke: green; stroke-width: 0.200000"/>
  <line x1="1500.106201" y1="1266.090210" x2="1459.893799" y2="1294.247070" style="stroke: green; stroke-width: 0.200000"/>
  <line x1="1500.106201" y1="1264.869385" x2="1459.893799" y2="1293.026367" style="stroke: green; stroke-width: 0.200000"/>
  <line x1="1500.106201" y1="1263.648560" x2="1459.893799" y2="1291.805542" style="stroke: green; stroke-width: 0.200000"/>
  <line x1="1500.106201" y1="1262.427856" x2="1459.893799" y2="1290.584839" style="stroke: green; stroke-width: 0.200000"/>
  <line x1="1500.106201" y1="1261.207031" x2="1459.893799" y2="1289.364014" style="stroke: green; stroke-width: 0.200000"/>
  <line x1="1500.106201" y1="1259.986328" x2="1459.893799" y2="1288.143311" style="stroke: green; stroke-width: 0.200000"/>
  <line x1="1500.106201" y1="1258.765503" x2="1459.893799" y2="1286.922485" style="stroke: green; stroke-width: 0.200000"/>
  <line x1="1500.106201" y1="1257.544678" x2="1459.893799" y2="1285.701782" style="stroke: green; stroke-width: 0.200000"/>
  <line x1="1500.106201" y1="1256.323975" x2="1459.893799" y2="1284.480957" style="stroke: green; stroke-width: 0.200000"/>
  <line x1="1500.106201" y1="1255.103149" x2="1459.893799" y2="1283.260254" style="stroke: green; stroke-width: 0.200000"/>
  <line x1="1500.106201" y1="1253.882446" x2="1459.893799" y2="1282.039551" style="stroke: green; stroke-width: 0.200000"/>
  <line x1="1500.106201" y1="1252.661621" x2="1459.893799" y2="1280.818604" style="stroke: green; stroke-width: 0.200000"/>
  <line x1="1500.106201" y1="1251.440918" x2="1459.893799" y2="1279.597900" style="stroke: green; stroke-width: 0.200000"/>
  <line x1="1500.106201" y1="1250.220093" x2="1459.893799" y2="1278.377075" style="stroke: green; stroke-width: 0.200000"/>
  <line x1="1500.106201" y1="1248.999268" x2="1459.893799" y2="1277.156250" style="stroke: green; stroke-width: 0.200000"/>
  <line x1="1500.106201" y1="1247.778564" x2="1459.893799" y2="1275.935547" style="stroke: green; stroke-width: 0.200000"/>
  <line x1="1500.106201" y1="1246.557739" x2="1459.893799" y2="1274.714722" style="stroke: green; stroke-width: 0.200000"/>
  <line x1="1500.106201" y1="1245.337036" x2="1459.893799" y2="1273.493896" style="stroke: green; stroke-width: 0.200000"/>
  <line x1="1500.106201" y1="1244.116211" x2="1459.893799" y2="1272.273193" style="stroke: green; stroke-width: 0.200000"/>
  <line x1="1500.106201" y1="1242.895386" x2="1459.893799" y2="1271.052368" style="stroke: green; stroke-width: 0.200000"/>
  <line x1="1500.106201" y1="1241.674683" x2="1459.893799" y2="1269.831665" style="stroke: green; stroke-width: 0.200000"/>
  <line x1="1500.106201" y1="1240.453857" x2="1459.893799" y2="1268.610840" style="stroke: green; stroke-width: 0.200000"/>
  <line x1="1500.106201" y1="1239.233154" x2="1459.893799" y2="1267.390137" style="stroke: green; stroke-width: 0.200000"/>
  <line x1="1500.106201" y1="1238.012329" x2="1459.893799" y2="1266.169312" style="stroke: green; stroke-width: 0.200000"/>
  <line x1="1500.106201" y1="1236.791504" x2="1459.893799" y2="1264.948608" style="stroke: green; stroke-width: 0.200000"/>
  <line x1="1500.106201" y1="1235.570801" x2="1459.893799" y2="1263.727783" style="stroke: green; stroke-width: 0.200000"/>
  <line x1="1500.106201" y1="1234.349976" x2="1459.893799" y2="1262.507080" style="stroke: green; stroke-width: 0.200000"/>
  <line x1="1500.106201" y1="1233.129150" x2="1459.893799" y2="1261.286255" style="stroke: green; stroke-width: 0.200000"/>
  <line x1="1500.106201" y1="1231.908447" x2="1459.893799" y2="1260.065430" style="stroke: green; stroke-width: 0.200000"/>
  <line x1="1500.106201" y1="1230.687744" x2="1459.893799" y2="1258.844727" style="stroke: green; stroke-width: 0.200000"/>
  <line x1="1500.106201" y1="1229.466797" x2="1459.893799" y2="1257.623901" style="stroke: green; stroke-width: 0.200000"/>
  <line x1="1500.106201" y1="1228.246094" x2="1459.893799" y2="1256.403076" style="stroke: green; stroke-width: 0.200000"/>
  <line x1="1500.106201" y1="1227.025269" x2="1459.893799" y2="1255.182373" style="stroke: green; stroke-width: 0.200000"/>
  <line x1="1500.106201" y1="1225.804565" x2="1459.893799" y2="1253.961548" style="stroke: green; stroke-width: 0.200000"/>
  <line x1="1500.106201" y1="1224.583862" x2="1459.893799" y2="1252.740723" style="stroke: green; stroke-width: 0.200000"/>
  <line x1="1500.106201" y1="1223.363037" x2="1459.893799" y2="1251.520020" style="stroke: green; stroke-width: 0.200000"/>
  <line x1="1500.106201" y1="1222.142212" x2="1459.893799" y2="1250.299194" style="stroke: green; stroke-width: 0.200000"/>
  <line x1="1500.106201" y1="1220.921509" x2="1459.893799" y2="1249.078491" style="stroke: green; stroke-width: 0.200000"/>
  <line x1="1500.106201" y1="1219.700806" x2="1459.893799" y2="1247.857788" style="stroke: green; stroke-width: 0.200000"/>
  <line x1="1500.106201" y1="1218.479980" x2="1459.893799" y2="1246.636963" style="stroke: green; stroke-width: 0.200000"/>
  <line x1="1500.106201" y1="1217.259277" x2="1459.893799" y2="1245.416138" style="stroke: green; stroke-width: 0.200000"/>
  <line x1="1500.106201" y1="1216.038330" x2="1459.893799" y2="1244.195435" style="stroke: green; stroke-width: 0.200000"/>
  <line x1="1500.106201" y1="1214.817627" x2="1459.893799" y2="1242.974609" style="stroke: green; stroke-width: 0.200000"/>
  <line x1="1500.106201" y1="1213.596924" x2="1459.893799" y2="1241.753906" style="stroke: green; stroke-width: 0.200000"/>
  <line x1="1500.106201" y1="1212.376099" x2="1459.893799" y2="1240.533081" style="stroke: green; stroke-width: 0.200000"/>
  <line x1="1500.106201" y1="1211.155273" x2="1459.893799" y2="1239.312256" style="stroke: green; stroke-width: 0.200000"/>
  <line x1="1500.106201" y1="1209.934570" x2="1459.893799" y2="1238.091553" style="stroke: green; stroke-width: 0.200000"/>
  <line x1="1500.106201" y1="1208.713745" x2="1459.893799" y2="1236.870728" style="stroke: green; stroke-width: 0.200000"/>
  <line x1="1500.106201" y1="1207.492920" x2="1459.893799" y2="1235.649902" style="stroke: green; stroke-width: 0.200000"/>
  <line x1="1500.106201" y1="1206.272217" x2="1459.893799" y2="1234.429199" style="stroke: green; stroke-width: 0.200000"/>
  <line x1="1500.106201" y1="1205.051392" x2="1459.893799" y2="1233.208496" style="stroke: green; stroke-width: 0.200000"/>
  <line x1="1500.106201" y1="1203.830688" x2="1459.893799" y2="1231.987549" style="stroke: green; stroke-width: 0.200000"/>
  <line x1="1500.106201" y1="1202.609863" x2="1459.893799" y2="1230.766846" style="stroke: green; stroke-width: 0.200000"/>
  <line x1="1500.106201" y1="1201.389038" x2="1459.893799" y2="1229.546143" style="stroke: green; stroke-width: 0.200000"/>
  <line x1="1500.106201" y1="1200.168335" x2="1459.893799" y2="1228.325317" style="stroke: green; stroke-width: 0.200000"/>
  <line x1="1500.106201" y1="1198.947632" x2="1459.893799" y2="1227.104614" style="stroke: green; stroke-width: 0.200000"/>
  <line x1="1500.106201" y1="1197.726807" x2="1459.893799" y2="1225.883789" style="stroke: green; stroke-width: 0.200000"/>
  <line x1="1500.106201" y1="1196.506104" x2="1459.893799" y2="1224.662964" style="stroke: green; stroke-width: 0.200000"/>
  <line x1="1500.106201" y1="1195.285156" x2="1459.893799" y2="1223.442261" style="stroke: green; stroke-width: 0.200000"/>
  <line x1="1500.106201" y1="1194.064453" x2="1459.893799" y2="1222.221436" style="stroke: green; stroke-width: 0.200000"/>
  <line x1="1500.106201" y1="1192.843750" x2="1459.893799" y2="1221.000732" style="stroke: green; stroke-width: 0.200000"/>
  <line x1="1500.106201" y1="1191.622925" x2="1459.893799" y2="1219.779907" style="stroke: green; stroke-width: 0.200000"/>
  <line x1="1500.106201" y1="1190.402100" x2="1459.893799" y2="1218.559082" style="stroke: green; stroke-width: 0.200000"/>
  <line x1="1500.106201" y1="1189.181396" x2="1459.893799" y2="1217.338379" style="stroke: green; stroke-width: 0.200000"/>
  <line x1="1500.106201" y1="1187.960571" x2="1459.893799" y2="1216.117554" style="stroke: green; stroke-width: 0.200000"/>
  <line x1="1500.106201" y1="1186.739746" x2="1459.893799" y2="1214.896851" style="stroke: green; stroke-width: 0.200000"/>
  <line x1="1500.106201" y1="1185.519043" x2="1459.893799" y2="1213.676025" style="stroke: green; stroke-width: 0.200000"/>
  <line x1="1500.106201" y1="1184.298218" x2="1459.893799" y2="1212.455322" style="stroke: green; stroke-width: 0.200000"/>
  <line x1="1500.106201" y1="1183.077515" x2="1459.893799" y2="1211.234375" style="stroke: green; stroke-width: 0.200000"/>
  <line x1="1500.106201" y1="1181.856689" x2="1459.893799" y2="1210.013672" style="stroke: green; stroke-width: 0.200000"/>
  <line x1="1500.106201" y1="1180.635864" x2="1459.893799" y2="1208.792969" style="stroke: green; stroke-width: 0.200000"/>
  <line x1="1500.106201" y1="1179.415161" x2="1459.893799" y2="1207.572144" style="stroke: green; stroke-width: 0.200000"/>
  <line x1="1500.106201" y1="1178.194336" x2="1459.893799" y2="1206.351440" style="stroke: green; stroke-width: 0.200000"/>
  <line x1="1500.106201" y1="1176.973633" x2="1459.893799" y2="1205.130615" style="stroke: green; stroke-width: 0.200000"/>
  <line x1="1500.106201" y1="1175.752808" x2="1459.893799" y2="1203.909790" style="stroke: green; stroke-width: 0.200000"/>
  <line x1="1500.106201" y1="1174.531982" x2="1459.893799" y2="1202.689087" style="stroke: green; stroke-width: 0.200000"/>
  <line x1="1500.106201" y1="1173.311279" x2="1459.893799" y2="1201.468262" style="stroke: green; stroke-width: 0.200000"/>
  <line x1="1500.106201" y1="1172.090454" x2="1459.893799" y2="1200.247559" style="stroke: green; stroke-width: 0.200000"/>
  <line x1="1500.106201" y1="1170.869751" x2="1459.893799" y2="1199.026733" style="stroke: green; stroke-width: 0.200000"/>
  <line x1="1500.106201" y1="1169.648926" x2="1459.893799" y2="1197.805908" style="stroke: green; stroke-width: 0.200000"/>
  <line x1="1500.106201" y1="1168.428223" x2="1459.893799" y2="1196.585205" style="stroke: green; stroke-width: 0.200000"/>
  <line x1="1500.106201" y1="1167.207397" x2="1459.893799" y2="1195.364380" style="stroke: green; stroke-width: 0.200000"/>
  <line x1="1500.106201" y1="1165.986572" x2="1459.893799" y2="1194.143555" style="stroke: green; stroke-width: 0.200000"/>
  <line x1="1500.106201" y1="1164.765869" x2="1459.893799" y2="1192.922852" style="stroke: green; stroke-width: 0.200000"/>
  <line x1="1500.106201" y1="1163.545044" x2="1459.893799" y2="1191.702148" style="stroke: green; stroke-width: 0.200000"/>
  <line x1="1500.106201" y1="1162.324341" x2="1459.893799" y2="1190.481201" style="stroke: green; stroke-width: 0.200000"/>
  <line x1="1500.106201" y1="1161.103516" x2="1459.893799" y2="1189.260498" style="stroke: green; stroke-width: 0.200000"/>
  <line x1="1500.106201" y1="1159.882690" x2="1459.893799" y2="1188.039673" style="stroke: green; stroke-width: 0.200000"/>
  <line x1="1500.106201" y1="1158.661987" x2="1459.893799" y2="1186.818970" style="stroke: green; stroke-width: 0.200000"/>
  <line x1="1500.106201" y1="1157.441162" x2="1459.893799" y2="1185.598267" style="stroke: green; stroke-width: 0.200000"/>
  <line x1="1500.106201" y1="1156.220459" x2="1459.893799" y2="1184.377441" style="stroke: green; stroke-width: 0.200000"/>
  <line x1="1500.106201" y1="1154.999756" x2="1459.893799" y2="1183.156616" style="stroke: green; stroke-width: 0.200000"/>
  <line x1="1500.106201" y1="1153.778931" x2="1459.893799" y2="1181.935913" style="stroke: green; stroke-width: 0.200000"/>
  <line x1="1500.106201" y1="1152.558105" x2="1459.893799" y2="1180.715088" style="stroke: green; stroke-width: 0.200000"/>
  <line x1="1500.106201" y1="1151.337402" x2="1459.893799" y2="1179.494385" style="stroke: green; stroke-width: 0.200000"/>
  <line x1="1500.106201" y1="1150.116577" x2="1459.893799" y2="1178.273682" style="stroke: green; stroke-width: 0.200000"/>
  <line x1="1500.106201" y1="1148.895752" x2="1459.893799" y2="1177.052734" style="stroke: green; stroke-width: 0.200000"/>
  <line x1="1500.106201" y1="1147.675049" x2="1459.893799" y2="1175.832031" style="stroke: green; stroke-width: 0.200000"/>
  <line x1="1500.106201" y1="1146.454224" x2="1459.893799" y2="1174.611206" style="stroke: green; stroke-width: 0.200000"/>
  <line x1="1500.106201" y1="1145.233398" x2="1459.893799" y2="1173.390503" style="stroke: green; stroke-width: 0.200000"/>
  <line x1="1500.106201" y1="1144.012695" x2="1459.893799" y2="1172.169678" style="stroke: green; stroke-width: 0.200000"/>
  <line x1="1500.106201" y1="1142.791870" x2="1459.893799" y2="1170.948975" style="stroke: green; stroke-width: 0.200000"/>
  <line x1="1500.106201" y1="1141.571167" x2="1459.893799" y2="1169.728149" style="stroke: green; stroke-width: 0.200000"/>
  <line x1="1500.106201" y1="1140.350342" x2="1459.893799" y2="1168.507324" style="stroke: green; stroke-width: 0.200000"/>
  <line x1="1500.106201" y1="1139.129639" x2="1459.893799" y2="1167.286621" style="stroke: green; stroke-width: 0.200000"/>
  <line x1="1500.106201" y1="1137.908813" x2="1459.893799" y2="1166.065796" style="stroke: green; stroke-width: 0.200000"/>
  <line x1="1500.106201" y1="1136.688110" x2="1459.893799" y2="1164.845093" style="stroke: green; stroke-width: 0.200000"/>
  <line x1="1500.106201" y1="1135.467285" x2="1459.893799" y2="1163.624268" style="stroke: green; stroke-width: 0.200000"/>
  <line x1="1500.106201" y1="1134.246582" x2="1459.893799" y2="1162.403442" style="stroke: green; stroke-width: 0.200000"/>
  <line x1="1500.106201" y1="1133.025757" x2="1459.893799" y2="1161.182739" style="stroke: green; stroke-width: 0.200000"/>
  <line x1="1500.106201" y1="1131.804932" x2="1459.893799" y2="1159.961914" style="stroke: green; stroke-width: 0.200000"/>
  <line x1="1500.106201" y1="1130.584229" x2="1459.893799" y2="1158.741211" style="stroke: green; stroke-width: 0.200000"/>
  <line x1="1500.106201" y1="1129.363403" x2="1459.893799" y2="1157.520508" style="stroke: green; stroke-width: 0.200000"/>
  <line x1="1500.106201" y1="1128.142578" x2="1459.893799" y2="1156.299561" style="stroke: green; stroke-width: 0.200000"/>
  <line x1="1500.106201" y1="1126.921875" x2="1459.893799" y2="1155.078857" style="stroke: green; stroke-width: 0.200000"/>
  <line x1="1500.106201" y1="1125.701050" x2="1459.893799" y2="1153.858154" style="stroke: green; stroke-width: 0.200000"/>
  <line x1="1500.106201" y1="1124.480225" x2="1459.893799" y2="1152.637329" style="stroke: green; stroke-width: 0.200000"/>
  <line x1="1500.106201" y1="1123.259521" x2="1459.893799" y2="1151.416504" style="stroke: green; stroke-width: 0.200000"/>
  <line x1="1500.106201" y1="1122.038696" x2="1459.893799" y2="1150.195801" style="stroke: green; stroke-width: 0.200000"/>
  <line x1="1500.106201" y1="1120.817993" x2="1459.893799" y2="1148.974976" style="stroke: green; stroke-width: 0.200000"/>
  <line x1="1500.106201" y1="1119.597168" x2="1459.893799" y2="1147.754150" style="stroke: green; stroke-width: 0.200000"/>
  <line x1="1500.106201" y1="1118.376343" x2="1459.893799" y2="1146.533447" style="stroke: green; stroke-width: 0.200000"/>
  <line x1="1500.106201" y1="1117.155640" x2="1459.893799" y2="1145.312622" style="stroke: green; stroke-width: 0.200000"/>
  <line x1="1500.106201" y1="1115.934937" x2="1459.893799" y2="1144.091919" style="stroke: green; stroke-width: 0.200000"/>
  <line x1="1500.106201" y1="1114.714111" x2="1459.893799" y2="1142.871094" style="stroke: green; stroke-width: 0.200000"/>
  <line x1="1500.106201" y1="1113.493408" x2="1459.893799" y2="1141.650269" style="stroke: green; stroke-width: 0.200000"/>
  <line x1="1500.106201" y1="1112.272583" x2="1459.893799" y2="1140.429565" style="stroke: green; stroke-width: 0.200000"/>
  <line x1="1500.106201" y1="1111.051758" x2="1459.893799" y2="1139.208740" style="stroke: green; stroke-width: 0.200000"/>
  <line x1="1500.106201" y1="1109.831055" x2="1459.893799" y2="1137.988037" style="stroke: green; stroke-width: 0.200000"/>
  <line x1="1500.106201" y1="1108.610229" x2="1459.893799" y2="1136.767212" style="stroke: green; stroke-width: 0.200000"/>
  <line x1="1500.106201" y1="1107.389404" x2="1459.893799" y2="1135.546387" style="stroke: green; stroke-width: 0.200000"/>
  <line x1="1500.106201" y1="1106.168701" x2="1459.893799" y2="1134.325684" style="stroke: green; stroke-width: 0.200000"/>
  <line x1="1500.106201" y1="1104.947876" x2="1459.893799" y2="1133.104858" style="stroke: green; stroke-width: 0.200000"/>
  <line x1="1500.106201" y1="1103.727051" x2="1459.893799" y2="1131.884155" style="stroke: green; stroke-width: 0.200000"/>
  <line x1="1500.106201" y1="1102.506348" x2="1459.893799" y2="1130.663330" style="stroke: green; stroke-width: 0.200000"/>
  <line x1="1500.106201" y1="1101.285522" x2="1459.893799" y2="1129.442627" style="stroke: green; stroke-width: 0.200000"/>
  <line x1="1500.106201" y1="1100.064819" x2="1459.893799" y2="1128.221802" style="stroke: green; stroke-width: 0.200000"/>
  <line x1="1500.106201" y1="1098.843994" x2="1459.893799" y2="1127.000977" style="stroke: green; stroke-width: 0.200000"/>
  <line x1="1500.106201" y1="1097.623291" x2="1459.893799" y2="1125.780273" style="stroke: green; stroke-width: 0.200000"/>
  <line x1="1500.106201" y1="1096.402466" x2="1459.893799" y2="1124.559448" style="stroke: green; stroke-width: 0.200000"/>
  <line x1="1500.106201" y1="1095.181641" x2="1459.893799" y2="1123.338745" style="stroke: green; stroke-width: 0.200000"/>
  <line x1="1500.106201" y1="1093.960938" x2="1459.893799" y2="1122.117920" style="stroke: green; stroke-width: 0.200000"/>
  <line x1="1500.106201" y1="1092.740234" x2="1459.893799" y2="1120.897095" style="stroke: green; stroke-width: 0.200000"/>
  <line x1="1500.106201" y1="1091.519409" x2="1459.893799" y2="1119.676392" style="stroke: green; stroke-width: 0.200000"/>
  <line x1="1500.106201" y1="1090.298584" x2="1459.893799" y2="1118.455688" style="stroke: green; stroke-width: 0.200000"/>
  <line x1="1500.106201" y1="1089.077881" x2="1459.893799" y2="1117.234863" style="stroke: green; stroke-width: 0.200000"/>
  <line x1="1500.106201" y1="1087.857056" x2="1459.893799" y2="1116.014160" style="stroke: green; stroke-width: 0.200000"/>
  <line x1="1500.106201" y1="1086.636230" x2="1459.893799" y2="1114.793335" style="stroke: green; stroke-width: 0.200000"/>
  <line x1="1500.106201" y1="1085.415527" x2="1459.893799" y2="1113.572510" style="stroke: green; stroke-width: 0.200000"/>
  <line x1="1500.106201" y1="1084.194702" x2="1459.893799" y2="1112.351807" style="stroke: green; stroke-width: 0.200000"/>
  <line x1="1500.106201" y1="1082.973877" x2="1459.893799" y2="1111.130981" style="stroke: green; stroke-width: 0.200000"/>
  <line x1="1500.106201" y1="1081.753174" x2="1459.893799" y2="1109.910156" style="stroke: green; stroke-width: 0.200000"/>
  <line x1="1500.106201" y1="1080.532349" x2="1459.893799" y2="1108.689453" style="stroke: green; stroke-width: 0.200000"/>
  <line x1="1500.106201" y1="1079.311646" x2="1459.893799" y2="1107.468628" style="stroke: green; stroke-width: 0.200000"/>
  <line x1="1500.106201" y1="1078.090942" x2="1459.893799" y2="1106.247803" style="stroke: green; stroke-width: 0.200000"/>
  <line x1="1500.106201" y1="1076.870117" x2="1459.893799" y2="1105.027100" style="stroke: green; stroke-width: 0.200000"/>
  <line x1="1500.106201" y1="1075.649292" x2="1459.893799" y2="1103.806274" style="stroke: green; stroke-width: 0.200000"/>
  <line x1="1500.106201" y1="1074.428589" x2="1459.893799" y2="1102.585571" style="stroke: green; stroke-width: 0.200000"/>
  <line x1="1500.106201" y1="1073.207764" x2="1459.893799" y2="1101.364746" style="stroke: green; stroke-width: 0.200000"/>
  <line x1="1500.106201" y1="1071.987061" x2="1459.893799" y2="1100.143921" style="stroke: green; stroke-width: 0.200000"/>
  <line x1="1500.106201" y1="1070.766235" x2="1459.893799" y2="1098.923218" style="stroke: green; stroke-width: 0.200000"/>
  <line x1="1500.106201" y1="1069.545410" x2="1459.893799" y2="1097.702393" style="stroke: green; stroke-width: 0.200000"/>
  <line x1="1500.106201" y1="1068.324707" x2="1459.893799" y2="1096.481689" style="stroke: green; stroke-width: 0.200000"/>
  <line x1="1500.106201" y1="1067.103882" x2="1459.893799" y2="1095.260986" style="stroke: green; stroke-width: 0.200000"/>
  <line x1="1500.106201" y1="1065.883057" x2="1459.893799" y2="1094.040161" style="stroke: green; stroke-width: 0.200000"/>
  <line x1="1500.106201" y1="1064.662354" x2="1459.893799" y2="1092.819336" style="stroke: green; stroke-width: 0.200000"/>
  <line x1="1500.106201" y1="1063.441528" x2="1459.893799" y2="1091.598633" style="stroke: green; stroke-width: 0.200000"/>
  <line x1="1500.106201" y1="1062.220703" x2="1459.893799" y2="1090.377808" style="stroke: green; stroke-width: 0.200000"/>
  <line x1="1500.106201" y1="1061.000000" x2="1459.893799" y2="1089.156982" style="stroke: green; stroke-width: 0.200000"/>
  <line x1="1499.791016" y1="1060.000000" x2="1459.893799" y2="1087.936279" style="stroke: green; stroke-width: 0.200000"/>
  <line x1="1498.047485" y1="1060.000000" x2="1459.893799" y2="1086.715454" style="stroke: green; stroke-width: 0.200000"/>
  <line x1="1496.303955" y1="1060.000000" x2="1459.893799" y2="1085.494629" style="stroke: green; stroke-width: 0.200000"/>
  <line x1="1494.560547" y1="1060.000000" x2="1459.893799" y2="1084.273926" style="stroke: green; stroke-width: 0.200000"/>
  <line x1="1492.817139" y1="1060.000000" x2="1459.893799" y2="1083.053101" style="stroke: green; stroke-width: 0.200000"/>
  <line x1="1491.073608" y1="1060.000000" x2="1459.893799" y2="1081.832397" style="stroke: green; stroke-width: 0.200000"/>
  <line x1="1489.330322" y1="1060.000000" x2="1459.893799" y2="1080.611572" style="stroke: green; stroke-width: 0.200000"/>
  <line x1="1487.586792" y1="1060.000000" x2="1459.893799" y2="1079.390747" style="stroke: green; stroke-width: 0.200000"/>
  <line x1="1485.843384" y1="1060.000000" x2="1459.893799" y2="1078.170044" style="stroke: green; stroke-width: 0.200000"/>
  <line x1="1484.099854" y1="1060.000000" x2="1459.893799" y2="1076.949341" style="stroke: green; stroke-width: 0.200000"/>
  <line x1="1482.356445" y1="1060.000000" x2="1459.893799" y2="1075.728516" style="stroke: green; stroke-width: 0.200000"/>
  <line x1="1480.612915" y1="1060.000000" x2="1459.893799" y2="1074.507690" style="stroke: green; stroke-width: 0.200000"/>
  <line x1="1478.869629" y1="1060.000000" x2="1459.893799" y2="1073.286987" style="stroke: green; stroke-width: 0.200000"/>
  <line x1="1477.126221" y1="1060.000000" x2="1459.893799" y2="1072.066162" style="stroke: green; stroke-width: 0.200000"/>
  <line x1="1475.382690" y1="1060.000000" x2="1459.893799" y2="1070.845459" style="stroke: green; stroke-width: 0.200000"/>
  <line x1="1473.639160" y1="1060.000000" x2="1459.893799" y2="1069.624634" style="stroke: green; stroke-width: 0.200000"/>
  <line x1="1471.895752" y1="1060.000000" x2="1459.893799" y2="1068.403809" style="stroke: green; stroke-width: 0.200000"/>
  <line x1="1470.152344" y1="1060.000000" x2="1459.893799" y2="1067.183105" style="stroke: green; stroke-width: 0.200000"/>
  <line x1="1468.408813" y1="1060.000000" x2="1459.893799" y2="1065.962280" style="stroke: green; stroke-width: 0.200000"/>
  <line x1="1466.665283" y1="1060.000000" x2="1459.893799" y2="1064.741455" style="stroke: green; stroke-width: 0.200000"/>
  <line x1="1464.921875" y1="1060.000000" x2="1459.893799" y2="1063.520752" style="stroke: green; stroke-width: 0.200000"/>
  <line x1="1463.178589" y1="1060.000000" x2="1459.893799" y2="1062.299927" style="stroke: green; stroke-width: 0.200000"/>
  <line x1="1461.435059" y1="1060.000000" x2="1459.893799" y2="1061.079224" style="stroke: green; stroke-width: 0.200000"/>
  <path d="M 1500.11  1410  1459.89  1410  1459.89  1060  1500.11  1060  1500.11  1410  " style="fill: none; stroke: black; stroke-width: 0.200000; fill-type: evenodd"  fill-opacity="1.000000" />
</svg>
