<?xml version="1.0" encoding="UTF-8" standalone="yes"?>
<svg xmlns="http://www.w3.org/2000/svg"
     xmlns:xlink="http://www.w3.org/1999/xlink"
     width="2020.0000mm" height="1600.0000mm"
     viewBox="0 0 202.000000 160.000000">
  <!--
    Build plate : 150.00 x 150.00 mm
    Coordinate  : 1 SVG unit = 1 mm
    Display zoom: 10x  (width/height = viewBox x 10)
    Hatch stroke: 0.04 mm = ~28 mm on screen at this zoom
    Legend panel: right margin (42 mm wide)
  -->
  <defs>
    <marker id="endArrow" markerWidth="2" markerHeight="1.4"
            refX="0" refY="0.7" orient="auto"
            markerUnits="strokeWidth">
      <polyline fill="darkblue" points="0,0 2,0.7 0,1.4 0.2,0.7"/>
    </marker>
  </defs>
  <!-- Background -->
  <rect x="0" y="0" width="202.000000" height="160.000000" fill="#f0f0f0" stroke="none"/>
  <!-- Build plate boundary (150 x 150 mm) -->
  <rect x="5.000000" y="5.000000" width="150.000000" height="150.000000"
        fill="#ffffff" stroke="#aaaaaa" stroke-width="0.2" stroke-dasharray="1,0.5"/>
  <!-- Build plate centre circle (r = 75.00 mm) -->
  <circle cx="80.000000" cy="80.000000" r="75.000000"
          fill="none" stroke="#bbbbbb" stroke-width="0.15" stroke-dasharray="0.8,0.4"/>
  <!-- Centre cross-hair -->
  <line x1="5.000000" y1="80.000000" x2="155.000000" y2="80.000000" stroke="#cccccc" stroke-width="0.1"/>
  <line x1="80.000000" y1="5.000000" x2="80.000000" y2="155.000000" stroke="#cccccc" stroke-width="0.1"/>
  <circle cx="80.000000" cy="80.000000" r="0.3" fill="#cccccc" stroke="none"/>
  <!-- Corner labels -->
  <text x="5.400000" y="4.600000" font-family="sans-serif" font-size="2" fill="#888888">0,0</text>
  <text x="154.600006" y="4.600000" font-family="sans-serif" font-size="2" fill="#888888" text-anchor="end">150,0</text>
  <text x="5.400000" y="157.199997" font-family="sans-serif" font-size="2" fill="#888888">0,150</text>
  <!-- Layer geometry -->
  <g id="geometry">
    <g class="thermal-hatch" data-segment="8" data-name="CoreNormalHatch">
      <line x1="35.95908" y1="125.55756" x2="34.99845" y2="127.44291" stroke="#228B22" stroke-width="0.04000"/>
      <line x1="35.97109" y1="125.75426" x2="35.11274" y2="127.43887" stroke="#228B22" stroke-width="0.04000"/>
      <line x1="35.98309" y1="125.95097" x2="35.22703" y2="127.43484" stroke="#228B22" stroke-width="0.04000"/>
      <line x1="35.99510" y1="126.14767" x2="35.34132" y2="127.43080" stroke="#228B22" stroke-width="0.04000"/>
      <line x1="36.00711" y1="126.34438" x2="35.45560" y2="127.42676" stroke="#228B22" stroke-width="0.04000"/>
      <line x1="36.00422" y1="126.57032" x2="35.56990" y2="127.42272" stroke="#228B22" stroke-width="0.04000"/>
      <line x1="35.99152" y1="126.81552" x2="35.68419" y2="127.41869" stroke="#228B22" stroke-width="0.04000"/>
      <line x1="35.97882" y1="127.06071" x2="35.79848" y2="127.41465" stroke="#228B22" stroke-width="0.04000"/>
      <line x1="35.96640" y1="127.30534" x2="35.91109" y2="127.41389" stroke="#228B22" stroke-width="0.04000"/>
      <line x1="35.94521" y1="125.36452" x2="34.90682" y2="127.40247" stroke="#228B22" stroke-width="0.04000"/>
      <line x1="35.92363" y1="125.18659" x2="34.83366" y2="127.32579" stroke="#228B22" stroke-width="0.04000"/>
      <line x1="35.90206" y1="125.00867" x2="34.76049" y2="127.24912" stroke="#228B22" stroke-width="0.04000"/>
      <line x1="35.88048" y1="124.83075" x2="34.68732" y2="127.17246" stroke="#228B22" stroke-width="0.04000"/>
      <line x1="35.85891" y1="124.65283" x2="34.61415" y2="127.09579" stroke="#228B22" stroke-width="0.04000"/>
      <line x1="35.83789" y1="124.47380" x2="34.54098" y2="127.01912" stroke="#228B22" stroke-width="0.04000"/>
      <line x1="35.83020" y1="124.26862" x2="34.46781" y2="126.94245" stroke="#228B22" stroke-width="0.04000"/>
      <line x1="35.82251" y1="124.06344" x2="34.39465" y2="126.86578" stroke="#228B22" stroke-width="0.04000"/>
      <line x1="35.81163" y1="123.86452" x2="34.32140" y2="126.78927" stroke="#228B22" stroke-width="0.04000"/>
      <line x1="35.78448" y1="123.69755" x2="34.26746" y2="126.67486" stroke="#228B22" stroke-width="0.04000"/>
      <line x1="35.75732" y1="123.53057" x2="34.21534" y2="126.55688" stroke="#228B22" stroke-width="0.04000"/>
      <line x1="35.73704" y1="123.35013" x2="34.16232" y2="126.44068" stroke="#228B22" stroke-width="0.04000"/>
      <line x1="35.72438" y1="123.15468" x2="34.10929" y2="126.32448" stroke="#228B22" stroke-width="0.04000"/>
      <line x1="35.71173" y1="122.95924" x2="34.05627" y2="126.20828" stroke="#228B22" stroke-width="0.04000"/>
      <line x1="35.69908" y1="122.76381" x2="34.00324" y2="126.09209" stroke="#228B22" stroke-width="0.04000"/>
      <line x1="35.68613" y1="122.56895" x2="33.95022" y2="125.97588" stroke="#228B22" stroke-width="0.04000"/>
      <line x1="35.66954" y1="122.38123" x2="33.89719" y2="125.85968" stroke="#228B22" stroke-width="0.04000"/>
      <line x1="35.65774" y1="122.18414" x2="33.84489" y2="125.74204" stroke="#228B22" stroke-width="0.04000"/>
      <line x1="35.63390" y1="122.01066" x2="33.79274" y2="125.62413" stroke="#228B22" stroke-width="0.04000"/>
      <line x1="35.61006" y1="121.83717" x2="33.74059" y2="125.50623" stroke="#228B22" stroke-width="0.04000"/>
      <line x1="35.58623" y1="121.66368" x2="33.68916" y2="125.38687" stroke="#228B22" stroke-width="0.04000"/>
      <line x1="35.56052" y1="121.49386" x2="33.64023" y2="125.26265" stroke="#228B22" stroke-width="0.04000"/>
      <line x1="35.53367" y1="121.32630" x2="33.59129" y2="125.13843" stroke="#228B22" stroke-width="0.04000"/>
      <line x1="35.50524" y1="121.16181" x2="33.54235" y2="125.01420" stroke="#228B22" stroke-width="0.04000"/>
      <line x1="35.47093" y1="121.00890" x2="33.49268" y2="124.89142" stroke="#228B22" stroke-width="0.04000"/>
      <line x1="35.43967" y1="120.84996" x2="33.44005" y2="124.77444" stroke="#228B22" stroke-width="0.04000"/>
      <line x1="35.40842" y1="120.69103" x2="33.38742" y2="124.65748" stroke="#228B22" stroke-width="0.04000"/>
      <line x1="35.37717" y1="120.53210" x2="33.33479" y2="124.54050" stroke="#228B22" stroke-width="0.04000"/>
      <line x1="35.34592" y1="120.37317" x2="33.28215" y2="124.42353" stroke="#228B22" stroke-width="0.04000"/>
      <line x1="35.31467" y1="120.21423" x2="33.22952" y2="124.30656" stroke="#228B22" stroke-width="0.04000"/>
      <line x1="35.28179" y1="120.05849" x2="33.17689" y2="124.18958" stroke="#228B22" stroke-width="0.04000"/>
      <line x1="35.24734" y1="119.90583" x2="33.12188" y2="124.07729" stroke="#228B22" stroke-width="0.04000"/>
      <line x1="35.21786" y1="119.74341" x2="33.06459" y2="123.96945" stroke="#228B22" stroke-width="0.04000"/>
      <line x1="35.18839" y1="119.58099" x2="33.01022" y2="123.85589" stroke="#228B22" stroke-width="0.04000"/>
      <line x1="35.15891" y1="119.41857" x2="32.95668" y2="123.74069" stroke="#228B22" stroke-width="0.04000"/>
      <line x1="35.12944" y1="119.25615" x2="32.90372" y2="123.62437" stroke="#228B22" stroke-width="0.04000"/>
      <line x1="35.09750" y1="119.09856" x2="32.85076" y2="123.50804" stroke="#228B22" stroke-width="0.04000"/>
      <line x1="35.06372" y1="118.94460" x2="32.79780" y2="123.39172" stroke="#228B22" stroke-width="0.04000"/>
      <line x1="35.03017" y1="118.79015" x2="32.74483" y2="123.27539" stroke="#228B22" stroke-width="0.04000"/>
      <line x1="34.99850" y1="118.63206" x2="32.69187" y2="123.15907" stroke="#228B22" stroke-width="0.04000"/>
      <line x1="34.96682" y1="118.47396" x2="32.63891" y2="123.04274" stroke="#228B22" stroke-width="0.04000"/>
      <line x1="34.93514" y1="118.31586" x2="32.58550" y2="122.92730" stroke="#228B22" stroke-width="0.04000"/>
      <line x1="34.90228" y1="118.16010" x2="32.53207" y2="122.81187" stroke="#228B22" stroke-width="0.04000"/>
      <line x1="34.85974" y1="118.02332" x2="32.47865" y2="122.69646" stroke="#228B22" stroke-width="0.04000"/>
      <line x1="34.81720" y1="117.88653" x2="32.42522" y2="122.58105" stroke="#228B22" stroke-width="0.04000"/>
      <line x1="34.77702" y1="117.74512" x2="32.37180" y2="122.46564" stroke="#228B22" stroke-width="0.04000"/>
      <line x1="34.73779" y1="117.60185" x2="32.31837" y2="122.35022" stroke="#228B22" stroke-width="0.04000"/>
      <line x1="34.69855" y1="117.45858" x2="32.26495" y2="122.23480" stroke="#228B22" stroke-width="0.04000"/>
      <line x1="34.65932" y1="117.31531" x2="32.21544" y2="122.11170" stroke="#228B22" stroke-width="0.04000"/>
      <line x1="34.61949" y1="117.17320" x2="32.16257" y2="121.99519" stroke="#228B22" stroke-width="0.04000"/>
      <line x1="34.57857" y1="117.03325" x2="32.10723" y2="121.88353" stroke="#228B22" stroke-width="0.04000"/>
      <line x1="34.53765" y1="116.89330" x2="32.04306" y2="121.78921" stroke="#228B22" stroke-width="0.04000"/>
      <line x1="34.49384" y1="116.75903" x2="31.97889" y2="121.69488" stroke="#228B22" stroke-width="0.04000"/>
      <line x1="34.44947" y1="116.62582" x2="31.91472" y2="121.60054" stroke="#228B22" stroke-width="0.04000"/>
      <line x1="34.40511" y1="116.49261" x2="31.85055" y2="121.50621" stroke="#228B22" stroke-width="0.04000"/>
      <line x1="34.35394" y1="116.37276" x2="31.78638" y2="121.41188" stroke="#228B22" stroke-width="0.04000"/>
      <line x1="34.30080" y1="116.25681" x2="31.72222" y2="121.31756" stroke="#228B22" stroke-width="0.04000"/>
      <line x1="34.24765" y1="116.14084" x2="31.65340" y2="121.23235" stroke="#228B22" stroke-width="0.04000"/>
      <line x1="34.19450" y1="116.02488" x2="31.58272" y2="121.15079" stroke="#228B22" stroke-width="0.04000"/>
      <line x1="34.13440" y1="115.92257" x2="31.51204" y2="121.06924" stroke="#228B22" stroke-width="0.04000"/>
      <line x1="34.07089" y1="115.82693" x2="31.44135" y2="120.98769" stroke="#228B22" stroke-width="0.04000"/>
      <line x1="34.00739" y1="115.73129" x2="31.37067" y2="120.90614" stroke="#228B22" stroke-width="0.04000"/>
      <line x1="33.94389" y1="115.63564" x2="31.30000" y2="120.82459" stroke="#228B22" stroke-width="0.04000"/>
      <line x1="33.88040" y1="115.54000" x2="31.23348" y2="120.73488" stroke="#228B22" stroke-width="0.04000"/>
      <line x1="33.81813" y1="115.44193" x2="31.16716" y2="120.64474" stroke="#228B22" stroke-width="0.04000"/>
      <line x1="33.75587" y1="115.34385" x2="31.10045" y2="120.55541" stroke="#228B22" stroke-width="0.04000"/>
      <line x1="33.69361" y1="115.24577" x2="31.03191" y2="120.46966" stroke="#228B22" stroke-width="0.04000"/>
      <line x1="33.62925" y1="115.15182" x2="30.96338" y2="120.38390" stroke="#228B22" stroke-width="0.04000"/>
      <line x1="33.56244" y1="115.06268" x2="30.90402" y2="120.28011" stroke="#228B22" stroke-width="0.04000"/>
      <line x1="33.49562" y1="114.97354" x2="30.84547" y2="120.17476" stroke="#228B22" stroke-width="0.04000"/>
      <line x1="33.39888" y1="114.94315" x2="30.78692" y2="120.06940" stroke="#228B22" stroke-width="0.04000"/>
      <line x1="33.30104" y1="114.91491" x2="30.72837" y2="119.96404" stroke="#228B22" stroke-width="0.04000"/>
      <line x1="33.20319" y1="114.88667" x2="30.66982" y2="119.85869" stroke="#228B22" stroke-width="0.04000"/>
      <line x1="33.10535" y1="114.85842" x2="30.61232" y2="119.75127" stroke="#228B22" stroke-width="0.04000"/>
      <line x1="33.00751" y1="114.83018" x2="30.56094" y2="119.63183" stroke="#228B22" stroke-width="0.04000"/>
      <line x1="32.90966" y1="114.80194" x2="30.50957" y2="119.51240" stroke="#228B22" stroke-width="0.04000"/>
      <line x1="32.81182" y1="114.77370" x2="30.45819" y2="119.39296" stroke="#228B22" stroke-width="0.04000"/>
      <line x1="32.69709" y1="114.77859" x2="30.40681" y2="119.27352" stroke="#228B22" stroke-width="0.04000"/>
      <line x1="32.58215" y1="114.78392" x2="30.35544" y2="119.15408" stroke="#228B22" stroke-width="0.04000"/>
      <line x1="32.45169" y1="114.81969" x2="30.42389" y2="118.79946" stroke="#228B22" stroke-width="0.04000"/>
      <line x1="32.24989" y1="114.99548" x2="30.46886" y2="118.49094" stroke="#228B22" stroke-width="0.04000"/>
      <line x1="32.05983" y1="115.14822" x2="30.51383" y2="118.18242" stroke="#228B22" stroke-width="0.04000"/>
      <line x1="31.86977" y1="115.30097" x2="30.55880" y2="117.87390" stroke="#228B22" stroke-width="0.04000"/>
      <line x1="31.67970" y1="115.45372" x2="30.91484" y2="116.95486" stroke="#228B22" stroke-width="0.04000"/>
    </g>
    <g class="thermal-hatch" data-segment="8" data-name="CoreNormalHatch">
      <line x1="52.96730" y1="113.54649" x2="52.39602" y2="114.66769" stroke="#228B22" stroke-width="0.04000"/>
      <line x1="53.02917" y1="113.64536" x2="52.50975" y2="114.66477" stroke="#228B22" stroke-width="0.04000"/>
      <line x1="52.90544" y1="113.44765" x2="52.29959" y2="114.63668" stroke="#228B22" stroke-width="0.04000"/>
      <line x1="52.84357" y1="113.34879" x2="52.20299" y2="114.60602" stroke="#228B22" stroke-width="0.04000"/>
      <line x1="53.09024" y1="113.74575" x2="52.65242" y2="114.60503" stroke="#228B22" stroke-width="0.04000"/>
      <line x1="52.78171" y1="113.24994" x2="52.10638" y2="114.57536" stroke="#228B22" stroke-width="0.04000"/>
      <line x1="53.14854" y1="113.85161" x2="52.79509" y2="114.54529" stroke="#228B22" stroke-width="0.04000"/>
      <line x1="52.72162" y1="113.14761" x2="52.00977" y2="114.54469" stroke="#228B22" stroke-width="0.04000"/>
      <line x1="52.66380" y1="113.04082" x2="51.91315" y2="114.51403" stroke="#228B22" stroke-width="0.04000"/>
      <line x1="53.20683" y1="113.95747" x2="52.93777" y2="114.48554" stroke="#228B22" stroke-width="0.04000"/>
      <line x1="52.60597" y1="112.93404" x2="51.81655" y2="114.48337" stroke="#228B22" stroke-width="0.04000"/>
      <line x1="52.54548" y1="112.83250" x2="51.71994" y2="114.45271" stroke="#228B22" stroke-width="0.04000"/>
      <line x1="53.26513" y1="114.06332" x2="53.08044" y2="114.42580" stroke="#228B22" stroke-width="0.04000"/>
      <line x1="52.46362" y1="112.77289" x2="51.62397" y2="114.42079" stroke="#228B22" stroke-width="0.04000"/>
      <line x1="52.38175" y1="112.71329" x2="51.53167" y2="114.38168" stroke="#228B22" stroke-width="0.04000"/>
      <line x1="52.29989" y1="112.65368" x2="51.43937" y2="114.34255" stroke="#228B22" stroke-width="0.04000"/>
      <line x1="52.21803" y1="112.59408" x2="51.34613" y2="114.30527" stroke="#228B22" stroke-width="0.04000"/>
      <line x1="52.13617" y1="112.53448" x2="51.25100" y2="114.27171" stroke="#228B22" stroke-width="0.04000"/>
      <line x1="52.05350" y1="112.47644" x2="51.15588" y2="114.23813" stroke="#228B22" stroke-width="0.04000"/>
      <line x1="51.96558" y1="112.42874" x2="51.06075" y2="114.20455" stroke="#228B22" stroke-width="0.04000"/>
      <line x1="51.87764" y1="112.38103" x2="50.96562" y2="114.17097" stroke="#228B22" stroke-width="0.04000"/>
      <line x1="51.78972" y1="112.33334" x2="50.87050" y2="114.13741" stroke="#228B22" stroke-width="0.04000"/>
      <line x1="51.70179" y1="112.28563" x2="50.77537" y2="114.10384" stroke="#228B22" stroke-width="0.04000"/>
      <line x1="51.61386" y1="112.23793" x2="50.67989" y2="114.07096" stroke="#228B22" stroke-width="0.04000"/>
      <line x1="51.52594" y1="112.19023" x2="50.58441" y2="114.03809" stroke="#228B22" stroke-width="0.04000"/>
      <line x1="51.43801" y1="112.14253" x2="50.48892" y2="114.00521" stroke="#228B22" stroke-width="0.04000"/>
      <line x1="51.35004" y1="112.09492" x2="50.39344" y2="113.97234" stroke="#228B22" stroke-width="0.04000"/>
      <line x1="51.26203" y1="112.04736" x2="50.29699" y2="113.94136" stroke="#228B22" stroke-width="0.04000"/>
      <line x1="51.17166" y1="112.00446" x2="50.19851" y2="113.91438" stroke="#228B22" stroke-width="0.04000"/>
      <line x1="51.08001" y1="111.96406" x2="50.10002" y2="113.88741" stroke="#228B22" stroke-width="0.04000"/>
      <line x1="50.98837" y1="111.92366" x2="50.00153" y2="113.86042" stroke="#228B22" stroke-width="0.04000"/>
      <line x1="50.89672" y1="111.88326" x2="49.90305" y2="113.83344" stroke="#228B22" stroke-width="0.04000"/>
      <line x1="50.80507" y1="111.84285" x2="49.80265" y2="113.81023" stroke="#228B22" stroke-width="0.04000"/>
      <line x1="50.71492" y1="111.79951" x2="49.70224" y2="113.78703" stroke="#228B22" stroke-width="0.04000"/>
      <line x1="50.62489" y1="111.75594" x2="49.60182" y2="113.76383" stroke="#228B22" stroke-width="0.04000"/>
      <line x1="50.53486" y1="111.71236" x2="49.50141" y2="113.74063" stroke="#228B22" stroke-width="0.04000"/>
      <line x1="50.44484" y1="111.66878" x2="49.40099" y2="113.71744" stroke="#228B22" stroke-width="0.04000"/>
      <line x1="50.35310" y1="111.62855" x2="49.30058" y2="113.69424" stroke="#228B22" stroke-width="0.04000"/>
      <line x1="50.25996" y1="111.59109" x2="49.20017" y2="113.67104" stroke="#228B22" stroke-width="0.04000"/>
      <line x1="50.16814" y1="111.55103" x2="49.09975" y2="113.64784" stroke="#228B22" stroke-width="0.04000"/>
      <line x1="50.07847" y1="111.50674" x2="48.99795" y2="113.62738" stroke="#228B22" stroke-width="0.04000"/>
      <line x1="49.98880" y1="111.46246" x2="48.89525" y2="113.60867" stroke="#228B22" stroke-width="0.04000"/>
      <line x1="49.89913" y1="111.41817" x2="48.79356" y2="113.58797" stroke="#228B22" stroke-width="0.04000"/>
      <line x1="49.80946" y1="111.37389" x2="48.69228" y2="113.56648" stroke="#228B22" stroke-width="0.04000"/>
      <line x1="49.71980" y1="111.32960" x2="48.59100" y2="113.54499" stroke="#228B22" stroke-width="0.04000"/>
      <line x1="49.63013" y1="111.28532" x2="48.48972" y2="113.52349" stroke="#228B22" stroke-width="0.04000"/>
      <line x1="49.54018" y1="111.24158" x2="48.38844" y2="113.50199" stroke="#228B22" stroke-width="0.04000"/>
      <line x1="49.44835" y1="111.20154" x2="48.28716" y2="113.48050" stroke="#228B22" stroke-width="0.04000"/>
      <line x1="49.35652" y1="111.16150" x2="48.18588" y2="113.45901" stroke="#228B22" stroke-width="0.04000"/>
      <line x1="49.26469" y1="111.12145" x2="48.08460" y2="113.43751" stroke="#228B22" stroke-width="0.04000"/>
      <line x1="49.17286" y1="111.08141" x2="47.98332" y2="113.41602" stroke="#228B22" stroke-width="0.04000"/>
      <line x1="49.08103" y1="111.04137" x2="47.88657" y2="113.38563" stroke="#228B22" stroke-width="0.04000"/>
      <line x1="48.98920" y1="111.00133" x2="47.79041" y2="113.35408" stroke="#228B22" stroke-width="0.04000"/>
      <line x1="48.89737" y1="110.96128" x2="47.69029" y2="113.33031" stroke="#228B22" stroke-width="0.04000"/>
      <line x1="48.80554" y1="110.92124" x2="47.58876" y2="113.30930" stroke="#228B22" stroke-width="0.04000"/>
      <line x1="48.71371" y1="110.88120" x2="47.48723" y2="113.28830" stroke="#228B22" stroke-width="0.04000"/>
      <line x1="48.62457" y1="110.83587" x2="47.38570" y2="113.26730" stroke="#228B22" stroke-width="0.04000"/>
      <line x1="48.53360" y1="110.79415" x2="47.28417" y2="113.24629" stroke="#228B22" stroke-width="0.04000"/>
      <line x1="48.44334" y1="110.75102" x2="47.18264" y2="113.22529" stroke="#228B22" stroke-width="0.04000"/>
      <line x1="48.35350" y1="110.70707" x2="47.08111" y2="113.20428" stroke="#228B22" stroke-width="0.04000"/>
      <line x1="48.26366" y1="110.66312" x2="46.97958" y2="113.18328" stroke="#228B22" stroke-width="0.04000"/>
      <line x1="48.17383" y1="110.61916" x2="46.87805" y2="113.16228" stroke="#228B22" stroke-width="0.04000"/>
      <line x1="48.08399" y1="110.57521" x2="46.77995" y2="113.13454" stroke="#228B22" stroke-width="0.04000"/>
      <line x1="47.99416" y1="110.53126" x2="46.68229" y2="113.10595" stroke="#228B22" stroke-width="0.04000"/>
      <line x1="47.90432" y1="110.48730" x2="46.58462" y2="113.07735" stroke="#228B22" stroke-width="0.04000"/>
      <line x1="47.81446" y1="110.44338" x2="46.48696" y2="113.04876" stroke="#228B22" stroke-width="0.04000"/>
      <line x1="47.72408" y1="110.40050" x2="46.38929" y2="113.02016" stroke="#228B22" stroke-width="0.04000"/>
      <line x1="47.63370" y1="110.35762" x2="46.29163" y2="112.99157" stroke="#228B22" stroke-width="0.04000"/>
      <line x1="47.54621" y1="110.30905" x2="46.19397" y2="112.96297" stroke="#228B22" stroke-width="0.04000"/>
      <line x1="47.46212" y1="110.25381" x2="46.09630" y2="112.93438" stroke="#228B22" stroke-width="0.04000"/>
      <line x1="47.37804" y1="110.19857" x2="45.99864" y2="112.90578" stroke="#228B22" stroke-width="0.04000"/>
      <line x1="47.29395" y1="110.14333" x2="45.89882" y2="112.88144" stroke="#228B22" stroke-width="0.04000"/>
      <line x1="47.20986" y1="110.08810" x2="45.80040" y2="112.85432" stroke="#228B22" stroke-width="0.04000"/>
      <line x1="47.12578" y1="110.03285" x2="45.70990" y2="112.81166" stroke="#228B22" stroke-width="0.04000"/>
      <line x1="47.04169" y1="109.97762" x2="45.61941" y2="112.76900" stroke="#228B22" stroke-width="0.04000"/>
      <line x1="46.95481" y1="109.92785" x2="45.52891" y2="112.72634" stroke="#228B22" stroke-width="0.04000"/>
      <line x1="46.86702" y1="109.87988" x2="45.43842" y2="112.68368" stroke="#228B22" stroke-width="0.04000"/>
      <line x1="46.77923" y1="109.83191" x2="45.34792" y2="112.64101" stroke="#228B22" stroke-width="0.04000"/>
      <line x1="46.69144" y1="109.78394" x2="45.25871" y2="112.59584" stroke="#228B22" stroke-width="0.04000"/>
      <line x1="46.60365" y1="109.73597" x2="45.17002" y2="112.54961" stroke="#228B22" stroke-width="0.04000"/>
      <line x1="46.51586" y1="109.68800" x2="45.08135" y2="112.50338" stroke="#228B22" stroke-width="0.04000"/>
      <line x1="46.42807" y1="109.64004" x2="44.99267" y2="112.45715" stroke="#228B22" stroke-width="0.04000"/>
      <line x1="46.34027" y1="109.59206" x2="44.90400" y2="112.41093" stroke="#228B22" stroke-width="0.04000"/>
      <line x1="46.25201" y1="109.54502" x2="44.81532" y2="112.36470" stroke="#228B22" stroke-width="0.04000"/>
      <line x1="46.16363" y1="109.49821" x2="44.72656" y2="112.31863" stroke="#228B22" stroke-width="0.04000"/>
      <line x1="46.07772" y1="109.44654" x2="44.63774" y2="112.27267" stroke="#228B22" stroke-width="0.04000"/>
      <line x1="45.99248" y1="109.39358" x2="44.54893" y2="112.22671" stroke="#228B22" stroke-width="0.04000"/>
      <line x1="45.90723" y1="109.34061" x2="44.46135" y2="112.17831" stroke="#228B22" stroke-width="0.04000"/>
      <line x1="45.83101" y1="109.26995" x2="44.37584" y2="112.12586" stroke="#228B22" stroke-width="0.04000"/>
      <line x1="45.75672" y1="109.19548" x2="44.29034" y2="112.07341" stroke="#228B22" stroke-width="0.04000"/>
      <line x1="45.68243" y1="109.12100" x2="44.20483" y2="112.02096" stroke="#228B22" stroke-width="0.04000"/>
      <line x1="45.60814" y1="109.04653" x2="44.12075" y2="111.96571" stroke="#228B22" stroke-width="0.04000"/>
      <line x1="45.53386" y1="108.97206" x2="44.03802" y2="111.90781" stroke="#228B22" stroke-width="0.04000"/>
      <line x1="45.46141" y1="108.89397" x2="43.95529" y2="111.84991" stroke="#228B22" stroke-width="0.04000"/>
      <line x1="45.39189" y1="108.81014" x2="43.87256" y2="111.79200" stroke="#228B22" stroke-width="0.04000"/>
      <line x1="45.32237" y1="108.72632" x2="43.78983" y2="111.73410" stroke="#228B22" stroke-width="0.04000"/>
      <line x1="45.25245" y1="108.64329" x2="43.70766" y2="111.67510" stroke="#228B22" stroke-width="0.04000"/>
      <line x1="45.18229" y1="108.56070" x2="43.62643" y2="111.61427" stroke="#228B22" stroke-width="0.04000"/>
      <line x1="45.11214" y1="108.47812" x2="43.54519" y2="111.55343" stroke="#228B22" stroke-width="0.04000"/>
      <line x1="45.04198" y1="108.39553" x2="43.46395" y2="111.49259" stroke="#228B22" stroke-width="0.04000"/>
      <line x1="44.97183" y1="108.31294" x2="43.38272" y2="111.43176" stroke="#228B22" stroke-width="0.04000"/>
      <line x1="44.90183" y1="108.23006" x2="43.30148" y2="111.37092" stroke="#228B22" stroke-width="0.04000"/>
      <line x1="44.83206" y1="108.14673" x2="43.22032" y2="111.30994" stroke="#228B22" stroke-width="0.04000"/>
      <line x1="44.76228" y1="108.06340" x2="43.13949" y2="111.24831" stroke="#228B22" stroke-width="0.04000"/>
      <line x1="44.69251" y1="107.98007" x2="43.05866" y2="111.18668" stroke="#228B22" stroke-width="0.04000"/>
      <line x1="44.62273" y1="107.89674" x2="42.97783" y2="111.12505" stroke="#228B22" stroke-width="0.04000"/>
      <line x1="44.55296" y1="107.81342" x2="42.89544" y2="111.06647" stroke="#228B22" stroke-width="0.04000"/>
      <line x1="44.48318" y1="107.73009" x2="42.81303" y2="111.00795" stroke="#228B22" stroke-width="0.04000"/>
      <line x1="44.41208" y1="107.64938" x2="42.73062" y2="110.94943" stroke="#228B22" stroke-width="0.04000"/>
      <line x1="44.33951" y1="107.57153" x2="42.65150" y2="110.88443" stroke="#228B22" stroke-width="0.04000"/>
      <line x1="44.26044" y1="107.50644" x2="42.57294" y2="110.81834" stroke="#228B22" stroke-width="0.04000"/>
      <line x1="44.18137" y1="107.44135" x2="42.49438" y2="110.75226" stroke="#228B22" stroke-width="0.04000"/>
      <line x1="44.10434" y1="107.37228" x2="42.41582" y2="110.68617" stroke="#228B22" stroke-width="0.04000"/>
      <line x1="44.02792" y1="107.30199" x2="42.33726" y2="110.62009" stroke="#228B22" stroke-width="0.04000"/>
      <line x1="43.95150" y1="107.23170" x2="42.25870" y2="110.55400" stroke="#228B22" stroke-width="0.04000"/>
      <line x1="43.87508" y1="107.16141" x2="42.18402" y2="110.48030" stroke="#228B22" stroke-width="0.04000"/>
      <line x1="43.79866" y1="107.09113" x2="42.10986" y2="110.40559" stroke="#228B22" stroke-width="0.04000"/>
      <line x1="43.72224" y1="107.02084" x2="42.03569" y2="110.33089" stroke="#228B22" stroke-width="0.04000"/>
      <line x1="43.64582" y1="106.95055" x2="41.96152" y2="110.25618" stroke="#228B22" stroke-width="0.04000"/>
      <line x1="43.55619" y1="106.90618" x2="41.88735" y2="110.18147" stroke="#228B22" stroke-width="0.04000"/>
      <line x1="43.46045" y1="106.87382" x2="41.81318" y2="110.10676" stroke="#228B22" stroke-width="0.04000"/>
      <line x1="43.36471" y1="106.84145" x2="41.73902" y2="110.03205" stroke="#228B22" stroke-width="0.04000"/>
      <line x1="43.26897" y1="106.80909" x2="41.66406" y2="109.95890" stroke="#228B22" stroke-width="0.04000"/>
      <line x1="43.17323" y1="106.77673" x2="41.58894" y2="109.88606" stroke="#228B22" stroke-width="0.04000"/>
      <line x1="43.07748" y1="106.74436" x2="41.51382" y2="109.81323" stroke="#228B22" stroke-width="0.04000"/>
      <line x1="42.98174" y1="106.71200" x2="41.44058" y2="109.73669" stroke="#228B22" stroke-width="0.04000"/>
      <line x1="42.88600" y1="106.67963" x2="41.36770" y2="109.65945" stroke="#228B22" stroke-width="0.04000"/>
      <line x1="42.79657" y1="106.63487" x2="41.30223" y2="109.56767" stroke="#228B22" stroke-width="0.04000"/>
      <line x1="42.70663" y1="106.59113" x2="41.23844" y2="109.47262" stroke="#228B22" stroke-width="0.04000"/>
      <line x1="42.61001" y1="106.56048" x2="41.17464" y2="109.37756" stroke="#228B22" stroke-width="0.04000"/>
      <line x1="42.50095" y1="106.55426" x2="41.11084" y2="109.28249" stroke="#228B22" stroke-width="0.04000"/>
      <line x1="42.37995" y1="106.57146" x2="41.04704" y2="109.18744" stroke="#228B22" stroke-width="0.04000"/>
      <line x1="42.25896" y1="106.58865" x2="40.98325" y2="109.09238" stroke="#228B22" stroke-width="0.04000"/>
      <line x1="42.13796" y1="106.60585" x2="40.91945" y2="108.99731" stroke="#228B22" stroke-width="0.04000"/>
      <line x1="42.01697" y1="106.62305" x2="40.85565" y2="108.90226" stroke="#228B22" stroke-width="0.04000"/>
      <line x1="41.89597" y1="106.64024" x2="40.78944" y2="108.81194" stroke="#228B22" stroke-width="0.04000"/>
      <line x1="41.77498" y1="106.65744" x2="40.72296" y2="108.72215" stroke="#228B22" stroke-width="0.04000"/>
      <line x1="41.65313" y1="106.67631" x2="40.65648" y2="108.63235" stroke="#228B22" stroke-width="0.04000"/>
      <line x1="41.52890" y1="106.69986" x2="40.62933" y2="108.46537" stroke="#228B22" stroke-width="0.04000"/>
      <line x1="41.40467" y1="106.72341" x2="40.62215" y2="108.25918" stroke="#228B22" stroke-width="0.04000"/>
      <line x1="41.25005" y1="106.80660" x2="40.61498" y2="108.05299" stroke="#228B22" stroke-width="0.04000"/>
      <line x1="40.97156" y1="107.13290" x2="40.60781" y2="107.84679" stroke="#228B22" stroke-width="0.04000"/>
      <line x1="40.69636" y1="107.45274" x2="40.60743" y2="107.62728" stroke="#228B22" stroke-width="0.04000"/>
    </g>
    <g class="thermal-hatch" data-segment="8" data-name="CoreNormalHatch">
      <line x1="33.31940" y1="115.22190" x2="33.42090" y2="115.35750" stroke="#228B22" stroke-width="0.04000"/>
      <line x1="33.42090" y1="115.35750" x2="33.63680" y2="115.69760" stroke="#228B22" stroke-width="0.04000"/>
      <line x1="33.63680" y1="115.69760" x2="33.92270" y2="116.12810" stroke="#228B22" stroke-width="0.04000"/>
      <line x1="33.92270" y1="116.12810" x2="34.12460" y2="116.56870" stroke="#228B22" stroke-width="0.04000"/>
      <line x1="34.12460" y1="116.56870" x2="34.25350" y2="116.95570" stroke="#228B22" stroke-width="0.04000"/>
      <line x1="34.25350" y1="116.95570" x2="34.35500" y2="117.30210" stroke="#228B22" stroke-width="0.04000"/>
      <line x1="34.35500" y1="117.30210" x2="34.52650" y2="117.92840" stroke="#228B22" stroke-width="0.04000"/>
      <line x1="34.52650" y1="117.92840" x2="34.62550" y2="118.24680" stroke="#228B22" stroke-width="0.04000"/>
      <line x1="34.62550" y1="118.24680" x2="34.74990" y2="118.86750" stroke="#228B22" stroke-width="0.04000"/>
      <line x1="34.74990" y1="118.86750" x2="34.83200" y2="119.24200" stroke="#228B22" stroke-width="0.04000"/>
      <line x1="34.83200" y1="119.24200" x2="34.97040" y2="120.00400" stroke="#228B22" stroke-width="0.04000"/>
      <line x1="34.97040" y1="120.00400" x2="35.01030" y2="120.17050" stroke="#228B22" stroke-width="0.04000"/>
      <line x1="35.01030" y1="120.17050" x2="35.20810" y2="121.17580" stroke="#228B22" stroke-width="0.04000"/>
      <line x1="35.20810" y1="121.17580" x2="35.22630" y2="121.24190" stroke="#228B22" stroke-width="0.04000"/>
      <line x1="35.22630" y1="121.24190" x2="35.28980" y2="121.63750" stroke="#228B22" stroke-width="0.04000"/>
      <line x1="35.28980" y1="121.63750" x2="35.38100" y2="122.30170" stroke="#228B22" stroke-width="0.04000"/>
      <line x1="35.38100" y1="122.30170" x2="35.37910" y2="122.39660" stroke="#228B22" stroke-width="0.04000"/>
      <line x1="35.37910" y1="122.39660" x2="35.39850" y2="122.60790" stroke="#228B22" stroke-width="0.04000"/>
      <line x1="35.39850" y1="122.60790" x2="35.45450" y2="123.47530" stroke="#228B22" stroke-width="0.04000"/>
      <line x1="35.45450" y1="123.47530" x2="35.52700" y2="123.92110" stroke="#228B22" stroke-width="0.04000"/>
      <line x1="35.52700" y1="123.92110" x2="35.54880" y2="124.50500" stroke="#228B22" stroke-width="0.04000"/>
      <line x1="35.54880" y1="124.50500" x2="35.66060" y2="125.42700" stroke="#228B22" stroke-width="0.04000"/>
      <line x1="35.66060" y1="125.42700" x2="35.66080" y2="125.43280" stroke="#228B22" stroke-width="0.04000"/>
      <line x1="35.66080" y1="125.43280" x2="35.66240" y2="125.45690" stroke="#228B22" stroke-width="0.04000"/>
      <line x1="35.66240" y1="125.45690" x2="35.72130" y2="126.42240" stroke="#228B22" stroke-width="0.04000"/>
      <line x1="35.72130" y1="126.42240" x2="35.68470" y2="127.12850" stroke="#228B22" stroke-width="0.04000"/>
      <line x1="35.68470" y1="127.12850" x2="35.06700" y2="127.15030" stroke="#228B22" stroke-width="0.04000"/>
      <line x1="35.06700" y1="127.15030" x2="34.59080" y2="126.65130" stroke="#228B22" stroke-width="0.04000"/>
      <line x1="34.59080" y1="126.65130" x2="34.55780" y2="126.61690" stroke="#228B22" stroke-width="0.04000"/>
      <line x1="34.55780" y1="126.61690" x2="34.50950" y2="126.50300" stroke="#228B22" stroke-width="0.04000"/>
      <line x1="34.50950" y1="126.50300" x2="34.15370" y2="125.72300" stroke="#228B22" stroke-width="0.04000"/>
      <line x1="34.15370" y1="125.72300" x2="33.96610" y2="125.29900" stroke="#228B22" stroke-width="0.04000"/>
      <line x1="33.96610" y1="125.29900" x2="33.77050" y2="124.80180" stroke="#228B22" stroke-width="0.04000"/>
      <line x1="33.77050" y1="124.80180" x2="33.41170" y2="124.00480" stroke="#228B22" stroke-width="0.04000"/>
      <line x1="33.41170" y1="124.00480" x2="33.31370" y2="123.82040" stroke="#228B22" stroke-width="0.04000"/>
      <line x1="33.31370" y1="123.82040" x2="33.23220" y2="123.64580" stroke="#228B22" stroke-width="0.04000"/>
      <line x1="33.23220" y1="123.64580" x2="33.23210" y2="123.64580" stroke="#228B22" stroke-width="0.04000"/>
      <line x1="33.23210" y1="123.64580" x2="32.90090" y2="122.91820" stroke="#228B22" stroke-width="0.04000"/>
      <line x1="32.90090" y1="122.91820" x2="32.51210" y2="122.07850" stroke="#228B22" stroke-width="0.04000"/>
      <line x1="32.51210" y1="122.07850" x2="32.47330" y2="121.97220" stroke="#228B22" stroke-width="0.04000"/>
      <line x1="32.47330" y1="121.97220" x2="32.36520" y2="121.74710" stroke="#228B22" stroke-width="0.04000"/>
      <line x1="32.36520" y1="121.74710" x2="31.93410" y2="121.11340" stroke="#228B22" stroke-width="0.04000"/>
      <line x1="31.93410" y1="121.11340" x2="31.52340" y2="120.63950" stroke="#228B22" stroke-width="0.04000"/>
      <line x1="31.52340" y1="120.63950" x2="31.34310" y2="120.39440" stroke="#228B22" stroke-width="0.04000"/>
      <line x1="31.34310" y1="120.39440" x2="31.19970" y2="120.21510" stroke="#228B22" stroke-width="0.04000"/>
      <line x1="31.19970" y1="120.21510" x2="30.88030" y2="119.64080" stroke="#228B22" stroke-width="0.04000"/>
      <line x1="30.88030" y1="119.64080" x2="30.64570" y2="119.09510" stroke="#228B22" stroke-width="0.04000"/>
      <line x1="30.64570" y1="119.09510" x2="30.70330" y2="118.89310" stroke="#228B22" stroke-width="0.04000"/>
      <line x1="30.70330" y1="118.89310" x2="30.84380" y2="117.92920" stroke="#228B22" stroke-width="0.04000"/>
      <line x1="30.84380" y1="117.92920" x2="31.24270" y2="116.91290" stroke="#228B22" stroke-width="0.04000"/>
      <line x1="31.24270" y1="116.91290" x2="31.32350" y2="116.60420" stroke="#228B22" stroke-width="0.04000"/>
      <line x1="31.32350" y1="116.60420" x2="31.71540" y2="116.01600" stroke="#228B22" stroke-width="0.04000"/>
      <line x1="31.71540" y1="116.01600" x2="31.90520" y2="115.64420" stroke="#228B22" stroke-width="0.04000"/>
      <line x1="31.90520" y1="115.64420" x2="32.45040" y2="115.20630" stroke="#228B22" stroke-width="0.04000"/>
      <line x1="32.45040" y1="115.20630" x2="32.60210" y2="115.07310" stroke="#228B22" stroke-width="0.04000"/>
      <line x1="32.60210" y1="115.07310" x2="32.77590" y2="115.06500" stroke="#228B22" stroke-width="0.04000"/>
      <line x1="32.77590" y1="115.06500" x2="33.31940" y2="115.22190" stroke="#228B22" stroke-width="0.04000"/>
      <line x1="42.62290" y1="106.86880" x2="42.72740" y2="106.93210" stroke="#228B22" stroke-width="0.04000"/>
      <line x1="42.72740" y1="106.93210" x2="43.47040" y2="107.18310" stroke="#228B22" stroke-width="0.04000"/>
      <line x1="43.47040" y1="107.18310" x2="43.97240" y2="107.64500" stroke="#228B22" stroke-width="0.04000"/>
      <line x1="43.97240" y1="107.64500" x2="44.14420" y2="107.78640" stroke="#228B22" stroke-width="0.04000"/>
      <line x1="44.14420" y1="107.78640" x2="44.23380" y2="107.88400" stroke="#228B22" stroke-width="0.04000"/>
      <line x1="44.23380" y1="107.88400" x2="44.70910" y2="108.45160" stroke="#228B22" stroke-width="0.04000"/>
      <line x1="44.70910" y1="108.45160" x2="45.07150" y2="108.87820" stroke="#228B22" stroke-width="0.04000"/>
      <line x1="45.07150" y1="108.87820" x2="45.07150" y2="108.87830" stroke="#228B22" stroke-width="0.04000"/>
      <line x1="45.07150" y1="108.87830" x2="45.27370" y2="109.12180" stroke="#228B22" stroke-width="0.04000"/>
      <line x1="45.27370" y1="109.12180" x2="45.71050" y2="109.55970" stroke="#228B22" stroke-width="0.04000"/>
      <line x1="45.71050" y1="109.55970" x2="46.00030" y2="109.73990" stroke="#228B22" stroke-width="0.04000"/>
      <line x1="46.00030" y1="109.73990" x2="46.17550" y2="109.83260" stroke="#228B22" stroke-width="0.04000"/>
      <line x1="46.17550" y1="109.83260" x2="46.87250" y2="110.21350" stroke="#228B22" stroke-width="0.04000"/>
      <line x1="46.87250" y1="110.21350" x2="47.44250" y2="110.58800" stroke="#228B22" stroke-width="0.04000"/>
      <line x1="47.44250" y1="110.58800" x2="47.68530" y2="110.70290" stroke="#228B22" stroke-width="0.04000"/>
      <line x1="47.68530" y1="110.70290" x2="47.68530" y2="110.70300" stroke="#228B22" stroke-width="0.04000"/>
      <line x1="47.68530" y1="110.70300" x2="48.37570" y2="111.04090" stroke="#228B22" stroke-width="0.04000"/>
      <line x1="48.37570" y1="111.04090" x2="48.49440" y2="111.09510" stroke="#228B22" stroke-width="0.04000"/>
      <line x1="48.49440" y1="111.09510" x2="48.55260" y2="111.12740" stroke="#228B22" stroke-width="0.04000"/>
      <line x1="48.55260" y1="111.12740" x2="49.42950" y2="111.50970" stroke="#228B22" stroke-width="0.04000"/>
      <line x1="49.42950" y1="111.50970" x2="50.08420" y2="111.83300" stroke="#228B22" stroke-width="0.04000"/>
      <line x1="50.08420" y1="111.83300" x2="50.28650" y2="111.91420" stroke="#228B22" stroke-width="0.04000"/>
      <line x1="50.28650" y1="111.91420" x2="50.67640" y2="112.10310" stroke="#228B22" stroke-width="0.04000"/>
      <line x1="50.67640" y1="112.10310" x2="51.10220" y2="112.29070" stroke="#228B22" stroke-width="0.04000"/>
      <line x1="51.10220" y1="112.29070" x2="51.34010" y2="112.41930" stroke="#228B22" stroke-width="0.04000"/>
      <line x1="51.34010" y1="112.41930" x2="51.34010" y2="112.41920" stroke="#228B22" stroke-width="0.04000"/>
      <line x1="51.34010" y1="112.41920" x2="51.90970" y2="112.72830" stroke="#228B22" stroke-width="0.04000"/>
      <line x1="51.90970" y1="112.72830" x2="52.33110" y2="113.03500" stroke="#228B22" stroke-width="0.04000"/>
      <line x1="52.33110" y1="113.03500" x2="52.49640" y2="113.34050" stroke="#228B22" stroke-width="0.04000"/>
      <line x1="52.49640" y1="113.34050" x2="52.82720" y2="113.86930" stroke="#228B22" stroke-width="0.04000"/>
      <line x1="52.82720" y1="113.86930" x2="52.96640" y2="114.12200" stroke="#228B22" stroke-width="0.04000"/>
      <line x1="52.96640" y1="114.12200" x2="52.95430" y2="114.16410" stroke="#228B22" stroke-width="0.04000"/>
      <line x1="52.95430" y1="114.16410" x2="52.44330" y2="114.37800" stroke="#228B22" stroke-width="0.04000"/>
      <line x1="52.44330" y1="114.37800" x2="51.73890" y2="114.15440" stroke="#228B22" stroke-width="0.04000"/>
      <line x1="51.73890" y1="114.15440" x2="51.48280" y2="114.04590" stroke="#228B22" stroke-width="0.04000"/>
      <line x1="51.48280" y1="114.04590" x2="50.87140" y2="113.83030" stroke="#228B22" stroke-width="0.04000"/>
      <line x1="50.87140" y1="113.83030" x2="50.41430" y2="113.67290" stroke="#228B22" stroke-width="0.04000"/>
      <line x1="50.41430" y1="113.67290" x2="49.97340" y2="113.55200" stroke="#228B22" stroke-width="0.04000"/>
      <line x1="49.97340" y1="113.55200" x2="49.23500" y2="113.38140" stroke="#228B22" stroke-width="0.04000"/>
      <line x1="49.23500" y1="113.38140" x2="49.23570" y2="113.37610" stroke="#228B22" stroke-width="0.04000"/>
      <line x1="49.23570" y1="113.37610" x2="49.12100" y2="113.35510" stroke="#228B22" stroke-width="0.04000"/>
      <line x1="49.12100" y1="113.35510" x2="49.11520" y2="113.35380" stroke="#228B22" stroke-width="0.04000"/>
      <line x1="49.11520" y1="113.35380" x2="49.07090" y2="113.34590" stroke="#228B22" stroke-width="0.04000"/>
      <line x1="49.07090" y1="113.34590" x2="49.07080" y2="113.34590" stroke="#228B22" stroke-width="0.04000"/>
      <line x1="49.07080" y1="113.34590" x2="48.91890" y2="113.31800" stroke="#228B22" stroke-width="0.04000"/>
      <line x1="48.91890" y1="113.31800" x2="48.04730" y2="113.13310" stroke="#228B22" stroke-width="0.04000"/>
      <line x1="48.04730" y1="113.13310" x2="47.84000" y2="113.06510" stroke="#228B22" stroke-width="0.04000"/>
      <line x1="47.84000" y1="113.06510" x2="46.95580" y2="112.88220" stroke="#228B22" stroke-width="0.04000"/>
      <line x1="46.95580" y1="112.88220" x2="46.95360" y2="112.88120" stroke="#228B22" stroke-width="0.04000"/>
      <line x1="46.95360" y1="112.88120" x2="46.86930" y2="112.85850" stroke="#228B22" stroke-width="0.04000"/>
      <line x1="46.86930" y1="112.85850" x2="46.04930" y2="112.61840" stroke="#228B22" stroke-width="0.04000"/>
      <line x1="46.04930" y1="112.61840" x2="45.91460" y2="112.58730" stroke="#228B22" stroke-width="0.04000"/>
      <line x1="45.91460" y1="112.58730" x2="45.44910" y2="112.36800" stroke="#228B22" stroke-width="0.04000"/>
      <line x1="45.44910" y1="112.36800" x2="44.91220" y2="112.08820" stroke="#228B22" stroke-width="0.04000"/>
      <line x1="44.91220" y1="112.08820" x2="44.63520" y2="111.94490" stroke="#228B22" stroke-width="0.04000"/>
      <line x1="44.63520" y1="111.94490" x2="44.32120" y2="111.75210" stroke="#228B22" stroke-width="0.04000"/>
      <line x1="44.32120" y1="111.75210" x2="43.90600" y2="111.46150" stroke="#228B22" stroke-width="0.04000"/>
      <line x1="43.90600" y1="111.46150" x2="43.40820" y2="111.08870" stroke="#228B22" stroke-width="0.04000"/>
      <line x1="43.40820" y1="111.08870" x2="43.14840" y2="110.89030" stroke="#228B22" stroke-width="0.04000"/>
      <line x1="43.14840" y1="110.89030" x2="42.89710" y2="110.71200" stroke="#228B22" stroke-width="0.04000"/>
      <line x1="42.89710" y1="110.71200" x2="42.44610" y2="110.33250" stroke="#228B22" stroke-width="0.04000"/>
      <line x1="42.44610" y1="110.33250" x2="41.93030" y2="109.81310" stroke="#228B22" stroke-width="0.04000"/>
      <line x1="41.93030" y1="109.81310" x2="41.70820" y2="109.59790" stroke="#228B22" stroke-width="0.04000"/>
      <line x1="41.70820" y1="109.59790" x2="41.58090" y2="109.46300" stroke="#228B22" stroke-width="0.04000"/>
      <line x1="41.58090" y1="109.46300" x2="41.08650" y2="108.72580" stroke="#228B22" stroke-width="0.04000"/>
      <line x1="41.08650" y1="108.72580" x2="40.92060" y2="108.50150" stroke="#228B22" stroke-width="0.04000"/>
      <line x1="40.92060" y1="108.50150" x2="40.89320" y2="107.71890" stroke="#228B22" stroke-width="0.04000"/>
      <line x1="40.89320" y1="107.71890" x2="40.89580" y2="107.66430" stroke="#228B22" stroke-width="0.04000"/>
      <line x1="40.89580" y1="107.66430" x2="40.95400" y2="107.60010" stroke="#228B22" stroke-width="0.04000"/>
      <line x1="40.95400" y1="107.60010" x2="41.45900" y2="107.00820" stroke="#228B22" stroke-width="0.04000"/>
      <line x1="41.45900" y1="107.00820" x2="41.73470" y2="106.95590" stroke="#228B22" stroke-width="0.04000"/>
      <line x1="41.73470" y1="106.95590" x2="42.53800" y2="106.84180" stroke="#228B22" stroke-width="0.04000"/>
      <line x1="42.53800" y1="106.84180" x2="42.62290" y2="106.86880" stroke="#228B22" stroke-width="0.04000"/>
    </g>
    <g class="thermal-contour" data-segment="1" data-name="CoreContour_Volume">
    <path d="M 33.4933 114.97 L 33.6601 115.193 L 33.8801 115.54 L 34.1771 115.987 L 34.3951 116.463 L 34.5311 116.871 L 34.6339 117.222 L 34.8049 117.847 L 34.9069 118.175 L 35.0338 118.808 L 35.1168 119.187 L 35.2543 119.944 L 35.2941 120.11 L 35.4906 121.109 L 35.5101 121.179 L 35.5771 121.597 L 35.6716 122.285 L 35.6694 122.386 L 35.6873 122.581 L 35.743 123.443 L 35.8161 123.892 L 35.8382 124.482 L 35.95 125.404 L 35.9505 125.418 L 35.9518 125.438 L 35.9518 125.438 L 36.0119 126.422 L 35.9673 127.283 L 35.962 127.414 L 35.8116 127.414 L 34.9472 127.445 L 34.3812 126.852 L 34.3119 126.779 L 34.2441 126.62 L 33.8888 125.841 L 33.7003 125.415 L 33.5031 124.915 L 33.1512 124.132 L 33.0541 123.95 L 32.9694 123.769 L 32.6373 123.039 L 32.2436 122.189 L 32.2057 122.085 L 32.1132 121.892 L 31.7038 121.291 L 31.2966 120.821 L 31.1129 120.571 L 30.9579 120.377 L 30.6198 119.769 L 30.3386 119.115 L 30.4191 118.832 L 30.5595 117.869 L 30.5621 117.858 L 30.5619 117.854 L 30.9666 116.823 L 31.0554 116.484 L 31.4648 115.869 L 31.6755 115.457 L 32.2639 114.984 L 32.4875 114.788 L 32.8106 114.773 L 33.4933 114.97" fill="none" stroke="#000000" stroke-width="0.05000" fill-rule="evenodd" fill-opacity="1.000"/>
    </g>
    <g class="thermal-contour" data-segment="1" data-name="CoreContour_Volume">
    <path d="M 42.7442 106.603 L 42.8505 106.668 L 43.6216 106.928 L 44.1629 107.426 L 44.3442 107.575 L 44.4523 107.693 L 44.9307 108.265 L 45.297 108.696 L 45.4883 108.926 L 45.8921 109.331 L 46.145 109.488 L 46.3227 109.582 L 47.0209 109.964 L 47.5849 110.334 L 47.8176 110.445 L 48.4998 110.779 L 48.6252 110.836 L 48.681 110.867 L 49.5521 111.247 L 50.2025 111.568 L 50.404 111.649 L 50.7982 111.84 L 51.2313 112.031 L 51.4024 112.123 L 52.0651 112.483 L 52.5546 112.839 L 52.747 113.194 L 53.0774 113.722 L 53.2781 114.087 L 53.1952 114.378 L 52.4556 114.687 L 52.3661 114.658 L 51.6376 114.427 L 51.3778 114.316 L 50.776 114.104 L 50.3287 113.95 L 49.9024 113.833 L 49.0569 113.638 L 49.0101 113.63 L 48.8653 113.603 L 47.9716 113.414 L 47.7652 113.346 L 46.8657 113.16 L 46.8559 113.155 L 46.79 113.137 L 45.9759 112.899 L 45.8191 112.863 L 45.3212 112.628 L 44.7785 112.346 L 44.4934 112.198 L 44.1632 111.995 L 43.738 111.698 L 43.2345 111.321 L 42.9764 111.124 L 42.7187 110.941 L 42.2495 110.546 L 41.7264 110.019 L 41.5017 109.801 L 41.3543 109.645 L 40.8493 108.893 L 40.6341 108.602 L 40.6032 107.715 L 40.6113 107.547 L 40.7362 107.409 L 41.3049 106.742 L 41.6858 106.67 L 42.5627 106.545 L 42.7442 106.603" fill="none" stroke="#000000" stroke-width="0.05000" fill-rule="evenodd" fill-opacity="1.000"/>
    </g>
    <g class="thermal-contour" data-segment="1" data-name="CoreContour_Volume">
    <path d="M 33.3733 115.144 L 33.4955 115.307 L 33.7123 115.649 L 34.0015 116.084 L 34.2085 116.536 L 34.3399 116.93 L 34.4414 117.277 L 34.6129 117.903 L 34.7128 118.225 L 34.838 118.849 L 34.9206 119.226 L 35.0585 119.985 L 35.0984 120.152 L 35.2958 121.155 L 35.3145 121.223 L 35.3787 121.623 L 35.4712 122.297 L 35.4692 122.393 L 35.4881 122.6 L 35.544 123.465 L 35.6167 123.912 L 35.6386 124.498 L 35.7504 125.42 L 35.7507 125.428 L 35.7522 125.451 L 35.8115 126.423 L 35.7704 127.215 L 35.0298 127.242 L 34.5258 126.714 L 34.4814 126.667 L 34.4271 126.539 L 34.0718 125.76 L 33.8833 125.334 L 33.6875 124.837 L 33.3308 124.044 L 33.2327 123.86 L 33.1506 123.684 L 32.8191 122.956 L 32.4291 122.114 L 32.3903 122.007 L 32.287 121.792 L 31.8626 121.168 L 31.5852 120.848 L 31.2589 120.405 L 31.0724 120.171 L 30.7996 119.681 L 30.5504 119.101 L 30.6151 118.874 L 30.7561 117.907 L 30.7564 117.906 L 31.157 116.885 L 31.2402 116.567 L 31.6376 115.97 L 31.834 115.586 L 32.3925 115.137 L 32.5665 114.985 L 32.7868 114.975 L 33.3733 115.144" fill="none" stroke="#000000" stroke-width="0.05000" fill-rule="evenodd" fill-opacity="1.000"/>
    <path d="M 32.6021 115.073 L 32.4504 115.206 L 31.9052 115.644 L 31.7154 116.016 L 31.3235 116.604 L 31.2427 116.913 L 30.8438 117.929 L 30.7033 118.893 L 30.6457 119.095 L 30.8803 119.641 L 31.1997 120.215 L 31.3431 120.394 L 31.5234 120.64 L 31.9341 121.113 L 32.3652 121.747 L 32.4733 121.972 L 32.5121 122.078 L 32.9009 122.918 L 33.2321 123.646 L 33.2322 123.646 L 33.3137 123.82 L 33.4117 124.005 L 33.7705 124.802 L 33.9661 125.299 L 34.1537 125.723 L 34.5095 126.503 L 34.5578 126.617 L 34.5908 126.651 L 35.067 127.15 L 35.6847 127.129 L 35.7213 126.422 L 35.6624 125.457 L 35.6608 125.433 L 35.6606 125.427 L 35.5488 124.505 L 35.527 123.921 L 35.4545 123.475 L 35.3985 122.608 L 35.3791 122.397 L 35.381 122.302 L 35.2898 121.637 L 35.2263 121.242 L 35.2081 121.176 L 35.0103 120.171 L 34.9704 120.004 L 34.832 119.242 L 34.7499 118.868 L 34.6255 118.247 L 34.5265 117.928 L 34.355 117.302 L 34.2535 116.956 L 34.1246 116.569 L 33.9227 116.128 L 33.6368 115.698 L 33.4209 115.357 L 33.3194 115.222 L 32.7759 115.065 L 32.6021 115.073" fill="none" stroke="#000000" stroke-width="0.05000" fill-rule="evenodd" fill-opacity="1.000"/>
    <path d="M 42.6604 106.786 L 42.7656 106.85 L 43.5172 107.104 L 44.0315 107.577 L 44.2064 107.721 L 44.3013 107.824 L 44.7779 108.394 L 45.1408 108.821 L 45.3403 109.061 L 45.7669 109.489 L 46.0452 109.662 L 46.2279 109.759 L 46.2279 109.759 L 46.9182 110.136 L 47.4867 110.509 L 47.7249 110.622 L 48.4142 110.96 L 48.5353 111.015 L 48.5925 111.047 L 49.4677 111.428 L 50.1209 111.751 L 50.3232 111.832 L 50.7142 112.021 L 51.1417 112.21 L 51.3829 112.34 L 51.9583 112.652 L 52.4004 112.974 L 52.5742 113.295 L 52.9046 113.823 L 53.0631 114.111 L 53.0563 114.135 L 52.3833 114.453 L 51.7075 114.239 L 51.4502 114.13 L 50.8418 113.915 L 50.3877 113.759 L 49.9514 113.639 L 49.1356 113.451 L 49.1358 113.449 L 49.1014 113.443 L 49.0971 113.442 L 49.0551 113.435 L 48.9017 113.406 L 48.0236 113.22 L 47.8168 113.152 L 46.9279 112.968 L 46.9234 112.966 L 46.844 112.945 L 46.0265 112.705 L 45.885 112.673 L 45.4094 112.449 L 44.8707 112.168 L 44.5908 112.023 L 44.2724 111.828 L 43.8544 111.535 L 43.3543 111.161 L 43.095 110.963 L 42.8415 110.783 L 42.3855 110.399 L 41.867 109.877 L 41.6427 109.66 L 41.5108 109.52 L 41.0129 108.778 L 40.8317 108.533 L 40.8032 107.718 L 40.8075 107.628 L 40.8864 107.541 L 41.4111 106.926 L 41.7204 106.867 L 42.5457 106.75 L 42.6604 106.786" fill="none" stroke="#000000" stroke-width="0.05000" fill-rule="evenodd" fill-opacity="1.000"/>
    <path d="M 41.7347 106.956 L 41.459 107.008 L 40.954 107.6 L 40.8958 107.664 L 40.8932 107.719 L 40.9206 108.502 L 41.0865 108.726 L 41.5809 109.463 L 41.7082 109.598 L 41.9303 109.813 L 42.4461 110.332 L 42.8971 110.712 L 43.1484 110.89 L 43.4082 111.089 L 43.906 111.462 L 44.3212 111.752 L 44.6352 111.945 L 44.9122 112.088 L 45.4491 112.368 L 45.9146 112.587 L 46.0493 112.618 L 46.8693 112.858 L 46.9536 112.881 L 46.9558 112.882 L 47.84 113.065 L 48.0473 113.133 L 48.9189 113.318 L 49.0708 113.346 L 49.0709 113.346 L 49.1152 113.354 L 49.121 113.355 L 49.2357 113.376 L 49.235 113.381 L 49.9734 113.552 L 50.4143 113.673 L 50.8714 113.83 L 51.4828 114.046 L 51.7389 114.154 L 52.4433 114.378 L 52.9543 114.164 L 52.9664 114.122 L 52.8272 113.869 L 52.4964 113.34 L 52.3311 113.035 L 51.9097 112.728 L 51.3401 112.419 L 51.3401 112.419 L 51.1022 112.291 L 50.6764 112.103 L 50.2865 111.914 L 50.0842 111.833 L 49.4295 111.51 L 48.5526 111.127 L 48.4944 111.095 L 48.3757 111.041 L 47.6853 110.703 L 47.6853 110.703 L 47.4425 110.588 L 46.8725 110.214 L 46.1755 109.833 L 46.0003 109.74 L 45.7105 109.56 L 45.2737 109.122 L 45.0715 108.878 L 45.0715 108.878 L 44.7091 108.452 L 44.2338 107.884 L 44.1442 107.786 L 43.9724 107.645 L 43.4704 107.183 L 42.7274 106.932 L 42.6229 106.869 L 42.538 106.842 L 41.7347 106.956" fill="none" stroke="#000000" stroke-width="0.05000" fill-rule="evenodd" fill-opacity="1.000"/>
    </g>
    <g class="thermal-contour" data-segment="2" data-name="CoreContour_Overhang">
    <path d="M 31.2589 120.405 L 31.5852 120.848 L 31.4529 120.696 L 31.2717 120.449 L 31.1247 120.265 L 31.0724 120.171 L 31.2589 120.405" fill="none" stroke="#8B0000" stroke-width="0.05000" fill-rule="evenodd" fill-opacity="1.000"/>
    <path d="M 53.029 114.23 L 52.4473 114.474 L 52.4277 114.468 L 52.3833 114.453 L 53.0563 114.135 L 53.029 114.23" fill="none" stroke="#8B0000" stroke-width="0.05000" fill-rule="evenodd" fill-opacity="1.000"/>
    </g>
    <g class="thermal-contour" data-segment="3" data-name="HollowShell1Contour_Volume">
    <path d="M 33.4933 114.97 L 33.6601 115.193 L 33.8801 115.54 L 34.1771 115.987 L 34.3951 116.463 L 34.5311 116.871 L 34.6339 117.222 L 34.8049 117.847 L 34.9069 118.175 L 35.0338 118.808 L 35.1168 119.187 L 35.2543 119.944 L 35.2941 120.11 L 35.4906 121.109 L 35.5101 121.179 L 35.5771 121.597 L 35.6716 122.285 L 35.6694 122.386 L 35.6873 122.581 L 35.743 123.443 L 35.8142 123.881 L 35.8368 124.481 L 35.9117 125.099 L 35.9256 125.448 L 35.9563 125.939 L 35.9831 126.379 L 35.954 126.939 L 35.9204 127.311 L 35.743 127.37 L 34.9375 127.399 L 34.5355 126.978 L 34.2878 126.719 L 34.0456 126.149 L 33.8878 125.803 L 33.8042 125.614 L 33.5076 124.862 L 33.1591 124.087 L 33.084 123.907 L 33.0183 123.732 L 32.674 122.976 L 32.3915 122.365 L 32.2548 121.992 L 32.1423 121.757 L 32.2001 121.842 L 32.298 122.046 L 32.3361 122.151 L 32.7282 122.997 L 33.06 123.726 L 33.1432 123.904 L 33.241 124.088 L 33.5953 124.876 L 33.7918 125.375 L 33.9803 125.801 L 34.3356 126.58 L 34.3967 126.723 L 34.4535 126.783 L 34.9885 127.343 L 35.8097 127.314 L 35.8659 127.314 L 35.8674 127.278 L 35.9117 126.423 L 35.852 125.445 L 35.8506 125.423 L 35.8502 125.412 L 35.7384 124.49 L 35.7164 123.902 L 35.6435 123.454 L 35.5877 122.591 L 35.5693 122.39 L 35.5714 122.291 L 35.478 121.611 L 35.478 121.611 L 35.4123 121.201 L 35.3932 121.132 L 35.1963 120.131 L 35.1564 119.965 L 35.0187 119.206 L 34.9359 118.828 L 34.81 118.2 L 34.7089 117.875 L 34.5374 117.249 L 34.5374 117.249 L 34.4355 116.901 L 34.3018 116.499 L 34.0893 116.035 L 33.7962 115.594 L 33.5778 115.25 L 33.4333 115.057 L 32.7987 114.874 L 32.527 114.886 L 32.3282 115.061 L 31.7547 115.521 L 31.5512 115.92 L 31.1478 116.526 L 31.0618 116.854 L 30.661 117.875 L 30.6578 117.888 L 30.5171 118.853 L 30.463 119.043 L 30.4005 118.897 L 30.4191 118.832 L 30.5068 118.23 L 30.5912 117.888 L 30.5864 117.791 L 30.9666 116.823 L 31.0554 116.484 L 31.4648 115.869 L 31.6755 115.457 L 32.2639 114.984 L 32.4875 114.788 L 32.8106 114.773 L 33.4933 114.97" fill="none" stroke="#0000CC" stroke-width="0.05000" fill-rule="evenodd" fill-opacity="1.000"/>
    <path d="M 42.7442 106.603 L 42.8505 106.668 L 43.6216 106.928 L 44.1629 107.426 L 44.1938 107.451 L 44.2971 107.574 L 44.4147 107.713 L 44.8875 108.277 L 45.423 108.908 L 45.4412 108.93 L 45.4798 108.968 L 45.6123 109.051 L 45.8921 109.331 L 46.145 109.488 L 46.3227 109.582 L 47.0209 109.964 L 47.5849 110.335 L 47.8176 110.445 L 48.4998 110.779 L 48.6252 110.836 L 48.681 110.867 L 49.5521 111.247 L 50.2025 111.568 L 50.404 111.649 L 50.7982 111.84 L 51.2313 112.031 L 51.4024 112.123 L 52.0651 112.483 L 52.5546 112.839 L 52.747 113.194 L 53.0774 113.722 L 53.2484 114.033 L 53.2253 114.055 L 53.1625 114.084 L 52.9912 113.773 L 52.6606 113.245 L 52.4775 112.907 L 52.0117 112.567 L 51.3548 112.211 L 51.3548 112.211 L 51.1865 112.12 L 50.7562 111.931 L 50.3636 111.741 L 50.1617 111.659 L 49.5099 111.338 L 48.6368 110.957 L 48.5808 110.926 L 48.457 110.869 L 47.7736 110.535 L 47.7736 110.535 L 47.5358 110.422 L 46.9693 110.05 L 46.2759 109.671 L 46.0951 109.575 L 45.8295 109.41 L 45.4143 108.994 L 45.22 108.76 L 45.22 108.759 L 44.8543 108.329 L 44.3768 107.759 L 44.2753 107.648 L 44.0972 107.502 L 43.5694 107.016 L 42.808 106.759 L 42.7023 106.695 L 42.5542 106.648 L 41.7031 106.769 L 41.358 106.834 L 40.8113 107.475 L 40.7094 107.587 L 40.7032 107.716 L 40.7329 108.567 L 40.9311 108.835 L 41.4325 109.582 L 41.5722 109.731 L 41.7967 109.948 L 42.3172 110.473 L 42.7801 110.862 L 43.0357 111.043 L 43.2944 111.241 L 43.7962 111.617 L 44.2178 111.912 L 44.5421 112.111 L 44.8246 112.257 L 45.3653 112.539 L 45.8519 112.768 L 46.0012 112.802 L 46.8181 113.041 L 46.818 113.041 L 46.8896 113.061 L 46.8967 113.064 L 47.791 113.249 L 47.9785 113.311 L 47.8702 113.291 L 47.8513 113.287 L 47.847 113.285 L 47.827 113.281 L 46.8869 113.078 L 46.6849 113.044 L 46.0024 112.844 L 45.5669 112.744 L 45.3212 112.628 L 44.7785 112.345 L 44.4934 112.198 L 44.1632 111.995 L 43.738 111.698 L 43.2345 111.321 L 42.9764 111.124 L 42.7187 110.941 L 42.2495 110.546 L 41.7264 110.019 L 41.5017 109.801 L 41.3543 109.645 L 40.8493 108.893 L 40.6341 108.602 L 40.6032 107.715 L 40.6113 107.547 L 40.7362 107.409 L 41.3049 106.742 L 41.6858 106.67 L 42.5627 106.546 L 42.7442 106.603" fill="none" stroke="#0000CC" stroke-width="0.05000" fill-rule="evenodd" fill-opacity="1.000"/>
    </g>
    <g class="thermal-contour" data-segment="4" data-name="HollowShell1Contour_Overhang">
    <path d="M 30.463 119.043 L 30.4445 119.108 L 30.7097 119.725 L 31.0413 120.321 L 31.1923 120.51 L 31.3751 120.758 L 31.7832 121.229 L 32.1423 121.757 L 32.2548 121.992 L 32.3915 122.365 L 32.674 122.976 L 33.0183 123.732 L 33.084 123.907 L 33.1591 124.087 L 33.5076 124.862 L 33.8042 125.614 L 33.8878 125.803 L 34.0456 126.149 L 34.2878 126.719 L 34.5355 126.978 L 34.9375 127.399 L 35.743 127.37 L 35.9204 127.311 L 35.954 126.939 L 35.9831 126.379 L 35.9563 125.939 L 35.9256 125.448 L 35.9117 125.099 L 35.8368 124.481 L 35.8142 123.881 L 35.8161 123.892 L 35.8382 124.482 L 35.95 125.404 L 35.9505 125.418 L 35.9518 125.438 L 36.0119 126.423 L 35.9673 127.283 L 35.962 127.414 L 35.8116 127.414 L 34.9472 127.445 L 34.3812 126.852 L 34.3119 126.779 L 34.2441 126.62 L 33.8888 125.841 L 33.7003 125.415 L 33.5031 124.915 L 33.1512 124.132 L 33.0541 123.95 L 32.9694 123.769 L 32.6373 123.039 L 32.2436 122.189 L 32.2057 122.085 L 32.1132 121.892 L 31.7038 121.291 L 31.2966 120.821 L 31.1129 120.571 L 30.9579 120.377 L 30.6198 119.769 L 30.3386 119.115 L 30.4005 118.897 L 30.463 119.043" fill="none" stroke="#000080" stroke-width="0.05000" fill-rule="evenodd" fill-opacity="1.000"/>
    <path d="M 30.5912 117.888 L 30.5067 118.231 L 30.5149 118.175 L 30.5595 117.869 L 30.5621 117.858 L 30.5619 117.854 L 30.5864 117.791 L 30.5912 117.888" fill="none" stroke="#000080" stroke-width="0.05000" fill-rule="evenodd" fill-opacity="1.000"/>
    <path d="M 46.0024 112.844 L 46.6849 113.044 L 46.8869 113.078 L 47.827 113.281 L 47.847 113.285 L 47.8513 113.287 L 47.8702 113.291 L 47.9785 113.311 L 47.9976 113.317 L 48.8837 113.505 L 49.028 113.531 L 49.0279 113.531 L 49.077 113.54 L 49.9269 113.736 L 50.3582 113.854 L 50.8089 114.01 L 51.414 114.223 L 51.6727 114.333 L 52.3969 114.563 L 52.4514 114.581 L 53.1121 114.304 L 53.1706 114.099 L 53.1625 114.084 L 53.2253 114.055 L 53.2484 114.033 L 53.2781 114.087 L 53.1952 114.378 L 52.4556 114.687 L 52.3661 114.658 L 51.6376 114.427 L 51.3778 114.316 L 50.776 114.104 L 50.3287 113.95 L 49.9024 113.833 L 49.0569 113.638 L 49.0101 113.63 L 48.8653 113.603 L 47.9716 113.413 L 47.7652 113.346 L 46.8657 113.16 L 46.8559 113.155 L 46.79 113.137 L 45.9759 112.899 L 45.8191 112.863 L 45.6901 112.802 L 45.5669 112.744 L 46.0024 112.844" fill="none" stroke="#000080" stroke-width="0.05000" fill-rule="evenodd" fill-opacity="1.000"/>
    <path d="M 44.2546 107.502 L 44.3442 107.575 L 44.4523 107.693 L 44.9307 108.265 L 45.297 108.696 L 45.4883 108.926 L 45.6123 109.051 L 45.4798 108.968 L 45.4412 108.93 L 45.423 108.908 L 44.8875 108.277 L 44.4147 107.713 L 44.2971 107.574 L 44.1938 107.451 L 44.2546 107.502" fill="none" stroke="#000080" stroke-width="0.05000" fill-rule="evenodd" fill-opacity="1.000"/>
    </g>
    <g class="thermal-contour" data-segment="5" data-name="HollowShell2Contour_Volume">
    <path d="M 33.4333 115.057 L 33.5778 115.25 L 33.7962 115.594 L 34.0893 116.035 L 34.3018 116.499 L 34.4355 116.901 L 34.5374 117.249 L 34.5374 117.249 L 34.7089 117.875 L 34.81 118.2 L 34.9359 118.828 L 35.0187 119.206 L 35.1564 119.965 L 35.1963 120.131 L 35.3932 121.132 L 35.4123 121.201 L 35.478 121.611 L 35.478 121.611 L 35.5714 122.291 L 35.5693 122.39 L 35.5877 122.591 L 35.6435 123.454 L 35.7164 123.902 L 35.7384 124.49 L 35.8502 125.412 L 35.8506 125.423 L 35.852 125.445 L 35.9117 126.423 L 35.8674 127.278 L 35.8659 127.314 L 35.8097 127.314 L 34.9885 127.343 L 34.4535 126.783 L 34.3967 126.723 L 34.3356 126.58 L 33.9803 125.801 L 33.7918 125.375 L 33.5953 124.876 L 33.241 124.088 L 33.1432 123.904 L 33.06 123.726 L 32.7282 122.997 L 32.3361 122.151 L 32.298 122.046 L 32.2001 121.842 L 32.1423 121.757 L 31.9216 121.297 L 31.8352 121.17 L 31.7493 121.071 L 31.5852 120.848 L 31.8626 121.168 L 32.287 121.792 L 32.3903 122.007 L 32.4291 122.114 L 32.8191 122.956 L 33.1506 123.684 L 33.2327 123.86 L 33.3308 124.044 L 33.6875 124.837 L 33.8833 125.334 L 34.0718 125.76 L 34.4271 126.539 L 34.4814 126.667 L 34.5258 126.714 L 35.0298 127.242 L 35.7704 127.215 L 35.8115 126.423 L 35.7522 125.451 L 35.7507 125.428 L 35.7504 125.42 L 35.6386 124.498 L 35.6167 123.912 L 35.544 123.465 L 35.4881 122.6 L 35.4692 122.393 L 35.4712 122.297 L 35.3787 121.623 L 35.3145 121.223 L 35.2958 121.155 L 35.0984 120.152 L 35.0585 119.985 L 34.9206 119.226 L 34.838 118.849 L 34.7128 118.225 L 34.6129 117.903 L 34.4414 117.277 L 34.3399 116.93 L 34.2085 116.536 L 34.0015 116.084 L 33.7123 115.649 L 33.4955 115.307 L 33.3733 115.144 L 32.7868 114.975 L 32.5665 114.985 L 32.3925 115.137 L 31.834 115.586 L 31.6376 115.97 L 31.2402 116.567 L 31.157 116.885 L 30.7564 117.906 L 30.7561 117.907 L 30.6151 118.874 L 30.5504 119.101 L 30.7996 119.681 L 31.0724 120.171 L 30.8454 119.887 L 30.7614 119.736 L 30.463 119.043 L 30.5171 118.853 L 30.6578 117.888 L 30.661 117.875 L 31.0618 116.854 L 31.1478 116.526 L 31.5512 115.92 L 31.7547 115.521 L 32.3282 115.061 L 32.527 114.886 L 32.7987 114.874 L 33.4333 115.057" fill="none" stroke="#B8860B" stroke-width="0.05000" fill-rule="evenodd" fill-opacity="1.000"/>
    <path d="M 42.7023 106.695 L 42.808 106.759 L 43.5694 107.016 L 44.0972 107.502 L 44.2753 107.648 L 44.3768 107.759 L 44.8543 108.329 L 45.22 108.759 L 45.22 108.76 L 45.4143 108.994 L 45.8295 109.41 L 46.0951 109.575 L 46.2759 109.671 L 46.9693 110.05 L 47.5358 110.422 L 47.7736 110.535 L 47.7736 110.535 L 48.457 110.869 L 48.5808 110.926 L 48.6368 110.957 L 49.5099 111.338 L 50.1617 111.659 L 50.3636 111.741 L 50.7562 111.931 L 51.1865 112.12 L 51.3548 112.211 L 51.3548 112.211 L 52.0117 112.567 L 52.4775 112.907 L 52.6606 113.245 L 52.9912 113.773 L 53.1625 114.084 L 53.0563 114.135 L 53.0631 114.111 L 52.9046 113.823 L 52.5742 113.295 L 52.4004 112.974 L 51.9583 112.652 L 51.3829 112.34 L 51.1417 112.21 L 50.7142 112.021 L 50.3232 111.832 L 50.1209 111.751 L 49.4677 111.428 L 48.5925 111.047 L 48.5353 111.015 L 48.4142 110.96 L 47.7249 110.622 L 47.4867 110.509 L 46.9182 110.136 L 46.2279 109.759 L 46.2279 109.759 L 46.0452 109.662 L 45.7669 109.489 L 45.3403 109.061 L 45.1408 108.821 L 44.7779 108.394 L 44.3013 107.824 L 44.2064 107.721 L 44.0315 107.577 L 43.5172 107.104 L 42.7656 106.85 L 42.6604 106.786 L 42.5457 106.75 L 41.7204 106.867 L 41.4111 106.926 L 40.8864 107.541 L 40.8075 107.628 L 40.8032 107.718 L 40.8317 108.533 L 41.0129 108.778 L 41.5108 109.52 L 41.6427 109.66 L 41.867 109.877 L 42.3855 110.399 L 42.8415 110.783 L 43.095 110.963 L 43.3543 111.161 L 43.8544 111.535 L 44.2724 111.828 L 44.5908 112.023 L 44.8707 112.168 L 45.4094 112.449 L 45.885 112.673 L 46.0265 112.705 L 46.844 112.945 L 46.9234 112.966 L 46.9279 112.968 L 47.8168 113.152 L 48.0236 113.22 L 48.9017 113.406 L 49.0551 113.435 L 49.0971 113.442 L 49.1014 113.443 L 49.1358 113.449 L 49.1356 113.451 L 49.9514 113.639 L 50.3877 113.759 L 50.8418 113.915 L 51.4502 114.13 L 51.7075 114.239 L 52.3833 114.453 L 52.3788 114.456 L 51.5833 114.229 L 51.579 114.228 L 51.5612 114.222 L 50.7449 113.934 L 50.5551 113.869 L 49.8681 113.68 L 49.3152 113.553 L 48.9613 113.49 L 47.9785 113.311 L 47.791 113.249 L 46.8967 113.064 L 46.8896 113.061 L 46.818 113.041 L 46.8181 113.041 L 46.0012 112.802 L 45.8519 112.768 L 45.3653 112.539 L 44.8246 112.257 L 44.5421 112.111 L 44.2178 111.912 L 43.7962 111.617 L 43.2944 111.241 L 43.0357 111.043 L 42.7801 110.862 L 42.3172 110.473 L 41.7967 109.948 L 41.5722 109.731 L 41.4325 109.582 L 40.9311 108.835 L 40.7329 108.567 L 40.7032 107.716 L 40.7094 107.587 L 40.8113 107.475 L 41.358 106.834 L 41.7031 106.769 L 42.5542 106.648 L 42.7023 106.695" fill="none" stroke="#B8860B" stroke-width="0.05000" fill-rule="evenodd" fill-opacity="1.000"/>
    </g>
    <g class="thermal-contour" data-segment="6" data-name="HollowShell2Contour_Overhang">
    <path d="M 30.7614 119.736 L 30.8454 119.887 L 31.0724 120.171 L 31.1247 120.265 L 31.2717 120.449 L 31.4529 120.696 L 31.5852 120.848 L 31.7493 121.071 L 31.8352 121.17 L 31.9216 121.297 L 32.1423 121.757 L 31.7832 121.229 L 31.3751 120.758 L 31.1923 120.51 L 31.0413 120.321 L 30.7097 119.725 L 30.4445 119.108 L 30.463 119.043 L 30.7614 119.736" fill="none" stroke="#006400" stroke-width="0.05000" fill-rule="evenodd" fill-opacity="1.000"/>
    <path d="M 48.9613 113.49 L 49.3152 113.553 L 49.8681 113.68 L 50.5551 113.869 L 50.7449 113.934 L 51.5612 114.222 L 51.579 114.228 L 51.5833 114.229 L 52.3788 114.456 L 52.3833 114.453 L 52.4277 114.468 L 52.4473 114.474 L 53.029 114.23 L 53.0563 114.135 L 53.1625 114.084 L 53.1706 114.099 L 53.1121 114.304 L 52.4514 114.581 L 52.3969 114.563 L 51.6727 114.333 L 51.414 114.223 L 50.8089 114.01 L 50.3582 113.854 L 49.9269 113.736 L 49.077 113.54 L 49.0279 113.531 L 49.028 113.531 L 48.8837 113.505 L 47.9976 113.317 L 47.9785 113.311 L 48.9613 113.49" fill="none" stroke="#006400" stroke-width="0.05000" fill-rule="evenodd" fill-opacity="1.000"/>
    </g>
    <g class="thermal-contour" data-segment="9" data-name="CoreContourHatch">
    <path d="M 33.3356 115.199 L 33.4431 115.342 L 33.6593 115.683 L 33.9464 116.115 L 34.1498 116.559 L 34.2793 116.948 L 34.381 117.295 L 34.5523 117.92 L 34.6517 118.24 L 34.7763 118.862 L 34.8585 119.237 L 34.9967 119.998 L 35.0367 120.165 L 35.2344 121.17 L 35.2527 121.236 L 35.3165 121.633 L 35.408 122.3 L 35.4061 122.396 L 35.4254 122.606 L 35.4813 123.472 L 35.5539 123.918 L 35.5757 124.503 L 35.6875 125.425 L 35.6878 125.432 L 35.6893 125.455 L 35.7483 126.422 L 35.7104 127.155 L 35.0558 127.178 L 34.5713 126.67 L 34.5713 126.67 L 34.5349 126.632 L 34.4849 126.514 L 34.1291 125.734 L 33.9412 125.309 L 33.7459 124.813 L 33.3873 124.017 L 33.2895 123.832 L 33.215 123.673 L 33.2147 123.673 L 32.8763 122.929 L 32.8763 122.929 L 32.4871 122.089 L 32.448 121.982 L 32.3418 121.761 L 31.9127 121.13 L 31.5023 120.656 L 31.322 120.411 L 31.322 120.411 L 31.1772 120.23 L 30.856 119.653 L 30.6171 119.097 L 30.6769 118.887 L 30.8175 117.922 L 31.217 116.904 L 31.2985 116.593 L 31.6923 116.002 L 31.8838 115.627 L 32.4335 115.185 L 32.5914 115.047 L 32.7791 115.038 L 33.3356 115.199" fill="none" stroke="#800080" stroke-width="0.05000" fill-rule="evenodd" fill-opacity="1.000"/>
    <path d="M 32.6021 115.073 L 32.4504 115.206 L 31.9052 115.644 L 31.7154 116.016 L 31.3235 116.604 L 31.2427 116.913 L 30.8438 117.929 L 30.7033 118.893 L 30.6457 119.095 L 30.8803 119.641 L 31.1997 120.215 L 31.3431 120.394 L 31.5234 120.64 L 31.9341 121.113 L 32.3652 121.747 L 32.4733 121.972 L 32.5121 122.078 L 32.9009 122.918 L 33.2321 123.646 L 33.2322 123.646 L 33.3137 123.82 L 33.4117 124.005 L 33.7705 124.802 L 33.9661 125.299 L 34.1537 125.723 L 34.5095 126.503 L 34.5578 126.617 L 34.5908 126.651 L 35.067 127.15 L 35.6847 127.129 L 35.7213 126.422 L 35.6624 125.457 L 35.6608 125.433 L 35.6606 125.427 L 35.5488 124.505 L 35.527 123.921 L 35.4545 123.475 L 35.3985 122.608 L 35.3791 122.397 L 35.381 122.302 L 35.2898 121.637 L 35.2263 121.242 L 35.2081 121.176 L 35.0103 120.171 L 34.9704 120.004 L 34.832 119.242 L 34.7499 118.868 L 34.6255 118.247 L 34.5265 117.928 L 34.355 117.302 L 34.2535 116.956 L 34.1246 116.569 L 33.9227 116.128 L 33.6368 115.698 L 33.4209 115.357 L 33.3194 115.222 L 32.7759 115.065 L 32.6021 115.073" fill="none" stroke="#800080" stroke-width="0.05000" fill-rule="evenodd" fill-opacity="1.000"/>
    <path d="M 42.6341 106.844 L 42.7388 106.907 L 43.4845 107.159 L 43.9907 107.625 L 44.1628 107.767 L 44.2541 107.866 L 44.7296 108.434 L 44.7297 108.434 L 45.0985 108.868 L 45.0985 108.868 L 45.2935 109.103 L 45.7274 109.538 L 46.0135 109.716 L 46.1883 109.809 L 46.8864 110.19 L 47.456 110.564 L 47.7123 110.686 L 47.7123 110.686 L 48.3876 111.017 L 48.5066 111.071 L 48.564 111.103 L 49.4409 111.485 L 50.0947 111.808 L 50.2974 111.89 L 50.6881 112.079 L 51.1141 112.266 L 51.3131 112.374 L 51.3131 112.374 L 51.9241 112.705 L 52.3519 113.017 L 52.5193 113.326 L 52.8505 113.856 L 52.9954 114.119 L 52.9805 114.171 L 52.7668 114.272 L 52.4446 114.407 L 51.7295 114.18 L 51.4732 114.071 L 50.8624 113.856 L 50.8624 113.856 L 50.4059 113.699 L 49.9673 113.578 L 49.9673 113.578 L 49.205 113.402 L 49.2055 113.398 L 49.1156 113.382 L 49.1105 113.38 L 49.1105 113.38 L 49.0684 113.373 L 49.0683 113.373 L 48.9137 113.344 L 48.0403 113.159 L 47.8324 113.091 L 46.9474 112.908 L 46.9445 112.907 L 46.862 112.884 L 46.0425 112.645 L 45.9057 112.613 L 45.4371 112.392 L 44.8998 112.112 L 44.8998 112.112 L 44.6219 111.968 L 44.3064 111.775 L 43.8902 111.483 L 43.3919 111.11 L 43.132 110.912 L 43.132 110.912 L 42.8806 110.733 L 42.4278 110.352 L 41.9115 109.832 L 41.689 109.617 L 41.5597 109.48 L 41.0648 108.742 L 40.8939 108.511 L 40.8662 107.719 L 40.8693 107.653 L 40.934 107.582 L 41.4446 106.983 L 41.7303 106.929 L 42.5403 106.814 L 42.6341 106.844" fill="none" stroke="#800080" stroke-width="0.05000" fill-rule="evenodd" fill-opacity="1.000"/>
    <path d="M 41.7347 106.956 L 41.459 107.008 L 40.954 107.6 L 40.8958 107.664 L 40.8932 107.719 L 40.9206 108.502 L 41.0865 108.726 L 41.5809 109.463 L 41.7082 109.598 L 41.9303 109.813 L 42.4461 110.332 L 42.8971 110.712 L 43.1484 110.89 L 43.4082 111.089 L 43.906 111.462 L 44.3212 111.752 L 44.6352 111.945 L 44.9122 112.088 L 45.4491 112.368 L 45.9146 112.587 L 46.0493 112.618 L 46.8693 112.858 L 46.9536 112.881 L 46.9558 112.882 L 47.84 113.065 L 48.0473 113.133 L 48.9189 113.318 L 49.0708 113.346 L 49.0709 113.346 L 49.1152 113.354 L 49.121 113.355 L 49.2357 113.376 L 49.235 113.381 L 49.9734 113.552 L 50.4143 113.673 L 50.8714 113.83 L 51.4828 114.046 L 51.7389 114.154 L 52.4433 114.378 L 52.9543 114.164 L 52.9664 114.122 L 52.8272 113.869 L 52.4964 113.34 L 52.3311 113.035 L 51.9097 112.728 L 51.3401 112.419 L 51.3401 112.419 L 51.1022 112.291 L 50.6764 112.103 L 50.2865 111.914 L 50.0842 111.833 L 49.4295 111.51 L 48.5526 111.127 L 48.4944 111.095 L 48.3757 111.041 L 47.6853 110.703 L 47.6853 110.703 L 47.4425 110.588 L 46.8725 110.214 L 46.1755 109.833 L 46.0003 109.74 L 45.7105 109.56 L 45.2737 109.122 L 45.0715 108.878 L 45.0715 108.878 L 44.7091 108.452 L 44.2338 107.884 L 44.1442 107.786 L 43.9724 107.645 L 43.4704 107.183 L 42.7274 106.932 L 42.6229 106.869 L 42.538 106.842 L 41.7347 106.956" fill="none" stroke="#800080" stroke-width="0.05000" fill-rule="evenodd" fill-opacity="1.000"/>
    </g>
    <g class="thermal-contour" data-segment="20" data-name="CoreContourHatchOverhang">
    <path d="M 52.9767 114.184 L 52.7668 114.272 L 52.9805 114.171 L 52.9767 114.184" fill="none" stroke="#E64A19" stroke-width="0.05000" fill-rule="evenodd" fill-opacity="1.000"/>
    </g>
    <!-- ===== Thermal Segment Colour Legend ===== -->
    <g id="thermal-legend">
    <rect x="161.0000" y="5.0000" width="40.0000" height="72.0000"
          rx="1" ry="1"
          fill="#fafafa" stroke="#cccccc" stroke-width="0.15"/>
    <text x="181.0000" y="7.6000" font-family="sans-serif" font-size="2.2000" font-weight="bold" fill="#222222" text-anchor="middle">Thermal Segments</text>
    <line x1="161.5000" y1="8.7000" x2="200.5000" y2="8.7000" stroke="#bbbbbb" stroke-width="0.1"/>
    <rect x="161.8000" y="9.0000" width="3.5000" height="2.0000" fill="#000000" stroke="#333333" stroke-width="0.08" rx="0.3" ry="0.3"/>
    <text x="168.6000" y="10.9000" font-family="monospace" font-size="1.6000" fill="#444444" text-anchor="end"> 1</text>
    <text x="169.6000" y="10.9000" font-family="sans-serif" font-size="1.6000" fill="#111111">CoreContour_Volume</text>
    <rect x="161.8000" y="12.0000" width="3.5000" height="2.0000" fill="#8B0000" stroke="#333333" stroke-width="0.08" rx="0.3" ry="0.3"/>
    <text x="168.6000" y="13.9000" font-family="monospace" font-size="1.6000" fill="#444444" text-anchor="end"> 2</text>
    <text x="169.6000" y="13.9000" font-family="sans-serif" font-size="1.6000" fill="#111111">CoreContour_Overhang</text>
    <rect x="161.8000" y="15.0000" width="3.5000" height="2.0000" fill="#0000CC" stroke="#333333" stroke-width="0.08" rx="0.3" ry="0.3"/>
    <text x="168.6000" y="16.9000" font-family="monospace" font-size="1.6000" fill="#444444" text-anchor="end"> 3</text>
    <text x="169.6000" y="16.9000" font-family="sans-serif" font-size="1.6000" fill="#111111">Shell1Contour_Volume</text>
    <rect x="161.8000" y="18.0000" width="3.5000" height="2.0000" fill="#000080" stroke="#333333" stroke-width="0.08" rx="0.3" ry="0.3"/>
    <text x="168.6000" y="19.9000" font-family="monospace" font-size="1.6000" fill="#444444" text-anchor="end"> 4</text>
    <text x="169.6000" y="19.9000" font-family="sans-serif" font-size="1.6000" fill="#111111">Shell1Contour_Overhang</text>
    <rect x="161.8000" y="21.0000" width="3.5000" height="2.0000" fill="#B8860B" stroke="#333333" stroke-width="0.08" rx="0.3" ry="0.3"/>
    <text x="168.6000" y="22.9000" font-family="monospace" font-size="1.6000" fill="#444444" text-anchor="end"> 5</text>
    <text x="169.6000" y="22.9000" font-family="sans-serif" font-size="1.6000" fill="#111111">Shell2Contour_Volume</text>
    <rect x="161.8000" y="24.0000" width="3.5000" height="2.0000" fill="#006400" stroke="#333333" stroke-width="0.08" rx="0.3" ry="0.3"/>
    <text x="168.6000" y="25.9000" font-family="monospace" font-size="1.6000" fill="#444444" text-anchor="end"> 6</text>
    <text x="169.6000" y="25.9000" font-family="sans-serif" font-size="1.6000" fill="#111111">Shell2Contour_Overhang</text>
    <rect x="161.8000" y="27.0000" width="3.5000" height="2.0000" fill="#FF8C00" stroke="#333333" stroke-width="0.08" rx="0.3" ry="0.3"/>
    <text x="168.6000" y="28.9000" font-family="monospace" font-size="1.6000" fill="#444444" text-anchor="end"> 7</text>
    <text x="169.6000" y="28.9000" font-family="sans-serif" font-size="1.6000" fill="#111111">CoreOverhangHatch</text>
    <rect x="161.8000" y="30.0000" width="3.5000" height="2.0000" fill="#228B22" stroke="#333333" stroke-width="0.08" rx="0.3" ry="0.3"/>
    <text x="168.6000" y="31.9000" font-family="monospace" font-size="1.6000" fill="#444444" text-anchor="end"> 8</text>
    <text x="169.6000" y="31.9000" font-family="sans-serif" font-size="1.6000" fill="#111111">CoreNormalHatch</text>
    <rect x="161.8000" y="33.0000" width="3.5000" height="2.0000" fill="#800080" stroke="#333333" stroke-width="0.08" rx="0.3" ry="0.3"/>
    <text x="168.6000" y="34.9000" font-family="monospace" font-size="1.6000" fill="#444444" text-anchor="end"> 9</text>
    <text x="169.6000" y="34.9000" font-family="sans-serif" font-size="1.6000" fill="#111111">CoreContourHatch</text>
    <rect x="161.8000" y="36.0000" width="3.5000" height="2.0000" fill="#FF69B4" stroke="#333333" stroke-width="0.08" rx="0.3" ry="0.3"/>
    <text x="168.6000" y="37.9000" font-family="monospace" font-size="1.6000" fill="#444444" text-anchor="end">10</text>
    <text x="169.6000" y="37.9000" font-family="sans-serif" font-size="1.6000" fill="#111111">Shell1OverhangHatch</text>
    <rect x="161.8000" y="39.0000" width="3.5000" height="2.0000" fill="#00CED1" stroke="#333333" stroke-width="0.08" rx="0.3" ry="0.3"/>
    <text x="168.6000" y="40.9000" font-family="monospace" font-size="1.6000" fill="#444444" text-anchor="end">11</text>
    <text x="169.6000" y="40.9000" font-family="sans-serif" font-size="1.6000" fill="#111111">Shell1NormalHatch</text>
    <rect x="161.8000" y="42.0000" width="3.5000" height="2.0000" fill="#FF00FF" stroke="#333333" stroke-width="0.08" rx="0.3" ry="0.3"/>
    <text x="168.6000" y="43.9000" font-family="monospace" font-size="1.6000" fill="#444444" text-anchor="end">12</text>
    <text x="169.6000" y="43.9000" font-family="sans-serif" font-size="1.6000" fill="#111111">Shell1ContourHatch</text>
    <rect x="161.8000" y="45.0000" width="3.5000" height="2.0000" fill="#A52A2A" stroke="#333333" stroke-width="0.08" rx="0.3" ry="0.3"/>
    <text x="168.6000" y="46.9000" font-family="monospace" font-size="1.6000" fill="#444444" text-anchor="end">13</text>
    <text x="169.6000" y="46.9000" font-family="sans-serif" font-size="1.6000" fill="#111111">Shell2OverhangHatch</text>
    <rect x="161.8000" y="48.0000" width="3.5000" height="2.0000" fill="#808080" stroke="#333333" stroke-width="0.08" rx="0.3" ry="0.3"/>
    <text x="168.6000" y="49.9000" font-family="monospace" font-size="1.6000" fill="#444444" text-anchor="end">14</text>
    <text x="169.6000" y="49.9000" font-family="sans-serif" font-size="1.6000" fill="#111111">Shell2NormalHatch</text>
    <rect x="161.8000" y="51.0000" width="3.5000" height="2.0000" fill="#32CD32" stroke="#333333" stroke-width="0.08" rx="0.3" ry="0.3"/>
    <text x="168.6000" y="52.9000" font-family="monospace" font-size="1.6000" fill="#444444" text-anchor="end">15</text>
    <text x="169.6000" y="52.9000" font-family="sans-serif" font-size="1.6000" fill="#111111">Shell2ContourHatch</text>
    <rect x="161.8000" y="54.0000" width="3.5000" height="2.0000" fill="#1A237E" stroke="#333333" stroke-width="0.08" rx="0.3" ry="0.3"/>
    <text x="168.6000" y="55.9000" font-family="monospace" font-size="1.6000" fill="#444444" text-anchor="end">16</text>
    <text x="169.6000" y="55.9000" font-family="sans-serif" font-size="1.6000" fill="#111111">SupportContourVolume</text>
    <rect x="161.8000" y="57.0000" width="3.5000" height="2.0000" fill="#827717" stroke="#333333" stroke-width="0.08" rx="0.3" ry="0.3"/>
    <text x="168.6000" y="58.9000" font-family="monospace" font-size="1.6000" fill="#444444" text-anchor="end">17</text>
    <text x="169.6000" y="58.9000" font-family="sans-serif" font-size="1.6000" fill="#111111">SupportHatch</text>
    <rect x="161.8000" y="60.0000" width="3.5000" height="2.0000" fill="#006064" stroke="#333333" stroke-width="0.08" rx="0.3" ry="0.3"/>
    <text x="168.6000" y="61.9000" font-family="monospace" font-size="1.6000" fill="#444444" text-anchor="end">18</text>
    <text x="169.6000" y="61.9000" font-family="sans-serif" font-size="1.6000" fill="#111111">PointSequence</text>
    <rect x="161.8000" y="63.0000" width="3.5000" height="2.0000" fill="#B71C1C" stroke="#333333" stroke-width="0.08" rx="0.3" ry="0.3"/>
    <text x="168.6000" y="64.9000" font-family="monospace" font-size="1.6000" fill="#444444" text-anchor="end">19</text>
    <text x="169.6000" y="64.9000" font-family="sans-serif" font-size="1.6000" fill="#111111">ExternalSupports</text>
    <rect x="161.8000" y="66.0000" width="3.5000" height="2.0000" fill="#E64A19" stroke="#333333" stroke-width="0.08" rx="0.3" ry="0.3"/>
    <text x="168.6000" y="67.9000" font-family="monospace" font-size="1.6000" fill="#444444" text-anchor="end">20</text>
    <text x="169.6000" y="67.9000" font-family="sans-serif" font-size="1.6000" fill="#111111">CoreContourHatchOverhang</text>
    <rect x="161.8000" y="69.0000" width="3.5000" height="2.0000" fill="#311B92" stroke="#333333" stroke-width="0.08" rx="0.3" ry="0.3"/>
    <text x="168.6000" y="70.9000" font-family="monospace" font-size="1.6000" fill="#444444" text-anchor="end">21</text>
    <text x="169.6000" y="70.9000" font-family="sans-serif" font-size="1.6000" fill="#111111">Shell1ContourHatchOverhang</text>
    <rect x="161.8000" y="72.0000" width="3.5000" height="2.0000" fill="#880E4F" stroke="#333333" stroke-width="0.08" rx="0.3" ry="0.3"/>
    <text x="168.6000" y="73.9000" font-family="monospace" font-size="1.6000" fill="#444444" text-anchor="end">22</text>
    <text x="169.6000" y="73.9000" font-family="sans-serif" font-size="1.6000" fill="#111111">Shell2ContourHatchOverhang</text>
    </g>
  </g>
</svg>
