<?xml version="1.0" encoding="UTF-8" standalone="yes"?>
<svg xmlns="http://www.w3.org/2000/svg"
     xmlns:xlink="http://www.w3.org/1999/xlink"
     width="2020.0000mm" height="1600.0000mm"
     viewBox="0 0 202.000000 160.000000">
  <!--
    Build plate : 150.00 x 150.00 mm
    Coordinate  : 1 SVG unit = 1 mm
    Display zoom: 10x  (width/height = viewBox x 10)
    Hatch stroke: 0.04 mm = ~28 mm on screen at this zoom
    Legend panel: right margin (42 mm wide)
  -->
  <defs>
    <marker id="endArrow" markerWidth="2" markerHeight="1.4"
            refX="0" refY="0.7" orient="auto"
            markerUnits="strokeWidth">
      <polyline fill="darkblue" points="0,0 2,0.7 0,1.4 0.2,0.7"/>
    </marker>
  </defs>
  <!-- Background -->
  <rect x="0" y="0" width="202.000000" height="160.000000" fill="#f0f0f0" stroke="none"/>
  <!-- Build plate boundary (150 x 150 mm) -->
  <rect x="5.000000" y="5.000000" width="150.000000" height="150.000000"
        fill="#ffffff" stroke="#aaaaaa" stroke-width="0.2" stroke-dasharray="1,0.5"/>
  <!-- Build plate centre circle (r = 75.00 mm) -->
  <circle cx="80.000000" cy="80.000000" r="75.000000"
          fill="none" stroke="#bbbbbb" stroke-width="0.15" stroke-dasharray="0.8,0.4"/>
  <!-- Centre cross-hair -->
  <line x1="5.000000" y1="80.000000" x2="155.000000" y2="80.000000" stroke="#cccccc" stroke-width="0.1"/>
  <line x1="80.000000" y1="5.000000" x2="80.000000" y2="155.000000" stroke="#cccccc" stroke-width="0.1"/>
  <circle cx="80.000000" cy="80.000000" r="0.3" fill="#cccccc" stroke="none"/>
  <!-- Corner labels -->
  <text x="5.400000" y="4.600000" font-family="sans-serif" font-size="2" fill="#888888">0,0</text>
  <text x="154.600006" y="4.600000" font-family="sans-serif" font-size="2" fill="#888888" text-anchor="end">150,0</text>
  <text x="5.400000" y="157.199997" font-family="sans-serif" font-size="2" fill="#888888">0,150</text>
  <!-- Layer geometry -->
  <g id="geometry">
    <g class="thermal-hatch" data-segment="8" data-name="CoreNormalHatch">
      <line x1="67.20348" y1="61.50000" x2="66.59254" y2="96.50000" stroke="#228B22" stroke-width="0.04000"/>
      <line x1="67.30348" y1="61.50000" x2="66.69256" y2="96.50000" stroke="#228B22" stroke-width="0.04000"/>
      <line x1="67.40350" y1="61.50000" x2="66.79257" y2="96.50000" stroke="#228B22" stroke-width="0.04000"/>
      <line x1="67.50352" y1="61.50000" x2="66.89259" y2="96.50000" stroke="#228B22" stroke-width="0.04000"/>
      <line x1="67.60353" y1="61.50000" x2="66.99260" y2="96.50000" stroke="#228B22" stroke-width="0.04000"/>
      <line x1="67.70355" y1="61.50000" x2="67.09262" y2="96.50000" stroke="#228B22" stroke-width="0.04000"/>
      <line x1="67.80356" y1="61.50000" x2="67.19263" y2="96.50000" stroke="#228B22" stroke-width="0.04000"/>
      <line x1="67.90358" y1="61.50000" x2="67.29265" y2="96.50000" stroke="#228B22" stroke-width="0.04000"/>
      <line x1="68.00359" y1="61.50000" x2="67.39267" y2="96.50000" stroke="#228B22" stroke-width="0.04000"/>
      <line x1="68.10361" y1="61.50000" x2="67.49268" y2="96.50000" stroke="#228B22" stroke-width="0.04000"/>
      <line x1="68.20363" y1="61.50000" x2="67.59270" y2="96.50000" stroke="#228B22" stroke-width="0.04000"/>
      <line x1="68.30363" y1="61.50000" x2="67.69271" y2="96.50000" stroke="#228B22" stroke-width="0.04000"/>
      <line x1="68.40366" y1="61.50000" x2="67.79272" y2="96.50000" stroke="#228B22" stroke-width="0.04000"/>
      <line x1="68.50367" y1="61.50000" x2="67.89274" y2="96.50000" stroke="#228B22" stroke-width="0.04000"/>
      <line x1="68.60368" y1="61.50000" x2="67.99276" y2="96.50000" stroke="#228B22" stroke-width="0.04000"/>
      <line x1="68.70370" y1="61.50000" x2="68.09277" y2="96.50000" stroke="#228B22" stroke-width="0.04000"/>
      <line x1="68.80371" y1="61.50000" x2="68.19279" y2="96.50000" stroke="#228B22" stroke-width="0.04000"/>
      <line x1="68.90373" y1="61.50000" x2="68.29280" y2="96.50000" stroke="#228B22" stroke-width="0.04000"/>
      <line x1="69.00375" y1="61.50000" x2="68.39282" y2="96.50000" stroke="#228B22" stroke-width="0.04000"/>
      <line x1="69.10376" y1="61.50000" x2="68.49283" y2="96.50000" stroke="#228B22" stroke-width="0.04000"/>
      <line x1="69.20377" y1="61.50000" x2="68.59285" y2="96.50000" stroke="#228B22" stroke-width="0.04000"/>
      <line x1="69.30379" y1="61.50000" x2="68.69286" y2="96.50000" stroke="#228B22" stroke-width="0.04000"/>
      <line x1="69.40380" y1="61.50000" x2="68.79288" y2="96.50000" stroke="#228B22" stroke-width="0.04000"/>
      <line x1="69.50382" y1="61.50000" x2="68.89290" y2="96.50000" stroke="#228B22" stroke-width="0.04000"/>
      <line x1="69.60384" y1="61.50000" x2="68.99290" y2="96.50000" stroke="#228B22" stroke-width="0.04000"/>
      <line x1="69.70385" y1="61.50000" x2="69.09293" y2="96.50000" stroke="#228B22" stroke-width="0.04000"/>
      <line x1="69.80386" y1="61.50000" x2="69.19294" y2="96.50000" stroke="#228B22" stroke-width="0.04000"/>
      <line x1="69.90388" y1="61.50000" x2="69.29295" y2="96.50000" stroke="#228B22" stroke-width="0.04000"/>
      <line x1="70.00390" y1="61.50000" x2="69.39297" y2="96.50000" stroke="#228B22" stroke-width="0.04000"/>
      <line x1="70.10391" y1="61.50000" x2="69.49298" y2="96.50000" stroke="#228B22" stroke-width="0.04000"/>
      <line x1="70.20393" y1="61.50000" x2="69.59300" y2="96.50000" stroke="#228B22" stroke-width="0.04000"/>
      <line x1="70.30394" y1="61.50000" x2="69.69302" y2="96.50000" stroke="#228B22" stroke-width="0.04000"/>
      <line x1="70.40395" y1="61.50000" x2="69.79303" y2="96.50000" stroke="#228B22" stroke-width="0.04000"/>
      <line x1="70.50397" y1="61.50000" x2="69.89304" y2="96.50000" stroke="#228B22" stroke-width="0.04000"/>
      <line x1="70.60399" y1="61.50000" x2="69.99306" y2="96.50000" stroke="#228B22" stroke-width="0.04000"/>
      <line x1="70.70400" y1="61.50000" x2="70.09308" y2="96.50000" stroke="#228B22" stroke-width="0.04000"/>
      <line x1="70.80402" y1="61.50000" x2="70.19309" y2="96.50000" stroke="#228B22" stroke-width="0.04000"/>
      <line x1="70.90403" y1="61.50000" x2="70.29311" y2="96.50000" stroke="#228B22" stroke-width="0.04000"/>
      <line x1="71.00405" y1="61.50000" x2="70.39312" y2="96.50000" stroke="#228B22" stroke-width="0.04000"/>
      <line x1="71.10406" y1="61.50000" x2="70.49314" y2="96.50000" stroke="#228B22" stroke-width="0.04000"/>
      <line x1="71.20408" y1="61.50000" x2="70.59315" y2="96.50000" stroke="#228B22" stroke-width="0.04000"/>
      <line x1="71.30409" y1="61.50000" x2="70.69317" y2="96.50000" stroke="#228B22" stroke-width="0.04000"/>
      <line x1="71.40411" y1="61.50000" x2="70.79318" y2="96.50000" stroke="#228B22" stroke-width="0.04000"/>
      <line x1="71.50413" y1="61.50000" x2="70.89320" y2="96.50000" stroke="#228B22" stroke-width="0.04000"/>
      <line x1="71.60414" y1="61.50000" x2="70.99322" y2="96.50000" stroke="#228B22" stroke-width="0.04000"/>
      <line x1="71.70415" y1="61.50000" x2="71.09323" y2="96.50000" stroke="#228B22" stroke-width="0.04000"/>
      <line x1="71.80417" y1="61.50000" x2="71.19324" y2="96.50000" stroke="#228B22" stroke-width="0.04000"/>
      <line x1="71.90418" y1="61.50000" x2="71.29326" y2="96.50000" stroke="#228B22" stroke-width="0.04000"/>
      <line x1="72.00420" y1="61.50000" x2="71.39327" y2="96.50000" stroke="#228B22" stroke-width="0.04000"/>
      <line x1="72.10422" y1="61.50000" x2="71.49329" y2="96.50000" stroke="#228B22" stroke-width="0.04000"/>
      <line x1="72.20423" y1="61.50000" x2="71.59331" y2="96.50000" stroke="#228B22" stroke-width="0.04000"/>
      <line x1="72.30424" y1="61.50000" x2="71.69332" y2="96.50000" stroke="#228B22" stroke-width="0.04000"/>
      <line x1="72.40426" y1="61.50000" x2="71.79333" y2="96.50000" stroke="#228B22" stroke-width="0.04000"/>
      <line x1="72.50428" y1="61.50000" x2="71.89335" y2="96.50000" stroke="#228B22" stroke-width="0.04000"/>
      <line x1="72.60429" y1="61.50000" x2="71.99337" y2="96.50000" stroke="#228B22" stroke-width="0.04000"/>
      <line x1="72.70431" y1="61.50000" x2="72.09338" y2="96.50000" stroke="#228B22" stroke-width="0.04000"/>
      <line x1="72.80432" y1="61.50000" x2="72.19340" y2="96.50000" stroke="#228B22" stroke-width="0.04000"/>
      <line x1="72.90434" y1="61.50000" x2="72.29341" y2="96.50000" stroke="#228B22" stroke-width="0.04000"/>
      <line x1="73.00436" y1="61.50000" x2="72.39342" y2="96.50000" stroke="#228B22" stroke-width="0.04000"/>
      <line x1="73.10437" y1="61.50000" x2="72.49345" y2="96.50000" stroke="#228B22" stroke-width="0.04000"/>
      <line x1="73.20438" y1="61.50000" x2="72.59346" y2="96.50000" stroke="#228B22" stroke-width="0.04000"/>
      <line x1="73.30440" y1="61.50000" x2="72.69347" y2="96.50000" stroke="#228B22" stroke-width="0.04000"/>
      <line x1="73.40441" y1="61.50000" x2="72.79349" y2="96.50000" stroke="#228B22" stroke-width="0.04000"/>
      <line x1="73.50443" y1="61.50000" x2="72.89350" y2="96.50000" stroke="#228B22" stroke-width="0.04000"/>
      <line x1="73.60445" y1="61.50000" x2="72.99352" y2="96.50000" stroke="#228B22" stroke-width="0.04000"/>
      <line x1="73.70446" y1="61.50000" x2="73.09354" y2="96.50000" stroke="#228B22" stroke-width="0.04000"/>
      <line x1="73.80447" y1="61.50000" x2="73.19355" y2="96.50000" stroke="#228B22" stroke-width="0.04000"/>
      <line x1="73.90449" y1="61.50000" x2="73.29356" y2="96.50000" stroke="#228B22" stroke-width="0.04000"/>
      <line x1="74.00451" y1="61.50000" x2="73.39358" y2="96.50000" stroke="#228B22" stroke-width="0.04000"/>
      <line x1="74.10452" y1="61.50000" x2="73.49360" y2="96.50000" stroke="#228B22" stroke-width="0.04000"/>
      <line x1="74.20454" y1="61.50000" x2="73.59361" y2="96.50000" stroke="#228B22" stroke-width="0.04000"/>
      <line x1="74.30455" y1="61.50000" x2="73.69363" y2="96.50000" stroke="#228B22" stroke-width="0.04000"/>
      <line x1="74.40457" y1="61.50000" x2="73.79364" y2="96.50000" stroke="#228B22" stroke-width="0.04000"/>
      <line x1="74.50459" y1="61.50000" x2="73.89365" y2="96.50000" stroke="#228B22" stroke-width="0.04000"/>
      <line x1="74.60460" y1="61.50000" x2="73.99368" y2="96.50000" stroke="#228B22" stroke-width="0.04000"/>
      <line x1="74.70461" y1="61.50000" x2="74.09369" y2="96.50000" stroke="#228B22" stroke-width="0.04000"/>
      <line x1="74.80463" y1="61.50000" x2="74.19370" y2="96.50000" stroke="#228B22" stroke-width="0.04000"/>
      <line x1="74.90465" y1="61.50000" x2="74.29372" y2="96.50000" stroke="#228B22" stroke-width="0.04000"/>
      <line x1="75.00466" y1="61.50000" x2="74.39373" y2="96.50000" stroke="#228B22" stroke-width="0.04000"/>
      <line x1="75.10468" y1="61.50000" x2="74.49375" y2="96.50000" stroke="#228B22" stroke-width="0.04000"/>
      <line x1="75.20469" y1="61.50000" x2="74.59377" y2="96.50000" stroke="#228B22" stroke-width="0.04000"/>
      <line x1="75.30470" y1="61.50000" x2="74.69378" y2="96.50000" stroke="#228B22" stroke-width="0.04000"/>
      <line x1="75.40472" y1="61.50000" x2="74.79379" y2="96.50000" stroke="#228B22" stroke-width="0.04000"/>
      <line x1="75.50474" y1="61.50000" x2="74.89381" y2="96.50000" stroke="#228B22" stroke-width="0.04000"/>
      <line x1="75.60475" y1="61.50000" x2="74.99383" y2="96.50000" stroke="#228B22" stroke-width="0.04000"/>
      <line x1="75.70477" y1="61.50000" x2="75.09384" y2="96.50000" stroke="#228B22" stroke-width="0.04000"/>
      <line x1="75.80478" y1="61.50000" x2="75.19386" y2="96.50000" stroke="#228B22" stroke-width="0.04000"/>
      <line x1="75.90480" y1="61.50000" x2="75.29387" y2="96.50000" stroke="#228B22" stroke-width="0.04000"/>
      <line x1="76.00481" y1="61.50000" x2="75.39389" y2="96.50000" stroke="#228B22" stroke-width="0.04000"/>
      <line x1="76.10483" y1="61.50000" x2="75.49390" y2="96.50000" stroke="#228B22" stroke-width="0.04000"/>
      <line x1="76.20484" y1="61.50000" x2="75.59392" y2="96.50000" stroke="#228B22" stroke-width="0.04000"/>
      <line x1="76.30486" y1="61.50000" x2="75.69393" y2="96.50000" stroke="#228B22" stroke-width="0.04000"/>
      <line x1="76.40488" y1="61.50000" x2="75.79395" y2="96.50000" stroke="#228B22" stroke-width="0.04000"/>
      <line x1="76.50489" y1="61.50000" x2="75.89397" y2="96.50000" stroke="#228B22" stroke-width="0.04000"/>
      <line x1="76.60490" y1="61.50000" x2="75.99398" y2="96.50000" stroke="#228B22" stroke-width="0.04000"/>
      <line x1="76.70492" y1="61.50000" x2="76.09399" y2="96.50000" stroke="#228B22" stroke-width="0.04000"/>
      <line x1="76.80493" y1="61.50000" x2="76.19400" y2="96.50000" stroke="#228B22" stroke-width="0.04000"/>
      <line x1="76.90495" y1="61.50000" x2="76.29402" y2="96.50000" stroke="#228B22" stroke-width="0.04000"/>
      <line x1="77.00497" y1="61.50000" x2="76.39404" y2="96.50000" stroke="#228B22" stroke-width="0.04000"/>
      <line x1="77.10498" y1="61.50000" x2="76.49406" y2="96.50000" stroke="#228B22" stroke-width="0.04000"/>
      <line x1="77.20499" y1="61.50000" x2="76.59406" y2="96.50000" stroke="#228B22" stroke-width="0.04000"/>
      <line x1="77.30501" y1="61.50000" x2="76.69408" y2="96.50000" stroke="#228B22" stroke-width="0.04000"/>
      <line x1="77.40502" y1="61.50000" x2="76.79410" y2="96.50000" stroke="#228B22" stroke-width="0.04000"/>
      <line x1="77.50504" y1="61.50000" x2="76.89411" y2="96.50000" stroke="#228B22" stroke-width="0.04000"/>
      <line x1="77.60506" y1="61.50000" x2="76.99413" y2="96.50000" stroke="#228B22" stroke-width="0.04000"/>
      <line x1="77.70507" y1="61.50000" x2="77.09415" y2="96.50000" stroke="#228B22" stroke-width="0.04000"/>
      <line x1="77.80508" y1="61.50000" x2="77.19415" y2="96.50000" stroke="#228B22" stroke-width="0.04000"/>
      <line x1="77.90511" y1="61.50000" x2="77.29417" y2="96.50000" stroke="#228B22" stroke-width="0.04000"/>
      <line x1="78.00512" y1="61.50000" x2="77.39419" y2="96.50000" stroke="#228B22" stroke-width="0.04000"/>
      <line x1="78.10513" y1="61.50000" x2="77.49420" y2="96.50000" stroke="#228B22" stroke-width="0.04000"/>
      <line x1="78.20515" y1="61.50000" x2="77.59422" y2="96.50000" stroke="#228B22" stroke-width="0.04000"/>
      <line x1="78.30516" y1="61.50000" x2="77.69424" y2="96.50000" stroke="#228B22" stroke-width="0.04000"/>
      <line x1="78.40517" y1="61.50000" x2="77.79425" y2="96.50000" stroke="#228B22" stroke-width="0.04000"/>
      <line x1="78.50520" y1="61.50000" x2="77.89426" y2="96.50000" stroke="#228B22" stroke-width="0.04000"/>
      <line x1="78.60521" y1="61.50000" x2="77.99428" y2="96.50000" stroke="#228B22" stroke-width="0.04000"/>
      <line x1="78.70522" y1="61.50000" x2="78.09429" y2="96.50000" stroke="#228B22" stroke-width="0.04000"/>
      <line x1="78.80524" y1="61.50000" x2="78.19431" y2="96.50000" stroke="#228B22" stroke-width="0.04000"/>
      <line x1="78.90525" y1="61.50000" x2="78.29433" y2="96.50000" stroke="#228B22" stroke-width="0.04000"/>
      <line x1="79.00527" y1="61.50000" x2="78.39434" y2="96.50000" stroke="#228B22" stroke-width="0.04000"/>
      <line x1="79.10529" y1="61.50000" x2="78.49435" y2="96.50000" stroke="#228B22" stroke-width="0.04000"/>
      <line x1="79.20530" y1="61.50000" x2="78.59437" y2="96.50000" stroke="#228B22" stroke-width="0.04000"/>
      <line x1="79.30531" y1="61.50000" x2="78.69438" y2="96.50000" stroke="#228B22" stroke-width="0.04000"/>
      <line x1="79.40533" y1="61.50000" x2="78.79440" y2="96.50000" stroke="#228B22" stroke-width="0.04000"/>
      <line x1="79.50535" y1="61.50000" x2="78.89442" y2="96.50000" stroke="#228B22" stroke-width="0.04000"/>
      <line x1="79.60536" y1="61.50000" x2="78.99443" y2="96.50000" stroke="#228B22" stroke-width="0.04000"/>
      <line x1="79.70538" y1="61.50000" x2="79.09444" y2="96.50000" stroke="#228B22" stroke-width="0.04000"/>
      <line x1="79.80539" y1="61.50000" x2="79.19447" y2="96.50000" stroke="#228B22" stroke-width="0.04000"/>
      <line x1="79.90540" y1="61.50000" x2="79.29448" y2="96.50000" stroke="#228B22" stroke-width="0.04000"/>
      <line x1="80.00542" y1="61.50000" x2="79.39449" y2="96.50000" stroke="#228B22" stroke-width="0.04000"/>
      <line x1="80.10544" y1="61.50000" x2="79.49451" y2="96.50000" stroke="#228B22" stroke-width="0.04000"/>
      <line x1="80.20545" y1="61.50000" x2="79.59452" y2="96.50000" stroke="#228B22" stroke-width="0.04000"/>
      <line x1="80.30547" y1="61.50000" x2="79.69453" y2="96.50000" stroke="#228B22" stroke-width="0.04000"/>
      <line x1="80.40548" y1="61.50000" x2="79.79456" y2="96.50000" stroke="#228B22" stroke-width="0.04000"/>
      <line x1="80.50550" y1="61.50000" x2="79.89457" y2="96.50000" stroke="#228B22" stroke-width="0.04000"/>
      <line x1="80.60551" y1="61.50000" x2="79.99458" y2="96.50000" stroke="#228B22" stroke-width="0.04000"/>
      <line x1="80.70553" y1="61.50000" x2="80.09460" y2="96.50000" stroke="#228B22" stroke-width="0.04000"/>
      <line x1="80.80554" y1="61.50000" x2="80.19462" y2="96.50000" stroke="#228B22" stroke-width="0.04000"/>
      <line x1="80.90556" y1="61.50000" x2="80.29462" y2="96.50000" stroke="#228B22" stroke-width="0.04000"/>
      <line x1="81.00557" y1="61.50000" x2="80.39465" y2="96.50000" stroke="#228B22" stroke-width="0.04000"/>
      <line x1="81.10559" y1="61.50000" x2="80.49466" y2="96.50000" stroke="#228B22" stroke-width="0.04000"/>
      <line x1="81.20560" y1="61.50000" x2="80.59467" y2="96.50000" stroke="#228B22" stroke-width="0.04000"/>
      <line x1="81.30562" y1="61.50000" x2="80.69469" y2="96.50000" stroke="#228B22" stroke-width="0.04000"/>
      <line x1="81.40564" y1="61.50000" x2="80.79471" y2="96.50000" stroke="#228B22" stroke-width="0.04000"/>
      <line x1="81.50565" y1="61.50000" x2="80.89472" y2="96.50000" stroke="#228B22" stroke-width="0.04000"/>
      <line x1="81.60566" y1="61.50000" x2="80.99474" y2="96.50000" stroke="#228B22" stroke-width="0.04000"/>
      <line x1="81.70567" y1="61.50000" x2="81.09475" y2="96.50000" stroke="#228B22" stroke-width="0.04000"/>
      <line x1="81.80569" y1="61.50000" x2="81.19477" y2="96.50000" stroke="#228B22" stroke-width="0.04000"/>
      <line x1="81.90571" y1="61.50000" x2="81.29478" y2="96.50000" stroke="#228B22" stroke-width="0.04000"/>
      <line x1="82.00573" y1="61.50000" x2="81.39480" y2="96.50000" stroke="#228B22" stroke-width="0.04000"/>
      <line x1="82.10574" y1="61.50000" x2="81.49481" y2="96.50000" stroke="#228B22" stroke-width="0.04000"/>
      <line x1="82.20575" y1="61.50000" x2="81.59483" y2="96.50000" stroke="#228B22" stroke-width="0.04000"/>
      <line x1="82.30577" y1="61.50000" x2="81.69484" y2="96.50000" stroke="#228B22" stroke-width="0.04000"/>
      <line x1="82.40578" y1="61.50000" x2="81.79486" y2="96.50000" stroke="#228B22" stroke-width="0.04000"/>
      <line x1="82.50580" y1="61.50000" x2="81.89487" y2="96.50000" stroke="#228B22" stroke-width="0.04000"/>
      <line x1="82.60582" y1="61.50000" x2="81.99489" y2="96.50000" stroke="#228B22" stroke-width="0.04000"/>
      <line x1="82.70583" y1="61.50000" x2="82.09490" y2="96.50000" stroke="#228B22" stroke-width="0.04000"/>
      <line x1="82.80585" y1="61.50000" x2="82.19492" y2="96.50000" stroke="#228B22" stroke-width="0.04000"/>
      <line x1="82.90586" y1="61.50000" x2="82.29494" y2="96.50000" stroke="#228B22" stroke-width="0.04000"/>
      <line x1="83.00587" y1="61.50000" x2="82.39495" y2="96.50000" stroke="#228B22" stroke-width="0.04000"/>
      <line x1="83.10589" y1="61.50000" x2="82.49496" y2="96.50000" stroke="#228B22" stroke-width="0.04000"/>
      <line x1="83.20590" y1="61.50000" x2="82.59498" y2="96.50000" stroke="#228B22" stroke-width="0.04000"/>
      <line x1="83.30592" y1="61.50000" x2="82.69499" y2="96.50000" stroke="#228B22" stroke-width="0.04000"/>
      <line x1="83.40594" y1="61.50000" x2="82.79501" y2="96.50000" stroke="#228B22" stroke-width="0.04000"/>
      <line x1="83.50595" y1="61.50000" x2="82.89503" y2="96.50000" stroke="#228B22" stroke-width="0.04000"/>
      <line x1="83.60596" y1="61.50000" x2="82.99504" y2="96.50000" stroke="#228B22" stroke-width="0.04000"/>
      <line x1="83.70598" y1="61.50000" x2="83.09505" y2="96.50000" stroke="#228B22" stroke-width="0.04000"/>
      <line x1="83.80600" y1="61.50000" x2="83.19507" y2="96.50000" stroke="#228B22" stroke-width="0.04000"/>
      <line x1="83.90601" y1="61.50000" x2="83.29509" y2="96.50000" stroke="#228B22" stroke-width="0.04000"/>
      <line x1="84.00603" y1="61.50000" x2="83.39510" y2="96.50000" stroke="#228B22" stroke-width="0.04000"/>
      <line x1="84.10604" y1="61.50000" x2="83.49512" y2="96.50000" stroke="#228B22" stroke-width="0.04000"/>
      <line x1="84.20605" y1="61.50000" x2="83.59513" y2="96.50000" stroke="#228B22" stroke-width="0.04000"/>
      <line x1="84.30608" y1="61.50000" x2="83.69514" y2="96.50000" stroke="#228B22" stroke-width="0.04000"/>
      <line x1="84.40609" y1="61.50000" x2="83.79517" y2="96.50000" stroke="#228B22" stroke-width="0.04000"/>
      <line x1="84.50610" y1="61.50000" x2="83.89518" y2="96.50000" stroke="#228B22" stroke-width="0.04000"/>
      <line x1="84.60612" y1="61.50000" x2="83.99519" y2="96.50000" stroke="#228B22" stroke-width="0.04000"/>
      <line x1="84.70613" y1="61.50000" x2="84.09521" y2="96.50000" stroke="#228B22" stroke-width="0.04000"/>
      <line x1="84.80615" y1="61.50000" x2="84.19522" y2="96.50000" stroke="#228B22" stroke-width="0.04000"/>
      <line x1="84.90617" y1="61.50000" x2="84.29524" y2="96.50000" stroke="#228B22" stroke-width="0.04000"/>
      <line x1="85.00618" y1="61.50000" x2="84.39526" y2="96.50000" stroke="#228B22" stroke-width="0.04000"/>
      <line x1="85.10619" y1="61.50000" x2="84.49527" y2="96.50000" stroke="#228B22" stroke-width="0.04000"/>
      <line x1="85.20621" y1="61.50000" x2="84.59528" y2="96.50000" stroke="#228B22" stroke-width="0.04000"/>
      <line x1="85.30623" y1="61.50000" x2="84.69530" y2="96.50000" stroke="#228B22" stroke-width="0.04000"/>
      <line x1="85.40624" y1="61.50000" x2="84.79532" y2="96.50000" stroke="#228B22" stroke-width="0.04000"/>
      <line x1="85.50626" y1="61.50000" x2="84.89533" y2="96.50000" stroke="#228B22" stroke-width="0.04000"/>
      <line x1="85.60627" y1="61.50000" x2="84.99535" y2="96.50000" stroke="#228B22" stroke-width="0.04000"/>
      <line x1="85.70629" y1="61.50000" x2="85.09536" y2="96.50000" stroke="#228B22" stroke-width="0.04000"/>
      <line x1="85.80630" y1="61.50000" x2="85.19537" y2="96.50000" stroke="#228B22" stroke-width="0.04000"/>
      <line x1="85.90632" y1="61.50000" x2="85.29539" y2="96.50000" stroke="#228B22" stroke-width="0.04000"/>
      <line x1="86.00633" y1="61.50000" x2="85.39541" y2="96.50000" stroke="#228B22" stroke-width="0.04000"/>
      <line x1="86.10635" y1="61.50000" x2="85.49542" y2="96.50000" stroke="#228B22" stroke-width="0.04000"/>
      <line x1="86.20637" y1="61.50000" x2="85.59544" y2="96.50000" stroke="#228B22" stroke-width="0.04000"/>
      <line x1="86.30638" y1="61.50000" x2="85.69545" y2="96.50000" stroke="#228B22" stroke-width="0.04000"/>
      <line x1="86.40639" y1="61.50000" x2="85.79547" y2="96.50000" stroke="#228B22" stroke-width="0.04000"/>
      <line x1="86.50641" y1="61.50000" x2="85.89548" y2="96.50000" stroke="#228B22" stroke-width="0.04000"/>
      <line x1="86.60642" y1="61.50000" x2="85.99550" y2="96.50000" stroke="#228B22" stroke-width="0.04000"/>
      <line x1="86.70644" y1="61.50000" x2="86.09551" y2="96.50000" stroke="#228B22" stroke-width="0.04000"/>
      <line x1="86.80646" y1="61.50000" x2="86.19553" y2="96.50000" stroke="#228B22" stroke-width="0.04000"/>
      <line x1="86.90647" y1="61.50000" x2="86.29555" y2="96.50000" stroke="#228B22" stroke-width="0.04000"/>
      <line x1="87.00648" y1="61.50000" x2="86.39556" y2="96.50000" stroke="#228B22" stroke-width="0.04000"/>
      <line x1="87.10650" y1="61.50000" x2="86.49557" y2="96.50000" stroke="#228B22" stroke-width="0.04000"/>
      <line x1="87.20652" y1="61.50000" x2="86.59559" y2="96.50000" stroke="#228B22" stroke-width="0.04000"/>
      <line x1="87.30653" y1="61.50000" x2="86.69561" y2="96.50000" stroke="#228B22" stroke-width="0.04000"/>
      <line x1="87.40655" y1="61.50000" x2="86.79562" y2="96.50000" stroke="#228B22" stroke-width="0.04000"/>
      <line x1="87.50656" y1="61.50000" x2="86.89564" y2="96.50000" stroke="#228B22" stroke-width="0.04000"/>
      <line x1="87.60658" y1="61.50000" x2="86.99565" y2="96.50000" stroke="#228B22" stroke-width="0.04000"/>
      <line x1="87.70660" y1="61.50000" x2="87.09566" y2="96.50000" stroke="#228B22" stroke-width="0.04000"/>
      <line x1="87.80661" y1="61.50000" x2="87.19569" y2="96.50000" stroke="#228B22" stroke-width="0.04000"/>
      <line x1="87.90662" y1="61.50000" x2="87.29570" y2="96.50000" stroke="#228B22" stroke-width="0.04000"/>
      <line x1="88.00664" y1="61.50000" x2="87.39571" y2="96.50000" stroke="#228B22" stroke-width="0.04000"/>
      <line x1="88.10665" y1="61.50000" x2="87.49573" y2="96.50000" stroke="#228B22" stroke-width="0.04000"/>
      <line x1="88.20667" y1="61.50000" x2="87.59574" y2="96.50000" stroke="#228B22" stroke-width="0.04000"/>
      <line x1="88.30669" y1="61.50000" x2="87.69576" y2="96.50000" stroke="#228B22" stroke-width="0.04000"/>
      <line x1="88.40670" y1="61.50000" x2="87.79578" y2="96.50000" stroke="#228B22" stroke-width="0.04000"/>
      <line x1="88.50671" y1="61.50000" x2="87.89579" y2="96.50000" stroke="#228B22" stroke-width="0.04000"/>
      <line x1="88.60673" y1="61.50000" x2="87.99580" y2="96.50000" stroke="#228B22" stroke-width="0.04000"/>
      <line x1="88.70675" y1="61.50000" x2="88.09582" y2="96.50000" stroke="#228B22" stroke-width="0.04000"/>
      <line x1="88.80676" y1="61.50000" x2="88.19584" y2="96.50000" stroke="#228B22" stroke-width="0.04000"/>
      <line x1="88.90678" y1="61.50000" x2="88.29585" y2="96.50000" stroke="#228B22" stroke-width="0.04000"/>
      <line x1="89.00679" y1="61.50000" x2="88.39587" y2="96.50000" stroke="#228B22" stroke-width="0.04000"/>
      <line x1="89.10680" y1="61.50000" x2="88.49588" y2="96.50000" stroke="#228B22" stroke-width="0.04000"/>
      <line x1="89.20683" y1="61.50000" x2="88.59589" y2="96.50000" stroke="#228B22" stroke-width="0.04000"/>
      <line x1="89.30684" y1="61.50000" x2="88.69592" y2="96.50000" stroke="#228B22" stroke-width="0.04000"/>
      <line x1="89.40685" y1="61.50000" x2="88.79593" y2="96.50000" stroke="#228B22" stroke-width="0.04000"/>
      <line x1="89.50687" y1="61.50000" x2="88.89594" y2="96.50000" stroke="#228B22" stroke-width="0.04000"/>
      <line x1="89.60688" y1="61.50000" x2="88.99596" y2="96.50000" stroke="#228B22" stroke-width="0.04000"/>
      <line x1="89.70690" y1="61.50000" x2="89.09597" y2="96.50000" stroke="#228B22" stroke-width="0.04000"/>
      <line x1="89.80692" y1="61.50000" x2="89.19599" y2="96.50000" stroke="#228B22" stroke-width="0.04000"/>
      <line x1="89.90693" y1="61.50000" x2="89.29601" y2="96.50000" stroke="#228B22" stroke-width="0.04000"/>
      <line x1="90.00694" y1="61.50000" x2="89.39602" y2="96.50000" stroke="#228B22" stroke-width="0.04000"/>
      <line x1="90.10696" y1="61.50000" x2="89.49603" y2="96.50000" stroke="#228B22" stroke-width="0.04000"/>
      <line x1="90.20698" y1="61.50000" x2="89.59605" y2="96.50000" stroke="#228B22" stroke-width="0.04000"/>
      <line x1="90.30699" y1="61.50000" x2="89.69607" y2="96.50000" stroke="#228B22" stroke-width="0.04000"/>
      <line x1="90.40701" y1="61.50000" x2="89.79608" y2="96.50000" stroke="#228B22" stroke-width="0.04000"/>
      <line x1="90.50702" y1="61.50000" x2="89.89610" y2="96.50000" stroke="#228B22" stroke-width="0.04000"/>
      <line x1="90.60704" y1="61.50000" x2="89.99611" y2="96.50000" stroke="#228B22" stroke-width="0.04000"/>
      <line x1="90.70705" y1="61.50000" x2="90.09612" y2="96.50000" stroke="#228B22" stroke-width="0.04000"/>
      <line x1="90.80707" y1="61.50000" x2="90.19614" y2="96.50000" stroke="#228B22" stroke-width="0.04000"/>
      <line x1="90.90708" y1="61.50000" x2="90.29615" y2="96.50000" stroke="#228B22" stroke-width="0.04000"/>
      <line x1="91.00710" y1="61.50000" x2="90.39616" y2="96.50000" stroke="#228B22" stroke-width="0.04000"/>
      <line x1="91.10712" y1="61.50000" x2="90.49619" y2="96.50000" stroke="#228B22" stroke-width="0.04000"/>
      <line x1="91.20713" y1="61.50000" x2="90.59620" y2="96.50000" stroke="#228B22" stroke-width="0.04000"/>
      <line x1="91.30714" y1="61.50000" x2="90.69622" y2="96.50000" stroke="#228B22" stroke-width="0.04000"/>
      <line x1="91.40716" y1="61.50000" x2="90.79623" y2="96.50000" stroke="#228B22" stroke-width="0.04000"/>
      <line x1="91.50717" y1="61.50000" x2="90.89624" y2="96.50000" stroke="#228B22" stroke-width="0.04000"/>
      <line x1="91.60719" y1="61.50000" x2="90.99626" y2="96.50000" stroke="#228B22" stroke-width="0.04000"/>
      <line x1="91.70721" y1="61.50000" x2="91.09628" y2="96.50000" stroke="#228B22" stroke-width="0.04000"/>
      <line x1="91.80722" y1="61.50000" x2="91.19629" y2="96.50000" stroke="#228B22" stroke-width="0.04000"/>
      <line x1="91.90723" y1="61.50000" x2="91.29630" y2="96.50000" stroke="#228B22" stroke-width="0.04000"/>
      <line x1="92.00725" y1="61.50000" x2="91.39632" y2="96.50000" stroke="#228B22" stroke-width="0.04000"/>
      <line x1="92.10726" y1="61.50000" x2="91.49634" y2="96.50000" stroke="#228B22" stroke-width="0.04000"/>
      <line x1="92.20728" y1="61.50000" x2="91.59635" y2="96.50000" stroke="#228B22" stroke-width="0.04000"/>
      <line x1="92.30730" y1="61.50000" x2="91.69637" y2="96.50000" stroke="#228B22" stroke-width="0.04000"/>
      <line x1="92.40731" y1="61.50000" x2="91.79638" y2="96.50000" stroke="#228B22" stroke-width="0.04000"/>
      <line x1="92.50732" y1="61.50000" x2="91.89639" y2="96.50000" stroke="#228B22" stroke-width="0.04000"/>
      <line x1="92.60734" y1="61.50000" x2="91.99641" y2="96.50000" stroke="#228B22" stroke-width="0.04000"/>
      <line x1="92.70736" y1="61.50000" x2="92.09643" y2="96.50000" stroke="#228B22" stroke-width="0.04000"/>
      <line x1="92.80737" y1="61.50000" x2="92.19644" y2="96.50000" stroke="#228B22" stroke-width="0.04000"/>
      <line x1="92.90739" y1="61.50000" x2="92.29646" y2="96.50000" stroke="#228B22" stroke-width="0.04000"/>
      <line x1="93.00740" y1="61.50000" x2="92.39647" y2="96.50000" stroke="#228B22" stroke-width="0.04000"/>
      <line x1="93.10741" y1="61.50000" x2="92.49649" y2="96.50000" stroke="#228B22" stroke-width="0.04000"/>
      <line x1="93.20744" y1="61.50000" x2="92.59650" y2="96.50000" stroke="#228B22" stroke-width="0.04000"/>
      <line x1="93.30745" y1="61.50000" x2="92.69652" y2="96.50000" stroke="#228B22" stroke-width="0.04000"/>
      <line x1="93.40746" y1="61.50000" x2="92.79653" y2="96.50000" stroke="#228B22" stroke-width="0.04000"/>
      <line x1="93.44739" y1="64.94241" x2="92.89655" y2="96.50000" stroke="#228B22" stroke-width="0.04000"/>
      <line x1="93.44739" y1="70.67245" x2="92.99657" y2="96.50000" stroke="#228B22" stroke-width="0.04000"/>
      <line x1="93.44739" y1="76.40241" x2="93.09658" y2="96.50000" stroke="#228B22" stroke-width="0.04000"/>
      <line x1="93.44739" y1="82.13219" x2="93.19659" y2="96.50000" stroke="#228B22" stroke-width="0.04000"/>
      <line x1="93.44739" y1="87.86198" x2="93.29661" y2="96.50000" stroke="#228B22" stroke-width="0.04000"/>
      <line x1="93.44739" y1="93.59180" x2="93.39662" y2="96.50000" stroke="#228B22" stroke-width="0.04000"/>
      <line x1="67.10345" y1="61.50000" x2="66.55262" y2="93.05742" stroke="#228B22" stroke-width="0.04000"/>
      <line x1="67.00344" y1="61.50000" x2="66.55262" y2="87.32751" stroke="#228B22" stroke-width="0.04000"/>
      <line x1="66.90343" y1="61.50000" x2="66.55262" y2="81.59764" stroke="#228B22" stroke-width="0.04000"/>
      <line x1="66.80341" y1="61.50000" x2="66.55262" y2="75.86784" stroke="#228B22" stroke-width="0.04000"/>
      <line x1="66.70340" y1="61.50000" x2="66.55262" y2="70.13794" stroke="#228B22" stroke-width="0.04000"/>
      <line x1="66.60338" y1="61.50000" x2="66.55262" y2="64.40803" stroke="#228B22" stroke-width="0.04000"/>
    </g>
    <g class="thermal-hatch" data-segment="8" data-name="CoreNormalHatch">
      <line x1="93.15740" y1="96.21000" x2="66.84261" y2="96.21000" stroke="#228B22" stroke-width="0.04000"/>
      <line x1="66.84261" y1="96.21000" x2="66.84261" y2="61.79000" stroke="#228B22" stroke-width="0.04000"/>
      <line x1="66.84261" y1="61.79000" x2="93.15740" y2="61.79000" stroke="#228B22" stroke-width="0.04000"/>
      <line x1="93.15740" y1="61.79000" x2="93.15740" y2="96.21000" stroke="#228B22" stroke-width="0.04000"/>
    </g>
    <g class="thermal-contour" data-segment="1" data-name="CoreContour_Volume">
    <path d="M 93.4474 96.5 L 66.5526 96.5 L 66.5526 61.5 L 93.4474 61.5 L 93.4474 96.5" fill="none" stroke="#000000" stroke-width="0.05000" fill-rule="evenodd" fill-opacity="1.000"/>
    </g>
    <g class="thermal-contour" data-segment="1" data-name="CoreContour_Volume">
    <path d="M 93.2474 96.3 L 66.7526 96.3 L 66.7526 61.7 L 93.2474 61.7 L 93.2474 96.3" fill="none" stroke="#000000" stroke-width="0.05000" fill-rule="evenodd" fill-opacity="1.000"/>
    <path d="M 66.8426 96.21 L 93.1574 96.21 L 93.1574 61.79 L 66.8426 61.79 L 66.8426 96.21" fill="none" stroke="#000000" stroke-width="0.05000" fill-rule="evenodd" fill-opacity="1.000"/>
    </g>
    <g class="thermal-contour" data-segment="9" data-name="CoreContourHatch">
    <path d="M 93.1844 96.237 L 66.8156 96.237 L 66.8156 61.763 L 93.1844 61.763 L 93.1844 96.237" fill="none" stroke="#800080" stroke-width="0.05000" fill-rule="evenodd" fill-opacity="1.000"/>
    <path d="M 66.8426 96.21 L 93.1574 96.21 L 93.1574 61.79 L 66.8426 61.79 L 66.8426 96.21" fill="none" stroke="#800080" stroke-width="0.05000" fill-rule="evenodd" fill-opacity="1.000"/>
    </g>
    <g class="thermal-contour" data-segment="3" data-name="HollowShell1Contour_Volume">
    <path d="M 93.4474 96.5 L 66.5526 96.5 L 66.5526 61.5 L 93.4474 61.5 L 93.4474 96.5" fill="none" stroke="#0000CC" stroke-width="0.05000" fill-rule="evenodd" fill-opacity="1.000"/>
    <path d="M 66.6526 96.4 L 93.3474 96.4 L 93.3474 61.6 L 66.6526 61.6 L 66.6526 96.4" fill="none" stroke="#0000CC" stroke-width="0.05000" fill-rule="evenodd" fill-opacity="1.000"/>
    </g>
    <g class="thermal-contour" data-segment="5" data-name="HollowShell2Contour_Volume">
    <path d="M 93.3474 96.4 L 66.6526 96.4 L 66.6526 61.6 L 93.3474 61.6 L 93.3474 96.4" fill="none" stroke="#B8860B" stroke-width="0.05000" fill-rule="evenodd" fill-opacity="1.000"/>
    <path d="M 66.7526 96.3 L 93.2474 96.3 L 93.2474 61.7 L 66.7526 61.7 L 66.7526 96.3" fill="none" stroke="#B8860B" stroke-width="0.05000" fill-rule="evenodd" fill-opacity="1.000"/>
    </g>
    <!-- ===== Thermal Segment Colour Legend ===== -->
    <g id="thermal-legend">
    <rect x="161.0000" y="5.0000" width="40.0000" height="72.0000"
          rx="1" ry="1"
          fill="#fafafa" stroke="#cccccc" stroke-width="0.15"/>
    <text x="181.0000" y="7.6000" font-family="sans-serif" font-size="2.2000" font-weight="bold" fill="#222222" text-anchor="middle">Thermal Segments</text>
    <line x1="161.5000" y1="8.7000" x2="200.5000" y2="8.7000" stroke="#bbbbbb" stroke-width="0.1"/>
    <rect x="161.8000" y="9.0000" width="3.5000" height="2.0000" fill="#000000" stroke="#333333" stroke-width="0.08" rx="0.3" ry="0.3"/>
    <text x="168.6000" y="10.9000" font-family="monospace" font-size="1.6000" fill="#444444" text-anchor="end"> 1</text>
    <text x="169.6000" y="10.9000" font-family="sans-serif" font-size="1.6000" fill="#111111">CoreContour_Volume</text>
    <rect x="161.8000" y="12.0000" width="3.5000" height="2.0000" fill="#8B0000" stroke="#333333" stroke-width="0.08" rx="0.3" ry="0.3"/>
    <text x="168.6000" y="13.9000" font-family="monospace" font-size="1.6000" fill="#444444" text-anchor="end"> 2</text>
    <text x="169.6000" y="13.9000" font-family="sans-serif" font-size="1.6000" fill="#111111">CoreContour_Overhang</text>
    <rect x="161.8000" y="15.0000" width="3.5000" height="2.0000" fill="#0000CC" stroke="#333333" stroke-width="0.08" rx="0.3" ry="0.3"/>
    <text x="168.6000" y="16.9000" font-family="monospace" font-size="1.6000" fill="#444444" text-anchor="end"> 3</text>
    <text x="169.6000" y="16.9000" font-family="sans-serif" font-size="1.6000" fill="#111111">Shell1Contour_Volume</text>
    <rect x="161.8000" y="18.0000" width="3.5000" height="2.0000" fill="#000080" stroke="#333333" stroke-width="0.08" rx="0.3" ry="0.3"/>
    <text x="168.6000" y="19.9000" font-family="monospace" font-size="1.6000" fill="#444444" text-anchor="end"> 4</text>
    <text x="169.6000" y="19.9000" font-family="sans-serif" font-size="1.6000" fill="#111111">Shell1Contour_Overhang</text>
    <rect x="161.8000" y="21.0000" width="3.5000" height="2.0000" fill="#B8860B" stroke="#333333" stroke-width="0.08" rx="0.3" ry="0.3"/>
    <text x="168.6000" y="22.9000" font-family="monospace" font-size="1.6000" fill="#444444" text-anchor="end"> 5</text>
    <text x="169.6000" y="22.9000" font-family="sans-serif" font-size="1.6000" fill="#111111">Shell2Contour_Volume</text>
    <rect x="161.8000" y="24.0000" width="3.5000" height="2.0000" fill="#006400" stroke="#333333" stroke-width="0.08" rx="0.3" ry="0.3"/>
    <text x="168.6000" y="25.9000" font-family="monospace" font-size="1.6000" fill="#444444" text-anchor="end"> 6</text>
    <text x="169.6000" y="25.9000" font-family="sans-serif" font-size="1.6000" fill="#111111">Shell2Contour_Overhang</text>
    <rect x="161.8000" y="27.0000" width="3.5000" height="2.0000" fill="#FF8C00" stroke="#333333" stroke-width="0.08" rx="0.3" ry="0.3"/>
    <text x="168.6000" y="28.9000" font-family="monospace" font-size="1.6000" fill="#444444" text-anchor="end"> 7</text>
    <text x="169.6000" y="28.9000" font-family="sans-serif" font-size="1.6000" fill="#111111">CoreOverhangHatch</text>
    <rect x="161.8000" y="30.0000" width="3.5000" height="2.0000" fill="#228B22" stroke="#333333" stroke-width="0.08" rx="0.3" ry="0.3"/>
    <text x="168.6000" y="31.9000" font-family="monospace" font-size="1.6000" fill="#444444" text-anchor="end"> 8</text>
    <text x="169.6000" y="31.9000" font-family="sans-serif" font-size="1.6000" fill="#111111">CoreNormalHatch</text>
    <rect x="161.8000" y="33.0000" width="3.5000" height="2.0000" fill="#800080" stroke="#333333" stroke-width="0.08" rx="0.3" ry="0.3"/>
    <text x="168.6000" y="34.9000" font-family="monospace" font-size="1.6000" fill="#444444" text-anchor="end"> 9</text>
    <text x="169.6000" y="34.9000" font-family="sans-serif" font-size="1.6000" fill="#111111">CoreContourHatch</text>
    <rect x="161.8000" y="36.0000" width="3.5000" height="2.0000" fill="#FF69B4" stroke="#333333" stroke-width="0.08" rx="0.3" ry="0.3"/>
    <text x="168.6000" y="37.9000" font-family="monospace" font-size="1.6000" fill="#444444" text-anchor="end">10</text>
    <text x="169.6000" y="37.9000" font-family="sans-serif" font-size="1.6000" fill="#111111">Shell1OverhangHatch</text>
    <rect x="161.8000" y="39.0000" width="3.5000" height="2.0000" fill="#00CED1" stroke="#333333" stroke-width="0.08" rx="0.3" ry="0.3"/>
    <text x="168.6000" y="40.9000" font-family="monospace" font-size="1.6000" fill="#444444" text-anchor="end">11</text>
    <text x="169.6000" y="40.9000" font-family="sans-serif" font-size="1.6000" fill="#111111">Shell1NormalHatch</text>
    <rect x="161.8000" y="42.0000" width="3.5000" height="2.0000" fill="#FF00FF" stroke="#333333" stroke-width="0.08" rx="0.3" ry="0.3"/>
    <text x="168.6000" y="43.9000" font-family="monospace" font-size="1.6000" fill="#444444" text-anchor="end">12</text>
    <text x="169.6000" y="43.9000" font-family="sans-serif" font-size="1.6000" fill="#111111">Shell1ContourHatch</text>
    <rect x="161.8000" y="45.0000" width="3.5000" height="2.0000" fill="#A52A2A" stroke="#333333" stroke-width="0.08" rx="0.3" ry="0.3"/>
    <text x="168.6000" y="46.9000" font-family="monospace" font-size="1.6000" fill="#444444" text-anchor="end">13</text>
    <text x="169.6000" y="46.9000" font-family="sans-serif" font-size="1.6000" fill="#111111">Shell2OverhangHatch</text>
    <rect x="161.8000" y="48.0000" width="3.5000" height="2.0000" fill="#808080" stroke="#333333" stroke-width="0.08" rx="0.3" ry="0.3"/>
    <text x="168.6000" y="49.9000" font-family="monospace" font-size="1.6000" fill="#444444" text-anchor="end">14</text>
    <text x="169.6000" y="49.9000" font-family="sans-serif" font-size="1.6000" fill="#111111">Shell2NormalHatch</text>
    <rect x="161.8000" y="51.0000" width="3.5000" height="2.0000" fill="#32CD32" stroke="#333333" stroke-width="0.08" rx="0.3" ry="0.3"/>
    <text x="168.6000" y="52.9000" font-family="monospace" font-size="1.6000" fill="#444444" text-anchor="end">15</text>
    <text x="169.6000" y="52.9000" font-family="sans-serif" font-size="1.6000" fill="#111111">Shell2ContourHatch</text>
    <rect x="161.8000" y="54.0000" width="3.5000" height="2.0000" fill="#1A237E" stroke="#333333" stroke-width="0.08" rx="0.3" ry="0.3"/>
    <text x="168.6000" y="55.9000" font-family="monospace" font-size="1.6000" fill="#444444" text-anchor="end">16</text>
    <text x="169.6000" y="55.9000" font-family="sans-serif" font-size="1.6000" fill="#111111">SupportContourVolume</text>
    <rect x="161.8000" y="57.0000" width="3.5000" height="2.0000" fill="#827717" stroke="#333333" stroke-width="0.08" rx="0.3" ry="0.3"/>
    <text x="168.6000" y="58.9000" font-family="monospace" font-size="1.6000" fill="#444444" text-anchor="end">17</text>
    <text x="169.6000" y="58.9000" font-family="sans-serif" font-size="1.6000" fill="#111111">SupportHatch</text>
    <rect x="161.8000" y="60.0000" width="3.5000" height="2.0000" fill="#006064" stroke="#333333" stroke-width="0.08" rx="0.3" ry="0.3"/>
    <text x="168.6000" y="61.9000" font-family="monospace" font-size="1.6000" fill="#444444" text-anchor="end">18</text>
    <text x="169.6000" y="61.9000" font-family="sans-serif" font-size="1.6000" fill="#111111">PointSequence</text>
    <rect x="161.8000" y="63.0000" width="3.5000" height="2.0000" fill="#B71C1C" stroke="#333333" stroke-width="0.08" rx="0.3" ry="0.3"/>
    <text x="168.6000" y="64.9000" font-family="monospace" font-size="1.6000" fill="#444444" text-anchor="end">19</text>
    <text x="169.6000" y="64.9000" font-family="sans-serif" font-size="1.6000" fill="#111111">ExternalSupports</text>
    <rect x="161.8000" y="66.0000" width="3.5000" height="2.0000" fill="#E64A19" stroke="#333333" stroke-width="0.08" rx="0.3" ry="0.3"/>
    <text x="168.6000" y="67.9000" font-family="monospace" font-size="1.6000" fill="#444444" text-anchor="end">20</text>
    <text x="169.6000" y="67.9000" font-family="sans-serif" font-size="1.6000" fill="#111111">CoreContourHatchOverhang</text>
    <rect x="161.8000" y="69.0000" width="3.5000" height="2.0000" fill="#311B92" stroke="#333333" stroke-width="0.08" rx="0.3" ry="0.3"/>
    <text x="168.6000" y="70.9000" font-family="monospace" font-size="1.6000" fill="#444444" text-anchor="end">21</text>
    <text x="169.6000" y="70.9000" font-family="sans-serif" font-size="1.6000" fill="#111111">Shell1ContourHatchOverhang</text>
    <rect x="161.8000" y="72.0000" width="3.5000" height="2.0000" fill="#880E4F" stroke="#333333" stroke-width="0.08" rx="0.3" ry="0.3"/>
    <text x="168.6000" y="73.9000" font-family="monospace" font-size="1.6000" fill="#444444" text-anchor="end">22</text>
    <text x="169.6000" y="73.9000" font-family="sans-serif" font-size="1.6000" fill="#111111">Shell2ContourHatchOverhang</text>
    </g>
  </g>
</svg>
