<?xml version="1.0" encoding="UTF-8" standalone="yes"?>
<svg xmlns="http://www.w3.org/2000/svg"
     xmlns:xlink="http://www.w3.org/1999/xlink"
     width="2020.0000mm" height="1600.0000mm"
     viewBox="0 0 202.000000 160.000000">
  <!--
    Build plate : 150.00 x 150.00 mm
    Coordinate  : 1 SVG unit = 1 mm
    Display zoom: 10x  (width/height = viewBox x 10)
    Hatch stroke: 0.04 mm = ~28 mm on screen at this zoom
    Legend panel: right margin (42 mm wide)
  -->
  <defs>
    <marker id="endArrow" markerWidth="2" markerHeight="1.4"
            refX="0" refY="0.7" orient="auto"
            markerUnits="strokeWidth">
      <polyline fill="darkblue" points="0,0 2,0.7 0,1.4 0.2,0.7"/>
    </marker>
  </defs>
  <!-- Background -->
  <rect x="0" y="0" width="202.000000" height="160.000000" fill="#f0f0f0" stroke="none"/>
  <!-- Build plate boundary (150 x 150 mm) -->
  <rect x="5.000000" y="5.000000" width="150.000000" height="150.000000"
        fill="#ffffff" stroke="#aaaaaa" stroke-width="0.2" stroke-dasharray="1,0.5"/>
  <!-- Build plate centre circle (r = 75.00 mm) -->
  <circle cx="80.000000" cy="80.000000" r="75.000000"
          fill="none" stroke="#bbbbbb" stroke-width="0.15" stroke-dasharray="0.8,0.4"/>
  <!-- Centre cross-hair -->
  <line x1="5.000000" y1="80.000000" x2="155.000000" y2="80.000000" stroke="#cccccc" stroke-width="0.1"/>
  <line x1="80.000000" y1="5.000000" x2="80.000000" y2="155.000000" stroke="#cccccc" stroke-width="0.1"/>
  <circle cx="80.000000" cy="80.000000" r="0.3" fill="#cccccc" stroke="none"/>
  <!-- Corner labels -->
  <text x="5.400000" y="4.600000" font-family="sans-serif" font-size="2" fill="#888888">0,0</text>
  <text x="154.600006" y="4.600000" font-family="sans-serif" font-size="2" fill="#888888" text-anchor="end">150,0</text>
  <text x="5.400000" y="157.199997" font-family="sans-serif" font-size="2" fill="#888888">0,150</text>
  <!-- Layer geometry -->
  <g id="geometry">
    <g class="thermal-hatch" data-segment="8" data-name="CoreNormalHatch">
      <line x1="35.77229" y1="121.08030" x2="34.83363" y2="126.40371" stroke="#228B22" stroke-width="0.04000"/>
      <line x1="35.89864" y1="119.78788" x2="34.74061" y2="126.35538" stroke="#228B22" stroke-width="0.04000"/>
      <line x1="36.00305" y1="118.61984" x2="34.64759" y2="126.30704" stroke="#228B22" stroke-width="0.04000"/>
      <line x1="35.69038" y1="122.12073" x2="34.95431" y2="126.29518" stroke="#228B22" stroke-width="0.04000"/>
      <line x1="35.98969" y1="118.11977" x2="34.55457" y2="126.25871" stroke="#228B22" stroke-width="0.04000"/>
      <line x1="35.95721" y1="117.72802" x2="34.46155" y2="126.21037" stroke="#228B22" stroke-width="0.04000"/>
      <line x1="35.94044" y1="117.24727" x2="34.36853" y2="126.16203" stroke="#228B22" stroke-width="0.04000"/>
      <line x1="35.93021" y1="116.72945" x2="34.27377" y2="126.12353" stroke="#228B22" stroke-width="0.04000"/>
      <line x1="35.61563" y1="123.12053" x2="35.09039" y2="126.09933" stroke="#228B22" stroke-width="0.04000"/>
      <line x1="35.88213" y1="116.42621" x2="34.17687" y2="126.09721" stroke="#228B22" stroke-width="0.04000"/>
      <line x1="35.83302" y1="116.12888" x2="34.07997" y2="126.07089" stroke="#228B22" stroke-width="0.04000"/>
      <line x1="35.77989" y1="115.85432" x2="34.00420" y2="125.92474" stroke="#228B22" stroke-width="0.04000"/>
      <line x1="35.57648" y1="123.91843" x2="35.22646" y2="125.90349" stroke="#228B22" stroke-width="0.04000"/>
      <line x1="35.72676" y1="115.57974" x2="33.93436" y2="125.74497" stroke="#228B22" stroke-width="0.04000"/>
      <line x1="35.67464" y1="115.29945" x2="33.86451" y2="125.56520" stroke="#228B22" stroke-width="0.04000"/>
      <line x1="35.44202" y1="125.25683" x2="35.38992" y2="125.55232" stroke="#228B22" stroke-width="0.04000"/>
      <line x1="35.62341" y1="115.01411" x2="33.79485" y2="125.38441" stroke="#228B22" stroke-width="0.04000"/>
      <line x1="35.56937" y1="114.74472" x2="33.72527" y2="125.20313" stroke="#228B22" stroke-width="0.04000"/>
      <line x1="35.50397" y1="114.53970" x2="33.65569" y2="125.02184" stroke="#228B22" stroke-width="0.04000"/>
      <line x1="35.43715" y1="114.34283" x2="33.58682" y2="124.83656" stroke="#228B22" stroke-width="0.04000"/>
      <line x1="35.37005" y1="114.14749" x2="33.52011" y2="124.63899" stroke="#228B22" stroke-width="0.04000"/>
      <line x1="35.30280" y1="113.95300" x2="33.45546" y2="124.42977" stroke="#228B22" stroke-width="0.04000"/>
      <line x1="35.23501" y1="113.76158" x2="33.39141" y2="124.21713" stroke="#228B22" stroke-width="0.04000"/>
      <line x1="35.16722" y1="113.57017" x2="33.32737" y2="124.00449" stroke="#228B22" stroke-width="0.04000"/>
      <line x1="35.09954" y1="113.37810" x2="33.26237" y2="123.79718" stroke="#228B22" stroke-width="0.04000"/>
      <line x1="35.03077" y1="113.19225" x2="33.19644" y2="123.59527" stroke="#228B22" stroke-width="0.04000"/>
      <line x1="34.96107" y1="113.01168" x2="33.13335" y2="123.37713" stroke="#228B22" stroke-width="0.04000"/>
      <line x1="34.88929" y1="112.84286" x2="33.07035" y2="123.15858" stroke="#228B22" stroke-width="0.04000"/>
      <line x1="34.81752" y1="112.67403" x2="33.00748" y2="122.93926" stroke="#228B22" stroke-width="0.04000"/>
      <line x1="34.74574" y1="112.50520" x2="32.94487" y2="122.71849" stroke="#228B22" stroke-width="0.04000"/>
      <line x1="34.67327" y1="112.34032" x2="32.88225" y2="122.49772" stroke="#228B22" stroke-width="0.04000"/>
      <line x1="34.59933" y1="112.18381" x2="32.82486" y2="122.24731" stroke="#228B22" stroke-width="0.04000"/>
      <line x1="34.52539" y1="112.02729" x2="32.76692" y2="122.00003" stroke="#228B22" stroke-width="0.04000"/>
      <line x1="34.45145" y1="111.87072" x2="32.70534" y2="121.77341" stroke="#228B22" stroke-width="0.04000"/>
      <line x1="34.37752" y1="111.71413" x2="32.64375" y2="121.54681" stroke="#228B22" stroke-width="0.04000"/>
      <line x1="34.29869" y1="111.58530" x2="32.58473" y2="121.30565" stroke="#228B22" stroke-width="0.04000"/>
      <line x1="34.21674" y1="111.47421" x2="32.52854" y2="121.04845" stroke="#228B22" stroke-width="0.04000"/>
      <line x1="34.13478" y1="111.36313" x2="32.47261" y2="120.78979" stroke="#228B22" stroke-width="0.04000"/>
      <line x1="34.05283" y1="111.25204" x2="32.41667" y2="120.53113" stroke="#228B22" stroke-width="0.04000"/>
      <line x1="33.97087" y1="111.14095" x2="32.36074" y2="120.27247" stroke="#228B22" stroke-width="0.04000"/>
      <line x1="33.88892" y1="111.02986" x2="32.30805" y2="119.99541" stroke="#228B22" stroke-width="0.04000"/>
      <line x1="33.80980" y1="110.90272" x2="32.25585" y2="119.71558" stroke="#228B22" stroke-width="0.04000"/>
      <line x1="33.73145" y1="110.77116" x2="32.20362" y2="119.43591" stroke="#228B22" stroke-width="0.04000"/>
      <line x1="33.64882" y1="110.66387" x2="32.14849" y2="119.17268" stroke="#228B22" stroke-width="0.04000"/>
      <line x1="33.55483" y1="110.62104" x2="32.08426" y2="118.96108" stroke="#228B22" stroke-width="0.04000"/>
      <line x1="33.46084" y1="110.57822" x2="32.01854" y2="118.75793" stroke="#228B22" stroke-width="0.04000"/>
      <line x1="33.36685" y1="110.53539" x2="31.95453" y2="118.54506" stroke="#228B22" stroke-width="0.04000"/>
      <line x1="33.27286" y1="110.49256" x2="31.89052" y2="118.33218" stroke="#228B22" stroke-width="0.04000"/>
      <line x1="33.17887" y1="110.44973" x2="31.82652" y2="118.11931" stroke="#228B22" stroke-width="0.04000"/>
      <line x1="33.08488" y1="110.40690" x2="31.75261" y2="117.96260" stroke="#228B22" stroke-width="0.04000"/>
      <line x1="32.99089" y1="110.36407" x2="31.67606" y2="117.82081" stroke="#228B22" stroke-width="0.04000"/>
      <line x1="32.89690" y1="110.32124" x2="31.59972" y2="117.67789" stroke="#228B22" stroke-width="0.04000"/>
      <line x1="32.79784" y1="110.30717" x2="31.52788" y2="117.50945" stroke="#228B22" stroke-width="0.04000"/>
      <line x1="32.68514" y1="110.37041" x2="31.45604" y2="117.34101" stroke="#228B22" stroke-width="0.04000"/>
      <line x1="32.57245" y1="110.43363" x2="31.38053" y2="117.19334" stroke="#228B22" stroke-width="0.04000"/>
      <line x1="32.45976" y1="110.49686" x2="31.30325" y2="117.05575" stroke="#228B22" stroke-width="0.04000"/>
      <line x1="32.34707" y1="110.56009" x2="31.22597" y2="116.91816" stroke="#228B22" stroke-width="0.04000"/>
      <line x1="32.23438" y1="110.62331" x2="31.14869" y2="116.78057" stroke="#228B22" stroke-width="0.04000"/>
      <line x1="32.12169" y1="110.68654" x2="31.07140" y2="116.64298" stroke="#228B22" stroke-width="0.04000"/>
      <line x1="32.00900" y1="110.74977" x2="30.99316" y2="116.51086" stroke="#228B22" stroke-width="0.04000"/>
      <line x1="31.87223" y1="110.94950" x2="30.93015" y2="116.29234" stroke="#228B22" stroke-width="0.04000"/>
      <line x1="31.73689" y1="111.14123" x2="30.86070" y2="116.11031" stroke="#228B22" stroke-width="0.04000"/>
      <line x1="31.60169" y1="111.33210" x2="30.79126" y2="115.92828" stroke="#228B22" stroke-width="0.04000"/>
      <line x1="31.46649" y1="111.52297" x2="30.72181" y2="115.74625" stroke="#228B22" stroke-width="0.04000"/>
      <line x1="31.33129" y1="111.71385" x2="30.66925" y2="115.46845" stroke="#228B22" stroke-width="0.04000"/>
      <line x1="31.10495" y1="112.42158" x2="30.64238" y2="115.04495" stroke="#228B22" stroke-width="0.04000"/>
      <line x1="30.60041" y1="114.70713" x2="30.60039" y2="114.70724" stroke="#228B22" stroke-width="0.04000"/>
      <line x1="30.87857" y1="113.12958" x2="30.78721" y2="113.64773" stroke="#228B22" stroke-width="0.04000"/>
    </g>
    <g class="thermal-hatch" data-segment="8" data-name="CoreNormalHatch">
      <line x1="47.80931" y1="108.29694" x2="47.14470" y2="112.06617" stroke="#228B22" stroke-width="0.04000"/>
      <line x1="47.90459" y1="108.33249" x2="47.24635" y2="112.06552" stroke="#228B22" stroke-width="0.04000"/>
      <line x1="47.99986" y1="108.36805" x2="47.34801" y2="112.06488" stroke="#228B22" stroke-width="0.04000"/>
      <line x1="47.71404" y1="108.26138" x2="47.04347" y2="112.06439" stroke="#228B22" stroke-width="0.04000"/>
      <line x1="48.09513" y1="108.40360" x2="47.44967" y2="112.06424" stroke="#228B22" stroke-width="0.04000"/>
      <line x1="48.19045" y1="108.43888" x2="47.55132" y2="112.06359" stroke="#228B22" stroke-width="0.04000"/>
      <line x1="48.28725" y1="108.46580" x2="47.65297" y2="112.06295" stroke="#228B22" stroke-width="0.04000"/>
      <line x1="48.67444" y1="108.57344" x2="48.05915" y2="112.06293" stroke="#228B22" stroke-width="0.04000"/>
      <line x1="48.38405" y1="108.49271" x2="47.75463" y2="112.06230" stroke="#228B22" stroke-width="0.04000"/>
      <line x1="48.48085" y1="108.51962" x2="47.85629" y2="112.06166" stroke="#228B22" stroke-width="0.04000"/>
      <line x1="48.57764" y1="108.54652" x2="47.95795" y2="112.06102" stroke="#228B22" stroke-width="0.04000"/>
      <line x1="48.77124" y1="108.60035" x2="48.16140" y2="112.05891" stroke="#228B22" stroke-width="0.04000"/>
      <line x1="47.61877" y1="108.22583" x2="46.94299" y2="112.05833" stroke="#228B22" stroke-width="0.04000"/>
      <line x1="47.52230" y1="108.19703" x2="46.84252" y2="112.05226" stroke="#228B22" stroke-width="0.04000"/>
      <line x1="48.86792" y1="108.62793" x2="48.26451" y2="112.04999" stroke="#228B22" stroke-width="0.04000"/>
      <line x1="47.42555" y1="108.16983" x2="46.74205" y2="112.04620" stroke="#228B22" stroke-width="0.04000"/>
      <line x1="48.96373" y1="108.66041" x2="48.36763" y2="112.04108" stroke="#228B22" stroke-width="0.04000"/>
      <line x1="47.32881" y1="108.14263" x2="46.64157" y2="112.04014" stroke="#228B22" stroke-width="0.04000"/>
      <line x1="47.23206" y1="108.11543" x2="46.54108" y2="112.03419" stroke="#228B22" stroke-width="0.04000"/>
      <line x1="49.05955" y1="108.69289" x2="48.47075" y2="112.03216" stroke="#228B22" stroke-width="0.04000"/>
      <line x1="47.13589" y1="108.08494" x2="46.44057" y2="112.02833" stroke="#228B22" stroke-width="0.04000"/>
      <line x1="49.14448" y1="108.78712" x2="48.57386" y2="112.02324" stroke="#228B22" stroke-width="0.04000"/>
      <line x1="47.03983" y1="108.05392" x2="46.34006" y2="112.02246" stroke="#228B22" stroke-width="0.04000"/>
      <line x1="46.94375" y1="108.02290" x2="46.23955" y2="112.01660" stroke="#228B22" stroke-width="0.04000"/>
      <line x1="49.22540" y1="108.90408" x2="48.67698" y2="112.01432" stroke="#228B22" stroke-width="0.04000"/>
      <line x1="46.84768" y1="107.99187" x2="46.13904" y2="112.01073" stroke="#228B22" stroke-width="0.04000"/>
      <line x1="49.30632" y1="109.02105" x2="48.78009" y2="112.00541" stroke="#228B22" stroke-width="0.04000"/>
      <line x1="46.75161" y1="107.96085" x2="46.03871" y2="112.00389" stroke="#228B22" stroke-width="0.04000"/>
      <line x1="49.38723" y1="109.13801" x2="48.88321" y2="111.99649" stroke="#228B22" stroke-width="0.04000"/>
      <line x1="46.65553" y1="107.92982" x2="45.93850" y2="111.99632" stroke="#228B22" stroke-width="0.04000"/>
      <line x1="46.55946" y1="107.89880" x2="45.83829" y2="111.98875" stroke="#228B22" stroke-width="0.04000"/>
      <line x1="49.46815" y1="109.25497" x2="48.98632" y2="111.98757" stroke="#228B22" stroke-width="0.04000"/>
      <line x1="46.47384" y1="107.80848" x2="45.73808" y2="111.98119" stroke="#228B22" stroke-width="0.04000"/>
      <line x1="49.55622" y1="109.33139" x2="49.08944" y2="111.97866" stroke="#228B22" stroke-width="0.04000"/>
      <line x1="46.38850" y1="107.71663" x2="45.63787" y2="111.97362" stroke="#228B22" stroke-width="0.04000"/>
      <line x1="49.64894" y1="109.38143" x2="49.19255" y2="111.96974" stroke="#228B22" stroke-width="0.04000"/>
      <line x1="46.30009" y1="107.64211" x2="45.53767" y2="111.96605" stroke="#228B22" stroke-width="0.04000"/>
      <line x1="46.20341" y1="107.61452" x2="45.43763" y2="111.95750" stroke="#228B22" stroke-width="0.04000"/>
      <line x1="49.74166" y1="109.43147" x2="49.29645" y2="111.95638" stroke="#228B22" stroke-width="0.04000"/>
      <line x1="46.10674" y1="107.58693" x2="45.33905" y2="111.94070" stroke="#228B22" stroke-width="0.04000"/>
      <line x1="49.83438" y1="109.48150" x2="49.40210" y2="111.93311" stroke="#228B22" stroke-width="0.04000"/>
      <line x1="46.01006" y1="107.55933" x2="45.24047" y2="111.92390" stroke="#228B22" stroke-width="0.04000"/>
      <line x1="49.92710" y1="109.53154" x2="49.50824" y2="111.90704" stroke="#228B22" stroke-width="0.04000"/>
      <line x1="45.91338" y1="107.53175" x2="45.14244" y2="111.90395" stroke="#228B22" stroke-width="0.04000"/>
      <line x1="45.81670" y1="107.50416" x2="45.04469" y2="111.88250" stroke="#228B22" stroke-width="0.04000"/>
      <line x1="50.01982" y1="109.58157" x2="49.61437" y2="111.88097" stroke="#228B22" stroke-width="0.04000"/>
      <line x1="45.72002" y1="107.47657" x2="44.94692" y2="111.86105" stroke="#228B22" stroke-width="0.04000"/>
      <line x1="50.11254" y1="109.63161" x2="49.72051" y2="111.85491" stroke="#228B22" stroke-width="0.04000"/>
      <line x1="45.62270" y1="107.45266" x2="44.84933" y2="111.83865" stroke="#228B22" stroke-width="0.04000"/>
      <line x1="50.20526" y1="109.68165" x2="49.82665" y2="111.82884" stroke="#228B22" stroke-width="0.04000"/>
      <line x1="45.52479" y1="107.43204" x2="44.75177" y2="111.81609" stroke="#228B22" stroke-width="0.04000"/>
      <line x1="50.29798" y1="109.73168" x2="49.93279" y2="111.80277" stroke="#228B22" stroke-width="0.04000"/>
      <line x1="45.42693" y1="107.41121" x2="44.65420" y2="111.79354" stroke="#228B22" stroke-width="0.04000"/>
      <line x1="50.37623" y1="109.86376" x2="50.03893" y2="111.77670" stroke="#228B22" stroke-width="0.04000"/>
      <line x1="45.32954" y1="107.38759" x2="44.55664" y2="111.77098" stroke="#228B22" stroke-width="0.04000"/>
      <line x1="50.45205" y1="110.00968" x2="50.14507" y2="111.75063" stroke="#228B22" stroke-width="0.04000"/>
      <line x1="45.23217" y1="107.36398" x2="44.45907" y2="111.74842" stroke="#228B22" stroke-width="0.04000"/>
      <line x1="45.13479" y1="107.34035" x2="44.36150" y2="111.72587" stroke="#228B22" stroke-width="0.04000"/>
      <line x1="45.03741" y1="107.31674" x2="44.26435" y2="111.70096" stroke="#228B22" stroke-width="0.04000"/>
      <line x1="44.94003" y1="107.29312" x2="44.16739" y2="111.67497" stroke="#228B22" stroke-width="0.04000"/>
      <line x1="50.52484" y1="110.17274" x2="50.26430" y2="111.65033" stroke="#228B22" stroke-width="0.04000"/>
      <line x1="44.84332" y1="107.26572" x2="44.07043" y2="111.64899" stroke="#228B22" stroke-width="0.04000"/>
      <line x1="44.74731" y1="107.23436" x2="43.97347" y2="111.62299" stroke="#228B22" stroke-width="0.04000"/>
      <line x1="44.65129" y1="107.20300" x2="43.87725" y2="111.59282" stroke="#228B22" stroke-width="0.04000"/>
      <line x1="44.55528" y1="107.17164" x2="43.78265" y2="111.55344" stroke="#228B22" stroke-width="0.04000"/>
      <line x1="50.59291" y1="110.36256" x2="50.38387" y2="111.54812" stroke="#228B22" stroke-width="0.04000"/>
      <line x1="44.45927" y1="107.14027" x2="43.68806" y2="111.51405" stroke="#228B22" stroke-width="0.04000"/>
      <line x1="44.36515" y1="107.09816" x2="43.59346" y2="111.47466" stroke="#228B22" stroke-width="0.04000"/>
      <line x1="50.66098" y1="110.55236" x2="50.50180" y2="111.45513" stroke="#228B22" stroke-width="0.04000"/>
      <line x1="44.27246" y1="107.04800" x2="43.49886" y2="111.43526" stroke="#228B22" stroke-width="0.04000"/>
      <line x1="44.17879" y1="107.00330" x2="43.40473" y2="111.39324" stroke="#228B22" stroke-width="0.04000"/>
      <line x1="50.72936" y1="110.74043" x2="50.61968" y2="111.36248" stroke="#228B22" stroke-width="0.04000"/>
      <line x1="44.08315" y1="106.96985" x2="43.31125" y2="111.34749" stroke="#228B22" stroke-width="0.04000"/>
      <line x1="43.98750" y1="106.93640" x2="43.21778" y2="111.30173" stroke="#228B22" stroke-width="0.04000"/>
      <line x1="50.80579" y1="110.88287" x2="50.73756" y2="111.26982" stroke="#228B22" stroke-width="0.04000"/>
      <line x1="43.89186" y1="106.90295" x2="43.12430" y2="111.25598" stroke="#228B22" stroke-width="0.04000"/>
      <line x1="43.79622" y1="106.86950" x2="43.03083" y2="111.21024" stroke="#228B22" stroke-width="0.04000"/>
      <line x1="50.88222" y1="111.02529" x2="50.85544" y2="111.17717" stroke="#228B22" stroke-width="0.04000"/>
      <line x1="43.70057" y1="106.83605" x2="42.93700" y2="111.16649" stroke="#228B22" stroke-width="0.04000"/>
      <line x1="43.60493" y1="106.80260" x2="42.84317" y2="111.12273" stroke="#228B22" stroke-width="0.04000"/>
      <line x1="43.50937" y1="106.76868" x2="42.74935" y2="111.07896" stroke="#228B22" stroke-width="0.04000"/>
      <line x1="43.41727" y1="106.71509" x2="42.65552" y2="111.03521" stroke="#228B22" stroke-width="0.04000"/>
      <line x1="43.32518" y1="106.66151" x2="42.56171" y2="110.99138" stroke="#228B22" stroke-width="0.04000"/>
      <line x1="43.23309" y1="106.60792" x2="42.46818" y2="110.94592" stroke="#228B22" stroke-width="0.04000"/>
      <line x1="43.14099" y1="106.55434" x2="42.37465" y2="110.90046" stroke="#228B22" stroke-width="0.04000"/>
      <line x1="43.04890" y1="106.50075" x2="42.28112" y2="110.85500" stroke="#228B22" stroke-width="0.04000"/>
      <line x1="42.95680" y1="106.44717" x2="42.18760" y2="110.80955" stroke="#228B22" stroke-width="0.04000"/>
      <line x1="42.86471" y1="106.39358" x2="42.09525" y2="110.75742" stroke="#228B22" stroke-width="0.04000"/>
      <line x1="42.77261" y1="106.34000" x2="42.00393" y2="110.69945" stroke="#228B22" stroke-width="0.04000"/>
      <line x1="42.67981" y1="106.29041" x2="41.91260" y2="110.64147" stroke="#228B22" stroke-width="0.04000"/>
      <line x1="42.59070" y1="106.21990" x2="41.82129" y2="110.58350" stroke="#228B22" stroke-width="0.04000"/>
      <line x1="42.50373" y1="106.13726" x2="41.72942" y2="110.52863" stroke="#228B22" stroke-width="0.04000"/>
      <line x1="42.41676" y1="106.05463" x2="41.63734" y2="110.47491" stroke="#228B22" stroke-width="0.04000"/>
      <line x1="42.32979" y1="105.97198" x2="41.54527" y2="110.42120" stroke="#228B22" stroke-width="0.04000"/>
      <line x1="42.24282" y1="105.88934" x2="41.45321" y2="110.36748" stroke="#228B22" stroke-width="0.04000"/>
      <line x1="42.15585" y1="105.80671" x2="41.36113" y2="110.31377" stroke="#228B22" stroke-width="0.04000"/>
      <line x1="42.06887" y1="105.72407" x2="41.26906" y2="110.26005" stroke="#228B22" stroke-width="0.04000"/>
      <line x1="41.98050" y1="105.64940" x2="41.17699" y2="110.20633" stroke="#228B22" stroke-width="0.04000"/>
      <line x1="41.88829" y1="105.59649" x2="41.08670" y2="110.14252" stroke="#228B22" stroke-width="0.04000"/>
      <line x1="41.79607" y1="105.54358" x2="40.99693" y2="110.07577" stroke="#228B22" stroke-width="0.04000"/>
      <line x1="41.70386" y1="105.49067" x2="40.90726" y2="110.00840" stroke="#228B22" stroke-width="0.04000"/>
      <line x1="41.61165" y1="105.43776" x2="40.81787" y2="109.93948" stroke="#228B22" stroke-width="0.04000"/>
      <line x1="41.52087" y1="105.37672" x2="40.72848" y2="109.87056" stroke="#228B22" stroke-width="0.04000"/>
      <line x1="41.43027" y1="105.31464" x2="40.63909" y2="109.80164" stroke="#228B22" stroke-width="0.04000"/>
      <line x1="41.33967" y1="105.25258" x2="40.54970" y2="109.73271" stroke="#228B22" stroke-width="0.04000"/>
      <line x1="41.24907" y1="105.19051" x2="40.46032" y2="109.66379" stroke="#228B22" stroke-width="0.04000"/>
      <line x1="41.15228" y1="105.16360" x2="40.37092" y2="109.59486" stroke="#228B22" stroke-width="0.04000"/>
      <line x1="41.05461" y1="105.14163" x2="40.28153" y2="109.52595" stroke="#228B22" stroke-width="0.04000"/>
      <line x1="40.95694" y1="105.11967" x2="40.19214" y2="109.45702" stroke="#228B22" stroke-width="0.04000"/>
      <line x1="40.85927" y1="105.09769" x2="40.10276" y2="109.38810" stroke="#228B22" stroke-width="0.04000"/>
      <line x1="40.76160" y1="105.07572" x2="40.01630" y2="109.30250" stroke="#228B22" stroke-width="0.04000"/>
      <line x1="40.66393" y1="105.05376" x2="39.92965" y2="109.21809" stroke="#228B22" stroke-width="0.04000"/>
      <line x1="40.56710" y1="105.02701" x2="39.84299" y2="109.13367" stroke="#228B22" stroke-width="0.04000"/>
      <line x1="40.47107" y1="104.99575" x2="39.75633" y2="109.04926" stroke="#228B22" stroke-width="0.04000"/>
      <line x1="40.37504" y1="104.96449" x2="39.66967" y2="108.96485" stroke="#228B22" stroke-width="0.04000"/>
      <line x1="40.27901" y1="104.93323" x2="39.58301" y2="108.88045" stroke="#228B22" stroke-width="0.04000"/>
      <line x1="40.17820" y1="104.92911" x2="39.49635" y2="108.79604" stroke="#228B22" stroke-width="0.04000"/>
      <line x1="40.07347" y1="104.94717" x2="39.40969" y2="108.71162" stroke="#228B22" stroke-width="0.04000"/>
      <line x1="39.96874" y1="104.96525" x2="39.32304" y2="108.62721" stroke="#228B22" stroke-width="0.04000"/>
      <line x1="39.86401" y1="104.98332" x2="39.23705" y2="108.53899" stroke="#228B22" stroke-width="0.04000"/>
      <line x1="39.75928" y1="105.00139" x2="39.15574" y2="108.42422" stroke="#228B22" stroke-width="0.04000"/>
      <line x1="39.65455" y1="105.01946" x2="39.07444" y2="108.30946" stroke="#228B22" stroke-width="0.04000"/>
      <line x1="39.54982" y1="105.03754" x2="38.99221" y2="108.19987" stroke="#228B22" stroke-width="0.04000"/>
      <line x1="39.44582" y1="105.05145" x2="38.90723" y2="108.10597" stroke="#228B22" stroke-width="0.04000"/>
      <line x1="39.34191" y1="105.06490" x2="38.82224" y2="108.01208" stroke="#228B22" stroke-width="0.04000"/>
      <line x1="39.23796" y1="105.07858" x2="38.73726" y2="107.91817" stroke="#228B22" stroke-width="0.04000"/>
      <line x1="39.12314" y1="105.15388" x2="38.65267" y2="107.82204" stroke="#228B22" stroke-width="0.04000"/>
      <line x1="39.00832" y1="105.22918" x2="38.57164" y2="107.70569" stroke="#228B22" stroke-width="0.04000"/>
      <line x1="38.89350" y1="105.30448" x2="38.49062" y2="107.58933" stroke="#228B22" stroke-width="0.04000"/>
      <line x1="38.77868" y1="105.37978" x2="38.40959" y2="107.47298" stroke="#228B22" stroke-width="0.04000"/>
      <line x1="38.66386" y1="105.45509" x2="38.34615" y2="107.25686" stroke="#228B22" stroke-width="0.04000"/>
      <line x1="38.54903" y1="105.53039" x2="38.28272" y2="107.04073" stroke="#228B22" stroke-width="0.04000"/>
      <line x1="38.43289" y1="105.61319" x2="38.21942" y2="106.82383" stroke="#228B22" stroke-width="0.04000"/>
      <line x1="38.23653" y1="106.15089" x2="38.15643" y2="106.60519" stroke="#228B22" stroke-width="0.04000"/>
    </g>
    <g class="thermal-hatch" data-segment="8" data-name="CoreNormalHatch">
      <line x1="33.47160" y1="110.90180" x2="33.62940" y2="111.16670" stroke="#228B22" stroke-width="0.04000"/>
      <line x1="33.62940" y1="111.16670" x2="34.09860" y2="111.80280" stroke="#228B22" stroke-width="0.04000"/>
      <line x1="34.09860" y1="111.80280" x2="34.23930" y2="112.10070" stroke="#228B22" stroke-width="0.04000"/>
      <line x1="34.23930" y1="112.10070" x2="34.43340" y2="112.51130" stroke="#228B22" stroke-width="0.04000"/>
      <line x1="34.43340" y1="112.51130" x2="34.71240" y2="113.16810" stroke="#228B22" stroke-width="0.04000"/>
      <line x1="34.71240" y1="113.16810" x2="34.83220" y2="113.49140" stroke="#228B22" stroke-width="0.04000"/>
      <line x1="34.83220" y1="113.49140" x2="34.83220" y2="113.49130" stroke="#228B22" stroke-width="0.04000"/>
      <line x1="34.83220" y1="113.49130" x2="34.87420" y2="113.61140" stroke="#228B22" stroke-width="0.04000"/>
      <line x1="34.87420" y1="113.61140" x2="35.04350" y2="114.08960" stroke="#228B22" stroke-width="0.04000"/>
      <line x1="35.04350" y1="114.08960" x2="35.04350" y2="114.08970" stroke="#228B22" stroke-width="0.04000"/>
      <line x1="35.04350" y1="114.08970" x2="35.21860" y2="114.59940" stroke="#228B22" stroke-width="0.04000"/>
      <line x1="35.21860" y1="114.59940" x2="35.21860" y2="114.59950" stroke="#228B22" stroke-width="0.04000"/>
      <line x1="35.21860" y1="114.59950" x2="35.30040" y2="114.85630" stroke="#228B22" stroke-width="0.04000"/>
      <line x1="35.30040" y1="114.85630" x2="35.41670" y2="115.50390" stroke="#228B22" stroke-width="0.04000"/>
      <line x1="35.41670" y1="115.50390" x2="35.55250" y2="116.20610" stroke="#228B22" stroke-width="0.04000"/>
      <line x1="35.55250" y1="116.20610" x2="35.60390" y2="116.52180" stroke="#228B22" stroke-width="0.04000"/>
      <line x1="35.60390" y1="116.52180" x2="35.60390" y2="116.52190" stroke="#228B22" stroke-width="0.04000"/>
      <line x1="35.60390" y1="116.52190" x2="35.64930" y2="116.81020" stroke="#228B22" stroke-width="0.04000"/>
      <line x1="35.64930" y1="116.81020" x2="35.65120" y2="117.54690" stroke="#228B22" stroke-width="0.04000"/>
      <line x1="35.65120" y1="117.54690" x2="35.72520" y2="118.44350" stroke="#228B22" stroke-width="0.04000"/>
      <line x1="35.72520" y1="118.44350" x2="35.72000" y2="118.52240" stroke="#228B22" stroke-width="0.04000"/>
      <line x1="35.72000" y1="118.52240" x2="35.70980" y2="118.64610" stroke="#228B22" stroke-width="0.04000"/>
      <line x1="35.70980" y1="118.64610" x2="35.62350" y2="119.63370" stroke="#228B22" stroke-width="0.04000"/>
      <line x1="35.62350" y1="119.63370" x2="35.55490" y2="120.27440" stroke="#228B22" stroke-width="0.04000"/>
      <line x1="35.55490" y1="120.27440" x2="35.51450" y2="120.64860" stroke="#228B22" stroke-width="0.04000"/>
      <line x1="35.51450" y1="120.64860" x2="35.49410" y2="120.95750" stroke="#228B22" stroke-width="0.04000"/>
      <line x1="35.49410" y1="120.95750" x2="35.41960" y2="121.62000" stroke="#228B22" stroke-width="0.04000"/>
      <line x1="35.41960" y1="121.62000" x2="35.39430" y2="122.26910" stroke="#228B22" stroke-width="0.04000"/>
      <line x1="35.39430" y1="122.26910" x2="35.34680" y2="122.67780" stroke="#228B22" stroke-width="0.04000"/>
      <line x1="35.34680" y1="122.67780" x2="35.32020" y2="123.22470" stroke="#228B22" stroke-width="0.04000"/>
      <line x1="35.32020" y1="123.22470" x2="35.28710" y2="123.70590" stroke="#228B22" stroke-width="0.04000"/>
      <line x1="35.28710" y1="123.70590" x2="35.28620" y2="123.99540" stroke="#228B22" stroke-width="0.04000"/>
      <line x1="35.28620" y1="123.99540" x2="35.19560" y2="124.74240" stroke="#228B22" stroke-width="0.04000"/>
      <line x1="35.19560" y1="124.74240" x2="35.13810" y2="125.40390" stroke="#228B22" stroke-width="0.04000"/>
      <line x1="35.13810" y1="125.40390" x2="35.00380" y2="125.71540" stroke="#228B22" stroke-width="0.04000"/>
      <line x1="35.00380" y1="125.71540" x2="34.77410" y2="126.04590" stroke="#228B22" stroke-width="0.04000"/>
      <line x1="34.77410" y1="126.04590" x2="34.42320" y2="125.86360" stroke="#228B22" stroke-width="0.04000"/>
      <line x1="34.42320" y1="125.86360" x2="34.27590" y2="125.82350" stroke="#228B22" stroke-width="0.04000"/>
      <line x1="34.27590" y1="125.82350" x2="34.11140" y2="125.39990" stroke="#228B22" stroke-width="0.04000"/>
      <line x1="34.11140" y1="125.39990" x2="34.11130" y2="125.39990" stroke="#228B22" stroke-width="0.04000"/>
      <line x1="34.11130" y1="125.39990" x2="33.87610" y2="124.78700" stroke="#228B22" stroke-width="0.04000"/>
      <line x1="33.87610" y1="124.78700" x2="33.78140" y2="124.50610" stroke="#228B22" stroke-width="0.04000"/>
      <line x1="33.78140" y1="124.50610" x2="33.57190" y2="123.81080" stroke="#228B22" stroke-width="0.04000"/>
      <line x1="33.57190" y1="123.81080" x2="33.47060" y2="123.50030" stroke="#228B22" stroke-width="0.04000"/>
      <line x1="33.47060" y1="123.50030" x2="33.30830" y2="122.93700" stroke="#228B22" stroke-width="0.04000"/>
      <line x1="33.30830" y1="122.93700" x2="33.16170" y2="122.42090" stroke="#228B22" stroke-width="0.04000"/>
      <line x1="33.16170" y1="122.42090" x2="33.05780" y2="121.96500" stroke="#228B22" stroke-width="0.04000"/>
      <line x1="33.05780" y1="121.96500" x2="32.89320" y2="121.35950" stroke="#228B22" stroke-width="0.04000"/>
      <line x1="32.89320" y1="121.35950" x2="32.81280" y2="120.99120" stroke="#228B22" stroke-width="0.04000"/>
      <line x1="32.81280" y1="120.99120" x2="32.81290" y2="120.99120" stroke="#228B22" stroke-width="0.04000"/>
      <line x1="32.81290" y1="120.99120" x2="32.63320" y2="120.16060" stroke="#228B22" stroke-width="0.04000"/>
      <line x1="32.63320" y1="120.16060" x2="32.58990" y2="119.92460" stroke="#228B22" stroke-width="0.04000"/>
      <line x1="32.58990" y1="119.92460" x2="32.46390" y2="119.25000" stroke="#228B22" stroke-width="0.04000"/>
      <line x1="32.46390" y1="119.25000" x2="32.39300" y2="118.94260" stroke="#228B22" stroke-width="0.04000"/>
      <line x1="32.39300" y1="118.94260" x2="32.34250" y2="118.82820" stroke="#228B22" stroke-width="0.04000"/>
      <line x1="32.34250" y1="118.82820" x2="32.08220" y2="117.96290" stroke="#228B22" stroke-width="0.04000"/>
      <line x1="32.08220" y1="117.96290" x2="31.86410" y2="117.55870" stroke="#228B22" stroke-width="0.04000"/>
      <line x1="31.86410" y1="117.55870" x2="31.69300" y2="117.15770" stroke="#228B22" stroke-width="0.04000"/>
      <line x1="31.69300" y1="117.15770" x2="31.30170" y2="116.46100" stroke="#228B22" stroke-width="0.04000"/>
      <line x1="31.30170" y1="116.46100" x2="31.25740" y2="116.38770" stroke="#228B22" stroke-width="0.04000"/>
      <line x1="31.25740" y1="116.38770" x2="31.25560" y2="116.33190" stroke="#228B22" stroke-width="0.04000"/>
      <line x1="31.25560" y1="116.33190" x2="30.96490" y2="115.57010" stroke="#228B22" stroke-width="0.04000"/>
      <line x1="30.96490" y1="115.57010" x2="30.94000" y2="115.08820" stroke="#228B22" stroke-width="0.04000"/>
      <line x1="30.94000" y1="115.08820" x2="30.89420" y2="114.72100" stroke="#228B22" stroke-width="0.04000"/>
      <line x1="30.89420" y1="114.72100" x2="31.05070" y2="114.01410" stroke="#228B22" stroke-width="0.04000"/>
      <line x1="31.05070" y1="114.01410" x2="31.06840" y2="113.72670" stroke="#228B22" stroke-width="0.04000"/>
      <line x1="31.06840" y1="113.72670" x2="31.13550" y2="113.27310" stroke="#228B22" stroke-width="0.04000"/>
      <line x1="31.13550" y1="113.27310" x2="31.28160" y2="112.85290" stroke="#228B22" stroke-width="0.04000"/>
      <line x1="31.28160" y1="112.85290" x2="31.56090" y2="111.89080" stroke="#228B22" stroke-width="0.04000"/>
      <line x1="31.56090" y1="111.89080" x2="32.11690" y2="111.10640" stroke="#228B22" stroke-width="0.04000"/>
      <line x1="32.11690" y1="111.10640" x2="32.18420" y2="110.98360" stroke="#228B22" stroke-width="0.04000"/>
      <line x1="32.18420" y1="110.98360" x2="32.84190" y2="110.61480" stroke="#228B22" stroke-width="0.04000"/>
      <line x1="32.84190" y1="110.61480" x2="33.47160" y2="110.90180" stroke="#228B22" stroke-width="0.04000"/>
      <line x1="40.53960" y1="105.32300" x2="41.11990" y2="105.45350" stroke="#228B22" stroke-width="0.04000"/>
      <line x1="41.11990" y1="105.45350" x2="41.44700" y2="105.67770" stroke="#228B22" stroke-width="0.04000"/>
      <line x1="41.44700" y1="105.67770" x2="41.83060" y2="105.89760" stroke="#228B22" stroke-width="0.04000"/>
      <line x1="41.83060" y1="105.89760" x2="42.43520" y2="106.47210" stroke="#228B22" stroke-width="0.04000"/>
      <line x1="42.43520" y1="106.47210" x2="42.53360" y2="106.54240" stroke="#228B22" stroke-width="0.04000"/>
      <line x1="42.53360" y1="106.54240" x2="42.60920" y2="106.58020" stroke="#228B22" stroke-width="0.04000"/>
      <line x1="42.60920" y1="106.58020" x2="43.38970" y2="107.03440" stroke="#228B22" stroke-width="0.04000"/>
      <line x1="43.38970" y1="107.03440" x2="44.09300" y2="107.28050" stroke="#228B22" stroke-width="0.04000"/>
      <line x1="44.09300" y1="107.28050" x2="44.30310" y2="107.39430" stroke="#228B22" stroke-width="0.04000"/>
      <line x1="44.30310" y1="107.39430" x2="44.81100" y2="107.56020" stroke="#228B22" stroke-width="0.04000"/>
      <line x1="44.81100" y1="107.56020" x2="45.37020" y2="107.69580" stroke="#228B22" stroke-width="0.04000"/>
      <line x1="45.37020" y1="107.69580" x2="45.60600" y2="107.74560" stroke="#228B22" stroke-width="0.04000"/>
      <line x1="45.60600" y1="107.74560" x2="46.16870" y2="107.90600" stroke="#228B22" stroke-width="0.04000"/>
      <line x1="46.16870" y1="107.90600" x2="46.39610" y2="108.15080" stroke="#228B22" stroke-width="0.04000"/>
      <line x1="46.39610" y1="108.15080" x2="47.13510" y2="108.38930" stroke="#228B22" stroke-width="0.04000"/>
      <line x1="47.13510" y1="108.38930" x2="47.51040" y2="108.49490" stroke="#228B22" stroke-width="0.04000"/>
      <line x1="47.51040" y1="108.49490" x2="48.09780" y2="108.71410" stroke="#228B22" stroke-width="0.04000"/>
      <line x1="48.09780" y1="108.71410" x2="48.76890" y2="108.90060" stroke="#228B22" stroke-width="0.04000"/>
      <line x1="48.76890" y1="108.90060" x2="48.90140" y2="108.94540" stroke="#228B22" stroke-width="0.04000"/>
      <line x1="48.90140" y1="108.94540" x2="49.30120" y2="109.52330" stroke="#228B22" stroke-width="0.04000"/>
      <line x1="49.30120" y1="109.52330" x2="50.09520" y2="109.95170" stroke="#228B22" stroke-width="0.04000"/>
      <line x1="50.09520" y1="109.95170" x2="50.11510" y2="109.99010" stroke="#228B22" stroke-width="0.04000"/>
      <line x1="50.11510" y1="109.99010" x2="50.23180" y2="110.21480" stroke="#228B22" stroke-width="0.04000"/>
      <line x1="50.23180" y1="110.21480" x2="50.46090" y2="110.85330" stroke="#228B22" stroke-width="0.04000"/>
      <line x1="50.46090" y1="110.85330" x2="50.49990" y2="110.92600" stroke="#228B22" stroke-width="0.04000"/>
      <line x1="50.49990" y1="110.92600" x2="49.86640" y2="111.46760" stroke="#228B22" stroke-width="0.04000"/>
      <line x1="49.86640" y1="111.46760" x2="49.35170" y2="111.59400" stroke="#228B22" stroke-width="0.04000"/>
      <line x1="49.35170" y1="111.59400" x2="49.11470" y2="111.68530" stroke="#228B22" stroke-width="0.04000"/>
      <line x1="49.11470" y1="111.68530" x2="48.09390" y2="111.77340" stroke="#228B22" stroke-width="0.04000"/>
      <line x1="48.09390" y1="111.77340" x2="47.98200" y2="111.77090" stroke="#228B22" stroke-width="0.04000"/>
      <line x1="47.98200" y1="111.77090" x2="47.08620" y2="111.77630" stroke="#228B22" stroke-width="0.04000"/>
      <line x1="47.08620" y1="111.77630" x2="46.61760" y2="111.74830" stroke="#228B22" stroke-width="0.04000"/>
      <line x1="46.61760" y1="111.74830" x2="46.11730" y2="111.71890" stroke="#228B22" stroke-width="0.04000"/>
      <line x1="46.11730" y1="111.71890" x2="45.48440" y2="111.67110" stroke="#228B22" stroke-width="0.04000"/>
      <line x1="45.48440" y1="111.67110" x2="45.26450" y2="111.63370" stroke="#228B22" stroke-width="0.04000"/>
      <line x1="45.26450" y1="111.63370" x2="44.99210" y2="111.57400" stroke="#228B22" stroke-width="0.04000"/>
      <line x1="44.99210" y1="111.57400" x2="44.99220" y2="111.57400" stroke="#228B22" stroke-width="0.04000"/>
      <line x1="44.99220" y1="111.57400" x2="44.40200" y2="111.43750" stroke="#228B22" stroke-width="0.04000"/>
      <line x1="44.40200" y1="111.43750" x2="44.00000" y2="111.32980" stroke="#228B22" stroke-width="0.04000"/>
      <line x1="44.00000" y1="111.32980" x2="43.56340" y2="111.14790" stroke="#228B22" stroke-width="0.04000"/>
      <line x1="43.56340" y1="111.14790" x2="43.15650" y2="110.94900" stroke="#228B22" stroke-width="0.04000"/>
      <line x1="43.15650" y1="110.94900" x2="42.68830" y2="110.73040" stroke="#228B22" stroke-width="0.04000"/>
      <line x1="42.68830" y1="110.73040" x2="42.68820" y2="110.73040" stroke="#228B22" stroke-width="0.04000"/>
      <line x1="42.68820" y1="110.73040" x2="42.28600" y2="110.53500" stroke="#228B22" stroke-width="0.04000"/>
      <line x1="42.28600" y1="110.53500" x2="41.94720" y2="110.32000" stroke="#228B22" stroke-width="0.04000"/>
      <line x1="41.94720" y1="110.32000" x2="41.31660" y2="109.95200" stroke="#228B22" stroke-width="0.04000"/>
      <line x1="41.31660" y1="109.95200" x2="41.10690" y2="109.79610" stroke="#228B22" stroke-width="0.04000"/>
      <line x1="41.10690" y1="109.79610" x2="41.10700" y2="109.79610" stroke="#228B22" stroke-width="0.04000"/>
      <line x1="41.10700" y1="109.79610" x2="40.29100" y2="109.16690" stroke="#228B22" stroke-width="0.04000"/>
      <line x1="40.29100" y1="109.16690" x2="40.26880" y2="109.14530" stroke="#228B22" stroke-width="0.04000"/>
      <line x1="40.26880" y1="109.14530" x2="40.23420" y2="109.11010" stroke="#228B22" stroke-width="0.04000"/>
      <line x1="40.23420" y1="109.11010" x2="39.46850" y2="108.36410" stroke="#228B22" stroke-width="0.04000"/>
      <line x1="39.46850" y1="108.36410" x2="39.24010" y2="108.04140" stroke="#228B22" stroke-width="0.04000"/>
      <line x1="39.24010" y1="108.04140" x2="38.88840" y2="107.65320" stroke="#228B22" stroke-width="0.04000"/>
      <line x1="38.88840" y1="107.65320" x2="38.67460" y2="107.34620" stroke="#228B22" stroke-width="0.04000"/>
      <line x1="38.67460" y1="107.34620" x2="38.51760" y2="106.81080" stroke="#228B22" stroke-width="0.04000"/>
      <line x1="38.51760" y1="106.81080" x2="38.42390" y2="106.48610" stroke="#228B22" stroke-width="0.04000"/>
      <line x1="38.42390" y1="106.48610" x2="38.66990" y2="105.80470" stroke="#228B22" stroke-width="0.04000"/>
      <line x1="38.66990" y1="105.80470" x2="38.66980" y2="105.80460" stroke="#228B22" stroke-width="0.04000"/>
      <line x1="38.66980" y1="105.80460" x2="38.67220" y2="105.79810" stroke="#228B22" stroke-width="0.04000"/>
      <line x1="38.67220" y1="105.79810" x2="38.70270" y2="105.77620" stroke="#228B22" stroke-width="0.04000"/>
      <line x1="38.70270" y1="105.77620" x2="39.34130" y2="105.35730" stroke="#228B22" stroke-width="0.04000"/>
      <line x1="39.34130" y1="105.35730" x2="39.58210" y2="105.32620" stroke="#228B22" stroke-width="0.04000"/>
      <line x1="39.58210" y1="105.32620" x2="40.21410" y2="105.21700" stroke="#228B22" stroke-width="0.04000"/>
      <line x1="40.21410" y1="105.21700" x2="40.53960" y2="105.32300" stroke="#228B22" stroke-width="0.04000"/>
    </g>
    <g class="thermal-hatch" data-segment="7" data-name="CoreOverhangHatch">
      <line x1="50.56090" y1="111.03960" x2="50.20410" y2="111.32030" stroke="#FF8C00" stroke-width="0.04000"/>
      <line x1="50.20410" y1="111.32030" x2="50.01160" y2="111.48460" stroke="#FF8C00" stroke-width="0.04000"/>
      <line x1="50.01160" y1="111.48460" x2="49.27640" y2="111.66520" stroke="#FF8C00" stroke-width="0.04000"/>
      <line x1="49.27640" y1="111.66520" x2="49.19820" y2="111.67920" stroke="#FF8C00" stroke-width="0.04000"/>
      <line x1="49.19820" y1="111.67920" x2="49.18970" y2="111.67890" stroke="#FF8C00" stroke-width="0.04000"/>
      <line x1="49.18970" y1="111.67890" x2="49.11470" y2="111.68530" stroke="#FF8C00" stroke-width="0.04000"/>
      <line x1="49.11470" y1="111.68530" x2="49.35170" y2="111.59400" stroke="#FF8C00" stroke-width="0.04000"/>
      <line x1="49.35170" y1="111.59400" x2="49.86640" y2="111.46760" stroke="#FF8C00" stroke-width="0.04000"/>
      <line x1="49.86640" y1="111.46760" x2="50.49990" y2="110.92600" stroke="#FF8C00" stroke-width="0.04000"/>
      <line x1="50.49990" y1="110.92600" x2="50.56090" y2="111.03960" stroke="#FF8C00" stroke-width="0.04000"/>
    </g>
    <g class="thermal-contour" data-segment="1" data-name="CoreContour_Volume">
    <path d="M 32.8591 110.304 L 33.6745 110.676 L 33.8713 111.006 L 34.3487 111.653 L 34.5015 111.977 L 34.697 112.39 L 34.9833 113.064 L 35.1042 113.391 L 35.1477 113.515 L 35.3172 113.994 L 35.4936 114.507 L 35.5824 114.785 L 35.7018 115.451 L 35.8373 116.151 L 35.8903 116.476 L 35.9393 116.787 L 35.9412 117.535 L 36.0163 118.441 L 36.0091 118.546 L 35.9989 118.67 L 35.9118 119.665 L 35.8432 120.306 L 35.8034 120.674 L 35.7832 120.984 L 35.709 121.642 L 35.6837 122.292 L 35.6359 122.702 L 35.6096 123.245 L 35.5771 123.716 L 35.5762 124.013 L 35.4841 124.772 L 35.4231 125.475 L 35.2583 125.858 L 34.8669 126.421 L 34.3171 126.135 L 34.0587 126.065 L 33.8411 125.505 L 33.6032 124.885 L 33.505 124.594 L 33.2952 123.898 L 33.1948 123.59 L 33.0296 123.017 L 32.8808 122.493 L 32.7765 122.035 L 32.6115 121.428 L 32.5295 121.053 L 32.3484 120.216 L 32.3048 119.977 L 32.18 119.309 L 32.1166 119.034 L 32.0697 118.928 L 31.8131 118.075 L 31.6028 117.685 L 31.4325 117.286 L 31.0511 116.607 L 30.9705 116.473 L 30.9675 116.39 L 30.6776 115.63 L 30.6509 115.114 L 30.6004 114.707 L 30.7627 113.974 L 30.7799 113.697 L 30.853 113.203 L 31.0052 112.765 L 31.2862 111.798 L 31.2946 111.772 L 31.2968 111.763 L 31.8707 110.952 L 31.97 110.772 L 32.8085 110.301 L 32.8316 110.286 L 32.8591 110.304" fill="none" stroke="#000000" stroke-width="0.05000" fill-rule="evenodd" fill-opacity="1.000"/>
    </g>
    <g class="thermal-contour" data-segment="1" data-name="CoreContour_Volume">
    <path d="M 40.6165 105.043 L 41.2379 105.183 L 41.6013 105.432 L 42.0052 105.664 L 42.6202 106.248 L 42.6838 106.293 L 42.7474 106.325 L 43.5115 106.77 L 44.2101 107.014 L 44.4182 107.127 L 44.8902 107.281 L 45.4343 107.413 L 45.6743 107.464 L 46.3262 107.65 L 46.5571 107.898 L 47.2189 108.112 L 47.6005 108.219 L 48.1874 108.438 L 48.8564 108.624 L 49.0853 108.702 L 49.5001 109.301 L 50.3121 109.739 L 50.3726 109.857 L 50.4982 110.099 L 50.7266 110.735 L 50.9316 111.117 L 50.388 111.545 L 50.1477 111.75 L 49.3369 111.949 L 49.2175 111.971 L 49.1956 111.969 L 48.102 112.064 L 47.9794 112.061 L 47.0798 112.067 L 46.6005 112.038 L 46.0965 112.008 L 45.4481 111.959 L 45.2086 111.918 L 44.9327 111.858 L 44.3307 111.719 L 43.9068 111.605 L 43.4435 111.412 L 43.0315 111.211 L 42.5656 110.993 L 42.1439 110.788 L 41.7964 110.568 L 41.1563 110.194 L 40.9326 110.028 L 40.1013 109.387 L 40.0664 109.353 L 40.0295 109.315 L 39.2472 108.553 L 39.0134 108.223 L 38.6607 107.834 L 38.4096 107.473 L 38.2392 106.892 L 38.1192 106.476 L 38.3848 105.74 L 38.4303 105.615 L 38.5379 105.538 L 39.2384 105.078 L 39.5389 105.039 L 40.2358 104.919 L 40.6165 105.043" fill="none" stroke="#000000" stroke-width="0.05000" fill-rule="evenodd" fill-opacity="1.000"/>
    </g>
    <g class="thermal-contour" data-segment="1" data-name="CoreContour_Volume">
    <path d="M 33.5346 110.832 L 33.7045 111.117 L 34.1764 111.757 L 34.3207 112.062 L 34.5148 112.473 L 34.7965 113.136 L 34.9166 113.46 L 34.9591 113.581 L 35.1286 114.061 L 35.3044 114.572 L 35.388 114.835 L 35.5052 115.487 L 35.6409 116.189 L 35.6928 116.508 L 35.7393 116.803 L 35.7412 117.543 L 35.8155 118.443 L 35.8097 118.53 L 35.7995 118.654 L 35.713 119.643 L 35.6444 120.284 L 35.6042 120.656 L 35.5838 120.965 L 35.5094 121.627 L 35.4841 122.277 L 35.4365 122.685 L 35.41 123.231 L 35.3771 123.709 L 35.3762 124.001 L 35.2851 124.752 L 35.2266 125.426 L 35.0827 125.76 L 34.8029 126.162 L 34.3903 125.948 L 34.2085 125.898 L 34.0275 125.433 L 33.7909 124.816 L 33.6956 124.533 L 33.486 123.838 L 33.385 123.528 L 33.2218 122.962 L 33.0744 122.443 L 32.9705 121.987 L 32.8057 121.381 L 32.7249 121.01 L 32.5452 120.18 L 32.5014 119.941 L 32.3758 119.268 L 32.3072 118.971 L 32.2578 118.859 L 31.9987 117.998 L 31.783 117.598 L 31.6121 117.198 L 31.2239 116.506 L 31.1684 116.414 L 31.1662 116.35 L 30.8758 115.589 L 30.8503 115.096 L 30.803 114.717 L 30.9613 114.002 L 30.9789 113.717 L 31.0478 113.252 L 31.1958 112.826 L 31.4767 111.858 L 31.479 111.851 L 32.0405 111.059 L 32.1178 110.918 L 32.8377 110.514 L 33.5346 110.832" fill="none" stroke="#000000" stroke-width="0.05000" fill-rule="evenodd" fill-opacity="1.000"/>
    <path d="M 32.1842 110.984 L 32.1169 111.106 L 31.5609 111.891 L 31.2816 112.853 L 31.1355 113.273 L 31.0684 113.727 L 31.0507 114.014 L 30.8942 114.721 L 30.94 115.088 L 30.9649 115.57 L 31.2556 116.332 L 31.2574 116.388 L 31.3017 116.461 L 31.693 117.158 L 31.8641 117.559 L 32.0822 117.963 L 32.3425 118.828 L 32.393 118.943 L 32.4639 119.25 L 32.5899 119.925 L 32.6332 120.161 L 32.8129 120.991 L 32.8128 120.991 L 32.8932 121.359 L 33.0578 121.965 L 33.1617 122.421 L 33.3083 122.937 L 33.4706 123.5 L 33.5719 123.811 L 33.7814 124.506 L 33.8761 124.787 L 34.1113 125.4 L 34.1114 125.4 L 34.2759 125.824 L 34.4232 125.864 L 34.7741 126.046 L 35.0038 125.715 L 35.1381 125.404 L 35.1956 124.742 L 35.2862 123.995 L 35.2871 123.706 L 35.3202 123.225 L 35.3468 122.678 L 35.3943 122.269 L 35.4196 121.62 L 35.4941 120.957 L 35.5145 120.649 L 35.5549 120.274 L 35.6235 119.634 L 35.7098 118.646 L 35.72 118.522 L 35.7252 118.443 L 35.6512 117.547 L 35.6493 116.81 L 35.6039 116.522 L 35.6039 116.522 L 35.5525 116.206 L 35.4167 115.504 L 35.3004 114.856 L 35.2186 114.6 L 35.2186 114.599 L 35.0435 114.09 L 35.0435 114.09 L 34.8742 113.611 L 34.8322 113.491 L 34.8322 113.491 L 34.7124 113.168 L 34.4334 112.511 L 34.2393 112.101 L 34.0986 111.803 L 33.6294 111.167 L 33.4716 110.902 L 32.8419 110.615 L 32.1842 110.984" fill="none" stroke="#000000" stroke-width="0.05000" fill-rule="evenodd" fill-opacity="1.000"/>
    <path d="M 40.5635 105.236 L 41.1565 105.369 L 41.4949 105.601 L 41.8846 105.825 L 42.4926 106.402 L 42.5802 106.465 L 42.6521 106.501 L 43.4275 106.952 L 44.1293 107.198 L 44.3388 107.311 L 44.8356 107.474 L 45.3901 107.608 L 45.6265 107.658 L 46.2176 107.826 L 46.4461 108.072 L 47.1611 108.303 L 47.5387 108.409 L 48.1256 108.628 L 48.7962 108.815 L 48.9585 108.87 L 49.3629 109.454 L 50.1188 109.862 L 50.1788 109.979 L 50.3854 110.376 L 50.5434 110.817 L 50.5699 110.866 L 50.4999 110.926 L 50.4609 110.853 L 50.2318 110.215 L 50.1151 109.99 L 50.0952 109.952 L 49.3012 109.523 L 48.9014 108.945 L 48.7689 108.901 L 48.0978 108.714 L 47.5104 108.495 L 47.1351 108.389 L 46.3961 108.151 L 46.1687 107.906 L 45.606 107.746 L 45.3702 107.696 L 44.811 107.56 L 44.3031 107.394 L 44.093 107.281 L 43.3897 107.034 L 42.6092 106.58 L 42.5336 106.542 L 42.4352 106.472 L 41.8306 105.898 L 41.447 105.678 L 41.1199 105.453 L 40.5396 105.323 L 40.2141 105.217 L 39.5821 105.326 L 39.3413 105.357 L 38.7027 105.776 L 38.6722 105.798 L 38.6698 105.805 L 38.6699 105.805 L 38.4239 106.486 L 38.5176 106.811 L 38.6746 107.346 L 38.8884 107.653 L 39.2401 108.041 L 39.4685 108.364 L 40.2342 109.11 L 40.2688 109.145 L 40.291 109.167 L 41.107 109.796 L 41.1069 109.796 L 41.3166 109.952 L 41.9472 110.32 L 42.286 110.535 L 42.6882 110.73 L 42.6883 110.73 L 43.1565 110.949 L 43.5634 111.148 L 44 111.33 L 44.402 111.438 L 44.9922 111.574 L 44.9921 111.574 L 45.2645 111.634 L 45.4844 111.671 L 46.1173 111.719 L 46.6176 111.748 L 47.0862 111.776 L 47.982 111.771 L 48.0939 111.773 L 49.1147 111.685 L 48.9733 111.74 L 48.1826 111.824 L 48.0314 111.862 L 47.9812 111.861 L 47.0844 111.866 L 46.6123 111.838 L 46.1113 111.809 L 45.4733 111.76 L 45.247 111.722 L 44.9719 111.662 L 44.3817 111.525 L 43.9706 111.415 L 43.5261 111.23 L 43.1177 111.03 L 42.6502 110.812 L 42.2417 110.614 L 41.9004 110.397 L 41.2671 110.027 L 41.052 109.867 L 40.2321 109.235 L 40.206 109.21 L 40.1707 109.174 L 39.3998 108.423 L 39.1698 108.098 L 38.8177 107.709 L 38.5924 107.386 L 38.4312 106.836 L 38.3293 106.483 L 38.5852 105.774 L 38.5971 105.741 L 38.6533 105.701 L 39.3092 105.271 L 39.5687 105.237 L 40.2208 105.125 L 40.5635 105.236" fill="none" stroke="#000000" stroke-width="0.05000" fill-rule="evenodd" fill-opacity="1.000"/>
    </g>
    <g class="thermal-contour" data-segment="2" data-name="CoreContour_Overhang">
    <path d="M 50.6759 111.064 L 50.2612 111.39 L 50.0539 111.567 L 49.295 111.753 L 49.2045 111.77 L 49.1918 111.769 L 48.0968 111.864 L 48.0314 111.862 L 48.1826 111.824 L 48.9733 111.74 L 49.1147 111.685 L 49.1897 111.679 L 49.1982 111.679 L 49.2764 111.665 L 50.0116 111.485 L 50.2041 111.32 L 50.5609 111.04 L 50.4999 110.926 L 50.5699 110.866 L 50.6759 111.064" fill="none" stroke="#8B0000" stroke-width="0.05000" fill-rule="evenodd" fill-opacity="1.000"/>
    <path d="M 50.1625 109.886 L 50.195 109.949 L 50.3144 110.178 L 50.3854 110.376 L 50.1788 109.979 L 50.1188 109.862 L 50.1625 109.886" fill="none" stroke="#8B0000" stroke-width="0.05000" fill-rule="evenodd" fill-opacity="1.000"/>
    </g>
    <g class="thermal-contour" data-segment="3" data-name="HollowShell1Contour_Volume">
    <path d="M 32.1638 118.894 L 32.2119 119.003 L 32.2779 119.289 L 32.4031 119.959 L 32.4468 120.198 L 32.6272 121.032 L 32.7086 121.404 L 32.8735 122.011 L 32.9776 122.468 L 33.1257 122.99 L 33.2899 123.559 L 33.3906 123.868 L 33.6008 124.565 L 33.6966 124.849 L 33.9343 125.469 L 34.1145 125.933 L 34.0012 125.902 L 33.858 125.533 L 33.5597 124.756 L 33.5217 124.644 L 33.2914 123.879 L 33.2435 123.72 L 33.2338 123.684 L 33.0221 122.949 L 32.9251 122.607 L 32.7697 121.926 L 32.666 121.545 L 32.537 120.954 L 32.4145 120.388 L 32.3202 119.874 L 32.1784 119.114 L 32.1784 119.114 L 32.1444 118.935 L 32.0773 118.606 L 32.1638 118.894" fill="none" stroke="#0000CC" stroke-width="0.05000" fill-rule="evenodd" fill-opacity="1.000"/>
    <path d="M 32.8591 110.304 L 33.6745 110.676 L 33.8713 111.006 L 34.3487 111.653 L 34.5015 111.977 L 34.697 112.39 L 34.9833 113.064 L 35.1042 113.391 L 35.1477 113.515 L 35.3172 113.994 L 35.4936 114.507 L 35.5824 114.785 L 35.7018 115.451 L 35.8373 116.151 L 35.8903 116.476 L 35.9393 116.787 L 35.9412 117.535 L 36.0072 118.332 L 35.9933 118.534 L 35.9573 118.971 L 35.8991 119.636 L 35.7985 120.576 L 35.7904 120.651 L 35.7863 120.713 L 35.6849 121.614 L 35.6711 121.966 L 35.5853 122.701 L 35.5382 123.676 L 35.5343 123.732 L 35.5342 123.767 L 35.4053 124.828 L 35.3714 125.219 L 35.3382 125.296 L 35.3846 124.762 L 35.4762 124.007 L 35.4771 123.713 L 35.5098 123.238 L 35.5362 122.693 L 35.5839 122.284 L 35.6092 121.634 L 35.6835 120.974 L 35.7038 120.665 L 35.7438 120.295 L 35.8124 119.654 L 35.8992 118.662 L 35.9094 118.538 L 35.9159 118.442 L 35.8412 117.539 L 35.8393 116.795 L 35.7915 116.492 L 35.7915 116.492 L 35.7391 116.17 L 35.6035 115.469 L 35.4852 114.81 L 35.399 114.54 L 35.2229 114.027 L 35.0534 113.548 L 35.0104 113.425 L 34.8899 113.1 L 34.6059 112.432 L 34.4111 112.02 L 34.2625 111.705 L 33.7879 111.061 L 33.6045 110.754 L 32.8331 110.402 L 32.0439 110.845 L 31.9556 111.006 L 31.3885 111.806 L 31.3814 111.828 L 31.1005 112.795 L 30.9504 113.227 L 30.8794 113.707 L 30.862 113.988 L 30.7017 114.712 L 30.7506 115.105 L 30.7767 115.61 L 30.9676 116.11 L 30.8806 115.954 L 30.7217 115.537 L 30.7107 115.324 L 30.6218 114.61 L 30.7627 113.974 L 30.7799 113.697 L 30.853 113.203 L 31.0052 112.765 L 31.2862 111.798 L 31.2946 111.772 L 31.2968 111.762 L 31.8707 110.952 L 31.97 110.772 L 32.8085 110.301 L 32.8316 110.286 L 32.8591 110.304" fill="none" stroke="#0000CC" stroke-width="0.05000" fill-rule="evenodd" fill-opacity="1.000"/>
    <path d="M 40.6165 105.043 L 41.2379 105.183 L 41.6013 105.432 L 42.0052 105.664 L 42.6202 106.248 L 42.6838 106.293 L 42.7474 106.325 L 43.5115 106.77 L 44.2101 107.014 L 44.4182 107.127 L 44.8902 107.281 L 45.4343 107.413 L 45.6743 107.464 L 46.3262 107.649 L 46.5571 107.898 L 47.2189 108.112 L 47.6005 108.219 L 48.1874 108.438 L 48.8564 108.624 L 48.9972 108.672 L 49.1077 108.769 L 49.4855 109.315 L 49.9725 109.578 L 50.0377 109.705 L 49.4315 109.378 L 49.0219 108.786 L 48.8263 108.719 L 48.1565 108.533 L 47.5696 108.314 L 47.19 108.207 L 46.5016 107.985 L 46.2718 107.738 L 45.6504 107.561 L 45.4122 107.51 L 44.8629 107.377 L 44.3785 107.219 L 44.1697 107.106 L 43.4695 106.861 L 42.6994 106.413 L 42.632 106.379 L 42.5564 106.325 L 41.9449 105.744 L 41.5481 105.517 L 41.1972 105.276 L 40.59 105.14 L 40.2283 105.022 L 39.5538 105.138 L 39.2738 105.174 L 38.5956 105.619 L 38.5137 105.678 L 38.4788 105.774 L 38.4789 105.774 L 38.2242 106.479 L 38.3352 106.864 L 38.501 107.429 L 38.7392 107.771 L 39.0916 108.16 L 39.3235 108.488 L 40.1001 109.245 L 40.1362 109.281 L 40.1667 109.311 L 40.9923 109.948 L 41.2117 110.111 L 41.8484 110.482 L 42.1928 110.701 L 42.6079 110.903 L 43.0746 111.12 L 43.4851 111.321 L 43.9387 111.51 L 44.3562 111.622 L 44.9541 111.76 L 44.9542 111.76 L 45.1814 111.81 L 45.1073 111.802 L 44.3336 111.623 L 43.5803 111.421 L 43.4306 111.358 L 43.2974 111.293 L 42.5445 110.942 L 41.869 110.614 L 41.7964 110.568 L 41.1563 110.194 L 40.9326 110.028 L 40.1013 109.387 L 40.0664 109.353 L 40.0295 109.315 L 39.2472 108.553 L 39.0134 108.223 L 38.6607 107.834 L 38.4096 107.473 L 38.2392 106.893 L 38.1192 106.476 L 38.3848 105.74 L 38.4303 105.615 L 38.5379 105.538 L 39.2384 105.078 L 39.5389 105.039 L 40.2358 104.919 L 40.6165 105.043" fill="none" stroke="#0000CC" stroke-width="0.05000" fill-rule="evenodd" fill-opacity="1.000"/>
    </g>
    <g class="thermal-contour" data-segment="4" data-name="HollowShell1Contour_Overhang">
    <path d="M 36.0163 118.441 L 36.0091 118.546 L 35.9989 118.67 L 35.9118 119.664 L 35.8432 120.305 L 35.8034 120.674 L 35.7832 120.984 L 35.709 121.642 L 35.6837 122.292 L 35.6359 122.702 L 35.6096 123.245 L 35.5771 123.716 L 35.5762 124.013 L 35.4841 124.772 L 35.4231 125.476 L 35.2583 125.858 L 34.8669 126.421 L 34.3171 126.135 L 34.0587 126.065 L 33.8411 125.505 L 33.6032 124.885 L 33.5651 124.772 L 33.5597 124.756 L 33.858 125.533 L 34.0012 125.902 L 34.1145 125.933 L 34.1336 125.982 L 34.3537 126.042 L 34.8349 126.292 L 35.1705 125.809 L 35.3249 125.451 L 35.3382 125.296 L 35.3714 125.219 L 35.4053 124.828 L 35.5342 123.767 L 35.5343 123.732 L 35.5382 123.676 L 35.5853 122.701 L 35.6711 121.966 L 35.6849 121.614 L 35.7863 120.713 L 35.7904 120.651 L 35.7985 120.576 L 35.8991 119.636 L 35.9573 118.971 L 35.9933 118.534 L 36.0072 118.332 L 36.0163 118.441" fill="none" stroke="#000080" stroke-width="0.05000" fill-rule="evenodd" fill-opacity="1.000"/>
    <path d="M 30.7107 115.324 L 30.7217 115.537 L 30.8806 115.954 L 30.9676 116.11 L 31.0668 116.37 L 31.0694 116.444 L 31.1375 116.557 L 31.5223 117.242 L 31.6929 117.642 L 31.9059 118.036 L 32.0773 118.606 L 32.1444 118.935 L 32.1784 119.114 L 32.1784 119.114 L 32.3202 119.874 L 32.4145 120.388 L 32.537 120.954 L 32.666 121.545 L 32.7697 121.926 L 32.9251 122.607 L 33.0221 122.949 L 33.2338 123.684 L 33.2435 123.72 L 33.2914 123.879 L 33.5217 124.644 L 33.505 124.594 L 33.2952 123.898 L 33.1948 123.59 L 33.0296 123.017 L 32.8808 122.493 L 32.7765 122.035 L 32.6115 121.428 L 32.5295 121.053 L 32.3484 120.216 L 32.3048 119.977 L 32.18 119.309 L 32.1166 119.035 L 32.0697 118.928 L 31.8131 118.075 L 31.6028 117.685 L 31.4325 117.286 L 31.0511 116.607 L 30.9705 116.473 L 30.9675 116.39 L 30.6776 115.63 L 30.6509 115.114 L 30.6004 114.707 L 30.6218 114.61 L 30.7107 115.324" fill="none" stroke="#000080" stroke-width="0.05000" fill-rule="evenodd" fill-opacity="1.000"/>
    <path d="M 49.0853 108.702 L 49.5001 109.301 L 50.3121 109.739 L 50.3726 109.857 L 50.4982 110.099 L 50.7266 110.735 L 50.9316 111.117 L 50.388 111.545 L 50.1477 111.75 L 49.3369 111.949 L 49.2175 111.971 L 49.1956 111.969 L 48.102 112.064 L 47.9794 112.061 L 47.0798 112.067 L 46.6005 112.038 L 46.0965 112.008 L 45.4481 111.959 L 45.2086 111.919 L 44.9327 111.858 L 44.3307 111.719 L 43.9068 111.605 L 43.4435 111.412 L 43.0315 111.211 L 42.5656 110.993 L 42.1439 110.788 L 41.869 110.614 L 42.5445 110.942 L 43.2974 111.293 L 43.4306 111.358 L 43.5803 111.421 L 44.3336 111.623 L 45.1073 111.802 L 45.1814 111.81 L 45.228 111.82 L 45.4607 111.86 L 46.1039 111.909 L 46.6064 111.938 L 47.0821 111.966 L 47.9803 111.961 L 48.0994 111.964 L 49.1938 111.869 L 49.2111 111.87 L 49.3161 111.851 L 50.1007 111.659 L 50.3246 111.467 L 50.8037 111.09 L 50.635 110.776 L 50.4063 110.138 L 50.2838 109.903 L 50.2373 109.813 L 50.0377 109.705 L 49.9725 109.578 L 49.4855 109.315 L 49.1077 108.769 L 48.9972 108.672 L 49.0853 108.702" fill="none" stroke="#000080" stroke-width="0.05000" fill-rule="evenodd" fill-opacity="1.000"/>
    </g>
    <g class="thermal-contour" data-segment="5" data-name="HollowShell2Contour_Volume">
    <path d="M 33.6045 110.754 L 33.7879 111.061 L 34.2625 111.705 L 34.4111 112.02 L 34.6059 112.432 L 34.8899 113.1 L 35.0104 113.425 L 35.0534 113.548 L 35.2229 114.027 L 35.399 114.54 L 35.4852 114.81 L 35.6035 115.469 L 35.7391 116.17 L 35.7915 116.492 L 35.7915 116.492 L 35.8393 116.795 L 35.8412 117.539 L 35.9159 118.442 L 35.9094 118.538 L 35.8992 118.662 L 35.8124 119.654 L 35.7438 120.295 L 35.7038 120.665 L 35.6835 120.974 L 35.6092 121.634 L 35.5839 122.284 L 35.5362 122.693 L 35.5098 123.238 L 35.4771 123.713 L 35.4762 124.007 L 35.3846 124.762 L 35.3382 125.296 L 35.0892 125.874 L 34.8518 126.216 L 34.5182 126.043 L 34.1145 125.933 L 33.9343 125.469 L 33.6966 124.849 L 33.6008 124.565 L 33.3906 123.868 L 33.2899 123.559 L 33.1257 122.99 L 32.9776 122.468 L 32.8735 122.011 L 32.7086 121.404 L 32.6272 121.032 L 32.4468 120.198 L 32.4031 119.959 L 32.2779 119.289 L 32.2119 119.003 L 32.1638 118.894 L 32.0773 118.606 L 32.0385 118.416 L 31.9048 117.971 L 31.8296 117.832 L 31.545 117.165 L 31.206 116.561 L 31.0969 116.342 L 30.9676 116.11 L 30.7767 115.61 L 30.7506 115.105 L 30.7017 114.712 L 30.862 113.988 L 30.8794 113.707 L 30.9504 113.227 L 31.1005 112.795 L 31.3814 111.828 L 31.3885 111.806 L 31.9556 111.006 L 32.0439 110.845 L 32.8331 110.402 L 33.6045 110.754" fill="none" stroke="#B8860B" stroke-width="0.05000" fill-rule="evenodd" fill-opacity="1.000"/>
    <path d="M 32.1178 110.918 L 32.0405 111.059 L 31.479 111.851 L 31.4767 111.858 L 31.1958 112.826 L 31.0478 113.252 L 30.9789 113.717 L 30.9613 114.002 L 30.803 114.717 L 30.8503 115.096 L 30.8758 115.589 L 31.1662 116.35 L 31.1684 116.414 L 31.2239 116.506 L 31.6121 117.198 L 31.783 117.598 L 31.9987 117.998 L 32.2578 118.859 L 32.3072 118.971 L 32.3758 119.268 L 32.5014 119.941 L 32.5452 120.18 L 32.7249 121.01 L 32.8057 121.381 L 32.9705 121.987 L 33.0744 122.443 L 33.2218 122.962 L 33.385 123.528 L 33.486 123.838 L 33.6956 124.533 L 33.7909 124.816 L 34.0275 125.433 L 34.2085 125.898 L 34.3903 125.948 L 34.8029 126.162 L 35.0827 125.76 L 35.2266 125.426 L 35.2851 124.752 L 35.3762 124.001 L 35.3771 123.709 L 35.41 123.231 L 35.4365 122.685 L 35.4841 122.277 L 35.5094 121.627 L 35.5838 120.965 L 35.6042 120.656 L 35.6444 120.284 L 35.713 119.643 L 35.7995 118.654 L 35.8097 118.53 L 35.8155 118.443 L 35.7412 117.543 L 35.7393 116.803 L 35.6928 116.508 L 35.6409 116.189 L 35.5052 115.487 L 35.388 114.835 L 35.3044 114.572 L 35.1286 114.061 L 34.9591 113.581 L 34.9166 113.46 L 34.7965 113.136 L 34.5148 112.473 L 34.3207 112.062 L 34.1764 111.757 L 33.7045 111.117 L 33.5346 110.832 L 32.8377 110.514 L 32.1178 110.918" fill="none" stroke="#B8860B" stroke-width="0.05000" fill-rule="evenodd" fill-opacity="1.000"/>
    <path d="M 40.59 105.14 L 41.1972 105.276 L 41.5481 105.517 L 41.9449 105.744 L 42.5564 106.325 L 42.632 106.379 L 42.6994 106.413 L 43.4695 106.861 L 44.1697 107.106 L 44.3785 107.219 L 44.8629 107.377 L 45.4122 107.51 L 45.6504 107.561 L 46.2718 107.738 L 46.5016 107.985 L 47.19 108.207 L 47.5696 108.314 L 48.1565 108.533 L 48.8263 108.719 L 49.0219 108.786 L 49.4315 109.378 L 50.0377 109.705 L 50.1188 109.862 L 49.3629 109.454 L 48.9585 108.87 L 48.7962 108.815 L 48.1256 108.628 L 47.5387 108.409 L 47.1611 108.303 L 46.4461 108.072 L 46.2176 107.826 L 45.6265 107.658 L 45.3901 107.608 L 44.8356 107.474 L 44.3388 107.311 L 44.1293 107.198 L 43.4275 106.952 L 42.6521 106.501 L 42.5802 106.465 L 42.4926 106.402 L 41.8846 105.825 L 41.4949 105.601 L 41.1565 105.369 L 40.5635 105.236 L 40.2208 105.125 L 39.5687 105.237 L 39.3092 105.271 L 38.6533 105.701 L 38.5971 105.741 L 38.5852 105.774 L 38.3293 106.483 L 38.4312 106.836 L 38.5924 107.386 L 38.8177 107.709 L 39.1698 108.098 L 39.3998 108.423 L 40.1707 109.174 L 40.206 109.21 L 40.2321 109.235 L 41.052 109.867 L 41.2671 110.027 L 41.9004 110.397 L 42.2417 110.614 L 42.6502 110.812 L 43.1177 111.03 L 43.5261 111.23 L 43.9706 111.415 L 44.3817 111.525 L 44.9719 111.662 L 45.247 111.722 L 45.4733 111.76 L 46.1113 111.809 L 46.6123 111.838 L 47.0844 111.866 L 47.9812 111.861 L 48.0314 111.862 L 47.9415 111.884 L 47.3134 111.929 L 46.9684 111.931 L 46.8411 111.923 L 46.0609 111.878 L 45.3326 111.823 L 45.2069 111.813 L 45.1814 111.81 L 44.9542 111.76 L 44.9541 111.76 L 44.3562 111.622 L 43.9387 111.51 L 43.4851 111.321 L 43.0746 111.12 L 42.6079 110.903 L 42.1928 110.701 L 41.8484 110.482 L 41.2117 110.111 L 40.9923 109.948 L 40.1667 109.311 L 40.1362 109.281 L 40.1001 109.245 L 39.3235 108.488 L 39.0916 108.16 L 38.7392 107.771 L 38.501 107.429 L 38.3352 106.864 L 38.2242 106.479 L 38.4789 105.774 L 38.4788 105.774 L 38.5137 105.678 L 38.5956 105.619 L 39.2738 105.174 L 39.5538 105.138 L 40.2283 105.022 L 40.59 105.14" fill="none" stroke="#B8860B" stroke-width="0.05000" fill-rule="evenodd" fill-opacity="1.000"/>
    <path d="M 50.6067 110.802 L 50.6122 110.818 L 50.6171 110.827 L 50.6041 110.837 L 50.5699 110.866 L 50.5434 110.817 L 50.3854 110.376 L 50.6067 110.802" fill="none" stroke="#B8860B" stroke-width="0.05000" fill-rule="evenodd" fill-opacity="1.000"/>
    </g>
    <g class="thermal-contour" data-segment="6" data-name="HollowShell2Contour_Overhang">
    <path d="M 35.3249 125.451 L 35.1705 125.809 L 34.8349 126.292 L 34.3537 126.042 L 34.1336 125.982 L 34.1145 125.933 L 34.5182 126.043 L 34.8518 126.216 L 35.0892 125.874 L 35.3382 125.296 L 35.3249 125.451" fill="none" stroke="#006400" stroke-width="0.05000" fill-rule="evenodd" fill-opacity="1.000"/>
    <path d="M 31.0969 116.342 L 31.206 116.561 L 31.545 117.165 L 31.8296 117.832 L 31.9048 117.971 L 32.0385 118.416 L 32.0773 118.606 L 31.9059 118.036 L 31.6929 117.642 L 31.5223 117.242 L 31.1375 116.557 L 31.0694 116.444 L 31.0668 116.37 L 30.9676 116.11 L 31.0969 116.342" fill="none" stroke="#006400" stroke-width="0.05000" fill-rule="evenodd" fill-opacity="1.000"/>
    <path d="M 50.2373 109.813 L 50.2838 109.903 L 50.4063 110.138 L 50.635 110.776 L 50.8037 111.09 L 50.3246 111.467 L 50.1007 111.659 L 49.3161 111.851 L 49.2111 111.87 L 49.1938 111.869 L 48.0994 111.964 L 47.9803 111.961 L 47.0821 111.966 L 46.6064 111.938 L 46.1039 111.909 L 45.4607 111.86 L 45.228 111.82 L 45.1814 111.81 L 45.2069 111.813 L 45.3326 111.823 L 46.0609 111.878 L 46.8411 111.923 L 46.9684 111.931 L 47.3134 111.929 L 47.9415 111.884 L 48.0314 111.862 L 48.0968 111.864 L 49.1918 111.769 L 49.2045 111.77 L 49.295 111.753 L 50.0539 111.567 L 50.2612 111.39 L 50.6759 111.064 L 50.5699 110.866 L 50.6041 110.837 L 50.6171 110.827 L 50.6122 110.818 L 50.6067 110.802 L 50.3854 110.376 L 50.3144 110.178 L 50.195 109.949 L 50.1625 109.886 L 50.1188 109.862 L 50.0377 109.705 L 50.2373 109.813" fill="none" stroke="#006400" stroke-width="0.05000" fill-rule="evenodd" fill-opacity="1.000"/>
    </g>
    <g class="thermal-contour" data-segment="9" data-name="CoreContourHatch">
    <path d="M 33.4905 110.881 L 33.652 111.152 L 34.1219 111.789 L 34.2637 112.089 L 34.458 112.5 L 34.7375 113.158 L 34.8497 113.461 L 34.8502 113.461 L 34.8997 113.602 L 35.0705 114.085 L 35.0705 114.085 L 35.2456 114.595 L 35.2456 114.595 L 35.3267 114.85 L 35.4432 115.499 L 35.5791 116.201 L 35.6306 116.518 L 35.6763 116.808 L 35.6781 117.546 L 35.7523 118.443 L 35.7469 118.524 L 35.7367 118.648 L 35.6504 119.636 L 35.5817 120.277 L 35.5413 120.651 L 35.521 120.96 L 35.4466 121.621 L 35.4212 122.271 L 35.3738 122.679 L 35.3472 123.226 L 35.3141 123.706 L 35.3132 123.997 L 35.2224 124.746 L 35.1646 125.411 L 35.0275 125.729 L 34.7827 126.081 L 34.4134 125.889 L 34.2557 125.846 L 34.0929 125.427 L 34.0927 125.427 L 33.8507 124.796 L 33.7557 124.514 L 33.546 123.819 L 33.546 123.818 L 33.4448 123.508 L 33.2823 122.944 L 33.1355 122.428 L 33.0317 121.972 L 33.0317 121.972 L 32.867 121.366 L 32.7793 120.964 L 32.7794 120.964 L 32.6067 120.166 L 32.5633 119.929 L 32.5633 119.929 L 32.4376 119.256 L 32.3672 118.951 L 32.3171 118.838 L 32.057 117.973 L 31.8398 117.57 L 31.6687 117.169 L 31.2786 116.475 L 31.2306 116.396 L 31.2287 116.337 L 30.9382 115.576 L 30.913 115.09 L 30.8668 114.72 L 31.0239 114.01 L 31.0415 113.724 L 31.1092 113.267 L 31.2561 112.844 L 31.5362 111.879 L 32.0936 111.092 L 32.1642 110.964 L 32.8406 110.585 L 33.4905 110.881" fill="none" stroke="#800080" stroke-width="0.05000" fill-rule="evenodd" fill-opacity="1.000"/>
    <path d="M 32.1842 110.984 L 32.1169 111.106 L 31.5609 111.891 L 31.2816 112.853 L 31.1355 113.273 L 31.0684 113.727 L 31.0507 114.014 L 30.8942 114.721 L 30.94 115.088 L 30.9649 115.57 L 31.2556 116.332 L 31.2574 116.388 L 31.3017 116.461 L 31.693 117.158 L 31.8641 117.559 L 32.0822 117.963 L 32.3425 118.828 L 32.393 118.943 L 32.4639 119.25 L 32.5899 119.925 L 32.6332 120.161 L 32.8129 120.991 L 32.8128 120.991 L 32.8932 121.359 L 33.0578 121.965 L 33.1617 122.421 L 33.3083 122.937 L 33.4706 123.5 L 33.5719 123.811 L 33.7814 124.506 L 33.8761 124.787 L 34.1113 125.4 L 34.1114 125.4 L 34.2759 125.824 L 34.4232 125.864 L 34.7741 126.046 L 35.0038 125.715 L 35.1381 125.404 L 35.1956 124.742 L 35.2862 123.995 L 35.2871 123.706 L 35.3202 123.225 L 35.3468 122.678 L 35.3943 122.269 L 35.4196 121.62 L 35.4941 120.957 L 35.5145 120.649 L 35.5549 120.274 L 35.6235 119.634 L 35.7098 118.646 L 35.72 118.522 L 35.7252 118.443 L 35.6512 117.547 L 35.6493 116.81 L 35.6039 116.522 L 35.6039 116.522 L 35.5525 116.206 L 35.4167 115.504 L 35.3004 114.856 L 35.2186 114.6 L 35.2186 114.599 L 35.0435 114.09 L 35.0435 114.09 L 34.8742 113.611 L 34.8322 113.491 L 34.8322 113.491 L 34.7124 113.168 L 34.4334 112.511 L 34.2393 112.101 L 34.0986 111.803 L 33.6294 111.167 L 33.4716 110.902 L 32.8419 110.615 L 32.1842 110.984" fill="none" stroke="#800080" stroke-width="0.05000" fill-rule="evenodd" fill-opacity="1.000"/>
    <path d="M 40.5476 105.297 L 41.1309 105.428 L 41.4622 105.655 L 41.8468 105.876 L 42.4524 106.451 L 42.5478 106.519 L 42.622 106.556 L 43.4009 107.01 L 44.104 107.256 L 44.3135 107.369 L 44.8192 107.534 L 45.3758 107.669 L 45.6125 107.719 L 46.1834 107.882 L 46.4111 108.127 L 47.1429 108.363 L 47.5188 108.469 L 48.1062 108.688 L 48.7768 108.875 L 48.9185 108.923 L 49.3197 109.503 L 50.1153 109.932 L 50.1391 109.978 L 50.2566 110.204 L 50.4855 110.842 L 50.5209 110.908 L 50.4999 110.926 L 50.4609 110.853 L 50.2318 110.215 L 50.1151 109.99 L 50.0952 109.952 L 49.3012 109.523 L 48.9014 108.945 L 48.7689 108.901 L 48.0978 108.714 L 47.5104 108.495 L 47.1351 108.389 L 46.3961 108.151 L 46.1687 107.906 L 45.606 107.746 L 45.3702 107.696 L 44.811 107.56 L 44.3031 107.394 L 44.093 107.281 L 43.3897 107.034 L 42.6092 106.58 L 42.5336 106.542 L 42.4352 106.472 L 41.8306 105.898 L 41.447 105.678 L 41.1199 105.453 L 40.5396 105.323 L 40.2141 105.217 L 39.5821 105.326 L 39.3413 105.357 L 38.7027 105.776 L 38.6722 105.798 L 38.6698 105.805 L 38.6699 105.805 L 38.4239 106.486 L 38.5176 106.811 L 38.6746 107.346 L 38.8884 107.653 L 39.2401 108.041 L 39.4685 108.364 L 40.2342 109.11 L 40.2688 109.145 L 40.291 109.167 L 41.107 109.796 L 41.1069 109.796 L 41.3166 109.952 L 41.9472 110.32 L 42.286 110.535 L 42.6882 110.73 L 42.6883 110.73 L 43.1565 110.949 L 43.5634 111.148 L 44 111.33 L 44.402 111.438 L 44.9922 111.574 L 44.9921 111.574 L 45.2645 111.634 L 45.4844 111.671 L 46.1173 111.719 L 46.6176 111.748 L 47.0862 111.776 L 47.982 111.771 L 48.0939 111.773 L 49.1147 111.685 L 49.0243 111.72 L 48.0948 111.8 L 47.9815 111.798 L 47.0855 111.803 L 46.616 111.775 L 46.1155 111.746 L 45.4811 111.698 L 45.2593 111.66 L 44.9626 111.595 L 44.9626 111.595 L 44.3955 111.464 L 43.9913 111.355 L 43.5523 111.173 L 43.1446 110.973 L 43.1446 110.973 L 42.6823 110.757 L 42.682 110.757 L 42.2728 110.559 L 41.9327 110.343 L 41.9327 110.343 L 41.3017 109.975 L 41.0751 109.806 L 41.0752 109.806 L 40.2733 109.187 L 40.2498 109.164 L 40.2149 109.129 L 40.2149 109.129 L 39.4479 108.382 L 39.219 108.058 L 38.8672 107.67 L 38.6499 107.358 L 38.4917 106.818 L 38.3955 106.485 L 38.6386 105.812 L 38.6385 105.812 L 38.6497 105.781 L 38.6874 105.754 L 39.3317 105.331 L 39.5786 105.299 L 40.2161 105.189 L 40.5476 105.297" fill="none" stroke="#800080" stroke-width="0.05000" fill-rule="evenodd" fill-opacity="1.000"/>
    </g>
    <g class="thermal-contour" data-segment="20" data-name="CoreContourHatchOverhang">
    <path d="M 50.5954 111.047 L 50.2208 111.341 L 50.0243 111.509 L 49.282 111.692 L 49.2001 111.706 L 49.1902 111.706 L 49.0243 111.72 L 49.1147 111.685 L 49.1897 111.679 L 49.1982 111.679 L 49.2764 111.665 L 50.0116 111.485 L 50.2041 111.32 L 50.5609 111.04 L 50.4999 110.926 L 50.5209 110.908 L 50.5954 111.047" fill="none" stroke="#E64A19" stroke-width="0.05000" fill-rule="evenodd" fill-opacity="1.000"/>
    </g>
    <!-- ===== Thermal Segment Colour Legend ===== -->
    <g id="thermal-legend">
    <rect x="161.0000" y="5.0000" width="40.0000" height="72.0000"
          rx="1" ry="1"
          fill="#fafafa" stroke="#cccccc" stroke-width="0.15"/>
    <text x="181.0000" y="7.6000" font-family="sans-serif" font-size="2.2000" font-weight="bold" fill="#222222" text-anchor="middle">Thermal Segments</text>
    <line x1="161.5000" y1="8.7000" x2="200.5000" y2="8.7000" stroke="#bbbbbb" stroke-width="0.1"/>
    <rect x="161.8000" y="9.0000" width="3.5000" height="2.0000" fill="#000000" stroke="#333333" stroke-width="0.08" rx="0.3" ry="0.3"/>
    <text x="168.6000" y="10.9000" font-family="monospace" font-size="1.6000" fill="#444444" text-anchor="end"> 1</text>
    <text x="169.6000" y="10.9000" font-family="sans-serif" font-size="1.6000" fill="#111111">CoreContour_Volume</text>
    <rect x="161.8000" y="12.0000" width="3.5000" height="2.0000" fill="#8B0000" stroke="#333333" stroke-width="0.08" rx="0.3" ry="0.3"/>
    <text x="168.6000" y="13.9000" font-family="monospace" font-size="1.6000" fill="#444444" text-anchor="end"> 2</text>
    <text x="169.6000" y="13.9000" font-family="sans-serif" font-size="1.6000" fill="#111111">CoreContour_Overhang</text>
    <rect x="161.8000" y="15.0000" width="3.5000" height="2.0000" fill="#0000CC" stroke="#333333" stroke-width="0.08" rx="0.3" ry="0.3"/>
    <text x="168.6000" y="16.9000" font-family="monospace" font-size="1.6000" fill="#444444" text-anchor="end"> 3</text>
    <text x="169.6000" y="16.9000" font-family="sans-serif" font-size="1.6000" fill="#111111">Shell1Contour_Volume</text>
    <rect x="161.8000" y="18.0000" width="3.5000" height="2.0000" fill="#000080" stroke="#333333" stroke-width="0.08" rx="0.3" ry="0.3"/>
    <text x="168.6000" y="19.9000" font-family="monospace" font-size="1.6000" fill="#444444" text-anchor="end"> 4</text>
    <text x="169.6000" y="19.9000" font-family="sans-serif" font-size="1.6000" fill="#111111">Shell1Contour_Overhang</text>
    <rect x="161.8000" y="21.0000" width="3.5000" height="2.0000" fill="#B8860B" stroke="#333333" stroke-width="0.08" rx="0.3" ry="0.3"/>
    <text x="168.6000" y="22.9000" font-family="monospace" font-size="1.6000" fill="#444444" text-anchor="end"> 5</text>
    <text x="169.6000" y="22.9000" font-family="sans-serif" font-size="1.6000" fill="#111111">Shell2Contour_Volume</text>
    <rect x="161.8000" y="24.0000" width="3.5000" height="2.0000" fill="#006400" stroke="#333333" stroke-width="0.08" rx="0.3" ry="0.3"/>
    <text x="168.6000" y="25.9000" font-family="monospace" font-size="1.6000" fill="#444444" text-anchor="end"> 6</text>
    <text x="169.6000" y="25.9000" font-family="sans-serif" font-size="1.6000" fill="#111111">Shell2Contour_Overhang</text>
    <rect x="161.8000" y="27.0000" width="3.5000" height="2.0000" fill="#FF8C00" stroke="#333333" stroke-width="0.08" rx="0.3" ry="0.3"/>
    <text x="168.6000" y="28.9000" font-family="monospace" font-size="1.6000" fill="#444444" text-anchor="end"> 7</text>
    <text x="169.6000" y="28.9000" font-family="sans-serif" font-size="1.6000" fill="#111111">CoreOverhangHatch</text>
    <rect x="161.8000" y="30.0000" width="3.5000" height="2.0000" fill="#228B22" stroke="#333333" stroke-width="0.08" rx="0.3" ry="0.3"/>
    <text x="168.6000" y="31.9000" font-family="monospace" font-size="1.6000" fill="#444444" text-anchor="end"> 8</text>
    <text x="169.6000" y="31.9000" font-family="sans-serif" font-size="1.6000" fill="#111111">CoreNormalHatch</text>
    <rect x="161.8000" y="33.0000" width="3.5000" height="2.0000" fill="#800080" stroke="#333333" stroke-width="0.08" rx="0.3" ry="0.3"/>
    <text x="168.6000" y="34.9000" font-family="monospace" font-size="1.6000" fill="#444444" text-anchor="end"> 9</text>
    <text x="169.6000" y="34.9000" font-family="sans-serif" font-size="1.6000" fill="#111111">CoreContourHatch</text>
    <rect x="161.8000" y="36.0000" width="3.5000" height="2.0000" fill="#FF69B4" stroke="#333333" stroke-width="0.08" rx="0.3" ry="0.3"/>
    <text x="168.6000" y="37.9000" font-family="monospace" font-size="1.6000" fill="#444444" text-anchor="end">10</text>
    <text x="169.6000" y="37.9000" font-family="sans-serif" font-size="1.6000" fill="#111111">Shell1OverhangHatch</text>
    <rect x="161.8000" y="39.0000" width="3.5000" height="2.0000" fill="#00CED1" stroke="#333333" stroke-width="0.08" rx="0.3" ry="0.3"/>
    <text x="168.6000" y="40.9000" font-family="monospace" font-size="1.6000" fill="#444444" text-anchor="end">11</text>
    <text x="169.6000" y="40.9000" font-family="sans-serif" font-size="1.6000" fill="#111111">Shell1NormalHatch</text>
    <rect x="161.8000" y="42.0000" width="3.5000" height="2.0000" fill="#FF00FF" stroke="#333333" stroke-width="0.08" rx="0.3" ry="0.3"/>
    <text x="168.6000" y="43.9000" font-family="monospace" font-size="1.6000" fill="#444444" text-anchor="end">12</text>
    <text x="169.6000" y="43.9000" font-family="sans-serif" font-size="1.6000" fill="#111111">Shell1ContourHatch</text>
    <rect x="161.8000" y="45.0000" width="3.5000" height="2.0000" fill="#A52A2A" stroke="#333333" stroke-width="0.08" rx="0.3" ry="0.3"/>
    <text x="168.6000" y="46.9000" font-family="monospace" font-size="1.6000" fill="#444444" text-anchor="end">13</text>
    <text x="169.6000" y="46.9000" font-family="sans-serif" font-size="1.6000" fill="#111111">Shell2OverhangHatch</text>
    <rect x="161.8000" y="48.0000" width="3.5000" height="2.0000" fill="#808080" stroke="#333333" stroke-width="0.08" rx="0.3" ry="0.3"/>
    <text x="168.6000" y="49.9000" font-family="monospace" font-size="1.6000" fill="#444444" text-anchor="end">14</text>
    <text x="169.6000" y="49.9000" font-family="sans-serif" font-size="1.6000" fill="#111111">Shell2NormalHatch</text>
    <rect x="161.8000" y="51.0000" width="3.5000" height="2.0000" fill="#32CD32" stroke="#333333" stroke-width="0.08" rx="0.3" ry="0.3"/>
    <text x="168.6000" y="52.9000" font-family="monospace" font-size="1.6000" fill="#444444" text-anchor="end">15</text>
    <text x="169.6000" y="52.9000" font-family="sans-serif" font-size="1.6000" fill="#111111">Shell2ContourHatch</text>
    <rect x="161.8000" y="54.0000" width="3.5000" height="2.0000" fill="#1A237E" stroke="#333333" stroke-width="0.08" rx="0.3" ry="0.3"/>
    <text x="168.6000" y="55.9000" font-family="monospace" font-size="1.6000" fill="#444444" text-anchor="end">16</text>
    <text x="169.6000" y="55.9000" font-family="sans-serif" font-size="1.6000" fill="#111111">SupportContourVolume</text>
    <rect x="161.8000" y="57.0000" width="3.5000" height="2.0000" fill="#827717" stroke="#333333" stroke-width="0.08" rx="0.3" ry="0.3"/>
    <text x="168.6000" y="58.9000" font-family="monospace" font-size="1.6000" fill="#444444" text-anchor="end">17</text>
    <text x="169.6000" y="58.9000" font-family="sans-serif" font-size="1.6000" fill="#111111">SupportHatch</text>
    <rect x="161.8000" y="60.0000" width="3.5000" height="2.0000" fill="#006064" stroke="#333333" stroke-width="0.08" rx="0.3" ry="0.3"/>
    <text x="168.6000" y="61.9000" font-family="monospace" font-size="1.6000" fill="#444444" text-anchor="end">18</text>
    <text x="169.6000" y="61.9000" font-family="sans-serif" font-size="1.6000" fill="#111111">PointSequence</text>
    <rect x="161.8000" y="63.0000" width="3.5000" height="2.0000" fill="#B71C1C" stroke="#333333" stroke-width="0.08" rx="0.3" ry="0.3"/>
    <text x="168.6000" y="64.9000" font-family="monospace" font-size="1.6000" fill="#444444" text-anchor="end">19</text>
    <text x="169.6000" y="64.9000" font-family="sans-serif" font-size="1.6000" fill="#111111">ExternalSupports</text>
    <rect x="161.8000" y="66.0000" width="3.5000" height="2.0000" fill="#E64A19" stroke="#333333" stroke-width="0.08" rx="0.3" ry="0.3"/>
    <text x="168.6000" y="67.9000" font-family="monospace" font-size="1.6000" fill="#444444" text-anchor="end">20</text>
    <text x="169.6000" y="67.9000" font-family="sans-serif" font-size="1.6000" fill="#111111">CoreContourHatchOverhang</text>
    <rect x="161.8000" y="69.0000" width="3.5000" height="2.0000" fill="#311B92" stroke="#333333" stroke-width="0.08" rx="0.3" ry="0.3"/>
    <text x="168.6000" y="70.9000" font-family="monospace" font-size="1.6000" fill="#444444" text-anchor="end">21</text>
    <text x="169.6000" y="70.9000" font-family="sans-serif" font-size="1.6000" fill="#111111">Shell1ContourHatchOverhang</text>
    <rect x="161.8000" y="72.0000" width="3.5000" height="2.0000" fill="#880E4F" stroke="#333333" stroke-width="0.08" rx="0.3" ry="0.3"/>
    <text x="168.6000" y="73.9000" font-family="monospace" font-size="1.6000" fill="#444444" text-anchor="end">22</text>
    <text x="169.6000" y="73.9000" font-family="sans-serif" font-size="1.6000" fill="#111111">Shell2ContourHatchOverhang</text>
    </g>
  </g>
</svg>
