<?xml version="1.0" encoding="UTF-8" standalone="yes"?>
<svg xmlns="http://www.w3.org/2000/svg"
     xmlns:xlink="http://www.w3.org/1999/xlink"
     width="2020.0000mm" height="1600.0000mm"
     viewBox="0 0 202.000000 160.000000">
  <!--
    Build plate : 150.00 x 150.00 mm
    Coordinate  : 1 SVG unit = 1 mm
    Display zoom: 10x  (width/height = viewBox x 10)
    Hatch stroke: 0.04 mm = ~28 mm on screen at this zoom
    Legend panel: right margin (42 mm wide)
  -->
  <defs>
    <marker id="endArrow" markerWidth="2" markerHeight="1.4"
            refX="0" refY="0.7" orient="auto"
            markerUnits="strokeWidth">
      <polyline fill="darkblue" points="0,0 2,0.7 0,1.4 0.2,0.7"/>
    </marker>
  </defs>
  <!-- Background -->
  <rect x="0" y="0" width="202.000000" height="160.000000" fill="#f0f0f0" stroke="none"/>
  <!-- Build plate boundary (150 x 150 mm) -->
  <rect x="5.000000" y="5.000000" width="150.000000" height="150.000000"
        fill="#ffffff" stroke="#aaaaaa" stroke-width="0.2" stroke-dasharray="1,0.5"/>
  <!-- Build plate centre circle (r = 75.00 mm) -->
  <circle cx="80.000000" cy="80.000000" r="75.000000"
          fill="none" stroke="#bbbbbb" stroke-width="0.15" stroke-dasharray="0.8,0.4"/>
  <!-- Centre cross-hair -->
  <line x1="5.000000" y1="80.000000" x2="155.000000" y2="80.000000" stroke="#cccccc" stroke-width="0.1"/>
  <line x1="80.000000" y1="5.000000" x2="80.000000" y2="155.000000" stroke="#cccccc" stroke-width="0.1"/>
  <circle cx="80.000000" cy="80.000000" r="0.3" fill="#cccccc" stroke="none"/>
  <!-- Corner labels -->
  <text x="5.400000" y="4.600000" font-family="sans-serif" font-size="2" fill="#888888">0,0</text>
  <text x="154.600006" y="4.600000" font-family="sans-serif" font-size="2" fill="#888888" text-anchor="end">150,0</text>
  <text x="5.400000" y="157.199997" font-family="sans-serif" font-size="2" fill="#888888">0,150</text>
  <!-- Layer geometry -->
  <g id="geometry">
    <g class="thermal-hatch" data-segment="8" data-name="CoreNormalHatch">
      <line x1="33.37447" y1="123.19830" x2="33.58778" y2="123.25947" stroke="#228B22" stroke-width="0.04000"/>
      <line x1="33.32735" y1="123.08076" x2="33.86259" y2="123.23424" stroke="#228B22" stroke-width="0.04000"/>
      <line x1="33.28023" y1="122.96322" x2="34.16077" y2="123.21571" stroke="#228B22" stroke-width="0.04000"/>
      <line x1="33.23311" y1="122.84568" x2="34.22796" y2="123.13095" stroke="#228B22" stroke-width="0.04000"/>
      <line x1="33.16526" y1="122.72219" x2="34.24655" y2="123.03225" stroke="#228B22" stroke-width="0.04000"/>
      <line x1="33.09047" y1="122.59672" x2="34.26695" y2="122.93407" stroke="#228B22" stroke-width="0.04000"/>
      <line x1="33.01567" y1="122.47124" x2="34.28735" y2="122.83588" stroke="#228B22" stroke-width="0.04000"/>
      <line x1="32.94088" y1="122.34576" x2="34.30774" y2="122.73771" stroke="#228B22" stroke-width="0.04000"/>
      <line x1="32.86609" y1="122.22028" x2="34.32814" y2="122.63953" stroke="#228B22" stroke-width="0.04000"/>
      <line x1="32.79129" y1="122.09481" x2="34.34854" y2="122.54134" stroke="#228B22" stroke-width="0.04000"/>
      <line x1="32.73676" y1="121.97514" x2="34.36894" y2="122.44316" stroke="#228B22" stroke-width="0.04000"/>
      <line x1="32.67065" y1="121.85216" x2="34.38934" y2="122.34499" stroke="#228B22" stroke-width="0.04000"/>
      <line x1="32.65064" y1="121.74239" x2="34.40973" y2="122.24680" stroke="#228B22" stroke-width="0.04000"/>
      <line x1="32.63064" y1="121.63262" x2="34.43185" y2="122.14912" stroke="#228B22" stroke-width="0.04000"/>
      <line x1="32.61063" y1="121.52286" x2="34.45983" y2="122.05311" stroke="#228B22" stroke-width="0.04000"/>
      <line x1="32.59062" y1="121.41309" x2="34.48782" y2="121.95710" stroke="#228B22" stroke-width="0.04000"/>
      <line x1="32.57061" y1="121.30332" x2="34.51579" y2="121.86109" stroke="#228B22" stroke-width="0.04000"/>
      <line x1="32.55061" y1="121.19355" x2="34.54377" y2="121.76508" stroke="#228B22" stroke-width="0.04000"/>
      <line x1="32.53060" y1="121.08379" x2="34.57175" y2="121.66908" stroke="#228B22" stroke-width="0.04000"/>
      <line x1="32.51195" y1="120.97441" x2="34.59973" y2="121.57307" stroke="#228B22" stroke-width="0.04000"/>
      <line x1="32.49371" y1="120.86515" x2="34.62771" y2="121.47707" stroke="#228B22" stroke-width="0.04000"/>
      <line x1="32.47547" y1="120.75589" x2="34.65569" y2="121.38106" stroke="#228B22" stroke-width="0.04000"/>
      <line x1="32.45723" y1="120.64663" x2="34.67464" y2="121.28246" stroke="#228B22" stroke-width="0.04000"/>
      <line x1="32.43900" y1="120.53738" x2="34.69257" y2="121.18358" stroke="#228B22" stroke-width="0.04000"/>
      <line x1="32.42075" y1="120.42811" x2="34.72008" y2="121.08743" stroke="#228B22" stroke-width="0.04000"/>
      <line x1="32.40522" y1="120.31963" x2="34.74888" y2="120.99166" stroke="#228B22" stroke-width="0.04000"/>
      <line x1="32.39277" y1="120.21203" x2="34.77661" y2="120.89558" stroke="#228B22" stroke-width="0.04000"/>
      <line x1="32.37505" y1="120.10291" x2="34.80434" y2="120.79951" stroke="#228B22" stroke-width="0.04000"/>
      <line x1="32.35281" y1="119.99251" x2="34.83207" y2="120.70342" stroke="#228B22" stroke-width="0.04000"/>
      <line x1="32.33059" y1="119.88211" x2="34.85979" y2="120.60735" stroke="#228B22" stroke-width="0.04000"/>
      <line x1="32.31217" y1="119.77280" x2="34.88752" y2="120.51127" stroke="#228B22" stroke-width="0.04000"/>
      <line x1="32.29476" y1="119.66377" x2="34.91525" y2="120.41518" stroke="#228B22" stroke-width="0.04000"/>
      <line x1="32.27734" y1="119.55475" x2="34.94298" y2="120.31911" stroke="#228B22" stroke-width="0.04000"/>
      <line x1="32.25993" y1="119.44572" x2="34.97071" y2="120.22303" stroke="#228B22" stroke-width="0.04000"/>
      <line x1="32.24252" y1="119.33670" x2="35.00095" y2="120.12767" stroke="#228B22" stroke-width="0.04000"/>
      <line x1="32.22510" y1="119.22768" x2="35.03117" y2="120.03230" stroke="#228B22" stroke-width="0.04000"/>
      <line x1="32.20877" y1="119.11897" x2="35.06140" y2="119.93695" stroke="#228B22" stroke-width="0.04000"/>
      <line x1="32.19442" y1="119.01082" x2="35.09164" y2="119.84158" stroke="#228B22" stroke-width="0.04000"/>
      <line x1="32.18007" y1="118.90268" x2="35.12186" y2="119.74622" stroke="#228B22" stroke-width="0.04000"/>
      <line x1="32.16571" y1="118.79453" x2="35.15209" y2="119.65086" stroke="#228B22" stroke-width="0.04000"/>
      <line x1="32.15140" y1="118.68639" x2="35.18232" y2="119.55550" stroke="#228B22" stroke-width="0.04000"/>
      <line x1="32.13715" y1="118.57828" x2="35.21255" y2="119.46014" stroke="#228B22" stroke-width="0.04000"/>
      <line x1="32.12289" y1="118.47016" x2="35.24121" y2="119.36433" stroke="#228B22" stroke-width="0.04000"/>
      <line x1="32.10863" y1="118.36205" x2="35.26467" y2="119.26703" stroke="#228B22" stroke-width="0.04000"/>
      <line x1="32.09437" y1="118.25392" x2="35.28774" y2="119.16961" stroke="#228B22" stroke-width="0.04000"/>
      <line x1="32.08011" y1="118.14581" x2="35.31065" y2="119.07215" stroke="#228B22" stroke-width="0.04000"/>
      <line x1="32.06615" y1="118.03777" x2="35.33357" y2="118.97469" stroke="#228B22" stroke-width="0.04000"/>
      <line x1="32.05221" y1="117.92975" x2="35.35648" y2="118.87723" stroke="#228B22" stroke-width="0.04000"/>
      <line x1="32.03826" y1="117.82171" x2="35.37940" y2="118.77977" stroke="#228B22" stroke-width="0.04000"/>
      <line x1="32.02431" y1="117.71368" x2="35.40231" y2="118.68231" stroke="#228B22" stroke-width="0.04000"/>
      <line x1="32.01036" y1="117.60565" x2="35.42523" y2="118.58485" stroke="#228B22" stroke-width="0.04000"/>
      <line x1="31.99641" y1="117.49763" x2="35.44814" y2="118.48740" stroke="#228B22" stroke-width="0.04000"/>
      <line x1="31.98246" y1="117.38960" x2="35.47106" y2="118.38994" stroke="#228B22" stroke-width="0.04000"/>
      <line x1="31.96851" y1="117.28156" x2="35.49397" y2="118.29247" stroke="#228B22" stroke-width="0.04000"/>
      <line x1="31.95629" y1="117.17403" x2="35.51864" y2="118.19552" stroke="#228B22" stroke-width="0.04000"/>
      <line x1="31.94156" y1="117.06577" x2="35.54391" y2="118.09873" stroke="#228B22" stroke-width="0.04000"/>
      <line x1="31.92647" y1="116.95742" x2="35.56918" y2="118.00195" stroke="#228B22" stroke-width="0.04000"/>
      <line x1="31.91132" y1="116.84904" x2="35.59446" y2="117.90517" stroke="#228B22" stroke-width="0.04000"/>
      <line x1="31.89617" y1="116.74067" x2="35.61464" y2="117.80693" stroke="#228B22" stroke-width="0.04000"/>
      <line x1="31.88101" y1="116.63229" x2="35.62653" y2="117.70631" stroke="#228B22" stroke-width="0.04000"/>
      <line x1="31.86586" y1="116.52392" x2="35.63842" y2="117.60568" stroke="#228B22" stroke-width="0.04000"/>
      <line x1="31.85070" y1="116.41554" x2="35.65031" y2="117.50507" stroke="#228B22" stroke-width="0.04000"/>
      <line x1="31.83555" y1="116.30717" x2="35.66220" y2="117.40444" stroke="#228B22" stroke-width="0.04000"/>
      <line x1="31.82126" y1="116.19904" x2="35.67455" y2="117.30396" stroke="#228B22" stroke-width="0.04000"/>
      <line x1="31.80865" y1="116.09139" x2="35.68742" y2="117.20361" stroke="#228B22" stroke-width="0.04000"/>
      <line x1="31.79605" y1="115.98376" x2="35.70028" y2="117.10327" stroke="#228B22" stroke-width="0.04000"/>
      <line x1="31.78345" y1="115.87611" x2="35.71315" y2="117.00293" stroke="#228B22" stroke-width="0.04000"/>
      <line x1="31.77230" y1="115.76888" x2="35.72601" y2="116.90260" stroke="#228B22" stroke-width="0.04000"/>
      <line x1="31.76311" y1="115.66222" x2="35.73888" y2="116.80225" stroke="#228B22" stroke-width="0.04000"/>
      <line x1="31.75392" y1="115.55556" x2="35.75175" y2="116.70191" stroke="#228B22" stroke-width="0.04000"/>
      <line x1="31.74473" y1="115.44889" x2="35.76362" y2="116.60129" stroke="#228B22" stroke-width="0.04000"/>
      <line x1="31.73554" y1="115.34222" x2="35.77507" y2="116.50054" stroke="#228B22" stroke-width="0.04000"/>
      <line x1="31.72635" y1="115.23556" x2="35.78651" y2="116.39980" stroke="#228B22" stroke-width="0.04000"/>
      <line x1="31.71361" y1="115.12788" x2="35.79769" y2="116.29897" stroke="#228B22" stroke-width="0.04000"/>
      <line x1="31.69915" y1="115.01970" x2="35.80807" y2="116.19791" stroke="#228B22" stroke-width="0.04000"/>
      <line x1="31.68469" y1="114.91152" x2="35.81844" y2="116.09686" stroke="#228B22" stroke-width="0.04000"/>
      <line x1="31.67023" y1="114.80334" x2="35.82882" y2="115.99580" stroke="#228B22" stroke-width="0.04000"/>
      <line x1="31.65577" y1="114.69517" x2="35.83113" y2="115.89243" stroke="#228B22" stroke-width="0.04000"/>
      <line x1="31.63393" y1="114.58488" x2="35.83288" y2="115.78891" stroke="#228B22" stroke-width="0.04000"/>
      <line x1="31.61084" y1="114.47423" x2="35.83463" y2="115.68538" stroke="#228B22" stroke-width="0.04000"/>
      <line x1="31.58775" y1="114.36357" x2="35.83639" y2="115.58185" stroke="#228B22" stroke-width="0.04000"/>
      <line x1="31.57310" y1="114.25535" x2="35.83813" y2="115.47832" stroke="#228B22" stroke-width="0.04000"/>
      <line x1="31.56716" y1="114.14961" x2="35.83989" y2="115.37479" stroke="#228B22" stroke-width="0.04000"/>
      <line x1="31.56123" y1="114.04388" x2="35.84189" y2="115.27134" stroke="#228B22" stroke-width="0.04000"/>
      <line x1="31.55529" y1="113.93815" x2="35.84448" y2="115.16805" stroke="#228B22" stroke-width="0.04000"/>
      <line x1="31.54936" y1="113.83242" x2="35.84708" y2="115.06477" stroke="#228B22" stroke-width="0.04000"/>
      <line x1="31.54127" y1="113.72607" x2="35.84968" y2="114.96148" stroke="#228B22" stroke-width="0.04000"/>
      <line x1="31.50174" y1="113.61070" x2="35.85228" y2="114.85820" stroke="#228B22" stroke-width="0.04000"/>
      <line x1="31.46220" y1="113.49533" x2="35.85487" y2="114.75491" stroke="#228B22" stroke-width="0.04000"/>
      <line x1="31.43077" y1="113.38229" x2="35.85732" y2="114.65158" stroke="#228B22" stroke-width="0.04000"/>
      <line x1="31.40456" y1="113.27074" x2="35.85956" y2="114.54819" stroke="#228B22" stroke-width="0.04000"/>
      <line x1="31.39482" y1="113.16393" x2="35.86181" y2="114.44481" stroke="#228B22" stroke-width="0.04000"/>
      <line x1="31.38575" y1="113.05730" x2="35.86406" y2="114.34143" stroke="#228B22" stroke-width="0.04000"/>
      <line x1="31.37668" y1="112.95066" x2="35.86501" y2="114.23767" stroke="#228B22" stroke-width="0.04000"/>
      <line x1="31.36761" y1="112.84403" x2="35.86579" y2="114.13387" stroke="#228B22" stroke-width="0.04000"/>
      <line x1="31.35854" y1="112.73740" x2="35.86657" y2="114.03005" stroke="#228B22" stroke-width="0.04000"/>
      <line x1="31.34947" y1="112.63077" x2="35.86735" y2="113.92625" stroke="#228B22" stroke-width="0.04000"/>
      <line x1="31.34039" y1="112.52413" x2="35.86813" y2="113.82244" stroke="#228B22" stroke-width="0.04000"/>
      <line x1="31.32709" y1="112.41629" x2="35.86121" y2="113.71643" stroke="#228B22" stroke-width="0.04000"/>
      <line x1="31.30678" y1="112.30644" x2="35.85382" y2="113.61028" stroke="#228B22" stroke-width="0.04000"/>
      <line x1="31.28647" y1="112.19659" x2="35.84643" y2="113.50413" stroke="#228B22" stroke-width="0.04000"/>
      <line x1="31.26589" y1="112.08665" x2="35.83903" y2="113.39799" stroke="#228B22" stroke-width="0.04000"/>
      <line x1="31.24500" y1="111.97663" x2="35.83075" y2="113.29157" stroke="#228B22" stroke-width="0.04000"/>
      <line x1="31.22411" y1="111.86662" x2="35.81993" y2="113.18445" stroke="#228B22" stroke-width="0.04000"/>
      <line x1="31.20321" y1="111.75659" x2="35.80910" y2="113.07731" stroke="#228B22" stroke-width="0.04000"/>
      <line x1="31.18232" y1="111.64658" x2="35.79971" y2="112.97059" stroke="#228B22" stroke-width="0.04000"/>
      <line x1="31.16143" y1="111.53654" x2="35.79383" y2="112.86487" stroke="#228B22" stroke-width="0.04000"/>
      <line x1="31.14054" y1="111.42653" x2="35.78795" y2="112.75916" stroke="#228B22" stroke-width="0.04000"/>
      <line x1="31.11965" y1="111.31651" x2="35.78207" y2="112.65344" stroke="#228B22" stroke-width="0.04000"/>
      <line x1="31.11315" y1="111.21062" x2="35.77620" y2="112.54772" stroke="#228B22" stroke-width="0.04000"/>
      <line x1="31.12202" y1="111.10913" x2="35.77032" y2="112.44201" stroke="#228B22" stroke-width="0.04000"/>
      <line x1="31.13090" y1="111.00764" x2="35.76444" y2="112.33630" stroke="#228B22" stroke-width="0.04000"/>
      <line x1="31.13162" y1="110.90382" x2="35.76157" y2="112.23145" stroke="#228B22" stroke-width="0.04000"/>
      <line x1="31.11815" y1="110.79593" x2="35.75900" y2="112.12667" stroke="#228B22" stroke-width="0.04000"/>
      <line x1="31.10469" y1="110.68804" x2="35.75642" y2="112.02190" stroke="#228B22" stroke-width="0.04000"/>
      <line x1="31.09122" y1="110.58015" x2="35.75385" y2="111.91714" stroke="#228B22" stroke-width="0.04000"/>
      <line x1="31.07775" y1="110.47226" x2="35.74989" y2="111.81197" stroke="#228B22" stroke-width="0.04000"/>
      <line x1="31.06428" y1="110.36436" x2="35.72225" y2="111.70001" stroke="#228B22" stroke-width="0.04000"/>
      <line x1="31.05072" y1="110.25645" x2="35.69461" y2="111.58806" stroke="#228B22" stroke-width="0.04000"/>
      <line x1="31.02913" y1="110.14622" x2="35.66697" y2="111.47610" stroke="#228B22" stroke-width="0.04000"/>
      <line x1="31.00754" y1="110.03600" x2="35.63933" y2="111.36415" stroke="#228B22" stroke-width="0.04000"/>
      <line x1="30.98596" y1="109.92579" x2="35.61094" y2="111.25198" stroke="#228B22" stroke-width="0.04000"/>
      <line x1="30.96534" y1="109.81584" x2="35.58237" y2="111.13976" stroke="#228B22" stroke-width="0.04000"/>
      <line x1="30.94772" y1="109.70676" x2="35.55381" y2="111.02754" stroke="#228B22" stroke-width="0.04000"/>
      <line x1="30.93891" y1="109.60020" x2="35.52525" y2="110.91531" stroke="#228B22" stroke-width="0.04000"/>
      <line x1="30.94504" y1="109.49793" x2="35.49251" y2="110.80190" stroke="#228B22" stroke-width="0.04000"/>
      <line x1="30.95116" y1="109.39565" x2="35.45292" y2="110.68652" stroke="#228B22" stroke-width="0.04000"/>
      <line x1="30.95729" y1="109.29339" x2="35.41333" y2="110.57114" stroke="#228B22" stroke-width="0.04000"/>
      <line x1="30.96342" y1="109.19112" x2="35.37374" y2="110.45575" stroke="#228B22" stroke-width="0.04000"/>
      <line x1="30.96955" y1="109.08884" x2="35.33415" y2="110.34037" stroke="#228B22" stroke-width="0.04000"/>
      <line x1="30.97567" y1="108.98656" x2="35.29456" y2="110.22498" stroke="#228B22" stroke-width="0.04000"/>
      <line x1="30.98180" y1="108.88429" x2="35.25497" y2="110.10960" stroke="#228B22" stroke-width="0.04000"/>
      <line x1="40.31911" y1="109.27306" x2="43.15520" y2="110.08630" stroke="#228B22" stroke-width="0.04000"/>
      <line x1="39.56368" y1="108.95242" x2="43.49869" y2="110.08076" stroke="#228B22" stroke-width="0.04000"/>
      <line x1="39.15317" y1="108.73067" x2="43.78587" y2="110.05908" stroke="#228B22" stroke-width="0.04000"/>
      <line x1="38.61650" y1="108.47276" x2="44.06007" y2="110.03368" stroke="#228B22" stroke-width="0.04000"/>
      <line x1="41.35170" y1="109.67319" x2="42.60759" y2="110.03331" stroke="#228B22" stroke-width="0.04000"/>
      <line x1="38.30209" y1="108.27857" x2="44.34428" y2="110.01114" stroke="#228B22" stroke-width="0.04000"/>
      <line x1="30.98215" y1="108.78036" x2="35.21538" y2="109.99422" stroke="#228B22" stroke-width="0.04000"/>
      <line x1="37.98771" y1="108.08440" x2="44.58144" y2="109.97512" stroke="#228B22" stroke-width="0.04000"/>
      <line x1="37.50383" y1="107.84162" x2="44.79162" y2="109.93136" stroke="#228B22" stroke-width="0.04000"/>
      <line x1="30.96308" y1="108.67086" x2="35.18848" y2="109.88248" stroke="#228B22" stroke-width="0.04000"/>
      <line x1="37.25225" y1="107.66545" x2="44.90465" y2="109.85973" stroke="#228B22" stroke-width="0.04000"/>
      <line x1="29.40622" y1="105.31161" x2="45.01118" y2="109.78626" stroke="#228B22" stroke-width="0.04000"/>
      <line x1="30.94401" y1="108.56137" x2="35.17416" y2="109.77435" stroke="#228B22" stroke-width="0.04000"/>
      <line x1="29.32995" y1="105.18570" x2="45.11773" y2="109.71278" stroke="#228B22" stroke-width="0.04000"/>
      <line x1="30.92494" y1="108.45187" x2="35.15984" y2="109.66621" stroke="#228B22" stroke-width="0.04000"/>
      <line x1="29.25481" y1="105.06013" x2="45.22426" y2="109.63930" stroke="#228B22" stroke-width="0.04000"/>
      <line x1="29.17983" y1="104.93459" x2="45.30867" y2="109.55946" stroke="#228B22" stroke-width="0.04000"/>
      <line x1="30.90587" y1="108.34238" x2="35.14552" y2="109.55807" stroke="#228B22" stroke-width="0.04000"/>
      <line x1="29.10485" y1="104.80907" x2="45.37981" y2="109.47584" stroke="#228B22" stroke-width="0.04000"/>
      <line x1="30.88680" y1="108.23287" x2="35.13120" y2="109.44993" stroke="#228B22" stroke-width="0.04000"/>
      <line x1="29.02986" y1="104.68353" x2="45.45097" y2="109.39221" stroke="#228B22" stroke-width="0.04000"/>
      <line x1="30.86773" y1="108.12337" x2="35.11687" y2="109.34180" stroke="#228B22" stroke-width="0.04000"/>
      <line x1="28.95488" y1="104.55801" x2="45.52211" y2="109.30859" stroke="#228B22" stroke-width="0.04000"/>
      <line x1="30.86150" y1="108.01756" x2="35.10157" y2="109.23338" stroke="#228B22" stroke-width="0.04000"/>
      <line x1="28.87990" y1="104.43248" x2="45.59326" y2="109.22495" stroke="#228B22" stroke-width="0.04000"/>
      <line x1="28.80491" y1="104.30695" x2="45.66441" y2="109.14133" stroke="#228B22" stroke-width="0.04000"/>
      <line x1="30.87536" y1="107.91750" x2="35.08527" y2="109.12468" stroke="#228B22" stroke-width="0.04000"/>
      <line x1="28.73315" y1="104.18234" x2="45.69534" y2="109.04617" stroke="#228B22" stroke-width="0.04000"/>
      <line x1="30.84946" y1="107.80605" x2="35.06898" y2="109.01598" stroke="#228B22" stroke-width="0.04000"/>
      <line x1="28.66747" y1="104.05947" x2="45.72443" y2="108.95048" stroke="#228B22" stroke-width="0.04000"/>
      <line x1="30.80215" y1="107.68845" x2="35.05268" y2="108.90727" stroke="#228B22" stroke-width="0.04000"/>
      <line x1="28.60180" y1="103.93661" x2="45.75352" y2="108.85479" stroke="#228B22" stroke-width="0.04000"/>
      <line x1="30.73615" y1="107.56550" x2="35.03036" y2="108.79684" stroke="#228B22" stroke-width="0.04000"/>
      <line x1="28.53611" y1="103.81374" x2="45.78262" y2="108.75910" stroke="#228B22" stroke-width="0.04000"/>
      <line x1="30.67015" y1="107.44254" x2="35.04746" y2="108.69772" stroke="#228B22" stroke-width="0.04000"/>
      <line x1="28.47044" y1="103.69089" x2="45.81171" y2="108.66342" stroke="#228B22" stroke-width="0.04000"/>
      <line x1="30.60415" y1="107.31959" x2="35.06549" y2="108.59885" stroke="#228B22" stroke-width="0.04000"/>
      <line x1="28.40476" y1="103.56802" x2="45.81127" y2="108.55926" stroke="#228B22" stroke-width="0.04000"/>
      <line x1="30.53815" y1="107.19663" x2="35.08352" y2="108.49999" stroke="#228B22" stroke-width="0.04000"/>
      <line x1="28.33908" y1="103.44516" x2="45.79742" y2="108.45126" stroke="#228B22" stroke-width="0.04000"/>
      <line x1="30.47216" y1="107.07368" x2="35.10155" y2="108.40114" stroke="#228B22" stroke-width="0.04000"/>
      <line x1="28.27340" y1="103.32230" x2="45.78356" y2="108.34325" stroke="#228B22" stroke-width="0.04000"/>
      <line x1="30.40616" y1="106.95072" x2="35.11958" y2="108.30228" stroke="#228B22" stroke-width="0.04000"/>
      <line x1="28.20772" y1="103.19943" x2="45.72948" y2="108.22372" stroke="#228B22" stroke-width="0.04000"/>
      <line x1="30.34211" y1="106.82833" x2="35.13761" y2="108.20341" stroke="#228B22" stroke-width="0.04000"/>
      <line x1="30.27844" y1="106.70604" x2="35.15482" y2="108.10432" stroke="#228B22" stroke-width="0.04000"/>
      <line x1="28.14670" y1="103.07790" x2="45.59988" y2="108.08252" stroke="#228B22" stroke-width="0.04000"/>
      <line x1="30.21476" y1="106.58375" x2="35.17076" y2="108.00486" stroke="#228B22" stroke-width="0.04000"/>
      <line x1="28.14291" y1="102.97279" x2="45.46714" y2="107.94043" stroke="#228B22" stroke-width="0.04000"/>
      <line x1="30.14651" y1="106.46015" x2="35.18670" y2="107.90540" stroke="#228B22" stroke-width="0.04000"/>
      <line x1="30.05759" y1="106.33062" x2="35.23825" y2="107.81615" stroke="#228B22" stroke-width="0.04000"/>
      <line x1="28.13913" y1="102.86768" x2="45.33247" y2="107.79778" stroke="#228B22" stroke-width="0.04000"/>
      <line x1="29.96867" y1="106.20110" x2="35.32854" y2="107.73801" stroke="#228B22" stroke-width="0.04000"/>
      <line x1="29.87975" y1="106.07156" x2="35.41884" y2="107.65987" stroke="#228B22" stroke-width="0.04000"/>
      <line x1="28.13534" y1="102.76256" x2="45.20057" y2="107.65593" stroke="#228B22" stroke-width="0.04000"/>
      <line x1="29.79875" y1="105.94431" x2="35.50913" y2="107.58173" stroke="#228B22" stroke-width="0.04000"/>
      <line x1="28.13156" y1="102.65744" x2="45.07841" y2="107.51688" stroke="#228B22" stroke-width="0.04000"/>
      <line x1="29.71978" y1="105.81763" x2="35.59943" y2="107.50359" stroke="#228B22" stroke-width="0.04000"/>
      <line x1="29.64082" y1="105.69096" x2="35.68971" y2="107.42546" stroke="#228B22" stroke-width="0.04000"/>
      <line x1="28.12777" y1="102.55232" x2="44.95625" y2="107.37782" stroke="#228B22" stroke-width="0.04000"/>
      <line x1="29.56185" y1="105.56429" x2="35.78001" y2="107.34732" stroke="#228B22" stroke-width="0.04000"/>
      <line x1="29.48289" y1="105.43761" x2="35.87030" y2="107.26918" stroke="#228B22" stroke-width="0.04000"/>
      <line x1="28.12398" y1="102.44721" x2="44.83410" y2="107.23876" stroke="#228B22" stroke-width="0.04000"/>
      <line x1="28.12020" y1="102.34209" x2="44.71193" y2="107.09969" stroke="#228B22" stroke-width="0.04000"/>
      <line x1="28.11641" y1="102.23698" x2="44.52470" y2="106.94198" stroke="#228B22" stroke-width="0.04000"/>
      <line x1="28.11262" y1="102.13187" x2="44.34340" y2="106.78596" stroke="#228B22" stroke-width="0.04000"/>
      <line x1="28.10884" y1="102.02675" x2="44.16722" y2="106.63142" stroke="#228B22" stroke-width="0.04000"/>
      <line x1="28.10505" y1="101.92164" x2="43.99105" y2="106.47688" stroke="#228B22" stroke-width="0.04000"/>
      <line x1="28.10749" y1="101.81830" x2="43.81487" y2="106.32232" stroke="#228B22" stroke-width="0.04000"/>
      <line x1="28.13279" y1="101.72153" x2="43.55475" y2="106.14371" stroke="#228B22" stroke-width="0.04000"/>
      <line x1="28.15878" y1="101.62495" x2="43.31030" y2="105.96957" stroke="#228B22" stroke-width="0.04000"/>
      <line x1="28.18477" y1="101.52837" x2="43.09351" y2="105.80339" stroke="#228B22" stroke-width="0.04000"/>
      <line x1="28.21077" y1="101.43179" x2="42.86637" y2="105.63422" stroke="#228B22" stroke-width="0.04000"/>
      <line x1="28.23676" y1="101.33522" x2="42.57958" y2="105.44796" stroke="#228B22" stroke-width="0.04000"/>
      <line x1="28.26275" y1="101.23865" x2="42.33789" y2="105.27463" stroke="#228B22" stroke-width="0.04000"/>
      <line x1="28.28875" y1="101.14207" x2="42.12421" y2="105.10932" stroke="#228B22" stroke-width="0.04000"/>
      <line x1="28.31474" y1="101.04549" x2="41.73158" y2="104.89271" stroke="#228B22" stroke-width="0.04000"/>
      <line x1="28.34074" y1="100.94891" x2="41.38166" y2="104.68834" stroke="#228B22" stroke-width="0.04000"/>
      <line x1="28.36673" y1="100.85234" x2="41.11744" y2="104.50855" stroke="#228B22" stroke-width="0.04000"/>
      <line x1="28.39272" y1="100.75576" x2="40.79567" y2="104.31225" stroke="#228B22" stroke-width="0.04000"/>
      <line x1="28.42254" y1="100.66029" x2="40.30901" y2="104.06867" stroke="#228B22" stroke-width="0.04000"/>
      <line x1="28.45336" y1="100.56509" x2="39.95676" y2="103.86363" stroke="#228B22" stroke-width="0.04000"/>
      <line x1="28.48802" y1="100.47100" x2="39.60926" y2="103.65997" stroke="#228B22" stroke-width="0.04000"/>
      <line x1="28.52620" y1="100.37791" x2="39.37462" y2="103.48865" stroke="#228B22" stroke-width="0.04000"/>
      <line x1="28.56438" y1="100.28484" x2="39.29484" y2="103.36175" stroke="#228B22" stroke-width="0.04000"/>
      <line x1="28.60256" y1="100.19176" x2="39.21506" y2="103.23484" stroke="#228B22" stroke-width="0.04000"/>
      <line x1="28.64075" y1="100.09867" x2="39.13528" y2="103.10793" stroke="#228B22" stroke-width="0.04000"/>
      <line x1="28.67893" y1="100.00559" x2="39.05550" y2="102.98103" stroke="#228B22" stroke-width="0.04000"/>
      <line x1="28.71711" y1="99.91251" x2="38.97571" y2="102.85412" stroke="#228B22" stroke-width="0.04000"/>
      <line x1="28.75529" y1="99.81943" x2="38.90694" y2="102.73037" stroke="#228B22" stroke-width="0.04000"/>
      <line x1="28.79883" y1="99.72788" x2="38.83948" y2="102.60699" stroke="#228B22" stroke-width="0.04000"/>
      <line x1="28.84351" y1="99.63667" x2="38.77202" y2="102.48362" stroke="#228B22" stroke-width="0.04000"/>
      <line x1="28.88820" y1="99.54545" x2="38.74754" y2="102.37257" stroke="#228B22" stroke-width="0.04000"/>
      <line x1="28.93289" y1="99.45423" x2="38.73047" y2="102.26364" stroke="#228B22" stroke-width="0.04000"/>
      <line x1="28.98201" y1="99.36429" x2="38.71339" y2="102.15472" stroke="#228B22" stroke-width="0.04000"/>
      <line x1="29.03371" y1="99.27509" x2="38.69632" y2="102.04579" stroke="#228B22" stroke-width="0.04000"/>
      <line x1="29.08541" y1="99.18588" x2="38.67924" y2="101.93687" stroke="#228B22" stroke-width="0.04000"/>
      <line x1="29.13711" y1="99.09667" x2="38.66217" y2="101.82793" stroke="#228B22" stroke-width="0.04000"/>
      <line x1="29.18881" y1="99.00747" x2="38.62948" y2="101.71454" stroke="#228B22" stroke-width="0.04000"/>
      <line x1="29.24051" y1="98.91826" x2="38.59586" y2="101.60087" stroke="#228B22" stroke-width="0.04000"/>
      <line x1="29.30169" y1="98.83178" x2="38.56226" y2="101.48720" stroke="#228B22" stroke-width="0.04000"/>
      <line x1="29.36503" y1="98.74590" x2="38.54474" y2="101.37814" stroke="#228B22" stroke-width="0.04000"/>
      <line x1="29.42837" y1="98.66004" x2="38.52897" y2="101.26959" stroke="#228B22" stroke-width="0.04000"/>
      <line x1="29.49172" y1="98.57417" x2="38.50737" y2="101.15937" stroke="#228B22" stroke-width="0.04000"/>
      <line x1="29.55604" y1="98.48859" x2="38.47430" y2="101.04586" stroke="#228B22" stroke-width="0.04000"/>
      <line x1="29.62073" y1="98.40311" x2="38.44122" y2="100.93234" stroke="#228B22" stroke-width="0.04000"/>
      <line x1="29.68542" y1="98.31763" x2="38.40814" y2="100.81882" stroke="#228B22" stroke-width="0.04000"/>
      <line x1="29.75011" y1="98.23215" x2="38.37506" y2="100.70531" stroke="#228B22" stroke-width="0.04000"/>
      <line x1="29.81480" y1="98.14667" x2="38.34198" y2="100.59180" stroke="#228B22" stroke-width="0.04000"/>
      <line x1="29.89129" y1="98.06458" x2="38.30891" y2="100.47829" stroke="#228B22" stroke-width="0.04000"/>
      <line x1="29.96962" y1="97.98300" x2="38.28843" y2="100.36838" stroke="#228B22" stroke-width="0.04000"/>
      <line x1="30.04794" y1="97.90143" x2="38.27323" y2="100.25999" stroke="#228B22" stroke-width="0.04000"/>
      <line x1="30.12626" y1="97.81985" x2="38.25803" y2="100.15160" stroke="#228B22" stroke-width="0.04000"/>
      <line x1="30.20458" y1="97.73829" x2="38.24283" y2="100.04322" stroke="#228B22" stroke-width="0.04000"/>
      <line x1="30.28291" y1="97.65672" x2="38.22763" y2="99.93483" stroke="#228B22" stroke-width="0.04000"/>
      <line x1="30.36476" y1="97.57616" x2="38.21244" y2="99.82644" stroke="#228B22" stroke-width="0.04000"/>
      <line x1="30.45450" y1="97.49786" x2="38.19724" y2="99.71806" stroke="#228B22" stroke-width="0.04000"/>
      <line x1="30.55428" y1="97.42244" x2="38.18204" y2="99.60966" stroke="#228B22" stroke-width="0.04000"/>
      <line x1="30.66342" y1="97.34971" x2="38.15075" y2="99.49667" stroke="#228B22" stroke-width="0.04000"/>
      <line x1="30.77256" y1="97.27697" x2="38.11184" y2="99.38148" stroke="#228B22" stroke-width="0.04000"/>
      <line x1="30.88170" y1="97.20424" x2="38.07536" y2="99.26699" stroke="#228B22" stroke-width="0.04000"/>
      <line x1="30.99084" y1="97.13150" x2="38.02988" y2="99.14992" stroke="#228B22" stroke-width="0.04000"/>
      <line x1="31.09998" y1="97.05877" x2="37.98441" y2="99.03284" stroke="#228B22" stroke-width="0.04000"/>
      <line x1="31.21173" y1="96.98679" x2="37.93893" y2="98.91578" stroke="#228B22" stroke-width="0.04000"/>
      <line x1="31.36524" y1="96.92677" x2="37.89346" y2="98.79871" stroke="#228B22" stroke-width="0.04000"/>
      <line x1="31.51925" y1="96.86691" x2="37.84798" y2="98.68164" stroke="#228B22" stroke-width="0.04000"/>
      <line x1="31.67327" y1="96.80704" x2="37.80251" y2="98.56457" stroke="#228B22" stroke-width="0.04000"/>
      <line x1="31.82728" y1="96.74717" x2="37.75703" y2="98.44750" stroke="#228B22" stroke-width="0.04000"/>
      <line x1="31.99489" y1="96.69120" x2="37.70557" y2="98.32871" stroke="#228B22" stroke-width="0.04000"/>
      <line x1="32.19256" y1="96.64385" x2="37.59594" y2="98.19324" stroke="#228B22" stroke-width="0.04000"/>
      <line x1="32.39500" y1="96.59787" x2="37.51969" y2="98.06735" stroke="#228B22" stroke-width="0.04000"/>
      <line x1="32.61488" y1="96.55689" x2="37.44410" y2="97.94165" stroke="#228B22" stroke-width="0.04000"/>
      <line x1="32.84817" y1="96.51975" x2="37.36850" y2="97.81593" stroke="#228B22" stroke-width="0.04000"/>
      <line x1="33.13982" y1="96.49935" x2="37.29291" y2="97.69023" stroke="#228B22" stroke-width="0.04000"/>
      <line x1="33.43148" y1="96.47896" x2="37.21731" y2="97.56453" stroke="#228B22" stroke-width="0.04000"/>
      <line x1="33.76030" y1="96.46922" x2="37.13043" y2="97.43559" stroke="#228B22" stroke-width="0.04000"/>
      <line x1="34.34750" y1="96.53356" x2="36.91491" y2="97.26975" stroke="#228B22" stroke-width="0.04000"/>
      <line x1="35.00880" y1="96.61916" x2="36.69938" y2="97.10392" stroke="#228B22" stroke-width="0.04000"/>
      <line x1="35.97646" y1="96.79259" x2="36.43465" y2="96.92399" stroke="#228B22" stroke-width="0.04000"/>
    </g>
    <g class="thermal-hatch" data-segment="8" data-name="CoreNormalHatch">
      <line x1="33.75380" y1="96.75960" x2="33.75380" y2="96.75970" stroke="#228B22" stroke-width="0.04000"/>
      <line x1="33.75380" y1="96.75970" x2="34.58190" y2="96.85120" stroke="#228B22" stroke-width="0.04000"/>
      <line x1="34.58190" y1="96.85120" x2="35.23710" y2="96.94440" stroke="#228B22" stroke-width="0.04000"/>
      <line x1="35.23710" y1="96.94440" x2="35.41080" y2="96.99530" stroke="#228B22" stroke-width="0.04000"/>
      <line x1="35.41080" y1="96.99530" x2="36.06370" y2="97.10020" stroke="#228B22" stroke-width="0.04000"/>
      <line x1="36.06370" y1="97.10020" x2="36.23750" y2="97.14510" stroke="#228B22" stroke-width="0.04000"/>
      <line x1="36.23750" y1="97.14510" x2="36.39390" y2="97.23490" stroke="#228B22" stroke-width="0.04000"/>
      <line x1="36.39390" y1="97.23490" x2="36.92760" y2="97.64550" stroke="#228B22" stroke-width="0.04000"/>
      <line x1="36.92760" y1="97.64550" x2="37.35580" y2="98.35750" stroke="#228B22" stroke-width="0.04000"/>
      <line x1="37.35580" y1="98.35750" x2="37.46170" y2="98.48840" stroke="#228B22" stroke-width="0.04000"/>
      <line x1="37.46170" y1="98.48840" x2="37.82360" y2="99.41990" stroke="#228B22" stroke-width="0.04000"/>
      <line x1="37.82360" y1="99.41990" x2="37.84380" y2="99.52090" stroke="#228B22" stroke-width="0.04000"/>
      <line x1="37.84380" y1="99.52090" x2="37.89170" y2="99.62830" stroke="#228B22" stroke-width="0.04000"/>
      <line x1="37.89170" y1="99.62830" x2="38.01490" y2="100.50570" stroke="#228B22" stroke-width="0.04000"/>
      <line x1="38.01490" y1="100.50570" x2="38.23400" y2="101.25830" stroke="#228B22" stroke-width="0.04000"/>
      <line x1="38.23400" y1="101.25830" x2="38.27510" y2="101.53850" stroke="#228B22" stroke-width="0.04000"/>
      <line x1="38.27510" y1="101.53850" x2="38.37750" y2="101.88530" stroke="#228B22" stroke-width="0.04000"/>
      <line x1="38.37750" y1="101.88530" x2="38.48340" y2="102.56030" stroke="#228B22" stroke-width="0.04000"/>
      <line x1="38.48340" y1="102.56030" x2="38.71680" y2="102.98730" stroke="#228B22" stroke-width="0.04000"/>
      <line x1="38.71680" y1="102.98730" x2="39.19420" y2="103.74660" stroke="#228B22" stroke-width="0.04000"/>
      <line x1="39.19420" y1="103.74660" x2="39.32750" y2="103.83090" stroke="#228B22" stroke-width="0.04000"/>
      <line x1="39.32750" y1="103.83090" x2="40.16560" y2="104.32210" stroke="#228B22" stroke-width="0.04000"/>
      <line x1="40.16560" y1="104.32210" x2="40.29930" y2="104.38210" stroke="#228B22" stroke-width="0.04000"/>
      <line x1="40.29930" y1="104.38210" x2="40.58410" y2="104.52310" stroke="#228B22" stroke-width="0.04000"/>
      <line x1="40.58410" y1="104.52310" x2="41.05800" y2="104.81200" stroke="#228B22" stroke-width="0.04000"/>
      <line x1="41.05800" y1="104.81200" x2="41.29800" y2="104.98590" stroke="#228B22" stroke-width="0.04000"/>
      <line x1="41.29800" y1="104.98590" x2="41.95710" y2="105.34670" stroke="#228B22" stroke-width="0.04000"/>
      <line x1="41.95710" y1="105.34670" x2="42.30180" y2="105.61330" stroke="#228B22" stroke-width="0.04000"/>
      <line x1="42.30180" y1="105.61330" x2="42.74260" y2="105.89980" stroke="#228B22" stroke-width="0.04000"/>
      <line x1="42.74260" y1="105.89980" x2="43.28300" y2="106.31390" stroke="#228B22" stroke-width="0.04000"/>
      <line x1="43.28300" y1="106.31390" x2="43.58810" y2="106.50930" stroke="#228B22" stroke-width="0.04000"/>
      <line x1="43.58810" y1="106.50930" x2="44.32010" y2="107.15130" stroke="#228B22" stroke-width="0.04000"/>
      <line x1="44.32010" y1="107.15130" x2="44.37970" y2="107.19540" stroke="#228B22" stroke-width="0.04000"/>
      <line x1="44.37970" y1="107.19540" x2="44.50660" y2="107.30520" stroke="#228B22" stroke-width="0.04000"/>
      <line x1="44.50660" y1="107.30520" x2="45.01350" y2="107.88210" stroke="#228B22" stroke-width="0.04000"/>
      <line x1="45.01350" y1="107.88210" x2="45.33340" y2="108.22100" stroke="#228B22" stroke-width="0.04000"/>
      <line x1="45.33340" y1="108.22100" x2="45.43750" y2="108.33440" stroke="#228B22" stroke-width="0.04000"/>
      <line x1="45.43750" y1="108.33440" x2="45.34960" y2="108.66610" stroke="#228B22" stroke-width="0.04000"/>
      <line x1="45.34960" y1="108.66610" x2="45.21560" y2="109.10710" stroke="#228B22" stroke-width="0.04000"/>
      <line x1="45.21560" y1="109.10710" x2="45.09470" y2="109.24910" stroke="#228B22" stroke-width="0.04000"/>
      <line x1="45.09470" y1="109.24910" x2="44.65290" y2="109.55380" stroke="#228B22" stroke-width="0.04000"/>
      <line x1="44.65290" y1="109.55380" x2="44.45150" y2="109.70580" stroke="#228B22" stroke-width="0.04000"/>
      <line x1="44.45150" y1="109.70580" x2="44.40200" y2="109.71620" stroke="#228B22" stroke-width="0.04000"/>
      <line x1="44.40200" y1="109.71620" x2="44.13260" y2="109.73570" stroke="#228B22" stroke-width="0.04000"/>
      <line x1="44.13260" y1="109.73570" x2="43.54720" y2="109.78970" stroke="#228B22" stroke-width="0.04000"/>
      <line x1="43.54720" y1="109.78970" x2="42.93850" y2="109.79950" stroke="#228B22" stroke-width="0.04000"/>
      <line x1="42.93850" y1="109.79950" x2="42.77350" y2="109.77670" stroke="#228B22" stroke-width="0.04000"/>
      <line x1="42.77350" y1="109.77670" x2="42.50650" y2="109.70780" stroke="#228B22" stroke-width="0.04000"/>
      <line x1="42.50650" y1="109.70780" x2="42.50660" y2="109.70780" stroke="#228B22" stroke-width="0.04000"/>
      <line x1="42.50660" y1="109.70780" x2="41.92380" y2="109.54990" stroke="#228B22" stroke-width="0.04000"/>
      <line x1="41.92380" y1="109.54990" x2="41.72100" y2="109.50790" stroke="#228B22" stroke-width="0.04000"/>
      <line x1="41.72100" y1="109.50790" x2="41.10820" y2="109.26440" stroke="#228B22" stroke-width="0.04000"/>
      <line x1="41.10820" y1="109.26440" x2="40.68010" y2="109.11770" stroke="#228B22" stroke-width="0.04000"/>
      <line x1="40.68010" y1="109.11770" x2="40.17940" y2="108.89180" stroke="#228B22" stroke-width="0.04000"/>
      <line x1="40.17940" y1="108.89180" x2="39.67260" y2="108.68360" stroke="#228B22" stroke-width="0.04000"/>
      <line x1="39.67260" y1="108.68360" x2="39.16180" y2="108.40500" stroke="#228B22" stroke-width="0.04000"/>
      <line x1="39.16180" y1="108.40500" x2="38.78230" y2="108.23410" stroke="#228B22" stroke-width="0.04000"/>
      <line x1="38.78230" y1="108.23410" x2="38.09580" y2="107.81020" stroke="#228B22" stroke-width="0.04000"/>
      <line x1="38.09580" y1="107.81020" x2="37.86560" y2="107.74090" stroke="#228B22" stroke-width="0.04000"/>
      <line x1="37.86560" y1="107.74090" x2="37.12150" y2="107.21980" stroke="#228B22" stroke-width="0.04000"/>
      <line x1="37.12150" y1="107.21980" x2="36.74580" y2="107.19020" stroke="#228B22" stroke-width="0.04000"/>
      <line x1="36.74580" y1="107.19020" x2="35.89910" y2="106.86090" stroke="#228B22" stroke-width="0.04000"/>
      <line x1="35.89910" y1="106.86090" x2="35.02680" y2="107.61560" stroke="#228B22" stroke-width="0.04000"/>
      <line x1="35.02680" y1="107.61560" x2="34.92600" y2="107.70020" stroke="#228B22" stroke-width="0.04000"/>
      <line x1="34.92600" y1="107.70020" x2="34.86290" y2="108.09280" stroke="#228B22" stroke-width="0.04000"/>
      <line x1="34.86290" y1="108.09280" x2="34.73230" y2="108.80960" stroke="#228B22" stroke-width="0.04000"/>
      <line x1="34.73230" y1="108.80960" x2="34.75800" y2="108.89940" stroke="#228B22" stroke-width="0.04000"/>
      <line x1="34.75800" y1="108.89940" x2="34.82290" y2="109.33070" stroke="#228B22" stroke-width="0.04000"/>
      <line x1="34.82290" y1="109.33070" x2="34.90740" y2="109.96880" stroke="#228B22" stroke-width="0.04000"/>
      <line x1="34.90740" y1="109.96880" x2="34.92540" y2="110.04290" stroke="#228B22" stroke-width="0.04000"/>
      <line x1="34.92540" y1="110.04290" x2="35.22930" y2="110.92890" stroke="#228B22" stroke-width="0.04000"/>
      <line x1="35.22930" y1="110.92890" x2="35.35290" y2="111.41370" stroke="#228B22" stroke-width="0.04000"/>
      <line x1="35.35290" y1="111.41370" x2="35.35290" y2="111.41380" stroke="#228B22" stroke-width="0.04000"/>
      <line x1="35.35290" y1="111.41380" x2="35.46200" y2="111.85660" stroke="#228B22" stroke-width="0.04000"/>
      <line x1="35.46200" y1="111.85660" x2="35.47420" y2="112.33820" stroke="#228B22" stroke-width="0.04000"/>
      <line x1="35.47420" y1="112.33820" x2="35.51230" y2="113.02370" stroke="#228B22" stroke-width="0.04000"/>
      <line x1="35.51230" y1="113.02370" x2="35.54410" y2="113.33920" stroke="#228B22" stroke-width="0.04000"/>
      <line x1="35.54410" y1="113.33920" x2="35.54410" y2="113.33930" stroke="#228B22" stroke-width="0.04000"/>
      <line x1="35.54410" y1="113.33930" x2="35.57790" y2="113.82640" stroke="#228B22" stroke-width="0.04000"/>
      <line x1="35.57790" y1="113.82640" x2="35.57430" y2="114.32280" stroke="#228B22" stroke-width="0.04000"/>
      <line x1="35.57430" y1="114.32280" x2="35.56630" y2="114.68960" stroke="#228B22" stroke-width="0.04000"/>
      <line x1="35.56630" y1="114.68960" x2="35.55110" y2="115.29520" stroke="#228B22" stroke-width="0.04000"/>
      <line x1="35.55110" y1="115.29520" x2="35.53950" y2="115.97230" stroke="#228B22" stroke-width="0.04000"/>
      <line x1="35.53950" y1="115.97230" x2="35.50690" y2="116.29180" stroke="#228B22" stroke-width="0.04000"/>
      <line x1="35.50690" y1="116.29180" x2="35.46790" y2="116.63460" stroke="#228B22" stroke-width="0.04000"/>
      <line x1="35.46790" y1="116.63460" x2="35.38050" y2="117.31620" stroke="#228B22" stroke-width="0.04000"/>
      <line x1="35.38050" y1="117.31620" x2="35.32440" y2="117.79050" stroke="#228B22" stroke-width="0.04000"/>
      <line x1="35.32440" y1="117.79050" x2="35.21830" y2="118.19750" stroke="#228B22" stroke-width="0.04000"/>
      <line x1="35.21830" y1="118.19750" x2="35.00230" y2="119.11640" stroke="#228B22" stroke-width="0.04000"/>
      <line x1="35.00230" y1="119.11640" x2="34.97340" y2="119.23820" stroke="#228B22" stroke-width="0.04000"/>
      <line x1="34.97340" y1="119.23820" x2="34.95590" y2="119.30990" stroke="#228B22" stroke-width="0.04000"/>
      <line x1="34.95590" y1="119.30990" x2="34.69310" y2="120.13930" stroke="#228B22" stroke-width="0.04000"/>
      <line x1="34.69310" y1="120.13930" x2="34.47010" y2="120.91160" stroke="#228B22" stroke-width="0.04000"/>
      <line x1="34.47010" y1="120.91160" x2="34.41240" y2="121.10360" stroke="#228B22" stroke-width="0.04000"/>
      <line x1="34.41240" y1="121.10360" x2="34.37570" y2="121.30490" stroke="#228B22" stroke-width="0.04000"/>
      <line x1="34.37570" y1="121.30490" x2="34.14390" y2="122.10080" stroke="#228B22" stroke-width="0.04000"/>
      <line x1="34.14390" y1="122.10080" x2="34.00610" y2="122.76320" stroke="#228B22" stroke-width="0.04000"/>
      <line x1="34.00610" y1="122.76320" x2="33.74860" y2="122.94390" stroke="#228B22" stroke-width="0.04000"/>
      <line x1="33.74860" y1="122.94390" x2="33.59050" y2="122.95830" stroke="#228B22" stroke-width="0.04000"/>
      <line x1="33.59050" y1="122.95830" x2="33.48200" y2="122.68720" stroke="#228B22" stroke-width="0.04000"/>
      <line x1="33.48200" y1="122.68720" x2="33.04700" y2="121.95730" stroke="#228B22" stroke-width="0.04000"/>
      <line x1="33.04700" y1="121.95730" x2="32.99000" y2="121.83130" stroke="#228B22" stroke-width="0.04000"/>
      <line x1="32.99000" y1="121.83130" x2="32.94860" y2="121.76100" stroke="#228B22" stroke-width="0.04000"/>
      <line x1="32.94860" y1="121.76100" x2="32.81150" y2="121.00780" stroke="#228B22" stroke-width="0.04000"/>
      <line x1="32.81150" y1="121.00780" x2="32.81160" y2="121.00780" stroke="#228B22" stroke-width="0.04000"/>
      <line x1="32.81160" y1="121.00780" x2="32.69800" y2="120.32840" stroke="#228B22" stroke-width="0.04000"/>
      <line x1="32.69800" y1="120.32840" x2="32.67380" y2="120.11710" stroke="#228B22" stroke-width="0.04000"/>
      <line x1="32.67380" y1="120.11710" x2="32.61120" y2="119.80800" stroke="#228B22" stroke-width="0.04000"/>
      <line x1="32.61120" y1="119.80800" x2="32.50080" y2="119.11570" stroke="#228B22" stroke-width="0.04000"/>
      <line x1="32.50080" y1="119.11570" x2="32.44520" y2="118.69670" stroke="#228B22" stroke-width="0.04000"/>
      <line x1="32.44520" y1="118.69670" x2="32.37190" y2="118.14190" stroke="#228B22" stroke-width="0.04000"/>
      <line x1="32.37190" y1="118.14190" x2="32.37200" y2="118.14190" stroke="#228B22" stroke-width="0.04000"/>
      <line x1="32.37200" y1="118.14190" x2="32.25480" y2="117.23380" stroke="#228B22" stroke-width="0.04000"/>
      <line x1="32.25480" y1="117.23380" x2="32.24510" y2="117.14530" stroke="#228B22" stroke-width="0.04000"/>
      <line x1="32.24510" y1="117.14530" x2="32.22730" y2="117.01380" stroke="#228B22" stroke-width="0.04000"/>
      <line x1="32.22730" y1="117.01380" x2="32.11290" y2="116.19700" stroke="#228B22" stroke-width="0.04000"/>
      <line x1="32.11290" y1="116.19700" x2="32.06440" y2="115.78270" stroke="#228B22" stroke-width="0.04000"/>
      <line x1="32.06440" y1="115.78270" x2="32.01170" y2="115.16920" stroke="#228B22" stroke-width="0.04000"/>
      <line x1="32.01170" y1="115.16920" x2="31.93970" y2="114.63050" stroke="#228B22" stroke-width="0.04000"/>
      <line x1="31.93970" y1="114.63050" x2="31.86410" y2="114.26890" stroke="#228B22" stroke-width="0.04000"/>
      <line x1="31.86410" y1="114.26890" x2="31.83120" y2="113.67730" stroke="#228B22" stroke-width="0.04000"/>
      <line x1="31.83120" y1="113.67730" x2="31.72530" y2="113.36890" stroke="#228B22" stroke-width="0.04000"/>
      <line x1="31.72530" y1="113.36890" x2="31.69040" y2="113.22080" stroke="#228B22" stroke-width="0.04000"/>
      <line x1="31.69040" y1="113.22080" x2="31.62240" y2="112.41900" stroke="#228B22" stroke-width="0.04000"/>
      <line x1="31.62240" y1="112.41900" x2="31.56070" y2="112.08440" stroke="#228B22" stroke-width="0.04000"/>
      <line x1="31.56070" y1="112.08440" x2="31.40100" y2="111.24510" stroke="#228B22" stroke-width="0.04000"/>
      <line x1="31.40100" y1="111.24510" x2="31.42800" y2="110.93770" stroke="#228B22" stroke-width="0.04000"/>
      <line x1="31.42800" y1="110.93770" x2="31.33750" y2="110.21190" stroke="#228B22" stroke-width="0.04000"/>
      <line x1="31.33750" y1="110.21190" x2="31.25460" y2="109.78960" stroke="#228B22" stroke-width="0.04000"/>
      <line x1="31.25460" y1="109.78960" x2="31.22770" y2="109.62340" stroke="#228B22" stroke-width="0.04000"/>
      <line x1="31.22770" y1="109.62340" x2="31.27800" y2="108.78900" stroke="#228B22" stroke-width="0.04000"/>
      <line x1="31.27800" y1="108.78900" x2="31.14940" y2="108.05150" stroke="#228B22" stroke-width="0.04000"/>
      <line x1="31.14940" y1="108.05150" x2="31.17090" y2="107.90830" stroke="#228B22" stroke-width="0.04000"/>
      <line x1="31.17090" y1="107.90830" x2="31.11120" y2="107.65090" stroke="#228B22" stroke-width="0.04000"/>
      <line x1="31.11120" y1="107.65090" x2="30.65110" y2="106.79390" stroke="#228B22" stroke-width="0.04000"/>
      <line x1="30.65110" y1="106.79390" x2="30.41170" y2="106.33400" stroke="#228B22" stroke-width="0.04000"/>
      <line x1="30.41170" y1="106.33400" x2="30.10550" y2="105.88810" stroke="#228B22" stroke-width="0.04000"/>
      <line x1="30.10550" y1="105.88810" x2="29.71280" y2="105.25810" stroke="#228B22" stroke-width="0.04000"/>
      <line x1="29.71280" y1="105.25810" x2="29.56910" y2="105.02090" stroke="#228B22" stroke-width="0.04000"/>
      <line x1="29.56910" y1="105.02090" x2="29.56920" y2="105.02090" stroke="#228B22" stroke-width="0.04000"/>
      <line x1="29.56920" y1="105.02090" x2="29.01890" y2="104.09970" stroke="#228B22" stroke-width="0.04000"/>
      <line x1="29.01890" y1="104.09970" x2="29.01880" y2="104.09970" stroke="#228B22" stroke-width="0.04000"/>
      <line x1="29.01880" y1="104.09970" x2="29.00640" y2="104.07860" stroke="#228B22" stroke-width="0.04000"/>
      <line x1="29.00640" y1="104.07860" x2="28.43420" y2="103.00820" stroke="#228B22" stroke-width="0.04000"/>
      <line x1="28.43420" y1="103.00820" x2="28.39310" y2="101.86970" stroke="#228B22" stroke-width="0.04000"/>
      <line x1="28.39310" y1="101.86970" x2="28.67710" y2="100.81470" stroke="#228B22" stroke-width="0.04000"/>
      <line x1="28.67710" y1="100.81470" x2="28.74010" y2="100.62030" stroke="#228B22" stroke-width="0.04000"/>
      <line x1="28.74010" y1="100.62030" x2="29.02650" y2="99.92200" stroke="#228B22" stroke-width="0.04000"/>
      <line x1="29.02650" y1="99.92200" x2="29.20550" y2="99.55670" stroke="#228B22" stroke-width="0.04000"/>
      <line x1="29.20550" y1="99.55670" x2="29.49230" y2="99.06160" stroke="#228B22" stroke-width="0.04000"/>
      <line x1="29.49230" y1="99.06160" x2="29.74860" y2="98.71420" stroke="#228B22" stroke-width="0.04000"/>
      <line x1="29.74860" y1="98.71420" x2="29.74870" y2="98.71430" stroke="#228B22" stroke-width="0.04000"/>
      <line x1="29.74870" y1="98.71430" x2="30.04420" y2="98.32370" stroke="#228B22" stroke-width="0.04000"/>
      <line x1="30.04420" y1="98.32370" x2="30.53720" y2="97.81020" stroke="#228B22" stroke-width="0.04000"/>
      <line x1="30.53720" y1="97.81020" x2="30.67370" y2="97.69120" stroke="#228B22" stroke-width="0.04000"/>
      <line x1="30.67370" y1="97.69120" x2="31.31840" y2="97.26170" stroke="#228B22" stroke-width="0.04000"/>
      <line x1="31.31840" y1="97.26170" x2="31.31830" y2="97.26160" stroke="#228B22" stroke-width="0.04000"/>
      <line x1="31.31830" y1="97.26160" x2="31.34070" y2="97.24720" stroke="#228B22" stroke-width="0.04000"/>
      <line x1="31.34070" y1="97.24720" x2="32.01940" y2="96.98340" stroke="#228B22" stroke-width="0.04000"/>
      <line x1="32.01940" y1="96.98340" x2="32.40930" y2="96.89020" stroke="#228B22" stroke-width="0.04000"/>
      <line x1="32.40930" y1="96.89020" x2="32.82950" y2="96.81180" stroke="#228B22" stroke-width="0.04000"/>
      <line x1="32.82950" y1="96.81180" x2="33.62200" y2="96.75630" stroke="#228B22" stroke-width="0.04000"/>
      <line x1="33.62200" y1="96.75630" x2="33.70660" y2="96.75540" stroke="#228B22" stroke-width="0.04000"/>
      <line x1="33.70660" y1="96.75540" x2="33.75380" y2="96.75960" stroke="#228B22" stroke-width="0.04000"/>
    </g>
    <g class="thermal-hatch" data-segment="7" data-name="CoreOverhangHatch">
      <line x1="33.97090" y1="122.93300" x2="33.59420" y2="122.96750" stroke="#FF8C00" stroke-width="0.04000"/>
      <line x1="33.59420" y1="122.96750" x2="33.59050" y2="122.95830" stroke="#FF8C00" stroke-width="0.04000"/>
      <line x1="33.59050" y1="122.95830" x2="33.74860" y2="122.94390" stroke="#FF8C00" stroke-width="0.04000"/>
      <line x1="33.74860" y1="122.94390" x2="34.00610" y2="122.76320" stroke="#FF8C00" stroke-width="0.04000"/>
      <line x1="34.00610" y1="122.76320" x2="33.97090" y2="122.93300" stroke="#FF8C00" stroke-width="0.04000"/>
      <line x1="45.49840" y1="108.40080" x2="45.52500" y2="108.60860" stroke="#FF8C00" stroke-width="0.04000"/>
      <line x1="45.52500" y1="108.60860" x2="45.40740" y2="108.99570" stroke="#FF8C00" stroke-width="0.04000"/>
      <line x1="45.40740" y1="108.99570" x2="45.06780" y2="109.39470" stroke="#FF8C00" stroke-width="0.04000"/>
      <line x1="45.06780" y1="109.39470" x2="44.68820" y2="109.65660" stroke="#FF8C00" stroke-width="0.04000"/>
      <line x1="44.68820" y1="109.65660" x2="44.45150" y2="109.70580" stroke="#FF8C00" stroke-width="0.04000"/>
      <line x1="44.45150" y1="109.70580" x2="44.65290" y2="109.55380" stroke="#FF8C00" stroke-width="0.04000"/>
      <line x1="44.65290" y1="109.55380" x2="45.09470" y2="109.24910" stroke="#FF8C00" stroke-width="0.04000"/>
      <line x1="45.09470" y1="109.24910" x2="45.21560" y2="109.10710" stroke="#FF8C00" stroke-width="0.04000"/>
      <line x1="45.21560" y1="109.10710" x2="45.34960" y2="108.66610" stroke="#FF8C00" stroke-width="0.04000"/>
      <line x1="45.34960" y1="108.66610" x2="45.43750" y2="108.33440" stroke="#FF8C00" stroke-width="0.04000"/>
      <line x1="45.43750" y1="108.33440" x2="45.49840" y2="108.40080" stroke="#FF8C00" stroke-width="0.04000"/>
    </g>
    <g class="thermal-contour" data-segment="1" data-name="CoreContour_Volume">
    <path d="M 33.7853 96.4714 L 34.6165 96.5633 L 35.299 96.6605 L 35.4749 96.7119 L 36.1225 96.8161 L 36.3713 96.8803 L 36.3975 96.9026 L 36.5564 96.9939 L 37.1478 97.449 L 37.5939 98.1907 L 37.7158 98.3413 L 38.1034 99.3393 L 38.1219 99.4322 L 38.1733 99.547 L 38.2991 100.445 L 38.5185 101.198 L 38.559 101.476 L 38.6612 101.822 L 38.7621 102.465 L 38.9671 102.84 L 39.4047 103.537 L 39.4783 103.583 L 40.2987 104.064 L 40.4216 104.119 L 40.7257 104.27 L 41.2192 104.571 L 41.4534 104.74 L 42.1174 105.104 L 42.4697 105.377 L 42.9088 105.662 L 43.4497 106.076 L 43.764 106.278 L 44.5023 106.925 L 44.5626 106.97 L 44.7108 107.098 L 45.2278 107.687 L 45.5503 108.029 L 45.7745 108.273 L 45.8208 108.634 L 45.6675 109.138 L 45.2641 109.612 L 44.8048 109.929 L 44.4427 110.004 L 44.1564 110.025 L 43.5629 110.08 L 42.922 110.09 L 42.717 110.062 L 42.4331 109.988 L 41.8565 109.832 L 41.6379 109.787 L 41.0076 109.536 L 40.5727 109.387 L 40.0646 109.158 L 39.5473 108.946 L 39.0327 108.665 L 38.6457 108.491 L 37.9758 108.077 L 37.7378 108.005 L 37.02 107.503 L 36.6805 107.476 L 35.9568 107.194 L 35.2142 107.837 L 35.1951 107.853 L 35.1486 108.143 L 35.0298 108.795 L 35.0423 108.838 L 35.1097 109.288 L 35.1928 109.915 L 35.2041 109.961 L 35.5075 110.846 L 35.6343 111.344 L 35.7514 111.818 L 35.7639 112.327 L 35.8014 113.001 L 35.8335 113.319 L 35.8682 113.816 L 35.8643 114.329 L 35.8563 114.697 L 35.8411 115.301 L 35.8295 115.989 L 35.7951 116.325 L 35.7556 116.671 L 35.6684 117.352 L 35.6101 117.845 L 35.4999 118.267 L 35.2845 119.183 L 35.2555 119.306 L 35.2355 119.388 L 34.9706 120.223 L 34.7479 120.995 L 34.6948 121.171 L 34.6586 121.371 L 34.4255 122.171 L 34.2421 123.054 L 34.2246 123.149 L 34.2003 123.218 L 34.1041 123.212 L 33.4057 123.276 L 33.2213 122.816 L 32.7897 122.092 L 32.7322 121.965 L 32.6728 121.864 L 32.526 121.058 L 32.4111 120.37 L 32.387 120.162 L 32.326 119.859 L 32.2139 119.157 L 32.1578 118.735 L 32.1578 118.735 L 32.0799 118.144 L 31.9671 117.271 L 31.9572 117.181 L 31.9399 117.053 L 31.9399 117.053 L 31.8255 116.235 L 31.7762 115.814 L 31.7234 115.201 L 31.6537 114.68 L 31.576 114.307 L 31.5438 113.733 L 31.4467 113.45 L 31.4035 113.266 L 31.3347 112.458 L 31.2756 112.138 L 31.1089 111.26 L 31.1365 110.943 L 31.051 110.258 L 30.9696 109.842 L 30.9366 109.638 L 30.9865 108.805 L 30.8559 108.055 L 30.876 107.92 L 30.8374 107.754 L 30.3956 106.931 L 30.1626 106.484 L 29.8616 106.045 L 29.4713 105.419 L 29.3209 105.171 L 28.77 104.248 L 28.7533 104.22 L 28.1526 103.096 L 28.147 103.086 L 28.147 103.085 L 28.1025 101.852 L 28.1084 101.812 L 28.3981 100.736 L 28.4681 100.52 L 28.762 99.803 L 28.9493 99.4207 L 29.2501 98.9016 L 29.5091 98.5506 L 29.8235 98.1352 L 30.337 97.6004 L 30.4978 97.4601 L 31.1604 97.0185 L 31.2059 96.9893 L 31.2194 96.9834 L 31.9334 96.7059 L 32.3479 96.6067 L 32.7937 96.5236 L 33.6088 96.4666 L 33.717 96.4654 L 33.7853 96.4714" fill="none" stroke="#000000" stroke-width="0.05000" fill-rule="evenodd" fill-opacity="1.000"/>
    </g>
    <g class="thermal-contour" data-segment="1" data-name="CoreContour_Volume">
    <path d="M 33.7637 96.6702 L 34.5918 96.7617 L 35.2564 96.8563 L 35.4307 96.9073 L 36.0813 97.0119 L 36.2766 97.0623 L 36.282 97.0669 L 36.4442 97.1601 L 36.996 97.5846 L 37.4297 98.3057 L 37.5406 98.4427 L 37.9104 99.3948 L 37.9301 99.4934 L 37.9791 99.6031 L 38.1031 100.487 L 38.3223 101.24 L 38.3632 101.519 L 38.4655 101.866 L 38.5699 102.531 L 38.7945 102.942 L 39.2595 103.681 L 39.3743 103.754 L 40.2069 104.242 L 40.3381 104.301 L 40.6273 104.444 L 41.1082 104.737 L 41.3462 104.91 L 42.007 105.271 L 42.3539 105.54 L 42.794 105.826 L 43.3347 106.24 L 43.6428 106.438 L 44.3766 107.081 L 44.437 107.126 L 44.5176 107.196 L 44.5799 107.293 L 45.0276 107.803 L 45.4577 108.258 L 45.4375 108.334 L 45.3334 108.221 L 45.0135 107.882 L 44.5066 107.305 L 44.3797 107.195 L 44.3201 107.151 L 43.5881 106.509 L 43.283 106.314 L 42.7426 105.9 L 42.3018 105.613 L 41.9571 105.347 L 41.298 104.986 L 41.058 104.812 L 40.5841 104.523 L 40.2993 104.382 L 40.1656 104.322 L 39.3275 103.831 L 39.1942 103.747 L 38.7168 102.987 L 38.4834 102.56 L 38.3775 101.885 L 38.2751 101.538 L 38.234 101.258 L 38.0149 100.506 L 37.8917 99.6283 L 37.8438 99.5209 L 37.8236 99.4199 L 37.4617 98.4884 L 37.3558 98.3575 L 36.9276 97.6455 L 36.3939 97.2349 L 36.2375 97.1451 L 36.0637 97.1002 L 35.4108 96.9953 L 35.2371 96.9444 L 34.5819 96.8512 L 33.7538 96.7597 L 33.7538 96.7596 L 33.7066 96.7554 L 33.622 96.7563 L 32.8295 96.8118 L 32.4093 96.8902 L 32.0194 96.9834 L 31.3407 97.2472 L 31.3183 97.2616 L 31.3184 97.2617 L 30.6737 97.6912 L 30.5372 97.8102 L 30.0442 98.3237 L 29.7487 98.7143 L 29.7486 98.7142 L 29.4923 99.0616 L 29.2055 99.5567 L 29.0265 99.922 L 28.7401 100.62 L 28.6771 100.815 L 28.3931 101.87 L 28.4342 103.008 L 29.0064 104.079 L 29.0188 104.1 L 29.0189 104.1 L 29.5692 105.021 L 29.5691 105.021 L 29.7128 105.258 L 30.1055 105.888 L 30.4117 106.334 L 30.6511 106.794 L 31.1112 107.651 L 31.1709 107.908 L 31.1494 108.051 L 31.278 108.789 L 31.2277 109.623 L 31.2546 109.79 L 31.3375 110.212 L 31.428 110.938 L 31.401 111.245 L 31.5607 112.084 L 31.6224 112.419 L 31.6904 113.221 L 31.7253 113.369 L 31.8312 113.677 L 31.8641 114.269 L 31.9397 114.631 L 32.0117 115.169 L 32.0644 115.783 L 32.1129 116.197 L 32.2273 117.014 L 32.2451 117.145 L 32.2548 117.234 L 32.372 118.142 L 32.3719 118.142 L 32.4452 118.697 L 32.5008 119.116 L 32.6112 119.808 L 32.6738 120.117 L 32.698 120.328 L 32.8116 121.008 L 32.8115 121.008 L 32.9486 121.761 L 32.99 121.831 L 33.047 121.957 L 33.482 122.687 L 33.5905 122.958 L 33.4971 122.967 L 33.4011 122.727 L 32.9671 121.999 L 32.91 121.873 L 32.863 121.793 L 32.7228 121.023 L 32.609 120.342 L 32.5848 120.131 L 32.5225 119.823 L 32.4119 119.13 L 32.356 118.709 L 32.2827 118.153 L 32.1655 117.245 L 32.1558 117.156 L 32.1381 117.026 L 32.0235 116.207 L 31.9748 115.791 L 31.9222 115.179 L 31.8509 114.646 L 31.7746 114.281 L 31.742 113.695 L 31.6387 113.394 L 31.6013 113.235 L 31.5331 112.431 L 31.4722 112.101 L 31.3103 111.249 L 31.3375 110.939 L 31.2486 110.226 L 31.1663 109.807 L 31.1374 109.628 L 31.1875 108.794 L 31.0583 108.053 L 31.0794 107.912 L 31.0262 107.683 L 30.5718 106.837 L 30.3344 106.38 L 30.0305 105.938 L 29.6364 105.306 L 29.4919 105.067 L 28.9416 104.146 L 28.9279 104.123 L 28.3451 103.032 L 28.3029 101.863 L 28.3043 101.854 L 28.5907 100.79 L 28.6559 100.588 L 28.944 99.886 L 29.1263 99.5139 L 29.4167 99.0126 L 29.6769 98.66 L 29.9754 98.2656 L 30.475 97.7452 L 30.6194 97.6193 L 31.2685 97.1868 L 31.2998 97.1666 L 31.9922 96.8975 L 32.3919 96.8019 L 32.8181 96.7224 L 33.6182 96.6664 L 33.7096 96.6654 L 33.7637 96.6702" fill="none" stroke="#000000" stroke-width="0.05000" fill-rule="evenodd" fill-opacity="1.000"/>
    <path d="M 36.7458 107.19 L 37.1215 107.22 L 37.8656 107.741 L 38.0958 107.81 L 38.7823 108.234 L 39.1618 108.405 L 39.6726 108.684 L 40.1794 108.892 L 40.6801 109.118 L 41.1082 109.264 L 41.721 109.508 L 41.9238 109.55 L 42.5066 109.708 L 42.5065 109.708 L 42.7735 109.777 L 42.9385 109.799 L 43.5472 109.79 L 44.1326 109.736 L 44.402 109.716 L 44.4515 109.706 L 44.3717 109.766 L 44.256 109.817 L 44.14 109.825 L 43.5517 109.88 L 42.9334 109.89 L 42.7561 109.865 L 42.4831 109.795 L 41.9029 109.637 L 41.6952 109.594 L 41.077 109.349 L 40.6471 109.201 L 40.1438 108.975 L 39.6336 108.765 L 39.1217 108.486 L 38.7399 108.314 L 38.0586 107.893 L 37.826 107.823 L 37.09 107.308 L 36.7255 107.279 L 35.917 106.964 L 35.0857 107.684 L 35.0095 107.748 L 34.9518 108.107 L 34.8246 108.805 L 34.8462 108.88 L 34.9119 109.317 L 34.996 109.952 L 35.0119 110.018 L 35.3157 110.903 L 35.4403 111.392 L 35.5518 111.845 L 35.5641 112.335 L 35.602 113.017 L 35.6339 113.333 L 35.668 113.824 L 35.6643 114.325 L 35.6563 114.692 L 35.6411 115.297 L 35.6295 115.977 L 35.5963 116.302 L 35.5572 116.646 L 35.4698 117.327 L 35.4131 117.807 L 35.3057 118.219 L 35.0899 119.137 L 35.061 119.259 L 35.0425 119.335 L 34.7792 120.165 L 34.5563 120.938 L 34.5 121.125 L 34.4636 121.325 L 34.2313 122.123 L 34.1138 122.688 L 34.0061 122.763 L 34.1439 122.101 L 34.3757 121.305 L 34.4124 121.104 L 34.4701 120.912 L 34.6931 120.139 L 34.9559 119.31 L 34.9734 119.238 L 35.0023 119.116 L 35.2183 118.198 L 35.3244 117.79 L 35.3805 117.316 L 35.4679 116.635 L 35.5069 116.292 L 35.5395 115.972 L 35.5511 115.295 L 35.5663 114.69 L 35.5743 114.323 L 35.5779 113.826 L 35.5441 113.339 L 35.5441 113.339 L 35.5123 113.024 L 35.4742 112.338 L 35.462 111.857 L 35.3529 111.414 L 35.3529 111.414 L 35.2293 110.929 L 34.9254 110.043 L 34.9074 109.969 L 34.8229 109.331 L 34.758 108.899 L 34.7323 108.81 L 34.8629 108.093 L 34.926 107.7 L 35.0268 107.616 L 35.8991 106.861 L 36.7458 107.19" fill="none" stroke="#000000" stroke-width="0.05000" fill-rule="evenodd" fill-opacity="1.000"/>
    </g>
    <g class="thermal-contour" data-segment="2" data-name="CoreContour_Overhang">
    <path d="M 34.0458 123.015 L 34.0455 123.017 L 33.5357 123.063 L 33.4971 122.967 L 33.5905 122.958 L 33.5942 122.967 L 33.9709 122.933 L 34.0061 122.763 L 34.1138 122.688 L 34.0458 123.015" fill="none" stroke="#8B0000" stroke-width="0.05000" fill-rule="evenodd" fill-opacity="1.000"/>
    <path d="M 44.57 107.241 L 45.08 107.822 L 45.3988 108.159 L 45.5841 108.361 L 45.6168 108.616 L 45.4881 109.04 L 45.1285 109.462 L 44.7244 109.741 L 44.4143 109.806 L 44.256 109.817 L 44.3717 109.766 L 44.4515 109.706 L 44.6882 109.657 L 45.0678 109.395 L 45.4074 108.996 L 45.525 108.609 L 45.4984 108.401 L 45.4375 108.334 L 45.4577 108.258 L 45.0276 107.803 L 44.5799 107.293 L 44.5176 107.196 L 44.57 107.241" fill="none" stroke="#8B0000" stroke-width="0.05000" fill-rule="evenodd" fill-opacity="1.000"/>
    </g>
    <g class="thermal-contour" data-segment="3" data-name="HollowShell1Contour_Volume">
    <path d="M 33.3112 122.772 L 33.3932 122.976 L 33.3573 122.98 L 33.2772 122.78 L 33.0896 122.465 L 32.9669 122.194 L 33.3112 122.772" fill="none" stroke="#0000CC" stroke-width="0.05000" fill-rule="evenodd" fill-opacity="1.000"/>
    <path d="M 31.5024 113.251 L 31.5427 113.422 L 31.6429 113.714 L 31.6753 114.294 L 31.7523 114.663 L 31.8228 115.19 L 31.8755 115.803 L 31.9245 116.221 L 32.039 117.04 L 32.0565 117.168 L 32.0663 117.258 L 32.1791 118.132 L 32.179 118.132 L 32.2569 118.722 L 32.3129 119.144 L 32.4243 119.841 L 32.4859 120.147 L 32.51 120.356 L 32.6244 121.04 L 32.7573 121.771 L 32.6102 121.521 L 32.526 121.058 L 32.4111 120.37 L 32.387 120.162 L 32.326 119.859 L 32.2139 119.158 L 32.1578 118.735 L 32.0799 118.145 L 31.9671 117.271 L 31.9572 117.181 L 31.9399 117.053 L 31.9399 117.053 L 31.8255 116.235 L 31.7762 115.814 L 31.7234 115.201 L 31.6537 114.679 L 31.576 114.307 L 31.5438 113.733 L 31.4951 113.591 L 31.4855 113.42 L 31.4904 113.354 L 31.461 112.763 L 31.5024 113.251" fill="none" stroke="#0000CC" stroke-width="0.05000" fill-rule="evenodd" fill-opacity="1.000"/>
    <path d="M 36.703 107.378 L 37.055 107.405 L 37.7819 107.914 L 38.0172 107.985 L 38.693 108.402 L 39.0772 108.575 L 39.5905 108.855 L 40.1042 109.066 L 40.6099 109.295 L 41.0423 109.443 L 41.5771 109.655 L 41.4926 109.638 L 41.0876 109.477 L 40.4492 109.258 L 40.1758 109.135 L 39.4352 108.83 L 39.1467 108.673 L 38.5414 108.401 L 38.0879 108.12 L 38.0066 108.096 L 37.9758 108.077 L 37.7378 108.005 L 37.02 107.503 L 36.6805 107.476 L 35.9568 107.194 L 35.2142 107.837 L 35.1951 107.853 L 35.1486 108.143 L 35.0298 108.795 L 35.0423 108.838 L 35.1097 109.288 L 35.1928 109.915 L 35.2041 109.961 L 35.5075 110.845 L 35.6343 111.344 L 35.7514 111.818 L 35.7639 112.327 L 35.8014 113.001 L 35.8335 113.319 L 35.8361 113.357 L 35.829 114.317 L 35.8131 115.048 L 35.8072 115.281 L 35.8027 115.546 L 35.7245 116.308 L 35.6349 117.097 L 35.6043 117.335 L 35.5838 117.508 L 35.5204 117.751 L 35.5691 117.339 L 35.6564 116.659 L 35.6957 116.313 L 35.7295 115.983 L 35.7411 115.299 L 35.7563 114.694 L 35.7643 114.327 L 35.7681 113.82 L 35.7337 113.326 L 35.7017 113.009 L 35.664 112.331 L 35.6516 111.831 L 35.5372 111.368 L 35.5372 111.368 L 35.4116 110.874 L 35.108 109.99 L 35.0944 109.934 L 35.0108 109.302 L 34.9443 108.86 L 34.9272 108.8 L 35.0502 108.125 L 35.1023 107.8 L 35.15 107.76 L 35.9369 107.079 L 36.703 107.378" fill="none" stroke="#0000CC" stroke-width="0.05000" fill-rule="evenodd" fill-opacity="1.000"/>
    <path d="M 33.7853 96.4714 L 34.6165 96.5633 L 35.299 96.6605 L 35.4749 96.7119 L 36.1225 96.8161 L 36.3713 96.8803 L 36.3975 96.9026 L 36.5564 96.9939 L 37.1478 97.449 L 37.5939 98.1907 L 37.7158 98.3413 L 38.1034 99.3393 L 38.1219 99.4322 L 38.1733 99.547 L 38.2991 100.445 L 38.5185 101.198 L 38.559 101.476 L 38.6612 101.822 L 38.7621 102.465 L 38.9671 102.84 L 39.4047 103.537 L 39.4783 103.583 L 40.2987 104.064 L 40.4216 104.119 L 40.721 104.267 L 41.1483 104.528 L 41.5774 104.839 L 42.0251 105.084 L 42.555 105.494 L 42.7892 105.646 L 43.562 106.239 L 43.6137 106.272 L 43.7834 106.421 L 43.8714 106.505 L 43.7036 106.358 L 43.3922 106.158 L 42.8514 105.744 L 42.4118 105.458 L 42.0622 105.188 L 41.3998 104.825 L 41.1637 104.654 L 40.6765 104.357 L 40.3799 104.21 L 40.2528 104.153 L 39.4263 103.669 L 39.3321 103.609 L 38.8808 102.891 L 38.666 102.498 L 38.5634 101.844 L 38.4611 101.498 L 38.4204 101.218 L 38.2011 100.466 L 38.0762 99.5751 L 38.026 99.4628 L 38.0069 99.3671 L 37.6282 98.392 L 37.5118 98.2482 L 37.0719 97.5168 L 36.5003 97.077 L 36.3397 96.9847 L 36.3239 96.9713 L 36.1019 96.914 L 35.4528 96.8096 L 35.2778 96.7584 L 34.6041 96.6625 L 33.7745 96.5708 L 33.7133 96.5654 L 33.6135 96.5665 L 32.8059 96.623 L 32.3699 96.7043 L 31.9628 96.8017 L 31.2568 97.0761 L 31.2536 97.0775 L 31.2144 97.1027 L 30.5586 97.5397 L 30.406 97.6728 L 29.8993 98.2006 L 29.5895 98.6099 L 29.5896 98.61 L 29.3334 98.9571 L 29.0378 99.4673 L 28.853 99.8445 L 28.562 100.554 L 28.4944 100.763 L 28.2063 101.833 L 28.2027 101.857 L 28.2461 103.059 L 28.8403 104.171 L 28.8558 104.197 L 29.4064 105.119 L 29.5561 105.366 L 29.5562 105.366 L 29.9461 105.992 L 30.2485 106.432 L 30.4837 106.884 L 30.9318 107.718 L 30.9777 107.916 L 30.9571 108.054 L 31.087 108.8 L 31.037 109.633 L 31.068 109.825 L 31.1498 110.242 L 31.237 110.941 L 31.2152 111.19 L 31.1861 111.036 L 31.1894 110.998 L 31.1792 110.917 L 31.0525 110.271 L 31.051 110.258 L 30.9707 109.848 L 30.9366 109.637 L 30.9865 108.805 L 30.8559 108.055 L 30.876 107.92 L 30.8374 107.754 L 30.3956 106.931 L 30.1626 106.484 L 29.8616 106.045 L 29.4713 105.419 L 29.3209 105.171 L 28.77 104.248 L 28.7533 104.22 L 28.1526 103.096 L 28.147 103.086 L 28.147 103.085 L 28.1025 101.852 L 28.1084 101.812 L 28.3981 100.736 L 28.4681 100.52 L 28.762 99.803 L 28.9493 99.4207 L 29.2501 98.9016 L 29.5091 98.5506 L 29.8235 98.1352 L 30.337 97.6004 L 30.4978 97.4601 L 31.1604 97.0185 L 31.2059 96.9893 L 31.2194 96.9834 L 31.9334 96.7059 L 32.3479 96.6067 L 32.7937 96.5236 L 33.6088 96.4666 L 33.717 96.4654 L 33.7853 96.4714" fill="none" stroke="#0000CC" stroke-width="0.05000" fill-rule="evenodd" fill-opacity="1.000"/>
    </g>
    <g class="thermal-contour" data-segment="4" data-name="HollowShell1Contour_Overhang">
    <path d="M 35.8624 113.733 L 35.8682 113.816 L 35.8643 114.329 L 35.8563 114.697 L 35.8411 115.301 L 35.8295 115.989 L 35.7951 116.325 L 35.7556 116.672 L 35.6684 117.352 L 35.6101 117.845 L 35.4999 118.267 L 35.2845 119.183 L 35.2555 119.306 L 35.2355 119.388 L 34.9706 120.223 L 34.7479 120.995 L 34.6948 121.172 L 34.6586 121.371 L 34.4255 122.171 L 34.2421 123.053 L 34.2246 123.149 L 34.2003 123.218 L 34.1041 123.212 L 33.4057 123.276 L 33.2213 122.816 L 32.7897 122.092 L 32.7322 121.965 L 32.6728 121.864 L 32.6102 121.521 L 32.7573 121.771 L 32.7679 121.829 L 32.8211 121.919 L 32.8784 122.046 L 32.9669 122.194 L 33.0896 122.465 L 33.2772 122.78 L 33.3573 122.98 L 33.3932 122.976 L 33.4707 123.17 L 34.1027 123.112 L 34.1294 123.114 L 34.1439 123.034 L 34.3284 122.147 L 34.5611 121.348 L 34.5974 121.148 L 34.6521 120.966 L 34.8749 120.194 L 35.1388 119.362 L 35.1583 119.282 L 35.1872 119.16 L 35.4028 118.243 L 35.5116 117.826 L 35.5204 117.751 L 35.5838 117.508 L 35.6043 117.335 L 35.6349 117.097 L 35.7245 116.308 L 35.8027 115.546 L 35.8072 115.281 L 35.8131 115.048 L 35.829 114.317 L 35.8361 113.357 L 35.8624 113.733" fill="none" stroke="#000080" stroke-width="0.05000" fill-rule="evenodd" fill-opacity="1.000"/>
    <path d="M 31.1792 110.917 L 31.1894 110.998 L 31.1861 111.036 L 31.2152 111.19 L 31.2096 111.255 L 31.3739 112.119 L 31.4339 112.444 L 31.461 112.763 L 31.4904 113.354 L 31.4855 113.42 L 31.4951 113.591 L 31.4467 113.45 L 31.4035 113.266 L 31.3347 112.458 L 31.2756 112.138 L 31.1089 111.26 L 31.1365 110.943 L 31.1243 110.845 L 31.0525 110.271 L 31.1792 110.917" fill="none" stroke="#000080" stroke-width="0.05000" fill-rule="evenodd" fill-opacity="1.000"/>
    <path d="M 40.7257 104.27 L 41.2192 104.571 L 41.4534 104.74 L 42.1174 105.104 L 42.4697 105.377 L 42.9088 105.662 L 43.4497 106.076 L 43.764 106.278 L 44.5023 106.925 L 44.5626 106.97 L 44.7108 107.098 L 45.2278 107.687 L 45.5503 108.029 L 45.7745 108.273 L 45.8208 108.633 L 45.6675 109.138 L 45.2641 109.612 L 44.8048 109.929 L 44.4427 110.004 L 44.1564 110.025 L 43.5629 110.08 L 42.922 110.09 L 42.717 110.062 L 42.4331 109.988 L 41.8565 109.832 L 41.6379 109.787 L 41.0076 109.536 L 40.5727 109.387 L 40.0646 109.158 L 39.5473 108.946 L 39.0327 108.665 L 38.6457 108.491 L 38.4997 108.401 L 38.0066 108.096 L 38.0879 108.12 L 38.5414 108.401 L 39.1467 108.673 L 39.4352 108.83 L 40.1758 109.135 L 40.4492 109.258 L 41.0876 109.477 L 41.4926 109.638 L 41.5771 109.655 L 41.6666 109.691 L 41.8797 109.735 L 42.4581 109.892 L 42.7366 109.963 L 42.9277 109.99 L 43.5573 109.98 L 44.1482 109.925 L 44.4285 109.905 L 44.7646 109.835 L 45.1963 109.537 L 45.5778 109.089 L 45.7188 108.625 L 45.6793 108.317 L 45.4766 108.096 L 45.4766 108.096 L 45.1539 107.754 L 44.6404 107.17 L 44.4997 107.048 L 44.4394 107.003 L 43.8714 106.505 L 43.7834 106.421 L 43.6137 106.272 L 43.562 106.239 L 42.7892 105.646 L 42.555 105.494 L 42.0251 105.084 L 41.5774 104.839 L 41.1483 104.528 L 40.721 104.267 L 40.7257 104.27" fill="none" stroke="#000080" stroke-width="0.05000" fill-rule="evenodd" fill-opacity="1.000"/>
    <path d="M 30.9709 109.849 L 30.9696 109.842 L 30.9366 109.638 L 30.9366 109.638 L 30.9366 109.637 L 30.9709 109.849" fill="none" stroke="#000080" stroke-width="0.05000" fill-rule="evenodd" fill-opacity="1.000"/>
    </g>
    <g class="thermal-contour" data-segment="5" data-name="HollowShell2Contour_Volume">
    <path d="M 33.7745 96.5708 L 34.6041 96.6625 L 35.2778 96.7584 L 35.4528 96.8096 L 36.1019 96.914 L 36.3239 96.9713 L 36.3397 96.9847 L 36.5003 97.077 L 37.0719 97.5168 L 37.5118 98.2482 L 37.6282 98.392 L 38.0069 99.3671 L 38.026 99.4628 L 38.0762 99.5751 L 38.2011 100.466 L 38.4204 101.218 L 38.4611 101.498 L 38.5634 101.844 L 38.666 102.498 L 38.8808 102.891 L 39.3321 103.609 L 39.4263 103.669 L 40.2528 104.153 L 40.3799 104.21 L 40.6765 104.357 L 41.1637 104.654 L 41.3998 104.825 L 42.0622 105.188 L 42.4118 105.458 L 42.8514 105.744 L 43.3922 106.158 L 43.7036 106.358 L 43.8714 106.505 L 44.3995 107.01 L 44.5176 107.196 L 44.437 107.126 L 44.3766 107.081 L 43.6428 106.438 L 43.3347 106.24 L 42.794 105.826 L 42.3539 105.54 L 42.007 105.271 L 41.3462 104.91 L 41.1082 104.737 L 40.6273 104.444 L 40.3381 104.301 L 40.2069 104.242 L 39.3743 103.754 L 39.2595 103.681 L 38.7945 102.942 L 38.5699 102.531 L 38.4655 101.866 L 38.3632 101.519 L 38.3223 101.24 L 38.1031 100.487 L 37.9791 99.6031 L 37.9301 99.4934 L 37.9104 99.3948 L 37.5406 98.4427 L 37.4297 98.3057 L 36.996 97.5846 L 36.4442 97.1601 L 36.282 97.0669 L 36.2766 97.0623 L 36.0813 97.0119 L 35.4307 96.9073 L 35.2564 96.8563 L 34.5918 96.7617 L 33.7637 96.6702 L 33.7096 96.6654 L 33.6182 96.6664 L 32.8181 96.7224 L 32.3919 96.8019 L 31.9922 96.8975 L 31.2998 97.1666 L 31.2685 97.1868 L 30.6194 97.6193 L 30.475 97.7452 L 29.9754 98.2656 L 29.6769 98.66 L 29.4167 99.0126 L 29.1263 99.5139 L 28.944 99.886 L 28.6559 100.588 L 28.5907 100.79 L 28.3043 101.854 L 28.3029 101.863 L 28.3451 103.032 L 28.9279 104.123 L 28.9416 104.146 L 29.4919 105.067 L 29.6364 105.306 L 30.0305 105.938 L 30.3344 106.38 L 30.5718 106.837 L 31.0262 107.683 L 31.0794 107.912 L 31.0583 108.053 L 31.1875 108.794 L 31.1374 109.628 L 31.1663 109.807 L 31.2486 110.226 L 31.3375 110.939 L 31.3103 111.249 L 31.4722 112.101 L 31.5331 112.431 L 31.6013 113.235 L 31.6387 113.394 L 31.742 113.695 L 31.7746 114.281 L 31.8509 114.646 L 31.9222 115.179 L 31.9748 115.791 L 32.0235 116.207 L 32.1381 117.026 L 32.1558 117.156 L 32.1655 117.245 L 32.2827 118.153 L 32.356 118.709 L 32.4119 119.13 L 32.5225 119.823 L 32.5848 120.131 L 32.609 120.342 L 32.7228 121.023 L 32.863 121.793 L 32.91 121.873 L 32.9671 121.999 L 33.4011 122.727 L 33.4971 122.967 L 33.3932 122.976 L 33.3112 122.772 L 32.9669 122.194 L 32.8352 121.903 L 32.7573 121.771 L 32.6244 121.04 L 32.51 120.356 L 32.4859 120.147 L 32.4243 119.841 L 32.3129 119.144 L 32.2569 118.722 L 32.179 118.132 L 32.1791 118.132 L 32.0663 117.258 L 32.0565 117.168 L 32.039 117.04 L 31.9245 116.221 L 31.8755 115.803 L 31.8228 115.19 L 31.7523 114.663 L 31.6753 114.294 L 31.6429 113.714 L 31.5427 113.422 L 31.5024 113.251 L 31.461 112.763 L 31.4532 112.606 L 31.4281 112.312 L 31.4228 112.283 L 31.2152 111.19 L 31.237 110.941 L 31.1498 110.242 L 31.068 109.825 L 31.037 109.633 L 31.087 108.8 L 30.9571 108.054 L 30.9777 107.916 L 30.9318 107.718 L 30.4837 106.884 L 30.2485 106.432 L 29.9461 105.992 L 29.5562 105.366 L 29.5561 105.366 L 29.4064 105.119 L 28.8558 104.197 L 28.8403 104.171 L 28.2461 103.059 L 28.2027 101.857 L 28.2063 101.833 L 28.4944 100.763 L 28.562 100.554 L 28.853 99.8445 L 29.0378 99.4673 L 29.3334 98.9571 L 29.5896 98.61 L 29.5895 98.6099 L 29.8993 98.2006 L 30.406 97.6728 L 30.5586 97.5397 L 31.2144 97.1027 L 31.2536 97.0775 L 31.2568 97.0761 L 31.9628 96.8017 L 32.3699 96.7043 L 32.8059 96.623 L 33.6135 96.5665 L 33.7133 96.5654 L 33.7745 96.5708" fill="none" stroke="#B8860B" stroke-width="0.05000" fill-rule="evenodd" fill-opacity="1.000"/>
    <path d="M 36.7255 107.279 L 37.09 107.308 L 37.826 107.823 L 38.0586 107.893 L 38.7399 108.314 L 39.1217 108.486 L 39.6336 108.765 L 40.1438 108.975 L 40.6471 109.201 L 41.077 109.349 L 41.6952 109.594 L 41.9029 109.637 L 42.4831 109.795 L 42.7561 109.865 L 42.9334 109.89 L 43.5517 109.88 L 44.14 109.825 L 44.256 109.817 L 44.2456 109.822 L 43.5003 109.891 L 42.9287 109.9 L 42.6442 109.919 L 41.9713 109.737 L 41.5771 109.655 L 41.0423 109.443 L 40.6099 109.295 L 40.1042 109.066 L 39.5905 108.855 L 39.0772 108.575 L 38.693 108.402 L 38.0172 107.985 L 37.7819 107.914 L 37.055 107.405 L 36.703 107.378 L 35.9369 107.079 L 35.15 107.76 L 35.1023 107.8 L 35.0502 108.125 L 34.9272 108.8 L 34.9443 108.86 L 35.0108 109.302 L 35.0944 109.934 L 35.108 109.99 L 35.4116 110.874 L 35.5372 111.368 L 35.5372 111.368 L 35.6516 111.831 L 35.664 112.331 L 35.7017 113.009 L 35.7337 113.326 L 35.7681 113.82 L 35.7643 114.327 L 35.7563 114.694 L 35.7411 115.299 L 35.7295 115.983 L 35.6957 116.313 L 35.6564 116.659 L 35.5691 117.339 L 35.5204 117.751 L 35.3958 118.228 L 35.2199 118.976 L 35.1189 119.275 L 35.0088 119.642 L 34.8317 120.2 L 34.638 120.872 L 34.5296 121.145 L 34.4327 121.5 L 34.249 122.131 L 34.1365 122.672 L 34.1138 122.688 L 34.2313 122.123 L 34.4636 121.325 L 34.5 121.125 L 34.5563 120.938 L 34.7792 120.165 L 35.0425 119.335 L 35.061 119.259 L 35.0899 119.137 L 35.3057 118.219 L 35.4131 117.807 L 35.4698 117.327 L 35.5572 116.646 L 35.5963 116.302 L 35.6295 115.977 L 35.6411 115.297 L 35.6563 114.692 L 35.6643 114.325 L 35.668 113.824 L 35.6339 113.333 L 35.602 113.017 L 35.5641 112.335 L 35.5518 111.845 L 35.4403 111.392 L 35.3157 110.903 L 35.0119 110.018 L 34.996 109.952 L 34.9119 109.317 L 34.8462 108.88 L 34.8246 108.805 L 34.9518 108.107 L 35.0095 107.748 L 35.0857 107.684 L 35.917 106.964 L 36.7255 107.279" fill="none" stroke="#B8860B" stroke-width="0.05000" fill-rule="evenodd" fill-opacity="1.000"/>
    </g>
    <g class="thermal-contour" data-segment="6" data-name="HollowShell2Contour_Overhang">
    <path d="M 35.5116 117.826 L 35.4028 118.243 L 35.1872 119.16 L 35.1583 119.282 L 35.1388 119.362 L 34.8749 120.194 L 34.6521 120.966 L 34.5974 121.148 L 34.5611 121.348 L 34.3284 122.147 L 34.1439 123.034 L 34.1294 123.114 L 34.1027 123.112 L 33.4707 123.17 L 33.3932 122.976 L 33.4971 122.967 L 33.5357 123.063 L 34.0455 123.017 L 34.0458 123.015 L 34.1138 122.688 L 34.1365 122.672 L 34.249 122.131 L 34.4327 121.5 L 34.5296 121.145 L 34.638 120.872 L 34.8317 120.2 L 35.0088 119.642 L 35.1189 119.275 L 35.2199 118.976 L 35.3958 118.228 L 35.5204 117.751 L 35.5116 117.826" fill="none" stroke="#006400" stroke-width="0.05000" fill-rule="evenodd" fill-opacity="1.000"/>
    <path d="M 32.8352 121.903 L 32.9669 122.194 L 32.8784 122.046 L 32.8211 121.919 L 32.7679 121.829 L 32.7573 121.771 L 32.8352 121.903" fill="none" stroke="#006400" stroke-width="0.05000" fill-rule="evenodd" fill-opacity="1.000"/>
    <path d="M 31.4228 112.283 L 31.4281 112.312 L 31.4532 112.606 L 31.461 112.763 L 31.4339 112.444 L 31.3739 112.119 L 31.2096 111.255 L 31.2152 111.19 L 31.4228 112.283" fill="none" stroke="#006400" stroke-width="0.05000" fill-rule="evenodd" fill-opacity="1.000"/>
    <path d="M 44.4394 107.003 L 44.4997 107.048 L 44.6404 107.17 L 45.1539 107.754 L 45.4766 108.096 L 45.4766 108.096 L 45.6793 108.317 L 45.7188 108.625 L 45.5778 109.089 L 45.1963 109.537 L 44.7646 109.835 L 44.4285 109.905 L 44.1482 109.925 L 43.5573 109.98 L 42.9277 109.99 L 42.7366 109.963 L 42.4581 109.892 L 41.8797 109.735 L 41.6666 109.691 L 41.5771 109.655 L 41.9713 109.737 L 42.6442 109.919 L 42.9287 109.9 L 43.5003 109.891 L 44.2456 109.822 L 44.256 109.817 L 44.4143 109.806 L 44.7244 109.741 L 45.1285 109.462 L 45.4881 109.04 L 45.6168 108.616 L 45.5841 108.361 L 45.3988 108.159 L 45.08 107.822 L 44.57 107.241 L 44.5176 107.196 L 44.3995 107.01 L 43.8714 106.505 L 44.4394 107.003" fill="none" stroke="#006400" stroke-width="0.05000" fill-rule="evenodd" fill-opacity="1.000"/>
    </g>
    <g class="thermal-contour" data-segment="9" data-name="CoreContourHatch">
    <path d="M 33.7808 96.7349 L 33.7808 96.7355 L 34.5853 96.8244 L 35.2428 96.9179 L 35.4163 96.9688 L 36.0692 97.0737 L 36.2478 97.1199 L 36.4089 97.2124 L 36.9481 97.6272 L 37.3777 98.3416 L 37.4853 98.4747 L 37.8496 99.4123 L 37.8696 99.5125 L 37.9179 99.6208 L 38.0413 100.5 L 38.2604 101.253 L 38.3015 101.533 L 38.4039 101.879 L 38.5093 102.551 L 38.7397 102.973 L 39.2139 103.727 L 39.3411 103.808 L 39.3412 103.808 L 40.1783 104.298 L 40.3108 104.358 L 40.5971 104.499 L 41.073 104.789 L 41.3122 104.963 L 41.9719 105.324 L 42.318 105.592 L 42.7582 105.878 L 43.2982 106.292 L 43.6044 106.488 L 44.3368 107.13 L 44.3966 107.174 L 44.5257 107.286 L 45.0338 107.864 L 45.3532 108.203 L 45.4457 108.303 L 45.4375 108.334 L 45.3334 108.221 L 45.0135 107.882 L 44.5066 107.305 L 44.3797 107.195 L 44.3201 107.151 L 43.5881 106.509 L 43.283 106.314 L 42.7426 105.9 L 42.3018 105.613 L 41.9571 105.347 L 41.298 104.986 L 41.058 104.812 L 40.5841 104.523 L 40.2993 104.382 L 40.1656 104.322 L 39.3275 103.831 L 39.1942 103.747 L 38.7168 102.987 L 38.4834 102.56 L 38.3775 101.885 L 38.2751 101.538 L 38.234 101.258 L 38.0149 100.506 L 37.8917 99.6283 L 37.8438 99.5209 L 37.8236 99.4199 L 37.4617 98.4884 L 37.3558 98.3575 L 36.9276 97.6455 L 36.3939 97.2349 L 36.2375 97.1451 L 36.0637 97.1002 L 35.4108 96.9953 L 35.2371 96.9444 L 34.5819 96.8512 L 33.7538 96.7597 L 33.7538 96.7596 L 33.7066 96.7554 L 33.622 96.7563 L 32.8295 96.8118 L 32.4093 96.8902 L 32.0194 96.9834 L 31.3407 97.2472 L 31.3183 97.2616 L 31.3184 97.2617 L 30.6737 97.6912 L 30.5372 97.8102 L 30.0442 98.3237 L 29.7487 98.7143 L 29.7486 98.7142 L 29.4923 99.0616 L 29.2055 99.5567 L 29.0265 99.922 L 28.7401 100.62 L 28.6771 100.815 L 28.3931 101.87 L 28.4342 103.008 L 29.0064 104.079 L 29.0188 104.1 L 29.0189 104.1 L 29.5692 105.021 L 29.5691 105.021 L 29.7128 105.258 L 30.1055 105.888 L 30.4117 106.334 L 30.6511 106.794 L 31.1112 107.651 L 31.1709 107.908 L 31.1494 108.051 L 31.278 108.789 L 31.2277 109.623 L 31.2546 109.79 L 31.3375 110.212 L 31.428 110.938 L 31.401 111.245 L 31.5607 112.084 L 31.6224 112.419 L 31.6904 113.221 L 31.7253 113.369 L 31.8312 113.677 L 31.8641 114.269 L 31.9397 114.631 L 32.0117 115.169 L 32.0644 115.783 L 32.1129 116.197 L 32.2273 117.014 L 32.2451 117.145 L 32.2548 117.234 L 32.372 118.142 L 32.3719 118.142 L 32.4452 118.697 L 32.5008 119.116 L 32.6112 119.808 L 32.6738 120.117 L 32.698 120.328 L 32.8116 121.008 L 32.8115 121.008 L 32.9486 121.761 L 32.99 121.831 L 33.047 121.957 L 33.482 122.687 L 33.5905 122.958 L 33.5624 122.961 L 33.4576 122.699 L 33.023 121.97 L 32.9661 121.844 L 32.9229 121.771 L 32.7791 120.981 L 32.7797 120.981 L 32.6713 120.332 L 32.6473 120.122 L 32.5846 119.813 L 32.4741 119.12 L 32.4184 118.7 L 32.3411 118.115 L 32.3413 118.115 L 32.228 117.237 L 32.2183 117.149 L 32.2183 117.149 L 32.2005 117.017 L 32.2005 117.017 L 32.0861 116.2 L 32.0375 115.785 L 31.9849 115.173 L 31.9129 114.634 L 31.9129 114.634 L 31.8373 114.272 L 31.8043 113.682 L 31.6993 113.376 L 31.6637 113.225 L 31.5956 112.423 L 31.5341 112.089 L 31.5341 112.089 L 31.3738 111.246 L 31.4008 110.938 L 31.3108 110.216 L 31.228 109.794 L 31.2006 109.625 L 31.2508 108.79 L 31.122 108.052 L 31.1434 107.909 L 31.0857 107.66 L 30.6272 106.807 L 30.3888 106.348 L 30.0829 105.903 L 29.6898 105.272 L 29.5212 104.994 L 29.5216 104.994 L 29.0036 104.127 L 29.0034 104.127 L 28.9828 104.092 L 28.4074 103.015 L 28.366 101.867 L 28.6512 100.807 L 28.7147 100.611 L 29.0019 99.9109 L 29.1817 99.544 L 29.4697 99.0468 L 29.7455 98.6729 L 29.7458 98.6732 L 30.0236 98.3061 L 30.5186 97.7906 L 30.6573 97.6697 L 31.2759 97.2574 L 31.2755 97.257 L 31.3284 97.223 L 32.0113 96.9576 L 32.4037 96.8638 L 32.8261 96.785 L 33.6209 96.7293 L 33.7077 96.7284 L 33.7808 96.7349" fill="none" stroke="#800080" stroke-width="0.05000" fill-rule="evenodd" fill-opacity="1.000"/>
    <path d="M 36.7458 107.19 L 37.1215 107.22 L 37.8656 107.741 L 38.0958 107.81 L 38.7823 108.234 L 39.1618 108.405 L 39.6726 108.684 L 40.1794 108.892 L 40.6801 109.118 L 41.1082 109.264 L 41.721 109.508 L 41.9238 109.55 L 42.5066 109.708 L 42.5065 109.708 L 42.7735 109.777 L 42.9385 109.799 L 43.5472 109.79 L 44.1326 109.736 L 44.402 109.716 L 44.4515 109.706 L 44.402 109.743 L 44.135 109.762 L 44.1351 109.763 L 43.5487 109.817 L 42.9369 109.826 L 42.7683 109.803 L 42.4995 109.734 L 42.4995 109.734 L 42.4979 109.733 L 42.4767 109.728 L 42.4767 109.728 L 41.9167 109.576 L 41.9167 109.576 L 41.7132 109.534 L 41.0982 109.289 L 41.0982 109.289 L 40.6701 109.143 L 40.1691 108.917 L 40.1691 108.917 L 39.661 108.708 L 39.1498 108.429 L 38.7696 108.258 L 38.0846 107.835 L 37.8537 107.766 L 37.112 107.246 L 36.7397 107.217 L 35.9044 106.892 L 35.0443 107.636 L 34.9511 107.714 L 34.8895 108.097 L 34.76 108.808 L 34.7844 108.894 L 34.8496 109.327 L 34.934 109.964 L 34.9513 110.035 L 35.2552 110.921 L 35.3799 111.41 L 35.3799 111.41 L 35.4889 111.853 L 35.5012 112.337 L 35.5392 113.021 L 35.5711 113.338 L 35.5711 113.339 L 35.6049 113.826 L 35.6013 114.323 L 35.5933 114.69 L 35.5781 115.296 L 35.5665 115.974 L 35.5337 116.295 L 35.4947 116.638 L 35.4073 117.32 L 35.351 117.796 L 35.2445 118.204 L 35.2446 118.204 L 35.0286 119.123 L 34.9997 119.244 L 34.9819 119.317 L 34.7188 120.147 L 34.496 120.919 L 34.4386 121.11 L 34.402 121.311 L 34.17 122.107 L 34.0384 122.741 L 34.0061 122.763 L 34.1439 122.101 L 34.3757 121.305 L 34.4124 121.104 L 34.4701 120.912 L 34.6931 120.139 L 34.9559 119.31 L 34.9734 119.238 L 35.0023 119.116 L 35.2183 118.198 L 35.3244 117.79 L 35.3805 117.316 L 35.4679 116.635 L 35.5069 116.292 L 35.5395 115.972 L 35.5511 115.295 L 35.5663 114.69 L 35.5743 114.323 L 35.5779 113.826 L 35.5441 113.339 L 35.5441 113.339 L 35.5123 113.024 L 35.4742 112.338 L 35.462 111.857 L 35.3529 111.414 L 35.3529 111.414 L 35.2293 110.929 L 34.9254 110.043 L 34.9074 109.969 L 34.8229 109.331 L 34.758 108.899 L 34.7323 108.81 L 34.8629 108.093 L 34.926 107.7 L 35.0268 107.616 L 35.8991 106.861 L 36.7458 107.19" fill="none" stroke="#800080" stroke-width="0.05000" fill-rule="evenodd" fill-opacity="1.000"/>
    </g>
    <g class="thermal-contour" data-segment="20" data-name="CoreContourHatchOverhang">
    <path d="M 33.9933 122.958 L 33.5766 122.996 L 33.5624 122.961 L 33.5905 122.958 L 33.5942 122.967 L 33.9709 122.933 L 34.0061 122.763 L 34.0384 122.741 L 33.9933 122.958" fill="none" stroke="#E64A19" stroke-width="0.05000" fill-rule="evenodd" fill-opacity="1.000"/>
    <path d="M 45.5241 108.389 L 45.5525 108.611 L 45.4316 109.009 L 45.0861 109.415 L 44.699 109.682 L 44.4057 109.743 L 44.402 109.743 L 44.4515 109.706 L 44.6882 109.657 L 45.0678 109.395 L 45.4074 108.996 L 45.525 108.609 L 45.4984 108.401 L 45.4375 108.334 L 45.4457 108.303 L 45.5241 108.389" fill="none" stroke="#E64A19" stroke-width="0.05000" fill-rule="evenodd" fill-opacity="1.000"/>
    </g>
    <!-- ===== Thermal Segment Colour Legend ===== -->
    <g id="thermal-legend">
    <rect x="161.0000" y="5.0000" width="40.0000" height="72.0000"
          rx="1" ry="1"
          fill="#fafafa" stroke="#cccccc" stroke-width="0.15"/>
    <text x="181.0000" y="7.6000" font-family="sans-serif" font-size="2.2000" font-weight="bold" fill="#222222" text-anchor="middle">Thermal Segments</text>
    <line x1="161.5000" y1="8.7000" x2="200.5000" y2="8.7000" stroke="#bbbbbb" stroke-width="0.1"/>
    <rect x="161.8000" y="9.0000" width="3.5000" height="2.0000" fill="#000000" stroke="#333333" stroke-width="0.08" rx="0.3" ry="0.3"/>
    <text x="168.6000" y="10.9000" font-family="monospace" font-size="1.6000" fill="#444444" text-anchor="end"> 1</text>
    <text x="169.6000" y="10.9000" font-family="sans-serif" font-size="1.6000" fill="#111111">CoreContour_Volume</text>
    <rect x="161.8000" y="12.0000" width="3.5000" height="2.0000" fill="#8B0000" stroke="#333333" stroke-width="0.08" rx="0.3" ry="0.3"/>
    <text x="168.6000" y="13.9000" font-family="monospace" font-size="1.6000" fill="#444444" text-anchor="end"> 2</text>
    <text x="169.6000" y="13.9000" font-family="sans-serif" font-size="1.6000" fill="#111111">CoreContour_Overhang</text>
    <rect x="161.8000" y="15.0000" width="3.5000" height="2.0000" fill="#0000CC" stroke="#333333" stroke-width="0.08" rx="0.3" ry="0.3"/>
    <text x="168.6000" y="16.9000" font-family="monospace" font-size="1.6000" fill="#444444" text-anchor="end"> 3</text>
    <text x="169.6000" y="16.9000" font-family="sans-serif" font-size="1.6000" fill="#111111">Shell1Contour_Volume</text>
    <rect x="161.8000" y="18.0000" width="3.5000" height="2.0000" fill="#000080" stroke="#333333" stroke-width="0.08" rx="0.3" ry="0.3"/>
    <text x="168.6000" y="19.9000" font-family="monospace" font-size="1.6000" fill="#444444" text-anchor="end"> 4</text>
    <text x="169.6000" y="19.9000" font-family="sans-serif" font-size="1.6000" fill="#111111">Shell1Contour_Overhang</text>
    <rect x="161.8000" y="21.0000" width="3.5000" height="2.0000" fill="#B8860B" stroke="#333333" stroke-width="0.08" rx="0.3" ry="0.3"/>
    <text x="168.6000" y="22.9000" font-family="monospace" font-size="1.6000" fill="#444444" text-anchor="end"> 5</text>
    <text x="169.6000" y="22.9000" font-family="sans-serif" font-size="1.6000" fill="#111111">Shell2Contour_Volume</text>
    <rect x="161.8000" y="24.0000" width="3.5000" height="2.0000" fill="#006400" stroke="#333333" stroke-width="0.08" rx="0.3" ry="0.3"/>
    <text x="168.6000" y="25.9000" font-family="monospace" font-size="1.6000" fill="#444444" text-anchor="end"> 6</text>
    <text x="169.6000" y="25.9000" font-family="sans-serif" font-size="1.6000" fill="#111111">Shell2Contour_Overhang</text>
    <rect x="161.8000" y="27.0000" width="3.5000" height="2.0000" fill="#FF8C00" stroke="#333333" stroke-width="0.08" rx="0.3" ry="0.3"/>
    <text x="168.6000" y="28.9000" font-family="monospace" font-size="1.6000" fill="#444444" text-anchor="end"> 7</text>
    <text x="169.6000" y="28.9000" font-family="sans-serif" font-size="1.6000" fill="#111111">CoreOverhangHatch</text>
    <rect x="161.8000" y="30.0000" width="3.5000" height="2.0000" fill="#228B22" stroke="#333333" stroke-width="0.08" rx="0.3" ry="0.3"/>
    <text x="168.6000" y="31.9000" font-family="monospace" font-size="1.6000" fill="#444444" text-anchor="end"> 8</text>
    <text x="169.6000" y="31.9000" font-family="sans-serif" font-size="1.6000" fill="#111111">CoreNormalHatch</text>
    <rect x="161.8000" y="33.0000" width="3.5000" height="2.0000" fill="#800080" stroke="#333333" stroke-width="0.08" rx="0.3" ry="0.3"/>
    <text x="168.6000" y="34.9000" font-family="monospace" font-size="1.6000" fill="#444444" text-anchor="end"> 9</text>
    <text x="169.6000" y="34.9000" font-family="sans-serif" font-size="1.6000" fill="#111111">CoreContourHatch</text>
    <rect x="161.8000" y="36.0000" width="3.5000" height="2.0000" fill="#FF69B4" stroke="#333333" stroke-width="0.08" rx="0.3" ry="0.3"/>
    <text x="168.6000" y="37.9000" font-family="monospace" font-size="1.6000" fill="#444444" text-anchor="end">10</text>
    <text x="169.6000" y="37.9000" font-family="sans-serif" font-size="1.6000" fill="#111111">Shell1OverhangHatch</text>
    <rect x="161.8000" y="39.0000" width="3.5000" height="2.0000" fill="#00CED1" stroke="#333333" stroke-width="0.08" rx="0.3" ry="0.3"/>
    <text x="168.6000" y="40.9000" font-family="monospace" font-size="1.6000" fill="#444444" text-anchor="end">11</text>
    <text x="169.6000" y="40.9000" font-family="sans-serif" font-size="1.6000" fill="#111111">Shell1NormalHatch</text>
    <rect x="161.8000" y="42.0000" width="3.5000" height="2.0000" fill="#FF00FF" stroke="#333333" stroke-width="0.08" rx="0.3" ry="0.3"/>
    <text x="168.6000" y="43.9000" font-family="monospace" font-size="1.6000" fill="#444444" text-anchor="end">12</text>
    <text x="169.6000" y="43.9000" font-family="sans-serif" font-size="1.6000" fill="#111111">Shell1ContourHatch</text>
    <rect x="161.8000" y="45.0000" width="3.5000" height="2.0000" fill="#A52A2A" stroke="#333333" stroke-width="0.08" rx="0.3" ry="0.3"/>
    <text x="168.6000" y="46.9000" font-family="monospace" font-size="1.6000" fill="#444444" text-anchor="end">13</text>
    <text x="169.6000" y="46.9000" font-family="sans-serif" font-size="1.6000" fill="#111111">Shell2OverhangHatch</text>
    <rect x="161.8000" y="48.0000" width="3.5000" height="2.0000" fill="#808080" stroke="#333333" stroke-width="0.08" rx="0.3" ry="0.3"/>
    <text x="168.6000" y="49.9000" font-family="monospace" font-size="1.6000" fill="#444444" text-anchor="end">14</text>
    <text x="169.6000" y="49.9000" font-family="sans-serif" font-size="1.6000" fill="#111111">Shell2NormalHatch</text>
    <rect x="161.8000" y="51.0000" width="3.5000" height="2.0000" fill="#32CD32" stroke="#333333" stroke-width="0.08" rx="0.3" ry="0.3"/>
    <text x="168.6000" y="52.9000" font-family="monospace" font-size="1.6000" fill="#444444" text-anchor="end">15</text>
    <text x="169.6000" y="52.9000" font-family="sans-serif" font-size="1.6000" fill="#111111">Shell2ContourHatch</text>
    <rect x="161.8000" y="54.0000" width="3.5000" height="2.0000" fill="#1A237E" stroke="#333333" stroke-width="0.08" rx="0.3" ry="0.3"/>
    <text x="168.6000" y="55.9000" font-family="monospace" font-size="1.6000" fill="#444444" text-anchor="end">16</text>
    <text x="169.6000" y="55.9000" font-family="sans-serif" font-size="1.6000" fill="#111111">SupportContourVolume</text>
    <rect x="161.8000" y="57.0000" width="3.5000" height="2.0000" fill="#827717" stroke="#333333" stroke-width="0.08" rx="0.3" ry="0.3"/>
    <text x="168.6000" y="58.9000" font-family="monospace" font-size="1.6000" fill="#444444" text-anchor="end">17</text>
    <text x="169.6000" y="58.9000" font-family="sans-serif" font-size="1.6000" fill="#111111">SupportHatch</text>
    <rect x="161.8000" y="60.0000" width="3.5000" height="2.0000" fill="#006064" stroke="#333333" stroke-width="0.08" rx="0.3" ry="0.3"/>
    <text x="168.6000" y="61.9000" font-family="monospace" font-size="1.6000" fill="#444444" text-anchor="end">18</text>
    <text x="169.6000" y="61.9000" font-family="sans-serif" font-size="1.6000" fill="#111111">PointSequence</text>
    <rect x="161.8000" y="63.0000" width="3.5000" height="2.0000" fill="#B71C1C" stroke="#333333" stroke-width="0.08" rx="0.3" ry="0.3"/>
    <text x="168.6000" y="64.9000" font-family="monospace" font-size="1.6000" fill="#444444" text-anchor="end">19</text>
    <text x="169.6000" y="64.9000" font-family="sans-serif" font-size="1.6000" fill="#111111">ExternalSupports</text>
    <rect x="161.8000" y="66.0000" width="3.5000" height="2.0000" fill="#E64A19" stroke="#333333" stroke-width="0.08" rx="0.3" ry="0.3"/>
    <text x="168.6000" y="67.9000" font-family="monospace" font-size="1.6000" fill="#444444" text-anchor="end">20</text>
    <text x="169.6000" y="67.9000" font-family="sans-serif" font-size="1.6000" fill="#111111">CoreContourHatchOverhang</text>
    <rect x="161.8000" y="69.0000" width="3.5000" height="2.0000" fill="#311B92" stroke="#333333" stroke-width="0.08" rx="0.3" ry="0.3"/>
    <text x="168.6000" y="70.9000" font-family="monospace" font-size="1.6000" fill="#444444" text-anchor="end">21</text>
    <text x="169.6000" y="70.9000" font-family="sans-serif" font-size="1.6000" fill="#111111">Shell1ContourHatchOverhang</text>
    <rect x="161.8000" y="72.0000" width="3.5000" height="2.0000" fill="#880E4F" stroke="#333333" stroke-width="0.08" rx="0.3" ry="0.3"/>
    <text x="168.6000" y="73.9000" font-family="monospace" font-size="1.6000" fill="#444444" text-anchor="end">22</text>
    <text x="169.6000" y="73.9000" font-family="sans-serif" font-size="1.6000" fill="#111111">Shell2ContourHatchOverhang</text>
    </g>
  </g>
</svg>
