<?xml version="1.0" encoding="UTF-8" standalone="yes"?>
<svg xmlns="http://www.w3.org/2000/svg"
     xmlns:xlink="http://www.w3.org/1999/xlink"
     width="2020.0000mm" height="1600.0000mm"
     viewBox="0 0 202.000000 160.000000">
  <!--
    Build plate : 150.00 x 150.00 mm
    Coordinate  : 1 SVG unit = 1 mm
    Display zoom: 10x  (width/height = viewBox x 10)
    Hatch stroke: 0.04 mm = ~28 mm on screen at this zoom
    Legend panel: right margin (42 mm wide)
  -->
  <defs>
    <marker id="endArrow" markerWidth="2" markerHeight="1.4"
            refX="0" refY="0.7" orient="auto"
            markerUnits="strokeWidth">
      <polyline fill="darkblue" points="0,0 2,0.7 0,1.4 0.2,0.7"/>
    </marker>
  </defs>
  <!-- Background -->
  <rect x="0" y="0" width="202.000000" height="160.000000" fill="#f0f0f0" stroke="none"/>
  <!-- Build plate boundary (150 x 150 mm) -->
  <rect x="5.000000" y="5.000000" width="150.000000" height="150.000000"
        fill="#ffffff" stroke="#aaaaaa" stroke-width="0.2" stroke-dasharray="1,0.5"/>
  <!-- Build plate centre circle (r = 75.00 mm) -->
  <circle cx="80.000000" cy="80.000000" r="75.000000"
          fill="none" stroke="#bbbbbb" stroke-width="0.15" stroke-dasharray="0.8,0.4"/>
  <!-- Centre cross-hair -->
  <line x1="5.000000" y1="80.000000" x2="155.000000" y2="80.000000" stroke="#cccccc" stroke-width="0.1"/>
  <line x1="80.000000" y1="5.000000" x2="80.000000" y2="155.000000" stroke="#cccccc" stroke-width="0.1"/>
  <circle cx="80.000000" cy="80.000000" r="0.3" fill="#cccccc" stroke="none"/>
  <!-- Corner labels -->
  <text x="5.400000" y="4.600000" font-family="sans-serif" font-size="2" fill="#888888">0,0</text>
  <text x="154.600006" y="4.600000" font-family="sans-serif" font-size="2" fill="#888888" text-anchor="end">150,0</text>
  <text x="5.400000" y="157.199997" font-family="sans-serif" font-size="2" fill="#888888">0,150</text>
  <!-- Layer geometry -->
  <g id="geometry">
    <g class="thermal-hatch" data-segment="8" data-name="CoreNormalHatch">
      <line x1="34.89793" y1="126.60332" x2="34.85643" y2="126.61290" stroke="#228B22" stroke-width="0.04000"/>
      <line x1="34.98286" y1="126.48108" x2="34.71967" y2="126.54184" stroke="#228B22" stroke-width="0.04000"/>
      <line x1="35.06780" y1="126.35883" x2="34.58292" y2="126.47078" stroke="#228B22" stroke-width="0.04000"/>
      <line x1="35.15273" y1="126.23660" x2="34.44618" y2="126.39972" stroke="#228B22" stroke-width="0.04000"/>
      <line x1="35.23766" y1="126.11436" x2="34.30943" y2="126.32866" stroke="#228B22" stroke-width="0.04000"/>
      <line x1="35.32260" y1="125.99212" x2="34.17268" y2="126.25760" stroke="#228B22" stroke-width="0.04000"/>
      <line x1="35.40753" y1="125.86988" x2="34.09479" y2="126.17295" stroke="#228B22" stroke-width="0.04000"/>
      <line x1="35.46502" y1="125.75398" x2="34.05820" y2="126.07877" stroke="#228B22" stroke-width="0.04000"/>
      <line x1="35.48199" y1="125.64744" x2="34.02161" y2="125.98459" stroke="#228B22" stroke-width="0.04000"/>
      <line x1="35.49107" y1="125.54270" x2="33.98502" y2="125.89040" stroke="#228B22" stroke-width="0.04000"/>
      <line x1="35.50016" y1="125.43797" x2="33.94843" y2="125.79622" stroke="#228B22" stroke-width="0.04000"/>
      <line x1="35.50925" y1="125.33325" x2="33.91184" y2="125.70204" stroke="#228B22" stroke-width="0.04000"/>
      <line x1="35.51833" y1="125.22852" x2="33.87525" y2="125.60786" stroke="#228B22" stroke-width="0.04000"/>
      <line x1="35.52742" y1="125.12379" x2="33.83866" y2="125.51367" stroke="#228B22" stroke-width="0.04000"/>
      <line x1="35.53651" y1="125.01906" x2="33.80231" y2="125.41943" stroke="#228B22" stroke-width="0.04000"/>
      <line x1="35.54560" y1="124.91434" x2="33.76613" y2="125.32516" stroke="#228B22" stroke-width="0.04000"/>
      <line x1="35.55468" y1="124.80961" x2="33.72995" y2="125.23088" stroke="#228B22" stroke-width="0.04000"/>
      <line x1="35.56417" y1="124.70478" x2="33.69376" y2="125.13660" stroke="#228B22" stroke-width="0.04000"/>
      <line x1="35.57699" y1="124.59920" x2="33.65758" y2="125.04233" stroke="#228B22" stroke-width="0.04000"/>
      <line x1="35.58981" y1="124.49361" x2="33.62474" y2="124.94728" stroke="#228B22" stroke-width="0.04000"/>
      <line x1="35.60263" y1="124.38802" x2="33.59260" y2="124.85207" stroke="#228B22" stroke-width="0.04000"/>
      <line x1="35.61544" y1="124.28242" x2="33.56046" y2="124.75686" stroke="#228B22" stroke-width="0.04000"/>
      <line x1="35.61841" y1="124.17912" x2="33.52831" y2="124.66165" stroke="#228B22" stroke-width="0.04000"/>
      <line x1="35.61871" y1="124.07642" x2="33.49616" y2="124.56644" stroke="#228B22" stroke-width="0.04000"/>
      <line x1="35.61902" y1="123.97371" x2="33.46601" y2="124.47077" stroke="#228B22" stroke-width="0.04000"/>
      <line x1="35.61933" y1="123.87101" x2="33.43710" y2="124.37481" stroke="#228B22" stroke-width="0.04000"/>
      <line x1="35.61964" y1="123.76831" x2="33.40820" y2="124.27885" stroke="#228B22" stroke-width="0.04000"/>
      <line x1="35.62231" y1="123.66506" x2="33.37930" y2="124.18290" stroke="#228B22" stroke-width="0.04000"/>
      <line x1="35.62950" y1="123.56077" x2="33.35031" y2="124.08696" stroke="#228B22" stroke-width="0.04000"/>
      <line x1="35.63670" y1="123.45647" x2="33.31915" y2="123.99152" stroke="#228B22" stroke-width="0.04000"/>
      <line x1="35.64390" y1="123.35219" x2="33.28798" y2="123.89610" stroke="#228B22" stroke-width="0.04000"/>
      <line x1="35.65109" y1="123.24789" x2="33.25681" y2="123.80066" stroke="#228B22" stroke-width="0.04000"/>
      <line x1="35.65829" y1="123.14360" x2="33.22565" y2="123.70522" stroke="#228B22" stroke-width="0.04000"/>
      <line x1="35.66549" y1="123.03931" x2="33.19448" y2="123.60979" stroke="#228B22" stroke-width="0.04000"/>
      <line x1="35.67268" y1="122.93502" x2="33.16331" y2="123.51435" stroke="#228B22" stroke-width="0.04000"/>
      <line x1="35.67988" y1="122.83073" x2="33.13327" y2="123.41866" stroke="#228B22" stroke-width="0.04000"/>
      <line x1="35.68526" y1="122.72685" x2="33.10552" y2="123.32243" stroke="#228B22" stroke-width="0.04000"/>
      <line x1="35.69584" y1="122.62178" x2="33.07778" y2="123.22620" stroke="#228B22" stroke-width="0.04000"/>
      <line x1="35.70016" y1="122.51815" x2="33.05004" y2="123.12998" stroke="#228B22" stroke-width="0.04000"/>
      <line x1="35.70419" y1="122.41459" x2="33.02252" y2="123.03370" stroke="#228B22" stroke-width="0.04000"/>
      <line x1="35.70822" y1="122.31103" x2="32.99520" y2="122.93738" stroke="#228B22" stroke-width="0.04000"/>
      <line x1="35.71226" y1="122.20747" x2="32.96788" y2="122.84106" stroke="#228B22" stroke-width="0.04000"/>
      <line x1="35.71629" y1="122.10390" x2="32.94056" y2="122.74474" stroke="#228B22" stroke-width="0.04000"/>
      <line x1="35.72032" y1="122.00034" x2="32.91324" y2="122.64841" stroke="#228B22" stroke-width="0.04000"/>
      <line x1="35.72436" y1="121.89678" x2="32.88593" y2="122.55209" stroke="#228B22" stroke-width="0.04000"/>
      <line x1="35.72839" y1="121.79322" x2="32.85860" y2="122.45576" stroke="#228B22" stroke-width="0.04000"/>
      <line x1="35.73242" y1="121.68967" x2="32.83226" y2="122.35921" stroke="#228B22" stroke-width="0.04000"/>
      <line x1="35.74280" y1="121.58463" x2="32.81002" y2="122.26172" stroke="#228B22" stroke-width="0.04000"/>
      <line x1="35.75467" y1="121.47926" x2="32.78779" y2="122.16422" stroke="#228B22" stroke-width="0.04000"/>
      <line x1="35.76654" y1="121.37389" x2="32.76236" y2="122.06746" stroke="#228B22" stroke-width="0.04000"/>
      <line x1="35.77840" y1="121.26852" x2="32.73612" y2="121.97089" stroke="#228B22" stroke-width="0.04000"/>
      <line x1="35.78590" y1="121.16416" x2="32.70987" y2="121.87431" stroke="#228B22" stroke-width="0.04000"/>
      <line x1="35.79269" y1="121.05996" x2="32.68363" y2="121.77775" stroke="#228B22" stroke-width="0.04000"/>
      <line x1="35.79948" y1="120.95576" x2="32.65739" y2="121.68118" stroke="#228B22" stroke-width="0.04000"/>
      <line x1="35.80627" y1="120.85157" x2="32.63114" y2="121.58460" stroke="#228B22" stroke-width="0.04000"/>
      <line x1="35.81306" y1="120.74737" x2="32.60489" y2="121.48803" stroke="#228B22" stroke-width="0.04000"/>
      <line x1="35.82220" y1="120.64263" x2="32.57865" y2="121.39146" stroke="#228B22" stroke-width="0.04000"/>
      <line x1="35.83360" y1="120.53737" x2="32.55325" y2="121.29469" stroke="#228B22" stroke-width="0.04000"/>
      <line x1="35.84499" y1="120.43211" x2="32.53191" y2="121.19699" stroke="#228B22" stroke-width="0.04000"/>
      <line x1="35.85638" y1="120.32684" x2="32.51067" y2="121.09927" stroke="#228B22" stroke-width="0.04000"/>
      <line x1="35.86777" y1="120.22159" x2="32.48953" y2="121.00152" stroke="#228B22" stroke-width="0.04000"/>
      <line x1="35.87917" y1="120.11633" x2="32.46839" y2="120.90377" stroke="#228B22" stroke-width="0.04000"/>
      <line x1="35.89053" y1="120.01107" x2="32.44725" y2="120.80601" stroke="#228B22" stroke-width="0.04000"/>
      <line x1="35.90180" y1="119.90584" x2="32.42612" y2="120.70826" stroke="#228B22" stroke-width="0.04000"/>
      <line x1="35.91306" y1="119.80061" x2="32.40498" y2="120.61051" stroke="#228B22" stroke-width="0.04000"/>
      <line x1="35.92433" y1="119.69538" x2="32.38384" y2="120.51276" stroke="#228B22" stroke-width="0.04000"/>
      <line x1="35.93355" y1="119.59061" x2="32.36270" y2="120.41501" stroke="#228B22" stroke-width="0.04000"/>
      <line x1="35.94273" y1="119.48587" x2="32.34156" y2="120.31726" stroke="#228B22" stroke-width="0.04000"/>
      <line x1="35.95190" y1="119.38112" x2="32.31997" y2="120.21962" stroke="#228B22" stroke-width="0.04000"/>
      <line x1="35.96107" y1="119.27637" x2="32.29718" y2="120.12225" stroke="#228B22" stroke-width="0.04000"/>
      <line x1="35.97024" y1="119.17162" x2="32.27181" y2="120.02547" stroke="#228B22" stroke-width="0.04000"/>
      <line x1="35.97941" y1="119.06688" x2="32.24935" y2="119.92803" stroke="#228B22" stroke-width="0.04000"/>
      <line x1="35.98859" y1="118.96213" x2="32.22689" y2="119.83058" stroke="#228B22" stroke-width="0.04000"/>
      <line x1="35.98784" y1="118.85967" x2="32.20443" y2="119.73314" stroke="#228B22" stroke-width="0.04000"/>
      <line x1="35.98652" y1="118.75735" x2="32.18198" y2="119.63569" stroke="#228B22" stroke-width="0.04000"/>
      <line x1="35.98519" y1="118.65502" x2="32.15952" y2="119.53825" stroke="#228B22" stroke-width="0.04000"/>
      <line x1="35.97621" y1="118.55447" x2="32.13705" y2="119.44080" stroke="#228B22" stroke-width="0.04000"/>
      <line x1="35.97106" y1="118.45303" x2="32.11459" y2="119.34336" stroke="#228B22" stroke-width="0.04000"/>
      <line x1="35.96899" y1="118.35087" x2="32.09213" y2="119.24591" stroke="#228B22" stroke-width="0.04000"/>
      <line x1="35.96693" y1="118.24872" x2="32.06960" y2="119.14848" stroke="#228B22" stroke-width="0.04000"/>
      <line x1="35.96487" y1="118.14657" x2="32.02850" y2="119.05534" stroke="#228B22" stroke-width="0.04000"/>
      <line x1="35.95827" y1="118.04545" x2="31.98741" y2="118.96220" stroke="#228B22" stroke-width="0.04000"/>
      <line x1="35.94992" y1="117.94475" x2="31.94632" y2="118.86906" stroke="#228B22" stroke-width="0.04000"/>
      <line x1="35.94158" y1="117.84405" x2="31.90522" y2="118.77592" stroke="#228B22" stroke-width="0.04000"/>
      <line x1="35.93323" y1="117.74335" x2="31.87257" y2="118.68082" stroke="#228B22" stroke-width="0.04000"/>
      <line x1="35.92488" y1="117.64264" x2="31.84371" y2="118.58485" stroke="#228B22" stroke-width="0.04000"/>
      <line x1="35.91653" y1="117.54194" x2="31.81486" y2="118.48888" stroke="#228B22" stroke-width="0.04000"/>
      <line x1="35.91550" y1="117.43954" x2="31.78600" y2="118.39291" stroke="#228B22" stroke-width="0.04000"/>
      <line x1="35.91523" y1="117.33698" x2="31.75714" y2="118.29695" stroke="#228B22" stroke-width="0.04000"/>
      <line x1="35.91497" y1="117.23441" x2="31.72829" y2="118.20097" stroke="#228B22" stroke-width="0.04000"/>
      <line x1="35.90516" y1="117.13404" x2="31.68395" y2="118.10858" stroke="#228B22" stroke-width="0.04000"/>
      <line x1="35.88955" y1="117.03502" x2="31.63469" y2="118.01733" stroke="#228B22" stroke-width="0.04000"/>
      <line x1="35.87393" y1="116.93599" x2="31.58543" y2="117.92607" stroke="#228B22" stroke-width="0.04000"/>
      <line x1="35.85832" y1="116.83696" x2="31.53616" y2="117.83481" stroke="#228B22" stroke-width="0.04000"/>
      <line x1="35.84271" y1="116.73794" x2="31.48690" y2="117.74355" stroke="#228B22" stroke-width="0.04000"/>
      <line x1="35.82710" y1="116.63892" x2="31.43764" y2="117.65230" stroke="#228B22" stroke-width="0.04000"/>
      <line x1="35.81149" y1="116.53989" x2="31.38838" y2="117.56104" stroke="#228B22" stroke-width="0.04000"/>
      <line x1="35.79566" y1="116.44091" x2="31.34614" y2="117.46816" stroke="#228B22" stroke-width="0.04000"/>
      <line x1="35.77955" y1="116.34200" x2="31.30242" y2="117.37563" stroke="#228B22" stroke-width="0.04000"/>
      <line x1="35.76344" y1="116.24309" x2="31.25139" y2="117.28478" stroke="#228B22" stroke-width="0.04000"/>
      <line x1="35.74732" y1="116.14417" x2="31.20035" y2="117.19392" stroke="#228B22" stroke-width="0.04000"/>
      <line x1="35.73120" y1="116.04527" x2="31.14633" y2="117.10377" stroke="#228B22" stroke-width="0.04000"/>
      <line x1="35.71509" y1="115.94636" x2="31.09195" y2="117.01369" stroke="#228B22" stroke-width="0.04000"/>
      <line x1="35.69898" y1="115.84745" x2="31.03758" y2="116.92362" stroke="#228B22" stroke-width="0.04000"/>
      <line x1="35.68286" y1="115.74854" x2="30.98320" y2="116.83353" stroke="#228B22" stroke-width="0.04000"/>
      <line x1="35.66422" y1="115.65021" x2="30.92883" y2="116.74346" stroke="#228B22" stroke-width="0.04000"/>
      <line x1="35.64521" y1="115.55197" x2="30.87446" y2="116.65339" stroke="#228B22" stroke-width="0.04000"/>
      <line x1="35.62621" y1="115.45373" x2="30.85426" y2="116.55542" stroke="#228B22" stroke-width="0.04000"/>
      <line x1="35.60852" y1="115.35518" x2="30.85055" y2="116.45364" stroke="#228B22" stroke-width="0.04000"/>
      <line x1="35.59083" y1="115.25663" x2="30.84684" y2="116.35187" stroke="#228B22" stroke-width="0.04000"/>
      <line x1="35.56931" y1="115.15897" x2="30.83522" y2="116.25192" stroke="#228B22" stroke-width="0.04000"/>
      <line x1="35.53882" y1="115.06338" x2="30.79924" y2="116.15760" stroke="#228B22" stroke-width="0.04000"/>
      <line x1="35.50833" y1="114.96779" x2="30.76325" y2="116.06327" stroke="#228B22" stroke-width="0.04000"/>
      <line x1="35.47785" y1="114.87219" x2="30.72727" y2="115.96896" stroke="#228B22" stroke-width="0.04000"/>
      <line x1="35.44736" y1="114.77660" x2="30.69128" y2="115.87463" stroke="#228B22" stroke-width="0.04000"/>
      <line x1="35.41688" y1="114.68102" x2="30.65530" y2="115.78030" stroke="#228B22" stroke-width="0.04000"/>
      <line x1="35.38639" y1="114.58542" x2="30.63147" y2="115.68317" stroke="#228B22" stroke-width="0.04000"/>
      <line x1="35.35546" y1="114.48993" x2="30.62623" y2="115.58176" stroke="#228B22" stroke-width="0.04000"/>
      <line x1="35.32279" y1="114.39484" x2="30.62100" y2="115.48034" stroke="#228B22" stroke-width="0.04000"/>
      <line x1="35.29013" y1="114.29975" x2="30.61576" y2="115.37891" stroke="#228B22" stroke-width="0.04000"/>
      <line x1="35.25746" y1="114.20466" x2="30.61052" y2="115.27749" stroke="#228B22" stroke-width="0.04000"/>
      <line x1="35.22480" y1="114.10957" x2="30.60528" y2="115.17607" stroke="#228B22" stroke-width="0.04000"/>
      <line x1="35.19213" y1="114.01449" x2="30.60005" y2="115.07465" stroke="#228B22" stroke-width="0.04000"/>
      <line x1="35.15947" y1="113.91940" x2="30.59481" y2="114.97323" stroke="#228B22" stroke-width="0.04000"/>
      <line x1="35.12680" y1="113.82430" x2="30.58737" y2="114.87231" stroke="#228B22" stroke-width="0.04000"/>
      <line x1="35.09414" y1="113.72922" x2="30.59074" y2="114.76891" stroke="#228B22" stroke-width="0.04000"/>
      <line x1="35.06147" y1="113.63413" x2="30.61466" y2="114.66076" stroke="#228B22" stroke-width="0.04000"/>
      <line x1="35.02326" y1="113.54031" x2="30.63858" y2="114.55260" stroke="#228B22" stroke-width="0.04000"/>
      <line x1="34.98367" y1="113.44683" x2="30.66250" y2="114.44445" stroke="#228B22" stroke-width="0.04000"/>
      <line x1="34.94433" y1="113.35328" x2="30.68642" y2="114.33630" stroke="#228B22" stroke-width="0.04000"/>
      <line x1="34.90460" y1="113.25983" x2="30.71035" y2="114.22814" stroke="#228B22" stroke-width="0.04000"/>
      <line x1="34.86486" y1="113.16637" x2="30.73427" y2="114.11999" stroke="#228B22" stroke-width="0.04000"/>
      <line x1="34.82513" y1="113.07291" x2="30.75819" y2="114.01183" stroke="#228B22" stroke-width="0.04000"/>
      <line x1="34.78540" y1="112.97945" x2="30.78211" y2="113.90369" stroke="#228B22" stroke-width="0.04000"/>
      <line x1="34.74567" y1="112.88599" x2="30.79671" y2="113.79768" stroke="#228B22" stroke-width="0.04000"/>
      <line x1="34.70594" y1="112.79253" x2="30.80966" y2="113.69206" stroke="#228B22" stroke-width="0.04000"/>
      <line x1="34.66621" y1="112.69908" x2="30.83081" y2="113.58455" stroke="#228B22" stroke-width="0.04000"/>
      <line x1="34.62647" y1="112.60562" x2="30.86955" y2="113.47298" stroke="#228B22" stroke-width="0.04000"/>
      <line x1="34.58622" y1="112.51228" x2="30.90830" y2="113.36140" stroke="#228B22" stroke-width="0.04000"/>
      <line x1="34.54250" y1="112.41975" x2="30.94704" y2="113.24982" stroke="#228B22" stroke-width="0.04000"/>
      <line x1="34.49879" y1="112.32721" x2="30.98578" y2="113.13825" stroke="#228B22" stroke-width="0.04000"/>
      <line x1="34.45507" y1="112.23467" x2="31.02452" y2="113.02668" stroke="#228B22" stroke-width="0.04000"/>
      <line x1="34.41135" y1="112.14214" x2="31.06327" y2="112.91510" stroke="#228B22" stroke-width="0.04000"/>
      <line x1="34.36763" y1="112.04960" x2="31.10201" y2="112.80352" stroke="#228B22" stroke-width="0.04000"/>
      <line x1="34.32391" y1="111.95706" x2="31.13400" y2="112.69351" stroke="#228B22" stroke-width="0.04000"/>
      <line x1="34.26347" y1="111.86839" x2="31.16596" y2="112.58350" stroke="#228B22" stroke-width="0.04000"/>
      <line x1="34.19996" y1="111.78041" x2="31.19793" y2="112.47349" stroke="#228B22" stroke-width="0.04000"/>
      <line x1="34.13642" y1="111.69245" x2="31.22989" y2="112.36348" stroke="#228B22" stroke-width="0.04000"/>
      <line x1="34.07288" y1="111.60449" x2="31.26185" y2="112.25347" stroke="#228B22" stroke-width="0.04000"/>
      <line x1="34.00933" y1="111.51653" x2="31.29381" y2="112.14346" stroke="#228B22" stroke-width="0.04000"/>
      <line x1="33.94579" y1="111.42857" x2="31.36700" y2="112.02393" stroke="#228B22" stroke-width="0.04000"/>
      <line x1="33.88224" y1="111.34061" x2="31.46431" y2="111.89883" stroke="#228B22" stroke-width="0.04000"/>
      <line x1="33.81870" y1="111.25266" x2="31.55271" y2="111.77580" stroke="#228B22" stroke-width="0.04000"/>
      <line x1="33.75405" y1="111.16495" x2="31.63572" y2="111.65401" stroke="#228B22" stroke-width="0.04000"/>
      <line x1="33.68935" y1="111.07726" x2="31.71872" y2="111.53221" stroke="#228B22" stroke-width="0.04000"/>
      <line x1="33.61360" y1="110.99211" x2="31.80173" y2="111.41042" stroke="#228B22" stroke-width="0.04000"/>
      <line x1="33.44854" y1="110.92759" x2="31.88473" y2="111.28863" stroke="#228B22" stroke-width="0.04000"/>
      <line x1="33.27722" y1="110.86451" x2="31.96774" y2="111.16682" stroke="#228B22" stroke-width="0.04000"/>
      <line x1="33.10591" y1="110.80143" x2="32.30354" y2="110.98667" stroke="#228B22" stroke-width="0.04000"/>
      <line x1="32.93460" y1="110.73835" x2="32.62721" y2="110.80932" stroke="#228B22" stroke-width="0.04000"/>
    </g>
    <g class="thermal-hatch" data-segment="8" data-name="CoreNormalHatch">
      <line x1="51.16315" y1="111.47307" x2="47.99301" y2="112.20496" stroke="#228B22" stroke-width="0.04000"/>
      <line x1="51.21904" y1="111.35754" x2="47.57067" y2="112.19982" stroke="#228B22" stroke-width="0.04000"/>
      <line x1="51.17004" y1="111.26622" x2="47.13136" y2="112.19862" stroke="#228B22" stroke-width="0.04000"/>
      <line x1="50.97828" y1="111.61839" x2="48.48880" y2="112.19312" stroke="#228B22" stroke-width="0.04000"/>
      <line x1="51.12103" y1="111.17490" x2="46.77895" y2="112.17735" stroke="#228B22" stroke-width="0.04000"/>
      <line x1="51.07203" y1="111.08358" x2="46.42655" y2="112.15607" stroke="#228B22" stroke-width="0.04000"/>
      <line x1="50.79363" y1="111.76364" x2="49.11147" y2="112.15199" stroke="#228B22" stroke-width="0.04000"/>
      <line x1="51.02303" y1="110.99226" x2="46.07547" y2="112.13450" stroke="#228B22" stroke-width="0.04000"/>
      <line x1="50.97403" y1="110.90095" x2="45.76385" y2="112.10381" stroke="#228B22" stroke-width="0.04000"/>
      <line x1="50.60907" y1="111.90887" x2="49.95178" y2="112.06062" stroke="#228B22" stroke-width="0.04000"/>
      <line x1="50.92503" y1="110.80963" x2="45.50811" y2="112.06023" stroke="#228B22" stroke-width="0.04000"/>
      <line x1="50.87603" y1="110.71832" x2="45.25238" y2="112.01663" stroke="#228B22" stroke-width="0.04000"/>
      <line x1="50.83128" y1="110.62601" x2="45.01868" y2="111.96796" stroke="#228B22" stroke-width="0.04000"/>
      <line x1="50.79728" y1="110.53123" x2="44.79076" y2="111.91795" stroke="#228B22" stroke-width="0.04000"/>
      <line x1="50.76329" y1="110.43645" x2="44.56283" y2="111.86794" stroke="#228B22" stroke-width="0.04000"/>
      <line x1="50.72930" y1="110.34167" x2="44.33816" y2="111.81718" stroke="#228B22" stroke-width="0.04000"/>
      <line x1="50.69530" y1="110.24688" x2="44.15495" y2="111.75684" stroke="#228B22" stroke-width="0.04000"/>
      <line x1="50.66132" y1="110.15210" x2="43.99638" y2="111.69082" stroke="#228B22" stroke-width="0.04000"/>
      <line x1="50.62732" y1="110.05732" x2="43.83782" y2="111.62479" stroke="#228B22" stroke-width="0.04000"/>
      <line x1="50.59333" y1="109.96253" x2="43.67926" y2="111.55877" stroke="#228B22" stroke-width="0.04000"/>
      <line x1="50.47222" y1="109.88786" x2="43.52069" y2="111.49275" stroke="#228B22" stroke-width="0.04000"/>
      <line x1="50.34420" y1="109.81479" x2="43.37170" y2="111.42452" stroke="#228B22" stroke-width="0.04000"/>
      <line x1="50.25751" y1="109.73217" x2="43.22922" y2="111.35478" stroke="#228B22" stroke-width="0.04000"/>
      <line x1="50.17081" y1="109.64956" x2="43.08674" y2="111.28504" stroke="#228B22" stroke-width="0.04000"/>
      <line x1="50.04881" y1="109.57510" x2="42.94427" y2="111.21531" stroke="#228B22" stroke-width="0.04000"/>
      <line x1="49.91561" y1="109.50321" x2="42.80180" y2="111.14557" stroke="#228B22" stroke-width="0.04000"/>
      <line x1="49.78241" y1="109.43134" x2="42.65581" y2="111.07664" stroke="#228B22" stroke-width="0.04000"/>
      <line x1="49.64920" y1="109.35946" x2="42.51074" y2="111.00750" stroke="#228B22" stroke-width="0.04000"/>
      <line x1="49.51601" y1="109.28758" x2="42.37737" y2="110.93566" stroke="#228B22" stroke-width="0.04000"/>
      <line x1="49.45403" y1="109.19926" x2="42.25882" y2="110.86040" stroke="#228B22" stroke-width="0.04000"/>
      <line x1="49.39280" y1="109.11076" x2="42.14026" y2="110.78515" stroke="#228B22" stroke-width="0.04000"/>
      <line x1="49.33158" y1="109.02227" x2="42.02171" y2="110.70988" stroke="#228B22" stroke-width="0.04000"/>
      <line x1="49.23390" y1="108.94219" x2="41.90315" y2="110.63463" stroke="#228B22" stroke-width="0.04000"/>
      <line x1="49.05381" y1="108.88113" x2="41.78446" y2="110.55939" stroke="#228B22" stroke-width="0.04000"/>
      <line x1="48.87372" y1="108.82008" x2="41.65842" y2="110.48586" stroke="#228B22" stroke-width="0.04000"/>
      <line x1="48.69363" y1="108.75903" x2="41.53238" y2="110.41233" stroke="#228B22" stroke-width="0.04000"/>
      <line x1="48.50431" y1="108.70011" x2="41.40635" y2="110.33880" stroke="#228B22" stroke-width="0.04000"/>
      <line x1="48.30262" y1="108.64404" x2="41.28698" y2="110.26373" stroke="#228B22" stroke-width="0.04000"/>
      <line x1="48.12513" y1="108.58238" x2="41.18164" y2="110.18541" stroke="#228B22" stroke-width="0.04000"/>
      <line x1="47.95522" y1="108.51898" x2="41.07632" y2="110.10710" stroke="#228B22" stroke-width="0.04000"/>
      <line x1="47.78532" y1="108.45558" x2="40.97099" y2="110.02879" stroke="#228B22" stroke-width="0.04000"/>
      <line x1="47.61541" y1="108.39217" x2="40.86641" y2="109.95030" stroke="#228B22" stroke-width="0.04000"/>
      <line x1="47.44550" y1="108.32877" x2="40.76397" y2="109.87132" stroke="#228B22" stroke-width="0.04000"/>
      <line x1="47.25834" y1="108.26935" x2="40.66154" y2="109.79234" stroke="#228B22" stroke-width="0.04000"/>
      <line x1="47.07300" y1="108.20950" x2="40.55910" y2="109.71336" stroke="#228B22" stroke-width="0.04000"/>
      <line x1="46.88767" y1="108.14967" x2="40.45667" y2="109.63438" stroke="#228B22" stroke-width="0.04000"/>
      <line x1="46.70234" y1="108.08982" x2="40.35423" y2="109.55540" stroke="#228B22" stroke-width="0.04000"/>
      <line x1="46.51701" y1="108.02998" x2="40.26048" y2="109.47441" stroke="#228B22" stroke-width="0.04000"/>
      <line x1="46.36605" y1="107.96220" x2="40.17529" y2="109.39145" stroke="#228B22" stroke-width="0.04000"/>
      <line x1="46.16726" y1="107.90546" x2="40.09018" y2="109.30847" stroke="#228B22" stroke-width="0.04000"/>
      <line x1="45.98566" y1="107.84476" x2="40.00814" y2="109.22478" stroke="#228B22" stroke-width="0.04000"/>
      <line x1="45.80465" y1="107.78391" x2="39.92610" y2="109.14108" stroke="#228B22" stroke-width="0.04000"/>
      <line x1="45.62363" y1="107.72308" x2="39.84310" y2="109.05762" stroke="#228B22" stroke-width="0.04000"/>
      <line x1="45.44315" y1="107.66211" x2="39.75792" y2="108.97465" stroke="#228B22" stroke-width="0.04000"/>
      <line x1="45.26799" y1="107.59992" x2="39.67275" y2="108.89169" stroke="#228B22" stroke-width="0.04000"/>
      <line x1="45.08390" y1="107.53979" x2="39.58758" y2="108.80872" stroke="#228B22" stroke-width="0.04000"/>
      <line x1="44.89981" y1="107.47966" x2="39.50240" y2="108.72575" stroke="#228B22" stroke-width="0.04000"/>
      <line x1="44.71572" y1="107.41953" x2="39.41722" y2="108.64278" stroke="#228B22" stroke-width="0.04000"/>
      <line x1="44.53164" y1="107.35940" x2="39.33242" y2="108.55973" stroke="#228B22" stroke-width="0.04000"/>
      <line x1="44.38503" y1="107.29062" x2="39.26994" y2="108.47153" stroke="#228B22" stroke-width="0.04000"/>
      <line x1="44.25209" y1="107.21868" x2="39.20745" y2="108.38332" stroke="#228B22" stroke-width="0.04000"/>
      <line x1="44.11914" y1="107.14674" x2="39.14497" y2="108.29512" stroke="#228B22" stroke-width="0.04000"/>
      <line x1="43.98621" y1="107.07480" x2="39.08248" y2="108.20692" stroke="#228B22" stroke-width="0.04000"/>
      <line x1="43.83694" y1="107.00663" x2="39.01999" y2="108.11871" stroke="#228B22" stroke-width="0.04000"/>
      <line x1="43.66018" y1="106.94481" x2="38.95751" y2="108.03051" stroke="#228B22" stroke-width="0.04000"/>
      <line x1="43.49202" y1="106.88100" x2="38.89013" y2="107.94343" stroke="#228B22" stroke-width="0.04000"/>
      <line x1="43.36574" y1="106.80753" x2="38.81330" y2="107.85854" stroke="#228B22" stroke-width="0.04000"/>
      <line x1="43.23946" y1="106.73405" x2="38.73838" y2="107.77321" stroke="#228B22" stroke-width="0.04000"/>
      <line x1="43.11319" y1="106.66057" x2="38.67681" y2="107.68479" stroke="#228B22" stroke-width="0.04000"/>
      <line x1="42.99636" y1="106.58491" x2="38.62042" y2="107.59518" stroke="#228B22" stroke-width="0.04000"/>
      <line x1="42.91156" y1="106.50186" x2="38.59221" y2="107.49906" stroke="#228B22" stroke-width="0.04000"/>
      <line x1="42.82676" y1="106.41881" x2="38.56400" y2="107.40295" stroke="#228B22" stroke-width="0.04000"/>
      <line x1="42.74197" y1="106.33575" x2="38.53579" y2="107.30682" stroke="#228B22" stroke-width="0.04000"/>
      <line x1="42.64595" y1="106.25529" x2="38.50757" y2="107.21071" stroke="#228B22" stroke-width="0.04000"/>
      <line x1="42.54433" y1="106.17612" x2="38.47936" y2="107.11459" stroke="#228B22" stroke-width="0.04000"/>
      <line x1="42.45711" y1="106.09363" x2="38.45115" y2="107.01848" stroke="#228B22" stroke-width="0.04000"/>
      <line x1="42.37021" y1="106.01105" x2="38.42293" y2="106.92236" stroke="#228B22" stroke-width="0.04000"/>
      <line x1="42.28331" y1="105.92849" x2="38.39472" y2="106.82624" stroke="#228B22" stroke-width="0.04000"/>
      <line x1="42.19642" y1="105.84592" x2="38.36655" y2="106.73012" stroke="#228B22" stroke-width="0.04000"/>
      <line x1="42.10952" y1="105.76335" x2="38.33883" y2="106.63389" stroke="#228B22" stroke-width="0.04000"/>
      <line x1="42.01516" y1="105.68250" x2="38.35409" y2="106.52773" stroke="#228B22" stroke-width="0.04000"/>
      <line x1="41.88762" y1="105.60932" x2="38.39450" y2="106.41577" stroke="#228B22" stroke-width="0.04000"/>
      <line x1="41.76007" y1="105.53614" x2="38.43491" y2="106.30381" stroke="#228B22" stroke-width="0.04000"/>
      <line x1="41.63252" y1="105.46295" x2="38.47569" y2="106.19176" stroke="#228B22" stroke-width="0.04000"/>
      <line x1="41.50497" y1="105.38977" x2="38.51736" y2="106.07951" stroke="#228B22" stroke-width="0.04000"/>
      <line x1="41.38064" y1="105.31584" x2="38.55904" y2="105.96726" stroke="#228B22" stroke-width="0.04000"/>
      <line x1="41.20227" y1="105.25439" x2="38.60071" y2="105.85501" stroke="#228B22" stroke-width="0.04000"/>
      <line x1="40.97712" y1="105.20374" x2="38.64238" y2="105.74276" stroke="#228B22" stroke-width="0.04000"/>
      <line x1="40.75195" y1="105.15310" x2="38.87996" y2="105.58528" stroke="#228B22" stroke-width="0.04000"/>
      <line x1="40.52679" y1="105.10245" x2="39.12074" y2="105.42706" stroke="#228B22" stroke-width="0.04000"/>
      <line x1="40.00618" y1="105.12001" x2="39.36152" y2="105.26884" stroke="#228B22" stroke-width="0.04000"/>
    </g>
    <g class="thermal-hatch" data-segment="8" data-name="CoreNormalHatch">
      <line x1="33.44560" y1="111.23530" x2="33.58160" y2="111.41970" stroke="#228B22" stroke-width="0.04000"/>
      <line x1="33.58160" y1="111.41970" x2="33.58160" y2="111.41980" stroke="#228B22" stroke-width="0.04000"/>
      <line x1="33.58160" y1="111.41980" x2="34.02850" y2="112.03840" stroke="#228B22" stroke-width="0.04000"/>
      <line x1="34.02850" y1="112.03840" x2="34.02850" y2="112.03830" stroke="#228B22" stroke-width="0.04000"/>
      <line x1="34.02850" y1="112.03830" x2="34.06710" y2="112.09260" stroke="#228B22" stroke-width="0.04000"/>
      <line x1="34.06710" y1="112.09260" x2="34.32830" y2="112.64520" stroke="#228B22" stroke-width="0.04000"/>
      <line x1="34.32830" y1="112.64520" x2="34.68730" y2="113.48990" stroke="#228B22" stroke-width="0.04000"/>
      <line x1="34.68730" y1="113.48990" x2="34.68730" y2="113.49000" stroke="#228B22" stroke-width="0.04000"/>
      <line x1="34.68730" y1="113.49000" x2="34.74400" y2="113.62590" stroke="#228B22" stroke-width="0.04000"/>
      <line x1="34.74400" y1="113.62590" x2="34.78070" y2="113.70980" stroke="#228B22" stroke-width="0.04000"/>
      <line x1="34.78070" y1="113.70980" x2="35.08780" y2="114.60360" stroke="#228B22" stroke-width="0.04000"/>
      <line x1="35.08780" y1="114.60360" x2="35.29630" y2="115.25770" stroke="#228B22" stroke-width="0.04000"/>
      <line x1="35.29630" y1="115.25770" x2="35.34130" y2="115.50800" stroke="#228B22" stroke-width="0.04000"/>
      <line x1="35.34130" y1="115.50800" x2="35.39600" y2="115.79120" stroke="#228B22" stroke-width="0.04000"/>
      <line x1="35.39600" y1="115.79120" x2="35.51600" y2="116.52810" stroke="#228B22" stroke-width="0.04000"/>
      <line x1="35.51600" y1="116.52810" x2="35.51600" y2="116.52820" stroke="#228B22" stroke-width="0.04000"/>
      <line x1="35.51600" y1="116.52820" x2="35.62490" y2="117.21890" stroke="#228B22" stroke-width="0.04000"/>
      <line x1="35.62490" y1="117.21890" x2="35.62570" y2="117.54470" stroke="#228B22" stroke-width="0.04000"/>
      <line x1="35.62570" y1="117.54470" x2="35.67430" y2="118.13350" stroke="#228B22" stroke-width="0.04000"/>
      <line x1="35.67430" y1="118.13350" x2="35.68270" y2="118.53900" stroke="#228B22" stroke-width="0.04000"/>
      <line x1="35.68270" y1="118.53900" x2="35.69490" y2="118.65100" stroke="#228B22" stroke-width="0.04000"/>
      <line x1="35.69490" y1="118.65100" x2="35.69880" y2="118.94560" stroke="#228B22" stroke-width="0.04000"/>
      <line x1="35.69880" y1="118.94560" x2="35.63630" y2="119.66200" stroke="#228B22" stroke-width="0.04000"/>
      <line x1="35.63630" y1="119.66200" x2="35.59970" y2="120.00350" stroke="#228B22" stroke-width="0.04000"/>
      <line x1="35.59970" y1="120.00350" x2="35.52750" y2="120.67150" stroke="#228B22" stroke-width="0.04000"/>
      <line x1="35.52750" y1="120.67150" x2="35.49090" y2="121.22800" stroke="#228B22" stroke-width="0.04000"/>
      <line x1="35.49090" y1="121.22800" x2="35.44380" y2="121.64800" stroke="#228B22" stroke-width="0.04000"/>
      <line x1="35.44380" y1="121.64800" x2="35.40690" y2="122.59540" stroke="#228B22" stroke-width="0.04000"/>
      <line x1="35.40690" y1="122.59540" x2="35.39740" y2="122.67830" stroke="#228B22" stroke-width="0.04000"/>
      <line x1="35.39740" y1="122.67830" x2="35.39170" y2="122.79350" stroke="#228B22" stroke-width="0.04000"/>
      <line x1="35.39170" y1="122.79350" x2="35.32980" y2="123.69050" stroke="#228B22" stroke-width="0.04000"/>
      <line x1="35.32980" y1="123.69050" x2="35.32820" y2="124.24180" stroke="#228B22" stroke-width="0.04000"/>
      <line x1="35.32820" y1="124.24180" x2="35.27430" y2="124.68610" stroke="#228B22" stroke-width="0.04000"/>
      <line x1="35.27430" y1="124.68610" x2="35.18980" y2="125.65980" stroke="#228B22" stroke-width="0.04000"/>
      <line x1="35.18980" y1="125.65980" x2="35.17280" y2="125.69910" stroke="#228B22" stroke-width="0.04000"/>
      <line x1="35.17280" y1="125.69910" x2="34.78920" y2="126.25120" stroke="#228B22" stroke-width="0.04000"/>
      <line x1="34.78920" y1="126.25120" x2="34.34690" y2="126.02130" stroke="#228B22" stroke-width="0.04000"/>
      <line x1="34.34690" y1="126.02130" x2="34.09450" y2="125.37140" stroke="#228B22" stroke-width="0.04000"/>
      <line x1="34.09450" y1="125.37140" x2="34.09440" y2="125.37140" stroke="#228B22" stroke-width="0.04000"/>
      <line x1="34.09440" y1="125.37140" x2="33.92340" y2="124.92570" stroke="#228B22" stroke-width="0.04000"/>
      <line x1="33.92340" y1="124.92570" x2="33.75960" y2="124.44020" stroke="#228B22" stroke-width="0.04000"/>
      <line x1="33.75960" y1="124.44020" x2="33.62820" y2="124.00390" stroke="#228B22" stroke-width="0.04000"/>
      <line x1="33.62820" y1="124.00390" x2="33.41810" y2="123.36020" stroke="#228B22" stroke-width="0.04000"/>
      <line x1="33.41810" y1="123.36020" x2="33.31580" y2="123.00480" stroke="#228B22" stroke-width="0.04000"/>
      <line x1="33.31580" y1="123.00480" x2="33.11740" y2="122.30620" stroke="#228B22" stroke-width="0.04000"/>
      <line x1="33.11740" y1="122.30620" x2="33.06450" y2="122.07410" stroke="#228B22" stroke-width="0.04000"/>
      <line x1="33.06450" y1="122.07410" x2="32.83810" y2="121.24050" stroke="#228B22" stroke-width="0.04000"/>
      <line x1="32.83810" y1="121.24050" x2="32.80530" y2="121.08990" stroke="#228B22" stroke-width="0.04000"/>
      <line x1="32.80530" y1="121.08990" x2="32.80540" y2="121.08990" stroke="#228B22" stroke-width="0.04000"/>
      <line x1="32.80540" y1="121.08990" x2="32.60930" y2="120.18280" stroke="#228B22" stroke-width="0.04000"/>
      <line x1="32.60930" y1="120.18280" x2="32.56870" y2="120.00980" stroke="#228B22" stroke-width="0.04000"/>
      <line x1="32.56870" y1="120.00980" x2="32.55620" y2="119.96910" stroke="#228B22" stroke-width="0.04000"/>
      <line x1="32.55620" y1="119.96910" x2="32.34620" y2="119.05700" stroke="#228B22" stroke-width="0.04000"/>
      <line x1="32.34620" y1="119.05700" x2="32.16510" y2="118.64650" stroke="#228B22" stroke-width="0.04000"/>
      <line x1="32.16510" y1="118.64650" x2="31.99040" y2="118.06600" stroke="#228B22" stroke-width="0.04000"/>
      <line x1="31.99040" y1="118.06600" x2="31.63720" y2="117.41160" stroke="#228B22" stroke-width="0.04000"/>
      <line x1="31.63720" y1="117.41160" x2="31.58060" y2="117.27890" stroke="#228B22" stroke-width="0.04000"/>
      <line x1="31.58060" y1="117.27890" x2="31.44570" y2="117.03870" stroke="#228B22" stroke-width="0.04000"/>
      <line x1="31.44570" y1="117.03870" x2="31.14360" y2="116.53820" stroke="#228B22" stroke-width="0.04000"/>
      <line x1="31.14360" y1="116.53820" x2="31.13200" y2="116.21640" stroke="#228B22" stroke-width="0.04000"/>
      <line x1="31.13200" y1="116.21640" x2="30.92060" y2="115.66290" stroke="#228B22" stroke-width="0.04000"/>
      <line x1="30.92060" y1="115.66290" x2="30.88030" y2="114.87740" stroke="#228B22" stroke-width="0.04000"/>
      <line x1="30.88030" y1="114.87740" x2="30.87420" y2="114.82940" stroke="#228B22" stroke-width="0.04000"/>
      <line x1="30.87420" y1="114.82940" x2="31.08120" y2="113.89390" stroke="#228B22" stroke-width="0.04000"/>
      <line x1="31.08120" y1="113.89390" x2="31.08720" y2="113.79560" stroke="#228B22" stroke-width="0.04000"/>
      <line x1="31.08720" y1="113.79560" x2="31.10420" y2="113.68070" stroke="#228B22" stroke-width="0.04000"/>
      <line x1="31.10420" y1="113.68070" x2="31.37860" y2="112.89110" stroke="#228B22" stroke-width="0.04000"/>
      <line x1="31.37860" y1="112.89110" x2="31.56830" y2="112.23710" stroke="#228B22" stroke-width="0.04000"/>
      <line x1="31.56830" y1="112.23710" x2="31.73550" y2="112.02250" stroke="#228B22" stroke-width="0.04000"/>
      <line x1="31.73550" y1="112.02250" x2="32.17250" y2="111.38090" stroke="#228B22" stroke-width="0.04000"/>
      <line x1="32.17250" y1="111.38090" x2="32.27860" y2="111.33110" stroke="#228B22" stroke-width="0.04000"/>
      <line x1="32.27860" y1="111.33110" x2="32.85180" y2="111.01680" stroke="#228B22" stroke-width="0.04000"/>
      <line x1="32.85180" y1="111.01680" x2="33.44560" y2="111.23530" stroke="#228B22" stroke-width="0.04000"/>
      <line x1="40.39670" y1="105.37040" x2="41.21620" y2="105.55460" stroke="#228B22" stroke-width="0.04000"/>
      <line x1="41.21620" y1="105.55460" x2="41.24960" y2="105.57750" stroke="#228B22" stroke-width="0.04000"/>
      <line x1="41.24960" y1="105.57750" x2="41.86400" y2="105.92990" stroke="#228B22" stroke-width="0.04000"/>
      <line x1="41.86400" y1="105.92990" x2="42.35270" y2="106.39450" stroke="#228B22" stroke-width="0.04000"/>
      <line x1="42.35270" y1="106.39450" x2="42.52220" y2="106.52670" stroke="#228B22" stroke-width="0.04000"/>
      <line x1="42.52220" y1="106.52670" x2="42.83870" y2="106.83640" stroke="#228B22" stroke-width="0.04000"/>
      <line x1="42.83870" y1="106.83640" x2="43.39180" y2="107.15800" stroke="#228B22" stroke-width="0.04000"/>
      <line x1="43.39180" y1="107.15800" x2="43.78400" y2="107.29520" stroke="#228B22" stroke-width="0.04000"/>
      <line x1="43.78400" y1="107.29520" x2="44.36750" y2="107.61080" stroke="#228B22" stroke-width="0.04000"/>
      <line x1="44.36750" y1="107.61080" x2="45.19030" y2="107.87970" stroke="#228B22" stroke-width="0.04000"/>
      <line x1="45.19030" y1="107.87970" x2="45.19030" y2="107.87980" stroke="#228B22" stroke-width="0.04000"/>
      <line x1="45.19030" y1="107.87980" x2="45.36210" y2="107.94110" stroke="#228B22" stroke-width="0.04000"/>
      <line x1="45.36210" y1="107.94110" x2="46.07470" y2="108.18060" stroke="#228B22" stroke-width="0.04000"/>
      <line x1="46.07470" y1="108.18060" x2="46.23060" y2="108.22500" stroke="#228B22" stroke-width="0.04000"/>
      <line x1="46.23060" y1="108.22500" x2="46.25340" y2="108.24960" stroke="#228B22" stroke-width="0.04000"/>
      <line x1="46.25340" y1="108.24960" x2="47.18510" y2="108.55060" stroke="#228B22" stroke-width="0.04000"/>
      <line x1="47.18510" y1="108.55060" x2="47.28640" y2="108.57890" stroke="#228B22" stroke-width="0.04000"/>
      <line x1="47.28640" y1="108.57890" x2="48.16490" y2="108.90680" stroke="#228B22" stroke-width="0.04000"/>
      <line x1="48.16490" y1="108.90680" x2="48.50590" y2="109.00150" stroke="#228B22" stroke-width="0.04000"/>
      <line x1="48.50590" y1="109.00150" x2="49.10510" y2="109.20450" stroke="#228B22" stroke-width="0.04000"/>
      <line x1="49.10510" y1="109.20450" x2="49.31560" y2="109.50890" stroke="#228B22" stroke-width="0.04000"/>
      <line x1="49.31560" y1="109.50890" x2="49.97760" y2="109.86630" stroke="#228B22" stroke-width="0.04000"/>
      <line x1="49.97760" y1="109.86630" x2="50.23890" y2="110.11500" stroke="#228B22" stroke-width="0.04000"/>
      <line x1="50.23890" y1="110.11500" x2="50.35370" y2="110.15380" stroke="#228B22" stroke-width="0.04000"/>
      <line x1="50.35370" y1="110.15380" x2="50.57520" y2="110.77100" stroke="#228B22" stroke-width="0.04000"/>
      <line x1="50.57520" y1="110.77100" x2="50.81160" y2="111.21150" stroke="#228B22" stroke-width="0.04000"/>
      <line x1="50.81160" y1="111.21150" x2="50.38800" y2="111.54460" stroke="#228B22" stroke-width="0.04000"/>
      <line x1="50.38800" y1="111.54460" x2="50.17620" y2="111.72550" stroke="#228B22" stroke-width="0.04000"/>
      <line x1="50.17620" y1="111.72550" x2="49.35270" y2="111.87330" stroke="#228B22" stroke-width="0.04000"/>
      <line x1="49.35270" y1="111.87330" x2="49.01240" y2="111.85680" stroke="#228B22" stroke-width="0.04000"/>
      <line x1="49.01240" y1="111.85680" x2="48.26190" y2="111.92150" stroke="#228B22" stroke-width="0.04000"/>
      <line x1="48.26190" y1="111.92150" x2="47.75230" y2="111.90870" stroke="#228B22" stroke-width="0.04000"/>
      <line x1="47.75230" y1="111.90870" x2="47.19760" y2="111.91190" stroke="#228B22" stroke-width="0.04000"/>
      <line x1="47.19760" y1="111.91190" x2="46.37700" y2="111.86270" stroke="#228B22" stroke-width="0.04000"/>
      <line x1="46.37700" y1="111.86270" x2="46.15390" y2="111.84960" stroke="#228B22" stroke-width="0.04000"/>
      <line x1="46.15390" y1="111.84960" x2="45.87520" y2="111.82840" stroke="#228B22" stroke-width="0.04000"/>
      <line x1="45.87520" y1="111.82840" x2="45.25480" y2="111.72270" stroke="#228B22" stroke-width="0.04000"/>
      <line x1="45.25480" y1="111.72270" x2="44.52320" y2="111.56230" stroke="#228B22" stroke-width="0.04000"/>
      <line x1="44.52320" y1="111.56230" x2="44.52330" y2="111.56230" stroke="#228B22" stroke-width="0.04000"/>
      <line x1="44.52330" y1="111.56230" x2="44.39980" y2="111.53360" stroke="#228B22" stroke-width="0.04000"/>
      <line x1="44.39980" y1="111.53360" x2="44.32610" y2="111.51400" stroke="#228B22" stroke-width="0.04000"/>
      <line x1="44.32610" y1="111.51400" x2="43.57610" y2="111.20170" stroke="#228B22" stroke-width="0.04000"/>
      <line x1="43.57610" y1="111.20170" x2="42.89060" y2="110.86620" stroke="#228B22" stroke-width="0.04000"/>
      <line x1="42.89060" y1="110.86620" x2="42.70930" y2="110.78150" stroke="#228B22" stroke-width="0.04000"/>
      <line x1="42.70930" y1="110.78150" x2="42.56600" y2="110.71190" stroke="#228B22" stroke-width="0.04000"/>
      <line x1="42.56600" y1="110.71190" x2="41.93760" y2="110.31310" stroke="#228B22" stroke-width="0.04000"/>
      <line x1="41.93760" y1="110.31310" x2="41.48130" y2="110.04660" stroke="#228B22" stroke-width="0.04000"/>
      <line x1="41.48130" y1="110.04660" x2="41.06620" y2="109.73810" stroke="#228B22" stroke-width="0.04000"/>
      <line x1="41.06620" y1="109.73810" x2="40.49340" y2="109.29650" stroke="#228B22" stroke-width="0.04000"/>
      <line x1="40.49340" y1="109.29650" x2="40.29450" y2="109.10270" stroke="#228B22" stroke-width="0.04000"/>
      <line x1="40.29450" y1="109.10270" x2="40.07400" y2="108.87780" stroke="#228B22" stroke-width="0.04000"/>
      <line x1="40.07400" y1="108.87780" x2="39.55450" y2="108.37150" stroke="#228B22" stroke-width="0.04000"/>
      <line x1="39.55450" y1="108.37150" x2="39.14300" y2="107.79050" stroke="#228B22" stroke-width="0.04000"/>
      <line x1="39.14300" y1="107.79050" x2="38.97310" y2="107.60280" stroke="#228B22" stroke-width="0.04000"/>
      <line x1="38.97310" y1="107.60280" x2="38.88980" y2="107.48340" stroke="#228B22" stroke-width="0.04000"/>
      <line x1="38.88980" y1="107.48340" x2="38.64720" y2="106.65610" stroke="#228B22" stroke-width="0.04000"/>
      <line x1="38.64720" y1="106.65610" x2="38.63340" y2="106.60830" stroke="#228B22" stroke-width="0.04000"/>
      <line x1="38.63340" y1="106.60830" x2="38.74210" y2="106.30700" stroke="#228B22" stroke-width="0.04000"/>
      <line x1="38.74210" y1="106.30700" x2="38.74200" y2="106.30690" stroke="#228B22" stroke-width="0.04000"/>
      <line x1="38.74200" y1="106.30690" x2="38.88160" y2="105.93110" stroke="#228B22" stroke-width="0.04000"/>
      <line x1="38.88160" y1="105.93110" x2="39.54800" y2="105.49320" stroke="#228B22" stroke-width="0.04000"/>
      <line x1="39.54800" y1="105.49320" x2="39.57330" y2="105.48870" stroke="#228B22" stroke-width="0.04000"/>
      <line x1="39.57330" y1="105.48870" x2="39.57340" y2="105.48880" stroke="#228B22" stroke-width="0.04000"/>
      <line x1="39.57340" y1="105.48880" x2="40.34910" y2="105.35490" stroke="#228B22" stroke-width="0.04000"/>
      <line x1="40.34910" y1="105.35490" x2="40.39670" y2="105.37040" stroke="#228B22" stroke-width="0.04000"/>
    </g>
    <g class="thermal-hatch" data-segment="7" data-name="CoreOverhangHatch">
      <line x1="50.87540" y1="111.33040" x2="50.70180" y2="111.46690" stroke="#FF8C00" stroke-width="0.04000"/>
      <line x1="50.70180" y1="111.46690" x2="50.35280" y2="111.74120" stroke="#FF8C00" stroke-width="0.04000"/>
      <line x1="50.35280" y1="111.74120" x2="50.18850" y2="111.72340" stroke="#FF8C00" stroke-width="0.04000"/>
      <line x1="50.18850" y1="111.72340" x2="50.17620" y2="111.72550" stroke="#FF8C00" stroke-width="0.04000"/>
      <line x1="50.17620" y1="111.72550" x2="50.38800" y2="111.54460" stroke="#FF8C00" stroke-width="0.04000"/>
      <line x1="50.38800" y1="111.54460" x2="50.81160" y2="111.21150" stroke="#FF8C00" stroke-width="0.04000"/>
      <line x1="50.81160" y1="111.21150" x2="50.87540" y2="111.33040" stroke="#FF8C00" stroke-width="0.04000"/>
    </g>
    <g class="thermal-contour" data-segment="1" data-name="CoreContour_Volume">
    <path d="M 33.5708 110.973 L 33.6385 111.003 L 33.6534 111.028 L 33.8162 111.249 L 34.2605 111.864 L 34.3184 111.945 L 34.5919 112.524 L 34.9588 113.387 L 35.0108 113.512 L 35.0514 113.605 L 35.3621 114.509 L 35.5784 115.188 L 35.6264 115.455 L 35.6808 115.736 L 35.8024 116.483 L 35.9149 117.196 L 35.9157 117.532 L 35.9643 118.118 L 35.9724 118.52 L 35.9849 118.633 L 35.9891 118.956 L 35.9246 119.693 L 35.888 120.035 L 35.8164 120.696 L 35.7801 121.254 L 35.7332 121.67 L 35.6963 122.618 L 35.6865 122.702 L 35.6811 122.813 L 35.6198 123.701 L 35.6182 124.26 L 35.5628 124.716 L 35.4747 125.732 L 35.4274 125.841 L 34.882 126.626 L 34.117 126.229 L 34.1162 126.228 L 34.116 126.228 L 33.8242 125.476 L 33.6514 125.026 L 33.4838 124.53 L 33.3515 124.091 L 33.1423 123.45 L 33.0371 123.085 L 32.8365 122.378 L 32.7832 122.144 L 32.557 121.312 L 32.522 121.152 L 32.3263 120.247 L 32.2885 120.085 L 32.2763 120.045 L 32.0698 119.149 L 31.8925 118.747 L 31.7213 118.178 L 31.3759 117.538 L 31.3201 117.407 L 31.1951 117.185 L 30.8568 116.624 L 30.844 116.275 L 30.6335 115.723 L 30.5912 114.903 L 30.5804 114.816 L 30.7932 113.853 L 30.7987 113.766 L 30.8217 113.611 L 31.1022 112.803 L 31.3056 112.103 L 31.501 111.852 L 31.9777 111.152 L 32.147 111.072 L 32.8282 110.699 L 33.5708 110.973" fill="none" stroke="#000000" stroke-width="0.05000" fill-rule="evenodd" fill-opacity="1.000"/>
    </g>
    <g class="thermal-contour" data-segment="1" data-name="CoreContour_Volume">
    <path d="M 40.4735 105.09 L 41.3343 105.284 L 41.4039 105.332 L 42.0386 105.696 L 42.5421 106.174 L 42.7137 106.308 L 43.0157 106.604 L 43.5136 106.894 L 43.9028 107.03 L 44.4824 107.343 L 45.2828 107.605 L 45.4572 107.667 L 46.1608 107.904 L 46.3881 107.968 L 46.4145 107.997 L 47.2689 108.273 L 47.3765 108.303 L 48.2545 108.631 L 48.5906 108.724 L 49.2891 108.961 L 49.5146 109.287 L 50.1499 109.63 L 50.3926 109.861 L 50.5796 109.924 L 50.8409 110.653 L 51.2461 111.408 L 50.881 111.695 L 50.881 111.695 L 50.4392 112.043 L 50.1987 112.016 L 49.3712 112.165 L 49.0179 112.147 L 48.2697 112.212 L 47.7494 112.199 L 47.1912 112.202 L 46.3599 112.152 L 46.1321 112.139 L 45.8391 112.117 L 45.1993 112.008 L 44.4619 111.846 L 44.3278 111.815 L 44.2333 111.789 L 43.4563 111.466 L 42.7656 111.128 L 42.5866 111.044 L 42.4246 110.966 L 41.7868 110.561 L 41.3209 110.289 L 40.8931 109.971 L 40.3033 109.516 L 40.0921 109.31 L 39.8693 109.083 L 39.3335 108.561 L 38.9163 107.972 L 38.7461 107.784 L 38.6248 107.61 L 38.3688 106.738 L 38.3286 106.598 L 38.4636 106.224 L 38.6431 105.741 L 39.4333 105.222 L 39.4378 105.218 L 39.4843 105.21 L 40.3709 105.057 L 40.4735 105.09" fill="none" stroke="#000000" stroke-width="0.05000" fill-rule="evenodd" fill-opacity="1.000"/>
    </g>
    <g class="thermal-contour" data-segment="1" data-name="CoreContour_Volume">
    <path d="M 33.4939 111.157 L 33.5027 111.161 L 33.6546 111.367 L 34.1015 111.986 L 34.1453 112.047 L 34.4097 112.607 L 34.7704 113.455 L 34.8268 113.59 L 34.8643 113.676 L 35.1729 114.574 L 35.384 115.237 L 35.4298 115.492 L 35.4844 115.774 L 35.6049 116.514 L 35.7149 117.212 L 35.7157 117.541 L 35.7643 118.129 L 35.7726 118.533 L 35.7849 118.645 L 35.7889 118.949 L 35.7258 119.672 L 35.6892 120.013 L 35.6172 120.679 L 35.5807 121.235 L 35.5336 121.655 L 35.4967 122.603 L 35.4871 122.686 L 35.4815 122.8 L 35.4198 123.694 L 35.4182 124.247 L 35.3638 124.695 L 35.2783 125.682 L 35.2518 125.743 L 34.818 126.368 L 34.2753 126.086 L 34.0106 125.404 L 33.8382 124.955 L 33.6738 124.467 L 33.5423 124.031 L 33.3325 123.388 L 33.2293 123.03 L 33.0301 122.328 L 32.9772 122.096 L 32.7512 121.264 L 32.7174 121.109 L 32.5215 120.203 L 32.4817 120.033 L 32.4692 119.992 L 32.2604 119.086 L 32.0805 118.678 L 31.9069 118.101 L 31.5561 117.451 L 31.4997 117.319 L 31.3679 117.084 L 31.0546 116.565 L 31.0426 116.235 L 30.8315 115.682 L 30.7906 114.885 L 30.783 114.825 L 30.9918 113.881 L 30.9977 113.786 L 31.0165 113.659 L 31.2928 112.864 L 31.4868 112.195 L 31.6627 111.969 L 32.1119 111.31 L 32.2378 111.251 L 32.8445 110.918 L 33.4939 111.157" fill="none" stroke="#000000" stroke-width="0.05000" fill-rule="evenodd" fill-opacity="1.000"/>
    <path d="M 32.2786 111.331 L 32.1725 111.381 L 31.7355 112.022 L 31.5683 112.237 L 31.3786 112.891 L 31.1042 113.681 L 31.0872 113.796 L 31.0812 113.894 L 30.8742 114.829 L 30.8803 114.877 L 30.9206 115.663 L 31.132 116.216 L 31.1436 116.538 L 31.4457 117.039 L 31.5806 117.279 L 31.6372 117.412 L 31.9904 118.066 L 32.1651 118.646 L 32.3462 119.057 L 32.5562 119.969 L 32.5687 120.01 L 32.6093 120.183 L 32.8054 121.09 L 32.8053 121.09 L 32.8381 121.241 L 33.0645 122.074 L 33.1174 122.306 L 33.3158 123.005 L 33.4181 123.36 L 33.6282 124.004 L 33.7596 124.44 L 33.9234 124.926 L 34.0944 125.371 L 34.0945 125.371 L 34.3469 126.021 L 34.7892 126.251 L 35.1728 125.699 L 35.1898 125.66 L 35.2743 124.686 L 35.3282 124.242 L 35.3298 123.69 L 35.3917 122.794 L 35.3974 122.678 L 35.4069 122.595 L 35.4438 121.648 L 35.4909 121.228 L 35.5275 120.672 L 35.5997 120.004 L 35.6363 119.662 L 35.6988 118.946 L 35.6949 118.651 L 35.6827 118.539 L 35.6743 118.133 L 35.6257 117.545 L 35.6249 117.219 L 35.516 116.528 L 35.516 116.528 L 35.396 115.791 L 35.3413 115.508 L 35.2963 115.258 L 35.0878 114.604 L 34.7807 113.71 L 34.744 113.626 L 34.6873 113.49 L 34.6873 113.49 L 34.3283 112.645 L 34.0671 112.093 L 34.0285 112.038 L 34.0285 112.038 L 33.5816 111.42 L 33.5816 111.42 L 33.4456 111.235 L 32.8518 111.017 L 32.2786 111.331" fill="none" stroke="#000000" stroke-width="0.05000" fill-rule="evenodd" fill-opacity="1.000"/>
    <path d="M 40.4205 105.284 L 41.2529 105.471 L 41.2975 105.501 L 41.918 105.857 L 42.4115 106.326 L 42.5813 106.459 L 42.8936 106.764 L 43.4296 107.076 L 43.821 107.213 L 44.4032 107.528 L 45.2206 107.795 L 45.3916 107.856 L 46.1014 108.095 L 46.2795 108.146 L 46.3034 108.171 L 47.2111 108.464 L 47.3141 108.493 L 48.1927 108.821 L 48.5321 108.915 L 49.1623 109.129 L 49.3774 109.44 L 50.0311 109.793 L 50.2866 110.036 L 50.4238 110.083 L 50.6577 110.734 L 50.8834 111.155 L 50.8116 111.212 L 50.5752 110.771 L 50.3537 110.154 L 50.2389 110.115 L 49.9776 109.866 L 49.3156 109.509 L 49.1051 109.204 L 48.5059 109.002 L 48.1649 108.907 L 47.2864 108.579 L 47.1851 108.551 L 46.2534 108.25 L 46.2306 108.225 L 46.0747 108.181 L 45.3621 107.941 L 45.1903 107.88 L 45.1903 107.88 L 44.3675 107.611 L 43.784 107.295 L 43.3918 107.158 L 42.8387 106.836 L 42.5222 106.527 L 42.3527 106.395 L 41.864 105.93 L 41.2496 105.577 L 41.2162 105.555 L 40.3967 105.37 L 40.3491 105.355 L 39.5734 105.489 L 39.5733 105.489 L 39.548 105.493 L 38.8816 105.931 L 38.742 106.307 L 38.7421 106.307 L 38.6334 106.608 L 38.6472 106.656 L 38.8898 107.483 L 38.9731 107.603 L 39.143 107.79 L 39.5545 108.371 L 40.074 108.878 L 40.2945 109.103 L 40.4934 109.297 L 41.0662 109.738 L 41.4813 110.047 L 41.9376 110.313 L 42.566 110.712 L 42.7093 110.782 L 42.8906 110.866 L 43.5761 111.202 L 44.3261 111.514 L 44.3998 111.534 L 44.5233 111.562 L 44.5232 111.562 L 45.2548 111.723 L 45.8752 111.828 L 46.1539 111.85 L 46.377 111.863 L 47.1976 111.912 L 47.7523 111.909 L 48.2619 111.922 L 49.0124 111.857 L 49.3527 111.873 L 50.1762 111.726 L 50.1477 111.75 L 49.3369 111.949 L 49.2772 111.96 L 49.0141 111.947 L 48.2647 112.012 L 47.7514 111.999 L 47.1958 112.002 L 46.3717 111.952 L 46.1478 111.939 L 45.8641 111.918 L 45.2373 111.811 L 44.503 111.65 L 44.3774 111.621 L 44.2973 111.6 L 43.5395 111.284 L 42.8518 110.947 L 42.6712 110.863 L 42.5224 110.791 L 41.8908 110.39 L 41.4318 110.122 L 41.0125 109.81 L 40.4341 109.364 L 40.2317 109.167 L 40.0105 108.941 L 39.4861 108.431 L 39.0727 107.847 L 38.9026 107.659 L 38.8076 107.523 L 38.5608 106.681 L 38.5388 106.605 L 38.6574 106.276 L 38.8075 105.872 L 39.5141 105.408 L 39.5581 105.4 L 40.3558 105.262 L 40.4205 105.284" fill="none" stroke="#000000" stroke-width="0.05000" fill-rule="evenodd" fill-opacity="1.000"/>
    </g>
    <g class="thermal-contour" data-segment="2" data-name="CoreContour_Overhang">
    <path d="M 50.9904 111.354 L 50.7574 111.538 L 50.3796 111.835 L 50.1917 111.814 L 49.3586 111.964 L 49.2772 111.96 L 49.3369 111.949 L 50.1477 111.75 L 50.1762 111.726 L 50.1885 111.723 L 50.3528 111.741 L 50.7018 111.467 L 50.8754 111.33 L 50.8116 111.212 L 50.8834 111.155 L 50.9904 111.354" fill="none" stroke="#8B0000" stroke-width="0.05000" fill-rule="evenodd" fill-opacity="1.000"/>
    </g>
    <g class="thermal-contour" data-segment="3" data-name="HollowShell1Contour_Volume">
    <path d="M 32.1651 119.117 L 32.3728 120.019 L 32.3851 120.059 L 32.4239 120.225 L 32.6197 121.13 L 32.6541 121.288 L 32.8802 122.12 L 32.9333 122.353 L 33.1332 123.057 L 33.2374 123.419 L 33.4469 124.061 L 33.5791 124.499 L 33.7448 124.99 L 33.9174 125.44 L 34.172 126.096 L 34.0587 126.065 L 33.8411 125.505 L 33.6079 124.897 L 33.5002 124.578 L 33.2952 123.898 L 33.1948 123.59 L 33.0296 123.017 L 32.8808 122.493 L 32.7765 122.035 L 32.6115 121.428 L 32.5295 121.053 L 32.3484 120.216 L 32.3048 119.977 L 32.18 119.309 L 32.1166 119.035 L 32.0697 118.928 L 32.044 118.843 L 32.1651 119.117" fill="none" stroke="#0000CC" stroke-width="0.05000" fill-rule="evenodd" fill-opacity="1.000"/>
    <path d="M 33.5708 110.973 L 33.6385 111.003 L 33.6533 111.029 L 33.8162 111.249 L 34.2605 111.864 L 34.3184 111.945 L 34.5919 112.524 L 34.9588 113.387 L 35.0108 113.512 L 35.0514 113.605 L 35.3621 114.509 L 35.5784 115.188 L 35.6264 115.455 L 35.6808 115.736 L 35.8024 116.483 L 35.9149 117.196 L 35.9157 117.532 L 35.9643 118.118 L 35.9724 118.52 L 35.9849 118.633 L 35.9871 118.805 L 35.9118 119.664 L 35.8432 120.305 L 35.8034 120.674 L 35.7832 120.984 L 35.709 121.642 L 35.6837 122.292 L 35.6359 122.702 L 35.6096 123.245 L 35.5771 123.716 L 35.5762 124.013 L 35.4841 124.772 L 35.4231 125.476 L 35.3898 125.552 L 35.4633 124.706 L 35.5182 124.254 L 35.5198 123.697 L 35.5813 122.807 L 35.5868 122.694 L 35.5965 122.61 L 35.6334 121.662 L 35.6804 121.244 L 35.7168 120.688 L 35.7886 120.024 L 35.8252 119.682 L 35.889 118.953 L 35.8849 118.639 L 35.8725 118.527 L 35.8643 118.124 L 35.8157 117.537 L 35.8149 117.204 L 35.7036 116.498 L 35.7036 116.498 L 35.5826 115.755 L 35.5281 115.473 L 35.4812 115.212 L 35.2675 114.542 L 34.9578 113.64 L 34.9188 113.551 L 34.8665 113.426 L 34.8665 113.426 L 34.5008 112.565 L 34.2318 111.996 L 34.1794 111.923 L 34.1794 111.923 L 33.7351 111.308 L 33.7351 111.308 L 33.5698 111.084 L 33.5684 111.081 L 33.5323 111.065 L 32.8363 110.809 L 32.1924 111.162 L 32.0448 111.231 L 31.5819 111.911 L 31.3962 112.149 L 31.1975 112.833 L 30.9191 113.635 L 30.8982 113.776 L 30.8925 113.867 L 30.6817 114.821 L 30.6909 114.894 L 30.7325 115.703 L 30.9433 116.255 L 30.9462 116.334 L 30.6776 115.63 L 30.6509 115.114 L 30.6018 114.719 L 30.7932 113.853 L 30.7987 113.766 L 30.8217 113.611 L 31.1022 112.803 L 31.3056 112.103 L 31.501 111.852 L 31.9777 111.152 L 32.147 111.072 L 32.8282 110.699 L 33.5708 110.973" fill="none" stroke="#0000CC" stroke-width="0.05000" fill-rule="evenodd" fill-opacity="1.000"/>
    <path d="M 40.4735 105.09 L 41.3343 105.284 L 41.4039 105.332 L 42.0386 105.696 L 42.5421 106.174 L 42.5467 106.178 L 42.6202 106.248 L 42.6838 106.293 L 42.7142 106.309 L 43.0157 106.604 L 43.5136 106.894 L 43.9028 107.03 L 44.4824 107.343 L 45.2828 107.605 L 45.4572 107.667 L 46.1608 107.904 L 46.3881 107.968 L 46.4145 107.997 L 47.2689 108.273 L 47.3765 108.303 L 48.2545 108.631 L 48.5906 108.724 L 49.2572 108.95 L 49.5001 109.301 L 50.2033 109.681 L 50.3574 109.827 L 50.3726 109.857 L 50.4374 109.982 L 50.3396 109.949 L 50.0905 109.711 L 49.446 109.363 L 49.2257 109.045 L 48.5605 108.82 L 48.2236 108.726 L 47.3453 108.398 L 47.24 108.369 L 46.359 108.084 L 46.3339 108.057 L 46.1311 107.999 L 45.4244 107.762 L 45.2517 107.7 L 44.4428 107.436 L 43.8619 107.121 L 43.4716 106.985 L 42.9546 106.684 L 42.6475 106.383 L 42.4768 106.25 L 41.9783 105.776 L 41.3507 105.416 L 41.2937 105.377 L 40.447 105.187 L 40.3633 105.16 L 39.5018 105.308 L 39.5019 105.309 L 39.4765 105.313 L 38.7253 105.807 L 38.5576 106.258 L 38.5577 106.258 L 38.4337 106.602 L 38.4648 106.71 L 38.7162 107.566 L 38.8242 107.721 L 38.9945 107.91 L 39.4098 108.496 L 39.9399 109.012 L 40.1619 109.239 L 40.3687 109.44 L 40.9528 109.891 L 41.3763 110.205 L 41.8388 110.475 L 42.4735 110.878 L 42.6289 110.954 L 42.8087 111.038 L 43.4979 111.375 L 44.2652 111.695 L 44.3533 111.718 L 44.4832 111.748 L 44.4833 111.748 L 45.2183 111.909 L 45.5625 111.968 L 45.4481 111.959 L 45.2086 111.919 L 44.9327 111.858 L 44.3307 111.719 L 43.9068 111.605 L 43.4435 111.412 L 43.0315 111.211 L 42.5656 110.993 L 42.1496 110.791 L 41.7868 110.561 L 41.3209 110.289 L 40.8931 109.971 L 40.3033 109.516 L 40.0921 109.31 L 39.8693 109.083 L 39.3335 108.561 L 38.9163 107.972 L 38.7461 107.784 L 38.6248 107.61 L 38.3688 106.738 L 38.3286 106.598 L 38.4636 106.224 L 38.6431 105.741 L 39.4333 105.222 L 39.4378 105.218 L 39.4843 105.21 L 40.3709 105.057 L 40.4735 105.09" fill="none" stroke="#0000CC" stroke-width="0.05000" fill-rule="evenodd" fill-opacity="1.000"/>
    </g>
    <g class="thermal-contour" data-segment="4" data-name="HollowShell1Contour_Overhang">
    <path d="M 35.9891 118.956 L 35.9246 119.693 L 35.888 120.035 L 35.8164 120.697 L 35.7801 121.254 L 35.7332 121.67 L 35.6963 122.618 L 35.6865 122.702 L 35.6811 122.813 L 35.6198 123.701 L 35.6182 124.26 L 35.5628 124.716 L 35.4747 125.732 L 35.4274 125.841 L 34.882 126.626 L 34.117 126.229 L 34.1162 126.228 L 34.116 126.228 L 33.8242 125.476 L 33.6514 125.026 L 33.6079 124.897 L 33.8411 125.505 L 34.0587 126.065 L 34.172 126.096 L 34.1958 126.157 L 34.85 126.497 L 35.3396 125.792 L 35.3765 125.707 L 35.3898 125.552 L 35.4231 125.476 L 35.4841 124.772 L 35.5762 124.013 L 35.5771 123.716 L 35.6096 123.245 L 35.6359 122.702 L 35.6837 122.292 L 35.709 121.642 L 35.7832 120.984 L 35.8034 120.674 L 35.8432 120.305 L 35.9118 119.664 L 35.9871 118.805 L 35.9891 118.956" fill="none" stroke="#000080" stroke-width="0.05000" fill-rule="evenodd" fill-opacity="1.000"/>
    <path d="M 30.6509 115.114 L 30.6776 115.63 L 30.9462 116.334 L 30.9557 116.594 L 31.2815 117.134 L 31.4099 117.363 L 31.466 117.494 L 31.8141 118.139 L 31.9865 118.712 L 32.044 118.843 L 32.0697 118.928 L 32.1166 119.035 L 32.18 119.309 L 32.3048 119.977 L 32.3484 120.216 L 32.5295 121.053 L 32.6115 121.428 L 32.7765 122.035 L 32.8808 122.493 L 33.0296 123.017 L 33.1948 123.59 L 33.2952 123.898 L 33.5002 124.578 L 33.4838 124.53 L 33.3515 124.091 L 33.1423 123.45 L 33.0371 123.085 L 32.8365 122.378 L 32.7832 122.144 L 32.557 121.312 L 32.522 121.151 L 32.3263 120.247 L 32.2885 120.085 L 32.2763 120.045 L 32.0698 119.149 L 31.8925 118.747 L 31.7213 118.178 L 31.3759 117.538 L 31.3201 117.407 L 31.1951 117.185 L 30.8568 116.624 L 30.844 116.275 L 30.6335 115.723 L 30.5912 114.903 L 30.5804 114.816 L 30.6018 114.719 L 30.6509 115.114" fill="none" stroke="#000080" stroke-width="0.05000" fill-rule="evenodd" fill-opacity="1.000"/>
    <path d="M 50.3926 109.861 L 50.5796 109.924 L 50.8409 110.653 L 51.2461 111.408 L 50.881 111.695 L 50.4392 112.043 L 50.1987 112.016 L 49.3712 112.165 L 49.0179 112.147 L 48.2697 112.212 L 47.7494 112.199 L 47.1912 112.202 L 46.3599 112.152 L 46.1321 112.139 L 45.8391 112.117 L 45.1993 112.008 L 44.4619 111.846 L 44.3278 111.815 L 44.2333 111.789 L 43.4563 111.466 L 42.7656 111.128 L 42.5866 111.044 L 42.4246 110.966 L 42.2869 110.878 L 42.1496 110.791 L 42.5656 110.993 L 43.0315 111.211 L 43.4435 111.412 L 43.9068 111.605 L 44.3307 111.719 L 44.9327 111.858 L 45.2086 111.919 L 45.4481 111.959 L 45.5625 111.968 L 45.8516 112.017 L 46.1397 112.039 L 46.1396 112.039 L 46.3658 112.052 L 47.1935 112.102 L 47.7504 112.099 L 48.2672 112.112 L 49.016 112.047 L 49.3649 112.064 L 50.1952 111.915 L 50.4094 111.939 L 50.8192 111.616 L 51.1182 111.381 L 50.7493 110.694 L 50.5017 110.003 L 50.4374 109.982 L 50.3726 109.857 L 50.3574 109.827 L 50.3926 109.861" fill="none" stroke="#000080" stroke-width="0.05000" fill-rule="evenodd" fill-opacity="1.000"/>
    <path d="M 49.2891 108.961 L 49.5146 109.287 L 50.1499 109.63 L 50.2033 109.681 L 49.5001 109.301 L 49.2572 108.95 L 49.2891 108.961" fill="none" stroke="#000080" stroke-width="0.05000" fill-rule="evenodd" fill-opacity="1.000"/>
    <path d="M 42.6947 106.293 L 42.7137 106.308 L 42.7142 106.309 L 42.6838 106.293 L 42.6202 106.248 L 42.5467 106.178 L 42.6947 106.293" fill="none" stroke="#000080" stroke-width="0.05000" fill-rule="evenodd" fill-opacity="1.000"/>
    </g>
    <g class="thermal-contour" data-segment="5" data-name="HollowShell2Contour_Volume">
    <path d="M 33.5323 111.065 L 33.5684 111.081 L 33.5698 111.084 L 33.7351 111.308 L 33.7351 111.308 L 34.1794 111.923 L 34.1794 111.923 L 34.2318 111.996 L 34.5008 112.565 L 34.8665 113.426 L 34.8665 113.426 L 34.9188 113.551 L 34.9578 113.64 L 35.2675 114.542 L 35.4812 115.212 L 35.5281 115.473 L 35.5826 115.755 L 35.7036 116.498 L 35.7036 116.498 L 35.8149 117.204 L 35.8157 117.537 L 35.8643 118.124 L 35.8725 118.527 L 35.8849 118.639 L 35.889 118.953 L 35.8252 119.682 L 35.7886 120.024 L 35.7168 120.688 L 35.6804 121.244 L 35.6334 121.662 L 35.5965 122.61 L 35.5868 122.694 L 35.5813 122.807 L 35.5198 123.697 L 35.5182 124.254 L 35.4633 124.706 L 35.3898 125.552 L 35.2583 125.858 L 34.8669 126.421 L 34.3171 126.135 L 34.172 126.096 L 33.9174 125.44 L 33.7448 124.99 L 33.5791 124.499 L 33.4469 124.061 L 33.2374 123.419 L 33.1332 123.057 L 32.9333 122.353 L 32.8802 122.12 L 32.6541 121.288 L 32.6197 121.13 L 32.4239 120.225 L 32.3851 120.059 L 32.3728 120.019 L 32.1651 119.117 L 32.044 118.843 L 31.8131 118.075 L 31.6028 117.685 L 31.4325 117.286 L 31.0511 116.607 L 30.9705 116.473 L 30.9675 116.39 L 30.9462 116.334 L 30.9433 116.255 L 30.7325 115.703 L 30.6909 114.894 L 30.6817 114.821 L 30.8925 113.867 L 30.8982 113.776 L 30.9191 113.635 L 31.1975 112.833 L 31.3962 112.149 L 31.5819 111.911 L 32.0448 111.231 L 32.1924 111.162 L 32.8363 110.809 L 33.5323 111.065" fill="none" stroke="#B8860B" stroke-width="0.05000" fill-rule="evenodd" fill-opacity="1.000"/>
    <path d="M 32.2378 111.251 L 32.1119 111.31 L 31.6627 111.969 L 31.4868 112.195 L 31.2928 112.864 L 31.0165 113.659 L 30.9977 113.786 L 30.9918 113.881 L 30.783 114.825 L 30.7906 114.885 L 30.8315 115.682 L 31.0426 116.235 L 31.0546 116.565 L 31.3679 117.084 L 31.4997 117.319 L 31.5561 117.451 L 31.9069 118.101 L 32.0805 118.678 L 32.2604 119.086 L 32.4692 119.992 L 32.4817 120.033 L 32.5215 120.203 L 32.7174 121.109 L 32.7512 121.264 L 32.9772 122.096 L 33.0301 122.328 L 33.2293 123.03 L 33.3325 123.388 L 33.5423 124.031 L 33.6738 124.467 L 33.8382 124.955 L 34.0106 125.404 L 34.2753 126.086 L 34.818 126.368 L 35.2518 125.743 L 35.2783 125.682 L 35.3638 124.695 L 35.4182 124.247 L 35.4198 123.694 L 35.4815 122.8 L 35.4871 122.686 L 35.4967 122.603 L 35.5336 121.655 L 35.5807 121.235 L 35.6172 120.679 L 35.6892 120.013 L 35.7258 119.672 L 35.7889 118.949 L 35.7849 118.645 L 35.7726 118.533 L 35.7643 118.129 L 35.7157 117.541 L 35.7149 117.212 L 35.6049 116.514 L 35.4844 115.774 L 35.4298 115.492 L 35.384 115.237 L 35.1729 114.574 L 34.8643 113.676 L 34.8268 113.59 L 34.7704 113.455 L 34.4097 112.607 L 34.1453 112.047 L 34.1015 111.986 L 33.6546 111.367 L 33.5027 111.161 L 33.4939 111.157 L 32.8445 110.918 L 32.2378 111.251" fill="none" stroke="#B8860B" stroke-width="0.05000" fill-rule="evenodd" fill-opacity="1.000"/>
    <path d="M 40.447 105.187 L 41.2937 105.377 L 41.3507 105.416 L 41.9783 105.776 L 42.4768 106.25 L 42.6475 106.383 L 42.9546 106.684 L 43.4716 106.985 L 43.8619 107.121 L 44.4428 107.436 L 45.2517 107.7 L 45.4244 107.762 L 46.1311 107.999 L 46.3339 108.057 L 46.359 108.084 L 47.24 108.369 L 47.3453 108.398 L 48.2236 108.726 L 48.5605 108.82 L 49.2257 109.045 L 49.446 109.363 L 50.0905 109.711 L 50.3396 109.949 L 50.4374 109.982 L 50.4982 110.099 L 50.7266 110.735 L 50.9316 111.117 L 50.8834 111.155 L 50.6577 110.734 L 50.4238 110.083 L 50.2866 110.036 L 50.0311 109.793 L 49.3774 109.44 L 49.1623 109.129 L 48.5321 108.915 L 48.1927 108.821 L 47.3141 108.493 L 47.2111 108.464 L 46.3034 108.171 L 46.2795 108.146 L 46.1014 108.095 L 45.3916 107.856 L 45.2206 107.795 L 44.4032 107.528 L 43.821 107.213 L 43.4296 107.076 L 42.8936 106.764 L 42.5813 106.459 L 42.4115 106.326 L 41.918 105.857 L 41.2975 105.501 L 41.2529 105.471 L 40.4205 105.284 L 40.3558 105.262 L 39.5581 105.4 L 39.5141 105.408 L 38.8075 105.872 L 38.6574 106.276 L 38.5388 106.605 L 38.5608 106.681 L 38.8076 107.523 L 38.9026 107.659 L 39.0727 107.847 L 39.4861 108.431 L 40.0105 108.941 L 40.2317 109.167 L 40.4341 109.364 L 41.0125 109.81 L 41.4318 110.122 L 41.8908 110.39 L 42.5224 110.791 L 42.6712 110.863 L 42.8518 110.947 L 43.5395 111.284 L 44.2973 111.6 L 44.3774 111.621 L 44.503 111.65 L 45.2373 111.811 L 45.8641 111.918 L 46.1478 111.939 L 46.3717 111.952 L 47.1958 112.002 L 47.7514 111.999 L 48.2647 112.012 L 49.0141 111.947 L 49.2772 111.96 L 49.2175 111.971 L 49.1956 111.969 L 48.102 112.064 L 47.9794 112.061 L 47.0798 112.067 L 46.6005 112.038 L 46.0965 112.008 L 45.5625 111.968 L 45.2183 111.909 L 44.4833 111.748 L 44.4832 111.748 L 44.3533 111.718 L 44.2652 111.695 L 43.4979 111.375 L 42.8087 111.038 L 42.6289 110.954 L 42.4735 110.878 L 41.8388 110.475 L 41.3763 110.205 L 40.9528 109.891 L 40.3687 109.44 L 40.1619 109.239 L 39.9399 109.012 L 39.4098 108.496 L 38.9945 107.91 L 38.8242 107.721 L 38.7162 107.566 L 38.4648 106.71 L 38.4337 106.602 L 38.5577 106.258 L 38.5576 106.258 L 38.7253 105.807 L 39.4765 105.313 L 39.5019 105.309 L 39.5018 105.308 L 40.3633 105.16 L 40.447 105.187" fill="none" stroke="#B8860B" stroke-width="0.05000" fill-rule="evenodd" fill-opacity="1.000"/>
    </g>
    <g class="thermal-contour" data-segment="6" data-name="HollowShell2Contour_Overhang">
    <path d="M 35.3765 125.707 L 35.3396 125.792 L 34.85 126.497 L 34.1958 126.157 L 34.172 126.096 L 34.3171 126.135 L 34.8669 126.421 L 35.2583 125.858 L 35.3898 125.552 L 35.3765 125.707" fill="none" stroke="#006400" stroke-width="0.05000" fill-rule="evenodd" fill-opacity="1.000"/>
    <path d="M 30.9675 116.39 L 30.9705 116.473 L 31.0511 116.607 L 31.4325 117.286 L 31.6028 117.685 L 31.8131 118.075 L 32.044 118.843 L 31.9865 118.712 L 31.8141 118.139 L 31.466 117.494 L 31.4099 117.363 L 31.2815 117.134 L 30.9557 116.594 L 30.9462 116.334 L 30.9675 116.39" fill="none" stroke="#006400" stroke-width="0.05000" fill-rule="evenodd" fill-opacity="1.000"/>
    <path d="M 50.5017 110.003 L 50.7493 110.694 L 51.1182 111.381 L 50.8192 111.616 L 50.4094 111.939 L 50.1952 111.915 L 49.3649 112.064 L 49.016 112.047 L 48.2672 112.112 L 47.7504 112.099 L 47.1935 112.102 L 46.3658 112.052 L 46.1396 112.039 L 46.1397 112.039 L 45.8516 112.017 L 45.5625 111.968 L 46.0965 112.008 L 46.6005 112.038 L 47.0798 112.067 L 47.9794 112.061 L 48.102 112.064 L 49.1956 111.969 L 49.2175 111.971 L 49.2772 111.96 L 49.3586 111.964 L 50.1917 111.814 L 50.3796 111.835 L 50.7574 111.538 L 50.9904 111.354 L 50.8834 111.155 L 50.9316 111.117 L 50.7266 110.735 L 50.4982 110.099 L 50.4374 109.982 L 50.5017 110.003" fill="none" stroke="#006400" stroke-width="0.05000" fill-rule="evenodd" fill-opacity="1.000"/>
    </g>
    <g class="thermal-contour" data-segment="9" data-name="CoreContourHatch">
    <path d="M 33.4625 111.213 L 33.6086 111.411 L 33.6086 111.411 L 34.0388 112.007 L 34.0391 112.007 L 34.0905 112.079 L 34.3529 112.634 L 34.7143 113.484 L 34.7143 113.485 L 34.7687 113.615 L 34.8059 113.7 L 35.1134 114.595 L 35.3226 115.251 L 35.3678 115.503 L 35.4226 115.786 L 35.5427 116.524 L 35.6519 117.217 L 35.6526 117.544 L 35.7013 118.132 L 35.7096 118.538 L 35.7219 118.649 L 35.7258 118.947 L 35.6632 119.665 L 35.6265 120.006 L 35.5543 120.674 L 35.5178 121.23 L 35.4708 121.649 L 35.4338 122.598 L 35.4244 122.68 L 35.4187 122.795 L 35.3568 123.691 L 35.3552 124.243 L 35.3011 124.689 L 35.2163 125.666 L 35.1965 125.712 L 34.7978 126.286 L 34.3254 126.041 L 34.076 125.398 L 34.0758 125.398 L 33.898 124.935 L 33.7339 124.448 L 33.6023 124.012 L 33.6023 124.012 L 33.3923 123.368 L 33.2898 123.012 L 33.0912 122.313 L 33.0384 122.081 L 33.0384 122.081 L 32.8119 121.247 L 32.7718 121.063 L 32.7719 121.063 L 32.583 120.189 L 32.5424 120.016 L 32.5301 119.976 L 32.3204 119.065 L 32.1397 118.656 L 31.9652 118.076 L 31.6129 117.423 L 31.5563 117.291 L 31.4226 117.053 L 31.1169 116.546 L 31.1051 116.222 L 30.8939 115.669 L 30.8533 114.88 L 30.8468 114.828 L 31.0544 113.89 L 31.0603 113.793 L 31.0779 113.674 L 31.3531 112.882 L 31.5438 112.225 L 31.7142 112.006 L 32.1543 111.36 L 32.2655 111.307 L 32.8496 110.987 L 33.4625 111.213" fill="none" stroke="#800080" stroke-width="0.05000" fill-rule="evenodd" fill-opacity="1.000"/>
    <path d="M 32.2786 111.331 L 32.1725 111.381 L 31.7355 112.022 L 31.5683 112.237 L 31.3786 112.891 L 31.1042 113.681 L 31.0872 113.796 L 31.0812 113.894 L 30.8742 114.829 L 30.8803 114.877 L 30.9206 115.663 L 31.132 116.216 L 31.1436 116.538 L 31.4457 117.039 L 31.5806 117.279 L 31.6372 117.412 L 31.9904 118.066 L 32.1651 118.646 L 32.3462 119.057 L 32.5562 119.969 L 32.5687 120.01 L 32.6093 120.183 L 32.8054 121.09 L 32.8053 121.09 L 32.8381 121.241 L 33.0645 122.074 L 33.1174 122.306 L 33.3158 123.005 L 33.4181 123.36 L 33.6282 124.004 L 33.7596 124.44 L 33.9234 124.926 L 34.0944 125.371 L 34.0945 125.371 L 34.3469 126.021 L 34.7892 126.251 L 35.1728 125.699 L 35.1898 125.66 L 35.2743 124.686 L 35.3282 124.242 L 35.3298 123.69 L 35.3917 122.794 L 35.3974 122.678 L 35.4069 122.595 L 35.4438 121.648 L 35.4909 121.228 L 35.5275 120.672 L 35.5997 120.004 L 35.6363 119.662 L 35.6988 118.946 L 35.6949 118.651 L 35.6827 118.539 L 35.6743 118.133 L 35.6257 117.545 L 35.6249 117.219 L 35.516 116.528 L 35.516 116.528 L 35.396 115.791 L 35.3413 115.508 L 35.2963 115.258 L 35.0878 114.604 L 34.7807 113.71 L 34.744 113.626 L 34.6873 113.49 L 34.6873 113.49 L 34.3283 112.645 L 34.0671 112.093 L 34.0285 112.038 L 34.0285 112.038 L 33.5816 111.42 L 33.5816 111.42 L 33.4456 111.235 L 32.8518 111.017 L 32.2786 111.331" fill="none" stroke="#800080" stroke-width="0.05000" fill-rule="evenodd" fill-opacity="1.000"/>
    <path d="M 40.4047 105.344 L 41.2272 105.529 L 41.2648 105.555 L 41.8803 105.908 L 42.3704 106.374 L 42.54 106.506 L 42.8552 106.815 L 43.403 107.133 L 43.7949 107.27 L 44.3776 107.586 L 45.2173 107.86 L 45.2173 107.861 L 45.3706 107.915 L 45.3707 107.915 L 46.0821 108.155 L 46.2453 108.201 L 46.2684 108.226 L 47.1929 108.525 L 47.2948 108.553 L 48.1733 108.881 L 48.5139 108.976 L 49.1222 109.182 L 49.3341 109.488 L 49.9936 109.844 L 50.2532 110.091 L 50.3747 110.132 L 50.5998 110.76 L 50.8331 111.195 L 50.8116 111.212 L 50.5752 110.771 L 50.3537 110.154 L 50.2389 110.115 L 49.9776 109.866 L 49.3156 109.509 L 49.1051 109.204 L 48.5059 109.002 L 48.1649 108.907 L 47.2864 108.579 L 47.1851 108.551 L 46.2534 108.25 L 46.2306 108.225 L 46.0747 108.181 L 45.3621 107.941 L 45.1903 107.88 L 45.1903 107.88 L 44.3675 107.611 L 43.784 107.295 L 43.3918 107.158 L 42.8387 106.836 L 42.5222 106.527 L 42.3527 106.395 L 41.864 105.93 L 41.2496 105.577 L 41.2162 105.555 L 40.3967 105.37 L 40.3491 105.355 L 39.5734 105.489 L 39.5733 105.489 L 39.548 105.493 L 38.8816 105.931 L 38.742 106.307 L 38.7421 106.307 L 38.6334 106.608 L 38.6472 106.656 L 38.8898 107.483 L 38.9731 107.603 L 39.143 107.79 L 39.5545 108.371 L 40.074 108.878 L 40.2945 109.103 L 40.4934 109.297 L 41.0662 109.738 L 41.4813 110.047 L 41.9376 110.313 L 42.566 110.712 L 42.7093 110.782 L 42.8906 110.866 L 43.5761 111.202 L 44.3261 111.514 L 44.3998 111.534 L 44.5233 111.562 L 44.5232 111.562 L 45.2548 111.723 L 45.8752 111.828 L 46.1539 111.85 L 46.377 111.863 L 47.1976 111.912 L 47.7523 111.909 L 48.2619 111.922 L 49.0124 111.857 L 49.3527 111.873 L 50.1762 111.726 L 50.1477 111.75 L 50.0248 111.78 L 49.3545 111.9 L 49.0126 111.884 L 48.2627 111.949 L 47.7517 111.936 L 47.1969 111.939 L 46.3754 111.89 L 46.1521 111.877 L 45.8719 111.855 L 45.2496 111.749 L 44.4937 111.584 L 44.4937 111.583 L 44.3933 111.56 L 44.3174 111.54 L 43.565 111.226 L 42.8787 110.891 L 42.8787 110.89 L 42.6977 110.806 L 42.5528 110.735 L 41.9231 110.336 L 41.9231 110.336 L 41.4664 110.069 L 41.0499 109.76 L 40.4757 109.317 L 40.2754 109.122 L 40.0547 108.897 L 40.0547 108.897 L 39.5339 108.389 L 39.1219 107.807 L 38.9519 107.62 L 38.8651 107.495 L 38.6213 106.664 L 38.605 106.607 L 38.7108 106.314 L 38.7107 106.314 L 38.8594 105.913 L 39.5378 105.468 L 39.5824 105.46 L 39.5825 105.46 L 40.3511 105.327 L 40.4047 105.344" fill="none" stroke="#800080" stroke-width="0.05000" fill-rule="evenodd" fill-opacity="1.000"/>
    </g>
    <g class="thermal-contour" data-segment="20" data-name="CoreContourHatchOverhang">
    <path d="M 50.9099 111.338 L 50.7185 111.488 L 50.3608 111.769 L 50.1897 111.751 L 50.0248 111.78 L 50.1477 111.75 L 50.1762 111.726 L 50.1885 111.723 L 50.3528 111.741 L 50.7018 111.467 L 50.8754 111.33 L 50.8116 111.212 L 50.8331 111.195 L 50.9099 111.338" fill="none" stroke="#E64A19" stroke-width="0.05000" fill-rule="evenodd" fill-opacity="1.000"/>
    </g>
    <!-- ===== Thermal Segment Colour Legend ===== -->
    <g id="thermal-legend">
    <rect x="161.0000" y="5.0000" width="40.0000" height="72.0000"
          rx="1" ry="1"
          fill="#fafafa" stroke="#cccccc" stroke-width="0.15"/>
    <text x="181.0000" y="7.6000" font-family="sans-serif" font-size="2.2000" font-weight="bold" fill="#222222" text-anchor="middle">Thermal Segments</text>
    <line x1="161.5000" y1="8.7000" x2="200.5000" y2="8.7000" stroke="#bbbbbb" stroke-width="0.1"/>
    <rect x="161.8000" y="9.0000" width="3.5000" height="2.0000" fill="#000000" stroke="#333333" stroke-width="0.08" rx="0.3" ry="0.3"/>
    <text x="168.6000" y="10.9000" font-family="monospace" font-size="1.6000" fill="#444444" text-anchor="end"> 1</text>
    <text x="169.6000" y="10.9000" font-family="sans-serif" font-size="1.6000" fill="#111111">CoreContour_Volume</text>
    <rect x="161.8000" y="12.0000" width="3.5000" height="2.0000" fill="#8B0000" stroke="#333333" stroke-width="0.08" rx="0.3" ry="0.3"/>
    <text x="168.6000" y="13.9000" font-family="monospace" font-size="1.6000" fill="#444444" text-anchor="end"> 2</text>
    <text x="169.6000" y="13.9000" font-family="sans-serif" font-size="1.6000" fill="#111111">CoreContour_Overhang</text>
    <rect x="161.8000" y="15.0000" width="3.5000" height="2.0000" fill="#0000CC" stroke="#333333" stroke-width="0.08" rx="0.3" ry="0.3"/>
    <text x="168.6000" y="16.9000" font-family="monospace" font-size="1.6000" fill="#444444" text-anchor="end"> 3</text>
    <text x="169.6000" y="16.9000" font-family="sans-serif" font-size="1.6000" fill="#111111">Shell1Contour_Volume</text>
    <rect x="161.8000" y="18.0000" width="3.5000" height="2.0000" fill="#000080" stroke="#333333" stroke-width="0.08" rx="0.3" ry="0.3"/>
    <text x="168.6000" y="19.9000" font-family="monospace" font-size="1.6000" fill="#444444" text-anchor="end"> 4</text>
    <text x="169.6000" y="19.9000" font-family="sans-serif" font-size="1.6000" fill="#111111">Shell1Contour_Overhang</text>
    <rect x="161.8000" y="21.0000" width="3.5000" height="2.0000" fill="#B8860B" stroke="#333333" stroke-width="0.08" rx="0.3" ry="0.3"/>
    <text x="168.6000" y="22.9000" font-family="monospace" font-size="1.6000" fill="#444444" text-anchor="end"> 5</text>
    <text x="169.6000" y="22.9000" font-family="sans-serif" font-size="1.6000" fill="#111111">Shell2Contour_Volume</text>
    <rect x="161.8000" y="24.0000" width="3.5000" height="2.0000" fill="#006400" stroke="#333333" stroke-width="0.08" rx="0.3" ry="0.3"/>
    <text x="168.6000" y="25.9000" font-family="monospace" font-size="1.6000" fill="#444444" text-anchor="end"> 6</text>
    <text x="169.6000" y="25.9000" font-family="sans-serif" font-size="1.6000" fill="#111111">Shell2Contour_Overhang</text>
    <rect x="161.8000" y="27.0000" width="3.5000" height="2.0000" fill="#FF8C00" stroke="#333333" stroke-width="0.08" rx="0.3" ry="0.3"/>
    <text x="168.6000" y="28.9000" font-family="monospace" font-size="1.6000" fill="#444444" text-anchor="end"> 7</text>
    <text x="169.6000" y="28.9000" font-family="sans-serif" font-size="1.6000" fill="#111111">CoreOverhangHatch</text>
    <rect x="161.8000" y="30.0000" width="3.5000" height="2.0000" fill="#228B22" stroke="#333333" stroke-width="0.08" rx="0.3" ry="0.3"/>
    <text x="168.6000" y="31.9000" font-family="monospace" font-size="1.6000" fill="#444444" text-anchor="end"> 8</text>
    <text x="169.6000" y="31.9000" font-family="sans-serif" font-size="1.6000" fill="#111111">CoreNormalHatch</text>
    <rect x="161.8000" y="33.0000" width="3.5000" height="2.0000" fill="#800080" stroke="#333333" stroke-width="0.08" rx="0.3" ry="0.3"/>
    <text x="168.6000" y="34.9000" font-family="monospace" font-size="1.6000" fill="#444444" text-anchor="end"> 9</text>
    <text x="169.6000" y="34.9000" font-family="sans-serif" font-size="1.6000" fill="#111111">CoreContourHatch</text>
    <rect x="161.8000" y="36.0000" width="3.5000" height="2.0000" fill="#FF69B4" stroke="#333333" stroke-width="0.08" rx="0.3" ry="0.3"/>
    <text x="168.6000" y="37.9000" font-family="monospace" font-size="1.6000" fill="#444444" text-anchor="end">10</text>
    <text x="169.6000" y="37.9000" font-family="sans-serif" font-size="1.6000" fill="#111111">Shell1OverhangHatch</text>
    <rect x="161.8000" y="39.0000" width="3.5000" height="2.0000" fill="#00CED1" stroke="#333333" stroke-width="0.08" rx="0.3" ry="0.3"/>
    <text x="168.6000" y="40.9000" font-family="monospace" font-size="1.6000" fill="#444444" text-anchor="end">11</text>
    <text x="169.6000" y="40.9000" font-family="sans-serif" font-size="1.6000" fill="#111111">Shell1NormalHatch</text>
    <rect x="161.8000" y="42.0000" width="3.5000" height="2.0000" fill="#FF00FF" stroke="#333333" stroke-width="0.08" rx="0.3" ry="0.3"/>
    <text x="168.6000" y="43.9000" font-family="monospace" font-size="1.6000" fill="#444444" text-anchor="end">12</text>
    <text x="169.6000" y="43.9000" font-family="sans-serif" font-size="1.6000" fill="#111111">Shell1ContourHatch</text>
    <rect x="161.8000" y="45.0000" width="3.5000" height="2.0000" fill="#A52A2A" stroke="#333333" stroke-width="0.08" rx="0.3" ry="0.3"/>
    <text x="168.6000" y="46.9000" font-family="monospace" font-size="1.6000" fill="#444444" text-anchor="end">13</text>
    <text x="169.6000" y="46.9000" font-family="sans-serif" font-size="1.6000" fill="#111111">Shell2OverhangHatch</text>
    <rect x="161.8000" y="48.0000" width="3.5000" height="2.0000" fill="#808080" stroke="#333333" stroke-width="0.08" rx="0.3" ry="0.3"/>
    <text x="168.6000" y="49.9000" font-family="monospace" font-size="1.6000" fill="#444444" text-anchor="end">14</text>
    <text x="169.6000" y="49.9000" font-family="sans-serif" font-size="1.6000" fill="#111111">Shell2NormalHatch</text>
    <rect x="161.8000" y="51.0000" width="3.5000" height="2.0000" fill="#32CD32" stroke="#333333" stroke-width="0.08" rx="0.3" ry="0.3"/>
    <text x="168.6000" y="52.9000" font-family="monospace" font-size="1.6000" fill="#444444" text-anchor="end">15</text>
    <text x="169.6000" y="52.9000" font-family="sans-serif" font-size="1.6000" fill="#111111">Shell2ContourHatch</text>
    <rect x="161.8000" y="54.0000" width="3.5000" height="2.0000" fill="#1A237E" stroke="#333333" stroke-width="0.08" rx="0.3" ry="0.3"/>
    <text x="168.6000" y="55.9000" font-family="monospace" font-size="1.6000" fill="#444444" text-anchor="end">16</text>
    <text x="169.6000" y="55.9000" font-family="sans-serif" font-size="1.6000" fill="#111111">SupportContourVolume</text>
    <rect x="161.8000" y="57.0000" width="3.5000" height="2.0000" fill="#827717" stroke="#333333" stroke-width="0.08" rx="0.3" ry="0.3"/>
    <text x="168.6000" y="58.9000" font-family="monospace" font-size="1.6000" fill="#444444" text-anchor="end">17</text>
    <text x="169.6000" y="58.9000" font-family="sans-serif" font-size="1.6000" fill="#111111">SupportHatch</text>
    <rect x="161.8000" y="60.0000" width="3.5000" height="2.0000" fill="#006064" stroke="#333333" stroke-width="0.08" rx="0.3" ry="0.3"/>
    <text x="168.6000" y="61.9000" font-family="monospace" font-size="1.6000" fill="#444444" text-anchor="end">18</text>
    <text x="169.6000" y="61.9000" font-family="sans-serif" font-size="1.6000" fill="#111111">PointSequence</text>
    <rect x="161.8000" y="63.0000" width="3.5000" height="2.0000" fill="#B71C1C" stroke="#333333" stroke-width="0.08" rx="0.3" ry="0.3"/>
    <text x="168.6000" y="64.9000" font-family="monospace" font-size="1.6000" fill="#444444" text-anchor="end">19</text>
    <text x="169.6000" y="64.9000" font-family="sans-serif" font-size="1.6000" fill="#111111">ExternalSupports</text>
    <rect x="161.8000" y="66.0000" width="3.5000" height="2.0000" fill="#E64A19" stroke="#333333" stroke-width="0.08" rx="0.3" ry="0.3"/>
    <text x="168.6000" y="67.9000" font-family="monospace" font-size="1.6000" fill="#444444" text-anchor="end">20</text>
    <text x="169.6000" y="67.9000" font-family="sans-serif" font-size="1.6000" fill="#111111">CoreContourHatchOverhang</text>
    <rect x="161.8000" y="69.0000" width="3.5000" height="2.0000" fill="#311B92" stroke="#333333" stroke-width="0.08" rx="0.3" ry="0.3"/>
    <text x="168.6000" y="70.9000" font-family="monospace" font-size="1.6000" fill="#444444" text-anchor="end">21</text>
    <text x="169.6000" y="70.9000" font-family="sans-serif" font-size="1.6000" fill="#111111">Shell1ContourHatchOverhang</text>
    <rect x="161.8000" y="72.0000" width="3.5000" height="2.0000" fill="#880E4F" stroke="#333333" stroke-width="0.08" rx="0.3" ry="0.3"/>
    <text x="168.6000" y="73.9000" font-family="monospace" font-size="1.6000" fill="#444444" text-anchor="end">22</text>
    <text x="169.6000" y="73.9000" font-family="sans-serif" font-size="1.6000" fill="#111111">Shell2ContourHatchOverhang</text>
    </g>
  </g>
</svg>
