<?xml version="1.0" encoding="UTF-8" standalone="yes"?>
<svg xmlns="http://www.w3.org/2000/svg"
     xmlns:xlink="http://www.w3.org/1999/xlink"
     width="2020.0000mm" height="1600.0000mm"
     viewBox="0 0 202.000000 160.000000">
  <!--
    Build plate : 150.00 x 150.00 mm
    Coordinate  : 1 SVG unit = 1 mm
    Display zoom: 10x  (width/height = viewBox x 10)
    Hatch stroke: 0.04 mm = ~28 mm on screen at this zoom
    Legend panel: right margin (42 mm wide)
  -->
  <defs>
    <marker id="endArrow" markerWidth="2" markerHeight="1.4"
            refX="0" refY="0.7" orient="auto"
            markerUnits="strokeWidth">
      <polyline fill="darkblue" points="0,0 2,0.7 0,1.4 0.2,0.7"/>
    </marker>
  </defs>
  <!-- Background -->
  <rect x="0" y="0" width="202.000000" height="160.000000" fill="#f0f0f0" stroke="none"/>
  <!-- Build plate boundary (150 x 150 mm) -->
  <rect x="5.000000" y="5.000000" width="150.000000" height="150.000000"
        fill="#ffffff" stroke="#aaaaaa" stroke-width="0.2" stroke-dasharray="1,0.5"/>
  <!-- Build plate centre circle (r = 75.00 mm) -->
  <circle cx="80.000000" cy="80.000000" r="75.000000"
          fill="none" stroke="#bbbbbb" stroke-width="0.15" stroke-dasharray="0.8,0.4"/>
  <!-- Centre cross-hair -->
  <line x1="5.000000" y1="80.000000" x2="155.000000" y2="80.000000" stroke="#cccccc" stroke-width="0.1"/>
  <line x1="80.000000" y1="5.000000" x2="80.000000" y2="155.000000" stroke="#cccccc" stroke-width="0.1"/>
  <circle cx="80.000000" cy="80.000000" r="0.3" fill="#cccccc" stroke="none"/>
  <!-- Corner labels -->
  <text x="5.400000" y="4.600000" font-family="sans-serif" font-size="2" fill="#888888">0,0</text>
  <text x="154.600006" y="4.600000" font-family="sans-serif" font-size="2" fill="#888888" text-anchor="end">150,0</text>
  <text x="5.400000" y="157.199997" font-family="sans-serif" font-size="2" fill="#888888">0,150</text>
  <!-- Layer geometry -->
  <g id="geometry">
    <g class="thermal-hatch" data-segment="8" data-name="CoreNormalHatch">
      <line x1="32.89429" y1="122.34158" x2="34.58857" y2="125.05300" stroke="#228B22" stroke-width="0.04000"/>
      <line x1="32.95479" y1="122.62711" x2="34.45779" y2="125.03242" stroke="#228B22" stroke-width="0.04000"/>
      <line x1="33.01733" y1="122.91590" x2="34.32618" y2="125.01051" stroke="#228B22" stroke-width="0.04000"/>
      <line x1="33.11297" y1="123.25767" x2="34.19202" y2="124.98453" stroke="#228B22" stroke-width="0.04000"/>
      <line x1="32.82874" y1="122.04797" x2="34.65987" y2="124.97839" stroke="#228B22" stroke-width="0.04000"/>
      <line x1="33.27268" y1="123.70198" x2="34.05787" y2="124.95854" stroke="#228B22" stroke-width="0.04000"/>
      <line x1="33.43724" y1="124.15404" x2="33.92372" y2="124.93256" stroke="#228B22" stroke-width="0.04000"/>
      <line x1="33.60345" y1="124.60873" x2="33.78957" y2="124.90659" stroke="#228B22" stroke-width="0.04000"/>
      <line x1="32.76823" y1="121.76244" x2="34.70531" y2="124.86240" stroke="#228B22" stroke-width="0.04000"/>
      <line x1="32.70773" y1="121.47691" x2="34.75074" y2="124.74641" stroke="#228B22" stroke-width="0.04000"/>
      <line x1="32.64842" y1="121.19329" x2="34.79618" y2="124.63042" stroke="#228B22" stroke-width="0.04000"/>
      <line x1="32.59319" y1="120.91618" x2="34.84161" y2="124.51442" stroke="#228B22" stroke-width="0.04000"/>
      <line x1="32.55536" y1="120.66694" x2="34.88705" y2="124.39843" stroke="#228B22" stroke-width="0.04000"/>
      <line x1="32.51753" y1="120.41769" x2="34.93249" y2="124.28243" stroke="#228B22" stroke-width="0.04000"/>
      <line x1="32.47434" y1="120.15986" x2="34.97792" y2="124.16644" stroke="#228B22" stroke-width="0.04000"/>
      <line x1="32.42958" y1="119.89952" x2="35.02179" y2="124.04793" stroke="#228B22" stroke-width="0.04000"/>
      <line x1="32.38401" y1="119.63789" x2="35.04917" y2="123.90303" stroke="#228B22" stroke-width="0.04000"/>
      <line x1="32.34030" y1="119.37923" x2="35.06792" y2="123.74434" stroke="#228B22" stroke-width="0.04000"/>
      <line x1="32.30284" y1="119.13058" x2="35.08669" y2="123.58566" stroke="#228B22" stroke-width="0.04000"/>
      <line x1="32.26538" y1="118.88192" x2="35.10544" y2="123.42697" stroke="#228B22" stroke-width="0.04000"/>
      <line x1="32.22223" y1="118.62416" x2="35.12420" y2="123.26829" stroke="#228B22" stroke-width="0.04000"/>
      <line x1="32.18410" y1="118.37443" x2="35.14296" y2="123.10959" stroke="#228B22" stroke-width="0.04000"/>
      <line x1="32.15518" y1="118.13943" x2="35.16131" y2="122.95026" stroke="#228B22" stroke-width="0.04000"/>
      <line x1="32.12620" y1="117.90434" x2="35.18258" y2="122.79558" stroke="#228B22" stroke-width="0.04000"/>
      <line x1="32.07542" y1="117.63437" x2="35.20476" y2="122.64236" stroke="#228B22" stroke-width="0.04000"/>
      <line x1="32.00681" y1="117.33586" x2="35.22693" y2="122.48914" stroke="#228B22" stroke-width="0.04000"/>
      <line x1="31.94464" y1="117.04768" x2="35.24911" y2="122.33593" stroke="#228B22" stroke-width="0.04000"/>
      <line x1="31.88247" y1="116.75947" x2="35.27129" y2="122.18270" stroke="#228B22" stroke-width="0.04000"/>
      <line x1="31.78194" y1="116.40989" x2="35.29346" y2="122.02949" stroke="#228B22" stroke-width="0.04000"/>
      <line x1="31.69085" y1="116.07540" x2="35.31843" y2="121.88074" stroke="#228B22" stroke-width="0.04000"/>
      <line x1="31.62833" y1="115.78664" x2="35.34670" y2="121.73728" stroke="#228B22" stroke-width="0.04000"/>
      <line x1="31.49801" y1="115.38937" x2="35.37498" y2="121.59381" stroke="#228B22" stroke-width="0.04000"/>
      <line x1="31.36654" y1="114.99027" x2="35.40325" y2="121.45036" stroke="#228B22" stroke-width="0.04000"/>
      <line x1="31.15506" y1="114.46312" x2="35.43152" y2="121.30689" stroke="#228B22" stroke-width="0.04000"/>
      <line x1="30.98721" y1="114.00580" x2="35.45979" y2="121.16343" stroke="#228B22" stroke-width="0.04000"/>
      <line x1="30.96970" y1="113.78906" x2="35.48807" y2="121.01997" stroke="#228B22" stroke-width="0.04000"/>
      <line x1="30.91887" y1="113.51902" x2="35.51634" y2="120.87650" stroke="#228B22" stroke-width="0.04000"/>
      <line x1="30.83934" y1="113.20304" x2="35.54461" y2="120.73305" stroke="#228B22" stroke-width="0.04000"/>
      <line x1="30.83478" y1="113.00702" x2="35.57595" y2="120.59449" stroke="#228B22" stroke-width="0.04000"/>
      <line x1="30.83021" y1="112.81100" x2="35.61039" y2="120.46090" stroke="#228B22" stroke-width="0.04000"/>
      <line x1="30.82564" y1="112.61497" x2="35.64552" y2="120.32840" stroke="#228B22" stroke-width="0.04000"/>
      <line x1="30.80914" y1="112.39986" x2="35.66622" y2="120.17282" stroke="#228B22" stroke-width="0.04000"/>
      <line x1="30.82680" y1="112.23943" x2="35.68692" y2="120.01723" stroke="#228B22" stroke-width="0.04000"/>
      <line x1="30.85658" y1="112.09837" x2="35.70761" y2="119.86165" stroke="#228B22" stroke-width="0.04000"/>
      <line x1="30.88635" y1="111.95731" x2="35.72831" y2="119.70606" stroke="#228B22" stroke-width="0.04000"/>
      <line x1="30.91613" y1="111.81626" x2="35.74901" y2="119.55048" stroke="#228B22" stroke-width="0.04000"/>
      <line x1="30.94591" y1="111.67520" x2="35.76981" y2="119.39506" stroke="#228B22" stroke-width="0.04000"/>
      <line x1="30.94649" y1="111.48743" x2="35.79065" y2="119.23971" stroke="#228B22" stroke-width="0.04000"/>
      <line x1="30.94660" y1="111.29889" x2="35.81150" y2="119.08436" stroke="#228B22" stroke-width="0.04000"/>
      <line x1="30.97456" y1="111.15494" x2="35.83234" y2="118.92902" stroke="#228B22" stroke-width="0.04000"/>
      <line x1="31.00990" y1="111.02277" x2="35.85319" y2="118.77367" stroke="#228B22" stroke-width="0.04000"/>
      <line x1="31.04523" y1="110.89061" x2="35.86966" y2="118.61132" stroke="#228B22" stroke-width="0.04000"/>
      <line x1="31.08056" y1="110.75845" x2="35.88642" y2="118.44942" stroke="#228B22" stroke-width="0.04000"/>
      <line x1="31.11090" y1="110.61829" x2="35.90849" y2="118.29604" stroke="#228B22" stroke-width="0.04000"/>
      <line x1="31.14026" y1="110.47658" x2="35.92586" y2="118.13513" stroke="#228B22" stroke-width="0.04000"/>
      <line x1="31.16963" y1="110.33486" x2="35.93514" y2="117.96127" stroke="#228B22" stroke-width="0.04000"/>
      <line x1="31.19899" y1="110.19315" x2="35.94442" y2="117.78742" stroke="#228B22" stroke-width="0.04000"/>
      <line x1="31.22835" y1="110.05143" x2="35.95370" y2="117.61357" stroke="#228B22" stroke-width="0.04000"/>
      <line x1="31.25772" y1="109.90971" x2="35.96286" y2="117.43952" stroke="#228B22" stroke-width="0.04000"/>
      <line x1="31.29180" y1="109.77554" x2="35.97147" y2="117.26459" stroke="#228B22" stroke-width="0.04000"/>
      <line x1="31.34373" y1="109.66994" x2="35.98008" y2="117.08965" stroke="#228B22" stroke-width="0.04000"/>
      <line x1="31.39293" y1="109.55998" x2="35.98869" y2="116.91473" stroke="#228B22" stroke-width="0.04000"/>
      <line x1="31.44352" y1="109.45222" x2="35.99730" y2="116.73979" stroke="#228B22" stroke-width="0.04000"/>
      <line x1="31.49410" y1="109.34447" x2="36.00591" y2="116.56486" stroke="#228B22" stroke-width="0.04000"/>
      <line x1="31.54469" y1="109.23671" x2="36.00968" y2="116.38219" stroke="#228B22" stroke-width="0.04000"/>
      <line x1="31.59527" y1="109.12895" x2="35.99783" y2="116.17451" stroke="#228B22" stroke-width="0.04000"/>
      <line x1="31.64585" y1="109.02119" x2="35.98598" y2="115.96684" stroke="#228B22" stroke-width="0.04000"/>
      <line x1="31.69644" y1="108.91344" x2="35.97413" y2="115.75917" stroke="#228B22" stroke-width="0.04000"/>
      <line x1="31.74621" y1="108.80437" x2="35.96227" y2="115.55149" stroke="#228B22" stroke-width="0.04000"/>
      <line x1="31.76746" y1="108.64967" x2="35.95086" y2="115.34451" stroke="#228B22" stroke-width="0.04000"/>
      <line x1="31.80553" y1="108.52190" x2="35.94050" y2="115.13924" stroke="#228B22" stroke-width="0.04000"/>
      <line x1="31.86931" y1="108.43526" x2="35.93015" y2="114.93395" stroke="#228B22" stroke-width="0.04000"/>
      <line x1="31.93309" y1="108.34861" x2="35.91979" y2="114.72868" stroke="#228B22" stroke-width="0.04000"/>
      <line x1="31.99686" y1="108.26197" x2="35.90829" y2="114.52157" stroke="#228B22" stroke-width="0.04000"/>
      <line x1="32.06064" y1="108.17532" x2="35.87601" y2="114.28120" stroke="#228B22" stroke-width="0.04000"/>
      <line x1="32.12442" y1="108.08868" x2="35.82056" y2="114.00375" stroke="#228B22" stroke-width="0.04000"/>
      <line x1="32.18819" y1="108.00204" x2="35.76510" y2="113.72629" stroke="#228B22" stroke-width="0.04000"/>
      <line x1="32.25197" y1="107.91539" x2="35.70297" y2="113.43815" stroke="#228B22" stroke-width="0.04000"/>
      <line x1="32.31575" y1="107.82875" x2="35.61880" y2="113.11474" stroke="#228B22" stroke-width="0.04000"/>
      <line x1="32.37952" y1="107.74210" x2="35.55905" y2="112.83041" stroke="#228B22" stroke-width="0.04000"/>
      <line x1="32.46471" y1="107.68973" x2="35.50147" y2="112.54956" stroke="#228B22" stroke-width="0.04000"/>
      <line x1="32.62057" y1="107.75043" x2="35.38150" y2="112.16886" stroke="#228B22" stroke-width="0.04000"/>
      <line x1="32.75307" y1="107.77378" x2="35.26154" y2="111.78818" stroke="#228B22" stroke-width="0.04000"/>
      <line x1="32.88557" y1="107.79713" x2="35.11948" y2="111.37212" stroke="#228B22" stroke-width="0.04000"/>
      <line x1="33.01808" y1="107.82047" x2="34.91104" y2="110.84985" stroke="#228B22" stroke-width="0.04000"/>
      <line x1="33.15059" y1="107.84382" x2="34.61903" y2="110.19382" stroke="#228B22" stroke-width="0.04000"/>
      <line x1="33.28309" y1="107.86716" x2="34.22681" y2="109.37743" stroke="#228B22" stroke-width="0.04000"/>
      <line x1="33.51119" y1="108.04349" x2="33.74660" y2="108.42023" stroke="#228B22" stroke-width="0.04000"/>
    </g>
    <g class="thermal-hatch" data-segment="8" data-name="CoreNormalHatch">
      <line x1="41.03636" y1="104.80717" x2="44.98159" y2="111.12084" stroke="#228B22" stroke-width="0.04000"/>
      <line x1="41.23674" y1="104.93913" x2="45.09587" y2="111.11503" stroke="#228B22" stroke-width="0.04000"/>
      <line x1="41.43712" y1="105.07109" x2="45.20956" y2="111.10826" stroke="#228B22" stroke-width="0.04000"/>
      <line x1="40.83598" y1="104.67521" x2="44.85200" y2="111.10217" stroke="#228B22" stroke-width="0.04000"/>
      <line x1="41.63908" y1="105.20560" x2="45.32325" y2="111.10149" stroke="#228B22" stroke-width="0.04000"/>
      <line x1="41.81787" y1="105.30301" x2="45.43758" y2="111.09576" stroke="#228B22" stroke-width="0.04000"/>
      <line x1="41.99260" y1="105.39392" x2="45.55284" y2="111.09150" stroke="#228B22" stroke-width="0.04000"/>
      <line x1="42.16051" y1="105.47394" x2="45.66810" y2="111.08725" stroke="#228B22" stroke-width="0.04000"/>
      <line x1="40.65678" y1="104.57713" x2="44.72242" y2="111.08350" stroke="#228B22" stroke-width="0.04000"/>
      <line x1="42.32842" y1="105.55395" x2="45.78336" y2="111.08299" stroke="#228B22" stroke-width="0.04000"/>
      <line x1="42.49634" y1="105.63396" x2="45.89593" y2="111.07444" stroke="#228B22" stroke-width="0.04000"/>
      <line x1="40.50801" y1="104.52774" x2="44.59283" y2="111.06483" stroke="#228B22" stroke-width="0.04000"/>
      <line x1="42.67426" y1="105.72998" x2="46.00583" y2="111.06160" stroke="#228B22" stroke-width="0.04000"/>
      <line x1="42.82347" y1="105.78006" x2="46.11572" y2="111.04876" stroke="#228B22" stroke-width="0.04000"/>
      <line x1="40.35923" y1="104.47836" x2="44.46359" y2="111.04671" stroke="#228B22" stroke-width="0.04000"/>
      <line x1="42.95082" y1="105.79516" x2="46.22561" y2="111.03592" stroke="#228B22" stroke-width="0.04000"/>
      <line x1="40.19851" y1="104.40987" x2="44.33889" y2="111.03587" stroke="#228B22" stroke-width="0.04000"/>
      <line x1="40.03727" y1="104.34052" x2="44.21420" y2="111.02502" stroke="#228B22" stroke-width="0.04000"/>
      <line x1="43.07817" y1="105.81026" x2="46.33551" y2="111.02308" stroke="#228B22" stroke-width="0.04000"/>
      <line x1="39.87602" y1="104.27119" x2="44.08951" y2="111.01418" stroke="#228B22" stroke-width="0.04000"/>
      <line x1="43.20553" y1="105.82536" x2="46.44540" y2="111.01024" stroke="#228B22" stroke-width="0.04000"/>
      <line x1="39.72606" y1="104.21992" x2="43.96481" y2="111.00333" stroke="#228B22" stroke-width="0.04000"/>
      <line x1="39.58840" y1="104.18832" x2="43.84012" y2="110.99249" stroke="#228B22" stroke-width="0.04000"/>
      <line x1="43.33289" y1="105.84046" x2="46.54671" y2="110.98365" stroke="#228B22" stroke-width="0.04000"/>
      <line x1="39.45074" y1="104.15672" x2="43.71542" y2="110.98164" stroke="#228B22" stroke-width="0.04000"/>
      <line x1="39.31308" y1="104.12512" x2="43.58251" y2="110.95764" stroke="#228B22" stroke-width="0.04000"/>
      <line x1="43.46024" y1="105.85556" x2="46.64002" y2="110.94428" stroke="#228B22" stroke-width="0.04000"/>
      <line x1="39.17542" y1="104.09352" x2="43.43835" y2="110.91566" stroke="#228B22" stroke-width="0.04000"/>
      <line x1="43.60317" y1="105.89558" x2="46.73348" y2="110.90513" stroke="#228B22" stroke-width="0.04000"/>
      <line x1="39.03775" y1="104.06193" x2="43.28985" y2="110.86671" stroke="#228B22" stroke-width="0.04000"/>
      <line x1="43.77409" y1="105.98042" x2="46.82699" y2="110.86607" stroke="#228B22" stroke-width="0.04000"/>
      <line x1="43.93525" y1="106.04961" x2="46.92051" y2="110.82702" stroke="#228B22" stroke-width="0.04000"/>
      <line x1="38.89174" y1="104.01697" x2="43.14355" y2="110.82128" stroke="#228B22" stroke-width="0.04000"/>
      <line x1="44.09639" y1="106.11879" x2="47.01402" y2="110.78796" stroke="#228B22" stroke-width="0.04000"/>
      <line x1="38.77660" y1="104.02142" x2="42.99725" y2="110.77586" stroke="#228B22" stroke-width="0.04000"/>
      <line x1="44.25754" y1="106.18797" x2="47.10753" y2="110.74891" stroke="#228B22" stroke-width="0.04000"/>
      <line x1="38.67189" y1="104.04255" x2="42.85094" y2="110.73044" stroke="#228B22" stroke-width="0.04000"/>
      <line x1="44.41869" y1="106.25716" x2="47.20105" y2="110.70985" stroke="#228B22" stroke-width="0.04000"/>
      <line x1="38.56718" y1="104.06368" x2="42.70464" y2="110.68501" stroke="#228B22" stroke-width="0.04000"/>
      <line x1="44.60889" y1="106.37283" x2="47.29456" y2="110.67080" stroke="#228B22" stroke-width="0.04000"/>
      <line x1="38.46246" y1="104.08482" x2="42.55834" y2="110.63959" stroke="#228B22" stroke-width="0.04000"/>
      <line x1="44.80134" y1="106.49211" x2="47.38807" y2="110.63174" stroke="#228B22" stroke-width="0.04000"/>
      <line x1="45.00029" y1="106.62180" x2="47.47894" y2="110.58846" stroke="#228B22" stroke-width="0.04000"/>
      <line x1="38.35776" y1="104.10595" x2="42.40354" y2="110.58056" stroke="#228B22" stroke-width="0.04000"/>
      <line x1="45.20018" y1="106.75297" x2="47.55708" y2="110.52480" stroke="#228B22" stroke-width="0.04000"/>
      <line x1="38.25304" y1="104.12708" x2="42.24615" y2="110.51740" stroke="#228B22" stroke-width="0.04000"/>
      <line x1="45.38850" y1="106.86563" x2="47.63935" y2="110.46774" stroke="#228B22" stroke-width="0.04000"/>
      <line x1="38.14833" y1="104.14822" x2="42.08877" y2="110.45424" stroke="#228B22" stroke-width="0.04000"/>
      <line x1="45.57642" y1="106.97765" x2="47.72306" y2="110.41301" stroke="#228B22" stroke-width="0.04000"/>
      <line x1="38.04361" y1="104.16935" x2="41.93139" y2="110.39108" stroke="#228B22" stroke-width="0.04000"/>
      <line x1="45.76433" y1="107.08967" x2="47.80678" y2="110.35828" stroke="#228B22" stroke-width="0.04000"/>
      <line x1="37.93891" y1="104.19048" x2="41.77401" y2="110.32793" stroke="#228B22" stroke-width="0.04000"/>
      <line x1="45.95224" y1="107.20169" x2="47.89050" y2="110.30354" stroke="#228B22" stroke-width="0.04000"/>
      <line x1="37.82770" y1="104.20122" x2="41.61663" y2="110.26478" stroke="#228B22" stroke-width="0.04000"/>
      <line x1="46.12768" y1="107.29373" x2="47.97421" y2="110.24880" stroke="#228B22" stroke-width="0.04000"/>
      <line x1="37.73122" y1="104.23553" x2="41.45554" y2="110.19569" stroke="#228B22" stroke-width="0.04000"/>
      <line x1="46.35237" y1="107.46461" x2="48.05793" y2="110.19407" stroke="#228B22" stroke-width="0.04000"/>
      <line x1="46.57706" y1="107.63548" x2="48.13722" y2="110.13226" stroke="#228B22" stroke-width="0.04000"/>
      <line x1="37.70075" y1="104.37548" x2="41.28666" y2="110.11414" stroke="#228B22" stroke-width="0.04000"/>
      <line x1="46.80129" y1="107.80561" x2="48.21009" y2="110.06017" stroke="#228B22" stroke-width="0.04000"/>
      <line x1="37.64160" y1="104.46952" x2="41.11586" y2="110.02950" stroke="#228B22" stroke-width="0.04000"/>
      <line x1="47.01302" y1="107.95575" x2="48.28297" y2="109.98809" stroke="#228B22" stroke-width="0.04000"/>
      <line x1="37.56796" y1="104.54038" x2="40.94501" y2="109.94479" stroke="#228B22" stroke-width="0.04000"/>
      <line x1="47.22475" y1="108.10588" x2="48.35585" y2="109.91601" stroke="#228B22" stroke-width="0.04000"/>
      <line x1="37.49432" y1="104.61124" x2="40.77416" y2="109.86008" stroke="#228B22" stroke-width="0.04000"/>
      <line x1="47.43684" y1="108.25658" x2="48.42872" y2="109.84393" stroke="#228B22" stroke-width="0.04000"/>
      <line x1="37.42067" y1="104.68210" x2="40.60331" y2="109.77538" stroke="#228B22" stroke-width="0.04000"/>
      <line x1="47.67408" y1="108.44755" x2="48.50159" y2="109.77184" stroke="#228B22" stroke-width="0.04000"/>
      <line x1="37.34703" y1="104.75295" x2="40.43290" y2="109.69138" stroke="#228B22" stroke-width="0.04000"/>
      <line x1="47.93773" y1="108.68076" x2="48.56622" y2="109.68656" stroke="#228B22" stroke-width="0.04000"/>
      <line x1="37.27339" y1="104.82381" x2="40.26920" y2="109.61810" stroke="#228B22" stroke-width="0.04000"/>
      <line x1="48.20139" y1="108.91399" x2="48.62226" y2="109.58753" stroke="#228B22" stroke-width="0.04000"/>
      <line x1="37.20340" y1="104.90051" x2="40.06214" y2="109.47545" stroke="#228B22" stroke-width="0.04000"/>
      <line x1="37.16121" y1="105.02171" x2="39.85233" y2="109.32840" stroke="#228B22" stroke-width="0.04000"/>
      <line x1="37.11903" y1="105.14290" x2="39.64254" y2="109.18136" stroke="#228B22" stroke-width="0.04000"/>
      <line x1="37.07684" y1="105.26410" x2="39.44725" y2="109.05755" stroke="#228B22" stroke-width="0.04000"/>
      <line x1="37.03466" y1="105.38529" x2="39.23689" y2="108.90960" stroke="#228B22" stroke-width="0.04000"/>
      <line x1="36.99194" y1="105.50565" x2="39.01715" y2="108.74665" stroke="#228B22" stroke-width="0.04000"/>
      <line x1="36.93906" y1="105.60973" x2="38.78591" y2="108.56530" stroke="#228B22" stroke-width="0.04000"/>
      <line x1="36.88619" y1="105.71381" x2="38.52977" y2="108.34409" stroke="#228B22" stroke-width="0.04000"/>
      <line x1="36.94933" y1="106.00359" x2="38.25640" y2="108.09532" stroke="#228B22" stroke-width="0.04000"/>
      <line x1="37.01981" y1="106.30507" x2="37.98303" y2="107.84656" stroke="#228B22" stroke-width="0.04000"/>
      <line x1="37.09027" y1="106.60655" x2="37.49374" y2="107.25223" stroke="#228B22" stroke-width="0.04000"/>
    </g>
    <g class="thermal-hatch" data-segment="8" data-name="CoreNormalHatch">
      <line x1="33.22660" y1="108.15140" x2="33.32550" y2="108.27620" stroke="#228B22" stroke-width="0.04000"/>
      <line x1="33.32550" y1="108.27620" x2="33.67210" y2="108.86600" stroke="#228B22" stroke-width="0.04000"/>
      <line x1="33.67210" y1="108.86600" x2="33.75130" y2="109.10770" stroke="#228B22" stroke-width="0.04000"/>
      <line x1="33.75130" y1="109.10770" x2="34.16090" y2="109.86550" stroke="#228B22" stroke-width="0.04000"/>
      <line x1="34.16090" y1="109.86550" x2="34.38150" y2="110.37470" stroke="#228B22" stroke-width="0.04000"/>
      <line x1="34.38150" y1="110.37470" x2="34.55120" y2="110.73130" stroke="#228B22" stroke-width="0.04000"/>
      <line x1="34.55120" y1="110.73130" x2="34.89100" y2="111.58210" stroke="#228B22" stroke-width="0.04000"/>
      <line x1="34.89100" y1="111.58210" x2="34.93670" y2="111.71270" stroke="#228B22" stroke-width="0.04000"/>
      <line x1="34.93670" y1="111.71270" x2="34.95200" y2="111.77070" stroke="#228B22" stroke-width="0.04000"/>
      <line x1="34.95200" y1="111.77070" x2="35.23510" y2="112.66950" stroke="#228B22" stroke-width="0.04000"/>
      <line x1="35.23510" y1="112.66950" x2="35.30800" y2="113.07170" stroke="#228B22" stroke-width="0.04000"/>
      <line x1="35.30800" y1="113.07170" x2="35.43930" y2="113.57670" stroke="#228B22" stroke-width="0.04000"/>
      <line x1="35.43930" y1="113.57670" x2="35.61020" y2="114.43270" stroke="#228B22" stroke-width="0.04000"/>
      <line x1="35.61020" y1="114.43270" x2="35.61850" y2="114.53330" stroke="#228B22" stroke-width="0.04000"/>
      <line x1="35.61850" y1="114.53330" x2="35.62430" y2="114.62640" stroke="#228B22" stroke-width="0.04000"/>
      <line x1="35.62430" y1="114.62640" x2="35.62430" y2="114.62650" stroke="#228B22" stroke-width="0.04000"/>
      <line x1="35.62430" y1="114.62650" x2="35.66420" y2="115.41970" stroke="#228B22" stroke-width="0.04000"/>
      <line x1="35.66420" y1="115.41970" x2="35.72070" y2="116.40780" stroke="#228B22" stroke-width="0.04000"/>
      <line x1="35.72070" y1="116.40780" x2="35.71940" y2="116.46070" stroke="#228B22" stroke-width="0.04000"/>
      <line x1="35.71940" y1="116.46070" x2="35.71770" y2="116.52090" stroke="#228B22" stroke-width="0.04000"/>
      <line x1="35.71770" y1="116.52090" x2="35.67160" y2="117.45550" stroke="#228B22" stroke-width="0.04000"/>
      <line x1="35.67160" y1="117.45550" x2="35.63340" y2="118.17100" stroke="#228B22" stroke-width="0.04000"/>
      <line x1="35.63340" y1="118.17100" x2="35.59690" y2="118.42480" stroke="#228B22" stroke-width="0.04000"/>
      <line x1="35.59690" y1="118.42480" x2="35.56570" y2="118.73560" stroke="#228B22" stroke-width="0.04000"/>
      <line x1="35.56570" y1="118.73560" x2="35.50660" y2="119.17610" stroke="#228B22" stroke-width="0.04000"/>
      <line x1="35.50660" y1="119.17610" x2="35.50620" y2="119.17610" stroke="#228B22" stroke-width="0.04000"/>
      <line x1="35.50620" y1="119.17610" x2="35.36040" y2="120.27110" stroke="#228B22" stroke-width="0.04000"/>
      <line x1="35.36040" y1="120.27110" x2="35.30700" y2="120.47360" stroke="#228B22" stroke-width="0.04000"/>
      <line x1="35.30700" y1="120.47360" x2="35.27210" y2="120.61590" stroke="#228B22" stroke-width="0.04000"/>
      <line x1="35.27210" y1="120.61590" x2="35.03180" y2="121.83510" stroke="#228B22" stroke-width="0.04000"/>
      <line x1="35.03180" y1="121.83510" x2="35.02120" y2="121.88590" stroke="#228B22" stroke-width="0.04000"/>
      <line x1="35.02120" y1="121.88590" x2="34.87730" y2="122.87990" stroke="#228B22" stroke-width="0.04000"/>
      <line x1="34.87730" y1="122.87990" x2="34.86550" y2="122.98630" stroke="#228B22" stroke-width="0.04000"/>
      <line x1="34.86550" y1="122.98630" x2="34.75270" y2="123.93870" stroke="#228B22" stroke-width="0.04000"/>
      <line x1="34.75270" y1="123.93870" x2="34.71470" y2="124.04320" stroke="#228B22" stroke-width="0.04000"/>
      <line x1="34.71470" y1="124.04320" x2="34.44290" y2="124.73640" stroke="#228B22" stroke-width="0.04000"/>
      <line x1="34.44290" y1="124.73640" x2="34.41160" y2="124.73150" stroke="#228B22" stroke-width="0.04000"/>
      <line x1="34.41160" y1="124.73150" x2="33.92440" y2="124.63710" stroke="#228B22" stroke-width="0.04000"/>
      <line x1="33.92440" y1="124.63710" x2="33.92290" y2="124.63280" stroke="#228B22" stroke-width="0.04000"/>
      <line x1="33.92290" y1="124.63280" x2="33.78010" y2="124.25820" stroke="#228B22" stroke-width="0.04000"/>
      <line x1="33.78010" y1="124.25820" x2="33.57280" y2="123.65860" stroke="#228B22" stroke-width="0.04000"/>
      <line x1="33.57280" y1="123.65860" x2="33.45820" y2="123.41530" stroke="#228B22" stroke-width="0.04000"/>
      <line x1="33.45820" y1="123.41530" x2="33.29270" y2="122.82430" stroke="#228B22" stroke-width="0.04000"/>
      <line x1="33.29270" y1="122.82430" x2="33.15700" y2="122.18290" stroke="#228B22" stroke-width="0.04000"/>
      <line x1="33.15700" y1="122.18290" x2="33.11640" y2="122.00700" stroke="#228B22" stroke-width="0.04000"/>
      <line x1="33.11640" y1="122.00700" x2="32.96760" y2="121.30480" stroke="#228B22" stroke-width="0.04000"/>
      <line x1="32.96760" y1="121.30480" x2="32.88510" y2="120.90700" stroke="#228B22" stroke-width="0.04000"/>
      <line x1="32.88510" y1="120.90700" x2="32.79900" y2="120.34000" stroke="#228B22" stroke-width="0.04000"/>
      <line x1="32.79900" y1="120.34000" x2="32.73790" y2="119.97930" stroke="#228B22" stroke-width="0.04000"/>
      <line x1="32.73790" y1="119.97930" x2="32.63520" y2="119.39080" stroke="#228B22" stroke-width="0.04000"/>
      <line x1="32.63520" y1="119.39080" x2="32.53300" y2="118.71100" stroke="#228B22" stroke-width="0.04000"/>
      <line x1="32.53300" y1="118.71100" x2="32.48630" y2="118.45690" stroke="#228B22" stroke-width="0.04000"/>
      <line x1="32.48630" y1="118.45690" x2="32.41310" y2="117.86050" stroke="#228B22" stroke-width="0.04000"/>
      <line x1="32.41310" y1="117.86050" x2="32.34180" y2="117.48150" stroke="#228B22" stroke-width="0.04000"/>
      <line x1="32.34180" y1="117.48150" x2="32.30430" y2="117.33950" stroke="#228B22" stroke-width="0.04000"/>
      <line x1="32.30430" y1="117.33950" x2="32.15270" y2="116.63730" stroke="#228B22" stroke-width="0.04000"/>
      <line x1="32.15270" y1="116.63730" x2="31.99530" y2="116.11200" stroke="#228B22" stroke-width="0.04000"/>
      <line x1="31.99530" y1="116.11200" x2="31.90750" y2="115.70560" stroke="#228B22" stroke-width="0.04000"/>
      <line x1="31.90750" y1="115.70560" x2="31.62650" y2="114.85250" stroke="#228B22" stroke-width="0.04000"/>
      <line x1="31.62650" y1="114.85250" x2="31.62410" y2="114.84310" stroke="#228B22" stroke-width="0.04000"/>
      <line x1="31.62410" y1="114.84310" x2="31.61120" y2="114.80300" stroke="#228B22" stroke-width="0.04000"/>
      <line x1="31.61120" y1="114.80300" x2="31.27800" y2="114.00480" stroke="#228B22" stroke-width="0.04000"/>
      <line x1="31.27800" y1="114.00480" x2="31.24820" y2="113.63490" stroke="#228B22" stroke-width="0.04000"/>
      <line x1="31.24820" y1="113.63490" x2="31.12860" y2="113.17160" stroke="#228B22" stroke-width="0.04000"/>
      <line x1="31.12860" y1="113.17160" x2="31.11200" y2="112.45900" stroke="#228B22" stroke-width="0.04000"/>
      <line x1="31.11200" y1="112.45900" x2="31.09690" y2="112.36320" stroke="#228B22" stroke-width="0.04000"/>
      <line x1="31.09690" y1="112.36320" x2="31.23640" y2="111.70330" stroke="#228B22" stroke-width="0.04000"/>
      <line x1="31.23640" y1="111.70330" x2="31.23640" y2="111.29720" stroke="#228B22" stroke-width="0.04000"/>
      <line x1="31.23640" y1="111.29720" x2="31.36850" y2="110.80390" stroke="#228B22" stroke-width="0.04000"/>
      <line x1="31.36850" y1="110.80390" x2="31.55620" y2="109.89680" stroke="#228B22" stroke-width="0.04000"/>
      <line x1="31.55620" y1="109.89680" x2="31.57340" y2="109.86700" stroke="#228B22" stroke-width="0.04000"/>
      <line x1="31.57340" y1="109.86700" x2="31.65350" y2="109.68660" stroke="#228B22" stroke-width="0.04000"/>
      <line x1="31.65350" y1="109.68660" x2="31.65360" y2="109.68670" stroke="#228B22" stroke-width="0.04000"/>
      <line x1="31.65360" y1="109.68670" x2="32.02690" y2="108.89190" stroke="#228B22" stroke-width="0.04000"/>
      <line x1="32.02690" y1="108.89190" x2="32.05750" y2="108.66850" stroke="#228B22" stroke-width="0.04000"/>
      <line x1="32.05750" y1="108.66850" x2="32.52850" y2="108.02860" stroke="#228B22" stroke-width="0.04000"/>
      <line x1="32.52850" y1="108.02860" x2="33.22660" y2="108.15140" stroke="#228B22" stroke-width="0.04000"/>
      <line x1="38.86630" y1="104.32010" x2="39.70110" y2="104.51150" stroke="#228B22" stroke-width="0.04000"/>
      <line x1="39.70110" y1="104.51150" x2="40.24980" y2="104.74770" stroke="#228B22" stroke-width="0.04000"/>
      <line x1="40.24980" y1="104.74770" x2="40.59000" y2="104.86030" stroke="#228B22" stroke-width="0.04000"/>
      <line x1="40.59000" y1="104.86030" x2="41.38960" y2="105.38690" stroke="#228B22" stroke-width="0.04000"/>
      <line x1="41.38960" y1="105.38690" x2="41.50350" y2="105.46410" stroke="#228B22" stroke-width="0.04000"/>
      <line x1="41.50350" y1="105.46410" x2="41.82170" y2="105.63380" stroke="#228B22" stroke-width="0.04000"/>
      <line x1="41.82170" y1="105.63380" x2="42.43800" y2="105.92740" stroke="#228B22" stroke-width="0.04000"/>
      <line x1="42.43800" y1="105.92740" x2="42.64850" y2="106.05120" stroke="#228B22" stroke-width="0.04000"/>
      <line x1="42.64850" y1="106.05120" x2="43.45920" y2="106.14730" stroke="#228B22" stroke-width="0.04000"/>
      <line x1="43.45920" y1="106.14730" x2="43.53980" y2="106.19540" stroke="#228B22" stroke-width="0.04000"/>
      <line x1="43.53980" y1="106.19540" x2="44.29590" y2="106.52010" stroke="#228B22" stroke-width="0.04000"/>
      <line x1="44.29590" y1="106.52010" x2="44.67010" y2="106.75190" stroke="#228B22" stroke-width="0.04000"/>
      <line x1="44.67010" y1="106.75190" x2="45.05290" y2="107.00330" stroke="#228B22" stroke-width="0.04000"/>
      <line x1="45.05290" y1="107.00330" x2="45.87110" y2="107.49090" stroke="#228B22" stroke-width="0.04000"/>
      <line x1="45.87110" y1="107.49090" x2="45.93210" y2="107.52960" stroke="#228B22" stroke-width="0.04000"/>
      <line x1="45.93210" y1="107.52960" x2="45.98490" y2="107.54940" stroke="#228B22" stroke-width="0.04000"/>
      <line x1="45.98490" y1="107.54940" x2="46.62210" y2="108.03410" stroke="#228B22" stroke-width="0.04000"/>
      <line x1="46.62210" y1="108.03410" x2="47.21940" y2="108.45730" stroke="#228B22" stroke-width="0.04000"/>
      <line x1="47.21940" y1="108.45730" x2="47.21940" y2="108.45740" stroke="#228B22" stroke-width="0.04000"/>
      <line x1="47.21940" y1="108.45740" x2="47.31570" y2="108.52670" stroke="#228B22" stroke-width="0.04000"/>
      <line x1="47.31570" y1="108.52670" x2="47.40050" y2="108.59270" stroke="#228B22" stroke-width="0.04000"/>
      <line x1="47.40050" y1="108.59270" x2="47.98310" y2="109.10810" stroke="#228B22" stroke-width="0.04000"/>
      <line x1="47.98310" y1="109.10810" x2="48.10030" y2="109.28340" stroke="#228B22" stroke-width="0.04000"/>
      <line x1="48.10030" y1="109.28340" x2="47.76290" y2="109.87970" stroke="#228B22" stroke-width="0.04000"/>
      <line x1="47.76290" y1="109.87970" x2="47.72490" y2="109.91730" stroke="#228B22" stroke-width="0.04000"/>
      <line x1="47.72490" y1="109.91730" x2="47.67830" y2="109.94780" stroke="#228B22" stroke-width="0.04000"/>
      <line x1="47.67830" y1="109.94780" x2="47.09970" y2="110.41910" stroke="#228B22" stroke-width="0.04000"/>
      <line x1="47.09970" y1="110.41910" x2="46.64540" y2="110.60880" stroke="#228B22" stroke-width="0.04000"/>
      <line x1="46.64540" y1="110.60880" x2="46.36340" y2="110.72770" stroke="#228B22" stroke-width="0.04000"/>
      <line x1="46.36340" y1="110.72770" x2="45.81780" y2="110.79150" stroke="#228B22" stroke-width="0.04000"/>
      <line x1="45.81780" y1="110.79150" x2="45.37640" y2="110.80780" stroke="#228B22" stroke-width="0.04000"/>
      <line x1="45.37640" y1="110.80780" x2="44.99900" y2="110.83010" stroke="#228B22" stroke-width="0.04000"/>
      <line x1="44.99900" y1="110.83010" x2="44.50570" y2="110.75930" stroke="#228B22" stroke-width="0.04000"/>
      <line x1="44.50570" y1="110.75930" x2="43.70500" y2="110.68960" stroke="#228B22" stroke-width="0.04000"/>
      <line x1="43.70500" y1="110.68960" x2="43.58330" y2="110.65860" stroke="#228B22" stroke-width="0.04000"/>
      <line x1="43.58330" y1="110.65860" x2="43.42300" y2="110.60450" stroke="#228B22" stroke-width="0.04000"/>
      <line x1="43.42300" y1="110.60450" x2="42.62090" y2="110.35520" stroke="#228B22" stroke-width="0.04000"/>
      <line x1="42.62090" y1="110.35520" x2="41.62290" y2="109.95480" stroke="#228B22" stroke-width="0.04000"/>
      <line x1="41.62290" y1="109.95480" x2="41.58870" y2="109.93790" stroke="#228B22" stroke-width="0.04000"/>
      <line x1="41.58870" y1="109.93790" x2="41.56370" y2="109.92340" stroke="#228B22" stroke-width="0.04000"/>
      <line x1="41.56370" y1="109.92340" x2="41.41210" y2="109.85250" stroke="#228B22" stroke-width="0.04000"/>
      <line x1="41.41210" y1="109.85250" x2="40.56670" y2="109.43350" stroke="#228B22" stroke-width="0.04000"/>
      <line x1="40.56670" y1="109.43350" x2="40.40300" y2="109.36020" stroke="#228B22" stroke-width="0.04000"/>
      <line x1="40.40300" y1="109.36020" x2="39.70090" y2="108.86820" stroke="#228B22" stroke-width="0.04000"/>
      <line x1="39.70090" y1="108.86820" x2="39.55940" y2="108.78770" stroke="#228B22" stroke-width="0.04000"/>
      <line x1="39.55940" y1="108.78770" x2="39.10510" y2="108.45080" stroke="#228B22" stroke-width="0.04000"/>
      <line x1="39.10510" y1="108.45080" x2="38.79440" y2="108.19910" stroke="#228B22" stroke-width="0.04000"/>
      <line x1="38.79440" y1="108.19910" x2="38.73480" y2="108.13870" stroke="#228B22" stroke-width="0.04000"/>
      <line x1="38.73480" y1="108.13870" x2="38.06730" y2="107.53110" stroke="#228B22" stroke-width="0.04000"/>
      <line x1="38.06730" y1="107.53110" x2="38.02970" y2="107.47720" stroke="#228B22" stroke-width="0.04000"/>
      <line x1="38.02970" y1="107.47720" x2="37.66130" y2="106.99360" stroke="#228B22" stroke-width="0.04000"/>
      <line x1="37.66130" y1="106.99360" x2="37.42320" y2="106.68280" stroke="#228B22" stroke-width="0.04000"/>
      <line x1="37.42320" y1="106.68280" x2="37.39900" y2="106.65360" stroke="#228B22" stroke-width="0.04000"/>
      <line x1="37.39900" y1="106.65360" x2="37.19640" y2="105.78640" stroke="#228B22" stroke-width="0.04000"/>
      <line x1="37.19640" y1="105.78640" x2="37.18890" y2="105.75780" stroke="#228B22" stroke-width="0.04000"/>
      <line x1="37.18890" y1="105.75780" x2="37.26200" y2="105.61450" stroke="#228B22" stroke-width="0.04000"/>
      <line x1="37.26200" y1="105.61450" x2="37.45920" y2="105.04740" stroke="#228B22" stroke-width="0.04000"/>
      <line x1="37.45920" y1="105.04740" x2="37.95500" y2="104.57040" stroke="#228B22" stroke-width="0.04000"/>
      <line x1="37.95500" y1="104.57040" x2="37.97480" y2="104.47910" stroke="#228B22" stroke-width="0.04000"/>
      <line x1="37.97480" y1="104.47910" x2="38.83270" y2="104.30570" stroke="#228B22" stroke-width="0.04000"/>
      <line x1="38.83270" y1="104.30570" x2="38.86630" y2="104.32010" stroke="#228B22" stroke-width="0.04000"/>
    </g>
    <g class="thermal-hatch" data-segment="7" data-name="CoreOverhangHatch">
      <line x1="48.29250" y1="109.57060" x2="47.92400" y2="109.93510" stroke="#FF8C00" stroke-width="0.04000"/>
      <line x1="47.92400" y1="109.93510" x2="47.40610" y2="110.27370" stroke="#FF8C00" stroke-width="0.04000"/>
      <line x1="47.40610" y1="110.27370" x2="47.31470" y2="110.34790" stroke="#FF8C00" stroke-width="0.04000"/>
      <line x1="47.31470" y1="110.34790" x2="46.55750" y2="110.66430" stroke="#FF8C00" stroke-width="0.04000"/>
      <line x1="46.55750" y1="110.66430" x2="46.42360" y2="110.72070" stroke="#FF8C00" stroke-width="0.04000"/>
      <line x1="46.42360" y1="110.72070" x2="46.36340" y2="110.72770" stroke="#FF8C00" stroke-width="0.04000"/>
      <line x1="46.36340" y1="110.72770" x2="46.64540" y2="110.60880" stroke="#FF8C00" stroke-width="0.04000"/>
      <line x1="46.64540" y1="110.60880" x2="47.09970" y2="110.41910" stroke="#FF8C00" stroke-width="0.04000"/>
      <line x1="47.09970" y1="110.41910" x2="47.67830" y2="109.94780" stroke="#FF8C00" stroke-width="0.04000"/>
      <line x1="47.67830" y1="109.94780" x2="47.72490" y2="109.91730" stroke="#FF8C00" stroke-width="0.04000"/>
      <line x1="47.72490" y1="109.91730" x2="47.76290" y2="109.87970" stroke="#FF8C00" stroke-width="0.04000"/>
      <line x1="47.76290" y1="109.87970" x2="48.10030" y2="109.28340" stroke="#FF8C00" stroke-width="0.04000"/>
      <line x1="48.10030" y1="109.28340" x2="48.29250" y2="109.57060" stroke="#FF8C00" stroke-width="0.04000"/>
    </g>
    <g class="thermal-contour" data-segment="1" data-name="CoreContour_Volume">
    <path d="M 32.5808 107.743 L 33.3857 107.885 L 33.5652 108.112 L 33.9381 108.746 L 34.0187 108.993 L 34.422 109.738 L 34.6454 110.255 L 34.8172 110.615 L 35.1621 111.479 L 35.214 111.627 L 35.2307 111.69 L 35.5175 112.601 L 35.5914 113.009 L 35.7225 113.513 L 35.8981 114.392 L 35.9076 114.51 L 35.9139 114.611 L 35.9539 115.404 L 36.0111 116.406 L 36.0094 116.469 L 36.0074 116.535 L 35.9613 117.471 L 35.9225 118.199 L 35.8849 118.46 L 35.8537 118.77 L 35.7603 119.466 L 35.7602 119.466 L 35.6455 120.328 L 35.588 120.545 L 35.5554 120.679 L 35.3157 121.895 L 35.3069 121.936 L 35.165 122.917 L 35.1535 123.02 L 35.0369 124.007 L 34.9855 124.147 L 34.6282 125.059 L 34.3597 125.017 L 33.7072 124.891 L 33.6509 124.733 L 33.5065 124.354 L 33.3037 123.768 L 33.1855 123.517 L 33.0118 122.896 L 32.8739 122.246 L 32.8339 122.072 L 32.684 121.365 L 32.5992 120.956 L 32.5127 120.386 L 32.452 120.028 L 32.3489 119.436 L 32.2468 118.759 L 32.1996 118.5 L 32.1263 117.905 L 32.0587 117.545 L 32.0215 117.404 L 31.8717 116.71 L 31.7146 116.185 L 31.6273 115.782 L 31.3483 114.935 L 31.3454 114.924 L 31.3389 114.904 L 30.9927 114.074 L 30.9611 113.683 L 30.8395 113.211 L 30.8226 112.485 L 30.8022 112.356 L 30.9464 111.673 L 30.9466 111.259 L 31.0863 110.737 L 31.2819 109.793 L 31.3145 109.736 L 31.3864 109.574 L 31.7456 108.809 L 31.7803 108.556 L 32.384 107.736 L 32.3913 107.709 L 32.4368 107.677 L 32.5808 107.743" fill="none" stroke="#000000" stroke-width="0.05000" fill-rule="evenodd" fill-opacity="1.000"/>
    </g>
    <g class="thermal-contour" data-segment="1" data-name="CoreContour_Volume">
    <path d="M 38.911 104.024 L 38.9564 104.043 L 39.792 104.235 L 40.353 104.476 L 40.7178 104.597 L 41.5526 105.147 L 41.6534 105.215 L 41.9524 105.375 L 42.5743 105.671 L 42.7431 105.771 L 43.5548 105.867 L 43.6718 105.937 L 44.4302 106.262 L 44.8254 106.507 L 45.2069 106.757 L 46.0196 107.242 L 46.0621 107.269 L 46.1266 107.293 L 46.7938 107.8 L 47.4025 108.232 L 47.4869 108.293 L 47.587 108.37 L 48.2033 108.916 L 48.6362 109.563 L 48.5388 109.735 L 48.1075 110.162 L 47.5774 110.508 L 47.4655 110.599 L 46.6697 110.932 L 46.4984 111.004 L 45.8409 111.081 L 45.3903 111.098 L 44.9864 111.122 L 44.4724 111.047 L 43.6566 110.977 L 43.5016 110.937 L 43.3336 110.88 L 42.5244 110.629 L 41.5035 110.219 L 41.4519 110.194 L 41.4289 110.18 L 41.2852 110.113 L 40.4429 109.696 L 40.2594 109.614 L 39.5457 109.114 L 39.4008 109.031 L 38.9303 108.682 L 38.5987 108.414 L 38.5338 108.348 L 37.8484 107.724 L 37.7954 107.648 L 37.4308 107.17 L 37.1964 106.863 L 37.1323 106.786 L 36.9148 105.856 L 36.8809 105.724 L 36.9946 105.501 L 37.2083 104.886 L 37.6905 104.422 L 37.7377 104.206 L 37.9063 104.197 L 38.8582 104.005 L 38.911 104.024" fill="none" stroke="#000000" stroke-width="0.05000" fill-rule="evenodd" fill-opacity="1.000"/>
    </g>
    <g class="thermal-contour" data-segment="1" data-name="CoreContour_Volume">
    <path d="M 32.5204 107.936 L 33.2761 108.069 L 33.3998 108.225 L 33.7546 108.829 L 33.8343 109.072 L 34.242 109.826 L 34.4634 110.338 L 34.6337 110.695 L 34.9755 111.551 L 35.0227 111.686 L 35.0385 111.746 L 35.3229 112.649 L 35.396 113.052 L 35.5273 113.558 L 35.6995 114.42 L 35.7082 114.526 L 35.7142 114.622 L 35.7541 115.415 L 35.8109 116.406 L 35.8094 116.463 L 35.8076 116.525 L 35.7615 117.46 L 35.7231 118.18 L 35.6863 118.436 L 35.6549 118.748 L 35.5853 119.266 L 35.585 119.266 L 35.4489 120.289 L 35.3942 120.496 L 35.36 120.635 L 35.1199 121.854 L 35.1099 121.901 L 34.9666 122.891 L 34.9549 122.997 L 34.8409 123.96 L 34.7993 124.074 L 34.5191 124.789 L 33.8452 124.683 L 33.8385 124.664 L 33.6953 124.288 L 33.4893 123.693 L 33.3734 123.446 L 33.2057 122.847 L 33.0691 122.202 L 33.0287 122.027 L 32.8796 121.324 L 32.7964 120.922 L 32.7101 120.354 L 32.6492 119.994 L 32.5465 119.406 L 32.4442 118.726 L 32.3974 118.47 L 32.3241 117.874 L 32.2539 117.501 L 32.2165 117.359 L 32.0655 116.66 L 31.908 116.134 L 31.8205 115.729 L 31.5401 114.878 L 31.5376 114.868 L 31.5267 114.834 L 31.1895 114.026 L 31.1591 113.65 L 31.0389 113.184 L 31.0222 112.467 L 31.0054 112.361 L 31.1464 111.694 L 31.1464 111.285 L 31.2809 110.783 L 31.4711 109.864 L 31.4931 109.826 L 31.5721 109.648 L 31.9396 108.866 L 31.9715 108.634 L 32.4941 107.924 L 32.5204 107.936" fill="none" stroke="#000000" stroke-width="0.05000" fill-rule="evenodd" fill-opacity="1.000"/>
    <path d="M 32.0575 108.669 L 32.0269 108.892 L 31.6536 109.687 L 31.6535 109.687 L 31.5734 109.867 L 31.5562 109.897 L 31.3685 110.804 L 31.2364 111.297 L 31.2364 111.703 L 31.0969 112.363 L 31.112 112.459 L 31.1286 113.172 L 31.2482 113.635 L 31.278 114.005 L 31.6112 114.803 L 31.6241 114.843 L 31.6265 114.853 L 31.9075 115.706 L 31.9953 116.112 L 32.1527 116.637 L 32.3043 117.34 L 32.3418 117.481 L 32.4131 117.86 L 32.4863 118.457 L 32.533 118.711 L 32.6352 119.391 L 32.7379 119.979 L 32.799 120.34 L 32.8851 120.907 L 32.9676 121.305 L 33.1164 122.007 L 33.157 122.183 L 33.2927 122.824 L 33.4582 123.415 L 33.5728 123.659 L 33.7801 124.258 L 33.9229 124.633 L 33.9244 124.637 L 34.4116 124.731 L 34.4429 124.736 L 34.7147 124.043 L 34.7527 123.939 L 34.8655 122.986 L 34.8773 122.88 L 35.0212 121.886 L 35.0318 121.835 L 35.2721 120.616 L 35.307 120.474 L 35.3604 120.271 L 35.5062 119.176 L 35.5066 119.176 L 35.5657 118.736 L 35.5969 118.425 L 35.6334 118.171 L 35.6716 117.455 L 35.7177 116.521 L 35.7194 116.461 L 35.7207 116.408 L 35.6642 115.42 L 35.6243 114.627 L 35.6243 114.626 L 35.6185 114.533 L 35.6102 114.433 L 35.4393 113.577 L 35.308 113.072 L 35.2351 112.67 L 34.952 111.771 L 34.9367 111.713 L 34.891 111.582 L 34.5512 110.731 L 34.3815 110.375 L 34.1609 109.866 L 33.7513 109.108 L 33.6721 108.866 L 33.3255 108.276 L 33.2266 108.151 L 32.5285 108.029 L 32.0575 108.669" fill="none" stroke="#000000" stroke-width="0.05000" fill-rule="evenodd" fill-opacity="1.000"/>
    <path d="M 38.8943 104.234 L 39.7296 104.426 L 40.2818 104.663 L 40.6298 104.779 L 41.4415 105.313 L 41.4415 105.313 L 41.55 105.387 L 41.8622 105.553 L 42.4805 105.848 L 42.6779 105.964 L 43.4888 106.06 L 43.5808 106.115 L 44.3376 106.44 L 44.7175 106.675 L 45.1007 106.927 L 45.9172 107.414 L 45.9725 107.449 L 46.029 107.47 L 46.6754 107.962 L 47.272 108.384 L 47.288 108.396 L 47.3535 108.501 L 47.6294 108.675 L 48.0515 109.049 L 48.1499 109.196 L 48.1003 109.283 L 47.9831 109.108 L 47.4005 108.593 L 47.3157 108.527 L 47.2194 108.457 L 47.2194 108.457 L 46.6221 108.034 L 45.9849 107.549 L 45.9321 107.53 L 45.8711 107.491 L 45.0529 107.003 L 44.6701 106.752 L 44.2959 106.52 L 43.5398 106.195 L 43.4592 106.147 L 42.6485 106.051 L 42.438 105.927 L 41.8217 105.634 L 41.5035 105.464 L 41.3896 105.387 L 40.59 104.86 L 40.2498 104.748 L 39.7011 104.511 L 38.8663 104.32 L 38.8327 104.306 L 37.9748 104.479 L 37.955 104.57 L 37.4592 105.047 L 37.262 105.615 L 37.1889 105.758 L 37.1964 105.786 L 37.399 106.654 L 37.4232 106.683 L 37.6613 106.994 L 38.0297 107.477 L 38.0673 107.531 L 38.7348 108.139 L 38.7944 108.199 L 39.1051 108.451 L 39.5594 108.788 L 39.7009 108.868 L 40.403 109.36 L 40.5667 109.434 L 41.4121 109.853 L 41.5637 109.923 L 41.5887 109.938 L 41.6229 109.955 L 42.6209 110.355 L 43.423 110.604 L 43.5833 110.659 L 43.705 110.69 L 44.5057 110.759 L 44.999 110.83 L 45.3764 110.808 L 45.8178 110.791 L 46.3634 110.728 L 46.066 110.853 L 45.8253 110.881 L 45.3807 110.898 L 44.995 110.921 L 44.4954 110.849 L 43.6903 110.779 L 43.5572 110.745 L 43.3952 110.69 L 42.5906 110.44 L 41.5855 110.037 L 41.5461 110.017 L 41.5219 110.003 L 41.3726 109.933 L 40.5283 109.515 L 40.3582 109.439 L 39.6527 108.944 L 39.51 108.863 L 39.0515 108.523 L 38.7334 108.266 L 38.6724 108.204 L 37.9995 107.591 L 37.957 107.53 L 37.5898 107.048 L 37.3528 106.739 L 37.3163 106.695 L 37.109 105.808 L 37.0933 105.747 L 37.179 105.579 L 37.3813 104.997 L 37.8729 104.524 L 37.9005 104.398 L 37.9315 104.396 L 38.8424 104.212 L 38.8943 104.234" fill="none" stroke="#000000" stroke-width="0.05000" fill-rule="evenodd" fill-opacity="1.000"/>
    </g>
    <g class="thermal-contour" data-segment="2" data-name="CoreContour_Overhang">
    <path d="M 34.5191 124.789 L 34.5004 124.837 L 34.3949 124.82 L 33.857 124.716 L 33.8452 124.683 L 34.5191 124.789" fill="none" stroke="#8B0000" stroke-width="0.05000" fill-rule="evenodd" fill-opacity="1.000"/>
    <path d="M 48.4014 109.572 L 48.3783 109.612 L 47.9811 110.005 L 47.4592 110.346 L 47.3615 110.426 L 46.5923 110.747 L 46.4468 110.809 L 46.066 110.853 L 46.3634 110.728 L 46.4236 110.721 L 46.5575 110.664 L 47.3147 110.348 L 47.4061 110.274 L 47.924 109.935 L 48.2925 109.571 L 48.1003 109.283 L 48.1499 109.196 L 48.4014 109.572" fill="none" stroke="#8B0000" stroke-width="0.05000" fill-rule="evenodd" fill-opacity="1.000"/>
    <path d="M 47.3701 108.455 L 47.4578 108.523 L 47.6294 108.675 L 47.3535 108.501 L 47.288 108.396 L 47.3701 108.455" fill="none" stroke="#8B0000" stroke-width="0.05000" fill-rule="evenodd" fill-opacity="1.000"/>
    </g>
    <g class="thermal-contour" data-segment="3" data-name="HollowShell1Contour_Volume">
    <path d="M 31.4328 114.869 L 31.4415 114.896 L 31.4442 114.906 L 31.7239 115.756 L 31.8113 116.16 L 31.9686 116.685 L 32.119 117.382 L 32.1563 117.523 L 32.2252 117.89 L 32.2985 118.485 L 32.3455 118.742 L 32.4477 119.421 L 32.5506 120.011 L 32.6114 120.37 L 32.6978 120.939 L 32.7818 121.344 L 32.9313 122.05 L 32.9715 122.224 L 33.1088 122.872 L 33.2794 123.481 L 33.3965 123.73 L 33.6009 124.321 L 33.7318 124.665 L 33.651 124.651 L 33.3464 123.77 L 33.1246 123.299 L 33.0118 122.896 L 32.8739 122.245 L 32.8339 122.072 L 32.8029 121.926 L 32.7956 121.883 L 32.6615 121.251 L 32.6152 121.028 L 32.499 120.262 L 32.4909 120.214 L 32.3435 119.368 L 32.2817 118.958 L 32.2542 118.808 L 32.2468 118.759 L 32.1996 118.5 L 32.1263 117.905 L 32.1106 117.822 L 32.0799 117.572 L 32.0644 117.472 L 32.0443 117.268 L 31.9082 116.637 L 31.8204 116.344 L 31.6793 115.692 L 31.4832 115.097 L 31.4093 114.813 L 31.4328 114.869" fill="none" stroke="#0000CC" stroke-width="0.05000" fill-rule="evenodd" fill-opacity="1.000"/>
    <path d="M 35.4572 120.659 L 35.4577 120.657 L 35.4911 120.521 L 35.4929 120.513 L 35.4572 120.659" fill="none" stroke="#0000CC" stroke-width="0.05000" fill-rule="evenodd" fill-opacity="1.000"/>
    <path d="M 32.5808 107.743 L 33.3857 107.885 L 33.5652 108.112 L 33.9381 108.746 L 34.0187 108.993 L 34.422 109.738 L 34.6454 110.255 L 34.8172 110.615 L 35.1621 111.479 L 35.214 111.627 L 35.2307 111.69 L 35.5175 112.601 L 35.5914 113.009 L 35.7225 113.513 L 35.8981 114.392 L 35.9076 114.51 L 35.9139 114.611 L 35.9539 115.404 L 35.9896 116.031 L 35.9789 116.444 L 35.9638 116.928 L 35.9384 117.445 L 35.917 117.847 L 35.8331 118.43 L 35.7632 119.123 L 35.7209 119.438 L 35.6642 119.865 L 35.5478 120.304 L 35.6726 119.366 L 35.6728 119.366 L 35.7543 118.759 L 35.7856 118.448 L 35.8228 118.189 L 35.8614 117.466 L 35.9075 116.53 L 35.9094 116.466 L 35.911 116.406 L 35.854 115.41 L 35.814 114.616 L 35.814 114.616 L 35.8079 114.518 L 35.7988 114.406 L 35.6249 113.535 L 35.4937 113.031 L 35.4202 112.625 L 35.1346 111.718 L 35.1183 111.656 L 35.0692 111.516 L 34.7256 110.655 L 34.5544 110.296 L 34.332 109.782 L 33.9265 109.032 L 33.8462 108.787 L 33.4825 108.168 L 33.3309 107.977 L 32.5506 107.84 L 32.462 107.799 L 31.8759 108.595 L 31.8426 108.837 L 31.4777 109.614 L 31.4778 109.615 L 31.4038 109.781 L 31.3765 109.828 L 31.1836 110.76 L 31.0465 111.272 L 31.0464 111.683 L 30.9038 112.358 L 30.9224 112.476 L 30.9392 113.198 L 31.0601 113.666 L 31.0614 113.683 L 30.9123 113.104 L 30.9007 112.608 L 30.8361 112.2 L 30.9405 111.706 L 30.9405 111.701 L 30.9464 111.673 L 30.9466 111.259 L 31.0863 110.737 L 31.2819 109.793 L 31.3145 109.736 L 31.3864 109.574 L 31.7456 108.809 L 31.7803 108.556 L 32.384 107.736 L 32.3913 107.709 L 32.4368 107.677 L 32.5808 107.743" fill="none" stroke="#0000CC" stroke-width="0.05000" fill-rule="evenodd" fill-opacity="1.000"/>
    <path d="M 38.911 104.024 L 38.9564 104.043 L 39.792 104.235 L 40.353 104.476 L 40.7178 104.597 L 41.5526 105.147 L 41.6534 105.215 L 41.9524 105.375 L 42.5743 105.671 L 42.7431 105.771 L 43.5263 105.863 L 43.844 106.053 L 44.3563 106.273 L 44.9802 106.659 L 45.1458 106.768 L 45.5668 107.019 L 45.9289 107.304 L 45.1538 106.842 L 44.7714 106.591 L 44.3839 106.351 L 43.6263 106.026 L 43.5218 105.964 L 42.7105 105.867 L 42.5274 105.759 L 41.9073 105.464 L 41.6017 105.301 L 41.4976 105.231 L 40.6738 104.688 L 40.3174 104.57 L 39.7608 104.33 L 38.9253 104.139 L 38.8735 104.117 L 38.8507 104.108 L 37.9189 104.297 L 37.8191 104.302 L 37.7817 104.474 L 37.2948 104.942 L 37.0868 105.54 L 36.9871 105.736 L 37.0119 105.832 L 37.2243 106.741 L 37.2746 106.801 L 37.5103 107.109 L 37.8762 107.589 L 37.924 107.658 L 38.6031 108.276 L 38.6661 108.34 L 38.9909 108.603 L 39.4551 108.947 L 39.5992 109.029 L 40.3088 109.526 L 40.4856 109.605 L 41.3289 110.023 L 41.4754 110.092 L 41.4983 110.105 L 41.545 110.128 L 42.5575 110.535 L 43.3644 110.785 L 43.4171 110.803 L 43.2388 110.768 L 42.542 110.552 L 41.8788 110.286 L 41.4963 110.136 L 41.3017 110.063 L 40.5449 109.688 L 40.1367 109.505 L 39.6166 109.14 L 39.3234 108.974 L 38.9303 108.682 L 38.5987 108.414 L 38.5338 108.348 L 37.8484 107.724 L 37.7954 107.648 L 37.4308 107.17 L 37.1964 106.864 L 37.1323 106.786 L 36.9148 105.856 L 36.8809 105.724 L 36.9946 105.501 L 37.2083 104.886 L 37.6905 104.423 L 37.7377 104.206 L 37.9063 104.197 L 38.8582 104.005 L 38.911 104.024" fill="none" stroke="#0000CC" stroke-width="0.05000" fill-rule="evenodd" fill-opacity="1.000"/>
    </g>
    <g class="thermal-contour" data-segment="4" data-name="HollowShell1Contour_Overhang">
    <path d="M 36.0075 116.344 L 36.0111 116.406 L 36.0094 116.469 L 36.0074 116.535 L 35.9613 117.471 L 35.9225 118.199 L 35.8849 118.46 L 35.8537 118.77 L 35.7603 119.466 L 35.7602 119.466 L 35.6455 120.328 L 35.588 120.545 L 35.5554 120.678 L 35.3157 121.895 L 35.3069 121.936 L 35.165 122.917 L 35.1535 123.02 L 35.0369 124.007 L 34.9855 124.147 L 34.6282 125.059 L 34.3597 125.017 L 33.7072 124.891 L 33.6509 124.733 L 33.5065 124.354 L 33.3037 123.768 L 33.1855 123.517 L 33.1246 123.299 L 33.3464 123.77 L 33.651 124.651 L 33.7318 124.665 L 33.7447 124.699 L 33.7821 124.803 L 34.3773 124.919 L 34.5643 124.948 L 34.8924 124.11 L 34.9389 123.983 L 35.0542 123.009 L 35.0658 122.904 L 35.2084 121.919 L 35.2178 121.874 L 35.4572 120.659 L 35.4929 120.513 L 35.5472 120.309 L 35.5478 120.304 L 35.6642 119.865 L 35.7209 119.438 L 35.7632 119.123 L 35.8331 118.43 L 35.917 117.847 L 35.9384 117.445 L 35.9638 116.928 L 35.9789 116.444 L 35.9896 116.031 L 36.0075 116.344" fill="none" stroke="#000080" stroke-width="0.05000" fill-rule="evenodd" fill-opacity="1.000"/>
    <path d="M 32.2817 118.958 L 32.3435 119.368 L 32.4909 120.214 L 32.499 120.262 L 32.6152 121.028 L 32.6615 121.251 L 32.7956 121.883 L 32.8029 121.926 L 32.684 121.365 L 32.5992 120.956 L 32.5127 120.386 L 32.452 120.028 L 32.3489 119.436 L 32.2768 118.958 L 32.2542 118.808 L 32.2817 118.958" fill="none" stroke="#000080" stroke-width="0.05000" fill-rule="evenodd" fill-opacity="1.000"/>
    <path d="M 30.9405 111.706 L 30.8361 112.2 L 30.9007 112.608 L 30.9123 113.104 L 31.0614 113.683 L 31.0911 114.05 L 31.4093 114.813 L 31.4832 115.097 L 31.6793 115.692 L 31.8204 116.344 L 31.9082 116.637 L 32.0443 117.268 L 32.0644 117.472 L 32.0799 117.572 L 32.1106 117.822 L 32.0587 117.545 L 32.0215 117.404 L 31.8717 116.71 L 31.7146 116.185 L 31.6273 115.782 L 31.3483 114.935 L 31.3454 114.924 L 31.3389 114.904 L 30.9927 114.074 L 30.9611 113.683 L 30.8395 113.211 L 30.8226 112.485 L 30.8022 112.356 L 30.9405 111.701 L 30.9405 111.706" fill="none" stroke="#000080" stroke-width="0.05000" fill-rule="evenodd" fill-opacity="1.000"/>
    <path d="M 43.5548 105.867 L 43.6718 105.937 L 44.4302 106.262 L 44.8254 106.507 L 45.2069 106.757 L 46.0196 107.242 L 46.0621 107.269 L 46.1266 107.293 L 46.7938 107.8 L 47.4025 108.232 L 47.4869 108.293 L 47.587 108.37 L 48.2033 108.916 L 48.6362 109.563 L 48.5388 109.735 L 48.1075 110.162 L 47.5774 110.508 L 47.4655 110.599 L 46.6697 110.932 L 46.4984 111.004 L 45.8409 111.081 L 45.3903 111.098 L 44.9864 111.121 L 44.4724 111.048 L 43.6566 110.977 L 43.5016 110.937 L 43.3336 110.88 L 42.5244 110.629 L 41.5035 110.219 L 41.4519 110.194 L 41.4289 110.18 L 41.2852 110.113 L 40.4429 109.696 L 40.2594 109.614 L 39.5457 109.114 L 39.4008 109.031 L 39.3234 108.974 L 39.6166 109.14 L 40.1367 109.505 L 40.5449 109.688 L 41.3017 110.063 L 41.4963 110.136 L 41.8788 110.286 L 42.542 110.552 L 43.2388 110.768 L 43.4171 110.803 L 43.5294 110.841 L 43.6735 110.878 L 44.4839 110.948 L 44.9907 111.021 L 45.3855 110.998 L 45.8331 110.981 L 46.4726 110.906 L 46.631 110.84 L 47.4135 110.513 L 47.5183 110.427 L 48.0443 110.084 L 48.4587 109.674 L 48.5188 109.567 L 48.1274 108.982 L 47.5224 108.447 L 47.4285 108.374 L 47.3441 108.313 L 47.3441 108.313 L 46.7346 107.881 L 46.0778 107.381 L 46.0173 107.359 L 45.9684 107.328 L 45.9289 107.304 L 45.5668 107.019 L 45.1458 106.768 L 44.9802 106.659 L 44.3563 106.273 L 43.844 106.053 L 43.5263 105.863 L 43.5548 105.867" fill="none" stroke="#000080" stroke-width="0.05000" fill-rule="evenodd" fill-opacity="1.000"/>
    </g>
    <g class="thermal-contour" data-segment="5" data-name="HollowShell2Contour_Volume">
    <path d="M 32.5506 107.84 L 33.3309 107.977 L 33.4825 108.168 L 33.8462 108.787 L 33.9265 109.032 L 34.332 109.782 L 34.5544 110.296 L 34.7256 110.655 L 35.0692 111.516 L 35.1183 111.656 L 35.1346 111.718 L 35.4202 112.625 L 35.4937 113.031 L 35.6249 113.535 L 35.7988 114.406 L 35.8079 114.518 L 35.814 114.616 L 35.814 114.616 L 35.854 115.41 L 35.911 116.406 L 35.9094 116.466 L 35.9075 116.53 L 35.8614 117.466 L 35.8228 118.189 L 35.7856 118.448 L 35.7543 118.759 L 35.6728 119.366 L 35.6726 119.366 L 35.5478 120.304 L 35.5018 120.477 L 35.4929 120.513 L 35.4911 120.521 L 35.4577 120.657 L 35.4572 120.659 L 35.4095 120.854 L 35.2563 121.631 L 35.1754 122.017 L 35.0695 122.749 L 35.0292 123.111 L 34.9512 123.77 L 34.8115 124.152 L 34.5596 124.795 L 34.5191 124.789 L 34.7993 124.074 L 34.8409 123.96 L 34.9549 122.997 L 34.9666 122.891 L 35.1099 121.901 L 35.1199 121.854 L 35.36 120.635 L 35.3942 120.496 L 35.4489 120.289 L 35.585 119.266 L 35.5853 119.266 L 35.6549 118.748 L 35.6863 118.436 L 35.7231 118.18 L 35.7615 117.46 L 35.8076 116.525 L 35.8094 116.463 L 35.8109 116.406 L 35.7541 115.415 L 35.7142 114.622 L 35.7082 114.526 L 35.6995 114.42 L 35.5273 113.558 L 35.396 113.052 L 35.3229 112.649 L 35.0385 111.746 L 35.0227 111.686 L 34.9755 111.551 L 34.6337 110.695 L 34.4634 110.338 L 34.242 109.826 L 33.8343 109.072 L 33.7546 108.829 L 33.3998 108.225 L 33.2761 108.069 L 32.5204 107.936 L 32.4941 107.924 L 31.9715 108.634 L 31.9396 108.866 L 31.5721 109.648 L 31.4931 109.826 L 31.4711 109.864 L 31.2809 110.783 L 31.1464 111.285 L 31.1464 111.694 L 31.0054 112.361 L 31.0222 112.467 L 31.0389 113.184 L 31.1591 113.65 L 31.1895 114.026 L 31.5267 114.834 L 31.5376 114.868 L 31.5401 114.878 L 31.8205 115.729 L 31.908 116.134 L 32.0655 116.66 L 32.2165 117.359 L 32.2539 117.501 L 32.3241 117.874 L 32.3974 118.47 L 32.4442 118.726 L 32.5465 119.406 L 32.6492 119.994 L 32.7101 120.354 L 32.7964 120.922 L 32.8796 121.324 L 33.0287 122.027 L 33.0691 122.202 L 33.2057 122.847 L 33.3734 123.446 L 33.4893 123.693 L 33.6953 124.288 L 33.8385 124.664 L 33.8452 124.683 L 33.7576 124.669 L 33.7318 124.665 L 33.6009 124.321 L 33.3965 123.73 L 33.2794 123.481 L 33.1088 122.872 L 32.9715 122.224 L 32.9313 122.05 L 32.7818 121.344 L 32.6978 120.939 L 32.6114 120.37 L 32.5506 120.011 L 32.4477 119.421 L 32.3455 118.742 L 32.2985 118.485 L 32.2252 117.89 L 32.1563 117.523 L 32.119 117.382 L 31.9686 116.685 L 31.8113 116.16 L 31.7239 115.756 L 31.4442 114.906 L 31.4415 114.896 L 31.4328 114.869 L 31.4093 114.813 L 31.408 114.808 L 31.239 114.281 L 31.1102 113.973 L 31.0984 113.827 L 31.0614 113.683 L 31.0601 113.666 L 30.9392 113.198 L 30.9224 112.476 L 30.9038 112.358 L 31.0464 111.683 L 31.0465 111.272 L 31.1836 110.76 L 31.3765 109.828 L 31.4038 109.781 L 31.4778 109.615 L 31.4777 109.614 L 31.8426 108.837 L 31.8759 108.595 L 32.462 107.799 L 32.5506 107.84" fill="none" stroke="#B8860B" stroke-width="0.05000" fill-rule="evenodd" fill-opacity="1.000"/>
    <path d="M 38.8735 104.117 L 38.9253 104.139 L 39.7608 104.33 L 40.3174 104.57 L 40.6738 104.688 L 41.4976 105.231 L 41.6017 105.301 L 41.9073 105.464 L 42.5274 105.759 L 42.7105 105.867 L 43.5218 105.964 L 43.6263 106.026 L 44.3839 106.351 L 44.7714 106.591 L 45.1538 106.842 L 45.9289 107.304 L 45.9508 107.321 L 46.1828 107.505 L 46.6951 107.895 L 47.1975 108.251 L 47.288 108.396 L 47.272 108.384 L 46.6754 107.962 L 46.029 107.47 L 45.9725 107.449 L 45.9172 107.414 L 45.1007 106.927 L 44.7175 106.675 L 44.3376 106.44 L 43.5808 106.115 L 43.4888 106.06 L 42.6779 105.964 L 42.4805 105.848 L 41.8622 105.553 L 41.55 105.387 L 41.4415 105.313 L 41.4415 105.313 L 40.6298 104.779 L 40.2818 104.663 L 39.7296 104.426 L 38.8943 104.234 L 38.8424 104.212 L 37.9315 104.396 L 37.9005 104.398 L 37.8729 104.524 L 37.3813 104.997 L 37.179 105.579 L 37.0933 105.747 L 37.109 105.808 L 37.3163 106.695 L 37.3528 106.739 L 37.5898 107.048 L 37.957 107.53 L 37.9995 107.591 L 38.6724 108.204 L 38.7334 108.266 L 39.0515 108.523 L 39.51 108.863 L 39.6527 108.944 L 40.3582 109.439 L 40.5283 109.515 L 41.3726 109.933 L 41.5219 110.003 L 41.5461 110.017 L 41.5855 110.037 L 42.5906 110.44 L 43.3952 110.69 L 43.5572 110.745 L 43.6903 110.779 L 44.4954 110.849 L 44.995 110.921 L 45.3807 110.898 L 45.8253 110.881 L 46.066 110.853 L 46.0224 110.872 L 45.7903 110.899 L 45.6313 110.905 L 44.8449 110.951 L 44.534 110.907 L 43.8031 110.843 L 43.5285 110.825 L 43.4171 110.803 L 43.3644 110.785 L 42.5575 110.535 L 41.545 110.128 L 41.4983 110.105 L 41.4754 110.092 L 41.3289 110.023 L 40.4856 109.605 L 40.3088 109.526 L 39.5992 109.029 L 39.4551 108.947 L 38.9909 108.603 L 38.6661 108.34 L 38.6031 108.276 L 37.924 107.658 L 37.8762 107.589 L 37.5103 107.109 L 37.2746 106.801 L 37.2243 106.741 L 37.0119 105.832 L 36.9871 105.736 L 37.0868 105.54 L 37.2948 104.942 L 37.7817 104.474 L 37.8191 104.302 L 37.9189 104.297 L 38.8507 104.108 L 38.8735 104.117" fill="none" stroke="#B8860B" stroke-width="0.05000" fill-rule="evenodd" fill-opacity="1.000"/>
    <path d="M 47.8086 108.788 L 48.0497 109.001 L 48.1636 109.172 L 48.1499 109.196 L 48.0515 109.049 L 47.6294 108.675 L 47.8086 108.788" fill="none" stroke="#B8860B" stroke-width="0.05000" fill-rule="evenodd" fill-opacity="1.000"/>
    </g>
    <g class="thermal-contour" data-segment="6" data-name="HollowShell2Contour_Overhang">
    <path d="M 35.2178 121.874 L 35.2084 121.919 L 35.0658 122.904 L 35.0542 123.009 L 34.9389 123.983 L 34.8924 124.11 L 34.5643 124.948 L 34.3773 124.919 L 33.7821 124.803 L 33.7447 124.699 L 33.7318 124.665 L 33.7576 124.669 L 33.8452 124.683 L 33.857 124.716 L 34.3949 124.82 L 34.5004 124.837 L 34.5191 124.789 L 34.5596 124.795 L 34.8115 124.152 L 34.9512 123.77 L 35.0292 123.111 L 35.0695 122.749 L 35.1754 122.017 L 35.2563 121.631 L 35.4095 120.854 L 35.4572 120.659 L 35.2178 121.874" fill="none" stroke="#006400" stroke-width="0.05000" fill-rule="evenodd" fill-opacity="1.000"/>
    <path d="M 35.5472 120.309 L 35.4929 120.513 L 35.5018 120.477 L 35.5478 120.304 L 35.5472 120.309" fill="none" stroke="#006400" stroke-width="0.05000" fill-rule="evenodd" fill-opacity="1.000"/>
    <path d="M 31.0984 113.827 L 31.1102 113.973 L 31.239 114.281 L 31.408 114.808 L 31.4093 114.813 L 31.0911 114.05 L 31.0614 113.683 L 31.0984 113.827" fill="none" stroke="#006400" stroke-width="0.05000" fill-rule="evenodd" fill-opacity="1.000"/>
    <path d="M 45.9684 107.328 L 46.0173 107.359 L 46.0778 107.381 L 46.7346 107.881 L 47.3441 108.313 L 47.3441 108.313 L 47.4285 108.374 L 47.5224 108.447 L 48.1274 108.982 L 48.5188 109.567 L 48.4587 109.674 L 48.0443 110.084 L 47.5183 110.427 L 47.4135 110.513 L 46.631 110.84 L 46.4726 110.906 L 45.8331 110.981 L 45.3855 110.998 L 44.9907 111.021 L 44.4839 110.948 L 43.6735 110.878 L 43.5294 110.841 L 43.4171 110.803 L 43.5285 110.825 L 43.8031 110.843 L 44.534 110.907 L 44.8449 110.951 L 45.6313 110.905 L 45.7903 110.899 L 46.0224 110.872 L 46.066 110.853 L 46.4468 110.809 L 46.5923 110.747 L 47.3615 110.426 L 47.4592 110.346 L 47.9811 110.005 L 48.3783 109.612 L 48.4014 109.572 L 48.1499 109.196 L 48.1636 109.172 L 48.0497 109.001 L 47.8086 108.788 L 47.6294 108.675 L 47.4578 108.523 L 47.3701 108.455 L 47.288 108.396 L 47.1975 108.251 L 46.6951 107.895 L 46.1828 107.505 L 45.9508 107.321 L 45.9289 107.304 L 45.9684 107.328" fill="none" stroke="#006400" stroke-width="0.05000" fill-rule="evenodd" fill-opacity="1.000"/>
    </g>
    <g class="thermal-contour" data-segment="9" data-name="CoreContourHatch">
    <path d="M 33.2414 108.127 L 33.3478 108.261 L 33.6969 108.855 L 33.7762 109.097 L 34.1852 109.854 L 34.4059 110.363 L 34.576 110.72 L 34.9163 111.573 L 34.9625 111.705 L 34.9778 111.763 L 35.2614 112.663 L 35.3345 113.067 L 35.4656 113.571 L 35.637 114.429 L 35.6454 114.531 L 35.6513 114.625 L 35.6912 115.418 L 35.7477 116.407 L 35.7464 116.461 L 35.7447 116.522 L 35.6986 117.457 L 35.6603 118.174 L 35.6237 118.427 L 35.6238 118.427 L 35.5925 118.739 L 35.5302 119.203 L 35.5299 119.203 L 35.3869 120.276 L 35.3331 120.48 L 35.2985 120.621 L 35.2986 120.621 L 35.0583 121.84 L 35.0479 121.89 L 34.904 122.884 L 34.8923 122.989 L 34.7791 123.945 L 34.74 124.053 L 34.4601 124.766 L 34.4069 124.758 L 33.904 124.661 L 33.8974 124.642 L 33.8974 124.642 L 33.7547 124.267 L 33.5477 123.669 L 33.4328 123.425 L 33.2665 122.831 L 33.1307 122.189 L 33.09 122.013 L 32.9412 121.31 L 32.8585 120.912 L 32.7723 120.344 L 32.7723 120.344 L 32.7113 119.984 L 32.6085 119.395 L 32.5064 118.716 L 32.4596 118.461 L 32.3863 117.864 L 32.3157 117.488 L 32.278 117.346 L 32.1265 116.644 L 31.9691 116.119 L 31.8812 115.712 L 31.6006 114.86 L 31.5979 114.85 L 31.5857 114.812 L 31.2514 114.011 L 31.2214 113.639 L 31.1017 113.175 L 31.085 112.462 L 31.0695 112.363 L 31.2094 111.701 L 31.2094 111.294 L 31.3424 110.797 L 31.5306 109.887 L 31.5491 109.855 L 31.6448 109.64 L 31.6455 109.64 L 32.0006 108.884 L 32.0317 108.658 L 32.5167 107.999 L 33.2414 108.127" fill="none" stroke="#800080" stroke-width="0.05000" fill-rule="evenodd" fill-opacity="1.000"/>
    <path d="M 32.0575 108.669 L 32.0269 108.892 L 31.6536 109.687 L 31.6535 109.687 L 31.5734 109.867 L 31.5562 109.897 L 31.3685 110.804 L 31.2364 111.297 L 31.2364 111.703 L 31.0969 112.363 L 31.112 112.459 L 31.1286 113.172 L 31.2482 113.635 L 31.278 114.005 L 31.6112 114.803 L 31.6241 114.843 L 31.6265 114.853 L 31.9075 115.706 L 31.9953 116.112 L 32.1527 116.637 L 32.3043 117.34 L 32.3418 117.481 L 32.4131 117.86 L 32.4863 118.457 L 32.533 118.711 L 32.6352 119.391 L 32.7379 119.979 L 32.799 120.34 L 32.8851 120.907 L 32.9676 121.305 L 33.1164 122.007 L 33.157 122.183 L 33.2927 122.824 L 33.4582 123.415 L 33.5728 123.659 L 33.7801 124.258 L 33.9229 124.633 L 33.9244 124.637 L 34.4116 124.731 L 34.4429 124.736 L 34.7147 124.043 L 34.7527 123.939 L 34.8655 122.986 L 34.8773 122.88 L 35.0212 121.886 L 35.0318 121.835 L 35.2721 120.616 L 35.307 120.474 L 35.3604 120.271 L 35.5062 119.176 L 35.5066 119.176 L 35.5657 118.736 L 35.5969 118.425 L 35.6334 118.171 L 35.6716 117.455 L 35.7177 116.521 L 35.7194 116.461 L 35.7207 116.408 L 35.6642 115.42 L 35.6243 114.627 L 35.6243 114.626 L 35.6185 114.533 L 35.6102 114.433 L 35.4393 113.577 L 35.308 113.072 L 35.2351 112.67 L 34.952 111.771 L 34.9367 111.713 L 34.891 111.582 L 34.5512 110.731 L 34.3815 110.375 L 34.1609 109.866 L 33.7513 109.108 L 33.6721 108.866 L 33.3255 108.276 L 33.2266 108.151 L 32.5285 108.029 L 32.0575 108.669" fill="none" stroke="#800080" stroke-width="0.05000" fill-rule="evenodd" fill-opacity="1.000"/>
    <path d="M 38.8746 104.294 L 39.7095 104.486 L 40.2597 104.723 L 40.6019 104.836 L 41.4046 105.364 L 41.517 105.441 L 41.8333 105.609 L 42.4507 105.904 L 42.6573 106.025 L 43.4681 106.121 L 43.5519 106.171 L 44.3084 106.496 L 44.6846 106.729 L 45.0676 106.981 L 45.8852 107.468 L 45.9441 107.505 L 45.9981 107.525 L 46.6377 108.012 L 47.2464 108.443 L 47.2464 108.443 L 47.3319 108.505 L 47.4178 108.572 L 48.0036 109.09 L 48.1152 109.257 L 48.1003 109.283 L 47.9831 109.108 L 47.4005 108.593 L 47.3157 108.527 L 47.2194 108.457 L 47.2194 108.457 L 46.6221 108.034 L 45.9849 107.549 L 45.9321 107.53 L 45.8711 107.491 L 45.0529 107.003 L 44.6701 106.752 L 44.2959 106.52 L 43.5398 106.195 L 43.4592 106.147 L 42.6485 106.051 L 42.438 105.927 L 41.8217 105.634 L 41.5035 105.464 L 41.3896 105.387 L 40.59 104.86 L 40.2498 104.748 L 39.7011 104.511 L 38.8663 104.32 L 38.8327 104.306 L 37.9748 104.479 L 37.955 104.57 L 37.4592 105.047 L 37.262 105.615 L 37.1889 105.758 L 37.1964 105.786 L 37.399 106.654 L 37.4232 106.683 L 37.6613 106.994 L 38.0297 107.477 L 38.0673 107.531 L 38.7348 108.139 L 38.7944 108.199 L 39.1051 108.451 L 39.5594 108.788 L 39.7009 108.868 L 40.403 109.36 L 40.5667 109.434 L 41.4121 109.853 L 41.5637 109.923 L 41.5887 109.938 L 41.6229 109.955 L 42.6209 110.355 L 43.423 110.604 L 43.5833 110.659 L 43.705 110.69 L 44.5057 110.759 L 44.999 110.83 L 45.3764 110.808 L 45.8178 110.791 L 46.3634 110.728 L 46.2743 110.765 L 45.8199 110.818 L 45.3779 110.835 L 45.378 110.835 L 44.9979 110.857 L 44.5031 110.786 L 43.7005 110.716 L 43.5756 110.685 L 43.415 110.63 L 42.6119 110.381 L 41.6119 109.979 L 41.5759 109.962 L 41.5512 109.947 L 41.4004 109.877 L 40.5547 109.458 L 40.5547 109.458 L 40.3896 109.384 L 39.6869 108.891 L 39.5446 108.81 L 39.0886 108.472 L 38.7762 108.219 L 38.7166 108.159 L 38.0469 107.549 L 38.0082 107.493 L 38.0082 107.494 L 37.6398 107.01 L 37.6398 107.01 L 37.4024 106.7 L 37.3742 106.666 L 37.1701 105.793 L 37.1701 105.792 L 37.1602 105.755 L 37.2372 105.604 L 37.4358 105.032 L 37.9303 104.557 L 37.9522 104.456 L 38.8356 104.278 L 38.8746 104.294" fill="none" stroke="#800080" stroke-width="0.05000" fill-rule="evenodd" fill-opacity="1.000"/>
    </g>
    <g class="thermal-contour" data-segment="20" data-name="CoreContourHatchOverhang">
    <path d="M 48.3273 109.574 L 47.9411 109.956 L 47.422 110.296 L 47.3287 110.371 L 46.5679 110.689 L 46.568 110.689 L 46.4305 110.747 L 46.2743 110.765 L 46.3634 110.728 L 46.4236 110.721 L 46.5575 110.664 L 47.3147 110.348 L 47.4061 110.274 L 47.924 109.935 L 48.2925 109.571 L 48.1003 109.283 L 48.1152 109.257 L 48.3273 109.574" fill="none" stroke="#E64A19" stroke-width="0.05000" fill-rule="evenodd" fill-opacity="1.000"/>
    </g>
    <!-- ===== Thermal Segment Colour Legend ===== -->
    <g id="thermal-legend">
    <rect x="161.0000" y="5.0000" width="40.0000" height="72.0000"
          rx="1" ry="1"
          fill="#fafafa" stroke="#cccccc" stroke-width="0.15"/>
    <text x="181.0000" y="7.6000" font-family="sans-serif" font-size="2.2000" font-weight="bold" fill="#222222" text-anchor="middle">Thermal Segments</text>
    <line x1="161.5000" y1="8.7000" x2="200.5000" y2="8.7000" stroke="#bbbbbb" stroke-width="0.1"/>
    <rect x="161.8000" y="9.0000" width="3.5000" height="2.0000" fill="#000000" stroke="#333333" stroke-width="0.08" rx="0.3" ry="0.3"/>
    <text x="168.6000" y="10.9000" font-family="monospace" font-size="1.6000" fill="#444444" text-anchor="end"> 1</text>
    <text x="169.6000" y="10.9000" font-family="sans-serif" font-size="1.6000" fill="#111111">CoreContour_Volume</text>
    <rect x="161.8000" y="12.0000" width="3.5000" height="2.0000" fill="#8B0000" stroke="#333333" stroke-width="0.08" rx="0.3" ry="0.3"/>
    <text x="168.6000" y="13.9000" font-family="monospace" font-size="1.6000" fill="#444444" text-anchor="end"> 2</text>
    <text x="169.6000" y="13.9000" font-family="sans-serif" font-size="1.6000" fill="#111111">CoreContour_Overhang</text>
    <rect x="161.8000" y="15.0000" width="3.5000" height="2.0000" fill="#0000CC" stroke="#333333" stroke-width="0.08" rx="0.3" ry="0.3"/>
    <text x="168.6000" y="16.9000" font-family="monospace" font-size="1.6000" fill="#444444" text-anchor="end"> 3</text>
    <text x="169.6000" y="16.9000" font-family="sans-serif" font-size="1.6000" fill="#111111">Shell1Contour_Volume</text>
    <rect x="161.8000" y="18.0000" width="3.5000" height="2.0000" fill="#000080" stroke="#333333" stroke-width="0.08" rx="0.3" ry="0.3"/>
    <text x="168.6000" y="19.9000" font-family="monospace" font-size="1.6000" fill="#444444" text-anchor="end"> 4</text>
    <text x="169.6000" y="19.9000" font-family="sans-serif" font-size="1.6000" fill="#111111">Shell1Contour_Overhang</text>
    <rect x="161.8000" y="21.0000" width="3.5000" height="2.0000" fill="#B8860B" stroke="#333333" stroke-width="0.08" rx="0.3" ry="0.3"/>
    <text x="168.6000" y="22.9000" font-family="monospace" font-size="1.6000" fill="#444444" text-anchor="end"> 5</text>
    <text x="169.6000" y="22.9000" font-family="sans-serif" font-size="1.6000" fill="#111111">Shell2Contour_Volume</text>
    <rect x="161.8000" y="24.0000" width="3.5000" height="2.0000" fill="#006400" stroke="#333333" stroke-width="0.08" rx="0.3" ry="0.3"/>
    <text x="168.6000" y="25.9000" font-family="monospace" font-size="1.6000" fill="#444444" text-anchor="end"> 6</text>
    <text x="169.6000" y="25.9000" font-family="sans-serif" font-size="1.6000" fill="#111111">Shell2Contour_Overhang</text>
    <rect x="161.8000" y="27.0000" width="3.5000" height="2.0000" fill="#FF8C00" stroke="#333333" stroke-width="0.08" rx="0.3" ry="0.3"/>
    <text x="168.6000" y="28.9000" font-family="monospace" font-size="1.6000" fill="#444444" text-anchor="end"> 7</text>
    <text x="169.6000" y="28.9000" font-family="sans-serif" font-size="1.6000" fill="#111111">CoreOverhangHatch</text>
    <rect x="161.8000" y="30.0000" width="3.5000" height="2.0000" fill="#228B22" stroke="#333333" stroke-width="0.08" rx="0.3" ry="0.3"/>
    <text x="168.6000" y="31.9000" font-family="monospace" font-size="1.6000" fill="#444444" text-anchor="end"> 8</text>
    <text x="169.6000" y="31.9000" font-family="sans-serif" font-size="1.6000" fill="#111111">CoreNormalHatch</text>
    <rect x="161.8000" y="33.0000" width="3.5000" height="2.0000" fill="#800080" stroke="#333333" stroke-width="0.08" rx="0.3" ry="0.3"/>
    <text x="168.6000" y="34.9000" font-family="monospace" font-size="1.6000" fill="#444444" text-anchor="end"> 9</text>
    <text x="169.6000" y="34.9000" font-family="sans-serif" font-size="1.6000" fill="#111111">CoreContourHatch</text>
    <rect x="161.8000" y="36.0000" width="3.5000" height="2.0000" fill="#FF69B4" stroke="#333333" stroke-width="0.08" rx="0.3" ry="0.3"/>
    <text x="168.6000" y="37.9000" font-family="monospace" font-size="1.6000" fill="#444444" text-anchor="end">10</text>
    <text x="169.6000" y="37.9000" font-family="sans-serif" font-size="1.6000" fill="#111111">Shell1OverhangHatch</text>
    <rect x="161.8000" y="39.0000" width="3.5000" height="2.0000" fill="#00CED1" stroke="#333333" stroke-width="0.08" rx="0.3" ry="0.3"/>
    <text x="168.6000" y="40.9000" font-family="monospace" font-size="1.6000" fill="#444444" text-anchor="end">11</text>
    <text x="169.6000" y="40.9000" font-family="sans-serif" font-size="1.6000" fill="#111111">Shell1NormalHatch</text>
    <rect x="161.8000" y="42.0000" width="3.5000" height="2.0000" fill="#FF00FF" stroke="#333333" stroke-width="0.08" rx="0.3" ry="0.3"/>
    <text x="168.6000" y="43.9000" font-family="monospace" font-size="1.6000" fill="#444444" text-anchor="end">12</text>
    <text x="169.6000" y="43.9000" font-family="sans-serif" font-size="1.6000" fill="#111111">Shell1ContourHatch</text>
    <rect x="161.8000" y="45.0000" width="3.5000" height="2.0000" fill="#A52A2A" stroke="#333333" stroke-width="0.08" rx="0.3" ry="0.3"/>
    <text x="168.6000" y="46.9000" font-family="monospace" font-size="1.6000" fill="#444444" text-anchor="end">13</text>
    <text x="169.6000" y="46.9000" font-family="sans-serif" font-size="1.6000" fill="#111111">Shell2OverhangHatch</text>
    <rect x="161.8000" y="48.0000" width="3.5000" height="2.0000" fill="#808080" stroke="#333333" stroke-width="0.08" rx="0.3" ry="0.3"/>
    <text x="168.6000" y="49.9000" font-family="monospace" font-size="1.6000" fill="#444444" text-anchor="end">14</text>
    <text x="169.6000" y="49.9000" font-family="sans-serif" font-size="1.6000" fill="#111111">Shell2NormalHatch</text>
    <rect x="161.8000" y="51.0000" width="3.5000" height="2.0000" fill="#32CD32" stroke="#333333" stroke-width="0.08" rx="0.3" ry="0.3"/>
    <text x="168.6000" y="52.9000" font-family="monospace" font-size="1.6000" fill="#444444" text-anchor="end">15</text>
    <text x="169.6000" y="52.9000" font-family="sans-serif" font-size="1.6000" fill="#111111">Shell2ContourHatch</text>
    <rect x="161.8000" y="54.0000" width="3.5000" height="2.0000" fill="#1A237E" stroke="#333333" stroke-width="0.08" rx="0.3" ry="0.3"/>
    <text x="168.6000" y="55.9000" font-family="monospace" font-size="1.6000" fill="#444444" text-anchor="end">16</text>
    <text x="169.6000" y="55.9000" font-family="sans-serif" font-size="1.6000" fill="#111111">SupportContourVolume</text>
    <rect x="161.8000" y="57.0000" width="3.5000" height="2.0000" fill="#827717" stroke="#333333" stroke-width="0.08" rx="0.3" ry="0.3"/>
    <text x="168.6000" y="58.9000" font-family="monospace" font-size="1.6000" fill="#444444" text-anchor="end">17</text>
    <text x="169.6000" y="58.9000" font-family="sans-serif" font-size="1.6000" fill="#111111">SupportHatch</text>
    <rect x="161.8000" y="60.0000" width="3.5000" height="2.0000" fill="#006064" stroke="#333333" stroke-width="0.08" rx="0.3" ry="0.3"/>
    <text x="168.6000" y="61.9000" font-family="monospace" font-size="1.6000" fill="#444444" text-anchor="end">18</text>
    <text x="169.6000" y="61.9000" font-family="sans-serif" font-size="1.6000" fill="#111111">PointSequence</text>
    <rect x="161.8000" y="63.0000" width="3.5000" height="2.0000" fill="#B71C1C" stroke="#333333" stroke-width="0.08" rx="0.3" ry="0.3"/>
    <text x="168.6000" y="64.9000" font-family="monospace" font-size="1.6000" fill="#444444" text-anchor="end">19</text>
    <text x="169.6000" y="64.9000" font-family="sans-serif" font-size="1.6000" fill="#111111">ExternalSupports</text>
    <rect x="161.8000" y="66.0000" width="3.5000" height="2.0000" fill="#E64A19" stroke="#333333" stroke-width="0.08" rx="0.3" ry="0.3"/>
    <text x="168.6000" y="67.9000" font-family="monospace" font-size="1.6000" fill="#444444" text-anchor="end">20</text>
    <text x="169.6000" y="67.9000" font-family="sans-serif" font-size="1.6000" fill="#111111">CoreContourHatchOverhang</text>
    <rect x="161.8000" y="69.0000" width="3.5000" height="2.0000" fill="#311B92" stroke="#333333" stroke-width="0.08" rx="0.3" ry="0.3"/>
    <text x="168.6000" y="70.9000" font-family="monospace" font-size="1.6000" fill="#444444" text-anchor="end">21</text>
    <text x="169.6000" y="70.9000" font-family="sans-serif" font-size="1.6000" fill="#111111">Shell1ContourHatchOverhang</text>
    <rect x="161.8000" y="72.0000" width="3.5000" height="2.0000" fill="#880E4F" stroke="#333333" stroke-width="0.08" rx="0.3" ry="0.3"/>
    <text x="168.6000" y="73.9000" font-family="monospace" font-size="1.6000" fill="#444444" text-anchor="end">22</text>
    <text x="169.6000" y="73.9000" font-family="sans-serif" font-size="1.6000" fill="#111111">Shell2ContourHatchOverhang</text>
    </g>
  </g>
</svg>
