<?xml version="1.0" encoding="UTF-8" standalone="yes"?>
<!DOCTYPE svg PUBLIC "-//W3C//DTD SVG 1.0//EN" "http://www.w3.org/TR/2001/REC-SVG-20010904/DTD/svg10.dtd">
<svg height="2000" width="2000" xmlns="http://www.w3.org/2000/svg" xmlns:svg="http://www.w3.org/2000/svg" xmlns:xlink="http://www.w3.org/1999/xlink">
  <marker id="endArrow" markerHeight="8" markerUnits="strokeWidth" markerWidth="10" orient="auto" refX="1" refY="5" viewBox="0 0 1000 1000">
    <polyline fill="darkblue" points="0,0 10,5 0,10 1,5" />
  </marker>
  <circle cx="1000.000000" cy="1000.000000" r="1.000000" style="stroke:black; fill: red" />
  <circle cx="1000.000000" cy="1000.000000" r="800.000000" style="stroke:black; fill: none" />
  <line x1="1412.622070" y1="1410.000000" x2="1548.051025" y2="1209.218628" style="stroke: green; stroke-width: 0.200000"/>
  <line x1="1413.828369" y1="1410.000000" x2="1548.051025" y2="1211.006836" style="stroke: green; stroke-width: 0.200000"/>
  <line x1="1415.034668" y1="1410.000000" x2="1548.051025" y2="1212.795166" style="stroke: green; stroke-width: 0.200000"/>
  <line x1="1416.240845" y1="1410.000000" x2="1548.051025" y2="1214.583496" style="stroke: green; stroke-width: 0.200000"/>
  <line x1="1417.447021" y1="1410.000000" x2="1548.051025" y2="1216.371704" style="stroke: green; stroke-width: 0.200000"/>
  <line x1="1418.653320" y1="1410.000000" x2="1548.051025" y2="1218.160034" style="stroke: green; stroke-width: 0.200000"/>
  <line x1="1419.859497" y1="1410.000000" x2="1548.051025" y2="1219.948242" style="stroke: green; stroke-width: 0.200000"/>
  <line x1="1421.065674" y1="1410.000000" x2="1548.051025" y2="1221.736572" style="stroke: green; stroke-width: 0.200000"/>
  <line x1="1422.271851" y1="1410.000000" x2="1548.051025" y2="1223.524902" style="stroke: green; stroke-width: 0.200000"/>
  <line x1="1423.478027" y1="1410.000000" x2="1548.051025" y2="1225.313232" style="stroke: green; stroke-width: 0.200000"/>
  <line x1="1424.684326" y1="1410.000000" x2="1548.051025" y2="1227.101562" style="stroke: green; stroke-width: 0.200000"/>
  <line x1="1425.890503" y1="1410.000000" x2="1548.051025" y2="1228.889771" style="stroke: green; stroke-width: 0.200000"/>
  <line x1="1427.096924" y1="1410.000000" x2="1548.051025" y2="1230.677979" style="stroke: green; stroke-width: 0.200000"/>
  <line x1="1428.302979" y1="1410.000000" x2="1548.051025" y2="1232.466309" style="stroke: green; stroke-width: 0.200000"/>
  <line x1="1429.509277" y1="1410.000000" x2="1548.051025" y2="1234.254639" style="stroke: green; stroke-width: 0.200000"/>
  <line x1="1430.715332" y1="1410.000000" x2="1548.051025" y2="1236.042969" style="stroke: green; stroke-width: 0.200000"/>
  <line x1="1431.921631" y1="1410.000000" x2="1548.051025" y2="1237.831299" style="stroke: green; stroke-width: 0.200000"/>
  <line x1="1433.127930" y1="1410.000000" x2="1548.051025" y2="1239.619385" style="stroke: green; stroke-width: 0.200000"/>
  <line x1="1434.334106" y1="1410.000000" x2="1548.051025" y2="1241.407715" style="stroke: green; stroke-width: 0.200000"/>
  <line x1="1435.540283" y1="1410.000000" x2="1548.051025" y2="1243.196045" style="stroke: green; stroke-width: 0.200000"/>
  <line x1="1436.746582" y1="1410.000000" x2="1548.051025" y2="1244.984375" style="stroke: green; stroke-width: 0.200000"/>
  <line x1="1437.952759" y1="1410.000000" x2="1548.051025" y2="1246.772705" style="stroke: green; stroke-width: 0.200000"/>
  <line x1="1439.158936" y1="1410.000000" x2="1548.051025" y2="1248.560913" style="stroke: green; stroke-width: 0.200000"/>
  <line x1="1440.365112" y1="1410.000000" x2="1548.051025" y2="1250.349243" style="stroke: green; stroke-width: 0.200000"/>
  <line x1="1441.571289" y1="1410.000000" x2="1548.051025" y2="1252.137573" style="stroke: green; stroke-width: 0.200000"/>
  <line x1="1442.777588" y1="1410.000000" x2="1548.051025" y2="1253.925903" style="stroke: green; stroke-width: 0.200000"/>
  <line x1="1443.983765" y1="1410.000000" x2="1548.051025" y2="1255.714111" style="stroke: green; stroke-width: 0.200000"/>
  <line x1="1445.190186" y1="1410.000000" x2="1548.051025" y2="1257.502441" style="stroke: green; stroke-width: 0.200000"/>
  <line x1="1446.396240" y1="1410.000000" x2="1548.051025" y2="1259.290649" style="stroke: green; stroke-width: 0.200000"/>
  <line x1="1447.602539" y1="1410.000000" x2="1548.051025" y2="1261.078979" style="stroke: green; stroke-width: 0.200000"/>
  <line x1="1448.808716" y1="1410.000000" x2="1548.051025" y2="1262.867310" style="stroke: green; stroke-width: 0.200000"/>
  <line x1="1450.014893" y1="1410.000000" x2="1548.051025" y2="1264.655640" style="stroke: green; stroke-width: 0.200000"/>
  <line x1="1451.221191" y1="1410.000000" x2="1548.051025" y2="1266.443970" style="stroke: green; stroke-width: 0.200000"/>
  <line x1="1452.427368" y1="1410.000000" x2="1548.051025" y2="1268.232178" style="stroke: green; stroke-width: 0.200000"/>
  <line x1="1453.633545" y1="1410.000000" x2="1548.051025" y2="1270.020508" style="stroke: green; stroke-width: 0.200000"/>
  <line x1="1454.839844" y1="1410.000000" x2="1548.051025" y2="1271.808838" style="stroke: green; stroke-width: 0.200000"/>
  <line x1="1456.046021" y1="1410.000000" x2="1548.051025" y2="1273.597046" style="stroke: green; stroke-width: 0.200000"/>
  <line x1="1457.252197" y1="1410.000000" x2="1548.051025" y2="1275.385254" style="stroke: green; stroke-width: 0.200000"/>
  <line x1="1458.458374" y1="1410.000000" x2="1548.051025" y2="1277.173584" style="stroke: green; stroke-width: 0.200000"/>
  <line x1="1459.664551" y1="1410.000000" x2="1548.051025" y2="1278.961914" style="stroke: green; stroke-width: 0.200000"/>
  <line x1="1460.870850" y1="1410.000000" x2="1548.051025" y2="1280.750122" style="stroke: green; stroke-width: 0.200000"/>
  <line x1="1462.077026" y1="1410.000000" x2="1548.051025" y2="1282.538452" style="stroke: green; stroke-width: 0.200000"/>
  <line x1="1463.283447" y1="1410.000000" x2="1548.051025" y2="1284.326782" style="stroke: green; stroke-width: 0.200000"/>
  <line x1="1464.489624" y1="1410.000000" x2="1548.051025" y2="1286.115112" style="stroke: green; stroke-width: 0.200000"/>
  <line x1="1465.695801" y1="1410.000000" x2="1548.051025" y2="1287.903442" style="stroke: green; stroke-width: 0.200000"/>
  <line x1="1466.901855" y1="1410.000000" x2="1548.051025" y2="1289.691650" style="stroke: green; stroke-width: 0.200000"/>
  <line x1="1468.108154" y1="1410.000000" x2="1548.051025" y2="1291.479980" style="stroke: green; stroke-width: 0.200000"/>
  <line x1="1469.314453" y1="1410.000000" x2="1548.051025" y2="1293.268311" style="stroke: green; stroke-width: 0.200000"/>
  <line x1="1470.520630" y1="1410.000000" x2="1548.051025" y2="1295.056396" style="stroke: green; stroke-width: 0.200000"/>
  <line x1="1471.726807" y1="1410.000000" x2="1548.051025" y2="1296.844727" style="stroke: green; stroke-width: 0.200000"/>
  <line x1="1472.933105" y1="1410.000000" x2="1548.051025" y2="1298.633057" style="stroke: green; stroke-width: 0.200000"/>
  <line x1="1474.139282" y1="1410.000000" x2="1548.051025" y2="1300.421387" style="stroke: green; stroke-width: 0.200000"/>
  <line x1="1475.345459" y1="1410.000000" x2="1548.051025" y2="1302.209717" style="stroke: green; stroke-width: 0.200000"/>
  <line x1="1476.551636" y1="1410.000000" x2="1548.051025" y2="1303.997925" style="stroke: green; stroke-width: 0.200000"/>
  <line x1="1477.757812" y1="1410.000000" x2="1548.051025" y2="1305.786255" style="stroke: green; stroke-width: 0.200000"/>
  <line x1="1478.964111" y1="1410.000000" x2="1548.051025" y2="1307.574585" style="stroke: green; stroke-width: 0.200000"/>
  <line x1="1480.170288" y1="1410.000000" x2="1548.051025" y2="1309.362793" style="stroke: green; stroke-width: 0.200000"/>
  <line x1="1481.376709" y1="1410.000000" x2="1548.051025" y2="1311.151123" style="stroke: green; stroke-width: 0.200000"/>
  <line x1="1482.582764" y1="1410.000000" x2="1548.051025" y2="1312.939453" style="stroke: green; stroke-width: 0.200000"/>
  <line x1="1483.789062" y1="1410.000000" x2="1548.051025" y2="1314.727783" style="stroke: green; stroke-width: 0.200000"/>
  <line x1="1484.995239" y1="1410.000000" x2="1548.051025" y2="1316.516113" style="stroke: green; stroke-width: 0.200000"/>
  <line x1="1486.201416" y1="1410.000000" x2="1548.051025" y2="1318.304443" style="stroke: green; stroke-width: 0.200000"/>
  <line x1="1487.407715" y1="1410.000000" x2="1548.051025" y2="1320.092651" style="stroke: green; stroke-width: 0.200000"/>
  <line x1="1488.613892" y1="1410.000000" x2="1548.051025" y2="1321.880981" style="stroke: green; stroke-width: 0.200000"/>
  <line x1="1489.820068" y1="1410.000000" x2="1548.051025" y2="1323.669189" style="stroke: green; stroke-width: 0.200000"/>
  <line x1="1491.026367" y1="1410.000000" x2="1548.051025" y2="1325.457520" style="stroke: green; stroke-width: 0.200000"/>
  <line x1="1492.232544" y1="1410.000000" x2="1548.051025" y2="1327.245850" style="stroke: green; stroke-width: 0.200000"/>
  <line x1="1493.438721" y1="1410.000000" x2="1548.051025" y2="1329.034180" style="stroke: green; stroke-width: 0.200000"/>
  <line x1="1494.645020" y1="1410.000000" x2="1548.051025" y2="1330.822510" style="stroke: green; stroke-width: 0.200000"/>
  <line x1="1495.851074" y1="1410.000000" x2="1548.051025" y2="1332.610596" style="stroke: green; stroke-width: 0.200000"/>
  <line x1="1497.057495" y1="1410.000000" x2="1548.051025" y2="1334.398926" style="stroke: green; stroke-width: 0.200000"/>
  <line x1="1498.263550" y1="1410.000000" x2="1548.051025" y2="1336.187256" style="stroke: green; stroke-width: 0.200000"/>
  <line x1="1499.469971" y1="1410.000000" x2="1548.051025" y2="1337.975464" style="stroke: green; stroke-width: 0.200000"/>
  <line x1="1500.676025" y1="1410.000000" x2="1548.051025" y2="1339.763794" style="stroke: green; stroke-width: 0.200000"/>
  <line x1="1501.882324" y1="1410.000000" x2="1548.051025" y2="1341.552124" style="stroke: green; stroke-width: 0.200000"/>
  <line x1="1503.088501" y1="1410.000000" x2="1548.051025" y2="1343.340454" style="stroke: green; stroke-width: 0.200000"/>
  <line x1="1504.294678" y1="1410.000000" x2="1548.051025" y2="1345.128784" style="stroke: green; stroke-width: 0.200000"/>
  <line x1="1505.500977" y1="1410.000000" x2="1548.051025" y2="1346.916992" style="stroke: green; stroke-width: 0.200000"/>
  <line x1="1506.707153" y1="1410.000000" x2="1548.051025" y2="1348.705322" style="stroke: green; stroke-width: 0.200000"/>
  <line x1="1507.913330" y1="1410.000000" x2="1548.051025" y2="1350.493652" style="stroke: green; stroke-width: 0.200000"/>
  <line x1="1509.119629" y1="1410.000000" x2="1548.051025" y2="1352.281738" style="stroke: green; stroke-width: 0.200000"/>
  <line x1="1510.325806" y1="1410.000000" x2="1548.051025" y2="1354.070068" style="stroke: green; stroke-width: 0.200000"/>
  <line x1="1511.531982" y1="1410.000000" x2="1548.051025" y2="1355.858398" style="stroke: green; stroke-width: 0.200000"/>
  <line x1="1512.738159" y1="1410.000000" x2="1548.051025" y2="1357.646729" style="stroke: green; stroke-width: 0.200000"/>
  <line x1="1513.944336" y1="1410.000000" x2="1548.051025" y2="1359.435059" style="stroke: green; stroke-width: 0.200000"/>
  <line x1="1515.150757" y1="1410.000000" x2="1548.051025" y2="1361.223389" style="stroke: green; stroke-width: 0.200000"/>
  <line x1="1516.356934" y1="1410.000000" x2="1548.051025" y2="1363.011597" style="stroke: green; stroke-width: 0.200000"/>
  <line x1="1517.563232" y1="1410.000000" x2="1548.051025" y2="1364.799805" style="stroke: green; stroke-width: 0.200000"/>
  <line x1="1518.769409" y1="1410.000000" x2="1548.051025" y2="1366.588135" style="stroke: green; stroke-width: 0.200000"/>
  <line x1="1519.975586" y1="1410.000000" x2="1548.051025" y2="1368.376465" style="stroke: green; stroke-width: 0.200000"/>
  <line x1="1521.181763" y1="1410.000000" x2="1548.051025" y2="1370.164795" style="stroke: green; stroke-width: 0.200000"/>
  <line x1="1522.387939" y1="1410.000000" x2="1548.051025" y2="1371.953125" style="stroke: green; stroke-width: 0.200000"/>
  <line x1="1523.594238" y1="1410.000000" x2="1548.051025" y2="1373.741455" style="stroke: green; stroke-width: 0.200000"/>
  <line x1="1524.800415" y1="1410.000000" x2="1548.051025" y2="1375.529785" style="stroke: green; stroke-width: 0.200000"/>
  <line x1="1526.006592" y1="1410.000000" x2="1548.051025" y2="1377.317993" style="stroke: green; stroke-width: 0.200000"/>
  <line x1="1527.212891" y1="1410.000000" x2="1548.051025" y2="1379.106323" style="stroke: green; stroke-width: 0.200000"/>
  <line x1="1528.419189" y1="1410.000000" x2="1548.051025" y2="1380.894653" style="stroke: green; stroke-width: 0.200000"/>
  <line x1="1529.625244" y1="1410.000000" x2="1548.051025" y2="1382.682861" style="stroke: green; stroke-width: 0.200000"/>
  <line x1="1530.831421" y1="1410.000000" x2="1548.051025" y2="1384.471191" style="stroke: green; stroke-width: 0.200000"/>
  <line x1="1532.037598" y1="1410.000000" x2="1548.051025" y2="1386.259521" style="stroke: green; stroke-width: 0.200000"/>
  <line x1="1533.244019" y1="1410.000000" x2="1548.051025" y2="1388.047852" style="stroke: green; stroke-width: 0.200000"/>
  <line x1="1534.450073" y1="1410.000000" x2="1548.051025" y2="1389.835938" style="stroke: green; stroke-width: 0.200000"/>
  <line x1="1535.656494" y1="1410.000000" x2="1548.051025" y2="1391.624268" style="stroke: green; stroke-width: 0.200000"/>
  <line x1="1536.862671" y1="1410.000000" x2="1548.051025" y2="1393.412598" style="stroke: green; stroke-width: 0.200000"/>
  <line x1="1538.068848" y1="1410.000000" x2="1548.051025" y2="1395.200928" style="stroke: green; stroke-width: 0.200000"/>
  <line x1="1539.275024" y1="1410.000000" x2="1548.051025" y2="1396.989136" style="stroke: green; stroke-width: 0.200000"/>
  <line x1="1540.481201" y1="1410.000000" x2="1548.051025" y2="1398.777466" style="stroke: green; stroke-width: 0.200000"/>
  <line x1="1541.687500" y1="1410.000000" x2="1548.051025" y2="1400.565796" style="stroke: green; stroke-width: 0.200000"/>
  <line x1="1542.893677" y1="1410.000000" x2="1548.051025" y2="1402.354126" style="stroke: green; stroke-width: 0.200000"/>
  <line x1="1544.099854" y1="1410.000000" x2="1548.051025" y2="1404.142334" style="stroke: green; stroke-width: 0.200000"/>
  <line x1="1545.306152" y1="1410.000000" x2="1548.051025" y2="1405.930664" style="stroke: green; stroke-width: 0.200000"/>
  <line x1="1546.512329" y1="1410.000000" x2="1548.051025" y2="1407.718994" style="stroke: green; stroke-width: 0.200000"/>
  <line x1="1547.718506" y1="1410.000000" x2="1548.051025" y2="1409.507080" style="stroke: green; stroke-width: 0.200000"/>
  <line x1="1411.948975" y1="1409.209595" x2="1548.051025" y2="1207.430298" style="stroke: green; stroke-width: 0.200000"/>
  <line x1="1411.948975" y1="1407.421265" x2="1548.051025" y2="1205.641968" style="stroke: green; stroke-width: 0.200000"/>
  <line x1="1411.948975" y1="1405.633057" x2="1548.051025" y2="1203.853638" style="stroke: green; stroke-width: 0.200000"/>
  <line x1="1411.948975" y1="1403.844727" x2="1548.051025" y2="1202.065430" style="stroke: green; stroke-width: 0.200000"/>
  <line x1="1411.948975" y1="1402.056396" x2="1548.051025" y2="1200.277100" style="stroke: green; stroke-width: 0.200000"/>
  <line x1="1411.948975" y1="1400.268311" x2="1548.051025" y2="1198.488770" style="stroke: green; stroke-width: 0.200000"/>
  <line x1="1411.948975" y1="1398.479980" x2="1548.051025" y2="1196.700439" style="stroke: green; stroke-width: 0.200000"/>
  <line x1="1411.948975" y1="1396.691650" x2="1548.051025" y2="1194.912231" style="stroke: green; stroke-width: 0.200000"/>
  <line x1="1411.948975" y1="1394.903320" x2="1548.051025" y2="1193.123901" style="stroke: green; stroke-width: 0.200000"/>
  <line x1="1411.948975" y1="1393.114990" x2="1548.051025" y2="1191.335571" style="stroke: green; stroke-width: 0.200000"/>
  <line x1="1411.948975" y1="1391.326782" x2="1548.051025" y2="1189.547363" style="stroke: green; stroke-width: 0.200000"/>
  <line x1="1411.948975" y1="1389.538452" x2="1548.051025" y2="1187.759033" style="stroke: green; stroke-width: 0.200000"/>
  <line x1="1411.948975" y1="1387.750122" x2="1548.051025" y2="1185.970703" style="stroke: green; stroke-width: 0.200000"/>
  <line x1="1411.948975" y1="1385.961914" x2="1548.051025" y2="1184.182373" style="stroke: green; stroke-width: 0.200000"/>
  <line x1="1411.948975" y1="1384.173584" x2="1548.051025" y2="1182.394165" style="stroke: green; stroke-width: 0.200000"/>
  <line x1="1411.948975" y1="1382.385254" x2="1548.051025" y2="1180.605835" style="stroke: green; stroke-width: 0.200000"/>
  <line x1="1411.948975" y1="1380.596924" x2="1548.051025" y2="1178.817627" style="stroke: green; stroke-width: 0.200000"/>
  <line x1="1411.948975" y1="1378.808594" x2="1548.051025" y2="1177.029297" style="stroke: green; stroke-width: 0.200000"/>
  <line x1="1411.948975" y1="1377.020386" x2="1548.051025" y2="1175.240967" style="stroke: green; stroke-width: 0.200000"/>
  <line x1="1411.948975" y1="1375.232056" x2="1548.051025" y2="1173.452759" style="stroke: green; stroke-width: 0.200000"/>
  <line x1="1411.948975" y1="1373.443726" x2="1548.051025" y2="1171.664429" style="stroke: green; stroke-width: 0.200000"/>
  <line x1="1411.948975" y1="1371.655518" x2="1548.051025" y2="1169.876099" style="stroke: green; stroke-width: 0.200000"/>
  <line x1="1411.948975" y1="1369.867188" x2="1548.051025" y2="1168.087891" style="stroke: green; stroke-width: 0.200000"/>
  <line x1="1411.948975" y1="1368.078857" x2="1548.051025" y2="1166.299561" style="stroke: green; stroke-width: 0.200000"/>
  <line x1="1411.948975" y1="1366.290527" x2="1548.051025" y2="1164.511230" style="stroke: green; stroke-width: 0.200000"/>
  <line x1="1411.948975" y1="1364.502197" x2="1548.051025" y2="1162.723022" style="stroke: green; stroke-width: 0.200000"/>
  <line x1="1411.948975" y1="1362.714111" x2="1548.051025" y2="1160.934692" style="stroke: green; stroke-width: 0.200000"/>
  <line x1="1411.948975" y1="1360.925781" x2="1548.051025" y2="1159.146484" style="stroke: green; stroke-width: 0.200000"/>
  <line x1="1411.948975" y1="1359.137573" x2="1548.051025" y2="1157.358154" style="stroke: green; stroke-width: 0.200000"/>
  <line x1="1411.948975" y1="1357.349243" x2="1548.051025" y2="1155.569824" style="stroke: green; stroke-width: 0.200000"/>
  <line x1="1411.948975" y1="1355.560913" x2="1548.051025" y2="1153.781494" style="stroke: green; stroke-width: 0.200000"/>
  <line x1="1411.948975" y1="1353.772583" x2="1548.051025" y2="1151.993164" style="stroke: green; stroke-width: 0.200000"/>
  <line x1="1411.948975" y1="1351.984253" x2="1548.051025" y2="1150.204956" style="stroke: green; stroke-width: 0.200000"/>
  <line x1="1411.948975" y1="1350.196045" x2="1548.051025" y2="1148.416626" style="stroke: green; stroke-width: 0.200000"/>
  <line x1="1411.948975" y1="1348.407715" x2="1548.051025" y2="1146.628296" style="stroke: green; stroke-width: 0.200000"/>
  <line x1="1411.948975" y1="1346.619385" x2="1548.051025" y2="1144.840088" style="stroke: green; stroke-width: 0.200000"/>
  <line x1="1411.948975" y1="1344.831055" x2="1548.051025" y2="1143.051758" style="stroke: green; stroke-width: 0.200000"/>
  <line x1="1411.948975" y1="1343.042969" x2="1548.051025" y2="1141.263428" style="stroke: green; stroke-width: 0.200000"/>
  <line x1="1411.948975" y1="1341.254639" x2="1548.051025" y2="1139.475220" style="stroke: green; stroke-width: 0.200000"/>
  <line x1="1411.948975" y1="1339.466309" x2="1548.051025" y2="1137.686890" style="stroke: green; stroke-width: 0.200000"/>
  <line x1="1411.948975" y1="1337.677979" x2="1548.051025" y2="1135.898560" style="stroke: green; stroke-width: 0.200000"/>
  <line x1="1411.948975" y1="1335.889771" x2="1548.051025" y2="1134.110352" style="stroke: green; stroke-width: 0.200000"/>
  <line x1="1411.948975" y1="1334.101440" x2="1548.051025" y2="1132.322021" style="stroke: green; stroke-width: 0.200000"/>
  <line x1="1411.948975" y1="1332.313110" x2="1548.051025" y2="1130.533691" style="stroke: green; stroke-width: 0.200000"/>
  <line x1="1411.948975" y1="1330.524902" x2="1548.051025" y2="1128.745361" style="stroke: green; stroke-width: 0.200000"/>
  <line x1="1411.948975" y1="1328.736572" x2="1548.051025" y2="1126.957031" style="stroke: green; stroke-width: 0.200000"/>
  <line x1="1411.948975" y1="1326.948242" x2="1548.051025" y2="1125.168823" style="stroke: green; stroke-width: 0.200000"/>
  <line x1="1411.948975" y1="1325.159912" x2="1548.051025" y2="1123.380615" style="stroke: green; stroke-width: 0.200000"/>
  <line x1="1411.948975" y1="1323.371582" x2="1548.051025" y2="1121.592285" style="stroke: green; stroke-width: 0.200000"/>
  <line x1="1411.948975" y1="1321.583252" x2="1548.051025" y2="1119.803955" style="stroke: green; stroke-width: 0.200000"/>
  <line x1="1411.948975" y1="1319.795044" x2="1548.051025" y2="1118.015747" style="stroke: green; stroke-width: 0.200000"/>
  <line x1="1411.948975" y1="1318.006714" x2="1548.051025" y2="1116.227295" style="stroke: green; stroke-width: 0.200000"/>
  <line x1="1411.948975" y1="1316.218384" x2="1548.051025" y2="1114.439087" style="stroke: green; stroke-width: 0.200000"/>
  <line x1="1411.948975" y1="1314.430176" x2="1548.051025" y2="1112.650757" style="stroke: green; stroke-width: 0.200000"/>
  <line x1="1411.948975" y1="1312.641846" x2="1548.051025" y2="1110.862549" style="stroke: green; stroke-width: 0.200000"/>
  <line x1="1411.948975" y1="1310.853516" x2="1548.051025" y2="1109.074219" style="stroke: green; stroke-width: 0.200000"/>
  <line x1="1411.948975" y1="1309.065186" x2="1548.051025" y2="1107.285889" style="stroke: green; stroke-width: 0.200000"/>
  <line x1="1411.948975" y1="1307.277100" x2="1548.051025" y2="1105.497681" style="stroke: green; stroke-width: 0.200000"/>
  <line x1="1411.948975" y1="1305.488770" x2="1548.051025" y2="1103.709473" style="stroke: green; stroke-width: 0.200000"/>
  <line x1="1411.948975" y1="1303.700439" x2="1548.051025" y2="1101.921021" style="stroke: green; stroke-width: 0.200000"/>
  <line x1="1411.948975" y1="1301.912109" x2="1548.051025" y2="1100.132812" style="stroke: green; stroke-width: 0.200000"/>
  <line x1="1411.948975" y1="1300.123901" x2="1548.051025" y2="1098.344482" style="stroke: green; stroke-width: 0.200000"/>
  <line x1="1411.948975" y1="1298.335571" x2="1548.051025" y2="1096.556152" style="stroke: green; stroke-width: 0.200000"/>
  <line x1="1411.948975" y1="1296.547241" x2="1548.051025" y2="1094.767944" style="stroke: green; stroke-width: 0.200000"/>
  <line x1="1411.948975" y1="1294.758911" x2="1548.051025" y2="1092.979614" style="stroke: green; stroke-width: 0.200000"/>
  <line x1="1411.948975" y1="1292.970703" x2="1548.051025" y2="1091.191284" style="stroke: green; stroke-width: 0.200000"/>
  <line x1="1411.948975" y1="1291.182373" x2="1548.051025" y2="1089.402954" style="stroke: green; stroke-width: 0.200000"/>
  <line x1="1411.948975" y1="1289.394043" x2="1548.051025" y2="1087.614624" style="stroke: green; stroke-width: 0.200000"/>
  <line x1="1411.948975" y1="1287.605713" x2="1548.051025" y2="1085.826416" style="stroke: green; stroke-width: 0.200000"/>
  <line x1="1411.948975" y1="1285.817627" x2="1548.051025" y2="1084.038208" style="stroke: green; stroke-width: 0.200000"/>
  <line x1="1411.948975" y1="1284.029297" x2="1548.051025" y2="1082.249878" style="stroke: green; stroke-width: 0.200000"/>
  <line x1="1411.948975" y1="1282.240967" x2="1548.051025" y2="1080.461548" style="stroke: green; stroke-width: 0.200000"/>
  <line x1="1411.948975" y1="1280.452637" x2="1548.051025" y2="1078.673218" style="stroke: green; stroke-width: 0.200000"/>
  <line x1="1411.948975" y1="1278.664307" x2="1548.051025" y2="1076.884888" style="stroke: green; stroke-width: 0.200000"/>
  <line x1="1411.948975" y1="1276.876099" x2="1548.051025" y2="1075.096680" style="stroke: green; stroke-width: 0.200000"/>
  <line x1="1411.948975" y1="1275.087769" x2="1548.051025" y2="1073.308350" style="stroke: green; stroke-width: 0.200000"/>
  <line x1="1411.948975" y1="1273.299438" x2="1548.051025" y2="1071.520020" style="stroke: green; stroke-width: 0.200000"/>
  <line x1="1411.948975" y1="1271.511108" x2="1548.051025" y2="1069.731812" style="stroke: green; stroke-width: 0.200000"/>
  <line x1="1411.948975" y1="1269.722900" x2="1548.051025" y2="1067.943481" style="stroke: green; stroke-width: 0.200000"/>
  <line x1="1411.948975" y1="1267.934570" x2="1548.051025" y2="1066.155273" style="stroke: green; stroke-width: 0.200000"/>
  <line x1="1411.948975" y1="1266.146362" x2="1548.051025" y2="1064.366943" style="stroke: green; stroke-width: 0.200000"/>
  <line x1="1411.948975" y1="1264.358032" x2="1548.051025" y2="1062.578613" style="stroke: green; stroke-width: 0.200000"/>
  <line x1="1411.948975" y1="1262.569702" x2="1548.051025" y2="1060.790283" style="stroke: green; stroke-width: 0.200000"/>
  <line x1="1411.948975" y1="1260.781372" x2="1547.377930" y2="1060.000000" style="stroke: green; stroke-width: 0.200000"/>
  <line x1="1411.948975" y1="1258.993164" x2="1546.171631" y2="1060.000000" style="stroke: green; stroke-width: 0.200000"/>
  <line x1="1411.948975" y1="1257.204834" x2="1544.965332" y2="1060.000000" style="stroke: green; stroke-width: 0.200000"/>
  <line x1="1411.948975" y1="1255.416504" x2="1543.759155" y2="1060.000000" style="stroke: green; stroke-width: 0.200000"/>
  <line x1="1411.948975" y1="1253.628174" x2="1542.552979" y2="1060.000000" style="stroke: green; stroke-width: 0.200000"/>
  <line x1="1411.948975" y1="1251.839966" x2="1541.346680" y2="1060.000000" style="stroke: green; stroke-width: 0.200000"/>
  <line x1="1411.948975" y1="1250.051636" x2="1540.140503" y2="1060.000000" style="stroke: green; stroke-width: 0.200000"/>
  <line x1="1411.948975" y1="1248.263428" x2="1538.934326" y2="1060.000000" style="stroke: green; stroke-width: 0.200000"/>
  <line x1="1411.948975" y1="1246.475098" x2="1537.728149" y2="1060.000000" style="stroke: green; stroke-width: 0.200000"/>
  <line x1="1411.948975" y1="1244.686768" x2="1536.521973" y2="1060.000000" style="stroke: green; stroke-width: 0.200000"/>
  <line x1="1411.948975" y1="1242.898438" x2="1535.315552" y2="1060.000000" style="stroke: green; stroke-width: 0.200000"/>
  <line x1="1411.948975" y1="1241.110229" x2="1534.109497" y2="1060.000000" style="stroke: green; stroke-width: 0.200000"/>
  <line x1="1411.948975" y1="1239.321899" x2="1532.903076" y2="1060.000000" style="stroke: green; stroke-width: 0.200000"/>
  <line x1="1411.948975" y1="1237.533691" x2="1531.697021" y2="1060.000000" style="stroke: green; stroke-width: 0.200000"/>
  <line x1="1411.948975" y1="1235.745361" x2="1530.490723" y2="1060.000000" style="stroke: green; stroke-width: 0.200000"/>
  <line x1="1411.948975" y1="1233.957031" x2="1529.284546" y2="1060.000000" style="stroke: green; stroke-width: 0.200000"/>
  <line x1="1411.948975" y1="1232.168701" x2="1528.078369" y2="1060.000000" style="stroke: green; stroke-width: 0.200000"/>
  <line x1="1411.948975" y1="1230.380493" x2="1526.872070" y2="1060.000000" style="stroke: green; stroke-width: 0.200000"/>
  <line x1="1411.948975" y1="1228.592163" x2="1525.665894" y2="1060.000000" style="stroke: green; stroke-width: 0.200000"/>
  <line x1="1411.948975" y1="1226.803955" x2="1524.459717" y2="1060.000000" style="stroke: green; stroke-width: 0.200000"/>
  <line x1="1411.948975" y1="1225.015625" x2="1523.253418" y2="1060.000000" style="stroke: green; stroke-width: 0.200000"/>
  <line x1="1411.948975" y1="1223.227295" x2="1522.047241" y2="1060.000000" style="stroke: green; stroke-width: 0.200000"/>
  <line x1="1411.948975" y1="1221.439087" x2="1520.841064" y2="1060.000000" style="stroke: green; stroke-width: 0.200000"/>
  <line x1="1411.948975" y1="1219.650757" x2="1519.634888" y2="1060.000000" style="stroke: green; stroke-width: 0.200000"/>
  <line x1="1411.948975" y1="1217.862427" x2="1518.428711" y2="1060.000000" style="stroke: green; stroke-width: 0.200000"/>
  <line x1="1411.948975" y1="1216.074097" x2="1517.222290" y2="1060.000000" style="stroke: green; stroke-width: 0.200000"/>
  <line x1="1411.948975" y1="1214.285889" x2="1516.016235" y2="1060.000000" style="stroke: green; stroke-width: 0.200000"/>
  <line x1="1411.948975" y1="1212.497559" x2="1514.809814" y2="1060.000000" style="stroke: green; stroke-width: 0.200000"/>
  <line x1="1411.948975" y1="1210.709229" x2="1513.603638" y2="1060.000000" style="stroke: green; stroke-width: 0.200000"/>
  <line x1="1411.948975" y1="1208.921021" x2="1512.397461" y2="1060.000000" style="stroke: green; stroke-width: 0.200000"/>
  <line x1="1411.948975" y1="1207.132690" x2="1511.191284" y2="1060.000000" style="stroke: green; stroke-width: 0.200000"/>
  <line x1="1411.948975" y1="1205.344360" x2="1509.985107" y2="1060.000000" style="stroke: green; stroke-width: 0.200000"/>
  <line x1="1411.948975" y1="1203.556030" x2="1508.778809" y2="1060.000000" style="stroke: green; stroke-width: 0.200000"/>
  <line x1="1411.948975" y1="1201.767822" x2="1507.572632" y2="1060.000000" style="stroke: green; stroke-width: 0.200000"/>
  <line x1="1411.948975" y1="1199.979492" x2="1506.366455" y2="1060.000000" style="stroke: green; stroke-width: 0.200000"/>
  <line x1="1411.948975" y1="1198.191162" x2="1505.160156" y2="1060.000000" style="stroke: green; stroke-width: 0.200000"/>
  <line x1="1411.948975" y1="1196.402832" x2="1503.953979" y2="1060.000000" style="stroke: green; stroke-width: 0.200000"/>
  <line x1="1411.948975" y1="1194.614624" x2="1502.747803" y2="1060.000000" style="stroke: green; stroke-width: 0.200000"/>
  <line x1="1411.948975" y1="1192.826416" x2="1501.541626" y2="1060.000000" style="stroke: green; stroke-width: 0.200000"/>
  <line x1="1411.948975" y1="1191.038086" x2="1500.335449" y2="1060.000000" style="stroke: green; stroke-width: 0.200000"/>
  <line x1="1411.948975" y1="1189.249756" x2="1499.129028" y2="1060.000000" style="stroke: green; stroke-width: 0.200000"/>
  <line x1="1411.948975" y1="1187.461426" x2="1497.922974" y2="1060.000000" style="stroke: green; stroke-width: 0.200000"/>
  <line x1="1411.948975" y1="1185.673218" x2="1496.716553" y2="1060.000000" style="stroke: green; stroke-width: 0.200000"/>
  <line x1="1411.948975" y1="1183.884888" x2="1495.510376" y2="1060.000000" style="stroke: green; stroke-width: 0.200000"/>
  <line x1="1411.948975" y1="1182.096680" x2="1494.304199" y2="1060.000000" style="stroke: green; stroke-width: 0.200000"/>
  <line x1="1411.948975" y1="1180.308350" x2="1493.098022" y2="1060.000000" style="stroke: green; stroke-width: 0.200000"/>
  <line x1="1411.948975" y1="1178.520020" x2="1491.891846" y2="1060.000000" style="stroke: green; stroke-width: 0.200000"/>
  <line x1="1411.948975" y1="1176.731689" x2="1490.685547" y2="1060.000000" style="stroke: green; stroke-width: 0.200000"/>
  <line x1="1411.948975" y1="1174.943481" x2="1489.479370" y2="1060.000000" style="stroke: green; stroke-width: 0.200000"/>
  <line x1="1411.948975" y1="1173.155151" x2="1488.273193" y2="1060.000000" style="stroke: green; stroke-width: 0.200000"/>
  <line x1="1411.948975" y1="1171.366943" x2="1487.066895" y2="1060.000000" style="stroke: green; stroke-width: 0.200000"/>
  <line x1="1411.948975" y1="1169.578613" x2="1485.860718" y2="1060.000000" style="stroke: green; stroke-width: 0.200000"/>
  <line x1="1411.948975" y1="1167.790283" x2="1484.654541" y2="1060.000000" style="stroke: green; stroke-width: 0.200000"/>
  <line x1="1411.948975" y1="1166.001953" x2="1483.448242" y2="1060.000000" style="stroke: green; stroke-width: 0.200000"/>
  <line x1="1411.948975" y1="1164.213745" x2="1482.242188" y2="1060.000000" style="stroke: green; stroke-width: 0.200000"/>
  <line x1="1411.948975" y1="1162.425415" x2="1481.035767" y2="1060.000000" style="stroke: green; stroke-width: 0.200000"/>
  <line x1="1411.948975" y1="1160.637085" x2="1479.829712" y2="1060.000000" style="stroke: green; stroke-width: 0.200000"/>
  <line x1="1411.948975" y1="1158.848755" x2="1478.623291" y2="1060.000000" style="stroke: green; stroke-width: 0.200000"/>
  <line x1="1411.948975" y1="1157.060547" x2="1477.417114" y2="1060.000000" style="stroke: green; stroke-width: 0.200000"/>
  <line x1="1411.948975" y1="1155.272217" x2="1476.210938" y2="1060.000000" style="stroke: green; stroke-width: 0.200000"/>
  <line x1="1411.948975" y1="1153.484009" x2="1475.004761" y2="1060.000000" style="stroke: green; stroke-width: 0.200000"/>
  <line x1="1411.948975" y1="1151.695679" x2="1473.798584" y2="1060.000000" style="stroke: green; stroke-width: 0.200000"/>
  <line x1="1411.948975" y1="1149.907349" x2="1472.592285" y2="1060.000000" style="stroke: green; stroke-width: 0.200000"/>
  <line x1="1411.948975" y1="1148.119019" x2="1471.386108" y2="1060.000000" style="stroke: green; stroke-width: 0.200000"/>
  <line x1="1411.948975" y1="1146.330688" x2="1470.179932" y2="1060.000000" style="stroke: green; stroke-width: 0.200000"/>
  <line x1="1411.948975" y1="1144.542480" x2="1468.973633" y2="1060.000000" style="stroke: green; stroke-width: 0.200000"/>
  <line x1="1411.948975" y1="1142.754150" x2="1467.767456" y2="1060.000000" style="stroke: green; stroke-width: 0.200000"/>
  <line x1="1411.948975" y1="1140.965820" x2="1466.561279" y2="1060.000000" style="stroke: green; stroke-width: 0.200000"/>
  <line x1="1411.948975" y1="1139.177490" x2="1465.354980" y2="1060.000000" style="stroke: green; stroke-width: 0.200000"/>
  <line x1="1411.948975" y1="1137.389282" x2="1464.148926" y2="1060.000000" style="stroke: green; stroke-width: 0.200000"/>
  <line x1="1411.948975" y1="1135.601074" x2="1462.942505" y2="1060.000000" style="stroke: green; stroke-width: 0.200000"/>
  <line x1="1411.948975" y1="1133.812744" x2="1461.736450" y2="1060.000000" style="stroke: green; stroke-width: 0.200000"/>
  <line x1="1411.948975" y1="1132.024414" x2="1460.530029" y2="1060.000000" style="stroke: green; stroke-width: 0.200000"/>
  <line x1="1411.948975" y1="1130.236084" x2="1459.323853" y2="1060.000000" style="stroke: green; stroke-width: 0.200000"/>
  <line x1="1411.948975" y1="1128.447876" x2="1458.117676" y2="1060.000000" style="stroke: green; stroke-width: 0.200000"/>
  <line x1="1411.948975" y1="1126.659546" x2="1456.911499" y2="1060.000000" style="stroke: green; stroke-width: 0.200000"/>
  <line x1="1411.948975" y1="1124.871338" x2="1455.705322" y2="1060.000000" style="stroke: green; stroke-width: 0.200000"/>
  <line x1="1411.948975" y1="1123.083008" x2="1454.499023" y2="1060.000000" style="stroke: green; stroke-width: 0.200000"/>
  <line x1="1411.948975" y1="1121.294678" x2="1453.292847" y2="1060.000000" style="stroke: green; stroke-width: 0.200000"/>
  <line x1="1411.948975" y1="1119.506348" x2="1452.086670" y2="1060.000000" style="stroke: green; stroke-width: 0.200000"/>
  <line x1="1411.948975" y1="1117.718018" x2="1450.880371" y2="1060.000000" style="stroke: green; stroke-width: 0.200000"/>
  <line x1="1411.948975" y1="1115.929810" x2="1449.674194" y2="1060.000000" style="stroke: green; stroke-width: 0.200000"/>
  <line x1="1411.948975" y1="1114.141602" x2="1448.468018" y2="1060.000000" style="stroke: green; stroke-width: 0.200000"/>
  <line x1="1411.948975" y1="1112.353271" x2="1447.261719" y2="1060.000000" style="stroke: green; stroke-width: 0.200000"/>
  <line x1="1411.948975" y1="1110.564941" x2="1446.055664" y2="1060.000000" style="stroke: green; stroke-width: 0.200000"/>
  <line x1="1411.948975" y1="1108.776611" x2="1444.849243" y2="1060.000000" style="stroke: green; stroke-width: 0.200000"/>
  <line x1="1411.948975" y1="1106.988403" x2="1443.643066" y2="1060.000000" style="stroke: green; stroke-width: 0.200000"/>
  <line x1="1411.948975" y1="1105.200073" x2="1442.436768" y2="1060.000000" style="stroke: green; stroke-width: 0.200000"/>
  <line x1="1411.948975" y1="1103.411743" x2="1441.230591" y2="1060.000000" style="stroke: green; stroke-width: 0.200000"/>
  <line x1="1411.948975" y1="1101.623413" x2="1440.024414" y2="1060.000000" style="stroke: green; stroke-width: 0.200000"/>
  <line x1="1411.948975" y1="1099.835205" x2="1438.818237" y2="1060.000000" style="stroke: green; stroke-width: 0.200000"/>
  <line x1="1411.948975" y1="1098.046875" x2="1437.612061" y2="1060.000000" style="stroke: green; stroke-width: 0.200000"/>
  <line x1="1411.948975" y1="1096.258667" x2="1436.405762" y2="1060.000000" style="stroke: green; stroke-width: 0.200000"/>
  <line x1="1411.948975" y1="1094.470337" x2="1435.199585" y2="1060.000000" style="stroke: green; stroke-width: 0.200000"/>
  <line x1="1411.948975" y1="1092.682007" x2="1433.993408" y2="1060.000000" style="stroke: green; stroke-width: 0.200000"/>
  <line x1="1411.948975" y1="1090.893677" x2="1432.787109" y2="1060.000000" style="stroke: green; stroke-width: 0.200000"/>
  <line x1="1411.948975" y1="1089.105469" x2="1431.580811" y2="1060.000000" style="stroke: green; stroke-width: 0.200000"/>
  <line x1="1411.948975" y1="1087.317139" x2="1430.374756" y2="1060.000000" style="stroke: green; stroke-width: 0.200000"/>
  <line x1="1411.948975" y1="1085.528809" x2="1429.168457" y2="1060.000000" style="stroke: green; stroke-width: 0.200000"/>
  <line x1="1411.948975" y1="1083.740479" x2="1427.962402" y2="1060.000000" style="stroke: green; stroke-width: 0.200000"/>
  <line x1="1411.948975" y1="1081.952148" x2="1426.755981" y2="1060.000000" style="stroke: green; stroke-width: 0.200000"/>
  <line x1="1411.948975" y1="1080.163940" x2="1425.549805" y2="1060.000000" style="stroke: green; stroke-width: 0.200000"/>
  <line x1="1411.948975" y1="1078.375732" x2="1424.343506" y2="1060.000000" style="stroke: green; stroke-width: 0.200000"/>
  <line x1="1411.948975" y1="1076.587402" x2="1423.137329" y2="1060.000000" style="stroke: green; stroke-width: 0.200000"/>
  <line x1="1411.948975" y1="1074.799072" x2="1421.931152" y2="1060.000000" style="stroke: green; stroke-width: 0.200000"/>
  <line x1="1411.948975" y1="1073.010742" x2="1420.724976" y2="1060.000000" style="stroke: green; stroke-width: 0.200000"/>
  <line x1="1411.948975" y1="1071.222534" x2="1419.518799" y2="1060.000000" style="stroke: green; stroke-width: 0.200000"/>
  <line x1="1411.948975" y1="1069.434204" x2="1418.312500" y2="1060.000000" style="stroke: green; stroke-width: 0.200000"/>
  <line x1="1411.948975" y1="1067.645996" x2="1417.106323" y2="1060.000000" style="stroke: green; stroke-width: 0.200000"/>
  <line x1="1411.948975" y1="1065.857666" x2="1415.900146" y2="1060.000000" style="stroke: green; stroke-width: 0.200000"/>
  <line x1="1411.948975" y1="1064.069336" x2="1414.693848" y2="1060.000000" style="stroke: green; stroke-width: 0.200000"/>
  <line x1="1411.948975" y1="1062.281006" x2="1413.487549" y2="1060.000000" style="stroke: green; stroke-width: 0.200000"/>
  <line x1="1411.948975" y1="1060.492798" x2="1412.281494" y2="1060.000000" style="stroke: green; stroke-width: 0.200000"/>
  <path d="M 1548.05  1410  1411.95  1410  1411.95  1060  1548.05  1060  1548.05  1410  " style="fill: none; stroke: black; stroke-width: 0.200000; fill-type: evenodd"  fill-opacity="1.000000" />
</svg>
