<?xml version="1.0" encoding="UTF-8" standalone="yes"?>
<svg xmlns="http://www.w3.org/2000/svg"
     xmlns:xlink="http://www.w3.org/1999/xlink"
     width="2020.0000mm" height="1600.0000mm"
     viewBox="0 0 202.000000 160.000000">
  <!--
    Build plate : 150.00 x 150.00 mm
    Coordinate  : 1 SVG unit = 1 mm
    Display zoom: 10x  (width/height = viewBox x 10)
    Hatch stroke: 0.04 mm = ~28 mm on screen at this zoom
    Legend panel: right margin (42 mm wide)
  -->
  <defs>
    <marker id="endArrow" markerWidth="2" markerHeight="1.4"
            refX="0" refY="0.7" orient="auto"
            markerUnits="strokeWidth">
      <polyline fill="darkblue" points="0,0 2,0.7 0,1.4 0.2,0.7"/>
    </marker>
  </defs>
  <!-- Background -->
  <rect x="0" y="0" width="202.000000" height="160.000000" fill="#f0f0f0" stroke="none"/>
  <!-- Build plate boundary (150 x 150 mm) -->
  <rect x="5.000000" y="5.000000" width="150.000000" height="150.000000"
        fill="#ffffff" stroke="#aaaaaa" stroke-width="0.2" stroke-dasharray="1,0.5"/>
  <!-- Build plate centre circle (r = 75.00 mm) -->
  <circle cx="80.000000" cy="80.000000" r="75.000000"
          fill="none" stroke="#bbbbbb" stroke-width="0.15" stroke-dasharray="0.8,0.4"/>
  <!-- Centre cross-hair -->
  <line x1="5.000000" y1="80.000000" x2="155.000000" y2="80.000000" stroke="#cccccc" stroke-width="0.1"/>
  <line x1="80.000000" y1="5.000000" x2="80.000000" y2="155.000000" stroke="#cccccc" stroke-width="0.1"/>
  <circle cx="80.000000" cy="80.000000" r="0.3" fill="#cccccc" stroke="none"/>
  <!-- Corner labels -->
  <text x="5.400000" y="4.600000" font-family="sans-serif" font-size="2" fill="#888888">0,0</text>
  <text x="154.600006" y="4.600000" font-family="sans-serif" font-size="2" fill="#888888" text-anchor="end">150,0</text>
  <text x="5.400000" y="157.199997" font-family="sans-serif" font-size="2" fill="#888888">0,150</text>
  <!-- Layer geometry -->
  <g id="geometry">
    <g class="thermal-hatch" data-segment="8" data-name="CoreNormalHatch">
      <line x1="35.01684" y1="127.53499" x2="31.34035" y2="116.85768" stroke="#228B22" stroke-width="0.04000"/>
      <line x1="35.12153" y1="127.53189" x2="31.40958" y2="116.75159" stroke="#228B22" stroke-width="0.04000"/>
      <line x1="35.22719" y1="127.53159" x2="31.47881" y2="116.64548" stroke="#228B22" stroke-width="0.04000"/>
      <line x1="35.33285" y1="127.53128" x2="31.54803" y2="116.53938" stroke="#228B22" stroke-width="0.04000"/>
      <line x1="35.43850" y1="127.53097" x2="31.61726" y2="116.43327" stroke="#228B22" stroke-width="0.04000"/>
      <line x1="35.54416" y1="127.53066" x2="31.68649" y2="116.32717" stroke="#228B22" stroke-width="0.04000"/>
      <line x1="35.64982" y1="127.53036" x2="31.75572" y2="116.22107" stroke="#228B22" stroke-width="0.04000"/>
      <line x1="35.75547" y1="127.53005" x2="31.83473" y2="116.14339" stroke="#228B22" stroke-width="0.04000"/>
      <line x1="35.86113" y1="127.52974" x2="31.92413" y2="116.09587" stroke="#228B22" stroke-width="0.04000"/>
      <line x1="35.96679" y1="127.52943" x2="32.01353" y2="116.04836" stroke="#228B22" stroke-width="0.04000"/>
      <line x1="34.88071" y1="127.44682" x2="31.26764" y2="116.95369" stroke="#228B22" stroke-width="0.04000"/>
      <line x1="36.03060" y1="127.40762" x2="32.10294" y2="116.00085" stroke="#228B22" stroke-width="0.04000"/>
      <line x1="34.71386" y1="127.26938" x2="31.19478" y2="117.04925" stroke="#228B22" stroke-width="0.04000"/>
      <line x1="36.04176" y1="127.13288" x2="32.18939" y2="115.94479" stroke="#228B22" stroke-width="0.04000"/>
      <line x1="34.54665" y1="127.09093" x2="31.12213" y2="117.14539" stroke="#228B22" stroke-width="0.04000"/>
      <line x1="34.37944" y1="126.91248" x2="31.06851" y2="117.29683" stroke="#228B22" stroke-width="0.04000"/>
      <line x1="36.05293" y1="126.85814" x2="32.27433" y2="115.88430" stroke="#228B22" stroke-width="0.04000"/>
      <line x1="36.06546" y1="126.58737" x2="32.35926" y2="115.82381" stroke="#228B22" stroke-width="0.04000"/>
      <line x1="34.05453" y1="126.27602" x2="31.01489" y2="117.44827" stroke="#228B22" stroke-width="0.04000"/>
      <line x1="36.05243" y1="126.24239" x2="32.44420" y2="115.76333" stroke="#228B22" stroke-width="0.04000"/>
      <line x1="36.00384" y1="125.79413" x2="32.52914" y2="115.70284" stroke="#228B22" stroke-width="0.04000"/>
      <line x1="35.95178" y1="125.33578" x2="32.61407" y2="115.64236" stroke="#228B22" stroke-width="0.04000"/>
      <line x1="33.59483" y1="125.24812" x2="30.96127" y2="117.59970" stroke="#228B22" stroke-width="0.04000"/>
      <line x1="35.88693" y1="124.84027" x2="32.72206" y2="115.64882" stroke="#228B22" stroke-width="0.04000"/>
      <line x1="33.25829" y1="124.57790" x2="30.90766" y2="117.75115" stroke="#228B22" stroke-width="0.04000"/>
      <line x1="35.82701" y1="124.35911" x2="32.83941" y2="115.68247" stroke="#228B22" stroke-width="0.04000"/>
      <line x1="32.95037" y1="123.99078" x2="30.85109" y2="117.89400" stroke="#228B22" stroke-width="0.04000"/>
      <line x1="35.73236" y1="123.77705" x2="32.95676" y2="115.71613" stroke="#228B22" stroke-width="0.04000"/>
      <line x1="35.66338" y1="123.26958" x2="33.07735" y2="115.75919" stroke="#228B22" stroke-width="0.04000"/>
      <line x1="32.56931" y1="123.19125" x2="30.78978" y2="118.02311" stroke="#228B22" stroke-width="0.04000"/>
      <line x1="35.63117" y1="122.86888" x2="33.20836" y2="115.83253" stroke="#228B22" stroke-width="0.04000"/>
      <line x1="32.33035" y1="122.80440" x2="30.72847" y2="118.15221" stroke="#228B22" stroke-width="0.04000"/>
      <line x1="32.08065" y1="122.38638" x2="30.66716" y2="118.28132" stroke="#228B22" stroke-width="0.04000"/>
      <line x1="31.87797" y1="122.10492" x2="30.60585" y2="118.41042" stroke="#228B22" stroke-width="0.04000"/>
      <line x1="35.42856" y1="121.97328" x2="33.33938" y2="115.90588" stroke="#228B22" stroke-width="0.04000"/>
      <line x1="31.69243" y1="121.87323" x2="30.56614" y2="118.60223" stroke="#228B22" stroke-width="0.04000"/>
      <line x1="31.49720" y1="121.61338" x2="30.53468" y2="118.81804" stroke="#228B22" stroke-width="0.04000"/>
      <line x1="31.31157" y1="121.38145" x2="30.49143" y2="118.99958" stroke="#228B22" stroke-width="0.04000"/>
      <line x1="35.26693" y1="121.19674" x2="33.47040" y2="115.97923" stroke="#228B22" stroke-width="0.04000"/>
      <line x1="31.13816" y1="121.18497" x2="30.44357" y2="119.16773" stroke="#228B22" stroke-width="0.04000"/>
      <line x1="30.96519" y1="120.98980" x2="30.39571" y2="119.33588" stroke="#228B22" stroke-width="0.04000"/>
      <line x1="30.77397" y1="120.74161" x2="30.34784" y2="119.50404" stroke="#228B22" stroke-width="0.04000"/>
      <line x1="35.03283" y1="120.20972" x2="33.60141" y2="116.05257" stroke="#228B22" stroke-width="0.04000"/>
      <line x1="30.38646" y1="119.92332" x2="30.29998" y2="119.67219" stroke="#228B22" stroke-width="0.04000"/>
      <line x1="34.84379" y1="119.35352" x2="33.85252" y2="116.47466" stroke="#228B22" stroke-width="0.04000"/>
      <line x1="34.42464" y1="117.82909" x2="34.31007" y2="117.49635" stroke="#228B22" stroke-width="0.04000"/>
    </g>
    <g class="thermal-hatch" data-segment="8" data-name="CoreNormalHatch">
      <line x1="52.89888" y1="115.16678" x2="52.12555" y2="112.92085" stroke="#228B22" stroke-width="0.04000"/>
      <line x1="52.79195" y1="115.16339" x2="51.98450" y2="112.81838" stroke="#228B22" stroke-width="0.04000"/>
      <line x1="52.67258" y1="115.12385" x2="51.84335" y2="112.71561" stroke="#228B22" stroke-width="0.04000"/>
      <line x1="52.55320" y1="115.08430" x2="51.71222" y2="112.64194" stroke="#228B22" stroke-width="0.04000"/>
      <line x1="52.43382" y1="115.04477" x2="51.58228" y2="112.57171" stroke="#228B22" stroke-width="0.04000"/>
      <line x1="52.95916" y1="115.03468" x2="52.26278" y2="113.01226" stroke="#228B22" stroke-width="0.04000"/>
      <line x1="52.31445" y1="115.00523" x2="51.45234" y2="112.50149" stroke="#228B22" stroke-width="0.04000"/>
      <line x1="52.19507" y1="114.96569" x2="51.32240" y2="112.43127" stroke="#228B22" stroke-width="0.04000"/>
      <line x1="52.07569" y1="114.92615" x2="51.19246" y2="112.36105" stroke="#228B22" stroke-width="0.04000"/>
      <line x1="51.95665" y1="114.88759" x2="51.06252" y2="112.29084" stroke="#228B22" stroke-width="0.04000"/>
      <line x1="53.00703" y1="114.86655" x2="52.40002" y2="113.10366" stroke="#228B22" stroke-width="0.04000"/>
      <line x1="51.83791" y1="114.84990" x2="50.93706" y2="112.23364" stroke="#228B22" stroke-width="0.04000"/>
      <line x1="51.71755" y1="114.80749" x2="50.81237" y2="112.17867" stroke="#228B22" stroke-width="0.04000"/>
      <line x1="51.59371" y1="114.75500" x2="50.68768" y2="112.12370" stroke="#228B22" stroke-width="0.04000"/>
      <line x1="51.46988" y1="114.70251" x2="50.56200" y2="112.06585" stroke="#228B22" stroke-width="0.04000"/>
      <line x1="53.05490" y1="114.69843" x2="52.53725" y2="113.19507" stroke="#228B22" stroke-width="0.04000"/>
      <line x1="51.34604" y1="114.65003" x2="50.43220" y2="111.99603" stroke="#228B22" stroke-width="0.04000"/>
      <line x1="51.22221" y1="114.59754" x2="50.30240" y2="111.92622" stroke="#228B22" stroke-width="0.04000"/>
      <line x1="51.09837" y1="114.54505" x2="50.17393" y2="111.86029" stroke="#228B22" stroke-width="0.04000"/>
      <line x1="53.10278" y1="114.53030" x2="52.67670" y2="113.29288" stroke="#228B22" stroke-width="0.04000"/>
      <line x1="50.97454" y1="114.49257" x2="50.04897" y2="111.80453" stroke="#228B22" stroke-width="0.04000"/>
      <line x1="50.85401" y1="114.44968" x2="49.92401" y2="111.74877" stroke="#228B22" stroke-width="0.04000"/>
      <line x1="50.73396" y1="114.40821" x2="49.79905" y2="111.69301" stroke="#228B22" stroke-width="0.04000"/>
      <line x1="50.61398" y1="114.36690" x2="49.67409" y2="111.63725" stroke="#228B22" stroke-width="0.04000"/>
      <line x1="53.15065" y1="114.36218" x2="52.84077" y2="113.46222" stroke="#228B22" stroke-width="0.04000"/>
      <line x1="50.49399" y1="114.32558" x2="49.54913" y2="111.58149" stroke="#228B22" stroke-width="0.04000"/>
      <line x1="50.37400" y1="114.28427" x2="49.42239" y2="111.52059" stroke="#228B22" stroke-width="0.04000"/>
      <line x1="50.25290" y1="114.23971" x2="49.29652" y2="111.46217" stroke="#228B22" stroke-width="0.04000"/>
      <line x1="53.19852" y1="114.19406" x2="53.12014" y2="113.96644" stroke="#228B22" stroke-width="0.04000"/>
      <line x1="50.13063" y1="114.19178" x2="49.16831" y2="111.39700" stroke="#228B22" stroke-width="0.04000"/>
      <line x1="50.00837" y1="114.14384" x2="49.03776" y2="111.32500" stroke="#228B22" stroke-width="0.04000"/>
      <line x1="49.88797" y1="114.10134" x2="48.90721" y2="111.25301" stroke="#228B22" stroke-width="0.04000"/>
      <line x1="49.77015" y1="114.06631" x2="48.77666" y2="111.18102" stroke="#228B22" stroke-width="0.04000"/>
      <line x1="49.65251" y1="114.03182" x2="48.64611" y2="111.10902" stroke="#228B22" stroke-width="0.04000"/>
      <line x1="49.53487" y1="113.99733" x2="48.51555" y2="111.03702" stroke="#228B22" stroke-width="0.04000"/>
      <line x1="49.41723" y1="113.96284" x2="48.38943" y2="110.97788" stroke="#228B22" stroke-width="0.04000"/>
      <line x1="49.29959" y1="113.92834" x2="48.26384" y2="110.92028" stroke="#228B22" stroke-width="0.04000"/>
      <line x1="49.18195" y1="113.89384" x2="48.13824" y2="110.86269" stroke="#228B22" stroke-width="0.04000"/>
      <line x1="49.06431" y1="113.85935" x2="48.01264" y2="110.80508" stroke="#228B22" stroke-width="0.04000"/>
      <line x1="48.94913" y1="113.83200" x2="47.87702" y2="110.71836" stroke="#228B22" stroke-width="0.04000"/>
      <line x1="48.83397" y1="113.80470" x2="47.73553" y2="110.61459" stroke="#228B22" stroke-width="0.04000"/>
      <line x1="48.71881" y1="113.77740" x2="47.60480" y2="110.54211" stroke="#228B22" stroke-width="0.04000"/>
      <line x1="48.60365" y1="113.75011" x2="47.47449" y2="110.47080" stroke="#228B22" stroke-width="0.04000"/>
      <line x1="48.48954" y1="113.72586" x2="47.34418" y2="110.39950" stroke="#228B22" stroke-width="0.04000"/>
      <line x1="48.37543" y1="113.70164" x2="47.20925" y2="110.31480" stroke="#228B22" stroke-width="0.04000"/>
      <line x1="48.26133" y1="113.67742" x2="47.07257" y2="110.22501" stroke="#228B22" stroke-width="0.04000"/>
      <line x1="48.14432" y1="113.64473" x2="46.93845" y2="110.14263" stroke="#228B22" stroke-width="0.04000"/>
      <line x1="48.02508" y1="113.60561" x2="46.80818" y2="110.07145" stroke="#228B22" stroke-width="0.04000"/>
      <line x1="47.90585" y1="113.56647" x2="46.67790" y2="110.00027" stroke="#228B22" stroke-width="0.04000"/>
      <line x1="47.78661" y1="113.52735" x2="46.52877" y2="109.87432" stroke="#228B22" stroke-width="0.04000"/>
      <line x1="47.66738" y1="113.48823" x2="46.37828" y2="109.74442" stroke="#228B22" stroke-width="0.04000"/>
      <line x1="47.55055" y1="113.45609" x2="46.22779" y2="109.61452" stroke="#228B22" stroke-width="0.04000"/>
      <line x1="47.43668" y1="113.43253" x2="46.04437" y2="109.38897" stroke="#228B22" stroke-width="0.04000"/>
      <line x1="47.32280" y1="113.40898" x2="45.87954" y2="109.21742" stroke="#228B22" stroke-width="0.04000"/>
      <line x1="47.20893" y1="113.38542" x2="45.71802" y2="109.05550" stroke="#228B22" stroke-width="0.04000"/>
      <line x1="47.08806" y1="113.34154" x2="45.55339" y2="108.88454" stroke="#228B22" stroke-width="0.04000"/>
      <line x1="46.96297" y1="113.28540" x2="45.37255" y2="108.66651" stroke="#228B22" stroke-width="0.04000"/>
      <line x1="46.83788" y1="113.22927" x2="45.19172" y2="108.44848" stroke="#228B22" stroke-width="0.04000"/>
      <line x1="46.71278" y1="113.17313" x2="45.01138" y2="108.23190" stroke="#228B22" stroke-width="0.04000"/>
      <line x1="46.59465" y1="113.13720" x2="44.84032" y2="108.04227" stroke="#228B22" stroke-width="0.04000"/>
      <line x1="46.47802" y1="113.10562" x2="44.67102" y2="107.85772" stroke="#228B22" stroke-width="0.04000"/>
      <line x1="46.36138" y1="113.07404" x2="44.50171" y2="107.67316" stroke="#228B22" stroke-width="0.04000"/>
      <line x1="46.24475" y1="113.04247" x2="44.34170" y2="107.51562" stroke="#228B22" stroke-width="0.04000"/>
      <line x1="46.12804" y1="113.01070" x2="44.19410" y2="107.39412" stroke="#228B22" stroke-width="0.04000"/>
      <line x1="45.99907" y1="112.94328" x2="44.04650" y2="107.27261" stroke="#228B22" stroke-width="0.04000"/>
      <line x1="45.87009" y1="112.87586" x2="43.89890" y2="107.15111" stroke="#228B22" stroke-width="0.04000"/>
      <line x1="45.74174" y1="112.81026" x2="43.76657" y2="107.07395" stroke="#228B22" stroke-width="0.04000"/>
      <line x1="45.61549" y1="112.75075" x2="43.64590" y2="107.03065" stroke="#228B22" stroke-width="0.04000"/>
      <line x1="45.48923" y1="112.69123" x2="43.52820" y2="106.99596" stroke="#228B22" stroke-width="0.04000"/>
      <line x1="45.36201" y1="112.62891" x2="43.41144" y2="106.96405" stroke="#228B22" stroke-width="0.04000"/>
      <line x1="45.23311" y1="112.56171" x2="43.29469" y2="106.93214" stroke="#228B22" stroke-width="0.04000"/>
      <line x1="45.10421" y1="112.49451" x2="43.17794" y2="106.90022" stroke="#228B22" stroke-width="0.04000"/>
      <line x1="44.97531" y1="112.42732" x2="43.06119" y2="106.86831" stroke="#228B22" stroke-width="0.04000"/>
      <line x1="44.84641" y1="112.36012" x2="42.94596" y2="106.84082" stroke="#228B22" stroke-width="0.04000"/>
      <line x1="44.71346" y1="112.28116" x2="42.84686" y2="106.86014" stroke="#228B22" stroke-width="0.04000"/>
      <line x1="44.57899" y1="112.19777" x2="42.74775" y2="106.87946" stroke="#228B22" stroke-width="0.04000"/>
      <line x1="44.43964" y1="112.10023" x2="42.64864" y2="106.89879" stroke="#228B22" stroke-width="0.04000"/>
      <line x1="44.30029" y1="112.00269" x2="42.54882" y2="106.91604" stroke="#228B22" stroke-width="0.04000"/>
      <line x1="44.16095" y1="111.90517" x2="42.44820" y2="106.93099" stroke="#228B22" stroke-width="0.04000"/>
      <line x1="44.02160" y1="111.80764" x2="42.34759" y2="106.94594" stroke="#228B22" stroke-width="0.04000"/>
      <line x1="43.88226" y1="111.71011" x2="42.24697" y2="106.96089" stroke="#228B22" stroke-width="0.04000"/>
      <line x1="43.74003" y1="111.60419" x2="42.14636" y2="106.97584" stroke="#228B22" stroke-width="0.04000"/>
      <line x1="43.59752" y1="111.49747" x2="42.04575" y2="106.99079" stroke="#228B22" stroke-width="0.04000"/>
      <line x1="43.45501" y1="111.39075" x2="41.94513" y2="107.00574" stroke="#228B22" stroke-width="0.04000"/>
      <line x1="43.30836" y1="111.27201" x2="41.84452" y2="107.02069" stroke="#228B22" stroke-width="0.04000"/>
      <line x1="43.15982" y1="111.14777" x2="41.75210" y2="107.05945" stroke="#228B22" stroke-width="0.04000"/>
      <line x1="43.00875" y1="111.01619" x2="41.67274" y2="107.13614" stroke="#228B22" stroke-width="0.04000"/>
      <line x1="42.85666" y1="110.88162" x2="41.59339" y2="107.21284" stroke="#228B22" stroke-width="0.04000"/>
      <line x1="42.70481" y1="110.74780" x2="41.51450" y2="107.29086" stroke="#228B22" stroke-width="0.04000"/>
      <line x1="42.55592" y1="110.62255" x2="41.43790" y2="107.37559" stroke="#228B22" stroke-width="0.04000"/>
      <line x1="42.40704" y1="110.49730" x2="41.36132" y2="107.46031" stroke="#228B22" stroke-width="0.04000"/>
      <line x1="42.24641" y1="110.33794" x2="41.28473" y2="107.54504" stroke="#228B22" stroke-width="0.04000"/>
      <line x1="42.08449" y1="110.17485" x2="41.20814" y2="107.62975" stroke="#228B22" stroke-width="0.04000"/>
      <line x1="41.91562" y1="109.99158" x2="41.13155" y2="107.71449" stroke="#228B22" stroke-width="0.04000"/>
      <line x1="41.74528" y1="109.80405" x2="41.10107" y2="107.93313" stroke="#228B22" stroke-width="0.04000"/>
      <line x1="41.48071" y1="109.34283" x2="41.08820" y2="108.20291" stroke="#228B22" stroke-width="0.04000"/>
      <line x1="41.26863" y1="109.03407" x2="41.07226" y2="108.46376" stroke="#228B22" stroke-width="0.04000"/>
      <line x1="41.05656" y1="108.72531" x2="41.05021" y2="108.70686" stroke="#228B22" stroke-width="0.04000"/>
    </g>
    <g class="thermal-hatch" data-segment="8" data-name="CoreNormalHatch">
      <line x1="32.93340" y1="116.01100" x2="33.41860" y2="116.28260" stroke="#228B22" stroke-width="0.04000"/>
      <line x1="33.41860" y1="116.28260" x2="33.50490" y2="116.41260" stroke="#228B22" stroke-width="0.04000"/>
      <line x1="33.50490" y1="116.41260" x2="33.59970" y2="116.61900" stroke="#228B22" stroke-width="0.04000"/>
      <line x1="33.59970" y1="116.61900" x2="33.87120" y2="117.19020" stroke="#228B22" stroke-width="0.04000"/>
      <line x1="33.87120" y1="117.19020" x2="34.10560" y2="117.76220" stroke="#228B22" stroke-width="0.04000"/>
      <line x1="34.10560" y1="117.76220" x2="34.17820" y2="118.02730" stroke="#228B22" stroke-width="0.04000"/>
      <line x1="34.17820" y1="118.02730" x2="34.32350" y2="118.49450" stroke="#228B22" stroke-width="0.04000"/>
      <line x1="34.32350" y1="118.49450" x2="34.32350" y2="118.49460" stroke="#228B22" stroke-width="0.04000"/>
      <line x1="34.32350" y1="118.49460" x2="34.40880" y2="118.79390" stroke="#228B22" stroke-width="0.04000"/>
      <line x1="34.40880" y1="118.79390" x2="34.47350" y2="119.01990" stroke="#228B22" stroke-width="0.04000"/>
      <line x1="34.47350" y1="119.01990" x2="34.59520" y2="119.57420" stroke="#228B22" stroke-width="0.04000"/>
      <line x1="34.59520" y1="119.57420" x2="34.63680" y2="119.80310" stroke="#228B22" stroke-width="0.04000"/>
      <line x1="34.63680" y1="119.80310" x2="34.80130" y2="120.48800" stroke="#228B22" stroke-width="0.04000"/>
      <line x1="34.80130" y1="120.48800" x2="34.87960" y2="120.88470" stroke="#228B22" stroke-width="0.04000"/>
      <line x1="34.87960" y1="120.88470" x2="35.06990" y2="121.57240" stroke="#228B22" stroke-width="0.04000"/>
      <line x1="35.06990" y1="121.57240" x2="35.14100" y2="122.01490" stroke="#228B22" stroke-width="0.04000"/>
      <line x1="35.14100" y1="122.01490" x2="35.23740" y2="122.47940" stroke="#228B22" stroke-width="0.04000"/>
      <line x1="35.23740" y1="122.47940" x2="35.35180" y2="122.94700" stroke="#228B22" stroke-width="0.04000"/>
      <line x1="35.35180" y1="122.94700" x2="35.38380" y2="123.44080" stroke="#228B22" stroke-width="0.04000"/>
      <line x1="35.38380" y1="123.44080" x2="35.55000" y2="124.46300" stroke="#228B22" stroke-width="0.04000"/>
      <line x1="35.55000" y1="124.46300" x2="35.55160" y2="124.50660" stroke="#228B22" stroke-width="0.04000"/>
      <line x1="35.55160" y1="124.50660" x2="35.56310" y2="124.60050" stroke="#228B22" stroke-width="0.04000"/>
      <line x1="35.56310" y1="124.60050" x2="35.67770" y2="125.47710" stroke="#228B22" stroke-width="0.04000"/>
      <line x1="35.67770" y1="125.47710" x2="35.67770" y2="125.47720" stroke="#228B22" stroke-width="0.04000"/>
      <line x1="35.67770" y1="125.47720" x2="35.76500" y2="126.28230" stroke="#228B22" stroke-width="0.04000"/>
      <line x1="35.76500" y1="126.28230" x2="35.77880" y2="126.51060" stroke="#228B22" stroke-width="0.04000"/>
      <line x1="35.77880" y1="126.51060" x2="35.76870" y2="126.71120" stroke="#228B22" stroke-width="0.04000"/>
      <line x1="35.76870" y1="126.71120" x2="35.74710" y2="127.23990" stroke="#228B22" stroke-width="0.04000"/>
      <line x1="35.74710" y1="127.23990" x2="35.09770" y2="127.24190" stroke="#228B22" stroke-width="0.04000"/>
      <line x1="35.09770" y1="127.24190" x2="35.08630" y2="127.24220" stroke="#228B22" stroke-width="0.04000"/>
      <line x1="35.08630" y1="127.24220" x2="35.06180" y2="127.21660" stroke="#228B22" stroke-width="0.04000"/>
      <line x1="35.06180" y1="127.21660" x2="34.57490" y2="126.69690" stroke="#228B22" stroke-width="0.04000"/>
      <line x1="34.57490" y1="126.69690" x2="34.39320" y2="126.31980" stroke="#228B22" stroke-width="0.04000"/>
      <line x1="34.39320" y1="126.31980" x2="34.15510" y2="125.79760" stroke="#228B22" stroke-width="0.04000"/>
      <line x1="34.15510" y1="125.79760" x2="33.75890" y2="124.90210" stroke="#228B22" stroke-width="0.04000"/>
      <line x1="33.75890" y1="124.90210" x2="33.74890" y2="124.88260" stroke="#228B22" stroke-width="0.04000"/>
      <line x1="33.74890" y1="124.88260" x2="33.74300" y2="124.87250" stroke="#228B22" stroke-width="0.04000"/>
      <line x1="33.74300" y1="124.87250" x2="33.23970" y2="123.92490" stroke="#228B22" stroke-width="0.04000"/>
      <line x1="33.23970" y1="123.92490" x2="32.85190" y2="123.09580" stroke="#228B22" stroke-width="0.04000"/>
      <line x1="32.85190" y1="123.09580" x2="32.79510" y2="123.00560" stroke="#228B22" stroke-width="0.04000"/>
      <line x1="32.79510" y1="123.00560" x2="32.75340" y2="122.94710" stroke="#228B22" stroke-width="0.04000"/>
      <line x1="32.75340" y1="122.94710" x2="32.25270" y2="122.10880" stroke="#228B22" stroke-width="0.04000"/>
      <line x1="32.25270" y1="122.10880" x2="31.80340" y2="121.54810" stroke="#228B22" stroke-width="0.04000"/>
      <line x1="31.80340" y1="121.54810" x2="31.67140" y2="121.35370" stroke="#228B22" stroke-width="0.04000"/>
      <line x1="31.67140" y1="121.35370" x2="31.49830" y2="121.15410" stroke="#228B22" stroke-width="0.04000"/>
      <line x1="31.49830" y1="121.15410" x2="31.05080" y2="120.64940" stroke="#228B22" stroke-width="0.04000"/>
      <line x1="31.05080" y1="120.64940" x2="30.71090" y2="119.91000" stroke="#228B22" stroke-width="0.04000"/>
      <line x1="30.71090" y1="119.91000" x2="30.59740" y2="119.70620" stroke="#228B22" stroke-width="0.04000"/>
      <line x1="30.59740" y1="119.70620" x2="30.59400" y2="119.69820" stroke="#228B22" stroke-width="0.04000"/>
      <line x1="30.59400" y1="119.69820" x2="30.81000" y2="118.93960" stroke="#228B22" stroke-width="0.04000"/>
      <line x1="30.81000" y1="118.93960" x2="30.86960" y2="118.53040" stroke="#228B22" stroke-width="0.04000"/>
      <line x1="30.86960" y1="118.53040" x2="31.14290" y2="117.95520" stroke="#228B22" stroke-width="0.04000"/>
      <line x1="31.14290" y1="117.95520" x2="31.38090" y2="117.28310" stroke="#228B22" stroke-width="0.04000"/>
      <line x1="31.38090" y1="117.28310" x2="31.57440" y2="117.02960" stroke="#228B22" stroke-width="0.04000"/>
      <line x1="31.57440" y1="117.02960" x2="31.99330" y2="116.38720" stroke="#228B22" stroke-width="0.04000"/>
      <line x1="31.99330" y1="116.38720" x2="32.28620" y2="116.23190" stroke="#228B22" stroke-width="0.04000"/>
      <line x1="32.28620" y1="116.23190" x2="32.69300" y2="115.94210" stroke="#228B22" stroke-width="0.04000"/>
      <line x1="32.69300" y1="115.94210" x2="32.93340" y2="116.01100" stroke="#228B22" stroke-width="0.04000"/>
      <line x1="43.53030" y1="107.29710" x2="43.68920" y2="107.35410" stroke="#228B22" stroke-width="0.04000"/>
      <line x1="43.68920" y1="107.35410" x2="44.20530" y2="107.77900" stroke="#228B22" stroke-width="0.04000"/>
      <line x1="44.20530" y1="107.77900" x2="44.76140" y2="108.38510" stroke="#228B22" stroke-width="0.04000"/>
      <line x1="44.76140" y1="108.38510" x2="44.79550" y2="108.42590" stroke="#228B22" stroke-width="0.04000"/>
      <line x1="44.79550" y1="108.42590" x2="44.81980" y2="108.45440" stroke="#228B22" stroke-width="0.04000"/>
      <line x1="44.81980" y1="108.45440" x2="45.36790" y2="109.11510" stroke="#228B22" stroke-width="0.04000"/>
      <line x1="45.36790" y1="109.11510" x2="45.80250" y2="109.55080" stroke="#228B22" stroke-width="0.04000"/>
      <line x1="45.80250" y1="109.55080" x2="46.00620" y2="109.80630" stroke="#228B22" stroke-width="0.04000"/>
      <line x1="46.00620" y1="109.80630" x2="46.50290" y2="110.23530" stroke="#228B22" stroke-width="0.04000"/>
      <line x1="46.50290" y1="110.23530" x2="46.84110" y2="110.41990" stroke="#228B22" stroke-width="0.04000"/>
      <line x1="46.84110" y1="110.41990" x2="47.15890" y2="110.62870" stroke="#228B22" stroke-width="0.04000"/>
      <line x1="47.15890" y1="110.62870" x2="47.57450" y2="110.85600" stroke="#228B22" stroke-width="0.04000"/>
      <line x1="47.57450" y1="110.85600" x2="47.81870" y2="111.03510" stroke="#228B22" stroke-width="0.04000"/>
      <line x1="47.81870" y1="111.03510" x2="48.36990" y2="111.28790" stroke="#228B22" stroke-width="0.04000"/>
      <line x1="48.36990" y1="111.28790" x2="49.12040" y2="111.70170" stroke="#228B22" stroke-width="0.04000"/>
      <line x1="49.12040" y1="111.70170" x2="49.24050" y2="111.75420" stroke="#228B22" stroke-width="0.04000"/>
      <line x1="49.24050" y1="111.75420" x2="49.39040" y2="111.82820" stroke="#228B22" stroke-width="0.04000"/>
      <line x1="49.39040" y1="111.82820" x2="50.07890" y2="112.13530" stroke="#228B22" stroke-width="0.04000"/>
      <line x1="50.07890" y1="112.13530" x2="50.45990" y2="112.34010" stroke="#228B22" stroke-width="0.04000"/>
      <line x1="50.45990" y1="112.34010" x2="50.91540" y2="112.54100" stroke="#228B22" stroke-width="0.04000"/>
      <line x1="50.91540" y1="112.54100" x2="51.52370" y2="112.86960" stroke="#228B22" stroke-width="0.04000"/>
      <line x1="51.52370" y1="112.86960" x2="51.52370" y2="112.86950" stroke="#228B22" stroke-width="0.04000"/>
      <line x1="51.52370" y1="112.86950" x2="51.67460" y2="112.95140" stroke="#228B22" stroke-width="0.04000"/>
      <line x1="51.67460" y1="112.95140" x2="51.95590" y2="113.15650" stroke="#228B22" stroke-width="0.04000"/>
      <line x1="51.95590" y1="113.15650" x2="52.47610" y2="113.50260" stroke="#228B22" stroke-width="0.04000"/>
      <line x1="52.47610" y1="113.50260" x2="52.60940" y2="113.64030" stroke="#228B22" stroke-width="0.04000"/>
      <line x1="52.60940" y1="113.64030" x2="52.90270" y2="114.17280" stroke="#228B22" stroke-width="0.04000"/>
      <line x1="52.90270" y1="114.17280" x2="52.71490" y2="114.83240" stroke="#228B22" stroke-width="0.04000"/>
      <line x1="52.71490" y1="114.83240" x2="52.10890" y2="114.63170" stroke="#228B22" stroke-width="0.04000"/>
      <line x1="52.10890" y1="114.63170" x2="51.85770" y2="114.55180" stroke="#228B22" stroke-width="0.04000"/>
      <line x1="51.85770" y1="114.55180" x2="51.07440" y2="114.21980" stroke="#228B22" stroke-width="0.04000"/>
      <line x1="51.07440" y1="114.21980" x2="50.93360" y2="114.17030" stroke="#228B22" stroke-width="0.04000"/>
      <line x1="50.93360" y1="114.17030" x2="50.41220" y2="113.99060" stroke="#228B22" stroke-width="0.04000"/>
      <line x1="50.41220" y1="113.99060" x2="50.06530" y2="113.85460" stroke="#228B22" stroke-width="0.04000"/>
      <line x1="50.06530" y1="113.85460" x2="49.96230" y2="113.82040" stroke="#228B22" stroke-width="0.04000"/>
      <line x1="49.96230" y1="113.82040" x2="49.13780" y2="113.57870" stroke="#228B22" stroke-width="0.04000"/>
      <line x1="49.13780" y1="113.57870" x2="48.66610" y2="113.46690" stroke="#228B22" stroke-width="0.04000"/>
      <line x1="48.66610" y1="113.46690" x2="48.28780" y2="113.38660" stroke="#228B22" stroke-width="0.04000"/>
      <line x1="48.28780" y1="113.38660" x2="47.67650" y2="113.18600" stroke="#228B22" stroke-width="0.04000"/>
      <line x1="47.67650" y1="113.18600" x2="47.25570" y2="113.09890" stroke="#228B22" stroke-width="0.04000"/>
      <line x1="47.25570" y1="113.09890" x2="46.78840" y2="112.88920" stroke="#228B22" stroke-width="0.04000"/>
      <line x1="46.78840" y1="112.88920" x2="46.23450" y2="112.73920" stroke="#228B22" stroke-width="0.04000"/>
      <line x1="46.23450" y1="112.73920" x2="45.90000" y2="112.56420" stroke="#228B22" stroke-width="0.04000"/>
      <line x1="45.90000" y1="112.56420" x2="45.53900" y2="112.39400" stroke="#228B22" stroke-width="0.04000"/>
      <line x1="45.53900" y1="112.39400" x2="44.96890" y2="112.09670" stroke="#228B22" stroke-width="0.04000"/>
      <line x1="44.96890" y1="112.09670" x2="44.75440" y2="111.96670" stroke="#228B22" stroke-width="0.04000"/>
      <line x1="44.75440" y1="111.96670" x2="44.49560" y2="111.78550" stroke="#228B22" stroke-width="0.04000"/>
      <line x1="44.49560" y1="111.78550" x2="44.03820" y2="111.46540" stroke="#228B22" stroke-width="0.04000"/>
      <line x1="44.03820" y1="111.46540" x2="43.59160" y2="111.13100" stroke="#228B22" stroke-width="0.04000"/>
      <line x1="43.59160" y1="111.13100" x2="43.30750" y2="110.89340" stroke="#228B22" stroke-width="0.04000"/>
      <line x1="43.30750" y1="110.89340" x2="42.90620" y2="110.53840" stroke="#228B22" stroke-width="0.04000"/>
      <line x1="42.90620" y1="110.53840" x2="42.59010" y2="110.27220" stroke="#228B22" stroke-width="0.04000"/>
      <line x1="42.59010" y1="110.27220" x2="42.26280" y2="109.94270" stroke="#228B22" stroke-width="0.04000"/>
      <line x1="42.26280" y1="109.94270" x2="41.95970" y2="109.60890" stroke="#228B22" stroke-width="0.04000"/>
      <line x1="41.95970" y1="109.60890" x2="41.83650" y2="109.34850" stroke="#228B22" stroke-width="0.04000"/>
      <line x1="41.83650" y1="109.34850" x2="41.34760" y2="108.63690" stroke="#228B22" stroke-width="0.04000"/>
      <line x1="41.34760" y1="108.63690" x2="41.36900" y2="108.40240" stroke="#228B22" stroke-width="0.04000"/>
      <line x1="41.36900" y1="108.40240" x2="41.39490" y2="107.85540" stroke="#228B22" stroke-width="0.04000"/>
      <line x1="41.39490" y1="107.85540" x2="41.73680" y2="107.47730" stroke="#228B22" stroke-width="0.04000"/>
      <line x1="41.73680" y1="107.47730" x2="41.91730" y2="107.30280" stroke="#228B22" stroke-width="0.04000"/>
      <line x1="41.91730" y1="107.30280" x2="42.64550" y2="107.19490" stroke="#228B22" stroke-width="0.04000"/>
      <line x1="42.64550" y1="107.19490" x2="42.94310" y2="107.13660" stroke="#228B22" stroke-width="0.04000"/>
      <line x1="42.94310" y1="107.13660" x2="43.53030" y2="107.29710" stroke="#228B22" stroke-width="0.04000"/>
    </g>
    <g class="thermal-contour" data-segment="1" data-name="CoreContour_Volume">
    <path d="M 33.0463 115.742 L 33.6216 116.064 L 33.7593 116.271 L 33.8624 116.496 L 34.1361 117.071 L 34.3809 117.669 L 34.4566 117.946 L 34.6011 118.411 L 34.6875 118.714 L 34.7553 118.95 L 34.8793 119.515 L 34.9207 119.743 L 35.085 120.427 L 35.162 120.818 L 35.3538 121.51 L 35.4263 121.962 L 35.5204 122.416 L 35.6397 122.904 L 35.6723 123.408 L 35.8392 124.434 L 35.841 124.484 L 35.8508 124.564 L 35.9656 125.442 L 36.0539 126.256 L 36.0694 126.511 L 36.0583 126.725 L 36.0257 127.529 L 35.1032 127.532 L 34.9666 127.537 L 34.8476 127.412 L 34.3332 126.863 L 34.1319 126.446 L 33.8907 125.917 L 33.4972 125.027 L 33.4937 125.021 L 33.49 125.014 L 32.9798 124.054 L 32.5968 123.235 L 32.5541 123.167 L 32.5098 123.105 L 32.014 122.275 L 31.5697 121.72 L 31.4411 121.531 L 31.2802 121.345 L 30.8049 120.809 L 30.452 120.041 L 30.3367 119.834 L 30.2869 119.718 L 30.5258 118.879 L 30.5889 118.446 L 30.8746 117.844 L 31.1227 117.144 L 31.3374 116.862 L 31.7914 116.166 L 32.1334 115.985 L 32.6386 115.625 L 33.0463 115.742" fill="none" stroke="#000000" stroke-width="0.05000" fill-rule="evenodd" fill-opacity="1.000"/>
    </g>
    <g class="thermal-contour" data-segment="1" data-name="CoreContour_Volume">
    <path d="M 43.6165 107.02 L 43.835 107.099 L 44.4049 107.568 L 44.9809 108.196 L 45.0172 108.239 L 45.0451 108.272 L 45.5825 108.92 L 46.0194 109.358 L 46.2162 109.604 L 46.6691 109.995 L 46.9903 110.171 L 47.3083 110.38 L 47.7304 110.611 L 47.9663 110.784 L 48.5016 111.029 L 49.2486 111.441 L 49.3614 111.49 L 49.5137 111.566 L 50.2084 111.876 L 50.5872 112.079 L 51.0435 112.281 L 51.7078 112.64 L 51.7078 112.64 L 51.8297 112.706 L 52.1218 112.918 L 52.6632 113.279 L 52.8447 113.466 L 53.2145 114.138 L 52.9246 115.156 L 52.8562 115.185 L 52.0193 114.907 L 51.757 114.824 L 50.9695 114.49 L 50.8382 114.444 L 50.3129 114.263 L 49.9667 114.128 L 49.8758 114.097 L 49.0635 113.859 L 48.6026 113.75 L 48.2121 113.667 L 47.6017 113.467 L 47.1661 113.377 L 46.6906 113.163 L 46.1287 113.011 L 45.7709 112.824 L 45.4091 112.653 L 44.8255 112.349 L 44.5974 112.211 L 44.3294 112.023 L 44.3294 112.023 L 43.8702 111.702 L 43.4102 111.357 L 43.1166 111.112 L 42.7168 110.758 L 42.3923 110.485 L 42.0562 110.146 L 41.7158 109.772 L 41.5842 109.493 L 41.0495 108.715 L 41.0796 108.382 L 41.1104 107.738 L 41.5272 107.277 L 41.7827 107.03 L 42.5964 106.909 L 42.9545 106.839 L 43.6165 107.02" fill="none" stroke="#000000" stroke-width="0.05000" fill-rule="evenodd" fill-opacity="1.000"/>
    </g>
    <g class="thermal-contour" data-segment="1" data-name="CoreContour_Volume">
    <path d="M 32.9683 115.927 L 33.4817 116.215 L 33.5837 116.368 L 33.6812 116.581 L 33.9537 117.154 L 34.191 117.733 L 34.2646 118.002 L 34.4101 118.47 L 34.4953 118.769 L 34.5609 118.998 L 34.6831 119.555 L 34.7249 119.785 L 34.8894 120.469 L 34.9672 120.864 L 35.1582 121.554 L 35.2295 121.999 L 35.3252 122.46 L 35.4411 122.933 L 35.4733 123.431 L 35.6398 124.454 L 35.6414 124.499 L 35.6524 124.589 L 35.7672 125.467 L 35.8545 126.273 L 35.869 126.511 L 35.8586 126.715 L 35.8335 127.33 L 35.0994 127.332 L 35.0491 127.334 L 34.9967 127.279 L 34.4998 126.748 L 34.3121 126.359 L 34.0732 125.835 L 33.6776 124.941 L 33.6697 124.925 L 33.6641 124.916 L 33.1596 123.966 L 32.7727 123.139 L 32.7203 123.056 L 32.6776 122.996 L 32.1786 122.16 L 31.7311 121.602 L 31.5999 121.409 L 31.4306 121.213 L 30.9745 120.699 L 30.6306 119.951 L 30.5165 119.746 L 30.4987 119.704 L 30.7218 118.921 L 30.7825 118.504 L 31.0596 117.921 L 31.3009 117.24 L 31.5008 116.978 L 31.9306 116.319 L 32.2388 116.155 L 32.6762 115.844 L 32.9683 115.927" fill="none" stroke="#000000" stroke-width="0.05000" fill-rule="evenodd" fill-opacity="1.000"/>
    <path d="M 32.2862 116.232 L 31.9933 116.387 L 31.5744 117.03 L 31.3809 117.283 L 31.1429 117.955 L 30.8696 118.53 L 30.81 118.94 L 30.594 119.698 L 30.5974 119.706 L 30.7109 119.91 L 31.0508 120.649 L 31.4983 121.154 L 31.6714 121.354 L 31.8034 121.548 L 32.2527 122.109 L 32.7534 122.947 L 32.7951 123.006 L 32.8519 123.096 L 33.2397 123.925 L 33.743 124.872 L 33.7489 124.883 L 33.7589 124.902 L 34.1551 125.798 L 34.3932 126.32 L 34.5749 126.697 L 35.0618 127.217 L 35.0863 127.242 L 35.0977 127.242 L 35.7471 127.24 L 35.7687 126.711 L 35.7788 126.511 L 35.765 126.282 L 35.6777 125.477 L 35.6777 125.477 L 35.5631 124.601 L 35.5516 124.507 L 35.55 124.463 L 35.3838 123.441 L 35.3518 122.947 L 35.2374 122.479 L 35.141 122.015 L 35.0699 121.572 L 34.8796 120.885 L 34.8013 120.488 L 34.6368 119.803 L 34.5952 119.574 L 34.4735 119.02 L 34.4088 118.794 L 34.3235 118.495 L 34.3235 118.494 L 34.1782 118.027 L 34.1056 117.762 L 33.8712 117.19 L 33.5997 116.619 L 33.5049 116.413 L 33.4186 116.283 L 32.9334 116.011 L 32.693 115.942 L 32.2862 116.232" fill="none" stroke="#000000" stroke-width="0.05000" fill-rule="evenodd" fill-opacity="1.000"/>
    <path d="M 43.5576 107.211 L 43.7344 107.275 L 44.2671 107.713 L 44.8299 108.327 L 44.8643 108.368 L 44.8919 108.4 L 44.8919 108.4 L 45.4345 109.054 L 45.8698 109.491 L 46.0714 109.744 L 46.5545 110.161 L 46.8873 110.343 L 47.2053 110.551 L 47.6228 110.78 L 47.8645 110.957 L 48.4108 111.208 L 49.1602 111.621 L 49.2779 111.672 L 49.4287 111.747 L 50.1186 112.054 L 50.4994 112.259 L 50.9549 112.46 L 51.5665 112.79 L 51.7227 112.875 L 52.0074 113.083 L 52.5342 113.433 L 52.6823 113.586 L 52.9995 114.162 L 52.7957 114.878 L 52.6937 114.92 L 52.0811 114.717 L 51.8266 114.636 L 51.0419 114.304 L 50.904 114.255 L 50.3814 114.075 L 50.0347 113.939 L 49.9354 113.906 L 49.1147 113.666 L 48.6464 113.555 L 48.2641 113.474 L 47.6533 113.273 L 47.2277 113.185 L 46.758 112.974 L 46.2019 112.824 L 45.8599 112.645 L 45.4993 112.475 L 44.9239 112.175 L 44.7064 112.043 L 44.444 111.859 L 43.9866 111.539 L 43.5357 111.201 L 43.2482 110.961 L 42.8474 110.606 L 42.5289 110.338 L 42.1982 110.005 L 41.884 109.659 L 41.7582 109.394 L 41.2551 108.661 L 41.2792 108.396 L 41.3066 107.819 L 41.6718 107.415 L 41.8755 107.218 L 42.6302 107.106 L 42.9465 107.044 L 43.5576 107.211" fill="none" stroke="#000000" stroke-width="0.05000" fill-rule="evenodd" fill-opacity="1.000"/>
    <path d="M 42.6455 107.195 L 41.9173 107.303 L 41.7368 107.477 L 41.3949 107.855 L 41.369 108.402 L 41.3476 108.637 L 41.8365 109.349 L 41.9597 109.609 L 42.2628 109.943 L 42.5901 110.272 L 42.9062 110.538 L 43.3075 110.893 L 43.5916 111.131 L 44.0382 111.465 L 44.4956 111.785 L 44.7544 111.967 L 44.9689 112.097 L 45.539 112.394 L 45.9 112.564 L 46.2345 112.739 L 46.7884 112.889 L 47.2557 113.099 L 47.6765 113.186 L 48.2878 113.387 L 48.6661 113.467 L 49.1378 113.579 L 49.9623 113.82 L 50.0653 113.855 L 50.4122 113.991 L 50.9336 114.17 L 51.0744 114.22 L 51.8577 114.552 L 52.1089 114.632 L 52.7149 114.832 L 52.9027 114.173 L 52.6094 113.64 L 52.4761 113.503 L 51.9559 113.157 L 51.6746 112.951 L 51.5237 112.869 L 51.5237 112.87 L 50.9154 112.541 L 50.4599 112.34 L 50.0789 112.135 L 49.3904 111.828 L 49.2405 111.754 L 49.1204 111.702 L 48.3699 111.288 L 47.8187 111.035 L 47.5745 110.856 L 47.1589 110.629 L 46.8411 110.42 L 46.5029 110.235 L 46.0062 109.806 L 45.8025 109.551 L 45.3679 109.115 L 44.8198 108.454 L 44.7955 108.426 L 44.7614 108.385 L 44.2053 107.779 L 43.6892 107.354 L 43.5303 107.297 L 42.9431 107.137 L 42.6455 107.195" fill="none" stroke="#000000" stroke-width="0.05000" fill-rule="evenodd" fill-opacity="1.000"/>
    </g>
    <g class="thermal-contour" data-segment="2" data-name="CoreContour_Overhang">
    <path d="M 52.7758 114.947 L 52.6937 114.92 L 52.7957 114.878 L 52.7758 114.947" fill="none" stroke="#8B0000" stroke-width="0.05000" fill-rule="evenodd" fill-opacity="1.000"/>
    </g>
    <g class="thermal-contour" data-segment="3" data-name="HollowShell1Contour_Volume">
    <path d="M 33.0463 115.742 L 33.6216 116.064 L 33.7593 116.271 L 33.8624 116.496 L 34.1361 117.071 L 34.3809 117.669 L 34.4566 117.946 L 34.6011 118.411 L 34.6875 118.714 L 34.7553 118.95 L 34.8793 119.516 L 34.9207 119.743 L 35.085 120.427 L 35.162 120.818 L 35.3538 121.51 L 35.4263 121.962 L 35.5204 122.416 L 35.6397 122.904 L 35.6723 123.408 L 35.8373 124.422 L 35.8396 124.483 L 35.9023 125 L 35.9585 125.429 L 36.0016 125.827 L 36.0407 126.466 L 36.0128 127.004 L 35.9938 127.471 L 35.4574 127.473 L 34.9569 127.491 L 34.521 127.034 L 34.3257 126.826 L 34.2494 126.667 L 33.8897 125.879 L 33.5965 125.216 L 33.4986 124.968 L 33.324 124.58 L 33.017 124.002 L 32.7487 123.428 L 32.6005 123.103 L 32.5161 122.921 L 32.5937 123.05 L 32.6372 123.111 L 32.6848 123.187 L 33.0697 124.01 L 33.5772 124.965 L 33.5817 124.973 L 33.5873 124.984 L 33.9822 125.876 L 34.222 126.402 L 34.4165 126.806 L 34.9206 127.344 L 34.9205 127.344 L 35.0078 127.435 L 35.1013 127.432 L 35.9296 127.429 L 35.9585 126.72 L 35.9692 126.511 L 35.9542 126.264 L 35.8664 125.454 L 35.7516 124.577 L 35.7412 124.492 L 35.7395 124.444 L 35.5728 123.419 L 35.5404 122.919 L 35.4228 122.438 L 35.3279 121.98 L 35.256 121.532 L 35.0646 120.841 L 34.9872 120.448 L 34.8228 119.764 L 34.7812 119.535 L 34.6581 118.974 L 34.5914 118.742 L 34.5056 118.44 L 34.3606 117.974 L 34.2858 117.701 L 34.0449 117.113 L 33.7718 116.539 L 33.6715 116.32 L 33.5517 116.139 L 33.0072 115.835 L 32.6574 115.734 L 32.1861 116.07 L 31.8609 116.243 L 31.4191 116.92 L 31.2118 117.192 L 30.9671 117.883 L 30.6857 118.475 L 30.6238 118.9 L 30.4114 119.646 L 30.3488 119.5 L 30.5258 118.879 L 30.5889 118.446 L 30.8746 117.844 L 31.1227 117.144 L 31.3374 116.862 L 31.7914 116.166 L 32.1334 115.985 L 32.6386 115.625 L 33.0463 115.742" fill="none" stroke="#0000CC" stroke-width="0.05000" fill-rule="evenodd" fill-opacity="1.000"/>
    <path d="M 43.6165 107.02 L 43.7776 107.078 L 43.8008 107.099 L 44.3746 107.572 L 44.7166 107.944 L 44.974 108.252 L 45.171 108.484 L 45.5354 108.923 L 46.1135 109.503 L 46.1674 109.57 L 46.2914 109.677 L 46.3159 109.691 L 46.6691 109.995 L 46.9903 110.171 L 47.3083 110.38 L 47.7304 110.611 L 47.9663 110.784 L 48.5016 111.029 L 49.2486 111.441 L 49.3614 111.491 L 49.5137 111.566 L 50.2084 111.876 L 50.5872 112.079 L 51.0435 112.281 L 51.7078 112.64 L 51.8297 112.706 L 52.1218 112.918 L 52.6632 113.279 L 52.8447 113.466 L 53.2145 114.138 L 53.032 114.779 L 52.9138 114.828 L 53.107 114.15 L 52.7635 113.526 L 52.5987 113.356 L 52.0646 113.001 L 51.7762 112.79 L 51.6601 112.727 L 51.6601 112.727 L 50.9992 112.37 L 50.5433 112.169 L 50.1637 111.965 L 49.4712 111.656 L 49.3192 111.581 L 49.2044 111.531 L 48.4562 111.118 L 47.9154 110.87 L 47.6768 110.695 L 47.2568 110.466 L 46.9388 110.257 L 46.6118 110.078 L 46.1438 109.674 L 45.9446 109.424 L 45.5085 108.987 L 44.9689 108.337 L 44.9408 108.303 L 44.9054 108.261 L 44.336 107.641 L 43.7847 107.187 L 43.5871 107.116 L 42.9505 106.942 L 42.6133 107.008 L 41.8291 107.124 L 41.5995 107.346 L 41.2085 107.778 L 41.1794 108.389 L 41.1523 108.688 L 41.6712 109.443 L 41.7999 109.715 L 42.1272 110.076 L 42.4606 110.412 L 42.7821 110.682 L 43.1829 111.037 L 43.4725 111.279 L 43.9284 111.62 L 44.3867 111.941 L 44.6519 112.127 L 44.8747 112.262 L 45.4552 112.565 L 45.8154 112.734 L 46.1653 112.917 L 46.7243 113.069 L 47.1969 113.281 L 47.6275 113.37 L 48.2381 113.57 L 48.6245 113.652 L 48.6639 113.662 L 48.0918 113.54 L 47.6834 113.406 L 47.0159 113.268 L 46.7732 113.159 L 46.024 112.956 L 45.7709 112.824 L 45.4091 112.653 L 44.8255 112.349 L 44.5974 112.211 L 44.3294 112.023 L 43.8702 111.702 L 43.4102 111.357 L 43.1166 111.112 L 42.7168 110.758 L 42.3923 110.485 L 42.0562 110.146 L 41.7158 109.772 L 41.5842 109.493 L 41.0495 108.715 L 41.0796 108.382 L 41.1104 107.738 L 41.5272 107.277 L 41.7827 107.03 L 42.5964 106.909 L 42.9545 106.839 L 43.6165 107.02" fill="none" stroke="#0000CC" stroke-width="0.05000" fill-rule="evenodd" fill-opacity="1.000"/>
    </g>
    <g class="thermal-contour" data-segment="4" data-name="HollowShell1Contour_Overhang">
    <path d="M 30.4114 119.646 L 30.3928 119.711 L 30.4266 119.79 L 30.5413 119.996 L 30.8897 120.754 L 31.3554 121.279 L 31.5205 121.47 L 31.6504 121.661 L 32.0963 122.217 L 32.5161 122.921 L 32.6005 123.103 L 32.7487 123.428 L 33.017 124.002 L 33.324 124.58 L 33.4986 124.968 L 33.5965 125.216 L 33.8897 125.879 L 34.2494 126.667 L 34.3257 126.826 L 34.521 127.034 L 34.9569 127.491 L 35.4574 127.473 L 35.9938 127.471 L 36.0128 127.004 L 36.0407 126.466 L 36.0016 125.827 L 35.9585 125.429 L 35.9023 125 L 35.8396 124.483 L 35.8373 124.422 L 35.8392 124.434 L 35.841 124.484 L 35.8508 124.564 L 35.9656 125.441 L 36.0539 126.256 L 36.0694 126.511 L 36.0584 126.725 L 36.0257 127.529 L 35.1032 127.532 L 34.9666 127.537 L 34.8476 127.412 L 34.3332 126.863 L 34.1319 126.446 L 33.8907 125.917 L 33.4972 125.027 L 33.4937 125.021 L 33.49 125.014 L 32.9798 124.054 L 32.5968 123.235 L 32.5541 123.167 L 32.5098 123.105 L 32.014 122.275 L 31.5697 121.72 L 31.4411 121.531 L 31.2802 121.345 L 30.8049 120.809 L 30.452 120.041 L 30.3367 119.834 L 30.2869 119.718 L 30.3488 119.5 L 30.4114 119.646" fill="none" stroke="#000080" stroke-width="0.05000" fill-rule="evenodd" fill-opacity="1.000"/>
    <path d="M 46.7732 113.159 L 47.0159 113.268 L 47.6834 113.406 L 48.0918 113.54 L 48.6639 113.662 L 49.0891 113.762 L 49.9056 114.002 L 50.0007 114.033 L 50.3461 114.169 L 50.8711 114.35 L 51.0057 114.397 L 51.7918 114.73 L 52.0502 114.812 L 52.8435 115.075 L 52.9138 114.828 L 53.032 114.779 L 52.9872 114.936 L 52.9246 115.156 L 52.8562 115.185 L 52.0193 114.908 L 51.757 114.824 L 50.9695 114.49 L 50.8382 114.444 L 50.3129 114.263 L 49.9667 114.128 L 49.8758 114.097 L 49.0635 113.859 L 48.6026 113.75 L 48.2121 113.667 L 47.6017 113.467 L 47.1661 113.377 L 46.6906 113.163 L 46.1287 113.011 L 46.1084 113.001 L 46.024 112.956 L 46.7732 113.159" fill="none" stroke="#000080" stroke-width="0.05000" fill-rule="evenodd" fill-opacity="1.000"/>
    <path d="M 43.835 107.099 L 44.4049 107.568 L 44.9809 108.196 L 45.0172 108.239 L 45.0451 108.272 L 45.5825 108.92 L 46.0194 109.358 L 46.2162 109.604 L 46.3159 109.691 L 46.2914 109.677 L 46.1674 109.57 L 46.1135 109.503 L 45.5354 108.923 L 45.171 108.484 L 44.974 108.252 L 44.7166 107.944 L 44.3746 107.572 L 43.8008 107.099 L 43.7776 107.078 L 43.835 107.099" fill="none" stroke="#000080" stroke-width="0.05000" fill-rule="evenodd" fill-opacity="1.000"/>
    </g>
    <g class="thermal-contour" data-segment="5" data-name="HollowShell2Contour_Volume">
    <path d="M 33.0072 115.835 L 33.5517 116.139 L 33.6715 116.32 L 33.7718 116.539 L 34.0449 117.113 L 34.2858 117.701 L 34.3606 117.974 L 34.5056 118.44 L 34.5914 118.742 L 34.6581 118.974 L 34.7812 119.535 L 34.8228 119.764 L 34.9872 120.448 L 35.0646 120.841 L 35.256 121.532 L 35.3279 121.98 L 35.4228 122.438 L 35.5404 122.919 L 35.5728 123.419 L 35.7395 124.444 L 35.7412 124.492 L 35.7516 124.577 L 35.8664 125.454 L 35.9542 126.264 L 35.9692 126.511 L 35.9585 126.72 L 35.9296 127.429 L 35.1013 127.432 L 35.0078 127.435 L 34.9205 127.344 L 34.9206 127.344 L 34.4165 126.806 L 34.222 126.402 L 33.9822 125.876 L 33.5873 124.984 L 33.5817 124.973 L 33.5772 124.965 L 33.0697 124.01 L 32.6848 123.187 L 32.6372 123.111 L 32.5937 123.05 L 32.5161 122.921 L 32.353 122.568 L 32.1209 122.18 L 31.9517 121.968 L 31.5724 121.411 L 31.0982 120.864 L 30.9623 120.71 L 30.8613 120.491 L 30.4783 119.801 L 30.4114 119.646 L 30.6238 118.9 L 30.6857 118.475 L 30.9671 117.883 L 31.2118 117.192 L 31.4191 116.92 L 31.8609 116.243 L 32.1861 116.07 L 32.6574 115.734 L 33.0072 115.835" fill="none" stroke="#B8860B" stroke-width="0.05000" fill-rule="evenodd" fill-opacity="1.000"/>
    <path d="M 32.2388 116.155 L 31.9306 116.319 L 31.5008 116.978 L 31.3009 117.24 L 31.0596 117.921 L 30.7825 118.504 L 30.7218 118.921 L 30.4987 119.704 L 30.5165 119.746 L 30.6306 119.951 L 30.9745 120.699 L 31.4306 121.213 L 31.5999 121.409 L 31.7311 121.602 L 32.1786 122.16 L 32.6776 122.996 L 32.7203 123.056 L 32.7727 123.139 L 33.1596 123.966 L 33.6641 124.916 L 33.6697 124.925 L 33.6776 124.941 L 34.0732 125.835 L 34.3121 126.359 L 34.4998 126.748 L 34.9967 127.279 L 35.0491 127.334 L 35.0994 127.332 L 35.8335 127.33 L 35.8586 126.715 L 35.869 126.511 L 35.8545 126.273 L 35.7672 125.467 L 35.6524 124.589 L 35.6414 124.499 L 35.6398 124.454 L 35.4733 123.431 L 35.4411 122.933 L 35.3252 122.46 L 35.2295 121.999 L 35.1582 121.554 L 34.9672 120.864 L 34.8894 120.469 L 34.7249 119.785 L 34.6831 119.555 L 34.5609 118.998 L 34.4953 118.769 L 34.4101 118.47 L 34.2646 118.002 L 34.191 117.733 L 33.9537 117.154 L 33.6812 116.581 L 33.5837 116.368 L 33.4817 116.215 L 32.9683 115.927 L 32.6762 115.844 L 32.2388 116.155" fill="none" stroke="#B8860B" stroke-width="0.05000" fill-rule="evenodd" fill-opacity="1.000"/>
    <path d="M 43.5871 107.116 L 43.7847 107.187 L 44.336 107.641 L 44.9054 108.261 L 44.9408 108.303 L 44.9689 108.337 L 45.5085 108.987 L 45.9446 109.424 L 46.1438 109.674 L 46.6118 110.078 L 46.9388 110.257 L 47.2568 110.466 L 47.6768 110.695 L 47.9154 110.87 L 48.4562 111.118 L 49.2044 111.531 L 49.3192 111.581 L 49.4712 111.656 L 50.1637 111.965 L 50.5433 112.169 L 50.9992 112.37 L 51.6601 112.727 L 51.6601 112.727 L 51.7762 112.79 L 52.0646 113.001 L 52.5987 113.356 L 52.7635 113.526 L 53.107 114.15 L 52.9138 114.828 L 52.7957 114.878 L 52.9995 114.162 L 52.6823 113.586 L 52.5342 113.433 L 52.0074 113.083 L 51.7227 112.875 L 51.5665 112.79 L 50.9549 112.46 L 50.4994 112.259 L 50.1186 112.054 L 49.4287 111.747 L 49.2779 111.672 L 49.1602 111.621 L 48.4108 111.208 L 47.8645 110.957 L 47.6228 110.78 L 47.2053 110.551 L 46.8873 110.343 L 46.5545 110.161 L 46.0714 109.744 L 45.8698 109.491 L 45.4345 109.054 L 44.8919 108.4 L 44.8919 108.4 L 44.8643 108.368 L 44.8299 108.327 L 44.2671 107.713 L 43.7344 107.275 L 43.5576 107.211 L 42.9465 107.044 L 42.6302 107.106 L 41.8755 107.218 L 41.6718 107.415 L 41.3066 107.819 L 41.2792 108.396 L 41.2551 108.661 L 41.7582 109.394 L 41.884 109.659 L 42.1982 110.005 L 42.5289 110.338 L 42.8474 110.606 L 43.2482 110.961 L 43.5357 111.201 L 43.9866 111.539 L 44.444 111.859 L 44.7064 112.043 L 44.9239 112.175 L 45.4993 112.475 L 45.8599 112.645 L 46.2019 112.824 L 46.758 112.974 L 47.2277 113.185 L 47.6533 113.273 L 48.2641 113.474 L 48.6464 113.555 L 49.1147 113.666 L 49.9354 113.906 L 50.0347 113.939 L 50.3814 114.075 L 50.904 114.255 L 51.0419 114.304 L 51.8266 114.636 L 52.0811 114.717 L 52.6937 114.92 L 52.6559 114.936 L 52.1926 114.783 L 51.6973 114.625 L 51.1736 114.404 L 50.807 114.274 L 50.1024 114.031 L 49.9367 113.986 L 49.5552 113.898 L 49.0386 113.746 L 48.8272 113.696 L 48.6639 113.662 L 48.6245 113.652 L 48.2381 113.57 L 47.6275 113.37 L 47.1969 113.281 L 46.7243 113.069 L 46.1653 112.917 L 45.8154 112.734 L 45.4552 112.565 L 44.8747 112.262 L 44.6519 112.127 L 44.3867 111.941 L 43.9284 111.62 L 43.4725 111.279 L 43.1829 111.037 L 42.7821 110.682 L 42.4606 110.412 L 42.1272 110.076 L 41.7999 109.715 L 41.6712 109.443 L 41.1523 108.688 L 41.1794 108.389 L 41.2085 107.778 L 41.5995 107.346 L 41.8291 107.124 L 42.6133 107.008 L 42.9505 106.942 L 43.5871 107.116" fill="none" stroke="#B8860B" stroke-width="0.05000" fill-rule="evenodd" fill-opacity="1.000"/>
    </g>
    <g class="thermal-contour" data-segment="6" data-name="HollowShell2Contour_Overhang">
    <path d="M 30.4783 119.801 L 30.8613 120.491 L 30.9623 120.71 L 31.0982 120.864 L 31.5724 121.411 L 31.9517 121.968 L 32.1209 122.18 L 32.353 122.568 L 32.5161 122.921 L 32.0963 122.217 L 31.6504 121.661 L 31.5205 121.47 L 31.3554 121.279 L 30.8897 120.754 L 30.5413 119.996 L 30.4266 119.79 L 30.3928 119.711 L 30.4114 119.646 L 30.4783 119.801" fill="none" stroke="#006400" stroke-width="0.05000" fill-rule="evenodd" fill-opacity="1.000"/>
    <path d="M 48.8272 113.696 L 49.0386 113.746 L 49.5552 113.898 L 49.9367 113.986 L 50.1024 114.031 L 50.807 114.274 L 51.1736 114.404 L 51.6973 114.625 L 52.1926 114.783 L 52.6559 114.936 L 52.6937 114.92 L 52.7758 114.947 L 52.7957 114.878 L 52.9138 114.828 L 52.8435 115.075 L 52.0502 114.812 L 51.7918 114.73 L 51.0057 114.397 L 50.8711 114.35 L 50.3461 114.169 L 50.0007 114.033 L 49.9056 114.002 L 49.0891 113.762 L 48.6639 113.662 L 48.8272 113.696" fill="none" stroke="#006400" stroke-width="0.05000" fill-rule="evenodd" fill-opacity="1.000"/>
    </g>
    <g class="thermal-contour" data-segment="9" data-name="CoreContourHatch">
    <path d="M 32.9439 115.986 L 33.4375 116.262 L 33.5286 116.399 L 33.6241 116.607 L 33.8959 117.179 L 34.1312 117.754 L 34.204 118.019 L 34.3505 118.49 L 34.3505 118.491 L 34.4348 118.786 L 34.4997 119.013 L 34.6217 119.569 L 34.6631 119.797 L 34.8277 120.482 L 34.9059 120.879 L 35.0963 121.567 L 35.1677 122.011 L 35.1676 122.011 L 35.2636 122.473 L 35.3786 122.943 L 35.4105 123.437 L 35.5769 124.46 L 35.5785 124.505 L 35.5899 124.597 L 35.7047 125.475 L 35.7047 125.476 L 35.7919 126.28 L 35.8058 126.51 L 35.7957 126.713 L 35.773 127.267 L 35.0983 127.269 L 35.0984 127.269 L 35.0751 127.27 L 35.0422 127.235 L 34.5524 126.712 L 34.3688 126.331 L 34.1305 125.809 L 33.7342 124.913 L 33.7256 124.896 L 33.7194 124.886 L 33.2155 123.937 L 32.8279 123.108 L 32.7731 123.021 L 32.7308 122.962 L 32.2306 122.124 L 31.7817 121.564 L 31.65 121.37 L 31.4779 121.172 L 31.4779 121.172 L 31.0279 120.664 L 30.6868 119.922 L 30.5731 119.718 L 30.5654 119.7 L 30.7836 118.934 L 30.8435 118.522 L 31.1177 117.945 L 31.3569 117.27 L 31.5529 117.013 L 31.9745 116.367 L 32.2719 116.209 L 32.6879 115.913 L 32.9439 115.986" fill="none" stroke="#800080" stroke-width="0.05000" fill-rule="evenodd" fill-opacity="1.000"/>
    <path d="M 32.2862 116.232 L 31.9933 116.387 L 31.5744 117.03 L 31.3809 117.283 L 31.1429 117.955 L 30.8696 118.53 L 30.81 118.94 L 30.594 119.698 L 30.5974 119.706 L 30.7109 119.91 L 31.0508 120.649 L 31.4983 121.154 L 31.6714 121.354 L 31.8034 121.548 L 32.2527 122.109 L 32.7534 122.947 L 32.7951 123.006 L 32.8519 123.096 L 33.2397 123.925 L 33.743 124.872 L 33.7489 124.883 L 33.7589 124.902 L 34.1551 125.798 L 34.3932 126.32 L 34.5749 126.697 L 35.0618 127.217 L 35.0863 127.242 L 35.0977 127.242 L 35.7471 127.24 L 35.7687 126.711 L 35.7788 126.511 L 35.765 126.282 L 35.6777 125.477 L 35.6777 125.477 L 35.5631 124.601 L 35.5516 124.507 L 35.55 124.463 L 35.3838 123.441 L 35.3518 122.947 L 35.2374 122.479 L 35.141 122.015 L 35.0699 121.572 L 34.8796 120.885 L 34.8013 120.488 L 34.6368 119.803 L 34.5952 119.574 L 34.4735 119.02 L 34.4088 118.794 L 34.3235 118.495 L 34.3235 118.494 L 34.1782 118.027 L 34.1056 117.762 L 33.8712 117.19 L 33.5997 116.619 L 33.5049 116.413 L 33.4186 116.283 L 32.9334 116.011 L 32.693 115.942 L 32.2862 116.232" fill="none" stroke="#800080" stroke-width="0.05000" fill-rule="evenodd" fill-opacity="1.000"/>
    <path d="M 43.5384 107.271 L 43.7027 107.33 L 44.2239 107.759 L 44.7817 108.367 L 44.816 108.408 L 44.8405 108.437 L 45.3877 109.097 L 45.8227 109.533 L 46.0258 109.788 L 46.5181 110.213 L 46.855 110.397 L 47.1726 110.605 L 47.589 110.833 L 47.8327 111.012 L 48.3821 111.264 L 49.1321 111.677 L 49.2519 111.73 L 49.4014 111.803 L 50.0908 112.111 L 50.472 112.316 L 50.9273 112.517 L 51.4967 112.824 L 51.4967 112.824 L 51.6891 112.928 L 51.9708 113.134 L 51.9709 113.134 L 52.4935 113.482 L 52.6313 113.624 L 52.9317 114.17 L 52.7332 114.867 L 52.1007 114.657 L 51.8483 114.577 L 51.0649 114.245 L 50.9246 114.196 L 50.9246 114.196 L 50.4029 114.016 L 50.0559 113.88 L 49.9547 113.846 L 49.1316 113.605 L 48.6599 113.493 L 48.6599 113.493 L 48.2808 113.413 L 47.6689 113.212 L 47.2473 113.125 L 46.7796 112.915 L 46.2246 112.765 L 45.8885 112.589 L 45.527 112.418 L 44.9556 112.12 L 44.7396 111.989 L 44.4801 111.808 L 44.0224 111.487 L 43.5748 111.152 L 43.2899 110.914 L 42.8888 110.559 L 42.8888 110.559 L 42.5718 110.292 L 42.2432 109.961 L 41.937 109.624 L 41.8132 109.362 L 41.3198 108.644 L 41.3421 108.4 L 41.3684 107.844 L 41.7174 107.459 L 41.9048 107.277 L 42.6407 107.168 L 42.9441 107.109 L 43.5384 107.271" fill="none" stroke="#800080" stroke-width="0.05000" fill-rule="evenodd" fill-opacity="1.000"/>
    <path d="M 42.6455 107.195 L 41.9173 107.303 L 41.7368 107.477 L 41.3949 107.855 L 41.369 108.402 L 41.3476 108.637 L 41.8365 109.349 L 41.9597 109.609 L 42.2628 109.943 L 42.5901 110.272 L 42.9062 110.538 L 43.3075 110.893 L 43.5916 111.131 L 44.0382 111.465 L 44.4956 111.785 L 44.7544 111.967 L 44.9689 112.097 L 45.539 112.394 L 45.9 112.564 L 46.2345 112.739 L 46.7884 112.889 L 47.2557 113.099 L 47.6765 113.186 L 48.2878 113.387 L 48.6661 113.467 L 49.1378 113.579 L 49.9623 113.82 L 50.0653 113.855 L 50.4122 113.991 L 50.9336 114.17 L 51.0744 114.22 L 51.8577 114.552 L 52.1089 114.632 L 52.7149 114.832 L 52.9027 114.173 L 52.6094 113.64 L 52.4761 113.503 L 51.9559 113.157 L 51.6746 112.951 L 51.5237 112.869 L 51.5237 112.87 L 50.9154 112.541 L 50.4599 112.34 L 50.0789 112.135 L 49.3904 111.828 L 49.2405 111.754 L 49.1204 111.702 L 48.3699 111.288 L 47.8187 111.035 L 47.5745 110.856 L 47.1589 110.629 L 46.8411 110.42 L 46.5029 110.235 L 46.0062 109.806 L 45.8025 109.551 L 45.3679 109.115 L 44.8198 108.454 L 44.7955 108.426 L 44.7614 108.385 L 44.2053 107.779 L 43.6892 107.354 L 43.5303 107.297 L 42.9431 107.137 L 42.6455 107.195" fill="none" stroke="#800080" stroke-width="0.05000" fill-rule="evenodd" fill-opacity="1.000"/>
    </g>
    <!-- ===== Thermal Segment Colour Legend ===== -->
    <g id="thermal-legend">
    <rect x="161.0000" y="5.0000" width="40.0000" height="72.0000"
          rx="1" ry="1"
          fill="#fafafa" stroke="#cccccc" stroke-width="0.15"/>
    <text x="181.0000" y="7.6000" font-family="sans-serif" font-size="2.2000" font-weight="bold" fill="#222222" text-anchor="middle">Thermal Segments</text>
    <line x1="161.5000" y1="8.7000" x2="200.5000" y2="8.7000" stroke="#bbbbbb" stroke-width="0.1"/>
    <rect x="161.8000" y="9.0000" width="3.5000" height="2.0000" fill="#000000" stroke="#333333" stroke-width="0.08" rx="0.3" ry="0.3"/>
    <text x="168.6000" y="10.9000" font-family="monospace" font-size="1.6000" fill="#444444" text-anchor="end"> 1</text>
    <text x="169.6000" y="10.9000" font-family="sans-serif" font-size="1.6000" fill="#111111">CoreContour_Volume</text>
    <rect x="161.8000" y="12.0000" width="3.5000" height="2.0000" fill="#8B0000" stroke="#333333" stroke-width="0.08" rx="0.3" ry="0.3"/>
    <text x="168.6000" y="13.9000" font-family="monospace" font-size="1.6000" fill="#444444" text-anchor="end"> 2</text>
    <text x="169.6000" y="13.9000" font-family="sans-serif" font-size="1.6000" fill="#111111">CoreContour_Overhang</text>
    <rect x="161.8000" y="15.0000" width="3.5000" height="2.0000" fill="#0000CC" stroke="#333333" stroke-width="0.08" rx="0.3" ry="0.3"/>
    <text x="168.6000" y="16.9000" font-family="monospace" font-size="1.6000" fill="#444444" text-anchor="end"> 3</text>
    <text x="169.6000" y="16.9000" font-family="sans-serif" font-size="1.6000" fill="#111111">Shell1Contour_Volume</text>
    <rect x="161.8000" y="18.0000" width="3.5000" height="2.0000" fill="#000080" stroke="#333333" stroke-width="0.08" rx="0.3" ry="0.3"/>
    <text x="168.6000" y="19.9000" font-family="monospace" font-size="1.6000" fill="#444444" text-anchor="end"> 4</text>
    <text x="169.6000" y="19.9000" font-family="sans-serif" font-size="1.6000" fill="#111111">Shell1Contour_Overhang</text>
    <rect x="161.8000" y="21.0000" width="3.5000" height="2.0000" fill="#B8860B" stroke="#333333" stroke-width="0.08" rx="0.3" ry="0.3"/>
    <text x="168.6000" y="22.9000" font-family="monospace" font-size="1.6000" fill="#444444" text-anchor="end"> 5</text>
    <text x="169.6000" y="22.9000" font-family="sans-serif" font-size="1.6000" fill="#111111">Shell2Contour_Volume</text>
    <rect x="161.8000" y="24.0000" width="3.5000" height="2.0000" fill="#006400" stroke="#333333" stroke-width="0.08" rx="0.3" ry="0.3"/>
    <text x="168.6000" y="25.9000" font-family="monospace" font-size="1.6000" fill="#444444" text-anchor="end"> 6</text>
    <text x="169.6000" y="25.9000" font-family="sans-serif" font-size="1.6000" fill="#111111">Shell2Contour_Overhang</text>
    <rect x="161.8000" y="27.0000" width="3.5000" height="2.0000" fill="#FF8C00" stroke="#333333" stroke-width="0.08" rx="0.3" ry="0.3"/>
    <text x="168.6000" y="28.9000" font-family="monospace" font-size="1.6000" fill="#444444" text-anchor="end"> 7</text>
    <text x="169.6000" y="28.9000" font-family="sans-serif" font-size="1.6000" fill="#111111">CoreOverhangHatch</text>
    <rect x="161.8000" y="30.0000" width="3.5000" height="2.0000" fill="#228B22" stroke="#333333" stroke-width="0.08" rx="0.3" ry="0.3"/>
    <text x="168.6000" y="31.9000" font-family="monospace" font-size="1.6000" fill="#444444" text-anchor="end"> 8</text>
    <text x="169.6000" y="31.9000" font-family="sans-serif" font-size="1.6000" fill="#111111">CoreNormalHatch</text>
    <rect x="161.8000" y="33.0000" width="3.5000" height="2.0000" fill="#800080" stroke="#333333" stroke-width="0.08" rx="0.3" ry="0.3"/>
    <text x="168.6000" y="34.9000" font-family="monospace" font-size="1.6000" fill="#444444" text-anchor="end"> 9</text>
    <text x="169.6000" y="34.9000" font-family="sans-serif" font-size="1.6000" fill="#111111">CoreContourHatch</text>
    <rect x="161.8000" y="36.0000" width="3.5000" height="2.0000" fill="#FF69B4" stroke="#333333" stroke-width="0.08" rx="0.3" ry="0.3"/>
    <text x="168.6000" y="37.9000" font-family="monospace" font-size="1.6000" fill="#444444" text-anchor="end">10</text>
    <text x="169.6000" y="37.9000" font-family="sans-serif" font-size="1.6000" fill="#111111">Shell1OverhangHatch</text>
    <rect x="161.8000" y="39.0000" width="3.5000" height="2.0000" fill="#00CED1" stroke="#333333" stroke-width="0.08" rx="0.3" ry="0.3"/>
    <text x="168.6000" y="40.9000" font-family="monospace" font-size="1.6000" fill="#444444" text-anchor="end">11</text>
    <text x="169.6000" y="40.9000" font-family="sans-serif" font-size="1.6000" fill="#111111">Shell1NormalHatch</text>
    <rect x="161.8000" y="42.0000" width="3.5000" height="2.0000" fill="#FF00FF" stroke="#333333" stroke-width="0.08" rx="0.3" ry="0.3"/>
    <text x="168.6000" y="43.9000" font-family="monospace" font-size="1.6000" fill="#444444" text-anchor="end">12</text>
    <text x="169.6000" y="43.9000" font-family="sans-serif" font-size="1.6000" fill="#111111">Shell1ContourHatch</text>
    <rect x="161.8000" y="45.0000" width="3.5000" height="2.0000" fill="#A52A2A" stroke="#333333" stroke-width="0.08" rx="0.3" ry="0.3"/>
    <text x="168.6000" y="46.9000" font-family="monospace" font-size="1.6000" fill="#444444" text-anchor="end">13</text>
    <text x="169.6000" y="46.9000" font-family="sans-serif" font-size="1.6000" fill="#111111">Shell2OverhangHatch</text>
    <rect x="161.8000" y="48.0000" width="3.5000" height="2.0000" fill="#808080" stroke="#333333" stroke-width="0.08" rx="0.3" ry="0.3"/>
    <text x="168.6000" y="49.9000" font-family="monospace" font-size="1.6000" fill="#444444" text-anchor="end">14</text>
    <text x="169.6000" y="49.9000" font-family="sans-serif" font-size="1.6000" fill="#111111">Shell2NormalHatch</text>
    <rect x="161.8000" y="51.0000" width="3.5000" height="2.0000" fill="#32CD32" stroke="#333333" stroke-width="0.08" rx="0.3" ry="0.3"/>
    <text x="168.6000" y="52.9000" font-family="monospace" font-size="1.6000" fill="#444444" text-anchor="end">15</text>
    <text x="169.6000" y="52.9000" font-family="sans-serif" font-size="1.6000" fill="#111111">Shell2ContourHatch</text>
    <rect x="161.8000" y="54.0000" width="3.5000" height="2.0000" fill="#1A237E" stroke="#333333" stroke-width="0.08" rx="0.3" ry="0.3"/>
    <text x="168.6000" y="55.9000" font-family="monospace" font-size="1.6000" fill="#444444" text-anchor="end">16</text>
    <text x="169.6000" y="55.9000" font-family="sans-serif" font-size="1.6000" fill="#111111">SupportContourVolume</text>
    <rect x="161.8000" y="57.0000" width="3.5000" height="2.0000" fill="#827717" stroke="#333333" stroke-width="0.08" rx="0.3" ry="0.3"/>
    <text x="168.6000" y="58.9000" font-family="monospace" font-size="1.6000" fill="#444444" text-anchor="end">17</text>
    <text x="169.6000" y="58.9000" font-family="sans-serif" font-size="1.6000" fill="#111111">SupportHatch</text>
    <rect x="161.8000" y="60.0000" width="3.5000" height="2.0000" fill="#006064" stroke="#333333" stroke-width="0.08" rx="0.3" ry="0.3"/>
    <text x="168.6000" y="61.9000" font-family="monospace" font-size="1.6000" fill="#444444" text-anchor="end">18</text>
    <text x="169.6000" y="61.9000" font-family="sans-serif" font-size="1.6000" fill="#111111">PointSequence</text>
    <rect x="161.8000" y="63.0000" width="3.5000" height="2.0000" fill="#B71C1C" stroke="#333333" stroke-width="0.08" rx="0.3" ry="0.3"/>
    <text x="168.6000" y="64.9000" font-family="monospace" font-size="1.6000" fill="#444444" text-anchor="end">19</text>
    <text x="169.6000" y="64.9000" font-family="sans-serif" font-size="1.6000" fill="#111111">ExternalSupports</text>
    <rect x="161.8000" y="66.0000" width="3.5000" height="2.0000" fill="#E64A19" stroke="#333333" stroke-width="0.08" rx="0.3" ry="0.3"/>
    <text x="168.6000" y="67.9000" font-family="monospace" font-size="1.6000" fill="#444444" text-anchor="end">20</text>
    <text x="169.6000" y="67.9000" font-family="sans-serif" font-size="1.6000" fill="#111111">CoreContourHatchOverhang</text>
    <rect x="161.8000" y="69.0000" width="3.5000" height="2.0000" fill="#311B92" stroke="#333333" stroke-width="0.08" rx="0.3" ry="0.3"/>
    <text x="168.6000" y="70.9000" font-family="monospace" font-size="1.6000" fill="#444444" text-anchor="end">21</text>
    <text x="169.6000" y="70.9000" font-family="sans-serif" font-size="1.6000" fill="#111111">Shell1ContourHatchOverhang</text>
    <rect x="161.8000" y="72.0000" width="3.5000" height="2.0000" fill="#880E4F" stroke="#333333" stroke-width="0.08" rx="0.3" ry="0.3"/>
    <text x="168.6000" y="73.9000" font-family="monospace" font-size="1.6000" fill="#444444" text-anchor="end">22</text>
    <text x="169.6000" y="73.9000" font-family="sans-serif" font-size="1.6000" fill="#111111">Shell2ContourHatchOverhang</text>
    </g>
  </g>
</svg>
