<?xml version="1.0" encoding="UTF-8" standalone="yes"?>
<svg xmlns="http://www.w3.org/2000/svg"
     xmlns:xlink="http://www.w3.org/1999/xlink"
     width="2020.0000mm" height="1600.0000mm"
     viewBox="0 0 202.000000 160.000000">
  <!--
    Build plate : 150.00 x 150.00 mm
    Coordinate  : 1 SVG unit = 1 mm
    Display zoom: 10x  (width/height = viewBox x 10)
    Hatch stroke: 0.04 mm = ~28 mm on screen at this zoom
    Legend panel: right margin (42 mm wide)
  -->
  <defs>
    <marker id="endArrow" markerWidth="2" markerHeight="1.4"
            refX="0" refY="0.7" orient="auto"
            markerUnits="strokeWidth">
      <polyline fill="darkblue" points="0,0 2,0.7 0,1.4 0.2,0.7"/>
    </marker>
  </defs>
  <!-- Background -->
  <rect x="0" y="0" width="202.000000" height="160.000000" fill="#f0f0f0" stroke="none"/>
  <!-- Build plate boundary (150 x 150 mm) -->
  <rect x="5.000000" y="5.000000" width="150.000000" height="150.000000"
        fill="#ffffff" stroke="#aaaaaa" stroke-width="0.2" stroke-dasharray="1,0.5"/>
  <!-- Build plate centre circle (r = 75.00 mm) -->
  <circle cx="80.000000" cy="80.000000" r="75.000000"
          fill="none" stroke="#bbbbbb" stroke-width="0.15" stroke-dasharray="0.8,0.4"/>
  <!-- Centre cross-hair -->
  <line x1="5.000000" y1="80.000000" x2="155.000000" y2="80.000000" stroke="#cccccc" stroke-width="0.1"/>
  <line x1="80.000000" y1="5.000000" x2="80.000000" y2="155.000000" stroke="#cccccc" stroke-width="0.1"/>
  <circle cx="80.000000" cy="80.000000" r="0.3" fill="#cccccc" stroke="none"/>
  <!-- Corner labels -->
  <text x="5.400000" y="4.600000" font-family="sans-serif" font-size="2" fill="#888888">0,0</text>
  <text x="154.600006" y="4.600000" font-family="sans-serif" font-size="2" fill="#888888" text-anchor="end">150,0</text>
  <text x="5.400000" y="157.199997" font-family="sans-serif" font-size="2" fill="#888888">0,150</text>
  <!-- Layer geometry -->
  <g id="geometry">
    <g class="thermal-hatch" data-segment="8" data-name="CoreNormalHatch">
      <line x1="34.41847" y1="124.51979" x2="35.15752" y2="121.55564" stroke="#228B22" stroke-width="0.04000"/>
      <line x1="34.31930" y1="124.50420" x2="35.74059" y2="118.80371" stroke="#228B22" stroke-width="0.04000"/>
      <line x1="34.22012" y1="124.48859" x2="35.83999" y2="117.99167" stroke="#228B22" stroke-width="0.04000"/>
      <line x1="34.12095" y1="124.47300" x2="35.92265" y2="117.24680" stroke="#228B22" stroke-width="0.04000"/>
      <line x1="34.02179" y1="124.45737" x2="35.93738" y2="116.77435" stroke="#228B22" stroke-width="0.04000"/>
      <line x1="33.92285" y1="124.44084" x2="35.95144" y2="116.30462" stroke="#228B22" stroke-width="0.04000"/>
      <line x1="33.82391" y1="124.42432" x2="35.96344" y2="115.84311" stroke="#228B22" stroke-width="0.04000"/>
      <line x1="33.72497" y1="124.40778" x2="35.96399" y2="115.42755" stroke="#228B22" stroke-width="0.04000"/>
      <line x1="33.62602" y1="124.39126" x2="35.94489" y2="115.09082" stroke="#228B22" stroke-width="0.04000"/>
      <line x1="34.56713" y1="124.33688" x2="34.94893" y2="122.80559" stroke="#228B22" stroke-width="0.04000"/>
      <line x1="33.55650" y1="124.25675" x2="35.92432" y2="114.75996" stroke="#228B22" stroke-width="0.04000"/>
      <line x1="33.49662" y1="124.08357" x2="35.90357" y2="114.42982" stroke="#228B22" stroke-width="0.04000"/>
      <line x1="33.43674" y1="123.91039" x2="35.87856" y2="114.11678" stroke="#228B22" stroke-width="0.04000"/>
      <line x1="33.37532" y1="123.74333" x2="35.85355" y2="113.80373" stroke="#228B22" stroke-width="0.04000"/>
      <line x1="33.30795" y1="123.60023" x2="35.82745" y2="113.49503" stroke="#228B22" stroke-width="0.04000"/>
      <line x1="33.24056" y1="123.45713" x2="35.78120" y2="113.26718" stroke="#228B22" stroke-width="0.04000"/>
      <line x1="33.17318" y1="123.31403" x2="35.73791" y2="113.02745" stroke="#228B22" stroke-width="0.04000"/>
      <line x1="33.10580" y1="123.17092" x2="35.69462" y2="112.78772" stroke="#228B22" stroke-width="0.04000"/>
      <line x1="33.03841" y1="123.02782" x2="35.65133" y2="112.54799" stroke="#228B22" stroke-width="0.04000"/>
      <line x1="32.98764" y1="122.81814" x2="35.60099" y2="112.33652" stroke="#228B22" stroke-width="0.04000"/>
      <line x1="32.93648" y1="122.60994" x2="35.54346" y2="112.15394" stroke="#228B22" stroke-width="0.04000"/>
      <line x1="32.88508" y1="122.40274" x2="35.48739" y2="111.96546" stroke="#228B22" stroke-width="0.04000"/>
      <line x1="32.83368" y1="122.19554" x2="35.43453" y2="111.76409" stroke="#228B22" stroke-width="0.04000"/>
      <line x1="32.78692" y1="121.96972" x2="35.38168" y2="111.56272" stroke="#228B22" stroke-width="0.04000"/>
      <line x1="32.74478" y1="121.72539" x2="35.32883" y2="111.36134" stroke="#228B22" stroke-width="0.04000"/>
      <line x1="32.70264" y1="121.48106" x2="35.26875" y2="111.18893" stroke="#228B22" stroke-width="0.04000"/>
      <line x1="32.66032" y1="121.23743" x2="35.20847" y2="111.01736" stroke="#228B22" stroke-width="0.04000"/>
      <line x1="32.61627" y1="121.00076" x2="35.14819" y2="110.84579" stroke="#228B22" stroke-width="0.04000"/>
      <line x1="32.57358" y1="120.75860" x2="35.08790" y2="110.67422" stroke="#228B22" stroke-width="0.04000"/>
      <line x1="32.52985" y1="120.52064" x2="35.02585" y2="110.50976" stroke="#228B22" stroke-width="0.04000"/>
      <line x1="32.48612" y1="120.28267" x2="34.96350" y2="110.34645" stroke="#228B22" stroke-width="0.04000"/>
      <line x1="32.44846" y1="120.02039" x2="34.90124" y2="110.18282" stroke="#228B22" stroke-width="0.04000"/>
      <line x1="32.41240" y1="119.75163" x2="34.83897" y2="110.01917" stroke="#228B22" stroke-width="0.04000"/>
      <line x1="32.37264" y1="119.49775" x2="34.77671" y2="109.85554" stroke="#228B22" stroke-width="0.04000"/>
      <line x1="32.33091" y1="119.25176" x2="34.71445" y2="109.69190" stroke="#228B22" stroke-width="0.04000"/>
      <line x1="32.28907" y1="119.00623" x2="34.65219" y2="109.52826" stroke="#228B22" stroke-width="0.04000"/>
      <line x1="32.24548" y1="118.76772" x2="34.58765" y2="109.37377" stroke="#228B22" stroke-width="0.04000"/>
      <line x1="32.20188" y1="118.52921" x2="34.52184" y2="109.22435" stroke="#228B22" stroke-width="0.04000"/>
      <line x1="32.16132" y1="118.27853" x2="34.46339" y2="109.04543" stroke="#228B22" stroke-width="0.04000"/>
      <line x1="32.12726" y1="118.00176" x2="34.40494" y2="108.86651" stroke="#228B22" stroke-width="0.04000"/>
      <line x1="32.09241" y1="117.72817" x2="34.34649" y2="108.68760" stroke="#228B22" stroke-width="0.04000"/>
      <line x1="32.05289" y1="117.47336" x2="34.28803" y2="108.50868" stroke="#228B22" stroke-width="0.04000"/>
      <line x1="32.02132" y1="117.18661" x2="34.22958" y2="108.32977" stroke="#228B22" stroke-width="0.04000"/>
      <line x1="31.99218" y1="116.89013" x2="34.15816" y2="108.20283" stroke="#228B22" stroke-width="0.04000"/>
      <line x1="31.95654" y1="116.61970" x2="34.08580" y2="108.07971" stroke="#228B22" stroke-width="0.04000"/>
      <line x1="31.90594" y1="116.40932" x2="34.02364" y2="107.91568" stroke="#228B22" stroke-width="0.04000"/>
      <line x1="31.85803" y1="116.18808" x2="33.97412" y2="107.70093" stroke="#228B22" stroke-width="0.04000"/>
      <line x1="31.81014" y1="115.96684" x2="33.92460" y2="107.48618" stroke="#228B22" stroke-width="0.04000"/>
      <line x1="31.76224" y1="115.74561" x2="33.87508" y2="107.27143" stroke="#228B22" stroke-width="0.04000"/>
      <line x1="31.71052" y1="115.53968" x2="33.82355" y2="107.06479" stroke="#228B22" stroke-width="0.04000"/>
      <line x1="31.65185" y1="115.36160" x2="33.74376" y2="106.97142" stroke="#228B22" stroke-width="0.04000"/>
      <line x1="31.59577" y1="115.17320" x2="33.69448" y2="106.75572" stroke="#228B22" stroke-width="0.04000"/>
      <line x1="31.54317" y1="114.97081" x2="33.66303" y2="106.46851" stroke="#228B22" stroke-width="0.04000"/>
      <line x1="31.49057" y1="114.76842" x2="33.65103" y2="106.10328" stroke="#228B22" stroke-width="0.04000"/>
      <line x1="31.43463" y1="114.57943" x2="35.28080" y2="99.15330" stroke="#228B22" stroke-width="0.04000"/>
      <line x1="31.37663" y1="114.39869" x2="35.18486" y2="99.12469" stroke="#228B22" stroke-width="0.04000"/>
      <line x1="31.31863" y1="114.21795" x2="35.08893" y2="99.09610" stroke="#228B22" stroke-width="0.04000"/>
      <line x1="31.26063" y1="114.03721" x2="34.99300" y2="99.06750" stroke="#228B22" stroke-width="0.04000"/>
      <line x1="31.20202" y1="113.85895" x2="34.89594" y2="99.04343" stroke="#228B22" stroke-width="0.04000"/>
      <line x1="31.15202" y1="113.64613" x2="34.79647" y2="99.02901" stroke="#228B22" stroke-width="0.04000"/>
      <line x1="31.09970" y1="113.44260" x2="34.69797" y2="99.01072" stroke="#228B22" stroke-width="0.04000"/>
      <line x1="31.04733" y1="113.23930" x2="34.60394" y2="98.97455" stroke="#228B22" stroke-width="0.04000"/>
      <line x1="30.99496" y1="113.03600" x2="34.50989" y2="98.93838" stroke="#228B22" stroke-width="0.04000"/>
      <line x1="30.97450" y1="112.70470" x2="34.41585" y2="98.90221" stroke="#228B22" stroke-width="0.04000"/>
      <line x1="30.93450" y1="112.45177" x2="34.32180" y2="98.86603" stroke="#228B22" stroke-width="0.04000"/>
      <line x1="30.89450" y1="112.19884" x2="34.22605" y2="98.83673" stroke="#228B22" stroke-width="0.04000"/>
      <line x1="30.93469" y1="111.62429" x2="34.12824" y2="98.81565" stroke="#228B22" stroke-width="0.04000"/>
      <line x1="30.93492" y1="111.21001" x2="34.03044" y2="98.79456" stroke="#228B22" stroke-width="0.04000"/>
      <line x1="30.93515" y1="110.79572" x2="33.93138" y2="98.77852" stroke="#228B22" stroke-width="0.04000"/>
      <line x1="44.74966" y1="110.77856" x2="45.63314" y2="107.23512" stroke="#228B22" stroke-width="0.04000"/>
      <line x1="44.64790" y1="110.77331" x2="45.54699" y2="107.16728" stroke="#228B22" stroke-width="0.04000"/>
      <line x1="44.85427" y1="110.77233" x2="45.71928" y2="107.30295" stroke="#228B22" stroke-width="0.04000"/>
      <line x1="44.95888" y1="110.76611" x2="45.80543" y2="107.37077" stroke="#228B22" stroke-width="0.04000"/>
      <line x1="44.54776" y1="110.76160" x2="45.46083" y2="107.09946" stroke="#228B22" stroke-width="0.04000"/>
      <line x1="45.06350" y1="110.75987" x2="45.89153" y2="107.43884" stroke="#228B22" stroke-width="0.04000"/>
      <line x1="45.16811" y1="110.75365" x2="45.97760" y2="107.50695" stroke="#228B22" stroke-width="0.04000"/>
      <line x1="44.44688" y1="110.75283" x2="45.37468" y2="107.03162" stroke="#228B22" stroke-width="0.04000"/>
      <line x1="45.27320" y1="110.74552" x2="46.06368" y2="107.57506" stroke="#228B22" stroke-width="0.04000"/>
      <line x1="44.34601" y1="110.74406" x2="45.28854" y2="106.96379" stroke="#228B22" stroke-width="0.04000"/>
      <line x1="44.24464" y1="110.73725" x2="45.20238" y2="106.89596" stroke="#228B22" stroke-width="0.04000"/>
      <line x1="45.37931" y1="110.73328" x2="46.14976" y2="107.64317" stroke="#228B22" stroke-width="0.04000"/>
      <line x1="44.14326" y1="110.73053" x2="45.11636" y2="106.82764" stroke="#228B22" stroke-width="0.04000"/>
      <line x1="44.04188" y1="110.72380" x2="45.03061" y2="106.75819" stroke="#228B22" stroke-width="0.04000"/>
      <line x1="45.48543" y1="110.72102" x2="46.23584" y2="107.71129" stroke="#228B22" stroke-width="0.04000"/>
      <line x1="43.94049" y1="110.71708" x2="44.94364" y2="106.69366" stroke="#228B22" stroke-width="0.04000"/>
      <line x1="43.83911" y1="110.71035" x2="44.85448" y2="106.63793" stroke="#228B22" stroke-width="0.04000"/>
      <line x1="45.59155" y1="110.70877" x2="46.32192" y2="107.77940" stroke="#228B22" stroke-width="0.04000"/>
      <line x1="43.73772" y1="110.70363" x2="44.76521" y2="106.58260" stroke="#228B22" stroke-width="0.04000"/>
      <line x1="43.63634" y1="110.69691" x2="44.67594" y2="106.52728" stroke="#228B22" stroke-width="0.04000"/>
      <line x1="45.69766" y1="110.69653" x2="46.40842" y2="107.84584" stroke="#228B22" stroke-width="0.04000"/>
      <line x1="43.53584" y1="110.68663" x2="44.58667" y2="106.47196" stroke="#228B22" stroke-width="0.04000"/>
      <line x1="43.43758" y1="110.66737" x2="44.49741" y2="106.41663" stroke="#228B22" stroke-width="0.04000"/>
      <line x1="45.81217" y1="110.65059" x2="46.49505" y2="107.91172" stroke="#228B22" stroke-width="0.04000"/>
      <line x1="43.33932" y1="110.64811" x2="44.40814" y2="106.36131" stroke="#228B22" stroke-width="0.04000"/>
      <line x1="43.24106" y1="110.62885" x2="44.31887" y2="106.30599" stroke="#228B22" stroke-width="0.04000"/>
      <line x1="43.14280" y1="110.60959" x2="44.22734" y2="106.25975" stroke="#228B22" stroke-width="0.04000"/>
      <line x1="45.92908" y1="110.59506" x2="46.58168" y2="107.97761" stroke="#228B22" stroke-width="0.04000"/>
      <line x1="43.04454" y1="110.59032" x2="44.13424" y2="106.21978" stroke="#228B22" stroke-width="0.04000"/>
      <line x1="42.94628" y1="110.57107" x2="44.04115" y2="106.17981" stroke="#228B22" stroke-width="0.04000"/>
      <line x1="42.84802" y1="110.55180" x2="43.95052" y2="106.12994" stroke="#228B22" stroke-width="0.04000"/>
      <line x1="46.04598" y1="110.53954" x2="46.66910" y2="108.04035" stroke="#228B22" stroke-width="0.04000"/>
      <line x1="42.74977" y1="110.53255" x2="43.86079" y2="106.07645" stroke="#228B22" stroke-width="0.04000"/>
      <line x1="42.65391" y1="110.50364" x2="43.77107" y2="106.02296" stroke="#228B22" stroke-width="0.04000"/>
      <line x1="46.16289" y1="110.48402" x2="46.75668" y2="108.10245" stroke="#228B22" stroke-width="0.04000"/>
      <line x1="42.55828" y1="110.47382" x2="43.68134" y2="105.96947" stroke="#228B22" stroke-width="0.04000"/>
      <line x1="42.46460" y1="110.43623" x2="43.59162" y2="105.91599" stroke="#228B22" stroke-width="0.04000"/>
      <line x1="46.27943" y1="110.42995" x2="46.84426" y2="108.16454" stroke="#228B22" stroke-width="0.04000"/>
      <line x1="42.37087" y1="110.39879" x2="43.50190" y2="105.86250" stroke="#228B22" stroke-width="0.04000"/>
      <line x1="46.39461" y1="110.38136" x2="46.91792" y2="108.28249" stroke="#228B22" stroke-width="0.04000"/>
      <line x1="42.27694" y1="110.36217" x2="43.41217" y2="105.80901" stroke="#228B22" stroke-width="0.04000"/>
      <line x1="46.50978" y1="110.33276" x2="46.99154" y2="108.40054" stroke="#228B22" stroke-width="0.04000"/>
      <line x1="42.18300" y1="110.32556" x2="43.31873" y2="105.77040" stroke="#228B22" stroke-width="0.04000"/>
      <line x1="42.08907" y1="110.28894" x2="43.21863" y2="105.75853" stroke="#228B22" stroke-width="0.04000"/>
      <line x1="46.62496" y1="110.28419" x2="47.06517" y2="108.51858" stroke="#228B22" stroke-width="0.04000"/>
      <line x1="41.99514" y1="110.25233" x2="43.11853" y2="105.74666" stroke="#228B22" stroke-width="0.04000"/>
      <line x1="46.74077" y1="110.23306" x2="47.13881" y2="108.63662" stroke="#228B22" stroke-width="0.04000"/>
      <line x1="41.90121" y1="110.21571" x2="43.01843" y2="105.73479" stroke="#228B22" stroke-width="0.04000"/>
      <line x1="41.80727" y1="110.17910" x2="42.92521" y2="105.69531" stroke="#228B22" stroke-width="0.04000"/>
      <line x1="41.71334" y1="110.14248" x2="42.83534" y2="105.64240" stroke="#228B22" stroke-width="0.04000"/>
      <line x1="46.87009" y1="110.12772" x2="47.21243" y2="108.75466" stroke="#228B22" stroke-width="0.04000"/>
      <line x1="41.61941" y1="110.10587" x2="42.74548" y2="105.58948" stroke="#228B22" stroke-width="0.04000"/>
      <line x1="41.52539" y1="110.06961" x2="42.65561" y2="105.53655" stroke="#228B22" stroke-width="0.04000"/>
      <line x1="41.43121" y1="110.03397" x2="42.56574" y2="105.48363" stroke="#228B22" stroke-width="0.04000"/>
      <line x1="47.00468" y1="110.00127" x2="47.29910" y2="108.82043" stroke="#228B22" stroke-width="0.04000"/>
      <line x1="41.33704" y1="109.99834" x2="42.47588" y2="105.43072" stroke="#228B22" stroke-width="0.04000"/>
      <line x1="41.24286" y1="109.96270" x2="42.38470" y2="105.38301" stroke="#228B22" stroke-width="0.04000"/>
      <line x1="41.14868" y1="109.92707" x2="42.29259" y2="105.33912" stroke="#228B22" stroke-width="0.04000"/>
      <line x1="41.05671" y1="109.88258" x2="42.20047" y2="105.29522" stroke="#228B22" stroke-width="0.04000"/>
      <line x1="47.14091" y1="109.86826" x2="47.38815" y2="108.87663" stroke="#228B22" stroke-width="0.04000"/>
      <line x1="40.96499" y1="109.83710" x2="42.10836" y2="105.25133" stroke="#228B22" stroke-width="0.04000"/>
      <line x1="40.87327" y1="109.79163" x2="42.01624" y2="105.20744" stroke="#228B22" stroke-width="0.04000"/>
      <line x1="40.78154" y1="109.74615" x2="41.92412" y2="105.16354" stroke="#228B22" stroke-width="0.04000"/>
      <line x1="47.27713" y1="109.73524" x2="47.47720" y2="108.93283" stroke="#228B22" stroke-width="0.04000"/>
      <line x1="40.68982" y1="109.70068" x2="41.83148" y2="105.12174" stroke="#228B22" stroke-width="0.04000"/>
      <line x1="40.59757" y1="109.65732" x2="41.73882" y2="105.08004" stroke="#228B22" stroke-width="0.04000"/>
      <line x1="40.50486" y1="109.61581" x2="41.64615" y2="105.03834" stroke="#228B22" stroke-width="0.04000"/>
      <line x1="47.41335" y1="109.60224" x2="47.56625" y2="108.98903" stroke="#228B22" stroke-width="0.04000"/>
      <line x1="40.41214" y1="109.57432" x2="41.55349" y2="104.99664" stroke="#228B22" stroke-width="0.04000"/>
      <line x1="40.31943" y1="109.53281" x2="41.46257" y2="104.94795" stroke="#228B22" stroke-width="0.04000"/>
      <line x1="40.22672" y1="109.49132" x2="41.37325" y2="104.89280" stroke="#228B22" stroke-width="0.04000"/>
      <line x1="40.13400" y1="109.44981" x2="41.28394" y2="104.83765" stroke="#228B22" stroke-width="0.04000"/>
      <line x1="40.04129" y1="109.40832" x2="41.19463" y2="104.78250" stroke="#228B22" stroke-width="0.04000"/>
      <line x1="39.95208" y1="109.35274" x2="41.10532" y2="104.72735" stroke="#228B22" stroke-width="0.04000"/>
      <line x1="31.19798" y1="109.32820" x2="31.24125" y2="109.15469" stroke="#228B22" stroke-width="0.04000"/>
      <line x1="39.86435" y1="109.29125" x2="41.01601" y2="104.67220" stroke="#228B22" stroke-width="0.04000"/>
      <line x1="39.77662" y1="109.22977" x2="40.92670" y2="104.61705" stroke="#228B22" stroke-width="0.04000"/>
      <line x1="47.61285" y1="109.21547" x2="47.65529" y2="109.04523" stroke="#228B22" stroke-width="0.04000"/>
      <line x1="39.68889" y1="109.16828" x2="40.83739" y2="104.56190" stroke="#228B22" stroke-width="0.04000"/>
      <line x1="39.59866" y1="109.11683" x2="40.74808" y2="104.50675" stroke="#228B22" stroke-width="0.04000"/>
      <line x1="39.50838" y1="109.06554" x2="40.65753" y2="104.45657" stroke="#228B22" stroke-width="0.04000"/>
      <line x1="39.41811" y1="109.01424" x2="40.56564" y2="104.41175" stroke="#228B22" stroke-width="0.04000"/>
      <line x1="39.32784" y1="108.96294" x2="40.47297" y2="104.37008" stroke="#228B22" stroke-width="0.04000"/>
      <line x1="39.23757" y1="108.91165" x2="40.38029" y2="104.32841" stroke="#228B22" stroke-width="0.04000"/>
      <line x1="39.14730" y1="108.86035" x2="40.28763" y2="104.28675" stroke="#228B22" stroke-width="0.04000"/>
      <line x1="39.05973" y1="108.79822" x2="40.19495" y2="104.24508" stroke="#228B22" stroke-width="0.04000"/>
      <line x1="38.97275" y1="108.73372" x2="40.10228" y2="104.20341" stroke="#228B22" stroke-width="0.04000"/>
      <line x1="38.88577" y1="108.66922" x2="40.00961" y2="104.16174" stroke="#228B22" stroke-width="0.04000"/>
      <line x1="38.79879" y1="108.60472" x2="39.91693" y2="104.12008" stroke="#228B22" stroke-width="0.04000"/>
      <line x1="38.71181" y1="108.54022" x2="39.82390" y2="104.07987" stroke="#228B22" stroke-width="0.04000"/>
      <line x1="38.62415" y1="108.47843" x2="39.72956" y2="104.04488" stroke="#228B22" stroke-width="0.04000"/>
      <line x1="38.53550" y1="108.42062" x2="39.63576" y2="104.00772" stroke="#228B22" stroke-width="0.04000"/>
      <line x1="38.44685" y1="108.36282" x2="39.54263" y2="103.96791" stroke="#228B22" stroke-width="0.04000"/>
      <line x1="38.35820" y1="108.30502" x2="39.44949" y2="103.92809" stroke="#228B22" stroke-width="0.04000"/>
      <line x1="38.27200" y1="108.23740" x2="39.35636" y2="103.88828" stroke="#228B22" stroke-width="0.04000"/>
      <line x1="38.18804" y1="108.16081" x2="39.26323" y2="103.84846" stroke="#228B22" stroke-width="0.04000"/>
      <line x1="31.50169" y1="108.11009" x2="31.53976" y2="107.95744" stroke="#228B22" stroke-width="0.04000"/>
      <line x1="38.10407" y1="108.08423" x2="39.17009" y2="103.80865" stroke="#228B22" stroke-width="0.04000"/>
      <line x1="38.02010" y1="108.00764" x2="39.07696" y2="103.76883" stroke="#228B22" stroke-width="0.04000"/>
      <line x1="37.93613" y1="107.93106" x2="38.98382" y2="103.72901" stroke="#228B22" stroke-width="0.04000"/>
      <line x1="37.85217" y1="107.85448" x2="38.89069" y2="103.68920" stroke="#228B22" stroke-width="0.04000"/>
      <line x1="37.76651" y1="107.78467" x2="38.79614" y2="103.65506" stroke="#228B22" stroke-width="0.04000"/>
      <line x1="37.67878" y1="107.72320" x2="38.70152" y2="103.62121" stroke="#228B22" stroke-width="0.04000"/>
      <line x1="37.59104" y1="107.66174" x2="38.60690" y2="103.58735" stroke="#228B22" stroke-width="0.04000"/>
      <line x1="37.50330" y1="107.60027" x2="38.51228" y2="103.55350" stroke="#228B22" stroke-width="0.04000"/>
      <line x1="37.42180" y1="107.51382" x2="38.41766" y2="103.51965" stroke="#228B22" stroke-width="0.04000"/>
      <line x1="37.34405" y1="107.41229" x2="38.32304" y2="103.48579" stroke="#228B22" stroke-width="0.04000"/>
      <line x1="37.26630" y1="107.31077" x2="38.22842" y2="103.45193" stroke="#228B22" stroke-width="0.04000"/>
      <line x1="37.18855" y1="107.20924" x2="38.13380" y2="103.41808" stroke="#228B22" stroke-width="0.04000"/>
      <line x1="37.11080" y1="107.10772" x2="38.04951" y2="103.34277" stroke="#228B22" stroke-width="0.04000"/>
      <line x1="37.03194" y1="107.01069" x2="37.97464" y2="103.22971" stroke="#228B22" stroke-width="0.04000"/>
      <line x1="36.95269" y1="106.91518" x2="37.89825" y2="103.12272" stroke="#228B22" stroke-width="0.04000"/>
      <line x1="36.87344" y1="106.81966" x2="37.82187" y2="103.01574" stroke="#228B22" stroke-width="0.04000"/>
      <line x1="36.79419" y1="106.72414" x2="37.74548" y2="102.90875" stroke="#228B22" stroke-width="0.04000"/>
      <line x1="36.71495" y1="106.62863" x2="37.66909" y2="102.80177" stroke="#228B22" stroke-width="0.04000"/>
      <line x1="36.63570" y1="106.53312" x2="37.59270" y2="102.69479" stroke="#228B22" stroke-width="0.04000"/>
      <line x1="31.91759" y1="106.44204" x2="33.83218" y2="98.76301" stroke="#228B22" stroke-width="0.04000"/>
      <line x1="36.55991" y1="106.42372" x2="37.52698" y2="102.54504" stroke="#228B22" stroke-width="0.04000"/>
      <line x1="36.50895" y1="106.21476" x2="37.45422" y2="102.42348" stroke="#228B22" stroke-width="0.04000"/>
      <line x1="36.45656" y1="106.01154" x2="37.37423" y2="102.33096" stroke="#228B22" stroke-width="0.04000"/>
      <line x1="36.40417" y1="105.80830" x2="37.29424" y2="102.23845" stroke="#228B22" stroke-width="0.04000"/>
      <line x1="31.97565" y1="105.79578" x2="33.73122" y2="98.75458" stroke="#228B22" stroke-width="0.04000"/>
      <line x1="31.91144" y1="105.63997" x2="33.62307" y2="98.77499" stroke="#228B22" stroke-width="0.04000"/>
      <line x1="36.35178" y1="105.60507" x2="37.21424" y2="102.14594" stroke="#228B22" stroke-width="0.04000"/>
      <line x1="33.80156" y1="105.49954" x2="35.37672" y2="99.18189" stroke="#228B22" stroke-width="0.04000"/>
      <line x1="31.84723" y1="105.48415" x2="33.51492" y2="98.79542" stroke="#228B22" stroke-width="0.04000"/>
      <line x1="31.78302" y1="105.32834" x2="33.40677" y2="98.81583" stroke="#228B22" stroke-width="0.04000"/>
      <line x1="36.33539" y1="105.25748" x2="37.13425" y2="102.05343" stroke="#228B22" stroke-width="0.04000"/>
      <line x1="31.71880" y1="105.17252" x2="33.29861" y2="98.83625" stroke="#228B22" stroke-width="0.04000"/>
      <line x1="36.27386" y1="105.09089" x2="37.06851" y2="101.90371" stroke="#228B22" stroke-width="0.04000"/>
      <line x1="36.21233" y1="104.92431" x2="37.01141" y2="101.71936" stroke="#228B22" stroke-width="0.04000"/>
      <line x1="31.67892" y1="104.91913" x2="33.18897" y2="98.86266" stroke="#228B22" stroke-width="0.04000"/>
      <line x1="34.05824" y1="104.88342" x2="35.47266" y2="99.21049" stroke="#228B22" stroke-width="0.04000"/>
      <line x1="36.13602" y1="104.81699" x2="36.95432" y2="101.53501" stroke="#228B22" stroke-width="0.04000"/>
      <line x1="31.60375" y1="104.80728" x2="33.07707" y2="98.89811" stroke="#228B22" stroke-width="0.04000"/>
      <line x1="34.19127" y1="104.76323" x2="35.56824" y2="99.24049" stroke="#228B22" stroke-width="0.04000"/>
      <line x1="36.05804" y1="104.71645" x2="36.89916" y2="101.34286" stroke="#228B22" stroke-width="0.04000"/>
      <line x1="31.54037" y1="104.64812" x2="32.96517" y2="98.93356" stroke="#228B22" stroke-width="0.04000"/>
      <line x1="34.32429" y1="104.64306" x2="35.65336" y2="99.31242" stroke="#228B22" stroke-width="0.04000"/>
      <line x1="35.98004" y1="104.61589" x2="36.84681" y2="101.13947" stroke="#228B22" stroke-width="0.04000"/>
      <line x1="34.45496" y1="104.53231" x2="35.73849" y2="99.38437" stroke="#228B22" stroke-width="0.04000"/>
      <line x1="35.90205" y1="104.51534" x2="36.79446" y2="100.93606" stroke="#228B22" stroke-width="0.04000"/>
      <line x1="31.47902" y1="104.48081" x2="32.85327" y2="98.96902" stroke="#228B22" stroke-width="0.04000"/>
      <line x1="35.81052" y1="104.46911" x2="36.72877" y2="100.78622" stroke="#228B22" stroke-width="0.04000"/>
      <line x1="34.57411" y1="104.46779" x2="35.82361" y2="99.45631" stroke="#228B22" stroke-width="0.04000"/>
      <line x1="35.71629" y1="104.43367" x2="36.66091" y2="100.64500" stroke="#228B22" stroke-width="0.04000"/>
      <line x1="34.68859" y1="104.42200" x2="35.90874" y2="99.52825" stroke="#228B22" stroke-width="0.04000"/>
      <line x1="35.62207" y1="104.39822" x2="36.59306" y2="100.50379" stroke="#228B22" stroke-width="0.04000"/>
      <line x1="34.80307" y1="104.37621" x2="35.99152" y2="99.60960" stroke="#228B22" stroke-width="0.04000"/>
      <line x1="35.52784" y1="104.36278" x2="36.52521" y2="100.36258" stroke="#228B22" stroke-width="0.04000"/>
      <line x1="34.91755" y1="104.33041" x2="36.07366" y2="99.69348" stroke="#228B22" stroke-width="0.04000"/>
      <line x1="35.43362" y1="104.32733" x2="36.45641" y2="100.22516" stroke="#228B22" stroke-width="0.04000"/>
      <line x1="31.41768" y1="104.31351" x2="32.74137" y2="99.00447" stroke="#228B22" stroke-width="0.04000"/>
      <line x1="35.33940" y1="104.29189" x2="36.38434" y2="100.10087" stroke="#228B22" stroke-width="0.04000"/>
      <line x1="35.03203" y1="104.28461" x2="36.15581" y2="99.77736" stroke="#228B22" stroke-width="0.04000"/>
      <line x1="35.24517" y1="104.25645" x2="36.31165" y2="99.97904" stroke="#228B22" stroke-width="0.04000"/>
      <line x1="35.14651" y1="104.23882" x2="36.23796" y2="99.86124" stroke="#228B22" stroke-width="0.04000"/>
      <line x1="31.35633" y1="104.14620" x2="32.62946" y2="99.03993" stroke="#228B22" stroke-width="0.04000"/>
      <line x1="31.29498" y1="103.97890" x2="32.51756" y2="99.07539" stroke="#228B22" stroke-width="0.04000"/>
      <line x1="31.23559" y1="103.80373" x2="32.40064" y2="99.13098" stroke="#228B22" stroke-width="0.04000"/>
      <line x1="31.17628" y1="103.62824" x2="32.26386" y2="99.26623" stroke="#228B22" stroke-width="0.04000"/>
      <line x1="31.11698" y1="103.45275" x2="32.10881" y2="99.47474" stroke="#228B22" stroke-width="0.04000"/>
      <line x1="31.05767" y1="103.27727" x2="31.95376" y2="99.68326" stroke="#228B22" stroke-width="0.04000"/>
      <line x1="31.00451" y1="103.07716" x2="31.79859" y2="99.89224" stroke="#228B22" stroke-width="0.04000"/>
      <line x1="30.96151" y1="102.83625" x2="31.64263" y2="100.10442" stroke="#228B22" stroke-width="0.04000"/>
      <line x1="30.94724" y1="102.48013" x2="31.44949" y2="100.46570" stroke="#228B22" stroke-width="0.04000"/>
      <line x1="30.97012" y1="101.97497" x2="31.24615" y2="100.86788" stroke="#228B22" stroke-width="0.04000"/>
    </g>
    <g class="thermal-hatch" data-segment="8" data-name="CoreNormalHatch">
      <line x1="33.96590" y1="99.07730" x2="34.18810" y2="99.12510" stroke="#228B22" stroke-width="0.04000"/>
      <line x1="34.18810" y1="99.12510" x2="34.64100" y2="99.29960" stroke="#228B22" stroke-width="0.04000"/>
      <line x1="34.64100" y1="99.29960" x2="34.86540" y2="99.33200" stroke="#228B22" stroke-width="0.04000"/>
      <line x1="34.86540" y1="99.33200" x2="35.42450" y2="99.49860" stroke="#228B22" stroke-width="0.04000"/>
      <line x1="35.42450" y1="99.49860" x2="35.72920" y2="99.75610" stroke="#228B22" stroke-width="0.04000"/>
      <line x1="35.72920" y1="99.75610" x2="36.00910" y2="100.04200" stroke="#228B22" stroke-width="0.04000"/>
      <line x1="36.00910" y1="100.04200" x2="36.08970" y2="100.17090" stroke="#228B22" stroke-width="0.04000"/>
      <line x1="36.08970" y1="100.17090" x2="36.21670" y2="100.38990" stroke="#228B22" stroke-width="0.04000"/>
      <line x1="36.21670" y1="100.38990" x2="36.51330" y2="101.00750" stroke="#228B22" stroke-width="0.04000"/>
      <line x1="36.51330" y1="101.00750" x2="36.64160" y2="101.50530" stroke="#228B22" stroke-width="0.04000"/>
      <line x1="36.64160" y1="101.50530" x2="36.84510" y2="102.16230" stroke="#228B22" stroke-width="0.04000"/>
      <line x1="36.84510" y1="102.16230" x2="37.24970" y2="102.63020" stroke="#228B22" stroke-width="0.04000"/>
      <line x1="37.24970" y1="102.63020" x2="37.29720" y2="102.78010" stroke="#228B22" stroke-width="0.04000"/>
      <line x1="37.29720" y1="102.78010" x2="37.78680" y2="103.46580" stroke="#228B22" stroke-width="0.04000"/>
      <line x1="37.78680" y1="103.46580" x2="37.86970" y2="103.63160" stroke="#228B22" stroke-width="0.04000"/>
      <line x1="37.86970" y1="103.63160" x2="38.78310" y2="103.95840" stroke="#228B22" stroke-width="0.04000"/>
      <line x1="38.78310" y1="103.95840" x2="39.62470" y2="104.31850" stroke="#228B22" stroke-width="0.04000"/>
      <line x1="39.62470" y1="104.31850" x2="39.66680" y2="104.32800" stroke="#228B22" stroke-width="0.04000"/>
      <line x1="39.66680" y1="104.32800" x2="39.79730" y2="104.38420" stroke="#228B22" stroke-width="0.04000"/>
      <line x1="39.79730" y1="104.38420" x2="40.45540" y2="104.68000" stroke="#228B22" stroke-width="0.04000"/>
      <line x1="40.45540" y1="104.68000" x2="40.56280" y2="104.73320" stroke="#228B22" stroke-width="0.04000"/>
      <line x1="40.56280" y1="104.73320" x2="41.37270" y2="105.23330" stroke="#228B22" stroke-width="0.04000"/>
      <line x1="41.37270" y1="105.23330" x2="41.79480" y2="105.42310" stroke="#228B22" stroke-width="0.04000"/>
      <line x1="41.79480" y1="105.42310" x2="41.79480" y2="105.42300" stroke="#228B22" stroke-width="0.04000"/>
      <line x1="41.79480" y1="105.42300" x2="42.30080" y2="105.66410" stroke="#228B22" stroke-width="0.04000"/>
      <line x1="42.30080" y1="105.66410" x2="42.89100" y2="106.01170" stroke="#228B22" stroke-width="0.04000"/>
      <line x1="42.89100" y1="106.01170" x2="43.25890" y2="106.05520" stroke="#228B22" stroke-width="0.04000"/>
      <line x1="43.25890" y1="106.05520" x2="43.88420" y2="106.42800" stroke="#228B22" stroke-width="0.04000"/>
      <line x1="43.88420" y1="106.42800" x2="44.14810" y2="106.54140" stroke="#228B22" stroke-width="0.04000"/>
      <line x1="44.14810" y1="106.54140" x2="44.77670" y2="106.93080" stroke="#228B22" stroke-width="0.04000"/>
      <line x1="44.77670" y1="106.93080" x2="44.88750" y2="107.01300" stroke="#228B22" stroke-width="0.04000"/>
      <line x1="44.88750" y1="107.01300" x2="44.93910" y2="107.05770" stroke="#228B22" stroke-width="0.04000"/>
      <line x1="44.93910" y1="107.05770" x2="45.67300" y2="107.63570" stroke="#228B22" stroke-width="0.04000"/>
      <line x1="45.67300" y1="107.63570" x2="46.16570" y2="108.02560" stroke="#228B22" stroke-width="0.04000"/>
      <line x1="46.16570" y1="108.02560" x2="46.42470" y2="108.22250" stroke="#228B22" stroke-width="0.04000"/>
      <line x1="46.42470" y1="108.22250" x2="46.62910" y2="108.36750" stroke="#228B22" stroke-width="0.04000"/>
      <line x1="46.62910" y1="108.36750" x2="47.01290" y2="108.98260" stroke="#228B22" stroke-width="0.04000"/>
      <line x1="47.01290" y1="108.98260" x2="47.08270" y2="109.02670" stroke="#228B22" stroke-width="0.04000"/>
      <line x1="47.08270" y1="109.02670" x2="47.09410" y2="109.04490" stroke="#228B22" stroke-width="0.04000"/>
      <line x1="47.09410" y1="109.04490" x2="47.20810" y2="109.11680" stroke="#228B22" stroke-width="0.04000"/>
      <line x1="47.20810" y1="109.11680" x2="47.14490" y2="109.24490" stroke="#228B22" stroke-width="0.04000"/>
      <line x1="47.14490" y1="109.24490" x2="46.90800" y2="109.47630" stroke="#228B22" stroke-width="0.04000"/>
      <line x1="46.90800" y1="109.47630" x2="46.49540" y2="109.91740" stroke="#228B22" stroke-width="0.04000"/>
      <line x1="46.49540" y1="109.91740" x2="46.35320" y2="110.08390" stroke="#228B22" stroke-width="0.04000"/>
      <line x1="46.35320" y1="110.08390" x2="46.13670" y2="110.17530" stroke="#228B22" stroke-width="0.04000"/>
      <line x1="46.13670" y1="110.17530" x2="45.64000" y2="110.41120" stroke="#228B22" stroke-width="0.04000"/>
      <line x1="45.64000" y1="110.41120" x2="45.21410" y2="110.46030" stroke="#228B22" stroke-width="0.04000"/>
      <line x1="45.21410" y1="110.46030" x2="44.71580" y2="110.48990" stroke="#228B22" stroke-width="0.04000"/>
      <line x1="44.71580" y1="110.48990" x2="44.62860" y2="110.47760" stroke="#228B22" stroke-width="0.04000"/>
      <line x1="44.62860" y1="110.47760" x2="44.36410" y2="110.45460" stroke="#228B22" stroke-width="0.04000"/>
      <line x1="44.36410" y1="110.45460" x2="43.60020" y2="110.40360" stroke="#228B22" stroke-width="0.04000"/>
      <line x1="43.60020" y1="110.40360" x2="42.81390" y2="110.24960" stroke="#228B22" stroke-width="0.04000"/>
      <line x1="42.81390" y1="110.24960" x2="42.65620" y2="110.20060" stroke="#228B22" stroke-width="0.04000"/>
      <line x1="42.65620" y1="110.20060" x2="42.49260" y2="110.13500" stroke="#228B22" stroke-width="0.04000"/>
      <line x1="42.49260" y1="110.13500" x2="41.66370" y2="109.81180" stroke="#228B22" stroke-width="0.04000"/>
      <line x1="41.66370" y1="109.81180" x2="41.25510" y2="109.65730" stroke="#228B22" stroke-width="0.04000"/>
      <line x1="41.25510" y1="109.65730" x2="40.77060" y2="109.41700" stroke="#228B22" stroke-width="0.04000"/>
      <line x1="40.77060" y1="109.41700" x2="40.15720" y2="109.14230" stroke="#228B22" stroke-width="0.04000"/>
      <line x1="40.15720" y1="109.14230" x2="39.84280" y2="108.92200" stroke="#228B22" stroke-width="0.04000"/>
      <line x1="39.84280" y1="108.92200" x2="39.28910" y2="108.60730" stroke="#228B22" stroke-width="0.04000"/>
      <line x1="39.28910" y1="108.60730" x2="38.82560" y2="108.26370" stroke="#228B22" stroke-width="0.04000"/>
      <line x1="38.82560" y1="108.26370" x2="38.49360" y2="108.04700" stroke="#228B22" stroke-width="0.04000"/>
      <line x1="38.49360" y1="108.04700" x2="37.98740" y2="107.58540" stroke="#228B22" stroke-width="0.04000"/>
      <line x1="37.98740" y1="107.58540" x2="37.67310" y2="107.36500" stroke="#228B22" stroke-width="0.04000"/>
      <line x1="37.67310" y1="107.36500" x2="37.31790" y2="106.90130" stroke="#228B22" stroke-width="0.04000"/>
      <line x1="37.31790" y1="106.90130" x2="36.83250" y2="106.31610" stroke="#228B22" stroke-width="0.04000"/>
      <line x1="36.83250" y1="106.31610" x2="36.81330" y2="106.23370" stroke="#228B22" stroke-width="0.04000"/>
      <line x1="36.81330" y1="106.23370" x2="36.61110" y2="105.44980" stroke="#228B22" stroke-width="0.04000"/>
      <line x1="36.61110" y1="105.44980" x2="36.67150" y2="105.33090" stroke="#228B22" stroke-width="0.04000"/>
      <line x1="36.67150" y1="105.33090" x2="36.46260" y2="104.76490" stroke="#228B22" stroke-width="0.04000"/>
      <line x1="36.46260" y1="104.76490" x2="36.06800" y2="104.25620" stroke="#228B22" stroke-width="0.04000"/>
      <line x1="36.06800" y1="104.25620" x2="35.16840" y2="103.91770" stroke="#228B22" stroke-width="0.04000"/>
      <line x1="35.16840" y1="103.91770" x2="34.38200" y2="104.23210" stroke="#228B22" stroke-width="0.04000"/>
      <line x1="34.38200" y1="104.23210" x2="34.24530" y2="104.32360" stroke="#228B22" stroke-width="0.04000"/>
      <line x1="34.24530" y1="104.32360" x2="33.68730" y2="104.82770" stroke="#228B22" stroke-width="0.04000"/>
      <line x1="33.68730" y1="104.82770" x2="33.52700" y2="105.40430" stroke="#228B22" stroke-width="0.04000"/>
      <line x1="33.52700" y1="105.40430" x2="33.35660" y2="105.79560" stroke="#228B22" stroke-width="0.04000"/>
      <line x1="33.35660" y1="105.79560" x2="33.36540" y2="106.41450" stroke="#228B22" stroke-width="0.04000"/>
      <line x1="33.36540" y1="106.41450" x2="33.43590" y2="107.05760" stroke="#228B22" stroke-width="0.04000"/>
      <line x1="33.43590" y1="107.05760" x2="33.56230" y2="107.20550" stroke="#228B22" stroke-width="0.04000"/>
      <line x1="33.56230" y1="107.20550" x2="33.77320" y2="108.12010" stroke="#228B22" stroke-width="0.04000"/>
      <line x1="33.77320" y1="108.12010" x2="33.95940" y2="108.43710" stroke="#228B22" stroke-width="0.04000"/>
      <line x1="33.95940" y1="108.43710" x2="34.26910" y2="109.38440" stroke="#228B22" stroke-width="0.04000"/>
      <line x1="34.26910" y1="109.38440" x2="34.30470" y2="109.45010" stroke="#228B22" stroke-width="0.04000"/>
      <line x1="34.30470" y1="109.45010" x2="34.36610" y2="109.59220" stroke="#228B22" stroke-width="0.04000"/>
      <line x1="34.36610" y1="109.59220" x2="34.71040" y2="110.49640" stroke="#228B22" stroke-width="0.04000"/>
      <line x1="34.71040" y1="110.49640" x2="34.80770" y2="110.75120" stroke="#228B22" stroke-width="0.04000"/>
      <line x1="34.80770" y1="110.75120" x2="35.04960" y2="111.43980" stroke="#228B22" stroke-width="0.04000"/>
      <line x1="35.04960" y1="111.43980" x2="35.22530" y2="112.10900" stroke="#228B22" stroke-width="0.04000"/>
      <line x1="35.22530" y1="112.10900" x2="35.34710" y2="112.49600" stroke="#228B22" stroke-width="0.04000"/>
      <line x1="35.34710" y1="112.49600" x2="35.51780" y2="113.43990" stroke="#228B22" stroke-width="0.04000"/>
      <line x1="35.51780" y1="113.43990" x2="35.52990" y2="113.48740" stroke="#228B22" stroke-width="0.04000"/>
      <line x1="35.52990" y1="113.48740" x2="35.54190" y2="113.54740" stroke="#228B22" stroke-width="0.04000"/>
      <line x1="35.54190" y1="113.54740" x2="35.61550" y2="114.46550" stroke="#228B22" stroke-width="0.04000"/>
      <line x1="35.61550" y1="114.46550" x2="35.66480" y2="115.26020" stroke="#228B22" stroke-width="0.04000"/>
      <line x1="35.66480" y1="115.26020" x2="35.66480" y2="115.26030" stroke="#228B22" stroke-width="0.04000"/>
      <line x1="35.66480" y1="115.26030" x2="35.67160" y2="115.39570" stroke="#228B22" stroke-width="0.04000"/>
      <line x1="35.67160" y1="115.39570" x2="35.68070" y2="115.55100" stroke="#228B22" stroke-width="0.04000"/>
      <line x1="35.68070" y1="115.55100" x2="35.65850" y2="116.40980" stroke="#228B22" stroke-width="0.04000"/>
      <line x1="35.65850" y1="116.40980" x2="35.63060" y2="117.30720" stroke="#228B22" stroke-width="0.04000"/>
      <line x1="35.63060" y1="117.30720" x2="35.62580" y2="117.40360" stroke="#228B22" stroke-width="0.04000"/>
      <line x1="35.62580" y1="117.40360" x2="35.62240" y2="117.46710" stroke="#228B22" stroke-width="0.04000"/>
      <line x1="35.62240" y1="117.46710" x2="35.49330" y2="118.36480" stroke="#228B22" stroke-width="0.04000"/>
      <line x1="35.49330" y1="118.36480" x2="35.39320" y2="119.35730" stroke="#228B22" stroke-width="0.04000"/>
      <line x1="35.39320" y1="119.35730" x2="35.38950" y2="119.37340" stroke="#228B22" stroke-width="0.04000"/>
      <line x1="35.38950" y1="119.37340" x2="35.38210" y2="119.40420" stroke="#228B22" stroke-width="0.04000"/>
      <line x1="35.38210" y1="119.40420" x2="35.13460" y2="120.33780" stroke="#228B22" stroke-width="0.04000"/>
      <line x1="35.13460" y1="120.33780" x2="34.98030" y2="120.96700" stroke="#228B22" stroke-width="0.04000"/>
      <line x1="34.98030" y1="120.96700" x2="34.91310" y2="121.30790" stroke="#228B22" stroke-width="0.04000"/>
      <line x1="34.91310" y1="121.30790" x2="34.75830" y2="122.04660" stroke="#228B22" stroke-width="0.04000"/>
      <line x1="34.75830" y1="122.04660" x2="34.68630" y2="122.54380" stroke="#228B22" stroke-width="0.04000"/>
      <line x1="34.68630" y1="122.54380" x2="34.61680" y2="123.16760" stroke="#228B22" stroke-width="0.04000"/>
      <line x1="34.61680" y1="123.16760" x2="34.58140" y2="123.46610" stroke="#228B22" stroke-width="0.04000"/>
      <line x1="34.58140" y1="123.46610" x2="34.36750" y2="124.05130" stroke="#228B22" stroke-width="0.04000"/>
      <line x1="34.36750" y1="124.05130" x2="34.30580" y2="124.20840" stroke="#228B22" stroke-width="0.04000"/>
      <line x1="34.30580" y1="124.20840" x2="34.06650" y2="124.17080" stroke="#228B22" stroke-width="0.04000"/>
      <line x1="34.06650" y1="124.17080" x2="34.06660" y2="124.17080" stroke="#228B22" stroke-width="0.04000"/>
      <line x1="34.06660" y1="124.17080" x2="33.81940" y2="124.12950" stroke="#228B22" stroke-width="0.04000"/>
      <line x1="33.81940" y1="124.12950" x2="33.65820" y2="123.66300" stroke="#228B22" stroke-width="0.04000"/>
      <line x1="33.65820" y1="123.66300" x2="33.30930" y2="122.92260" stroke="#228B22" stroke-width="0.04000"/>
      <line x1="33.30930" y1="122.92260" x2="33.29600" y2="122.87500" stroke="#228B22" stroke-width="0.04000"/>
      <line x1="33.29600" y1="122.87500" x2="33.26750" y2="122.73970" stroke="#228B22" stroke-width="0.04000"/>
      <line x1="33.26750" y1="122.73970" x2="33.09130" y2="122.02950" stroke="#228B22" stroke-width="0.04000"/>
      <line x1="33.09130" y1="122.02950" x2="32.94670" y2="121.19010" stroke="#228B22" stroke-width="0.04000"/>
      <line x1="32.94670" y1="121.19010" x2="32.92270" y2="121.07720" stroke="#228B22" stroke-width="0.04000"/>
      <line x1="32.92270" y1="121.07720" x2="32.91710" y2="121.05030" stroke="#228B22" stroke-width="0.04000"/>
      <line x1="32.91710" y1="121.05030" x2="32.89370" y2="120.89620" stroke="#228B22" stroke-width="0.04000"/>
      <line x1="32.89370" y1="120.89620" x2="32.76300" y2="120.18480" stroke="#228B22" stroke-width="0.04000"/>
      <line x1="32.76300" y1="120.18480" x2="32.68420" y2="119.59610" stroke="#228B22" stroke-width="0.04000"/>
      <line x1="32.68420" y1="119.59610" x2="32.62460" y2="119.25390" stroke="#228B22" stroke-width="0.04000"/>
      <line x1="32.62460" y1="119.25390" x2="32.60270" y2="119.10960" stroke="#228B22" stroke-width="0.04000"/>
      <line x1="32.60270" y1="119.10960" x2="32.45890" y2="118.32330" stroke="#228B22" stroke-width="0.04000"/>
      <line x1="32.45890" y1="118.32330" x2="32.38550" y2="117.72480" stroke="#228B22" stroke-width="0.04000"/>
      <line x1="32.38550" y1="117.72480" x2="32.33140" y2="117.37810" stroke="#228B22" stroke-width="0.04000"/>
      <line x1="32.33140" y1="117.37810" x2="32.26030" y2="116.65190" stroke="#228B22" stroke-width="0.04000"/>
      <line x1="32.26030" y1="116.65190" x2="32.22560" y2="116.49210" stroke="#228B22" stroke-width="0.04000"/>
      <line x1="32.22560" y1="116.49210" x2="32.20710" y2="116.43060" stroke="#228B22" stroke-width="0.04000"/>
      <line x1="32.20710" y1="116.43060" x2="32.01150" y2="115.52670" stroke="#228B22" stroke-width="0.04000"/>
      <line x1="32.01150" y1="115.52670" x2="31.89640" y2="115.17690" stroke="#228B22" stroke-width="0.04000"/>
      <line x1="31.89640" y1="115.17690" x2="31.74920" y2="114.61030" stroke="#228B22" stroke-width="0.04000"/>
      <line x1="31.74920" y1="114.61030" x2="31.51590" y2="113.88380" stroke="#228B22" stroke-width="0.04000"/>
      <line x1="31.51590" y1="113.88380" x2="31.48340" y2="113.78910" stroke="#228B22" stroke-width="0.04000"/>
      <line x1="31.48340" y1="113.78910" x2="31.43240" y2="113.57170" stroke="#228B22" stroke-width="0.04000"/>
      <line x1="31.43240" y1="113.57170" x2="31.27410" y2="112.95740" stroke="#228B22" stroke-width="0.04000"/>
      <line x1="31.27410" y1="112.95740" x2="31.26820" y2="112.70580" stroke="#228B22" stroke-width="0.04000"/>
      <line x1="31.26820" y1="112.70580" x2="31.16470" y2="112.05150" stroke="#228B22" stroke-width="0.04000"/>
      <line x1="31.16470" y1="112.05150" x2="31.22460" y2="111.76930" stroke="#228B22" stroke-width="0.04000"/>
      <line x1="31.22460" y1="111.76930" x2="31.22490" y2="110.81170" stroke="#228B22" stroke-width="0.04000"/>
      <line x1="31.22490" y1="110.81170" x2="31.22820" y2="110.80000" stroke="#228B22" stroke-width="0.04000"/>
      <line x1="31.22820" y1="110.80000" x2="31.24630" y2="110.71270" stroke="#228B22" stroke-width="0.04000"/>
      <line x1="31.24630" y1="110.71270" x2="31.45890" y2="109.80450" stroke="#228B22" stroke-width="0.04000"/>
      <line x1="31.45890" y1="109.80450" x2="31.48970" y2="109.30770" stroke="#228B22" stroke-width="0.04000"/>
      <line x1="31.48970" y1="109.30770" x2="31.68790" y2="108.88560" stroke="#228B22" stroke-width="0.04000"/>
      <line x1="31.68790" y1="108.88560" x2="31.79590" y2="108.09840" stroke="#228B22" stroke-width="0.04000"/>
      <line x1="31.79590" y1="108.09840" x2="31.86330" y2="108.00740" stroke="#228B22" stroke-width="0.04000"/>
      <line x1="31.86330" y1="108.00740" x2="32.15370" y2="106.91610" stroke="#228B22" stroke-width="0.04000"/>
      <line x1="32.15370" y1="106.91610" x2="32.28660" y2="105.78900" stroke="#228B22" stroke-width="0.04000"/>
      <line x1="32.28660" y1="105.78900" x2="31.97700" y2="105.03810" stroke="#228B22" stroke-width="0.04000"/>
      <line x1="31.97700" y1="105.03810" x2="31.96560" y2="104.82580" stroke="#228B22" stroke-width="0.04000"/>
      <line x1="31.96560" y1="104.82580" x2="31.85280" y2="104.65790" stroke="#228B22" stroke-width="0.04000"/>
      <line x1="31.85280" y1="104.65790" x2="31.56560" y2="103.87450" stroke="#228B22" stroke-width="0.04000"/>
      <line x1="31.56560" y1="103.87450" x2="31.32510" y2="103.16320" stroke="#228B22" stroke-width="0.04000"/>
      <line x1="31.32510" y1="103.16320" x2="31.26260" y2="102.91440" stroke="#228B22" stroke-width="0.04000"/>
      <line x1="31.26260" y1="102.91440" x2="31.25180" y2="102.83400" stroke="#228B22" stroke-width="0.04000"/>
      <line x1="31.25180" y1="102.83400" x2="31.23580" y2="102.51660" stroke="#228B22" stroke-width="0.04000"/>
      <line x1="31.23580" y1="102.51660" x2="31.26720" y2="101.82190" stroke="#228B22" stroke-width="0.04000"/>
      <line x1="31.26720" y1="101.82190" x2="31.44560" y2="101.14110" stroke="#228B22" stroke-width="0.04000"/>
      <line x1="31.44560" y1="101.14110" x2="31.55050" y2="100.89140" stroke="#228B22" stroke-width="0.04000"/>
      <line x1="31.55050" y1="100.89140" x2="31.88990" y2="100.25660" stroke="#228B22" stroke-width="0.04000"/>
      <line x1="31.88990" y1="100.25660" x2="32.07740" y2="100.00260" stroke="#228B22" stroke-width="0.04000"/>
      <line x1="32.07740" y1="100.00260" x2="32.53410" y2="99.38820" stroke="#228B22" stroke-width="0.04000"/>
      <line x1="32.53410" y1="99.38820" x2="32.59990" y2="99.35330" stroke="#228B22" stroke-width="0.04000"/>
      <line x1="32.59990" y1="99.35330" x2="33.30380" y2="99.13020" stroke="#228B22" stroke-width="0.04000"/>
      <line x1="33.30380" y1="99.13020" x2="33.75710" y2="99.04460" stroke="#228B22" stroke-width="0.04000"/>
      <line x1="33.75710" y1="99.04460" x2="33.96590" y2="99.07730" stroke="#228B22" stroke-width="0.04000"/>
    </g>
    <g class="thermal-hatch" data-segment="7" data-name="CoreOverhangHatch">
      <line x1="47.31120" y1="109.17100" x2="47.19200" y2="109.41260" stroke="#FF8C00" stroke-width="0.04000"/>
      <line x1="47.19200" y1="109.41260" x2="46.70620" y2="109.88700" stroke="#FF8C00" stroke-width="0.04000"/>
      <line x1="46.70620" y1="109.88700" x2="46.58330" y2="109.98700" stroke="#FF8C00" stroke-width="0.04000"/>
      <line x1="46.58330" y1="109.98700" x2="46.50870" y2="110.01840" stroke="#FF8C00" stroke-width="0.04000"/>
      <line x1="46.50870" y1="110.01840" x2="46.35320" y2="110.08390" stroke="#FF8C00" stroke-width="0.04000"/>
      <line x1="46.35320" y1="110.08390" x2="46.49540" y2="109.91740" stroke="#FF8C00" stroke-width="0.04000"/>
      <line x1="46.49540" y1="109.91740" x2="46.90800" y2="109.47630" stroke="#FF8C00" stroke-width="0.04000"/>
      <line x1="46.90800" y1="109.47630" x2="47.14490" y2="109.24490" stroke="#FF8C00" stroke-width="0.04000"/>
      <line x1="47.14490" y1="109.24490" x2="47.20810" y2="109.11680" stroke="#FF8C00" stroke-width="0.04000"/>
      <line x1="47.20810" y1="109.11680" x2="47.09410" y2="109.04490" stroke="#FF8C00" stroke-width="0.04000"/>
      <line x1="47.09410" y1="109.04490" x2="47.08270" y2="109.02670" stroke="#FF8C00" stroke-width="0.04000"/>
      <line x1="47.08270" y1="109.02670" x2="47.31120" y2="109.17100" stroke="#FF8C00" stroke-width="0.04000"/>
    </g>
    <g class="thermal-contour" data-segment="1" data-name="CoreContour_Volume">
    <path d="M 34.021 98.7925 L 34.2706 98.8463 L 34.7147 99.0172 L 34.9276 99.048 L 35.5655 99.2382 L 35.9268 99.5435 L 36.2384 99.8617 L 36.3406 100.025 L 36.4726 100.253 L 36.7872 100.908 L 36.9206 101.426 L 37.1041 102.019 L 37.5082 102.486 L 37.5599 102.649 L 38.0358 103.315 L 38.077 103.398 L 38.8862 103.687 L 39.7147 104.041 L 39.7574 104.051 L 39.9065 104.115 L 40.5789 104.418 L 40.704 104.48 L 41.509 104.977 L 41.9201 105.162 L 42.438 105.408 L 42.9856 105.731 L 43.3545 105.775 L 44.0162 106.169 L 44.2824 106.283 L 44.9398 106.691 L 45.0693 106.787 L 45.1238 106.834 L 45.821 107.383 L 46.3435 107.796 L 46.5964 107.989 L 46.8444 108.165 L 47.2238 108.773 L 47.687 109.065 L 47.4302 109.586 L 46.9007 110.103 L 46.7338 110.239 L 46.6211 110.286 L 46.2553 110.44 L 45.7212 110.694 L 45.2398 110.749 L 44.7034 110.781 L 44.5955 110.766 L 44.3419 110.744 L 43.5637 110.692 L 42.7423 110.531 L 42.5597 110.474 L 42.3859 110.405 L 41.5597 110.083 L 41.1392 109.923 L 40.6468 109.679 L 40.0139 109.396 L 39.6876 109.167 L 39.1311 108.851 L 38.66 108.502 L 38.3159 108.277 L 37.8058 107.812 L 37.4703 107.577 L 37.0911 107.082 L 36.5658 106.449 L 36.5317 106.303 L 36.3031 105.416 L 36.3557 105.313 L 36.206 104.907 L 35.8891 104.499 L 35.1716 104.229 L 34.518 104.49 L 34.424 104.553 L 33.9442 104.986 L 33.8008 105.502 L 33.6475 105.854 L 33.6551 106.397 L 33.7143 106.937 L 33.8289 107.071 L 34.0458 108.012 L 34.2256 108.318 L 34.5365 109.269 L 34.5662 109.324 L 34.6355 109.485 L 34.9813 110.393 L 35.0786 110.648 L 35.3273 111.356 L 35.504 112.029 L 35.6295 112.427 L 35.8012 113.378 L 35.8134 113.425 L 35.8298 113.507 L 35.9046 114.442 L 35.9544 115.245 L 35.9613 115.38 L 35.971 115.551 L 35.9485 116.419 L 35.9203 117.321 L 35.9155 117.419 L 35.9115 117.495 L 35.7813 118.4 L 35.6799 119.406 L 35.6716 119.441 L 35.6625 119.478 L 35.4156 120.41 L 35.2636 121.03 L 35.197 121.367 L 35.044 122.097 L 34.974 122.581 L 34.9048 123.202 L 34.8656 123.534 L 34.6375 124.157 L 34.491 124.531 L 34.0247 124.458 L 33.6016 124.387 L 33.3891 123.773 L 33.0369 123.025 L 33.0141 122.943 L 32.9848 122.805 L 32.8081 122.092 L 32.6619 121.245 L 32.6391 121.137 L 32.6312 121.099 L 32.6077 120.944 L 32.4769 120.233 L 32.3974 119.64 L 32.3381 119.299 L 32.3167 119.157 L 32.1722 118.367 L 32.0981 117.765 L 32.0436 117.414 L 31.9732 116.697 L 31.9446 116.564 L 31.9262 116.503 L 31.7313 115.603 L 31.6181 115.259 L 31.4705 114.691 L 31.2407 113.975 L 31.2045 113.869 L 31.1508 113.641 L 30.985 112.997 L 30.9788 112.732 L 30.8701 112.045 L 30.9346 111.739 L 30.9352 110.773 L 30.9461 110.733 L 30.9639 110.647 L 31.1709 109.762 L 31.2038 109.234 L 31.4066 108.802 L 31.5187 107.986 L 31.5972 107.879 L 31.8681 106.862 L 31.9897 105.83 L 31.6902 105.103 L 31.6803 104.921 L 31.5927 104.791 L 31.2926 103.972 L 31.0464 103.244 L 30.9775 102.97 L 30.9627 102.86 L 30.9455 102.518 L 30.979 101.778 L 31.1705 101.048 L 31.289 100.766 L 31.6439 100.102 L 31.826 99.8551 L 32.3407 99.1629 L 32.4865 99.0852 L 33.2335 98.8485 L 33.7525 98.7506 L 34.021 98.7925" fill="none" stroke="#000000" stroke-width="0.05000" fill-rule="evenodd" fill-opacity="1.000"/>
    </g>
    <g class="thermal-contour" data-segment="1" data-name="CoreContour_Volume">
    <path d="M 33.9828 98.9889 L 34.2141 99.0387 L 34.6639 99.212 L 34.885 99.2439 L 35.4681 99.4177 L 35.7909 99.6905 L 36.0802 99.9859 L 36.1676 100.126 L 36.2962 100.348 L 36.5984 100.977 L 36.7282 101.481 L 36.9255 102.118 L 37.3299 102.585 L 37.3787 102.739 L 37.8642 103.419 L 37.934 103.559 L 38.816 103.875 L 39.6526 104.232 L 39.6949 104.242 L 39.8329 104.301 L 40.4942 104.599 L 40.6066 104.654 L 41.415 105.154 L 41.8317 105.341 L 42.3442 105.585 L 42.9204 105.924 L 43.2885 105.968 L 43.9252 106.348 L 44.1898 106.461 L 44.8274 106.856 L 44.9435 106.942 L 44.9964 106.988 L 45.7287 107.565 L 46.2209 107.954 L 46.478 108.15 L 46.5819 108.224 L 47.0827 109.027 L 47.0129 108.983 L 46.6291 108.368 L 46.4247 108.223 L 46.1657 108.026 L 45.673 107.636 L 44.9391 107.058 L 44.8875 107.013 L 44.7767 106.931 L 44.1481 106.541 L 43.8842 106.428 L 43.2589 106.055 L 42.891 106.012 L 42.3008 105.664 L 41.7948 105.423 L 41.7948 105.423 L 41.3727 105.233 L 40.5628 104.733 L 40.4554 104.68 L 39.7973 104.384 L 39.6668 104.328 L 39.6247 104.318 L 38.7831 103.958 L 37.8697 103.632 L 37.7868 103.466 L 37.2972 102.78 L 37.2497 102.63 L 36.8451 102.162 L 36.6416 101.505 L 36.5133 101.007 L 36.2167 100.39 L 36.0897 100.171 L 36.0091 100.042 L 35.7292 99.7561 L 35.4245 99.4986 L 34.8654 99.332 L 34.641 99.2996 L 34.1881 99.1251 L 33.9659 99.0773 L 33.7571 99.0446 L 33.3038 99.1302 L 32.5999 99.3533 L 32.5341 99.3882 L 32.0774 100.003 L 31.8899 100.257 L 31.5505 100.891 L 31.4456 101.141 L 31.2672 101.822 L 31.2358 102.517 L 31.2518 102.834 L 31.2626 102.914 L 31.3251 103.163 L 31.5656 103.874 L 31.8528 104.658 L 31.9656 104.826 L 31.977 105.038 L 32.2866 105.789 L 32.1537 106.916 L 31.8633 108.007 L 31.7959 108.098 L 31.6879 108.886 L 31.4897 109.308 L 31.4589 109.804 L 31.2463 110.713 L 31.2282 110.8 L 31.2249 110.812 L 31.2246 111.769 L 31.1647 112.051 L 31.2682 112.706 L 31.2741 112.957 L 31.4324 113.572 L 31.4834 113.789 L 31.5159 113.884 L 31.7492 114.61 L 31.8964 115.177 L 32.0115 115.527 L 32.2071 116.431 L 32.2256 116.492 L 32.2603 116.652 L 32.3314 117.378 L 32.3855 117.725 L 32.4589 118.323 L 32.6027 119.11 L 32.6246 119.254 L 32.6842 119.596 L 32.763 120.185 L 32.8937 120.896 L 32.9171 121.05 L 32.9227 121.077 L 32.9467 121.19 L 33.0913 122.03 L 33.2675 122.74 L 33.296 122.875 L 33.3093 122.923 L 33.6582 123.663 L 33.8194 124.13 L 34.0666 124.171 L 34.0665 124.171 L 34.3058 124.208 L 34.3675 124.051 L 34.5814 123.466 L 34.6168 123.168 L 34.6863 122.544 L 34.7583 122.047 L 34.9131 121.308 L 34.9803 120.967 L 35.1346 120.338 L 35.3821 119.404 L 35.3895 119.373 L 35.3932 119.357 L 35.4933 118.365 L 35.6224 117.467 L 35.6258 117.404 L 35.6306 117.307 L 35.6585 116.41 L 35.6807 115.551 L 35.6716 115.396 L 35.6648 115.26 L 35.6648 115.26 L 35.6155 114.465 L 35.5419 113.547 L 35.5299 113.487 L 35.5178 113.44 L 35.3471 112.496 L 35.2253 112.109 L 35.0496 111.44 L 34.8077 110.751 L 34.7104 110.496 L 34.3661 109.592 L 34.3047 109.45 L 34.2691 109.384 L 33.9594 108.437 L 33.7732 108.12 L 33.5623 107.205 L 33.4359 107.058 L 33.3654 106.414 L 33.3566 105.796 L 33.527 105.404 L 33.6873 104.828 L 34.2453 104.324 L 34.382 104.232 L 35.1684 103.918 L 36.068 104.256 L 36.4626 104.765 L 36.6715 105.331 L 36.6111 105.45 L 36.8133 106.234 L 36.8325 106.316 L 37.3179 106.901 L 37.6731 107.365 L 37.9874 107.585 L 38.4936 108.047 L 38.8256 108.264 L 39.2891 108.607 L 39.8428 108.922 L 40.1572 109.142 L 40.7706 109.417 L 41.2551 109.657 L 41.6637 109.812 L 42.4926 110.135 L 42.6562 110.201 L 42.8139 110.25 L 43.6002 110.404 L 44.3641 110.455 L 44.6286 110.478 L 44.7158 110.49 L 45.2141 110.46 L 45.64 110.411 L 46.1367 110.175 L 46.3532 110.084 L 46.3046 110.141 L 45.6298 110.462 L 44.7984 110.558 L 44.6982 110.578 L 44.6184 110.567 L 44.3572 110.544 L 43.5887 110.493 L 42.7921 110.337 L 42.6259 110.285 L 42.4595 110.219 L 41.6314 109.896 L 41.2194 109.74 L 40.7322 109.498 L 40.1127 109.221 L 39.7946 108.998 L 39.2403 108.683 L 38.7742 108.338 L 38.4387 108.119 L 37.931 107.656 L 37.6103 107.431 L 37.2475 106.957 L 36.7497 106.357 L 36.7259 106.255 L 36.5155 105.439 L 36.5735 105.325 L 36.383 104.809 L 36.0125 104.331 L 35.1694 104.014 L 34.4242 104.312 L 34.3008 104.395 L 33.767 104.877 L 33.6121 105.434 L 33.4469 105.814 L 33.4553 106.409 L 33.5223 107.02 L 33.6451 107.164 L 33.8578 108.086 L 34.0419 108.4 L 34.3521 109.349 L 34.3858 109.411 L 34.4495 109.558 L 34.7945 110.464 L 34.8918 110.719 L 35.1357 111.413 L 35.3118 112.084 L 35.4349 112.475 L 35.6058 113.421 L 35.6179 113.468 L 35.6312 113.535 L 35.7052 114.458 L 35.7547 115.256 L 35.7615 115.391 L 35.7708 115.551 L 35.7485 116.413 L 35.7205 117.312 L 35.7157 117.408 L 35.7121 117.476 L 35.5827 118.376 L 35.4821 119.372 L 35.477 119.395 L 35.4691 119.427 L 35.2218 120.36 L 35.0682 120.986 L 35.0012 121.326 L 34.847 122.062 L 34.7756 122.555 L 34.7062 123.178 L 34.6696 123.487 L 34.4513 124.084 L 34.382 124.261 L 34.2917 124.247 L 33.7323 124.153 L 33.5747 123.697 L 33.2247 122.954 L 33.2085 122.896 L 33.1798 122.76 L 33.0033 122.049 L 32.8583 121.207 L 32.8347 121.096 L 32.8284 121.066 L 32.8049 120.911 L 32.6741 120.199 L 32.5952 119.61 L 32.5359 119.269 L 32.5139 119.124 L 32.37 118.337 L 32.2963 117.737 L 32.242 117.388 L 32.1712 116.666 L 32.1384 116.515 L 32.1198 116.452 L 31.9245 115.55 L 31.8101 115.203 L 31.6627 114.635 L 31.4305 113.912 L 31.3968 113.814 L 31.345 113.593 L 31.1844 112.97 L 31.1784 112.714 L 31.0733 112.049 L 31.1346 111.76 L 31.135 110.8 L 31.1407 110.779 L 31.1587 110.692 L 31.3695 109.791 L 31.401 109.285 L 31.6006 108.86 L 31.7099 108.063 L 31.7807 107.968 L 32.0651 106.899 L 32.1945 105.802 L 31.888 105.058 L 31.8771 104.855 L 31.7721 104.699 L 31.4804 103.904 L 31.2388 103.189 L 31.1741 102.932 L 31.1621 102.842 L 31.1457 102.517 L 31.1778 101.808 L 31.3601 101.112 L 31.4692 100.853 L 31.8135 100.209 L 32.0052 99.9489 L 32.4741 99.3183 L 32.565 99.27 L 33.2815 99.0429 L 33.7558 98.9534 L 33.9828 98.9889" fill="none" stroke="#000000" stroke-width="0.05000" fill-rule="evenodd" fill-opacity="1.000"/>
    </g>
    <g class="thermal-contour" data-segment="2" data-name="CoreContour_Overhang">
    <path d="M 34.2917 124.247 L 34.382 124.261 L 34.3633 124.309 L 34.0518 124.26 L 33.7518 124.21 L 33.7323 124.153 L 34.2917 124.247" fill="none" stroke="#8B0000" stroke-width="0.05000" fill-rule="evenodd" fill-opacity="1.000"/>
    <path d="M 46.696 108.305 L 47.0784 108.918 L 47.4278 109.138 L 47.2659 109.466 L 46.7665 109.954 L 46.63 110.065 L 46.5436 110.101 L 46.1735 110.257 L 45.6652 110.499 L 45.2226 110.55 L 44.712 110.58 L 44.6982 110.578 L 44.7984 110.558 L 45.6298 110.462 L 46.3046 110.141 L 46.3532 110.084 L 46.5087 110.018 L 46.5833 109.987 L 46.7062 109.887 L 47.192 109.413 L 47.3112 109.171 L 47.0827 109.027 L 46.5819 108.224 L 46.696 108.305" fill="none" stroke="#8B0000" stroke-width="0.05000" fill-rule="evenodd" fill-opacity="1.000"/>
    </g>
    <g class="thermal-contour" data-segment="3" data-name="HollowShell1Contour_Volume">
    <path d="M 34.021 98.7925 L 34.2706 98.8463 L 34.7147 99.0172 L 34.9276 99.048 L 35.5655 99.2382 L 35.9268 99.5435 L 36.2384 99.8617 L 36.3406 100.025 L 36.4726 100.253 L 36.7872 100.908 L 36.9206 101.426 L 37.1041 102.019 L 37.5082 102.486 L 37.5599 102.649 L 38.0358 103.315 L 38.077 103.398 L 38.8862 103.687 L 39.7147 104.041 L 39.7574 104.051 L 39.9065 104.115 L 40.5789 104.418 L 40.704 104.48 L 41.509 104.977 L 41.9201 105.162 L 42.438 105.408 L 42.9856 105.731 L 43.326 105.771 L 44.1884 106.285 L 44.2085 106.294 L 44.258 106.325 L 44.7584 106.696 L 44.2361 106.372 L 43.9707 106.258 L 43.3215 105.871 L 42.953 105.828 L 42.3911 105.497 L 41.8771 105.252 L 41.8771 105.252 L 41.462 105.065 L 40.6551 104.567 L 40.5371 104.508 L 39.867 104.207 L 39.867 104.207 L 39.7262 104.147 L 39.6836 104.137 L 38.8511 103.781 L 38.0055 103.478 L 37.95 103.367 L 37.4693 102.694 L 37.4191 102.536 L 37.0148 102.068 L 36.8244 101.453 L 36.6928 100.942 L 36.3844 100.3 L 36.2541 100.076 L 36.1593 99.9238 L 35.8586 99.6168 L 35.5169 99.328 L 34.9063 99.1459 L 34.6893 99.1146 L 34.2424 98.9425 L 34.0017 98.8907 L 33.7542 98.852 L 33.2575 98.9457 L 32.5258 99.1776 L 32.4074 99.2406 L 31.9064 99.9143 L 31.9065 99.9144 L 31.7288 100.155 L 31.3791 100.809 L 31.2653 101.08 L 31.0784 101.793 L 31.0456 102.518 L 31.0624 102.851 L 31.0758 102.951 L 31.1426 103.216 L 31.3865 103.938 L 31.6824 104.745 L 31.7787 104.888 L 31.7891 105.081 L 32.0921 105.816 L 31.9666 106.88 L 31.689 107.924 L 31.6143 108.025 L 31.5036 108.831 L 31.3024 109.26 L 31.2702 109.777 L 31.0613 110.669 L 31.0434 110.756 L 31.0351 110.786 L 31.0346 111.749 L 30.9717 112.047 L 31.0786 112.723 L 31.0847 112.984 L 31.2479 113.617 L 31.3005 113.841 L 31.3356 113.944 L 31.5666 114.663 L 31.7141 115.231 L 31.8279 115.577 L 32.023 116.478 L 32.0415 116.539 L 32.0722 116.681 L 32.1428 117.401 L 32.1972 117.751 L 32.2711 118.352 L 32.4153 119.141 L 32.437 119.284 L 32.4963 119.625 L 32.5755 120.216 L 32.7063 120.928 L 32.7298 121.082 L 32.7369 121.117 L 32.7601 121.226 L 32.9057 122.07 L 33.0823 122.782 L 33.1111 122.919 L 33.1308 122.989 L 33.4819 123.735 L 33.62 124.134 L 33.5522 124.123 L 33.4317 123.775 L 33.1791 123.238 L 33.0535 122.925 L 32.9865 122.813 L 32.9848 122.804 L 32.8081 122.092 L 32.6619 121.245 L 32.6391 121.137 L 32.6312 121.099 L 32.6077 120.944 L 32.4769 120.233 L 32.3974 119.64 L 32.3381 119.299 L 32.3167 119.157 L 32.1722 118.367 L 32.0981 117.765 L 32.0436 117.414 L 31.9732 116.697 L 31.9446 116.564 L 31.9362 116.537 L 31.929 116.484 L 31.8529 115.835 L 31.7834 115.513 L 31.753 115.421 L 31.5331 114.575 L 31.3903 114.13 L 31.265 113.765 L 31.0797 112.976 L 31.0577 112.89 L 31.0569 112.855 L 30.904 111.889 L 30.9287 111.772 L 30.9287 111.767 L 30.9346 111.739 L 30.9348 111.356 L 30.9348 111.271 L 30.9781 110.778 L 30.9625 110.653 L 30.9633 110.65 L 30.9639 110.647 L 31.1709 109.762 L 31.2038 109.234 L 31.4066 108.802 L 31.5187 107.986 L 31.5972 107.88 L 31.8681 106.862 L 31.9897 105.83 L 31.6902 105.103 L 31.6803 104.921 L 31.5927 104.791 L 31.2926 103.972 L 31.0464 103.244 L 30.9775 102.97 L 30.9627 102.86 L 30.9455 102.518 L 30.979 101.778 L 31.1705 101.048 L 31.289 100.766 L 31.6439 100.102 L 31.826 99.8551 L 32.3407 99.1629 L 32.4866 99.0852 L 33.2335 98.8485 L 33.7525 98.7506 L 34.021 98.7925" fill="none" stroke="#0000CC" stroke-width="0.05000" fill-rule="evenodd" fill-opacity="1.000"/>
    <path d="M 35.2559 120.641 L 35.3187 120.385 L 35.3191 120.383 L 35.2559 120.641" fill="none" stroke="#0000CC" stroke-width="0.05000" fill-rule="evenodd" fill-opacity="1.000"/>
    <path d="M 35.9508 104.415 L 36.2945 104.858 L 36.4646 105.319 L 36.4093 105.428 L 36.6288 106.279 L 36.6577 106.403 L 37.1693 107.02 L 37.5403 107.504 L 37.8684 107.734 L 38.3773 108.198 L 38.7171 108.42 L 39.1854 108.767 L 39.7411 109.083 L 40.0633 109.309 L 40.6895 109.589 L 41.1793 109.832 L 41.5956 109.989 L 42.4227 110.312 L 42.5845 110.377 L 42.3806 110.324 L 41.6231 110.029 L 40.9768 109.784 L 40.7488 109.671 L 39.8911 109.287 L 39.7585 109.194 L 39.0538 108.794 L 38.66 108.502 L 38.3159 108.277 L 37.8058 107.812 L 37.4703 107.577 L 37.0911 107.082 L 36.5658 106.449 L 36.5317 106.303 L 36.3031 105.416 L 36.3557 105.313 L 36.206 104.907 L 35.8891 104.499 L 35.1716 104.229 L 34.518 104.49 L 34.424 104.553 L 33.9442 104.986 L 33.8008 105.502 L 33.6475 105.854 L 33.6551 106.396 L 33.7143 106.937 L 33.8289 107.071 L 34.0458 108.012 L 34.2256 108.317 L 34.5365 109.269 L 34.5662 109.324 L 34.6355 109.484 L 34.9813 110.393 L 35.0786 110.648 L 35.3273 111.356 L 35.504 112.029 L 35.6295 112.427 L 35.8012 113.378 L 35.8134 113.425 L 35.8298 113.507 L 35.9046 114.442 L 35.9483 115.146 L 35.9429 115.363 L 35.9392 115.577 L 35.918 116.394 L 35.8948 117.136 L 35.8609 117.4 L 35.8244 117.71 L 35.7294 118.37 L 35.6673 118.986 L 35.5877 119.322 L 35.682 118.388 L 35.8118 117.485 L 35.8156 117.414 L 35.8204 117.317 L 35.8485 116.416 L 35.8709 115.551 L 35.8614 115.385 L 35.8545 115.25 L 35.8545 115.25 L 35.8049 114.45 L 35.7305 113.521 L 35.7157 113.447 L 35.7035 113.399 L 35.5322 112.451 L 35.4079 112.056 L 35.2315 111.384 L 34.9852 110.683 L 34.8879 110.429 L 34.5425 109.521 L 34.4759 109.367 L 34.4443 109.309 L 34.1338 108.359 L 33.9518 108.049 L 33.737 107.117 L 33.6183 106.979 L 33.5552 106.403 L 33.5472 105.834 L 33.7065 105.468 L 33.8556 104.932 L 34.3624 104.474 L 34.4711 104.401 L 35.1705 104.121 L 35.9508 104.415" fill="none" stroke="#0000CC" stroke-width="0.05000" fill-rule="evenodd" fill-opacity="1.000"/>
    <path d="M 35.1657 121.009 L 35.1659 121.008 L 35.2559 120.641 L 35.1657 121.009" fill="none" stroke="#0000CC" stroke-width="0.05000" fill-rule="evenodd" fill-opacity="1.000"/>
    </g>
    <g class="thermal-contour" data-segment="4" data-name="HollowShell1Contour_Overhang">
    <path d="M 35.9544 115.245 L 35.9613 115.38 L 35.971 115.551 L 35.9485 116.419 L 35.9203 117.322 L 35.9155 117.419 L 35.9115 117.495 L 35.7813 118.4 L 35.6799 119.406 L 35.6716 119.441 L 35.6625 119.479 L 35.4156 120.41 L 35.2636 121.03 L 35.197 121.367 L 35.044 122.097 L 34.974 122.581 L 34.9048 123.202 L 34.8656 123.534 L 34.6375 124.157 L 34.491 124.531 L 34.0247 124.458 L 33.6016 124.387 L 33.3891 123.772 L 33.0369 123.025 L 33.0141 122.943 L 32.9865 122.813 L 33.0535 122.925 L 33.1791 123.238 L 33.4317 123.775 L 33.5522 124.123 L 33.62 124.134 L 33.6767 124.298 L 34.0401 124.359 L 34.0402 124.359 L 34.4271 124.42 L 34.5444 124.121 L 34.7676 123.51 L 34.8055 123.19 L 34.8748 122.568 L 34.9455 122.08 L 35.0991 121.347 L 35.1657 121.009 L 35.3191 120.383 L 35.5658 119.453 L 35.5744 119.417 L 35.581 119.389 L 35.5877 119.322 L 35.6673 118.986 L 35.7294 118.37 L 35.8244 117.71 L 35.8609 117.4 L 35.8948 117.136 L 35.918 116.394 L 35.9392 115.577 L 35.9429 115.363 L 35.9483 115.146 L 35.9544 115.245" fill="none" stroke="#000080" stroke-width="0.05000" fill-rule="evenodd" fill-opacity="1.000"/>
    <path d="M 30.9287 111.772 L 30.904 111.889 L 31.0569 112.855 L 31.0577 112.89 L 31.0797 112.976 L 31.265 113.765 L 31.3903 114.13 L 31.5331 114.575 L 31.753 115.421 L 31.7834 115.513 L 31.8529 115.835 L 31.929 116.484 L 31.9363 116.537 L 31.9262 116.503 L 31.7313 115.603 L 31.6181 115.259 L 31.4705 114.691 L 31.2407 113.975 L 31.2045 113.869 L 31.1508 113.641 L 30.985 112.997 L 30.9788 112.732 L 30.8701 112.045 L 30.903 111.889 L 30.9287 111.767 L 30.9287 111.772" fill="none" stroke="#000080" stroke-width="0.05000" fill-rule="evenodd" fill-opacity="1.000"/>
    <path d="M 30.9781 110.778 L 30.9348 111.271 L 30.9352 110.773 L 30.9461 110.733 L 30.9625 110.653 L 30.9781 110.778" fill="none" stroke="#000080" stroke-width="0.05000" fill-rule="evenodd" fill-opacity="1.000"/>
    <path d="M 43.3545 105.775 L 44.0162 106.169 L 44.2824 106.283 L 44.9398 106.691 L 45.0693 106.787 L 45.1238 106.834 L 45.821 107.383 L 46.3435 107.797 L 46.5964 107.989 L 46.8444 108.165 L 47.2238 108.773 L 47.687 109.065 L 47.4302 109.586 L 46.9007 110.103 L 46.7338 110.239 L 46.6211 110.286 L 46.2553 110.44 L 45.7212 110.694 L 45.2398 110.749 L 44.7034 110.781 L 44.5955 110.766 L 44.3419 110.744 L 43.5637 110.692 L 42.7423 110.531 L 42.5597 110.474 L 42.3859 110.405 L 41.5597 110.083 L 41.1392 109.924 L 40.6468 109.679 L 40.0139 109.396 L 39.6876 109.167 L 39.1311 108.851 L 39.104 108.831 L 39.0538 108.794 L 39.7585 109.194 L 39.8911 109.287 L 40.7488 109.671 L 40.9768 109.784 L 41.6231 110.029 L 42.3806 110.324 L 42.5845 110.377 L 42.5928 110.38 L 42.7672 110.434 L 43.5762 110.593 L 44.3495 110.644 L 44.607 110.666 L 44.7077 110.681 L 45.2312 110.65 L 45.6932 110.596 L 46.2144 110.349 L 46.5824 110.194 L 46.6821 110.152 L 46.833 110.029 L 47.3481 109.526 L 47.5574 109.102 L 47.1511 108.845 L 46.7702 108.235 L 46.5372 108.069 L 46.2822 107.876 L 45.7591 107.462 L 45.7591 107.462 L 45.0601 106.911 L 45.0064 106.865 L 44.8836 106.774 L 44.7584 106.696 L 44.258 106.325 L 44.2085 106.294 L 44.1884 106.285 L 43.326 105.771 L 43.3545 105.775" fill="none" stroke="#000080" stroke-width="0.05000" fill-rule="evenodd" fill-opacity="1.000"/>
    </g>
    <g class="thermal-contour" data-segment="5" data-name="HollowShell2Contour_Volume">
    <path d="M 36.0125 104.331 L 36.383 104.809 L 36.5735 105.325 L 36.5155 105.439 L 36.7259 106.255 L 36.7497 106.357 L 37.2475 106.957 L 37.6103 107.431 L 37.931 107.656 L 38.4387 108.119 L 38.7742 108.338 L 39.2403 108.683 L 39.7946 108.998 L 40.1127 109.221 L 40.7322 109.498 L 41.2194 109.74 L 41.6314 109.896 L 42.4595 110.219 L 42.6259 110.285 L 42.7921 110.337 L 43.5887 110.493 L 44.3572 110.544 L 44.6184 110.567 L 44.6982 110.578 L 44.6032 110.598 L 44.4027 110.613 L 43.5988 110.559 L 42.8846 110.419 L 42.5927 110.379 L 42.5845 110.377 L 42.4227 110.312 L 41.5956 109.989 L 41.1793 109.832 L 40.6895 109.589 L 40.0633 109.309 L 39.7411 109.083 L 39.1854 108.767 L 38.7171 108.42 L 38.3773 108.198 L 37.8684 107.734 L 37.5403 107.504 L 37.1693 107.02 L 36.6577 106.403 L 36.6288 106.279 L 36.4093 105.428 L 36.4646 105.319 L 36.2945 104.858 L 35.9508 104.415 L 35.1705 104.121 L 34.4711 104.401 L 34.3624 104.474 L 33.8556 104.932 L 33.7065 105.468 L 33.5472 105.834 L 33.5552 106.403 L 33.6183 106.979 L 33.737 107.117 L 33.9518 108.049 L 34.1338 108.359 L 34.4443 109.309 L 34.4759 109.367 L 34.5425 109.521 L 34.8879 110.429 L 34.9852 110.683 L 35.2315 111.384 L 35.4079 112.056 L 35.5322 112.451 L 35.7035 113.399 L 35.7157 113.447 L 35.7305 113.521 L 35.8049 114.45 L 35.8545 115.25 L 35.8545 115.25 L 35.8614 115.385 L 35.8709 115.551 L 35.8485 116.416 L 35.8204 117.317 L 35.8156 117.414 L 35.8118 117.485 L 35.682 118.388 L 35.5877 119.322 L 35.5676 119.407 L 35.4587 119.854 L 35.3293 120.342 L 35.3191 120.383 L 35.3187 120.385 L 35.1659 121.008 L 35.1657 121.009 L 35.1187 121.165 L 35.0802 121.378 L 34.9125 122.177 L 34.8784 122.413 L 34.7805 123.292 L 34.7799 123.298 L 34.4635 124.162 L 34.4224 124.267 L 34.382 124.261 L 34.4513 124.084 L 34.6696 123.487 L 34.7062 123.178 L 34.7756 122.555 L 34.847 122.062 L 35.0012 121.326 L 35.0682 120.986 L 35.2218 120.36 L 35.4691 119.427 L 35.477 119.395 L 35.4821 119.372 L 35.5827 118.376 L 35.7121 117.476 L 35.7157 117.408 L 35.7205 117.312 L 35.7485 116.413 L 35.7708 115.551 L 35.7615 115.391 L 35.7547 115.256 L 35.7052 114.458 L 35.6312 113.535 L 35.6179 113.468 L 35.6058 113.421 L 35.4349 112.475 L 35.3118 112.084 L 35.1357 111.413 L 34.8918 110.719 L 34.7945 110.464 L 34.4495 109.558 L 34.3858 109.411 L 34.3521 109.349 L 34.0419 108.4 L 33.8578 108.086 L 33.6451 107.164 L 33.5223 107.02 L 33.4553 106.409 L 33.4469 105.814 L 33.6121 105.434 L 33.767 104.877 L 34.3008 104.395 L 34.4242 104.312 L 35.1694 104.014 L 36.0125 104.331" fill="none" stroke="#B8860B" stroke-width="0.05000" fill-rule="evenodd" fill-opacity="1.000"/>
    <path d="M 34.0017 98.8907 L 34.2424 98.9425 L 34.6893 99.1146 L 34.9063 99.1459 L 35.5169 99.328 L 35.8586 99.6168 L 36.1593 99.9238 L 36.2541 100.076 L 36.3844 100.3 L 36.6928 100.942 L 36.8244 101.453 L 37.0148 102.068 L 37.4191 102.536 L 37.4693 102.694 L 37.95 103.367 L 38.0055 103.478 L 38.8511 103.781 L 39.6836 104.137 L 39.7262 104.147 L 39.867 104.207 L 39.867 104.207 L 40.5371 104.508 L 40.6551 104.567 L 41.462 105.065 L 41.8771 105.252 L 41.8771 105.252 L 42.3911 105.497 L 42.953 105.828 L 43.3215 105.871 L 43.9707 106.258 L 44.2361 106.372 L 44.7584 106.696 L 44.9426 106.833 L 45.2306 107.082 L 45.6913 107.445 L 46.4867 108.074 L 46.4942 108.082 L 46.4958 108.095 L 46.5393 108.155 L 46.5819 108.224 L 46.478 108.15 L 46.2209 107.954 L 45.7287 107.565 L 44.9964 106.988 L 44.9435 106.942 L 44.8274 106.856 L 44.1898 106.461 L 43.9252 106.348 L 43.2885 105.968 L 42.9204 105.924 L 42.3442 105.585 L 41.8317 105.341 L 41.415 105.154 L 40.6066 104.654 L 40.4942 104.599 L 39.8329 104.301 L 39.6949 104.242 L 39.6526 104.232 L 38.816 103.875 L 37.934 103.559 L 37.8642 103.419 L 37.3787 102.739 L 37.3299 102.585 L 36.9255 102.118 L 36.7282 101.481 L 36.5984 100.977 L 36.2962 100.348 L 36.1676 100.126 L 36.0802 99.9859 L 35.7909 99.6905 L 35.4681 99.4177 L 34.885 99.2439 L 34.6639 99.212 L 34.2141 99.0387 L 33.9828 98.9889 L 33.7558 98.9534 L 33.2815 99.0429 L 32.565 99.27 L 32.4741 99.3183 L 32.0052 99.9489 L 31.8135 100.209 L 31.4692 100.853 L 31.3601 101.112 L 31.1778 101.808 L 31.1457 102.517 L 31.1621 102.842 L 31.1741 102.932 L 31.2388 103.189 L 31.4804 103.904 L 31.7721 104.699 L 31.8771 104.855 L 31.888 105.058 L 32.1945 105.802 L 32.0651 106.899 L 31.7807 107.968 L 31.7099 108.063 L 31.6006 108.86 L 31.401 109.285 L 31.3695 109.791 L 31.1587 110.692 L 31.1407 110.779 L 31.135 110.8 L 31.1346 111.76 L 31.0733 112.049 L 31.1784 112.714 L 31.1844 112.97 L 31.345 113.593 L 31.3968 113.814 L 31.4305 113.912 L 31.6627 114.635 L 31.8101 115.203 L 31.9245 115.55 L 32.1198 116.452 L 32.1384 116.515 L 32.1712 116.666 L 32.242 117.388 L 32.2963 117.737 L 32.37 118.337 L 32.5139 119.124 L 32.5359 119.269 L 32.5952 119.61 L 32.6741 120.199 L 32.8049 120.911 L 32.8284 121.066 L 32.8347 121.096 L 32.8583 121.207 L 33.0033 122.049 L 33.1798 122.76 L 33.2085 122.896 L 33.2247 122.954 L 33.5747 123.697 L 33.7323 124.153 L 33.62 124.134 L 33.4819 123.735 L 33.1308 122.989 L 33.1111 122.919 L 33.0823 122.782 L 32.9057 122.07 L 32.7601 121.226 L 32.7369 121.117 L 32.7298 121.082 L 32.7063 120.928 L 32.5755 120.216 L 32.4963 119.625 L 32.437 119.284 L 32.4153 119.141 L 32.2711 118.352 L 32.1972 117.751 L 32.1428 117.401 L 32.0722 116.681 L 32.0415 116.539 L 32.023 116.478 L 31.8279 115.577 L 31.7141 115.231 L 31.5666 114.663 L 31.3356 113.944 L 31.3005 113.841 L 31.2479 113.617 L 31.0847 112.984 L 31.0786 112.723 L 30.9717 112.047 L 31.0346 111.749 L 31.0351 110.786 L 31.0434 110.756 L 31.0613 110.669 L 31.2702 109.777 L 31.3024 109.26 L 31.5036 108.831 L 31.6143 108.025 L 31.689 107.924 L 31.9666 106.88 L 32.0921 105.816 L 31.7891 105.081 L 31.7787 104.888 L 31.6824 104.745 L 31.3865 103.938 L 31.1426 103.216 L 31.0758 102.951 L 31.0624 102.851 L 31.0456 102.518 L 31.0784 101.793 L 31.2653 101.08 L 31.3791 100.809 L 31.7288 100.155 L 31.9065 99.9144 L 31.9064 99.9143 L 32.4074 99.2406 L 32.5258 99.1776 L 33.2575 98.9457 L 33.7542 98.852 L 34.0017 98.8907" fill="none" stroke="#B8860B" stroke-width="0.05000" fill-rule="evenodd" fill-opacity="1.000"/>
    </g>
    <g class="thermal-contour" data-segment="6" data-name="HollowShell2Contour_Overhang">
    <path d="M 35.0991 121.347 L 34.9455 122.08 L 34.8748 122.568 L 34.8055 123.19 L 34.7676 123.51 L 34.5444 124.121 L 34.4271 124.42 L 34.0402 124.359 L 34.0401 124.359 L 33.6767 124.298 L 33.62 124.134 L 33.7323 124.153 L 33.7518 124.21 L 34.0518 124.26 L 34.3633 124.309 L 34.382 124.261 L 34.4224 124.267 L 34.4635 124.162 L 34.7799 123.298 L 34.7805 123.292 L 34.8784 122.413 L 34.9125 122.177 L 35.0802 121.378 L 35.1187 121.165 L 35.1657 121.009 L 35.0991 121.347" fill="none" stroke="#006400" stroke-width="0.05000" fill-rule="evenodd" fill-opacity="1.000"/>
    <path d="M 35.581 119.389 L 35.5744 119.417 L 35.5658 119.453 L 35.3191 120.383 L 35.3293 120.342 L 35.4587 119.854 L 35.5676 119.407 L 35.5877 119.322 L 35.581 119.389" fill="none" stroke="#006400" stroke-width="0.05000" fill-rule="evenodd" fill-opacity="1.000"/>
    <path d="M 44.8836 106.774 L 45.0064 106.865 L 45.0601 106.911 L 45.7591 107.462 L 45.7591 107.462 L 46.2822 107.876 L 46.5372 108.069 L 46.7702 108.235 L 47.1511 108.845 L 47.5574 109.102 L 47.3481 109.526 L 46.833 110.029 L 46.6821 110.152 L 46.5824 110.194 L 46.2144 110.349 L 45.6932 110.596 L 45.2312 110.65 L 44.7077 110.681 L 44.607 110.666 L 44.3495 110.644 L 43.5762 110.593 L 42.7672 110.434 L 42.5928 110.38 L 42.5845 110.377 L 42.5927 110.379 L 42.8846 110.419 L 43.5988 110.559 L 44.4027 110.613 L 44.6032 110.598 L 44.6982 110.578 L 44.712 110.58 L 45.2226 110.55 L 45.6652 110.499 L 46.1735 110.257 L 46.5436 110.101 L 46.63 110.065 L 46.7665 109.954 L 47.2659 109.466 L 47.4278 109.138 L 47.0784 108.918 L 46.696 108.305 L 46.5819 108.224 L 46.5393 108.155 L 46.4958 108.095 L 46.4942 108.082 L 46.4867 108.074 L 45.6913 107.445 L 45.2306 107.082 L 44.9426 106.833 L 44.7584 106.696 L 44.8836 106.774" fill="none" stroke="#006400" stroke-width="0.05000" fill-rule="evenodd" fill-opacity="1.000"/>
    </g>
    <g class="thermal-contour" data-segment="9" data-name="CoreContourHatch">
    <path d="M 33.9708 99.0507 L 34.1958 99.0991 L 34.6479 99.2733 L 34.8712 99.3056 L 35.4376 99.4743 L 35.7476 99.7363 L 36.0304 100.025 L 36.1128 100.157 L 36.2406 100.377 L 36.5388 100.998 L 36.6674 101.497 L 36.8692 102.149 L 37.2738 102.617 L 37.3215 102.768 L 37.81 103.452 L 37.8889 103.61 L 38.793 103.933 L 39.6331 104.293 L 39.6752 104.302 L 39.8082 104.359 L 40.4669 104.656 L 40.5759 104.71 L 41.3856 105.21 L 41.7678 105.381 L 41.7678 105.38 L 42.3135 105.64 L 42.8999 105.985 L 43.2678 106.029 L 43.8963 106.404 L 44.1606 106.517 L 44.7919 106.908 L 44.9044 106.992 L 44.9566 107.037 L 45.6897 107.615 L 46.1825 108.004 L 46.1824 108.004 L 46.4403 108.201 L 46.6491 108.349 L 47.0325 108.963 L 47.0499 108.974 L 47.0827 109.027 L 47.0129 108.983 L 46.6291 108.368 L 46.4247 108.223 L 46.1657 108.026 L 45.673 107.636 L 44.9391 107.058 L 44.8875 107.013 L 44.7767 106.931 L 44.1481 106.541 L 43.8842 106.428 L 43.2589 106.055 L 42.891 106.012 L 42.3008 105.664 L 41.7948 105.423 L 41.7948 105.423 L 41.3727 105.233 L 40.5628 104.733 L 40.4554 104.68 L 39.7973 104.384 L 39.6668 104.328 L 39.6247 104.318 L 38.7831 103.958 L 37.8697 103.632 L 37.7868 103.466 L 37.2972 102.78 L 37.2497 102.63 L 36.8451 102.162 L 36.6416 101.505 L 36.5133 101.007 L 36.2167 100.39 L 36.0897 100.171 L 36.0091 100.042 L 35.7292 99.7561 L 35.4245 99.4986 L 34.8654 99.332 L 34.641 99.2996 L 34.1881 99.1251 L 33.9659 99.0773 L 33.7571 99.0446 L 33.3038 99.1302 L 32.5999 99.3533 L 32.5341 99.3882 L 32.0774 100.003 L 31.8899 100.257 L 31.5505 100.891 L 31.4456 101.141 L 31.2672 101.822 L 31.2358 102.517 L 31.2518 102.834 L 31.2626 102.914 L 31.3251 103.163 L 31.5656 103.874 L 31.8528 104.658 L 31.9656 104.826 L 31.977 105.038 L 32.2866 105.789 L 32.1537 106.916 L 31.8633 108.007 L 31.7959 108.098 L 31.6879 108.886 L 31.4897 109.308 L 31.4589 109.804 L 31.2463 110.713 L 31.2282 110.8 L 31.2249 110.812 L 31.2246 111.769 L 31.1647 112.051 L 31.2682 112.706 L 31.2741 112.957 L 31.4324 113.572 L 31.4834 113.789 L 31.5159 113.884 L 31.7492 114.61 L 31.8964 115.177 L 32.0115 115.527 L 32.2071 116.431 L 32.2256 116.492 L 32.2603 116.652 L 32.3314 117.378 L 32.3855 117.725 L 32.4589 118.323 L 32.6027 119.11 L 32.6246 119.254 L 32.6842 119.596 L 32.763 120.185 L 32.8937 120.896 L 32.9171 121.05 L 32.9227 121.077 L 32.9467 121.19 L 33.0913 122.03 L 33.2675 122.74 L 33.296 122.875 L 33.3093 122.923 L 33.6582 123.663 L 33.8194 124.13 L 34.0666 124.171 L 34.0665 124.171 L 34.3058 124.208 L 34.3675 124.051 L 34.5814 123.466 L 34.6168 123.168 L 34.6863 122.544 L 34.7583 122.047 L 34.9131 121.308 L 34.9803 120.967 L 35.1346 120.338 L 35.3821 119.404 L 35.3895 119.373 L 35.3932 119.357 L 35.4933 118.365 L 35.6224 117.467 L 35.6258 117.404 L 35.6306 117.307 L 35.6585 116.41 L 35.6807 115.551 L 35.6716 115.396 L 35.6648 115.26 L 35.6648 115.26 L 35.6155 114.465 L 35.5419 113.547 L 35.5299 113.487 L 35.5178 113.44 L 35.3471 112.496 L 35.2253 112.109 L 35.0496 111.44 L 34.8077 110.751 L 34.7104 110.496 L 34.3661 109.592 L 34.3047 109.45 L 34.2691 109.384 L 33.9594 108.437 L 33.7732 108.12 L 33.5623 107.205 L 33.4359 107.058 L 33.3654 106.414 L 33.3566 105.796 L 33.527 105.404 L 33.6873 104.828 L 34.2453 104.324 L 34.382 104.232 L 35.1684 103.918 L 36.068 104.256 L 36.4626 104.765 L 36.6715 105.331 L 36.6111 105.45 L 36.8133 106.234 L 36.8325 106.316 L 37.3179 106.901 L 37.6731 107.365 L 37.9874 107.585 L 38.4936 108.047 L 38.8256 108.264 L 39.2891 108.607 L 39.8428 108.922 L 40.1572 109.142 L 40.7706 109.417 L 41.2551 109.657 L 41.6637 109.812 L 42.4926 110.135 L 42.6562 110.201 L 42.8139 110.25 L 43.6002 110.404 L 44.3641 110.455 L 44.6286 110.478 L 44.7158 110.49 L 45.2141 110.46 L 45.64 110.411 L 46.1367 110.175 L 46.3532 110.084 L 46.3141 110.13 L 46.1472 110.2 L 45.6475 110.438 L 45.2164 110.487 L 44.7147 110.517 L 44.626 110.504 L 44.3618 110.481 L 44.3618 110.481 L 43.5967 110.43 L 42.8073 110.276 L 42.6472 110.226 L 42.4828 110.16 L 41.6539 109.837 L 41.6539 109.837 L 41.2443 109.682 L 40.7586 109.441 L 40.7586 109.441 L 40.1438 109.166 L 39.8284 108.945 L 39.2743 108.63 L 38.81 108.286 L 38.477 108.068 L 37.9701 107.606 L 37.6542 107.385 L 37.2971 106.919 L 36.8077 106.328 L 36.787 106.24 L 36.787 106.24 L 36.5824 105.447 L 36.6421 105.329 L 36.4387 104.778 L 36.0514 104.279 L 35.1686 103.947 L 34.3943 104.256 L 34.262 104.345 L 33.7111 104.842 L 33.5525 105.413 L 33.3836 105.801 L 33.3923 106.413 L 33.4617 107.046 L 33.5871 107.193 L 33.7985 108.11 L 33.9842 108.426 L 34.2941 109.374 L 34.329 109.438 L 34.3911 109.582 L 34.7356 110.487 L 34.8331 110.742 L 35.0754 111.432 L 35.2511 112.101 L 35.3734 112.49 L 35.5441 113.434 L 35.5562 113.481 L 35.5687 113.544 L 35.6424 114.464 L 35.6918 115.259 L 35.6986 115.394 L 35.7077 115.551 L 35.6855 116.411 L 35.6576 117.308 L 35.6528 117.405 L 35.6493 117.47 L 35.5201 118.367 L 35.5202 118.368 L 35.4199 119.362 L 35.4158 119.38 L 35.4083 119.411 L 35.1607 120.345 L 35.0067 120.972 L 35.0068 120.972 L 34.9396 121.313 L 34.785 122.05 L 34.713 122.548 L 34.6436 123.171 L 34.6078 123.472 L 34.3927 124.061 L 34.323 124.238 L 34.0376 124.194 L 34.0376 124.193 L 33.7991 124.154 L 33.6331 123.673 L 33.2839 122.932 L 33.2698 122.881 L 33.2413 122.746 L 33.0649 122.035 L 32.9203 121.196 L 32.8963 121.083 L 32.8905 121.055 L 32.8671 120.901 L 32.7363 120.189 L 32.6574 119.6 L 32.6574 119.6 L 32.5979 119.258 L 32.5761 119.115 L 32.4322 118.327 L 32.3588 117.729 L 32.3046 117.382 L 32.2335 116.656 L 32.1997 116.5 L 32.1809 116.437 L 31.9852 115.533 L 31.8705 115.185 L 31.7235 114.619 L 31.4902 113.892 L 31.4902 113.892 L 31.4574 113.797 L 31.4061 113.578 L 31.4061 113.578 L 31.2472 112.961 L 31.2412 112.708 L 31.1373 112.051 L 31.1976 111.767 L 31.1979 110.808 L 31.2022 110.793 L 31.2199 110.707 L 31.4321 109.8 L 31.4631 109.301 L 31.6617 108.878 L 31.7701 108.088 L 31.8385 107.995 L 32.1271 106.911 L 32.2589 105.793 L 31.9503 105.044 L 31.939 104.835 L 31.8286 104.67 L 31.5401 103.883 L 31.2992 103.171 L 31.236 102.92 L 31.2249 102.837 L 31.2088 102.517 L 31.2404 101.818 L 31.42 101.132 L 31.5261 100.88 L 31.867 100.242 L 32.0557 99.9865 L 32.5161 99.3672 L 32.5894 99.3283 L 33.2972 99.104 L 33.7567 99.0172 L 33.9708 99.0507" fill="none" stroke="#800080" stroke-width="0.05000" fill-rule="evenodd" fill-opacity="1.000"/>
    </g>
    <g class="thermal-contour" data-segment="20" data-name="CoreContourHatchOverhang">
    <path d="M 47.3462 109.161 L 47.2142 109.429 L 46.7242 109.907 L 46.5973 110.01 L 46.5192 110.043 L 46.3141 110.13 L 46.3532 110.084 L 46.5087 110.018 L 46.5833 109.987 L 46.7062 109.887 L 47.192 109.413 L 47.3112 109.171 L 47.0827 109.027 L 47.0499 108.974 L 47.3462 109.161" fill="none" stroke="#E64A19" stroke-width="0.05000" fill-rule="evenodd" fill-opacity="1.000"/>
    </g>
    <!-- ===== Thermal Segment Colour Legend ===== -->
    <g id="thermal-legend">
    <rect x="161.0000" y="5.0000" width="40.0000" height="72.0000"
          rx="1" ry="1"
          fill="#fafafa" stroke="#cccccc" stroke-width="0.15"/>
    <text x="181.0000" y="7.6000" font-family="sans-serif" font-size="2.2000" font-weight="bold" fill="#222222" text-anchor="middle">Thermal Segments</text>
    <line x1="161.5000" y1="8.7000" x2="200.5000" y2="8.7000" stroke="#bbbbbb" stroke-width="0.1"/>
    <rect x="161.8000" y="9.0000" width="3.5000" height="2.0000" fill="#000000" stroke="#333333" stroke-width="0.08" rx="0.3" ry="0.3"/>
    <text x="168.6000" y="10.9000" font-family="monospace" font-size="1.6000" fill="#444444" text-anchor="end"> 1</text>
    <text x="169.6000" y="10.9000" font-family="sans-serif" font-size="1.6000" fill="#111111">CoreContour_Volume</text>
    <rect x="161.8000" y="12.0000" width="3.5000" height="2.0000" fill="#8B0000" stroke="#333333" stroke-width="0.08" rx="0.3" ry="0.3"/>
    <text x="168.6000" y="13.9000" font-family="monospace" font-size="1.6000" fill="#444444" text-anchor="end"> 2</text>
    <text x="169.6000" y="13.9000" font-family="sans-serif" font-size="1.6000" fill="#111111">CoreContour_Overhang</text>
    <rect x="161.8000" y="15.0000" width="3.5000" height="2.0000" fill="#0000CC" stroke="#333333" stroke-width="0.08" rx="0.3" ry="0.3"/>
    <text x="168.6000" y="16.9000" font-family="monospace" font-size="1.6000" fill="#444444" text-anchor="end"> 3</text>
    <text x="169.6000" y="16.9000" font-family="sans-serif" font-size="1.6000" fill="#111111">Shell1Contour_Volume</text>
    <rect x="161.8000" y="18.0000" width="3.5000" height="2.0000" fill="#000080" stroke="#333333" stroke-width="0.08" rx="0.3" ry="0.3"/>
    <text x="168.6000" y="19.9000" font-family="monospace" font-size="1.6000" fill="#444444" text-anchor="end"> 4</text>
    <text x="169.6000" y="19.9000" font-family="sans-serif" font-size="1.6000" fill="#111111">Shell1Contour_Overhang</text>
    <rect x="161.8000" y="21.0000" width="3.5000" height="2.0000" fill="#B8860B" stroke="#333333" stroke-width="0.08" rx="0.3" ry="0.3"/>
    <text x="168.6000" y="22.9000" font-family="monospace" font-size="1.6000" fill="#444444" text-anchor="end"> 5</text>
    <text x="169.6000" y="22.9000" font-family="sans-serif" font-size="1.6000" fill="#111111">Shell2Contour_Volume</text>
    <rect x="161.8000" y="24.0000" width="3.5000" height="2.0000" fill="#006400" stroke="#333333" stroke-width="0.08" rx="0.3" ry="0.3"/>
    <text x="168.6000" y="25.9000" font-family="monospace" font-size="1.6000" fill="#444444" text-anchor="end"> 6</text>
    <text x="169.6000" y="25.9000" font-family="sans-serif" font-size="1.6000" fill="#111111">Shell2Contour_Overhang</text>
    <rect x="161.8000" y="27.0000" width="3.5000" height="2.0000" fill="#FF8C00" stroke="#333333" stroke-width="0.08" rx="0.3" ry="0.3"/>
    <text x="168.6000" y="28.9000" font-family="monospace" font-size="1.6000" fill="#444444" text-anchor="end"> 7</text>
    <text x="169.6000" y="28.9000" font-family="sans-serif" font-size="1.6000" fill="#111111">CoreOverhangHatch</text>
    <rect x="161.8000" y="30.0000" width="3.5000" height="2.0000" fill="#228B22" stroke="#333333" stroke-width="0.08" rx="0.3" ry="0.3"/>
    <text x="168.6000" y="31.9000" font-family="monospace" font-size="1.6000" fill="#444444" text-anchor="end"> 8</text>
    <text x="169.6000" y="31.9000" font-family="sans-serif" font-size="1.6000" fill="#111111">CoreNormalHatch</text>
    <rect x="161.8000" y="33.0000" width="3.5000" height="2.0000" fill="#800080" stroke="#333333" stroke-width="0.08" rx="0.3" ry="0.3"/>
    <text x="168.6000" y="34.9000" font-family="monospace" font-size="1.6000" fill="#444444" text-anchor="end"> 9</text>
    <text x="169.6000" y="34.9000" font-family="sans-serif" font-size="1.6000" fill="#111111">CoreContourHatch</text>
    <rect x="161.8000" y="36.0000" width="3.5000" height="2.0000" fill="#FF69B4" stroke="#333333" stroke-width="0.08" rx="0.3" ry="0.3"/>
    <text x="168.6000" y="37.9000" font-family="monospace" font-size="1.6000" fill="#444444" text-anchor="end">10</text>
    <text x="169.6000" y="37.9000" font-family="sans-serif" font-size="1.6000" fill="#111111">Shell1OverhangHatch</text>
    <rect x="161.8000" y="39.0000" width="3.5000" height="2.0000" fill="#00CED1" stroke="#333333" stroke-width="0.08" rx="0.3" ry="0.3"/>
    <text x="168.6000" y="40.9000" font-family="monospace" font-size="1.6000" fill="#444444" text-anchor="end">11</text>
    <text x="169.6000" y="40.9000" font-family="sans-serif" font-size="1.6000" fill="#111111">Shell1NormalHatch</text>
    <rect x="161.8000" y="42.0000" width="3.5000" height="2.0000" fill="#FF00FF" stroke="#333333" stroke-width="0.08" rx="0.3" ry="0.3"/>
    <text x="168.6000" y="43.9000" font-family="monospace" font-size="1.6000" fill="#444444" text-anchor="end">12</text>
    <text x="169.6000" y="43.9000" font-family="sans-serif" font-size="1.6000" fill="#111111">Shell1ContourHatch</text>
    <rect x="161.8000" y="45.0000" width="3.5000" height="2.0000" fill="#A52A2A" stroke="#333333" stroke-width="0.08" rx="0.3" ry="0.3"/>
    <text x="168.6000" y="46.9000" font-family="monospace" font-size="1.6000" fill="#444444" text-anchor="end">13</text>
    <text x="169.6000" y="46.9000" font-family="sans-serif" font-size="1.6000" fill="#111111">Shell2OverhangHatch</text>
    <rect x="161.8000" y="48.0000" width="3.5000" height="2.0000" fill="#808080" stroke="#333333" stroke-width="0.08" rx="0.3" ry="0.3"/>
    <text x="168.6000" y="49.9000" font-family="monospace" font-size="1.6000" fill="#444444" text-anchor="end">14</text>
    <text x="169.6000" y="49.9000" font-family="sans-serif" font-size="1.6000" fill="#111111">Shell2NormalHatch</text>
    <rect x="161.8000" y="51.0000" width="3.5000" height="2.0000" fill="#32CD32" stroke="#333333" stroke-width="0.08" rx="0.3" ry="0.3"/>
    <text x="168.6000" y="52.9000" font-family="monospace" font-size="1.6000" fill="#444444" text-anchor="end">15</text>
    <text x="169.6000" y="52.9000" font-family="sans-serif" font-size="1.6000" fill="#111111">Shell2ContourHatch</text>
    <rect x="161.8000" y="54.0000" width="3.5000" height="2.0000" fill="#1A237E" stroke="#333333" stroke-width="0.08" rx="0.3" ry="0.3"/>
    <text x="168.6000" y="55.9000" font-family="monospace" font-size="1.6000" fill="#444444" text-anchor="end">16</text>
    <text x="169.6000" y="55.9000" font-family="sans-serif" font-size="1.6000" fill="#111111">SupportContourVolume</text>
    <rect x="161.8000" y="57.0000" width="3.5000" height="2.0000" fill="#827717" stroke="#333333" stroke-width="0.08" rx="0.3" ry="0.3"/>
    <text x="168.6000" y="58.9000" font-family="monospace" font-size="1.6000" fill="#444444" text-anchor="end">17</text>
    <text x="169.6000" y="58.9000" font-family="sans-serif" font-size="1.6000" fill="#111111">SupportHatch</text>
    <rect x="161.8000" y="60.0000" width="3.5000" height="2.0000" fill="#006064" stroke="#333333" stroke-width="0.08" rx="0.3" ry="0.3"/>
    <text x="168.6000" y="61.9000" font-family="monospace" font-size="1.6000" fill="#444444" text-anchor="end">18</text>
    <text x="169.6000" y="61.9000" font-family="sans-serif" font-size="1.6000" fill="#111111">PointSequence</text>
    <rect x="161.8000" y="63.0000" width="3.5000" height="2.0000" fill="#B71C1C" stroke="#333333" stroke-width="0.08" rx="0.3" ry="0.3"/>
    <text x="168.6000" y="64.9000" font-family="monospace" font-size="1.6000" fill="#444444" text-anchor="end">19</text>
    <text x="169.6000" y="64.9000" font-family="sans-serif" font-size="1.6000" fill="#111111">ExternalSupports</text>
    <rect x="161.8000" y="66.0000" width="3.5000" height="2.0000" fill="#E64A19" stroke="#333333" stroke-width="0.08" rx="0.3" ry="0.3"/>
    <text x="168.6000" y="67.9000" font-family="monospace" font-size="1.6000" fill="#444444" text-anchor="end">20</text>
    <text x="169.6000" y="67.9000" font-family="sans-serif" font-size="1.6000" fill="#111111">CoreContourHatchOverhang</text>
    <rect x="161.8000" y="69.0000" width="3.5000" height="2.0000" fill="#311B92" stroke="#333333" stroke-width="0.08" rx="0.3" ry="0.3"/>
    <text x="168.6000" y="70.9000" font-family="monospace" font-size="1.6000" fill="#444444" text-anchor="end">21</text>
    <text x="169.6000" y="70.9000" font-family="sans-serif" font-size="1.6000" fill="#111111">Shell1ContourHatchOverhang</text>
    <rect x="161.8000" y="72.0000" width="3.5000" height="2.0000" fill="#880E4F" stroke="#333333" stroke-width="0.08" rx="0.3" ry="0.3"/>
    <text x="168.6000" y="73.9000" font-family="monospace" font-size="1.6000" fill="#444444" text-anchor="end">22</text>
    <text x="169.6000" y="73.9000" font-family="sans-serif" font-size="1.6000" fill="#111111">Shell2ContourHatchOverhang</text>
    </g>
  </g>
</svg>
