<?xml version="1.0" encoding="UTF-8" standalone="yes"?>
<svg xmlns="http://www.w3.org/2000/svg"
     xmlns:xlink="http://www.w3.org/1999/xlink"
     width="2020.0000mm" height="1600.0000mm"
     viewBox="0 0 202.000000 160.000000">
  <!--
    Build plate : 150.00 x 150.00 mm
    Coordinate  : 1 SVG unit = 1 mm
    Display zoom: 10x  (width/height = viewBox x 10)
    Hatch stroke: 0.04 mm = ~28 mm on screen at this zoom
    Legend panel: right margin (42 mm wide)
  -->
  <defs>
    <marker id="endArrow" markerWidth="2" markerHeight="1.4"
            refX="0" refY="0.7" orient="auto"
            markerUnits="strokeWidth">
      <polyline fill="darkblue" points="0,0 2,0.7 0,1.4 0.2,0.7"/>
    </marker>
  </defs>
  <!-- Background -->
  <rect x="0" y="0" width="202.000000" height="160.000000" fill="#f0f0f0" stroke="none"/>
  <!-- Build plate boundary (150 x 150 mm) -->
  <rect x="5.000000" y="5.000000" width="150.000000" height="150.000000"
        fill="#ffffff" stroke="#aaaaaa" stroke-width="0.2" stroke-dasharray="1,0.5"/>
  <!-- Build plate centre circle (r = 75.00 mm) -->
  <circle cx="80.000000" cy="80.000000" r="75.000000"
          fill="none" stroke="#bbbbbb" stroke-width="0.15" stroke-dasharray="0.8,0.4"/>
  <!-- Centre cross-hair -->
  <line x1="5.000000" y1="80.000000" x2="155.000000" y2="80.000000" stroke="#cccccc" stroke-width="0.1"/>
  <line x1="80.000000" y1="5.000000" x2="80.000000" y2="155.000000" stroke="#cccccc" stroke-width="0.1"/>
  <circle cx="80.000000" cy="80.000000" r="0.3" fill="#cccccc" stroke="none"/>
  <!-- Corner labels -->
  <text x="5.400000" y="4.600000" font-family="sans-serif" font-size="2" fill="#888888">0,0</text>
  <text x="154.600006" y="4.600000" font-family="sans-serif" font-size="2" fill="#888888" text-anchor="end">150,0</text>
  <text x="5.400000" y="157.199997" font-family="sans-serif" font-size="2" fill="#888888">0,150</text>
  <!-- Layer geometry -->
  <g id="geometry">
    <g class="thermal-hatch" data-segment="8" data-name="CoreNormalHatch">
      <line x1="35.01401" y1="127.31035" x2="35.15068" y2="127.35213" stroke="#228B22" stroke-width="0.04000"/>
      <line x1="34.67994" y1="127.10364" x2="35.09869" y2="127.23167" stroke="#228B22" stroke-width="0.04000"/>
      <line x1="34.34590" y1="126.89695" x2="35.04671" y2="127.11121" stroke="#228B22" stroke-width="0.04000"/>
      <line x1="33.04376" y1="126.39427" x2="34.99472" y2="126.99074" stroke="#228B22" stroke-width="0.04000"/>
      <line x1="32.82291" y1="126.22218" x2="34.94273" y2="126.87028" stroke="#228B22" stroke-width="0.04000"/>
      <line x1="33.25687" y1="126.56400" x2="34.23558" y2="126.86322" stroke="#228B22" stroke-width="0.04000"/>
      <line x1="33.41114" y1="126.71573" x2="33.87276" y2="126.85686" stroke="#228B22" stroke-width="0.04000"/>
      <line x1="32.66887" y1="126.07052" x2="34.89074" y2="126.74981" stroke="#228B22" stroke-width="0.04000"/>
      <line x1="32.56313" y1="125.93362" x2="34.83876" y2="126.62935" stroke="#228B22" stroke-width="0.04000"/>
      <line x1="32.44618" y1="125.79330" x2="34.78677" y2="126.50888" stroke="#228B22" stroke-width="0.04000"/>
      <line x1="32.30571" y1="125.64578" x2="34.73274" y2="126.38780" stroke="#228B22" stroke-width="0.04000"/>
      <line x1="32.16523" y1="125.49826" x2="34.67290" y2="126.26493" stroke="#228B22" stroke-width="0.04000"/>
      <line x1="32.02477" y1="125.35075" x2="34.61305" y2="126.14207" stroke="#228B22" stroke-width="0.04000"/>
      <line x1="31.88429" y1="125.20323" x2="34.55321" y2="126.01920" stroke="#228B22" stroke-width="0.04000"/>
      <line x1="31.85283" y1="125.08904" x2="34.48212" y2="125.89290" stroke="#228B22" stroke-width="0.04000"/>
      <line x1="31.86476" y1="124.98812" x2="34.38552" y2="125.75880" stroke="#228B22" stroke-width="0.04000"/>
      <line x1="31.87668" y1="124.88720" x2="34.28892" y2="125.62469" stroke="#228B22" stroke-width="0.04000"/>
      <line x1="31.88861" y1="124.78628" x2="34.18960" y2="125.48976" stroke="#228B22" stroke-width="0.04000"/>
      <line x1="31.90054" y1="124.68536" x2="34.08730" y2="125.35391" stroke="#228B22" stroke-width="0.04000"/>
      <line x1="31.88352" y1="124.57558" x2="33.98500" y2="125.21807" stroke="#228B22" stroke-width="0.04000"/>
      <line x1="31.86596" y1="124.46564" x2="33.88269" y2="125.08222" stroke="#228B22" stroke-width="0.04000"/>
      <line x1="31.84841" y1="124.35571" x2="33.73833" y2="124.93352" stroke="#228B22" stroke-width="0.04000"/>
      <line x1="31.83085" y1="124.24577" x2="33.55650" y2="124.77335" stroke="#228B22" stroke-width="0.04000"/>
      <line x1="31.88384" y1="124.15741" x2="33.38618" y2="124.61672" stroke="#228B22" stroke-width="0.04000"/>
      <line x1="31.99229" y1="124.08599" x2="33.22872" y2="124.46400" stroke="#228B22" stroke-width="0.04000"/>
      <line x1="32.10073" y1="124.01458" x2="32.32669" y2="124.08366" stroke="#228B22" stroke-width="0.04000"/>
    </g>
    <g class="thermal-hatch" data-segment="8" data-name="CoreNormalHatch">
      <line x1="51.84531" y1="116.62875" x2="52.14861" y2="116.72147" stroke="#228B22" stroke-width="0.04000"/>
      <line x1="51.55348" y1="116.43495" x2="52.27410" y2="116.65527" stroke="#228B22" stroke-width="0.04000"/>
      <line x1="51.25888" y1="116.24032" x2="52.39959" y2="116.58907" stroke="#228B22" stroke-width="0.04000"/>
      <line x1="50.96322" y1="116.04536" x2="52.52509" y2="116.52287" stroke="#228B22" stroke-width="0.04000"/>
      <line x1="50.65944" y1="115.84791" x2="52.65058" y2="116.45667" stroke="#228B22" stroke-width="0.04000"/>
      <line x1="50.35527" y1="115.65034" x2="52.77607" y2="116.39046" stroke="#228B22" stroke-width="0.04000"/>
      <line x1="50.05111" y1="115.45278" x2="52.89385" y2="116.32190" stroke="#228B22" stroke-width="0.04000"/>
      <line x1="49.82394" y1="115.27876" x2="52.94187" y2="116.23201" stroke="#228B22" stroke-width="0.04000"/>
      <line x1="49.60592" y1="115.10754" x2="52.88532" y2="116.11015" stroke="#228B22" stroke-width="0.04000"/>
      <line x1="49.38791" y1="114.93632" x2="52.82460" y2="115.98701" stroke="#228B22" stroke-width="0.04000"/>
      <line x1="49.11479" y1="114.74825" x2="52.76331" y2="115.86371" stroke="#228B22" stroke-width="0.04000"/>
      <line x1="48.92023" y1="114.58419" x2="52.70201" y2="115.74040" stroke="#228B22" stroke-width="0.04000"/>
      <line x1="48.75237" y1="114.42831" x2="52.64071" y2="115.61709" stroke="#228B22" stroke-width="0.04000"/>
      <line x1="48.58451" y1="114.27242" x2="52.56342" y2="115.48889" stroke="#228B22" stroke-width="0.04000"/>
      <line x1="48.40848" y1="114.11403" x2="52.43123" y2="115.34391" stroke="#228B22" stroke-width="0.04000"/>
      <line x1="48.20066" y1="113.94592" x2="52.29903" y2="115.19893" stroke="#228B22" stroke-width="0.04000"/>
      <line x1="48.04089" y1="113.79251" x2="52.16683" y2="115.05393" stroke="#228B22" stroke-width="0.04000"/>
      <line x1="47.92561" y1="113.65269" x2="52.04623" y2="114.91250" stroke="#228B22" stroke-width="0.04000"/>
      <line x1="47.81032" y1="113.51288" x2="51.90421" y2="114.76450" stroke="#228B22" stroke-width="0.04000"/>
      <line x1="47.69478" y1="113.37299" x2="51.73846" y2="114.60926" stroke="#228B22" stroke-width="0.04000"/>
      <line x1="47.54905" y1="113.22386" x2="51.57270" y2="114.45402" stroke="#228B22" stroke-width="0.04000"/>
      <line x1="47.40333" y1="113.07474" x2="51.40695" y2="114.29877" stroke="#228B22" stroke-width="0.04000"/>
      <line x1="47.27916" y1="112.93221" x2="51.25838" y2="114.14878" stroke="#228B22" stroke-width="0.04000"/>
      <line x1="47.21811" y1="112.80898" x2="51.10209" y2="113.99643" stroke="#228B22" stroke-width="0.04000"/>
      <line x1="47.15706" y1="112.68575" x2="50.94579" y2="113.84407" stroke="#228B22" stroke-width="0.04000"/>
      <line x1="47.09274" y1="112.56151" x2="50.78949" y2="113.69172" stroke="#228B22" stroke-width="0.04000"/>
      <line x1="46.99493" y1="112.42703" x2="50.63691" y2="113.54050" stroke="#228B22" stroke-width="0.04000"/>
      <line x1="46.89711" y1="112.29256" x2="50.48872" y2="113.39062" stroke="#228B22" stroke-width="0.04000"/>
      <line x1="46.79929" y1="112.15808" x2="50.34052" y2="113.24075" stroke="#228B22" stroke-width="0.04000"/>
      <line x1="46.71850" y1="112.02882" x2="50.19233" y2="113.09087" stroke="#228B22" stroke-width="0.04000"/>
      <line x1="46.68224" y1="111.91316" x2="50.04413" y2="112.94099" stroke="#228B22" stroke-width="0.04000"/>
      <line x1="46.64599" y1="111.79751" x2="49.88982" y2="112.78925" stroke="#228B22" stroke-width="0.04000"/>
      <line x1="46.59821" y1="111.67833" x2="49.73418" y2="112.63709" stroke="#228B22" stroke-width="0.04000"/>
      <line x1="46.54694" y1="111.55808" x2="49.60534" y2="112.49313" stroke="#228B22" stroke-width="0.04000"/>
      <line x1="46.49566" y1="111.43784" x2="49.47650" y2="112.34917" stroke="#228B22" stroke-width="0.04000"/>
      <line x1="46.44439" y1="111.31760" x2="49.34765" y2="112.20521" stroke="#228B22" stroke-width="0.04000"/>
      <line x1="46.39312" y1="111.19735" x2="49.21881" y2="112.06125" stroke="#228B22" stroke-width="0.04000"/>
      <line x1="46.34184" y1="111.07710" x2="49.08665" y2="111.91628" stroke="#228B22" stroke-width="0.04000"/>
      <line x1="46.31073" y1="110.96303" x2="48.95913" y2="111.77272" stroke="#228B22" stroke-width="0.04000"/>
      <line x1="46.31978" y1="110.86122" x2="48.84575" y2="111.63348" stroke="#228B22" stroke-width="0.04000"/>
      <line x1="46.31995" y1="110.75671" x2="48.73238" y2="111.49426" stroke="#228B22" stroke-width="0.04000"/>
      <line x1="46.31750" y1="110.65139" x2="48.61900" y2="111.35503" stroke="#228B22" stroke-width="0.04000"/>
      <line x1="46.31506" y1="110.54607" x2="48.50563" y2="111.21580" stroke="#228B22" stroke-width="0.04000"/>
      <line x1="46.31261" y1="110.44075" x2="48.39225" y2="111.07656" stroke="#228B22" stroke-width="0.04000"/>
      <line x1="46.31016" y1="110.33543" x2="48.28041" y2="110.93781" stroke="#228B22" stroke-width="0.04000"/>
      <line x1="46.30771" y1="110.23012" x2="48.13839" y2="110.78981" stroke="#228B22" stroke-width="0.04000"/>
      <line x1="46.30526" y1="110.12479" x2="47.64622" y2="110.53477" stroke="#228B22" stroke-width="0.04000"/>
      <line x1="46.30281" y1="110.01948" x2="47.29446" y2="110.32265" stroke="#228B22" stroke-width="0.04000"/>
      <line x1="46.44599" y1="109.95869" x2="47.19473" y2="110.18760" stroke="#228B22" stroke-width="0.04000"/>
      <line x1="46.70401" y1="109.93300" x2="47.09501" y2="110.05254" stroke="#228B22" stroke-width="0.04000"/>
      <line x1="46.96203" y1="109.90732" x2="46.99529" y2="109.91748" stroke="#228B22" stroke-width="0.04000"/>
    </g>
    <g class="thermal-hatch" data-segment="8" data-name="CoreNormalHatch">
      <line x1="32.36410" y1="124.41010" x2="32.92340" y2="124.57170" stroke="#228B22" stroke-width="0.04000"/>
      <line x1="32.92340" y1="124.57170" x2="33.26360" y2="124.90190" stroke="#228B22" stroke-width="0.04000"/>
      <line x1="33.26360" y1="124.90190" x2="33.62050" y2="125.21620" stroke="#228B22" stroke-width="0.04000"/>
      <line x1="33.62050" y1="125.21620" x2="34.01070" y2="125.73430" stroke="#228B22" stroke-width="0.04000"/>
      <line x1="34.01070" y1="125.73430" x2="34.26130" y2="126.08230" stroke="#228B22" stroke-width="0.04000"/>
      <line x1="34.26130" y1="126.08230" x2="34.48500" y2="126.54160" stroke="#228B22" stroke-width="0.04000"/>
      <line x1="34.48500" y1="126.54160" x2="34.54420" y2="126.67860" stroke="#228B22" stroke-width="0.04000"/>
      <line x1="34.54420" y1="126.67860" x2="34.37770" y2="126.57560" stroke="#228B22" stroke-width="0.04000"/>
      <line x1="34.37770" y1="126.57560" x2="33.66760" y2="126.56310" stroke="#228B22" stroke-width="0.04000"/>
      <line x1="33.66760" y1="126.56310" x2="33.55960" y2="126.45320" stroke="#228B22" stroke-width="0.04000"/>
      <line x1="33.55960" y1="126.45320" x2="33.42730" y2="126.32550" stroke="#228B22" stroke-width="0.04000"/>
      <line x1="33.42730" y1="126.32550" x2="32.93670" y2="125.94310" stroke="#228B22" stroke-width="0.04000"/>
      <line x1="32.93670" y1="125.94310" x2="32.71190" y2="125.65180" stroke="#228B22" stroke-width="0.04000"/>
      <line x1="32.71190" y1="125.65180" x2="32.14820" y2="125.05970" stroke="#228B22" stroke-width="0.04000"/>
      <line x1="32.14820" y1="125.05970" x2="32.19340" y2="124.67740" stroke="#228B22" stroke-width="0.04000"/>
      <line x1="32.19340" y1="124.67740" x2="32.13880" y2="124.33650" stroke="#228B22" stroke-width="0.04000"/>
      <line x1="32.13880" y1="124.33650" x2="32.15320" y2="124.32700" stroke="#228B22" stroke-width="0.04000"/>
      <line x1="32.15320" y1="124.32700" x2="32.36410" y2="124.41010" stroke="#228B22" stroke-width="0.04000"/>
      <line x1="47.13690" y1="110.59750" x2="47.99180" y2="111.04030" stroke="#228B22" stroke-width="0.04000"/>
      <line x1="47.99180" y1="111.04030" x2="48.09190" y2="111.16700" stroke="#228B22" stroke-width="0.04000"/>
      <line x1="48.09190" y1="111.16700" x2="48.80080" y2="112.03760" stroke="#228B22" stroke-width="0.04000"/>
      <line x1="48.80080" y1="112.03760" x2="48.90840" y2="112.14910" stroke="#228B22" stroke-width="0.04000"/>
      <line x1="48.90840" y1="112.14910" x2="49.61450" y2="112.93820" stroke="#228B22" stroke-width="0.04000"/>
      <line x1="49.61450" y1="112.93820" x2="49.70960" y2="113.01660" stroke="#228B22" stroke-width="0.04000"/>
      <line x1="49.70960" y1="113.01660" x2="49.80920" y2="113.11580" stroke="#228B22" stroke-width="0.04000"/>
      <line x1="49.80920" y1="113.11580" x2="50.50070" y2="113.81540" stroke="#228B22" stroke-width="0.04000"/>
      <line x1="50.50070" y1="113.81540" x2="51.05270" y2="114.35330" stroke="#228B22" stroke-width="0.04000"/>
      <line x1="51.05270" y1="114.35330" x2="51.12650" y2="114.43330" stroke="#228B22" stroke-width="0.04000"/>
      <line x1="51.12650" y1="114.43330" x2="51.78650" y2="115.05160" stroke="#228B22" stroke-width="0.04000"/>
      <line x1="51.78650" y1="115.05160" x2="51.88080" y2="115.17050" stroke="#228B22" stroke-width="0.04000"/>
      <line x1="51.88080" y1="115.17050" x2="52.35170" y2="115.68710" stroke="#228B22" stroke-width="0.04000"/>
      <line x1="52.35170" y1="115.68710" x2="52.58770" y2="116.16180" stroke="#228B22" stroke-width="0.04000"/>
      <line x1="52.58770" y1="116.16180" x2="52.07360" y2="116.43290" stroke="#228B22" stroke-width="0.04000"/>
      <line x1="52.07360" y1="116.43290" x2="51.93400" y2="116.33870" stroke="#228B22" stroke-width="0.04000"/>
      <line x1="51.93400" y1="116.33870" x2="51.22030" y2="115.86730" stroke="#228B22" stroke-width="0.04000"/>
      <line x1="51.22030" y1="115.86730" x2="51.10430" y2="115.79120" stroke="#228B22" stroke-width="0.04000"/>
      <line x1="51.10430" y1="115.79120" x2="50.18720" y2="115.19530" stroke="#228B22" stroke-width="0.04000"/>
      <line x1="50.18720" y1="115.19530" x2="49.42010" y2="114.59280" stroke="#228B22" stroke-width="0.04000"/>
      <line x1="49.42010" y1="114.59280" x2="49.23870" y2="114.48430" stroke="#228B22" stroke-width="0.04000"/>
      <line x1="49.23870" y1="114.48430" x2="48.64110" y2="113.92920" stroke="#228B22" stroke-width="0.04000"/>
      <line x1="48.64110" y1="113.92920" x2="48.30580" y2="113.65790" stroke="#228B22" stroke-width="0.04000"/>
      <line x1="48.30580" y1="113.65790" x2="47.91200" y2="113.18020" stroke="#228B22" stroke-width="0.04000"/>
      <line x1="47.91200" y1="113.18020" x2="47.53390" y2="112.79360" stroke="#228B22" stroke-width="0.04000"/>
      <line x1="47.53390" y1="112.79360" x2="47.35030" y2="112.42270" stroke="#228B22" stroke-width="0.04000"/>
      <line x1="47.35030" y1="112.42270" x2="46.99080" y2="111.92840" stroke="#228B22" stroke-width="0.04000"/>
      <line x1="46.99080" y1="111.92840" x2="46.90990" y2="111.67020" stroke="#228B22" stroke-width="0.04000"/>
      <line x1="46.90990" y1="111.67020" x2="46.60290" y2="110.95000" stroke="#228B22" stroke-width="0.04000"/>
      <line x1="46.60290" y1="110.95000" x2="46.61210" y2="110.84760" stroke="#228B22" stroke-width="0.04000"/>
      <line x1="46.61210" y1="110.84760" x2="46.59780" y2="110.23490" stroke="#228B22" stroke-width="0.04000"/>
      <line x1="46.59780" y1="110.23490" x2="46.85050" y2="110.20970" stroke="#228B22" stroke-width="0.04000"/>
      <line x1="46.85050" y1="110.20970" x2="47.13690" y2="110.59750" stroke="#228B22" stroke-width="0.04000"/>
    </g>
    <g class="thermal-contour" data-segment="1" data-name="CoreContour_Volume">
    <path d="M 32.4577 124.135 L 33.0734 124.313 L 33.4605 124.689 L 33.8345 125.018 L 34.2385 125.555 L 34.5117 125.934 L 34.7483 126.42 L 35.1526 127.357 L 35.1595 127.379 L 35.1511 127.387 L 35.127 127.38 L 34.293 126.864 L 33.5441 126.851 L 33.3555 126.659 L 33.237 126.545 L 32.7303 126.15 L 32.4915 125.841 L 31.8443 125.161 L 31.9008 124.684 L 31.8231 124.197 L 32.1195 124.002 L 32.4577 124.135" fill="none" stroke="#000000" stroke-width="0.05000" fill-rule="evenodd" fill-opacity="1.000"/>
    </g>
    <g class="thermal-contour" data-segment="1" data-name="CoreContour_Volume">
    <path d="M 47.3301 110.371 L 48.1809 110.812 L 48.3181 110.985 L 49.018 111.845 L 49.1205 111.951 L 49.8158 112.728 L 49.9042 112.801 L 50.0139 112.91 L 50.7051 113.609 L 51.2598 114.15 L 51.3324 114.229 L 52.0002 114.854 L 52.1018 114.983 L 52.5932 115.522 L 52.8785 116.095 L 52.9616 116.274 L 52.8566 116.348 L 52.0556 116.771 L 51.773 116.58 L 51.0608 116.109 L 50.9457 116.034 L 50.031 115.44 L 50.0209 115.433 L 49.2555 114.832 L 49.0646 114.718 L 48.451 114.148 L 48.1008 113.865 L 47.696 113.374 L 47.2947 112.964 L 47.1014 112.573 L 46.7285 112.061 L 46.6376 111.771 L 46.3077 110.997 L 46.3218 110.838 L 46.3017 109.973 L 46.986 109.905 L 47.3301 110.371" fill="none" stroke="#000000" stroke-width="0.05000" fill-rule="evenodd" fill-opacity="1.000"/>
    </g>
    <g class="thermal-contour" data-segment="1" data-name="CoreContour_Volume">
    <path d="M 32.3931 124.325 L 32.97 124.492 L 33.3247 124.836 L 33.6867 125.155 L 34.0826 125.68 L 34.3389 126.036 L 34.5669 126.504 L 34.7403 126.906 L 34.3514 126.665 L 33.6293 126.652 L 33.4963 126.517 L 33.3682 126.394 L 32.8725 126.007 L 32.6435 125.711 L 32.0539 125.091 L 32.1026 124.679 L 32.0408 124.293 L 32.1427 124.226 L 32.3931 124.325" fill="none" stroke="#000000" stroke-width="0.05000" fill-rule="evenodd" fill-opacity="1.000"/>
    <path d="M 32.1388 124.337 L 32.1934 124.677 L 32.1482 125.06 L 32.7119 125.652 L 32.9367 125.943 L 33.4273 126.326 L 33.5596 126.453 L 33.6676 126.563 L 34.3777 126.576 L 34.5442 126.679 L 34.485 126.542 L 34.2613 126.082 L 34.0107 125.734 L 33.6205 125.216 L 33.2636 124.902 L 32.9234 124.572 L 32.3641 124.41 L 32.1532 124.327 L 32.1388 124.337" fill="none" stroke="#000000" stroke-width="0.05000" fill-rule="evenodd" fill-opacity="1.000"/>
    <path d="M 47.1969 110.527 L 48.0505 110.969 L 48.1621 111.111 L 48.8682 111.978 L 48.9741 112.088 L 49.677 112.873 L 49.7702 112.95 L 49.8727 113.052 L 50.5641 113.752 L 51.1162 114.289 L 51.1904 114.37 L 51.8528 114.99 L 51.9494 115.112 L 52.4268 115.636 L 52.6959 116.177 L 52.7069 116.201 L 52.068 116.538 L 51.884 116.414 L 51.1708 115.942 L 51.0551 115.867 L 50.1383 115.271 L 50.1355 115.269 L 49.369 114.667 L 49.1849 114.557 L 48.5821 113.997 L 48.2423 113.722 L 47.845 113.24 L 47.4597 112.846 L 47.273 112.469 L 46.9093 111.969 L 46.8254 111.701 L 46.5113 110.965 L 46.522 110.845 L 46.5059 110.154 L 46.8925 110.115 L 47.1969 110.527" fill="none" stroke="#000000" stroke-width="0.05000" fill-rule="evenodd" fill-opacity="1.000"/>
    <path d="M 46.5978 110.235 L 46.6121 110.848 L 46.6029 110.95 L 46.9099 111.67 L 46.9908 111.928 L 47.3503 112.423 L 47.5339 112.794 L 47.912 113.18 L 48.3058 113.658 L 48.6411 113.929 L 49.2387 114.484 L 49.4201 114.593 L 50.1872 115.195 L 51.1043 115.791 L 51.2203 115.867 L 51.934 116.339 L 52.0736 116.433 L 52.5877 116.162 L 52.3517 115.687 L 51.8808 115.171 L 51.7865 115.052 L 51.1265 114.433 L 51.0527 114.353 L 50.5007 113.815 L 49.8092 113.116 L 49.7096 113.017 L 49.6145 112.938 L 48.9084 112.149 L 48.8008 112.038 L 48.0919 111.167 L 47.9918 111.04 L 47.1369 110.598 L 46.8505 110.21 L 46.5978 110.235" fill="none" stroke="#000000" stroke-width="0.05000" fill-rule="evenodd" fill-opacity="1.000"/>
    </g>
    <g class="thermal-contour" data-segment="3" data-name="HollowShell1Contour_Volume">
    <path d="M 32.4577 124.135 L 33.0734 124.313 L 33.4605 124.689 L 33.8345 125.018 L 34.2385 125.555 L 34.5117 125.934 L 34.7483 126.42 L 35.1526 127.357 L 35.1595 127.379 L 35.1511 127.387 L 35.127 127.38 L 34.293 126.864 L 33.6139 126.852 L 33.4197 126.655 L 33.1824 126.426 L 32.5818 125.958 L 32.4915 125.841 L 31.8443 125.161 L 31.9008 124.684 L 31.8231 124.197 L 32.1195 124.002 L 32.4577 124.135" fill="none" stroke="#0000CC" stroke-width="0.05000" fill-rule="evenodd" fill-opacity="1.000"/>
    <path d="M 31.9319 124.245 L 32.0017 124.681 L 31.9491 125.126 L 32.5675 125.776 L 32.8014 126.079 L 33.3026 126.469 L 33.4259 126.588 L 33.5867 126.752 L 34.3222 126.765 L 34.9581 127.158 L 34.6576 126.462 L 34.4253 125.985 L 34.1586 125.615 L 34.1586 125.615 L 33.7605 125.086 L 33.3926 124.762 L 33.0217 124.402 L 32.4254 124.23 L 32.1311 124.114 L 31.9319 124.245" fill="none" stroke="#0000CC" stroke-width="0.05000" fill-rule="evenodd" fill-opacity="1.000"/>
    <path d="M 47.3301 110.371 L 48.0866 110.763 L 48.3343 111.076 L 48.8551 111.716 L 49.1618 112.034 L 49.6572 112.588 L 49.7821 112.691 L 49.8158 112.728 L 49.9042 112.801 L 50.0139 112.91 L 50.7051 113.609 L 51.2598 114.15 L 51.3324 114.229 L 52.0002 114.854 L 52.1018 114.983 L 52.5932 115.522 L 52.8785 116.095 L 52.9616 116.274 L 52.8566 116.348 L 52.0833 116.756 L 51.7157 116.508 L 51.1705 116.148 L 50.8603 115.944 L 50.1511 115.483 L 49.9236 115.342 L 49.316 114.865 L 49.0541 114.708 L 48.451 114.148 L 48.1008 113.865 L 47.696 113.374 L 47.2947 112.964 L 47.1014 112.574 L 46.7285 112.061 L 46.6376 111.771 L 46.3077 110.997 L 46.3218 110.838 L 46.3017 109.973 L 46.986 109.905 L 47.3301 110.371" fill="none" stroke="#0000CC" stroke-width="0.05000" fill-rule="evenodd" fill-opacity="1.000"/>
    <path d="M 46.4038 110.063 L 46.4219 110.841 L 46.4095 110.981 L 46.7315 111.736 L 46.8189 112.015 L 47.1872 112.521 L 47.3772 112.905 L 47.7705 113.307 L 48.1717 113.794 L 48.5165 114.073 L 49.1249 114.638 L 49.3123 114.75 L 50.0784 115.351 L 50.0847 115.355 L 51.0004 115.95 L 51.1158 116.026 L 51.8285 116.497 L 52.0618 116.654 L 52.8045 116.262 L 52.8356 116.241 L 52.7878 116.137 L 52.7878 116.137 L 52.51 115.579 L 52.0256 115.047 L 51.9265 114.922 L 51.2614 114.299 L 51.188 114.22 L 50.6346 113.68 L 49.9433 112.981 L 49.8372 112.876 L 49.7464 112.801 L 49.0473 112.02 L 48.9431 111.911 L 48.2401 111.048 L 48.1157 110.891 L 47.2635 110.449 L 46.9392 110.01 L 46.4038 110.063" fill="none" stroke="#0000CC" stroke-width="0.05000" fill-rule="evenodd" fill-opacity="1.000"/>
    </g>
    <g class="thermal-contour" data-segment="4" data-name="HollowShell1Contour_Overhang">
    <path d="M 33.1824 126.426 L 33.4197 126.655 L 33.6139 126.852 L 33.5441 126.851 L 33.3555 126.659 L 33.237 126.545 L 32.7303 126.15 L 32.5818 125.958 L 33.1824 126.426" fill="none" stroke="#000080" stroke-width="0.05000" fill-rule="evenodd" fill-opacity="1.000"/>
    <path d="M 49.316 114.865 L 49.9236 115.342 L 50.1511 115.483 L 50.8603 115.944 L 51.1705 116.148 L 51.7157 116.508 L 52.0833 116.756 L 52.0556 116.771 L 51.773 116.58 L 51.0608 116.109 L 50.9457 116.034 L 50.031 115.44 L 50.0209 115.433 L 49.2555 114.832 L 49.0646 114.718 L 49.0541 114.708 L 49.316 114.865" fill="none" stroke="#000080" stroke-width="0.05000" fill-rule="evenodd" fill-opacity="1.000"/>
    <path d="M 48.1809 110.812 L 48.3181 110.985 L 49.018 111.845 L 49.1205 111.951 L 49.6307 112.521 L 49.7821 112.691 L 49.6572 112.588 L 49.1618 112.034 L 48.8551 111.716 L 48.3343 111.076 L 48.0866 110.763 L 48.1809 110.812" fill="none" stroke="#000080" stroke-width="0.05000" fill-rule="evenodd" fill-opacity="1.000"/>
    </g>
    <g class="thermal-contour" data-segment="5" data-name="HollowShell2Contour_Volume">
    <path d="M 32.4254 124.23 L 33.0217 124.402 L 33.3926 124.762 L 33.7605 125.086 L 34.1586 125.615 L 34.1586 125.615 L 34.4253 125.985 L 34.6576 126.462 L 34.9581 127.158 L 34.3222 126.765 L 33.5867 126.752 L 33.4259 126.588 L 33.3026 126.469 L 32.8014 126.079 L 32.5675 125.776 L 31.9491 125.126 L 32.0017 124.681 L 31.9319 124.245 L 32.1311 124.114 L 32.4254 124.23" fill="none" stroke="#B8860B" stroke-width="0.05000" fill-rule="evenodd" fill-opacity="1.000"/>
    <path d="M 32.0408 124.293 L 32.1026 124.679 L 32.0539 125.091 L 32.6435 125.711 L 32.8725 126.007 L 33.3682 126.394 L 33.4963 126.517 L 33.6293 126.652 L 34.3514 126.665 L 34.7403 126.906 L 34.5669 126.504 L 34.3389 126.036 L 34.0826 125.68 L 33.6867 125.155 L 33.3247 124.836 L 32.97 124.492 L 32.3931 124.325 L 32.1427 124.226 L 32.0408 124.293" fill="none" stroke="#B8860B" stroke-width="0.05000" fill-rule="evenodd" fill-opacity="1.000"/>
    <path d="M 47.2635 110.449 L 48.1157 110.891 L 48.2401 111.048 L 48.9431 111.911 L 49.0473 112.02 L 49.7464 112.801 L 49.8372 112.876 L 49.9433 112.981 L 50.6346 113.68 L 51.188 114.22 L 51.2614 114.299 L 51.9265 114.922 L 52.0256 115.047 L 52.51 115.579 L 52.7878 116.137 L 52.7878 116.137 L 52.8356 116.241 L 52.8045 116.262 L 52.0618 116.654 L 51.8285 116.497 L 51.1158 116.026 L 51.0004 115.95 L 50.0847 115.355 L 50.0784 115.351 L 49.3123 114.75 L 49.1249 114.638 L 48.5165 114.073 L 48.1717 113.794 L 47.7705 113.307 L 47.3772 112.905 L 47.1872 112.521 L 46.8189 112.015 L 46.7315 111.736 L 46.4095 110.981 L 46.4219 110.841 L 46.4038 110.063 L 46.9392 110.01 L 47.2635 110.449" fill="none" stroke="#B8860B" stroke-width="0.05000" fill-rule="evenodd" fill-opacity="1.000"/>
    <path d="M 46.5059 110.154 L 46.522 110.845 L 46.5113 110.965 L 46.8254 111.701 L 46.9093 111.969 L 47.273 112.469 L 47.4597 112.846 L 47.845 113.24 L 48.2423 113.722 L 48.5821 113.997 L 49.1849 114.557 L 49.369 114.667 L 50.1355 115.269 L 50.1383 115.271 L 51.0551 115.867 L 51.1708 115.942 L 51.884 116.414 L 52.068 116.538 L 52.7069 116.201 L 52.6959 116.177 L 52.4268 115.636 L 51.9494 115.112 L 51.8528 114.99 L 51.1904 114.37 L 51.1162 114.289 L 50.5641 113.752 L 49.8727 113.052 L 49.7702 112.95 L 49.677 112.873 L 48.9741 112.088 L 48.8682 111.978 L 48.1621 111.111 L 48.0505 110.969 L 47.1969 110.527 L 46.8925 110.115 L 46.5059 110.154" fill="none" stroke="#B8860B" stroke-width="0.05000" fill-rule="evenodd" fill-opacity="1.000"/>
    </g>
    <g class="thermal-contour" data-segment="9" data-name="CoreContourHatch">
    <path d="M 32.3729 124.385 L 32.9374 124.548 L 33.2821 124.882 L 33.6404 125.198 L 34.0324 125.718 L 34.2846 126.068 L 34.5095 126.53 L 34.5768 126.686 L 34.5468 126.712 L 34.3697 126.602 L 33.6561 126.59 L 33.5408 126.473 L 33.4094 126.346 L 32.9174 125.962 L 32.6913 125.669 L 32.1199 125.069 L 32.1661 124.678 L 32.1094 124.324 L 32.15 124.297 L 32.3729 124.385" fill="none" stroke="#800080" stroke-width="0.05000" fill-rule="evenodd" fill-opacity="1.000"/>
    <path d="M 32.1388 124.337 L 32.1934 124.677 L 32.1482 125.06 L 32.7119 125.652 L 32.9367 125.943 L 33.4273 126.326 L 33.5596 126.453 L 33.6676 126.563 L 34.3777 126.576 L 34.5442 126.679 L 34.485 126.542 L 34.2613 126.082 L 34.0107 125.734 L 33.6205 125.216 L 33.2636 124.902 L 32.9234 124.572 L 32.3641 124.41 L 32.1532 124.327 L 32.1388 124.337" fill="none" stroke="#800080" stroke-width="0.05000" fill-rule="evenodd" fill-opacity="1.000"/>
    <path d="M 47.1547 110.576 L 48.0094 111.019 L 48.1131 111.15 L 48.113 111.15 L 48.8209 112.02 L 48.9282 112.131 L 49.6332 112.919 L 49.7278 112.997 L 49.8283 113.097 L 50.5199 113.796 L 50.5198 113.796 L 51.0721 114.335 L 51.145 114.414 L 51.8064 115.033 L 51.9014 115.153 L 52.3742 115.672 L 52.6236 116.173 L 52.0719 116.464 L 51.9189 116.361 L 51.9189 116.361 L 51.2055 115.89 L 51.2055 115.89 L 51.0895 115.814 L 51.0895 115.814 L 50.1715 115.217 L 49.4051 114.615 L 49.2224 114.506 L 48.6232 113.95 L 48.2867 113.677 L 47.892 113.198 L 47.5116 112.809 L 47.327 112.437 L 46.9664 111.941 L 46.8842 111.679 L 46.5754 110.954 L 46.585 110.847 L 46.5702 110.211 L 46.8631 110.181 L 47.1547 110.576" fill="none" stroke="#800080" stroke-width="0.05000" fill-rule="evenodd" fill-opacity="1.000"/>
    <path d="M 46.5978 110.235 L 46.6121 110.848 L 46.6029 110.95 L 46.9099 111.67 L 46.9908 111.928 L 47.3503 112.423 L 47.5339 112.794 L 47.912 113.18 L 48.3058 113.658 L 48.6411 113.929 L 49.2387 114.484 L 49.4201 114.593 L 50.1872 115.195 L 51.1043 115.791 L 51.2203 115.867 L 51.934 116.339 L 52.0736 116.433 L 52.5877 116.162 L 52.3517 115.687 L 51.8808 115.171 L 51.7865 115.052 L 51.1265 114.433 L 51.0527 114.353 L 50.5007 113.815 L 49.8092 113.116 L 49.7096 113.017 L 49.6145 112.938 L 48.9084 112.149 L 48.8008 112.038 L 48.0919 111.167 L 47.9918 111.04 L 47.1369 110.598 L 46.8505 110.21 L 46.5978 110.235" fill="none" stroke="#800080" stroke-width="0.05000" fill-rule="evenodd" fill-opacity="1.000"/>
    </g>
    <!-- ===== Thermal Segment Colour Legend ===== -->
    <g id="thermal-legend">
    <rect x="161.0000" y="5.0000" width="40.0000" height="72.0000"
          rx="1" ry="1"
          fill="#fafafa" stroke="#cccccc" stroke-width="0.15"/>
    <text x="181.0000" y="7.6000" font-family="sans-serif" font-size="2.2000" font-weight="bold" fill="#222222" text-anchor="middle">Thermal Segments</text>
    <line x1="161.5000" y1="8.7000" x2="200.5000" y2="8.7000" stroke="#bbbbbb" stroke-width="0.1"/>
    <rect x="161.8000" y="9.0000" width="3.5000" height="2.0000" fill="#000000" stroke="#333333" stroke-width="0.08" rx="0.3" ry="0.3"/>
    <text x="168.6000" y="10.9000" font-family="monospace" font-size="1.6000" fill="#444444" text-anchor="end"> 1</text>
    <text x="169.6000" y="10.9000" font-family="sans-serif" font-size="1.6000" fill="#111111">CoreContour_Volume</text>
    <rect x="161.8000" y="12.0000" width="3.5000" height="2.0000" fill="#8B0000" stroke="#333333" stroke-width="0.08" rx="0.3" ry="0.3"/>
    <text x="168.6000" y="13.9000" font-family="monospace" font-size="1.6000" fill="#444444" text-anchor="end"> 2</text>
    <text x="169.6000" y="13.9000" font-family="sans-serif" font-size="1.6000" fill="#111111">CoreContour_Overhang</text>
    <rect x="161.8000" y="15.0000" width="3.5000" height="2.0000" fill="#0000CC" stroke="#333333" stroke-width="0.08" rx="0.3" ry="0.3"/>
    <text x="168.6000" y="16.9000" font-family="monospace" font-size="1.6000" fill="#444444" text-anchor="end"> 3</text>
    <text x="169.6000" y="16.9000" font-family="sans-serif" font-size="1.6000" fill="#111111">Shell1Contour_Volume</text>
    <rect x="161.8000" y="18.0000" width="3.5000" height="2.0000" fill="#000080" stroke="#333333" stroke-width="0.08" rx="0.3" ry="0.3"/>
    <text x="168.6000" y="19.9000" font-family="monospace" font-size="1.6000" fill="#444444" text-anchor="end"> 4</text>
    <text x="169.6000" y="19.9000" font-family="sans-serif" font-size="1.6000" fill="#111111">Shell1Contour_Overhang</text>
    <rect x="161.8000" y="21.0000" width="3.5000" height="2.0000" fill="#B8860B" stroke="#333333" stroke-width="0.08" rx="0.3" ry="0.3"/>
    <text x="168.6000" y="22.9000" font-family="monospace" font-size="1.6000" fill="#444444" text-anchor="end"> 5</text>
    <text x="169.6000" y="22.9000" font-family="sans-serif" font-size="1.6000" fill="#111111">Shell2Contour_Volume</text>
    <rect x="161.8000" y="24.0000" width="3.5000" height="2.0000" fill="#006400" stroke="#333333" stroke-width="0.08" rx="0.3" ry="0.3"/>
    <text x="168.6000" y="25.9000" font-family="monospace" font-size="1.6000" fill="#444444" text-anchor="end"> 6</text>
    <text x="169.6000" y="25.9000" font-family="sans-serif" font-size="1.6000" fill="#111111">Shell2Contour_Overhang</text>
    <rect x="161.8000" y="27.0000" width="3.5000" height="2.0000" fill="#FF8C00" stroke="#333333" stroke-width="0.08" rx="0.3" ry="0.3"/>
    <text x="168.6000" y="28.9000" font-family="monospace" font-size="1.6000" fill="#444444" text-anchor="end"> 7</text>
    <text x="169.6000" y="28.9000" font-family="sans-serif" font-size="1.6000" fill="#111111">CoreOverhangHatch</text>
    <rect x="161.8000" y="30.0000" width="3.5000" height="2.0000" fill="#228B22" stroke="#333333" stroke-width="0.08" rx="0.3" ry="0.3"/>
    <text x="168.6000" y="31.9000" font-family="monospace" font-size="1.6000" fill="#444444" text-anchor="end"> 8</text>
    <text x="169.6000" y="31.9000" font-family="sans-serif" font-size="1.6000" fill="#111111">CoreNormalHatch</text>
    <rect x="161.8000" y="33.0000" width="3.5000" height="2.0000" fill="#800080" stroke="#333333" stroke-width="0.08" rx="0.3" ry="0.3"/>
    <text x="168.6000" y="34.9000" font-family="monospace" font-size="1.6000" fill="#444444" text-anchor="end"> 9</text>
    <text x="169.6000" y="34.9000" font-family="sans-serif" font-size="1.6000" fill="#111111">CoreContourHatch</text>
    <rect x="161.8000" y="36.0000" width="3.5000" height="2.0000" fill="#FF69B4" stroke="#333333" stroke-width="0.08" rx="0.3" ry="0.3"/>
    <text x="168.6000" y="37.9000" font-family="monospace" font-size="1.6000" fill="#444444" text-anchor="end">10</text>
    <text x="169.6000" y="37.9000" font-family="sans-serif" font-size="1.6000" fill="#111111">Shell1OverhangHatch</text>
    <rect x="161.8000" y="39.0000" width="3.5000" height="2.0000" fill="#00CED1" stroke="#333333" stroke-width="0.08" rx="0.3" ry="0.3"/>
    <text x="168.6000" y="40.9000" font-family="monospace" font-size="1.6000" fill="#444444" text-anchor="end">11</text>
    <text x="169.6000" y="40.9000" font-family="sans-serif" font-size="1.6000" fill="#111111">Shell1NormalHatch</text>
    <rect x="161.8000" y="42.0000" width="3.5000" height="2.0000" fill="#FF00FF" stroke="#333333" stroke-width="0.08" rx="0.3" ry="0.3"/>
    <text x="168.6000" y="43.9000" font-family="monospace" font-size="1.6000" fill="#444444" text-anchor="end">12</text>
    <text x="169.6000" y="43.9000" font-family="sans-serif" font-size="1.6000" fill="#111111">Shell1ContourHatch</text>
    <rect x="161.8000" y="45.0000" width="3.5000" height="2.0000" fill="#A52A2A" stroke="#333333" stroke-width="0.08" rx="0.3" ry="0.3"/>
    <text x="168.6000" y="46.9000" font-family="monospace" font-size="1.6000" fill="#444444" text-anchor="end">13</text>
    <text x="169.6000" y="46.9000" font-family="sans-serif" font-size="1.6000" fill="#111111">Shell2OverhangHatch</text>
    <rect x="161.8000" y="48.0000" width="3.5000" height="2.0000" fill="#808080" stroke="#333333" stroke-width="0.08" rx="0.3" ry="0.3"/>
    <text x="168.6000" y="49.9000" font-family="monospace" font-size="1.6000" fill="#444444" text-anchor="end">14</text>
    <text x="169.6000" y="49.9000" font-family="sans-serif" font-size="1.6000" fill="#111111">Shell2NormalHatch</text>
    <rect x="161.8000" y="51.0000" width="3.5000" height="2.0000" fill="#32CD32" stroke="#333333" stroke-width="0.08" rx="0.3" ry="0.3"/>
    <text x="168.6000" y="52.9000" font-family="monospace" font-size="1.6000" fill="#444444" text-anchor="end">15</text>
    <text x="169.6000" y="52.9000" font-family="sans-serif" font-size="1.6000" fill="#111111">Shell2ContourHatch</text>
    <rect x="161.8000" y="54.0000" width="3.5000" height="2.0000" fill="#1A237E" stroke="#333333" stroke-width="0.08" rx="0.3" ry="0.3"/>
    <text x="168.6000" y="55.9000" font-family="monospace" font-size="1.6000" fill="#444444" text-anchor="end">16</text>
    <text x="169.6000" y="55.9000" font-family="sans-serif" font-size="1.6000" fill="#111111">SupportContourVolume</text>
    <rect x="161.8000" y="57.0000" width="3.5000" height="2.0000" fill="#827717" stroke="#333333" stroke-width="0.08" rx="0.3" ry="0.3"/>
    <text x="168.6000" y="58.9000" font-family="monospace" font-size="1.6000" fill="#444444" text-anchor="end">17</text>
    <text x="169.6000" y="58.9000" font-family="sans-serif" font-size="1.6000" fill="#111111">SupportHatch</text>
    <rect x="161.8000" y="60.0000" width="3.5000" height="2.0000" fill="#006064" stroke="#333333" stroke-width="0.08" rx="0.3" ry="0.3"/>
    <text x="168.6000" y="61.9000" font-family="monospace" font-size="1.6000" fill="#444444" text-anchor="end">18</text>
    <text x="169.6000" y="61.9000" font-family="sans-serif" font-size="1.6000" fill="#111111">PointSequence</text>
    <rect x="161.8000" y="63.0000" width="3.5000" height="2.0000" fill="#B71C1C" stroke="#333333" stroke-width="0.08" rx="0.3" ry="0.3"/>
    <text x="168.6000" y="64.9000" font-family="monospace" font-size="1.6000" fill="#444444" text-anchor="end">19</text>
    <text x="169.6000" y="64.9000" font-family="sans-serif" font-size="1.6000" fill="#111111">ExternalSupports</text>
    <rect x="161.8000" y="66.0000" width="3.5000" height="2.0000" fill="#E64A19" stroke="#333333" stroke-width="0.08" rx="0.3" ry="0.3"/>
    <text x="168.6000" y="67.9000" font-family="monospace" font-size="1.6000" fill="#444444" text-anchor="end">20</text>
    <text x="169.6000" y="67.9000" font-family="sans-serif" font-size="1.6000" fill="#111111">CoreContourHatchOverhang</text>
    <rect x="161.8000" y="69.0000" width="3.5000" height="2.0000" fill="#311B92" stroke="#333333" stroke-width="0.08" rx="0.3" ry="0.3"/>
    <text x="168.6000" y="70.9000" font-family="monospace" font-size="1.6000" fill="#444444" text-anchor="end">21</text>
    <text x="169.6000" y="70.9000" font-family="sans-serif" font-size="1.6000" fill="#111111">Shell1ContourHatchOverhang</text>
    <rect x="161.8000" y="72.0000" width="3.5000" height="2.0000" fill="#880E4F" stroke="#333333" stroke-width="0.08" rx="0.3" ry="0.3"/>
    <text x="168.6000" y="73.9000" font-family="monospace" font-size="1.6000" fill="#444444" text-anchor="end">22</text>
    <text x="169.6000" y="73.9000" font-family="sans-serif" font-size="1.6000" fill="#111111">Shell2ContourHatchOverhang</text>
    </g>
  </g>
</svg>
