<?xml version="1.0" encoding="UTF-8" standalone="yes"?>
<svg xmlns="http://www.w3.org/2000/svg"
     xmlns:xlink="http://www.w3.org/1999/xlink"
     width="2020.0000mm" height="1600.0000mm"
     viewBox="0 0 202.000000 160.000000">
  <!--
    Build plate : 150.00 x 150.00 mm
    Coordinate  : 1 SVG unit = 1 mm
    Display zoom: 10x  (width/height = viewBox x 10)
    Hatch stroke: 0.04 mm = ~28 mm on screen at this zoom
    Legend panel: right margin (42 mm wide)
  -->
  <defs>
    <marker id="endArrow" markerWidth="2" markerHeight="1.4"
            refX="0" refY="0.7" orient="auto"
            markerUnits="strokeWidth">
      <polyline fill="darkblue" points="0,0 2,0.7 0,1.4 0.2,0.7"/>
    </marker>
  </defs>
  <!-- Background -->
  <rect x="0" y="0" width="202.000000" height="160.000000" fill="#f0f0f0" stroke="none"/>
  <!-- Build plate boundary (150 x 150 mm) -->
  <rect x="5.000000" y="5.000000" width="150.000000" height="150.000000"
        fill="#ffffff" stroke="#aaaaaa" stroke-width="0.2" stroke-dasharray="1,0.5"/>
  <!-- Build plate centre circle (r = 75.00 mm) -->
  <circle cx="80.000000" cy="80.000000" r="75.000000"
          fill="none" stroke="#bbbbbb" stroke-width="0.15" stroke-dasharray="0.8,0.4"/>
  <!-- Centre cross-hair -->
  <line x1="5.000000" y1="80.000000" x2="155.000000" y2="80.000000" stroke="#cccccc" stroke-width="0.1"/>
  <line x1="80.000000" y1="5.000000" x2="80.000000" y2="155.000000" stroke="#cccccc" stroke-width="0.1"/>
  <circle cx="80.000000" cy="80.000000" r="0.3" fill="#cccccc" stroke="none"/>
  <!-- Corner labels -->
  <text x="5.400000" y="4.600000" font-family="sans-serif" font-size="2" fill="#888888">0,0</text>
  <text x="154.600006" y="4.600000" font-family="sans-serif" font-size="2" fill="#888888" text-anchor="end">150,0</text>
  <text x="5.400000" y="157.199997" font-family="sans-serif" font-size="2" fill="#888888">0,150</text>
  <!-- Layer geometry -->
  <g id="geometry">
    <g class="thermal-hatch" data-segment="8" data-name="CoreNormalHatch">
      <line x1="35.44389" y1="127.76846" x2="33.85172" y2="126.11972" stroke="#228B22" stroke-width="0.04000"/>
      <line x1="35.30083" y1="127.76428" x2="34.02320" y2="126.44125" stroke="#228B22" stroke-width="0.04000"/>
      <line x1="35.15764" y1="127.75996" x2="34.19197" y2="126.75997" stroke="#228B22" stroke-width="0.04000"/>
      <line x1="35.56252" y1="127.74734" x2="33.64389" y2="125.76055" stroke="#228B22" stroke-width="0.04000"/>
      <line x1="35.68114" y1="127.72623" x2="33.43607" y2="125.40139" stroke="#228B22" stroke-width="0.04000"/>
      <line x1="35.79976" y1="127.70511" x2="33.15876" y2="124.97028" stroke="#228B22" stroke-width="0.04000"/>
      <line x1="35.91838" y1="127.68399" x2="32.78233" y2="124.43650" stroke="#228B22" stroke-width="0.04000"/>
      <line x1="36.03701" y1="127.66287" x2="32.42899" y2="123.92667" stroke="#228B22" stroke-width="0.04000"/>
      <line x1="36.12416" y1="127.60917" x2="30.74714" y2="122.04110" stroke="#228B22" stroke-width="0.04000"/>
      <line x1="36.11768" y1="127.45850" x2="30.71151" y2="121.86025" stroke="#228B22" stroke-width="0.04000"/>
      <line x1="36.11120" y1="127.30784" x2="30.63610" y2="121.63820" stroke="#228B22" stroke-width="0.04000"/>
      <line x1="36.10472" y1="127.15717" x2="30.56068" y2="121.41615" stroke="#228B22" stroke-width="0.04000"/>
      <line x1="36.09824" y1="127.00650" x2="30.48526" y2="121.19409" stroke="#228B22" stroke-width="0.04000"/>
      <line x1="36.09176" y1="126.85583" x2="30.49917" y2="121.06454" stroke="#228B22" stroke-width="0.04000"/>
      <line x1="36.08704" y1="126.70699" x2="30.52254" y2="120.94479" stroke="#228B22" stroke-width="0.04000"/>
      <line x1="36.08242" y1="126.55825" x2="30.54592" y2="120.82504" stroke="#228B22" stroke-width="0.04000"/>
      <line x1="36.06950" y1="126.40092" x2="30.56929" y2="120.70528" stroke="#228B22" stroke-width="0.04000"/>
      <line x1="36.05151" y1="126.23833" x2="30.59267" y2="120.58553" stroke="#228B22" stroke-width="0.04000"/>
      <line x1="36.00777" y1="126.04909" x2="30.61604" y2="120.46578" stroke="#228B22" stroke-width="0.04000"/>
      <line x1="35.96403" y1="125.85984" x2="30.63941" y2="120.34603" stroke="#228B22" stroke-width="0.04000"/>
      <line x1="35.92030" y1="125.67059" x2="30.66279" y2="120.22628" stroke="#228B22" stroke-width="0.04000"/>
      <line x1="35.87656" y1="125.48134" x2="30.68616" y2="120.10653" stroke="#228B22" stroke-width="0.04000"/>
      <line x1="35.82854" y1="125.28767" x2="30.70893" y2="119.98616" stroke="#228B22" stroke-width="0.04000"/>
      <line x1="35.77991" y1="125.09335" x2="30.76311" y2="119.89831" stroke="#228B22" stroke-width="0.04000"/>
      <line x1="35.73127" y1="124.89902" x2="30.81729" y2="119.81046" stroke="#228B22" stroke-width="0.04000"/>
      <line x1="35.68263" y1="124.70470" x2="30.87147" y2="119.72261" stroke="#228B22" stroke-width="0.04000"/>
      <line x1="35.61590" y1="124.49165" x2="30.92565" y2="119.63476" stroke="#228B22" stroke-width="0.04000"/>
      <line x1="35.54908" y1="124.27850" x2="30.97984" y2="119.54691" stroke="#228B22" stroke-width="0.04000"/>
      <line x1="35.48605" y1="124.06928" x2="31.03402" y2="119.45906" stroke="#228B22" stroke-width="0.04000"/>
      <line x1="35.42233" y1="123.85934" x2="31.08820" y2="119.37121" stroke="#228B22" stroke-width="0.04000"/>
      <line x1="35.35861" y1="123.64940" x2="31.14238" y2="119.28336" stroke="#228B22" stroke-width="0.04000"/>
      <line x1="35.29489" y1="123.43945" x2="31.19656" y2="119.19551" stroke="#228B22" stroke-width="0.04000"/>
      <line x1="35.24777" y1="123.24671" x2="31.25074" y2="119.10766" stroke="#228B22" stroke-width="0.04000"/>
      <line x1="35.18376" y1="123.03647" x2="31.30492" y2="119.01981" stroke="#228B22" stroke-width="0.04000"/>
      <line x1="35.06652" y1="122.77110" x2="31.35824" y2="118.93106" stroke="#228B22" stroke-width="0.04000"/>
      <line x1="34.95093" y1="122.50745" x2="31.42366" y2="118.85486" stroke="#228B22" stroke-width="0.04000"/>
      <line x1="34.86272" y1="122.27215" x2="31.49211" y2="118.78178" stroke="#228B22" stroke-width="0.04000"/>
      <line x1="34.77451" y1="122.03684" x2="31.56055" y2="118.70869" stroke="#228B22" stroke-width="0.04000"/>
      <line x1="34.68629" y1="121.80154" x2="31.62899" y2="118.63561" stroke="#228B22" stroke-width="0.04000"/>
      <line x1="34.55177" y1="121.51829" x2="31.69744" y2="118.56253" stroke="#228B22" stroke-width="0.04000"/>
      <line x1="34.44784" y1="121.26671" x2="31.76588" y2="118.48945" stroke="#228B22" stroke-width="0.04000"/>
      <line x1="34.36447" y1="121.03642" x2="31.83432" y2="118.41637" stroke="#228B22" stroke-width="0.04000"/>
      <line x1="34.28109" y1="120.80612" x2="31.90276" y2="118.34329" stroke="#228B22" stroke-width="0.04000"/>
      <line x1="34.19772" y1="120.57583" x2="31.97121" y2="118.27021" stroke="#228B22" stroke-width="0.04000"/>
      <line x1="34.05602" y1="120.28514" x2="32.03965" y2="118.19713" stroke="#228B22" stroke-width="0.04000"/>
      <line x1="33.93022" y1="120.01092" x2="32.13672" y2="118.15369" stroke="#228B22" stroke-width="0.04000"/>
      <line x1="33.80714" y1="119.73950" x2="32.28647" y2="118.16481" stroke="#228B22" stroke-width="0.04000"/>
      <line x1="33.68156" y1="119.46552" x2="32.43623" y2="118.17593" stroke="#228B22" stroke-width="0.04000"/>
      <line x1="33.55872" y1="119.19434" x2="32.58204" y2="118.18296" stroke="#228B22" stroke-width="0.04000"/>
      <line x1="33.35119" y1="118.83549" x2="32.72659" y2="118.18869" stroke="#228B22" stroke-width="0.04000"/>
    </g>
    <g class="thermal-hatch" data-segment="8" data-name="CoreNormalHatch">
      <line x1="52.24048" y1="115.82778" x2="44.40746" y2="107.71645" stroke="#228B22" stroke-width="0.04000"/>
      <line x1="52.37555" y1="115.82370" x2="47.01600" y2="110.27372" stroke="#228B22" stroke-width="0.04000"/>
      <line x1="52.45829" y1="115.76542" x2="47.91758" y2="111.06337" stroke="#228B22" stroke-width="0.04000"/>
      <line x1="52.54103" y1="115.70715" x2="48.28442" y2="111.29929" stroke="#228B22" stroke-width="0.04000"/>
      <line x1="51.95969" y1="115.68097" x2="44.19795" y2="107.64346" stroke="#228B22" stroke-width="0.04000"/>
      <line x1="52.62378" y1="115.64887" x2="48.71376" y2="111.59994" stroke="#228B22" stroke-width="0.04000"/>
      <line x1="52.70652" y1="115.59059" x2="49.10718" y2="111.86337" stroke="#228B22" stroke-width="0.04000"/>
      <line x1="51.68148" y1="115.53683" x2="43.99275" y2="107.57491" stroke="#228B22" stroke-width="0.04000"/>
      <line x1="52.78926" y1="115.53232" x2="49.40832" y2="112.03126" stroke="#228B22" stroke-width="0.04000"/>
      <line x1="52.87200" y1="115.47404" x2="49.70946" y2="112.19914" stroke="#228B22" stroke-width="0.04000"/>
      <line x1="52.96435" y1="115.42572" x2="50.10402" y2="112.46377" stroke="#228B22" stroke-width="0.04000"/>
      <line x1="51.40327" y1="115.39269" x2="43.83210" y2="107.55252" stroke="#228B22" stroke-width="0.04000"/>
      <line x1="53.05818" y1="115.37893" x2="50.38329" y2="112.60900" stroke="#228B22" stroke-width="0.04000"/>
      <line x1="53.15202" y1="115.33215" x2="50.65457" y2="112.74596" stroke="#228B22" stroke-width="0.04000"/>
      <line x1="53.24585" y1="115.28535" x2="50.98775" y2="112.94703" stroke="#228B22" stroke-width="0.04000"/>
      <line x1="51.12527" y1="115.24878" x2="43.72155" y2="107.58199" stroke="#228B22" stroke-width="0.04000"/>
      <line x1="53.33968" y1="115.23857" x2="51.32093" y2="113.14809" stroke="#228B22" stroke-width="0.04000"/>
      <line x1="53.41997" y1="115.17776" x2="51.65326" y2="113.34827" stroke="#228B22" stroke-width="0.04000"/>
      <line x1="50.85414" y1="115.11196" x2="43.61100" y2="107.61147" stroke="#228B22" stroke-width="0.04000"/>
      <line x1="50.58300" y1="114.97514" x2="43.50044" y2="107.64094" stroke="#228B22" stroke-width="0.04000"/>
      <line x1="53.25789" y1="114.86597" x2="51.98421" y2="113.54703" stroke="#228B22" stroke-width="0.04000"/>
      <line x1="50.31186" y1="114.83833" x2="43.38989" y2="107.67041" stroke="#228B22" stroke-width="0.04000"/>
      <line x1="50.04100" y1="114.70180" x2="43.27934" y2="107.69989" stroke="#228B22" stroke-width="0.04000"/>
      <line x1="49.79495" y1="114.59096" x2="43.16439" y2="107.72481" stroke="#228B22" stroke-width="0.04000"/>
      <line x1="49.57795" y1="114.51020" x2="43.04829" y2="107.74854" stroke="#228B22" stroke-width="0.04000"/>
      <line x1="53.03513" y1="114.49133" x2="52.44989" y2="113.88530" stroke="#228B22" stroke-width="0.04000"/>
      <line x1="49.36094" y1="114.42944" x2="42.95035" y2="107.79108" stroke="#228B22" stroke-width="0.04000"/>
      <line x1="49.13789" y1="114.34242" x2="42.87989" y2="107.86207" stroke="#228B22" stroke-width="0.04000"/>
      <line x1="48.90609" y1="114.24634" x2="42.80943" y2="107.93306" stroke="#228B22" stroke-width="0.04000"/>
      <line x1="48.67427" y1="114.15025" x2="42.73896" y2="108.00405" stroke="#228B22" stroke-width="0.04000"/>
      <line x1="48.44766" y1="114.05954" x2="42.66850" y2="108.07504" stroke="#228B22" stroke-width="0.04000"/>
      <line x1="48.23283" y1="113.98103" x2="42.59804" y2="108.14603" stroke="#228B22" stroke-width="0.04000"/>
      <line x1="48.02514" y1="113.90991" x2="42.52758" y2="108.21703" stroke="#228B22" stroke-width="0.04000"/>
      <line x1="47.75954" y1="113.77883" x2="42.45758" y2="108.28850" stroke="#228B22" stroke-width="0.04000"/>
      <line x1="47.49395" y1="113.64776" x2="42.38813" y2="108.36053" stroke="#228B22" stroke-width="0.04000"/>
      <line x1="47.22877" y1="113.51711" x2="42.36282" y2="108.47828" stroke="#228B22" stroke-width="0.04000"/>
      <line x1="46.99646" y1="113.42051" x2="42.34390" y2="108.60265" stroke="#228B22" stroke-width="0.04000"/>
      <line x1="46.75336" y1="113.31273" x2="42.32537" y2="108.72742" stroke="#228B22" stroke-width="0.04000"/>
      <line x1="46.43638" y1="113.12843" x2="42.30685" y2="108.85219" stroke="#228B22" stroke-width="0.04000"/>
      <line x1="46.12536" y1="112.95033" x2="42.28832" y2="108.97695" stroke="#228B22" stroke-width="0.04000"/>
      <line x1="45.83442" y1="112.79300" x2="42.26979" y2="109.10172" stroke="#228B22" stroke-width="0.04000"/>
      <line x1="45.49566" y1="112.58617" x2="42.29887" y2="109.27579" stroke="#228B22" stroke-width="0.04000"/>
      <line x1="45.13030" y1="112.35178" x2="42.42762" y2="109.55306" stroke="#228B22" stroke-width="0.04000"/>
      <line x1="44.58421" y1="111.93023" x2="42.56137" y2="109.83553" stroke="#228B22" stroke-width="0.04000"/>
      <line x1="43.90877" y1="111.37476" x2="42.70195" y2="110.12506" stroke="#228B22" stroke-width="0.04000"/>
      <line x1="46.57159" y1="109.81351" x2="44.63420" y2="107.80729" stroke="#228B22" stroke-width="0.04000"/>
      <line x1="45.91314" y1="108.98772" x2="44.86094" y2="107.89812" stroke="#228B22" stroke-width="0.04000"/>
    </g>
    <g class="thermal-hatch" data-segment="8" data-name="CoreNormalHatch">
      <line x1="32.45600" y1="118.46830" x2="32.68400" y2="118.47700" stroke="#228B22" stroke-width="0.04000"/>
      <line x1="32.68400" y1="118.47700" x2="32.70480" y2="118.49920" stroke="#228B22" stroke-width="0.04000"/>
      <line x1="32.70480" y1="118.49920" x2="33.21920" y2="119.13290" stroke="#228B22" stroke-width="0.04000"/>
      <line x1="33.21920" y1="119.13290" x2="33.30660" y2="119.34350" stroke="#228B22" stroke-width="0.04000"/>
      <line x1="33.30660" y1="119.34350" x2="33.61340" y2="120.01270" stroke="#228B22" stroke-width="0.04000"/>
      <line x1="33.61340" y1="120.01270" x2="33.61340" y2="120.01280" stroke="#228B22" stroke-width="0.04000"/>
      <line x1="33.61340" y1="120.01280" x2="33.78750" y2="120.40210" stroke="#228B22" stroke-width="0.04000"/>
      <line x1="33.78750" y1="120.40210" x2="33.84800" y2="120.50050" stroke="#228B22" stroke-width="0.04000"/>
      <line x1="33.84800" y1="120.50050" x2="33.89350" y2="120.58740" stroke="#228B22" stroke-width="0.04000"/>
      <line x1="33.89350" y1="120.58740" x2="34.24990" y2="121.57160" stroke="#228B22" stroke-width="0.04000"/>
      <line x1="34.24990" y1="121.57160" x2="34.37520" y2="121.79810" stroke="#228B22" stroke-width="0.04000"/>
      <line x1="34.37520" y1="121.79810" x2="34.68730" y2="122.63040" stroke="#228B22" stroke-width="0.04000"/>
      <line x1="34.68730" y1="122.63040" x2="34.93710" y2="123.19610" stroke="#228B22" stroke-width="0.04000"/>
      <line x1="34.93710" y1="123.19610" x2="35.01200" y2="123.50580" stroke="#228B22" stroke-width="0.04000"/>
      <line x1="35.01200" y1="123.50580" x2="35.25100" y2="124.29310" stroke="#228B22" stroke-width="0.04000"/>
      <line x1="35.25100" y1="124.29310" x2="35.25100" y2="124.29320" stroke="#228B22" stroke-width="0.04000"/>
      <line x1="35.25100" y1="124.29320" x2="35.32870" y2="124.55570" stroke="#228B22" stroke-width="0.04000"/>
      <line x1="35.32870" y1="124.55570" x2="35.37400" y2="124.66670" stroke="#228B22" stroke-width="0.04000"/>
      <line x1="35.37400" y1="124.66670" x2="35.58970" y2="125.52780" stroke="#228B22" stroke-width="0.04000"/>
      <line x1="35.58970" y1="125.52780" x2="35.76880" y2="126.30350" stroke="#228B22" stroke-width="0.04000"/>
      <line x1="35.76880" y1="126.30350" x2="35.79170" y2="126.54700" stroke="#228B22" stroke-width="0.04000"/>
      <line x1="35.79170" y1="126.54700" x2="35.80170" y2="126.85780" stroke="#228B22" stroke-width="0.04000"/>
      <line x1="35.80170" y1="126.85780" x2="35.82510" y2="127.40580" stroke="#228B22" stroke-width="0.04000"/>
      <line x1="35.82510" y1="127.40580" x2="35.42200" y2="127.47750" stroke="#228B22" stroke-width="0.04000"/>
      <line x1="35.42200" y1="127.47750" x2="35.21390" y2="127.47120" stroke="#228B22" stroke-width="0.04000"/>
      <line x1="35.21390" y1="127.47120" x2="34.95590" y2="127.21310" stroke="#228B22" stroke-width="0.04000"/>
      <line x1="34.95590" y1="127.21310" x2="34.58870" y2="126.86730" stroke="#228B22" stroke-width="0.04000"/>
      <line x1="34.58870" y1="126.86730" x2="34.44660" y2="126.62130" stroke="#228B22" stroke-width="0.04000"/>
      <line x1="34.44660" y1="126.62130" x2="34.11990" y2="126.00410" stroke="#228B22" stroke-width="0.04000"/>
      <line x1="34.11990" y1="126.00410" x2="33.59900" y2="125.10370" stroke="#228B22" stroke-width="0.04000"/>
      <line x1="33.59900" y1="125.10370" x2="33.59130" y2="125.08880" stroke="#228B22" stroke-width="0.04000"/>
      <line x1="33.59130" y1="125.08880" x2="33.56900" y2="125.04870" stroke="#228B22" stroke-width="0.04000"/>
      <line x1="33.56900" y1="125.04870" x2="32.90700" y2="124.11030" stroke="#228B22" stroke-width="0.04000"/>
      <line x1="32.90700" y1="124.11030" x2="32.90710" y2="124.11030" stroke="#228B22" stroke-width="0.04000"/>
      <line x1="32.90710" y1="124.11030" x2="32.61600" y2="123.68680" stroke="#228B22" stroke-width="0.04000"/>
      <line x1="32.61600" y1="123.68680" x2="32.32880" y2="123.34080" stroke="#228B22" stroke-width="0.04000"/>
      <line x1="32.32880" y1="123.34080" x2="32.10320" y2="123.12220" stroke="#228B22" stroke-width="0.04000"/>
      <line x1="32.10320" y1="123.12220" x2="31.65630" y2="122.62090" stroke="#228B22" stroke-width="0.04000"/>
      <line x1="31.65630" y1="122.62090" x2="31.09610" y2="122.07800" stroke="#228B22" stroke-width="0.04000"/>
      <line x1="31.09610" y1="122.07800" x2="31.03520" y2="122.00230" stroke="#228B22" stroke-width="0.04000"/>
      <line x1="31.03520" y1="122.00230" x2="31.02840" y2="121.89140" stroke="#228B22" stroke-width="0.04000"/>
      <line x1="31.02840" y1="121.89140" x2="30.77720" y2="121.15230" stroke="#228B22" stroke-width="0.04000"/>
      <line x1="30.77720" y1="121.15230" x2="30.98460" y2="120.09140" stroke="#228B22" stroke-width="0.04000"/>
      <line x1="30.98460" y1="120.09140" x2="31.59880" y2="119.09530" stroke="#228B22" stroke-width="0.04000"/>
      <line x1="31.59880" y1="119.09530" x2="31.63070" y2="119.05790" stroke="#228B22" stroke-width="0.04000"/>
      <line x1="31.63070" y1="119.05790" x2="32.20080" y2="118.44910" stroke="#228B22" stroke-width="0.04000"/>
      <line x1="32.20080" y1="118.44910" x2="32.45600" y2="118.46830" stroke="#228B22" stroke-width="0.04000"/>
      <line x1="44.26400" y1="107.97110" x2="44.91410" y2="108.23160" stroke="#228B22" stroke-width="0.04000"/>
      <line x1="44.91410" y1="108.23160" x2="44.96220" y2="108.27940" stroke="#228B22" stroke-width="0.04000"/>
      <line x1="44.96220" y1="108.27940" x2="45.08750" y2="108.43630" stroke="#228B22" stroke-width="0.04000"/>
      <line x1="45.08750" y1="108.43630" x2="45.54170" y2="108.98250" stroke="#228B22" stroke-width="0.04000"/>
      <line x1="45.54170" y1="108.98250" x2="45.82070" y2="109.34130" stroke="#228B22" stroke-width="0.04000"/>
      <line x1="45.82070" y1="109.34130" x2="46.15780" y2="109.76480" stroke="#228B22" stroke-width="0.04000"/>
      <line x1="46.15780" y1="109.76480" x2="46.56180" y2="110.26070" stroke="#228B22" stroke-width="0.04000"/>
      <line x1="46.56180" y1="110.26070" x2="46.82290" y2="110.48990" stroke="#228B22" stroke-width="0.04000"/>
      <line x1="46.82290" y1="110.48990" x2="47.18770" y2="110.82850" stroke="#228B22" stroke-width="0.04000"/>
      <line x1="47.18770" y1="110.82850" x2="47.42860" y2="111.04000" stroke="#228B22" stroke-width="0.04000"/>
      <line x1="47.42860" y1="111.04000" x2="47.58070" y2="111.19140" stroke="#228B22" stroke-width="0.04000"/>
      <line x1="47.58070" y1="111.19140" x2="48.16310" y2="111.56600" stroke="#228B22" stroke-width="0.04000"/>
      <line x1="48.16310" y1="111.56600" x2="48.85650" y2="112.05580" stroke="#228B22" stroke-width="0.04000"/>
      <line x1="48.85650" y1="112.05580" x2="48.89390" y2="112.07370" stroke="#228B22" stroke-width="0.04000"/>
      <line x1="48.89390" y1="112.07370" x2="48.92610" y2="112.09440" stroke="#228B22" stroke-width="0.04000"/>
      <line x1="48.92610" y1="112.09440" x2="49.64050" y2="112.49260" stroke="#228B22" stroke-width="0.04000"/>
      <line x1="49.64050" y1="112.49260" x2="50.01380" y2="112.75470" stroke="#228B22" stroke-width="0.04000"/>
      <line x1="50.01380" y1="112.75470" x2="50.45300" y2="112.96310" stroke="#228B22" stroke-width="0.04000"/>
      <line x1="50.45300" y1="112.96310" x2="51.19840" y2="113.41290" stroke="#228B22" stroke-width="0.04000"/>
      <line x1="51.19840" y1="113.41290" x2="51.20990" y2="113.41840" stroke="#228B22" stroke-width="0.04000"/>
      <line x1="51.20990" y1="113.41840" x2="51.24380" y2="113.44050" stroke="#228B22" stroke-width="0.04000"/>
      <line x1="51.24380" y1="113.44050" x2="52.03260" y2="113.91430" stroke="#228B22" stroke-width="0.04000"/>
      <line x1="52.03260" y1="113.91430" x2="52.27960" y2="114.12120" stroke="#228B22" stroke-width="0.04000"/>
      <line x1="52.27960" y1="114.12120" x2="52.71740" y2="114.52490" stroke="#228B22" stroke-width="0.04000"/>
      <line x1="52.71740" y1="114.52490" x2="53.03840" y2="115.06450" stroke="#228B22" stroke-width="0.04000"/>
      <line x1="53.03840" y1="115.06450" x2="52.73400" y2="115.21650" stroke="#228B22" stroke-width="0.04000"/>
      <line x1="52.73400" y1="115.21650" x2="52.29280" y2="115.52700" stroke="#228B22" stroke-width="0.04000"/>
      <line x1="52.29280" y1="115.52700" x2="51.30550" y2="115.01540" stroke="#228B22" stroke-width="0.04000"/>
      <line x1="51.30550" y1="115.01540" x2="51.29890" y2="115.01150" stroke="#228B22" stroke-width="0.04000"/>
      <line x1="51.29890" y1="115.01150" x2="50.42560" y2="114.57080" stroke="#228B22" stroke-width="0.04000"/>
      <line x1="50.42560" y1="114.57080" x2="50.42560" y2="114.57040" stroke="#228B22" stroke-width="0.04000"/>
      <line x1="50.42560" y1="114.57040" x2="50.00890" y2="114.36120" stroke="#228B22" stroke-width="0.04000"/>
      <line x1="50.00890" y1="114.36120" x2="49.34080" y2="114.11250" stroke="#228B22" stroke-width="0.04000"/>
      <line x1="49.34080" y1="114.11250" x2="48.63280" y2="113.81900" stroke="#228B22" stroke-width="0.04000"/>
      <line x1="48.63280" y1="113.81900" x2="48.34920" y2="113.71330" stroke="#228B22" stroke-width="0.04000"/>
      <line x1="48.34920" y1="113.71330" x2="48.17750" y2="113.66160" stroke="#228B22" stroke-width="0.04000"/>
      <line x1="48.17750" y1="113.66160" x2="47.35170" y2="113.25410" stroke="#228B22" stroke-width="0.04000"/>
      <line x1="47.35170" y1="113.25410" x2="46.92350" y2="113.07620" stroke="#228B22" stroke-width="0.04000"/>
      <line x1="46.92350" y1="113.07620" x2="46.33380" y2="112.73350" stroke="#228B22" stroke-width="0.04000"/>
      <line x1="46.33380" y1="112.73350" x2="45.87760" y2="112.48650" stroke="#228B22" stroke-width="0.04000"/>
      <line x1="45.87760" y1="112.48650" x2="45.14200" y2="112.01470" stroke="#228B22" stroke-width="0.04000"/>
      <line x1="45.14200" y1="112.01470" x2="45.11520" y2="111.99410" stroke="#228B22" stroke-width="0.04000"/>
      <line x1="45.11520" y1="111.99410" x2="45.07810" y2="111.96340" stroke="#228B22" stroke-width="0.04000"/>
      <line x1="45.07810" y1="111.96340" x2="44.38240" y2="111.38550" stroke="#228B22" stroke-width="0.04000"/>
      <line x1="44.38240" y1="111.38550" x2="43.94330" y2="111.02930" stroke="#228B22" stroke-width="0.04000"/>
      <line x1="43.94330" y1="111.02930" x2="43.72260" y2="110.79700" stroke="#228B22" stroke-width="0.04000"/>
      <line x1="43.72260" y1="110.79700" x2="43.36100" y2="110.41220" stroke="#228B22" stroke-width="0.04000"/>
      <line x1="43.36100" y1="110.41220" x2="43.06600" y2="110.09010" stroke="#228B22" stroke-width="0.04000"/>
      <line x1="43.06600" y1="110.09010" x2="42.93750" y2="109.95260" stroke="#228B22" stroke-width="0.04000"/>
      <line x1="42.93750" y1="109.95260" x2="42.66940" y2="109.38620" stroke="#228B22" stroke-width="0.04000"/>
      <line x1="42.66940" y1="109.38620" x2="42.66950" y2="109.38620" stroke="#228B22" stroke-width="0.04000"/>
      <line x1="42.66950" y1="109.38620" x2="42.55680" y2="109.14240" stroke="#228B22" stroke-width="0.04000"/>
      <line x1="42.55680" y1="109.14240" x2="42.64580" y2="108.54350" stroke="#228B22" stroke-width="0.04000"/>
      <line x1="42.64580" y1="108.54350" x2="42.65300" y2="108.50330" stroke="#228B22" stroke-width="0.04000"/>
      <line x1="42.65300" y1="108.50330" x2="42.68930" y2="108.46570" stroke="#228B22" stroke-width="0.04000"/>
      <line x1="42.68930" y1="108.46570" x2="42.68920" y2="108.46560" stroke="#228B22" stroke-width="0.04000"/>
      <line x1="42.68920" y1="108.46560" x2="43.12230" y2="108.02930" stroke="#228B22" stroke-width="0.04000"/>
      <line x1="43.12230" y1="108.02930" x2="43.32280" y2="107.98840" stroke="#228B22" stroke-width="0.04000"/>
      <line x1="43.32280" y1="107.98840" x2="43.87460" y2="107.84110" stroke="#228B22" stroke-width="0.04000"/>
      <line x1="43.87460" y1="107.84110" x2="44.26400" y2="107.97110" stroke="#228B22" stroke-width="0.04000"/>
    </g>
    <g class="thermal-contour" data-segment="1" data-name="CoreContour_Volume">
    <path d="M 32.4725 118.179 L 32.8144 118.192 L 32.9228 118.308 L 33.4711 118.983 L 33.5725 119.228 L 33.8774 119.893 L 34.0445 120.266 L 34.1002 120.357 L 34.1593 120.47 L 34.5147 121.451 L 34.6394 121.677 L 34.9559 122.521 L 35.2131 123.103 L 35.2919 123.43 L 35.5289 124.21 L 35.6027 124.459 L 35.6505 124.576 L 35.871 125.457 L 36.0561 126.258 L 36.0815 126.529 L 36.0914 126.847 L 36.1258 127.647 L 35.4432 127.769 L 35.0905 127.758 L 34.7539 127.421 L 34.3592 127.05 L 34.1924 126.761 L 33.8662 126.145 L 33.3468 125.247 L 33.3361 125.227 L 33.3231 125.203 L 32.6695 124.277 L 32.3845 123.862 L 32.1157 123.538 L 31.8937 123.323 L 31.4469 122.822 L 30.8815 122.274 L 30.7516 122.112 L 30.7413 121.948 L 30.478 121.173 L 30.6958 120.057 L 30.6959 120.022 L 30.7016 119.998 L 31.3541 118.94 L 31.3585 118.931 L 31.4139 118.865 L 32.084 118.15 L 32.4725 118.179" fill="none" stroke="#000000" stroke-width="0.05000" fill-rule="evenodd" fill-opacity="1.000"/>
    </g>
    <g class="thermal-contour" data-segment="1" data-name="CoreContour_Volume">
    <path d="M 44.3622 107.698 L 45.0773 107.985 L 45.1775 108.084 L 45.3123 108.253 L 45.7712 108.805 L 46.0486 109.162 L 46.3837 109.583 L 46.7714 110.059 L 47.0201 110.277 L 47.382 110.613 L 47.6273 110.829 L 47.7634 110.964 L 48.3256 111.326 L 49.0036 111.805 L 49.034 111.819 L 49.0751 111.845 L 49.795 112.247 L 50.1603 112.503 L 50.5902 112.707 L 51.3372 113.158 L 51.3536 113.166 L 51.3976 113.195 L 52.2019 113.678 L 52.4706 113.903 L 52.9456 114.341 L 53.4206 115.14 L 53.4196 115.199 L 52.8831 115.466 L 52.3172 115.865 L 52.2153 115.816 L 52.1722 115.791 L 51.1675 115.271 L 51.1612 115.267 L 50.1356 114.749 L 50.1356 114.749 L 49.8929 114.627 L 49.2326 114.382 L 48.5265 114.089 L 48.2567 113.988 L 48.0708 113.932 L 47.2317 113.518 L 46.7937 113.336 L 46.192 112.986 L 45.7304 112.737 L 44.9763 112.253 L 44.9344 112.221 L 44.8933 112.187 L 44.8933 112.187 L 44.1983 111.61 L 43.7461 111.243 L 43.5124 110.997 L 43.1488 110.61 L 42.8531 110.287 L 42.6949 110.118 L 42.407 109.51 L 42.2573 109.186 L 42.3604 108.492 L 42.3833 108.366 L 42.4895 108.255 L 42.9784 107.763 L 43.2564 107.706 L 43.8841 107.539 L 44.3622 107.698" fill="none" stroke="#000000" stroke-width="0.05000" fill-rule="evenodd" fill-opacity="1.000"/>
    </g>
    <g class="thermal-contour" data-segment="1" data-name="CoreContour_Volume">
    <path d="M 32.4611 118.378 L 32.7245 118.389 L 32.7728 118.44 L 33.2973 119.086 L 33.3891 119.308 L 33.6956 119.976 L 33.8673 120.36 L 33.9262 120.456 L 33.976 120.551 L 34.3321 121.534 L 34.4574 121.761 L 34.7707 122.596 L 35.0228 123.167 L 35.0989 123.482 L 35.3373 124.268 L 35.4137 124.526 L 35.4599 124.639 L 35.677 125.506 L 35.8579 126.289 L 35.8817 126.542 L 35.8916 126.854 L 35.9184 127.481 L 35.4284 127.568 L 35.1756 127.56 L 34.8932 127.278 L 34.5175 126.924 L 34.368 126.665 L 34.0412 126.048 L 33.5211 125.149 L 33.5121 125.132 L 33.4927 125.097 L 32.8329 124.161 L 32.5441 123.741 L 32.2627 123.402 L 32.0383 123.185 L 31.5913 122.683 L 31.0295 122.139 L 30.9472 122.036 L 30.9393 121.909 L 30.6844 121.159 L 30.8958 120.077 L 30.8958 120.064 L 31.5261 119.042 L 31.5631 118.998 L 32.1646 118.356 L 32.4611 118.378" fill="none" stroke="#000000" stroke-width="0.05000" fill-rule="evenodd" fill-opacity="1.000"/>
    <path d="M 31.6307 119.058 L 31.5988 119.095 L 30.9846 120.091 L 30.7772 121.152 L 31.0284 121.891 L 31.0352 122.002 L 31.0961 122.078 L 31.6563 122.621 L 32.1032 123.122 L 32.3288 123.341 L 32.616 123.687 L 32.9071 124.11 L 32.907 124.11 L 33.569 125.049 L 33.5913 125.089 L 33.599 125.104 L 34.1199 126.004 L 34.4466 126.621 L 34.5887 126.867 L 34.9559 127.213 L 35.2139 127.471 L 35.422 127.478 L 35.8251 127.406 L 35.8017 126.858 L 35.7917 126.547 L 35.7688 126.303 L 35.5897 125.528 L 35.374 124.667 L 35.3287 124.556 L 35.251 124.293 L 35.251 124.293 L 35.012 123.506 L 34.9371 123.196 L 34.6873 122.63 L 34.3752 121.798 L 34.2499 121.572 L 33.8935 120.587 L 33.848 120.501 L 33.7875 120.402 L 33.6134 120.013 L 33.6134 120.013 L 33.3066 119.343 L 33.2192 119.133 L 32.7048 118.499 L 32.684 118.477 L 32.456 118.468 L 32.2008 118.449 L 31.6307 119.058" fill="none" stroke="#000000" stroke-width="0.05000" fill-rule="evenodd" fill-opacity="1.000"/>
    <path d="M 44.2941 107.886 L 44.9647 108.155 L 45.0293 108.219 L 45.1573 108.379 L 45.614 108.929 L 45.614 108.929 L 45.8914 109.286 L 46.2279 109.708 L 46.6268 110.198 L 46.8841 110.424 L 47.248 110.762 L 47.4904 110.975 L 47.6374 111.121 L 48.2128 111.491 L 48.9022 111.978 L 48.9377 111.995 L 48.9724 112.017 L 49.6888 112.416 L 50.0593 112.677 L 50.496 112.884 L 51.2414 113.334 L 51.2542 113.34 L 51.2915 113.364 L 52.085 113.841 L 52.3392 114.054 L 52.7882 114.468 L 53.1653 115.102 L 52.7803 115.294 L 52.2988 115.633 L 52.2676 115.615 L 51.2622 115.094 L 51.256 115.091 L 50.3356 114.626 L 50.3356 114.626 L 49.9729 114.444 L 49.3074 114.196 L 48.5998 113.903 L 48.3205 113.799 L 48.1446 113.746 L 47.3145 113.336 L 46.8835 113.157 L 46.2898 112.812 L 45.8316 112.564 L 45.0906 112.089 L 45.0596 112.065 L 45.0207 112.033 L 44.3253 111.455 L 43.8823 111.096 L 43.6574 110.859 L 43.2946 110.473 L 42.9999 110.151 L 42.8623 110.004 L 42.5878 109.424 L 42.4639 109.156 L 42.5572 108.527 L 42.5693 108.461 L 42.6244 108.403 L 43.0777 107.947 L 43.3022 107.901 L 43.8775 107.747 L 44.2941 107.886" fill="none" stroke="#000000" stroke-width="0.05000" fill-rule="evenodd" fill-opacity="1.000"/>
    <path d="M 43.3228 107.988 L 43.1223 108.029 L 42.6892 108.466 L 42.6893 108.466 L 42.653 108.503 L 42.6458 108.544 L 42.5568 109.142 L 42.6695 109.386 L 42.6694 109.386 L 42.9375 109.953 L 43.066 110.09 L 43.361 110.412 L 43.7226 110.797 L 43.9433 111.029 L 44.3824 111.385 L 45.0781 111.963 L 45.1152 111.994 L 45.142 112.015 L 45.8776 112.487 L 46.3338 112.733 L 46.9235 113.076 L 47.3517 113.254 L 48.1775 113.662 L 48.3492 113.713 L 48.6328 113.819 L 49.3408 114.113 L 50.0089 114.361 L 50.4256 114.57 L 50.4256 114.571 L 51.2989 115.011 L 51.3055 115.015 L 52.2928 115.527 L 52.734 115.216 L 53.0384 115.064 L 52.7174 114.525 L 52.2796 114.121 L 52.0326 113.914 L 51.2438 113.44 L 51.2099 113.418 L 51.1984 113.413 L 50.453 112.963 L 50.0138 112.755 L 49.6405 112.493 L 48.9261 112.094 L 48.8939 112.074 L 48.8565 112.056 L 48.1631 111.566 L 47.5807 111.191 L 47.4286 111.04 L 47.1877 110.828 L 46.8229 110.49 L 46.5618 110.261 L 46.1578 109.765 L 45.8207 109.341 L 45.5417 108.982 L 45.0875 108.436 L 44.9622 108.279 L 44.9141 108.232 L 44.264 107.971 L 43.8746 107.841 L 43.3228 107.988" fill="none" stroke="#000000" stroke-width="0.05000" fill-rule="evenodd" fill-opacity="1.000"/>
    </g>
    <g class="thermal-contour" data-segment="3" data-name="HollowShell1Contour_Volume">
    <path d="M 32.4725 118.179 L 32.8144 118.192 L 32.9228 118.308 L 33.4711 118.983 L 33.5725 119.228 L 33.8774 119.893 L 34.0445 120.266 L 34.1002 120.357 L 34.1593 120.47 L 34.5147 121.451 L 34.6394 121.676 L 34.9559 122.521 L 35.213 123.103 L 35.2919 123.429 L 35.5289 124.21 L 35.6027 124.459 L 35.6505 124.576 L 35.871 125.457 L 36.0561 126.258 L 36.0815 126.529 L 36.0914 126.847 L 36.0969 126.975 L 36.1062 127.274 L 36.1222 127.648 L 35.6512 127.731 L 35.0645 127.714 L 34.3805 127.03 L 34.3624 127.013 L 34.3547 127 L 33.8751 126.094 L 33.5311 125.499 L 33.3676 125.185 L 33.1692 124.83 L 32.7516 124.238 L 32.3907 123.713 L 32.4643 123.801 L 32.7512 124.219 L 33.4079 125.15 L 33.4241 125.179 L 33.4345 125.199 L 33.9537 126.096 L 34.2802 126.713 L 34.4384 126.987 L 34.8235 127.35 L 35.1331 127.659 L 35.4358 127.668 L 36.0221 127.564 L 35.9915 126.851 L 35.9815 126.535 L 35.957 126.274 L 35.774 125.482 L 35.5552 124.608 L 35.5082 124.493 L 35.433 124.239 L 35.433 124.239 L 35.1954 123.456 L 35.1179 123.135 L 34.8633 122.559 L 34.5484 121.719 L 34.4234 121.493 L 34.0677 120.51 L 34.0132 120.407 L 33.9559 120.313 L 33.7865 119.934 L 33.4808 119.268 L 33.3841 119.035 L 32.8475 118.374 L 32.7695 118.29 L 32.4668 118.279 L 32.1243 118.253 L 31.4886 118.932 L 31.4432 118.985 L 31.4422 118.988 L 30.7958 120.036 L 30.7958 120.067 L 30.5812 121.166 L 30.8403 121.928 L 30.8437 121.984 L 30.7034 121.823 L 30.4797 121.164 L 30.6958 120.057 L 30.6959 120.022 L 30.7016 119.998 L 31.3541 118.94 L 31.3585 118.931 L 31.4139 118.865 L 32.084 118.15 L 32.4725 118.179" fill="none" stroke="#0000CC" stroke-width="0.05000" fill-rule="evenodd" fill-opacity="1.000"/>
    <path d="M 44.3622 107.698 L 44.971 107.942 L 45.1458 108.116 L 45.5304 108.597 L 45.7487 108.86 L 45.8806 109.03 L 46.3752 109.65 L 46.5584 109.875 L 47.01 110.272 L 47.5905 110.811 L 47.6256 110.83 L 47.6382 110.84 L 47.7014 110.902 L 47.7634 110.964 L 48.3256 111.326 L 49.0036 111.805 L 49.034 111.819 L 49.0751 111.845 L 49.795 112.247 L 50.1603 112.503 L 50.5902 112.707 L 51.3372 113.158 L 51.3536 113.166 L 51.3976 113.195 L 52.2019 113.678 L 52.4706 113.903 L 52.9456 114.341 L 53.3147 114.962 L 53.3107 115.206 L 52.5152 115.603 L 52.8317 115.38 L 53.3064 115.143 L 52.8669 114.404 L 52.4049 113.978 L 52.1435 113.759 L 51.3445 113.279 L 51.3038 113.253 L 51.2893 113.246 L 50.5429 112.795 L 50.1098 112.59 L 49.7416 112.331 L 49.0238 111.931 L 48.9858 111.907 L 48.9529 111.891 L 48.2692 111.408 L 47.7004 111.043 L 47.5597 110.902 L 47.315 110.688 L 46.9521 110.351 L 46.6991 110.128 L 46.3058 109.646 L 45.97 109.224 L 45.693 108.867 L 45.2348 108.316 L 45.1034 108.152 L 45.021 108.07 L 44.3274 107.792 L 43.8809 107.643 L 43.2793 107.803 L 43.0281 107.855 L 42.5605 108.326 L 42.5604 108.326 L 42.4763 108.413 L 42.4588 108.51 L 42.3606 109.171 L 42.4974 109.467 L 42.7786 110.061 L 42.9265 110.219 L 43.2217 110.541 L 43.5849 110.928 L 43.8144 111.169 L 44.2618 111.532 L 44.957 112.11 L 44.9968 112.143 L 45.0335 112.171 L 45.781 112.65 L 46.2409 112.899 L 46.8388 113.247 L 47.2731 113.427 L 48.1077 113.839 L 48.2886 113.893 L 48.5632 113.996 L 49.27 114.289 L 49.9329 114.536 L 50.2356 114.688 L 50.2356 114.688 L 50.5636 114.853 L 50.0728 114.621 L 50.0564 114.614 L 49.9869 114.591 L 49.1827 114.292 L 48.8739 114.164 L 48.2804 113.942 L 47.8714 113.82 L 47.301 113.538 L 46.7389 113.304 L 46.192 112.986 L 45.7304 112.737 L 44.9763 112.253 L 44.9344 112.221 L 44.8933 112.187 L 44.1983 111.61 L 43.7461 111.243 L 43.5124 110.997 L 43.1488 110.61 L 42.8531 110.287 L 42.6949 110.118 L 42.407 109.51 L 42.2573 109.186 L 42.3604 108.492 L 42.3833 108.366 L 42.4895 108.255 L 42.9784 107.763 L 43.2564 107.706 L 43.8841 107.539 L 44.3622 107.698" fill="none" stroke="#0000CC" stroke-width="0.05000" fill-rule="evenodd" fill-opacity="1.000"/>
    </g>
    <g class="thermal-contour" data-segment="4" data-name="HollowShell1Contour_Overhang">
    <path d="M 30.7034 121.823 L 30.8437 121.984 L 30.8494 122.075 L 30.9555 122.206 L 31.5191 122.753 L 31.966 123.254 L 32.1892 123.47 L 32.3907 123.713 L 32.7516 124.238 L 33.1692 124.83 L 33.3676 125.185 L 33.5311 125.499 L 33.8751 126.094 L 34.3547 127 L 34.3624 127.013 L 34.3805 127.03 L 35.0645 127.714 L 35.6512 127.731 L 35.4432 127.769 L 35.0905 127.758 L 34.7539 127.421 L 34.3592 127.05 L 34.1924 126.761 L 33.8662 126.145 L 33.3468 125.247 L 33.3361 125.227 L 33.3231 125.203 L 32.6695 124.276 L 32.3845 123.862 L 32.1157 123.538 L 31.8937 123.323 L 31.4469 122.822 L 30.8815 122.274 L 30.7516 122.113 L 30.7413 121.948 L 30.478 121.173 L 30.4797 121.164 L 30.7034 121.823" fill="none" stroke="#000080" stroke-width="0.05000" fill-rule="evenodd" fill-opacity="1.000"/>
    <path d="M 36.1258 127.647 L 36.1222 127.648 L 36.1062 127.274 L 36.0969 126.975 L 36.1258 127.647" fill="none" stroke="#000080" stroke-width="0.05000" fill-rule="evenodd" fill-opacity="1.000"/>
    <path d="M 47.301 113.538 L 47.8714 113.82 L 48.2804 113.942 L 48.8739 114.164 L 49.1827 114.292 L 49.9869 114.591 L 50.0564 114.614 L 50.0728 114.621 L 50.5636 114.853 L 51.2086 115.179 L 51.2147 115.182 L 52.2199 115.703 L 52.2606 115.726 L 52.3077 115.749 L 52.5152 115.603 L 53.3107 115.206 L 53.3147 114.962 L 53.4206 115.14 L 53.4196 115.199 L 52.8831 115.466 L 52.3172 115.865 L 52.2153 115.816 L 52.1722 115.791 L 51.1675 115.271 L 51.1612 115.267 L 50.1356 114.749 L 50.1356 114.749 L 49.8929 114.627 L 49.2326 114.382 L 48.5265 114.089 L 48.2567 113.988 L 48.0708 113.933 L 47.2317 113.518 L 46.7937 113.336 L 46.7389 113.304 L 47.301 113.538" fill="none" stroke="#000080" stroke-width="0.05000" fill-rule="evenodd" fill-opacity="1.000"/>
    <path d="M 45.0773 107.985 L 45.1775 108.084 L 45.3123 108.253 L 45.7712 108.805 L 46.0486 109.162 L 46.3837 109.583 L 46.7714 110.059 L 47.0201 110.277 L 47.382 110.613 L 47.6273 110.829 L 47.6382 110.84 L 47.6256 110.83 L 47.5905 110.811 L 47.01 110.272 L 46.5584 109.875 L 46.3752 109.65 L 45.8806 109.03 L 45.7487 108.86 L 45.5304 108.597 L 45.1458 108.116 L 44.971 107.942 L 45.0773 107.985" fill="none" stroke="#000080" stroke-width="0.05000" fill-rule="evenodd" fill-opacity="1.000"/>
    </g>
    <g class="thermal-contour" data-segment="5" data-name="HollowShell2Contour_Volume">
    <path d="M 32.4668 118.279 L 32.7695 118.29 L 32.8475 118.374 L 33.3841 119.035 L 33.4808 119.268 L 33.7865 119.934 L 33.9559 120.313 L 34.0132 120.407 L 34.0677 120.51 L 34.4234 121.493 L 34.5484 121.719 L 34.8633 122.559 L 35.1179 123.135 L 35.1954 123.456 L 35.433 124.239 L 35.433 124.239 L 35.5082 124.493 L 35.5552 124.608 L 35.774 125.482 L 35.957 126.274 L 35.9815 126.535 L 35.9915 126.851 L 36.0221 127.564 L 35.4358 127.668 L 35.1331 127.659 L 34.8235 127.35 L 34.4384 126.987 L 34.2802 126.713 L 33.9537 126.096 L 33.4345 125.199 L 33.4241 125.179 L 33.4079 125.15 L 32.7512 124.219 L 32.4643 123.801 L 32.3907 123.713 L 32.2671 123.533 L 32.2083 123.44 L 32.1384 123.341 L 31.5662 122.7 L 31.0281 122.178 L 30.8638 122.007 L 30.8437 121.984 L 30.8403 121.928 L 30.5812 121.166 L 30.7958 120.067 L 30.7958 120.036 L 31.4422 118.988 L 31.4432 118.985 L 31.4886 118.932 L 32.1243 118.253 L 32.4668 118.279" fill="none" stroke="#B8860B" stroke-width="0.05000" fill-rule="evenodd" fill-opacity="1.000"/>
    <path d="M 31.5631 118.998 L 31.5261 119.042 L 30.8958 120.064 L 30.8958 120.077 L 30.6844 121.159 L 30.9393 121.909 L 30.9472 122.036 L 31.0295 122.139 L 31.5913 122.683 L 32.0383 123.185 L 32.2627 123.402 L 32.5441 123.741 L 32.8329 124.161 L 33.4927 125.097 L 33.5121 125.132 L 33.5211 125.149 L 34.0412 126.048 L 34.368 126.665 L 34.5175 126.924 L 34.8932 127.278 L 35.1756 127.56 L 35.4284 127.568 L 35.9184 127.481 L 35.8916 126.854 L 35.8817 126.542 L 35.8579 126.289 L 35.677 125.506 L 35.4599 124.639 L 35.4137 124.526 L 35.3373 124.268 L 35.0989 123.482 L 35.0228 123.167 L 34.7707 122.596 L 34.4574 121.761 L 34.3321 121.534 L 33.976 120.551 L 33.9262 120.456 L 33.8673 120.36 L 33.6956 119.976 L 33.3891 119.308 L 33.2973 119.086 L 32.7728 118.44 L 32.7245 118.389 L 32.4611 118.378 L 32.1646 118.356 L 31.5631 118.998" fill="none" stroke="#B8860B" stroke-width="0.05000" fill-rule="evenodd" fill-opacity="1.000"/>
    <path d="M 44.3274 107.792 L 45.021 108.07 L 45.1034 108.152 L 45.2348 108.316 L 45.693 108.867 L 45.97 109.224 L 46.3058 109.646 L 46.6991 110.128 L 46.9521 110.351 L 47.315 110.688 L 47.5597 110.902 L 47.7004 111.043 L 48.2692 111.408 L 48.9529 111.891 L 48.9858 111.907 L 49.0238 111.931 L 49.7416 112.331 L 50.1098 112.59 L 50.5429 112.795 L 51.2893 113.246 L 51.3038 113.253 L 51.3445 113.279 L 52.1435 113.759 L 52.4049 113.978 L 52.8669 114.404 L 53.3064 115.143 L 52.8317 115.38 L 52.5152 115.603 L 52.3332 115.694 L 52.1294 115.629 L 51.3333 115.212 L 51.0978 115.106 L 50.5636 114.853 L 50.2356 114.688 L 50.2356 114.688 L 49.9329 114.536 L 49.27 114.289 L 48.5632 113.996 L 48.2886 113.893 L 48.1077 113.839 L 47.2731 113.427 L 46.8388 113.247 L 46.2409 112.899 L 45.781 112.65 L 45.0335 112.171 L 44.9968 112.143 L 44.957 112.11 L 44.2618 111.532 L 43.8144 111.169 L 43.5849 110.928 L 43.2217 110.541 L 42.9265 110.219 L 42.7786 110.061 L 42.4974 109.467 L 42.3606 109.171 L 42.4588 108.51 L 42.4763 108.413 L 42.5604 108.326 L 42.5605 108.326 L 43.0281 107.855 L 43.2793 107.803 L 43.8809 107.643 L 44.3274 107.792" fill="none" stroke="#B8860B" stroke-width="0.05000" fill-rule="evenodd" fill-opacity="1.000"/>
    <path d="M 43.3022 107.901 L 43.0777 107.947 L 42.6244 108.403 L 42.5693 108.461 L 42.5572 108.527 L 42.4639 109.156 L 42.5878 109.424 L 42.8623 110.004 L 42.9999 110.151 L 43.2946 110.473 L 43.6574 110.859 L 43.8823 111.096 L 44.3253 111.455 L 45.0207 112.033 L 45.0596 112.065 L 45.0906 112.089 L 45.8316 112.564 L 46.2898 112.812 L 46.8835 113.157 L 47.3145 113.336 L 48.1446 113.746 L 48.3205 113.799 L 48.5998 113.903 L 49.3074 114.196 L 49.9729 114.444 L 50.3356 114.626 L 50.3356 114.626 L 51.256 115.091 L 51.2622 115.094 L 52.2676 115.615 L 52.2988 115.633 L 52.7803 115.294 L 53.1653 115.102 L 52.7882 114.468 L 52.3392 114.054 L 52.085 113.841 L 51.2915 113.364 L 51.2542 113.34 L 51.2414 113.334 L 50.496 112.884 L 50.0593 112.677 L 49.6888 112.416 L 48.9724 112.017 L 48.9377 111.995 L 48.9022 111.978 L 48.2128 111.491 L 47.6374 111.121 L 47.4904 110.975 L 47.248 110.762 L 46.8841 110.424 L 46.6268 110.198 L 46.2279 109.708 L 45.8914 109.286 L 45.614 108.929 L 45.614 108.929 L 45.1573 108.379 L 45.0293 108.219 L 44.9647 108.155 L 44.2941 107.886 L 43.8775 107.747 L 43.3022 107.901" fill="none" stroke="#B8860B" stroke-width="0.05000" fill-rule="evenodd" fill-opacity="1.000"/>
    </g>
    <g class="thermal-contour" data-segment="6" data-name="HollowShell2Contour_Overhang">
    <path d="M 30.8638 122.007 L 31.0281 122.178 L 31.5662 122.7 L 32.1384 123.341 L 32.2083 123.44 L 32.2671 123.533 L 32.3907 123.713 L 32.1892 123.47 L 31.966 123.254 L 31.5191 122.753 L 30.9555 122.206 L 30.8494 122.075 L 30.8437 121.984 L 30.8638 122.007" fill="none" stroke="#006400" stroke-width="0.05000" fill-rule="evenodd" fill-opacity="1.000"/>
    <path d="M 51.0978 115.106 L 51.3333 115.212 L 52.1294 115.629 L 52.3332 115.694 L 52.5152 115.603 L 52.3077 115.749 L 52.2606 115.726 L 52.2199 115.703 L 51.2147 115.182 L 51.2086 115.179 L 50.5636 114.853 L 51.0978 115.106" fill="none" stroke="#006400" stroke-width="0.05000" fill-rule="evenodd" fill-opacity="1.000"/>
    </g>
    <g class="thermal-contour" data-segment="9" data-name="CoreContourHatch">
    <path d="M 32.4569 118.441 L 32.457 118.441 L 32.6961 118.45 L 32.7252 118.481 L 33.2426 119.119 L 33.3311 119.332 L 33.6404 120.007 L 33.6404 120.007 L 33.8112 120.389 L 33.8715 120.487 L 33.9183 120.576 L 34.2746 121.561 L 34.3998 121.787 L 34.7124 122.621 L 34.9628 123.187 L 35.0378 123.498 L 35.2769 124.285 L 35.3542 124.547 L 35.3997 124.658 L 35.616 125.521 L 35.7955 126.299 L 35.8187 126.545 L 35.8287 126.857 L 35.8531 127.428 L 35.424 127.505 L 35.2024 127.498 L 34.9374 127.233 L 34.5673 126.884 L 34.423 126.634 L 34.0965 126.018 L 33.5753 125.117 L 33.5673 125.101 L 33.5673 125.101 L 33.5463 125.063 L 32.8549 124.083 L 32.8557 124.083 L 32.594 123.703 L 32.3091 123.359 L 32.0837 123.141 L 31.6361 122.639 L 31.0761 122.096 L 31.0088 122.012 L 31.0017 121.897 L 30.7493 121.154 L 30.959 120.081 L 31.5769 119.079 L 31.6106 119.04 L 32.1899 118.421 L 32.4569 118.441" fill="none" stroke="#800080" stroke-width="0.05000" fill-rule="evenodd" fill-opacity="1.000"/>
    <path d="M 31.6307 119.058 L 31.5988 119.095 L 30.9846 120.091 L 30.7772 121.152 L 31.0284 121.891 L 31.0352 122.002 L 31.0961 122.078 L 31.6563 122.621 L 32.1032 123.122 L 32.3288 123.341 L 32.616 123.687 L 32.9071 124.11 L 32.907 124.11 L 33.569 125.049 L 33.5913 125.089 L 33.599 125.104 L 34.1199 126.004 L 34.4466 126.621 L 34.5887 126.867 L 34.9559 127.213 L 35.2139 127.471 L 35.422 127.478 L 35.8251 127.406 L 35.8017 126.858 L 35.7917 126.547 L 35.7688 126.303 L 35.5897 125.528 L 35.374 124.667 L 35.3287 124.556 L 35.251 124.293 L 35.251 124.293 L 35.012 123.506 L 34.9371 123.196 L 34.6873 122.63 L 34.3752 121.798 L 34.2499 121.572 L 33.8935 120.587 L 33.848 120.501 L 33.7875 120.402 L 33.6134 120.013 L 33.6134 120.013 L 33.3066 119.343 L 33.2192 119.133 L 32.7048 118.499 L 32.684 118.477 L 32.456 118.468 L 32.2008 118.449 L 31.6307 119.058" fill="none" stroke="#800080" stroke-width="0.05000" fill-rule="evenodd" fill-opacity="1.000"/>
    <path d="M 44.2733 107.946 L 44.9292 108.209 L 44.9823 108.261 L 45.1082 108.419 L 45.1083 108.419 L 45.5627 108.966 L 45.8418 109.325 L 46.1787 109.748 L 46.5813 110.242 L 46.841 110.47 L 47.2061 110.809 L 47.447 111.02 L 47.5975 111.17 L 48.1782 111.544 L 48.8702 112.032 L 48.9071 112.05 L 48.9399 112.071 L 49.6549 112.47 L 50.0273 112.731 L 50.4658 112.939 L 51.2106 113.389 L 51.2232 113.395 L 51.2577 113.417 L 52.0483 113.892 L 52.2974 114.101 L 52.7386 114.508 L 53.0765 115.076 L 52.7475 115.24 L 52.2949 115.559 L 51.2924 115.039 L 51.2867 115.036 L 50.3986 114.587 L 50.3986 114.587 L 49.9983 114.386 L 49.3309 114.138 L 48.6234 113.844 L 48.6234 113.844 L 48.3414 113.739 L 48.1676 113.687 L 47.3407 113.279 L 46.9115 113.1 L 46.3209 112.757 L 45.8639 112.51 L 45.1265 112.037 L 45.0984 112.015 L 45.0609 111.984 L 44.3651 111.406 L 44.3651 111.406 L 43.9249 111.049 L 43.703 110.815 L 43.3412 110.431 L 43.0461 110.108 L 43.0461 110.108 L 42.9149 109.968 L 42.6267 109.359 L 42.6273 109.359 L 42.5289 109.146 L 42.6192 108.539 L 42.6279 108.491 L 42.6514 108.466 L 42.6511 108.466 L 43.1089 108.005 L 43.3169 107.962 L 43.8755 107.813 L 44.2733 107.946" fill="none" stroke="#800080" stroke-width="0.05000" fill-rule="evenodd" fill-opacity="1.000"/>
    <path d="M 43.3228 107.988 L 43.1223 108.029 L 42.6892 108.466 L 42.6893 108.466 L 42.653 108.503 L 42.6458 108.544 L 42.5568 109.142 L 42.6695 109.386 L 42.6694 109.386 L 42.9375 109.953 L 43.066 110.09 L 43.361 110.412 L 43.7226 110.797 L 43.9433 111.029 L 44.3824 111.385 L 45.0781 111.963 L 45.1152 111.994 L 45.142 112.015 L 45.8776 112.487 L 46.3338 112.733 L 46.9235 113.076 L 47.3517 113.254 L 48.1775 113.662 L 48.3492 113.713 L 48.6328 113.819 L 49.3408 114.113 L 50.0089 114.361 L 50.4256 114.57 L 50.4256 114.571 L 51.2989 115.011 L 51.3055 115.015 L 52.2928 115.527 L 52.734 115.216 L 53.0384 115.064 L 52.7174 114.525 L 52.2796 114.121 L 52.0326 113.914 L 51.2438 113.44 L 51.2099 113.418 L 51.1984 113.413 L 50.453 112.963 L 50.0138 112.755 L 49.6405 112.493 L 48.9261 112.094 L 48.8939 112.074 L 48.8565 112.056 L 48.1631 111.566 L 47.5807 111.191 L 47.4286 111.04 L 47.1877 110.828 L 46.8229 110.49 L 46.5618 110.261 L 46.1578 109.765 L 45.8207 109.341 L 45.5417 108.982 L 45.0875 108.436 L 44.9622 108.279 L 44.9141 108.232 L 44.264 107.971 L 43.8746 107.841 L 43.3228 107.988" fill="none" stroke="#800080" stroke-width="0.05000" fill-rule="evenodd" fill-opacity="1.000"/>
    </g>
    <!-- ===== Thermal Segment Colour Legend ===== -->
    <g id="thermal-legend">
    <rect x="161.0000" y="5.0000" width="40.0000" height="72.0000"
          rx="1" ry="1"
          fill="#fafafa" stroke="#cccccc" stroke-width="0.15"/>
    <text x="181.0000" y="7.6000" font-family="sans-serif" font-size="2.2000" font-weight="bold" fill="#222222" text-anchor="middle">Thermal Segments</text>
    <line x1="161.5000" y1="8.7000" x2="200.5000" y2="8.7000" stroke="#bbbbbb" stroke-width="0.1"/>
    <rect x="161.8000" y="9.0000" width="3.5000" height="2.0000" fill="#000000" stroke="#333333" stroke-width="0.08" rx="0.3" ry="0.3"/>
    <text x="168.6000" y="10.9000" font-family="monospace" font-size="1.6000" fill="#444444" text-anchor="end"> 1</text>
    <text x="169.6000" y="10.9000" font-family="sans-serif" font-size="1.6000" fill="#111111">CoreContour_Volume</text>
    <rect x="161.8000" y="12.0000" width="3.5000" height="2.0000" fill="#8B0000" stroke="#333333" stroke-width="0.08" rx="0.3" ry="0.3"/>
    <text x="168.6000" y="13.9000" font-family="monospace" font-size="1.6000" fill="#444444" text-anchor="end"> 2</text>
    <text x="169.6000" y="13.9000" font-family="sans-serif" font-size="1.6000" fill="#111111">CoreContour_Overhang</text>
    <rect x="161.8000" y="15.0000" width="3.5000" height="2.0000" fill="#0000CC" stroke="#333333" stroke-width="0.08" rx="0.3" ry="0.3"/>
    <text x="168.6000" y="16.9000" font-family="monospace" font-size="1.6000" fill="#444444" text-anchor="end"> 3</text>
    <text x="169.6000" y="16.9000" font-family="sans-serif" font-size="1.6000" fill="#111111">Shell1Contour_Volume</text>
    <rect x="161.8000" y="18.0000" width="3.5000" height="2.0000" fill="#000080" stroke="#333333" stroke-width="0.08" rx="0.3" ry="0.3"/>
    <text x="168.6000" y="19.9000" font-family="monospace" font-size="1.6000" fill="#444444" text-anchor="end"> 4</text>
    <text x="169.6000" y="19.9000" font-family="sans-serif" font-size="1.6000" fill="#111111">Shell1Contour_Overhang</text>
    <rect x="161.8000" y="21.0000" width="3.5000" height="2.0000" fill="#B8860B" stroke="#333333" stroke-width="0.08" rx="0.3" ry="0.3"/>
    <text x="168.6000" y="22.9000" font-family="monospace" font-size="1.6000" fill="#444444" text-anchor="end"> 5</text>
    <text x="169.6000" y="22.9000" font-family="sans-serif" font-size="1.6000" fill="#111111">Shell2Contour_Volume</text>
    <rect x="161.8000" y="24.0000" width="3.5000" height="2.0000" fill="#006400" stroke="#333333" stroke-width="0.08" rx="0.3" ry="0.3"/>
    <text x="168.6000" y="25.9000" font-family="monospace" font-size="1.6000" fill="#444444" text-anchor="end"> 6</text>
    <text x="169.6000" y="25.9000" font-family="sans-serif" font-size="1.6000" fill="#111111">Shell2Contour_Overhang</text>
    <rect x="161.8000" y="27.0000" width="3.5000" height="2.0000" fill="#FF8C00" stroke="#333333" stroke-width="0.08" rx="0.3" ry="0.3"/>
    <text x="168.6000" y="28.9000" font-family="monospace" font-size="1.6000" fill="#444444" text-anchor="end"> 7</text>
    <text x="169.6000" y="28.9000" font-family="sans-serif" font-size="1.6000" fill="#111111">CoreOverhangHatch</text>
    <rect x="161.8000" y="30.0000" width="3.5000" height="2.0000" fill="#228B22" stroke="#333333" stroke-width="0.08" rx="0.3" ry="0.3"/>
    <text x="168.6000" y="31.9000" font-family="monospace" font-size="1.6000" fill="#444444" text-anchor="end"> 8</text>
    <text x="169.6000" y="31.9000" font-family="sans-serif" font-size="1.6000" fill="#111111">CoreNormalHatch</text>
    <rect x="161.8000" y="33.0000" width="3.5000" height="2.0000" fill="#800080" stroke="#333333" stroke-width="0.08" rx="0.3" ry="0.3"/>
    <text x="168.6000" y="34.9000" font-family="monospace" font-size="1.6000" fill="#444444" text-anchor="end"> 9</text>
    <text x="169.6000" y="34.9000" font-family="sans-serif" font-size="1.6000" fill="#111111">CoreContourHatch</text>
    <rect x="161.8000" y="36.0000" width="3.5000" height="2.0000" fill="#FF69B4" stroke="#333333" stroke-width="0.08" rx="0.3" ry="0.3"/>
    <text x="168.6000" y="37.9000" font-family="monospace" font-size="1.6000" fill="#444444" text-anchor="end">10</text>
    <text x="169.6000" y="37.9000" font-family="sans-serif" font-size="1.6000" fill="#111111">Shell1OverhangHatch</text>
    <rect x="161.8000" y="39.0000" width="3.5000" height="2.0000" fill="#00CED1" stroke="#333333" stroke-width="0.08" rx="0.3" ry="0.3"/>
    <text x="168.6000" y="40.9000" font-family="monospace" font-size="1.6000" fill="#444444" text-anchor="end">11</text>
    <text x="169.6000" y="40.9000" font-family="sans-serif" font-size="1.6000" fill="#111111">Shell1NormalHatch</text>
    <rect x="161.8000" y="42.0000" width="3.5000" height="2.0000" fill="#FF00FF" stroke="#333333" stroke-width="0.08" rx="0.3" ry="0.3"/>
    <text x="168.6000" y="43.9000" font-family="monospace" font-size="1.6000" fill="#444444" text-anchor="end">12</text>
    <text x="169.6000" y="43.9000" font-family="sans-serif" font-size="1.6000" fill="#111111">Shell1ContourHatch</text>
    <rect x="161.8000" y="45.0000" width="3.5000" height="2.0000" fill="#A52A2A" stroke="#333333" stroke-width="0.08" rx="0.3" ry="0.3"/>
    <text x="168.6000" y="46.9000" font-family="monospace" font-size="1.6000" fill="#444444" text-anchor="end">13</text>
    <text x="169.6000" y="46.9000" font-family="sans-serif" font-size="1.6000" fill="#111111">Shell2OverhangHatch</text>
    <rect x="161.8000" y="48.0000" width="3.5000" height="2.0000" fill="#808080" stroke="#333333" stroke-width="0.08" rx="0.3" ry="0.3"/>
    <text x="168.6000" y="49.9000" font-family="monospace" font-size="1.6000" fill="#444444" text-anchor="end">14</text>
    <text x="169.6000" y="49.9000" font-family="sans-serif" font-size="1.6000" fill="#111111">Shell2NormalHatch</text>
    <rect x="161.8000" y="51.0000" width="3.5000" height="2.0000" fill="#32CD32" stroke="#333333" stroke-width="0.08" rx="0.3" ry="0.3"/>
    <text x="168.6000" y="52.9000" font-family="monospace" font-size="1.6000" fill="#444444" text-anchor="end">15</text>
    <text x="169.6000" y="52.9000" font-family="sans-serif" font-size="1.6000" fill="#111111">Shell2ContourHatch</text>
    <rect x="161.8000" y="54.0000" width="3.5000" height="2.0000" fill="#1A237E" stroke="#333333" stroke-width="0.08" rx="0.3" ry="0.3"/>
    <text x="168.6000" y="55.9000" font-family="monospace" font-size="1.6000" fill="#444444" text-anchor="end">16</text>
    <text x="169.6000" y="55.9000" font-family="sans-serif" font-size="1.6000" fill="#111111">SupportContourVolume</text>
    <rect x="161.8000" y="57.0000" width="3.5000" height="2.0000" fill="#827717" stroke="#333333" stroke-width="0.08" rx="0.3" ry="0.3"/>
    <text x="168.6000" y="58.9000" font-family="monospace" font-size="1.6000" fill="#444444" text-anchor="end">17</text>
    <text x="169.6000" y="58.9000" font-family="sans-serif" font-size="1.6000" fill="#111111">SupportHatch</text>
    <rect x="161.8000" y="60.0000" width="3.5000" height="2.0000" fill="#006064" stroke="#333333" stroke-width="0.08" rx="0.3" ry="0.3"/>
    <text x="168.6000" y="61.9000" font-family="monospace" font-size="1.6000" fill="#444444" text-anchor="end">18</text>
    <text x="169.6000" y="61.9000" font-family="sans-serif" font-size="1.6000" fill="#111111">PointSequence</text>
    <rect x="161.8000" y="63.0000" width="3.5000" height="2.0000" fill="#B71C1C" stroke="#333333" stroke-width="0.08" rx="0.3" ry="0.3"/>
    <text x="168.6000" y="64.9000" font-family="monospace" font-size="1.6000" fill="#444444" text-anchor="end">19</text>
    <text x="169.6000" y="64.9000" font-family="sans-serif" font-size="1.6000" fill="#111111">ExternalSupports</text>
    <rect x="161.8000" y="66.0000" width="3.5000" height="2.0000" fill="#E64A19" stroke="#333333" stroke-width="0.08" rx="0.3" ry="0.3"/>
    <text x="168.6000" y="67.9000" font-family="monospace" font-size="1.6000" fill="#444444" text-anchor="end">20</text>
    <text x="169.6000" y="67.9000" font-family="sans-serif" font-size="1.6000" fill="#111111">CoreContourHatchOverhang</text>
    <rect x="161.8000" y="69.0000" width="3.5000" height="2.0000" fill="#311B92" stroke="#333333" stroke-width="0.08" rx="0.3" ry="0.3"/>
    <text x="168.6000" y="70.9000" font-family="monospace" font-size="1.6000" fill="#444444" text-anchor="end">21</text>
    <text x="169.6000" y="70.9000" font-family="sans-serif" font-size="1.6000" fill="#111111">Shell1ContourHatchOverhang</text>
    <rect x="161.8000" y="72.0000" width="3.5000" height="2.0000" fill="#880E4F" stroke="#333333" stroke-width="0.08" rx="0.3" ry="0.3"/>
    <text x="168.6000" y="73.9000" font-family="monospace" font-size="1.6000" fill="#444444" text-anchor="end">22</text>
    <text x="169.6000" y="73.9000" font-family="sans-serif" font-size="1.6000" fill="#111111">Shell2ContourHatchOverhang</text>
    </g>
  </g>
</svg>
