<?xml version="1.0" encoding="UTF-8" standalone="yes"?>
<svg xmlns="http://www.w3.org/2000/svg"
     xmlns:xlink="http://www.w3.org/1999/xlink"
     width="2020.0000mm" height="1600.0000mm"
     viewBox="0 0 202.000000 160.000000">
  <!--
    Build plate : 150.00 x 150.00 mm
    Coordinate  : 1 SVG unit = 1 mm
    Display zoom: 10x  (width/height = viewBox x 10)
    Hatch stroke: 0.04 mm = ~28 mm on screen at this zoom
    Legend panel: right margin (42 mm wide)
  -->
  <defs>
    <marker id="endArrow" markerWidth="2" markerHeight="1.4"
            refX="0" refY="0.7" orient="auto"
            markerUnits="strokeWidth">
      <polyline fill="darkblue" points="0,0 2,0.7 0,1.4 0.2,0.7"/>
    </marker>
  </defs>
  <!-- Background -->
  <rect x="0" y="0" width="202.000000" height="160.000000" fill="#f0f0f0" stroke="none"/>
  <!-- Build plate boundary (150 x 150 mm) -->
  <rect x="5.000000" y="5.000000" width="150.000000" height="150.000000"
        fill="#ffffff" stroke="#aaaaaa" stroke-width="0.2" stroke-dasharray="1,0.5"/>
  <!-- Build plate centre circle (r = 75.00 mm) -->
  <circle cx="80.000000" cy="80.000000" r="75.000000"
          fill="none" stroke="#bbbbbb" stroke-width="0.15" stroke-dasharray="0.8,0.4"/>
  <!-- Centre cross-hair -->
  <line x1="5.000000" y1="80.000000" x2="155.000000" y2="80.000000" stroke="#cccccc" stroke-width="0.1"/>
  <line x1="80.000000" y1="5.000000" x2="80.000000" y2="155.000000" stroke="#cccccc" stroke-width="0.1"/>
  <circle cx="80.000000" cy="80.000000" r="0.3" fill="#cccccc" stroke="none"/>
  <!-- Corner labels -->
  <text x="5.400000" y="4.600000" font-family="sans-serif" font-size="2" fill="#888888">0,0</text>
  <text x="154.600006" y="4.600000" font-family="sans-serif" font-size="2" fill="#888888" text-anchor="end">150,0</text>
  <text x="5.400000" y="157.199997" font-family="sans-serif" font-size="2" fill="#888888">0,150</text>
  <!-- Layer geometry -->
  <g id="geometry">
    <g class="thermal-hatch" data-segment="8" data-name="CoreNormalHatch">
      <line x1="48.76881" y1="111.82607" x2="51.46164" y2="116.30770" stroke="#228B22" stroke-width="0.04000"/>
      <line x1="48.83432" y1="111.74094" x2="51.57141" y2="116.29622" stroke="#228B22" stroke-width="0.04000"/>
      <line x1="48.89984" y1="111.65582" x2="51.66851" y2="116.26367" stroke="#228B22" stroke-width="0.04000"/>
      <line x1="49.43898" y1="112.35894" x2="51.74484" y2="116.19654" stroke="#228B22" stroke-width="0.04000"/>
      <line x1="48.70329" y1="111.91119" x2="51.25139" y2="116.15194" stroke="#228B22" stroke-width="0.04000"/>
      <line x1="49.56123" y1="112.36825" x2="51.82117" y2="116.12941" stroke="#228B22" stroke-width="0.04000"/>
      <line x1="49.68349" y1="112.37755" x2="51.89750" y2="116.06227" stroke="#228B22" stroke-width="0.04000"/>
      <line x1="50.12661" y1="112.92088" x2="51.97382" y2="115.99514" stroke="#228B22" stroke-width="0.04000"/>
      <line x1="48.63778" y1="111.99632" x2="51.03463" y2="115.98534" stroke="#228B22" stroke-width="0.04000"/>
      <line x1="50.60328" y1="113.52001" x2="52.05014" y2="115.92801" stroke="#228B22" stroke-width="0.04000"/>
      <line x1="51.05142" y1="114.07169" x2="52.12647" y2="115.86088" stroke="#228B22" stroke-width="0.04000"/>
      <line x1="48.57227" y1="112.08145" x2="50.81786" y2="115.81873" stroke="#228B22" stroke-width="0.04000"/>
      <line x1="51.60123" y1="114.79257" x2="52.20280" y2="115.79375" stroke="#228B22" stroke-width="0.04000"/>
      <line x1="48.50675" y1="112.16658" x2="50.58298" y2="115.62200" stroke="#228B22" stroke-width="0.04000"/>
      <line x1="48.44124" y1="112.25171" x2="50.34200" y2="115.41510" stroke="#228B22" stroke-width="0.04000"/>
      <line x1="48.37573" y1="112.33684" x2="50.10150" y2="115.20901" stroke="#228B22" stroke-width="0.04000"/>
      <line x1="48.31021" y1="112.42197" x2="49.81427" y2="114.92514" stroke="#228B22" stroke-width="0.04000"/>
      <line x1="48.40358" y1="112.77151" x2="49.50960" y2="114.61224" stroke="#228B22" stroke-width="0.04000"/>
      <line x1="48.54114" y1="113.19460" x2="49.20987" y2="114.30756" stroke="#228B22" stroke-width="0.04000"/>
      <line x1="48.96535" y1="111.57069" x2="48.98423" y2="111.60211" stroke="#228B22" stroke-width="0.04000"/>
    </g>
    <g class="thermal-hatch" data-segment="8" data-name="CoreNormalHatch">
      <line x1="49.23010" y1="112.63380" x2="49.54120" y2="112.65740" stroke="#228B22" stroke-width="0.04000"/>
      <line x1="49.54120" y1="112.65740" x2="50.00690" y2="113.23410" stroke="#228B22" stroke-width="0.04000"/>
      <line x1="50.00690" y1="113.23410" x2="50.00690" y2="113.23420" stroke="#228B22" stroke-width="0.04000"/>
      <line x1="50.00690" y1="113.23420" x2="50.05070" y2="113.28950" stroke="#228B22" stroke-width="0.04000"/>
      <line x1="50.05070" y1="113.28950" x2="50.06600" y2="113.30660" stroke="#228B22" stroke-width="0.04000"/>
      <line x1="50.06600" y1="113.30660" x2="50.69570" y2="114.10630" stroke="#228B22" stroke-width="0.04000"/>
      <line x1="50.69570" y1="114.10630" x2="51.01550" y2="114.46990" stroke="#228B22" stroke-width="0.04000"/>
      <line x1="51.01550" y1="114.46990" x2="51.36920" y2="114.96680" stroke="#228B22" stroke-width="0.04000"/>
      <line x1="51.36920" y1="114.96680" x2="51.72300" y2="115.41300" stroke="#228B22" stroke-width="0.04000"/>
      <line x1="51.72300" y1="115.41300" x2="51.87960" y2="115.69170" stroke="#228B22" stroke-width="0.04000"/>
      <line x1="51.87960" y1="115.69170" x2="51.52930" y2="115.99970" stroke="#228B22" stroke-width="0.04000"/>
      <line x1="51.52930" y1="115.99970" x2="50.92980" y2="115.53890" stroke="#228B22" stroke-width="0.04000"/>
      <line x1="50.92980" y1="115.53890" x2="50.73470" y2="115.36970" stroke="#228B22" stroke-width="0.04000"/>
      <line x1="50.73470" y1="115.36970" x2="50.11760" y2="114.84100" stroke="#228B22" stroke-width="0.04000"/>
      <line x1="50.11760" y1="114.84100" x2="50.01860" y2="114.71630" stroke="#228B22" stroke-width="0.04000"/>
      <line x1="50.01860" y1="114.71630" x2="49.39040" y2="114.07760" stroke="#228B22" stroke-width="0.04000"/>
      <line x1="49.39040" y1="114.07760" x2="48.88110" y2="113.30200" stroke="#228B22" stroke-width="0.04000"/>
      <line x1="48.88110" y1="113.30200" x2="48.61900" y2="112.49610" stroke="#228B22" stroke-width="0.04000"/>
      <line x1="48.61900" y1="112.49610" x2="48.92780" y2="112.09460" stroke="#228B22" stroke-width="0.04000"/>
      <line x1="48.92780" y1="112.09460" x2="49.23010" y2="112.63380" stroke="#228B22" stroke-width="0.04000"/>
    </g>
    <g class="thermal-contour" data-segment="1" data-name="CoreContour_Volume">
    <path d="M 49.407 112.357 L 49.6882 112.378 L 50.2393 113.06 L 50.2721 113.102 L 50.2884 113.12 L 50.9187 113.921 L 51.2439 114.291 L 51.6012 114.793 L 51.9651 115.251 L 52.2476 115.754 L 51.6396 116.289 L 51.455 116.308 L 50.747 115.764 L 50.5453 115.589 L 49.9078 115.043 L 49.8011 114.909 L 49.1551 114.252 L 49.1494 114.239 L 48.6135 113.423 L 48.6054 113.392 L 48.296 112.44 L 48.9661 111.57 L 49.407 112.357" fill="none" stroke="#000000" stroke-width="0.05000" fill-rule="evenodd" fill-opacity="1.000"/>
    </g>
    <g class="thermal-contour" data-segment="1" data-name="CoreContour_Volume">
    <path d="M 49.285 112.548 L 49.5868 112.571 L 50.0774 113.178 L 50.1194 113.231 L 50.1345 113.248 L 50.7649 114.049 L 51.0862 114.414 L 51.4412 114.913 L 51.7983 115.363 L 51.9938 115.711 L 51.5555 116.097 L 51.5134 116.101 L 50.8726 115.608 L 50.6759 115.438 L 50.0524 114.904 L 49.9511 114.776 L 49.3202 114.135 L 48.7985 113.34 L 48.7974 113.336 L 48.5188 112.479 L 48.9397 111.932 L 49.285 112.548" fill="none" stroke="#000000" stroke-width="0.05000" fill-rule="evenodd" fill-opacity="1.000"/>
    <path d="M 48.619 112.496 L 48.8811 113.302 L 49.3904 114.078 L 50.0186 114.716 L 50.1176 114.841 L 50.7347 115.37 L 50.9298 115.539 L 51.5293 116 L 51.8796 115.692 L 51.723 115.413 L 51.3692 114.967 L 51.0155 114.47 L 50.6957 114.106 L 50.066 113.307 L 50.0507 113.289 L 50.0069 113.234 L 50.0069 113.234 L 49.5412 112.657 L 49.2301 112.634 L 48.9278 112.095 L 48.619 112.496" fill="none" stroke="#000000" stroke-width="0.05000" fill-rule="evenodd" fill-opacity="1.000"/>
    </g>
    <g class="thermal-contour" data-segment="3" data-name="HollowShell1Contour_Volume">
    <path d="M 49.407 112.356 L 49.6721 112.377 L 49.7547 112.479 L 50.203 113.046 L 50.4195 113.287 L 50.9187 113.921 L 51.2439 114.291 L 51.6012 114.793 L 51.9651 115.252 L 52.2388 115.739 L 51.6765 116.233 L 51.6339 116.29 L 51.455 116.308 L 50.747 115.764 L 50.5453 115.589 L 49.9078 115.043 L 49.8011 114.909 L 49.1551 114.252 L 49.1494 114.239 L 48.6135 113.423 L 48.6054 113.392 L 48.296 112.44 L 48.9661 111.57 L 49.407 112.356" fill="none" stroke="#0000CC" stroke-width="0.05000" fill-rule="evenodd" fill-opacity="1.000"/>
    <path d="M 48.4074 112.46 L 48.7014 113.364 L 48.706 113.381 L 49.2376 114.191 L 49.2393 114.195 L 49.8761 114.842 L 49.9801 114.973 L 50.6106 115.514 L 50.8098 115.686 L 51.4842 116.205 L 51.5975 116.193 L 52.1207 115.733 L 51.8817 115.307 L 51.5212 114.853 L 51.165 114.352 L 50.8418 113.985 L 50.2112 113.184 L 50.1957 113.167 L 50.1608 113.122 L 50.1608 113.122 L 49.6375 112.474 L 49.346 112.452 L 48.9529 111.751 L 48.4074 112.46" fill="none" stroke="#0000CC" stroke-width="0.05000" fill-rule="evenodd" fill-opacity="1.000"/>
    </g>
    <g class="thermal-contour" data-segment="4" data-name="HollowShell1Contour_Overhang">
    <path d="M 52.2476 115.754 L 51.6396 116.289 L 51.6339 116.29 L 51.6765 116.233 L 52.2388 115.739 L 52.2476 115.754" fill="none" stroke="#000080" stroke-width="0.05000" fill-rule="evenodd" fill-opacity="1.000"/>
    <path d="M 49.6882 112.378 L 50.2393 113.061 L 50.2721 113.102 L 50.2884 113.12 L 50.4195 113.287 L 50.203 113.046 L 49.7547 112.479 L 49.6721 112.377 L 49.6882 112.378" fill="none" stroke="#000080" stroke-width="0.05000" fill-rule="evenodd" fill-opacity="1.000"/>
    </g>
    <g class="thermal-contour" data-segment="5" data-name="HollowShell2Contour_Volume">
    <path d="M 49.346 112.452 L 49.6375 112.474 L 50.1608 113.122 L 50.1608 113.122 L 50.1957 113.167 L 50.2112 113.184 L 50.8418 113.985 L 51.165 114.352 L 51.5212 114.853 L 51.8817 115.307 L 52.1207 115.733 L 51.5975 116.193 L 51.4842 116.205 L 50.8098 115.686 L 50.6106 115.514 L 49.9801 114.973 L 49.8761 114.842 L 49.2393 114.195 L 49.2376 114.191 L 48.706 113.381 L 48.7014 113.364 L 48.4074 112.46 L 48.9529 111.751 L 49.346 112.452" fill="none" stroke="#B8860B" stroke-width="0.05000" fill-rule="evenodd" fill-opacity="1.000"/>
    <path d="M 48.5188 112.479 L 48.7974 113.336 L 48.7985 113.34 L 49.3202 114.135 L 49.9511 114.776 L 50.0524 114.904 L 50.6759 115.438 L 50.8726 115.608 L 51.5134 116.101 L 51.5555 116.097 L 51.9938 115.711 L 51.7983 115.363 L 51.4412 114.913 L 51.0862 114.414 L 50.7649 114.049 L 50.1345 113.248 L 50.1194 113.231 L 50.0774 113.178 L 49.5868 112.571 L 49.285 112.548 L 48.9397 111.932 L 48.5188 112.479" fill="none" stroke="#B8860B" stroke-width="0.05000" fill-rule="evenodd" fill-opacity="1.000"/>
    </g>
    <g class="thermal-contour" data-segment="9" data-name="CoreContourHatch">
    <path d="M 49.2466 112.608 L 49.5549 112.631 L 50.0339 113.225 L 50.0339 113.225 L 50.0719 113.273 L 50.0867 113.289 L 50.716 114.089 L 51.0367 114.453 L 51.3904 114.95 L 51.7455 115.398 L 51.9139 115.698 L 51.5305 116.035 L 50.9127 115.56 L 50.7171 115.39 L 50.0981 114.86 L 49.9981 114.734 L 49.3693 114.095 L 48.8565 113.314 L 48.5889 112.491 L 48.9313 112.046 L 49.2466 112.608" fill="none" stroke="#800080" stroke-width="0.05000" fill-rule="evenodd" fill-opacity="1.000"/>
    <path d="M 48.619 112.496 L 48.8811 113.302 L 49.3904 114.078 L 50.0186 114.716 L 50.1176 114.841 L 50.7347 115.37 L 50.9298 115.539 L 51.5293 116 L 51.8796 115.692 L 51.723 115.413 L 51.3692 114.967 L 51.0155 114.47 L 50.6957 114.106 L 50.066 113.307 L 50.0507 113.289 L 50.0069 113.234 L 50.0069 113.234 L 49.5412 112.657 L 49.2301 112.634 L 48.9278 112.095 L 48.619 112.496" fill="none" stroke="#800080" stroke-width="0.05000" fill-rule="evenodd" fill-opacity="1.000"/>
    </g>
    <!-- ===== Thermal Segment Colour Legend ===== -->
    <g id="thermal-legend">
    <rect x="161.0000" y="5.0000" width="40.0000" height="72.0000"
          rx="1" ry="1"
          fill="#fafafa" stroke="#cccccc" stroke-width="0.15"/>
    <text x="181.0000" y="7.6000" font-family="sans-serif" font-size="2.2000" font-weight="bold" fill="#222222" text-anchor="middle">Thermal Segments</text>
    <line x1="161.5000" y1="8.7000" x2="200.5000" y2="8.7000" stroke="#bbbbbb" stroke-width="0.1"/>
    <rect x="161.8000" y="9.0000" width="3.5000" height="2.0000" fill="#000000" stroke="#333333" stroke-width="0.08" rx="0.3" ry="0.3"/>
    <text x="168.6000" y="10.9000" font-family="monospace" font-size="1.6000" fill="#444444" text-anchor="end"> 1</text>
    <text x="169.6000" y="10.9000" font-family="sans-serif" font-size="1.6000" fill="#111111">CoreContour_Volume</text>
    <rect x="161.8000" y="12.0000" width="3.5000" height="2.0000" fill="#8B0000" stroke="#333333" stroke-width="0.08" rx="0.3" ry="0.3"/>
    <text x="168.6000" y="13.9000" font-family="monospace" font-size="1.6000" fill="#444444" text-anchor="end"> 2</text>
    <text x="169.6000" y="13.9000" font-family="sans-serif" font-size="1.6000" fill="#111111">CoreContour_Overhang</text>
    <rect x="161.8000" y="15.0000" width="3.5000" height="2.0000" fill="#0000CC" stroke="#333333" stroke-width="0.08" rx="0.3" ry="0.3"/>
    <text x="168.6000" y="16.9000" font-family="monospace" font-size="1.6000" fill="#444444" text-anchor="end"> 3</text>
    <text x="169.6000" y="16.9000" font-family="sans-serif" font-size="1.6000" fill="#111111">Shell1Contour_Volume</text>
    <rect x="161.8000" y="18.0000" width="3.5000" height="2.0000" fill="#000080" stroke="#333333" stroke-width="0.08" rx="0.3" ry="0.3"/>
    <text x="168.6000" y="19.9000" font-family="monospace" font-size="1.6000" fill="#444444" text-anchor="end"> 4</text>
    <text x="169.6000" y="19.9000" font-family="sans-serif" font-size="1.6000" fill="#111111">Shell1Contour_Overhang</text>
    <rect x="161.8000" y="21.0000" width="3.5000" height="2.0000" fill="#B8860B" stroke="#333333" stroke-width="0.08" rx="0.3" ry="0.3"/>
    <text x="168.6000" y="22.9000" font-family="monospace" font-size="1.6000" fill="#444444" text-anchor="end"> 5</text>
    <text x="169.6000" y="22.9000" font-family="sans-serif" font-size="1.6000" fill="#111111">Shell2Contour_Volume</text>
    <rect x="161.8000" y="24.0000" width="3.5000" height="2.0000" fill="#006400" stroke="#333333" stroke-width="0.08" rx="0.3" ry="0.3"/>
    <text x="168.6000" y="25.9000" font-family="monospace" font-size="1.6000" fill="#444444" text-anchor="end"> 6</text>
    <text x="169.6000" y="25.9000" font-family="sans-serif" font-size="1.6000" fill="#111111">Shell2Contour_Overhang</text>
    <rect x="161.8000" y="27.0000" width="3.5000" height="2.0000" fill="#FF8C00" stroke="#333333" stroke-width="0.08" rx="0.3" ry="0.3"/>
    <text x="168.6000" y="28.9000" font-family="monospace" font-size="1.6000" fill="#444444" text-anchor="end"> 7</text>
    <text x="169.6000" y="28.9000" font-family="sans-serif" font-size="1.6000" fill="#111111">CoreOverhangHatch</text>
    <rect x="161.8000" y="30.0000" width="3.5000" height="2.0000" fill="#228B22" stroke="#333333" stroke-width="0.08" rx="0.3" ry="0.3"/>
    <text x="168.6000" y="31.9000" font-family="monospace" font-size="1.6000" fill="#444444" text-anchor="end"> 8</text>
    <text x="169.6000" y="31.9000" font-family="sans-serif" font-size="1.6000" fill="#111111">CoreNormalHatch</text>
    <rect x="161.8000" y="33.0000" width="3.5000" height="2.0000" fill="#800080" stroke="#333333" stroke-width="0.08" rx="0.3" ry="0.3"/>
    <text x="168.6000" y="34.9000" font-family="monospace" font-size="1.6000" fill="#444444" text-anchor="end"> 9</text>
    <text x="169.6000" y="34.9000" font-family="sans-serif" font-size="1.6000" fill="#111111">CoreContourHatch</text>
    <rect x="161.8000" y="36.0000" width="3.5000" height="2.0000" fill="#FF69B4" stroke="#333333" stroke-width="0.08" rx="0.3" ry="0.3"/>
    <text x="168.6000" y="37.9000" font-family="monospace" font-size="1.6000" fill="#444444" text-anchor="end">10</text>
    <text x="169.6000" y="37.9000" font-family="sans-serif" font-size="1.6000" fill="#111111">Shell1OverhangHatch</text>
    <rect x="161.8000" y="39.0000" width="3.5000" height="2.0000" fill="#00CED1" stroke="#333333" stroke-width="0.08" rx="0.3" ry="0.3"/>
    <text x="168.6000" y="40.9000" font-family="monospace" font-size="1.6000" fill="#444444" text-anchor="end">11</text>
    <text x="169.6000" y="40.9000" font-family="sans-serif" font-size="1.6000" fill="#111111">Shell1NormalHatch</text>
    <rect x="161.8000" y="42.0000" width="3.5000" height="2.0000" fill="#FF00FF" stroke="#333333" stroke-width="0.08" rx="0.3" ry="0.3"/>
    <text x="168.6000" y="43.9000" font-family="monospace" font-size="1.6000" fill="#444444" text-anchor="end">12</text>
    <text x="169.6000" y="43.9000" font-family="sans-serif" font-size="1.6000" fill="#111111">Shell1ContourHatch</text>
    <rect x="161.8000" y="45.0000" width="3.5000" height="2.0000" fill="#A52A2A" stroke="#333333" stroke-width="0.08" rx="0.3" ry="0.3"/>
    <text x="168.6000" y="46.9000" font-family="monospace" font-size="1.6000" fill="#444444" text-anchor="end">13</text>
    <text x="169.6000" y="46.9000" font-family="sans-serif" font-size="1.6000" fill="#111111">Shell2OverhangHatch</text>
    <rect x="161.8000" y="48.0000" width="3.5000" height="2.0000" fill="#808080" stroke="#333333" stroke-width="0.08" rx="0.3" ry="0.3"/>
    <text x="168.6000" y="49.9000" font-family="monospace" font-size="1.6000" fill="#444444" text-anchor="end">14</text>
    <text x="169.6000" y="49.9000" font-family="sans-serif" font-size="1.6000" fill="#111111">Shell2NormalHatch</text>
    <rect x="161.8000" y="51.0000" width="3.5000" height="2.0000" fill="#32CD32" stroke="#333333" stroke-width="0.08" rx="0.3" ry="0.3"/>
    <text x="168.6000" y="52.9000" font-family="monospace" font-size="1.6000" fill="#444444" text-anchor="end">15</text>
    <text x="169.6000" y="52.9000" font-family="sans-serif" font-size="1.6000" fill="#111111">Shell2ContourHatch</text>
    <rect x="161.8000" y="54.0000" width="3.5000" height="2.0000" fill="#1A237E" stroke="#333333" stroke-width="0.08" rx="0.3" ry="0.3"/>
    <text x="168.6000" y="55.9000" font-family="monospace" font-size="1.6000" fill="#444444" text-anchor="end">16</text>
    <text x="169.6000" y="55.9000" font-family="sans-serif" font-size="1.6000" fill="#111111">SupportContourVolume</text>
    <rect x="161.8000" y="57.0000" width="3.5000" height="2.0000" fill="#827717" stroke="#333333" stroke-width="0.08" rx="0.3" ry="0.3"/>
    <text x="168.6000" y="58.9000" font-family="monospace" font-size="1.6000" fill="#444444" text-anchor="end">17</text>
    <text x="169.6000" y="58.9000" font-family="sans-serif" font-size="1.6000" fill="#111111">SupportHatch</text>
    <rect x="161.8000" y="60.0000" width="3.5000" height="2.0000" fill="#006064" stroke="#333333" stroke-width="0.08" rx="0.3" ry="0.3"/>
    <text x="168.6000" y="61.9000" font-family="monospace" font-size="1.6000" fill="#444444" text-anchor="end">18</text>
    <text x="169.6000" y="61.9000" font-family="sans-serif" font-size="1.6000" fill="#111111">PointSequence</text>
    <rect x="161.8000" y="63.0000" width="3.5000" height="2.0000" fill="#B71C1C" stroke="#333333" stroke-width="0.08" rx="0.3" ry="0.3"/>
    <text x="168.6000" y="64.9000" font-family="monospace" font-size="1.6000" fill="#444444" text-anchor="end">19</text>
    <text x="169.6000" y="64.9000" font-family="sans-serif" font-size="1.6000" fill="#111111">ExternalSupports</text>
    <rect x="161.8000" y="66.0000" width="3.5000" height="2.0000" fill="#E64A19" stroke="#333333" stroke-width="0.08" rx="0.3" ry="0.3"/>
    <text x="168.6000" y="67.9000" font-family="monospace" font-size="1.6000" fill="#444444" text-anchor="end">20</text>
    <text x="169.6000" y="67.9000" font-family="sans-serif" font-size="1.6000" fill="#111111">CoreContourHatchOverhang</text>
    <rect x="161.8000" y="69.0000" width="3.5000" height="2.0000" fill="#311B92" stroke="#333333" stroke-width="0.08" rx="0.3" ry="0.3"/>
    <text x="168.6000" y="70.9000" font-family="monospace" font-size="1.6000" fill="#444444" text-anchor="end">21</text>
    <text x="169.6000" y="70.9000" font-family="sans-serif" font-size="1.6000" fill="#111111">Shell1ContourHatchOverhang</text>
    <rect x="161.8000" y="72.0000" width="3.5000" height="2.0000" fill="#880E4F" stroke="#333333" stroke-width="0.08" rx="0.3" ry="0.3"/>
    <text x="168.6000" y="73.9000" font-family="monospace" font-size="1.6000" fill="#444444" text-anchor="end">22</text>
    <text x="169.6000" y="73.9000" font-family="sans-serif" font-size="1.6000" fill="#111111">Shell2ContourHatchOverhang</text>
    </g>
  </g>
</svg>
