<?xml version="1.0" encoding="UTF-8" standalone="yes"?>
<!DOCTYPE svg PUBLIC "-//W3C//DTD SVG 1.0//EN" "http://www.w3.org/TR/2001/REC-SVG-20010904/DTD/svg10.dtd">
<svg height="2000" width="2000" xmlns="http://www.w3.org/2000/svg" xmlns:svg="http://www.w3.org/2000/svg" xmlns:xlink="http://www.w3.org/1999/xlink">
  <marker id="endArrow" markerHeight="8" markerUnits="strokeWidth" markerWidth="10" orient="auto" refX="1" refY="5" viewBox="0 0 1000 1000">
    <polyline fill="darkblue" points="0,0 10,5 0,10 1,5" />
  </marker>
  <circle cx="1000.000000" cy="1000.000000" r="1.000000" style="stroke:black; fill: red" />
  <circle cx="1000.000000" cy="1000.000000" r="800.000000" style="stroke:black; fill: none" />
  <line x1="1401.675903" y1="1410.000000" x2="1401.431763" y2="1409.624023" style="stroke: green; stroke-width: 0.200000"/>
  <line x1="1402.868164" y1="1410.000000" x2="1401.431763" y2="1407.787964" style="stroke: green; stroke-width: 0.200000"/>
  <line x1="1404.060547" y1="1410.000000" x2="1401.431763" y2="1405.951904" style="stroke: green; stroke-width: 0.200000"/>
  <line x1="1405.252930" y1="1410.000000" x2="1401.431763" y2="1404.115723" style="stroke: green; stroke-width: 0.200000"/>
  <line x1="1406.445312" y1="1410.000000" x2="1401.431763" y2="1402.279663" style="stroke: green; stroke-width: 0.200000"/>
  <line x1="1407.637695" y1="1410.000000" x2="1401.431763" y2="1400.443604" style="stroke: green; stroke-width: 0.200000"/>
  <line x1="1408.829956" y1="1410.000000" x2="1401.431763" y2="1398.607422" style="stroke: green; stroke-width: 0.200000"/>
  <line x1="1410.022461" y1="1410.000000" x2="1401.431763" y2="1396.771484" style="stroke: green; stroke-width: 0.200000"/>
  <line x1="1411.214722" y1="1410.000000" x2="1401.431763" y2="1394.935303" style="stroke: green; stroke-width: 0.200000"/>
  <line x1="1412.407104" y1="1410.000000" x2="1401.431763" y2="1393.099365" style="stroke: green; stroke-width: 0.200000"/>
  <line x1="1413.599609" y1="1410.000000" x2="1401.431763" y2="1391.263306" style="stroke: green; stroke-width: 0.200000"/>
  <line x1="1414.791870" y1="1410.000000" x2="1401.431763" y2="1389.427246" style="stroke: green; stroke-width: 0.200000"/>
  <line x1="1415.984131" y1="1410.000000" x2="1401.431763" y2="1387.591064" style="stroke: green; stroke-width: 0.200000"/>
  <line x1="1417.176514" y1="1410.000000" x2="1401.431763" y2="1385.755005" style="stroke: green; stroke-width: 0.200000"/>
  <line x1="1418.368896" y1="1410.000000" x2="1401.431763" y2="1383.918945" style="stroke: green; stroke-width: 0.200000"/>
  <line x1="1419.561279" y1="1410.000000" x2="1401.431763" y2="1382.082764" style="stroke: green; stroke-width: 0.200000"/>
  <line x1="1420.753662" y1="1410.000000" x2="1401.431763" y2="1380.246704" style="stroke: green; stroke-width: 0.200000"/>
  <line x1="1421.946045" y1="1410.000000" x2="1401.431763" y2="1378.410645" style="stroke: green; stroke-width: 0.200000"/>
  <line x1="1423.138428" y1="1410.000000" x2="1401.431763" y2="1376.574707" style="stroke: green; stroke-width: 0.200000"/>
  <line x1="1424.330811" y1="1410.000000" x2="1401.431763" y2="1374.738525" style="stroke: green; stroke-width: 0.200000"/>
  <line x1="1425.523071" y1="1410.000000" x2="1401.431763" y2="1372.902588" style="stroke: green; stroke-width: 0.200000"/>
  <line x1="1426.715332" y1="1410.000000" x2="1401.431763" y2="1371.066406" style="stroke: green; stroke-width: 0.200000"/>
  <line x1="1427.907837" y1="1410.000000" x2="1401.431763" y2="1369.230347" style="stroke: green; stroke-width: 0.200000"/>
  <line x1="1429.100220" y1="1410.000000" x2="1401.431763" y2="1367.394287" style="stroke: green; stroke-width: 0.200000"/>
  <line x1="1430.292480" y1="1410.000000" x2="1401.431763" y2="1365.558105" style="stroke: green; stroke-width: 0.200000"/>
  <line x1="1431.484985" y1="1410.000000" x2="1401.431763" y2="1363.722046" style="stroke: green; stroke-width: 0.200000"/>
  <line x1="1432.677246" y1="1410.000000" x2="1401.431763" y2="1361.885986" style="stroke: green; stroke-width: 0.200000"/>
  <line x1="1433.869629" y1="1410.000000" x2="1401.431763" y2="1360.049927" style="stroke: green; stroke-width: 0.200000"/>
  <line x1="1435.062012" y1="1410.000000" x2="1401.431763" y2="1358.213867" style="stroke: green; stroke-width: 0.200000"/>
  <line x1="1436.254395" y1="1410.000000" x2="1401.431763" y2="1356.377686" style="stroke: green; stroke-width: 0.200000"/>
  <line x1="1437.446777" y1="1410.000000" x2="1401.431763" y2="1354.541626" style="stroke: green; stroke-width: 0.200000"/>
  <line x1="1438.639038" y1="1410.000000" x2="1401.431763" y2="1352.705566" style="stroke: green; stroke-width: 0.200000"/>
  <line x1="1439.831543" y1="1410.000000" x2="1401.431763" y2="1350.869385" style="stroke: green; stroke-width: 0.200000"/>
  <line x1="1441.023926" y1="1410.000000" x2="1401.431763" y2="1349.033447" style="stroke: green; stroke-width: 0.200000"/>
  <line x1="1442.216187" y1="1410.000000" x2="1401.431763" y2="1347.197388" style="stroke: green; stroke-width: 0.200000"/>
  <line x1="1443.408447" y1="1410.000000" x2="1401.431763" y2="1345.361328" style="stroke: green; stroke-width: 0.200000"/>
  <line x1="1444.600952" y1="1410.000000" x2="1401.431763" y2="1343.525269" style="stroke: green; stroke-width: 0.200000"/>
  <line x1="1445.793335" y1="1410.000000" x2="1401.431763" y2="1341.689209" style="stroke: green; stroke-width: 0.200000"/>
  <line x1="1446.985596" y1="1410.000000" x2="1401.431763" y2="1339.853027" style="stroke: green; stroke-width: 0.200000"/>
  <line x1="1448.178101" y1="1410.000000" x2="1401.431763" y2="1338.016968" style="stroke: green; stroke-width: 0.200000"/>
  <line x1="1449.370361" y1="1410.000000" x2="1401.431763" y2="1336.180908" style="stroke: green; stroke-width: 0.200000"/>
  <line x1="1450.562744" y1="1410.000000" x2="1401.431763" y2="1334.344727" style="stroke: green; stroke-width: 0.200000"/>
  <line x1="1451.755127" y1="1410.000000" x2="1401.431763" y2="1332.508667" style="stroke: green; stroke-width: 0.200000"/>
  <line x1="1452.947388" y1="1410.000000" x2="1401.431763" y2="1330.672607" style="stroke: green; stroke-width: 0.200000"/>
  <line x1="1454.139893" y1="1410.000000" x2="1401.431763" y2="1328.836548" style="stroke: green; stroke-width: 0.200000"/>
  <line x1="1455.332153" y1="1410.000000" x2="1401.431763" y2="1327.000488" style="stroke: green; stroke-width: 0.200000"/>
  <line x1="1456.524536" y1="1410.000000" x2="1401.431763" y2="1325.164551" style="stroke: green; stroke-width: 0.200000"/>
  <line x1="1457.717041" y1="1410.000000" x2="1401.431763" y2="1323.328247" style="stroke: green; stroke-width: 0.200000"/>
  <line x1="1458.909302" y1="1410.000000" x2="1401.431763" y2="1321.492310" style="stroke: green; stroke-width: 0.200000"/>
  <line x1="1460.101562" y1="1410.000000" x2="1401.431763" y2="1319.656250" style="stroke: green; stroke-width: 0.200000"/>
  <line x1="1461.293945" y1="1410.000000" x2="1401.431763" y2="1317.820068" style="stroke: green; stroke-width: 0.200000"/>
  <line x1="1462.486450" y1="1410.000000" x2="1401.431763" y2="1315.984009" style="stroke: green; stroke-width: 0.200000"/>
  <line x1="1463.678711" y1="1410.000000" x2="1401.431763" y2="1314.147949" style="stroke: green; stroke-width: 0.200000"/>
  <line x1="1464.871094" y1="1410.000000" x2="1401.431763" y2="1312.311890" style="stroke: green; stroke-width: 0.200000"/>
  <line x1="1466.063477" y1="1410.000000" x2="1401.431763" y2="1310.475830" style="stroke: green; stroke-width: 0.200000"/>
  <line x1="1467.255859" y1="1410.000000" x2="1401.431763" y2="1308.639648" style="stroke: green; stroke-width: 0.200000"/>
  <line x1="1468.448242" y1="1410.000000" x2="1401.431763" y2="1306.803589" style="stroke: green; stroke-width: 0.200000"/>
  <line x1="1469.640503" y1="1410.000000" x2="1401.431763" y2="1304.967529" style="stroke: green; stroke-width: 0.200000"/>
  <line x1="1470.832764" y1="1410.000000" x2="1401.431763" y2="1303.131348" style="stroke: green; stroke-width: 0.200000"/>
  <line x1="1472.025269" y1="1410.000000" x2="1401.431763" y2="1301.295410" style="stroke: green; stroke-width: 0.200000"/>
  <line x1="1473.217651" y1="1410.000000" x2="1401.431763" y2="1299.459351" style="stroke: green; stroke-width: 0.200000"/>
  <line x1="1474.410156" y1="1410.000000" x2="1401.431763" y2="1297.623291" style="stroke: green; stroke-width: 0.200000"/>
  <line x1="1475.602417" y1="1410.000000" x2="1401.431763" y2="1295.787231" style="stroke: green; stroke-width: 0.200000"/>
  <line x1="1476.794678" y1="1410.000000" x2="1401.431763" y2="1293.951172" style="stroke: green; stroke-width: 0.200000"/>
  <line x1="1477.987061" y1="1410.000000" x2="1401.431763" y2="1292.114990" style="stroke: green; stroke-width: 0.200000"/>
  <line x1="1479.179443" y1="1410.000000" x2="1401.431763" y2="1290.278931" style="stroke: green; stroke-width: 0.200000"/>
  <line x1="1480.371826" y1="1410.000000" x2="1401.431763" y2="1288.442871" style="stroke: green; stroke-width: 0.200000"/>
  <line x1="1481.564209" y1="1410.000000" x2="1401.431763" y2="1286.606689" style="stroke: green; stroke-width: 0.200000"/>
  <line x1="1482.756470" y1="1410.000000" x2="1401.431763" y2="1284.770630" style="stroke: green; stroke-width: 0.200000"/>
  <line x1="1483.948975" y1="1410.000000" x2="1401.431763" y2="1282.934570" style="stroke: green; stroke-width: 0.200000"/>
  <line x1="1485.141357" y1="1410.000000" x2="1401.431763" y2="1281.098511" style="stroke: green; stroke-width: 0.200000"/>
  <line x1="1486.333618" y1="1410.000000" x2="1401.431763" y2="1279.262451" style="stroke: green; stroke-width: 0.200000"/>
  <line x1="1487.525879" y1="1410.000000" x2="1401.431763" y2="1277.426392" style="stroke: green; stroke-width: 0.200000"/>
  <line x1="1488.718384" y1="1410.000000" x2="1401.431763" y2="1275.590332" style="stroke: green; stroke-width: 0.200000"/>
  <line x1="1489.910767" y1="1410.000000" x2="1401.431763" y2="1273.754150" style="stroke: green; stroke-width: 0.200000"/>
  <line x1="1491.103027" y1="1410.000000" x2="1401.431763" y2="1271.918213" style="stroke: green; stroke-width: 0.200000"/>
  <line x1="1492.295532" y1="1410.000000" x2="1401.431763" y2="1270.082031" style="stroke: green; stroke-width: 0.200000"/>
  <line x1="1493.487793" y1="1410.000000" x2="1401.431763" y2="1268.245972" style="stroke: green; stroke-width: 0.200000"/>
  <line x1="1494.680176" y1="1410.000000" x2="1401.431763" y2="1266.409912" style="stroke: green; stroke-width: 0.200000"/>
  <line x1="1495.872559" y1="1410.000000" x2="1401.431763" y2="1264.573853" style="stroke: green; stroke-width: 0.200000"/>
  <line x1="1497.064941" y1="1410.000000" x2="1401.431763" y2="1262.737793" style="stroke: green; stroke-width: 0.200000"/>
  <line x1="1498.257324" y1="1410.000000" x2="1401.431763" y2="1260.901611" style="stroke: green; stroke-width: 0.200000"/>
  <line x1="1499.449585" y1="1410.000000" x2="1401.431763" y2="1259.065552" style="stroke: green; stroke-width: 0.200000"/>
  <line x1="1500.641968" y1="1410.000000" x2="1401.431763" y2="1257.229492" style="stroke: green; stroke-width: 0.200000"/>
  <line x1="1501.834473" y1="1410.000000" x2="1401.431763" y2="1255.393433" style="stroke: green; stroke-width: 0.200000"/>
  <line x1="1503.026733" y1="1410.000000" x2="1401.431763" y2="1253.557373" style="stroke: green; stroke-width: 0.200000"/>
  <line x1="1504.218994" y1="1410.000000" x2="1401.431763" y2="1251.721313" style="stroke: green; stroke-width: 0.200000"/>
  <line x1="1505.411377" y1="1410.000000" x2="1401.431763" y2="1249.885132" style="stroke: green; stroke-width: 0.200000"/>
  <line x1="1506.603882" y1="1410.000000" x2="1401.431763" y2="1248.049072" style="stroke: green; stroke-width: 0.200000"/>
  <line x1="1507.796143" y1="1410.000000" x2="1401.431763" y2="1246.213013" style="stroke: green; stroke-width: 0.200000"/>
  <line x1="1508.988525" y1="1410.000000" x2="1401.431763" y2="1244.376953" style="stroke: green; stroke-width: 0.200000"/>
  <line x1="1510.180908" y1="1410.000000" x2="1401.431763" y2="1242.540894" style="stroke: green; stroke-width: 0.200000"/>
  <line x1="1511.373291" y1="1410.000000" x2="1401.431763" y2="1240.704834" style="stroke: green; stroke-width: 0.200000"/>
  <line x1="1512.565674" y1="1410.000000" x2="1401.431763" y2="1238.868652" style="stroke: green; stroke-width: 0.200000"/>
  <line x1="1513.757935" y1="1410.000000" x2="1401.431763" y2="1237.032593" style="stroke: green; stroke-width: 0.200000"/>
  <line x1="1514.950439" y1="1410.000000" x2="1401.431763" y2="1235.196533" style="stroke: green; stroke-width: 0.200000"/>
  <line x1="1516.142700" y1="1410.000000" x2="1401.431763" y2="1233.360474" style="stroke: green; stroke-width: 0.200000"/>
  <line x1="1517.335083" y1="1410.000000" x2="1401.431763" y2="1231.524414" style="stroke: green; stroke-width: 0.200000"/>
  <line x1="1518.527588" y1="1410.000000" x2="1401.431763" y2="1229.688354" style="stroke: green; stroke-width: 0.200000"/>
  <line x1="1519.719849" y1="1410.000000" x2="1401.431763" y2="1227.852295" style="stroke: green; stroke-width: 0.200000"/>
  <line x1="1520.912109" y1="1410.000000" x2="1401.431763" y2="1226.016113" style="stroke: green; stroke-width: 0.200000"/>
  <line x1="1522.104492" y1="1410.000000" x2="1401.431763" y2="1224.180176" style="stroke: green; stroke-width: 0.200000"/>
  <line x1="1523.296997" y1="1410.000000" x2="1401.431763" y2="1222.343994" style="stroke: green; stroke-width: 0.200000"/>
  <line x1="1524.489258" y1="1410.000000" x2="1401.431763" y2="1220.507935" style="stroke: green; stroke-width: 0.200000"/>
  <line x1="1525.681641" y1="1410.000000" x2="1401.431763" y2="1218.671875" style="stroke: green; stroke-width: 0.200000"/>
  <line x1="1526.874023" y1="1410.000000" x2="1401.431763" y2="1216.835815" style="stroke: green; stroke-width: 0.200000"/>
  <line x1="1528.066406" y1="1410.000000" x2="1401.431763" y2="1214.999756" style="stroke: green; stroke-width: 0.200000"/>
  <line x1="1529.258789" y1="1410.000000" x2="1401.431763" y2="1213.163574" style="stroke: green; stroke-width: 0.200000"/>
  <line x1="1530.451050" y1="1410.000000" x2="1401.431763" y2="1211.327515" style="stroke: green; stroke-width: 0.200000"/>
  <line x1="1531.643311" y1="1410.000000" x2="1401.431763" y2="1209.491455" style="stroke: green; stroke-width: 0.200000"/>
  <line x1="1532.835815" y1="1410.000000" x2="1401.431763" y2="1207.655396" style="stroke: green; stroke-width: 0.200000"/>
  <line x1="1534.028198" y1="1410.000000" x2="1401.431763" y2="1205.819336" style="stroke: green; stroke-width: 0.200000"/>
  <line x1="1535.220459" y1="1410.000000" x2="1401.431763" y2="1203.983276" style="stroke: green; stroke-width: 0.200000"/>
  <line x1="1536.412964" y1="1410.000000" x2="1401.431763" y2="1202.147095" style="stroke: green; stroke-width: 0.200000"/>
  <line x1="1537.605225" y1="1410.000000" x2="1401.431763" y2="1200.311035" style="stroke: green; stroke-width: 0.200000"/>
  <line x1="1538.797607" y1="1410.000000" x2="1401.431763" y2="1198.475098" style="stroke: green; stroke-width: 0.200000"/>
  <line x1="1539.989990" y1="1410.000000" x2="1401.431763" y2="1196.638916" style="stroke: green; stroke-width: 0.200000"/>
  <line x1="1541.182251" y1="1410.000000" x2="1401.431763" y2="1194.802856" style="stroke: green; stroke-width: 0.200000"/>
  <line x1="1542.374756" y1="1410.000000" x2="1401.431763" y2="1192.966797" style="stroke: green; stroke-width: 0.200000"/>
  <line x1="1543.567017" y1="1410.000000" x2="1401.431763" y2="1191.130615" style="stroke: green; stroke-width: 0.200000"/>
  <line x1="1544.759399" y1="1410.000000" x2="1401.431763" y2="1189.294556" style="stroke: green; stroke-width: 0.200000"/>
  <line x1="1545.951904" y1="1410.000000" x2="1401.431763" y2="1187.458496" style="stroke: green; stroke-width: 0.200000"/>
  <line x1="1547.144165" y1="1410.000000" x2="1401.431763" y2="1185.622437" style="stroke: green; stroke-width: 0.200000"/>
  <line x1="1548.336426" y1="1410.000000" x2="1401.431763" y2="1183.786377" style="stroke: green; stroke-width: 0.200000"/>
  <line x1="1549.528931" y1="1410.000000" x2="1401.431763" y2="1181.950317" style="stroke: green; stroke-width: 0.200000"/>
  <line x1="1550.721313" y1="1410.000000" x2="1401.431763" y2="1180.114258" style="stroke: green; stroke-width: 0.200000"/>
  <line x1="1551.913574" y1="1410.000000" x2="1401.431763" y2="1178.278076" style="stroke: green; stroke-width: 0.200000"/>
  <line x1="1553.106079" y1="1410.000000" x2="1401.431763" y2="1176.442017" style="stroke: green; stroke-width: 0.200000"/>
  <line x1="1554.298340" y1="1410.000000" x2="1401.431763" y2="1174.605957" style="stroke: green; stroke-width: 0.200000"/>
  <line x1="1555.490723" y1="1410.000000" x2="1401.431763" y2="1172.769897" style="stroke: green; stroke-width: 0.200000"/>
  <line x1="1556.683105" y1="1410.000000" x2="1401.431763" y2="1170.933838" style="stroke: green; stroke-width: 0.200000"/>
  <line x1="1557.875366" y1="1410.000000" x2="1401.431763" y2="1169.097778" style="stroke: green; stroke-width: 0.200000"/>
  <line x1="1558.568359" y1="1409.230835" x2="1401.431763" y2="1167.261719" style="stroke: green; stroke-width: 0.200000"/>
  <line x1="1558.568359" y1="1407.394897" x2="1401.431763" y2="1165.425537" style="stroke: green; stroke-width: 0.200000"/>
  <line x1="1558.568359" y1="1405.558838" x2="1401.431763" y2="1163.589478" style="stroke: green; stroke-width: 0.200000"/>
  <line x1="1558.568359" y1="1403.722534" x2="1401.431763" y2="1161.753418" style="stroke: green; stroke-width: 0.200000"/>
  <line x1="1558.568359" y1="1401.886597" x2="1401.431763" y2="1159.917358" style="stroke: green; stroke-width: 0.200000"/>
  <line x1="1558.568359" y1="1400.050537" x2="1401.431763" y2="1158.081299" style="stroke: green; stroke-width: 0.200000"/>
  <line x1="1558.568359" y1="1398.214355" x2="1401.431763" y2="1156.245239" style="stroke: green; stroke-width: 0.200000"/>
  <line x1="1558.568359" y1="1396.378296" x2="1401.431763" y2="1154.409058" style="stroke: green; stroke-width: 0.200000"/>
  <line x1="1558.568359" y1="1394.542236" x2="1401.431763" y2="1152.572998" style="stroke: green; stroke-width: 0.200000"/>
  <line x1="1558.568359" y1="1392.706177" x2="1401.431763" y2="1150.737061" style="stroke: green; stroke-width: 0.200000"/>
  <line x1="1558.568359" y1="1390.870117" x2="1401.431763" y2="1148.900879" style="stroke: green; stroke-width: 0.200000"/>
  <line x1="1558.568359" y1="1389.033936" x2="1401.431763" y2="1147.064819" style="stroke: green; stroke-width: 0.200000"/>
  <line x1="1558.568359" y1="1387.197876" x2="1401.431763" y2="1145.228760" style="stroke: green; stroke-width: 0.200000"/>
  <line x1="1558.568359" y1="1385.361938" x2="1401.431763" y2="1143.392578" style="stroke: green; stroke-width: 0.200000"/>
  <line x1="1558.568359" y1="1383.525879" x2="1401.431763" y2="1141.556519" style="stroke: green; stroke-width: 0.200000"/>
  <line x1="1558.568359" y1="1381.689697" x2="1401.431763" y2="1139.720459" style="stroke: green; stroke-width: 0.200000"/>
  <line x1="1558.568359" y1="1379.853516" x2="1401.431763" y2="1137.884399" style="stroke: green; stroke-width: 0.200000"/>
  <line x1="1558.568359" y1="1378.017578" x2="1401.431763" y2="1136.048340" style="stroke: green; stroke-width: 0.200000"/>
  <line x1="1558.568359" y1="1376.181519" x2="1401.431763" y2="1134.212280" style="stroke: green; stroke-width: 0.200000"/>
  <line x1="1558.568359" y1="1374.345459" x2="1401.431763" y2="1132.376221" style="stroke: green; stroke-width: 0.200000"/>
  <line x1="1558.568359" y1="1372.509277" x2="1401.431763" y2="1130.540039" style="stroke: green; stroke-width: 0.200000"/>
  <line x1="1558.568359" y1="1370.673218" x2="1401.431763" y2="1128.703979" style="stroke: green; stroke-width: 0.200000"/>
  <line x1="1558.568359" y1="1368.837158" x2="1401.431763" y2="1126.867920" style="stroke: green; stroke-width: 0.200000"/>
  <line x1="1558.568359" y1="1367.000977" x2="1401.431763" y2="1125.031860" style="stroke: green; stroke-width: 0.200000"/>
  <line x1="1558.568359" y1="1365.164917" x2="1401.431763" y2="1123.195801" style="stroke: green; stroke-width: 0.200000"/>
  <line x1="1558.568359" y1="1363.328857" x2="1401.431763" y2="1121.359741" style="stroke: green; stroke-width: 0.200000"/>
  <line x1="1558.568359" y1="1361.492920" x2="1401.431763" y2="1119.523682" style="stroke: green; stroke-width: 0.200000"/>
  <line x1="1558.568359" y1="1359.656738" x2="1401.431763" y2="1117.687500" style="stroke: green; stroke-width: 0.200000"/>
  <line x1="1558.568359" y1="1357.820801" x2="1401.431763" y2="1115.851440" style="stroke: green; stroke-width: 0.200000"/>
  <line x1="1558.568359" y1="1355.984619" x2="1401.431763" y2="1114.015381" style="stroke: green; stroke-width: 0.200000"/>
  <line x1="1558.568359" y1="1354.148560" x2="1401.431763" y2="1112.179321" style="stroke: green; stroke-width: 0.200000"/>
  <line x1="1558.568359" y1="1352.312500" x2="1401.431763" y2="1110.343262" style="stroke: green; stroke-width: 0.200000"/>
  <line x1="1558.568359" y1="1350.476318" x2="1401.431763" y2="1108.507202" style="stroke: green; stroke-width: 0.200000"/>
  <line x1="1558.568359" y1="1348.640259" x2="1401.431763" y2="1106.671143" style="stroke: green; stroke-width: 0.200000"/>
  <line x1="1558.568359" y1="1346.804199" x2="1401.431763" y2="1104.834961" style="stroke: green; stroke-width: 0.200000"/>
  <line x1="1558.568359" y1="1344.968140" x2="1401.431763" y2="1102.998901" style="stroke: green; stroke-width: 0.200000"/>
  <line x1="1558.568359" y1="1343.132080" x2="1401.431763" y2="1101.162842" style="stroke: green; stroke-width: 0.200000"/>
  <line x1="1558.568359" y1="1341.296143" x2="1401.431763" y2="1099.326782" style="stroke: green; stroke-width: 0.200000"/>
  <line x1="1558.568359" y1="1339.459839" x2="1401.431763" y2="1097.490723" style="stroke: green; stroke-width: 0.200000"/>
  <line x1="1558.568359" y1="1337.623901" x2="1401.431763" y2="1095.654541" style="stroke: green; stroke-width: 0.200000"/>
  <line x1="1558.568359" y1="1335.787598" x2="1401.431763" y2="1093.818481" style="stroke: green; stroke-width: 0.200000"/>
  <line x1="1558.568359" y1="1333.951660" x2="1401.431763" y2="1091.982422" style="stroke: green; stroke-width: 0.200000"/>
  <line x1="1558.568359" y1="1332.115601" x2="1401.431763" y2="1090.146362" style="stroke: green; stroke-width: 0.200000"/>
  <line x1="1558.568359" y1="1330.279541" x2="1401.431763" y2="1088.310303" style="stroke: green; stroke-width: 0.200000"/>
  <line x1="1558.568359" y1="1328.443481" x2="1401.431763" y2="1086.474243" style="stroke: green; stroke-width: 0.200000"/>
  <line x1="1558.568359" y1="1326.607422" x2="1401.431763" y2="1084.638184" style="stroke: green; stroke-width: 0.200000"/>
  <line x1="1558.568359" y1="1324.771240" x2="1401.431763" y2="1082.802002" style="stroke: green; stroke-width: 0.200000"/>
  <line x1="1558.568359" y1="1322.935181" x2="1401.431763" y2="1080.965942" style="stroke: green; stroke-width: 0.200000"/>
  <line x1="1558.568359" y1="1321.099121" x2="1401.431763" y2="1079.129883" style="stroke: green; stroke-width: 0.200000"/>
  <line x1="1558.568359" y1="1319.262939" x2="1401.431763" y2="1077.293823" style="stroke: green; stroke-width: 0.200000"/>
  <line x1="1558.568359" y1="1317.426880" x2="1401.431763" y2="1075.457764" style="stroke: green; stroke-width: 0.200000"/>
  <line x1="1558.568359" y1="1315.590820" x2="1401.431763" y2="1073.621704" style="stroke: green; stroke-width: 0.200000"/>
  <line x1="1558.568359" y1="1313.754883" x2="1401.431763" y2="1071.785645" style="stroke: green; stroke-width: 0.200000"/>
  <line x1="1558.568359" y1="1311.918701" x2="1401.431763" y2="1069.949463" style="stroke: green; stroke-width: 0.200000"/>
  <line x1="1558.568359" y1="1310.082764" x2="1401.431763" y2="1068.113403" style="stroke: green; stroke-width: 0.200000"/>
  <line x1="1558.568359" y1="1308.246582" x2="1401.431763" y2="1066.277344" style="stroke: green; stroke-width: 0.200000"/>
  <line x1="1558.568359" y1="1306.410522" x2="1401.431763" y2="1064.441162" style="stroke: green; stroke-width: 0.200000"/>
  <line x1="1558.568359" y1="1304.574463" x2="1401.431763" y2="1062.605225" style="stroke: green; stroke-width: 0.200000"/>
  <line x1="1558.568359" y1="1302.738281" x2="1401.431763" y2="1060.769165" style="stroke: green; stroke-width: 0.200000"/>
  <line x1="1558.568359" y1="1300.902222" x2="1402.124634" y2="1060.000000" style="stroke: green; stroke-width: 0.200000"/>
  <line x1="1558.568359" y1="1299.066162" x2="1403.316895" y2="1060.000000" style="stroke: green; stroke-width: 0.200000"/>
  <line x1="1558.568359" y1="1297.230103" x2="1404.509277" y2="1060.000000" style="stroke: green; stroke-width: 0.200000"/>
  <line x1="1558.568359" y1="1295.394043" x2="1405.701660" y2="1060.000000" style="stroke: green; stroke-width: 0.200000"/>
  <line x1="1558.568359" y1="1293.558105" x2="1406.894043" y2="1060.000000" style="stroke: green; stroke-width: 0.200000"/>
  <line x1="1558.568359" y1="1291.721802" x2="1408.086426" y2="1060.000000" style="stroke: green; stroke-width: 0.200000"/>
  <line x1="1558.568359" y1="1289.885864" x2="1409.278687" y2="1060.000000" style="stroke: green; stroke-width: 0.200000"/>
  <line x1="1558.568359" y1="1288.049561" x2="1410.471191" y2="1060.000000" style="stroke: green; stroke-width: 0.200000"/>
  <line x1="1558.568359" y1="1286.213623" x2="1411.663574" y2="1060.000000" style="stroke: green; stroke-width: 0.200000"/>
  <line x1="1558.568359" y1="1284.377563" x2="1412.855835" y2="1060.000000" style="stroke: green; stroke-width: 0.200000"/>
  <line x1="1558.568359" y1="1282.541504" x2="1414.048096" y2="1060.000000" style="stroke: green; stroke-width: 0.200000"/>
  <line x1="1558.568359" y1="1280.705444" x2="1415.240479" y2="1060.000000" style="stroke: green; stroke-width: 0.200000"/>
  <line x1="1558.568359" y1="1278.869385" x2="1416.432983" y2="1060.000000" style="stroke: green; stroke-width: 0.200000"/>
  <line x1="1558.568359" y1="1277.033203" x2="1417.625244" y2="1060.000000" style="stroke: green; stroke-width: 0.200000"/>
  <line x1="1558.568359" y1="1275.197144" x2="1418.817749" y2="1060.000000" style="stroke: green; stroke-width: 0.200000"/>
  <line x1="1558.568359" y1="1273.361084" x2="1420.010010" y2="1060.000000" style="stroke: green; stroke-width: 0.200000"/>
  <line x1="1558.568359" y1="1271.525024" x2="1421.202393" y2="1060.000000" style="stroke: green; stroke-width: 0.200000"/>
  <line x1="1558.568359" y1="1269.688965" x2="1422.394775" y2="1060.000000" style="stroke: green; stroke-width: 0.200000"/>
  <line x1="1558.568359" y1="1267.852783" x2="1423.587036" y2="1060.000000" style="stroke: green; stroke-width: 0.200000"/>
  <line x1="1558.568359" y1="1266.016846" x2="1424.779541" y2="1060.000000" style="stroke: green; stroke-width: 0.200000"/>
  <line x1="1558.568359" y1="1264.180664" x2="1425.971802" y2="1060.000000" style="stroke: green; stroke-width: 0.200000"/>
  <line x1="1558.568359" y1="1262.344604" x2="1427.164307" y2="1060.000000" style="stroke: green; stroke-width: 0.200000"/>
  <line x1="1558.568359" y1="1260.508545" x2="1428.356689" y2="1060.000000" style="stroke: green; stroke-width: 0.200000"/>
  <line x1="1558.568359" y1="1258.672363" x2="1429.548950" y2="1060.000000" style="stroke: green; stroke-width: 0.200000"/>
  <line x1="1558.568359" y1="1256.836426" x2="1430.741211" y2="1060.000000" style="stroke: green; stroke-width: 0.200000"/>
  <line x1="1558.568359" y1="1255.000244" x2="1431.933594" y2="1060.000000" style="stroke: green; stroke-width: 0.200000"/>
  <line x1="1558.568359" y1="1253.164185" x2="1433.126099" y2="1060.000000" style="stroke: green; stroke-width: 0.200000"/>
  <line x1="1558.568359" y1="1251.328247" x2="1434.318359" y2="1060.000000" style="stroke: green; stroke-width: 0.200000"/>
  <line x1="1558.568359" y1="1249.492065" x2="1435.510742" y2="1060.000000" style="stroke: green; stroke-width: 0.200000"/>
  <line x1="1558.568359" y1="1247.656006" x2="1436.703125" y2="1060.000000" style="stroke: green; stroke-width: 0.200000"/>
  <line x1="1558.568359" y1="1245.819946" x2="1437.895508" y2="1060.000000" style="stroke: green; stroke-width: 0.200000"/>
  <line x1="1558.568359" y1="1243.983887" x2="1439.087891" y2="1060.000000" style="stroke: green; stroke-width: 0.200000"/>
  <line x1="1558.568359" y1="1242.147827" x2="1440.280151" y2="1060.000000" style="stroke: green; stroke-width: 0.200000"/>
  <line x1="1558.568359" y1="1240.311646" x2="1441.472656" y2="1060.000000" style="stroke: green; stroke-width: 0.200000"/>
  <line x1="1558.568359" y1="1238.475586" x2="1442.664917" y2="1060.000000" style="stroke: green; stroke-width: 0.200000"/>
  <line x1="1558.568359" y1="1236.639526" x2="1443.857300" y2="1060.000000" style="stroke: green; stroke-width: 0.200000"/>
  <line x1="1558.568359" y1="1234.803467" x2="1445.049805" y2="1060.000000" style="stroke: green; stroke-width: 0.200000"/>
  <line x1="1558.568359" y1="1232.967285" x2="1446.242065" y2="1060.000000" style="stroke: green; stroke-width: 0.200000"/>
  <line x1="1558.568359" y1="1231.131348" x2="1447.434326" y2="1060.000000" style="stroke: green; stroke-width: 0.200000"/>
  <line x1="1558.568359" y1="1229.295166" x2="1448.626709" y2="1060.000000" style="stroke: green; stroke-width: 0.200000"/>
  <line x1="1558.568359" y1="1227.459229" x2="1449.819092" y2="1060.000000" style="stroke: green; stroke-width: 0.200000"/>
  <line x1="1558.568359" y1="1225.623047" x2="1451.011475" y2="1060.000000" style="stroke: green; stroke-width: 0.200000"/>
  <line x1="1558.568359" y1="1223.786865" x2="1452.203857" y2="1060.000000" style="stroke: green; stroke-width: 0.200000"/>
  <line x1="1558.568359" y1="1221.950928" x2="1453.396118" y2="1060.000000" style="stroke: green; stroke-width: 0.200000"/>
  <line x1="1558.568359" y1="1220.114868" x2="1454.588623" y2="1060.000000" style="stroke: green; stroke-width: 0.200000"/>
  <line x1="1558.568359" y1="1218.278687" x2="1455.781006" y2="1060.000000" style="stroke: green; stroke-width: 0.200000"/>
  <line x1="1558.568359" y1="1216.442627" x2="1456.973267" y2="1060.000000" style="stroke: green; stroke-width: 0.200000"/>
  <line x1="1558.568359" y1="1214.606567" x2="1458.165527" y2="1060.000000" style="stroke: green; stroke-width: 0.200000"/>
  <line x1="1558.568359" y1="1212.770508" x2="1459.357910" y2="1060.000000" style="stroke: green; stroke-width: 0.200000"/>
  <line x1="1558.568359" y1="1210.934326" x2="1460.550415" y2="1060.000000" style="stroke: green; stroke-width: 0.200000"/>
  <line x1="1558.568359" y1="1209.098267" x2="1461.742676" y2="1060.000000" style="stroke: green; stroke-width: 0.200000"/>
  <line x1="1558.568359" y1="1207.262207" x2="1462.935181" y2="1060.000000" style="stroke: green; stroke-width: 0.200000"/>
  <line x1="1558.568359" y1="1205.426147" x2="1464.127441" y2="1060.000000" style="stroke: green; stroke-width: 0.200000"/>
  <line x1="1558.568359" y1="1203.590088" x2="1465.319824" y2="1060.000000" style="stroke: green; stroke-width: 0.200000"/>
  <line x1="1558.568359" y1="1201.754028" x2="1466.512207" y2="1060.000000" style="stroke: green; stroke-width: 0.200000"/>
  <line x1="1558.568359" y1="1199.917969" x2="1467.704468" y2="1060.000000" style="stroke: green; stroke-width: 0.200000"/>
  <line x1="1558.568359" y1="1198.081909" x2="1468.896973" y2="1060.000000" style="stroke: green; stroke-width: 0.200000"/>
  <line x1="1558.568359" y1="1196.245850" x2="1470.089233" y2="1060.000000" style="stroke: green; stroke-width: 0.200000"/>
  <line x1="1558.568359" y1="1194.409668" x2="1471.281738" y2="1060.000000" style="stroke: green; stroke-width: 0.200000"/>
  <line x1="1558.568359" y1="1192.573608" x2="1472.474121" y2="1060.000000" style="stroke: green; stroke-width: 0.200000"/>
  <line x1="1558.568359" y1="1190.737549" x2="1473.666382" y2="1060.000000" style="stroke: green; stroke-width: 0.200000"/>
  <line x1="1558.568359" y1="1188.901489" x2="1474.858643" y2="1060.000000" style="stroke: green; stroke-width: 0.200000"/>
  <line x1="1558.568359" y1="1187.065308" x2="1476.051025" y2="1060.000000" style="stroke: green; stroke-width: 0.200000"/>
  <line x1="1558.568359" y1="1185.229370" x2="1477.243530" y2="1060.000000" style="stroke: green; stroke-width: 0.200000"/>
  <line x1="1558.568359" y1="1183.393311" x2="1478.435791" y2="1060.000000" style="stroke: green; stroke-width: 0.200000"/>
  <line x1="1558.568359" y1="1181.557129" x2="1479.628296" y2="1060.000000" style="stroke: green; stroke-width: 0.200000"/>
  <line x1="1558.568359" y1="1179.721069" x2="1480.820557" y2="1060.000000" style="stroke: green; stroke-width: 0.200000"/>
  <line x1="1558.568359" y1="1177.885010" x2="1482.012939" y2="1060.000000" style="stroke: green; stroke-width: 0.200000"/>
  <line x1="1558.568359" y1="1176.048828" x2="1483.205322" y2="1060.000000" style="stroke: green; stroke-width: 0.200000"/>
  <line x1="1558.568359" y1="1174.212891" x2="1484.397583" y2="1060.000000" style="stroke: green; stroke-width: 0.200000"/>
  <line x1="1558.568359" y1="1172.376831" x2="1485.590088" y2="1060.000000" style="stroke: green; stroke-width: 0.200000"/>
  <line x1="1558.568359" y1="1170.540649" x2="1486.782349" y2="1060.000000" style="stroke: green; stroke-width: 0.200000"/>
  <line x1="1558.568359" y1="1168.704712" x2="1487.974731" y2="1060.000000" style="stroke: green; stroke-width: 0.200000"/>
  <line x1="1558.568359" y1="1166.868530" x2="1489.167236" y2="1060.000000" style="stroke: green; stroke-width: 0.200000"/>
  <line x1="1558.568359" y1="1165.032471" x2="1490.359497" y2="1060.000000" style="stroke: green; stroke-width: 0.200000"/>
  <line x1="1558.568359" y1="1163.196411" x2="1491.551758" y2="1060.000000" style="stroke: green; stroke-width: 0.200000"/>
  <line x1="1558.568359" y1="1161.360352" x2="1492.744141" y2="1060.000000" style="stroke: green; stroke-width: 0.200000"/>
  <line x1="1558.568359" y1="1159.524170" x2="1493.936523" y2="1060.000000" style="stroke: green; stroke-width: 0.200000"/>
  <line x1="1558.568359" y1="1157.688110" x2="1495.128906" y2="1060.000000" style="stroke: green; stroke-width: 0.200000"/>
  <line x1="1558.568359" y1="1155.852051" x2="1496.321289" y2="1060.000000" style="stroke: green; stroke-width: 0.200000"/>
  <line x1="1558.568359" y1="1154.015991" x2="1497.513550" y2="1060.000000" style="stroke: green; stroke-width: 0.200000"/>
  <line x1="1558.568359" y1="1152.179932" x2="1498.706055" y2="1060.000000" style="stroke: green; stroke-width: 0.200000"/>
  <line x1="1558.568359" y1="1150.343750" x2="1499.898438" y2="1060.000000" style="stroke: green; stroke-width: 0.200000"/>
  <line x1="1558.568359" y1="1148.507812" x2="1501.090698" y2="1060.000000" style="stroke: green; stroke-width: 0.200000"/>
  <line x1="1558.568359" y1="1146.671631" x2="1502.282959" y2="1060.000000" style="stroke: green; stroke-width: 0.200000"/>
  <line x1="1558.568359" y1="1144.835693" x2="1503.475464" y2="1060.000000" style="stroke: green; stroke-width: 0.200000"/>
  <line x1="1558.568359" y1="1142.999512" x2="1504.667847" y2="1060.000000" style="stroke: green; stroke-width: 0.200000"/>
  <line x1="1558.568359" y1="1141.163452" x2="1505.860107" y2="1060.000000" style="stroke: green; stroke-width: 0.200000"/>
  <line x1="1558.568359" y1="1139.327393" x2="1507.052612" y2="1060.000000" style="stroke: green; stroke-width: 0.200000"/>
  <line x1="1558.568359" y1="1137.491333" x2="1508.244873" y2="1060.000000" style="stroke: green; stroke-width: 0.200000"/>
  <line x1="1558.568359" y1="1135.655151" x2="1509.437256" y2="1060.000000" style="stroke: green; stroke-width: 0.200000"/>
  <line x1="1558.568359" y1="1133.819092" x2="1510.629639" y2="1060.000000" style="stroke: green; stroke-width: 0.200000"/>
  <line x1="1558.568359" y1="1131.983032" x2="1511.822021" y2="1060.000000" style="stroke: green; stroke-width: 0.200000"/>
  <line x1="1558.568359" y1="1130.146973" x2="1513.014404" y2="1060.000000" style="stroke: green; stroke-width: 0.200000"/>
  <line x1="1558.568359" y1="1128.310791" x2="1514.206665" y2="1060.000000" style="stroke: green; stroke-width: 0.200000"/>
  <line x1="1558.568359" y1="1126.474731" x2="1515.399170" y2="1060.000000" style="stroke: green; stroke-width: 0.200000"/>
  <line x1="1558.568359" y1="1124.638794" x2="1516.591553" y2="1060.000000" style="stroke: green; stroke-width: 0.200000"/>
  <line x1="1558.568359" y1="1122.802612" x2="1517.783813" y2="1060.000000" style="stroke: green; stroke-width: 0.200000"/>
  <line x1="1558.568359" y1="1120.966553" x2="1518.976074" y2="1060.000000" style="stroke: green; stroke-width: 0.200000"/>
  <line x1="1558.568359" y1="1119.130493" x2="1520.168457" y2="1060.000000" style="stroke: green; stroke-width: 0.200000"/>
  <line x1="1558.568359" y1="1117.294434" x2="1521.360962" y2="1060.000000" style="stroke: green; stroke-width: 0.200000"/>
  <line x1="1558.568359" y1="1115.458374" x2="1522.553223" y2="1060.000000" style="stroke: green; stroke-width: 0.200000"/>
  <line x1="1558.568359" y1="1113.622314" x2="1523.745728" y2="1060.000000" style="stroke: green; stroke-width: 0.200000"/>
  <line x1="1558.568359" y1="1111.786133" x2="1524.937988" y2="1060.000000" style="stroke: green; stroke-width: 0.200000"/>
  <line x1="1558.568359" y1="1109.950073" x2="1526.130371" y2="1060.000000" style="stroke: green; stroke-width: 0.200000"/>
  <line x1="1558.568359" y1="1108.114014" x2="1527.322754" y2="1060.000000" style="stroke: green; stroke-width: 0.200000"/>
  <line x1="1558.568359" y1="1106.277954" x2="1528.515015" y2="1060.000000" style="stroke: green; stroke-width: 0.200000"/>
  <line x1="1558.568359" y1="1104.441895" x2="1529.707520" y2="1060.000000" style="stroke: green; stroke-width: 0.200000"/>
  <line x1="1558.568359" y1="1102.605835" x2="1530.899780" y2="1060.000000" style="stroke: green; stroke-width: 0.200000"/>
  <line x1="1558.568359" y1="1100.769775" x2="1532.092163" y2="1060.000000" style="stroke: green; stroke-width: 0.200000"/>
  <line x1="1558.568359" y1="1098.933594" x2="1533.284668" y2="1060.000000" style="stroke: green; stroke-width: 0.200000"/>
  <line x1="1558.568359" y1="1097.097534" x2="1534.476929" y2="1060.000000" style="stroke: green; stroke-width: 0.200000"/>
  <line x1="1558.568359" y1="1095.261475" x2="1535.669189" y2="1060.000000" style="stroke: green; stroke-width: 0.200000"/>
  <line x1="1558.568359" y1="1093.425415" x2="1536.861572" y2="1060.000000" style="stroke: green; stroke-width: 0.200000"/>
  <line x1="1558.568359" y1="1091.589233" x2="1538.054077" y2="1060.000000" style="stroke: green; stroke-width: 0.200000"/>
  <line x1="1558.568359" y1="1089.753296" x2="1539.246338" y2="1060.000000" style="stroke: green; stroke-width: 0.200000"/>
  <line x1="1558.568359" y1="1087.917236" x2="1540.438721" y2="1060.000000" style="stroke: green; stroke-width: 0.200000"/>
  <line x1="1558.568359" y1="1086.081055" x2="1541.631104" y2="1060.000000" style="stroke: green; stroke-width: 0.200000"/>
  <line x1="1558.568359" y1="1084.244995" x2="1542.823486" y2="1060.000000" style="stroke: green; stroke-width: 0.200000"/>
  <line x1="1558.568359" y1="1082.408936" x2="1544.015869" y2="1060.000000" style="stroke: green; stroke-width: 0.200000"/>
  <line x1="1558.568359" y1="1080.572876" x2="1545.208130" y2="1060.000000" style="stroke: green; stroke-width: 0.200000"/>
  <line x1="1558.568359" y1="1078.736816" x2="1546.400391" y2="1060.000000" style="stroke: green; stroke-width: 0.200000"/>
  <line x1="1558.568359" y1="1076.900757" x2="1547.592896" y2="1060.000000" style="stroke: green; stroke-width: 0.200000"/>
  <line x1="1558.568359" y1="1075.064575" x2="1548.785278" y2="1060.000000" style="stroke: green; stroke-width: 0.200000"/>
  <line x1="1558.568359" y1="1073.228516" x2="1549.977783" y2="1060.000000" style="stroke: green; stroke-width: 0.200000"/>
  <line x1="1558.568359" y1="1071.392578" x2="1551.170044" y2="1060.000000" style="stroke: green; stroke-width: 0.200000"/>
  <line x1="1558.568359" y1="1069.556396" x2="1552.362305" y2="1060.000000" style="stroke: green; stroke-width: 0.200000"/>
  <line x1="1558.568359" y1="1067.720215" x2="1553.554688" y2="1060.000000" style="stroke: green; stroke-width: 0.200000"/>
  <line x1="1558.568359" y1="1065.884277" x2="1554.747070" y2="1060.000000" style="stroke: green; stroke-width: 0.200000"/>
  <line x1="1558.568359" y1="1064.048096" x2="1555.939453" y2="1060.000000" style="stroke: green; stroke-width: 0.200000"/>
  <line x1="1558.568359" y1="1062.212036" x2="1557.131836" y2="1060.000000" style="stroke: green; stroke-width: 0.200000"/>
  <line x1="1558.568359" y1="1060.375977" x2="1558.324097" y2="1060.000000" style="stroke: green; stroke-width: 0.200000"/>
  <path d="M 1558.57  1410  1401.43  1410  1401.43  1060  1558.57  1060  1558.57  1410  " style="fill: none; stroke: black; stroke-width: 0.200000; fill-type: evenodd"  fill-opacity="1.000000" />
</svg>
