<?xml version="1.0" encoding="UTF-8" standalone="yes"?>
<svg xmlns="http://www.w3.org/2000/svg"
     xmlns:xlink="http://www.w3.org/1999/xlink"
     width="2020.0000mm" height="1600.0000mm"
     viewBox="0 0 202.000000 160.000000">
  <!--
    Build plate : 150.00 x 150.00 mm
    Coordinate  : 1 SVG unit = 1 mm
    Display zoom: 10x  (width/height = viewBox x 10)
    Hatch stroke: 0.04 mm = ~28 mm on screen at this zoom
    Legend panel: right margin (42 mm wide)
  -->
  <defs>
    <marker id="endArrow" markerWidth="2" markerHeight="1.4"
            refX="0" refY="0.7" orient="auto"
            markerUnits="strokeWidth">
      <polyline fill="darkblue" points="0,0 2,0.7 0,1.4 0.2,0.7"/>
    </marker>
  </defs>
  <!-- Background -->
  <rect x="0" y="0" width="202.000000" height="160.000000" fill="#f0f0f0" stroke="none"/>
  <!-- Build plate boundary (150 x 150 mm) -->
  <rect x="5.000000" y="5.000000" width="150.000000" height="150.000000"
        fill="#ffffff" stroke="#aaaaaa" stroke-width="0.2" stroke-dasharray="1,0.5"/>
  <!-- Build plate centre circle (r = 75.00 mm) -->
  <circle cx="80.000000" cy="80.000000" r="75.000000"
          fill="none" stroke="#bbbbbb" stroke-width="0.15" stroke-dasharray="0.8,0.4"/>
  <!-- Centre cross-hair -->
  <line x1="5.000000" y1="80.000000" x2="155.000000" y2="80.000000" stroke="#cccccc" stroke-width="0.1"/>
  <line x1="80.000000" y1="5.000000" x2="80.000000" y2="155.000000" stroke="#cccccc" stroke-width="0.1"/>
  <circle cx="80.000000" cy="80.000000" r="0.3" fill="#cccccc" stroke="none"/>
  <!-- Corner labels -->
  <text x="5.400000" y="4.600000" font-family="sans-serif" font-size="2" fill="#888888">0,0</text>
  <text x="154.600006" y="4.600000" font-family="sans-serif" font-size="2" fill="#888888" text-anchor="end">150,0</text>
  <text x="5.400000" y="157.199997" font-family="sans-serif" font-size="2" fill="#888888">0,150</text>
  <!-- Layer geometry -->
  <g id="geometry">
    <g class="thermal-hatch" data-segment="8" data-name="CoreNormalHatch">
      <line x1="34.85448" y1="126.94988" x2="34.96360" y2="126.96522" stroke="#228B22" stroke-width="0.04000"/>
      <line x1="34.72882" y1="126.83124" x2="35.11943" y2="126.88613" stroke="#228B22" stroke-width="0.04000"/>
      <line x1="34.60317" y1="126.71259" x2="35.27525" y2="126.80704" stroke="#228B22" stroke-width="0.04000"/>
      <line x1="34.45627" y1="126.59097" x2="35.39217" y2="126.72250" stroke="#228B22" stroke-width="0.04000"/>
      <line x1="34.28333" y1="126.46568" x2="35.45865" y2="126.63086" stroke="#228B22" stroke-width="0.04000"/>
      <line x1="34.14866" y1="126.34576" x2="35.52513" y2="126.53922" stroke="#228B22" stroke-width="0.04000"/>
      <line x1="34.10671" y1="126.23889" x2="35.59160" y2="126.44758" stroke="#228B22" stroke-width="0.04000"/>
      <line x1="34.06475" y1="126.13201" x2="35.63176" y2="126.35224" stroke="#228B22" stroke-width="0.04000"/>
      <line x1="34.02280" y1="126.02513" x2="35.63911" y2="126.25229" stroke="#228B22" stroke-width="0.04000"/>
      <line x1="33.98085" y1="125.91826" x2="35.64648" y2="126.15234" stroke="#228B22" stroke-width="0.04000"/>
      <line x1="33.93889" y1="125.81137" x2="35.65384" y2="126.05239" stroke="#228B22" stroke-width="0.04000"/>
      <line x1="33.89694" y1="125.70450" x2="35.66120" y2="125.95245" stroke="#228B22" stroke-width="0.04000"/>
      <line x1="33.85499" y1="125.59762" x2="35.66856" y2="125.85250" stroke="#228B22" stroke-width="0.04000"/>
      <line x1="33.81258" y1="125.49067" x2="35.67593" y2="125.75255" stroke="#228B22" stroke-width="0.04000"/>
      <line x1="33.77133" y1="125.38390" x2="35.68393" y2="125.65269" stroke="#228B22" stroke-width="0.04000"/>
      <line x1="33.73377" y1="125.27763" x2="35.69329" y2="125.55302" stroke="#228B22" stroke-width="0.04000"/>
      <line x1="33.69702" y1="125.17149" x2="35.70266" y2="125.45336" stroke="#228B22" stroke-width="0.04000"/>
      <line x1="33.66027" y1="125.06534" x2="35.71203" y2="125.35370" stroke="#228B22" stroke-width="0.04000"/>
      <line x1="33.62351" y1="124.95919" x2="35.72140" y2="125.25403" stroke="#228B22" stroke-width="0.04000"/>
      <line x1="33.58676" y1="124.85304" x2="35.73077" y2="125.15437" stroke="#228B22" stroke-width="0.04000"/>
      <line x1="33.55001" y1="124.74689" x2="35.74014" y2="125.05470" stroke="#228B22" stroke-width="0.04000"/>
      <line x1="33.51326" y1="124.64075" x2="35.73952" y2="124.95363" stroke="#228B22" stroke-width="0.04000"/>
      <line x1="33.47650" y1="124.53460" x2="35.73494" y2="124.85200" stroke="#228B22" stroke-width="0.04000"/>
      <line x1="33.43708" y1="124.42808" x2="35.73036" y2="124.75037" stroke="#228B22" stroke-width="0.04000"/>
      <line x1="33.39648" y1="124.32138" x2="35.72578" y2="124.64874" stroke="#228B22" stroke-width="0.04000"/>
      <line x1="33.35589" y1="124.21470" x2="35.72438" y2="124.54757" stroke="#228B22" stroke-width="0.04000"/>
      <line x1="33.32088" y1="124.10880" x2="35.72736" y2="124.44701" stroke="#228B22" stroke-width="0.04000"/>
      <line x1="33.28638" y1="124.00296" x2="35.73033" y2="124.34644" stroke="#228B22" stroke-width="0.04000"/>
      <line x1="33.25188" y1="123.89713" x2="35.73331" y2="124.24588" stroke="#228B22" stroke-width="0.04000"/>
      <line x1="33.21737" y1="123.79130" x2="35.73628" y2="124.14531" stroke="#228B22" stroke-width="0.04000"/>
      <line x1="33.18286" y1="123.68546" x2="35.73926" y2="124.04474" stroke="#228B22" stroke-width="0.04000"/>
      <line x1="33.14835" y1="123.57964" x2="35.74223" y2="123.94418" stroke="#228B22" stroke-width="0.04000"/>
      <line x1="33.11385" y1="123.47380" x2="35.74520" y2="123.84361" stroke="#228B22" stroke-width="0.04000"/>
      <line x1="33.07767" y1="123.36774" x2="35.74783" y2="123.74300" stroke="#228B22" stroke-width="0.04000"/>
      <line x1="33.03678" y1="123.26101" x2="35.74895" y2="123.64218" stroke="#228B22" stroke-width="0.04000"/>
      <line x1="32.99588" y1="123.15427" x2="35.75205" y2="123.54163" stroke="#228B22" stroke-width="0.04000"/>
      <line x1="32.95955" y1="123.04819" x2="35.75163" y2="123.44059" stroke="#228B22" stroke-width="0.04000"/>
      <line x1="32.92779" y1="122.94274" x2="35.75120" y2="123.33955" stroke="#228B22" stroke-width="0.04000"/>
      <line x1="32.89603" y1="122.83730" x2="35.75077" y2="123.23850" stroke="#228B22" stroke-width="0.04000"/>
      <line x1="32.86428" y1="122.73185" x2="35.75034" y2="123.13746" stroke="#228B22" stroke-width="0.04000"/>
      <line x1="32.83252" y1="122.62640" x2="35.74991" y2="123.03642" stroke="#228B22" stroke-width="0.04000"/>
      <line x1="32.80077" y1="122.52095" x2="35.74948" y2="122.93537" stroke="#228B22" stroke-width="0.04000"/>
      <line x1="32.76795" y1="122.41537" x2="35.74905" y2="122.83433" stroke="#228B22" stroke-width="0.04000"/>
      <line x1="32.73364" y1="122.30956" x2="35.74863" y2="122.73328" stroke="#228B22" stroke-width="0.04000"/>
      <line x1="32.69933" y1="122.20375" x2="35.75087" y2="122.63261" stroke="#228B22" stroke-width="0.04000"/>
      <line x1="32.66502" y1="122.09795" x2="35.75594" y2="122.53235" stroke="#228B22" stroke-width="0.04000"/>
      <line x1="32.63070" y1="121.99214" x2="35.76100" y2="122.43208" stroke="#228B22" stroke-width="0.04000"/>
      <line x1="32.60130" y1="121.88703" x2="35.76607" y2="122.33181" stroke="#228B22" stroke-width="0.04000"/>
      <line x1="32.57211" y1="121.78194" x2="35.77113" y2="122.23154" stroke="#228B22" stroke-width="0.04000"/>
      <line x1="32.54290" y1="121.67685" x2="35.77620" y2="122.13126" stroke="#228B22" stroke-width="0.04000"/>
      <line x1="32.51370" y1="121.57177" x2="35.77898" y2="122.03068" stroke="#228B22" stroke-width="0.04000"/>
      <line x1="32.48450" y1="121.46668" x2="35.77831" y2="121.92960" stroke="#228B22" stroke-width="0.04000"/>
      <line x1="32.45525" y1="121.36159" x2="35.77763" y2="121.82851" stroke="#228B22" stroke-width="0.04000"/>
      <line x1="32.42598" y1="121.25649" x2="35.77696" y2="121.72745" stroke="#228B22" stroke-width="0.04000"/>
      <line x1="32.39671" y1="121.15140" x2="35.77937" y2="121.62680" stroke="#228B22" stroke-width="0.04000"/>
      <line x1="32.36744" y1="121.04630" x2="35.78729" y2="121.52692" stroke="#228B22" stroke-width="0.04000"/>
      <line x1="32.33817" y1="120.94120" x2="35.79520" y2="121.42706" stroke="#228B22" stroke-width="0.04000"/>
      <line x1="32.30890" y1="120.83611" x2="35.80312" y2="121.32719" stroke="#228B22" stroke-width="0.04000"/>
      <line x1="32.28303" y1="120.73148" x2="35.81104" y2="121.22731" stroke="#228B22" stroke-width="0.04000"/>
      <line x1="32.25860" y1="120.62708" x2="35.81895" y2="121.12745" stroke="#228B22" stroke-width="0.04000"/>
      <line x1="32.23416" y1="120.52265" x2="35.82686" y2="121.02757" stroke="#228B22" stroke-width="0.04000"/>
      <line x1="32.20515" y1="120.41759" x2="35.83478" y2="120.92770" stroke="#228B22" stroke-width="0.04000"/>
      <line x1="32.17314" y1="120.31211" x2="35.84066" y2="120.82755" stroke="#228B22" stroke-width="0.04000"/>
      <line x1="32.14113" y1="120.20663" x2="35.83802" y2="120.72620" stroke="#228B22" stroke-width="0.04000"/>
      <line x1="32.10912" y1="120.10115" x2="35.84063" y2="120.62558" stroke="#228B22" stroke-width="0.04000"/>
      <line x1="32.07711" y1="119.99567" x2="35.84507" y2="120.52522" stroke="#228B22" stroke-width="0.04000"/>
      <line x1="32.04510" y1="119.89018" x2="35.84951" y2="120.42486" stroke="#228B22" stroke-width="0.04000"/>
      <line x1="32.01310" y1="119.78471" x2="35.85395" y2="120.32450" stroke="#228B22" stroke-width="0.04000"/>
      <line x1="31.98109" y1="119.67922" x2="35.85839" y2="120.22414" stroke="#228B22" stroke-width="0.04000"/>
      <line x1="31.94908" y1="119.57374" x2="35.86283" y2="120.12378" stroke="#228B22" stroke-width="0.04000"/>
      <line x1="31.91875" y1="119.46850" x2="35.86727" y2="120.02343" stroke="#228B22" stroke-width="0.04000"/>
      <line x1="31.87125" y1="119.36084" x2="35.86656" y2="119.92234" stroke="#228B22" stroke-width="0.04000"/>
      <line x1="31.81769" y1="119.25233" x2="35.86042" y2="119.82050" stroke="#228B22" stroke-width="0.04000"/>
      <line x1="31.75581" y1="119.14265" x2="35.85428" y2="119.71865" stroke="#228B22" stroke-width="0.04000"/>
      <line x1="31.69393" y1="119.03297" x2="35.84814" y2="119.61681" stroke="#228B22" stroke-width="0.04000"/>
      <line x1="31.63205" y1="118.92329" x2="35.84200" y2="119.51496" stroke="#228B22" stroke-width="0.04000"/>
      <line x1="31.57018" y1="118.81361" x2="35.83804" y2="119.41342" stroke="#228B22" stroke-width="0.04000"/>
      <line x1="31.50830" y1="118.70393" x2="35.83673" y2="119.31226" stroke="#228B22" stroke-width="0.04000"/>
      <line x1="31.44642" y1="118.59425" x2="35.83542" y2="119.21109" stroke="#228B22" stroke-width="0.04000"/>
      <line x1="31.38380" y1="118.48447" x2="35.83411" y2="119.10992" stroke="#228B22" stroke-width="0.04000"/>
      <line x1="31.32102" y1="118.37466" x2="35.82951" y2="119.00829" stroke="#228B22" stroke-width="0.04000"/>
      <line x1="31.25825" y1="118.26486" x2="35.81817" y2="118.90572" stroke="#228B22" stroke-width="0.04000"/>
      <line x1="31.18872" y1="118.15411" x2="35.80682" y2="118.80314" stroke="#228B22" stroke-width="0.04000"/>
      <line x1="31.11861" y1="118.04327" x2="35.79548" y2="118.70056" stroke="#228B22" stroke-width="0.04000"/>
      <line x1="31.04850" y1="117.93243" x2="35.78413" y2="118.59798" stroke="#228B22" stroke-width="0.04000"/>
      <line x1="30.97839" y1="117.82159" x2="35.77279" y2="118.49541" stroke="#228B22" stroke-width="0.04000"/>
      <line x1="30.90951" y1="117.71094" x2="35.76144" y2="118.39283" stroke="#228B22" stroke-width="0.04000"/>
      <line x1="30.84149" y1="117.60040" x2="35.75706" y2="118.29123" stroke="#228B22" stroke-width="0.04000"/>
      <line x1="30.77347" y1="117.48985" x2="35.75501" y2="118.18996" stroke="#228B22" stroke-width="0.04000"/>
      <line x1="30.70545" y1="117.37931" x2="35.75297" y2="118.08869" stroke="#228B22" stroke-width="0.04000"/>
      <line x1="30.63743" y1="117.26877" x2="35.75092" y2="117.98742" stroke="#228B22" stroke-width="0.04000"/>
      <line x1="30.61719" y1="117.16493" x2="35.73534" y2="117.88425" stroke="#228B22" stroke-width="0.04000"/>
      <line x1="30.60680" y1="117.06250" x2="35.71923" y2="117.78101" stroke="#228B22" stroke-width="0.04000"/>
      <line x1="30.59641" y1="116.96005" x2="35.70312" y2="117.67775" stroke="#228B22" stroke-width="0.04000"/>
      <line x1="30.58806" y1="116.85789" x2="35.68700" y2="117.57450" stroke="#228B22" stroke-width="0.04000"/>
      <line x1="30.57998" y1="116.75578" x2="35.67089" y2="117.47126" stroke="#228B22" stroke-width="0.04000"/>
      <line x1="30.57191" y1="116.65366" x2="35.65563" y2="117.36813" stroke="#228B22" stroke-width="0.04000"/>
      <line x1="30.56383" y1="116.55154" x2="35.64146" y2="117.26515" stroke="#228B22" stroke-width="0.04000"/>
      <line x1="30.55575" y1="116.44942" x2="35.62729" y2="117.16219" stroke="#228B22" stroke-width="0.04000"/>
      <line x1="30.54767" y1="116.34731" x2="35.61311" y2="117.05920" stroke="#228B22" stroke-width="0.04000"/>
      <line x1="30.53960" y1="116.24519" x2="35.59895" y2="116.95623" stroke="#228B22" stroke-width="0.04000"/>
      <line x1="30.53152" y1="116.14307" x2="35.58477" y2="116.85326" stroke="#228B22" stroke-width="0.04000"/>
      <line x1="30.52345" y1="116.04095" x2="35.57060" y2="116.75028" stroke="#228B22" stroke-width="0.04000"/>
      <line x1="30.54990" y1="115.94369" x2="35.55643" y2="116.64731" stroke="#228B22" stroke-width="0.04000"/>
      <line x1="30.56939" y1="115.84544" x2="35.53674" y2="116.54356" stroke="#228B22" stroke-width="0.04000"/>
      <line x1="30.58917" y1="115.74724" x2="35.50987" y2="116.43880" stroke="#228B22" stroke-width="0.04000"/>
      <line x1="30.60970" y1="115.64915" x2="35.48205" y2="116.33391" stroke="#228B22" stroke-width="0.04000"/>
      <line x1="30.63023" y1="115.55105" x2="35.45405" y2="116.22899" stroke="#228B22" stroke-width="0.04000"/>
      <line x1="30.65076" y1="115.45294" x2="35.42604" y2="116.12407" stroke="#228B22" stroke-width="0.04000"/>
      <line x1="30.67129" y1="115.35485" x2="35.39804" y2="116.01916" stroke="#228B22" stroke-width="0.04000"/>
      <line x1="30.69182" y1="115.25675" x2="35.37004" y2="115.91424" stroke="#228B22" stroke-width="0.04000"/>
      <line x1="30.71235" y1="115.15865" x2="35.34204" y2="115.80931" stroke="#228B22" stroke-width="0.04000"/>
      <line x1="30.73288" y1="115.06056" x2="35.31404" y2="115.70440" stroke="#228B22" stroke-width="0.04000"/>
      <line x1="30.75340" y1="114.96246" x2="35.28604" y2="115.59948" stroke="#228B22" stroke-width="0.04000"/>
      <line x1="30.77394" y1="114.86436" x2="35.25675" y2="115.49438" stroke="#228B22" stroke-width="0.04000"/>
      <line x1="30.79441" y1="114.76626" x2="35.22512" y2="115.38895" stroke="#228B22" stroke-width="0.04000"/>
      <line x1="30.81488" y1="114.66815" x2="35.19349" y2="115.28352" stroke="#228B22" stroke-width="0.04000"/>
      <line x1="30.83534" y1="114.57005" x2="35.16186" y2="115.17810" stroke="#228B22" stroke-width="0.04000"/>
      <line x1="30.85581" y1="114.47194" x2="35.13023" y2="115.07267" stroke="#228B22" stroke-width="0.04000"/>
      <line x1="30.88790" y1="114.37547" x2="35.09859" y2="114.96724" stroke="#228B22" stroke-width="0.04000"/>
      <line x1="30.93074" y1="114.28051" x2="35.06696" y2="114.86182" stroke="#228B22" stroke-width="0.04000"/>
      <line x1="30.97359" y1="114.18555" x2="35.03533" y2="114.75639" stroke="#228B22" stroke-width="0.04000"/>
      <line x1="31.01644" y1="114.09058" x2="34.99765" y2="114.65010" stroke="#228B22" stroke-width="0.04000"/>
      <line x1="31.05928" y1="113.99562" x2="34.95592" y2="114.54326" stroke="#228B22" stroke-width="0.04000"/>
      <line x1="31.10213" y1="113.90066" x2="34.91408" y2="114.43639" stroke="#228B22" stroke-width="0.04000"/>
      <line x1="31.14068" y1="113.80509" x2="34.87081" y2="114.32933" stroke="#228B22" stroke-width="0.04000"/>
      <line x1="31.16999" y1="113.70824" x2="34.82389" y2="114.22176" stroke="#228B22" stroke-width="0.04000"/>
      <line x1="31.19931" y1="113.61137" x2="34.77697" y2="114.11417" stroke="#228B22" stroke-width="0.04000"/>
      <line x1="31.22863" y1="113.51450" x2="34.73006" y2="114.00660" stroke="#228B22" stroke-width="0.04000"/>
      <line x1="31.25794" y1="113.41765" x2="34.68314" y2="113.89902" stroke="#228B22" stroke-width="0.04000"/>
      <line x1="31.28726" y1="113.32078" x2="34.63622" y2="113.79144" stroke="#228B22" stroke-width="0.04000"/>
      <line x1="31.31658" y1="113.22392" x2="34.58981" y2="113.68394" stroke="#228B22" stroke-width="0.04000"/>
      <line x1="31.34589" y1="113.12706" x2="34.54498" y2="113.57666" stroke="#228B22" stroke-width="0.04000"/>
      <line x1="31.42211" y1="113.03678" x2="34.50014" y2="113.46938" stroke="#228B22" stroke-width="0.04000"/>
      <line x1="31.49861" y1="112.94656" x2="34.45530" y2="113.36209" stroke="#228B22" stroke-width="0.04000"/>
      <line x1="31.56915" y1="112.85548" x2="34.41047" y2="113.25481" stroke="#228B22" stroke-width="0.04000"/>
      <line x1="31.63969" y1="112.76441" x2="34.34825" y2="113.14508" stroke="#228B22" stroke-width="0.04000"/>
      <line x1="31.71022" y1="112.67335" x2="34.26797" y2="113.03281" stroke="#228B22" stroke-width="0.04000"/>
      <line x1="31.78075" y1="112.58228" x2="34.18768" y2="112.92055" stroke="#228B22" stroke-width="0.04000"/>
      <line x1="31.85129" y1="112.49120" x2="34.10777" y2="112.80833" stroke="#228B22" stroke-width="0.04000"/>
      <line x1="31.92182" y1="112.40014" x2="34.02799" y2="112.69614" stroke="#228B22" stroke-width="0.04000"/>
      <line x1="31.99236" y1="112.30907" x2="33.94821" y2="112.58394" stroke="#228B22" stroke-width="0.04000"/>
      <line x1="32.12315" y1="112.22646" x2="33.86843" y2="112.47175" stroke="#228B22" stroke-width="0.04000"/>
      <line x1="32.27967" y1="112.14748" x2="33.78865" y2="112.35956" stroke="#228B22" stroke-width="0.04000"/>
      <line x1="32.44413" y1="112.06961" x2="33.70887" y2="112.24736" stroke="#228B22" stroke-width="0.04000"/>
      <line x1="32.60858" y1="111.99174" x2="33.62910" y2="112.13517" stroke="#228B22" stroke-width="0.04000"/>
      <line x1="32.77304" y1="111.91387" x2="32.96745" y2="111.94119" stroke="#228B22" stroke-width="0.04000"/>
    </g>
    <g class="thermal-hatch" data-segment="8" data-name="CoreNormalHatch">
      <line x1="43.86171" y1="111.79402" x2="51.36086" y2="112.84795" stroke="#228B22" stroke-width="0.04000"/>
      <line x1="44.18542" y1="111.94049" x2="50.06492" y2="112.76681" stroke="#228B22" stroke-width="0.04000"/>
      <line x1="43.53799" y1="111.64754" x2="51.49487" y2="112.76580" stroke="#228B22" stroke-width="0.04000"/>
      <line x1="43.32594" y1="111.51676" x2="51.62886" y2="112.68365" stroke="#228B22" stroke-width="0.04000"/>
      <line x1="44.64048" y1="112.10543" x2="48.32382" y2="112.62309" stroke="#228B22" stroke-width="0.04000"/>
      <line x1="43.11999" y1="111.38683" x2="51.76287" y2="112.60150" stroke="#228B22" stroke-width="0.04000"/>
      <line x1="45.42635" y1="112.31686" x2="47.01793" y2="112.54054" stroke="#228B22" stroke-width="0.04000"/>
      <line x1="42.91404" y1="111.25690" x2="51.89688" y2="112.51936" stroke="#228B22" stroke-width="0.04000"/>
      <line x1="42.70811" y1="111.12698" x2="52.02928" y2="112.43698" stroke="#228B22" stroke-width="0.04000"/>
      <line x1="42.49853" y1="110.99654" x2="52.00476" y2="112.33255" stroke="#228B22" stroke-width="0.04000"/>
      <line x1="42.28762" y1="110.86591" x2="51.95424" y2="112.22447" stroke="#228B22" stroke-width="0.04000"/>
      <line x1="42.07670" y1="110.73529" x2="51.90371" y2="112.11639" stroke="#228B22" stroke-width="0.04000"/>
      <line x1="41.86578" y1="110.60466" x2="51.85318" y2="112.00830" stroke="#228B22" stroke-width="0.04000"/>
      <line x1="41.69913" y1="110.48026" x2="51.80265" y2="111.90022" stroke="#228B22" stroke-width="0.04000"/>
      <line x1="41.53299" y1="110.35593" x2="51.75212" y2="111.79214" stroke="#228B22" stroke-width="0.04000"/>
      <line x1="41.36684" y1="110.23159" x2="51.70159" y2="111.68404" stroke="#228B22" stroke-width="0.04000"/>
      <line x1="41.20070" y1="110.10726" x2="51.65107" y2="111.57597" stroke="#228B22" stroke-width="0.04000"/>
      <line x1="41.03456" y1="109.98293" x2="51.60054" y2="111.46788" stroke="#228B22" stroke-width="0.04000"/>
      <line x1="40.87097" y1="109.85896" x2="51.55480" y2="111.36047" stroke="#228B22" stroke-width="0.04000"/>
      <line x1="40.75844" y1="109.74216" x2="51.51071" y2="111.25330" stroke="#228B22" stroke-width="0.04000"/>
      <line x1="40.62944" y1="109.62305" x2="51.46663" y2="111.14611" stroke="#228B22" stroke-width="0.04000"/>
      <line x1="40.50043" y1="109.50393" x2="51.42254" y2="111.03893" stroke="#228B22" stroke-width="0.04000"/>
      <line x1="40.37759" y1="109.38569" x2="51.37845" y2="110.93176" stroke="#228B22" stroke-width="0.04000"/>
      <line x1="40.25641" y1="109.26767" x2="51.33437" y2="110.82458" stroke="#228B22" stroke-width="0.04000"/>
      <line x1="40.13702" y1="109.14991" x2="51.29028" y2="110.71740" stroke="#228B22" stroke-width="0.04000"/>
      <line x1="40.02222" y1="109.03279" x2="51.24619" y2="110.61022" stroke="#228B22" stroke-width="0.04000"/>
      <line x1="39.91167" y1="108.91628" x2="50.99195" y2="110.47350" stroke="#228B22" stroke-width="0.04000"/>
      <line x1="39.81656" y1="108.80192" x2="50.60246" y2="110.31778" stroke="#228B22" stroke-width="0.04000"/>
      <line x1="39.72144" y1="108.68758" x2="50.09339" y2="110.14526" stroke="#228B22" stroke-width="0.04000"/>
      <line x1="39.62632" y1="108.57322" x2="49.96009" y2="110.02554" stroke="#228B22" stroke-width="0.04000"/>
      <line x1="39.57858" y1="108.46552" x2="49.83579" y2="109.90708" stroke="#228B22" stroke-width="0.04000"/>
      <line x1="39.52768" y1="108.35739" x2="49.31166" y2="109.73244" stroke="#228B22" stroke-width="0.04000"/>
      <line x1="39.46334" y1="108.24737" x2="48.77733" y2="109.55636" stroke="#228B22" stroke-width="0.04000"/>
      <line x1="39.39900" y1="108.13734" x2="48.32190" y2="109.39137" stroke="#228B22" stroke-width="0.04000"/>
      <line x1="39.33466" y1="108.02731" x2="47.87764" y2="109.22795" stroke="#228B22" stroke-width="0.04000"/>
      <line x1="39.27031" y1="107.91729" x2="47.37158" y2="109.05585" stroke="#228B22" stroke-width="0.04000"/>
      <line x1="39.20597" y1="107.80727" x2="46.90876" y2="108.88982" stroke="#228B22" stroke-width="0.04000"/>
      <line x1="39.15952" y1="107.69975" x2="46.47889" y2="108.72842" stroke="#228B22" stroke-width="0.04000"/>
      <line x1="39.13889" y1="107.59587" x2="46.15312" y2="108.58166" stroke="#228B22" stroke-width="0.04000"/>
      <line x1="39.11826" y1="107.49199" x2="45.82734" y2="108.43489" stroke="#228B22" stroke-width="0.04000"/>
      <line x1="39.09764" y1="107.38811" x2="45.43103" y2="108.27821" stroke="#228B22" stroke-width="0.04000"/>
      <line x1="39.07701" y1="107.28423" x2="45.16183" y2="108.13940" stroke="#228B22" stroke-width="0.04000"/>
      <line x1="39.05442" y1="107.18007" x2="44.89264" y2="108.00058" stroke="#228B22" stroke-width="0.04000"/>
      <line x1="39.02409" y1="107.07482" x2="44.63295" y2="107.86310" stroke="#228B22" stroke-width="0.04000"/>
      <line x1="38.99377" y1="106.96958" x2="44.49042" y2="107.74209" stroke="#228B22" stroke-width="0.04000"/>
      <line x1="39.02513" y1="106.87301" x2="44.32397" y2="107.61771" stroke="#228B22" stroke-width="0.04000"/>
      <line x1="39.05907" y1="106.77679" x2="44.10574" y2="107.48605" stroke="#228B22" stroke-width="0.04000"/>
      <line x1="39.09300" y1="106.68058" x2="43.88753" y2="107.35441" stroke="#228B22" stroke-width="0.04000"/>
      <line x1="39.12693" y1="106.58437" x2="43.72364" y2="107.23039" stroke="#228B22" stroke-width="0.04000"/>
      <line x1="39.16087" y1="106.48815" x2="43.63288" y2="107.11665" stroke="#228B22" stroke-width="0.04000"/>
      <line x1="39.19481" y1="106.39194" x2="43.54213" y2="107.00291" stroke="#228B22" stroke-width="0.04000"/>
      <line x1="39.22818" y1="106.29565" x2="43.42299" y2="106.88519" stroke="#228B22" stroke-width="0.04000"/>
      <line x1="39.26076" y1="106.19924" x2="43.29502" y2="106.76622" stroke="#228B22" stroke-width="0.04000"/>
      <line x1="39.32859" y1="106.10780" x2="43.16973" y2="106.64763" stroke="#228B22" stroke-width="0.04000"/>
      <line x1="39.44028" y1="106.02251" x2="43.04936" y2="106.52972" stroke="#228B22" stroke-width="0.04000"/>
      <line x1="39.55746" y1="105.93799" x2="42.92899" y2="106.41183" stroke="#228B22" stroke-width="0.04000"/>
      <line x1="39.67463" y1="105.85348" x2="42.80633" y2="106.29361" stroke="#228B22" stroke-width="0.04000"/>
      <line x1="39.79181" y1="105.76896" x2="42.64815" y2="106.17039" stroke="#228B22" stroke-width="0.04000"/>
      <line x1="39.90899" y1="105.68445" x2="42.48998" y2="106.04719" stroke="#228B22" stroke-width="0.04000"/>
      <line x1="40.19294" y1="105.62337" x2="42.33180" y2="105.92397" stroke="#228B22" stroke-width="0.04000"/>
      <line x1="40.47744" y1="105.56237" x2="41.81926" y2="105.75095" stroke="#228B22" stroke-width="0.04000"/>
      <line x1="40.76192" y1="105.50137" x2="41.10567" y2="105.54968" stroke="#228B22" stroke-width="0.04000"/>
    </g>
    <g class="thermal-hatch" data-segment="8" data-name="CoreNormalHatch">
      <line x1="33.44690" y1="112.37950" x2="33.93000" y2="113.05890" stroke="#228B22" stroke-width="0.04000"/>
      <line x1="33.93000" y1="113.05890" x2="34.13240" y2="113.34180" stroke="#228B22" stroke-width="0.04000"/>
      <line x1="34.13240" y1="113.34180" x2="34.33400" y2="113.82410" stroke="#228B22" stroke-width="0.04000"/>
      <line x1="34.33400" y1="113.82410" x2="34.61810" y2="114.47550" stroke="#228B22" stroke-width="0.04000"/>
      <line x1="34.61810" y1="114.47550" x2="34.67320" y2="114.61630" stroke="#228B22" stroke-width="0.04000"/>
      <line x1="34.67320" y1="114.61630" x2="34.67320" y2="114.61640" stroke="#228B22" stroke-width="0.04000"/>
      <line x1="34.67320" y1="114.61640" x2="34.74800" y2="114.80820" stroke="#228B22" stroke-width="0.04000"/>
      <line x1="34.74800" y1="114.80820" x2="34.98940" y2="115.61230" stroke="#228B22" stroke-width="0.04000"/>
      <line x1="34.98940" y1="115.61230" x2="35.22140" y2="116.48220" stroke="#228B22" stroke-width="0.04000"/>
      <line x1="35.22140" y1="116.48220" x2="35.24450" y2="116.57050" stroke="#228B22" stroke-width="0.04000"/>
      <line x1="35.24450" y1="116.57050" x2="35.26350" y2="116.64730" stroke="#228B22" stroke-width="0.04000"/>
      <line x1="35.26350" y1="116.64730" x2="35.37500" y2="117.45520" stroke="#228B22" stroke-width="0.04000"/>
      <line x1="35.37500" y1="117.45520" x2="35.46110" y2="118.00810" stroke="#228B22" stroke-width="0.04000"/>
      <line x1="35.46110" y1="118.00810" x2="35.46890" y2="118.38590" stroke="#228B22" stroke-width="0.04000"/>
      <line x1="35.46890" y1="118.38590" x2="35.54320" y2="119.06000" stroke="#228B22" stroke-width="0.04000"/>
      <line x1="35.54320" y1="119.06000" x2="35.54860" y2="119.46980" stroke="#228B22" stroke-width="0.04000"/>
      <line x1="35.54860" y1="119.46980" x2="35.57910" y2="119.97310" stroke="#228B22" stroke-width="0.04000"/>
      <line x1="35.57910" y1="119.97310" x2="35.54700" y2="120.69740" stroke="#228B22" stroke-width="0.04000"/>
      <line x1="35.54700" y1="120.69740" x2="35.55060" y2="120.84000" stroke="#228B22" stroke-width="0.04000"/>
      <line x1="35.55060" y1="120.84000" x2="35.48650" y2="121.65210" stroke="#228B22" stroke-width="0.04000"/>
      <line x1="35.48650" y1="121.65210" x2="35.48890" y2="122.06350" stroke="#228B22" stroke-width="0.04000"/>
      <line x1="35.48890" y1="122.06350" x2="35.45840" y2="122.67470" stroke="#228B22" stroke-width="0.04000"/>
      <line x1="35.45840" y1="122.67470" x2="35.46200" y2="123.58410" stroke="#228B22" stroke-width="0.04000"/>
      <line x1="35.46200" y1="123.58410" x2="35.45810" y2="123.64450" stroke="#228B22" stroke-width="0.04000"/>
      <line x1="35.45810" y1="123.64450" x2="35.45780" y2="123.74750" stroke="#228B22" stroke-width="0.04000"/>
      <line x1="35.45780" y1="123.74750" x2="35.43280" y2="124.59220" stroke="#228B22" stroke-width="0.04000"/>
      <line x1="35.43280" y1="124.59220" x2="35.45200" y2="125.01860" stroke="#228B22" stroke-width="0.04000"/>
      <line x1="35.45200" y1="125.01860" x2="35.39190" y2="125.66010" stroke="#228B22" stroke-width="0.04000"/>
      <line x1="35.39190" y1="125.66010" x2="35.34510" y2="126.29330" stroke="#228B22" stroke-width="0.04000"/>
      <line x1="35.34510" y1="126.29330" x2="35.16970" y2="126.53510" stroke="#228B22" stroke-width="0.04000"/>
      <line x1="35.16970" y1="126.53510" x2="34.95360" y2="126.64470" stroke="#228B22" stroke-width="0.04000"/>
      <line x1="34.95360" y1="126.64470" x2="34.71930" y2="126.42350" stroke="#228B22" stroke-width="0.04000"/>
      <line x1="34.71930" y1="126.42350" x2="34.39960" y2="126.19180" stroke="#228B22" stroke-width="0.04000"/>
      <line x1="34.39960" y1="126.19180" x2="34.13610" y2="125.52000" stroke="#228B22" stroke-width="0.04000"/>
      <line x1="34.13610" y1="125.52000" x2="34.13610" y2="125.51930" stroke="#228B22" stroke-width="0.04000"/>
      <line x1="34.13610" y1="125.51930" x2="34.05540" y2="125.31670" stroke="#228B22" stroke-width="0.04000"/>
      <line x1="34.05540" y1="125.31670" x2="34.02980" y2="125.24650" stroke="#228B22" stroke-width="0.04000"/>
      <line x1="34.02980" y1="125.24650" x2="33.73790" y2="124.40350" stroke="#228B22" stroke-width="0.04000"/>
      <line x1="33.73790" y1="124.40350" x2="33.62660" y2="124.11080" stroke="#228B22" stroke-width="0.04000"/>
      <line x1="33.62660" y1="124.11080" x2="33.36190" y2="123.29870" stroke="#228B22" stroke-width="0.04000"/>
      <line x1="33.36190" y1="123.29870" x2="33.25000" y2="123.00710" stroke="#228B22" stroke-width="0.04000"/>
      <line x1="33.25000" y1="123.00710" x2="33.05880" y2="122.37260" stroke="#228B22" stroke-width="0.04000"/>
      <line x1="33.05880" y1="122.37260" x2="32.90690" y2="121.90400" stroke="#228B22" stroke-width="0.04000"/>
      <line x1="32.90690" y1="121.90400" x2="32.75460" y2="121.35590" stroke="#228B22" stroke-width="0.04000"/>
      <line x1="32.75460" y1="121.35590" x2="32.58150" y2="120.73440" stroke="#228B22" stroke-width="0.04000"/>
      <line x1="32.58150" y1="120.73440" x2="32.50470" y2="120.40610" stroke="#228B22" stroke-width="0.04000"/>
      <line x1="32.50470" y1="120.40610" x2="32.22500" y2="119.48470" stroke="#228B22" stroke-width="0.04000"/>
      <line x1="32.22500" y1="119.48470" x2="32.20560" y2="119.40030" stroke="#228B22" stroke-width="0.04000"/>
      <line x1="32.20560" y1="119.40030" x2="32.10340" y2="119.16840" stroke="#228B22" stroke-width="0.04000"/>
      <line x1="32.10340" y1="119.16840" x2="31.68770" y2="118.43160" stroke="#228B22" stroke-width="0.04000"/>
      <line x1="31.68770" y1="118.43160" x2="31.50170" y2="118.10640" stroke="#228B22" stroke-width="0.04000"/>
      <line x1="31.50170" y1="118.10640" x2="31.19470" y2="117.62100" stroke="#228B22" stroke-width="0.04000"/>
      <line x1="31.19470" y1="117.62100" x2="31.19460" y2="117.62100" stroke="#228B22" stroke-width="0.04000"/>
      <line x1="31.19460" y1="117.62100" x2="30.90740" y2="117.15420" stroke="#228B22" stroke-width="0.04000"/>
      <line x1="30.90740" y1="117.15420" x2="30.88370" y2="116.91860" stroke="#228B22" stroke-width="0.04000"/>
      <line x1="30.88370" y1="116.91860" x2="30.81650" y2="116.06900" stroke="#228B22" stroke-width="0.04000"/>
      <line x1="30.81650" y1="116.06900" x2="30.82940" y2="116.02490" stroke="#228B22" stroke-width="0.04000"/>
      <line x1="30.82940" y1="116.02490" x2="30.86770" y2="115.83250" stroke="#228B22" stroke-width="0.04000"/>
      <line x1="30.86770" y1="115.83250" x2="30.86760" y2="115.83240" stroke="#228B22" stroke-width="0.04000"/>
      <line x1="30.86760" y1="115.83240" x2="31.06290" y2="114.89930" stroke="#228B22" stroke-width="0.04000"/>
      <line x1="31.06290" y1="114.89930" x2="31.14310" y2="114.51420" stroke="#228B22" stroke-width="0.04000"/>
      <line x1="31.14310" y1="114.51420" x2="31.40340" y2="113.93790" stroke="#228B22" stroke-width="0.04000"/>
      <line x1="31.40340" y1="113.93790" x2="31.60600" y2="113.26800" stroke="#228B22" stroke-width="0.04000"/>
      <line x1="31.60600" y1="113.26800" x2="31.72320" y2="113.13020" stroke="#228B22" stroke-width="0.04000"/>
      <line x1="31.72320" y1="113.13020" x2="32.20190" y2="112.51190" stroke="#228B22" stroke-width="0.04000"/>
      <line x1="32.20190" y1="112.51190" x2="32.37550" y2="112.42290" stroke="#228B22" stroke-width="0.04000"/>
      <line x1="32.37550" y1="112.42290" x2="32.37540" y2="112.42280" stroke="#228B22" stroke-width="0.04000"/>
      <line x1="32.37540" y1="112.42280" x2="32.83520" y2="112.20510" stroke="#228B22" stroke-width="0.04000"/>
      <line x1="32.83520" y1="112.20510" x2="33.44690" y2="112.37950" stroke="#228B22" stroke-width="0.04000"/>
      <line x1="41.07580" y1="105.84030" x2="41.73450" y2="106.02880" stroke="#228B22" stroke-width="0.04000"/>
      <line x1="41.73450" y1="106.02880" x2="42.01150" y2="106.09540" stroke="#228B22" stroke-width="0.04000"/>
      <line x1="42.01150" y1="106.09540" x2="42.14730" y2="106.14790" stroke="#228B22" stroke-width="0.04000"/>
      <line x1="42.14730" y1="106.14790" x2="42.62410" y2="106.51940" stroke="#228B22" stroke-width="0.04000"/>
      <line x1="42.62410" y1="106.51940" x2="43.01220" y2="106.89920" stroke="#228B22" stroke-width="0.04000"/>
      <line x1="43.01220" y1="106.89920" x2="43.30690" y2="107.17310" stroke="#228B22" stroke-width="0.04000"/>
      <line x1="43.30690" y1="107.17310" x2="43.56800" y2="107.50040" stroke="#228B22" stroke-width="0.04000"/>
      <line x1="43.56800" y1="107.50040" x2="44.22310" y2="107.89540" stroke="#228B22" stroke-width="0.04000"/>
      <line x1="44.22310" y1="107.89540" x2="44.48130" y2="108.11470" stroke="#228B22" stroke-width="0.04000"/>
      <line x1="44.48130" y1="108.11470" x2="45.33090" y2="108.55280" stroke="#228B22" stroke-width="0.04000"/>
      <line x1="45.33090" y1="108.55280" x2="45.50760" y2="108.61610" stroke="#228B22" stroke-width="0.04000"/>
      <line x1="45.50760" y1="108.61610" x2="45.56930" y2="108.63690" stroke="#228B22" stroke-width="0.04000"/>
      <line x1="45.56930" y1="108.63690" x2="46.51790" y2="109.06400" stroke="#228B22" stroke-width="0.04000"/>
      <line x1="46.51790" y1="109.06400" x2="46.61500" y2="109.09250" stroke="#228B22" stroke-width="0.04000"/>
      <line x1="46.61500" y1="109.09250" x2="47.49330" y2="109.40760" stroke="#228B22" stroke-width="0.04000"/>
      <line x1="47.49330" y1="109.40760" x2="47.70750" y2="109.47430" stroke="#228B22" stroke-width="0.04000"/>
      <line x1="47.70750" y1="109.47430" x2="48.62520" y2="109.81190" stroke="#228B22" stroke-width="0.04000"/>
      <line x1="48.62520" y1="109.81190" x2="48.83090" y2="109.87830" stroke="#228B22" stroke-width="0.04000"/>
      <line x1="48.83090" y1="109.87830" x2="48.83090" y2="109.87840" stroke="#228B22" stroke-width="0.04000"/>
      <line x1="48.83090" y1="109.87840" x2="49.68160" y2="110.16090" stroke="#228B22" stroke-width="0.04000"/>
      <line x1="49.68160" y1="110.16090" x2="49.92780" y2="110.39530" stroke="#228B22" stroke-width="0.04000"/>
      <line x1="49.92780" y1="110.39530" x2="50.65550" y2="110.64180" stroke="#228B22" stroke-width="0.04000"/>
      <line x1="50.65550" y1="110.64180" x2="50.96530" y2="110.77870" stroke="#228B22" stroke-width="0.04000"/>
      <line x1="50.96530" y1="110.77870" x2="51.01190" y2="110.80290" stroke="#228B22" stroke-width="0.04000"/>
      <line x1="51.01190" y1="110.80290" x2="51.32200" y2="111.55680" stroke="#228B22" stroke-width="0.04000"/>
      <line x1="51.32200" y1="111.55680" x2="51.62670" y2="112.20880" stroke="#228B22" stroke-width="0.04000"/>
      <line x1="51.62670" y1="112.20880" x2="51.27830" y2="112.47400" stroke="#228B22" stroke-width="0.04000"/>
      <line x1="51.27830" y1="112.47400" x2="51.10190" y2="112.58200" stroke="#228B22" stroke-width="0.04000"/>
      <line x1="51.10190" y1="112.58200" x2="50.78690" y2="112.51270" stroke="#228B22" stroke-width="0.04000"/>
      <line x1="50.78690" y1="112.51270" x2="49.94540" y2="112.47020" stroke="#228B22" stroke-width="0.04000"/>
      <line x1="49.94540" y1="112.47020" x2="49.82110" y2="112.44790" stroke="#228B22" stroke-width="0.04000"/>
      <line x1="49.82110" y1="112.44790" x2="49.69310" y2="112.42890" stroke="#228B22" stroke-width="0.04000"/>
      <line x1="49.69310" y1="112.42890" x2="48.69080" y2="112.36010" stroke="#228B22" stroke-width="0.04000"/>
      <line x1="48.69080" y1="112.36010" x2="48.43190" y2="112.33680" stroke="#228B22" stroke-width="0.04000"/>
      <line x1="48.43190" y1="112.33680" x2="47.65670" y2="112.30950" stroke="#228B22" stroke-width="0.04000"/>
      <line x1="47.65670" y1="112.30950" x2="47.26000" y2="112.26820" stroke="#228B22" stroke-width="0.04000"/>
      <line x1="47.26000" y1="112.26820" x2="46.59460" y2="112.21730" stroke="#228B22" stroke-width="0.04000"/>
      <line x1="46.59460" y1="112.21730" x2="46.17730" y2="112.14590" stroke="#228B22" stroke-width="0.04000"/>
      <line x1="46.17730" y1="112.14590" x2="45.24580" y2="111.99350" stroke="#228B22" stroke-width="0.04000"/>
      <line x1="45.24580" y1="111.99350" x2="45.22920" y2="111.99060" stroke="#228B22" stroke-width="0.04000"/>
      <line x1="45.22920" y1="111.99060" x2="45.22930" y2="111.99060" stroke="#228B22" stroke-width="0.04000"/>
      <line x1="45.22930" y1="111.99060" x2="45.22720" y2="111.99010" stroke="#228B22" stroke-width="0.04000"/>
      <line x1="45.22720" y1="111.99010" x2="44.42740" y2="111.73170" stroke="#228B22" stroke-width="0.04000"/>
      <line x1="44.42740" y1="111.73170" x2="43.65700" y2="111.38310" stroke="#228B22" stroke-width="0.04000"/>
      <line x1="43.65700" y1="111.38310" x2="43.65430" y2="111.38130" stroke="#228B22" stroke-width="0.04000"/>
      <line x1="43.65430" y1="111.38130" x2="43.63030" y2="111.36580" stroke="#228B22" stroke-width="0.04000"/>
      <line x1="43.63030" y1="111.36580" x2="42.80640" y2="110.84610" stroke="#228B22" stroke-width="0.04000"/>
      <line x1="42.80640" y1="110.84610" x2="42.02280" y2="110.36080" stroke="#228B22" stroke-width="0.04000"/>
      <line x1="42.02280" y1="110.36080" x2="41.95840" y2="110.31430" stroke="#228B22" stroke-width="0.04000"/>
      <line x1="41.95840" y1="110.31430" x2="41.90560" y2="110.27260" stroke="#228B22" stroke-width="0.04000"/>
      <line x1="41.90560" y1="110.27260" x2="41.07090" y2="109.64790" stroke="#228B22" stroke-width="0.04000"/>
      <line x1="41.07090" y1="109.64790" x2="41.00290" y2="109.57320" stroke="#228B22" stroke-width="0.04000"/>
      <line x1="41.00290" y1="109.57320" x2="40.67060" y2="109.26630" stroke="#228B22" stroke-width="0.04000"/>
      <line x1="40.67060" y1="109.26630" x2="40.37160" y2="108.97500" stroke="#228B22" stroke-width="0.04000"/>
      <line x1="40.37160" y1="108.97500" x2="40.14820" y2="108.74690" stroke="#228B22" stroke-width="0.04000"/>
      <line x1="40.14820" y1="108.74690" x2="39.87090" y2="108.41360" stroke="#228B22" stroke-width="0.04000"/>
      <line x1="39.87090" y1="108.41360" x2="39.80920" y2="108.26430" stroke="#228B22" stroke-width="0.04000"/>
      <line x1="39.80920" y1="108.26430" x2="39.44290" y2="107.63820" stroke="#228B22" stroke-width="0.04000"/>
      <line x1="39.44290" y1="107.63820" x2="39.34270" y2="107.13290" stroke="#228B22" stroke-width="0.04000"/>
      <line x1="39.34270" y1="107.13290" x2="39.29680" y2="106.97410" stroke="#228B22" stroke-width="0.04000"/>
      <line x1="39.29680" y1="106.97410" x2="39.48860" y2="106.43070" stroke="#228B22" stroke-width="0.04000"/>
      <line x1="39.48860" y1="106.43070" x2="39.52550" y2="106.32130" stroke="#228B22" stroke-width="0.04000"/>
      <line x1="39.52550" y1="106.32130" x2="39.55600" y2="106.29650" stroke="#228B22" stroke-width="0.04000"/>
      <line x1="39.55600" y1="106.29650" x2="40.04280" y2="105.94530" stroke="#228B22" stroke-width="0.04000"/>
      <line x1="40.04280" y1="105.94530" x2="40.23530" y2="105.91080" stroke="#228B22" stroke-width="0.04000"/>
      <line x1="40.23530" y1="105.91080" x2="40.82850" y2="105.78360" stroke="#228B22" stroke-width="0.04000"/>
      <line x1="40.82850" y1="105.78360" x2="41.07580" y2="105.84030" stroke="#228B22" stroke-width="0.04000"/>
    </g>
    <g class="thermal-hatch" data-segment="7" data-name="CoreOverhangHatch">
      <line x1="51.67600" y1="112.31430" x2="51.20280" y2="112.60430" stroke="#FF8C00" stroke-width="0.04000"/>
      <line x1="51.20280" y1="112.60430" x2="51.10190" y2="112.58200" stroke="#FF8C00" stroke-width="0.04000"/>
      <line x1="51.10190" y1="112.58200" x2="51.27830" y2="112.47400" stroke="#FF8C00" stroke-width="0.04000"/>
      <line x1="51.27830" y1="112.47400" x2="51.62670" y2="112.20880" stroke="#FF8C00" stroke-width="0.04000"/>
      <line x1="51.62670" y1="112.20880" x2="51.67600" y2="112.31430" stroke="#FF8C00" stroke-width="0.04000"/>
    </g>
    <g class="thermal-contour" data-segment="1" data-name="CoreContour_Volume">
    <path d="M 33.5759 112.115 L 33.6259 112.131 L 34.1661 112.89 L 34.3876 113.2 L 34.6008 113.71 L 34.884 114.36 L 34.9564 114.544 L 34.9564 114.544 L 35.0226 114.714 L 35.268 115.532 L 35.5016 116.407 L 35.527 116.504 L 35.5489 116.593 L 35.6618 117.413 L 35.7508 117.984 L 35.7586 118.367 L 35.8332 119.042 L 35.8386 119.459 L 35.8696 119.972 L 35.8373 120.7 L 35.8412 120.847 L 35.7765 121.663 L 35.7792 122.071 L 35.7484 122.681 L 35.7523 123.594 L 35.7481 123.655 L 35.7478 123.756 L 35.7231 124.59 L 35.7428 125.026 L 35.681 125.684 L 35.6285 126.397 L 35.3632 126.762 L 34.9032 126.996 L 34.534 126.647 L 34.1609 126.377 L 33.8461 125.575 L 33.8461 125.575 L 33.786 125.424 L 33.7575 125.346 L 33.4653 124.502 L 33.3526 124.206 L 33.0884 123.396 L 32.9754 123.101 L 32.7821 122.459 L 32.6294 121.988 L 32.4753 121.434 L 32.3002 120.805 L 32.2245 120.481 L 31.9446 119.559 L 31.9292 119.492 L 31.8438 119.299 L 31.4354 118.575 L 31.2532 118.256 L 30.9496 117.776 L 30.6258 117.25 L 30.5952 116.948 L 30.5233 116.039 L 30.5475 115.956 L 30.5836 115.774 L 30.779 114.84 L 30.8656 114.425 L 31.1314 113.836 L 31.3461 113.126 L 31.4979 112.948 L 32.0122 112.283 L 32.2457 112.164 L 32.8101 111.896 L 33.5759 112.115" fill="none" stroke="#000000" stroke-width="0.05000" fill-rule="evenodd" fill-opacity="1.000"/>
    </g>
    <g class="thermal-contour" data-segment="1" data-name="CoreContour_Volume">
    <path d="M 41.1463 105.559 L 41.8084 105.748 L 42.0994 105.818 L 42.2917 105.893 L 42.8159 106.301 L 43.2123 106.689 L 43.5206 106.976 L 43.7623 107.279 L 44.3929 107.659 L 44.6437 107.872 L 45.4468 108.286 L 45.6027 108.342 L 45.6762 108.367 L 46.6187 108.791 L 46.7031 108.816 L 47.5855 109.133 L 47.802 109.2 L 48.72 109.538 L 48.9424 109.61 L 49.835 109.906 L 50.0815 110.141 L 50.7619 110.372 L 51.0894 110.517 L 51.2398 110.595 L 51.5876 111.44 L 52.0112 112.346 L 52.0279 112.392 L 52.0509 112.423 L 51.9972 112.458 L 51.2549 112.913 L 50.7481 112.801 L 49.9126 112.759 L 49.7741 112.734 L 49.6618 112.717 L 48.6727 112.65 L 48.4139 112.626 L 47.6339 112.599 L 47.2339 112.557 L 46.5579 112.505 L 46.1294 112.432 L 45.1985 112.28 L 45.1715 112.275 L 45.1519 112.271 L 44.3239 112.003 L 43.5162 111.638 L 43.4958 111.624 L 43.4743 111.61 L 42.6527 111.092 L 41.861 110.602 L 41.7823 110.545 L 41.7287 110.502 L 40.8754 109.864 L 40.797 109.778 L 40.4728 109.478 L 40.1692 109.183 L 39.9323 108.941 L 39.6199 108.565 L 39.5488 108.394 L 39.168 107.742 L 39.0606 107.201 L 38.9926 106.965 L 39.2145 106.336 L 39.2777 106.149 L 39.3797 106.066 L 39.9265 105.672 L 40.1793 105.626 L 40.8305 105.487 L 41.1463 105.559" fill="none" stroke="#000000" stroke-width="0.05000" fill-rule="evenodd" fill-opacity="1.000"/>
    </g>
    <g class="thermal-contour" data-segment="1" data-name="CoreContour_Volume">
    <path d="M 33.5019 112.302 L 34.0033 113.007 L 34.2114 113.298 L 34.4168 113.789 L 34.7006 114.439 L 34.7632 114.599 L 34.7632 114.6 L 34.8334 114.78 L 35.0764 115.589 L 35.3084 116.459 L 35.3316 116.548 L 35.3521 116.631 L 35.464 117.442 L 35.551 118.001 L 35.5588 118.38 L 35.6332 119.054 L 35.6386 119.466 L 35.6692 119.973 L 35.6371 120.698 L 35.6408 120.842 L 35.5765 121.655 L 35.579 122.066 L 35.5484 122.677 L 35.5521 123.587 L 35.5481 123.648 L 35.5478 123.75 L 35.5229 124.591 L 35.5422 125.021 L 35.4816 125.668 L 35.4331 126.325 L 35.2298 126.606 L 34.938 126.754 L 34.6618 126.493 L 34.3255 126.249 L 34.0461 125.537 L 34.0461 125.537 L 33.9718 125.35 L 33.9453 125.277 L 33.6533 124.434 L 33.5414 124.14 L 33.277 123.329 L 33.1645 123.035 L 32.9729 122.399 L 32.8208 121.93 L 32.6679 121.38 L 32.4948 120.759 L 32.4177 120.429 L 32.1379 119.507 L 32.1198 119.429 L 32.0228 119.209 L 31.6094 118.476 L 31.4246 118.153 L 31.1186 117.669 L 30.82 117.184 L 30.7942 116.928 L 30.7255 116.06 L 30.7419 116.004 L 30.7794 115.815 L 30.9748 114.881 L 31.057 114.486 L 31.319 113.906 L 31.5254 113.224 L 31.6533 113.074 L 32.143 112.441 L 32.3344 112.343 L 32.8275 112.109 L 33.5019 112.302" fill="none" stroke="#000000" stroke-width="0.05000" fill-rule="evenodd" fill-opacity="1.000"/>
    <path d="M 32.3754 112.423 L 32.3755 112.423 L 32.2019 112.512 L 31.7232 113.13 L 31.606 113.268 L 31.4034 113.938 L 31.1431 114.514 L 31.0629 114.899 L 30.8676 115.832 L 30.8677 115.832 L 30.8294 116.025 L 30.8165 116.069 L 30.8837 116.919 L 30.9074 117.154 L 31.1946 117.621 L 31.1947 117.621 L 31.5017 118.106 L 31.6877 118.432 L 32.1034 119.168 L 32.2056 119.4 L 32.225 119.485 L 32.5047 120.406 L 32.5815 120.734 L 32.7546 121.356 L 32.9069 121.904 L 33.0588 122.373 L 33.25 123.007 L 33.3619 123.299 L 33.6266 124.111 L 33.7379 124.404 L 34.0298 125.246 L 34.0554 125.317 L 34.1361 125.519 L 34.1361 125.52 L 34.3996 126.192 L 34.7193 126.424 L 34.9536 126.645 L 35.1697 126.535 L 35.3451 126.293 L 35.3919 125.66 L 35.452 125.019 L 35.4328 124.592 L 35.4578 123.747 L 35.4581 123.645 L 35.462 123.584 L 35.4584 122.675 L 35.4889 122.063 L 35.4865 121.652 L 35.5506 120.84 L 35.547 120.697 L 35.5791 119.973 L 35.5486 119.47 L 35.5432 119.06 L 35.4689 118.386 L 35.4611 118.008 L 35.375 117.455 L 35.2635 116.647 L 35.2445 116.571 L 35.2214 116.482 L 34.9894 115.612 L 34.748 114.808 L 34.6732 114.616 L 34.6732 114.616 L 34.6181 114.476 L 34.334 113.824 L 34.1324 113.342 L 33.93 113.059 L 33.4469 112.38 L 32.8352 112.205 L 32.3754 112.423" fill="none" stroke="#000000" stroke-width="0.05000" fill-rule="evenodd" fill-opacity="1.000"/>
    <path d="M 41.0985 105.753 L 41.7574 105.942 L 42.0386 106.009 L 42.1921 106.069 L 42.6836 106.452 L 43.0743 106.834 L 43.3728 107.112 L 43.6283 107.432 L 44.2758 107.822 L 44.5317 108.039 L 45.3669 108.47 L 45.5371 108.531 L 45.6028 108.553 L 46.5492 108.979 L 46.6423 109.007 L 47.5219 109.322 L 47.7376 109.39 L 48.6546 109.727 L 48.8593 109.793 L 49.7292 110.082 L 49.9755 110.316 L 50.6885 110.558 L 51.0044 110.698 L 51.0826 110.738 L 51.4044 111.521 L 51.7 112.153 L 51.6267 112.209 L 51.322 111.557 L 51.0119 110.803 L 50.9653 110.779 L 50.6555 110.642 L 49.9278 110.395 L 49.6816 110.161 L 48.8309 109.878 L 48.8309 109.878 L 48.6252 109.812 L 47.7075 109.474 L 47.4933 109.408 L 46.615 109.092 L 46.5179 109.064 L 45.5693 108.637 L 45.5076 108.616 L 45.3309 108.553 L 44.4813 108.115 L 44.2231 107.895 L 43.568 107.5 L 43.3069 107.173 L 43.0122 106.899 L 42.6241 106.519 L 42.1473 106.148 L 42.0115 106.095 L 41.7345 106.029 L 41.0758 105.84 L 40.8285 105.784 L 40.2353 105.911 L 40.0428 105.945 L 39.556 106.297 L 39.5255 106.321 L 39.4886 106.431 L 39.2968 106.974 L 39.3427 107.133 L 39.4429 107.638 L 39.8092 108.264 L 39.8709 108.414 L 40.1482 108.747 L 40.3716 108.975 L 40.6706 109.266 L 41.0029 109.573 L 41.0709 109.648 L 41.9056 110.273 L 41.9584 110.314 L 42.0228 110.361 L 42.8064 110.846 L 43.6303 111.366 L 43.6543 111.381 L 43.657 111.383 L 44.4274 111.732 L 45.2272 111.99 L 45.2293 111.991 L 45.2292 111.991 L 45.2458 111.993 L 46.1773 112.146 L 46.5946 112.217 L 47.26 112.268 L 47.6567 112.31 L 48.4319 112.337 L 48.6908 112.36 L 49.6931 112.429 L 49.8211 112.448 L 49.9454 112.47 L 50.7869 112.513 L 51.1019 112.582 L 51.0145 112.636 L 50.8594 112.602 L 50.4285 112.58 L 49.8705 112.519 L 49.7874 112.534 L 49.6834 112.518 L 48.6863 112.45 L 48.6862 112.45 L 48.4263 112.427 L 47.6501 112.399 L 47.2519 112.358 L 46.5833 112.307 L 46.1624 112.235 L 45.2313 112.082 L 45.2108 112.079 L 45.2046 112.077 L 44.3947 111.816 L 43.6133 111.462 L 43.6051 111.457 L 43.5819 111.442 L 42.7587 110.922 L 41.9732 110.436 L 41.9025 110.385 L 41.8507 110.344 L 41.0101 109.715 L 40.939 109.637 L 40.6084 109.331 L 40.3088 109.039 L 40.0812 108.807 L 39.793 108.461 L 39.7284 108.304 L 39.3576 107.671 L 39.2552 107.154 L 39.2024 106.971 L 39.4035 106.401 L 39.4485 106.268 L 39.5019 106.225 L 40.0067 105.86 L 40.2179 105.823 L 40.8291 105.691 L 41.0985 105.753" fill="none" stroke="#000000" stroke-width="0.05000" fill-rule="evenodd" fill-opacity="1.000"/>
    </g>
    <g class="thermal-contour" data-segment="2" data-name="CoreContour_Overhang">
    <path d="M 51.7916 112.349 L 51.2189 112.7 L 50.7749 112.602 L 49.935 112.56 L 49.8065 112.537 L 49.7874 112.534 L 49.8705 112.519 L 50.4285 112.58 L 50.8594 112.602 L 51.0145 112.636 L 51.1019 112.582 L 51.2028 112.604 L 51.676 112.314 L 51.6267 112.209 L 51.7 112.153 L 51.7916 112.349" fill="none" stroke="#8B0000" stroke-width="0.05000" fill-rule="evenodd" fill-opacity="1.000"/>
    </g>
    <g class="thermal-contour" data-segment="3" data-name="HollowShell1Contour_Volume">
    <path d="M 31.9333 119.254 L 32.0245 119.461 L 32.0411 119.533 L 32.3211 120.455 L 32.3975 120.782 L 32.5716 121.407 L 32.7251 121.959 L 32.8775 122.429 L 33.0701 123.068 L 33.1827 123.362 L 33.447 124.173 L 33.5593 124.468 L 33.8514 125.312 L 33.8789 125.387 L 33.9461 125.556 L 33.9461 125.556 L 34.2432 126.313 L 34.5979 126.57 L 34.9206 126.875 L 35.1626 126.752 L 35.1293 126.798 L 34.9002 126.914 L 34.7164 126.741 L 34.146 126.327 L 33.8622 125.604 L 33.7904 125.419 L 33.7478 125.309 L 33.5507 124.725 L 33.4516 124.439 L 33.4259 124.371 L 33.0578 123.242 L 33.0355 123.184 L 32.7863 122.356 L 32.7116 122.126 L 32.4935 121.341 L 32.396 120.991 L 32.2458 120.349 L 32.0552 119.721 L 31.9761 119.378 L 31.8784 119.156 L 31.9333 119.254" fill="none" stroke="#0000CC" stroke-width="0.05000" fill-rule="evenodd" fill-opacity="1.000"/>
    <path d="M 33.5759 112.115 L 33.6259 112.131 L 34.1661 112.89 L 34.3876 113.2 L 34.6008 113.71 L 34.884 114.359 L 34.9564 114.544 L 35.0226 114.714 L 35.268 115.532 L 35.5016 116.407 L 35.527 116.504 L 35.5489 116.593 L 35.6618 117.413 L 35.7508 117.983 L 35.7586 118.367 L 35.8332 119.042 L 35.8386 119.459 L 35.8696 119.972 L 35.8373 120.7 L 35.8395 120.786 L 35.8097 121.243 L 35.7765 121.663 L 35.7766 121.686 L 35.7751 121.706 L 35.7757 121.796 L 35.7306 122.689 L 35.733 123.269 L 35.7053 123.67 L 35.7033 124.342 L 35.6952 124.618 L 35.7017 124.762 L 35.6095 125.742 L 35.5773 126.18 L 35.5403 126.231 L 35.5813 125.676 L 35.6425 125.024 L 35.623 124.591 L 35.6478 123.753 L 35.6481 123.651 L 35.6522 123.59 L 35.6484 122.679 L 35.6791 122.068 L 35.6765 121.659 L 35.741 120.844 L 35.7372 120.699 L 35.7694 119.973 L 35.7386 119.463 L 35.7332 119.048 L 35.6587 118.373 L 35.6509 117.992 L 35.5629 117.428 L 35.4505 116.612 L 35.4299 116.529 L 35.4299 116.528 L 35.405 116.433 L 35.1722 115.56 L 34.928 114.747 L 34.8632 114.581 L 34.8632 114.581 L 34.7923 114.399 L 34.5088 113.749 L 34.2995 113.249 L 34.0847 112.949 L 33.5636 112.216 L 33.5485 112.211 L 32.8188 112.003 L 32.2894 112.254 L 32.0776 112.362 L 31.5756 113.01 L 31.4358 113.175 L 31.2252 113.871 L 30.9613 114.456 L 30.8769 114.86 L 30.6815 115.794 L 30.6447 115.98 L 30.6244 116.049 L 30.6947 116.938 L 30.7063 117.053 L 30.6292 116.925 L 30.5971 116.045 L 30.5528 115.929 L 30.5836 115.774 L 30.779 114.84 L 30.8656 114.425 L 31.1314 113.836 L 31.3461 113.126 L 31.4979 112.948 L 32.0122 112.283 L 32.2457 112.164 L 32.8101 111.896 L 33.5759 112.115" fill="none" stroke="#0000CC" stroke-width="0.05000" fill-rule="evenodd" fill-opacity="1.000"/>
    <path d="M 41.1463 105.559 L 41.8084 105.748 L 42.0994 105.818 L 42.2183 105.864 L 42.7818 106.303 L 43.3868 106.896 L 43.518 107.018 L 43.621 107.147 L 43.6903 107.189 L 43.7623 107.279 L 44.3929 107.659 L 44.6437 107.872 L 45.4468 108.286 L 45.6027 108.342 L 45.6762 108.367 L 46.6187 108.791 L 46.7031 108.816 L 47.5855 109.133 L 47.802 109.2 L 48.72 109.538 L 48.9424 109.61 L 49.835 109.906 L 50.0815 110.141 L 50.7619 110.372 L 51.0834 110.514 L 51.1902 110.713 L 51.4999 111.466 L 51.7894 112.085 L 51.7814 112.091 L 51.496 111.48 L 51.1612 110.666 L 51.0469 110.607 L 50.7252 110.465 L 50.0285 110.229 L 49.7821 109.994 L 48.9109 109.705 L 48.9109 109.705 L 48.6873 109.632 L 47.7698 109.295 L 47.5537 109.227 L 46.6727 108.911 L 46.584 108.885 L 45.6395 108.46 L 45.5699 108.437 L 45.4069 108.378 L 44.5877 107.956 L 44.3345 107.741 L 43.6953 107.355 L 43.4467 107.044 L 43.1433 106.762 L 42.7498 106.376 L 42.242 105.981 L 42.069 105.914 L 41.7829 105.845 L 41.1224 105.656 L 40.8298 105.589 L 40.1986 105.724 L 39.9666 105.766 L 39.4408 106.145 L 39.3631 106.209 L 39.309 106.369 L 39.0975 106.968 L 39.1579 107.178 L 39.2628 107.706 L 39.6386 108.349 L 39.7064 108.513 L 40.007 108.874 L 40.239 109.111 L 40.5406 109.405 L 40.868 109.707 L 40.9426 109.789 L 41.7897 110.423 L 41.8429 110.465 L 41.9164 110.518 L 42.7057 111.007 L 43.5281 111.526 L 43.5505 111.54 L 43.5648 111.55 L 44.3593 111.909 L 45.1784 112.174 L 45.1905 112.177 L 45.2153 112.181 L 45.2152 112.181 L 46.1459 112.333 L 46.5197 112.397 L 46.3757 112.386 L 46.1442 112.347 L 45.6412 112.264 L 45.1808 112.186 L 44.8478 112.113 L 44.325 111.944 L 43.7867 111.7 L 43.4821 111.573 L 43.1867 111.429 L 42.6527 111.092 L 41.861 110.602 L 41.7823 110.545 L 41.7287 110.502 L 40.8754 109.864 L 40.797 109.778 L 40.4728 109.478 L 40.1692 109.183 L 39.9323 108.941 L 39.6199 108.565 L 39.5488 108.394 L 39.168 107.742 L 39.0606 107.201 L 38.9926 106.965 L 39.2145 106.336 L 39.2777 106.149 L 39.3797 106.066 L 39.9265 105.672 L 40.1793 105.626 L 40.8305 105.487 L 41.1463 105.559" fill="none" stroke="#0000CC" stroke-width="0.05000" fill-rule="evenodd" fill-opacity="1.000"/>
    </g>
    <g class="thermal-contour" data-segment="4" data-name="HollowShell1Contour_Overhang">
    <path d="M 30.5971 116.045 L 30.6292 116.925 L 30.7063 117.053 L 30.7229 117.217 L 31.0341 117.723 L 31.3389 118.204 L 31.5224 118.525 L 31.8784 119.156 L 31.9761 119.378 L 32.0552 119.721 L 32.2458 120.349 L 32.396 120.991 L 32.4935 121.341 L 32.7116 122.126 L 32.7863 122.356 L 33.0355 123.184 L 33.0578 123.242 L 33.4259 124.371 L 33.4516 124.439 L 33.5507 124.725 L 33.7478 125.309 L 33.7904 125.419 L 33.8622 125.604 L 34.146 126.327 L 34.7164 126.741 L 34.9002 126.914 L 35.1293 126.798 L 35.1626 126.752 L 35.2965 126.684 L 35.5308 126.361 L 35.5403 126.231 L 35.5773 126.18 L 35.6095 125.742 L 35.7017 124.762 L 35.6952 124.618 L 35.7033 124.342 L 35.7053 123.67 L 35.733 123.269 L 35.7306 122.689 L 35.7757 121.796 L 35.7751 121.706 L 35.7766 121.686 L 35.7792 122.068 L 35.7792 122.071 L 35.7484 122.681 L 35.7523 123.594 L 35.7481 123.655 L 35.7478 123.756 L 35.7231 124.59 L 35.7428 125.026 L 35.681 125.684 L 35.6285 126.397 L 35.3632 126.762 L 34.9032 126.996 L 34.534 126.647 L 34.1609 126.377 L 33.8461 125.575 L 33.8461 125.575 L 33.786 125.424 L 33.7575 125.346 L 33.4653 124.502 L 33.3526 124.206 L 33.0884 123.396 L 32.9754 123.101 L 32.7821 122.459 L 32.6294 121.988 L 32.4753 121.434 L 32.3002 120.805 L 32.2245 120.481 L 31.9446 119.559 L 31.9292 119.492 L 31.8438 119.299 L 31.4354 118.575 L 31.2532 118.256 L 30.9496 117.776 L 30.6258 117.25 L 30.5952 116.948 L 30.5233 116.039 L 30.5475 115.956 L 30.5528 115.929 L 30.5971 116.045" fill="none" stroke="#000080" stroke-width="0.05000" fill-rule="evenodd" fill-opacity="1.000"/>
    <path d="M 35.8412 120.847 L 35.8097 121.243 L 35.8395 120.786 L 35.8412 120.847" fill="none" stroke="#000080" stroke-width="0.05000" fill-rule="evenodd" fill-opacity="1.000"/>
    <path d="M 51.0894 110.517 L 51.2398 110.595 L 51.5876 111.44 L 52.0112 112.346 L 52.0279 112.392 L 52.0509 112.423 L 51.9972 112.458 L 51.2549 112.913 L 50.7481 112.801 L 49.9126 112.759 L 49.7741 112.734 L 49.6618 112.717 L 48.6727 112.65 L 48.4139 112.626 L 47.6339 112.599 L 47.2339 112.557 L 46.5579 112.506 L 46.1294 112.432 L 45.1985 112.28 L 45.1715 112.275 L 45.1519 112.271 L 44.3239 112.003 L 43.5162 111.638 L 43.4958 111.624 L 43.4743 111.61 L 43.1867 111.429 L 43.4821 111.573 L 43.7867 111.7 L 44.325 111.944 L 44.8478 112.113 L 45.1808 112.186 L 45.6412 112.264 L 46.1442 112.347 L 46.3757 112.386 L 46.5197 112.397 L 46.5706 112.406 L 47.2429 112.457 L 47.642 112.499 L 48.4201 112.526 L 48.6795 112.55 L 49.6726 112.618 L 49.7903 112.635 L 49.9238 112.66 L 50.7615 112.702 L 51.2369 112.807 L 51.9198 112.388 L 51.9187 112.385 L 51.7814 112.091 L 51.7894 112.085 L 51.4999 111.466 L 51.1902 110.713 L 51.0834 110.514 L 51.0894 110.517" fill="none" stroke="#000080" stroke-width="0.05000" fill-rule="evenodd" fill-opacity="1.000"/>
    <path d="M 42.2917 105.893 L 42.8159 106.301 L 43.2123 106.689 L 43.5206 106.976 L 43.6903 107.189 L 43.621 107.147 L 43.518 107.018 L 43.3868 106.896 L 42.7818 106.303 L 42.2183 105.864 L 42.2917 105.893" fill="none" stroke="#000080" stroke-width="0.05000" fill-rule="evenodd" fill-opacity="1.000"/>
    </g>
    <g class="thermal-contour" data-segment="5" data-name="HollowShell2Contour_Volume">
    <path d="M 33.5485 112.211 L 33.5636 112.216 L 34.0847 112.949 L 34.2995 113.249 L 34.5088 113.749 L 34.7923 114.399 L 34.8632 114.581 L 34.8632 114.581 L 34.928 114.747 L 35.1722 115.56 L 35.405 116.433 L 35.4299 116.528 L 35.4299 116.529 L 35.4505 116.612 L 35.5629 117.428 L 35.6509 117.992 L 35.6587 118.373 L 35.7332 119.048 L 35.7386 119.463 L 35.7694 119.973 L 35.7372 120.699 L 35.741 120.844 L 35.6765 121.659 L 35.6791 122.068 L 35.6484 122.679 L 35.6522 123.59 L 35.6481 123.651 L 35.6478 123.753 L 35.623 124.591 L 35.6425 125.024 L 35.5813 125.676 L 35.5403 126.231 L 35.1626 126.752 L 34.9206 126.875 L 34.5979 126.57 L 34.2432 126.313 L 33.9461 125.556 L 33.9461 125.556 L 33.8789 125.387 L 33.8514 125.312 L 33.5593 124.468 L 33.447 124.173 L 33.1827 123.362 L 33.0701 123.068 L 32.8775 122.429 L 32.7251 121.959 L 32.5716 121.407 L 32.3975 120.782 L 32.3211 120.455 L 32.0411 119.533 L 32.0245 119.461 L 31.9333 119.254 L 31.8784 119.156 L 31.5372 118.383 L 31.0753 117.653 L 30.7065 117.053 L 30.7063 117.053 L 30.6947 116.938 L 30.6244 116.049 L 30.6447 115.98 L 30.6815 115.794 L 30.8769 114.86 L 30.9613 114.456 L 31.2252 113.871 L 31.4358 113.175 L 31.5756 113.01 L 32.0776 112.362 L 32.2894 112.254 L 32.8188 112.003 L 33.5485 112.211" fill="none" stroke="#B8860B" stroke-width="0.05000" fill-rule="evenodd" fill-opacity="1.000"/>
    <path d="M 32.3344 112.343 L 32.143 112.441 L 31.6533 113.074 L 31.5254 113.224 L 31.319 113.906 L 31.057 114.486 L 30.9748 114.881 L 30.7794 115.815 L 30.7419 116.004 L 30.7255 116.06 L 30.7942 116.928 L 30.82 117.184 L 31.1186 117.669 L 31.4246 118.153 L 31.6094 118.476 L 32.0228 119.209 L 32.1198 119.429 L 32.1379 119.507 L 32.4177 120.429 L 32.4948 120.759 L 32.6679 121.38 L 32.8208 121.93 L 32.9729 122.399 L 33.1645 123.035 L 33.277 123.329 L 33.5414 124.14 L 33.6533 124.434 L 33.9453 125.277 L 33.9718 125.35 L 34.0461 125.537 L 34.0461 125.537 L 34.3255 126.249 L 34.6618 126.493 L 34.938 126.754 L 35.2298 126.606 L 35.4331 126.325 L 35.4816 125.668 L 35.5422 125.021 L 35.5229 124.591 L 35.5478 123.75 L 35.5481 123.648 L 35.5521 123.587 L 35.5484 122.677 L 35.579 122.066 L 35.5765 121.655 L 35.6408 120.842 L 35.6371 120.698 L 35.6692 119.973 L 35.6386 119.466 L 35.6332 119.054 L 35.5588 118.38 L 35.551 118.001 L 35.464 117.442 L 35.3521 116.631 L 35.3316 116.548 L 35.3084 116.459 L 35.0764 115.589 L 34.8334 114.78 L 34.7632 114.6 L 34.7632 114.599 L 34.7006 114.439 L 34.4168 113.789 L 34.2114 113.298 L 34.0033 113.007 L 33.5019 112.302 L 32.8275 112.109 L 32.3344 112.343" fill="none" stroke="#B8860B" stroke-width="0.05000" fill-rule="evenodd" fill-opacity="1.000"/>
    <path d="M 41.1224 105.656 L 41.7829 105.845 L 42.069 105.914 L 42.242 105.981 L 42.7498 106.376 L 43.1433 106.762 L 43.4467 107.044 L 43.6953 107.355 L 44.3345 107.741 L 44.5877 107.956 L 45.4069 108.378 L 45.5699 108.437 L 45.6395 108.46 L 46.584 108.885 L 46.6727 108.911 L 47.5537 109.227 L 47.7698 109.295 L 48.6873 109.632 L 48.9109 109.705 L 48.9109 109.705 L 49.7821 109.994 L 50.0285 110.229 L 50.7252 110.465 L 51.0469 110.607 L 51.1612 110.666 L 51.496 111.48 L 51.7814 112.091 L 51.7 112.153 L 51.4044 111.521 L 51.0826 110.738 L 51.0044 110.698 L 50.6885 110.558 L 49.9755 110.316 L 49.7292 110.082 L 48.8593 109.793 L 48.6546 109.727 L 47.7376 109.39 L 47.5219 109.322 L 46.6423 109.007 L 46.5492 108.979 L 45.6028 108.553 L 45.5371 108.531 L 45.3669 108.47 L 44.5317 108.039 L 44.2758 107.822 L 43.6283 107.432 L 43.3728 107.112 L 43.0743 106.834 L 42.6836 106.452 L 42.1921 106.069 L 42.0386 106.009 L 41.7574 105.942 L 41.0985 105.753 L 40.8291 105.691 L 40.2179 105.823 L 40.0067 105.86 L 39.5019 106.225 L 39.4485 106.268 L 39.4035 106.401 L 39.2024 106.971 L 39.2552 107.154 L 39.3576 107.671 L 39.7284 108.304 L 39.793 108.461 L 40.0812 108.807 L 40.3088 109.039 L 40.6084 109.331 L 40.939 109.637 L 41.0101 109.715 L 41.8507 110.344 L 41.9025 110.385 L 41.9732 110.436 L 42.7587 110.922 L 43.5819 111.442 L 43.6051 111.457 L 43.6133 111.462 L 44.3947 111.816 L 45.2046 112.077 L 45.2108 112.079 L 45.2313 112.082 L 46.1624 112.235 L 46.5833 112.307 L 47.2519 112.358 L 47.6501 112.399 L 48.4263 112.427 L 48.6862 112.45 L 48.6863 112.45 L 49.6834 112.518 L 49.7874 112.534 L 49.6785 112.553 L 48.6625 112.503 L 48.6051 112.508 L 48.2389 112.499 L 47.443 112.471 L 47.3361 112.46 L 46.5197 112.397 L 46.1459 112.333 L 45.2152 112.181 L 45.2153 112.181 L 45.1905 112.177 L 45.1784 112.174 L 44.3593 111.909 L 43.5648 111.55 L 43.5505 111.54 L 43.5281 111.526 L 42.7057 111.007 L 41.9164 110.518 L 41.8429 110.465 L 41.7897 110.423 L 40.9426 109.789 L 40.868 109.707 L 40.5406 109.405 L 40.239 109.111 L 40.007 108.874 L 39.7064 108.513 L 39.6386 108.349 L 39.2628 107.706 L 39.1579 107.178 L 39.0975 106.968 L 39.309 106.369 L 39.3631 106.209 L 39.4408 106.145 L 39.9666 105.766 L 40.1986 105.724 L 40.8298 105.589 L 41.1224 105.656" fill="none" stroke="#B8860B" stroke-width="0.05000" fill-rule="evenodd" fill-opacity="1.000"/>
    </g>
    <g class="thermal-contour" data-segment="6" data-name="HollowShell2Contour_Overhang">
    <path d="M 35.5308 126.361 L 35.2965 126.684 L 35.1626 126.752 L 35.5403 126.231 L 35.5308 126.361" fill="none" stroke="#006400" stroke-width="0.05000" fill-rule="evenodd" fill-opacity="1.000"/>
    <path d="M 30.7065 117.053 L 31.0753 117.653 L 31.5372 118.383 L 31.8784 119.156 L 31.5224 118.525 L 31.3389 118.204 L 31.0341 117.723 L 30.7229 117.217 L 30.7063 117.053 L 30.7065 117.053" fill="none" stroke="#006400" stroke-width="0.05000" fill-rule="evenodd" fill-opacity="1.000"/>
    <path d="M 51.9187 112.385 L 51.9198 112.388 L 51.2369 112.807 L 50.7615 112.702 L 49.9238 112.66 L 49.7903 112.635 L 49.6726 112.618 L 48.6795 112.55 L 48.4201 112.526 L 47.642 112.499 L 47.2429 112.457 L 46.5706 112.406 L 46.5197 112.397 L 47.3361 112.46 L 47.443 112.471 L 48.2389 112.499 L 48.6051 112.508 L 48.6625 112.503 L 49.6785 112.553 L 49.7874 112.534 L 49.8065 112.537 L 49.935 112.56 L 50.7749 112.602 L 51.2189 112.7 L 51.7916 112.349 L 51.7 112.153 L 51.7814 112.091 L 51.9187 112.385" fill="none" stroke="#006400" stroke-width="0.05000" fill-rule="evenodd" fill-opacity="1.000"/>
    </g>
    <g class="thermal-contour" data-segment="9" data-name="CoreContourHatch">
    <path d="M 33.4634 112.356 L 33.9519 113.043 L 33.952 113.043 L 34.1561 113.329 L 34.3587 113.813 L 34.6431 114.465 L 34.6984 114.607 L 34.7735 114.799 L 35.0154 115.605 L 35.2475 116.475 L 35.2707 116.564 L 35.2901 116.642 L 35.4016 117.451 L 35.4017 117.451 L 35.4881 118.006 L 35.4958 118.384 L 35.5702 119.058 L 35.5756 119.468 L 35.6061 119.973 L 35.574 120.699 L 35.5776 120.841 L 35.5135 121.653 L 35.5159 122.064 L 35.4854 122.676 L 35.489 123.585 L 35.4851 123.645 L 35.4848 123.748 L 35.4598 124.592 L 35.4791 125.019 L 35.4188 125.663 L 35.3715 126.303 L 35.1877 126.556 L 34.9489 126.677 L 34.7023 126.445 L 34.3774 126.209 L 34.1091 125.525 L 34.1091 125.524 L 34.0302 125.326 L 34.0044 125.256 L 33.7127 124.413 L 33.6011 124.12 L 33.3362 123.307 L 33.3362 123.307 L 33.2244 123.016 L 33.0329 122.38 L 33.0329 122.38 L 32.881 121.912 L 32.7286 121.363 L 32.5553 120.741 L 32.4784 120.412 L 32.4784 120.412 L 32.1989 119.492 L 32.1799 119.409 L 32.0792 119.18 L 31.6642 118.445 L 31.6642 118.445 L 31.4789 118.121 L 31.1799 117.648 L 31.1795 117.648 L 30.8812 117.163 L 30.8568 116.921 L 30.7892 116.066 L 30.803 116.019 L 30.8383 115.841 L 30.8382 115.841 L 31.0365 114.894 L 31.1173 114.506 L 31.3781 113.928 L 31.5818 113.255 L 31.7026 113.113 L 32.1842 112.491 L 32.3302 112.416 L 32.3292 112.415 L 32.8328 112.176 L 33.4634 112.356" fill="none" stroke="#800080" stroke-width="0.05000" fill-rule="evenodd" fill-opacity="1.000"/>
    <path d="M 32.3754 112.423 L 32.3755 112.423 L 32.2019 112.512 L 31.7232 113.13 L 31.606 113.268 L 31.4034 113.938 L 31.1431 114.514 L 31.0629 114.899 L 30.8676 115.832 L 30.8677 115.832 L 30.8294 116.025 L 30.8165 116.069 L 30.8837 116.919 L 30.9074 117.154 L 31.1946 117.621 L 31.1947 117.621 L 31.5017 118.106 L 31.6877 118.432 L 32.1034 119.168 L 32.2056 119.4 L 32.225 119.485 L 32.5047 120.406 L 32.5815 120.734 L 32.7546 121.356 L 32.9069 121.904 L 33.0588 122.373 L 33.25 123.007 L 33.3619 123.299 L 33.6266 124.111 L 33.7379 124.404 L 34.0298 125.246 L 34.0554 125.317 L 34.1361 125.519 L 34.1361 125.52 L 34.3996 126.192 L 34.7193 126.424 L 34.9536 126.645 L 35.1697 126.535 L 35.3451 126.293 L 35.3919 125.66 L 35.452 125.019 L 35.4328 124.592 L 35.4578 123.747 L 35.4581 123.645 L 35.462 123.584 L 35.4584 122.675 L 35.4889 122.063 L 35.4865 121.652 L 35.5506 120.84 L 35.547 120.697 L 35.5791 119.973 L 35.5486 119.47 L 35.5432 119.06 L 35.4689 118.386 L 35.4611 118.008 L 35.375 117.455 L 35.2635 116.647 L 35.2445 116.571 L 35.2214 116.482 L 34.9894 115.612 L 34.748 114.808 L 34.6732 114.616 L 34.6732 114.616 L 34.6181 114.476 L 34.334 113.824 L 34.1324 113.342 L 33.93 113.059 L 33.4469 112.38 L 32.8352 112.205 L 32.3754 112.423" fill="none" stroke="#800080" stroke-width="0.05000" fill-rule="evenodd" fill-opacity="1.000"/>
    <path d="M 41.0825 105.814 L 41.7411 106.003 L 42.0196 106.07 L 42.1608 106.124 L 42.6419 106.499 L 43.0306 106.879 L 43.3268 107.155 L 43.586 107.48 L 44.2389 107.873 L 44.4964 108.092 L 45.3419 108.528 L 45.5161 108.59 L 45.5162 108.59 L 45.5792 108.612 L 46.5272 109.039 L 46.6234 109.067 L 47.5013 109.382 L 47.7162 109.449 L 48.6334 109.786 L 48.6335 109.786 L 48.8579 109.859 L 48.8579 109.859 L 49.6958 110.137 L 49.942 110.371 L 50.6653 110.617 L 50.977 110.754 L 51.0331 110.784 L 51.3465 111.545 L 51.6487 112.192 L 51.6267 112.209 L 51.322 111.557 L 51.0119 110.803 L 50.9653 110.779 L 50.6555 110.642 L 49.9278 110.395 L 49.6816 110.161 L 48.8309 109.878 L 48.8309 109.878 L 48.6252 109.812 L 47.7075 109.474 L 47.4933 109.408 L 46.615 109.092 L 46.5179 109.064 L 45.5693 108.637 L 45.5076 108.616 L 45.3309 108.553 L 44.4813 108.115 L 44.2231 107.895 L 43.568 107.5 L 43.3069 107.173 L 43.0122 106.899 L 42.6241 106.519 L 42.1473 106.148 L 42.0115 106.095 L 41.7345 106.029 L 41.0758 105.84 L 40.8285 105.784 L 40.2353 105.911 L 40.0428 105.945 L 39.556 106.297 L 39.5255 106.321 L 39.4886 106.431 L 39.2968 106.974 L 39.3427 107.133 L 39.4429 107.638 L 39.8092 108.264 L 39.8709 108.414 L 40.1482 108.747 L 40.3716 108.975 L 40.6706 109.266 L 41.0029 109.573 L 41.0709 109.648 L 41.9056 110.273 L 41.9584 110.314 L 42.0228 110.361 L 42.8064 110.846 L 43.6303 111.366 L 43.6543 111.381 L 43.657 111.383 L 44.4274 111.732 L 45.2272 111.99 L 45.2293 111.991 L 45.2292 111.991 L 45.2458 111.993 L 46.1773 112.146 L 46.5946 112.217 L 47.26 112.268 L 47.6567 112.31 L 48.4319 112.337 L 48.6908 112.36 L 49.6931 112.429 L 49.8211 112.448 L 49.9454 112.47 L 50.7869 112.513 L 51.1019 112.582 L 51.0688 112.602 L 50.7833 112.539 L 49.9423 112.497 L 49.8163 112.475 L 49.8163 112.474 L 49.6897 112.456 L 48.6887 112.387 L 48.4304 112.364 L 47.6548 112.337 L 47.2572 112.295 L 47.2572 112.295 L 46.5913 112.244 L 46.1727 112.173 L 46.1727 112.172 L 45.2413 112.02 L 45.2002 112.013 L 45.2004 112.01 L 44.4177 111.757 L 43.6439 111.407 L 43.6393 111.404 L 43.6393 111.404 L 43.6157 111.388 L 43.6157 111.388 L 42.7922 110.869 L 42.7922 110.869 L 42.0078 110.383 L 41.9421 110.336 L 41.8894 110.294 L 41.0527 109.668 L 40.9829 109.591 L 40.652 109.286 L 40.3525 108.994 L 40.1281 108.765 L 39.8475 108.428 L 39.7847 108.276 L 39.4173 107.648 L 39.3162 107.138 L 39.2685 106.973 L 39.4631 106.422 L 39.5024 106.305 L 39.5396 106.275 L 40.032 105.92 L 40.2305 105.884 L 40.8287 105.756 L 41.0825 105.814" fill="none" stroke="#800080" stroke-width="0.05000" fill-rule="evenodd" fill-opacity="1.000"/>
    </g>
    <g class="thermal-contour" data-segment="20" data-name="CoreContourHatchOverhang">
    <path d="M 51.7107 112.325 L 51.2076 112.633 L 51.0688 112.602 L 51.1019 112.582 L 51.2028 112.604 L 51.676 112.314 L 51.6267 112.209 L 51.6487 112.192 L 51.7107 112.325" fill="none" stroke="#E64A19" stroke-width="0.05000" fill-rule="evenodd" fill-opacity="1.000"/>
    </g>
    <!-- ===== Thermal Segment Colour Legend ===== -->
    <g id="thermal-legend">
    <rect x="161.0000" y="5.0000" width="40.0000" height="72.0000"
          rx="1" ry="1"
          fill="#fafafa" stroke="#cccccc" stroke-width="0.15"/>
    <text x="181.0000" y="7.6000" font-family="sans-serif" font-size="2.2000" font-weight="bold" fill="#222222" text-anchor="middle">Thermal Segments</text>
    <line x1="161.5000" y1="8.7000" x2="200.5000" y2="8.7000" stroke="#bbbbbb" stroke-width="0.1"/>
    <rect x="161.8000" y="9.0000" width="3.5000" height="2.0000" fill="#000000" stroke="#333333" stroke-width="0.08" rx="0.3" ry="0.3"/>
    <text x="168.6000" y="10.9000" font-family="monospace" font-size="1.6000" fill="#444444" text-anchor="end"> 1</text>
    <text x="169.6000" y="10.9000" font-family="sans-serif" font-size="1.6000" fill="#111111">CoreContour_Volume</text>
    <rect x="161.8000" y="12.0000" width="3.5000" height="2.0000" fill="#8B0000" stroke="#333333" stroke-width="0.08" rx="0.3" ry="0.3"/>
    <text x="168.6000" y="13.9000" font-family="monospace" font-size="1.6000" fill="#444444" text-anchor="end"> 2</text>
    <text x="169.6000" y="13.9000" font-family="sans-serif" font-size="1.6000" fill="#111111">CoreContour_Overhang</text>
    <rect x="161.8000" y="15.0000" width="3.5000" height="2.0000" fill="#0000CC" stroke="#333333" stroke-width="0.08" rx="0.3" ry="0.3"/>
    <text x="168.6000" y="16.9000" font-family="monospace" font-size="1.6000" fill="#444444" text-anchor="end"> 3</text>
    <text x="169.6000" y="16.9000" font-family="sans-serif" font-size="1.6000" fill="#111111">Shell1Contour_Volume</text>
    <rect x="161.8000" y="18.0000" width="3.5000" height="2.0000" fill="#000080" stroke="#333333" stroke-width="0.08" rx="0.3" ry="0.3"/>
    <text x="168.6000" y="19.9000" font-family="monospace" font-size="1.6000" fill="#444444" text-anchor="end"> 4</text>
    <text x="169.6000" y="19.9000" font-family="sans-serif" font-size="1.6000" fill="#111111">Shell1Contour_Overhang</text>
    <rect x="161.8000" y="21.0000" width="3.5000" height="2.0000" fill="#B8860B" stroke="#333333" stroke-width="0.08" rx="0.3" ry="0.3"/>
    <text x="168.6000" y="22.9000" font-family="monospace" font-size="1.6000" fill="#444444" text-anchor="end"> 5</text>
    <text x="169.6000" y="22.9000" font-family="sans-serif" font-size="1.6000" fill="#111111">Shell2Contour_Volume</text>
    <rect x="161.8000" y="24.0000" width="3.5000" height="2.0000" fill="#006400" stroke="#333333" stroke-width="0.08" rx="0.3" ry="0.3"/>
    <text x="168.6000" y="25.9000" font-family="monospace" font-size="1.6000" fill="#444444" text-anchor="end"> 6</text>
    <text x="169.6000" y="25.9000" font-family="sans-serif" font-size="1.6000" fill="#111111">Shell2Contour_Overhang</text>
    <rect x="161.8000" y="27.0000" width="3.5000" height="2.0000" fill="#FF8C00" stroke="#333333" stroke-width="0.08" rx="0.3" ry="0.3"/>
    <text x="168.6000" y="28.9000" font-family="monospace" font-size="1.6000" fill="#444444" text-anchor="end"> 7</text>
    <text x="169.6000" y="28.9000" font-family="sans-serif" font-size="1.6000" fill="#111111">CoreOverhangHatch</text>
    <rect x="161.8000" y="30.0000" width="3.5000" height="2.0000" fill="#228B22" stroke="#333333" stroke-width="0.08" rx="0.3" ry="0.3"/>
    <text x="168.6000" y="31.9000" font-family="monospace" font-size="1.6000" fill="#444444" text-anchor="end"> 8</text>
    <text x="169.6000" y="31.9000" font-family="sans-serif" font-size="1.6000" fill="#111111">CoreNormalHatch</text>
    <rect x="161.8000" y="33.0000" width="3.5000" height="2.0000" fill="#800080" stroke="#333333" stroke-width="0.08" rx="0.3" ry="0.3"/>
    <text x="168.6000" y="34.9000" font-family="monospace" font-size="1.6000" fill="#444444" text-anchor="end"> 9</text>
    <text x="169.6000" y="34.9000" font-family="sans-serif" font-size="1.6000" fill="#111111">CoreContourHatch</text>
    <rect x="161.8000" y="36.0000" width="3.5000" height="2.0000" fill="#FF69B4" stroke="#333333" stroke-width="0.08" rx="0.3" ry="0.3"/>
    <text x="168.6000" y="37.9000" font-family="monospace" font-size="1.6000" fill="#444444" text-anchor="end">10</text>
    <text x="169.6000" y="37.9000" font-family="sans-serif" font-size="1.6000" fill="#111111">Shell1OverhangHatch</text>
    <rect x="161.8000" y="39.0000" width="3.5000" height="2.0000" fill="#00CED1" stroke="#333333" stroke-width="0.08" rx="0.3" ry="0.3"/>
    <text x="168.6000" y="40.9000" font-family="monospace" font-size="1.6000" fill="#444444" text-anchor="end">11</text>
    <text x="169.6000" y="40.9000" font-family="sans-serif" font-size="1.6000" fill="#111111">Shell1NormalHatch</text>
    <rect x="161.8000" y="42.0000" width="3.5000" height="2.0000" fill="#FF00FF" stroke="#333333" stroke-width="0.08" rx="0.3" ry="0.3"/>
    <text x="168.6000" y="43.9000" font-family="monospace" font-size="1.6000" fill="#444444" text-anchor="end">12</text>
    <text x="169.6000" y="43.9000" font-family="sans-serif" font-size="1.6000" fill="#111111">Shell1ContourHatch</text>
    <rect x="161.8000" y="45.0000" width="3.5000" height="2.0000" fill="#A52A2A" stroke="#333333" stroke-width="0.08" rx="0.3" ry="0.3"/>
    <text x="168.6000" y="46.9000" font-family="monospace" font-size="1.6000" fill="#444444" text-anchor="end">13</text>
    <text x="169.6000" y="46.9000" font-family="sans-serif" font-size="1.6000" fill="#111111">Shell2OverhangHatch</text>
    <rect x="161.8000" y="48.0000" width="3.5000" height="2.0000" fill="#808080" stroke="#333333" stroke-width="0.08" rx="0.3" ry="0.3"/>
    <text x="168.6000" y="49.9000" font-family="monospace" font-size="1.6000" fill="#444444" text-anchor="end">14</text>
    <text x="169.6000" y="49.9000" font-family="sans-serif" font-size="1.6000" fill="#111111">Shell2NormalHatch</text>
    <rect x="161.8000" y="51.0000" width="3.5000" height="2.0000" fill="#32CD32" stroke="#333333" stroke-width="0.08" rx="0.3" ry="0.3"/>
    <text x="168.6000" y="52.9000" font-family="monospace" font-size="1.6000" fill="#444444" text-anchor="end">15</text>
    <text x="169.6000" y="52.9000" font-family="sans-serif" font-size="1.6000" fill="#111111">Shell2ContourHatch</text>
    <rect x="161.8000" y="54.0000" width="3.5000" height="2.0000" fill="#1A237E" stroke="#333333" stroke-width="0.08" rx="0.3" ry="0.3"/>
    <text x="168.6000" y="55.9000" font-family="monospace" font-size="1.6000" fill="#444444" text-anchor="end">16</text>
    <text x="169.6000" y="55.9000" font-family="sans-serif" font-size="1.6000" fill="#111111">SupportContourVolume</text>
    <rect x="161.8000" y="57.0000" width="3.5000" height="2.0000" fill="#827717" stroke="#333333" stroke-width="0.08" rx="0.3" ry="0.3"/>
    <text x="168.6000" y="58.9000" font-family="monospace" font-size="1.6000" fill="#444444" text-anchor="end">17</text>
    <text x="169.6000" y="58.9000" font-family="sans-serif" font-size="1.6000" fill="#111111">SupportHatch</text>
    <rect x="161.8000" y="60.0000" width="3.5000" height="2.0000" fill="#006064" stroke="#333333" stroke-width="0.08" rx="0.3" ry="0.3"/>
    <text x="168.6000" y="61.9000" font-family="monospace" font-size="1.6000" fill="#444444" text-anchor="end">18</text>
    <text x="169.6000" y="61.9000" font-family="sans-serif" font-size="1.6000" fill="#111111">PointSequence</text>
    <rect x="161.8000" y="63.0000" width="3.5000" height="2.0000" fill="#B71C1C" stroke="#333333" stroke-width="0.08" rx="0.3" ry="0.3"/>
    <text x="168.6000" y="64.9000" font-family="monospace" font-size="1.6000" fill="#444444" text-anchor="end">19</text>
    <text x="169.6000" y="64.9000" font-family="sans-serif" font-size="1.6000" fill="#111111">ExternalSupports</text>
    <rect x="161.8000" y="66.0000" width="3.5000" height="2.0000" fill="#E64A19" stroke="#333333" stroke-width="0.08" rx="0.3" ry="0.3"/>
    <text x="168.6000" y="67.9000" font-family="monospace" font-size="1.6000" fill="#444444" text-anchor="end">20</text>
    <text x="169.6000" y="67.9000" font-family="sans-serif" font-size="1.6000" fill="#111111">CoreContourHatchOverhang</text>
    <rect x="161.8000" y="69.0000" width="3.5000" height="2.0000" fill="#311B92" stroke="#333333" stroke-width="0.08" rx="0.3" ry="0.3"/>
    <text x="168.6000" y="70.9000" font-family="monospace" font-size="1.6000" fill="#444444" text-anchor="end">21</text>
    <text x="169.6000" y="70.9000" font-family="sans-serif" font-size="1.6000" fill="#111111">Shell1ContourHatchOverhang</text>
    <rect x="161.8000" y="72.0000" width="3.5000" height="2.0000" fill="#880E4F" stroke="#333333" stroke-width="0.08" rx="0.3" ry="0.3"/>
    <text x="168.6000" y="73.9000" font-family="monospace" font-size="1.6000" fill="#444444" text-anchor="end">22</text>
    <text x="169.6000" y="73.9000" font-family="sans-serif" font-size="1.6000" fill="#111111">Shell2ContourHatchOverhang</text>
    </g>
  </g>
</svg>
