<?xml version="1.0" encoding="UTF-8" standalone="yes"?>
<svg xmlns="http://www.w3.org/2000/svg"
     xmlns:xlink="http://www.w3.org/1999/xlink"
     width="2020.0000mm" height="1600.0000mm"
     viewBox="0 0 202.000000 160.000000">
  <!--
    Build plate : 150.00 x 150.00 mm
    Coordinate  : 1 SVG unit = 1 mm
    Display zoom: 10x  (width/height = viewBox x 10)
    Hatch stroke: 0.04 mm = ~28 mm on screen at this zoom
    Legend panel: right margin (42 mm wide)
  -->
  <defs>
    <marker id="endArrow" markerWidth="2" markerHeight="1.4"
            refX="0" refY="0.7" orient="auto"
            markerUnits="strokeWidth">
      <polyline fill="darkblue" points="0,0 2,0.7 0,1.4 0.2,0.7"/>
    </marker>
  </defs>
  <!-- Background -->
  <rect x="0" y="0" width="202.000000" height="160.000000" fill="#f0f0f0" stroke="none"/>
  <!-- Build plate boundary (150 x 150 mm) -->
  <rect x="5.000000" y="5.000000" width="150.000000" height="150.000000"
        fill="#ffffff" stroke="#aaaaaa" stroke-width="0.2" stroke-dasharray="1,0.5"/>
  <!-- Build plate centre circle (r = 75.00 mm) -->
  <circle cx="80.000000" cy="80.000000" r="75.000000"
          fill="none" stroke="#bbbbbb" stroke-width="0.15" stroke-dasharray="0.8,0.4"/>
  <!-- Centre cross-hair -->
  <line x1="5.000000" y1="80.000000" x2="155.000000" y2="80.000000" stroke="#cccccc" stroke-width="0.1"/>
  <line x1="80.000000" y1="5.000000" x2="80.000000" y2="155.000000" stroke="#cccccc" stroke-width="0.1"/>
  <circle cx="80.000000" cy="80.000000" r="0.3" fill="#cccccc" stroke="none"/>
  <!-- Corner labels -->
  <text x="5.400000" y="4.600000" font-family="sans-serif" font-size="2" fill="#888888">0,0</text>
  <text x="154.600006" y="4.600000" font-family="sans-serif" font-size="2" fill="#888888" text-anchor="end">150,0</text>
  <text x="5.400000" y="157.199997" font-family="sans-serif" font-size="2" fill="#888888">0,150</text>
  <!-- Layer geometry -->
  <g id="geometry">
    <g class="thermal-hatch" data-segment="8" data-name="CoreNormalHatch">
      <line x1="35.06782" y1="127.77829" x2="35.20617" y2="127.77829" stroke="#228B22" stroke-width="0.04000"/>
      <line x1="34.94823" y1="127.67829" x2="35.64600" y2="127.67829" stroke="#228B22" stroke-width="0.04000"/>
      <line x1="34.83617" y1="127.57829" x2="36.12998" y2="127.57829" stroke="#228B22" stroke-width="0.04000"/>
      <line x1="34.73000" y1="127.47829" x2="36.12568" y2="127.47829" stroke="#228B22" stroke-width="0.04000"/>
      <line x1="34.62383" y1="127.37829" x2="36.12138" y2="127.37829" stroke="#228B22" stroke-width="0.04000"/>
      <line x1="34.51767" y1="127.27829" x2="36.11708" y2="127.27829" stroke="#228B22" stroke-width="0.04000"/>
      <line x1="34.41151" y1="127.17829" x2="36.11278" y2="127.17829" stroke="#228B22" stroke-width="0.04000"/>
      <line x1="34.32708" y1="127.07829" x2="36.10847" y2="127.07829" stroke="#228B22" stroke-width="0.04000"/>
      <line x1="34.26931" y1="126.97829" x2="36.10417" y2="126.97829" stroke="#228B22" stroke-width="0.04000"/>
      <line x1="34.21155" y1="126.87829" x2="36.09298" y2="126.87829" stroke="#228B22" stroke-width="0.04000"/>
      <line x1="34.15379" y1="126.77829" x2="36.06872" y2="126.77829" stroke="#228B22" stroke-width="0.04000"/>
      <line x1="34.09603" y1="126.67829" x2="36.04446" y2="126.67829" stroke="#228B22" stroke-width="0.04000"/>
      <line x1="34.03826" y1="126.57829" x2="36.02020" y2="126.57829" stroke="#228B22" stroke-width="0.04000"/>
      <line x1="33.98050" y1="126.47829" x2="35.99626" y2="126.47829" stroke="#228B22" stroke-width="0.04000"/>
      <line x1="33.92274" y1="126.37829" x2="35.97464" y2="126.37829" stroke="#228B22" stroke-width="0.04000"/>
      <line x1="33.86520" y1="126.27829" x2="35.95302" y2="126.27829" stroke="#228B22" stroke-width="0.04000"/>
      <line x1="33.80762" y1="126.17829" x2="35.93140" y2="126.17829" stroke="#228B22" stroke-width="0.04000"/>
      <line x1="33.73875" y1="126.07829" x2="35.90978" y2="126.07829" stroke="#228B22" stroke-width="0.04000"/>
      <line x1="33.66988" y1="125.97829" x2="35.88816" y2="125.97829" stroke="#228B22" stroke-width="0.04000"/>
      <line x1="33.60101" y1="125.87829" x2="35.86654" y2="125.87829" stroke="#228B22" stroke-width="0.04000"/>
      <line x1="33.53214" y1="125.77829" x2="35.84415" y2="125.77829" stroke="#228B22" stroke-width="0.04000"/>
      <line x1="33.46326" y1="125.67829" x2="35.82104" y2="125.67829" stroke="#228B22" stroke-width="0.04000"/>
      <line x1="33.39439" y1="125.57829" x2="35.79793" y2="125.57829" stroke="#228B22" stroke-width="0.04000"/>
      <line x1="33.32552" y1="125.47829" x2="35.77481" y2="125.47829" stroke="#228B22" stroke-width="0.04000"/>
      <line x1="33.25187" y1="125.37829" x2="35.75053" y2="125.37829" stroke="#228B22" stroke-width="0.04000"/>
      <line x1="33.16789" y1="125.27829" x2="35.72550" y2="125.27829" stroke="#228B22" stroke-width="0.04000"/>
      <line x1="33.08392" y1="125.17829" x2="35.69586" y2="125.17829" stroke="#228B22" stroke-width="0.04000"/>
      <line x1="32.99994" y1="125.07829" x2="35.65498" y2="125.07829" stroke="#228B22" stroke-width="0.04000"/>
      <line x1="32.92593" y1="124.97829" x2="35.61411" y2="124.97829" stroke="#228B22" stroke-width="0.04000"/>
      <line x1="32.85640" y1="124.87829" x2="35.57324" y2="124.87829" stroke="#228B22" stroke-width="0.04000"/>
      <line x1="32.78687" y1="124.77829" x2="35.53236" y2="124.77829" stroke="#228B22" stroke-width="0.04000"/>
      <line x1="32.71734" y1="124.67829" x2="35.49149" y2="124.67829" stroke="#228B22" stroke-width="0.04000"/>
      <line x1="32.64780" y1="124.57829" x2="35.45062" y2="124.57829" stroke="#228B22" stroke-width="0.04000"/>
      <line x1="32.57827" y1="124.47829" x2="35.40974" y2="124.47829" stroke="#228B22" stroke-width="0.04000"/>
      <line x1="32.48100" y1="124.37829" x2="35.37578" y2="124.37829" stroke="#228B22" stroke-width="0.04000"/>
      <line x1="32.38316" y1="124.27829" x2="35.34613" y2="124.27829" stroke="#228B22" stroke-width="0.04000"/>
      <line x1="32.28532" y1="124.17829" x2="35.31648" y2="124.17829" stroke="#228B22" stroke-width="0.04000"/>
      <line x1="32.19807" y1="124.07829" x2="35.28683" y2="124.07829" stroke="#228B22" stroke-width="0.04000"/>
      <line x1="32.11504" y1="123.97829" x2="35.25718" y2="123.97829" stroke="#228B22" stroke-width="0.04000"/>
      <line x1="32.03202" y1="123.87829" x2="35.22752" y2="123.87829" stroke="#228B22" stroke-width="0.04000"/>
      <line x1="31.94900" y1="123.77829" x2="35.19787" y2="123.77829" stroke="#228B22" stroke-width="0.04000"/>
      <line x1="31.85113" y1="123.67829" x2="35.15770" y2="123.67829" stroke="#228B22" stroke-width="0.04000"/>
      <line x1="31.74792" y1="123.57829" x2="35.10938" y2="123.57829" stroke="#228B22" stroke-width="0.04000"/>
      <line x1="31.64469" y1="123.47829" x2="35.06107" y2="123.47829" stroke="#228B22" stroke-width="0.04000"/>
      <line x1="31.54148" y1="123.37829" x2="35.01595" y2="123.37829" stroke="#228B22" stroke-width="0.04000"/>
      <line x1="31.43826" y1="123.27829" x2="34.97203" y2="123.27829" stroke="#228B22" stroke-width="0.04000"/>
      <line x1="31.33504" y1="123.17829" x2="34.92811" y2="123.17829" stroke="#228B22" stroke-width="0.04000"/>
      <line x1="31.22571" y1="123.07829" x2="34.88419" y2="123.07829" stroke="#228B22" stroke-width="0.04000"/>
      <line x1="31.15723" y1="122.97829" x2="34.84027" y2="122.97829" stroke="#228B22" stroke-width="0.04000"/>
      <line x1="31.07683" y1="122.87829" x2="34.79636" y2="122.87829" stroke="#228B22" stroke-width="0.04000"/>
      <line x1="30.99638" y1="122.77829" x2="34.75244" y2="122.77829" stroke="#228B22" stroke-width="0.04000"/>
      <line x1="30.91593" y1="122.67829" x2="34.70852" y2="122.67829" stroke="#228B22" stroke-width="0.04000"/>
      <line x1="30.83547" y1="122.57829" x2="34.66442" y2="122.57829" stroke="#228B22" stroke-width="0.04000"/>
      <line x1="30.75502" y1="122.47829" x2="34.62355" y2="122.47829" stroke="#228B22" stroke-width="0.04000"/>
      <line x1="30.67456" y1="122.37829" x2="34.56903" y2="122.37829" stroke="#228B22" stroke-width="0.04000"/>
      <line x1="30.60574" y1="122.27829" x2="34.51363" y2="122.27829" stroke="#228B22" stroke-width="0.04000"/>
      <line x1="30.59946" y1="122.17829" x2="34.45824" y2="122.17829" stroke="#228B22" stroke-width="0.04000"/>
      <line x1="30.59319" y1="122.07829" x2="34.40285" y2="122.07829" stroke="#228B22" stroke-width="0.04000"/>
      <line x1="30.58692" y1="121.97829" x2="34.34745" y2="121.97829" stroke="#228B22" stroke-width="0.04000"/>
      <line x1="30.58064" y1="121.87829" x2="34.29205" y2="121.87829" stroke="#228B22" stroke-width="0.04000"/>
      <line x1="30.57437" y1="121.77829" x2="34.23666" y2="121.77829" stroke="#228B22" stroke-width="0.04000"/>
      <line x1="30.56810" y1="121.67829" x2="34.18126" y2="121.67829" stroke="#228B22" stroke-width="0.04000"/>
      <line x1="30.56182" y1="121.57829" x2="34.12587" y2="121.57829" stroke="#228B22" stroke-width="0.04000"/>
      <line x1="30.55555" y1="121.47829" x2="34.07851" y2="121.47829" stroke="#228B22" stroke-width="0.04000"/>
      <line x1="30.53847" y1="121.37829" x2="34.02781" y2="121.37829" stroke="#228B22" stroke-width="0.04000"/>
      <line x1="30.50451" y1="121.27829" x2="33.97539" y2="121.27829" stroke="#228B22" stroke-width="0.04000"/>
      <line x1="30.52184" y1="121.17829" x2="33.92297" y2="121.17829" stroke="#228B22" stroke-width="0.04000"/>
      <line x1="30.54135" y1="121.07829" x2="33.87056" y2="121.07829" stroke="#228B22" stroke-width="0.04000"/>
      <line x1="30.59234" y1="120.97829" x2="33.81814" y2="120.97829" stroke="#228B22" stroke-width="0.04000"/>
      <line x1="30.65356" y1="120.87829" x2="33.76572" y2="120.87829" stroke="#228B22" stroke-width="0.04000"/>
      <line x1="30.71478" y1="120.77829" x2="33.71330" y2="120.77829" stroke="#228B22" stroke-width="0.04000"/>
      <line x1="30.77600" y1="120.67829" x2="33.65899" y2="120.67829" stroke="#228B22" stroke-width="0.04000"/>
      <line x1="30.83722" y1="120.57829" x2="33.59745" y2="120.57829" stroke="#228B22" stroke-width="0.04000"/>
      <line x1="30.89844" y1="120.47829" x2="33.53590" y2="120.47829" stroke="#228B22" stroke-width="0.04000"/>
      <line x1="30.96236" y1="120.37829" x2="33.47437" y2="120.37829" stroke="#228B22" stroke-width="0.04000"/>
      <line x1="31.04128" y1="120.27829" x2="33.41282" y2="120.27829" stroke="#228B22" stroke-width="0.04000"/>
      <line x1="31.12020" y1="120.17829" x2="33.35128" y2="120.17829" stroke="#228B22" stroke-width="0.04000"/>
      <line x1="31.19913" y1="120.07829" x2="33.29028" y2="120.07829" stroke="#228B22" stroke-width="0.04000"/>
      <line x1="31.27805" y1="119.97829" x2="33.24555" y2="119.97829" stroke="#228B22" stroke-width="0.04000"/>
      <line x1="31.35698" y1="119.87829" x2="33.20083" y2="119.87829" stroke="#228B22" stroke-width="0.04000"/>
      <line x1="31.43044" y1="119.77829" x2="33.10896" y2="119.77829" stroke="#228B22" stroke-width="0.04000"/>
      <line x1="31.49254" y1="119.67829" x2="32.98436" y2="119.67829" stroke="#228B22" stroke-width="0.04000"/>
      <line x1="31.62613" y1="119.57829" x2="32.85975" y2="119.57829" stroke="#228B22" stroke-width="0.04000"/>
      <line x1="31.78695" y1="119.47829" x2="32.73513" y2="119.47829" stroke="#228B22" stroke-width="0.04000"/>
      <line x1="31.94776" y1="119.37829" x2="32.61052" y2="119.37829" stroke="#228B22" stroke-width="0.04000"/>
      <line x1="32.10857" y1="119.27829" x2="32.48591" y2="119.27829" stroke="#228B22" stroke-width="0.04000"/>
      <line x1="32.27261" y1="119.17829" x2="32.35847" y2="119.17829" stroke="#228B22" stroke-width="0.04000"/>
    </g>
    <g class="thermal-hatch" data-segment="8" data-name="CoreNormalHatch">
      <line x1="52.94546" y1="116.41624" x2="53.07824" y2="116.41624" stroke="#228B22" stroke-width="0.04000"/>
      <line x1="52.73826" y1="116.31624" x2="53.09550" y2="116.31624" stroke="#228B22" stroke-width="0.04000"/>
      <line x1="52.53106" y1="116.21624" x2="53.10333" y2="116.21624" stroke="#228B22" stroke-width="0.04000"/>
      <line x1="52.32385" y1="116.11623" x2="53.12654" y2="116.11623" stroke="#228B22" stroke-width="0.04000"/>
      <line x1="52.13321" y1="116.01624" x2="53.14975" y2="116.01624" stroke="#228B22" stroke-width="0.04000"/>
      <line x1="51.95780" y1="115.91624" x2="53.17295" y2="115.91624" stroke="#228B22" stroke-width="0.04000"/>
      <line x1="51.78239" y1="115.81624" x2="53.19616" y2="115.81624" stroke="#228B22" stroke-width="0.04000"/>
      <line x1="51.59257" y1="115.71624" x2="53.21937" y2="115.71624" stroke="#228B22" stroke-width="0.04000"/>
      <line x1="51.39954" y1="115.61623" x2="53.24258" y2="115.61623" stroke="#228B22" stroke-width="0.04000"/>
      <line x1="51.21022" y1="115.51624" x2="53.26579" y2="115.51624" stroke="#228B22" stroke-width="0.04000"/>
      <line x1="51.03680" y1="115.41624" x2="53.28899" y2="115.41624" stroke="#228B22" stroke-width="0.04000"/>
      <line x1="50.86339" y1="115.31624" x2="53.31220" y2="115.31624" stroke="#228B22" stroke-width="0.04000"/>
      <line x1="50.68840" y1="115.21624" x2="53.32130" y2="115.21624" stroke="#228B22" stroke-width="0.04000"/>
      <line x1="50.49021" y1="115.11623" x2="53.25160" y2="115.11623" stroke="#228B22" stroke-width="0.04000"/>
      <line x1="50.29203" y1="115.01624" x2="53.18191" y2="115.01624" stroke="#228B22" stroke-width="0.04000"/>
      <line x1="50.09329" y1="114.91624" x2="53.11222" y2="114.91624" stroke="#228B22" stroke-width="0.04000"/>
      <line x1="49.89422" y1="114.81624" x2="53.04253" y2="114.81624" stroke="#228B22" stroke-width="0.04000"/>
      <line x1="49.69514" y1="114.71624" x2="52.97284" y2="114.71624" stroke="#228B22" stroke-width="0.04000"/>
      <line x1="49.48070" y1="114.61623" x2="52.90314" y2="114.61623" stroke="#228B22" stroke-width="0.04000"/>
      <line x1="49.22432" y1="114.51624" x2="52.84153" y2="114.51624" stroke="#228B22" stroke-width="0.04000"/>
      <line x1="48.98307" y1="114.41624" x2="52.76678" y2="114.41624" stroke="#228B22" stroke-width="0.04000"/>
      <line x1="48.76132" y1="114.31624" x2="52.65170" y2="114.31624" stroke="#228B22" stroke-width="0.04000"/>
      <line x1="48.55503" y1="114.21624" x2="52.53220" y2="114.21624" stroke="#228B22" stroke-width="0.04000"/>
      <line x1="48.34924" y1="114.11623" x2="52.41270" y2="114.11623" stroke="#228B22" stroke-width="0.04000"/>
      <line x1="48.17680" y1="114.01624" x2="52.29322" y2="114.01624" stroke="#228B22" stroke-width="0.04000"/>
      <line x1="47.98209" y1="113.91624" x2="52.17373" y2="113.91624" stroke="#228B22" stroke-width="0.04000"/>
      <line x1="47.77894" y1="113.81624" x2="52.05424" y2="113.81624" stroke="#228B22" stroke-width="0.04000"/>
      <line x1="47.57579" y1="113.71624" x2="51.89469" y2="113.71624" stroke="#228B22" stroke-width="0.04000"/>
      <line x1="47.37262" y1="113.61623" x2="51.72816" y2="113.61623" stroke="#228B22" stroke-width="0.04000"/>
      <line x1="47.16948" y1="113.51624" x2="51.57005" y2="113.51624" stroke="#228B22" stroke-width="0.04000"/>
      <line x1="46.99463" y1="113.41624" x2="51.41764" y2="113.41624" stroke="#228B22" stroke-width="0.04000"/>
      <line x1="46.82182" y1="113.31624" x2="51.26524" y2="113.31624" stroke="#228B22" stroke-width="0.04000"/>
      <line x1="46.64946" y1="113.21624" x2="51.09797" y2="113.21624" stroke="#228B22" stroke-width="0.04000"/>
      <line x1="46.47744" y1="113.11623" x2="50.91888" y2="113.11623" stroke="#228B22" stroke-width="0.04000"/>
      <line x1="46.30545" y1="113.01624" x2="50.73981" y2="113.01624" stroke="#228B22" stroke-width="0.04000"/>
      <line x1="46.13345" y1="112.91624" x2="50.56073" y2="112.91624" stroke="#228B22" stroke-width="0.04000"/>
      <line x1="45.96145" y1="112.81624" x2="50.40261" y2="112.81624" stroke="#228B22" stroke-width="0.04000"/>
      <line x1="45.79517" y1="112.71624" x2="50.25584" y2="112.71624" stroke="#228B22" stroke-width="0.04000"/>
      <line x1="45.66448" y1="112.61623" x2="50.11338" y2="112.61623" stroke="#228B22" stroke-width="0.04000"/>
      <line x1="45.53379" y1="112.51624" x2="49.97092" y2="112.51624" stroke="#228B22" stroke-width="0.04000"/>
      <line x1="45.40311" y1="112.41624" x2="49.82847" y2="112.41624" stroke="#228B22" stroke-width="0.04000"/>
      <line x1="45.27243" y1="112.31624" x2="49.68485" y2="112.31624" stroke="#228B22" stroke-width="0.04000"/>
      <line x1="45.14174" y1="112.21624" x2="49.50549" y2="112.21624" stroke="#228B22" stroke-width="0.04000"/>
      <line x1="45.01420" y1="112.11623" x2="49.32610" y2="112.11623" stroke="#228B22" stroke-width="0.04000"/>
      <line x1="44.89317" y1="112.01624" x2="49.18939" y2="112.01624" stroke="#228B22" stroke-width="0.04000"/>
      <line x1="44.77214" y1="111.91624" x2="49.05556" y2="111.91624" stroke="#228B22" stroke-width="0.04000"/>
      <line x1="44.65112" y1="111.81624" x2="48.91857" y2="111.81624" stroke="#228B22" stroke-width="0.04000"/>
      <line x1="44.53009" y1="111.71624" x2="48.77092" y2="111.71624" stroke="#228B22" stroke-width="0.04000"/>
      <line x1="44.40905" y1="111.61623" x2="48.62327" y2="111.61623" stroke="#228B22" stroke-width="0.04000"/>
      <line x1="44.29761" y1="111.51624" x2="48.47859" y2="111.51624" stroke="#228B22" stroke-width="0.04000"/>
      <line x1="44.20257" y1="111.41624" x2="48.33700" y2="111.41624" stroke="#228B22" stroke-width="0.04000"/>
      <line x1="44.10754" y1="111.31624" x2="48.18554" y2="111.31624" stroke="#228B22" stroke-width="0.04000"/>
      <line x1="44.01250" y1="111.21624" x2="48.05549" y2="111.21624" stroke="#228B22" stroke-width="0.04000"/>
      <line x1="43.91745" y1="111.11623" x2="47.95516" y2="111.11623" stroke="#228B22" stroke-width="0.04000"/>
      <line x1="43.82242" y1="111.01624" x2="47.85484" y2="111.01624" stroke="#228B22" stroke-width="0.04000"/>
      <line x1="43.72738" y1="110.91624" x2="47.75452" y2="110.91624" stroke="#228B22" stroke-width="0.04000"/>
      <line x1="43.63302" y1="110.81624" x2="47.65420" y2="110.81624" stroke="#228B22" stroke-width="0.04000"/>
      <line x1="43.53902" y1="110.71624" x2="47.54197" y2="110.71624" stroke="#228B22" stroke-width="0.04000"/>
      <line x1="43.44501" y1="110.61623" x2="47.42799" y2="110.61623" stroke="#228B22" stroke-width="0.04000"/>
      <line x1="43.35100" y1="110.51624" x2="47.31403" y2="110.51624" stroke="#228B22" stroke-width="0.04000"/>
      <line x1="43.27599" y1="110.41624" x2="47.20006" y2="110.41624" stroke="#228B22" stroke-width="0.04000"/>
      <line x1="43.22137" y1="110.31624" x2="47.10801" y2="110.31624" stroke="#228B22" stroke-width="0.04000"/>
      <line x1="43.16675" y1="110.21624" x2="47.02830" y2="110.21624" stroke="#228B22" stroke-width="0.04000"/>
      <line x1="43.11212" y1="110.11623" x2="46.94662" y2="110.11623" stroke="#228B22" stroke-width="0.04000"/>
      <line x1="43.06369" y1="110.01624" x2="46.86495" y2="110.01624" stroke="#228B22" stroke-width="0.04000"/>
      <line x1="43.01601" y1="109.91624" x2="46.78327" y2="109.91624" stroke="#228B22" stroke-width="0.04000"/>
      <line x1="42.96835" y1="109.81624" x2="46.70160" y2="109.81624" stroke="#228B22" stroke-width="0.04000"/>
      <line x1="42.92067" y1="109.71624" x2="46.61993" y2="109.71624" stroke="#228B22" stroke-width="0.04000"/>
      <line x1="42.87300" y1="109.61623" x2="46.53825" y2="109.61623" stroke="#228B22" stroke-width="0.04000"/>
      <line x1="42.82533" y1="109.51624" x2="46.45662" y2="109.51624" stroke="#228B22" stroke-width="0.04000"/>
      <line x1="42.79159" y1="109.41624" x2="46.37596" y2="109.41624" stroke="#228B22" stroke-width="0.04000"/>
      <line x1="42.80818" y1="109.31624" x2="46.29830" y2="109.31624" stroke="#228B22" stroke-width="0.04000"/>
      <line x1="42.82477" y1="109.21624" x2="46.22063" y2="109.21624" stroke="#228B22" stroke-width="0.04000"/>
      <line x1="42.84137" y1="109.11623" x2="46.14296" y2="109.11623" stroke="#228B22" stroke-width="0.04000"/>
      <line x1="42.85863" y1="109.01624" x2="46.06530" y2="109.01624" stroke="#228B22" stroke-width="0.04000"/>
      <line x1="42.87680" y1="108.91624" x2="45.98763" y2="108.91624" stroke="#228B22" stroke-width="0.04000"/>
      <line x1="42.89497" y1="108.81624" x2="45.90997" y2="108.81624" stroke="#228B22" stroke-width="0.04000"/>
      <line x1="42.91313" y1="108.71624" x2="45.83231" y2="108.71624" stroke="#228B22" stroke-width="0.04000"/>
      <line x1="42.93180" y1="108.61623" x2="45.75028" y2="108.61623" stroke="#228B22" stroke-width="0.04000"/>
      <line x1="43.02819" y1="108.51624" x2="45.66714" y2="108.51624" stroke="#228B22" stroke-width="0.04000"/>
      <line x1="43.12459" y1="108.41624" x2="45.58399" y2="108.41624" stroke="#228B22" stroke-width="0.04000"/>
      <line x1="43.22190" y1="108.31624" x2="45.44957" y2="108.31624" stroke="#228B22" stroke-width="0.04000"/>
      <line x1="43.32267" y1="108.21624" x2="45.23721" y2="108.21624" stroke="#228B22" stroke-width="0.04000"/>
      <line x1="43.42344" y1="108.11623" x2="45.01442" y2="108.11623" stroke="#228B22" stroke-width="0.04000"/>
      <line x1="43.65820" y1="108.01624" x2="44.78263" y2="108.01624" stroke="#228B22" stroke-width="0.04000"/>
      <line x1="43.98473" y1="107.91624" x2="44.55083" y2="107.91624" stroke="#228B22" stroke-width="0.04000"/>
      <line x1="44.30280" y1="107.81624" x2="44.31904" y2="107.81624" stroke="#228B22" stroke-width="0.04000"/>
    </g>
    <g class="thermal-hatch" data-segment="8" data-name="CoreNormalHatch">
      <line x1="32.94620" y1="120.01960" x2="33.03480" y2="120.21720" stroke="#228B22" stroke-width="0.04000"/>
      <line x1="33.03480" y1="120.21720" x2="33.41990" y2="120.84360" stroke="#228B22" stroke-width="0.04000"/>
      <line x1="33.41990" y1="120.84360" x2="33.80890" y2="121.58540" stroke="#228B22" stroke-width="0.04000"/>
      <line x1="33.80890" y1="121.58540" x2="33.82890" y2="121.64060" stroke="#228B22" stroke-width="0.04000"/>
      <line x1="33.82890" y1="121.64060" x2="34.35720" y2="122.59460" stroke="#228B22" stroke-width="0.04000"/>
      <line x1="34.35720" y1="122.59460" x2="34.37360" y2="122.63770" stroke="#228B22" stroke-width="0.04000"/>
      <line x1="34.37360" y1="122.63770" x2="34.43010" y2="122.76550" stroke="#228B22" stroke-width="0.04000"/>
      <line x1="34.43010" y1="122.76550" x2="34.43010" y2="122.76560" stroke="#228B22" stroke-width="0.04000"/>
      <line x1="34.43010" y1="122.76560" x2="34.78450" y2="123.57250" stroke="#228B22" stroke-width="0.04000"/>
      <line x1="34.78450" y1="123.57250" x2="34.91340" y2="123.83990" stroke="#228B22" stroke-width="0.04000"/>
      <line x1="34.91340" y1="123.83990" x2="35.12000" y2="124.53620" stroke="#228B22" stroke-width="0.04000"/>
      <line x1="35.12000" y1="124.53620" x2="35.43140" y2="125.29810" stroke="#228B22" stroke-width="0.04000"/>
      <line x1="35.43140" y1="125.29810" x2="35.48450" y2="125.50960" stroke="#228B22" stroke-width="0.04000"/>
      <line x1="35.48450" y1="125.50960" x2="35.57370" y2="125.89560" stroke="#228B22" stroke-width="0.04000"/>
      <line x1="35.57370" y1="125.89560" x2="35.71610" y2="126.55500" stroke="#228B22" stroke-width="0.04000"/>
      <line x1="35.71610" y1="126.55500" x2="35.81280" y2="126.95400" stroke="#228B22" stroke-width="0.04000"/>
      <line x1="35.81280" y1="126.95400" x2="35.82990" y2="127.35090" stroke="#228B22" stroke-width="0.04000"/>
      <line x1="35.82990" y1="127.35090" x2="35.39800" y2="127.42790" stroke="#228B22" stroke-width="0.04000"/>
      <line x1="35.39800" y1="127.42790" x2="35.17210" y2="127.48730" stroke="#228B22" stroke-width="0.04000"/>
      <line x1="35.17210" y1="127.48730" x2="35.08810" y2="127.41700" stroke="#228B22" stroke-width="0.04000"/>
      <line x1="35.08810" y1="127.41700" x2="34.58240" y2="126.94080" stroke="#228B22" stroke-width="0.04000"/>
      <line x1="34.58240" y1="126.94080" x2="34.12070" y2="126.14160" stroke="#228B22" stroke-width="0.04000"/>
      <line x1="34.12070" y1="126.14160" x2="34.10210" y2="126.10610" stroke="#228B22" stroke-width="0.04000"/>
      <line x1="34.10210" y1="126.10610" x2="34.06100" y2="126.03480" stroke="#228B22" stroke-width="0.04000"/>
      <line x1="34.06100" y1="126.03480" x2="33.50940" y2="125.23390" stroke="#228B22" stroke-width="0.04000"/>
      <line x1="33.50940" y1="125.23390" x2="33.20440" y2="124.87100" stroke="#228B22" stroke-width="0.04000"/>
      <line x1="33.20440" y1="124.87100" x2="32.80110" y2="124.29060" stroke="#228B22" stroke-width="0.04000"/>
      <line x1="32.80110" y1="124.29060" x2="32.47220" y2="123.95470" stroke="#228B22" stroke-width="0.04000"/>
      <line x1="32.47220" y1="123.95470" x2="32.14010" y2="123.55460" stroke="#228B22" stroke-width="0.04000"/>
      <line x1="32.14010" y1="123.55460" x2="31.51740" y2="122.95110" stroke="#228B22" stroke-width="0.04000"/>
      <line x1="31.51740" y1="122.95110" x2="31.44140" y2="122.88230" stroke="#228B22" stroke-width="0.04000"/>
      <line x1="31.44140" y1="122.88230" x2="31.39160" y2="122.80680" stroke="#228B22" stroke-width="0.04000"/>
      <line x1="31.39160" y1="122.80680" x2="30.89030" y2="122.18380" stroke="#228B22" stroke-width="0.04000"/>
      <line x1="30.89030" y1="122.18380" x2="30.83880" y2="121.36050" stroke="#228B22" stroke-width="0.04000"/>
      <line x1="30.83880" y1="121.36050" x2="30.80240" y2="121.25360" stroke="#228B22" stroke-width="0.04000"/>
      <line x1="30.80240" y1="121.25360" x2="30.82050" y2="121.16060" stroke="#228B22" stroke-width="0.04000"/>
      <line x1="30.82050" y1="121.16060" x2="31.18850" y2="120.55950" stroke="#228B22" stroke-width="0.04000"/>
      <line x1="31.18850" y1="120.55950" x2="31.64810" y2="119.97750" stroke="#228B22" stroke-width="0.04000"/>
      <line x1="31.64810" y1="119.97750" x2="31.72030" y2="119.86090" stroke="#228B22" stroke-width="0.04000"/>
      <line x1="31.72030" y1="119.86090" x2="32.29960" y2="119.50060" stroke="#228B22" stroke-width="0.04000"/>
      <line x1="32.29960" y1="119.50060" x2="32.94620" y2="120.01960" stroke="#228B22" stroke-width="0.04000"/>
      <line x1="45.01590" y1="108.43260" x2="45.35190" y2="108.59070" stroke="#228B22" stroke-width="0.04000"/>
      <line x1="45.35190" y1="108.59070" x2="45.58890" y2="108.87570" stroke="#228B22" stroke-width="0.04000"/>
      <line x1="45.58890" y1="108.87570" x2="46.15650" y2="109.60640" stroke="#228B22" stroke-width="0.04000"/>
      <line x1="46.15650" y1="109.60640" x2="46.17490" y2="109.62950" stroke="#228B22" stroke-width="0.04000"/>
      <line x1="46.17490" y1="109.62950" x2="46.25060" y2="109.72260" stroke="#228B22" stroke-width="0.04000"/>
      <line x1="46.25060" y1="109.72260" x2="46.82620" y2="110.42730" stroke="#228B22" stroke-width="0.04000"/>
      <line x1="46.82620" y1="110.42730" x2="46.82620" y2="110.42740" stroke="#228B22" stroke-width="0.04000"/>
      <line x1="46.82620" y1="110.42740" x2="46.94620" y2="110.57920" stroke="#228B22" stroke-width="0.04000"/>
      <line x1="46.94620" y1="110.57920" x2="47.44520" y2="111.01730" stroke="#228B22" stroke-width="0.04000"/>
      <line x1="47.44520" y1="111.01730" x2="47.91880" y2="111.48940" stroke="#228B22" stroke-width="0.04000"/>
      <line x1="47.91880" y1="111.48940" x2="48.13350" y2="111.62750" stroke="#228B22" stroke-width="0.04000"/>
      <line x1="48.13350" y1="111.62750" x2="48.38270" y2="111.80360" stroke="#228B22" stroke-width="0.04000"/>
      <line x1="48.38270" y1="111.80360" x2="48.78370" y2="112.07510" stroke="#228B22" stroke-width="0.04000"/>
      <line x1="48.78370" y1="112.07510" x2="49.15660" y2="112.35380" stroke="#228B22" stroke-width="0.04000"/>
      <line x1="49.15660" y1="112.35380" x2="49.53600" y2="112.56520" stroke="#228B22" stroke-width="0.04000"/>
      <line x1="49.53600" y1="112.56520" x2="50.18260" y2="113.01930" stroke="#228B22" stroke-width="0.04000"/>
      <line x1="50.18260" y1="113.01930" x2="50.25030" y2="113.06340" stroke="#228B22" stroke-width="0.04000"/>
      <line x1="50.25030" y1="113.06340" x2="50.30230" y2="113.10420" stroke="#228B22" stroke-width="0.04000"/>
      <line x1="50.30230" y1="113.10420" x2="51.04730" y2="113.52010" stroke="#228B22" stroke-width="0.04000"/>
      <line x1="51.04730" y1="113.52010" x2="51.50650" y2="113.82140" stroke="#228B22" stroke-width="0.04000"/>
      <line x1="51.50650" y1="113.82140" x2="51.86730" y2="114.03790" stroke="#228B22" stroke-width="0.04000"/>
      <line x1="51.86730" y1="114.03790" x2="52.53380" y2="114.59590" stroke="#228B22" stroke-width="0.04000"/>
      <line x1="52.53380" y1="114.59590" x2="52.57290" y2="114.63190" stroke="#228B22" stroke-width="0.04000"/>
      <line x1="52.57290" y1="114.63190" x2="52.64460" y2="114.75240" stroke="#228B22" stroke-width="0.04000"/>
      <line x1="52.64460" y1="114.75240" x2="53.02010" y2="115.29120" stroke="#228B22" stroke-width="0.04000"/>
      <line x1="53.02010" y1="115.29120" x2="52.84500" y2="116.04550" stroke="#228B22" stroke-width="0.04000"/>
      <line x1="52.84500" y1="116.04550" x2="52.35820" y2="115.81070" stroke="#228B22" stroke-width="0.04000"/>
      <line x1="52.35820" y1="115.81070" x2="51.88920" y2="115.54320" stroke="#228B22" stroke-width="0.04000"/>
      <line x1="51.88920" y1="115.54320" x2="51.38080" y2="115.27990" stroke="#228B22" stroke-width="0.04000"/>
      <line x1="51.38080" y1="115.27990" x2="50.83870" y2="114.96740" stroke="#228B22" stroke-width="0.04000"/>
      <line x1="50.83870" y1="114.96740" x2="50.34630" y2="114.71880" stroke="#228B22" stroke-width="0.04000"/>
      <line x1="50.34630" y1="114.71880" x2="49.65590" y2="114.37210" stroke="#228B22" stroke-width="0.04000"/>
      <line x1="49.65590" y1="114.37210" x2="49.44070" y2="114.29190" stroke="#228B22" stroke-width="0.04000"/>
      <line x1="49.44070" y1="114.29190" x2="48.99540" y2="114.10730" stroke="#228B22" stroke-width="0.04000"/>
      <line x1="48.99540" y1="114.10730" x2="48.48660" y2="113.86060" stroke="#228B22" stroke-width="0.04000"/>
      <line x1="48.48660" y1="113.86060" x2="48.26630" y2="113.73300" stroke="#228B22" stroke-width="0.04000"/>
      <line x1="48.26630" y1="113.73300" x2="47.26960" y2="113.24230" stroke="#228B22" stroke-width="0.04000"/>
      <line x1="47.26960" y1="113.24230" x2="47.24930" y2="113.22850" stroke="#228B22" stroke-width="0.04000"/>
      <line x1="47.24930" y1="113.22850" x2="46.88470" y2="113.01750" stroke="#228B22" stroke-width="0.04000"/>
      <line x1="46.88470" y1="113.01750" x2="46.88460" y2="113.01750" stroke="#228B22" stroke-width="0.04000"/>
      <line x1="46.88460" y1="113.01750" x2="46.08730" y2="112.55400" stroke="#228B22" stroke-width="0.04000"/>
      <line x1="46.08730" y1="112.55400" x2="46.03700" y2="112.52680" stroke="#228B22" stroke-width="0.04000"/>
      <line x1="46.03700" y1="112.52680" x2="45.96210" y2="112.47880" stroke="#228B22" stroke-width="0.04000"/>
      <line x1="45.96210" y1="112.47880" x2="45.23370" y2="111.92160" stroke="#228B22" stroke-width="0.04000"/>
      <line x1="45.23370" y1="111.92160" x2="44.53020" y2="111.34010" stroke="#228B22" stroke-width="0.04000"/>
      <line x1="44.53020" y1="111.34010" x2="43.90450" y2="110.68160" stroke="#228B22" stroke-width="0.04000"/>
      <line x1="43.90450" y1="110.68160" x2="43.53910" y2="110.29290" stroke="#228B22" stroke-width="0.04000"/>
      <line x1="43.53910" y1="110.29290" x2="43.36320" y2="109.97080" stroke="#228B22" stroke-width="0.04000"/>
      <line x1="43.36320" y1="109.97080" x2="43.08890" y2="109.39540" stroke="#228B22" stroke-width="0.04000"/>
      <line x1="43.08890" y1="109.39540" x2="43.13810" y2="109.09970" stroke="#228B22" stroke-width="0.04000"/>
      <line x1="43.13810" y1="109.09970" x2="43.13800" y2="109.09960" stroke="#228B22" stroke-width="0.04000"/>
      <line x1="43.13800" y1="109.09960" x2="43.20070" y2="108.75510" stroke="#228B22" stroke-width="0.04000"/>
      <line x1="43.20070" y1="108.75510" x2="43.40670" y2="108.54150" stroke="#228B22" stroke-width="0.04000"/>
      <line x1="43.40670" y1="108.54150" x2="43.61780" y2="108.33170" stroke="#228B22" stroke-width="0.04000"/>
      <line x1="43.61780" y1="108.33170" x2="44.29900" y2="108.12330" stroke="#228B22" stroke-width="0.04000"/>
      <line x1="44.29900" y1="108.12330" x2="45.01590" y2="108.43260" stroke="#228B22" stroke-width="0.04000"/>
    </g>
    <g class="thermal-contour" data-segment="1" data-name="CoreContour_Volume">
    <path d="M 32.3907 119.202 L 33.1825 119.837 L 33.2917 120.081 L 33.6718 120.699 L 34.0747 121.468 L 34.0937 121.52 L 34.6217 122.473 L 34.6421 122.528 L 34.6956 122.649 L 35.0479 123.451 L 35.1849 123.735 L 35.394 124.44 L 35.7078 125.207 L 35.7658 125.439 L 35.8562 125.83 L 35.9988 126.49 L 36.1014 126.913 L 36.1306 127.592 L 35.4604 127.711 L 35.101 127.806 L 34.8957 127.634 L 34.353 127.123 L 33.8677 126.283 L 33.8483 126.246 L 33.8156 126.19 L 33.2784 125.41 L 32.974 125.047 L 32.5769 124.476 L 32.2574 124.15 L 31.927 123.752 L 31.3191 123.163 L 31.2196 123.073 L 31.157 122.978 L 30.6067 122.294 L 30.5517 121.417 L 30.5031 121.274 L 30.5461 121.054 L 30.9503 120.394 L 31.4103 119.811 L 31.5097 119.651 L 32.2275 119.204 L 32.3206 119.151 L 32.3907 119.202" fill="none" stroke="#000000" stroke-width="0.05000" fill-rule="evenodd" fill-opacity="1.000"/>
    </g>
    <g class="thermal-contour" data-segment="1" data-name="CoreContour_Volume">
    <path d="M 45.1386 108.17 L 45.5338 108.356 L 45.8164 108.696 L 46.3845 109.427 L 46.4008 109.448 L 46.4754 109.539 L 47.0518 110.245 L 47.1573 110.379 L 47.6414 110.804 L 48.1017 111.262 L 48.296 111.387 L 48.5477 111.565 L 48.9525 111.839 L 49.3147 112.11 L 49.6905 112.319 L 50.345 112.779 L 50.4177 112.826 L 50.4635 112.862 L 51.1978 113.272 L 51.6608 113.576 L 52.0365 113.801 L 52.7237 114.376 L 52.8006 114.447 L 52.8885 114.595 L 53.3319 115.231 L 53.0905 116.271 L 53.1066 116.415 L 52.9523 116.42 L 52.2245 116.068 L 51.7506 115.798 L 51.2429 115.535 L 50.7009 115.223 L 50.2158 114.978 L 49.5399 114.638 L 49.3325 114.561 L 48.8763 114.372 L 48.3518 114.118 L 48.1294 113.989 L 47.1234 113.494 L 47.095 113.474 L 46.7453 113.272 L 46.7453 113.272 L 45.9454 112.807 L 45.8884 112.776 L 45.7954 112.716 L 45.0537 112.149 L 44.333 111.553 L 44.3291 111.549 L 44.323 111.543 L 43.6943 110.881 L 43.3023 110.464 L 43.1061 110.105 L 42.788 109.438 L 42.8508 109.06 L 42.9312 108.617 L 43.2008 108.337 L 43.4644 108.076 L 44.2685 107.829 L 44.3114 107.813 L 45.1386 108.17" fill="none" stroke="#000000" stroke-width="0.05000" fill-rule="evenodd" fill-opacity="1.000"/>
    </g>
    <g class="thermal-contour" data-segment="1" data-name="CoreContour_Volume">
    <path d="M 33.0195 119.963 L 33.1145 120.175 L 33.4978 120.798 L 33.8915 121.549 L 33.9111 121.603 L 34.4393 122.557 L 34.4569 122.604 L 34.5125 122.729 L 34.8663 123.535 L 34.9977 123.807 L 35.205 124.506 L 35.5172 125.27 L 35.5718 125.488 L 35.6614 125.875 L 35.8038 126.535 L 35.9024 126.941 L 35.9232 127.426 L 35.4174 127.516 L 35.15 127.586 L 35.0287 127.485 L 34.5112 126.997 L 34.0421 126.185 L 34.0233 126.15 L 33.9848 126.083 L 33.4377 125.288 L 33.1328 124.926 L 32.7315 124.348 L 32.4058 124.016 L 32.074 123.616 L 31.4559 123.017 L 31.3726 122.941 L 31.3188 122.86 L 30.8023 122.218 L 30.7497 121.378 L 30.7095 121.26 L 30.7354 121.127 L 31.1143 120.508 L 31.5743 119.926 L 31.6549 119.796 L 32.3063 119.391 L 33.0195 119.963" fill="none" stroke="#000000" stroke-width="0.05000" fill-rule="evenodd" fill-opacity="1.000"/>
    <path d="M 31.7203 119.861 L 31.6481 119.978 L 31.1885 120.56 L 30.8205 121.161 L 30.8024 121.254 L 30.8388 121.36 L 30.8903 122.184 L 31.3916 122.807 L 31.4414 122.882 L 31.5174 122.951 L 32.1401 123.555 L 32.4722 123.955 L 32.8011 124.291 L 33.2044 124.871 L 33.5094 125.234 L 34.061 126.035 L 34.1021 126.106 L 34.1207 126.142 L 34.5824 126.941 L 35.0881 127.417 L 35.1721 127.487 L 35.398 127.428 L 35.8299 127.351 L 35.8128 126.954 L 35.7161 126.555 L 35.5737 125.896 L 35.4845 125.51 L 35.4314 125.298 L 35.12 124.536 L 34.9134 123.84 L 34.7845 123.573 L 34.4301 122.766 L 34.4301 122.766 L 34.3736 122.638 L 34.3572 122.595 L 33.8289 121.641 L 33.8089 121.585 L 33.4199 120.844 L 33.0348 120.217 L 32.9462 120.02 L 32.2996 119.501 L 31.7203 119.861" fill="none" stroke="#000000" stroke-width="0.05000" fill-rule="evenodd" fill-opacity="1.000"/>
    <path d="M 45.0534 108.351 L 45.4084 108.518 L 45.66 108.821 L 46.2273 109.551 L 46.245 109.573 L 46.3204 109.666 L 46.8968 110.372 L 47.0117 110.517 L 47.5062 110.951 L 47.9755 111.419 L 48.1832 111.552 L 48.4339 111.73 L 48.8363 112.002 L 49.2057 112.278 L 49.5843 112.489 L 50.233 112.945 L 50.3019 112.99 L 50.3523 113.029 L 51.0934 113.443 L 51.5544 113.745 L 51.9197 113.964 L 52.5923 114.527 L 52.6438 114.575 L 52.7203 114.704 L 53.1169 115.273 L 52.9073 116.176 L 52.3165 115.891 L 51.8462 115.622 L 51.3365 115.358 L 50.7959 115.047 L 50.3058 114.799 L 49.6199 114.455 L 49.4073 114.376 L 48.9577 114.189 L 48.4446 113.94 L 48.2238 113.812 L 47.2242 113.32 L 47.2014 113.305 L 46.8396 113.095 L 46.0433 112.632 L 45.9901 112.604 L 45.9106 112.553 L 45.1783 111.993 L 44.4692 111.406 L 44.468 111.405 L 43.8393 110.744 L 43.4656 110.346 L 43.2838 110.013 L 42.9955 109.409 L 43.0493 109.085 L 43.1171 108.712 L 43.3433 108.478 L 43.5702 108.252 L 44.3042 108.028 L 45.0534 108.351" fill="none" stroke="#000000" stroke-width="0.05000" fill-rule="evenodd" fill-opacity="1.000"/>
    <path d="M 43.6178 108.332 L 43.4067 108.541 L 43.2007 108.755 L 43.138 109.1 L 43.1381 109.1 L 43.0889 109.395 L 43.3632 109.971 L 43.5391 110.293 L 43.9045 110.682 L 44.5302 111.34 L 45.2337 111.922 L 45.9621 112.479 L 46.037 112.527 L 46.0873 112.554 L 46.8846 113.018 L 46.8847 113.018 L 47.2493 113.229 L 47.2696 113.242 L 48.2663 113.733 L 48.4866 113.861 L 48.9954 114.107 L 49.4407 114.292 L 49.6559 114.372 L 50.3463 114.719 L 50.8387 114.967 L 51.3808 115.28 L 51.8892 115.543 L 52.3582 115.811 L 52.845 116.046 L 53.0201 115.291 L 52.6446 114.752 L 52.5729 114.632 L 52.5338 114.596 L 51.8673 114.038 L 51.5065 113.821 L 51.0473 113.52 L 50.3023 113.104 L 50.2503 113.063 L 50.1826 113.019 L 49.536 112.565 L 49.1566 112.354 L 48.7837 112.075 L 48.3827 111.804 L 48.1335 111.628 L 47.9188 111.489 L 47.4452 111.017 L 46.9462 110.579 L 46.8262 110.427 L 46.8262 110.427 L 46.2506 109.723 L 46.1749 109.63 L 46.1565 109.606 L 45.5889 108.876 L 45.3519 108.591 L 45.0159 108.433 L 44.299 108.123 L 43.6178 108.332" fill="none" stroke="#000000" stroke-width="0.05000" fill-rule="evenodd" fill-opacity="1.000"/>
    </g>
    <g class="thermal-contour" data-segment="3" data-name="HollowShell1Contour_Volume">
    <path d="M 32.3907 119.202 L 33.1825 119.837 L 33.2917 120.081 L 33.6718 120.699 L 34.0747 121.468 L 34.0937 121.52 L 34.6217 122.473 L 34.6421 122.528 L 34.6956 122.649 L 35.0479 123.451 L 35.1849 123.735 L 35.394 124.44 L 35.7078 125.207 L 35.7658 125.439 L 35.8562 125.83 L 35.9988 126.49 L 36.097 126.895 L 36.127 127.593 L 35.4604 127.711 L 35.1423 127.795 L 35.1261 127.798 L 35.1153 127.801 L 35.1091 127.796 L 34.3561 127.086 L 34.0301 126.522 L 33.8572 126.196 L 33.566 125.692 L 33.3072 125.316 L 33.1605 125.142 L 32.6508 124.409 L 32.6542 124.412 L 33.0534 124.987 L 33.3581 125.349 L 33.9002 126.136 L 33.9358 126.198 L 33.9549 126.234 L 34.4321 127.06 L 34.9622 127.56 L 35.1255 127.696 L 35.4389 127.614 L 36.0269 127.509 L 36.0019 126.927 L 35.9013 126.512 L 35.7588 125.853 L 35.6688 125.463 L 35.6125 125.239 L 35.2995 124.473 L 35.0913 123.771 L 34.9571 123.493 L 34.604 122.689 L 34.604 122.689 L 34.5495 122.566 L 34.5305 122.515 L 34.0024 121.562 L 33.9831 121.508 L 33.5848 120.749 L 33.2031 120.128 L 33.101 119.9 L 32.33 119.281 L 32.314 119.27 L 32.2784 119.29 L 31.5823 119.723 L 31.4923 119.868 L 31.0323 120.451 L 30.6408 121.09 L 30.6063 121.267 L 30.6507 121.398 L 30.703 122.233 L 30.6792 122.203 L 30.6465 121.683 L 30.5048 121.265 L 30.5461 121.054 L 30.9503 120.394 L 31.4103 119.811 L 31.5097 119.651 L 32.2275 119.204 L 32.3206 119.151 L 32.3907 119.202" fill="none" stroke="#0000CC" stroke-width="0.05000" fill-rule="evenodd" fill-opacity="1.000"/>
    <path d="M 45.1386 108.17 L 45.4221 108.303 L 45.7938 108.75 L 46.2165 109.295 L 46.3923 109.515 L 46.9843 110.242 L 47.0302 110.283 L 47.0969 110.344 L 47.6344 110.816 L 47.9326 111.113 L 47.9878 111.149 L 48.1017 111.262 L 48.296 111.387 L 48.5477 111.565 L 48.9525 111.839 L 49.3147 112.11 L 49.6905 112.319 L 50.345 112.779 L 50.4177 112.826 L 50.4635 112.862 L 51.1978 113.272 L 51.6608 113.576 L 52.0365 113.801 L 52.7237 114.377 L 52.8006 114.448 L 52.8885 114.595 L 53.3319 115.231 L 53.1507 116.012 L 53.028 116.098 L 53.2244 115.252 L 52.8044 114.649 L 52.7222 114.511 L 52.658 114.452 L 51.9781 113.883 L 51.6076 113.66 L 51.1459 113.357 L 50.4079 112.946 L 50.3598 112.908 L 50.289 112.862 L 49.6371 112.404 L 49.2602 112.194 L 48.8944 111.921 L 48.4908 111.647 L 48.2396 111.47 L 48.0386 111.341 L 47.5738 110.877 L 47.0845 110.448 L 46.9743 110.308 L 46.3979 109.603 L 46.3229 109.51 L 46.3059 109.489 L 45.7382 108.758 L 45.4711 108.437 L 45.096 108.26 L 44.309 107.921 L 44.3009 107.924 L 43.5172 108.164 L 43.2728 108.407 L 43.0242 108.664 L 42.9494 109.076 L 42.9495 109.076 L 42.8918 109.423 L 43.1951 110.06 L 43.3839 110.405 L 43.7668 110.812 L 44.3955 111.474 L 44.4021 111.481 L 45.116 112.071 L 45.8526 112.634 L 45.9395 112.69 L 45.9943 112.72 L 46.7953 113.185 L 46.7954 113.185 L 47.1482 113.39 L 47.1737 113.407 L 48.1766 113.901 L 48.3982 114.029 L 48.917 114.281 L 49.3699 114.468 L 49.5799 114.547 L 50.2608 114.888 L 50.7484 115.135 L 51.2876 115.446 L 51.2052 115.403 L 50.9311 115.245 L 50.1894 114.87 L 50.1894 114.87 L 49.7164 114.633 L 49.2826 114.471 L 48.3283 114.076 L 48.2534 114.039 L 48.2217 114.021 L 48.0563 113.94 L 47.1623 113.498 L 47.0717 113.461 L 46.7453 113.272 L 45.9454 112.807 L 45.8884 112.776 L 45.7954 112.716 L 45.0537 112.149 L 44.333 111.553 L 44.3291 111.549 L 44.323 111.543 L 43.6943 110.881 L 43.3023 110.465 L 43.1061 110.105 L 42.788 109.438 L 42.8508 109.06 L 42.9312 108.617 L 43.2008 108.337 L 43.4644 108.076 L 44.2685 107.829 L 44.3114 107.813 L 45.1386 108.17" fill="none" stroke="#0000CC" stroke-width="0.05000" fill-rule="evenodd" fill-opacity="1.000"/>
    </g>
    <g class="thermal-contour" data-segment="4" data-name="HollowShell1Contour_Overhang">
    <path d="M 30.6465 121.683 L 30.6792 122.203 L 30.703 122.233 L 30.7045 122.256 L 31.2379 122.919 L 31.2961 123.007 L 31.3875 123.09 L 32.0005 123.684 L 32.3316 124.083 L 32.6508 124.409 L 33.1605 125.142 L 33.3072 125.316 L 33.566 125.692 L 33.8572 126.196 L 34.0301 126.522 L 34.3561 127.086 L 35.1091 127.796 L 35.1153 127.801 L 35.1261 127.798 L 35.1423 127.795 L 35.101 127.806 L 34.8957 127.634 L 34.353 127.123 L 33.8677 126.283 L 33.8483 126.246 L 33.8156 126.19 L 33.2784 125.41 L 32.974 125.047 L 32.5769 124.476 L 32.2574 124.15 L 31.927 123.752 L 31.3191 123.163 L 31.2196 123.073 L 31.157 122.978 L 30.6067 122.294 L 30.5517 121.417 L 30.5031 121.274 L 30.5048 121.265 L 30.6465 121.683" fill="none" stroke="#000080" stroke-width="0.05000" fill-rule="evenodd" fill-opacity="1.000"/>
    <path d="M 36.1014 126.913 L 36.1306 127.592 L 36.127 127.593 L 36.097 126.895 L 36.1014 126.913" fill="none" stroke="#000080" stroke-width="0.05000" fill-rule="evenodd" fill-opacity="1.000"/>
    <path d="M 47.1623 113.498 L 48.0563 113.94 L 48.2217 114.021 L 48.2534 114.039 L 48.3283 114.076 L 49.2826 114.471 L 49.7164 114.633 L 50.1894 114.87 L 50.1894 114.87 L 50.9311 115.245 L 51.2052 115.403 L 51.2876 115.446 L 51.2897 115.447 L 51.7984 115.71 L 52.2705 115.979 L 52.9739 116.319 L 52.995 116.318 L 52.9892 116.266 L 53.028 116.098 L 53.1507 116.012 L 53.0985 116.237 L 53.0905 116.271 L 53.1066 116.415 L 52.9523 116.42 L 52.2245 116.068 L 51.7506 115.798 L 51.2429 115.535 L 50.7009 115.223 L 50.2158 114.978 L 49.5399 114.638 L 49.3325 114.561 L 48.8763 114.372 L 48.3518 114.118 L 48.1294 113.989 L 47.1234 113.494 L 47.095 113.474 L 47.0717 113.461 L 47.1623 113.498" fill="none" stroke="#000080" stroke-width="0.05000" fill-rule="evenodd" fill-opacity="1.000"/>
    <path d="M 45.5338 108.356 L 45.8164 108.696 L 46.3845 109.427 L 46.4008 109.448 L 46.4754 109.539 L 47.0518 110.245 L 47.1573 110.379 L 47.6414 110.803 L 47.9878 111.149 L 47.9326 111.113 L 47.6344 110.816 L 47.0969 110.344 L 47.0302 110.283 L 46.9843 110.242 L 46.3923 109.515 L 46.2165 109.295 L 45.7938 108.75 L 45.4221 108.303 L 45.5338 108.356" fill="none" stroke="#000080" stroke-width="0.05000" fill-rule="evenodd" fill-opacity="1.000"/>
    </g>
    <g class="thermal-contour" data-segment="5" data-name="HollowShell2Contour_Volume">
    <path d="M 32.33 119.281 L 33.101 119.9 L 33.2031 120.128 L 33.5848 120.749 L 33.9831 121.508 L 34.0024 121.562 L 34.5305 122.515 L 34.5495 122.566 L 34.604 122.689 L 34.604 122.689 L 34.9571 123.493 L 35.0913 123.771 L 35.2995 124.473 L 35.6125 125.239 L 35.6688 125.463 L 35.7588 125.853 L 35.9013 126.512 L 36.0019 126.927 L 36.0269 127.509 L 35.4389 127.614 L 35.1255 127.696 L 34.9622 127.56 L 34.4321 127.06 L 33.9549 126.234 L 33.9358 126.198 L 33.9002 126.136 L 33.3581 125.349 L 33.0534 124.987 L 32.6542 124.412 L 32.6508 124.409 L 32.5962 124.33 L 32.5569 124.29 L 32.0213 123.645 L 31.5154 123.155 L 31.3277 122.944 L 31.09 122.714 L 30.703 122.233 L 30.6507 121.398 L 30.6063 121.267 L 30.6408 121.09 L 31.0323 120.451 L 31.4923 119.868 L 31.5823 119.723 L 32.2784 119.29 L 32.314 119.27 L 32.33 119.281" fill="none" stroke="#B8860B" stroke-width="0.05000" fill-rule="evenodd" fill-opacity="1.000"/>
    <path d="M 31.6549 119.796 L 31.5743 119.926 L 31.1143 120.508 L 30.7354 121.127 L 30.7095 121.26 L 30.7497 121.378 L 30.8023 122.218 L 31.3188 122.86 L 31.3726 122.941 L 31.4559 123.017 L 32.074 123.616 L 32.4058 124.016 L 32.7315 124.348 L 33.1328 124.926 L 33.4377 125.288 L 33.9848 126.083 L 34.0233 126.15 L 34.0421 126.185 L 34.5112 126.997 L 35.0287 127.485 L 35.15 127.586 L 35.4174 127.516 L 35.9232 127.426 L 35.9024 126.941 L 35.8038 126.535 L 35.6614 125.875 L 35.5718 125.488 L 35.5172 125.27 L 35.205 124.506 L 34.9977 123.807 L 34.8663 123.535 L 34.5125 122.729 L 34.4569 122.604 L 34.4393 122.557 L 33.9111 121.603 L 33.8915 121.549 L 33.4978 120.798 L 33.1145 120.175 L 33.0195 119.963 L 32.3063 119.391 L 31.6549 119.796" fill="none" stroke="#B8860B" stroke-width="0.05000" fill-rule="evenodd" fill-opacity="1.000"/>
    <path d="M 45.096 108.26 L 45.4711 108.437 L 45.7382 108.758 L 46.3059 109.489 L 46.3229 109.51 L 46.3979 109.603 L 46.9743 110.308 L 47.0845 110.448 L 47.5738 110.877 L 48.0386 111.341 L 48.2396 111.47 L 48.4908 111.647 L 48.8944 111.921 L 49.2602 112.194 L 49.6371 112.404 L 50.289 112.862 L 50.3598 112.908 L 50.4079 112.946 L 51.1459 113.357 L 51.6076 113.66 L 51.9781 113.883 L 52.658 114.452 L 52.7222 114.511 L 52.8044 114.649 L 53.2244 115.252 L 53.028 116.098 L 52.8312 116.237 L 52.2199 115.942 L 51.9614 115.795 L 51.2876 115.446 L 50.7484 115.135 L 50.2608 114.888 L 49.5799 114.547 L 49.3699 114.468 L 48.917 114.281 L 48.3982 114.029 L 48.1766 113.901 L 47.1737 113.407 L 47.1482 113.39 L 46.7954 113.185 L 46.7953 113.185 L 45.9943 112.72 L 45.9395 112.69 L 45.8526 112.634 L 45.116 112.071 L 44.4021 111.481 L 44.3955 111.474 L 43.7668 110.812 L 43.3839 110.405 L 43.1951 110.06 L 42.8918 109.423 L 42.9495 109.076 L 42.9494 109.076 L 43.0242 108.664 L 43.2728 108.407 L 43.5172 108.164 L 44.3009 107.924 L 44.309 107.921 L 45.096 108.26" fill="none" stroke="#B8860B" stroke-width="0.05000" fill-rule="evenodd" fill-opacity="1.000"/>
    <path d="M 43.5702 108.252 L 43.3433 108.478 L 43.1171 108.712 L 43.0493 109.085 L 42.9955 109.409 L 43.2838 110.013 L 43.4656 110.346 L 43.8393 110.744 L 44.468 111.405 L 44.4692 111.406 L 45.1783 111.993 L 45.9106 112.553 L 45.9901 112.604 L 46.0433 112.632 L 46.8396 113.095 L 47.2014 113.305 L 47.2242 113.32 L 48.2238 113.812 L 48.4446 113.94 L 48.9577 114.189 L 49.4073 114.376 L 49.6199 114.455 L 50.3058 114.799 L 50.7959 115.047 L 51.3365 115.358 L 51.8462 115.622 L 52.3165 115.891 L 52.9073 116.176 L 53.1169 115.273 L 52.7203 114.704 L 52.6438 114.575 L 52.5923 114.527 L 51.9197 113.964 L 51.5544 113.745 L 51.0934 113.443 L 50.3523 113.029 L 50.3019 112.99 L 50.233 112.945 L 49.5843 112.489 L 49.2057 112.278 L 48.8363 112.002 L 48.4339 111.73 L 48.1832 111.552 L 47.9755 111.419 L 47.5062 110.951 L 47.0117 110.517 L 46.8968 110.372 L 46.3204 109.666 L 46.245 109.573 L 46.2273 109.551 L 45.66 108.821 L 45.4084 108.518 L 45.0534 108.351 L 44.3042 108.028 L 43.5702 108.252" fill="none" stroke="#B8860B" stroke-width="0.05000" fill-rule="evenodd" fill-opacity="1.000"/>
    </g>
    <g class="thermal-contour" data-segment="6" data-name="HollowShell2Contour_Overhang">
    <path d="M 31.09 122.714 L 31.3277 122.944 L 31.5154 123.155 L 32.0213 123.645 L 32.5569 124.29 L 32.5962 124.33 L 32.6508 124.409 L 32.3316 124.083 L 32.0005 123.684 L 31.3875 123.09 L 31.2961 123.007 L 31.2379 122.919 L 30.7045 122.256 L 30.703 122.233 L 31.09 122.714" fill="none" stroke="#006400" stroke-width="0.05000" fill-rule="evenodd" fill-opacity="1.000"/>
    <path d="M 51.9614 115.795 L 52.2199 115.942 L 52.8312 116.237 L 53.028 116.098 L 52.9892 116.266 L 52.995 116.318 L 52.9739 116.319 L 52.2705 115.979 L 51.7984 115.71 L 51.2897 115.447 L 51.2876 115.446 L 51.9614 115.795" fill="none" stroke="#006400" stroke-width="0.05000" fill-rule="evenodd" fill-opacity="1.000"/>
    </g>
    <g class="thermal-contour" data-segment="9" data-name="CoreContourHatch">
    <path d="M 32.9682 120.003 L 33.0585 120.204 L 33.4434 120.83 L 33.8337 121.575 L 33.8536 121.63 L 34.3818 122.583 L 34.3983 122.627 L 34.4571 122.76 L 34.4571 122.76 L 34.8088 123.561 L 34.9387 123.83 L 35.1455 124.527 L 35.4571 125.29 L 35.5107 125.503 L 35.6001 125.89 L 35.7423 126.549 L 35.8397 126.95 L 35.8579 127.373 L 35.4036 127.454 L 35.1655 127.517 L 35.0702 127.437 L 34.561 126.958 L 34.097 126.155 L 34.0787 126.12 L 34.0376 126.048 L 33.4884 125.251 L 33.1829 124.887 L 32.7801 124.308 L 32.4521 123.973 L 32.1204 123.573 L 31.4986 122.97 L 31.4986 122.97 L 31.4207 122.9 L 31.3695 122.822 L 30.8639 122.194 L 30.8121 121.366 L 30.7745 121.256 L 30.7949 121.151 L 31.1663 120.544 L 31.6257 119.962 L 31.7007 119.841 L 32.3016 119.468 L 32.9682 120.003" fill="none" stroke="#800080" stroke-width="0.05000" fill-rule="evenodd" fill-opacity="1.000"/>
    <path d="M 31.7203 119.861 L 31.6481 119.978 L 31.1885 120.56 L 30.8205 121.161 L 30.8024 121.254 L 30.8388 121.36 L 30.8903 122.184 L 31.3916 122.807 L 31.4414 122.882 L 31.5174 122.951 L 32.1401 123.555 L 32.4722 123.955 L 32.8011 124.291 L 33.2044 124.871 L 33.5094 125.234 L 34.061 126.035 L 34.1021 126.106 L 34.1207 126.142 L 34.5824 126.941 L 35.0881 127.417 L 35.1721 127.487 L 35.398 127.428 L 35.8299 127.351 L 35.8128 126.954 L 35.7161 126.555 L 35.5737 125.896 L 35.4845 125.51 L 35.4314 125.298 L 35.12 124.536 L 34.9134 123.84 L 34.7845 123.573 L 34.4301 122.766 L 34.4301 122.766 L 34.3736 122.638 L 34.3572 122.595 L 33.8289 121.641 L 33.8089 121.585 L 33.4199 120.844 L 33.0348 120.217 L 32.9462 120.02 L 32.2996 119.501 L 31.7203 119.861" fill="none" stroke="#800080" stroke-width="0.05000" fill-rule="evenodd" fill-opacity="1.000"/>
    <path d="M 45.027 108.408 L 45.3688 108.569 L 45.6099 108.859 L 46.1776 109.59 L 46.1958 109.613 L 46.2714 109.705 L 46.2715 109.705 L 46.8532 110.418 L 46.8532 110.418 L 46.9658 110.56 L 47.4637 110.998 L 47.9359 111.468 L 48.1486 111.605 L 48.3983 111.782 L 48.3982 111.782 L 48.7994 112.053 L 49.1713 112.331 L 49.5504 112.542 L 50.1981 112.997 L 50.266 113.041 L 50.317 113.081 L 51.0613 113.497 L 51.5204 113.798 L 51.883 114.016 L 52.5516 114.576 L 52.5941 114.615 L 52.6668 114.737 L 53.0491 115.286 L 52.8637 116.085 L 52.3456 115.835 L 51.8758 115.567 L 51.8758 115.567 L 51.3678 115.304 L 50.8258 114.991 L 50.3341 114.743 L 50.3341 114.743 L 49.6452 114.397 L 49.4308 114.317 L 48.9843 114.132 L 48.4739 113.884 L 48.2528 113.756 L 47.256 113.266 L 47.2352 113.252 L 46.8774 113.045 L 46.8773 113.045 L 46.0737 112.577 L 46.0737 112.577 L 46.0233 112.55 L 45.9466 112.501 L 45.2169 111.943 L 44.5117 111.36 L 43.8849 110.7 L 43.5171 110.309 L 43.3391 109.983 L 43.0609 109.399 L 43.1092 109.109 L 43.1089 109.109 L 43.1756 108.742 L 43.3875 108.523 L 43.6035 108.308 L 44.3006 108.095 L 45.027 108.408" fill="none" stroke="#800080" stroke-width="0.05000" fill-rule="evenodd" fill-opacity="1.000"/>
    <path d="M 43.6178 108.332 L 43.4067 108.541 L 43.2007 108.755 L 43.138 109.1 L 43.1381 109.1 L 43.0889 109.395 L 43.3632 109.971 L 43.5391 110.293 L 43.9045 110.682 L 44.5302 111.34 L 45.2337 111.922 L 45.9621 112.479 L 46.037 112.527 L 46.0873 112.554 L 46.8846 113.018 L 46.8847 113.018 L 47.2493 113.229 L 47.2696 113.242 L 48.2663 113.733 L 48.4866 113.861 L 48.9954 114.107 L 49.4407 114.292 L 49.6559 114.372 L 50.3463 114.719 L 50.8387 114.967 L 51.3808 115.28 L 51.8892 115.543 L 52.3582 115.811 L 52.845 116.046 L 53.0201 115.291 L 52.6446 114.752 L 52.5729 114.632 L 52.5338 114.596 L 51.8673 114.038 L 51.5065 113.821 L 51.0473 113.52 L 50.3023 113.104 L 50.2503 113.063 L 50.1826 113.019 L 49.536 112.565 L 49.1566 112.354 L 48.7837 112.075 L 48.3827 111.804 L 48.1335 111.628 L 47.9188 111.489 L 47.4452 111.017 L 46.9462 110.579 L 46.8262 110.427 L 46.8262 110.427 L 46.2506 109.723 L 46.1749 109.63 L 46.1565 109.606 L 45.5889 108.876 L 45.3519 108.591 L 45.0159 108.433 L 44.299 108.123 L 43.6178 108.332" fill="none" stroke="#800080" stroke-width="0.05000" fill-rule="evenodd" fill-opacity="1.000"/>
    </g>
    <!-- ===== Thermal Segment Colour Legend ===== -->
    <g id="thermal-legend">
    <rect x="161.0000" y="5.0000" width="40.0000" height="72.0000"
          rx="1" ry="1"
          fill="#fafafa" stroke="#cccccc" stroke-width="0.15"/>
    <text x="181.0000" y="7.6000" font-family="sans-serif" font-size="2.2000" font-weight="bold" fill="#222222" text-anchor="middle">Thermal Segments</text>
    <line x1="161.5000" y1="8.7000" x2="200.5000" y2="8.7000" stroke="#bbbbbb" stroke-width="0.1"/>
    <rect x="161.8000" y="9.0000" width="3.5000" height="2.0000" fill="#000000" stroke="#333333" stroke-width="0.08" rx="0.3" ry="0.3"/>
    <text x="168.6000" y="10.9000" font-family="monospace" font-size="1.6000" fill="#444444" text-anchor="end"> 1</text>
    <text x="169.6000" y="10.9000" font-family="sans-serif" font-size="1.6000" fill="#111111">CoreContour_Volume</text>
    <rect x="161.8000" y="12.0000" width="3.5000" height="2.0000" fill="#8B0000" stroke="#333333" stroke-width="0.08" rx="0.3" ry="0.3"/>
    <text x="168.6000" y="13.9000" font-family="monospace" font-size="1.6000" fill="#444444" text-anchor="end"> 2</text>
    <text x="169.6000" y="13.9000" font-family="sans-serif" font-size="1.6000" fill="#111111">CoreContour_Overhang</text>
    <rect x="161.8000" y="15.0000" width="3.5000" height="2.0000" fill="#0000CC" stroke="#333333" stroke-width="0.08" rx="0.3" ry="0.3"/>
    <text x="168.6000" y="16.9000" font-family="monospace" font-size="1.6000" fill="#444444" text-anchor="end"> 3</text>
    <text x="169.6000" y="16.9000" font-family="sans-serif" font-size="1.6000" fill="#111111">Shell1Contour_Volume</text>
    <rect x="161.8000" y="18.0000" width="3.5000" height="2.0000" fill="#000080" stroke="#333333" stroke-width="0.08" rx="0.3" ry="0.3"/>
    <text x="168.6000" y="19.9000" font-family="monospace" font-size="1.6000" fill="#444444" text-anchor="end"> 4</text>
    <text x="169.6000" y="19.9000" font-family="sans-serif" font-size="1.6000" fill="#111111">Shell1Contour_Overhang</text>
    <rect x="161.8000" y="21.0000" width="3.5000" height="2.0000" fill="#B8860B" stroke="#333333" stroke-width="0.08" rx="0.3" ry="0.3"/>
    <text x="168.6000" y="22.9000" font-family="monospace" font-size="1.6000" fill="#444444" text-anchor="end"> 5</text>
    <text x="169.6000" y="22.9000" font-family="sans-serif" font-size="1.6000" fill="#111111">Shell2Contour_Volume</text>
    <rect x="161.8000" y="24.0000" width="3.5000" height="2.0000" fill="#006400" stroke="#333333" stroke-width="0.08" rx="0.3" ry="0.3"/>
    <text x="168.6000" y="25.9000" font-family="monospace" font-size="1.6000" fill="#444444" text-anchor="end"> 6</text>
    <text x="169.6000" y="25.9000" font-family="sans-serif" font-size="1.6000" fill="#111111">Shell2Contour_Overhang</text>
    <rect x="161.8000" y="27.0000" width="3.5000" height="2.0000" fill="#FF8C00" stroke="#333333" stroke-width="0.08" rx="0.3" ry="0.3"/>
    <text x="168.6000" y="28.9000" font-family="monospace" font-size="1.6000" fill="#444444" text-anchor="end"> 7</text>
    <text x="169.6000" y="28.9000" font-family="sans-serif" font-size="1.6000" fill="#111111">CoreOverhangHatch</text>
    <rect x="161.8000" y="30.0000" width="3.5000" height="2.0000" fill="#228B22" stroke="#333333" stroke-width="0.08" rx="0.3" ry="0.3"/>
    <text x="168.6000" y="31.9000" font-family="monospace" font-size="1.6000" fill="#444444" text-anchor="end"> 8</text>
    <text x="169.6000" y="31.9000" font-family="sans-serif" font-size="1.6000" fill="#111111">CoreNormalHatch</text>
    <rect x="161.8000" y="33.0000" width="3.5000" height="2.0000" fill="#800080" stroke="#333333" stroke-width="0.08" rx="0.3" ry="0.3"/>
    <text x="168.6000" y="34.9000" font-family="monospace" font-size="1.6000" fill="#444444" text-anchor="end"> 9</text>
    <text x="169.6000" y="34.9000" font-family="sans-serif" font-size="1.6000" fill="#111111">CoreContourHatch</text>
    <rect x="161.8000" y="36.0000" width="3.5000" height="2.0000" fill="#FF69B4" stroke="#333333" stroke-width="0.08" rx="0.3" ry="0.3"/>
    <text x="168.6000" y="37.9000" font-family="monospace" font-size="1.6000" fill="#444444" text-anchor="end">10</text>
    <text x="169.6000" y="37.9000" font-family="sans-serif" font-size="1.6000" fill="#111111">Shell1OverhangHatch</text>
    <rect x="161.8000" y="39.0000" width="3.5000" height="2.0000" fill="#00CED1" stroke="#333333" stroke-width="0.08" rx="0.3" ry="0.3"/>
    <text x="168.6000" y="40.9000" font-family="monospace" font-size="1.6000" fill="#444444" text-anchor="end">11</text>
    <text x="169.6000" y="40.9000" font-family="sans-serif" font-size="1.6000" fill="#111111">Shell1NormalHatch</text>
    <rect x="161.8000" y="42.0000" width="3.5000" height="2.0000" fill="#FF00FF" stroke="#333333" stroke-width="0.08" rx="0.3" ry="0.3"/>
    <text x="168.6000" y="43.9000" font-family="monospace" font-size="1.6000" fill="#444444" text-anchor="end">12</text>
    <text x="169.6000" y="43.9000" font-family="sans-serif" font-size="1.6000" fill="#111111">Shell1ContourHatch</text>
    <rect x="161.8000" y="45.0000" width="3.5000" height="2.0000" fill="#A52A2A" stroke="#333333" stroke-width="0.08" rx="0.3" ry="0.3"/>
    <text x="168.6000" y="46.9000" font-family="monospace" font-size="1.6000" fill="#444444" text-anchor="end">13</text>
    <text x="169.6000" y="46.9000" font-family="sans-serif" font-size="1.6000" fill="#111111">Shell2OverhangHatch</text>
    <rect x="161.8000" y="48.0000" width="3.5000" height="2.0000" fill="#808080" stroke="#333333" stroke-width="0.08" rx="0.3" ry="0.3"/>
    <text x="168.6000" y="49.9000" font-family="monospace" font-size="1.6000" fill="#444444" text-anchor="end">14</text>
    <text x="169.6000" y="49.9000" font-family="sans-serif" font-size="1.6000" fill="#111111">Shell2NormalHatch</text>
    <rect x="161.8000" y="51.0000" width="3.5000" height="2.0000" fill="#32CD32" stroke="#333333" stroke-width="0.08" rx="0.3" ry="0.3"/>
    <text x="168.6000" y="52.9000" font-family="monospace" font-size="1.6000" fill="#444444" text-anchor="end">15</text>
    <text x="169.6000" y="52.9000" font-family="sans-serif" font-size="1.6000" fill="#111111">Shell2ContourHatch</text>
    <rect x="161.8000" y="54.0000" width="3.5000" height="2.0000" fill="#1A237E" stroke="#333333" stroke-width="0.08" rx="0.3" ry="0.3"/>
    <text x="168.6000" y="55.9000" font-family="monospace" font-size="1.6000" fill="#444444" text-anchor="end">16</text>
    <text x="169.6000" y="55.9000" font-family="sans-serif" font-size="1.6000" fill="#111111">SupportContourVolume</text>
    <rect x="161.8000" y="57.0000" width="3.5000" height="2.0000" fill="#827717" stroke="#333333" stroke-width="0.08" rx="0.3" ry="0.3"/>
    <text x="168.6000" y="58.9000" font-family="monospace" font-size="1.6000" fill="#444444" text-anchor="end">17</text>
    <text x="169.6000" y="58.9000" font-family="sans-serif" font-size="1.6000" fill="#111111">SupportHatch</text>
    <rect x="161.8000" y="60.0000" width="3.5000" height="2.0000" fill="#006064" stroke="#333333" stroke-width="0.08" rx="0.3" ry="0.3"/>
    <text x="168.6000" y="61.9000" font-family="monospace" font-size="1.6000" fill="#444444" text-anchor="end">18</text>
    <text x="169.6000" y="61.9000" font-family="sans-serif" font-size="1.6000" fill="#111111">PointSequence</text>
    <rect x="161.8000" y="63.0000" width="3.5000" height="2.0000" fill="#B71C1C" stroke="#333333" stroke-width="0.08" rx="0.3" ry="0.3"/>
    <text x="168.6000" y="64.9000" font-family="monospace" font-size="1.6000" fill="#444444" text-anchor="end">19</text>
    <text x="169.6000" y="64.9000" font-family="sans-serif" font-size="1.6000" fill="#111111">ExternalSupports</text>
    <rect x="161.8000" y="66.0000" width="3.5000" height="2.0000" fill="#E64A19" stroke="#333333" stroke-width="0.08" rx="0.3" ry="0.3"/>
    <text x="168.6000" y="67.9000" font-family="monospace" font-size="1.6000" fill="#444444" text-anchor="end">20</text>
    <text x="169.6000" y="67.9000" font-family="sans-serif" font-size="1.6000" fill="#111111">CoreContourHatchOverhang</text>
    <rect x="161.8000" y="69.0000" width="3.5000" height="2.0000" fill="#311B92" stroke="#333333" stroke-width="0.08" rx="0.3" ry="0.3"/>
    <text x="168.6000" y="70.9000" font-family="monospace" font-size="1.6000" fill="#444444" text-anchor="end">21</text>
    <text x="169.6000" y="70.9000" font-family="sans-serif" font-size="1.6000" fill="#111111">Shell1ContourHatchOverhang</text>
    <rect x="161.8000" y="72.0000" width="3.5000" height="2.0000" fill="#880E4F" stroke="#333333" stroke-width="0.08" rx="0.3" ry="0.3"/>
    <text x="168.6000" y="73.9000" font-family="monospace" font-size="1.6000" fill="#444444" text-anchor="end">22</text>
    <text x="169.6000" y="73.9000" font-family="sans-serif" font-size="1.6000" fill="#111111">Shell2ContourHatchOverhang</text>
    </g>
  </g>
</svg>
