<?xml version="1.0" encoding="UTF-8" standalone="yes"?>
<svg xmlns="http://www.w3.org/2000/svg"
     xmlns:xlink="http://www.w3.org/1999/xlink"
     width="2020.0000mm" height="1600.0000mm"
     viewBox="0 0 202.000000 160.000000">
  <!--
    Build plate : 150.00 x 150.00 mm
    Coordinate  : 1 SVG unit = 1 mm
    Display zoom: 10x  (width/height = viewBox x 10)
    Hatch stroke: 0.04 mm = ~28 mm on screen at this zoom
    Legend panel: right margin (42 mm wide)
  -->
  <defs>
    <marker id="endArrow" markerWidth="2" markerHeight="1.4"
            refX="0" refY="0.7" orient="auto"
            markerUnits="strokeWidth">
      <polyline fill="darkblue" points="0,0 2,0.7 0,1.4 0.2,0.7"/>
    </marker>
  </defs>
  <!-- Background -->
  <rect x="0" y="0" width="202.000000" height="160.000000" fill="#f0f0f0" stroke="none"/>
  <!-- Build plate boundary (150 x 150 mm) -->
  <rect x="5.000000" y="5.000000" width="150.000000" height="150.000000"
        fill="#ffffff" stroke="#aaaaaa" stroke-width="0.2" stroke-dasharray="1,0.5"/>
  <!-- Build plate centre circle (r = 75.00 mm) -->
  <circle cx="80.000000" cy="80.000000" r="75.000000"
          fill="none" stroke="#bbbbbb" stroke-width="0.15" stroke-dasharray="0.8,0.4"/>
  <!-- Centre cross-hair -->
  <line x1="5.000000" y1="80.000000" x2="155.000000" y2="80.000000" stroke="#cccccc" stroke-width="0.1"/>
  <line x1="80.000000" y1="5.000000" x2="80.000000" y2="155.000000" stroke="#cccccc" stroke-width="0.1"/>
  <circle cx="80.000000" cy="80.000000" r="0.3" fill="#cccccc" stroke="none"/>
  <!-- Corner labels -->
  <text x="5.400000" y="4.600000" font-family="sans-serif" font-size="2" fill="#888888">0,0</text>
  <text x="154.600006" y="4.600000" font-family="sans-serif" font-size="2" fill="#888888" text-anchor="end">150,0</text>
  <text x="5.400000" y="157.199997" font-family="sans-serif" font-size="2" fill="#888888">0,150</text>
  <!-- Layer geometry -->
  <g id="geometry">
    <g class="thermal-hatch" data-segment="8" data-name="CoreNormalHatch">
      <line x1="35.15345" y1="127.54831" x2="34.93675" y2="127.56347" stroke="#228B22" stroke-width="0.04000"/>
      <line x1="35.26916" y1="127.43997" x2="34.64614" y2="127.48354" stroke="#228B22" stroke-width="0.04000"/>
      <line x1="35.38486" y1="127.33164" x2="34.35554" y2="127.40362" stroke="#228B22" stroke-width="0.04000"/>
      <line x1="35.50056" y1="127.22330" x2="34.19926" y2="127.31430" stroke="#228B22" stroke-width="0.04000"/>
      <line x1="35.48847" y1="127.12391" x2="34.10550" y2="127.22062" stroke="#228B22" stroke-width="0.04000"/>
      <line x1="35.45823" y1="127.02577" x2="34.02040" y2="127.12632" stroke="#228B22" stroke-width="0.04000"/>
      <line x1="35.42799" y1="126.92765" x2="33.92830" y2="127.03252" stroke="#228B22" stroke-width="0.04000"/>
      <line x1="35.39776" y1="126.82952" x2="33.83620" y2="126.93871" stroke="#228B22" stroke-width="0.04000"/>
      <line x1="35.36752" y1="126.73138" x2="33.74409" y2="126.84491" stroke="#228B22" stroke-width="0.04000"/>
      <line x1="35.33728" y1="126.63326" x2="33.65199" y2="126.75111" stroke="#228B22" stroke-width="0.04000"/>
      <line x1="35.30665" y1="126.53516" x2="33.55989" y2="126.65730" stroke="#228B22" stroke-width="0.04000"/>
      <line x1="35.27235" y1="126.43731" x2="33.46355" y2="126.56380" stroke="#228B22" stroke-width="0.04000"/>
      <line x1="35.23805" y1="126.33946" x2="33.36659" y2="126.47033" stroke="#228B22" stroke-width="0.04000"/>
      <line x1="35.20143" y1="126.24178" x2="33.26962" y2="126.37686" stroke="#228B22" stroke-width="0.04000"/>
      <line x1="35.16206" y1="126.14429" x2="33.17266" y2="126.28340" stroke="#228B22" stroke-width="0.04000"/>
      <line x1="35.11120" y1="126.04761" x2="33.07570" y2="126.18994" stroke="#228B22" stroke-width="0.04000"/>
      <line x1="35.06033" y1="125.95091" x2="32.95818" y2="126.09791" stroke="#228B22" stroke-width="0.04000"/>
      <line x1="35.00947" y1="125.85423" x2="32.85646" y2="126.00478" stroke="#228B22" stroke-width="0.04000"/>
      <line x1="34.95861" y1="125.75755" x2="32.76340" y2="125.91105" stroke="#228B22" stroke-width="0.04000"/>
      <line x1="34.90774" y1="125.66085" x2="32.67033" y2="125.81731" stroke="#228B22" stroke-width="0.04000"/>
      <line x1="34.85688" y1="125.56416" x2="32.57726" y2="125.72357" stroke="#228B22" stroke-width="0.04000"/>
      <line x1="34.80602" y1="125.46748" x2="32.48419" y2="125.62984" stroke="#228B22" stroke-width="0.04000"/>
      <line x1="34.75471" y1="125.37083" x2="32.39099" y2="125.53611" stroke="#228B22" stroke-width="0.04000"/>
      <line x1="34.70338" y1="125.27416" x2="32.29527" y2="125.44256" stroke="#228B22" stroke-width="0.04000"/>
      <line x1="34.65205" y1="125.17751" x2="32.19953" y2="125.34901" stroke="#228B22" stroke-width="0.04000"/>
      <line x1="34.60072" y1="125.08086" x2="32.10381" y2="125.25546" stroke="#228B22" stroke-width="0.04000"/>
      <line x1="34.53662" y1="124.98510" x2="32.00613" y2="125.16205" stroke="#228B22" stroke-width="0.04000"/>
      <line x1="34.46383" y1="124.88994" x2="31.90684" y2="125.06874" stroke="#228B22" stroke-width="0.04000"/>
      <line x1="34.39104" y1="124.79478" x2="31.80754" y2="124.97544" stroke="#228B22" stroke-width="0.04000"/>
      <line x1="34.31825" y1="124.69963" x2="31.70825" y2="124.88214" stroke="#228B22" stroke-width="0.04000"/>
      <line x1="34.24546" y1="124.60448" x2="31.61056" y2="124.78873" stroke="#228B22" stroke-width="0.04000"/>
      <line x1="34.17732" y1="124.50900" x2="31.56402" y2="124.69173" stroke="#228B22" stroke-width="0.04000"/>
      <line x1="34.11349" y1="124.41322" x2="31.51748" y2="124.59475" stroke="#228B22" stroke-width="0.04000"/>
      <line x1="34.04967" y1="124.31744" x2="31.47095" y2="124.49776" stroke="#228B22" stroke-width="0.04000"/>
      <line x1="33.98584" y1="124.22166" x2="31.42441" y2="124.40077" stroke="#228B22" stroke-width="0.04000"/>
      <line x1="33.92202" y1="124.12587" x2="31.37787" y2="124.30378" stroke="#228B22" stroke-width="0.04000"/>
      <line x1="33.85819" y1="124.03009" x2="31.33134" y2="124.20679" stroke="#228B22" stroke-width="0.04000"/>
      <line x1="33.76510" y1="123.93636" x2="31.25922" y2="124.11159" stroke="#228B22" stroke-width="0.04000"/>
      <line x1="33.66873" y1="123.84285" x2="31.18470" y2="124.01655" stroke="#228B22" stroke-width="0.04000"/>
      <line x1="33.57237" y1="123.74934" x2="31.11018" y2="123.92152" stroke="#228B22" stroke-width="0.04000"/>
      <line x1="33.47898" y1="123.65563" x2="31.08715" y2="123.82289" stroke="#228B22" stroke-width="0.04000"/>
      <line x1="33.39133" y1="123.56152" x2="31.08931" y2="123.72249" stroke="#228B22" stroke-width="0.04000"/>
      <line x1="33.30368" y1="123.46740" x2="31.09147" y2="123.62209" stroke="#228B22" stroke-width="0.04000"/>
      <line x1="33.21603" y1="123.37329" x2="31.09363" y2="123.52170" stroke="#228B22" stroke-width="0.04000"/>
      <line x1="33.12839" y1="123.27917" x2="31.09579" y2="123.42131" stroke="#228B22" stroke-width="0.04000"/>
      <line x1="33.04074" y1="123.18506" x2="31.09795" y2="123.32091" stroke="#228B22" stroke-width="0.04000"/>
      <line x1="32.89123" y1="123.09527" x2="31.10011" y2="123.22051" stroke="#228B22" stroke-width="0.04000"/>
      <line x1="32.68296" y1="123.00959" x2="31.24970" y2="123.10981" stroke="#228B22" stroke-width="0.04000"/>
      <line x1="32.46941" y1="122.92428" x2="31.42050" y2="122.99763" stroke="#228B22" stroke-width="0.04000"/>
      <line x1="32.25586" y1="122.83897" x2="31.68212" y2="122.87909" stroke="#228B22" stroke-width="0.04000"/>
      <line x1="32.04229" y1="122.75365" x2="31.95089" y2="122.76005" stroke="#228B22" stroke-width="0.04000"/>
    </g>
    <g class="thermal-hatch" data-segment="8" data-name="CoreNormalHatch">
      <line x1="52.49991" y1="116.81227" x2="52.28772" y2="116.82711" stroke="#228B22" stroke-width="0.04000"/>
      <line x1="52.65903" y1="116.70090" x2="52.15303" y2="116.73628" stroke="#228B22" stroke-width="0.04000"/>
      <line x1="52.81816" y1="116.58953" x2="52.01833" y2="116.64546" stroke="#228B22" stroke-width="0.04000"/>
      <line x1="52.97730" y1="116.47816" x2="51.88364" y2="116.55463" stroke="#228B22" stroke-width="0.04000"/>
      <line x1="53.13643" y1="116.36678" x2="51.74894" y2="116.46381" stroke="#228B22" stroke-width="0.04000"/>
      <line x1="53.16127" y1="116.26481" x2="51.61424" y2="116.37299" stroke="#228B22" stroke-width="0.04000"/>
      <line x1="53.11621" y1="116.16771" x2="51.47727" y2="116.28232" stroke="#228B22" stroke-width="0.04000"/>
      <line x1="53.07115" y1="116.07063" x2="51.33981" y2="116.19169" stroke="#228B22" stroke-width="0.04000"/>
      <line x1="53.02609" y1="115.97353" x2="51.20187" y2="116.10109" stroke="#228B22" stroke-width="0.04000"/>
      <line x1="52.98104" y1="115.87643" x2="51.06394" y2="116.01049" stroke="#228B22" stroke-width="0.04000"/>
      <line x1="52.93598" y1="115.77934" x2="50.92601" y2="115.91989" stroke="#228B22" stroke-width="0.04000"/>
      <line x1="52.89538" y1="115.68193" x2="50.78807" y2="115.82929" stroke="#228B22" stroke-width="0.04000"/>
      <line x1="52.85651" y1="115.58441" x2="50.64975" y2="115.73872" stroke="#228B22" stroke-width="0.04000"/>
      <line x1="52.81763" y1="115.48689" x2="50.51041" y2="115.64822" stroke="#228B22" stroke-width="0.04000"/>
      <line x1="52.75678" y1="115.39089" x2="50.37024" y2="115.55778" stroke="#228B22" stroke-width="0.04000"/>
      <line x1="52.67429" y1="115.29642" x2="50.22519" y2="115.46767" stroke="#228B22" stroke-width="0.04000"/>
      <line x1="52.59145" y1="115.20197" x2="50.08014" y2="115.37757" stroke="#228B22" stroke-width="0.04000"/>
      <line x1="52.50823" y1="115.10754" x2="49.93509" y2="115.28748" stroke="#228B22" stroke-width="0.04000"/>
      <line x1="52.42501" y1="115.01311" x2="49.79004" y2="115.19737" stroke="#228B22" stroke-width="0.04000"/>
      <line x1="52.34179" y1="114.91869" x2="49.66112" y2="115.10614" stroke="#228B22" stroke-width="0.04000"/>
      <line x1="52.25858" y1="114.82426" x2="49.54392" y2="115.01409" stroke="#228B22" stroke-width="0.04000"/>
      <line x1="52.15626" y1="114.73118" x2="49.42379" y2="114.92225" stroke="#228B22" stroke-width="0.04000"/>
      <line x1="52.03584" y1="114.63935" x2="49.27358" y2="114.83250" stroke="#228B22" stroke-width="0.04000"/>
      <line x1="51.91543" y1="114.54753" x2="49.12338" y2="114.74277" stroke="#228B22" stroke-width="0.04000"/>
      <line x1="51.79502" y1="114.45570" x2="48.97317" y2="114.65303" stroke="#228B22" stroke-width="0.04000"/>
      <line x1="51.68720" y1="114.36300" x2="48.82296" y2="114.56329" stroke="#228B22" stroke-width="0.04000"/>
      <line x1="51.58829" y1="114.26967" x2="48.67275" y2="114.47354" stroke="#228B22" stroke-width="0.04000"/>
      <line x1="51.48939" y1="114.17635" x2="48.52818" y2="114.38342" stroke="#228B22" stroke-width="0.04000"/>
      <line x1="51.38401" y1="114.08347" x2="48.41709" y2="114.29093" stroke="#228B22" stroke-width="0.04000"/>
      <line x1="51.27311" y1="113.99098" x2="48.30601" y2="114.19846" stroke="#228B22" stroke-width="0.04000"/>
      <line x1="51.16220" y1="113.89849" x2="48.19492" y2="114.10598" stroke="#228B22" stroke-width="0.04000"/>
      <line x1="51.05130" y1="113.80600" x2="48.08384" y2="114.01351" stroke="#228B22" stroke-width="0.04000"/>
      <line x1="50.94039" y1="113.71352" x2="47.97275" y2="113.92103" stroke="#228B22" stroke-width="0.04000"/>
      <line x1="50.82888" y1="113.62106" x2="47.86166" y2="113.82855" stroke="#228B22" stroke-width="0.04000"/>
      <line x1="50.71671" y1="113.52866" x2="47.75058" y2="113.73608" stroke="#228B22" stroke-width="0.04000"/>
      <line x1="50.59981" y1="113.43660" x2="47.63593" y2="113.64385" stroke="#228B22" stroke-width="0.04000"/>
      <line x1="50.49459" y1="113.34371" x2="47.50663" y2="113.55265" stroke="#228B22" stroke-width="0.04000"/>
      <line x1="50.40060" y1="113.25004" x2="47.41780" y2="113.45861" stroke="#228B22" stroke-width="0.04000"/>
      <line x1="50.30662" y1="113.15636" x2="47.32896" y2="113.36459" stroke="#228B22" stroke-width="0.04000"/>
      <line x1="50.21263" y1="113.06269" x2="47.24013" y2="113.27055" stroke="#228B22" stroke-width="0.04000"/>
      <line x1="50.11865" y1="112.96902" x2="47.15129" y2="113.17652" stroke="#228B22" stroke-width="0.04000"/>
      <line x1="50.02466" y1="112.87535" x2="47.06246" y2="113.08249" stroke="#228B22" stroke-width="0.04000"/>
      <line x1="49.91770" y1="112.78259" x2="46.97363" y2="112.98846" stroke="#228B22" stroke-width="0.04000"/>
      <line x1="49.80547" y1="112.69019" x2="46.87671" y2="112.89498" stroke="#228B22" stroke-width="0.04000"/>
      <line x1="49.69325" y1="112.59779" x2="46.75676" y2="112.80313" stroke="#228B22" stroke-width="0.04000"/>
      <line x1="49.58102" y1="112.50539" x2="46.63679" y2="112.71127" stroke="#228B22" stroke-width="0.04000"/>
      <line x1="49.46880" y1="112.41300" x2="46.56779" y2="112.61586" stroke="#228B22" stroke-width="0.04000"/>
      <line x1="49.35657" y1="112.32060" x2="46.50201" y2="112.52021" stroke="#228B22" stroke-width="0.04000"/>
      <line x1="49.26800" y1="112.22655" x2="46.43623" y2="112.42457" stroke="#228B22" stroke-width="0.04000"/>
      <line x1="49.17920" y1="112.13251" x2="46.37045" y2="112.32893" stroke="#228B22" stroke-width="0.04000"/>
      <line x1="49.08872" y1="112.03860" x2="46.30466" y2="112.23328" stroke="#228B22" stroke-width="0.04000"/>
      <line x1="48.99825" y1="111.94468" x2="46.22157" y2="112.13885" stroke="#228B22" stroke-width="0.04000"/>
      <line x1="48.90778" y1="111.85076" x2="46.13712" y2="112.04450" stroke="#228B22" stroke-width="0.04000"/>
      <line x1="48.81730" y1="111.75684" x2="46.05268" y2="111.95016" stroke="#228B22" stroke-width="0.04000"/>
      <line x1="48.72683" y1="111.66293" x2="45.96824" y2="111.85583" stroke="#228B22" stroke-width="0.04000"/>
      <line x1="48.63635" y1="111.56901" x2="45.88380" y2="111.76149" stroke="#228B22" stroke-width="0.04000"/>
      <line x1="48.54588" y1="111.47509" x2="45.79935" y2="111.66714" stroke="#228B22" stroke-width="0.04000"/>
      <line x1="48.46623" y1="111.38042" x2="45.75466" y2="111.57003" stroke="#228B22" stroke-width="0.04000"/>
      <line x1="48.38899" y1="111.28558" x2="45.71379" y2="111.47264" stroke="#228B22" stroke-width="0.04000"/>
      <line x1="48.31331" y1="111.19062" x2="45.67027" y2="111.37544" stroke="#228B22" stroke-width="0.04000"/>
      <line x1="48.23825" y1="111.09563" x2="45.62390" y2="111.27844" stroke="#228B22" stroke-width="0.04000"/>
      <line x1="48.16320" y1="111.00063" x2="45.57753" y2="111.18144" stroke="#228B22" stroke-width="0.04000"/>
      <line x1="48.08814" y1="110.90564" x2="45.53115" y2="111.08443" stroke="#228B22" stroke-width="0.04000"/>
      <line x1="48.01308" y1="110.81064" x2="45.48478" y2="110.98743" stroke="#228B22" stroke-width="0.04000"/>
      <line x1="47.93802" y1="110.71564" x2="45.43841" y2="110.89043" stroke="#228B22" stroke-width="0.04000"/>
      <line x1="47.86296" y1="110.62065" x2="45.39204" y2="110.79343" stroke="#228B22" stroke-width="0.04000"/>
      <line x1="47.78791" y1="110.52566" x2="45.34567" y2="110.69643" stroke="#228B22" stroke-width="0.04000"/>
      <line x1="47.69173" y1="110.43214" x2="45.30066" y2="110.59933" stroke="#228B22" stroke-width="0.04000"/>
      <line x1="47.61599" y1="110.33719" x2="45.26950" y2="110.50127" stroke="#228B22" stroke-width="0.04000"/>
      <line x1="47.52924" y1="110.24301" x2="45.27060" y2="110.40095" stroke="#228B22" stroke-width="0.04000"/>
      <line x1="47.44250" y1="110.14883" x2="45.27159" y2="110.30064" stroke="#228B22" stroke-width="0.04000"/>
      <line x1="47.35576" y1="110.05465" x2="45.27258" y2="110.20032" stroke="#228B22" stroke-width="0.04000"/>
      <line x1="47.26902" y1="109.96047" x2="45.27357" y2="110.10001" stroke="#228B22" stroke-width="0.04000"/>
      <line x1="47.18228" y1="109.86629" x2="45.27456" y2="109.99969" stroke="#228B22" stroke-width="0.04000"/>
      <line x1="47.09554" y1="109.77212" x2="45.27555" y2="109.89938" stroke="#228B22" stroke-width="0.04000"/>
      <line x1="47.00880" y1="109.67794" x2="45.27654" y2="109.79907" stroke="#228B22" stroke-width="0.04000"/>
      <line x1="46.92759" y1="109.58337" x2="45.27753" y2="109.69875" stroke="#228B22" stroke-width="0.04000"/>
      <line x1="46.84929" y1="109.48860" x2="45.27853" y2="109.59844" stroke="#228B22" stroke-width="0.04000"/>
      <line x1="46.70147" y1="109.39870" x2="45.41775" y2="109.48846" stroke="#228B22" stroke-width="0.04000"/>
      <line x1="46.54335" y1="109.30951" x2="45.59678" y2="109.37570" stroke="#228B22" stroke-width="0.04000"/>
      <line x1="46.38522" y1="109.22032" x2="45.77583" y2="109.26293" stroke="#228B22" stroke-width="0.04000"/>
    </g>
    <g class="thermal-hatch" data-segment="8" data-name="CoreNormalHatch">
      <line x1="32.61640" y1="123.29540" x2="32.82910" y2="123.38330" stroke="#228B22" stroke-width="0.04000"/>
      <line x1="32.82910" y1="123.38330" x2="33.30150" y2="123.89070" stroke="#228B22" stroke-width="0.04000"/>
      <line x1="33.30150" y1="123.89070" x2="33.62780" y2="124.20720" stroke="#228B22" stroke-width="0.04000"/>
      <line x1="33.62780" y1="124.20720" x2="33.97430" y2="124.72740" stroke="#228B22" stroke-width="0.04000"/>
      <line x1="33.97430" y1="124.72740" x2="34.33510" y2="125.19910" stroke="#228B22" stroke-width="0.04000"/>
      <line x1="34.33510" y1="125.19910" x2="34.53490" y2="125.57510" stroke="#228B22" stroke-width="0.04000"/>
      <line x1="34.53490" y1="125.57510" x2="34.53490" y2="125.57500" stroke="#228B22" stroke-width="0.04000"/>
      <line x1="34.53490" y1="125.57500" x2="34.90510" y2="126.27860" stroke="#228B22" stroke-width="0.04000"/>
      <line x1="34.90510" y1="126.27860" x2="34.95760" y2="126.41610" stroke="#228B22" stroke-width="0.04000"/>
      <line x1="34.95760" y1="126.41610" x2="35.03390" y2="126.63360" stroke="#228B22" stroke-width="0.04000"/>
      <line x1="35.03390" y1="126.63360" x2="35.18430" y2="127.12180" stroke="#228B22" stroke-width="0.04000"/>
      <line x1="35.18430" y1="127.12180" x2="35.01190" y2="127.28330" stroke="#228B22" stroke-width="0.04000"/>
      <line x1="35.01190" y1="127.28330" x2="34.42510" y2="127.12190" stroke="#228B22" stroke-width="0.04000"/>
      <line x1="34.42510" y1="127.12190" x2="34.36360" y2="127.07480" stroke="#228B22" stroke-width="0.04000"/>
      <line x1="34.36360" y1="127.07480" x2="34.25350" y2="126.94980" stroke="#228B22" stroke-width="0.04000"/>
      <line x1="34.25350" y1="126.94980" x2="33.75210" y2="126.43930" stroke="#228B22" stroke-width="0.04000"/>
      <line x1="33.75210" y1="126.43930" x2="33.26350" y2="125.96820" stroke="#228B22" stroke-width="0.04000"/>
      <line x1="33.26350" y1="125.96820" x2="33.11010" y2="125.84850" stroke="#228B22" stroke-width="0.04000"/>
      <line x1="33.11010" y1="125.84850" x2="32.60000" y2="125.33490" stroke="#228B22" stroke-width="0.04000"/>
      <line x1="32.60000" y1="125.33490" x2="32.26090" y2="125.00340" stroke="#228B22" stroke-width="0.04000"/>
      <line x1="32.26090" y1="125.00340" x2="31.84990" y2="124.61730" stroke="#228B22" stroke-width="0.04000"/>
      <line x1="31.84990" y1="124.61730" x2="31.57510" y2="124.04450" stroke="#228B22" stroke-width="0.04000"/>
      <line x1="31.57510" y1="124.04450" x2="31.37770" y2="123.79290" stroke="#228B22" stroke-width="0.04000"/>
      <line x1="31.37770" y1="123.79290" x2="31.38690" y2="123.36640" stroke="#228B22" stroke-width="0.04000"/>
      <line x1="31.38690" y1="123.36640" x2="31.57250" y2="123.24450" stroke="#228B22" stroke-width="0.04000"/>
      <line x1="31.57250" y1="123.24450" x2="32.00730" y2="123.05190" stroke="#228B22" stroke-width="0.04000"/>
      <line x1="32.00730" y1="123.05190" x2="32.61640" y2="123.29540" stroke="#228B22" stroke-width="0.04000"/>
      <line x1="46.27140" y1="109.48900" x2="46.64960" y2="109.70230" stroke="#228B22" stroke-width="0.04000"/>
      <line x1="46.64960" y1="109.70230" x2="46.76030" y2="109.83630" stroke="#228B22" stroke-width="0.04000"/>
      <line x1="46.76030" y1="109.83630" x2="47.42080" y2="110.55340" stroke="#228B22" stroke-width="0.04000"/>
      <line x1="47.42080" y1="110.55340" x2="47.54490" y2="110.72140" stroke="#228B22" stroke-width="0.04000"/>
      <line x1="47.54490" y1="110.72140" x2="47.59230" y2="110.74590" stroke="#228B22" stroke-width="0.04000"/>
      <line x1="47.59230" y1="110.74590" x2="48.14070" y2="111.43990" stroke="#228B22" stroke-width="0.04000"/>
      <line x1="48.14070" y1="111.43990" x2="48.31220" y2="111.65050" stroke="#228B22" stroke-width="0.04000"/>
      <line x1="48.31220" y1="111.65050" x2="49.03110" y2="112.39660" stroke="#228B22" stroke-width="0.04000"/>
      <line x1="49.03110" y1="112.39660" x2="49.13860" y2="112.51680" stroke="#228B22" stroke-width="0.04000"/>
      <line x1="49.13860" y1="112.51680" x2="49.80360" y2="113.06430" stroke="#228B22" stroke-width="0.04000"/>
      <line x1="49.80360" y1="113.06430" x2="50.35340" y2="113.61240" stroke="#228B22" stroke-width="0.04000"/>
      <line x1="50.35340" y1="113.61240" x2="50.50580" y2="113.73080" stroke="#228B22" stroke-width="0.04000"/>
      <line x1="50.50580" y1="113.73080" x2="50.71030" y2="113.89920" stroke="#228B22" stroke-width="0.04000"/>
      <line x1="50.71030" y1="113.89920" x2="50.71030" y2="113.89910" stroke="#228B22" stroke-width="0.04000"/>
      <line x1="50.71030" y1="113.89910" x2="51.25060" y2="114.34950" stroke="#228B22" stroke-width="0.04000"/>
      <line x1="51.25060" y1="114.34950" x2="51.55720" y2="114.63900" stroke="#228B22" stroke-width="0.04000"/>
      <line x1="51.55720" y1="114.63900" x2="52.01940" y2="114.99120" stroke="#228B22" stroke-width="0.04000"/>
      <line x1="52.01940" y1="114.99120" x2="52.40060" y2="115.42380" stroke="#228B22" stroke-width="0.04000"/>
      <line x1="52.40060" y1="115.42380" x2="52.40060" y2="115.42390" stroke="#228B22" stroke-width="0.04000"/>
      <line x1="52.40060" y1="115.42390" x2="52.54720" y2="115.59170" stroke="#228B22" stroke-width="0.04000"/>
      <line x1="52.54720" y1="115.59170" x2="52.65690" y2="115.86710" stroke="#228B22" stroke-width="0.04000"/>
      <line x1="52.65690" y1="115.86710" x2="52.82550" y2="116.23040" stroke="#228B22" stroke-width="0.04000"/>
      <line x1="52.82550" y1="116.23040" x2="52.38190" y2="116.54090" stroke="#228B22" stroke-width="0.04000"/>
      <line x1="52.38190" y1="116.54090" x2="51.76230" y2="116.12300" stroke="#228B22" stroke-width="0.04000"/>
      <line x1="51.76230" y1="116.12300" x2="51.54920" y2="115.98230" stroke="#228B22" stroke-width="0.04000"/>
      <line x1="51.54920" y1="115.98230" x2="50.84800" y2="115.52180" stroke="#228B22" stroke-width="0.04000"/>
      <line x1="50.84800" y1="115.52180" x2="50.54690" y2="115.32610" stroke="#228B22" stroke-width="0.04000"/>
      <line x1="50.54690" y1="115.32610" x2="49.89410" y2="114.92060" stroke="#228B22" stroke-width="0.04000"/>
      <line x1="49.89410" y1="114.92060" x2="49.60180" y2="114.69070" stroke="#228B22" stroke-width="0.04000"/>
      <line x1="49.60180" y1="114.69070" x2="48.73910" y2="114.17530" stroke="#228B22" stroke-width="0.04000"/>
      <line x1="48.73910" y1="114.17530" x2="48.70720" y2="114.15500" stroke="#228B22" stroke-width="0.04000"/>
      <line x1="48.70720" y1="114.15500" x2="47.83030" y2="113.42510" stroke="#228B22" stroke-width="0.04000"/>
      <line x1="47.83030" y1="113.42510" x2="47.70630" y2="113.34160" stroke="#228B22" stroke-width="0.04000"/>
      <line x1="47.70630" y1="113.34160" x2="47.10280" y2="112.70270" stroke="#228B22" stroke-width="0.04000"/>
      <line x1="47.10280" y1="112.70270" x2="46.84250" y2="112.50340" stroke="#228B22" stroke-width="0.04000"/>
      <line x1="46.84250" y1="112.50340" x2="46.52840" y2="112.04690" stroke="#228B22" stroke-width="0.04000"/>
      <line x1="46.52840" y1="112.04690" x2="46.04040" y2="111.50160" stroke="#228B22" stroke-width="0.04000"/>
      <line x1="46.04040" y1="111.50160" x2="45.95730" y2="111.30360" stroke="#228B22" stroke-width="0.04000"/>
      <line x1="45.95730" y1="111.30360" x2="45.60130" y2="110.55890" stroke="#228B22" stroke-width="0.04000"/>
      <line x1="45.60130" y1="110.55890" x2="45.55970" y2="110.46890" stroke="#228B22" stroke-width="0.04000"/>
      <line x1="45.55970" y1="110.46890" x2="45.56060" y2="110.40480" stroke="#228B22" stroke-width="0.04000"/>
      <line x1="45.56060" y1="110.40480" x2="45.56700" y2="109.73700" stroke="#228B22" stroke-width="0.04000"/>
      <line x1="45.56700" y1="109.73700" x2="45.98420" y2="109.47430" stroke="#228B22" stroke-width="0.04000"/>
      <line x1="45.98420" y1="109.47430" x2="46.27140" y2="109.48900" stroke="#228B22" stroke-width="0.04000"/>
    </g>
    <g class="thermal-contour" data-segment="1" data-name="CoreContour_Volume">
    <path d="M 32.7127 123.021 L 32.9984 123.14 L 33.5088 123.688 L 33.8518 124.02 L 34.2104 124.559 L 34.5799 125.042 L 34.8029 125.462 L 35.1699 126.159 L 35.2305 126.318 L 35.31 126.545 L 35.515 127.21 L 35.0917 127.606 L 34.294 127.387 L 34.1646 127.288 L 34.041 127.147 L 33.548 126.645 L 33.0732 126.188 L 32.9173 126.066 L 32.3958 125.541 L 32.0602 125.213 L 31.612 124.792 L 31.3274 124.198 L 31.0857 123.89 L 31.1004 123.208 L 31.433 122.989 L 32.0018 122.737 L 32.7127 123.021" fill="none" stroke="#000000" stroke-width="0.05000" fill-rule="evenodd" fill-opacity="1.000"/>
    </g>
    <g class="thermal-contour" data-segment="1" data-name="CoreContour_Volume">
    <path d="M 46.3544 109.203 L 46.8392 109.476 L 46.9789 109.646 L 47.6444 110.368 L 47.7381 110.495 L 47.7813 110.517 L 48.3669 111.258 L 48.5294 111.458 L 49.2446 112.2 L 49.3399 112.307 L 49.9976 112.848 L 50.5454 113.394 L 50.6895 113.506 L 50.8824 113.665 L 51.4439 114.133 L 51.7451 114.418 L 52.2181 114.778 L 52.6314 115.247 L 52.6314 115.247 L 52.7983 115.438 L 52.9234 115.752 L 53.1909 116.329 L 52.4925 116.817 L 52.3696 116.882 L 51.6013 116.364 L 51.3897 116.224 L 50.6894 115.764 L 50.3914 115.571 L 49.729 115.159 L 49.4371 114.93 L 48.5898 114.424 L 48.5545 114.402 L 48.5399 114.393 L 47.656 113.657 L 47.5176 113.564 L 46.9079 112.919 L 46.6297 112.706 L 46.2999 112.226 L 45.7919 111.659 L 45.6926 111.422 L 45.3397 110.684 L 45.2874 110.571 L 45.2691 110.537 L 45.2706 110.402 L 45.2787 109.576 L 45.9075 109.18 L 46.3544 109.203" fill="none" stroke="#000000" stroke-width="0.05000" fill-rule="evenodd" fill-opacity="1.000"/>
    </g>
    <g class="thermal-contour" data-segment="1" data-name="CoreContour_Volume">
    <path d="M 32.6498 123.212 L 32.8816 123.308 L 33.3658 123.828 L 33.6974 124.149 L 34.0476 124.675 L 34.4111 125.15 L 34.6144 125.533 L 34.9875 126.242 L 35.0417 126.384 L 35.1195 126.606 L 35.2869 127.149 L 35.0366 127.383 L 34.3844 127.204 L 34.3021 127.141 L 34.1876 127.011 L 33.6888 126.503 L 33.2044 126.036 L 33.0505 125.916 L 32.5366 125.399 L 32.1986 125.068 L 31.7762 124.672 L 31.4982 124.092 L 31.2871 123.823 L 31.298 123.317 L 31.5294 123.165 L 32.0056 122.954 L 32.6498 123.212" fill="none" stroke="#000000" stroke-width="0.05000" fill-rule="evenodd" fill-opacity="1.000"/>
    <path d="M 31.5725 123.244 L 31.3869 123.366 L 31.3777 123.793 L 31.5751 124.045 L 31.8499 124.617 L 32.2609 125.003 L 32.6 125.335 L 33.1101 125.849 L 33.2635 125.968 L 33.7521 126.439 L 34.2535 126.95 L 34.3636 127.075 L 34.4251 127.122 L 35.0119 127.283 L 35.1843 127.122 L 35.0339 126.634 L 34.9576 126.416 L 34.9051 126.279 L 34.5349 125.575 L 34.5349 125.575 L 34.3351 125.199 L 33.9743 124.727 L 33.6278 124.207 L 33.3015 123.891 L 32.8291 123.383 L 32.6164 123.295 L 32.0073 123.052 L 31.5725 123.244" fill="none" stroke="#000000" stroke-width="0.05000" fill-rule="evenodd" fill-opacity="1.000"/>
    <path d="M 46.2972 109.4 L 46.7084 109.632 L 46.8281 109.777 L 47.4904 110.496 L 47.6049 110.651 L 47.6509 110.675 L 48.2109 111.384 L 48.3796 111.591 L 49.0982 112.337 L 49.2011 112.452 L 49.8636 112.997 L 50.413 113.545 L 50.5645 113.662 L 50.5645 113.662 L 50.7675 113.83 L 51.3106 114.283 L 51.6155 114.57 L 52.0811 114.925 L 52.4684 115.365 L 52.6251 115.544 L 52.7396 115.831 L 52.9389 116.261 L 52.3889 116.646 L 52.382 116.649 L 51.7123 116.198 L 51.4997 116.058 L 50.7988 115.597 L 50.4986 115.402 L 49.8432 114.995 L 49.5507 114.765 L 48.6939 114.253 L 48.6938 114.253 L 48.6581 114.23 L 48.6551 114.229 L 47.7762 113.497 L 47.6478 113.411 L 47.0423 112.77 L 46.7765 112.566 L 46.4575 112.103 L 45.9633 111.55 L 45.8752 111.34 L 45.5201 110.598 L 45.4695 110.488 L 45.4706 110.404 L 45.4775 109.687 L 45.9603 109.383 L 46.2972 109.4" fill="none" stroke="#000000" stroke-width="0.05000" fill-rule="evenodd" fill-opacity="1.000"/>
    <path d="M 45.567 109.737 L 45.5606 110.405 L 45.5597 110.469 L 45.6013 110.559 L 45.9573 111.304 L 46.0404 111.502 L 46.5284 112.047 L 46.8425 112.503 L 47.1028 112.703 L 47.7063 113.342 L 47.8303 113.425 L 48.7072 114.155 L 48.7391 114.175 L 49.6018 114.691 L 49.8941 114.921 L 50.5469 115.326 L 50.848 115.522 L 51.5492 115.982 L 51.7623 116.123 L 52.3819 116.541 L 52.8255 116.23 L 52.6569 115.867 L 52.5472 115.592 L 52.4006 115.424 L 52.4006 115.424 L 52.0194 114.991 L 51.5572 114.639 L 51.2506 114.35 L 50.7103 113.899 L 50.7103 113.899 L 50.5058 113.731 L 50.3534 113.612 L 49.8036 113.064 L 49.1386 112.517 L 49.0311 112.397 L 48.3122 111.65 L 48.1407 111.44 L 47.5923 110.746 L 47.5449 110.721 L 47.4208 110.553 L 46.7603 109.836 L 46.6496 109.702 L 46.2714 109.489 L 45.9842 109.474 L 45.567 109.737" fill="none" stroke="#000000" stroke-width="0.05000" fill-rule="evenodd" fill-opacity="1.000"/>
    </g>
    <g class="thermal-contour" data-segment="3" data-name="HollowShell1Contour_Volume">
    <path d="M 32.7127 123.021 L 32.9984 123.14 L 33.5088 123.688 L 33.8518 124.021 L 34.2104 124.559 L 34.5799 125.042 L 34.8029 125.462 L 35.1699 126.159 L 35.2305 126.318 L 35.31 126.545 L 35.515 127.21 L 35.0917 127.606 L 34.3721 127.408 L 34.1979 127.275 L 33.8779 126.911 L 33.6122 126.641 L 33.1824 126.226 L 33.049 126.076 L 32.8026 125.833 L 32.3696 125.397 L 32.2378 125.268 L 31.5976 124.666 L 31.4316 124.32 L 31.0859 123.879 L 31.0886 123.758 L 31.1004 123.208 L 31.433 122.989 L 32.0018 122.738 L 32.7127 123.021" fill="none" stroke="#0000CC" stroke-width="0.05000" fill-rule="evenodd" fill-opacity="1.000"/>
    <path d="M 31.4812 123.077 L 31.1992 123.263 L 31.1864 123.857 L 31.4128 124.145 L 31.6941 124.732 L 32.1294 125.141 L 32.4662 125.47 L 32.9839 125.991 L 33.1388 126.112 L 33.6184 126.574 L 34.1143 127.079 L 34.2332 127.214 L 34.3393 127.295 L 35.0642 127.495 L 35.4009 127.179 L 35.2144 126.574 L 35.1361 126.351 L 35.1361 126.351 L 35.0787 126.201 L 34.7144 125.508 L 34.7144 125.508 L 34.4955 125.096 L 34.129 124.617 L 33.7746 124.085 L 33.4373 123.758 L 32.94 123.224 L 32.6756 123.114 L 32.6756 123.114 L 32.0037 122.846 L 31.4812 123.077" fill="none" stroke="#0000CC" stroke-width="0.05000" fill-rule="evenodd" fill-opacity="1.000"/>
    <path d="M 46.3544 109.203 L 46.771 109.438 L 47.0298 109.751 L 47.614 110.385 L 47.7427 110.549 L 48.3565 111.317 L 48.3558 111.319 L 48.3927 111.354 L 49.2063 112.191 L 49.2873 112.248 L 49.3399 112.307 L 49.9976 112.848 L 50.5454 113.394 L 50.6895 113.506 L 50.8824 113.665 L 51.4439 114.133 L 51.7451 114.418 L 52.2181 114.778 L 52.6314 115.247 L 52.7983 115.438 L 52.9234 115.752 L 53.1909 116.329 L 52.4925 116.817 L 52.4449 116.842 L 52.408 116.855 L 51.8617 116.507 L 51.544 116.292 L 51.4744 116.246 L 50.6041 115.675 L 50.5115 115.615 L 49.6317 115.068 L 49.4976 114.963 L 49.1085 114.73 L 48.5851 114.399 L 48.4583 114.325 L 48.4471 114.316 L 47.656 113.657 L 47.5176 113.564 L 46.9079 112.919 L 46.6297 112.706 L 46.2999 112.226 L 45.7919 111.659 L 45.6926 111.422 L 45.3397 110.684 L 45.2874 110.571 L 45.2691 110.537 L 45.2706 110.402 L 45.2787 109.576 L 45.9075 109.18 L 46.3544 109.203" fill="none" stroke="#0000CC" stroke-width="0.05000" fill-rule="evenodd" fill-opacity="1.000"/>
    <path d="M 45.3781 109.632 L 45.3706 110.403 L 45.3693 110.512 L 45.3768 110.526 L 45.4299 110.641 L 45.7839 111.381 L 45.8776 111.605 L 46.3787 112.164 L 46.7031 112.636 L 46.9751 112.844 L 47.5827 113.488 L 47.7161 113.577 L 48.5974 114.311 L 48.6062 114.316 L 48.6426 114.339 L 49.4939 114.848 L 49.7864 115.077 L 50.445 115.487 L 50.7441 115.681 L 51.4447 116.141 L 51.6568 116.281 L 52.3758 116.766 L 52.4407 116.732 L 53.0649 116.295 L 52.8315 115.792 L 52.7117 115.491 L 52.5561 115.313 L 52.5561 115.313 L 52.1496 114.852 L 51.6803 114.494 L 51.3777 114.208 L 50.8188 113.742 L 50.8188 113.742 L 50.6281 113.585 L 50.4792 113.469 L 49.9306 112.923 L 49.2705 112.379 L 49.1714 112.269 L 48.4545 111.524 L 48.2889 111.321 L 47.7161 110.596 L 47.6715 110.573 L 47.5674 110.432 L 46.9035 109.711 L 46.7738 109.554 L 46.3258 109.301 L 45.9339 109.282 L 45.3781 109.632" fill="none" stroke="#0000CC" stroke-width="0.05000" fill-rule="evenodd" fill-opacity="1.000"/>
    </g>
    <g class="thermal-contour" data-segment="4" data-name="HollowShell1Contour_Overhang">
    <path d="M 31.4316 124.32 L 31.5976 124.666 L 32.2378 125.268 L 32.3696 125.397 L 32.8026 125.833 L 33.049 126.076 L 33.1824 126.226 L 33.6122 126.641 L 33.8779 126.911 L 34.1979 127.275 L 34.3721 127.408 L 34.294 127.387 L 34.1646 127.288 L 34.041 127.147 L 33.548 126.645 L 33.0732 126.188 L 32.9173 126.066 L 32.3958 125.541 L 32.0602 125.213 L 31.612 124.792 L 31.3274 124.199 L 31.0857 123.89 L 31.0859 123.879 L 31.4316 124.32" fill="none" stroke="#000080" stroke-width="0.05000" fill-rule="evenodd" fill-opacity="1.000"/>
    <path d="M 48.5851 114.399 L 49.1085 114.73 L 49.4976 114.963 L 49.6317 115.068 L 50.5115 115.615 L 50.6041 115.675 L 51.4744 116.246 L 51.544 116.292 L 51.8617 116.507 L 52.408 116.855 L 52.4449 116.842 L 52.3696 116.882 L 51.6013 116.364 L 51.3897 116.225 L 50.6894 115.765 L 50.3914 115.571 L 49.729 115.16 L 49.4371 114.93 L 48.5898 114.424 L 48.5545 114.402 L 48.5399 114.393 L 48.4583 114.325 L 48.5851 114.399" fill="none" stroke="#000080" stroke-width="0.05000" fill-rule="evenodd" fill-opacity="1.000"/>
    <path d="M 46.8392 109.476 L 46.9789 109.646 L 47.6444 110.368 L 47.7381 110.495 L 47.7813 110.517 L 48.3669 111.258 L 48.5294 111.458 L 49.2446 112.2 L 49.2875 112.248 L 49.2063 112.191 L 48.3927 111.354 L 48.3558 111.319 L 48.3565 111.317 L 47.7427 110.549 L 47.614 110.385 L 47.0298 109.751 L 46.771 109.438 L 46.8392 109.476" fill="none" stroke="#000080" stroke-width="0.05000" fill-rule="evenodd" fill-opacity="1.000"/>
    </g>
    <g class="thermal-contour" data-segment="5" data-name="HollowShell2Contour_Volume">
    <path d="M 32.6756 123.114 L 32.6756 123.114 L 32.94 123.224 L 33.4373 123.758 L 33.7746 124.085 L 34.129 124.617 L 34.4955 125.096 L 34.7144 125.508 L 34.7144 125.508 L 35.0787 126.201 L 35.1361 126.351 L 35.1361 126.351 L 35.2144 126.574 L 35.4009 127.179 L 35.0642 127.495 L 34.3393 127.295 L 34.2332 127.214 L 34.1143 127.079 L 33.6184 126.574 L 33.1388 126.112 L 32.9839 125.991 L 32.4662 125.47 L 32.1294 125.141 L 31.6941 124.732 L 31.4128 124.145 L 31.1864 123.857 L 31.1992 123.263 L 31.4812 123.077 L 32.0037 122.846 L 32.6756 123.114" fill="none" stroke="#B8860B" stroke-width="0.05000" fill-rule="evenodd" fill-opacity="1.000"/>
    <path d="M 31.5294 123.165 L 31.298 123.317 L 31.2871 123.823 L 31.4982 124.092 L 31.7762 124.672 L 32.1986 125.068 L 32.5366 125.399 L 33.0505 125.916 L 33.2044 126.036 L 33.6888 126.503 L 34.1876 127.011 L 34.3021 127.141 L 34.3844 127.204 L 35.0366 127.383 L 35.2869 127.149 L 35.1195 126.606 L 35.0417 126.384 L 34.9875 126.242 L 34.6144 125.533 L 34.4111 125.15 L 34.0476 124.675 L 33.6974 124.149 L 33.3658 123.828 L 32.8816 123.308 L 32.6498 123.212 L 32.0056 122.954 L 31.5294 123.165" fill="none" stroke="#B8860B" stroke-width="0.05000" fill-rule="evenodd" fill-opacity="1.000"/>
    <path d="M 46.3258 109.301 L 46.7738 109.554 L 46.9035 109.711 L 47.5674 110.432 L 47.6715 110.573 L 47.7161 110.596 L 48.2889 111.321 L 48.4545 111.524 L 49.1714 112.269 L 49.2705 112.379 L 49.9306 112.923 L 50.4792 113.469 L 50.6281 113.585 L 50.8188 113.742 L 50.8188 113.742 L 51.3777 114.208 L 51.6803 114.494 L 52.1496 114.852 L 52.5561 115.313 L 52.5561 115.313 L 52.7117 115.491 L 52.8315 115.792 L 53.0649 116.295 L 52.4407 116.732 L 52.3758 116.766 L 51.6568 116.281 L 51.4447 116.141 L 50.7441 115.681 L 50.445 115.487 L 49.7864 115.077 L 49.4939 114.848 L 48.6426 114.339 L 48.6062 114.316 L 48.5974 114.311 L 47.7161 113.577 L 47.5827 113.488 L 46.9751 112.844 L 46.7031 112.636 L 46.3787 112.164 L 45.8776 111.605 L 45.7839 111.381 L 45.4299 110.641 L 45.3768 110.526 L 45.3693 110.512 L 45.3706 110.403 L 45.3781 109.632 L 45.9339 109.282 L 46.3258 109.301" fill="none" stroke="#B8860B" stroke-width="0.05000" fill-rule="evenodd" fill-opacity="1.000"/>
    <path d="M 45.4775 109.687 L 45.4706 110.404 L 45.4695 110.488 L 45.5201 110.598 L 45.8752 111.34 L 45.9633 111.55 L 46.4575 112.103 L 46.7765 112.566 L 47.0423 112.77 L 47.6478 113.411 L 47.7762 113.497 L 48.6551 114.229 L 48.6581 114.23 L 48.6938 114.253 L 48.6939 114.253 L 49.5507 114.765 L 49.8432 114.995 L 50.4986 115.402 L 50.7988 115.597 L 51.4997 116.058 L 51.7123 116.198 L 52.382 116.649 L 52.3889 116.646 L 52.9389 116.261 L 52.7396 115.831 L 52.6251 115.544 L 52.4684 115.365 L 52.0811 114.925 L 51.6155 114.57 L 51.3106 114.283 L 50.7675 113.83 L 50.5645 113.662 L 50.5645 113.662 L 50.413 113.545 L 49.8636 112.997 L 49.2011 112.452 L 49.0982 112.337 L 48.3796 111.591 L 48.2109 111.384 L 47.6509 110.675 L 47.6049 110.651 L 47.4904 110.496 L 46.8281 109.777 L 46.7084 109.632 L 46.2972 109.4 L 45.9603 109.383 L 45.4775 109.687" fill="none" stroke="#B8860B" stroke-width="0.05000" fill-rule="evenodd" fill-opacity="1.000"/>
    </g>
    <g class="thermal-contour" data-segment="9" data-name="CoreContourHatch">
    <path d="M 32.6266 123.27 L 32.8449 123.361 L 33.321 123.872 L 33.6487 124.19 L 33.9968 124.712 L 34.3579 125.185 L 34.5487 125.544 L 34.549 125.544 L 34.9297 126.268 L 34.983 126.407 L 35.0596 126.625 L 35.2151 127.13 L 35.0193 127.313 L 34.4129 127.146 L 34.3451 127.095 L 34.2342 126.969 L 33.7328 126.458 L 33.7328 126.458 L 33.2462 125.989 L 33.0921 125.869 L 32.5811 125.354 L 32.2424 125.023 L 31.8277 124.633 L 31.552 124.059 L 31.3505 123.802 L 31.3602 123.352 L 31.5595 123.221 L 32.0068 123.023 L 32.6266 123.27" fill="none" stroke="#800080" stroke-width="0.05000" fill-rule="evenodd" fill-opacity="1.000"/>
    <path d="M 31.5725 123.244 L 31.3869 123.366 L 31.3777 123.793 L 31.5751 124.045 L 31.8499 124.617 L 32.2609 125.003 L 32.6 125.335 L 33.1101 125.849 L 33.2635 125.968 L 33.7521 126.439 L 34.2535 126.95 L 34.3636 127.075 L 34.4251 127.122 L 35.0119 127.283 L 35.1843 127.122 L 35.0339 126.634 L 34.9576 126.416 L 34.9051 126.279 L 34.5349 125.575 L 34.5349 125.575 L 34.3351 125.199 L 33.9743 124.727 L 33.6278 124.207 L 33.3015 123.891 L 32.8291 123.383 L 32.6164 123.295 L 32.0073 123.052 L 31.5725 123.244" fill="none" stroke="#800080" stroke-width="0.05000" fill-rule="evenodd" fill-opacity="1.000"/>
    <path d="M 46.2791 109.462 L 46.6672 109.681 L 46.7802 109.818 L 47.4416 110.536 L 47.5627 110.7 L 47.6099 110.725 L 48.1619 111.423 L 48.1618 111.423 L 48.3323 111.632 L 49.0509 112.378 L 49.1573 112.497 L 49.8218 113.044 L 50.3713 113.592 L 50.5227 113.71 L 50.6833 113.842 L 50.6833 113.841 L 51.2685 114.329 L 51.574 114.618 L 52.0379 114.971 L 52.4276 115.414 L 52.4276 115.414 L 52.5706 115.577 L 52.6814 115.856 L 52.8595 116.24 L 52.3822 116.574 L 51.7472 116.145 L 51.7472 116.145 L 51.5344 116.005 L 51.5344 116.005 L 50.8332 115.544 L 50.8332 115.544 L 50.5322 115.349 L 50.5322 115.349 L 49.8786 114.943 L 49.5865 114.713 L 48.7249 114.198 L 48.6913 114.177 L 47.8137 113.447 L 47.6887 113.362 L 47.0847 112.723 L 46.8227 112.522 L 46.5072 112.064 L 46.0173 111.516 L 45.9329 111.315 L 45.5769 110.57 L 45.5326 110.475 L 45.5336 110.404 L 45.5401 109.722 L 45.977 109.447 L 46.2791 109.462" fill="none" stroke="#800080" stroke-width="0.05000" fill-rule="evenodd" fill-opacity="1.000"/>
    <path d="M 45.567 109.737 L 45.5606 110.405 L 45.5597 110.469 L 45.6013 110.559 L 45.9573 111.304 L 46.0404 111.502 L 46.5284 112.047 L 46.8425 112.503 L 47.1028 112.703 L 47.7063 113.342 L 47.8303 113.425 L 48.7072 114.155 L 48.7391 114.175 L 49.6018 114.691 L 49.8941 114.921 L 50.5469 115.326 L 50.848 115.522 L 51.5492 115.982 L 51.7623 116.123 L 52.3819 116.541 L 52.8255 116.23 L 52.6569 115.867 L 52.5472 115.592 L 52.4006 115.424 L 52.4006 115.424 L 52.0194 114.991 L 51.5572 114.639 L 51.2506 114.35 L 50.7103 113.899 L 50.7103 113.899 L 50.5058 113.731 L 50.3534 113.612 L 49.8036 113.064 L 49.1386 112.517 L 49.0311 112.397 L 48.3122 111.65 L 48.1407 111.44 L 47.5923 110.746 L 47.5449 110.721 L 47.4208 110.553 L 46.7603 109.836 L 46.6496 109.702 L 46.2714 109.489 L 45.9842 109.474 L 45.567 109.737" fill="none" stroke="#800080" stroke-width="0.05000" fill-rule="evenodd" fill-opacity="1.000"/>
    </g>
    <!-- ===== Thermal Segment Colour Legend ===== -->
    <g id="thermal-legend">
    <rect x="161.0000" y="5.0000" width="40.0000" height="72.0000"
          rx="1" ry="1"
          fill="#fafafa" stroke="#cccccc" stroke-width="0.15"/>
    <text x="181.0000" y="7.6000" font-family="sans-serif" font-size="2.2000" font-weight="bold" fill="#222222" text-anchor="middle">Thermal Segments</text>
    <line x1="161.5000" y1="8.7000" x2="200.5000" y2="8.7000" stroke="#bbbbbb" stroke-width="0.1"/>
    <rect x="161.8000" y="9.0000" width="3.5000" height="2.0000" fill="#000000" stroke="#333333" stroke-width="0.08" rx="0.3" ry="0.3"/>
    <text x="168.6000" y="10.9000" font-family="monospace" font-size="1.6000" fill="#444444" text-anchor="end"> 1</text>
    <text x="169.6000" y="10.9000" font-family="sans-serif" font-size="1.6000" fill="#111111">CoreContour_Volume</text>
    <rect x="161.8000" y="12.0000" width="3.5000" height="2.0000" fill="#8B0000" stroke="#333333" stroke-width="0.08" rx="0.3" ry="0.3"/>
    <text x="168.6000" y="13.9000" font-family="monospace" font-size="1.6000" fill="#444444" text-anchor="end"> 2</text>
    <text x="169.6000" y="13.9000" font-family="sans-serif" font-size="1.6000" fill="#111111">CoreContour_Overhang</text>
    <rect x="161.8000" y="15.0000" width="3.5000" height="2.0000" fill="#0000CC" stroke="#333333" stroke-width="0.08" rx="0.3" ry="0.3"/>
    <text x="168.6000" y="16.9000" font-family="monospace" font-size="1.6000" fill="#444444" text-anchor="end"> 3</text>
    <text x="169.6000" y="16.9000" font-family="sans-serif" font-size="1.6000" fill="#111111">Shell1Contour_Volume</text>
    <rect x="161.8000" y="18.0000" width="3.5000" height="2.0000" fill="#000080" stroke="#333333" stroke-width="0.08" rx="0.3" ry="0.3"/>
    <text x="168.6000" y="19.9000" font-family="monospace" font-size="1.6000" fill="#444444" text-anchor="end"> 4</text>
    <text x="169.6000" y="19.9000" font-family="sans-serif" font-size="1.6000" fill="#111111">Shell1Contour_Overhang</text>
    <rect x="161.8000" y="21.0000" width="3.5000" height="2.0000" fill="#B8860B" stroke="#333333" stroke-width="0.08" rx="0.3" ry="0.3"/>
    <text x="168.6000" y="22.9000" font-family="monospace" font-size="1.6000" fill="#444444" text-anchor="end"> 5</text>
    <text x="169.6000" y="22.9000" font-family="sans-serif" font-size="1.6000" fill="#111111">Shell2Contour_Volume</text>
    <rect x="161.8000" y="24.0000" width="3.5000" height="2.0000" fill="#006400" stroke="#333333" stroke-width="0.08" rx="0.3" ry="0.3"/>
    <text x="168.6000" y="25.9000" font-family="monospace" font-size="1.6000" fill="#444444" text-anchor="end"> 6</text>
    <text x="169.6000" y="25.9000" font-family="sans-serif" font-size="1.6000" fill="#111111">Shell2Contour_Overhang</text>
    <rect x="161.8000" y="27.0000" width="3.5000" height="2.0000" fill="#FF8C00" stroke="#333333" stroke-width="0.08" rx="0.3" ry="0.3"/>
    <text x="168.6000" y="28.9000" font-family="monospace" font-size="1.6000" fill="#444444" text-anchor="end"> 7</text>
    <text x="169.6000" y="28.9000" font-family="sans-serif" font-size="1.6000" fill="#111111">CoreOverhangHatch</text>
    <rect x="161.8000" y="30.0000" width="3.5000" height="2.0000" fill="#228B22" stroke="#333333" stroke-width="0.08" rx="0.3" ry="0.3"/>
    <text x="168.6000" y="31.9000" font-family="monospace" font-size="1.6000" fill="#444444" text-anchor="end"> 8</text>
    <text x="169.6000" y="31.9000" font-family="sans-serif" font-size="1.6000" fill="#111111">CoreNormalHatch</text>
    <rect x="161.8000" y="33.0000" width="3.5000" height="2.0000" fill="#800080" stroke="#333333" stroke-width="0.08" rx="0.3" ry="0.3"/>
    <text x="168.6000" y="34.9000" font-family="monospace" font-size="1.6000" fill="#444444" text-anchor="end"> 9</text>
    <text x="169.6000" y="34.9000" font-family="sans-serif" font-size="1.6000" fill="#111111">CoreContourHatch</text>
    <rect x="161.8000" y="36.0000" width="3.5000" height="2.0000" fill="#FF69B4" stroke="#333333" stroke-width="0.08" rx="0.3" ry="0.3"/>
    <text x="168.6000" y="37.9000" font-family="monospace" font-size="1.6000" fill="#444444" text-anchor="end">10</text>
    <text x="169.6000" y="37.9000" font-family="sans-serif" font-size="1.6000" fill="#111111">Shell1OverhangHatch</text>
    <rect x="161.8000" y="39.0000" width="3.5000" height="2.0000" fill="#00CED1" stroke="#333333" stroke-width="0.08" rx="0.3" ry="0.3"/>
    <text x="168.6000" y="40.9000" font-family="monospace" font-size="1.6000" fill="#444444" text-anchor="end">11</text>
    <text x="169.6000" y="40.9000" font-family="sans-serif" font-size="1.6000" fill="#111111">Shell1NormalHatch</text>
    <rect x="161.8000" y="42.0000" width="3.5000" height="2.0000" fill="#FF00FF" stroke="#333333" stroke-width="0.08" rx="0.3" ry="0.3"/>
    <text x="168.6000" y="43.9000" font-family="monospace" font-size="1.6000" fill="#444444" text-anchor="end">12</text>
    <text x="169.6000" y="43.9000" font-family="sans-serif" font-size="1.6000" fill="#111111">Shell1ContourHatch</text>
    <rect x="161.8000" y="45.0000" width="3.5000" height="2.0000" fill="#A52A2A" stroke="#333333" stroke-width="0.08" rx="0.3" ry="0.3"/>
    <text x="168.6000" y="46.9000" font-family="monospace" font-size="1.6000" fill="#444444" text-anchor="end">13</text>
    <text x="169.6000" y="46.9000" font-family="sans-serif" font-size="1.6000" fill="#111111">Shell2OverhangHatch</text>
    <rect x="161.8000" y="48.0000" width="3.5000" height="2.0000" fill="#808080" stroke="#333333" stroke-width="0.08" rx="0.3" ry="0.3"/>
    <text x="168.6000" y="49.9000" font-family="monospace" font-size="1.6000" fill="#444444" text-anchor="end">14</text>
    <text x="169.6000" y="49.9000" font-family="sans-serif" font-size="1.6000" fill="#111111">Shell2NormalHatch</text>
    <rect x="161.8000" y="51.0000" width="3.5000" height="2.0000" fill="#32CD32" stroke="#333333" stroke-width="0.08" rx="0.3" ry="0.3"/>
    <text x="168.6000" y="52.9000" font-family="monospace" font-size="1.6000" fill="#444444" text-anchor="end">15</text>
    <text x="169.6000" y="52.9000" font-family="sans-serif" font-size="1.6000" fill="#111111">Shell2ContourHatch</text>
    <rect x="161.8000" y="54.0000" width="3.5000" height="2.0000" fill="#1A237E" stroke="#333333" stroke-width="0.08" rx="0.3" ry="0.3"/>
    <text x="168.6000" y="55.9000" font-family="monospace" font-size="1.6000" fill="#444444" text-anchor="end">16</text>
    <text x="169.6000" y="55.9000" font-family="sans-serif" font-size="1.6000" fill="#111111">SupportContourVolume</text>
    <rect x="161.8000" y="57.0000" width="3.5000" height="2.0000" fill="#827717" stroke="#333333" stroke-width="0.08" rx="0.3" ry="0.3"/>
    <text x="168.6000" y="58.9000" font-family="monospace" font-size="1.6000" fill="#444444" text-anchor="end">17</text>
    <text x="169.6000" y="58.9000" font-family="sans-serif" font-size="1.6000" fill="#111111">SupportHatch</text>
    <rect x="161.8000" y="60.0000" width="3.5000" height="2.0000" fill="#006064" stroke="#333333" stroke-width="0.08" rx="0.3" ry="0.3"/>
    <text x="168.6000" y="61.9000" font-family="monospace" font-size="1.6000" fill="#444444" text-anchor="end">18</text>
    <text x="169.6000" y="61.9000" font-family="sans-serif" font-size="1.6000" fill="#111111">PointSequence</text>
    <rect x="161.8000" y="63.0000" width="3.5000" height="2.0000" fill="#B71C1C" stroke="#333333" stroke-width="0.08" rx="0.3" ry="0.3"/>
    <text x="168.6000" y="64.9000" font-family="monospace" font-size="1.6000" fill="#444444" text-anchor="end">19</text>
    <text x="169.6000" y="64.9000" font-family="sans-serif" font-size="1.6000" fill="#111111">ExternalSupports</text>
    <rect x="161.8000" y="66.0000" width="3.5000" height="2.0000" fill="#E64A19" stroke="#333333" stroke-width="0.08" rx="0.3" ry="0.3"/>
    <text x="168.6000" y="67.9000" font-family="monospace" font-size="1.6000" fill="#444444" text-anchor="end">20</text>
    <text x="169.6000" y="67.9000" font-family="sans-serif" font-size="1.6000" fill="#111111">CoreContourHatchOverhang</text>
    <rect x="161.8000" y="69.0000" width="3.5000" height="2.0000" fill="#311B92" stroke="#333333" stroke-width="0.08" rx="0.3" ry="0.3"/>
    <text x="168.6000" y="70.9000" font-family="monospace" font-size="1.6000" fill="#444444" text-anchor="end">21</text>
    <text x="169.6000" y="70.9000" font-family="sans-serif" font-size="1.6000" fill="#111111">Shell1ContourHatchOverhang</text>
    <rect x="161.8000" y="72.0000" width="3.5000" height="2.0000" fill="#880E4F" stroke="#333333" stroke-width="0.08" rx="0.3" ry="0.3"/>
    <text x="168.6000" y="73.9000" font-family="monospace" font-size="1.6000" fill="#444444" text-anchor="end">22</text>
    <text x="169.6000" y="73.9000" font-family="sans-serif" font-size="1.6000" fill="#111111">Shell2ContourHatchOverhang</text>
    </g>
  </g>
</svg>
