<?xml version="1.0" encoding="UTF-8" standalone="yes"?>
<svg xmlns="http://www.w3.org/2000/svg"
     xmlns:xlink="http://www.w3.org/1999/xlink"
     width="2020.0000mm" height="1600.0000mm"
     viewBox="0 0 202.000000 160.000000">
  <!--
    Build plate : 150.00 x 150.00 mm
    Coordinate  : 1 SVG unit = 1 mm
    Display zoom: 10x  (width/height = viewBox x 10)
    Hatch stroke: 0.04 mm = ~28 mm on screen at this zoom
    Legend panel: right margin (42 mm wide)
  -->
  <defs>
    <marker id="endArrow" markerWidth="2" markerHeight="1.4"
            refX="0" refY="0.7" orient="auto"
            markerUnits="strokeWidth">
      <polyline fill="darkblue" points="0,0 2,0.7 0,1.4 0.2,0.7"/>
    </marker>
  </defs>
  <!-- Background -->
  <rect x="0" y="0" width="202.000000" height="160.000000" fill="#f0f0f0" stroke="none"/>
  <!-- Build plate boundary (150 x 150 mm) -->
  <rect x="5.000000" y="5.000000" width="150.000000" height="150.000000"
        fill="#ffffff" stroke="#aaaaaa" stroke-width="0.2" stroke-dasharray="1,0.5"/>
  <!-- Build plate centre circle (r = 75.00 mm) -->
  <circle cx="80.000000" cy="80.000000" r="75.000000"
          fill="none" stroke="#bbbbbb" stroke-width="0.15" stroke-dasharray="0.8,0.4"/>
  <!-- Centre cross-hair -->
  <line x1="5.000000" y1="80.000000" x2="155.000000" y2="80.000000" stroke="#cccccc" stroke-width="0.1"/>
  <line x1="80.000000" y1="5.000000" x2="80.000000" y2="155.000000" stroke="#cccccc" stroke-width="0.1"/>
  <circle cx="80.000000" cy="80.000000" r="0.3" fill="#cccccc" stroke="none"/>
  <!-- Corner labels -->
  <text x="5.400000" y="4.600000" font-family="sans-serif" font-size="2" fill="#888888">0,0</text>
  <text x="154.600006" y="4.600000" font-family="sans-serif" font-size="2" fill="#888888" text-anchor="end">150,0</text>
  <text x="5.400000" y="157.199997" font-family="sans-serif" font-size="2" fill="#888888">0,150</text>
  <!-- Layer geometry -->
  <g id="geometry">
    <g class="thermal-hatch" data-segment="8" data-name="CoreNormalHatch">
      <line x1="37.32591" y1="87.28179" x2="37.23364" y2="88.03324" stroke="#228B22" stroke-width="0.04000"/>
      <line x1="37.44076" y1="87.16695" x2="37.33724" y2="88.01002" stroke="#228B22" stroke-width="0.04000"/>
      <line x1="37.21106" y1="87.39664" x2="37.13619" y2="88.00634" stroke="#228B22" stroke-width="0.04000"/>
      <line x1="37.55561" y1="87.05209" x2="37.44516" y2="87.95168" stroke="#228B22" stroke-width="0.04000"/>
      <line x1="37.09620" y1="87.51151" x2="37.04618" y2="87.91888" stroke="#228B22" stroke-width="0.04000"/>
      <line x1="37.66066" y1="87.01714" x2="37.55761" y2="87.85642" stroke="#228B22" stroke-width="0.04000"/>
      <line x1="36.98135" y1="87.62636" x2="36.95660" y2="87.82793" stroke="#228B22" stroke-width="0.04000"/>
      <line x1="37.75952" y1="87.03249" x2="37.67263" y2="87.74019" stroke="#228B22" stroke-width="0.04000"/>
      <line x1="37.86104" y1="87.02625" x2="37.78677" y2="87.63113" stroke="#228B22" stroke-width="0.04000"/>
      <line x1="37.97589" y1="86.91139" x2="37.90099" y2="87.52147" stroke="#228B22" stroke-width="0.04000"/>
      <line x1="38.09075" y1="86.79654" x2="38.01539" y2="87.41030" stroke="#228B22" stroke-width="0.04000"/>
      <line x1="38.20560" y1="86.68169" x2="38.13015" y2="87.29615" stroke="#228B22" stroke-width="0.04000"/>
      <line x1="38.32045" y1="86.56683" x2="38.24405" y2="87.18909" stroke="#228B22" stroke-width="0.04000"/>
      <line x1="38.43531" y1="86.45198" x2="38.35733" y2="87.08703" stroke="#228B22" stroke-width="0.04000"/>
      <line x1="38.55016" y1="86.33713" x2="38.47062" y2="86.98496" stroke="#228B22" stroke-width="0.04000"/>
      <line x1="38.66501" y1="86.22227" x2="38.58423" y2="86.88023" stroke="#228B22" stroke-width="0.04000"/>
      <line x1="38.77987" y1="86.10741" x2="38.69786" y2="86.77531" stroke="#228B22" stroke-width="0.04000"/>
      <line x1="38.89472" y1="85.99256" x2="38.81149" y2="86.67039" stroke="#228B22" stroke-width="0.04000"/>
      <line x1="39.00957" y1="85.87771" x2="38.92512" y2="86.56551" stroke="#228B22" stroke-width="0.04000"/>
      <line x1="39.12443" y1="85.76286" x2="39.03895" y2="86.45901" stroke="#228B22" stroke-width="0.04000"/>
      <line x1="39.23928" y1="85.64800" x2="39.15314" y2="86.34955" stroke="#228B22" stroke-width="0.04000"/>
      <line x1="39.35413" y1="85.53315" x2="39.26733" y2="86.24008" stroke="#228B22" stroke-width="0.04000"/>
      <line x1="39.46899" y1="85.41830" x2="39.38152" y2="86.13062" stroke="#228B22" stroke-width="0.04000"/>
      <line x1="39.58384" y1="85.30345" x2="39.49572" y2="86.02116" stroke="#228B22" stroke-width="0.04000"/>
      <line x1="39.69869" y1="85.18859" x2="39.60872" y2="85.92133" stroke="#228B22" stroke-width="0.04000"/>
      <line x1="39.81355" y1="85.07375" x2="39.72309" y2="85.81042" stroke="#228B22" stroke-width="0.04000"/>
      <line x1="39.92840" y1="84.95889" x2="39.83746" y2="85.69952" stroke="#228B22" stroke-width="0.04000"/>
      <line x1="40.04325" y1="84.84404" x2="39.95183" y2="85.58861" stroke="#228B22" stroke-width="0.04000"/>
      <line x1="40.15810" y1="84.72918" x2="40.06639" y2="85.47616" stroke="#228B22" stroke-width="0.04000"/>
      <line x1="40.27296" y1="84.61433" x2="40.18106" y2="85.36272" stroke="#228B22" stroke-width="0.04000"/>
      <line x1="40.38781" y1="84.49947" x2="40.29478" y2="85.25713" stroke="#228B22" stroke-width="0.04000"/>
      <line x1="40.50266" y1="84.38464" x2="40.40912" y2="85.14648" stroke="#228B22" stroke-width="0.04000"/>
      <line x1="40.61752" y1="84.26976" x2="40.52186" y2="85.04883" stroke="#228B22" stroke-width="0.04000"/>
      <line x1="40.73237" y1="84.15491" x2="40.63582" y2="84.94123" stroke="#228B22" stroke-width="0.04000"/>
      <line x1="40.84722" y1="84.04006" x2="40.74955" y2="84.83552" stroke="#228B22" stroke-width="0.04000"/>
      <line x1="40.96208" y1="83.92520" x2="40.86288" y2="84.73312" stroke="#228B22" stroke-width="0.04000"/>
      <line x1="41.07693" y1="83.81035" x2="40.97567" y2="84.63503" stroke="#228B22" stroke-width="0.04000"/>
      <line x1="41.19178" y1="83.69550" x2="41.08713" y2="84.54787" stroke="#228B22" stroke-width="0.04000"/>
      <line x1="41.34577" y1="83.26193" x2="41.19926" y2="84.45518" stroke="#228B22" stroke-width="0.04000"/>
      <line x1="41.46062" y1="83.14709" x2="41.31166" y2="84.36031" stroke="#228B22" stroke-width="0.04000"/>
      <line x1="41.57547" y1="83.03223" x2="41.42375" y2="84.26794" stroke="#228B22" stroke-width="0.04000"/>
      <line x1="41.66395" y1="83.13223" x2="41.53669" y2="84.16869" stroke="#228B22" stroke-width="0.04000"/>
      <line x1="41.74670" y1="83.27878" x2="41.65033" y2="84.06370" stroke="#228B22" stroke-width="0.04000"/>
      <line x1="41.82460" y1="83.46497" x2="41.77256" y2="83.88878" stroke="#228B22" stroke-width="0.04000"/>
      <line x1="41.23092" y1="83.37680" x2="41.22378" y2="83.43488" stroke="#228B22" stroke-width="0.04000"/>
    </g>
    <g class="thermal-hatch" data-segment="8" data-name="CoreNormalHatch">
      <line x1="41.41510" y1="83.88220" x2="41.41410" y2="83.89020" stroke="#228B22" stroke-width="0.04000"/>
    </g>
    <g class="thermal-hatch" data-segment="9" data-name="CoreContourHatch">
      <line x1="41.50370" y1="83.81220" x2="41.50140" y2="83.83160" stroke="#800080" stroke-width="0.04000"/>
      <line x1="41.41440" y1="83.88290" x2="41.41980" y2="83.83930" stroke="#800080" stroke-width="0.04000"/>
      <line x1="41.41340" y1="83.89090" x2="41.40850" y2="83.93110" stroke="#800080" stroke-width="0.04000"/>
      <line x1="41.32580" y1="83.94890" x2="41.32800" y2="83.93110" stroke="#800080" stroke-width="0.04000"/>
    </g>
    <g class="thermal-hatch" data-segment="14" data-name="HollowShell2NormalHatch">
      <line x1="38.22810" y1="86.92770" x2="38.22530" y2="86.95000" stroke="#808080" stroke-width="0.04000"/>
      <line x1="38.11200" y1="87.05210" x2="38.11320" y2="87.04250" stroke="#808080" stroke-width="0.04000"/>
      <line x1="37.99830" y1="87.15740" x2="37.99810" y2="87.15940" stroke="#808080" stroke-width="0.04000"/>
    </g>
    <g class="thermal-hatch" data-segment="15" data-name="HollowShell2ContourHatch">
      <line x1="38.27880" y1="86.92800" x2="38.27740" y2="86.93940" stroke="#32CD32" stroke-width="0.04000"/>
      <line x1="38.19400" y1="86.96180" x2="38.19940" y2="86.91810" stroke="#32CD32" stroke-width="0.04000"/>
      <line x1="38.19170" y1="86.98030" x2="38.18670" y2="87.02110" stroke="#32CD32" stroke-width="0.04000"/>
      <line x1="38.10210" y1="87.05370" x2="38.10750" y2="87.01010" stroke="#32CD32" stroke-width="0.04000"/>
      <line x1="38.10110" y1="87.06190" x2="38.09610" y2="87.10280" stroke="#32CD32" stroke-width="0.04000"/>
      <line x1="38.01020" y1="87.14560" x2="38.01560" y2="87.10200" stroke="#32CD32" stroke-width="0.04000"/>
      <line x1="38.00990" y1="87.14760" x2="38.00470" y2="87.19080" stroke="#32CD32" stroke-width="0.04000"/>
      <line x1="37.92360" y1="87.19500" x2="37.92370" y2="87.19390" stroke="#32CD32" stroke-width="0.04000"/>
    </g>
    <g class="thermal-contour" data-segment="1" data-name="CoreContour_Volume">
    <path d="M 41.6238 83.0639 L 41.7019 83.1968 L 41.7098 83.2061 L 41.7233 83.2349 L 41.7492 83.2834 L 41.7687 83.314 L 41.7763 83.3313 L 41.8051 83.3979 L 41.8058 83.4011 L 41.8087 83.4073 L 41.8106 83.4112 L 41.8139 83.4258 L 41.8216 83.4531 L 41.8261 83.4709 L 41.8275 83.4763 L 41.8347 83.5159 L 41.8359 83.5209 L 41.8365 83.5281 L 41.8404 83.5711 L 41.8411 83.5903 L 41.8411 83.6333 L 41.8376 83.6747 L 41.8343 83.6983 L 41.8273 83.7388 L 41.8175 83.7766 L 41.8085 83.8055 L 41.7959 83.8413 L 41.7656 83.903 L 41.7483 83.9379 L 41.7138 83.9869 L 41.6865 84.0256 L 41.6296 84.0855 L 41.618 84.0976 L 41.5209 84.1825 L 41.4359 84.2581 L 41.3441 84.3329 L 41.2655 84.3992 L 41.2054 84.4502 L 41.1673 84.4809 L 41.1583 84.4883 L 41.1582 84.4883 L 41.1149 84.5242 L 41.0833 84.5511 L 41.0658 84.566 L 41.018 84.5993 L 40.9818 84.6299 L 40.9601 84.6481 L 40.9 84.7002 L 40.8784 84.7194 L 40.8336 84.7591 L 40.7792 84.8086 L 40.7473 84.8376 L 40.7183 84.8646 L 40.641 84.9364 L 40.641 84.9364 L 40.6345 84.9425 L 40.5359 85.0356 L 40.5359 85.0356 L 40.4949 85.0742 L 40.4398 85.1168 L 40.3652 85.189 L 40.2914 85.2604 L 40.2635 85.2874 L 40.2236 85.3206 L 40.0208 85.5213 L 40.0111 85.5309 L 39.9581 85.5826 L 39.6742 85.8578 L 39.6542 85.8772 L 39.605 85.9249 L 39.5338 85.9846 L 38.9789 86.5166 L 38.9228 86.5676 L 38.4775 86.9788 L 38.1775 87.249 L 38.1666 87.2599 L 38.1565 87.27 L 37.977 87.4485 L 37.7616 87.6553 L 37.6833 87.7296 L 37.6835 87.7298 L 37.6572 87.755 L 37.5761 87.838 L 37.5545 87.8595 L 37.5461 87.8681 L 37.5397 87.8738 L 37.5137 87.8975 L 37.5096 87.9009 L 37.4808 87.925 L 37.479 87.9263 L 37.4538 87.9455 L 37.4487 87.9493 L 37.4483 87.9496 L 37.4213 87.9674 L 37.4188 87.9691 L 37.3932 87.9838 L 37.3886 87.9866 L 37.3645 87.9984 L 37.3579 88.0017 L 37.3355 88.0107 L 37.3272 88.0142 L 37.3066 88.0206 L 37.2968 88.0238 L 37.278 88.0278 L 37.2671 88.0302 L 37.2501 88.032 L 37.2385 88.0333 L 37.2234 88.0331 L 37.2115 88.033 L 37.1979 88.0308 L 37.1863 88.0291 L 37.1743 88.0252 L 37.1633 88.0216 L 37.153 88.0161 L 37.153 88.0161 L 37.143 88.0107 L 37.1333 88.0045 L 37.126 87.9989 L 36.9934 87.866 L 36.8697 87.738 L 37.0926 87.5151 L 37.2059 87.4018 L 37.2059 87.4018 L 37.3962 87.2115 L 37.3962 87.2115 L 37.4971 87.1106 L 37.601 87.0067 L 37.687 87.0218 L 37.8425 87.0448 L 37.9306 86.9567 L 37.9306 86.9567 L 38.1598 86.7275 L 38.4494 86.4378 L 38.6735 86.2138 L 39.1442 85.7431 L 39.1442 85.7431 L 39.3724 85.5149 L 39.4063 85.481 L 39.531 85.3563 L 39.6587 85.2286 L 39.6888 85.1985 L 39.844 85.0433 L 39.9152 84.9721 L 39.9152 84.9721 L 39.9936 84.8937 L 40.0445 84.8428 L 40.1439 84.7434 L 40.1744 84.7129 L 40.1915 84.6958 L 40.3188 84.5684 L 40.3404 84.5469 L 40.4658 84.4215 L 40.5074 84.3799 L 40.6044 84.2829 L 40.6186 84.2687 L 40.6186 84.2687 L 40.7799 84.1074 L 40.9879 83.8994 L 40.9879 83.8994 L 41.0554 83.8319 L 41.065 83.8223 L 41.065 83.8223 L 41.3009 83.5864 L 41.2094 83.4066 L 41.2066 83.4011 L 41.2138 83.3939 L 41.2138 83.3939 L 41.215 83.3927 L 41.2795 83.3282 L 41.2795 83.3282 L 41.423 83.1847 L 41.5505 83.0572 L 41.5953 83.0124 L 41.6238 83.0639" fill="none" stroke="#000000" stroke-width="0.05000" fill-rule="evenodd" fill-opacity="1.000"/>
    </g>
    <g class="thermal-contour" data-segment="1" data-name="CoreContour_Volume">
    <path d="M 37.889 87.2539 L 37.8384 87.3043 L 37.623 87.5111 L 37.3967 87.7258 L 37.4007 87.7298 L 37.381 87.7478 L 37.3581 87.7669 L 37.3341 87.7852 L 37.3125 87.7994 L 37.2931 87.8106 L 37.2774 87.8183 L 37.2591 87.8258 L 37.2465 87.8298 L 37.2454 87.8301 L 37.241 87.8311 L 37.1503 87.7401 L 37.234 87.6565 L 37.6385 87.252 L 37.6691 87.2213 L 37.889 87.2539" fill="none" stroke="#000000" stroke-width="0.05000" fill-rule="evenodd" fill-opacity="1.000"/>
    <path d="M 41.5764 83.3844 L 41.5913 83.4078 L 41.5931 83.4117 L 41.5931 83.4116 L 41.614 83.4599 L 41.6155 83.4663 L 41.6206 83.4773 L 41.6286 83.5052 L 41.6315 83.5172 L 41.6377 83.551 L 41.6408 83.5848 L 41.6411 83.5919 L 41.6411 83.6252 L 41.6388 83.6523 L 41.6369 83.6658 L 41.6317 83.6959 L 41.6246 83.7229 L 41.6184 83.7429 L 41.6113 83.7631 L 41.5862 83.8144 L 41.5758 83.8353 L 41.5502 83.8718 L 41.5314 83.8984 L 41.4859 83.9464 L 41.4798 83.9525 L 41.3887 84.0325 L 41.3056 84.106 L 41.2164 84.179 L 41.1363 84.2466 L 41.0872 84.2883 L 41.086 84.2883 L 40.9862 84.3711 L 40.9536 84.3989 L 40.9449 84.4062 L 40.896 84.4405 L 40.8528 84.477 L 40.8303 84.4959 L 40.7679 84.5499 L 40.7458 84.5697 L 40.7 84.6103 L 40.6446 84.6606 L 40.6119 84.6904 L 40.5821 84.7181 L 40.5045 84.7903 L 40.4974 84.7969 L 40.3987 84.8901 L 40.3654 84.9213 L 40.3086 84.9654 L 40.2262 85.0452 L 40.1524 85.1166 L 40.1299 85.1382 L 40.089 85.1724 L 39.8802 85.3791 L 39.8715 85.3877 L 39.8189 85.439 L 39.535 85.7142 L 39.5151 85.7335 L 39.4712 85.7759 L 39.4002 85.8356 L 38.8443 86.3686 L 38.7876 86.4202 L 38.3437 86.8302 L 38.3055 86.8645 L 38.5908 86.5792 L 38.8149 86.3552 L 40.3329 84.8372 L 40.4598 84.7102 L 40.4816 84.6885 L 41.2064 83.9637 L 41.5451 83.6252 L 41.4506 83.4398 L 41.5519 83.3385 L 41.5764 83.3844" fill="none" stroke="#000000" stroke-width="0.05000" fill-rule="evenodd" fill-opacity="1.000"/>
    <path d="M 41.3558 83.9415 L 41.4187 83.8863 L 41.4206 83.8845 L 41.4616 83.8411 L 41.4745 83.8229 L 41.3558 83.9415" fill="none" stroke="#000000" stroke-width="0.05000" fill-rule="evenodd" fill-opacity="1.000"/>
    </g>
    <g class="thermal-contour" data-segment="3" data-name="HollowShell1Contour_Volume">
    <path d="M 41.6238 83.0639 L 41.7019 83.1968 L 41.7098 83.2061 L 41.7233 83.2349 L 41.7492 83.2834 L 41.7687 83.314 L 41.7763 83.3313 L 41.8051 83.3979 L 41.8058 83.4011 L 41.8087 83.4073 L 41.8106 83.4112 L 41.8139 83.4258 L 41.8216 83.4531 L 41.8261 83.4709 L 41.8275 83.4763 L 41.8347 83.5159 L 41.8359 83.5209 L 41.8365 83.5281 L 41.8404 83.5711 L 41.8411 83.5903 L 41.8411 83.6333 L 41.8376 83.6747 L 41.8343 83.6983 L 41.8273 83.7388 L 41.8175 83.7766 L 41.8085 83.8055 L 41.7959 83.8413 L 41.7656 83.903 L 41.7483 83.9379 L 41.7138 83.9869 L 41.6865 84.0256 L 41.6296 84.0855 L 41.618 84.0976 L 41.5209 84.1825 L 41.4359 84.2581 L 41.3441 84.3329 L 41.2655 84.3992 L 41.2054 84.4502 L 41.1673 84.4809 L 41.1583 84.4883 L 41.1582 84.4883 L 41.1149 84.5242 L 41.0833 84.5511 L 41.0658 84.566 L 41.018 84.5993 L 40.9818 84.6299 L 40.9601 84.6481 L 40.9 84.7002 L 40.8784 84.7194 L 40.8336 84.7591 L 40.7792 84.8086 L 40.7473 84.8376 L 40.7183 84.8646 L 40.641 84.9364 L 40.6345 84.9425 L 40.5359 85.0356 L 40.4949 85.0742 L 40.4398 85.1168 L 40.3652 85.189 L 40.2914 85.2604 L 40.2635 85.2874 L 40.2236 85.3206 L 40.0208 85.5213 L 40.0111 85.5309 L 39.9581 85.5826 L 39.6742 85.8578 L 39.6542 85.8772 L 39.605 85.9249 L 39.5338 85.9846 L 38.9789 86.5166 L 38.9228 86.5676 L 38.4775 86.9788 L 38.1775 87.249 L 38.1666 87.2599 L 38.1565 87.27 L 37.977 87.4485 L 37.7616 87.6553 L 37.6833 87.7296 L 37.6835 87.7298 L 37.6572 87.755 L 37.5761 87.838 L 37.5545 87.8595 L 37.5461 87.8681 L 37.5397 87.8738 L 37.5137 87.8975 L 37.5096 87.9009 L 37.4808 87.925 L 37.479 87.9263 L 37.4538 87.9455 L 37.4487 87.9493 L 37.4483 87.9496 L 37.4213 87.9674 L 37.4188 87.9691 L 37.3932 87.9838 L 37.3886 87.9866 L 37.3645 87.9984 L 37.3579 88.0017 L 37.3355 88.0107 L 37.3272 88.0142 L 37.3066 88.0206 L 37.2968 88.0238 L 37.278 88.0278 L 37.2671 88.0302 L 37.2501 88.032 L 37.2385 88.0333 L 37.2234 88.0331 L 37.2115 88.033 L 37.1979 88.0308 L 37.1863 88.0291 L 37.1743 88.0252 L 37.1633 88.0216 L 37.153 88.0161 L 37.143 88.0107 L 37.1333 88.0045 L 37.126 87.9989 L 36.9934 87.866 L 36.8697 87.738 L 37.0926 87.5151 L 37.2059 87.4018 L 37.3003 87.3073 L 37.3297 87.313 L 37.4193 87.3297 L 37.1633 87.5858 L 37.0099 87.7391 L 37.0642 87.7954 L 37.1913 87.9228 L 37.1944 87.9248 L 37.2001 87.9279 L 37.2028 87.9293 L 37.2051 87.9301 L 37.2052 87.9301 L 37.2093 87.9314 L 37.2131 87.932 L 37.2197 87.933 L 37.2245 87.9331 L 37.2336 87.9332 L 37.2393 87.9326 L 37.2506 87.9314 L 37.2568 87.9301 L 37.2704 87.9271 L 37.2762 87.9253 L 37.2929 87.9201 L 37.2974 87.9182 L 37.3175 87.9101 L 37.3202 87.9088 L 37.3404 87.8988 L 37.3423 87.8977 L 37.3658 87.8842 L 37.3905 87.8679 L 37.3941 87.8653 L 37.4194 87.846 L 37.4456 87.8241 L 37.4474 87.8225 L 37.4728 87.7995 L 37.4771 87.7956 L 37.4835 87.7891 L 37.5056 87.7671 L 37.542 87.7297 L 37.54 87.7277 L 37.6923 87.5832 L 37.9077 87.3764 L 38.086 87.1991 L 38.0959 87.1892 L 38.1086 87.1764 L 38.4106 86.9045 L 38.8552 86.4939 L 38.9116 86.4426 L 39.467 85.9101 L 39.5381 85.8504 L 39.5846 85.8054 L 39.6046 85.786 L 39.8885 85.5108 L 39.9413 85.4593 L 39.9505 85.4502 L 40.1563 85.2465 L 40.1971 85.2125 L 40.2219 85.1885 L 40.2957 85.1171 L 40.3742 85.0411 L 40.4302 84.9977 L 40.4672 84.9629 L 40.566 84.8697 L 40.5728 84.8633 L 40.6502 84.7913 L 40.6796 84.764 L 40.7119 84.7346 L 40.7668 84.6847 L 40.8121 84.6446 L 40.834 84.625 L 40.8952 84.572 L 40.9172 84.5535 L 40.957 84.5199 L 41.0055 84.486 L 41.0185 84.475 L 41.0506 84.4476 L 41.1221 84.3883 L 41.1228 84.3883 L 41.1427 84.3723 L 41.2009 84.3229 L 41.2803 84.2559 L 41.3708 84.182 L 41.4548 84.1075 L 41.5487 84.0252 L 41.5574 84.0163 L 41.6092 83.9617 L 41.632 83.9293 L 41.6622 83.8863 L 41.6758 83.8589 L 41.7037 83.8019 L 41.7132 83.775 L 41.7213 83.7489 L 41.7296 83.7171 L 41.7355 83.6828 L 41.7382 83.6634 L 41.7411 83.6296 L 41.7411 83.5903 L 41.7406 83.5781 L 41.7369 83.5368 L 41.7368 83.5365 L 41.7297 83.4978 L 41.7292 83.4957 L 41.7247 83.4776 L 41.7169 83.4504 L 41.7154 83.4439 L 41.7105 83.4334 L 41.7094 83.4287 L 41.6847 83.3715 L 41.68 83.3608 L 41.6628 83.3339 L 41.6339 83.2797 L 41.6249 83.2606 L 41.6201 83.2549 L 41.5734 83.1756 L 41.4937 83.2554 L 41.3517 83.3973 L 41.3371 83.3691 L 41.3025 83.3051 L 41.423 83.1847 L 41.5505 83.0572 L 41.5953 83.0124 L 41.6238 83.0639" fill="none" stroke="#0000CC" stroke-width="0.05000" fill-rule="evenodd" fill-opacity="1.000"/>
    <path d="M 41.423 83.6058 L 41.1357 83.893 L 40.411 84.6177 L 40.3893 84.6393 L 40.2622 84.7665 L 38.7442 86.2845 L 38.5201 86.5085 L 38.2305 86.7982 L 37.8776 87.1511 L 37.7219 87.128 L 37.8099 87.0399 L 37.8425 87.0448 L 37.9306 86.9567 L 38.1598 86.7275 L 38.4494 86.4378 L 38.6735 86.2138 L 39.1442 85.7431 L 39.3724 85.5149 L 39.4063 85.481 L 39.531 85.3563 L 39.6587 85.2286 L 39.6888 85.1985 L 39.844 85.0433 L 39.9152 84.9721 L 39.9936 84.8937 L 40.0445 84.8428 L 40.1439 84.7434 L 40.1744 84.7129 L 40.1915 84.6958 L 40.3188 84.5684 L 40.3404 84.5469 L 40.4658 84.4215 L 40.5074 84.3799 L 40.6044 84.2829 L 40.6186 84.2687 L 40.7799 84.1074 L 40.9879 83.8994 L 41.0554 83.8319 L 41.065 83.8223 L 41.3009 83.5864 L 41.2883 83.5617 L 41.3627 83.4873 L 41.423 83.6058" fill="none" stroke="#0000CC" stroke-width="0.05000" fill-rule="evenodd" fill-opacity="1.000"/>
    </g>
    <g class="thermal-contour" data-segment="4" data-name="HollowShell1Contour_Overhang">
    <path d="M 37.687 87.0218 L 37.8099 87.0399 L 37.7219 87.128 L 37.671 87.1205 L 37.6349 87.1141 L 37.5678 87.1813 L 37.4193 87.3297 L 37.3297 87.313 L 37.3003 87.3073 L 37.3962 87.2115 L 37.4971 87.1106 L 37.601 87.0067 L 37.687 87.0218" fill="none" stroke="#000080" stroke-width="0.05000" fill-rule="evenodd" fill-opacity="1.000"/>
    <path d="M 41.3371 83.3691 L 41.3517 83.3973 L 41.3502 83.3989 L 41.3286 83.4204 L 41.3627 83.4873 L 41.2883 83.5617 L 41.2756 83.5368 L 41.2094 83.4066 L 41.2066 83.4011 L 41.2138 83.3939 L 41.215 83.3927 L 41.2795 83.3282 L 41.3025 83.3051 L 41.3371 83.3691" fill="none" stroke="#000080" stroke-width="0.05000" fill-rule="evenodd" fill-opacity="1.000"/>
    </g>
    <g class="thermal-contour" data-segment="5" data-name="HollowShell2Contour_Volume">
    <path d="M 41.6201 83.2549 L 41.6249 83.2606 L 41.6339 83.2797 L 41.6628 83.3339 L 41.68 83.3608 L 41.6847 83.3715 L 41.7094 83.4287 L 41.7105 83.4334 L 41.7154 83.4439 L 41.7169 83.4504 L 41.7247 83.4776 L 41.7292 83.4957 L 41.7297 83.4978 L 41.7368 83.5365 L 41.7369 83.5368 L 41.7406 83.5781 L 41.7411 83.5903 L 41.7411 83.6296 L 41.7382 83.6634 L 41.7355 83.6828 L 41.7296 83.7171 L 41.7213 83.7489 L 41.7132 83.775 L 41.7037 83.8019 L 41.6758 83.8589 L 41.6622 83.8863 L 41.632 83.9293 L 41.6092 83.9617 L 41.5574 84.0163 L 41.5487 84.0252 L 41.4548 84.1075 L 41.3708 84.182 L 41.2803 84.2559 L 41.2009 84.3229 L 41.1427 84.3723 L 41.1228 84.3883 L 41.1221 84.3883 L 41.0506 84.4476 L 41.0185 84.475 L 41.0055 84.486 L 40.957 84.5199 L 40.9172 84.5535 L 40.8952 84.572 L 40.834 84.625 L 40.8121 84.6446 L 40.7668 84.6847 L 40.7119 84.7346 L 40.6796 84.764 L 40.6502 84.7913 L 40.5728 84.8633 L 40.566 84.8697 L 40.4672 84.9629 L 40.4302 84.9977 L 40.3742 85.0411 L 40.2957 85.1171 L 40.2219 85.1885 L 40.1971 85.2125 L 40.1563 85.2465 L 39.9505 85.4502 L 39.9413 85.4593 L 39.8885 85.5108 L 39.6046 85.786 L 39.5846 85.8054 L 39.5381 85.8504 L 39.467 85.9101 L 38.9116 86.4426 L 38.8552 86.4939 L 38.4106 86.9045 L 38.1086 87.1764 L 38.0959 87.1892 L 38.086 87.1991 L 37.9077 87.3764 L 37.6923 87.5832 L 37.54 87.7277 L 37.542 87.7297 L 37.5056 87.7671 L 37.4835 87.7891 L 37.4771 87.7956 L 37.4728 87.7995 L 37.4474 87.8225 L 37.4456 87.8241 L 37.4194 87.846 L 37.3941 87.8653 L 37.3905 87.8679 L 37.3658 87.8842 L 37.3423 87.8977 L 37.3404 87.8988 L 37.3202 87.9088 L 37.3175 87.9101 L 37.2974 87.9182 L 37.2929 87.9201 L 37.2762 87.9253 L 37.2704 87.9271 L 37.2568 87.9301 L 37.2506 87.9314 L 37.2393 87.9326 L 37.2336 87.9332 L 37.2245 87.9331 L 37.2197 87.933 L 37.2131 87.932 L 37.2093 87.9314 L 37.2052 87.9301 L 37.2051 87.9301 L 37.2028 87.9293 L 37.2001 87.9279 L 37.1944 87.9248 L 37.1913 87.9228 L 37.0642 87.7954 L 37.0099 87.7391 L 37.1633 87.5858 L 37.4193 87.3297 L 37.5043 87.3457 L 37.6441 87.2059 L 37.7219 87.128 L 37.8776 87.1511 L 38.2305 86.7982 L 38.5201 86.5085 L 38.7442 86.2845 L 40.2622 84.7665 L 40.3893 84.6393 L 40.411 84.6177 L 41.1357 83.893 L 41.423 83.6058 L 41.3627 83.4873 L 41.3864 83.4637 L 41.3517 83.3973 L 41.4937 83.2554 L 41.5734 83.1756 L 41.6201 83.2549" fill="none" stroke="#B8860B" stroke-width="0.05000" fill-rule="evenodd" fill-opacity="1.000"/>
    <path d="M 37.6385 87.252 L 37.234 87.6565 L 37.1503 87.7401 L 37.241 87.8311 L 37.2454 87.8301 L 37.2465 87.8298 L 37.2591 87.8258 L 37.2774 87.8183 L 37.2931 87.8106 L 37.3125 87.7994 L 37.3341 87.7852 L 37.3581 87.7669 L 37.381 87.7478 L 37.4007 87.7298 L 37.3967 87.7258 L 37.623 87.5111 L 37.8384 87.3043 L 37.889 87.2539 L 37.6691 87.2213 L 37.6385 87.252" fill="none" stroke="#B8860B" stroke-width="0.05000" fill-rule="evenodd" fill-opacity="1.000"/>
    <path d="M 37.9796 87.1763 L 37.9809 87.1765 L 38.0225 87.1353 L 38.032 87.1258 L 38.0465 87.1112 L 38.2454 86.932 L 38.2349 86.9209 L 37.9796 87.1763" fill="none" stroke="#B8860B" stroke-width="0.05000" fill-rule="evenodd" fill-opacity="1.000"/>
    <path d="M 41.4506 83.4398 L 41.5451 83.6252 L 41.2064 83.9637 L 40.4816 84.6885 L 40.4598 84.7102 L 40.3329 84.8372 L 38.8149 86.3552 L 38.5908 86.5792 L 38.3055 86.8645 L 38.3437 86.8302 L 38.7876 86.4202 L 38.8443 86.3686 L 39.4002 85.8356 L 39.4712 85.7759 L 39.5151 85.7335 L 39.535 85.7142 L 39.8189 85.439 L 39.8715 85.3877 L 39.8802 85.3791 L 40.089 85.1724 L 40.1299 85.1382 L 40.1524 85.1166 L 40.2262 85.0452 L 40.3086 84.9654 L 40.3654 84.9213 L 40.3987 84.8901 L 40.4974 84.7969 L 40.5045 84.7903 L 40.5821 84.7181 L 40.6119 84.6904 L 40.6446 84.6606 L 40.7 84.6103 L 40.7458 84.5697 L 40.7679 84.5499 L 40.8303 84.4959 L 40.8528 84.477 L 40.896 84.4405 L 40.9449 84.4062 L 40.9536 84.3989 L 40.9862 84.3711 L 41.086 84.2883 L 41.0872 84.2883 L 41.1363 84.2466 L 41.2164 84.179 L 41.3056 84.106 L 41.3887 84.0325 L 41.4798 83.9525 L 41.4859 83.9464 L 41.5314 83.8984 L 41.5502 83.8718 L 41.5758 83.8353 L 41.5862 83.8144 L 41.6113 83.7631 L 41.6184 83.7429 L 41.6246 83.7229 L 41.6317 83.6959 L 41.6369 83.6658 L 41.6388 83.6523 L 41.6411 83.6252 L 41.6411 83.5919 L 41.6408 83.5848 L 41.6377 83.551 L 41.6315 83.5172 L 41.6286 83.5052 L 41.6206 83.4773 L 41.6155 83.4663 L 41.614 83.4599 L 41.5931 83.4116 L 41.5931 83.4117 L 41.5913 83.4078 L 41.5764 83.3844 L 41.5519 83.3385 L 41.4506 83.4398" fill="none" stroke="#B8860B" stroke-width="0.05000" fill-rule="evenodd" fill-opacity="1.000"/>
    </g>
    <g class="thermal-contour" data-segment="6" data-name="HollowShell2Contour_Overhang">
    <path d="M 37.671 87.1205 L 37.7219 87.128 L 37.6441 87.2059 L 37.5043 87.3457 L 37.4193 87.3297 L 37.5678 87.1813 L 37.6349 87.1141 L 37.671 87.1205" fill="none" stroke="#006400" stroke-width="0.05000" fill-rule="evenodd" fill-opacity="1.000"/>
    <path d="M 41.3864 83.4637 L 41.3627 83.4873 L 41.3286 83.4204 L 41.3502 83.3989 L 41.3517 83.3973 L 41.3864 83.4637" fill="none" stroke="#006400" stroke-width="0.05000" fill-rule="evenodd" fill-opacity="1.000"/>
    </g>
    <!-- ===== Thermal Segment Colour Legend ===== -->
    <g id="thermal-legend">
    <rect x="161.0000" y="5.0000" width="40.0000" height="72.0000"
          rx="1" ry="1"
          fill="#fafafa" stroke="#cccccc" stroke-width="0.15"/>
    <text x="181.0000" y="7.6000" font-family="sans-serif" font-size="2.2000" font-weight="bold" fill="#222222" text-anchor="middle">Thermal Segments</text>
    <line x1="161.5000" y1="8.7000" x2="200.5000" y2="8.7000" stroke="#bbbbbb" stroke-width="0.1"/>
    <rect x="161.8000" y="9.0000" width="3.5000" height="2.0000" fill="#000000" stroke="#333333" stroke-width="0.08" rx="0.3" ry="0.3"/>
    <text x="168.6000" y="10.9000" font-family="monospace" font-size="1.6000" fill="#444444" text-anchor="end"> 1</text>
    <text x="169.6000" y="10.9000" font-family="sans-serif" font-size="1.6000" fill="#111111">CoreContour_Volume</text>
    <rect x="161.8000" y="12.0000" width="3.5000" height="2.0000" fill="#8B0000" stroke="#333333" stroke-width="0.08" rx="0.3" ry="0.3"/>
    <text x="168.6000" y="13.9000" font-family="monospace" font-size="1.6000" fill="#444444" text-anchor="end"> 2</text>
    <text x="169.6000" y="13.9000" font-family="sans-serif" font-size="1.6000" fill="#111111">CoreContour_Overhang</text>
    <rect x="161.8000" y="15.0000" width="3.5000" height="2.0000" fill="#0000CC" stroke="#333333" stroke-width="0.08" rx="0.3" ry="0.3"/>
    <text x="168.6000" y="16.9000" font-family="monospace" font-size="1.6000" fill="#444444" text-anchor="end"> 3</text>
    <text x="169.6000" y="16.9000" font-family="sans-serif" font-size="1.6000" fill="#111111">Shell1Contour_Volume</text>
    <rect x="161.8000" y="18.0000" width="3.5000" height="2.0000" fill="#000080" stroke="#333333" stroke-width="0.08" rx="0.3" ry="0.3"/>
    <text x="168.6000" y="19.9000" font-family="monospace" font-size="1.6000" fill="#444444" text-anchor="end"> 4</text>
    <text x="169.6000" y="19.9000" font-family="sans-serif" font-size="1.6000" fill="#111111">Shell1Contour_Overhang</text>
    <rect x="161.8000" y="21.0000" width="3.5000" height="2.0000" fill="#B8860B" stroke="#333333" stroke-width="0.08" rx="0.3" ry="0.3"/>
    <text x="168.6000" y="22.9000" font-family="monospace" font-size="1.6000" fill="#444444" text-anchor="end"> 5</text>
    <text x="169.6000" y="22.9000" font-family="sans-serif" font-size="1.6000" fill="#111111">Shell2Contour_Volume</text>
    <rect x="161.8000" y="24.0000" width="3.5000" height="2.0000" fill="#006400" stroke="#333333" stroke-width="0.08" rx="0.3" ry="0.3"/>
    <text x="168.6000" y="25.9000" font-family="monospace" font-size="1.6000" fill="#444444" text-anchor="end"> 6</text>
    <text x="169.6000" y="25.9000" font-family="sans-serif" font-size="1.6000" fill="#111111">Shell2Contour_Overhang</text>
    <rect x="161.8000" y="27.0000" width="3.5000" height="2.0000" fill="#FF8C00" stroke="#333333" stroke-width="0.08" rx="0.3" ry="0.3"/>
    <text x="168.6000" y="28.9000" font-family="monospace" font-size="1.6000" fill="#444444" text-anchor="end"> 7</text>
    <text x="169.6000" y="28.9000" font-family="sans-serif" font-size="1.6000" fill="#111111">CoreOverhangHatch</text>
    <rect x="161.8000" y="30.0000" width="3.5000" height="2.0000" fill="#228B22" stroke="#333333" stroke-width="0.08" rx="0.3" ry="0.3"/>
    <text x="168.6000" y="31.9000" font-family="monospace" font-size="1.6000" fill="#444444" text-anchor="end"> 8</text>
    <text x="169.6000" y="31.9000" font-family="sans-serif" font-size="1.6000" fill="#111111">CoreNormalHatch</text>
    <rect x="161.8000" y="33.0000" width="3.5000" height="2.0000" fill="#800080" stroke="#333333" stroke-width="0.08" rx="0.3" ry="0.3"/>
    <text x="168.6000" y="34.9000" font-family="monospace" font-size="1.6000" fill="#444444" text-anchor="end"> 9</text>
    <text x="169.6000" y="34.9000" font-family="sans-serif" font-size="1.6000" fill="#111111">CoreContourHatch</text>
    <rect x="161.8000" y="36.0000" width="3.5000" height="2.0000" fill="#FF69B4" stroke="#333333" stroke-width="0.08" rx="0.3" ry="0.3"/>
    <text x="168.6000" y="37.9000" font-family="monospace" font-size="1.6000" fill="#444444" text-anchor="end">10</text>
    <text x="169.6000" y="37.9000" font-family="sans-serif" font-size="1.6000" fill="#111111">Shell1OverhangHatch</text>
    <rect x="161.8000" y="39.0000" width="3.5000" height="2.0000" fill="#00CED1" stroke="#333333" stroke-width="0.08" rx="0.3" ry="0.3"/>
    <text x="168.6000" y="40.9000" font-family="monospace" font-size="1.6000" fill="#444444" text-anchor="end">11</text>
    <text x="169.6000" y="40.9000" font-family="sans-serif" font-size="1.6000" fill="#111111">Shell1NormalHatch</text>
    <rect x="161.8000" y="42.0000" width="3.5000" height="2.0000" fill="#FF00FF" stroke="#333333" stroke-width="0.08" rx="0.3" ry="0.3"/>
    <text x="168.6000" y="43.9000" font-family="monospace" font-size="1.6000" fill="#444444" text-anchor="end">12</text>
    <text x="169.6000" y="43.9000" font-family="sans-serif" font-size="1.6000" fill="#111111">Shell1ContourHatch</text>
    <rect x="161.8000" y="45.0000" width="3.5000" height="2.0000" fill="#A52A2A" stroke="#333333" stroke-width="0.08" rx="0.3" ry="0.3"/>
    <text x="168.6000" y="46.9000" font-family="monospace" font-size="1.6000" fill="#444444" text-anchor="end">13</text>
    <text x="169.6000" y="46.9000" font-family="sans-serif" font-size="1.6000" fill="#111111">Shell2OverhangHatch</text>
    <rect x="161.8000" y="48.0000" width="3.5000" height="2.0000" fill="#808080" stroke="#333333" stroke-width="0.08" rx="0.3" ry="0.3"/>
    <text x="168.6000" y="49.9000" font-family="monospace" font-size="1.6000" fill="#444444" text-anchor="end">14</text>
    <text x="169.6000" y="49.9000" font-family="sans-serif" font-size="1.6000" fill="#111111">Shell2NormalHatch</text>
    <rect x="161.8000" y="51.0000" width="3.5000" height="2.0000" fill="#32CD32" stroke="#333333" stroke-width="0.08" rx="0.3" ry="0.3"/>
    <text x="168.6000" y="52.9000" font-family="monospace" font-size="1.6000" fill="#444444" text-anchor="end">15</text>
    <text x="169.6000" y="52.9000" font-family="sans-serif" font-size="1.6000" fill="#111111">Shell2ContourHatch</text>
    <rect x="161.8000" y="54.0000" width="3.5000" height="2.0000" fill="#1A237E" stroke="#333333" stroke-width="0.08" rx="0.3" ry="0.3"/>
    <text x="168.6000" y="55.9000" font-family="monospace" font-size="1.6000" fill="#444444" text-anchor="end">16</text>
    <text x="169.6000" y="55.9000" font-family="sans-serif" font-size="1.6000" fill="#111111">SupportContourVolume</text>
    <rect x="161.8000" y="57.0000" width="3.5000" height="2.0000" fill="#827717" stroke="#333333" stroke-width="0.08" rx="0.3" ry="0.3"/>
    <text x="168.6000" y="58.9000" font-family="monospace" font-size="1.6000" fill="#444444" text-anchor="end">17</text>
    <text x="169.6000" y="58.9000" font-family="sans-serif" font-size="1.6000" fill="#111111">SupportHatch</text>
    <rect x="161.8000" y="60.0000" width="3.5000" height="2.0000" fill="#006064" stroke="#333333" stroke-width="0.08" rx="0.3" ry="0.3"/>
    <text x="168.6000" y="61.9000" font-family="monospace" font-size="1.6000" fill="#444444" text-anchor="end">18</text>
    <text x="169.6000" y="61.9000" font-family="sans-serif" font-size="1.6000" fill="#111111">PointSequence</text>
    <rect x="161.8000" y="63.0000" width="3.5000" height="2.0000" fill="#B71C1C" stroke="#333333" stroke-width="0.08" rx="0.3" ry="0.3"/>
    <text x="168.6000" y="64.9000" font-family="monospace" font-size="1.6000" fill="#444444" text-anchor="end">19</text>
    <text x="169.6000" y="64.9000" font-family="sans-serif" font-size="1.6000" fill="#111111">ExternalSupports</text>
    <rect x="161.8000" y="66.0000" width="3.5000" height="2.0000" fill="#E64A19" stroke="#333333" stroke-width="0.08" rx="0.3" ry="0.3"/>
    <text x="168.6000" y="67.9000" font-family="monospace" font-size="1.6000" fill="#444444" text-anchor="end">20</text>
    <text x="169.6000" y="67.9000" font-family="sans-serif" font-size="1.6000" fill="#111111">CoreContourHatchOverhang</text>
    <rect x="161.8000" y="69.0000" width="3.5000" height="2.0000" fill="#311B92" stroke="#333333" stroke-width="0.08" rx="0.3" ry="0.3"/>
    <text x="168.6000" y="70.9000" font-family="monospace" font-size="1.6000" fill="#444444" text-anchor="end">21</text>
    <text x="169.6000" y="70.9000" font-family="sans-serif" font-size="1.6000" fill="#111111">Shell1ContourHatchOverhang</text>
    <rect x="161.8000" y="72.0000" width="3.5000" height="2.0000" fill="#880E4F" stroke="#333333" stroke-width="0.08" rx="0.3" ry="0.3"/>
    <text x="168.6000" y="73.9000" font-family="monospace" font-size="1.6000" fill="#444444" text-anchor="end">22</text>
    <text x="169.6000" y="73.9000" font-family="sans-serif" font-size="1.6000" fill="#111111">Shell2ContourHatchOverhang</text>
    </g>
  </g>
</svg>
