<?xml version="1.0" encoding="UTF-8" standalone="yes"?>
<svg xmlns="http://www.w3.org/2000/svg"
     xmlns:xlink="http://www.w3.org/1999/xlink"
     width="2020.0000mm" height="1600.0000mm"
     viewBox="0 0 202.000000 160.000000">
  <!--
    Build plate : 150.00 x 150.00 mm
    Coordinate  : 1 SVG unit = 1 mm
    Display zoom: 10x  (width/height = viewBox x 10)
    Hatch stroke: 0.04 mm = ~28 mm on screen at this zoom
    Legend panel: right margin (42 mm wide)
  -->
  <defs>
    <marker id="endArrow" markerWidth="2" markerHeight="1.4"
            refX="0" refY="0.7" orient="auto"
            markerUnits="strokeWidth">
      <polyline fill="darkblue" points="0,0 2,0.7 0,1.4 0.2,0.7"/>
    </marker>
  </defs>
  <!-- Background -->
  <rect x="0" y="0" width="202.000000" height="160.000000" fill="#f0f0f0" stroke="none"/>
  <!-- Build plate boundary (150 x 150 mm) -->
  <rect x="5.000000" y="5.000000" width="150.000000" height="150.000000"
        fill="#ffffff" stroke="#aaaaaa" stroke-width="0.2" stroke-dasharray="1,0.5"/>
  <!-- Build plate centre circle (r = 75.00 mm) -->
  <circle cx="80.000000" cy="80.000000" r="75.000000"
          fill="none" stroke="#bbbbbb" stroke-width="0.15" stroke-dasharray="0.8,0.4"/>
  <!-- Centre cross-hair -->
  <line x1="5.000000" y1="80.000000" x2="155.000000" y2="80.000000" stroke="#cccccc" stroke-width="0.1"/>
  <line x1="80.000000" y1="5.000000" x2="80.000000" y2="155.000000" stroke="#cccccc" stroke-width="0.1"/>
  <circle cx="80.000000" cy="80.000000" r="0.3" fill="#cccccc" stroke="none"/>
  <!-- Corner labels -->
  <text x="5.400000" y="4.600000" font-family="sans-serif" font-size="2" fill="#888888">0,0</text>
  <text x="154.600006" y="4.600000" font-family="sans-serif" font-size="2" fill="#888888" text-anchor="end">150,0</text>
  <text x="5.400000" y="157.199997" font-family="sans-serif" font-size="2" fill="#888888">0,150</text>
  <!-- Layer geometry -->
  <g id="geometry">
    <g class="thermal-hatch" data-segment="8" data-name="CoreNormalHatch">
      <line x1="34.34629" y1="126.93441" x2="35.87106" y2="127.64542" stroke="#228B22" stroke-width="0.04000"/>
      <line x1="34.52702" y1="127.12902" x2="35.63226" y2="127.64439" stroke="#228B22" stroke-width="0.04000"/>
      <line x1="34.27769" y1="126.79208" x2="36.08965" y2="127.63701" stroke="#228B22" stroke-width="0.04000"/>
      <line x1="34.71270" y1="127.32594" x2="35.37924" y2="127.63675" stroke="#228B22" stroke-width="0.04000"/>
      <line x1="34.91948" y1="127.53270" x2="35.12622" y2="127.62910" stroke="#228B22" stroke-width="0.04000"/>
      <line x1="34.20908" y1="126.64975" x2="36.09404" y2="127.52872" stroke="#228B22" stroke-width="0.04000"/>
      <line x1="34.14047" y1="126.50742" x2="36.09844" y2="127.42044" stroke="#228B22" stroke-width="0.04000"/>
      <line x1="34.07186" y1="126.36508" x2="36.10284" y2="127.31214" stroke="#228B22" stroke-width="0.04000"/>
      <line x1="34.00325" y1="126.22276" x2="36.10706" y2="127.20377" stroke="#228B22" stroke-width="0.04000"/>
      <line x1="33.93464" y1="126.08042" x2="36.10358" y2="127.09181" stroke="#228B22" stroke-width="0.04000"/>
      <line x1="33.86530" y1="125.93775" x2="36.10011" y2="126.97986" stroke="#228B22" stroke-width="0.04000"/>
      <line x1="33.78942" y1="125.79203" x2="36.09663" y2="126.86790" stroke="#228B22" stroke-width="0.04000"/>
      <line x1="33.71355" y1="125.64632" x2="36.09315" y2="126.75594" stroke="#228B22" stroke-width="0.04000"/>
      <line x1="33.63767" y1="125.50060" x2="36.08968" y2="126.64398" stroke="#228B22" stroke-width="0.04000"/>
      <line x1="33.56179" y1="125.35487" x2="36.08592" y2="126.53189" stroke="#228B22" stroke-width="0.04000"/>
      <line x1="33.48592" y1="125.20915" x2="36.07509" y2="126.41650" stroke="#228B22" stroke-width="0.04000"/>
      <line x1="33.40803" y1="125.06249" x2="36.06426" y2="126.30112" stroke="#228B22" stroke-width="0.04000"/>
      <line x1="33.32474" y1="124.91332" x2="36.05343" y2="126.18573" stroke="#228B22" stroke-width="0.04000"/>
      <line x1="33.24145" y1="124.76414" x2="36.04260" y2="126.07034" stroke="#228B22" stroke-width="0.04000"/>
      <line x1="33.15815" y1="124.61496" x2="36.03177" y2="125.95496" stroke="#228B22" stroke-width="0.04000"/>
      <line x1="33.07486" y1="124.46578" x2="36.02031" y2="125.83927" stroke="#228B22" stroke-width="0.04000"/>
      <line x1="32.99157" y1="124.31660" x2="36.00771" y2="125.72306" stroke="#228B22" stroke-width="0.04000"/>
      <line x1="32.91149" y1="124.16893" x2="35.99512" y2="125.60685" stroke="#228B22" stroke-width="0.04000"/>
      <line x1="32.83410" y1="124.02251" x2="35.98252" y2="125.49064" stroke="#228B22" stroke-width="0.04000"/>
      <line x1="32.73571" y1="123.86629" x2="35.96771" y2="125.37340" stroke="#228B22" stroke-width="0.04000"/>
      <line x1="32.63732" y1="123.71008" x2="35.95234" y2="125.25589" stroke="#228B22" stroke-width="0.04000"/>
      <line x1="32.53893" y1="123.55385" x2="35.93246" y2="125.13628" stroke="#228B22" stroke-width="0.04000"/>
      <line x1="32.44054" y1="123.39763" x2="35.89954" y2="125.01059" stroke="#228B22" stroke-width="0.04000"/>
      <line x1="32.33458" y1="123.23788" x2="35.86663" y2="124.88490" stroke="#228B22" stroke-width="0.04000"/>
      <line x1="32.21712" y1="123.07278" x2="35.83372" y2="124.75922" stroke="#228B22" stroke-width="0.04000"/>
      <line x1="32.09966" y1="122.90766" x2="35.80080" y2="124.63354" stroke="#228B22" stroke-width="0.04000"/>
      <line x1="31.98219" y1="122.74255" x2="35.76789" y2="124.50785" stroke="#228B22" stroke-width="0.04000"/>
      <line x1="31.86799" y1="122.57896" x2="35.74627" y2="124.38743" stroke="#228B22" stroke-width="0.04000"/>
      <line x1="31.76394" y1="122.42010" x2="35.72859" y2="124.26884" stroke="#228B22" stroke-width="0.04000"/>
      <line x1="31.60238" y1="122.23443" x2="35.71091" y2="124.15027" stroke="#228B22" stroke-width="0.04000"/>
      <line x1="31.41103" y1="122.03487" x2="35.69324" y2="124.03169" stroke="#228B22" stroke-width="0.04000"/>
      <line x1="31.21968" y1="121.83530" x2="35.67557" y2="123.91311" stroke="#228B22" stroke-width="0.04000"/>
      <line x1="31.04806" y1="121.64494" x2="35.65789" y2="123.79453" stroke="#228B22" stroke-width="0.04000"/>
      <line x1="30.88622" y1="121.45912" x2="35.64021" y2="123.67595" stroke="#228B22" stroke-width="0.04000"/>
      <line x1="30.72438" y1="121.27332" x2="35.61984" y2="123.55611" stroke="#228B22" stroke-width="0.04000"/>
      <line x1="30.56151" y1="121.08703" x2="35.58083" y2="123.42758" stroke="#228B22" stroke-width="0.04000"/>
      <line x1="30.45330" y1="120.92624" x2="35.54823" y2="123.30205" stroke="#228B22" stroke-width="0.04000"/>
      <line x1="30.41772" y1="120.79931" x2="35.51824" y2="123.17772" stroke="#228B22" stroke-width="0.04000"/>
      <line x1="30.41801" y1="120.68911" x2="35.48811" y2="123.05334" stroke="#228B22" stroke-width="0.04000"/>
      <line x1="30.41831" y1="120.57891" x2="35.45768" y2="122.92880" stroke="#228B22" stroke-width="0.04000"/>
      <line x1="30.41860" y1="120.46870" x2="35.42724" y2="122.80428" stroke="#228B22" stroke-width="0.04000"/>
      <line x1="30.41890" y1="120.35851" x2="35.39680" y2="122.67974" stroke="#228B22" stroke-width="0.04000"/>
      <line x1="30.41919" y1="120.24831" x2="35.36637" y2="122.55521" stroke="#228B22" stroke-width="0.04000"/>
      <line x1="30.41948" y1="120.13811" x2="35.33789" y2="122.43159" stroke="#228B22" stroke-width="0.04000"/>
      <line x1="30.41978" y1="120.02791" x2="35.31253" y2="122.30943" stroke="#228B22" stroke-width="0.04000"/>
      <line x1="30.42007" y1="119.91770" x2="35.28717" y2="122.18727" stroke="#228B22" stroke-width="0.04000"/>
      <line x1="30.44127" y1="119.81725" x2="35.26180" y2="122.06510" stroke="#228B22" stroke-width="0.04000"/>
      <line x1="30.46455" y1="119.71777" x2="35.21313" y2="121.93206" stroke="#228B22" stroke-width="0.04000"/>
      <line x1="30.48782" y1="119.61828" x2="35.16334" y2="121.79851" stroke="#228B22" stroke-width="0.04000"/>
      <line x1="30.51109" y1="119.51880" x2="35.11356" y2="121.66496" stroke="#228B22" stroke-width="0.04000"/>
      <line x1="30.53436" y1="119.41931" x2="35.07416" y2="121.53625" stroke="#228B22" stroke-width="0.04000"/>
      <line x1="30.55764" y1="119.31982" x2="35.04021" y2="121.41009" stroke="#228B22" stroke-width="0.04000"/>
      <line x1="30.58091" y1="119.22034" x2="35.00626" y2="121.28391" stroke="#228B22" stroke-width="0.04000"/>
      <line x1="30.60419" y1="119.12085" x2="34.97232" y2="121.15775" stroke="#228B22" stroke-width="0.04000"/>
      <line x1="30.63499" y1="119.02488" x2="34.93838" y2="121.03158" stroke="#228B22" stroke-width="0.04000"/>
      <line x1="30.68784" y1="118.93919" x2="34.90443" y2="120.90542" stroke="#228B22" stroke-width="0.04000"/>
      <line x1="30.73227" y1="118.84957" x2="34.86620" y2="120.77725" stroke="#228B22" stroke-width="0.04000"/>
      <line x1="30.77404" y1="118.75871" x2="34.81702" y2="120.64398" stroke="#228B22" stroke-width="0.04000"/>
      <line x1="30.81580" y1="118.66785" x2="34.77359" y2="120.51339" stroke="#228B22" stroke-width="0.04000"/>
      <line x1="30.85757" y1="118.57698" x2="34.73987" y2="120.38733" stroke="#228B22" stroke-width="0.04000"/>
      <line x1="30.89934" y1="118.48611" x2="34.70615" y2="120.26127" stroke="#228B22" stroke-width="0.04000"/>
      <line x1="30.94110" y1="118.39526" x2="34.67243" y2="120.13521" stroke="#228B22" stroke-width="0.04000"/>
      <line x1="30.98286" y1="118.30440" x2="34.63872" y2="120.00915" stroke="#228B22" stroke-width="0.04000"/>
      <line x1="31.02463" y1="118.21353" x2="34.60500" y2="119.88309" stroke="#228B22" stroke-width="0.04000"/>
      <line x1="31.06639" y1="118.12267" x2="34.56843" y2="119.75570" stroke="#228B22" stroke-width="0.04000"/>
      <line x1="31.10816" y1="118.03181" x2="34.53082" y2="119.62782" stroke="#228B22" stroke-width="0.04000"/>
      <line x1="31.14993" y1="117.94094" x2="34.49321" y2="119.49995" stroke="#228B22" stroke-width="0.04000"/>
      <line x1="31.20283" y1="117.85528" x2="34.45560" y2="119.37207" stroke="#228B22" stroke-width="0.04000"/>
      <line x1="31.26507" y1="117.77396" x2="34.41854" y2="119.24445" stroke="#228B22" stroke-width="0.04000"/>
      <line x1="31.32625" y1="117.69215" x2="34.38193" y2="119.11704" stroke="#228B22" stroke-width="0.04000"/>
      <line x1="31.38742" y1="117.61034" x2="34.34533" y2="118.98964" stroke="#228B22" stroke-width="0.04000"/>
      <line x1="31.44860" y1="117.52853" x2="34.30902" y2="118.86237" stroke="#228B22" stroke-width="0.04000"/>
      <line x1="31.50978" y1="117.44672" x2="34.27283" y2="118.73515" stroke="#228B22" stroke-width="0.04000"/>
      <line x1="31.57096" y1="117.36491" x2="34.22778" y2="118.60381" stroke="#228B22" stroke-width="0.04000"/>
      <line x1="31.63283" y1="117.28342" x2="34.16628" y2="118.46479" stroke="#228B22" stroke-width="0.04000"/>
      <line x1="31.69489" y1="117.20203" x2="34.10478" y2="118.32578" stroke="#228B22" stroke-width="0.04000"/>
      <line x1="31.75695" y1="117.12063" x2="34.04328" y2="118.18676" stroke="#228B22" stroke-width="0.04000"/>
      <line x1="31.81901" y1="117.03923" x2="33.98431" y2="118.04893" stroke="#228B22" stroke-width="0.04000"/>
      <line x1="31.88107" y1="116.95783" x2="33.93348" y2="117.91489" stroke="#228B22" stroke-width="0.04000"/>
      <line x1="31.95793" y1="116.88333" x2="33.88265" y2="117.78085" stroke="#228B22" stroke-width="0.04000"/>
      <line x1="32.08262" y1="116.83114" x2="33.83182" y2="117.64680" stroke="#228B22" stroke-width="0.04000"/>
      <line x1="32.22337" y1="116.78643" x2="33.78099" y2="117.51276" stroke="#228B22" stroke-width="0.04000"/>
      <line x1="32.36410" y1="116.74172" x2="33.73016" y2="117.37873" stroke="#228B22" stroke-width="0.04000"/>
      <line x1="32.50484" y1="116.69701" x2="33.55070" y2="117.18471" stroke="#228B22" stroke-width="0.04000"/>
      <line x1="32.64559" y1="116.65231" x2="33.36958" y2="116.98991" stroke="#228B22" stroke-width="0.04000"/>
      <line x1="32.78633" y1="116.60760" x2="32.87044" y2="116.64681" stroke="#228B22" stroke-width="0.04000"/>
    </g>
    <g class="thermal-hatch" data-segment="8" data-name="CoreNormalHatch">
      <line x1="43.17807" y1="111.00717" x2="52.66904" y2="115.43289" stroke="#228B22" stroke-width="0.04000"/>
      <line x1="42.91441" y1="110.77389" x2="52.78340" y2="115.37587" stroke="#228B22" stroke-width="0.04000"/>
      <line x1="42.69992" y1="110.56354" x2="52.89775" y2="115.31886" stroke="#228B22" stroke-width="0.04000"/>
      <line x1="43.46445" y1="111.25105" x2="52.13504" y2="115.29422" stroke="#228B22" stroke-width="0.04000"/>
      <line x1="42.52243" y1="110.37043" x2="53.01210" y2="115.26184" stroke="#228B22" stroke-width="0.04000"/>
      <line x1="42.33994" y1="110.17500" x2="53.09326" y2="115.18935" stroke="#228B22" stroke-width="0.04000"/>
      <line x1="42.16467" y1="109.98293" x2="53.09505" y2="115.07985" stroke="#228B22" stroke-width="0.04000"/>
      <line x1="42.00304" y1="109.79723" x2="53.09685" y2="114.97035" stroke="#228B22" stroke-width="0.04000"/>
      <line x1="41.93604" y1="109.65564" x2="53.09864" y2="114.86085" stroke="#228B22" stroke-width="0.04000"/>
      <line x1="41.86904" y1="109.51406" x2="53.10044" y2="114.75135" stroke="#228B22" stroke-width="0.04000"/>
      <line x1="41.80204" y1="109.37248" x2="53.10223" y2="114.64185" stroke="#228B22" stroke-width="0.04000"/>
      <line x1="41.73504" y1="109.23090" x2="53.10402" y2="114.53234" stroke="#228B22" stroke-width="0.04000"/>
      <line x1="41.66502" y1="109.08791" x2="53.10582" y2="114.42284" stroke="#228B22" stroke-width="0.04000"/>
      <line x1="41.55352" y1="108.92558" x2="53.11462" y2="114.31661" stroke="#228B22" stroke-width="0.04000"/>
      <line x1="43.76257" y1="111.50040" x2="49.68748" y2="114.26324" stroke="#228B22" stroke-width="0.04000"/>
      <line x1="41.51847" y1="108.79890" x2="53.14236" y2="114.21920" stroke="#228B22" stroke-width="0.04000"/>
      <line x1="41.52807" y1="108.69304" x2="53.08257" y2="114.08099" stroke="#228B22" stroke-width="0.04000"/>
      <line x1="44.07536" y1="111.75661" x2="49.02010" y2="114.06237" stroke="#228B22" stroke-width="0.04000"/>
      <line x1="41.53768" y1="108.58718" x2="52.88755" y2="113.87971" stroke="#228B22" stroke-width="0.04000"/>
      <line x1="44.54759" y1="112.08714" x2="48.33300" y2="113.85231" stroke="#228B22" stroke-width="0.04000"/>
      <line x1="41.54729" y1="108.48132" x2="52.69254" y2="113.67844" stroke="#228B22" stroke-width="0.04000"/>
      <line x1="45.20807" y1="112.50547" x2="47.66790" y2="113.65250" stroke="#228B22" stroke-width="0.04000"/>
      <line x1="41.55689" y1="108.37547" x2="52.49752" y2="113.47717" stroke="#228B22" stroke-width="0.04000"/>
      <line x1="41.56844" y1="108.27051" x2="51.98994" y2="113.13013" stroke="#228B22" stroke-width="0.04000"/>
      <line x1="41.58307" y1="108.16699" x2="50.41954" y2="112.28751" stroke="#228B22" stroke-width="0.04000"/>
      <line x1="41.59769" y1="108.06348" x2="48.40959" y2="111.23991" stroke="#228B22" stroke-width="0.04000"/>
      <line x1="41.61232" y1="107.95996" x2="47.93216" y2="110.90694" stroke="#228B22" stroke-width="0.04000"/>
      <line x1="41.68561" y1="107.88380" x2="47.19637" y2="110.45351" stroke="#228B22" stroke-width="0.04000"/>
      <line x1="41.76211" y1="107.80913" x2="46.95366" y2="110.22999" stroke="#228B22" stroke-width="0.04000"/>
      <line x1="41.83860" y1="107.73447" x2="46.68601" y2="109.99484" stroke="#228B22" stroke-width="0.04000"/>
      <line x1="41.91510" y1="107.65980" x2="46.40892" y2="109.75530" stroke="#228B22" stroke-width="0.04000"/>
      <line x1="41.99159" y1="107.58513" x2="46.22167" y2="109.55765" stroke="#228B22" stroke-width="0.04000"/>
      <line x1="42.06853" y1="107.51067" x2="46.08168" y2="109.38203" stroke="#228B22" stroke-width="0.04000"/>
      <line x1="42.14554" y1="107.43624" x2="45.94168" y2="109.20641" stroke="#228B22" stroke-width="0.04000"/>
      <line x1="42.22255" y1="107.36182" x2="45.78788" y2="109.02435" stroke="#228B22" stroke-width="0.04000"/>
      <line x1="42.33929" y1="107.30591" x2="45.60811" y2="108.83018" stroke="#228B22" stroke-width="0.04000"/>
      <line x1="42.51093" y1="107.27561" x2="45.45928" y2="108.65045" stroke="#228B22" stroke-width="0.04000"/>
      <line x1="42.67779" y1="107.24308" x2="45.31874" y2="108.47457" stroke="#228B22" stroke-width="0.04000"/>
      <line x1="42.84464" y1="107.21055" x2="45.17820" y2="108.29871" stroke="#228B22" stroke-width="0.04000"/>
      <line x1="43.01149" y1="107.17802" x2="45.01573" y2="108.11260" stroke="#228B22" stroke-width="0.04000"/>
      <line x1="43.17835" y1="107.14548" x2="44.80642" y2="107.90466" stroke="#228B22" stroke-width="0.04000"/>
      <line x1="43.52686" y1="107.19765" x2="44.59711" y2="107.69672" stroke="#228B22" stroke-width="0.04000"/>
    </g>
    <g class="thermal-hatch" data-segment="8" data-name="CoreNormalHatch">
      <line x1="33.04600" y1="117.06780" x2="33.39140" y2="117.43930" stroke="#228B22" stroke-width="0.04000"/>
      <line x1="33.39140" y1="117.43930" x2="33.47680" y2="117.52880" stroke="#228B22" stroke-width="0.04000"/>
      <line x1="33.47680" y1="117.52880" x2="33.72810" y2="118.19090" stroke="#228B22" stroke-width="0.04000"/>
      <line x1="33.72810" y1="118.19090" x2="33.97560" y2="118.75090" stroke="#228B22" stroke-width="0.04000"/>
      <line x1="33.97560" y1="118.75090" x2="34.05620" y2="119.03310" stroke="#228B22" stroke-width="0.04000"/>
      <line x1="34.05620" y1="119.03310" x2="34.16010" y2="119.39470" stroke="#228B22" stroke-width="0.04000"/>
      <line x1="34.16010" y1="119.39470" x2="34.31650" y2="119.92640" stroke="#228B22" stroke-width="0.04000"/>
      <line x1="34.31650" y1="119.92640" x2="34.50940" y2="120.64820" stroke="#228B22" stroke-width="0.04000"/>
      <line x1="34.50940" y1="120.64820" x2="34.60290" y2="120.90140" stroke="#228B22" stroke-width="0.04000"/>
      <line x1="34.60290" y1="120.90140" x2="34.82000" y2="121.70750" stroke="#228B22" stroke-width="0.04000"/>
      <line x1="34.82000" y1="121.70750" x2="34.98110" y2="122.14000" stroke="#228B22" stroke-width="0.04000"/>
      <line x1="34.98110" y1="122.14000" x2="35.06470" y2="122.54270" stroke="#228B22" stroke-width="0.04000"/>
      <line x1="35.06470" y1="122.54270" x2="35.21060" y2="123.13900" stroke="#228B22" stroke-width="0.04000"/>
      <line x1="35.21060" y1="123.13900" x2="35.21060" y2="123.13910" stroke="#228B22" stroke-width="0.04000"/>
      <line x1="35.21060" y1="123.13910" x2="35.28970" y2="123.46670" stroke="#228B22" stroke-width="0.04000"/>
      <line x1="35.28970" y1="123.46670" x2="35.34090" y2="123.63590" stroke="#228B22" stroke-width="0.04000"/>
      <line x1="35.34090" y1="123.63590" x2="35.47490" y2="124.53360" stroke="#228B22" stroke-width="0.04000"/>
      <line x1="35.47490" y1="124.53360" x2="35.65550" y2="125.22320" stroke="#228B22" stroke-width="0.04000"/>
      <line x1="35.65550" y1="125.22320" x2="35.69200" y2="125.50240" stroke="#228B22" stroke-width="0.04000"/>
      <line x1="35.69200" y1="125.50240" x2="35.69200" y2="125.50250" stroke="#228B22" stroke-width="0.04000"/>
      <line x1="35.69200" y1="125.50250" x2="35.73630" y2="125.91020" stroke="#228B22" stroke-width="0.04000"/>
      <line x1="35.73630" y1="125.91020" x2="35.79630" y2="126.55290" stroke="#228B22" stroke-width="0.04000"/>
      <line x1="35.79630" y1="126.55290" x2="35.81680" y2="127.20640" stroke="#228B22" stroke-width="0.04000"/>
      <line x1="35.81680" y1="127.20640" x2="35.81070" y2="127.35540" stroke="#228B22" stroke-width="0.04000"/>
      <line x1="35.81070" y1="127.35540" x2="35.69170" y2="127.35570" stroke="#228B22" stroke-width="0.04000"/>
      <line x1="35.69170" y1="127.35570" x2="35.13580" y2="127.33890" stroke="#228B22" stroke-width="0.04000"/>
      <line x1="35.13580" y1="127.33890" x2="34.90350" y2="127.10670" stroke="#228B22" stroke-width="0.04000"/>
      <line x1="34.90350" y1="127.10670" x2="34.58990" y2="126.77200" stroke="#228B22" stroke-width="0.04000"/>
      <line x1="34.58990" y1="126.77200" x2="34.15840" y2="125.87650" stroke="#228B22" stroke-width="0.04000"/>
      <line x1="34.15840" y1="125.87650" x2="34.15450" y2="125.86810" stroke="#228B22" stroke-width="0.04000"/>
      <line x1="34.15450" y1="125.86810" x2="34.14700" y2="125.85060" stroke="#228B22" stroke-width="0.04000"/>
      <line x1="34.14700" y1="125.85060" x2="34.14450" y2="125.84580" stroke="#228B22" stroke-width="0.04000"/>
      <line x1="34.14450" y1="125.84580" x2="34.13260" y2="125.81940" stroke="#228B22" stroke-width="0.04000"/>
      <line x1="34.13260" y1="125.81940" x2="34.13070" y2="125.81940" stroke="#228B22" stroke-width="0.04000"/>
      <line x1="34.13070" y1="125.81940" x2="33.68590" y2="124.96530" stroke="#228B22" stroke-width="0.04000"/>
      <line x1="33.68590" y1="124.96530" x2="33.21140" y2="124.11530" stroke="#228B22" stroke-width="0.04000"/>
      <line x1="33.21140" y1="124.11530" x2="33.16430" y2="124.02670" stroke="#228B22" stroke-width="0.04000"/>
      <line x1="33.16430" y1="124.02670" x2="33.12080" y2="123.93370" stroke="#228B22" stroke-width="0.04000"/>
      <line x1="33.12080" y1="123.93370" x2="32.62220" y2="123.14190" stroke="#228B22" stroke-width="0.04000"/>
      <line x1="32.62220" y1="123.14190" x2="32.12210" y2="122.43900" stroke="#228B22" stroke-width="0.04000"/>
      <line x1="32.12210" y1="122.43900" x2="32.03870" y2="122.29930" stroke="#228B22" stroke-width="0.04000"/>
      <line x1="32.03870" y1="122.29930" x2="31.89880" y2="122.12450" stroke="#228B22" stroke-width="0.04000"/>
      <line x1="31.89880" y1="122.12450" x2="31.37000" y2="121.57300" stroke="#228B22" stroke-width="0.04000"/>
      <line x1="31.37000" y1="121.57300" x2="30.81520" y2="120.93600" stroke="#228B22" stroke-width="0.04000"/>
      <line x1="30.81520" y1="120.93600" x2="30.73540" y2="120.84590" stroke="#228B22" stroke-width="0.04000"/>
      <line x1="30.73540" y1="120.84590" x2="30.70760" y2="120.78560" stroke="#228B22" stroke-width="0.04000"/>
      <line x1="30.70760" y1="120.78560" x2="30.70980" y2="119.94170" stroke="#228B22" stroke-width="0.04000"/>
      <line x1="30.70980" y1="119.94170" x2="30.89310" y2="119.15860" stroke="#228B22" stroke-width="0.04000"/>
      <line x1="30.89310" y1="119.15860" x2="30.95670" y2="119.05570" stroke="#228B22" stroke-width="0.04000"/>
      <line x1="30.95670" y1="119.05570" x2="31.42000" y2="118.04730" stroke="#228B22" stroke-width="0.04000"/>
      <line x1="31.42000" y1="118.04730" x2="31.44170" y2="118.02220" stroke="#228B22" stroke-width="0.04000"/>
      <line x1="31.44170" y1="118.02220" x2="31.82450" y2="117.50990" stroke="#228B22" stroke-width="0.04000"/>
      <line x1="31.82450" y1="117.50990" x2="31.82440" y2="117.50980" stroke="#228B22" stroke-width="0.04000"/>
      <line x1="31.82440" y1="117.50980" x2="32.11600" y2="117.12760" stroke="#228B22" stroke-width="0.04000"/>
      <line x1="32.11600" y1="117.12760" x2="32.12980" y2="117.12030" stroke="#228B22" stroke-width="0.04000"/>
      <line x1="32.12980" y1="117.12030" x2="32.76420" y2="116.91880" stroke="#228B22" stroke-width="0.04000"/>
      <line x1="32.76420" y1="116.91880" x2="33.04600" y2="117.06780" stroke="#228B22" stroke-width="0.04000"/>
      <line x1="43.38910" y1="107.45610" x2="44.26530" y2="107.77060" stroke="#228B22" stroke-width="0.04000"/>
      <line x1="44.26530" y1="107.77060" x2="44.26620" y2="107.77140" stroke="#228B22" stroke-width="0.04000"/>
      <line x1="44.26620" y1="107.77140" x2="44.32040" y2="107.83060" stroke="#228B22" stroke-width="0.04000"/>
      <line x1="44.32040" y1="107.83060" x2="44.86600" y2="108.37270" stroke="#228B22" stroke-width="0.04000"/>
      <line x1="44.86600" y1="108.37270" x2="45.24090" y2="108.84140" stroke="#228B22" stroke-width="0.04000"/>
      <line x1="45.24090" y1="108.84140" x2="45.46220" y2="109.10830" stroke="#228B22" stroke-width="0.04000"/>
      <line x1="45.46220" y1="109.10830" x2="45.61410" y2="109.26070" stroke="#228B22" stroke-width="0.04000"/>
      <line x1="45.61410" y1="109.26070" x2="46.10390" y2="109.87510" stroke="#228B22" stroke-width="0.04000"/>
      <line x1="46.10390" y1="109.87510" x2="46.46040" y2="110.18250" stroke="#228B22" stroke-width="0.04000"/>
      <line x1="46.46040" y1="110.18250" x2="46.46040" y2="110.18260" stroke="#228B22" stroke-width="0.04000"/>
      <line x1="46.46040" y1="110.18260" x2="46.79260" y2="110.47430" stroke="#228B22" stroke-width="0.04000"/>
      <line x1="46.79260" y1="110.47430" x2="47.03470" y2="110.69900" stroke="#228B22" stroke-width="0.04000"/>
      <line x1="47.03470" y1="110.69900" x2="47.52200" y2="110.96560" stroke="#228B22" stroke-width="0.04000"/>
      <line x1="47.52200" y1="110.96560" x2="48.18860" y2="111.45450" stroke="#228B22" stroke-width="0.04000"/>
      <line x1="48.18860" y1="111.45450" x2="48.24700" y2="111.48140" stroke="#228B22" stroke-width="0.04000"/>
      <line x1="48.24700" y1="111.48140" x2="48.32190" y2="111.52280" stroke="#228B22" stroke-width="0.04000"/>
      <line x1="48.32190" y1="111.52280" x2="49.08340" y2="111.88640" stroke="#228B22" stroke-width="0.04000"/>
      <line x1="49.08340" y1="111.88640" x2="49.52050" y2="112.16630" stroke="#228B22" stroke-width="0.04000"/>
      <line x1="49.52050" y1="112.16630" x2="49.87890" y2="112.32610" stroke="#228B22" stroke-width="0.04000"/>
      <line x1="49.87890" y1="112.32610" x2="50.54790" y2="112.68580" stroke="#228B22" stroke-width="0.04000"/>
      <line x1="50.54790" y1="112.68580" x2="50.72060" y2="112.76780" stroke="#228B22" stroke-width="0.04000"/>
      <line x1="50.72060" y1="112.76780" x2="50.79000" y2="112.80960" stroke="#228B22" stroke-width="0.04000"/>
      <line x1="50.79000" y1="112.80960" x2="51.48890" y2="113.14810" stroke="#228B22" stroke-width="0.04000"/>
      <line x1="51.48890" y1="113.14810" x2="51.88550" y2="113.40840" stroke="#228B22" stroke-width="0.04000"/>
      <line x1="51.88550" y1="113.40840" x2="51.88550" y2="113.40850" stroke="#228B22" stroke-width="0.04000"/>
      <line x1="51.88550" y1="113.40850" x2="52.28530" y2="113.67470" stroke="#228B22" stroke-width="0.04000"/>
      <line x1="52.28530" y1="113.67470" x2="52.83430" y2="114.24140" stroke="#228B22" stroke-width="0.04000"/>
      <line x1="52.83430" y1="114.24140" x2="52.81770" y2="114.30000" stroke="#228B22" stroke-width="0.04000"/>
      <line x1="52.81770" y1="114.30000" x2="52.80550" y2="115.04060" stroke="#228B22" stroke-width="0.04000"/>
      <line x1="52.80550" y1="115.04060" x2="52.60600" y2="115.13990" stroke="#228B22" stroke-width="0.04000"/>
      <line x1="52.60600" y1="115.13990" x2="52.02930" y2="114.95600" stroke="#228B22" stroke-width="0.04000"/>
      <line x1="52.02930" y1="114.95600" x2="51.80140" y2="114.83670" stroke="#228B22" stroke-width="0.04000"/>
      <line x1="51.80140" y1="114.83670" x2="51.07870" y2="114.51340" stroke="#228B22" stroke-width="0.04000"/>
      <line x1="51.07870" y1="114.51340" x2="51.07860" y2="114.51340" stroke="#228B22" stroke-width="0.04000"/>
      <line x1="51.07860" y1="114.51340" x2="50.64270" y2="114.30700" stroke="#228B22" stroke-width="0.04000"/>
      <line x1="50.64270" y1="114.30700" x2="50.11040" y2="114.09810" stroke="#228B22" stroke-width="0.04000"/>
      <line x1="50.11040" y1="114.09810" x2="49.50820" y2="113.89800" stroke="#228B22" stroke-width="0.04000"/>
      <line x1="49.50820" y1="113.89800" x2="49.18770" y2="113.80410" stroke="#228B22" stroke-width="0.04000"/>
      <line x1="49.18770" y1="113.80410" x2="48.76280" y2="113.70320" stroke="#228B22" stroke-width="0.04000"/>
      <line x1="48.76280" y1="113.70320" x2="48.42030" y2="113.57530" stroke="#228B22" stroke-width="0.04000"/>
      <line x1="48.42030" y1="113.57530" x2="47.57850" y2="113.32270" stroke="#228B22" stroke-width="0.04000"/>
      <line x1="47.57850" y1="113.32270" x2="47.55930" y2="113.31330" stroke="#228B22" stroke-width="0.04000"/>
      <line x1="47.55930" y1="113.31330" x2="47.44240" y2="113.26480" stroke="#228B22" stroke-width="0.04000"/>
      <line x1="47.44240" y1="113.26480" x2="46.62310" y2="112.89700" stroke="#228B22" stroke-width="0.04000"/>
      <line x1="46.62310" y1="112.89700" x2="46.45670" y2="112.85190" stroke="#228B22" stroke-width="0.04000"/>
      <line x1="46.45670" y1="112.85190" x2="45.64380" y2="112.42710" stroke="#228B22" stroke-width="0.04000"/>
      <line x1="45.64380" y1="112.42710" x2="45.62590" y2="112.41860" stroke="#228B22" stroke-width="0.04000"/>
      <line x1="45.62590" y1="112.41860" x2="45.61110" y2="112.41090" stroke="#228B22" stroke-width="0.04000"/>
      <line x1="45.61110" y1="112.41090" x2="44.89010" y2="111.97300" stroke="#228B22" stroke-width="0.04000"/>
      <line x1="44.89010" y1="111.97300" x2="44.22760" y2="111.50910" stroke="#228B22" stroke-width="0.04000"/>
      <line x1="44.22760" y1="111.50910" x2="44.18610" y2="111.47490" stroke="#228B22" stroke-width="0.04000"/>
      <line x1="44.18610" y1="111.47490" x2="44.11460" y2="111.41680" stroke="#228B22" stroke-width="0.04000"/>
      <line x1="44.11460" y1="111.41680" x2="44.11450" y2="111.41680" stroke="#228B22" stroke-width="0.04000"/>
      <line x1="44.11450" y1="111.41680" x2="43.45790" y2="110.86760" stroke="#228B22" stroke-width="0.04000"/>
      <line x1="43.45790" y1="110.86760" x2="43.00260" y2="110.46460" stroke="#228B22" stroke-width="0.04000"/>
      <line x1="43.00260" y1="110.46460" x2="42.77440" y2="110.21540" stroke="#228B22" stroke-width="0.04000"/>
      <line x1="42.77440" y1="110.21540" x2="42.52210" y2="109.94520" stroke="#228B22" stroke-width="0.04000"/>
      <line x1="42.52210" y1="109.94520" x2="42.25460" y2="109.65070" stroke="#228B22" stroke-width="0.04000"/>
      <line x1="42.25460" y1="109.65070" x2="41.92490" y2="108.95390" stroke="#228B22" stroke-width="0.04000"/>
      <line x1="41.92490" y1="108.95390" x2="41.81050" y2="108.78750" stroke="#228B22" stroke-width="0.04000"/>
      <line x1="41.81050" y1="108.78750" x2="41.85090" y2="108.34320" stroke="#228B22" stroke-width="0.04000"/>
      <line x1="41.85090" y1="108.34320" x2="41.88630" y2="108.09310" stroke="#228B22" stroke-width="0.04000"/>
      <line x1="41.88630" y1="108.09310" x2="42.23100" y2="107.75670" stroke="#228B22" stroke-width="0.04000"/>
      <line x1="42.23100" y1="107.75670" x2="42.23090" y2="107.75660" stroke="#228B22" stroke-width="0.04000"/>
      <line x1="42.23090" y1="107.75660" x2="42.40410" y2="107.58930" stroke="#228B22" stroke-width="0.04000"/>
      <line x1="42.40410" y1="107.58930" x2="42.45630" y2="107.58170" stroke="#228B22" stroke-width="0.04000"/>
      <line x1="42.45630" y1="107.58170" x2="43.26830" y2="107.42320" stroke="#228B22" stroke-width="0.04000"/>
      <line x1="43.26830" y1="107.42320" x2="43.38910" y2="107.45610" stroke="#228B22" stroke-width="0.04000"/>
    </g>
    <g class="thermal-contour" data-segment="1" data-name="CoreContour_Volume">
    <path d="M 33.2249 116.834 L 33.6025 117.24 L 33.7272 117.371 L 33.9964 118.081 L 34.2493 118.652 L 34.3349 118.953 L 34.4385 119.314 L 34.596 119.849 L 34.7861 120.56 L 34.88 120.815 L 35.0964 121.619 L 35.2607 122.06 L 35.3477 122.479 L 35.4978 123.093 L 35.5696 123.39 L 35.6248 123.572 L 35.7594 124.475 L 35.9409 125.169 L 35.9799 125.467 L 36.0248 125.88 L 36.0863 126.536 L 36.1071 127.206 L 36.0893 127.645 L 35.6839 127.646 L 35.0125 127.626 L 34.6941 127.307 L 34.348 126.938 L 33.8971 126.002 L 33.8926 125.993 L 33.8853 125.976 L 33.4307 125.103 L 32.9582 124.257 L 32.9055 124.158 L 32.8659 124.073 L 32.3812 123.303 L 31.8794 122.598 L 31.8 122.465 L 31.6805 122.316 L 31.1562 121.769 L 30.5973 121.127 L 30.4903 121.007 L 30.4176 120.849 L 30.4201 119.908 L 30.6215 119.047 L 30.7006 118.919 L 31.1733 117.89 L 31.215 117.841 L 31.5842 117.347 L 31.8873 116.95 L 31.9161 116.906 L 32.0168 116.852 L 32.7926 116.606 L 33.2249 116.834" fill="none" stroke="#000000" stroke-width="0.05000" fill-rule="evenodd" fill-opacity="1.000"/>
    </g>
    <g class="thermal-contour" data-segment="1" data-name="CoreContour_Volume">
    <path d="M 43.4755 107.179 L 44.4108 107.515 L 44.4657 107.56 L 44.5295 107.63 L 45.0825 108.179 L 45.4657 108.658 L 45.6768 108.913 L 45.8311 109.068 L 46.3138 109.673 L 46.6623 109.974 L 46.9898 110.262 L 47.2055 110.462 L 47.678 110.721 L 48.3364 111.203 L 48.378 111.222 L 48.4545 111.265 L 49.2248 111.633 L 49.6585 111.91 L 50.0089 112.067 L 50.6787 112.427 L 50.8573 112.512 L 50.9283 112.554 L 51.6326 112.896 L 52.0288 113.156 L 52.4721 113.451 L 53.1035 114.103 L 53.151 114.189 L 53.1071 114.343 L 53.0927 115.222 L 52.6302 115.452 L 51.9171 115.225 L 51.6747 115.098 L 50.957 114.777 L 50.5276 114.573 L 50.0116 114.371 L 49.4216 114.175 L 49.1134 114.084 L 48.6785 113.981 L 48.3278 113.85 L 47.4726 113.594 L 47.4397 113.578 L 47.3289 113.532 L 46.5253 113.171 L 46.3505 113.124 L 45.5149 112.687 L 45.497 112.678 L 45.4682 112.663 L 44.7326 112.217 L 44.0505 111.739 L 44.0023 111.699 L 43.9318 111.642 L 43.2678 111.087 L 42.7989 110.672 L 42.5615 110.412 L 42.3101 110.143 L 42.0107 109.813 L 41.6726 109.099 L 41.5124 108.866 L 41.5628 108.311 L 41.6131 107.955 L 42.0029 107.574 L 42.2697 107.316 L 42.4075 107.296 L 43.2797 107.126 L 43.4755 107.179" fill="none" stroke="#000000" stroke-width="0.05000" fill-rule="evenodd" fill-opacity="1.000"/>
    </g>
    <g class="thermal-contour" data-segment="1" data-name="CoreContour_Volume">
    <path d="M 33.1015 116.995 L 33.4569 117.378 L 33.5544 117.48 L 33.8114 118.157 L 34.0607 118.721 L 34.1427 119.008 L 34.2465 119.37 L 34.4028 119.901 L 34.5953 120.621 L 34.6888 120.874 L 34.9058 121.68 L 35.0679 122.115 L 35.1525 122.523 L 35.3006 123.128 L 35.3006 123.128 L 35.3766 123.443 L 35.429 123.616 L 35.5632 124.516 L 35.7439 125.205 L 35.7815 125.493 L 35.8258 125.9 L 35.8863 126.548 L 35.9069 127.206 L 35.8971 127.445 L 35.6893 127.446 L 35.0975 127.428 L 34.8399 127.17 L 34.5148 126.823 L 34.0773 125.916 L 34.0745 125.909 L 34.0744 125.909 L 34.0657 125.889 L 33.6067 125.008 L 33.1328 124.159 L 33.0848 124.069 L 33.0417 123.977 L 32.5474 123.192 L 32.0466 122.488 L 31.9646 122.351 L 31.8311 122.184 L 31.3038 121.634 L 30.7476 120.995 L 30.6593 120.896 L 30.6176 120.805 L 30.6199 119.931 L 30.8089 119.124 L 30.8772 119.013 L 31.3435 117.998 L 31.3714 117.966 L 31.7524 117.456 L 32.0507 117.065 L 32.0553 117.058 L 32.0946 117.037 L 32.773 116.822 L 33.1015 116.995" fill="none" stroke="#000000" stroke-width="0.05000" fill-rule="evenodd" fill-opacity="1.000"/>
    <path d="M 32.1298 117.12 L 32.116 117.128 L 31.8244 117.51 L 31.8245 117.51 L 31.4417 118.022 L 31.42 118.047 L 30.9567 119.056 L 30.8931 119.159 L 30.7098 119.942 L 30.7076 120.786 L 30.7354 120.846 L 30.8152 120.936 L 31.37 121.573 L 31.8988 122.124 L 32.0387 122.299 L 32.1221 122.439 L 32.6222 123.142 L 33.1208 123.934 L 33.1643 124.027 L 33.2114 124.115 L 33.6859 124.965 L 34.1307 125.819 L 34.1326 125.819 L 34.1445 125.846 L 34.147 125.851 L 34.1545 125.868 L 34.1584 125.877 L 34.5899 126.772 L 34.9035 127.107 L 35.1358 127.339 L 35.6917 127.356 L 35.8107 127.355 L 35.8168 127.206 L 35.7963 126.553 L 35.7363 125.91 L 35.692 125.503 L 35.692 125.502 L 35.6555 125.223 L 35.4749 124.534 L 35.3409 123.636 L 35.2897 123.467 L 35.2106 123.139 L 35.2106 123.139 L 35.0647 122.543 L 34.9811 122.14 L 34.82 121.707 L 34.6029 120.901 L 34.5094 120.648 L 34.3165 119.926 L 34.1601 119.395 L 34.0562 119.033 L 33.9756 118.751 L 33.7281 118.191 L 33.4768 117.529 L 33.3914 117.439 L 33.046 117.068 L 32.7642 116.919 L 32.1298 117.12" fill="none" stroke="#000000" stroke-width="0.05000" fill-rule="evenodd" fill-opacity="1.000"/>
    <path d="M 43.4164 107.37 L 44.3102 107.691 L 44.328 107.706 L 44.3853 107.768 L 44.9335 108.313 L 45.3107 108.785 L 45.5288 109.048 L 45.6815 109.201 L 46.169 109.812 L 46.5198 110.115 L 46.8538 110.408 L 47.0877 110.625 L 47.5708 110.89 L 48.2345 111.377 L 48.2875 111.401 L 48.3631 111.443 L 49.1272 111.808 L 49.5633 112.087 L 49.9191 112.245 L 50.5885 112.605 L 50.7636 112.689 L 50.8329 112.73 L 51.5334 113.07 L 51.9354 113.334 L 52.3431 113.605 L 52.9351 114.216 L 52.9075 114.313 L 52.8946 115.097 L 52.6136 115.237 L 51.9943 115.039 L 51.7621 114.918 L 51.042 114.596 L 50.607 114.39 L 50.0797 114.183 L 49.4813 113.984 L 49.1646 113.891 L 48.7369 113.79 L 48.3916 113.661 L 47.5457 113.407 L 47.5222 113.395 L 47.4057 113.347 L 46.5927 112.982 L 46.4237 112.936 L 45.6038 112.508 L 45.5851 112.499 L 45.5672 112.49 L 44.841 112.048 L 44.1728 111.581 L 44.1291 111.545 L 44.0579 111.487 L 43.3986 110.935 L 42.9391 110.529 L 42.7083 110.276 L 42.4563 110.007 L 42.1789 109.701 L 41.8466 108.999 L 41.718 108.812 L 41.7616 108.333 L 41.8015 108.05 L 42.1681 107.692 L 42.3625 107.505 L 42.4412 107.493 L 43.2718 107.331 L 43.4164 107.37" fill="none" stroke="#000000" stroke-width="0.05000" fill-rule="evenodd" fill-opacity="1.000"/>
    <path d="M 42.4563 107.582 L 42.4041 107.589 L 42.2309 107.757 L 42.231 107.757 L 41.8863 108.093 L 41.8509 108.343 L 41.8105 108.787 L 41.9249 108.954 L 42.2546 109.651 L 42.5221 109.945 L 42.7744 110.215 L 43.0026 110.465 L 43.4579 110.868 L 44.1145 111.417 L 44.1146 111.417 L 44.1861 111.475 L 44.2276 111.509 L 44.8901 111.973 L 45.6111 112.411 L 45.6259 112.419 L 45.6438 112.427 L 46.4567 112.852 L 46.6231 112.897 L 47.4424 113.265 L 47.5593 113.313 L 47.5785 113.323 L 48.4203 113.575 L 48.7628 113.703 L 49.1877 113.804 L 49.5082 113.898 L 50.1104 114.098 L 50.6427 114.307 L 51.0786 114.513 L 51.0787 114.513 L 51.8014 114.837 L 52.0293 114.956 L 52.606 115.14 L 52.8055 115.041 L 52.8177 114.3 L 52.8343 114.241 L 52.2853 113.675 L 51.8855 113.409 L 51.8855 113.408 L 51.4889 113.148 L 50.79 112.81 L 50.7206 112.768 L 50.5479 112.686 L 49.8789 112.326 L 49.5205 112.166 L 49.0834 111.886 L 48.3219 111.523 L 48.247 111.481 L 48.1886 111.454 L 47.522 110.966 L 47.0347 110.699 L 46.7926 110.474 L 46.4604 110.183 L 46.4604 110.183 L 46.1039 109.875 L 45.6141 109.261 L 45.4622 109.108 L 45.2409 108.841 L 44.866 108.373 L 44.3204 107.831 L 44.2662 107.771 L 44.2653 107.771 L 43.3891 107.456 L 43.2683 107.423 L 42.4563 107.582" fill="none" stroke="#000000" stroke-width="0.05000" fill-rule="evenodd" fill-opacity="1.000"/>
    </g>
    <g class="thermal-contour" data-segment="3" data-name="HollowShell1Contour_Volume">
    <path d="M 33.2249 116.834 L 33.6025 117.24 L 33.7272 117.371 L 33.9964 118.081 L 34.2493 118.652 L 34.3349 118.953 L 34.4385 119.314 L 34.596 119.849 L 34.7861 120.56 L 34.88 120.815 L 35.0964 121.619 L 35.2607 122.06 L 35.3477 122.479 L 35.4978 123.093 L 35.5696 123.391 L 35.6248 123.572 L 35.7594 124.475 L 35.9298 125.126 L 35.9728 125.454 L 36.062 126.278 L 36.0863 126.536 L 36.0923 126.73 L 36.0575 127.587 L 35.2446 127.589 L 34.9864 127.582 L 34.8641 127.459 L 34.3406 126.9 L 34.0145 126.224 L 33.8916 125.955 L 33.6912 125.502 L 33.4622 125.062 L 33.2241 124.635 L 32.9426 124.106 L 32.7638 123.723 L 32.9538 124.025 L 32.9954 124.114 L 33.0455 124.208 L 33.5187 125.055 L 33.9755 125.933 L 33.9835 125.951 L 33.9872 125.959 L 34.4314 126.881 L 34.767 127.239 L 35.055 127.527 L 35.6866 127.546 L 35.9932 127.545 L 36.007 127.206 L 35.9863 126.542 L 35.9252 125.89 L 35.9252 125.89 L 35.8807 125.48 L 35.8424 125.187 L 35.6613 124.495 L 35.5269 123.594 L 35.4731 123.417 L 35.4006 123.117 L 35.4006 123.116 L 35.2501 122.501 L 35.1643 122.087 L 35.0011 121.649 L 34.7844 120.844 L 34.6907 120.591 L 34.4994 119.875 L 34.3425 119.342 L 34.2388 118.981 L 34.155 118.687 L 33.9039 118.119 L 33.6408 117.425 L 33.5297 117.309 L 33.1632 116.915 L 32.7828 116.714 L 32.0556 116.945 L 31.9857 116.982 L 31.969 117.007 L 31.6642 117.407 L 31.6643 117.407 L 31.2932 117.903 L 31.2584 117.944 L 30.7889 118.966 L 30.7152 119.085 L 30.52 119.92 L 30.5181 120.626 L 30.4187 120.41 L 30.4201 119.908 L 30.6215 119.047 L 30.7006 118.919 L 31.1733 117.89 L 31.215 117.841 L 31.5842 117.347 L 31.8873 116.95 L 31.9161 116.906 L 32.0168 116.852 L 32.7926 116.606 L 33.2249 116.834" fill="none" stroke="#0000CC" stroke-width="0.05000" fill-rule="evenodd" fill-opacity="1.000"/>
    <path d="M 52.9838 115.229 L 52.7788 115.331 L 52.699 115.306 L 52.9848 115.163 L 52.9838 115.229" fill="none" stroke="#0000CC" stroke-width="0.05000" fill-rule="evenodd" fill-opacity="1.000"/>
    <path d="M 43.4755 107.179 L 44.3486 107.493 L 44.4353 107.564 L 44.7991 107.96 L 45.0508 108.211 L 45.2253 108.429 L 45.6296 108.916 L 45.9252 109.213 L 46.265 109.639 L 46.9292 110.212 L 46.9797 110.257 L 47.013 110.287 L 47.0241 110.294 L 47.2055 110.462 L 47.678 110.721 L 48.3364 111.203 L 48.378 111.223 L 48.4545 111.265 L 49.2248 111.633 L 49.6585 111.91 L 50.0089 112.067 L 50.6787 112.427 L 50.8573 112.512 L 50.9283 112.554 L 51.6326 112.896 L 52.0288 113.156 L 52.4721 113.451 L 53.1035 114.103 L 53.151 114.189 L 53.1071 114.343 L 53.1056 114.434 L 52.9994 114.807 L 53.0073 114.328 L 53.0435 114.201 L 53.0223 114.162 L 52.4076 113.528 L 51.9739 113.239 L 51.9739 113.239 L 51.583 112.983 L 50.8806 112.642 L 50.8105 112.6 L 50.6336 112.516 L 49.9642 112.156 L 49.6109 111.999 L 49.176 111.72 L 48.4088 111.354 L 48.3325 111.312 L 48.2855 111.29 L 47.6244 110.805 L 47.1466 110.544 L 46.9218 110.335 L 46.5963 110.049 L 46.5963 110.049 L 46.2414 109.743 L 45.7563 109.134 L 45.6028 108.98 L 45.3882 108.721 L 45.008 108.246 L 44.4574 107.699 L 44.3968 107.633 L 44.3605 107.603 L 43.4461 107.275 L 43.2758 107.228 L 42.4244 107.394 L 42.3161 107.41 L 42.0727 107.646 L 42.0728 107.646 L 41.7073 108.002 L 41.6622 108.322 L 41.6152 108.839 L 41.7596 109.049 L 42.0948 109.757 L 42.3832 110.075 L 42.6349 110.344 L 42.869 110.6 L 43.3332 111.011 L 43.9948 111.564 L 44.0657 111.622 L 44.1122 111.66 L 44.7864 112.132 L 45.5174 112.576 L 45.5419 112.589 L 45.5593 112.597 L 46.3871 113.03 L 46.559 113.076 L 47.3673 113.439 L 47.481 113.487 L 47.5092 113.5 L 48.3597 113.756 L 48.6787 113.875 L 48.3781 113.803 L 48.3324 113.794 L 47.5199 113.527 L 47.3163 113.485 L 46.6079 113.167 L 46.2462 113.069 L 45.5149 112.687 L 45.497 112.678 L 45.4682 112.663 L 44.7326 112.217 L 44.0505 111.739 L 44.0023 111.699 L 43.9318 111.642 L 43.2678 111.087 L 42.7989 110.672 L 42.5615 110.412 L 42.3101 110.143 L 42.0107 109.813 L 41.6726 109.099 L 41.5124 108.866 L 41.5628 108.311 L 41.6131 107.955 L 42.0029 107.574 L 42.2697 107.316 L 42.4075 107.296 L 43.2797 107.126 L 43.4755 107.179" fill="none" stroke="#0000CC" stroke-width="0.05000" fill-rule="evenodd" fill-opacity="1.000"/>
    </g>
    <g class="thermal-contour" data-segment="4" data-name="HollowShell1Contour_Overhang">
    <path d="M 30.5181 120.626 L 30.5176 120.827 L 30.5748 120.951 L 30.6724 121.061 L 31.23 121.702 L 31.7558 122.25 L 31.8823 122.408 L 31.9633 122.544 L 32.4643 123.248 L 32.7638 123.723 L 32.9426 124.106 L 33.2241 124.635 L 33.4622 125.062 L 33.6912 125.502 L 33.8916 125.955 L 34.0145 126.224 L 34.3406 126.9 L 34.8641 127.459 L 34.9864 127.582 L 35.2446 127.589 L 36.0575 127.587 L 36.0923 126.73 L 36.1071 127.206 L 36.0893 127.645 L 35.6839 127.646 L 35.0125 127.626 L 34.6941 127.307 L 34.348 126.938 L 33.8971 126.002 L 33.8926 125.993 L 33.8853 125.976 L 33.4307 125.103 L 32.9582 124.257 L 32.9055 124.158 L 32.8659 124.073 L 32.3812 123.303 L 31.8794 122.598 L 31.8 122.465 L 31.6805 122.316 L 31.1562 121.769 L 30.5973 121.127 L 30.4903 121.007 L 30.4176 120.849 L 30.4187 120.41 L 30.5181 120.626" fill="none" stroke="#000080" stroke-width="0.05000" fill-rule="evenodd" fill-opacity="1.000"/>
    <path d="M 35.9409 125.169 L 35.9799 125.467 L 36.0248 125.881 L 36.062 126.278 L 35.9728 125.454 L 35.9298 125.126 L 35.9409 125.169" fill="none" stroke="#000080" stroke-width="0.05000" fill-rule="evenodd" fill-opacity="1.000"/>
    <path d="M 46.6079 113.167 L 47.3163 113.485 L 47.5199 113.527 L 48.3324 113.794 L 48.3781 113.803 L 48.6787 113.875 L 48.7077 113.885 L 49.139 113.988 L 49.4515 114.079 L 50.0456 114.277 L 50.5673 114.481 L 50.9995 114.686 L 51.7184 115.008 L 51.9557 115.132 L 52.6219 115.344 L 52.699 115.306 L 52.7788 115.331 L 52.9838 115.229 L 52.9848 115.163 L 52.9936 115.159 L 52.9994 114.807 L 53.1056 114.434 L 53.0927 115.222 L 52.6302 115.452 L 51.9171 115.225 L 51.6747 115.098 L 50.957 114.777 L 50.5276 114.573 L 50.0116 114.371 L 49.4216 114.175 L 49.1134 114.085 L 48.6785 113.981 L 48.3278 113.85 L 47.4726 113.594 L 47.4397 113.578 L 47.3289 113.532 L 46.5253 113.171 L 46.3505 113.124 L 46.2462 113.069 L 46.6079 113.167" fill="none" stroke="#000080" stroke-width="0.05000" fill-rule="evenodd" fill-opacity="1.000"/>
    <path d="M 44.4108 107.515 L 44.4657 107.56 L 44.5295 107.63 L 45.0825 108.179 L 45.4657 108.658 L 45.6768 108.913 L 45.8311 109.068 L 46.3138 109.673 L 46.6623 109.974 L 46.9898 110.262 L 47.0241 110.294 L 47.013 110.287 L 46.9797 110.257 L 46.9292 110.212 L 46.265 109.639 L 45.9252 109.213 L 45.6296 108.916 L 45.2253 108.429 L 45.0508 108.211 L 44.7991 107.96 L 44.4353 107.564 L 44.3486 107.493 L 44.4108 107.515" fill="none" stroke="#000080" stroke-width="0.05000" fill-rule="evenodd" fill-opacity="1.000"/>
    </g>
    <g class="thermal-contour" data-segment="5" data-name="HollowShell2Contour_Volume">
    <path d="M 33.1632 116.915 L 33.5297 117.309 L 33.6408 117.425 L 33.9039 118.119 L 34.155 118.687 L 34.2388 118.981 L 34.3425 119.342 L 34.4994 119.875 L 34.6907 120.591 L 34.7844 120.844 L 35.0011 121.649 L 35.1643 122.087 L 35.2501 122.501 L 35.4006 123.116 L 35.4006 123.117 L 35.4731 123.417 L 35.5269 123.594 L 35.6613 124.495 L 35.8424 125.187 L 35.8807 125.48 L 35.9252 125.89 L 35.9252 125.89 L 35.9863 126.542 L 36.007 127.206 L 35.9932 127.545 L 35.6866 127.546 L 35.055 127.527 L 34.767 127.239 L 34.4314 126.881 L 33.9872 125.959 L 33.9835 125.951 L 33.9755 125.933 L 33.5187 125.055 L 33.0455 124.208 L 32.9954 124.114 L 32.9538 124.025 L 32.7638 123.723 L 32.7314 123.654 L 32.4676 123.235 L 32.1946 122.851 L 31.907 122.37 L 31.474 121.829 L 31.3024 121.65 L 31.1195 121.44 L 30.6476 120.908 L 30.5181 120.626 L 30.52 119.92 L 30.7152 119.085 L 30.7889 118.966 L 31.2584 117.944 L 31.2932 117.903 L 31.6643 117.407 L 31.6642 117.407 L 31.969 117.007 L 31.9857 116.982 L 32.0556 116.945 L 32.7828 116.714 L 33.1632 116.915" fill="none" stroke="#B8860B" stroke-width="0.05000" fill-rule="evenodd" fill-opacity="1.000"/>
    <path d="M 32.0946 117.037 L 32.0553 117.058 L 32.0507 117.065 L 31.7524 117.456 L 31.3714 117.966 L 31.3435 117.998 L 30.8772 119.013 L 30.8089 119.124 L 30.6199 119.931 L 30.6176 120.805 L 30.6593 120.896 L 30.7476 120.995 L 31.3038 121.634 L 31.8311 122.184 L 31.9646 122.351 L 32.0466 122.488 L 32.5474 123.192 L 33.0417 123.977 L 33.0848 124.069 L 33.1328 124.159 L 33.6067 125.008 L 34.0657 125.889 L 34.0744 125.909 L 34.0745 125.909 L 34.0773 125.916 L 34.5148 126.823 L 34.8399 127.17 L 35.0975 127.428 L 35.6893 127.446 L 35.8971 127.445 L 35.9069 127.206 L 35.8863 126.548 L 35.8258 125.9 L 35.7815 125.493 L 35.7439 125.205 L 35.5632 124.516 L 35.429 123.616 L 35.3766 123.443 L 35.3006 123.128 L 35.3006 123.128 L 35.1525 122.523 L 35.0679 122.115 L 34.9058 121.68 L 34.6888 120.874 L 34.5953 120.621 L 34.4028 119.901 L 34.2465 119.37 L 34.1427 119.008 L 34.0607 118.721 L 33.8114 118.157 L 33.5544 117.48 L 33.4569 117.378 L 33.1015 116.995 L 32.773 116.822 L 32.0946 117.037" fill="none" stroke="#B8860B" stroke-width="0.05000" fill-rule="evenodd" fill-opacity="1.000"/>
    <path d="M 43.4461 107.275 L 44.3605 107.603 L 44.3968 107.633 L 44.4574 107.699 L 45.008 108.246 L 45.3882 108.721 L 45.6028 108.98 L 45.7563 109.134 L 46.2414 109.743 L 46.5963 110.049 L 46.5963 110.049 L 46.9218 110.335 L 47.1466 110.544 L 47.6244 110.805 L 48.2855 111.29 L 48.3325 111.312 L 48.4088 111.354 L 49.176 111.72 L 49.6109 111.999 L 49.9642 112.156 L 50.6336 112.516 L 50.8105 112.6 L 50.8806 112.642 L 51.583 112.983 L 51.9739 113.239 L 51.9739 113.239 L 52.4076 113.528 L 53.0223 114.162 L 53.0435 114.201 L 53.0073 114.328 L 52.9994 114.807 L 52.9901 114.84 L 52.9848 115.163 L 52.699 115.306 L 51.9692 115.073 L 51.8457 115.032 L 51.8167 115.023 L 51.6112 114.936 L 50.8866 114.612 L 50.7551 114.549 L 49.9892 114.249 L 49.6487 114.136 L 49.0884 113.972 L 48.6787 113.875 L 48.3597 113.756 L 47.5092 113.5 L 47.481 113.487 L 47.3673 113.439 L 46.559 113.076 L 46.3871 113.03 L 45.5593 112.597 L 45.5419 112.589 L 45.5174 112.576 L 44.7864 112.132 L 44.1122 111.66 L 44.0657 111.622 L 43.9948 111.564 L 43.3332 111.011 L 42.869 110.6 L 42.6349 110.344 L 42.3832 110.075 L 42.0948 109.757 L 41.7596 109.049 L 41.6152 108.839 L 41.6622 108.322 L 41.7073 108.002 L 42.0728 107.646 L 42.0727 107.646 L 42.3161 107.41 L 42.4244 107.394 L 43.2758 107.228 L 43.4461 107.275" fill="none" stroke="#B8860B" stroke-width="0.05000" fill-rule="evenodd" fill-opacity="1.000"/>
    <path d="M 42.4412 107.493 L 42.3625 107.505 L 42.1681 107.692 L 41.8015 108.05 L 41.7616 108.333 L 41.718 108.812 L 41.8466 108.999 L 42.1789 109.701 L 42.4563 110.007 L 42.7083 110.276 L 42.9391 110.529 L 43.3986 110.935 L 44.0579 111.487 L 44.1291 111.545 L 44.1728 111.581 L 44.841 112.048 L 45.5672 112.49 L 45.5851 112.499 L 45.6038 112.508 L 46.4237 112.936 L 46.5927 112.982 L 47.4057 113.347 L 47.5222 113.395 L 47.5457 113.407 L 48.3916 113.661 L 48.7369 113.79 L 49.1646 113.891 L 49.4813 113.984 L 50.0797 114.183 L 50.607 114.39 L 51.042 114.596 L 51.7621 114.918 L 51.9943 115.039 L 52.6136 115.237 L 52.8946 115.097 L 52.9075 114.313 L 52.9351 114.216 L 52.3431 113.605 L 51.9354 113.334 L 51.5334 113.07 L 50.8329 112.73 L 50.7636 112.689 L 50.5885 112.605 L 49.9191 112.245 L 49.5633 112.087 L 49.1272 111.808 L 48.3631 111.443 L 48.2875 111.401 L 48.2345 111.377 L 47.5708 110.89 L 47.0877 110.625 L 46.8538 110.408 L 46.5198 110.115 L 46.169 109.812 L 45.6815 109.201 L 45.5288 109.048 L 45.3107 108.785 L 44.9335 108.313 L 44.3853 107.768 L 44.328 107.706 L 44.3102 107.691 L 43.4164 107.37 L 43.2718 107.331 L 42.4412 107.493" fill="none" stroke="#B8860B" stroke-width="0.05000" fill-rule="evenodd" fill-opacity="1.000"/>
    </g>
    <g class="thermal-contour" data-segment="6" data-name="HollowShell2Contour_Overhang">
    <path d="M 30.6476 120.908 L 31.1195 121.44 L 31.3024 121.65 L 31.474 121.829 L 31.907 122.37 L 32.1946 122.851 L 32.4676 123.235 L 32.7314 123.654 L 32.7638 123.723 L 32.4643 123.248 L 31.9633 122.544 L 31.8823 122.408 L 31.7558 122.25 L 31.23 121.702 L 30.6724 121.061 L 30.5748 120.951 L 30.5176 120.827 L 30.5181 120.626 L 30.6476 120.908" fill="none" stroke="#006400" stroke-width="0.05000" fill-rule="evenodd" fill-opacity="1.000"/>
    <path d="M 49.0884 113.972 L 49.6487 114.136 L 49.9892 114.249 L 50.7551 114.549 L 50.8866 114.612 L 51.6112 114.936 L 51.8167 115.023 L 51.8457 115.032 L 51.9692 115.073 L 52.699 115.306 L 52.6219 115.344 L 51.9557 115.132 L 51.7184 115.008 L 50.9995 114.686 L 50.5673 114.481 L 50.0456 114.277 L 49.4515 114.079 L 49.139 113.988 L 48.7077 113.885 L 48.6787 113.875 L 49.0884 113.972" fill="none" stroke="#006400" stroke-width="0.05000" fill-rule="evenodd" fill-opacity="1.000"/>
    <path d="M 52.9936 115.159 L 52.9848 115.163 L 52.9901 114.84 L 52.9994 114.807 L 52.9936 115.159" fill="none" stroke="#006400" stroke-width="0.05000" fill-rule="evenodd" fill-opacity="1.000"/>
    </g>
    <g class="thermal-contour" data-segment="9" data-name="CoreContourHatch">
    <path d="M 33.0627 117.046 L 33.4112 117.421 L 33.4111 117.421 L 33.5001 117.514 L 33.7528 118.18 L 34.001 118.742 L 34.0822 119.026 L 34.1861 119.387 L 34.186 119.387 L 34.3425 119.919 L 34.5352 120.64 L 34.6287 120.893 L 34.8458 121.7 L 35.0071 122.132 L 35.0909 122.536 L 35.2376 123.136 L 35.2376 123.136 L 35.3155 123.459 L 35.3673 123.63 L 35.5014 124.528 L 35.6821 125.218 L 35.719 125.501 L 35.719 125.501 L 35.7632 125.908 L 35.8233 126.551 L 35.8438 127.206 L 35.8366 127.382 L 35.6913 127.383 L 35.1243 127.366 L 34.8841 127.126 L 34.5674 126.787 L 34.134 125.888 L 34.1298 125.879 L 34.1226 125.862 L 34.1202 125.858 L 34.1152 125.846 L 34.1143 125.846 L 33.6623 124.978 L 33.6623 124.979 L 33.1877 124.128 L 33.1401 124.039 L 33.0968 123.946 L 32.6002 123.158 L 32.0995 122.454 L 32.0166 122.315 L 31.8783 122.142 L 31.3501 121.591 L 30.7948 120.954 L 30.7948 120.954 L 30.7125 120.861 L 30.6806 120.791 L 30.6828 119.938 L 30.8678 119.148 L 30.933 119.043 L 31.3971 118.033 L 31.4207 118.005 L 31.7888 117.512 L 31.7886 117.512 L 32.0981 117.106 L 32.1193 117.095 L 32.7668 116.89 L 33.0627 117.046" fill="none" stroke="#800080" stroke-width="0.05000" fill-rule="evenodd" fill-opacity="1.000"/>
    <path d="M 32.1298 117.12 L 32.116 117.128 L 31.8244 117.51 L 31.8245 117.51 L 31.4417 118.022 L 31.42 118.047 L 30.9567 119.056 L 30.8931 119.159 L 30.7098 119.942 L 30.7076 120.786 L 30.7354 120.846 L 30.8152 120.936 L 31.37 121.573 L 31.8988 122.124 L 32.0387 122.299 L 32.1221 122.439 L 32.6222 123.142 L 33.1208 123.934 L 33.1643 124.027 L 33.2114 124.115 L 33.6859 124.965 L 34.1307 125.819 L 34.1326 125.819 L 34.1445 125.846 L 34.147 125.851 L 34.1545 125.868 L 34.1584 125.877 L 34.5899 126.772 L 34.9035 127.107 L 35.1358 127.339 L 35.6917 127.356 L 35.8107 127.355 L 35.8168 127.206 L 35.7963 126.553 L 35.7363 125.91 L 35.692 125.503 L 35.692 125.502 L 35.6555 125.223 L 35.4749 124.534 L 35.3409 123.636 L 35.2897 123.467 L 35.2106 123.139 L 35.2106 123.139 L 35.0647 122.543 L 34.9811 122.14 L 34.82 121.707 L 34.6029 120.901 L 34.5094 120.648 L 34.3165 119.926 L 34.1601 119.395 L 34.0562 119.033 L 33.9756 118.751 L 33.7281 118.191 L 33.4768 117.529 L 33.3914 117.439 L 33.046 117.068 L 32.7642 116.919 L 32.1298 117.12" fill="none" stroke="#800080" stroke-width="0.05000" fill-rule="evenodd" fill-opacity="1.000"/>
    <path d="M 43.3972 107.43 L 44.2793 107.747 L 44.2852 107.752 L 44.3394 107.811 L 44.8861 108.355 L 45.262 108.825 L 45.2619 108.825 L 45.482 109.09 L 45.6343 109.243 L 46.1235 109.856 L 46.4874 110.17 L 46.4874 110.17 L 46.8107 110.454 L 47.0506 110.677 L 47.5365 110.943 L 48.2026 111.431 L 48.2592 111.457 L 48.3338 111.498 L 49.0965 111.863 L 49.533 112.142 L 49.8908 112.302 L 50.5602 112.662 L 50.7334 112.744 L 50.8023 112.785 L 51.5022 113.125 L 51.9125 113.394 L 51.9125 113.394 L 52.3027 113.654 L 52.8645 114.234 L 52.8446 114.304 L 52.8322 115.058 L 52.6082 115.169 L 52.0189 114.981 L 51.7892 114.861 L 51.0731 114.54 L 51.0725 114.54 L 50.6315 114.331 L 50.101 114.123 L 49.5006 113.924 L 49.1815 113.83 L 48.7549 113.729 L 48.4125 113.601 L 47.5686 113.348 L 47.5478 113.338 L 47.4317 113.29 L 46.6143 112.923 L 46.4468 112.877 L 45.6322 112.451 L 45.6322 112.451 L 45.6139 112.443 L 45.5978 112.434 L 44.8753 111.996 L 44.2112 111.531 L 44.1691 111.496 L 44.105 111.444 L 44.1047 111.444 L 43.4403 110.888 L 42.9836 110.484 L 42.7545 110.234 L 42.7545 110.233 L 42.5022 109.964 L 42.2319 109.666 L 41.9014 108.967 L 41.7827 108.795 L 41.8241 108.34 L 41.8609 108.08 L 42.1925 107.756 L 42.1924 107.756 L 42.3916 107.564 L 42.4513 107.555 L 43.2693 107.396 L 43.3972 107.43" fill="none" stroke="#800080" stroke-width="0.05000" fill-rule="evenodd" fill-opacity="1.000"/>
    <path d="M 42.4563 107.582 L 42.4041 107.589 L 42.2309 107.757 L 42.231 107.757 L 41.8863 108.093 L 41.8509 108.343 L 41.8105 108.787 L 41.9249 108.954 L 42.2546 109.651 L 42.5221 109.945 L 42.7744 110.215 L 43.0026 110.465 L 43.4579 110.868 L 44.1145 111.417 L 44.1146 111.417 L 44.1861 111.475 L 44.2276 111.509 L 44.8901 111.973 L 45.6111 112.411 L 45.6259 112.419 L 45.6438 112.427 L 46.4567 112.852 L 46.6231 112.897 L 47.4424 113.265 L 47.5593 113.313 L 47.5785 113.323 L 48.4203 113.575 L 48.7628 113.703 L 49.1877 113.804 L 49.5082 113.898 L 50.1104 114.098 L 50.6427 114.307 L 51.0786 114.513 L 51.0787 114.513 L 51.8014 114.837 L 52.0293 114.956 L 52.606 115.14 L 52.8055 115.041 L 52.8177 114.3 L 52.8343 114.241 L 52.2853 113.675 L 51.8855 113.409 L 51.8855 113.408 L 51.4889 113.148 L 50.79 112.81 L 50.7206 112.768 L 50.5479 112.686 L 49.8789 112.326 L 49.5205 112.166 L 49.0834 111.886 L 48.3219 111.523 L 48.247 111.481 L 48.1886 111.454 L 47.522 110.966 L 47.0347 110.699 L 46.7926 110.474 L 46.4604 110.183 L 46.4604 110.183 L 46.1039 109.875 L 45.6141 109.261 L 45.4622 109.108 L 45.2409 108.841 L 44.866 108.373 L 44.3204 107.831 L 44.2662 107.771 L 44.2653 107.771 L 43.3891 107.456 L 43.2683 107.423 L 42.4563 107.582" fill="none" stroke="#800080" stroke-width="0.05000" fill-rule="evenodd" fill-opacity="1.000"/>
    </g>
    <!-- ===== Thermal Segment Colour Legend ===== -->
    <g id="thermal-legend">
    <rect x="161.0000" y="5.0000" width="40.0000" height="72.0000"
          rx="1" ry="1"
          fill="#fafafa" stroke="#cccccc" stroke-width="0.15"/>
    <text x="181.0000" y="7.6000" font-family="sans-serif" font-size="2.2000" font-weight="bold" fill="#222222" text-anchor="middle">Thermal Segments</text>
    <line x1="161.5000" y1="8.7000" x2="200.5000" y2="8.7000" stroke="#bbbbbb" stroke-width="0.1"/>
    <rect x="161.8000" y="9.0000" width="3.5000" height="2.0000" fill="#000000" stroke="#333333" stroke-width="0.08" rx="0.3" ry="0.3"/>
    <text x="168.6000" y="10.9000" font-family="monospace" font-size="1.6000" fill="#444444" text-anchor="end"> 1</text>
    <text x="169.6000" y="10.9000" font-family="sans-serif" font-size="1.6000" fill="#111111">CoreContour_Volume</text>
    <rect x="161.8000" y="12.0000" width="3.5000" height="2.0000" fill="#8B0000" stroke="#333333" stroke-width="0.08" rx="0.3" ry="0.3"/>
    <text x="168.6000" y="13.9000" font-family="monospace" font-size="1.6000" fill="#444444" text-anchor="end"> 2</text>
    <text x="169.6000" y="13.9000" font-family="sans-serif" font-size="1.6000" fill="#111111">CoreContour_Overhang</text>
    <rect x="161.8000" y="15.0000" width="3.5000" height="2.0000" fill="#0000CC" stroke="#333333" stroke-width="0.08" rx="0.3" ry="0.3"/>
    <text x="168.6000" y="16.9000" font-family="monospace" font-size="1.6000" fill="#444444" text-anchor="end"> 3</text>
    <text x="169.6000" y="16.9000" font-family="sans-serif" font-size="1.6000" fill="#111111">Shell1Contour_Volume</text>
    <rect x="161.8000" y="18.0000" width="3.5000" height="2.0000" fill="#000080" stroke="#333333" stroke-width="0.08" rx="0.3" ry="0.3"/>
    <text x="168.6000" y="19.9000" font-family="monospace" font-size="1.6000" fill="#444444" text-anchor="end"> 4</text>
    <text x="169.6000" y="19.9000" font-family="sans-serif" font-size="1.6000" fill="#111111">Shell1Contour_Overhang</text>
    <rect x="161.8000" y="21.0000" width="3.5000" height="2.0000" fill="#B8860B" stroke="#333333" stroke-width="0.08" rx="0.3" ry="0.3"/>
    <text x="168.6000" y="22.9000" font-family="monospace" font-size="1.6000" fill="#444444" text-anchor="end"> 5</text>
    <text x="169.6000" y="22.9000" font-family="sans-serif" font-size="1.6000" fill="#111111">Shell2Contour_Volume</text>
    <rect x="161.8000" y="24.0000" width="3.5000" height="2.0000" fill="#006400" stroke="#333333" stroke-width="0.08" rx="0.3" ry="0.3"/>
    <text x="168.6000" y="25.9000" font-family="monospace" font-size="1.6000" fill="#444444" text-anchor="end"> 6</text>
    <text x="169.6000" y="25.9000" font-family="sans-serif" font-size="1.6000" fill="#111111">Shell2Contour_Overhang</text>
    <rect x="161.8000" y="27.0000" width="3.5000" height="2.0000" fill="#FF8C00" stroke="#333333" stroke-width="0.08" rx="0.3" ry="0.3"/>
    <text x="168.6000" y="28.9000" font-family="monospace" font-size="1.6000" fill="#444444" text-anchor="end"> 7</text>
    <text x="169.6000" y="28.9000" font-family="sans-serif" font-size="1.6000" fill="#111111">CoreOverhangHatch</text>
    <rect x="161.8000" y="30.0000" width="3.5000" height="2.0000" fill="#228B22" stroke="#333333" stroke-width="0.08" rx="0.3" ry="0.3"/>
    <text x="168.6000" y="31.9000" font-family="monospace" font-size="1.6000" fill="#444444" text-anchor="end"> 8</text>
    <text x="169.6000" y="31.9000" font-family="sans-serif" font-size="1.6000" fill="#111111">CoreNormalHatch</text>
    <rect x="161.8000" y="33.0000" width="3.5000" height="2.0000" fill="#800080" stroke="#333333" stroke-width="0.08" rx="0.3" ry="0.3"/>
    <text x="168.6000" y="34.9000" font-family="monospace" font-size="1.6000" fill="#444444" text-anchor="end"> 9</text>
    <text x="169.6000" y="34.9000" font-family="sans-serif" font-size="1.6000" fill="#111111">CoreContourHatch</text>
    <rect x="161.8000" y="36.0000" width="3.5000" height="2.0000" fill="#FF69B4" stroke="#333333" stroke-width="0.08" rx="0.3" ry="0.3"/>
    <text x="168.6000" y="37.9000" font-family="monospace" font-size="1.6000" fill="#444444" text-anchor="end">10</text>
    <text x="169.6000" y="37.9000" font-family="sans-serif" font-size="1.6000" fill="#111111">Shell1OverhangHatch</text>
    <rect x="161.8000" y="39.0000" width="3.5000" height="2.0000" fill="#00CED1" stroke="#333333" stroke-width="0.08" rx="0.3" ry="0.3"/>
    <text x="168.6000" y="40.9000" font-family="monospace" font-size="1.6000" fill="#444444" text-anchor="end">11</text>
    <text x="169.6000" y="40.9000" font-family="sans-serif" font-size="1.6000" fill="#111111">Shell1NormalHatch</text>
    <rect x="161.8000" y="42.0000" width="3.5000" height="2.0000" fill="#FF00FF" stroke="#333333" stroke-width="0.08" rx="0.3" ry="0.3"/>
    <text x="168.6000" y="43.9000" font-family="monospace" font-size="1.6000" fill="#444444" text-anchor="end">12</text>
    <text x="169.6000" y="43.9000" font-family="sans-serif" font-size="1.6000" fill="#111111">Shell1ContourHatch</text>
    <rect x="161.8000" y="45.0000" width="3.5000" height="2.0000" fill="#A52A2A" stroke="#333333" stroke-width="0.08" rx="0.3" ry="0.3"/>
    <text x="168.6000" y="46.9000" font-family="monospace" font-size="1.6000" fill="#444444" text-anchor="end">13</text>
    <text x="169.6000" y="46.9000" font-family="sans-serif" font-size="1.6000" fill="#111111">Shell2OverhangHatch</text>
    <rect x="161.8000" y="48.0000" width="3.5000" height="2.0000" fill="#808080" stroke="#333333" stroke-width="0.08" rx="0.3" ry="0.3"/>
    <text x="168.6000" y="49.9000" font-family="monospace" font-size="1.6000" fill="#444444" text-anchor="end">14</text>
    <text x="169.6000" y="49.9000" font-family="sans-serif" font-size="1.6000" fill="#111111">Shell2NormalHatch</text>
    <rect x="161.8000" y="51.0000" width="3.5000" height="2.0000" fill="#32CD32" stroke="#333333" stroke-width="0.08" rx="0.3" ry="0.3"/>
    <text x="168.6000" y="52.9000" font-family="monospace" font-size="1.6000" fill="#444444" text-anchor="end">15</text>
    <text x="169.6000" y="52.9000" font-family="sans-serif" font-size="1.6000" fill="#111111">Shell2ContourHatch</text>
    <rect x="161.8000" y="54.0000" width="3.5000" height="2.0000" fill="#1A237E" stroke="#333333" stroke-width="0.08" rx="0.3" ry="0.3"/>
    <text x="168.6000" y="55.9000" font-family="monospace" font-size="1.6000" fill="#444444" text-anchor="end">16</text>
    <text x="169.6000" y="55.9000" font-family="sans-serif" font-size="1.6000" fill="#111111">SupportContourVolume</text>
    <rect x="161.8000" y="57.0000" width="3.5000" height="2.0000" fill="#827717" stroke="#333333" stroke-width="0.08" rx="0.3" ry="0.3"/>
    <text x="168.6000" y="58.9000" font-family="monospace" font-size="1.6000" fill="#444444" text-anchor="end">17</text>
    <text x="169.6000" y="58.9000" font-family="sans-serif" font-size="1.6000" fill="#111111">SupportHatch</text>
    <rect x="161.8000" y="60.0000" width="3.5000" height="2.0000" fill="#006064" stroke="#333333" stroke-width="0.08" rx="0.3" ry="0.3"/>
    <text x="168.6000" y="61.9000" font-family="monospace" font-size="1.6000" fill="#444444" text-anchor="end">18</text>
    <text x="169.6000" y="61.9000" font-family="sans-serif" font-size="1.6000" fill="#111111">PointSequence</text>
    <rect x="161.8000" y="63.0000" width="3.5000" height="2.0000" fill="#B71C1C" stroke="#333333" stroke-width="0.08" rx="0.3" ry="0.3"/>
    <text x="168.6000" y="64.9000" font-family="monospace" font-size="1.6000" fill="#444444" text-anchor="end">19</text>
    <text x="169.6000" y="64.9000" font-family="sans-serif" font-size="1.6000" fill="#111111">ExternalSupports</text>
    <rect x="161.8000" y="66.0000" width="3.5000" height="2.0000" fill="#E64A19" stroke="#333333" stroke-width="0.08" rx="0.3" ry="0.3"/>
    <text x="168.6000" y="67.9000" font-family="monospace" font-size="1.6000" fill="#444444" text-anchor="end">20</text>
    <text x="169.6000" y="67.9000" font-family="sans-serif" font-size="1.6000" fill="#111111">CoreContourHatchOverhang</text>
    <rect x="161.8000" y="69.0000" width="3.5000" height="2.0000" fill="#311B92" stroke="#333333" stroke-width="0.08" rx="0.3" ry="0.3"/>
    <text x="168.6000" y="70.9000" font-family="monospace" font-size="1.6000" fill="#444444" text-anchor="end">21</text>
    <text x="169.6000" y="70.9000" font-family="sans-serif" font-size="1.6000" fill="#111111">Shell1ContourHatchOverhang</text>
    <rect x="161.8000" y="72.0000" width="3.5000" height="2.0000" fill="#880E4F" stroke="#333333" stroke-width="0.08" rx="0.3" ry="0.3"/>
    <text x="168.6000" y="73.9000" font-family="monospace" font-size="1.6000" fill="#444444" text-anchor="end">22</text>
    <text x="169.6000" y="73.9000" font-family="sans-serif" font-size="1.6000" fill="#111111">Shell2ContourHatchOverhang</text>
    </g>
  </g>
</svg>
