<?xml version="1.0" encoding="UTF-8" standalone="yes"?>
<svg xmlns="http://www.w3.org/2000/svg"
     xmlns:xlink="http://www.w3.org/1999/xlink"
     width="2020.0000mm" height="1600.0000mm"
     viewBox="0 0 202.000000 160.000000">
  <!--
    Build plate : 150.00 x 150.00 mm
    Coordinate  : 1 SVG unit = 1 mm
    Display zoom: 10x  (width/height = viewBox x 10)
    Hatch stroke: 0.04 mm = ~28 mm on screen at this zoom
    Legend panel: right margin (42 mm wide)
  -->
  <defs>
    <marker id="endArrow" markerWidth="2" markerHeight="1.4"
            refX="0" refY="0.7" orient="auto"
            markerUnits="strokeWidth">
      <polyline fill="darkblue" points="0,0 2,0.7 0,1.4 0.2,0.7"/>
    </marker>
  </defs>
  <!-- Background -->
  <rect x="0" y="0" width="202.000000" height="160.000000" fill="#f0f0f0" stroke="none"/>
  <!-- Build plate boundary (150 x 150 mm) -->
  <rect x="5.000000" y="5.000000" width="150.000000" height="150.000000"
        fill="#ffffff" stroke="#aaaaaa" stroke-width="0.2" stroke-dasharray="1,0.5"/>
  <!-- Build plate centre circle (r = 75.00 mm) -->
  <circle cx="80.000000" cy="80.000000" r="75.000000"
          fill="none" stroke="#bbbbbb" stroke-width="0.15" stroke-dasharray="0.8,0.4"/>
  <!-- Centre cross-hair -->
  <line x1="5.000000" y1="80.000000" x2="155.000000" y2="80.000000" stroke="#cccccc" stroke-width="0.1"/>
  <line x1="80.000000" y1="5.000000" x2="80.000000" y2="155.000000" stroke="#cccccc" stroke-width="0.1"/>
  <circle cx="80.000000" cy="80.000000" r="0.3" fill="#cccccc" stroke="none"/>
  <!-- Corner labels -->
  <text x="5.400000" y="4.600000" font-family="sans-serif" font-size="2" fill="#888888">0,0</text>
  <text x="154.600006" y="4.600000" font-family="sans-serif" font-size="2" fill="#888888" text-anchor="end">150,0</text>
  <text x="5.400000" y="157.199997" font-family="sans-serif" font-size="2" fill="#888888">0,150</text>
  <!-- Layer geometry -->
  <g id="geometry">
    <g class="thermal-hatch" data-segment="8" data-name="CoreNormalHatch">
      <line x1="35.17412" y1="127.78940" x2="35.94159" y2="125.98135" stroke="#228B22" stroke-width="0.04000"/>
      <line x1="35.29164" y1="127.76848" x2="35.97989" y2="126.14706" stroke="#228B22" stroke-width="0.04000"/>
      <line x1="35.07605" y1="127.76452" x2="35.90330" y2="125.81564" stroke="#228B22" stroke-width="0.04000"/>
      <line x1="35.40916" y1="127.74755" x2="36.01819" y2="126.31277" stroke="#228B22" stroke-width="0.04000"/>
      <line x1="35.52667" y1="127.72663" x2="36.05559" y2="126.48058" stroke="#228B22" stroke-width="0.04000"/>
      <line x1="35.64419" y1="127.70571" x2="36.08702" y2="126.66247" stroke="#228B22" stroke-width="0.04000"/>
      <line x1="34.99844" y1="127.69142" x2="35.86500" y2="125.64993" stroke="#228B22" stroke-width="0.04000"/>
      <line x1="35.76171" y1="127.68479" x2="36.09701" y2="126.89486" stroke="#228B22" stroke-width="0.04000"/>
      <line x1="35.87922" y1="127.66386" x2="36.10701" y2="127.12724" stroke="#228B22" stroke-width="0.04000"/>
      <line x1="35.99673" y1="127.64294" x2="36.11700" y2="127.35962" stroke="#228B22" stroke-width="0.04000"/>
      <line x1="36.11426" y1="127.62202" x2="36.12700" y2="127.59201" stroke="#228B22" stroke-width="0.04000"/>
      <line x1="34.92083" y1="127.61832" x2="35.82670" y2="125.48422" stroke="#228B22" stroke-width="0.04000"/>
      <line x1="34.84322" y1="127.54522" x2="35.78684" y2="125.32220" stroke="#228B22" stroke-width="0.04000"/>
      <line x1="34.76562" y1="127.47212" x2="35.74654" y2="125.16120" stroke="#228B22" stroke-width="0.04000"/>
      <line x1="34.68801" y1="127.39902" x2="35.70625" y2="125.00021" stroke="#228B22" stroke-width="0.04000"/>
      <line x1="34.61040" y1="127.32592" x2="35.66170" y2="124.84921" stroke="#228B22" stroke-width="0.04000"/>
      <line x1="34.53280" y1="127.25282" x2="35.60841" y2="124.71883" stroke="#228B22" stroke-width="0.04000"/>
      <line x1="34.45519" y1="127.17972" x2="35.55511" y2="124.58846" stroke="#228B22" stroke-width="0.04000"/>
      <line x1="34.37758" y1="127.10661" x2="35.50182" y2="124.45807" stroke="#228B22" stroke-width="0.04000"/>
      <line x1="34.31082" y1="127.00797" x2="35.45659" y2="124.30870" stroke="#228B22" stroke-width="0.04000"/>
      <line x1="34.24820" y1="126.89956" x2="35.41191" y2="124.15803" stroke="#228B22" stroke-width="0.04000"/>
      <line x1="34.18558" y1="126.79115" x2="35.36724" y2="124.00735" stroke="#228B22" stroke-width="0.04000"/>
      <line x1="34.12296" y1="126.68274" x2="35.32256" y2="123.85667" stroke="#228B22" stroke-width="0.04000"/>
      <line x1="34.06034" y1="126.57434" x2="35.27789" y2="123.70600" stroke="#228B22" stroke-width="0.04000"/>
      <line x1="33.99892" y1="126.46310" x2="35.23320" y2="123.55532" stroke="#228B22" stroke-width="0.04000"/>
      <line x1="33.93862" y1="126.34924" x2="35.18826" y2="123.40529" stroke="#228B22" stroke-width="0.04000"/>
      <line x1="33.87832" y1="126.23536" x2="35.13285" y2="123.27988" stroke="#228B22" stroke-width="0.04000"/>
      <line x1="33.81648" y1="126.12511" x2="35.07744" y2="123.15448" stroke="#228B22" stroke-width="0.04000"/>
      <line x1="33.75381" y1="126.01681" x2="35.02203" y2="123.02908" stroke="#228B22" stroke-width="0.04000"/>
      <line x1="33.69115" y1="125.90852" x2="34.96663" y2="122.90367" stroke="#228B22" stroke-width="0.04000"/>
      <line x1="33.62849" y1="125.80021" x2="34.91122" y2="122.77827" stroke="#228B22" stroke-width="0.04000"/>
      <line x1="33.56580" y1="125.69195" x2="34.85582" y2="122.65287" stroke="#228B22" stroke-width="0.04000"/>
      <line x1="33.49860" y1="125.59436" x2="34.80042" y2="122.52747" stroke="#228B22" stroke-width="0.04000"/>
      <line x1="33.43138" y1="125.49677" x2="34.74936" y2="122.39182" stroke="#228B22" stroke-width="0.04000"/>
      <line x1="33.36417" y1="125.39918" x2="34.69841" y2="122.25591" stroke="#228B22" stroke-width="0.04000"/>
      <line x1="33.29621" y1="125.30336" x2="34.64746" y2="122.12001" stroke="#228B22" stroke-width="0.04000"/>
      <line x1="33.22404" y1="125.21744" x2="34.58945" y2="122.00073" stroke="#228B22" stroke-width="0.04000"/>
      <line x1="33.15244" y1="125.13019" x2="34.52795" y2="121.88970" stroke="#228B22" stroke-width="0.04000"/>
      <line x1="33.08498" y1="125.03317" x2="34.46644" y2="121.77867" stroke="#228B22" stroke-width="0.04000"/>
      <line x1="33.01753" y1="124.93616" x2="34.40494" y2="121.66765" stroke="#228B22" stroke-width="0.04000"/>
      <line x1="32.95007" y1="124.83915" x2="34.34343" y2="121.55661" stroke="#228B22" stroke-width="0.04000"/>
      <line x1="32.88262" y1="124.74213" x2="34.28608" y2="121.43578" stroke="#228B22" stroke-width="0.04000"/>
      <line x1="32.81516" y1="124.64512" x2="34.23608" y2="121.29765" stroke="#228B22" stroke-width="0.04000"/>
      <line x1="32.74770" y1="124.54811" x2="34.18607" y2="121.15953" stroke="#228B22" stroke-width="0.04000"/>
      <line x1="32.68025" y1="124.45110" x2="34.13607" y2="121.02141" stroke="#228B22" stroke-width="0.04000"/>
      <line x1="32.61279" y1="124.35408" x2="34.07986" y2="120.89787" stroke="#228B22" stroke-width="0.04000"/>
      <line x1="32.53999" y1="124.26967" x2="34.01984" y2="120.78336" stroke="#228B22" stroke-width="0.04000"/>
      <line x1="32.46810" y1="124.18308" x2="33.95981" y2="120.66884" stroke="#228B22" stroke-width="0.04000"/>
      <line x1="32.39622" y1="124.09650" x2="33.89979" y2="120.55432" stroke="#228B22" stroke-width="0.04000"/>
      <line x1="32.32434" y1="124.00992" x2="33.83647" y2="120.44755" stroke="#228B22" stroke-width="0.04000"/>
      <line x1="32.25245" y1="123.92334" x2="33.77218" y2="120.34308" stroke="#228B22" stroke-width="0.04000"/>
      <line x1="32.18056" y1="123.83675" x2="33.70789" y2="120.23861" stroke="#228B22" stroke-width="0.04000"/>
      <line x1="32.10868" y1="123.75018" x2="33.64686" y2="120.12646" stroke="#228B22" stroke-width="0.04000"/>
      <line x1="32.03680" y1="123.66359" x2="33.59112" y2="120.00184" stroke="#228B22" stroke-width="0.04000"/>
      <line x1="31.96092" y1="123.58643" x2="33.53539" y2="119.87722" stroke="#228B22" stroke-width="0.04000"/>
      <line x1="31.88394" y1="123.51186" x2="33.47965" y2="119.75259" stroke="#228B22" stroke-width="0.04000"/>
      <line x1="31.80696" y1="123.43728" x2="33.42391" y2="119.62798" stroke="#228B22" stroke-width="0.04000"/>
      <line x1="31.72998" y1="123.36269" x2="33.36818" y2="119.50335" stroke="#228B22" stroke-width="0.04000"/>
      <line x1="31.65300" y1="123.28812" x2="33.29760" y2="119.41367" stroke="#228B22" stroke-width="0.04000"/>
      <line x1="31.57602" y1="123.21354" x2="33.21657" y2="119.34865" stroke="#228B22" stroke-width="0.04000"/>
      <line x1="31.49976" y1="123.13726" x2="33.13554" y2="119.28362" stroke="#228B22" stroke-width="0.04000"/>
      <line x1="31.42617" y1="123.05470" x2="33.05490" y2="119.21765" stroke="#228B22" stroke-width="0.04000"/>
      <line x1="31.35258" y1="122.97213" x2="32.98230" y2="119.13275" stroke="#228B22" stroke-width="0.04000"/>
      <line x1="31.27676" y1="122.89484" x2="32.90971" y2="119.04785" stroke="#228B22" stroke-width="0.04000"/>
      <line x1="31.19978" y1="122.82024" x2="32.83710" y2="118.96295" stroke="#228B22" stroke-width="0.04000"/>
      <line x1="31.12281" y1="122.74565" x2="32.76450" y2="118.87805" stroke="#228B22" stroke-width="0.04000"/>
      <line x1="31.04920" y1="122.66314" x2="32.69191" y2="118.79316" stroke="#228B22" stroke-width="0.04000"/>
      <line x1="30.97808" y1="122.57475" x2="32.61931" y2="118.70826" stroke="#228B22" stroke-width="0.04000"/>
      <line x1="30.90697" y1="122.48636" x2="32.52579" y2="118.67264" stroke="#228B22" stroke-width="0.04000"/>
      <line x1="30.83585" y1="122.39796" x2="32.42048" y2="118.66482" stroke="#228B22" stroke-width="0.04000"/>
      <line x1="30.76473" y1="122.30957" x2="32.31516" y2="118.65699" stroke="#228B22" stroke-width="0.04000"/>
      <line x1="30.69362" y1="122.22118" x2="32.20985" y2="118.64917" stroke="#228B22" stroke-width="0.04000"/>
      <line x1="30.66802" y1="122.02554" x2="32.01339" y2="118.85607" stroke="#228B22" stroke-width="0.04000"/>
      <line x1="30.65404" y1="121.80257" x2="31.82311" y2="119.04840" stroke="#228B22" stroke-width="0.04000"/>
      <line x1="30.62420" y1="121.61694" x2="31.67551" y2="119.14018" stroke="#228B22" stroke-width="0.04000"/>
      <line x1="30.57591" y1="121.47476" x2="31.52792" y2="119.23197" stroke="#228B22" stroke-width="0.04000"/>
      <line x1="30.52762" y1="121.33259" x2="31.30931" y2="119.49105" stroke="#228B22" stroke-width="0.04000"/>
      <line x1="30.51210" y1="121.11322" x2="30.98965" y2="119.98818" stroke="#228B22" stroke-width="0.04000"/>
      <line x1="30.60458" y1="120.63942" x2="30.72065" y2="120.36598" stroke="#228B22" stroke-width="0.04000"/>
    </g>
    <g class="thermal-hatch" data-segment="8" data-name="CoreNormalHatch">
      <line x1="52.77242" y1="116.20862" x2="53.26870" y2="115.03945" stroke="#228B22" stroke-width="0.04000"/>
      <line x1="52.88510" y1="116.19908" x2="53.33622" y2="115.13633" stroke="#228B22" stroke-width="0.04000"/>
      <line x1="52.68225" y1="116.16511" x2="53.20119" y2="114.94257" stroke="#228B22" stroke-width="0.04000"/>
      <line x1="52.59209" y1="116.12159" x2="53.13699" y2="114.83788" stroke="#228B22" stroke-width="0.04000"/>
      <line x1="53.04006" y1="116.08995" x2="53.36212" y2="115.33122" stroke="#228B22" stroke-width="0.04000"/>
      <line x1="52.50192" y1="116.07807" x2="53.07360" y2="114.73128" stroke="#228B22" stroke-width="0.04000"/>
      <line x1="52.41176" y1="116.03455" x2="53.01022" y2="114.62468" stroke="#228B22" stroke-width="0.04000"/>
      <line x1="52.32159" y1="115.99104" x2="52.94683" y2="114.51807" stroke="#228B22" stroke-width="0.04000"/>
      <line x1="53.19503" y1="115.98080" x2="53.23109" y2="115.89586" stroke="#228B22" stroke-width="0.04000"/>
      <line x1="52.23143" y1="115.94753" x2="52.88345" y2="114.41148" stroke="#228B22" stroke-width="0.04000"/>
      <line x1="52.14362" y1="115.89847" x2="52.80777" y2="114.33383" stroke="#228B22" stroke-width="0.04000"/>
      <line x1="52.05614" y1="115.84860" x2="52.72969" y2="114.26182" stroke="#228B22" stroke-width="0.04000"/>
      <line x1="51.96868" y1="115.79874" x2="52.65163" y2="114.18981" stroke="#228B22" stroke-width="0.04000"/>
      <line x1="51.87975" y1="115.75229" x2="52.57293" y2="114.11929" stroke="#228B22" stroke-width="0.04000"/>
      <line x1="51.79070" y1="115.70615" x2="52.49276" y2="114.05221" stroke="#228B22" stroke-width="0.04000"/>
      <line x1="51.70165" y1="115.66002" x2="52.41261" y2="113.98512" stroke="#228B22" stroke-width="0.04000"/>
      <line x1="51.61260" y1="115.61388" x2="52.33244" y2="113.91804" stroke="#228B22" stroke-width="0.04000"/>
      <line x1="51.52355" y1="115.56775" x2="52.25228" y2="113.85095" stroke="#228B22" stroke-width="0.04000"/>
      <line x1="51.43449" y1="115.52161" x2="52.17212" y2="113.78387" stroke="#228B22" stroke-width="0.04000"/>
      <line x1="51.34544" y1="115.47547" x2="52.08978" y2="113.72192" stroke="#228B22" stroke-width="0.04000"/>
      <line x1="51.25639" y1="115.42934" x2="52.00322" y2="113.66993" stroke="#228B22" stroke-width="0.04000"/>
      <line x1="51.16809" y1="115.38142" x2="51.91665" y2="113.61794" stroke="#228B22" stroke-width="0.04000"/>
      <line x1="51.08082" y1="115.33109" x2="51.83008" y2="113.56595" stroke="#228B22" stroke-width="0.04000"/>
      <line x1="50.99355" y1="115.28076" x2="51.74351" y2="113.51396" stroke="#228B22" stroke-width="0.04000"/>
      <line x1="50.90565" y1="115.23191" x2="51.65694" y2="113.46198" stroke="#228B22" stroke-width="0.04000"/>
      <line x1="50.81618" y1="115.18676" x2="51.57037" y2="113.40999" stroke="#228B22" stroke-width="0.04000"/>
      <line x1="50.72670" y1="115.14161" x2="51.48407" y2="113.35738" stroke="#228B22" stroke-width="0.04000"/>
      <line x1="50.63723" y1="115.09647" x2="51.39910" y2="113.30163" stroke="#228B22" stroke-width="0.04000"/>
      <line x1="50.54776" y1="115.05132" x2="51.31413" y2="113.24587" stroke="#228B22" stroke-width="0.04000"/>
      <line x1="50.45829" y1="115.00617" x2="51.22762" y2="113.19375" stroke="#228B22" stroke-width="0.04000"/>
      <line x1="50.36882" y1="114.96102" x2="51.13980" y2="113.14471" stroke="#228B22" stroke-width="0.04000"/>
      <line x1="50.27935" y1="114.91588" x2="51.05198" y2="113.09567" stroke="#228B22" stroke-width="0.04000"/>
      <line x1="50.18987" y1="114.87073" x2="50.96416" y2="113.04663" stroke="#228B22" stroke-width="0.04000"/>
      <line x1="50.10035" y1="114.82570" x2="50.87634" y2="112.99759" stroke="#228B22" stroke-width="0.04000"/>
      <line x1="50.01081" y1="114.78072" x2="50.78948" y2="112.94628" stroke="#228B22" stroke-width="0.04000"/>
      <line x1="49.92126" y1="114.73574" x2="50.70300" y2="112.89410" stroke="#228B22" stroke-width="0.04000"/>
      <line x1="49.83172" y1="114.69076" x2="50.61651" y2="112.84190" stroke="#228B22" stroke-width="0.04000"/>
      <line x1="49.74218" y1="114.64578" x2="50.53003" y2="112.78972" stroke="#228B22" stroke-width="0.04000"/>
      <line x1="49.64959" y1="114.60797" x2="50.44092" y2="112.74372" stroke="#228B22" stroke-width="0.04000"/>
      <line x1="49.55577" y1="114.57306" x2="50.35048" y2="112.70084" stroke="#228B22" stroke-width="0.04000"/>
      <line x1="49.46196" y1="114.53815" x2="50.26388" y2="112.64893" stroke="#228B22" stroke-width="0.04000"/>
      <line x1="49.36814" y1="114.50323" x2="50.18018" y2="112.59018" stroke="#228B22" stroke-width="0.04000"/>
      <line x1="49.27445" y1="114.46803" x2="50.09649" y2="112.53143" stroke="#228B22" stroke-width="0.04000"/>
      <line x1="49.18207" y1="114.42973" x2="50.01279" y2="112.47268" stroke="#228B22" stroke-width="0.04000"/>
      <line x1="49.08969" y1="114.39143" x2="49.92909" y2="112.41393" stroke="#228B22" stroke-width="0.04000"/>
      <line x1="48.99731" y1="114.35314" x2="49.84539" y2="112.35517" stroke="#228B22" stroke-width="0.04000"/>
      <line x1="48.90493" y1="114.31485" x2="49.76170" y2="112.29642" stroke="#228B22" stroke-width="0.04000"/>
      <line x1="48.81255" y1="114.27655" x2="49.67479" y2="112.24522" stroke="#228B22" stroke-width="0.04000"/>
      <line x1="48.72017" y1="114.23826" x2="49.58694" y2="112.19625" stroke="#228B22" stroke-width="0.04000"/>
      <line x1="48.62778" y1="114.19997" x2="49.49910" y2="112.14727" stroke="#228B22" stroke-width="0.04000"/>
      <line x1="48.53540" y1="114.16167" x2="49.41125" y2="112.09830" stroke="#228B22" stroke-width="0.04000"/>
      <line x1="48.44302" y1="114.12337" x2="49.32340" y2="112.04932" stroke="#228B22" stroke-width="0.04000"/>
      <line x1="48.35064" y1="114.08508" x2="49.23556" y2="112.00034" stroke="#228B22" stroke-width="0.04000"/>
      <line x1="48.25999" y1="114.04271" x2="49.14865" y2="111.94917" stroke="#228B22" stroke-width="0.04000"/>
      <line x1="48.17109" y1="113.99622" x2="49.06617" y2="111.88754" stroke="#228B22" stroke-width="0.04000"/>
      <line x1="48.08123" y1="113.95198" x2="48.98350" y2="111.82635" stroke="#228B22" stroke-width="0.04000"/>
      <line x1="47.99140" y1="113.90768" x2="48.89912" y2="111.76921" stroke="#228B22" stroke-width="0.04000"/>
      <line x1="47.90157" y1="113.86336" x2="48.81475" y2="111.71206" stroke="#228B22" stroke-width="0.04000"/>
      <line x1="47.81176" y1="113.81903" x2="48.73104" y2="111.65334" stroke="#228B22" stroke-width="0.04000"/>
      <line x1="47.72194" y1="113.77470" x2="48.64746" y2="111.59431" stroke="#228B22" stroke-width="0.04000"/>
      <line x1="47.63211" y1="113.73038" x2="48.56388" y2="111.53528" stroke="#228B22" stroke-width="0.04000"/>
      <line x1="47.54229" y1="113.68605" x2="48.48030" y2="111.47624" stroke="#228B22" stroke-width="0.04000"/>
      <line x1="47.45247" y1="113.64172" x2="48.39672" y2="111.41721" stroke="#228B22" stroke-width="0.04000"/>
      <line x1="47.36266" y1="113.59740" x2="48.31314" y2="111.35818" stroke="#228B22" stroke-width="0.04000"/>
      <line x1="47.27283" y1="113.55307" x2="48.22785" y2="111.30318" stroke="#228B22" stroke-width="0.04000"/>
      <line x1="47.18301" y1="113.50874" x2="48.14251" y2="111.24830" stroke="#228B22" stroke-width="0.04000"/>
      <line x1="47.09126" y1="113.46898" x2="48.05717" y2="111.19342" stroke="#228B22" stroke-width="0.04000"/>
      <line x1="46.99892" y1="113.43057" x2="47.97183" y2="111.13853" stroke="#228B22" stroke-width="0.04000"/>
      <line x1="46.90945" y1="113.38544" x2="47.89136" y2="111.07220" stroke="#228B22" stroke-width="0.04000"/>
      <line x1="46.82231" y1="113.33478" x2="47.81502" y2="110.99610" stroke="#228B22" stroke-width="0.04000"/>
      <line x1="46.73518" y1="113.28412" x2="47.73869" y2="110.92001" stroke="#228B22" stroke-width="0.04000"/>
      <line x1="46.64805" y1="113.23346" x2="47.66235" y2="110.84392" stroke="#228B22" stroke-width="0.04000"/>
      <line x1="46.56091" y1="113.18280" x2="47.58422" y2="110.77203" stroke="#228B22" stroke-width="0.04000"/>
      <line x1="46.47378" y1="113.13214" x2="47.50507" y2="110.70258" stroke="#228B22" stroke-width="0.04000"/>
      <line x1="46.38665" y1="113.08148" x2="47.42591" y2="110.63313" stroke="#228B22" stroke-width="0.04000"/>
      <line x1="46.29951" y1="113.03082" x2="47.34676" y2="110.56367" stroke="#228B22" stroke-width="0.04000"/>
      <line x1="46.21238" y1="112.98016" x2="47.26760" y2="110.49422" stroke="#228B22" stroke-width="0.04000"/>
      <line x1="46.12525" y1="112.92950" x2="47.18845" y2="110.42477" stroke="#228B22" stroke-width="0.04000"/>
      <line x1="46.03769" y1="112.87986" x2="47.10929" y2="110.35532" stroke="#228B22" stroke-width="0.04000"/>
      <line x1="45.94933" y1="112.83208" x2="47.03117" y2="110.28342" stroke="#228B22" stroke-width="0.04000"/>
      <line x1="45.86097" y1="112.78431" x2="46.95521" y2="110.20646" stroke="#228B22" stroke-width="0.04000"/>
      <line x1="45.77386" y1="112.73362" x2="46.88379" y2="110.11877" stroke="#228B22" stroke-width="0.04000"/>
      <line x1="45.68847" y1="112.67884" x2="46.81237" y2="110.03109" stroke="#228B22" stroke-width="0.04000"/>
      <line x1="45.60309" y1="112.62406" x2="46.74096" y2="109.94341" stroke="#228B22" stroke-width="0.04000"/>
      <line x1="45.51770" y1="112.56928" x2="46.66954" y2="109.85572" stroke="#228B22" stroke-width="0.04000"/>
      <line x1="45.43232" y1="112.51451" x2="46.59813" y2="109.76804" stroke="#228B22" stroke-width="0.04000"/>
      <line x1="45.34848" y1="112.45610" x2="46.52671" y2="109.68035" stroke="#228B22" stroke-width="0.04000"/>
      <line x1="45.26648" y1="112.39335" x2="46.45530" y2="109.59267" stroke="#228B22" stroke-width="0.04000"/>
      <line x1="45.18447" y1="112.33060" x2="46.38394" y2="109.50483" stroke="#228B22" stroke-width="0.04000"/>
      <line x1="45.10247" y1="112.26786" x2="46.31307" y2="109.41586" stroke="#228B22" stroke-width="0.04000"/>
      <line x1="45.02047" y1="112.20511" x2="46.24220" y2="109.32689" stroke="#228B22" stroke-width="0.04000"/>
      <line x1="44.93954" y1="112.13985" x2="46.17173" y2="109.23698" stroke="#228B22" stroke-width="0.04000"/>
      <line x1="44.85911" y1="112.07339" x2="46.10149" y2="109.14653" stroke="#228B22" stroke-width="0.04000"/>
      <line x1="44.77868" y1="112.00694" x2="46.03124" y2="109.05609" stroke="#228B22" stroke-width="0.04000"/>
      <line x1="44.69825" y1="111.94049" x2="45.96100" y2="108.96564" stroke="#228B22" stroke-width="0.04000"/>
      <line x1="44.61782" y1="111.87404" x2="45.89075" y2="108.87520" stroke="#228B22" stroke-width="0.04000"/>
      <line x1="44.53749" y1="111.80736" x2="45.82051" y2="108.78475" stroke="#228B22" stroke-width="0.04000"/>
      <line x1="44.45717" y1="111.74065" x2="45.74923" y2="108.69675" stroke="#228B22" stroke-width="0.04000"/>
      <line x1="44.37685" y1="111.67393" x2="45.67731" y2="108.61026" stroke="#228B22" stroke-width="0.04000"/>
      <line x1="44.29654" y1="111.60722" x2="45.60539" y2="108.52376" stroke="#228B22" stroke-width="0.04000"/>
      <line x1="44.21593" y1="111.54118" x2="45.53347" y2="108.43726" stroke="#228B22" stroke-width="0.04000"/>
      <line x1="44.13513" y1="111.47562" x2="45.46155" y2="108.35076" stroke="#228B22" stroke-width="0.04000"/>
      <line x1="44.05432" y1="111.41004" x2="45.38963" y2="108.26427" stroke="#228B22" stroke-width="0.04000"/>
      <line x1="43.97817" y1="111.33353" x2="45.31771" y2="108.17776" stroke="#228B22" stroke-width="0.04000"/>
      <line x1="43.90307" y1="111.25451" x2="45.23138" y2="108.12522" stroke="#228B22" stroke-width="0.04000"/>
      <line x1="43.82798" y1="111.17549" x2="45.14033" y2="108.08379" stroke="#228B22" stroke-width="0.04000"/>
      <line x1="43.75288" y1="111.09647" x2="45.04851" y2="108.04417" stroke="#228B22" stroke-width="0.04000"/>
      <line x1="43.67779" y1="111.01746" x2="44.95668" y2="108.00456" stroke="#228B22" stroke-width="0.04000"/>
      <line x1="43.60269" y1="110.93843" x2="44.86469" y2="107.96536" stroke="#228B22" stroke-width="0.04000"/>
      <line x1="43.52785" y1="110.85882" x2="44.77184" y2="107.92816" stroke="#228B22" stroke-width="0.04000"/>
      <line x1="43.45301" y1="110.77921" x2="44.67899" y2="107.89097" stroke="#228B22" stroke-width="0.04000"/>
      <line x1="43.37817" y1="110.69959" x2="44.58615" y2="107.85378" stroke="#228B22" stroke-width="0.04000"/>
      <line x1="43.30333" y1="110.61997" x2="44.49330" y2="107.81657" stroke="#228B22" stroke-width="0.04000"/>
      <line x1="43.22849" y1="110.54036" x2="44.40045" y2="107.77938" stroke="#228B22" stroke-width="0.04000"/>
      <line x1="43.15364" y1="110.46075" x2="44.30723" y2="107.74306" stroke="#228B22" stroke-width="0.04000"/>
      <line x1="43.07880" y1="110.38113" x2="44.21209" y2="107.71128" stroke="#228B22" stroke-width="0.04000"/>
      <line x1="43.00396" y1="110.30151" x2="44.11694" y2="107.67950" stroke="#228B22" stroke-width="0.04000"/>
      <line x1="42.93750" y1="110.20216" x2="43.99910" y2="107.70119" stroke="#228B22" stroke-width="0.04000"/>
      <line x1="42.88004" y1="110.08161" x2="43.87660" y2="107.73385" stroke="#228B22" stroke-width="0.04000"/>
      <line x1="42.82257" y1="109.96106" x2="43.75410" y2="107.76650" stroke="#228B22" stroke-width="0.04000"/>
      <line x1="42.76523" y1="109.84022" x2="43.63160" y2="107.79916" stroke="#228B22" stroke-width="0.04000"/>
      <line x1="42.70794" y1="109.71925" x2="43.50910" y2="107.83183" stroke="#228B22" stroke-width="0.04000"/>
      <line x1="42.65066" y1="109.59827" x2="43.38660" y2="107.86449" stroke="#228B22" stroke-width="0.04000"/>
      <line x1="42.59337" y1="109.47729" x2="43.26333" y2="107.89896" stroke="#228B22" stroke-width="0.04000"/>
      <line x1="42.53608" y1="109.35632" x2="43.09688" y2="108.03517" stroke="#228B22" stroke-width="0.04000"/>
      <line x1="42.55442" y1="109.05719" x2="42.90278" y2="108.23651" stroke="#228B22" stroke-width="0.04000"/>
      <line x1="42.63570" y1="108.60978" x2="42.70867" y2="108.43786" stroke="#228B22" stroke-width="0.04000"/>
    </g>
    <g class="thermal-hatch" data-segment="8" data-name="CoreNormalHatch">
      <line x1="32.45100" y1="118.95780" x2="32.85560" y2="119.43080" stroke="#228B22" stroke-width="0.04000"/>
      <line x1="32.85560" y1="119.43080" x2="33.10880" y2="119.63410" stroke="#228B22" stroke-width="0.04000"/>
      <line x1="33.10880" y1="119.63410" x2="33.41120" y2="120.30960" stroke="#228B22" stroke-width="0.04000"/>
      <line x1="33.41120" y1="120.30960" x2="33.63370" y2="120.67160" stroke="#228B22" stroke-width="0.04000"/>
      <line x1="33.63370" y1="120.67160" x2="33.85130" y2="121.08660" stroke="#228B22" stroke-width="0.04000"/>
      <line x1="33.85130" y1="121.08660" x2="34.03940" y2="121.60620" stroke="#228B22" stroke-width="0.04000"/>
      <line x1="34.03940" y1="121.60620" x2="34.36650" y2="122.19690" stroke="#228B22" stroke-width="0.04000"/>
      <line x1="34.36650" y1="122.19690" x2="34.53040" y2="122.63400" stroke="#228B22" stroke-width="0.04000"/>
      <line x1="34.53040" y1="122.63400" x2="34.91710" y2="123.50940" stroke="#228B22" stroke-width="0.04000"/>
      <line x1="34.91710" y1="123.50940" x2="34.91950" y2="123.51900" stroke="#228B22" stroke-width="0.04000"/>
      <line x1="34.91950" y1="123.51900" x2="34.94120" y2="123.59060" stroke="#228B22" stroke-width="0.04000"/>
      <line x1="34.94120" y1="123.59060" x2="35.22440" y2="124.54600" stroke="#228B22" stroke-width="0.04000"/>
      <line x1="35.22440" y1="124.54600" x2="35.40260" y2="124.98220" stroke="#228B22" stroke-width="0.04000"/>
      <line x1="35.40260" y1="124.98220" x2="35.53710" y2="125.51870" stroke="#228B22" stroke-width="0.04000"/>
      <line x1="35.53710" y1="125.51870" x2="35.75260" y2="126.45160" stroke="#228B22" stroke-width="0.04000"/>
      <line x1="35.75260" y1="126.45160" x2="35.78130" y2="126.58440" stroke="#228B22" stroke-width="0.04000"/>
      <line x1="35.78130" y1="126.58440" x2="35.79590" y2="126.64520" stroke="#228B22" stroke-width="0.04000"/>
      <line x1="35.79590" y1="126.64520" x2="35.82750" y2="127.37820" stroke="#228B22" stroke-width="0.04000"/>
      <line x1="35.82750" y1="127.37820" x2="35.20650" y2="127.48880" stroke="#228B22" stroke-width="0.04000"/>
      <line x1="35.20650" y1="127.48880" x2="34.58550" y2="126.90410" stroke="#228B22" stroke-width="0.04000"/>
      <line x1="34.58550" y1="126.90410" x2="34.28430" y2="126.38240" stroke="#228B22" stroke-width="0.04000"/>
      <line x1="34.28430" y1="126.38240" x2="34.11090" y2="126.05500" stroke="#228B22" stroke-width="0.04000"/>
      <line x1="34.11090" y1="126.05500" x2="33.81130" y2="125.53720" stroke="#228B22" stroke-width="0.04000"/>
      <line x1="33.81130" y1="125.53720" x2="33.53830" y2="125.14050" stroke="#228B22" stroke-width="0.04000"/>
      <line x1="33.53830" y1="125.14050" x2="33.39090" y2="124.96530" stroke="#228B22" stroke-width="0.04000"/>
      <line x1="33.39090" y1="124.96530" x2="32.82040" y2="124.14460" stroke="#228B22" stroke-width="0.04000"/>
      <line x1="32.82040" y1="124.14460" x2="32.77170" y2="124.09500" stroke="#228B22" stroke-width="0.04000"/>
      <line x1="32.77170" y1="124.09500" x2="32.23440" y2="123.44780" stroke="#228B22" stroke-width="0.04000"/>
      <line x1="32.23440" y1="123.44780" x2="31.72560" y2="122.95470" stroke="#228B22" stroke-width="0.04000"/>
      <line x1="31.72560" y1="122.95470" x2="31.53710" y2="122.74320" stroke="#228B22" stroke-width="0.04000"/>
      <line x1="31.53710" y1="122.74320" x2="31.30430" y2="122.51780" stroke="#228B22" stroke-width="0.04000"/>
      <line x1="31.30430" y1="122.51780" x2="30.96280" y2="122.09300" stroke="#228B22" stroke-width="0.04000"/>
      <line x1="30.96280" y1="122.09300" x2="30.93360" y2="121.62580" stroke="#228B22" stroke-width="0.04000"/>
      <line x1="30.93360" y1="121.62580" x2="30.78980" y2="121.20290" stroke="#228B22" stroke-width="0.04000"/>
      <line x1="30.78980" y1="121.20290" x2="30.90290" y2="120.62340" stroke="#228B22" stroke-width="0.04000"/>
      <line x1="30.90290" y1="120.62340" x2="31.05970" y2="120.36720" stroke="#228B22" stroke-width="0.04000"/>
      <line x1="31.05970" y1="120.36720" x2="31.27890" y2="120.08980" stroke="#228B22" stroke-width="0.04000"/>
      <line x1="31.27890" y1="120.08980" x2="31.64460" y2="119.50060" stroke="#228B22" stroke-width="0.04000"/>
      <line x1="31.64460" y1="119.50060" x2="32.03300" y2="119.25950" stroke="#228B22" stroke-width="0.04000"/>
      <line x1="32.03300" y1="119.25950" x2="32.32400" y2="118.94830" stroke="#228B22" stroke-width="0.04000"/>
      <line x1="32.32400" y1="118.94830" x2="32.45100" y2="118.95780" stroke="#228B22" stroke-width="0.04000"/>
      <line x1="44.22600" y1="108.02160" x2="44.77010" y2="108.23980" stroke="#228B22" stroke-width="0.04000"/>
      <line x1="44.77010" y1="108.23980" x2="45.05560" y2="108.36290" stroke="#228B22" stroke-width="0.04000"/>
      <line x1="45.05560" y1="108.36290" x2="45.11960" y2="108.39300" stroke="#228B22" stroke-width="0.04000"/>
      <line x1="45.11960" y1="108.39300" x2="45.56630" y2="108.93040" stroke="#228B22" stroke-width="0.04000"/>
      <line x1="45.56630" y1="108.93040" x2="45.98860" y2="109.47400" stroke="#228B22" stroke-width="0.04000"/>
      <line x1="45.98860" y1="109.47400" x2="46.16640" y2="109.69720" stroke="#228B22" stroke-width="0.04000"/>
      <line x1="46.16640" y1="109.69720" x2="46.77480" y2="110.44420" stroke="#228B22" stroke-width="0.04000"/>
      <line x1="46.77480" y1="110.44420" x2="46.83500" y2="110.49690" stroke="#228B22" stroke-width="0.04000"/>
      <line x1="46.83500" y1="110.49690" x2="46.90260" y2="110.55960" stroke="#228B22" stroke-width="0.04000"/>
      <line x1="46.90260" y1="110.55960" x2="47.43730" y2="111.02910" stroke="#228B22" stroke-width="0.04000"/>
      <line x1="47.43730" y1="111.02910" x2="47.74990" y2="111.34040" stroke="#228B22" stroke-width="0.04000"/>
      <line x1="47.74990" y1="111.34040" x2="48.14830" y2="111.59670" stroke="#228B22" stroke-width="0.04000"/>
      <line x1="48.14830" y1="111.59670" x2="48.63590" y2="111.94110" stroke="#228B22" stroke-width="0.04000"/>
      <line x1="48.63590" y1="111.94110" x2="48.82310" y2="112.06800" stroke="#228B22" stroke-width="0.04000"/>
      <line x1="48.82310" y1="112.06800" x2="49.00490" y2="112.20380" stroke="#228B22" stroke-width="0.04000"/>
      <line x1="49.00490" y1="112.20380" x2="49.58840" y2="112.52890" stroke="#228B22" stroke-width="0.04000"/>
      <line x1="49.58840" y1="112.52890" x2="50.16500" y2="112.93370" stroke="#228B22" stroke-width="0.04000"/>
      <line x1="50.16500" y1="112.93370" x2="50.36270" y2="113.02750" stroke="#228B22" stroke-width="0.04000"/>
      <line x1="50.36270" y1="113.02750" x2="50.70620" y2="113.23470" stroke="#228B22" stroke-width="0.04000"/>
      <line x1="50.70620" y1="113.23470" x2="51.12520" y2="113.46860" stroke="#228B22" stroke-width="0.04000"/>
      <line x1="51.12520" y1="113.46860" x2="51.34380" y2="113.61220" stroke="#228B22" stroke-width="0.04000"/>
      <line x1="51.34380" y1="113.61220" x2="51.95000" y2="113.97610" stroke="#228B22" stroke-width="0.04000"/>
      <line x1="51.95000" y1="113.97610" x2="52.40610" y2="114.35800" stroke="#228B22" stroke-width="0.04000"/>
      <line x1="52.40610" y1="114.35800" x2="52.64520" y2="114.57850" stroke="#228B22" stroke-width="0.04000"/>
      <line x1="52.64520" y1="114.57850" x2="52.94400" y2="115.08080" stroke="#228B22" stroke-width="0.04000"/>
      <line x1="52.94400" y1="115.08080" x2="53.07780" y2="115.27280" stroke="#228B22" stroke-width="0.04000"/>
      <line x1="53.07780" y1="115.27280" x2="53.05250" y2="115.38170" stroke="#228B22" stroke-width="0.04000"/>
      <line x1="53.05250" y1="115.38170" x2="52.88310" y2="115.46620" stroke="#228B22" stroke-width="0.04000"/>
      <line x1="52.88310" y1="115.46620" x2="52.48400" y2="115.74720" stroke="#228B22" stroke-width="0.04000"/>
      <line x1="52.48400" y1="115.74720" x2="52.35370" y2="115.68440" stroke="#228B22" stroke-width="0.04000"/>
      <line x1="52.35370" y1="115.68440" x2="52.10000" y2="115.53970" stroke="#228B22" stroke-width="0.04000"/>
      <line x1="52.10000" y1="115.53970" x2="51.34410" y2="115.14810" stroke="#228B22" stroke-width="0.04000"/>
      <line x1="51.34410" y1="115.14810" x2="51.06890" y2="114.98950" stroke="#228B22" stroke-width="0.04000"/>
      <line x1="51.06890" y1="114.98950" x2="50.47940" y2="114.69190" stroke="#228B22" stroke-width="0.04000"/>
      <line x1="50.47940" y1="114.69190" x2="50.47940" y2="114.69150" stroke="#228B22" stroke-width="0.04000"/>
      <line x1="50.47940" y1="114.69150" x2="49.83240" y2="114.36670" stroke="#228B22" stroke-width="0.04000"/>
      <line x1="49.83240" y1="114.36670" x2="49.39080" y2="114.20220" stroke="#228B22" stroke-width="0.04000"/>
      <line x1="49.39080" y1="114.20220" x2="48.44660" y2="113.81070" stroke="#228B22" stroke-width="0.04000"/>
      <line x1="48.44660" y1="113.81070" x2="48.38860" y2="113.78260" stroke="#228B22" stroke-width="0.04000"/>
      <line x1="48.38860" y1="113.78260" x2="48.35830" y2="113.76520" stroke="#228B22" stroke-width="0.04000"/>
      <line x1="48.35830" y1="113.76520" x2="48.31940" y2="113.74600" stroke="#228B22" stroke-width="0.04000"/>
      <line x1="48.31940" y1="113.74600" x2="47.28230" y2="113.23430" stroke="#228B22" stroke-width="0.04000"/>
      <line x1="47.28230" y1="113.23430" x2="47.08760" y2="113.15340" stroke="#228B22" stroke-width="0.04000"/>
      <line x1="47.08760" y1="113.15340" x2="46.21050" y2="112.64370" stroke="#228B22" stroke-width="0.04000"/>
      <line x1="46.21050" y1="112.64370" x2="45.95850" y2="112.50730" stroke="#228B22" stroke-width="0.04000"/>
      <line x1="45.95850" y1="112.50730" x2="45.55170" y2="112.24640" stroke="#228B22" stroke-width="0.04000"/>
      <line x1="45.55170" y1="112.24640" x2="45.17410" y2="111.95760" stroke="#228B22" stroke-width="0.04000"/>
      <line x1="45.17410" y1="111.95760" x2="44.79290" y2="111.64250" stroke="#228B22" stroke-width="0.04000"/>
      <line x1="44.79290" y1="111.64250" x2="44.44760" y2="111.35560" stroke="#228B22" stroke-width="0.04000"/>
      <line x1="44.44760" y1="111.35560" x2="44.23610" y2="111.18410" stroke="#228B22" stroke-width="0.04000"/>
      <line x1="44.23610" y1="111.18410" x2="43.81350" y2="110.73930" stroke="#228B22" stroke-width="0.04000"/>
      <line x1="43.81350" y1="110.73930" x2="43.20740" y2="110.09450" stroke="#228B22" stroke-width="0.04000"/>
      <line x1="43.20740" y1="110.09450" x2="43.06660" y2="109.79890" stroke="#228B22" stroke-width="0.04000"/>
      <line x1="43.06660" y1="109.79890" x2="43.06650" y2="109.79890" stroke="#228B22" stroke-width="0.04000"/>
      <line x1="43.06650" y1="109.79890" x2="42.81210" y2="109.26160" stroke="#228B22" stroke-width="0.04000"/>
      <line x1="42.81210" y1="109.26160" x2="42.92690" y2="108.62920" stroke="#228B22" stroke-width="0.04000"/>
      <line x1="42.92690" y1="108.62920" x2="43.37030" y2="108.16940" stroke="#228B22" stroke-width="0.04000"/>
      <line x1="43.37030" y1="108.16940" x2="43.38370" y2="108.16530" stroke="#228B22" stroke-width="0.04000"/>
      <line x1="43.38370" y1="108.16530" x2="44.09100" y2="107.97660" stroke="#228B22" stroke-width="0.04000"/>
      <line x1="44.09100" y1="107.97660" x2="44.22600" y2="108.02160" stroke="#228B22" stroke-width="0.04000"/>
    </g>
    <g class="thermal-hatch" data-segment="7" data-name="CoreOverhangHatch">
      <line x1="52.95700" y1="115.79340" x2="52.80350" y2="115.90150" stroke="#FF8C00" stroke-width="0.04000"/>
      <line x1="52.80350" y1="115.90150" x2="52.48400" y2="115.74720" stroke="#FF8C00" stroke-width="0.04000"/>
      <line x1="52.48400" y1="115.74720" x2="52.88310" y2="115.46620" stroke="#FF8C00" stroke-width="0.04000"/>
      <line x1="52.88310" y1="115.46620" x2="53.05250" y2="115.38170" stroke="#FF8C00" stroke-width="0.04000"/>
      <line x1="53.05250" y1="115.38170" x2="52.95700" y2="115.79340" stroke="#FF8C00" stroke-width="0.04000"/>
    </g>
    <g class="thermal-contour" data-segment="1" data-name="CoreContour_Volume">
    <path d="M 32.5931 118.678 L 33.0583 119.222 L 33.3451 119.452 L 33.6681 120.174 L 33.886 120.528 L 34.117 120.969 L 34.3042 121.486 L 34.6306 122.075 L 34.799 122.524 L 35.1928 123.416 L 35.1993 123.443 L 35.2189 123.507 L 35.4984 124.45 L 35.6791 124.892 L 35.8184 125.448 L 36.0355 126.388 L 36.064 126.52 L 36.0845 126.604 L 36.1282 127.62 L 35.1261 127.798 L 35.1152 127.801 L 35.1091 127.796 L 34.3561 127.086 L 34.0301 126.522 L 33.8572 126.196 L 33.566 125.692 L 33.3072 125.316 L 33.1605 125.142 L 32.5962 124.33 L 32.5569 124.29 L 32.0213 123.645 L 31.5154 123.155 L 31.3277 122.944 L 31.09 122.714 L 30.6792 122.203 L 30.6465 121.683 L 30.4906 121.224 L 30.6286 120.516 L 30.8215 120.201 L 31.0411 119.923 L 31.4339 119.29 L 31.8474 119.033 L 32.2073 118.649 L 32.5931 118.678" fill="none" stroke="#000000" stroke-width="0.05000" fill-rule="evenodd" fill-opacity="1.000"/>
    </g>
    <g class="thermal-contour" data-segment="1" data-name="CoreContour_Volume">
    <path d="M 44.3227 107.748 L 44.8804 107.972 L 45.1769 108.1 L 45.3015 108.158 L 45.7938 108.75 L 46.2165 109.295 L 46.3923 109.515 L 46.9843 110.242 L 47.0302 110.282 L 47.0969 110.344 L 47.6344 110.816 L 47.9326 111.113 L 48.3108 111.357 L 48.8009 111.703 L 48.992 111.832 L 49.163 111.96 L 49.7428 112.283 L 50.3115 112.682 L 50.5011 112.772 L 50.8518 112.984 L 51.2751 113.22 L 51.4981 113.367 L 52.1192 113.74 L 52.5971 114.14 L 52.8731 114.394 L 53.1879 114.924 L 53.3896 115.213 L 53.2146 115.967 L 52.8312 116.237 L 52.2199 115.942 L 51.9614 115.795 L 51.2052 115.403 L 50.9311 115.245 L 50.1894 114.87 L 50.1894 114.87 L 49.7164 114.633 L 49.2826 114.471 L 48.3283 114.076 L 48.2534 114.04 L 48.2217 114.021 L 48.0563 113.94 L 48.0563 113.94 L 47.1623 113.499 L 46.9574 113.413 L 46.0687 112.897 L 45.8094 112.756 L 45.3858 112.485 L 44.9941 112.185 L 44.6082 111.866 L 44.2635 111.58 L 44.0393 111.398 L 43.6033 110.939 L 42.9689 110.264 L 42.9546 110.238 L 42.8047 109.924 L 42.5313 109.346 L 42.5123 109.305 L 42.5254 109.217 L 42.6572 108.491 L 43.1909 107.938 L 43.2149 107.914 L 43.3041 107.886 L 44.1007 107.674 L 44.3227 107.748" fill="none" stroke="#000000" stroke-width="0.05000" fill-rule="evenodd" fill-opacity="1.000"/>
    </g>
    <g class="thermal-contour" data-segment="1" data-name="CoreContour_Volume">
    <path d="M 32.4951 118.871 L 32.9185 119.366 L 33.1821 119.577 L 33.4909 120.268 L 33.712 120.627 L 33.9338 121.05 L 34.1216 121.569 L 34.4487 122.16 L 34.6138 122.6 L 35.0027 123.48 L 35.0063 123.495 L 35.0273 123.564 L 35.0273 123.564 L 35.3094 124.516 L 35.4885 124.954 L 35.6244 125.497 L 35.8403 126.431 L 35.8403 126.431 L 35.869 126.564 L 35.8855 126.632 L 35.9208 127.453 L 35.1778 127.585 L 34.5143 126.961 L 34.2057 126.426 L 34.0322 126.099 L 33.7352 125.585 L 33.4666 125.195 L 33.3193 125.02 L 32.7508 124.202 L 32.7053 124.156 L 32.1683 123.509 L 31.66 123.016 L 31.4721 122.806 L 31.238 122.579 L 30.8748 122.127 L 30.8445 121.643 L 30.697 121.209 L 30.8178 120.59 L 30.9855 120.316 L 31.2051 120.038 L 31.5793 119.435 L 31.9754 119.189 L 32.2878 118.855 L 32.4951 118.871" fill="none" stroke="#000000" stroke-width="0.05000" fill-rule="evenodd" fill-opacity="1.000"/>
    <path d="M 32.033 119.259 L 31.6446 119.501 L 31.2789 120.09 L 31.0597 120.367 L 30.9029 120.623 L 30.7898 121.203 L 30.9336 121.626 L 30.9628 122.093 L 31.3043 122.518 L 31.5371 122.743 L 31.7256 122.955 L 32.2344 123.448 L 32.7717 124.095 L 32.8204 124.145 L 33.3909 124.965 L 33.5383 125.141 L 33.8113 125.537 L 34.1109 126.055 L 34.2843 126.382 L 34.5855 126.904 L 35.2065 127.489 L 35.8275 127.378 L 35.7959 126.645 L 35.7813 126.584 L 35.7526 126.452 L 35.5371 125.519 L 35.4026 124.982 L 35.2244 124.546 L 34.9412 123.591 L 34.9195 123.519 L 34.9171 123.509 L 34.5304 122.634 L 34.3665 122.197 L 34.0394 121.606 L 33.8513 121.087 L 33.6337 120.672 L 33.4112 120.31 L 33.1088 119.634 L 32.8556 119.431 L 32.451 118.958 L 32.324 118.948 L 32.033 119.259" fill="none" stroke="#000000" stroke-width="0.05000" fill-rule="evenodd" fill-opacity="1.000"/>
    <path d="M 44.2561 107.937 L 44.8036 108.156 L 45.093 108.281 L 45.1761 108.32 L 45.6374 108.875 L 46.0593 109.418 L 46.2365 109.641 L 46.8398 110.382 L 46.8962 110.431 L 46.9629 110.493 L 47.4992 110.964 L 47.8066 111.27 L 48.198 111.522 L 48.6871 111.867 L 48.8757 111.995 L 49.054 112.128 L 49.6367 112.453 L 50.2105 112.856 L 50.4057 112.948 L 50.7514 113.157 L 51.1713 113.391 L 51.3917 113.536 L 52.0024 113.903 L 52.4657 114.29 L 52.716 114.521 L 53.0197 115.032 L 53.1746 115.254 L 53.1571 115.329 L 53.0525 115.382 L 53.0778 115.273 L 52.944 115.081 L 52.6452 114.578 L 52.4061 114.358 L 51.95 113.976 L 51.3438 113.612 L 51.1252 113.469 L 50.7062 113.235 L 50.3627 113.027 L 50.165 112.934 L 49.5884 112.529 L 49.0049 112.204 L 48.8231 112.068 L 48.6359 111.941 L 48.1483 111.597 L 47.7499 111.34 L 47.4373 111.029 L 46.9026 110.56 L 46.835 110.497 L 46.7748 110.444 L 46.1664 109.697 L 45.9886 109.474 L 45.5663 108.93 L 45.1196 108.393 L 45.0556 108.363 L 44.7701 108.24 L 44.226 108.022 L 44.091 107.977 L 43.3837 108.165 L 43.3703 108.169 L 42.9269 108.629 L 42.8121 109.262 L 43.0665 109.799 L 43.0666 109.799 L 43.2074 110.094 L 43.8135 110.739 L 44.2361 111.184 L 44.4476 111.356 L 44.7929 111.643 L 45.1741 111.958 L 45.5517 112.246 L 45.9585 112.507 L 46.2105 112.644 L 47.0876 113.153 L 47.2823 113.234 L 48.3194 113.746 L 48.3583 113.765 L 48.3886 113.783 L 48.4466 113.811 L 49.3908 114.202 L 49.8324 114.367 L 50.4794 114.691 L 50.4794 114.692 L 51.0689 114.99 L 51.3441 115.148 L 52.1 115.54 L 52.3537 115.684 L 52.484 115.747 L 52.3997 115.807 L 52.3119 115.764 L 52.057 115.619 L 51.2998 115.227 L 51.0261 115.069 L 50.3894 114.747 L 50.3894 114.747 L 49.7964 114.449 L 49.3574 114.286 L 48.4096 113.893 L 48.347 113.863 L 48.316 113.845 L 48.2159 113.795 L 48.216 113.795 L 47.2451 113.316 L 47.0476 113.234 L 46.1665 112.722 L 45.9116 112.584 L 45.5002 112.32 L 45.1187 112.029 L 44.7356 111.712 L 44.3905 111.425 L 44.1751 111.251 L 43.7483 110.801 L 43.1321 110.146 L 42.9853 109.838 L 42.7189 109.275 L 42.7222 109.253 L 42.8432 108.586 L 43.3217 108.09 L 43.3593 108.079 L 44.0939 107.883 L 44.2561 107.937" fill="none" stroke="#000000" stroke-width="0.05000" fill-rule="evenodd" fill-opacity="1.000"/>
    </g>
    <g class="thermal-contour" data-segment="2" data-name="CoreContour_Overhang">
    <path d="M 53.037 115.847 L 52.8121 116.006 L 52.3997 115.807 L 52.484 115.747 L 52.8035 115.901 L 52.957 115.793 L 53.0525 115.382 L 53.1571 115.329 L 53.037 115.847" fill="none" stroke="#8B0000" stroke-width="0.05000" fill-rule="evenodd" fill-opacity="1.000"/>
    </g>
    <g class="thermal-contour" data-segment="3" data-name="HollowShell1Contour_Volume">
    <path d="M 32.5931 118.678 L 33.0583 119.222 L 33.3451 119.452 L 33.6681 120.174 L 33.886 120.528 L 34.117 120.969 L 34.3042 121.486 L 34.6306 122.075 L 34.799 122.524 L 35.1928 123.416 L 35.1993 123.443 L 35.2189 123.507 L 35.4984 124.45 L 35.6791 124.892 L 35.8184 125.448 L 36.0355 126.388 L 36.064 126.52 L 36.0837 126.601 L 36.0914 126.847 L 36.1246 127.62 L 35.3132 127.765 L 35.0905 127.758 L 34.7539 127.421 L 34.3592 127.05 L 34.1924 126.761 L 33.8662 126.145 L 33.3468 125.247 L 33.3361 125.227 L 33.3231 125.203 L 32.6695 124.276 L 32.6363 124.228 L 32.6735 124.266 L 33.2399 125.081 L 33.3869 125.256 L 33.6506 125.639 L 33.9447 126.147 L 34.1179 126.474 L 34.4352 127.023 L 35.1459 127.693 L 36.0245 127.536 L 35.985 126.618 L 35.9665 126.542 L 35.9381 126.41 L 35.7214 125.473 L 35.5838 124.923 L 35.4039 124.483 L 35.1232 123.536 L 35.1028 123.469 L 35.0977 123.448 L 34.7064 122.562 L 34.5397 122.117 L 34.2129 121.527 L 34.0254 121.009 L 33.799 120.577 L 33.5795 120.221 L 33.2636 119.515 L 32.9884 119.294 L 32.5441 118.774 L 32.2476 118.752 L 31.9114 119.111 L 31.5066 119.363 L 31.1231 119.98 L 30.9035 120.259 L 30.7232 120.553 L 30.5938 121.216 L 30.7455 121.663 L 30.7755 122.142 L 30.7516 122.113 L 30.7413 121.948 L 30.4922 121.215 L 30.6286 120.516 L 30.8215 120.201 L 31.0411 119.923 L 31.4339 119.29 L 31.8474 119.033 L 32.2073 118.649 L 32.5931 118.678" fill="none" stroke="#0000CC" stroke-width="0.05000" fill-rule="evenodd" fill-opacity="1.000"/>
    <path d="M 44.3227 107.748 L 44.8804 107.972 L 45.1769 108.1 L 45.1974 108.109 L 45.3123 108.253 L 45.7712 108.805 L 46.0486 109.162 L 46.3837 109.583 L 46.7714 110.059 L 47.0201 110.277 L 47.382 110.613 L 47.6273 110.829 L 47.7634 110.964 L 47.8186 111 L 47.9326 111.113 L 48.3108 111.356 L 48.8009 111.703 L 48.992 111.832 L 49.163 111.96 L 49.7428 112.283 L 50.3115 112.682 L 50.5011 112.772 L 50.8518 112.984 L 51.2751 113.22 L 51.4981 113.367 L 52.1192 113.74 L 52.5971 114.14 L 52.8731 114.394 L 53.1879 114.924 L 53.3896 115.213 L 53.3894 115.214 L 53.2732 115.272 L 53.2821 115.234 L 53.1038 114.978 L 52.7944 114.458 L 52.5314 114.215 L 52.0608 113.821 L 51.4449 113.451 L 51.2232 113.306 L 50.8016 113.07 L 50.4534 112.86 L 50.261 112.769 L 49.6894 112.368 L 49.1085 112.044 L 48.9339 111.913 L 48.744 111.785 L 48.2544 111.439 L 47.8696 111.192 L 47.5668 110.89 L 47.0299 110.419 L 46.9631 110.357 L 46.912 110.312 L 46.3144 109.578 L 46.1379 109.356 L 45.7156 108.813 L 45.2388 108.239 L 45.1343 108.19 L 44.842 108.064 L 44.2894 107.842 L 44.0973 107.778 L 43.3317 107.983 L 43.268 108.002 L 43.2615 108.009 L 42.7502 108.539 L 42.6238 109.235 L 42.6156 109.29 L 42.6217 109.303 L 42.895 109.881 L 43.0439 110.193 L 43.0503 110.205 L 43.6758 110.87 L 44.1072 111.324 L 44.327 111.503 L 44.6719 111.789 L 45.0564 112.107 L 45.443 112.402 L 45.86 112.67 L 46.1176 112.809 L 47.0025 113.324 L 47.2037 113.407 L 48.1006 113.85 L 48.1005 113.85 L 48.2689 113.933 L 48.3004 113.951 L 48.369 113.984 L 49.32 114.379 L 49.7564 114.541 L 50.2894 114.809 L 50.2894 114.809 L 50.9786 115.157 L 51.2513 115.314 L 51.1675 115.271 L 51.1612 115.267 L 50.1356 114.749 L 50.1356 114.749 L 49.8929 114.627 L 49.2326 114.382 L 48.5265 114.089 L 48.2567 113.988 L 48.0708 113.933 L 47.2317 113.518 L 46.9028 113.382 L 46.0687 112.897 L 45.8094 112.756 L 45.3858 112.485 L 44.9941 112.185 L 44.6082 111.866 L 44.2635 111.58 L 44.0393 111.398 L 43.6033 110.939 L 42.9689 110.264 L 42.9546 110.238 L 42.8047 109.924 L 42.5313 109.346 L 42.5123 109.305 L 42.5254 109.217 L 42.6572 108.491 L 43.1909 107.938 L 43.2149 107.914 L 43.3041 107.886 L 44.1007 107.674 L 44.3227 107.748" fill="none" stroke="#0000CC" stroke-width="0.05000" fill-rule="evenodd" fill-opacity="1.000"/>
    </g>
    <g class="thermal-contour" data-segment="4" data-name="HollowShell1Contour_Overhang">
    <path d="M 30.7413 121.948 L 30.7516 122.113 L 30.7755 122.142 L 30.777 122.165 L 31.164 122.646 L 31.3999 122.875 L 31.5877 123.086 L 32.0948 123.577 L 32.6311 124.223 L 32.6363 124.228 L 32.6695 124.276 L 33.3231 125.203 L 33.3361 125.227 L 33.3468 125.247 L 33.8662 126.145 L 34.1924 126.761 L 34.3592 127.05 L 34.7539 127.421 L 35.0905 127.758 L 35.3132 127.765 L 35.1261 127.798 L 35.1153 127.801 L 35.1091 127.796 L 34.3561 127.086 L 34.0301 126.522 L 33.8572 126.196 L 33.566 125.692 L 33.3072 125.316 L 33.1605 125.142 L 32.5962 124.33 L 32.5569 124.29 L 32.0213 123.645 L 31.5154 123.155 L 31.3277 122.944 L 31.09 122.714 L 30.6792 122.203 L 30.6465 121.683 L 30.4906 121.224 L 30.4922 121.215 L 30.7413 121.948" fill="none" stroke="#000080" stroke-width="0.05000" fill-rule="evenodd" fill-opacity="1.000"/>
    <path d="M 36.0845 126.604 L 36.1282 127.619 L 36.1246 127.62 L 36.0914 126.847 L 36.0837 126.601 L 36.0845 126.604" fill="none" stroke="#000080" stroke-width="0.05000" fill-rule="evenodd" fill-opacity="1.000"/>
    <path d="M 47.2317 113.518 L 48.0708 113.933 L 48.2567 113.988 L 48.5265 114.089 L 49.2326 114.382 L 49.8929 114.627 L 50.1356 114.749 L 50.1356 114.749 L 51.1612 115.267 L 51.1675 115.271 L 51.2513 115.314 L 51.253 115.315 L 52.0092 115.707 L 52.2659 115.853 L 52.8217 116.121 L 53.1258 115.907 L 53.2732 115.272 L 53.3894 115.214 L 53.2146 115.967 L 52.8312 116.237 L 52.2199 115.942 L 51.9614 115.795 L 51.2052 115.403 L 50.9311 115.245 L 50.1894 114.87 L 50.1894 114.87 L 49.7164 114.633 L 49.2826 114.471 L 48.3283 114.076 L 48.2534 114.039 L 48.2217 114.021 L 48.0563 113.94 L 47.1623 113.498 L 46.9574 113.413 L 46.9473 113.407 L 46.9028 113.382 L 47.2317 113.518" fill="none" stroke="#000080" stroke-width="0.05000" fill-rule="evenodd" fill-opacity="1.000"/>
    <path d="M 45.3015 108.158 L 45.7938 108.75 L 46.2165 109.295 L 46.3923 109.515 L 46.9843 110.242 L 47.0302 110.283 L 47.0969 110.344 L 47.6344 110.816 L 47.8186 111 L 47.7634 110.964 L 47.6273 110.829 L 47.382 110.613 L 47.0201 110.277 L 46.7714 110.059 L 46.3837 109.583 L 46.0486 109.162 L 45.7712 108.805 L 45.3123 108.253 L 45.1974 108.109 L 45.3015 108.158" fill="none" stroke="#000080" stroke-width="0.05000" fill-rule="evenodd" fill-opacity="1.000"/>
    </g>
    <g class="thermal-contour" data-segment="5" data-name="HollowShell2Contour_Volume">
    <path d="M 32.5441 118.774 L 32.9884 119.294 L 33.2636 119.515 L 33.5795 120.221 L 33.799 120.577 L 34.0254 121.009 L 34.2129 121.527 L 34.5397 122.117 L 34.7064 122.562 L 35.0977 123.448 L 35.1028 123.469 L 35.1232 123.536 L 35.4039 124.483 L 35.5838 124.923 L 35.7214 125.473 L 35.9381 126.41 L 35.9665 126.542 L 35.985 126.618 L 36.0245 127.536 L 35.1459 127.693 L 34.4352 127.023 L 34.1179 126.474 L 33.9447 126.147 L 33.6506 125.639 L 33.3869 125.256 L 33.2399 125.081 L 32.6735 124.266 L 32.6363 124.228 L 32.3845 123.862 L 32.1157 123.538 L 31.8937 123.323 L 31.4469 122.822 L 30.8815 122.274 L 30.7755 122.142 L 30.7455 121.663 L 30.5938 121.216 L 30.7232 120.553 L 30.9035 120.259 L 31.1231 119.98 L 31.5066 119.363 L 31.9114 119.111 L 32.2476 118.752 L 32.5441 118.774" fill="none" stroke="#B8860B" stroke-width="0.05000" fill-rule="evenodd" fill-opacity="1.000"/>
    <path d="M 31.9754 119.189 L 31.5793 119.435 L 31.2051 120.038 L 30.9855 120.316 L 30.8178 120.59 L 30.697 121.209 L 30.8445 121.643 L 30.8748 122.127 L 31.238 122.579 L 31.4721 122.806 L 31.66 123.016 L 32.1683 123.509 L 32.7053 124.156 L 32.7508 124.202 L 33.3193 125.02 L 33.4666 125.195 L 33.7352 125.585 L 34.0322 126.099 L 34.2057 126.426 L 34.5143 126.961 L 35.1778 127.585 L 35.9208 127.453 L 35.8855 126.632 L 35.869 126.564 L 35.8403 126.431 L 35.8403 126.431 L 35.6244 125.497 L 35.4885 124.954 L 35.3094 124.516 L 35.0273 123.564 L 35.0273 123.564 L 35.0063 123.495 L 35.0027 123.48 L 34.6138 122.6 L 34.4487 122.16 L 34.1216 121.569 L 33.9338 121.05 L 33.712 120.627 L 33.4909 120.268 L 33.1821 119.577 L 32.9185 119.366 L 32.4951 118.871 L 32.2878 118.855 L 31.9754 119.189" fill="none" stroke="#B8860B" stroke-width="0.05000" fill-rule="evenodd" fill-opacity="1.000"/>
    <path d="M 44.2894 107.842 L 44.842 108.064 L 45.1343 108.19 L 45.2388 108.239 L 45.7156 108.813 L 46.1379 109.356 L 46.3144 109.578 L 46.912 110.312 L 46.9631 110.357 L 47.0299 110.419 L 47.5668 110.89 L 47.8696 111.192 L 48.2544 111.439 L 48.744 111.785 L 48.9339 111.913 L 49.1085 112.044 L 49.6894 112.368 L 50.261 112.769 L 50.4534 112.86 L 50.8016 113.07 L 51.2232 113.306 L 51.4449 113.451 L 52.0608 113.821 L 52.5314 114.215 L 52.7944 114.458 L 53.1038 114.978 L 53.2821 115.234 L 53.2732 115.272 L 53.1571 115.329 L 53.1746 115.254 L 53.0197 115.032 L 52.716 114.521 L 52.4657 114.29 L 52.0024 113.903 L 51.3917 113.536 L 51.1713 113.391 L 50.7514 113.157 L 50.4057 112.948 L 50.2105 112.856 L 49.6367 112.453 L 49.054 112.128 L 48.8757 111.995 L 48.6871 111.867 L 48.198 111.522 L 47.8066 111.27 L 47.4992 110.964 L 46.9629 110.493 L 46.8962 110.431 L 46.8398 110.382 L 46.2365 109.641 L 46.0593 109.418 L 45.6374 108.875 L 45.1761 108.32 L 45.093 108.281 L 44.8036 108.156 L 44.2561 107.937 L 44.0939 107.883 L 43.3593 108.079 L 43.3217 108.09 L 42.8432 108.586 L 42.7222 109.253 L 42.7189 109.275 L 42.9853 109.838 L 43.1321 110.146 L 43.7483 110.801 L 44.1751 111.251 L 44.3905 111.425 L 44.7356 111.712 L 45.1187 112.029 L 45.5002 112.32 L 45.9116 112.584 L 46.1665 112.722 L 47.0476 113.234 L 47.2451 113.316 L 48.216 113.795 L 48.2159 113.795 L 48.316 113.845 L 48.347 113.863 L 48.4096 113.893 L 49.3574 114.286 L 49.7964 114.449 L 50.3894 114.747 L 50.3894 114.747 L 51.0261 115.069 L 51.2998 115.227 L 52.057 115.619 L 52.3119 115.764 L 52.3997 115.807 L 52.3172 115.865 L 52.2153 115.816 L 52.1722 115.791 L 51.2513 115.314 L 50.9786 115.157 L 50.2894 114.809 L 50.2894 114.809 L 49.7564 114.541 L 49.32 114.379 L 48.369 113.984 L 48.3004 113.951 L 48.2689 113.933 L 48.1005 113.85 L 48.1006 113.85 L 47.2037 113.407 L 47.0025 113.324 L 46.1176 112.809 L 45.86 112.67 L 45.443 112.402 L 45.0564 112.107 L 44.6719 111.789 L 44.327 111.503 L 44.1072 111.324 L 43.6758 110.87 L 43.0503 110.205 L 43.0439 110.193 L 42.895 109.881 L 42.6217 109.303 L 42.6156 109.29 L 42.6238 109.235 L 42.7502 108.539 L 43.2615 108.009 L 43.268 108.002 L 43.3317 107.983 L 44.0973 107.778 L 44.2894 107.842" fill="none" stroke="#B8860B" stroke-width="0.05000" fill-rule="evenodd" fill-opacity="1.000"/>
    </g>
    <g class="thermal-contour" data-segment="6" data-name="HollowShell2Contour_Overhang">
    <path d="M 30.8815 122.274 L 31.4469 122.822 L 31.8937 123.323 L 32.1157 123.538 L 32.3845 123.862 L 32.6363 124.228 L 32.6311 124.223 L 32.0948 123.577 L 31.5877 123.086 L 31.3999 122.875 L 31.164 122.646 L 30.777 122.165 L 30.7755 122.142 L 30.8815 122.274" fill="none" stroke="#006400" stroke-width="0.05000" fill-rule="evenodd" fill-opacity="1.000"/>
    <path d="M 53.1258 115.907 L 52.8217 116.121 L 52.2659 115.853 L 52.0092 115.707 L 51.253 115.315 L 51.2513 115.314 L 52.1722 115.791 L 52.2153 115.816 L 52.3172 115.865 L 52.3997 115.807 L 52.8121 116.006 L 53.037 115.847 L 53.1571 115.329 L 53.2732 115.272 L 53.1258 115.907" fill="none" stroke="#006400" stroke-width="0.05000" fill-rule="evenodd" fill-opacity="1.000"/>
    </g>
    <g class="thermal-contour" data-segment="9" data-name="CoreContourHatch">
    <path d="M 32.4642 118.932 L 32.8744 119.411 L 33.1308 119.617 L 33.4349 120.297 L 33.6572 120.658 L 33.8761 121.076 L 34.0641 121.595 L 34.3911 122.186 L 34.5555 122.624 L 34.9427 123.501 L 34.9457 123.512 L 34.9671 123.583 L 35.2499 124.537 L 35.4283 124.974 L 35.5634 125.512 L 35.779 126.446 L 35.8076 126.578 L 35.8228 126.641 L 35.8555 127.401 L 35.1979 127.518 L 34.5641 126.921 L 34.2607 126.396 L 34.0875 126.068 L 33.7879 125.551 L 33.5172 125.158 L 33.3694 124.982 L 32.7995 124.162 L 32.7516 124.113 L 32.2147 123.466 L 31.7061 122.973 L 31.5169 122.761 L 31.2843 122.536 L 30.9364 122.103 L 30.9069 121.631 L 30.7619 121.205 L 30.8773 120.614 L 31.0375 120.352 L 31.257 120.074 L 31.625 119.481 L 32.0157 119.239 L 32.3131 118.92 L 32.4642 118.932" fill="none" stroke="#800080" stroke-width="0.05000" fill-rule="evenodd" fill-opacity="1.000"/>
    <path d="M 32.033 119.259 L 31.6446 119.501 L 31.2789 120.09 L 31.0597 120.367 L 30.9029 120.623 L 30.7898 121.203 L 30.9336 121.626 L 30.9628 122.093 L 31.3043 122.518 L 31.5371 122.743 L 31.7256 122.955 L 32.2344 123.448 L 32.7717 124.095 L 32.8204 124.145 L 33.3909 124.965 L 33.5383 125.141 L 33.8113 125.537 L 34.1109 126.055 L 34.2843 126.382 L 34.5855 126.904 L 35.2065 127.489 L 35.8275 127.378 L 35.7959 126.645 L 35.7813 126.584 L 35.7526 126.452 L 35.5371 125.519 L 35.4026 124.982 L 35.2244 124.546 L 34.9412 123.591 L 34.9195 123.519 L 34.9171 123.509 L 34.5304 122.634 L 34.3665 122.197 L 34.0394 121.606 L 33.8513 121.087 L 33.6337 120.672 L 33.4112 120.31 L 33.1088 119.634 L 32.8556 119.431 L 32.451 118.958 L 32.324 118.948 L 32.033 119.259" fill="none" stroke="#800080" stroke-width="0.05000" fill-rule="evenodd" fill-opacity="1.000"/>
    <path d="M 44.2353 107.996 L 44.7805 108.215 L 45.0667 108.338 L 45.1365 108.371 L 45.5873 108.913 L 46.0097 109.457 L 46.1873 109.68 L 46.7943 110.425 L 46.8531 110.477 L 46.921 110.54 L 47.4558 111.009 L 47.7669 111.319 L 48.1634 111.574 L 48.6515 111.919 L 48.6514 111.919 L 48.8388 112.046 L 49.0196 112.181 L 49.6028 112.506 L 50.1785 112.91 L 50.3755 113.004 L 50.7193 113.211 L 50.7194 113.211 L 51.1392 113.446 L 51.3586 113.59 L 51.3585 113.59 L 51.9657 113.954 L 52.4239 114.338 L 52.6664 114.561 L 52.9662 115.065 L 53.1068 115.267 L 53.0838 115.366 L 53.0525 115.382 L 53.0778 115.273 L 52.944 115.081 L 52.6452 114.578 L 52.4061 114.358 L 51.95 113.976 L 51.3438 113.612 L 51.1252 113.469 L 50.7062 113.235 L 50.3627 113.027 L 50.165 112.934 L 49.5884 112.529 L 49.0049 112.204 L 48.8231 112.068 L 48.6359 111.941 L 48.1483 111.597 L 47.7499 111.34 L 47.4373 111.029 L 46.9026 110.56 L 46.835 110.497 L 46.7748 110.444 L 46.1664 109.697 L 45.9886 109.474 L 45.5663 108.93 L 45.1196 108.393 L 45.0556 108.363 L 44.7701 108.24 L 44.226 108.022 L 44.091 107.977 L 43.3837 108.165 L 43.3703 108.169 L 42.9269 108.629 L 42.8121 109.262 L 43.0665 109.799 L 43.0666 109.799 L 43.2074 110.094 L 43.8135 110.739 L 44.2361 111.184 L 44.4476 111.356 L 44.7929 111.643 L 45.1741 111.958 L 45.5517 112.246 L 45.9585 112.507 L 46.2105 112.644 L 47.0876 113.153 L 47.2823 113.234 L 48.3194 113.746 L 48.3583 113.765 L 48.3886 113.783 L 48.4466 113.811 L 49.3908 114.202 L 49.8324 114.367 L 50.4794 114.691 L 50.4794 114.692 L 51.0689 114.99 L 51.3441 115.148 L 52.1 115.54 L 52.3537 115.684 L 52.484 115.747 L 52.4587 115.765 L 52.3411 115.708 L 52.0866 115.563 L 52.0866 115.563 L 51.3311 115.172 L 51.056 115.013 L 50.4524 114.709 L 50.4524 114.708 L 49.8217 114.392 L 49.3809 114.227 L 48.4355 113.835 L 48.376 113.807 L 48.3463 113.789 L 48.3074 113.77 L 48.3074 113.77 L 47.2713 113.259 L 47.0756 113.178 L 46.1976 112.667 L 45.9448 112.531 L 45.5362 112.269 L 45.1573 111.979 L 44.7757 111.663 L 44.4303 111.376 L 44.4303 111.376 L 44.2177 111.204 L 43.7939 110.758 L 43.1848 110.11 L 43.0495 109.826 L 43.0494 109.826 L 42.784 109.265 L 42.9018 108.616 L 43.3557 108.146 L 43.3763 108.139 L 44.0919 107.948 L 44.2353 107.996" fill="none" stroke="#800080" stroke-width="0.05000" fill-rule="evenodd" fill-opacity="1.000"/>
    </g>
    <g class="thermal-contour" data-segment="20" data-name="CoreContourHatchOverhang">
    <path d="M 52.981 115.81 L 52.8061 115.933 L 52.4587 115.765 L 52.484 115.747 L 52.8035 115.901 L 52.957 115.793 L 53.0525 115.382 L 53.0838 115.366 L 52.981 115.81" fill="none" stroke="#E64A19" stroke-width="0.05000" fill-rule="evenodd" fill-opacity="1.000"/>
    </g>
    <!-- ===== Thermal Segment Colour Legend ===== -->
    <g id="thermal-legend">
    <rect x="161.0000" y="5.0000" width="40.0000" height="72.0000"
          rx="1" ry="1"
          fill="#fafafa" stroke="#cccccc" stroke-width="0.15"/>
    <text x="181.0000" y="7.6000" font-family="sans-serif" font-size="2.2000" font-weight="bold" fill="#222222" text-anchor="middle">Thermal Segments</text>
    <line x1="161.5000" y1="8.7000" x2="200.5000" y2="8.7000" stroke="#bbbbbb" stroke-width="0.1"/>
    <rect x="161.8000" y="9.0000" width="3.5000" height="2.0000" fill="#000000" stroke="#333333" stroke-width="0.08" rx="0.3" ry="0.3"/>
    <text x="168.6000" y="10.9000" font-family="monospace" font-size="1.6000" fill="#444444" text-anchor="end"> 1</text>
    <text x="169.6000" y="10.9000" font-family="sans-serif" font-size="1.6000" fill="#111111">CoreContour_Volume</text>
    <rect x="161.8000" y="12.0000" width="3.5000" height="2.0000" fill="#8B0000" stroke="#333333" stroke-width="0.08" rx="0.3" ry="0.3"/>
    <text x="168.6000" y="13.9000" font-family="monospace" font-size="1.6000" fill="#444444" text-anchor="end"> 2</text>
    <text x="169.6000" y="13.9000" font-family="sans-serif" font-size="1.6000" fill="#111111">CoreContour_Overhang</text>
    <rect x="161.8000" y="15.0000" width="3.5000" height="2.0000" fill="#0000CC" stroke="#333333" stroke-width="0.08" rx="0.3" ry="0.3"/>
    <text x="168.6000" y="16.9000" font-family="monospace" font-size="1.6000" fill="#444444" text-anchor="end"> 3</text>
    <text x="169.6000" y="16.9000" font-family="sans-serif" font-size="1.6000" fill="#111111">Shell1Contour_Volume</text>
    <rect x="161.8000" y="18.0000" width="3.5000" height="2.0000" fill="#000080" stroke="#333333" stroke-width="0.08" rx="0.3" ry="0.3"/>
    <text x="168.6000" y="19.9000" font-family="monospace" font-size="1.6000" fill="#444444" text-anchor="end"> 4</text>
    <text x="169.6000" y="19.9000" font-family="sans-serif" font-size="1.6000" fill="#111111">Shell1Contour_Overhang</text>
    <rect x="161.8000" y="21.0000" width="3.5000" height="2.0000" fill="#B8860B" stroke="#333333" stroke-width="0.08" rx="0.3" ry="0.3"/>
    <text x="168.6000" y="22.9000" font-family="monospace" font-size="1.6000" fill="#444444" text-anchor="end"> 5</text>
    <text x="169.6000" y="22.9000" font-family="sans-serif" font-size="1.6000" fill="#111111">Shell2Contour_Volume</text>
    <rect x="161.8000" y="24.0000" width="3.5000" height="2.0000" fill="#006400" stroke="#333333" stroke-width="0.08" rx="0.3" ry="0.3"/>
    <text x="168.6000" y="25.9000" font-family="monospace" font-size="1.6000" fill="#444444" text-anchor="end"> 6</text>
    <text x="169.6000" y="25.9000" font-family="sans-serif" font-size="1.6000" fill="#111111">Shell2Contour_Overhang</text>
    <rect x="161.8000" y="27.0000" width="3.5000" height="2.0000" fill="#FF8C00" stroke="#333333" stroke-width="0.08" rx="0.3" ry="0.3"/>
    <text x="168.6000" y="28.9000" font-family="monospace" font-size="1.6000" fill="#444444" text-anchor="end"> 7</text>
    <text x="169.6000" y="28.9000" font-family="sans-serif" font-size="1.6000" fill="#111111">CoreOverhangHatch</text>
    <rect x="161.8000" y="30.0000" width="3.5000" height="2.0000" fill="#228B22" stroke="#333333" stroke-width="0.08" rx="0.3" ry="0.3"/>
    <text x="168.6000" y="31.9000" font-family="monospace" font-size="1.6000" fill="#444444" text-anchor="end"> 8</text>
    <text x="169.6000" y="31.9000" font-family="sans-serif" font-size="1.6000" fill="#111111">CoreNormalHatch</text>
    <rect x="161.8000" y="33.0000" width="3.5000" height="2.0000" fill="#800080" stroke="#333333" stroke-width="0.08" rx="0.3" ry="0.3"/>
    <text x="168.6000" y="34.9000" font-family="monospace" font-size="1.6000" fill="#444444" text-anchor="end"> 9</text>
    <text x="169.6000" y="34.9000" font-family="sans-serif" font-size="1.6000" fill="#111111">CoreContourHatch</text>
    <rect x="161.8000" y="36.0000" width="3.5000" height="2.0000" fill="#FF69B4" stroke="#333333" stroke-width="0.08" rx="0.3" ry="0.3"/>
    <text x="168.6000" y="37.9000" font-family="monospace" font-size="1.6000" fill="#444444" text-anchor="end">10</text>
    <text x="169.6000" y="37.9000" font-family="sans-serif" font-size="1.6000" fill="#111111">Shell1OverhangHatch</text>
    <rect x="161.8000" y="39.0000" width="3.5000" height="2.0000" fill="#00CED1" stroke="#333333" stroke-width="0.08" rx="0.3" ry="0.3"/>
    <text x="168.6000" y="40.9000" font-family="monospace" font-size="1.6000" fill="#444444" text-anchor="end">11</text>
    <text x="169.6000" y="40.9000" font-family="sans-serif" font-size="1.6000" fill="#111111">Shell1NormalHatch</text>
    <rect x="161.8000" y="42.0000" width="3.5000" height="2.0000" fill="#FF00FF" stroke="#333333" stroke-width="0.08" rx="0.3" ry="0.3"/>
    <text x="168.6000" y="43.9000" font-family="monospace" font-size="1.6000" fill="#444444" text-anchor="end">12</text>
    <text x="169.6000" y="43.9000" font-family="sans-serif" font-size="1.6000" fill="#111111">Shell1ContourHatch</text>
    <rect x="161.8000" y="45.0000" width="3.5000" height="2.0000" fill="#A52A2A" stroke="#333333" stroke-width="0.08" rx="0.3" ry="0.3"/>
    <text x="168.6000" y="46.9000" font-family="monospace" font-size="1.6000" fill="#444444" text-anchor="end">13</text>
    <text x="169.6000" y="46.9000" font-family="sans-serif" font-size="1.6000" fill="#111111">Shell2OverhangHatch</text>
    <rect x="161.8000" y="48.0000" width="3.5000" height="2.0000" fill="#808080" stroke="#333333" stroke-width="0.08" rx="0.3" ry="0.3"/>
    <text x="168.6000" y="49.9000" font-family="monospace" font-size="1.6000" fill="#444444" text-anchor="end">14</text>
    <text x="169.6000" y="49.9000" font-family="sans-serif" font-size="1.6000" fill="#111111">Shell2NormalHatch</text>
    <rect x="161.8000" y="51.0000" width="3.5000" height="2.0000" fill="#32CD32" stroke="#333333" stroke-width="0.08" rx="0.3" ry="0.3"/>
    <text x="168.6000" y="52.9000" font-family="monospace" font-size="1.6000" fill="#444444" text-anchor="end">15</text>
    <text x="169.6000" y="52.9000" font-family="sans-serif" font-size="1.6000" fill="#111111">Shell2ContourHatch</text>
    <rect x="161.8000" y="54.0000" width="3.5000" height="2.0000" fill="#1A237E" stroke="#333333" stroke-width="0.08" rx="0.3" ry="0.3"/>
    <text x="168.6000" y="55.9000" font-family="monospace" font-size="1.6000" fill="#444444" text-anchor="end">16</text>
    <text x="169.6000" y="55.9000" font-family="sans-serif" font-size="1.6000" fill="#111111">SupportContourVolume</text>
    <rect x="161.8000" y="57.0000" width="3.5000" height="2.0000" fill="#827717" stroke="#333333" stroke-width="0.08" rx="0.3" ry="0.3"/>
    <text x="168.6000" y="58.9000" font-family="monospace" font-size="1.6000" fill="#444444" text-anchor="end">17</text>
    <text x="169.6000" y="58.9000" font-family="sans-serif" font-size="1.6000" fill="#111111">SupportHatch</text>
    <rect x="161.8000" y="60.0000" width="3.5000" height="2.0000" fill="#006064" stroke="#333333" stroke-width="0.08" rx="0.3" ry="0.3"/>
    <text x="168.6000" y="61.9000" font-family="monospace" font-size="1.6000" fill="#444444" text-anchor="end">18</text>
    <text x="169.6000" y="61.9000" font-family="sans-serif" font-size="1.6000" fill="#111111">PointSequence</text>
    <rect x="161.8000" y="63.0000" width="3.5000" height="2.0000" fill="#B71C1C" stroke="#333333" stroke-width="0.08" rx="0.3" ry="0.3"/>
    <text x="168.6000" y="64.9000" font-family="monospace" font-size="1.6000" fill="#444444" text-anchor="end">19</text>
    <text x="169.6000" y="64.9000" font-family="sans-serif" font-size="1.6000" fill="#111111">ExternalSupports</text>
    <rect x="161.8000" y="66.0000" width="3.5000" height="2.0000" fill="#E64A19" stroke="#333333" stroke-width="0.08" rx="0.3" ry="0.3"/>
    <text x="168.6000" y="67.9000" font-family="monospace" font-size="1.6000" fill="#444444" text-anchor="end">20</text>
    <text x="169.6000" y="67.9000" font-family="sans-serif" font-size="1.6000" fill="#111111">CoreContourHatchOverhang</text>
    <rect x="161.8000" y="69.0000" width="3.5000" height="2.0000" fill="#311B92" stroke="#333333" stroke-width="0.08" rx="0.3" ry="0.3"/>
    <text x="168.6000" y="70.9000" font-family="monospace" font-size="1.6000" fill="#444444" text-anchor="end">21</text>
    <text x="169.6000" y="70.9000" font-family="sans-serif" font-size="1.6000" fill="#111111">Shell1ContourHatchOverhang</text>
    <rect x="161.8000" y="72.0000" width="3.5000" height="2.0000" fill="#880E4F" stroke="#333333" stroke-width="0.08" rx="0.3" ry="0.3"/>
    <text x="168.6000" y="73.9000" font-family="monospace" font-size="1.6000" fill="#444444" text-anchor="end">22</text>
    <text x="169.6000" y="73.9000" font-family="sans-serif" font-size="1.6000" fill="#111111">Shell2ContourHatchOverhang</text>
    </g>
  </g>
</svg>
