<?xml version="1.0" encoding="UTF-8" standalone="yes"?>
<svg xmlns="http://www.w3.org/2000/svg"
     xmlns:xlink="http://www.w3.org/1999/xlink"
     width="2020.0000mm" height="1600.0000mm"
     viewBox="0 0 202.000000 160.000000">
  <!--
    Build plate : 150.00 x 150.00 mm
    Coordinate  : 1 SVG unit = 1 mm
    Display zoom: 10x  (width/height = viewBox x 10)
    Hatch stroke: 0.04 mm = ~28 mm on screen at this zoom
    Legend panel: right margin (42 mm wide)
  -->
  <defs>
    <marker id="endArrow" markerWidth="2" markerHeight="1.4"
            refX="0" refY="0.7" orient="auto"
            markerUnits="strokeWidth">
      <polyline fill="darkblue" points="0,0 2,0.7 0,1.4 0.2,0.7"/>
    </marker>
  </defs>
  <!-- Background -->
  <rect x="0" y="0" width="202.000000" height="160.000000" fill="#f0f0f0" stroke="none"/>
  <!-- Build plate boundary (150 x 150 mm) -->
  <rect x="5.000000" y="5.000000" width="150.000000" height="150.000000"
        fill="#ffffff" stroke="#aaaaaa" stroke-width="0.2" stroke-dasharray="1,0.5"/>
  <!-- Build plate centre circle (r = 75.00 mm) -->
  <circle cx="80.000000" cy="80.000000" r="75.000000"
          fill="none" stroke="#bbbbbb" stroke-width="0.15" stroke-dasharray="0.8,0.4"/>
  <!-- Centre cross-hair -->
  <line x1="5.000000" y1="80.000000" x2="155.000000" y2="80.000000" stroke="#cccccc" stroke-width="0.1"/>
  <line x1="80.000000" y1="5.000000" x2="80.000000" y2="155.000000" stroke="#cccccc" stroke-width="0.1"/>
  <circle cx="80.000000" cy="80.000000" r="0.3" fill="#cccccc" stroke="none"/>
  <!-- Corner labels -->
  <text x="5.400000" y="4.600000" font-family="sans-serif" font-size="2" fill="#888888">0,0</text>
  <text x="154.600006" y="4.600000" font-family="sans-serif" font-size="2" fill="#888888" text-anchor="end">150,0</text>
  <text x="5.400000" y="157.199997" font-family="sans-serif" font-size="2" fill="#888888">0,150</text>
  <!-- Layer geometry -->
  <g id="geometry">
    <g class="thermal-hatch" data-segment="8" data-name="CoreNormalHatch">
      <line x1="57.15398" y1="98.50000" x2="59.74128" y2="61.50000" stroke="#228B22" stroke-width="0.04000"/>
      <line x1="57.25423" y1="98.50000" x2="59.84152" y2="61.50000" stroke="#228B22" stroke-width="0.04000"/>
      <line x1="57.35447" y1="98.50000" x2="59.94176" y2="61.50000" stroke="#228B22" stroke-width="0.04000"/>
      <line x1="57.45472" y1="98.50000" x2="60.04201" y2="61.50000" stroke="#228B22" stroke-width="0.04000"/>
      <line x1="57.55496" y1="98.50000" x2="60.14225" y2="61.50000" stroke="#228B22" stroke-width="0.04000"/>
      <line x1="57.65520" y1="98.50000" x2="60.24250" y2="61.50000" stroke="#228B22" stroke-width="0.04000"/>
      <line x1="57.75545" y1="98.50000" x2="60.27712" y2="62.43835" stroke="#228B22" stroke-width="0.04000"/>
      <line x1="57.85569" y1="98.50000" x2="60.27712" y2="63.87193" stroke="#228B22" stroke-width="0.04000"/>
      <line x1="57.95593" y1="98.50000" x2="60.27712" y2="65.30547" stroke="#228B22" stroke-width="0.04000"/>
      <line x1="58.05618" y1="98.50000" x2="60.27712" y2="66.73904" stroke="#228B22" stroke-width="0.04000"/>
      <line x1="58.15642" y1="98.50000" x2="60.27712" y2="68.17261" stroke="#228B22" stroke-width="0.04000"/>
      <line x1="58.25667" y1="98.50000" x2="60.27712" y2="69.60616" stroke="#228B22" stroke-width="0.04000"/>
      <line x1="58.35691" y1="98.50000" x2="60.27712" y2="71.03973" stroke="#228B22" stroke-width="0.04000"/>
      <line x1="58.45716" y1="98.50000" x2="60.27712" y2="72.47327" stroke="#228B22" stroke-width="0.04000"/>
      <line x1="58.55740" y1="98.50000" x2="60.27712" y2="73.90684" stroke="#228B22" stroke-width="0.04000"/>
      <line x1="58.65764" y1="98.50000" x2="60.27712" y2="75.34039" stroke="#228B22" stroke-width="0.04000"/>
      <line x1="58.75789" y1="98.50000" x2="60.27712" y2="76.77397" stroke="#228B22" stroke-width="0.04000"/>
      <line x1="58.85813" y1="98.50000" x2="60.27712" y2="78.20750" stroke="#228B22" stroke-width="0.04000"/>
      <line x1="58.95838" y1="98.50000" x2="60.27712" y2="79.64108" stroke="#228B22" stroke-width="0.04000"/>
      <line x1="59.05862" y1="98.50000" x2="60.27712" y2="81.07462" stroke="#228B22" stroke-width="0.04000"/>
      <line x1="59.15887" y1="98.50000" x2="60.27712" y2="82.50819" stroke="#228B22" stroke-width="0.04000"/>
      <line x1="59.25911" y1="98.50000" x2="60.27712" y2="83.94175" stroke="#228B22" stroke-width="0.04000"/>
      <line x1="59.35935" y1="98.50000" x2="60.27712" y2="85.37531" stroke="#228B22" stroke-width="0.04000"/>
      <line x1="59.45960" y1="98.50000" x2="60.27712" y2="86.80886" stroke="#228B22" stroke-width="0.04000"/>
      <line x1="59.55984" y1="98.50000" x2="60.27712" y2="88.24242" stroke="#228B22" stroke-width="0.04000"/>
      <line x1="59.66009" y1="98.50000" x2="60.27712" y2="89.67597" stroke="#228B22" stroke-width="0.04000"/>
      <line x1="59.76033" y1="98.50000" x2="60.27712" y2="91.10954" stroke="#228B22" stroke-width="0.04000"/>
      <line x1="59.86058" y1="98.50000" x2="60.27712" y2="92.54312" stroke="#228B22" stroke-width="0.04000"/>
      <line x1="59.96082" y1="98.50000" x2="60.27712" y2="93.97665" stroke="#228B22" stroke-width="0.04000"/>
      <line x1="60.06107" y1="98.50000" x2="60.27712" y2="95.41023" stroke="#228B22" stroke-width="0.04000"/>
      <line x1="60.16131" y1="98.50000" x2="60.27712" y2="96.84377" stroke="#228B22" stroke-width="0.04000"/>
      <line x1="60.26155" y1="98.50000" x2="60.27712" y2="98.27734" stroke="#228B22" stroke-width="0.04000"/>
      <line x1="57.11353" y1="97.64488" x2="59.64103" y2="61.50000" stroke="#228B22" stroke-width="0.04000"/>
      <line x1="57.09335" y1="96.50000" x2="59.54079" y2="61.50000" stroke="#228B22" stroke-width="0.04000"/>
      <line x1="56.99310" y1="96.50000" x2="59.44054" y2="61.50000" stroke="#228B22" stroke-width="0.04000"/>
      <line x1="56.89286" y1="96.50000" x2="59.34030" y2="61.50000" stroke="#228B22" stroke-width="0.04000"/>
      <line x1="56.79261" y1="96.50000" x2="59.24005" y2="61.50000" stroke="#228B22" stroke-width="0.04000"/>
      <line x1="56.69237" y1="96.50000" x2="59.13981" y2="61.50000" stroke="#228B22" stroke-width="0.04000"/>
      <line x1="56.59212" y1="96.50000" x2="59.03956" y2="61.50000" stroke="#228B22" stroke-width="0.04000"/>
      <line x1="56.49188" y1="96.50000" x2="58.93932" y2="61.50000" stroke="#228B22" stroke-width="0.04000"/>
      <line x1="56.39164" y1="96.50000" x2="58.83908" y2="61.50000" stroke="#228B22" stroke-width="0.04000"/>
      <line x1="56.29139" y1="96.50000" x2="58.73883" y2="61.50000" stroke="#228B22" stroke-width="0.04000"/>
      <line x1="56.19115" y1="96.50000" x2="58.63859" y2="61.50000" stroke="#228B22" stroke-width="0.04000"/>
      <line x1="56.09090" y1="96.50000" x2="58.53835" y2="61.50000" stroke="#228B22" stroke-width="0.04000"/>
      <line x1="55.99066" y1="96.50000" x2="58.43810" y2="61.50000" stroke="#228B22" stroke-width="0.04000"/>
      <line x1="55.89042" y1="96.50000" x2="58.33785" y2="61.50000" stroke="#228B22" stroke-width="0.04000"/>
      <line x1="55.79017" y1="96.50000" x2="58.23761" y2="61.50000" stroke="#228B22" stroke-width="0.04000"/>
      <line x1="55.68993" y1="96.50000" x2="58.13736" y2="61.50000" stroke="#228B22" stroke-width="0.04000"/>
      <line x1="55.58968" y1="96.50000" x2="58.03712" y2="61.50000" stroke="#228B22" stroke-width="0.04000"/>
      <line x1="55.48944" y1="96.50000" x2="57.93688" y2="61.50000" stroke="#228B22" stroke-width="0.04000"/>
      <line x1="55.38920" y1="96.50000" x2="57.83664" y2="61.50000" stroke="#228B22" stroke-width="0.04000"/>
      <line x1="55.28895" y1="96.50000" x2="57.73639" y2="61.50000" stroke="#228B22" stroke-width="0.04000"/>
      <line x1="55.18871" y1="96.50000" x2="57.63615" y2="61.50000" stroke="#228B22" stroke-width="0.04000"/>
      <line x1="55.08846" y1="96.50000" x2="57.53590" y2="61.50000" stroke="#228B22" stroke-width="0.04000"/>
      <line x1="54.98822" y1="96.50000" x2="57.43566" y2="61.50000" stroke="#228B22" stroke-width="0.04000"/>
      <line x1="54.88798" y1="96.50000" x2="57.33541" y2="61.50000" stroke="#228B22" stroke-width="0.04000"/>
      <line x1="54.78773" y1="96.50000" x2="57.23517" y2="61.50000" stroke="#228B22" stroke-width="0.04000"/>
      <line x1="54.68749" y1="96.50000" x2="57.13493" y2="61.50000" stroke="#228B22" stroke-width="0.04000"/>
      <line x1="54.58724" y1="96.50000" x2="57.03468" y2="61.50000" stroke="#228B22" stroke-width="0.04000"/>
      <line x1="54.48700" y1="96.50000" x2="56.93444" y2="61.50000" stroke="#228B22" stroke-width="0.04000"/>
      <line x1="54.38675" y1="96.50000" x2="56.83419" y2="61.50000" stroke="#228B22" stroke-width="0.04000"/>
      <line x1="54.28651" y1="96.50000" x2="56.73395" y2="61.50000" stroke="#228B22" stroke-width="0.04000"/>
      <line x1="54.18626" y1="96.50000" x2="56.63371" y2="61.50000" stroke="#228B22" stroke-width="0.04000"/>
      <line x1="54.08602" y1="96.50000" x2="56.53346" y2="61.50000" stroke="#228B22" stroke-width="0.04000"/>
      <line x1="53.98578" y1="96.50000" x2="56.43322" y2="61.50000" stroke="#228B22" stroke-width="0.04000"/>
      <line x1="53.88553" y1="96.50000" x2="56.33297" y2="61.50000" stroke="#228B22" stroke-width="0.04000"/>
      <line x1="53.78529" y1="96.50000" x2="56.23273" y2="61.50000" stroke="#228B22" stroke-width="0.04000"/>
      <line x1="53.68504" y1="96.50000" x2="56.13248" y2="61.50000" stroke="#228B22" stroke-width="0.04000"/>
      <line x1="53.58480" y1="96.50000" x2="56.03224" y2="61.50000" stroke="#228B22" stroke-width="0.04000"/>
      <line x1="53.48455" y1="96.50000" x2="55.93199" y2="61.50000" stroke="#228B22" stroke-width="0.04000"/>
      <line x1="53.38431" y1="96.50000" x2="55.83175" y2="61.50000" stroke="#228B22" stroke-width="0.04000"/>
      <line x1="53.28407" y1="96.50000" x2="55.73151" y2="61.50000" stroke="#228B22" stroke-width="0.04000"/>
      <line x1="53.18383" y1="96.50000" x2="55.63126" y2="61.50000" stroke="#228B22" stroke-width="0.04000"/>
      <line x1="53.08358" y1="96.50000" x2="55.53102" y2="61.50000" stroke="#228B22" stroke-width="0.04000"/>
      <line x1="52.98334" y1="96.50000" x2="55.43077" y2="61.50000" stroke="#228B22" stroke-width="0.04000"/>
      <line x1="52.88309" y1="96.50000" x2="55.33053" y2="61.50000" stroke="#228B22" stroke-width="0.04000"/>
      <line x1="52.78284" y1="96.50000" x2="55.23029" y2="61.50000" stroke="#228B22" stroke-width="0.04000"/>
      <line x1="52.68260" y1="96.50000" x2="55.13004" y2="61.50000" stroke="#228B22" stroke-width="0.04000"/>
      <line x1="52.58236" y1="96.50000" x2="55.02980" y2="61.50000" stroke="#228B22" stroke-width="0.04000"/>
      <line x1="52.48212" y1="96.50000" x2="54.92955" y2="61.50000" stroke="#228B22" stroke-width="0.04000"/>
      <line x1="52.38187" y1="96.50000" x2="54.82931" y2="61.50000" stroke="#228B22" stroke-width="0.04000"/>
      <line x1="52.28163" y1="96.50000" x2="54.72906" y2="61.50000" stroke="#228B22" stroke-width="0.04000"/>
      <line x1="52.18138" y1="96.50000" x2="54.62882" y2="61.50000" stroke="#228B22" stroke-width="0.04000"/>
      <line x1="52.08114" y1="96.50000" x2="54.52858" y2="61.50000" stroke="#228B22" stroke-width="0.04000"/>
      <line x1="51.98089" y1="96.50000" x2="54.42833" y2="61.50000" stroke="#228B22" stroke-width="0.04000"/>
      <line x1="51.88065" y1="96.50000" x2="54.32809" y2="61.50000" stroke="#228B22" stroke-width="0.04000"/>
      <line x1="51.78040" y1="96.50000" x2="54.22784" y2="61.50000" stroke="#228B22" stroke-width="0.04000"/>
      <line x1="51.68016" y1="96.50000" x2="54.12760" y2="61.50000" stroke="#228B22" stroke-width="0.04000"/>
      <line x1="51.57992" y1="96.50000" x2="54.02736" y2="61.50000" stroke="#228B22" stroke-width="0.04000"/>
      <line x1="51.47967" y1="96.50000" x2="53.92711" y2="61.50000" stroke="#228B22" stroke-width="0.04000"/>
      <line x1="51.40544" y1="96.12807" x2="53.82687" y2="61.50000" stroke="#228B22" stroke-width="0.04000"/>
      <line x1="51.40544" y1="94.69449" x2="53.72662" y2="61.50000" stroke="#228B22" stroke-width="0.04000"/>
      <line x1="51.40544" y1="93.26095" x2="53.62638" y2="61.50000" stroke="#228B22" stroke-width="0.04000"/>
      <line x1="51.40544" y1="91.82736" x2="53.52613" y2="61.50000" stroke="#228B22" stroke-width="0.04000"/>
      <line x1="51.40544" y1="90.39384" x2="53.42589" y2="61.50000" stroke="#228B22" stroke-width="0.04000"/>
      <line x1="51.40544" y1="88.96025" x2="53.32565" y2="61.50000" stroke="#228B22" stroke-width="0.04000"/>
      <line x1="51.40544" y1="87.52673" x2="53.22540" y2="61.50000" stroke="#228B22" stroke-width="0.04000"/>
      <line x1="51.40544" y1="86.09315" x2="53.12516" y2="61.50000" stroke="#228B22" stroke-width="0.04000"/>
      <line x1="51.40544" y1="84.65961" x2="53.02491" y2="61.50000" stroke="#228B22" stroke-width="0.04000"/>
      <line x1="51.40544" y1="83.22602" x2="52.92467" y2="61.50000" stroke="#228B22" stroke-width="0.04000"/>
      <line x1="51.40544" y1="81.79247" x2="52.82442" y2="61.50000" stroke="#228B22" stroke-width="0.04000"/>
      <line x1="51.40544" y1="80.35892" x2="52.72418" y2="61.50000" stroke="#228B22" stroke-width="0.04000"/>
      <line x1="51.40544" y1="78.92535" x2="52.62394" y2="61.50000" stroke="#228B22" stroke-width="0.04000"/>
      <line x1="51.40544" y1="77.49180" x2="52.52369" y2="61.50000" stroke="#228B22" stroke-width="0.04000"/>
      <line x1="51.40544" y1="76.05821" x2="52.42345" y2="61.50000" stroke="#228B22" stroke-width="0.04000"/>
      <line x1="51.40544" y1="74.62469" x2="52.32320" y2="61.50000" stroke="#228B22" stroke-width="0.04000"/>
      <line x1="51.40544" y1="73.19110" x2="52.22296" y2="61.50000" stroke="#228B22" stroke-width="0.04000"/>
      <line x1="51.40544" y1="71.75758" x2="52.12271" y2="61.50000" stroke="#228B22" stroke-width="0.04000"/>
      <line x1="51.40544" y1="70.32399" x2="52.02247" y2="61.50000" stroke="#228B22" stroke-width="0.04000"/>
      <line x1="51.40544" y1="68.89046" x2="51.92223" y2="61.50000" stroke="#228B22" stroke-width="0.04000"/>
      <line x1="51.40544" y1="67.45688" x2="51.82198" y2="61.50000" stroke="#228B22" stroke-width="0.04000"/>
      <line x1="51.40544" y1="66.02333" x2="51.72174" y2="61.50000" stroke="#228B22" stroke-width="0.04000"/>
      <line x1="51.40544" y1="64.58976" x2="51.62149" y2="61.50000" stroke="#228B22" stroke-width="0.04000"/>
      <line x1="51.40544" y1="63.15622" x2="51.52125" y2="61.50000" stroke="#228B22" stroke-width="0.04000"/>
      <line x1="51.40544" y1="61.72266" x2="51.42101" y2="61.50000" stroke="#228B22" stroke-width="0.04000"/>
    </g>
    <g class="thermal-hatch" data-segment="8" data-name="CoreNormalHatch">
      <line x1="99.75750" y1="98.50000" x2="102.34480" y2="61.50000" stroke="#228B22" stroke-width="0.04000"/>
      <line x1="99.85774" y1="98.50000" x2="102.44504" y2="61.50000" stroke="#228B22" stroke-width="0.04000"/>
      <line x1="99.95799" y1="98.50000" x2="102.54528" y2="61.50000" stroke="#228B22" stroke-width="0.04000"/>
      <line x1="100.05824" y1="98.50000" x2="102.64553" y2="61.50000" stroke="#228B22" stroke-width="0.04000"/>
      <line x1="100.15848" y1="98.50000" x2="102.74577" y2="61.50000" stroke="#228B22" stroke-width="0.04000"/>
      <line x1="100.25872" y1="98.50000" x2="102.84602" y2="61.50000" stroke="#228B22" stroke-width="0.04000"/>
      <line x1="100.35896" y1="98.50000" x2="102.94626" y2="61.50000" stroke="#228B22" stroke-width="0.04000"/>
      <line x1="100.45921" y1="98.50000" x2="103.04650" y2="61.50000" stroke="#228B22" stroke-width="0.04000"/>
      <line x1="100.55946" y1="98.50000" x2="103.14674" y2="61.50000" stroke="#228B22" stroke-width="0.04000"/>
      <line x1="100.65970" y1="98.50000" x2="103.24699" y2="61.50000" stroke="#228B22" stroke-width="0.04000"/>
      <line x1="100.75994" y1="98.50000" x2="103.34724" y2="61.50000" stroke="#228B22" stroke-width="0.04000"/>
      <line x1="100.86018" y1="98.50000" x2="103.44748" y2="61.50000" stroke="#228B22" stroke-width="0.04000"/>
      <line x1="100.96043" y1="98.50000" x2="103.54772" y2="61.50000" stroke="#228B22" stroke-width="0.04000"/>
      <line x1="101.06068" y1="98.50000" x2="103.64796" y2="61.50000" stroke="#228B22" stroke-width="0.04000"/>
      <line x1="101.16092" y1="98.50000" x2="103.74821" y2="61.50000" stroke="#228B22" stroke-width="0.04000"/>
      <line x1="101.26116" y1="98.50000" x2="103.84846" y2="61.50000" stroke="#228B22" stroke-width="0.04000"/>
      <line x1="101.36141" y1="98.50000" x2="103.94870" y2="61.50000" stroke="#228B22" stroke-width="0.04000"/>
      <line x1="101.46165" y1="98.50000" x2="104.04894" y2="61.50000" stroke="#228B22" stroke-width="0.04000"/>
      <line x1="101.56190" y1="98.50000" x2="104.14919" y2="61.50000" stroke="#228B22" stroke-width="0.04000"/>
      <line x1="101.66214" y1="98.50000" x2="104.24944" y2="61.50000" stroke="#228B22" stroke-width="0.04000"/>
      <line x1="101.76239" y1="98.50000" x2="104.34968" y2="61.50000" stroke="#228B22" stroke-width="0.04000"/>
      <line x1="101.86263" y1="98.50000" x2="104.44992" y2="61.50000" stroke="#228B22" stroke-width="0.04000"/>
      <line x1="101.96288" y1="98.50000" x2="104.55016" y2="61.50000" stroke="#228B22" stroke-width="0.04000"/>
      <line x1="102.06312" y1="98.50000" x2="104.65041" y2="61.50000" stroke="#228B22" stroke-width="0.04000"/>
      <line x1="102.16336" y1="98.50000" x2="104.75065" y2="61.50000" stroke="#228B22" stroke-width="0.04000"/>
      <line x1="102.26360" y1="98.50000" x2="104.85090" y2="61.50000" stroke="#228B22" stroke-width="0.04000"/>
      <line x1="102.36385" y1="98.50000" x2="104.95114" y2="61.50000" stroke="#228B22" stroke-width="0.04000"/>
      <line x1="102.46410" y1="98.50000" x2="105.05138" y2="61.50000" stroke="#228B22" stroke-width="0.04000"/>
      <line x1="102.56434" y1="98.50000" x2="105.15163" y2="61.50000" stroke="#228B22" stroke-width="0.04000"/>
      <line x1="102.66458" y1="98.50000" x2="105.25188" y2="61.50000" stroke="#228B22" stroke-width="0.04000"/>
      <line x1="102.76482" y1="98.50000" x2="102.88647" y2="96.76034" stroke="#228B22" stroke-width="0.04000"/>
      <line x1="102.86507" y1="98.50000" x2="102.88647" y2="98.19394" stroke="#228B22" stroke-width="0.04000"/>
      <line x1="99.72288" y1="97.56161" x2="102.24455" y2="61.50000" stroke="#228B22" stroke-width="0.04000"/>
      <line x1="102.90468" y1="96.50000" x2="105.35212" y2="61.50000" stroke="#228B22" stroke-width="0.04000"/>
      <line x1="103.00493" y1="96.50000" x2="105.45236" y2="61.50000" stroke="#228B22" stroke-width="0.04000"/>
      <line x1="103.10517" y1="96.50000" x2="105.55260" y2="61.50000" stroke="#228B22" stroke-width="0.04000"/>
      <line x1="103.20541" y1="96.50000" x2="105.65285" y2="61.50000" stroke="#228B22" stroke-width="0.04000"/>
      <line x1="103.30566" y1="96.50000" x2="105.75310" y2="61.50000" stroke="#228B22" stroke-width="0.04000"/>
      <line x1="103.40590" y1="96.50000" x2="105.85334" y2="61.50000" stroke="#228B22" stroke-width="0.04000"/>
      <line x1="103.50615" y1="96.50000" x2="105.95359" y2="61.50000" stroke="#228B22" stroke-width="0.04000"/>
      <line x1="103.60639" y1="96.50000" x2="106.05383" y2="61.50000" stroke="#228B22" stroke-width="0.04000"/>
      <line x1="103.70663" y1="96.50000" x2="106.15408" y2="61.50000" stroke="#228B22" stroke-width="0.04000"/>
      <line x1="103.80688" y1="96.50000" x2="106.25432" y2="61.50000" stroke="#228B22" stroke-width="0.04000"/>
      <line x1="103.90712" y1="96.50000" x2="106.35456" y2="61.50000" stroke="#228B22" stroke-width="0.04000"/>
      <line x1="104.00736" y1="96.50000" x2="106.45480" y2="61.50000" stroke="#228B22" stroke-width="0.04000"/>
      <line x1="104.10761" y1="96.50000" x2="106.55505" y2="61.50000" stroke="#228B22" stroke-width="0.04000"/>
      <line x1="104.20786" y1="96.50000" x2="106.65529" y2="61.50000" stroke="#228B22" stroke-width="0.04000"/>
      <line x1="104.30810" y1="96.50000" x2="106.75554" y2="61.50000" stroke="#228B22" stroke-width="0.04000"/>
      <line x1="104.40834" y1="96.50000" x2="106.85578" y2="61.50000" stroke="#228B22" stroke-width="0.04000"/>
      <line x1="104.50859" y1="96.50000" x2="106.95602" y2="61.50000" stroke="#228B22" stroke-width="0.04000"/>
      <line x1="104.60883" y1="96.50000" x2="107.05627" y2="61.50000" stroke="#228B22" stroke-width="0.04000"/>
      <line x1="104.70908" y1="96.50000" x2="107.15652" y2="61.50000" stroke="#228B22" stroke-width="0.04000"/>
      <line x1="104.80932" y1="96.50000" x2="107.25676" y2="61.50000" stroke="#228B22" stroke-width="0.04000"/>
      <line x1="104.90957" y1="96.50000" x2="107.35700" y2="61.50000" stroke="#228B22" stroke-width="0.04000"/>
      <line x1="105.00981" y1="96.50000" x2="107.45724" y2="61.50000" stroke="#228B22" stroke-width="0.04000"/>
      <line x1="105.11005" y1="96.50000" x2="107.55749" y2="61.50000" stroke="#228B22" stroke-width="0.04000"/>
      <line x1="105.21030" y1="96.50000" x2="107.65774" y2="61.50000" stroke="#228B22" stroke-width="0.04000"/>
      <line x1="105.31054" y1="96.50000" x2="107.75798" y2="61.50000" stroke="#228B22" stroke-width="0.04000"/>
      <line x1="105.41078" y1="96.50000" x2="107.85822" y2="61.50000" stroke="#228B22" stroke-width="0.04000"/>
      <line x1="105.51102" y1="96.50000" x2="107.95847" y2="61.50000" stroke="#228B22" stroke-width="0.04000"/>
      <line x1="105.61127" y1="96.50000" x2="108.05871" y2="61.50000" stroke="#228B22" stroke-width="0.04000"/>
      <line x1="105.71152" y1="96.50000" x2="108.15896" y2="61.50000" stroke="#228B22" stroke-width="0.04000"/>
      <line x1="105.81176" y1="96.50000" x2="108.25920" y2="61.50000" stroke="#228B22" stroke-width="0.04000"/>
      <line x1="105.91201" y1="96.50000" x2="108.35944" y2="61.50000" stroke="#228B22" stroke-width="0.04000"/>
      <line x1="106.01225" y1="96.50000" x2="108.45969" y2="61.50000" stroke="#228B22" stroke-width="0.04000"/>
      <line x1="106.11250" y1="96.50000" x2="108.55994" y2="61.50000" stroke="#228B22" stroke-width="0.04000"/>
      <line x1="106.21274" y1="96.50000" x2="108.59456" y2="62.43839" stroke="#228B22" stroke-width="0.04000"/>
      <line x1="106.31299" y1="96.50000" x2="108.59456" y2="63.87196" stroke="#228B22" stroke-width="0.04000"/>
      <line x1="106.41322" y1="96.50000" x2="108.59456" y2="65.30548" stroke="#228B22" stroke-width="0.04000"/>
      <line x1="106.51347" y1="96.50000" x2="108.59456" y2="66.73909" stroke="#228B22" stroke-width="0.04000"/>
      <line x1="106.61372" y1="96.50000" x2="108.59456" y2="68.17262" stroke="#228B22" stroke-width="0.04000"/>
      <line x1="106.71396" y1="96.50000" x2="108.59456" y2="69.60619" stroke="#228B22" stroke-width="0.04000"/>
      <line x1="106.81420" y1="96.50000" x2="108.59456" y2="71.03979" stroke="#228B22" stroke-width="0.04000"/>
      <line x1="106.91445" y1="96.50000" x2="108.59456" y2="72.47331" stroke="#228B22" stroke-width="0.04000"/>
      <line x1="107.01469" y1="96.50000" x2="108.59456" y2="73.90684" stroke="#228B22" stroke-width="0.04000"/>
      <line x1="107.11494" y1="96.50000" x2="108.59456" y2="75.34042" stroke="#228B22" stroke-width="0.04000"/>
      <line x1="107.21518" y1="96.50000" x2="108.59456" y2="76.77401" stroke="#228B22" stroke-width="0.04000"/>
      <line x1="107.31542" y1="96.50000" x2="108.59456" y2="78.20753" stroke="#228B22" stroke-width="0.04000"/>
      <line x1="107.41567" y1="96.50000" x2="108.59456" y2="79.64111" stroke="#228B22" stroke-width="0.04000"/>
      <line x1="107.51591" y1="96.50000" x2="108.59456" y2="81.07465" stroke="#228B22" stroke-width="0.04000"/>
      <line x1="107.61616" y1="96.50000" x2="108.59456" y2="82.50822" stroke="#228B22" stroke-width="0.04000"/>
      <line x1="107.71640" y1="96.50000" x2="108.59456" y2="83.94175" stroke="#228B22" stroke-width="0.04000"/>
      <line x1="107.81665" y1="96.50000" x2="108.59456" y2="85.37534" stroke="#228B22" stroke-width="0.04000"/>
      <line x1="107.91689" y1="96.50000" x2="108.59456" y2="86.80892" stroke="#228B22" stroke-width="0.04000"/>
      <line x1="108.01714" y1="96.50000" x2="108.59456" y2="88.24245" stroke="#228B22" stroke-width="0.04000"/>
      <line x1="108.11738" y1="96.50000" x2="108.59456" y2="89.67597" stroke="#228B22" stroke-width="0.04000"/>
      <line x1="108.21762" y1="96.50000" x2="108.59456" y2="91.10957" stroke="#228B22" stroke-width="0.04000"/>
      <line x1="108.31787" y1="96.50000" x2="108.59456" y2="92.54314" stroke="#228B22" stroke-width="0.04000"/>
      <line x1="108.41811" y1="96.50000" x2="108.59456" y2="93.97667" stroke="#228B22" stroke-width="0.04000"/>
      <line x1="108.51836" y1="96.50000" x2="108.59456" y2="95.41027" stroke="#228B22" stroke-width="0.04000"/>
      <line x1="99.72288" y1="96.12805" x2="102.14430" y2="61.50000" stroke="#228B22" stroke-width="0.04000"/>
      <line x1="99.72288" y1="94.69444" x2="102.04406" y2="61.50000" stroke="#228B22" stroke-width="0.04000"/>
      <line x1="99.72288" y1="93.26091" x2="101.94382" y2="61.50000" stroke="#228B22" stroke-width="0.04000"/>
      <line x1="99.72288" y1="91.82735" x2="101.84357" y2="61.50000" stroke="#228B22" stroke-width="0.04000"/>
      <line x1="99.72288" y1="90.39381" x2="101.74332" y2="61.50000" stroke="#228B22" stroke-width="0.04000"/>
      <line x1="99.72288" y1="88.96022" x2="101.64308" y2="61.50000" stroke="#228B22" stroke-width="0.04000"/>
      <line x1="99.72288" y1="87.52669" x2="101.54284" y2="61.50000" stroke="#228B22" stroke-width="0.04000"/>
      <line x1="99.72288" y1="86.09312" x2="101.44260" y2="61.50000" stroke="#228B22" stroke-width="0.04000"/>
      <line x1="99.72288" y1="84.65952" x2="101.34235" y2="61.50000" stroke="#228B22" stroke-width="0.04000"/>
      <line x1="99.72288" y1="83.22600" x2="101.24211" y2="61.50000" stroke="#228B22" stroke-width="0.04000"/>
      <line x1="99.72288" y1="81.79247" x2="101.14187" y2="61.50000" stroke="#228B22" stroke-width="0.04000"/>
      <line x1="99.72288" y1="80.35889" x2="101.04162" y2="61.50000" stroke="#228B22" stroke-width="0.04000"/>
      <line x1="99.72288" y1="78.92530" x2="100.94138" y2="61.50000" stroke="#228B22" stroke-width="0.04000"/>
      <line x1="99.72288" y1="77.49178" x2="100.84113" y2="61.50000" stroke="#228B22" stroke-width="0.04000"/>
      <line x1="99.72288" y1="76.05818" x2="100.74088" y2="61.50000" stroke="#228B22" stroke-width="0.04000"/>
      <line x1="99.72288" y1="74.62466" x2="100.64064" y2="61.50000" stroke="#228B22" stroke-width="0.04000"/>
      <line x1="99.72288" y1="73.19108" x2="100.54040" y2="61.50000" stroke="#228B22" stroke-width="0.04000"/>
      <line x1="99.72288" y1="71.75755" x2="100.44016" y2="61.50000" stroke="#228B22" stroke-width="0.04000"/>
      <line x1="99.72288" y1="70.32395" x2="100.33990" y2="61.50000" stroke="#228B22" stroke-width="0.04000"/>
      <line x1="99.72288" y1="68.89043" x2="100.23967" y2="61.50000" stroke="#228B22" stroke-width="0.04000"/>
      <line x1="99.72288" y1="67.45686" x2="100.13942" y2="61.50000" stroke="#228B22" stroke-width="0.04000"/>
      <line x1="99.72288" y1="66.02333" x2="100.03918" y2="61.50000" stroke="#228B22" stroke-width="0.04000"/>
      <line x1="99.72288" y1="64.58972" x2="99.93893" y2="61.50000" stroke="#228B22" stroke-width="0.04000"/>
      <line x1="99.72288" y1="63.15616" x2="99.83868" y2="61.50000" stroke="#228B22" stroke-width="0.04000"/>
      <line x1="99.72288" y1="61.72264" x2="99.73845" y2="61.50000" stroke="#228B22" stroke-width="0.04000"/>
    </g>
    <g class="thermal-hatch" data-segment="8" data-name="CoreNormalHatch">
      <line x1="59.98710" y1="98.21000" x2="57.40350" y2="98.21000" stroke="#228B22" stroke-width="0.04000"/>
      <line x1="57.40350" y1="98.21000" x2="57.40350" y2="96.21000" stroke="#228B22" stroke-width="0.04000"/>
      <line x1="57.40350" y1="96.21000" x2="51.69540" y2="96.21000" stroke="#228B22" stroke-width="0.04000"/>
      <line x1="51.69540" y1="96.21000" x2="51.69540" y2="61.79000" stroke="#228B22" stroke-width="0.04000"/>
      <line x1="51.69540" y1="61.79000" x2="59.98710" y2="61.79000" stroke="#228B22" stroke-width="0.04000"/>
      <line x1="59.98710" y1="61.79000" x2="59.98710" y2="98.21000" stroke="#228B22" stroke-width="0.04000"/>
      <line x1="108.30460" y1="96.21000" x2="102.59650" y2="96.21000" stroke="#228B22" stroke-width="0.04000"/>
      <line x1="102.59650" y1="96.21000" x2="102.59650" y2="98.21000" stroke="#228B22" stroke-width="0.04000"/>
      <line x1="102.59650" y1="98.21000" x2="100.01290" y2="98.21000" stroke="#228B22" stroke-width="0.04000"/>
      <line x1="100.01290" y1="98.21000" x2="100.01290" y2="61.79000" stroke="#228B22" stroke-width="0.04000"/>
      <line x1="100.01290" y1="61.79000" x2="108.30460" y2="61.79000" stroke="#228B22" stroke-width="0.04000"/>
      <line x1="108.30460" y1="61.79000" x2="108.30460" y2="96.21000" stroke="#228B22" stroke-width="0.04000"/>
    </g>
    <g class="thermal-contour" data-segment="1" data-name="CoreContour_Volume">
    <path d="M 60.2771 98.5 L 57.1135 98.5 L 57.1135 96.5 L 51.4054 96.5 L 51.4054 61.5 L 60.2771 61.5 L 60.2771 98.5" fill="none" stroke="#000000" stroke-width="0.05000" fill-rule="evenodd" fill-opacity="1.000"/>
    </g>
    <g class="thermal-contour" data-segment="1" data-name="CoreContour_Volume">
    <path d="M 108.595 96.5 L 102.886 96.5 L 102.886 98.5 L 99.7229 98.5 L 99.7229 61.5 L 108.595 61.5 L 108.595 96.5" fill="none" stroke="#000000" stroke-width="0.05000" fill-rule="evenodd" fill-opacity="1.000"/>
    </g>
    <g class="thermal-contour" data-segment="1" data-name="CoreContour_Volume">
    <path d="M 60.0009 98.3 L 57.3135 98.3 L 57.3135 96.3 L 51.6054 96.3 L 51.6054 61.7 L 60.0009 61.7 L 60.0009 98.3" fill="none" stroke="#000000" stroke-width="0.05000" fill-rule="evenodd" fill-opacity="1.000"/>
    <path d="M 108.395 96.3 L 102.687 96.3 L 102.687 98.3 L 99.9991 98.3 L 99.9991 61.7 L 108.395 61.7 L 108.395 96.3" fill="none" stroke="#000000" stroke-width="0.05000" fill-rule="evenodd" fill-opacity="1.000"/>
    <path d="M 51.6954 96.21 L 57.4035 96.21 L 57.4035 98.21 L 59.9871 98.21 L 59.9871 61.79 L 51.6954 61.79 L 51.6954 96.21" fill="none" stroke="#000000" stroke-width="0.05000" fill-rule="evenodd" fill-opacity="1.000"/>
    <path d="M 100.013 98.21 L 102.596 98.21 L 102.596 96.21 L 108.305 96.21 L 108.305 61.79 L 100.013 61.79 L 100.013 98.21" fill="none" stroke="#000000" stroke-width="0.05000" fill-rule="evenodd" fill-opacity="1.000"/>
    </g>
    <g class="thermal-contour" data-segment="2" data-name="CoreContour_Overhang">
    <path d="M 99.9991 98.3 L 99.9229 98.3 L 99.9229 61.7 L 99.9991 61.7 L 99.9991 98.3" fill="none" stroke="#8B0000" stroke-width="0.05000" fill-rule="evenodd" fill-opacity="1.000"/>
    <path d="M 60.0771 98.3 L 60.0009 98.3 L 60.0009 61.7 L 60.0771 61.7 L 60.0771 98.3" fill="none" stroke="#8B0000" stroke-width="0.05000" fill-rule="evenodd" fill-opacity="1.000"/>
    </g>
    <g class="thermal-contour" data-segment="9" data-name="CoreContourHatch">
    <path d="M 60.0009 98.237 L 57.3765 98.237 L 57.3765 96.237 L 51.6684 96.237 L 51.6684 61.763 L 60.0009 61.763 L 60.0009 98.237" fill="none" stroke="#800080" stroke-width="0.05000" fill-rule="evenodd" fill-opacity="1.000"/>
    <path d="M 108.332 96.237 L 102.623 96.237 L 102.623 98.237 L 99.9991 98.237 L 99.9991 61.763 L 108.332 61.763 L 108.332 96.237" fill="none" stroke="#800080" stroke-width="0.05000" fill-rule="evenodd" fill-opacity="1.000"/>
    <path d="M 51.6954 96.21 L 57.4035 96.21 L 57.4035 98.21 L 59.9871 98.21 L 59.9871 61.79 L 51.6954 61.79 L 51.6954 96.21" fill="none" stroke="#800080" stroke-width="0.05000" fill-rule="evenodd" fill-opacity="1.000"/>
    <path d="M 100.013 98.21 L 102.596 98.21 L 102.596 96.21 L 108.305 96.21 L 108.305 61.79 L 100.013 61.79 L 100.013 98.21" fill="none" stroke="#800080" stroke-width="0.05000" fill-rule="evenodd" fill-opacity="1.000"/>
    </g>
    <g class="thermal-contour" data-segment="20" data-name="CoreContourHatchOverhang">
    <path d="M 99.9991 98.237 L 99.9859 98.237 L 99.9859 61.763 L 99.9991 61.763 L 99.9991 98.237" fill="none" stroke="#E64A19" stroke-width="0.05000" fill-rule="evenodd" fill-opacity="1.000"/>
    <path d="M 60.0141 98.237 L 60.0009 98.237 L 60.0009 61.763 L 60.0141 61.763 L 60.0141 98.237" fill="none" stroke="#E64A19" stroke-width="0.05000" fill-rule="evenodd" fill-opacity="1.000"/>
    </g>
    <g class="thermal-contour" data-segment="3" data-name="HollowShell1Contour_Volume">
    <path d="M 60.0009 61.6 L 51.5054 61.6 L 51.5054 96.4 L 57.2135 96.4 L 57.2135 98.4 L 60.0009 98.4 L 60.0009 98.5 L 57.1135 98.5 L 57.1135 96.5 L 56.8922 96.5 L 51.4054 96.5 L 51.4054 61.5 L 60.0009 61.5 L 60.0009 61.6" fill="none" stroke="#0000CC" stroke-width="0.05000" fill-rule="evenodd" fill-opacity="1.000"/>
    <path d="M 108.595 96.5 L 102.886 96.5 L 102.886 98.5 L 99.9991 98.5 L 99.9991 98.4 L 102.786 98.4 L 102.786 96.4 L 108.495 96.4 L 108.495 61.6 L 99.9991 61.6 L 99.9991 61.5 L 108.595 61.5 L 108.595 96.5" fill="none" stroke="#0000CC" stroke-width="0.05000" fill-rule="evenodd" fill-opacity="1.000"/>
    </g>
    <g class="thermal-contour" data-segment="4" data-name="HollowShell1Contour_Overhang">
    <path d="M 99.9991 61.6 L 99.8229 61.6 L 99.8229 98.4 L 99.9991 98.4 L 99.9991 98.5 L 99.7229 98.5 L 99.7229 61.5 L 99.9991 61.5 L 99.9991 61.6" fill="none" stroke="#000080" stroke-width="0.05000" fill-rule="evenodd" fill-opacity="1.000"/>
    <path d="M 60.2771 98.5 L 60.0009 98.5 L 60.0009 98.4 L 60.1771 98.4 L 60.1771 61.6 L 60.0009 61.6 L 60.0009 61.5 L 60.2771 61.5 L 60.2771 98.5" fill="none" stroke="#000080" stroke-width="0.05000" fill-rule="evenodd" fill-opacity="1.000"/>
    </g>
    <g class="thermal-contour" data-segment="5" data-name="HollowShell2Contour_Volume">
    <path d="M 60.0009 61.7 L 51.6054 61.7 L 51.6054 96.3 L 57.3135 96.3 L 57.3135 98.3 L 60.0009 98.3 L 60.0009 98.4 L 57.2135 98.4 L 57.2135 96.4 L 51.5054 96.4 L 51.5054 61.6 L 60.0009 61.6 L 60.0009 61.7" fill="none" stroke="#B8860B" stroke-width="0.05000" fill-rule="evenodd" fill-opacity="1.000"/>
    <path d="M 108.495 96.4 L 102.786 96.4 L 102.786 98.4 L 99.9991 98.4 L 99.9991 98.3 L 102.687 98.3 L 102.687 96.3 L 108.395 96.3 L 108.395 61.7 L 99.9991 61.7 L 99.9991 61.6 L 108.495 61.6 L 108.495 96.4" fill="none" stroke="#B8860B" stroke-width="0.05000" fill-rule="evenodd" fill-opacity="1.000"/>
    </g>
    <g class="thermal-contour" data-segment="6" data-name="HollowShell2Contour_Overhang">
    <path d="M 99.9991 61.7 L 99.9229 61.7 L 99.9229 98.3 L 99.9991 98.3 L 99.9991 98.4 L 99.8229 98.4 L 99.8229 61.6 L 99.9991 61.6 L 99.9991 61.7" fill="none" stroke="#006400" stroke-width="0.05000" fill-rule="evenodd" fill-opacity="1.000"/>
    <path d="M 60.1771 98.4 L 60.0009 98.4 L 60.0009 98.3 L 60.0771 98.3 L 60.0771 61.7 L 60.0009 61.7 L 60.0009 61.6 L 60.1771 61.6 L 60.1771 98.4" fill="none" stroke="#006400" stroke-width="0.05000" fill-rule="evenodd" fill-opacity="1.000"/>
    </g>
    <!-- ===== Thermal Segment Colour Legend ===== -->
    <g id="thermal-legend">
    <rect x="161.0000" y="5.0000" width="40.0000" height="72.0000"
          rx="1" ry="1"
          fill="#fafafa" stroke="#cccccc" stroke-width="0.15"/>
    <text x="181.0000" y="7.6000" font-family="sans-serif" font-size="2.2000" font-weight="bold" fill="#222222" text-anchor="middle">Thermal Segments</text>
    <line x1="161.5000" y1="8.7000" x2="200.5000" y2="8.7000" stroke="#bbbbbb" stroke-width="0.1"/>
    <rect x="161.8000" y="9.0000" width="3.5000" height="2.0000" fill="#000000" stroke="#333333" stroke-width="0.08" rx="0.3" ry="0.3"/>
    <text x="168.6000" y="10.9000" font-family="monospace" font-size="1.6000" fill="#444444" text-anchor="end"> 1</text>
    <text x="169.6000" y="10.9000" font-family="sans-serif" font-size="1.6000" fill="#111111">CoreContour_Volume</text>
    <rect x="161.8000" y="12.0000" width="3.5000" height="2.0000" fill="#8B0000" stroke="#333333" stroke-width="0.08" rx="0.3" ry="0.3"/>
    <text x="168.6000" y="13.9000" font-family="monospace" font-size="1.6000" fill="#444444" text-anchor="end"> 2</text>
    <text x="169.6000" y="13.9000" font-family="sans-serif" font-size="1.6000" fill="#111111">CoreContour_Overhang</text>
    <rect x="161.8000" y="15.0000" width="3.5000" height="2.0000" fill="#0000CC" stroke="#333333" stroke-width="0.08" rx="0.3" ry="0.3"/>
    <text x="168.6000" y="16.9000" font-family="monospace" font-size="1.6000" fill="#444444" text-anchor="end"> 3</text>
    <text x="169.6000" y="16.9000" font-family="sans-serif" font-size="1.6000" fill="#111111">Shell1Contour_Volume</text>
    <rect x="161.8000" y="18.0000" width="3.5000" height="2.0000" fill="#000080" stroke="#333333" stroke-width="0.08" rx="0.3" ry="0.3"/>
    <text x="168.6000" y="19.9000" font-family="monospace" font-size="1.6000" fill="#444444" text-anchor="end"> 4</text>
    <text x="169.6000" y="19.9000" font-family="sans-serif" font-size="1.6000" fill="#111111">Shell1Contour_Overhang</text>
    <rect x="161.8000" y="21.0000" width="3.5000" height="2.0000" fill="#B8860B" stroke="#333333" stroke-width="0.08" rx="0.3" ry="0.3"/>
    <text x="168.6000" y="22.9000" font-family="monospace" font-size="1.6000" fill="#444444" text-anchor="end"> 5</text>
    <text x="169.6000" y="22.9000" font-family="sans-serif" font-size="1.6000" fill="#111111">Shell2Contour_Volume</text>
    <rect x="161.8000" y="24.0000" width="3.5000" height="2.0000" fill="#006400" stroke="#333333" stroke-width="0.08" rx="0.3" ry="0.3"/>
    <text x="168.6000" y="25.9000" font-family="monospace" font-size="1.6000" fill="#444444" text-anchor="end"> 6</text>
    <text x="169.6000" y="25.9000" font-family="sans-serif" font-size="1.6000" fill="#111111">Shell2Contour_Overhang</text>
    <rect x="161.8000" y="27.0000" width="3.5000" height="2.0000" fill="#FF8C00" stroke="#333333" stroke-width="0.08" rx="0.3" ry="0.3"/>
    <text x="168.6000" y="28.9000" font-family="monospace" font-size="1.6000" fill="#444444" text-anchor="end"> 7</text>
    <text x="169.6000" y="28.9000" font-family="sans-serif" font-size="1.6000" fill="#111111">CoreOverhangHatch</text>
    <rect x="161.8000" y="30.0000" width="3.5000" height="2.0000" fill="#228B22" stroke="#333333" stroke-width="0.08" rx="0.3" ry="0.3"/>
    <text x="168.6000" y="31.9000" font-family="monospace" font-size="1.6000" fill="#444444" text-anchor="end"> 8</text>
    <text x="169.6000" y="31.9000" font-family="sans-serif" font-size="1.6000" fill="#111111">CoreNormalHatch</text>
    <rect x="161.8000" y="33.0000" width="3.5000" height="2.0000" fill="#800080" stroke="#333333" stroke-width="0.08" rx="0.3" ry="0.3"/>
    <text x="168.6000" y="34.9000" font-family="monospace" font-size="1.6000" fill="#444444" text-anchor="end"> 9</text>
    <text x="169.6000" y="34.9000" font-family="sans-serif" font-size="1.6000" fill="#111111">CoreContourHatch</text>
    <rect x="161.8000" y="36.0000" width="3.5000" height="2.0000" fill="#FF69B4" stroke="#333333" stroke-width="0.08" rx="0.3" ry="0.3"/>
    <text x="168.6000" y="37.9000" font-family="monospace" font-size="1.6000" fill="#444444" text-anchor="end">10</text>
    <text x="169.6000" y="37.9000" font-family="sans-serif" font-size="1.6000" fill="#111111">Shell1OverhangHatch</text>
    <rect x="161.8000" y="39.0000" width="3.5000" height="2.0000" fill="#00CED1" stroke="#333333" stroke-width="0.08" rx="0.3" ry="0.3"/>
    <text x="168.6000" y="40.9000" font-family="monospace" font-size="1.6000" fill="#444444" text-anchor="end">11</text>
    <text x="169.6000" y="40.9000" font-family="sans-serif" font-size="1.6000" fill="#111111">Shell1NormalHatch</text>
    <rect x="161.8000" y="42.0000" width="3.5000" height="2.0000" fill="#FF00FF" stroke="#333333" stroke-width="0.08" rx="0.3" ry="0.3"/>
    <text x="168.6000" y="43.9000" font-family="monospace" font-size="1.6000" fill="#444444" text-anchor="end">12</text>
    <text x="169.6000" y="43.9000" font-family="sans-serif" font-size="1.6000" fill="#111111">Shell1ContourHatch</text>
    <rect x="161.8000" y="45.0000" width="3.5000" height="2.0000" fill="#A52A2A" stroke="#333333" stroke-width="0.08" rx="0.3" ry="0.3"/>
    <text x="168.6000" y="46.9000" font-family="monospace" font-size="1.6000" fill="#444444" text-anchor="end">13</text>
    <text x="169.6000" y="46.9000" font-family="sans-serif" font-size="1.6000" fill="#111111">Shell2OverhangHatch</text>
    <rect x="161.8000" y="48.0000" width="3.5000" height="2.0000" fill="#808080" stroke="#333333" stroke-width="0.08" rx="0.3" ry="0.3"/>
    <text x="168.6000" y="49.9000" font-family="monospace" font-size="1.6000" fill="#444444" text-anchor="end">14</text>
    <text x="169.6000" y="49.9000" font-family="sans-serif" font-size="1.6000" fill="#111111">Shell2NormalHatch</text>
    <rect x="161.8000" y="51.0000" width="3.5000" height="2.0000" fill="#32CD32" stroke="#333333" stroke-width="0.08" rx="0.3" ry="0.3"/>
    <text x="168.6000" y="52.9000" font-family="monospace" font-size="1.6000" fill="#444444" text-anchor="end">15</text>
    <text x="169.6000" y="52.9000" font-family="sans-serif" font-size="1.6000" fill="#111111">Shell2ContourHatch</text>
    <rect x="161.8000" y="54.0000" width="3.5000" height="2.0000" fill="#1A237E" stroke="#333333" stroke-width="0.08" rx="0.3" ry="0.3"/>
    <text x="168.6000" y="55.9000" font-family="monospace" font-size="1.6000" fill="#444444" text-anchor="end">16</text>
    <text x="169.6000" y="55.9000" font-family="sans-serif" font-size="1.6000" fill="#111111">SupportContourVolume</text>
    <rect x="161.8000" y="57.0000" width="3.5000" height="2.0000" fill="#827717" stroke="#333333" stroke-width="0.08" rx="0.3" ry="0.3"/>
    <text x="168.6000" y="58.9000" font-family="monospace" font-size="1.6000" fill="#444444" text-anchor="end">17</text>
    <text x="169.6000" y="58.9000" font-family="sans-serif" font-size="1.6000" fill="#111111">SupportHatch</text>
    <rect x="161.8000" y="60.0000" width="3.5000" height="2.0000" fill="#006064" stroke="#333333" stroke-width="0.08" rx="0.3" ry="0.3"/>
    <text x="168.6000" y="61.9000" font-family="monospace" font-size="1.6000" fill="#444444" text-anchor="end">18</text>
    <text x="169.6000" y="61.9000" font-family="sans-serif" font-size="1.6000" fill="#111111">PointSequence</text>
    <rect x="161.8000" y="63.0000" width="3.5000" height="2.0000" fill="#B71C1C" stroke="#333333" stroke-width="0.08" rx="0.3" ry="0.3"/>
    <text x="168.6000" y="64.9000" font-family="monospace" font-size="1.6000" fill="#444444" text-anchor="end">19</text>
    <text x="169.6000" y="64.9000" font-family="sans-serif" font-size="1.6000" fill="#111111">ExternalSupports</text>
    <rect x="161.8000" y="66.0000" width="3.5000" height="2.0000" fill="#E64A19" stroke="#333333" stroke-width="0.08" rx="0.3" ry="0.3"/>
    <text x="168.6000" y="67.9000" font-family="monospace" font-size="1.6000" fill="#444444" text-anchor="end">20</text>
    <text x="169.6000" y="67.9000" font-family="sans-serif" font-size="1.6000" fill="#111111">CoreContourHatchOverhang</text>
    <rect x="161.8000" y="69.0000" width="3.5000" height="2.0000" fill="#311B92" stroke="#333333" stroke-width="0.08" rx="0.3" ry="0.3"/>
    <text x="168.6000" y="70.9000" font-family="monospace" font-size="1.6000" fill="#444444" text-anchor="end">21</text>
    <text x="169.6000" y="70.9000" font-family="sans-serif" font-size="1.6000" fill="#111111">Shell1ContourHatchOverhang</text>
    <rect x="161.8000" y="72.0000" width="3.5000" height="2.0000" fill="#880E4F" stroke="#333333" stroke-width="0.08" rx="0.3" ry="0.3"/>
    <text x="168.6000" y="73.9000" font-family="monospace" font-size="1.6000" fill="#444444" text-anchor="end">22</text>
    <text x="169.6000" y="73.9000" font-family="sans-serif" font-size="1.6000" fill="#111111">Shell2ContourHatchOverhang</text>
    </g>
  </g>
</svg>
