<?xml version="1.0" encoding="UTF-8" standalone="yes"?>
<svg xmlns="http://www.w3.org/2000/svg"
     xmlns:xlink="http://www.w3.org/1999/xlink"
     width="2020.0000mm" height="1600.0000mm"
     viewBox="0 0 202.000000 160.000000">
  <!--
    Build plate : 150.00 x 150.00 mm
    Coordinate  : 1 SVG unit = 1 mm
    Display zoom: 10x  (width/height = viewBox x 10)
    Hatch stroke: 0.04 mm = ~28 mm on screen at this zoom
    Legend panel: right margin (42 mm wide)
  -->
  <defs>
    <marker id="endArrow" markerWidth="2" markerHeight="1.4"
            refX="0" refY="0.7" orient="auto"
            markerUnits="strokeWidth">
      <polyline fill="darkblue" points="0,0 2,0.7 0,1.4 0.2,0.7"/>
    </marker>
  </defs>
  <!-- Background -->
  <rect x="0" y="0" width="202.000000" height="160.000000" fill="#f0f0f0" stroke="none"/>
  <!-- Build plate boundary (150 x 150 mm) -->
  <rect x="5.000000" y="5.000000" width="150.000000" height="150.000000"
        fill="#ffffff" stroke="#aaaaaa" stroke-width="0.2" stroke-dasharray="1,0.5"/>
  <!-- Build plate centre circle (r = 75.00 mm) -->
  <circle cx="80.000000" cy="80.000000" r="75.000000"
          fill="none" stroke="#bbbbbb" stroke-width="0.15" stroke-dasharray="0.8,0.4"/>
  <!-- Centre cross-hair -->
  <line x1="5.000000" y1="80.000000" x2="155.000000" y2="80.000000" stroke="#cccccc" stroke-width="0.1"/>
  <line x1="80.000000" y1="5.000000" x2="80.000000" y2="155.000000" stroke="#cccccc" stroke-width="0.1"/>
  <circle cx="80.000000" cy="80.000000" r="0.3" fill="#cccccc" stroke="none"/>
  <!-- Corner labels -->
  <text x="5.400000" y="4.600000" font-family="sans-serif" font-size="2" fill="#888888">0,0</text>
  <text x="154.600006" y="4.600000" font-family="sans-serif" font-size="2" fill="#888888" text-anchor="end">150,0</text>
  <text x="5.400000" y="157.199997" font-family="sans-serif" font-size="2" fill="#888888">0,150</text>
  <!-- Layer geometry -->
  <g id="geometry">
    <g class="thermal-hatch" data-segment="8" data-name="CoreNormalHatch">
      <line x1="34.77164" y1="125.78160" x2="31.71673" y2="110.06547" stroke="#228B22" stroke-width="0.04000"/>
      <line x1="34.66480" y1="125.75607" x2="31.64075" y2="110.19868" stroke="#228B22" stroke-width="0.04000"/>
      <line x1="34.55797" y1="125.73053" x2="31.56478" y2="110.33189" stroke="#228B22" stroke-width="0.04000"/>
      <line x1="34.45113" y1="125.70499" x2="31.48880" y2="110.46511" stroke="#228B22" stroke-width="0.04000"/>
      <line x1="34.34430" y1="125.67946" x2="31.41344" y2="110.60149" stroke="#228B22" stroke-width="0.04000"/>
      <line x1="34.85239" y1="125.67291" x2="31.79271" y2="109.93225" stroke="#228B22" stroke-width="0.04000"/>
      <line x1="34.23746" y1="125.65392" x2="31.33817" y2="110.73837" stroke="#228B22" stroke-width="0.04000"/>
      <line x1="34.13063" y1="125.62839" x2="31.26481" y2="110.88503" stroke="#228B22" stroke-width="0.04000"/>
      <line x1="34.02379" y1="125.60285" x2="31.20757" y2="111.11464" stroke="#228B22" stroke-width="0.04000"/>
      <line x1="33.91696" y1="125.57732" x2="31.15033" y2="111.34425" stroke="#228B22" stroke-width="0.04000"/>
      <line x1="34.92262" y1="125.51012" x2="31.86713" y2="109.79104" stroke="#228B22" stroke-width="0.04000"/>
      <line x1="34.99284" y1="125.34732" x2="31.93800" y2="109.63152" stroke="#228B22" stroke-width="0.04000"/>
      <line x1="35.06307" y1="125.18452" x2="32.02665" y2="109.56351" stroke="#228B22" stroke-width="0.04000"/>
      <line x1="33.72804" y1="125.12952" x2="31.09309" y2="111.57387" stroke="#228B22" stroke-width="0.04000"/>
      <line x1="35.13329" y1="125.02173" x2="32.11703" y2="109.50440" stroke="#228B22" stroke-width="0.04000"/>
      <line x1="35.20242" y1="124.85326" x2="32.20741" y2="109.44529" stroke="#228B22" stroke-width="0.04000"/>
      <line x1="35.26288" y1="124.64021" x2="32.29779" y2="109.38618" stroke="#228B22" stroke-width="0.04000"/>
      <line x1="33.50974" y1="124.53051" x2="31.03240" y2="111.78574" stroke="#228B22" stroke-width="0.04000"/>
      <line x1="35.29765" y1="124.29498" x2="32.38818" y2="109.32707" stroke="#228B22" stroke-width="0.04000"/>
      <line x1="35.33241" y1="123.94975" x2="32.47856" y2="109.26797" stroke="#228B22" stroke-width="0.04000"/>
      <line x1="33.25974" y1="123.76845" x2="30.96910" y2="111.98413" stroke="#228B22" stroke-width="0.04000"/>
      <line x1="35.36991" y1="123.61861" x2="32.56894" y2="109.20885" stroke="#228B22" stroke-width="0.04000"/>
      <line x1="35.40689" y1="123.28474" x2="32.65695" y2="109.13756" stroke="#228B22" stroke-width="0.04000"/>
      <line x1="35.44257" y1="122.94419" x2="32.74454" y2="109.06408" stroke="#228B22" stroke-width="0.04000"/>
      <line x1="35.48073" y1="122.61646" x2="32.83213" y2="108.99060" stroke="#228B22" stroke-width="0.04000"/>
      <line x1="35.51685" y1="122.27821" x2="32.94801" y2="109.06264" stroke="#228B22" stroke-width="0.04000"/>
      <line x1="35.55275" y1="121.93881" x2="33.07649" y2="109.19955" stroke="#228B22" stroke-width="0.04000"/>
      <line x1="32.79377" y1="121.89533" x2="30.91101" y2="112.20941" stroke="#228B22" stroke-width="0.04000"/>
      <line x1="35.59156" y1="121.61436" x2="33.19627" y2="109.29169" stroke="#228B22" stroke-width="0.04000"/>
      <line x1="35.64446" y1="121.36244" x2="33.31342" y2="109.37026" stroke="#228B22" stroke-width="0.04000"/>
      <line x1="35.68181" y1="121.03053" x2="33.43056" y2="109.44883" stroke="#228B22" stroke-width="0.04000"/>
      <line x1="35.71696" y1="120.68723" x2="33.54771" y2="109.52740" stroke="#228B22" stroke-width="0.04000"/>
      <line x1="35.75873" y1="120.37804" x2="33.66485" y2="109.60597" stroke="#228B22" stroke-width="0.04000"/>
      <line x1="35.80215" y1="120.07732" x2="33.78461" y2="109.69798" stroke="#228B22" stroke-width="0.04000"/>
      <line x1="35.84557" y1="119.77662" x2="33.94095" y2="109.97821" stroke="#228B22" stroke-width="0.04000"/>
      <line x1="35.88417" y1="119.45113" x2="34.09151" y2="110.22871" stroke="#228B22" stroke-width="0.04000"/>
      <line x1="35.91447" y1="119.08293" x2="34.24125" y2="110.47496" stroke="#228B22" stroke-width="0.04000"/>
      <line x1="35.94477" y1="118.71472" x2="34.39099" y2="110.72121" stroke="#228B22" stroke-width="0.04000"/>
      <line x1="35.97346" y1="118.33825" x2="34.55393" y2="111.03541" stroke="#228B22" stroke-width="0.04000"/>
      <line x1="36.00015" y1="117.95148" x2="34.73844" y2="111.46051" stroke="#228B22" stroke-width="0.04000"/>
      <line x1="36.01746" y1="117.51640" x2="34.92294" y2="111.88562" stroke="#228B22" stroke-width="0.04000"/>
      <line x1="35.99783" y1="116.89133" x2="35.12983" y2="112.42587" stroke="#228B22" stroke-width="0.04000"/>
      <line x1="31.69532" y1="116.76840" x2="30.86427" y2="112.49303" stroke="#228B22" stroke-width="0.04000"/>
      <line x1="31.52810" y1="116.43221" x2="30.82097" y2="112.79435" stroke="#228B22" stroke-width="0.04000"/>
      <line x1="35.97351" y1="116.24216" x2="35.34592" y2="113.01347" stroke="#228B22" stroke-width="0.04000"/>
      <line x1="31.36088" y1="116.09605" x2="30.77969" y2="113.10606" stroke="#228B22" stroke-width="0.04000"/>
      <line x1="31.20452" y1="115.81570" x2="30.73602" y2="113.40548" stroke="#228B22" stroke-width="0.04000"/>
      <line x1="35.94700" y1="115.58170" x2="35.79887" y2="114.81964" stroke="#228B22" stroke-width="0.04000"/>
      <line x1="31.04527" y1="115.52052" x2="30.70582" y2="113.77420" stroke="#228B22" stroke-width="0.04000"/>
      <line x1="30.85487" y1="115.06506" x2="30.68108" y2="114.17098" stroke="#228B22" stroke-width="0.04000"/>
      <line x1="35.68590" y1="114.23843" x2="35.57498" y2="113.66782" stroke="#228B22" stroke-width="0.04000"/>
    </g>
    <g class="thermal-hatch" data-segment="8" data-name="CoreNormalHatch">
      <line x1="46.10732" y1="111.62080" x2="45.12849" y2="106.58514" stroke="#228B22" stroke-width="0.04000"/>
      <line x1="46.00483" y1="111.61758" x2="45.02403" y2="106.57185" stroke="#228B22" stroke-width="0.04000"/>
      <line x1="46.20765" y1="111.61288" x2="45.23821" y2="106.62555" stroke="#228B22" stroke-width="0.04000"/>
      <line x1="45.90148" y1="111.61000" x2="44.91958" y2="106.55856" stroke="#228B22" stroke-width="0.04000"/>
      <line x1="46.30798" y1="111.60495" x2="45.35498" y2="106.70217" stroke="#228B22" stroke-width="0.04000"/>
      <line x1="45.79805" y1="111.60200" x2="44.81512" y2="106.54528" stroke="#228B22" stroke-width="0.04000"/>
      <line x1="46.40831" y1="111.59702" x2="45.47067" y2="106.77326" stroke="#228B22" stroke-width="0.04000"/>
      <line x1="45.69463" y1="111.59399" x2="44.71067" y2="106.53200" stroke="#228B22" stroke-width="0.04000"/>
      <line x1="46.50864" y1="111.58909" x2="45.58655" y2="106.84531" stroke="#228B22" stroke-width="0.04000"/>
      <line x1="45.59120" y1="111.58599" x2="44.60622" y2="106.51871" stroke="#228B22" stroke-width="0.04000"/>
      <line x1="46.60898" y1="111.58116" x2="45.70264" y2="106.91846" stroke="#228B22" stroke-width="0.04000"/>
      <line x1="45.48777" y1="111.57799" x2="44.50177" y2="106.50543" stroke="#228B22" stroke-width="0.04000"/>
      <line x1="46.70930" y1="111.57323" x2="45.81873" y2="106.99162" stroke="#228B22" stroke-width="0.04000"/>
      <line x1="45.38434" y1="111.56998" x2="44.39601" y2="106.48546" stroke="#228B22" stroke-width="0.04000"/>
      <line x1="46.80964" y1="111.56530" x2="45.93482" y2="107.06477" stroke="#228B22" stroke-width="0.04000"/>
      <line x1="45.28091" y1="111.56198" x2="44.29020" y2="106.46521" stroke="#228B22" stroke-width="0.04000"/>
      <line x1="46.90984" y1="111.55671" x2="46.05091" y2="107.13792" stroke="#228B22" stroke-width="0.04000"/>
      <line x1="45.17749" y1="111.55398" x2="44.18440" y2="106.44497" stroke="#228B22" stroke-width="0.04000"/>
      <line x1="47.01000" y1="111.54792" x2="46.16700" y2="107.21107" stroke="#228B22" stroke-width="0.04000"/>
      <line x1="45.07335" y1="111.54229" x2="44.07859" y2="106.42473" stroke="#228B22" stroke-width="0.04000"/>
      <line x1="47.11016" y1="111.53914" x2="46.27746" y2="107.25523" stroke="#228B22" stroke-width="0.04000"/>
      <line x1="44.96915" y1="111.53035" x2="43.97279" y2="106.40449" stroke="#228B22" stroke-width="0.04000"/>
      <line x1="47.21033" y1="111.53035" x2="46.38737" y2="107.29660" stroke="#228B22" stroke-width="0.04000"/>
      <line x1="47.31049" y1="111.52156" x2="46.49728" y2="107.33797" stroke="#228B22" stroke-width="0.04000"/>
      <line x1="44.86496" y1="111.51842" x2="43.86806" y2="106.38982" stroke="#228B22" stroke-width="0.04000"/>
      <line x1="47.41066" y1="111.51277" x2="46.60720" y2="107.37934" stroke="#228B22" stroke-width="0.04000"/>
      <line x1="44.76077" y1="111.50648" x2="43.76365" y2="106.37675" stroke="#228B22" stroke-width="0.04000"/>
      <line x1="47.51108" y1="111.50534" x2="46.71711" y2="107.42071" stroke="#228B22" stroke-width="0.04000"/>
      <line x1="47.61158" y1="111.49825" x2="46.82702" y2="107.46207" stroke="#228B22" stroke-width="0.04000"/>
      <line x1="44.65657" y1="111.49454" x2="43.65924" y2="106.36368" stroke="#228B22" stroke-width="0.04000"/>
      <line x1="44.55183" y1="111.47974" x2="43.55483" y2="106.35061" stroke="#228B22" stroke-width="0.04000"/>
      <line x1="47.70925" y1="111.47664" x2="46.94837" y2="107.56225" stroke="#228B22" stroke-width="0.04000"/>
      <line x1="44.44516" y1="111.45507" x2="43.44934" y2="106.33205" stroke="#228B22" stroke-width="0.04000"/>
      <line x1="47.80642" y1="111.45244" x2="47.06276" y2="107.62667" stroke="#228B22" stroke-width="0.04000"/>
      <line x1="44.33849" y1="111.43037" x2="43.34356" y2="106.31188" stroke="#228B22" stroke-width="0.04000"/>
      <line x1="47.90358" y1="111.42823" x2="47.17057" y2="107.65723" stroke="#228B22" stroke-width="0.04000"/>
      <line x1="48.00075" y1="111.40403" x2="47.27833" y2="107.68752" stroke="#228B22" stroke-width="0.04000"/>
      <line x1="44.23101" y1="111.40156" x2="43.23750" y2="106.29036" stroke="#228B22" stroke-width="0.04000"/>
      <line x1="48.09792" y1="111.37983" x2="47.38915" y2="107.73356" stroke="#228B22" stroke-width="0.04000"/>
      <line x1="44.12355" y1="111.37276" x2="43.12456" y2="106.23340" stroke="#228B22" stroke-width="0.04000"/>
      <line x1="48.19508" y1="111.35562" x2="47.50756" y2="107.81864" stroke="#228B22" stroke-width="0.04000"/>
      <line x1="44.01608" y1="111.34395" x2="43.01161" y2="106.17643" stroke="#228B22" stroke-width="0.04000"/>
      <line x1="48.29119" y1="111.32594" x2="47.62597" y2="107.90372" stroke="#228B22" stroke-width="0.04000"/>
      <line x1="43.90886" y1="111.31647" x2="42.89867" y2="106.11947" stroke="#228B22" stroke-width="0.04000"/>
      <line x1="48.38720" y1="111.29582" x2="47.74438" y2="107.98880" stroke="#228B22" stroke-width="0.04000"/>
      <line x1="43.80168" y1="111.28914" x2="42.78572" y2="106.06251" stroke="#228B22" stroke-width="0.04000"/>
      <line x1="43.69449" y1="111.26180" x2="42.67278" y2="106.00554" stroke="#228B22" stroke-width="0.04000"/>
      <line x1="48.48199" y1="111.25939" x2="47.86279" y2="108.07388" stroke="#228B22" stroke-width="0.04000"/>
      <line x1="43.58731" y1="111.23446" x2="42.55536" y2="105.92553" stroke="#228B22" stroke-width="0.04000"/>
      <line x1="48.57452" y1="111.21132" x2="47.98215" y2="108.16383" stroke="#228B22" stroke-width="0.04000"/>
      <line x1="43.48012" y1="111.20712" x2="42.43710" y2="105.84126" stroke="#228B22" stroke-width="0.04000"/>
      <line x1="43.37160" y1="111.17294" x2="42.31885" y2="105.75698" stroke="#228B22" stroke-width="0.04000"/>
      <line x1="48.66833" y1="111.16988" x2="48.10219" y2="108.25732" stroke="#228B22" stroke-width="0.04000"/>
      <line x1="43.26258" y1="111.13614" x2="42.20069" y2="105.67319" stroke="#228B22" stroke-width="0.04000"/>
      <line x1="48.76215" y1="111.12846" x2="48.22224" y2="108.35082" stroke="#228B22" stroke-width="0.04000"/>
      <line x1="43.15355" y1="111.09934" x2="42.08703" y2="105.61256" stroke="#228B22" stroke-width="0.04000"/>
      <line x1="48.85597" y1="111.08702" x2="48.34314" y2="108.44869" stroke="#228B22" stroke-width="0.04000"/>
      <line x1="43.04453" y1="111.06254" x2="41.97338" y2="105.55193" stroke="#228B22" stroke-width="0.04000"/>
      <line x1="48.94979" y1="111.04559" x2="48.46450" y2="108.54902" stroke="#228B22" stroke-width="0.04000"/>
      <line x1="42.93550" y1="111.02573" x2="41.85969" y2="105.49117" stroke="#228B22" stroke-width="0.04000"/>
      <line x1="49.04361" y1="111.00416" x2="48.58588" y2="108.64935" stroke="#228B22" stroke-width="0.04000"/>
      <line x1="42.82648" y1="110.98893" x2="41.74241" y2="105.41189" stroke="#228B22" stroke-width="0.04000"/>
      <line x1="49.13743" y1="110.96273" x2="48.70808" y2="108.75394" stroke="#228B22" stroke-width="0.04000"/>
      <line x1="42.71489" y1="110.93896" x2="41.62513" y2="105.33261" stroke="#228B22" stroke-width="0.04000"/>
      <line x1="49.23125" y1="110.92130" x2="48.83107" y2="108.86260" stroke="#228B22" stroke-width="0.04000"/>
      <line x1="42.60286" y1="110.88672" x2="41.50785" y2="105.25333" stroke="#228B22" stroke-width="0.04000"/>
      <line x1="49.31844" y1="110.84576" x2="48.95407" y2="108.97125" stroke="#228B22" stroke-width="0.04000"/>
      <line x1="42.49079" y1="110.83421" x2="41.39056" y2="105.17405" stroke="#228B22" stroke-width="0.04000"/>
      <line x1="42.37829" y1="110.77953" x2="41.27328" y2="105.09477" stroke="#228B22" stroke-width="0.04000"/>
      <line x1="49.40554" y1="110.76983" x2="49.07706" y2="109.07991" stroke="#228B22" stroke-width="0.04000"/>
      <line x1="42.26577" y1="110.72477" x2="41.15600" y2="105.01550" stroke="#228B22" stroke-width="0.04000"/>
      <line x1="49.49266" y1="110.69389" x2="49.20360" y2="109.20683" stroke="#228B22" stroke-width="0.04000"/>
      <line x1="42.15308" y1="110.66910" x2="41.03878" y2="104.93653" stroke="#228B22" stroke-width="0.04000"/>
      <line x1="49.57977" y1="110.61796" x2="49.33674" y2="109.36768" stroke="#228B22" stroke-width="0.04000"/>
      <line x1="42.04039" y1="110.61344" x2="40.92424" y2="104.87137" stroke="#228B22" stroke-width="0.04000"/>
      <line x1="41.92770" y1="110.55777" x2="40.81535" y2="104.83522" stroke="#228B22" stroke-width="0.04000"/>
      <line x1="49.66681" y1="110.54164" x2="49.49354" y2="109.65025" stroke="#228B22" stroke-width="0.04000"/>
      <line x1="41.81500" y1="110.50211" x2="40.70644" y2="104.79907" stroke="#228B22" stroke-width="0.04000"/>
      <line x1="49.75335" y1="110.46275" x2="49.65540" y2="109.95887" stroke="#228B22" stroke-width="0.04000"/>
      <line x1="41.70231" y1="110.44644" x2="40.59755" y2="104.76292" stroke="#228B22" stroke-width="0.04000"/>
      <line x1="49.83988" y1="110.38386" x2="49.81886" y2="110.27571" stroke="#228B22" stroke-width="0.04000"/>
      <line x1="41.58787" y1="110.38179" x2="40.48865" y2="104.72678" stroke="#228B22" stroke-width="0.04000"/>
      <line x1="41.47285" y1="110.31416" x2="40.37975" y2="104.69063" stroke="#228B22" stroke-width="0.04000"/>
      <line x1="41.35784" y1="110.24654" x2="40.27085" y2="104.65448" stroke="#228B22" stroke-width="0.04000"/>
      <line x1="41.24282" y1="110.17892" x2="40.16196" y2="104.61833" stroke="#228B22" stroke-width="0.04000"/>
      <line x1="41.12843" y1="110.11452" x2="40.05306" y2="104.58218" stroke="#228B22" stroke-width="0.04000"/>
      <line x1="41.01642" y1="110.06236" x2="39.94416" y2="104.54604" stroke="#228B22" stroke-width="0.04000"/>
      <line x1="40.90441" y1="110.01019" x2="39.83503" y2="104.50870" stroke="#228B22" stroke-width="0.04000"/>
      <line x1="40.79240" y1="109.95802" x2="39.73373" y2="104.51166" stroke="#228B22" stroke-width="0.04000"/>
      <line x1="40.67978" y1="109.90275" x2="39.63406" y2="104.52299" stroke="#228B22" stroke-width="0.04000"/>
      <line x1="40.55983" y1="109.80972" x2="39.53439" y2="104.53431" stroke="#228B22" stroke-width="0.04000"/>
      <line x1="40.43988" y1="109.71670" x2="39.43472" y2="104.54563" stroke="#228B22" stroke-width="0.04000"/>
      <line x1="40.31992" y1="109.62367" x2="39.33505" y2="104.55696" stroke="#228B22" stroke-width="0.04000"/>
      <line x1="40.20042" y1="109.53295" x2="39.23538" y2="104.56828" stroke="#228B22" stroke-width="0.04000"/>
      <line x1="40.08231" y1="109.44942" x2="39.13571" y2="104.57961" stroke="#228B22" stroke-width="0.04000"/>
      <line x1="39.96420" y1="109.36589" x2="39.03604" y2="104.59093" stroke="#228B22" stroke-width="0.04000"/>
      <line x1="39.84609" y1="109.28236" x2="38.93637" y2="104.60226" stroke="#228B22" stroke-width="0.04000"/>
      <line x1="39.72670" y1="109.19224" x2="38.83670" y2="104.61358" stroke="#228B22" stroke-width="0.04000"/>
      <line x1="39.60186" y1="109.07405" x2="38.73858" y2="104.63290" stroke="#228B22" stroke-width="0.04000"/>
      <line x1="39.47701" y1="108.95587" x2="38.64125" y2="104.65622" stroke="#228B22" stroke-width="0.04000"/>
      <line x1="39.35217" y1="108.83768" x2="38.54872" y2="104.70428" stroke="#228B22" stroke-width="0.04000"/>
      <line x1="39.22933" y1="108.72984" x2="38.46025" y2="104.77328" stroke="#228B22" stroke-width="0.04000"/>
      <line x1="39.10843" y1="108.63191" x2="38.37180" y2="104.84228" stroke="#228B22" stroke-width="0.04000"/>
      <line x1="38.98752" y1="108.53399" x2="38.28334" y2="104.91128" stroke="#228B22" stroke-width="0.04000"/>
      <line x1="38.86292" y1="108.41708" x2="38.19488" y2="104.98028" stroke="#228B22" stroke-width="0.04000"/>
      <line x1="38.73599" y1="108.28815" x2="38.10642" y2="105.04928" stroke="#228B22" stroke-width="0.04000"/>
      <line x1="38.60905" y1="108.15922" x2="38.01784" y2="105.11766" stroke="#228B22" stroke-width="0.04000"/>
      <line x1="38.48212" y1="108.03029" x2="37.92846" y2="105.18192" stroke="#228B22" stroke-width="0.04000"/>
      <line x1="38.35810" y1="107.91631" x2="37.83908" y2="105.24618" stroke="#228B22" stroke-width="0.04000"/>
      <line x1="38.21774" y1="107.71828" x2="37.76105" y2="105.36887" stroke="#228B22" stroke-width="0.04000"/>
      <line x1="38.07660" y1="107.51631" x2="37.69529" y2="105.55463" stroke="#228B22" stroke-width="0.04000"/>
      <line x1="37.93547" y1="107.31435" x2="37.63004" y2="105.74304" stroke="#228B22" stroke-width="0.04000"/>
      <line x1="37.79868" y1="107.13467" x2="37.56479" y2="105.93145" stroke="#228B22" stroke-width="0.04000"/>
    </g>
    <g class="thermal-hatch" data-segment="8" data-name="CoreNormalHatch">
      <line x1="32.91760" y1="109.45390" x2="33.55470" y2="109.88110" stroke="#228B22" stroke-width="0.04000"/>
      <line x1="33.55470" y1="109.88110" x2="33.70990" y2="110.15940" stroke="#228B22" stroke-width="0.04000"/>
      <line x1="33.70990" y1="110.15940" x2="34.22560" y2="111.00740" stroke="#228B22" stroke-width="0.04000"/>
      <line x1="34.22560" y1="111.00740" x2="34.24290" y2="111.04360" stroke="#228B22" stroke-width="0.04000"/>
      <line x1="34.24290" y1="111.04360" x2="34.26070" y2="111.08820" stroke="#228B22" stroke-width="0.04000"/>
      <line x1="34.26070" y1="111.08820" x2="34.70500" y2="112.11210" stroke="#228B22" stroke-width="0.04000"/>
      <line x1="34.70500" y1="112.11210" x2="34.95990" y2="112.80330" stroke="#228B22" stroke-width="0.04000"/>
      <line x1="34.95990" y1="112.80330" x2="34.96020" y2="112.80330" stroke="#228B22" stroke-width="0.04000"/>
      <line x1="34.96020" y1="112.80330" x2="35.05130" y2="113.04950" stroke="#228B22" stroke-width="0.04000"/>
      <line x1="35.05130" y1="113.04950" x2="35.05130" y2="113.04960" stroke="#228B22" stroke-width="0.04000"/>
      <line x1="35.05130" y1="113.04960" x2="35.28530" y2="113.71830" stroke="#228B22" stroke-width="0.04000"/>
      <line x1="35.28530" y1="113.71830" x2="35.31650" y2="113.80700" stroke="#228B22" stroke-width="0.04000"/>
      <line x1="35.31650" y1="113.80700" x2="35.44860" y2="114.56720" stroke="#228B22" stroke-width="0.04000"/>
      <line x1="35.44860" y1="114.56720" x2="35.62990" y2="115.41850" stroke="#228B22" stroke-width="0.04000"/>
      <line x1="35.62990" y1="115.41850" x2="35.64290" y2="115.49150" stroke="#228B22" stroke-width="0.04000"/>
      <line x1="35.64290" y1="115.49150" x2="35.65580" y2="115.55890" stroke="#228B22" stroke-width="0.04000"/>
      <line x1="35.65580" y1="115.55890" x2="35.69300" y2="116.48380" stroke="#228B22" stroke-width="0.04000"/>
      <line x1="35.69300" y1="116.48380" x2="35.72720" y2="117.43150" stroke="#228B22" stroke-width="0.04000"/>
      <line x1="35.72720" y1="117.43150" x2="35.72750" y2="117.55360" stroke="#228B22" stroke-width="0.04000"/>
      <line x1="35.72750" y1="117.55360" x2="35.73240" y2="117.61500" stroke="#228B22" stroke-width="0.04000"/>
      <line x1="35.73240" y1="117.61500" x2="35.67250" y2="118.48660" stroke="#228B22" stroke-width="0.04000"/>
      <line x1="35.67250" y1="118.48660" x2="35.58510" y2="119.54960" stroke="#228B22" stroke-width="0.04000"/>
      <line x1="35.58510" y1="119.54960" x2="35.58500" y2="119.55030" stroke="#228B22" stroke-width="0.04000"/>
      <line x1="35.58500" y1="119.55030" x2="35.58470" y2="119.55280" stroke="#228B22" stroke-width="0.04000"/>
      <line x1="35.58470" y1="119.55280" x2="35.43610" y2="120.58340" stroke="#228B22" stroke-width="0.04000"/>
      <line x1="35.43610" y1="120.58340" x2="35.36400" y2="121.28590" stroke="#228B22" stroke-width="0.04000"/>
      <line x1="35.36400" y1="121.28590" x2="35.29570" y2="121.61220" stroke="#228B22" stroke-width="0.04000"/>
      <line x1="35.29570" y1="121.61220" x2="35.19490" y2="122.56600" stroke="#228B22" stroke-width="0.04000"/>
      <line x1="35.19490" y1="122.56600" x2="35.17610" y2="122.70370" stroke="#228B22" stroke-width="0.04000"/>
      <line x1="35.17610" y1="122.70370" x2="35.10430" y2="123.38940" stroke="#228B22" stroke-width="0.04000"/>
      <line x1="35.10430" y1="123.38940" x2="35.04790" y2="123.88140" stroke="#228B22" stroke-width="0.04000"/>
      <line x1="35.04790" y1="123.88140" x2="34.97010" y2="124.65130" stroke="#228B22" stroke-width="0.04000"/>
      <line x1="34.97010" y1="124.65130" x2="34.89700" y2="124.83720" stroke="#228B22" stroke-width="0.04000"/>
      <line x1="34.89700" y1="124.83720" x2="34.63260" y2="125.45000" stroke="#228B22" stroke-width="0.04000"/>
      <line x1="34.63260" y1="125.45000" x2="34.10560" y2="125.32420" stroke="#228B22" stroke-width="0.04000"/>
      <line x1="34.10560" y1="125.32420" x2="33.84710" y2="124.60130" stroke="#228B22" stroke-width="0.04000"/>
      <line x1="33.84710" y1="124.60130" x2="33.68800" y2="124.18420" stroke="#228B22" stroke-width="0.04000"/>
      <line x1="33.68800" y1="124.18420" x2="33.53170" y2="123.66590" stroke="#228B22" stroke-width="0.04000"/>
      <line x1="33.53170" y1="123.66590" x2="33.30310" y2="122.80280" stroke="#228B22" stroke-width="0.04000"/>
      <line x1="33.30310" y1="122.80280" x2="33.29010" y2="122.75680" stroke="#228B22" stroke-width="0.04000"/>
      <line x1="33.29010" y1="122.75680" x2="33.28600" y2="122.73690" stroke="#228B22" stroke-width="0.04000"/>
      <line x1="33.28600" y1="122.73690" x2="33.04780" y2="121.70700" stroke="#228B22" stroke-width="0.04000"/>
      <line x1="33.04780" y1="121.70700" x2="33.03510" y2="121.64660" stroke="#228B22" stroke-width="0.04000"/>
      <line x1="33.03510" y1="121.64660" x2="33.03500" y2="121.64660" stroke="#228B22" stroke-width="0.04000"/>
      <line x1="33.03500" y1="121.64660" x2="32.88350" y2="120.91540" stroke="#228B22" stroke-width="0.04000"/>
      <line x1="32.88350" y1="120.91540" x2="32.83530" y2="120.69410" stroke="#228B22" stroke-width="0.04000"/>
      <line x1="32.83530" y1="120.69410" x2="32.83080" y2="120.67430" stroke="#228B22" stroke-width="0.04000"/>
      <line x1="32.83080" y1="120.67430" x2="32.63620" y2="119.61300" stroke="#228B22" stroke-width="0.04000"/>
      <line x1="32.63620" y1="119.61300" x2="32.60110" y2="119.42420" stroke="#228B22" stroke-width="0.04000"/>
      <line x1="32.60110" y1="119.42420" x2="32.46290" y2="118.69520" stroke="#228B22" stroke-width="0.04000"/>
      <line x1="32.46290" y1="118.69520" x2="32.34690" y2="118.12660" stroke="#228B22" stroke-width="0.04000"/>
      <line x1="32.34690" y1="118.12660" x2="32.34680" y2="118.12660" stroke="#228B22" stroke-width="0.04000"/>
      <line x1="32.34680" y1="118.12660" x2="32.27240" y2="117.73040" stroke="#228B22" stroke-width="0.04000"/>
      <line x1="32.27240" y1="117.73040" x2="32.04970" y2="116.88450" stroke="#228B22" stroke-width="0.04000"/>
      <line x1="32.04970" y1="116.88450" x2="32.04330" y2="116.85500" stroke="#228B22" stroke-width="0.04000"/>
      <line x1="32.04330" y1="116.85500" x2="32.01500" y2="116.75990" stroke="#228B22" stroke-width="0.04000"/>
      <line x1="32.01500" y1="116.75990" x2="31.61760" y2="115.96080" stroke="#228B22" stroke-width="0.04000"/>
      <line x1="31.61760" y1="115.96080" x2="31.39170" y2="115.55590" stroke="#228B22" stroke-width="0.04000"/>
      <line x1="31.39170" y1="115.55590" x2="31.39160" y2="115.55590" stroke="#228B22" stroke-width="0.04000"/>
      <line x1="31.39160" y1="115.55590" x2="31.20080" y2="115.19370" stroke="#228B22" stroke-width="0.04000"/>
      <line x1="31.20080" y1="115.19370" x2="30.96090" y2="114.44780" stroke="#228B22" stroke-width="0.04000"/>
      <line x1="30.96090" y1="114.44780" x2="30.95430" y2="114.39510" stroke="#228B22" stroke-width="0.04000"/>
      <line x1="30.95430" y1="114.39510" x2="30.95890" y2="114.37490" stroke="#228B22" stroke-width="0.04000"/>
      <line x1="30.95890" y1="114.37490" x2="31.01210" y2="113.51930" stroke="#228B22" stroke-width="0.04000"/>
      <line x1="31.01210" y1="113.51930" x2="31.06120" y2="113.18850" stroke="#228B22" stroke-width="0.04000"/>
      <line x1="31.06120" y1="113.18850" x2="31.13320" y2="112.64520" stroke="#228B22" stroke-width="0.04000"/>
      <line x1="31.13320" y1="112.64520" x2="31.20850" y2="112.18770" stroke="#228B22" stroke-width="0.04000"/>
      <line x1="31.20850" y1="112.18770" x2="31.34760" y2="111.75220" stroke="#228B22" stroke-width="0.04000"/>
      <line x1="31.34760" y1="111.75220" x2="31.54740" y2="110.94930" stroke="#228B22" stroke-width="0.04000"/>
      <line x1="31.54740" y1="110.94930" x2="31.57260" y2="110.91410" stroke="#228B22" stroke-width="0.04000"/>
      <line x1="31.57260" y1="110.91410" x2="31.72840" y2="110.63040" stroke="#228B22" stroke-width="0.04000"/>
      <line x1="31.72840" y1="110.63040" x2="32.10470" y2="109.97070" stroke="#228B22" stroke-width="0.04000"/>
      <line x1="32.10470" y1="109.97070" x2="32.17460" y2="109.81310" stroke="#228B22" stroke-width="0.04000"/>
      <line x1="32.17460" y1="109.81310" x2="32.75590" y2="109.43310" stroke="#228B22" stroke-width="0.04000"/>
      <line x1="32.75590" y1="109.43310" x2="32.83530" y2="109.36630" stroke="#228B22" stroke-width="0.04000"/>
      <line x1="32.83530" y1="109.36630" x2="32.91760" y2="109.45390" stroke="#228B22" stroke-width="0.04000"/>
      <line x1="40.82780" y1="105.14480" x2="40.89420" y2="105.18850" stroke="#228B22" stroke-width="0.04000"/>
      <line x1="40.89420" y1="105.18850" x2="40.89420" y2="105.18860" stroke="#228B22" stroke-width="0.04000"/>
      <line x1="40.89420" y1="105.18860" x2="41.71070" y2="105.74060" stroke="#228B22" stroke-width="0.04000"/>
      <line x1="41.71070" y1="105.74060" x2="42.04960" y2="105.92110" stroke="#228B22" stroke-width="0.04000"/>
      <line x1="42.04960" y1="105.92110" x2="42.50490" y2="106.24580" stroke="#228B22" stroke-width="0.04000"/>
      <line x1="42.50490" y1="106.24580" x2="43.14750" y2="106.56970" stroke="#228B22" stroke-width="0.04000"/>
      <line x1="43.14750" y1="106.56970" x2="43.48610" y2="106.63420" stroke="#228B22" stroke-width="0.04000"/>
      <line x1="43.48610" y1="106.63420" x2="43.90320" y2="106.68630" stroke="#228B22" stroke-width="0.04000"/>
      <line x1="43.90320" y1="106.68630" x2="44.45220" y2="106.79140" stroke="#228B22" stroke-width="0.04000"/>
      <line x1="44.45220" y1="106.79140" x2="45.08500" y2="106.87170" stroke="#228B22" stroke-width="0.04000"/>
      <line x1="45.08500" y1="106.87170" x2="45.23630" y2="106.97120" stroke="#228B22" stroke-width="0.04000"/>
      <line x1="45.23630" y1="106.97120" x2="45.35090" y2="107.03950" stroke="#228B22" stroke-width="0.04000"/>
      <line x1="45.35090" y1="107.03950" x2="46.04760" y2="107.47850" stroke="#228B22" stroke-width="0.04000"/>
      <line x1="46.04760" y1="107.47850" x2="46.70430" y2="107.72560" stroke="#228B22" stroke-width="0.04000"/>
      <line x1="46.70430" y1="107.72560" x2="46.82400" y2="107.85430" stroke="#228B22" stroke-width="0.04000"/>
      <line x1="46.82400" y1="107.85430" x2="46.98490" y2="107.90620" stroke="#228B22" stroke-width="0.04000"/>
      <line x1="46.98490" y1="107.90620" x2="47.22710" y2="107.97430" stroke="#228B22" stroke-width="0.04000"/>
      <line x1="47.22710" y1="107.97430" x2="47.74000" y2="108.34280" stroke="#228B22" stroke-width="0.04000"/>
      <line x1="47.74000" y1="108.34280" x2="48.08360" y2="108.61050" stroke="#228B22" stroke-width="0.04000"/>
      <line x1="48.08360" y1="108.61050" x2="48.46030" y2="108.92180" stroke="#228B22" stroke-width="0.04000"/>
      <line x1="48.46030" y1="108.92180" x2="48.94760" y2="109.35230" stroke="#228B22" stroke-width="0.04000"/>
      <line x1="48.94760" y1="109.35230" x2="49.11420" y2="109.55370" stroke="#228B22" stroke-width="0.04000"/>
      <line x1="49.11420" y1="109.55370" x2="49.34750" y2="109.99460" stroke="#228B22" stroke-width="0.04000"/>
      <line x1="49.34750" y1="109.99460" x2="49.34750" y2="109.99450" stroke="#228B22" stroke-width="0.04000"/>
      <line x1="49.34750" y1="109.99450" x2="49.42930" y2="110.15330" stroke="#228B22" stroke-width="0.04000"/>
      <line x1="49.42930" y1="110.15330" x2="49.17860" y2="110.38600" stroke="#228B22" stroke-width="0.04000"/>
      <line x1="49.17860" y1="110.38600" x2="48.86400" y2="110.66030" stroke="#228B22" stroke-width="0.04000"/>
      <line x1="48.86400" y1="110.66030" x2="48.60180" y2="110.77600" stroke="#228B22" stroke-width="0.04000"/>
      <line x1="48.60180" y1="110.77600" x2="48.12880" y2="111.04550" stroke="#228B22" stroke-width="0.04000"/>
      <line x1="48.12880" y1="111.04550" x2="47.70030" y2="111.17980" stroke="#228B22" stroke-width="0.04000"/>
      <line x1="47.70030" y1="111.17980" x2="47.58150" y2="111.20950" stroke="#228B22" stroke-width="0.04000"/>
      <line x1="47.58150" y1="111.20950" x2="47.40850" y2="111.22190" stroke="#228B22" stroke-width="0.04000"/>
      <line x1="47.40850" y1="111.22190" x2="46.80860" y2="111.27440" stroke="#228B22" stroke-width="0.04000"/>
      <line x1="46.80860" y1="111.27440" x2="46.08330" y2="111.33160" stroke="#228B22" stroke-width="0.04000"/>
      <line x1="46.08330" y1="111.33160" x2="46.01040" y2="111.32730" stroke="#228B22" stroke-width="0.04000"/>
      <line x1="46.01040" y1="111.32730" x2="46.01050" y2="111.32730" stroke="#228B22" stroke-width="0.04000"/>
      <line x1="46.01050" y1="111.32730" x2="45.95990" y2="111.32360" stroke="#228B22" stroke-width="0.04000"/>
      <line x1="45.95990" y1="111.32360" x2="45.95980" y2="111.32360" stroke="#228B22" stroke-width="0.04000"/>
      <line x1="45.95980" y1="111.32360" x2="45.19650" y2="111.26450" stroke="#228B22" stroke-width="0.04000"/>
      <line x1="45.19650" y1="111.26450" x2="44.62560" y2="111.19910" stroke="#228B22" stroke-width="0.04000"/>
      <line x1="44.62560" y1="111.19910" x2="44.41070" y2="111.14940" stroke="#228B22" stroke-width="0.04000"/>
      <line x1="44.41070" y1="111.14940" x2="44.07920" y2="111.06060" stroke="#228B22" stroke-width="0.04000"/>
      <line x1="44.07920" y1="111.06060" x2="43.53230" y2="110.92120" stroke="#228B22" stroke-width="0.04000"/>
      <line x1="43.53230" y1="110.92120" x2="42.91850" y2="110.71390" stroke="#228B22" stroke-width="0.04000"/>
      <line x1="42.91850" y1="110.71390" x2="42.62510" y2="110.57710" stroke="#228B22" stroke-width="0.04000"/>
      <line x1="42.62510" y1="110.57710" x2="42.41350" y2="110.47420" stroke="#228B22" stroke-width="0.04000"/>
      <line x1="42.41350" y1="110.47420" x2="42.41360" y2="110.47420" stroke="#228B22" stroke-width="0.04000"/>
      <line x1="42.41360" y1="110.47420" x2="41.81080" y2="110.17640" stroke="#228B22" stroke-width="0.04000"/>
      <line x1="41.81080" y1="110.17640" x2="41.28700" y2="109.86840" stroke="#228B22" stroke-width="0.04000"/>
      <line x1="41.28700" y1="109.86840" x2="40.84050" y2="109.66040" stroke="#228B22" stroke-width="0.04000"/>
      <line x1="40.84050" y1="109.66040" x2="40.40160" y2="109.32010" stroke="#228B22" stroke-width="0.04000"/>
      <line x1="40.40160" y1="109.32010" x2="39.93440" y2="108.98940" stroke="#228B22" stroke-width="0.04000"/>
      <line x1="39.93440" y1="108.98940" x2="39.48210" y2="108.56140" stroke="#228B22" stroke-width="0.04000"/>
      <line x1="39.48210" y1="108.56140" x2="39.13650" y2="108.28160" stroke="#228B22" stroke-width="0.04000"/>
      <line x1="39.13650" y1="108.28160" x2="38.67270" y2="107.81050" stroke="#228B22" stroke-width="0.04000"/>
      <line x1="38.67270" y1="107.81050" x2="38.57200" y2="107.71880" stroke="#228B22" stroke-width="0.04000"/>
      <line x1="38.57200" y1="107.71880" x2="38.16880" y2="107.14190" stroke="#228B22" stroke-width="0.04000"/>
      <line x1="38.16880" y1="107.14190" x2="38.03630" y2="106.96820" stroke="#228B22" stroke-width="0.04000"/>
      <line x1="38.03630" y1="106.96820" x2="37.85240" y2="106.33040" stroke="#228B22" stroke-width="0.04000"/>
      <line x1="37.85240" y1="106.33040" x2="37.80500" y2="106.12310" stroke="#228B22" stroke-width="0.04000"/>
      <line x1="37.80500" y1="106.12310" x2="38.00350" y2="105.55080" stroke="#228B22" stroke-width="0.04000"/>
      <line x1="38.00350" y1="105.55080" x2="38.03570" y2="105.46180" stroke="#228B22" stroke-width="0.04000"/>
      <line x1="38.03570" y1="105.46180" x2="38.20330" y2="105.34170" stroke="#228B22" stroke-width="0.04000"/>
      <line x1="38.20330" y1="105.34170" x2="38.72530" y2="104.93400" stroke="#228B22" stroke-width="0.04000"/>
      <line x1="38.72530" y1="104.93400" x2="38.85250" y2="104.90340" stroke="#228B22" stroke-width="0.04000"/>
      <line x1="38.85250" y1="104.90340" x2="39.78240" y2="104.79790" stroke="#228B22" stroke-width="0.04000"/>
      <line x1="39.78240" y1="104.79790" x2="40.82780" y2="105.14480" stroke="#228B22" stroke-width="0.04000"/>
    </g>
    <g class="thermal-hatch" data-segment="7" data-name="CoreOverhangHatch">
      <line x1="49.50370" y1="110.29750" x2="49.46250" y2="110.33510" stroke="#FF8C00" stroke-width="0.04000"/>
      <line x1="49.46250" y1="110.33510" x2="49.07470" y2="110.67320" stroke="#FF8C00" stroke-width="0.04000"/>
      <line x1="49.07470" y1="110.67320" x2="48.40790" y2="110.96800" stroke="#FF8C00" stroke-width="0.04000"/>
      <line x1="48.40790" y1="110.96800" x2="48.33920" y2="111.00680" stroke="#FF8C00" stroke-width="0.04000"/>
      <line x1="48.33920" y1="111.00680" x2="48.12310" y2="111.07460" stroke="#FF8C00" stroke-width="0.04000"/>
      <line x1="48.12310" y1="111.07460" x2="47.70030" y2="111.17980" stroke="#FF8C00" stroke-width="0.04000"/>
      <line x1="47.70030" y1="111.17980" x2="48.12880" y2="111.04550" stroke="#FF8C00" stroke-width="0.04000"/>
      <line x1="48.12880" y1="111.04550" x2="48.60180" y2="110.77600" stroke="#FF8C00" stroke-width="0.04000"/>
      <line x1="48.60180" y1="110.77600" x2="48.86400" y2="110.66030" stroke="#FF8C00" stroke-width="0.04000"/>
      <line x1="48.86400" y1="110.66030" x2="49.17860" y2="110.38600" stroke="#FF8C00" stroke-width="0.04000"/>
      <line x1="49.17860" y1="110.38600" x2="49.42930" y2="110.15330" stroke="#FF8C00" stroke-width="0.04000"/>
      <line x1="49.42930" y1="110.15330" x2="49.50370" y2="110.29750" stroke="#FF8C00" stroke-width="0.04000"/>
    </g>
    <g class="thermal-contour" data-segment="1" data-name="CoreContour_Volume">
    <path d="M 33.1064 109.231 L 33.7742 109.679 L 33.9605 110.013 L 34.4813 110.87 L 34.5085 110.927 L 34.5284 110.977 L 34.9741 112.003 L 35.162 112.513 L 35.1621 112.513 L 35.3239 112.951 L 35.5588 113.622 L 35.5981 113.733 L 35.7334 114.512 L 35.9141 115.361 L 35.928 115.439 L 35.9447 115.525 L 35.9827 116.472 L 36.0172 117.431 L 36.0175 117.541 L 36.0235 117.613 L 35.9616 118.51 L 35.8742 119.572 L 35.8736 119.579 L 35.8722 119.592 L 35.724 120.619 L 35.651 121.331 L 35.5825 121.657 L 35.4823 122.605 L 35.4641 122.738 L 35.3927 123.42 L 35.3362 123.912 L 35.2548 124.72 L 35.1646 124.949 L 34.8023 125.789 L 33.9109 125.576 L 33.886 125.571 L 33.5751 124.702 L 33.4133 124.278 L 33.2521 123.743 L 33.0233 122.879 L 33.0082 122.825 L 33.0027 122.799 L 32.7653 121.772 L 32.7514 121.706 L 32.5999 120.976 L 32.552 120.757 L 32.5466 120.732 L 32.3511 119.666 L 32.316 119.478 L 32.316 119.478 L 32.1784 118.751 L 32.0627 118.185 L 31.9893 117.794 L 31.7671 116.95 L 31.7623 116.927 L 31.7442 116.867 L 31.361 116.096 L 31.1361 115.693 L 30.9326 115.306 L 30.6767 114.511 L 30.6605 114.381 L 30.6709 114.334 L 30.7236 113.49 L 30.7741 113.148 L 30.847 112.598 L 30.9258 112.12 L 31.0684 111.673 L 31.2795 110.826 L 31.3264 110.76 L 31.4785 110.483 L 31.8456 109.84 L 31.9443 109.617 L 32.5827 109.2 L 32.8591 108.968 L 33.1064 109.231" fill="none" stroke="#000000" stroke-width="0.05000" fill-rule="evenodd" fill-opacity="1.000"/>
    </g>
    <g class="thermal-contour" data-segment="1" data-name="CoreContour_Volume">
    <path d="M 39.8439 104.511 L 39.8646 104.52 L 40.9557 104.882 L 41.0546 104.947 L 41.8606 105.492 L 42.203 105.674 L 42.6552 105.997 L 43.2417 106.292 L 43.5313 106.348 L 43.9491 106.4 L 44.4977 106.505 L 45.1882 106.593 L 45.3903 106.725 L 45.4994 106.79 L 46.1772 107.217 L 46.8705 107.478 L 46.9849 107.602 L 47.0687 107.629 L 47.3551 107.709 L 47.9126 108.11 L 48.2653 108.384 L 48.645 108.698 L 49.157 109.151 L 49.3571 109.392 L 49.6039 109.859 L 49.7911 110.222 L 49.8637 110.362 L 49.6557 110.552 L 49.2323 110.921 L 48.5384 111.227 L 48.4558 111.274 L 48.2024 111.354 L 47.6268 111.497 L 47.4314 111.511 L 46.8323 111.564 L 46.0873 111.622 L 45.9896 111.617 L 45.922 111.612 L 45.1709 111.553 L 44.5758 111.485 L 44.3394 111.431 L 44.0058 111.341 L 43.4504 111.2 L 42.8104 110.983 L 42.5025 110.84 L 42.2765 110.73 L 41.6743 110.433 L 41.1519 110.125 L 40.6889 109.91 L 40.229 109.553 L 39.7505 109.215 L 39.291 108.78 L 38.9407 108.496 L 38.4716 108.02 L 38.3526 107.911 L 37.9345 107.313 L 37.7728 107.101 L 37.5719 106.404 L 37.504 106.107 L 37.7309 105.452 L 37.7938 105.279 L 38.0294 105.109 L 38.5966 104.667 L 38.8036 104.617 L 39.8101 104.503 L 39.8439 104.511" fill="none" stroke="#000000" stroke-width="0.05000" fill-rule="evenodd" fill-opacity="1.000"/>
    </g>
    <g class="thermal-contour" data-segment="1" data-name="CoreContour_Volume">
    <path d="M 32.9762 109.385 L 33.6228 109.818 L 33.7877 110.114 L 34.3048 110.964 L 34.3256 111.008 L 34.3438 111.054 L 34.7881 112.077 L 35.0226 112.713 L 35.0229 112.713 L 35.1363 113.02 L 35.3702 113.688 L 35.404 113.784 L 35.537 114.55 L 35.7185 115.403 L 35.7314 115.475 L 35.7455 115.548 L 35.7829 116.48 L 35.8172 117.431 L 35.8175 117.55 L 35.8227 117.615 L 35.7622 118.494 L 35.6748 119.557 L 35.6746 119.559 L 35.6742 119.563 L 35.5254 120.594 L 35.453 121.3 L 35.3847 121.626 L 35.2841 122.578 L 35.2655 122.715 L 35.1937 123.4 L 35.1374 123.891 L 35.0584 124.673 L 34.9796 124.873 L 34.6937 125.535 L 34.1811 125.413 L 34.0315 125.384 L 33.7627 124.632 L 33.6027 124.213 L 33.4455 123.692 L 33.2163 122.826 L 33.2024 122.777 L 33.1981 122.756 L 32.9601 121.727 L 32.947 121.665 L 32.7955 120.934 L 32.7474 120.714 L 32.743 120.694 L 32.5477 119.629 L 32.5126 119.441 L 32.3746 118.713 L 32.2587 118.145 L 32.1845 117.75 L 31.9618 116.904 L 31.9561 116.877 L 31.931 116.793 L 31.538 116.003 L 31.3131 115.6 L 31.1174 115.228 L 30.8727 114.468 L 30.8631 114.391 L 30.8695 114.362 L 30.9226 113.51 L 30.9721 113.176 L 31.0444 112.631 L 31.1208 112.167 L 31.261 111.728 L 31.4643 110.911 L 31.4962 110.866 L 31.6502 110.586 L 32.0243 109.93 L 32.1031 109.752 L 32.7021 109.361 L 32.8427 109.243 L 32.9762 109.385" fill="none" stroke="#000000" stroke-width="0.05000" fill-rule="evenodd" fill-opacity="1.000"/>
    <path d="M 32.7559 109.433 L 32.1746 109.813 L 32.1047 109.971 L 31.7284 110.63 L 31.5726 110.914 L 31.5474 110.949 L 31.3476 111.752 L 31.2085 112.188 L 31.1332 112.645 L 31.0612 113.188 L 31.0121 113.519 L 30.9589 114.375 L 30.9543 114.395 L 30.9609 114.448 L 31.2008 115.194 L 31.3916 115.556 L 31.3917 115.556 L 31.6176 115.961 L 32.015 116.76 L 32.0433 116.855 L 32.0497 116.884 L 32.2724 117.73 L 32.3468 118.127 L 32.3469 118.127 L 32.4629 118.695 L 32.6011 119.424 L 32.6362 119.613 L 32.8308 120.674 L 32.8353 120.694 L 32.8835 120.915 L 33.035 121.647 L 33.0351 121.647 L 33.0478 121.707 L 33.286 122.737 L 33.2901 122.757 L 33.3031 122.803 L 33.5317 123.666 L 33.688 124.184 L 33.8471 124.601 L 34.1056 125.324 L 34.6326 125.45 L 34.897 124.837 L 34.9701 124.651 L 35.0479 123.881 L 35.1043 123.389 L 35.1761 122.704 L 35.1949 122.566 L 35.2957 121.612 L 35.364 121.286 L 35.4361 120.583 L 35.5847 119.553 L 35.585 119.55 L 35.5851 119.55 L 35.6725 118.487 L 35.7324 117.615 L 35.7275 117.554 L 35.7272 117.432 L 35.693 116.484 L 35.6558 115.559 L 35.6429 115.492 L 35.6299 115.419 L 35.4486 114.567 L 35.3165 113.807 L 35.2853 113.718 L 35.0513 113.05 L 35.0513 113.049 L 34.9602 112.803 L 34.9599 112.803 L 34.705 112.112 L 34.2607 111.088 L 34.2429 111.044 L 34.2256 111.007 L 33.7099 110.159 L 33.5547 109.881 L 32.9176 109.454 L 32.8353 109.366 L 32.7559 109.433" fill="none" stroke="#000000" stroke-width="0.05000" fill-rule="evenodd" fill-opacity="1.000"/>
    <path d="M 39.7934 104.707 L 40.8676 105.063 L 40.9446 105.114 L 41.7572 105.663 L 42.0973 105.845 L 42.5516 106.169 L 43.1767 106.484 L 43.5001 106.545 L 43.9175 106.597 L 44.4663 106.702 L 45.117 106.785 L 45.2841 106.895 L 45.397 106.962 L 46.0878 107.397 L 46.7559 107.649 L 46.8739 107.776 L 47.0109 107.82 L 47.2669 107.892 L 47.7939 108.271 L 48.1401 108.54 L 48.5176 108.852 L 48.8475 109.144 L 49.1447 109.503 L 49.4692 110.116 L 49.4293 110.153 L 49.3475 109.994 L 49.3475 109.995 L 49.1142 109.554 L 48.9476 109.352 L 48.4603 108.922 L 48.0836 108.61 L 47.74 108.343 L 47.2271 107.974 L 46.9849 107.906 L 46.824 107.854 L 46.7043 107.726 L 46.0476 107.479 L 45.3509 107.039 L 45.2363 106.971 L 45.085 106.872 L 44.4522 106.791 L 43.9032 106.686 L 43.4861 106.634 L 43.1475 106.57 L 42.5049 106.246 L 42.0496 105.921 L 41.7107 105.741 L 40.8942 105.189 L 40.8942 105.188 L 40.8278 105.145 L 39.7824 104.798 L 38.8525 104.903 L 38.7253 104.934 L 38.2033 105.342 L 38.0357 105.462 L 38.0035 105.551 L 37.805 106.123 L 37.8524 106.33 L 38.0363 106.968 L 38.1688 107.142 L 38.572 107.719 L 38.6727 107.811 L 39.1365 108.282 L 39.4821 108.561 L 39.9344 108.989 L 40.4016 109.32 L 40.8405 109.66 L 41.287 109.868 L 41.8108 110.176 L 42.4136 110.474 L 42.4135 110.474 L 42.6251 110.577 L 42.9185 110.714 L 43.5323 110.921 L 44.0792 111.061 L 44.4107 111.149 L 44.6256 111.199 L 45.1965 111.265 L 45.9598 111.324 L 45.9599 111.324 L 46.0105 111.327 L 46.0104 111.327 L 46.0833 111.332 L 46.8086 111.274 L 47.4085 111.222 L 47.5815 111.21 L 47.7003 111.18 L 47.5588 111.224 L 47.3322 111.319 L 46.8165 111.364 L 46.0845 111.422 L 46.0039 111.417 L 45.9533 111.413 L 45.1875 111.354 L 44.61 111.288 L 44.3904 111.237 L 44.0564 111.148 L 43.5062 111.007 L 42.8852 110.798 L 42.5871 110.659 L 42.3737 110.555 L 41.7683 110.256 L 41.2451 109.948 L 40.7936 109.738 L 40.348 109.392 L 39.8771 109.059 L 39.4228 108.629 L 39.076 108.348 L 38.6103 107.875 L 38.5038 107.778 L 38.0961 107.195 L 37.9546 107.009 L 37.7655 106.354 L 37.7116 106.118 L 37.9189 105.52 L 37.9606 105.405 L 38.1494 105.27 L 38.6854 104.851 L 38.8368 104.815 L 39.7923 104.706 L 39.7934 104.707" fill="none" stroke="#000000" stroke-width="0.05000" fill-rule="evenodd" fill-opacity="1.000"/>
    </g>
    <g class="thermal-contour" data-segment="2" data-name="CoreContour_Overhang">
    <path d="M 34.1811 125.413 L 34.6937 125.535 L 34.6853 125.555 L 34.0374 125.4 L 34.0315 125.384 L 34.1811 125.413" fill="none" stroke="#8B0000" stroke-width="0.05000" fill-rule="evenodd" fill-opacity="1.000"/>
    <path d="M 49.0125 109.29 L 49.1897 109.504 L 49.4271 109.952 L 49.6135 110.314 L 49.6153 110.318 L 49.5217 110.403 L 49.1237 110.75 L 48.4484 111.049 L 48.3753 111.09 L 48.148 111.161 L 47.5955 111.299 L 47.4156 111.312 L 47.3322 111.319 L 47.5588 111.224 L 47.7003 111.18 L 48.1231 111.075 L 48.3392 111.007 L 48.4079 110.968 L 49.0747 110.673 L 49.4625 110.335 L 49.5037 110.298 L 49.4293 110.153 L 49.4692 110.116 L 49.1447 109.503 L 48.8475 109.144 L 49.0125 109.29" fill="none" stroke="#8B0000" stroke-width="0.05000" fill-rule="evenodd" fill-opacity="1.000"/>
    </g>
    <g class="thermal-contour" data-segment="3" data-name="HollowShell1Contour_Volume">
    <path d="M 31.8376 116.83 L 31.8592 116.902 L 31.8646 116.927 L 32.0869 117.772 L 32.1607 118.165 L 32.2765 118.732 L 32.4143 119.459 L 32.4494 119.648 L 32.6447 120.713 L 32.6497 120.735 L 32.6977 120.955 L 32.8492 121.686 L 32.8627 121.75 L 33.1004 122.777 L 33.1053 122.801 L 33.1198 122.853 L 33.3488 123.717 L 33.508 124.245 L 33.6689 124.667 L 33.9173 125.362 L 33.8264 125.344 L 33.6004 124.712 L 33.3365 124.02 L 33.2564 123.754 L 33.1426 123.325 L 33.1203 123.246 L 33.0233 122.879 L 33.0082 122.825 L 33.0027 122.799 L 32.7852 121.859 L 32.7289 121.593 L 32.5672 120.813 L 32.5402 120.635 L 32.3742 119.656 L 32.3597 119.573 L 32.3257 119.348 L 32.1954 118.66 L 32.1367 118.372 L 32.0124 117.711 L 31.8519 117.101 L 31.7988 116.855 L 31.7213 116.596 L 31.8376 116.83" fill="none" stroke="#0000CC" stroke-width="0.05000" fill-rule="evenodd" fill-opacity="1.000"/>
    <path d="M 33.1064 109.231 L 33.7742 109.679 L 33.9605 110.013 L 34.4813 110.87 L 34.5085 110.927 L 34.5284 110.977 L 34.9741 112.004 L 35.162 112.513 L 35.1621 112.513 L 35.3239 112.951 L 35.5588 113.622 L 35.5981 113.733 L 35.7334 114.512 L 35.9141 115.361 L 35.928 115.438 L 35.9447 115.525 L 35.9827 116.472 L 36.0148 117.366 L 36.0071 117.523 L 35.9868 117.904 L 35.9457 118.498 L 35.8975 119.085 L 35.8348 119.552 L 35.7775 119.983 L 35.6878 120.604 L 35.6446 121.026 L 35.4923 121.751 L 35.4269 122.369 L 35.3638 122.833 L 35.3198 123.253 L 35.233 124.008 L 35.1853 124.482 L 35.1758 124.506 L 35.2368 123.902 L 35.2932 123.41 L 35.3648 122.727 L 35.3832 122.592 L 35.4836 121.642 L 35.552 121.316 L 35.6247 120.607 L 35.7732 119.578 L 35.7742 119.568 L 35.7745 119.564 L 35.8619 118.502 L 35.9231 117.614 L 35.9175 117.546 L 35.9172 117.431 L 35.8828 116.476 L 35.8451 115.537 L 35.8297 115.457 L 35.8163 115.382 L 35.6352 114.531 L 35.5011 113.759 L 35.4645 113.655 L 35.2301 112.985 L 35.0925 112.613 L 35.0923 112.613 L 34.8811 112.04 L 34.4361 111.015 L 34.4171 110.968 L 34.3928 110.917 L 33.8741 110.064 L 33.6985 109.749 L 33.0413 109.308 L 32.8509 109.105 L 32.6424 109.28 L 32.0237 109.685 L 31.9349 109.885 L 31.5654 110.533 L 31.5653 110.533 L 31.4113 110.813 L 31.3719 110.868 L 31.1647 111.7 L 31.0233 112.143 L 30.9457 112.614 L 30.8731 113.162 L 30.8231 113.5 L 30.7723 114.313 L 30.7578 114.278 L 30.7107 113.696 L 30.7236 113.49 L 30.7741 113.148 L 30.847 112.598 L 30.9258 112.12 L 31.0684 111.673 L 31.2795 110.826 L 31.3264 110.76 L 31.4785 110.483 L 31.8456 109.84 L 31.9443 109.617 L 32.5827 109.2 L 32.8591 108.968 L 33.1064 109.231" fill="none" stroke="#0000CC" stroke-width="0.05000" fill-rule="evenodd" fill-opacity="1.000"/>
    <path d="M 39.8439 104.511 L 39.8646 104.52 L 40.9557 104.882 L 41.0546 104.947 L 41.8606 105.492 L 42.203 105.674 L 42.6552 105.997 L 43.2417 106.293 L 43.5313 106.348 L 43.9491 106.4 L 44.4977 106.505 L 45.0922 106.58 L 45.3291 106.736 L 45.6728 106.941 L 46.1388 107.234 L 46.8442 107.5 L 46.9911 107.612 L 47.1251 107.707 L 47.22 107.775 L 47.0398 107.724 L 46.9294 107.689 L 46.8131 107.564 L 46.1325 107.308 L 45.4482 106.876 L 45.3372 106.81 L 45.1526 106.689 L 44.482 106.604 L 43.9333 106.499 L 43.5157 106.447 L 43.2092 106.388 L 42.6034 106.083 L 42.1505 105.76 L 41.8089 105.578 L 40.9996 105.031 L 40.9116 104.973 L 39.829 104.613 L 39.8125 104.606 L 39.8046 104.604 L 38.8202 104.716 L 38.641 104.759 L 38.0894 105.189 L 37.8772 105.342 L 37.8249 105.486 L 37.6078 106.113 L 37.6687 106.379 L 37.8637 107.055 L 38.0153 107.254 L 38.4282 107.845 L 38.5409 107.948 L 39.0086 108.422 L 39.3569 108.704 L 39.8138 109.137 L 40.2885 109.473 L 40.7411 109.824 L 41.1985 110.037 L 41.7213 110.344 L 42.3208 110.64 L 42.3207 110.64 L 42.5448 110.749 L 42.8478 110.891 L 43.4783 111.104 L 44.0311 111.244 L 44.3464 111.329 L 44.3032 111.325 L 43.4675 111.112 L 42.5609 110.806 L 42.4891 110.784 L 42.3984 110.747 L 41.6002 110.353 L 41.2442 110.144 L 40.6092 109.848 L 40.229 109.553 L 39.7505 109.215 L 39.291 108.78 L 38.9407 108.496 L 38.4716 108.02 L 38.3526 107.911 L 37.9345 107.313 L 37.7728 107.101 L 37.5719 106.404 L 37.504 106.107 L 37.7309 105.452 L 37.7938 105.279 L 38.0294 105.109 L 38.5966 104.667 L 38.8036 104.617 L 39.8101 104.503 L 39.8439 104.511" fill="none" stroke="#0000CC" stroke-width="0.05000" fill-rule="evenodd" fill-opacity="1.000"/>
    </g>
    <g class="thermal-contour" data-segment="4" data-name="HollowShell1Contour_Overhang">
    <path d="M 36.0172 117.431 L 36.0175 117.541 L 36.0235 117.613 L 35.9616 118.51 L 35.8742 119.572 L 35.8736 119.579 L 35.8722 119.592 L 35.724 120.619 L 35.651 121.331 L 35.5825 121.657 L 35.4823 122.605 L 35.4641 122.739 L 35.3927 123.42 L 35.3362 123.912 L 35.2548 124.72 L 35.1646 124.949 L 34.8023 125.789 L 33.9109 125.576 L 33.886 125.571 L 33.5751 124.702 L 33.4133 124.277 L 33.2521 123.743 L 33.1203 123.246 L 33.1426 123.325 L 33.2564 123.754 L 33.3365 124.02 L 33.6004 124.712 L 33.8264 125.344 L 33.9173 125.362 L 33.9615 125.485 L 34.7438 125.672 L 35.0721 124.911 L 35.1566 124.697 L 35.1758 124.506 L 35.1853 124.482 L 35.233 124.008 L 35.3198 123.253 L 35.3638 122.833 L 35.4269 122.369 L 35.4923 121.751 L 35.6446 121.026 L 35.6878 120.604 L 35.7775 119.983 L 35.8348 119.552 L 35.8975 119.085 L 35.9457 118.498 L 35.9868 117.904 L 36.0071 117.523 L 36.0148 117.366 L 36.0172 117.431" fill="none" stroke="#000080" stroke-width="0.05000" fill-rule="evenodd" fill-opacity="1.000"/>
    <path d="M 30.7578 114.278 L 30.7723 114.313 L 30.7702 114.348 L 30.7618 114.386 L 30.7747 114.49 L 31.025 115.267 L 31.2246 115.646 L 31.4495 116.049 L 31.7213 116.596 L 31.7988 116.855 L 31.8519 117.101 L 32.0124 117.711 L 32.1367 118.372 L 32.1954 118.66 L 32.3257 119.348 L 32.3597 119.573 L 32.3742 119.656 L 32.5402 120.635 L 32.5672 120.813 L 32.7289 121.593 L 32.7857 121.861 L 32.7653 121.772 L 32.7514 121.706 L 32.5999 120.976 L 32.552 120.757 L 32.5466 120.732 L 32.3511 119.666 L 32.316 119.478 L 32.1784 118.751 L 32.0627 118.185 L 31.9893 117.794 L 31.7671 116.95 L 31.7623 116.927 L 31.7442 116.867 L 31.361 116.096 L 31.1361 115.693 L 30.9326 115.307 L 30.6767 114.511 L 30.6605 114.381 L 30.6709 114.334 L 30.7084 113.733 L 30.7107 113.696 L 30.7578 114.278" fill="none" stroke="#000080" stroke-width="0.05000" fill-rule="evenodd" fill-opacity="1.000"/>
    <path d="M 45.1882 106.593 L 45.3903 106.725 L 45.4994 106.79 L 46.1772 107.217 L 46.8705 107.478 L 46.9849 107.602 L 47.0687 107.629 L 47.3551 107.709 L 47.9126 108.11 L 48.2653 108.384 L 48.645 108.698 L 49.157 109.151 L 49.3571 109.392 L 49.6039 109.859 L 49.7911 110.222 L 49.8637 110.362 L 49.6557 110.552 L 49.2323 110.921 L 48.5384 111.227 L 48.4558 111.274 L 48.2024 111.354 L 47.6268 111.497 L 47.4314 111.511 L 46.8323 111.563 L 46.0873 111.622 L 45.9896 111.617 L 45.922 111.612 L 45.1709 111.553 L 44.5758 111.485 L 44.3394 111.431 L 44.0058 111.341 L 43.4504 111.2 L 42.8104 110.983 L 42.5025 110.84 L 42.2765 110.73 L 41.6743 110.433 L 41.1519 110.125 L 40.6889 109.91 L 40.6092 109.848 L 41.2442 110.144 L 41.6002 110.353 L 42.3984 110.747 L 42.4891 110.784 L 42.5609 110.806 L 43.4675 111.112 L 44.3032 111.325 L 44.3464 111.329 L 44.3649 111.334 L 44.5929 111.387 L 45.1792 111.454 L 45.9297 111.512 L 45.9296 111.512 L 45.997 111.517 L 46.0859 111.522 L 46.8244 111.464 L 47.4235 111.411 L 47.6114 111.398 L 48.1752 111.257 L 48.4155 111.182 L 48.4934 111.138 L 49.178 110.835 L 49.5887 110.477 L 49.7395 110.34 L 49.7023 110.268 L 49.5155 109.906 L 49.2734 109.448 L 49.0848 109.22 L 48.5813 108.775 L 48.2016 108.462 L 47.8542 108.191 L 47.311 107.801 L 47.22 107.775 L 47.1251 107.707 L 46.9911 107.612 L 46.8442 107.5 L 46.1388 107.234 L 45.6728 106.941 L 45.3291 106.736 L 45.0922 106.58 L 45.1882 106.593" fill="none" stroke="#000080" stroke-width="0.05000" fill-rule="evenodd" fill-opacity="1.000"/>
    </g>
    <g class="thermal-contour" data-segment="5" data-name="HollowShell2Contour_Volume">
    <path d="M 33.0413 109.308 L 33.6985 109.749 L 33.8741 110.064 L 34.3928 110.917 L 34.4171 110.968 L 34.4361 111.015 L 34.8811 112.04 L 35.0923 112.613 L 35.0925 112.613 L 35.2301 112.985 L 35.4645 113.655 L 35.5011 113.759 L 35.6352 114.531 L 35.8163 115.382 L 35.8297 115.457 L 35.8451 115.537 L 35.8828 116.476 L 35.9172 117.431 L 35.9175 117.546 L 35.9231 117.614 L 35.8619 118.502 L 35.7745 119.564 L 35.7742 119.568 L 35.7732 119.578 L 35.6247 120.607 L 35.552 121.316 L 35.4836 121.642 L 35.3832 122.592 L 35.3648 122.727 L 35.2932 123.41 L 35.2368 123.902 L 35.1758 124.506 L 34.9747 125.016 L 34.7454 125.548 L 34.6937 125.535 L 34.9796 124.873 L 35.0584 124.673 L 35.1374 123.891 L 35.1937 123.4 L 35.2655 122.715 L 35.2841 122.578 L 35.3847 121.626 L 35.453 121.3 L 35.5254 120.594 L 35.6742 119.563 L 35.6746 119.559 L 35.6748 119.557 L 35.7622 118.494 L 35.8227 117.615 L 35.8175 117.55 L 35.8172 117.431 L 35.7829 116.48 L 35.7455 115.548 L 35.7314 115.475 L 35.7185 115.403 L 35.537 114.55 L 35.404 113.784 L 35.3702 113.688 L 35.1363 113.02 L 35.0229 112.713 L 35.0226 112.713 L 34.7881 112.077 L 34.3438 111.054 L 34.3256 111.008 L 34.3048 110.964 L 33.7877 110.114 L 33.6228 109.818 L 32.9762 109.385 L 32.8427 109.243 L 32.7021 109.361 L 32.1031 109.752 L 32.0243 109.93 L 31.6502 110.586 L 31.4962 110.866 L 31.4643 110.911 L 31.261 111.728 L 31.1208 112.167 L 31.0444 112.631 L 30.9721 113.176 L 30.9226 113.51 L 30.8695 114.362 L 30.8631 114.391 L 30.8727 114.468 L 31.1174 115.228 L 31.3131 115.6 L 31.538 116.003 L 31.931 116.793 L 31.9561 116.877 L 31.9618 116.904 L 32.1845 117.75 L 32.2587 118.145 L 32.3746 118.713 L 32.5126 119.441 L 32.5477 119.629 L 32.743 120.694 L 32.7474 120.714 L 32.7955 120.934 L 32.947 121.665 L 32.9601 121.727 L 33.1981 122.756 L 33.2024 122.777 L 33.2163 122.826 L 33.4455 123.692 L 33.6027 124.213 L 33.7627 124.632 L 34.0315 125.384 L 33.9173 125.362 L 33.6689 124.667 L 33.508 124.245 L 33.3488 123.717 L 33.1198 122.853 L 33.1053 122.801 L 33.1004 122.777 L 32.8627 121.75 L 32.8492 121.686 L 32.6977 120.955 L 32.6497 120.735 L 32.6447 120.713 L 32.4494 119.648 L 32.4143 119.459 L 32.2765 118.732 L 32.1607 118.165 L 32.0869 117.772 L 31.8646 116.927 L 31.8592 116.902 L 31.8376 116.83 L 31.7213 116.596 L 31.5981 116.185 L 31.493 115.973 L 31.4314 115.863 L 31.0712 115.179 L 30.8601 114.523 L 30.7723 114.313 L 30.8231 113.5 L 30.8731 113.162 L 30.9457 112.614 L 31.0233 112.143 L 31.1647 111.7 L 31.3719 110.868 L 31.4113 110.813 L 31.5653 110.533 L 31.5654 110.533 L 31.9349 109.885 L 32.0237 109.685 L 32.6424 109.28 L 32.8509 109.105 L 33.0413 109.308" fill="none" stroke="#B8860B" stroke-width="0.05000" fill-rule="evenodd" fill-opacity="1.000"/>
    <path d="M 39.8125 104.606 L 39.829 104.613 L 40.9116 104.973 L 40.9996 105.031 L 41.8089 105.578 L 42.1505 105.76 L 42.6034 106.083 L 43.2092 106.388 L 43.5157 106.447 L 43.9333 106.499 L 44.482 106.604 L 45.1526 106.689 L 45.3372 106.81 L 45.4482 106.876 L 46.1325 107.308 L 46.8131 107.564 L 46.9294 107.689 L 47.0398 107.724 L 47.22 107.775 L 47.7707 108.171 L 48.4819 108.725 L 48.5092 108.747 L 48.5461 108.78 L 48.8475 109.144 L 48.5176 108.852 L 48.1401 108.54 L 47.7939 108.271 L 47.2669 107.892 L 47.0109 107.82 L 46.8739 107.776 L 46.7559 107.649 L 46.0878 107.397 L 45.397 106.962 L 45.2841 106.895 L 45.117 106.785 L 44.4663 106.702 L 43.9175 106.597 L 43.5001 106.545 L 43.1767 106.484 L 42.5516 106.169 L 42.0973 105.845 L 41.7572 105.663 L 40.9446 105.114 L 40.8676 105.063 L 39.7934 104.707 L 39.7923 104.706 L 38.8368 104.815 L 38.6854 104.851 L 38.1494 105.27 L 37.9606 105.405 L 37.9189 105.52 L 37.7116 106.118 L 37.7655 106.354 L 37.9546 107.009 L 38.0961 107.195 L 38.5038 107.778 L 38.6103 107.875 L 39.076 108.348 L 39.4228 108.629 L 39.8771 109.059 L 40.348 109.392 L 40.7936 109.738 L 41.2451 109.948 L 41.7683 110.256 L 42.3737 110.555 L 42.5871 110.659 L 42.8852 110.798 L 43.5062 111.007 L 44.0564 111.148 L 44.3904 111.237 L 44.61 111.288 L 45.1875 111.354 L 45.9533 111.413 L 46.0039 111.417 L 46.0845 111.422 L 46.8165 111.364 L 47.3322 111.319 L 47.3284 111.321 L 46.7738 111.369 L 46.2117 111.414 L 45.9421 111.445 L 45.5952 111.458 L 45.1529 111.424 L 44.4314 111.341 L 44.3493 111.329 L 44.3464 111.329 L 44.0311 111.244 L 43.4783 111.104 L 42.8478 110.891 L 42.5448 110.749 L 42.3207 110.64 L 42.3208 110.64 L 41.7213 110.344 L 41.1985 110.037 L 40.7411 109.824 L 40.2885 109.473 L 39.8138 109.137 L 39.3569 108.704 L 39.0086 108.422 L 38.5409 107.948 L 38.4282 107.845 L 38.0153 107.254 L 37.8637 107.055 L 37.6687 106.379 L 37.6078 106.113 L 37.8249 105.486 L 37.8772 105.342 L 38.0894 105.189 L 38.641 104.759 L 38.8202 104.716 L 39.8046 104.604 L 39.8125 104.606" fill="none" stroke="#B8860B" stroke-width="0.05000" fill-rule="evenodd" fill-opacity="1.000"/>
    </g>
    <g class="thermal-contour" data-segment="6" data-name="HollowShell2Contour_Overhang">
    <path d="M 35.1566 124.697 L 35.0721 124.911 L 34.7438 125.672 L 33.9615 125.485 L 33.9173 125.362 L 34.0315 125.384 L 34.0374 125.4 L 34.6853 125.555 L 34.6937 125.535 L 34.7454 125.548 L 34.9747 125.016 L 35.1758 124.506 L 35.1566 124.697" fill="none" stroke="#006400" stroke-width="0.05000" fill-rule="evenodd" fill-opacity="1.000"/>
    <path d="M 30.8601 114.523 L 31.0712 115.179 L 31.4314 115.863 L 31.493 115.973 L 31.5981 116.185 L 31.7213 116.596 L 31.4495 116.049 L 31.2246 115.646 L 31.025 115.267 L 30.7747 114.49 L 30.7618 114.386 L 30.7702 114.348 L 30.7723 114.313 L 30.8601 114.523" fill="none" stroke="#006400" stroke-width="0.05000" fill-rule="evenodd" fill-opacity="1.000"/>
    <path d="M 47.311 107.801 L 47.8542 108.191 L 48.2016 108.462 L 48.5813 108.775 L 49.0848 109.22 L 49.2734 109.448 L 49.5155 109.906 L 49.7023 110.268 L 49.7395 110.34 L 49.5887 110.477 L 49.178 110.835 L 48.4934 111.138 L 48.4155 111.182 L 48.1752 111.257 L 47.6114 111.398 L 47.4235 111.411 L 46.8244 111.464 L 46.0859 111.522 L 45.997 111.517 L 45.9296 111.512 L 45.9297 111.512 L 45.1792 111.454 L 44.5929 111.387 L 44.3649 111.334 L 44.3464 111.329 L 44.3493 111.329 L 44.4314 111.341 L 45.1529 111.424 L 45.5952 111.458 L 45.9421 111.445 L 46.2117 111.414 L 46.7738 111.369 L 47.3284 111.321 L 47.3322 111.319 L 47.4156 111.312 L 47.5955 111.299 L 48.148 111.161 L 48.3753 111.09 L 48.4484 111.049 L 49.1237 110.75 L 49.5217 110.403 L 49.6153 110.318 L 49.6135 110.314 L 49.4271 109.952 L 49.1897 109.504 L 49.0125 109.29 L 48.8475 109.144 L 48.5461 108.78 L 48.5092 108.747 L 48.4819 108.725 L 47.7707 108.171 L 47.22 107.775 L 47.311 107.801" fill="none" stroke="#006400" stroke-width="0.05000" fill-rule="evenodd" fill-opacity="1.000"/>
    </g>
    <g class="thermal-contour" data-segment="9" data-name="CoreContourHatch">
    <path d="M 32.9353 109.433 L 33.5751 109.862 L 33.7335 110.146 L 34.2494 110.994 L 34.2676 111.033 L 34.2855 111.077 L 34.7301 112.102 L 34.9787 112.776 L 34.979 112.776 L 35.0783 113.045 L 35.0783 113.045 L 35.3108 113.709 L 35.3427 113.8 L 35.475 114.562 L 35.6564 115.413 L 35.6694 115.486 L 35.6827 115.556 L 35.72 116.483 L 35.7542 117.431 L 35.7544 117.553 L 35.7595 117.615 L 35.6994 118.489 L 35.6119 119.553 L 35.6117 119.553 L 35.6118 119.553 L 35.6115 119.556 L 35.4629 120.586 L 35.463 120.586 L 35.3907 121.29 L 35.3225 121.616 L 35.2217 122.569 L 35.2029 122.707 L 35.1311 123.392 L 35.0747 123.884 L 35.0748 123.884 L 34.9966 124.658 L 34.922 124.848 L 34.6484 125.481 L 34.0851 125.347 L 33.8217 124.61 L 33.8217 124.61 L 33.6624 124.193 L 33.5057 123.673 L 33.2771 122.81 L 33.2639 122.763 L 33.2597 122.743 L 33.0214 121.713 L 33.0132 121.674 L 33.013 121.674 L 32.8571 120.921 L 32.8089 120.7 L 32.8089 120.7 L 32.8043 120.68 L 32.6096 119.618 L 32.6096 119.618 L 32.5746 119.429 L 32.4364 118.701 L 32.4364 118.701 L 32.3248 118.154 L 32.3244 118.154 L 32.2463 117.737 L 32.0234 116.891 L 32.0171 116.862 L 31.9897 116.77 L 31.594 115.974 L 31.3758 115.583 L 31.3753 115.583 L 31.1758 115.204 L 30.9344 114.454 L 30.9269 114.394 L 30.9321 114.371 L 30.9852 113.517 L 31.0345 113.185 L 31.1065 112.641 L 31.1822 112.181 L 31.3215 111.745 L 31.5224 110.938 L 31.5496 110.9 L 31.7048 110.617 L 32.0807 109.958 L 32.1532 109.795 L 32.7395 109.411 L 32.8375 109.329 L 32.9353 109.433" fill="none" stroke="#800080" stroke-width="0.05000" fill-rule="evenodd" fill-opacity="1.000"/>
    <path d="M 32.7559 109.433 L 32.1746 109.813 L 32.1047 109.971 L 31.7284 110.63 L 31.5726 110.914 L 31.5474 110.949 L 31.3476 111.752 L 31.2085 112.188 L 31.1332 112.645 L 31.0612 113.188 L 31.0121 113.519 L 30.9589 114.375 L 30.9543 114.395 L 30.9609 114.448 L 31.2008 115.194 L 31.3916 115.556 L 31.3917 115.556 L 31.6176 115.961 L 32.015 116.76 L 32.0433 116.855 L 32.0497 116.884 L 32.2724 117.73 L 32.3468 118.127 L 32.3469 118.127 L 32.4629 118.695 L 32.6011 119.424 L 32.6362 119.613 L 32.8308 120.674 L 32.8353 120.694 L 32.8835 120.915 L 33.035 121.647 L 33.0351 121.647 L 33.0478 121.707 L 33.286 122.737 L 33.2901 122.757 L 33.3031 122.803 L 33.5317 123.666 L 33.688 124.184 L 33.8471 124.601 L 34.1056 125.324 L 34.6326 125.45 L 34.897 124.837 L 34.9701 124.651 L 35.0479 123.881 L 35.1043 123.389 L 35.1761 122.704 L 35.1949 122.566 L 35.2957 121.612 L 35.364 121.286 L 35.4361 120.583 L 35.5847 119.553 L 35.585 119.55 L 35.5851 119.55 L 35.6725 118.487 L 35.7324 117.615 L 35.7275 117.554 L 35.7272 117.432 L 35.693 116.484 L 35.6558 115.559 L 35.6429 115.492 L 35.6299 115.419 L 35.4486 114.567 L 35.3165 113.807 L 35.2853 113.718 L 35.0513 113.05 L 35.0513 113.049 L 34.9602 112.803 L 34.9599 112.803 L 34.705 112.112 L 34.2607 111.088 L 34.2429 111.044 L 34.2256 111.007 L 33.7099 110.159 L 33.5547 109.881 L 32.9176 109.454 L 32.8353 109.366 L 32.7559 109.433" fill="none" stroke="#800080" stroke-width="0.05000" fill-rule="evenodd" fill-opacity="1.000"/>
    <path d="M 40.8397 105.12 L 40.9212 105.174 L 40.9212 105.174 L 41.7249 105.718 L 42.0638 105.898 L 42.5189 106.223 L 43.1563 106.544 L 43.49 106.607 L 43.9074 106.66 L 44.4559 106.765 L 45.0946 106.846 L 45.251 106.949 L 45.365 107.017 L 46.0594 107.454 L 46.7197 107.703 L 46.839 107.831 L 46.9927 107.88 L 47.239 107.95 L 47.7562 108.321 L 48.1005 108.589 L 48.4778 108.901 L 48.9671 109.334 L 49.1368 109.539 L 49.3615 109.963 L 49.3618 109.963 L 49.4499 110.134 L 49.4293 110.153 L 49.3475 109.994 L 49.3475 109.995 L 49.1142 109.554 L 48.9476 109.352 L 48.4603 108.922 L 48.0836 108.61 L 47.74 108.343 L 47.2271 107.974 L 46.9849 107.906 L 46.824 107.854 L 46.7043 107.726 L 46.0476 107.479 L 45.3509 107.039 L 45.2363 106.971 L 45.085 106.872 L 44.4522 106.791 L 43.9032 106.686 L 43.4861 106.634 L 43.1475 106.57 L 42.5049 106.246 L 42.0496 105.921 L 41.7107 105.741 L 40.8942 105.189 L 40.8942 105.188 L 40.8278 105.145 L 39.7824 104.798 L 38.8525 104.903 L 38.7253 104.934 L 38.2033 105.342 L 38.0357 105.462 L 38.0035 105.551 L 37.805 106.123 L 37.8524 106.33 L 38.0363 106.968 L 38.1688 107.142 L 38.572 107.719 L 38.6727 107.811 L 39.1365 108.282 L 39.4821 108.561 L 39.9344 108.989 L 40.4016 109.32 L 40.8405 109.66 L 41.287 109.868 L 41.8108 110.176 L 42.4136 110.474 L 42.4135 110.474 L 42.6251 110.577 L 42.9185 110.714 L 43.5323 110.921 L 44.0792 111.061 L 44.4107 111.149 L 44.6256 111.199 L 45.1965 111.265 L 45.9598 111.324 L 45.9599 111.324 L 46.0105 111.327 L 46.0104 111.327 L 46.0833 111.332 L 46.8086 111.274 L 47.4085 111.222 L 47.5815 111.21 L 47.7003 111.18 L 47.5588 111.224 L 47.5186 111.241 L 47.4108 111.249 L 47.4109 111.249 L 46.8108 111.301 L 46.0836 111.359 L 45.9826 111.353 L 45.9826 111.352 L 45.9593 111.351 L 45.9588 111.351 L 45.1939 111.291 L 44.621 111.226 L 44.4042 111.176 L 44.0725 111.087 L 44.0725 111.087 L 43.5246 110.947 L 42.9084 110.739 L 42.6135 110.602 L 42.3824 110.489 L 42.3824 110.489 L 41.798 110.2 L 41.2743 109.892 L 40.8264 109.684 L 40.386 109.342 L 39.9172 109.01 L 39.4642 108.582 L 39.1183 108.302 L 38.6545 107.83 L 38.6545 107.83 L 38.5516 107.737 L 38.1473 107.158 L 38.0118 106.98 L 37.8262 106.337 L 37.777 106.122 L 37.978 105.542 L 38.0132 105.445 L 38.1867 105.32 L 38.7133 104.909 L 38.8478 104.877 L 39.7853 104.77 L 40.8397 105.12" fill="none" stroke="#800080" stroke-width="0.05000" fill-rule="evenodd" fill-opacity="1.000"/>
    </g>
    <g class="thermal-contour" data-segment="20" data-name="CoreContourHatchOverhang">
    <path d="M 49.5372 110.303 L 49.4805 110.355 L 49.0894 110.696 L 48.42 110.992 L 48.35 111.032 L 48.1304 111.101 L 47.5858 111.236 L 47.5186 111.241 L 47.5588 111.224 L 47.7003 111.18 L 48.1231 111.075 L 48.3392 111.007 L 48.4079 110.968 L 49.0747 110.673 L 49.4625 110.335 L 49.5037 110.298 L 49.4293 110.153 L 49.4499 110.134 L 49.5372 110.303" fill="none" stroke="#E64A19" stroke-width="0.05000" fill-rule="evenodd" fill-opacity="1.000"/>
    </g>
    <!-- ===== Thermal Segment Colour Legend ===== -->
    <g id="thermal-legend">
    <rect x="161.0000" y="5.0000" width="40.0000" height="72.0000"
          rx="1" ry="1"
          fill="#fafafa" stroke="#cccccc" stroke-width="0.15"/>
    <text x="181.0000" y="7.6000" font-family="sans-serif" font-size="2.2000" font-weight="bold" fill="#222222" text-anchor="middle">Thermal Segments</text>
    <line x1="161.5000" y1="8.7000" x2="200.5000" y2="8.7000" stroke="#bbbbbb" stroke-width="0.1"/>
    <rect x="161.8000" y="9.0000" width="3.5000" height="2.0000" fill="#000000" stroke="#333333" stroke-width="0.08" rx="0.3" ry="0.3"/>
    <text x="168.6000" y="10.9000" font-family="monospace" font-size="1.6000" fill="#444444" text-anchor="end"> 1</text>
    <text x="169.6000" y="10.9000" font-family="sans-serif" font-size="1.6000" fill="#111111">CoreContour_Volume</text>
    <rect x="161.8000" y="12.0000" width="3.5000" height="2.0000" fill="#8B0000" stroke="#333333" stroke-width="0.08" rx="0.3" ry="0.3"/>
    <text x="168.6000" y="13.9000" font-family="monospace" font-size="1.6000" fill="#444444" text-anchor="end"> 2</text>
    <text x="169.6000" y="13.9000" font-family="sans-serif" font-size="1.6000" fill="#111111">CoreContour_Overhang</text>
    <rect x="161.8000" y="15.0000" width="3.5000" height="2.0000" fill="#0000CC" stroke="#333333" stroke-width="0.08" rx="0.3" ry="0.3"/>
    <text x="168.6000" y="16.9000" font-family="monospace" font-size="1.6000" fill="#444444" text-anchor="end"> 3</text>
    <text x="169.6000" y="16.9000" font-family="sans-serif" font-size="1.6000" fill="#111111">Shell1Contour_Volume</text>
    <rect x="161.8000" y="18.0000" width="3.5000" height="2.0000" fill="#000080" stroke="#333333" stroke-width="0.08" rx="0.3" ry="0.3"/>
    <text x="168.6000" y="19.9000" font-family="monospace" font-size="1.6000" fill="#444444" text-anchor="end"> 4</text>
    <text x="169.6000" y="19.9000" font-family="sans-serif" font-size="1.6000" fill="#111111">Shell1Contour_Overhang</text>
    <rect x="161.8000" y="21.0000" width="3.5000" height="2.0000" fill="#B8860B" stroke="#333333" stroke-width="0.08" rx="0.3" ry="0.3"/>
    <text x="168.6000" y="22.9000" font-family="monospace" font-size="1.6000" fill="#444444" text-anchor="end"> 5</text>
    <text x="169.6000" y="22.9000" font-family="sans-serif" font-size="1.6000" fill="#111111">Shell2Contour_Volume</text>
    <rect x="161.8000" y="24.0000" width="3.5000" height="2.0000" fill="#006400" stroke="#333333" stroke-width="0.08" rx="0.3" ry="0.3"/>
    <text x="168.6000" y="25.9000" font-family="monospace" font-size="1.6000" fill="#444444" text-anchor="end"> 6</text>
    <text x="169.6000" y="25.9000" font-family="sans-serif" font-size="1.6000" fill="#111111">Shell2Contour_Overhang</text>
    <rect x="161.8000" y="27.0000" width="3.5000" height="2.0000" fill="#FF8C00" stroke="#333333" stroke-width="0.08" rx="0.3" ry="0.3"/>
    <text x="168.6000" y="28.9000" font-family="monospace" font-size="1.6000" fill="#444444" text-anchor="end"> 7</text>
    <text x="169.6000" y="28.9000" font-family="sans-serif" font-size="1.6000" fill="#111111">CoreOverhangHatch</text>
    <rect x="161.8000" y="30.0000" width="3.5000" height="2.0000" fill="#228B22" stroke="#333333" stroke-width="0.08" rx="0.3" ry="0.3"/>
    <text x="168.6000" y="31.9000" font-family="monospace" font-size="1.6000" fill="#444444" text-anchor="end"> 8</text>
    <text x="169.6000" y="31.9000" font-family="sans-serif" font-size="1.6000" fill="#111111">CoreNormalHatch</text>
    <rect x="161.8000" y="33.0000" width="3.5000" height="2.0000" fill="#800080" stroke="#333333" stroke-width="0.08" rx="0.3" ry="0.3"/>
    <text x="168.6000" y="34.9000" font-family="monospace" font-size="1.6000" fill="#444444" text-anchor="end"> 9</text>
    <text x="169.6000" y="34.9000" font-family="sans-serif" font-size="1.6000" fill="#111111">CoreContourHatch</text>
    <rect x="161.8000" y="36.0000" width="3.5000" height="2.0000" fill="#FF69B4" stroke="#333333" stroke-width="0.08" rx="0.3" ry="0.3"/>
    <text x="168.6000" y="37.9000" font-family="monospace" font-size="1.6000" fill="#444444" text-anchor="end">10</text>
    <text x="169.6000" y="37.9000" font-family="sans-serif" font-size="1.6000" fill="#111111">Shell1OverhangHatch</text>
    <rect x="161.8000" y="39.0000" width="3.5000" height="2.0000" fill="#00CED1" stroke="#333333" stroke-width="0.08" rx="0.3" ry="0.3"/>
    <text x="168.6000" y="40.9000" font-family="monospace" font-size="1.6000" fill="#444444" text-anchor="end">11</text>
    <text x="169.6000" y="40.9000" font-family="sans-serif" font-size="1.6000" fill="#111111">Shell1NormalHatch</text>
    <rect x="161.8000" y="42.0000" width="3.5000" height="2.0000" fill="#FF00FF" stroke="#333333" stroke-width="0.08" rx="0.3" ry="0.3"/>
    <text x="168.6000" y="43.9000" font-family="monospace" font-size="1.6000" fill="#444444" text-anchor="end">12</text>
    <text x="169.6000" y="43.9000" font-family="sans-serif" font-size="1.6000" fill="#111111">Shell1ContourHatch</text>
    <rect x="161.8000" y="45.0000" width="3.5000" height="2.0000" fill="#A52A2A" stroke="#333333" stroke-width="0.08" rx="0.3" ry="0.3"/>
    <text x="168.6000" y="46.9000" font-family="monospace" font-size="1.6000" fill="#444444" text-anchor="end">13</text>
    <text x="169.6000" y="46.9000" font-family="sans-serif" font-size="1.6000" fill="#111111">Shell2OverhangHatch</text>
    <rect x="161.8000" y="48.0000" width="3.5000" height="2.0000" fill="#808080" stroke="#333333" stroke-width="0.08" rx="0.3" ry="0.3"/>
    <text x="168.6000" y="49.9000" font-family="monospace" font-size="1.6000" fill="#444444" text-anchor="end">14</text>
    <text x="169.6000" y="49.9000" font-family="sans-serif" font-size="1.6000" fill="#111111">Shell2NormalHatch</text>
    <rect x="161.8000" y="51.0000" width="3.5000" height="2.0000" fill="#32CD32" stroke="#333333" stroke-width="0.08" rx="0.3" ry="0.3"/>
    <text x="168.6000" y="52.9000" font-family="monospace" font-size="1.6000" fill="#444444" text-anchor="end">15</text>
    <text x="169.6000" y="52.9000" font-family="sans-serif" font-size="1.6000" fill="#111111">Shell2ContourHatch</text>
    <rect x="161.8000" y="54.0000" width="3.5000" height="2.0000" fill="#1A237E" stroke="#333333" stroke-width="0.08" rx="0.3" ry="0.3"/>
    <text x="168.6000" y="55.9000" font-family="monospace" font-size="1.6000" fill="#444444" text-anchor="end">16</text>
    <text x="169.6000" y="55.9000" font-family="sans-serif" font-size="1.6000" fill="#111111">SupportContourVolume</text>
    <rect x="161.8000" y="57.0000" width="3.5000" height="2.0000" fill="#827717" stroke="#333333" stroke-width="0.08" rx="0.3" ry="0.3"/>
    <text x="168.6000" y="58.9000" font-family="monospace" font-size="1.6000" fill="#444444" text-anchor="end">17</text>
    <text x="169.6000" y="58.9000" font-family="sans-serif" font-size="1.6000" fill="#111111">SupportHatch</text>
    <rect x="161.8000" y="60.0000" width="3.5000" height="2.0000" fill="#006064" stroke="#333333" stroke-width="0.08" rx="0.3" ry="0.3"/>
    <text x="168.6000" y="61.9000" font-family="monospace" font-size="1.6000" fill="#444444" text-anchor="end">18</text>
    <text x="169.6000" y="61.9000" font-family="sans-serif" font-size="1.6000" fill="#111111">PointSequence</text>
    <rect x="161.8000" y="63.0000" width="3.5000" height="2.0000" fill="#B71C1C" stroke="#333333" stroke-width="0.08" rx="0.3" ry="0.3"/>
    <text x="168.6000" y="64.9000" font-family="monospace" font-size="1.6000" fill="#444444" text-anchor="end">19</text>
    <text x="169.6000" y="64.9000" font-family="sans-serif" font-size="1.6000" fill="#111111">ExternalSupports</text>
    <rect x="161.8000" y="66.0000" width="3.5000" height="2.0000" fill="#E64A19" stroke="#333333" stroke-width="0.08" rx="0.3" ry="0.3"/>
    <text x="168.6000" y="67.9000" font-family="monospace" font-size="1.6000" fill="#444444" text-anchor="end">20</text>
    <text x="169.6000" y="67.9000" font-family="sans-serif" font-size="1.6000" fill="#111111">CoreContourHatchOverhang</text>
    <rect x="161.8000" y="69.0000" width="3.5000" height="2.0000" fill="#311B92" stroke="#333333" stroke-width="0.08" rx="0.3" ry="0.3"/>
    <text x="168.6000" y="70.9000" font-family="monospace" font-size="1.6000" fill="#444444" text-anchor="end">21</text>
    <text x="169.6000" y="70.9000" font-family="sans-serif" font-size="1.6000" fill="#111111">Shell1ContourHatchOverhang</text>
    <rect x="161.8000" y="72.0000" width="3.5000" height="2.0000" fill="#880E4F" stroke="#333333" stroke-width="0.08" rx="0.3" ry="0.3"/>
    <text x="168.6000" y="73.9000" font-family="monospace" font-size="1.6000" fill="#444444" text-anchor="end">22</text>
    <text x="169.6000" y="73.9000" font-family="sans-serif" font-size="1.6000" fill="#111111">Shell2ContourHatchOverhang</text>
    </g>
  </g>
</svg>
