<?xml version="1.0" encoding="UTF-8" standalone="yes"?>
<svg xmlns="http://www.w3.org/2000/svg"
     xmlns:xlink="http://www.w3.org/1999/xlink"
     width="2020.0000mm" height="1600.0000mm"
     viewBox="0 0 202.000000 160.000000">
  <!--
    Build plate : 150.00 x 150.00 mm
    Coordinate  : 1 SVG unit = 1 mm
    Display zoom: 10x  (width/height = viewBox x 10)
    Hatch stroke: 0.04 mm = ~28 mm on screen at this zoom
    Legend panel: right margin (42 mm wide)
  -->
  <defs>
    <marker id="endArrow" markerWidth="2" markerHeight="1.4"
            refX="0" refY="0.7" orient="auto"
            markerUnits="strokeWidth">
      <polyline fill="darkblue" points="0,0 2,0.7 0,1.4 0.2,0.7"/>
    </marker>
  </defs>
  <!-- Background -->
  <rect x="0" y="0" width="202.000000" height="160.000000" fill="#f0f0f0" stroke="none"/>
  <!-- Build plate boundary (150 x 150 mm) -->
  <rect x="5.000000" y="5.000000" width="150.000000" height="150.000000"
        fill="#ffffff" stroke="#aaaaaa" stroke-width="0.2" stroke-dasharray="1,0.5"/>
  <!-- Build plate centre circle (r = 75.00 mm) -->
  <circle cx="80.000000" cy="80.000000" r="75.000000"
          fill="none" stroke="#bbbbbb" stroke-width="0.15" stroke-dasharray="0.8,0.4"/>
  <!-- Centre cross-hair -->
  <line x1="5.000000" y1="80.000000" x2="155.000000" y2="80.000000" stroke="#cccccc" stroke-width="0.1"/>
  <line x1="80.000000" y1="5.000000" x2="80.000000" y2="155.000000" stroke="#cccccc" stroke-width="0.1"/>
  <circle cx="80.000000" cy="80.000000" r="0.3" fill="#cccccc" stroke="none"/>
  <!-- Corner labels -->
  <text x="5.400000" y="4.600000" font-family="sans-serif" font-size="2" fill="#888888">0,0</text>
  <text x="154.600006" y="4.600000" font-family="sans-serif" font-size="2" fill="#888888" text-anchor="end">150,0</text>
  <text x="5.400000" y="157.199997" font-family="sans-serif" font-size="2" fill="#888888">0,150</text>
  <!-- Layer geometry -->
  <g id="geometry">
    <g class="thermal-hatch" data-segment="8" data-name="CoreNormalHatch">
      <line x1="35.34028" y1="127.58910" x2="36.08463" y2="126.91888" stroke="#228B22" stroke-width="0.04000"/>
      <line x1="35.49021" y1="127.58867" x2="36.07896" y2="127.05856" stroke="#228B22" stroke-width="0.04000"/>
      <line x1="35.64014" y1="127.58823" x2="36.07329" y2="127.19823" stroke="#228B22" stroke-width="0.04000"/>
      <line x1="35.19227" y1="127.58781" x2="36.09031" y2="126.77921" stroke="#228B22" stroke-width="0.04000"/>
      <line x1="35.79007" y1="127.58780" x2="36.06761" y2="127.33790" stroke="#228B22" stroke-width="0.04000"/>
      <line x1="35.94001" y1="127.58736" x2="36.06194" y2="127.47758" stroke="#228B22" stroke-width="0.04000"/>
      <line x1="35.04768" y1="127.58344" x2="36.09121" y2="126.64384" stroke="#228B22" stroke-width="0.04000"/>
      <line x1="34.94563" y1="127.54076" x2="36.08564" y2="126.51429" stroke="#228B22" stroke-width="0.04000"/>
      <line x1="34.87482" y1="127.46996" x2="36.07400" y2="126.39021" stroke="#228B22" stroke-width="0.04000"/>
      <line x1="34.80605" y1="127.39730" x2="36.06093" y2="126.26741" stroke="#228B22" stroke-width="0.04000"/>
      <line x1="34.73767" y1="127.32432" x2="36.04765" y2="126.14481" stroke="#228B22" stroke-width="0.04000"/>
      <line x1="34.66928" y1="127.25134" x2="36.03436" y2="126.02222" stroke="#228B22" stroke-width="0.04000"/>
      <line x1="34.60089" y1="127.17834" x2="36.02106" y2="125.89961" stroke="#228B22" stroke-width="0.04000"/>
      <line x1="34.53251" y1="127.10535" x2="36.00777" y2="125.77702" stroke="#228B22" stroke-width="0.04000"/>
      <line x1="34.46412" y1="127.03237" x2="35.99448" y2="125.65443" stroke="#228B22" stroke-width="0.04000"/>
      <line x1="34.39574" y1="126.95939" x2="35.98119" y2="125.53183" stroke="#228B22" stroke-width="0.04000"/>
      <line x1="34.33183" y1="126.88235" x2="35.96700" y2="125.41004" stroke="#228B22" stroke-width="0.04000"/>
      <line x1="34.28660" y1="126.78853" x2="35.95125" y2="125.28967" stroke="#228B22" stroke-width="0.04000"/>
      <line x1="34.24136" y1="126.69469" x2="35.93549" y2="125.16929" stroke="#228B22" stroke-width="0.04000"/>
      <line x1="34.19613" y1="126.60085" x2="35.91974" y2="125.04891" stroke="#228B22" stroke-width="0.04000"/>
      <line x1="34.15089" y1="126.50701" x2="35.90398" y2="124.92853" stroke="#228B22" stroke-width="0.04000"/>
      <line x1="34.10567" y1="126.41319" x2="35.88823" y2="124.80815" stroke="#228B22" stroke-width="0.04000"/>
      <line x1="34.06043" y1="126.31934" x2="35.86149" y2="124.69766" stroke="#228B22" stroke-width="0.04000"/>
      <line x1="34.01520" y1="126.22551" x2="35.83298" y2="124.58878" stroke="#228B22" stroke-width="0.04000"/>
      <line x1="33.97165" y1="126.13016" x2="35.80447" y2="124.47988" stroke="#228B22" stroke-width="0.04000"/>
      <line x1="33.92813" y1="126.03478" x2="35.78679" y2="124.36124" stroke="#228B22" stroke-width="0.04000"/>
      <line x1="33.88477" y1="125.93927" x2="35.76910" y2="124.24260" stroke="#228B22" stroke-width="0.04000"/>
      <line x1="33.84219" y1="125.84303" x2="35.75142" y2="124.12395" stroke="#228B22" stroke-width="0.04000"/>
      <line x1="33.79963" y1="125.74680" x2="35.73374" y2="124.00532" stroke="#228B22" stroke-width="0.04000"/>
      <line x1="33.75706" y1="125.65057" x2="35.71605" y2="123.88667" stroke="#228B22" stroke-width="0.04000"/>
      <line x1="33.71449" y1="125.55434" x2="35.69836" y2="123.76804" stroke="#228B22" stroke-width="0.04000"/>
      <line x1="33.66959" y1="125.46019" x2="35.67928" y2="123.65066" stroke="#228B22" stroke-width="0.04000"/>
      <line x1="33.62189" y1="125.36858" x2="35.66019" y2="123.53329" stroke="#228B22" stroke-width="0.04000"/>
      <line x1="33.57419" y1="125.27696" x2="35.64110" y2="123.41591" stroke="#228B22" stroke-width="0.04000"/>
      <line x1="33.52649" y1="125.18536" x2="35.63054" y2="123.29086" stroke="#228B22" stroke-width="0.04000"/>
      <line x1="33.47878" y1="125.09374" x2="35.61153" y2="123.17341" stroke="#228B22" stroke-width="0.04000"/>
      <line x1="33.42959" y1="125.00347" x2="35.58457" y2="123.06312" stroke="#228B22" stroke-width="0.04000"/>
      <line x1="33.37959" y1="124.91393" x2="35.55762" y2="122.95283" stroke="#228B22" stroke-width="0.04000"/>
      <line x1="33.32959" y1="124.82439" x2="35.53066" y2="122.84254" stroke="#228B22" stroke-width="0.04000"/>
      <line x1="33.27959" y1="124.73484" x2="35.50370" y2="122.73225" stroke="#228B22" stroke-width="0.04000"/>
      <line x1="33.22960" y1="124.64529" x2="35.47675" y2="122.62195" stroke="#228B22" stroke-width="0.04000"/>
      <line x1="33.18106" y1="124.55444" x2="35.44979" y2="122.51166" stroke="#228B22" stroke-width="0.04000"/>
      <line x1="33.13271" y1="124.46341" x2="35.42426" y2="122.40009" stroke="#228B22" stroke-width="0.04000"/>
      <line x1="33.08435" y1="124.37239" x2="35.40072" y2="122.28671" stroke="#228B22" stroke-width="0.04000"/>
      <line x1="33.03599" y1="124.28136" x2="35.37718" y2="122.17335" stroke="#228B22" stroke-width="0.04000"/>
      <line x1="32.98764" y1="124.19035" x2="35.35365" y2="122.05997" stroke="#228B22" stroke-width="0.04000"/>
      <line x1="32.93956" y1="124.09907" x2="35.33011" y2="121.94660" stroke="#228B22" stroke-width="0.04000"/>
      <line x1="32.89527" y1="124.00438" x2="35.30657" y2="121.83324" stroke="#228B22" stroke-width="0.04000"/>
      <line x1="32.85098" y1="123.90970" x2="35.28304" y2="121.71986" stroke="#228B22" stroke-width="0.04000"/>
      <line x1="32.80669" y1="123.81501" x2="35.25711" y2="121.60865" stroke="#228B22" stroke-width="0.04000"/>
      <line x1="32.76241" y1="123.72032" x2="35.22726" y2="121.50096" stroke="#228B22" stroke-width="0.04000"/>
      <line x1="32.71519" y1="123.62828" x2="35.19741" y2="121.39327" stroke="#228B22" stroke-width="0.04000"/>
      <line x1="32.66110" y1="123.54241" x2="35.16756" y2="121.28558" stroke="#228B22" stroke-width="0.04000"/>
      <line x1="32.60702" y1="123.45654" x2="35.13772" y2="121.17789" stroke="#228B22" stroke-width="0.04000"/>
      <line x1="32.55294" y1="123.37067" x2="35.10787" y2="121.07021" stroke="#228B22" stroke-width="0.04000"/>
      <line x1="32.49886" y1="123.28481" x2="35.07802" y2="120.96252" stroke="#228B22" stroke-width="0.04000"/>
      <line x1="32.44297" y1="123.20056" x2="35.04818" y2="120.85483" stroke="#228B22" stroke-width="0.04000"/>
      <line x1="32.38462" y1="123.11854" x2="35.01833" y2="120.74714" stroke="#228B22" stroke-width="0.04000"/>
      <line x1="32.32627" y1="123.03651" x2="34.99074" y2="120.63742" stroke="#228B22" stroke-width="0.04000"/>
      <line x1="32.26791" y1="122.95450" x2="34.96602" y2="120.52511" stroke="#228B22" stroke-width="0.04000"/>
      <line x1="32.20956" y1="122.87247" x2="34.93942" y2="120.41450" stroke="#228B22" stroke-width="0.04000"/>
      <line x1="32.15574" y1="122.78638" x2="34.91282" y2="120.30389" stroke="#228B22" stroke-width="0.04000"/>
      <line x1="32.10347" y1="122.69888" x2="34.88622" y2="120.19328" stroke="#228B22" stroke-width="0.04000"/>
      <line x1="32.05120" y1="122.61137" x2="34.85962" y2="120.08266" stroke="#228B22" stroke-width="0.04000"/>
      <line x1="31.99893" y1="122.52387" x2="34.83293" y2="119.97212" stroke="#228B22" stroke-width="0.04000"/>
      <line x1="31.94666" y1="122.43638" x2="34.80392" y2="119.86369" stroke="#228B22" stroke-width="0.04000"/>
      <line x1="31.89190" y1="122.35111" x2="34.77492" y2="119.75523" stroke="#228B22" stroke-width="0.04000"/>
      <line x1="31.82929" y1="122.27293" x2="34.74520" y2="119.64743" stroke="#228B22" stroke-width="0.04000"/>
      <line x1="31.76668" y1="122.19474" x2="34.71431" y2="119.54068" stroke="#228B22" stroke-width="0.04000"/>
      <line x1="31.70407" y1="122.11655" x2="34.68359" y2="119.43378" stroke="#228B22" stroke-width="0.04000"/>
      <line x1="31.64146" y1="122.03836" x2="34.65288" y2="119.32687" stroke="#228B22" stroke-width="0.04000"/>
      <line x1="31.57885" y1="121.96017" x2="34.62216" y2="119.21996" stroke="#228B22" stroke-width="0.04000"/>
      <line x1="31.51624" y1="121.88199" x2="34.59145" y2="119.11306" stroke="#228B22" stroke-width="0.04000"/>
      <line x1="31.45146" y1="121.80575" x2="34.56073" y2="119.00615" stroke="#228B22" stroke-width="0.04000"/>
      <line x1="31.38222" y1="121.73354" x2="34.53001" y2="118.89925" stroke="#228B22" stroke-width="0.04000"/>
      <line x1="31.31297" y1="121.66132" x2="34.49939" y2="118.79225" stroke="#228B22" stroke-width="0.04000"/>
      <line x1="31.24674" y1="121.58639" x2="34.46892" y2="118.68513" stroke="#228B22" stroke-width="0.04000"/>
      <line x1="31.18106" y1="121.51097" x2="34.43844" y2="118.57800" stroke="#228B22" stroke-width="0.04000"/>
      <line x1="31.11533" y1="121.43559" x2="34.40797" y2="118.47088" stroke="#228B22" stroke-width="0.04000"/>
      <line x1="31.04900" y1="121.36075" x2="34.37749" y2="118.36375" stroke="#228B22" stroke-width="0.04000"/>
      <line x1="30.98267" y1="121.28590" x2="34.34702" y2="118.25663" stroke="#228B22" stroke-width="0.04000"/>
      <line x1="30.91635" y1="121.21106" x2="34.31290" y2="118.15279" stroke="#228B22" stroke-width="0.04000"/>
      <line x1="30.85002" y1="121.13622" x2="34.27032" y2="118.05656" stroke="#228B22" stroke-width="0.04000"/>
      <line x1="30.78370" y1="121.06138" x2="34.22992" y2="117.95838" stroke="#228B22" stroke-width="0.04000"/>
      <line x1="30.71737" y1="120.98653" x2="34.19188" y2="117.85807" stroke="#228B22" stroke-width="0.04000"/>
      <line x1="30.65104" y1="120.91169" x2="34.15384" y2="117.75776" stroke="#228B22" stroke-width="0.04000"/>
      <line x1="30.60612" y1="120.81757" x2="34.11471" y2="117.65842" stroke="#228B22" stroke-width="0.04000"/>
      <line x1="30.56237" y1="120.72240" x2="34.07446" y2="117.56011" stroke="#228B22" stroke-width="0.04000"/>
      <line x1="30.51861" y1="120.62724" x2="34.03419" y2="117.46179" stroke="#228B22" stroke-width="0.04000"/>
      <line x1="30.47486" y1="120.53207" x2="33.99393" y2="117.36348" stroke="#228B22" stroke-width="0.04000"/>
      <line x1="30.43111" y1="120.43690" x2="33.95367" y2="117.26517" stroke="#228B22" stroke-width="0.04000"/>
      <line x1="30.38736" y1="120.34173" x2="33.91326" y2="117.16699" stroke="#228B22" stroke-width="0.04000"/>
      <line x1="30.34361" y1="120.24657" x2="33.86844" y2="117.07279" stroke="#228B22" stroke-width="0.04000"/>
      <line x1="30.32748" y1="120.12653" x2="33.82362" y2="116.97858" stroke="#228B22" stroke-width="0.04000"/>
      <line x1="30.32784" y1="119.99164" x2="33.77879" y2="116.88438" stroke="#228B22" stroke-width="0.04000"/>
      <line x1="30.33196" y1="119.85336" x2="33.73397" y2="116.79018" stroke="#228B22" stroke-width="0.04000"/>
      <line x1="30.37184" y1="119.68289" x2="33.68623" y2="116.69859" stroke="#228B22" stroke-width="0.04000"/>
      <line x1="30.41172" y1="119.51242" x2="33.61813" y2="116.62535" stroke="#228B22" stroke-width="0.04000"/>
      <line x1="30.45477" y1="119.33910" x2="33.55003" y2="116.55211" stroke="#228B22" stroke-width="0.04000"/>
      <line x1="30.50627" y1="119.15816" x2="33.47108" y2="116.48862" stroke="#228B22" stroke-width="0.04000"/>
      <line x1="30.55777" y1="118.97723" x2="33.37694" y2="116.43884" stroke="#228B22" stroke-width="0.04000"/>
      <line x1="30.59238" y1="118.81149" x2="33.28279" y2="116.38904" stroke="#228B22" stroke-width="0.04000"/>
      <line x1="30.66407" y1="118.61238" x2="33.18864" y2="116.33925" stroke="#228B22" stroke-width="0.04000"/>
      <line x1="30.77570" y1="118.37731" x2="33.09450" y2="116.28945" stroke="#228B22" stroke-width="0.04000"/>
      <line x1="30.88733" y1="118.14223" x2="33.00035" y2="116.23966" stroke="#228B22" stroke-width="0.04000"/>
      <line x1="30.99896" y1="117.90716" x2="32.90620" y2="116.18987" stroke="#228B22" stroke-width="0.04000"/>
      <line x1="31.08124" y1="117.69851" x2="32.81205" y2="116.14008" stroke="#228B22" stroke-width="0.04000"/>
      <line x1="31.17504" y1="117.47949" x2="32.71791" y2="116.09029" stroke="#228B22" stroke-width="0.04000"/>
      <line x1="31.50233" y1="117.05023" x2="32.38992" y2="116.25104" stroke="#228B22" stroke-width="0.04000"/>
      <line x1="31.75364" y1="116.68938" x2="32.02520" y2="116.44487" stroke="#228B22" stroke-width="0.04000"/>
    </g>
    <g class="thermal-hatch" data-segment="8" data-name="CoreNormalHatch">
      <line x1="52.76344" y1="115.32660" x2="52.98544" y2="115.12670" stroke="#228B22" stroke-width="0.04000"/>
      <line x1="52.65310" y1="115.29139" x2="52.98768" y2="114.99013" stroke="#228B22" stroke-width="0.04000"/>
      <line x1="52.54276" y1="115.25617" x2="52.98992" y2="114.85355" stroke="#228B22" stroke-width="0.04000"/>
      <line x1="52.43242" y1="115.22096" x2="53.03648" y2="114.67706" stroke="#228B22" stroke-width="0.04000"/>
      <line x1="52.32207" y1="115.18575" x2="53.08801" y2="114.49610" stroke="#228B22" stroke-width="0.04000"/>
      <line x1="52.21173" y1="115.15054" x2="53.13954" y2="114.31513" stroke="#228B22" stroke-width="0.04000"/>
      <line x1="52.10139" y1="115.11533" x2="53.17477" y2="114.14885" stroke="#228B22" stroke-width="0.04000"/>
      <line x1="51.99105" y1="115.08012" x2="53.12524" y2="114.05889" stroke="#228B22" stroke-width="0.04000"/>
      <line x1="51.88158" y1="115.04413" x2="53.07570" y2="113.96893" stroke="#228B22" stroke-width="0.04000"/>
      <line x1="51.77512" y1="115.00541" x2="53.02616" y2="113.87897" stroke="#228B22" stroke-width="0.04000"/>
      <line x1="51.67351" y1="114.96235" x2="52.97662" y2="113.78902" stroke="#228B22" stroke-width="0.04000"/>
      <line x1="51.57257" y1="114.91866" x2="52.90801" y2="113.71623" stroke="#228B22" stroke-width="0.04000"/>
      <line x1="51.47273" y1="114.87400" x2="52.83838" y2="113.64436" stroke="#228B22" stroke-width="0.04000"/>
      <line x1="51.37288" y1="114.82934" x2="52.76875" y2="113.57249" stroke="#228B22" stroke-width="0.04000"/>
      <line x1="51.27304" y1="114.78468" x2="52.69912" y2="113.50063" stroke="#228B22" stroke-width="0.04000"/>
      <line x1="51.17319" y1="114.74001" x2="52.62948" y2="113.42876" stroke="#228B22" stroke-width="0.04000"/>
      <line x1="51.07335" y1="114.69535" x2="52.55803" y2="113.35854" stroke="#228B22" stroke-width="0.04000"/>
      <line x1="50.97350" y1="114.65069" x2="52.47213" y2="113.30132" stroke="#228B22" stroke-width="0.04000"/>
      <line x1="50.87391" y1="114.60580" x2="52.38623" y2="113.24410" stroke="#228B22" stroke-width="0.04000"/>
      <line x1="50.77598" y1="114.55942" x2="52.30033" y2="113.18688" stroke="#228B22" stroke-width="0.04000"/>
      <line x1="50.67318" y1="114.51740" x2="52.21442" y2="113.12966" stroke="#228B22" stroke-width="0.04000"/>
      <line x1="50.56907" y1="114.47659" x2="52.12852" y2="113.07245" stroke="#228B22" stroke-width="0.04000"/>
      <line x1="50.46495" y1="114.43578" x2="52.04262" y2="113.01523" stroke="#228B22" stroke-width="0.04000"/>
      <line x1="50.36084" y1="114.39496" x2="51.95672" y2="112.95802" stroke="#228B22" stroke-width="0.04000"/>
      <line x1="50.25672" y1="114.35414" x2="51.87082" y2="112.90080" stroke="#228B22" stroke-width="0.04000"/>
      <line x1="50.15261" y1="114.31332" x2="51.78442" y2="112.84403" stroke="#228B22" stroke-width="0.04000"/>
      <line x1="50.04849" y1="114.27251" x2="51.69456" y2="112.79037" stroke="#228B22" stroke-width="0.04000"/>
      <line x1="49.94220" y1="114.23363" x2="51.59738" y2="112.74331" stroke="#228B22" stroke-width="0.04000"/>
      <line x1="49.83305" y1="114.19736" x2="51.50020" y2="112.69625" stroke="#228B22" stroke-width="0.04000"/>
      <line x1="49.72390" y1="114.16108" x2="51.40302" y2="112.64919" stroke="#228B22" stroke-width="0.04000"/>
      <line x1="49.61363" y1="114.12580" x2="51.30873" y2="112.59953" stroke="#228B22" stroke-width="0.04000"/>
      <line x1="49.50090" y1="114.09274" x2="51.21533" y2="112.54906" stroke="#228B22" stroke-width="0.04000"/>
      <line x1="49.38816" y1="114.05968" x2="51.12194" y2="112.49859" stroke="#228B22" stroke-width="0.04000"/>
      <line x1="49.27543" y1="114.02663" x2="51.02854" y2="112.44812" stroke="#228B22" stroke-width="0.04000"/>
      <line x1="49.16270" y1="113.99357" x2="50.93407" y2="112.39862" stroke="#228B22" stroke-width="0.04000"/>
      <line x1="49.04806" y1="113.96223" x2="50.83374" y2="112.35439" stroke="#228B22" stroke-width="0.04000"/>
      <line x1="48.92975" y1="113.93418" x2="50.73549" y2="112.30830" stroke="#228B22" stroke-width="0.04000"/>
      <line x1="48.81145" y1="113.90614" x2="50.64193" y2="112.25797" stroke="#228B22" stroke-width="0.04000"/>
      <line x1="48.69315" y1="113.87810" x2="50.54837" y2="112.20766" stroke="#228B22" stroke-width="0.04000"/>
      <line x1="48.57485" y1="113.85005" x2="50.45481" y2="112.15733" stroke="#228B22" stroke-width="0.04000"/>
      <line x1="48.45654" y1="113.82201" x2="50.36124" y2="112.10701" stroke="#228B22" stroke-width="0.04000"/>
      <line x1="48.33736" y1="113.79476" x2="50.26768" y2="112.05669" stroke="#228B22" stroke-width="0.04000"/>
      <line x1="48.22736" y1="113.75925" x2="50.17412" y2="112.00637" stroke="#228B22" stroke-width="0.04000"/>
      <line x1="48.11783" y1="113.72330" x2="50.07865" y2="111.95778" stroke="#228B22" stroke-width="0.04000"/>
      <line x1="48.00830" y1="113.68736" x2="49.97872" y2="111.91319" stroke="#228B22" stroke-width="0.04000"/>
      <line x1="47.89877" y1="113.65142" x2="49.87880" y2="111.86860" stroke="#228B22" stroke-width="0.04000"/>
      <line x1="47.78924" y1="113.61548" x2="49.77887" y2="111.82401" stroke="#228B22" stroke-width="0.04000"/>
      <line x1="47.67971" y1="113.57954" x2="49.67893" y2="111.77942" stroke="#228B22" stroke-width="0.04000"/>
      <line x1="47.57018" y1="113.54359" x2="49.57901" y2="111.73483" stroke="#228B22" stroke-width="0.04000"/>
      <line x1="47.45416" y1="113.51349" x2="49.47908" y2="111.69025" stroke="#228B22" stroke-width="0.04000"/>
      <line x1="47.33263" y1="113.48835" x2="49.39027" y2="111.63565" stroke="#228B22" stroke-width="0.04000"/>
      <line x1="47.22997" y1="113.44623" x2="49.30293" y2="111.57973" stroke="#228B22" stroke-width="0.04000"/>
      <line x1="47.13024" y1="113.40147" x2="49.20700" y2="111.53154" stroke="#228B22" stroke-width="0.04000"/>
      <line x1="47.03049" y1="113.35671" x2="49.10935" y2="111.48490" stroke="#228B22" stroke-width="0.04000"/>
      <line x1="46.93076" y1="113.31196" x2="49.01170" y2="111.43826" stroke="#228B22" stroke-width="0.04000"/>
      <line x1="46.83101" y1="113.26720" x2="48.91693" y2="111.38903" stroke="#228B22" stroke-width="0.04000"/>
      <line x1="46.73127" y1="113.22244" x2="48.82425" y2="111.33792" stroke="#228B22" stroke-width="0.04000"/>
      <line x1="46.63153" y1="113.17769" x2="48.73156" y2="111.28680" stroke="#228B22" stroke-width="0.04000"/>
      <line x1="46.52022" y1="113.14335" x2="48.63888" y2="111.23569" stroke="#228B22" stroke-width="0.04000"/>
      <line x1="46.40532" y1="113.11224" x2="48.54620" y2="111.18459" stroke="#228B22" stroke-width="0.04000"/>
      <line x1="46.29042" y1="113.08113" x2="48.45352" y2="111.13347" stroke="#228B22" stroke-width="0.04000"/>
      <line x1="46.18687" y1="113.03981" x2="48.35545" y2="111.08721" stroke="#228B22" stroke-width="0.04000"/>
      <line x1="46.09231" y1="112.99038" x2="48.25643" y2="111.04180" stroke="#228B22" stroke-width="0.04000"/>
      <line x1="45.99776" y1="112.94096" x2="48.15741" y2="110.99640" stroke="#228B22" stroke-width="0.04000"/>
      <line x1="45.90320" y1="112.89153" x2="48.07402" y2="110.93691" stroke="#228B22" stroke-width="0.04000"/>
      <line x1="45.80865" y1="112.84211" x2="47.99166" y2="110.87651" stroke="#228B22" stroke-width="0.04000"/>
      <line x1="45.71409" y1="112.79269" x2="47.90930" y2="110.81611" stroke="#228B22" stroke-width="0.04000"/>
      <line x1="45.61866" y1="112.74405" x2="47.82693" y2="110.75571" stroke="#228B22" stroke-width="0.04000"/>
      <line x1="45.52057" y1="112.69781" x2="47.74457" y2="110.69530" stroke="#228B22" stroke-width="0.04000"/>
      <line x1="45.42355" y1="112.65060" x2="47.65680" y2="110.63976" stroke="#228B22" stroke-width="0.04000"/>
      <line x1="45.32890" y1="112.60126" x2="47.56385" y2="110.58890" stroke="#228B22" stroke-width="0.04000"/>
      <line x1="45.23425" y1="112.55191" x2="47.47089" y2="110.53803" stroke="#228B22" stroke-width="0.04000"/>
      <line x1="45.14002" y1="112.50220" x2="47.37794" y2="110.48717" stroke="#228B22" stroke-width="0.04000"/>
      <line x1="45.05078" y1="112.44799" x2="47.28498" y2="110.43630" stroke="#228B22" stroke-width="0.04000"/>
      <line x1="44.96154" y1="112.39378" x2="47.19203" y2="110.38544" stroke="#228B22" stroke-width="0.04000"/>
      <line x1="44.87230" y1="112.33957" x2="47.09908" y2="110.33456" stroke="#228B22" stroke-width="0.04000"/>
      <line x1="44.78306" y1="112.28536" x2="47.00756" y2="110.28241" stroke="#228B22" stroke-width="0.04000"/>
      <line x1="44.69382" y1="112.23115" x2="46.93270" y2="110.21525" stroke="#228B22" stroke-width="0.04000"/>
      <line x1="44.60807" y1="112.17379" x2="46.85642" y2="110.14936" stroke="#228B22" stroke-width="0.04000"/>
      <line x1="44.52398" y1="112.11494" x2="46.78012" y2="110.08350" stroke="#228B22" stroke-width="0.04000"/>
      <line x1="44.43990" y1="112.05608" x2="46.70382" y2="110.01764" stroke="#228B22" stroke-width="0.04000"/>
      <line x1="44.35582" y1="111.99723" x2="46.62752" y2="109.95177" stroke="#228B22" stroke-width="0.04000"/>
      <line x1="44.27173" y1="111.93838" x2="46.55122" y2="109.88592" stroke="#228B22" stroke-width="0.04000"/>
      <line x1="44.18765" y1="111.87952" x2="46.47492" y2="109.82005" stroke="#228B22" stroke-width="0.04000"/>
      <line x1="44.10357" y1="111.82067" x2="46.39862" y2="109.75420" stroke="#228B22" stroke-width="0.04000"/>
      <line x1="44.01948" y1="111.76182" x2="46.32232" y2="109.68833" stroke="#228B22" stroke-width="0.04000"/>
      <line x1="43.93542" y1="111.70293" x2="46.24945" y2="109.61937" stroke="#228B22" stroke-width="0.04000"/>
      <line x1="43.85384" y1="111.64184" x2="46.18701" y2="109.54104" stroke="#228B22" stroke-width="0.04000"/>
      <line x1="43.77224" y1="111.58073" x2="46.12457" y2="109.46270" stroke="#228B22" stroke-width="0.04000"/>
      <line x1="43.69275" y1="111.51775" x2="46.06211" y2="109.38436" stroke="#228B22" stroke-width="0.04000"/>
      <line x1="43.61527" y1="111.45295" x2="45.99967" y2="109.30603" stroke="#228B22" stroke-width="0.04000"/>
      <line x1="43.53779" y1="111.38815" x2="45.93722" y2="109.22769" stroke="#228B22" stroke-width="0.04000"/>
      <line x1="43.46032" y1="111.32335" x2="45.86810" y2="109.15537" stroke="#228B22" stroke-width="0.04000"/>
      <line x1="43.38284" y1="111.25854" x2="45.79738" y2="109.08447" stroke="#228B22" stroke-width="0.04000"/>
      <line x1="43.30536" y1="111.19374" x2="45.72667" y2="109.01359" stroke="#228B22" stroke-width="0.04000"/>
      <line x1="43.22789" y1="111.12894" x2="45.65596" y2="108.94270" stroke="#228B22" stroke-width="0.04000"/>
      <line x1="43.15154" y1="111.06312" x2="45.58953" y2="108.86795" stroke="#228B22" stroke-width="0.04000"/>
      <line x1="43.07616" y1="110.99642" x2="45.52563" y2="108.79091" stroke="#228B22" stroke-width="0.04000"/>
      <line x1="43.00079" y1="110.92973" x2="45.46174" y2="108.71388" stroke="#228B22" stroke-width="0.04000"/>
      <line x1="42.92541" y1="110.86304" x2="45.39785" y2="108.63684" stroke="#228B22" stroke-width="0.04000"/>
      <line x1="42.85003" y1="110.79634" x2="45.33395" y2="108.55981" stroke="#228B22" stroke-width="0.04000"/>
      <line x1="42.77465" y1="110.72965" x2="45.27007" y2="108.48277" stroke="#228B22" stroke-width="0.04000"/>
      <line x1="42.69928" y1="110.66296" x2="45.20658" y2="108.40537" stroke="#228B22" stroke-width="0.04000"/>
      <line x1="42.62390" y1="110.59627" x2="45.14405" y2="108.32712" stroke="#228B22" stroke-width="0.04000"/>
      <line x1="42.54852" y1="110.52957" x2="45.08151" y2="108.24886" stroke="#228B22" stroke-width="0.04000"/>
      <line x1="42.47314" y1="110.46288" x2="45.01464" y2="108.17451" stroke="#228B22" stroke-width="0.04000"/>
      <line x1="42.40537" y1="110.38934" x2="44.94358" y2="108.10392" stroke="#228B22" stroke-width="0.04000"/>
      <line x1="42.33813" y1="110.31532" x2="44.87254" y2="108.03333" stroke="#228B22" stroke-width="0.04000"/>
      <line x1="42.27089" y1="110.24129" x2="44.80148" y2="107.96275" stroke="#228B22" stroke-width="0.04000"/>
      <line x1="42.20366" y1="110.16727" x2="44.73376" y2="107.88915" stroke="#228B22" stroke-width="0.04000"/>
      <line x1="42.13642" y1="110.09325" x2="44.66616" y2="107.81546" stroke="#228B22" stroke-width="0.04000"/>
      <line x1="42.06918" y1="110.01923" x2="44.59855" y2="107.74177" stroke="#228B22" stroke-width="0.04000"/>
      <line x1="42.00195" y1="109.94521" x2="44.53095" y2="107.66808" stroke="#228B22" stroke-width="0.04000"/>
      <line x1="41.93471" y1="109.87118" x2="44.46334" y2="107.59439" stroke="#228B22" stroke-width="0.04000"/>
      <line x1="41.86747" y1="109.79716" x2="44.38961" y2="107.52621" stroke="#228B22" stroke-width="0.04000"/>
      <line x1="41.82140" y1="109.70408" x2="44.31154" y2="107.46194" stroke="#228B22" stroke-width="0.04000"/>
      <line x1="41.77675" y1="109.60972" x2="44.23347" y2="107.39768" stroke="#228B22" stroke-width="0.04000"/>
      <line x1="41.73210" y1="109.51536" x2="44.15540" y2="107.33341" stroke="#228B22" stroke-width="0.04000"/>
      <line x1="41.68745" y1="109.42100" x2="44.06052" y2="107.28428" stroke="#228B22" stroke-width="0.04000"/>
      <line x1="41.64280" y1="109.32664" x2="43.95365" y2="107.24594" stroke="#228B22" stroke-width="0.04000"/>
      <line x1="41.58970" y1="109.23988" x2="43.84678" y2="107.20760" stroke="#228B22" stroke-width="0.04000"/>
      <line x1="41.53260" y1="109.15674" x2="43.73992" y2="107.16925" stroke="#228B22" stroke-width="0.04000"/>
      <line x1="41.47549" y1="109.07359" x2="43.63306" y2="107.13091" stroke="#228B22" stroke-width="0.04000"/>
      <line x1="41.41838" y1="108.99046" x2="43.52476" y2="107.09386" stroke="#228B22" stroke-width="0.04000"/>
      <line x1="41.36127" y1="108.90731" x2="43.41011" y2="107.06252" stroke="#228B22" stroke-width="0.04000"/>
      <line x1="41.30416" y1="108.82417" x2="43.29547" y2="107.03119" stroke="#228B22" stroke-width="0.04000"/>
      <line x1="41.28883" y1="108.70341" x2="43.18082" y2="106.99985" stroke="#228B22" stroke-width="0.04000"/>
      <line x1="41.30212" y1="108.55688" x2="43.03236" y2="106.99896" stroke="#228B22" stroke-width="0.04000"/>
      <line x1="41.31542" y1="108.41034" x2="42.84161" y2="107.03616" stroke="#228B22" stroke-width="0.04000"/>
      <line x1="41.32872" y1="108.26381" x2="42.65086" y2="107.07334" stroke="#228B22" stroke-width="0.04000"/>
      <line x1="41.34201" y1="108.11727" x2="42.46269" y2="107.10821" stroke="#228B22" stroke-width="0.04000"/>
      <line x1="41.35331" y1="107.97253" x2="42.28370" y2="107.13480" stroke="#228B22" stroke-width="0.04000"/>
      <line x1="41.36672" y1="107.82590" x2="42.10472" y2="107.16140" stroke="#228B22" stroke-width="0.04000"/>
    </g>
    <g class="thermal-hatch" data-segment="8" data-name="CoreNormalHatch">
      <line x1="33.33140" y1="116.74290" x2="33.45180" y2="116.87230" stroke="#228B22" stroke-width="0.04000"/>
      <line x1="33.45180" y1="116.87230" x2="33.65000" y2="117.28900" stroke="#228B22" stroke-width="0.04000"/>
      <line x1="33.65000" y1="117.28900" x2="33.86370" y2="117.81060" stroke="#228B22" stroke-width="0.04000"/>
      <line x1="33.86370" y1="117.81060" x2="33.97970" y2="118.11630" stroke="#228B22" stroke-width="0.04000"/>
      <line x1="33.97970" y1="118.11630" x2="34.05190" y2="118.28030" stroke="#228B22" stroke-width="0.04000"/>
      <line x1="34.05190" y1="118.28030" x2="34.23250" y2="118.91350" stroke="#228B22" stroke-width="0.04000"/>
      <line x1="34.23250" y1="118.91350" x2="34.45710" y2="119.69540" stroke="#228B22" stroke-width="0.04000"/>
      <line x1="34.45710" y1="119.69540" x2="34.47650" y2="119.76190" stroke="#228B22" stroke-width="0.04000"/>
      <line x1="34.47650" y1="119.76190" x2="34.55380" y2="120.05080" stroke="#228B22" stroke-width="0.04000"/>
      <line x1="34.55380" y1="120.05080" x2="34.69710" y2="120.64750" stroke="#228B22" stroke-width="0.04000"/>
      <line x1="34.69710" y1="120.64750" x2="34.71510" y2="120.73920" stroke="#228B22" stroke-width="0.04000"/>
      <line x1="34.71510" y1="120.73920" x2="34.99160" y2="121.73700" stroke="#228B22" stroke-width="0.04000"/>
      <line x1="34.99160" y1="121.73700" x2="34.99650" y2="121.76650" stroke="#228B22" stroke-width="0.04000"/>
      <line x1="34.99650" y1="121.76650" x2="35.15110" y2="122.51110" stroke="#228B22" stroke-width="0.04000"/>
      <line x1="35.15110" y1="122.51110" x2="35.33920" y2="123.28030" stroke="#228B22" stroke-width="0.04000"/>
      <line x1="35.33920" y1="123.28030" x2="35.34850" y2="123.42350" stroke="#228B22" stroke-width="0.04000"/>
      <line x1="35.34850" y1="123.42350" x2="35.41200" y2="123.81360" stroke="#228B22" stroke-width="0.04000"/>
      <line x1="35.41200" y1="123.81360" x2="35.41200" y2="123.81370" stroke="#228B22" stroke-width="0.04000"/>
      <line x1="35.41200" y1="123.81370" x2="35.52000" y2="124.53830" stroke="#228B22" stroke-width="0.04000"/>
      <line x1="35.52000" y1="124.53830" x2="35.60060" y2="124.84620" stroke="#228B22" stroke-width="0.04000"/>
      <line x1="35.60060" y1="124.84620" x2="35.68490" y2="125.48980" stroke="#228B22" stroke-width="0.04000"/>
      <line x1="35.68490" y1="125.48980" x2="35.68490" y2="125.48990" stroke="#228B22" stroke-width="0.04000"/>
      <line x1="35.68490" y1="125.48990" x2="35.78390" y2="126.40310" stroke="#228B22" stroke-width="0.04000"/>
      <line x1="35.78390" y1="126.40310" x2="35.79800" y2="126.55540" stroke="#228B22" stroke-width="0.04000"/>
      <line x1="35.79800" y1="126.55540" x2="35.80290" y2="126.70800" stroke="#228B22" stroke-width="0.04000"/>
      <line x1="35.80290" y1="126.70800" x2="35.77890" y2="127.29760" stroke="#228B22" stroke-width="0.04000"/>
      <line x1="35.77890" y1="127.29760" x2="35.25240" y2="127.29910" stroke="#228B22" stroke-width="0.04000"/>
      <line x1="35.25240" y1="127.29910" x2="35.10970" y2="127.29480" stroke="#228B22" stroke-width="0.04000"/>
      <line x1="35.10970" y1="127.29480" x2="35.07580" y2="127.26090" stroke="#228B22" stroke-width="0.04000"/>
      <line x1="35.07580" y1="127.26090" x2="34.58230" y2="126.73430" stroke="#228B22" stroke-width="0.04000"/>
      <line x1="34.58230" y1="126.73430" x2="34.27580" y2="126.09820" stroke="#228B22" stroke-width="0.04000"/>
      <line x1="34.27580" y1="126.09820" x2="34.15550" y2="125.83450" stroke="#228B22" stroke-width="0.04000"/>
      <line x1="34.15550" y1="125.83450" x2="33.95280" y2="125.37590" stroke="#228B22" stroke-width="0.04000"/>
      <line x1="33.95280" y1="125.37590" x2="33.71740" y2="124.92410" stroke="#228B22" stroke-width="0.04000"/>
      <line x1="33.71740" y1="124.92410" x2="33.47730" y2="124.49400" stroke="#228B22" stroke-width="0.04000"/>
      <line x1="33.47730" y1="124.49400" x2="33.20290" y2="123.97760" stroke="#228B22" stroke-width="0.04000"/>
      <line x1="33.20290" y1="123.97760" x2="32.98630" y2="123.51480" stroke="#228B22" stroke-width="0.04000"/>
      <line x1="32.98630" y1="123.51480" x2="32.70860" y2="123.07370" stroke="#228B22" stroke-width="0.04000"/>
      <line x1="32.70860" y1="123.07370" x2="32.43730" y2="122.69230" stroke="#228B22" stroke-width="0.04000"/>
      <line x1="32.43730" y1="122.69230" x2="32.14570" y2="122.20410" stroke="#228B22" stroke-width="0.04000"/>
      <line x1="32.14570" y1="122.20410" x2="31.69230" y2="121.63790" stroke="#228B22" stroke-width="0.04000"/>
      <line x1="31.69230" y1="121.63790" x2="31.51720" y2="121.45540" stroke="#228B22" stroke-width="0.04000"/>
      <line x1="31.51720" y1="121.45540" x2="31.33730" y2="121.24890" stroke="#228B22" stroke-width="0.04000"/>
      <line x1="31.33730" y1="121.24890" x2="30.89340" y2="120.74800" stroke="#228B22" stroke-width="0.04000"/>
      <line x1="30.89340" y1="120.74800" x2="30.61730" y2="120.14750" stroke="#228B22" stroke-width="0.04000"/>
      <line x1="30.61730" y1="120.14750" x2="30.61790" y2="119.90350" stroke="#228B22" stroke-width="0.04000"/>
      <line x1="30.61790" y1="119.90350" x2="30.72090" y2="119.46300" stroke="#228B22" stroke-width="0.04000"/>
      <line x1="30.72090" y1="119.46300" x2="30.86340" y2="118.96280" stroke="#228B22" stroke-width="0.04000"/>
      <line x1="30.86340" y1="118.96280" x2="30.88320" y2="118.82620" stroke="#228B22" stroke-width="0.04000"/>
      <line x1="30.88320" y1="118.82620" x2="31.30030" y2="117.94840" stroke="#228B22" stroke-width="0.04000"/>
      <line x1="31.30030" y1="117.94840" x2="31.40290" y2="117.65860" stroke="#228B22" stroke-width="0.04000"/>
      <line x1="31.40290" y1="117.65860" x2="31.84940" y2="117.07320" stroke="#228B22" stroke-width="0.04000"/>
      <line x1="31.84940" y1="117.07320" x2="32.05580" y2="116.75670" stroke="#228B22" stroke-width="0.04000"/>
      <line x1="32.05580" y1="116.75670" x2="32.70510" y2="116.41160" stroke="#228B22" stroke-width="0.04000"/>
      <line x1="32.70510" y1="116.41160" x2="33.33140" y2="116.74290" stroke="#228B22" stroke-width="0.04000"/>
      <line x1="43.45990" y1="107.37670" x2="43.97750" y2="107.56240" stroke="#228B22" stroke-width="0.04000"/>
      <line x1="43.97750" y1="107.56240" x2="44.23510" y2="107.77450" stroke="#228B22" stroke-width="0.04000"/>
      <line x1="44.23510" y1="107.77450" x2="44.59000" y2="108.16140" stroke="#228B22" stroke-width="0.04000"/>
      <line x1="44.59000" y1="108.16140" x2="44.83380" y2="108.40350" stroke="#228B22" stroke-width="0.04000"/>
      <line x1="44.83380" y1="108.40350" x2="45.00050" y2="108.61180" stroke="#228B22" stroke-width="0.04000"/>
      <line x1="45.00050" y1="108.61180" x2="45.41500" y2="109.11170" stroke="#228B22" stroke-width="0.04000"/>
      <line x1="45.41500" y1="109.11170" x2="45.70850" y2="109.40580" stroke="#228B22" stroke-width="0.04000"/>
      <line x1="45.70850" y1="109.40580" x2="46.05500" y2="109.84060" stroke="#228B22" stroke-width="0.04000"/>
      <line x1="46.05500" y1="109.84060" x2="46.73200" y2="110.42490" stroke="#228B22" stroke-width="0.04000"/>
      <line x1="46.73200" y1="110.42490" x2="46.73200" y2="110.42500" stroke="#228B22" stroke-width="0.04000"/>
      <line x1="46.73200" y1="110.42500" x2="46.78620" y2="110.47270" stroke="#228B22" stroke-width="0.04000"/>
      <line x1="46.78620" y1="110.47270" x2="46.84210" y2="110.52450" stroke="#228B22" stroke-width="0.04000"/>
      <line x1="46.84210" y1="110.52450" x2="47.54830" y2="110.91090" stroke="#228B22" stroke-width="0.04000"/>
      <line x1="47.54830" y1="110.91090" x2="48.00370" y2="111.24500" stroke="#228B22" stroke-width="0.04000"/>
      <line x1="48.00370" y1="111.24500" x2="48.30810" y2="111.38450" stroke="#228B22" stroke-width="0.04000"/>
      <line x1="48.30810" y1="111.38450" x2="48.83790" y2="111.67670" stroke="#228B22" stroke-width="0.04000"/>
      <line x1="48.83790" y1="111.67670" x2="49.14700" y2="111.82420" stroke="#228B22" stroke-width="0.04000"/>
      <line x1="49.14700" y1="111.82420" x2="49.32940" y2="111.94100" stroke="#228B22" stroke-width="0.04000"/>
      <line x1="49.32940" y1="111.94100" x2="49.97920" y2="112.23080" stroke="#228B22" stroke-width="0.04000"/>
      <line x1="49.97920" y1="112.23080" x2="50.63680" y2="112.58440" stroke="#228B22" stroke-width="0.04000"/>
      <line x1="50.63680" y1="112.58440" x2="50.82150" y2="112.66590" stroke="#228B22" stroke-width="0.04000"/>
      <line x1="50.82150" y1="112.66590" x2="51.24770" y2="112.89610" stroke="#228B22" stroke-width="0.04000"/>
      <line x1="51.24770" y1="112.89610" x2="51.58130" y2="113.05770" stroke="#228B22" stroke-width="0.04000"/>
      <line x1="51.58130" y1="113.05770" x2="51.72070" y2="113.14920" stroke="#228B22" stroke-width="0.04000"/>
      <line x1="51.72070" y1="113.14920" x2="51.72070" y2="113.14910" stroke="#228B22" stroke-width="0.04000"/>
      <line x1="51.72070" y1="113.14910" x2="52.38080" y2="113.58870" stroke="#228B22" stroke-width="0.04000"/>
      <line x1="52.38080" y1="113.58870" x2="52.73860" y2="113.95810" stroke="#228B22" stroke-width="0.04000"/>
      <line x1="52.73860" y1="113.95810" x2="52.87100" y2="114.19850" stroke="#228B22" stroke-width="0.04000"/>
      <line x1="52.87100" y1="114.19850" x2="52.70070" y2="114.79690" stroke="#228B22" stroke-width="0.04000"/>
      <line x1="52.70070" y1="114.79690" x2="52.69720" y2="115.00090" stroke="#228B22" stroke-width="0.04000"/>
      <line x1="52.69720" y1="115.00090" x2="52.05480" y2="114.79610" stroke="#228B22" stroke-width="0.04000"/>
      <line x1="52.05480" y1="114.79610" x2="52.05490" y2="114.79610" stroke="#228B22" stroke-width="0.04000"/>
      <line x1="52.05490" y1="114.79610" x2="51.93470" y2="114.75610" stroke="#228B22" stroke-width="0.04000"/>
      <line x1="51.93470" y1="114.75610" x2="51.91760" y2="114.75080" stroke="#228B22" stroke-width="0.04000"/>
      <line x1="51.91760" y1="114.75080" x2="51.72600" y2="114.66960" stroke="#228B22" stroke-width="0.04000"/>
      <line x1="51.72600" y1="114.66960" x2="51.00860" y2="114.34860" stroke="#228B22" stroke-width="0.04000"/>
      <line x1="51.00860" y1="114.34860" x2="51.00850" y2="114.34860" stroke="#228B22" stroke-width="0.04000"/>
      <line x1="51.00850" y1="114.34860" x2="50.87020" y2="114.28310" stroke="#228B22" stroke-width="0.04000"/>
      <line x1="50.87020" y1="114.28310" x2="50.08790" y2="113.97640" stroke="#228B22" stroke-width="0.04000"/>
      <line x1="50.08790" y1="113.97640" x2="49.73540" y2="113.85920" stroke="#228B22" stroke-width="0.04000"/>
      <line x1="49.73540" y1="113.85920" x2="49.16270" y2="113.69140" stroke="#228B22" stroke-width="0.04000"/>
      <line x1="49.16270" y1="113.69140" x2="48.44160" y2="113.52040" stroke="#228B22" stroke-width="0.04000"/>
      <line x1="48.44160" y1="113.52040" x2="48.40750" y2="113.51310" stroke="#228B22" stroke-width="0.04000"/>
      <line x1="48.40750" y1="113.51310" x2="47.59470" y2="113.24640" stroke="#228B22" stroke-width="0.04000"/>
      <line x1="47.59470" y1="113.24640" x2="47.40610" y2="113.20750" stroke="#228B22" stroke-width="0.04000"/>
      <line x1="47.40610" y1="113.20750" x2="46.70570" y2="112.89310" stroke="#228B22" stroke-width="0.04000"/>
      <line x1="46.70570" y1="112.89310" x2="46.34580" y2="112.79560" stroke="#228B22" stroke-width="0.04000"/>
      <line x1="46.34580" y1="112.79560" x2="45.77200" y2="112.49570" stroke="#228B22" stroke-width="0.04000"/>
      <line x1="45.77200" y1="112.49570" x2="45.58200" y2="112.40610" stroke="#228B22" stroke-width="0.04000"/>
      <line x1="45.58200" y1="112.40610" x2="45.28910" y2="112.25330" stroke="#228B22" stroke-width="0.04000"/>
      <line x1="45.28910" y1="112.25330" x2="44.82250" y2="111.97000" stroke="#228B22" stroke-width="0.04000"/>
      <line x1="44.82250" y1="111.97000" x2="44.33880" y2="111.63140" stroke="#228B22" stroke-width="0.04000"/>
      <line x1="44.33880" y1="111.63140" x2="44.10500" y2="111.46770" stroke="#228B22" stroke-width="0.04000"/>
      <line x1="44.10500" y1="111.46770" x2="43.91240" y2="111.32350" stroke="#228B22" stroke-width="0.04000"/>
      <line x1="43.91240" y1="111.32350" x2="43.38310" y2="110.88080" stroke="#228B22" stroke-width="0.04000"/>
      <line x1="43.38310" y1="110.88080" x2="42.67260" y2="110.25220" stroke="#228B22" stroke-width="0.04000"/>
      <line x1="42.67260" y1="110.25220" x2="42.67170" y2="110.25130" stroke="#228B22" stroke-width="0.04000"/>
      <line x1="42.67170" y1="110.25130" x2="42.10720" y2="109.62980" stroke="#228B22" stroke-width="0.04000"/>
      <line x1="42.10720" y1="109.62980" x2="41.88070" y2="109.15120" stroke="#228B22" stroke-width="0.04000"/>
      <line x1="41.88070" y1="109.15120" x2="41.57900" y2="108.71230" stroke="#228B22" stroke-width="0.04000"/>
      <line x1="41.57900" y1="108.71230" x2="41.64070" y2="108.03520" stroke="#228B22" stroke-width="0.04000"/>
      <line x1="41.64070" y1="108.03520" x2="41.64460" y2="107.95060" stroke="#228B22" stroke-width="0.04000"/>
      <line x1="41.64460" y1="107.95060" x2="41.68640" y2="107.90440" stroke="#228B22" stroke-width="0.04000"/>
      <line x1="41.68640" y1="107.90440" x2="42.16070" y2="107.44600" stroke="#228B22" stroke-width="0.04000"/>
      <line x1="42.16070" y1="107.44600" x2="42.55100" y2="107.38830" stroke="#228B22" stroke-width="0.04000"/>
      <line x1="42.55100" y1="107.38830" x2="43.10550" y2="107.27990" stroke="#228B22" stroke-width="0.04000"/>
      <line x1="43.10550" y1="107.27990" x2="43.45990" y2="107.37670" stroke="#228B22" stroke-width="0.04000"/>
    </g>
    <g class="thermal-contour" data-segment="1" data-name="CoreContour_Volume">
    <path d="M 33.5103 116.509 L 33.6948 116.708 L 33.9148 117.17 L 34.1344 117.707 L 34.2481 118.006 L 34.3257 118.182 L 34.5112 118.834 L 34.7356 119.615 L 34.7549 119.681 L 34.8339 119.976 L 34.9805 120.585 L 34.9976 120.672 L 35.2757 121.676 L 35.2818 121.714 L 35.4341 122.447 L 35.6271 123.237 L 35.637 123.391 L 35.6984 123.768 L 35.8045 124.48 L 35.886 124.791 L 35.9728 125.454 L 36.0724 126.373 L 36.088 126.539 L 36.0932 126.708 L 36.0575 127.587 L 35.2446 127.589 L 34.9864 127.582 L 34.8641 127.459 L 34.3406 126.901 L 34.0145 126.224 L 33.8916 125.955 L 33.6912 125.502 L 33.4622 125.062 L 33.2241 124.635 L 32.9426 124.106 L 32.7314 123.654 L 32.4676 123.235 L 32.1946 122.851 L 31.907 122.37 L 31.474 121.829 L 31.3024 121.65 L 31.1195 121.44 L 30.6476 120.908 L 30.3273 120.211 L 30.3282 119.87 L 30.4407 119.389 L 30.5792 118.902 L 30.6025 118.742 L 31.032 117.838 L 31.1447 117.519 L 31.6124 116.906 L 31.8537 116.536 L 32.6983 116.087 L 32.7068 116.084 L 33.5103 116.509" fill="none" stroke="#000000" stroke-width="0.05000" fill-rule="evenodd" fill-opacity="1.000"/>
    </g>
    <g class="thermal-contour" data-segment="1" data-name="CoreContour_Volume">
    <path d="M 43.546 107.1 L 44.1229 107.307 L 44.4353 107.564 L 44.7991 107.96 L 45.0508 108.21 L 45.2253 108.429 L 45.6296 108.916 L 45.9252 109.213 L 46.265 109.639 L 46.9292 110.212 L 46.9797 110.257 L 47.013 110.287 L 47.7042 110.666 L 48.1513 110.994 L 48.4398 111.126 L 48.9705 111.419 L 49.2884 111.57 L 49.4674 111.685 L 50.1087 111.971 L 50.7641 112.324 L 50.9496 112.405 L 51.3799 112.638 L 51.7255 112.805 L 51.8661 112.898 L 52.5676 113.365 L 52.9741 113.784 L 53.1828 114.163 L 52.9901 114.84 L 52.9838 115.229 L 52.7788 115.331 L 51.9692 115.073 L 51.8457 115.032 L 51.8167 115.023 L 51.6112 114.936 L 50.8866 114.612 L 50.7551 114.55 L 49.9892 114.249 L 49.6487 114.136 L 49.0884 113.972 L 48.3781 113.803 L 48.3324 113.794 L 47.5199 113.527 L 47.3163 113.485 L 46.6079 113.167 L 46.2396 113.067 L 45.6429 112.755 L 45.4531 112.666 L 45.1468 112.506 L 44.665 112.214 L 44.1725 111.869 L 44.1725 111.869 L 43.9364 111.704 L 43.7321 111.551 L 43.1922 111.099 L 42.469 110.459 L 42.4643 110.454 L 42.4592 110.449 L 41.8633 109.793 L 41.6284 109.296 L 41.2809 108.79 L 41.3513 108.015 L 41.3599 107.833 L 41.4775 107.703 L 42.0262 107.173 L 42.502 107.102 L 43.1171 106.982 L 43.546 107.1" fill="none" stroke="#000000" stroke-width="0.05000" fill-rule="evenodd" fill-opacity="1.000"/>
    </g>
    <g class="thermal-contour" data-segment="1" data-name="CoreContour_Volume">
    <path d="M 33.3869 116.67 L 33.5273 116.821 L 33.7322 117.252 L 33.947 117.776 L 34.063 118.082 L 34.1369 118.25 L 34.319 118.889 L 34.5436 119.67 L 34.5629 119.737 L 34.6407 120.027 L 34.7851 120.628 L 34.8028 120.718 L 35.0799 121.718 L 35.085 121.75 L 35.2389 122.491 L 35.4285 123.267 L 35.438 123.413 L 35.501 123.8 L 35.6083 124.52 L 35.689 124.828 L 35.7744 125.48 L 35.8734 126.393 L 35.888 126.551 L 35.893 126.708 L 35.8653 127.387 L 35.25 127.389 L 35.0715 127.384 L 35.0101 127.322 L 34.5072 126.786 L 34.1947 126.137 L 34.0736 125.872 L 33.8716 125.415 L 33.6382 124.967 L 33.3987 124.538 L 33.1224 124.018 L 32.9072 123.558 L 32.6338 123.124 L 32.3618 122.741 L 32.0716 122.256 L 31.6246 121.697 L 31.45 121.515 L 31.2697 121.308 L 30.8172 120.798 L 30.5273 120.167 L 30.528 119.893 L 30.6343 119.438 L 30.7752 118.944 L 30.7961 118.8 L 31.217 117.914 L 31.3229 117.615 L 31.7758 117.021 L 31.9931 116.688 L 32.7051 116.31 L 33.3869 116.67" fill="none" stroke="#000000" stroke-width="0.05000" fill-rule="evenodd" fill-opacity="1.000"/>
    <path d="M 32.0558 116.757 L 31.8494 117.073 L 31.4029 117.659 L 31.3003 117.948 L 30.8832 118.826 L 30.8634 118.963 L 30.7209 119.463 L 30.6179 119.904 L 30.6173 120.147 L 30.8934 120.748 L 31.3373 121.249 L 31.5172 121.455 L 31.6923 121.638 L 32.1457 122.204 L 32.4373 122.692 L 32.7086 123.074 L 32.9863 123.515 L 33.2029 123.978 L 33.4773 124.494 L 33.7174 124.924 L 33.9528 125.376 L 34.1555 125.835 L 34.2758 126.098 L 34.5823 126.734 L 35.0758 127.261 L 35.1097 127.295 L 35.2524 127.299 L 35.7789 127.298 L 35.8029 126.708 L 35.798 126.555 L 35.7839 126.403 L 35.6849 125.49 L 35.6849 125.49 L 35.6006 124.846 L 35.52 124.538 L 35.412 123.814 L 35.412 123.814 L 35.3485 123.424 L 35.3392 123.28 L 35.1511 122.511 L 34.9965 121.767 L 34.9916 121.737 L 34.7151 120.739 L 34.6971 120.647 L 34.5538 120.051 L 34.4765 119.762 L 34.4571 119.695 L 34.2325 118.913 L 34.0519 118.28 L 33.9797 118.116 L 33.8637 117.811 L 33.65 117.289 L 33.4518 116.872 L 33.3314 116.743 L 32.7051 116.412 L 32.0558 116.757" fill="none" stroke="#000000" stroke-width="0.05000" fill-rule="evenodd" fill-opacity="1.000"/>
    <path d="M 43.4872 107.291 L 44.0227 107.483 L 44.2969 107.709 L 44.6549 108.099 L 44.9012 108.344 L 45.0703 108.555 L 45.4816 109.051 L 45.7758 109.346 L 46.1202 109.778 L 46.7915 110.357 L 46.8457 110.405 L 46.8951 110.451 L 47.5966 110.835 L 48.0495 111.167 L 48.349 111.304 L 48.8791 111.597 L 49.1908 111.745 L 49.3722 111.862 L 50.0189 112.15 L 50.6763 112.504 L 50.861 112.585 L 51.2887 112.816 L 51.6263 112.98 L 51.7701 113.074 L 52.4386 113.519 L 52.8116 113.904 L 52.9678 114.188 L 52.7905 114.81 L 52.7856 115.104 L 52.7622 115.116 L 52.0265 114.882 L 51.9071 114.842 L 51.8863 114.835 L 51.6892 114.752 L 50.9718 114.431 L 50.8345 114.366 L 50.0573 114.061 L 49.7085 113.945 L 49.1396 113.778 L 48.4219 113.608 L 48.3845 113.6 L 47.5715 113.334 L 47.3781 113.294 L 46.6753 112.978 L 46.3128 112.88 L 45.7319 112.576 L 45.5423 112.487 L 45.2452 112.332 L 44.7734 112.045 L 44.2872 111.705 L 44.0534 111.541 L 43.8565 111.394 L 43.3238 110.949 L 42.6093 110.316 L 42.6056 110.312 L 42.0315 109.68 L 41.8024 109.196 L 41.4865 108.737 L 41.5509 108.029 L 41.5563 107.914 L 41.6214 107.842 L 42.119 107.361 L 42.5358 107.3 L 43.109 107.188 L 43.4872 107.291" fill="none" stroke="#000000" stroke-width="0.05000" fill-rule="evenodd" fill-opacity="1.000"/>
    <path d="M 42.551 107.388 L 42.1607 107.446 L 41.6864 107.904 L 41.6446 107.951 L 41.6407 108.035 L 41.579 108.712 L 41.8807 109.151 L 42.1072 109.63 L 42.6717 110.251 L 42.6726 110.252 L 43.3831 110.881 L 43.9124 111.324 L 44.105 111.468 L 44.3388 111.631 L 44.8225 111.97 L 45.2891 112.253 L 45.582 112.406 L 45.772 112.496 L 46.3458 112.796 L 46.7057 112.893 L 47.4061 113.207 L 47.5947 113.246 L 48.4075 113.513 L 48.4416 113.52 L 49.1627 113.691 L 49.7354 113.859 L 50.0879 113.976 L 50.8702 114.283 L 51.0085 114.349 L 51.0086 114.349 L 51.726 114.67 L 51.9176 114.751 L 51.9347 114.756 L 52.0549 114.796 L 52.0548 114.796 L 52.6972 115.001 L 52.7007 114.797 L 52.871 114.199 L 52.7386 113.958 L 52.3808 113.589 L 51.7207 113.149 L 51.7207 113.149 L 51.5813 113.058 L 51.2477 112.896 L 50.8215 112.666 L 50.6368 112.584 L 49.9792 112.231 L 49.3294 111.941 L 49.147 111.824 L 48.8379 111.677 L 48.3081 111.384 L 48.0037 111.245 L 47.5483 110.911 L 46.8421 110.524 L 46.7862 110.473 L 46.732 110.425 L 46.732 110.425 L 46.055 109.841 L 45.7085 109.406 L 45.415 109.112 L 45.0005 108.612 L 44.8338 108.404 L 44.59 108.161 L 44.2351 107.774 L 43.9775 107.562 L 43.4599 107.377 L 43.1055 107.28 L 42.551 107.388" fill="none" stroke="#000000" stroke-width="0.05000" fill-rule="evenodd" fill-opacity="1.000"/>
    </g>
    <g class="thermal-contour" data-segment="3" data-name="HollowShell1Contour_Volume">
    <path d="M 33.5103 116.509 L 33.6948 116.708 L 33.9148 117.17 L 34.1344 117.707 L 34.2481 118.006 L 34.3257 118.182 L 34.5112 118.834 L 34.7356 119.615 L 34.7549 119.68 L 34.8339 119.976 L 34.9805 120.585 L 34.9976 120.673 L 35.2757 121.676 L 35.2818 121.714 L 35.4341 122.447 L 35.6271 123.237 L 35.637 123.391 L 35.6984 123.768 L 35.8045 124.48 L 35.875 124.75 L 35.9656 125.441 L 36.0539 126.256 L 36.0694 126.511 L 36.0584 126.725 L 36.0257 127.529 L 35.1032 127.532 L 34.9666 127.537 L 34.8476 127.412 L 34.3332 126.863 L 34.1319 126.446 L 33.8907 125.917 L 33.4972 125.027 L 33.4937 125.021 L 33.49 125.014 L 32.9798 124.054 L 32.6289 123.304 L 32.8193 123.606 L 33.0325 124.062 L 33.3114 124.587 L 33.5502 125.014 L 33.7814 125.458 L 33.9826 125.913 L 34.1046 126.181 L 34.4239 126.843 L 34.9371 127.391 L 35.029 127.483 L 35.2473 127.489 L 35.9614 127.487 L 35.9931 126.708 L 35.988 126.545 L 35.9728 126.383 L 35.9728 126.383 L 35.8736 125.467 L 35.7875 124.81 L 35.7064 124.5 L 35.5997 123.784 L 35.5375 123.402 L 35.5278 123.252 L 35.3365 122.469 L 35.1834 121.732 L 35.1777 121.697 L 34.9002 120.696 L 34.8828 120.607 L 34.7373 120.002 L 34.6589 119.709 L 34.6396 119.643 L 34.4151 118.861 L 34.2313 118.216 L 34.1556 118.044 L 34.0409 117.742 L 34.0409 117.742 L 33.8236 117.212 L 33.611 116.765 L 33.4486 116.59 L 32.7051 116.197 L 31.9234 116.612 L 31.6941 116.964 L 31.2338 117.567 L 31.1245 117.876 L 30.6993 118.771 L 30.6772 118.923 L 30.5375 119.413 L 30.4281 119.881 L 30.4277 119.998 L 30.3367 119.834 L 30.3366 119.834 L 30.4407 119.388 L 30.5792 118.902 L 30.6025 118.742 L 31.032 117.838 L 31.1447 117.519 L 31.6124 116.906 L 31.8537 116.536 L 32.6983 116.087 L 32.7068 116.084 L 33.5103 116.509" fill="none" stroke="#0000CC" stroke-width="0.05000" fill-rule="evenodd" fill-opacity="1.000"/>
    <path d="M 43.546 107.1 L 44.0128 107.267 L 44.0608 107.284 L 44.4049 107.568 L 44.9809 108.196 L 45.0172 108.239 L 45.0451 108.272 L 45.5825 108.92 L 46.0194 109.358 L 46.2162 109.604 L 46.6691 109.995 L 46.6938 110.009 L 46.9292 110.212 L 46.9797 110.257 L 47.013 110.287 L 47.7042 110.666 L 48.1513 110.994 L 48.4398 111.126 L 48.9705 111.419 L 49.2884 111.57 L 49.4674 111.685 L 50.1087 111.971 L 50.7641 112.324 L 50.9496 112.406 L 51.3799 112.638 L 51.7255 112.805 L 51.8661 112.898 L 52.5676 113.365 L 52.9741 113.784 L 53.1828 114.163 L 52.9901 114.84 L 52.9886 114.931 L 52.9246 115.156 L 52.8562 115.185 L 52.8518 115.183 L 52.8847 115.167 L 52.8903 114.825 L 53.0753 114.175 L 52.8929 113.844 L 52.5031 113.442 L 51.8112 112.981 L 51.8112 112.981 L 51.6759 112.893 L 51.3343 112.727 L 50.9053 112.495 L 50.7202 112.414 L 50.064 112.061 L 49.4198 111.773 L 49.2396 111.658 L 48.9248 111.508 L 48.3944 111.215 L 48.1004 111.08 L 47.6506 110.75 L 46.954 110.369 L 46.9128 110.331 L 46.8633 110.287 L 46.8633 110.287 L 46.1926 109.708 L 45.8505 109.279 L 45.5556 108.984 L 45.1478 108.492 L 44.976 108.277 L 44.727 108.03 L 44.3661 107.636 L 44.0728 107.395 L 43.5166 107.195 L 43.113 107.085 L 42.5189 107.201 L 42.0726 107.267 L 41.5498 107.772 L 41.4581 107.874 L 41.4511 108.022 L 41.3837 108.763 L 41.7154 109.246 L 41.9474 109.736 L 42.5325 110.381 L 42.5381 110.387 L 42.5393 110.388 L 43.2575 111.023 L 43.7942 111.472 L 43.9952 111.623 L 44.2299 111.787 L 44.7196 112.13 L 45.196 112.419 L 45.4982 112.577 L 45.6874 112.666 L 46.2762 112.974 L 46.6416 113.073 L 47.3471 113.389 L 47.5457 113.43 L 48.3584 113.697 L 48.4 113.706 L 48.4438 113.716 L 48.2121 113.667 L 47.6017 113.467 L 47.1661 113.377 L 46.6906 113.163 L 46.1353 113.013 L 45.6429 112.756 L 45.4531 112.666 L 45.1468 112.506 L 44.665 112.214 L 44.1725 111.869 L 43.9364 111.704 L 43.7321 111.551 L 43.1922 111.099 L 42.469 110.459 L 42.4643 110.454 L 42.4592 110.449 L 41.8633 109.793 L 41.6284 109.296 L 41.2809 108.79 L 41.3513 108.015 L 41.3599 107.833 L 41.4775 107.703 L 42.0262 107.173 L 42.502 107.102 L 43.1171 106.982 L 43.546 107.1" fill="none" stroke="#0000CC" stroke-width="0.05000" fill-rule="evenodd" fill-opacity="1.000"/>
    </g>
    <g class="thermal-contour" data-segment="4" data-name="HollowShell1Contour_Overhang">
    <path d="M 30.3367 119.834 L 30.4277 119.998 L 30.4273 120.189 L 30.7324 120.853 L 31.1946 121.374 L 31.3762 121.583 L 31.5493 121.763 L 31.9893 122.313 L 32.2785 122.797 L 32.5507 123.179 L 32.6289 123.304 L 32.9798 124.054 L 33.49 125.014 L 33.4937 125.021 L 33.4972 125.027 L 33.8907 125.917 L 34.1319 126.446 L 34.3332 126.863 L 34.8476 127.412 L 34.9666 127.537 L 35.1032 127.532 L 36.0257 127.529 L 36.0584 126.725 L 36.0694 126.511 L 36.0539 126.256 L 35.9656 125.441 L 35.875 124.75 L 35.886 124.791 L 35.9728 125.454 L 36.0724 126.373 L 36.088 126.539 L 36.0932 126.708 L 36.0575 127.587 L 35.2446 127.589 L 34.9864 127.582 L 34.8641 127.459 L 34.3406 126.9 L 34.0145 126.224 L 33.8916 125.955 L 33.6912 125.502 L 33.4622 125.062 L 33.2241 124.635 L 32.9426 124.106 L 32.7314 123.654 L 32.4676 123.235 L 32.1946 122.851 L 31.907 122.37 L 31.474 121.829 L 31.3024 121.65 L 31.1195 121.44 L 30.6476 120.908 L 30.3273 120.211 L 30.3282 119.87 L 30.3366 119.834 L 30.3367 119.834" fill="none" stroke="#000080" stroke-width="0.05000" fill-rule="evenodd" fill-opacity="1.000"/>
    <path d="M 46.6906 113.163 L 47.1661 113.377 L 47.6017 113.467 L 48.2121 113.667 L 48.4438 113.716 L 49.114 113.875 L 49.6786 114.041 L 50.0232 114.155 L 50.7948 114.458 L 50.9292 114.521 L 51.6502 114.844 L 51.8515 114.929 L 51.8764 114.937 L 51.9995 114.978 L 51.9996 114.978 L 52.7705 115.224 L 52.8518 115.183 L 52.8562 115.185 L 52.9246 115.156 L 52.9886 114.931 L 52.9871 115.023 L 52.9838 115.229 L 52.7788 115.331 L 51.9692 115.073 L 51.8457 115.032 L 51.8167 115.023 L 51.6112 114.936 L 50.8866 114.612 L 50.7551 114.549 L 49.9892 114.249 L 49.6487 114.136 L 49.0884 113.972 L 48.3781 113.803 L 48.3324 113.794 L 47.5199 113.527 L 47.3163 113.485 L 46.6079 113.167 L 46.2396 113.067 L 46.1353 113.013 L 46.6906 113.163" fill="none" stroke="#000080" stroke-width="0.05000" fill-rule="evenodd" fill-opacity="1.000"/>
    <path d="M 44.1229 107.307 L 44.4353 107.564 L 44.7991 107.96 L 45.0508 108.211 L 45.2253 108.429 L 45.6296 108.916 L 45.9252 109.213 L 46.265 109.639 L 46.6938 110.009 L 46.6691 109.995 L 46.2162 109.604 L 46.0194 109.358 L 45.5825 108.92 L 45.0451 108.272 L 45.0172 108.239 L 44.9809 108.196 L 44.4049 107.568 L 44.0608 107.284 L 44.1229 107.307" fill="none" stroke="#000080" stroke-width="0.05000" fill-rule="evenodd" fill-opacity="1.000"/>
    </g>
    <g class="thermal-contour" data-segment="5" data-name="HollowShell2Contour_Volume">
    <path d="M 33.4486 116.59 L 33.611 116.765 L 33.8236 117.212 L 34.0409 117.742 L 34.0409 117.742 L 34.1556 118.044 L 34.2313 118.216 L 34.4151 118.861 L 34.6396 119.643 L 34.6589 119.709 L 34.7373 120.002 L 34.8828 120.607 L 34.9002 120.696 L 35.1777 121.697 L 35.1834 121.732 L 35.3365 122.469 L 35.5278 123.252 L 35.5375 123.402 L 35.5997 123.784 L 35.7064 124.5 L 35.7875 124.81 L 35.8736 125.467 L 35.9728 126.383 L 35.9728 126.383 L 35.988 126.545 L 35.9931 126.708 L 35.9614 127.487 L 35.2473 127.489 L 35.029 127.483 L 34.9371 127.391 L 34.4239 126.843 L 34.1046 126.181 L 33.9826 125.913 L 33.7814 125.458 L 33.5502 125.014 L 33.3114 124.587 L 33.0325 124.062 L 32.8193 123.606 L 32.6289 123.304 L 32.5968 123.235 L 32.5541 123.167 L 32.5098 123.105 L 32.014 122.275 L 31.5697 121.72 L 31.4411 121.531 L 31.2802 121.345 L 30.8049 120.809 L 30.452 120.041 L 30.4277 119.998 L 30.4281 119.881 L 30.5375 119.413 L 30.6772 118.923 L 30.6993 118.771 L 31.1245 117.876 L 31.2338 117.567 L 31.6941 116.964 L 31.9234 116.612 L 32.7051 116.197 L 33.4486 116.59" fill="none" stroke="#B8860B" stroke-width="0.05000" fill-rule="evenodd" fill-opacity="1.000"/>
    <path d="M 31.9931 116.688 L 31.7758 117.021 L 31.3229 117.615 L 31.217 117.914 L 30.7961 118.8 L 30.7752 118.944 L 30.6343 119.438 L 30.528 119.893 L 30.5273 120.167 L 30.8172 120.798 L 31.2697 121.308 L 31.45 121.515 L 31.6246 121.697 L 32.0716 122.256 L 32.3618 122.741 L 32.6338 123.124 L 32.9072 123.558 L 33.1224 124.018 L 33.3987 124.538 L 33.6382 124.967 L 33.8716 125.415 L 34.0736 125.872 L 34.1947 126.137 L 34.5072 126.786 L 35.0101 127.322 L 35.0715 127.384 L 35.25 127.389 L 35.8653 127.387 L 35.893 126.708 L 35.888 126.551 L 35.8734 126.393 L 35.7744 125.48 L 35.689 124.828 L 35.6083 124.52 L 35.501 123.8 L 35.438 123.413 L 35.4285 123.267 L 35.2389 122.491 L 35.085 121.75 L 35.0799 121.718 L 34.8028 120.718 L 34.7851 120.628 L 34.6407 120.027 L 34.5629 119.737 L 34.5436 119.67 L 34.319 118.889 L 34.1369 118.25 L 34.063 118.082 L 33.947 117.776 L 33.7322 117.252 L 33.5273 116.821 L 33.3869 116.67 L 32.7051 116.31 L 31.9931 116.688" fill="none" stroke="#B8860B" stroke-width="0.05000" fill-rule="evenodd" fill-opacity="1.000"/>
    <path d="M 43.5166 107.195 L 44.0728 107.395 L 44.3661 107.636 L 44.727 108.03 L 44.976 108.277 L 45.1478 108.492 L 45.5556 108.984 L 45.8505 109.279 L 46.1926 109.708 L 46.8633 110.287 L 46.8633 110.287 L 46.9128 110.331 L 46.954 110.369 L 47.6506 110.75 L 48.1004 111.08 L 48.3944 111.215 L 48.9248 111.508 L 49.2396 111.658 L 49.4198 111.773 L 50.064 112.061 L 50.7202 112.414 L 50.9053 112.495 L 51.3343 112.727 L 51.6759 112.893 L 51.8112 112.981 L 51.8112 112.981 L 52.5031 113.442 L 52.8929 113.844 L 53.0753 114.175 L 52.8903 114.825 L 52.8847 115.167 L 52.8518 115.183 L 52.0193 114.908 L 51.757 114.824 L 50.9695 114.49 L 50.8382 114.444 L 50.3129 114.263 L 49.9667 114.128 L 49.8758 114.097 L 49.0635 113.859 L 48.6026 113.75 L 48.4438 113.716 L 48.4 113.706 L 48.3584 113.697 L 47.5457 113.43 L 47.3471 113.389 L 46.6416 113.073 L 46.2762 112.974 L 45.6874 112.666 L 45.4982 112.577 L 45.196 112.419 L 44.7196 112.13 L 44.2299 111.787 L 43.9952 111.623 L 43.7942 111.472 L 43.2575 111.023 L 42.5393 110.388 L 42.5381 110.387 L 42.5325 110.381 L 41.9474 109.736 L 41.7154 109.246 L 41.3837 108.763 L 41.4511 108.022 L 41.4581 107.874 L 41.5498 107.772 L 42.0726 107.267 L 42.5189 107.201 L 43.113 107.085 L 43.5166 107.195" fill="none" stroke="#B8860B" stroke-width="0.05000" fill-rule="evenodd" fill-opacity="1.000"/>
    <path d="M 42.5358 107.3 L 42.119 107.361 L 41.6214 107.842 L 41.5563 107.914 L 41.5509 108.029 L 41.4865 108.737 L 41.8024 109.196 L 42.0315 109.68 L 42.6056 110.312 L 42.6093 110.316 L 43.3238 110.949 L 43.8565 111.394 L 44.0534 111.541 L 44.2872 111.705 L 44.7734 112.045 L 45.2452 112.332 L 45.5423 112.487 L 45.7319 112.576 L 46.3128 112.88 L 46.6753 112.978 L 47.3781 113.294 L 47.5715 113.334 L 48.3845 113.6 L 48.4219 113.608 L 49.1396 113.778 L 49.7085 113.945 L 50.0573 114.061 L 50.8345 114.366 L 50.9718 114.431 L 51.6892 114.752 L 51.8863 114.835 L 51.9071 114.842 L 52.0265 114.882 L 52.7622 115.116 L 52.7856 115.104 L 52.7905 114.81 L 52.9678 114.188 L 52.8116 113.904 L 52.4386 113.519 L 51.7701 113.074 L 51.6263 112.98 L 51.2887 112.816 L 50.861 112.585 L 50.6763 112.504 L 50.0189 112.15 L 49.3722 111.862 L 49.1908 111.745 L 48.8791 111.597 L 48.349 111.304 L 48.0495 111.167 L 47.5966 110.835 L 46.8951 110.451 L 46.8457 110.405 L 46.7915 110.357 L 46.1202 109.778 L 45.7758 109.346 L 45.4816 109.051 L 45.0703 108.555 L 44.9012 108.344 L 44.6549 108.099 L 44.2969 107.709 L 44.0227 107.483 L 43.4872 107.291 L 43.109 107.188 L 42.5358 107.3" fill="none" stroke="#B8860B" stroke-width="0.05000" fill-rule="evenodd" fill-opacity="1.000"/>
    </g>
    <g class="thermal-contour" data-segment="6" data-name="HollowShell2Contour_Overhang">
    <path d="M 30.452 120.041 L 30.8049 120.809 L 31.2802 121.345 L 31.4411 121.531 L 31.5697 121.72 L 32.014 122.275 L 32.5098 123.105 L 32.5541 123.167 L 32.5968 123.235 L 32.6289 123.304 L 32.5507 123.179 L 32.2785 122.797 L 31.9893 122.313 L 31.5493 121.763 L 31.3762 121.583 L 31.1946 121.374 L 30.7324 120.853 L 30.4273 120.189 L 30.4277 119.998 L 30.452 120.041" fill="none" stroke="#006400" stroke-width="0.05000" fill-rule="evenodd" fill-opacity="1.000"/>
    <path d="M 48.6026 113.75 L 49.0635 113.859 L 49.8758 114.097 L 49.9667 114.128 L 50.3129 114.263 L 50.8382 114.444 L 50.9695 114.49 L 51.757 114.824 L 52.0193 114.908 L 52.8518 115.183 L 52.7705 115.224 L 51.9996 114.978 L 51.9995 114.978 L 51.8764 114.937 L 51.8515 114.929 L 51.6502 114.844 L 50.9292 114.521 L 50.7948 114.458 L 50.0232 114.155 L 49.6786 114.041 L 49.114 113.875 L 48.4438 113.716 L 48.6026 113.75" fill="none" stroke="#006400" stroke-width="0.05000" fill-rule="evenodd" fill-opacity="1.000"/>
    </g>
    <g class="thermal-contour" data-segment="9" data-name="CoreContourHatch">
    <path d="M 33.3481 116.721 L 33.4744 116.857 L 33.6747 117.278 L 33.8888 117.801 L 34.0044 118.105 L 34.0774 118.271 L 34.2585 118.906 L 34.4831 119.688 L 34.483 119.688 L 34.5025 119.755 L 34.58 120.044 L 34.7235 120.642 L 34.7414 120.733 L 35.018 121.731 L 35.0229 121.761 L 35.1773 122.505 L 35.366 123.276 L 35.3753 123.421 L 35.4387 123.81 L 35.5465 124.533 L 35.6272 124.841 L 35.7119 125.488 L 35.7119 125.489 L 35.8108 126.4 L 35.825 126.554 L 35.8299 126.708 L 35.8048 127.325 L 35.252 127.326 L 35.0982 127.322 L 35.0564 127.28 L 34.5598 126.75 L 34.2514 126.11 L 34.1309 125.846 L 33.9281 125.387 L 33.6938 124.937 L 33.6938 124.937 L 33.4536 124.507 L 33.1787 123.99 L 32.9623 123.527 L 32.6866 123.089 L 32.4147 122.707 L 32.1236 122.22 L 31.6718 121.656 L 31.4973 121.474 L 31.3169 121.267 L 31.3169 121.267 L 30.8705 120.763 L 30.5903 120.153 L 30.5909 119.9 L 30.6948 119.456 L 30.837 118.957 L 30.8571 118.818 L 31.2751 117.938 L 31.3789 117.646 L 31.8279 117.057 L 32.037 116.736 L 32.7051 116.381 L 33.3481 116.721" fill="none" stroke="#800080" stroke-width="0.05000" fill-rule="evenodd" fill-opacity="1.000"/>
    <path d="M 32.0558 116.757 L 31.8494 117.073 L 31.4029 117.659 L 31.3003 117.948 L 30.8832 118.826 L 30.8634 118.963 L 30.7209 119.463 L 30.6179 119.904 L 30.6173 120.147 L 30.8934 120.748 L 31.3373 121.249 L 31.5172 121.455 L 31.6923 121.638 L 32.1457 122.204 L 32.4373 122.692 L 32.7086 123.074 L 32.9863 123.515 L 33.2029 123.978 L 33.4773 124.494 L 33.7174 124.924 L 33.9528 125.376 L 34.1555 125.835 L 34.2758 126.098 L 34.5823 126.734 L 35.0758 127.261 L 35.1097 127.295 L 35.2524 127.299 L 35.7789 127.298 L 35.8029 126.708 L 35.798 126.555 L 35.7839 126.403 L 35.6849 125.49 L 35.6849 125.49 L 35.6006 124.846 L 35.52 124.538 L 35.412 123.814 L 35.412 123.814 L 35.3485 123.424 L 35.3392 123.28 L 35.1511 122.511 L 34.9965 121.767 L 34.9916 121.737 L 34.7151 120.739 L 34.6971 120.647 L 34.5538 120.051 L 34.4765 119.762 L 34.4571 119.695 L 34.2325 118.913 L 34.0519 118.28 L 33.9797 118.116 L 33.8637 117.811 L 33.65 117.289 L 33.4518 116.872 L 33.3314 116.743 L 32.7051 116.412 L 32.0558 116.757" fill="none" stroke="#800080" stroke-width="0.05000" fill-rule="evenodd" fill-opacity="1.000"/>
    <path d="M 43.468 107.351 L 43.991 107.539 L 44.2537 107.755 L 44.6098 108.143 L 44.8539 108.385 L 45.0216 108.595 L 45.0215 108.595 L 45.4348 109.093 L 45.7287 109.388 L 46.0746 109.822 L 46.759 110.412 L 46.759 110.413 L 46.8043 110.453 L 46.858 110.502 L 47.5628 110.888 L 48.0178 111.222 L 48.3203 111.36 L 48.8494 111.652 L 48.8495 111.652 L 49.1601 111.801 L 49.3419 111.917 L 49.9911 112.206 L 50.6489 112.56 L 50.8334 112.642 L 51.2602 112.872 L 51.5946 113.034 L 51.6937 113.099 L 51.6937 113.099 L 52.3982 113.568 L 52.7605 113.942 L 52.9 114.195 L 52.7276 114.801 L 52.7236 115.038 L 52.0246 114.815 L 52.0246 114.814 L 51.9267 114.782 L 51.9267 114.782 L 51.9083 114.776 L 51.7152 114.694 L 51.003 114.376 L 51.0024 114.376 L 50.859 114.308 L 50.0785 114.002 L 49.7278 113.885 L 49.1565 113.718 L 48.4354 113.547 L 48.4354 113.547 L 48.4004 113.539 L 47.5871 113.272 L 47.3977 113.233 L 46.6969 112.919 L 46.3359 112.821 L 45.7605 112.52 L 45.57 112.43 L 45.2758 112.277 L 44.8077 111.993 L 44.3233 111.654 L 44.0892 111.49 L 43.8956 111.345 L 43.3655 110.901 L 42.6541 110.272 L 42.6521 110.27 L 42.0845 109.645 L 41.8574 109.165 L 41.5512 108.72 L 41.6138 108.033 L 41.6181 107.94 L 41.667 107.886 L 42.1482 107.421 L 42.5459 107.362 L 43.1065 107.252 L 43.468 107.351" fill="none" stroke="#800080" stroke-width="0.05000" fill-rule="evenodd" fill-opacity="1.000"/>
    <path d="M 42.551 107.388 L 42.1607 107.446 L 41.6864 107.904 L 41.6446 107.951 L 41.6407 108.035 L 41.579 108.712 L 41.8807 109.151 L 42.1072 109.63 L 42.6717 110.251 L 42.6726 110.252 L 43.3831 110.881 L 43.9124 111.324 L 44.105 111.468 L 44.3388 111.631 L 44.8225 111.97 L 45.2891 112.253 L 45.582 112.406 L 45.772 112.496 L 46.3458 112.796 L 46.7057 112.893 L 47.4061 113.207 L 47.5947 113.246 L 48.4075 113.513 L 48.4416 113.52 L 49.1627 113.691 L 49.7354 113.859 L 50.0879 113.976 L 50.8702 114.283 L 51.0085 114.349 L 51.0086 114.349 L 51.726 114.67 L 51.9176 114.751 L 51.9347 114.756 L 52.0549 114.796 L 52.0548 114.796 L 52.6972 115.001 L 52.7007 114.797 L 52.871 114.199 L 52.7386 113.958 L 52.3808 113.589 L 51.7207 113.149 L 51.7207 113.149 L 51.5813 113.058 L 51.2477 112.896 L 50.8215 112.666 L 50.6368 112.584 L 49.9792 112.231 L 49.3294 111.941 L 49.147 111.824 L 48.8379 111.677 L 48.3081 111.384 L 48.0037 111.245 L 47.5483 110.911 L 46.8421 110.524 L 46.7862 110.473 L 46.732 110.425 L 46.732 110.425 L 46.055 109.841 L 45.7085 109.406 L 45.415 109.112 L 45.0005 108.612 L 44.8338 108.404 L 44.59 108.161 L 44.2351 107.774 L 43.9775 107.562 L 43.4599 107.377 L 43.1055 107.28 L 42.551 107.388" fill="none" stroke="#800080" stroke-width="0.05000" fill-rule="evenodd" fill-opacity="1.000"/>
    </g>
    <!-- ===== Thermal Segment Colour Legend ===== -->
    <g id="thermal-legend">
    <rect x="161.0000" y="5.0000" width="40.0000" height="72.0000"
          rx="1" ry="1"
          fill="#fafafa" stroke="#cccccc" stroke-width="0.15"/>
    <text x="181.0000" y="7.6000" font-family="sans-serif" font-size="2.2000" font-weight="bold" fill="#222222" text-anchor="middle">Thermal Segments</text>
    <line x1="161.5000" y1="8.7000" x2="200.5000" y2="8.7000" stroke="#bbbbbb" stroke-width="0.1"/>
    <rect x="161.8000" y="9.0000" width="3.5000" height="2.0000" fill="#000000" stroke="#333333" stroke-width="0.08" rx="0.3" ry="0.3"/>
    <text x="168.6000" y="10.9000" font-family="monospace" font-size="1.6000" fill="#444444" text-anchor="end"> 1</text>
    <text x="169.6000" y="10.9000" font-family="sans-serif" font-size="1.6000" fill="#111111">CoreContour_Volume</text>
    <rect x="161.8000" y="12.0000" width="3.5000" height="2.0000" fill="#8B0000" stroke="#333333" stroke-width="0.08" rx="0.3" ry="0.3"/>
    <text x="168.6000" y="13.9000" font-family="monospace" font-size="1.6000" fill="#444444" text-anchor="end"> 2</text>
    <text x="169.6000" y="13.9000" font-family="sans-serif" font-size="1.6000" fill="#111111">CoreContour_Overhang</text>
    <rect x="161.8000" y="15.0000" width="3.5000" height="2.0000" fill="#0000CC" stroke="#333333" stroke-width="0.08" rx="0.3" ry="0.3"/>
    <text x="168.6000" y="16.9000" font-family="monospace" font-size="1.6000" fill="#444444" text-anchor="end"> 3</text>
    <text x="169.6000" y="16.9000" font-family="sans-serif" font-size="1.6000" fill="#111111">Shell1Contour_Volume</text>
    <rect x="161.8000" y="18.0000" width="3.5000" height="2.0000" fill="#000080" stroke="#333333" stroke-width="0.08" rx="0.3" ry="0.3"/>
    <text x="168.6000" y="19.9000" font-family="monospace" font-size="1.6000" fill="#444444" text-anchor="end"> 4</text>
    <text x="169.6000" y="19.9000" font-family="sans-serif" font-size="1.6000" fill="#111111">Shell1Contour_Overhang</text>
    <rect x="161.8000" y="21.0000" width="3.5000" height="2.0000" fill="#B8860B" stroke="#333333" stroke-width="0.08" rx="0.3" ry="0.3"/>
    <text x="168.6000" y="22.9000" font-family="monospace" font-size="1.6000" fill="#444444" text-anchor="end"> 5</text>
    <text x="169.6000" y="22.9000" font-family="sans-serif" font-size="1.6000" fill="#111111">Shell2Contour_Volume</text>
    <rect x="161.8000" y="24.0000" width="3.5000" height="2.0000" fill="#006400" stroke="#333333" stroke-width="0.08" rx="0.3" ry="0.3"/>
    <text x="168.6000" y="25.9000" font-family="monospace" font-size="1.6000" fill="#444444" text-anchor="end"> 6</text>
    <text x="169.6000" y="25.9000" font-family="sans-serif" font-size="1.6000" fill="#111111">Shell2Contour_Overhang</text>
    <rect x="161.8000" y="27.0000" width="3.5000" height="2.0000" fill="#FF8C00" stroke="#333333" stroke-width="0.08" rx="0.3" ry="0.3"/>
    <text x="168.6000" y="28.9000" font-family="monospace" font-size="1.6000" fill="#444444" text-anchor="end"> 7</text>
    <text x="169.6000" y="28.9000" font-family="sans-serif" font-size="1.6000" fill="#111111">CoreOverhangHatch</text>
    <rect x="161.8000" y="30.0000" width="3.5000" height="2.0000" fill="#228B22" stroke="#333333" stroke-width="0.08" rx="0.3" ry="0.3"/>
    <text x="168.6000" y="31.9000" font-family="monospace" font-size="1.6000" fill="#444444" text-anchor="end"> 8</text>
    <text x="169.6000" y="31.9000" font-family="sans-serif" font-size="1.6000" fill="#111111">CoreNormalHatch</text>
    <rect x="161.8000" y="33.0000" width="3.5000" height="2.0000" fill="#800080" stroke="#333333" stroke-width="0.08" rx="0.3" ry="0.3"/>
    <text x="168.6000" y="34.9000" font-family="monospace" font-size="1.6000" fill="#444444" text-anchor="end"> 9</text>
    <text x="169.6000" y="34.9000" font-family="sans-serif" font-size="1.6000" fill="#111111">CoreContourHatch</text>
    <rect x="161.8000" y="36.0000" width="3.5000" height="2.0000" fill="#FF69B4" stroke="#333333" stroke-width="0.08" rx="0.3" ry="0.3"/>
    <text x="168.6000" y="37.9000" font-family="monospace" font-size="1.6000" fill="#444444" text-anchor="end">10</text>
    <text x="169.6000" y="37.9000" font-family="sans-serif" font-size="1.6000" fill="#111111">Shell1OverhangHatch</text>
    <rect x="161.8000" y="39.0000" width="3.5000" height="2.0000" fill="#00CED1" stroke="#333333" stroke-width="0.08" rx="0.3" ry="0.3"/>
    <text x="168.6000" y="40.9000" font-family="monospace" font-size="1.6000" fill="#444444" text-anchor="end">11</text>
    <text x="169.6000" y="40.9000" font-family="sans-serif" font-size="1.6000" fill="#111111">Shell1NormalHatch</text>
    <rect x="161.8000" y="42.0000" width="3.5000" height="2.0000" fill="#FF00FF" stroke="#333333" stroke-width="0.08" rx="0.3" ry="0.3"/>
    <text x="168.6000" y="43.9000" font-family="monospace" font-size="1.6000" fill="#444444" text-anchor="end">12</text>
    <text x="169.6000" y="43.9000" font-family="sans-serif" font-size="1.6000" fill="#111111">Shell1ContourHatch</text>
    <rect x="161.8000" y="45.0000" width="3.5000" height="2.0000" fill="#A52A2A" stroke="#333333" stroke-width="0.08" rx="0.3" ry="0.3"/>
    <text x="168.6000" y="46.9000" font-family="monospace" font-size="1.6000" fill="#444444" text-anchor="end">13</text>
    <text x="169.6000" y="46.9000" font-family="sans-serif" font-size="1.6000" fill="#111111">Shell2OverhangHatch</text>
    <rect x="161.8000" y="48.0000" width="3.5000" height="2.0000" fill="#808080" stroke="#333333" stroke-width="0.08" rx="0.3" ry="0.3"/>
    <text x="168.6000" y="49.9000" font-family="monospace" font-size="1.6000" fill="#444444" text-anchor="end">14</text>
    <text x="169.6000" y="49.9000" font-family="sans-serif" font-size="1.6000" fill="#111111">Shell2NormalHatch</text>
    <rect x="161.8000" y="51.0000" width="3.5000" height="2.0000" fill="#32CD32" stroke="#333333" stroke-width="0.08" rx="0.3" ry="0.3"/>
    <text x="168.6000" y="52.9000" font-family="monospace" font-size="1.6000" fill="#444444" text-anchor="end">15</text>
    <text x="169.6000" y="52.9000" font-family="sans-serif" font-size="1.6000" fill="#111111">Shell2ContourHatch</text>
    <rect x="161.8000" y="54.0000" width="3.5000" height="2.0000" fill="#1A237E" stroke="#333333" stroke-width="0.08" rx="0.3" ry="0.3"/>
    <text x="168.6000" y="55.9000" font-family="monospace" font-size="1.6000" fill="#444444" text-anchor="end">16</text>
    <text x="169.6000" y="55.9000" font-family="sans-serif" font-size="1.6000" fill="#111111">SupportContourVolume</text>
    <rect x="161.8000" y="57.0000" width="3.5000" height="2.0000" fill="#827717" stroke="#333333" stroke-width="0.08" rx="0.3" ry="0.3"/>
    <text x="168.6000" y="58.9000" font-family="monospace" font-size="1.6000" fill="#444444" text-anchor="end">17</text>
    <text x="169.6000" y="58.9000" font-family="sans-serif" font-size="1.6000" fill="#111111">SupportHatch</text>
    <rect x="161.8000" y="60.0000" width="3.5000" height="2.0000" fill="#006064" stroke="#333333" stroke-width="0.08" rx="0.3" ry="0.3"/>
    <text x="168.6000" y="61.9000" font-family="monospace" font-size="1.6000" fill="#444444" text-anchor="end">18</text>
    <text x="169.6000" y="61.9000" font-family="sans-serif" font-size="1.6000" fill="#111111">PointSequence</text>
    <rect x="161.8000" y="63.0000" width="3.5000" height="2.0000" fill="#B71C1C" stroke="#333333" stroke-width="0.08" rx="0.3" ry="0.3"/>
    <text x="168.6000" y="64.9000" font-family="monospace" font-size="1.6000" fill="#444444" text-anchor="end">19</text>
    <text x="169.6000" y="64.9000" font-family="sans-serif" font-size="1.6000" fill="#111111">ExternalSupports</text>
    <rect x="161.8000" y="66.0000" width="3.5000" height="2.0000" fill="#E64A19" stroke="#333333" stroke-width="0.08" rx="0.3" ry="0.3"/>
    <text x="168.6000" y="67.9000" font-family="monospace" font-size="1.6000" fill="#444444" text-anchor="end">20</text>
    <text x="169.6000" y="67.9000" font-family="sans-serif" font-size="1.6000" fill="#111111">CoreContourHatchOverhang</text>
    <rect x="161.8000" y="69.0000" width="3.5000" height="2.0000" fill="#311B92" stroke="#333333" stroke-width="0.08" rx="0.3" ry="0.3"/>
    <text x="168.6000" y="70.9000" font-family="monospace" font-size="1.6000" fill="#444444" text-anchor="end">21</text>
    <text x="169.6000" y="70.9000" font-family="sans-serif" font-size="1.6000" fill="#111111">Shell1ContourHatchOverhang</text>
    <rect x="161.8000" y="72.0000" width="3.5000" height="2.0000" fill="#880E4F" stroke="#333333" stroke-width="0.08" rx="0.3" ry="0.3"/>
    <text x="168.6000" y="73.9000" font-family="monospace" font-size="1.6000" fill="#444444" text-anchor="end">22</text>
    <text x="169.6000" y="73.9000" font-family="sans-serif" font-size="1.6000" fill="#111111">Shell2ContourHatchOverhang</text>
    </g>
  </g>
</svg>
