<?xml version="1.0" encoding="UTF-8" standalone="yes"?>
<svg xmlns="http://www.w3.org/2000/svg"
     xmlns:xlink="http://www.w3.org/1999/xlink"
     width="2020.0000mm" height="1600.0000mm"
     viewBox="0 0 202.000000 160.000000">
  <!--
    Build plate : 150.00 x 150.00 mm
    Coordinate  : 1 SVG unit = 1 mm
    Display zoom: 10x  (width/height = viewBox x 10)
    Hatch stroke: 0.04 mm = ~28 mm on screen at this zoom
    Legend panel: right margin (42 mm wide)
  -->
  <defs>
    <marker id="endArrow" markerWidth="2" markerHeight="1.4"
            refX="0" refY="0.7" orient="auto"
            markerUnits="strokeWidth">
      <polyline fill="darkblue" points="0,0 2,0.7 0,1.4 0.2,0.7"/>
    </marker>
  </defs>
  <!-- Background -->
  <rect x="0" y="0" width="202.000000" height="160.000000" fill="#f0f0f0" stroke="none"/>
  <!-- Build plate boundary (150 x 150 mm) -->
  <rect x="5.000000" y="5.000000" width="150.000000" height="150.000000"
        fill="#ffffff" stroke="#aaaaaa" stroke-width="0.2" stroke-dasharray="1,0.5"/>
  <!-- Build plate centre circle (r = 75.00 mm) -->
  <circle cx="80.000000" cy="80.000000" r="75.000000"
          fill="none" stroke="#bbbbbb" stroke-width="0.15" stroke-dasharray="0.8,0.4"/>
  <!-- Centre cross-hair -->
  <line x1="5.000000" y1="80.000000" x2="155.000000" y2="80.000000" stroke="#cccccc" stroke-width="0.1"/>
  <line x1="80.000000" y1="5.000000" x2="80.000000" y2="155.000000" stroke="#cccccc" stroke-width="0.1"/>
  <circle cx="80.000000" cy="80.000000" r="0.3" fill="#cccccc" stroke="none"/>
  <!-- Corner labels -->
  <text x="5.400000" y="4.600000" font-family="sans-serif" font-size="2" fill="#888888">0,0</text>
  <text x="154.600006" y="4.600000" font-family="sans-serif" font-size="2" fill="#888888" text-anchor="end">150,0</text>
  <text x="5.400000" y="157.199997" font-family="sans-serif" font-size="2" fill="#888888">0,150</text>
  <!-- Layer geometry -->
  <g id="geometry">
    <g class="thermal-hatch" data-segment="8" data-name="CoreNormalHatch">
      <line x1="36.68665" y1="88.55357" x2="37.77333" y2="87.73470" stroke="#228B22" stroke-width="0.04000"/>
      <line x1="36.85555" y1="88.55151" x2="37.35447" y2="88.17554" stroke="#228B22" stroke-width="0.04000"/>
      <line x1="36.58573" y1="88.50440" x2="38.26301" y2="87.24048" stroke="#228B22" stroke-width="0.04000"/>
      <line x1="36.51230" y1="88.43452" x2="38.83988" y2="86.68056" stroke="#228B22" stroke-width="0.04000"/>
      <line x1="36.44080" y1="88.36319" x2="39.44974" y2="86.09579" stroke="#228B22" stroke-width="0.04000"/>
      <line x1="36.36930" y1="88.29185" x2="40.03011" y2="85.53323" stroke="#228B22" stroke-width="0.04000"/>
      <line x1="36.35828" y1="88.17495" x2="37.12642" y2="87.59611" stroke="#228B22" stroke-width="0.04000"/>
      <line x1="36.86635" y1="87.66688" x2="36.99796" y2="87.56770" stroke="#228B22" stroke-width="0.04000"/>
      <line x1="37.49269" y1="87.32011" x2="40.91608" y2="84.74039" stroke="#228B22" stroke-width="0.04000"/>
      <line x1="38.00079" y1="86.81201" x2="41.95137" y2="83.83504" stroke="#228B22" stroke-width="0.04000"/>
      <line x1="38.50885" y1="86.30395" x2="42.01346" y2="83.66304" stroke="#228B22" stroke-width="0.04000"/>
      <line x1="39.01694" y1="85.79586" x2="42.03049" y2="83.52499" stroke="#228B22" stroke-width="0.04000"/>
      <line x1="39.52498" y1="85.28781" x2="42.02219" y2="83.40603" stroke="#228B22" stroke-width="0.04000"/>
      <line x1="40.03308" y1="84.77972" x2="41.99617" y2="83.30042" stroke="#228B22" stroke-width="0.04000"/>
      <line x1="40.96057" y1="84.70687" x2="41.26365" y2="84.47849" stroke="#228B22" stroke-width="0.04000"/>
      <line x1="40.54114" y1="84.27165" x2="41.95605" y2="83.20544" stroke="#228B22" stroke-width="0.04000"/>
      <line x1="41.04923" y1="83.76357" x2="41.90744" y2="83.11686" stroke="#228B22" stroke-width="0.04000"/>
      <line x1="41.45513" y1="83.33248" x2="41.85818" y2="83.02876" stroke="#228B22" stroke-width="0.04000"/>
      <line x1="41.40599" y1="83.24429" x2="41.80837" y2="82.94109" stroke="#228B22" stroke-width="0.04000"/>
      <line x1="41.43903" y1="83.09420" x2="41.76085" y2="82.85168" stroke="#228B22" stroke-width="0.04000"/>
    </g>
    <g class="thermal-hatch" data-segment="8" data-name="CoreNormalHatch">
      <line x1="41.26340" y1="83.95920" x2="41.71550" y2="83.61860" stroke="#228B22" stroke-width="0.04000"/>
      <line x1="41.58390" y1="83.84280" x2="40.75570" y2="84.46690" stroke="#228B22" stroke-width="0.04000"/>
      <line x1="36.73560" y1="88.24760" x2="37.18470" y2="87.90920" stroke="#228B22" stroke-width="0.04000"/>
    </g>
    <g class="thermal-hatch" data-segment="9" data-name="CoreContourHatch">
      <line x1="41.66660" y1="83.51790" x2="41.76380" y2="83.44470" stroke="#800080" stroke-width="0.04000"/>
      <line x1="41.76580" y1="83.54330" x2="41.73630" y2="83.56550" stroke="#800080" stroke-width="0.04000"/>
      <line x1="41.69460" y1="83.69710" x2="41.74000" y2="83.66300" stroke="#800080" stroke-width="0.04000"/>
      <line x1="41.41540" y1="83.80730" x2="41.26010" y2="83.92440" stroke="#800080" stroke-width="0.04000"/>
      <line x1="40.66950" y1="84.56970" x2="41.56230" y2="83.89690" stroke="#800080" stroke-width="0.04000"/>
      <line x1="41.00880" y1="84.21390" x2="40.85330" y2="84.33110" stroke="#800080" stroke-width="0.04000"/>
      <line x1="40.49580" y1="84.70060" x2="40.60250" y2="84.62010" stroke="#800080" stroke-width="0.04000"/>
      <line x1="37.10100" y1="87.85980" x2="37.07280" y2="87.88100" stroke="#800080" stroke-width="0.04000"/>
      <line x1="37.17240" y1="87.90600" x2="37.20020" y2="87.88520" stroke="#800080" stroke-width="0.04000"/>
      <line x1="37.03010" y1="87.91320" x2="36.87370" y2="88.03110" stroke="#800080" stroke-width="0.04000"/>
      <line x1="36.99140" y1="88.14270" x2="37.10890" y2="88.05420" stroke="#800080" stroke-width="0.04000"/>
      <line x1="36.72850" y1="88.24060" x2="36.70680" y2="88.25700" stroke="#800080" stroke-width="0.04000"/>
      <line x1="36.78790" y1="88.29620" x2="36.85650" y2="88.24440" stroke="#800080" stroke-width="0.04000"/>
    </g>
    <g class="thermal-contour" data-segment="1" data-name="CoreContour_Volume">
    <path d="M 41.775 82.877 L 41.8174 82.9585 L 41.818 82.9594 L 41.8484 83.0146 L 41.8524 83.022 L 41.8597 83.0305 L 41.8882 83.0823 L 41.8882 83.0823 L 41.9037 83.1104 L 41.9421 83.1768 L 41.9469 83.1854 L 41.9485 83.1891 L 41.9508 83.1948 L 41.9596 83.2126 L 41.9596 83.2126 L 41.9705 83.2349 L 41.9865 83.2762 L 41.9883 83.2809 L 41.9948 83.2956 L 41.9982 83.3075 L 42.0113 83.3516 L 42.0137 83.3642 L 42.0228 83.4092 L 42.0242 83.4226 L 42.0292 83.4678 L 42.0294 83.4823 L 42.0305 83.527 L 42.0294 83.5426 L 42.0267 83.5862 L 42.024 83.6032 L 42.0179 83.645 L 42.0133 83.6637 L 42.0041 83.7029 L 41.9974 83.7231 L 41.9856 83.7595 L 41.9642 83.8045 L 41.9503 83.8375 L 41.9352 83.8669 L 41.9003 83.9177 L 41.8847 83.9425 L 41.869 83.9639 L 41.8299 84.0062 L 41.7942 84.0437 L 41.7862 84.0508 L 41.7768 84.0598 L 41.7622 84.072 L 41.7037 84.1227 L 41.6293 84.1867 L 41.5868 84.2235 L 41.5868 84.2236 L 41.5668 84.2409 L 41.5669 84.241 L 41.5643 84.2432 L 41.448 84.3358 L 41.3468 84.4155 L 41.3016 84.4495 L 41.1881 84.536 L 41.1882 84.5361 L 41.1455 84.5694 L 41.1187 84.5909 L 41.1014 84.6053 L 41.0982 84.6079 L 41.0857 84.6185 L 41.0789 84.6243 L 40.9332 84.726 L 40.9063 84.7486 L 40.8902 84.7622 L 40.8456 84.8008 L 40.7898 84.8503 L 40.7899 84.8504 L 40.7559 84.8813 L 40.7322 84.9028 L 40.7107 84.9229 L 40.6815 84.95 L 40.6485 84.9807 L 40.5656 85.0589 L 40.5656 85.0589 L 40.5449 85.0785 L 40.4036 85.1875 L 40.3495 85.2399 L 40.2959 85.2917 L 40.2757 85.3113 L 40.1411 85.4234 L 39.9976 85.5654 L 39.9908 85.5721 L 39.7583 85.7989 L 39.718 85.8382 L 39.6517 85.8966 L 39.5171 86.0305 L 39.3238 86.2181 L 39.3002 86.2403 L 39.0307 86.4947 L 38.3459 87.1617 L 38.2839 87.2193 L 37.849 87.6595 L 37.6598 87.8474 L 37.5631 87.9469 L 37.511 88.0004 L 37.3797 88.1479 L 37.3787 88.149 L 37.3786 88.1492 L 37.3772 88.1506 L 37.2062 88.3378 L 37.1977 88.3469 L 37.182 88.3637 L 37.1757 88.3704 L 37.1713 88.3743 L 37.1521 88.3924 L 37.1508 88.3935 L 37.136 88.4063 L 37.1179 88.4213 L 37.1165 88.4226 L 37.1099 88.4283 L 37.0973 88.4368 L 37.0808 88.4489 L 37.0791 88.45 L 37.0644 88.4593 L 37.0355 88.479 L 37.0104 88.4918 L 36.9983 88.4983 L 36.9963 88.4994 L 36.9857 88.5041 L 36.955 88.5199 L 36.9145 88.5341 L 36.9075 88.5366 L 36.9054 88.5373 L 36.8994 88.5389 L 36.8714 88.5487 L 36.86 88.5507 L 36.8583 88.551 L 36.815 88.5586 L 36.8128 88.559 L 36.8111 88.5593 L 36.8092 88.5594 L 36.7883 88.5631 L 36.7648 88.5626 L 36.7552 88.5624 L 36.7208 88.5605 L 36.7084 88.5598 L 36.7063 88.5594 L 36.6789 88.5513 L 36.6783 88.5511 L 36.6748 88.5499 L 36.6367 88.5385 L 36.6325 88.5363 L 36.6047 88.5184 L 36.6046 88.5183 L 36.6009 88.5153 L 36.5736 88.4957 L 36.3131 88.2358 L 36.3129 88.2355 L 36.3055 88.2277 L 36.3122 88.221 L 36.3154 88.2178 L 36.3197 88.2135 L 36.6112 87.922 L 36.6112 87.922 L 36.6779 87.8553 L 36.7997 87.7336 L 36.9713 87.5619 L 36.9817 87.564 L 37.0122 87.5709 L 37.1581 87.6031 L 37.1992 87.6136 L 37.3417 87.4711 L 37.5219 87.2909 L 37.6714 87.1414 L 37.9629 86.8499 L 37.9629 86.8499 L 38.1759 86.6369 L 38.4451 86.3677 L 38.6533 86.1595 L 39.0907 85.7221 L 39.3028 85.51 L 39.3344 85.4784 L 39.4502 85.3626 L 39.4502 85.3626 L 39.5689 85.2439 L 39.5968 85.216 L 39.7411 85.0717 L 39.8073 85.0055 L 39.8802 84.9326 L 39.9275 84.8853 L 40.0198 84.793 L 40.0481 84.7646 L 40.0481 84.7646 L 40.064 84.7488 L 40.1824 84.6304 L 40.1824 84.6304 L 40.2024 84.6104 L 40.319 84.4938 L 40.3576 84.4552 L 40.4477 84.3651 L 40.461 84.3518 L 40.461 84.3518 L 40.6108 84.202 L 40.8042 84.0086 L 40.8669 83.9459 L 40.8759 83.9369 L 41.087 83.7258 L 41.1368 83.676 L 41.1561 83.6567 L 41.4236 83.3892 L 41.4313 83.3815 L 41.4313 83.3815 L 41.4641 83.3487 L 41.3827 83.2025 L 41.364 83.1692 L 41.628 82.9052 L 41.7324 82.8009 L 41.775 82.877" fill="none" stroke="#000000" stroke-width="0.05000" fill-rule="evenodd" fill-opacity="1.000"/>
    </g>
    <g class="thermal-contour" data-segment="1" data-name="CoreContour_Volume">
    <path d="M 41.6866 83.136 L 41.6947 83.1454 L 41.713 83.1788 L 41.7295 83.2088 L 41.767 83.2737 L 41.7683 83.2769 L 41.7774 83.2951 L 41.7871 83.3151 L 41.7931 83.3304 L 41.7931 83.3306 L 41.8034 83.3573 L 41.8062 83.3635 L 41.8168 83.3995 L 41.8175 83.403 L 41.8248 83.4394 L 41.8254 83.444 L 41.8254 83.4441 L 41.8292 83.4798 L 41.8294 83.4863 L 41.8302 83.523 L 41.8298 83.5298 L 41.8277 83.5635 L 41.8262 83.5731 L 41.8212 83.6071 L 41.8189 83.617 L 41.8111 83.6493 L 41.8073 83.6609 L 41.7992 83.6856 L 41.7817 83.7226 L 41.7691 83.752 L 41.7626 83.7648 L 41.7331 83.8077 L 41.7195 83.8293 L 41.714 83.8367 L 41.6852 83.8681 L 41.6545 83.9002 L 41.6503 83.9041 L 41.6431 83.9108 L 41.6326 83.9197 L 41.5729 83.9713 L 41.4987 84.0353 L 41.4331 84.0918 L 41.3242 84.1786 L 41.223 84.2583 L 41.1808 84.2901 L 40.8849 84.5156 L 40.8114 84.5671 L 40.7775 84.5956 L 40.7602 84.6102 L 40.7138 84.6504 L 40.4982 84.8415 L 40.5012 84.8445 L 40.4284 84.9134 L 40.4147 84.9262 L 40.2726 85.0361 L 40.2105 85.0961 L 40.1568 85.148 L 40.1413 85.1628 L 40.0065 85.2752 L 39.8572 85.4229 L 39.8508 85.4292 L 39.6187 85.6557 L 39.5814 85.692 L 39.5149 85.7506 L 39.3779 85.8869 L 39.1846 86.0745 L 39.1631 86.0947 L 38.8923 86.3503 L 38.2084 87.0163 L 38.1446 87.0757 L 37.708 87.5176 L 37.5176 87.7068 L 37.4199 87.8073 L 37.3646 87.864 L 37.2307 88.0144 L 37.2297 88.0155 L 37.06 88.2012 L 37.0515 88.2103 L 37.0374 88.2255 L 37.0354 88.2275 L 37.0169 88.2447 L 37.0073 88.2531 L 36.9879 88.2692 L 36.9821 88.2732 L 36.9683 88.2833 L 36.9544 88.2922 L 36.9334 88.3064 L 36.9177 88.3146 L 36.9074 88.32 L 36.8992 88.3237 L 36.8759 88.3356 L 36.8477 88.3456 L 36.8462 88.3461 L 36.8404 88.3477 L 36.8204 88.3545 L 36.7863 88.3605 L 36.7845 88.3607 L 36.7729 88.3626 L 36.769 88.3626 L 36.7594 88.3624 L 36.7422 88.3614 L 36.7392 88.3605 L 36.7393 88.3605 L 36.7348 88.3591 L 36.7201 88.3546 L 36.7032 88.3425 L 36.5881 88.2277 L 36.7526 88.0634 L 36.8193 87.9967 L 36.9411 87.875 L 37.0352 87.7807 L 37.1111 87.7974 L 37.1111 87.7975 L 37.26 87.8356 L 40.1614 84.9342 L 40.1891 84.9064 L 40.2052 84.8904 L 41.7123 83.3833 L 41.6122 83.2036 L 41.6842 83.1316 L 41.6866 83.136" fill="none" stroke="#000000" stroke-width="0.05000" fill-rule="evenodd" fill-opacity="1.000"/>
    <path d="M 37.0048 87.9386 L 36.8829 88.0604 L 36.8828 88.0603 L 36.8162 88.1271 L 36.7155 88.2276 L 36.7603 88.2723 L 36.7612 88.2724 L 36.7613 88.2724 L 36.7661 88.2725 L 36.7722 88.2715 L 36.7738 88.2713 L 36.7976 88.2671 L 36.8139 88.2616 L 36.8202 88.2598 L 36.84 88.2528 L 36.8602 88.2426 L 36.8675 88.2392 L 36.876 88.2349 L 36.887 88.229 L 36.9049 88.217 L 36.9172 88.2091 L 36.93 88.1998 L 36.9331 88.1976 L 36.9498 88.1838 L 36.9565 88.1779 L 36.9726 88.1629 L 36.9856 88.149 L 36.9942 88.1398 L 37.1633 87.9548 L 37.1641 87.9539 L 37.2003 87.9132 L 37.0867 87.8841 L 37.064 87.8791 L 37.0048 87.9386" fill="none" stroke="#000000" stroke-width="0.05000" fill-rule="evenodd" fill-opacity="1.000"/>
    <path d="M 40.5276 84.6951 L 40.6545 84.5827 L 40.7017 84.5418 L 40.7195 84.5268 L 40.7565 84.4957 L 40.8302 84.444 L 41.1264 84.2184 L 41.1688 84.1864 L 41.2685 84.1079 L 41.377 84.0214 L 41.4399 83.9671 L 41.5141 83.9031 L 41.5741 83.8513 L 41.5838 83.843 L 41.589 83.8382 L 41.5917 83.8355 L 41.6202 83.8059 L 41.6444 83.7794 L 41.6446 83.7791 L 41.6579 83.7582 L 41.6854 83.718 L 41.6876 83.7138 L 41.6996 83.6856 L 41.7156 83.6516 L 41.7218 83.6329 L 41.7243 83.6251 L 41.7314 83.5959 L 41.7328 83.5894 L 41.7372 83.5596 L 41.7381 83.5535 L 41.74 83.5242 L 41.7401 83.5221 L 41.7394 83.4891 L 41.7392 83.4854 L 41.7391 83.4837 L 40.5276 84.6951" fill="none" stroke="#000000" stroke-width="0.05000" fill-rule="evenodd" fill-opacity="1.000"/>
    </g>
    <g class="thermal-contour" data-segment="3" data-name="HollowShell1Contour_Volume">
    <path d="M 41.775 82.877 L 41.8174 82.9585 L 41.818 82.9594 L 41.8484 83.0146 L 41.8524 83.022 L 41.8597 83.0305 L 41.8882 83.0823 L 41.9037 83.1104 L 41.9421 83.1768 L 41.9469 83.1854 L 41.9485 83.1891 L 41.9508 83.1948 L 41.9596 83.2126 L 41.9705 83.2349 L 41.9865 83.2762 L 41.9883 83.2809 L 41.9948 83.2956 L 41.9982 83.3075 L 42.0113 83.3516 L 42.0137 83.3642 L 42.0228 83.4092 L 42.0242 83.4226 L 42.0292 83.4678 L 42.0294 83.4823 L 42.0305 83.527 L 42.0294 83.5426 L 42.0267 83.5862 L 42.024 83.6032 L 42.0179 83.645 L 42.0133 83.6637 L 42.0041 83.7029 L 41.9974 83.7231 L 41.9856 83.7595 L 41.9642 83.8045 L 41.9503 83.8375 L 41.9352 83.8669 L 41.9003 83.9177 L 41.8847 83.9425 L 41.869 83.9639 L 41.8299 84.0062 L 41.7942 84.0437 L 41.7862 84.0508 L 41.7768 84.0598 L 41.7622 84.072 L 41.7037 84.1227 L 41.6293 84.1867 L 41.5868 84.2235 L 41.5868 84.2236 L 41.5668 84.2409 L 41.5669 84.241 L 41.5643 84.2432 L 41.448 84.3358 L 41.3468 84.4155 L 41.3016 84.4495 L 41.1881 84.536 L 41.1882 84.5361 L 41.1455 84.5694 L 41.1187 84.5909 L 41.1014 84.6053 L 41.0982 84.6079 L 41.0857 84.6185 L 41.0789 84.6243 L 40.9332 84.726 L 40.9063 84.7486 L 40.8902 84.7622 L 40.8456 84.8008 L 40.7898 84.8503 L 40.7899 84.8504 L 40.7559 84.8813 L 40.7322 84.9028 L 40.7107 84.9229 L 40.6815 84.95 L 40.6485 84.9807 L 40.5656 85.0589 L 40.5449 85.0785 L 40.4036 85.1875 L 40.3495 85.2399 L 40.2959 85.2917 L 40.2757 85.3113 L 40.1411 85.4234 L 39.9976 85.5654 L 39.9908 85.5721 L 39.7583 85.7989 L 39.718 85.8382 L 39.6517 85.8966 L 39.5171 86.0305 L 39.3238 86.2181 L 39.3002 86.2403 L 39.0307 86.4947 L 38.3459 87.1617 L 38.2839 87.2193 L 37.849 87.6595 L 37.6598 87.8474 L 37.5631 87.9469 L 37.511 88.0004 L 37.3797 88.1479 L 37.3787 88.149 L 37.3786 88.1492 L 37.3772 88.1506 L 37.2062 88.3378 L 37.1977 88.3469 L 37.182 88.3637 L 37.1757 88.3704 L 37.1713 88.3743 L 37.1521 88.3924 L 37.1508 88.3935 L 37.136 88.4063 L 37.1179 88.4213 L 37.1165 88.4226 L 37.1099 88.4283 L 37.0973 88.4368 L 37.0808 88.4489 L 37.0791 88.45 L 37.0644 88.4593 L 37.0355 88.479 L 37.0104 88.4918 L 36.9983 88.4983 L 36.9963 88.4994 L 36.9857 88.5041 L 36.955 88.5199 L 36.9144 88.5341 L 36.9075 88.5366 L 36.9054 88.5373 L 36.8994 88.5389 L 36.8714 88.5487 L 36.86 88.5507 L 36.8583 88.551 L 36.815 88.5586 L 36.8128 88.559 L 36.8111 88.5593 L 36.8092 88.5594 L 36.7883 88.5631 L 36.7648 88.5626 L 36.7552 88.5624 L 36.7208 88.5605 L 36.7084 88.5598 L 36.7063 88.5594 L 36.6789 88.5513 L 36.6783 88.5511 L 36.6748 88.5499 L 36.6367 88.5385 L 36.6325 88.5363 L 36.6047 88.5184 L 36.6046 88.5183 L 36.6009 88.5153 L 36.5736 88.4957 L 36.3131 88.2358 L 36.3129 88.2355 L 36.3055 88.2277 L 36.3122 88.221 L 36.3154 88.2178 L 36.3197 88.2135 L 36.6112 87.922 L 36.6779 87.8553 L 36.7115 87.8217 L 36.8248 87.8498 L 36.7486 87.926 L 36.6819 87.9927 L 36.4467 88.2278 L 36.6385 88.4192 L 36.6616 88.4358 L 36.6634 88.4372 L 36.6774 88.4463 L 36.7054 88.4547 L 36.7092 88.4559 L 36.7248 88.4606 L 36.7264 88.4607 L 36.7263 88.4607 L 36.7572 88.4624 L 36.7573 88.4624 L 36.7669 88.4626 L 36.7806 88.4628 L 36.7978 88.4599 L 36.7998 88.4597 L 36.8409 88.4525 L 36.8427 88.4522 L 36.8461 88.4515 L 36.87 88.4433 L 36.8758 88.4417 L 36.8809 88.4399 L 36.9154 88.4278 L 36.9425 88.4139 L 36.951 88.4101 L 36.964 88.4032 L 36.9846 88.3926 L 37.0095 88.3757 L 37.0248 88.3659 L 37.0397 88.355 L 37.0487 88.3489 L 37.0511 88.3469 L 37.0519 88.3461 L 37.0722 88.3293 L 37.0849 88.3182 L 37.1038 88.3005 L 37.1055 88.2989 L 37.1091 88.2952 L 37.1246 88.2786 L 37.1331 88.2695 L 37.3049 88.0815 L 37.305 88.0814 L 37.3057 88.0806 L 37.4378 87.9322 L 37.4915 87.8771 L 37.5887 87.7771 L 37.7785 87.5885 L 38.2143 87.1475 L 38.2778 87.0884 L 38.9615 86.4225 L 39.2316 86.1675 L 39.2542 86.1463 L 39.4475 85.9587 L 39.5833 85.8236 L 39.6497 85.7651 L 39.6885 85.7273 L 39.921 85.5005 L 39.9274 85.4942 L 40.0738 85.3493 L 40.2085 85.2371 L 40.2263 85.2199 L 40.28 85.168 L 40.3381 85.1118 L 40.4798 85.0023 L 40.4969 84.9862 L 40.5801 84.9077 L 40.6134 84.8767 L 40.6427 84.8496 L 40.6452 84.8471 L 40.644 84.8459 L 40.7797 84.7256 L 40.8252 84.6862 L 40.8419 84.6721 L 40.8723 84.6466 L 41.0173 84.5453 L 41.0209 84.5423 L 41.0343 84.531 L 41.0374 84.5284 L 41.0383 84.5276 L 41.0365 84.5258 L 41.2412 84.3698 L 41.2849 84.3369 L 41.3861 84.2572 L 41.4968 84.169 L 41.564 84.111 L 41.6382 84.0471 L 41.6974 83.9958 L 41.7097 83.9855 L 41.7184 83.9773 L 41.7245 83.9717 L 41.7575 83.9372 L 41.7916 83.9002 L 41.8023 83.8856 L 41.8167 83.8627 L 41.8488 83.816 L 41.8596 83.7949 L 41.8729 83.7636 L 41.8925 83.7223 L 41.9024 83.6919 L 41.9076 83.676 L 41.9161 83.6403 L 41.9195 83.6262 L 41.9251 83.5881 L 41.9272 83.5747 L 41.9296 83.536 L 41.9303 83.5246 L 41.9294 83.4842 L 41.9292 83.4739 L 41.9248 83.4333 L 41.9237 83.4239 L 41.9156 83.3835 L 41.9141 83.3759 L 41.9022 83.3355 L 41.9005 83.3296 L 41.8958 83.319 L 41.8931 83.312 L 41.8931 83.3119 L 41.8788 83.275 L 41.8698 83.2565 L 41.8698 83.2564 L 41.8595 83.2357 L 41.8569 83.2293 L 41.8555 83.2268 L 41.8555 83.2269 L 41.8166 83.1596 L 41.8006 83.1306 L 41.7772 83.088 L 41.7695 83.079 L 41.7604 83.0622 L 41.7604 83.0621 L 41.7326 83.0116 L 41.7312 83.0095 L 41.7085 82.966 L 41.6987 82.9759 L 41.4936 83.1808 L 41.4427 83.0904 L 41.628 82.9052 L 41.7324 82.8009 L 41.775 82.877" fill="none" stroke="#0000CC" stroke-width="0.05000" fill-rule="evenodd" fill-opacity="1.000"/>
    <path d="M 41.5882 83.366 L 40.1346 84.8196 L 40.1186 84.8355 L 40.0906 84.8636 L 37.2296 87.7246 L 37.1359 87.7006 L 37.086 87.6895 L 37.1691 87.6065 L 37.1695 87.606 L 37.1992 87.6136 L 37.3417 87.4711 L 37.5219 87.2909 L 37.6714 87.1414 L 37.9629 86.8499 L 38.1759 86.6369 L 38.4451 86.3677 L 38.6533 86.1595 L 39.0907 85.7221 L 39.3028 85.51 L 39.3344 85.4784 L 39.4502 85.3626 L 39.5689 85.2439 L 39.5968 85.216 L 39.7411 85.0717 L 39.8073 85.0055 L 39.8802 84.9326 L 39.9275 84.8853 L 40.0198 84.793 L 40.0481 84.7646 L 40.064 84.7488 L 40.1824 84.6304 L 40.2024 84.6104 L 40.319 84.4938 L 40.3576 84.4552 L 40.4477 84.3651 L 40.461 84.3518 L 40.6108 84.202 L 40.8042 84.0086 L 40.8669 83.9459 L 40.8759 83.9369 L 41.087 83.7258 L 41.1368 83.676 L 41.1561 83.6567 L 41.4236 83.3892 L 41.4313 83.3815 L 41.4641 83.3487 L 41.4507 83.3246 L 41.5243 83.2512 L 41.5882 83.366" fill="none" stroke="#0000CC" stroke-width="0.05000" fill-rule="evenodd" fill-opacity="1.000"/>
    </g>
    <g class="thermal-contour" data-segment="4" data-name="HollowShell1Contour_Overhang">
    <path d="M 36.9817 87.564 L 37.0122 87.5709 L 37.1581 87.6031 L 37.1695 87.606 L 37.1691 87.6065 L 37.086 87.6895 L 37.0032 87.6713 L 36.8704 87.8043 L 36.8248 87.8498 L 36.7115 87.8217 L 36.7997 87.7336 L 36.9713 87.5619 L 36.9817 87.564" fill="none" stroke="#000080" stroke-width="0.05000" fill-rule="evenodd" fill-opacity="1.000"/>
    <path d="M 41.4936 83.1808 L 41.4882 83.1863 L 41.5243 83.2512 L 41.4507 83.3247 L 41.4475 83.319 L 41.3827 83.2025 L 41.364 83.1692 L 41.4427 83.0904 L 41.4936 83.1808" fill="none" stroke="#000080" stroke-width="0.05000" fill-rule="evenodd" fill-opacity="1.000"/>
    </g>
    <g class="thermal-contour" data-segment="5" data-name="HollowShell2Contour_Volume">
    <path d="M 41.7312 83.0095 L 41.7326 83.0116 L 41.7604 83.0621 L 41.7604 83.0622 L 41.7695 83.079 L 41.7772 83.088 L 41.8006 83.1306 L 41.8166 83.1596 L 41.8555 83.2269 L 41.8555 83.2268 L 41.8569 83.2293 L 41.8595 83.2357 L 41.8698 83.2564 L 41.8698 83.2565 L 41.8788 83.275 L 41.8931 83.3119 L 41.8931 83.312 L 41.8958 83.319 L 41.9005 83.3296 L 41.9022 83.3355 L 41.9141 83.3759 L 41.9156 83.3835 L 41.9237 83.4239 L 41.9248 83.4333 L 41.9292 83.4739 L 41.9294 83.4842 L 41.9303 83.5246 L 41.9296 83.536 L 41.9272 83.5747 L 41.9251 83.5881 L 41.9195 83.6262 L 41.9161 83.6403 L 41.9076 83.676 L 41.9024 83.6919 L 41.8925 83.7223 L 41.8729 83.7636 L 41.8596 83.7949 L 41.8488 83.816 L 41.8167 83.8627 L 41.8023 83.8856 L 41.7916 83.9002 L 41.7575 83.9372 L 41.7245 83.9717 L 41.7184 83.9773 L 41.7097 83.9855 L 41.6974 83.9958 L 41.6382 84.0471 L 41.564 84.111 L 41.4968 84.169 L 41.3861 84.2572 L 41.2849 84.3369 L 41.2412 84.3698 L 41.0365 84.5258 L 41.0383 84.5276 L 41.0374 84.5284 L 41.0343 84.531 L 41.0209 84.5423 L 41.0173 84.5453 L 40.8723 84.6466 L 40.8419 84.6721 L 40.8252 84.6862 L 40.7797 84.7256 L 40.644 84.8459 L 40.6452 84.8471 L 40.6427 84.8496 L 40.6134 84.8767 L 40.5801 84.9077 L 40.4969 84.9862 L 40.4798 85.0023 L 40.3381 85.1118 L 40.28 85.168 L 40.2263 85.2199 L 40.2085 85.2371 L 40.0738 85.3493 L 39.9274 85.4942 L 39.921 85.5005 L 39.6885 85.7273 L 39.6497 85.7651 L 39.5833 85.8236 L 39.4475 85.9587 L 39.2542 86.1463 L 39.2316 86.1675 L 38.9615 86.4225 L 38.2778 87.0884 L 38.2143 87.1475 L 37.7785 87.5885 L 37.5887 87.7771 L 37.4915 87.8771 L 37.4378 87.9322 L 37.3057 88.0806 L 37.305 88.0814 L 37.3049 88.0815 L 37.1331 88.2695 L 37.1246 88.2786 L 37.1091 88.2952 L 37.1055 88.2989 L 37.1038 88.3005 L 37.0849 88.3182 L 37.0722 88.3293 L 37.0519 88.3461 L 37.0511 88.3469 L 37.0487 88.3489 L 37.0397 88.355 L 37.0248 88.3659 L 37.0095 88.3757 L 36.9846 88.3926 L 36.964 88.4032 L 36.951 88.4101 L 36.9425 88.4139 L 36.9154 88.4278 L 36.8809 88.4399 L 36.8758 88.4417 L 36.87 88.4433 L 36.8461 88.4515 L 36.8427 88.4522 L 36.8409 88.4525 L 36.7998 88.4597 L 36.7978 88.4599 L 36.7806 88.4628 L 36.7669 88.4626 L 36.7573 88.4624 L 36.7572 88.4624 L 36.7263 88.4607 L 36.7264 88.4607 L 36.7248 88.4606 L 36.7092 88.4559 L 36.7054 88.4547 L 36.6774 88.4463 L 36.6634 88.4372 L 36.6616 88.4358 L 36.6385 88.4192 L 36.4467 88.2278 L 36.6819 87.9927 L 36.7486 87.926 L 36.8248 87.8498 L 36.9057 87.8699 L 37.086 87.6895 L 37.1359 87.7006 L 37.2296 87.7246 L 40.0906 84.8636 L 40.1186 84.8355 L 40.1346 84.8196 L 41.5882 83.366 L 41.5243 83.2512 L 41.5299 83.2457 L 41.5008 83.1935 L 41.4936 83.1808 L 41.6987 82.9759 L 41.7085 82.966 L 41.7312 83.0095" fill="none" stroke="#B8860B" stroke-width="0.05000" fill-rule="evenodd" fill-opacity="1.000"/>
    <path d="M 41.6122 83.2036 L 41.7123 83.3833 L 40.2052 84.8904 L 40.1891 84.9064 L 40.1614 84.9342 L 37.26 87.8356 L 37.1111 87.7975 L 37.1111 87.7974 L 37.0352 87.7807 L 36.9411 87.875 L 36.8193 87.9967 L 36.7526 88.0634 L 36.5881 88.2277 L 36.7032 88.3425 L 36.7201 88.3546 L 36.7348 88.3591 L 36.7393 88.3605 L 36.7392 88.3605 L 36.7422 88.3614 L 36.7594 88.3624 L 36.769 88.3626 L 36.7729 88.3626 L 36.7845 88.3607 L 36.7863 88.3605 L 36.8204 88.3545 L 36.8404 88.3477 L 36.8462 88.3461 L 36.8477 88.3456 L 36.8759 88.3356 L 36.8992 88.3237 L 36.9074 88.32 L 36.9177 88.3146 L 36.9334 88.3064 L 36.9544 88.2922 L 36.9683 88.2833 L 36.9821 88.2732 L 36.9879 88.2692 L 37.0073 88.2531 L 37.0169 88.2447 L 37.0354 88.2275 L 37.0374 88.2255 L 37.0515 88.2103 L 37.06 88.2012 L 37.2297 88.0155 L 37.2307 88.0144 L 37.3646 87.864 L 37.4199 87.8073 L 37.5176 87.7068 L 37.708 87.5176 L 38.1446 87.0757 L 38.2084 87.0163 L 38.8923 86.3503 L 39.1631 86.0947 L 39.1846 86.0745 L 39.3779 85.8869 L 39.5149 85.7506 L 39.5814 85.692 L 39.6187 85.6557 L 39.8508 85.4292 L 39.8572 85.4229 L 40.0065 85.2752 L 40.1413 85.1628 L 40.1568 85.148 L 40.2105 85.0961 L 40.2726 85.0361 L 40.4147 84.9262 L 40.4284 84.9134 L 40.5012 84.8445 L 40.4982 84.8415 L 40.7138 84.6504 L 40.7602 84.6102 L 40.7775 84.5956 L 40.8114 84.5671 L 40.8849 84.5156 L 41.1808 84.2901 L 41.223 84.2583 L 41.3242 84.1786 L 41.4331 84.0918 L 41.4987 84.0353 L 41.5729 83.9713 L 41.6326 83.9197 L 41.6431 83.9108 L 41.6503 83.9041 L 41.6545 83.9002 L 41.6852 83.8681 L 41.714 83.8367 L 41.7195 83.8293 L 41.7331 83.8077 L 41.7626 83.7648 L 41.7691 83.752 L 41.7817 83.7226 L 41.7992 83.6856 L 41.8073 83.6609 L 41.8111 83.6493 L 41.8189 83.617 L 41.8212 83.6071 L 41.8262 83.5731 L 41.8277 83.5635 L 41.8298 83.5298 L 41.8302 83.523 L 41.8294 83.4863 L 41.8292 83.4798 L 41.8254 83.4441 L 41.8254 83.444 L 41.8248 83.4394 L 41.8175 83.403 L 41.8168 83.3995 L 41.8062 83.3635 L 41.8034 83.3573 L 41.7931 83.3306 L 41.7931 83.3304 L 41.7871 83.3151 L 41.7774 83.2951 L 41.7683 83.2769 L 41.767 83.2737 L 41.7295 83.2088 L 41.713 83.1788 L 41.6947 83.1454 L 41.6866 83.136 L 41.6842 83.1316 L 41.6122 83.2036" fill="none" stroke="#B8860B" stroke-width="0.05000" fill-rule="evenodd" fill-opacity="1.000"/>
    </g>
    <g class="thermal-contour" data-segment="6" data-name="HollowShell2Contour_Overhang">
    <path d="M 37.086 87.6895 L 36.9057 87.8699 L 36.8248 87.8498 L 36.8704 87.8043 L 37.0032 87.6713 L 37.086 87.6895" fill="none" stroke="#006400" stroke-width="0.05000" fill-rule="evenodd" fill-opacity="1.000"/>
    <path d="M 41.5008 83.1935 L 41.5299 83.2457 L 41.5243 83.2512 L 41.4882 83.1863 L 41.4936 83.1808 L 41.5008 83.1935" fill="none" stroke="#006400" stroke-width="0.05000" fill-rule="evenodd" fill-opacity="1.000"/>
    </g>
    <!-- ===== Thermal Segment Colour Legend ===== -->
    <g id="thermal-legend">
    <rect x="161.0000" y="5.0000" width="40.0000" height="72.0000"
          rx="1" ry="1"
          fill="#fafafa" stroke="#cccccc" stroke-width="0.15"/>
    <text x="181.0000" y="7.6000" font-family="sans-serif" font-size="2.2000" font-weight="bold" fill="#222222" text-anchor="middle">Thermal Segments</text>
    <line x1="161.5000" y1="8.7000" x2="200.5000" y2="8.7000" stroke="#bbbbbb" stroke-width="0.1"/>
    <rect x="161.8000" y="9.0000" width="3.5000" height="2.0000" fill="#000000" stroke="#333333" stroke-width="0.08" rx="0.3" ry="0.3"/>
    <text x="168.6000" y="10.9000" font-family="monospace" font-size="1.6000" fill="#444444" text-anchor="end"> 1</text>
    <text x="169.6000" y="10.9000" font-family="sans-serif" font-size="1.6000" fill="#111111">CoreContour_Volume</text>
    <rect x="161.8000" y="12.0000" width="3.5000" height="2.0000" fill="#8B0000" stroke="#333333" stroke-width="0.08" rx="0.3" ry="0.3"/>
    <text x="168.6000" y="13.9000" font-family="monospace" font-size="1.6000" fill="#444444" text-anchor="end"> 2</text>
    <text x="169.6000" y="13.9000" font-family="sans-serif" font-size="1.6000" fill="#111111">CoreContour_Overhang</text>
    <rect x="161.8000" y="15.0000" width="3.5000" height="2.0000" fill="#0000CC" stroke="#333333" stroke-width="0.08" rx="0.3" ry="0.3"/>
    <text x="168.6000" y="16.9000" font-family="monospace" font-size="1.6000" fill="#444444" text-anchor="end"> 3</text>
    <text x="169.6000" y="16.9000" font-family="sans-serif" font-size="1.6000" fill="#111111">Shell1Contour_Volume</text>
    <rect x="161.8000" y="18.0000" width="3.5000" height="2.0000" fill="#000080" stroke="#333333" stroke-width="0.08" rx="0.3" ry="0.3"/>
    <text x="168.6000" y="19.9000" font-family="monospace" font-size="1.6000" fill="#444444" text-anchor="end"> 4</text>
    <text x="169.6000" y="19.9000" font-family="sans-serif" font-size="1.6000" fill="#111111">Shell1Contour_Overhang</text>
    <rect x="161.8000" y="21.0000" width="3.5000" height="2.0000" fill="#B8860B" stroke="#333333" stroke-width="0.08" rx="0.3" ry="0.3"/>
    <text x="168.6000" y="22.9000" font-family="monospace" font-size="1.6000" fill="#444444" text-anchor="end"> 5</text>
    <text x="169.6000" y="22.9000" font-family="sans-serif" font-size="1.6000" fill="#111111">Shell2Contour_Volume</text>
    <rect x="161.8000" y="24.0000" width="3.5000" height="2.0000" fill="#006400" stroke="#333333" stroke-width="0.08" rx="0.3" ry="0.3"/>
    <text x="168.6000" y="25.9000" font-family="monospace" font-size="1.6000" fill="#444444" text-anchor="end"> 6</text>
    <text x="169.6000" y="25.9000" font-family="sans-serif" font-size="1.6000" fill="#111111">Shell2Contour_Overhang</text>
    <rect x="161.8000" y="27.0000" width="3.5000" height="2.0000" fill="#FF8C00" stroke="#333333" stroke-width="0.08" rx="0.3" ry="0.3"/>
    <text x="168.6000" y="28.9000" font-family="monospace" font-size="1.6000" fill="#444444" text-anchor="end"> 7</text>
    <text x="169.6000" y="28.9000" font-family="sans-serif" font-size="1.6000" fill="#111111">CoreOverhangHatch</text>
    <rect x="161.8000" y="30.0000" width="3.5000" height="2.0000" fill="#228B22" stroke="#333333" stroke-width="0.08" rx="0.3" ry="0.3"/>
    <text x="168.6000" y="31.9000" font-family="monospace" font-size="1.6000" fill="#444444" text-anchor="end"> 8</text>
    <text x="169.6000" y="31.9000" font-family="sans-serif" font-size="1.6000" fill="#111111">CoreNormalHatch</text>
    <rect x="161.8000" y="33.0000" width="3.5000" height="2.0000" fill="#800080" stroke="#333333" stroke-width="0.08" rx="0.3" ry="0.3"/>
    <text x="168.6000" y="34.9000" font-family="monospace" font-size="1.6000" fill="#444444" text-anchor="end"> 9</text>
    <text x="169.6000" y="34.9000" font-family="sans-serif" font-size="1.6000" fill="#111111">CoreContourHatch</text>
    <rect x="161.8000" y="36.0000" width="3.5000" height="2.0000" fill="#FF69B4" stroke="#333333" stroke-width="0.08" rx="0.3" ry="0.3"/>
    <text x="168.6000" y="37.9000" font-family="monospace" font-size="1.6000" fill="#444444" text-anchor="end">10</text>
    <text x="169.6000" y="37.9000" font-family="sans-serif" font-size="1.6000" fill="#111111">Shell1OverhangHatch</text>
    <rect x="161.8000" y="39.0000" width="3.5000" height="2.0000" fill="#00CED1" stroke="#333333" stroke-width="0.08" rx="0.3" ry="0.3"/>
    <text x="168.6000" y="40.9000" font-family="monospace" font-size="1.6000" fill="#444444" text-anchor="end">11</text>
    <text x="169.6000" y="40.9000" font-family="sans-serif" font-size="1.6000" fill="#111111">Shell1NormalHatch</text>
    <rect x="161.8000" y="42.0000" width="3.5000" height="2.0000" fill="#FF00FF" stroke="#333333" stroke-width="0.08" rx="0.3" ry="0.3"/>
    <text x="168.6000" y="43.9000" font-family="monospace" font-size="1.6000" fill="#444444" text-anchor="end">12</text>
    <text x="169.6000" y="43.9000" font-family="sans-serif" font-size="1.6000" fill="#111111">Shell1ContourHatch</text>
    <rect x="161.8000" y="45.0000" width="3.5000" height="2.0000" fill="#A52A2A" stroke="#333333" stroke-width="0.08" rx="0.3" ry="0.3"/>
    <text x="168.6000" y="46.9000" font-family="monospace" font-size="1.6000" fill="#444444" text-anchor="end">13</text>
    <text x="169.6000" y="46.9000" font-family="sans-serif" font-size="1.6000" fill="#111111">Shell2OverhangHatch</text>
    <rect x="161.8000" y="48.0000" width="3.5000" height="2.0000" fill="#808080" stroke="#333333" stroke-width="0.08" rx="0.3" ry="0.3"/>
    <text x="168.6000" y="49.9000" font-family="monospace" font-size="1.6000" fill="#444444" text-anchor="end">14</text>
    <text x="169.6000" y="49.9000" font-family="sans-serif" font-size="1.6000" fill="#111111">Shell2NormalHatch</text>
    <rect x="161.8000" y="51.0000" width="3.5000" height="2.0000" fill="#32CD32" stroke="#333333" stroke-width="0.08" rx="0.3" ry="0.3"/>
    <text x="168.6000" y="52.9000" font-family="monospace" font-size="1.6000" fill="#444444" text-anchor="end">15</text>
    <text x="169.6000" y="52.9000" font-family="sans-serif" font-size="1.6000" fill="#111111">Shell2ContourHatch</text>
    <rect x="161.8000" y="54.0000" width="3.5000" height="2.0000" fill="#1A237E" stroke="#333333" stroke-width="0.08" rx="0.3" ry="0.3"/>
    <text x="168.6000" y="55.9000" font-family="monospace" font-size="1.6000" fill="#444444" text-anchor="end">16</text>
    <text x="169.6000" y="55.9000" font-family="sans-serif" font-size="1.6000" fill="#111111">SupportContourVolume</text>
    <rect x="161.8000" y="57.0000" width="3.5000" height="2.0000" fill="#827717" stroke="#333333" stroke-width="0.08" rx="0.3" ry="0.3"/>
    <text x="168.6000" y="58.9000" font-family="monospace" font-size="1.6000" fill="#444444" text-anchor="end">17</text>
    <text x="169.6000" y="58.9000" font-family="sans-serif" font-size="1.6000" fill="#111111">SupportHatch</text>
    <rect x="161.8000" y="60.0000" width="3.5000" height="2.0000" fill="#006064" stroke="#333333" stroke-width="0.08" rx="0.3" ry="0.3"/>
    <text x="168.6000" y="61.9000" font-family="monospace" font-size="1.6000" fill="#444444" text-anchor="end">18</text>
    <text x="169.6000" y="61.9000" font-family="sans-serif" font-size="1.6000" fill="#111111">PointSequence</text>
    <rect x="161.8000" y="63.0000" width="3.5000" height="2.0000" fill="#B71C1C" stroke="#333333" stroke-width="0.08" rx="0.3" ry="0.3"/>
    <text x="168.6000" y="64.9000" font-family="monospace" font-size="1.6000" fill="#444444" text-anchor="end">19</text>
    <text x="169.6000" y="64.9000" font-family="sans-serif" font-size="1.6000" fill="#111111">ExternalSupports</text>
    <rect x="161.8000" y="66.0000" width="3.5000" height="2.0000" fill="#E64A19" stroke="#333333" stroke-width="0.08" rx="0.3" ry="0.3"/>
    <text x="168.6000" y="67.9000" font-family="monospace" font-size="1.6000" fill="#444444" text-anchor="end">20</text>
    <text x="169.6000" y="67.9000" font-family="sans-serif" font-size="1.6000" fill="#111111">CoreContourHatchOverhang</text>
    <rect x="161.8000" y="69.0000" width="3.5000" height="2.0000" fill="#311B92" stroke="#333333" stroke-width="0.08" rx="0.3" ry="0.3"/>
    <text x="168.6000" y="70.9000" font-family="monospace" font-size="1.6000" fill="#444444" text-anchor="end">21</text>
    <text x="169.6000" y="70.9000" font-family="sans-serif" font-size="1.6000" fill="#111111">Shell1ContourHatchOverhang</text>
    <rect x="161.8000" y="72.0000" width="3.5000" height="2.0000" fill="#880E4F" stroke="#333333" stroke-width="0.08" rx="0.3" ry="0.3"/>
    <text x="168.6000" y="73.9000" font-family="monospace" font-size="1.6000" fill="#444444" text-anchor="end">22</text>
    <text x="169.6000" y="73.9000" font-family="sans-serif" font-size="1.6000" fill="#111111">Shell2ContourHatchOverhang</text>
    </g>
  </g>
</svg>
