<?xml version="1.0" encoding="UTF-8" standalone="yes"?>
<!DOCTYPE svg PUBLIC "-//W3C//DTD SVG 1.0//EN" "http://www.w3.org/TR/2001/REC-SVG-20010904/DTD/svg10.dtd">
<svg height="2000" width="2000" xmlns="http://www.w3.org/2000/svg" xmlns:svg="http://www.w3.org/2000/svg" xmlns:xlink="http://www.w3.org/1999/xlink">
  <marker id="endArrow" markerHeight="8" markerUnits="strokeWidth" markerWidth="10" orient="auto" refX="1" refY="5" viewBox="0 0 1000 1000">
    <polyline fill="darkblue" points="0,0 10,5 0,10 1,5" />
  </marker>
  <circle cx="1000.000000" cy="1000.000000" r="1.000000" style="stroke:black; fill: red" />
  <circle cx="1000.000000" cy="1000.000000" r="800.000000" style="stroke:black; fill: none" />
  <line x1="1567.849365" y1="1379.947266" x2="1397.411377" y2="1410.000000" style="stroke: green; stroke-width: 0.200000"/>
  <line x1="1567.849365" y1="1380.962524" x2="1403.170166" y2="1410.000000" style="stroke: green; stroke-width: 0.200000"/>
  <line x1="1567.849365" y1="1381.978027" x2="1408.928955" y2="1410.000000" style="stroke: green; stroke-width: 0.200000"/>
  <line x1="1567.849365" y1="1382.993408" x2="1414.687744" y2="1410.000000" style="stroke: green; stroke-width: 0.200000"/>
  <line x1="1567.849365" y1="1384.008789" x2="1420.446533" y2="1410.000000" style="stroke: green; stroke-width: 0.200000"/>
  <line x1="1567.849365" y1="1385.024292" x2="1426.205078" y2="1410.000000" style="stroke: green; stroke-width: 0.200000"/>
  <line x1="1567.849365" y1="1386.039795" x2="1431.963989" y2="1410.000000" style="stroke: green; stroke-width: 0.200000"/>
  <line x1="1567.849365" y1="1387.055054" x2="1437.722778" y2="1410.000000" style="stroke: green; stroke-width: 0.200000"/>
  <line x1="1567.849365" y1="1388.070557" x2="1443.481445" y2="1410.000000" style="stroke: green; stroke-width: 0.200000"/>
  <line x1="1567.849365" y1="1389.085938" x2="1449.240479" y2="1410.000000" style="stroke: green; stroke-width: 0.200000"/>
  <line x1="1567.849365" y1="1390.101440" x2="1454.999023" y2="1410.000000" style="stroke: green; stroke-width: 0.200000"/>
  <line x1="1567.849365" y1="1391.116943" x2="1460.757935" y2="1410.000000" style="stroke: green; stroke-width: 0.200000"/>
  <line x1="1567.849365" y1="1392.132324" x2="1466.516724" y2="1410.000000" style="stroke: green; stroke-width: 0.200000"/>
  <line x1="1567.849365" y1="1393.147705" x2="1472.275391" y2="1410.000000" style="stroke: green; stroke-width: 0.200000"/>
  <line x1="1567.849365" y1="1394.163208" x2="1478.034058" y2="1410.000000" style="stroke: green; stroke-width: 0.200000"/>
  <line x1="1567.849365" y1="1395.178467" x2="1483.792847" y2="1410.000000" style="stroke: green; stroke-width: 0.200000"/>
  <line x1="1567.849365" y1="1396.193970" x2="1489.551758" y2="1410.000000" style="stroke: green; stroke-width: 0.200000"/>
  <line x1="1567.849365" y1="1397.209473" x2="1495.310547" y2="1410.000000" style="stroke: green; stroke-width: 0.200000"/>
  <line x1="1567.849365" y1="1398.224854" x2="1501.069336" y2="1410.000000" style="stroke: green; stroke-width: 0.200000"/>
  <line x1="1567.849365" y1="1399.240234" x2="1506.828003" y2="1410.000000" style="stroke: green; stroke-width: 0.200000"/>
  <line x1="1567.849365" y1="1400.255737" x2="1512.586670" y2="1410.000000" style="stroke: green; stroke-width: 0.200000"/>
  <line x1="1567.849365" y1="1401.270996" x2="1518.345459" y2="1410.000000" style="stroke: green; stroke-width: 0.200000"/>
  <line x1="1567.849365" y1="1402.286499" x2="1524.104248" y2="1410.000000" style="stroke: green; stroke-width: 0.200000"/>
  <line x1="1567.849365" y1="1403.302002" x2="1529.863281" y2="1410.000000" style="stroke: green; stroke-width: 0.200000"/>
  <line x1="1567.849365" y1="1404.317383" x2="1535.621948" y2="1410.000000" style="stroke: green; stroke-width: 0.200000"/>
  <line x1="1567.849365" y1="1405.332764" x2="1541.380615" y2="1410.000000" style="stroke: green; stroke-width: 0.200000"/>
  <line x1="1567.849365" y1="1406.348267" x2="1547.139282" y2="1410.000000" style="stroke: green; stroke-width: 0.200000"/>
  <line x1="1567.849365" y1="1407.363525" x2="1552.898071" y2="1410.000000" style="stroke: green; stroke-width: 0.200000"/>
  <line x1="1567.849365" y1="1408.379028" x2="1558.656982" y2="1410.000000" style="stroke: green; stroke-width: 0.200000"/>
  <line x1="1567.849365" y1="1409.394531" x2="1564.415771" y2="1410.000000" style="stroke: green; stroke-width: 0.200000"/>
  <line x1="1567.849365" y1="1378.931763" x2="1392.150635" y2="1409.912109" style="stroke: green; stroke-width: 0.200000"/>
  <line x1="1567.849365" y1="1377.916260" x2="1392.150635" y2="1408.896729" style="stroke: green; stroke-width: 0.200000"/>
  <line x1="1567.849365" y1="1376.900879" x2="1392.150635" y2="1407.881348" style="stroke: green; stroke-width: 0.200000"/>
  <line x1="1567.849365" y1="1375.885498" x2="1392.150635" y2="1406.865845" style="stroke: green; stroke-width: 0.200000"/>
  <line x1="1567.849365" y1="1374.869995" x2="1392.150635" y2="1405.850586" style="stroke: green; stroke-width: 0.200000"/>
  <line x1="1567.849365" y1="1373.854736" x2="1392.150635" y2="1404.835083" style="stroke: green; stroke-width: 0.200000"/>
  <line x1="1567.849365" y1="1372.839233" x2="1392.150635" y2="1403.819580" style="stroke: green; stroke-width: 0.200000"/>
  <line x1="1567.849365" y1="1371.823730" x2="1392.150635" y2="1402.804199" style="stroke: green; stroke-width: 0.200000"/>
  <line x1="1567.849365" y1="1370.808350" x2="1392.150635" y2="1401.788818" style="stroke: green; stroke-width: 0.200000"/>
  <line x1="1567.849365" y1="1369.792969" x2="1392.150635" y2="1400.773315" style="stroke: green; stroke-width: 0.200000"/>
  <line x1="1567.849365" y1="1368.777466" x2="1392.150635" y2="1399.758057" style="stroke: green; stroke-width: 0.200000"/>
  <line x1="1567.849365" y1="1367.761963" x2="1392.150635" y2="1398.742554" style="stroke: green; stroke-width: 0.200000"/>
  <line x1="1567.849365" y1="1366.746704" x2="1392.150635" y2="1397.727051" style="stroke: green; stroke-width: 0.200000"/>
  <line x1="1567.849365" y1="1365.731201" x2="1392.150635" y2="1396.711670" style="stroke: green; stroke-width: 0.200000"/>
  <line x1="1567.849365" y1="1364.715698" x2="1392.150635" y2="1395.696289" style="stroke: green; stroke-width: 0.200000"/>
  <line x1="1567.849365" y1="1363.700195" x2="1392.150635" y2="1394.680786" style="stroke: green; stroke-width: 0.200000"/>
  <line x1="1567.849365" y1="1362.684937" x2="1392.150635" y2="1393.665527" style="stroke: green; stroke-width: 0.200000"/>
  <line x1="1567.849365" y1="1361.669434" x2="1392.150635" y2="1392.650024" style="stroke: green; stroke-width: 0.200000"/>
  <line x1="1567.849365" y1="1360.654053" x2="1392.150635" y2="1391.634521" style="stroke: green; stroke-width: 0.200000"/>
  <line x1="1567.849365" y1="1359.638672" x2="1392.150635" y2="1390.619019" style="stroke: green; stroke-width: 0.200000"/>
  <line x1="1567.849365" y1="1358.623169" x2="1392.150635" y2="1389.603516" style="stroke: green; stroke-width: 0.200000"/>
  <line x1="1567.849365" y1="1357.607666" x2="1392.150635" y2="1388.588257" style="stroke: green; stroke-width: 0.200000"/>
  <line x1="1567.849365" y1="1356.592407" x2="1392.150635" y2="1387.572754" style="stroke: green; stroke-width: 0.200000"/>
  <line x1="1567.849365" y1="1355.576904" x2="1392.150635" y2="1386.557373" style="stroke: green; stroke-width: 0.200000"/>
  <line x1="1567.849365" y1="1354.561523" x2="1392.150635" y2="1385.541992" style="stroke: green; stroke-width: 0.200000"/>
  <line x1="1567.849365" y1="1353.546143" x2="1392.150635" y2="1384.526489" style="stroke: green; stroke-width: 0.200000"/>
  <line x1="1567.849365" y1="1352.530640" x2="1392.150635" y2="1383.510986" style="stroke: green; stroke-width: 0.200000"/>
  <line x1="1567.849365" y1="1351.515137" x2="1392.150635" y2="1382.495728" style="stroke: green; stroke-width: 0.200000"/>
  <line x1="1567.849365" y1="1350.499878" x2="1392.150635" y2="1381.480225" style="stroke: green; stroke-width: 0.200000"/>
  <line x1="1567.849365" y1="1349.484375" x2="1392.150635" y2="1380.464844" style="stroke: green; stroke-width: 0.200000"/>
  <line x1="1567.849365" y1="1348.468994" x2="1392.150635" y2="1379.449463" style="stroke: green; stroke-width: 0.200000"/>
  <line x1="1567.849365" y1="1347.453491" x2="1392.150635" y2="1378.433960" style="stroke: green; stroke-width: 0.200000"/>
  <line x1="1567.849365" y1="1346.437988" x2="1392.150635" y2="1377.418457" style="stroke: green; stroke-width: 0.200000"/>
  <line x1="1567.849365" y1="1345.422607" x2="1392.150635" y2="1376.403198" style="stroke: green; stroke-width: 0.200000"/>
  <line x1="1567.849365" y1="1344.407227" x2="1392.150635" y2="1375.387695" style="stroke: green; stroke-width: 0.200000"/>
  <line x1="1567.849365" y1="1343.391724" x2="1392.150635" y2="1374.372314" style="stroke: green; stroke-width: 0.200000"/>
  <line x1="1567.849365" y1="1342.376465" x2="1392.150635" y2="1373.356934" style="stroke: green; stroke-width: 0.200000"/>
  <line x1="1567.849365" y1="1341.360962" x2="1392.150635" y2="1372.341431" style="stroke: green; stroke-width: 0.200000"/>
  <line x1="1567.849365" y1="1340.345459" x2="1392.150635" y2="1371.325928" style="stroke: green; stroke-width: 0.200000"/>
  <line x1="1567.849365" y1="1339.330078" x2="1392.150635" y2="1370.310547" style="stroke: green; stroke-width: 0.200000"/>
  <line x1="1567.849365" y1="1338.314697" x2="1392.150635" y2="1369.295044" style="stroke: green; stroke-width: 0.200000"/>
  <line x1="1567.849365" y1="1337.299194" x2="1392.150635" y2="1368.279785" style="stroke: green; stroke-width: 0.200000"/>
  <line x1="1567.849365" y1="1336.283936" x2="1392.150635" y2="1367.264282" style="stroke: green; stroke-width: 0.200000"/>
  <line x1="1567.849365" y1="1335.268433" x2="1392.150635" y2="1366.248779" style="stroke: green; stroke-width: 0.200000"/>
  <line x1="1567.849365" y1="1334.252930" x2="1392.150635" y2="1365.233398" style="stroke: green; stroke-width: 0.200000"/>
  <line x1="1567.849365" y1="1333.237549" x2="1392.150635" y2="1364.218018" style="stroke: green; stroke-width: 0.200000"/>
  <line x1="1567.849365" y1="1332.222168" x2="1392.150635" y2="1363.202515" style="stroke: green; stroke-width: 0.200000"/>
  <line x1="1567.849365" y1="1331.206665" x2="1392.150635" y2="1362.187256" style="stroke: green; stroke-width: 0.200000"/>
  <line x1="1567.849365" y1="1330.191406" x2="1392.150635" y2="1361.171753" style="stroke: green; stroke-width: 0.200000"/>
  <line x1="1567.849365" y1="1329.175903" x2="1392.150635" y2="1360.156250" style="stroke: green; stroke-width: 0.200000"/>
  <line x1="1567.849365" y1="1328.160400" x2="1392.150635" y2="1359.140869" style="stroke: green; stroke-width: 0.200000"/>
  <line x1="1567.849365" y1="1327.145020" x2="1392.150635" y2="1358.125488" style="stroke: green; stroke-width: 0.200000"/>
  <line x1="1567.849365" y1="1326.129639" x2="1392.150635" y2="1357.109985" style="stroke: green; stroke-width: 0.200000"/>
  <line x1="1567.849365" y1="1325.114136" x2="1392.150635" y2="1356.094727" style="stroke: green; stroke-width: 0.200000"/>
  <line x1="1567.849365" y1="1324.098633" x2="1392.150635" y2="1355.079224" style="stroke: green; stroke-width: 0.200000"/>
  <line x1="1567.849365" y1="1323.083252" x2="1392.150635" y2="1354.063721" style="stroke: green; stroke-width: 0.200000"/>
  <line x1="1567.849365" y1="1322.067871" x2="1392.150635" y2="1353.048340" style="stroke: green; stroke-width: 0.200000"/>
  <line x1="1567.849365" y1="1321.052368" x2="1392.150635" y2="1352.032959" style="stroke: green; stroke-width: 0.200000"/>
  <line x1="1567.849365" y1="1320.036865" x2="1392.150635" y2="1351.017456" style="stroke: green; stroke-width: 0.200000"/>
  <line x1="1567.849365" y1="1319.021606" x2="1392.150635" y2="1350.001953" style="stroke: green; stroke-width: 0.200000"/>
  <line x1="1567.849365" y1="1318.006104" x2="1392.150635" y2="1348.986572" style="stroke: green; stroke-width: 0.200000"/>
  <line x1="1567.849365" y1="1316.990723" x2="1392.150635" y2="1347.971191" style="stroke: green; stroke-width: 0.200000"/>
  <line x1="1567.849365" y1="1315.975342" x2="1392.150635" y2="1346.955688" style="stroke: green; stroke-width: 0.200000"/>
  <line x1="1567.849365" y1="1314.959839" x2="1392.150635" y2="1345.940186" style="stroke: green; stroke-width: 0.200000"/>
  <line x1="1567.849365" y1="1313.944336" x2="1392.150635" y2="1344.924927" style="stroke: green; stroke-width: 0.200000"/>
  <line x1="1567.849365" y1="1312.929077" x2="1392.150635" y2="1343.909424" style="stroke: green; stroke-width: 0.200000"/>
  <line x1="1567.849365" y1="1311.913574" x2="1392.150635" y2="1342.894043" style="stroke: green; stroke-width: 0.200000"/>
  <line x1="1567.849365" y1="1310.898193" x2="1392.150635" y2="1341.878662" style="stroke: green; stroke-width: 0.200000"/>
  <line x1="1567.849365" y1="1309.882812" x2="1392.150635" y2="1340.863159" style="stroke: green; stroke-width: 0.200000"/>
  <line x1="1567.849365" y1="1308.867310" x2="1392.150635" y2="1339.847656" style="stroke: green; stroke-width: 0.200000"/>
  <line x1="1567.849365" y1="1307.851807" x2="1392.150635" y2="1338.832397" style="stroke: green; stroke-width: 0.200000"/>
  <line x1="1567.849365" y1="1306.836426" x2="1392.150635" y2="1337.816895" style="stroke: green; stroke-width: 0.200000"/>
  <line x1="1567.849365" y1="1305.821045" x2="1392.150635" y2="1336.801514" style="stroke: green; stroke-width: 0.200000"/>
  <line x1="1567.849365" y1="1304.805664" x2="1392.150635" y2="1335.786133" style="stroke: green; stroke-width: 0.200000"/>
  <line x1="1567.849365" y1="1303.790161" x2="1392.150635" y2="1334.770630" style="stroke: green; stroke-width: 0.200000"/>
  <line x1="1567.849365" y1="1302.774658" x2="1392.150635" y2="1333.755127" style="stroke: green; stroke-width: 0.200000"/>
  <line x1="1567.849365" y1="1301.759277" x2="1392.150635" y2="1332.739746" style="stroke: green; stroke-width: 0.200000"/>
  <line x1="1567.849365" y1="1300.743896" x2="1392.150635" y2="1331.724365" style="stroke: green; stroke-width: 0.200000"/>
  <line x1="1567.849365" y1="1299.728394" x2="1392.150635" y2="1330.708984" style="stroke: green; stroke-width: 0.200000"/>
  <line x1="1567.849365" y1="1298.713135" x2="1392.150635" y2="1329.693481" style="stroke: green; stroke-width: 0.200000"/>
  <line x1="1567.849365" y1="1297.697632" x2="1392.150635" y2="1328.678101" style="stroke: green; stroke-width: 0.200000"/>
  <line x1="1567.849365" y1="1296.682129" x2="1392.150635" y2="1327.662598" style="stroke: green; stroke-width: 0.200000"/>
  <line x1="1567.849365" y1="1295.666748" x2="1392.150635" y2="1326.647217" style="stroke: green; stroke-width: 0.200000"/>
  <line x1="1567.849365" y1="1294.651367" x2="1392.150635" y2="1325.631714" style="stroke: green; stroke-width: 0.200000"/>
  <line x1="1567.849365" y1="1293.635864" x2="1392.150635" y2="1324.616455" style="stroke: green; stroke-width: 0.200000"/>
  <line x1="1567.849365" y1="1292.620605" x2="1392.150635" y2="1323.600952" style="stroke: green; stroke-width: 0.200000"/>
  <line x1="1567.849365" y1="1291.605103" x2="1392.150635" y2="1322.585449" style="stroke: green; stroke-width: 0.200000"/>
  <line x1="1567.849365" y1="1290.589600" x2="1392.150635" y2="1321.570068" style="stroke: green; stroke-width: 0.200000"/>
  <line x1="1567.849365" y1="1289.574097" x2="1392.150635" y2="1320.554688" style="stroke: green; stroke-width: 0.200000"/>
  <line x1="1567.849365" y1="1288.558838" x2="1392.150635" y2="1319.539185" style="stroke: green; stroke-width: 0.200000"/>
  <line x1="1567.849365" y1="1287.543335" x2="1392.150635" y2="1318.523926" style="stroke: green; stroke-width: 0.200000"/>
  <line x1="1567.849365" y1="1286.527832" x2="1392.150635" y2="1317.508423" style="stroke: green; stroke-width: 0.200000"/>
  <line x1="1567.849365" y1="1285.512573" x2="1392.150635" y2="1316.492920" style="stroke: green; stroke-width: 0.200000"/>
  <line x1="1567.849365" y1="1284.497070" x2="1392.150635" y2="1315.477539" style="stroke: green; stroke-width: 0.200000"/>
  <line x1="1567.849365" y1="1283.481567" x2="1392.150635" y2="1314.462158" style="stroke: green; stroke-width: 0.200000"/>
  <line x1="1567.849365" y1="1282.466064" x2="1392.150635" y2="1313.446655" style="stroke: green; stroke-width: 0.200000"/>
  <line x1="1567.849365" y1="1281.450806" x2="1392.150635" y2="1312.431152" style="stroke: green; stroke-width: 0.200000"/>
  <line x1="1567.849365" y1="1280.435303" x2="1392.150635" y2="1311.415894" style="stroke: green; stroke-width: 0.200000"/>
  <line x1="1567.849365" y1="1279.419922" x2="1392.150635" y2="1310.400391" style="stroke: green; stroke-width: 0.200000"/>
  <line x1="1567.849365" y1="1278.404541" x2="1392.150635" y2="1309.384888" style="stroke: green; stroke-width: 0.200000"/>
  <line x1="1567.849365" y1="1277.389038" x2="1392.150635" y2="1308.369629" style="stroke: green; stroke-width: 0.200000"/>
  <line x1="1567.849365" y1="1276.373657" x2="1392.150635" y2="1307.354126" style="stroke: green; stroke-width: 0.200000"/>
  <line x1="1567.849365" y1="1275.358154" x2="1392.150635" y2="1306.338623" style="stroke: green; stroke-width: 0.200000"/>
  <line x1="1567.849365" y1="1274.342773" x2="1392.150635" y2="1305.323242" style="stroke: green; stroke-width: 0.200000"/>
  <line x1="1567.849365" y1="1273.327393" x2="1392.150635" y2="1304.307861" style="stroke: green; stroke-width: 0.200000"/>
  <line x1="1567.849365" y1="1272.311890" x2="1392.150635" y2="1303.292358" style="stroke: green; stroke-width: 0.200000"/>
  <line x1="1567.849365" y1="1271.296509" x2="1392.150635" y2="1302.276855" style="stroke: green; stroke-width: 0.200000"/>
  <line x1="1567.849365" y1="1270.281006" x2="1392.150635" y2="1301.261597" style="stroke: green; stroke-width: 0.200000"/>
  <line x1="1567.849365" y1="1269.265625" x2="1392.150635" y2="1300.246094" style="stroke: green; stroke-width: 0.200000"/>
  <line x1="1567.849365" y1="1268.250244" x2="1392.150635" y2="1299.230713" style="stroke: green; stroke-width: 0.200000"/>
  <line x1="1567.849365" y1="1267.234863" x2="1392.150635" y2="1298.215332" style="stroke: green; stroke-width: 0.200000"/>
  <line x1="1567.849365" y1="1266.219360" x2="1392.150635" y2="1297.199829" style="stroke: green; stroke-width: 0.200000"/>
  <line x1="1567.849365" y1="1265.203979" x2="1392.150635" y2="1296.184326" style="stroke: green; stroke-width: 0.200000"/>
  <line x1="1567.849365" y1="1264.188477" x2="1392.150635" y2="1295.169067" style="stroke: green; stroke-width: 0.200000"/>
  <line x1="1567.849365" y1="1263.173096" x2="1392.150635" y2="1294.153564" style="stroke: green; stroke-width: 0.200000"/>
  <line x1="1567.849365" y1="1262.157715" x2="1392.150635" y2="1293.138184" style="stroke: green; stroke-width: 0.200000"/>
  <line x1="1567.849365" y1="1261.142334" x2="1392.150635" y2="1292.122681" style="stroke: green; stroke-width: 0.200000"/>
  <line x1="1567.849365" y1="1260.126831" x2="1392.150635" y2="1291.107300" style="stroke: green; stroke-width: 0.200000"/>
  <line x1="1567.849365" y1="1259.111450" x2="1392.150635" y2="1290.091797" style="stroke: green; stroke-width: 0.200000"/>
  <line x1="1567.849365" y1="1258.095947" x2="1392.150635" y2="1289.076416" style="stroke: green; stroke-width: 0.200000"/>
  <line x1="1567.849365" y1="1257.080566" x2="1392.150635" y2="1288.061035" style="stroke: green; stroke-width: 0.200000"/>
  <line x1="1567.849365" y1="1256.065186" x2="1392.150635" y2="1287.045654" style="stroke: green; stroke-width: 0.200000"/>
  <line x1="1567.849365" y1="1255.049683" x2="1392.150635" y2="1286.030151" style="stroke: green; stroke-width: 0.200000"/>
  <line x1="1567.849365" y1="1254.034302" x2="1392.150635" y2="1285.014648" style="stroke: green; stroke-width: 0.200000"/>
  <line x1="1567.849365" y1="1253.018799" x2="1392.150635" y2="1283.999268" style="stroke: green; stroke-width: 0.200000"/>
  <line x1="1567.849365" y1="1252.003418" x2="1392.150635" y2="1282.983887" style="stroke: green; stroke-width: 0.200000"/>
  <line x1="1567.849365" y1="1250.988037" x2="1392.150635" y2="1281.968384" style="stroke: green; stroke-width: 0.200000"/>
  <line x1="1567.849365" y1="1249.972534" x2="1392.150635" y2="1280.953125" style="stroke: green; stroke-width: 0.200000"/>
  <line x1="1567.849365" y1="1248.957153" x2="1392.150635" y2="1279.937622" style="stroke: green; stroke-width: 0.200000"/>
  <line x1="1567.849365" y1="1247.941650" x2="1392.150635" y2="1278.922119" style="stroke: green; stroke-width: 0.200000"/>
  <line x1="1567.849365" y1="1246.926270" x2="1392.150635" y2="1277.906738" style="stroke: green; stroke-width: 0.200000"/>
  <line x1="1567.849365" y1="1245.910889" x2="1392.150635" y2="1276.891357" style="stroke: green; stroke-width: 0.200000"/>
  <line x1="1567.849365" y1="1244.895386" x2="1392.150635" y2="1275.875854" style="stroke: green; stroke-width: 0.200000"/>
  <line x1="1567.849365" y1="1243.880005" x2="1392.150635" y2="1274.860474" style="stroke: green; stroke-width: 0.200000"/>
  <line x1="1567.849365" y1="1242.864502" x2="1392.150635" y2="1273.845093" style="stroke: green; stroke-width: 0.200000"/>
  <line x1="1567.849365" y1="1241.849121" x2="1392.150635" y2="1272.829590" style="stroke: green; stroke-width: 0.200000"/>
  <line x1="1567.849365" y1="1240.833740" x2="1392.150635" y2="1271.814087" style="stroke: green; stroke-width: 0.200000"/>
  <line x1="1567.849365" y1="1239.818237" x2="1392.150635" y2="1270.798706" style="stroke: green; stroke-width: 0.200000"/>
  <line x1="1567.849365" y1="1238.802856" x2="1392.150635" y2="1269.783325" style="stroke: green; stroke-width: 0.200000"/>
  <line x1="1567.849365" y1="1237.787476" x2="1392.150635" y2="1268.767822" style="stroke: green; stroke-width: 0.200000"/>
  <line x1="1567.849365" y1="1236.771973" x2="1392.150635" y2="1267.752441" style="stroke: green; stroke-width: 0.200000"/>
  <line x1="1567.849365" y1="1235.756592" x2="1392.150635" y2="1266.737061" style="stroke: green; stroke-width: 0.200000"/>
  <line x1="1567.849365" y1="1234.741089" x2="1392.150635" y2="1265.721558" style="stroke: green; stroke-width: 0.200000"/>
  <line x1="1567.849365" y1="1233.725708" x2="1392.150635" y2="1264.706177" style="stroke: green; stroke-width: 0.200000"/>
  <line x1="1567.849365" y1="1232.710205" x2="1392.150635" y2="1263.690796" style="stroke: green; stroke-width: 0.200000"/>
  <line x1="1567.849365" y1="1231.694824" x2="1392.150635" y2="1262.675293" style="stroke: green; stroke-width: 0.200000"/>
  <line x1="1567.849365" y1="1230.679443" x2="1392.150635" y2="1261.659912" style="stroke: green; stroke-width: 0.200000"/>
  <line x1="1567.849365" y1="1229.664062" x2="1392.150635" y2="1260.644531" style="stroke: green; stroke-width: 0.200000"/>
  <line x1="1567.849365" y1="1228.648560" x2="1392.150635" y2="1259.629028" style="stroke: green; stroke-width: 0.200000"/>
  <line x1="1567.849365" y1="1227.633179" x2="1392.150635" y2="1258.613525" style="stroke: green; stroke-width: 0.200000"/>
  <line x1="1567.849365" y1="1226.617676" x2="1392.150635" y2="1257.598145" style="stroke: green; stroke-width: 0.200000"/>
  <line x1="1567.849365" y1="1225.602295" x2="1392.150635" y2="1256.582764" style="stroke: green; stroke-width: 0.200000"/>
  <line x1="1567.849365" y1="1224.586914" x2="1392.150635" y2="1255.567383" style="stroke: green; stroke-width: 0.200000"/>
  <line x1="1567.849365" y1="1223.571533" x2="1392.150635" y2="1254.551880" style="stroke: green; stroke-width: 0.200000"/>
  <line x1="1567.849365" y1="1222.556030" x2="1392.150635" y2="1253.536499" style="stroke: green; stroke-width: 0.200000"/>
  <line x1="1567.849365" y1="1221.540649" x2="1392.150635" y2="1252.520996" style="stroke: green; stroke-width: 0.200000"/>
  <line x1="1567.849365" y1="1220.525146" x2="1392.150635" y2="1251.505615" style="stroke: green; stroke-width: 0.200000"/>
  <line x1="1567.849365" y1="1219.509766" x2="1392.150635" y2="1250.490234" style="stroke: green; stroke-width: 0.200000"/>
  <line x1="1567.849365" y1="1218.494385" x2="1392.150635" y2="1249.474854" style="stroke: green; stroke-width: 0.200000"/>
  <line x1="1567.849365" y1="1217.479004" x2="1392.150635" y2="1248.459351" style="stroke: green; stroke-width: 0.200000"/>
  <line x1="1567.849365" y1="1216.463501" x2="1392.150635" y2="1247.443970" style="stroke: green; stroke-width: 0.200000"/>
  <line x1="1567.849365" y1="1215.448120" x2="1392.150635" y2="1246.428467" style="stroke: green; stroke-width: 0.200000"/>
  <line x1="1567.849365" y1="1214.432617" x2="1392.150635" y2="1245.413086" style="stroke: green; stroke-width: 0.200000"/>
  <line x1="1567.849365" y1="1213.417236" x2="1392.150635" y2="1244.397705" style="stroke: green; stroke-width: 0.200000"/>
  <line x1="1567.849365" y1="1212.401733" x2="1392.150635" y2="1243.382324" style="stroke: green; stroke-width: 0.200000"/>
  <line x1="1567.849365" y1="1211.386353" x2="1392.150635" y2="1242.366821" style="stroke: green; stroke-width: 0.200000"/>
  <line x1="1567.849365" y1="1210.370972" x2="1392.150635" y2="1241.351440" style="stroke: green; stroke-width: 0.200000"/>
  <line x1="1567.849365" y1="1209.355469" x2="1392.150635" y2="1240.335938" style="stroke: green; stroke-width: 0.200000"/>
  <line x1="1567.849365" y1="1208.340088" x2="1392.150635" y2="1239.320557" style="stroke: green; stroke-width: 0.200000"/>
  <line x1="1567.849365" y1="1207.324707" x2="1392.150635" y2="1238.305054" style="stroke: green; stroke-width: 0.200000"/>
  <line x1="1567.849365" y1="1206.309204" x2="1392.150635" y2="1237.289673" style="stroke: green; stroke-width: 0.200000"/>
  <line x1="1567.849365" y1="1205.293823" x2="1392.150635" y2="1236.274292" style="stroke: green; stroke-width: 0.200000"/>
  <line x1="1567.849365" y1="1204.278442" x2="1392.150635" y2="1235.258789" style="stroke: green; stroke-width: 0.200000"/>
  <line x1="1567.849365" y1="1203.262939" x2="1392.150635" y2="1234.243408" style="stroke: green; stroke-width: 0.200000"/>
  <line x1="1567.849365" y1="1202.247437" x2="1392.150635" y2="1233.228027" style="stroke: green; stroke-width: 0.200000"/>
  <line x1="1567.849365" y1="1201.232056" x2="1392.150635" y2="1232.212524" style="stroke: green; stroke-width: 0.200000"/>
  <line x1="1567.849365" y1="1200.216675" x2="1392.150635" y2="1231.197144" style="stroke: green; stroke-width: 0.200000"/>
  <line x1="1567.849365" y1="1199.201172" x2="1392.150635" y2="1230.181763" style="stroke: green; stroke-width: 0.200000"/>
  <line x1="1567.849365" y1="1198.185791" x2="1392.150635" y2="1229.166260" style="stroke: green; stroke-width: 0.200000"/>
  <line x1="1567.849365" y1="1197.170410" x2="1392.150635" y2="1228.150879" style="stroke: green; stroke-width: 0.200000"/>
  <line x1="1567.849365" y1="1196.154907" x2="1392.150635" y2="1227.135376" style="stroke: green; stroke-width: 0.200000"/>
  <line x1="1567.849365" y1="1195.139526" x2="1392.150635" y2="1226.119995" style="stroke: green; stroke-width: 0.200000"/>
  <line x1="1567.849365" y1="1194.124146" x2="1392.150635" y2="1225.104492" style="stroke: green; stroke-width: 0.200000"/>
  <line x1="1567.849365" y1="1193.108643" x2="1392.150635" y2="1224.089111" style="stroke: green; stroke-width: 0.200000"/>
  <line x1="1567.849365" y1="1192.093262" x2="1392.150635" y2="1223.073730" style="stroke: green; stroke-width: 0.200000"/>
  <line x1="1567.849365" y1="1191.077759" x2="1392.150635" y2="1222.058228" style="stroke: green; stroke-width: 0.200000"/>
  <line x1="1567.849365" y1="1190.062378" x2="1392.150635" y2="1221.042847" style="stroke: green; stroke-width: 0.200000"/>
  <line x1="1567.849365" y1="1189.046875" x2="1392.150635" y2="1220.027466" style="stroke: green; stroke-width: 0.200000"/>
  <line x1="1567.849365" y1="1188.031494" x2="1392.150635" y2="1219.011963" style="stroke: green; stroke-width: 0.200000"/>
  <line x1="1567.849365" y1="1187.016113" x2="1392.150635" y2="1217.996582" style="stroke: green; stroke-width: 0.200000"/>
  <line x1="1567.849365" y1="1186.000732" x2="1392.150635" y2="1216.981079" style="stroke: green; stroke-width: 0.200000"/>
  <line x1="1567.849365" y1="1184.985229" x2="1392.150635" y2="1215.965698" style="stroke: green; stroke-width: 0.200000"/>
  <line x1="1567.849365" y1="1183.969849" x2="1392.150635" y2="1214.950195" style="stroke: green; stroke-width: 0.200000"/>
  <line x1="1567.849365" y1="1182.954346" x2="1392.150635" y2="1213.934814" style="stroke: green; stroke-width: 0.200000"/>
  <line x1="1567.849365" y1="1181.938965" x2="1392.150635" y2="1212.919434" style="stroke: green; stroke-width: 0.200000"/>
  <line x1="1567.849365" y1="1180.923584" x2="1392.150635" y2="1211.904053" style="stroke: green; stroke-width: 0.200000"/>
  <line x1="1567.849365" y1="1179.908203" x2="1392.150635" y2="1210.888550" style="stroke: green; stroke-width: 0.200000"/>
  <line x1="1567.849365" y1="1178.892700" x2="1392.150635" y2="1209.873169" style="stroke: green; stroke-width: 0.200000"/>
  <line x1="1567.849365" y1="1177.877319" x2="1392.150635" y2="1208.857666" style="stroke: green; stroke-width: 0.200000"/>
  <line x1="1567.849365" y1="1176.861816" x2="1392.150635" y2="1207.842285" style="stroke: green; stroke-width: 0.200000"/>
  <line x1="1567.849365" y1="1175.846436" x2="1392.150635" y2="1206.826904" style="stroke: green; stroke-width: 0.200000"/>
  <line x1="1567.849365" y1="1174.831055" x2="1392.150635" y2="1205.811523" style="stroke: green; stroke-width: 0.200000"/>
  <line x1="1567.849365" y1="1173.815552" x2="1392.150635" y2="1204.796021" style="stroke: green; stroke-width: 0.200000"/>
  <line x1="1567.849365" y1="1172.800171" x2="1392.150635" y2="1203.780640" style="stroke: green; stroke-width: 0.200000"/>
  <line x1="1567.849365" y1="1171.784668" x2="1392.150635" y2="1202.765137" style="stroke: green; stroke-width: 0.200000"/>
  <line x1="1567.849365" y1="1170.769287" x2="1392.150635" y2="1201.749756" style="stroke: green; stroke-width: 0.200000"/>
  <line x1="1567.849365" y1="1169.753906" x2="1392.150635" y2="1200.734375" style="stroke: green; stroke-width: 0.200000"/>
  <line x1="1567.849365" y1="1168.738403" x2="1392.150635" y2="1199.718872" style="stroke: green; stroke-width: 0.200000"/>
  <line x1="1567.849365" y1="1167.723022" x2="1392.150635" y2="1198.703491" style="stroke: green; stroke-width: 0.200000"/>
  <line x1="1567.849365" y1="1166.707642" x2="1392.150635" y2="1197.688110" style="stroke: green; stroke-width: 0.200000"/>
  <line x1="1567.849365" y1="1165.692139" x2="1392.150635" y2="1196.672607" style="stroke: green; stroke-width: 0.200000"/>
  <line x1="1567.849365" y1="1164.676636" x2="1392.150635" y2="1195.657227" style="stroke: green; stroke-width: 0.200000"/>
  <line x1="1567.849365" y1="1163.661255" x2="1392.150635" y2="1194.641724" style="stroke: green; stroke-width: 0.200000"/>
  <line x1="1567.849365" y1="1162.645874" x2="1392.150635" y2="1193.626343" style="stroke: green; stroke-width: 0.200000"/>
  <line x1="1567.849365" y1="1161.630371" x2="1392.150635" y2="1192.610962" style="stroke: green; stroke-width: 0.200000"/>
  <line x1="1567.849365" y1="1160.614990" x2="1392.150635" y2="1191.595459" style="stroke: green; stroke-width: 0.200000"/>
  <line x1="1567.849365" y1="1159.599609" x2="1392.150635" y2="1190.580078" style="stroke: green; stroke-width: 0.200000"/>
  <line x1="1567.849365" y1="1158.584106" x2="1392.150635" y2="1189.564697" style="stroke: green; stroke-width: 0.200000"/>
  <line x1="1567.849365" y1="1157.568726" x2="1392.150635" y2="1188.549194" style="stroke: green; stroke-width: 0.200000"/>
  <line x1="1567.849365" y1="1156.553345" x2="1392.150635" y2="1187.533813" style="stroke: green; stroke-width: 0.200000"/>
  <line x1="1567.849365" y1="1155.537842" x2="1392.150635" y2="1186.518311" style="stroke: green; stroke-width: 0.200000"/>
  <line x1="1567.849365" y1="1154.522461" x2="1392.150635" y2="1185.502930" style="stroke: green; stroke-width: 0.200000"/>
  <line x1="1567.849365" y1="1153.506958" x2="1392.150635" y2="1184.487427" style="stroke: green; stroke-width: 0.200000"/>
  <line x1="1567.849365" y1="1152.491577" x2="1392.150635" y2="1183.472046" style="stroke: green; stroke-width: 0.200000"/>
  <line x1="1567.849365" y1="1151.476196" x2="1392.150635" y2="1182.456665" style="stroke: green; stroke-width: 0.200000"/>
  <line x1="1567.849365" y1="1150.460693" x2="1392.150635" y2="1181.441162" style="stroke: green; stroke-width: 0.200000"/>
  <line x1="1567.849365" y1="1149.445312" x2="1392.150635" y2="1180.425781" style="stroke: green; stroke-width: 0.200000"/>
  <line x1="1567.849365" y1="1148.429932" x2="1392.150635" y2="1179.410400" style="stroke: green; stroke-width: 0.200000"/>
  <line x1="1567.849365" y1="1147.414429" x2="1392.150635" y2="1178.394897" style="stroke: green; stroke-width: 0.200000"/>
  <line x1="1567.849365" y1="1146.399048" x2="1392.150635" y2="1177.379517" style="stroke: green; stroke-width: 0.200000"/>
  <line x1="1567.849365" y1="1145.383545" x2="1392.150635" y2="1176.364014" style="stroke: green; stroke-width: 0.200000"/>
  <line x1="1567.849365" y1="1144.368164" x2="1392.150635" y2="1175.348633" style="stroke: green; stroke-width: 0.200000"/>
  <line x1="1567.849365" y1="1143.352783" x2="1392.150635" y2="1174.333252" style="stroke: green; stroke-width: 0.200000"/>
  <line x1="1567.849365" y1="1142.337402" x2="1392.150635" y2="1173.317749" style="stroke: green; stroke-width: 0.200000"/>
  <line x1="1567.849365" y1="1141.321899" x2="1392.150635" y2="1172.302368" style="stroke: green; stroke-width: 0.200000"/>
  <line x1="1567.849365" y1="1140.306519" x2="1392.150635" y2="1171.286865" style="stroke: green; stroke-width: 0.200000"/>
  <line x1="1567.849365" y1="1139.291016" x2="1392.150635" y2="1170.271484" style="stroke: green; stroke-width: 0.200000"/>
  <line x1="1567.849365" y1="1138.275635" x2="1392.150635" y2="1169.256104" style="stroke: green; stroke-width: 0.200000"/>
  <line x1="1567.849365" y1="1137.260254" x2="1392.150635" y2="1168.240723" style="stroke: green; stroke-width: 0.200000"/>
  <line x1="1567.849365" y1="1136.244873" x2="1392.150635" y2="1167.225220" style="stroke: green; stroke-width: 0.200000"/>
  <line x1="1567.849365" y1="1135.229370" x2="1392.150635" y2="1166.209839" style="stroke: green; stroke-width: 0.200000"/>
  <line x1="1567.849365" y1="1134.213989" x2="1392.150635" y2="1165.194336" style="stroke: green; stroke-width: 0.200000"/>
  <line x1="1567.849365" y1="1133.198486" x2="1392.150635" y2="1164.178955" style="stroke: green; stroke-width: 0.200000"/>
  <line x1="1567.849365" y1="1132.183105" x2="1392.150635" y2="1163.163574" style="stroke: green; stroke-width: 0.200000"/>
  <line x1="1567.849365" y1="1131.167725" x2="1392.150635" y2="1162.148193" style="stroke: green; stroke-width: 0.200000"/>
  <line x1="1567.849365" y1="1130.152222" x2="1392.150635" y2="1161.132690" style="stroke: green; stroke-width: 0.200000"/>
  <line x1="1567.849365" y1="1129.136841" x2="1392.150635" y2="1160.117310" style="stroke: green; stroke-width: 0.200000"/>
  <line x1="1567.849365" y1="1128.121338" x2="1392.150635" y2="1159.101807" style="stroke: green; stroke-width: 0.200000"/>
  <line x1="1567.849365" y1="1127.105957" x2="1392.150635" y2="1158.086426" style="stroke: green; stroke-width: 0.200000"/>
  <line x1="1567.849365" y1="1126.090576" x2="1392.150635" y2="1157.071045" style="stroke: green; stroke-width: 0.200000"/>
  <line x1="1567.849365" y1="1125.075073" x2="1392.150635" y2="1156.055542" style="stroke: green; stroke-width: 0.200000"/>
  <line x1="1567.849365" y1="1124.059692" x2="1392.150635" y2="1155.040161" style="stroke: green; stroke-width: 0.200000"/>
  <line x1="1567.849365" y1="1123.044189" x2="1392.150635" y2="1154.024658" style="stroke: green; stroke-width: 0.200000"/>
  <line x1="1567.849365" y1="1122.028809" x2="1392.150635" y2="1153.009277" style="stroke: green; stroke-width: 0.200000"/>
  <line x1="1567.849365" y1="1121.013428" x2="1392.150635" y2="1151.993896" style="stroke: green; stroke-width: 0.200000"/>
  <line x1="1567.849365" y1="1119.997925" x2="1392.150635" y2="1150.978394" style="stroke: green; stroke-width: 0.200000"/>
  <line x1="1567.849365" y1="1118.982544" x2="1392.150635" y2="1149.963013" style="stroke: green; stroke-width: 0.200000"/>
  <line x1="1567.849365" y1="1117.967041" x2="1392.150635" y2="1148.947632" style="stroke: green; stroke-width: 0.200000"/>
  <line x1="1567.849365" y1="1116.951660" x2="1392.150635" y2="1147.932129" style="stroke: green; stroke-width: 0.200000"/>
  <line x1="1567.849365" y1="1115.936279" x2="1392.150635" y2="1146.916748" style="stroke: green; stroke-width: 0.200000"/>
  <line x1="1567.849365" y1="1114.920776" x2="1392.150635" y2="1145.901245" style="stroke: green; stroke-width: 0.200000"/>
  <line x1="1567.849365" y1="1113.905396" x2="1392.150635" y2="1144.885864" style="stroke: green; stroke-width: 0.200000"/>
  <line x1="1567.849365" y1="1112.889893" x2="1392.150635" y2="1143.870361" style="stroke: green; stroke-width: 0.200000"/>
  <line x1="1567.849365" y1="1111.874512" x2="1392.150635" y2="1142.854980" style="stroke: green; stroke-width: 0.200000"/>
  <line x1="1567.849365" y1="1110.859131" x2="1392.150635" y2="1141.839600" style="stroke: green; stroke-width: 0.200000"/>
  <line x1="1567.849365" y1="1109.843628" x2="1392.150635" y2="1140.824097" style="stroke: green; stroke-width: 0.200000"/>
  <line x1="1567.849365" y1="1108.828247" x2="1392.150635" y2="1139.808716" style="stroke: green; stroke-width: 0.200000"/>
  <line x1="1567.849365" y1="1107.812744" x2="1392.150635" y2="1138.793213" style="stroke: green; stroke-width: 0.200000"/>
  <line x1="1567.849365" y1="1106.797363" x2="1392.150635" y2="1137.777832" style="stroke: green; stroke-width: 0.200000"/>
  <line x1="1567.849365" y1="1105.781982" x2="1392.150635" y2="1136.762451" style="stroke: green; stroke-width: 0.200000"/>
  <line x1="1567.849365" y1="1104.766602" x2="1392.150635" y2="1135.746948" style="stroke: green; stroke-width: 0.200000"/>
  <line x1="1567.849365" y1="1103.751099" x2="1392.150635" y2="1134.731567" style="stroke: green; stroke-width: 0.200000"/>
  <line x1="1567.849365" y1="1102.735718" x2="1392.150635" y2="1133.716064" style="stroke: green; stroke-width: 0.200000"/>
  <line x1="1567.849365" y1="1101.720215" x2="1392.150635" y2="1132.700684" style="stroke: green; stroke-width: 0.200000"/>
  <line x1="1567.849365" y1="1100.704834" x2="1392.150635" y2="1131.685303" style="stroke: green; stroke-width: 0.200000"/>
  <line x1="1567.849365" y1="1099.689453" x2="1392.150635" y2="1130.669922" style="stroke: green; stroke-width: 0.200000"/>
  <line x1="1567.849365" y1="1098.674072" x2="1392.150635" y2="1129.654419" style="stroke: green; stroke-width: 0.200000"/>
  <line x1="1567.849365" y1="1097.658569" x2="1392.150635" y2="1128.639038" style="stroke: green; stroke-width: 0.200000"/>
  <line x1="1567.849365" y1="1096.643188" x2="1392.150635" y2="1127.623535" style="stroke: green; stroke-width: 0.200000"/>
  <line x1="1567.849365" y1="1095.627686" x2="1392.150635" y2="1126.608154" style="stroke: green; stroke-width: 0.200000"/>
  <line x1="1567.849365" y1="1094.612305" x2="1392.150635" y2="1125.592773" style="stroke: green; stroke-width: 0.200000"/>
  <line x1="1567.849365" y1="1093.596924" x2="1392.150635" y2="1124.577393" style="stroke: green; stroke-width: 0.200000"/>
  <line x1="1567.849365" y1="1092.581421" x2="1392.150635" y2="1123.561890" style="stroke: green; stroke-width: 0.200000"/>
  <line x1="1567.849365" y1="1091.566040" x2="1392.150635" y2="1122.546509" style="stroke: green; stroke-width: 0.200000"/>
  <line x1="1567.849365" y1="1090.550537" x2="1392.150635" y2="1121.531006" style="stroke: green; stroke-width: 0.200000"/>
  <line x1="1567.849365" y1="1089.535156" x2="1392.150635" y2="1120.515625" style="stroke: green; stroke-width: 0.200000"/>
  <line x1="1567.849365" y1="1088.519775" x2="1392.150635" y2="1119.500244" style="stroke: green; stroke-width: 0.200000"/>
  <line x1="1567.849365" y1="1087.504272" x2="1392.150635" y2="1118.484741" style="stroke: green; stroke-width: 0.200000"/>
  <line x1="1567.849365" y1="1086.488892" x2="1392.150635" y2="1117.469360" style="stroke: green; stroke-width: 0.200000"/>
  <line x1="1567.849365" y1="1085.473511" x2="1392.150635" y2="1116.453979" style="stroke: green; stroke-width: 0.200000"/>
  <line x1="1567.849365" y1="1084.458008" x2="1392.150635" y2="1115.438477" style="stroke: green; stroke-width: 0.200000"/>
  <line x1="1567.849365" y1="1083.442627" x2="1392.150635" y2="1114.423096" style="stroke: green; stroke-width: 0.200000"/>
  <line x1="1567.849365" y1="1082.427124" x2="1392.150635" y2="1113.407593" style="stroke: green; stroke-width: 0.200000"/>
  <line x1="1567.849365" y1="1081.411743" x2="1392.150635" y2="1112.392212" style="stroke: green; stroke-width: 0.200000"/>
  <line x1="1567.849365" y1="1080.396240" x2="1392.150635" y2="1111.376831" style="stroke: green; stroke-width: 0.200000"/>
  <line x1="1567.849365" y1="1079.380859" x2="1392.150635" y2="1110.361328" style="stroke: green; stroke-width: 0.200000"/>
  <line x1="1567.849365" y1="1078.365479" x2="1392.150635" y2="1109.345947" style="stroke: green; stroke-width: 0.200000"/>
  <line x1="1567.849365" y1="1077.349976" x2="1392.150635" y2="1108.330444" style="stroke: green; stroke-width: 0.200000"/>
  <line x1="1567.849365" y1="1076.334595" x2="1392.150635" y2="1107.315063" style="stroke: green; stroke-width: 0.200000"/>
  <line x1="1567.849365" y1="1075.319214" x2="1392.150635" y2="1106.299683" style="stroke: green; stroke-width: 0.200000"/>
  <line x1="1567.849365" y1="1074.303711" x2="1392.150635" y2="1105.284180" style="stroke: green; stroke-width: 0.200000"/>
  <line x1="1567.849365" y1="1073.288330" x2="1392.150635" y2="1104.268799" style="stroke: green; stroke-width: 0.200000"/>
  <line x1="1567.849365" y1="1072.272827" x2="1392.150635" y2="1103.253296" style="stroke: green; stroke-width: 0.200000"/>
  <line x1="1567.849365" y1="1071.257446" x2="1392.150635" y2="1102.237915" style="stroke: green; stroke-width: 0.200000"/>
  <line x1="1567.849365" y1="1070.241943" x2="1392.150635" y2="1101.222534" style="stroke: green; stroke-width: 0.200000"/>
  <line x1="1567.849365" y1="1069.226562" x2="1392.150635" y2="1100.207031" style="stroke: green; stroke-width: 0.200000"/>
  <line x1="1567.849365" y1="1068.211182" x2="1392.150635" y2="1099.191650" style="stroke: green; stroke-width: 0.200000"/>
  <line x1="1567.849365" y1="1067.195801" x2="1392.150635" y2="1098.176147" style="stroke: green; stroke-width: 0.200000"/>
  <line x1="1567.849365" y1="1066.180298" x2="1392.150635" y2="1097.160767" style="stroke: green; stroke-width: 0.200000"/>
  <line x1="1567.849365" y1="1065.164917" x2="1392.150635" y2="1096.145386" style="stroke: green; stroke-width: 0.200000"/>
  <line x1="1567.849365" y1="1064.149414" x2="1392.150635" y2="1095.129883" style="stroke: green; stroke-width: 0.200000"/>
  <line x1="1567.849365" y1="1063.134033" x2="1392.150635" y2="1094.114502" style="stroke: green; stroke-width: 0.200000"/>
  <line x1="1567.849365" y1="1062.118652" x2="1392.150635" y2="1093.099121" style="stroke: green; stroke-width: 0.200000"/>
  <line x1="1567.849365" y1="1061.103271" x2="1392.150635" y2="1092.083618" style="stroke: green; stroke-width: 0.200000"/>
  <line x1="1567.849365" y1="1060.087769" x2="1392.150635" y2="1091.068237" style="stroke: green; stroke-width: 0.200000"/>
  <line x1="1562.588501" y1="1060.000000" x2="1392.150635" y2="1090.052734" style="stroke: green; stroke-width: 0.200000"/>
  <line x1="1556.829834" y1="1060.000000" x2="1392.150635" y2="1089.037354" style="stroke: green; stroke-width: 0.200000"/>
  <line x1="1551.071045" y1="1060.000000" x2="1392.150635" y2="1088.021973" style="stroke: green; stroke-width: 0.200000"/>
  <line x1="1545.312256" y1="1060.000000" x2="1392.150635" y2="1087.006592" style="stroke: green; stroke-width: 0.200000"/>
  <line x1="1539.553467" y1="1060.000000" x2="1392.150635" y2="1085.991089" style="stroke: green; stroke-width: 0.200000"/>
  <line x1="1533.794678" y1="1060.000000" x2="1392.150635" y2="1084.975708" style="stroke: green; stroke-width: 0.200000"/>
  <line x1="1528.035889" y1="1060.000000" x2="1392.150635" y2="1083.960205" style="stroke: green; stroke-width: 0.200000"/>
  <line x1="1522.277222" y1="1060.000000" x2="1392.150635" y2="1082.944824" style="stroke: green; stroke-width: 0.200000"/>
  <line x1="1516.518433" y1="1060.000000" x2="1392.150635" y2="1081.929443" style="stroke: green; stroke-width: 0.200000"/>
  <line x1="1510.759521" y1="1060.000000" x2="1392.150635" y2="1080.914062" style="stroke: green; stroke-width: 0.200000"/>
  <line x1="1505.000977" y1="1060.000000" x2="1392.150635" y2="1079.898560" style="stroke: green; stroke-width: 0.200000"/>
  <line x1="1499.242065" y1="1060.000000" x2="1392.150635" y2="1078.883179" style="stroke: green; stroke-width: 0.200000"/>
  <line x1="1493.483276" y1="1060.000000" x2="1392.150635" y2="1077.867676" style="stroke: green; stroke-width: 0.200000"/>
  <line x1="1487.724609" y1="1060.000000" x2="1392.150635" y2="1076.852295" style="stroke: green; stroke-width: 0.200000"/>
  <line x1="1481.965820" y1="1060.000000" x2="1392.150635" y2="1075.836914" style="stroke: green; stroke-width: 0.200000"/>
  <line x1="1476.207031" y1="1060.000000" x2="1392.150635" y2="1074.821411" style="stroke: green; stroke-width: 0.200000"/>
  <line x1="1470.448242" y1="1060.000000" x2="1392.150635" y2="1073.806030" style="stroke: green; stroke-width: 0.200000"/>
  <line x1="1464.689453" y1="1060.000000" x2="1392.150635" y2="1072.790649" style="stroke: green; stroke-width: 0.200000"/>
  <line x1="1458.930664" y1="1060.000000" x2="1392.150635" y2="1071.775146" style="stroke: green; stroke-width: 0.200000"/>
  <line x1="1453.171997" y1="1060.000000" x2="1392.150635" y2="1070.759766" style="stroke: green; stroke-width: 0.200000"/>
  <line x1="1447.413208" y1="1060.000000" x2="1392.150635" y2="1069.744263" style="stroke: green; stroke-width: 0.200000"/>
  <line x1="1441.654297" y1="1060.000000" x2="1392.150635" y2="1068.728882" style="stroke: green; stroke-width: 0.200000"/>
  <line x1="1435.895752" y1="1060.000000" x2="1392.150635" y2="1067.713501" style="stroke: green; stroke-width: 0.200000"/>
  <line x1="1430.136841" y1="1060.000000" x2="1392.150635" y2="1066.697998" style="stroke: green; stroke-width: 0.200000"/>
  <line x1="1424.378052" y1="1060.000000" x2="1392.150635" y2="1065.682617" style="stroke: green; stroke-width: 0.200000"/>
  <line x1="1418.619385" y1="1060.000000" x2="1392.150635" y2="1064.667114" style="stroke: green; stroke-width: 0.200000"/>
  <line x1="1412.860596" y1="1060.000000" x2="1392.150635" y2="1063.651733" style="stroke: green; stroke-width: 0.200000"/>
  <line x1="1407.101807" y1="1060.000000" x2="1392.150635" y2="1062.636230" style="stroke: green; stroke-width: 0.200000"/>
  <line x1="1401.342896" y1="1060.000000" x2="1392.150635" y2="1061.620850" style="stroke: green; stroke-width: 0.200000"/>
  <line x1="1395.584229" y1="1060.000000" x2="1392.150635" y2="1060.605469" style="stroke: green; stroke-width: 0.200000"/>
  <path d="M 1567.85  1410  1392.15  1410  1392.15  1060  1567.85  1060  1567.85  1410  " style="fill: none; stroke: black; stroke-width: 0.200000; fill-type: evenodd"  fill-opacity="1.000000" />
</svg>
