<?xml version="1.0" encoding="UTF-8" standalone="yes"?>
<svg xmlns="http://www.w3.org/2000/svg"
     xmlns:xlink="http://www.w3.org/1999/xlink"
     width="2020.0000mm" height="1600.0000mm"
     viewBox="0 0 202.000000 160.000000">
  <!--
    Build plate : 150.00 x 150.00 mm
    Coordinate  : 1 SVG unit = 1 mm
    Display zoom: 10x  (width/height = viewBox x 10)
    Hatch stroke: 0.04 mm = ~28 mm on screen at this zoom
    Legend panel: right margin (42 mm wide)
  -->
  <defs>
    <marker id="endArrow" markerWidth="2" markerHeight="1.4"
            refX="0" refY="0.7" orient="auto"
            markerUnits="strokeWidth">
      <polyline fill="darkblue" points="0,0 2,0.7 0,1.4 0.2,0.7"/>
    </marker>
  </defs>
  <!-- Background -->
  <rect x="0" y="0" width="202.000000" height="160.000000" fill="#f0f0f0" stroke="none"/>
  <!-- Build plate boundary (150 x 150 mm) -->
  <rect x="5.000000" y="5.000000" width="150.000000" height="150.000000"
        fill="#ffffff" stroke="#aaaaaa" stroke-width="0.2" stroke-dasharray="1,0.5"/>
  <!-- Build plate centre circle (r = 75.00 mm) -->
  <circle cx="80.000000" cy="80.000000" r="75.000000"
          fill="none" stroke="#bbbbbb" stroke-width="0.15" stroke-dasharray="0.8,0.4"/>
  <!-- Centre cross-hair -->
  <line x1="5.000000" y1="80.000000" x2="155.000000" y2="80.000000" stroke="#cccccc" stroke-width="0.1"/>
  <line x1="80.000000" y1="5.000000" x2="80.000000" y2="155.000000" stroke="#cccccc" stroke-width="0.1"/>
  <circle cx="80.000000" cy="80.000000" r="0.3" fill="#cccccc" stroke="none"/>
  <!-- Corner labels -->
  <text x="5.400000" y="4.600000" font-family="sans-serif" font-size="2" fill="#888888">0,0</text>
  <text x="154.600006" y="4.600000" font-family="sans-serif" font-size="2" fill="#888888" text-anchor="end">150,0</text>
  <text x="5.400000" y="157.199997" font-family="sans-serif" font-size="2" fill="#888888">0,150</text>
  <!-- Layer geometry -->
  <g id="geometry">
    <g class="thermal-hatch" data-segment="8" data-name="CoreNormalHatch">
      <line x1="34.96906" y1="127.78772" x2="35.32404" y2="127.62218" stroke="#228B22" stroke-width="0.04000"/>
      <line x1="34.87939" y1="127.71919" x2="35.83777" y2="127.27229" stroke="#228B22" stroke-width="0.04000"/>
      <line x1="34.78972" y1="127.65067" x2="35.81676" y2="127.17175" stroke="#228B22" stroke-width="0.04000"/>
      <line x1="34.70006" y1="127.58214" x2="35.79576" y2="127.07121" stroke="#228B22" stroke-width="0.04000"/>
      <line x1="34.61039" y1="127.51362" x2="35.77476" y2="126.97066" stroke="#228B22" stroke-width="0.04000"/>
      <line x1="34.52072" y1="127.44509" x2="35.75375" y2="126.87012" stroke="#228B22" stroke-width="0.04000"/>
      <line x1="34.43105" y1="127.37656" x2="35.73274" y2="126.76958" stroke="#228B22" stroke-width="0.04000"/>
      <line x1="34.34139" y1="127.30804" x2="35.70629" y2="126.67158" stroke="#228B22" stroke-width="0.04000"/>
      <line x1="34.25468" y1="127.23813" x2="35.67304" y2="126.57674" stroke="#228B22" stroke-width="0.04000"/>
      <line x1="34.18585" y1="127.15989" x2="35.63980" y2="126.48190" stroke="#228B22" stroke-width="0.04000"/>
      <line x1="34.11702" y1="127.08165" x2="35.60656" y2="126.38707" stroke="#228B22" stroke-width="0.04000"/>
      <line x1="34.04819" y1="127.00340" x2="35.57146" y2="126.29309" stroke="#228B22" stroke-width="0.04000"/>
      <line x1="33.97936" y1="126.92516" x2="35.53571" y2="126.19942" stroke="#228B22" stroke-width="0.04000"/>
      <line x1="33.91053" y1="126.84692" x2="35.49995" y2="126.10577" stroke="#228B22" stroke-width="0.04000"/>
      <line x1="33.84370" y1="126.76775" x2="35.46420" y2="126.01210" stroke="#228B22" stroke-width="0.04000"/>
      <line x1="33.78500" y1="126.68478" x2="35.42844" y2="125.91843" stroke="#228B22" stroke-width="0.04000"/>
      <line x1="33.72630" y1="126.60182" x2="35.39268" y2="125.82478" stroke="#228B22" stroke-width="0.04000"/>
      <line x1="33.66540" y1="126.51987" x2="35.35692" y2="125.73111" stroke="#228B22" stroke-width="0.04000"/>
      <line x1="33.60369" y1="126.43832" x2="35.32116" y2="125.63744" stroke="#228B22" stroke-width="0.04000"/>
      <line x1="33.54092" y1="126.35725" x2="35.28516" y2="125.54390" stroke="#228B22" stroke-width="0.04000"/>
      <line x1="33.47161" y1="126.27923" x2="35.24895" y2="125.45045" stroke="#228B22" stroke-width="0.04000"/>
      <line x1="33.40231" y1="126.20121" x2="35.21262" y2="125.35704" stroke="#228B22" stroke-width="0.04000"/>
      <line x1="33.33300" y1="126.12318" x2="35.17157" y2="125.26585" stroke="#228B22" stroke-width="0.04000"/>
      <line x1="33.26370" y1="126.04517" x2="35.12458" y2="125.17743" stroke="#228B22" stroke-width="0.04000"/>
      <line x1="33.19440" y1="125.96715" x2="35.07758" y2="125.08900" stroke="#228B22" stroke-width="0.04000"/>
      <line x1="33.12509" y1="125.88913" x2="35.03058" y2="125.00058" stroke="#228B22" stroke-width="0.04000"/>
      <line x1="33.04968" y1="125.81396" x2="34.98358" y2="124.91216" stroke="#228B22" stroke-width="0.04000"/>
      <line x1="32.97378" y1="125.73901" x2="34.93658" y2="124.82374" stroke="#228B22" stroke-width="0.04000"/>
      <line x1="32.89789" y1="125.66406" x2="34.88959" y2="124.73531" stroke="#228B22" stroke-width="0.04000"/>
      <line x1="32.82199" y1="125.58911" x2="34.84259" y2="124.64690" stroke="#228B22" stroke-width="0.04000"/>
      <line x1="32.74610" y1="125.51416" x2="34.79559" y2="124.55846" stroke="#228B22" stroke-width="0.04000"/>
      <line x1="32.67106" y1="125.43882" x2="34.74860" y2="124.47005" stroke="#228B22" stroke-width="0.04000"/>
      <line x1="32.60317" y1="125.36014" x2="34.70432" y2="124.38036" stroke="#228B22" stroke-width="0.04000"/>
      <line x1="32.53529" y1="125.28146" x2="34.66042" y2="124.29050" stroke="#228B22" stroke-width="0.04000"/>
      <line x1="32.46740" y1="125.20277" x2="34.61650" y2="124.20063" stroke="#228B22" stroke-width="0.04000"/>
      <line x1="32.39680" y1="125.12536" x2="34.57259" y2="124.11077" stroke="#228B22" stroke-width="0.04000"/>
      <line x1="32.31557" y1="125.05289" x2="34.52030" y2="124.02481" stroke="#228B22" stroke-width="0.04000"/>
      <line x1="32.23434" y1="124.98043" x2="34.46402" y2="123.94072" stroke="#228B22" stroke-width="0.04000"/>
      <line x1="32.15312" y1="124.90797" x2="34.40773" y2="123.85663" stroke="#228B22" stroke-width="0.04000"/>
      <line x1="32.07190" y1="124.83551" x2="34.35145" y2="123.77254" stroke="#228B22" stroke-width="0.04000"/>
      <line x1="31.99067" y1="124.76305" x2="34.29516" y2="123.68845" stroke="#228B22" stroke-width="0.04000"/>
      <line x1="31.90945" y1="124.69058" x2="34.23887" y2="123.60435" stroke="#228B22" stroke-width="0.04000"/>
      <line x1="31.82822" y1="124.61813" x2="34.18273" y2="123.52020" stroke="#228B22" stroke-width="0.04000"/>
      <line x1="31.74758" y1="124.54539" x2="34.12775" y2="123.43549" stroke="#228B22" stroke-width="0.04000"/>
      <line x1="31.67212" y1="124.47024" x2="34.07278" y2="123.35079" stroke="#228B22" stroke-width="0.04000"/>
      <line x1="31.59520" y1="124.39577" x2="34.01780" y2="123.26610" stroke="#228B22" stroke-width="0.04000"/>
      <line x1="31.50929" y1="124.32549" x2="33.96282" y2="123.18139" stroke="#228B22" stroke-width="0.04000"/>
      <line x1="31.42338" y1="124.25522" x2="33.90784" y2="123.09669" stroke="#228B22" stroke-width="0.04000"/>
      <line x1="31.34135" y1="124.18313" x2="33.85287" y2="123.01199" stroke="#228B22" stroke-width="0.04000"/>
      <line x1="31.27799" y1="124.10233" x2="33.78635" y2="122.93267" stroke="#228B22" stroke-width="0.04000"/>
      <line x1="31.21464" y1="124.02154" x2="33.71381" y2="122.85616" stroke="#228B22" stroke-width="0.04000"/>
      <line x1="31.15128" y1="123.94074" x2="33.64127" y2="122.77965" stroke="#228B22" stroke-width="0.04000"/>
      <line x1="31.08793" y1="123.85995" x2="33.56921" y2="122.70291" stroke="#228B22" stroke-width="0.04000"/>
      <line x1="31.02457" y1="123.77916" x2="33.50205" y2="122.62389" stroke="#228B22" stroke-width="0.04000"/>
      <line x1="30.96481" y1="123.69669" x2="33.43489" y2="122.54487" stroke="#228B22" stroke-width="0.04000"/>
      <line x1="30.96721" y1="123.58523" x2="33.36773" y2="122.46584" stroke="#228B22" stroke-width="0.04000"/>
      <line x1="30.96960" y1="123.47378" x2="33.30058" y2="122.38683" stroke="#228B22" stroke-width="0.04000"/>
      <line x1="30.97200" y1="123.36232" x2="33.23341" y2="122.30780" stroke="#228B22" stroke-width="0.04000"/>
      <line x1="30.95018" y1="123.26216" x2="33.16626" y2="122.22878" stroke="#228B22" stroke-width="0.04000"/>
      <line x1="30.92320" y1="123.16440" x2="33.09910" y2="122.14977" stroke="#228B22" stroke-width="0.04000"/>
      <line x1="30.89622" y1="123.06664" x2="33.03260" y2="122.07043" stroke="#228B22" stroke-width="0.04000"/>
      <line x1="30.86925" y1="122.96888" x2="32.96831" y2="121.99007" stroke="#228B22" stroke-width="0.04000"/>
      <line x1="30.84227" y1="122.87112" x2="32.90312" y2="121.91013" stroke="#228B22" stroke-width="0.04000"/>
      <line x1="30.81530" y1="122.77336" x2="32.78089" y2="121.85679" stroke="#228B22" stroke-width="0.04000"/>
      <line x1="30.78832" y1="122.67561" x2="32.64226" y2="121.81110" stroke="#228B22" stroke-width="0.04000"/>
      <line x1="30.84475" y1="122.53896" x2="32.51027" y2="121.76231" stroke="#228B22" stroke-width="0.04000"/>
      <line x1="30.90318" y1="122.40137" x2="32.37829" y2="121.71352" stroke="#228B22" stroke-width="0.04000"/>
      <line x1="30.96160" y1="122.26379" x2="32.24632" y2="121.66472" stroke="#228B22" stroke-width="0.04000"/>
      <line x1="31.02003" y1="122.12621" x2="32.11433" y2="121.61593" stroke="#228B22" stroke-width="0.04000"/>
    </g>
    <g class="thermal-hatch" data-segment="8" data-name="CoreNormalHatch">
      <line x1="52.29083" y1="116.62560" x2="53.30933" y2="116.15067" stroke="#228B22" stroke-width="0.04000"/>
      <line x1="52.19097" y1="116.56183" x2="53.29744" y2="116.04587" stroke="#228B22" stroke-width="0.04000"/>
      <line x1="52.09111" y1="116.49805" x2="53.26036" y2="115.95283" stroke="#228B22" stroke-width="0.04000"/>
      <line x1="52.91779" y1="116.44358" x2="53.32104" y2="116.25555" stroke="#228B22" stroke-width="0.04000"/>
      <line x1="51.99125" y1="116.43428" x2="53.22327" y2="115.85978" stroke="#228B22" stroke-width="0.04000"/>
      <line x1="53.29787" y1="116.37669" x2="53.33274" y2="116.36043" stroke="#228B22" stroke-width="0.04000"/>
      <line x1="51.89139" y1="116.37051" x2="53.18618" y2="115.76674" stroke="#228B22" stroke-width="0.04000"/>
      <line x1="51.79032" y1="116.30730" x2="53.14909" y2="115.67370" stroke="#228B22" stroke-width="0.04000"/>
      <line x1="51.68790" y1="116.24472" x2="53.11201" y2="115.58065" stroke="#228B22" stroke-width="0.04000"/>
      <line x1="51.58549" y1="116.18214" x2="53.07492" y2="115.48761" stroke="#228B22" stroke-width="0.04000"/>
      <line x1="51.48309" y1="116.11955" x2="53.03783" y2="115.39456" stroke="#228B22" stroke-width="0.04000"/>
      <line x1="51.38314" y1="116.05582" x2="52.98614" y2="115.30833" stroke="#228B22" stroke-width="0.04000"/>
      <line x1="51.28428" y1="115.99158" x2="52.91767" y2="115.22992" stroke="#228B22" stroke-width="0.04000"/>
      <line x1="51.18542" y1="115.92735" x2="52.84920" y2="115.15151" stroke="#228B22" stroke-width="0.04000"/>
      <line x1="51.08656" y1="115.86311" x2="52.78073" y2="115.07310" stroke="#228B22" stroke-width="0.04000"/>
      <line x1="50.98771" y1="115.79887" x2="52.71226" y2="114.99470" stroke="#228B22" stroke-width="0.04000"/>
      <line x1="50.88885" y1="115.73463" x2="52.64379" y2="114.91628" stroke="#228B22" stroke-width="0.04000"/>
      <line x1="50.78811" y1="115.67126" x2="52.57532" y2="114.83788" stroke="#228B22" stroke-width="0.04000"/>
      <line x1="50.68394" y1="115.60950" x2="52.50685" y2="114.75946" stroke="#228B22" stroke-width="0.04000"/>
      <line x1="50.57977" y1="115.54774" x2="52.43951" y2="114.68053" stroke="#228B22" stroke-width="0.04000"/>
      <line x1="50.47571" y1="115.48592" x2="52.36127" y2="114.60667" stroke="#228B22" stroke-width="0.04000"/>
      <line x1="50.37315" y1="115.42341" x2="52.27249" y2="114.53773" stroke="#228B22" stroke-width="0.04000"/>
      <line x1="50.27060" y1="115.36089" x2="52.18372" y2="114.46879" stroke="#228B22" stroke-width="0.04000"/>
      <line x1="50.16804" y1="115.29838" x2="52.09495" y2="114.39985" stroke="#228B22" stroke-width="0.04000"/>
      <line x1="50.06549" y1="115.23586" x2="52.00617" y2="114.33091" stroke="#228B22" stroke-width="0.04000"/>
      <line x1="49.96294" y1="115.17335" x2="51.91740" y2="114.26196" stroke="#228B22" stroke-width="0.04000"/>
      <line x1="49.86038" y1="115.11083" x2="51.82863" y2="114.19302" stroke="#228B22" stroke-width="0.04000"/>
      <line x1="49.75782" y1="115.04832" x2="51.73986" y2="114.12408" stroke="#228B22" stroke-width="0.04000"/>
      <line x1="49.64912" y1="114.98866" x2="51.65108" y2="114.05514" stroke="#228B22" stroke-width="0.04000"/>
      <line x1="49.53959" y1="114.92941" x2="51.55393" y2="113.99010" stroke="#228B22" stroke-width="0.04000"/>
      <line x1="49.43088" y1="114.86976" x2="51.45417" y2="113.92628" stroke="#228B22" stroke-width="0.04000"/>
      <line x1="49.32245" y1="114.80998" x2="51.35440" y2="113.86246" stroke="#228B22" stroke-width="0.04000"/>
      <line x1="49.21403" y1="114.75021" x2="51.25907" y2="113.79659" stroke="#228B22" stroke-width="0.04000"/>
      <line x1="49.11129" y1="114.68777" x2="51.17354" y2="113.72613" stroke="#228B22" stroke-width="0.04000"/>
      <line x1="49.01095" y1="114.62422" x2="51.08801" y2="113.65568" stroke="#228B22" stroke-width="0.04000"/>
      <line x1="48.91061" y1="114.56068" x2="51.00248" y2="113.58522" stroke="#228B22" stroke-width="0.04000"/>
      <line x1="48.81028" y1="114.49712" x2="50.91695" y2="113.51476" stroke="#228B22" stroke-width="0.04000"/>
      <line x1="48.70994" y1="114.43358" x2="50.83060" y2="113.44469" stroke="#228B22" stroke-width="0.04000"/>
      <line x1="48.60772" y1="114.37090" x2="50.74182" y2="113.37576" stroke="#228B22" stroke-width="0.04000"/>
      <line x1="48.50225" y1="114.30975" x2="50.65305" y2="113.30682" stroke="#228B22" stroke-width="0.04000"/>
      <line x1="48.39677" y1="114.24859" x2="50.56426" y2="113.23788" stroke="#228B22" stroke-width="0.04000"/>
      <line x1="48.29130" y1="114.18743" x2="50.47548" y2="113.16894" stroke="#228B22" stroke-width="0.04000"/>
      <line x1="48.18583" y1="114.12628" x2="50.38671" y2="113.10000" stroke="#228B22" stroke-width="0.04000"/>
      <line x1="48.08036" y1="114.06512" x2="50.29793" y2="113.03105" stroke="#228B22" stroke-width="0.04000"/>
      <line x1="47.98495" y1="113.99928" x2="50.20950" y2="112.96195" stroke="#228B22" stroke-width="0.04000"/>
      <line x1="47.90000" y1="113.92856" x2="50.12126" y2="112.89277" stroke="#228B22" stroke-width="0.04000"/>
      <line x1="47.81504" y1="113.85783" x2="50.02406" y2="112.82775" stroke="#228B22" stroke-width="0.04000"/>
      <line x1="47.72718" y1="113.78847" x2="49.93805" y2="112.75752" stroke="#228B22" stroke-width="0.04000"/>
      <line x1="47.63029" y1="113.72330" x2="49.85476" y2="112.68602" stroke="#228B22" stroke-width="0.04000"/>
      <line x1="47.53340" y1="113.65815" x2="49.77148" y2="112.61452" stroke="#228B22" stroke-width="0.04000"/>
      <line x1="47.43651" y1="113.59299" x2="49.68819" y2="112.54301" stroke="#228B22" stroke-width="0.04000"/>
      <line x1="47.33962" y1="113.52784" x2="49.60490" y2="112.47152" stroke="#228B22" stroke-width="0.04000"/>
      <line x1="47.24273" y1="113.46268" x2="49.52162" y2="112.40002" stroke="#228B22" stroke-width="0.04000"/>
      <line x1="47.14584" y1="113.39752" x2="49.43833" y2="112.32851" stroke="#228B22" stroke-width="0.04000"/>
      <line x1="47.04895" y1="113.33236" x2="49.34758" y2="112.26049" stroke="#228B22" stroke-width="0.04000"/>
      <line x1="46.96361" y1="113.26182" x2="49.25315" y2="112.19419" stroke="#228B22" stroke-width="0.04000"/>
      <line x1="46.89125" y1="113.18523" x2="49.15872" y2="112.12788" stroke="#228B22" stroke-width="0.04000"/>
      <line x1="46.80508" y1="113.11507" x2="49.06429" y2="112.06158" stroke="#228B22" stroke-width="0.04000"/>
      <line x1="46.71552" y1="113.04649" x2="48.97316" y2="111.99374" stroke="#228B22" stroke-width="0.04000"/>
      <line x1="46.62596" y1="112.97792" x2="48.89936" y2="111.91782" stroke="#228B22" stroke-width="0.04000"/>
      <line x1="46.53640" y1="112.90934" x2="48.82555" y2="111.84189" stroke="#228B22" stroke-width="0.04000"/>
      <line x1="46.44685" y1="112.84077" x2="48.75175" y2="111.76597" stroke="#228B22" stroke-width="0.04000"/>
      <line x1="46.35877" y1="112.77150" x2="48.67796" y2="111.69004" stroke="#228B22" stroke-width="0.04000"/>
      <line x1="46.27096" y1="112.70211" x2="48.60284" y2="111.61473" stroke="#228B22" stroke-width="0.04000"/>
      <line x1="46.18315" y1="112.63271" x2="48.52557" y2="111.54043" stroke="#228B22" stroke-width="0.04000"/>
      <line x1="46.09534" y1="112.56332" x2="48.44830" y2="111.46613" stroke="#228B22" stroke-width="0.04000"/>
      <line x1="46.00713" y1="112.49413" x2="48.37102" y2="111.39182" stroke="#228B22" stroke-width="0.04000"/>
      <line x1="45.91874" y1="112.42500" x2="48.29385" y2="111.31747" stroke="#228B22" stroke-width="0.04000"/>
      <line x1="45.84950" y1="112.34695" x2="48.21671" y2="111.24310" stroke="#228B22" stroke-width="0.04000"/>
      <line x1="45.78229" y1="112.26795" x2="48.13958" y2="111.16873" stroke="#228B22" stroke-width="0.04000"/>
      <line x1="45.71508" y1="112.18896" x2="48.06245" y2="111.09436" stroke="#228B22" stroke-width="0.04000"/>
      <line x1="45.64786" y1="112.10996" x2="47.98804" y2="111.01871" stroke="#228B22" stroke-width="0.04000"/>
      <line x1="45.58065" y1="112.03096" x2="47.92384" y2="110.93832" stroke="#228B22" stroke-width="0.04000"/>
      <line x1="45.51344" y1="111.95197" x2="47.85963" y2="110.85792" stroke="#228B22" stroke-width="0.04000"/>
      <line x1="45.44622" y1="111.87297" x2="47.79543" y2="110.77752" stroke="#228B22" stroke-width="0.04000"/>
      <line x1="45.37828" y1="111.79432" x2="47.73122" y2="110.69712" stroke="#228B22" stroke-width="0.04000"/>
      <line x1="45.30487" y1="111.71821" x2="47.66730" y2="110.61659" stroke="#228B22" stroke-width="0.04000"/>
      <line x1="45.23146" y1="111.64211" x2="47.60364" y2="110.53594" stroke="#228B22" stroke-width="0.04000"/>
      <line x1="45.15805" y1="111.56599" x2="47.53997" y2="110.45529" stroke="#228B22" stroke-width="0.04000"/>
      <line x1="45.08464" y1="111.48988" x2="47.47630" y2="110.37464" stroke="#228B22" stroke-width="0.04000"/>
      <line x1="45.01124" y1="111.41378" x2="47.41263" y2="110.29399" stroke="#228B22" stroke-width="0.04000"/>
      <line x1="44.93783" y1="111.33768" x2="47.34896" y2="110.21335" stroke="#228B22" stroke-width="0.04000"/>
      <line x1="44.86443" y1="111.26157" x2="47.28529" y2="110.13270" stroke="#228B22" stroke-width="0.04000"/>
      <line x1="44.80979" y1="111.17670" x2="47.21640" y2="110.05448" stroke="#228B22" stroke-width="0.04000"/>
      <line x1="44.76722" y1="111.08622" x2="47.14531" y2="109.97729" stroke="#228B22" stroke-width="0.04000"/>
      <line x1="44.71950" y1="110.99813" x2="47.07847" y2="109.89812" stroke="#228B22" stroke-width="0.04000"/>
      <line x1="44.67179" y1="110.91004" x2="47.01266" y2="109.81847" stroke="#228B22" stroke-width="0.04000"/>
      <line x1="44.62408" y1="110.82195" x2="46.94685" y2="109.73882" stroke="#228B22" stroke-width="0.04000"/>
      <line x1="44.57637" y1="110.73386" x2="46.88105" y2="109.65917" stroke="#228B22" stroke-width="0.04000"/>
      <line x1="44.52866" y1="110.64577" x2="46.81524" y2="109.57953" stroke="#228B22" stroke-width="0.04000"/>
      <line x1="44.48095" y1="110.55769" x2="46.74943" y2="109.49988" stroke="#228B22" stroke-width="0.04000"/>
      <line x1="44.43452" y1="110.46899" x2="46.68362" y2="109.42022" stroke="#228B22" stroke-width="0.04000"/>
      <line x1="44.38881" y1="110.37997" x2="46.61781" y2="109.34057" stroke="#228B22" stroke-width="0.04000"/>
      <line x1="44.34309" y1="110.29095" x2="46.54041" y2="109.26633" stroke="#228B22" stroke-width="0.04000"/>
      <line x1="44.29684" y1="110.20219" x2="46.43332" y2="109.20592" stroke="#228B22" stroke-width="0.04000"/>
      <line x1="44.26962" y1="110.10454" x2="46.33563" y2="109.14114" stroke="#228B22" stroke-width="0.04000"/>
      <line x1="44.27697" y1="109.99078" x2="46.24131" y2="109.07479" stroke="#228B22" stroke-width="0.04000"/>
      <line x1="44.28425" y1="109.87704" x2="46.14698" y2="109.00844" stroke="#228B22" stroke-width="0.04000"/>
      <line x1="44.29142" y1="109.76335" x2="46.05265" y2="108.94209" stroke="#228B22" stroke-width="0.04000"/>
      <line x1="44.29859" y1="109.64967" x2="45.95832" y2="108.87573" stroke="#228B22" stroke-width="0.04000"/>
      <line x1="44.30576" y1="109.53600" x2="45.86382" y2="108.80946" stroke="#228B22" stroke-width="0.04000"/>
      <line x1="44.31293" y1="109.42231" x2="45.72942" y2="108.76180" stroke="#228B22" stroke-width="0.04000"/>
      <line x1="44.32011" y1="109.30863" x2="45.59502" y2="108.71413" stroke="#228B22" stroke-width="0.04000"/>
      <line x1="44.55640" y1="109.08810" x2="45.46062" y2="108.66646" stroke="#228B22" stroke-width="0.04000"/>
      <line x1="45.06101" y1="108.74247" x2="45.32622" y2="108.61880" stroke="#228B22" stroke-width="0.04000"/>
    </g>
    <g class="thermal-hatch" data-segment="8" data-name="CoreNormalHatch">
      <line x1="32.59330" y1="122.10210" x2="32.71720" y2="122.14060" stroke="#228B22" stroke-width="0.04000"/>
      <line x1="32.71720" y1="122.14060" x2="32.82360" y2="122.27350" stroke="#228B22" stroke-width="0.04000"/>
      <line x1="32.82360" y1="122.27350" x2="33.35950" y2="122.90380" stroke="#228B22" stroke-width="0.04000"/>
      <line x1="33.35950" y1="122.90380" x2="33.60520" y2="123.16300" stroke="#228B22" stroke-width="0.04000"/>
      <line x1="33.60520" y1="123.16300" x2="33.94670" y2="123.68910" stroke="#228B22" stroke-width="0.04000"/>
      <line x1="33.94670" y1="123.68910" x2="34.30650" y2="124.22690" stroke="#228B22" stroke-width="0.04000"/>
      <line x1="34.30650" y1="124.22690" x2="34.48470" y2="124.59140" stroke="#228B22" stroke-width="0.04000"/>
      <line x1="34.48470" y1="124.59140" x2="34.92820" y2="125.42600" stroke="#228B22" stroke-width="0.04000"/>
      <line x1="34.92820" y1="125.42600" x2="34.96160" y2="125.51120" stroke="#228B22" stroke-width="0.04000"/>
      <line x1="34.96160" y1="125.51120" x2="35.02770" y2="125.68170" stroke="#228B22" stroke-width="0.04000"/>
      <line x1="35.02770" y1="125.68170" x2="35.02770" y2="125.68180" stroke="#228B22" stroke-width="0.04000"/>
      <line x1="35.02770" y1="125.68180" x2="35.32480" y2="126.46010" stroke="#228B22" stroke-width="0.04000"/>
      <line x1="35.32480" y1="126.46010" x2="35.44110" y2="126.79200" stroke="#228B22" stroke-width="0.04000"/>
      <line x1="35.44110" y1="126.79200" x2="35.51490" y2="127.14550" stroke="#228B22" stroke-width="0.04000"/>
      <line x1="35.51490" y1="127.14550" x2="35.03040" y2="127.46950" stroke="#228B22" stroke-width="0.04000"/>
      <line x1="35.03040" y1="127.46950" x2="34.46320" y2="127.03600" stroke="#228B22" stroke-width="0.04000"/>
      <line x1="34.46320" y1="127.03600" x2="34.08310" y2="126.60400" stroke="#228B22" stroke-width="0.04000"/>
      <line x1="34.08310" y1="126.60400" x2="33.94450" y2="126.40810" stroke="#228B22" stroke-width="0.04000"/>
      <line x1="33.94450" y1="126.40810" x2="33.77510" y2="126.18420" stroke="#228B22" stroke-width="0.04000"/>
      <line x1="33.77510" y1="126.18420" x2="33.33050" y2="125.68360" stroke="#228B22" stroke-width="0.04000"/>
      <line x1="33.33050" y1="125.68360" x2="32.88880" y2="125.24750" stroke="#228B22" stroke-width="0.04000"/>
      <line x1="32.88880" y1="125.24750" x2="32.62040" y2="124.93630" stroke="#228B22" stroke-width="0.04000"/>
      <line x1="32.62040" y1="124.93630" x2="31.95430" y2="124.34190" stroke="#228B22" stroke-width="0.04000"/>
      <line x1="31.95430" y1="124.34190" x2="31.80190" y2="124.19020" stroke="#228B22" stroke-width="0.04000"/>
      <line x1="31.80190" y1="124.19020" x2="31.56090" y2="123.99300" stroke="#228B22" stroke-width="0.04000"/>
      <line x1="31.56090" y1="123.99300" x2="31.25680" y2="123.60530" stroke="#228B22" stroke-width="0.04000"/>
      <line x1="31.25680" y1="123.60530" x2="31.26330" y2="123.30660" stroke="#228B22" stroke-width="0.04000"/>
      <line x1="31.26330" y1="123.30660" x2="31.09400" y2="122.69330" stroke="#228B22" stroke-width="0.04000"/>
      <line x1="31.09400" y1="122.69330" x2="31.29860" y2="122.21150" stroke="#228B22" stroke-width="0.04000"/>
      <line x1="31.29860" y1="122.21150" x2="31.37120" y2="122.17920" stroke="#228B22" stroke-width="0.04000"/>
      <line x1="31.37120" y1="122.17920" x2="32.00470" y2="121.88450" stroke="#228B22" stroke-width="0.04000"/>
      <line x1="32.00470" y1="121.88450" x2="32.59330" y2="122.10210" stroke="#228B22" stroke-width="0.04000"/>
      <line x1="45.72960" y1="109.06930" x2="46.25000" y2="109.43560" stroke="#228B22" stroke-width="0.04000"/>
      <line x1="46.25000" y1="109.43560" x2="46.38090" y2="109.50920" stroke="#228B22" stroke-width="0.04000"/>
      <line x1="46.38090" y1="109.50920" x2="46.91290" y2="110.15310" stroke="#228B22" stroke-width="0.04000"/>
      <line x1="46.91290" y1="110.15310" x2="47.04520" y2="110.29670" stroke="#228B22" stroke-width="0.04000"/>
      <line x1="47.04520" y1="110.29670" x2="47.47460" y2="110.84060" stroke="#228B22" stroke-width="0.04000"/>
      <line x1="47.47460" y1="110.84060" x2="47.78670" y2="111.23140" stroke="#228B22" stroke-width="0.04000"/>
      <line x1="47.78670" y1="111.23140" x2="48.14530" y2="111.57700" stroke="#228B22" stroke-width="0.04000"/>
      <line x1="48.14530" y1="111.57700" x2="48.42900" y2="111.85000" stroke="#228B22" stroke-width="0.04000"/>
      <line x1="48.42900" y1="111.85000" x2="48.79590" y2="112.22750" stroke="#228B22" stroke-width="0.04000"/>
      <line x1="48.79590" y1="112.22750" x2="49.23290" y2="112.53420" stroke="#228B22" stroke-width="0.04000"/>
      <line x1="49.23290" y1="112.53420" x2="49.83280" y2="113.04940" stroke="#228B22" stroke-width="0.04000"/>
      <line x1="49.83280" y1="113.04940" x2="49.93730" y2="113.11710" stroke="#228B22" stroke-width="0.04000"/>
      <line x1="49.93730" y1="113.11710" x2="50.08980" y2="113.23650" stroke="#228B22" stroke-width="0.04000"/>
      <line x1="50.08980" y1="113.23650" x2="50.66970" y2="113.68680" stroke="#228B22" stroke-width="0.04000"/>
      <line x1="50.66970" y1="113.68680" x2="51.11490" y2="114.05340" stroke="#228B22" stroke-width="0.04000"/>
      <line x1="51.11490" y1="114.05340" x2="51.46200" y2="114.27530" stroke="#228B22" stroke-width="0.04000"/>
      <line x1="51.46200" y1="114.27530" x2="52.18440" y2="114.83650" stroke="#228B22" stroke-width="0.04000"/>
      <line x1="52.18440" y1="114.83650" x2="52.20660" y2="114.85420" stroke="#228B22" stroke-width="0.04000"/>
      <line x1="52.20660" y1="114.85420" x2="52.26350" y2="114.92170" stroke="#228B22" stroke-width="0.04000"/>
      <line x1="52.26350" y1="114.92170" x2="52.76690" y2="115.49820" stroke="#228B22" stroke-width="0.04000"/>
      <line x1="52.76690" y1="115.49820" x2="53.00860" y2="116.10480" stroke="#228B22" stroke-width="0.04000"/>
      <line x1="53.00860" y1="116.10480" x2="52.36470" y2="116.32860" stroke="#228B22" stroke-width="0.04000"/>
      <line x1="52.36470" y1="116.32860" x2="51.99280" y2="116.09120" stroke="#228B22" stroke-width="0.04000"/>
      <line x1="51.99280" y1="116.09120" x2="51.60790" y2="115.85610" stroke="#228B22" stroke-width="0.04000"/>
      <line x1="51.60790" y1="115.85610" x2="51.60800" y2="115.85610" stroke="#228B22" stroke-width="0.04000"/>
      <line x1="51.60800" y1="115.85610" x2="50.97810" y2="115.44660" stroke="#228B22" stroke-width="0.04000"/>
      <line x1="50.97810" y1="115.44660" x2="50.63100" y2="115.24100" stroke="#228B22" stroke-width="0.04000"/>
      <line x1="50.63100" y1="115.24100" x2="50.63090" y2="115.24100" stroke="#228B22" stroke-width="0.04000"/>
      <line x1="50.63090" y1="115.24100" x2="49.89010" y2="114.78940" stroke="#228B22" stroke-width="0.04000"/>
      <line x1="49.89010" y1="114.78940" x2="49.66410" y2="114.66710" stroke="#228B22" stroke-width="0.04000"/>
      <line x1="49.66410" y1="114.66710" x2="49.32790" y2="114.48160" stroke="#228B22" stroke-width="0.04000"/>
      <line x1="49.32790" y1="114.48160" x2="48.79670" y2="114.14530" stroke="#228B22" stroke-width="0.04000"/>
      <line x1="48.79670" y1="114.14530" x2="48.19280" y2="113.79500" stroke="#228B22" stroke-width="0.04000"/>
      <line x1="48.19280" y1="113.79500" x2="47.92480" y2="113.57210" stroke="#228B22" stroke-width="0.04000"/>
      <line x1="47.92480" y1="113.57210" x2="47.18610" y2="113.07510" stroke="#228B22" stroke-width="0.04000"/>
      <line x1="47.18610" y1="113.07510" x2="47.07190" y2="112.95410" stroke="#228B22" stroke-width="0.04000"/>
      <line x1="47.07190" y1="112.95410" x2="46.61180" y2="112.60180" stroke="#228B22" stroke-width="0.04000"/>
      <line x1="46.61180" y1="112.60180" x2="46.24910" y2="112.31530" stroke="#228B22" stroke-width="0.04000"/>
      <line x1="46.24910" y1="112.31530" x2="46.11180" y2="112.20760" stroke="#228B22" stroke-width="0.04000"/>
      <line x1="46.11180" y1="112.20760" x2="45.60190" y2="111.60850" stroke="#228B22" stroke-width="0.04000"/>
      <line x1="45.60190" y1="111.60850" x2="45.07740" y2="111.06450" stroke="#228B22" stroke-width="0.04000"/>
      <line x1="45.07740" y1="111.06450" x2="45.03230" y2="110.96660" stroke="#228B22" stroke-width="0.04000"/>
      <line x1="45.03230" y1="110.96660" x2="44.72430" y2="110.39830" stroke="#228B22" stroke-width="0.04000"/>
      <line x1="44.72430" y1="110.39830" x2="44.56230" y2="110.08300" stroke="#228B22" stroke-width="0.04000"/>
      <line x1="44.56230" y1="110.08300" x2="44.56160" y2="110.08170" stroke="#228B22" stroke-width="0.04000"/>
      <line x1="44.56160" y1="110.08170" x2="44.57100" y2="109.93800" stroke="#228B22" stroke-width="0.04000"/>
      <line x1="44.57100" y1="109.93800" x2="44.60430" y2="109.40740" stroke="#228B22" stroke-width="0.04000"/>
      <line x1="44.60430" y1="109.40740" x2="45.17100" y2="109.01570" stroke="#228B22" stroke-width="0.04000"/>
      <line x1="45.17100" y1="109.01570" x2="45.31740" y2="108.92310" stroke="#228B22" stroke-width="0.04000"/>
      <line x1="45.31740" y1="108.92310" x2="45.72960" y2="109.06930" stroke="#228B22" stroke-width="0.04000"/>
    </g>
    <g class="thermal-contour" data-segment="1" data-name="CoreContour_Volume">
    <path d="M 32.6867 121.828 L 32.8861 121.889 L 32.9438 121.959 L 33.0474 122.089 L 33.5753 122.71 L 33.834 122.983 L 34.1888 123.53 L 34.5584 124.082 L 34.7431 124.46 L 35.1921 125.304 L 35.2316 125.406 L 35.3052 125.596 L 35.5978 126.362 L 35.7211 126.714 L 35.8389 127.278 L 35.0623 127.797 L 35.0324 127.825 L 35.0103 127.819 L 34.2645 127.249 L 33.8553 126.784 L 33.7105 126.579 L 33.5507 126.368 L 33.12 125.883 L 32.6783 125.447 L 32.4133 125.14 L 31.7551 124.553 L 31.6073 124.406 L 31.3523 124.197 L 30.9647 123.703 L 30.9724 123.343 L 30.7877 122.673 L 31.0765 121.993 L 31.2509 121.915 L 31.992 121.571 L 32.6867 121.828" fill="none" stroke="#000000" stroke-width="0.05000" fill-rule="evenodd" fill-opacity="1.000"/>
    </g>
    <g class="thermal-contour" data-segment="1" data-name="CoreContour_Volume">
    <path d="M 45.8644 108.81 L 46.4051 109.19 L 46.5705 109.283 L 47.1315 109.962 L 47.2664 110.109 L 47.7017 110.66 L 48.0016 111.036 L 48.3465 111.368 L 48.6322 111.643 L 48.9849 112.006 L 49.4109 112.305 L 50.0068 112.817 L 50.1071 112.882 L 50.2681 113.008 L 50.8531 113.462 L 51.2857 113.819 L 51.63 114.039 L 52.3622 114.607 L 52.41 114.646 L 52.4836 114.733 L 53.018 115.345 L 53.2977 116.047 L 53.3345 116.376 L 53.0951 116.382 L 52.3272 116.649 L 51.8391 116.337 L 51.4517 116.1 L 50.825 115.693 L 50.4831 115.49 L 49.7455 115.041 L 49.5115 114.914 L 49.1819 114.732 L 48.6463 114.393 L 48.0267 114.034 L 47.7508 113.804 L 46.9977 113.298 L 46.877 113.17 L 46.4331 112.83 L 46.0699 112.543 L 45.9103 112.418 L 45.387 111.803 L 44.8348 111.231 L 44.7728 111.097 L 44.4641 110.527 L 44.3064 110.22 L 44.2668 110.148 L 44.2816 109.919 L 44.3239 109.249 L 45.0085 108.776 L 45.2815 108.603 L 45.8644 108.81" fill="none" stroke="#000000" stroke-width="0.05000" fill-rule="evenodd" fill-opacity="1.000"/>
    </g>
    <g class="thermal-contour" data-segment="1" data-name="CoreContour_Volume">
    <path d="M 32.6223 122.017 L 32.7696 122.063 L 32.7885 122.086 L 32.7885 122.086 L 32.893 122.216 L 33.4265 122.844 L 33.6763 123.107 L 34.0218 123.64 L 34.3848 124.182 L 34.5649 124.55 L 35.0101 125.388 L 35.0454 125.478 L 35.1118 125.65 L 35.4089 126.428 L 35.5281 126.768 L 35.6155 127.187 L 35.027 127.58 L 34.4015 127.102 L 34.0122 126.66 L 33.8719 126.461 L 33.7055 126.241 L 33.2652 125.746 L 32.8229 125.309 L 32.5561 124.999 L 31.8927 124.408 L 31.7415 124.257 L 31.4961 124.056 L 31.1661 123.636 L 31.173 123.318 L 30.9989 122.687 L 31.2297 122.144 L 31.3339 122.097 L 32.0008 121.787 L 32.6223 122.017" fill="none" stroke="#000000" stroke-width="0.05000" fill-rule="evenodd" fill-opacity="1.000"/>
    <path d="M 31.3712 122.179 L 31.2986 122.212 L 31.094 122.693 L 31.2633 123.307 L 31.2568 123.605 L 31.5609 123.993 L 31.8019 124.19 L 31.9543 124.342 L 32.6204 124.936 L 32.8888 125.247 L 33.3305 125.684 L 33.7751 126.184 L 33.9445 126.408 L 34.0831 126.604 L 34.4632 127.036 L 35.0304 127.469 L 35.5149 127.146 L 35.4411 126.792 L 35.3248 126.46 L 35.0277 125.682 L 35.0277 125.682 L 34.9616 125.511 L 34.9282 125.426 L 34.4847 124.591 L 34.3065 124.227 L 33.9467 123.689 L 33.6052 123.163 L 33.3595 122.904 L 32.8236 122.273 L 32.7172 122.141 L 32.5933 122.102 L 32.0047 121.884 L 31.3712 122.179" fill="none" stroke="#000000" stroke-width="0.05000" fill-rule="evenodd" fill-opacity="1.000"/>
    <path d="M 45.7714 108.989 L 46.2981 109.359 L 46.4397 109.439 L 46.9807 110.094 L 47.1135 110.238 L 47.5451 110.785 L 47.8534 111.171 L 48.2077 111.512 L 48.4914 111.785 L 48.8545 112.159 L 49.288 112.463 L 49.8868 112.977 L 49.9905 113.044 L 50.1451 113.165 L 50.7259 113.617 L 51.1679 113.98 L 51.5142 114.202 L 52.2396 114.765 L 52.2696 114.789 L 52.3318 114.863 L 52.8448 115.451 L 53.1017 116.095 L 53.1114 116.181 L 53.0587 116.183 L 52.353 116.428 L 51.9451 116.168 L 51.5589 115.932 L 50.9306 115.523 L 50.5851 115.318 L 49.8452 114.867 L 49.6073 114.739 L 49.6074 114.739 L 49.2831 114.56 L 48.75 114.222 L 48.1416 113.869 L 47.8708 113.644 L 47.1277 113.144 L 47.0114 113.021 L 46.5571 112.673 L 46.1935 112.386 L 46.0495 112.273 L 45.5352 111.669 L 45.0022 111.116 L 44.9518 111.007 L 44.6442 110.439 L 44.4829 110.125 L 44.4701 110.102 L 44.4812 109.932 L 44.5173 109.358 L 45.1205 108.941 L 45.3063 108.824 L 45.7714 108.989" fill="none" stroke="#000000" stroke-width="0.05000" fill-rule="evenodd" fill-opacity="1.000"/>
    <path d="M 45.171 109.016 L 44.6043 109.407 L 44.571 109.938 L 44.5616 110.082 L 44.5623 110.083 L 44.7243 110.398 L 45.0323 110.967 L 45.0774 111.064 L 45.6019 111.608 L 46.1118 112.208 L 46.2491 112.315 L 46.6118 112.602 L 47.0719 112.954 L 47.1861 113.075 L 47.9248 113.572 L 48.1928 113.795 L 48.7967 114.145 L 49.3279 114.482 L 49.6641 114.667 L 49.8901 114.789 L 50.6309 115.241 L 50.631 115.241 L 50.9781 115.447 L 51.608 115.856 L 51.6079 115.856 L 51.9928 116.091 L 52.3647 116.329 L 53.0086 116.105 L 52.7669 115.498 L 52.2635 114.922 L 52.2066 114.854 L 52.1844 114.837 L 51.462 114.275 L 51.1149 114.053 L 50.6697 113.687 L 50.0898 113.237 L 49.9373 113.117 L 49.8328 113.049 L 49.2329 112.534 L 48.7959 112.228 L 48.429 111.85 L 48.1453 111.577 L 47.7867 111.231 L 47.4746 110.841 L 47.0452 110.297 L 46.9129 110.153 L 46.3809 109.509 L 46.25 109.436 L 45.7296 109.069 L 45.3174 108.923 L 45.171 109.016" fill="none" stroke="#000000" stroke-width="0.05000" fill-rule="evenodd" fill-opacity="1.000"/>
    </g>
    <g class="thermal-contour" data-segment="3" data-name="HollowShell1Contour_Volume">
    <path d="M 32.6867 121.827 L 32.8861 121.89 L 32.9438 121.96 L 33.0474 122.089 L 33.5753 122.71 L 33.834 122.983 L 34.1888 123.53 L 34.5584 124.082 L 34.7431 124.46 L 35.1921 125.304 L 35.2316 125.406 L 35.3052 125.596 L 35.5978 126.362 L 35.7211 126.714 L 35.8389 127.278 L 35.0623 127.797 L 35.0369 127.821 L 34.7621 127.591 L 34.2978 127.236 L 34.0577 126.964 L 33.7386 126.512 L 33.3863 126.047 L 33.1556 125.787 L 32.9189 125.553 L 32.8652 125.491 L 33.1926 125.814 L 33.6281 126.305 L 33.7912 126.52 L 33.9339 126.722 L 34.3329 127.176 L 35.0231 127.703 L 35.7272 127.232 L 35.6246 126.741 L 35.5034 126.395 L 35.5034 126.395 L 35.2118 125.631 L 35.2118 125.631 L 35.1385 125.442 L 35.1011 125.346 L 34.654 124.505 L 34.4716 124.132 L 34.1053 123.585 L 33.7552 123.045 L 33.5009 122.777 L 32.9702 122.153 L 32.8666 122.023 L 32.8278 121.976 L 32.6545 121.922 L 31.9964 121.679 L 31.2924 122.006 L 31.1531 122.068 L 30.8933 122.68 L 31.0727 123.33 L 31.0654 123.669 L 31.3073 123.978 L 30.977 123.707 L 30.9649 123.692 L 30.9724 123.343 L 30.7877 122.673 L 31.0765 121.993 L 31.2509 121.915 L 31.992 121.571 L 32.6867 121.827" fill="none" stroke="#0000CC" stroke-width="0.05000" fill-rule="evenodd" fill-opacity="1.000"/>
    <path d="M 45.8644 108.81 L 46.4051 109.19 L 46.4806 109.233 L 46.5119 109.273 L 47.0914 109.971 L 47.152 110.046 L 47.3209 110.26 L 47.6813 110.716 L 47.82 110.89 L 48.3297 111.381 L 48.7519 111.787 L 48.8743 111.913 L 48.9386 111.958 L 48.9849 112.006 L 49.4109 112.305 L 50.0068 112.817 L 50.1071 112.882 L 50.2681 113.008 L 50.8531 113.462 L 51.2857 113.818 L 51.63 114.039 L 52.3622 114.607 L 52.41 114.646 L 52.4836 114.733 L 53.018 115.345 L 53.2332 115.885 L 53.2881 116.377 L 53.0951 116.382 L 53.0741 116.389 L 52.7445 116.398 L 53.0769 116.282 L 53.223 116.279 L 53.1997 116.071 L 52.9314 115.398 L 52.4077 114.798 L 52.3398 114.717 L 52.3009 114.686 L 51.5721 114.12 L 51.2268 113.899 L 50.7895 113.539 L 50.2066 113.087 L 50.0488 112.963 L 49.9468 112.897 L 49.3495 112.384 L 48.9197 112.082 L 48.5618 111.714 L 48.2771 111.44 L 47.9275 111.103 L 47.6234 110.722 L 47.19 110.173 L 47.0561 110.028 L 46.5051 109.361 L 46.3516 109.275 L 45.8179 108.899 L 45.2939 108.713 L 45.0645 108.858 L 44.4206 109.303 L 44.3814 109.926 L 44.3684 110.125 L 44.3947 110.173 L 44.5531 110.481 L 44.553 110.481 L 44.8623 111.052 L 44.9185 111.174 L 45.4611 111.736 L 45.9799 112.346 L 46.1317 112.465 L 46.4951 112.752 L 46.9442 113.096 L 47.0627 113.221 L 47.8108 113.724 L 48.0843 113.952 L 48.6982 114.308 L 49.2325 114.646 L 49.5591 114.826 L 49.7953 114.954 L 50.5341 115.404 L 50.8778 115.608 L 51.5053 116.016 L 51.8921 116.252 L 52.3285 116.531 L 52.2868 116.546 L 52.0185 116.374 L 51.4072 116.001 L 50.9924 115.731 L 50.4298 115.397 L 49.9164 115.085 L 49.4788 114.848 L 48.8627 114.508 L 48.6769 114.391 L 47.9456 113.966 L 47.7508 113.804 L 46.9977 113.298 L 46.877 113.17 L 46.4331 112.83 L 46.0699 112.543 L 45.9103 112.418 L 45.387 111.803 L 44.8348 111.231 L 44.7728 111.096 L 44.4641 110.527 L 44.3064 110.219 L 44.2668 110.148 L 44.2816 109.919 L 44.3239 109.249 L 45.0085 108.776 L 45.2815 108.603 L 45.8644 108.81" fill="none" stroke="#0000CC" stroke-width="0.05000" fill-rule="evenodd" fill-opacity="1.000"/>
    </g>
    <g class="thermal-contour" data-segment="4" data-name="HollowShell1Contour_Overhang">
    <path d="M 30.977 123.707 L 31.3073 123.978 L 31.4242 124.127 L 31.6744 124.331 L 31.8244 124.481 L 32.4847 125.07 L 32.7506 125.378 L 32.8652 125.491 L 32.9189 125.553 L 33.1556 125.787 L 33.3863 126.047 L 33.7386 126.512 L 34.0577 126.964 L 34.2978 127.236 L 34.7621 127.591 L 35.0369 127.821 L 35.0324 127.825 L 35.0103 127.819 L 34.2645 127.249 L 33.8553 126.784 L 33.7105 126.579 L 33.5507 126.368 L 33.12 125.883 L 32.6783 125.447 L 32.4133 125.14 L 31.7551 124.553 L 31.6073 124.406 L 31.3523 124.197 L 30.9647 123.703 L 30.9649 123.692 L 30.977 123.707" fill="none" stroke="#000080" stroke-width="0.05000" fill-rule="evenodd" fill-opacity="1.000"/>
    <path d="M 48.6769 114.391 L 48.8627 114.508 L 49.4788 114.848 L 49.9164 115.085 L 50.4298 115.397 L 50.9924 115.731 L 51.4072 116.001 L 52.0185 116.374 L 52.2868 116.546 L 52.3285 116.531 L 52.3401 116.538 L 52.7445 116.398 L 53.0741 116.389 L 52.3272 116.649 L 51.8391 116.337 L 51.4517 116.1 L 50.825 115.693 L 50.4831 115.49 L 49.7455 115.041 L 49.5115 114.914 L 49.1819 114.732 L 48.6463 114.393 L 48.0267 114.034 L 47.9456 113.966 L 48.6769 114.391" fill="none" stroke="#000080" stroke-width="0.05000" fill-rule="evenodd" fill-opacity="1.000"/>
    <path d="M 53.2977 116.047 L 53.3345 116.376 L 53.2881 116.377 L 53.2332 115.885 L 53.2977 116.047" fill="none" stroke="#000080" stroke-width="0.05000" fill-rule="evenodd" fill-opacity="1.000"/>
    <path d="M 46.5705 109.283 L 47.1315 109.962 L 47.2664 110.109 L 47.7017 110.66 L 48.0016 111.036 L 48.3465 111.368 L 48.6322 111.643 L 48.8947 111.913 L 48.9386 111.958 L 48.8743 111.913 L 48.7519 111.787 L 48.3297 111.381 L 47.82 110.89 L 47.6813 110.716 L 47.3209 110.26 L 47.152 110.046 L 47.0914 109.971 L 46.5119 109.273 L 46.4806 109.233 L 46.5705 109.283" fill="none" stroke="#000080" stroke-width="0.05000" fill-rule="evenodd" fill-opacity="1.000"/>
    </g>
    <g class="thermal-contour" data-segment="5" data-name="HollowShell2Contour_Volume">
    <path d="M 32.6545 121.922 L 32.8278 121.976 L 32.8666 122.023 L 32.9702 122.153 L 33.5009 122.777 L 33.7552 123.045 L 34.1053 123.585 L 34.4716 124.132 L 34.654 124.505 L 35.1011 125.346 L 35.1385 125.442 L 35.2118 125.631 L 35.2118 125.631 L 35.5034 126.395 L 35.5034 126.395 L 35.6246 126.741 L 35.7272 127.232 L 35.0231 127.703 L 34.3329 127.176 L 33.9339 126.722 L 33.7912 126.52 L 33.6281 126.305 L 33.1926 125.814 L 32.8652 125.491 L 32.4581 125.019 L 32.0508 124.656 L 31.6568 124.263 L 31.3073 123.978 L 31.0654 123.669 L 31.0727 123.33 L 30.8933 122.68 L 31.1531 122.068 L 31.2924 122.006 L 31.9964 121.679 L 32.6545 121.922" fill="none" stroke="#B8860B" stroke-width="0.05000" fill-rule="evenodd" fill-opacity="1.000"/>
    <path d="M 31.3339 122.097 L 31.2297 122.144 L 30.9989 122.687 L 31.173 123.318 L 31.1661 123.636 L 31.4961 124.056 L 31.7415 124.257 L 31.8927 124.408 L 32.5561 124.999 L 32.8229 125.309 L 33.2652 125.746 L 33.7055 126.241 L 33.8719 126.461 L 34.0122 126.66 L 34.4015 127.102 L 35.027 127.58 L 35.6155 127.187 L 35.5281 126.768 L 35.4089 126.428 L 35.1118 125.65 L 35.0454 125.478 L 35.0101 125.388 L 34.5649 124.55 L 34.3848 124.182 L 34.0218 123.64 L 33.6763 123.107 L 33.4265 122.844 L 32.893 122.216 L 32.7885 122.086 L 32.7885 122.086 L 32.7696 122.063 L 32.6223 122.017 L 32.0008 121.787 L 31.3339 122.097" fill="none" stroke="#B8860B" stroke-width="0.05000" fill-rule="evenodd" fill-opacity="1.000"/>
    <path d="M 45.8179 108.899 L 46.3516 109.275 L 46.5051 109.361 L 47.0561 110.028 L 47.19 110.173 L 47.6234 110.722 L 47.9275 111.103 L 48.2771 111.44 L 48.5618 111.714 L 48.9197 112.082 L 49.3495 112.384 L 49.9468 112.897 L 50.0488 112.963 L 50.2066 113.087 L 50.7895 113.539 L 51.2268 113.899 L 51.5721 114.12 L 52.3009 114.686 L 52.3398 114.717 L 52.4077 114.798 L 52.9314 115.398 L 53.1997 116.071 L 53.223 116.279 L 53.0769 116.282 L 52.7445 116.398 L 52.7089 116.399 L 52.3285 116.531 L 51.8921 116.252 L 51.5053 116.016 L 50.8778 115.608 L 50.5341 115.404 L 49.7953 114.954 L 49.5591 114.826 L 49.2325 114.646 L 48.6982 114.308 L 48.0843 113.952 L 47.8108 113.724 L 47.0627 113.221 L 46.9442 113.096 L 46.4951 112.752 L 46.1317 112.465 L 45.9799 112.346 L 45.4611 111.736 L 44.9185 111.174 L 44.8623 111.052 L 44.553 110.481 L 44.5531 110.481 L 44.3947 110.173 L 44.3684 110.125 L 44.3814 109.926 L 44.4206 109.303 L 45.0645 108.858 L 45.2939 108.713 L 45.8179 108.899" fill="none" stroke="#B8860B" stroke-width="0.05000" fill-rule="evenodd" fill-opacity="1.000"/>
    <path d="M 45.1205 108.941 L 44.5173 109.358 L 44.4812 109.932 L 44.4701 110.102 L 44.4829 110.125 L 44.6442 110.439 L 44.9518 111.007 L 45.0022 111.116 L 45.5352 111.669 L 46.0495 112.273 L 46.1935 112.386 L 46.5571 112.673 L 47.0114 113.021 L 47.1277 113.144 L 47.8708 113.644 L 48.1416 113.869 L 48.75 114.222 L 49.2831 114.56 L 49.6074 114.739 L 49.6073 114.739 L 49.8452 114.867 L 50.5851 115.318 L 50.9306 115.523 L 51.5589 115.932 L 51.9451 116.168 L 52.353 116.428 L 53.0587 116.183 L 53.1114 116.181 L 53.1017 116.095 L 52.8448 115.451 L 52.3318 114.863 L 52.2696 114.789 L 52.2396 114.765 L 51.5142 114.202 L 51.1679 113.98 L 50.7259 113.617 L 50.1451 113.165 L 49.9905 113.044 L 49.8868 112.977 L 49.288 112.463 L 48.8545 112.159 L 48.4914 111.785 L 48.2077 111.512 L 47.8534 111.171 L 47.5451 110.785 L 47.1135 110.238 L 46.9807 110.094 L 46.4397 109.439 L 46.2981 109.359 L 45.7714 108.989 L 45.3063 108.824 L 45.1205 108.941" fill="none" stroke="#B8860B" stroke-width="0.05000" fill-rule="evenodd" fill-opacity="1.000"/>
    </g>
    <g class="thermal-contour" data-segment="6" data-name="HollowShell2Contour_Overhang">
    <path d="M 31.6568 124.263 L 32.0508 124.656 L 32.4581 125.019 L 32.8652 125.491 L 32.7506 125.378 L 32.4847 125.07 L 31.8244 124.481 L 31.6744 124.331 L 31.4242 124.127 L 31.3073 123.978 L 31.6568 124.263" fill="none" stroke="#006400" stroke-width="0.05000" fill-rule="evenodd" fill-opacity="1.000"/>
    <path d="M 52.3401 116.538 L 52.3285 116.531 L 52.7089 116.399 L 52.7445 116.398 L 52.3401 116.538" fill="none" stroke="#006400" stroke-width="0.05000" fill-rule="evenodd" fill-opacity="1.000"/>
    </g>
    <g class="thermal-contour" data-segment="9" data-name="CoreContourHatch">
    <path d="M 32.6013 122.076 L 32.7331 122.117 L 32.8442 122.256 L 33.3797 122.886 L 33.6265 123.146 L 33.9691 123.674 L 34.33 124.213 L 34.509 124.579 L 34.5089 124.579 L 34.9528 125.415 L 34.9868 125.501 L 35.0547 125.677 L 35.0547 125.677 L 35.3502 126.451 L 35.4672 126.785 L 35.5451 127.158 L 35.0294 127.503 L 34.4447 127.056 L 34.0619 126.621 L 33.923 126.424 L 33.7542 126.201 L 33.3115 125.703 L 32.8691 125.266 L 32.6013 124.955 L 31.9358 124.362 L 31.7842 124.211 L 31.5415 124.012 L 31.2296 123.614 L 31.2362 123.31 L 31.0655 122.691 L 31.2779 122.191 L 31.3602 122.155 L 32.0035 121.855 L 32.6013 122.076" fill="none" stroke="#800080" stroke-width="0.05000" fill-rule="evenodd" fill-opacity="1.000"/>
    <path d="M 31.3712 122.179 L 31.2986 122.212 L 31.094 122.693 L 31.2633 123.307 L 31.2568 123.605 L 31.5609 123.993 L 31.8019 124.19 L 31.9543 124.342 L 32.6204 124.936 L 32.8888 125.247 L 33.3305 125.684 L 33.7751 126.184 L 33.9445 126.408 L 34.0831 126.604 L 34.4632 127.036 L 35.0304 127.469 L 35.5149 127.146 L 35.4411 126.792 L 35.3248 126.46 L 35.0277 125.682 L 35.0277 125.682 L 34.9616 125.511 L 34.9282 125.426 L 34.4847 124.591 L 34.3065 124.227 L 33.9467 123.689 L 33.6052 123.163 L 33.3595 122.904 L 32.8236 122.273 L 32.7172 122.141 L 32.5933 122.102 L 32.0047 121.884 L 31.3712 122.179" fill="none" stroke="#800080" stroke-width="0.05000" fill-rule="evenodd" fill-opacity="1.000"/>
    <path d="M 45.7421 109.045 L 46.2647 109.413 L 46.3985 109.488 L 46.9328 110.135 L 47.0658 110.279 L 47.4957 110.824 L 47.8068 111.213 L 48.1639 111.558 L 48.164 111.558 L 48.448 111.831 L 48.8135 112.207 L 49.2495 112.513 L 49.8488 113.027 L 49.953 113.095 L 50.1064 113.215 L 50.6866 113.666 L 51.1311 114.032 L 51.4776 114.253 L 52.2011 114.815 L 52.2255 114.835 L 52.2838 114.904 L 52.7903 115.484 L 53.0441 116.121 L 52.3612 116.358 L 51.9783 116.114 L 51.9783 116.114 L 51.5764 115.868 L 51.5765 115.868 L 50.9643 115.47 L 50.6236 115.268 L 50.6233 115.268 L 49.876 114.812 L 49.876 114.812 L 49.6512 114.691 L 49.3141 114.505 L 48.7832 114.169 L 48.1773 113.817 L 47.9082 113.593 L 47.1685 113.096 L 47.0538 112.974 L 46.5952 112.623 L 46.2324 112.337 L 46.093 112.227 L 45.5813 111.626 L 45.5813 111.626 L 45.0548 111.08 L 45.0081 110.979 L 44.7004 110.411 L 44.5385 110.096 L 44.5385 110.096 L 44.5342 110.088 L 44.5441 109.936 L 44.5782 109.393 L 45.1561 108.993 L 45.3141 108.893 L 45.7421 109.045" fill="none" stroke="#800080" stroke-width="0.05000" fill-rule="evenodd" fill-opacity="1.000"/>
    <path d="M 45.171 109.016 L 44.6043 109.407 L 44.571 109.938 L 44.5616 110.082 L 44.5623 110.083 L 44.7243 110.398 L 45.0323 110.967 L 45.0774 111.064 L 45.6019 111.608 L 46.1118 112.208 L 46.2491 112.315 L 46.6118 112.602 L 47.0719 112.954 L 47.1861 113.075 L 47.9248 113.572 L 48.1928 113.795 L 48.7967 114.145 L 49.3279 114.482 L 49.6641 114.667 L 49.8901 114.789 L 50.6309 115.241 L 50.631 115.241 L 50.9781 115.447 L 51.608 115.856 L 51.6079 115.856 L 51.9928 116.091 L 52.3647 116.329 L 53.0086 116.105 L 52.7669 115.498 L 52.2635 114.922 L 52.2066 114.854 L 52.1844 114.837 L 51.462 114.275 L 51.1149 114.053 L 50.6697 113.687 L 50.0898 113.237 L 49.9373 113.117 L 49.8328 113.049 L 49.2329 112.534 L 48.7959 112.228 L 48.429 111.85 L 48.1453 111.577 L 47.7867 111.231 L 47.4746 110.841 L 47.0452 110.297 L 46.9129 110.153 L 46.3809 109.509 L 46.25 109.436 L 45.7296 109.069 L 45.3174 108.923 L 45.171 109.016" fill="none" stroke="#800080" stroke-width="0.05000" fill-rule="evenodd" fill-opacity="1.000"/>
    </g>
    <!-- ===== Thermal Segment Colour Legend ===== -->
    <g id="thermal-legend">
    <rect x="161.0000" y="5.0000" width="40.0000" height="72.0000"
          rx="1" ry="1"
          fill="#fafafa" stroke="#cccccc" stroke-width="0.15"/>
    <text x="181.0000" y="7.6000" font-family="sans-serif" font-size="2.2000" font-weight="bold" fill="#222222" text-anchor="middle">Thermal Segments</text>
    <line x1="161.5000" y1="8.7000" x2="200.5000" y2="8.7000" stroke="#bbbbbb" stroke-width="0.1"/>
    <rect x="161.8000" y="9.0000" width="3.5000" height="2.0000" fill="#000000" stroke="#333333" stroke-width="0.08" rx="0.3" ry="0.3"/>
    <text x="168.6000" y="10.9000" font-family="monospace" font-size="1.6000" fill="#444444" text-anchor="end"> 1</text>
    <text x="169.6000" y="10.9000" font-family="sans-serif" font-size="1.6000" fill="#111111">CoreContour_Volume</text>
    <rect x="161.8000" y="12.0000" width="3.5000" height="2.0000" fill="#8B0000" stroke="#333333" stroke-width="0.08" rx="0.3" ry="0.3"/>
    <text x="168.6000" y="13.9000" font-family="monospace" font-size="1.6000" fill="#444444" text-anchor="end"> 2</text>
    <text x="169.6000" y="13.9000" font-family="sans-serif" font-size="1.6000" fill="#111111">CoreContour_Overhang</text>
    <rect x="161.8000" y="15.0000" width="3.5000" height="2.0000" fill="#0000CC" stroke="#333333" stroke-width="0.08" rx="0.3" ry="0.3"/>
    <text x="168.6000" y="16.9000" font-family="monospace" font-size="1.6000" fill="#444444" text-anchor="end"> 3</text>
    <text x="169.6000" y="16.9000" font-family="sans-serif" font-size="1.6000" fill="#111111">Shell1Contour_Volume</text>
    <rect x="161.8000" y="18.0000" width="3.5000" height="2.0000" fill="#000080" stroke="#333333" stroke-width="0.08" rx="0.3" ry="0.3"/>
    <text x="168.6000" y="19.9000" font-family="monospace" font-size="1.6000" fill="#444444" text-anchor="end"> 4</text>
    <text x="169.6000" y="19.9000" font-family="sans-serif" font-size="1.6000" fill="#111111">Shell1Contour_Overhang</text>
    <rect x="161.8000" y="21.0000" width="3.5000" height="2.0000" fill="#B8860B" stroke="#333333" stroke-width="0.08" rx="0.3" ry="0.3"/>
    <text x="168.6000" y="22.9000" font-family="monospace" font-size="1.6000" fill="#444444" text-anchor="end"> 5</text>
    <text x="169.6000" y="22.9000" font-family="sans-serif" font-size="1.6000" fill="#111111">Shell2Contour_Volume</text>
    <rect x="161.8000" y="24.0000" width="3.5000" height="2.0000" fill="#006400" stroke="#333333" stroke-width="0.08" rx="0.3" ry="0.3"/>
    <text x="168.6000" y="25.9000" font-family="monospace" font-size="1.6000" fill="#444444" text-anchor="end"> 6</text>
    <text x="169.6000" y="25.9000" font-family="sans-serif" font-size="1.6000" fill="#111111">Shell2Contour_Overhang</text>
    <rect x="161.8000" y="27.0000" width="3.5000" height="2.0000" fill="#FF8C00" stroke="#333333" stroke-width="0.08" rx="0.3" ry="0.3"/>
    <text x="168.6000" y="28.9000" font-family="monospace" font-size="1.6000" fill="#444444" text-anchor="end"> 7</text>
    <text x="169.6000" y="28.9000" font-family="sans-serif" font-size="1.6000" fill="#111111">CoreOverhangHatch</text>
    <rect x="161.8000" y="30.0000" width="3.5000" height="2.0000" fill="#228B22" stroke="#333333" stroke-width="0.08" rx="0.3" ry="0.3"/>
    <text x="168.6000" y="31.9000" font-family="monospace" font-size="1.6000" fill="#444444" text-anchor="end"> 8</text>
    <text x="169.6000" y="31.9000" font-family="sans-serif" font-size="1.6000" fill="#111111">CoreNormalHatch</text>
    <rect x="161.8000" y="33.0000" width="3.5000" height="2.0000" fill="#800080" stroke="#333333" stroke-width="0.08" rx="0.3" ry="0.3"/>
    <text x="168.6000" y="34.9000" font-family="monospace" font-size="1.6000" fill="#444444" text-anchor="end"> 9</text>
    <text x="169.6000" y="34.9000" font-family="sans-serif" font-size="1.6000" fill="#111111">CoreContourHatch</text>
    <rect x="161.8000" y="36.0000" width="3.5000" height="2.0000" fill="#FF69B4" stroke="#333333" stroke-width="0.08" rx="0.3" ry="0.3"/>
    <text x="168.6000" y="37.9000" font-family="monospace" font-size="1.6000" fill="#444444" text-anchor="end">10</text>
    <text x="169.6000" y="37.9000" font-family="sans-serif" font-size="1.6000" fill="#111111">Shell1OverhangHatch</text>
    <rect x="161.8000" y="39.0000" width="3.5000" height="2.0000" fill="#00CED1" stroke="#333333" stroke-width="0.08" rx="0.3" ry="0.3"/>
    <text x="168.6000" y="40.9000" font-family="monospace" font-size="1.6000" fill="#444444" text-anchor="end">11</text>
    <text x="169.6000" y="40.9000" font-family="sans-serif" font-size="1.6000" fill="#111111">Shell1NormalHatch</text>
    <rect x="161.8000" y="42.0000" width="3.5000" height="2.0000" fill="#FF00FF" stroke="#333333" stroke-width="0.08" rx="0.3" ry="0.3"/>
    <text x="168.6000" y="43.9000" font-family="monospace" font-size="1.6000" fill="#444444" text-anchor="end">12</text>
    <text x="169.6000" y="43.9000" font-family="sans-serif" font-size="1.6000" fill="#111111">Shell1ContourHatch</text>
    <rect x="161.8000" y="45.0000" width="3.5000" height="2.0000" fill="#A52A2A" stroke="#333333" stroke-width="0.08" rx="0.3" ry="0.3"/>
    <text x="168.6000" y="46.9000" font-family="monospace" font-size="1.6000" fill="#444444" text-anchor="end">13</text>
    <text x="169.6000" y="46.9000" font-family="sans-serif" font-size="1.6000" fill="#111111">Shell2OverhangHatch</text>
    <rect x="161.8000" y="48.0000" width="3.5000" height="2.0000" fill="#808080" stroke="#333333" stroke-width="0.08" rx="0.3" ry="0.3"/>
    <text x="168.6000" y="49.9000" font-family="monospace" font-size="1.6000" fill="#444444" text-anchor="end">14</text>
    <text x="169.6000" y="49.9000" font-family="sans-serif" font-size="1.6000" fill="#111111">Shell2NormalHatch</text>
    <rect x="161.8000" y="51.0000" width="3.5000" height="2.0000" fill="#32CD32" stroke="#333333" stroke-width="0.08" rx="0.3" ry="0.3"/>
    <text x="168.6000" y="52.9000" font-family="monospace" font-size="1.6000" fill="#444444" text-anchor="end">15</text>
    <text x="169.6000" y="52.9000" font-family="sans-serif" font-size="1.6000" fill="#111111">Shell2ContourHatch</text>
    <rect x="161.8000" y="54.0000" width="3.5000" height="2.0000" fill="#1A237E" stroke="#333333" stroke-width="0.08" rx="0.3" ry="0.3"/>
    <text x="168.6000" y="55.9000" font-family="monospace" font-size="1.6000" fill="#444444" text-anchor="end">16</text>
    <text x="169.6000" y="55.9000" font-family="sans-serif" font-size="1.6000" fill="#111111">SupportContourVolume</text>
    <rect x="161.8000" y="57.0000" width="3.5000" height="2.0000" fill="#827717" stroke="#333333" stroke-width="0.08" rx="0.3" ry="0.3"/>
    <text x="168.6000" y="58.9000" font-family="monospace" font-size="1.6000" fill="#444444" text-anchor="end">17</text>
    <text x="169.6000" y="58.9000" font-family="sans-serif" font-size="1.6000" fill="#111111">SupportHatch</text>
    <rect x="161.8000" y="60.0000" width="3.5000" height="2.0000" fill="#006064" stroke="#333333" stroke-width="0.08" rx="0.3" ry="0.3"/>
    <text x="168.6000" y="61.9000" font-family="monospace" font-size="1.6000" fill="#444444" text-anchor="end">18</text>
    <text x="169.6000" y="61.9000" font-family="sans-serif" font-size="1.6000" fill="#111111">PointSequence</text>
    <rect x="161.8000" y="63.0000" width="3.5000" height="2.0000" fill="#B71C1C" stroke="#333333" stroke-width="0.08" rx="0.3" ry="0.3"/>
    <text x="168.6000" y="64.9000" font-family="monospace" font-size="1.6000" fill="#444444" text-anchor="end">19</text>
    <text x="169.6000" y="64.9000" font-family="sans-serif" font-size="1.6000" fill="#111111">ExternalSupports</text>
    <rect x="161.8000" y="66.0000" width="3.5000" height="2.0000" fill="#E64A19" stroke="#333333" stroke-width="0.08" rx="0.3" ry="0.3"/>
    <text x="168.6000" y="67.9000" font-family="monospace" font-size="1.6000" fill="#444444" text-anchor="end">20</text>
    <text x="169.6000" y="67.9000" font-family="sans-serif" font-size="1.6000" fill="#111111">CoreContourHatchOverhang</text>
    <rect x="161.8000" y="69.0000" width="3.5000" height="2.0000" fill="#311B92" stroke="#333333" stroke-width="0.08" rx="0.3" ry="0.3"/>
    <text x="168.6000" y="70.9000" font-family="monospace" font-size="1.6000" fill="#444444" text-anchor="end">21</text>
    <text x="169.6000" y="70.9000" font-family="sans-serif" font-size="1.6000" fill="#111111">Shell1ContourHatchOverhang</text>
    <rect x="161.8000" y="72.0000" width="3.5000" height="2.0000" fill="#880E4F" stroke="#333333" stroke-width="0.08" rx="0.3" ry="0.3"/>
    <text x="168.6000" y="73.9000" font-family="monospace" font-size="1.6000" fill="#444444" text-anchor="end">22</text>
    <text x="169.6000" y="73.9000" font-family="sans-serif" font-size="1.6000" fill="#111111">Shell2ContourHatchOverhang</text>
    </g>
  </g>
</svg>
