<?xml version="1.0" encoding="UTF-8" standalone="yes"?>
<svg xmlns="http://www.w3.org/2000/svg"
     xmlns:xlink="http://www.w3.org/1999/xlink"
     width="2020.0000mm" height="1600.0000mm"
     viewBox="0 0 202.000000 160.000000">
  <!--
    Build plate : 150.00 x 150.00 mm
    Coordinate  : 1 SVG unit = 1 mm
    Display zoom: 10x  (width/height = viewBox x 10)
    Hatch stroke: 0.04 mm = ~28 mm on screen at this zoom
    Legend panel: right margin (42 mm wide)
  -->
  <defs>
    <marker id="endArrow" markerWidth="2" markerHeight="1.4"
            refX="0" refY="0.7" orient="auto"
            markerUnits="strokeWidth">
      <polyline fill="darkblue" points="0,0 2,0.7 0,1.4 0.2,0.7"/>
    </marker>
  </defs>
  <!-- Background -->
  <rect x="0" y="0" width="202.000000" height="160.000000" fill="#f0f0f0" stroke="none"/>
  <!-- Build plate boundary (150 x 150 mm) -->
  <rect x="5.000000" y="5.000000" width="150.000000" height="150.000000"
        fill="#ffffff" stroke="#aaaaaa" stroke-width="0.2" stroke-dasharray="1,0.5"/>
  <!-- Build plate centre circle (r = 75.00 mm) -->
  <circle cx="80.000000" cy="80.000000" r="75.000000"
          fill="none" stroke="#bbbbbb" stroke-width="0.15" stroke-dasharray="0.8,0.4"/>
  <!-- Centre cross-hair -->
  <line x1="5.000000" y1="80.000000" x2="155.000000" y2="80.000000" stroke="#cccccc" stroke-width="0.1"/>
  <line x1="80.000000" y1="5.000000" x2="80.000000" y2="155.000000" stroke="#cccccc" stroke-width="0.1"/>
  <circle cx="80.000000" cy="80.000000" r="0.3" fill="#cccccc" stroke="none"/>
  <!-- Corner labels -->
  <text x="5.400000" y="4.600000" font-family="sans-serif" font-size="2" fill="#888888">0,0</text>
  <text x="154.600006" y="4.600000" font-family="sans-serif" font-size="2" fill="#888888" text-anchor="end">150,0</text>
  <text x="5.400000" y="157.199997" font-family="sans-serif" font-size="2" fill="#888888">0,150</text>
  <!-- Layer geometry -->
  <g id="geometry">
    <g class="thermal-hatch" data-segment="8" data-name="CoreNormalHatch">
      <line x1="84.01735" y1="71.81359" x2="75.99625" y2="96.50000" stroke="#228B22" stroke-width="0.04000"/>
      <line x1="84.01735" y1="72.13721" x2="76.10139" y2="96.50000" stroke="#228B22" stroke-width="0.04000"/>
      <line x1="84.01735" y1="72.46079" x2="76.20654" y2="96.50000" stroke="#228B22" stroke-width="0.04000"/>
      <line x1="84.01735" y1="72.78441" x2="76.31168" y2="96.50000" stroke="#228B22" stroke-width="0.04000"/>
      <line x1="84.01735" y1="73.10802" x2="76.41683" y2="96.50000" stroke="#228B22" stroke-width="0.04000"/>
      <line x1="84.01735" y1="73.43161" x2="76.52197" y2="96.50000" stroke="#228B22" stroke-width="0.04000"/>
      <line x1="84.01735" y1="73.75523" x2="76.62713" y2="96.50000" stroke="#228B22" stroke-width="0.04000"/>
      <line x1="84.01735" y1="74.07884" x2="76.73227" y2="96.50000" stroke="#228B22" stroke-width="0.04000"/>
      <line x1="84.01735" y1="74.40243" x2="76.83741" y2="96.50000" stroke="#228B22" stroke-width="0.04000"/>
      <line x1="84.01735" y1="74.72604" x2="76.94257" y2="96.50000" stroke="#228B22" stroke-width="0.04000"/>
      <line x1="84.01735" y1="75.04966" x2="77.04771" y2="96.50000" stroke="#228B22" stroke-width="0.04000"/>
      <line x1="84.01735" y1="75.37328" x2="77.15286" y2="96.50000" stroke="#228B22" stroke-width="0.04000"/>
      <line x1="84.01735" y1="75.69686" x2="77.25800" y2="96.50000" stroke="#228B22" stroke-width="0.04000"/>
      <line x1="84.01735" y1="76.02048" x2="77.36315" y2="96.50000" stroke="#228B22" stroke-width="0.04000"/>
      <line x1="84.01735" y1="76.34409" x2="77.46830" y2="96.50000" stroke="#228B22" stroke-width="0.04000"/>
      <line x1="84.01735" y1="76.66769" x2="77.57344" y2="96.50000" stroke="#228B22" stroke-width="0.04000"/>
      <line x1="84.01735" y1="76.99129" x2="77.67859" y2="96.50000" stroke="#228B22" stroke-width="0.04000"/>
      <line x1="84.01735" y1="77.31491" x2="77.78374" y2="96.50000" stroke="#228B22" stroke-width="0.04000"/>
      <line x1="84.01735" y1="77.63850" x2="77.88888" y2="96.50000" stroke="#228B22" stroke-width="0.04000"/>
      <line x1="84.01735" y1="77.96211" x2="77.99403" y2="96.50000" stroke="#228B22" stroke-width="0.04000"/>
      <line x1="84.01735" y1="78.28573" x2="78.09917" y2="96.50000" stroke="#228B22" stroke-width="0.04000"/>
      <line x1="84.01735" y1="78.60932" x2="78.20432" y2="96.50000" stroke="#228B22" stroke-width="0.04000"/>
      <line x1="84.01735" y1="78.93294" x2="78.30946" y2="96.50000" stroke="#228B22" stroke-width="0.04000"/>
      <line x1="84.01735" y1="79.25655" x2="78.41461" y2="96.50000" stroke="#228B22" stroke-width="0.04000"/>
      <line x1="84.01735" y1="79.58014" x2="78.51975" y2="96.50000" stroke="#228B22" stroke-width="0.04000"/>
      <line x1="84.01735" y1="79.90376" x2="78.62490" y2="96.50000" stroke="#228B22" stroke-width="0.04000"/>
      <line x1="84.01735" y1="80.22737" x2="78.73005" y2="96.50000" stroke="#228B22" stroke-width="0.04000"/>
      <line x1="84.01735" y1="80.55098" x2="78.83520" y2="96.50000" stroke="#228B22" stroke-width="0.04000"/>
      <line x1="84.01735" y1="80.87457" x2="78.94034" y2="96.50000" stroke="#228B22" stroke-width="0.04000"/>
      <line x1="84.01735" y1="81.19819" x2="79.04549" y2="96.50000" stroke="#228B22" stroke-width="0.04000"/>
      <line x1="84.01735" y1="81.52180" x2="79.15063" y2="96.50000" stroke="#228B22" stroke-width="0.04000"/>
      <line x1="84.01735" y1="81.84539" x2="79.25578" y2="96.50000" stroke="#228B22" stroke-width="0.04000"/>
      <line x1="84.01735" y1="82.16901" x2="79.36093" y2="96.50000" stroke="#228B22" stroke-width="0.04000"/>
      <line x1="84.01735" y1="82.49262" x2="79.46608" y2="96.50000" stroke="#228B22" stroke-width="0.04000"/>
      <line x1="84.01735" y1="82.81621" x2="79.57121" y2="96.50000" stroke="#228B22" stroke-width="0.04000"/>
      <line x1="84.01735" y1="83.13982" x2="79.67637" y2="96.50000" stroke="#228B22" stroke-width="0.04000"/>
      <line x1="84.01735" y1="83.46344" x2="79.78151" y2="96.50000" stroke="#228B22" stroke-width="0.04000"/>
      <line x1="84.01735" y1="83.78703" x2="79.88666" y2="96.50000" stroke="#228B22" stroke-width="0.04000"/>
      <line x1="84.01735" y1="84.11064" x2="79.99181" y2="96.50000" stroke="#228B22" stroke-width="0.04000"/>
      <line x1="84.01735" y1="84.43426" x2="80.09695" y2="96.50000" stroke="#228B22" stroke-width="0.04000"/>
      <line x1="84.01735" y1="84.75785" x2="80.20210" y2="96.50000" stroke="#228B22" stroke-width="0.04000"/>
      <line x1="84.01735" y1="85.08147" x2="80.30724" y2="96.50000" stroke="#228B22" stroke-width="0.04000"/>
      <line x1="84.01735" y1="85.40508" x2="80.41239" y2="96.50000" stroke="#228B22" stroke-width="0.04000"/>
      <line x1="84.01735" y1="85.72869" x2="80.51754" y2="96.50000" stroke="#228B22" stroke-width="0.04000"/>
      <line x1="84.01735" y1="86.05228" x2="80.62268" y2="96.50000" stroke="#228B22" stroke-width="0.04000"/>
      <line x1="84.01735" y1="86.37589" x2="80.72783" y2="96.50000" stroke="#228B22" stroke-width="0.04000"/>
      <line x1="84.01735" y1="86.69951" x2="80.83298" y2="96.50000" stroke="#228B22" stroke-width="0.04000"/>
      <line x1="84.01735" y1="87.02310" x2="80.93812" y2="96.50000" stroke="#228B22" stroke-width="0.04000"/>
      <line x1="84.01735" y1="87.34671" x2="81.04327" y2="96.50000" stroke="#228B22" stroke-width="0.04000"/>
      <line x1="84.01735" y1="87.67033" x2="81.14841" y2="96.50000" stroke="#228B22" stroke-width="0.04000"/>
      <line x1="84.01735" y1="87.99392" x2="81.25356" y2="96.50000" stroke="#228B22" stroke-width="0.04000"/>
      <line x1="84.01735" y1="88.31754" x2="81.35870" y2="96.50000" stroke="#228B22" stroke-width="0.04000"/>
      <line x1="84.01735" y1="88.64115" x2="81.46385" y2="96.50000" stroke="#228B22" stroke-width="0.04000"/>
      <line x1="84.01735" y1="88.96474" x2="81.56899" y2="96.50000" stroke="#228B22" stroke-width="0.04000"/>
      <line x1="84.01735" y1="89.28835" x2="81.67414" y2="96.50000" stroke="#228B22" stroke-width="0.04000"/>
      <line x1="84.01735" y1="89.61197" x2="81.77929" y2="96.50000" stroke="#228B22" stroke-width="0.04000"/>
      <line x1="84.01735" y1="89.93555" x2="81.88443" y2="96.50000" stroke="#228B22" stroke-width="0.04000"/>
      <line x1="84.01735" y1="90.25917" x2="81.98958" y2="96.50000" stroke="#228B22" stroke-width="0.04000"/>
      <line x1="84.01735" y1="90.58279" x2="82.09473" y2="96.50000" stroke="#228B22" stroke-width="0.04000"/>
      <line x1="84.01735" y1="90.90639" x2="82.19987" y2="96.50000" stroke="#228B22" stroke-width="0.04000"/>
      <line x1="84.01735" y1="91.22999" x2="82.30502" y2="96.50000" stroke="#228B22" stroke-width="0.04000"/>
      <line x1="84.01735" y1="91.55360" x2="82.41017" y2="96.50000" stroke="#228B22" stroke-width="0.04000"/>
      <line x1="84.01735" y1="91.87722" x2="82.51531" y2="96.50000" stroke="#228B22" stroke-width="0.04000"/>
      <line x1="84.01735" y1="92.20081" x2="82.62045" y2="96.50000" stroke="#228B22" stroke-width="0.04000"/>
      <line x1="84.01735" y1="92.52442" x2="82.72561" y2="96.50000" stroke="#228B22" stroke-width="0.04000"/>
      <line x1="84.01735" y1="92.84804" x2="82.83076" y2="96.50000" stroke="#228B22" stroke-width="0.04000"/>
      <line x1="84.01735" y1="93.17163" x2="82.93590" y2="96.50000" stroke="#228B22" stroke-width="0.04000"/>
      <line x1="84.01735" y1="93.49524" x2="83.04105" y2="96.50000" stroke="#228B22" stroke-width="0.04000"/>
      <line x1="84.01735" y1="93.81886" x2="83.14619" y2="96.50000" stroke="#228B22" stroke-width="0.04000"/>
      <line x1="84.01735" y1="94.14245" x2="83.25134" y2="96.50000" stroke="#228B22" stroke-width="0.04000"/>
      <line x1="84.01735" y1="94.46606" x2="83.35648" y2="96.50000" stroke="#228B22" stroke-width="0.04000"/>
      <line x1="84.01735" y1="94.78967" x2="83.46163" y2="96.50000" stroke="#228B22" stroke-width="0.04000"/>
      <line x1="84.01735" y1="95.11328" x2="83.56678" y2="96.50000" stroke="#228B22" stroke-width="0.04000"/>
      <line x1="84.01735" y1="95.43688" x2="83.67192" y2="96.50000" stroke="#228B22" stroke-width="0.04000"/>
      <line x1="84.01735" y1="95.76049" x2="83.77707" y2="96.50000" stroke="#228B22" stroke-width="0.04000"/>
      <line x1="84.01735" y1="96.08411" x2="83.88222" y2="96.50000" stroke="#228B22" stroke-width="0.04000"/>
      <line x1="84.01735" y1="96.40770" x2="83.98736" y2="96.50000" stroke="#228B22" stroke-width="0.04000"/>
      <line x1="84.01735" y1="71.48997" x2="75.98266" y2="96.21821" stroke="#228B22" stroke-width="0.04000"/>
      <line x1="84.01735" y1="71.16638" x2="75.98266" y2="95.89462" stroke="#228B22" stroke-width="0.04000"/>
      <line x1="84.01735" y1="70.84277" x2="75.98266" y2="95.57101" stroke="#228B22" stroke-width="0.04000"/>
      <line x1="84.01735" y1="70.51916" x2="75.98266" y2="95.24739" stroke="#228B22" stroke-width="0.04000"/>
      <line x1="84.01735" y1="70.19556" x2="75.98266" y2="94.92381" stroke="#228B22" stroke-width="0.04000"/>
      <line x1="84.01735" y1="69.87195" x2="75.98266" y2="94.60018" stroke="#228B22" stroke-width="0.04000"/>
      <line x1="84.01735" y1="69.54834" x2="75.98266" y2="94.27657" stroke="#228B22" stroke-width="0.04000"/>
      <line x1="84.01735" y1="69.22472" x2="75.98266" y2="93.95296" stroke="#228B22" stroke-width="0.04000"/>
      <line x1="84.01735" y1="68.90113" x2="75.98266" y2="93.62936" stroke="#228B22" stroke-width="0.04000"/>
      <line x1="84.01735" y1="68.57751" x2="75.98266" y2="93.30576" stroke="#228B22" stroke-width="0.04000"/>
      <line x1="84.01735" y1="68.25391" x2="75.98266" y2="92.98214" stroke="#228B22" stroke-width="0.04000"/>
      <line x1="84.01735" y1="67.93031" x2="75.98266" y2="92.65855" stroke="#228B22" stroke-width="0.04000"/>
      <line x1="84.01735" y1="67.60670" x2="75.98266" y2="92.33494" stroke="#228B22" stroke-width="0.04000"/>
      <line x1="84.01735" y1="67.28309" x2="75.98266" y2="92.01133" stroke="#228B22" stroke-width="0.04000"/>
      <line x1="84.01735" y1="66.95949" x2="75.98266" y2="91.68772" stroke="#228B22" stroke-width="0.04000"/>
      <line x1="84.01735" y1="66.63588" x2="75.98266" y2="91.36412" stroke="#228B22" stroke-width="0.04000"/>
      <line x1="84.01735" y1="66.31227" x2="75.98266" y2="91.04051" stroke="#228B22" stroke-width="0.04000"/>
      <line x1="84.01735" y1="65.98867" x2="75.98266" y2="90.71690" stroke="#228B22" stroke-width="0.04000"/>
      <line x1="84.01735" y1="65.66506" x2="75.98266" y2="90.39330" stroke="#228B22" stroke-width="0.04000"/>
      <line x1="84.01735" y1="65.34145" x2="75.98266" y2="90.06969" stroke="#228B22" stroke-width="0.04000"/>
      <line x1="84.01735" y1="65.01785" x2="75.98266" y2="89.74609" stroke="#228B22" stroke-width="0.04000"/>
      <line x1="84.01735" y1="64.69424" x2="75.98266" y2="89.42248" stroke="#228B22" stroke-width="0.04000"/>
      <line x1="84.01735" y1="64.37063" x2="75.98266" y2="89.09887" stroke="#228B22" stroke-width="0.04000"/>
      <line x1="84.01735" y1="64.04701" x2="75.98266" y2="88.77525" stroke="#228B22" stroke-width="0.04000"/>
      <line x1="84.01735" y1="63.72343" x2="75.98266" y2="88.45166" stroke="#228B22" stroke-width="0.04000"/>
      <line x1="84.01735" y1="63.39981" x2="75.98266" y2="88.12805" stroke="#228B22" stroke-width="0.04000"/>
      <line x1="84.01735" y1="63.07620" x2="75.98266" y2="87.80444" stroke="#228B22" stroke-width="0.04000"/>
      <line x1="84.01735" y1="62.75260" x2="75.98266" y2="87.48083" stroke="#228B22" stroke-width="0.04000"/>
      <line x1="84.01735" y1="62.42899" x2="75.98266" y2="87.15723" stroke="#228B22" stroke-width="0.04000"/>
      <line x1="84.01735" y1="62.10538" x2="75.98266" y2="86.83362" stroke="#228B22" stroke-width="0.04000"/>
      <line x1="84.01735" y1="61.78178" x2="75.98266" y2="86.51002" stroke="#228B22" stroke-width="0.04000"/>
      <line x1="84.00376" y1="61.50000" x2="75.98266" y2="86.18641" stroke="#228B22" stroke-width="0.04000"/>
      <line x1="83.89861" y1="61.50000" x2="75.98266" y2="85.86280" stroke="#228B22" stroke-width="0.04000"/>
      <line x1="83.79346" y1="61.50000" x2="75.98266" y2="85.53919" stroke="#228B22" stroke-width="0.04000"/>
      <line x1="83.68832" y1="61.50000" x2="75.98266" y2="85.21559" stroke="#228B22" stroke-width="0.04000"/>
      <line x1="83.58317" y1="61.50000" x2="75.98266" y2="84.89198" stroke="#228B22" stroke-width="0.04000"/>
      <line x1="83.47803" y1="61.50000" x2="75.98266" y2="84.56837" stroke="#228B22" stroke-width="0.04000"/>
      <line x1="83.37288" y1="61.50000" x2="75.98266" y2="84.24477" stroke="#228B22" stroke-width="0.04000"/>
      <line x1="83.26773" y1="61.50000" x2="75.98266" y2="83.92116" stroke="#228B22" stroke-width="0.04000"/>
      <line x1="83.16258" y1="61.50000" x2="75.98266" y2="83.59755" stroke="#228B22" stroke-width="0.04000"/>
      <line x1="83.05744" y1="61.50000" x2="75.98266" y2="83.27395" stroke="#228B22" stroke-width="0.04000"/>
      <line x1="82.95229" y1="61.50000" x2="75.98266" y2="82.95034" stroke="#228B22" stroke-width="0.04000"/>
      <line x1="82.84715" y1="61.50000" x2="75.98266" y2="82.62673" stroke="#228B22" stroke-width="0.04000"/>
      <line x1="82.74200" y1="61.50000" x2="75.98266" y2="82.30312" stroke="#228B22" stroke-width="0.04000"/>
      <line x1="82.63686" y1="61.50000" x2="75.98266" y2="81.97952" stroke="#228B22" stroke-width="0.04000"/>
      <line x1="82.53171" y1="61.50000" x2="75.98266" y2="81.65591" stroke="#228B22" stroke-width="0.04000"/>
      <line x1="82.42657" y1="61.50000" x2="75.98266" y2="81.33231" stroke="#228B22" stroke-width="0.04000"/>
      <line x1="82.32142" y1="61.50000" x2="75.98266" y2="81.00870" stroke="#228B22" stroke-width="0.04000"/>
      <line x1="82.21627" y1="61.50000" x2="75.98266" y2="80.68510" stroke="#228B22" stroke-width="0.04000"/>
      <line x1="82.11113" y1="61.50000" x2="75.98266" y2="80.36149" stroke="#228B22" stroke-width="0.04000"/>
      <line x1="82.00598" y1="61.50000" x2="75.98266" y2="80.03788" stroke="#228B22" stroke-width="0.04000"/>
      <line x1="81.90083" y1="61.50000" x2="75.98266" y2="79.71427" stroke="#228B22" stroke-width="0.04000"/>
      <line x1="81.79568" y1="61.50000" x2="75.98266" y2="79.39066" stroke="#228B22" stroke-width="0.04000"/>
      <line x1="81.69054" y1="61.50000" x2="75.98266" y2="79.06706" stroke="#228B22" stroke-width="0.04000"/>
      <line x1="81.58540" y1="61.50000" x2="75.98266" y2="78.74345" stroke="#228B22" stroke-width="0.04000"/>
      <line x1="81.48025" y1="61.50000" x2="75.98266" y2="78.41984" stroke="#228B22" stroke-width="0.04000"/>
      <line x1="81.37511" y1="61.50000" x2="75.98266" y2="78.09624" stroke="#228B22" stroke-width="0.04000"/>
      <line x1="81.26996" y1="61.50000" x2="75.98266" y2="77.77263" stroke="#228B22" stroke-width="0.04000"/>
      <line x1="81.16481" y1="61.50000" x2="75.98266" y2="77.44902" stroke="#228B22" stroke-width="0.04000"/>
      <line x1="81.05966" y1="61.50000" x2="75.98266" y2="77.12542" stroke="#228B22" stroke-width="0.04000"/>
      <line x1="80.95451" y1="61.50000" x2="75.98266" y2="76.80181" stroke="#228B22" stroke-width="0.04000"/>
      <line x1="80.84937" y1="61.50000" x2="75.98266" y2="76.47820" stroke="#228B22" stroke-width="0.04000"/>
      <line x1="80.74422" y1="61.50000" x2="75.98266" y2="76.15460" stroke="#228B22" stroke-width="0.04000"/>
      <line x1="80.63908" y1="61.50000" x2="75.98266" y2="75.83099" stroke="#228B22" stroke-width="0.04000"/>
      <line x1="80.53394" y1="61.50000" x2="75.98266" y2="75.50739" stroke="#228B22" stroke-width="0.04000"/>
      <line x1="80.42879" y1="61.50000" x2="75.98266" y2="75.18378" stroke="#228B22" stroke-width="0.04000"/>
      <line x1="80.32364" y1="61.50000" x2="75.98266" y2="74.86018" stroke="#228B22" stroke-width="0.04000"/>
      <line x1="80.21849" y1="61.50000" x2="75.98266" y2="74.53656" stroke="#228B22" stroke-width="0.04000"/>
      <line x1="80.11334" y1="61.50000" x2="75.98266" y2="74.21295" stroke="#228B22" stroke-width="0.04000"/>
      <line x1="80.00820" y1="61.50000" x2="75.98266" y2="73.88935" stroke="#228B22" stroke-width="0.04000"/>
      <line x1="79.90305" y1="61.50000" x2="75.98266" y2="73.56574" stroke="#228B22" stroke-width="0.04000"/>
      <line x1="79.79790" y1="61.50000" x2="75.98266" y2="73.24213" stroke="#228B22" stroke-width="0.04000"/>
      <line x1="79.69276" y1="61.50000" x2="75.98266" y2="72.91853" stroke="#228B22" stroke-width="0.04000"/>
      <line x1="79.58762" y1="61.50000" x2="75.98266" y2="72.59492" stroke="#228B22" stroke-width="0.04000"/>
      <line x1="79.48247" y1="61.50000" x2="75.98266" y2="72.27132" stroke="#228B22" stroke-width="0.04000"/>
      <line x1="79.37733" y1="61.50000" x2="75.98266" y2="71.94771" stroke="#228B22" stroke-width="0.04000"/>
      <line x1="79.27218" y1="61.50000" x2="75.98266" y2="71.62410" stroke="#228B22" stroke-width="0.04000"/>
      <line x1="79.16703" y1="61.50000" x2="75.98266" y2="71.30049" stroke="#228B22" stroke-width="0.04000"/>
      <line x1="79.06189" y1="61.50000" x2="75.98266" y2="70.97689" stroke="#228B22" stroke-width="0.04000"/>
      <line x1="78.95674" y1="61.50000" x2="75.98266" y2="70.65328" stroke="#228B22" stroke-width="0.04000"/>
      <line x1="78.85159" y1="61.50000" x2="75.98266" y2="70.32967" stroke="#228B22" stroke-width="0.04000"/>
      <line x1="78.74645" y1="61.50000" x2="75.98266" y2="70.00607" stroke="#228B22" stroke-width="0.04000"/>
      <line x1="78.64130" y1="61.50000" x2="75.98266" y2="69.68246" stroke="#228B22" stroke-width="0.04000"/>
      <line x1="78.53616" y1="61.50000" x2="75.98266" y2="69.35885" stroke="#228B22" stroke-width="0.04000"/>
      <line x1="78.43101" y1="61.50000" x2="75.98266" y2="69.03524" stroke="#228B22" stroke-width="0.04000"/>
      <line x1="78.32587" y1="61.50000" x2="75.98266" y2="68.71164" stroke="#228B22" stroke-width="0.04000"/>
      <line x1="78.22072" y1="61.50000" x2="75.98266" y2="68.38803" stroke="#228B22" stroke-width="0.04000"/>
      <line x1="78.11557" y1="61.50000" x2="75.98266" y2="68.06442" stroke="#228B22" stroke-width="0.04000"/>
      <line x1="78.01042" y1="61.50000" x2="75.98266" y2="67.74082" stroke="#228B22" stroke-width="0.04000"/>
      <line x1="77.90527" y1="61.50000" x2="75.98266" y2="67.41721" stroke="#228B22" stroke-width="0.04000"/>
      <line x1="77.80013" y1="61.50000" x2="75.98266" y2="67.09360" stroke="#228B22" stroke-width="0.04000"/>
      <line x1="77.69498" y1="61.50000" x2="75.98266" y2="66.77000" stroke="#228B22" stroke-width="0.04000"/>
      <line x1="77.58984" y1="61.50000" x2="75.98266" y2="66.44640" stroke="#228B22" stroke-width="0.04000"/>
      <line x1="77.48470" y1="61.50000" x2="75.98266" y2="66.12279" stroke="#228B22" stroke-width="0.04000"/>
      <line x1="77.37955" y1="61.50000" x2="75.98266" y2="65.79918" stroke="#228B22" stroke-width="0.04000"/>
      <line x1="77.27440" y1="61.50000" x2="75.98266" y2="65.47557" stroke="#228B22" stroke-width="0.04000"/>
      <line x1="77.16925" y1="61.50000" x2="75.98266" y2="65.15196" stroke="#228B22" stroke-width="0.04000"/>
      <line x1="77.06411" y1="61.50000" x2="75.98266" y2="64.82837" stroke="#228B22" stroke-width="0.04000"/>
      <line x1="76.95896" y1="61.50000" x2="75.98266" y2="64.50475" stroke="#228B22" stroke-width="0.04000"/>
      <line x1="76.85381" y1="61.50000" x2="75.98266" y2="64.18114" stroke="#228B22" stroke-width="0.04000"/>
      <line x1="76.74866" y1="61.50000" x2="75.98266" y2="63.85753" stroke="#228B22" stroke-width="0.04000"/>
      <line x1="76.64352" y1="61.50000" x2="75.98266" y2="63.53394" stroke="#228B22" stroke-width="0.04000"/>
      <line x1="76.53838" y1="61.50000" x2="75.98266" y2="63.21032" stroke="#228B22" stroke-width="0.04000"/>
      <line x1="76.43323" y1="61.50000" x2="75.98266" y2="62.88671" stroke="#228B22" stroke-width="0.04000"/>
      <line x1="76.32809" y1="61.50000" x2="75.98266" y2="62.56311" stroke="#228B22" stroke-width="0.04000"/>
      <line x1="76.22294" y1="61.50000" x2="75.98266" y2="62.23950" stroke="#228B22" stroke-width="0.04000"/>
      <line x1="76.11779" y1="61.50000" x2="75.98266" y2="61.91589" stroke="#228B22" stroke-width="0.04000"/>
      <line x1="76.01265" y1="61.50000" x2="75.98266" y2="61.59229" stroke="#228B22" stroke-width="0.04000"/>
    </g>
    <g class="thermal-hatch" data-segment="8" data-name="CoreNormalHatch">
      <line x1="83.72730" y1="96.21000" x2="76.27270" y2="96.21000" stroke="#228B22" stroke-width="0.04000"/>
      <line x1="76.27270" y1="96.21000" x2="76.27270" y2="61.79000" stroke="#228B22" stroke-width="0.04000"/>
      <line x1="76.27270" y1="61.79000" x2="83.72730" y2="61.79000" stroke="#228B22" stroke-width="0.04000"/>
      <line x1="83.72730" y1="61.79000" x2="83.72730" y2="96.21000" stroke="#228B22" stroke-width="0.04000"/>
    </g>
    <g class="thermal-contour" data-segment="1" data-name="CoreContour_Volume">
    <path d="M 84.0173 96.5 L 75.9827 96.5 L 75.9827 61.5 L 84.0173 61.5 L 84.0173 96.5" fill="none" stroke="#000000" stroke-width="0.05000" fill-rule="evenodd" fill-opacity="1.000"/>
    </g>
    <g class="thermal-contour" data-segment="1" data-name="CoreContour_Volume">
    <path d="M 83.8173 96.3 L 76.1827 96.3 L 76.1827 61.7 L 83.8173 61.7 L 83.8173 96.3" fill="none" stroke="#000000" stroke-width="0.05000" fill-rule="evenodd" fill-opacity="1.000"/>
    <path d="M 76.2727 96.21 L 83.7273 96.21 L 83.7273 61.79 L 76.2727 61.79 L 76.2727 96.21" fill="none" stroke="#000000" stroke-width="0.05000" fill-rule="evenodd" fill-opacity="1.000"/>
    </g>
    <g class="thermal-contour" data-segment="9" data-name="CoreContourHatch">
    <path d="M 83.7543 96.237 L 76.2457 96.237 L 76.2457 61.763 L 83.7543 61.763 L 83.7543 96.237" fill="none" stroke="#800080" stroke-width="0.05000" fill-rule="evenodd" fill-opacity="1.000"/>
    <path d="M 76.2727 96.21 L 83.7273 96.21 L 83.7273 61.79 L 76.2727 61.79 L 76.2727 96.21" fill="none" stroke="#800080" stroke-width="0.05000" fill-rule="evenodd" fill-opacity="1.000"/>
    </g>
    <g class="thermal-contour" data-segment="3" data-name="HollowShell1Contour_Volume">
    <path d="M 84.0173 96.5 L 75.9827 96.5 L 75.9827 61.5 L 84.0173 61.5 L 84.0173 96.5" fill="none" stroke="#0000CC" stroke-width="0.05000" fill-rule="evenodd" fill-opacity="1.000"/>
    <path d="M 76.0827 96.4 L 83.9173 96.4 L 83.9173 61.6 L 76.0827 61.6 L 76.0827 96.4" fill="none" stroke="#0000CC" stroke-width="0.05000" fill-rule="evenodd" fill-opacity="1.000"/>
    </g>
    <g class="thermal-contour" data-segment="5" data-name="HollowShell2Contour_Volume">
    <path d="M 83.9173 96.4 L 76.0827 96.4 L 76.0827 61.6 L 83.9173 61.6 L 83.9173 96.4" fill="none" stroke="#B8860B" stroke-width="0.05000" fill-rule="evenodd" fill-opacity="1.000"/>
    <path d="M 76.1827 96.3 L 83.8173 96.3 L 83.8173 61.7 L 76.1827 61.7 L 76.1827 96.3" fill="none" stroke="#B8860B" stroke-width="0.05000" fill-rule="evenodd" fill-opacity="1.000"/>
    </g>
    <!-- ===== Thermal Segment Colour Legend ===== -->
    <g id="thermal-legend">
    <rect x="161.0000" y="5.0000" width="40.0000" height="72.0000"
          rx="1" ry="1"
          fill="#fafafa" stroke="#cccccc" stroke-width="0.15"/>
    <text x="181.0000" y="7.6000" font-family="sans-serif" font-size="2.2000" font-weight="bold" fill="#222222" text-anchor="middle">Thermal Segments</text>
    <line x1="161.5000" y1="8.7000" x2="200.5000" y2="8.7000" stroke="#bbbbbb" stroke-width="0.1"/>
    <rect x="161.8000" y="9.0000" width="3.5000" height="2.0000" fill="#000000" stroke="#333333" stroke-width="0.08" rx="0.3" ry="0.3"/>
    <text x="168.6000" y="10.9000" font-family="monospace" font-size="1.6000" fill="#444444" text-anchor="end"> 1</text>
    <text x="169.6000" y="10.9000" font-family="sans-serif" font-size="1.6000" fill="#111111">CoreContour_Volume</text>
    <rect x="161.8000" y="12.0000" width="3.5000" height="2.0000" fill="#8B0000" stroke="#333333" stroke-width="0.08" rx="0.3" ry="0.3"/>
    <text x="168.6000" y="13.9000" font-family="monospace" font-size="1.6000" fill="#444444" text-anchor="end"> 2</text>
    <text x="169.6000" y="13.9000" font-family="sans-serif" font-size="1.6000" fill="#111111">CoreContour_Overhang</text>
    <rect x="161.8000" y="15.0000" width="3.5000" height="2.0000" fill="#0000CC" stroke="#333333" stroke-width="0.08" rx="0.3" ry="0.3"/>
    <text x="168.6000" y="16.9000" font-family="monospace" font-size="1.6000" fill="#444444" text-anchor="end"> 3</text>
    <text x="169.6000" y="16.9000" font-family="sans-serif" font-size="1.6000" fill="#111111">Shell1Contour_Volume</text>
    <rect x="161.8000" y="18.0000" width="3.5000" height="2.0000" fill="#000080" stroke="#333333" stroke-width="0.08" rx="0.3" ry="0.3"/>
    <text x="168.6000" y="19.9000" font-family="monospace" font-size="1.6000" fill="#444444" text-anchor="end"> 4</text>
    <text x="169.6000" y="19.9000" font-family="sans-serif" font-size="1.6000" fill="#111111">Shell1Contour_Overhang</text>
    <rect x="161.8000" y="21.0000" width="3.5000" height="2.0000" fill="#B8860B" stroke="#333333" stroke-width="0.08" rx="0.3" ry="0.3"/>
    <text x="168.6000" y="22.9000" font-family="monospace" font-size="1.6000" fill="#444444" text-anchor="end"> 5</text>
    <text x="169.6000" y="22.9000" font-family="sans-serif" font-size="1.6000" fill="#111111">Shell2Contour_Volume</text>
    <rect x="161.8000" y="24.0000" width="3.5000" height="2.0000" fill="#006400" stroke="#333333" stroke-width="0.08" rx="0.3" ry="0.3"/>
    <text x="168.6000" y="25.9000" font-family="monospace" font-size="1.6000" fill="#444444" text-anchor="end"> 6</text>
    <text x="169.6000" y="25.9000" font-family="sans-serif" font-size="1.6000" fill="#111111">Shell2Contour_Overhang</text>
    <rect x="161.8000" y="27.0000" width="3.5000" height="2.0000" fill="#FF8C00" stroke="#333333" stroke-width="0.08" rx="0.3" ry="0.3"/>
    <text x="168.6000" y="28.9000" font-family="monospace" font-size="1.6000" fill="#444444" text-anchor="end"> 7</text>
    <text x="169.6000" y="28.9000" font-family="sans-serif" font-size="1.6000" fill="#111111">CoreOverhangHatch</text>
    <rect x="161.8000" y="30.0000" width="3.5000" height="2.0000" fill="#228B22" stroke="#333333" stroke-width="0.08" rx="0.3" ry="0.3"/>
    <text x="168.6000" y="31.9000" font-family="monospace" font-size="1.6000" fill="#444444" text-anchor="end"> 8</text>
    <text x="169.6000" y="31.9000" font-family="sans-serif" font-size="1.6000" fill="#111111">CoreNormalHatch</text>
    <rect x="161.8000" y="33.0000" width="3.5000" height="2.0000" fill="#800080" stroke="#333333" stroke-width="0.08" rx="0.3" ry="0.3"/>
    <text x="168.6000" y="34.9000" font-family="monospace" font-size="1.6000" fill="#444444" text-anchor="end"> 9</text>
    <text x="169.6000" y="34.9000" font-family="sans-serif" font-size="1.6000" fill="#111111">CoreContourHatch</text>
    <rect x="161.8000" y="36.0000" width="3.5000" height="2.0000" fill="#FF69B4" stroke="#333333" stroke-width="0.08" rx="0.3" ry="0.3"/>
    <text x="168.6000" y="37.9000" font-family="monospace" font-size="1.6000" fill="#444444" text-anchor="end">10</text>
    <text x="169.6000" y="37.9000" font-family="sans-serif" font-size="1.6000" fill="#111111">Shell1OverhangHatch</text>
    <rect x="161.8000" y="39.0000" width="3.5000" height="2.0000" fill="#00CED1" stroke="#333333" stroke-width="0.08" rx="0.3" ry="0.3"/>
    <text x="168.6000" y="40.9000" font-family="monospace" font-size="1.6000" fill="#444444" text-anchor="end">11</text>
    <text x="169.6000" y="40.9000" font-family="sans-serif" font-size="1.6000" fill="#111111">Shell1NormalHatch</text>
    <rect x="161.8000" y="42.0000" width="3.5000" height="2.0000" fill="#FF00FF" stroke="#333333" stroke-width="0.08" rx="0.3" ry="0.3"/>
    <text x="168.6000" y="43.9000" font-family="monospace" font-size="1.6000" fill="#444444" text-anchor="end">12</text>
    <text x="169.6000" y="43.9000" font-family="sans-serif" font-size="1.6000" fill="#111111">Shell1ContourHatch</text>
    <rect x="161.8000" y="45.0000" width="3.5000" height="2.0000" fill="#A52A2A" stroke="#333333" stroke-width="0.08" rx="0.3" ry="0.3"/>
    <text x="168.6000" y="46.9000" font-family="monospace" font-size="1.6000" fill="#444444" text-anchor="end">13</text>
    <text x="169.6000" y="46.9000" font-family="sans-serif" font-size="1.6000" fill="#111111">Shell2OverhangHatch</text>
    <rect x="161.8000" y="48.0000" width="3.5000" height="2.0000" fill="#808080" stroke="#333333" stroke-width="0.08" rx="0.3" ry="0.3"/>
    <text x="168.6000" y="49.9000" font-family="monospace" font-size="1.6000" fill="#444444" text-anchor="end">14</text>
    <text x="169.6000" y="49.9000" font-family="sans-serif" font-size="1.6000" fill="#111111">Shell2NormalHatch</text>
    <rect x="161.8000" y="51.0000" width="3.5000" height="2.0000" fill="#32CD32" stroke="#333333" stroke-width="0.08" rx="0.3" ry="0.3"/>
    <text x="168.6000" y="52.9000" font-family="monospace" font-size="1.6000" fill="#444444" text-anchor="end">15</text>
    <text x="169.6000" y="52.9000" font-family="sans-serif" font-size="1.6000" fill="#111111">Shell2ContourHatch</text>
    <rect x="161.8000" y="54.0000" width="3.5000" height="2.0000" fill="#1A237E" stroke="#333333" stroke-width="0.08" rx="0.3" ry="0.3"/>
    <text x="168.6000" y="55.9000" font-family="monospace" font-size="1.6000" fill="#444444" text-anchor="end">16</text>
    <text x="169.6000" y="55.9000" font-family="sans-serif" font-size="1.6000" fill="#111111">SupportContourVolume</text>
    <rect x="161.8000" y="57.0000" width="3.5000" height="2.0000" fill="#827717" stroke="#333333" stroke-width="0.08" rx="0.3" ry="0.3"/>
    <text x="168.6000" y="58.9000" font-family="monospace" font-size="1.6000" fill="#444444" text-anchor="end">17</text>
    <text x="169.6000" y="58.9000" font-family="sans-serif" font-size="1.6000" fill="#111111">SupportHatch</text>
    <rect x="161.8000" y="60.0000" width="3.5000" height="2.0000" fill="#006064" stroke="#333333" stroke-width="0.08" rx="0.3" ry="0.3"/>
    <text x="168.6000" y="61.9000" font-family="monospace" font-size="1.6000" fill="#444444" text-anchor="end">18</text>
    <text x="169.6000" y="61.9000" font-family="sans-serif" font-size="1.6000" fill="#111111">PointSequence</text>
    <rect x="161.8000" y="63.0000" width="3.5000" height="2.0000" fill="#B71C1C" stroke="#333333" stroke-width="0.08" rx="0.3" ry="0.3"/>
    <text x="168.6000" y="64.9000" font-family="monospace" font-size="1.6000" fill="#444444" text-anchor="end">19</text>
    <text x="169.6000" y="64.9000" font-family="sans-serif" font-size="1.6000" fill="#111111">ExternalSupports</text>
    <rect x="161.8000" y="66.0000" width="3.5000" height="2.0000" fill="#E64A19" stroke="#333333" stroke-width="0.08" rx="0.3" ry="0.3"/>
    <text x="168.6000" y="67.9000" font-family="monospace" font-size="1.6000" fill="#444444" text-anchor="end">20</text>
    <text x="169.6000" y="67.9000" font-family="sans-serif" font-size="1.6000" fill="#111111">CoreContourHatchOverhang</text>
    <rect x="161.8000" y="69.0000" width="3.5000" height="2.0000" fill="#311B92" stroke="#333333" stroke-width="0.08" rx="0.3" ry="0.3"/>
    <text x="168.6000" y="70.9000" font-family="monospace" font-size="1.6000" fill="#444444" text-anchor="end">21</text>
    <text x="169.6000" y="70.9000" font-family="sans-serif" font-size="1.6000" fill="#111111">Shell1ContourHatchOverhang</text>
    <rect x="161.8000" y="72.0000" width="3.5000" height="2.0000" fill="#880E4F" stroke="#333333" stroke-width="0.08" rx="0.3" ry="0.3"/>
    <text x="168.6000" y="73.9000" font-family="monospace" font-size="1.6000" fill="#444444" text-anchor="end">22</text>
    <text x="169.6000" y="73.9000" font-family="sans-serif" font-size="1.6000" fill="#111111">Shell2ContourHatchOverhang</text>
    </g>
  </g>
</svg>
