<?xml version="1.0" encoding="UTF-8" standalone="yes"?>
<svg xmlns="http://www.w3.org/2000/svg"
     xmlns:xlink="http://www.w3.org/1999/xlink"
     width="2020.0000mm" height="1600.0000mm"
     viewBox="0 0 202.000000 160.000000">
  <!--
    Build plate : 150.00 x 150.00 mm
    Coordinate  : 1 SVG unit = 1 mm
    Display zoom: 10x  (width/height = viewBox x 10)
    Hatch stroke: 0.04 mm = ~28 mm on screen at this zoom
    Legend panel: right margin (42 mm wide)
  -->
  <defs>
    <marker id="endArrow" markerWidth="2" markerHeight="1.4"
            refX="0" refY="0.7" orient="auto"
            markerUnits="strokeWidth">
      <polyline fill="darkblue" points="0,0 2,0.7 0,1.4 0.2,0.7"/>
    </marker>
  </defs>
  <!-- Background -->
  <rect x="0" y="0" width="202.000000" height="160.000000" fill="#f0f0f0" stroke="none"/>
  <!-- Build plate boundary (150 x 150 mm) -->
  <rect x="5.000000" y="5.000000" width="150.000000" height="150.000000"
        fill="#ffffff" stroke="#aaaaaa" stroke-width="0.2" stroke-dasharray="1,0.5"/>
  <!-- Build plate centre circle (r = 75.00 mm) -->
  <circle cx="80.000000" cy="80.000000" r="75.000000"
          fill="none" stroke="#bbbbbb" stroke-width="0.15" stroke-dasharray="0.8,0.4"/>
  <!-- Centre cross-hair -->
  <line x1="5.000000" y1="80.000000" x2="155.000000" y2="80.000000" stroke="#cccccc" stroke-width="0.1"/>
  <line x1="80.000000" y1="5.000000" x2="80.000000" y2="155.000000" stroke="#cccccc" stroke-width="0.1"/>
  <circle cx="80.000000" cy="80.000000" r="0.3" fill="#cccccc" stroke="none"/>
  <!-- Corner labels -->
  <text x="5.400000" y="4.600000" font-family="sans-serif" font-size="2" fill="#888888">0,0</text>
  <text x="154.600006" y="4.600000" font-family="sans-serif" font-size="2" fill="#888888" text-anchor="end">150,0</text>
  <text x="5.400000" y="157.199997" font-family="sans-serif" font-size="2" fill="#888888">0,150</text>
  <!-- Layer geometry -->
  <g id="geometry">
    <g class="thermal-hatch" data-segment="8" data-name="CoreNormalHatch">
      <line x1="35.01073" y1="127.30339" x2="35.70107" y2="120.73527" stroke="#228B22" stroke-width="0.04000"/>
      <line x1="34.91065" y1="127.29890" x2="35.64511" y2="120.31100" stroke="#228B22" stroke-width="0.04000"/>
      <line x1="35.11315" y1="127.28564" x2="35.73051" y2="121.41182" stroke="#228B22" stroke-width="0.04000"/>
      <line x1="35.21738" y1="127.25068" x2="35.75021" y2="122.18108" stroke="#228B22" stroke-width="0.04000"/>
      <line x1="35.32160" y1="127.21572" x2="35.77423" y2="122.90917" stroke="#228B22" stroke-width="0.04000"/>
      <line x1="34.82007" y1="127.20407" x2="35.58775" y2="119.90014" stroke="#228B22" stroke-width="0.04000"/>
      <line x1="35.42583" y1="127.18076" x2="35.79424" y2="123.67548" stroke="#228B22" stroke-width="0.04000"/>
      <line x1="35.53005" y1="127.14580" x2="35.82655" y2="124.32484" stroke="#228B22" stroke-width="0.04000"/>
      <line x1="35.63428" y1="127.11084" x2="35.85566" y2="125.00452" stroke="#228B22" stroke-width="0.04000"/>
      <line x1="34.72946" y1="127.10947" x2="35.53103" y2="119.48308" stroke="#228B22" stroke-width="0.04000"/>
      <line x1="35.73850" y1="127.07588" x2="35.88596" y2="125.67290" stroke="#228B22" stroke-width="0.04000"/>
      <line x1="34.63885" y1="127.01486" x2="35.47291" y2="119.07935" stroke="#228B22" stroke-width="0.04000"/>
      <line x1="34.54825" y1="126.92026" x2="35.41818" y2="118.64336" stroke="#228B22" stroke-width="0.04000"/>
      <line x1="34.45764" y1="126.82565" x2="35.35145" y2="118.32161" stroke="#228B22" stroke-width="0.04000"/>
      <line x1="34.36703" y1="126.73105" x2="35.28471" y2="117.99986" stroke="#228B22" stroke-width="0.04000"/>
      <line x1="34.27642" y1="126.63644" x2="35.22619" y2="117.60003" stroke="#228B22" stroke-width="0.04000"/>
      <line x1="34.19176" y1="126.48525" x2="35.15631" y2="117.30819" stroke="#228B22" stroke-width="0.04000"/>
      <line x1="34.11115" y1="126.29562" x2="35.08570" y2="117.02332" stroke="#228B22" stroke-width="0.04000"/>
      <line x1="34.03053" y1="126.10599" x2="35.01509" y2="116.73846" stroke="#228B22" stroke-width="0.04000"/>
      <line x1="33.95052" y1="125.91047" x2="34.94376" y2="116.46045" stroke="#228B22" stroke-width="0.04000"/>
      <line x1="33.87097" y1="125.71070" x2="34.86677" y2="116.23630" stroke="#228B22" stroke-width="0.04000"/>
      <line x1="33.79270" y1="125.49868" x2="34.78978" y2="116.01214" stroke="#228B22" stroke-width="0.04000"/>
      <line x1="33.71457" y1="125.28543" x2="34.71279" y2="115.78799" stroke="#228B22" stroke-width="0.04000"/>
      <line x1="33.63643" y1="125.07218" x2="34.63439" y2="115.57720" stroke="#228B22" stroke-width="0.04000"/>
      <line x1="33.55811" y1="124.86060" x2="34.55545" y2="115.37161" stroke="#228B22" stroke-width="0.04000"/>
      <line x1="33.47784" y1="124.66772" x2="34.47651" y2="115.16602" stroke="#228B22" stroke-width="0.04000"/>
      <line x1="33.39753" y1="124.47513" x2="34.39756" y2="114.96042" stroke="#228B22" stroke-width="0.04000"/>
      <line x1="33.31722" y1="124.28254" x2="34.31845" y2="114.75645" stroke="#228B22" stroke-width="0.04000"/>
      <line x1="33.23691" y1="124.08994" x2="34.23068" y2="114.63483" stroke="#228B22" stroke-width="0.04000"/>
      <line x1="33.15660" y1="123.89735" x2="34.14235" y2="114.51860" stroke="#228B22" stroke-width="0.04000"/>
      <line x1="33.07751" y1="123.69323" x2="34.05402" y2="114.40237" stroke="#228B22" stroke-width="0.04000"/>
      <line x1="32.99896" y1="123.48386" x2="33.96568" y2="114.28614" stroke="#228B22" stroke-width="0.04000"/>
      <line x1="32.92042" y1="123.27451" x2="33.87735" y2="114.16991" stroke="#228B22" stroke-width="0.04000"/>
      <line x1="32.84187" y1="123.06514" x2="33.78901" y2="114.05369" stroke="#228B22" stroke-width="0.04000"/>
      <line x1="32.76100" y1="122.87790" x2="33.70191" y2="113.92569" stroke="#228B22" stroke-width="0.04000"/>
      <line x1="32.67947" y1="122.69691" x2="33.61507" y2="113.79522" stroke="#228B22" stroke-width="0.04000"/>
      <line x1="32.60136" y1="122.48340" x2="33.52641" y2="113.68214" stroke="#228B22" stroke-width="0.04000"/>
      <line x1="32.52325" y1="122.26988" x2="33.42921" y2="113.65025" stroke="#228B22" stroke-width="0.04000"/>
      <line x1="32.44514" y1="122.05637" x2="33.33201" y2="113.61835" stroke="#228B22" stroke-width="0.04000"/>
      <line x1="32.36703" y1="121.84286" x2="33.23481" y2="113.58646" stroke="#228B22" stroke-width="0.04000"/>
      <line x1="32.28532" y1="121.66358" x2="33.13761" y2="113.55457" stroke="#228B22" stroke-width="0.04000"/>
      <line x1="32.20284" y1="121.49171" x2="33.04041" y2="113.52268" stroke="#228B22" stroke-width="0.04000"/>
      <line x1="32.12253" y1="121.29913" x2="32.93943" y2="113.52681" stroke="#228B22" stroke-width="0.04000"/>
      <line x1="32.04430" y1="121.08678" x2="32.83798" y2="113.53537" stroke="#228B22" stroke-width="0.04000"/>
      <line x1="31.96435" y1="120.89070" x2="32.73444" y2="113.56379" stroke="#228B22" stroke-width="0.04000"/>
      <line x1="31.88107" y1="120.72644" x2="32.62984" y2="113.60226" stroke="#228B22" stroke-width="0.04000"/>
      <line x1="31.79778" y1="120.56219" x2="32.52525" y2="113.64073" stroke="#228B22" stroke-width="0.04000"/>
      <line x1="31.71449" y1="120.39794" x2="32.42066" y2="113.67921" stroke="#228B22" stroke-width="0.04000"/>
      <line x1="31.63120" y1="120.23368" x2="32.31606" y2="113.71767" stroke="#228B22" stroke-width="0.04000"/>
      <line x1="31.54795" y1="120.06911" x2="32.21128" y2="113.75798" stroke="#228B22" stroke-width="0.04000"/>
      <line x1="31.45944" y1="119.95457" x2="32.09650" y2="113.89326" stroke="#228B22" stroke-width="0.04000"/>
      <line x1="31.37085" y1="119.84076" x2="31.98183" y2="114.02766" stroke="#228B22" stroke-width="0.04000"/>
      <line x1="31.28226" y1="119.72696" x2="31.87081" y2="114.12725" stroke="#228B22" stroke-width="0.04000"/>
      <line x1="31.19367" y1="119.61315" x2="31.75979" y2="114.22685" stroke="#228B22" stroke-width="0.04000"/>
      <line x1="31.10508" y1="119.49935" x2="31.64878" y2="114.32645" stroke="#228B22" stroke-width="0.04000"/>
      <line x1="31.01649" y1="119.38555" x2="31.53776" y2="114.42604" stroke="#228B22" stroke-width="0.04000"/>
      <line x1="30.93517" y1="119.20259" x2="31.40973" y2="114.68749" stroke="#228B22" stroke-width="0.04000"/>
      <line x1="30.85501" y1="119.00854" x2="31.28002" y2="114.96494" stroke="#228B22" stroke-width="0.04000"/>
      <line x1="30.77153" y1="118.84616" x2="31.15544" y2="115.19349" stroke="#228B22" stroke-width="0.04000"/>
      <line x1="30.68685" y1="118.69520" x2="31.03087" y2="115.42204" stroke="#228B22" stroke-width="0.04000"/>
      <line x1="30.60216" y1="118.54424" x2="30.88502" y2="115.85303" stroke="#228B22" stroke-width="0.04000"/>
      <line x1="30.62253" y1="117.39378" x2="30.72759" y2="116.39419" stroke="#228B22" stroke-width="0.04000"/>
    </g>
    <g class="thermal-hatch" data-segment="8" data-name="CoreNormalHatch">
      <line x1="52.24910" y1="113.98732" x2="52.40005" y2="112.55112" stroke="#228B22" stroke-width="0.04000"/>
      <line x1="52.35041" y1="113.98015" x2="52.48824" y2="112.66878" stroke="#228B22" stroke-width="0.04000"/>
      <line x1="52.15138" y1="113.96041" x2="52.31187" y2="112.43345" stroke="#228B22" stroke-width="0.04000"/>
      <line x1="52.05326" y1="113.93724" x2="52.22369" y2="112.31578" stroke="#228B22" stroke-width="0.04000"/>
      <line x1="52.45693" y1="113.92337" x2="52.57431" y2="112.80660" stroke="#228B22" stroke-width="0.04000"/>
      <line x1="51.95515" y1="113.91406" x2="52.14505" y2="112.10731" stroke="#228B22" stroke-width="0.04000"/>
      <line x1="51.85704" y1="113.89088" x2="52.06529" y2="111.90945" stroke="#228B22" stroke-width="0.04000"/>
      <line x1="51.75892" y1="113.86771" x2="51.97051" y2="111.85455" stroke="#228B22" stroke-width="0.04000"/>
      <line x1="51.66080" y1="113.84453" x2="51.87573" y2="111.79965" stroke="#228B22" stroke-width="0.04000"/>
      <line x1="52.56845" y1="113.81895" x2="52.65851" y2="112.96210" stroke="#228B22" stroke-width="0.04000"/>
      <line x1="51.56304" y1="113.81805" x2="51.78095" y2="111.74475" stroke="#228B22" stroke-width="0.04000"/>
      <line x1="51.46571" y1="113.78739" x2="51.68617" y2="111.68985" stroke="#228B22" stroke-width="0.04000"/>
      <line x1="51.36838" y1="113.75674" x2="51.59139" y2="111.63496" stroke="#228B22" stroke-width="0.04000"/>
      <line x1="51.27105" y1="113.72610" x2="51.49589" y2="111.58690" stroke="#228B22" stroke-width="0.04000"/>
      <line x1="52.67998" y1="113.71454" x2="52.74272" y2="113.11761" stroke="#228B22" stroke-width="0.04000"/>
      <line x1="51.17372" y1="113.69545" x2="51.40023" y2="111.54040" stroke="#228B22" stroke-width="0.04000"/>
      <line x1="51.07639" y1="113.66480" x2="51.30457" y2="111.49390" stroke="#228B22" stroke-width="0.04000"/>
      <line x1="50.97844" y1="113.64005" x2="51.20890" y2="111.44740" stroke="#228B22" stroke-width="0.04000"/>
      <line x1="50.88009" y1="113.61916" x2="51.11324" y2="111.40090" stroke="#228B22" stroke-width="0.04000"/>
      <line x1="52.79150" y1="113.61012" x2="52.82834" y2="113.25964" stroke="#228B22" stroke-width="0.04000"/>
      <line x1="50.78173" y1="113.59827" x2="51.01757" y2="111.35440" stroke="#228B22" stroke-width="0.04000"/>
      <line x1="50.68338" y1="113.57738" x2="50.92191" y2="111.30790" stroke="#228B22" stroke-width="0.04000"/>
      <line x1="50.58519" y1="113.55495" x2="50.82625" y2="111.26140" stroke="#228B22" stroke-width="0.04000"/>
      <line x1="50.48704" y1="113.53204" x2="50.73056" y2="111.21509" stroke="#228B22" stroke-width="0.04000"/>
      <line x1="50.38890" y1="113.50912" x2="50.63447" y2="111.17267" stroke="#228B22" stroke-width="0.04000"/>
      <line x1="52.90303" y1="113.50570" x2="52.91443" y2="113.39721" stroke="#228B22" stroke-width="0.04000"/>
      <line x1="50.29075" y1="113.48621" x2="50.53799" y2="111.13388" stroke="#228B22" stroke-width="0.04000"/>
      <line x1="50.19261" y1="113.46329" x2="50.44152" y2="111.09509" stroke="#228B22" stroke-width="0.04000"/>
      <line x1="50.09447" y1="113.44038" x2="50.34531" y2="111.05382" stroke="#228B22" stroke-width="0.04000"/>
      <line x1="49.99633" y1="113.41747" x2="50.24922" y2="111.01139" stroke="#228B22" stroke-width="0.04000"/>
      <line x1="49.89819" y1="113.39455" x2="50.15313" y2="110.96896" stroke="#228B22" stroke-width="0.04000"/>
      <line x1="49.79982" y1="113.37372" x2="50.05703" y2="110.92653" stroke="#228B22" stroke-width="0.04000"/>
      <line x1="49.70082" y1="113.35902" x2="49.96094" y2="110.88410" stroke="#228B22" stroke-width="0.04000"/>
      <line x1="49.60212" y1="113.34144" x2="49.86485" y2="110.84167" stroke="#228B22" stroke-width="0.04000"/>
      <line x1="49.50341" y1="113.32384" x2="49.76848" y2="110.80192" stroke="#228B22" stroke-width="0.04000"/>
      <line x1="49.40471" y1="113.30624" x2="49.67160" y2="110.76694" stroke="#228B22" stroke-width="0.04000"/>
      <line x1="49.30601" y1="113.28865" x2="49.57473" y2="110.73196" stroke="#228B22" stroke-width="0.04000"/>
      <line x1="49.20731" y1="113.27106" x2="49.47786" y2="110.69698" stroke="#228B22" stroke-width="0.04000"/>
      <line x1="49.10861" y1="113.25346" x2="49.38108" y2="110.66104" stroke="#228B22" stroke-width="0.04000"/>
      <line x1="49.00991" y1="113.23587" x2="49.28515" y2="110.61709" stroke="#228B22" stroke-width="0.04000"/>
      <line x1="48.91121" y1="113.21827" x2="49.18922" y2="110.57314" stroke="#228B22" stroke-width="0.04000"/>
      <line x1="48.81252" y1="113.20048" x2="49.09329" y2="110.52918" stroke="#228B22" stroke-width="0.04000"/>
      <line x1="48.71386" y1="113.18249" x2="48.99736" y2="110.48523" stroke="#228B22" stroke-width="0.04000"/>
      <line x1="48.61520" y1="113.16451" x2="48.90108" y2="110.44460" stroke="#228B22" stroke-width="0.04000"/>
      <line x1="48.51654" y1="113.14652" x2="48.80452" y2="110.40666" stroke="#228B22" stroke-width="0.04000"/>
      <line x1="48.41739" y1="113.13328" x2="48.70795" y2="110.36873" stroke="#228B22" stroke-width="0.04000"/>
      <line x1="48.31815" y1="113.12074" x2="48.61139" y2="110.33080" stroke="#228B22" stroke-width="0.04000"/>
      <line x1="48.21892" y1="113.10821" x2="48.51482" y2="110.29286" stroke="#228B22" stroke-width="0.04000"/>
      <line x1="48.11969" y1="113.09567" x2="48.41826" y2="110.25493" stroke="#228B22" stroke-width="0.04000"/>
      <line x1="48.02045" y1="113.08314" x2="48.32170" y2="110.21699" stroke="#228B22" stroke-width="0.04000"/>
      <line x1="47.92122" y1="113.07059" x2="48.22513" y2="110.17905" stroke="#228B22" stroke-width="0.04000"/>
      <line x1="47.82183" y1="113.05956" x2="48.12857" y2="110.14112" stroke="#228B22" stroke-width="0.04000"/>
      <line x1="47.72240" y1="113.04888" x2="48.03253" y2="110.09821" stroke="#228B22" stroke-width="0.04000"/>
      <line x1="47.62297" y1="113.03821" x2="47.93678" y2="110.05251" stroke="#228B22" stroke-width="0.04000"/>
      <line x1="47.52354" y1="113.02753" x2="47.84101" y2="110.00706" stroke="#228B22" stroke-width="0.04000"/>
      <line x1="47.42411" y1="113.01687" x2="47.74523" y2="109.96162" stroke="#228B22" stroke-width="0.04000"/>
      <line x1="47.32527" y1="113.00060" x2="47.64946" y2="109.91618" stroke="#228B22" stroke-width="0.04000"/>
      <line x1="47.22695" y1="112.97940" x2="47.55378" y2="109.86984" stroke="#228B22" stroke-width="0.04000"/>
      <line x1="47.12863" y1="112.95819" x2="47.45818" y2="109.82273" stroke="#228B22" stroke-width="0.04000"/>
      <line x1="47.03030" y1="112.93699" x2="47.36258" y2="109.77561" stroke="#228B22" stroke-width="0.04000"/>
      <line x1="46.93192" y1="112.91633" x2="47.26698" y2="109.72850" stroke="#228B22" stroke-width="0.04000"/>
      <line x1="46.83314" y1="112.89949" x2="47.17138" y2="109.68138" stroke="#228B22" stroke-width="0.04000"/>
      <line x1="46.73436" y1="112.88265" x2="47.07536" y2="109.63833" stroke="#228B22" stroke-width="0.04000"/>
      <line x1="46.63558" y1="112.86581" x2="46.97920" y2="109.59650" stroke="#228B22" stroke-width="0.04000"/>
      <line x1="46.53680" y1="112.84897" x2="46.88353" y2="109.55003" stroke="#228B22" stroke-width="0.04000"/>
      <line x1="46.43802" y1="112.83212" x2="46.78787" y2="109.50355" stroke="#228B22" stroke-width="0.04000"/>
      <line x1="46.33924" y1="112.81528" x2="46.69225" y2="109.45663" stroke="#228B22" stroke-width="0.04000"/>
      <line x1="46.24146" y1="112.78893" x2="46.59700" y2="109.40618" stroke="#228B22" stroke-width="0.04000"/>
      <line x1="46.14391" y1="112.76037" x2="46.50175" y2="109.35574" stroke="#228B22" stroke-width="0.04000"/>
      <line x1="46.04630" y1="112.73236" x2="46.40650" y2="109.30528" stroke="#228B22" stroke-width="0.04000"/>
      <line x1="45.94812" y1="112.70983" x2="46.31125" y2="109.25484" stroke="#228B22" stroke-width="0.04000"/>
      <line x1="45.84994" y1="112.68729" x2="46.21601" y2="109.20438" stroke="#228B22" stroke-width="0.04000"/>
      <line x1="45.75176" y1="112.66476" x2="46.12080" y2="109.15350" stroke="#228B22" stroke-width="0.04000"/>
      <line x1="45.65357" y1="112.64223" x2="46.02642" y2="109.09486" stroke="#228B22" stroke-width="0.04000"/>
      <line x1="45.55541" y1="112.61948" x2="45.93212" y2="109.03535" stroke="#228B22" stroke-width="0.04000"/>
      <line x1="45.45729" y1="112.59641" x2="45.83801" y2="108.97408" stroke="#228B22" stroke-width="0.04000"/>
      <line x1="45.35916" y1="112.57334" x2="45.74390" y2="108.91280" stroke="#228B22" stroke-width="0.04000"/>
      <line x1="45.26104" y1="112.55028" x2="45.64979" y2="108.85154" stroke="#228B22" stroke-width="0.04000"/>
      <line x1="45.16345" y1="112.52204" x2="45.55568" y2="108.79026" stroke="#228B22" stroke-width="0.04000"/>
      <line x1="45.06627" y1="112.48997" x2="45.46128" y2="108.73170" stroke="#228B22" stroke-width="0.04000"/>
      <line x1="44.96909" y1="112.45789" x2="45.36639" y2="108.67784" stroke="#228B22" stroke-width="0.04000"/>
      <line x1="44.87191" y1="112.42582" x2="45.27150" y2="108.62399" stroke="#228B22" stroke-width="0.04000"/>
      <line x1="44.77637" y1="112.37814" x2="45.17661" y2="108.57012" stroke="#228B22" stroke-width="0.04000"/>
      <line x1="44.68101" y1="112.32879" x2="45.08172" y2="108.51626" stroke="#228B22" stroke-width="0.04000"/>
      <line x1="44.58564" y1="112.27944" x2="44.98683" y2="108.46239" stroke="#228B22" stroke-width="0.04000"/>
      <line x1="44.49028" y1="112.23009" x2="44.89194" y2="108.40853" stroke="#228B22" stroke-width="0.04000"/>
      <line x1="44.39492" y1="112.18075" x2="44.80231" y2="108.30464" stroke="#228B22" stroke-width="0.04000"/>
      <line x1="44.30027" y1="112.12456" x2="44.71295" y2="108.19820" stroke="#228B22" stroke-width="0.04000"/>
      <line x1="44.20581" y1="112.06661" x2="44.62348" y2="108.09277" stroke="#228B22" stroke-width="0.04000"/>
      <line x1="44.11135" y1="112.00866" x2="44.53401" y2="107.98735" stroke="#228B22" stroke-width="0.04000"/>
      <line x1="44.01689" y1="111.95071" x2="44.44453" y2="107.88192" stroke="#228B22" stroke-width="0.04000"/>
      <line x1="43.92271" y1="111.89009" x2="44.35507" y2="107.77650" stroke="#228B22" stroke-width="0.04000"/>
      <line x1="43.82868" y1="111.82809" x2="44.26560" y2="107.67107" stroke="#228B22" stroke-width="0.04000"/>
      <line x1="43.73464" y1="111.76609" x2="44.17613" y2="107.56565" stroke="#228B22" stroke-width="0.04000"/>
      <line x1="43.64061" y1="111.70409" x2="44.08673" y2="107.45953" stroke="#228B22" stroke-width="0.04000"/>
      <line x1="43.54650" y1="111.64278" x2="43.99733" y2="107.35341" stroke="#228B22" stroke-width="0.04000"/>
      <line x1="43.45234" y1="111.58203" x2="43.90794" y2="107.24729" stroke="#228B22" stroke-width="0.04000"/>
      <line x1="43.35817" y1="111.52128" x2="43.81854" y2="107.14116" stroke="#228B22" stroke-width="0.04000"/>
      <line x1="43.26400" y1="111.46053" x2="43.72914" y2="107.03503" stroke="#228B22" stroke-width="0.04000"/>
      <line x1="43.16984" y1="111.39977" x2="43.63974" y2="106.92891" stroke="#228B22" stroke-width="0.04000"/>
      <line x1="43.07637" y1="111.33243" x2="43.54828" y2="106.84250" stroke="#228B22" stroke-width="0.04000"/>
      <line x1="42.98328" y1="111.26145" x2="43.45178" y2="106.80396" stroke="#228B22" stroke-width="0.04000"/>
      <line x1="42.89019" y1="111.19048" x2="43.35727" y2="106.74652" stroke="#228B22" stroke-width="0.04000"/>
      <line x1="42.79709" y1="111.11949" x2="43.26275" y2="106.68908" stroke="#228B22" stroke-width="0.04000"/>
      <line x1="42.70356" y1="111.05271" x2="43.16824" y2="106.63165" stroke="#228B22" stroke-width="0.04000"/>
      <line x1="42.61000" y1="110.98627" x2="43.07372" y2="106.57420" stroke="#228B22" stroke-width="0.04000"/>
      <line x1="42.51643" y1="110.91982" x2="42.97921" y2="106.51677" stroke="#228B22" stroke-width="0.04000"/>
      <line x1="42.42290" y1="110.85303" x2="42.88469" y2="106.45933" stroke="#228B22" stroke-width="0.04000"/>
      <line x1="42.32943" y1="110.78562" x2="42.78917" y2="106.41154" stroke="#228B22" stroke-width="0.04000"/>
      <line x1="42.23597" y1="110.71821" x2="42.69186" y2="106.38067" stroke="#228B22" stroke-width="0.04000"/>
      <line x1="42.14250" y1="110.65080" x2="42.59455" y2="106.34978" stroke="#228B22" stroke-width="0.04000"/>
      <line x1="42.04903" y1="110.58339" x2="42.49725" y2="106.31891" stroke="#228B22" stroke-width="0.04000"/>
      <line x1="41.95619" y1="110.51004" x2="42.39994" y2="106.28803" stroke="#228B22" stroke-width="0.04000"/>
      <line x1="41.86338" y1="110.43636" x2="42.30264" y2="106.25716" stroke="#228B22" stroke-width="0.04000"/>
      <line x1="41.77058" y1="110.36269" x2="42.20533" y2="106.22628" stroke="#228B22" stroke-width="0.04000"/>
      <line x1="41.67777" y1="110.28902" x2="42.10835" y2="106.19238" stroke="#228B22" stroke-width="0.04000"/>
      <line x1="41.58496" y1="110.21535" x2="42.01172" y2="106.15502" stroke="#228B22" stroke-width="0.04000"/>
      <line x1="41.49318" y1="110.13197" x2="41.91458" y2="106.12260" stroke="#228B22" stroke-width="0.04000"/>
      <line x1="41.40192" y1="110.04350" x2="41.81651" y2="106.09898" stroke="#228B22" stroke-width="0.04000"/>
      <line x1="41.31138" y1="109.94829" x2="41.71705" y2="106.08859" stroke="#228B22" stroke-width="0.04000"/>
      <line x1="41.22091" y1="109.85239" x2="41.61450" y2="106.10759" stroke="#228B22" stroke-width="0.04000"/>
      <line x1="41.13051" y1="109.75579" x2="41.51196" y2="106.12659" stroke="#228B22" stroke-width="0.04000"/>
      <line x1="41.04036" y1="109.65685" x2="41.40941" y2="106.14558" stroke="#228B22" stroke-width="0.04000"/>
      <line x1="40.95021" y1="109.55790" x2="41.30686" y2="106.16458" stroke="#228B22" stroke-width="0.04000"/>
      <line x1="40.86005" y1="109.45896" x2="41.20431" y2="106.18357" stroke="#228B22" stroke-width="0.04000"/>
      <line x1="40.76940" y1="109.36485" x2="41.10176" y2="106.20257" stroke="#228B22" stroke-width="0.04000"/>
      <line x1="40.67858" y1="109.27225" x2="40.99922" y2="106.22157" stroke="#228B22" stroke-width="0.04000"/>
      <line x1="40.59047" y1="109.15384" x2="40.89666" y2="106.24067" stroke="#228B22" stroke-width="0.04000"/>
      <line x1="40.50237" y1="109.03542" x2="40.79370" y2="106.26362" stroke="#228B22" stroke-width="0.04000"/>
      <line x1="40.41426" y1="108.91701" x2="40.69073" y2="106.28657" stroke="#228B22" stroke-width="0.04000"/>
      <line x1="40.32616" y1="108.79860" x2="40.58284" y2="106.35645" stroke="#228B22" stroke-width="0.04000"/>
      <line x1="40.23805" y1="108.68018" x2="40.47165" y2="106.45771" stroke="#228B22" stroke-width="0.04000"/>
      <line x1="40.14963" y1="108.56477" x2="40.36045" y2="106.55898" stroke="#228B22" stroke-width="0.04000"/>
      <line x1="40.06430" y1="108.41995" x2="40.24888" y2="106.66379" stroke="#228B22" stroke-width="0.04000"/>
      <line x1="39.98451" y1="108.22242" x2="40.13519" y2="106.78877" stroke="#228B22" stroke-width="0.04000"/>
      <line x1="39.92615" y1="107.82108" x2="40.00466" y2="107.07406" stroke="#228B22" stroke-width="0.04000"/>
    </g>
    <g class="thermal-hatch" data-segment="8" data-name="CoreNormalHatch">
      <line x1="33.35770" y1="113.93200" x2="33.53730" y2="114.20170" stroke="#228B22" stroke-width="0.04000"/>
      <line x1="33.53730" y1="114.20170" x2="34.05820" y2="114.88720" stroke="#228B22" stroke-width="0.04000"/>
      <line x1="34.05820" y1="114.88720" x2="34.09210" y2="114.97390" stroke="#228B22" stroke-width="0.04000"/>
      <line x1="34.09210" y1="114.97390" x2="34.09210" y2="114.97400" stroke="#228B22" stroke-width="0.04000"/>
      <line x1="34.09210" y1="114.97400" x2="34.41830" y2="115.82390" stroke="#228B22" stroke-width="0.04000"/>
      <line x1="34.41830" y1="115.82390" x2="34.66930" y2="116.55470" stroke="#228B22" stroke-width="0.04000"/>
      <line x1="34.66930" y1="116.55470" x2="34.69540" y2="116.65360" stroke="#228B22" stroke-width="0.04000"/>
      <line x1="34.69540" y1="116.65360" x2="34.69540" y2="116.65410" stroke="#228B22" stroke-width="0.04000"/>
      <line x1="34.69540" y1="116.65410" x2="34.93770" y2="117.63240" stroke="#228B22" stroke-width="0.04000"/>
      <line x1="34.93770" y1="117.63240" x2="34.99630" y2="118.03700" stroke="#228B22" stroke-width="0.04000"/>
      <line x1="34.99630" y1="118.03700" x2="35.14250" y2="118.74290" stroke="#228B22" stroke-width="0.04000"/>
      <line x1="35.14250" y1="118.74290" x2="35.18060" y2="119.08390" stroke="#228B22" stroke-width="0.04000"/>
      <line x1="35.18060" y1="119.08390" x2="35.26670" y2="119.68270" stroke="#228B22" stroke-width="0.04000"/>
      <line x1="35.26670" y1="119.68270" x2="35.34640" y2="120.28880" stroke="#228B22" stroke-width="0.04000"/>
      <line x1="35.34640" y1="120.28880" x2="35.40540" y2="120.61320" stroke="#228B22" stroke-width="0.04000"/>
      <line x1="35.40540" y1="120.61320" x2="35.44290" y2="121.47160" stroke="#228B22" stroke-width="0.04000"/>
      <line x1="35.44290" y1="121.47160" x2="35.47070" y2="121.67540" stroke="#228B22" stroke-width="0.04000"/>
      <line x1="35.47070" y1="121.67540" x2="35.45190" y2="122.56920" stroke="#228B22" stroke-width="0.04000"/>
      <line x1="35.45190" y1="122.56920" x2="35.50290" y2="123.12680" stroke="#228B22" stroke-width="0.04000"/>
      <line x1="35.50290" y1="123.12680" x2="35.49650" y2="123.52440" stroke="#228B22" stroke-width="0.04000"/>
      <line x1="35.49650" y1="123.52440" x2="35.54330" y2="124.46980" stroke="#228B22" stroke-width="0.04000"/>
      <line x1="35.54330" y1="124.46980" x2="35.54450" y2="124.50270" stroke="#228B22" stroke-width="0.04000"/>
      <line x1="35.54450" y1="124.50270" x2="35.54590" y2="124.51520" stroke="#228B22" stroke-width="0.04000"/>
      <line x1="35.54590" y1="124.51520" x2="35.58590" y2="125.52240" stroke="#228B22" stroke-width="0.04000"/>
      <line x1="35.58590" y1="125.52240" x2="35.61870" y2="126.04680" stroke="#228B22" stroke-width="0.04000"/>
      <line x1="35.61870" y1="126.04680" x2="35.58910" y2="126.43420" stroke="#228B22" stroke-width="0.04000"/>
      <line x1="35.58910" y1="126.43420" x2="35.55290" y2="126.83210" stroke="#228B22" stroke-width="0.04000"/>
      <line x1="35.55290" y1="126.83210" x2="35.03270" y2="127.00660" stroke="#228B22" stroke-width="0.04000"/>
      <line x1="35.03270" y1="127.00660" x2="34.48540" y2="126.43540" stroke="#228B22" stroke-width="0.04000"/>
      <line x1="34.48540" y1="126.43540" x2="34.26530" y2="125.91730" stroke="#228B22" stroke-width="0.04000"/>
      <line x1="34.26530" y1="125.91730" x2="34.13380" y2="125.58700" stroke="#228B22" stroke-width="0.04000"/>
      <line x1="34.13380" y1="125.58700" x2="33.84040" y2="124.78610" stroke="#228B22" stroke-width="0.04000"/>
      <line x1="33.84040" y1="124.78610" x2="33.78390" y2="124.64260" stroke="#228B22" stroke-width="0.04000"/>
      <line x1="33.78390" y1="124.64260" x2="33.75070" y2="124.56870" stroke="#228B22" stroke-width="0.04000"/>
      <line x1="33.75070" y1="124.56870" x2="33.39990" y2="123.72710" stroke="#228B22" stroke-width="0.04000"/>
      <line x1="33.39990" y1="123.72710" x2="33.08940" y2="122.89940" stroke="#228B22" stroke-width="0.04000"/>
      <line x1="33.08940" y1="122.89940" x2="33.01130" y2="122.72750" stroke="#228B22" stroke-width="0.04000"/>
      <line x1="33.01130" y1="122.72750" x2="32.95510" y2="122.60690" stroke="#228B22" stroke-width="0.04000"/>
      <line x1="32.95510" y1="122.60690" x2="32.62070" y2="121.69210" stroke="#228B22" stroke-width="0.04000"/>
      <line x1="32.62070" y1="121.69210" x2="32.42960" y2="121.29400" stroke="#228B22" stroke-width="0.04000"/>
      <line x1="32.42960" y1="121.29400" x2="32.25870" y2="120.83020" stroke="#228B22" stroke-width="0.04000"/>
      <line x1="32.25870" y1="120.83020" x2="31.81890" y2="119.96270" stroke="#228B22" stroke-width="0.04000"/>
      <line x1="31.81890" y1="119.96270" x2="31.81210" y2="119.94320" stroke="#228B22" stroke-width="0.04000"/>
      <line x1="31.81210" y1="119.94320" x2="31.78130" y2="119.89580" stroke="#228B22" stroke-width="0.04000"/>
      <line x1="31.78130" y1="119.89580" x2="31.25710" y2="119.22270" stroke="#228B22" stroke-width="0.04000"/>
      <line x1="31.25710" y1="119.22270" x2="31.09510" y2="118.83040" stroke="#228B22" stroke-width="0.04000"/>
      <line x1="31.09510" y1="118.83040" x2="30.84180" y2="118.37880" stroke="#228B22" stroke-width="0.04000"/>
      <line x1="30.84180" y1="118.37880" x2="30.94110" y2="117.97650" stroke="#228B22" stroke-width="0.04000"/>
      <line x1="30.94110" y1="117.97650" x2="30.88850" y2="116.89260" stroke="#228B22" stroke-width="0.04000"/>
      <line x1="30.88850" y1="116.89260" x2="30.92470" y2="116.75450" stroke="#228B22" stroke-width="0.04000"/>
      <line x1="30.92470" y1="116.75450" x2="30.92460" y2="116.75440" stroke="#228B22" stroke-width="0.04000"/>
      <line x1="30.92460" y1="116.75440" x2="31.18260" y2="115.86780" stroke="#228B22" stroke-width="0.04000"/>
      <line x1="31.18260" y1="115.86780" x2="31.21960" y2="115.68140" stroke="#228B22" stroke-width="0.04000"/>
      <line x1="31.21960" y1="115.68140" x2="31.59760" y2="114.98840" stroke="#228B22" stroke-width="0.04000"/>
      <line x1="31.59760" y1="114.98840" x2="31.75110" y2="114.62410" stroke="#228B22" stroke-width="0.04000"/>
      <line x1="31.75110" y1="114.62410" x2="32.19310" y2="114.22790" stroke="#228B22" stroke-width="0.04000"/>
      <line x1="32.19310" y1="114.22790" x2="32.38510" y2="114.00100" stroke="#228B22" stroke-width="0.04000"/>
      <line x1="32.38510" y1="114.00100" x2="32.86770" y2="113.82370" stroke="#228B22" stroke-width="0.04000"/>
      <line x1="32.86770" y1="113.82370" x2="32.99510" y2="113.81300" stroke="#228B22" stroke-width="0.04000"/>
      <line x1="32.99510" y1="113.81300" x2="33.35770" y2="113.93200" stroke="#228B22" stroke-width="0.04000"/>
      <line x1="41.86230" y1="106.40820" x2="42.05700" y2="106.48350" stroke="#228B22" stroke-width="0.04000"/>
      <line x1="42.05700" y1="106.48350" x2="42.70330" y2="106.68850" stroke="#228B22" stroke-width="0.04000"/>
      <line x1="42.70330" y1="106.68850" x2="43.33260" y2="107.07090" stroke="#228B22" stroke-width="0.04000"/>
      <line x1="43.33260" y1="107.07090" x2="43.38860" y2="107.08970" stroke="#228B22" stroke-width="0.04000"/>
      <line x1="43.38860" y1="107.08970" x2="43.42140" y2="107.11990" stroke="#228B22" stroke-width="0.04000"/>
      <line x1="43.42140" y1="107.11990" x2="43.95260" y2="107.75050" stroke="#228B22" stroke-width="0.04000"/>
      <line x1="43.95260" y1="107.75050" x2="44.49470" y2="108.38910" stroke="#228B22" stroke-width="0.04000"/>
      <line x1="44.49470" y1="108.38910" x2="44.57940" y2="108.49020" stroke="#228B22" stroke-width="0.04000"/>
      <line x1="44.57940" y1="108.49020" x2="44.70160" y2="108.63380" stroke="#228B22" stroke-width="0.04000"/>
      <line x1="44.70160" y1="108.63380" x2="45.34630" y2="109.00000" stroke="#228B22" stroke-width="0.04000"/>
      <line x1="45.34630" y1="109.00000" x2="45.80740" y2="109.30020" stroke="#228B22" stroke-width="0.04000"/>
      <line x1="45.80740" y1="109.30020" x2="45.98110" y2="109.40830" stroke="#228B22" stroke-width="0.04000"/>
      <line x1="45.98110" y1="109.40830" x2="46.57140" y2="109.72090" stroke="#228B22" stroke-width="0.04000"/>
      <line x1="46.57140" y1="109.72090" x2="46.90880" y2="109.88470" stroke="#228B22" stroke-width="0.04000"/>
      <line x1="46.90880" y1="109.88470" x2="46.99950" y2="109.91990" stroke="#228B22" stroke-width="0.04000"/>
      <line x1="46.99950" y1="109.91990" x2="47.47830" y2="110.15590" stroke="#228B22" stroke-width="0.04000"/>
      <line x1="47.47830" y1="110.15590" x2="47.89630" y2="110.35430" stroke="#228B22" stroke-width="0.04000"/>
      <line x1="47.89630" y1="110.35430" x2="47.96970" y2="110.39020" stroke="#228B22" stroke-width="0.04000"/>
      <line x1="47.96970" y1="110.39020" x2="47.98310" y2="110.39540" stroke="#228B22" stroke-width="0.04000"/>
      <line x1="47.98310" y1="110.39540" x2="48.16150" y2="110.48030" stroke="#228B22" stroke-width="0.04000"/>
      <line x1="48.16150" y1="110.48030" x2="48.16150" y2="110.46550" stroke="#228B22" stroke-width="0.04000"/>
      <line x1="48.16150" y1="110.46550" x2="48.84310" y2="110.73340" stroke="#228B22" stroke-width="0.04000"/>
      <line x1="48.84310" y1="110.73340" x2="49.28160" y2="110.93440" stroke="#228B22" stroke-width="0.04000"/>
      <line x1="49.28160" y1="110.93440" x2="49.69550" y2="111.08390" stroke="#228B22" stroke-width="0.04000"/>
      <line x1="49.69550" y1="111.08390" x2="50.29810" y2="111.35000" stroke="#228B22" stroke-width="0.04000"/>
      <line x1="50.29810" y1="111.35000" x2="50.56690" y2="111.45790" stroke="#228B22" stroke-width="0.04000"/>
      <line x1="50.56690" y1="111.45790" x2="50.80670" y2="111.57410" stroke="#228B22" stroke-width="0.04000"/>
      <line x1="50.80670" y1="111.57410" x2="50.80670" y2="111.57400" stroke="#228B22" stroke-width="0.04000"/>
      <line x1="50.80670" y1="111.57400" x2="51.43650" y2="111.88020" stroke="#228B22" stroke-width="0.04000"/>
      <line x1="51.43650" y1="111.88020" x2="51.83830" y2="112.11300" stroke="#228B22" stroke-width="0.04000"/>
      <line x1="51.83830" y1="112.11300" x2="51.96040" y2="112.44800" stroke="#228B22" stroke-width="0.04000"/>
      <line x1="51.96040" y1="112.44800" x2="52.28480" y2="112.88070" stroke="#228B22" stroke-width="0.04000"/>
      <line x1="52.28480" y1="112.88070" x2="52.51310" y2="113.30250" stroke="#228B22" stroke-width="0.04000"/>
      <line x1="52.51310" y1="113.30250" x2="52.56230" y2="113.38120" stroke="#228B22" stroke-width="0.04000"/>
      <line x1="52.56230" y1="113.38120" x2="52.18840" y2="113.67110" stroke="#228B22" stroke-width="0.04000"/>
      <line x1="52.18840" y1="113.67110" x2="51.68280" y2="113.55170" stroke="#228B22" stroke-width="0.04000"/>
      <line x1="51.68280" y1="113.55170" x2="51.11170" y2="113.37200" stroke="#228B22" stroke-width="0.04000"/>
      <line x1="51.11170" y1="113.37200" x2="50.72440" y2="113.28970" stroke="#228B22" stroke-width="0.04000"/>
      <line x1="50.72440" y1="113.28970" x2="49.89780" y2="113.09680" stroke="#228B22" stroke-width="0.04000"/>
      <line x1="49.89780" y1="113.09680" x2="49.85000" y2="113.08790" stroke="#228B22" stroke-width="0.04000"/>
      <line x1="49.85000" y1="113.08790" x2="49.74620" y2="113.07260" stroke="#228B22" stroke-width="0.04000"/>
      <line x1="49.74620" y1="113.07260" x2="48.93230" y2="112.92750" stroke="#228B22" stroke-width="0.04000"/>
      <line x1="48.93230" y1="112.92750" x2="48.93220" y2="112.92750" stroke="#228B22" stroke-width="0.04000"/>
      <line x1="48.93220" y1="112.92750" x2="48.54780" y2="112.85740" stroke="#228B22" stroke-width="0.04000"/>
      <line x1="48.54780" y1="112.85740" x2="47.93500" y2="112.78010" stroke="#228B22" stroke-width="0.04000"/>
      <line x1="47.93500" y1="112.78010" x2="47.42330" y2="112.72510" stroke="#228B22" stroke-width="0.04000"/>
      <line x1="47.42330" y1="112.72510" x2="46.99940" y2="112.63360" stroke="#228B22" stroke-width="0.04000"/>
      <line x1="46.99940" y1="112.63360" x2="46.38590" y2="112.52890" stroke="#228B22" stroke-width="0.04000"/>
      <line x1="46.38590" y1="112.52890" x2="46.12850" y2="112.45380" stroke="#228B22" stroke-width="0.04000"/>
      <line x1="46.12850" y1="112.45380" x2="45.65040" y2="112.34400" stroke="#228B22" stroke-width="0.04000"/>
      <line x1="45.65040" y1="112.34400" x2="45.65050" y2="112.34400" stroke="#228B22" stroke-width="0.04000"/>
      <line x1="45.65050" y1="112.34400" x2="45.30010" y2="112.26150" stroke="#228B22" stroke-width="0.04000"/>
      <line x1="45.30010" y1="112.26150" x2="44.97380" y2="112.15370" stroke="#228B22" stroke-width="0.04000"/>
      <line x1="44.97380" y1="112.15370" x2="44.51880" y2="111.91850" stroke="#228B22" stroke-width="0.04000"/>
      <line x1="44.51880" y1="111.91850" x2="44.13990" y2="111.68590" stroke="#228B22" stroke-width="0.04000"/>
      <line x1="44.13990" y1="111.68590" x2="43.75650" y2="111.43310" stroke="#228B22" stroke-width="0.04000"/>
      <line x1="43.75650" y1="111.43310" x2="43.30340" y2="111.14090" stroke="#228B22" stroke-width="0.04000"/>
      <line x1="43.30340" y1="111.14090" x2="42.96230" y2="110.88080" stroke="#228B22" stroke-width="0.04000"/>
      <line x1="42.96230" y1="110.88080" x2="42.62360" y2="110.64030" stroke="#228B22" stroke-width="0.04000"/>
      <line x1="42.62360" y1="110.64030" x2="42.21900" y2="110.34830" stroke="#228B22" stroke-width="0.04000"/>
      <line x1="42.21900" y1="110.34830" x2="41.74380" y2="109.97110" stroke="#228B22" stroke-width="0.04000"/>
      <line x1="41.74380" y1="109.97110" x2="41.60110" y2="109.83280" stroke="#228B22" stroke-width="0.04000"/>
      <line x1="41.60110" y1="109.83280" x2="41.36370" y2="109.58110" stroke="#228B22" stroke-width="0.04000"/>
      <line x1="41.36370" y1="109.58110" x2="41.00620" y2="109.18890" stroke="#228B22" stroke-width="0.04000"/>
      <line x1="41.00620" y1="109.18890" x2="40.91540" y2="109.10480" stroke="#228B22" stroke-width="0.04000"/>
      <line x1="40.91540" y1="109.10480" x2="40.40180" y2="108.41450" stroke="#228B22" stroke-width="0.04000"/>
      <line x1="40.40180" y1="108.41450" x2="40.35000" y2="108.35200" stroke="#228B22" stroke-width="0.04000"/>
      <line x1="40.35000" y1="108.35200" x2="40.26730" y2="108.15230" stroke="#228B22" stroke-width="0.04000"/>
      <line x1="40.26730" y1="108.15230" x2="40.19930" y2="107.68460" stroke="#228B22" stroke-width="0.04000"/>
      <line x1="40.19930" y1="107.68460" x2="40.30490" y2="107.03310" stroke="#228B22" stroke-width="0.04000"/>
      <line x1="40.30490" y1="107.03310" x2="40.47260" y2="106.84860" stroke="#228B22" stroke-width="0.04000"/>
      <line x1="40.47260" y1="106.84860" x2="40.78740" y2="106.56190" stroke="#228B22" stroke-width="0.04000"/>
      <line x1="40.78740" y1="106.56190" x2="40.95810" y2="106.52380" stroke="#228B22" stroke-width="0.04000"/>
      <line x1="40.95810" y1="106.52380" x2="41.74080" y2="106.37880" stroke="#228B22" stroke-width="0.04000"/>
      <line x1="41.74080" y1="106.37880" x2="41.86230" y2="106.40820" stroke="#228B22" stroke-width="0.04000"/>
    </g>
    <g class="thermal-hatch" data-segment="7" data-name="CoreOverhangHatch">
      <line x1="52.58040" y1="113.41020" x2="52.27830" y2="113.69300" stroke="#FF8C00" stroke-width="0.04000"/>
      <line x1="52.27830" y1="113.69300" x2="52.27710" y2="113.69360" stroke="#FF8C00" stroke-width="0.04000"/>
      <line x1="52.27710" y1="113.69360" x2="52.24410" y2="113.68430" stroke="#FF8C00" stroke-width="0.04000"/>
      <line x1="52.24410" y1="113.68430" x2="52.18840" y2="113.67110" stroke="#FF8C00" stroke-width="0.04000"/>
      <line x1="52.18840" y1="113.67110" x2="52.56230" y2="113.38120" stroke="#FF8C00" stroke-width="0.04000"/>
      <line x1="52.56230" y1="113.38120" x2="52.58040" y2="113.41020" stroke="#FF8C00" stroke-width="0.04000"/>
    </g>
    <g class="thermal-contour" data-segment="1" data-name="CoreContour_Volume">
    <path d="M 33.5436 113.688 L 33.7737 114.033 L 34.3135 114.744 L 34.3345 114.797 L 34.3627 114.87 L 34.6912 115.725 L 34.9468 116.469 L 34.9769 116.584 L 34.9825 116.607 L 34.9825 116.607 L 35.2228 117.576 L 35.282 117.987 L 35.4295 118.698 L 35.4683 119.047 L 35.5534 119.638 L 35.6329 120.244 L 35.6943 120.581 L 35.732 121.445 L 35.7613 121.659 L 35.7422 122.559 L 35.7932 123.116 L 35.7865 123.52 L 35.833 124.455 L 35.8339 124.48 L 35.8353 124.49 L 35.8756 125.508 L 35.9095 126.049 L 35.8779 126.46 L 35.8247 127.047 L 35.066 127.301 L 34.9181 127.307 L 34.8443 127.229 L 34.2398 126.598 L 33.9967 126.026 L 33.8637 125.693 L 33.5693 124.889 L 33.5166 124.755 L 33.4855 124.686 L 33.1315 123.837 L 32.8214 123.011 L 32.7477 122.849 L 32.6871 122.718 L 32.3531 121.805 L 32.1626 121.408 L 31.9925 120.946 L 31.5523 120.078 L 31.5504 120.073 L 31.5447 120.064 L 31.0042 119.37 L 30.8338 118.957 L 30.5329 118.421 L 30.6494 117.948 L 30.5961 116.849 L 30.6085 116.817 L 30.6456 116.676 L 30.9007 115.799 L 30.9438 115.582 L 31.336 114.862 L 31.5093 114.452 L 31.9846 114.025 L 32.2134 113.755 L 32.8039 113.538 L 33.0298 113.519 L 33.5436 113.688" fill="none" stroke="#000000" stroke-width="0.05000" fill-rule="evenodd" fill-opacity="1.000"/>
    </g>
    <g class="thermal-contour" data-segment="1" data-name="CoreContour_Volume">
    <path d="M 41.9498 106.131 L 42.1533 106.21 L 42.8245 106.423 L 43.4558 106.806 L 43.54 106.835 L 43.6312 106.919 L 44.1741 107.563 L 44.7289 108.217 L 44.801 108.303 L 44.8893 108.407 L 45.4961 108.751 L 45.9631 109.056 L 46.1258 109.157 L 46.7027 109.462 L 47.0248 109.619 L 47.1165 109.654 L 47.6045 109.895 L 48.0144 110.089 L 48.0864 110.125 L 48.9544 110.466 L 49.3915 110.666 L 49.8032 110.814 L 50.4108 111.083 L 50.6844 111.193 L 50.8232 111.26 L 51.5738 111.625 L 52.0752 111.915 L 52.2182 112.309 L 52.5295 112.724 L 52.7637 113.156 L 52.953 113.459 L 52.4433 113.936 L 52.3029 114.003 L 52.171 113.965 L 51.6062 113.832 L 51.0378 113.653 L 50.6594 113.572 L 49.8387 113.381 L 49.8025 113.374 L 49.7006 113.359 L 48.864 113.21 L 48.864 113.21 L 48.5037 113.144 L 47.9014 113.068 L 47.3775 113.012 L 46.9443 112.918 L 46.3207 112.812 L 46.0554 112.734 L 45.5962 112.629 L 45.2192 112.54 L 44.8626 112.423 L 44.3754 112.171 L 43.9848 111.931 L 43.5981 111.676 L 43.1363 111.378 L 42.7903 111.114 L 42.4557 110.877 L 42.0441 110.58 L 41.553 110.19 L 41.3934 110.035 L 41.1516 109.779 L 40.8003 109.393 L 40.6993 109.3 L 40.1738 108.594 L 40.099 108.504 L 39.9855 108.229 L 39.9061 107.683 L 40.0326 106.902 L 40.2658 106.645 L 40.6495 106.296 L 40.8996 106.24 L 41.7489 106.083 L 41.9498 106.131" fill="none" stroke="#000000" stroke-width="0.05000" fill-rule="evenodd" fill-opacity="1.000"/>
    </g>
    <g class="thermal-contour" data-segment="1" data-name="CoreContour_Volume">
    <path d="M 33.4154 113.856 L 33.6107 114.149 L 34.1374 114.843 L 34.1482 114.87 L 34.1482 114.87 L 34.1761 114.942 L 34.503 115.794 L 34.7555 116.529 L 34.7832 116.634 L 34.7854 116.643 L 34.7854 116.643 L 35.0262 117.615 L 35.085 118.021 L 35.2315 118.729 L 35.2699 119.073 L 35.3558 119.67 L 35.4353 120.275 L 35.4951 120.603 L 35.5326 121.464 L 35.5609 121.67 L 35.542 122.566 L 35.593 123.124 L 35.5865 123.523 L 35.6332 124.465 L 35.6343 124.496 L 35.6357 124.508 L 35.6758 125.518 L 35.7089 126.047 L 35.6787 126.442 L 35.6372 126.899 L 35.0296 127.103 L 35.0008 127.104 L 34.9889 127.091 L 34.4092 126.486 L 34.1825 125.952 L 34.0495 125.619 L 33.7563 124.818 L 33.701 124.678 L 33.6686 124.606 L 33.3161 123.76 L 33.0062 122.934 L 32.9295 122.765 L 32.872 122.641 L 32.5377 121.727 L 32.3463 121.328 L 32.1761 120.866 L 31.7362 119.998 L 31.7308 119.983 L 31.7079 119.948 L 31.435 119.598 L 31.2851 119.367 L 31.1447 119.186 L 31.014 118.87 L 30.7459 118.392 L 30.8506 117.968 L 30.7979 116.882 L 30.7989 116.88 L 30.8376 116.732 L 31.0951 115.846 L 31.134 115.65 L 31.5164 114.949 L 31.6761 114.571 L 32.1284 114.165 L 32.3318 113.925 L 32.8481 113.735 L 33.0058 113.722 L 33.4154 113.856" fill="none" stroke="#000000" stroke-width="0.05000" fill-rule="evenodd" fill-opacity="1.000"/>
    <path d="M 32.8677 113.824 L 32.3851 114.001 L 32.1931 114.228 L 31.7511 114.624 L 31.5976 114.988 L 31.2196 115.681 L 31.1826 115.868 L 30.9246 116.754 L 30.9247 116.755 L 30.8885 116.893 L 30.9411 117.977 L 30.8418 118.379 L 31.0951 118.83 L 31.2571 119.223 L 31.7813 119.896 L 31.8121 119.943 L 31.8189 119.963 L 32.2587 120.83 L 32.4296 121.294 L 32.6207 121.692 L 32.9551 122.607 L 33.0113 122.728 L 33.0894 122.899 L 33.3999 123.727 L 33.7507 124.569 L 33.7839 124.643 L 33.8404 124.786 L 34.1338 125.587 L 34.2653 125.917 L 34.4854 126.435 L 35.0327 127.007 L 35.5529 126.832 L 35.5891 126.434 L 35.6187 126.047 L 35.5859 125.522 L 35.5459 124.515 L 35.5445 124.503 L 35.5433 124.47 L 35.4965 123.524 L 35.5029 123.127 L 35.4519 122.569 L 35.4707 121.675 L 35.4429 121.472 L 35.4054 120.613 L 35.3464 120.289 L 35.2667 119.683 L 35.1806 119.084 L 35.1425 118.743 L 34.9963 118.037 L 34.9377 117.632 L 34.6954 116.654 L 34.6954 116.654 L 34.6693 116.555 L 34.4183 115.824 L 34.0921 114.974 L 34.0921 114.974 L 34.0582 114.887 L 33.5373 114.202 L 33.3577 113.932 L 32.9951 113.813 L 32.8677 113.824" fill="none" stroke="#000000" stroke-width="0.05000" fill-rule="evenodd" fill-opacity="1.000"/>
    <path d="M 41.889 106.322 L 42.0869 106.399 L 42.7407 106.606 L 43.3708 106.989 L 43.4356 107.011 L 43.4864 107.057 L 44.0213 107.692 L 44.5633 108.331 L 44.6482 108.432 L 44.7599 108.563 L 45.3927 108.923 L 45.8557 109.224 L 46.026 109.33 L 46.6121 109.641 L 46.9448 109.802 L 47.0355 109.837 L 47.5175 110.075 L 47.9349 110.273 L 48.0058 110.308 L 48.019 110.313 L 48.0715 110.338 L 48.0715 110.334 L 48.8777 110.65 L 49.3157 110.851 L 49.7294 111.001 L 50.3331 111.267 L 50.6036 111.376 L 50.8459 111.493 L 51.4797 111.801 L 51.9118 112.052 L 52.0404 112.405 L 52.3609 112.832 L 52.5909 113.257 L 52.6338 113.326 L 52.5623 113.381 L 52.5131 113.302 L 52.2848 112.881 L 51.9604 112.448 L 51.8383 112.113 L 51.4365 111.88 L 50.8067 111.574 L 50.8067 111.574 L 50.5669 111.458 L 50.2981 111.35 L 49.6955 111.084 L 49.2816 110.934 L 48.8431 110.733 L 48.1615 110.465 L 48.1615 110.48 L 47.9831 110.395 L 47.9697 110.39 L 47.8963 110.354 L 47.4783 110.156 L 46.9995 109.92 L 46.9088 109.885 L 46.5714 109.721 L 45.9811 109.408 L 45.8074 109.3 L 45.3463 109 L 44.7016 108.634 L 44.5794 108.49 L 44.4947 108.389 L 43.9526 107.751 L 43.4214 107.12 L 43.3886 107.09 L 43.3326 107.071 L 42.7033 106.688 L 42.057 106.483 L 41.8623 106.408 L 41.7408 106.379 L 40.9581 106.524 L 40.7874 106.562 L 40.4726 106.849 L 40.3049 107.033 L 40.1993 107.685 L 40.2673 108.152 L 40.35 108.352 L 40.4018 108.414 L 40.9154 109.105 L 41.0062 109.189 L 41.3637 109.581 L 41.6011 109.833 L 41.7438 109.971 L 42.219 110.348 L 42.6236 110.64 L 42.9623 110.881 L 43.3034 111.141 L 43.7565 111.433 L 44.1399 111.686 L 44.5188 111.919 L 44.9738 112.154 L 45.3001 112.261 L 45.6505 112.344 L 45.6504 112.344 L 46.1285 112.454 L 46.3859 112.529 L 46.9994 112.634 L 47.4233 112.725 L 47.935 112.78 L 48.5478 112.857 L 48.9322 112.927 L 48.9323 112.927 L 49.7462 113.073 L 49.85 113.088 L 49.8978 113.097 L 50.7244 113.29 L 51.1117 113.372 L 51.6828 113.552 L 52.1884 113.671 L 52.097 113.742 L 51.6598 113.639 L 51.0888 113.459 L 50.7048 113.378 L 49.8794 113.185 L 49.8352 113.177 L 49.731 113.161 L 48.9165 113.016 L 48.5341 112.946 L 47.9246 112.869 L 47.4089 112.814 L 46.9823 112.722 L 46.3655 112.617 L 46.1058 112.541 L 45.6299 112.432 L 45.2752 112.348 L 44.9394 112.237 L 44.4738 111.996 L 44.0928 111.763 L 43.7073 111.508 L 43.2511 111.214 L 42.9089 110.953 L 42.5715 110.714 L 42.1647 110.42 L 41.685 110.039 L 41.5356 109.895 L 41.2982 109.643 L 41.2983 109.643 L 40.9423 109.252 L 40.8483 109.165 L 40.331 108.47 L 40.2721 108.399 L 40.1799 108.176 L 40.1083 107.684 L 40.2204 106.992 L 40.4084 106.785 L 40.7445 106.479 L 40.9414 106.435 L 41.7433 106.287 L 41.889 106.322" fill="none" stroke="#000000" stroke-width="0.05000" fill-rule="evenodd" fill-opacity="1.000"/>
    </g>
    <g class="thermal-contour" data-segment="2" data-name="CoreContour_Overhang">
    <path d="M 31.2851 119.367 L 31.435 119.598 L 31.1786 119.268 L 31.1447 119.186 L 31.2851 119.367" fill="none" stroke="#8B0000" stroke-width="0.05000" fill-rule="evenodd" fill-opacity="1.000"/>
    <path d="M 52.696 113.425 L 52.3296 113.768 L 52.2851 113.789 L 52.2214 113.771 L 52.097 113.742 L 52.1884 113.671 L 52.2441 113.684 L 52.2771 113.694 L 52.2783 113.693 L 52.5804 113.41 L 52.5623 113.381 L 52.6338 113.326 L 52.696 113.425" fill="none" stroke="#8B0000" stroke-width="0.05000" fill-rule="evenodd" fill-opacity="1.000"/>
    </g>
    <g class="thermal-contour" data-segment="3" data-name="HollowShell1Contour_Volume">
    <path d="M 32.4454 121.766 L 32.7797 122.68 L 32.8386 122.807 L 32.9138 122.972 L 33.2238 123.799 L 33.5774 124.647 L 33.6088 124.716 L 33.6628 124.854 L 33.9566 125.656 L 34.0896 125.99 L 34.3245 126.542 L 34.9166 127.16 L 34.9594 127.205 L 34.9845 127.204 L 34.9121 127.241 L 34.6735 127.016 L 34.2157 126.538 L 34.0879 126.237 L 33.8443 125.625 L 33.5682 124.872 L 33.5065 124.694 L 33.2935 124.134 L 33.1552 123.802 L 32.9663 123.299 L 32.795 122.852 L 32.7696 122.767 L 32.622 122.312 L 32.4023 121.712 L 32.3312 121.563 L 32.2751 121.411 L 32.4454 121.766" fill="none" stroke="#0000CC" stroke-width="0.05000" fill-rule="evenodd" fill-opacity="1.000"/>
    <path d="M 33.5436 113.688 L 33.7737 114.034 L 34.3135 114.744 L 34.3345 114.798 L 34.3627 114.87 L 34.6912 115.725 L 34.9468 116.469 L 34.9769 116.584 L 34.9825 116.607 L 35.2228 117.576 L 35.282 117.987 L 35.4295 118.698 L 35.4683 119.047 L 35.5534 119.638 L 35.6329 120.244 L 35.6943 120.581 L 35.732 121.446 L 35.7613 121.659 L 35.7422 122.559 L 35.7868 123.047 L 35.7784 123.554 L 35.814 124.269 L 35.807 124.507 L 35.8303 125.024 L 35.8507 125.537 L 35.8672 125.802 L 35.8092 126.559 L 35.7769 126.915 L 35.7348 126.929 L 35.7783 126.451 L 35.8092 126.048 L 35.7757 125.513 L 35.7355 124.499 L 35.7341 124.488 L 35.7331 124.46 L 35.6865 123.521 L 35.6931 123.12 L 35.6421 122.562 L 35.6611 121.664 L 35.6323 121.454 L 35.5947 120.592 L 35.5341 120.259 L 35.4544 119.652 L 35.4544 119.653 L 35.3691 119.06 L 35.3305 118.713 L 35.1835 118.004 L 35.1245 117.596 L 34.8854 116.631 L 34.8854 116.631 L 34.8799 116.608 L 34.8799 116.608 L 34.8512 116.499 L 34.5971 115.759 L 34.2693 114.906 L 34.2693 114.905 L 34.2414 114.834 L 34.2255 114.793 L 33.6922 114.091 L 33.4795 113.772 L 33.0178 113.62 L 32.826 113.637 L 32.2726 113.84 L 32.0565 114.095 L 31.5927 114.511 L 31.4262 114.906 L 31.0389 115.616 L 30.9979 115.823 L 30.7416 116.704 L 30.7037 116.849 L 30.697 116.866 L 30.75 117.958 L 30.6637 118.308 L 30.6176 118.225 L 30.6785 117.978 L 30.6484 117.357 L 30.5967 116.848 L 30.5966 116.848 L 30.6085 116.817 L 30.6456 116.676 L 30.9007 115.799 L 30.9438 115.582 L 31.336 114.862 L 31.5093 114.452 L 31.9846 114.025 L 32.2134 113.755 L 32.8039 113.538 L 33.0298 113.519 L 33.5436 113.688" fill="none" stroke="#0000CC" stroke-width="0.05000" fill-rule="evenodd" fill-opacity="1.000"/>
    <path d="M 41.9498 106.131 L 42.1533 106.21 L 42.8245 106.423 L 43.4558 106.806 L 43.496 106.82 L 43.5283 106.85 L 43.7435 107.12 L 44.1126 107.558 L 44.4869 107.999 L 44.6902 108.171 L 44.7289 108.217 L 44.801 108.303 L 44.8893 108.407 L 45.4961 108.751 L 45.9631 109.055 L 46.1258 109.157 L 46.7027 109.462 L 47.0248 109.619 L 47.1165 109.654 L 47.6045 109.895 L 48.0144 110.089 L 48.0864 110.124 L 48.9544 110.466 L 49.3915 110.666 L 49.8032 110.814 L 50.4108 111.083 L 50.6844 111.193 L 50.8232 111.26 L 51.5738 111.625 L 52.0051 111.875 L 52.1706 112.329 L 52.6941 113.028 L 52.7637 113.156 L 52.7851 113.191 L 52.7107 113.26 L 52.6773 113.207 L 52.4452 112.778 L 52.1293 112.357 L 51.9935 111.983 L 51.5268 111.713 L 50.7796 111.35 L 50.7796 111.35 L 50.644 111.284 L 50.3719 111.175 L 49.7663 110.908 L 49.3536 110.758 L 48.9164 110.558 L 48.0461 110.216 L 47.9715 110.18 L 47.9715 110.18 L 47.561 109.985 L 47.076 109.746 L 46.9848 109.71 L 46.6574 109.551 L 46.0759 109.243 L 45.9094 109.14 L 45.4444 108.837 L 44.8246 108.485 L 44.7246 108.368 L 44.6522 108.281 L 44.6522 108.281 L 44.0977 107.628 L 43.5588 106.988 L 43.4878 106.923 L 43.4133 106.898 L 42.7826 106.514 L 42.1201 106.304 L 41.9194 106.227 L 41.7461 106.185 L 40.9205 106.338 L 40.697 106.388 L 40.3371 106.715 L 40.1265 106.947 L 40.0072 107.684 L 40.0827 108.203 L 40.1855 108.451 L 40.2524 108.532 L 40.7737 109.233 L 40.8713 109.323 L 41.2244 109.71 L 41.4651 109.965 L 41.619 110.115 L 42.1044 110.5 L 42.5136 110.795 L 42.8496 111.034 L 43.1937 111.296 L 43.6527 111.592 L 44.0388 111.847 L 44.4246 112.084 L 44.9011 112.33 L 45.247 112.444 L 45.6185 112.532 L 45.6186 112.532 L 46.0806 112.638 L 46.3432 112.714 L 46.9633 112.82 L 47.2876 112.89 L 47.1393 112.874 L 46.973 112.838 L 46.1386 112.696 L 46.0819 112.68 L 45.9838 112.657 L 45.2069 112.474 L 44.5316 112.252 L 44.3754 112.171 L 43.9848 111.931 L 43.5981 111.676 L 43.1363 111.378 L 42.7903 111.114 L 42.4557 110.877 L 42.0441 110.58 L 41.553 110.19 L 41.3934 110.035 L 41.1516 109.779 L 40.8003 109.393 L 40.6993 109.3 L 40.1738 108.594 L 40.099 108.504 L 39.9855 108.229 L 39.9061 107.683 L 40.0326 106.902 L 40.2658 106.645 L 40.6495 106.296 L 40.8996 106.24 L 41.7489 106.083 L 41.9498 106.131" fill="none" stroke="#0000CC" stroke-width="0.05000" fill-rule="evenodd" fill-opacity="1.000"/>
    </g>
    <g class="thermal-contour" data-segment="4" data-name="HollowShell1Contour_Overhang">
    <path d="M 30.5967 116.848 L 30.6484 117.357 L 30.6785 117.978 L 30.6176 118.225 L 30.6637 118.308 L 30.6394 118.406 L 30.9239 118.913 L 31.0914 119.319 L 31.6263 120.006 L 31.6405 120.028 L 31.6441 120.038 L 32.0843 120.906 L 32.2544 121.368 L 32.2751 121.411 L 32.3312 121.563 L 32.4023 121.712 L 32.622 122.312 L 32.7696 122.767 L 32.795 122.852 L 32.9663 123.299 L 33.1552 123.802 L 33.2935 124.134 L 33.5065 124.694 L 33.5682 124.872 L 33.8443 125.625 L 34.0879 126.237 L 34.2157 126.538 L 34.6735 127.016 L 34.9121 127.241 L 34.9845 127.204 L 35.0478 127.202 L 35.7309 126.973 L 35.7348 126.929 L 35.7769 126.915 L 35.8092 126.559 L 35.8672 125.802 L 35.8507 125.537 L 35.8303 125.024 L 35.807 124.507 L 35.814 124.269 L 35.7784 123.554 L 35.7868 123.047 L 35.7932 123.116 L 35.7865 123.52 L 35.833 124.455 L 35.8339 124.48 L 35.8353 124.491 L 35.8756 125.508 L 35.9095 126.049 L 35.8779 126.46 L 35.8247 127.047 L 35.066 127.301 L 34.9181 127.307 L 34.8443 127.229 L 34.2398 126.598 L 33.9967 126.026 L 33.8637 125.693 L 33.5693 124.889 L 33.5166 124.755 L 33.4855 124.686 L 33.1315 123.837 L 32.8214 123.01 L 32.7477 122.849 L 32.6871 122.718 L 32.3531 121.805 L 32.1626 121.408 L 31.9925 120.946 L 31.5523 120.078 L 31.5504 120.073 L 31.5447 120.064 L 31.0042 119.37 L 30.8338 118.957 L 30.5329 118.421 L 30.6494 117.948 L 30.5961 116.849 L 30.5966 116.848 L 30.5967 116.848" fill="none" stroke="#000080" stroke-width="0.05000" fill-rule="evenodd" fill-opacity="1.000"/>
    <path d="M 45.2069 112.474 L 45.9838 112.657 L 46.0819 112.68 L 46.1386 112.696 L 46.973 112.838 L 47.1393 112.874 L 47.2876 112.89 L 47.3932 112.913 L 47.913 112.969 L 48.5189 113.045 L 48.8819 113.112 L 48.8818 113.112 L 49.7153 113.26 L 49.8188 113.275 L 49.859 113.283 L 50.6821 113.475 L 51.0633 113.556 L 51.633 113.735 L 52.1962 113.868 L 52.2939 113.896 L 52.3865 113.852 L 52.8245 113.442 L 52.7107 113.26 L 52.7851 113.191 L 52.953 113.459 L 52.4433 113.936 L 52.3029 114.003 L 52.171 113.965 L 51.6062 113.832 L 51.0378 113.653 L 50.6594 113.572 L 49.8387 113.381 L 49.8025 113.374 L 49.7006 113.359 L 48.864 113.21 L 48.5037 113.144 L 47.9014 113.068 L 47.3775 113.012 L 46.9443 112.918 L 46.3207 112.812 L 46.0554 112.734 L 45.5962 112.629 L 45.2192 112.54 L 44.8626 112.423 L 44.5316 112.252 L 45.2069 112.474" fill="none" stroke="#000080" stroke-width="0.05000" fill-rule="evenodd" fill-opacity="1.000"/>
    <path d="M 52.0752 111.915 L 52.2182 112.309 L 52.5295 112.724 L 52.6941 113.028 L 52.1706 112.329 L 52.0051 111.875 L 52.0752 111.915" fill="none" stroke="#000080" stroke-width="0.05000" fill-rule="evenodd" fill-opacity="1.000"/>
    <path d="M 43.54 106.835 L 43.6312 106.919 L 44.1741 107.563 L 44.6902 108.171 L 44.4869 107.999 L 44.1126 107.558 L 43.7435 107.12 L 43.5283 106.85 L 43.496 106.82 L 43.54 106.835" fill="none" stroke="#000080" stroke-width="0.05000" fill-rule="evenodd" fill-opacity="1.000"/>
    </g>
    <g class="thermal-contour" data-segment="5" data-name="HollowShell2Contour_Volume">
    <path d="M 33.4795 113.772 L 33.6922 114.091 L 34.2255 114.793 L 34.2414 114.834 L 34.2693 114.905 L 34.2693 114.906 L 34.5971 115.759 L 34.8512 116.499 L 34.8799 116.608 L 34.8799 116.608 L 34.8854 116.631 L 34.8854 116.631 L 35.1245 117.596 L 35.1835 118.004 L 35.3305 118.713 L 35.3691 119.06 L 35.4544 119.653 L 35.4544 119.652 L 35.5341 120.259 L 35.5947 120.592 L 35.6323 121.454 L 35.6611 121.664 L 35.6421 122.562 L 35.6931 123.12 L 35.6865 123.521 L 35.7331 124.46 L 35.7341 124.488 L 35.7355 124.499 L 35.7757 125.513 L 35.8092 126.048 L 35.7783 126.451 L 35.7348 126.929 L 35.1205 127.135 L 34.9845 127.204 L 34.9594 127.205 L 34.9166 127.16 L 34.3245 126.542 L 34.0896 125.99 L 33.9566 125.656 L 33.6628 124.854 L 33.6088 124.716 L 33.5774 124.647 L 33.2238 123.799 L 32.9138 122.972 L 32.8386 122.807 L 32.7797 122.68 L 32.4454 121.766 L 32.2751 121.411 L 32.063 120.835 L 31.7703 120.258 L 31.6481 119.926 L 31.435 119.598 L 31.7079 119.948 L 31.7308 119.983 L 31.7362 119.998 L 32.1761 120.866 L 32.3463 121.328 L 32.5377 121.727 L 32.872 122.641 L 32.9295 122.765 L 33.0062 122.934 L 33.3161 123.76 L 33.6686 124.606 L 33.701 124.678 L 33.7563 124.818 L 34.0495 125.619 L 34.1825 125.952 L 34.4092 126.486 L 34.9889 127.091 L 35.0008 127.104 L 35.0296 127.103 L 35.6372 126.899 L 35.6787 126.442 L 35.7089 126.047 L 35.6758 125.518 L 35.6357 124.508 L 35.6343 124.496 L 35.6332 124.465 L 35.5865 123.523 L 35.593 123.124 L 35.542 122.566 L 35.5609 121.67 L 35.5326 121.464 L 35.4951 120.603 L 35.4353 120.275 L 35.3558 119.67 L 35.2699 119.073 L 35.2315 118.729 L 35.085 118.021 L 35.0262 117.615 L 34.7854 116.643 L 34.7854 116.643 L 34.7832 116.634 L 34.7555 116.529 L 34.503 115.794 L 34.1761 114.942 L 34.1482 114.87 L 34.1482 114.87 L 34.1374 114.843 L 33.6107 114.149 L 33.4154 113.856 L 33.0058 113.722 L 32.8481 113.735 L 32.3318 113.925 L 32.1284 114.165 L 31.6761 114.571 L 31.5164 114.949 L 31.134 115.65 L 31.0951 115.846 L 30.8376 116.732 L 30.7989 116.88 L 30.7979 116.882 L 30.8506 117.968 L 30.7459 118.392 L 31.014 118.87 L 31.1447 119.186 L 31.1217 119.157 L 31.0701 119.032 L 30.6637 118.308 L 30.75 117.958 L 30.697 116.866 L 30.7037 116.849 L 30.7416 116.704 L 30.9979 115.823 L 31.0389 115.616 L 31.4262 114.906 L 31.5927 114.511 L 32.0565 114.095 L 32.2726 113.84 L 32.826 113.637 L 33.0178 113.62 L 33.4795 113.772" fill="none" stroke="#B8860B" stroke-width="0.05000" fill-rule="evenodd" fill-opacity="1.000"/>
    <path d="M 41.9194 106.227 L 42.1201 106.304 L 42.7826 106.514 L 43.4133 106.898 L 43.4878 106.923 L 43.5588 106.988 L 44.0977 107.628 L 44.6522 108.281 L 44.6522 108.281 L 44.7246 108.368 L 44.8246 108.485 L 45.4444 108.837 L 45.9094 109.14 L 46.0759 109.243 L 46.6574 109.551 L 46.9848 109.71 L 47.076 109.746 L 47.561 109.985 L 47.9715 110.18 L 47.9715 110.18 L 48.0461 110.216 L 48.9164 110.558 L 49.3536 110.758 L 49.7663 110.908 L 50.3719 111.175 L 50.644 111.284 L 50.7796 111.35 L 50.7796 111.35 L 51.5268 111.713 L 51.9935 111.983 L 52.1293 112.357 L 52.4452 112.778 L 52.6773 113.207 L 52.7107 113.26 L 52.675 113.294 L 52.6338 113.326 L 52.5909 113.257 L 52.3609 112.832 L 52.0404 112.405 L 51.9118 112.052 L 51.4797 111.801 L 50.8459 111.493 L 50.6036 111.376 L 50.3331 111.267 L 49.7294 111.001 L 49.3157 110.851 L 48.8777 110.65 L 48.0715 110.334 L 48.0715 110.338 L 48.019 110.313 L 48.0058 110.308 L 47.9349 110.273 L 47.5175 110.075 L 47.0355 109.837 L 46.9448 109.802 L 46.6121 109.641 L 46.026 109.33 L 45.8557 109.224 L 45.3927 108.923 L 44.7599 108.563 L 44.6482 108.432 L 44.5633 108.331 L 44.0213 107.692 L 43.4864 107.057 L 43.4356 107.011 L 43.3708 106.989 L 42.7407 106.606 L 42.0869 106.399 L 41.889 106.322 L 41.7433 106.287 L 40.9414 106.435 L 40.7445 106.479 L 40.4084 106.785 L 40.2204 106.992 L 40.1083 107.684 L 40.1799 108.176 L 40.2721 108.399 L 40.331 108.47 L 40.8483 109.165 L 40.9423 109.252 L 41.2983 109.643 L 41.2982 109.643 L 41.5356 109.895 L 41.685 110.039 L 42.1647 110.42 L 42.5715 110.714 L 42.9089 110.953 L 43.2511 111.214 L 43.7073 111.508 L 44.0928 111.763 L 44.4738 111.996 L 44.9394 112.237 L 45.2752 112.348 L 45.6299 112.432 L 46.1058 112.541 L 46.3655 112.617 L 46.9823 112.722 L 47.4089 112.814 L 47.9246 112.869 L 48.5341 112.946 L 48.9165 113.016 L 49.731 113.161 L 49.8352 113.177 L 49.8794 113.185 L 50.7048 113.378 L 51.0888 113.459 L 51.6598 113.639 L 52.097 113.742 L 52.0928 113.745 L 51.6198 113.634 L 51.288 113.529 L 50.6098 113.385 L 50.1596 113.28 L 49.7954 113.214 L 48.832 113.071 L 48.8155 113.07 L 48.7852 113.067 L 47.9281 112.959 L 47.2876 112.89 L 46.9633 112.82 L 46.3432 112.714 L 46.0806 112.638 L 45.6186 112.532 L 45.6185 112.532 L 45.247 112.444 L 44.9011 112.33 L 44.4246 112.084 L 44.0388 111.847 L 43.6527 111.592 L 43.1937 111.296 L 42.8496 111.034 L 42.5136 110.795 L 42.1044 110.5 L 41.619 110.115 L 41.4651 109.965 L 41.2244 109.71 L 40.8713 109.323 L 40.7737 109.233 L 40.2524 108.532 L 40.1855 108.451 L 40.0827 108.203 L 40.0072 107.684 L 40.1265 106.947 L 40.3371 106.715 L 40.697 106.388 L 40.9205 106.338 L 41.7461 106.185 L 41.9194 106.227" fill="none" stroke="#B8860B" stroke-width="0.05000" fill-rule="evenodd" fill-opacity="1.000"/>
    </g>
    <g class="thermal-contour" data-segment="6" data-name="HollowShell2Contour_Overhang">
    <path d="M 35.7309 126.973 L 35.0478 127.202 L 34.9845 127.204 L 35.1205 127.135 L 35.7348 126.929 L 35.7309 126.973" fill="none" stroke="#006400" stroke-width="0.05000" fill-rule="evenodd" fill-opacity="1.000"/>
    <path d="M 31.0701 119.032 L 31.1217 119.157 L 31.1447 119.186 L 31.1786 119.268 L 31.435 119.598 L 31.6481 119.926 L 31.7703 120.258 L 32.063 120.835 L 32.2751 121.411 L 32.2544 121.368 L 32.0843 120.906 L 31.6441 120.038 L 31.6405 120.028 L 31.6263 120.006 L 31.0914 119.319 L 30.9239 118.913 L 30.6394 118.406 L 30.6637 118.308 L 31.0701 119.032" fill="none" stroke="#006400" stroke-width="0.05000" fill-rule="evenodd" fill-opacity="1.000"/>
    <path d="M 47.9281 112.959 L 48.7852 113.067 L 48.8155 113.07 L 48.832 113.071 L 49.7954 113.214 L 50.1596 113.28 L 50.6098 113.385 L 51.288 113.529 L 51.6198 113.634 L 52.0928 113.745 L 52.097 113.742 L 52.2214 113.771 L 52.2851 113.789 L 52.3296 113.768 L 52.696 113.425 L 52.6338 113.326 L 52.675 113.294 L 52.7107 113.26 L 52.8245 113.442 L 52.3865 113.852 L 52.2939 113.896 L 52.1962 113.868 L 51.633 113.735 L 51.0633 113.556 L 50.6821 113.475 L 49.859 113.283 L 49.8188 113.275 L 49.7153 113.26 L 48.8818 113.112 L 48.8819 113.112 L 48.5189 113.045 L 47.913 112.969 L 47.3932 112.913 L 47.2876 112.89 L 47.9281 112.959" fill="none" stroke="#006400" stroke-width="0.05000" fill-rule="evenodd" fill-opacity="1.000"/>
    </g>
    <g class="thermal-contour" data-segment="9" data-name="CoreContourHatch">
    <path d="M 33.375 113.909 L 33.5598 114.187 L 34.082 114.874 L 34.1191 114.969 L 34.1191 114.969 L 34.4437 115.815 L 34.6952 116.547 L 34.7224 116.65 L 34.7224 116.651 L 34.9642 117.627 L 35.0229 118.033 L 35.1692 118.739 L 35.2073 119.08 L 35.2934 119.679 L 35.373 120.284 L 35.4323 120.61 L 35.4698 121.469 L 35.4977 121.674 L 35.4789 122.568 L 35.5299 123.126 L 35.5235 123.523 L 35.5703 124.469 L 35.5714 124.501 L 35.5728 124.513 L 35.6129 125.521 L 35.6128 125.521 L 35.6458 126.047 L 35.616 126.437 L 35.5782 126.852 L 35.0251 127.038 L 34.4625 126.451 L 34.2403 125.928 L 34.1086 125.597 L 33.815 124.795 L 33.815 124.795 L 33.7593 124.654 L 33.7259 124.579 L 33.3748 123.737 L 33.0644 122.91 L 32.9867 122.739 L 32.9867 122.739 L 32.9301 122.617 L 32.5954 121.702 L 32.4047 121.304 L 32.2341 120.841 L 31.794 119.973 L 31.7876 119.955 L 31.7596 119.912 L 31.2335 119.236 L 31.0704 118.841 L 30.813 118.383 L 30.9139 117.974 L 30.8613 116.89 L 30.8946 116.763 L 30.8942 116.762 L 31.1561 115.862 L 31.1939 115.672 L 31.573 114.977 L 31.7286 114.608 L 32.1737 114.209 L 32.3691 113.978 L 32.8618 113.797 L 32.9983 113.786 L 33.375 113.909" fill="none" stroke="#800080" stroke-width="0.05000" fill-rule="evenodd" fill-opacity="1.000"/>
    <path d="M 32.8677 113.824 L 32.3851 114.001 L 32.1931 114.228 L 31.7511 114.624 L 31.5976 114.988 L 31.2196 115.681 L 31.1826 115.868 L 30.9246 116.754 L 30.9247 116.755 L 30.8885 116.893 L 30.9411 117.977 L 30.8418 118.379 L 31.0951 118.83 L 31.2571 119.223 L 31.7813 119.896 L 31.8121 119.943 L 31.8189 119.963 L 32.2587 120.83 L 32.4296 121.294 L 32.6207 121.692 L 32.9551 122.607 L 33.0113 122.728 L 33.0894 122.899 L 33.3999 123.727 L 33.7507 124.569 L 33.7839 124.643 L 33.8404 124.786 L 34.1338 125.587 L 34.2653 125.917 L 34.4854 126.435 L 35.0327 127.007 L 35.5529 126.832 L 35.5891 126.434 L 35.6187 126.047 L 35.5859 125.522 L 35.5459 124.515 L 35.5445 124.503 L 35.5433 124.47 L 35.4965 123.524 L 35.5029 123.127 L 35.4519 122.569 L 35.4707 121.675 L 35.4429 121.472 L 35.4054 120.613 L 35.3464 120.289 L 35.2667 119.683 L 35.1806 119.084 L 35.1425 118.743 L 34.9963 118.037 L 34.9377 117.632 L 34.6954 116.654 L 34.6954 116.654 L 34.6693 116.555 L 34.4183 115.824 L 34.0921 114.974 L 34.0921 114.974 L 34.0582 114.887 L 33.5373 114.202 L 33.3577 113.932 L 32.9951 113.813 L 32.8677 113.824" fill="none" stroke="#800080" stroke-width="0.05000" fill-rule="evenodd" fill-opacity="1.000"/>
    <path d="M 41.8704 106.382 L 42.0663 106.458 L 42.7146 106.664 L 43.344 107.046 L 43.4027 107.066 L 43.4409 107.101 L 43.9731 107.733 L 43.9732 107.733 L 44.5153 108.372 L 44.5999 108.473 L 44.6 108.473 L 44.7191 108.613 L 45.3603 108.977 L 45.8216 109.277 L 45.8217 109.277 L 45.9943 109.385 L 46.5832 109.697 L 46.9193 109.86 L 47.0104 109.895 L 47.4898 110.132 L 47.4899 110.132 L 47.908 110.33 L 47.9807 110.366 L 47.9938 110.371 L 48.1345 110.438 L 48.1345 110.426 L 48.8537 110.709 L 49.2914 110.909 L 49.7056 111.059 L 50.3081 111.325 L 50.3082 111.325 L 50.5778 111.433 L 50.7797 111.531 L 50.7797 111.531 L 51.4492 111.856 L 51.8603 112.094 L 51.9844 112.435 L 52.3076 112.866 L 52.536 113.288 L 52.5837 113.365 L 52.5623 113.381 L 52.5131 113.302 L 52.2848 112.881 L 51.9604 112.448 L 51.8383 112.113 L 51.4365 111.88 L 50.8067 111.574 L 50.8067 111.574 L 50.5669 111.458 L 50.2981 111.35 L 49.6955 111.084 L 49.2816 110.934 L 48.8431 110.733 L 48.1615 110.465 L 48.1615 110.48 L 47.9831 110.395 L 47.9697 110.39 L 47.8963 110.354 L 47.4783 110.156 L 46.9995 109.92 L 46.9088 109.885 L 46.5714 109.721 L 45.9811 109.408 L 45.8074 109.3 L 45.3463 109 L 44.7016 108.634 L 44.5794 108.49 L 44.4947 108.389 L 43.9526 107.751 L 43.4214 107.12 L 43.3886 107.09 L 43.3326 107.071 L 42.7033 106.688 L 42.057 106.483 L 41.8623 106.408 L 41.7408 106.379 L 40.9581 106.524 L 40.7874 106.562 L 40.4726 106.849 L 40.3049 107.033 L 40.1993 107.685 L 40.2673 108.152 L 40.35 108.352 L 40.4018 108.414 L 40.9154 109.105 L 41.0062 109.189 L 41.3637 109.581 L 41.6011 109.833 L 41.7438 109.971 L 42.219 110.348 L 42.6236 110.64 L 42.9623 110.881 L 43.3034 111.141 L 43.7565 111.433 L 44.1399 111.686 L 44.5188 111.919 L 44.9738 112.154 L 45.3001 112.261 L 45.6505 112.344 L 45.6504 112.344 L 46.1285 112.454 L 46.3859 112.529 L 46.9994 112.634 L 47.4233 112.725 L 47.935 112.78 L 48.5478 112.857 L 48.9322 112.927 L 48.9323 112.927 L 49.7462 113.073 L 49.85 113.088 L 49.8978 113.097 L 50.7244 113.29 L 51.1117 113.372 L 51.6828 113.552 L 52.1884 113.671 L 52.1609 113.692 L 51.6756 113.578 L 51.1042 113.398 L 50.7185 113.316 L 49.8917 113.123 L 49.8917 113.123 L 49.8461 113.115 L 49.8461 113.115 L 49.7419 113.099 L 48.9276 112.954 L 48.9276 112.954 L 48.5434 112.884 L 47.9316 112.807 L 47.9316 112.807 L 47.419 112.752 L 46.9937 112.66 L 46.9937 112.66 L 46.3798 112.555 L 46.1214 112.48 L 45.6443 112.37 L 45.6443 112.37 L 45.6399 112.369 L 45.6209 112.365 L 45.6209 112.365 L 45.2928 112.287 L 44.9633 112.179 L 44.5055 111.942 L 44.1254 111.709 L 43.7419 111.456 L 43.2879 111.163 L 42.9459 110.902 L 42.9459 110.902 L 42.6079 110.662 L 42.2027 110.37 L 41.726 109.991 L 41.5819 109.852 L 41.3439 109.6 L 40.9862 109.207 L 40.8952 109.123 L 40.3801 108.431 L 40.3266 108.366 L 40.2411 108.16 L 40.172 107.684 L 40.2795 107.021 L 40.4535 106.829 L 40.7745 106.537 L 40.9527 106.497 L 41.7415 106.351 L 41.8704 106.382" fill="none" stroke="#800080" stroke-width="0.05000" fill-rule="evenodd" fill-opacity="1.000"/>
    </g>
    <g class="thermal-contour" data-segment="20" data-name="CoreContourHatchOverhang">
    <path d="M 52.6151 113.415 L 52.2939 113.715 L 52.2798 113.722 L 52.2379 113.711 L 52.1609 113.692 L 52.1884 113.671 L 52.2441 113.684 L 52.2771 113.694 L 52.2783 113.693 L 52.5804 113.41 L 52.5623 113.381 L 52.5837 113.365 L 52.6151 113.415" fill="none" stroke="#E64A19" stroke-width="0.05000" fill-rule="evenodd" fill-opacity="1.000"/>
    </g>
    <!-- ===== Thermal Segment Colour Legend ===== -->
    <g id="thermal-legend">
    <rect x="161.0000" y="5.0000" width="40.0000" height="72.0000"
          rx="1" ry="1"
          fill="#fafafa" stroke="#cccccc" stroke-width="0.15"/>
    <text x="181.0000" y="7.6000" font-family="sans-serif" font-size="2.2000" font-weight="bold" fill="#222222" text-anchor="middle">Thermal Segments</text>
    <line x1="161.5000" y1="8.7000" x2="200.5000" y2="8.7000" stroke="#bbbbbb" stroke-width="0.1"/>
    <rect x="161.8000" y="9.0000" width="3.5000" height="2.0000" fill="#000000" stroke="#333333" stroke-width="0.08" rx="0.3" ry="0.3"/>
    <text x="168.6000" y="10.9000" font-family="monospace" font-size="1.6000" fill="#444444" text-anchor="end"> 1</text>
    <text x="169.6000" y="10.9000" font-family="sans-serif" font-size="1.6000" fill="#111111">CoreContour_Volume</text>
    <rect x="161.8000" y="12.0000" width="3.5000" height="2.0000" fill="#8B0000" stroke="#333333" stroke-width="0.08" rx="0.3" ry="0.3"/>
    <text x="168.6000" y="13.9000" font-family="monospace" font-size="1.6000" fill="#444444" text-anchor="end"> 2</text>
    <text x="169.6000" y="13.9000" font-family="sans-serif" font-size="1.6000" fill="#111111">CoreContour_Overhang</text>
    <rect x="161.8000" y="15.0000" width="3.5000" height="2.0000" fill="#0000CC" stroke="#333333" stroke-width="0.08" rx="0.3" ry="0.3"/>
    <text x="168.6000" y="16.9000" font-family="monospace" font-size="1.6000" fill="#444444" text-anchor="end"> 3</text>
    <text x="169.6000" y="16.9000" font-family="sans-serif" font-size="1.6000" fill="#111111">Shell1Contour_Volume</text>
    <rect x="161.8000" y="18.0000" width="3.5000" height="2.0000" fill="#000080" stroke="#333333" stroke-width="0.08" rx="0.3" ry="0.3"/>
    <text x="168.6000" y="19.9000" font-family="monospace" font-size="1.6000" fill="#444444" text-anchor="end"> 4</text>
    <text x="169.6000" y="19.9000" font-family="sans-serif" font-size="1.6000" fill="#111111">Shell1Contour_Overhang</text>
    <rect x="161.8000" y="21.0000" width="3.5000" height="2.0000" fill="#B8860B" stroke="#333333" stroke-width="0.08" rx="0.3" ry="0.3"/>
    <text x="168.6000" y="22.9000" font-family="monospace" font-size="1.6000" fill="#444444" text-anchor="end"> 5</text>
    <text x="169.6000" y="22.9000" font-family="sans-serif" font-size="1.6000" fill="#111111">Shell2Contour_Volume</text>
    <rect x="161.8000" y="24.0000" width="3.5000" height="2.0000" fill="#006400" stroke="#333333" stroke-width="0.08" rx="0.3" ry="0.3"/>
    <text x="168.6000" y="25.9000" font-family="monospace" font-size="1.6000" fill="#444444" text-anchor="end"> 6</text>
    <text x="169.6000" y="25.9000" font-family="sans-serif" font-size="1.6000" fill="#111111">Shell2Contour_Overhang</text>
    <rect x="161.8000" y="27.0000" width="3.5000" height="2.0000" fill="#FF8C00" stroke="#333333" stroke-width="0.08" rx="0.3" ry="0.3"/>
    <text x="168.6000" y="28.9000" font-family="monospace" font-size="1.6000" fill="#444444" text-anchor="end"> 7</text>
    <text x="169.6000" y="28.9000" font-family="sans-serif" font-size="1.6000" fill="#111111">CoreOverhangHatch</text>
    <rect x="161.8000" y="30.0000" width="3.5000" height="2.0000" fill="#228B22" stroke="#333333" stroke-width="0.08" rx="0.3" ry="0.3"/>
    <text x="168.6000" y="31.9000" font-family="monospace" font-size="1.6000" fill="#444444" text-anchor="end"> 8</text>
    <text x="169.6000" y="31.9000" font-family="sans-serif" font-size="1.6000" fill="#111111">CoreNormalHatch</text>
    <rect x="161.8000" y="33.0000" width="3.5000" height="2.0000" fill="#800080" stroke="#333333" stroke-width="0.08" rx="0.3" ry="0.3"/>
    <text x="168.6000" y="34.9000" font-family="monospace" font-size="1.6000" fill="#444444" text-anchor="end"> 9</text>
    <text x="169.6000" y="34.9000" font-family="sans-serif" font-size="1.6000" fill="#111111">CoreContourHatch</text>
    <rect x="161.8000" y="36.0000" width="3.5000" height="2.0000" fill="#FF69B4" stroke="#333333" stroke-width="0.08" rx="0.3" ry="0.3"/>
    <text x="168.6000" y="37.9000" font-family="monospace" font-size="1.6000" fill="#444444" text-anchor="end">10</text>
    <text x="169.6000" y="37.9000" font-family="sans-serif" font-size="1.6000" fill="#111111">Shell1OverhangHatch</text>
    <rect x="161.8000" y="39.0000" width="3.5000" height="2.0000" fill="#00CED1" stroke="#333333" stroke-width="0.08" rx="0.3" ry="0.3"/>
    <text x="168.6000" y="40.9000" font-family="monospace" font-size="1.6000" fill="#444444" text-anchor="end">11</text>
    <text x="169.6000" y="40.9000" font-family="sans-serif" font-size="1.6000" fill="#111111">Shell1NormalHatch</text>
    <rect x="161.8000" y="42.0000" width="3.5000" height="2.0000" fill="#FF00FF" stroke="#333333" stroke-width="0.08" rx="0.3" ry="0.3"/>
    <text x="168.6000" y="43.9000" font-family="monospace" font-size="1.6000" fill="#444444" text-anchor="end">12</text>
    <text x="169.6000" y="43.9000" font-family="sans-serif" font-size="1.6000" fill="#111111">Shell1ContourHatch</text>
    <rect x="161.8000" y="45.0000" width="3.5000" height="2.0000" fill="#A52A2A" stroke="#333333" stroke-width="0.08" rx="0.3" ry="0.3"/>
    <text x="168.6000" y="46.9000" font-family="monospace" font-size="1.6000" fill="#444444" text-anchor="end">13</text>
    <text x="169.6000" y="46.9000" font-family="sans-serif" font-size="1.6000" fill="#111111">Shell2OverhangHatch</text>
    <rect x="161.8000" y="48.0000" width="3.5000" height="2.0000" fill="#808080" stroke="#333333" stroke-width="0.08" rx="0.3" ry="0.3"/>
    <text x="168.6000" y="49.9000" font-family="monospace" font-size="1.6000" fill="#444444" text-anchor="end">14</text>
    <text x="169.6000" y="49.9000" font-family="sans-serif" font-size="1.6000" fill="#111111">Shell2NormalHatch</text>
    <rect x="161.8000" y="51.0000" width="3.5000" height="2.0000" fill="#32CD32" stroke="#333333" stroke-width="0.08" rx="0.3" ry="0.3"/>
    <text x="168.6000" y="52.9000" font-family="monospace" font-size="1.6000" fill="#444444" text-anchor="end">15</text>
    <text x="169.6000" y="52.9000" font-family="sans-serif" font-size="1.6000" fill="#111111">Shell2ContourHatch</text>
    <rect x="161.8000" y="54.0000" width="3.5000" height="2.0000" fill="#1A237E" stroke="#333333" stroke-width="0.08" rx="0.3" ry="0.3"/>
    <text x="168.6000" y="55.9000" font-family="monospace" font-size="1.6000" fill="#444444" text-anchor="end">16</text>
    <text x="169.6000" y="55.9000" font-family="sans-serif" font-size="1.6000" fill="#111111">SupportContourVolume</text>
    <rect x="161.8000" y="57.0000" width="3.5000" height="2.0000" fill="#827717" stroke="#333333" stroke-width="0.08" rx="0.3" ry="0.3"/>
    <text x="168.6000" y="58.9000" font-family="monospace" font-size="1.6000" fill="#444444" text-anchor="end">17</text>
    <text x="169.6000" y="58.9000" font-family="sans-serif" font-size="1.6000" fill="#111111">SupportHatch</text>
    <rect x="161.8000" y="60.0000" width="3.5000" height="2.0000" fill="#006064" stroke="#333333" stroke-width="0.08" rx="0.3" ry="0.3"/>
    <text x="168.6000" y="61.9000" font-family="monospace" font-size="1.6000" fill="#444444" text-anchor="end">18</text>
    <text x="169.6000" y="61.9000" font-family="sans-serif" font-size="1.6000" fill="#111111">PointSequence</text>
    <rect x="161.8000" y="63.0000" width="3.5000" height="2.0000" fill="#B71C1C" stroke="#333333" stroke-width="0.08" rx="0.3" ry="0.3"/>
    <text x="168.6000" y="64.9000" font-family="monospace" font-size="1.6000" fill="#444444" text-anchor="end">19</text>
    <text x="169.6000" y="64.9000" font-family="sans-serif" font-size="1.6000" fill="#111111">ExternalSupports</text>
    <rect x="161.8000" y="66.0000" width="3.5000" height="2.0000" fill="#E64A19" stroke="#333333" stroke-width="0.08" rx="0.3" ry="0.3"/>
    <text x="168.6000" y="67.9000" font-family="monospace" font-size="1.6000" fill="#444444" text-anchor="end">20</text>
    <text x="169.6000" y="67.9000" font-family="sans-serif" font-size="1.6000" fill="#111111">CoreContourHatchOverhang</text>
    <rect x="161.8000" y="69.0000" width="3.5000" height="2.0000" fill="#311B92" stroke="#333333" stroke-width="0.08" rx="0.3" ry="0.3"/>
    <text x="168.6000" y="70.9000" font-family="monospace" font-size="1.6000" fill="#444444" text-anchor="end">21</text>
    <text x="169.6000" y="70.9000" font-family="sans-serif" font-size="1.6000" fill="#111111">Shell1ContourHatchOverhang</text>
    <rect x="161.8000" y="72.0000" width="3.5000" height="2.0000" fill="#880E4F" stroke="#333333" stroke-width="0.08" rx="0.3" ry="0.3"/>
    <text x="168.6000" y="73.9000" font-family="monospace" font-size="1.6000" fill="#444444" text-anchor="end">22</text>
    <text x="169.6000" y="73.9000" font-family="sans-serif" font-size="1.6000" fill="#111111">Shell2ContourHatchOverhang</text>
    </g>
  </g>
</svg>
