<?xml version="1.0" encoding="UTF-8" standalone="yes"?>
<svg xmlns="http://www.w3.org/2000/svg"
     xmlns:xlink="http://www.w3.org/1999/xlink"
     width="2020.0000mm" height="1600.0000mm"
     viewBox="0 0 202.000000 160.000000">
  <!--
    Build plate : 150.00 x 150.00 mm
    Coordinate  : 1 SVG unit = 1 mm
    Display zoom: 10x  (width/height = viewBox x 10)
    Hatch stroke: 0.04 mm = ~28 mm on screen at this zoom
    Legend panel: right margin (42 mm wide)
  -->
  <defs>
    <marker id="endArrow" markerWidth="2" markerHeight="1.4"
            refX="0" refY="0.7" orient="auto"
            markerUnits="strokeWidth">
      <polyline fill="darkblue" points="0,0 2,0.7 0,1.4 0.2,0.7"/>
    </marker>
  </defs>
  <!-- Background -->
  <rect x="0" y="0" width="202.000000" height="160.000000" fill="#f0f0f0" stroke="none"/>
  <!-- Build plate boundary (150 x 150 mm) -->
  <rect x="5.000000" y="5.000000" width="150.000000" height="150.000000"
        fill="#ffffff" stroke="#aaaaaa" stroke-width="0.2" stroke-dasharray="1,0.5"/>
  <!-- Build plate centre circle (r = 75.00 mm) -->
  <circle cx="80.000000" cy="80.000000" r="75.000000"
          fill="none" stroke="#bbbbbb" stroke-width="0.15" stroke-dasharray="0.8,0.4"/>
  <!-- Centre cross-hair -->
  <line x1="5.000000" y1="80.000000" x2="155.000000" y2="80.000000" stroke="#cccccc" stroke-width="0.1"/>
  <line x1="80.000000" y1="5.000000" x2="80.000000" y2="155.000000" stroke="#cccccc" stroke-width="0.1"/>
  <circle cx="80.000000" cy="80.000000" r="0.3" fill="#cccccc" stroke="none"/>
  <!-- Corner labels -->
  <text x="5.400000" y="4.600000" font-family="sans-serif" font-size="2" fill="#888888">0,0</text>
  <text x="154.600006" y="4.600000" font-family="sans-serif" font-size="2" fill="#888888" text-anchor="end">150,0</text>
  <text x="5.400000" y="157.199997" font-family="sans-serif" font-size="2" fill="#888888">0,150</text>
  <!-- Layer geometry -->
  <g id="geometry">
    <g class="thermal-hatch" data-segment="8" data-name="CoreNormalHatch">
      <line x1="36.54121" y1="88.79132" x2="36.37426" y2="88.12172" stroke="#228B22" stroke-width="0.04000"/>
      <line x1="36.64180" y1="88.78140" x2="36.45675" y2="88.03922" stroke="#228B22" stroke-width="0.04000"/>
      <line x1="36.43545" y1="88.78048" x2="36.29177" y2="88.20422" stroke="#228B22" stroke-width="0.04000"/>
      <line x1="36.73880" y1="88.75710" x2="36.53925" y2="87.95673" stroke="#228B22" stroke-width="0.04000"/>
      <line x1="36.32030" y1="88.73202" x2="36.20927" y2="88.28671" stroke="#228B22" stroke-width="0.04000"/>
      <line x1="36.83233" y1="88.71886" x2="36.62174" y2="87.87424" stroke="#228B22" stroke-width="0.04000"/>
      <line x1="36.92268" y1="88.66789" x2="36.71171" y2="87.82171" stroke="#228B22" stroke-width="0.04000"/>
      <line x1="37.00930" y1="88.60192" x2="36.82157" y2="87.84899" stroke="#228B22" stroke-width="0.04000"/>
      <line x1="36.18417" y1="88.59936" x2="36.12678" y2="88.36919" stroke="#228B22" stroke-width="0.04000"/>
      <line x1="37.09150" y1="88.51829" x2="36.92502" y2="87.85054" stroke="#228B22" stroke-width="0.04000"/>
      <line x1="37.17186" y1="88.42722" x2="37.00751" y2="87.76804" stroke="#228B22" stroke-width="0.04000"/>
      <line x1="37.25166" y1="88.33390" x2="37.09000" y2="87.68555" stroke="#228B22" stroke-width="0.04000"/>
      <line x1="37.33213" y1="88.24331" x2="37.17250" y2="87.60306" stroke="#228B22" stroke-width="0.04000"/>
      <line x1="37.41280" y1="88.15350" x2="37.25499" y2="87.52057" stroke="#228B22" stroke-width="0.04000"/>
      <line x1="37.49347" y1="88.06371" x2="37.33748" y2="87.43807" stroke="#228B22" stroke-width="0.04000"/>
      <line x1="37.57407" y1="87.97360" x2="37.41998" y2="87.35558" stroke="#228B22" stroke-width="0.04000"/>
      <line x1="37.65536" y1="87.88631" x2="37.50247" y2="87.27308" stroke="#228B22" stroke-width="0.04000"/>
      <line x1="37.73754" y1="87.80254" x2="37.58496" y2="87.19059" stroke="#228B22" stroke-width="0.04000"/>
      <line x1="37.81972" y1="87.71877" x2="37.66746" y2="87.10810" stroke="#228B22" stroke-width="0.04000"/>
      <line x1="37.90189" y1="87.63501" x2="37.74995" y2="87.02560" stroke="#228B22" stroke-width="0.04000"/>
      <line x1="37.98407" y1="87.55124" x2="37.83244" y2="86.94311" stroke="#228B22" stroke-width="0.04000"/>
      <line x1="38.06583" y1="87.46583" x2="37.91494" y2="86.86062" stroke="#228B22" stroke-width="0.04000"/>
      <line x1="38.14711" y1="87.37845" x2="37.99743" y2="86.77812" stroke="#228B22" stroke-width="0.04000"/>
      <line x1="38.22838" y1="87.29107" x2="38.07993" y2="86.69563" stroke="#228B22" stroke-width="0.04000"/>
      <line x1="38.31045" y1="87.20687" x2="38.16242" y2="86.61314" stroke="#228B22" stroke-width="0.04000"/>
      <line x1="38.39323" y1="87.12553" x2="38.24491" y2="86.53064" stroke="#228B22" stroke-width="0.04000"/>
      <line x1="38.47601" y1="87.04420" x2="38.32740" y2="86.44815" stroke="#228B22" stroke-width="0.04000"/>
      <line x1="38.55886" y1="86.96314" x2="38.40990" y2="86.36565" stroke="#228B22" stroke-width="0.04000"/>
      <line x1="38.64191" y1="86.88285" x2="38.49239" y2="86.28316" stroke="#228B22" stroke-width="0.04000"/>
      <line x1="38.72495" y1="86.80256" x2="38.57489" y2="86.20067" stroke="#228B22" stroke-width="0.04000"/>
      <line x1="38.80799" y1="86.72227" x2="38.65738" y2="86.11817" stroke="#228B22" stroke-width="0.04000"/>
      <line x1="38.89104" y1="86.64198" x2="38.73987" y2="86.03568" stroke="#228B22" stroke-width="0.04000"/>
      <line x1="38.97408" y1="86.56168" x2="38.82236" y2="85.95319" stroke="#228B22" stroke-width="0.04000"/>
      <line x1="39.05697" y1="86.48079" x2="38.90486" y2="85.87069" stroke="#228B22" stroke-width="0.04000"/>
      <line x1="39.13974" y1="86.39939" x2="38.98735" y2="85.78820" stroke="#228B22" stroke-width="0.04000"/>
      <line x1="39.22250" y1="86.31799" x2="39.06984" y2="85.70570" stroke="#228B22" stroke-width="0.04000"/>
      <line x1="39.30542" y1="86.23718" x2="39.15234" y2="85.62321" stroke="#228B22" stroke-width="0.04000"/>
      <line x1="39.38901" y1="86.15910" x2="39.23483" y2="85.54073" stroke="#228B22" stroke-width="0.04000"/>
      <line x1="39.47199" y1="86.07856" x2="39.31733" y2="85.45824" stroke="#228B22" stroke-width="0.04000"/>
      <line x1="39.55487" y1="85.99760" x2="39.39982" y2="85.37573" stroke="#228B22" stroke-width="0.04000"/>
      <line x1="39.63747" y1="85.91553" x2="39.48231" y2="85.29324" stroke="#228B22" stroke-width="0.04000"/>
      <line x1="39.72196" y1="85.84107" x2="39.56480" y2="85.21075" stroke="#228B22" stroke-width="0.04000"/>
      <line x1="39.80566" y1="85.76342" x2="39.64730" y2="85.12826" stroke="#228B22" stroke-width="0.04000"/>
      <line x1="39.88857" y1="85.68256" x2="39.72979" y2="85.04577" stroke="#228B22" stroke-width="0.04000"/>
      <line x1="39.97147" y1="85.60170" x2="39.81229" y2="84.96327" stroke="#228B22" stroke-width="0.04000"/>
      <line x1="40.05417" y1="85.52004" x2="39.89478" y2="84.88078" stroke="#228B22" stroke-width="0.04000"/>
      <line x1="40.13803" y1="85.44304" x2="39.97728" y2="84.79828" stroke="#228B22" stroke-width="0.04000"/>
      <line x1="40.22336" y1="85.37193" x2="40.05977" y2="84.71579" stroke="#228B22" stroke-width="0.04000"/>
      <line x1="40.30797" y1="85.29790" x2="40.14226" y2="84.63329" stroke="#228B22" stroke-width="0.04000"/>
      <line x1="40.39122" y1="85.21847" x2="40.22475" y2="84.55080" stroke="#228B22" stroke-width="0.04000"/>
      <line x1="40.47766" y1="85.15179" x2="40.30725" y2="84.46832" stroke="#228B22" stroke-width="0.04000"/>
      <line x1="40.56409" y1="85.08511" x2="40.38974" y2="84.38582" stroke="#228B22" stroke-width="0.04000"/>
      <line x1="40.64772" y1="85.00714" x2="40.47223" y2="84.30331" stroke="#228B22" stroke-width="0.04000"/>
      <line x1="40.73135" y1="84.92923" x2="40.55473" y2="84.22083" stroke="#228B22" stroke-width="0.04000"/>
      <line x1="40.81557" y1="84.85365" x2="40.63722" y2="84.13834" stroke="#228B22" stroke-width="0.04000"/>
      <line x1="40.90083" y1="84.78227" x2="40.71972" y2="84.05584" stroke="#228B22" stroke-width="0.04000"/>
      <line x1="40.98862" y1="84.72102" x2="40.80221" y2="83.97334" stroke="#228B22" stroke-width="0.04000"/>
      <line x1="41.07642" y1="84.65978" x2="40.88470" y2="83.89085" stroke="#228B22" stroke-width="0.04000"/>
      <line x1="41.16296" y1="84.59351" x2="40.96719" y2="83.80836" stroke="#228B22" stroke-width="0.04000"/>
      <line x1="41.24972" y1="84.52817" x2="41.04969" y2="83.72587" stroke="#228B22" stroke-width="0.04000"/>
      <line x1="41.33650" y1="84.46284" x2="41.13218" y2="83.64337" stroke="#228B22" stroke-width="0.04000"/>
      <line x1="41.42300" y1="84.39645" x2="41.21468" y2="83.56088" stroke="#228B22" stroke-width="0.04000"/>
      <line x1="41.50926" y1="84.32903" x2="41.29717" y2="83.47839" stroke="#228B22" stroke-width="0.04000"/>
      <line x1="41.59587" y1="84.26308" x2="41.37966" y2="83.39589" stroke="#228B22" stroke-width="0.04000"/>
      <line x1="41.68077" y1="84.19022" x2="41.46215" y2="83.31340" stroke="#228B22" stroke-width="0.04000"/>
      <line x1="41.76590" y1="84.11829" x2="41.48885" y2="83.00712" stroke="#228B22" stroke-width="0.04000"/>
      <line x1="41.85064" y1="84.04482" x2="41.57135" y2="82.92463" stroke="#228B22" stroke-width="0.04000"/>
      <line x1="41.93263" y1="83.96030" x2="41.65384" y2="82.84213" stroke="#228B22" stroke-width="0.04000"/>
      <line x1="42.00959" y1="83.85560" x2="41.73633" y2="82.75964" stroke="#228B22" stroke-width="0.04000"/>
      <line x1="42.07664" y1="83.71117" x2="41.85392" y2="82.81789" stroke="#228B22" stroke-width="0.04000"/>
      <line x1="42.11510" y1="83.45207" x2="42.04456" y2="83.16914" stroke="#228B22" stroke-width="0.04000"/>
    </g>
    <g class="thermal-hatch" data-segment="8" data-name="CoreNormalHatch">
      <line x1="41.69970" y1="83.48570" x2="41.82500" y2="83.45450" stroke="#228B22" stroke-width="0.04000"/>
      <line x1="41.81700" y1="83.55960" x2="41.56240" y2="83.62300" stroke="#228B22" stroke-width="0.04000"/>
      <line x1="41.44850" y1="83.75450" x2="41.78000" y2="83.67180" stroke="#228B22" stroke-width="0.04000"/>
      <line x1="41.68740" y1="83.79800" x2="41.44850" y2="83.85750" stroke="#228B22" stroke-width="0.04000"/>
      <line x1="41.44850" y1="83.91120" x2="41.41370" y2="83.77190" stroke="#228B22" stroke-width="0.04000"/>
      <line x1="41.52540" y1="83.94140" x2="41.44850" y2="83.96060" stroke="#228B22" stroke-width="0.04000"/>
      <line x1="41.38260" y1="84.06070" x2="41.33120" y2="83.85440" stroke="#228B22" stroke-width="0.04000"/>
      <line x1="41.24870" y1="83.93690" x2="41.29610" y2="84.12720" stroke="#228B22" stroke-width="0.04000"/>
      <line x1="41.21000" y1="84.19500" x2="41.16620" y2="84.01940" stroke="#228B22" stroke-width="0.04000"/>
      <line x1="41.08370" y1="84.10190" x2="41.12320" y2="84.26040" stroke="#228B22" stroke-width="0.04000"/>
      <line x1="41.03640" y1="84.32570" x2="41.00120" y2="84.18440" stroke="#228B22" stroke-width="0.04000"/>
      <line x1="40.91870" y1="84.26690" x2="40.94970" y2="84.39110" stroke="#228B22" stroke-width="0.04000"/>
      <line x1="40.86260" y1="84.45500" x2="40.83620" y2="84.34940" stroke="#228B22" stroke-width="0.04000"/>
      <line x1="40.75370" y1="84.43180" x2="40.77480" y2="84.51640" stroke="#228B22" stroke-width="0.04000"/>
      <line x1="40.68630" y1="84.57490" x2="40.67120" y2="84.51430" stroke="#228B22" stroke-width="0.04000"/>
      <line x1="40.58880" y1="84.59680" x2="40.60270" y2="84.65270" stroke="#228B22" stroke-width="0.04000"/>
      <line x1="40.51900" y1="84.73060" x2="40.50620" y2="84.67940" stroke="#228B22" stroke-width="0.04000"/>
      <line x1="40.42380" y1="84.76180" x2="40.43540" y2="84.80860" stroke="#228B22" stroke-width="0.04000"/>
      <line x1="40.35090" y1="84.88300" x2="40.34130" y2="84.84420" stroke="#228B22" stroke-width="0.04000"/>
      <line x1="40.25870" y1="84.92680" x2="40.26450" y2="84.94980" stroke="#228B22" stroke-width="0.04000"/>
      <line x1="40.17880" y1="85.01930" x2="40.17630" y2="85.00930" stroke="#228B22" stroke-width="0.04000"/>
      <line x1="40.09380" y1="85.09180" x2="40.09570" y2="85.09940" stroke="#228B22" stroke-width="0.04000"/>
      <line x1="36.95970" y1="88.22890" x2="36.94720" y2="88.17890" stroke="#228B22" stroke-width="0.04000"/>
      <line x1="36.83730" y1="88.15160" x2="36.87930" y2="88.32030" stroke="#228B22" stroke-width="0.04000"/>
      <line x1="36.78920" y1="88.37180" x2="36.73820" y2="88.16760" stroke="#228B22" stroke-width="0.04000"/>
      <line x1="36.65580" y1="88.25020" x2="36.68610" y2="88.37180" stroke="#228B22" stroke-width="0.04000"/>
      <line x1="36.58300" y1="88.37180" x2="36.57320" y2="88.33280" stroke="#228B22" stroke-width="0.04000"/>
      <line x1="36.72760" y1="88.37180" x2="36.47000" y2="88.43600" stroke="#228B22" stroke-width="0.04000"/>
    </g>
    <g class="thermal-hatch" data-segment="9" data-name="CoreContourHatch">
      <line x1="41.79790" y1="83.38760" x2="41.79030" y2="83.35700" stroke="#800080" stroke-width="0.04000"/>
      <line x1="41.72430" y1="83.42300" x2="41.73190" y2="83.45360" stroke="#800080" stroke-width="0.04000"/>
      <line x1="41.66590" y1="83.51960" x2="41.65830" y2="83.48900" stroke="#800080" stroke-width="0.04000"/>
      <line x1="41.82470" y1="83.49530" x2="41.84280" y2="83.56770" stroke="#800080" stroke-width="0.04000"/>
      <line x1="41.59990" y1="83.58550" x2="41.59230" y2="83.55500" stroke="#800080" stroke-width="0.04000"/>
      <line x1="41.52630" y1="83.62090" x2="41.53390" y2="83.65150" stroke="#800080" stroke-width="0.04000"/>
      <line x1="41.79420" y1="83.70330" x2="41.78420" y2="83.66340" stroke="#800080" stroke-width="0.04000"/>
      <line x1="41.46040" y1="83.68710" x2="41.46800" y2="83.71770" stroke="#800080" stroke-width="0.04000"/>
      <line x1="41.40200" y1="83.78370" x2="41.39440" y2="83.75310" stroke="#800080" stroke-width="0.04000"/>
      <line x1="41.72510" y1="83.75700" x2="41.73300" y2="83.78850" stroke="#800080" stroke-width="0.04000"/>
      <line x1="41.33590" y1="83.84980" x2="41.32830" y2="83.81920" stroke="#800080" stroke-width="0.04000"/>
      <line x1="41.65990" y1="83.82630" x2="41.66730" y2="83.85590" stroke="#800080" stroke-width="0.04000"/>
      <line x1="41.59940" y1="83.91440" x2="41.59210" y2="83.88530" stroke="#800080" stroke-width="0.04000"/>
      <line x1="41.26230" y1="83.88510" x2="41.26990" y2="83.91580" stroke="#800080" stroke-width="0.04000"/>
      <line x1="41.53130" y1="83.97170" x2="41.52400" y2="83.94260" stroke="#800080" stroke-width="0.04000"/>
      <line x1="41.19640" y1="83.95110" x2="41.20400" y2="83.98170" stroke="#800080" stroke-width="0.04000"/>
      <line x1="41.46350" y1="84.03020" x2="41.45610" y2="84.00080" stroke="#800080" stroke-width="0.04000"/>
      <line x1="41.13040" y1="84.01710" x2="41.13800" y2="84.04770" stroke="#800080" stroke-width="0.04000"/>
      <line x1="41.39470" y1="84.08550" x2="41.38750" y2="84.05690" stroke="#800080" stroke-width="0.04000"/>
      <line x1="41.06430" y1="84.08310" x2="41.07190" y2="84.11370" stroke="#800080" stroke-width="0.04000"/>
      <line x1="41.32550" y1="84.13830" x2="41.31830" y2="84.10980" stroke="#800080" stroke-width="0.04000"/>
      <line x1="40.99830" y1="84.14910" x2="41.00590" y2="84.17970" stroke="#800080" stroke-width="0.04000"/>
      <line x1="41.25660" y1="84.19270" x2="41.24940" y2="84.16400" stroke="#800080" stroke-width="0.04000"/>
      <line x1="40.93240" y1="84.21510" x2="40.94000" y2="84.24560" stroke="#800080" stroke-width="0.04000"/>
      <line x1="41.18740" y1="84.24580" x2="41.18030" y2="84.21740" stroke="#800080" stroke-width="0.04000"/>
      <line x1="41.11080" y1="84.26970" x2="41.11790" y2="84.29810" stroke="#800080" stroke-width="0.04000"/>
      <line x1="40.87400" y1="84.31160" x2="40.86640" y2="84.28100" stroke="#800080" stroke-width="0.04000"/>
      <line x1="41.04140" y1="84.32190" x2="41.04860" y2="84.35040" stroke="#800080" stroke-width="0.04000"/>
      <line x1="40.80790" y1="84.37770" x2="40.80030" y2="84.34710" stroke="#800080" stroke-width="0.04000"/>
      <line x1="40.97210" y1="84.37430" x2="40.97920" y2="84.40280" stroke="#800080" stroke-width="0.04000"/>
      <line x1="40.74190" y1="84.44360" x2="40.73430" y2="84.41290" stroke="#800080" stroke-width="0.04000"/>
      <line x1="40.90280" y1="84.42690" x2="40.90980" y2="84.45490" stroke="#800080" stroke-width="0.04000"/>
      <line x1="40.83950" y1="84.50410" x2="40.83250" y2="84.47610" stroke="#800080" stroke-width="0.04000"/>
      <line x1="40.66840" y1="84.47900" x2="40.67600" y2="84.50960" stroke="#800080" stroke-width="0.04000"/>
      <line x1="40.76930" y1="84.55310" x2="40.76230" y2="84.52510" stroke="#800080" stroke-width="0.04000"/>
      <line x1="40.60240" y1="84.54500" x2="40.61000" y2="84.57560" stroke="#800080" stroke-width="0.04000"/>
      <line x1="40.69860" y1="84.60030" x2="40.69110" y2="84.57040" stroke="#800080" stroke-width="0.04000"/>
      <line x1="40.53640" y1="84.61100" x2="40.54400" y2="84.64160" stroke="#800080" stroke-width="0.04000"/>
      <line x1="40.63170" y1="84.66260" x2="40.62420" y2="84.63270" stroke="#800080" stroke-width="0.04000"/>
      <line x1="40.47040" y1="84.67700" x2="40.47800" y2="84.70760" stroke="#800080" stroke-width="0.04000"/>
      <line x1="40.56480" y1="84.72500" x2="40.55730" y2="84.69500" stroke="#800080" stroke-width="0.04000"/>
      <line x1="40.40440" y1="84.74300" x2="40.41200" y2="84.77360" stroke="#800080" stroke-width="0.04000"/>
      <line x1="40.49780" y1="84.78720" x2="40.49030" y2="84.75730" stroke="#800080" stroke-width="0.04000"/>
      <line x1="40.33840" y1="84.80890" x2="40.34600" y2="84.83950" stroke="#800080" stroke-width="0.04000"/>
      <line x1="40.43100" y1="84.84990" x2="40.42350" y2="84.81990" stroke="#800080" stroke-width="0.04000"/>
      <line x1="40.27240" y1="84.87490" x2="40.28000" y2="84.90560" stroke="#800080" stroke-width="0.04000"/>
      <line x1="40.36310" y1="84.90780" x2="40.35590" y2="84.87920" stroke="#800080" stroke-width="0.04000"/>
      <line x1="40.28670" y1="84.93260" x2="40.29390" y2="84.96120" stroke="#800080" stroke-width="0.04000"/>
      <line x1="40.21400" y1="84.97150" x2="40.20640" y2="84.94090" stroke="#800080" stroke-width="0.04000"/>
      <line x1="40.21760" y1="84.98610" x2="40.22470" y2="85.01460" stroke="#800080" stroke-width="0.04000"/>
      <line x1="40.14800" y1="85.03760" x2="40.14040" y2="85.00700" stroke="#800080" stroke-width="0.04000"/>
      <line x1="40.15030" y1="85.04680" x2="40.15790" y2="85.07700" stroke="#800080" stroke-width="0.04000"/>
      <line x1="40.08200" y1="85.10360" x2="40.07440" y2="85.07300" stroke="#800080" stroke-width="0.04000"/>
      <line x1="40.08370" y1="85.11050" x2="40.09100" y2="85.13950" stroke="#800080" stroke-width="0.04000"/>
      <line x1="40.01890" y1="85.18080" x2="40.00850" y2="85.13890" stroke="#800080" stroke-width="0.04000"/>
      <line x1="36.79230" y1="88.11260" x2="36.79960" y2="88.14220" stroke="#800080" stroke-width="0.04000"/>
      <line x1="36.88750" y1="88.16410" x2="36.88010" y2="88.13440" stroke="#800080" stroke-width="0.04000"/>
      <line x1="36.71890" y1="88.14880" x2="36.72650" y2="88.17940" stroke="#800080" stroke-width="0.04000"/>
      <line x1="36.97550" y1="88.18600" x2="36.96810" y2="88.15630" stroke="#800080" stroke-width="0.04000"/>
      <line x1="36.98020" y1="88.20490" x2="36.98820" y2="88.23700" stroke="#800080" stroke-width="0.04000"/>
      <line x1="36.66050" y1="88.24540" x2="36.65290" y2="88.21480" stroke="#800080" stroke-width="0.04000"/>
      <line x1="36.91630" y1="88.27960" x2="36.92420" y2="88.31120" stroke="#800080" stroke-width="0.04000"/>
      <line x1="36.59450" y1="88.31150" x2="36.58690" y2="88.28090" stroke="#800080" stroke-width="0.04000"/>
      <line x1="36.52090" y1="88.34690" x2="36.52850" y2="88.37750" stroke="#800080" stroke-width="0.04000"/>
      <line x1="36.85930" y1="88.38150" x2="36.85150" y2="88.35020" stroke="#800080" stroke-width="0.04000"/>
      <line x1="36.78430" y1="88.41160" x2="36.79130" y2="88.43930" stroke="#800080" stroke-width="0.04000"/>
      <line x1="36.46250" y1="88.44340" x2="36.45490" y2="88.41280" stroke="#800080" stroke-width="0.04000"/>
      <line x1="36.71260" y1="88.45450" x2="36.71930" y2="88.48120" stroke="#800080" stroke-width="0.04000"/>
      <line x1="36.64430" y1="88.51100" x2="36.63770" y2="88.48480" stroke="#800080" stroke-width="0.04000"/>
      <line x1="36.47190" y1="88.48110" x2="36.48150" y2="88.51950" stroke="#800080" stroke-width="0.04000"/>
      <line x1="36.56570" y1="88.52680" x2="36.55900" y2="88.50010" stroke="#800080" stroke-width="0.04000"/>
    </g>
    <g class="thermal-contour" data-segment="1" data-name="CoreContour_Volume">
    <path d="M 41.8027 82.7316 L 41.8242 82.7649 L 41.9224 82.9401 L 41.9274 82.9488 L 41.9274 82.9488 L 41.9655 83.0152 L 41.9843 83.0455 L 42.0139 83.0977 L 42.0255 83.1254 L 42.0368 83.1532 L 42.0752 83.2319 L 42.0883 83.2756 L 42.0933 83.2912 L 42.1027 83.3366 L 42.1062 83.3522 L 42.1118 83.3993 L 42.1138 83.4143 L 42.1155 83.4631 L 42.1161 83.477 L 42.1136 83.5275 L 42.1131 83.5397 L 42.1061 83.5917 L 42.1048 83.6019 L 42.0931 83.6554 L 42.0915 83.6631 L 42.0746 83.7179 L 42.0731 83.7228 L 42.0508 83.7786 L 42.05 83.7805 L 42.0337 83.8133 L 42.022 83.8361 L 42.0206 83.838 L 41.9865 83.8925 L 41.9519 83.9394 L 41.911 83.9838 L 41.8734 84.024 L 41.8532 84.0426 L 41.8172 84.0748 L 41.8134 84.0783 L 41.6938 84.1789 L 41.6025 84.2581 L 41.4891 84.3444 L 41.3866 84.4252 L 41.2834 84.5028 L 41.2834 84.5028 L 41.2559 84.5235 L 41.1358 84.614 L 41.1204 84.6257 L 41.1111 84.6328 L 41.1005 84.6411 L 41.0944 84.646 L 41.0905 84.6492 L 41.0898 84.6498 L 41.087 84.6522 L 41.0854 84.6535 L 40.8908 84.7893 L 40.8686 84.808 L 40.8553 84.8192 L 40.8184 84.8512 L 40.8051 84.8629 L 40.7776 84.8873 L 40.7442 84.9177 L 40.7423 84.9194 L 40.7421 84.9192 L 40.6827 84.9745 L 40.6555 84.9998 L 40.6179 85.0353 L 40.5698 85.0807 L 40.3855 85.2229 L 40.3416 85.2654 L 40.2817 85.3233 L 40.0999 85.4749 L 39.986 85.5875 L 39.9807 85.5927 L 39.7961 85.7727 L 39.7642 85.8039 L 39.6371 85.9159 L 39.5327 86.0196 L 39.3697 86.1779 L 39.2931 86.2485 L 39.0833 86.4549 L 39.0116 86.5254 L 38.5363 86.9849 L 38.4089 87.1101 L 38.3304 87.1872 L 38.3014 87.2157 L 38.2669 87.2497 L 38.0288 87.5057 L 37.6156 87.9269 L 37.5439 88.0076 L 37.2695 88.313 L 37.1297 88.4766 L 37.0874 88.5227 L 37.0451 88.5681 L 37.0315 88.5826 L 37.0173 88.595 L 37.0167 88.5955 L 37.0057 88.6051 L 36.9748 88.6311 L 36.9706 88.6343 L 36.9578 88.645 L 36.9334 88.6607 L 36.9232 88.6676 L 36.8837 88.6931 L 36.8661 88.7029 L 36.8371 88.7166 L 36.7843 88.7413 L 36.7543 88.7523 L 36.7237 88.7618 L 36.7098 88.7661 L 36.6717 88.7765 L 36.6652 88.7773 L 36.6213 88.785 L 36.6041 88.7874 L 36.595 88.7886 L 36.5483 88.7917 L 36.5417 88.7914 L 36.5413 88.7913 L 36.4913 88.7889 L 36.4806 88.7884 L 36.4803 88.7883 L 36.4776 88.7882 L 36.4284 88.7792 L 36.4226 88.7775 L 36.4225 88.7775 L 36.3758 88.7615 L 36.3687 88.7594 L 36.3271 88.7367 L 36.3222 88.7335 L 36.3221 88.7335 L 36.2867 88.7047 L 36.2823 88.7016 L 36.2399 88.6593 L 36.2344 88.6532 L 36.0453 88.4506 L 36.218 88.278 L 36.218 88.278 L 36.2998 88.1962 L 36.4109 88.0851 L 36.6456 87.8504 L 36.6817 87.8143 L 36.9057 87.8699 L 37.1691 87.6065 L 37.3815 87.3941 L 37.5548 87.2207 L 37.6986 87.077 L 37.979 86.7965 L 37.979 86.7965 L 38.184 86.5916 L 38.4429 86.3326 L 38.6433 86.1323 L 39.064 85.7115 L 39.064 85.7115 L 39.268 85.5075 L 39.2984 85.4772 L 39.4098 85.3658 L 39.4098 85.3658 L 39.524 85.2515 L 39.524 85.2515 L 39.5509 85.2247 L 39.6896 85.0859 L 39.7533 85.0223 L 39.8234 84.9521 L 39.869 84.9066 L 39.9578 84.8178 L 39.985 84.7905 L 39.985 84.7905 L 40.0003 84.7753 L 40.1142 84.6614 L 40.1142 84.6614 L 40.1334 84.6421 L 40.1334 84.6421 L 40.2456 84.53 L 40.2827 84.4928 L 40.2827 84.4928 L 40.3695 84.4061 L 40.3822 84.3934 L 40.3822 84.3934 L 40.5263 84.2492 L 40.5263 84.2492 L 40.7123 84.0632 L 40.7813 83.9943 L 40.9844 83.7912 L 40.9844 83.7912 L 41.0323 83.7433 L 41.0509 83.7247 L 41.3082 83.4674 L 41.3156 83.4599 L 41.3156 83.4599 L 41.5299 83.2457 L 41.5008 83.1935 L 41.4294 83.0666 L 41.497 82.999 L 41.5476 82.9484 L 41.5475 82.9484 L 41.5753 82.9207 L 41.6623 82.8337 L 41.6623 82.8337 L 41.789 82.707 L 41.8027 82.7316" fill="none" stroke="#000000" stroke-width="0.05000" fill-rule="evenodd" fill-opacity="1.000"/>
    </g>
    <g class="thermal-contour" data-segment="1" data-name="CoreContour_Volume">
    <path d="M 41.7486 83.0391 L 41.7539 83.0482 L 41.7539 83.0483 L 41.7937 83.1177 L 41.8125 83.1481 L 41.834 83.186 L 41.8407 83.2018 L 41.854 83.2347 L 41.8883 83.3052 L 41.8973 83.3349 L 41.8996 83.3421 L 41.9071 83.3786 L 41.9087 83.3861 L 41.9134 83.4241 L 41.9142 83.4311 L 41.9157 83.4706 L 41.9158 83.4748 L 41.9138 83.5187 L 41.9136 83.5217 L 41.9078 83.5655 L 41.9074 83.568 L 41.8979 83.6118 L 41.8847 83.6549 L 41.867 83.6992 L 41.8558 83.7218 L 41.8488 83.7352 L 41.8215 83.7789 L 41.7971 83.8119 L 41.7643 83.8477 L 41.7319 83.8822 L 41.7198 83.8936 L 41.6846 83.925 L 41.6831 83.9264 L 41.5638 84.0269 L 41.4764 84.1025 L 41.3666 84.1863 L 41.2664 84.2654 L 41.1633 84.3429 L 41.1356 84.3637 L 41.0154 84.4544 L 40.9993 84.4665 L 40.9886 84.4747 L 40.976 84.4845 L 40.9686 84.4906 L 40.964 84.4942 L 40.7688 84.6305 L 40.7511 84.6454 L 40.7471 84.6414 L 40.5466 84.828 L 40.5188 84.8538 L 40.4805 84.8899 L 40.4396 84.9284 L 40.2545 85.0714 L 40.2026 85.1216 L 40.1473 85.1748 L 39.9653 85.3267 L 39.846 85.4447 L 39.8411 85.4495 L 39.6564 85.6296 L 39.6275 85.6577 L 39.5003 85.7698 L 39.3933 85.8762 L 39.2341 86.0309 L 39.1551 86.1037 L 38.9431 86.3123 L 38.8726 86.3816 L 38.3967 86.8417 L 38.2687 86.9675 L 38.1902 87.0446 L 38.1611 87.0731 L 38.1234 87.1103 L 37.886 87.3657 L 37.4694 87.7903 L 37.3951 87.874 L 37.1191 88.1812 L 36.9799 88.3438 L 36.941 88.3863 L 36.8987 88.4317 L 36.8928 88.438 L 36.8841 88.4457 L 36.8834 88.4463 L 36.877 88.452 L 36.8496 88.4749 L 36.8458 88.4779 L 36.8391 88.4834 L 36.8228 88.494 L 36.8129 88.5007 L 36.7813 88.5211 L 36.775 88.5245 L 36.7518 88.5356 L 36.7072 88.5565 L 36.69 88.5627 L 36.6651 88.5706 L 36.6551 88.5736 L 36.6298 88.5804 L 36.5895 88.5874 L 36.5784 88.589 L 36.577 88.5892 L 36.5466 88.5913 L 36.5153 88.5897 L 36.5144 88.5895 L 36.5 88.5888 L 36.4769 88.5846 L 36.4479 88.5747 L 36.4357 88.568 L 36.4134 88.5499 L 36.3859 88.5225 L 36.3816 88.5178 L 36.3233 88.4554 L 36.3594 88.4194 L 36.5523 88.2265 L 36.7431 88.0355 L 36.9672 88.0913 L 37.3105 87.7479 L 37.5229 87.5355 L 37.6962 87.3621 L 37.84 87.2184 L 38.1204 86.9379 L 38.3254 86.733 L 38.5843 86.474 L 38.7847 86.2737 L 39.2054 85.8529 L 39.4091 85.6492 L 39.4397 85.6188 L 39.5512 85.5072 L 39.665 85.3933 L 39.6922 85.3663 L 39.7603 85.2981 L 40.0994 84.959 L 40.126 84.9323 L 40.1415 84.9169 L 40.2558 84.8026 L 40.2748 84.7835 L 40.3534 84.705 L 40.5236 84.5348 L 40.6677 84.3906 L 40.7829 84.2753 L 40.783 84.2754 L 41.4501 83.6084 L 41.457 83.6013 L 41.7781 83.2803 L 41.678 83.1006 L 41.7453 83.0333 L 41.7486 83.0391" fill="none" stroke="#000000" stroke-width="0.05000" fill-rule="evenodd" fill-opacity="1.000"/>
    <path d="M 36.616 88.2901 L 36.4485 88.4575 L 36.451 88.4603 L 36.4737 88.4829 L 36.4852 88.4923 L 36.5001 88.4973 L 36.5099 88.4991 L 36.5264 88.5 L 36.5272 88.5001 L 36.5458 88.5011 L 36.5674 88.4996 L 36.5749 88.4985 L 36.6107 88.4923 L 36.63 88.4871 L 36.6392 88.4844 L 36.6607 88.4775 L 36.6729 88.4731 L 36.7136 88.4541 L 36.7344 88.4441 L 36.7354 88.4436 L 36.7641 88.4251 L 36.773 88.419 L 36.7858 88.4107 L 36.7894 88.4078 L 36.7919 88.4058 L 36.8182 88.3837 L 36.8242 88.3785 L 36.8255 88.3774 L 36.8298 88.3735 L 36.833 88.3702 L 36.8746 88.3255 L 36.9135 88.283 L 36.9927 88.1903 L 36.7708 88.1351 L 36.616 88.2901" fill="none" stroke="#000000" stroke-width="0.05000" fill-rule="evenodd" fill-opacity="1.000"/>
    <path d="M 41.5206 83.6649 L 41.5142 83.6716 L 40.783 84.4027 L 40.7829 84.4026 L 40.7314 84.4542 L 40.5873 84.5984 L 40.417 84.7687 L 40.3384 84.8472 L 40.3195 84.8662 L 40.205 84.9806 L 40.1897 84.9957 L 40.1898 84.9958 L 40.1631 85.0226 L 40.0313 85.1543 L 40.087 85.1078 L 40.1402 85.0567 L 40.1955 85.0032 L 40.381 84.8599 L 40.4188 84.8244 L 40.4573 84.7881 L 40.4854 84.762 L 40.7493 84.5164 L 40.7598 84.5269 L 40.9097 84.4222 L 40.9131 84.4197 L 40.9197 84.4142 L 40.9336 84.4035 L 40.9449 84.3948 L 40.9613 84.3825 L 41.0815 84.2918 L 41.1093 84.2709 L 41.2111 84.1943 L 41.3114 84.1152 L 41.4186 84.0333 L 41.5054 83.9584 L 41.6229 83.8594 L 41.6239 83.8585 L 41.6599 83.8264 L 41.6681 83.8186 L 41.6979 83.7869 L 41.7275 83.7545 L 41.7473 83.7278 L 41.7702 83.691 L 41.776 83.6801 L 41.7845 83.6629 L 41.7995 83.6253 L 41.8107 83.5889 L 41.8189 83.5508 L 41.824 83.5127 L 41.8257 83.474 L 41.8257 83.4726 L 41.8244 83.4381 L 41.824 83.4343 L 41.824 83.4342 L 41.8199 83.4012 L 41.819 83.397 L 41.8138 83.3718 L 41.5206 83.6649" fill="none" stroke="#000000" stroke-width="0.05000" fill-rule="evenodd" fill-opacity="1.000"/>
    </g>
    <g class="thermal-contour" data-segment="3" data-name="HollowShell1Contour_Volume">
    <path d="M 41.8027 82.7316 L 41.8242 82.7649 L 41.9224 82.9401 L 41.9274 82.9488 L 41.9655 83.0152 L 41.9843 83.0455 L 42.0139 83.0977 L 42.0255 83.1254 L 42.0368 83.1532 L 42.0752 83.2319 L 42.0883 83.2756 L 42.0933 83.2912 L 42.1027 83.3366 L 42.1062 83.3522 L 42.1118 83.3993 L 42.1138 83.4143 L 42.1155 83.4631 L 42.1161 83.477 L 42.1136 83.5275 L 42.1131 83.5397 L 42.1061 83.5917 L 42.1048 83.6019 L 42.0931 83.6554 L 42.0915 83.6631 L 42.0746 83.7179 L 42.0731 83.7228 L 42.0508 83.7786 L 42.05 83.7805 L 42.0337 83.8133 L 42.022 83.8361 L 42.0206 83.838 L 41.9865 83.8925 L 41.9519 83.9394 L 41.911 83.9838 L 41.8734 84.024 L 41.8532 84.0426 L 41.8172 84.0748 L 41.8134 84.0783 L 41.6938 84.1789 L 41.6025 84.2581 L 41.4891 84.3444 L 41.3866 84.4252 L 41.2834 84.5028 L 41.2559 84.5235 L 41.1358 84.614 L 41.1204 84.6257 L 41.1111 84.6328 L 41.1005 84.6411 L 41.0944 84.646 L 41.0905 84.6492 L 41.0898 84.6498 L 41.087 84.6522 L 41.0854 84.6535 L 40.8908 84.7893 L 40.8686 84.808 L 40.8553 84.8192 L 40.8184 84.8512 L 40.8051 84.8629 L 40.7776 84.8873 L 40.7442 84.9177 L 40.7423 84.9194 L 40.7421 84.9192 L 40.6827 84.9745 L 40.6555 84.9998 L 40.6179 85.0353 L 40.5698 85.0807 L 40.3855 85.2229 L 40.3416 85.2654 L 40.2817 85.3233 L 40.0999 85.4749 L 39.986 85.5875 L 39.9807 85.5927 L 39.7961 85.7727 L 39.7642 85.8039 L 39.6371 85.9159 L 39.5327 86.0196 L 39.3697 86.1779 L 39.2931 86.2485 L 39.0833 86.4549 L 39.0116 86.5254 L 38.5363 86.9849 L 38.4089 87.1101 L 38.3304 87.1872 L 38.3014 87.2157 L 38.2669 87.2497 L 38.0288 87.5057 L 37.6156 87.9269 L 37.5439 88.0076 L 37.2695 88.313 L 37.1297 88.4766 L 37.0874 88.5227 L 37.0451 88.5681 L 37.0315 88.5826 L 37.0173 88.595 L 37.0167 88.5955 L 37.0057 88.6051 L 36.9748 88.6311 L 36.9706 88.6343 L 36.9578 88.645 L 36.9334 88.6607 L 36.9232 88.6676 L 36.8837 88.6931 L 36.8661 88.7029 L 36.8371 88.7166 L 36.7843 88.7413 L 36.7543 88.7523 L 36.7237 88.7618 L 36.7098 88.7661 L 36.6717 88.7765 L 36.6652 88.7773 L 36.6213 88.785 L 36.6041 88.7874 L 36.595 88.7886 L 36.5483 88.7917 L 36.5417 88.7914 L 36.5413 88.7913 L 36.4913 88.7889 L 36.4806 88.7884 L 36.4803 88.7883 L 36.4776 88.7882 L 36.4284 88.7792 L 36.4226 88.7775 L 36.4225 88.7775 L 36.3758 88.7615 L 36.3687 88.7594 L 36.3271 88.7367 L 36.3222 88.7335 L 36.3221 88.7335 L 36.2867 88.7047 L 36.2823 88.7016 L 36.2399 88.6593 L 36.2344 88.6532 L 36.0453 88.4506 L 36.218 88.278 L 36.2998 88.1962 L 36.4109 88.0851 L 36.4379 88.058 L 36.4653 88.0651 L 36.5508 88.0865 L 36.4816 88.1558 L 36.2887 88.3487 L 36.1843 88.453 L 36.3081 88.5856 L 36.3131 88.5911 L 36.3467 88.6246 L 36.3471 88.6249 L 36.3798 88.6515 L 36.4075 88.6666 L 36.4515 88.6817 L 36.4514 88.6817 L 36.4888 88.6885 L 36.4983 88.6889 L 36.499 88.6891 L 36.5477 88.6915 L 36.586 88.6889 L 36.591 88.6883 L 36.6043 88.6864 L 36.6504 88.6784 L 36.652 88.6781 L 36.6829 88.6697 L 36.6941 88.6663 L 36.7218 88.6576 L 36.7455 88.649 L 36.7947 88.626 L 36.82 88.614 L 36.8326 88.607 L 36.869 88.5836 L 36.8783 88.5772 L 36.8986 88.5641 L 36.9082 88.5561 L 36.912 88.5532 L 36.9413 88.5286 L 36.9518 88.5194 L 36.9523 88.5189 L 36.9622 88.5103 L 36.9719 88.4999 L 37.0142 88.4545 L 37.0548 88.4102 L 37.1943 88.2471 L 37.4695 87.9408 L 37.5425 87.8586 L 37.9574 87.4357 L 38.1952 87.18 L 38.2313 87.1444 L 38.2603 87.1159 L 38.3388 87.0388 L 38.4665 86.9133 L 38.9421 86.4535 L 39.0132 86.3836 L 39.2241 86.1761 L 39.3019 86.1044 L 39.463 85.9479 L 39.5687 85.8428 L 39.6958 85.7308 L 39.7262 85.7012 L 39.9109 85.5211 L 39.916 85.5161 L 40.0326 85.4008 L 40.2145 85.2491 L 40.2721 85.1935 L 40.32 85.1472 L 40.5053 85.0041 L 40.5492 84.9626 L 40.5871 84.9268 L 40.6146 84.9013 L 40.7446 84.7803 L 40.746 84.7817 L 40.7526 84.7759 L 40.7903 84.7432 L 40.8042 84.7315 L 40.8298 84.7099 L 41.0244 84.5741 L 41.0247 84.5739 L 41.0262 84.5726 L 41.0314 84.5684 L 41.0384 84.5627 L 41.0499 84.5537 L 41.0598 84.5461 L 41.0755 84.5343 L 41.1957 84.4436 L 41.2233 84.4229 L 41.3265 84.3453 L 41.4279 84.2653 L 41.5404 84.1795 L 41.6288 84.1029 L 41.7475 84.0029 L 41.75 84.0008 L 41.7865 83.9681 L 41.8032 83.9526 L 41.8374 83.916 L 41.8747 83.8754 L 41.904 83.8357 L 41.9359 83.7847 L 41.9447 83.7676 L 41.9588 83.7391 L 41.9787 83.6893 L 41.979 83.6885 L 41.9946 83.6376 L 41.9953 83.6345 L 42.0061 83.5848 L 42.0069 83.5787 L 42.0134 83.5306 L 42.0137 83.523 L 42.0159 83.4763 L 42.0156 83.467 L 42.014 83.4228 L 42.0126 83.4118 L 42.0075 83.3694 L 42.0049 83.3577 L 41.9964 83.3164 L 41.9928 83.3052 L 41.9818 83.2686 L 41.9454 83.194 L 41.9329 83.1631 L 41.9329 83.163 L 41.9241 83.1421 L 41.8984 83.0968 L 41.8796 83.0665 L 41.8407 82.9986 L 41.8354 82.9895 L 41.768 82.8693 L 41.5677 83.0697 L 41.5538 83.0834 L 41.5019 82.994 L 41.5476 82.9484 L 41.5475 82.9484 L 41.5753 82.9207 L 41.6623 82.8337 L 41.789 82.707 L 41.8027 82.7316" fill="none" stroke="#0000CC" stroke-width="0.05000" fill-rule="evenodd" fill-opacity="1.000"/>
    <path d="M 41.654 83.263 L 41.3863 83.5306 L 41.3791 83.5379 L 40.783 84.134 L 40.7829 84.1339 L 40.597 84.3199 L 40.4529 84.4641 L 40.3534 84.5636 L 40.3533 84.5635 L 40.3163 84.6007 L 40.2041 84.7128 L 40.185 84.732 L 40.0709 84.8461 L 40.0555 84.8614 L 40.0286 84.8884 L 39.9397 84.9773 L 39.8941 85.0227 L 39.8942 85.0228 L 39.7603 85.1567 L 39.7602 85.1566 L 39.6216 85.2955 L 39.5946 85.3223 L 39.4805 85.4365 L 39.3691 85.548 L 39.3386 85.5783 L 39.1347 85.7822 L 38.714 86.203 L 38.5136 86.4033 L 38.2547 86.6623 L 38.0497 86.8672 L 37.7693 87.1477 L 37.6255 87.2914 L 37.4522 87.4648 L 37.2398 87.6772 L 36.9365 87.9806 L 36.7932 87.9449 L 36.8757 87.8624 L 36.9057 87.8699 L 37.1691 87.6065 L 37.3815 87.3941 L 37.5548 87.2207 L 37.6986 87.077 L 37.979 86.7965 L 38.184 86.5916 L 38.4429 86.3326 L 38.6433 86.1323 L 39.064 85.7115 L 39.268 85.5075 L 39.2984 85.4772 L 39.4098 85.3658 L 39.524 85.2515 L 39.5509 85.2247 L 39.6896 85.0859 L 39.7533 85.0223 L 39.8234 84.9521 L 39.869 84.9066 L 39.9578 84.8178 L 39.985 84.7905 L 40.0003 84.7753 L 40.1142 84.6614 L 40.1334 84.6421 L 40.2456 84.53 L 40.2827 84.4928 L 40.3695 84.4061 L 40.3822 84.3934 L 40.5263 84.2492 L 40.7123 84.0632 L 40.7813 83.9943 L 40.9844 83.7912 L 41.0323 83.7433 L 41.0509 83.7247 L 41.3082 83.4674 L 41.3156 83.4599 L 41.5299 83.2457 L 41.5165 83.2217 L 41.59 83.1482 L 41.654 83.263" fill="none" stroke="#0000CC" stroke-width="0.05000" fill-rule="evenodd" fill-opacity="1.000"/>
    </g>
    <g class="thermal-contour" data-segment="4" data-name="HollowShell1Contour_Overhang">
    <path d="M 36.8757 87.8624 L 36.7932 87.9449 L 36.7124 87.9249 L 36.5508 88.0865 L 36.4653 88.0651 L 36.4379 88.058 L 36.6456 87.8504 L 36.6817 87.8143 L 36.8757 87.8624" fill="none" stroke="#000080" stroke-width="0.05000" fill-rule="evenodd" fill-opacity="1.000"/>
    <path d="M 41.5538 83.0834 L 41.5537 83.0836 L 41.588 83.1446 L 41.59 83.1482 L 41.5165 83.2217 L 41.5008 83.1935 L 41.4294 83.0666 L 41.497 82.999 L 41.4974 82.9986 L 41.5019 82.994 L 41.5538 83.0834" fill="none" stroke="#000080" stroke-width="0.05000" fill-rule="evenodd" fill-opacity="1.000"/>
    </g>
    <g class="thermal-contour" data-segment="5" data-name="HollowShell2Contour_Volume">
    <path d="M 41.8354 82.9895 L 41.8407 82.9986 L 41.8796 83.0665 L 41.8984 83.0968 L 41.9241 83.1421 L 41.9329 83.163 L 41.9329 83.1631 L 41.9454 83.194 L 41.9818 83.2686 L 41.9928 83.3052 L 41.9964 83.3164 L 42.0049 83.3577 L 42.0075 83.3694 L 42.0126 83.4118 L 42.014 83.4228 L 42.0156 83.467 L 42.0159 83.4763 L 42.0137 83.523 L 42.0134 83.5306 L 42.0069 83.5787 L 42.0061 83.5848 L 41.9953 83.6345 L 41.9946 83.6376 L 41.979 83.6885 L 41.9787 83.6893 L 41.9588 83.7391 L 41.9447 83.7676 L 41.9359 83.7847 L 41.904 83.8357 L 41.8747 83.8754 L 41.8374 83.916 L 41.8032 83.9526 L 41.7865 83.9681 L 41.75 84.0008 L 41.7475 84.0029 L 41.6288 84.1029 L 41.5404 84.1795 L 41.4279 84.2653 L 41.3265 84.3453 L 41.2233 84.4229 L 41.1957 84.4436 L 41.0755 84.5343 L 41.0598 84.5461 L 41.0499 84.5537 L 41.0384 84.5627 L 41.0314 84.5684 L 41.0262 84.5726 L 41.0247 84.5739 L 41.0244 84.5741 L 40.8298 84.7099 L 40.8042 84.7315 L 40.7903 84.7432 L 40.7526 84.7759 L 40.746 84.7817 L 40.7446 84.7803 L 40.6146 84.9013 L 40.5871 84.9268 L 40.5492 84.9626 L 40.5053 85.0041 L 40.32 85.1472 L 40.2721 85.1935 L 40.2145 85.2491 L 40.0326 85.4008 L 39.916 85.5161 L 39.9109 85.5211 L 39.7262 85.7012 L 39.6958 85.7308 L 39.5687 85.8428 L 39.463 85.9479 L 39.3019 86.1044 L 39.2241 86.1761 L 39.0132 86.3836 L 38.9421 86.4535 L 38.4665 86.9133 L 38.3388 87.0388 L 38.2603 87.1159 L 38.2313 87.1444 L 38.1952 87.18 L 37.9574 87.4357 L 37.5425 87.8586 L 37.4695 87.9408 L 37.1943 88.2471 L 37.0548 88.4102 L 37.0142 88.4545 L 36.9719 88.4999 L 36.9622 88.5103 L 36.9523 88.5189 L 36.9518 88.5194 L 36.9413 88.5286 L 36.912 88.5532 L 36.9082 88.5561 L 36.8986 88.5641 L 36.8783 88.5772 L 36.869 88.5836 L 36.8326 88.607 L 36.82 88.614 L 36.7947 88.626 L 36.7455 88.649 L 36.7218 88.6576 L 36.6941 88.6663 L 36.6829 88.6697 L 36.652 88.6781 L 36.6504 88.6784 L 36.6043 88.6864 L 36.591 88.6883 L 36.586 88.6889 L 36.5477 88.6915 L 36.499 88.6891 L 36.4983 88.6889 L 36.4888 88.6885 L 36.4514 88.6817 L 36.4515 88.6817 L 36.4075 88.6666 L 36.3798 88.6515 L 36.3471 88.6249 L 36.3467 88.6246 L 36.3131 88.5911 L 36.3081 88.5856 L 36.1843 88.453 L 36.2887 88.3487 L 36.4816 88.1558 L 36.5508 88.0865 L 36.6315 88.1068 L 36.7932 87.9449 L 36.9365 87.9806 L 37.2398 87.6772 L 37.4522 87.4648 L 37.6255 87.2914 L 37.7693 87.1477 L 38.0497 86.8672 L 38.2547 86.6623 L 38.5136 86.4033 L 38.714 86.203 L 39.1347 85.7822 L 39.3386 85.5783 L 39.3691 85.548 L 39.4805 85.4365 L 39.5946 85.3223 L 39.6216 85.2955 L 39.7602 85.1566 L 39.7603 85.1567 L 39.8942 85.0228 L 39.8941 85.0227 L 39.9397 84.9773 L 40.0286 84.8884 L 40.0555 84.8614 L 40.0709 84.8461 L 40.185 84.732 L 40.2041 84.7128 L 40.3163 84.6007 L 40.3533 84.5635 L 40.3534 84.5636 L 40.4529 84.4641 L 40.597 84.3199 L 40.7829 84.1339 L 40.783 84.134 L 41.3791 83.5379 L 41.3863 83.5306 L 41.654 83.263 L 41.59 83.1482 L 41.5909 83.1474 L 41.5674 83.1067 L 41.5538 83.0834 L 41.5677 83.0697 L 41.768 82.8693 L 41.8354 82.9895" fill="none" stroke="#B8860B" stroke-width="0.05000" fill-rule="evenodd" fill-opacity="1.000"/>
    <path d="M 41.678 83.1006 L 41.7781 83.2803 L 41.457 83.6013 L 41.4501 83.6084 L 40.783 84.2754 L 40.7829 84.2753 L 40.6677 84.3906 L 40.5236 84.5348 L 40.3534 84.705 L 40.2748 84.7835 L 40.2558 84.8026 L 40.1415 84.9169 L 40.126 84.9323 L 40.0994 84.959 L 39.7603 85.2981 L 39.6922 85.3663 L 39.665 85.3933 L 39.5512 85.5072 L 39.4397 85.6188 L 39.4091 85.6492 L 39.2054 85.8529 L 38.7847 86.2737 L 38.5843 86.474 L 38.3254 86.733 L 38.1204 86.9379 L 37.84 87.2184 L 37.6962 87.3621 L 37.5229 87.5355 L 37.3105 87.7479 L 36.9672 88.0913 L 36.7431 88.0355 L 36.5523 88.2265 L 36.3594 88.4194 L 36.3233 88.4554 L 36.3816 88.5178 L 36.3859 88.5225 L 36.4134 88.5499 L 36.4357 88.568 L 36.4479 88.5747 L 36.4769 88.5846 L 36.5 88.5888 L 36.5144 88.5895 L 36.5153 88.5897 L 36.5466 88.5913 L 36.577 88.5892 L 36.5784 88.589 L 36.5895 88.5874 L 36.6298 88.5804 L 36.6551 88.5736 L 36.6651 88.5706 L 36.69 88.5627 L 36.7072 88.5565 L 36.7518 88.5356 L 36.775 88.5245 L 36.7813 88.5211 L 36.8129 88.5007 L 36.8228 88.494 L 36.8391 88.4834 L 36.8458 88.4779 L 36.8496 88.4749 L 36.877 88.452 L 36.8834 88.4463 L 36.8841 88.4457 L 36.8928 88.438 L 36.8987 88.4317 L 36.941 88.3863 L 36.9799 88.3438 L 37.1191 88.1812 L 37.3951 87.874 L 37.4694 87.7903 L 37.886 87.3657 L 38.1234 87.1103 L 38.1611 87.0731 L 38.1902 87.0446 L 38.2687 86.9675 L 38.3967 86.8417 L 38.8726 86.3816 L 38.9431 86.3123 L 39.1551 86.1037 L 39.2341 86.0309 L 39.3933 85.8762 L 39.5003 85.7698 L 39.6275 85.6577 L 39.6564 85.6296 L 39.8411 85.4495 L 39.846 85.4447 L 39.9653 85.3267 L 40.1473 85.1748 L 40.2026 85.1216 L 40.2545 85.0714 L 40.4396 84.9284 L 40.4805 84.8899 L 40.5188 84.8538 L 40.5466 84.828 L 40.7471 84.6414 L 40.7511 84.6454 L 40.7688 84.6305 L 40.964 84.4942 L 40.9686 84.4906 L 40.976 84.4845 L 40.9886 84.4747 L 40.9993 84.4665 L 41.0154 84.4544 L 41.1356 84.3637 L 41.1633 84.3429 L 41.2664 84.2654 L 41.3666 84.1863 L 41.4764 84.1025 L 41.5638 84.0269 L 41.6831 83.9264 L 41.6846 83.925 L 41.7198 83.8936 L 41.7319 83.8822 L 41.7643 83.8477 L 41.7971 83.8119 L 41.8215 83.7789 L 41.8488 83.7352 L 41.8558 83.7218 L 41.867 83.6992 L 41.8847 83.6549 L 41.8979 83.6118 L 41.9074 83.568 L 41.9078 83.5655 L 41.9136 83.5217 L 41.9138 83.5187 L 41.9158 83.4748 L 41.9157 83.4706 L 41.9142 83.4311 L 41.9134 83.4241 L 41.9087 83.3861 L 41.9071 83.3786 L 41.8996 83.3421 L 41.8973 83.3349 L 41.8883 83.3052 L 41.854 83.2347 L 41.8407 83.2018 L 41.834 83.186 L 41.8125 83.1481 L 41.7937 83.1177 L 41.7539 83.0483 L 41.7539 83.0482 L 41.7486 83.0391 L 41.7453 83.0333 L 41.678 83.1006" fill="none" stroke="#B8860B" stroke-width="0.05000" fill-rule="evenodd" fill-opacity="1.000"/>
    </g>
    <g class="thermal-contour" data-segment="6" data-name="HollowShell2Contour_Overhang">
    <path d="M 36.7932 87.9449 L 36.6315 88.1068 L 36.5508 88.0865 L 36.7124 87.9249 L 36.7932 87.9449" fill="none" stroke="#006400" stroke-width="0.05000" fill-rule="evenodd" fill-opacity="1.000"/>
    <path d="M 41.5674 83.1067 L 41.5909 83.1474 L 41.59 83.1482 L 41.588 83.1446 L 41.5537 83.0836 L 41.5538 83.0834 L 41.5674 83.1067" fill="none" stroke="#006400" stroke-width="0.05000" fill-rule="evenodd" fill-opacity="1.000"/>
    </g>
    <!-- ===== Thermal Segment Colour Legend ===== -->
    <g id="thermal-legend">
    <rect x="161.0000" y="5.0000" width="40.0000" height="72.0000"
          rx="1" ry="1"
          fill="#fafafa" stroke="#cccccc" stroke-width="0.15"/>
    <text x="181.0000" y="7.6000" font-family="sans-serif" font-size="2.2000" font-weight="bold" fill="#222222" text-anchor="middle">Thermal Segments</text>
    <line x1="161.5000" y1="8.7000" x2="200.5000" y2="8.7000" stroke="#bbbbbb" stroke-width="0.1"/>
    <rect x="161.8000" y="9.0000" width="3.5000" height="2.0000" fill="#000000" stroke="#333333" stroke-width="0.08" rx="0.3" ry="0.3"/>
    <text x="168.6000" y="10.9000" font-family="monospace" font-size="1.6000" fill="#444444" text-anchor="end"> 1</text>
    <text x="169.6000" y="10.9000" font-family="sans-serif" font-size="1.6000" fill="#111111">CoreContour_Volume</text>
    <rect x="161.8000" y="12.0000" width="3.5000" height="2.0000" fill="#8B0000" stroke="#333333" stroke-width="0.08" rx="0.3" ry="0.3"/>
    <text x="168.6000" y="13.9000" font-family="monospace" font-size="1.6000" fill="#444444" text-anchor="end"> 2</text>
    <text x="169.6000" y="13.9000" font-family="sans-serif" font-size="1.6000" fill="#111111">CoreContour_Overhang</text>
    <rect x="161.8000" y="15.0000" width="3.5000" height="2.0000" fill="#0000CC" stroke="#333333" stroke-width="0.08" rx="0.3" ry="0.3"/>
    <text x="168.6000" y="16.9000" font-family="monospace" font-size="1.6000" fill="#444444" text-anchor="end"> 3</text>
    <text x="169.6000" y="16.9000" font-family="sans-serif" font-size="1.6000" fill="#111111">Shell1Contour_Volume</text>
    <rect x="161.8000" y="18.0000" width="3.5000" height="2.0000" fill="#000080" stroke="#333333" stroke-width="0.08" rx="0.3" ry="0.3"/>
    <text x="168.6000" y="19.9000" font-family="monospace" font-size="1.6000" fill="#444444" text-anchor="end"> 4</text>
    <text x="169.6000" y="19.9000" font-family="sans-serif" font-size="1.6000" fill="#111111">Shell1Contour_Overhang</text>
    <rect x="161.8000" y="21.0000" width="3.5000" height="2.0000" fill="#B8860B" stroke="#333333" stroke-width="0.08" rx="0.3" ry="0.3"/>
    <text x="168.6000" y="22.9000" font-family="monospace" font-size="1.6000" fill="#444444" text-anchor="end"> 5</text>
    <text x="169.6000" y="22.9000" font-family="sans-serif" font-size="1.6000" fill="#111111">Shell2Contour_Volume</text>
    <rect x="161.8000" y="24.0000" width="3.5000" height="2.0000" fill="#006400" stroke="#333333" stroke-width="0.08" rx="0.3" ry="0.3"/>
    <text x="168.6000" y="25.9000" font-family="monospace" font-size="1.6000" fill="#444444" text-anchor="end"> 6</text>
    <text x="169.6000" y="25.9000" font-family="sans-serif" font-size="1.6000" fill="#111111">Shell2Contour_Overhang</text>
    <rect x="161.8000" y="27.0000" width="3.5000" height="2.0000" fill="#FF8C00" stroke="#333333" stroke-width="0.08" rx="0.3" ry="0.3"/>
    <text x="168.6000" y="28.9000" font-family="monospace" font-size="1.6000" fill="#444444" text-anchor="end"> 7</text>
    <text x="169.6000" y="28.9000" font-family="sans-serif" font-size="1.6000" fill="#111111">CoreOverhangHatch</text>
    <rect x="161.8000" y="30.0000" width="3.5000" height="2.0000" fill="#228B22" stroke="#333333" stroke-width="0.08" rx="0.3" ry="0.3"/>
    <text x="168.6000" y="31.9000" font-family="monospace" font-size="1.6000" fill="#444444" text-anchor="end"> 8</text>
    <text x="169.6000" y="31.9000" font-family="sans-serif" font-size="1.6000" fill="#111111">CoreNormalHatch</text>
    <rect x="161.8000" y="33.0000" width="3.5000" height="2.0000" fill="#800080" stroke="#333333" stroke-width="0.08" rx="0.3" ry="0.3"/>
    <text x="168.6000" y="34.9000" font-family="monospace" font-size="1.6000" fill="#444444" text-anchor="end"> 9</text>
    <text x="169.6000" y="34.9000" font-family="sans-serif" font-size="1.6000" fill="#111111">CoreContourHatch</text>
    <rect x="161.8000" y="36.0000" width="3.5000" height="2.0000" fill="#FF69B4" stroke="#333333" stroke-width="0.08" rx="0.3" ry="0.3"/>
    <text x="168.6000" y="37.9000" font-family="monospace" font-size="1.6000" fill="#444444" text-anchor="end">10</text>
    <text x="169.6000" y="37.9000" font-family="sans-serif" font-size="1.6000" fill="#111111">Shell1OverhangHatch</text>
    <rect x="161.8000" y="39.0000" width="3.5000" height="2.0000" fill="#00CED1" stroke="#333333" stroke-width="0.08" rx="0.3" ry="0.3"/>
    <text x="168.6000" y="40.9000" font-family="monospace" font-size="1.6000" fill="#444444" text-anchor="end">11</text>
    <text x="169.6000" y="40.9000" font-family="sans-serif" font-size="1.6000" fill="#111111">Shell1NormalHatch</text>
    <rect x="161.8000" y="42.0000" width="3.5000" height="2.0000" fill="#FF00FF" stroke="#333333" stroke-width="0.08" rx="0.3" ry="0.3"/>
    <text x="168.6000" y="43.9000" font-family="monospace" font-size="1.6000" fill="#444444" text-anchor="end">12</text>
    <text x="169.6000" y="43.9000" font-family="sans-serif" font-size="1.6000" fill="#111111">Shell1ContourHatch</text>
    <rect x="161.8000" y="45.0000" width="3.5000" height="2.0000" fill="#A52A2A" stroke="#333333" stroke-width="0.08" rx="0.3" ry="0.3"/>
    <text x="168.6000" y="46.9000" font-family="monospace" font-size="1.6000" fill="#444444" text-anchor="end">13</text>
    <text x="169.6000" y="46.9000" font-family="sans-serif" font-size="1.6000" fill="#111111">Shell2OverhangHatch</text>
    <rect x="161.8000" y="48.0000" width="3.5000" height="2.0000" fill="#808080" stroke="#333333" stroke-width="0.08" rx="0.3" ry="0.3"/>
    <text x="168.6000" y="49.9000" font-family="monospace" font-size="1.6000" fill="#444444" text-anchor="end">14</text>
    <text x="169.6000" y="49.9000" font-family="sans-serif" font-size="1.6000" fill="#111111">Shell2NormalHatch</text>
    <rect x="161.8000" y="51.0000" width="3.5000" height="2.0000" fill="#32CD32" stroke="#333333" stroke-width="0.08" rx="0.3" ry="0.3"/>
    <text x="168.6000" y="52.9000" font-family="monospace" font-size="1.6000" fill="#444444" text-anchor="end">15</text>
    <text x="169.6000" y="52.9000" font-family="sans-serif" font-size="1.6000" fill="#111111">Shell2ContourHatch</text>
    <rect x="161.8000" y="54.0000" width="3.5000" height="2.0000" fill="#1A237E" stroke="#333333" stroke-width="0.08" rx="0.3" ry="0.3"/>
    <text x="168.6000" y="55.9000" font-family="monospace" font-size="1.6000" fill="#444444" text-anchor="end">16</text>
    <text x="169.6000" y="55.9000" font-family="sans-serif" font-size="1.6000" fill="#111111">SupportContourVolume</text>
    <rect x="161.8000" y="57.0000" width="3.5000" height="2.0000" fill="#827717" stroke="#333333" stroke-width="0.08" rx="0.3" ry="0.3"/>
    <text x="168.6000" y="58.9000" font-family="monospace" font-size="1.6000" fill="#444444" text-anchor="end">17</text>
    <text x="169.6000" y="58.9000" font-family="sans-serif" font-size="1.6000" fill="#111111">SupportHatch</text>
    <rect x="161.8000" y="60.0000" width="3.5000" height="2.0000" fill="#006064" stroke="#333333" stroke-width="0.08" rx="0.3" ry="0.3"/>
    <text x="168.6000" y="61.9000" font-family="monospace" font-size="1.6000" fill="#444444" text-anchor="end">18</text>
    <text x="169.6000" y="61.9000" font-family="sans-serif" font-size="1.6000" fill="#111111">PointSequence</text>
    <rect x="161.8000" y="63.0000" width="3.5000" height="2.0000" fill="#B71C1C" stroke="#333333" stroke-width="0.08" rx="0.3" ry="0.3"/>
    <text x="168.6000" y="64.9000" font-family="monospace" font-size="1.6000" fill="#444444" text-anchor="end">19</text>
    <text x="169.6000" y="64.9000" font-family="sans-serif" font-size="1.6000" fill="#111111">ExternalSupports</text>
    <rect x="161.8000" y="66.0000" width="3.5000" height="2.0000" fill="#E64A19" stroke="#333333" stroke-width="0.08" rx="0.3" ry="0.3"/>
    <text x="168.6000" y="67.9000" font-family="monospace" font-size="1.6000" fill="#444444" text-anchor="end">20</text>
    <text x="169.6000" y="67.9000" font-family="sans-serif" font-size="1.6000" fill="#111111">CoreContourHatchOverhang</text>
    <rect x="161.8000" y="69.0000" width="3.5000" height="2.0000" fill="#311B92" stroke="#333333" stroke-width="0.08" rx="0.3" ry="0.3"/>
    <text x="168.6000" y="70.9000" font-family="monospace" font-size="1.6000" fill="#444444" text-anchor="end">21</text>
    <text x="169.6000" y="70.9000" font-family="sans-serif" font-size="1.6000" fill="#111111">Shell1ContourHatchOverhang</text>
    <rect x="161.8000" y="72.0000" width="3.5000" height="2.0000" fill="#880E4F" stroke="#333333" stroke-width="0.08" rx="0.3" ry="0.3"/>
    <text x="168.6000" y="73.9000" font-family="monospace" font-size="1.6000" fill="#444444" text-anchor="end">22</text>
    <text x="169.6000" y="73.9000" font-family="sans-serif" font-size="1.6000" fill="#111111">Shell2ContourHatchOverhang</text>
    </g>
  </g>
</svg>
