<?xml version="1.0" encoding="UTF-8" standalone="yes"?>
<svg xmlns="http://www.w3.org/2000/svg"
     xmlns:xlink="http://www.w3.org/1999/xlink"
     width="2020.0000mm" height="1600.0000mm"
     viewBox="0 0 202.000000 160.000000">
  <!--
    Build plate : 150.00 x 150.00 mm
    Coordinate  : 1 SVG unit = 1 mm
    Display zoom: 10x  (width/height = viewBox x 10)
    Hatch stroke: 0.04 mm = ~28 mm on screen at this zoom
    Legend panel: right margin (42 mm wide)
  -->
  <defs>
    <marker id="endArrow" markerWidth="2" markerHeight="1.4"
            refX="0" refY="0.7" orient="auto"
            markerUnits="strokeWidth">
      <polyline fill="darkblue" points="0,0 2,0.7 0,1.4 0.2,0.7"/>
    </marker>
  </defs>
  <!-- Background -->
  <rect x="0" y="0" width="202.000000" height="160.000000" fill="#f0f0f0" stroke="none"/>
  <!-- Build plate boundary (150 x 150 mm) -->
  <rect x="5.000000" y="5.000000" width="150.000000" height="150.000000"
        fill="#ffffff" stroke="#aaaaaa" stroke-width="0.2" stroke-dasharray="1,0.5"/>
  <!-- Build plate centre circle (r = 75.00 mm) -->
  <circle cx="80.000000" cy="80.000000" r="75.000000"
          fill="none" stroke="#bbbbbb" stroke-width="0.15" stroke-dasharray="0.8,0.4"/>
  <!-- Centre cross-hair -->
  <line x1="5.000000" y1="80.000000" x2="155.000000" y2="80.000000" stroke="#cccccc" stroke-width="0.1"/>
  <line x1="80.000000" y1="5.000000" x2="80.000000" y2="155.000000" stroke="#cccccc" stroke-width="0.1"/>
  <circle cx="80.000000" cy="80.000000" r="0.3" fill="#cccccc" stroke="none"/>
  <!-- Corner labels -->
  <text x="5.400000" y="4.600000" font-family="sans-serif" font-size="2" fill="#888888">0,0</text>
  <text x="154.600006" y="4.600000" font-family="sans-serif" font-size="2" fill="#888888" text-anchor="end">150,0</text>
  <text x="5.400000" y="157.199997" font-family="sans-serif" font-size="2" fill="#888888">0,150</text>
  <!-- Layer geometry -->
  <g id="geometry">
    <g class="thermal-hatch" data-segment="8" data-name="CoreNormalHatch">
      <line x1="51.97145" y1="115.40142" x2="51.40791" y2="116.17707" stroke="#228B22" stroke-width="0.04000"/>
      <line x1="52.02534" y1="115.49738" x2="51.54168" y2="116.16308" stroke="#228B22" stroke-width="0.04000"/>
      <line x1="52.07923" y1="115.59334" x2="51.67545" y2="116.14909" stroke="#228B22" stroke-width="0.04000"/>
      <line x1="52.13312" y1="115.68930" x2="51.80923" y2="116.13509" stroke="#228B22" stroke-width="0.04000"/>
      <line x1="51.91757" y1="115.30546" x2="51.32156" y2="116.12580" stroke="#228B22" stroke-width="0.04000"/>
      <line x1="51.86368" y1="115.20950" x2="51.24224" y2="116.06484" stroke="#228B22" stroke-width="0.04000"/>
      <line x1="51.80979" y1="115.11353" x2="51.16292" y2="116.00388" stroke="#228B22" stroke-width="0.04000"/>
      <line x1="51.74867" y1="115.02753" x2="51.08361" y2="115.94292" stroke="#228B22" stroke-width="0.04000"/>
      <line x1="52.18700" y1="115.78526" x2="52.09517" y2="115.91166" stroke="#228B22" stroke-width="0.04000"/>
      <line x1="51.68416" y1="114.94619" x2="51.00429" y2="115.88196" stroke="#228B22" stroke-width="0.04000"/>
      <line x1="51.61966" y1="114.86485" x2="50.92497" y2="115.82100" stroke="#228B22" stroke-width="0.04000"/>
      <line x1="51.55846" y1="114.77894" x2="50.84603" y2="115.75952" stroke="#228B22" stroke-width="0.04000"/>
      <line x1="51.49728" y1="114.69302" x2="50.77021" y2="115.69375" stroke="#228B22" stroke-width="0.04000"/>
      <line x1="51.43610" y1="114.60709" x2="50.69439" y2="115.62798" stroke="#228B22" stroke-width="0.04000"/>
      <line x1="51.37493" y1="114.52117" x2="50.61857" y2="115.56221" stroke="#228B22" stroke-width="0.04000"/>
      <line x1="51.31375" y1="114.43524" x2="50.54275" y2="115.49644" stroke="#228B22" stroke-width="0.04000"/>
      <line x1="51.25257" y1="114.34932" x2="50.46675" y2="115.43090" stroke="#228B22" stroke-width="0.04000"/>
      <line x1="51.19139" y1="114.26339" x2="50.39058" y2="115.36562" stroke="#228B22" stroke-width="0.04000"/>
      <line x1="51.13021" y1="114.17747" x2="50.31440" y2="115.30034" stroke="#228B22" stroke-width="0.04000"/>
      <line x1="51.06604" y1="114.09566" x2="50.23822" y2="115.23506" stroke="#228B22" stroke-width="0.04000"/>
      <line x1="50.99837" y1="114.01867" x2="50.16204" y2="115.16978" stroke="#228B22" stroke-width="0.04000"/>
      <line x1="50.93248" y1="113.93922" x2="50.08586" y2="115.10450" stroke="#228B22" stroke-width="0.04000"/>
      <line x1="50.86820" y1="113.85757" x2="50.01684" y2="115.02937" stroke="#228B22" stroke-width="0.04000"/>
      <line x1="50.80392" y1="113.77592" x2="49.95231" y2="114.94806" stroke="#228B22" stroke-width="0.04000"/>
      <line x1="50.73964" y1="113.69427" x2="49.88779" y2="114.86674" stroke="#228B22" stroke-width="0.04000"/>
      <line x1="50.67511" y1="113.61295" x2="49.82225" y2="114.78682" stroke="#228B22" stroke-width="0.04000"/>
      <line x1="50.60996" y1="113.53249" x2="49.75115" y2="114.71455" stroke="#228B22" stroke-width="0.04000"/>
      <line x1="50.54482" y1="113.45203" x2="49.68005" y2="114.64227" stroke="#228B22" stroke-width="0.04000"/>
      <line x1="50.47967" y1="113.37157" x2="49.60896" y2="114.57000" stroke="#228B22" stroke-width="0.04000"/>
      <line x1="50.41452" y1="113.29110" x2="49.53785" y2="114.49773" stroke="#228B22" stroke-width="0.04000"/>
      <line x1="50.34937" y1="113.21064" x2="49.46675" y2="114.42545" stroke="#228B22" stroke-width="0.04000"/>
      <line x1="50.28733" y1="113.12590" x2="49.39566" y2="114.35318" stroke="#228B22" stroke-width="0.04000"/>
      <line x1="50.22898" y1="113.03608" x2="49.32908" y2="114.27469" stroke="#228B22" stroke-width="0.04000"/>
      <line x1="50.16663" y1="112.95177" x2="49.28227" y2="114.16900" stroke="#228B22" stroke-width="0.04000"/>
      <line x1="50.10157" y1="112.87119" x2="49.23545" y2="114.06329" stroke="#228B22" stroke-width="0.04000"/>
      <line x1="50.03651" y1="112.79061" x2="49.18158" y2="113.96731" stroke="#228B22" stroke-width="0.04000"/>
      <line x1="49.97145" y1="112.71003" x2="49.12291" y2="113.87794" stroke="#228B22" stroke-width="0.04000"/>
      <line x1="49.90639" y1="112.62945" x2="49.06424" y2="113.78857" stroke="#228B22" stroke-width="0.04000"/>
      <line x1="49.84133" y1="112.54887" x2="49.00556" y2="113.69920" stroke="#228B22" stroke-width="0.04000"/>
      <line x1="49.77626" y1="112.46828" x2="48.94688" y2="113.60982" stroke="#228B22" stroke-width="0.04000"/>
      <line x1="49.67978" y1="112.43095" x2="48.88821" y2="113.52045" stroke="#228B22" stroke-width="0.04000"/>
      <line x1="49.56265" y1="112.42204" x2="48.83084" y2="113.42928" stroke="#228B22" stroke-width="0.04000"/>
      <line x1="49.44553" y1="112.41312" x2="48.79762" y2="113.30489" stroke="#228B22" stroke-width="0.04000"/>
      <line x1="49.32840" y1="112.40420" x2="48.76439" y2="113.18050" stroke="#228B22" stroke-width="0.04000"/>
      <line x1="49.23421" y1="112.36371" x2="48.73064" y2="113.05682" stroke="#228B22" stroke-width="0.04000"/>
      <line x1="49.18038" y1="112.26767" x2="48.69242" y2="112.93928" stroke="#228B22" stroke-width="0.04000"/>
      <line x1="49.12655" y1="112.17162" x2="48.65421" y2="112.82175" stroke="#228B22" stroke-width="0.04000"/>
      <line x1="49.07272" y1="112.07558" x2="48.61599" y2="112.70422" stroke="#228B22" stroke-width="0.04000"/>
      <line x1="49.01889" y1="111.97954" x2="48.57778" y2="112.58668" stroke="#228B22" stroke-width="0.04000"/>
      <line x1="48.83981" y1="112.05590" x2="48.53957" y2="112.46915" stroke="#228B22" stroke-width="0.04000"/>
    </g>
    <g class="thermal-hatch" data-segment="8" data-name="CoreNormalHatch">
      <line x1="49.07680" y1="112.67580" x2="49.60350" y2="112.71580" stroke="#228B22" stroke-width="0.04000"/>
      <line x1="49.60350" y1="112.71580" x2="49.96970" y2="113.16960" stroke="#228B22" stroke-width="0.04000"/>
      <line x1="49.96970" y1="113.16960" x2="50.07910" y2="113.33780" stroke="#228B22" stroke-width="0.04000"/>
      <line x1="50.07910" y1="113.33780" x2="50.46390" y2="113.81280" stroke="#228B22" stroke-width="0.04000"/>
      <line x1="50.46390" y1="113.81280" x2="50.74330" y2="114.16780" stroke="#228B22" stroke-width="0.04000"/>
      <line x1="50.74330" y1="114.16780" x2="50.86930" y2="114.31110" stroke="#228B22" stroke-width="0.04000"/>
      <line x1="50.86930" y1="114.31110" x2="51.38730" y2="115.03870" stroke="#228B22" stroke-width="0.04000"/>
      <line x1="51.38730" y1="115.03870" x2="51.55050" y2="115.24450" stroke="#228B22" stroke-width="0.04000"/>
      <line x1="51.55050" y1="115.24450" x2="51.83620" y2="115.75310" stroke="#228B22" stroke-width="0.04000"/>
      <line x1="51.83620" y1="115.75310" x2="51.72330" y2="115.85230" stroke="#228B22" stroke-width="0.04000"/>
      <line x1="51.72330" y1="115.85230" x2="51.47540" y2="115.87820" stroke="#228B22" stroke-width="0.04000"/>
      <line x1="51.47540" y1="115.87820" x2="51.03620" y2="115.54060" stroke="#228B22" stroke-width="0.04000"/>
      <line x1="51.03620" y1="115.54060" x2="50.69270" y2="115.24260" stroke="#228B22" stroke-width="0.04000"/>
      <line x1="50.69270" y1="115.24260" x2="50.26600" y2="114.87710" stroke="#228B22" stroke-width="0.04000"/>
      <line x1="50.26600" y1="114.87710" x2="50.05070" y2="114.60570" stroke="#228B22" stroke-width="0.04000"/>
      <line x1="50.05070" y1="114.60570" x2="49.58140" y2="114.12850" stroke="#228B22" stroke-width="0.04000"/>
      <line x1="49.58140" y1="114.12850" x2="49.47200" y2="113.88130" stroke="#228B22" stroke-width="0.04000"/>
      <line x1="49.47200" y1="113.88130" x2="49.10050" y2="113.31530" stroke="#228B22" stroke-width="0.04000"/>
      <line x1="49.10050" y1="113.31530" x2="49.01270" y2="112.98670" stroke="#228B22" stroke-width="0.04000"/>
      <line x1="49.01270" y1="112.98670" x2="48.85710" y2="112.50830" stroke="#228B22" stroke-width="0.04000"/>
      <line x1="48.85710" y1="112.50830" x2="48.92990" y2="112.41380" stroke="#228B22" stroke-width="0.04000"/>
      <line x1="48.92990" y1="112.41380" x2="49.07680" y2="112.67580" stroke="#228B22" stroke-width="0.04000"/>
    </g>
    <g class="thermal-contour" data-segment="1" data-name="CoreContour_Volume">
    <path d="M 49.2537 112.399 L 49.7505 112.436 L 50.2055 113 L 50.314 113.167 L 50.6937 113.636 L 50.9663 113.982 L 51.0973 114.131 L 51.6193 114.864 L 51.7926 115.083 L 52.2042 115.816 L 51.8454 116.131 L 51.3906 116.179 L 50.8542 115.767 L 50.5033 115.462 L 50.0564 115.079 L 49.8332 114.798 L 49.3378 114.294 L 49.2165 114.02 L 48.8326 113.436 L 48.7346 113.069 L 48.5343 112.453 L 48.9682 111.889 L 49.2537 112.399" fill="none" stroke="#000000" stroke-width="0.05000" fill-rule="evenodd" fill-opacity="1.000"/>
    </g>
    <g class="thermal-contour" data-segment="1" data-name="CoreContour_Volume">
    <path d="M 49.1317 112.59 L 49.6491 112.629 L 50.043 113.117 L 50.152 113.285 L 50.5338 113.756 L 50.8125 114.11 L 50.94 114.255 L 51.4593 114.985 L 51.6258 115.195 L 51.9504 115.773 L 51.7612 115.939 L 51.449 115.971 L 50.9798 115.611 L 50.6339 115.311 L 50.201 114.94 L 49.9832 114.665 L 49.5058 114.18 L 49.3927 113.924 L 49.0174 113.353 L 48.9264 113.012 L 48.7569 112.491 L 48.9418 112.251 L 49.1317 112.59" fill="none" stroke="#000000" stroke-width="0.05000" fill-rule="evenodd" fill-opacity="1.000"/>
    <path d="M 48.8571 112.508 L 49.0127 112.987 L 49.1005 113.315 L 49.472 113.881 L 49.5814 114.129 L 50.0507 114.606 L 50.266 114.877 L 50.6927 115.243 L 51.0362 115.541 L 51.4754 115.878 L 51.7233 115.852 L 51.8362 115.753 L 51.5505 115.244 L 51.3873 115.039 L 50.8693 114.311 L 50.7433 114.168 L 50.4639 113.813 L 50.0791 113.338 L 49.9697 113.17 L 49.6035 112.716 L 49.0768 112.676 L 48.9299 112.414 L 48.8571 112.508" fill="none" stroke="#000000" stroke-width="0.05000" fill-rule="evenodd" fill-opacity="1.000"/>
    </g>
    <g class="thermal-contour" data-segment="3" data-name="HollowShell1Contour_Volume">
    <path d="M 49.2537 112.398 L 49.7343 112.435 L 50.2393 113.061 L 50.2703 113.1 L 50.314 113.167 L 50.6937 113.636 L 50.9663 113.982 L 51.0973 114.131 L 51.6193 114.864 L 51.7926 115.083 L 52.1954 115.8 L 51.8154 116.134 L 51.3906 116.179 L 50.8542 115.767 L 50.5033 115.462 L 50.0564 115.079 L 49.8332 114.798 L 49.3378 114.294 L 49.2165 114.021 L 48.8326 113.436 L 48.7346 113.069 L 48.5343 112.453 L 48.9682 111.889 L 49.2537 112.398" fill="none" stroke="#0000CC" stroke-width="0.05000" fill-rule="evenodd" fill-opacity="1.000"/>
    <path d="M 48.6456 112.472 L 48.8305 113.041 L 48.925 113.394 L 49.3046 113.973 L 49.4218 114.237 L 49.9082 114.732 L 50.1287 115.01 L 50.5686 115.386 L 50.917 115.689 L 51.4198 116.075 L 51.8033 116.035 L 52.0773 115.794 L 51.7092 115.139 L 51.5393 114.924 L 51.0185 114.193 L 50.8894 114.046 L 50.6151 113.698 L 50.6151 113.698 L 50.233 113.226 L 50.124 113.058 L 49.6998 112.533 L 49.1927 112.494 L 48.955 112.07 L 48.6456 112.472" fill="none" stroke="#0000CC" stroke-width="0.05000" fill-rule="evenodd" fill-opacity="1.000"/>
    </g>
    <g class="thermal-contour" data-segment="4" data-name="HollowShell1Contour_Overhang">
    <path d="M 52.2042 115.816 L 51.8454 116.131 L 51.8154 116.134 L 52.1954 115.8 L 52.2042 115.816" fill="none" stroke="#000080" stroke-width="0.05000" fill-rule="evenodd" fill-opacity="1.000"/>
    <path d="M 49.7505 112.436 L 50.2055 113 L 50.2703 113.1 L 50.2393 113.061 L 49.7343 112.435 L 49.7505 112.436" fill="none" stroke="#000080" stroke-width="0.05000" fill-rule="evenodd" fill-opacity="1.000"/>
    </g>
    <g class="thermal-contour" data-segment="5" data-name="HollowShell2Contour_Volume">
    <path d="M 49.1927 112.494 L 49.6998 112.533 L 50.124 113.058 L 50.233 113.226 L 50.6151 113.698 L 50.6151 113.698 L 50.8894 114.046 L 51.0185 114.193 L 51.5393 114.924 L 51.7092 115.139 L 52.0773 115.794 L 51.8033 116.035 L 51.4198 116.075 L 50.917 115.689 L 50.5686 115.386 L 50.1287 115.01 L 49.9082 114.732 L 49.4218 114.237 L 49.3046 113.973 L 48.925 113.394 L 48.8305 113.041 L 48.6456 112.472 L 48.955 112.07 L 49.1927 112.494" fill="none" stroke="#B8860B" stroke-width="0.05000" fill-rule="evenodd" fill-opacity="1.000"/>
    <path d="M 48.7569 112.491 L 48.9264 113.012 L 49.0174 113.353 L 49.3927 113.924 L 49.5058 114.18 L 49.9832 114.665 L 50.201 114.94 L 50.6339 115.311 L 50.9798 115.611 L 51.449 115.971 L 51.7612 115.939 L 51.9504 115.773 L 51.6258 115.195 L 51.4593 114.985 L 50.94 114.255 L 50.8125 114.11 L 50.5338 113.756 L 50.152 113.285 L 50.043 113.117 L 49.6491 112.629 L 49.1317 112.59 L 48.9418 112.251 L 48.7569 112.491" fill="none" stroke="#B8860B" stroke-width="0.05000" fill-rule="evenodd" fill-opacity="1.000"/>
    </g>
    <g class="thermal-contour" data-segment="9" data-name="CoreContourHatch">
    <path d="M 49.0933 112.65 L 49.6172 112.69 L 49.9916 113.154 L 50.1006 113.321 L 50.485 113.796 L 50.7636 114.15 L 50.8905 114.294 L 51.4085 115.022 L 51.573 115.229 L 51.8705 115.759 L 51.7347 115.878 L 51.4675 115.906 L 51.0191 115.562 L 50.6751 115.263 L 50.2465 114.896 L 50.0301 114.623 L 49.5587 114.144 L 49.4482 113.894 L 49.0755 113.326 L 48.987 112.995 L 48.827 112.503 L 48.9335 112.365 L 49.0933 112.65" fill="none" stroke="#800080" stroke-width="0.05000" fill-rule="evenodd" fill-opacity="1.000"/>
    <path d="M 48.8571 112.508 L 49.0127 112.987 L 49.1005 113.315 L 49.472 113.881 L 49.5814 114.129 L 50.0507 114.606 L 50.266 114.877 L 50.6927 115.243 L 51.0362 115.541 L 51.4754 115.878 L 51.7233 115.852 L 51.8362 115.753 L 51.5505 115.244 L 51.3873 115.039 L 50.8693 114.311 L 50.7433 114.168 L 50.4639 113.813 L 50.0791 113.338 L 49.9697 113.17 L 49.6035 112.716 L 49.0768 112.676 L 48.9299 112.414 L 48.8571 112.508" fill="none" stroke="#800080" stroke-width="0.05000" fill-rule="evenodd" fill-opacity="1.000"/>
    </g>
    <!-- ===== Thermal Segment Colour Legend ===== -->
    <g id="thermal-legend">
    <rect x="161.0000" y="5.0000" width="40.0000" height="72.0000"
          rx="1" ry="1"
          fill="#fafafa" stroke="#cccccc" stroke-width="0.15"/>
    <text x="181.0000" y="7.6000" font-family="sans-serif" font-size="2.2000" font-weight="bold" fill="#222222" text-anchor="middle">Thermal Segments</text>
    <line x1="161.5000" y1="8.7000" x2="200.5000" y2="8.7000" stroke="#bbbbbb" stroke-width="0.1"/>
    <rect x="161.8000" y="9.0000" width="3.5000" height="2.0000" fill="#000000" stroke="#333333" stroke-width="0.08" rx="0.3" ry="0.3"/>
    <text x="168.6000" y="10.9000" font-family="monospace" font-size="1.6000" fill="#444444" text-anchor="end"> 1</text>
    <text x="169.6000" y="10.9000" font-family="sans-serif" font-size="1.6000" fill="#111111">CoreContour_Volume</text>
    <rect x="161.8000" y="12.0000" width="3.5000" height="2.0000" fill="#8B0000" stroke="#333333" stroke-width="0.08" rx="0.3" ry="0.3"/>
    <text x="168.6000" y="13.9000" font-family="monospace" font-size="1.6000" fill="#444444" text-anchor="end"> 2</text>
    <text x="169.6000" y="13.9000" font-family="sans-serif" font-size="1.6000" fill="#111111">CoreContour_Overhang</text>
    <rect x="161.8000" y="15.0000" width="3.5000" height="2.0000" fill="#0000CC" stroke="#333333" stroke-width="0.08" rx="0.3" ry="0.3"/>
    <text x="168.6000" y="16.9000" font-family="monospace" font-size="1.6000" fill="#444444" text-anchor="end"> 3</text>
    <text x="169.6000" y="16.9000" font-family="sans-serif" font-size="1.6000" fill="#111111">Shell1Contour_Volume</text>
    <rect x="161.8000" y="18.0000" width="3.5000" height="2.0000" fill="#000080" stroke="#333333" stroke-width="0.08" rx="0.3" ry="0.3"/>
    <text x="168.6000" y="19.9000" font-family="monospace" font-size="1.6000" fill="#444444" text-anchor="end"> 4</text>
    <text x="169.6000" y="19.9000" font-family="sans-serif" font-size="1.6000" fill="#111111">Shell1Contour_Overhang</text>
    <rect x="161.8000" y="21.0000" width="3.5000" height="2.0000" fill="#B8860B" stroke="#333333" stroke-width="0.08" rx="0.3" ry="0.3"/>
    <text x="168.6000" y="22.9000" font-family="monospace" font-size="1.6000" fill="#444444" text-anchor="end"> 5</text>
    <text x="169.6000" y="22.9000" font-family="sans-serif" font-size="1.6000" fill="#111111">Shell2Contour_Volume</text>
    <rect x="161.8000" y="24.0000" width="3.5000" height="2.0000" fill="#006400" stroke="#333333" stroke-width="0.08" rx="0.3" ry="0.3"/>
    <text x="168.6000" y="25.9000" font-family="monospace" font-size="1.6000" fill="#444444" text-anchor="end"> 6</text>
    <text x="169.6000" y="25.9000" font-family="sans-serif" font-size="1.6000" fill="#111111">Shell2Contour_Overhang</text>
    <rect x="161.8000" y="27.0000" width="3.5000" height="2.0000" fill="#FF8C00" stroke="#333333" stroke-width="0.08" rx="0.3" ry="0.3"/>
    <text x="168.6000" y="28.9000" font-family="monospace" font-size="1.6000" fill="#444444" text-anchor="end"> 7</text>
    <text x="169.6000" y="28.9000" font-family="sans-serif" font-size="1.6000" fill="#111111">CoreOverhangHatch</text>
    <rect x="161.8000" y="30.0000" width="3.5000" height="2.0000" fill="#228B22" stroke="#333333" stroke-width="0.08" rx="0.3" ry="0.3"/>
    <text x="168.6000" y="31.9000" font-family="monospace" font-size="1.6000" fill="#444444" text-anchor="end"> 8</text>
    <text x="169.6000" y="31.9000" font-family="sans-serif" font-size="1.6000" fill="#111111">CoreNormalHatch</text>
    <rect x="161.8000" y="33.0000" width="3.5000" height="2.0000" fill="#800080" stroke="#333333" stroke-width="0.08" rx="0.3" ry="0.3"/>
    <text x="168.6000" y="34.9000" font-family="monospace" font-size="1.6000" fill="#444444" text-anchor="end"> 9</text>
    <text x="169.6000" y="34.9000" font-family="sans-serif" font-size="1.6000" fill="#111111">CoreContourHatch</text>
    <rect x="161.8000" y="36.0000" width="3.5000" height="2.0000" fill="#FF69B4" stroke="#333333" stroke-width="0.08" rx="0.3" ry="0.3"/>
    <text x="168.6000" y="37.9000" font-family="monospace" font-size="1.6000" fill="#444444" text-anchor="end">10</text>
    <text x="169.6000" y="37.9000" font-family="sans-serif" font-size="1.6000" fill="#111111">Shell1OverhangHatch</text>
    <rect x="161.8000" y="39.0000" width="3.5000" height="2.0000" fill="#00CED1" stroke="#333333" stroke-width="0.08" rx="0.3" ry="0.3"/>
    <text x="168.6000" y="40.9000" font-family="monospace" font-size="1.6000" fill="#444444" text-anchor="end">11</text>
    <text x="169.6000" y="40.9000" font-family="sans-serif" font-size="1.6000" fill="#111111">Shell1NormalHatch</text>
    <rect x="161.8000" y="42.0000" width="3.5000" height="2.0000" fill="#FF00FF" stroke="#333333" stroke-width="0.08" rx="0.3" ry="0.3"/>
    <text x="168.6000" y="43.9000" font-family="monospace" font-size="1.6000" fill="#444444" text-anchor="end">12</text>
    <text x="169.6000" y="43.9000" font-family="sans-serif" font-size="1.6000" fill="#111111">Shell1ContourHatch</text>
    <rect x="161.8000" y="45.0000" width="3.5000" height="2.0000" fill="#A52A2A" stroke="#333333" stroke-width="0.08" rx="0.3" ry="0.3"/>
    <text x="168.6000" y="46.9000" font-family="monospace" font-size="1.6000" fill="#444444" text-anchor="end">13</text>
    <text x="169.6000" y="46.9000" font-family="sans-serif" font-size="1.6000" fill="#111111">Shell2OverhangHatch</text>
    <rect x="161.8000" y="48.0000" width="3.5000" height="2.0000" fill="#808080" stroke="#333333" stroke-width="0.08" rx="0.3" ry="0.3"/>
    <text x="168.6000" y="49.9000" font-family="monospace" font-size="1.6000" fill="#444444" text-anchor="end">14</text>
    <text x="169.6000" y="49.9000" font-family="sans-serif" font-size="1.6000" fill="#111111">Shell2NormalHatch</text>
    <rect x="161.8000" y="51.0000" width="3.5000" height="2.0000" fill="#32CD32" stroke="#333333" stroke-width="0.08" rx="0.3" ry="0.3"/>
    <text x="168.6000" y="52.9000" font-family="monospace" font-size="1.6000" fill="#444444" text-anchor="end">15</text>
    <text x="169.6000" y="52.9000" font-family="sans-serif" font-size="1.6000" fill="#111111">Shell2ContourHatch</text>
    <rect x="161.8000" y="54.0000" width="3.5000" height="2.0000" fill="#1A237E" stroke="#333333" stroke-width="0.08" rx="0.3" ry="0.3"/>
    <text x="168.6000" y="55.9000" font-family="monospace" font-size="1.6000" fill="#444444" text-anchor="end">16</text>
    <text x="169.6000" y="55.9000" font-family="sans-serif" font-size="1.6000" fill="#111111">SupportContourVolume</text>
    <rect x="161.8000" y="57.0000" width="3.5000" height="2.0000" fill="#827717" stroke="#333333" stroke-width="0.08" rx="0.3" ry="0.3"/>
    <text x="168.6000" y="58.9000" font-family="monospace" font-size="1.6000" fill="#444444" text-anchor="end">17</text>
    <text x="169.6000" y="58.9000" font-family="sans-serif" font-size="1.6000" fill="#111111">SupportHatch</text>
    <rect x="161.8000" y="60.0000" width="3.5000" height="2.0000" fill="#006064" stroke="#333333" stroke-width="0.08" rx="0.3" ry="0.3"/>
    <text x="168.6000" y="61.9000" font-family="monospace" font-size="1.6000" fill="#444444" text-anchor="end">18</text>
    <text x="169.6000" y="61.9000" font-family="sans-serif" font-size="1.6000" fill="#111111">PointSequence</text>
    <rect x="161.8000" y="63.0000" width="3.5000" height="2.0000" fill="#B71C1C" stroke="#333333" stroke-width="0.08" rx="0.3" ry="0.3"/>
    <text x="168.6000" y="64.9000" font-family="monospace" font-size="1.6000" fill="#444444" text-anchor="end">19</text>
    <text x="169.6000" y="64.9000" font-family="sans-serif" font-size="1.6000" fill="#111111">ExternalSupports</text>
    <rect x="161.8000" y="66.0000" width="3.5000" height="2.0000" fill="#E64A19" stroke="#333333" stroke-width="0.08" rx="0.3" ry="0.3"/>
    <text x="168.6000" y="67.9000" font-family="monospace" font-size="1.6000" fill="#444444" text-anchor="end">20</text>
    <text x="169.6000" y="67.9000" font-family="sans-serif" font-size="1.6000" fill="#111111">CoreContourHatchOverhang</text>
    <rect x="161.8000" y="69.0000" width="3.5000" height="2.0000" fill="#311B92" stroke="#333333" stroke-width="0.08" rx="0.3" ry="0.3"/>
    <text x="168.6000" y="70.9000" font-family="monospace" font-size="1.6000" fill="#444444" text-anchor="end">21</text>
    <text x="169.6000" y="70.9000" font-family="sans-serif" font-size="1.6000" fill="#111111">Shell1ContourHatchOverhang</text>
    <rect x="161.8000" y="72.0000" width="3.5000" height="2.0000" fill="#880E4F" stroke="#333333" stroke-width="0.08" rx="0.3" ry="0.3"/>
    <text x="168.6000" y="73.9000" font-family="monospace" font-size="1.6000" fill="#444444" text-anchor="end">22</text>
    <text x="169.6000" y="73.9000" font-family="sans-serif" font-size="1.6000" fill="#111111">Shell2ContourHatchOverhang</text>
    </g>
  </g>
</svg>
