<?xml version="1.0" encoding="UTF-8" standalone="yes"?>
<!DOCTYPE svg PUBLIC "-//W3C//DTD SVG 1.0//EN" "http://www.w3.org/TR/2001/REC-SVG-20010904/DTD/svg10.dtd">
<svg height="2000" width="2000" xmlns="http://www.w3.org/2000/svg" xmlns:svg="http://www.w3.org/2000/svg" xmlns:xlink="http://www.w3.org/1999/xlink">
  <marker id="endArrow" markerHeight="8" markerUnits="strokeWidth" markerWidth="10" orient="auto" refX="1" refY="5" viewBox="0 0 1000 1000">
    <polyline fill="darkblue" points="0,0 10,5 0,10 1,5" />
  </marker>
  <circle cx="1000.000000" cy="1000.000000" r="1.000000" style="stroke:black; fill: red" />
  <circle cx="1000.000000" cy="1000.000000" r="800.000000" style="stroke:black; fill: none" />
  <line x1="1321.192749" y1="1400.999878" x2="1321.822021" y2="1410.000000" style="stroke: green; stroke-width: 0.200000"/>
  <line x1="1321.192749" y1="1386.664551" x2="1322.824585" y2="1410.000000" style="stroke: green; stroke-width: 0.200000"/>
  <line x1="1321.192749" y1="1372.328857" x2="1323.826904" y2="1410.000000" style="stroke: green; stroke-width: 0.200000"/>
  <line x1="1321.192749" y1="1357.993408" x2="1324.829346" y2="1410.000000" style="stroke: green; stroke-width: 0.200000"/>
  <line x1="1321.192749" y1="1343.657715" x2="1325.831909" y2="1410.000000" style="stroke: green; stroke-width: 0.200000"/>
  <line x1="1321.192749" y1="1329.322388" x2="1326.834229" y2="1410.000000" style="stroke: green; stroke-width: 0.200000"/>
  <line x1="1321.192749" y1="1314.986572" x2="1327.836792" y2="1410.000000" style="stroke: green; stroke-width: 0.200000"/>
  <line x1="1321.192749" y1="1300.650757" x2="1328.839111" y2="1410.000000" style="stroke: green; stroke-width: 0.200000"/>
  <line x1="1321.192749" y1="1286.315308" x2="1329.841553" y2="1410.000000" style="stroke: green; stroke-width: 0.200000"/>
  <line x1="1321.192749" y1="1271.979492" x2="1330.844116" y2="1410.000000" style="stroke: green; stroke-width: 0.200000"/>
  <line x1="1321.192749" y1="1257.644165" x2="1331.846436" y2="1410.000000" style="stroke: green; stroke-width: 0.200000"/>
  <line x1="1321.192749" y1="1243.308350" x2="1332.848999" y2="1410.000000" style="stroke: green; stroke-width: 0.200000"/>
  <line x1="1321.192749" y1="1228.973145" x2="1333.851318" y2="1410.000000" style="stroke: green; stroke-width: 0.200000"/>
  <line x1="1321.192749" y1="1214.637329" x2="1334.853760" y2="1410.000000" style="stroke: green; stroke-width: 0.200000"/>
  <line x1="1321.192749" y1="1200.301880" x2="1335.856323" y2="1410.000000" style="stroke: green; stroke-width: 0.200000"/>
  <line x1="1321.192749" y1="1185.966187" x2="1336.858643" y2="1410.000000" style="stroke: green; stroke-width: 0.200000"/>
  <line x1="1321.192749" y1="1171.630737" x2="1337.861206" y2="1410.000000" style="stroke: green; stroke-width: 0.200000"/>
  <line x1="1321.192749" y1="1157.295044" x2="1338.863525" y2="1410.000000" style="stroke: green; stroke-width: 0.200000"/>
  <line x1="1321.192749" y1="1142.959595" x2="1339.865967" y2="1410.000000" style="stroke: green; stroke-width: 0.200000"/>
  <line x1="1321.192749" y1="1128.623779" x2="1340.868530" y2="1410.000000" style="stroke: green; stroke-width: 0.200000"/>
  <line x1="1321.192749" y1="1114.288086" x2="1341.870850" y2="1410.000000" style="stroke: green; stroke-width: 0.200000"/>
  <line x1="1321.192749" y1="1099.952637" x2="1342.873413" y2="1410.000000" style="stroke: green; stroke-width: 0.200000"/>
  <line x1="1321.192749" y1="1085.616943" x2="1343.875732" y2="1410.000000" style="stroke: green; stroke-width: 0.200000"/>
  <line x1="1321.192749" y1="1071.281494" x2="1344.878174" y2="1410.000000" style="stroke: green; stroke-width: 0.200000"/>
  <line x1="1321.406250" y1="1060.000000" x2="1345.880737" y2="1410.000000" style="stroke: green; stroke-width: 0.200000"/>
  <line x1="1322.408691" y1="1060.000000" x2="1346.883057" y2="1410.000000" style="stroke: green; stroke-width: 0.200000"/>
  <line x1="1323.411255" y1="1060.000000" x2="1347.885620" y2="1410.000000" style="stroke: green; stroke-width: 0.200000"/>
  <line x1="1324.413574" y1="1060.000000" x2="1348.887939" y2="1410.000000" style="stroke: green; stroke-width: 0.200000"/>
  <line x1="1325.416138" y1="1060.000000" x2="1349.890381" y2="1410.000000" style="stroke: green; stroke-width: 0.200000"/>
  <line x1="1326.418457" y1="1060.000000" x2="1350.892944" y2="1410.000000" style="stroke: green; stroke-width: 0.200000"/>
  <line x1="1327.420898" y1="1060.000000" x2="1351.895264" y2="1410.000000" style="stroke: green; stroke-width: 0.200000"/>
  <line x1="1328.423462" y1="1060.000000" x2="1352.897827" y2="1410.000000" style="stroke: green; stroke-width: 0.200000"/>
  <line x1="1329.425781" y1="1060.000000" x2="1353.900146" y2="1410.000000" style="stroke: green; stroke-width: 0.200000"/>
  <line x1="1330.428345" y1="1060.000000" x2="1354.902588" y2="1410.000000" style="stroke: green; stroke-width: 0.200000"/>
  <line x1="1331.430664" y1="1060.000000" x2="1355.905151" y2="1410.000000" style="stroke: green; stroke-width: 0.200000"/>
  <line x1="1332.433105" y1="1060.000000" x2="1356.907471" y2="1410.000000" style="stroke: green; stroke-width: 0.200000"/>
  <line x1="1333.435669" y1="1060.000000" x2="1357.910034" y2="1410.000000" style="stroke: green; stroke-width: 0.200000"/>
  <line x1="1334.437988" y1="1060.000000" x2="1358.912354" y2="1410.000000" style="stroke: green; stroke-width: 0.200000"/>
  <line x1="1335.440552" y1="1060.000000" x2="1359.914795" y2="1410.000000" style="stroke: green; stroke-width: 0.200000"/>
  <line x1="1336.442871" y1="1060.000000" x2="1360.917358" y2="1410.000000" style="stroke: green; stroke-width: 0.200000"/>
  <line x1="1337.445312" y1="1060.000000" x2="1361.919678" y2="1410.000000" style="stroke: green; stroke-width: 0.200000"/>
  <line x1="1338.447876" y1="1060.000000" x2="1362.922241" y2="1410.000000" style="stroke: green; stroke-width: 0.200000"/>
  <line x1="1339.450195" y1="1060.000000" x2="1363.924561" y2="1410.000000" style="stroke: green; stroke-width: 0.200000"/>
  <line x1="1340.452759" y1="1060.000000" x2="1364.927002" y2="1410.000000" style="stroke: green; stroke-width: 0.200000"/>
  <line x1="1341.455078" y1="1060.000000" x2="1365.929565" y2="1410.000000" style="stroke: green; stroke-width: 0.200000"/>
  <line x1="1342.457520" y1="1060.000000" x2="1366.931885" y2="1410.000000" style="stroke: green; stroke-width: 0.200000"/>
  <line x1="1343.460083" y1="1060.000000" x2="1367.934448" y2="1410.000000" style="stroke: green; stroke-width: 0.200000"/>
  <line x1="1344.462402" y1="1060.000000" x2="1368.936768" y2="1410.000000" style="stroke: green; stroke-width: 0.200000"/>
  <line x1="1345.464966" y1="1060.000000" x2="1369.939209" y2="1410.000000" style="stroke: green; stroke-width: 0.200000"/>
  <line x1="1346.467285" y1="1060.000000" x2="1370.941772" y2="1410.000000" style="stroke: green; stroke-width: 0.200000"/>
  <line x1="1347.469727" y1="1060.000000" x2="1371.944336" y2="1410.000000" style="stroke: green; stroke-width: 0.200000"/>
  <line x1="1348.472290" y1="1060.000000" x2="1372.946655" y2="1410.000000" style="stroke: green; stroke-width: 0.200000"/>
  <line x1="1349.474609" y1="1060.000000" x2="1373.948975" y2="1410.000000" style="stroke: green; stroke-width: 0.200000"/>
  <line x1="1350.477173" y1="1060.000000" x2="1374.951416" y2="1410.000000" style="stroke: green; stroke-width: 0.200000"/>
  <line x1="1351.479492" y1="1060.000000" x2="1375.953979" y2="1410.000000" style="stroke: green; stroke-width: 0.200000"/>
  <line x1="1352.481934" y1="1060.000000" x2="1376.956543" y2="1410.000000" style="stroke: green; stroke-width: 0.200000"/>
  <line x1="1353.484497" y1="1060.000000" x2="1377.958862" y2="1410.000000" style="stroke: green; stroke-width: 0.200000"/>
  <line x1="1354.486816" y1="1060.000000" x2="1378.961182" y2="1410.000000" style="stroke: green; stroke-width: 0.200000"/>
  <line x1="1355.489380" y1="1060.000000" x2="1379.963623" y2="1410.000000" style="stroke: green; stroke-width: 0.200000"/>
  <line x1="1356.491699" y1="1060.000000" x2="1380.966187" y2="1410.000000" style="stroke: green; stroke-width: 0.200000"/>
  <line x1="1357.494141" y1="1060.000000" x2="1381.968506" y2="1410.000000" style="stroke: green; stroke-width: 0.200000"/>
  <line x1="1358.496704" y1="1060.000000" x2="1382.971069" y2="1410.000000" style="stroke: green; stroke-width: 0.200000"/>
  <line x1="1359.499023" y1="1060.000000" x2="1383.973389" y2="1410.000000" style="stroke: green; stroke-width: 0.200000"/>
  <line x1="1360.501587" y1="1060.000000" x2="1384.975830" y2="1410.000000" style="stroke: green; stroke-width: 0.200000"/>
  <line x1="1361.503906" y1="1060.000000" x2="1385.978394" y2="1410.000000" style="stroke: green; stroke-width: 0.200000"/>
  <line x1="1362.506348" y1="1060.000000" x2="1386.980713" y2="1410.000000" style="stroke: green; stroke-width: 0.200000"/>
  <line x1="1363.508911" y1="1060.000000" x2="1387.983276" y2="1410.000000" style="stroke: green; stroke-width: 0.200000"/>
  <line x1="1364.511230" y1="1060.000000" x2="1388.985596" y2="1410.000000" style="stroke: green; stroke-width: 0.200000"/>
  <line x1="1365.513794" y1="1060.000000" x2="1389.988037" y2="1410.000000" style="stroke: green; stroke-width: 0.200000"/>
  <line x1="1366.516113" y1="1060.000000" x2="1390.990601" y2="1410.000000" style="stroke: green; stroke-width: 0.200000"/>
  <line x1="1367.518555" y1="1060.000000" x2="1391.993164" y2="1410.000000" style="stroke: green; stroke-width: 0.200000"/>
  <line x1="1368.521118" y1="1060.000000" x2="1392.995483" y2="1410.000000" style="stroke: green; stroke-width: 0.200000"/>
  <line x1="1369.523438" y1="1060.000000" x2="1393.997925" y2="1410.000000" style="stroke: green; stroke-width: 0.200000"/>
  <line x1="1370.526001" y1="1060.000000" x2="1395.000244" y2="1410.000000" style="stroke: green; stroke-width: 0.200000"/>
  <line x1="1371.528320" y1="1060.000000" x2="1396.002808" y2="1410.000000" style="stroke: green; stroke-width: 0.200000"/>
  <line x1="1372.530762" y1="1060.000000" x2="1397.005127" y2="1410.000000" style="stroke: green; stroke-width: 0.200000"/>
  <line x1="1373.533325" y1="1060.000000" x2="1398.007690" y2="1410.000000" style="stroke: green; stroke-width: 0.200000"/>
  <line x1="1374.535645" y1="1060.000000" x2="1399.010132" y2="1410.000000" style="stroke: green; stroke-width: 0.200000"/>
  <line x1="1375.538208" y1="1060.000000" x2="1400.012451" y2="1410.000000" style="stroke: green; stroke-width: 0.200000"/>
  <line x1="1376.540527" y1="1060.000000" x2="1401.015015" y2="1410.000000" style="stroke: green; stroke-width: 0.200000"/>
  <line x1="1377.542969" y1="1060.000000" x2="1402.017578" y2="1410.000000" style="stroke: green; stroke-width: 0.200000"/>
  <line x1="1378.545532" y1="1060.000000" x2="1403.019897" y2="1410.000000" style="stroke: green; stroke-width: 0.200000"/>
  <line x1="1379.547852" y1="1060.000000" x2="1404.022217" y2="1410.000000" style="stroke: green; stroke-width: 0.200000"/>
  <line x1="1380.550415" y1="1060.000000" x2="1405.024658" y2="1410.000000" style="stroke: green; stroke-width: 0.200000"/>
  <line x1="1381.552734" y1="1060.000000" x2="1406.027222" y2="1410.000000" style="stroke: green; stroke-width: 0.200000"/>
  <line x1="1382.555176" y1="1060.000000" x2="1407.029785" y2="1410.000000" style="stroke: green; stroke-width: 0.200000"/>
  <line x1="1383.557739" y1="1060.000000" x2="1408.032104" y2="1410.000000" style="stroke: green; stroke-width: 0.200000"/>
  <line x1="1384.560303" y1="1060.000000" x2="1409.034546" y2="1410.000000" style="stroke: green; stroke-width: 0.200000"/>
  <line x1="1385.562622" y1="1060.000000" x2="1410.036865" y2="1410.000000" style="stroke: green; stroke-width: 0.200000"/>
  <line x1="1386.564941" y1="1060.000000" x2="1411.039429" y2="1410.000000" style="stroke: green; stroke-width: 0.200000"/>
  <line x1="1387.567383" y1="1060.000000" x2="1412.041992" y2="1410.000000" style="stroke: green; stroke-width: 0.200000"/>
  <line x1="1388.569946" y1="1060.000000" x2="1413.044312" y2="1410.000000" style="stroke: green; stroke-width: 0.200000"/>
  <line x1="1389.572266" y1="1060.000000" x2="1414.046753" y2="1410.000000" style="stroke: green; stroke-width: 0.200000"/>
  <line x1="1390.574829" y1="1060.000000" x2="1415.049072" y2="1410.000000" style="stroke: green; stroke-width: 0.200000"/>
  <line x1="1391.577148" y1="1060.000000" x2="1416.051636" y2="1410.000000" style="stroke: green; stroke-width: 0.200000"/>
  <line x1="1392.579590" y1="1060.000000" x2="1417.054199" y2="1410.000000" style="stroke: green; stroke-width: 0.200000"/>
  <line x1="1393.582153" y1="1060.000000" x2="1418.056519" y2="1410.000000" style="stroke: green; stroke-width: 0.200000"/>
  <line x1="1394.584473" y1="1060.000000" x2="1419.058838" y2="1410.000000" style="stroke: green; stroke-width: 0.200000"/>
  <line x1="1395.587036" y1="1060.000000" x2="1420.061279" y2="1410.000000" style="stroke: green; stroke-width: 0.200000"/>
  <line x1="1396.589355" y1="1060.000000" x2="1421.063843" y2="1410.000000" style="stroke: green; stroke-width: 0.200000"/>
  <line x1="1397.591797" y1="1060.000000" x2="1422.066406" y2="1410.000000" style="stroke: green; stroke-width: 0.200000"/>
  <line x1="1398.594360" y1="1060.000000" x2="1423.068726" y2="1410.000000" style="stroke: green; stroke-width: 0.200000"/>
  <line x1="1399.596924" y1="1060.000000" x2="1424.071167" y2="1410.000000" style="stroke: green; stroke-width: 0.200000"/>
  <line x1="1400.599243" y1="1060.000000" x2="1425.073486" y2="1410.000000" style="stroke: green; stroke-width: 0.200000"/>
  <line x1="1401.601562" y1="1060.000000" x2="1426.076050" y2="1410.000000" style="stroke: green; stroke-width: 0.200000"/>
  <line x1="1402.604004" y1="1060.000000" x2="1427.078613" y2="1410.000000" style="stroke: green; stroke-width: 0.200000"/>
  <line x1="1403.606567" y1="1060.000000" x2="1428.080933" y2="1410.000000" style="stroke: green; stroke-width: 0.200000"/>
  <line x1="1404.609131" y1="1060.000000" x2="1429.083374" y2="1410.000000" style="stroke: green; stroke-width: 0.200000"/>
  <line x1="1405.611450" y1="1060.000000" x2="1430.085693" y2="1410.000000" style="stroke: green; stroke-width: 0.200000"/>
  <line x1="1406.613892" y1="1060.000000" x2="1431.088257" y2="1410.000000" style="stroke: green; stroke-width: 0.200000"/>
  <line x1="1407.616211" y1="1060.000000" x2="1432.090820" y2="1410.000000" style="stroke: green; stroke-width: 0.200000"/>
  <line x1="1408.618774" y1="1060.000000" x2="1433.093140" y2="1410.000000" style="stroke: green; stroke-width: 0.200000"/>
  <line x1="1409.621338" y1="1060.000000" x2="1434.095581" y2="1410.000000" style="stroke: green; stroke-width: 0.200000"/>
  <line x1="1410.623657" y1="1060.000000" x2="1435.097900" y2="1410.000000" style="stroke: green; stroke-width: 0.200000"/>
  <line x1="1411.625977" y1="1060.000000" x2="1436.100464" y2="1410.000000" style="stroke: green; stroke-width: 0.200000"/>
  <line x1="1412.628418" y1="1060.000000" x2="1437.103027" y2="1410.000000" style="stroke: green; stroke-width: 0.200000"/>
  <line x1="1413.630981" y1="1060.000000" x2="1438.105347" y2="1410.000000" style="stroke: green; stroke-width: 0.200000"/>
  <line x1="1414.633545" y1="1060.000000" x2="1439.107788" y2="1410.000000" style="stroke: green; stroke-width: 0.200000"/>
  <line x1="1415.635864" y1="1060.000000" x2="1440.110107" y2="1410.000000" style="stroke: green; stroke-width: 0.200000"/>
  <line x1="1416.638184" y1="1060.000000" x2="1441.112671" y2="1410.000000" style="stroke: green; stroke-width: 0.200000"/>
  <line x1="1417.640625" y1="1060.000000" x2="1442.115234" y2="1410.000000" style="stroke: green; stroke-width: 0.200000"/>
  <line x1="1418.643188" y1="1060.000000" x2="1443.117554" y2="1410.000000" style="stroke: green; stroke-width: 0.200000"/>
  <line x1="1419.645752" y1="1060.000000" x2="1444.119995" y2="1410.000000" style="stroke: green; stroke-width: 0.200000"/>
  <line x1="1420.648071" y1="1060.000000" x2="1445.122314" y2="1410.000000" style="stroke: green; stroke-width: 0.200000"/>
  <line x1="1421.650513" y1="1060.000000" x2="1446.124878" y2="1410.000000" style="stroke: green; stroke-width: 0.200000"/>
  <line x1="1422.652832" y1="1060.000000" x2="1447.127441" y2="1410.000000" style="stroke: green; stroke-width: 0.200000"/>
  <line x1="1423.655396" y1="1060.000000" x2="1448.129761" y2="1410.000000" style="stroke: green; stroke-width: 0.200000"/>
  <line x1="1424.657959" y1="1060.000000" x2="1449.132202" y2="1410.000000" style="stroke: green; stroke-width: 0.200000"/>
  <line x1="1425.660278" y1="1060.000000" x2="1450.134521" y2="1410.000000" style="stroke: green; stroke-width: 0.200000"/>
  <line x1="1426.662598" y1="1060.000000" x2="1451.137085" y2="1410.000000" style="stroke: green; stroke-width: 0.200000"/>
  <line x1="1427.665039" y1="1060.000000" x2="1452.139648" y2="1410.000000" style="stroke: green; stroke-width: 0.200000"/>
  <line x1="1428.667603" y1="1060.000000" x2="1453.141968" y2="1410.000000" style="stroke: green; stroke-width: 0.200000"/>
  <line x1="1429.670166" y1="1060.000000" x2="1454.144409" y2="1410.000000" style="stroke: green; stroke-width: 0.200000"/>
  <line x1="1430.672485" y1="1060.000000" x2="1455.146729" y2="1410.000000" style="stroke: green; stroke-width: 0.200000"/>
  <line x1="1431.674805" y1="1060.000000" x2="1456.149292" y2="1410.000000" style="stroke: green; stroke-width: 0.200000"/>
  <line x1="1432.677246" y1="1060.000000" x2="1457.151855" y2="1410.000000" style="stroke: green; stroke-width: 0.200000"/>
  <line x1="1433.679810" y1="1060.000000" x2="1458.154175" y2="1410.000000" style="stroke: green; stroke-width: 0.200000"/>
  <line x1="1434.682373" y1="1060.000000" x2="1459.156616" y2="1410.000000" style="stroke: green; stroke-width: 0.200000"/>
  <line x1="1435.684692" y1="1060.000000" x2="1460.158936" y2="1410.000000" style="stroke: green; stroke-width: 0.200000"/>
  <line x1="1436.687134" y1="1060.000000" x2="1461.161499" y2="1410.000000" style="stroke: green; stroke-width: 0.200000"/>
  <line x1="1437.689453" y1="1060.000000" x2="1462.164062" y2="1410.000000" style="stroke: green; stroke-width: 0.200000"/>
  <line x1="1438.692017" y1="1060.000000" x2="1463.166382" y2="1410.000000" style="stroke: green; stroke-width: 0.200000"/>
  <line x1="1439.694580" y1="1060.000000" x2="1464.168823" y2="1410.000000" style="stroke: green; stroke-width: 0.200000"/>
  <line x1="1440.696899" y1="1060.000000" x2="1465.171143" y2="1410.000000" style="stroke: green; stroke-width: 0.200000"/>
  <line x1="1441.699341" y1="1060.000000" x2="1466.173706" y2="1410.000000" style="stroke: green; stroke-width: 0.200000"/>
  <line x1="1442.701660" y1="1060.000000" x2="1467.176270" y2="1410.000000" style="stroke: green; stroke-width: 0.200000"/>
  <line x1="1443.704224" y1="1060.000000" x2="1468.178589" y2="1410.000000" style="stroke: green; stroke-width: 0.200000"/>
  <line x1="1444.706787" y1="1060.000000" x2="1469.181030" y2="1410.000000" style="stroke: green; stroke-width: 0.200000"/>
  <line x1="1445.709106" y1="1060.000000" x2="1470.183350" y2="1410.000000" style="stroke: green; stroke-width: 0.200000"/>
  <line x1="1446.711548" y1="1060.000000" x2="1471.185913" y2="1410.000000" style="stroke: green; stroke-width: 0.200000"/>
  <line x1="1447.713867" y1="1060.000000" x2="1472.188477" y2="1410.000000" style="stroke: green; stroke-width: 0.200000"/>
  <line x1="1448.716431" y1="1060.000000" x2="1473.190796" y2="1410.000000" style="stroke: green; stroke-width: 0.200000"/>
  <line x1="1449.718994" y1="1060.000000" x2="1474.193237" y2="1410.000000" style="stroke: green; stroke-width: 0.200000"/>
  <line x1="1450.721313" y1="1060.000000" x2="1475.195557" y2="1410.000000" style="stroke: green; stroke-width: 0.200000"/>
  <line x1="1451.723755" y1="1060.000000" x2="1476.198120" y2="1410.000000" style="stroke: green; stroke-width: 0.200000"/>
  <line x1="1452.726074" y1="1060.000000" x2="1477.200684" y2="1410.000000" style="stroke: green; stroke-width: 0.200000"/>
  <line x1="1453.728638" y1="1060.000000" x2="1478.203003" y2="1410.000000" style="stroke: green; stroke-width: 0.200000"/>
  <line x1="1454.731201" y1="1060.000000" x2="1479.205444" y2="1410.000000" style="stroke: green; stroke-width: 0.200000"/>
  <line x1="1455.733521" y1="1060.000000" x2="1480.207764" y2="1410.000000" style="stroke: green; stroke-width: 0.200000"/>
  <line x1="1456.735962" y1="1060.000000" x2="1481.210327" y2="1410.000000" style="stroke: green; stroke-width: 0.200000"/>
  <line x1="1457.738281" y1="1060.000000" x2="1482.212891" y2="1410.000000" style="stroke: green; stroke-width: 0.200000"/>
  <line x1="1458.740845" y1="1060.000000" x2="1483.215210" y2="1410.000000" style="stroke: green; stroke-width: 0.200000"/>
  <line x1="1459.743408" y1="1060.000000" x2="1484.217651" y2="1410.000000" style="stroke: green; stroke-width: 0.200000"/>
  <line x1="1460.745728" y1="1060.000000" x2="1485.219971" y2="1410.000000" style="stroke: green; stroke-width: 0.200000"/>
  <line x1="1461.748169" y1="1060.000000" x2="1486.222534" y2="1410.000000" style="stroke: green; stroke-width: 0.200000"/>
  <line x1="1462.750488" y1="1060.000000" x2="1487.225098" y2="1410.000000" style="stroke: green; stroke-width: 0.200000"/>
  <line x1="1463.753052" y1="1060.000000" x2="1488.227539" y2="1410.000000" style="stroke: green; stroke-width: 0.200000"/>
  <line x1="1464.755615" y1="1060.000000" x2="1489.229858" y2="1410.000000" style="stroke: green; stroke-width: 0.200000"/>
  <line x1="1465.757935" y1="1060.000000" x2="1490.232178" y2="1410.000000" style="stroke: green; stroke-width: 0.200000"/>
  <line x1="1466.760376" y1="1060.000000" x2="1491.234741" y2="1410.000000" style="stroke: green; stroke-width: 0.200000"/>
  <line x1="1467.762695" y1="1060.000000" x2="1492.237305" y2="1410.000000" style="stroke: green; stroke-width: 0.200000"/>
  <line x1="1468.765259" y1="1060.000000" x2="1493.239624" y2="1410.000000" style="stroke: green; stroke-width: 0.200000"/>
  <line x1="1469.767822" y1="1060.000000" x2="1494.242065" y2="1410.000000" style="stroke: green; stroke-width: 0.200000"/>
  <line x1="1470.770142" y1="1060.000000" x2="1495.244385" y2="1410.000000" style="stroke: green; stroke-width: 0.200000"/>
  <line x1="1471.772583" y1="1060.000000" x2="1496.246948" y2="1410.000000" style="stroke: green; stroke-width: 0.200000"/>
  <line x1="1472.774902" y1="1060.000000" x2="1497.249512" y2="1410.000000" style="stroke: green; stroke-width: 0.200000"/>
  <line x1="1473.777466" y1="1060.000000" x2="1498.251831" y2="1410.000000" style="stroke: green; stroke-width: 0.200000"/>
  <line x1="1474.780029" y1="1060.000000" x2="1499.254272" y2="1410.000000" style="stroke: green; stroke-width: 0.200000"/>
  <line x1="1475.782349" y1="1060.000000" x2="1500.256592" y2="1410.000000" style="stroke: green; stroke-width: 0.200000"/>
  <line x1="1476.784790" y1="1060.000000" x2="1501.259155" y2="1410.000000" style="stroke: green; stroke-width: 0.200000"/>
  <line x1="1477.787109" y1="1060.000000" x2="1502.261719" y2="1410.000000" style="stroke: green; stroke-width: 0.200000"/>
  <line x1="1478.789673" y1="1060.000000" x2="1503.264038" y2="1410.000000" style="stroke: green; stroke-width: 0.200000"/>
  <line x1="1479.792236" y1="1060.000000" x2="1504.266479" y2="1410.000000" style="stroke: green; stroke-width: 0.200000"/>
  <line x1="1480.794556" y1="1060.000000" x2="1505.268799" y2="1410.000000" style="stroke: green; stroke-width: 0.200000"/>
  <line x1="1481.796997" y1="1060.000000" x2="1506.271362" y2="1410.000000" style="stroke: green; stroke-width: 0.200000"/>
  <line x1="1482.799316" y1="1060.000000" x2="1507.273926" y2="1410.000000" style="stroke: green; stroke-width: 0.200000"/>
  <line x1="1483.801880" y1="1060.000000" x2="1508.276245" y2="1410.000000" style="stroke: green; stroke-width: 0.200000"/>
  <line x1="1484.804443" y1="1060.000000" x2="1509.278687" y2="1410.000000" style="stroke: green; stroke-width: 0.200000"/>
  <line x1="1485.806885" y1="1060.000000" x2="1510.281250" y2="1410.000000" style="stroke: green; stroke-width: 0.200000"/>
  <line x1="1486.809204" y1="1060.000000" x2="1511.283569" y2="1410.000000" style="stroke: green; stroke-width: 0.200000"/>
  <line x1="1487.811523" y1="1060.000000" x2="1512.286133" y2="1410.000000" style="stroke: green; stroke-width: 0.200000"/>
  <line x1="1488.814087" y1="1060.000000" x2="1513.288452" y2="1410.000000" style="stroke: green; stroke-width: 0.200000"/>
  <line x1="1489.816650" y1="1060.000000" x2="1514.290894" y2="1410.000000" style="stroke: green; stroke-width: 0.200000"/>
  <line x1="1490.818970" y1="1060.000000" x2="1515.293457" y2="1410.000000" style="stroke: green; stroke-width: 0.200000"/>
  <line x1="1491.821411" y1="1060.000000" x2="1516.295776" y2="1410.000000" style="stroke: green; stroke-width: 0.200000"/>
  <line x1="1492.823730" y1="1060.000000" x2="1517.298340" y2="1410.000000" style="stroke: green; stroke-width: 0.200000"/>
  <line x1="1493.826294" y1="1060.000000" x2="1518.300781" y2="1410.000000" style="stroke: green; stroke-width: 0.200000"/>
  <line x1="1494.828857" y1="1060.000000" x2="1519.303101" y2="1410.000000" style="stroke: green; stroke-width: 0.200000"/>
  <line x1="1495.831177" y1="1060.000000" x2="1520.305420" y2="1410.000000" style="stroke: green; stroke-width: 0.200000"/>
  <line x1="1496.833618" y1="1060.000000" x2="1521.307983" y2="1410.000000" style="stroke: green; stroke-width: 0.200000"/>
  <line x1="1497.835938" y1="1060.000000" x2="1522.310547" y2="1410.000000" style="stroke: green; stroke-width: 0.200000"/>
  <line x1="1498.838501" y1="1060.000000" x2="1523.312988" y2="1410.000000" style="stroke: green; stroke-width: 0.200000"/>
  <line x1="1499.841064" y1="1060.000000" x2="1524.315308" y2="1410.000000" style="stroke: green; stroke-width: 0.200000"/>
  <line x1="1500.843384" y1="1060.000000" x2="1525.317871" y2="1410.000000" style="stroke: green; stroke-width: 0.200000"/>
  <line x1="1501.845825" y1="1060.000000" x2="1526.320190" y2="1410.000000" style="stroke: green; stroke-width: 0.200000"/>
  <line x1="1502.848145" y1="1060.000000" x2="1527.322754" y2="1410.000000" style="stroke: green; stroke-width: 0.200000"/>
  <line x1="1503.850708" y1="1060.000000" x2="1528.325195" y2="1410.000000" style="stroke: green; stroke-width: 0.200000"/>
  <line x1="1504.853271" y1="1060.000000" x2="1529.327515" y2="1410.000000" style="stroke: green; stroke-width: 0.200000"/>
  <line x1="1505.855591" y1="1060.000000" x2="1530.330078" y2="1410.000000" style="stroke: green; stroke-width: 0.200000"/>
  <line x1="1506.858032" y1="1060.000000" x2="1531.332397" y2="1410.000000" style="stroke: green; stroke-width: 0.200000"/>
  <line x1="1507.860352" y1="1060.000000" x2="1532.334961" y2="1410.000000" style="stroke: green; stroke-width: 0.200000"/>
  <line x1="1508.862915" y1="1060.000000" x2="1533.337402" y2="1410.000000" style="stroke: green; stroke-width: 0.200000"/>
  <line x1="1509.865479" y1="1060.000000" x2="1534.339722" y2="1410.000000" style="stroke: green; stroke-width: 0.200000"/>
  <line x1="1510.867798" y1="1060.000000" x2="1535.342041" y2="1410.000000" style="stroke: green; stroke-width: 0.200000"/>
  <line x1="1511.870239" y1="1060.000000" x2="1536.344604" y2="1410.000000" style="stroke: green; stroke-width: 0.200000"/>
  <line x1="1512.872559" y1="1060.000000" x2="1537.347168" y2="1410.000000" style="stroke: green; stroke-width: 0.200000"/>
  <line x1="1513.875122" y1="1060.000000" x2="1538.349609" y2="1410.000000" style="stroke: green; stroke-width: 0.200000"/>
  <line x1="1514.877686" y1="1060.000000" x2="1539.351929" y2="1410.000000" style="stroke: green; stroke-width: 0.200000"/>
  <line x1="1515.880005" y1="1060.000000" x2="1540.354492" y2="1410.000000" style="stroke: green; stroke-width: 0.200000"/>
  <line x1="1516.882446" y1="1060.000000" x2="1541.356812" y2="1410.000000" style="stroke: green; stroke-width: 0.200000"/>
  <line x1="1517.884766" y1="1060.000000" x2="1542.359375" y2="1410.000000" style="stroke: green; stroke-width: 0.200000"/>
  <line x1="1518.887329" y1="1060.000000" x2="1543.361816" y2="1410.000000" style="stroke: green; stroke-width: 0.200000"/>
  <line x1="1519.889893" y1="1060.000000" x2="1544.364136" y2="1410.000000" style="stroke: green; stroke-width: 0.200000"/>
  <line x1="1520.892334" y1="1060.000000" x2="1545.366699" y2="1410.000000" style="stroke: green; stroke-width: 0.200000"/>
  <line x1="1521.894653" y1="1060.000000" x2="1546.369019" y2="1410.000000" style="stroke: green; stroke-width: 0.200000"/>
  <line x1="1522.897217" y1="1060.000000" x2="1547.371582" y2="1410.000000" style="stroke: green; stroke-width: 0.200000"/>
  <line x1="1523.899536" y1="1060.000000" x2="1548.374023" y2="1410.000000" style="stroke: green; stroke-width: 0.200000"/>
  <line x1="1524.902100" y1="1060.000000" x2="1549.376343" y2="1410.000000" style="stroke: green; stroke-width: 0.200000"/>
  <line x1="1525.904541" y1="1060.000000" x2="1550.378906" y2="1410.000000" style="stroke: green; stroke-width: 0.200000"/>
  <line x1="1526.906860" y1="1060.000000" x2="1551.381226" y2="1410.000000" style="stroke: green; stroke-width: 0.200000"/>
  <line x1="1527.909180" y1="1060.000000" x2="1552.383789" y2="1410.000000" style="stroke: green; stroke-width: 0.200000"/>
  <line x1="1528.911743" y1="1060.000000" x2="1553.386230" y2="1410.000000" style="stroke: green; stroke-width: 0.200000"/>
  <line x1="1529.914307" y1="1060.000000" x2="1554.388550" y2="1410.000000" style="stroke: green; stroke-width: 0.200000"/>
  <line x1="1530.916748" y1="1060.000000" x2="1555.391113" y2="1410.000000" style="stroke: green; stroke-width: 0.200000"/>
  <line x1="1531.919067" y1="1060.000000" x2="1556.393433" y2="1410.000000" style="stroke: green; stroke-width: 0.200000"/>
  <line x1="1532.921387" y1="1060.000000" x2="1557.395996" y2="1410.000000" style="stroke: green; stroke-width: 0.200000"/>
  <line x1="1533.923950" y1="1060.000000" x2="1558.398438" y2="1410.000000" style="stroke: green; stroke-width: 0.200000"/>
  <line x1="1534.926514" y1="1060.000000" x2="1559.400757" y2="1410.000000" style="stroke: green; stroke-width: 0.200000"/>
  <line x1="1535.928955" y1="1060.000000" x2="1560.403320" y2="1410.000000" style="stroke: green; stroke-width: 0.200000"/>
  <line x1="1536.931274" y1="1060.000000" x2="1561.405640" y2="1410.000000" style="stroke: green; stroke-width: 0.200000"/>
  <line x1="1537.933594" y1="1060.000000" x2="1562.408203" y2="1410.000000" style="stroke: green; stroke-width: 0.200000"/>
  <line x1="1538.936157" y1="1060.000000" x2="1563.410645" y2="1410.000000" style="stroke: green; stroke-width: 0.200000"/>
  <line x1="1539.938721" y1="1060.000000" x2="1564.412964" y2="1410.000000" style="stroke: green; stroke-width: 0.200000"/>
  <line x1="1540.941162" y1="1060.000000" x2="1565.415527" y2="1410.000000" style="stroke: green; stroke-width: 0.200000"/>
  <line x1="1541.943481" y1="1060.000000" x2="1566.417847" y2="1410.000000" style="stroke: green; stroke-width: 0.200000"/>
  <line x1="1542.945801" y1="1060.000000" x2="1567.420410" y2="1410.000000" style="stroke: green; stroke-width: 0.200000"/>
  <line x1="1543.948364" y1="1060.000000" x2="1568.422852" y2="1410.000000" style="stroke: green; stroke-width: 0.200000"/>
  <line x1="1544.950928" y1="1060.000000" x2="1569.425171" y2="1410.000000" style="stroke: green; stroke-width: 0.200000"/>
  <line x1="1545.953369" y1="1060.000000" x2="1570.427734" y2="1410.000000" style="stroke: green; stroke-width: 0.200000"/>
  <line x1="1546.955688" y1="1060.000000" x2="1571.430054" y2="1410.000000" style="stroke: green; stroke-width: 0.200000"/>
  <line x1="1547.958008" y1="1060.000000" x2="1572.432617" y2="1410.000000" style="stroke: green; stroke-width: 0.200000"/>
  <line x1="1548.960571" y1="1060.000000" x2="1573.435059" y2="1410.000000" style="stroke: green; stroke-width: 0.200000"/>
  <line x1="1549.963135" y1="1060.000000" x2="1574.437378" y2="1410.000000" style="stroke: green; stroke-width: 0.200000"/>
  <line x1="1550.965576" y1="1060.000000" x2="1575.439941" y2="1410.000000" style="stroke: green; stroke-width: 0.200000"/>
  <line x1="1551.967896" y1="1060.000000" x2="1576.442261" y2="1410.000000" style="stroke: green; stroke-width: 0.200000"/>
  <line x1="1552.970459" y1="1060.000000" x2="1577.444824" y2="1410.000000" style="stroke: green; stroke-width: 0.200000"/>
  <line x1="1553.972778" y1="1060.000000" x2="1578.447266" y2="1410.000000" style="stroke: green; stroke-width: 0.200000"/>
  <line x1="1554.975342" y1="1060.000000" x2="1579.449585" y2="1410.000000" style="stroke: green; stroke-width: 0.200000"/>
  <line x1="1555.977783" y1="1060.000000" x2="1580.452148" y2="1410.000000" style="stroke: green; stroke-width: 0.200000"/>
  <line x1="1556.980103" y1="1060.000000" x2="1581.454468" y2="1410.000000" style="stroke: green; stroke-width: 0.200000"/>
  <line x1="1557.982666" y1="1060.000000" x2="1582.457031" y2="1410.000000" style="stroke: green; stroke-width: 0.200000"/>
  <line x1="1558.984985" y1="1060.000000" x2="1583.459473" y2="1410.000000" style="stroke: green; stroke-width: 0.200000"/>
  <line x1="1559.987549" y1="1060.000000" x2="1584.461792" y2="1410.000000" style="stroke: green; stroke-width: 0.200000"/>
  <line x1="1560.989990" y1="1060.000000" x2="1585.464355" y2="1410.000000" style="stroke: green; stroke-width: 0.200000"/>
  <line x1="1561.992310" y1="1060.000000" x2="1586.466675" y2="1410.000000" style="stroke: green; stroke-width: 0.200000"/>
  <line x1="1562.994873" y1="1060.000000" x2="1587.469238" y2="1410.000000" style="stroke: green; stroke-width: 0.200000"/>
  <line x1="1563.997192" y1="1060.000000" x2="1588.471680" y2="1410.000000" style="stroke: green; stroke-width: 0.200000"/>
  <line x1="1564.999756" y1="1060.000000" x2="1589.473999" y2="1410.000000" style="stroke: green; stroke-width: 0.200000"/>
  <line x1="1566.002197" y1="1060.000000" x2="1590.476562" y2="1410.000000" style="stroke: green; stroke-width: 0.200000"/>
  <line x1="1567.004517" y1="1060.000000" x2="1591.478882" y2="1410.000000" style="stroke: green; stroke-width: 0.200000"/>
  <line x1="1568.007080" y1="1060.000000" x2="1592.481445" y2="1410.000000" style="stroke: green; stroke-width: 0.200000"/>
  <line x1="1569.009399" y1="1060.000000" x2="1593.483887" y2="1410.000000" style="stroke: green; stroke-width: 0.200000"/>
  <line x1="1570.011963" y1="1060.000000" x2="1594.486206" y2="1410.000000" style="stroke: green; stroke-width: 0.200000"/>
  <line x1="1571.014404" y1="1060.000000" x2="1595.488770" y2="1410.000000" style="stroke: green; stroke-width: 0.200000"/>
  <line x1="1572.016724" y1="1060.000000" x2="1596.491089" y2="1410.000000" style="stroke: green; stroke-width: 0.200000"/>
  <line x1="1573.019287" y1="1060.000000" x2="1597.493652" y2="1410.000000" style="stroke: green; stroke-width: 0.200000"/>
  <line x1="1574.021606" y1="1060.000000" x2="1598.496094" y2="1410.000000" style="stroke: green; stroke-width: 0.200000"/>
  <line x1="1575.024170" y1="1060.000000" x2="1599.498413" y2="1410.000000" style="stroke: green; stroke-width: 0.200000"/>
  <line x1="1576.026611" y1="1060.000000" x2="1600.500977" y2="1410.000000" style="stroke: green; stroke-width: 0.200000"/>
  <line x1="1577.028931" y1="1060.000000" x2="1601.503296" y2="1410.000000" style="stroke: green; stroke-width: 0.200000"/>
  <line x1="1578.031494" y1="1060.000000" x2="1602.505859" y2="1410.000000" style="stroke: green; stroke-width: 0.200000"/>
  <line x1="1579.033813" y1="1060.000000" x2="1603.508301" y2="1410.000000" style="stroke: green; stroke-width: 0.200000"/>
  <line x1="1580.036377" y1="1060.000000" x2="1604.510742" y2="1410.000000" style="stroke: green; stroke-width: 0.200000"/>
  <line x1="1581.038818" y1="1060.000000" x2="1605.513184" y2="1410.000000" style="stroke: green; stroke-width: 0.200000"/>
  <line x1="1582.041138" y1="1060.000000" x2="1606.515503" y2="1410.000000" style="stroke: green; stroke-width: 0.200000"/>
  <line x1="1583.043701" y1="1060.000000" x2="1607.518066" y2="1410.000000" style="stroke: green; stroke-width: 0.200000"/>
  <line x1="1584.046021" y1="1060.000000" x2="1608.520508" y2="1410.000000" style="stroke: green; stroke-width: 0.200000"/>
  <line x1="1585.048584" y1="1060.000000" x2="1609.522827" y2="1410.000000" style="stroke: green; stroke-width: 0.200000"/>
  <line x1="1586.051025" y1="1060.000000" x2="1610.525391" y2="1410.000000" style="stroke: green; stroke-width: 0.200000"/>
  <line x1="1587.053345" y1="1060.000000" x2="1611.527710" y2="1410.000000" style="stroke: green; stroke-width: 0.200000"/>
  <line x1="1588.055908" y1="1060.000000" x2="1612.530273" y2="1410.000000" style="stroke: green; stroke-width: 0.200000"/>
  <line x1="1589.058228" y1="1060.000000" x2="1613.532715" y2="1410.000000" style="stroke: green; stroke-width: 0.200000"/>
  <line x1="1590.060791" y1="1060.000000" x2="1614.535034" y2="1410.000000" style="stroke: green; stroke-width: 0.200000"/>
  <line x1="1591.063232" y1="1060.000000" x2="1615.537598" y2="1410.000000" style="stroke: green; stroke-width: 0.200000"/>
  <line x1="1592.065552" y1="1060.000000" x2="1616.539917" y2="1410.000000" style="stroke: green; stroke-width: 0.200000"/>
  <line x1="1593.068115" y1="1060.000000" x2="1617.542480" y2="1410.000000" style="stroke: green; stroke-width: 0.200000"/>
  <line x1="1594.070435" y1="1060.000000" x2="1618.544922" y2="1410.000000" style="stroke: green; stroke-width: 0.200000"/>
  <line x1="1595.072998" y1="1060.000000" x2="1619.547363" y2="1410.000000" style="stroke: green; stroke-width: 0.200000"/>
  <line x1="1596.075439" y1="1060.000000" x2="1620.549805" y2="1410.000000" style="stroke: green; stroke-width: 0.200000"/>
  <line x1="1597.077759" y1="1060.000000" x2="1621.552246" y2="1410.000000" style="stroke: green; stroke-width: 0.200000"/>
  <line x1="1598.080322" y1="1060.000000" x2="1622.554688" y2="1410.000000" style="stroke: green; stroke-width: 0.200000"/>
  <line x1="1599.082642" y1="1060.000000" x2="1623.557129" y2="1410.000000" style="stroke: green; stroke-width: 0.200000"/>
  <line x1="1600.085205" y1="1060.000000" x2="1624.559448" y2="1410.000000" style="stroke: green; stroke-width: 0.200000"/>
  <line x1="1601.087646" y1="1060.000000" x2="1625.562012" y2="1410.000000" style="stroke: green; stroke-width: 0.200000"/>
  <line x1="1602.089966" y1="1060.000000" x2="1626.564453" y2="1410.000000" style="stroke: green; stroke-width: 0.200000"/>
  <line x1="1603.092529" y1="1060.000000" x2="1627.566895" y2="1410.000000" style="stroke: green; stroke-width: 0.200000"/>
  <line x1="1604.094849" y1="1060.000000" x2="1628.569336" y2="1410.000000" style="stroke: green; stroke-width: 0.200000"/>
  <line x1="1605.097412" y1="1060.000000" x2="1629.571777" y2="1410.000000" style="stroke: green; stroke-width: 0.200000"/>
  <line x1="1606.099854" y1="1060.000000" x2="1630.574219" y2="1410.000000" style="stroke: green; stroke-width: 0.200000"/>
  <line x1="1607.102173" y1="1060.000000" x2="1631.576538" y2="1410.000000" style="stroke: green; stroke-width: 0.200000"/>
  <line x1="1608.104736" y1="1060.000000" x2="1632.579102" y2="1410.000000" style="stroke: green; stroke-width: 0.200000"/>
  <line x1="1609.107056" y1="1060.000000" x2="1633.581543" y2="1410.000000" style="stroke: green; stroke-width: 0.200000"/>
  <line x1="1610.109619" y1="1060.000000" x2="1634.583862" y2="1410.000000" style="stroke: green; stroke-width: 0.200000"/>
  <line x1="1611.112061" y1="1060.000000" x2="1635.586426" y2="1410.000000" style="stroke: green; stroke-width: 0.200000"/>
  <line x1="1612.114380" y1="1060.000000" x2="1636.588867" y2="1410.000000" style="stroke: green; stroke-width: 0.200000"/>
  <line x1="1613.116943" y1="1060.000000" x2="1637.591309" y2="1410.000000" style="stroke: green; stroke-width: 0.200000"/>
  <line x1="1614.119263" y1="1060.000000" x2="1638.593750" y2="1410.000000" style="stroke: green; stroke-width: 0.200000"/>
  <line x1="1615.121826" y1="1060.000000" x2="1638.807373" y2="1398.718872" style="stroke: green; stroke-width: 0.200000"/>
  <line x1="1616.124268" y1="1060.000000" x2="1638.807373" y2="1384.382812" style="stroke: green; stroke-width: 0.200000"/>
  <line x1="1617.126587" y1="1060.000000" x2="1638.807373" y2="1370.047485" style="stroke: green; stroke-width: 0.200000"/>
  <line x1="1618.129150" y1="1060.000000" x2="1638.807373" y2="1355.711914" style="stroke: green; stroke-width: 0.200000"/>
  <line x1="1619.131470" y1="1060.000000" x2="1638.807373" y2="1341.375854" style="stroke: green; stroke-width: 0.200000"/>
  <line x1="1620.134033" y1="1060.000000" x2="1638.807373" y2="1327.040527" style="stroke: green; stroke-width: 0.200000"/>
  <line x1="1621.136475" y1="1060.000000" x2="1638.807373" y2="1312.705078" style="stroke: green; stroke-width: 0.200000"/>
  <line x1="1622.138794" y1="1060.000000" x2="1638.807373" y2="1298.369751" style="stroke: green; stroke-width: 0.200000"/>
  <line x1="1623.141357" y1="1060.000000" x2="1638.807373" y2="1284.033691" style="stroke: green; stroke-width: 0.200000"/>
  <line x1="1624.143677" y1="1060.000000" x2="1638.807373" y2="1269.698364" style="stroke: green; stroke-width: 0.200000"/>
  <line x1="1625.146240" y1="1060.000000" x2="1638.807373" y2="1255.362793" style="stroke: green; stroke-width: 0.200000"/>
  <line x1="1626.148682" y1="1060.000000" x2="1638.807373" y2="1241.027222" style="stroke: green; stroke-width: 0.200000"/>
  <line x1="1627.151123" y1="1060.000000" x2="1638.807373" y2="1226.691406" style="stroke: green; stroke-width: 0.200000"/>
  <line x1="1628.153564" y1="1060.000000" x2="1638.807373" y2="1212.355835" style="stroke: green; stroke-width: 0.200000"/>
  <line x1="1629.155884" y1="1060.000000" x2="1638.807373" y2="1198.020508" style="stroke: green; stroke-width: 0.200000"/>
  <line x1="1630.158447" y1="1060.000000" x2="1638.807373" y2="1183.684570" style="stroke: green; stroke-width: 0.200000"/>
  <line x1="1631.160889" y1="1060.000000" x2="1638.807373" y2="1169.349243" style="stroke: green; stroke-width: 0.200000"/>
  <line x1="1632.163208" y1="1060.000000" x2="1638.807373" y2="1155.013550" style="stroke: green; stroke-width: 0.200000"/>
  <line x1="1633.165771" y1="1060.000000" x2="1638.807373" y2="1140.678345" style="stroke: green; stroke-width: 0.200000"/>
  <line x1="1634.168213" y1="1060.000000" x2="1638.807373" y2="1126.342285" style="stroke: green; stroke-width: 0.200000"/>
  <line x1="1635.170654" y1="1060.000000" x2="1638.807373" y2="1112.006958" style="stroke: green; stroke-width: 0.200000"/>
  <line x1="1636.173096" y1="1060.000000" x2="1638.807373" y2="1097.671387" style="stroke: green; stroke-width: 0.200000"/>
  <line x1="1637.175415" y1="1060.000000" x2="1638.807373" y2="1083.335693" style="stroke: green; stroke-width: 0.200000"/>
  <line x1="1638.177979" y1="1060.000000" x2="1638.807373" y2="1069.000000" style="stroke: green; stroke-width: 0.200000"/>
  <path d="M 1638.81  1410  1321.19  1410  1321.19  1060  1638.81  1060  1638.81  1410  " style="fill: none; stroke: black; stroke-width: 0.200000; fill-type: evenodd"  fill-opacity="1.000000" />
</svg>
